<svg xmlns="http://www.w3.org/2000/svg" width="500" height="331" viewBox="0 0 500 331" version="1.1">
	<path d="M 296.500 1.139 C 256.465 3.121, 188.620 11.980, 184.886 15.714 C 183.892 16.708, 182.795 22.836, 181.258 35.980 L 180.500 42.459 171.500 44.554 C 154.194 48.583, 153.218 49.105, 140.838 60.955 C 134.602 66.925, 125.009 77.013, 119.519 83.374 C 110.043 94.355, 109.479 94.829, 108.359 92.736 C 107.710 91.524, 107.528 89.850, 107.954 89.016 C 109.094 86.783, 109.938 76.518, 109.094 75.153 C 108.651 74.436, 107.197 74.211, 105.368 74.576 L 102.368 75.176 102.806 88.875 L 103.243 102.573 98.213 108.077 C 92.884 113.907, 83.452 119.495, 80.713 118.443 C 79.491 117.974, 79.001 116.166, 78.739 111.160 L 78.392 104.500 78.196 111.095 C 78.048 116.086, 77.547 118.100, 76.137 119.376 C 75.112 120.304, 65.999 124.016, 55.887 127.626 C 25.316 138.538, 15.596 143.944, 12.839 151.569 C 11.810 154.413, 11.077 155.017, 8.549 155.100 C -0.705 155.402, -2.552 159.306, 5.314 161.938 L 10.128 163.548 10.518 170.024 C 10.733 173.586, 11.198 179.085, 11.552 182.244 C 12.238 188.372, 12.349 188.207, 6.707 189.446 C 2.242 190.427, 2.293 192.655, 6.877 196.887 C 10.492 200.224, 11 201.229, 11 205.042 C 11 208.418, 10.388 210.029, 8.263 212.248 C 5.868 214.747, 5.494 216.006, 5.269 222.302 C 4.967 230.813, 6.281 235.483, 9.589 237.650 C 11.899 239.164, 12 239.698, 12 250.415 C 12 262.678, 12.517 263.970, 17.450 264.049 C 19.127 264.076, 34.225 269.191, 51 275.415 C 77.372 285.200, 81.703 287.098, 83 289.435 C 84.354 291.874, 84.890 292.077, 88.500 291.521 C 90.700 291.181, 96.848 289.453, 102.162 287.680 L 111.824 284.457 134.662 289.305 C 159.907 294.664, 173.590 295.644, 183.500 292.804 C 188.091 291.488, 188.786 290.866, 192 285.192 L 195.500 279.014 200.656 279.007 L 205.813 279 206.156 297.750 C 206.455 314.067, 206.760 317.019, 208.500 320.500 C 211.236 325.972, 219.001 329.865, 228.823 330.688 C 235.512 331.249, 236.238 331.107, 240.006 328.496 C 247.987 322.965, 250.611 318.978, 254.603 306.314 C 258.682 293.375, 258.882 292.985, 261.619 292.590 C 264.027 292.243, 264.838 288, 262.496 288 C 261.466 288, 260.983 287.348, 261.201 286.250 C 261.425 285.123, 262.297 284.604, 263.652 284.792 C 266.501 285.188, 267.484 282.329, 264.963 280.980 C 262.201 279.502, 262.346 275.235, 265.172 274.820 C 268.420 274.342, 268.487 272.326, 265.312 270.604 C 263.334 269.532, 263.019 269.068, 264.250 269.040 C 266.425 268.990, 266.628 265.178, 264.500 264.362 C 263.675 264.045, 263 262.882, 263 261.776 C 263 260.180, 263.463 259.891, 265.250 260.370 C 266.488 260.701, 268.063 260.979, 268.750 260.986 C 269.438 260.994, 270 262.074, 270 263.386 C 270 264.698, 270.672 267.060, 271.494 268.636 C 272.315 270.211, 272.990 274.001, 272.994 277.059 C 272.997 280.116, 273.572 283.400, 274.271 284.356 C 276.043 286.779, 293.573 291.219, 294.927 289.588 C 295.469 288.935, 296.045 284.663, 296.206 280.095 L 296.500 271.790 309.500 267.864 C 341.292 258.265, 376.272 246.454, 376.773 245.149 C 377.071 244.372, 376.238 242.918, 374.906 241.894 C 372.930 240.375, 372.813 240.040, 374.250 240.022 C 375.406 240.008, 376 239.215, 376 237.689 C 376 234.590, 379.501 231, 382.523 231 C 383.869 231, 394.307 226.950, 405.720 222 C 417.134 217.050, 426.734 213, 427.054 213 C 427.374 213, 428.135 216.732, 428.746 221.294 C 430.622 235.319, 432.363 237, 445.014 237 C 450.317 237, 452.291 236.559, 454.393 234.905 C 460.400 230.181, 464.902 216.432, 465.710 200.344 L 466.271 189.187 469.528 188.807 C 471.861 188.535, 473.102 188.934, 473.901 190.213 C 475.183 192.266, 479 192.638, 479 190.710 C 479 190.001, 482.712 187.639, 487.250 185.460 L 495.500 181.500 495.741 168.500 C 495.873 161.350, 496.678 144.700, 497.529 131.500 C 499.667 98.322, 499.645 97.443, 496.057 73.500 C 493.199 54.422, 492.913 50, 494.537 50 C 496.703 50, 498 46.618, 498 40.972 C 498 36.654, 497.674 35.728, 496 35.290 C 494.900 35.002, 494 34.369, 494 33.883 C 494 33.398, 493.473 33, 492.829 33 C 492.185 33, 490.947 32.368, 490.079 31.597 C 489.210 30.825, 465.550 24.718, 437.500 18.027 C 409.450 11.335, 381.239 4.541, 374.808 2.930 C 363.333 0.054, 362.658 0.003, 338.308 0.149 C 324.664 0.231, 305.850 0.677, 296.500 1.139 M 81.079 21.583 C 81.127 22.748, 81.364 22.985, 81.683 22.188 C 81.972 21.466, 81.936 20.603, 81.604 20.271 C 81.272 19.939, 81.036 20.529, 81.079 21.583 M 81.079 25.583 C 81.127 26.748, 81.364 26.985, 81.683 26.188 C 81.972 25.466, 81.936 24.603, 81.604 24.271 C 81.272 23.939, 81.036 24.529, 81.079 25.583 M 80.405 46.500 C 80.406 55.300, 80.559 58.766, 80.745 54.203 C 80.930 49.639, 80.929 42.439, 80.742 38.203 C 80.555 33.966, 80.404 37.700, 80.405 46.500 M 79.389 85.500 C 79.390 92.650, 79.550 95.444, 79.742 91.708 C 79.935 87.973, 79.934 82.123, 79.739 78.708 C 79.545 75.294, 79.387 78.350, 79.389 85.500 M 105.150 90.668 C 105.067 91.861, 104.709 93.661, 104.353 94.668 C 103.855 96.077, 103.989 96.239, 104.931 95.372 C 105.605 94.751, 105.964 92.951, 105.728 91.372 C 105.426 89.348, 105.255 89.141, 105.150 90.668 M 8 158 C 8 158.550, 8.675 159, 9.500 159 C 10.325 159, 11 158.550, 11 158 C 11 157.450, 10.325 157, 9.500 157 C 8.675 157, 8 157.450, 8 158 M 9 192.800 C 9 193.835, 11.165 196, 12.200 196 C 12.640 196, 13 195.100, 13 194 C 13 192.667, 12.333 192, 11 192 C 9.900 192, 9 192.360, 9 192.800 M 17 249.531 C 17 250.339, 17.675 251, 18.500 251 C 19.325 251, 20 250.598, 20 250.107 C 20 249.616, 19.325 248.955, 18.500 248.638 C 17.586 248.288, 17 248.637, 17 249.531" fill="none" stroke="#000" stroke-width="2px" fill-rule="evenodd"/>
</svg>
