<svg xmlns="http://www.w3.org/2000/svg" width="500" height="306" viewBox="0 0 500 306" version="1.1">
	<path d="M 280.556 0.909 C 280.247 1.409, 279.709 8.722, 279.360 17.159 C 279.011 25.597, 278.277 33.370, 277.729 34.434 C 277.181 35.498, 276.455 42.923, 276.116 50.934 L 275.500 65.500 268 66.261 C 263.875 66.679, 251.725 68.315, 241 69.896 C 230.275 71.477, 221.340 72.625, 221.144 72.447 C 220.689 72.031, 229.377 60.505, 233.355 56.250 C 235.025 54.462, 237.218 53, 238.228 53 C 242.892 53, 240.365 44.727, 233.378 37.129 C 230.297 33.778, 229.177 33.163, 227.066 33.668 C 223.667 34.481, 223.763 34.338, 223.296 39.231 C 223.072 41.579, 222.018 45.300, 220.954 47.500 C 218.272 53.046, 202.443 74.193, 199.992 75.505 C 198.887 76.096, 197.286 77.574, 196.435 78.790 C 195.471 80.165, 193.841 81, 192.118 81 C 189.128 81, 186.126 83.749, 184.221 88.231 C 183.190 90.656, 183.309 91.091, 185.280 92.116 C 186.501 92.751, 187.668 93.415, 187.873 93.591 C 188.713 94.315, 175.345 111.979, 173.500 112.582 C 169.236 113.977, 168.043 115.992, 168.470 121.076 C 168.871 125.840, 168.731 126.106, 157.377 142.200 C 151.053 151.165, 145.343 159.007, 144.689 159.627 C 144.031 160.251, 138.310 161.013, 131.873 161.334 L 120.247 161.913 117.373 158.984 C 115.793 157.374, 114.050 156.039, 113.500 156.019 C 112.950 155.999, 111.295 157.449, 109.823 159.241 L 107.146 162.500 84.823 163.500 L 62.500 164.500 60.027 161.750 C 56.850 158.216, 54.785 158.278, 51.653 162 C 49.330 164.762, 48.617 165, 42.687 165 C 38.725 165, 35.866 165.481, 35.261 166.250 C 34.719 166.938, 33.969 169.750, 33.595 172.500 C 32.961 177.149, 28.013 215.327, 28.004 215.642 C 28.002 215.719, 26.961 216.044, 25.691 216.363 C 23.470 216.920, 23.319 217.619, 21.719 234.712 C 20.653 246.095, 19.633 252.622, 18.881 252.873 C 16.488 253.671, 0.500 269.303, 0.500 270.845 C 0.500 273.027, 5.918 273.842, 24.419 274.445 C 32.713 274.715, 45.350 275.600, 52.500 276.412 C 59.650 277.223, 71.125 278.385, 78 278.993 C 118.194 282.550, 268.304 298.917, 271.500 300.092 C 276.243 301.835, 292.674 304.710, 302.313 305.483 C 313.521 306.382, 316.526 305.314, 318.164 299.846 C 319.068 296.829, 321.194 294.368, 327.433 289.114 L 335.529 282.296 363.015 281.701 C 388.451 281.149, 414.469 278.978, 430.944 276.033 C 433.938 275.497, 437.431 275.321, 438.707 275.641 C 439.982 275.961, 441.587 275.758, 442.273 275.188 C 443.431 274.228, 448.008 273.565, 460.500 272.548 C 470.883 271.703, 483.470 268.815, 485.160 266.891 C 486.073 265.851, 487.530 265, 488.397 265 C 490.001 265, 493.506 258.173, 492.446 257.112 C 492.127 256.793, 488.408 256.300, 484.183 256.016 L 476.500 255.500 485.893 255 L 495.287 254.500 496.539 250.245 C 497.228 247.904, 497.501 245.818, 497.146 245.608 C 496.791 245.398, 492.788 244.904, 488.250 244.509 C 483.712 244.115, 480 243.406, 480 242.933 C 480 242.461, 484.157 241.946, 489.238 241.788 L 498.477 241.500 499.252 236.097 C 499.679 233.126, 499.850 230.516, 499.632 230.299 C 499.415 230.081, 494.909 229.412, 489.618 228.811 C 484.328 228.210, 480 227.332, 480 226.859 C 480 226.387, 484.248 226, 489.441 226 C 494.634 226, 499.070 225.662, 499.299 225.250 C 499.528 224.838, 499.442 222.263, 499.108 219.529 C 498.512 214.654, 498.423 214.544, 494.500 213.847 C 492.300 213.456, 487.462 212.845, 483.750 212.488 C 480.038 212.132, 477 211.443, 477 210.957 C 477 210.470, 481.387 209.944, 486.750 209.786 L 496.500 209.500 496.380 205.680 C 496.314 203.579, 495.742 201.342, 495.109 200.709 C 494.454 200.054, 488.910 199.295, 482.230 198.944 L 470.500 198.329 481.750 198.165 C 489.629 198.049, 493 197.647, 493 196.821 C 493 193.778, 490.468 189, 488.856 189 C 487.897 189, 486.518 188.149, 485.790 187.110 C 485.061 186.070, 482.448 184.643, 479.983 183.937 C 477.517 183.232, 474.790 182.058, 473.921 181.327 C 473.053 180.597, 471.839 180, 471.224 180 C 470.609 180, 468.054 178.909, 465.547 177.576 C 460.565 174.927, 450.379 173, 441.358 173 C 432.560 173, 436.215 171.281, 446.037 170.799 C 450.733 170.569, 455.120 170.044, 455.787 169.631 C 456.641 169.104, 457 164.883, 457 155.390 L 457 141.899 451 128.837 C 447.700 121.653, 445 115.421, 445 114.987 C 445 114.553, 446.688 113.779, 448.750 113.267 L 452.500 112.335 448.750 110.719 C 445.545 109.337, 444.985 108.623, 444.899 105.801 C 444.744 100.756, 445.056 95.698, 445.647 93.680 C 446.007 92.449, 445.557 91.697, 444.258 91.357 C 442.552 90.911, 442.199 89.258, 441.122 76.677 C 440.454 68.880, 439.502 58.900, 439.008 54.500 C 438.513 50.100, 438.084 43.789, 438.054 40.476 L 438 34.453 421.250 26.247 L 404.500 18.040 383.500 16.942 C 353.705 15.385, 351.625 15.421, 340.663 17.683 L 330.826 19.713 329.708 17.259 C 328.746 15.147, 328.107 14.883, 325.126 15.367 C 321.544 15.948, 319.706 17.638, 320.447 19.667 C 320.682 20.309, 320.295 21.056, 319.589 21.328 C 317.135 22.269, 309.001 34.789, 308.965 37.679 C 308.925 40.845, 306.604 45.654, 305.331 45.210 C 304.874 45.051, 304.355 45.849, 304.178 46.983 C 304 48.117, 302.322 51.622, 300.448 54.772 C 298.574 57.923, 296.537 61.738, 295.922 63.250 C 295.307 64.763, 294.096 66, 293.231 66 C 292.366 66, 290.791 66.784, 289.732 67.742 C 287.839 69.456, 287.812 69.214, 288.118 52.790 C 288.290 43.609, 288.124 35.790, 287.750 35.417 C 286.788 34.454, 288.071 5.700, 289.128 4.550 C 289.607 4.028, 290 2.790, 290 1.800 C 290 0.337, 289.169 0, 285.559 0 C 283.116 0, 280.865 0.409, 280.556 0.909 M 423.478 50 C 423.764 51.375, 424.908 62.625, 426.021 75 C 428.446 101.943, 428.630 103, 430.900 103 C 432.425 103, 432.552 102.348, 431.925 97.750 C 431.381 93.765, 431.547 92.230, 432.616 91.381 C 433.826 90.419, 433.803 88.304, 432.456 76.381 C 430.437 58.511, 430.667 59.415, 426.517 53 C 424.145 49.331, 423.133 48.332, 423.478 50 M 201.500 104.574 C 200.950 104.718, 198.898 105.102, 196.940 105.428 C 194.009 105.915, 192.640 107.069, 189.190 111.961 C 184.488 118.628, 183.667 120.738, 187.587 116.079 C 189.350 113.984, 191.976 112.492, 195.837 111.392 C 198.951 110.505, 201.876 109.430, 202.335 109.005 C 203.459 107.962, 202.759 104.243, 201.500 104.574 M 197.184 113.896 C 193 115.020, 191.122 116.235, 188.364 119.601 C 186.437 121.953, 184.519 125.142, 184.101 126.688 C 183.401 129.283, 182.966 129.500, 178.460 129.500 L 173.577 129.500 165.778 140.500 C 161.489 146.550, 156.569 153.464, 154.845 155.864 L 151.712 160.228 170.606 159.593 C 180.998 159.243, 192.264 158.711, 195.643 158.410 L 201.787 157.864 202.487 138.682 C 202.873 128.132, 203.033 117.918, 202.844 115.984 L 202.500 112.468 197.184 113.896" fill="none" stroke="#000" stroke-width="2px" fill-rule="evenodd"/>
</svg>
