<svg xmlns="http://www.w3.org/2000/svg" width="500" height="373" viewBox="0 0 500 373" version="1.1">
	<path d="M 293.500 4.884 C 240.299 29.960, 223 38.442, 223 39.450 C 223 40.109, 226.820 46.240, 231.488 53.074 C 236.156 59.908, 239.981 66.198, 239.988 67.051 C 239.995 67.904, 234.810 86.579, 228.468 108.551 C 222.125 130.523, 216.694 149.442, 216.399 150.593 C 215.961 152.301, 217.898 154.372, 226.931 161.854 C 233.019 166.896, 238 171.445, 238 171.963 C 238 172.481, 232.791 189.689, 226.425 210.202 C 218.989 234.161, 214.188 248.072, 212.999 249.100 C 211.982 249.980, 211.003 252.230, 210.825 254.100 C 210.517 257.327, 210.271 257.525, 206 258 C 201.742 258.473, 201.473 258.688, 201 262 C 200.553 265.128, 200.140 265.534, 197.112 265.824 C 195.248 266.002, 192.661 265.881, 191.362 265.555 C 189.128 264.994, 189 264.532, 189 257.040 C 189 252.683, 189.451 248.839, 190.003 248.498 C 190.661 248.091, 190.616 247.151, 189.872 245.760 C 189.091 244.302, 188.953 239.965, 189.427 231.859 C 190.048 221.235, 189.929 219.802, 188.210 217.288 C 186.379 214.611, 186.349 213.464, 187.459 188.369 C 188.682 160.720, 189.106 158.619, 194 156 C 196.390 154.721, 196.645 151.185, 194.409 150.327 C 191.912 149.368, 186.070 152.685, 184.918 155.716 C 183.564 159.278, 181.291 175.131, 180.505 186.500 C 179.686 198.338, 179.066 201.466, 177.793 200.193 C 177.240 199.640, 176.387 189.359, 175.897 177.344 C 175.407 165.330, 174.582 153.700, 174.062 151.500 C 172.930 146.705, 168.603 142.734, 162.093 140.516 C 155.027 138.108, 119.288 134.037, 104.985 134.010 C 101.461 134.004, 98.168 133.302, 95.863 132.066 C 92.629 130.333, 92.037 130.286, 90.143 131.613 C 88.981 132.426, 84.086 133.734, 79.265 134.518 C 61.929 137.337, 53.883 140.841, 41.377 151.020 C 33.023 157.819, 29.142 159.992, 25.300 160.022 C 21.046 160.055, 14.144 163.590, 12.870 166.387 C 8.979 174.927, 22.002 173.196, 27.138 164.491 C 29.253 160.906, 30.415 160.245, 31.504 162.007 C 33.243 164.821, 23.176 195.722, 17.335 205.500 C 12.880 212.957, 12.150 218.466, 11.891 246.562 C 11.756 261.251, 11.337 267.598, 10.394 269.231 C 7.640 274.007, 7.267 275.839, 6.722 287.286 C 6.070 300.990, 6.230 301.304, 15.464 304.443 C 19.617 305.855, 21.938 307.438, 24.581 310.664 C 26.531 313.044, 30.091 316.343, 32.493 317.995 C 36.393 320.678, 47.808 324.930, 55.238 326.466 C 57.160 326.863, 58.596 328.249, 60.059 331.115 C 63.281 337.432, 69.510 343.543, 75.236 346.006 C 81.385 348.652, 88.158 348.396, 97.272 345.176 L 103.043 343.136 104.410 345.318 C 105.162 346.518, 106.331 349.245, 107.008 351.377 C 108.992 357.626, 116.409 364.490, 123.500 366.639 C 132.378 369.331, 147.571 369.019, 155.475 365.983 C 165.991 361.944, 175.144 351.280, 178.065 339.665 C 179.664 333.303, 181.629 332.412, 189.871 334.316 C 197.450 336.067, 197.560 335.932, 196.635 325.983 C 196.284 322.208, 196.344 318.905, 196.768 318.643 C 197.193 318.381, 202.031 319.293, 207.520 320.669 C 215.172 322.588, 221.583 323.350, 235 323.936 C 244.625 324.356, 253.400 325.070, 254.500 325.523 C 255.600 325.975, 259.026 328.662, 262.112 331.493 C 274.957 343.272, 293.494 342.731, 306.312 330.203 C 310.933 325.687, 311.182 325.577, 312.562 327.441 C 313.392 328.562, 314 331.648, 314 334.741 C 314 340.777, 315.940 345.356, 319.260 347.153 C 320.492 347.820, 325.775 348.709, 331 349.129 C 336.225 349.548, 343.538 350.364, 347.252 350.942 C 354.953 352.140, 366.253 350.955, 371.119 348.439 C 372.769 347.585, 375.833 345.338, 377.928 343.446 L 381.737 340.005 384.536 342.207 C 386.739 343.940, 389.682 344.658, 398.370 345.582 C 404.439 346.227, 411.226 346.523, 413.453 346.238 C 419.138 345.512, 424.442 342.609, 427.092 338.773 C 428.335 336.973, 429.510 335.300, 429.703 335.056 C 429.896 334.812, 431.730 334.699, 433.777 334.806 C 435.825 334.912, 438.095 334.615, 438.822 334.146 C 440.331 333.172, 441.941 327.077, 441.976 322.202 C 441.992 319.990, 442.823 318.142, 444.500 316.588 C 447.665 313.654, 447.688 311.212, 444.561 310.023 C 443.219 309.513, 441.606 308.132, 440.976 306.955 C 439.664 304.503, 440.380 300.437, 442.241 299.769 C 442.934 299.520, 453.175 300.142, 465 301.151 C 476.825 302.159, 487.063 302.777, 487.750 302.524 C 488.517 302.241, 489 300.171, 489 297.166 C 489 293.774, 489.618 291.484, 491.012 289.712 C 492.799 287.440, 492.953 286.225, 492.390 278.827 C 491.678 269.468, 493.524 249.279, 495.286 247.156 C 496.738 245.406, 497.166 225.200, 495.806 222.646 C 494.960 221.059, 494.062 220.887, 489.558 221.449 L 484.298 222.107 413.358 148.803 C 324.597 57.086, 328.996 61.776, 329.020 58.878 C 329.031 57.570, 330.147 52.225, 331.500 47 C 332.853 41.775, 333.969 36.407, 333.980 35.071 C 333.995 33.260, 330 28.613, 318.291 16.821 C 309.651 8.119, 302.338 1.025, 302.041 1.057 C 301.743 1.088, 297.900 2.810, 293.500 4.884 M 243.895 180.750 C 243.314 182.262, 241.707 187.775, 240.324 193 C 238.941 198.225, 234.232 214.173, 229.860 228.439 C 225.488 242.705, 222.043 255.305, 222.205 256.439 C 222.385 257.694, 223.376 258.624, 224.739 258.818 C 226.298 259.040, 227.228 260.103, 227.800 262.318 L 228.621 265.500 244.061 266.118 C 268.589 267.099, 286.834 267.078, 287.458 266.069 C 287.774 265.557, 283.604 256.219, 278.191 245.319 C 272.778 234.418, 268.088 224.488, 267.768 223.250 C 267.301 221.442, 266.481 221, 263.594 221 C 259.154 221, 259.084 219.948, 263.250 215.896 C 265.818 213.398, 267.522 212.662, 271.372 212.389 C 274.052 212.198, 276.925 211.477, 277.758 210.786 C 278.590 210.095, 279.880 209.523, 280.624 209.515 C 282.940 209.489, 282.624 207.518, 280.250 207.180 C 279.012 207.005, 278 206.287, 278 205.585 C 278 202.970, 274.263 200.817, 270.325 201.163 C 266.566 201.494, 266.495 201.436, 266.193 197.804 C 265.918 194.502, 264.870 193.247, 256.382 186.054 C 251.154 181.624, 246.444 178, 245.914 178 C 245.384 178, 244.475 179.238, 243.895 180.750 M 291.686 221.794 C 290.171 223.469, 290.551 224.621, 297.377 239.044 C 310.290 266.330, 310.677 266.991, 313.764 267.067 C 331.096 267.489, 352.503 266.991, 352.781 266.158 C 352.966 265.601, 345.329 258.963, 335.809 251.406 C 326.289 243.848, 313.880 233.691, 308.234 228.833 C 297.553 219.644, 294.722 218.440, 291.686 221.794 M 277.010 224.892 C 275.220 225.391, 274.887 225.812, 275.825 226.392 C 277.531 227.446, 284.231 226.182, 283.469 224.949 C 282.810 223.884, 280.701 223.865, 277.010 224.892 M 280.171 233.648 C 280.364 234.654, 281.346 235.636, 282.352 235.829 C 283.673 236.084, 284.084 235.673, 283.829 234.352 C 283.636 233.346, 282.654 232.364, 281.648 232.171 C 280.327 231.916, 279.916 232.327, 280.171 233.648 M 290 248.441 C 290 250.184, 291.640 251.341, 292.956 250.527 C 294.287 249.704, 293.089 247, 291.393 247 C 290.627 247, 290 247.648, 290 248.441 M 296 265 C 296 265.550, 296.450 266, 297 266 C 297.550 266, 298 265.550, 298 265 C 298 264.450, 297.550 264, 297 264 C 296.450 264, 296 264.450, 296 265" fill="none" stroke="#000" stroke-width="2px" fill-rule="evenodd"/>
</svg>
