<svg xmlns="http://www.w3.org/2000/svg" width="500" height="305" viewBox="0 0 500 305" version="1.1">
	<path d="M 262.396 4.979 C 261.239 5.446, 259.360 7.104, 258.221 8.664 L 256.149 11.500 255.099 8.750 C 254.228 6.469, 253.449 6, 250.525 6 C 247.157 6, 247 6.157, 247 9.534 L 247 13.068 232.250 12.925 C 219.610 12.803, 215.878 13.154, 206.164 15.380 C 197.409 17.387, 194.363 17.730, 192.787 16.886 C 191.664 16.285, 187.188 15.550, 182.841 15.252 L 174.936 14.710 173.749 17.855 C 172.484 21.204, 172.330 21.256, 164.253 21.013 C 159.539 20.871, 158.911 21.104, 158.076 23.300 C 157.206 25.588, 155.782 26.006, 135.823 29.841 C 124.096 32.094, 107.975 34.899, 100 36.073 C 85.105 38.266, 82.709 39.079, 83.680 41.608 C 83.988 42.412, 82.519 45.867, 80.415 49.285 C 74.114 59.522, 20.242 138.748, 12.503 149.160 L 5.322 158.820 4.661 177.070 C 4.297 187.108, 4 200.929, 4 207.784 L 4 220.248 8.500 224.209 C 12.792 227.987, 13 228.421, 13 233.585 L 13 239 16.928 239 L 20.856 239 21.543 244.500 L 22.230 250 36.115 250 C 49.333 250, 50 249.904, 50 248 C 50 246.246, 50.667 246, 55.425 246 C 60.774 246, 60.883 246.060, 63.190 250.250 L 65.530 254.500 75.515 255.133 C 81.007 255.480, 90.526 255.818, 96.668 255.883 C 102.811 255.947, 108.548 256.273, 109.418 256.607 C 110.374 256.974, 111 258.401, 111 260.213 C 111 264.376, 113.750 274.573, 116.184 279.440 C 118.838 284.744, 123.522 289.648, 128.500 292.333 C 132.089 294.269, 134.343 294.526, 150.416 294.829 C 173.107 295.257, 175.497 294.671, 183.264 286.778 L 189.028 280.920 192.333 283.440 C 198.103 287.841, 203.606 289.300, 214.405 289.292 L 224.311 289.284 227.405 292.809 C 232.286 298.368, 237.562 300.189, 248.331 300.031 C 253.374 299.957, 262.746 300.200, 269.157 300.570 C 283.550 301.403, 290.273 299.727, 296.160 293.840 L 299.921 290.079 308.711 291.065 C 313.545 291.608, 321.123 292.490, 325.552 293.026 C 343.162 295.156, 348.325 294.037, 355.681 286.496 C 360.980 281.064, 363.694 274.896, 365.468 264.250 L 366.176 260 384.838 259.995 C 395.102 259.993, 408.527 259.701, 414.672 259.347 L 425.843 258.703 426.930 262.602 C 428.534 268.354, 433.103 276.044, 436.327 278.418 C 440.456 281.459, 454.573 281.451, 458.678 278.406 C 464.700 273.938, 468 263.765, 468 249.668 L 468 243 472.250 242.983 C 477.679 242.960, 489.804 240.408, 491.613 238.906 C 493.627 237.235, 493.567 221.417, 491.543 220.284 C 490.350 219.616, 490.250 218.308, 490.990 213.070 C 491.550 209.110, 491.533 205.997, 490.947 204.901 C 490.426 203.928, 490 199.130, 490 194.239 C 490 189.349, 489.517 180.545, 488.926 174.676 L 487.852 164.005 491.426 160.635 C 493.392 158.781, 495 156.331, 495 155.191 C 495 154.051, 495.450 152.840, 496 152.500 C 497.564 151.533, 497.182 146.284, 495.500 145.638 C 493.812 144.991, 493.467 141.447, 495 140.500 C 496.493 139.577, 496.274 121.442, 494.750 119.779 C 494.063 119.029, 493.004 117.535, 492.398 116.458 C 491.597 115.035, 490.010 114.416, 486.594 114.193 C 483.646 114, 481.687 113.348, 481.340 112.443 C 481.035 111.649, 480.220 111, 479.529 111 C 478.837 111, 477.495 108.967, 476.546 106.482 C 475.597 103.997, 474.154 101.297, 473.339 100.482 C 471.670 98.813, 465.913 98.487, 464.423 99.977 C 463.786 100.614, 459.445 99.521, 451.973 96.841 C 445.110 94.381, 438.041 92.550, 434.380 92.284 L 428.260 91.841 427.639 86.670 C 427.297 83.827, 427.013 75.328, 427.009 67.785 C 427.001 55.254, 426.833 53.981, 425.066 53.035 C 424.002 52.466, 421.977 52, 420.566 52 C 419.155 52, 418 51.570, 418 51.045 C 418 49.291, 410.574 48.668, 403.696 49.847 C 395.528 51.246, 393 50.348, 393 46.048 C 393 41.901, 389.589 41.025, 380.230 42.769 C 375.352 43.678, 371.551 43.858, 369.152 43.293 C 365.839 42.513, 365.454 42.066, 365 38.473 C 364.563 35.010, 364.123 34.444, 361.500 33.974 C 359.850 33.678, 356.475 33.761, 354 34.159 C 348.388 35.059, 339.230 35.168, 336.250 34.370 C 334.337 33.857, 334 33.089, 334 29.240 L 334 24.714 325.750 25.502 C 309.565 27.046, 301.873 25.789, 301.223 21.492 C 300.275 15.219, 300.208 15.153, 292.241 12.631 C 287.984 11.284, 281.575 9.082, 278 7.740 C 269.980 4.727, 265.143 3.871, 262.396 4.979 M 175.620 18.547 C 174.657 21.056, 175.129 21.198, 181.895 20.432 C 188.089 19.732, 190.389 18, 185.125 18 C 183.544 18, 180.909 17.732, 179.269 17.404 C 177 16.950, 176.128 17.223, 175.620 18.547 M 159.397 23.833 C 159.884 24.621, 166 24.208, 166 23.387 C 166 23.174, 164.398 23, 162.441 23 C 160.484 23, 159.114 23.375, 159.397 23.833 M 481 115.882 C 478.026 116.749, 478.002 116.365, 482.203 135 C 483.877 142.425, 485.772 150.972, 486.413 153.994 C 487.723 160.164, 489.827 161.512, 492.405 157.832 C 494.582 154.724, 494.432 154.183, 491.286 153.816 C 489.094 153.561, 488.438 152.842, 487.879 150.089 C 486.972 145.619, 487.689 144, 490.576 144 C 492.264 144, 492.773 143.572, 492.362 142.500 C 492.045 141.675, 490.961 141, 489.952 141 C 488.943 141, 487.916 140.662, 487.670 140.250 C 487.423 139.838, 487.059 135, 486.861 129.500 C 486.507 119.694, 486.545 119.494, 488.808 119.173 C 490.337 118.956, 491.010 118.281, 490.800 117.173 C 490.448 115.313, 485.284 114.633, 481 115.882 M 384.397 251.895 C 381.578 253.457, 381.793 253.508, 392.436 253.786 C 405.226 254.120, 408.057 253.510, 403.224 251.462 C 398.850 249.609, 388.076 249.857, 384.397 251.895" fill="none" stroke="#000" stroke-width="2px" fill-rule="evenodd"/>
</svg>
