<svg xmlns="http://www.w3.org/2000/svg" width="500" height="343" viewBox="0 0 500 343" version="1.1">
	<path d="M 271.500 5.127 C 264.350 6.034, 249.831 7.346, 239.237 8.042 L 219.973 9.307 218.045 12.404 C 216.984 14.107, 215.182 16.290, 214.040 17.255 C 212.568 18.501, 212.139 19.704, 212.563 21.396 C 212.929 22.852, 212.654 24.096, 211.859 24.587 C 211.143 25.030, 204.919 25.682, 198.028 26.037 C 186.729 26.619, 185.298 26.502, 183.436 24.841 C 180.386 22.122, 174.876 22.439, 172 25.500 C 170.708 26.875, 168.557 28, 167.219 28 C 165.530 28, 164.952 28.434, 165.330 29.417 C 165.629 30.197, 165.227 31.083, 164.437 31.386 C 163.647 31.689, 163 32.658, 163 33.540 C 163 34.422, 162.325 35.818, 161.500 36.643 C 159.793 38.350, 159.328 52.913, 160.929 54.550 C 161.439 55.073, 162.002 57.075, 162.179 59 C 162.355 60.925, 162.950 62.388, 163.500 62.250 C 164.079 62.105, 164.500 58, 164.500 52.500 C 164.500 42.800, 163.041 39.566, 161.892 46.717 L 161.284 50.500 161.142 46.441 C 161.064 44.209, 161.611 41.546, 162.358 40.525 C 163.593 38.836, 164.242 38.772, 169.500 39.828 C 177.609 41.457, 178.197 42.139, 177.418 49.020 C 176.990 52.803, 177.149 54.974, 177.886 55.429 C 178.542 55.835, 179.029 55.375, 179.070 54.309 C 179.133 52.694, 179.233 52.715, 180 54.500 C 181.136 57.143, 181.220 61.746, 180.144 62.411 C 179.674 62.702, 179.459 61.716, 179.666 60.220 C 180.031 57.587, 180.010 57.574, 179.026 59.824 C 178.322 61.434, 178.347 62.779, 179.105 64.197 C 179.708 65.323, 179.942 67.539, 179.626 69.122 C 179.309 70.705, 179.456 72, 179.952 72 C 180.448 72, 181.059 72.787, 181.311 73.750 C 181.562 74.713, 181.820 74.067, 181.884 72.315 C 181.948 70.563, 181.537 67.913, 180.972 66.426 C 180.026 63.937, 180.333 61.999, 181.490 63.156 C 182.477 64.143, 183.743 76.507, 182.890 76.830 C 182.410 77.012, 182.689 77.832, 183.509 78.652 C 184.329 79.472, 184.999 81.123, 184.997 82.321 C 184.996 83.520, 185.955 90.259, 187.128 97.298 C 189.185 109.644, 189.198 110.234, 187.499 114.003 C 184.931 119.697, 185.836 127.660, 189.372 130.479 C 192.505 132.978, 192.786 134.384, 189.974 133.492 C 188.358 132.979, 187.736 133.459, 186.897 135.865 C 186.247 137.729, 185.039 138.999, 183.732 139.191 C 182.302 139.400, 181.347 140.551, 180.781 142.750 C 180.313 144.565, 179.293 146, 178.471 146 C 177.493 146, 177 147.037, 177 149.094 C 177 151.399, 176.463 152.328, 174.893 152.738 C 173.135 153.198, 172.874 153.836, 173.320 156.583 C 173.666 158.717, 173.371 160.277, 172.483 161.014 C 171.676 161.684, 171.178 163.810, 171.273 166.181 C 171.475 171.259, 169.645 172.721, 163.275 172.571 C 157.913 172.444, 152.871 170.576, 116.774 155.340 C 95.779 146.479, 91.731 145.074, 89.946 146.029 C 86.696 147.768, 85.316 146.598, 83.581 140.632 C 81.701 134.163, 78.324 131, 73.299 131 C 69.441 131, 67.080 132.052, 61.987 136.041 L 58.475 138.792 51.118 136.964 C 47.072 135.958, 41.950 134.829, 39.735 134.455 L 35.709 133.775 24.802 144.933 C 16.284 153.647, 14.030 156.519, 14.514 158.046 C 14.856 159.121, 15.777 160, 16.561 160 C 19.029 160, 17.570 163.832, 13.523 167.976 C 11.407 170.144, 9.374 171.731, 9.007 171.504 C 8.639 171.277, 7.780 168.596, 7.098 165.546 C 6.415 162.496, 5.551 160.015, 5.178 160.033 C 4.013 160.090, -0.310 164.024, 0.216 164.549 C 0.490 164.824, 1.284 164.362, 1.980 163.524 C 4.064 161.014, 4.684 161.714, 5.914 167.968 C 6.560 171.251, 7.561 174.229, 8.140 174.586 C 8.718 174.944, 11.415 173.046, 14.133 170.369 C 19.548 165.035, 20.034 165.136, 21.991 172 C 23.257 176.439, 23.259 178, 22 178 C 21.450 178, 21 178.624, 21 179.386 C 21 181.366, 23.716 186.339, 24.143 185.141 C 24.357 184.539, 25.239 184.685, 26.351 185.504 C 28.125 186.812, 28.089 187.017, 25.481 190.436 C 23.984 192.398, 21.020 195.283, 18.893 196.848 C 15.013 199.701, 14.776 201, 18.135 201 C 19.247 201, 19.737 201.523, 19.414 202.365 C 19.023 203.382, 20.391 203.899, 24.783 204.396 C 33.055 205.332, 33.925 205.914, 126.500 272.492 C 142.450 283.962, 158.841 295.533, 162.924 298.204 L 170.348 303.060 170.514 310.280 C 170.852 325.051, 178.050 333.385, 192.317 335.525 C 196.523 336.156, 196.858 336.383, 195.281 337.536 C 194.303 338.251, 193.856 339.190, 194.288 339.622 C 194.720 340.054, 205.350 339.639, 217.910 338.700 C 243.105 336.817, 241.591 337.154, 291.500 322.347 C 311.791 316.328, 314.401 315.284, 325.105 308.910 C 339.616 300.267, 341.575 298.474, 342.504 292.976 C 343.235 288.649, 342.327 286.952, 338.608 285.699 C 337.856 285.445, 337.949 284.782, 338.896 283.634 C 340.904 281.202, 339.691 267.059, 336.997 261.494 C 335.873 259.172, 332.580 254.661, 329.680 251.470 L 324.406 245.667 328.677 241.730 C 331.674 238.967, 333.131 236.705, 333.561 234.147 C 334.577 228.106, 334.982 227.238, 337.033 226.702 C 338.470 226.326, 339 225.328, 339 223 C 339 220.654, 339.528 219.675, 341 219.290 C 343.081 218.746, 343.351 218.064, 343.029 214.169 C 342.923 212.888, 343.590 211.005, 344.512 209.987 C 345.694 208.681, 345.995 207.254, 345.533 205.151 C 345.036 202.889, 345.301 201.931, 346.628 201.188 C 348.151 200.336, 348.232 199.706, 347.253 196.354 C 346.634 194.234, 346.376 191.260, 346.681 189.744 C 346.986 188.229, 346.772 186.429, 346.206 185.744 C 345.640 185.060, 345.406 183.310, 345.685 181.856 C 346.065 179.877, 346.962 179.058, 349.250 178.600 C 350.932 178.264, 354.284 176.370, 356.698 174.391 C 360.625 171.173, 361.374 170.910, 363.794 171.896 C 365.282 172.502, 369.515 172.901, 373.201 172.783 C 380.484 172.549, 381.965 173.132, 380.024 175.471 C 379.331 176.306, 379.023 177.981, 379.340 179.193 C 379.657 180.404, 379.454 181.953, 378.889 182.634 C 378.181 183.487, 378.214 184.532, 378.995 185.992 C 379.619 187.157, 379.937 188.648, 379.702 189.305 C 379.467 189.962, 379.831 191.625, 380.511 193 C 381.190 194.375, 382.040 196.452, 382.398 197.616 C 382.959 199.438, 382.712 199.668, 380.616 199.267 C 379.278 199.011, 373.529 199.493, 367.841 200.339 C 362.154 201.184, 354.979 202.152, 351.899 202.491 C 346.595 203.074, 346.323 203.238, 346.772 205.588 C 347.065 207.119, 346.563 208.825, 345.463 210.041 C 344.482 211.125, 343.864 212.195, 344.089 212.418 C 344.315 212.641, 346.975 212.361, 350 211.796 C 353.867 211.073, 363.596 211.139, 382.771 212.019 C 397.771 212.707, 412.469 212.985, 415.435 212.637 C 428.006 211.159, 437.591 203.696, 430.419 200.969 C 427.427 199.832, 427.665 197.646, 430.830 197.180 C 432.603 196.919, 432.888 196.401, 432.378 194.369 C 431.874 192.362, 432.184 191.765, 433.973 191.297 C 435.814 190.815, 436.094 190.221, 435.614 187.820 C 435.195 185.724, 435.471 184.757, 436.614 184.318 C 437.743 183.885, 438.032 182.911, 437.629 180.895 C 437.319 179.345, 437.476 177.824, 437.977 177.514 C 438.735 177.046, 438.687 172.350, 437.837 164 C 437.589 161.563, 432.957 154.701, 429.681 151.919 C 427.623 150.171, 427.023 149.104, 427.822 148.610 C 428.470 148.210, 429.007 146.896, 429.015 145.691 C 429.042 141.882, 430.499 140.898, 439.106 138.871 C 445.252 137.425, 450.726 136.925, 459.542 137.007 C 470.140 137.105, 471.787 136.893, 473.284 135.239 C 474.900 133.454, 474.835 133.216, 471.992 130.493 C 470.347 128.916, 469 126.826, 469 125.848 C 469 123.103, 466.251 122.210, 455.457 121.448 C 443.088 120.576, 441.636 119.919, 446.865 117.561 C 449.617 116.320, 451.529 114.479, 453.055 111.602 L 455.264 107.438 453.112 103.219 C 451.928 100.899, 450.372 99, 449.654 99 C 448.936 99, 447.349 97.936, 446.126 96.635 L 443.904 94.269 447.108 93.628 C 448.870 93.276, 453.954 92.714, 458.406 92.380 L 466.500 91.773 475.778 97.887 C 486.855 105.185, 490.345 105.787, 492.457 100.764 C 493.361 98.615, 493.505 96.943, 492.886 95.787 C 492.274 94.643, 492.363 93.391, 493.146 92.138 C 494.141 90.544, 493.774 89.124, 490.919 83.512 C 489.038 79.817, 486.600 76.214, 485.500 75.506 C 483.852 74.446, 479.976 74.563, 463.500 76.172 C 443.671 78.109, 429.656 78.067, 426.212 76.059 C 424.905 75.297, 425.682 75.050, 429.500 75.015 C 437.629 74.941, 437.789 74.590, 434.591 63.829 C 433.066 58.698, 431.495 53.375, 431.100 52 C 430.607 50.284, 428.439 48.463, 424.191 46.195 C 420.786 44.377, 418 42.348, 418 41.685 C 418 41.023, 417.137 39.942, 416.082 39.284 C 414.947 38.574, 414.355 37.355, 414.630 36.293 C 415.237 33.957, 412.683 30.460, 411.090 31.444 C 408.915 32.789, 407.826 37.084, 409.229 38.788 C 409.928 39.637, 408.818 39.245, 406.762 37.916 C 404.707 36.587, 403.019 34.708, 403.012 33.740 C 403.006 32.773, 401.235 30.748, 399.078 29.240 C 396.920 27.733, 394.926 25.670, 394.646 24.655 C 394.249 23.215, 393.519 22.944, 391.319 23.417 C 388.910 23.934, 388.160 23.521, 386.166 20.577 C 384.882 18.682, 383.158 14.176, 382.334 10.565 L 380.837 4 348.168 4.006 C 330.201 4.009, 308.525 3.892, 300 3.745 C 289.970 3.572, 279.912 4.060, 271.500 5.127 M 161.500 38 C 161.160 38.550, 161.332 39, 161.882 39 C 162.432 39, 163.160 38.550, 163.500 38 C 163.840 37.450, 163.668 37, 163.118 37 C 162.568 37, 161.840 37.450, 161.500 38 M 437 122.276 C 437.275 122.564, 443.575 123.764, 451 124.943 C 458.425 126.121, 465.329 127.334, 466.342 127.639 C 467.733 128.057, 468.097 127.741, 467.829 126.347 C 467.571 125.004, 466.248 124.325, 462.987 123.859 C 456.158 122.882, 436.433 121.681, 437 122.276 M 431.678 124.246 C 430.113 125.391, 431.021 126.069, 439.706 130.238 C 446.648 133.569, 451.271 135.116, 455.580 135.548 C 461.184 136.109, 461.913 135.944, 464.890 133.439 C 466.667 131.944, 467.756 130.358, 467.310 129.915 C 466.865 129.472, 459.738 127.984, 451.473 126.609 C 443.208 125.234, 435.770 123.849, 434.944 123.532 C 434.118 123.215, 432.648 123.537, 431.678 124.246 M 469.229 132.187 C 469.727 133.682, 472 134.505, 472 133.190 C 472 132.653, 471.287 131.941, 470.416 131.606 C 469.443 131.233, 468.985 131.456, 469.229 132.187 M 65.671 136.094 C 61.246 139.026, 59.928 141.219, 61.872 142.421 C 62.774 142.978, 82.289 146.075, 82.586 145.707 C 82.678 145.593, 82.122 143.368, 81.350 140.762 C 80.322 137.292, 79.164 135.619, 77.023 134.512 C 72.831 132.344, 70.934 132.608, 65.671 136.094 M 42.667 139.667 C 41.421 140.912, 41.994 141.755, 44.909 142.962 C 47.183 143.904, 48.314 143.902, 50.089 142.952 C 52.278 141.781, 52.293 141.687, 50.489 140.368 C 48.535 138.940, 43.817 138.517, 42.667 139.667 M 72.500 149.405 C 74.150 150.132, 76.850 150.994, 78.500 151.322 L 81.500 151.917 78.500 150.595 C 76.850 149.868, 74.150 149.006, 72.500 148.678 L 69.500 148.083 72.500 149.405 M 65 151.922 C 65 152.667, 73.097 157, 74.489 157 C 76.160 157, 74.516 155.232, 71.750 154.055 C 69.963 153.294, 67.713 152.310, 66.750 151.868 C 65.787 151.426, 65 151.450, 65 151.922 M 20 154.383 C 20 154.594, 21.125 154.982, 22.500 155.245 C 23.875 155.508, 25 155.335, 25 154.861 C 25 154.388, 23.875 154, 22.500 154 C 21.125 154, 20 154.173, 20 154.383 M 52.064 154.939 C 49.743 156.408, 52.653 159, 56.622 159 C 60.330 159, 60.702 158.342, 58.608 155.479 C 57.370 153.785, 57.018 153.737, 55.416 155.038 C 54.330 155.920, 53.914 156.004, 54.367 155.250 C 55.243 153.792, 54.118 153.640, 52.064 154.939 M 67.429 161 C 67.429 162.100, 67.782 163, 68.214 163 C 68.646 163, 69 162.100, 69 161 C 69 159.900, 68.646 159, 68.214 159 C 67.782 159, 67.429 159.900, 67.429 161 M 385 161 C 385 161.550, 385.450 162, 386 162 C 386.550 162, 387 161.550, 387 161 C 387 160.450, 386.550 160, 386 160 C 385.450 160, 385 160.450, 385 161 M 23 165.368 C 23 167.390, 25.578 169.204, 27.918 168.827 C 29.668 168.545, 29.470 168.191, 26.473 166.241 C 23.931 164.588, 23 164.354, 23 165.368 M 33.631 171.702 C 32.479 172.855, 32.978 175.737, 34.557 177.048 C 35.870 178.137, 36.537 177.909, 38.807 175.596 C 40.441 173.931, 40.910 172.963, 40 173.136 C 39.175 173.292, 37.547 172.891, 36.381 172.245 C 35.216 171.599, 33.979 171.355, 33.631 171.702 M 25.006 179.639 C 25.010 180.112, 26.334 181.252, 27.950 182.171 C 30.498 183.621, 31.045 183.651, 32.086 182.397 C 32.745 181.602, 33.108 180.778, 32.893 180.565 C 31.985 179.671, 25.001 178.850, 25.006 179.639 M 2 196.891 C 3.375 198.026, 5.175 198.963, 6 198.972 C 7.315 198.986, 6.516 198.453, 0.753 195.474 C 0.064 195.118, 0.625 195.755, 2 196.891 M 180.610 300.574 C 179.700 302.945, 183.693 306.231, 193.874 311.489 C 198.965 314.119, 203.746 317.222, 204.498 318.385 C 206.403 321.333, 207.449 326, 206.204 326 C 203.369 326, 175.343 307.408, 174.165 304.746 C 173.980 304.329, 173.418 304.242, 172.915 304.553 C 171.708 305.299, 171.753 314.571, 172.985 319 C 174.346 323.892, 179.607 329.917, 184.429 332.107 C 188.530 333.970, 198.424 334.654, 200.663 333.229 C 202.471 332.079, 215 316.760, 215 315.699 C 215 315.180, 214.369 315.279, 213.598 315.919 C 212.479 316.848, 211.766 316.480, 210.072 314.101 C 208.904 312.460, 207.088 310.845, 206.036 310.511 C 204.947 310.166, 203.946 308.741, 203.712 307.202 C 203.470 305.614, 203.238 306.483, 203.150 309.309 C 202.949 315.755, 201.052 314.434, 200.825 307.691 C 200.656 302.670, 200.638 302.639, 200.268 306.750 C 199.866 311.209, 198 312.737, 198 308.607 C 198 307.291, 197.325 305.955, 196.500 305.638 C 195.570 305.282, 195 305.643, 195 306.590 C 195 307.431, 194.550 307.840, 194 307.500 C 193.450 307.160, 193 306.038, 193 305.007 C 193 303.568, 192.436 303.235, 190.570 303.573 C 188.780 303.898, 187.970 303.481, 187.498 301.992 C 187.145 300.881, 186.448 300.223, 185.949 300.532 C 185.450 300.840, 184.177 300.630, 183.121 300.065 C 181.646 299.275, 181.063 299.394, 180.610 300.574" fill="none" stroke="#000" stroke-width="2px" fill-rule="evenodd"/>
</svg>
