<svg xmlns="http://www.w3.org/2000/svg" width="500" height="470" viewBox="0 0 500 470" version="1.1">
	<path d="M 354.250 4.641 C 353.289 5.045, 353 12.264, 353 35.917 C 353 52.829, 352.663 67.004, 352.251 67.416 C 351.839 67.827, 351.659 70.886, 351.851 74.212 C 352.097 78.498, 351.808 80.500, 350.858 81.088 C 349.790 81.748, 349.770 82.170, 350.758 83.158 C 351.466 83.866, 352 86.933, 352 90.294 C 352 95.346, 352.285 96.262, 354 96.710 C 357.186 97.544, 356.322 98.852, 352.362 99.190 C 349.377 99.444, 348.382 100.129, 346.826 103 C 344.713 106.898, 344.628 106.902, 337.223 103.456 C 334.320 102.105, 331.783 101, 331.585 101 C 331.276 101, 319.289 95.472, 305.500 88.971 C 303.300 87.934, 299.695 86.801, 297.488 86.453 L 293.477 85.821 283.988 95.705 C 269.781 110.504, 237.274 144.544, 229.804 152.443 C 223.300 159.321, 223.191 159.385, 218.111 159.308 C 213.609 159.240, 212.679 159.592, 210.492 162.192 C 209.001 163.963, 207.991 166.429, 207.978 168.327 C 207.960 170.890, 206.567 172.946, 200.728 179.026 C 196.753 183.165, 185.850 194.632, 176.500 204.508 C 167.150 214.383, 155.191 226.972, 149.924 232.482 C 132.014 251.218, 118.426 265.484, 112.047 272.250 C 108.547 275.962, 105.060 279, 104.299 279 C 103.537 279, 100.749 281.025, 98.103 283.500 C 93.290 288.002, 90.394 288.994, 88.267 286.867 C 86.195 284.795, 84.293 286.710, 83.764 291.401 C 83.062 297.630, 81.242 300.027, 73.883 304.410 L 67.591 308.158 65.712 305.579 C 64.679 304.161, 62.999 303, 61.980 303 C 60.620 303, 60.043 302.135, 59.813 299.750 C 59.525 296.762, 59.218 296.500, 56 296.500 C 53.045 296.500, 52.267 296.997, 51 299.690 C 49.878 302.076, 48.743 302.959, 46.500 303.190 C 43.120 303.539, 42.805 305.326, 46.035 305.829 C 47.916 306.122, 48.075 306.598, 47.475 310.146 C 46.947 313.273, 47.167 314.401, 48.492 315.370 C 49.860 316.371, 50.048 317.500, 49.477 321.303 L 48.773 326 44.493 326 C 41.612 326, 40.026 325.510, 39.638 324.500 C 39.322 323.675, 38.374 323, 37.531 323 C 36.667 323, 36 322.129, 36 321 C 36 319.900, 36.416 319, 36.923 319 C 37.431 319, 37.161 317.626, 36.323 315.946 C 34.985 313.263, 34.355 312.928, 31.150 313.196 C 27.838 313.472, 27.471 313.801, 27.187 316.750 C 26.927 319.440, 27.219 320, 28.878 320 C 32.161 320, 32.254 321.785, 29.008 322.498 C 26.883 322.965, 25.808 323.917, 25.352 325.735 C 24.445 329.349, 27.279 331.287, 32.500 330.624 C 34.700 330.344, 39.092 329.809, 42.259 329.433 L 48.019 328.751 47.792 336.347 L 47.566 343.943 43.033 344.595 C 25.401 347.135, 9.318 357.158, 7.388 366.810 C 6.737 370.064, 8.944 372.509, 11.846 371.750 C 14.796 370.979, 14.517 376.431, 11.507 378.403 C 8.547 380.343, 7.446 383.627, 9.091 385.609 C 10.133 386.865, 9.891 387.545, 7.673 389.602 C 4.722 392.338, 4.179 395.471, 6.500 396.362 C 8.444 397.107, 8.444 400.893, 6.500 401.638 C 4.574 402.378, 4.545 406.888, 6.462 407.624 C 8.503 408.407, 9.396 411.818, 8 413.500 C 6.331 415.511, 7.744 418.952, 10.699 420.076 C 12.769 420.863, 13.132 421.528, 12.706 423.758 C 12.008 427.410, 13.552 430, 16.428 430 C 18.945 430, 20.299 432.058, 19.371 434.474 C 18.506 436.729, 21.654 439.304, 24.425 438.608 C 25.958 438.224, 26.978 438.500, 27.321 439.394 C 27.685 440.342, 27.278 440.624, 26.023 440.296 C 23.689 439.686, 13 441.875, 13 442.962 C 13 444.208, 16.123 444.756, 33 446.466 C 41.525 447.331, 49.625 448.250, 51 448.510 C 52.375 448.769, 58 449.427, 63.500 449.972 C 69 450.517, 78.009 451.630, 83.520 452.445 C 89.030 453.261, 97.753 454.406, 102.904 454.989 C 108.055 455.573, 117.946 456.735, 124.885 457.572 C 131.823 458.409, 140.875 459.489, 145 459.971 C 149.125 460.454, 160.375 461.786, 170 462.931 C 191.528 465.493, 222.877 466.628, 232.500 465.194 C 236.350 464.620, 246.025 462.775, 254 461.094 C 275.974 456.461, 281.384 455.836, 323.834 453.028 C 332.268 452.470, 339.641 451.722, 340.219 451.364 C 341.617 450.501, 337.180 448.081, 334.115 448.035 L 331.730 448 334.365 445.927 C 335.814 444.788, 337 443.213, 337 442.427 C 337 441.642, 337.623 441, 338.385 441 C 340.398 441, 342.968 436.595, 342.345 434.213 C 341.973 432.787, 342.479 431.814, 344.024 430.987 C 345.884 429.992, 346.155 429.192, 345.723 425.974 C 345.387 423.465, 345.726 421.408, 346.709 420.006 C 347.582 418.759, 347.988 416.746, 347.681 415.183 C 347.392 413.707, 347.611 410.345, 348.169 407.712 C 348.924 404.141, 348.872 402.550, 347.961 401.453 C 347.233 400.575, 346.947 398.434, 347.253 396.151 C 347.593 393.612, 347.151 391.002, 345.942 388.410 C 344.938 386.260, 344.359 383.507, 344.656 382.293 C 345.038 380.730, 344.401 379.349, 342.475 377.565 C 340.747 375.963, 339.934 374.361, 340.245 373.172 C 340.514 372.142, 339.966 370.281, 339.027 369.036 C 337.391 366.867, 337.418 366.673, 339.660 364.431 C 340.947 363.144, 342 361.186, 342 360.080 C 342 356.927, 336.406 351.347, 330.182 348.290 C 324.676 345.587, 324.004 345.501, 308.500 345.518 C 291.976 345.536, 291.383 345.653, 281.831 350.755 C 281.463 350.952, 281.835 348.950, 282.659 346.306 C 284.126 341.595, 284.057 336.756, 282.336 323.500 C 281.755 319.027, 281.852 318.637, 283.260 319.803 C 284.581 320.898, 284.886 320.832, 285.166 319.392 C 285.350 318.449, 287.075 317.147, 289 316.499 C 292.286 315.393, 292.500 315.055, 292.500 310.952 C 292.500 306.833, 292.315 306.544, 289.281 305.924 C 283.617 304.765, 281.248 305.793, 280.295 309.822 L 279.439 313.439 277.604 308.470 C 276.594 305.736, 274.318 300.800, 272.545 297.500 C 269.288 291.435, 267.418 283.361, 269.139 282.787 C 269.698 282.601, 269.588 280.370, 268.866 277.242 C 268.202 274.363, 267.966 271.701, 268.341 271.326 C 269.074 270.592, 280.793 275.856, 281.703 277.328 C 282.004 277.815, 281.407 277.951, 280.375 277.630 C 276.433 276.402, 275.591 278.246, 276.947 285.139 C 278.642 293.752, 280.525 297.208, 283.308 296.812 C 285.214 296.541, 285.540 295.784, 285.811 291.008 C 285.988 287.874, 285.433 283.328, 284.519 280.422 C 283.026 275.675, 282.513 275.135, 276.983 272.492 C 271.660 269.948, 271.111 269.404, 271.660 267.220 C 272.049 265.671, 271.767 264.466, 270.885 263.908 C 268.670 262.505, 264.266 262.865, 263.638 264.500 C 263.322 265.325, 262.261 266.014, 261.281 266.030 C 259.621 266.059, 259.616 266.129, 261.208 267.057 C 262.148 267.605, 262.671 268.695, 262.370 269.479 C 261.564 271.578, 258.135 269.200, 258.723 266.950 C 259.054 265.684, 258.274 264.923, 255.839 264.140 C 247.591 261.488, 240.683 260.672, 213.500 259.137 L 184.500 257.500 184.207 254.500 C 183.944 251.812, 185.614 249.811, 200.275 235.250 C 209.274 226.313, 217.373 219, 218.273 219 C 219.958 219, 227 210.595, 227 208.583 C 227 206.461, 242.446 192, 244.713 192 C 247.820 192, 248.277 190.598, 246.532 186.421 L 245 182.755 270.951 156.877 C 285.225 142.645, 297.405 131, 298.018 131 C 298.632 131, 300.566 132.086, 302.317 133.413 C 305.395 135.746, 309.499 136.847, 324.669 139.410 C 328.612 140.076, 332.503 141.173, 333.316 141.847 C 334.129 142.522, 335.489 145.195, 336.339 147.787 C 339.187 156.470, 340.952 159.850, 342.974 160.492 C 344.078 160.842, 345.385 160.880, 345.878 160.576 C 346.985 159.891, 349.233 162.433, 348.325 163.342 C 347.963 163.704, 346.665 164, 345.442 164 C 343.856 164, 343.021 164.779, 342.536 166.711 C 341.725 169.944, 343.904 172, 348.142 172 C 349.660 172, 353.061 172.414, 355.701 172.920 C 358.340 173.426, 365.450 174.573, 371.500 175.470 C 377.550 176.366, 389.250 178.178, 397.500 179.496 C 420.750 183.210, 424.758 183.520, 426.775 181.756 C 427.789 180.870, 431.592 179.979, 436 179.595 C 440.125 179.236, 447.775 178.501, 453 177.963 C 458.225 177.424, 469.475 176.282, 478 175.425 C 486.525 174.568, 493.928 173.447, 494.450 172.933 C 495.688 171.717, 490.337 171.730, 477 172.975 C 444.233 176.034, 428.258 177.029, 425.961 176.153 L 423.500 175.215 426 174.671 C 427.375 174.372, 431.650 173.872, 435.500 173.561 C 453.644 172.094, 470.480 169.915, 471.440 168.909 C 472.609 167.685, 465.281 168.047, 438 170.564 C 418.477 172.364, 413.701 172.402, 414.245 170.750 C 414.516 169.927, 419.924 168.914, 430.079 167.784 C 449.127 165.665, 454.341 163.723, 439 164.461 C 433.225 164.739, 425.184 165.269, 421.132 165.638 C 413.906 166.297, 413.785 166.270, 414.869 164.245 C 415.574 162.928, 417.427 161.935, 419.987 161.502 C 425.328 160.600, 425.142 158.780, 419.750 159.183 L 415.500 159.500 415.233 134.250 C 415 112.228, 415.160 109, 416.483 109 C 418.235 109, 418.136 112.129, 418.002 61.214 C 417.951 41.806, 417.657 25.269, 417.348 24.464 C 416.662 22.676, 411.430 22.518, 410.310 24.250 C 409.865 24.937, 409.665 37.543, 409.866 52.262 L 410.231 79.024 407.115 80.110 L 404 81.196 404 95.129 C 404 105.435, 403.675 109.148, 402.750 109.390 C 402.063 109.570, 399.799 110.265, 397.721 110.934 C 393.992 112.134, 387.683 111.185, 370.750 106.877 L 367 105.923 367 86.909 L 367 67.896 364.014 66.855 L 361.029 65.814 360.764 35.157 L 360.500 4.500 358 4.307 C 356.625 4.201, 354.938 4.351, 354.250 4.641 M 389 125.667 C 389 131.107, 389.937 130.812, 390.993 125.040 C 391.561 121.931, 391.417 121, 390.366 121 C 389.407 121, 389 122.389, 389 125.667 M 371 155.861 C 366.620 156.483, 366.492 156.604, 366.181 160.395 L 365.862 164.290 372.181 163.644 C 375.656 163.289, 383.200 162.551, 388.945 162.004 C 394.690 161.457, 399.842 160.558, 400.395 160.005 C 401.068 159.332, 400.497 159, 398.665 159 C 397.160 159, 394.886 158.316, 393.610 157.480 C 392.334 156.644, 389.312 155.998, 386.895 156.045 C 384.478 156.092, 380.925 155.926, 379 155.677 C 377.075 155.427, 373.475 155.510, 371 155.861 M 384.806 165.408 C 379.474 166.039, 374.826 166.840, 374.477 167.189 C 373.321 168.346, 386.603 169.216, 392.087 168.343 C 395.986 167.722, 397.568 167.004, 397.811 165.743 C 398.193 163.761, 398.630 163.773, 384.806 165.408 M 243 267.978 C 243 268.883, 248.109 271.224, 248.729 270.604 C 248.988 270.345, 248.937 269.707, 248.615 269.186 C 247.908 268.042, 243 266.986, 243 267.978 M 264.543 271.931 C 264.226 272.443, 264.425 273.144, 264.984 273.490 C 265.543 273.835, 266 273.416, 266 272.559 C 266 270.802, 265.400 270.544, 264.543 271.931 M 223.696 272.775 C 223.481 273.174, 223.206 276.030, 223.086 279.122 C 222.887 284.238, 223.322 285.537, 227.924 293.563 C 230.705 298.413, 233.734 304.434, 234.655 306.941 C 235.577 309.448, 237.226 312.230, 238.321 313.122 C 239.463 314.052, 240.062 315.396, 239.725 316.274 C 239.350 317.253, 239.833 317.985, 241.069 318.308 C 242.587 318.705, 243 318.291, 243 316.375 C 243 315.034, 243.640 313.692, 244.422 313.392 C 246.248 312.691, 250.110 314.738, 249.913 316.302 C 249.415 320.276, 250.026 321, 253.878 321 C 256.104 321, 258.285 320.361, 259 319.500 C 259.685 318.675, 261.048 318, 262.029 318 C 263.598 318, 263.862 316.765, 264.225 307.750 L 264.637 297.500 260.527 292 C 255.465 285.225, 245.912 277.848, 238.824 275.240 C 232.895 273.059, 224.299 271.658, 223.696 272.775 M 254.889 274.795 C 256.203 275.733, 258.565 277.785, 260.139 279.356 L 263 282.212 263 279.591 C 263 276.713, 258.142 272.974, 254.500 273.048 C 252.645 273.086, 252.673 273.213, 254.889 274.795 M 198.927 280.177 C 196.499 286.039, 195.279 296.214, 196.671 299 C 197.359 300.375, 199.096 304.128, 200.532 307.340 C 202.975 312.802, 203.258 313.077, 204.903 311.588 C 205.871 310.712, 206.851 310.158, 207.081 310.356 C 207.312 310.555, 209.188 310.977, 211.250 311.296 L 215 311.874 215 302.160 C 215 291.622, 213.915 288.679, 209.399 286.962 C 207.812 286.358, 207 285.259, 207 283.713 C 207 281.781, 202.486 277, 200.662 277 C 200.431 277, 199.650 278.430, 198.927 280.177 M 176.280 285.424 C 173.658 286.634, 172.761 289.978, 173.100 297.288 C 173.236 300.226, 173.017 303.164, 172.612 303.818 C 171.736 305.235, 168.072 304.503, 162.783 301.855 C 158.495 299.707, 157 297.414, 157 292.982 C 157 285.421, 150.584 294.121, 149.574 303.052 C 149.190 306.439, 149.017 309.350, 149.188 309.521 C 149.360 309.691, 152.762 310.152, 156.750 310.545 C 163.790 311.238, 164 311.194, 164 309.035 C 164 306.941, 164.291 306.852, 169.030 307.504 C 175.052 308.332, 177 307.129, 177 302.578 C 177 300.830, 177.418 298.972, 177.929 298.450 C 178.852 297.507, 179.736 285.296, 178.924 284.707 C 178.691 284.537, 177.501 284.860, 176.280 285.424 M 187.100 288.379 C 186.370 289.259, 185.374 289.731, 184.887 289.430 C 184.399 289.129, 184 290.484, 184 292.441 C 184 295.306, 184.381 296, 185.955 296 C 187.391 296, 188.081 295.086, 188.556 292.554 C 189.411 287.993, 188.822 286.304, 187.100 288.379 M 141.663 293.830 C 140.183 295.375, 139.280 296.947, 139.657 297.323 C 140.415 298.081, 136.173 303, 134.761 303 C 134.271 303, 132.735 304.350, 131.347 306 C 129.958 307.650, 128.271 309, 127.598 309 C 126.925 309, 125.081 310.350, 123.500 312 C 121.264 314.334, 120.999 315, 122.304 315 C 123.228 315, 124.545 314.100, 125.232 313 C 125.919 311.900, 127.447 311, 128.627 311 C 130.662 311, 138.740 302.152, 143.493 294.719 C 145.929 290.908, 144.929 290.421, 141.663 293.830 M 266 310.741 C 266 316.423, 266.440 321.154, 267 321.500 C 268.125 322.196, 268.417 318.730, 268.052 309 C 267.647 298.191, 266 299.588, 266 310.741 M 58.667 306.667 C 57.394 307.939, 58.015 308.810, 60.915 309.821 C 64.371 311.025, 65.298 310.425, 63.930 307.869 C 62.947 306.033, 59.978 305.355, 58.667 306.667 M 139.938 309.235 C 135.754 314.566, 135.632 315, 138.320 315 C 140.904 315, 143.508 310.716, 142.839 307.564 C 142.586 306.375, 141.849 306.799, 139.938 309.235 M 223 309.774 C 223 313.798, 224.121 315.661, 225.886 314.570 C 226.751 314.036, 225.063 307.729, 223.685 306.352 C 223.308 305.975, 223 307.515, 223 309.774 M 270.030 311.450 C 270.008 313.601, 270.299 314.101, 271.104 313.296 C 271.895 312.505, 271.903 311.670, 271.134 310.346 C 270.193 308.728, 270.057 308.864, 270.030 311.450 M 40.750 352.206 C 35.513 354.459, 34.620 356, 38.550 356 C 41.969 356, 47 353.305, 47 351.474 C 47 349.639, 46.610 349.684, 40.750 352.206 M 94.324 419.156 C 95.049 422.043, 92.477 426.397, 90.495 425.636 C 89.046 425.080, 87.615 429.015, 88.826 430.226 C 89.934 431.334, 127 429.877, 127 428.725 C 127 428.198, 126.121 427.997, 125.046 428.278 C 122.215 429.018, 119.500 426.594, 119.500 423.325 C 119.500 421.072, 118.994 420.429, 117 420.149 C 115.625 419.956, 114.244 419.387, 113.932 418.884 C 113.619 418.382, 108.940 417.680, 103.533 417.325 L 93.703 416.679 94.324 419.156 M 269 419.027 C 268.173 419.576, 261.728 419.969, 254.627 419.902 C 245.791 419.819, 241.527 420.147, 241.033 420.946 C 240.637 421.587, 240.234 424.364, 240.136 427.117 C 240.039 429.871, 239.915 432.433, 239.861 432.812 C 239.398 436.066, 240.215 438.578, 241.750 438.624 C 245.471 438.736, 276.708 441.058, 280.500 441.504 C 282.700 441.763, 283.825 441.683, 283 441.325 C 280.672 440.317, 279.067 437.747, 279.032 434.972 C 279.014 433.582, 278.100 431.674, 277 430.732 C 275.835 429.735, 275 427.782, 275 426.057 C 275 422.485, 273.096 417.994, 271.589 418.015 C 270.990 418.024, 269.825 418.479, 269 419.027" fill="none" stroke="#000" stroke-width="2px" fill-rule="evenodd"/>
</svg>
