<svg xmlns="http://www.w3.org/2000/svg" width="500" height="270" viewBox="0 0 500 270" version="1.1">
	<path d="M 119.750 6.774 C 118.237 10.025, 117.013 13.093, 117.029 13.592 C 117.045 14.091, 118.389 15.962, 120.015 17.750 C 122.432 20.407, 123.720 21, 127.069 21 C 132.153 21, 132.027 23.371, 126.923 23.763 C 103.645 25.555, 87.998 30.270, 73.509 39.859 C 69.197 42.712, 56.520 55.141, 52.365 60.588 C 49.563 64.261, 49.479 64.285, 33 66.030 C 23.811 67.002, 18.313 67.946, 11.739 69.678 C 8.796 70.453, 7.128 75.253, 6.386 85.080 C 5.814 92.669, 5.305 94.742, 3.697 96.044 C 0.046 99.001, 1.548 113.613, 6.098 119.397 C 8.301 122.198, 24.029 133, 25.904 133 C 26.507 133, 27 133.450, 27 134 C 27 134.550, 25.495 135, 23.655 135 C 21.654 135, 19.628 135.754, 18.613 136.876 C 17.009 138.648, 17.058 139.074, 19.498 144.592 C 22.547 151.485, 24.263 153.556, 28.650 155.638 C 30.905 156.708, 32.275 158.307, 33.107 160.841 C 35.515 168.167, 39.550 174.330, 43.168 176.208 C 49.776 179.636, 56.988 180.526, 66.860 179.129 C 73.281 178.220, 76.328 178.164, 77.653 178.931 C 78.669 179.519, 84.112 181.800, 89.750 184 C 110.601 192.137, 120.577 196.112, 123.500 197.447 C 125.150 198.201, 130.325 200.267, 135 202.037 C 139.675 203.808, 145.750 206.262, 148.500 207.490 C 151.250 208.719, 154.625 210.070, 156 210.493 C 157.375 210.915, 160.300 212.092, 162.500 213.108 C 174.183 218.504, 199.749 228, 202.591 228 C 206.079 228, 206.285 228.311, 207.483 235.384 C 207.957 238.180, 209.591 240.802, 213.314 244.738 C 225.931 258.079, 245.883 261.464, 268.294 254.068 C 271.259 253.090, 272.244 253.210, 275.129 254.904 C 278.139 256.671, 294.909 261.312, 308.500 264.140 C 335.479 269.751, 353 270.247, 375.500 266.034 C 397.110 261.987, 404.284 260.371, 426.500 254.541 C 453.609 247.428, 470.088 241.399, 480.624 234.740 C 484.201 232.480, 484.681 231.760, 484.244 229.317 C 483.485 225.086, 481.454 223.348, 473.884 220.456 C 470.097 219.009, 464.648 216.539, 461.774 214.968 C 457.328 212.536, 456.844 212.002, 458.525 211.383 C 477.381 204.443, 490.777 198.763, 493.100 196.725 C 495.313 194.784, 496 193.309, 496 190.504 C 496 188.483, 496.746 184.029, 497.657 180.609 C 499.863 172.330, 499.076 169.770, 492.976 165.387 C 489.468 162.867, 488 161.129, 488 159.495 C 488 158.177, 486.775 156.147, 485.160 154.788 C 483.246 153.178, 482.105 151.056, 481.662 148.287 C 479.849 136.947, 476.811 133.705, 460.509 125.713 C 451.318 121.207, 417.511 109.716, 399 104.806 C 394.875 103.711, 383.175 100.626, 373 97.948 C 345.041 90.592, 343.652 90.057, 337.712 84.349 C 317.762 65.179, 289.181 43.635, 275.227 37.246 C 267.830 33.860, 263.937 32.896, 242.023 29.027 C 236.148 27.989, 234.059 26.874, 234.015 24.750 C 234.007 24.337, 235.487 24, 237.304 24 C 239.734 24, 241.460 23.120, 243.834 20.672 L 247.060 17.343 244.280 11.733 L 241.500 6.124 234.500 6.080 C 230.650 6.056, 219.175 5.570, 209 5.001 C 175.296 3.116, 153.683 2.033, 138 1.446 L 122.500 0.865 119.750 6.774 M 144.282 22.081 C 145.813 22.501, 157.513 23.115, 170.282 23.445 C 183.052 23.775, 199.914 24.559, 207.753 25.186 C 220.296 26.190, 224.375 26.029, 222.917 24.588 C 222.348 24.026, 180.488 22.120, 159 21.677 C 149.375 21.479, 142.752 21.661, 144.282 22.081 M 100.800 40.346 C 96.773 41.334, 95.168 42.576, 89.604 49 L 83.108 56.500 88.804 57.226 C 91.937 57.626, 96.631 58.233, 99.236 58.576 L 103.972 59.199 106.926 52.850 C 108.551 49.357, 111.032 44.950, 112.440 43.056 C 113.848 41.161, 115 39.474, 115 39.306 C 115 38.569, 105.077 39.296, 100.800 40.346 M 132.310 43.626 C 131.208 45.207, 129.846 47.861, 129.283 49.525 C 128.388 52.175, 128.607 52.965, 131.052 55.894 C 133.571 58.910, 134.218 59.178, 137.672 58.636 C 139.777 58.306, 144.325 57.740, 147.777 57.379 C 151.229 57.017, 154.253 56.399, 154.497 56.004 C 154.741 55.610, 154.184 52.776, 153.259 49.708 C 151.291 43.179, 149.530 42.021, 140.407 41.260 C 134.575 40.773, 134.227 40.875, 132.310 43.626 M 210.468 43.250 C 210.854 44.487, 211.657 47.413, 212.253 49.750 C 213.352 54.059, 214.309 54.723, 216.985 53.030 C 218.251 52.230, 218.043 51.275, 215.569 46.546 C 212.670 41.004, 209.036 38.657, 210.468 43.250 M 217 41.715 C 217 41.842, 218.238 44.545, 219.750 47.723 L 222.500 53.500 223 50 L 223.500 46.500 229.750 46.202 C 235.948 45.907, 237.158 45.187, 234.750 43.228 C 233.722 42.391, 217 40.966, 217 41.715 M 170.100 45.750 C 170.155 46.712, 170.500 48.572, 170.867 49.883 C 171.592 52.469, 171.910 52.246, 175.333 46.750 L 177.046 44 173.523 44 C 170.796 44, 170.023 44.396, 170.100 45.750 M 258.628 54.750 C 267.718 72.166, 266.339 70.675, 272.917 70.200 C 278.340 69.807, 278.824 69.968, 282.412 73.353 C 285.741 76.491, 287.111 77.038, 293.847 77.914 C 308.090 79.766, 315.006 80.028, 314.933 78.712 C 314.867 77.517, 303.090 67.104, 298.076 63.806 C 296.659 62.875, 293.025 60.312, 290 58.112 C 276.687 48.429, 266.036 44, 256.061 44 L 253.017 44 258.628 54.750 M 196.743 47.269 C 195.888 48.574, 194.883 52.085, 194.510 55.071 C 193.858 60.296, 193.947 60.585, 196.876 62.750 C 198.549 63.987, 200.351 65, 200.880 65 C 202.842 65, 203.107 59.009, 201.419 52.805 C 199.292 44.989, 198.698 44.286, 196.743 47.269 M 230.354 56.452 C 233.831 59.675, 233.696 62.547, 229.901 66.092 C 226.281 69.474, 226.652 69.716, 236.250 70.232 L 243 70.595 243 66.881 C 243 64.838, 243.376 63.017, 243.835 62.833 C 244.294 62.650, 243.827 60.587, 242.797 58.250 L 240.924 54 234.316 54 L 227.708 54 230.354 56.452 M 246.184 70.741 C 246.380 72.441, 247.192 73.614, 248.321 73.828 C 250.038 74.154, 250.051 73.999, 248.545 71.087 C 246.572 67.271, 245.769 67.154, 246.184 70.741 M 219.269 69.693 C 220.242 69.947, 221.592 69.930, 222.269 69.656 C 222.946 69.382, 222.150 69.175, 220.500 69.195 C 218.850 69.215, 218.296 69.439, 219.269 69.693 M 272 75.500 C 272 76.591, 273.125 77, 276.122 77 C 279.673 77, 280.072 76.792, 279 75.500 C 278.315 74.675, 276.460 74, 274.878 74 C 272.986 74, 272 74.514, 272 75.500" fill="none" stroke="#000" stroke-width="2px" fill-rule="evenodd"/>
</svg>
