<svg xmlns="http://www.w3.org/2000/svg" width="500" height="276" viewBox="0 0 500 276" version="1.1">
	<path d="M 3.233 5.219 C 1.714 7.049, 0.990 160.991, 2.500 161.020 C 3.050 161.031, 14.075 162.377, 27 164.011 C 39.925 165.645, 50.837 166.986, 51.250 166.991 C 51.663 166.996, 52 168.828, 52 171.063 C 52 174.333, 51.659 175.091, 50.250 174.948 C 46.220 174.538, 45.232 175.089, 44.634 178.082 C 43.725 182.624, 45.507 185.299, 49.089 184.774 C 51.953 184.353, 52 184.422, 52 189.075 L 52 193.803 40.458 194.524 C 32.592 195.015, 29.039 195.604, 29.306 196.373 C 29.576 197.152, 34.059 197.430, 43.848 197.272 L 58 197.043 58 210.399 C 58 220.665, 58.326 224.026, 59.408 224.924 C 60.464 225.800, 63.371 225.831, 71.014 225.046 C 84.322 223.681, 83.685 223.608, 84.431 226.583 C 85.484 230.777, 89.831 236.921, 93.285 239.098 C 96.230 240.953, 97.804 241.093, 112 240.764 C 127.065 240.415, 127.619 240.326, 131.736 237.579 C 136.242 234.572, 140.211 227.747, 141.521 220.750 C 142.348 216.330, 143.238 216.031, 144.875 219.625 C 145.960 222.007, 146.415 222.182, 149.786 221.509 C 151.828 221.102, 154.512 220.813, 155.750 220.867 C 169.141 221.448, 170.610 221.239, 174.486 218.190 C 177.755 215.618, 178.051 215.817, 180.386 222.167 C 182.743 228.578, 189.186 235.680, 193.808 236.963 C 201.332 239.053, 219.449 237.287, 223.443 234.074 C 224.024 233.607, 226.858 232.907, 229.740 232.520 C 234.751 231.846, 235.023 231.929, 235.974 234.431 C 236.738 236.442, 237.492 236.938, 239.234 236.580 C 240.480 236.324, 247.575 235.843, 255 235.511 C 266.071 235.015, 268.979 234.562, 271.160 232.990 C 273.294 231.452, 274.677 231.219, 278.160 231.809 C 282.278 232.507, 282.516 232.732, 282.807 236.211 C 283.067 239.326, 283.508 239.925, 285.733 240.189 C 288.039 240.463, 288.489 241.160, 289.483 246 C 291.679 256.687, 299.326 267.178, 307.930 271.307 C 314.647 274.530, 329.536 274.467, 336.195 271.187 C 341.921 268.367, 348.453 262.002, 351.215 256.551 C 352.345 254.323, 353.771 252.139, 354.384 251.698 C 354.998 251.256, 359.213 251.167, 363.750 251.500 C 369.239 251.902, 372 251.752, 372 251.052 C 372 249.559, 377.746 249.741, 378.254 251.250 C 378.588 252.244, 378.992 252.238, 380.224 251.222 C 381.203 250.414, 385.828 249.808, 392.803 249.576 L 403.832 249.208 406.890 253.013 C 408.631 255.179, 412.611 258.149, 416.134 259.909 C 421.627 262.654, 423.295 263, 431.034 263 C 436.321 263, 441.470 262.394, 444.124 261.460 C 448.750 259.832, 457.171 252.374, 459.604 247.750 C 460.781 245.513, 461.747 244.994, 464.776 244.969 C 471.061 244.916, 490.183 241.248, 491.547 239.834 C 493.477 237.833, 496 222.495, 496 212.761 C 496 204.448, 495.905 204.098, 492.995 201.649 L 489.990 199.120 490.608 181.810 C 490.966 171.802, 490.757 158.825, 490.113 151.048 L 489 137.596 492.112 134.384 L 495.225 131.173 494.491 111.608 C 494.024 99.140, 493.348 91.708, 492.629 91.119 C 491.525 90.215, 487.489 89.573, 485.500 89.986 C 484.950 90.100, 482.700 90.130, 480.500 90.052 C 477.298 89.938, 475.902 89.230, 473.500 86.502 C 471.850 84.629, 469.297 82.648, 467.827 82.102 C 466.233 81.509, 465.021 80.209, 464.827 78.882 C 464.403 75.995, 462.666 75.477, 460.539 77.603 C 458.949 79.194, 457.157 79.094, 430.923 75.955 L 403 72.614 403 45.173 C 403 27.004, 402.602 16.403, 401.822 13.800 C 399.508 6.076, 404.709 6.507, 313 6.443 C 268.175 6.412, 206.525 6.075, 176 5.694 C 26.329 3.828, 4.437 3.768, 3.233 5.219 M 476.995 91.923 C 476.992 92.240, 477.752 94.626, 478.683 97.224 L 480.376 101.947 481.673 98.224 C 483.523 92.912, 483.359 92.280, 480 91.787 C 478.350 91.545, 476.998 91.606, 476.995 91.923 M 486.695 92.111 C 485.321 92.910, 485.155 93.482, 486.002 94.503 C 487.611 96.442, 488.615 120.555, 487.159 122.308 C 485.628 124.153, 486.680 125, 490.504 125 L 493.674 125 493.217 109.250 C 492.692 91.205, 491.888 89.090, 486.695 92.111 M 487 128.375 C 487 129.131, 487.286 131.182, 487.636 132.932 L 488.273 136.113 491.136 133.369 C 495.204 129.473, 494.957 127, 490.500 127 C 488.197 127, 487 127.470, 487 128.375 M 57.764 186 C 57.359 187.375, 57.050 189.850, 57.077 191.500 C 57.126 194.480, 57.133 194.483, 58.111 192.035 C 58.652 190.679, 58.961 188.204, 58.797 186.535 C 58.505 183.554, 58.487 183.545, 57.764 186" fill="none" stroke="#000" stroke-width="2px" fill-rule="evenodd"/>
</svg>
