<?xml version="1.0" encoding="utf-8"?>
<!-- Generator: Adobe Illustrator 18.1.1, SVG Export Plug-In . SVG Version: 6.00 Build 0)  -->
<svg version="1.1" id="Layer_1" xmlns="http://www.w3.org/2000/svg" xmlns:xlink="http://www.w3.org/1999/xlink" x="0px" y="0px" width="150px" height="150px" viewBox="0 0 150 150" enable-background="new 0 0 150 150" xml:space="preserve">
<g>
	<g>
		<g>
			<path fill="#E8A605" d="M47.5,123.9c0,0,5.8-2.8,7.2,0.4c0,0-6.1,1.8-7.1,2.5C46.6,127.4,47.5,123.9,47.5,123.9z"/>
			<path fill="#FBBB15" d="M21.2,127.3c0,0-5.8-2-7.7,2.9c0,0,7.3-1.2,8.8,1.1L21.2,127.3z"/>
			<path fill="#FBBB15" d="M24.6,120.7c0,0-1.6-8.2-7.5-3.5c0,0,3.7,1.4,5,5.2L24.6,120.7z"/>
			<g>
				<g>
					<path id="SVGID_1_" fill="#FFE00A" d="M41.2,110.8c0,0-4.3,8.3-3.5,13.5c0,0-4.7,3.2-7.7,0.3c0,0,1-7.1-6.1-5.8
						c0,0-0.3,1.6-2.5,2.3c0,0-0.3,3.8,1,5.1c0,0-1.9,0-2.3,1.8c-0.4,1.8,1.2,6.5,5.7,8.1s12.3-3.2,15-4.4c2.7-1.2,9-3.1,9.2-5.3
						c0.2-2.2-0.3-3.7-2.2-3.3c-1.9,0.4-4.2,1.6-5.8,1c0,0-1.4-5.2,2.3-10.9C44.2,113.2,43.7,108.9,41.2,110.8z"/>
				</g>
				<g>
					<defs>
						<path id="SVGID_2_" d="M41.2,110.8c0,0-4.3,8.3-3.5,13.5c0,0-4.7,3.2-7.7,0.3c0,0,1-7.1-6.1-5.8c0,0-0.3,1.6-2.5,2.3
							c0,0-0.3,3.8,1,5.1c0,0-1.9,0-2.3,1.8c-0.4,1.8,1.2,6.5,5.7,8.1s12.3-3.2,15-4.4c2.7-1.2,9-3.1,9.2-5.3
							c0.2-2.2-0.3-3.7-2.2-3.3c-1.9,0.4-4.2,1.6-5.8,1c0,0-1.4-5.2,2.3-10.9C44.2,113.2,43.7,108.9,41.2,110.8z"/>
					</defs>
					<clipPath id="SVGID_4_">
						<use xlink:href="#SVGID_2_"  overflow="visible"/>
					</clipPath>
					<path clip-path="url(#SVGID_4_)" fill="#E5C40A" d="M44.1,112.8c0,0-3.2,9.2-0.9,10.1c2.3,0.9,14.4-4.6,14.8,1.5
						c0.4,6.1-20.6,11.1-22.9,13.3c-2.3,2.3-15.7-0.6-14.2-6c0,0,4.6,3.9,9,2.7c4.4-1.2,6.9-4.5,11-7.5c0,0-3-6.1,1-15.1
						S44.9,110.1,44.1,112.8z"/>
				</g>
			</g>
			<g>
				<g>
					<g>
						<path fill="#AA9921" d="M22.9,125.7c0,0,0.5-0.2,1.3-0.5c0.8-0.2,2.1-0.5,3.7,0.1c1.4,0.7,2.4,1.8,3.7,2.6
							c1.2,0.8,2.5,1.3,3.9,1.1c0,0-0.2,0.3-0.8,0.5c-0.6,0.3-1.7,0.4-2.9-0.1c-1.2-0.4-2.5-1.4-3.7-2.4c-0.3-0.3-0.6-0.5-0.9-0.7
							c-0.3-0.2-0.7-0.3-1.2-0.4C25.1,125.8,24.1,125.7,22.9,125.7z"/>
					</g>
				</g>
			</g>
			<g>
				<g>
					<g>
						<path fill="#F9F091" d="M16.9,117c0,0,0.2-0.2,0.5-0.5c0.3-0.3,0.8-0.7,1.6-1c0.7-0.3,1.9-0.6,3.2-0.1
							c0.3,0.1,0.6,0.3,0.9,0.5c0.2,0.2,0.5,0.5,0.7,0.8c0.2,0.3,0.4,0.5,0.5,0.8c0.1,0.1,0.1,0.2,0.2,0.2l0.2-0.1l0.3-0.1
							c0.3,0,0.8-0.1,1.3,0c0.9,0,1.9,0.3,2.9,0.9c0.9,0.7,1.5,1.5,1.9,2.5c0.2,0.5,0.4,1,0.5,1.6c0,0.3,0.1,0.6,0.1,0.8l0,0.6l0,0
							h0c0,0,0,0,0,0c0.2,0,0.4,0.2,0.7,0.2c0.2,0,0.5,0.1,0.7,0.1l0.8,0c0.5-0.1,1.1-0.2,1.7-0.4l0.8-0.3c0,0,0.1,0,0.1,0l0-0.1
							c0,0,0,0,0,0l0-0.3c0-0.4,0.1-0.9,0.1-1.3c0.1-0.9,0.3-1.7,0.5-2.5c0.4-1.6,1.2-3.1,2-4.4c0,0,0,0.2-0.1,0.6
							c0,0.4-0.2,1-0.3,1.8c0,0.4-0.1,0.8-0.1,1.3c0,0.5,0,1-0.1,1.6c0,0.6,0,1.2,0,1.8c0,0.3,0,0.7,0.1,1c0,0.1,0,0.5,0.1,0.8
							c0,0.3,0.1,0.7,0.1,1c-0.8,0.4-1.5,0.8-2.4,1.2c-0.6,0.3-1.3,0.5-2.1,0.7c-0.8,0.1-1.6,0.3-2.5,0.1c-0.4,0-0.9-0.2-1.4-0.3
							c-0.2,0-0.6-0.3-0.9-0.5c-0.3-0.2-0.6-0.4-0.9-0.7c0-0.2-0.1-0.5-0.1-0.7c0-0.2-0.1-0.5-0.1-0.7l0.1-0.5l0-0.2
							c0-0.1,0-0.3,0-0.4c0-0.3-0.1-0.5-0.1-0.8c-0.1-0.3-0.2-0.6-0.3-0.8c-0.2-0.3-0.3-0.6-0.5-0.7c-0.3-0.5-0.8-0.7-1.4-0.9
							c-0.3-0.1-0.7-0.1-1.1-0.2c-0.4,0-1.2,0.1-1.9,0.2c-0.2-0.5-0.4-1-0.6-1.5c-0.2-0.4-0.2-0.6-0.4-0.9c-0.3-0.5-0.7-1-1.3-1.2
							C19.9,115.7,18.3,116.2,16.9,117z"/>
					</g>
				</g>
			</g>
		</g>
		<g>
			<path fill="#E8A605" d="M92.6,118.1c0,0,3.4-2.7,6.4-0.3c0,0-5.1,1.4-5.6,3.2C92.9,122.7,92.6,118.1,92.6,118.1z"/>
			<path fill="#FBBB15" d="M72.9,136c0,0-5.3-0.7-5,3.5c0,0,4.7-1.5,6-1.2L72.9,136z"/>
			<g>
				<g>
					<path id="SVGID_3_" fill="#FFE00A" d="M74.1,113.6c0,0,2.3,6.1,9.9,8.9c0,0-0.6,4-2.1,6.5c-1.5,2.4-5.1,0-8.2,1.2
						c-3.1,1.2-2.7,7,0.3,7.4c0,0-2.8,6.2,5.5,7.1c5.1,0.6,9.4-5.2,8.3-10.7c-1-4.8,2.8-9.8,5.9-12c3.1-2.2,2.2-3.7-0.2-5.1
						c-2.4-1.3-6.4,2.8-6.4,2.8s-6-1.8-9.1-7.4C75,106.7,72.9,112,74.1,113.6z"/>
				</g>
				<g>
					<defs>
						<path id="SVGID_6_" d="M74.1,113.6c0,0,2.3,6.1,9.9,8.9c0,0-0.6,4-2.1,6.5c-1.5,2.4-5.1,0-8.2,1.2c-3.1,1.2-2.7,7,0.3,7.4
							c0,0-2.8,6.2,5.5,7.1c5.1,0.6,9.4-5.2,8.3-10.7c-1-4.8,2.8-9.8,5.9-12c3.1-2.2,2.2-3.7-0.2-5.1c-2.4-1.3-6.4,2.8-6.4,2.8
							s-6-1.8-9.1-7.4C75,106.7,72.9,112,74.1,113.6z"/>
					</defs>
					<clipPath id="SVGID_8_">
						<use xlink:href="#SVGID_6_"  overflow="visible"/>
					</clipPath>
					<path clip-path="url(#SVGID_8_)" fill="#E5C40A" d="M76.6,145.4c0,0,4.5-1.3,7.4-4.3c2.9-3.1,0.5-11.3,3.8-17.7
						c0,0-10.4-6.2-11.9-10.3c-1.4-4.1,10.5,3.9,10.5,3.9s13.8-3.5,14.7-0.1c0.9,3.4-9.9,11-9.9,11s1,14.2-8.5,17.6
						C73.4,148.9,76.6,145.4,76.6,145.4z"/>
				</g>
			</g>
			<g>
				<g>
					<g>
						<path fill="#AA9921" d="M74.4,136.9c0,0,0.1-0.3,0.5-0.7c0.4-0.4,1.1-0.8,2-1c0.9-0.2,1.8-0.2,2.7-0.2c0.8,0,1.4-0.1,2.1-0.7
							c0,0,0,0.2-0.1,0.6c0,0.2-0.2,0.4-0.4,0.7c-0.2,0.2-0.6,0.5-1,0.6c-0.8,0.3-1.7,0.3-2.6,0.2C76.7,136.4,75.6,136.2,74.4,136.9
							z"/>
					</g>
				</g>
			</g>
			<path fill="#FBBB15" d="M75.1,140.2c-1.6,0.9-4.2,3.4-2.8,6.4c0,0,4.4-2.7,5.8-3.3C79.4,142.7,76.6,139.4,75.1,140.2z"/>
			<g>
				<g>
					<g>
						<path fill="#F9F091" d="M75.8,116c0,0,0.1,0.2,0.5,0.6c0.3,0.4,0.9,0.9,1.6,1.4c0.7,0.6,1.7,1.2,2.8,1.7
							c0.6,0.3,1.1,0.6,1.8,0.9c0.3,0.1,0.7,0.3,1,0.4c0.3,0.1,0.6,0.3,0.9,0.4l0.5,0.2l0.2,0.1c0.1,0,0.2,0.1,0.1,0.2
							c-0.1,0.6-0.2,1.5-0.3,2c-0.1,0.4-0.2,0.8-0.2,1.3c-0.2,0.9-0.4,1.7-0.8,2.7c-0.2,0.5-0.4,0.9-0.7,1.4
							c-0.2,0.4-0.9,1.2-1.5,1.5c-1.4,0.6-2.4,0.4-3.4,0.4c-1.9-0.1-3.7-0.3-4.5,0.5c-0.4,0.4-0.8,1-1,1.7l-0.1,0.5
							c0,0.1,0,0.2,0,0.3l0,0.1c0,0,0,0.1,0,0.2c0,0.4,0.3,0.9,0.4,1.3l0.4,1.2c-1.1-0.1-2.3-0.3-3.1-0.1c-0.5,0-0.9,0.1-1.2,0.3
							c-0.7,0.3-1.1,1.2-1.1,2.2c0.1,0-0.3-0.5-0.3-1.6c0-0.6,0.4-1.3,1.2-1.8c0.4-0.2,0.9-0.5,1.3-0.6c0.2-0.1,0.5-0.2,0.6-0.2
							c-0.2-0.2-0.2-0.4-0.3-0.6c0,0-0.1-0.4-0.1-0.6c0-0.3,0-0.6,0-0.8c0.1-1.1,0.5-2.5,1.6-3.5c0.3-0.2,0.6-0.5,0.9-0.7
							c0.3-0.2,0.7-0.3,1.1-0.4c0.7-0.2,1.5-0.3,2.1-0.3c1.4,0,2.7,0.2,3.7,0.1c0.3,0,0.4-0.1,0.6-0.1c0,0,0.1,0,0.1-0.1
							c0,0,0.1,0,0.1-0.2c0.3-0.4,0.6-1,0.9-1.6c0.3-0.6,0.5-1.3,0.7-2c0.1-0.3,0.2-0.7,0.3-1c0-0.1,0.2-0.2,0.1-0.3l-0.1-0.1
							c0,0,0,0-0.1-0.1l-0.3-0.2c-0.4-0.2-0.8-0.4-1.1-0.7c-0.7-0.5-1.5-1-2.1-1.6C77.8,119.2,76.5,117.7,75.8,116z"/>
					</g>
				</g>
			</g>
		</g>
		<path fill="#D6D7D8" d="M66.3,104.5c0,0-3.1,11.6,9,10.6s10.1-13.7,9.1-16.2C83.3,96.5,69.9,100.8,66.3,104.5z"/>
		<path fill="#D6D7D8" d="M39.2,102.9c0,0-4.6,4-2.7,7.8c1.9,3.7,18.6,7.9,17.3-4.5C52.5,93.8,39.2,102.9,39.2,102.9z"/>
	</g>
	<g>
		<g>
			<g>
				<g>
					<path id="SVGID_5_" fill="#EAE8E8" d="M101.2,77.9c0,0-10.7-13.2-3.2-25.9c7.5-12.6,24.2-13,32.7-7.1
						c8.5,5.9,6.7,10.8,5.7,11.8c-1,1-6.7-6.4-16.2-6.3s-11.9,4.7-11.9,4.7s14.3-6.1,27.1,4.6s7.3,12.4-1.5,6.7
						c-8.8-5.7-17.4-4.4-17.4-4.4s13.6,3.6,19.8,17.9c6.3,14.2,1.6,24.2-2.2,24c-3.8-0.3,0.5-26-23.3-31.5c0,0,13.5,11.9,15,27.9
						s-5.9,20.8-7.6,20.8c-1.7-0.1-0.1-13.6-2.3-21.6C113.6,91.6,104.5,83.6,101.2,77.9z"/>
				</g>
				<g>
					<defs>
						<path id="SVGID_10_" d="M101.2,77.9c0,0-10.7-13.2-3.2-25.9c7.5-12.6,24.2-13,32.7-7.1c8.5,5.9,6.7,10.8,5.7,11.8
							c-1,1-6.7-6.4-16.2-6.3s-11.9,4.7-11.9,4.7s14.3-6.1,27.1,4.6s7.3,12.4-1.5,6.7c-8.8-5.7-17.4-4.4-17.4-4.4
							s13.6,3.6,19.8,17.9c6.3,14.2,1.6,24.2-2.2,24c-3.8-0.3,0.5-26-23.3-31.5c0,0,13.5,11.9,15,27.9s-5.9,20.8-7.6,20.8
							c-1.7-0.1-0.1-13.6-2.3-21.6C113.6,91.6,104.5,83.6,101.2,77.9z"/>
					</defs>
					<clipPath id="SVGID_12_">
						<use xlink:href="#SVGID_10_"  overflow="visible"/>
					</clipPath>
					<path clip-path="url(#SVGID_12_)" fill="#FFFFFF" d="M95.7,65.1c0,0-3.5-11.4,5.8-20.3c9.3-8.9,32.6-7.9,38,5.7
						c5.4,13.5-0.7,8.2-3.1,6.3c-2.4-1.9-14.4-15.1-27.9-6.3C95.1,59.3,102.1,74.5,95.7,65.1z"/>
				</g>
				<g>
					<defs>
						<path id="SVGID_13_" d="M101.2,77.9c0,0-10.7-13.2-3.2-25.9c7.5-12.6,24.2-13,32.7-7.1c8.5,5.9,6.7,10.8,5.7,11.8
							c-1,1-6.7-6.4-16.2-6.3s-11.9,4.7-11.9,4.7s14.3-6.1,27.1,4.6s7.3,12.4-1.5,6.7c-8.8-5.7-17.4-4.4-17.4-4.4
							s13.6,3.6,19.8,17.9c6.3,14.2,1.6,24.2-2.2,24c-3.8-0.3,0.5-26-23.3-31.5c0,0,13.5,11.9,15,27.9s-5.9,20.8-7.6,20.8
							c-1.7-0.1-0.1-13.6-2.3-21.6C113.6,91.6,104.5,83.6,101.2,77.9z"/>
					</defs>
					<clipPath id="SVGID_14_">
						<use xlink:href="#SVGID_13_"  overflow="visible"/>
					</clipPath>
					<path clip-path="url(#SVGID_14_)" fill="#FFFFFF" d="M104.1,59.9c0,0,1.5-4.3,8.8-6.9c7.3-2.6,24.3,2.4,31.8,14.8
						c7.5,12.3-3.4,0.6-6.3-2.6C135.6,62,120.5,48.5,104.1,59.9z"/>
				</g>
				<g>
					<defs>
						<path id="SVGID_15_" d="M101.2,77.9c0,0-10.7-13.2-3.2-25.9c7.5-12.6,24.2-13,32.7-7.1c8.5,5.9,6.7,10.8,5.7,11.8
							c-1,1-6.7-6.4-16.2-6.3s-11.9,4.7-11.9,4.7s14.3-6.1,27.1,4.6s7.3,12.4-1.5,6.7c-8.8-5.7-17.4-4.4-17.4-4.4
							s13.6,3.6,19.8,17.9c6.3,14.2,1.6,24.2-2.2,24c-3.8-0.3,0.5-26-23.3-31.5c0,0,13.5,11.9,15,27.9s-5.9,20.8-7.6,20.8
							c-1.7-0.1-0.1-13.6-2.3-21.6C113.6,91.6,104.5,83.6,101.2,77.9z"/>
					</defs>
					<clipPath id="SVGID_16_">
						<use xlink:href="#SVGID_15_"  overflow="visible"/>
					</clipPath>
					<path clip-path="url(#SVGID_16_)" fill="#FFFFFF" d="M109.6,62.9c0,0,7.7-2.8,17.1,2.5c12.6,7,22.7,33,15,39.9
						c-7.6,6.9-7.4,2.8-7.1,0.7s6.1-19.8-4.6-32.2C121.9,64.5,117,62.9,109.6,62.9z"/>
				</g>
			</g>
			<g>
				<g>
					<g>
						<path id="SVGID_7_" fill="#FFFFFF" d="M37,58.6c0,0-13.1,10.2-15.1,20s0,24.8,24.9,28.8c24.8,3.9,57.1-4.3,58.6-26.9
							C106.9,57.9,48.9,48.2,37,58.6z"/>
					</g>
					<g>
						<defs>
							<path id="SVGID_17_" d="M37,58.6c0,0-13.1,10.2-15.1,20s0,24.8,24.9,28.8c24.8,3.9,57.1-4.3,58.6-26.9
								C106.9,57.9,48.9,48.2,37,58.6z"/>
						</defs>
						<clipPath id="SVGID_18_">
							<use xlink:href="#SVGID_17_"  overflow="visible"/>
						</clipPath>
						<path clip-path="url(#SVGID_18_)" fill="#EAE8E8" d="M27.5,68.1c0,0-13.3,22.1,22.2,27.6c35.6,5.4,57.5-10.4,52.9-27
							c0,0,21.7,23.8-13.9,39.1s-66.5,13.2-72.3-6.8S17.6,64.4,27.5,68.1z"/>
					</g>
				</g>
				<g>
					<g>
						<g>
							<path fill="#FFFFFF" d="M28.7,67.1c0,0-0.2,0.3-0.7,0.9c-0.2,0.3-0.5,0.7-0.8,1.1c-0.3,0.5-0.6,1-1,1.5
								c-1.4,2.3-3,5.9-3.5,10.2c-0.2,2.2-0.3,4.5,0.3,6.9c0.2,1.2,0.7,2.3,1,3.5c0.2,0.6,0.6,1.1,0.8,1.7l0.4,0.9l0.5,0.8
								c0.4,0.5,0.7,1.1,1.1,1.6l1.3,1.4l0.7,0.7c0.2,0.2,0.5,0.4,0.8,0.6l1.5,1.3c1.1,0.8,2.2,1.5,3.3,2.3l1.8,0.9l1.5,0.7
								c0.5,0.3,1.1,0.5,1.5,0.8c-0.6,0.6-1.2,1.3-1.6,1.9c-0.3,0.4-0.4,0.7-0.5,1c-0.2,0.6-0.3,1.3-0.1,1.9
								c0.4,1.3,1.7,2.4,3.1,3.1c0,0-0.2-0.1-0.6-0.2c-0.4-0.1-1-0.4-1.7-0.8c-0.7-0.5-1.6-1.2-2.1-2.6c-0.2-0.7-0.2-1.5,0-2.3
								c0.1-0.4,0.3-0.9,0.4-1.1c0.1-0.2,0.1-0.3,0.2-0.4c0-0.1-0.2-0.1-0.3-0.1c-0.2,0-0.2,0-0.4-0.1c-0.6-0.3-1.3-0.5-2-0.8
								c-0.7-0.3-1.3-0.7-2-1.1c-0.7-0.4-1.4-0.7-2.1-1.3c-2.8-1.9-5.6-4.8-7.5-8.7c-1.8-3.9-2.5-8.8-1.3-13.6
								c0.2-0.6,0.3-1.2,0.5-1.8c0.2-0.6,0.4-1.2,0.7-1.8c0.4-1.2,1.1-2.3,1.7-3.4C24.9,70.9,26.6,68.8,28.7,67.1z"/>
						</g>
					</g>
				</g>
				<g>
					<g>
						<g>
							<path fill="#FFFFFF" d="M105.5,83.2c0,0,0,0.3,0.1,0.7c0,0.5,0,1.2-0.1,2c-0.2,1.7-0.9,4.2-2.5,6.8c-1.6,2.6-4,5.3-7,7.5
								c-1.5,1.1-3.1,2.1-4.8,3c-0.8,0.5-1.7,0.9-2.6,1.2l-1.3,0.5c0,0,0,0-0.1,0c0,0,0,0,0,0c0,0,0,0,0,0l-0.1,0.4
								c-0.1,0.6-0.2,1.2-0.4,1.8c-0.4,1.2-0.9,2.3-1.6,3.3c-1.4,1.9-3.4,3.2-5.3,3.8c0,0,0.2-0.2,0.6-0.7c0.2-0.2,0.4-0.5,0.7-0.8
								c0.3-0.3,0.5-0.7,0.8-1.1c0.5-0.9,1.1-2,1.4-3.3c0.2-0.7,0.3-1.4,0.3-2.2c0-0.4,0-0.8,0-1.2c0-0.1,0-0.2,0-0.5l0-0.7
								c0-0.5-0.1-0.9-0.1-1.4c0.8-0.4,1.5-0.8,2.3-1.2c0.4-0.2,0.8-0.4,1.3-0.7c0.9-0.4,1.7-0.9,2.6-1.4c0.5-0.3,0.9-0.5,1.4-0.8
								c0.5-0.3,0.9-0.6,1.4-0.9c1-0.5,1.9-1.2,2.9-1.9c1.9-1.4,4-2.9,5.8-4.9C102.8,88.8,104.7,86.5,105.5,83.2z"/>
						</g>
					</g>
				</g>
			</g>
		</g>
		<g>
			<path fill="#FFFFFF" d="M57.6,83.2c0.4,4.9,10.2,12,24,11s19.9-7.3,19.9-9.1c-0.1-1.7-8-1.6-8-1.6s8.9-2.7,7.7-5.2
				c-1.2-2.5-9.2-3.8-9.2-3.8s3.8-0.9,3.6-2.4c-0.2-1.4-13.8-5.7-21.4-4.9C66.6,68.1,56.8,73.5,57.6,83.2z"/>
			<path fill="#EAE8E8" d="M57.6,81c0,0-2.1,9.8,17.5,13.1s26.4-9,26.4-9s-6,4.5-14.5,5.4C78.5,91.4,64.5,92.6,57.6,81z"/>
			<g>
				<g>
					<g>
						<path fill="#CFCECE" d="M57.9,83.2c0,0,0,0.5,0.4,1.2c0.3,0.8,1,1.8,2.2,2.9c2.3,2.2,6.5,4.4,11.9,5.3
							c2.7,0.5,5.6,0.6,8.7,0.4c3.1-0.3,6.4-0.8,9.5-1.9c3.1-1,6.4-2.6,8.6-4.9c0.2-0.1,0.2-0.3,0.4-0.4c0.1-0.1,0.3-0.4,0.2-0.3
							c0,0,0,0,0,0s0,0,0,0c-0.2-0.1-0.7-0.2-1-0.2c-1.6-0.3-3.5-0.4-5.2-0.4l-8.8-0.1l8.3-2.5c1.6-0.5,3.3-1.1,4.8-1.8
							c0.7-0.4,1.5-0.8,2-1.2c0.3-0.3,0.3-0.3,0.3-0.4c0-0.1,0-0.1,0-0.2c0,0,0-0.1-0.2-0.2c-0.9-1-2.6-1.6-4.2-2.2L95,76L94,75.7
							c-0.6-0.2-1.3-0.3-1.9-0.4c-0.6-0.1-1.2-0.3-1.8-0.4L90,74.8c0,0,0.1-0.1,0.1-0.1c0.1-0.1,0.1-0.1,0-0.2
							c1.6-0.4,3-0.8,3.9-1.1c0.4-0.2,0.8-0.4,1-0.6c0.2-0.2,0.3-0.4,0.3-0.6c0,0,0.2,0.2-0.2,0.7c-0.2,0.3-0.5,0.5-0.9,0.8
							c-0.3,0.2-0.7,0.4-1.1,0.6c-0.2,0.1-0.3,0.1-0.5,0.2c-0.2,0,0.1,0,0.2,0.1c0.1,0,0.3,0,0.5,0.1c0.5,0.1,1.1,0.2,1.8,0.2
							c0.9,0.1,2.7,0.5,4.3,1.2c0.4,0.2,0.9,0.4,1.3,0.7c0.2,0.1,0.4,0.3,0.7,0.5c0.2,0.2,0.4,0.5,0.6,0.8c0.4,0.7,0.2,1.6-0.3,2.2
							c-0.4,0.6-0.9,0.9-1.3,1.3c-1.9,1.4-4.1,2.3-6.5,3.2c-0.1-0.7-0.2-1.6-0.4-2.4c1.9-0.1,3.8-0.1,5.9,0.2c0.3,0,0.5,0.1,0.8,0.2
							l0.4,0.1c0.2,0.1,0.4,0.1,0.7,0.2c0.9,0.4,1.7,1.1,1.6,2.1c0,0.2,0,0.5-0.1,0.7c-0.1,0.2-0.1,0.5-0.2,0.7
							c-0.1,0.2-0.3,0.5-0.4,0.6c-0.1,0.1-0.2,0.3-0.3,0.4c-0.4,0.5-0.8,0.9-1.2,1.3c-3.6,3.1-8.3,5-13.3,5.9
							c-2.5,0.4-5.2,0.7-7.9,0.6c-2.7-0.1-5.6-0.5-8.3-1.3c-2.8-0.8-5.5-2-8-3.8c-1.2-0.9-2.4-1.9-3.3-3.1
							C58.7,86.1,57.9,84.7,57.9,83.2z"/>
					</g>
				</g>
			</g>
		</g>
	</g>
	<g>
		<g>
			<g>
				<path id="SVGID_9_" fill="#E8481E" d="M68.3,20.5c0,0-2.2-4.4,0.7-10.5C72,3.8,79.2,1.8,80.5,3.2c1.3,1.4-2.9,10.9-3.2,12.1
					c0,0,8-6.8,16.1-6.7c8.1,0.2,10.8,6.4-5,11.2c0,0,14.9,6.6,12.3,13.8c-2.6,7.3-13.2,0.5-13.2,0.5S83.9,15.2,68.3,20.5z"/>
			</g>
			<g>
				<defs>
					<path id="SVGID_19_" d="M68.3,20.5c0,0-2.2-4.4,0.7-10.5C72,3.8,79.2,1.8,80.5,3.2c1.3,1.4-2.9,10.9-3.2,12.1
						c0,0,8-6.8,16.1-6.7c8.1,0.2,10.8,6.4-5,11.2c0,0,14.9,6.6,12.3,13.8c-2.6,7.3-13.2,0.5-13.2,0.5S83.9,15.2,68.3,20.5z"/>
				</defs>
				<clipPath id="SVGID_20_">
					<use xlink:href="#SVGID_19_"  overflow="visible"/>
				</clipPath>
				<path clip-path="url(#SVGID_20_)" fill="#D73317" d="M73.9,3.8c0,0-7,6.4-6.1,9.9c1,3.4,8.1,2.7,9.6,1.6c0,0,11.4,6.3,22.9-5.8
					c0,0,10.7,2.8-6.6,10.4c13-2.9,9.2,19.3,2.6,18.5c-6.7-0.8-28.8-5.1-31.1-14.6C62.7,14.4,57.1,5.7,73.9,3.8z"/>
			</g>
			<g>
				<defs>
					<path id="SVGID_21_" d="M68.3,20.5c0,0-2.2-4.4,0.7-10.5C72,3.8,79.2,1.8,80.5,3.2c1.3,1.4-2.9,10.9-3.2,12.1
						c0,0,8-6.8,16.1-6.7c8.1,0.2,10.8,6.4-5,11.2c0,0,14.9,6.6,12.3,13.8c-2.6,7.3-13.2,0.5-13.2,0.5S83.9,15.2,68.3,20.5z"/>
				</defs>
				<clipPath id="SVGID_22_">
					<use xlink:href="#SVGID_21_"  overflow="visible"/>
				</clipPath>
				<path clip-path="url(#SVGID_22_)" fill="#F0834F" d="M69.9,14.2c-2-0.9-0.8-3.5,1-6.1c1.7-2.6,5.8-4.9,7.7-4.9
					c1.9,0,0.3,4.5-1.8,7.2C74.6,13.1,71.9,15.1,69.9,14.2z"/>
			</g>
			<g>
				<defs>
					<path id="SVGID_23_" d="M68.3,20.5c0,0-2.2-4.4,0.7-10.5C72,3.8,79.2,1.8,80.5,3.2c1.3,1.4-2.9,10.9-3.2,12.1
						c0,0,8-6.8,16.1-6.7c8.1,0.2,10.8,6.4-5,11.2c0,0,14.9,6.6,12.3,13.8c-2.6,7.3-13.2,0.5-13.2,0.5S83.9,15.2,68.3,20.5z"/>
				</defs>
				<clipPath id="SVGID_24_">
					<use xlink:href="#SVGID_23_"  overflow="visible"/>
				</clipPath>
				<path clip-path="url(#SVGID_24_)" fill="#F0834F" d="M81.8,14.2c0.1-1,2.3-3.2,6.6-4.4c4.3-1.3,7.2-1,8.5,0.7
					c0.9,1.1-4,3.1-8.5,4.6C83.9,16.5,81.7,15.7,81.8,14.2z"/>
			</g>
		</g>
		<g>
			<path fill="#D9DADA" d="M30.3,63.9c0,0,1.7,3.9,7.6,1.8c0,0,0.1,8.1,4.5,10.8c4.5,2.6,6.3-5.7,6.3-5.7s2.7,9.6,8.7,8.5
				c6-1,7.7-11.1,7.7-11.1s4.4,8,11.5,5.9c7.2-2,4.5-8.1,4.5-8.1s13.6,1.5,7.4-4.4C88.6,61.6,55.5,48.3,30.3,63.9z"/>
			<path fill="#FFFFFF" d="M79.7,18c9.3,2.7,14.4,14,10.5,23.2c-3.9,9.2-7.2,15.8-5,17.2s4.9,3.8,3.6,5.6c-1.4,1.8-6.8,2-9.5-2.5
				c0,0,1.7,7.6-2.7,8.4c-4.4,0.8-11.8-4.8-11.8-4.8s-3.3,10.6-8.3,10.8c-5,0.2-6.2-8.5-6.2-8.5s-3.2,7.3-7.6,5.1
				c-4.4-2.2-1.9-10.9-1.9-10.9s-7.9,5.4-10.6,2.3c-2.7-3.1,9.3-9.7,12.1-13C45,47.6,55,10.7,79.7,18z"/>
		</g>
		<g>
			<circle fill="#D3E2EA" cx="73.3" cy="30.1" r="4.8"/>
			<circle fill="#FFFFFF" cx="73.7" cy="29.7" r="4.4"/>
			<circle fill="#1E120D" cx="74.9" cy="29.2" r="3"/>
			<circle fill="#FFFFFF" cx="75.7" cy="28.2" r="1.7"/>
		</g>
		<g>
			<circle fill="#D3E2EA" cx="63.1" cy="25.4" r="3.5"/>
			<circle fill="#FFFFFF" cx="63.3" cy="25.1" r="3.2"/>
			<circle fill="#1E120D" cx="64.2" cy="24.8" r="2.2"/>
			<circle fill="#FFFFFF" cx="64.8" cy="24" r="1.3"/>
		</g>
		<g>
			<g>
				<path fill="#E8481E" d="M54.3,40c0,0-6,3.7-3.8,5.5c2.2,1.9,5.8-3.4,5.8-3.4s0,5.9,3.1,6.2c3.1,0.2,3.4-9.2,2.1-9.5
					C61.6,38.7,57.8,39.8,54.3,40z"/>
				<path fill="#D73317" d="M53.4,40.6c0,0,2.2,1.4,5,0.7c0,0,2.1,4.4-0.3,6.4c0,0,1.7,2.2,3.2-1c1.6-3.2,1.2-7.8,0.2-8L53.4,40.6z"
					/>
			</g>
			<g>
				<path fill="#D3B10B" d="M49.4,35.4c0,0,3.1,0.4,5.1-0.2c2-0.7,3.3-3.6,3.3-3.6l7.8,0.2c0,0,1.7,3.6-4.1,6.3
					C55.8,40.8,49.4,35.4,49.4,35.4"/>
				<path fill="#FBD9CC" d="M64.7,32.7c0,0-6.3,1.9-8.4,6.4c0,0,5.9-0.5,7.8-2.4C66,34.8,66.3,33.3,64.7,32.7z"/>
				<g>
					<g>
						<path id="SVGID_11_" fill="#FFCE0A" d="M65.1,29.4c0,0-4.1-5.6-11.7-6.7c-7.6-1.2-11.6,7.7-11.6,7.7s8-1.8,11.7,0.6
							s7.5,4.4,11.8,3c0,0-2.4,3-6.5,3.9c-4.1,1-9.5-2.4-9.5-2.4s2,4.8,4.6,5.4c2.5,0.6,10-1.9,11.5-4.6
							C66.9,33.5,65.8,30.2,65.1,29.4z"/>
					</g>
					<g>
						<defs>
							<path id="SVGID_25_" d="M65.1,29.4c0,0-4.1-5.6-11.7-6.7c-7.6-1.2-11.6,7.7-11.6,7.7s8-1.8,11.7,0.6s7.5,4.4,11.8,3
								c0,0-2.4,3-6.5,3.9c-4.1,1-9.5-2.4-9.5-2.4s2,4.8,4.6,5.4c2.5,0.6,10-1.9,11.5-4.6C66.9,33.5,65.8,30.2,65.1,29.4z"/>
						</defs>
						<clipPath id="SVGID_26_">
							<use xlink:href="#SVGID_25_"  overflow="visible"/>
						</clipPath>
						<path clip-path="url(#SVGID_26_)" fill="#FEEB22" d="M41.9,30.3c0,0,2.9-7.4,9.8-7.8c7-0.3,12,4,14.1,7.2
							c2,3.2-4.7,2.3-6.7,1.3C57,30.1,49.8,27.1,41.9,30.3z"/>
					</g>
				</g>
			</g>
		</g>
	</g>
</g>
</svg>
