<?xml version="1.0" encoding="utf-8"?>
<!-- Generator: Adobe Illustrator 17.0.0, SVG Export Plug-In . SVG Version: 6.00 Build 0)  -->
<!DOCTYPE svg PUBLIC "-//W3C//DTD SVG 1.1//EN" "http://www.w3.org/Graphics/SVG/1.1/DTD/svg11.dtd">
<svg version="1.1" id="Слой_1" xmlns="http://www.w3.org/2000/svg" xmlns:xlink="http://www.w3.org/1999/xlink" x="0px" y="0px"
	 width="150px" height="150px" viewBox="0 0 150 150" enable-background="new 0 0 150 150" xml:space="preserve">
<g>
	<path fill-rule="evenodd" clip-rule="evenodd" fill="#701347" d="M76.199,63.901c4.781-0.056,11.211-0.953,13.599-2.864
		c2.388-1.91,2.979,0.356,6.327,1.668s6.578,1.438,9.682,4.78c3.104,3.343,7.94,12.644,12.099,20.99
		c4.16,8.346,7.286,18.896,6.763,27.481c-0.522,8.585,0,20.296-0.478,24.116c-0.477,3.82-0.579,6.996-0.716,8.357
		c-0.066,0.654-2.82,0.172-5.614-0.309c-3.019-0.52-6.06-1.113-5.13-2.317c1.792-2.319,2.865-5.014,2.149-6.686
		c-0.716-1.671-3.104-8.834-3.582-12.655c-0.478-3.82-1.91-9.312-1.194-13.371c0.716-4.059-2.348-12.491-4.019-15.595
		c-2.104-3.907-1.77,25.761-4.099,30.16c-2.149,4.059-3.343,14.326-3.582,16.953c-0.239,2.626-8.835-1.671-20.296-1.671
		c-11.461,0-22.683,4.775-22.922,1.671c-0.239-3.104,1.994-10.744-3.104-16.236c-4.246-4.575-2.544-33.687-4.981-31.187
		c-0.976,1-2.731,7.04-3.205,9.531c-1.069,5.622,0.068,10.195-2.558,19.746c-2.627,9.551-3.398,17.908-3.343,21.012
		c0.029,1.632-3.581,1.534-7.049,1.519c-3.128-0.013-6.167,0.204-5.845-1.042c0.681-2.626,0.716-7.163,0.716-12.894
		c0-5.73,2.149-14.565,2.865-21.967c0.716-7.402,2.388-14.804,5.492-22.445c3.104-7.641,6.447-15.281,9.789-20.057
		c3.343-4.775,7.277-5.61,11.817-7.52c4.54-1.91,4.315-3.462,6.464-1.79C64.395,62.951,70.697,63.965,76.199,63.901L76.199,63.901z"
		/>
	<path fill-rule="evenodd" clip-rule="evenodd" fill="#DEB5CC" d="M38.397,140.804c-0.384,2.99-0.505,5.324-0.402,6.67
		c0.126,1.632-3.578,1.534-7.049,1.519c-3.13-0.013-6.071,0.204-5.844-1.042c0.317-1.746,0.529-4.337,0.636-7.561
		C29.488,139.824,34.079,139.729,38.397,140.804L38.397,140.804z"/>
	<path fill-rule="evenodd" clip-rule="evenodd" fill="#DEB5CC" d="M124.249,139.576c-0.019,0.177,0.078-0.914-0.027,1.012
		c-0.105,1.925-0.513,6.206-0.747,7.841c-0.104,0.725-2.696,0.242-5.614-0.309c-2.865-0.541-6.082-0.923-5.373-2.105
		c1.432-2.387,2.781-5.99,2.392-6.898c-0.389-0.908-0.137-0.331-0.222-0.553C118.046,138.422,121.4,138.879,124.249,139.576
		L124.249,139.576z"/>
	<path fill-rule="evenodd" clip-rule="evenodd" fill="#DEB5CC" d="M101.639,128.385c-1.93,4.443-3.008,13.742-3.234,16.223
		c-0.239,2.626-8.835-1.671-20.296-1.671c-11.461,0-22.683,4.775-22.922,1.671c-0.239-3.104-0.239-9.312-3.104-16.236
		c-0.014-0.034-0.028-0.07-0.042-0.105C62.137,125.879,82.445,123.798,101.639,128.385L101.639,128.385z"/>
	<path fill-rule="evenodd" clip-rule="evenodd" fill="#DEB5CC" d="M76.199,63.901c4.781-0.056,11.211-0.953,13.599-2.864
		c2.258-1.806,2.91,0.122,5.805,1.446c-15.681,7.757-29.132,5.116-38.934,0.19c3.632-1.716,3.579-2.948,5.577-1.394
		C64.395,62.951,70.697,63.965,76.199,63.901L76.199,63.901z"/>
	<path fill-rule="evenodd" clip-rule="evenodd" fill="#44102B" d="M48.396,101.274c-0.255-3.015-0.613-4.787-1.294-4.089
		c-0.314,0.322-0.708,1.165-1.115,2.244c2.315-7.452,1.752-14.625,1.342-19.751c-0.413-5.165-0.2-6.289,0.74,0.129
		c0.939,6.417,0.014,17.076,0.327,21.459L48.396,101.274L48.396,101.274z"/>
	<path fill-rule="evenodd" clip-rule="evenodd" fill="#44102B" d="M106.856,99.089c-0.275-0.618-0.536-1.158-0.771-1.593
		c-0.746-1.386-1.185,1.455-1.546,5.892l-0.001-0.206c0-12.768-3.151-17.41-4.146-21.722c-0.995-4.311-0.995-9.783-0.331-5.306
		c0.663,4.477,5.14,18.737,6.798,22.385C106.86,98.722,106.858,98.905,106.856,99.089L106.856,99.089z"/>
	<path fill="#DEB5CC" d="M89.62,84.415c0.467-0.268,1.062-0.107,1.331,0.36c0.268,0.467,0.107,1.062-0.359,1.33l-3.886,2.243
		l3.523,2.034c0.467,0.27,0.626,0.868,0.356,1.334c-0.27,0.467-0.868,0.626-1.334,0.356l-4.497-2.597l-1.63,0.941l0.973,0.562
		c0.467,0.27,0.626,0.868,0.356,1.334c-0.27,0.467-0.868,0.626-1.334,0.356l-1.947-1.124l-2.38,1.374l2.38,1.374l1.947-1.124
		c0.467-0.27,1.064-0.111,1.334,0.356c0.27,0.467,0.111,1.064-0.356,1.334l-0.973,0.562l1.632,0.942l4.499-2.598
		c0.467-0.268,1.063-0.107,1.331,0.36c0.268,0.467,0.107,1.062-0.359,1.331l-3.521,2.033l3.887,2.245
		c0.467,0.268,0.628,0.864,0.359,1.331c-0.268,0.467-0.864,0.627-1.331,0.359l-3.887-2.244v4.065c0,0.541-0.438,0.979-0.979,0.979
		c-0.541,0-0.979-0.438-0.979-0.979v-5.196l-1.629-0.941v1.123c0,0.538-0.437,0.975-0.975,0.975c-0.538,0-0.975-0.436-0.975-0.975
		l0-2.249l-2.377-1.373v2.751l1.941,1.121c0.467,0.268,0.628,0.864,0.359,1.331c-0.268,0.467-0.864,0.628-1.331,0.359l-0.97-0.56
		v1.887l4.491,2.593c0.467,0.268,0.628,0.864,0.36,1.331c-0.268,0.467-0.864,0.628-1.331,0.359l-3.52-2.032v4.488
		c0,0.54-0.438,0.979-0.979,0.979c-0.541,0-0.979-0.438-0.979-0.979v-4.488l-3.52,2.032c-0.467,0.268-1.063,0.107-1.331-0.359
		c-0.268-0.467-0.107-1.062,0.359-1.331l4.492-2.593v-1.887l-0.97,0.56c-0.467,0.268-1.063,0.107-1.331-0.359
		c-0.268-0.467-0.107-1.063,0.36-1.331l1.941-1.121v-2.751l-2.377,1.373v2.249c0,0.538-0.436,0.975-0.975,0.975
		c-0.538,0-0.975-0.436-0.975-0.975v-1.123L69.9,98.051l0,5.193c0,0.538-0.437,0.975-0.975,0.975c-0.538,0-0.975-0.437-0.975-0.975
		l0-4.068l-3.89,2.246c-0.467,0.268-1.063,0.107-1.331-0.359c-0.268-0.467-0.107-1.063,0.359-1.331l3.886-2.243l-3.523-2.034
		c-0.467-0.27-0.626-0.868-0.356-1.335c0.27-0.467,0.868-0.626,1.335-0.356l4.497,2.596l1.63-0.941l-0.973-0.562
		c-0.467-0.27-0.626-0.868-0.356-1.334c0.27-0.467,0.868-0.626,1.335-0.356l1.947,1.124l2.38-1.374l-2.38-1.374l-1.947,1.124
		c-0.467,0.27-1.064,0.111-1.335-0.356c-0.27-0.467-0.111-1.064,0.356-1.334l0.973-0.562l-1.63-0.941l-4.497,2.596
		c-0.467,0.27-1.064,0.111-1.335-0.356c-0.27-0.467-0.111-1.064,0.356-1.334l3.523-2.034l-3.886-2.243
		c-0.467-0.268-0.628-0.864-0.359-1.33c0.268-0.467,0.864-0.628,1.331-0.36l3.89,2.246l0-4.068c0-0.538,0.437-0.975,0.975-0.975
		c0.538,0,0.975,0.437,0.975,0.975l0,5.193l1.633,0.943v-1.123c0-0.538,0.437-0.975,0.975-0.975c0.538,0,0.975,0.437,0.975,0.975
		l0,2.248l2.377,1.373v-2.751l-1.941-1.121c-0.467-0.268-0.628-0.864-0.36-1.33c0.268-0.467,0.864-0.628,1.331-0.359l0.97,0.56
		v-1.886l-4.492-2.593c-0.467-0.268-0.628-0.864-0.359-1.331c0.268-0.467,0.864-0.628,1.331-0.359l3.52,2.032v-4.488
		c0-0.541,0.438-0.979,0.979-0.979c0.541,0,0.979,0.438,0.979,0.979v4.488l3.52-2.032c0.467-0.268,1.062-0.107,1.331,0.359
		c0.268,0.467,0.107,1.063-0.36,1.331l-4.491,2.593v1.886l0.97-0.56c0.467-0.268,1.063-0.107,1.331,0.359
		c0.268,0.467,0.107,1.062-0.359,1.33l-1.941,1.121v2.751l2.377-1.373l0-2.248c0-0.538,0.437-0.975,0.975-0.975
		c0.538,0,0.975,0.437,0.975,0.975v1.123l1.629-0.941v-5.196c0-0.541,0.438-0.979,0.979-0.979c0.54,0,0.979,0.438,0.979,0.979v4.065
		L89.62,84.415L89.62,84.415z"/>
</g>
<g>
	<path fill-rule="evenodd" clip-rule="evenodd" fill="#9C191E" d="M57.856,30.616c-0.461-1.768-0.461-2.46,0.538-2.998
		c0.999-0.538-1.384-1.537,0.231-2.537c1.614-0.999-0.231-1.845,1.691-2.768c1.922-0.922,0.615-2.768,1.845-2.691
		c1.23,0.077,0.461-2.768,2.383-2.768s0.308-2.153,2.383-2.153c2.076,0,0.538-2.537,2.229-2.46c1.691,0.077,0.769-1.461,2.46-1.153
		c1.691,0.307,0.308-1.461,2.152-0.923c1.845,0.538,0.384-1.461,2.614-1.307c2.229,0.154,1.461-2.076,3.075-1.384
		c1.614,0.692,1.384-1.153,3.229-0.154c1.845,0.999,2.23-0.923,3.306,0.231c1.076,1.153,2.229,0,2.614,1.384
		c0.384,1.384,1-0.384,2.537,0.769c1.538,1.153,2.46-0.077,3.613,1.461c1.153,1.538,9.917,11.455,8.918,12.224
		c-1,0.769,0.846,1.922-0.154,2.076c-0.999,0.154-0.999,1.691-2.306,0.923c-1.307-0.769-0.384,0.461-1.23,0.538
		c-0.846,0.077,1.614,2.614,0.461,3.152c-1.153,0.538,0.922,2.614,0.154,2.998c-0.769,0.384,1.461,2.306-0.154,3.998
		C98.832,38.765,64.314,39.534,57.856,30.616L57.856,30.616z"/>
	<path fill-rule="evenodd" clip-rule="evenodd" fill="#BB4250" d="M92.913,11.166c-0.692-1.999-1.456-3.992,0.308-4.151
		c1.764-0.16-0.433-2.543,1.703-2.319c2.136,0.225,0.368-1.989,2.209-1.459c1.841,0.53,1.173-1.845,2.942-0.846
		c1.768,0.999,1.736-0.9,2.911,0.085c1.176,0.985,2.233-0.542,2.695,0.842c0.461,1.384,1.995-0.463,1.995,1.459
		c0,1.922,1.23-0.004,1.531,1.764c0.301,1.768,2.248,0.7,1.849,2.78c-0.399,2.08,1.461,1.465,0.771,2.921
		c-0.69,1.456,1.444,1.98-0.079,2.844c-1.523,0.864,0.607,1.975-0.607,2.527c-1.214,0.552,0.125,2.381-1.319,2.618
		c-1.444,0.237-0.868,2.209-2.466,1.845c-1.598-0.364-0.923,1.208-2.454,0.775c-1.531-0.433,0.158,2.076-2.225,0.231
		C100.293,21.237,93.066,14.626,92.913,11.166L92.913,11.166z"/>
	<path fill-rule="evenodd" clip-rule="evenodd" fill="#631317" d="M103.072,21.693c0.887,0.083,1.103,1.408,0.492,1.879
		c-0.612,0.471,0.957,1.741-0.042,1.894c-0.999,0.154-0.999,1.691-2.306,0.923c-1.307-0.769-0.384,0.461-1.23,0.538
		c-0.846,0.077,1.614,2.614,0.461,3.152c-1.153,0.538,0.922,2.614,0.154,2.998c-0.769,0.384,1.461,2.306-0.154,3.998
		c-0.894,0.937-11.881,1.589-22.605,0.471c-5.19-0.931-20.921-0.313-20.27-8.941c0.626,1.832,3.346-0.131,4.429,1.55
		c0.558,0.866,2.04-0.259,3.443,0.807c1.554,1.181,1.153,1.309,2.769,1.093c1.615-0.215,2.647-0.152,3.608,0.618
		c0.961,0.771,1.39,1.034,3.071,0.678c1.681-0.356,2.477,0.183,3.984,0.962c1.508,0.779,2.614,0.288,3.641-0.026
		c1.027-0.315,1.264-0.72,3.203,0.142c1.938,0.862,1.206,0.894,3.419,0.248c2.213-0.646,2.021-0.782,3.842,0.08
		c1.821,0.863,3.703-0.944,2.669-1.379c-2.065-0.868,0.113-1.873-2.079-1.738c-2.231,0.138-2.192-1.169-4.792-0.576
		c-1.193,0.272-1.829-0.854,2.152-1.093c1.123-0.067,1.999,0.735,3.992,0.569c2.184-0.181,2.389,1.58,3.079,0.716
		c0.499-0.625-0.656-1.014-0.362-1.529c0.431-0.754,1.19-1.134-1.61-1.673c-2.8-0.538,0.87-3.05-4.007-2.356
		c-4.877,0.693-2.435-3.175-5.912-1.875c-3.477,1.3-0.861-1.447-4.121,0.068c-3.259,1.516-2.746-1.495-4.175-1.113
		c-1.43,0.382-2.389-0.487,0.842-1.133c3.23-0.646,3.338,0.969,5.169,0.754c1.831-0.215,3.338-1.615,4.954-0.323
		c1.615,1.292,2.692-0.754,4.738,1.185c2.046,1.938,2.477-0.323,3.877,1.185c1.4,1.508,2.522,1.017,3.123,0.646
		c0.601-0.371,0.552-0.993,0.356-2.095c-0.196-1.102,0.003-1.717-1.935-1.717c-1.938,0-0.098-2.268-2.36-2.268
		c-2.261,0-0.355-2.562-2.358-3.108c-2.003-0.546-0.603-1.999-1.852-2.824c-1.249-0.825-0.037-3.641,0.352-2.711
		c0.138,0.331,0.341,2.228,1.132,1.747c1.608-0.979,0.908,2.164,1.172,2.746c0.402,0.886,3.015,0.538,3.231,1.938
		c0.215,1.4,2.692,0.997,2.692,2.477C100.948,20.755,101.474,21.543,103.072,21.693L103.072,21.693z"/>
	<path fill-rule="evenodd" clip-rule="evenodd" fill="#BB4250" d="M57.297,29.568c-2.214,0.062-1.368,0.836-1.666,3.767
		c-0.298,2.931-0.12,5.125,1.264,5.324c1.384,0.2,1.038,1.644,1.884,1.337c0.845-0.308,0.999,1.384,2.153,0.846
		c1.153-0.538,1.96,1.448,2.882,0.987c0.923-0.461,1.2,0.875,2.738,0.645c1.538-0.231,2.221,1.123,3.375,0.893
		c1.153-0.231,1.384,0.935,2.844,0.397c1.461-0.538,1.307,1.384,3.152,1c1.845-0.384,2.229,0.692,3.536,0.538
		c1.307-0.154,2.844,1.153,4.459,0.384c1.614-0.769,2.921,0.769,4.151,0.154c1.23-0.615,1.691,0.307,3.075-0.308
		c1.384-0.615,1.999,0.231,3.229-0.461c1.23-0.692,1.922,0.538,2.998-0.461c1.076-0.999,1.538,0.077,2.921-1.307
		c1.384-1.384,2.076-1.307,2.076-2.921c0-1.614-0.659-2.406-0.505-3.867c0.154-1.461-0.418-4.21-1.708-2.857
		c-0.271,0.284-0.386,0.485-0.536,1.081c-0.149,0.597-0.597,0.06-1.253,0.835c-0.656,0.776-1.373-0.358-2.387,0.358
		c-1.014,0.716-1.223-0.328-2.268,0.209c-1.044,0.537-1.76-0.537-3.133,0.09c-1.373,0.627-1.313-0.507-2.626-0.06
		c-1.313,0.448-2.685-0.507-3.759-0.03c-1.074,0.477-2.119-0.746-3.581-0.358c-1.462,0.388-1.969-0.537-3.67-0.09
		c-1.701,0.448-1.73-1.223-3.551-0.955c-1.82,0.269-1.671-0.865-3.402-0.537c-1.73,0.328-0.686-0.567-2.596-0.656
		c-1.91-0.089-1.044-0.686-2.566-0.746c-1.522-0.06-1.283-0.626-2.596-0.746c-1.313-0.119-0.656-0.895-1.91-1.015
		c-1.253-0.119-0.431-0.532-1.326-0.741C58.103,30.088,58.082,29.407,57.297,29.568L57.297,29.568z"/>
	<path fill-rule="evenodd" clip-rule="evenodd" fill="#9C191E" d="M55.515,34.951c-0.205,2.627-0.14,4.091,1.128,4.273
		c1.269,0.183,1.038,1.393,1.884,1.085c0.846-0.308,1.251,1.447,2.404,0.908c1.153-0.538,1.96,1.511,2.882,1.05
		c0.923-0.461,1.2,0.938,2.738,0.708c1.538-0.231,1.97,0.935,3.123,0.704c1.153-0.231,1.321,0.872,2.782,0.334
		c1.461-0.538,1.558,1.258,3.403,0.874c1.845-0.384,2.292,0.566,3.599,0.412c1.307-0.154,2.656,1.09,4.27,0.322
		c1.614-0.769,3.11,0.831,4.34,0.217c1.23-0.615,1.691,0.307,3.075-0.308c1.384-0.615,1.999,0.231,3.229-0.461
		c1.23-0.692,1.922,0.538,2.998-0.461c1.076-0.999,1.538,0.077,2.921-1.307c1.384-1.384,2.076-1.307,2.076-2.921
		c0-1.614-0.402-1.962-0.505-3.376c-0.027-0.372,0.102-1.083-0.024-1.819c-0.323-0.123-0.711,0.641-0.576,1.225
		c0.305,1.321,1.169,4.878-0.254,5.234c-1.423,0.356-0.864-4.167-0.406-4.828c0.457-0.661-0.102-1.779-1.016-0.915
		c-0.915,0.864,1.118,6.708-0.508,7.115c-1.626,0.406-1.423-5.489-0.61-5.336c0.813,0.152,0.712-1.982-0.813-0.966
		c-1.524,1.016,0.61,6.81-1.423,6.911c-2.033,0.102-1.423-5.539-0.356-5.082c1.067,0.457,1.118-2.083-0.864-1.524
		c-1.982,0.559,0.813,6.962-1.575,7.064c-2.388,0.102-1.423-5.539-0.559-5.082c0.864,0.458,1.067-1.931-0.711-1.677
		c-1.779,0.254,0.152,7.115-1.931,7.216c-2.083,0.102-1.524-6.047-0.102-5.539c1.423,0.508,0.203-1.982-1.118-1.677
		c-1.321,0.305-1.067,3.608-0.711,5.387c0.356,1.779-0.813,2.541-2.236,1.931c-1.423-0.61-0.965-5.844,0.457-5.183
		c1.423,0.661,0.661-1.829-1.169-1.829c-1.83,0-1.423,4.065-0.966,5.692c0.457,1.626-0.813,1.372-2.338,1.016
		c-1.525-0.356-1.016-6.403,0.254-5.895c1.27,0.508,0.813-1.27-0.762-1.27c-1.575,0-1.118,3.354-1.016,5.285
		c0.102,1.931-1.728,1.931-3.1,1.321c-1.372-0.61-0.152-5.996,1.27-5.488c1.423,0.508,0.508-1.27-0.915-1.321
		c-1.423-0.051-1.677,4.167-1.677,5.336c0,1.169-0.813,1.372-2.033,0.457c-1.22-0.915,0-5.692,1.118-5.234
		c1.118,0.457,0.915-1.016-0.559-1.27c-1.474-0.254-1.982,4.218-1.88,5.437c0.102,1.22-1.118,0.661-2.49,0.102
		c-1.372-0.559,0.305-5.59,1.22-4.98c0.915,0.61,1.321-1.067-0.102-1.423c-1.423-0.356-1.728,2.287-1.982,3.608
		c-0.254,1.321-0.153,2.084-1.067,2.541c-0.915,0.457-1.677,0.153-2.338-0.457c-0.661-0.61,1.067-5.082,1.88-4.625
		c0.813,0.457,1.372-1.27-0.559-1.677c-1.931-0.407-1.016,5.386-2.846,6.149c-1.829,0.762-0.356-6.098,0.356-5.336
		c0.712,0.762,1.321-1.22,0.152-1.677c-1.169-0.457-2.49,4.675-2.388,5.946c0.102,1.27-0.407,0.813-1.169,0
		c-0.762-0.813,0.051-5.692,0.711-5.336c0.661,0.356,0.864-0.051,0-1.27c-0.864-1.22-1.677,1.677-1.728,2.642
		c-0.051,0.966-0.254,2.389-0.254,3.405c0,1.017-1.016,0.102-1.27-1.067c-0.254-1.169,0.61-5.082,1.27-4.624
		c0.661,0.457,0.203-1.016-0.61-1.474c-0.813-0.457-1.22,4.319-1.27,5.539c-0.051,1.22-0.101,0.813-0.61,0.661
		c-0.508-0.152-0.356-0.61-0.356-1.931c0-1.321,0.407-4.624,0.915-4.218c0.508,0.407,0.559-0.508-0.051-1.016
		c-0.61-0.508-0.915,1.829-1.118,3.659c-0.203,1.829,0.321,3.205-0.356,3.303C56.09,38.226,55.523,36.845,55.515,34.951
		L55.515,34.951z"/>
</g>
<g>
</g>
<g>
</g>
<g>
</g>
<g>
</g>
<g>
</g>
<g>
</g>
</svg>
