<svg xmlns="http://www.w3.org/2000/svg" width="426" height="500" viewBox="0 0 426 500" version="1.1">
	<path d="M 274.686 5.117 C 273.553 5.775, 268.974 5.962, 262.477 5.615 C 256.204 5.279, 251.844 5.444, 251.482 6.030 C 251.152 6.563, 250.219 7, 249.409 7 C 248.599 7, 246.263 7.731, 244.218 8.624 C 242.173 9.517, 238.378 10.383, 235.784 10.547 C 233.190 10.712, 229.453 11.430, 227.479 12.144 C 224.562 13.199, 223.743 13.201, 223.098 12.158 C 221.174 9.046, 188.692 11.071, 183.163 14.648 C 181.878 15.480, 180.580 15.914, 180.279 15.613 C 179.978 15.312, 178.598 15.958, 177.211 17.049 C 175.361 18.504, 173.830 18.871, 171.466 18.428 C 169.410 18.042, 167.131 18.398, 165.171 19.411 C 163.482 20.285, 160.152 21, 157.772 21 C 155.392 21, 152.557 21.613, 151.473 22.362 C 150.388 23.111, 147.250 24.054, 144.500 24.456 C 141.750 24.858, 138.934 25.653, 138.243 26.222 C 137.551 26.791, 132.151 27.380, 126.243 27.531 C 112.670 27.877, 107.625 29.410, 107.176 33.325 C 106.870 36.001, 106.653 36.117, 103.098 35.517 C 100.331 35.049, 99.002 35.293, 98.049 36.441 C 97.337 37.298, 95.685 38, 94.378 38 C 93.070 38, 92 38.400, 92 38.889 C 92 39.834, 86.092 41.364, 82.115 41.449 C 80.602 41.481, 79.433 42.302, 78.918 43.694 C 78.404 45.082, 76.635 46.329, 74.101 47.088 C 71.085 47.991, 69.791 49.056, 68.863 51.394 C 68.185 53.102, 67.453 54.831, 67.237 55.236 C 67.020 55.640, 68.003 56.500, 69.421 57.146 C 72.421 58.513, 72.809 60, 70.167 60 C 69.158 60, 68.002 60.332, 67.596 60.737 C 67.191 61.143, 66.103 61.480, 65.179 61.487 C 64.205 61.495, 63.457 62.340, 63.398 63.500 C 63.195 67.486, 62.975 68, 61.469 68 C 60.626 68, 59.682 67.334, 59.369 66.519 C 58.747 64.899, 54.292 64.767, 52.245 66.308 C 51.554 66.828, 49.183 66.965, 46.975 66.612 C 43.334 66.030, 42.873 66.203, 42.006 68.485 C 41.409 70.053, 40.193 71.064, 38.775 71.171 C 31.147 71.744, 28.954 71.873, 24 72.037 C 20.975 72.138, 17.285 72.846, 15.800 73.610 C 14.314 74.375, 12.232 75, 11.172 75 C 8.250 75, 6.612 77.433, 8.488 78.990 C 10.743 80.862, 10.338 82.816, 7 86.154 C 5.350 87.804, 4 89.584, 4 90.109 C 4 91.525, 8.336 92.946, 9.450 91.896 C 9.972 91.403, 10.872 91.004, 11.450 91.008 C 12.750 91.017, 15.140 95.964, 14.413 97.140 C 13.510 98.602, 21.684 98.086, 22.914 96.603 C 23.552 95.835, 24.920 95.428, 25.955 95.699 C 26.990 95.969, 28.661 95.730, 29.668 95.166 C 31.035 94.401, 31.948 94.548, 33.273 95.747 C 34.532 96.887, 35.358 97.042, 36.116 96.284 C 36.875 95.525, 37.957 95.617, 39.843 96.601 C 41.304 97.364, 43.677 97.990, 45.115 97.994 C 48.711 98.002, 53 101.581, 53 104.573 C 53 107.123, 54.385 107.804, 55.594 105.849 C 56.106 105.020, 56.613 105.107, 57.403 106.160 C 59.243 108.615, 62.002 109.175, 62.690 107.233 C 64.598 101.849, 70.325 100.094, 71.959 104.393 C 72.460 105.709, 72.646 107.637, 72.374 108.678 C 72.004 110.091, 72.411 110.571, 73.974 110.571 C 75.323 110.571, 76.274 109.757, 76.643 108.286 C 77.222 105.980, 79.393 105.209, 80.458 106.932 C 80.774 107.444, 82.872 107.695, 85.120 107.489 C 88.150 107.212, 89.746 107.617, 91.292 109.057 C 92.439 110.126, 93.967 111, 94.689 111 C 95.410 111, 96 111.675, 96 112.500 C 96 114.315, 97.658 114.497, 98.273 112.750 C 98.586 111.863, 99.626 112.162, 101.857 113.780 C 104.351 115.589, 105 115.744, 105 114.530 C 105 113.463, 106.008 113, 108.331 113 C 110.861 113, 111.984 112.399, 113 110.500 C 114.739 107.251, 116.001 107.348, 119.500 111 C 121.094 112.663, 123.419 114, 124.719 114 C 127.123 114, 132.236 116.036, 135.118 118.142 C 136.425 119.096, 137.385 118.860, 140.106 116.912 C 142.208 115.407, 146.112 114.073, 150.487 113.365 L 157.500 112.230 161 115.472 C 162.925 117.255, 165.274 118.984, 166.220 119.314 C 167.166 119.644, 168.214 121.171, 168.548 122.707 C 169.492 127.048, 171.340 130.273, 173.156 130.750 C 174.114 131.001, 175.090 132.665, 175.471 134.699 C 175.944 137.218, 177.856 139.891, 182.222 144.137 L 188.314 150.061 188.805 158.781 C 189.371 168.853, 189.391 229.396, 188.833 245.169 C 188.538 253.499, 188.077 256.258, 186.728 257.748 C 184.638 260.058, 184.491 265.115, 186.406 268.819 C 187.546 271.023, 187.878 281.107, 188.156 322.019 C 188.465 367.388, 188.326 373.110, 186.782 378.520 C 185.194 384.085, 185.179 385.407, 186.583 396.020 C 187.418 402.334, 188.416 409.975, 188.801 413 C 189.452 418.126, 188.027 443.030, 186.219 458.099 C 184.716 470.631, 180.709 473.673, 153.839 482.688 C 146.512 485.146, 146.136 485.423, 145.219 489.035 C 144.284 492.718, 144.333 492.822, 147.206 493.243 C 148.825 493.481, 157.879 493.348, 167.325 492.948 C 176.771 492.547, 184.950 492.508, 185.500 492.860 C 186.452 493.469, 228.265 495.101, 242 495.065 C 247.703 495.050, 260.243 493.846, 271 492.280 C 272.925 492, 280.913 491.802, 288.750 491.840 C 302.801 491.909, 303 491.879, 302.982 489.705 C 302.957 486.627, 296.037 481.154, 290.790 480.061 C 285.333 478.925, 272.020 474.261, 270.403 472.920 C 267.568 470.567, 265.104 463.059, 264.649 455.385 C 264.392 451.048, 263.633 445.041, 262.962 442.035 C 261.999 437.720, 262.003 434.816, 262.982 428.236 C 263.802 422.726, 264.009 414.921, 263.594 405.201 C 263.249 397.115, 262.731 373.440, 262.442 352.588 C 262.154 331.736, 261.761 314.411, 261.569 314.088 C 261.378 313.765, 260.930 297.525, 260.574 278 C 259.489 218.494, 255.320 173.428, 249.920 162.844 C 248.790 160.627, 248.266 158.404, 248.712 157.716 C 249.145 157.047, 249.500 150.425, 249.500 143 L 249.500 129.500 254.233 129.741 C 258.312 129.948, 259.191 129.637, 260.598 127.491 C 261.496 126.121, 262.895 125, 263.707 125 C 264.520 125, 266.372 124.066, 267.822 122.925 C 270.452 120.857, 270.465 120.856, 271.980 122.841 C 272.816 123.936, 274.563 126.220, 275.863 127.916 C 277.479 130.027, 279.084 131, 280.946 131 C 282.442 131, 286.287 131.526, 289.489 132.169 C 295.225 133.321, 295.347 133.298, 297.656 130.614 C 298.945 129.115, 300 127.506, 300 127.038 C 300 126.570, 297.688 125.870, 294.862 125.481 C 291.047 124.956, 288.801 123.928, 286.139 121.488 L 282.553 118.202 284.053 112.443 C 284.971 108.918, 286.303 106.261, 287.488 105.592 C 288.553 104.992, 291.120 103.487, 293.192 102.250 C 297.639 99.595, 303.097 99.354, 306.970 101.641 C 308.498 102.544, 311.236 105.737, 313.054 108.736 C 317.112 115.432, 319.622 117.160, 325.416 117.247 C 329.176 117.304, 330.651 116.707, 334.455 113.591 C 338.382 110.373, 339 109.355, 339 106.107 C 339 103.344, 339.690 101.707, 341.606 99.924 C 343.040 98.591, 345.536 95.588, 347.153 93.251 C 351.607 86.817, 359.058 83.847, 357.698 89.048 C 357.146 91.158, 358.897 92.101, 361.904 91.315 C 363.151 90.989, 364 89.956, 364 88.767 C 364 87.159, 364.441 86.899, 366.250 87.442 C 374.387 89.886, 382.601 91.106, 384.200 90.107 C 385.146 89.516, 386.619 89.300, 387.473 89.628 C 388.327 89.956, 389.638 89.716, 390.386 89.095 C 391.134 88.474, 392.484 88.249, 393.386 88.595 C 394.288 88.941, 395.582 88.785, 396.263 88.250 C 398.757 86.286, 402.828 86.063, 407.444 87.636 C 410.926 88.822, 412.451 88.949, 413.279 88.121 C 413.896 87.504, 415.238 87, 416.263 87 C 417.453 87, 418.047 86.368, 417.909 85.250 C 417.790 84.287, 418.037 82.707, 418.458 81.737 C 419.495 79.350, 417.434 77.074, 414.849 77.750 C 413.046 78.221, 412.869 77.977, 413.510 75.896 C 414.516 72.632, 414.511 72.634, 417.839 73.794 C 419.885 74.507, 421.106 74.494, 421.848 73.752 C 422.604 72.996, 423.364 73.058, 424.458 73.965 C 425.779 75.061, 426 74.879, 426 72.690 C 426 70.996, 425.312 69.916, 423.959 69.487 C 422.759 69.106, 421.681 67.657, 421.344 65.971 C 421.029 64.393, 419.906 62.320, 418.849 61.363 C 417.257 59.922, 416.377 59.809, 413.714 60.702 C 411.946 61.294, 405.970 61.716, 400.434 61.640 C 390.710 61.505, 390.277 61.402, 387.703 58.624 C 386.237 57.042, 385.255 55.397, 385.520 54.968 C 385.785 54.539, 388.364 53.870, 391.251 53.482 C 394.138 53.094, 397.175 52.409, 397.999 51.959 C 398.906 51.464, 400.092 51.662, 400.999 52.460 C 402.016 53.353, 403.233 53.499, 404.773 52.913 C 406.749 52.161, 406.884 51.788, 405.809 50.066 C 405.128 48.976, 403.093 47.288, 401.286 46.315 C 399.479 45.341, 398 43.774, 398 42.832 C 398 40.442, 396.616 39.823, 391.198 39.786 C 388.320 39.767, 384.617 38.828, 381.639 37.363 C 377.686 35.418, 375.069 34.945, 367.639 34.831 C 362.612 34.755, 357.455 35.027, 356.178 35.436 C 354.595 35.944, 353.283 35.661, 352.052 34.547 C 349.074 31.852, 343.573 31.463, 340.322 33.718 C 336.203 36.575, 328.196 38.596, 326.745 37.145 C 326.115 36.515, 324.973 36, 324.208 36 C 323.442 36, 321.671 35.100, 320.273 34 C 318.874 32.900, 316.891 32, 315.865 32 C 314.559 32, 314 31.275, 314 29.583 C 314 28.119, 312.951 26.403, 311.338 25.227 C 307.616 22.517, 308.740 20.430, 313.884 20.498 C 318.420 20.559, 319.375 18.876, 316 16.768 C 314.900 16.081, 314 14.980, 314 14.321 C 314 13.662, 312.745 11.749, 311.210 10.069 C 308.914 7.555, 307.720 7.045, 304.460 7.188 C 301.051 7.338, 289.672 6.128, 279.500 4.534 C 277.850 4.275, 275.684 4.538, 274.686 5.117 M 180.328 56.804 C 173.790 57.280, 173.312 59.002, 178.514 63.349 C 182.843 66.968, 183.033 67.025, 185.482 65.420 C 187.323 64.214, 188 62.891, 188 60.502 C 188 56.817, 186.969 56.320, 180.328 56.804 M 269.537 58.606 C 268.289 59.854, 268.191 60.526, 269.099 61.619 C 269.741 62.393, 270.771 62.911, 271.387 62.769 C 272.003 62.628, 274.160 63.487, 276.180 64.679 C 279.094 66.398, 279.736 67.294, 279.286 69.013 C 278.858 70.653, 278.146 71.070, 276.360 70.728 C 274.304 70.335, 273.987 70.678, 273.900 73.389 C 273.845 75.100, 273.497 77.588, 273.125 78.917 L 272.449 81.334 270.701 78.667 C 268.570 75.414, 267.766 75.334, 266.487 78.250 C 265.674 80.104, 264.708 80.500, 261 80.500 C 258.525 80.500, 256.050 79.988, 255.500 79.361 C 254.950 78.735, 252.819 77.929, 250.765 77.569 C 247.653 77.024, 247.129 77.172, 247.622 78.458 C 248.331 80.306, 247.886 80.361, 244.547 78.839 C 243.146 78.201, 242 76.851, 242 75.839 C 242 74.410, 241.233 74, 238.559 74 C 236.666 74, 234.840 74.450, 234.500 75 C 234.160 75.550, 232.799 76, 231.476 76 C 228.614 76, 226.604 79.177, 227.560 82.190 C 227.930 83.353, 228.208 86.025, 228.179 88.128 C 228.135 91.318, 228.571 92.164, 230.813 93.235 C 232.291 93.941, 233.639 95.489, 233.808 96.675 C 234.190 99.341, 236.508 100.334, 239.105 98.944 C 240.498 98.198, 242.003 98.233, 244.302 99.064 C 247.038 100.054, 249.126 99.834, 257.823 97.641 C 263.479 96.215, 272.246 93.712, 277.304 92.079 C 282.362 90.446, 289.875 88.629, 294 88.040 C 301.642 86.950, 301.657 86.940, 307.025 80.292 C 307.561 79.628, 308 78.654, 308 78.128 C 308 77.602, 309.788 75.220, 311.973 72.836 C 314.159 70.451, 315.959 68.022, 315.973 67.438 C 316.008 66.062, 310.517 62, 308.622 62 C 305.272 62, 304.082 63.161, 304.629 65.896 C 305.286 69.182, 303.026 71.460, 300.048 70.515 C 297.296 69.642, 297.457 68.687, 301.049 64.596 L 304.099 61.123 301.842 59.915 C 300.601 59.251, 294.616 58.349, 288.542 57.911 C 272.707 56.770, 271.322 56.821, 269.537 58.606 M 143.527 63.187 C 144.488 67.647, 146.193 70.820, 150.458 76.082 C 152.427 78.512, 155.405 82.188, 157.076 84.250 C 158.746 86.313, 160.425 87.997, 160.806 87.994 C 161.188 87.991, 163.637 85.965, 166.250 83.491 C 170.352 79.606, 171 78.455, 171 75.052 C 171 69.454, 167.862 66.164, 161.500 65.093 C 158.750 64.630, 155.150 63.569, 153.500 62.735 C 151.850 61.902, 148.771 60.917, 146.657 60.547 L 142.814 59.874 143.527 63.187 M 103.713 63.011 C 102.322 64.105, 100.270 65, 99.151 65 C 98.033 65, 96.840 65.450, 96.500 66 C 96.160 66.550, 96.396 67, 97.024 67 C 97.653 67, 97.965 67.563, 97.718 68.250 C 97.472 68.938, 97.695 70.325, 98.215 71.333 C 98.907 72.677, 98.671 73.706, 97.332 75.185 C 95.544 77.162, 95.558 77.197, 98.003 76.852 C 99.686 76.615, 100.966 75.440, 101.930 73.250 C 103.506 69.670, 105 68.980, 105 71.833 C 105 74.146, 105.962 75.141, 107.362 74.277 C 107.957 73.908, 110.142 73.730, 112.218 73.880 C 115.472 74.115, 116.126 73.798, 116.971 71.576 C 118.066 68.695, 118.658 68.539, 122.685 70.070 C 124.233 70.659, 125.500 71.033, 125.500 70.901 C 125.500 70.770, 126.513 71.204, 127.750 71.866 C 130.318 73.241, 130.646 75.219, 128.589 76.926 C 127.608 77.740, 126.978 77.773, 126.520 77.032 C 125.559 75.478, 124.258 76.622, 122.527 80.542 C 118.639 89.347, 118.112 90.668, 117.480 93.206 C 116.774 96.039, 116.707 95.996, 124.153 97.441 C 125.062 97.618, 128.887 97.430, 132.653 97.023 C 136.495 96.609, 142.262 96.729, 145.795 97.298 C 154.135 98.640, 155.475 97.444, 151.149 92.517 C 149.417 90.544, 147.986 88.159, 147.968 87.215 C 147.922 84.743, 145.750 82.235, 142.622 81.046 C 140.179 80.118, 139.972 79.666, 140.558 76.544 C 141.406 72.022, 137.969 66, 134.541 66 C 133.278 66, 131.733 65.383, 131.106 64.628 C 129.487 62.677, 121.144 61.516, 113.750 62.212 C 112.513 62.328, 110.317 62.108, 108.871 61.723 C 106.979 61.219, 105.532 61.580, 103.713 63.011 M 108 71 C 108 71.550, 108.477 72, 109.059 72 C 109.641 72, 109.840 71.550, 109.500 71 C 109.160 70.450, 108.684 70, 108.441 70 C 108.198 70, 108 70.450, 108 71 M 206.500 80.230 C 205.400 80.876, 201.902 81.716, 198.728 82.096 C 194.392 82.615, 191.592 83.726, 187.478 86.560 C 184.465 88.635, 182 90.668, 182 91.077 C 182 93.943, 196.627 102, 201.829 102 C 205.286 102, 209.738 99.984, 210.664 98 C 211.626 95.939, 212.660 79.997, 211.832 79.999 C 211.464 79.999, 210.564 79.787, 209.832 79.527 C 209.099 79.267, 207.600 79.583, 206.500 80.230" fill="none" stroke="#000" stroke-width="2px" fill-rule="evenodd"/>
</svg>
