<svg xmlns="http://www.w3.org/2000/svg" width="255" height="298" viewBox="0 0 255 298" version="1.1">
	<path d="M 106 4.982 C 106 5.542, 106.563 6.026, 107.250 6.058 C 107.938 6.089, 106.234 7.146, 103.464 8.407 C 100.694 9.667, 97.646 11.891, 96.691 13.349 C 95.736 14.807, 94.289 16, 93.477 16 C 92.665 16, 92 16.450, 92 17 C 92 17.550, 90.452 18, 88.559 18 C 86.666 18, 84.839 18.451, 84.499 19.002 C 84.148 19.569, 82.234 19.741, 80.090 19.398 C 77.543 18.991, 75.285 19.318, 73.201 20.396 C 71.495 21.278, 69.163 22, 68.018 22 C 66.874 22, 65.668 22.703, 65.338 23.562 C 64.968 24.526, 63.737 25.033, 62.119 24.887 C 60.679 24.757, 58.009 24.997, 56.187 25.419 C 53.316 26.084, 53.091 26.346, 54.504 27.379 C 55.822 28.343, 54.830 28.560, 49.317 28.513 C 42.584 28.455, 38 29.528, 38 31.161 C 38 31.622, 38.765 32, 39.700 32 C 41.022 32, 41.133 32.267, 40.200 33.200 C 37.895 35.505, 39.031 35.971, 43.041 34.367 C 45.264 33.477, 47.338 33.005, 47.650 33.316 C 47.961 33.628, 46.560 34.575, 44.536 35.420 C 42.512 36.266, 41.141 37.418, 41.488 37.981 C 41.836 38.543, 40.856 39.516, 39.310 40.142 L 36.500 41.281 39 41.950 C 41.399 42.593, 41.363 42.648, 38.125 43.310 C 36.269 43.690, 33.258 44, 31.434 44 C 29.610 44, 27.821 44.481, 27.458 45.068 C 27.095 45.656, 26.168 45.895, 25.399 45.600 C 24.592 45.290, 24 45.684, 24 46.531 C 24 47.339, 23.212 48.007, 22.250 48.015 C 20.754 48.028, 20.718 48.172, 22 49.001 C 22.825 49.534, 25.750 49.737, 28.500 49.452 L 33.500 48.934 28.247 51.038 C 25.358 52.195, 22.549 53.973, 22.006 54.990 C 21.462 56.006, 19.775 57.125, 18.258 57.476 C 15.359 58.148, 8.963 65.969, 11.260 66.036 C 11.942 66.056, 11.168 67.161, 9.539 68.492 C 5.047 72.163, 6.991 72.388, 13.444 68.944 C 19.872 65.515, 21.205 65.519, 17.544 68.958 L 15.097 71.258 17.280 73.026 L 19.464 74.794 15.656 77.041 C 13.124 78.534, 12.254 79.539, 13.059 80.037 C 14.368 80.846, 9.831 85.594, 4.750 88.733 C 1.078 91.001, 1.266 92.071, 5.142 90.959 C 6.871 90.463, 8.693 90.310, 9.191 90.618 C 10.383 91.355, 8.163 94, 6.353 94 C 5.582 94, 4.512 95.154, 3.975 96.565 C 2.695 99.932, 2.682 99.896, 5.022 99.284 C 6.837 98.809, 6.942 99.023, 6.047 101.378 C 5.250 103.473, 5.346 104, 6.525 104 C 8.479 104, 8.405 106.895, 6.394 109.117 C 4.898 110.770, 4.950 110.883, 7.144 110.771 C 8.440 110.705, 10.290 109.982, 11.256 109.165 C 14.313 106.578, 14.089 108.481, 10.796 113.070 C 8.154 116.753, 8.030 117.140, 10.059 115.365 C 11.402 114.191, 13.625 112.893, 15 112.482 C 17.423 111.757, 17.446 111.795, 15.750 113.696 C 13.610 116.095, 13.434 117.715, 15.500 116 C 17.308 114.500, 17.520 116.076, 15.750 117.859 C 14.747 118.869, 14.880 118.974, 16.424 118.386 C 17.860 117.838, 18.201 118.013, 17.770 119.076 C 17.452 119.859, 16.881 121.400, 16.502 122.500 C 15.925 124.171, 16.006 124.253, 16.992 123 C 17.970 121.758, 18.083 121.907, 17.650 123.864 L 17.127 126.229 19.776 123.864 L 22.424 121.500 19.712 125.183 C 16.172 129.991, 16.257 131.086, 19.900 127.595 L 22.801 124.817 23.480 127.908 C 24.245 131.394, 25.604 131.824, 27.714 129.250 C 29.059 127.609, 29.120 127.624, 28.688 129.500 C 28.434 130.600, 27.875 132.400, 27.444 133.500 L 26.661 135.500 28.960 133.500 C 31.194 131.557, 31.183 131.652, 28.562 136.849 C 27.079 139.792, 26.102 142.435, 26.390 142.723 C 26.678 143.012, 27.703 141.594, 28.666 139.573 C 30.368 136.004, 30.445 135.965, 31.362 138.200 C 32.134 140.085, 32.379 140.194, 32.715 138.805 C 32.941 137.873, 33.706 137.334, 34.415 137.606 C 35.124 137.878, 36.456 136.953, 37.375 135.550 C 39.550 132.231, 40.991 132.310, 41.035 135.750 C 41.070 138.470, 41.085 138.475, 42.307 136.275 C 43.449 134.221, 43.750 134.158, 46.245 135.452 C 48.772 136.763, 49.151 136.661, 52.140 133.869 L 55.334 130.886 57.528 133.637 C 59.709 136.372, 59.728 136.376, 60.857 134.267 C 61.482 133.100, 61.721 131.437, 61.389 130.572 C 61.058 129.708, 61.284 129, 61.893 129 C 62.502 129, 63.004 129.338, 63.008 129.750 C 63.012 130.162, 64.144 131.023, 65.523 131.663 C 67.523 132.591, 68.317 132.540, 69.444 131.413 C 70.989 129.868, 73 129.526, 73 130.809 C 73 131.254, 73.600 132.438, 74.333 133.441 C 75.597 135.169, 75.803 135.175, 78.262 133.564 C 80.764 131.925, 80.899 131.943, 82.036 134.067 C 82.684 135.279, 83.504 135.872, 83.857 135.385 C 84.211 134.898, 85.400 134.020, 86.500 133.434 C 87.600 132.848, 89.175 130.945, 90 129.206 C 91.438 126.175, 93.763 124.568, 92.699 127.342 C 92.247 128.519, 96.169 136.988, 99.747 142.558 C 100.951 144.433, 101.081 144.403, 103.497 141.694 C 105.257 139.722, 106 137.735, 106 135.003 C 106 132.866, 106.480 130.821, 107.067 130.459 C 107.654 130.096, 108.050 130.407, 107.948 131.150 C 107.846 131.892, 107.816 133.357, 107.882 134.405 C 107.998 136.278, 108.035 136.278, 110.104 134.405 C 112.544 132.196, 118 131.699, 118 133.686 C 118 134.409, 117.559 135, 117.020 135 C 115.462 135, 112.052 142.466, 112.948 143.916 C 113.564 144.912, 114.231 144.947, 115.873 144.068 C 117.043 143.442, 118.030 143.058, 118.067 143.215 C 118.290 144.175, 119.394 257.932, 119.333 273.763 L 119.258 293.027 121.557 293.604 C 122.821 293.921, 124.852 293.864, 126.070 293.478 L 128.283 292.775 127.585 268.138 C 127.201 254.587, 126.614 238.550, 126.280 232.500 C 125.946 226.450, 125.634 204.532, 125.587 183.793 C 125.503 147.278, 125.563 146.040, 127.486 144.634 C 128.863 143.627, 130.012 143.471, 131.236 144.126 C 132.360 144.728, 133.682 144.705, 134.881 144.064 C 136.480 143.208, 136.846 143.481, 137.328 145.889 C 137.911 148.805, 142.490 155, 144.063 155 C 145.344 155, 148 149.491, 148 146.835 C 148 144.755, 148.130 144.702, 149.609 146.180 C 151.087 147.658, 151.446 147.534, 154.042 144.644 C 156.146 142.302, 157.158 141.788, 158.010 142.627 C 158.866 143.471, 158.483 144.426, 156.487 146.422 C 155.020 147.889, 154.059 149.712, 154.351 150.473 C 154.644 151.235, 155.184 153.465, 155.553 155.429 C 155.921 157.393, 156.544 159, 156.937 159 C 158.872 159, 164.231 151.129, 163.923 148.739 C 163.567 145.979, 164.100 145.132, 166.096 145.282 C 168.072 145.431, 171.097 148.378, 173.623 152.616 C 174.722 154.460, 174.791 154.459, 176.873 152.595 C 178.043 151.547, 179 149.874, 179 148.876 C 179 147.680, 179.507 147.257, 180.492 147.635 C 181.343 147.962, 182.247 147.519, 182.599 146.604 C 182.937 145.722, 183.841 145, 184.607 145 C 185.373 145, 186 144.480, 186 143.845 C 186 143.202, 186.913 143.516, 188.062 144.556 C 189.309 145.685, 189.925 147.179, 189.621 148.341 C 189.216 149.890, 189.685 149.718, 192.060 147.443 C 193.677 145.893, 195 144.968, 195 145.385 C 195 145.803, 196.186 145.212, 197.635 144.073 C 199.084 142.933, 200.722 142, 201.275 142 C 201.827 142, 202.884 141.212, 203.622 140.250 C 204.809 138.702, 204.897 138.865, 204.376 141.657 C 203.873 144.356, 204.202 145.079, 206.644 146.634 C 208.215 147.635, 209.781 148.850, 210.125 149.334 C 210.469 149.818, 211.135 149.603, 211.607 148.857 C 212.861 146.870, 212.966 141.695, 211.780 140.250 C 211.078 139.394, 211.083 139, 211.794 139 C 212.366 139, 213.044 139.562, 213.302 140.250 C 213.630 141.125, 214.211 140.928, 215.236 139.594 C 216.241 138.287, 217.414 137.875, 218.972 138.282 C 221.149 138.852, 221.223 138.673, 220.768 133.938 C 220.507 131.222, 220.420 129, 220.574 129 C 220.728 129, 222.013 131.449, 223.429 134.442 C 224.845 137.435, 226.453 140.162, 227.002 140.501 C 228.384 141.355, 228.282 140.788, 226.015 135.037 C 224.252 130.566, 224.210 130, 225.637 130 C 226.869 130, 226.984 129.686, 226.131 128.658 C 224.639 126.861, 225.938 125.704, 227.755 127.212 C 228.932 128.188, 229.142 128.049, 228.906 126.453 C 228.486 123.619, 229.977 119.827, 231.335 120.273 C 231.976 120.483, 233.341 122.976, 234.370 125.813 C 236.762 132.411, 238.347 131.471, 237.791 123.785 C 237.364 117.881, 237.376 117.847, 239.158 120.163 C 240.323 121.678, 240.963 121.993, 240.978 121.059 C 240.994 120.011, 241.424 120.148, 242.555 121.559 C 244.057 123.434, 244.074 123.426, 243.055 121.316 C 242.475 120.114, 242.014 118.089, 242.030 116.816 C 242.057 114.761, 242.176 114.698, 243.080 116.250 C 243.641 117.213, 244.558 118, 245.118 118 C 245.678 118, 245.219 116.712, 244.098 115.137 C 241.142 110.987, 242.804 110.419, 246.746 114.232 C 249.038 116.451, 249.888 116.885, 249.391 115.586 C 248.881 114.250, 249.013 113.890, 249.830 114.395 C 252.633 116.128, 250.646 112.853, 247 109.732 C 242.115 105.550, 241.612 103.231, 246.093 105.548 C 250.628 107.893, 250.640 106.757, 246.128 102.013 C 241.191 96.824, 241.460 94.330, 246.719 96.527 C 251.595 98.564, 251.775 98.418, 248.547 95.049 C 246.991 93.425, 244.545 91.825, 243.109 91.492 C 239.190 90.582, 233.814 85.648, 234.577 83.660 C 234.925 82.753, 235.612 82.260, 236.105 82.565 C 237.245 83.269, 237.231 82.737, 236.025 79.565 C 235.077 77.074, 236.195 75.888, 237.500 78 C 237.840 78.550, 238.562 79, 239.106 79 C 240.699 79, 236.680 74.189, 234.620 73.630 C 233.334 73.281, 232.946 72.582, 233.393 71.419 C 233.752 70.483, 233.324 68.618, 232.443 67.272 C 230.416 64.179, 231.354 63.105, 233.994 65.494 C 235.097 66.493, 236 66.817, 236 66.214 C 236 65.611, 235.550 64.840, 235 64.500 C 234.450 64.160, 234 63.019, 234 61.964 C 234 60.909, 232.861 59.300, 231.469 58.388 C 228.509 56.448, 228.860 55.320, 231.914 56.954 C 234.458 58.316, 234.602 57.340, 232.250 54.672 C 230.561 52.755, 230.578 52.706, 232.750 53.249 C 235.861 54.028, 235.586 53.184, 231.297 48.792 C 229.132 46.575, 228.186 45, 229.020 45 C 231.045 45, 226.994 42.288, 223.755 41.475 C 222.205 41.086, 220.943 39.910, 220.598 38.533 C 220.281 37.271, 219.229 35.953, 218.261 35.604 C 215.740 34.694, 211.830 32.320, 212.121 31.876 C 212.257 31.669, 211.191 30.230, 209.753 28.678 C 207.413 26.153, 206.684 25.924, 202.819 26.497 C 197.904 27.226, 192.215 25.720, 195.250 24.493 C 197.246 23.687, 197.642 21.806, 195.750 22.119 C 193.430 22.503, 189 20.793, 189 19.513 C 189 17.702, 184.040 15.889, 178.896 15.819 C 176.478 15.786, 173.612 15.139, 172.527 14.380 C 170.344 12.852, 162 12.475, 162 13.904 C 162 14.973, 151.774 11.253, 150.922 9.874 C 150.600 9.353, 148.574 8.966, 146.418 9.013 C 131.658 9.339, 124.838 8.900, 125.843 7.690 C 126.416 6.998, 126.574 5.970, 126.193 5.405 C 125.305 4.089, 120.710 4.066, 119.826 5.374 C 119.382 6.032, 118.701 6.014, 117.826 5.322 C 116.083 3.944, 106 3.653, 106 4.982 M 120.750 7.662 C 121.438 7.940, 122.563 7.940, 123.250 7.662 C 123.938 7.385, 123.375 7.158, 122 7.158 C 120.625 7.158, 120.063 7.385, 120.750 7.662 M 107 10 C 107 10.550, 107.423 11, 107.941 11 C 108.459 11, 109.160 10.550, 109.500 10 C 109.840 9.450, 109.416 9, 108.559 9 C 107.702 9, 107 9.450, 107 10 M 103 11 C 101.718 11.828, 101.754 11.972, 103.250 11.985 C 104.213 11.993, 105 11.550, 105 11 C 105 9.780, 104.887 9.780, 103 11 M 18.500 64 C 18.160 64.550, 18.332 65, 18.882 65 C 19.432 65, 20.160 64.550, 20.500 64 C 20.840 63.450, 20.668 63, 20.118 63 C 19.568 63, 18.840 63.450, 18.500 64 M 11.459 92.067 C 10.383 93.808, 11.608 94.177, 12.980 92.524 C 13.769 91.574, 13.845 91, 13.181 91 C 12.597 91, 11.821 91.480, 11.459 92.067 M 216.153 128.436 C 216.795 129.846, 217.715 131, 218.196 131 C 219.219 131, 217.455 127.399, 215.987 126.492 C 215.415 126.138, 215.486 126.972, 216.153 128.436 M 112 129.441 C 112 130.298, 112.450 131, 113 131 C 113.550 131, 114 130.577, 114 130.059 C 114 129.541, 113.550 128.840, 113 128.500 C 112.450 128.160, 112 128.584, 112 129.441 M 134 136.559 C 134 137.416, 134.450 137.840, 135 137.500 C 135.550 137.160, 136 136.459, 136 135.941 C 136 135.423, 135.550 135, 135 135 C 134.450 135, 134 135.702, 134 136.559 M 127 138 C 127 139.867, 127.267 140.133, 128.200 139.200 C 129.133 138.267, 129.133 137.733, 128.200 136.800 C 127.267 135.867, 127 136.133, 127 138" fill="none" stroke="#000" stroke-width="2px" fill-rule="evenodd"/>
</svg>
