<svg xmlns="http://www.w3.org/2000/svg" width="272" height="290" viewBox="0 0 272 290" version="1.1">
	<path d="M 138 3.645 C 138 4.170, 138.538 5.138, 139.196 5.796 C 140.125 6.725, 140.045 7.273, 138.843 8.246 C 135.735 10.760, 134.101 14.253, 134.679 17.145 C 135.233 19.913, 135.147 19.982, 131.875 19.416 C 129.999 19.091, 128.976 19.202, 129.573 19.666 C 131.551 21.204, 131.671 23.486, 129.864 25.214 C 127.879 27.113, 126.136 25.746, 127.874 23.652 C 128.635 22.735, 128.263 21.684, 126.503 19.787 C 124.572 17.704, 124.379 17.068, 125.543 16.622 C 126.344 16.314, 127 15.374, 127 14.531 C 127 13.689, 127.787 12.986, 128.750 12.968 C 130.317 12.940, 130.291 12.769, 128.500 11.334 C 127.043 10.166, 126.950 9.885, 128.156 10.298 C 129.108 10.624, 130.556 10.043, 131.561 8.933 C 133.154 7.172, 133.163 7, 131.655 7 C 130.745 7, 130 6.534, 130 5.965 C 130 5.303, 129.369 5.254, 128.250 5.830 C 127.287 6.325, 125.930 6.525, 125.232 6.276 C 123.673 5.717, 120.056 9.982, 120.689 11.632 C 121.019 12.493, 120.003 12.676, 117.074 12.283 C 112.342 11.648, 111.993 12.402, 115.589 15.492 C 117.748 17.347, 117.914 17.819, 116.589 18.327 C 114.746 19.035, 114.384 24.128, 116.205 23.750 C 116.867 23.612, 117.430 24.079, 117.455 24.786 C 117.480 25.494, 118.102 26.445, 118.839 26.900 C 119.830 27.513, 119.275 28.285, 116.701 29.876 C 114.789 31.057, 112.615 32.759, 111.870 33.656 C 110.666 35.107, 110.775 35.206, 112.857 34.546 L 115.197 33.803 113.099 35.901 C 111.944 37.056, 111 38.408, 111 38.906 C 111 39.404, 109.909 39.297, 108.575 38.668 C 106.754 37.808, 106.416 37.204, 107.218 36.237 C 109.167 33.889, 107.155 33.741, 103.553 35.967 C 100.093 38.106, 98.922 40, 101.059 40 C 101.641 40, 101.843 40.445, 101.506 40.990 C 101.149 41.567, 100.005 41.151, 98.759 39.990 C 96.788 38.154, 95.527 37.620, 94.654 38.250 C 94.463 38.388, 93.563 37.882, 92.654 37.128 C 91.204 35.924, 91 36.017, 91 37.878 C 91 39.098, 90.362 40, 89.500 40 C 87.051 40, 87.795 43.586, 90.500 44.818 C 93.905 46.369, 93.648 48, 90 48 C 87.943 48, 87 48.493, 87 49.567 C 87 50.643, 86.414 50.949, 85.130 50.541 C 83.654 50.073, 83.133 50.585, 82.655 52.974 C 81.864 56.931, 80.109 56.881, 80.222 52.905 C 80.270 51.202, 79.826 49.511, 79.235 49.145 C 78.644 48.780, 78.012 47.828, 77.830 47.030 C 77.649 46.231, 76.713 44.688, 75.750 43.600 C 74.010 41.634, 73.989 41.635, 72 43.770 C 70.900 44.950, 70 46.385, 70 46.958 C 70 48.249, 67.996 48.283, 66.008 47.026 C 64.820 46.275, 64.770 45.830, 65.758 44.842 C 67.430 43.170, 67.324 42, 65.500 42 C 63.607 42, 63.603 41.012, 65.486 38.324 C 66.816 36.425, 66.798 36.137, 65.316 35.568 C 64.405 35.218, 63.286 35.510, 62.830 36.216 C 62.158 37.255, 61.836 37.246, 61.142 36.171 C 60.518 35.204, 59.691 35.980, 58.105 39.023 C 56.299 42.488, 56.146 43.471, 57.210 44.753 C 58.351 46.128, 57.934 46.230, 53.497 45.666 C 49.461 45.153, 48.921 45.244, 50.692 46.142 C 53.571 47.602, 54.373 49.902, 52.699 51.895 C 50.885 54.052, 50.802 57.710, 52.551 58.381 C 53.340 58.684, 53.705 59.605, 53.376 60.462 C 52.474 62.813, 60.544 62.612, 61.920 60.250 C 62.857 58.641, 62.943 58.661, 62.985 60.500 C 63.023 62.165, 63.195 62.249, 64.015 61 C 64.866 59.705, 65.126 59.696, 65.924 60.936 C 66.695 62.135, 67.111 62.153, 68.447 61.044 C 69.806 59.916, 69.956 59.952, 69.446 61.279 C 69.026 62.375, 69.542 62.948, 71.174 63.199 C 73.401 63.542, 73.367 63.629, 70.377 65.239 C 68.659 66.164, 66.982 66.649, 66.650 66.317 C 66.319 65.985, 65.759 66.465, 65.407 67.382 C 64.910 68.677, 64.457 68.794, 63.383 67.903 C 62.622 67.272, 62 66.098, 62 65.294 C 62 62.632, 59.598 64.582, 59.450 67.366 C 59.271 70.707, 58.622 71.301, 53.332 72.959 C 50.525 73.839, 49.336 74.712, 49.689 75.633 C 49.978 76.385, 49.743 77, 49.167 77 C 48.591 77, 48.205 78.024, 48.310 79.276 C 48.655 83.410, 55.367 88.653, 58.885 87.536 C 60.350 87.072, 60.711 87.541, 60.781 89.999 C 60.871 93.156, 60.235 93.186, 56.750 90.193 C 55.788 89.366, 55.008 89.097, 55.017 89.595 C 55.027 90.093, 56.489 91.522, 58.267 92.771 C 61.416 94.982, 61.441 95.057, 59.227 95.643 C 57.157 96.191, 57.105 96.356, 58.639 97.478 C 60.948 99.166, 59.672 102, 56.603 102 C 55.250 102, 53.548 102.562, 52.821 103.250 C 50.716 105.242, 48 105.313, 48 103.377 C 48 102.436, 47.729 101.938, 47.397 102.269 C 47.066 102.601, 45.716 102.462, 44.397 101.961 C 42.917 101.398, 42 101.411, 42 101.993 C 42 102.512, 41.325 102.678, 40.500 102.362 C 39.468 101.965, 39 102.424, 39 103.834 C 39 104.960, 39.408 106.134, 39.906 106.442 C 41.270 107.285, 39.980 110.996, 37.863 112.317 C 36.838 112.957, 36 114.241, 36 115.171 C 36 116.601, 36.498 116.717, 39.243 115.930 C 43.456 114.722, 44.268 114.757, 43.431 116.112 C 43.053 116.723, 43.267 117.547, 43.906 117.942 C 45.134 118.701, 44.366 122, 42.960 122 C 42.506 122, 41.885 121.212, 41.579 120.250 C 40.822 117.863, 35 117.789, 35 120.167 C 35 121.083, 34.473 122.009, 33.829 122.224 C 33.184 122.439, 32.585 123.601, 32.496 124.807 C 32.296 127.515, 35.419 127.828, 36.920 125.250 C 37.813 123.717, 37.953 123.810, 38.049 126 C 38.109 127.375, 38.385 127.938, 38.662 127.250 C 38.940 126.562, 39.593 126, 40.113 126 C 40.634 126, 40.059 127.353, 38.837 129.007 C 37.258 131.143, 36.924 132.324, 37.684 133.084 C 38.444 133.844, 39.369 133.291, 40.877 131.173 C 42.045 129.533, 43 127.777, 43 127.271 C 43 126.340, 49.921 126.075, 50.080 127 C 50.736 130.799, 50.447 132.041, 48.784 132.569 C 47.750 132.897, 46.308 132.670, 45.579 132.065 C 44.850 131.460, 43.556 131.233, 42.704 131.560 C 40.669 132.341, 39.630 135.153, 41.052 136.032 C 41.667 136.412, 42.132 137.011, 42.085 137.362 C 41.789 139.573, 42.188 140.142, 43.641 139.584 C 44.984 139.069, 45.063 139.219, 44.075 140.410 C 43.033 141.666, 42.576 141.576, 40.758 139.758 C 38.738 137.738, 38.622 137.728, 37.993 139.521 C 37.388 141.246, 37.291 141.220, 36.762 139.196 C 36.446 137.988, 35.748 137, 35.210 137 C 34.215 137, 32.695 140.641, 32.891 142.557 C 32.951 143.139, 31.649 143.521, 30 143.407 C 27.705 143.248, 27 143.621, 27 144.993 C 27 145.979, 26.296 147.056, 25.437 147.386 C 24.577 147.716, 24.153 148.439, 24.496 148.993 C 25.627 150.824, 23.344 150.038, 21.449 147.944 C 19.917 146.251, 19.801 145.548, 20.794 143.958 C 22.393 141.397, 22.315 140.942, 20.404 141.675 C 19.340 142.083, 17.647 140.988, 15.332 138.394 C 12.090 134.761, 11.768 134.621, 10.525 136.310 C 9.676 137.462, 8.952 137.732, 8.532 137.052 C 8.095 136.345, 7.346 136.511, 6.314 137.543 C 4.903 138.954, 4.933 139.235, 6.628 140.522 C 7.658 141.304, 9.126 141.721, 9.891 141.449 C 11.029 141.044, 11.052 141.232, 10.019 142.477 C 8.950 143.765, 9.121 144.024, 11.128 144.158 C 12.432 144.244, 14.093 144.289, 14.819 144.257 C 15.570 144.224, 15.898 144.824, 15.580 145.652 C 15.267 146.469, 15.458 146.835, 16.019 146.489 C 16.566 146.150, 17.283 146.574, 17.612 147.431 C 17.941 148.288, 18.547 148.780, 18.959 148.525 C 19.372 148.270, 20.753 149.173, 22.029 150.531 C 24.240 152.884, 26.732 153.994, 25.565 152.105 C 25.004 151.197, 27.928 149.595, 28.712 150.379 C 28.947 150.613, 28.549 151.749, 27.829 152.903 C 26.415 155.167, 22.141 155.741, 20.313 153.913 C 18.701 152.301, 17.525 154.723, 19.036 156.544 C 19.953 157.648, 19.960 158, 19.063 158 C 18.414 158, 18.207 158.526, 18.605 159.170 C 19.091 159.957, 18.783 160.131, 17.664 159.701 C 14.294 158.408, 15.922 162.757, 19.626 164.942 C 23.645 167.313, 25.061 166.929, 23.212 163.968 C 21.635 161.443, 21.667 160.479, 23.284 161.820 C 24.835 163.108, 27.549 161.698, 26.570 160.114 C 26.193 159.503, 26.585 158.003, 27.442 156.779 C 28.299 155.556, 29.041 154.768, 29.090 155.027 C 29.140 155.287, 29.376 158.260, 29.615 161.634 C 29.965 166.592, 29.743 167.885, 28.455 168.379 C 27.450 168.765, 27.077 169.668, 27.445 170.828 C 28.174 173.123, 24.206 175.254, 21.756 173.883 C 19.772 172.773, 15 174.735, 15 176.661 C 15 177.397, 15.505 178, 16.122 178 C 16.920 178, 16.900 178.415, 16.053 179.436 C 14.278 181.575, 16.540 185.627, 18.570 183.942 C 19.356 183.289, 20.007 182.023, 20.015 181.128 C 20.029 179.704, 20.164 179.688, 21.091 181 C 21.890 182.129, 22.278 182.191, 22.659 181.250 C 23.414 179.389, 24.799 179.739, 24.639 181.750 C 24.562 182.713, 23.262 184.281, 21.750 185.235 C 18.477 187.301, 18.259 188.630, 21.047 189.515 C 22.440 189.957, 24.200 189.322, 26.547 187.532 C 30.243 184.713, 30.920 183.710, 28.500 184.638 C 27.675 184.955, 27 184.716, 27 184.107 C 27 183.498, 27.477 183, 28.059 183 C 28.641 183, 28.793 182.474, 28.395 181.830 C 27.909 181.043, 28.217 180.869, 29.336 181.299 C 30.251 181.650, 31 181.501, 31 180.969 C 31 180.436, 31.450 180, 32 180 C 32.550 180, 33 180.675, 33 181.500 C 33 182.325, 33.675 183, 34.500 183 C 36.302 183, 36.434 184.166, 34.817 185.783 C 34.166 186.434, 33.861 187.194, 34.139 187.472 C 34.416 187.750, 36.049 186.603, 37.767 184.924 C 40.402 182.348, 41.211 182.042, 42.945 182.970 C 45.268 184.214, 45.494 185.106, 43.893 186.707 C 43.084 187.516, 43.152 187.771, 44.143 187.657 C 44.889 187.571, 45.607 187.950, 45.737 188.500 C 45.868 189.050, 45.042 189.511, 43.903 189.525 C 42.764 189.539, 41.390 190.439, 40.851 191.525 C 39.894 193.451, 39.910 193.451, 41.481 191.500 C 43.033 189.574, 43.086 189.629, 42.916 193 C 42.819 194.925, 43.071 197.287, 43.477 198.250 C 44.100 199.729, 43.656 200, 40.607 200 C 36.813 200, 35.965 198.561, 38.250 195.998 C 39.303 194.817, 39.240 194.792, 37.847 195.840 C 36.523 196.836, 36.081 196.826, 35.626 195.792 C 35.314 195.081, 35.158 195.370, 35.279 196.434 C 35.538 198.696, 32.733 199.751, 26.059 199.900 C 22.287 199.985, 21.865 200.188, 23.260 201.250 C 24.252 202.005, 25.137 204.636, 25.495 207.894 C 25.821 210.861, 26.709 214.175, 27.469 215.259 C 28.228 216.343, 28.580 217.931, 28.251 218.788 C 27.802 219.957, 28.092 220.179, 29.408 219.674 C 30.374 219.303, 31.577 219, 32.082 219 C 32.587 219, 33 218.325, 33 217.500 C 33 216.675, 33.408 216, 33.906 216 C 35.391 216, 33.899 219.957, 31.882 221.370 C 29.840 222.801, 30.363 224, 33.028 224 C 34.233 224, 34.611 224.650, 34.338 226.250 C 33.785 229.478, 35.328 231.348, 37.875 230.540 C 39.255 230.102, 40 229.033, 40 227.492 C 40 226.186, 40.489 224.816, 41.087 224.446 C 41.685 224.077, 41.952 222.925, 41.681 221.887 C 41.327 220.533, 41.717 220, 43.062 220 C 44.318 220, 44.747 220.495, 44.362 221.500 C 44.045 222.325, 44.284 223, 44.893 223 C 45.502 223, 46 223.436, 46 223.969 C 46 224.501, 45.371 224.696, 44.601 224.400 C 42.861 223.733, 41.748 225.445, 41.449 229.253 C 41.261 231.644, 41.551 232.089, 43.045 231.699 C 44.116 231.418, 45.118 231.864, 45.468 232.778 C 45.899 233.900, 46.369 234.031, 47.155 233.245 C 47.754 232.646, 48.864 232.394, 49.622 232.685 C 51.485 233.400, 51.368 231.511, 49.429 229.571 C 47.996 228.139, 48.272 227.569, 50.250 227.882 C 50.662 227.947, 51 227.325, 51 226.500 C 51 225.675, 51.702 225, 52.559 225 C 53.416 225, 53.865 225.409, 53.556 225.910 C 52.612 227.437, 54.076 229.908, 55.583 229.330 C 56.362 229.031, 57 229.284, 57 229.893 C 57 230.502, 57.702 231, 58.559 231 C 59.416 231, 59.871 231.399, 59.570 231.887 C 59.269 232.374, 59.692 233.329, 60.511 234.009 C 61.927 235.184, 62.467 234.663, 62.044 232.528 C 61.939 231.993, 62.673 232.248, 63.676 233.094 C 65.157 234.344, 68.903 234.740, 72.973 234.077 C 73.232 234.035, 72.445 233.299, 71.223 232.443 C 70 231.587, 69 230.237, 69 229.443 C 69 228.649, 68.373 228, 67.607 228 C 66.164 228, 65 225.927, 65 223.359 C 65 222.547, 65.470 222.172, 66.044 222.527 C 67.770 223.594, 69.870 221.057, 69.572 218.266 C 69.408 216.729, 68.464 215.346, 67.279 214.907 C 65.148 214.119, 63.567 209.106, 64.987 207.640 C 65.445 207.167, 69.573 207.051, 74.160 207.382 C 78.747 207.714, 85.200 207.981, 88.500 207.977 C 94.692 207.968, 95.528 208.262, 97.897 211.279 C 99.125 212.844, 99.004 213.374, 96.897 215.666 C 95.338 217.363, 94.917 218.424, 95.694 218.702 C 96.350 218.937, 96.648 219.754, 96.355 220.517 C 95.636 222.392, 96.868 224.200, 98.274 223.331 C 98.898 222.945, 100.747 222.482, 102.382 222.303 C 106.023 221.905, 106.578 221.419, 105.277 219.774 C 103.932 218.074, 103.074 213.073, 104.026 212.484 C 104.443 212.226, 105.371 214.005, 106.089 216.437 C 107.218 220.260, 107.642 220.727, 109.221 219.882 C 110.559 219.166, 111.478 219.336, 112.659 220.516 C 113.719 221.576, 114.609 221.791, 115.258 221.142 C 115.800 220.600, 116.864 220.394, 117.622 220.685 C 119.272 221.318, 119.405 219.626, 117.923 216.857 C 117.327 215.743, 116.226 215.083, 115.455 215.379 C 114.690 215.672, 113.798 215.482, 113.473 214.956 C 111.798 212.246, 117.495 214.725, 125.250 220.081 C 132.366 224.997, 134.028 226.627, 134.151 228.812 C 134.234 230.291, 134.424 232.850, 134.574 234.500 C 134.723 236.150, 134.823 242.225, 134.795 248 C 134.700 268.015, 135.088 287.333, 135.602 288.165 C 136.280 289.262, 148.109 289.217, 149.855 288.110 C 150.980 287.398, 150.941 286.839, 149.626 284.832 C 148.354 282.891, 147.953 278.418, 147.595 262.202 C 147.181 243.401, 147.277 241.922, 148.975 241.013 C 150.372 240.266, 150.957 240.443, 151.467 241.768 C 152.093 243.392, 152.198 243.387, 153.151 241.689 C 153.710 240.693, 153.941 239.290, 153.665 238.570 C 153.389 237.850, 153.987 235.905, 154.995 234.248 C 159.100 227.499, 181.518 218.708, 185.740 222.192 C 186.992 223.225, 187.414 223.237, 187.746 222.250 C 187.977 221.563, 188.804 221, 189.583 221 C 191.151 221, 191.576 225.526, 190.094 226.442 C 189.596 226.750, 189.428 227.922, 189.722 229.047 C 190.063 230.348, 189.574 231.609, 188.379 232.514 C 187.332 233.306, 187.044 233.950, 187.729 233.968 C 188.676 233.993, 188.696 234.573, 187.818 236.500 C 186.544 239.296, 185.475 239.680, 184.686 237.624 C 184.350 236.749, 183.217 236.427, 181.579 236.740 C 180.088 237.025, 179 236.775, 179 236.148 C 179 235.551, 178.338 235.317, 177.529 235.627 C 176.721 235.937, 174.901 235.281, 173.487 234.168 C 170.858 232.101, 165.295 231.862, 165.730 233.836 C 165.856 234.409, 165.164 235.130, 164.193 235.439 C 163.221 235.747, 162.357 236.909, 162.273 238.021 C 162.190 239.133, 162.544 239.782, 163.061 239.463 C 163.577 239.143, 164 239.584, 164 240.441 C 164 241.507, 164.950 242, 167 242 C 168.650 242, 170 242.420, 170 242.933 C 170 243.446, 170.892 244.148, 171.983 244.494 C 173.852 245.088, 173.873 245.265, 172.347 247.593 C 171.457 248.951, 171.028 250.361, 171.393 250.727 C 172.855 252.188, 175.254 251.747, 175.729 249.928 C 176.335 247.611, 177.348 247.491, 179.357 249.500 C 180.182 250.325, 181.291 251, 181.822 251 C 182.352 251, 183.056 251.704, 183.386 252.563 C 184.216 254.728, 186.289 253.214, 185.681 250.887 C 185.409 249.849, 185.625 249, 186.161 249 C 186.697 249, 186.849 248.100, 186.500 247 C 186.109 245.769, 186.320 245, 187.049 245 C 187.745 245, 188.015 244.167, 187.705 242.980 C 187.038 240.429, 189.781 233.298, 191.715 232.556 C 192.516 232.248, 193.872 232.389, 194.728 232.868 C 197.144 234.220, 200 233.022, 200 230.656 C 200 228.859, 200.459 229.102, 203.080 232.281 C 204.775 234.337, 206.575 235.763, 207.080 235.450 C 208.564 234.533, 208.134 236.175, 206.572 237.390 C 205.787 238, 205.016 239.850, 204.860 241.500 C 204.704 243.150, 204.228 244.987, 203.804 245.583 C 203.370 246.192, 203.572 246.671, 204.266 246.676 C 204.945 246.681, 206.512 247.012, 207.750 247.410 C 209.131 247.855, 210 247.722, 210 247.067 C 210 246.480, 210.900 246, 212 246 C 214.596 246, 214.689 242.447, 212.135 240.852 C 211.047 240.172, 210.463 238.945, 210.734 237.908 C 210.990 236.929, 210.052 234.623, 208.648 232.783 C 206.398 229.833, 206.245 229.147, 207.354 226.969 C 208.336 225.040, 209.255 224.570, 211.555 224.818 C 215.402 225.233, 216.648 226.514, 215.063 228.424 C 214.203 229.460, 214.089 230.768, 214.700 232.600 C 215.525 235.075, 215.708 235.149, 217.233 233.624 C 218.759 232.098, 218.835 232.241, 218.289 235.605 C 217.728 239.062, 217.812 239.196, 220.101 238.502 C 221.420 238.102, 222.911 237.392, 223.413 236.925 C 224.362 236.040, 227 240.181, 227 242.555 C 227 244.482, 228.558 245.149, 231.395 244.437 C 233.146 243.998, 234.085 242.891, 234.566 240.698 C 235.012 238.667, 234.844 237.448, 234.083 237.194 C 233.198 236.899, 233.203 236.461, 234.101 235.379 C 235.642 233.521, 234.693 232.667, 231.089 232.667 C 228.657 232.667, 228.110 232.200, 227.762 229.833 C 227.496 228.018, 227.793 227, 228.590 227 C 229.274 227, 229.983 226.565, 230.167 226.033 C 230.350 225.501, 232.296 224.930, 234.490 224.763 C 237.325 224.548, 238.577 223.959, 238.813 222.730 C 239.030 221.604, 238.510 220.995, 237.323 220.985 C 235.780 220.972, 235.731 220.820, 237 220 C 238 219.354, 238.083 219.026, 237.250 219.015 C 236.563 219.007, 236 218.550, 236 218 C 236 217.450, 237.665 217, 239.700 217 C 243.473 217, 243.340 215.549, 239.500 214.809 C 238.351 214.587, 237.559 213.695, 237.639 212.712 C 237.715 211.770, 237.201 211, 236.496 211 C 235.791 211, 234.968 210.360, 234.668 209.578 C 234.334 208.707, 233.323 208.364, 232.061 208.694 C 230.843 209.013, 230 208.753, 230 208.058 C 230 207.411, 230.450 207.160, 231 207.500 C 232.074 208.164, 232.081 208.143, 232.493 203.250 C 232.643 201.463, 232.383 200, 231.914 200 C 231.446 200, 231.269 199.438, 231.521 198.750 C 231.773 198.063, 231.525 196.825, 230.970 196 C 230.074 194.667, 229.825 194.667, 228.731 196 C 227.435 197.579, 223.708 198.023, 222.424 196.750 C 222.007 196.338, 222.417 196, 223.333 196 C 225.115 196, 225.682 192.539, 224.063 191.539 C 222.859 190.795, 219.858 184.808, 220.412 184.254 C 220.644 184.023, 221.726 184.726, 222.818 185.818 C 226.044 189.044, 228.536 189.368, 230.172 186.776 C 231.903 184.031, 231.422 180.624, 229.413 181.395 C 228.564 181.721, 228 181.308, 228 180.362 C 228 179.358, 227.455 179.006, 226.500 179.393 C 225.675 179.727, 224.325 180.273, 223.500 180.607 C 221.723 181.326, 221.346 177.522, 223.087 176.446 C 223.685 176.077, 223.960 174.957, 223.699 173.958 C 223.345 172.602, 223.766 172.168, 225.362 172.245 C 226.538 172.302, 228.175 172.887, 229 173.544 C 231.300 175.376, 233.251 175.762, 236.121 174.953 C 238.205 174.365, 238.717 174.550, 238.621 175.856 C 238.546 176.873, 239.410 177.628, 240.891 177.838 C 242.762 178.102, 243.145 177.819, 242.652 176.536 C 242.306 175.634, 242.437 175.152, 242.942 175.464 C 245.229 176.878, 244.736 173.937, 242.375 172.080 C 240.451 170.567, 240.176 170, 241.365 170 C 242.885 170, 243.541 167.744, 243.058 164.176 C 242.959 163.448, 243.330 162.307, 243.882 161.642 C 244.934 160.374, 244.878 158.987, 243.622 155.250 C 242.941 153.225, 240.187 152.296, 236.676 152.906 C 236.222 152.985, 236.106 152.638, 236.417 152.134 C 236.728 151.631, 235.909 150.515, 234.596 149.655 C 232.371 148.197, 232.175 148.224, 231.697 150.050 C 231.149 152.148, 227.769 151.749, 228.192 149.636 C 228.317 149.011, 227.859 147.488, 227.175 146.250 C 226.490 145.012, 226.283 143.993, 226.715 143.985 C 227.147 143.976, 226.825 143.533, 226 143 C 224.703 142.162, 224.725 142.029, 226.167 142.015 C 227.083 142.007, 228.032 141.438, 228.274 140.750 C 228.606 139.809, 229.470 139.934, 231.767 141.253 C 233.446 142.218, 235.535 142.732, 236.410 142.396 C 237.432 142.004, 238 142.327, 238 143.299 C 238 144.320, 238.651 144.643, 240 144.290 C 241.100 144.002, 242 143.422, 242 143 C 242 142.578, 242.871 142.006, 243.935 141.727 C 245.360 141.355, 245.719 140.643, 245.298 139.030 C 244.854 137.333, 244.249 136.991, 242.612 137.513 C 241.451 137.884, 239.150 138.402, 237.500 138.664 C 235.177 139.034, 234.839 138.900, 236 138.071 C 237.333 137.119, 237.333 136.891, 236 136.015 C 234.716 135.172, 234.752 135.028, 236.250 135.015 C 237.491 135.004, 238.044 134.127, 238.150 132 C 238.233 130.350, 238.345 128.438, 238.400 127.750 C 238.455 127.063, 239.131 126.006, 239.902 125.402 C 241.080 124.480, 240.980 123.980, 239.277 122.277 C 238.162 121.162, 236.631 120.004, 235.875 119.704 C 234.911 119.321, 234.873 119.134, 235.750 119.079 C 237.649 118.959, 237.245 116.532, 234.986 114.487 C 233.746 113.365, 233.194 111.965, 233.549 110.845 C 234.047 109.276, 233.704 109.109, 231.063 109.637 C 228.658 110.118, 228 109.903, 228 108.636 C 228 107.749, 228.725 106.176, 229.612 105.140 C 230.961 103.565, 231.686 103.433, 234.062 104.329 C 236.367 105.199, 237.253 105.081, 238.779 103.700 C 239.812 102.765, 241.136 102, 241.722 102 C 242.307 102, 243.066 101.270, 243.408 100.378 C 243.877 99.158, 244.801 98.910, 247.137 99.377 C 249.872 99.924, 250.089 99.812, 248.947 98.437 C 247.813 97.070, 247.978 96.956, 250.269 97.531 C 253.949 98.455, 255.277 97.347, 253.282 95.017 C 252.381 93.964, 251.274 93.331, 250.822 93.610 C 250.370 93.890, 250 93.416, 250 92.559 C 250 90.748, 249.104 90.630, 245.565 91.975 C 243.977 92.579, 243 93.722, 243 94.975 C 243 97.507, 242.511 97.511, 240 95 C 237.464 92.464, 235.066 92.311, 237.347 94.831 C 239.097 96.765, 238.646 98, 236.192 98 C 235.380 98, 233.446 99.329, 231.894 100.954 C 228.043 104.983, 224 107.579, 224 106.021 C 224 105.357, 224.900 104.577, 226 104.290 C 228.985 103.509, 228.434 101.295, 224.316 97.523 C 221.132 94.606, 220.813 93.930, 221.966 92.541 C 223.178 91.081, 223.515 91.135, 225.650 93.141 C 227.011 94.419, 228 94.824, 228 94.103 C 228 93.247, 228.491 93.349, 229.571 94.429 C 232.655 97.512, 233.638 95.032, 230.796 91.339 C 229.651 89.851, 231.436 88.690, 233.759 89.413 C 236.446 90.249, 238.660 88.500, 237.177 86.713 C 236.180 85.512, 236.398 85.353, 238.491 85.754 C 241.386 86.307, 241.560 85.598, 239.499 81.646 C 238.680 80.076, 238.239 78.422, 238.519 77.970 C 238.798 77.517, 237.363 77.354, 235.329 77.606 C 231.777 78.047, 231.698 77.991, 233.316 76.204 C 235.529 73.758, 235.577 70.565, 233.389 71.404 C 232.309 71.819, 231.945 71.586, 232.284 70.701 C 232.563 69.974, 231.782 68.507, 230.547 67.440 L 228.303 65.500 231.151 63.765 C 232.718 62.810, 234 61.573, 234 61.015 C 234 60.123, 230.544 59.530, 227.421 59.886 C 226.828 59.954, 225.724 58.853, 224.968 57.441 C 224.079 55.780, 222.982 55.033, 221.862 55.326 C 220.909 55.575, 219.899 55.180, 219.618 54.448 C 219.097 53.088, 215 52.830, 215 54.156 C 215 54.558, 216 55.587, 217.223 56.443 C 218.593 57.403, 218.903 58, 218.031 58 C 217.051 58, 217.212 58.454, 218.559 59.481 C 219.837 60.456, 220.134 61.225, 219.427 61.731 C 217.986 62.765, 218.194 68.232, 219.694 68.731 C 220.350 68.950, 220.667 69.703, 220.398 70.404 C 219.889 71.732, 222.155 74.184, 223.645 73.917 C 225.686 73.550, 226.159 74.103, 225 75.500 C 223.996 76.709, 224.021 77.006, 225.128 77.033 C 227.192 77.083, 231.244 80.796, 230.517 81.972 C 229.592 83.469, 228.170 83.237, 226.025 81.238 C 224.985 80.269, 222.082 78.870, 219.575 78.130 C 215.358 76.885, 215.064 76.586, 215.656 74.142 L 216.297 71.500 214.341 73.871 C 212.538 76.058, 212.259 76.116, 210.764 74.621 C 209.872 73.730, 208.661 73, 208.071 73 C 207.482 73, 207 72.587, 207 72.082 C 207 71.577, 206.727 70.452, 206.393 69.582 C 205.979 68.504, 206.354 68, 207.569 68 C 208.920 68, 208.402 67.037, 205.426 64.017 C 203.267 61.826, 200.990 60.026, 200.367 60.017 C 199.743 60.008, 198.983 59.042, 198.676 57.870 C 198.313 56.483, 197.593 55.942, 196.611 56.319 C 195.582 56.714, 195.279 56.437, 195.658 55.449 C 196.001 54.554, 195.599 54, 194.607 54 C 193.723 54, 193 54.414, 193 54.921 C 193 55.427, 191.650 56.138, 190 56.500 C 188.350 56.862, 187 57.798, 187 58.579 C 187 59.361, 186.550 60, 186 60 C 184.644 60, 184.740 58.660, 186.200 57.200 C 186.860 56.540, 187.030 56, 186.578 56 C 186.125 56, 186.315 55.325, 187 54.500 C 187.685 53.675, 188.897 53, 189.694 53 C 191.966 53, 194.592 49.984, 193.115 49.071 C 192.209 48.511, 192.301 47.995, 193.478 47.018 C 194.906 45.833, 194.902 45.549, 193.427 43.920 C 192.535 42.933, 192.083 41.675, 192.424 41.123 C 192.765 40.571, 191.589 38.405, 189.812 36.310 C 188.034 34.214, 186.463 32.327, 186.321 32.115 C 186.179 31.903, 185.143 31.678, 184.019 31.615 C 182.894 31.552, 182.093 31.102, 182.237 30.615 C 182.382 30.128, 181.458 29.344, 180.185 28.873 C 177.847 28.008, 172.853 29.810, 171.494 32.009 C 171.146 32.572, 170.443 32.774, 169.931 32.457 C 169.419 32.141, 169 32.558, 169 33.384 C 169 34.211, 167.988 35.598, 166.750 36.468 L 164.500 38.049 166.807 38.656 C 168.446 39.087, 168.920 39.731, 168.445 40.881 C 167.328 43.590, 167.436 45.262, 168.758 45.728 C 169.522 45.998, 170.256 44.968, 170.630 43.102 C 170.967 41.414, 171.689 40.308, 172.234 40.644 C 172.778 40.981, 173.616 40.636, 174.096 39.878 C 175.580 37.535, 175.135 41.128, 173.598 43.902 C 172.866 45.223, 172.484 47.136, 172.750 48.152 C 173.372 50.530, 173.141 50.497, 167.626 47.415 C 164.631 45.740, 163 45.270, 163 46.081 C 163 46.770, 162.698 47.032, 162.330 46.663 C 161.961 46.295, 160.559 46.714, 159.214 47.595 C 156.974 49.063, 156.635 49.064, 155.170 47.599 C 154.217 46.646, 154.038 46, 154.727 46 C 155.362 46, 156.165 46.457, 156.510 47.016 C 157.397 48.452, 159.245 47.080, 158.619 45.450 C 158.280 44.566, 158.620 44.301, 159.606 44.679 C 160.832 45.149, 160.771 44.631, 159.279 41.878 C 158.247 39.975, 157.515 36.754, 157.602 34.500 C 157.686 32.300, 157.272 29.897, 156.681 29.161 C 155.878 28.159, 155.972 27.874, 157.054 28.030 C 161.152 28.617, 162.214 27.071, 159.545 24.402 C 158.272 23.129, 157.518 23.216, 153.507 25.102 C 148.562 27.426, 146.757 27.071, 149.209 24.256 C 150.051 23.290, 150.535 21.938, 150.286 21.250 C 150.037 20.563, 150.290 20, 150.848 20 C 152.226 20, 151.580 14.693, 150.144 14.215 C 148.477 13.659, 148.743 10.036, 150.500 9.362 C 151.325 9.045, 152 8.332, 152 7.778 C 152 7.224, 150.836 7.533, 149.413 8.465 C 147.991 9.397, 146.701 10.011, 146.549 9.830 C 146.396 9.648, 145.737 8.475, 145.085 7.222 C 144.433 5.969, 143.444 5.226, 142.887 5.570 C 142.330 5.914, 141.002 5.407, 139.937 4.443 C 138.872 3.479, 138 3.120, 138 3.645 M 143 22 C 140.557 24.443, 140.268 24.465, 139.689 22.250 C 139.313 20.810, 139.211 20.863, 139.116 22.550 C 139.052 23.678, 138.438 25.191, 137.750 25.914 C 136.915 26.792, 137.538 26.705, 139.623 25.654 C 141.341 24.788, 143.009 24.342, 143.330 24.663 C 143.651 24.984, 144.659 24.961, 145.569 24.612 C 146.820 24.132, 146.955 23.651, 146.121 22.646 C 145.514 21.915, 145.313 21.020, 145.675 20.658 C 146.037 20.296, 146.033 20, 145.667 20 C 145.300 20, 144.100 20.900, 143 22 M 121.500 29 C 121.840 29.550, 122.316 30, 122.559 30 C 122.802 30, 123 29.550, 123 29 C 123 28.450, 122.523 28, 121.941 28 C 121.359 28, 121.160 28.450, 121.500 29 M 175.970 34.579 C 175.332 36.256, 175.330 37.743, 175.964 38.829 C 176.772 40.214, 176.965 40.243, 177.088 39 C 177.170 38.175, 177.172 36.971, 177.092 36.325 C 177.012 35.679, 177.409 34.865, 177.973 34.516 C 179.301 33.696, 179.302 32, 177.975 32 C 177.412 32, 176.509 33.161, 175.970 34.579 M 133.500 37 C 133.160 37.550, 133.359 38, 133.941 38 C 134.523 38, 135 37.550, 135 37 C 135 36.450, 134.802 36, 134.559 36 C 134.316 36, 133.840 36.450, 133.500 37 M 129.500 38 C 129.160 38.550, 129.332 39, 129.882 39 C 130.432 39, 131.160 38.550, 131.500 38 C 131.840 37.450, 131.668 37, 131.118 37 C 130.568 37, 129.840 37.450, 129.500 38 M 176.750 46.774 C 175.238 47.508, 174 48.543, 174 49.074 C 174 49.619, 175.195 49.751, 176.750 49.378 C 180.150 48.563, 180.256 48.474, 179.838 46.797 C 179.555 45.658, 179.055 45.654, 176.750 46.774 M 115.980 49.524 C 115.284 50.362, 114.909 51.242, 115.145 51.479 C 115.382 51.715, 116.125 51.030, 116.796 49.955 C 118.248 47.630, 117.764 47.375, 115.980 49.524 M 109.606 51.115 C 108.565 52.119, 107.258 52.659, 106.702 52.316 C 106.129 51.962, 105.998 52.188, 106.400 52.838 C 106.789 53.468, 106.657 54.775, 106.105 55.742 C 105.230 57.277, 104.957 57.088, 103.954 54.250 C 103.321 52.462, 102.398 51, 101.902 51 C 100.701 51, 100.743 53.723, 101.956 54.473 C 102.482 54.798, 102.682 55.665, 102.400 56.401 C 102.101 57.180, 102.759 57.965, 103.976 58.284 C 105.464 58.672, 106.531 58.120, 107.681 56.365 C 108.569 55.009, 109.849 54.112, 110.526 54.372 C 111.944 54.916, 114 53.161, 114 51.407 C 114 49.364, 111.588 49.204, 109.606 51.115 M 125.648 50.761 C 125.389 51.180, 125.812 52.391, 126.589 53.452 C 127.365 54.514, 128 54.883, 128 54.273 C 128 53.663, 128.273 52.452, 128.607 51.582 C 129.227 49.967, 126.590 49.236, 125.648 50.761 M 157 58.500 C 155.310 60.536, 157.737 60.514, 160.441 58.468 C 162.349 57.025, 162.347 57, 160.314 57 C 159.176 57, 157.685 57.675, 157 58.500 M 149.597 58.844 C 149.251 59.404, 149.455 60.163, 150.050 60.531 C 151.588 61.481, 152.580 60.180, 151.296 58.896 C 150.578 58.178, 150.019 58.161, 149.597 58.844 M 146.344 60.794 C 145.992 62.137, 144.988 63, 143.775 63 C 142.150 63, 141.899 63.460, 142.411 65.500 C 142.756 66.875, 142.652 68, 142.181 68 C 140.983 68, 140.849 74.788, 142.032 75.520 C 142.567 75.851, 143.056 74.751, 143.125 73.059 C 143.194 71.377, 143.363 69.550, 143.500 69 C 143.637 68.450, 143.806 67.073, 143.875 65.941 C 143.944 64.809, 144.382 64.118, 144.849 64.407 C 145.938 65.080, 148.571 60.237, 147.629 59.295 C 147.239 58.906, 146.661 59.580, 146.344 60.794 M 149 63.107 C 149 63.716, 149.620 63.976, 150.378 63.685 C 151.136 63.394, 152.261 63.661, 152.878 64.278 C 153.672 65.072, 154 65.081, 154 64.307 C 154 63.248, 151.792 62, 149.918 62 C 149.413 62, 149 62.498, 149 63.107 M 97.742 64.085 C 96.775 64.648, 95.629 64.889, 95.194 64.620 C 94.760 64.352, 93.751 64.545, 92.952 65.051 C 91.734 65.821, 91.771 65.972, 93.179 65.985 C 94.102 65.993, 95.564 66.707, 96.429 67.571 C 97.857 69, 98.143 69, 99.571 67.571 C 100.436 66.707, 100.831 66, 100.449 66 C 100.067 66, 100.315 65.325, 101 64.500 C 102.004 63.290, 101.979 63.006, 100.872 63.030 C 100.118 63.047, 98.709 63.521, 97.742 64.085 M 115.459 64.067 C 115.096 64.653, 115.040 65.373, 115.333 65.667 C 116.050 66.383, 118 65.121, 118 63.941 C 118 62.663, 116.274 62.748, 115.459 64.067 M 193.611 68.223 C 193.889 69.475, 194.228 71.049, 194.363 71.721 C 194.776 73.772, 195.421 73.819, 197.355 71.937 C 199.160 70.182, 199.153 70.147, 197.105 70.683 C 195.469 71.111, 195 70.775, 195 69.176 C 195 68.044, 194.574 66.854, 194.052 66.532 C 193.513 66.199, 193.322 66.927, 193.611 68.223 M 72 69.917 C 72 71.145, 72.646 72, 73.573 72 C 74.505 72, 75.015 71.320, 74.823 70.333 C 74.337 67.824, 72 67.480, 72 69.917 M 169.421 71.780 C 169.494 73.826, 169.952 76.139, 170.441 76.920 C 171.113 77.996, 170.919 78.183, 169.641 77.692 C 168.245 77.157, 168.128 77.370, 168.960 78.924 C 169.814 80.520, 169.663 80.725, 167.959 80.279 C 165.993 79.765, 165.988 79.818, 167.726 82.871 C 169.917 86.720, 170.965 86.837, 171.116 83.250 C 171.183 81.665, 171.421 81.218, 171.679 82.195 C 172.199 84.170, 175 83.494, 175 81.393 C 175 80.627, 175.900 80, 177 80 C 178.100 80, 179 79.550, 179 79 C 179 78.450, 178.277 78, 177.393 78 C 176.320 78, 175.993 77.460, 176.410 76.373 C 176.754 75.479, 176.526 74.134, 175.905 73.386 C 175.284 72.638, 175.037 71.345, 175.357 70.513 C 175.676 69.681, 175.554 69, 175.085 69 C 174.617 69, 173.933 70.013, 173.566 71.250 L 172.898 73.500 172.019 71.352 C 170.518 67.683, 169.283 67.887, 169.421 71.780 M 225.733 71.124 C 226.412 71.808, 227.219 72.115, 227.526 71.807 C 227.834 71.499, 227.279 70.940, 226.293 70.564 C 224.868 70.022, 224.753 70.136, 225.733 71.124 M 136.651 73.468 C 136.009 75.139, 137.499 76.427, 139 75.500 C 140.495 74.576, 140.206 72, 138.607 72 C 137.841 72, 136.960 72.661, 136.651 73.468 M 145 73.500 C 145 74.325, 145.730 75, 146.622 75 C 147.951 75, 148.020 74.729, 147 73.500 C 146.315 72.675, 145.585 72, 145.378 72 C 145.170 72, 145 72.675, 145 73.500 M 74.250 75.481 C 74.250 76.846, 74.777 78.400, 75.421 78.934 C 76.470 79.805, 76.780 77.537, 76.129 73.750 C 75.802 71.846, 74.250 73.276, 74.250 75.481 M 107.500 74 C 107.840 74.550, 108.568 75, 109.118 75 C 109.668 75, 109.840 74.550, 109.500 74 C 109.160 73.450, 108.432 73, 107.882 73 C 107.332 73, 107.160 73.450, 107.500 74 M 110.500 75.377 C 109.400 75.995, 108.377 76.548, 108.226 76.607 C 107.128 77.036, 109.593 80, 111.048 80 C 113.337 80, 113.850 79.091, 113.092 76.377 C 112.591 74.582, 112.191 74.428, 110.500 75.377 M 74 81 C 74 81.615, 73.591 81.865, 73.090 81.556 C 71.645 80.662, 69 82.068, 69 83.729 C 69 84.850, 69.335 84.967, 70.284 84.180 C 71.097 83.504, 72.104 83.454, 73.034 84.042 C 73.840 84.552, 74.838 84.976, 75.250 84.985 C 76.368 85.008, 76.157 81.215, 75 80.500 C 74.450 80.160, 74 80.385, 74 81 M 185.273 81.974 C 185.355 83.060, 186.002 84.170, 186.711 84.443 C 187.420 84.715, 188 86.076, 188 87.469 C 188 88.861, 188.470 90, 189.045 90 C 190.534 90, 189.446 81.899, 187.819 80.867 C 185.757 79.559, 185.112 79.839, 185.273 81.974 M 157.333 83.500 C 157.333 84.325, 157.660 85, 158.060 85 C 158.459 85, 159.045 84.325, 159.362 83.500 C 159.692 82.640, 159.382 82, 158.635 82 C 157.919 82, 157.333 82.675, 157.333 83.500 M 197.729 84.604 C 196.297 86.036, 197.034 88.876, 199 89.500 C 200.100 89.849, 201 90.554, 201 91.067 C 201 91.580, 201.863 92, 202.917 92 C 203.971 92, 205.034 92.563, 205.280 93.250 C 205.525 93.938, 206.085 94.165, 206.523 93.756 C 206.962 93.347, 206.236 92.067, 204.910 90.911 C 203.585 89.755, 202.632 88.178, 202.794 87.405 C 202.967 86.576, 202.284 86, 201.127 86 C 200.049 86, 199.007 85.522, 198.813 84.938 C 198.618 84.353, 198.130 84.203, 197.729 84.604 M 226.667 84.667 C 226.300 85.033, 226 85.798, 226 86.367 C 226 86.993, 226.466 86.934, 227.183 86.217 C 227.834 85.566, 228.134 84.801, 227.850 84.517 C 227.566 84.233, 227.033 84.300, 226.667 84.667 M 170.500 87 C 170.160 87.550, 170.835 88, 172 88 C 173.165 88, 173.840 87.550, 173.500 87 C 173.160 86.450, 172.485 86, 172 86 C 171.515 86, 170.840 86.450, 170.500 87 M 141.738 87.614 C 141.101 88.646, 142.580 91.784, 143.320 90.971 C 143.556 90.712, 143.433 89.630, 143.047 88.566 C 142.661 87.503, 142.072 87.074, 141.738 87.614 M 80.596 90.845 C 80.281 91.354, 81.256 92.008, 82.762 92.297 C 85.335 92.792, 86.852 92.468, 85.917 91.624 C 84.749 90.571, 81.096 90.036, 80.596 90.845 M 72.264 95.550 C 71.276 96.618, 71.367 97.224, 72.719 98.577 C 74.643 100.500, 75.435 99.328, 74.279 96.272 C 73.637 94.577, 73.283 94.450, 72.264 95.550 M 211.579 95.345 C 211.911 96.211, 211.243 96.965, 209.812 97.339 C 207.628 97.910, 207.600 98.028, 209.249 99.677 C 210.539 100.968, 211.276 101.124, 212.115 100.285 C 212.736 99.664, 213.864 99.394, 214.622 99.685 C 215.440 99.999, 216 99.561, 216 98.607 C 216 96.349, 216.939 96.591, 220.430 99.750 C 222.101 101.263, 222.677 101.553, 221.710 100.395 C 220.743 99.237, 220.213 97.607, 220.533 96.774 C 221.269 94.856, 218.219 93.574, 216.437 95.052 C 215.494 95.835, 214.556 95.833, 213.086 95.046 C 211.454 94.172, 211.152 94.232, 211.579 95.345 M 205.600 96.600 C 205.244 97.527, 205.178 98.511, 205.453 98.786 C 205.728 99.061, 206.244 98.527, 206.600 97.600 C 206.956 96.673, 207.022 95.689, 206.747 95.414 C 206.472 95.139, 205.956 95.673, 205.600 96.600 M 154.459 101.067 C 154.096 101.653, 154.040 102.373, 154.333 102.667 C 155.050 103.383, 157 102.121, 157 100.941 C 157 99.663, 155.274 99.748, 154.459 101.067 M 122.500 102 C 122.840 102.550, 123.316 103, 123.559 103 C 123.802 103, 124 102.550, 124 102 C 124 101.450, 123.523 101, 122.941 101 C 122.359 101, 122.160 101.450, 122.500 102 M 51.493 109.044 C 51.534 110.732, 52.002 112.426, 52.533 112.807 C 55.187 114.709, 53.388 118.028, 49.500 118.403 C 48.950 118.457, 48.432 118.950, 48.350 119.500 C 48.268 120.050, 48.652 120.372, 49.204 120.215 C 51.258 119.633, 53.891 121.120, 53.342 122.551 C 52.976 123.504, 53.439 124, 54.693 124 C 55.742 124, 57.196 124.563, 57.925 125.250 C 59.012 126.275, 59.163 126.005, 58.764 123.750 C 58.399 121.690, 58.682 120.996, 59.889 120.985 C 61.242 120.972, 61.270 120.824, 60.064 120.061 C 58.187 118.873, 60.174 116.268, 63.323 115.788 C 65.492 115.457, 65.492 115.451, 63.123 114.125 C 61.137 113.013, 60.599 113.017, 59.854 114.147 C 59.128 115.248, 58.712 115.174, 57.621 113.750 C 56.883 112.787, 55.767 112, 55.140 112 C 54.513 112, 54.053 111.662, 54.118 111.250 C 54.184 110.838, 54.127 110.162, 53.993 109.750 C 53.860 109.338, 53.694 108.475, 53.625 107.833 C 53.336 105.138, 51.425 106.223, 51.493 109.044 M 165.123 110.229 C 165.779 111.456, 166.955 113.098, 167.736 113.879 C 168.963 115.106, 169.112 115.044, 168.828 113.422 C 168.457 111.299, 165.971 108, 164.743 108 C 164.295 108, 164.467 109.003, 165.123 110.229 M 202 109.311 C 202 110.033, 202.987 111.683, 204.194 112.978 C 206.799 115.774, 207.932 114.109, 205.947 110.401 C 204.577 107.840, 202 107.129, 202 109.311 M 66 112 C 66 112.550, 66.450 113, 67 113 C 67.550 113, 68 112.550, 68 112 C 68 111.450, 67.550 111, 67 111 C 66.450 111, 66 111.450, 66 112 M 163.500 115 C 163.160 115.550, 163.332 116, 163.882 116 C 164.432 116, 165.160 115.550, 165.500 115 C 165.840 114.450, 165.668 114, 165.118 114 C 164.568 114, 163.840 114.450, 163.500 115 M 174 117 C 174 117.550, 174.477 118, 175.059 118 C 175.641 118, 175.840 117.550, 175.500 117 C 175.160 116.450, 174.684 116, 174.441 116 C 174.198 116, 174 116.450, 174 117 M 220.229 117.188 C 220.847 119.042, 223 119.349, 223 117.583 C 223 116.713, 222.287 116, 221.417 116 C 220.546 116, 220.011 116.534, 220.229 117.188 M 84.855 122.986 C 84.151 125.004, 83.269 125.934, 82.381 125.593 C 81.621 125.301, 81 125.499, 81 126.031 C 81 127.614, 83.575 127.134, 85.193 125.250 C 87.631 122.411, 88.097 121.178, 86.990 120.494 C 86.410 120.135, 85.464 121.240, 84.855 122.986 M 173 121 C 173 121.550, 173.450 122, 174 122 C 174.550 122, 175 121.550, 175 121 C 175 120.450, 174.550 120, 174 120 C 173.450 120, 173 120.450, 173 121 M 178.459 123.067 C 177.383 124.808, 178.608 125.177, 179.980 123.524 C 180.769 122.574, 180.845 122, 180.181 122 C 179.597 122, 178.821 122.480, 178.459 123.067 M 232.813 122.683 C 233.534 122.972, 234.397 122.936, 234.729 122.604 C 235.061 122.272, 234.471 122.036, 233.417 122.079 C 232.252 122.127, 232.015 122.364, 232.813 122.683 M 171.500 124 C 171.840 124.550, 172.316 125, 172.559 125 C 172.802 125, 173 124.550, 173 124 C 173 123.450, 172.523 123, 171.941 123 C 171.359 123, 171.160 123.450, 171.500 124 M 140.325 126.658 C 140.687 127.020, 140.424 127.993, 139.741 128.821 C 138.725 130.052, 138.772 130.235, 140 129.830 C 141.852 129.218, 142.614 126, 140.907 126 C 140.225 126, 139.963 126.296, 140.325 126.658 M 178.128 127.247 C 173.754 128.380, 175.414 130.503, 180.665 130.492 C 183.843 130.486, 184.553 130.110, 184.812 128.300 C 185.154 125.905, 184.003 125.724, 178.128 127.247 M 185.500 132 C 185.160 132.550, 185.359 133, 185.941 133 C 186.523 133, 187 132.550, 187 132 C 187 131.450, 186.802 131, 186.559 131 C 186.316 131, 185.840 131.450, 185.500 132 M 225 132 C 225 132.550, 225.450 133, 226 133 C 226.550 133, 227 132.550, 227 132 C 227 131.450, 226.550 131, 226 131 C 225.450 131, 225 131.450, 225 132 M 57.500 134 C 57.160 134.550, 57.359 135, 57.941 135 C 58.523 135, 59 134.550, 59 134 C 59 133.450, 58.802 133, 58.559 133 C 58.316 133, 57.840 133.450, 57.500 134 M 113.500 139 C 113.840 139.550, 114.316 140, 114.559 140 C 114.802 140, 115 139.550, 115 139 C 115 138.450, 114.523 138, 113.941 138 C 113.359 138, 113.160 138.450, 113.500 139 M 94.778 140.500 C 95.342 141.600, 95.847 142.950, 95.901 143.500 C 96.003 144.535, 97.809 144.901, 98.250 143.977 C 98.388 143.689, 97.432 142.339, 96.127 140.977 C 94.269 139.039, 93.976 138.935, 94.778 140.500 M 169.500 140 C 169.160 140.550, 169.610 141, 170.500 141 C 171.390 141, 171.840 140.550, 171.500 140 C 171.160 139.450, 170.710 139, 170.500 139 C 170.290 139, 169.840 139.450, 169.500 140 M 82 142.059 C 82 142.641, 82.450 142.840, 83 142.500 C 83.550 142.160, 84 141.684, 84 141.441 C 84 141.198, 83.550 141, 83 141 C 82.450 141, 82 141.477, 82 142.059 M 219.500 146 C 219.160 146.550, 219.359 147, 219.941 147 C 220.523 147, 221 146.550, 221 146 C 221 145.450, 220.802 145, 220.559 145 C 220.316 145, 219.840 145.450, 219.500 146 M 143 146.941 C 143 147.459, 143.450 148.160, 144 148.500 C 144.550 148.840, 145 148.416, 145 147.559 C 145 146.702, 144.550 146, 144 146 C 143.450 146, 143 146.423, 143 146.941 M 219 149.500 C 218.306 150.337, 218.197 151, 218.755 151 C 219.305 151, 220.315 150.325, 221 149.500 C 221.694 148.663, 221.803 148, 221.245 148 C 220.695 148, 219.685 148.675, 219 149.500 M 30.298 149.631 C 30.645 149.979, 30.436 151.186, 29.832 152.314 C 28.930 154, 29.114 154.674, 30.867 156.093 C 32.040 157.043, 33 158.338, 33 158.969 C 33 159.601, 33.478 159.822, 34.063 159.461 C 34.648 159.100, 35.950 159.550, 36.958 160.462 C 38.677 162.018, 38.950 161.959, 41.395 159.514 C 44.696 156.214, 44.775 154.446, 41.526 156.575 C 39.444 157.939, 38.838 157.981, 37.696 156.839 C 36.950 156.093, 36.525 154.924, 36.753 154.241 C 36.981 153.558, 36.406 153, 35.476 153 C 34.429 153, 33.993 152.461, 34.330 151.583 C 34.629 150.803, 34.190 149.903, 33.355 149.583 C 31.341 148.810, 29.506 148.839, 30.298 149.631 M 94.154 158.552 C 94.345 159.532, 95.105 160.536, 95.846 160.782 C 96.706 161.069, 97.066 160.588, 96.846 159.448 C 96.655 158.468, 95.895 157.464, 95.154 157.218 C 94.294 156.931, 93.934 157.412, 94.154 158.552 M 51.029 158.961 C 50.220 159.473, 49.818 160.152, 50.136 160.470 C 50.455 160.788, 51.284 160.362, 51.980 159.524 C 53.423 157.786, 53.146 157.622, 51.029 158.961 M 131.500 159 C 131.840 159.550, 132.316 160, 132.559 160 C 132.802 160, 133 159.550, 133 159 C 133 158.450, 132.523 158, 131.941 158 C 131.359 158, 131.160 158.450, 131.500 159 M 58.691 162.691 C 58.384 163.188, 58.496 164.185, 58.941 164.905 C 59.386 165.624, 60.002 165.806, 60.309 165.309 C 60.616 164.812, 60.504 163.815, 60.059 163.095 C 59.614 162.376, 58.998 162.194, 58.691 162.691 M 113.656 163.827 C 112.107 165.539, 112.160 165.802, 114.501 168.001 L 117 170.349 117 166.174 C 117 161.608, 116.184 161.035, 113.656 163.827 M 40.739 166.889 C 40.017 169.653, 41.565 171.835, 43.135 170.265 C 43.961 169.439, 44.740 169.369, 45.559 170.049 C 46.401 170.748, 46.943 170.591, 47.349 169.533 C 47.733 168.532, 46.939 167.503, 45.015 166.508 C 41.350 164.613, 41.334 164.614, 40.739 166.889 M 56 166 C 56 166.550, 56.477 167, 57.059 167 C 57.641 167, 57.840 166.550, 57.500 166 C 57.160 165.450, 56.684 165, 56.441 165 C 56.198 165, 56 165.450, 56 166 M 92.604 167.590 C 91.737 169.848, 92.735 171, 95.559 171 C 98.466 171, 98.666 169.912, 96.171 167.655 C 93.898 165.597, 93.372 165.588, 92.604 167.590 M 221 167.500 C 221 168.325, 221.177 169, 221.393 169 C 221.609 169, 222.045 168.325, 222.362 167.500 C 222.678 166.675, 222.501 166, 221.969 166 C 221.436 166, 221 166.675, 221 167.500 M 121 172.339 C 121 173.076, 122.237 174.241, 123.750 174.928 L 126.500 176.176 124.076 173.588 C 121.295 170.620, 121 170.500, 121 172.339 M 41 174 C 41 174.550, 41.450 175, 42 175 C 42.550 175, 43 174.550, 43 174 C 43 173.450, 42.550 173, 42 173 C 41.450 173, 41 173.450, 41 174 M 164 173.937 C 164 174.586, 163.554 174.842, 163.008 174.505 C 162.462 174.168, 161.372 174.254, 160.586 174.696 C 159.401 175.362, 159.378 175.803, 160.455 177.272 C 161.502 178.702, 162.260 178.852, 164.376 178.047 C 167.357 176.914, 167.666 175.798, 165.500 174 C 164.382 173.072, 164 173.056, 164 173.937 M 96 174.941 C 96 175.459, 96.457 176.165, 97.016 176.510 C 97.575 176.856, 97.774 177.557, 97.457 178.069 C 97.141 178.581, 97.407 179, 98.048 179 C 98.689 179, 98.955 179.675, 98.638 180.500 C 97.638 183.108, 98.885 182.122, 100.474 179.050 C 102.645 174.851, 102.397 174, 99 174 C 97.350 174, 96 174.423, 96 174.941 M 102.520 178.607 C 100.262 184.012, 102.003 185.082, 106.554 181.087 C 108.565 179.321, 110.452 178.118, 110.747 178.413 C 111.042 178.709, 110.207 179.846, 108.892 180.942 C 107.576 182.037, 106.808 182.948, 107.185 182.967 C 108.642 183.038, 112.998 181.010, 112.968 180.275 C 112.892 178.417, 110.226 176.209, 107.278 175.561 C 104.293 174.905, 103.984 175.103, 102.520 178.607 M 157 179.987 C 157 181.162, 159.848 182.054, 160.457 181.070 C 160.743 180.607, 160.083 179.993, 158.989 179.707 C 157.895 179.421, 157 179.547, 157 179.987 M 109.038 184.930 C 108.467 185.996, 108 187.573, 108 188.434 C 108 189.295, 107.550 190, 107 190 C 106.450 190, 106 190.436, 106 190.969 C 106 191.501, 106.720 191.661, 107.601 191.323 C 108.481 190.985, 109.543 191.261, 109.960 191.935 C 110.738 193.194, 121 194.213, 121 193.032 C 121 192.671, 119.563 191.314, 117.807 190.016 C 115.640 188.414, 114.485 188.045, 114.210 188.869 C 113.899 189.802, 113.477 189.811, 112.390 188.909 C 111.498 188.168, 111.312 187.322, 111.887 186.617 C 112.460 185.916, 112.292 185.033, 111.437 184.246 C 110.331 183.227, 109.880 183.356, 109.038 184.930 M 149.192 184.075 C 149.389 184.666, 149.978 185.150, 150.500 185.150 C 151.022 185.150, 151.611 184.666, 151.808 184.075 C 152.005 183.484, 151.417 183, 150.500 183 C 149.583 183, 148.995 183.484, 149.192 184.075 M 156.500 185 C 155.718 186.266, 157.042 186.266, 159 185 C 160.293 184.165, 160.266 184.029, 158.809 184.015 C 157.879 184.007, 156.840 184.450, 156.500 185 M 100.543 187.931 C 100.226 188.443, 100.425 189.144, 100.984 189.490 C 101.543 189.835, 102 189.416, 102 188.559 C 102 186.802, 101.400 186.544, 100.543 187.931 M 148.306 187.644 C 147.650 187.911, 147.343 188.730, 147.624 189.463 C 147.906 190.197, 147.656 191.095, 147.068 191.458 C 145.813 192.233, 145.637 194, 146.815 194 C 147.263 194, 148.381 192.425, 149.299 190.500 C 150.924 187.091, 150.768 186.642, 148.306 187.644 M 60 191.891 C 58.420 192.327, 57.378 193.432, 57.167 194.892 C 56.911 196.672, 56.327 197.105, 54.622 196.779 C 52.552 196.383, 52.475 196.563, 53.422 199.590 C 54.356 202.572, 54.851 202.876, 59.801 203.494 C 62.753 203.863, 65.389 203.945, 65.658 203.675 C 65.927 203.406, 65.462 201.861, 64.625 200.242 C 63.703 198.459, 63.464 196.936, 64.018 196.382 C 64.980 195.420, 64.227 190.928, 63.133 191.100 C 62.785 191.155, 61.375 191.510, 60 191.891 M 127.695 192.700 C 126.702 192.957, 126.055 193.665, 126.257 194.271 C 126.898 196.195, 128.473 196.074, 129.766 194.003 C 131.038 191.967, 130.888 191.872, 127.695 192.700 M 45.980 194.524 C 45.284 195.362, 44.968 196.301, 45.276 196.610 C 45.585 196.919, 46.340 196.233, 46.954 195.086 C 48.264 192.638, 47.778 192.358, 45.980 194.524 M 95.729 196.092 C 93.300 197.506, 94.501 199, 98.067 199 C 100.767 199, 100.911 198.830, 99.768 197 C 98.346 194.723, 98.155 194.680, 95.729 196.092 M 119 195.799 C 117.625 196.015, 115.957 196.637, 115.294 197.182 C 114.630 197.727, 113.665 197.911, 113.149 197.592 C 112.632 197.273, 111.974 197.625, 111.687 198.374 C 110.958 200.273, 119.109 207.805, 127.375 212.871 C 131.156 215.188, 134.417 216.916, 134.622 216.711 C 134.827 216.506, 135.278 213.632, 135.624 210.324 C 136.137 205.411, 135.968 204.202, 134.696 203.714 C 133.515 203.260, 133.183 203.732, 133.320 205.667 C 133.521 208.511, 130.119 211.534, 129.288 209.250 C 129.038 208.563, 128.196 208, 127.417 208 C 126.638 208, 126 207.564, 126 207.031 C 126 206.499, 125.325 206.322, 124.500 206.638 C 123.675 206.955, 122.969 206.828, 122.931 206.357 C 122.893 205.886, 122.698 204.254, 122.497 202.732 C 122.297 201.210, 122.506 200.194, 122.962 200.476 C 123.417 200.758, 124.073 200.252, 124.419 199.351 C 124.764 198.451, 124.924 197.651, 124.774 197.574 C 124.623 197.497, 123.825 196.978, 123 196.420 C 122.175 195.863, 120.375 195.583, 119 195.799 M 215.638 196.500 C 215.249 197.515, 215.689 198, 217 198 C 218.311 198, 218.751 197.515, 218.362 196.500 C 218.045 195.675, 217.432 195, 217 195 C 216.568 195, 215.955 195.675, 215.638 196.500 M 6.751 196.644 C 5.983 197.963, 6.492 201.259, 7.847 203.750 C 8.636 205.201, 8.703 206.044, 8.035 206.125 C 7.466 206.194, 6.559 206.306, 6.019 206.375 C 5.480 206.444, 4.283 207.579, 3.360 208.897 C 1.784 211.146, 1.787 211.371, 3.407 212.556 C 4.356 213.250, 5.103 214.084, 5.067 214.409 C 4.845 216.379, 5.110 217.050, 5.915 216.553 C 6.418 216.242, 7.058 216.553, 7.338 217.244 C 8.181 219.321, 10.053 215.815, 9.333 213.508 C 8.786 211.755, 8.909 211.679, 10.356 212.880 C 11.775 214.058, 12 214.005, 12 212.491 C 12 211.526, 13.485 209.333, 15.300 207.618 C 17.115 205.903, 18.901 203.713, 19.269 202.750 C 20.138 200.474, 19.161 198, 17.393 198 C 16.627 198, 16 197.534, 16 196.965 C 16 196.276, 15.305 196.301, 13.922 197.042 C 12.733 197.678, 12.078 198.762, 12.391 199.577 C 13.197 201.676, 12.379 201.321, 9.665 198.394 C 8.336 196.961, 7.025 196.174, 6.751 196.644 M 203.049 198.441 C 202.111 199.571, 202.292 200.086, 203.935 200.965 C 205.698 201.909, 206 201.781, 206 200.094 C 206 197.492, 204.523 196.665, 203.049 198.441 M 81 199.972 C 81 201.023, 81.450 202.160, 82 202.500 C 82.550 202.840, 83 202.903, 83 202.641 C 83 202.378, 83.251 201.510, 83.557 200.711 C 83.864 199.912, 83.414 198.989, 82.557 198.660 C 81.483 198.248, 81 198.654, 81 199.972 M 192.015 199.536 C 192.043 201.257, 193.871 203.463, 194.636 202.697 C 195.046 202.288, 194.620 201.192, 193.690 200.262 C 192.761 199.332, 192.007 199.005, 192.015 199.536 M 71 200.769 C 71 201.411, 70.325 201.678, 69.500 201.362 C 68.535 200.991, 68 201.383, 68 202.460 C 68 203.735, 68.537 203.970, 70.250 203.443 C 73.308 202.503, 73.558 202.158, 72.183 200.783 C 71.289 199.889, 71 199.885, 71 200.769 M 94.861 201.947 C 97.452 204.201, 98.759 204.438, 100.948 203.053 C 102.066 202.346, 101.725 201.987, 99.448 201.476 C 97.827 201.112, 95.600 200.607, 94.500 200.354 C 92.696 199.939, 92.731 200.095, 94.861 201.947 M 26.427 203.470 C 26.727 204.587, 26.979 206.063, 26.986 206.750 C 26.994 207.438, 27.606 208, 28.347 208 C 29.754 208, 34.180 204.576, 34.066 203.576 C 33.878 201.927, 34.196 201.898, 36.425 203.359 C 38.245 204.551, 38.974 204.642, 39.346 203.724 C 39.730 202.776, 39.860 202.782, 39.921 203.750 C 40.009 205.147, 42 205.503, 42 204.121 C 42 202.458, 36.490 200.972, 31.191 201.206 C 26.393 201.418, 25.934 201.636, 26.427 203.470 M 202.592 203.500 C 203.493 204.875, 204.741 205.993, 205.365 205.985 C 206.156 205.974, 206.175 205.747, 205.427 205.235 C 204.837 204.831, 204.064 203.713, 203.708 202.750 C 203.353 201.787, 202.588 201, 202.008 201 C 201.425 201, 201.685 202.116, 202.592 203.500 M 219 201.940 C 219 202.740, 218.349 202.966, 217.250 202.548 C 215.847 202.014, 215.748 202.131, 216.750 203.141 C 217.712 204.110, 218.272 204.128, 219.183 203.217 C 219.834 202.566, 220.059 201.726, 219.683 201.350 C 219.308 200.974, 219 201.240, 219 201.940 M 246.791 202.542 C 246.432 202.901, 246.395 203.866, 246.709 204.684 C 247.123 205.762, 246.702 206.080, 245.186 205.837 C 244.034 205.651, 243.109 205.900, 243.131 206.388 C 243.153 206.877, 242.635 207.608, 241.980 208.012 C 241.096 208.559, 241.238 209.434, 242.530 211.405 C 243.487 212.867, 244.506 213.827, 244.793 213.540 C 245.604 212.729, 248.048 215.114, 247.430 216.113 C 247.129 216.601, 247.359 217, 247.941 217 C 248.523 217, 249 217.499, 249 218.108 C 249 218.763, 248.066 218.982, 246.718 218.644 C 244.129 217.994, 240.970 221.408, 243.286 222.353 C 244.172 222.714, 244.099 223.126, 243.013 223.879 C 241.738 224.764, 241.839 225.202, 243.722 226.955 C 246.508 229.551, 246.982 229.522, 247.079 226.750 C 247.130 225.296, 247.347 225.031, 247.694 226 C 248.260 227.584, 250.906 230, 252.074 230 C 253.259 230, 252.513 223.671, 251.279 223.260 C 250.638 223.046, 250.359 222.227, 250.661 221.441 C 250.963 220.655, 251.612 220.260, 252.105 220.565 C 252.597 220.869, 253.003 220.079, 253.006 218.809 C 253.012 216.680, 253.133 216.732, 254.563 219.473 C 256.638 223.453, 256.703 223.492, 258.620 221.900 C 260.103 220.670, 260.215 220.746, 259.630 222.590 C 259.181 224.005, 259.612 225.244, 260.986 226.487 C 262.846 228.170, 263 228.179, 263 226.596 C 263 225.653, 263.419 225.141, 263.931 225.457 C 265.285 226.294, 266.013 224.638, 265.006 223.010 C 264.442 222.097, 264.700 221.209, 265.750 220.441 C 267.185 219.391, 267.075 218.984, 264.720 216.629 C 262.470 214.379, 260.255 213.600, 254.500 213.037 C 253.950 212.983, 254.287 212.481, 255.250 211.920 C 258.531 210.009, 257.242 207.411, 253.266 207.922 C 252.587 208.009, 252.270 207.459, 252.561 206.700 C 252.853 205.941, 252.396 204.743, 251.546 204.038 C 250.285 202.992, 250 202.997, 250 204.069 C 250 204.927, 249.558 204.777, 248.723 203.635 C 248.020 202.674, 247.151 202.182, 246.791 202.542 M 104.500 206 C 104.840 206.550, 105.793 207, 106.618 207 C 107.443 207, 107.840 206.550, 107.500 206 C 107.160 205.450, 106.207 205, 105.382 205 C 104.557 205, 104.160 205.450, 104.500 206 M 158 206.559 C 158 207.416, 158.450 207.840, 159 207.500 C 159.550 207.160, 160 206.459, 160 205.941 C 160 205.423, 159.550 205, 159 205 C 158.450 205, 158 205.702, 158 206.559 M 222.566 205.898 C 221.239 206.417, 221.004 206.884, 221.815 207.385 C 222.465 207.787, 223.997 207.415, 225.221 206.558 C 227.582 204.904, 226.066 204.527, 222.566 205.898 M 43 206.833 C 43 207.475, 42.045 208, 40.878 208 C 39.104 208, 38.960 208.247, 40 209.500 C 40.685 210.325, 41.587 211, 42.006 211 C 42.891 211, 44.142 206.809, 43.460 206.127 C 43.207 205.874, 43 206.192, 43 206.833 M 54.296 207.426 C 55.285 208.175, 56.967 208.560, 58.035 208.281 C 60.936 207.522, 59.345 205.995, 55.691 206.032 C 52.783 206.061, 52.659 206.185, 54.296 207.426 M 208 207.500 C 208 208.362, 208.902 209, 210.122 209 C 211.896 209, 212.040 208.753, 211 207.500 C 210.315 206.675, 209.360 206, 208.878 206 C 208.395 206, 208 206.675, 208 207.500 M 217.510 207.016 C 217.856 207.575, 218.557 207.774, 219.069 207.457 C 220.456 206.600, 220.198 206, 218.441 206 C 217.584 206, 217.165 206.457, 217.510 207.016 M 213.510 208.016 C 213.856 208.575, 214.557 208.774, 215.069 208.457 C 216.456 207.600, 216.198 207, 214.441 207 C 213.584 207, 213.165 207.457, 213.510 208.016 M 59.557 209.582 C 58.491 210.362, 57.945 211, 58.344 211 C 58.744 211, 58.589 211.900, 58 213 C 57.411 214.100, 56.319 215, 55.572 215 C 54.825 215, 53.914 215.787, 53.548 216.750 C 53.014 218.153, 53.131 218.252, 54.141 217.250 C 54.833 216.563, 56.601 216, 58.069 216 C 60.372 216, 60.821 215.492, 61.338 212.303 C 61.668 210.269, 61.839 208.506, 61.718 208.384 C 61.596 208.263, 60.624 208.802, 59.557 209.582 M 152.470 209.609 C 153.741 214.266, 150.705 216.563, 147.507 213.364 C 144.997 210.854, 143.841 212.938, 143.660 220.300 C 143.494 227.071, 144.472 229.695, 146.086 226.810 C 146.691 225.731, 147.877 225.292, 149.430 225.573 C 151.149 225.885, 152.717 225.130, 154.918 222.928 C 158.049 219.797, 158.808 218, 157 218 C 154.916 218, 156.120 216.193, 159 215 C 162.671 213.479, 162.837 211.703, 159.453 210.161 C 156.173 208.666, 156 208.689, 156 210.611 C 156 211.848, 155.524 211.674, 153.947 209.861 C 152.006 207.629, 151.926 207.615, 152.470 209.609 M 214 211.785 C 211.864 212.872, 210.657 214.138, 210.902 215.033 C 211.123 215.840, 211.332 217.287, 211.367 218.250 C 211.443 220.399, 213.343 220.514, 215.365 218.492 C 216.299 217.558, 217.109 217.368, 217.495 217.992 C 217.838 218.547, 218.631 219, 219.259 219 C 220.107 219, 220.103 218.703, 219.247 217.847 C 218.449 217.049, 218.401 216.120, 219.090 214.833 C 219.831 213.448, 219.755 213.039, 218.793 213.236 C 218.049 213.388, 217.625 212.757, 217.794 211.750 C 218.153 209.609, 218.277 209.608, 214 211.785 M 177 211.918 C 177 212.423, 176.688 213.661, 176.306 214.668 C 175.656 216.384, 175.719 216.394, 177.306 214.821 C 179.186 212.959, 179.542 211, 178 211 C 177.450 211, 177 211.413, 177 211.918 M 63.015 213.750 C 63.007 214.988, 63.450 216, 64 216 C 65.253 216, 65.253 214.939, 64 213 C 63.216 211.787, 63.028 211.931, 63.015 213.750 M 193 213.906 C 193 215.298, 193.522 215.676, 194.931 215.308 C 196.079 215.008, 196.644 214.235, 196.324 213.401 C 195.525 211.321, 193 211.704, 193 213.906 M 188.118 213.927 C 187.179 214.507, 187.396 214.870, 188.915 215.268 C 190.062 215.567, 191 215.431, 191 214.965 C 191 213.603, 189.510 213.067, 188.118 213.927 M 53 221 C 53 221.550, 53.450 222, 54 222 C 54.550 222, 55 221.550, 55 221 C 55 220.450, 54.550 220, 54 220 C 53.450 220, 53 220.450, 53 221 M 211.500 222 C 209.592 222.820, 209.603 222.863, 211.750 222.930 C 212.988 222.968, 214 222.550, 214 222 C 214 221.450, 213.887 221.032, 213.750 221.070 C 213.613 221.109, 212.600 221.527, 211.500 222 M 53.507 232.122 C 53.200 232.922, 53.151 234.685, 53.400 236.039 C 53.648 237.392, 53.899 239.175, 53.957 240 C 54.040 241.172, 54.380 241.082, 55.510 239.588 C 56.390 238.426, 56.719 236.662, 56.349 235.088 C 55.547 231.669, 54.214 230.278, 53.507 232.122 M 171 236.969 C 171 237.501, 171.675 237.678, 172.500 237.362 C 173.325 237.045, 174 236.609, 174 236.393 C 174 236.177, 173.325 236, 172.500 236 C 171.675 236, 171 236.436, 171 236.969 M 175.393 238.582 C 175.727 239.452, 176 240.663, 176 241.273 C 176 242.464, 178.915 239.004, 178.968 237.750 C 178.986 237.338, 178.052 237, 176.893 237 C 175.383 237, 174.958 237.448, 175.393 238.582 M 173.083 254.400 C 172.401 255.222, 171.977 256.930, 172.141 258.197 C 172.304 259.464, 172.088 261.063, 171.660 261.750 C 171.223 262.453, 171.345 263, 171.941 263 C 174.207 263, 174.535 263.197, 175.607 265.201 C 176.302 266.498, 176.967 266.863, 177.390 266.179 C 177.761 265.578, 178.747 265.350, 179.583 265.670 C 180.813 266.142, 180.968 265.706, 180.397 263.376 C 180.009 261.794, 179.199 260.169, 178.596 259.765 C 177.922 259.314, 178.174 259.025, 179.250 259.015 C 180.213 259.007, 181 258.550, 181 258 C 181 257.450, 180.523 257, 179.941 257 C 179.359 257, 179.104 256.641, 179.375 256.202 C 179.646 255.763, 179.448 254.751, 178.934 253.952 C 178.121 252.688, 177.870 252.695, 177 254 C 176.199 255.201, 175.833 255.242, 175.162 254.203 C 174.488 253.161, 174.079 253.199, 173.083 254.400" fill="none" stroke="#000" stroke-width="2px" fill-rule="evenodd"/>
</svg>
