<svg xmlns="http://www.w3.org/2000/svg" width="293" height="254" viewBox="0 0 293 254" version="1.1">
	<path d="M 126.667 3.667 C 126.300 4.033, 126 5.107, 126 6.053 C 126 8.750, 119.445 11.425, 115.622 10.287 C 113.154 9.553, 111.138 9.871, 106 11.808 C 102.425 13.155, 97.631 14.371, 95.347 14.509 C 90.108 14.828, 88.515 15.711, 89.986 17.483 C 90.784 18.444, 90.646 19.211, 89.463 20.394 C 87.628 22.229, 85.333 22.500, 84.814 20.943 C 84.205 19.114, 81.464 20.931, 80.340 23.909 C 79.747 25.480, 77.967 27.386, 76.383 28.145 C 74.641 28.980, 73.503 30.310, 73.502 31.513 C 73.500 33.631, 72.425 33.693, 67.750 31.845 C 66.237 31.247, 65 30.354, 65 29.860 C 65 29.367, 62.662 29.046, 59.804 29.147 C 55.538 29.298, 54.108 29.844, 51.804 32.200 C 50.262 33.778, 49 35.492, 49 36.009 C 49 36.526, 47.650 37.647, 46 38.500 C 42.500 40.310, 42.249 41.817, 44.963 44.730 C 46.962 46.876, 47.952 52.650, 46.676 54.716 C 46.264 55.381, 46.810 56.122, 47.985 56.495 C 49.093 56.847, 50 57.520, 50 57.990 C 50 59.271, 56.450 61.148, 58.347 60.420 C 59.455 59.995, 60 60.308, 60 61.368 C 60 62.578, 60.678 62.814, 62.884 62.373 C 64.595 62.031, 67.342 62.479, 69.634 63.475 C 72.786 64.843, 85.434 70.883, 86.881 71.711 C 87.494 72.061, 83.976 79.003, 83.203 78.968 C 81.883 78.908, 79 76.282, 79 75.140 C 79 74.513, 78.325 74, 77.500 74 C 76.675 74, 75.213 73.213, 74.250 72.250 C 73.287 71.287, 71.487 70.551, 70.250 70.613 C 69.013 70.676, 68 70.338, 68 69.863 C 68 69.389, 67.325 69, 66.500 69 C 65.675 69, 65 68.550, 65 68 C 65 66.027, 63.453 67.144, 60.727 71.083 C 59.203 73.287, 57.515 74.818, 56.977 74.486 C 56.440 74.154, 56 74.757, 56 75.827 C 56 78.198, 51.209 80.658, 45.266 81.339 C 40.931 81.836, 38.895 83.163, 37.725 86.250 C 37.361 87.213, 36.198 88, 35.142 88 C 34.086 88, 31.983 89.553, 30.470 91.451 C 28.956 93.350, 26.491 95.330, 24.991 95.853 C 23.279 96.450, 21.862 97.957, 21.184 99.902 C 20.590 101.606, 20.418 103.029, 20.802 103.063 C 21.186 103.098, 20.456 103.545, 19.181 104.057 C 17.368 104.784, 17.013 105.466, 17.557 107.179 C 17.940 108.385, 18.311 110.528, 18.382 111.941 C 18.526 114.802, 23.123 120.131, 23.771 118.188 C 23.989 117.534, 24.939 117, 25.883 117 C 26.827 117, 28.028 116.572, 28.551 116.049 C 29.137 115.463, 31.025 115.442, 33.467 115.992 C 35.947 116.552, 37.872 116.522, 38.607 115.911 C 39.253 115.375, 41.519 114.993, 43.641 115.064 C 48.095 115.212, 50.599 114.759, 57.409 112.575 C 63.082 110.755, 70.574 110.501, 71.559 112.096 C 72.242 113.201, 66.126 119.625, 64.769 119.227 C 64.367 119.109, 62.191 119.975, 59.934 121.151 C 55.959 123.223, 55.718 123.236, 52.193 121.555 C 48.564 119.824, 48.550 119.826, 46.479 122.424 C 44.712 124.639, 43.666 125.009, 39.452 124.905 C 36.728 124.838, 30.787 125.053, 26.250 125.384 C 21.224 125.750, 18 125.609, 18 125.024 C 18 124.495, 17.325 124.322, 16.500 124.638 C 15.675 124.955, 15 124.716, 15 124.107 C 15 121.489, 10.192 123.228, 6.208 127.288 C 0.904 132.692, 0.609 137.212, 5.500 138.153 C 7.078 138.457, 7.471 139.274, 7.364 142.019 C 7.229 145.458, 7.879 146.338, 15 152.370 C 18.995 155.754, 23.391 156.856, 28.881 155.849 C 32.613 155.164, 34.589 155.189, 35.331 155.931 C 35.919 156.519, 37.885 157, 39.700 157 C 42.553 157, 43 157.338, 43 159.500 C 43 160.875, 43 162.225, 43 162.500 C 43 162.775, 42.663 163.070, 42.250 163.155 C 41.837 163.241, 40.108 163.892, 38.408 164.603 C 36.707 165.314, 34.440 165.666, 33.370 165.386 C 32.084 165.050, 30.298 165.954, 28.103 168.052 C 25.395 170.640, 24.196 171.131, 21.609 170.711 C 19.828 170.422, 17.353 170.796, 15.968 171.563 C 14.611 172.314, 12.536 172.945, 11.357 172.965 C 8.993 173.004, 7.575 175.448, 8.748 177.462 C 9.162 178.171, 10.943 179.957, 12.708 181.429 C 15.468 183.733, 16.445 184.001, 19.708 183.351 C 21.793 182.935, 23.898 182.706, 24.383 182.842 C 24.869 182.978, 27.117 183.204, 29.379 183.345 C 32.323 183.529, 33.585 184.084, 33.819 185.301 C 33.999 186.235, 34.564 187, 35.073 187 C 35.583 187, 36 187.722, 36 188.604 C 36 189.921, 36.807 190.110, 40.500 189.658 C 43.919 189.239, 45 189.437, 45 190.482 C 45 192.643, 42.093 195, 39.429 195 C 36.536 195, 36.200 197.412, 38.611 200.855 C 40.125 203.016, 40.094 203.246, 38.111 204.635 C 35.392 206.539, 35.486 207.844, 38.602 211.387 C 41.024 214.143, 41.321 214.220, 45.091 213.091 C 47.263 212.440, 49.594 212.253, 50.271 212.676 C 52.131 213.838, 53.926 213.929, 54.565 212.895 C 54.880 212.385, 55.557 212.226, 56.069 212.543 C 56.581 212.859, 57 212.615, 57 212 C 57 211.385, 57.459 211.166, 58.020 211.512 C 59.320 212.316, 66 210.148, 66 208.922 C 66 208.415, 66.675 208, 67.500 208 C 68.325 208, 69 207.495, 69 206.878 C 69 206.108, 69.478 206.152, 70.519 207.016 C 71.762 208.047, 72.399 207.949, 74.028 206.474 C 75.726 204.938, 76.368 204.859, 78.385 205.938 C 80.397 207.015, 81.459 206.890, 85.502 205.102 C 88.116 203.946, 90.850 203, 91.577 203 C 92.305 203, 93.260 202.415, 93.700 201.700 C 94.716 200.049, 101.190 198.148, 108.013 197.499 C 110.921 197.222, 113.851 196.539, 114.524 195.980 C 115.841 194.887, 119 195.661, 119 197.077 C 119 197.552, 120.688 197.841, 122.750 197.720 C 125.637 197.551, 126.422 197.845, 126.161 199 C 125.975 199.825, 125.569 208.280, 125.259 217.789 C 124.709 234.634, 124.628 235.152, 122.097 237.944 C 119.031 241.327, 113.375 244.358, 111.483 243.632 C 110.748 243.350, 109.645 243.722, 109.033 244.460 C 108.136 245.542, 108.944 245.947, 113.210 246.553 C 116.119 246.966, 119.625 247.386, 121 247.486 C 122.375 247.585, 124.885 248.389, 126.579 249.271 C 128.958 250.510, 130.931 250.701, 135.264 250.113 C 138.348 249.695, 141.462 248.888, 142.185 248.320 C 144.084 246.831, 152.219 245, 156.943 245 C 163.966 245, 161.191 241.194, 153.702 240.553 C 142.941 239.634, 141.554 236.329, 141.877 212.367 C 141.991 203.931, 142.163 203.191, 144.137 202.675 C 145.588 202.295, 146.834 202.809, 148.022 204.275 C 149.537 206.147, 149.992 206.251, 151.428 205.060 C 153.957 202.961, 155.224 205.014, 153.477 208.381 C 152.040 211.151, 152.062 211.201, 154.411 210.612 C 155.733 210.280, 157.531 209.733, 158.407 209.397 C 159.448 208.998, 160 209.331, 160 210.358 C 160 212.616, 163.183 214, 168.375 214 C 170.854 214, 173.160 214.450, 173.500 215 C 175.120 217.621, 187.123 214.544, 192.231 210.197 C 193.629 209.008, 194.253 208.965, 195.469 209.975 C 196.699 210.995, 197.090 210.928, 197.595 209.613 C 197.936 208.726, 197.937 207.277, 197.598 206.394 C 197.059 204.990, 197.768 204.860, 203.241 205.361 C 211.991 206.162, 215.978 206.960, 219.828 208.681 C 222.808 210.012, 223.340 210.002, 224.907 208.584 C 225.870 207.713, 226.992 207, 227.400 207 C 227.809 207, 228.786 206.356, 229.573 205.570 C 230.536 204.607, 232.435 204.280, 235.383 204.568 C 238 204.825, 241.241 204.379, 243.437 203.462 L 247.112 201.927 246.373 197.213 C 245.966 194.621, 245.620 191.715, 245.603 190.755 C 245.586 189.796, 245.105 189.062, 244.536 189.124 C 243.966 189.186, 241.925 189.165, 240 189.077 L 236.500 188.916 240 187 C 244.884 184.326, 248.198 184.525, 251.604 187.697 C 253.197 189.180, 255.400 190.486, 256.500 190.599 C 259.885 190.947, 263 189.857, 263 188.325 C 263 187.154, 264.194 186.961, 269.048 187.349 C 273.143 187.676, 275.968 187.377, 277.798 186.422 C 279.284 185.647, 281.097 185.010, 281.827 185.006 C 282.557 185.003, 284.469 183.685, 286.077 182.077 C 288.270 179.884, 289 178.216, 289 175.398 C 289 171.197, 287.057 165, 285.740 165 C 285.268 165, 285.124 164.608, 285.420 164.129 C 286.054 163.103, 282.722 159, 281.255 159 C 280.700 159, 279.730 158.379, 279.100 157.621 C 276.859 154.921, 272.255 154.911, 266.390 157.593 C 260.922 160.094, 257.440 160.181, 258.235 157.795 C 258.456 157.133, 260.180 156.193, 262.068 155.706 C 266.404 154.587, 266.296 154.743, 264.877 151.629 C 264.093 149.909, 262.890 149, 261.399 149 C 258.386 149, 257.432 147.315, 259.985 146.505 C 262.708 145.640, 262.525 143.390, 259.573 141.456 C 257.604 140.166, 256.424 140.066, 253.323 140.927 C 247.210 142.625, 244.876 142.214, 249 140.166 C 252.740 138.309, 253.242 135.629, 250.257 133.446 C 247.900 131.723, 250.389 130.661, 254.815 131.503 C 262.710 133.004, 268.413 132.645, 273.765 130.309 L 279.030 128.012 278.568 122.423 C 278.314 119.348, 277.625 116.253, 277.036 115.543 C 276.447 114.834, 276.249 113.516, 276.595 112.614 C 276.941 111.712, 276.634 110.264, 275.914 109.396 C 275.193 108.528, 274.707 106.283, 274.833 104.409 C 274.963 102.474, 274.591 101, 273.972 101 C 273.373 101, 273.160 100.550, 273.500 100 C 273.840 99.450, 273.442 99, 272.616 99 C 271.789 99, 270.489 98.109, 269.727 97.020 C 268.964 95.931, 266.678 94.346, 264.647 93.497 C 262.616 92.648, 260.162 91.177, 259.193 90.227 C 258.225 89.277, 256.548 88.393, 255.466 88.263 C 254.385 88.133, 251.864 87.752, 249.864 87.417 C 244.413 86.504, 242 88.227, 242 93.035 C 242 95.216, 241.550 97, 241 97 C 240.450 97, 240 96.064, 240 94.921 C 240 93.130, 239.583 92.933, 237 93.500 C 234.710 94.003, 234 93.805, 234 92.663 C 234 91.840, 234.563 90.938, 235.250 90.659 C 236.213 90.269, 236.180 89.929, 235.107 89.178 C 234.338 88.642, 233.946 87.316, 234.231 86.223 C 234.653 84.610, 233.982 83.999, 230.625 82.935 C 228.356 82.217, 225.375 81.506, 224 81.355 C 218.347 80.736, 214 79.738, 214 79.060 C 214 78.148, 217.867 76.202, 220.500 75.789 C 222.001 75.554, 222.542 74.633, 222.669 72.097 C 222.761 70.239, 223.670 67.886, 224.688 66.868 C 226.875 64.681, 237.114 62.562, 240.283 63.641 C 241.502 64.057, 242.885 64.291, 243.355 64.163 C 243.826 64.035, 244.809 64.427, 245.541 65.034 C 247.383 66.563, 251.742 64.342, 250.107 62.707 C 248.533 61.133, 248.737 58.463, 250.547 56.961 C 252.538 55.308, 250.787 54.037, 246.490 54.015 C 244.305 54.004, 242.662 53.047, 240.490 50.522 C 238.846 48.608, 236.938 47.033, 236.250 47.022 C 235.563 47.010, 235 46.109, 235 45.019 C 235 43.062, 236.406 42.410, 242 41.777 C 244.002 41.550, 244.445 41.005, 244.225 39.040 C 244.074 37.691, 243.403 36.249, 242.734 35.835 C 241.781 35.247, 241.786 34.814, 242.758 33.842 C 244.947 31.653, 244.102 30.269, 239.928 29.210 C 235.794 28.160, 231.983 29.313, 228.224 32.750 C 226.629 34.208, 223.119 34.361, 221.064 33.061 C 219.857 32.297, 219.843 31.894, 220.972 30.534 C 223.313 27.713, 220.731 26.470, 216.835 28.542 C 215.001 29.517, 211.250 30.582, 208.500 30.907 C 204.112 31.428, 203.461 31.806, 203.179 34 C 202.794 37.007, 200.453 39, 197.309 39 C 194.894 39, 194.128 40.543, 196.201 41.234 C 197.068 41.523, 197.090 41.826, 196.281 42.326 C 195.665 42.707, 194.413 42.271, 193.500 41.357 C 192.089 39.946, 191.011 39.845, 186.368 40.686 C 181.664 41.539, 180.775 41.448, 180.019 40.035 C 178.611 37.405, 180.230 36.093, 185.541 35.558 C 189.029 35.206, 190.907 34.456, 191.872 33.029 C 192.627 31.913, 193.878 31, 194.653 31 C 196.984 31, 197.286 28.286, 195.190 26.190 C 194.110 25.110, 192.819 23.500, 192.323 22.612 C 191.673 21.451, 189.659 20.917, 185.139 20.708 C 181.685 20.549, 178.688 20.695, 178.480 21.033 C 178.271 21.371, 176.171 21.389, 173.813 21.074 C 167.724 20.259, 167.396 17.539, 173.188 15.890 C 179.023 14.229, 179.709 13.441, 177.470 10.967 C 176.140 9.497, 174.883 9.064, 173.187 9.489 C 171.658 9.873, 170.373 9.556, 169.644 8.616 C 169.015 7.804, 166.922 6.903, 164.993 6.614 C 161.902 6.151, 161.285 6.439, 159.789 9.044 C 158.286 11.664, 157.554 12, 153.355 12 C 149.367 12, 148.874 11.802, 150.240 10.750 C 151.132 10.063, 152.005 8.642, 152.181 7.592 C 152.622 4.956, 148.858 4.083, 138.992 4.534 C 134.355 4.746, 131 4.501, 131 3.950 C 131 2.871, 127.680 2.654, 126.667 3.667 M 95 43.001 C 94.175 43.534, 92.509 43.976, 91.297 43.985 C 90.085 43.993, 87.966 44.514, 86.588 45.142 C 84.548 46.072, 84.266 46.629, 85.076 48.142 C 86.384 50.586, 88.425 50.498, 90.135 47.923 C 90.893 46.781, 92.995 45.544, 94.806 45.173 C 96.617 44.803, 98.111 44.061, 98.125 43.525 C 98.161 42.120, 96.736 41.880, 95 43.001 M 203.538 137.742 C 202.139 139.251, 201.221 140.938, 201.497 141.492 C 201.773 142.047, 202.276 143.287, 202.616 144.250 C 203.366 146.375, 205 146.568, 205 144.531 C 205 143.724, 205.563 143.274, 206.250 143.532 C 208.124 144.235, 210.162 139.172, 208.931 136.872 C 207.577 134.342, 206.535 134.510, 203.538 137.742 M 190.586 148.491 C 191.484 149.862, 192.610 150.741, 193.089 150.445 C 194.253 149.726, 191.862 146, 190.236 146 C 189.287 146, 189.377 146.647, 190.586 148.491 M 203.565 149.895 C 202.901 150.970, 205.798 152.243, 207.090 151.444 C 207.591 151.135, 208 151.584, 208 152.441 C 208 153.333, 208.855 154, 210 154 C 211.100 154, 212 154.540, 212 155.200 C 212 156.094, 212.319 156.074, 213.250 155.125 C 214.254 154.101, 213.910 153.375, 211.500 151.430 C 208.477 148.991, 204.588 148.239, 203.565 149.895 M 192.667 153.667 C 192.300 154.033, 192 154.798, 192 155.367 C 192 155.993, 192.466 155.934, 193.183 155.217 C 193.834 154.566, 194.134 153.801, 193.850 153.517 C 193.566 153.232, 193.033 153.300, 192.667 153.667" fill="none" stroke="#000" stroke-width="2px" fill-rule="evenodd"/>
</svg>
