<svg xmlns="http://www.w3.org/2000/svg" width="297" height="199" viewBox="0 0 297 199" version="1.1">
	<path d="M 132.867 14.191 C 132.794 18.761, 132.805 26.100, 132.891 30.500 C 133.102 41.274, 131.671 38.563, 129.461 24 C 127.650 12.067, 126.189 6.345, 126.063 10.695 C 126.029 11.902, 126.906 19.059, 128.014 26.597 C 129.122 34.136, 129.860 40.473, 129.654 40.680 C 129.448 40.886, 128.523 38.230, 127.600 34.777 C 126.677 31.325, 125.068 25.575, 124.026 22 C 122.983 18.425, 121.804 14.150, 121.405 12.500 C 120.921 10.496, 120.546 10.063, 120.277 11.195 C 120.056 12.128, 121.028 17.676, 122.437 23.525 C 125.546 36.426, 125.573 37.481, 122.577 29 C 116.455 11.672, 115.629 9.612, 115.257 10.729 C 115.037 11.389, 115.995 15.658, 117.385 20.216 C 119.772 28.042, 120.372 33, 118.932 33 C 118.578 33, 115.882 27.539, 112.940 20.864 C 109.998 14.189, 107.441 9.178, 107.257 9.729 C 107.073 10.280, 107.904 13.154, 109.103 16.115 C 111.374 21.727, 115.072 34.262, 114.595 34.738 C 114.445 34.889, 111.936 30.707, 109.021 25.444 C 100.750 10.515, 99.136 10.035, 106.626 24.732 C 110.334 32.010, 113.116 38.218, 112.806 38.527 C 112.497 38.836, 108.284 32.999, 103.444 25.556 C 98.605 18.112, 94.451 12.215, 94.214 12.452 C 93.717 12.949, 99.549 22.977, 105 31 C 108.681 36.417, 114.101 46.450, 112.293 44.500 C 111.783 43.950, 106.292 37.088, 100.091 29.250 C 93.890 21.412, 88.617 15, 88.373 15 C 87.463 15, 90.075 18.858, 99.882 32 C 105.423 39.425, 109.961 45.950, 109.967 46.500 C 109.973 47.050, 108.745 45.925, 107.239 44 C 103.714 39.497, 85.915 20, 85.329 20 C 84.234 20, 90.470 27.858, 100.741 39.420 C 109.431 49.203, 106.694 47.405, 95.308 35.851 C 89.427 29.883, 84.201 25, 83.694 25 C 83.187 25, 88.224 30.796, 94.886 37.879 C 107.315 51.093, 111.104 56.356, 101.750 47.412 C 92.570 38.634, 80.937 28.730, 80.417 29.250 C 80.141 29.526, 84.322 33.851, 89.708 38.862 C 95.093 43.873, 99.226 47.979, 98.890 47.987 C 98.555 47.994, 94.730 45.038, 90.390 41.418 C 80.699 33.334, 76.263 30.934, 84.461 38.210 C 98.406 50.587, 99.021 51.513, 88.644 44.505 C 77.447 36.942, 76.834 37.389, 87.134 45.607 C 90.986 48.680, 93.885 51.449, 93.575 51.758 C 93.266 52.068, 92.187 51.574, 91.177 50.661 C 90.168 49.747, 89.009 49, 88.601 49 C 88.194 49, 85.979 47.727, 83.680 46.170 C 76.555 41.346, 76.277 41.614, 82.500 47.308 C 85.800 50.327, 88.777 52.629, 89.116 52.422 C 89.455 52.216, 90.580 53.041, 91.616 54.256 C 93.464 56.424, 93.464 56.437, 91.596 54.983 C 90.549 54.167, 89.424 53.555, 89.096 53.623 C 88.087 53.830, 85.669 52.913, 81.684 50.811 C 79.586 49.704, 77.631 49.035, 77.341 49.325 C 77.051 49.615, 78.206 50.572, 79.907 51.452 C 83.229 53.170, 84.131 54.612, 81.250 53.598 C 80.287 53.259, 81.075 54.324, 83 55.964 C 87.244 59.580, 85.685 59.954, 80.640 56.530 C 76.664 53.832, 76.217 54.271, 78.494 58.636 C 80.317 62.132, 80.434 64.338, 78.750 63.485 C 78.063 63.137, 78.214 63.448, 79.087 64.176 C 79.959 64.904, 81.213 66.513, 81.872 67.750 C 82.851 69.589, 82.811 70, 81.653 70 C 80.873 70, 78.345 67.099, 76.035 63.554 C 71.530 56.638, 67.488 52.255, 69.992 57 C 70.718 58.375, 73.306 62.797, 75.745 66.827 C 78.184 70.857, 79.970 74.364, 79.714 74.619 C 79.459 74.875, 78.301 73.602, 77.142 71.792 C 75.982 69.981, 75.026 69.107, 75.017 69.850 C 75.008 70.592, 72.032 67.523, 68.404 63.030 C 64.775 58.536, 61.574 55.092, 61.290 55.377 C 61.005 55.662, 61.730 57.112, 62.900 58.600 C 66.296 62.918, 64.434 62.679, 59.005 58.102 C 53.974 53.859, 52.514 53.556, 55.729 57.421 C 56.679 58.565, 55.712 57.925, 53.579 56 C 51.445 54.075, 50.019 53.062, 50.409 53.750 C 51.509 55.690, 49.869 55.226, 47.388 52.895 C 44.550 50.229, 42.086 51.332, 44.622 54.135 C 45.585 55.199, 46.988 55.835, 47.739 55.547 C 48.582 55.223, 48.834 55.460, 48.397 56.166 C 47.999 56.810, 48.130 57.037, 48.698 56.687 C 49.252 56.344, 50.559 56.726, 51.603 57.534 C 53.463 58.976, 53.462 58.992, 51.586 58.333 C 50.138 57.824, 49.876 57.991, 50.511 59.018 C 50.973 59.765, 49.234 58.829, 46.648 56.938 C 44.061 55.047, 40.945 52.830, 39.722 52.012 C 37.683 50.646, 37.608 50.660, 38.807 52.183 C 39.948 53.632, 39.853 53.774, 38.057 53.305 C 36.842 52.987, 36 53.248, 36 53.942 C 36 54.589, 35.550 54.840, 35 54.500 C 33.134 53.347, 33.989 55.169, 36.250 57.166 C 37.487 58.258, 37.938 58.867, 37.250 58.517 C 36.563 58.168, 36 58.310, 36 58.834 C 36 59.358, 36.739 60.070, 37.643 60.417 C 38.547 60.763, 39.035 61.298, 38.729 61.605 C 38.422 61.911, 37.120 61.610, 35.836 60.936 C 30.194 57.973, 37.511 64.068, 46.838 70.101 C 63.430 80.833, 67.015 83.319, 66.558 83.775 C 66.314 84.019, 64.852 83.338, 63.308 82.262 C 60.096 80.025, 34.365 66, 33.472 66 C 31.599 66, 35.272 68.601, 44.287 73.658 C 54.332 79.292, 62.942 84.781, 60 83.674 C 56.884 82.501, 31.317 71.240, 29.206 70.110 C 27.993 69.461, 27 69.332, 27 69.824 C 27 70.315, 30.487 72.373, 34.750 74.395 C 47.064 80.239, 56.676 85.106, 54.500 84.396 C 53.400 84.038, 45.351 81.313, 36.614 78.341 C 19.737 72.600, 14.653 71.759, 27.683 76.862 C 35.753 80.023, 36.627 81.191, 28.876 78.456 C 25.077 77.115, 17.629 75.223, 9 73.405 C 3.533 72.253, 10.220 75.176, 23.254 79.636 C 38.449 84.835, 48 88.888, 48 90.137 C 48 90.611, 48.589 91, 49.309 91 C 50.029 91, 51.491 91.712, 52.559 92.582 C 54.477 94.144, 54.476 94.156, 52.530 93.529 C 49.072 92.415, 51.913 94.345, 57.296 96.766 C 62.079 98.918, 61.695 99.064, 55.750 97.352 C 52.141 96.313, 54.088 97.663, 59.503 99.952 C 63.881 101.804, 62.636 102.082, 57.343 100.435 C 56.312 100.115, 56.602 100.538, 58 101.395 C 60.873 103.158, 59.445 103.473, 55.315 101.988 C 52.553 100.994, 52.565 101.029, 55.903 103.836 C 57.774 105.410, 59.025 107.151, 58.683 107.704 C 58.300 108.324, 59.067 108.519, 60.679 108.211 C 62.483 107.866, 63.077 108.066, 62.590 108.855 C 62.148 109.569, 62.634 110, 63.882 110 C 64.982 110, 66.160 110.450, 66.500 111 C 66.852 111.569, 65.991 112, 64.500 112 C 63.060 112, 62.127 112.396, 62.426 112.880 C 62.725 113.365, 66.802 114.080, 71.485 114.470 C 76.168 114.860, 80 115.519, 80 115.935 C 80 116.350, 79.058 117.542, 77.907 118.584 C 76.756 119.625, 75.352 121.383, 74.787 122.489 C 74.222 123.595, 75.743 122.588, 78.168 120.250 C 83.400 115.205, 86.887 114.380, 82.394 119.250 C 77.629 124.415, 76.268 126.775, 79.943 123.500 C 81.794 121.850, 82.957 121.113, 82.527 121.862 C 82.071 122.655, 82.268 123.548, 83 124 C 83.691 124.427, 83.947 125.277, 83.569 125.888 C 82.491 127.632, 80.991 127.188, 81.701 125.336 C 82.131 124.217, 81.957 123.909, 81.170 124.395 C 80.526 124.793, 80 126.415, 80 128 C 80 129.585, 79.567 131.150, 79.038 131.477 C 77.721 132.290, 65.303 130.096, 61 128.290 C 55.444 125.958, 49 124.132, 49 124.890 C 49 125.273, 51.086 126.143, 53.635 126.825 C 56.184 127.506, 58.058 128.275, 57.800 128.534 C 57.542 128.792, 53.994 128.155, 49.915 127.119 C 45.837 126.083, 40.475 124.939, 38 124.576 C 31.070 123.560, 35.265 125.482, 44.500 127.555 C 53.790 129.641, 56.571 131.122, 48.810 129.851 C 36.432 127.824, 30.267 127.038, 26.583 127.020 C 20.255 126.988, 23.026 127.954, 32.601 129.118 C 46.664 130.826, 45.312 131.625, 28.774 131.378 C 17.704 131.213, 15.014 131.378, 19 131.976 C 22.025 132.431, 27.425 132.892, 31 133.001 C 39.549 133.262, 35.408 134.735, 25.500 134.958 C 21.650 135.044, 16.700 135.512, 14.500 135.997 C 11.592 136.638, 14.102 136.827, 23.701 136.689 C 30.961 136.585, 36.586 136.767, 36.201 137.094 C 35.815 137.421, 30.648 138.229, 24.717 138.889 C 10.992 140.416, 6.241 142.167, 17.500 141.549 L 25.500 141.109 17.750 142.658 C 12.524 143.703, 10 144.662, 10 145.604 C 10 146.372, 9.438 147.045, 8.750 147.100 C 8.063 147.155, 8.625 147.560, 10 148 C 11.667 148.534, 11.917 148.834, 10.750 148.900 C 9.787 148.955, 9 149.486, 9 150.079 C 9 150.757, 10.209 150.929, 12.250 150.542 L 15.500 149.925 13 151.427 C 11.454 152.356, 11.073 152.949, 12 152.980 C 13.333 153.025, 13.333 153.138, 12 154 C 10.738 154.815, 10.798 154.972, 12.372 154.985 C 13.923 154.997, 14.031 155.258, 13 156.500 C 11.288 158.563, 12.786 158.426, 19.521 155.906 C 23.425 154.446, 25.931 154.052, 27.808 154.603 C 30.835 155.492, 31.844 155.706, 34 155.915 C 36.869 156.194, 32.820 157.734, 27.251 158.482 C 24.364 158.870, 21.707 159.665, 21.346 160.250 C 20.906 160.961, 21.744 161.101, 23.882 160.674 C 25.638 160.322, 31.445 159.802, 36.787 159.517 L 46.500 158.999 33.500 162.602 C 26.350 164.583, 20.313 166.383, 20.083 166.602 C 18.807 167.821, 21.658 167.532, 31.931 165.401 C 43.163 163.071, 48.389 162.795, 39.851 164.984 C 32.904 166.764, 20.993 171.202, 20.344 172.252 C 19.980 172.841, 20.670 172.919, 22.125 172.453 C 31.585 169.420, 37.557 169.335, 29.500 172.348 C 26.200 173.582, 22.600 175.155, 21.500 175.844 C 19.373 177.175, 19.318 177.182, 26 175.304 C 26.825 175.072, 25.700 175.865, 23.500 177.067 C 18.740 179.666, 18.514 179.847, 19.189 180.523 C 19.477 180.810, 22.744 179.685, 26.449 178.023 C 36.025 173.727, 35.886 174.330, 26.121 179.459 C 17.270 184.106, 12.999 187.249, 19 184.698 C 20.925 183.879, 26.325 181.426, 31 179.245 C 41.222 174.478, 48 171.816, 48 172.569 C 48 172.873, 44.396 174.816, 39.992 176.886 C 35.587 178.957, 32.234 180.900, 32.539 181.206 C 32.845 181.511, 30.039 183.691, 26.304 186.050 C 22.570 188.408, 20.040 190.513, 20.684 190.728 C 21.327 190.942, 23.603 190.013, 25.742 188.663 C 30.480 185.672, 46 177.812, 46 178.403 C 46 178.637, 43.814 180.174, 41.142 181.817 C 35.581 185.239, 30.583 189.916, 31.504 190.837 C 31.848 191.181, 33.487 190.683, 35.146 189.731 C 36.805 188.779, 38.646 188, 39.237 188 C 39.828 188, 41.929 186.841, 43.906 185.426 C 47.075 183.155, 46.983 183.333, 43.121 186.926 C 38.983 190.776, 38.880 191, 41.249 191 C 42.627 191, 44.315 190.325, 45 189.500 C 46.610 187.560, 48.383 187.560, 47.638 189.500 C 47.227 190.572, 47.736 191, 49.423 191 C 51.860 191, 56.465 187.793, 65.221 180 C 69.249 176.415, 70.133 175.957, 69.571 177.750 C 68.843 180.071, 70.498 181.039, 71.281 178.750 C 71.516 178.063, 71.531 178.550, 71.314 179.834 C 70.735 183.262, 72.636 181.569, 73.345 178.025 C 74.009 174.704, 76.764 170, 78.045 170 C 78.494 170, 78.448 171.439, 77.943 173.199 C 77.430 174.988, 77.407 176.641, 77.891 176.949 C 78.367 177.252, 77.463 180.164, 75.882 183.421 C 74.302 186.677, 73.201 189.534, 73.437 189.770 C 73.673 190.006, 75.051 187.859, 76.500 185 C 79.133 179.805, 80.840 178.599, 79.174 183.111 C 78.690 184.425, 77.985 186.771, 77.609 188.324 C 77.001 190.833, 77.173 191.113, 79.139 190.824 C 80.609 190.609, 83.347 187.643, 87.285 182 C 92.749 174.169, 93.181 173.775, 92.770 177 C 92.524 178.925, 91.357 182.863, 90.176 185.750 C 86.808 193.986, 89.914 192.326, 94.319 183.536 C 96.376 179.431, 98.913 175.474, 99.957 174.743 C 101.001 174.012, 102.440 172.083, 103.157 170.457 C 103.873 168.831, 104.852 167.220, 105.333 166.877 C 105.813 166.535, 105.675 165.261, 105.025 164.047 C 104.375 162.832, 103.681 159.852, 103.484 157.424 C 103.286 154.996, 102.844 152.556, 102.502 152.003 C 102.160 151.449, 103.061 150.547, 104.505 149.998 C 107.957 148.686, 108.662 148.738, 107.200 150.200 C 106.540 150.860, 106 152.035, 106 152.811 C 106 153.716, 106.734 153.376, 108.049 151.861 L 110.099 149.500 108.676 152.500 C 107.894 154.150, 106.912 156.625, 106.494 158 C 105.757 160.424, 105.794 160.447, 107.698 158.748 C 108.778 157.784, 109.902 157.235, 110.194 157.528 C 110.487 157.820, 112.700 155.592, 115.113 152.577 C 117.526 149.562, 119.838 147.073, 120.250 147.047 C 121.712 146.955, 120.962 148.773, 118 152.500 C 116.350 154.576, 115.013 156.551, 115.029 156.888 C 115.065 157.639, 119.954 152.331, 122.266 149.031 C 123.194 147.705, 124.196 146.862, 124.491 147.158 C 124.786 147.453, 124.089 148.888, 122.941 150.347 C 120.828 153.034, 121.516 154.048, 123.893 151.750 C 124.798 150.875, 124.718 151.636, 123.628 154.287 C 121.706 158.961, 123.315 158.202, 125.965 153.185 L 127.912 149.500 128.004 152.500 L 128.096 155.500 129.801 152 C 131.007 149.527, 132.275 148.411, 134.126 148.196 C 137.312 147.826, 138.190 149.626, 137.040 154.175 C 135.076 161.948, 134.938 164.238, 136.472 163.649 C 137.277 163.340, 138.171 163.468, 138.459 163.934 C 138.747 164.400, 137.383 165.081, 135.427 165.448 C 131.596 166.166, 131.160 168.421, 134.815 168.613 C 137.471 168.752, 140 170.754, 140 172.718 C 140 173.528, 139.386 175.386, 138.635 176.846 C 136.137 181.703, 133 189.041, 133 190.027 C 133 190.622, 139.997 191, 151 191 C 160.900 191, 169 190.887, 168.999 190.750 C 168.997 189.555, 164.545 179.167, 163.535 178 C 162.821 177.175, 161.928 175.488, 161.551 174.251 C 160.999 172.440, 161.367 171.811, 163.433 171.026 C 166.630 169.810, 166.849 167.011, 163.750 166.970 C 161.741 166.942, 161.687 166.830, 163.250 165.920 C 165.634 164.531, 165.448 163.525, 162.565 162.212 C 160.761 161.390, 160.152 160.350, 160.214 158.195 C 160.259 156.596, 159.997 154.804, 159.632 154.213 C 159.266 153.622, 159.388 152.878, 159.902 152.560 C 160.417 152.243, 161.133 153.331, 161.496 154.980 C 161.858 156.628, 162.598 158.252, 163.141 158.587 C 164.118 159.191, 163.812 156.339, 161.951 147.527 C 161.490 145.342, 161.272 143.395, 161.466 143.200 C 161.661 143.006, 163.417 146.256, 165.368 150.423 C 169.244 158.699, 170.753 160.386, 168.456 153.874 C 167.655 151.605, 167 148.905, 167 147.874 C 167 146.843, 166.602 146, 166.117 146 C 165.631 146, 165.018 144.875, 164.755 143.500 C 164.492 142.125, 164.665 141, 165.139 141 C 165.612 141, 166 141.418, 166 141.929 C 166 142.439, 166.577 143.452, 167.283 144.179 C 167.989 144.905, 169.613 146.988, 170.892 148.808 C 174.206 153.519, 174.611 152.057, 171.574 146.351 C 168.949 141.421, 168.271 138, 169.917 138 C 170.421 138, 170.990 138.337, 171.181 138.750 C 171.371 139.162, 173.248 141.075, 175.350 143 C 178.310 145.711, 179.096 146.072, 178.836 144.604 C 178.651 143.561, 179.063 142.511, 179.750 142.270 C 181.140 141.784, 181.345 144.026, 180.359 148.953 C 179.939 151.053, 178.906 152.466, 177.359 153.053 C 176.062 153.547, 175 154.217, 175 154.543 C 175 155.765, 179.610 153.679, 182.500 151.150 C 184.150 149.706, 183.250 150.945, 180.500 153.905 C 175.849 158.910, 175.849 159.928, 180.500 156.023 C 181.600 155.100, 183.619 154.287, 184.987 154.216 C 186.825 154.122, 187.099 154.321, 186.035 154.978 C 185.243 155.468, 184.225 155.639, 183.773 155.360 C 183.321 155.080, 183.074 155.275, 183.225 155.793 C 183.376 156.312, 182.375 157.729, 181 158.944 C 178.259 161.365, 179.926 160.762, 184.250 157.768 C 187.377 155.603, 187.837 156.356, 185.250 159.404 C 183.838 161.067, 183.816 161.222, 185.133 160.207 C 187.373 158.482, 188.210 160.781, 186.947 165.186 C 186.426 167.001, 186 168.506, 186 168.529 C 186 168.552, 186.900 168.571, 188 168.571 C 189.100 168.571, 190 167.997, 190 167.295 C 190 166.594, 192.025 163.062, 194.500 159.447 C 196.975 155.831, 199 152.377, 199 151.770 C 199 151.163, 199.263 150.929, 199.584 151.250 C 199.905 151.571, 199.230 153.953, 198.084 156.544 C 195.697 161.939, 195.342 164.861, 197.572 160.750 C 199.715 156.799, 200.294 157.362, 198.500 161.654 C 197.661 163.663, 197.185 165.519, 197.444 165.777 C 198.040 166.374, 200.085 161.644, 203.547 151.666 C 206.002 144.587, 209.007 140, 211.189 140 C 211.635 140, 212 143.375, 212 147.500 C 212 151.833, 212.422 155, 213 155 C 213.567 155, 214 152.111, 214 148.333 C 214 144.667, 214.245 141.912, 214.545 142.212 C 215.290 142.956, 219 158.657, 219 161.063 C 219 162.129, 219.454 163, 220.009 163 C 221.417 163, 219.607 147.302, 217.530 141.500 C 216.058 137.390, 220.804 144.357, 223.643 150.474 C 226.961 157.624, 226.866 157.467, 227.503 156.831 C 228.245 156.088, 224.364 145.325, 221.938 141.400 L 219.838 138.002 224.502 140.001 C 230.575 142.604, 231.143 142.481, 227.500 139.350 C 225.850 137.932, 225.175 136.992, 226 137.261 C 229.714 138.469, 263.672 152.701, 274.500 157.587 C 281.100 160.565, 286.823 163.001, 287.219 163.001 C 287.614 163, 287.696 162.371, 287.400 161.601 C 287.105 160.832, 284.194 159.045, 280.932 157.630 C 277.669 156.215, 275 154.813, 275 154.515 C 275 154.217, 276.688 154.696, 278.750 155.580 C 282.784 157.309, 290.014 160, 290.626 160 C 292.123 160, 290.430 158.077, 287.750 156.733 L 284.500 155.104 287.750 155.677 C 292.904 156.586, 291.575 155.538, 283.750 152.522 C 277.398 150.074, 270.319 145.347, 271.395 144.272 C 271.600 144.066, 275.383 144.821, 279.801 145.949 C 288.253 148.107, 293.365 148.661, 289.500 147 L 287.500 146.141 289.500 146 L 291.500 145.859 289.500 145 L 287.500 144.141 289.500 144.040 C 293.372 143.845, 288.779 142.279, 277.500 139.949 C 266.883 137.756, 261.077 135.626, 268.086 136.496 C 269.964 136.730, 275.971 137.157, 281.435 137.446 C 296.427 138.238, 291.928 136.292, 275.491 134.874 C 263.836 133.869, 261.114 133.323, 259.192 131.604 L 256.883 129.541 259.276 128.901 C 260.592 128.549, 266.564 127.928, 272.547 127.520 C 284.310 126.718, 290.969 125.163, 283 125.079 C 280.525 125.053, 273.131 125.476, 266.569 126.020 C 255.003 126.978, 254.567 126.942, 252.319 124.830 C 251.044 123.632, 250 121.920, 250 121.026 C 250 120.132, 249.438 118.775, 248.750 118.012 C 247.982 117.159, 248.465 117.261, 250 118.277 C 255.766 122.090, 261.182 125.151, 261.536 124.797 C 262.098 124.235, 247.875 115, 246.448 115 C 245.777 115, 243.336 111.816, 241.024 107.923 C 238.712 104.031, 236.621 101.046, 236.378 101.288 C 236.136 101.531, 237.764 105.117, 239.997 109.257 L 244.057 116.784 240.779 118.077 C 238.975 118.788, 237.162 119.549, 236.749 119.768 C 236.336 119.988, 236.272 119.455, 236.606 118.584 C 237.434 116.428, 236.389 116.594, 232.654 119.211 C 230.414 120.781, 229.903 120.919, 230.893 119.687 C 231.658 118.732, 231.965 117.632, 231.574 117.241 C 231.183 116.850, 230.096 117.547, 229.158 118.791 C 227.889 120.473, 227.162 120.762, 226.321 119.921 C 225.479 119.079, 225.550 117.929, 226.595 115.427 C 227.368 113.578, 227.968 111.262, 227.930 110.282 C 227.869 108.734, 227.756 108.763, 227.073 110.500 C 226.432 112.132, 226.206 111.814, 225.846 108.766 C 225.599 106.670, 225.865 104.863, 226.453 104.646 C 227.137 104.395, 227.032 103.472, 226.151 101.986 C 224.821 99.742, 224.860 99.718, 228.901 100.260 C 231.155 100.562, 233 100.672, 233 100.503 C 233 100.334, 231.614 99.319, 229.921 98.247 L 226.842 96.297 232.094 95.675 C 234.983 95.333, 237.831 94.545, 238.423 93.924 C 239.219 93.089, 238.327 92.951, 235 93.395 L 230.500 93.996 235 91.985 C 243.516 88.181, 243.865 87.907, 239.500 88.450 C 235.629 88.932, 235.737 88.817, 242.836 84.893 C 250.611 80.594, 252.208 78.340, 244.847 82.053 C 242.456 83.259, 240.782 83.946, 241.127 83.579 C 242.631 81.981, 255.103 73.787, 261.685 70.073 C 274.959 62.584, 270.989 61.780, 256.500 69.024 C 251.677 71.435, 249.684 72.125, 251.482 70.762 C 259.396 64.760, 258.525 64.551, 249.500 70.287 C 238.588 77.222, 235.409 79.028, 238.500 76.536 C 246.383 70.183, 252.894 64.364, 252.942 63.630 C 252.974 63.151, 250.975 64.388, 248.500 66.380 C 234.586 77.574, 234.065 77.841, 241.500 69.965 C 248.507 62.543, 246.677 63.506, 237.750 71.938 C 231.139 78.183, 231.770 75.647, 238.475 69.024 C 241.487 66.050, 243.725 63.392, 243.449 63.116 C 243.173 62.840, 240.150 65.289, 236.731 68.557 C 233.312 71.826, 232.110 72.700, 234.061 70.500 C 240.584 63.144, 240.333 62.424, 233.629 69.259 C 229.983 72.977, 227 75.619, 227 75.132 C 227 74.644, 227.675 73.685, 228.500 73 C 229.325 72.315, 230 71.282, 230 70.703 C 230 70.125, 228.790 70.742, 227.311 72.076 C 225.468 73.737, 226.160 72.297, 229.511 67.500 C 235.164 59.407, 233.208 60.380, 226.878 68.810 C 224.528 71.939, 222.171 74.950, 221.640 75.500 C 220.628 76.549, 226.228 66.127, 228.760 62.250 C 229.569 61.013, 229.944 60, 229.595 60 C 229.245 60, 226.686 63.482, 223.908 67.739 C 221.129 71.995, 218.635 75.698, 218.366 75.968 C 217.473 76.861, 219.841 71.259, 223.009 64.982 C 224.726 61.581, 225.928 58.595, 225.681 58.347 C 225.433 58.100, 223.275 61.717, 220.885 66.385 C 218.494 71.053, 216.400 74.733, 216.230 74.563 C 216.060 74.394, 217.074 71.191, 218.484 67.447 C 219.893 63.702, 220.890 60.170, 220.699 59.597 C 220.508 59.024, 219.066 61.917, 217.495 66.027 C 213.649 76.090, 212.579 76.980, 215.050 68.061 C 217.789 58.177, 216.763 57.886, 213.619 67.655 C 210.884 76.153, 210.373 75.759, 212.090 66.473 C 213.120 60.899, 213.792 59.900, 224.500 48.040 C 230.727 41.143, 237.662 33.721, 239.911 31.547 C 243.855 27.734, 245.127 25, 242.957 25 C 242.384 25, 239.584 27.137, 236.735 29.750 L 231.556 34.500 236.028 29.171 C 242.971 20.897, 243.864 18.854, 237.632 25.500 C 234.538 28.800, 232.314 30.600, 232.690 29.500 C 233.320 27.658, 233.224 27.619, 231.476 29 C 229.926 30.225, 229.996 29.905, 231.857 27.250 C 234.388 23.640, 235.660 22.899, 234 26 C 232.310 29.157, 233.508 28.341, 236.566 24.250 C 238.690 21.409, 238.840 20.962, 237.185 22.405 C 234.855 24.436, 234.159 23.365, 236.250 20.965 C 236.938 20.176, 236.375 20.469, 235 21.616 C 230.755 25.159, 229.603 25.535, 231.400 22.793 C 232.284 21.444, 232.668 19.967, 232.254 19.510 C 231.839 19.053, 232.031 18.984, 232.681 19.356 C 234.239 20.249, 235.515 18.115, 234.206 16.806 C 233.513 16.113, 232.632 16.631, 231.458 18.424 C 230.507 19.875, 229.494 20.827, 229.207 20.540 C 228.919 20.252, 227.996 20.576, 227.155 21.259 C 225.855 22.314, 225.731 22.200, 226.326 20.500 C 226.885 18.903, 226.625 19.004, 225.035 21 C 222.898 23.685, 222.344 23.095, 224.035 19.934 C 224.605 18.870, 224.861 18, 224.605 18 C 224.349 18, 221.795 22.062, 218.930 27.027 C 213.057 37.204, 211.242 38.426, 216 29 C 219.576 21.917, 219.522 19.656, 215.938 26.411 C 214.640 28.857, 213.229 30.641, 212.801 30.377 C 212.373 30.112, 212.319 30.668, 212.681 31.612 C 213.078 32.647, 212.941 33.081, 212.335 32.707 C 211.782 32.365, 210.576 33.665, 209.656 35.596 C 208.735 37.527, 207.648 38.910, 207.241 38.671 C 206.833 38.431, 205.600 39.348, 204.500 40.710 C 203.400 42.071, 201.226 44.606, 199.668 46.342 L 196.837 49.500 198.414 45.500 C 199.900 41.731, 199.490 41.949, 196.230 46.663 C 195.075 48.334, 195.006 48.274, 195.469 46 C 195.749 44.625, 194.814 45.894, 193.391 48.819 C 190.717 54.320, 189.130 55.418, 191.013 50.466 C 191.601 48.920, 191.852 47.058, 191.572 46.328 C 191.292 45.597, 191.451 45, 191.924 45 C 192.398 45, 193.060 44.287, 193.394 43.415 C 193.743 42.505, 192.259 43.211, 189.908 45.073 C 186.600 47.693, 185.642 48.046, 184.922 46.908 C 184.242 45.834, 184.027 46.020, 184.015 47.691 C 184.007 48.896, 183.550 50.160, 183 50.500 C 180.447 52.078, 182.399 47.157, 185.750 43.568 C 187.813 41.358, 188.565 40.327, 187.421 41.275 C 184.204 43.945, 183.911 43.373, 186 38.500 C 187.061 36.025, 187.726 34, 187.479 34 C 187.232 34, 188.557 29.725, 190.425 24.500 C 192.292 19.275, 193.506 15, 193.122 15 C 192.738 15, 190.753 18.206, 188.712 22.124 C 186.670 26.043, 184.980 28.405, 184.955 27.374 C 184.922 26.025, 184.505 26.340, 183.465 28.500 C 182.034 31.471, 182.083 30.307, 183.624 24.750 C 183.967 23.512, 181.432 26.100, 177.991 30.500 C 174.550 34.900, 171.204 38.950, 170.555 39.500 C 169.907 40.050, 169.081 41.288, 168.719 42.250 C 168.358 43.212, 167.583 44, 166.996 44 C 165.791 44, 166.280 43.099, 174.056 31 C 186.090 12.275, 182.326 16.063, 168.839 36.250 C 159.730 49.884, 156.517 53.928, 161.291 45.750 C 162.656 43.413, 165.224 38.800, 166.999 35.500 C 168.773 32.200, 172.015 26.428, 174.202 22.673 C 176.389 18.918, 177.952 15.619, 177.676 15.342 C 177.191 14.857, 172.190 22.997, 163.001 39.229 C 160.595 43.481, 158.468 46.801, 158.276 46.609 C 157.838 46.172, 164.647 30.636, 169.495 21.010 C 171.493 17.042, 172.901 13.568, 172.623 13.290 C 172.346 13.012, 168.039 20.933, 163.054 30.892 C 158.068 40.852, 153.815 49, 153.603 49 C 153.390 49, 156.331 41.063, 160.137 31.363 C 163.944 21.662, 166.885 13.552, 166.673 13.340 C 166.214 12.881, 162.071 22.125, 155.500 38.272 C 152.866 44.746, 150.542 49.875, 150.336 49.670 C 150.131 49.464, 152.834 39.977, 156.342 28.587 C 159.851 17.197, 162.292 8.308, 161.765 8.835 C 161.239 9.361, 158.168 17.601, 154.940 27.146 C 151.712 36.691, 149.055 44.050, 149.036 43.500 C 148.979 41.899, 151.713 28.239, 153.938 19 C 156.001 10.437, 156.456 7.211, 155.459 8.208 C 155.162 8.505, 152.688 17.243, 149.962 27.624 L 145.006 46.500 145.567 38 C 145.875 33.325, 146.774 25.115, 147.564 19.757 C 149.302 7.966, 149.279 4.836, 147.501 11.300 C 146.066 16.520, 143 36.324, 143 40.373 C 143 41.753, 142.646 43.101, 142.213 43.368 C 141.780 43.636, 141.544 35.225, 141.688 24.677 C 141.999 1.842, 140.514 3.248, 139.167 27.063 L 138.294 42.500 137.990 32.500 C 137.743 24.395, 137.572 23.448, 137.085 27.500 L 136.484 32.500 135.742 26.103 C 135.334 22.585, 135 16.874, 135 13.412 C 135 9.950, 134.550 6.840, 134 6.500 C 133.368 6.109, 132.951 8.937, 132.867 14.191 M 227.122 22.675 C 226.308 24.074, 226.047 24.150, 226 23 C 225.954 21.870, 225.671 21.962, 224.853 23.370 C 224.113 24.643, 223.540 24.874, 223.057 24.092 C 222.627 23.397, 221.288 24.893, 219.658 27.886 C 217.530 31.797, 217.298 32.779, 218.545 32.596 C 219.411 32.469, 220.990 31.045, 222.054 29.433 C 223.117 27.820, 223.990 27.167, 223.993 27.982 C 223.997 28.797, 225.165 27.750, 226.589 25.654 C 228.013 23.559, 228.954 21.621, 228.681 21.347 C 228.407 21.074, 227.706 21.671, 227.122 22.675 M 224.667 24.667 C 224.300 25.033, 224 25.798, 224 26.367 C 224 26.993, 224.466 26.934, 225.183 26.217 C 225.834 25.566, 226.134 24.801, 225.850 24.517 C 225.566 24.233, 225.033 24.300, 224.667 24.667 M 220.697 27.935 C 218.260 32.062, 218.632 33.128, 221.142 29.208 C 222.301 27.398, 223.057 25.724, 222.822 25.489 C 222.587 25.254, 221.631 26.355, 220.697 27.935 M 180.079 32.583 C 180.127 33.748, 180.364 33.985, 180.683 33.188 C 180.972 32.466, 180.936 31.603, 180.604 31.271 C 180.272 30.939, 180.036 31.529, 180.079 32.583 M 116.545 35.250 C 116.919 36.487, 117.636 37.940, 118.140 38.477 C 118.643 39.015, 118.548 38.002, 117.929 36.227 C 116.663 32.594, 115.493 31.769, 116.545 35.250 M 177 34.059 C 177 34.641, 177.450 34.840, 178 34.500 C 178.550 34.160, 179 33.684, 179 33.441 C 179 33.198, 178.550 33, 178 33 C 177.450 33, 177 33.477, 177 34.059 M 173.750 38.530 C 171.261 41.867, 171.516 43.929, 174.097 41.347 C 175.251 40.194, 176.038 38.560, 175.847 37.716 C 175.577 36.522, 175.113 36.702, 173.750 38.530 M 169.667 43.667 C 169.300 44.033, 169 44.798, 169 45.367 C 169 45.993, 169.466 45.934, 170.183 45.217 C 170.834 44.566, 171.134 43.801, 170.850 43.517 C 170.566 43.233, 170.033 43.300, 169.667 43.667 M 164 46.500 C 163.282 47.365, 163.185 48, 163.771 48 C 164.329 48, 165.045 47.325, 165.362 46.500 C 165.678 45.675, 165.781 45, 165.591 45 C 165.401 45, 164.685 45.675, 164 46.500 M 189.265 47.226 C 188.704 47.927, 187.916 49.569, 187.515 50.875 C 186.521 54.114, 188.784 52.697, 190.090 49.264 C 191.191 46.368, 190.775 45.340, 189.265 47.226 M 169.667 48.667 C 169.300 49.033, 169 49.798, 169 50.367 C 169 50.993, 169.466 50.934, 170.183 50.217 C 170.834 49.566, 171.134 48.801, 170.850 48.517 C 170.566 48.233, 170.033 48.300, 169.667 48.667 M 185.040 50.452 C 184.377 51.251, 184.002 52.713, 184.206 53.702 C 184.476 55.013, 184.891 54.620, 185.736 52.250 C 187.013 48.672, 186.855 48.264, 185.040 50.452 M 44 52.465 C 44 52.720, 45.013 53.469, 46.250 54.129 C 48.290 55.216, 48.372 55.172, 47.128 53.664 C 45.850 52.115, 44 51.406, 44 52.465 M 181.667 52.667 C 181.300 53.033, 181.014 54.046, 181.030 54.917 C 181.055 56.217, 181.251 56.174, 182.122 54.675 C 183.199 52.823, 182.887 51.447, 181.667 52.667 M 97.020 54.524 C 97.716 55.362, 98.491 55.842, 98.743 55.591 C 99.436 54.897, 98.027 53, 96.819 53 C 96.155 53, 96.231 53.574, 97.020 54.524 M 101.733 54.124 C 102.412 54.808, 103.219 55.115, 103.526 54.807 C 103.834 54.499, 103.279 53.940, 102.293 53.564 C 100.868 53.022, 100.753 53.136, 101.733 54.124 M 83.500 55 C 83.840 55.550, 84.568 56, 85.118 56 C 85.668 56, 85.840 55.550, 85.500 55 C 85.160 54.450, 84.432 54, 83.882 54 C 83.332 54, 83.160 54.450, 83.500 55 M 186.314 55.750 C 185.972 56.712, 185.503 57.950, 185.272 58.500 C 185.041 59.050, 185.560 58.626, 186.426 57.559 C 187.998 55.620, 188.473 54, 187.469 54 C 187.176 54, 186.657 54.788, 186.314 55.750 M 183 57.500 C 183 58.325, 183.177 59, 183.393 59 C 183.609 59, 184.045 58.325, 184.362 57.500 C 184.678 56.675, 184.501 56, 183.969 56 C 183.436 56, 183 56.675, 183 57.500 M 87.918 58.344 C 89.349 60.126, 93 62.468, 93 61.603 C 93 61.346, 91.537 60.111, 89.750 58.857 C 87.444 57.240, 86.912 57.091, 87.918 58.344 M 180.079 59.583 C 180.127 60.748, 180.364 60.985, 180.683 60.188 C 180.972 59.466, 180.936 58.603, 180.604 58.271 C 180.272 57.939, 180.036 58.529, 180.079 59.583 M 81 59.435 C 81 61.778, 83.302 65, 84.975 65 C 87.761 65, 87.517 62.569, 84.535 60.615 C 82.049 58.986, 81 58.636, 81 59.435 M 53.500 62 C 54.495 63.100, 55.535 64, 55.810 64 C 56.085 64, 55.495 63.100, 54.500 62 C 53.505 60.900, 52.465 60, 52.190 60 C 51.915 60, 52.505 60.900, 53.500 62 M 59 60.378 C 59 60.585, 59.788 61.373, 60.750 62.128 C 62.336 63.371, 62.371 63.336, 61.128 61.750 C 59.821 60.084, 59 59.555, 59 60.378 M 232.687 65.805 C 229.524 69.107, 229.055 71.165, 232.093 68.416 C 234.053 66.642, 236.494 63, 235.722 63 C 235.531 63, 234.165 64.262, 232.687 65.805 M 90.226 65.574 C 91.176 66.568, 92.227 67.107, 92.562 66.771 C 92.897 66.436, 92.120 65.623, 90.836 64.964 C 88.603 63.819, 88.576 63.846, 90.226 65.574 M 208.721 66.750 C 208.503 67.162, 208.274 69.525, 208.212 72 C 208.088 76.997, 208.485 76.576, 209.862 70.250 C 210.371 67.912, 210.412 66, 209.953 66 C 209.494 66, 208.939 66.338, 208.721 66.750 M 84 67.765 C 84 69.063, 86.251 71, 87.759 71 C 88.506 71, 88.841 70.552, 88.503 70.005 C 87.619 68.574, 84 66.774, 84 67.765 M 91 69 C 91 69.550, 91.477 70, 92.059 70 C 92.641 70, 92.840 69.550, 92.500 69 C 92.160 68.450, 91.684 68, 91.441 68 C 91.198 68, 91 68.450, 91 69 M 205.500 69 C 205.160 69.550, 205.359 70, 205.941 70 C 206.523 70, 207 69.550, 207 69 C 207 68.450, 206.802 68, 206.559 68 C 206.316 68, 205.840 68.450, 205.500 69 M 82.033 72.559 C 81.985 74.109, 84.733 77.600, 85.443 76.890 C 85.777 76.556, 85.154 75.207, 84.058 73.892 C 82.963 72.576, 82.052 71.976, 82.033 72.559 M 205.195 74.500 C 205.215 76.150, 205.439 76.704, 205.693 75.731 C 205.947 74.758, 205.930 73.408, 205.656 72.731 C 205.382 72.054, 205.175 72.850, 205.195 74.500 M 92.500 74 C 92.840 74.550, 93.316 75, 93.559 75 C 93.802 75, 94 74.550, 94 74 C 94 73.450, 93.523 73, 92.941 73 C 92.359 73, 92.160 73.450, 92.500 74 M 88.046 76.086 C 88.660 77.233, 89.406 77.927, 89.705 77.629 C 90.529 76.805, 89.209 74, 87.996 74 C 87.257 74, 87.272 74.639, 88.046 76.086 M 97 75 C 97 75.550, 97.477 76, 98.059 76 C 98.641 76, 98.840 75.550, 98.500 75 C 98.160 74.450, 97.684 74, 97.441 74 C 97.198 74, 97 74.450, 97 75 M 202 78 C 202 78.550, 202.450 79, 203 79 C 203.550 79, 204 78.550, 204 78 C 204 77.450, 203.550 77, 203 77 C 202.450 77, 202 77.450, 202 78 M 85.564 79.293 C 85.940 80.279, 86.499 80.834, 86.807 80.526 C 87.115 80.219, 86.808 79.412, 86.124 78.733 C 85.136 77.753, 85.022 77.868, 85.564 79.293 M 101.500 80 C 101.840 80.550, 102.316 81, 102.559 81 C 102.802 81, 103 80.550, 103 80 C 103 79.450, 102.523 79, 101.941 79 C 101.359 79, 101.160 79.450, 101.500 80 M 197.564 80.293 C 197.940 81.279, 198.499 81.834, 198.807 81.526 C 199.115 81.219, 198.808 80.412, 198.124 79.733 C 197.136 78.753, 197.022 78.868, 197.564 80.293 M 105.500 81 C 105.840 81.550, 106.316 82, 106.559 82 C 106.802 82, 107 81.550, 107 81 C 107 80.450, 106.523 80, 105.941 80 C 105.359 80, 105.160 80.450, 105.500 81 M 194 81.500 C 193.293 82.352, 193.004 83.337, 193.357 83.691 C 193.711 84.044, 194 83.739, 194 83.012 C 194 82.097, 194.661 82.277, 196.146 83.595 L 198.291 85.500 197.010 83 C 196.306 81.625, 195.629 80.377, 195.507 80.226 C 195.385 80.075, 194.707 80.648, 194 81.500 M 192 85.819 C 192 87.027, 193.897 88.436, 194.591 87.743 C 194.842 87.491, 194.362 86.716, 193.524 86.020 C 192.574 85.231, 192 85.155, 192 85.819 M 187 90 C 187 90.550, 187.477 91, 188.059 91 C 188.641 91, 188.840 90.550, 188.500 90 C 188.160 89.450, 187.684 89, 187.441 89 C 187.198 89, 187 89.450, 187 90 M 192.500 90 C 192.840 90.550, 193.316 91, 193.559 91 C 193.802 91, 194 90.550, 194 90 C 194 89.450, 193.523 89, 192.941 89 C 192.359 89, 192.160 89.450, 192.500 90 M 112.507 93.989 C 112.157 94.555, 112.558 94.723, 113.448 94.382 C 115.180 93.717, 115.497 93, 114.059 93 C 113.541 93, 112.843 93.445, 112.507 93.989 M 115.750 94.689 C 114.787 94.941, 114 95.516, 114 95.966 C 114 96.979, 117.091 98.242, 117.810 97.524 C 118.098 97.236, 117.753 97, 117.044 97 C 116.012 97, 116.003 96.701, 117 95.500 C 117.685 94.675, 118.077 94.052, 117.872 94.116 C 117.668 94.180, 116.713 94.438, 115.750 94.689 M 184.273 96.978 C 184.357 98.090, 184.780 99, 185.213 99 C 186.319 99, 186.197 96.240, 185.061 95.537 C 184.544 95.218, 184.190 95.866, 184.273 96.978 M 188 97 C 188 97.550, 189.012 97.993, 190.250 97.985 C 192.069 97.972, 192.213 97.784, 191 97 C 189.061 95.747, 188 95.747, 188 97 M 52.813 99.683 C 53.534 99.972, 54.397 99.936, 54.729 99.604 C 55.061 99.272, 54.471 99.036, 53.417 99.079 C 52.252 99.127, 52.015 99.364, 52.813 99.683 M 184.500 102 C 184.160 102.550, 184.782 103, 185.882 103 C 186.982 103, 188.160 102.550, 188.500 102 C 188.840 101.450, 188.218 101, 187.118 101 C 186.018 101, 184.840 101.450, 184.500 102 M 191.643 102.500 C 190.818 103.325, 189.716 104, 189.194 104 C 188.672 104, 187.685 104.675, 187 105.500 C 186.315 106.325, 186.148 106.987, 186.628 106.972 C 187.952 106.930, 195.520 101, 194.250 101 C 193.641 101, 192.468 101.675, 191.643 102.500 M 221.500 103 C 224.231 104.174, 225 104.174, 225 103 C 225 102.450, 223.762 102.032, 222.250 102.070 C 219.813 102.133, 219.728 102.238, 221.500 103 M 184 105.059 C 184 105.641, 184.450 105.840, 185 105.500 C 185.550 105.160, 186 104.684, 186 104.441 C 186 104.198, 185.550 104, 185 104 C 184.450 104, 184 104.477, 184 105.059 M 181 105.941 C 181 106.459, 181.450 107.160, 182 107.500 C 182.550 107.840, 183 107.416, 183 106.559 C 183 105.702, 182.550 105, 182 105 C 181.450 105, 181 105.423, 181 105.941 M 220.895 106.373 C 221.522 107.129, 221.717 108.591, 221.330 109.623 C 220.708 111.280, 220.824 111.339, 222.313 110.128 C 223.311 109.316, 224 109.189, 224 109.819 C 224 110.403, 223.550 111.160, 223 111.500 C 221.793 112.246, 221.647 121, 222.842 121 C 223.305 121, 224.204 119.264, 224.839 117.142 C 226.454 111.754, 224.134 105.077, 220.628 105.015 C 220.148 105.007, 220.268 105.618, 220.895 106.373 M 90 107 C 88.718 107.828, 88.754 107.972, 90.250 107.985 C 91.213 107.993, 92 107.550, 92 107 C 92 105.780, 91.887 105.780, 90 107 M 175 107.559 C 175 108.416, 175.450 108.840, 176 108.500 C 176.550 108.160, 177 107.459, 177 106.941 C 177 106.423, 176.550 106, 176 106 C 175.450 106, 175 106.702, 175 107.559 M 217.940 108.427 C 218.822 109.491, 218.867 111.713, 218.114 117.146 C 217.558 121.156, 217.225 124.559, 217.375 124.708 C 217.524 124.857, 218.406 124.421, 219.334 123.740 C 220.773 122.683, 220.925 121.358, 220.364 114.750 C 219.866 108.882, 219.348 107, 218.231 107 C 217.066 107, 217.005 107.301, 217.940 108.427 M 197.171 110.097 C 195.475 112.813, 196.721 114.102, 198.582 111.557 C 199.362 110.491, 200 109.254, 200 108.809 C 200 107.301, 198.487 107.990, 197.171 110.097 M 129.149 111.664 C 127.548 113.403, 127.997 114.238, 129.901 113.061 C 130.639 112.605, 131.076 111.774, 130.872 111.214 C 130.657 110.626, 129.931 110.815, 129.149 111.664 M 191.750 110.689 C 190.787 110.941, 190 111.595, 190 112.143 C 190 113.557, 194.259 112.757, 194.755 111.250 C 195.177 109.968, 194.787 109.896, 191.750 110.689 M 214.123 111.352 C 213.302 112.342, 213.295 113.548, 214.098 115.852 C 215.630 120.246, 216.586 119.777, 216.859 114.500 C 217.095 109.948, 216.171 108.884, 214.123 111.352 M 128.625 115.285 C 126.965 116.499, 126.982 116.674, 128.934 118.440 C 130.981 120.292, 131 120.280, 131 117.155 C 131 113.557, 130.994 113.553, 128.625 115.285 M 136 118.441 C 136 120.398, 136.450 122, 137 122 C 137.550 122, 138 120.677, 138 119.059 C 138 117.441, 137.550 115.840, 137 115.500 C 136.405 115.132, 136 116.323, 136 118.441 M 91.451 117.583 C 91.114 118.637, 90.443 120.491, 89.962 121.702 C 89.258 123.473, 89.387 123.789, 90.620 123.316 C 92.701 122.517, 94.375 117.975, 93.070 116.670 C 92.397 115.997, 91.863 116.299, 91.451 117.583 M 124.500 118 C 125.495 119.100, 126.535 120, 126.810 120 C 127.085 120, 126.495 119.100, 125.500 118 C 124.505 116.900, 123.465 116, 123.190 116 C 122.915 116, 123.505 116.900, 124.500 118 M 85.165 119.108 C 83.526 121.732, 84.585 125.589, 86.507 123.995 C 87.809 122.914, 90.318 117, 89.474 117 C 89.241 117, 88.332 118.392, 87.452 120.093 C 86.572 121.794, 85.624 122.958, 85.345 122.679 C 85.066 122.400, 85.361 121.194, 86 120 C 87.500 117.197, 86.815 116.465, 85.165 119.108 M 95.565 117.895 C 95.260 118.388, 95.684 119.048, 96.506 119.364 C 97.413 119.712, 98 119.361, 98 118.469 C 98 116.851, 96.437 116.483, 95.565 117.895 M 99.527 117.957 C 99.142 118.579, 99.335 119.699, 99.956 120.447 C 100.743 121.395, 100.762 121.963, 100.017 122.328 C 99.430 122.615, 99.524 122.734, 100.225 122.592 C 100.926 122.450, 101.655 121.536, 101.844 120.561 C 102.275 118.336, 100.515 116.357, 99.527 117.957 M 134.195 119.500 C 134.215 121.150, 134.439 121.704, 134.693 120.731 C 134.947 119.758, 134.930 118.408, 134.656 117.731 C 134.382 117.054, 134.175 117.850, 134.195 119.500 M 139.015 118.191 C 139.007 119.121, 139.450 120.160, 140 120.500 C 141.266 121.282, 141.266 119.958, 140 118 C 139.165 116.707, 139.029 116.734, 139.015 118.191 M 105.015 119.250 C 105.024 119.938, 105.467 121.175, 106 122 C 106.755 123.169, 106.973 122.893, 106.985 120.750 C 106.993 119.237, 106.550 118, 106 118 C 105.450 118, 105.007 118.563, 105.015 119.250 M 152 119.059 C 152 119.641, 152.450 119.840, 153 119.500 C 153.550 119.160, 154 118.684, 154 118.441 C 154 118.198, 153.550 118, 153 118 C 152.450 118, 152 118.477, 152 119.059 M 202.397 120.154 C 201.023 122.358, 200.925 125, 202.219 125 C 202.882 125, 204.478 123.763, 205.765 122.250 C 207.589 120.107, 207.873 119.983, 207.050 121.689 C 206.350 123.142, 206.332 124.087, 206.997 124.498 C 207.549 124.839, 208 124.641, 208 124.059 C 208 123.477, 208.477 123, 209.059 123 C 209.641 123, 209.828 123.470, 209.473 124.044 C 209.118 124.618, 209.376 125.748, 210.047 126.556 C 210.972 127.671, 211.594 127.752, 212.633 126.890 C 214.065 125.701, 214.546 121.056, 213.250 120.923 C 212.838 120.881, 211.825 120.654, 211 120.418 C 206.015 118.992, 203.176 118.905, 202.397 120.154 M 94.609 121.576 C 94.248 122.517, 94.196 123.529, 94.493 123.826 C 94.790 124.124, 95.566 123.834, 96.217 123.183 C 97.055 122.345, 97.089 121.689, 96.333 120.933 C 95.576 120.176, 95.074 120.364, 94.609 121.576 M 108.500 121 C 108.160 121.550, 108.359 122, 108.941 122 C 109.523 122, 110 121.550, 110 121 C 110 120.450, 109.802 120, 109.559 120 C 109.316 120, 108.840 120.450, 108.500 121 M 244 123 C 242.793 123.780, 242.951 123.972, 244.809 123.985 C 246.097 123.993, 246.845 123.558, 246.500 123 C 245.757 121.798, 245.861 121.798, 244 123 M 191.714 124.653 C 191.008 125.796, 195.414 128.253, 196.400 127.266 C 197.697 125.970, 196.898 124.794, 195.048 125.277 C 193.974 125.558, 192.932 125.295, 192.731 124.693 C 192.479 123.936, 192.165 123.923, 191.714 124.653 M 99.813 125.683 C 100.534 125.972, 101.397 125.936, 101.729 125.604 C 102.061 125.272, 101.471 125.036, 100.417 125.079 C 99.252 125.127, 99.015 125.364, 99.813 125.683 M 200.500 127 C 200.160 127.550, 200.359 128, 200.941 128 C 201.523 128, 202 127.550, 202 127 C 202 126.450, 201.802 126, 201.559 126 C 201.316 126, 200.840 126.450, 200.500 127 M 203 128.031 C 203 128.564, 203.675 129, 204.500 129 C 205.325 129, 206 128.823, 206 128.607 C 206 128.391, 205.325 127.955, 204.500 127.638 C 203.675 127.322, 203 127.499, 203 128.031 M 174.510 130.016 C 174.856 130.575, 175.557 130.774, 176.069 130.457 C 177.456 129.600, 177.198 129, 175.441 129 C 174.584 129, 174.165 129.457, 174.510 130.016 M 177.500 131 C 177.160 131.550, 177.332 132, 177.882 132 C 178.432 132, 179.160 131.550, 179.500 131 C 179.840 130.450, 179.668 130, 179.118 130 C 178.568 130, 177.840 130.450, 177.500 131 M 192.250 132.392 C 195 134.480, 194.477 136.132, 191.432 134.974 C 189.065 134.074, 188.919 134.174, 189.557 136.249 C 190.542 139.455, 190.531 139.453, 194.447 137.033 C 199.395 133.974, 199.297 130.989, 194.250 131.032 C 190.918 131.060, 190.695 131.212, 192.250 132.392 M 200.500 132 C 199.718 133.266, 201.042 133.266, 203 132 C 204.293 131.165, 204.266 131.029, 202.809 131.015 C 201.879 131.007, 200.840 131.450, 200.500 132 M 255.500 132 C 255.160 132.550, 255.610 133, 256.500 133 C 257.390 133, 257.840 132.550, 257.500 132 C 257.160 131.450, 256.710 131, 256.500 131 C 256.290 131, 255.840 131.450, 255.500 132 M 90 133 C 90 133.550, 90.450 134, 91 134 C 91.550 134, 92 133.550, 92 133 C 92 132.450, 91.550 132, 91 132 C 90.450 132, 90 132.450, 90 133 M 164.505 132.992 C 164.162 133.547, 164.359 134, 164.941 134 C 165.523 134, 166 134.675, 166 135.500 C 166 136.325, 166.450 137, 167 137 C 168.457 137, 168.223 135.080, 166.564 133.421 C 165.666 132.523, 164.894 132.362, 164.505 132.992 M 171 133 C 171 133.550, 171.675 134, 172.500 134 C 173.325 134, 174 133.550, 174 133 C 174 132.450, 173.325 132, 172.500 132 C 171.675 132, 171 132.450, 171 133 M 96.500 134 C 96.160 134.550, 96.141 135.419, 96.457 135.931 C 96.774 136.443, 96.595 137.132, 96.060 137.463 C 95.525 137.794, 95.346 138.738, 95.662 139.561 C 96.150 140.833, 96.435 140.791, 97.551 139.279 C 98.281 138.291, 98.486 137.112, 98.011 136.628 C 97.541 136.149, 97.394 135.136, 97.685 134.378 C 98.294 132.791, 97.420 132.512, 96.500 134 M 101.149 134.667 C 100.406 135.472, 100.005 136.338, 100.257 136.590 C 100.509 136.842, 101.293 136.352, 102 135.500 C 103.669 133.489, 102.916 132.751, 101.149 134.667 M 174.501 135.998 C 174.162 136.547, 174.692 138.363, 175.679 140.034 C 177.319 142.810, 177.583 142.923, 178.737 141.345 C 180.569 138.839, 180.285 137.534, 178.250 139.110 C 176.587 140.398, 176.587 140.363, 178.252 138.402 C 179.216 137.266, 179.703 136.037, 179.336 135.669 C 178.323 134.656, 175.199 134.869, 174.501 135.998 M 66.162 142.845 C 65.015 145.510, 63.385 148.266, 62.539 148.968 C 60.250 150.868, 60.666 151.689, 63.750 151.360 C 65.263 151.199, 71.054 150.559, 76.619 149.937 L 86.738 148.807 85.731 144.654 C 84.582 139.914, 83.016 137.590, 82.968 140.550 C 82.938 142.396, 82.865 142.406, 81.591 140.727 C 80.328 139.062, 80.201 139.092, 79.514 141.227 C 78.818 143.390, 78.751 143.355, 78.113 140.500 C 77.454 137.552, 77.400 137.600, 75.037 143.250 C 72.040 150.414, 70.732 150.702, 72.554 143.797 C 73.309 140.935, 73.782 138.449, 73.606 138.272 C 72.963 137.630, 71.154 140.585, 70.100 144 C 69.027 147.476, 69.022 147.467, 69.387 142.750 C 69.589 140.137, 69.415 138, 69 138 C 68.586 138, 67.308 140.180, 66.162 142.845 M 86.015 139.191 C 86.007 140.121, 86.450 141.160, 87 141.500 C 88.266 142.282, 88.266 140.958, 87 139 C 86.165 137.707, 86.029 137.734, 86.015 139.191 M 109 139 C 109 139.550, 109.450 140, 110 140 C 110.550 140, 111 139.550, 111 139 C 111 138.450, 110.550 138, 110 138 C 109.450 138, 109 138.450, 109 139 M 181.839 143.932 C 181.519 149.530, 181.599 149.775, 183.250 148.277 C 185.268 146.447, 185.676 143.476, 183.750 144.633 C 182.855 145.171, 182.878 144.918, 183.833 143.740 C 184.586 142.810, 184.883 141.206, 184.515 140.048 C 183.321 136.286, 182.181 137.940, 181.839 143.932 M 192.029 139.961 C 191.220 140.473, 190.818 141.152, 191.136 141.470 C 191.455 141.788, 192.284 141.362, 192.980 140.524 C 194.423 138.786, 194.146 138.622, 192.029 139.961 M 58.500 142.053 C 56.300 143.093, 54.184 144.070, 53.798 144.222 C 53.412 144.375, 52.382 146.213, 51.511 148.306 L 49.926 152.113 54.687 151.806 C 59.076 151.524, 59.625 151.188, 61.708 147.500 C 63.946 143.538, 64.697 139.925, 63.250 140.081 C 62.837 140.125, 60.700 141.013, 58.500 142.053 M 105.872 142.664 C 104.646 144.151, 104.712 144.218, 106.500 143.299 C 107.600 142.733, 109.175 142.020, 110 141.714 C 111.030 141.332, 110.833 141.133, 109.372 141.079 C 108.202 141.036, 106.627 141.749, 105.872 142.664 M 192.976 147.525 C 187.473 153.097, 187.225 154.487, 192.336 151.117 C 195.004 149.358, 199.536 143.203, 198.745 142.412 C 198.546 142.213, 195.950 144.513, 192.976 147.525 M 265.803 145.147 C 269.270 146.841, 272.302 148.031, 272.541 147.792 C 273.515 146.819, 267.229 143.272, 263.500 142.690 C 259.680 142.095, 259.783 142.205, 265.803 145.147 M 114.419 143.917 C 114.188 144.146, 114 144.646, 114 145.028 C 114 145.926, 118.879 145.004, 119.508 143.987 C 119.990 143.207, 115.199 143.141, 114.419 143.917 M 283.750 143.662 C 284.438 143.940, 285.563 143.940, 286.250 143.662 C 286.938 143.385, 286.375 143.158, 285 143.158 C 283.625 143.158, 283.063 143.385, 283.750 143.662 M 105.750 145.162 C 104.237 145.715, 103 146.579, 103 147.083 C 103 148.305, 103.464 148.251, 107.532 146.551 C 113.080 144.233, 111.552 143.043, 105.750 145.162 M 48.500 146.161 C 47.400 146.766, 45.671 148.214, 44.657 149.380 C 43.197 151.060, 42.930 151.137, 43.376 149.750 C 44.024 147.730, 42.943 147.457, 41.200 149.200 C 39.634 150.766, 39.622 153.351, 41.186 152.385 C 41.838 151.982, 43.899 151.618, 45.766 151.576 C 48.616 151.512, 49.380 150.979, 50.532 148.250 C 51.998 144.776, 51.657 144.425, 48.500 146.161 M 112.529 148.614 C 111.688 149.455, 111 151.305, 111 152.726 C 111 155.247, 111.049 155.266, 113 153.500 C 115.458 151.275, 115.674 149.226, 113.250 151.128 C 111.666 152.370, 111.630 152.335, 112.863 150.761 C 113.613 149.805, 114.595 149.249, 115.044 149.527 C 115.494 149.805, 116.115 149.622, 116.425 149.121 C 117.439 147.481, 114.097 147.046, 112.529 148.614 M 34.250 150.662 C 33.563 150.940, 33 151.609, 33 152.150 C 33 153.565, 38.266 152.742, 38.756 151.250 C 39.165 150.005, 36.681 149.681, 34.250 150.662 M 193.412 155.235 C 189.582 162.134, 189.363 162.757, 191.349 161.118 C 193.022 159.737, 197.337 151.003, 196.674 150.340 C 196.481 150.148, 195.013 152.350, 193.412 155.235 M 29.813 152.683 C 30.534 152.972, 31.397 152.936, 31.729 152.604 C 32.061 152.272, 31.471 152.036, 30.417 152.079 C 29.252 152.127, 29.015 152.364, 29.813 152.683 M 189.231 156.917 C 189.060 159.397, 189.111 159.423, 190.526 157.559 C 192.341 155.169, 192.387 154.333, 190.704 154.333 C 189.992 154.333, 189.328 155.496, 189.231 156.917 M 137.655 157.457 C 137.230 158.564, 137.690 158.996, 139.281 158.985 C 140.502 158.976, 141.050 158.634, 140.500 158.223 C 139.950 157.813, 139.218 157.125, 138.874 156.695 C 138.529 156.265, 137.981 156.608, 137.655 157.457 M 107.964 160.164 C 106.819 162.397, 106.846 162.424, 108.574 160.774 C 109.568 159.824, 110.107 158.773, 109.771 158.438 C 109.436 158.103, 108.623 158.880, 107.964 160.164 M 81 167 C 80.361 168.194, 80.063 169.396, 80.338 169.671 C 80.613 169.946, 81.361 169.194, 82 168 C 82.639 166.806, 82.937 165.604, 82.662 165.329 C 82.387 165.054, 81.639 165.806, 81 167 M 88.079 166.583 C 88.127 167.748, 88.364 167.985, 88.683 167.188 C 88.972 166.466, 88.936 165.603, 88.604 165.271 C 88.272 164.939, 88.036 165.529, 88.079 166.583 M 83.022 176.696 C 78.864 189.517, 79.018 189, 79.357 189 C 79.519 189, 81.754 185.679, 84.325 181.621 C 89.247 173.852, 89.802 171.641, 87.569 168.696 C 86.342 167.079, 85.871 167.908, 83.022 176.696 M 79.624 173.539 C 78.659 176.053, 78.943 176.702, 80.122 174.675 C 80.706 173.671, 80.973 172.639, 80.715 172.382 C 80.458 172.124, 79.966 172.645, 79.624 173.539" fill="none" stroke="#000" stroke-width="2px" fill-rule="evenodd"/>
</svg>
