<?xml version="1.0" encoding="utf-8"?>
<!-- Generator: Adobe Illustrator 17.0.0, SVG Export Plug-In . SVG Version: 6.00 Build 0)  -->
<!DOCTYPE svg PUBLIC "-//W3C//DTD SVG 1.1//EN" "http://www.w3.org/Graphics/SVG/1.1/DTD/svg11.dtd">
<svg version="1.1" id="Слой_1" xmlns="http://www.w3.org/2000/svg" xmlns:xlink="http://www.w3.org/1999/xlink" x="0px" y="0px"
	 width="150px" height="150px" viewBox="0 0 150 150" enable-background="new 0 0 150 150" xml:space="preserve">
<g>
	<path fill="#FFD54D" d="M78.894,108.772c-6.823,0-13.437-1.239-19.712-3.697c-4.673-1.83-9.156-4.342-13.419-7.509
		c8.141,9.178,19.809,14.844,34.864,16.917c5.758-0.636,13.071-3.462,20.633-7.984c0.161-0.096,2.549-1.3,3.009-3.36
		c-3.818,1.787-11.6,4.829-21.496,5.5C81.472,108.728,80.179,108.772,78.894,108.772z"/>
	<g>
		<path fill="#FFD54D" d="M87.987,124.693c-0.502,0-1.024-0.005-1.555-0.013c0.117-0.002,0.227-0.005,0.342-0.007
			c-0.632,0.013-1.291,0.021-1.983,0.021c-3.156,0-6.906-0.147-10.984-0.599c-15.325-1.698-27.907-6.968-36.386-15.241
			c-9.396-9.166-14.009-21.96-13.789-38.093c-0.008,0.57-0.015,1.14-0.011,1.702C19.294,87.759,20.43,108,38.033,120.697
			c8.257,5.957,18.465,9.11,30.356,9.393c6.723-0.127,13.699-1.135,20.275-2.956c2.12-0.587,3.034-1.591,3.405-2.524
			C90.862,124.66,89.494,124.693,87.987,124.693z"/>
		<path fill="#FFD54D" d="M91.529,124.461c0.215-0.016,0.423-0.031,0.617-0.046C91.952,124.429,91.744,124.445,91.529,124.461z"/>
		<path fill="#FFD54D" d="M23.645,69.911c0.022-0.917,0.062-1.846,0.114-2.784C23.707,68.065,23.666,68.995,23.645,69.911z"/>
		<path fill="#FFD54D" d="M24.076,63.008c-0.109,1.084-0.191,2.15-0.261,3.208C23.886,65.158,23.967,64.093,24.076,63.008z"/>
		<path fill="#FFD54D" d="M87.158,124.665c0.217-0.005,0.428-0.011,0.637-0.017C87.585,124.654,87.374,124.66,87.158,124.665z"/>
		<path fill="#FFD54D" d="M90.853,124.506c0.155-0.01,0.303-0.02,0.449-0.03C91.157,124.486,91.008,124.496,90.853,124.506z"/>
		<path fill="#FFD54D" d="M88.094,124.639c0.293-0.01,0.578-0.021,0.854-0.032C88.673,124.618,88.387,124.629,88.094,124.639z"/>
		<path fill="#FFD54D" d="M89.22,124.594c0.191-0.009,0.379-0.017,0.561-0.027C89.599,124.577,89.41,124.586,89.22,124.594z"/>
		<path fill="#FFD54D" d="M90.092,124.551c0.158-0.009,0.313-0.017,0.464-0.026C90.405,124.533,90.25,124.542,90.092,124.551z"/>
	</g>
	<g>
		<path fill="#FFD54D" d="M21.893,57.962c-0.155-0.1-0.313-0.211-0.468-0.343C21.581,57.751,21.738,57.862,21.893,57.962z"/>
		<path fill="#FFD54D" d="M34.614,52.657l-10.954-1.95l-1.149,6.452c-0.051,0.386-0.077,0.83-0.082,1.182
			c0.479,0.229,0.841,0.385,0.847,0.385h0.001l5.793,0.956c0.691,0.102,4.026,0.302,5.085-4.409l1.149-6.471L34.614,52.657z"/>
		<path fill="#FFD54D" d="M22.423,58.263c-0.136-0.065-0.283-0.147-0.433-0.238C22.141,58.116,22.286,58.197,22.423,58.263z"/>
	</g>
	<g>
		<path fill="#FFD54D" d="M101.199,99.879c0.16-0.069,0.325-0.14,0.475-0.206C101.523,99.739,101.36,99.809,101.199,99.879z"/>
		<path fill="#FFD54D" d="M100.349,100.237c0.195-0.08,0.392-0.161,0.575-0.239C100.74,100.076,100.544,100.156,100.349,100.237z"/>
		<path fill="#FFD54D" d="M98.822,100.746c-0.019,0.004-0.021,0.005-0.039,0.008c-21.379,4.272-38.976,1.004-52.302-9.714
			c-4.616-3.713-8.192-7.933-10.945-12.033c0.477,1.558,1.036,3.163,1.708,4.796c12.805,14.85,28.023,21.79,45.24,20.623
			c6.935-0.47,12.786-2.216,16.741-3.742C99.025,100.707,98.882,100.734,98.822,100.746z"/>
		<path fill="#FFD54D" d="M99.482,100.584c0.206-0.081,0.413-0.161,0.608-0.24C99.895,100.422,99.688,100.503,99.482,100.584z"/>
		<path fill="#FFD54D" d="M35.289,78.152c-0.111-0.385-0.229-0.775-0.33-1.153C35.06,77.378,35.178,77.767,35.289,78.152z"/>
	</g>
	<g>
		<path fill="#FFD54D" d="M88.02,119.434c-2.612-0.146-5.148-0.385-7.607-0.717c-0.009-0.001-0.018-0.002-0.027-0.003
			c-0.032-0.004-0.064-0.009-0.096-0.014c-0.028-0.004-0.056-0.007-0.084-0.013c-10.662-1.466-19.862-4.687-27.42-9.614
			c-7.553-4.924-13.477-11.534-17.606-19.647c-0.624-1.226-1.184-2.446-1.693-3.654c-0.004-0.008-0.007-0.016-0.01-0.024
			c-1.723-4.096-2.816-8.036-3.509-11.495c0.089,0.443,0.182,0.892,0.285,1.35c0.676,12.673,4.827,22.806,12.414,30.214
			c9.828,9.597,23.809,12.946,33.806,14.066c3.424,0.384,6.626,0.539,9.419,0.571c-0.404,0.005-0.821,0.007-1.248,0.007
			c2.43,0.002,4.503-0.085,6.073-0.186C89.618,119.671,88.25,119.465,88.02,119.434z"/>
		<path fill="#FFD54D" d="M84.576,120.461c-0.373,0-0.756-0.004-1.146-0.009C83.82,120.457,84.202,120.461,84.576,120.461z"/>
		<path fill="#FFD54D" d="M81.783,120.417c-0.4-0.012-0.807-0.026-1.22-0.044C80.977,120.391,81.383,120.405,81.783,120.417z"/>
		<path fill="#FFD54D" d="M83.124,120.448c-0.329-0.005-0.664-0.013-1.004-0.022C82.46,120.435,82.795,120.442,83.124,120.448z"/>
		<path fill="#FFD54D" d="M77.148,120.166c-0.34-0.027-0.684-0.056-1.029-0.087C76.464,120.11,76.808,120.139,77.148,120.166z"/>
		<path fill="#FFD54D" d="M75.657,120.037c-0.493-0.047-0.99-0.097-1.494-0.154C74.667,119.94,75.164,119.99,75.657,120.037z"/>
		<path fill="#FFD54D" d="M80.435,120.368c-0.454-0.02-0.917-0.044-1.386-0.071C79.518,120.324,79.981,120.348,80.435,120.368z"/>
		<path fill="#FFD54D" d="M78.683,120.274c-0.348-0.022-0.7-0.045-1.056-0.071C77.983,120.228,78.334,120.252,78.683,120.274z"/>
		<path fill="#FFD54D" d="M28.85,65.421c-0.013-0.267-0.023-0.519-0.031-0.759C28.827,64.902,28.837,65.154,28.85,65.421z"/>
		<path fill="#FFD54D" d="M29.233,69.751c-0.046-0.365-0.089-0.724-0.125-1.069C29.144,69.026,29.187,69.385,29.233,69.751z"/>
		<path fill="#FFD54D" d="M29.635,72.468c-0.064-0.372-0.123-0.738-0.177-1.096C29.513,71.731,29.572,72.096,29.635,72.468z"/>
		<path fill="#FFD54D" d="M29.424,71.152c-0.058-0.391-0.111-0.772-0.159-1.144C29.314,70.381,29.366,70.761,29.424,71.152z"/>
		<path fill="#FFD54D" d="M29.907,73.952c-0.084-0.429-0.162-0.851-0.234-1.264C29.744,73.101,29.823,73.523,29.907,73.952z"/>
		<path fill="#FFD54D" d="M29.104,68.649c-0.038-0.357-0.07-0.699-0.1-1.033C29.033,67.95,29.066,68.291,29.104,68.649z"/>
		<path fill="#FFD54D" d="M28.814,64.517c-0.007-0.236-0.013-0.462-0.017-0.668C28.801,64.055,28.807,64.281,28.814,64.517z"/>
		<path fill="#FFD54D" d="M28.903,66.331c-0.018-0.27-0.033-0.529-0.046-0.778C28.87,65.801,28.886,66.061,28.903,66.331z"/>
		<path fill="#FFD54D" d="M28.985,67.4c-0.027-0.319-0.051-0.629-0.072-0.925C28.933,66.771,28.957,67.08,28.985,67.4z"/>
	</g>
	<path fill="#402E21" d="M107.631,99.007c-2.276-4.437-7.084-4.669-9.346-4.166c-43.987,8.778-59.837-18.039-64.972-31.807
		c2.108-1.01,4.124-3.071,4.976-6.93c0.006-0.028,0.012-0.056,0.017-0.085l1.527-8.576c0.098-0.551-0.027-1.119-0.347-1.579
		c-0.32-0.459-0.811-0.772-1.362-0.871l-18.289-3.256c-1.146-0.204-2.245,0.561-2.45,1.709l-1.527,8.576
		c-0.005,0.028-0.01,0.057-0.013,0.086c-0.721,5.297,1.691,8.248,4.117,9.653c-4.608,9.437-6.66,20.466-5.648,30.63
		c1.312,13.186,7.554,24.159,18.052,31.73c9.398,6.78,21.037,10.217,34.594,10.217c7.533,0,15.428-1.084,22.832-3.135
		c6.706-1.858,7.038-7.217,6.56-9.432c-0.232-3.101-2.51-4.877-4.829-5.787c3.809-1.453,7.838-3.428,11.905-5.86
		c0.134-0.08,0.234-0.14,0.297-0.176C109.933,106.374,108.671,100.89,107.631,99.007z M101.258,106.5
		c-7.562,4.521-14.875,7.348-20.633,7.984c-15.055-2.073-26.723-7.738-34.864-16.917c4.263,3.167,8.746,5.679,13.419,7.509
		c6.276,2.458,12.89,3.697,19.712,3.697c1.285,0,2.579-0.044,3.878-0.132c9.896-0.671,17.679-3.713,21.496-5.5
		C103.808,105.2,101.42,106.404,101.258,106.5z M88.663,127.134c-7.042,1.951-14.547,2.982-21.704,2.982
		c-12.651,0-23.458-3.169-32.122-9.419c-21.575-15.562-18.414-42.458-10.776-57.691l0.016,0.003
		c-1.996,19.832,2.489,35.256,13.344,45.845c8.479,8.273,21.062,13.543,36.386,15.241c4.078,0.452,7.828,0.599,10.984,0.599
		c3.115,0,5.65-0.144,7.355-0.28C91.828,125.4,90.931,126.506,88.663,127.134z M20.025,52.719l1.149-6.453l14.13,2.516l-1.149,6.453
		c-1.059,4.712-4.394,4.474-5.085,4.372l-5.793-1.031l-0.001,0c-0.009-0.002-0.977-0.211-1.851-0.957
		C20.204,56.576,19.733,54.927,20.025,52.719z M99.177,98.97c0.24-0.05,1.804-0.337,3.175,0.395
		c-3.529,1.633-10.771,4.444-19.867,5.061c-17.217,1.167-32.435-5.773-45.24-20.623c-1.266-3.076-2.157-6.069-2.78-8.798
		c2.905,4.771,6.915,9.87,12.372,14.259c13.325,10.718,30.923,13.986,52.301,9.714C99.157,98.975,99.159,98.975,99.177,98.97z
		 M90.716,120.276c-3.527,0.226-9.586,0.389-16.553-0.392c-9.998-1.12-23.979-4.47-33.806-14.066
		c-9.821-9.59-13.89-23.742-12.109-42.066l0.55,0.098c0.06,3.707,0.68,12.392,4.679,21.898c0.004,0.008,0.007,0.016,0.01,0.024
		c0.509,1.208,1.069,2.428,1.693,3.654c4.129,8.113,10.052,14.724,17.606,19.647c7.559,4.927,16.758,8.148,27.42,9.614
		c0.028,0.006,0.056,0.008,0.084,0.013c0.032,0.005,0.064,0.009,0.096,0.014c0.009,0.001,0.018,0.003,0.027,0.003
		c2.459,0.332,4.995,0.572,7.607,0.717C88.25,119.465,89.618,119.671,90.716,120.276z"/>
</g>
<g>
	<g>
		<path fill="#86BF95" d="M71.841,36.306c-0.062-0.006-0.123-0.014-0.185-0.023C71.718,36.292,71.779,36.3,71.841,36.306z"/>
		<path fill="#86BF95" d="M72.582,36.312c-0.077,0.006-0.154,0.01-0.231,0.012C72.428,36.322,72.504,36.318,72.582,36.312z"/>
		<path fill="#86BF95" d="M80.064,42.702c0.056,0.018,0.112,0.034,0.168,0.049C80.176,42.735,80.119,42.72,80.064,42.702z"/>
		<path fill="#86BF95" d="M77.372,37.248c0,0.028,0,0.057-0.002,0.085C77.371,37.305,77.372,37.277,77.372,37.248z"/>
		<path fill="#86BF95" d="M77.226,36.51c0.003,0.006,0.006,0.012,0.008,0.019C77.232,36.522,77.229,36.516,77.226,36.51z"/>
		<path fill="#86BF95" d="M80.721,42.857c0.043,0.007,0.085,0.017,0.128,0.022C80.806,42.874,80.763,42.863,80.721,42.857z"/>
		<path fill="#86BF95" d="M77.344,36.896c0.001,0.004,0.001,0.008,0.002,0.012C77.345,36.904,77.345,36.9,77.344,36.896z"/>
		<path fill="#86BF95" d="M78.569,28.258c0.157,0.027,0.315,0.059,0.473,0.09C78.885,28.317,78.727,28.285,78.569,28.258z"/>
		<path fill="#86BF95" d="M70.416,35.911c-0.018-0.009-0.036-0.019-0.054-0.028C70.38,35.892,70.397,35.902,70.416,35.911z"/>
		<path fill="#86BF95" d="M77.479,28.098c0.129,0.015,0.258,0.036,0.388,0.054C77.738,28.134,77.608,28.113,77.479,28.098z"/>
		<path fill="#86BF95" d="M70.966,36.125c0.064,0.02,0.128,0.039,0.193,0.056C71.094,36.164,71.03,36.145,70.966,36.125z"/>
		<path fill="#86BF95" d="M69.847,35.573c-0.046-0.032-0.091-0.065-0.136-0.099C69.756,35.508,69.801,35.54,69.847,35.573z"/>
		<path fill="#86BF95" d="M80.176,28.605c-0.169-0.043-0.338-0.084-0.506-0.123C79.838,28.521,80.007,28.562,80.176,28.605z"/>
		<path fill="#86BF95" d="M91.5,45.129c0.056,0.018,0.112,0.033,0.168,0.049C91.612,45.163,91.556,45.147,91.5,45.129z"/>
		<path fill="#86BF95" d="M90.869,44.867c0.022,0.011,0.042,0.025,0.064,0.036C90.911,44.892,90.89,44.878,90.869,44.867z"/>
		<path fill="#86BF95" d="M92.285,45.307c-0.043-0.005-0.085-0.016-0.128-0.022C92.2,45.291,92.242,45.302,92.285,45.307z"/>
		<path fill="#86BF95" d="M90.254,44.475c0.045,0.034,0.09,0.067,0.135,0.099C90.343,44.541,90.298,44.509,90.254,44.475z"/>
		<path fill="#86BF95" d="M93.061,45.326c-0.061,0.004-0.122,0.009-0.183,0.01C92.939,45.334,92.999,45.33,93.061,45.326z"/>
		<path fill="#86BF95" d="M95.863,38.341c-5.174-5.059-10.452-8.343-15.48-9.68c-0.492-0.067-0.981-0.118-1.467-0.146
			c-3.964-0.223-6.542,0.959-7.181,1.291c-1.518,1.599-1.532,4.134,0.006,5.749c0.285,0.299,0.61,0.544,0.957,0.74
			c0.631-0.067,1.253-0.264,1.809-0.626c0.652-0.415,1.476-0.396,2.098,0.051c0.175,0.126,0.32,0.281,0.439,0.452
			c0.649-0.404,1.464-0.383,2.081,0.061c0.622,0.448,0.905,1.231,0.714,1.973c-0.363,1.408,0.017,2.876,1.017,3.926
			c0.285,0.3,0.61,0.544,0.957,0.741c0.598-0.064,1.187-0.242,1.722-0.57c0.25-0.153,0.486-0.335,0.701-0.539
			c0.358-0.341,0.649-0.735,0.866-1.174c0.159-0.323,0.403-0.583,0.695-0.762c0.396-0.243,0.879-0.335,1.358-0.234
			c0.477,0.101,0.875,0.384,1.138,0.764l0-0.001c0.008-0.005,0.015-0.012,0.023-0.017c0.396-0.243,0.879-0.336,1.358-0.234
			c0.832,0.176,1.437,0.895,1.472,1.744c0.041,1.013,0.448,1.975,1.146,2.708c0.285,0.3,0.61,0.544,0.958,0.741
			c0.598-0.064,1.187-0.242,1.722-0.57c0.25-0.153,0.486-0.335,0.701-0.54c0.836-0.796,1.321-1.914,1.328-3.066
			C97.007,40.055,96.603,39.065,95.863,38.341z"/>
		<path fill="#86BF95" d="M88.416,40.569c0.006,0.012,0.011,0.023,0.017,0.035C88.427,40.592,88.422,40.58,88.416,40.569z"/>
		<path fill="#86BF95" d="M79.496,42.475c-0.022-0.011-0.042-0.025-0.064-0.036C79.454,42.451,79.474,42.465,79.496,42.475z"/>
		<path fill="#86BF95" d="M81.624,42.898c-0.061,0.004-0.122,0.009-0.183,0.01C81.503,42.907,81.563,42.902,81.624,42.898z"/>
		<path fill="#86BF95" d="M88.589,41.057c0.018,0.093,0.032,0.187,0.036,0.284C88.621,41.244,88.608,41.149,88.589,41.057z"/>
		<path fill="#86BF95" d="M78.953,42.146c-0.046-0.032-0.091-0.065-0.136-0.099C78.862,42.081,78.907,42.114,78.953,42.146z"/>
		<path fill="#86BF95" d="M88.517,40.8c0.012,0.034,0.021,0.069,0.031,0.104C88.538,40.869,88.529,40.834,88.517,40.8z"/>
	</g>
	<g>
		<path fill="#86BF95" d="M97.792,17.351c-0.046,0.183-0.09,0.367-0.131,0.554C97.702,17.719,97.746,17.534,97.792,17.351z"/>
		<path fill="#86BF95" d="M97.942,16.788c0.048-0.172,0.096-0.344,0.149-0.513C98.039,16.444,97.99,16.616,97.942,16.788z"/>
		<path fill="#86BF95" d="M98.614,13.527C100.212,9.894,102.177,9,102.791,7c0,0-0.001,0-0.001,0
			C102.195,9,100.218,9.88,98.614,13.527c-0.023,0.051-0.042,0.105-0.064,0.156C98.572,13.631,98.591,13.578,98.614,13.527z"/>
		<path fill="#86BF95" d="M106.812,36.796c-0.027,0.05-0.057,0.099-0.086,0.148C106.755,36.894,106.785,36.846,106.812,36.796z"/>
		<path fill="#86BF95" d="M107.263,34.218c-0.007-0.049-0.015-0.097-0.024-0.146C107.248,34.12,107.256,34.169,107.263,34.218z"/>
		<path fill="#86BF95" d="M107.091,36.142c-0.011,0.034-0.02,0.069-0.032,0.103C107.072,36.211,107.08,36.176,107.091,36.142z"/>
		<path fill="#86BF95" d="M107.225,35.633c0.01-0.052,0.021-0.103,0.029-0.155C107.246,35.529,107.236,35.581,107.225,35.633z"/>
		<path fill="#86BF95" d="M105.554,8.41c-0.038-0.011-0.076-0.018-0.115-0.028C105.477,8.391,105.516,8.399,105.554,8.41z"/>
		<path fill="#86BF95" d="M106.293,8.693c-0.019-0.009-0.037-0.021-0.056-0.03c-0.02-0.01-0.041-0.014-0.061-0.023
			C106.215,8.658,106.255,8.674,106.293,8.693z"/>
		<path fill="#86BF95" d="M106.746,8.957c0.078,0.052,0.157,0.104,0.232,0.162C106.904,9.062,106.825,9.009,106.746,8.957z"/>
		<path fill="#86BF95" d="M108.024,10.294c-0.26-0.439-0.599-0.821-0.999-1.136C107.418,9.467,107.76,9.849,108.024,10.294z"/>
		<path fill="#86BF95" d="M104.691,8.266c0.037,0.002,0.073,0.002,0.11,0.006C104.764,8.268,104.728,8.268,104.691,8.266z"/>
		<path fill="#86BF95" d="M106.434,8.769c0.072,0.039,0.143,0.078,0.213,0.121C106.578,8.847,106.506,8.808,106.434,8.769z"/>
		<path fill="#86BF95" d="M103.958,8.285c0.022-0.002,0.043-0.007,0.065-0.009C104.001,8.278,103.98,8.282,103.958,8.285z"/>
		<path fill="#86BF95" d="M107.311,34.855c0-0.015-0.002-0.029-0.002-0.044C107.309,34.826,107.311,34.841,107.311,34.855z"/>
		<path fill="#86BF95" d="M98.292,15.67c0.05-0.145,0.097-0.292,0.15-0.434C98.389,15.378,98.342,15.525,98.292,15.67z"/>
		<path fill="#86BF95" d="M108.401,13.684c-0.04,0.127-0.086,0.251-0.138,0.373C108.314,13.935,108.361,13.811,108.401,13.684z"/>
		<path fill="#86BF95" d="M107.961,14.641c0.054-0.087,0.105-0.175,0.153-0.265C108.067,14.466,108.015,14.555,107.961,14.641z"/>
		<path fill="#86BF95" d="M107.688,13.517c-0.742-2.103-3.007-3.241-5.121-2.613c-0.586,0.419-2.809,2.18-4.408,5.814
			c-0.196,0.446-0.374,0.907-0.537,1.377c-1.088,5.087-0.555,11.279,1.606,18.183c0.309,0.988,1.008,1.797,1.968,2.277
			c1.03,0.516,2.246,0.591,3.335,0.207c0.28-0.099,0.549-0.226,0.799-0.38c0.535-0.328,0.962-0.773,1.29-1.277
			c-0.018-0.399-0.089-0.799-0.226-1.189c-0.337-0.955-1.009-1.754-1.894-2.25c-0.741-0.416-1.107-1.281-0.886-2.103
			c0.127-0.473,0.429-0.862,0.824-1.104c0.008-0.005,0.017-0.008,0.025-0.013c-0.219-0.407-0.291-0.889-0.165-1.36
			c0.219-0.821,0.968-1.389,1.818-1.378c0.49,0.006,0.974-0.074,1.439-0.239c0.281-0.099,0.549-0.227,0.799-0.38
			c0.535-0.328,0.962-0.773,1.29-1.277c-0.018-0.399-0.088-0.799-0.226-1.189c-0.483-1.368-1.618-2.372-3.038-2.687
			c-0.748-0.166-1.318-0.774-1.435-1.531c-0.116-0.751,0.235-1.486,0.889-1.881c-0.099-0.183-0.171-0.383-0.204-0.596
			c-0.117-0.757,0.243-1.5,0.906-1.893c0.576-0.331,1.034-0.794,1.38-1.325C107.896,14.31,107.825,13.908,107.688,13.517z"/>
		<path fill="#86BF95" d="M110.335,23.563c0-0.016-0.002-0.032-0.002-0.048C110.333,23.531,110.336,23.547,110.335,23.563z"/>
		<path fill="#86BF95" d="M108.602,12.531c0.001-0.038,0.002-0.076,0.002-0.115C108.604,12.454,108.603,12.492,108.602,12.531z"/>
		<path fill="#86BF95" d="M110.287,22.926c-0.007-0.05-0.015-0.099-0.024-0.149C110.272,22.826,110.28,22.876,110.287,22.926z"/>
		<path fill="#86BF95" d="M108.56,11.834c-0.008-0.053-0.016-0.105-0.025-0.157C108.545,11.73,108.553,11.782,108.56,11.834z"/>
		<path fill="#86BF95" d="M108.503,13.31c0.018-0.082,0.034-0.163,0.047-0.246C108.537,13.146,108.521,13.228,108.503,13.31z"/>
		<path fill="#86BF95" d="M105.323,19.3L105.323,19.3L105.323,19.3z"/>
		<path fill="#86BF95" d="M105.113,31.141c-0.056-0.035-0.111-0.07-0.161-0.109C105.002,31.072,105.057,31.107,105.113,31.141z"/>
		<path fill="#86BF95" d="M110.083,24.953c0.013-0.035,0.021-0.072,0.033-0.108C110.104,24.881,110.096,24.917,110.083,24.953z"/>
		<path fill="#86BF95" d="M104.806,30.902c-0.017-0.016-0.034-0.031-0.05-0.048C104.772,30.87,104.79,30.885,104.806,30.902z"/>
		<path fill="#86BF95" d="M110.249,24.341c0.011-0.053,0.021-0.105,0.03-0.158C110.27,24.236,110.26,24.288,110.249,24.341z"/>
		<path fill="#86BF95" d="M109.836,25.502c-0.027,0.051-0.057,0.1-0.087,0.15C109.779,25.602,109.809,25.553,109.836,25.502z"/>
		<path fill="#86BF95" d="M106.711,19.338c-0.021-0.01-0.042-0.02-0.063-0.03C106.669,19.318,106.69,19.329,106.711,19.338z"/>
		<path fill="#86BF95" d="M104.277,30.869c-0.002-0.003-0.003-0.005-0.005-0.008C104.273,30.864,104.275,30.867,104.277,30.869z"/>
	</g>
	<g>
		<path fill="#D0593F" d="M108.572,52.998c-0.351,0.187-0.7,0.382-1.045,0.593C107.872,53.38,108.221,53.185,108.572,52.998z"/>
		<path fill="#D0593F" d="M108.778,52.889c0.341-0.177,0.685-0.343,1.031-0.497C109.463,52.546,109.119,52.712,108.778,52.889z"/>
		<path fill="#D0593F" d="M111.017,51.902c-0.343,0.126-0.685,0.264-1.026,0.412C110.331,52.166,110.673,52.027,111.017,51.902z"/>
		<path fill="#D0593F" d="M115.968,50.833c0.37-0.026,0.739-0.041,1.105-0.042c-2.274,0.383-4.541,1.295-6.713,2.627
			c-5.135,3.148-8.487,7.73-8.387,13.094l3.218-1.973c0.876-0.537,1.955-0.368,2.492,0.507s0.197,1.914-0.678,2.451l-4.651,2.851
			c-0.237,0.146,1.15,2.433,1.367,2.787c0.573,0.935,1.188,1.073,2.687,2.868l5.794-3.553c0.875-0.537,1.653-0.861,2.19,0.014
			s-0.105,1.421-0.981,1.958l-5.697,3.493l1.495-0.856l5.853,3.134l4.207-2.579c0.875-0.537,1.955-0.368,2.492,0.507
			s0.197,1.914-0.678,2.451l-2.169,1.33l8.668,4.402l1.79-23.701c0.001-0.01,0.034,0.029,0.035,0.019
			c0-0.01,0.015,0.006,0.016-0.004c0.127-2.315-0.403-4.514-1.549-6.383C125.499,52.361,120.924,50.492,115.968,50.833z"/>
		<path fill="#D0593F" d="M113.454,51.191c-0.362,0.079-0.725,0.171-1.087,0.274C112.729,51.363,113.092,51.27,113.454,51.191z"/>
		<path fill="#D0593F" d="M114.632,50.977c-0.358,0.053-0.716,0.117-1.075,0.193C113.915,51.095,114.274,51.03,114.632,50.977z"/>
		<path fill="#D0593F" d="M112.176,51.52c-0.363,0.107-0.726,0.223-1.087,0.353C111.45,51.743,111.813,51.627,112.176,51.52z"/>
		<path fill="#D0593F" d="M115.818,50.844c-0.365,0.028-0.732,0.067-1.1,0.12C115.086,50.911,115.453,50.872,115.818,50.844z"/>
	</g>
	<path fill="#402E21" d="M107.842,5.309c-1.902-0.91-4.044-1.024-6.031-0.323c-0.117,0.041-0.358,0.172-0.358,0.172
		c-0.5,0.306-11.26,7.183-7.195,26.794c-15.632-12.515-26.64-6.05-27.14-5.743c0,0-0.225,0.156-0.315,0.242
		c-3.152,3-3.275,8.005-0.275,11.157c1.838,1.931,4.501,2.751,7.024,2.335c0.239,1.569,0.952,3.049,2.09,4.243
		c2.55,2.679,6.687,3.221,9.836,1.29c0.17-0.104,0.336-0.215,0.497-0.331c0.307,0.527,0.676,1.02,1.103,1.469
		c2.55,2.679,6.687,3.222,9.836,1.29c0.472-0.29,0.917-0.632,1.321-1.016c0.676-0.644,1.224-1.401,1.635-2.227l4.168,6.798
		c-8.097,5.896-11.062,16.059-6.548,23.421c1.544,2.519,3.85,4.507,6.669,5.75c0.018,0.008,0.035,0.012,0.053,0.02
		c0.019,0.009,0.037,0.019,0.056,0.027l23.832,10.029l1.216,1.984c0.537,0.876,1.681,1.15,2.557,0.613s1.15-1.681,0.613-2.557
		l-1.216-1.983l1.873-25.789c0.001-0.02,0-0.039,0.001-0.059c0.002-0.022,0.006-0.044,0.007-0.066
		c0.169-3.073-0.557-6.028-2.1-8.544c-4.513-7.362-14.916-9.33-23.843-4.788l-4.168-6.798c0.922,0.008,1.846-0.137,2.727-0.447
		c0.526-0.186,1.033-0.427,1.505-0.716c3.149-1.931,4.542-5.864,3.312-9.351c-0.206-0.584-0.478-1.137-0.809-1.65
		c0.178-0.091,0.352-0.189,0.521-0.293c3.149-1.931,4.542-5.863,3.312-9.351c-0.549-1.556-1.544-2.863-2.834-3.787
		c1.515-2.06,1.992-4.805,1.105-7.319C111.177,7.814,109.744,6.219,107.842,5.309z M106.534,16.035
		c-0.663,0.393-1.023,1.136-0.906,1.893c0.117,0.757,0.687,1.365,1.435,1.531c1.42,0.315,2.556,1.319,3.038,2.687
		c0.651,1.844-0.085,3.924-1.749,4.944c-0.25,0.153-0.519,0.281-0.799,0.38c-0.465,0.164-0.949,0.245-1.439,0.239
		c-0.851-0.01-1.599,0.557-1.818,1.378c-0.22,0.821,0.145,1.687,0.887,2.102c0.884,0.495,1.557,1.295,1.894,2.25
		c0.651,1.845-0.085,3.924-1.748,4.944c-0.25,0.153-0.519,0.281-0.799,0.38c-1.089,0.384-2.305,0.309-3.335-0.207
		c-0.959-0.48-1.658-1.289-1.968-2.277c-2.742-8.758-2.874-16.379-0.384-22.038c1.605-3.647,3.838-5.408,4.407-5.814
		c0.994-0.296,2.047-0.214,2.988,0.236c1.006,0.481,1.764,1.325,2.135,2.376C109.034,12.916,108.266,15.039,106.534,16.035z
		 M129.438,62.643c-0.001,0.01,0,0.02,0,0.03c-0.001,0.01-0.003,0.021-0.004,0.031l-1.729,23.801l-9.13-3.842l2.754-1.689
		c0.875-0.537,1.15-1.681,0.613-2.557c-0.537-0.876-1.681-1.15-2.557-0.613l-5.029,3.083l-6.495-2.733l5.697-3.493
		c0.875-0.537,1.15-1.681,0.613-2.557s-1.681-1.15-2.557-0.613l-7.75,4.751c-1.311-0.876-2.402-1.996-3.206-3.307
		c-0.217-0.354-0.409-0.717-0.58-1.088l6.972-4.275c0.876-0.537,1.15-1.681,0.613-2.557s-1.681-1.15-2.557-0.613l-5.993,3.674
		c-0.387-5.235,2.755-11.018,8.411-14.486c7.505-4.601,16.636-3.41,20.355,2.655C129.027,58.115,129.566,60.327,129.438,62.643z
		 M94.97,44.734c-1.664,1.02-3.851,0.733-5.199-0.685c-0.698-0.733-1.105-1.695-1.146-2.708c-0.034-0.849-0.64-1.567-1.472-1.744
		c-0.479-0.102-0.962-0.009-1.358,0.234c-0.291,0.179-0.535,0.439-0.695,0.762c-0.217,0.439-0.508,0.834-0.866,1.174
		c-0.215,0.205-0.451,0.386-0.701,0.539c-1.664,1.02-3.85,0.732-5.199-0.684c-1-1.05-1.38-2.518-1.017-3.926
		c0.191-0.742-0.092-1.526-0.714-1.973c-0.622-0.448-1.446-0.467-2.098-0.051c-1.666,1.083-3.914,0.813-5.286-0.628
		c-1.537-1.615-1.524-4.15-0.006-5.749c0.639-0.333,3.217-1.514,7.181-1.291c6.173,0.348,12.904,3.923,19.466,10.338
		c0.74,0.724,1.144,1.714,1.137,2.787c-0.008,1.152-0.492,2.27-1.328,3.066C95.456,44.399,95.22,44.58,94.97,44.734z"/>
</g>
</svg>
