<svg xmlns="http://www.w3.org/2000/svg" width="292" height="268" viewBox="0 0 292 268" version="1.1">
	<path d="M 127.500 3.877 C 119.917 6.615, 116.495 8.623, 113.645 12.010 C 108.528 18.091, 107.966 26.560, 112.180 34.090 C 114.503 38.241, 117.914 40.519, 123.330 41.535 C 125.436 41.929, 127.412 42.909, 127.720 43.712 C 128.557 45.894, 126.087 55.854, 123.378 61.222 C 122.067 63.819, 119.639 66.947, 117.981 68.172 C 114.045 71.082, 111.747 74.670, 111.047 79 C 110.527 82.217, 110.018 82.660, 104.741 84.480 C 101.583 85.569, 99 86.793, 99 87.199 C 99 87.606, 101.060 88.540, 103.578 89.274 L 108.156 90.609 103.887 94.877 C 101.540 97.225, 98.289 99.833, 96.664 100.674 C 93.054 102.541, 94.566 103.961, 100.187 103.985 C 103.846 104, 103.870 104.027, 103.302 107.528 C 102.987 109.468, 103.334 115.134, 104.072 120.118 C 105.204 127.755, 105.814 129.495, 107.949 131.174 C 110.370 133.079, 110.508 133.754, 111.054 146.334 C 111.764 162.716, 112.583 164.528, 121.315 169.056 C 126.080 171.526, 127.601 172.811, 127.268 174.085 C 127.022 175.026, 127.266 176.629, 127.810 177.648 C 128.646 179.211, 127.524 180.690, 120.629 187.118 L 112.459 194.736 108.754 191.533 L 105.049 188.330 108.279 182.924 C 110.731 178.821, 112.206 177.395, 114.398 177.009 C 115.986 176.729, 117.743 175.774, 118.302 174.886 C 119.697 172.671, 118.483 170, 116.081 170 C 114.991 170, 113.699 169.284, 113.209 168.410 C 112.675 167.455, 111.355 166.955, 109.910 167.160 C 106.907 167.584, 106.128 171.379, 108.505 174.005 C 110.080 175.745, 109.903 176.127, 105.233 181.048 C 100.436 186.103, 100.217 186.212, 97.509 184.875 C 94.338 183.310, 94.316 183.186, 96.058 176.788 C 97.073 173.060, 97.931 171.871, 100.170 171.090 C 102 170.453, 103 169.400, 103 168.111 C 103 165.644, 102.366 165.242, 97.155 164.409 C 93.157 163.769, 93 163.845, 93 166.404 C 93 167.866, 93.675 169.322, 94.500 169.638 C 96.506 170.408, 96.401 171.223, 93.750 175.444 C 91.735 178.653, 91.187 178.952, 88.500 178.309 C 86.850 177.914, 83.211 177.571, 80.412 177.546 C 73.941 177.488, 68.564 180.916, 54.057 194.351 C 44.048 203.620, 43.574 203.925, 41.745 202.269 C 39.877 200.579, 39.880 200.515, 41.921 198.863 C 44.622 196.676, 44.560 194.399, 41.750 192.627 C 38.057 190.298, 35.316 189.828, 33.855 191.272 C 33.110 192.009, 31.716 192.909, 30.758 193.271 C 28.883 193.982, 28.608 198.498, 30.304 200.750 C 30.961 201.623, 30.756 202, 29.622 202 C 27.137 202, 27.470 207.049, 30 207.710 C 31.980 208.228, 32.514 209.152, 31.448 210.218 C 31.145 210.522, 28.649 209.685, 25.902 208.360 C 21.397 206.187, 21.058 205.799, 22.452 204.405 C 23.302 203.555, 24.291 201.691, 24.649 200.261 C 25.594 196.496, 22.439 194.294, 15.887 194.146 C 10.280 194.020, 8 195.159, 8 198.087 C 8 199.101, 7.100 200.411, 6 201 C 3.658 202.253, 3.311 206.522, 5.483 207.355 C 6.356 207.690, 6.714 208.582, 6.353 209.522 C 5.937 210.607, 6.423 211.298, 7.870 211.676 C 10.429 212.345, 10.525 212.895, 8.362 214.477 C 7.060 215.429, 6.922 216.271, 7.690 218.587 C 8.816 221.990, 12.830 223.027, 15.303 220.554 C 16.366 219.491, 18.538 219.047, 22.179 219.150 C 25.391 219.240, 26.347 219.471, 24.590 219.732 C 22.989 219.969, 20.739 220.746, 19.590 221.457 C 18.440 222.168, 15.250 223.286, 12.500 223.940 C 7.196 225.203, 3 227.431, 3 228.984 C 3 234.231, 32.574 241.970, 52.784 242.012 C 59.597 242.026, 68.486 244.225, 71.027 246.525 C 76.422 251.407, 93.115 249.164, 101 242.499 C 101.825 241.802, 106.867 240.498, 112.204 239.602 C 117.541 238.706, 122.603 237.706, 123.454 237.379 C 125.412 236.628, 125.417 237.906, 123.506 250.587 C 122.684 256.039, 122.009 261.738, 122.006 263.250 L 122 266 148.981 266 L 175.962 266 175.397 261.250 C 175.087 258.637, 174.421 254.055, 173.916 251.066 C 173.412 248.078, 173 242.565, 173 238.816 C 173 230.995, 173.958 230.341, 179.371 234.469 C 188.528 241.454, 205.714 243.846, 209.504 238.664 C 210.852 236.819, 217.306 235.013, 222.570 235.006 C 226.675 235, 239.350 229.004, 271.557 211.831 C 278.188 208.296, 285.072 204.799, 286.854 204.060 C 289.978 202.766, 290.084 202.534, 289.797 197.609 L 289.500 192.500 283.557 192 L 277.614 191.500 280.307 188.604 C 283.302 185.383, 283.692 183.498, 281.611 182.300 C 280.848 181.860, 280.055 180.600, 279.850 179.500 C 279.513 177.694, 278.559 177.470, 269.989 177.192 C 256.874 176.766, 252 177.559, 252 180.120 C 252 181.218, 250.575 183.891, 248.833 186.059 C 246.176 189.364, 245.069 190, 241.972 190 L 238.279 190 238.774 180.532 C 239.572 165.265, 236.575 160.984, 225.115 161.022 C 215.054 161.055, 211.417 163.153, 205.180 172.519 C 200.056 180.212, 198.850 184.450, 201.133 186.733 C 202.603 188.203, 201.518 191, 199.478 191 C 198.607 191, 196.230 192.145, 194.197 193.544 L 190.500 196.087 182 187.108 C 177.325 182.169, 172.150 177.470, 170.500 176.665 C 168.825 175.848, 166.998 173.864, 166.365 172.174 C 165.286 169.299, 165.386 169.086, 168.365 167.909 C 175.411 165.126, 177.212 161.766, 177.148 151.521 C 177.119 146.794, 177.571 144.027, 178.547 142.948 C 181.957 139.180, 183.265 131.781, 183.581 114.478 C 183.999 91.583, 184.201 88.614, 185.389 87.815 C 186.064 87.361, 185.984 86.349, 185.152 84.815 C 183.391 81.569, 176.825 74.521, 174.866 73.775 C 172.909 73.029, 167 61.578, 167 58.531 C 167 53.500, 174.119 50.100, 186.452 49.241 C 196.572 48.535, 199 46.588, 199 39.180 C 199 33.148, 196.833 30.082, 190.448 27.081 C 183.257 23.701, 176.324 22.692, 172.702 24.499 C 171.047 25.324, 169.599 26, 169.485 26 C 169.371 26, 169.481 24.937, 169.729 23.637 C 170.779 18.143, 163.032 8.321, 154.521 4.358 C 148.069 1.353, 135.129 1.123, 127.500 3.877 M 36.717 201.685 C 35.749 203.322, 37.889 206.980, 39.462 206.376 C 40.308 206.052, 41 205.454, 41 205.048 C 41 203.787, 37.226 200.824, 36.717 201.685 M 18.016 209.481 C 17.121 210.559, 17.322 211.102, 18.935 211.965 C 20.071 212.573, 21 213.781, 21 214.649 C 21 215.964, 21.791 216.109, 25.750 215.520 C 30.285 214.845, 31.827 214.313, 30.917 213.736 C 30.688 213.591, 27.949 212.264, 24.831 210.787 C 20.088 208.540, 18.974 208.326, 18.016 209.481" fill="none" stroke="#000" stroke-width="2px" fill-rule="evenodd"/>
</svg>
