<svg xmlns="http://www.w3.org/2000/svg" width="279" height="274" viewBox="0 0 279 274" version="1.1">
	<path d="M 157 3.709 C 156.175 4.012, 153.925 4.945, 152 5.783 C 150.075 6.621, 147.893 7.208, 147.152 7.087 C 144.943 6.727, 142.389 9.742, 139.557 16.053 L 136.888 22 129.066 22 C 123.449 22, 120.905 22.409, 120.040 23.452 C 119.042 24.654, 119.494 25.182, 122.667 26.520 C 124.775 27.408, 128.975 28.591, 132 29.149 C 138.373 30.323, 138.572 30.470, 139.452 34.647 C 140.040 37.446, 139.609 38.292, 135.557 42.287 C 133.051 44.758, 131 47.247, 131 47.818 C 131 49.108, 133.816 52, 135.071 52 C 135.582 52, 136 52.671, 136 53.492 C 136 54.312, 136.855 55.517, 137.900 56.170 C 138.945 56.822, 139.590 57.906, 139.332 58.577 C 139.074 59.248, 139.344 60.095, 139.932 60.458 C 140.519 60.821, 141 61.976, 141 63.024 C 141 64.072, 141.929 65.427, 143.064 66.034 C 144.677 66.898, 144.994 67.752, 144.512 69.946 C 144.087 71.879, 144.416 73.273, 145.567 74.424 C 146.486 75.343, 147.072 76.221, 146.869 76.374 C 146.666 76.527, 144.782 77.686, 142.683 78.950 C 140.583 80.213, 137.675 83.103, 136.220 85.373 C 134.765 87.643, 130.023 93.747, 125.681 98.937 C 121.339 104.128, 117.312 109.415, 116.733 110.687 C 116.153 111.959, 115.085 113, 114.359 113 C 113.633 113, 110.511 114.617, 107.421 116.594 C 101.977 120.076, 101.658 120.152, 97.151 119.027 C 92.311 117.819, 81.814 112.447, 76.317 108.364 C 72.347 105.416, 71.603 105.418, 69.269 108.386 L 67.392 110.771 60.026 108.941 C 42.663 104.626, 20.604 103.691, 30.750 107.701 C 33.036 108.604, 31.729 108.826, 23 109.016 L 12.500 109.244 19 110.416 L 25.500 111.589 15.790 112.312 C 3.033 113.262, -0.365 114.438, 7.069 115.331 C 10.056 115.689, 16.325 116.017, 21 116.059 C 27.863 116.121, 29.067 116.344, 27.250 117.220 C 26.012 117.817, 25 118.626, 25 119.017 C 25 119.973, 32.776 120.982, 40.890 121.079 C 48.413 121.169, 48.073 121.556, 39.636 122.510 C 35.784 122.945, 34.110 123.510, 34.758 124.158 C 35.406 124.806, 39.132 124.751, 45.622 123.999 C 51.055 123.369, 57.525 122.999, 60 123.177 C 64.280 123.484, 64.524 123.667, 65 126.928 L 65.500 130.356 76.500 130.670 C 84.097 130.886, 89.666 131.641, 94.500 133.110 C 98.350 134.279, 103.075 135.337, 105 135.460 C 108.358 135.674, 143.970 145.748, 145 146.775 C 145.275 147.049, 144.825 147.508, 144 147.793 C 142.548 148.296, 128.725 161.297, 118.803 171.492 C 116.131 174.237, 113.073 178.287, 112.008 180.492 C 109.412 185.862, 107.887 200.342, 108.061 217.965 C 108.192 231.203, 108.047 232.488, 106.352 233.119 C 91.349 238.706, 87 241.673, 87 246.323 C 87 249.673, 88.907 251.228, 96.500 254.070 C 101.671 256.005, 134.094 255.022, 138.758 252.788 C 141.228 251.605, 141.532 250.883, 141.821 245.504 C 141.998 242.220, 142.490 239.076, 142.916 238.517 C 143.341 237.958, 143.256 230.212, 142.727 221.304 C 141.482 200.370, 142.139 196.468, 147.503 192.952 C 149.701 191.510, 154.374 189.279, 157.887 187.992 C 164.818 185.455, 164.810 185.452, 167.961 190.934 C 168.539 191.939, 170.316 192.297, 173.910 192.133 C 178.737 191.913, 179.136 192.085, 180.768 195.075 C 181.720 196.822, 186.487 204.326, 191.360 211.752 C 200.894 226.280, 210.688 237.277, 221.808 245.941 C 225.648 248.933, 228.584 251.920, 228.332 252.578 C 228.079 253.236, 225.700 255.256, 223.045 257.068 C 217.185 261.067, 214.688 264.909, 215.596 268.528 C 217.225 275.016, 233.251 274.461, 247.123 267.436 C 251.855 265.040, 259.039 257.742, 261.677 252.652 C 263.084 249.936, 262.986 249.553, 259.576 244.417 C 257.609 241.455, 256 238.433, 256 237.702 C 256 236.972, 254.604 235.052, 252.898 233.437 C 249.220 229.955, 232.793 211.269, 228.200 205.342 C 224.141 200.104, 215.572 184.094, 216.390 183.276 C 217.418 182.248, 221.752 185.078, 231.341 193.040 C 246.116 205.307, 260.287 222.144, 272.084 241.449 C 274.958 246.152, 277.465 250, 277.655 250 C 277.845 250, 278 244.207, 278 237.126 L 278 224.251 269.932 213.654 C 255.054 194.112, 241.514 181.555, 222.460 169.626 C 216.633 165.978, 215.608 164.851, 213.607 159.897 L 211.343 154.295 214.337 154.209 C 218.318 154.096, 222.459 150.021, 221.539 147.121 C 221.141 145.869, 220.026 145, 218.816 145 C 216.489 145, 216.478 145.063, 220.601 134.500 C 222.778 128.924, 223.351 125.757, 223.417 118.928 C 223.496 110.725, 223.309 109.971, 219.073 101.428 C 216.639 96.518, 214.326 90.925, 213.933 89 C 209.554 67.526, 209.220 67, 199.965 67 C 194.658 67, 193.950 66.734, 191.826 63.947 C 190.547 62.268, 188.067 59.209, 186.316 57.149 C 181.417 51.386, 183.227 50.377, 191.707 54.145 C 198.281 57.066, 202 57.414, 202 55.108 C 202 53.271, 196.951 48.177, 191.948 44.967 C 187.216 41.930, 186.945 41.533, 187.609 38.614 C 187.999 36.901, 188.306 32.069, 188.291 27.875 C 188.249 15.312, 183.498 8.215, 172.715 4.603 C 168.069 3.047, 160.046 2.590, 157 3.709 M 111.293 120.962 C 109.103 122.737, 109.210 124, 111.550 124 C 112.558 124, 114.400 120.060, 113.710 119.380 C 113.595 119.266, 112.507 119.978, 111.293 120.962 M 142.128 129.891 C 139.966 131.533, 139.915 131.753, 141.545 132.379 C 143.674 133.196, 145.324 131.831, 144.844 129.651 C 144.542 128.280, 144.210 128.310, 142.128 129.891 M 148.158 132 C 148.158 133.375, 148.385 133.938, 148.662 133.250 C 148.940 132.563, 148.940 131.438, 148.662 130.750 C 148.385 130.063, 148.158 130.625, 148.158 132" fill="none" stroke="#000" stroke-width="2px" fill-rule="evenodd"/>
</svg>
