<svg xmlns="http://www.w3.org/2000/svg" width="197" height="296" viewBox="0 0 197 296" version="1.1">
	<path d="M 118.142 3.999 C 115.196 5.059, 111.294 7.064, 109.471 8.454 L 106.157 10.982 53.828 11.241 L 1.500 11.500 1.242 73.750 L 0.985 136 54.639 136 L 108.294 136 107.674 145.250 C 107.334 150.338, 105.957 159.225, 104.616 165 C 103.182 171.171, 102.536 175.935, 103.049 176.555 C 104.200 177.948, 103.400 242.415, 102.056 256.500 C 100.803 269.634, 99.897 273.098, 96.392 278.155 C 93.712 282.022, 85.780 288, 83.329 288 C 82.598 288, 82 288.585, 82 289.300 C 82 291.853, 84.484 293, 90.013 293 C 94.923 293, 95.980 292.631, 98.453 290.049 C 101.301 287.077, 106.330 284.663, 107.415 285.748 C 107.737 286.070, 108 287.383, 108 288.667 C 108 292.390, 109.847 291.364, 110.550 287.250 C 110.902 285.188, 111.679 282.060, 112.278 280.299 C 113.082 277.933, 113.058 276.422, 112.183 274.502 C 110.249 270.258, 110.814 263.359, 114.095 251.147 C 116.102 243.677, 117.420 235.915, 117.845 229.064 L 118.500 218.500 127 218.500 L 135.500 218.500 136.716 234 C 137.385 242.525, 138.239 253.437, 138.614 258.248 C 139.032 263.611, 138.802 271.001, 138.019 277.344 C 136.571 289.082, 137.530 293.217, 141.842 293.830 C 147.677 294.660, 150.919 286.451, 148.849 276.087 C 147.340 268.526, 147.361 268.098, 150.174 250.015 C 151.760 239.815, 152.119 234.225, 151.649 227.071 C 150.868 215.168, 155.117 179.188, 157.517 177.390 C 158.691 176.511, 158.878 174.747, 158.419 168.890 L 157.840 161.500 165.920 149.705 C 170.364 143.218, 174 137.480, 174 136.955 C 174 136.409, 178.496 136, 184.500 136 L 195 136 195 73.500 L 195 11 176.338 11 L 157.675 11 153.088 8.088 C 143.400 1.940, 128.662 0.215, 118.142 3.999 M 151 137.435 C 151 138.224, 151.466 140.096, 152.036 141.596 L 153.073 144.322 156.536 140.965 C 158.441 139.118, 160 137.246, 160 136.804 C 160 136.362, 157.975 136, 155.500 136 C 152.257 136, 151 136.401, 151 137.435" fill="none" stroke="#000" stroke-width="2px" fill-rule="evenodd"/>
</svg>
