<svg xmlns="http://www.w3.org/2000/svg" width="198" height="296" viewBox="0 0 198 296" version="1.1">
	<path d="M 113.125 4.742 C 112.589 5.700, 111.815 6.149, 111.406 5.739 C 110.997 5.330, 109.811 5.766, 108.770 6.708 C 107.164 8.161, 106.744 8.205, 105.996 6.994 C 104.493 4.561, 102.723 10.604, 104.145 13.315 C 105.283 15.484, 105.276 15.486, 103.146 13.595 C 101.965 12.547, 101 12.155, 101 12.723 C 101 13.290, 101.675 14.315, 102.500 15 C 103.325 15.685, 104 16.695, 104 17.245 C 104 17.813, 103.366 17.719, 102.533 17.027 C 101.301 16.005, 101.073 16.265, 101.114 18.655 C 101.201 23.781, 99.728 31.454, 98.207 33.790 C 96.096 37.035, 97.118 54.443, 99.881 62.290 C 101.352 66.467, 101.666 68.747, 101.010 70.473 C 99.897 73.402, 101.115 78.059, 103.932 81.640 C 105.069 83.087, 106 85.054, 106 86.013 C 106 91.845, 114.100 103.572, 121.335 108.215 C 125.085 110.621, 125.839 111.510, 124.681 112.159 C 123.796 112.654, 123.399 113.810, 123.708 114.992 C 124.229 116.982, 124.214 116.982, 119.647 114.962 C 117.126 113.847, 111.786 112.085, 107.782 111.046 C 103.777 110.007, 99.039 108.415, 97.253 107.507 C 94.538 106.127, 94.171 105.550, 95.009 103.984 C 96.333 101.510, 97.712 100.726, 98.500 102 C 98.851 102.568, 99.564 102.769, 100.085 102.447 C 100.606 102.125, 100.773 101.442, 100.456 100.929 C 100.139 100.416, 101.019 99.563, 102.412 99.033 C 107.911 96.943, 106.420 89.266, 100.735 90.403 C 99.023 90.745, 96.644 90.350, 94.858 89.427 C 90.813 87.335, 80.092 87.384, 75.974 89.513 C 73.045 91.028, 72.856 91.429, 73.476 94.826 C 73.845 96.847, 75.014 99.988, 76.073 101.807 C 77.133 103.626, 78 105.314, 78 105.557 C 78 105.801, 75.516 106, 72.481 106 C 67.263 106, 66.992 105.877, 67.506 103.750 C 67.805 102.513, 69.140 97, 70.472 91.500 C 73.333 79.694, 73.234 79.504, 63.654 78.481 L 57.500 77.824 57.500 72.826 C 57.500 67.894, 57.447 67.809, 53.513 66.450 C 50.649 65.461, 49.242 65.379, 48.513 66.162 C 47.821 66.905, 47.914 67.401, 48.806 67.727 C 51.558 68.732, 54 72.475, 54 75.689 C 54 78.421, 53.607 79.021, 51.750 79.118 C 48.998 79.263, 47.215 79.101, 44.138 78.425 C 41.861 77.924, 41.840 77.835, 43.543 75.953 C 44.515 74.879, 45.953 74, 46.738 74 C 47.524 74, 47.968 73.438, 47.726 72.750 C 47.483 72.063, 46.433 71.644, 45.392 71.820 C 40.567 72.637, 34.570 71.921, 32.795 70.315 C 30.104 67.879, 24.564 68.122, 21.713 70.800 C 20.425 72.010, 18.481 73, 17.394 73 C 16.306 73, 13.445 75.008, 11.036 77.463 L 6.656 81.927 7.971 85.911 C 8.694 88.103, 9.984 90.163, 10.837 90.491 C 12.028 90.948, 11.661 91.528, 9.248 92.995 C 7.029 94.345, 5.914 95.942, 5.444 98.446 C 4.201 105.074, 7.307 112, 11.523 112 C 14.830 112, 14.664 113.482, 11.197 114.918 C 6.468 116.877, 3 120.764, 3 124.106 C 3 128.768, 4.588 130.764, 10.788 133.890 C 23.473 140.287, 40.873 143.685, 64.985 144.475 C 79.108 144.938, 79.150 144.946, 85.019 148.512 C 88.254 150.477, 93.399 152.609, 96.451 153.249 C 99.503 153.889, 102 154.770, 102 155.206 C 102 155.643, 102.885 156, 103.966 156 C 106.235 156, 118.245 149.615, 120.037 147.455 C 120.701 146.655, 121.527 146.002, 121.872 146.004 C 122.218 146.005, 122.500 152.331, 122.500 160.061 C 122.500 173.188, 122.640 174.227, 124.623 175.808 L 126.745 177.500 125.861 214 C 125.375 234.075, 124.716 256.378, 124.396 263.563 L 123.815 276.626 116.812 278.270 C 112.961 279.174, 109.177 280.438, 108.405 281.079 C 105.967 283.102, 106.870 284.882, 110.750 285.705 C 114.798 286.563, 138.560 286.774, 139.375 285.958 C 139.647 285.686, 140.124 263.460, 140.434 236.566 C 140.744 209.673, 141.189 187.478, 141.423 187.243 C 141.658 187.009, 142.856 187.137, 144.086 187.527 L 146.322 188.237 145.649 236.486 C 145.114 274.786, 145.236 284.940, 146.238 285.732 C 147.935 287.074, 162.170 287.962, 168.990 287.152 C 178.403 286.034, 176.261 281.389, 165.110 278.740 L 159.903 277.504 160.701 234.502 C 161.141 210.851, 161.500 188.725, 161.500 185.334 C 161.500 181.386, 161.860 179.440, 162.500 179.923 C 163.050 180.339, 167.170 183.682, 171.657 187.352 L 179.813 194.025 187.548 184.409 C 191.802 179.120, 194.854 174.502, 194.331 174.146 C 190.160 171.312, 186 167.570, 186 166.651 C 186 166.040, 187.620 162.914, 189.601 159.706 C 194.328 152.047, 195.124 144.894, 192.123 137.047 C 190.770 133.509, 190.400 131.371, 191.070 130.957 C 192.868 129.845, 190.073 125.829, 182.975 119.320 C 174.394 111.453, 168.382 109.582, 160.942 112.463 C 158.812 113.288, 154.544 109.396, 154.310 106.416 C 154.149 104.376, 154.569 104, 157.001 104 C 160.809 104, 161.549 102.571, 158.469 101.168 C 154.658 99.431, 155.545 98.129, 160.120 98.743 L 164.240 99.295 162.614 96.815 C 160.831 94.094, 161.259 90.122, 164.671 77.729 C 165.954 73.066, 166.400 67.352, 166.443 55 C 166.507 36.554, 165.202 30.426, 160.223 25.784 C 156.457 22.272, 154.632 21.459, 144.970 18.992 C 136.957 16.947, 130.896 14.390, 130.167 12.750 C 129.983 12.338, 128.507 12, 126.885 12 C 125.139 12, 123.694 11.365, 123.340 10.443 C 122.995 9.544, 122.096 9.133, 121.216 9.471 C 119.280 10.213, 114.965 6.256, 115.679 4.394 C 116.452 2.381, 114.280 2.676, 113.125 4.742 M 100.250 93.662 C 99.563 93.940, 99 94.837, 99 95.657 C 99 97.728, 102.393 96.911, 102.812 94.739 C 103.149 92.987, 102.548 92.735, 100.250 93.662 M 10.029 97.465 C 8.480 99.331, 9.426 105.279, 11.552 107.043 C 12.867 108.134, 12.969 107.561, 12.387 102.394 C 11.604 95.451, 11.639 95.525, 10.029 97.465 M 163 134.927 L 163 148.854 166.627 151.844 C 170.303 154.874, 171.732 155.043, 179.816 153.400 C 183.676 152.615, 185.171 147.510, 183.564 140.598 C 182.833 137.452, 181.282 133.864, 180.117 132.625 C 178.953 131.385, 178 129.916, 178 129.360 C 178 127.724, 173.762 124.216, 169.768 122.548 C 162.872 119.666, 163 119.433, 163 134.927 M 106.500 140.992 C 104.850 141.439, 101.700 142.129, 99.500 142.527 L 95.500 143.250 99 144.481 C 100.925 145.157, 102.645 145.340, 102.823 144.887 C 103 144.434, 104.672 143.777, 106.537 143.427 C 108.403 143.077, 110.450 142.163, 111.087 141.395 C 112.430 139.776, 111.346 139.681, 106.500 140.992" fill="none" stroke="#000" stroke-width="2px" fill-rule="evenodd"/>
</svg>
