<?xml version="1.0" encoding="UTF-8" standalone="no"?>
<svg
   xmlns:dc="http://purl.org/dc/elements/1.1/"
   xmlns:cc="http://creativecommons.org/ns#"
   xmlns:rdf="http://www.w3.org/1999/02/22-rdf-syntax-ns#"
   xmlns:svg="http://www.w3.org/2000/svg"
   xmlns="http://www.w3.org/2000/svg"
   xmlns:sodipodi="http://sodipodi.sourceforge.net/DTD/sodipodi-0.dtd"
   xmlns:inkscape="http://www.inkscape.org/namespaces/inkscape"
   width="200"
   height="200"
   viewBox="0 0 52.916665 52.916668"
   version="1.1"
   id="svg1636"
   inkscape:version="1.0.2-2 (e86c870879, 2021-01-15)"
   sodipodi:docname="2.svg">
  <defs
     id="defs1630" />
  <sodipodi:namedview
     id="base"
     pagecolor="#ffffff"
     bordercolor="#666666"
     borderopacity="1.0"
     inkscape:pageopacity="0.0"
     inkscape:pageshadow="2"
     inkscape:zoom="2.8"
     inkscape:cx="130.21836"
     inkscape:cy="115.454"
     inkscape:document-units="mm"
     inkscape:current-layer="layer1"
     inkscape:document-rotation="0"
     showgrid="false"
     units="px"
     inkscape:window-width="2400"
     inkscape:window-height="1271"
     inkscape:window-x="2391"
     inkscape:window-y="-9"
     inkscape:window-maximized="1" />
  <metadata
     id="metadata1633">
    <rdf:RDF>
      <cc:Work
         rdf:about="">
        <dc:format>image/svg+xml</dc:format>
        <dc:type
           rdf:resource="http://purl.org/dc/dcmitype/StillImage" />
        <dc:title></dc:title>
      </cc:Work>
    </rdf:RDF>
  </metadata>
  <g
     inkscape:label="Layer 1"
     inkscape:groupmode="layer"
     id="layer1">
    <g
       id="g4165"
       transform="matrix(0.52833144,0,0,0.44046758,-453.72461,-252.61783)">
      <path
         id="path1234"
         style="fill:#ecedea;fill-opacity:1;fill-rule:nonzero;stroke:none;stroke-width:0.133333"
         d="m 886.73998,656.33738 c -0.009,0.0387 -0.0293,0.0587 -0.0387,0.0973 -0.264,1.39733 -0.20533,2.89067 -1.40667,3.91733 -0.76133,0.65467 -1.95333,0.732 -2.77466,0.20534 -0.0187,-1.71067 -0.048,-3.40934 -0.0867,-5.11867 1.42533,0.35067 2.86133,0.644 4.30667,0.89867" />
      <path
         id="path1236"
         style="fill:#ecedea;fill-opacity:1;fill-rule:nonzero;stroke:none;stroke-width:0.133333"
         d="m 892.96264,657.20671 c -0.108,0.81067 0.21467,1.53333 -0.13733,2.344 -0.34133,0.80133 -1.13333,1.55333 -2.04133,1.612 -1.95334,0.12667 -2.99867,-2.50133 -2.21734,-4.02533 0.088,-0.176 0.0387,-0.36134 -0.068,-0.488 1.484,0.22533 2.96934,0.41066 4.464,0.55733" />
      <path
         id="path1238"
         style="fill:#ecedea;fill-opacity:1;fill-rule:nonzero;stroke:none;stroke-width:0.133333"
         d="m 899.10664,657.59738 c 0.0587,0.71333 0.28267,1.308 -0.009,2.05066 -0.29333,0.74267 -0.95733,1.456 -1.77867,1.57334 -1.856,0.28266 -3.22266,-2.12934 -2.49066,-3.69334 0.0293,-0.0573 0.0387,-0.10666 0.0493,-0.16533 1.40667,0.108 2.81333,0.18533 4.22933,0.23467" />
      <path
         id="path1240"
         style="fill:#ecedea;fill-opacity:1;fill-rule:nonzero;stroke:none;stroke-width:0.133333"
         d="m 905.51464,657.64538 c 0.32134,-0.009 0.644,-0.0293 0.96667,-0.0293 -0.0587,1.69067 -0.752,3.644 -2.804,3.63467 -1.31867,0 -2.324,-1.02667 -2.72533,-2.228 0.04,-0.468 -0.009,-0.94667 -0.16534,-1.35733 0,-0.009 0,-0.02 0,-0.0293 1.572,0.0293 3.15467,0.0387 4.728,0.009" />
      <path
         id="path1242"
         style="fill:#ecedea;fill-opacity:1;fill-rule:nonzero;stroke:none;stroke-width:0.133333"
         d="m 913.27064,657.22538 c 0.0867,0.91866 0.23334,1.67066 -0.216,2.54 -0.40933,0.772 -1.14266,1.39733 -2.03066,1.504 -1.348,0.14666 -2.41334,-0.84934 -2.85334,-2.06134 0.108,-0.54666 0.0987,-1.10266 -0.088,-1.65066 1.72934,-0.068 3.45867,-0.18534 5.188,-0.332" />
      <path
         id="path1244"
         style="fill:#ecedea;fill-opacity:1;fill-rule:nonzero;stroke:none;stroke-width:0.133333"
         d="m 918.49598,657.06938 c 0.312,0.76266 0.52666,1.40666 0.18533,2.208 -0.27333,0.65466 -0.86,1.25066 -1.592,1.31866 -0.79067,0.088 -1.46533,-0.39066 -1.88533,-1.06533 0.23466,-0.82933 0.196,-1.69867 -0.25334,-2.48 0.928,-0.0893 1.85467,-0.16667 2.78267,-0.284 0.23467,-0.0293 0.47867,-0.0587 0.724,-0.0787 -0.02,0.11734 -0.02,0.24534 0.0387,0.38134" />
      <path
         id="path1246"
         style="fill:#ecedea;fill-opacity:1;fill-rule:nonzero;stroke:none;stroke-width:0.133333"
         d="m 926.69064,654.66671 c -0.0387,1.064 -0.068,2.12933 -0.10666,3.19467 -0.23467,0.0293 -0.46934,0.156 -0.616,0.36133 -0.39067,0.54667 -0.37067,1.19067 -0.928,1.64 -0.53734,0.43067 -1.31867,0.58667 -1.97334,0.38133 -1.044,-0.332 -1.79733,-1.348 -2.26533,-2.412 -0.0587,-0.372 -0.18533,-0.724 -0.38133,-1.056 -0.02,-0.0973 -0.0493,-0.19466 -0.0787,-0.28266 2.10133,-0.21467 4.28933,-0.49867 5.97867,-1.39734 0.176,-0.0973 0.30266,-0.25333 0.37066,-0.42933" />
      <path
         id="path1248"
         style="fill:#ecedea;fill-opacity:1;fill-rule:nonzero;stroke:none;stroke-width:0.133333"
         d="m 926.80798,650.97471 c -0.0293,0.96667 -0.0587,1.93333 -0.088,2.9 -0.0293,-0.10667 -0.048,-0.224 -0.068,-0.332 -0.12667,-0.644 -1.05467,-0.70267 -1.368,-0.17467 -1.084,1.88534 -10.40267,1.86534 -12.23867,2.03067 -3.43867,0.30267 -6.896,0.46 -10.35333,0.44933 -6.80934,0 -13.52934,-0.82 -20.288,-1.504 -0.02,-1.192 -0.04,-2.38266 -0.0787,-3.57466 6.90533,2.432 14.916,2.75466 22.124,2.72533 7.48267,-0.02 15.08133,-0.772 22.35867,-2.52" />
      <path
         id="path1250"
         style="fill:#ecedea;fill-opacity:1;fill-rule:nonzero;stroke:none;stroke-width:0.133333"
         d="m 927.29731,636.20538 c -0.0693,2.1 -0.14667,4.19066 -0.20533,6.29066 -0.49867,-0.156 -0.968,-0.13733 -1.48534,-0.264 -0.69333,-0.16666 -1.30933,-0.54666 -1.84533,-1.016 -0.23467,-0.20533 -0.44,-0.44 -0.636,-0.684 0.11733,-1.02533 -0.0387,-2.11866 -0.69333,-2.784 1.64133,-0.45866 3.272,-0.96666 4.86533,-1.54266" />
      <path
         id="path1252"
         style="fill:#ecedea;fill-opacity:1;fill-rule:nonzero;stroke:none;stroke-width:0.133333"
         d="m 920.99598,638.18804 c -0.0293,0.89867 0.41066,1.67067 0.21466,2.59867 -0.21466,0.976 -0.908,1.748 -1.86533,2.012 -1.904,0.51733 -3.496,-1.56267 -2.38267,-3.23333 0.10667,-0.16667 0.068,-0.352 -0.04,-0.47867 1.37734,-0.28267 2.736,-0.596 4.084,-0.948 0,0.02 -0.0107,0.0293 -0.0107,0.0493" />
      <path
         id="path1254"
         style="fill:#ecedea;fill-opacity:1;fill-rule:nonzero;stroke:none;stroke-width:0.133333"
         d="m 914.14931,639.60404 c 0.21467,0.74267 0.4,1.348 0.136,2.12934 -0.27333,0.78266 -0.908,1.524 -1.748,1.70933 -1.788,0.40133 -3.204,-1.58133 -3.03733,-3.21333 1.56266,-0.156 3.10533,-0.37067 4.64933,-0.62534" />
      <path
         id="path1256"
         style="fill:#ecedea;fill-opacity:1;fill-rule:nonzero;stroke:none;stroke-width:0.133333"
         d="m 907.47731,640.43471 c -0.10667,0.63467 0,1.29867 -0.28267,1.95333 -0.40133,0.91867 -1.18266,1.75867 -2.188,1.98267 -2.17866,0.49867 -3.976,-1.71867 -3.84933,-3.75067 2.1,0.0293 4.21067,-0.0293 6.32,-0.18533" />
      <path
         id="path1258"
         style="fill:#ecedea;fill-opacity:1;fill-rule:nonzero;stroke:none;stroke-width:0.133333"
         d="m 899.24264,640.58138 c -0.0867,1.07466 -0.0187,2.012 -0.69333,2.94933 -0.576,0.83067 -1.51333,1.456 -2.55867,1.40667 -1.368,-0.0587 -2.432,-1.22 -2.73466,-2.52 0.34133,-0.62534 0.44933,-1.31867 0.18533,-2.012 0.048,-0.12667 0.0387,-0.244 -0.009,-0.332 1.924,0.25333 3.85733,0.42 5.81066,0.508" />
      <path
         id="path1260"
         style="fill:#ecedea;fill-opacity:1;fill-rule:nonzero;stroke:none;stroke-width:0.133333"
         d="m 891.94664,640.09338 c 0.0973,0.89866 0.088,1.572 -0.58666,2.26533 -0.732,0.73333 -1.77734,1.05467 -2.744,0.62533 -0.908,-0.41066 -1.524,-1.21066 -1.88534,-2.13866 0.18534,-0.704 0.244,-1.436 0.0587,-2.052 1.7,0.44 3.428,0.792 5.16667,1.06533 -0.0187,0.068 -0.0187,0.14667 -0.009,0.23467" />
      <path
         id="path1262"
         style="fill:#ecedea;fill-opacity:1;fill-rule:nonzero;stroke:none;stroke-width:0.133333"
         d="m 885.12798,638.32538 c 0.0107,0.54666 0.24533,1.05466 0.23466,1.62133 -0.009,0.74267 -0.27333,1.484 -0.732,2.07067 -0.64533,0.81066 -1.62133,1.192 -2.61866,1.21066 -0.0973,-2.00266 -0.204,-4.01466 -0.332,-6.016 1.13333,0.40934 2.28666,0.78134 3.448,1.11334" />
      <path
         id="path1264"
         style="fill:#ecedea;fill-opacity:1;fill-rule:nonzero;stroke:none;stroke-width:0.133333"
         d="m 927.45331,631.22404 c -0.0293,0.93734 -0.0587,1.86534 -0.088,2.80267 -0.0293,0.009 -0.0587,0.009 -0.0973,0.02 -15.268,5.31333 -29.89067,5.00133 -45.55867,1.856 -0.0387,-0.0107 -0.068,0 -0.10667,0 -0.0787,-1.27067 -0.156,-2.54 -0.244,-3.82 14.476,3.34133 32.09734,5.13867 46.09467,-0.85867" />
      <path
         id="path1266"
         style="fill:#171717;fill-opacity:1;fill-rule:nonzero;stroke:none;stroke-width:0.133333"
         d="m 885.36264,639.94671 c 0.0107,-0.56667 -0.224,-1.07467 -0.23466,-1.62133 -1.16134,-0.332 -2.31467,-0.704 -3.448,-1.11334 0.128,2.00134 0.23466,4.01334 0.332,6.016 0.99733,-0.0187 1.97333,-0.4 2.61866,-1.21066 0.45867,-0.58667 0.72267,-1.328 0.732,-2.07067 z m 1.33867,16.488 c 0.009,-0.0387 0.0293,-0.0587 0.0387,-0.0973 -1.44534,-0.25467 -2.88134,-0.548 -4.30667,-0.89867 0.0387,1.70933 0.068,3.408 0.0867,5.11867 0.82133,0.52666 2.01333,0.44933 2.77466,-0.20534 1.20134,-1.02666 1.14267,-2.52 1.40667,-3.91733 z m 4.65867,-14.076 c 0.67466,-0.69333 0.684,-1.36667 0.58666,-2.26533 -0.009,-0.088 -0.009,-0.16667 0.009,-0.23467 -1.73867,-0.27333 -3.46667,-0.62533 -5.16667,-1.06533 0.18533,0.616 0.12667,1.348 -0.0587,2.052 0.36134,0.928 0.97734,1.728 1.88534,2.13866 0.96666,0.42934 2.012,0.108 2.744,-0.62533 z m 1.46533,17.192 c 0.352,-0.81067 0.0293,-1.53333 0.13733,-2.344 -1.49466,-0.14667 -2.98,-0.332 -4.464,-0.55733 0.10667,0.12666 0.156,0.312 0.068,0.488 -0.78133,1.524 0.264,4.152 2.21734,4.02533 0.908,-0.0587 1.7,-0.81067 2.04133,-1.612 z m 5.724,-16.02 c 0.67467,-0.93733 0.60667,-1.87467 0.69333,-2.94933 -1.95333,-0.088 -3.88666,-0.25467 -5.81066,-0.508 0.048,0.088 0.0573,0.20533 0.009,0.332 0.264,0.69333 0.156,1.38666 -0.18533,2.012 0.30266,1.3 1.36666,2.46133 2.73466,2.52 1.04534,0.0493 1.98267,-0.576 2.55867,-1.40667 z m 0.548,16.11733 c 0.292,-0.74266 0.068,-1.33733 0.009,-2.05066 -1.416,-0.0493 -2.82266,-0.12667 -4.22933,-0.23467 -0.0107,0.0587 -0.02,0.108 -0.0493,0.16533 -0.732,1.564 0.63466,3.976 2.49066,3.69334 0.82134,-0.11734 1.48534,-0.83067 1.77867,-1.57334 z m 7.384,-2.032 c -0.32267,0 -0.64533,0.02 -0.96667,0.0293 -1.57333,0.0293 -3.156,0.02 -4.728,-0.009 0,0.009 0,0.02 0,0.0293 0.156,0.41066 0.20534,0.88933 0.16534,1.35733 0.40133,1.20133 1.40666,2.228 2.72533,2.228 2.052,0.009 2.74533,-1.944 2.804,-3.63467 z m 0.71333,-15.228 c 0.28267,-0.65466 0.176,-1.31866 0.28267,-1.95333 -2.10933,0.156 -4.22,0.21467 -6.32,0.18533 -0.12667,2.032 1.67067,4.24934 3.84933,3.75067 1.00534,-0.224 1.78667,-1.064 2.188,-1.98267 z m -33.60133,-43.51599 c 16.85867,2.95999 35.232,3.67333 52.53067,1.58266 -9.044,-1.75866 -17.69867,-3.536 -27.10534,-3.516 -8.54666,0.0187 -16.948,1.22 -25.42533,1.93334 z m 39.46133,60.89333 c 0.44934,-0.86934 0.30267,-1.62134 0.216,-2.54 -1.72933,0.14666 -3.45866,0.264 -5.188,0.332 0.18667,0.548 0.196,1.104 0.088,1.65066 0.44,1.212 1.50534,2.208 2.85334,2.06134 0.888,-0.10667 1.62133,-0.732 2.03066,-1.504 z m 1.23067,-18.032 c 0.264,-0.78134 0.0787,-1.38667 -0.136,-2.12934 -1.544,0.25467 -3.08667,0.46934 -4.64933,0.62534 -0.16667,1.632 1.24933,3.61466 3.03733,3.21333 0.84,-0.18533 1.47467,-0.92667 1.748,-1.70933 z m 4.396,17.544 c 0.34133,-0.80134 0.12667,-1.44534 -0.18533,-2.208 -0.0587,-0.136 -0.0587,-0.264 -0.0387,-0.38134 -0.24533,0.02 -0.48933,0.0493 -0.724,0.0787 -0.928,0.11733 -1.85467,0.19467 -2.78267,0.284 0.44934,0.78133 0.488,1.65067 0.25334,2.48 0.42,0.67467 1.09466,1.15333 1.88533,1.06533 0.732,-0.068 1.31867,-0.664 1.592,-1.31866 z m 2.52933,-18.49067 c 0.196,-0.928 -0.244,-1.7 -0.21466,-2.59867 0,-0.02 0.0107,-0.0293 0.0107,-0.0493 -1.348,0.352 -2.70666,0.66533 -4.084,0.948 0.108,0.12667 0.14667,0.312 0.04,0.47867 -1.11333,1.67066 0.47867,3.75066 2.38267,3.23333 0.95733,-0.264 1.65067,-1.036 1.86533,-2.012 z m 4.78667,34.59733 c 0.20533,-4.71733 0.332,-9.44533 0.47867,-14.16266 -0.89867,0.68266 -2.12,1.11333 -2.96,1.064 -1.504,-0.088 -2.53867,-0.91734 -3.20267,-2.05067 -0.67467,1.26 -1.93467,2.236 -3.32133,2.236 -1.09467,0 -2.02267,-0.53733 -2.648,-1.31867 -0.888,1.13334 -2.236,1.944 -3.516,1.944 -1.504,-0.009 -2.77467,-0.89866 -3.48667,-2.11866 -0.91867,1.20133 -2.404,2.04133 -3.82933,1.95333 -1.39734,-0.0987 -2.52,-0.89867 -3.184,-1.99333 -0.65467,1.07466 -1.768,1.89466 -3.03867,1.97333 -1.504,0.0973 -2.73467,-0.81067 -3.36933,-2.04133 -0.74267,1.152 -1.99334,1.95333 -3.38934,1.876 -1.49466,-0.088 -2.63733,-1.124 -3.14533,-2.404 -0.48933,0.792 -1.14267,1.44666 -1.964,1.77866 -0.94667,0.4 -2.012,0.37067 -2.89067,-0.02 0,0.89867 0.009,1.79734 0.009,2.70534 0,5.06 -0.21467,10.12 -0.28267,15.18 -0.0987,6.16266 3.24267,8.52666 8.72267,9.836 4.83466,1.152 9.82666,1.612 14.79866,1.436 4.94134,-0.18534 12.844,-0.51734 16.74134,-4.16134 3.184,-2.97866 3.312,-7.668 3.47733,-11.712 z m 0.58667,-17.52266 c 0.0387,-1.06534 0.068,-2.13067 0.10666,-3.19467 -0.068,0.176 -0.19466,0.332 -0.37066,0.42933 -1.68934,0.89867 -3.87734,1.18267 -5.97867,1.39734 0.0293,0.088 0.0587,0.18533 0.0787,0.28266 0.196,0.332 0.32266,0.684 0.38133,1.056 0.468,1.064 1.22133,2.08 2.26533,2.412 0.65467,0.20534 1.436,0.0493 1.97334,-0.38133 0.55733,-0.44933 0.53733,-1.09333 0.928,-1.64 0.14666,-0.20533 0.38133,-0.332 0.616,-0.36133 z m 0.136,-3.98667 c 0.0293,-0.96667 0.0587,-1.93333 0.088,-2.9 -7.27734,1.748 -14.876,2.5 -22.35867,2.52 -7.208,0.0293 -15.21867,-0.29333 -22.124,-2.72533 0.0387,1.192 0.0587,2.38266 0.0787,3.57466 6.75866,0.684 13.47866,1.504 20.288,1.504 3.45733,0.0107 6.91466,-0.14666 10.35333,-0.44933 1.836,-0.16533 11.15467,-0.14533 12.23867,-2.03067 0.31333,-0.528 1.24133,-0.46933 1.368,0.17467 0.02,0.108 0.0387,0.22533 0.068,0.332 z m 0.15733,-4.81467 c 0.048,-1.68 0.10667,-3.35066 0.156,-5.03066 -1.44533,0.63466 -3.43867,-0.60534 -4.43467,-1.70934 -0.69333,1.35734 -2.06133,2.208 -3.58533,2.276 -1.416,0.068 -2.608,-0.73333 -3.21333,-1.82666 -0.65467,1.26 -1.856,2.28533 -3.16534,2.432 -1.64,0.196 -3.04666,-0.752 -3.76933,-2.07067 -0.0693,0.14667 -0.13733,0.29333 -0.20533,0.42 -0.74267,1.348 -2.14,2.41333 -3.69334,2.56933 -1.96266,0.20534 -3.672,-0.99733 -4.464,-2.648 -0.85866,1.82667 -2.95866,3.27334 -4.83466,3.028 -1.63067,-0.21466 -2.90134,-1.44533 -3.39867,-2.91066 -0.93867,0.78133 -2.19867,1.25066 -3.204,1.124 -1.456,-0.196 -2.452,-1.07467 -3.048,-2.21734 -0.136,0.21467 -0.27333,0.41067 -0.42933,0.56667 -0.928,0.976 -2.228,1.40667 -3.51734,1.308 0.088,1.74933 0.15734,3.49733 0.216,5.256 7.10134,0.44933 14.07467,1.836 21.23467,1.87467 7.912,0.0493 15.6,-1.00534 23.356,-2.44134 z m 0.21467,-6.564 c 0.0587,-2.1 0.136,-4.19066 0.20533,-6.29066 -1.59333,0.576 -3.224,1.084 -4.86533,1.54266 0.65466,0.66534 0.81066,1.75867 0.69333,2.784 0.196,0.244 0.40133,0.47867 0.636,0.684 0.536,0.46934 1.152,0.84934 1.84533,1.016 0.51734,0.12667 0.98667,0.108 1.48534,0.264 z m 0.27333,-8.46933 c 0.0293,-0.93733 0.0587,-1.86533 0.088,-2.80267 -13.99733,5.99734 -31.61867,4.2 -46.09467,0.85867 0.088,1.28 0.16534,2.54933 0.244,3.82 0.0387,0 0.068,-0.0107 0.10667,0 15.668,3.14533 30.29067,3.45733 45.55867,-1.856 0.0387,-0.0107 0.068,-0.0107 0.0973,-0.02 z m 1.104,-32.028 c -0.0787,0.0573 -0.15733,0.116 -0.264,0.14533 -4.96267,1.64134 -10.432,1.39734 -15.60933,1.476 -5.196,0.068 -10.39334,0.0773 -15.58,-0.14666 -4.952,-0.21467 -9.904,-0.664 -14.77867,-1.504 -1.964,-0.34267 -5.88,-0.53734 -8.176,-1.79734 2.98,2.568 4.31733,6.42667 5.06,10.608 1.16267,6.49467 1.7,13.176 2.13867,19.808 7.6,0.636 15.112,1.97334 22.75066,2.16934 8.204,0.20533 15.76534,-1.06534 23.51067,-3.61467 0.30267,-9.04533 0.60533,-18.1 0.948,-27.144 z m 16.27333,31.764 c 0.42,-4.668 1.24934,-9.53333 1.11334,-14.232 -0.196,-6.90533 -10.21734,-4.80533 -15.404,-3.81867 -0.0493,1.30934 -0.088,2.61734 -0.13734,3.91734 3.67334,-1.524 9.25067,-2.852 11.136,1.436 0.14667,0.332 0.0293,0.74133 -0.21466,0.98666 1.328,4.424 0.888,9.19067 0.85866,13.81067 -0.0187,3.08667 0.352,6.53467 0.0693,9.808 -0.18667,2.02133 -0.616,3.97467 -1.55334,5.71333 -0.21466,0.40134 -0.62533,0.47867 -0.98666,0.36267 -0.0293,0.156 -0.108,0.30267 -0.23467,0.42 -1.016,0.89733 -2.208,1.12267 -2.96933,2.36267 -0.772,1.26 -0.97734,2.86266 -0.46934,4.24933 1.07467,2.94 4.572,4.024 7.48267,3.956 -0.25333,-5.66533 -0.0587,-11.31067 0.32267,-16.96667 0.264,-4.00533 0.62533,-8.00933 0.98666,-12.00533 z m 0.576,-20.46267 c 2.96934,1.66934 2.84267,5.44934 2.696,8.38 -0.73333,13.97867 -2.84266,27.78 -2.276,41.81734 0.0387,1.172 -1.348,1.38666 -1.97333,0.712 -4.07333,0.968 -8.976,-0.81067 -10.13867,-5.20534 -0.76266,-2.912 1.308,-9.49466 5.38134,-8.244 0.0107,0 0.0107,0 0.02,0 0,-0.0107 0,-0.02 0,-0.04 1.64133,-4.64933 1.09466,-9.98266 1.152,-14.85733 0.0493,-4.79467 0.176,-9.504 -0.468,-14.25067 -1.31867,-0.928 -2.46134,-1.612 -4.27867,-1.66 -1.75867,-0.0493 -3.47733,0.38 -5.15733,0.86934 -0.44,12.776 -0.89867,25.552 -1.33867,38.328 -0.244,7.20933 0.22533,14.916 -1.064,22.03733 -0.948,5.24533 -3.80933,8.74267 -8.908,10.38267 -6.96533,2.24666 -14.916,2.49066 -22.12533,1.632 -4.73734,-0.576 -11.08667,-1.30934 -14.612,-4.98267 -3.98534,-4.14133 -2.16934,-11.652 -2.08134,-16.77067 0.14667,-8.53733 0.0293,-17.084 -0.332,-25.62133 -0.36133,-8.53733 -0.98666,-17.05467 -1.86533,-25.55333 -0.69333,-6.79867 -0.72267,-17.40534 -7.95067,-20.864 -0.39066,-0.19467 -0.41066,-0.63467 -0.23466,-0.96667 0.009,-0.04 0.0387,-0.068 0.0587,-0.108 0.14667,-0.19466 0.38,-0.32266 0.644,-0.264 9.75867,-2.57866 20.308,-3.36 30.35867,-3.29066 9.39733,0.0587 20.09333,0.70266 28.816,4.47333 0.28267,0.11733 0.42,0.312 0.468,0.528 0.46,0.116 0.82133,0.488 0.80133,1.10266 -0.12666,4.34667 -0.264,8.704 -0.4,13.06 4.464,-1.368 11.04667,-2.75466 14.808,-0.644" />
      <path
         id="path1268"
         style="fill:#39a395;fill-opacity:1;fill-rule:nonzero;stroke:none;stroke-width:0.133333"
         d="m 945.85598,619.53071 c 0.136,4.69867 -0.69334,9.564 -1.11334,14.232 -0.36133,3.996 -0.72266,8 -0.98666,12.00533 l -1.592,-0.0973 c 0.28266,-3.27333 -0.088,-6.72133 -0.0693,-9.808 0.0293,-4.62 0.46934,-9.38667 -0.85866,-13.81067 0.244,-0.24533 0.36133,-0.65466 0.21466,-0.98666 -1.88533,-4.288 -7.46266,-2.96 -11.136,-1.436 0.0493,-1.3 0.088,-2.608 0.13734,-3.91734 5.18666,-0.98666 15.208,-3.08666 15.404,3.81867" />
      <path
         id="path1270"
         style="fill:#39a395;fill-opacity:1;fill-rule:nonzero;stroke:none;stroke-width:0.133333"
         d="m 942.16398,645.67071 1.592,0.0973 c -0.38134,5.656 -0.576,11.30134 -0.32267,16.96667 -2.91067,0.068 -6.408,-1.016 -7.48267,-3.956 -0.508,-1.38667 -0.30266,-2.98933 0.46934,-4.24933 0.76133,-1.24 1.95333,-1.46534 2.96933,-2.36267 0.12667,-0.11733 0.20533,-0.264 0.23467,-0.42 0.36133,0.116 0.772,0.0387 0.98666,-0.36267 0.93734,-1.73866 1.36667,-3.692 1.55334,-5.71333" />
      <path
         id="path1272"
         style="fill:#90d9ca;fill-opacity:1;fill-rule:nonzero;stroke:none;stroke-width:0.133333"
         d="m 928.20531,602.14404 c 0.10667,-0.0293 0.18533,-0.088 0.264,-0.14533 -0.34267,9.044 -0.64533,18.09867 -0.948,27.144 -7.74533,2.54933 -15.30667,3.82 -23.51067,3.61467 -7.63866,-0.196 -15.15066,-1.53334 -22.75066,-2.16934 -0.43867,-6.632 -0.976,-13.31333 -2.13867,-19.808 -0.74267,-4.18133 -2.08,-8.04 -5.06,-10.608 2.296,1.26 6.212,1.45467 8.176,1.79734 4.87467,0.84 9.82667,1.28933 14.77867,1.504 5.18666,0.224 10.384,0.21466 15.58,0.14666 5.17733,-0.0787 10.64666,0.16534 15.60933,-1.476" />
      <path
         id="path1274"
         style="fill:#90d9ca;fill-opacity:1;fill-rule:nonzero;stroke:none;stroke-width:0.133333"
         d="m 927.03331,644.02938 c -0.0493,1.68 -0.108,3.35066 -0.156,5.03066 -7.756,1.436 -15.444,2.49067 -23.356,2.44134 -7.16,-0.0387 -14.13333,-1.42534 -21.23467,-1.87467 -0.0587,-1.75867 -0.128,-3.50667 -0.216,-5.256 1.28934,0.0987 2.58934,-0.332 3.51734,-1.308 0.156,-0.156 0.29333,-0.352 0.42933,-0.56667 0.596,1.14267 1.592,2.02134 3.048,2.21734 1.00533,0.12666 2.26533,-0.34267 3.204,-1.124 0.49733,1.46533 1.768,2.696 3.39867,2.91066 1.876,0.24534 3.976,-1.20133 4.83466,-3.028 0.792,1.65067 2.50134,2.85334 4.464,2.648 1.55334,-0.156 2.95067,-1.22133 3.69334,-2.56933 0.068,-0.12667 0.136,-0.27333 0.20533,-0.42 0.72267,1.31867 2.12933,2.26667 3.76933,2.07067 1.30934,-0.14667 2.51067,-1.172 3.16534,-2.432 0.60533,1.09333 1.79733,1.89466 3.21333,1.82666 1.524,-0.068 2.892,-0.91866 3.58533,-2.276 0.996,1.104 2.98934,2.344 4.43467,1.70934" />
      <path
         id="path1276"
         style="fill:#90d9ca;fill-opacity:1;fill-rule:nonzero;stroke:none;stroke-width:0.133333"
         d="m 926.47598,661.22138 c -0.14667,4.71733 -0.27334,9.44533 -0.47867,14.16266 -0.16533,4.044 -0.29333,8.73334 -3.47733,11.712 -3.89734,3.644 -11.8,3.976 -16.74134,4.16134 -4.972,0.176 -9.964,-0.284 -14.79866,-1.436 -5.48,-1.30934 -8.82134,-3.67334 -8.72267,-9.836 0.068,-5.06 0.28267,-10.12 0.28267,-15.18 0,-0.908 -0.009,-1.80667 -0.009,-2.70534 0.87867,0.39067 1.944,0.42 2.89067,0.02 0.82133,-0.332 1.47467,-0.98666 1.964,-1.77866 0.508,1.28 1.65067,2.316 3.14533,2.404 1.396,0.0773 2.64667,-0.724 3.38934,-1.876 0.63466,1.23066 1.86533,2.13866 3.36933,2.04133 1.27067,-0.0787 2.384,-0.89867 3.03867,-1.97333 0.664,1.09466 1.78666,1.89466 3.184,1.99333 1.42533,0.088 2.91066,-0.752 3.82933,-1.95333 0.712,1.22 1.98267,2.10933 3.48667,2.11866 1.28,0 2.628,-0.81066 3.516,-1.944 0.62533,0.78134 1.55333,1.31867 2.648,1.31867 1.38666,0 2.64666,-0.976 3.32133,-2.236 0.664,1.13333 1.69867,1.96267 3.20267,2.05067 0.84,0.0493 2.06133,-0.38134 2.96,-1.064" />
      <path
         id="path1278"
         style="fill:#39a395;fill-opacity:1;fill-rule:nonzero;stroke:none;stroke-width:0.133333"
         d="m 926.12398,600.45471 c -17.29867,2.09067 -35.672,1.37733 -52.53067,-1.58266 8.47733,-0.71334 16.87867,-1.91467 25.42533,-1.93334 9.40667,-0.02 18.06134,1.75734 27.10534,3.516" />
    </g>
  </g>
</svg>
