<?xml version="1.0" encoding="UTF-8" standalone="no"?>
<svg
   xmlns:dc="http://purl.org/dc/elements/1.1/"
   xmlns:cc="http://creativecommons.org/ns#"
   xmlns:rdf="http://www.w3.org/1999/02/22-rdf-syntax-ns#"
   xmlns:svg="http://www.w3.org/2000/svg"
   xmlns="http://www.w3.org/2000/svg"
   xmlns:sodipodi="http://sodipodi.sourceforge.net/DTD/sodipodi-0.dtd"
   xmlns:inkscape="http://www.inkscape.org/namespaces/inkscape"
   width="200"
   height="200"
   viewBox="0 0 52.916665 52.916668"
   version="1.1"
   id="svg1636"
   inkscape:version="1.0.2-2 (e86c870879, 2021-01-15)"
   sodipodi:docname="4.svg">
  <defs
     id="defs1630" />
  <sodipodi:namedview
     id="base"
     pagecolor="#ffffff"
     bordercolor="#666666"
     borderopacity="1.0"
     inkscape:pageopacity="0.0"
     inkscape:pageshadow="2"
     inkscape:zoom="2.8"
     inkscape:cx="130.21836"
     inkscape:cy="115.454"
     inkscape:document-units="mm"
     inkscape:current-layer="layer1"
     inkscape:document-rotation="0"
     showgrid="false"
     units="px"
     inkscape:window-width="2400"
     inkscape:window-height="1271"
     inkscape:window-x="2391"
     inkscape:window-y="-9"
     inkscape:window-maximized="1" />
  <metadata
     id="metadata1633">
    <rdf:RDF>
      <cc:Work
         rdf:about="">
        <dc:format>image/svg+xml</dc:format>
        <dc:type
           rdf:resource="http://purl.org/dc/dcmitype/StillImage" />
        <dc:title></dc:title>
      </cc:Work>
    </rdf:RDF>
  </metadata>
  <g
     inkscape:label="Layer 1"
     inkscape:groupmode="layer"
     id="layer1">
    <g
       id="g4203"
       transform="matrix(0.31622581,0,0,0.31622581,-211.69005,-103.3427)">
      <path
         id="path200"
         style="fill:#171717;fill-opacity:1;fill-rule:nonzero;stroke:none;stroke-width:0.133333"
         d="m 760.85865,459.06272 c 0.47866,-0.82134 0.86933,-1.66134 1.18266,-2.52 -4.484,-2.02267 -9.66133,6.564 -14.896,5.71333 -5.02133,-0.82 -8.332,-6.27067 -13.57733,-5.93867 2.35333,4.95334 6.51467,8.772 12.708,9.57334 5.88,0.76133 11.53467,-1.62134 14.58267,-6.828 z m 2.208,-6.97467 c -0.0387,-0.009 -0.0787,-0.009 -0.11734,-0.0293 -5.93866,-2.66667 -9.64133,5.97866 -15.55066,5.412 -1.97334,-0.18534 -3.556,-1.28934 -5.148,-2.384 -3.272,-2.22667 -6.33867,-3.36934 -10.256,-3.22267 0.27333,1.09333 0.616,2.15867 1.02533,3.19333 5.92,-1.60133 9.13333,4.532 14.54533,5.08934 5.616,0.576 9.23067,-8.576 15.09067,-5.704 0.176,-0.772 0.31333,-1.56267 0.41067,-2.35467 z m 9.46533,1.79733 c 0.332,-1.51333 -0.664,-3.08666 -1.95333,-3.78933 -1.51467,-0.84 -3.17467,-0.65467 -4.816,-0.42 -0.0293,0 -0.0587,-0.0107 -0.088,0 -0.108,1.768 -0.39067,3.516 -0.84934,5.18667 2.38267,1.28933 6.896,2.70533 7.70667,-0.97734 z m 3.72133,1.48534 c 0.93734,-2.96934 0.11734,-6.24267 -2.472,-8.09867 -1.11333,-0.8 -2.44133,-1.26933 -3.78933,-1.43467 -0.83067,-0.0987 -1.788,-0.16666 -2.588,0.0973 -0.304,0.0973 -1.212,0.61466 -1.70933,1.09333 0.0187,0.264 0.009,0.51867 0.0187,0.78133 4.07334,-1.084 9.70934,1.41734 8.76267,6.36934 -0.39067,2.07066 -2.19867,3.45733 -4.22,3.73066 -2.16933,0.304 -4.10267,-0.60533 -5.78267,-1.88533 -0.196,0.60667 -0.41066,1.20133 -0.65466,1.77867 1.82666,1.38666 3.41866,2.608 6.02666,2.52 2.98934,-0.108 5.50934,-2.1 6.408,-4.952 z m 2.35334,-3.536 c 0.508,4.20933 -1.87467,8.644 -5.948,10.07066 -2.99867,1.05467 -7.54134,0.42934 -9.81734,-2.1 -3.06666,5.48934 -8.508,9.19067 -16.07733,8.52667 -12.78667,-1.13334 -19.66266,-14.35867 -16.528,-26.05067 l 1.15334,0.29334 c -0.27334,2.608 -0.176,5.304 0.312,7.90133 2.60799,-0.58533 5.12799,-0.54667 7.66799,0.49867 3.48667,1.436 5.392,4.51333 9.456,3.82933 5.23467,-0.88 8.84,-7.03333 14.436,-4.816 0.108,-1.72933 0.108,-3.468 0.108,-5.196 l 0.23467,-1.14267 c 0.49733,-0.58666 1.65067,-0.596 1.79733,0.32134 0.048,0.29333 0.0773,0.58666 0.11734,0.86933 1.33733,-0.76133 3.19333,-0.93733 4.6,-0.82933 4.24933,0.35066 7.96133,3.52533 8.488,7.824" />
      <path
         id="path202"
         style="fill:#f6efbc;fill-opacity:1;fill-rule:nonzero;stroke:none;stroke-width:0.133333"
         d="m 773.78131,447.27205 c 2.58934,1.856 3.40934,5.12933 2.472,8.09867 -0.89866,2.852 -3.41866,4.844 -6.408,4.952 -2.608,0.088 -4.2,-1.13334 -6.02666,-2.52 0.244,-0.57734 0.45866,-1.172 0.65466,-1.77867 1.68,1.28 3.61334,2.18933 5.78267,1.88533 2.02133,-0.27333 3.82933,-1.66 4.22,-3.73066 0.94667,-4.952 -4.68933,-7.45334 -8.76267,-6.36934 -0.009,-0.26266 0,-0.51733 -0.0187,-0.78133 0.49733,-0.47867 1.40533,-0.996 1.70933,-1.09333 0.8,-0.264 1.75733,-0.196 2.588,-0.0973 1.348,0.16534 2.676,0.63467 3.78933,1.43467" />
      <path
         id="path204"
         style="fill:#171717;fill-opacity:1;fill-rule:nonzero;stroke:none;stroke-width:0.133333"
         d="m 763.60398,443.64938 -0.23467,1.14267 c -0.176,0.21467 -0.44933,0.36133 -0.81066,0.37067 -10.28534,0.4 -20.96267,-0.0387 -30.99333,-2.5 -0.0787,-0.02 -0.128,-0.0587 -0.176,-0.088 l -1.15334,-0.29334 c 0.0107,-0.0493 0.0293,-0.0973 0.04,-0.14666 0.10667,-0.36134 0.508,-0.46934 0.81067,-0.36134 0.068,-0.30266 0.292,-0.55733 0.664,-0.51733 10.30533,0.928 20.43466,1.89467 30.808,1.62133 0.58533,-0.0107 0.928,0.34134 1.04533,0.772" />
      <path
         id="path206"
         style="fill:#f6efbc;fill-opacity:1;fill-rule:nonzero;stroke:none;stroke-width:0.133333"
         d="m 763.36931,444.79205 c 0,1.728 0,3.46667 -0.108,5.196 -5.596,-2.21733 -9.20133,3.936 -14.436,4.816 -4.064,0.684 -5.96933,-2.39333 -9.456,-3.82933 -2.54,-1.04534 -5.06,-1.084 -7.66799,-0.49867 -0.488,-2.59733 -0.58534,-5.29333 -0.312,-7.90133 0.048,0.0293 0.0973,0.068 0.176,0.088 10.03066,2.46133 20.70799,2.9 30.99333,2.5 0.36133,-0.009 0.63466,-0.156 0.81066,-0.37067" />
      <path
         id="path208"
         style="fill:#e4c030;fill-opacity:1;fill-rule:nonzero;stroke:none;stroke-width:0.133333"
         d="m 762.94931,452.05872 c 0.0387,0.02 0.0787,0.02 0.11734,0.0293 -0.0973,0.792 -0.23467,1.58267 -0.41067,2.35467 -5.86,-2.872 -9.47467,6.28 -15.09067,5.704 -5.412,-0.55734 -8.62533,-6.69067 -14.54533,-5.08934 -0.40933,-1.03466 -0.752,-2.1 -1.02533,-3.19333 3.91733,-0.14667 6.984,0.996 10.256,3.22267 1.592,1.09466 3.17466,2.19866 5.148,2.384 5.90933,0.56666 9.612,-8.07867 15.55066,-5.412" />
      <path
         id="path210"
         style="fill:#f6efbc;fill-opacity:1;fill-rule:nonzero;stroke:none;stroke-width:0.133333"
         d="m 762.04131,456.54272 c -0.31333,0.85866 -0.704,1.69866 -1.18266,2.52 -3.048,5.20666 -8.70267,7.58933 -14.58267,6.828 -6.19333,-0.80134 -10.35467,-4.62 -12.708,-9.57334 5.24533,-0.332 8.556,5.11867 13.57733,5.93867 5.23467,0.85067 10.412,-7.736 14.896,-5.71333" />
      <path
         id="path212"
         style="fill:#171717;fill-opacity:1;fill-rule:nonzero;stroke:none;stroke-width:0.133333"
         d="m 817.61998,462.86805 c 0.47867,-0.82133 0.86933,-1.66133 1.18133,-2.52 -4.48266,-2.02267 -9.66,6.564 -14.896,5.71333 -5.02,-0.82 -8.332,-6.27066 -13.57733,-5.93866 2.35467,4.952 6.516,8.77199 12.708,9.57333 5.88133,0.76133 11.536,-1.62134 14.584,-6.828 z m 2.208,-6.97467 c -0.04,-0.009 -0.0787,-0.009 -0.11733,-0.0293 -5.93867,-2.66667 -9.64134,5.97867 -15.55067,5.412 -1.97333,-0.18533 -3.556,-1.28933 -5.148,-2.384 -3.272,-2.22667 -6.33867,-3.36933 -10.256,-3.22267 0.27333,1.09334 0.61467,2.15867 1.02533,3.19334 5.92,-1.60134 9.13334,4.532 14.544,5.08933 5.61734,0.576 9.23067,-8.576 15.092,-5.704 0.176,-0.772 0.312,-1.564 0.41067,-2.35467 z m 9.46533,1.79734 c 0.332,-1.51334 -0.66533,-3.08667 -1.95466,-3.78934 -1.51334,-0.84 -3.17467,-0.65466 -4.81467,-0.42 -0.0293,0 -0.0587,-0.0107 -0.088,0 -0.108,1.768 -0.39067,3.516 -0.85067,5.18667 2.384,1.28933 6.896,2.70533 7.708,-0.97733 z m 3.72134,1.48533 c 0.93733,-2.96933 0.11733,-6.24267 -2.472,-8.09867 -1.11334,-0.8 -2.44134,-1.26933 -3.78934,-1.43466 -0.83066,-0.0987 -1.788,-0.16667 -2.58933,0.0973 -0.30267,0.0973 -1.21067,0.61467 -1.70933,1.09333 0.02,0.264 0.0107,0.51734 0.02,0.78134 4.07333,-1.084 9.70933,1.41733 8.76133,6.36933 -0.39067,2.07067 -2.19733,3.45733 -4.21867,3.73067 -2.16933,0.30266 -4.10266,-0.60534 -5.78266,-1.88534 -0.196,0.60667 -0.41067,1.20134 -0.65467,1.77867 1.82667,1.38667 3.41867,2.608 6.02667,2.52 2.98933,-0.108 5.50933,-2.1 6.408,-4.952 z m 2.35333,-3.536 c 0.508,4.20933 -1.87467,8.644 -5.948,10.07067 -2.99867,1.05466 -7.54133,0.42933 -9.81733,-2.1 -3.06667,5.48933 -8.508,9.19066 -16.07734,8.52666 -12.78666,-1.13333 -19.66266,-14.35866 -16.528,-26.05066 l 1.15334,0.29333 c -0.27334,2.608 -0.176,5.304 0.312,7.90133 2.608,-0.58533 5.128,-0.54666 7.668,0.49867 3.48666,1.436 5.392,4.51333 9.45466,3.82933 5.236,-0.88 8.84,-7.03333 14.43734,-4.816 0.108,-1.72933 0.108,-3.468 0.108,-5.196 l 0.23466,-1.14266 c 0.49734,-0.58667 1.65067,-0.596 1.79734,0.32133 0.048,0.29333 0.0773,0.58667 0.116,0.86933 1.33866,-0.76133 3.19466,-0.93733 4.60133,-0.82933 4.24933,0.35067 7.96133,3.52533 8.488,7.824" />
      <path
         id="path214"
         style="fill:#f6efbc;fill-opacity:1;fill-rule:nonzero;stroke:none;stroke-width:0.133333"
         d="m 830.54265,451.07738 c 2.58933,1.856 3.40933,5.12934 2.472,8.09867 -0.89867,2.852 -3.41867,4.844 -6.408,4.952 -2.608,0.088 -4.2,-1.13333 -6.02667,-2.52 0.244,-0.57733 0.45867,-1.172 0.65467,-1.77867 1.68,1.28 3.61333,2.188 5.78266,1.88534 2.02134,-0.27334 3.828,-1.66 4.21867,-3.73067 0.948,-4.952 -4.688,-7.45333 -8.76133,-6.36933 -0.009,-0.264 0,-0.51734 -0.02,-0.78134 0.49866,-0.47866 1.40666,-0.996 1.70933,-1.09333 0.80133,-0.264 1.75867,-0.196 2.58933,-0.0973 1.348,0.16533 2.676,0.63466 3.78934,1.43466" />
      <path
         id="path216"
         style="fill:#171717;fill-opacity:1;fill-rule:nonzero;stroke:none;stroke-width:0.133333"
         d="m 820.36531,447.45472 -0.23466,1.14266 c -0.176,0.21467 -0.44934,0.36134 -0.81067,0.37067 -10.28533,0.4 -20.96267,-0.0387 -30.99333,-2.50133 -0.0787,-0.0187 -0.128,-0.0573 -0.176,-0.0867 l -1.15334,-0.29333 c 0.0107,-0.0493 0.0293,-0.0973 0.0387,-0.14667 0.108,-0.36133 0.508,-0.46933 0.812,-0.36133 0.068,-0.30267 0.292,-0.55734 0.664,-0.51734 10.30533,0.928 20.43467,1.89467 30.808,1.62134 0.58533,-0.0107 0.928,0.34133 1.04533,0.772" />
      <path
         id="path218"
         style="fill:#f6efbc;fill-opacity:1;fill-rule:nonzero;stroke:none;stroke-width:0.133333"
         d="m 820.13065,448.59738 c 0,1.728 0,3.46667 -0.108,5.196 -5.59734,-2.21733 -9.20134,3.936 -14.43734,4.816 -4.06266,0.684 -5.968,-2.39333 -9.45466,-3.82933 -2.54,-1.04533 -5.06,-1.084 -7.668,-0.49867 -0.488,-2.59733 -0.58534,-5.29333 -0.312,-7.90133 0.048,0.0293 0.0973,0.068 0.176,0.0867 10.03066,2.46266 20.708,2.90133 30.99333,2.50133 0.36133,-0.009 0.63467,-0.156 0.81067,-0.37067" />
      <path
         id="path220"
         style="fill:#e4c030;fill-opacity:1;fill-rule:nonzero;stroke:none;stroke-width:0.133333"
         d="m 819.71065,455.86405 c 0.0387,0.02 0.0773,0.02 0.11733,0.0293 -0.0987,0.79067 -0.23467,1.58267 -0.41067,2.35467 -5.86133,-2.872 -9.47466,6.28 -15.092,5.704 -5.41066,-0.55733 -8.624,-6.69067 -14.544,-5.08933 -0.41066,-1.03467 -0.752,-2.1 -1.02533,-3.19334 3.91733,-0.14666 6.984,0.996 10.256,3.22267 1.592,1.09467 3.17467,2.19867 5.148,2.384 5.90933,0.56667 9.612,-8.07867 15.55067,-5.412" />
      <path
         id="path222"
         style="fill:#f6efbc;fill-opacity:1;fill-rule:nonzero;stroke:none;stroke-width:0.133333"
         d="m 818.80131,460.34805 c -0.312,0.85867 -0.70266,1.69867 -1.18133,2.52 -3.048,5.20666 -8.70267,7.58933 -14.584,6.828 -6.192,-0.80134 -10.35333,-4.62133 -12.708,-9.57333 5.24533,-0.332 8.55733,5.11866 13.57733,5.93866 5.236,0.85067 10.41334,-7.736 14.896,-5.71333" />
      <path
         id="path868"
         style="fill:#171717;fill-opacity:1;fill-rule:nonzero;stroke:none;stroke-width:0.133333"
         d="m 816.60398,484.79205 c 0.47867,-0.82 0.86933,-1.66 1.18267,-2.52 -4.484,-2.02134 -9.66134,6.564 -14.89734,5.71466 -5.02,-0.82133 -8.332,-6.272 -13.57733,-5.94 2.35467,4.95334 6.516,8.772 12.708,9.57334 5.88133,0.76133 11.536,-1.62134 14.584,-6.828 z m 2.208,-6.97467 c -0.04,-0.009 -0.0787,-0.009 -0.11733,-0.0293 -5.93867,-2.66667 -9.64134,5.97866 -15.55067,5.412 -1.97333,-0.18534 -3.556,-1.28934 -5.148,-2.384 -3.272,-2.22667 -6.33867,-3.36934 -10.256,-3.22267 0.27333,1.09333 0.61467,2.15867 1.02533,3.19467 5.92,-1.60267 9.13334,4.532 14.54534,5.088 5.616,0.57733 9.23066,-8.576 15.09066,-5.704 0.176,-0.772 0.31334,-1.56267 0.41067,-2.35467 z m 9.46533,1.79733 c 0.332,-1.51333 -0.66533,-3.08666 -1.95466,-3.78933 -1.51334,-0.84 -3.17467,-0.65467 -4.81467,-0.42 -0.0293,0 -0.0587,-0.009 -0.088,0 -0.108,1.768 -0.39067,3.516 -0.85067,5.18667 2.384,1.28933 6.89734,2.70533 7.708,-0.97734 z m 3.72134,1.48534 c 0.93733,-2.96934 0.11733,-6.24134 -2.472,-8.09734 -1.11334,-0.80133 -2.44134,-1.27066 -3.78934,-1.436 -0.83066,-0.0973 -1.788,-0.16666 -2.58933,0.0973 -0.30267,0.0973 -1.21067,0.616 -1.70933,1.09466 0.02,0.26267 0.0107,0.51734 0.02,0.78134 4.07333,-1.08534 9.70933,1.416 8.76133,6.368 -0.39067,2.07066 -2.19733,3.45866 -4.21867,3.732 -2.16933,0.30266 -4.10266,-0.60667 -5.78266,-1.88534 -0.196,0.60534 -0.41067,1.20134 -0.65467,1.77734 1.82667,1.38666 3.41867,2.608 6.02667,2.52 2.98933,-0.10667 5.50933,-2.1 6.408,-4.952 z m 2.35333,-3.536 c 0.508,4.20933 -1.87467,8.644 -5.948,10.07066 -2.99867,1.05467 -7.54133,0.42934 -9.81733,-2.1 -3.06667,5.48934 -8.508,9.192 -16.07734,8.52667 -12.78666,-1.132 -19.66266,-14.35867 -16.528,-26.05067 l 1.15334,0.29334 c -0.27334,2.608 -0.176,5.304 0.312,7.90266 2.608,-0.58666 5.128,-0.548 7.668,0.49734 3.48666,1.436 5.392,4.51333 9.456,3.82933 5.23466,-0.87867 8.84,-7.03333 14.436,-4.816 0.108,-1.728 0.108,-3.46667 0.108,-5.196 l 0.23466,-1.14267 c 0.49734,-0.58666 1.65067,-0.596 1.79734,0.32267 0.048,0.292 0.0773,0.58533 0.11733,0.868 1.33733,-0.76133 3.19333,-0.93733 4.6,-0.82933 4.24933,0.352 7.96133,3.52533 8.488,7.824" />
      <path
         id="path870"
         style="fill:#f6efbc;fill-opacity:1;fill-rule:nonzero;stroke:none;stroke-width:0.133333"
         d="m 829.52665,473.00271 c 2.58933,1.856 3.40933,5.128 2.472,8.09734 -0.89867,2.852 -3.41867,4.84533 -6.408,4.952 -2.608,0.088 -4.2,-1.13334 -6.02667,-2.52 0.244,-0.576 0.45867,-1.172 0.65467,-1.77734 1.68,1.27867 3.61333,2.188 5.78266,1.88534 2.02134,-0.27334 3.828,-1.66134 4.21867,-3.732 0.948,-4.952 -4.688,-7.45334 -8.76133,-6.368 -0.009,-0.264 0,-0.51867 -0.02,-0.78134 0.49866,-0.47866 1.40666,-0.99733 1.70933,-1.09466 0.80133,-0.264 1.75867,-0.19467 2.58933,-0.0973 1.348,0.16534 2.676,0.63467 3.78934,1.436" />
      <path
         id="path872"
         style="fill:#171717;fill-opacity:1;fill-rule:nonzero;stroke:none;stroke-width:0.133333"
         d="m 819.34931,469.37871 -0.23466,1.14267 c -0.176,0.21467 -0.44934,0.36133 -0.81067,0.37067 -10.28533,0.40133 -20.96267,-0.0387 -30.99333,-2.5 -0.0787,-0.02 -0.128,-0.0587 -0.176,-0.088 l -1.15334,-0.29334 c 0.0107,-0.0493 0.0293,-0.0973 0.04,-0.14666 0.10667,-0.36134 0.508,-0.468 0.81067,-0.36134 0.068,-0.30266 0.292,-0.556 0.664,-0.51733 10.30533,0.928 20.43467,1.89467 30.808,1.62133 0.58533,-0.009 0.928,0.34134 1.04533,0.772" />
      <path
         id="path874"
         style="fill:#f6efbc;fill-opacity:1;fill-rule:nonzero;stroke:none;stroke-width:0.133333"
         d="m 819.11465,470.52138 c 0,1.72933 0,3.468 -0.108,5.196 -5.596,-2.21733 -9.20134,3.93733 -14.436,4.816 -4.064,0.684 -5.96934,-2.39333 -9.456,-3.82933 -2.54,-1.04534 -5.06,-1.084 -7.668,-0.49734 -0.488,-2.59866 -0.58534,-5.29466 -0.312,-7.90266 0.048,0.0293 0.0973,0.068 0.176,0.088 10.03066,2.46133 20.708,2.90133 30.99333,2.5 0.36133,-0.009 0.63467,-0.156 0.81067,-0.37067" />
      <path
         id="path876"
         style="fill:#e4c030;fill-opacity:1;fill-rule:nonzero;stroke:none;stroke-width:0.133333"
         d="m 818.69465,477.78805 c 0.0387,0.02 0.0773,0.02 0.11733,0.0293 -0.0973,0.792 -0.23467,1.58267 -0.41067,2.35467 -5.86,-2.872 -9.47466,6.28133 -15.09066,5.704 -5.412,-0.556 -8.62534,-6.69067 -14.54534,-5.088 -0.41066,-1.036 -0.752,-2.10134 -1.02533,-3.19467 3.91733,-0.14667 6.984,0.996 10.256,3.22267 1.592,1.09466 3.17467,2.19866 5.148,2.384 5.90933,0.56666 9.612,-8.07867 15.55067,-5.412" />
      <path
         id="path878"
         style="fill:#f6efbc;fill-opacity:1;fill-rule:nonzero;stroke:none;stroke-width:0.133333"
         d="m 817.78665,482.27205 c -0.31334,0.86 -0.704,1.7 -1.18267,2.52 -3.048,5.20666 -8.70267,7.58933 -14.584,6.828 -6.192,-0.80134 -10.35333,-4.62 -12.708,-9.57334 5.24533,-0.332 8.55733,5.11867 13.57733,5.94 5.236,0.84934 10.41334,-7.736 14.89734,-5.71466" />
      <path
         id="path880"
         style="fill:#171717;fill-opacity:1;fill-rule:nonzero;stroke:none;stroke-width:0.133333"
         d="m 759.98531,483.00005 c 0.47734,-0.82 0.86934,-1.66 1.18134,-2.52 -4.484,-2.02134 -9.66,6.564 -14.896,5.71466 -5.02134,-0.82133 -8.332,-6.272 -13.57733,-5.94 2.35333,4.95334 6.51466,8.772 12.70799,9.57334 5.88,0.76133 11.536,-1.62134 14.584,-6.828 z m 2.20667,-6.97467 c -0.0387,-0.009 -0.0773,-0.009 -0.11733,-0.0293 -5.93867,-2.66667 -9.64,5.97866 -15.55067,5.412 -1.972,-0.18534 -3.55467,-1.28934 -5.14667,-2.384 -3.27333,-2.22667 -6.34,-3.36934 -10.25733,-3.22267 0.27334,1.09333 0.616,2.15867 1.02667,3.19333 5.91866,-1.60133 9.132,4.53334 14.544,5.08934 5.616,0.57733 9.23066,-8.576 15.09066,-5.704 0.176,-0.772 0.31334,-1.56267 0.41067,-2.35467 z m 9.46533,1.79733 c 0.332,-1.51333 -0.664,-3.08666 -1.95333,-3.78933 -1.51467,-0.84 -3.17467,-0.65467 -4.816,-0.42 -0.0293,0 -0.0587,-0.009 -0.088,0 -0.10667,1.768 -0.39067,3.516 -0.84933,5.18667 2.38266,1.28933 6.896,2.70533 7.70666,-0.97734 z m 3.72134,1.48534 c 0.93733,-2.96934 0.11733,-6.24134 -2.47067,-8.09734 -1.11333,-0.80133 -2.44267,-1.27066 -3.79067,-1.436 -0.82933,-0.0973 -1.78666,-0.16666 -2.588,0.0973 -0.30266,0.0973 -1.212,0.616 -1.70933,1.09466 0.02,0.26267 0.009,0.51734 0.02,0.78134 4.072,-1.08534 9.708,1.416 8.76133,6.368 -0.39066,2.07066 -2.19733,3.45866 -4.22,3.732 -2.168,0.30266 -4.10266,-0.60667 -5.78266,-1.88534 -0.19467,0.60534 -0.41067,1.20134 -0.65467,1.77734 1.82667,1.38666 3.41867,2.608 6.02667,2.52 2.98933,-0.10667 5.50933,-2.1 6.408,-4.952 z m 2.35466,-3.536 c 0.508,4.20933 -1.876,8.644 -5.94933,10.07066 -2.99867,1.05467 -7.54,0.42934 -9.816,-2.1 -3.068,5.48934 -8.508,9.192 -16.07867,8.52667 -12.78533,-1.132 -19.66266,-14.35867 -16.52666,-26.05066 l 1.152,0.29333 c -0.27333,2.608 -0.176,5.304 0.31333,7.90266 2.608,-0.58666 5.128,-0.548 7.66667,0.49734 3.488,1.436 5.392,4.51333 9.456,3.82933 5.236,-0.87867 8.84,-7.03333 14.43733,-4.816 0.10667,-1.728 0.10667,-3.46667 0.10667,-5.196 l 0.23466,-1.14267 c 0.49867,-0.58666 1.65067,-0.596 1.79734,0.32134 0.0493,0.29333 0.0787,0.58666 0.11733,0.86933 1.33867,-0.76133 3.19467,-0.93733 4.60133,-0.82933 4.248,0.352 7.96,3.52533 8.488,7.824" />
      <path
         id="path882"
         style="fill:#f6efbc;fill-opacity:1;fill-rule:nonzero;stroke:none;stroke-width:0.133333"
         d="m 772.90798,471.21071 c 2.588,1.856 3.408,5.128 2.47067,8.09734 -0.89867,2.852 -3.41867,4.84533 -6.408,4.952 -2.608,0.088 -4.2,-1.13334 -6.02667,-2.52 0.244,-0.576 0.46,-1.172 0.65467,-1.77734 1.68,1.27867 3.61466,2.188 5.78266,1.88534 2.02267,-0.27334 3.82934,-1.66134 4.22,-3.732 0.94667,-4.952 -4.68933,-7.45334 -8.76133,-6.368 -0.0107,-0.264 0,-0.51867 -0.02,-0.78134 0.49733,-0.47866 1.40667,-0.99733 1.70933,-1.09466 0.80134,-0.264 1.75867,-0.19467 2.588,-0.0973 1.348,0.16534 2.67734,0.63467 3.79067,1.436" />
      <path
         id="path884"
         style="fill:#171717;fill-opacity:1;fill-rule:nonzero;stroke:none;stroke-width:0.133333"
         d="m 762.72931,467.58671 -0.23466,1.14267 c -0.176,0.21467 -0.44934,0.36133 -0.81067,0.37067 -10.28533,0.40133 -20.96133,-0.0387 -30.99333,-2.5 -0.0787,-0.02 -0.12667,-0.0587 -0.176,-0.088 l -1.152,-0.29333 c 0.009,-0.048 0.0293,-0.0973 0.0387,-0.14667 0.108,-0.36133 0.508,-0.468 0.81066,-0.36133 0.068,-0.30267 0.29334,-0.556 0.664,-0.51734 10.30533,0.928 20.43467,1.89467 30.808,1.62133 0.58667,-0.009 0.928,0.34134 1.04533,0.772" />
      <path
         id="path886"
         style="fill:#f6efbc;fill-opacity:1;fill-rule:nonzero;stroke:none;stroke-width:0.133333"
         d="m 762.49465,468.72938 c 0,1.72933 0,3.468 -0.10667,5.196 -5.59733,-2.21733 -9.20133,3.93733 -14.43733,4.816 -4.064,0.684 -5.968,-2.39333 -9.456,-3.82933 -2.53867,-1.04534 -5.05867,-1.084 -7.66667,-0.49734 -0.48933,-2.59866 -0.58666,-5.29466 -0.31333,-7.90266 0.0493,0.0293 0.0973,0.068 0.176,0.088 10.032,2.46133 20.708,2.90133 30.99333,2.5 0.36133,-0.009 0.63467,-0.156 0.81067,-0.37067" />
      <path
         id="path888"
         style="fill:#e4c030;fill-opacity:1;fill-rule:nonzero;stroke:none;stroke-width:0.133333"
         d="m 762.07465,475.99605 c 0.04,0.02 0.0787,0.02 0.11733,0.0293 -0.0973,0.792 -0.23467,1.58267 -0.41067,2.35467 -5.86,-2.872 -9.47466,6.28133 -15.09066,5.704 -5.412,-0.556 -8.62534,-6.69067 -14.544,-5.08934 -0.41067,-1.03466 -0.75333,-2.1 -1.02667,-3.19333 3.91733,-0.14667 6.984,0.996 10.25733,3.22267 1.592,1.09466 3.17467,2.19866 5.14667,2.384 5.91067,0.56666 9.612,-8.07867 15.55067,-5.412" />
      <path
         id="path890"
         style="fill:#f6efbc;fill-opacity:1;fill-rule:nonzero;stroke:none;stroke-width:0.133333"
         d="m 761.16665,480.48005 c -0.312,0.86 -0.704,1.7 -1.18134,2.52 -3.048,5.20666 -8.704,7.58933 -14.584,6.828 -6.19333,-0.80134 -10.35466,-4.62 -12.70799,-9.57334 5.24533,-0.332 8.55599,5.11867 13.57733,5.94 5.236,0.84934 10.412,-7.736 14.896,-5.71466" />
      <path
         id="path892"
         style="fill:#171717;fill-opacity:1;fill-rule:nonzero;stroke:none;stroke-width:0.133333"
         d="m 703.00532,457.92138 c 0.47866,-0.82 0.86933,-1.66 1.18266,-2.52 -4.484,-2.02266 -9.66,6.564 -14.896,5.71467 -5.02133,-0.82133 -8.332,-6.272 -13.57733,-5.94 2.35333,4.95333 6.51467,8.772 12.708,9.57333 5.88,0.76134 11.536,-1.62133 14.58267,-6.828 z m 2.208,-6.97466 c -0.0387,-0.009 -0.0773,-0.009 -0.11734,-0.0293 -5.93866,-2.66666 -9.64,5.97867 -15.55066,5.412 -1.97334,-0.18533 -3.55467,-1.28933 -5.14667,-2.384 -3.27333,-2.22666 -6.34,-3.36933 -10.25733,-3.22266 0.27333,1.09333 0.616,2.15866 1.02666,3.19333 5.91867,-1.60133 9.132,4.53333 14.544,5.08933 5.616,0.576 9.23067,-8.576 15.09067,-5.704 0.176,-0.772 0.31333,-1.56266 0.41067,-2.35466 z m 9.46533,1.79733 c 0.332,-1.51333 -0.664,-3.08667 -1.95333,-3.78933 -1.51467,-0.84 -3.17467,-0.65467 -4.816,-0.42 -0.0293,0 -0.0587,-0.0107 -0.088,0 -0.10667,1.768 -0.39067,3.516 -0.84934,5.18666 2.38267,1.28934 6.896,2.70534 7.70667,-0.97733 z m 3.72133,1.48533 c 0.93734,-2.96933 0.11734,-6.24133 -2.47066,-8.09733 -1.11334,-0.80133 -2.44267,-1.27067 -3.79067,-1.436 -0.82933,-0.0987 -1.78667,-0.16667 -2.588,0.0973 -0.30267,0.0973 -1.212,0.61467 -1.70933,1.09334 0.0187,0.264 0.009,0.51866 0.0187,0.78133 4.07334,-1.084 9.70934,1.41733 8.76267,6.36933 -0.39067,2.07067 -2.19867,3.45734 -4.22,3.732 -2.168,0.30267 -4.10267,-0.60666 -5.78267,-1.88533 -0.19466,0.60533 -0.41066,1.20133 -0.65466,1.77733 1.82666,1.38667 3.41866,2.608 6.02666,2.52 2.98934,-0.108 5.50934,-2.1 6.408,-4.952 z m 2.35467,-3.536 c 0.508,4.20934 -1.876,8.644 -5.94933,10.07067 -2.99867,1.05467 -7.54,0.42933 -9.816,-2.1 -3.068,5.48933 -8.508,9.192 -16.07867,8.52666 -12.78667,-1.13333 -19.66267,-14.35866 -16.52667,-26.05066 l 1.152,0.29333 c -0.27333,2.608 -0.176,5.304 0.31334,7.90134 2.608,-0.58534 5.128,-0.54667 7.66666,0.49866 3.488,1.436 5.392,4.51334 9.456,3.82934 5.236,-0.88 8.84,-7.03334 14.43734,-4.816 0.10666,-1.728 0.10666,-3.46667 0.10666,-5.196 l 0.23467,-1.14267 c 0.49867,-0.58667 1.65067,-0.596 1.79733,0.32133 0.0493,0.29334 0.0787,0.58667 0.11734,0.86934 1.33866,-0.76134 3.19466,-0.93734 4.6,-0.82934 4.24933,0.35067 7.96133,3.52534 8.48933,7.824" />
      <path
         id="path894"
         style="fill:#f6efbc;fill-opacity:1;fill-rule:nonzero;stroke:none;stroke-width:0.133333"
         d="m 715.92932,446.13205 c 2.588,1.856 3.408,5.128 2.47066,8.09733 -0.89866,2.852 -3.41866,4.844 -6.408,4.952 -2.608,0.088 -4.2,-1.13333 -6.02666,-2.52 0.244,-0.576 0.46,-1.172 0.65466,-1.77733 1.68,1.27867 3.61467,2.188 5.78267,1.88533 2.02133,-0.27466 3.82933,-1.66133 4.22,-3.732 0.94667,-4.952 -4.68933,-7.45333 -8.76267,-6.36933 -0.009,-0.26267 0,-0.51733 -0.0187,-0.78133 0.49733,-0.47867 1.40666,-0.996 1.70933,-1.09334 0.80133,-0.264 1.75867,-0.196 2.588,-0.0973 1.348,0.16533 2.67733,0.63467 3.79067,1.436" />
      <path
         id="path896"
         style="fill:#171717;fill-opacity:1;fill-rule:nonzero;stroke:none;stroke-width:0.133333"
         d="m 705.75065,442.50805 -0.23467,1.14267 c -0.176,0.21466 -0.44933,0.36133 -0.81066,0.37066 -10.28534,0.4 -20.96134,-0.0387 -30.99334,-2.5 -0.0787,-0.02 -0.12666,-0.0587 -0.176,-0.088 l -1.152,-0.29333 c 0.009,-0.0493 0.0293,-0.0973 0.0387,-0.14667 0.108,-0.36133 0.508,-0.46933 0.81067,-0.36133 0.068,-0.30267 0.29333,-0.55733 0.664,-0.51733 10.30533,0.928 20.43466,1.89466 30.808,1.62133 0.58666,-0.009 0.928,0.34133 1.04533,0.772" />
      <path
         id="path898"
         style="fill:#f6efbc;fill-opacity:1;fill-rule:nonzero;stroke:none;stroke-width:0.133333"
         d="m 705.51598,443.65072 c 0,1.72933 0,3.468 -0.10666,5.196 -5.59734,-2.21734 -9.20134,3.936 -14.43734,4.816 -4.064,0.684 -5.968,-2.39334 -9.456,-3.82934 -2.53866,-1.04533 -5.05866,-1.084 -7.66666,-0.49866 -0.48934,-2.59734 -0.58667,-5.29334 -0.31334,-7.90134 0.0493,0.0293 0.0973,0.068 0.176,0.088 10.032,2.46134 20.708,2.9 30.99334,2.5 0.36133,-0.009 0.63466,-0.156 0.81066,-0.37066" />
      <path
         id="path900"
         style="fill:#e4c030;fill-opacity:1;fill-rule:nonzero;stroke:none;stroke-width:0.133333"
         d="m 705.09598,450.91738 c 0.04,0.02 0.0787,0.02 0.11734,0.0293 -0.0973,0.792 -0.23467,1.58266 -0.41067,2.35466 -5.86,-2.872 -9.47467,6.28 -15.09067,5.704 -5.412,-0.556 -8.62533,-6.69066 -14.544,-5.08933 -0.41066,-1.03467 -0.75333,-2.1 -1.02666,-3.19333 3.91733,-0.14667 6.984,0.996 10.25733,3.22266 1.592,1.09467 3.17333,2.19867 5.14667,2.384 5.91066,0.56667 9.612,-8.07866 15.55066,-5.412" />
      <path
         id="path902"
         style="fill:#f6efbc;fill-opacity:1;fill-rule:nonzero;stroke:none;stroke-width:0.133333"
         d="m 704.18798,455.40138 c -0.31333,0.86 -0.704,1.7 -1.18266,2.52 -3.04667,5.20667 -8.70267,7.58934 -14.58267,6.828 -6.19333,-0.80133 -10.35467,-4.62 -12.708,-9.57333 5.24533,-0.332 8.556,5.11867 13.57733,5.94 5.236,0.84933 10.412,-7.73733 14.896,-5.71467" />
      <path
         id="path904"
         style="fill:#171717;fill-opacity:1;fill-rule:nonzero;stroke:none;stroke-width:0.133333"
         d="m 702.13198,481.85871 c 0.47867,-0.82 0.86934,-1.66 1.18134,-2.52 -4.48267,-2.02133 -9.66,6.564 -14.896,5.71467 -5.02,-0.82133 -8.332,-6.27067 -13.57734,-5.93867 2.35467,4.952 6.516,8.77067 12.708,9.572 5.88,0.76267 11.536,-1.62133 14.584,-6.828 z m 2.20667,-6.97333 c -0.0387,-0.0107 -0.0773,-0.0107 -0.116,-0.0293 -5.94,-2.66667 -9.64133,5.97733 -15.55067,5.41066 -1.97333,-0.18533 -3.556,-1.28933 -5.148,-2.38266 -3.272,-2.228 -6.34,-3.37067 -10.256,-3.224 0.27334,1.09466 0.61467,2.15866 1.02534,3.19466 5.91866,-1.60266 9.13333,4.532 14.544,5.088 5.61733,0.57734 9.23066,-8.576 15.092,-5.704 0.176,-0.772 0.312,-1.56266 0.40933,-2.35333 z m 9.46533,1.79733 c 0.332,-1.51466 -0.664,-3.08666 -1.95333,-3.79066 -1.51333,-0.84 -3.17467,-0.65467 -4.816,-0.42 -0.0293,0 -0.0587,-0.009 -0.088,0 -0.10667,1.768 -0.39067,3.516 -0.84933,5.18666 2.384,1.28934 6.896,2.70534 7.70666,-0.976 z m 3.72134,1.484 c 0.93866,-2.96933 0.11733,-6.24133 -2.47067,-8.09733 -1.11333,-0.80133 -2.44133,-1.26933 -3.78933,-1.436 -0.83067,-0.0973 -1.788,-0.16667 -2.58934,0.0973 -0.30266,0.0973 -1.21066,0.616 -1.70933,1.09467 0.02,0.26267 0.009,0.51733 0.02,0.78133 4.07333,-1.084 9.70933,1.416 8.76133,6.368 -0.39066,2.07067 -2.19733,3.45867 -4.22,3.732 -2.168,0.30267 -4.10266,-0.60533 -5.78266,-1.88533 -0.19467,0.60533 -0.40934,1.20133 -0.65334,1.77733 1.82667,1.388 3.41867,2.608 6.02667,2.52 2.988,-0.10666 5.508,-2.1 6.40667,-4.952 z m 2.35466,-3.536 c 0.508,4.21067 -1.876,8.64534 -5.948,10.07067 -3,1.05467 -7.54133,0.43067 -9.81733,-2.1 -3.06667,5.48933 -8.508,9.192 -16.07867,8.528 -12.78533,-1.13333 -19.66266,-14.35867 -16.52666,-26.052 l 1.152,0.29334 c -0.27334,2.60799 -0.17467,5.30399 0.31333,7.90266 2.608,-0.58667 5.128,-0.548 7.668,0.49733 3.48667,1.436 5.392,4.51334 9.45467,3.82934 5.236,-0.87867 8.84,-7.032 14.43733,-4.81467 0.108,-1.72933 0.108,-3.468 0.108,-5.19733 l 0.23333,-1.14267 c 0.49867,-0.58666 1.65067,-0.596 1.79734,0.32267 0.0493,0.29333 0.0787,0.58533 0.11733,0.86933 1.33867,-0.76267 3.19467,-0.93867 4.60133,-0.83067 4.24934,0.352 7.96,3.52667 8.488,7.824" />
      <path
         id="path906"
         style="fill:#f6efbc;fill-opacity:1;fill-rule:nonzero;stroke:none;stroke-width:0.133333"
         d="m 715.05465,470.06938 c 2.588,1.856 3.40933,5.128 2.47067,8.09733 -0.89867,2.852 -3.41867,4.84534 -6.40667,4.952 -2.608,0.088 -4.2,-1.132 -6.02667,-2.52 0.244,-0.576 0.45867,-1.172 0.65334,-1.77733 1.68,1.28 3.61466,2.188 5.78266,1.88533 2.02267,-0.27333 3.82934,-1.66133 4.22,-3.732 0.948,-4.952 -4.688,-7.452 -8.76133,-6.368 -0.0107,-0.264 0,-0.51866 -0.02,-0.78133 0.49867,-0.47867 1.40667,-0.99733 1.70933,-1.09467 0.80134,-0.264 1.75867,-0.19466 2.58934,-0.0973 1.348,0.16667 2.676,0.63467 3.78933,1.436" />
      <path
         id="path908"
         style="fill:#171717;fill-opacity:1;fill-rule:nonzero;stroke:none;stroke-width:0.133333"
         d="m 704.87598,466.44538 -0.23333,1.14267 c -0.176,0.21466 -0.44933,0.36133 -0.81067,0.372 -10.28666,0.4 -20.96266,-0.04 -30.99466,-2.50133 -0.0773,-0.02 -0.12667,-0.0587 -0.176,-0.088 l -1.152,-0.29334 c 0.009,-0.048 0.0293,-0.0973 0.0387,-0.14666 0.108,-0.36134 0.508,-0.468 0.81067,-0.36134 0.0693,-0.30266 0.29333,-0.556 0.664,-0.51733 10.30533,0.928 20.43467,1.89467 30.80933,1.62133 0.58534,-0.009 0.92667,0.34267 1.044,0.772" />
      <path
         id="path910"
         style="fill:#f6efbc;fill-opacity:1;fill-rule:nonzero;stroke:none;stroke-width:0.133333"
         d="m 704.64265,467.58805 c 0,1.72933 0,3.468 -0.108,5.19733 -5.59733,-2.21733 -9.20133,3.936 -14.43733,4.81467 -4.06267,0.684 -5.968,-2.39334 -9.45467,-3.82934 -2.54,-1.04533 -5.06,-1.084 -7.668,-0.49733 -0.488,-2.59867 -0.58667,-5.29467 -0.31333,-7.90266 0.0493,0.0293 0.0987,0.068 0.176,0.088 10.032,2.46133 20.708,2.90133 30.99466,2.50133 0.36134,-0.0107 0.63467,-0.15734 0.81067,-0.372" />
      <path
         id="path912"
         style="fill:#e4c030;fill-opacity:1;fill-rule:nonzero;stroke:none;stroke-width:0.133333"
         d="m 704.22265,474.85605 c 0.0387,0.0187 0.0773,0.0187 0.116,0.0293 -0.0973,0.79067 -0.23333,1.58133 -0.40933,2.35333 -5.86134,-2.872 -9.47467,6.28134 -15.092,5.704 -5.41067,-0.556 -8.62534,-6.69066 -14.544,-5.088 -0.41067,-1.036 -0.752,-2.1 -1.02534,-3.19466 3.916,-0.14667 6.984,0.996 10.256,3.224 1.592,1.09333 3.17467,2.19733 5.148,2.38266 5.90934,0.56667 9.61067,-8.07733 15.55067,-5.41066" />
      <path
         id="path914"
         style="fill:#f6efbc;fill-opacity:1;fill-rule:nonzero;stroke:none;stroke-width:0.133333"
         d="m 703.31332,479.33871 c -0.312,0.86 -0.70267,1.7 -1.18134,2.52 -3.048,5.20667 -8.704,7.59067 -14.584,6.828 -6.192,-0.80133 -10.35333,-4.62 -12.708,-9.572 5.24534,-0.332 8.55734,5.11734 13.57734,5.93867 5.236,0.84933 10.41333,-7.736 14.896,-5.71467" />
    </g>
  </g>
</svg>
