<?xml version="1.0" encoding="UTF-8" standalone="no"?>
<svg
   xmlns:dc="http://purl.org/dc/elements/1.1/"
   xmlns:cc="http://creativecommons.org/ns#"
   xmlns:rdf="http://www.w3.org/1999/02/22-rdf-syntax-ns#"
   xmlns:svg="http://www.w3.org/2000/svg"
   xmlns="http://www.w3.org/2000/svg"
   xmlns:sodipodi="http://sodipodi.sourceforge.net/DTD/sodipodi-0.dtd"
   xmlns:inkscape="http://www.inkscape.org/namespaces/inkscape"
   width="200"
   height="200"
   viewBox="0 0 52.916665 52.916668"
   version="1.1"
   id="svg1636"
   inkscape:version="1.0.2-2 (e86c870879, 2021-01-15)"
   sodipodi:docname="7.svg">
  <defs
     id="defs1630" />
  <sodipodi:namedview
     id="base"
     pagecolor="#ffffff"
     bordercolor="#666666"
     borderopacity="1.0"
     inkscape:pageopacity="0.0"
     inkscape:pageshadow="2"
     inkscape:zoom="2.8"
     inkscape:cx="130.21836"
     inkscape:cy="115.454"
     inkscape:document-units="mm"
     inkscape:current-layer="layer1"
     inkscape:document-rotation="0"
     showgrid="false"
     units="px"
     inkscape:window-width="2400"
     inkscape:window-height="1271"
     inkscape:window-x="2391"
     inkscape:window-y="-9"
     inkscape:window-maximized="1" />
  <metadata
     id="metadata1633">
    <rdf:RDF>
      <cc:Work
         rdf:about="">
        <dc:format>image/svg+xml</dc:format>
        <dc:type
           rdf:resource="http://purl.org/dc/dcmitype/StillImage" />
        <dc:title></dc:title>
      </cc:Work>
    </rdf:RDF>
  </metadata>
  <g
     inkscape:label="Layer 1"
     inkscape:groupmode="layer"
     id="layer1">
    <g
       id="g4255"
       transform="matrix(0.30925647,0,0,0.30925647,-145.73932,-161.86939)">
      <path
         id="path740"
         style="fill:#ecedea;fill-opacity:1;fill-rule:nonzero;stroke:none;stroke-width:0.133333"
         d="m 560.71199,652.02938 c -0.26267,2.91066 -0.0867,5.64533 0.508,8.46933 -7.12,-0.20533 -14.23067,-0.41067 -21.352,-0.596 -0.0293,-2.55067 -0.244,-5.06 -0.65467,-7.59067 7.15067,0.284 14.34933,-0.068 21.49867,-0.28266" />
      <path
         id="path742"
         style="fill:#171717;fill-opacity:1;fill-rule:nonzero;stroke:none;stroke-width:0.133333"
         d="m 534.39732,633.90938 c -1.308,-0.0187 -2.61733,-0.0387 -3.92667,-0.048 0,0.0387 0.0107,0.0773 0.0107,0.10666 0.0587,0.0973 0.11733,0.21467 0.12667,0.352 0.009,0.10667 0.02,0.21467 0.0293,0.32267 0.332,0.94667 1.192,1.71867 2.23733,1.436 0.664,-0.176 1.23067,-0.76267 1.43467,-1.40667 0.088,-0.264 0.088,-0.508 0.088,-0.76266 z m 5.832,0.108 c -1.42667,-0.0293 -2.852,-0.0587 -4.27867,-0.0787 0.0387,0.332 -0.0187,0.684 -0.11733,1.02667 0.32267,0.76133 0.95733,1.376 1.79733,1.47466 0.792,0.0973 1.51467,-0.29333 2.012,-0.89866 0.39067,-0.47867 0.42,-1.00667 0.58667,-1.524 z m 5.88,0.12666 c -1.35733,-0.0293 -2.70533,-0.0587 -4.06267,-0.088 -0.27466,1.124 0.35067,2.64667 1.44534,2.96934 0.74266,0.22533 1.55333,-0.176 2.02133,-0.74267 0.56667,-0.67333 0.38133,-1.28933 0.55733,-2.05067 0.009,-0.0387 0.0293,-0.0587 0.0387,-0.088 z m 6.24133,-18.84266 c 2.21734,-2.45067 0.352,-6.48534 -3.04666,-5.928 -3.42934,0.54666 -3.68267,4.844 -1.27067,6.75866 0.0493,0.0387 0.0693,0.0787 0.0987,0.11734 0.79066,-0.088 1.54266,-0.13734 2.24666,-0.156 0.556,-0.0107 1.12267,0 1.68934,0.0187 -0.0293,-0.27333 0.0587,-0.556 0.28266,-0.81066 z m 0.53734,18.93066 c -1.24934,-0.009 -2.50934,-0.0293 -3.76,-0.0493 -0.02,0.0493 -0.0387,0.0987 -0.068,0.13733 -0.91867,1.152 0.30266,3.136 1.71866,3.05734 0.772,-0.0493 1.42667,-0.65467 1.77734,-1.31867 0.332,-0.616 0.30266,-1.192 0.332,-1.82667 z m 5.29466,1.7 c 0.27334,-0.63466 0.009,-1.104 -0.02,-1.7 -0.94666,0.009 -1.904,0.009 -2.86133,0.009 -0.56667,1.04533 0.20533,2.804 1.51333,2.75466 0.62534,-0.0293 1.13334,-0.51733 1.368,-1.064 z m 6.144,-0.20533 c 0.27334,-0.54667 0.176,-1.04533 0.176,-1.612 -1.29866,0.0387 -2.608,0.068 -3.91733,0.088 -0.21467,1.26 0.78133,2.84267 2.16933,2.696 0.69334,-0.068 1.26934,-0.55733 1.572,-1.172 z m 5.148,33.35733 c 0.0587,-10.64666 0.0587,-21.304 0.136,-31.95066 -0.82,0.44933 -1.89466,0.596 -2.588,0.37066 -0.53733,-0.176 -0.96666,-0.52666 -1.26933,-0.94666 -0.66533,1.084 -1.876,1.93333 -3.01867,1.93333 -1.44533,0 -2.54933,-0.928 -3.028,-2.12933 -0.0587,0.156 -0.11733,0.32266 -0.196,0.44933 -0.53733,1.02533 -1.60133,1.77733 -2.784,1.748 -1.328,-0.0293 -2.26533,-0.956 -2.62666,-2.08933 -0.14667,0.332 -0.31334,0.63466 -0.49867,0.87866 -0.752,1.00667 -1.96267,1.67067 -3.23333,1.48534 -2.07067,-0.29334 -3.38934,-2.92134 -2.28534,-4.66 -0.264,-0.009 -0.528,-0.009 -0.79066,-0.009 0.576,1.00534 0.0387,2.38267 -0.69467,3.204 -0.84,0.928 -2.148,1.436 -3.37867,1.064 -1.11333,-0.34133 -1.91466,-1.30933 -2.15866,-2.42266 -0.11734,0.196 -0.264,0.38133 -0.40134,0.548 -0.79066,0.87866 -2.04133,1.416 -3.21333,1.19066 -0.98667,-0.18533 -1.72933,-0.81066 -2.17867,-1.61066 -0.58533,0.82933 -1.52266,1.436 -2.55866,1.47466 -0.71334,0.02 -1.35734,-0.196 -1.876,-0.576 0.88933,11.11467 1.036,22.33867 1.49466,33.464 0.22534,5.38267 -0.976,13.99734 2.07067,18.55867 2.95067,4.40667 12.69867,3.12667 17.62133,3.05867 3.00934,-0.04 6.01734,-0.16667 9.016,-0.38134 3.888,-0.284 7.81467,-0.32266 8.29334,-5.19733 0.56666,-5.71333 0.11733,-11.71067 0.14666,-17.45467 z m -0.0493,-37.16666 c 0.11733,0.009 0.20533,0.0387 0.30267,0.0773 -0.176,-10.17733 -11.19334,-13.97733 -20.15067,-13.64533 -9.56267,0.36133 -16.82,4.14133 -18.89067,13.33333 12.85334,-0.02 25.91334,-0.60533 38.73867,0.23467 z m 0.196,1.97333 c 0,-0.0107 0.009,-0.02 0.009,-0.04 -0.068,0.02 -0.12666,0.0493 -0.20533,0.0493 -1.03467,0.068 -2.07067,0.0973 -3.10533,0.136 -0.14667,0.87067 0.38,1.88534 1.328,1.984 1.03466,0.11734 1.26933,-0.78133 1.97333,-1.25066 0,-0.29334 0,-0.58667 0,-0.87867 z m -15.28667,-17.60267 c 9.484,1.11334 19.06667,6.94534 17.49334,17.836 -0.009,0.0693 -0.048,0.11734 -0.068,0.176 0.11733,15.71734 -0.0293,31.43334 -0.156,47.15067 -0.0293,3.61333 0.684,9.27867 -3.15467,11.39867 -1.788,0.98666 -4.56267,0.86 -6.516,1.00666 -3.604,0.28267 -7.208,0.42934 -10.81333,0.45867 -4.81467,0.0293 -12.31734,1.00533 -16.67334,-1.68 -3.98533,-2.46133 -3.68266,-7.56 -3.848,-11.65333 -0.62533,-15.512 -1.808,-31.13067 -1.652,-46.66134 0.0107,-0.42933 0.264,-0.664 0.56667,-0.74266 0.0107,-0.048 0.0107,-0.0973 0.0293,-0.136 -0.16533,-0.23467 -0.25333,-0.51867 -0.224,-0.80134 -2.79333,-9.456 8.224,-14.59333 16.69334,-16.088 -3.136,-3.03733 -1.47467,-8.772 3.24266,-9.31866 5.04,-0.596 7.94134,5.22666 5.08,9.05466" />
      <path
         id="path744"
         style="fill:#e0b01a;fill-opacity:1;fill-rule:nonzero;stroke:none;stroke-width:0.133333"
         d="m 569.63065,633.85071 c 0,0.02 -0.009,0.0293 -0.009,0.04 0,0.292 0,0.58533 0,0.87867 -0.704,0.46933 -0.93867,1.368 -1.97333,1.25066 -0.948,-0.0987 -1.47467,-1.11333 -1.328,-1.984 1.03466,-0.0387 2.07066,-0.068 3.10533,-0.136 0.0787,0 0.13733,-0.0293 0.20533,-0.0493" />
      <path
         id="path746"
         style="fill:#e0b01a;fill-opacity:1;fill-rule:nonzero;stroke:none;stroke-width:0.133333"
         d="m 569.72799,631.99471 c -0.0973,-0.0387 -0.18534,-0.068 -0.30267,-0.0773 -12.82533,-0.84 -25.88533,-0.25467 -38.73867,-0.23467 2.07067,-9.192 9.328,-12.972 18.89067,-13.33333 8.95733,-0.332 19.97467,3.468 20.15067,13.64533" />
      <path
         id="path748"
         style="fill:#f6efbc;fill-opacity:1;fill-rule:nonzero;stroke:none;stroke-width:0.133333"
         d="m 562.67599,662.85204 c 0.76133,0.02 1.29866,-0.752 1.11333,-1.46533 -0.94667,-3.57467 -1.14267,-6.88667 -0.69333,-10.52 0.068,-0.596 -0.576,-1.152 -1.13334,-1.13333 -7.756,0.23466 -15.58,0.244 -23.30666,1.02533 -0.37067,0.04 -0.60534,0.27467 -0.69334,0.548 -0.58533,0.12667 -1.12266,0.65467 -1.00533,1.416 0.44933,2.804 0.61467,5.5 0.556,8.332 -0.0187,0.65467 0.548,1.172 1.18267,1.192 7.98933,0.224 15.98933,0.40933 23.98,0.60533 z m 6.93466,-25.71866 c -0.0773,10.64666 -0.0773,21.304 -0.136,31.95066 -0.0293,5.744 0.42,11.74134 -0.14666,17.45467 -0.47867,4.87467 -4.40534,4.91333 -8.29334,5.19733 -2.99866,0.21467 -6.00666,0.34134 -9.016,0.38134 -4.92266,0.068 -14.67066,1.348 -17.62133,-3.05867 -3.04667,-4.56133 -1.84533,-13.176 -2.07067,-18.55867 -0.45866,-11.12533 -0.60533,-22.34933 -1.49466,-33.464 0.51866,0.38 1.16266,0.596 1.876,0.576 1.036,-0.0387 1.97333,-0.64533 2.55866,-1.47466 0.44934,0.8 1.192,1.42533 2.17867,1.61066 1.172,0.22534 2.42267,-0.312 3.21333,-1.19066 0.13734,-0.16667 0.284,-0.352 0.40134,-0.548 0.244,1.11333 1.04533,2.08133 2.15866,2.42266 1.23067,0.372 2.53867,-0.136 3.37867,-1.064 0.73333,-0.82133 1.27067,-2.19866 0.69467,-3.204 0.26266,0 0.52666,0 0.79066,0.009 -1.104,1.73866 0.21467,4.36666 2.28534,4.66 1.27066,0.18533 2.48133,-0.47867 3.23333,-1.48534 0.18533,-0.244 0.352,-0.54666 0.49867,-0.87866 0.36133,1.13333 1.29866,2.06 2.62666,2.08933 1.18267,0.0293 2.24667,-0.72267 2.784,-1.748 0.0787,-0.12667 0.13734,-0.29333 0.196,-0.44933 0.47867,1.20133 1.58267,2.12933 3.028,2.12933 1.14267,0 2.35334,-0.84933 3.01867,-1.93333 0.30267,0.42 0.732,0.77066 1.26933,0.94666 0.69334,0.22534 1.768,0.0787 2.588,-0.37066" />
      <path
         id="path750"
         style="fill:#e0b01a;fill-opacity:1;fill-rule:nonzero;stroke:none;stroke-width:0.133333"
         d="m 564.50265,634.11471 c 0,0.56667 0.0973,1.06533 -0.176,1.612 -0.30266,0.61467 -0.87866,1.104 -1.572,1.172 -1.388,0.14667 -2.384,-1.436 -2.16933,-2.696 1.30933,-0.02 2.61867,-0.0493 3.91733,-0.088" />
      <path
         id="path752"
         style="fill:#171717;fill-opacity:1;fill-rule:nonzero;stroke:none;stroke-width:0.133333"
         d="m 561.21999,660.49871 c -0.59467,-2.824 -0.77067,-5.55867 -0.508,-8.46933 -7.14934,0.21466 -14.348,0.56666 -21.49867,0.28266 0.41067,2.53067 0.62533,5.04 0.65467,7.59067 7.12133,0.18533 14.232,0.39067 21.352,0.596 z m 2.56933,0.888 c 0.18533,0.71333 -0.352,1.48533 -1.11333,1.46533 -7.99067,-0.196 -15.99067,-0.38133 -23.98,-0.60533 -0.63467,-0.02 -1.20134,-0.53733 -1.18267,-1.192 0.0587,-2.832 -0.10667,-5.528 -0.556,-8.332 -0.11733,-0.76133 0.42,-1.28933 1.00533,-1.416 0.088,-0.27333 0.32267,-0.508 0.69334,-0.548 7.72666,-0.78133 15.55066,-0.79067 23.30666,-1.02533 0.55734,-0.0187 1.20134,0.53733 1.13334,1.13333 -0.44934,3.63333 -0.25334,6.94533 0.69333,10.52" />
      <path
         id="path754"
         style="fill:#e0b01a;fill-opacity:1;fill-rule:nonzero;stroke:none;stroke-width:0.133333"
         d="m 558.16265,634.23204 c 0.0293,0.596 0.29334,1.06534 0.02,1.7 -0.23466,0.54667 -0.74266,1.03467 -1.368,1.064 -1.308,0.0493 -2.08,-1.70933 -1.51333,-2.75466 0.95733,0 1.91467,0 2.86133,-0.009" />
      <path
         id="path756"
         style="fill:#e0b01a;fill-opacity:1;fill-rule:nonzero;stroke:none;stroke-width:0.133333"
         d="m 549.12799,634.18271 c 1.25066,0.02 2.51066,0.04 3.76,0.0493 -0.0293,0.63467 0,1.21067 -0.332,1.82667 -0.35067,0.664 -1.00534,1.26933 -1.77734,1.31867 -1.416,0.0787 -2.63733,-1.90534 -1.71866,-3.05734 0.0293,-0.0387 0.048,-0.088 0.068,-0.13733" />
      <path
         id="path758"
         style="fill:#e0b01a;fill-opacity:1;fill-rule:nonzero;stroke:none;stroke-width:0.133333"
         d="m 549.30399,609.37338 c 3.39866,-0.55734 5.264,3.47733 3.04666,5.928 -0.224,0.25466 -0.312,0.53733 -0.28266,0.81066 -0.56667,-0.0187 -1.13334,-0.0293 -1.68934,-0.0187 -0.704,0.0187 -1.456,0.068 -2.24666,0.156 -0.0293,-0.0387 -0.0493,-0.0787 -0.0987,-0.11734 -2.412,-1.91466 -2.15867,-6.212 1.27067,-6.75866" />
      <path
         id="path760"
         style="fill:#e0b01a;fill-opacity:1;fill-rule:nonzero;stroke:none;stroke-width:0.133333"
         d="m 542.04665,634.05604 c 1.35734,0.0293 2.70534,0.0587 4.06267,0.088 -0.009,0.0293 -0.0293,0.0493 -0.0387,0.088 -0.176,0.76134 0.009,1.37734 -0.55733,2.05067 -0.468,0.56667 -1.27867,0.968 -2.02133,0.74267 -1.09467,-0.32267 -1.72,-1.84534 -1.44534,-2.96934" />
      <path
         id="path762"
         style="fill:#e0b01a;fill-opacity:1;fill-rule:nonzero;stroke:none;stroke-width:0.133333"
         d="m 535.95065,633.93871 c 1.42667,0.02 2.852,0.0493 4.27867,0.0787 -0.16667,0.51733 -0.196,1.04533 -0.58667,1.524 -0.49733,0.60533 -1.22,0.996 -2.012,0.89866 -0.84,-0.0987 -1.47466,-0.71333 -1.79733,-1.47466 0.0987,-0.34267 0.156,-0.69467 0.11733,-1.02667" />
      <path
         id="path764"
         style="fill:#e0b01a;fill-opacity:1;fill-rule:nonzero;stroke:none;stroke-width:0.133333"
         d="m 530.47065,633.86138 c 1.30934,0.009 2.61867,0.0293 3.92667,0.048 0,0.25466 0,0.49866 -0.088,0.76266 -0.204,0.644 -0.77067,1.23067 -1.43467,1.40667 -1.04533,0.28267 -1.90533,-0.48933 -2.23733,-1.436 -0.009,-0.108 -0.02,-0.216 -0.0293,-0.32267 -0.009,-0.13733 -0.068,-0.25466 -0.12667,-0.352 0,-0.0293 -0.0107,-0.068 -0.0107,-0.10666" />
      <path
         id="path818"
         style="fill:#ecedea;fill-opacity:1;fill-rule:nonzero;stroke:none;stroke-width:0.133333"
         d="m 626.36265,662.53871 c -0.244,3.76133 -0.156,7.47333 0.264,11.21467 -5.73333,0.136 -11.468,0.30266 -17.20133,0.448 -3.15467,0.088 -6.584,0.928 -7.72667,-2.61734 -0.82,-2.56933 -0.4,-6.61333 -0.53733,-9.396 8.244,0.976 16.89866,0.40934 25.20133,0.35067" />
      <path
         id="path820"
         style="fill:#171717;fill-opacity:1;fill-rule:nonzero;stroke:none;stroke-width:0.133333"
         d="m 596.69732,647.05738 c 0.0107,-0.02 0.0293,-0.04 0.0493,-0.0587 -1.21066,-0.0493 -2.42266,-0.108 -3.624,-0.176 0.0293,0.088 0.0293,0.176 -0.02,0.27333 -0.624,1.16267 0.24534,3.28267 1.73867,3.204 0.71333,-0.0293 1.33867,-0.64533 1.60267,-1.28 0.25333,-0.63466 -0.156,-1.436 0.25333,-1.96266 z m 7.62,0.94666 c -0.0107,-0.25333 -0.0293,-0.49733 -0.0587,-0.752 -1.896,-0.0387 -3.8,-0.0973 -5.69466,-0.176 0.068,0.088 0.0973,0.196 0.0587,0.32267 -0.43066,1.26 0.30267,2.96933 1.68933,3.28267 1.68934,0.38 2.49067,-1.31867 2.804,-2.648 0.156,-0.65467 0.96667,-0.52667 1.20134,-0.0293 z m 4.512,-0.664 c -1.21067,-0.0187 -2.42267,-0.0387 -3.63334,-0.068 0.25334,1.07467 0.42,2.148 0.46934,3.24267 0.74133,0.22533 1.53333,-0.02 2.148,-0.508 0.772,-0.60533 0.97733,-1.31867 0.928,-2.26533 -0.009,-0.15734 0.0293,-0.29334 0.088,-0.40134 z m 6.43733,0.0293 c -1.192,0 -2.384,0 -3.56533,-0.009 -1.26,1.14267 -0.196,3.14534 1.46533,2.97867 0.88933,-0.088 1.572,-0.67333 1.904,-1.484 0.196,-0.47867 0.16667,-0.98667 0.196,-1.48533 z m 0.02,-19.54534 c 0.69333,-1.768 1.24,-3.87733 0.23333,-5.616 -0.712,-1.24133 -2.48,-2.276 -3.87733,-1.51466 -2.02133,1.09466 -1.26933,6.27066 -0.156,7.404 1.26,-0.16534 2.52933,-0.25334 3.8,-0.27334 z m 3.92667,22.84667 c 1.66933,0.13733 2.57866,-1.73867 2.20666,-3.14533 -0.0187,-0.068 -0.009,-0.136 -0.009,-0.21467 -1.44533,0.02 -2.88133,0.0493 -4.32667,0.0587 -0.0107,0.0387 -0.0107,0.0787 -0.02,0.108 0.0293,0.29333 0.009,0.596 -0.0387,0.908 0.16533,1.124 1.00533,2.19733 2.188,2.28533 z m -26.52,-5.392 c 14.368,-0.908 29.108,-0.84933 43.50533,-0.43867 -1.60133,-11.45866 -12.67867,-15.16933 -23.04133,-14.496 -9.544,0.62534 -17.456,5.97867 -20.504,14.94534 0.02,0 0.0293,-0.0107 0.04,-0.0107 z m 35.46666,2.02267 c -0.009,-0.0387 0.0107,-0.0693 0.0107,-0.108 -1.40667,0.0293 -2.824,0.0587 -4.23067,0.0787 -0.18533,1.18134 0.49867,2.54 1.73867,2.784 1.632,0.332 2.59867,-1.37733 2.48133,-2.75466 z m 6.78934,-0.12667 c -0.0107,-0.0587 0.009,-0.108 0.0187,-0.15733 -1.47466,0.0493 -2.95866,0.088 -4.444,0.128 -0.27333,1.328 0.64534,3.04666 2.12,3.10533 1.70934,0.0693 2.35334,-1.68933 2.30534,-3.076 z m 1.944,37.772 c 0.42933,-2.21733 0.009,-4.91333 0,-7.16933 -0.04,-9.524 -0.15734,-19.048 -0.30267,-28.572 -0.548,1.66133 -2.26667,3.00933 -4.064,2.824 -1.49467,-0.15734 -2.608,-1.212 -3.06667,-2.50134 -0.69466,1.456 -2.32533,2.51067 -3.976,2.14934 -1.14266,-0.25467 -2.012,-1.04534 -2.452,-2.032 -0.54666,1.56266 -2.012,2.79333 -3.8,2.68666 -1.33733,-0.088 -2.38266,-0.93866 -2.92933,-2.052 -0.04,0.0587 -0.0787,0.11734 -0.11733,0.176 -0.84,1.14267 -2.228,1.72934 -3.63467,1.53334 -1.19067,-0.176 -2.07067,-0.976 -2.46133,-1.95334 -1.02534,1.79734 -3.72134,2.81334 -5.51867,1.63067 -0.20533,-0.12667 -0.39067,-0.38 -0.37067,-0.644 0.0387,-0.30267 0.0587,-0.62533 0.0773,-0.93733 -0.684,1.504 -2.676,2.55866 -4.248,2.148 -1.104,-0.292 -1.896,-1.09334 -2.28667,-2.06 -0.76133,1.19066 -2.21733,1.992 -3.624,1.60133 -0.488,-0.136 -0.89866,-0.4 -1.24,-0.71333 0.596,8.40133 0.61467,16.88933 0.86934,25.3 0.176,5.90933 -1.016,13.16666 6.40799,14.69066 4.62934,0.94667 9.71867,0.82 14.42667,0.77067 4.67867,-0.0387 9.35733,-0.332 13.99733,-0.92667 4.22,-0.548 7.29734,-0.684 8.31334,-5.94933 z m 2.236,-16.88933 c 0.0493,5.92933 1.02533,12.69866 -0.10667,18.53066 -0.72267,3.74134 -3.488,5.372 -7.024,6.104 -5.64533,1.16267 -11.672,1.35867 -17.416,1.40667 -7.41333,0.0693 -21.22533,1.564 -22.74933,-8.37067 -0.91867,-6.04666 -0.42933,-12.67866 -0.58667,-18.784 -0.18533,-6.896 -0.52666,-13.812 -0.23333,-20.708 0,-0.10666 0.0293,-0.19466 0.0587,-0.28266 0.87866,-9.748 9.06399,-15.70667 18.40266,-17.53334 -0.508,-0.67466 -0.86933,-1.53333 -1.036,-2.276 -0.53733,-2.364 -0.45867,-5.372 1.64133,-6.97466 2.14934,-1.63067 5.11867,-0.772 6.74934,1.16266 1.79733,2.14934 1.612,5.04 0.74266,7.55067 10.344,0.60533 19.96534,6.25067 20.91334,17.38667 0.009,0.21466 -0.0293,0.39066 -0.108,0.54666 0.25466,0.176 0.43066,0.46 0.44,0.86 0.14666,7.13067 0.25333,14.25067 0.312,21.38134" />
      <path
         id="path822"
         style="fill:#f6efbc;fill-opacity:1;fill-rule:nonzero;stroke:none;stroke-width:0.133333"
         d="m 627.92532,676.07738 c 0.85066,-0.0293 1.24133,-0.72267 1.144,-1.49467 -0.596,-4.42533 -0.67467,-8.772 -0.31334,-13.216 0.0587,-0.63467 -0.56666,-1.172 -1.16266,-1.172 -9.02534,0.02 -18.53867,-0.732 -27.496,0.508 -0.04,0 -0.068,0.02 -0.108,0.0387 -0.60533,-0.0387 -1.22133,0.32266 -1.192,1.11466 0.128,3.76934 -0.65333,9.53334 0.65467,13.05867 0.47866,1.31867 0.79199,1.62133 2.23733,1.93467 3.32133,0.74266 7.99066,-0.16667 11.43866,-0.27334 4.932,-0.14666 9.86534,-0.30266 14.79734,-0.49866 z m 8.968,1.7 c 0.009,2.256 0.42933,4.952 0,7.16933 -1.016,5.26533 -4.09334,5.40133 -8.31334,5.94933 -4.64,0.59467 -9.31866,0.888 -13.99733,0.92667 -4.708,0.0493 -9.79733,0.176 -14.42667,-0.77067 -7.42399,-1.524 -6.23199,-8.78133 -6.40799,-14.69066 -0.25467,-8.41067 -0.27334,-16.89867 -0.86934,-25.3 0.34134,0.31333 0.752,0.57733 1.24,0.71333 1.40667,0.39067 2.86267,-0.41067 3.624,-1.60133 0.39067,0.96666 1.18267,1.768 2.28667,2.06 1.572,0.41066 3.564,-0.644 4.248,-2.148 -0.0187,0.312 -0.0387,0.63466 -0.0773,0.93733 -0.02,0.264 0.16534,0.51733 0.37067,0.644 1.79733,1.18267 4.49333,0.16667 5.51867,-1.63067 0.39066,0.97734 1.27066,1.77734 2.46133,1.95334 1.40667,0.196 2.79467,-0.39067 3.63467,-1.53334 0.0387,-0.0587 0.0773,-0.11733 0.11733,-0.176 0.54667,1.11334 1.592,1.964 2.92933,2.052 1.788,0.10667 3.25334,-1.124 3.8,-2.68666 0.44,0.98666 1.30934,1.77733 2.452,2.032 1.65067,0.36133 3.28134,-0.69334 3.976,-2.14934 0.45867,1.28934 1.572,2.344 3.06667,2.50134 1.79733,0.18533 3.516,-1.16267 4.064,-2.824 0.14533,9.524 0.26267,19.048 0.30267,28.572" />
      <path
         id="path824"
         style="fill:#e0b01a;fill-opacity:1;fill-rule:nonzero;stroke:none;stroke-width:0.133333"
         d="m 634.96798,647.01738 c -0.009,0.0493 -0.0293,0.0987 -0.0187,0.15733 0.048,1.38667 -0.596,3.14533 -2.30534,3.076 -1.47466,-0.0587 -2.39333,-1.77733 -2.12,-3.10533 1.48534,-0.04 2.96934,-0.0787 4.444,-0.128" />
      <path
         id="path826"
         style="fill:#171717;fill-opacity:1;fill-rule:nonzero;stroke:none;stroke-width:0.133333"
         d="m 626.62665,673.75338 c -0.42,-3.74134 -0.508,-7.45334 -0.264,-11.21467 -8.30267,0.0587 -16.95733,0.62533 -25.20133,-0.35067 0.13733,2.78267 -0.28267,6.82667 0.53733,9.396 1.14267,3.54534 4.572,2.70534 7.72667,2.61734 5.73333,-0.14534 11.468,-0.312 17.20133,-0.448 z m 2.44267,0.82933 c 0.0973,0.772 -0.29334,1.46533 -1.144,1.49467 -4.932,0.196 -9.86534,0.352 -14.79734,0.49866 -3.448,0.10667 -8.11733,1.016 -11.43866,0.27334 -1.44534,-0.31334 -1.75867,-0.616 -2.23733,-1.93467 -1.308,-3.52533 -0.52667,-9.28933 -0.65467,-13.05867 -0.0293,-0.792 0.58667,-1.15333 1.192,-1.11466 0.04,-0.0187 0.068,-0.0387 0.108,-0.0387 8.95733,-1.24 18.47066,-0.488 27.496,-0.508 0.596,0 1.22133,0.53733 1.16266,1.172 -0.36133,4.444 -0.28266,8.79067 0.31334,13.216" />
      <path
         id="path828"
         style="fill:#e0b01a;fill-opacity:1;fill-rule:nonzero;stroke:none;stroke-width:0.133333"
         d="m 628.17065,647.19338 c 0,0.0387 -0.02,0.0693 -0.0107,0.108 0.11734,1.37733 -0.84933,3.08666 -2.48133,2.75466 -1.24,-0.244 -1.924,-1.60266 -1.73867,-2.784 1.40667,-0.02 2.824,-0.0493 4.23067,-0.0787" />
      <path
         id="path830"
         style="fill:#e0b01a;fill-opacity:1;fill-rule:nonzero;stroke:none;stroke-width:0.133333"
         d="m 636.19865,644.84004 c -14.39733,-0.41066 -29.13733,-0.46933 -43.50533,0.43867 -0.0107,0 -0.02,0.0107 -0.04,0.0107 3.048,-8.96667 10.96,-14.32 20.504,-14.94534 10.36266,-0.67333 21.44,3.03734 23.04133,14.496" />
      <path
         id="path832"
         style="fill:#e0b01a;fill-opacity:1;fill-rule:nonzero;stroke:none;stroke-width:0.133333"
         d="m 621.41998,647.52538 c 0.372,1.40666 -0.53733,3.28266 -2.20666,3.14533 -1.18267,-0.088 -2.02267,-1.16133 -2.188,-2.28533 0.048,-0.312 0.068,-0.61467 0.0387,-0.908 0.009,-0.0293 0.009,-0.0693 0.02,-0.108 1.44534,-0.009 2.88134,-0.0387 4.32667,-0.0587 0,0.0787 -0.009,0.14667 0.009,0.21467" />
      <path
         id="path834"
         style="fill:#e0b01a;fill-opacity:1;fill-rule:nonzero;stroke:none;stroke-width:0.133333"
         d="m 615.51998,622.20804 c 1.00667,1.73867 0.46,3.848 -0.23333,5.616 -1.27067,0.02 -2.54,0.108 -3.8,0.27334 -1.11333,-1.13334 -1.86533,-6.30934 0.156,-7.404 1.39733,-0.76134 3.16533,0.27333 3.87733,1.51466" />
      <path
         id="path836"
         style="fill:#e0b01a;fill-opacity:1;fill-rule:nonzero;stroke:none;stroke-width:0.133333"
         d="m 611.70132,647.36004 c 1.18133,0.009 2.37333,0.009 3.56533,0.009 -0.0293,0.49866 0,1.00666 -0.196,1.48533 -0.332,0.81067 -1.01467,1.396 -1.904,1.484 -1.66133,0.16667 -2.72533,-1.836 -1.46533,-2.97867" />
      <path
         id="path838"
         style="fill:#e0b01a;fill-opacity:1;fill-rule:nonzero;stroke:none;stroke-width:0.133333"
         d="m 605.19598,647.27204 c 1.21067,0.0293 2.42267,0.0493 3.63334,0.068 -0.0587,0.108 -0.0973,0.244 -0.088,0.40134 0.0493,0.94666 -0.156,1.66 -0.928,2.26533 -0.61467,0.488 -1.40667,0.73333 -2.148,0.508 -0.0493,-1.09467 -0.216,-2.168 -0.46934,-3.24267" />
      <path
         id="path840"
         style="fill:#e0b01a;fill-opacity:1;fill-rule:nonzero;stroke:none;stroke-width:0.133333"
         d="m 604.25865,647.25204 c 0.0293,0.25467 0.048,0.49867 0.0587,0.752 -0.23467,-0.49733 -1.04534,-0.62533 -1.20134,0.0293 -0.31333,1.32933 -1.11466,3.028 -2.804,2.648 -1.38666,-0.31334 -2.11999,-2.02267 -1.68933,-3.28267 0.0387,-0.12667 0.009,-0.23467 -0.0587,-0.32267 1.89466,0.0787 3.79866,0.13734 5.69466,0.176" />
      <path
         id="path842"
         style="fill:#e0b01a;fill-opacity:1;fill-rule:nonzero;stroke:none;stroke-width:0.133333"
         d="m 596.74665,646.99871 c -0.02,0.0187 -0.0387,0.0387 -0.0493,0.0587 -0.40933,0.52666 0,1.328 -0.25333,1.96266 -0.264,0.63467 -0.88934,1.25067 -1.60267,1.28 -1.49333,0.0787 -2.36267,-2.04133 -1.73867,-3.204 0.0493,-0.0973 0.0493,-0.18533 0.02,-0.27333 1.20134,0.068 2.41334,0.12667 3.624,0.176" />
      <path
         id="path844"
         style="fill:#ecedea;fill-opacity:1;fill-rule:nonzero;stroke:none;stroke-width:0.133333"
         d="m 503.90132,645.32804 c -0.576,3.38934 -0.81067,6.78 -0.70267,10.228 -4.58133,0.068 -9.172,0.10667 -13.76266,0.0773 -0.95734,-0.009 -2.61867,0.29333 -3.51734,-0.0387 -1.40666,-0.508 -1.60133,-1.27067 -1.904,-2.91067 -0.264,-1.456 -0.74266,-6.80933 0.42934,-7.85333 6.44666,0.644 12.98133,0.58533 19.45733,0.49733" />
      <path
         id="path846"
         style="fill:#171717;fill-opacity:1;fill-rule:nonzero;stroke:none;stroke-width:0.133333"
         d="m 480.30265,624.54271 c -1.23066,0 -2.472,0 -3.712,0 0.20534,1.02533 0.38134,2.168 0.352,3.24267 0.47867,0.312 1.07467,0.43866 1.62134,0.20533 0.732,-0.32267 1.22133,-1.04533 1.46533,-1.77867 0.16533,-0.51733 0.11733,-1.14266 0.27333,-1.66933 z m 6.15334,0 c -1.484,0 -2.97867,0 -4.47334,0 -0.11733,1.436 1.07467,3.08667 2.63734,2.77333 0.70266,-0.136 1.25066,-0.65466 1.572,-1.26933 0.264,-0.508 0.24533,-0.996 0.264,-1.504 z m 5.60666,1.592 c 0.196,-0.548 0.0493,-1.05467 0.0493,-1.58267 -1.28934,-0.009 -2.57867,-0.009 -3.868,-0.009 -0.32267,1.36667 0.61466,3.32 2.23733,3.04667 0.752,-0.12667 1.34667,-0.76134 1.58133,-1.45467 z m 3.488,-17.98267 c 0.39067,-1.632 1.05467,-2.88133 0.56667,-4.62 -0.39067,-1.35866 -1.41733,-2.41333 -2.912,-1.964 -3.272,0.97734 -1.93333,4.45467 -0.58533,6.50534 0.96666,-0.02 1.95333,0 2.93066,0.0787 z m -19.37066,15.00267 c 11.94666,-1.464 24.284,-1.132 36.288,-0.244 -1.71867,-16.312 -35.076,-17.484 -36.288,0.244 z m 21.988,1.436 c -1.42667,-0.0187 -2.852,-0.0293 -4.27867,-0.0387 -0.14667,1.20134 0.664,2.59867 1.90533,2.75467 0.732,0.088 1.436,-0.332 1.86534,-0.89867 0.42,-0.56666 0.39066,-1.18266 0.508,-1.81733 z m 5.62666,2.452 c 0.244,-0.38133 0.39067,-0.82 0.38,-1.26933 0,-0.40134 -0.116,-0.69334 -0.028,-1.05467 -1.368,-0.04 -2.74533,-0.0787 -4.11333,-0.0987 -0.556,1.26 0.088,3.14534 1.46533,3.52667 0.89867,0.244 1.82667,-0.37067 2.296,-1.104 z m 5.352,1.42667 c 1.86667,-0.20534 2.26667,-1.95334 2.19867,-3.47734 -1.67067,-0.088 -3.34133,-0.16666 -5.01067,-0.216 -0.44,1.66134 0.94667,3.888 2.812,3.69334 z m 5.71467,57.22933 c 0.62533,-3.26133 -0.0493,-7.072 -0.156,-10.37333 -0.0973,-3.22267 -0.20533,-6.44667 -0.31333,-9.66 -0.40934,-12.84534 -0.908,-25.7 -1.24,-38.544 -0.60534,1.73866 -2.42267,3.21333 -4.19067,3.17466 -1.68,-0.0293 -2.96,-1.124 -3.536,-2.52 -0.0973,0.18534 -0.19467,0.35067 -0.29333,0.488 -0.908,1.23067 -2.45067,1.98267 -3.97467,1.572 -1.124,-0.312 -1.91467,-1.152 -2.30533,-2.148 -0.83067,0.93734 -2.14,1.51334 -3.4,1.24 -0.94667,-0.20533 -1.68,-0.81066 -2.12934,-1.58266 -0.58533,1.02533 -1.64,1.83733 -2.84133,1.89466 -1.368,0.0693 -2.56,-0.8 -3.16533,-1.95333 -0.67467,0.91867 -1.72934,1.60267 -2.88134,1.60267 -1.37733,0.009 -2.48133,-0.81067 -3.048,-1.924 -0.12666,0.292 -0.25333,0.54666 -0.38133,0.752 -0.63467,1.04533 -1.728,1.87466 -2.988,1.88533 -0.44933,0.009 -0.88,-0.11733 -1.28,-0.32267 -0.0293,0.136 -0.068,0.264 -0.108,0.39067 -0.068,0.16533 -0.19467,0.30267 -0.35067,0.4 0.17467,12.992 0.0773,25.99333 0.048,38.99333 -0.009,3.17467 -0.0187,6.34934 -0.0293,9.524 0,2.57867 -0.84933,8.42934 0.91867,10.608 3.89733,4.776 13.84133,2.61734 19.22266,2.44267 5.70534,-0.18667 16.996,1.56267 18.42267,-5.94 z m 2.19733,-8.43867 c 0.176,5.04 1.544,11.72134 -3.68133,14.71067 -4.73867,2.696 -11.752,1.728 -16.93867,1.87467 -5.46933,0.16666 -13.41066,1.91466 -18.432,-0.95734 -4.67866,-2.676 -3.90666,-8.76133 -3.89733,-13.34266 0.0293,-16.98667 -0.088,-33.98267 0.25467,-50.96934 -0.27334,-1.66933 -0.13734,-3.40933 0.39066,-5.01066 0.009,-0.009 0.0187,-0.02 0.0293,-0.0387 -0.93867,-9.504 6.92533,-14.53467 15.92133,-15.34533 -2.59867,-2.70667 -1.84667,-7.864 2.30533,-8.74267 4.62934,-0.98666 6.88667,5.568 4.65867,8.948 8.73333,1.26933 16.71333,6.388 17.16267,15.11067 0.16666,0.264 0.22533,0.58533 0.16666,0.87866 0.16534,0.176 0.28267,0.4 0.30267,0.704 0.71333,17.38667 1.172,34.78267 1.75733,52.18" />
      <path
         id="path848"
         style="fill:#f6efbc;fill-opacity:1;fill-rule:nonzero;stroke:none;stroke-width:0.133333"
         d="m 506.39199,644.45871 c 0.14666,-0.74133 -0.32134,-1.46533 -1.12267,-1.47467 -6.99333,-0.0973 -14.06533,-0.264 -21.04,0.34134 -0.21467,-0.12667 -0.46933,-0.19467 -0.72267,-0.156 -0.23466,0.0387 -0.46933,0.0787 -0.704,0.11733 -0.4,0.068 -0.70266,0.46 -0.82,0.82133 -1.26933,3.96534 -0.42,8.92667 0.12667,12.99067 0.068,0.51733 0.684,0.87867 1.16267,0.87867 7.052,0.0987 14.09466,0.0693 21.13733,-0.0773 0.616,-0.0107 1.22133,-0.528 1.18267,-1.18266 -0.244,-4.17067 0,-8.156 0.8,-12.25867 z m 8.31333,30.86667 c 0.10667,3.30133 0.78133,7.112 0.156,10.37333 -1.42667,7.50267 -12.71733,5.75333 -18.42267,5.94 -5.38133,0.17467 -15.32533,2.33333 -19.22266,-2.44267 -1.768,-2.17866 -0.91867,-8.02933 -0.91867,-10.608 0.0107,-3.17466 0.02,-6.34933 0.0293,-9.524 0.0293,-13 0.12667,-26.00133 -0.048,-38.99333 0.156,-0.0973 0.28267,-0.23467 0.35067,-0.4 0.04,-0.12667 0.0787,-0.25467 0.108,-0.39067 0.4,0.20534 0.83067,0.332 1.28,0.32267 1.26,-0.0107 2.35333,-0.84 2.988,-1.88533 0.128,-0.20534 0.25467,-0.46 0.38133,-0.752 0.56667,1.11333 1.67067,1.93333 3.048,1.924 1.152,0 2.20667,-0.684 2.88134,-1.60267 0.60533,1.15333 1.79733,2.02267 3.16533,1.95333 1.20133,-0.0573 2.256,-0.86933 2.84133,-1.89466 0.44934,0.772 1.18267,1.37733 2.12934,1.58266 1.26,0.27334 2.56933,-0.30266 3.4,-1.24 0.39066,0.996 1.18133,1.836 2.30533,2.148 1.524,0.41067 3.06667,-0.34133 3.97467,-1.572 0.0987,-0.13733 0.196,-0.30266 0.29333,-0.488 0.576,1.396 1.856,2.49067 3.536,2.52 1.768,0.0387 3.58533,-1.436 4.19067,-3.17466 0.332,12.844 0.83066,25.69866 1.24,38.544 0.108,3.21333 0.216,6.43733 0.31333,9.66" />
      <path
         id="path850"
         style="fill:#e0b01a;fill-opacity:1;fill-rule:nonzero;stroke:none;stroke-width:0.133333"
         d="m 511.34532,624.99204 c 0.068,1.524 -0.332,3.272 -2.19867,3.47734 -1.86533,0.19466 -3.252,-2.032 -2.812,-3.69334 1.66934,0.0493 3.34,0.128 5.01067,0.216" />
      <path
         id="path852"
         style="fill:#171717;fill-opacity:1;fill-rule:nonzero;stroke:none;stroke-width:0.133333"
         d="m 503.19865,655.55604 c -0.108,-3.448 0.12667,-6.83866 0.70267,-10.228 -6.476,0.088 -13.01067,0.14667 -19.45733,-0.49733 -1.172,1.044 -0.69334,6.39733 -0.42934,7.85333 0.30267,1.64 0.49734,2.40267 1.904,2.91067 0.89867,0.332 2.56,0.0293 3.51734,0.0387 4.59066,0.0293 9.18133,-0.009 13.76266,-0.0773 z m 2.07067,-12.572 c 0.80133,0.009 1.26933,0.73334 1.12267,1.47467 -0.8,4.10267 -1.044,8.088 -0.8,12.25867 0.0387,0.65466 -0.56667,1.172 -1.18267,1.18266 -7.04267,0.14667 -14.08533,0.176 -21.13733,0.0773 -0.47867,0 -1.09467,-0.36134 -1.16267,-0.87867 -0.54667,-4.064 -1.396,-9.02533 -0.12667,-12.99067 0.11734,-0.36133 0.42,-0.75333 0.82,-0.82133 0.23467,-0.0387 0.46934,-0.0787 0.704,-0.11733 0.25334,-0.0387 0.508,0.0293 0.72267,0.156 6.97467,-0.60534 14.04667,-0.43867 21.04,-0.34134" />
      <path
         id="path854"
         style="fill:#e0b01a;fill-opacity:1;fill-rule:nonzero;stroke:none;stroke-width:0.133333"
         d="m 504.17465,625.77338 c 0.0107,0.44933 -0.136,0.888 -0.38,1.26933 -0.46933,0.73333 -1.39733,1.348 -2.296,1.104 -1.37733,-0.38133 -2.02133,-2.26667 -1.46533,-3.52667 1.368,0.02 2.74533,0.0587 4.11333,0.0987 -0.088,0.36133 0.028,0.65333 0.028,1.05467" />
      <path
         id="path856"
         style="fill:#e0b01a;fill-opacity:1;fill-rule:nonzero;stroke:none;stroke-width:0.133333"
         d="m 493.88932,624.55204 c 1.42667,0.009 2.852,0.02 4.27867,0.0387 -0.11734,0.63467 -0.088,1.25067 -0.508,1.81733 -0.42934,0.56667 -1.13334,0.98667 -1.86534,0.89867 -1.24133,-0.156 -2.052,-1.55333 -1.90533,-2.75467" />
      <path
         id="path858"
         style="fill:#e0b01a;fill-opacity:1;fill-rule:nonzero;stroke:none;stroke-width:0.133333"
         d="m 512.46799,622.91071 c -12.004,-0.888 -24.34134,-1.22 -36.288,0.244 1.212,-17.728 34.56933,-16.556 36.288,-0.244" />
      <path
         id="path860"
         style="fill:#e0b01a;fill-opacity:1;fill-rule:nonzero;stroke:none;stroke-width:0.133333"
         d="m 496.11732,603.53204 c 0.488,1.73867 -0.176,2.988 -0.56667,4.62 -0.97733,-0.0787 -1.964,-0.0987 -2.93066,-0.0787 -1.348,-2.05067 -2.68667,-5.528 0.58533,-6.50534 1.49467,-0.44933 2.52133,0.60534 2.912,1.964" />
      <path
         id="path862"
         style="fill:#e0b01a;fill-opacity:1;fill-rule:nonzero;stroke:none;stroke-width:0.133333"
         d="m 492.11199,624.55204 c 0,0.528 0.14666,1.03467 -0.0493,1.58267 -0.23466,0.69333 -0.82933,1.328 -1.58133,1.45467 -1.62267,0.27333 -2.56,-1.68 -2.23733,-3.04667 1.28933,0 2.57866,0 3.868,0.009" />
      <path
         id="path864"
         style="fill:#e0b01a;fill-opacity:1;fill-rule:nonzero;stroke:none;stroke-width:0.133333"
         d="m 481.98265,624.54271 c 1.49467,0 2.98934,0 4.47334,0 -0.0187,0.508 0,0.996 -0.264,1.504 -0.32134,0.61467 -0.86934,1.13333 -1.572,1.26933 -1.56267,0.31334 -2.75467,-1.33733 -2.63734,-2.77333" />
      <path
         id="path866"
         style="fill:#e0b01a;fill-opacity:1;fill-rule:nonzero;stroke:none;stroke-width:0.133333"
         d="m 476.59065,624.54271 c 1.24,0 2.48134,0 3.712,0 -0.156,0.52667 -0.108,1.152 -0.27333,1.66933 -0.244,0.73334 -0.73333,1.456 -1.46533,1.77867 -0.54667,0.23333 -1.14267,0.10667 -1.62134,-0.20533 0.0293,-1.07467 -0.14666,-2.21734 -0.352,-3.24267" />
    </g>
  </g>
</svg>
