<svg xmlns="http://www.w3.org/2000/svg" width="500" height="277" viewBox="0 0 500 277" version="1.1">
	<path d="M 378.212 2.016 C 375.899 3.052, 372.093 5.210, 369.754 6.813 C 367.414 8.415, 363.587 10.697, 361.250 11.883 C 358.913 13.070, 357 14.391, 357 14.819 C 357 15.498, 358.378 16.462, 366 21.121 C 367.247 21.883, 367.036 22.386, 364.750 24.102 C 361.729 26.370, 361.366 28.013, 363.228 30.993 C 364.241 32.615, 364.123 33.531, 362.553 36.229 C 361.507 38.028, 360.370 39.725, 360.027 40 C 359.684 40.275, 358.402 41.935, 357.177 43.689 C 354.955 46.871, 354.944 46.875, 351.922 45.189 C 348.976 43.546, 348.840 43.564, 346.947 45.861 C 345.876 47.159, 345 49.072, 345 50.111 C 345 53.775, 341.492 52.192, 339.212 47.500 C 337.400 43.770, 336.553 43.003, 334.263 43.015 C 332.743 43.024, 330.838 43.450, 330.028 43.962 C 328.767 44.759, 328.803 44.987, 330.278 45.553 C 331.225 45.917, 332 46.686, 332 47.262 C 332 47.838, 331.212 47.618, 330.250 46.771 C 322.728 40.159, 294.705 32.645, 277.500 32.628 C 268.562 32.619, 266.336 33.015, 256.541 36.352 C 234.446 43.878, 220.632 53.274, 215 64.610 L 212.500 69.642 208.011 67.668 C 204.292 66.033, 200.088 65.561, 183.511 64.914 C 172.505 64.484, 161.925 63.819, 160 63.436 C 152.798 62.003, 138 52.619, 138 49.484 C 138 47.855, 134.837 42.284, 130.248 35.829 C 125.431 29.055, 119.430 27.232, 97.500 25.878 C 82.704 24.964, 63.398 25.269, 62.233 26.434 C 62.019 26.647, 64.467 28.754, 67.672 31.115 C 70.878 33.476, 74.271 36.379, 75.214 37.565 C 76.156 38.752, 80.656 42.533, 85.214 45.967 C 89.771 49.401, 93.912 52.951, 94.415 53.855 C 95.728 56.217, 97.251 57.032, 99.212 56.422 C 101.720 55.642, 104.389 57.387, 112.983 65.424 C 117.220 69.386, 122.219 73.248, 124.093 74.006 C 129.640 76.251, 149.329 87.083, 151.564 89.120 C 152.700 90.154, 154.374 91, 155.284 91 C 157.200 91, 164.410 94.538, 167.885 97.184 C 169.606 98.495, 169.831 99, 168.694 99 C 167.827 99, 166.840 98.550, 166.500 98 C 165.069 95.685, 160.379 97.028, 156.899 100.750 C 150.732 107.345, 150.821 107.080, 152.394 114.121 C 153.177 117.630, 154.123 123.569, 154.496 127.321 L 155.174 134.142 152.266 132.637 C 150.666 131.810, 145.564 127.966, 140.929 124.094 C 135.179 119.293, 129.957 115.970, 124.500 113.640 C 111.415 108.053, 111.291 108.188, 120.781 117.675 C 130.031 126.922, 138.184 136.700, 134.394 134 C 133.236 133.175, 130.086 130.802, 127.394 128.727 C 112.200 117.013, 89.971 111.166, 71.115 113.923 C 39.388 118.562, 13.219 142.136, 4.426 174 C 2.007 182.769, 1.965 201.839, 4.344 211.500 C 6.681 220.990, 13.800 235.192, 19.933 242.599 C 33.872 259.434, 60.447 270.141, 84.500 268.612 C 104.060 267.369, 119.878 259.883, 134.745 244.834 C 143.817 235.651, 148.157 229.232, 152.342 218.811 C 154.151 214.308, 156.231 210.423, 156.965 210.178 C 157.923 209.859, 157.834 210.398, 156.650 212.089 C 154.355 215.365, 154.591 219.426, 157.250 222.430 C 158.488 223.828, 164.026 227.413, 169.557 230.397 L 179.614 235.821 201.557 236.425 C 213.626 236.757, 231.884 237.530, 242.132 238.143 C 255.652 238.951, 262.100 238.956, 265.632 238.162 C 273.503 236.393, 337.452 236.645, 347.701 238.486 C 352.904 239.420, 352.330 241.706, 354.980 209.481 C 358.160 170.800, 359.131 166.816, 367.394 158.554 C 373.117 152.831, 374.999 152.680, 371.189 158.250 C 363.856 168.969, 360.961 178.202, 360.294 193 C 359.867 202.472, 360.143 206.036, 361.859 213.209 C 369.257 244.125, 390.907 265.453, 422.699 273.142 C 445.541 278.666, 462.682 273.566, 480.088 256.067 C 493.503 242.581, 499.016 229.442, 498.983 211.040 C 498.942 188.491, 491.988 172.192, 475.095 155.046 C 469.923 149.796, 465.779 144.940, 465.888 144.256 C 466.216 142.183, 454.163 135.138, 445.728 132.474 C 441.367 131.096, 433.331 129.461, 427.872 128.840 C 417.977 127.715, 417.954 127.706, 420.723 126.042 C 422.250 125.124, 428.563 122.181, 434.750 119.502 C 440.938 116.823, 446 114.305, 446 113.907 C 446 113.509, 448.066 110.648, 450.590 107.548 C 453.312 104.207, 454.949 101.308, 454.611 100.428 C 454.208 99.379, 454.922 98.766, 457.041 98.342 C 458.691 98.012, 460.292 97.337, 460.597 96.842 C 461.498 95.384, 456.294 82.885, 451.648 75.350 C 440.800 57.754, 413.842 26.848, 394.952 10.350 C 389.379 5.483, 384.278 1.193, 383.618 0.817 C 382.957 0.441, 380.525 0.981, 378.212 2.016 M 390.948 51.382 C 390.701 51.626, 390.652 54.816, 390.838 58.471 C 391.150 64.608, 391.380 65.194, 393.838 66.135 C 395.674 66.838, 397.630 66.817, 400.141 66.069 C 403.292 65.131, 403.838 64.513, 404.191 61.488 C 404.515 58.713, 404.073 57.501, 402.050 55.624 C 400.647 54.323, 398.304 52.977, 396.843 52.633 C 395.381 52.290, 393.558 51.768, 392.791 51.473 C 392.023 51.179, 391.194 51.138, 390.948 51.382 M 385.543 55.931 C 385.226 56.443, 385.425 57.144, 385.984 57.490 C 386.543 57.835, 387 57.416, 387 56.559 C 387 54.802, 386.400 54.544, 385.543 55.931 M 211.580 142.190 C 210.008 144.433, 210.126 145.658, 211.813 144.616 C 212.726 144.052, 214.174 140, 213.463 140 C 213.271 140, 212.423 140.985, 211.580 142.190 M 68.643 146.028 C 65.734 146.900, 62 149.717, 62 151.040 C 62 152.549, 71.304 163, 72.647 163 C 74.531 163, 75.580 159.843, 76.385 151.750 L 77.056 145 74.278 145.086 C 72.750 145.133, 70.214 145.557, 68.643 146.028 M 80.416 146.136 C 80.029 146.761, 79.493 150.352, 79.224 154.117 C 78.544 163.611, 80.070 164.002, 88.251 156.429 C 95.063 150.122, 96.156 147.051, 92 145.895 C 87.948 144.768, 81.174 144.909, 80.416 146.136 M 186.250 148.250 C 186.479 148.938, 187.267 149.500, 188 149.500 C 188.733 149.500, 189.521 148.938, 189.750 148.250 C 189.998 147.506, 189.289 147, 188 147 C 186.711 147, 186.002 147.506, 186.250 148.250 M 180.500 149 C 180.840 149.550, 181.316 150, 181.559 150 C 181.802 150, 182 149.550, 182 149 C 182 148.450, 181.523 148, 180.941 148 C 180.359 148, 180.160 148.450, 180.500 149 M 53.194 152.023 C 47.731 155.354, 41.258 162.730, 38.028 169.305 C 34.987 175.495, 31.493 189.235, 32.374 191.533 C 32.631 192.202, 34.902 193.031, 37.420 193.375 C 39.939 193.719, 43.913 194.256, 46.250 194.568 L 50.500 195.137 50.748 189.818 C 51.102 182.254, 55.854 172.967, 61.626 168.560 C 64.099 166.671, 66.658 164.941, 67.312 164.715 C 68.909 164.162, 59.049 149.991, 57.076 150.004 C 56.759 150.006, 55.012 150.915, 53.194 152.023 M 435 167.453 C 435 167.702, 435.522 169.052, 436.161 170.453 C 437.423 173.223, 439 173.850, 439 171.582 C 439 170.802, 439.273 169.452, 439.607 168.582 C 440.065 167.389, 439.573 167, 437.607 167 C 436.173 167, 435 167.204, 435 167.453 M 392.967 171.540 C 392.416 172.204, 392.198 173.479, 392.483 174.373 C 394.156 179.636, 393.887 179.455, 396.455 177.042 C 398.428 175.189, 398.677 174.385, 397.845 172.559 C 396.732 170.117, 394.530 169.657, 392.967 171.540 M 452.445 175.283 C 451.376 178.070, 452.434 180.488, 454.876 180.835 C 458.767 181.388, 459.247 179.611, 456.036 176.535 C 453.542 174.145, 452.960 173.942, 452.445 175.283 M 62.166 181.250 C 59.719 185.230, 58.285 192, 59.889 192 C 60.862 192, 61.459 189.959, 61.126 187.772 C 61.065 187.372, 62.151 185.009, 63.540 182.522 C 66.409 177.383, 65.219 176.282, 62.166 181.250 M 457.273 183.026 C 455.070 183.909, 455.091 183.986, 459.213 189.959 C 463.560 196.259, 466 197.608, 466 193.712 C 466 191.039, 461.961 182.707, 460.500 182.367 C 459.950 182.239, 458.498 182.536, 457.273 183.026 M 453.022 186.074 C 453.066 188.917, 456.940 196, 458.451 196 C 460.692 196, 460.410 195.070, 456.500 189.571 C 454.575 186.863, 453.010 185.290, 453.022 186.074 M 34.250 195.640 C 32.583 196.342, 32.674 199.539, 34.539 205.818 C 35.480 208.987, 36.644 211, 37.535 211 C 38.337 211, 41.695 209.088, 44.997 206.750 C 52.039 201.765, 52.592 199.178, 47 197.370 C 42.367 195.872, 35.809 194.982, 34.250 195.640 M 448.035 198.691 C 448.016 199.896, 448.480 201.179, 449.067 201.541 C 450.791 202.607, 450.934 201.673, 449.454 198.998 C 448.120 196.589, 448.070 196.578, 448.035 198.691 M 109 199.019 C 109 199.624, 110.117 199.770, 111.750 199.378 C 115.676 198.437, 115.808 198, 112.167 198 C 110.425 198, 109 198.459, 109 199.019 M 157.690 198.750 C 157.455 199.162, 156.973 201.110, 156.618 203.079 C 155.980 206.622, 156.005 206.653, 159.092 206.200 C 161.482 205.849, 162.536 204.962, 163.605 202.403 C 164.372 200.567, 165 198.825, 165 198.532 C 165 197.703, 158.171 197.907, 157.690 198.750 M 302.192 205.312 C 299.822 207.044, 298.329 208.610, 298.874 208.791 C 300.285 209.262, 305.165 206.580, 307.407 204.102 C 310.325 200.879, 307.295 201.581, 302.192 205.312 M 461.583 204.335 C 460.033 206.819, 458.657 222.330, 460.064 221.460 C 462.122 220.188, 466.033 212.039, 466.612 207.816 C 467.167 203.767, 467.007 203.235, 465.083 202.732 C 463.569 202.336, 462.535 202.810, 461.583 204.335 M 116.724 206.670 C 112.796 209.465, 112.694 211, 116.438 211 C 118.078 211, 119.125 210.112, 120.013 207.968 C 120.704 206.300, 121.072 204.739, 120.831 204.498 C 120.590 204.257, 118.742 205.234, 116.724 206.670 M 47.777 208.352 C 42.503 211.595, 40 214.049, 40 215.975 C 40 218.114, 46.720 226, 48.543 226 C 50.408 226, 51.406 223.829, 53.457 215.306 C 55.833 205.430, 54.729 204.077, 47.777 208.352 M 451 209 C 451 209.550, 451.450 210, 452 210 C 452.550 210, 453 209.550, 453 209 C 453 208.450, 452.550 208, 452 208 C 451.450 208, 451 208.450, 451 209 M 291.850 210.024 C 290.943 210.554, 287.217 211.327, 283.570 211.743 C 275.731 212.638, 275.134 214.618, 282.818 214.235 C 288.575 213.948, 295 211.741, 295 210.051 C 295 208.764, 294.023 208.756, 291.850 210.024 M 108.250 211.662 C 105.700 212.691, 107.118 213.999, 110.750 213.968 C 114.264 213.938, 114.378 213.844, 112.559 212.468 C 110.506 210.915, 110.229 210.864, 108.250 211.662 M 57.698 212.700 C 57.432 213.140, 56.252 216.635, 55.074 220.466 C 52.967 227.316, 52.963 227.474, 54.820 229.966 C 58.088 234.351, 65.122 236.389, 77 236.392 C 85.564 236.394, 88.561 235.975, 93.254 234.124 C 96.419 232.875, 99.397 231.099, 99.872 230.177 C 100.884 228.214, 98.961 221.820, 97.180 221.227 C 96.482 220.994, 96.231 221.439, 96.567 222.315 C 97.624 225.067, 95.032 225.131, 86.604 222.560 C 81.988 221.152, 77.095 220, 75.731 220 C 72.043 220, 65.419 217.421, 61.574 214.489 C 59.707 213.065, 57.963 212.260, 57.698 212.700 M 272 213 C 272 213.550, 272.477 214, 273.059 214 C 273.641 214, 273.840 213.550, 273.500 213 C 273.160 212.450, 272.684 212, 272.441 212 C 272.198 212, 272 212.450, 272 213 M 402.724 212.609 C 402.184 213.149, 404.768 217.344, 409.688 223.917 C 409.860 224.146, 410.297 224.036, 410.661 223.673 C 411.024 223.310, 410.493 222.098, 409.482 220.980 C 408.470 219.862, 406.689 217.368, 405.524 215.437 C 404.359 213.507, 403.099 212.234, 402.724 212.609 M 446.615 213.561 C 446.216 214.601, 446.466 215.672, 447.216 216.138 C 448.845 217.150, 449.426 215.583, 448.220 213.428 C 447.377 211.922, 447.240 211.933, 446.615 213.561 M 395 214.500 C 395 215.325, 395.395 216, 395.878 216 C 396.360 216, 397.315 215.325, 398 214.500 C 399.040 213.247, 398.896 213, 397.122 213 C 395.902 213, 395 213.638, 395 214.500 M 397.975 216.530 C 396.330 218.512, 397.646 221.495, 402.570 226.946 C 406.706 231.524, 407.505 231.793, 408.951 229.091 C 409.785 227.533, 409.149 226.064, 405.488 221.091 C 403.022 217.741, 400.608 215, 400.125 215 C 399.641 215, 398.674 215.688, 397.975 216.530 M 107.500 217.674 C 100.836 218.506, 100.246 218.836, 100.747 221.454 C 101.888 227.425, 107.076 227.217, 111.998 221.003 C 115.514 216.564, 115.641 216.658, 107.500 217.674 M 469.750 221.668 C 466.569 226.823, 466.322 228.277, 468.708 227.818 C 469.753 227.616, 470.918 225.752, 471.712 223.009 C 473.505 216.816, 472.971 216.451, 469.750 221.668 M 418 218.393 C 418 218.609, 418.698 219.054, 419.552 219.382 C 420.442 219.723, 420.843 219.555, 420.493 218.989 C 419.906 218.038, 418 217.583, 418 218.393 M 432 224.500 C 432.685 225.325, 433.640 226, 434.122 226 C 434.605 226, 435 225.325, 435 224.500 C 435 223.638, 434.098 223, 432.878 223 C 431.104 223, 430.960 223.247, 432 224.500 M 428 225.500 C 428 226.325, 428.730 227, 429.622 227 C 430.951 227, 431.020 226.729, 430 225.500 C 429.315 224.675, 428.585 224, 428.378 224 C 428.170 224, 428 224.675, 428 225.500 M 416 229 C 416 229.550, 416.477 230, 417.059 230 C 417.641 230, 417.840 229.550, 417.500 229 C 417.160 228.450, 416.684 228, 416.441 228 C 416.198 228, 416 228.450, 416 229 M 270.405 231.858 C 272.443 234.150, 273 234.446, 273 233.241 C 273 232.823, 271.988 231.859, 270.750 231.099 C 268.508 229.722, 268.507 229.724, 270.405 231.858 M 459 232.479 C 457.075 233.802, 454.938 234.911, 454.250 234.942 C 453.563 234.974, 453 235.472, 453 236.050 C 453 238.131, 456.081 243, 457.398 243 C 459.452 243, 467.173 234.137, 466.804 232.203 C 466.318 229.653, 462.937 229.773, 459 232.479 M 409.500 233 C 409.160 233.550, 409.359 234, 409.941 234 C 410.523 234, 411 233.550, 411 233 C 411 232.450, 410.802 232, 410.559 232 C 410.316 232, 409.840 232.450, 409.500 233 M 414 233.922 C 414 236.984, 425.262 239.692, 431.874 238.220 L 435.247 237.470 428.245 234.735 C 419.723 231.406, 414 231.080, 414 233.922 M 443.750 241.749 C 437.014 245.886, 435.938 249.004, 441.250 248.994 C 445.872 248.986, 452.019 247.114, 452.628 245.528 C 453.055 244.413, 450.450 237.756, 449.724 238.109 C 449.601 238.169, 446.913 239.807, 443.750 241.749" fill="none" stroke="#000" stroke-width="2px" fill-rule="evenodd"/>
</svg>
