<svg xmlns="http://www.w3.org/2000/svg" width="1920" height="942" viewBox="0 0 1920 942" version="1.1">
	<path d="M 884 173.011 C 830.321 175.094, 796.238 181.831, 777.500 194.063 C 768.096 200.203, 761.991 207.352, 750.659 225.500 C 741.852 239.603, 715.667 275.118, 692.949 303.772 C 685.889 312.678, 681.940 316.815, 679.802 317.548 C 675.997 318.852, 673.327 322.070, 672.019 326.929 C 671.078 330.423, 670.619 330.778, 665.024 332.334 C 661.730 333.249, 650.140 335.135, 639.268 336.523 C 628.395 337.911, 610.050 340.592, 598.500 342.479 C 579.620 345.564, 574.269 346.015, 545.500 346.940 C 510.039 348.080, 506.875 348.223, 455.500 351.004 C 435.700 352.075, 410.050 353.440, 398.500 354.036 C 348.823 356.598, 303.091 361.117, 278.500 365.891 C 230.736 375.165, 211.989 380.975, 179 396.726 C 163.936 403.918, 144.532 416.309, 134.950 424.854 C 131.846 427.622, 124.873 436.265, 119.125 444.467 C 106.991 461.784, 95.508 484.755, 90.866 501 C 87.982 511.093, 87.831 512.624, 86.981 540.500 C 86.494 556.450, 86.075 570.477, 86.048 571.672 C 86.010 573.371, 84.466 574.550, 78.942 577.096 C 72.095 580.252, 67 584.707, 67 587.538 C 67 589.415, 70.816 592.941, 74.617 594.575 C 76.799 595.513, 77.911 596.803, 78.325 598.876 C 79.002 602.260, 83.913 608.245, 87.989 610.652 C 90.392 612.072, 90.837 613.100, 91.392 618.519 C 92.436 628.712, 97.729 644.514, 105.555 660.803 C 113.051 676.404, 116.582 682.025, 125.336 692.295 C 131.796 699.874, 145.588 707, 153.796 707 C 157.561 707, 159 707.383, 159 708.384 C 159 710.628, 166.767 728.721, 172.253 739.256 C 177.964 750.222, 190.841 767.064, 199.051 774.306 C 202.048 776.949, 207.529 781.140, 211.230 783.620 C 214.932 786.099, 218.206 788.524, 218.506 789.010 C 219.369 790.407, 212.545 791.967, 198.546 793.573 C 171.022 796.730, 158.170 801.290, 161.577 806.690 C 162.616 808.338, 164.564 809.176, 170.307 810.446 C 172.504 810.932, 172.982 811.481, 172.509 812.972 C 171.469 816.249, 174.732 817.051, 184.627 815.953 C 189.507 815.412, 194.175 814.717, 195 814.410 C 195.825 814.103, 203.401 814.428, 211.836 815.133 C 223.858 816.137, 227.618 816.801, 229.239 818.207 C 230.945 819.687, 233.147 820, 241.843 820 C 247.638 820, 254.945 819.470, 258.082 818.822 C 264.236 817.551, 262.788 817.305, 288.500 823.998 C 294.550 825.573, 312.212 829.231, 327.750 832.128 C 343.288 835.025, 356 837.703, 356 838.080 C 356 838.457, 349.137 840.457, 340.750 842.526 C 323.877 846.686, 321.259 847.659, 322.795 849.195 C 324.588 850.988, 353.961 847.060, 366.874 843.300 C 372.945 841.533, 383.810 842.061, 389.281 844.390 C 392.951 845.951, 392.155 846.495, 384.750 847.487 C 380.269 848.086, 378.856 849.175, 380.910 850.444 C 381.410 850.753, 389.847 852.164, 399.660 853.579 C 409.472 854.995, 417.928 856.568, 418.450 857.076 C 418.973 857.584, 420.998 857.997, 422.950 857.993 C 424.903 857.990, 440.153 859.644, 456.841 861.670 L 487.181 865.353 495.341 862.778 C 502.948 860.377, 504.108 860.269, 512.500 861.184 C 526.859 862.750, 526.060 864.373, 508.938 868.420 C 498.220 870.952, 495.790 872.190, 497.729 874.129 C 500.076 876.476, 533.955 871.339, 552 865.900 C 554.477 865.154, 558.277 865.170, 565 865.957 C 570.225 866.568, 575.625 867.100, 577 867.138 C 583.673 867.324, 641.736 871.262, 658.500 872.666 C 668.950 873.541, 683.318 874.554, 690.430 874.917 C 698.146 875.311, 703.503 876.009, 703.716 876.647 C 703.912 877.235, 704.695 878.568, 705.456 879.608 C 706.712 881.324, 708.035 881.471, 719.670 881.192 C 730.515 880.931, 733.556 881.211, 739.324 883.005 C 745.142 884.813, 746.299 885.560, 747.174 888.069 C 748.501 891.875, 750.861 892.403, 761.163 891.198 C 770.755 890.077, 810.123 890.698, 814.306 892.037 C 815.977 892.572, 820.225 892.560, 824.806 892.007 C 829.038 891.497, 842.850 890.346, 855.500 889.450 C 884.319 887.407, 893.585 886.062, 913 881.103 C 921.525 878.925, 931.650 876.610, 935.500 875.958 C 939.350 875.305, 951.725 872.545, 963 869.824 C 974.275 867.102, 999.025 861.124, 1018 856.540 C 1036.975 851.955, 1069.825 844.799, 1091 840.638 C 1112.175 836.476, 1131.419 832.606, 1133.764 832.036 C 1136.110 831.466, 1140.478 831, 1143.471 831 C 1146.722 831, 1161.782 827.992, 1180.888 823.526 C 1261.425 804.702, 1315.355 792.501, 1348.963 785.501 C 1369.018 781.325, 1408.618 773.010, 1436.963 767.025 C 1465.308 761.040, 1499.525 753.831, 1513 751.004 C 1526.475 748.177, 1546.478 743.424, 1557.450 740.440 C 1568.423 737.457, 1584.398 733.574, 1592.950 731.812 C 1603.875 729.561, 1609.642 727.865, 1612.341 726.111 C 1614.997 724.384, 1624.100 721.663, 1641.841 717.294 C 1674.599 709.225, 1686.217 706.117, 1706.581 699.975 C 1718.076 696.509, 1724.811 695.001, 1728.790 695.003 C 1731.930 695.005, 1739.675 694.120, 1746 693.037 C 1752.325 691.953, 1762.179 690.362, 1767.898 689.501 C 1789.879 686.192, 1833 672.711, 1833 669.148 C 1833 668.693, 1831.767 667.759, 1830.260 667.073 C 1827.616 665.868, 1827.588 665.775, 1829.451 664.412 C 1830.513 663.635, 1831.902 663, 1832.536 663 C 1833.171 663, 1834.514 662.089, 1835.521 660.976 C 1838.625 657.547, 1836.155 656.539, 1823.703 656.151 C 1808.539 655.678, 1789.982 657.531, 1775.500 660.964 C 1757.598 665.207, 1752.848 665.458, 1734 663.161 C 1724.925 662.055, 1713.225 660.891, 1708 660.575 C 1699.342 660.051, 1670.689 655.022, 1669.481 653.814 C 1669.202 653.535, 1669.653 651.681, 1670.484 649.693 C 1672.869 643.985, 1679.065 620.428, 1680.923 610.008 L 1682.615 600.515 1686.057 599.845 C 1687.951 599.476, 1690.412 598.884, 1691.527 598.529 C 1693.233 597.986, 1693.892 598.684, 1695.691 602.942 C 1697.323 606.804, 1698.340 608, 1699.993 608 C 1703.249 608, 1728.584 598.322, 1736 594.245 C 1755.333 583.618, 1766.914 569.825, 1777.102 545.292 C 1781.842 533.878, 1783.511 528.206, 1785.047 518.299 L 1786.164 511.098 1791.332 508.171 C 1798.453 504.138, 1800.476 501.759, 1799.050 499.094 C 1798.440 497.953, 1796.492 496.287, 1794.720 495.391 C 1788.545 492.266, 1787.076 489.421, 1787.033 480.500 C 1786.968 466.904, 1782.114 452.167, 1769.222 426.422 C 1760.810 409.623, 1758.719 402.773, 1759.296 393.904 C 1759.861 385.218, 1760.973 382.643, 1768.970 371.500 C 1777.050 360.241, 1777.589 358.140, 1774.997 347.986 C 1773.844 343.473, 1773.036 338.368, 1773.201 336.640 L 1773.500 333.500 1764 333.749 C 1758.775 333.886, 1750 333.352, 1744.500 332.562 C 1727.477 330.115, 1723.944 329.894, 1701.899 329.886 C 1661.936 329.872, 1616.637 333.204, 1557.102 340.538 L 1545.704 341.942 1534.102 338.053 C 1508.382 329.431, 1434.247 318.667, 1341.111 310.032 C 1335.005 309.466, 1332.475 308.814, 1331.816 307.636 C 1330.064 304.505, 1324.443 299.924, 1319.139 297.304 C 1314.975 295.248, 1312.396 294.678, 1307.588 294.751 C 1299.734 294.870, 1289.401 298.290, 1285.452 302.077 C 1282.593 304.820, 1281.901 305, 1274.250 305 L 1266.096 305 1259.998 292.250 C 1251.192 273.839, 1242.292 258.408, 1238.123 254.324 C 1234.263 250.543, 1234.110 250.386, 1218 233.690 C 1204.753 219.961, 1197.982 215.230, 1180.500 207.487 C 1156.751 196.967, 1142.145 192.758, 1111.306 187.548 C 1102.950 186.136, 1095.525 184.770, 1094.806 184.512 C 1089.766 182.704, 1021.029 176.088, 986.500 174.087 C 962.510 172.697, 907.088 172.115, 884 173.011 M 407.808 741.750 C 404.848 745.200, 399.817 753.150, 400.292 753.626 C 400.559 753.892, 408.365 752.954, 417.639 751.541 C 426.912 750.127, 436.970 748.634, 439.989 748.223 C 443.916 747.688, 445.568 747.004, 445.797 745.817 C 446.054 744.480, 444.991 744.037, 440.308 743.532 C 437.114 743.188, 429.081 742.252, 422.457 741.453 C 415.834 740.654, 410.166 740, 409.862 740 C 409.559 740, 408.634 740.788, 407.808 741.750" fill="none" stroke="#000" stroke-width="2px" fill-rule="evenodd"/>
</svg>
