<svg xmlns="http://www.w3.org/2000/svg" width="500" height="243" viewBox="0 0 500 243" version="1.1">
	<path d="M 390.250 4.706 C 389.012 4.944, 387.963 5.670, 387.918 6.320 C 387.601 10.886, 387.958 21.782, 388.467 23.084 C 389.437 25.563, 388.616 40.985, 387.500 41.257 C 386.950 41.390, 386.072 39.766, 385.549 37.647 C 384.943 35.194, 383.437 32.910, 381.403 31.358 L 378.209 28.922 375.209 31.711 C 372.508 34.223, 371.793 36.137, 370.721 43.736 C 370.662 44.156, 371.938 44.745, 373.557 45.044 L 376.500 45.588 373 47.209 C 371.075 48.101, 367.250 49.137, 364.500 49.511 C 361.750 49.886, 356.852 51.305, 353.615 52.665 C 350.292 54.062, 344.696 55.393, 340.760 55.723 L 333.790 56.308 334.145 47.206 L 334.500 38.104 328.068 37.416 C 324.530 37.038, 317.439 36.978, 312.311 37.284 C 304.773 37.734, 302.366 37.521, 299.744 36.170 C 297.301 34.913, 294.029 34.524, 286.500 34.598 C 273.890 34.721, 268.850 36.314, 267.592 40.577 L 266.684 43.654 257.402 43.729 C 252.297 43.770, 246.406 44.093, 244.310 44.447 L 240.500 45.089 240.500 53.295 C 240.500 61.091, 240.385 61.516, 238.205 61.825 C 235.528 62.205, 228.117 56.059, 226.432 52.062 C 225.395 49.604, 225.327 49.587, 224.155 51.514 C 223.079 53.282, 222.977 53.116, 223.223 50 L 223.500 46.500 218.248 46.500 C 214.793 46.500, 212.946 46.073, 212.848 45.250 C 212.767 44.563, 212.655 43.438, 212.600 42.750 C 212.446 40.829, 211.229 40.313, 207.977 40.790 C 205.888 41.097, 205 41.786, 205 43.102 C 205 44.875, 203.976 44.968, 186.250 44.813 C 175.938 44.722, 166.483 44.984, 165.239 45.395 C 163.283 46.041, 162.895 45.727, 162.364 43.071 C 161.850 40.498, 161.284 40, 158.875 40 C 156.277 40, 156 40.325, 156 43.371 L 156 46.742 148.750 47.421 C 139.031 48.332, 138.100 48.667, 138.719 51.035 C 139.153 52.692, 138.705 53.012, 135.867 53.077 C 131.406 53.178, 130.259 53.427, 122.287 56.021 C 110.376 59.898, 100.897 67.448, 98.514 74.956 C 97.802 77.199, 97.829 77.204, 107.535 76.853 C 117.037 76.508, 117.291 76.557, 118.157 78.895 C 119.384 82.211, 118.758 82.473, 113.279 80.934 C 106.820 79.121, 98.489 79.484, 91.927 81.863 C 81.181 85.761, 75.255 86.894, 60.170 87.939 C 51.739 88.522, 43.414 88.999, 41.670 88.998 L 38.500 88.996 38.810 99.848 L 39.119 110.700 32.310 111.343 C 28.564 111.696, 22.125 111.989, 18 111.992 L 10.500 111.999 10.500 115.656 C 10.500 117.688, 9.944 119.503, 9.250 119.740 C 8.494 119.998, 8 119.278, 8 117.917 C 8 116.679, 7.743 115.924, 7.429 116.238 C 7.114 116.552, 6.836 124.055, 6.811 132.910 C 6.778 144.508, 7.120 149.439, 8.034 150.541 C 9.085 151.807, 8.934 152.413, 7.151 154.074 C 4.792 156.272, 4.101 163.701, 6.073 165.673 C 6.838 166.438, 6.406 166.932, 4.573 167.392 C 1.533 168.155, 1.127 170, 4 170 C 6.981 170, 6.891 176.534, 3.899 177.316 C 0.281 178.262, 2.895 180, 7.936 180 L 12.754 180 12.247 175.500 C 11.862 172.082, 12.074 171, 13.129 171 C 15.310 171, 17.211 174.737, 16.093 176.827 C 15.512 177.912, 15.497 179.172, 16.054 180.054 C 16.558 180.849, 16.976 183.188, 16.985 185.250 C 16.993 187.313, 17.450 189, 18 189 C 18.550 189, 19 188.044, 19 186.875 C 19 185.018, 19.403 184.831, 22.200 185.390 C 23.960 185.742, 25.648 186.394, 25.950 186.838 C 26.253 187.282, 27.287 187.936, 28.250 188.292 C 29.212 188.647, 30 189.442, 30 190.058 C 30 191.150, 24.196 190.988, 6.250 189.395 L 0 188.841 0 195.420 C 0 201.103, 0.247 202, 1.810 202 C 3.440 202, 144.266 215.428, 222.500 223.043 C 263.767 227.060, 477.492 243, 490.083 243 L 500 243 500 232.572 L 500 222.144 494.750 221.578 C 491.863 221.267, 478.700 220.331, 465.500 219.496 C 452.300 218.662, 439.779 217.714, 437.676 217.389 L 433.852 216.799 438.434 212.408 C 443.011 208.023, 443.020 208.020, 445.009 210.009 C 446.104 211.104, 447.873 212, 448.941 212 C 450.009 212, 451.160 212.450, 451.500 213 C 452.263 214.235, 456 214.332, 456 213.117 C 456 212.631, 456.900 211.998, 458 211.710 C 460.551 211.043, 460.637 208, 458.105 208 C 456.631 208, 456.127 207.129, 455.836 204.079 C 455.376 199.251, 455.169 199.309, 476.049 198.367 C 484.313 197.994, 491.321 197.289, 491.623 196.801 C 493.003 194.568, 489.600 193, 483.378 193 C 477.667 193, 477 192.791, 477 191 C 477 189.561, 477.667 189, 479.375 189 C 483.008 189, 488 187.840, 488 186.996 C 488 185.852, 483.523 184.419, 472.500 182.036 C 467 180.847, 460.757 179.418, 458.627 178.860 C 454.512 177.783, 445.380 178.577, 444.442 180.094 C 443.108 182.252, 434 180.151, 434 177.685 C 434 176.638, 440.155 175.982, 454 175.554 C 468.463 175.108, 472 174.505, 472 172.490 C 472 170.807, 474.287 170, 479.059 170 C 482.110 170, 483.309 170.542, 484.592 172.500 C 487.056 176.260, 492.423 176.016, 494.474 172.050 C 499.543 162.248, 491.431 149.551, 485.179 157.500 C 483.545 159.577, 482.358 160, 478.165 160 C 475.389 160, 472.890 159.630, 472.610 159.178 C 471.967 158.138, 475.567 155, 477.404 155 C 478.164 155, 479.045 154.325, 479.362 153.500 C 479.794 152.373, 479.194 152, 476.947 152 C 474.788 152, 473.699 151.375, 473.029 149.750 C 471.894 147.001, 470 132.314, 470 126.268 C 470 122.592, 469.707 121.914, 468.250 122.215 C 466.386 122.600, 466.337 123.093, 467.434 130.406 C 468.119 134.973, 468.081 135.067, 466.069 133.811 C 464.931 133.100, 464 132.007, 464 131.382 C 464 130.757, 463.312 129.674, 462.470 128.975 C 460.474 127.319, 456.024 129.196, 455.945 131.729 C 455.914 132.703, 454.585 134.530, 452.990 135.788 C 450.366 137.859, 449.211 138.049, 440.796 137.788 L 431.500 137.500 431.187 133.146 C 430.912 129.312, 431.288 128.379, 434.329 125.337 C 438.708 120.959, 443.381 112.097, 445.054 105 C 447.176 96, 446.785 81.679, 444.187 73.267 C 438.658 55.365, 429.585 46.423, 415.590 45.083 L 409.500 44.500 409.212 34.571 C 409.053 29.110, 409.217 23.935, 409.576 23.071 C 410.873 19.951, 410.328 5.822, 408.875 4.902 C 407.497 4.029, 394.476 3.892, 390.250 4.706 M 381.638 45.500 C 381.955 46.325, 382.616 47, 383.107 47 C 383.598 47, 384 46.325, 384 45.500 C 384 44.675, 383.339 44, 382.531 44 C 381.637 44, 381.288 44.586, 381.638 45.500 M 162.704 76.330 C 162.405 77.108, 161.849 79.827, 161.467 82.372 C 160.911 86.082, 161.063 87, 162.235 87 C 164.378 87, 167.652 79.257, 166.369 77.224 C 164.983 75.026, 163.356 74.629, 162.704 76.330 M 130.750 76.794 C 128.167 77.112, 128 77.433, 128 82.066 C 128 86.611, 128.190 87, 130.406 87 C 132.539 87, 132.891 86.425, 133.509 81.936 C 133.892 79.151, 134.047 76.778, 133.853 76.664 C 133.659 76.550, 132.262 76.608, 130.750 76.794 M 141.250 79.706 C 139.678 80.008, 139 80.847, 139 82.488 C 139 86.758, 140.038 88, 143.607 88 C 146.962 88, 147 87.949, 147 83.500 C 147 78.747, 146.826 78.632, 141.250 79.706 M 8 131.083 C 8 137.902, 8.312 140.064, 9.250 139.756 C 10.953 139.197, 11.509 134, 9.866 134 C 8.881 134, 8.867 133.733, 9.800 132.800 C 11.627 130.973, 11.378 122, 9.500 122 C 8.277 122, 8 123.676, 8 131.083 M 458.565 130.895 C 458.260 131.388, 458.669 132.043, 459.474 132.352 C 461.036 132.951, 462.371 131.704, 461.306 130.639 C 460.402 129.735, 459.213 129.846, 458.565 130.895 M 435.184 144.750 C 435.440 146.982, 436.065 147.559, 438.500 147.812 C 440.150 147.984, 442.041 148.828, 442.702 149.688 C 444.627 152.192, 447 150.509, 447 146.638 C 447 142.685, 445.870 142, 439.352 142 C 435.049 142, 434.880 142.112, 435.184 144.750 M 466.745 145.588 C 465.670 146.663, 465.827 151, 466.941 151 C 468.372 151, 468.748 149.745, 468.088 147.171 C 467.759 145.891, 467.155 145.178, 466.745 145.588 M 452.195 148.500 C 452.215 150.150, 452.439 150.704, 452.693 149.731 C 452.947 148.758, 452.930 147.408, 452.656 146.731 C 452.382 146.054, 452.175 146.850, 452.195 148.500 M 448.610 184.573 C 448.190 185.669, 448.511 186.048, 449.671 185.823 C 450.586 185.645, 451.522 184.938, 451.750 184.250 C 452.363 182.411, 449.320 182.724, 448.610 184.573 M 465 183.893 C 465 185.213, 467.682 186.010, 471.832 185.924 L 475.500 185.848 472 184.500 C 467.849 182.902, 465 182.654, 465 183.893 M 49.667 187.667 C 49.300 188.033, 49 189.126, 49 190.095 C 49 191.482, 50.179 192.003, 54.546 192.549 C 57.596 192.930, 60.366 192.967, 60.702 192.631 C 61.039 192.295, 60.095 190.890, 58.605 189.510 C 56.055 187.147, 51.190 186.143, 49.667 187.667 M 138.643 190.488 C 138.186 191.679, 136.871 191.851, 132.064 191.349 C 126.181 190.734, 126.035 190.778, 125 193.499 C 124.419 195.027, 124.086 196.420, 124.260 196.593 C 125.086 197.419, 146.228 198.214, 145.880 197.406 C 145.666 196.908, 144.839 194.813, 144.044 192.750 C 142.553 188.882, 139.715 187.694, 138.643 190.488 M 84.069 192.936 C 82.388 194, 85.765 194.664, 96.296 195.341 C 101.098 195.649, 102.981 195.443, 102.714 194.639 C 101.976 192.421, 87.039 191.057, 84.069 192.936 M 162.752 196.908 C 159.393 199.062, 160.119 200, 165.145 200 C 168.848 200, 168.925 199.929, 167.818 197.500 C 166.494 194.595, 166.381 194.581, 162.752 196.908 M 198.405 200.154 C 197.576 201.495, 198.117 201.873, 201.957 202.641 C 204.491 203.148, 205.162 202.987, 204.819 201.956 C 204.251 200.254, 199.217 198.839, 198.405 200.154 M 235.480 203.033 C 235.131 203.597, 236.641 204, 239.108 204 C 243.906 204, 243.966 203.566, 239.289 202.676 C 237.523 202.340, 235.809 202.501, 235.480 203.033 M 446.970 204.944 C 448.640 208.064, 450 208.340, 450 205.559 C 450 203.652, 449.482 203, 447.965 203 C 446.259 203, 446.098 203.315, 446.970 204.944 M 277.631 204.702 C 276.121 206.212, 277.276 207, 281 207 C 283.258 207, 285 206.518, 285 205.893 C 285 205.284, 284.292 205.058, 283.428 205.389 C 282.563 205.721, 281.047 205.560, 280.059 205.032 C 279.071 204.503, 277.979 204.355, 277.631 204.702 M 399.451 206.804 C 398.364 207.567, 396 212.529, 396 214.047 C 396 214.571, 397.355 215, 399.012 215 C 401.991 215, 402.016 214.953, 401.373 210.750 C 400.603 205.727, 400.701 205.927, 399.451 206.804 M 407 210.833 C 407 215.880, 407.068 216, 409.930 216 L 412.859 216 410.261 211.250 C 408.831 208.637, 407.513 206.313, 407.331 206.083 C 407.149 205.854, 407 207.992, 407 210.833 M 358.096 210.385 C 357.177 211.492, 357.477 211.903, 359.591 212.434 C 362.711 213.217, 363.268 212.863, 362.417 210.643 C 361.647 208.637, 359.645 208.518, 358.096 210.385" fill="none" stroke="#000" stroke-width="2px" fill-rule="evenodd"/>
</svg>
