<svg xmlns="http://www.w3.org/2000/svg" width="500" height="280" viewBox="0 0 500 280" version="1.1">
	<path d="M 139 4.689 C 121.926 6.490, 86.603 14.774, 74.323 19.856 C 56.592 27.194, 44.113 39.883, 33.128 61.742 C 20.689 86.493, 12.938 113.428, 9.455 144 C 8.251 154.567, 7.220 159.585, 5.652 162.500 C 3.644 166.232, 3.500 167.909, 3.503 187.500 C 3.507 208.114, 4.135 214.484, 7.626 229.268 C 8.982 235.008, 9.837 236.560, 13.258 239.489 C 15.476 241.387, 18.743 243.420, 20.519 244.006 C 23.596 245.022, 23.724 245.268, 23.277 249.286 C 22.855 253.082, 23.166 253.856, 26.410 257.089 C 30.538 261.203, 46.549 269.850, 55.718 272.919 C 61.020 274.693, 64.381 275, 78.507 275 C 99.518 275, 126.865 273.369, 138.500 271.421 C 143.450 270.592, 148.905 269.699, 150.623 269.436 C 152.341 269.172, 155.941 267.840, 158.623 266.475 C 161.305 265.110, 167.775 262.865, 173 261.485 C 178.821 259.949, 188.890 255.917, 199 251.076 C 208.075 246.730, 222.582 239.792, 231.238 235.657 C 239.893 231.523, 249.118 226.355, 251.738 224.173 C 254.357 221.991, 259.852 218.534, 263.949 216.490 C 268.046 214.446, 272.996 211.524, 274.949 209.996 C 276.902 208.468, 289.300 202.187, 302.500 196.039 C 315.700 189.891, 329.425 183.151, 333 181.062 C 336.575 178.972, 346.250 174.234, 354.500 170.533 C 362.750 166.831, 379.400 159.202, 391.500 153.580 C 403.600 147.957, 415.975 142.269, 419 140.939 C 422.025 139.609, 424.725 138.242, 425 137.901 C 425.275 137.560, 428.425 135.722, 432 133.816 C 435.575 131.910, 438.944 129.371, 439.487 128.175 C 440.030 126.979, 440.930 125.997, 441.487 125.994 C 444.132 125.980, 449.813 123.823, 451.605 122.154 C 452.786 121.053, 455.673 120.094, 458.667 119.806 C 461.551 119.529, 466.911 117.791, 471.116 115.769 C 475.177 113.817, 480.637 111.295, 483.250 110.166 C 485.862 109.036, 488 107.637, 488 107.056 C 488 106.475, 488.337 106.071, 488.750 106.159 C 489.477 106.313, 491.054 105.813, 495.750 103.940 C 497.861 103.098, 498 102.460, 498 93.594 C 498 84.755, 497.842 84.021, 495.547 82.216 C 494.198 81.155, 491.161 79.820, 488.797 79.250 C 486.434 78.681, 482.475 77.666, 480 76.995 C 477.525 76.324, 471.833 75.489, 467.352 75.138 C 461.908 74.712, 458.589 73.950, 457.352 72.843 C 456.333 71.931, 452.575 70.215, 449 69.028 C 443.553 67.220, 440.668 66.921, 431.194 67.185 C 420.512 67.483, 419.795 67.378, 418.194 65.286 C 416.439 62.992, 400.394 58.008, 394.750 58.003 C 393.238 58.001, 392 57.650, 392 57.223 C 392 56.476, 381.642 51.744, 377.500 50.599 C 376.400 50.295, 373.417 49.801, 370.871 49.501 C 368.326 49.201, 362.476 47.738, 357.871 46.250 C 350.576 43.893, 347.765 43.531, 336 43.439 C 328.575 43.380, 321.150 42.877, 319.500 42.320 C 317.850 41.763, 315.938 41.501, 315.250 41.737 C 314.470 42.005, 314 41.232, 314 39.683 C 314 37.544, 313.340 37.044, 309.250 36.077 C 306.637 35.460, 300.900 34.787, 296.500 34.582 C 290.259 34.291, 287.071 33.551, 282 31.215 C 270.293 25.822, 257.918 21.973, 229.500 14.887 C 196.478 6.652, 177.867 3.917, 156.528 4.160 C 148.813 4.248, 140.925 4.486, 139 4.689" fill="none" stroke="#000" stroke-width="2px" fill-rule="evenodd"/>
</svg>
