<svg xmlns="http://www.w3.org/2000/svg" width="500" height="281" viewBox="0 0 500 281" version="1.1">
	<path d="M 337 0.677 C 324.769 1.612, 306.655 4.164, 299.500 5.960 C 294.079 7.321, 284.084 11.651, 268.500 19.390 C 255.850 25.672, 229.412 37.691, 209.750 46.099 C 182.191 57.884, 174 61.787, 174 63.136 C 174 66.603, 165.789 69.866, 164.768 66.805 C 164.506 66.017, 158.587 68.101, 147.435 72.906 C 138.121 76.919, 129.932 80.432, 129.239 80.713 C 128.364 81.066, 128.193 80.653, 128.683 79.361 C 129.582 76.988, 132 74.486, 132 75.929 C 132 78.223, 133.636 76.836, 134.569 73.750 C 135.345 71.184, 135.074 68.921, 133.279 63 C 131.973 58.692, 131.249 54.340, 131.577 52.775 C 132.129 50.141, 132.228 50.103, 134.574 51.640 C 135.908 52.515, 137 53.853, 137 54.615 C 137 55.377, 137.450 56, 138 56 C 139.807 56, 139.047 53.659, 136.313 50.805 C 134.835 49.262, 134.127 48, 134.740 48 C 135.353 48, 137.237 49.678, 138.927 51.728 C 140.731 53.916, 142 54.823, 142 53.924 C 142 53.082, 140.523 50.961, 138.718 49.212 C 134.531 45.153, 129.360 44.135, 108.750 43.314 L 93 42.687 88.002 46.093 C 85.253 47.967, 83.003 50.063, 83.002 50.750 C 82.999 52.689, 83.866 52.267, 87.112 48.750 C 89.896 45.733, 90.204 45.626, 91.424 47.261 C 92.146 48.230, 93.657 48.905, 94.782 48.761 C 96.234 48.576, 100.471 52.093, 109.413 60.909 C 116.336 67.734, 122 73.659, 122 74.076 C 122 74.492, 122.492 74.997, 123.093 75.198 C 123.788 75.429, 123.359 77.265, 121.917 80.234 C 119.673 84.853, 119.481 84.978, 105.182 91.137 C 95.001 95.522, 90.569 97.932, 90.218 99.274 C 89.836 100.734, 89.109 101.051, 87.110 100.631 C 84.035 99.985, 60.061 109.774, 60.023 111.691 C 59.990 113.384, 57.903 114.461, 57.118 113.191 C 56.341 111.933, 29.152 123.330, 27.317 125.683 C 26.666 126.518, 25.702 126.934, 25.176 126.609 C 24.650 126.284, 21.020 127.430, 17.110 129.158 L 10 132.298 10 136.646 C 10 140.569, 9.499 141.477, 4.870 145.938 C 1.319 149.361, -0.065 151.387, 0.370 152.523 C 0.717 153.425, 1 155.252, 1 156.582 C 1 158.333, 1.551 159, 3 159 C 4.692 159, 5 158.333, 5 154.667 C 5 152.283, 5.337 149.996, 5.750 149.583 C 6.162 149.171, 6.500 148.314, 6.500 147.680 C 6.500 147.046, 7.287 146.376, 8.250 146.190 C 9.885 145.875, 9.983 147.592, 9.750 172.596 L 9.500 199.338 12.500 200.148 C 14.150 200.593, 16.850 201.649, 18.500 202.494 C 22.088 204.330, 40.891 208.790, 77.500 216.487 C 92.350 219.609, 111.475 223.693, 120 225.562 C 128.525 227.430, 151.700 232.316, 171.500 236.418 C 191.300 240.520, 222.125 247.035, 240 250.895 C 290.607 261.825, 320.580 266.931, 346 268.951 C 383.140 271.902, 390.935 272.214, 414.500 271.687 C 441.629 271.080, 462.530 269.211, 479 265.918 C 498.078 262.105, 502.249 258.794, 498.197 250.680 C 496.321 246.923, 496.043 244.576, 495.943 231.632 C 495.824 216.106, 494.725 205.086, 493.197 204.092 C 492.337 203.533, 490.824 192.418, 490.870 187 C 490.911 182.236, 488.059 161.067, 487.138 159.288 C 486.628 158.304, 485.226 151.650, 484.023 144.500 C 481.027 126.708, 475.761 102.007, 470.403 80.615 C 467.939 70.778, 466.053 62.358, 466.212 61.905 C 466.665 60.610, 485 69.721, 485 71.241 C 485 71.989, 484.497 73.103, 483.882 73.718 C 483.089 74.511, 482.977 79.508, 483.496 90.918 C 484.216 106.742, 484.264 107, 486.491 107 C 487.736 107, 489.196 106.437, 489.735 105.750 C 491.119 103.984, 492.956 77.229, 492.038 72.208 C 491.618 69.914, 490.718 67.365, 490.036 66.543 C 488.444 64.625, 467.120 52.362, 464.497 51.857 C 462.955 51.560, 461.728 49.131, 459.048 41.071 C 456.028 31.990, 454.948 30.018, 450.544 25.553 C 442.758 17.658, 429.010 12.239, 403.566 7.036 C 381.115 2.445, 351.230 -0.410, 337 0.677 M 103.022 49.986 C 104.620 52.866, 120.941 68.392, 121.638 67.695 C 122.023 67.310, 123.049 67.610, 123.919 68.361 C 124.788 69.111, 126.997 70.008, 128.827 70.353 C 132.129 70.976, 132.150 70.956, 131.533 67.740 C 129.674 58.053, 127.614 50.792, 126.623 50.433 C 126.005 50.209, 120.253 49.676, 113.841 49.249 C 103.579 48.565, 102.283 48.653, 103.022 49.986 M 130.079 51.583 C 130.127 52.748, 130.364 52.985, 130.683 52.188 C 130.972 51.466, 130.936 50.603, 130.604 50.271 C 130.272 49.939, 130.036 50.529, 130.079 51.583 M 123 63 C 123 63.550, 123.477 64, 124.059 64 C 124.641 64, 124.840 63.550, 124.500 63 C 124.160 62.450, 123.684 62, 123.441 62 C 123.198 62, 123 62.450, 123 63" fill="none" stroke="#000" stroke-width="2px" fill-rule="evenodd"/>
</svg>
