<svg xmlns="http://www.w3.org/2000/svg" width="500" height="355" viewBox="0 0 500 355" version="1.1">
	<path d="M 38 8.294 C 38 13.706, 38.412 16.097, 39.500 17 C 40.768 18.053, 41 17.840, 41 15.622 C 41 14.180, 41.390 13, 41.867 13 C 42.343 13, 46.731 16.543, 51.617 20.873 C 56.502 25.204, 71.075 36.931, 84 46.934 C 118.586 73.702, 121.241 75.928, 120.591 77.624 C 120.204 78.632, 121.219 79.677, 123.761 80.885 C 125.817 81.863, 130.385 85.439, 133.911 88.832 C 137.437 92.224, 140.890 95, 141.586 95 C 142.852 95, 149 105.356, 149 107.490 C 149 109.845, 143.421 114, 140.259 114 C 137.460 114, 137.093 114.344, 136.813 117.230 C 136.503 120.426, 136.403 120.483, 127.500 122.579 C 79.686 133.832, 61.522 138, 60.299 138 C 59.416 138, 58.928 137.128, 59.039 135.750 C 59.351 131.902, 59.064 131.104, 56.962 129.980 C 52.890 127.800, 49 131.555, 49 137.664 L 49 140.233 42.419 139.528 C 38.800 139.141, 32.635 138.824, 28.720 138.824 C 20.972 138.824, 19.434 139.771, 18.315 145.238 C 17.843 147.544, 16.869 148.244, 12.127 149.686 C 9.032 150.627, 6.425 151.420, 6.334 151.448 C 6.242 151.477, 5.022 165.900, 3.623 183.500 C 1.949 204.542, 0.979 225.080, 0.789 243.478 C 0.507 270.797, 0.547 271.462, 2.500 271.766 C 9.087 272.792, 9 272.703, 9 278.389 L 9 283.740 18.086 285.859 C 24.846 287.436, 27.675 287.709, 29.136 286.927 C 30.215 286.350, 32.314 286.017, 33.799 286.188 C 36.452 286.494, 36.509 286.652, 37 295.004 C 37.459 302.810, 37.777 303.852, 40.873 307.699 C 45.847 313.879, 51.633 315.493, 57.191 312.250 C 60.822 310.131, 63.498 305.142, 64.430 298.750 C 65.181 293.601, 66.062 293.134, 71.601 294.951 C 73.195 295.474, 76.412 296.392, 78.750 296.990 C 82.533 297.958, 83 298.399, 83 301 C 83 304.290, 81.304 303.613, 103.223 309.068 C 110.221 310.810, 116.634 311.971, 117.473 311.649 C 118.313 311.326, 119 310.149, 119 309.031 C 119 307.914, 119.180 307, 119.400 307 C 119.620 307, 128.957 309.247, 140.150 311.994 C 151.342 314.741, 161.747 316.991, 163.271 316.994 C 166.527 317.001, 167.107 318.130, 169.589 329.299 C 171.812 339.303, 177.871 349.492, 183.243 352.260 C 187.863 354.641, 193.488 355.454, 199.305 354.582 C 204.907 353.741, 211.522 348.280, 214.033 342.423 L 215.848 338.188 226.378 341.012 C 238.218 344.189, 240.743 344.042, 241.193 340.148 C 241.444 337.987, 241.959 337.547, 244 337.758 C 245.375 337.900, 265.871 337.985, 289.547 337.946 L 332.594 337.875 339.918 341.595 C 345.819 344.593, 348.664 345.407, 354.565 345.786 C 361.129 346.207, 362.351 345.985, 366.352 343.640 C 368.807 342.201, 371.720 339.781, 372.825 338.262 C 374.804 335.541, 375.032 335.492, 388.167 334.950 L 401.500 334.399 406.122 337.691 C 408.665 339.502, 411.412 341.989, 412.228 343.218 C 413.544 345.199, 414.012 345.315, 416.356 344.248 C 419.878 342.643, 419.698 341.539, 415.250 337.454 C 413.188 335.559, 411.725 333.992, 412 333.971 C 412.275 333.949, 425.420 333.117, 441.211 332.121 C 461.755 330.824, 470.390 329.921, 471.566 328.945 C 473.068 327.699, 473.154 322.970, 472.570 274.041 C 472.218 244.593, 471.965 218.024, 472.008 214.998 C 472.051 211.972, 471.392 201.257, 470.543 191.188 C 469.694 181.118, 469 172.633, 469 172.333 C 469 172.032, 469.654 172.037, 470.454 172.344 C 471.611 172.788, 471.967 171.639, 472.204 166.701 L 472.500 160.500 483.388 159.165 C 492.470 158.051, 494.417 158.051, 495.123 159.165 C 496.482 161.308, 496.225 161.566, 491.750 162.558 L 487.500 163.500 487.214 174.498 C 486.849 188.488, 487.603 190.211, 493.904 189.797 C 498.287 189.509, 498.446 189.382, 499.295 185.500 C 500.325 180.793, 499.621 165.426, 498.081 159 C 497.488 156.525, 496.731 148.315, 496.399 140.755 C 495.880 128.921, 495.507 126.644, 493.724 124.376 C 491.717 121.825, 491.412 121.762, 484.076 122.378 C 473.906 123.232, 469.266 124.636, 467.838 127.294 C 466.667 129.473, 466.641 129.463, 465.721 126.500 C 465.208 124.850, 464.481 118.905, 464.105 113.289 C 463.506 104.342, 463.117 102.751, 460.961 100.440 C 457.329 96.547, 450.719 93.526, 437.392 89.667 C 418.909 84.315, 412.230 83.168, 386.978 81.010 C 358.888 78.610, 334.032 78.450, 311.381 80.526 C 292.760 82.232, 275.479 85.686, 233.127 96.167 L 220.754 99.229 203.227 97.601 C 191.581 96.519, 185.331 95.526, 184.600 94.642 C 183.170 92.914, 172.422 87, 170.711 87 C 169.986 87, 167.866 85.425, 166 83.500 C 164.134 81.575, 161.917 80, 161.073 80 C 160.230 80, 153.005 75.564, 145.020 70.143 C 137.034 64.721, 125.775 57.455, 120 53.996 C 103.192 43.927, 87.656 32.374, 76.869 21.921 C 68.930 14.228, 66.909 11.713, 67.170 9.851 C 67.390 8.281, 67.002 7.500, 66 7.500 C 63.797 7.500, 63.277 22.155, 65.417 23.931 C 67.491 25.653, 69 24.421, 69 21.007 C 69 18.198, 69.156 18.282, 75.750 24.635 C 84.930 33.479, 90.166 37.429, 114 53.488 C 125.275 61.085, 138.664 70.383, 143.753 74.150 C 148.842 77.918, 153.679 81, 154.503 81 C 155.326 81, 156 81.515, 156 82.145 C 156 84.002, 165.887 94, 167.723 94 C 169.525 94, 169.313 95.666, 167.418 96.393 C 166.548 96.727, 163.862 97, 161.448 97 C 157.743 97, 156.719 96.538, 154.866 94.033 C 152.116 90.313, 142.480 83.843, 138.500 83.044 C 136.728 82.688, 135.091 81.520, 134.500 80.189 C 133.950 78.950, 131.475 76.969, 129 75.785 C 124.777 73.766, 106.875 60.942, 78 39.251 C 60.155 25.846, 44 11.909, 44 9.919 C 44 8.981, 43.357 7.967, 42.572 7.666 C 41.787 7.365, 40.999 5.889, 40.822 4.386 C 40.645 2.884, 39.938 1.470, 39.250 1.244 C 38.325 0.940, 38 2.773, 38 8.294 M 476.190 124.950 C 473.426 125.399, 470.990 126.610, 469.399 128.325 C 467.256 130.636, 467.163 130.999, 468.710 130.991 C 470.479 130.981, 481 125.408, 481 124.480 C 481 124.216, 480.887 124.056, 480.750 124.125 C 480.613 124.194, 478.560 124.565, 476.190 124.950 M 479.424 128.425 C 468.135 134.558, 468.189 134.501, 468.757 139.532 C 469.089 142.484, 468.877 144, 468.130 144 C 466.824 144, 466.577 153.785, 467.833 155.764 C 468.475 156.775, 471.187 156.793, 481.399 155.853 L 494.164 154.679 493.502 141.589 C 493.138 134.390, 492.621 127.713, 492.353 126.750 C 491.588 124.006, 486.297 124.692, 479.424 128.425 M 51.713 131.621 C 51.321 132.013, 51.045 133.721, 51.100 135.417 C 51.194 138.344, 51.235 138.373, 51.895 136 C 52.911 132.346, 56.292 132.667, 57.160 136.500 C 57.756 139.133, 57.818 139.011, 57.670 135.500 C 57.522 132.016, 57.173 131.462, 54.963 131.204 C 53.567 131.041, 52.104 131.229, 51.713 131.621" fill="none" stroke="#000" stroke-width="2px" fill-rule="evenodd"/>
</svg>
