<?xml version="1.0" encoding="utf-8"?>
<!-- Generator: Adobe Illustrator 17.0.0, SVG Export Plug-In . SVG Version: 6.00 Build 0)  -->
<!DOCTYPE svg PUBLIC "-//W3C//DTD SVG 1.1//EN" "http://www.w3.org/Graphics/SVG/1.1/DTD/svg11.dtd">
<svg version="1.1" id="Слой_1" xmlns="http://www.w3.org/2000/svg" xmlns:xlink="http://www.w3.org/1999/xlink" x="0px" y="0px"
	 width="1200px" height="150px" viewBox="0 0 1200 150" enable-background="new 0 0 1200 150" xml:space="preserve">
<g>
	<g>
		<path fill="#FFEAC7" d="M56.914,90.585c0,1.864-1.511,3.375-3.375,3.375l0,0c-1.864,0-3.375-1.511-3.375-3.375v-5.4
			c0-1.864,1.511-3.375,3.375-3.375l0,0c1.864,0,3.375,1.511,3.375,3.375V90.585z"/>
		<path fill="#FFEAC7" d="M97.809,90.585c0,1.864-1.511,3.375-3.375,3.375l0,0c-1.864,0-3.375-1.511-3.375-3.375v-5.4
			c0-1.864,1.511-3.375,3.375-3.375l0,0c1.864,0,3.375,1.511,3.375,3.375V90.585z"/>
		<path fill-rule="evenodd" clip-rule="evenodd" fill="#F39140" d="M91.564,45.031c-2.984-1.964-9.672-3.334-17.448-3.334
			c-7.739,0-14.4,1.356-17.405,3.305c-5.069,2.944-7.382,12.415-7.382,21.822v18.259h9V66.825c0-6.192,1.999-10.049,3.248-11.99
			V88.56h24.967V55.365c1.377,2.076,3.355,5.788,3.355,11.461v18.259h9V66.825C98.898,57.448,96.6,48.007,91.564,45.031z"/>
		<ellipse fill-rule="evenodd" clip-rule="evenodd" fill="#FFEAC7" cx="74.314" cy="28.111" rx="10.65" ry="10.95"/>
		<path fill-rule="evenodd" clip-rule="evenodd" fill="#7E6055" d="M65.41,25.043c1.092-1.259,2.482-2.135,3.699-3.259
			c0.841-0.776,2.259-0.904,3.083,0c1.839,2.02,5.264,3.85,7.884,2.258c1.038-0.631,2.362-0.211,2.982,0.782
			c0.289,0.463,1.008,0.867,1.714,1.221c-0.94-5.059-5.264-8.884-10.458-8.884c-5.73,0-10.401,4.653-10.639,10.485
			C64.35,26.88,64.757,25.797,65.41,25.043z"/>
		<ellipse fill-rule="evenodd" clip-rule="evenodd" fill="#FFEAC7" cx="85.15" cy="28.467" rx="1.128" ry="2.871"/>
		<ellipse fill-rule="evenodd" clip-rule="evenodd" fill="#FFEAC7" cx="63.716" cy="28.467" rx="1.128" ry="2.871"/>
		<path fill="#0A88A2" d="M86.748,88.645l-0.192-0.652H61.577v2.277c-5.944,14.705-6.634,42.712-6.368,52.004l11.246-0.322
			c-0.389-13.624,2.344-34.224,6.543-44.556h3.643c4.055,10.472,6.322,31.061,5.936,44.556l11.246,0.322
			C94.097,132.627,93.343,102.807,86.748,88.645z"/>
		<path fill="#524C40" d="M67.959,145.26c0.122-0.378,0.19-0.781,0.19-1.201c0-2.154-1.746-3.9-3.9-3.9h-6.736
			c-2.154,0-3.9,1.746-3.9,3.9c0,0.419,0.068,0.822,0.19,1.201H67.959z"/>
		<path fill="#524C40" d="M95.559,145.26c0.122-0.378,0.19-0.781,0.19-1.201c0-2.154-1.746-3.9-3.9-3.9h-6.736
			c-2.154,0-3.9,1.746-3.9,3.9c0,0.419,0.068,0.822,0.19,1.201H95.559z"/>
		<path fill="#0C788E" d="M93.985,126.552c-0.255-4.875-0.681-10.256-1.357-15.568H79.681c0.884,4.961,1.541,10.346,1.958,15.568
			H93.985z"/>
		<path fill="#0C788E" d="M67.519,126.552c0.484-5.208,1.226-10.598,2.196-15.568h-13.31c-0.675,5.315-1.101,10.699-1.356,15.568
			H67.519z"/>
		<path fill-rule="evenodd" clip-rule="evenodd" fill="#BA7230" d="M58.779,73.26v-6.435c0-1.688,0.158-3.291,0.455-4.815H49.088
			c-0.142,1.627-0.209,3.25-0.209,4.815v6.435H58.779z"/>
		<path fill-rule="evenodd" clip-rule="evenodd" fill="#BA7230" d="M89.448,73.26h9.9v-6.435c0-1.564-0.067-3.187-0.209-4.815
			h-10.22c0.349,1.527,0.529,3.125,0.529,4.815V73.26z"/>
		<path fill-rule="evenodd" clip-rule="evenodd" fill="#F4F5F4" d="M81.74,42.168c-2.337-0.301-4.912-0.47-7.625-0.47
			c-2.559,0-4.995,0.151-7.225,0.42V85.41h14.85V42.168z"/>
		<path fill="#FFEAC7" d="M69.494,41.856c-0.006,0.071,0.028,0.292,0.028,0.364c0,1.864,2.029,3.375,4.532,3.375
			c2.503,0,4.538-1.854,4.538-3.718c0,0-2.233-0.172-4.477-0.179C71.848,41.691,69.57,41.848,69.494,41.856z"/>
		<rect x="60.964" y="85.559" fill="#563B3F" width="26.7" height="4.8"/>
		<g>
			<g>
				<g>
					<path fill="#E0B28D" d="M77.786,91.223h-6.591v-6.734h6.591V91.223z M72.094,90.323h4.791v-4.934h-4.791V90.323z"/>
				</g>
				<g>
					<rect x="75.392" y="87.121" fill="#E0B28D" width="2.963" height="1.469"/>
				</g>
			</g>
		</g>
		<polygon fill="#BA7230" points="83.691,85.887 80.69,85.587 78.59,41.46 83.39,41.46 		"/>
		<polygon fill="#BA7230" points="63.89,85.71 66.89,85.41 69.29,41.46 64.49,41.46 		"/>
		<g>
			<g>
				<path fill-rule="evenodd" clip-rule="evenodd" fill="#F6CD7D" d="M86.012,20.704c-0.013-0.087-0.033-0.174-0.061-0.264
					c-0.192-0.612-0.698-2.428-0.698-3.091c0-5.161-4.829-9.346-10.786-9.346c-5.957,0-10.786,4.185-10.786,9.346
					c0,0.581-0.524,2.358-0.893,3.355H86.012z"/>
				<path fill-rule="evenodd" clip-rule="evenodd" fill="#F6CD7D" d="M74.306,11.393c1.535,0,2.788-1.252,2.788-2.788
					c0-1.536-1.253-2.788-2.788-2.788c-1.536,0-2.788,1.252-2.788,2.788C71.518,10.14,72.77,11.393,74.306,11.393z"/>
				<g>
					<path fill-rule="evenodd" clip-rule="evenodd" fill="#E2B459" d="M68.101,9.804c0.971-0.616,2.066-1.095,3.246-1.404
						c0.076,0.192,0.118,0.4,0.118,0.618v7.501c0,0.926-0.756,1.682-1.682,1.682l0,0c-0.926,0-1.682-0.757-1.682-1.682V9.804z"/>
					<path fill-rule="evenodd" clip-rule="evenodd" fill="#E2B459" d="M77.296,8.328c1.161,0.272,2.245,0.708,3.215,1.279v6.913
						c0,0.926-0.757,1.682-1.683,1.682l0,0c-0.925,0-1.682-0.757-1.682-1.682V9.018C77.147,8.773,77.2,8.539,77.296,8.328z"/>
				</g>
			</g>
			<path fill-rule="evenodd" clip-rule="evenodd" fill="#E2B459" d="M84.358,21.004c0,0.497-0.403,0.9-0.9,0.9h-18.6
				c-0.497,0-0.9-0.403-0.9-0.9l0,0c0-0.497,0.403-0.9,0.9-0.9h18.6C83.955,20.104,84.358,20.507,84.358,21.004L84.358,21.004z"/>
		</g>
	</g>
	<g opacity="0.5">
		<path fill="#FFEAC7" d="M97.809,90.585c0,1.864-1.511,3.375-3.375,3.375l0,0c-1.864,0-3.375-1.511-3.375-3.375v-5.4
			c0-1.864,1.511-3.375,3.375-3.375l0,0c1.864,0,3.375,1.511,3.375,3.375V90.585z"/>
		<path fill-rule="evenodd" clip-rule="evenodd" fill="#F39140" d="M91.564,45.031c-2.857-1.881-9.112-3.212-16.464-3.323V88.56
			h11.443V55.365c1.377,2.076,3.355,5.788,3.355,11.461v18.259h9V66.825C98.898,57.448,96.6,48.007,91.564,45.031z"/>
		<path fill-rule="evenodd" clip-rule="evenodd" fill="#FFEAC7" d="M75.1,17.194v21.834c5.514-0.414,9.864-5.142,9.864-10.917
			S80.615,17.608,75.1,17.194z"/>
		<path fill-rule="evenodd" clip-rule="evenodd" fill="#7E6055" d="M75.1,17.197v6.753c1.613,0.776,3.433,1.03,4.976,0.092
			c1.038-0.631,2.362-0.211,2.982,0.782c0.289,0.463,1.008,0.867,1.714,1.221C83.88,21.243,79.939,17.561,75.1,17.197z"/>
		<ellipse fill-rule="evenodd" clip-rule="evenodd" fill="#FFEAC7" cx="85.15" cy="28.467" rx="1.128" ry="2.871"/>
		<path fill="#0A88A2" d="M86.748,88.645l-0.192-0.652H75.1v9.403h1.54c4.055,10.472,6.322,31.061,5.936,44.556l11.246,0.322
			C94.097,132.627,93.343,102.807,86.748,88.645z"/>
		<path fill="#524C40" d="M95.559,145.26c0.122-0.378,0.19-0.781,0.19-1.201c0-2.154-1.746-3.9-3.9-3.9h-6.736
			c-2.154,0-3.9,1.746-3.9,3.9c0,0.419,0.068,0.822,0.19,1.201H95.559z"/>
		<path fill="#0C788E" d="M93.985,126.552c-0.255-4.875-0.681-10.256-1.357-15.568H79.681c0.884,4.961,1.541,10.346,1.958,15.568
			H93.985z"/>
		<path fill-rule="evenodd" clip-rule="evenodd" fill="#BA7230" d="M89.448,73.26h9.9v-6.435c0-1.564-0.067-3.187-0.209-4.815
			h-10.22c0.349,1.527,0.529,3.125,0.529,4.815V73.26z"/>
		<path fill-rule="evenodd" clip-rule="evenodd" fill="#F4F5F4" d="M75.1,41.713V85.41h6.64V42.168
			C79.69,41.904,77.449,41.749,75.1,41.713z"/>
		<path fill="#FFEAC7" d="M75.1,41.71v3.771c1.999-0.424,3.493-2.009,3.493-3.604C78.593,41.876,76.969,41.751,75.1,41.71z"/>
		<rect x="75.1" y="85.559" fill="#563B3F" width="12.564" height="4.8"/>
		<g>
			<g>
				<g>
					<polygon fill="#E0B28D" points="75.1,84.489 75.1,85.389 76.886,85.389 76.886,90.323 75.1,90.323 75.1,91.223 77.786,91.223 
						77.786,84.489 					"/>
				</g>
				<g>
					<rect x="75.392" y="87.121" fill="#E0B28D" width="2.963" height="1.469"/>
				</g>
			</g>
		</g>
		<polygon fill="#BA7230" points="83.691,85.887 80.69,85.587 78.59,41.46 83.39,41.46 		"/>
		<g>
			<g>
				<path fill-rule="evenodd" clip-rule="evenodd" fill="#F6CD7D" d="M75.1,20.704h10.912c-0.013-0.087-0.033-0.174-0.061-0.264
					c-0.192-0.612-0.698-2.428-0.698-3.091c0-4.977-4.491-9.045-10.153-9.329V20.704z"/>
				<path fill-rule="evenodd" clip-rule="evenodd" fill="#F6CD7D" d="M75.1,5.933v5.343c1.151-0.344,1.994-1.412,1.994-2.671
					S76.251,6.277,75.1,5.933z"/>
				<g>
					<path fill-rule="evenodd" clip-rule="evenodd" fill="#E2B459" d="M77.296,8.328c1.161,0.272,2.245,0.708,3.215,1.279v6.913
						c0,0.926-0.757,1.682-1.683,1.682l0,0c-0.925,0-1.682-0.757-1.682-1.682V9.018C77.147,8.773,77.2,8.539,77.296,8.328z"/>
				</g>
			</g>
			<path fill-rule="evenodd" clip-rule="evenodd" fill="#E2B459" d="M83.458,20.104H75.1v1.8h8.358c0.497,0,0.9-0.403,0.9-0.9
				C84.358,20.507,83.955,20.104,83.458,20.104z"/>
		</g>
	</g>
</g>
<g>
	<g>
		<path fill="#FFEAC7" d="M207.063,89.518c0,1.864-1.511,3.375-3.375,3.375l0,0c-1.864,0-3.375-1.511-3.375-3.375v-5.4
			c0-1.864,1.511-3.375,3.375-3.375l0,0c1.864,0,3.375,1.511,3.375,3.375V89.518z"/>
		<path fill="#FFEAC7" d="M247.958,89.518c0,1.864-1.511,3.375-3.375,3.375l0,0c-1.864,0-3.375-1.511-3.375-3.375v-5.4
			c0-1.864,1.511-3.375,3.375-3.375l0,0c1.864,0,3.375,1.511,3.375,3.375V89.518z"/>
		<path fill-rule="evenodd" clip-rule="evenodd" fill="#F4F5F4" d="M241.713,43.964c-2.985-1.964-9.672-3.334-17.449-3.334
			c-7.739,0-14.399,1.356-17.405,3.305c-5.069,2.944-7.382,12.415-7.382,21.822v18.259h9V65.758c0-6.192,1.999-10.049,3.248-11.989
			v33.725h24.967V54.298c1.376,2.076,3.355,5.788,3.355,11.46v18.259h9V65.758C249.047,56.381,246.748,46.94,241.713,43.964z"/>
		<ellipse fill-rule="evenodd" clip-rule="evenodd" fill="#FFEAC7" cx="224.463" cy="27.044" rx="10.65" ry="10.95"/>
		<path fill-rule="evenodd" clip-rule="evenodd" fill="#7E6055" d="M215.559,23.976c1.092-1.259,2.482-2.136,3.699-3.259
			c0.841-0.776,2.259-0.904,3.083,0c1.839,2.02,5.264,3.85,7.884,2.257c1.038-0.631,2.362-0.211,2.982,0.782
			c0.289,0.463,1.008,0.867,1.714,1.221c-0.94-5.059-5.263-8.884-10.458-8.884c-5.73,0-10.401,4.653-10.639,10.485
			C214.499,25.813,214.905,24.73,215.559,23.976z"/>
		<ellipse fill-rule="evenodd" clip-rule="evenodd" fill="#FFEAC7" cx="235.298" cy="27.4" rx="1.128" ry="2.871"/>
		<ellipse fill-rule="evenodd" clip-rule="evenodd" fill="#FFEAC7" cx="213.864" cy="27.4" rx="1.128" ry="2.871"/>
		<g>
			<g>
				<path fill-rule="evenodd" clip-rule="evenodd" fill="#F6CD7D" d="M236.071,20.694c-0.013-0.087-0.033-0.174-0.061-0.264
					c-0.192-0.612-0.698-2.429-0.698-3.091c0-5.161-4.829-9.346-10.786-9.346c-5.957,0-10.786,4.185-10.786,9.346
					c0,0.581-0.524,2.359-0.892,3.355H236.071z"/>
				<path fill-rule="evenodd" clip-rule="evenodd" fill="#F6CD7D" d="M224.365,11.384c1.535,0,2.788-1.253,2.788-2.788
					c0-1.536-1.253-2.788-2.788-2.788c-1.536,0-2.788,1.252-2.788,2.788C221.577,10.131,222.829,11.384,224.365,11.384z"/>
				<g>
					<path fill-rule="evenodd" clip-rule="evenodd" fill="#E2B459" d="M218.16,9.795c0.971-0.617,2.066-1.095,3.246-1.404
						c0.076,0.192,0.118,0.4,0.118,0.618v7.501c0,0.925-0.757,1.682-1.682,1.682l0,0c-0.926,0-1.682-0.757-1.682-1.682V9.795z"/>
					<path fill-rule="evenodd" clip-rule="evenodd" fill="#E2B459" d="M227.355,8.319c1.161,0.272,2.245,0.708,3.215,1.279v6.913
						c0,0.925-0.757,1.682-1.683,1.682l0,0c-0.925,0-1.682-0.757-1.682-1.682V9.009C227.206,8.764,227.259,8.53,227.355,8.319z"/>
				</g>
			</g>
			<path fill-rule="evenodd" clip-rule="evenodd" fill="#E2B459" d="M234.417,20.995c0,0.497-0.403,0.9-0.9,0.9h-18.6
				c-0.497,0-0.9-0.403-0.9-0.9l0,0c0-0.497,0.403-0.9,0.9-0.9h18.6C234.014,20.095,234.417,20.498,234.417,20.995L234.417,20.995z"
				/>
		</g>
		<path fill="#0A88A2" d="M236.896,87.578l-0.192-0.652h-24.979v2.277c-5.944,14.705-6.634,42.712-6.368,52.004l11.246-0.322
			c-0.389-13.624,2.344-34.224,6.543-44.556h3.644c4.056,10.472,6.322,31.061,5.936,44.556l11.246,0.322
			C244.246,131.56,243.492,101.74,236.896,87.578z"/>
		<path fill="#524C40" d="M218.108,144.193c0.122-0.378,0.19-0.781,0.19-1.201c0-2.154-1.746-3.9-3.9-3.9h-6.736
			c-2.154,0-3.9,1.746-3.9,3.9c0,0.419,0.068,0.822,0.19,1.201H218.108z"/>
		<path fill="#524C40" d="M245.708,144.193c0.123-0.378,0.19-0.781,0.19-1.201c0-2.154-1.746-3.9-3.9-3.9h-6.736
			c-2.154,0-3.9,1.746-3.9,3.9c0,0.419,0.068,0.822,0.191,1.201H245.708z"/>
		<path fill="#FFEAC7" d="M219.643,40.789c-0.006,0.071,0.028,0.292,0.028,0.364c0,1.864,2.029,3.375,4.532,3.375
			c2.503,0,4.538-1.854,4.538-3.718c0-0.001-2.233-0.172-4.477-0.179C221.997,40.623,219.718,40.781,219.643,40.789z"/>
		<rect x="211.112" y="84.492" fill="#E0B28D" width="26.7" height="4.8"/>
		
			<rect x="221.793" y="83.872" fill="none" stroke="#563B3F" stroke-width="2" stroke-miterlimit="10" width="5.691" height="5.834"/>
		
			<rect x="225.99" y="86.504" fill="none" stroke="#563B3F" stroke-width="2" stroke-miterlimit="10" width="2.063" height="0.569"/>
		<path fill="#CFCECE" d="M226.659,52.056v3.37c0,1.276,1.034,2.31,2.31,2.31h2.322c1.276,0,2.311-1.034,2.311-2.31v-3.37H226.659z"
			/>
	</g>
	<g opacity="0.5">
		<path fill="#FFEAC7" d="M247.958,89.518c0,1.864-1.511,3.375-3.375,3.375l0,0c-1.864,0-3.375-1.511-3.375-3.375v-5.4
			c0-1.864,1.511-3.375,3.375-3.375l0,0c1.864,0,3.375,1.511,3.375,3.375V89.518z"/>
		<path fill-rule="evenodd" clip-rule="evenodd" fill="#F4F5F4" d="M241.713,43.964c-2.939-1.934-9.472-3.289-17.096-3.33v46.859
			h12.075V54.298c1.376,2.076,3.355,5.788,3.355,11.46v18.259h9V65.758C249.047,56.381,246.748,46.94,241.713,43.964z"/>
		<path fill-rule="evenodd" clip-rule="evenodd" fill="#FFEAC7" d="M224.617,16.098V37.99c5.81-0.085,10.497-4.951,10.497-10.946
			S230.427,16.183,224.617,16.098z"/>
		<path fill-rule="evenodd" clip-rule="evenodd" fill="#7E6055" d="M224.617,16.101v6.447c1.755,1.025,3.86,1.49,5.608,0.427
			c1.038-0.631,2.362-0.211,2.982,0.782c0.289,0.463,1.008,0.867,1.714,1.221C233.99,19.969,229.742,16.176,224.617,16.101z"/>
		<ellipse fill-rule="evenodd" clip-rule="evenodd" fill="#FFEAC7" cx="235.298" cy="27.4" rx="1.128" ry="2.871"/>
		<g>
			<g>
				<path fill-rule="evenodd" clip-rule="evenodd" fill="#F6CD7D" d="M224.617,20.694h11.455c-0.013-0.087-0.033-0.174-0.061-0.264
					c-0.192-0.612-0.698-2.429-0.698-3.091c0-5.135-4.78-9.301-10.695-9.344V20.694z"/>
				<path fill-rule="evenodd" clip-rule="evenodd" fill="#F6CD7D" d="M224.617,5.82v5.551c1.419-0.128,2.537-1.325,2.537-2.776
					C227.153,7.144,226.035,5.948,224.617,5.82z"/>
				<g>
					<path fill-rule="evenodd" clip-rule="evenodd" fill="#E2B459" d="M227.355,8.319c1.161,0.272,2.245,0.708,3.215,1.279v6.913
						c0,0.925-0.757,1.682-1.683,1.682l0,0c-0.925,0-1.682-0.757-1.682-1.682V9.009C227.206,8.764,227.259,8.53,227.355,8.319z"/>
				</g>
			</g>
			<path fill-rule="evenodd" clip-rule="evenodd" fill="#E2B459" d="M233.517,20.095h-8.901v1.8h8.901c0.497,0,0.9-0.403,0.9-0.9
				C234.417,20.498,234.014,20.095,233.517,20.095z"/>
		</g>
		<path fill="#0A88A2" d="M236.896,87.578l-0.192-0.652h-12.088v9.403h2.172c4.056,10.472,6.322,31.061,5.936,44.556l11.246,0.322
			C244.246,131.56,243.492,101.74,236.896,87.578z"/>
		<path fill="#524C40" d="M245.708,144.193c0.123-0.378,0.19-0.781,0.19-1.201c0-2.154-1.746-3.9-3.9-3.9h-6.736
			c-2.154,0-3.9,1.746-3.9,3.9c0,0.419,0.068,0.822,0.191,1.201H245.708z"/>
		<path fill="#FFEAC7" d="M224.617,40.633v3.875c2.309-0.19,4.125-1.939,4.125-3.699C228.741,40.808,226.736,40.655,224.617,40.633z
			"/>
		<rect x="224.617" y="84.492" fill="#E0B28D" width="13.196" height="4.8"/>
		
			<rect x="224.617" y="83.872" fill="none" stroke="#563B3F" stroke-width="2" stroke-miterlimit="10" width="2.868" height="5.834"/>
		
			<rect x="225.99" y="86.504" fill="none" stroke="#563B3F" stroke-width="2" stroke-miterlimit="10" width="2.063" height="0.569"/>
		<path fill="#CFCECE" d="M226.659,52.056v3.37c0,1.276,1.034,2.31,2.31,2.31h2.322c1.276,0,2.311-1.034,2.311-2.31v-3.37H226.659z"
			/>
	</g>
</g>
<g>
	<g>
		<path fill="#FFEAC7" d="M358.386,90.12c0,1.864-1.511,3.375-3.375,3.375l0,0c-1.864,0-3.375-1.511-3.375-3.375v-5.4
			c0-1.864,1.511-3.375,3.375-3.375l0,0c1.864,0,3.375,1.511,3.375,3.375V90.12z"/>
		<path fill="#FFEAC7" d="M399.281,90.12c0,1.864-1.511,3.375-3.375,3.375l0,0c-1.864,0-3.375-1.511-3.375-3.375v-5.4
			c0-1.864,1.511-3.375,3.375-3.375l0,0c1.864,0,3.375,1.511,3.375,3.375V90.12z"/>
		<path fill-rule="evenodd" clip-rule="evenodd" fill="#0A88A2" d="M393.036,44.566c-2.984-1.964-9.672-3.334-17.449-3.334
			c-7.739,0-14.4,1.356-17.405,3.305c-5.069,2.944-7.382,12.415-7.382,21.822V84.62h9V66.36c0-6.192,1.999-10.049,3.248-11.99
			v33.725h24.967V54.9c1.377,2.076,3.355,5.788,3.355,11.461V84.62h9V66.36C400.37,56.983,398.072,47.542,393.036,44.566z"/>
		<rect x="373.965" y="44.116" fill-rule="evenodd" clip-rule="evenodd" fill="#0C788E" width="3.604" height="41.545"/>
		<ellipse fill-rule="evenodd" clip-rule="evenodd" fill="#FFEAC7" cx="375.786" cy="27.646" rx="10.65" ry="10.95"/>
		<path fill-rule="evenodd" clip-rule="evenodd" fill="#7E6055" d="M366.882,24.578c1.092-1.259,2.482-2.135,3.699-3.259
			c0.841-0.776,2.259-0.904,3.083,0c1.839,2.02,5.264,3.85,7.884,2.258c1.038-0.631,2.362-0.211,2.982,0.782
			c0.289,0.463,1.008,0.867,1.714,1.221c-0.94-5.059-5.264-8.884-10.458-8.884c-5.73,0-10.401,4.653-10.639,10.485
			C365.822,26.415,366.229,25.332,366.882,24.578z"/>
		<ellipse fill-rule="evenodd" clip-rule="evenodd" fill="#FFEAC7" cx="386.622" cy="28.003" rx="1.128" ry="2.871"/>
		<ellipse fill-rule="evenodd" clip-rule="evenodd" fill="#FFEAC7" cx="365.188" cy="28.003" rx="1.128" ry="2.871"/>
		<g>
			<g>
				<g>
					<path fill-rule="evenodd" clip-rule="evenodd" fill="#0A88A2" d="M387.395,21.297c-0.013-0.086-0.033-0.174-0.061-0.264
						c-0.192-0.613-0.698-2.429-0.698-3.092c0-5.161-4.829-9.346-10.786-9.346c-5.957,0-10.786,4.184-10.786,9.346
						c0,0.581-0.524,2.359-0.893,3.355H387.395z"/>
				</g>
				<g>
					<path fill-rule="evenodd" clip-rule="evenodd" fill="#0C788E" d="M385.74,21.597c0,0.497-0.403,0.9-0.9,0.9h-18.6
						c-0.497,0-0.9-0.403-0.9-0.9l0,0c0-0.497,0.403-0.9,0.9-0.9h18.6C385.337,20.697,385.74,21.1,385.74,21.597L385.74,21.597z"/>
				</g>
			</g>
		</g>
		<path fill="#0A88A2" d="M388.22,88.18l-0.192-0.652h-24.979v2.277c-5.944,14.705-6.634,42.712-6.368,52.004l11.246-0.322
			c-0.389-13.624,2.344-34.224,6.543-44.556h3.644c4.055,10.472,6.322,31.061,5.936,44.556l11.246,0.322
			C395.569,132.162,394.815,102.343,388.22,88.18z"/>
		<path fill="#524C40" d="M369.431,144.795c0.122-0.378,0.19-0.781,0.19-1.201c0-2.154-1.746-3.9-3.9-3.9h-6.736
			c-2.154,0-3.9,1.746-3.9,3.9c0,0.419,0.068,0.822,0.19,1.201H369.431z"/>
		<path fill="#524C40" d="M397.032,144.795c0.122-0.378,0.19-0.781,0.19-1.201c0-2.154-1.746-3.9-3.9-3.9h-6.736
			c-2.154,0-3.9,1.746-3.9,3.9c0,0.419,0.068,0.822,0.19,1.201H397.032z"/>
		<rect x="362.436" y="87.46" fill="#0C788E" width="26.7" height="2.435"/>
		<g>
			<g>
				<circle fill="#1E1E1C" cx="375.701" cy="51.848" r="0.901"/>
				<circle fill="#1E1E1C" cx="375.701" cy="58.456" r="0.901"/>
				<circle fill="#1E1E1C" cx="375.701" cy="65.065" r="0.901"/>
				<circle fill="#1E1E1C" cx="375.701" cy="71.673" r="0.901"/>
				<circle fill="#1E1E1C" cx="375.701" cy="78.282" r="0.901"/>
			</g>
		</g>
		<path fill="#FFEAC7" d="M370.966,41.391c-0.006,0.071,0.028,0.292,0.028,0.364c0,1.864,2.029,3.375,4.532,3.375
			c2.503,0,4.538-1.854,4.538-3.718c0-0.001-2.233-0.172-4.477-0.179C373.32,41.226,371.042,41.383,370.966,41.391z"/>
		<path fill="#0C788E" d="M364.974,57.158v3.37c0,1.276,1.034,2.31,2.31,2.31h2.322c1.276,0,2.31-1.034,2.31-2.31v-3.37H364.974z"/>
		<path fill="#0C788E" d="M379.105,57.158v3.37c0,1.276,1.034,2.31,2.31,2.31h2.322c1.276,0,2.31-1.034,2.31-2.31v-3.37H379.105z"/>
	</g>
	<g opacity="0.5">
		<path fill="#FFEAC7" d="M399.281,90.12c0,1.864-1.511,3.375-3.375,3.375l0,0c-1.864,0-3.375-1.511-3.375-3.375v-5.4
			c0-1.864,1.511-3.375,3.375-3.375l0,0c1.864,0,3.375,1.511,3.375,3.375V90.12z"/>
		<path fill-rule="evenodd" clip-rule="evenodd" fill="#0A88A2" d="M393.036,44.566c-2.978-1.96-9.643-3.327-17.397-3.333v46.862
			h12.376V54.9c1.377,2.076,3.355,5.788,3.355,11.461V84.62h9V66.36C400.37,56.983,398.072,47.542,393.036,44.566z"/>
		<rect x="375.639" y="44.116" fill-rule="evenodd" clip-rule="evenodd" fill="#0C788E" width="1.93" height="41.545"/>
		<path fill-rule="evenodd" clip-rule="evenodd" fill="#FFEAC7" d="M375.787,16.696c-0.049,0-0.098,0.003-0.147,0.004v21.892
			c0.049,0.001,0.098,0.004,0.147,0.004c5.882,0,10.65-4.903,10.65-10.95C386.437,21.599,381.668,16.696,375.787,16.696z"/>
		<path fill-rule="evenodd" clip-rule="evenodd" fill="#7E6055" d="M375.787,16.696c-0.049,0-0.098,0.003-0.147,0.004v6.267
			c1.811,1.15,4.059,1.735,5.909,0.61c1.038-0.631,2.362-0.211,2.982,0.782c0.289,0.463,1.008,0.867,1.714,1.221
			C385.304,20.52,380.981,16.696,375.787,16.696z"/>
		<ellipse fill-rule="evenodd" clip-rule="evenodd" fill="#FFEAC7" cx="386.622" cy="28.003" rx="1.128" ry="2.871"/>
		<g>
			<g>
				<g>
					<path fill-rule="evenodd" clip-rule="evenodd" fill="#0A88A2" d="M375.639,21.297h11.756c-0.013-0.086-0.033-0.174-0.061-0.264
						c-0.192-0.613-0.698-2.429-0.698-3.092c0-5.161-4.829-9.346-10.786-9.346c-0.071,0-0.14,0.004-0.21,0.004V21.297z"/>
				</g>
				<g>
					<path fill-rule="evenodd" clip-rule="evenodd" fill="#0C788E" d="M384.84,20.697h-9.201v1.8h9.201c0.497,0,0.9-0.403,0.9-0.9
						C385.74,21.1,385.337,20.697,384.84,20.697z"/>
				</g>
			</g>
		</g>
		<path fill="#0A88A2" d="M388.22,88.18l-0.192-0.652h-12.389v9.403h2.473c4.055,10.472,6.322,31.061,5.936,44.556l11.246,0.322
			C395.569,132.162,394.815,102.343,388.22,88.18z"/>
		<path fill="#524C40" d="M397.032,144.795c0.122-0.378,0.19-0.781,0.19-1.201c0-2.154-1.746-3.9-3.9-3.9h-6.736
			c-2.154,0-3.9,1.746-3.9,3.9c0,0.419,0.068,0.822,0.19,1.201H397.032z"/>
		<rect x="375.639" y="87.46" fill="#0C788E" width="13.497" height="2.435"/>
		<g>
			<g>
				<path fill="#1E1E1C" d="M375.701,50.946c-0.021,0-0.041,0.005-0.062,0.006v1.79c0.021,0.001,0.041,0.006,0.062,0.006
					c0.497,0,0.901-0.404,0.901-0.901C376.602,51.35,376.199,50.946,375.701,50.946z"/>
				<path fill="#1E1E1C" d="M375.701,57.555c-0.021,0-0.041,0.005-0.062,0.006v1.79c0.021,0.001,0.041,0.006,0.062,0.006
					c0.497,0,0.901-0.404,0.901-0.901C376.602,57.958,376.199,57.555,375.701,57.555z"/>
				<path fill="#1E1E1C" d="M375.701,64.163c-0.021,0-0.041,0.005-0.062,0.006v1.79c0.021,0.001,0.041,0.006,0.062,0.006
					c0.497,0,0.901-0.404,0.901-0.901C376.602,64.567,376.199,64.163,375.701,64.163z"/>
				<path fill="#1E1E1C" d="M375.701,70.772c-0.021,0-0.041,0.005-0.062,0.006v1.79c0.021,0.001,0.041,0.006,0.062,0.006
					c0.497,0,0.901-0.404,0.901-0.901C376.602,71.175,376.199,70.772,375.701,70.772z"/>
				<path fill="#1E1E1C" d="M375.701,77.38c-0.021,0-0.041,0.005-0.062,0.006v1.79c0.021,0.001,0.041,0.006,0.062,0.006
					c0.497,0,0.901-0.404,0.901-0.901C376.602,77.784,376.199,77.38,375.701,77.38z"/>
			</g>
		</g>
		<path fill="#FFEAC7" d="M375.639,41.233v3.891c2.45-0.055,4.426-1.877,4.426-3.713C380.065,41.411,377.866,41.242,375.639,41.233z
			"/>
		<path fill="#0C788E" d="M379.105,57.158v3.37c0,1.276,1.034,2.31,2.31,2.31h2.322c1.276,0,2.31-1.034,2.31-2.31v-3.37H379.105z"/>
	</g>
</g>
<g>
	<g>
		<path fill="#FFEAC7" d="M510.634,89.518c0,1.864-1.511,3.375-3.375,3.375l0,0c-1.864,0-3.375-1.511-3.375-3.375v-5.4
			c0-1.864,1.511-3.375,3.375-3.375l0,0c1.864,0,3.375,1.511,3.375,3.375V89.518z"/>
		<path fill="#FFEAC7" d="M551.529,89.518c0,1.864-1.511,3.375-3.375,3.375l0,0c-1.864,0-3.375-1.511-3.375-3.375v-5.4
			c0-1.864,1.511-3.375,3.375-3.375l0,0c1.864,0,3.375,1.511,3.375,3.375V89.518z"/>
		<path fill-rule="evenodd" clip-rule="evenodd" fill="#F4F5F4" d="M545.284,43.964C542.3,42,535.612,40.63,527.836,40.63
			c-7.739,0-14.399,1.356-17.405,3.305c-5.069,2.944-7.382,12.415-7.382,21.822v18.259h9V65.758c0-6.192,1.999-10.049,3.248-11.989
			v33.725h24.967V54.298c1.376,2.076,3.355,5.788,3.355,11.46v18.259h9V65.758C552.618,56.381,550.32,46.94,545.284,43.964z"/>
		<ellipse fill-rule="evenodd" clip-rule="evenodd" fill="#FFEAC7" cx="528.035" cy="27.044" rx="10.65" ry="10.95"/>
		<path fill-rule="evenodd" clip-rule="evenodd" fill="#7E6055" d="M519.13,23.976c1.092-1.259,2.482-2.136,3.699-3.259
			c0.841-0.776,2.259-0.904,3.083,0c1.839,2.02,5.264,3.85,7.884,2.257c1.038-0.631,2.362-0.211,2.982,0.782
			c0.289,0.463,1.008,0.867,1.714,1.221c-0.94-5.059-5.263-8.884-10.458-8.884c-5.73,0-10.401,4.653-10.639,10.485
			C518.07,25.813,518.477,24.73,519.13,23.976z"/>
		<ellipse fill-rule="evenodd" clip-rule="evenodd" fill="#FFEAC7" cx="538.87" cy="27.4" rx="1.128" ry="2.871"/>
		<ellipse fill-rule="evenodd" clip-rule="evenodd" fill="#FFEAC7" cx="517.436" cy="27.4" rx="1.128" ry="2.871"/>
		<g>
			<g>
				<path fill-rule="evenodd" clip-rule="evenodd" fill="#0A88A2" d="M539.643,20.694c-0.013-0.087-0.033-0.174-0.061-0.264
					c-0.192-0.612-0.698-2.429-0.698-3.091c0-5.161-4.829-9.346-10.786-9.346c-5.957,0-10.786,4.185-10.786,9.346
					c0,0.581-0.524,2.359-0.892,3.355H539.643z"/>
				<path fill-rule="evenodd" clip-rule="evenodd" fill="#0A88A2" d="M527.937,11.384c1.535,0,2.788-1.253,2.788-2.788
					c0-1.536-1.253-2.788-2.788-2.788c-1.536,0-2.788,1.252-2.788,2.788C525.148,10.131,526.401,11.384,527.937,11.384z"/>
				<g>
					<g>
						<path fill-rule="evenodd" clip-rule="evenodd" fill="#106F83" d="M521.732,9.795c0.971-0.617,2.066-1.095,3.246-1.404
							c0.076,0.192,0.118,0.4,0.118,0.618v7.501c0,0.925-0.757,1.682-1.682,1.682l0,0c-0.926,0-1.682-0.757-1.682-1.682V9.795z"/>
						<path fill-rule="evenodd" clip-rule="evenodd" fill="#106F83" d="M530.926,8.319c1.161,0.272,2.245,0.708,3.216,1.279v6.913
							c0,0.925-0.757,1.682-1.683,1.682l0,0c-0.925,0-1.682-0.757-1.682-1.682V9.009C530.777,8.764,530.83,8.53,530.926,8.319z"/>
					</g>
				</g>
			</g>
			<path fill-rule="evenodd" clip-rule="evenodd" fill="#106F83" d="M537.989,20.995c0,0.497-0.403,0.9-0.9,0.9h-18.6
				c-0.497,0-0.9-0.403-0.9-0.9l0,0c0-0.497,0.403-0.9,0.9-0.9h18.6C537.585,20.095,537.989,20.498,537.989,20.995L537.989,20.995z"
				/>
		</g>
		<path fill="#0A88A2" d="M540.468,87.578l-0.192-0.652h-24.979v2.277c-5.944,14.705-6.634,42.712-6.368,52.004l11.246-0.322
			c-0.389-13.624,2.344-34.224,6.543-44.556h3.643c4.056,10.472,6.322,31.061,5.936,44.556l11.246,0.322
			C547.817,131.56,547.063,101.74,540.468,87.578z"/>
		<path fill="#524C40" d="M521.68,144.193c0.122-0.378,0.19-0.781,0.19-1.201c0-2.154-1.746-3.9-3.9-3.9h-6.736
			c-2.154,0-3.9,1.746-3.9,3.9c0,0.419,0.068,0.822,0.19,1.201H521.68z"/>
		<path fill="#524C40" d="M549.279,144.193c0.123-0.378,0.19-0.781,0.19-1.201c0-2.154-1.746-3.9-3.9-3.9h-6.736
			c-2.154,0-3.9,1.746-3.9,3.9c0,0.419,0.068,0.822,0.191,1.201H549.279z"/>
		<path fill="#FFEAC7" d="M523.214,40.789c-0.006,0.071,0.028,0.292,0.028,0.364c0,1.864,2.029,3.375,4.532,3.375
			c2.503,0,4.538-1.854,4.538-3.718c0-0.001-2.233-0.172-4.477-0.179C525.568,40.623,523.29,40.781,523.214,40.789z"/>
		<rect x="514.684" y="84.492" fill="#563B3F" width="26.7" height="4.8"/>
		<path fill="#E0B28D" d="M532.074,86.054h-0.569v-2.632h-6.591v6.734h6.591v-2.632h0.569V86.054z M530.606,89.256h-4.791v-4.934
			h4.791v1.732h-1.494v1.469h1.494V89.256z"/>
		<path fill="#C8D521" d="M519.025,51.416V50.43c-0.018-0.22-0.034-0.441-0.034-0.665c0-0.224,0.016-0.445,0.034-0.665v-7.932
			l-2.484,0.311l-0.32,14.688l-1.049,0.218l-0.49,28.108l8.93,0.153l-0.032-27.251C519.086,57.255,519.025,51.416,519.025,51.416z"
			/>
		<path fill="#C8D521" d="M540.243,56.384l-1.048-0.218l-0.32-14.688l-2.484-0.311v10.248c0,0-0.036,6.015-3.978,6.188
			l-0.031,27.042l8.35-0.153L540.243,56.384z"/>
		<rect x="514.707" y="74.838" fill="#F7A608" width="8.931" height="0.921"/>
		<rect x="514.707" y="77.704" fill="#F7A608" width="8.931" height="0.921"/>
		<rect x="532.487" y="74.838" fill="#F7A608" width="8.227" height="0.921"/>
		<rect x="532.487" y="77.704" fill="#F7A608" width="8.227" height="0.921"/>
	</g>
	<g opacity="0.5">
		<path fill="#FFEAC7" d="M551.529,89.518c0,1.864-1.511,3.375-3.375,3.375l0,0c-1.864,0-3.375-1.511-3.375-3.375v-5.4
			c0-1.864,1.511-3.375,3.375-3.375l0,0c1.864,0,3.375,1.511,3.375,3.375V89.518z"/>
		<path fill-rule="evenodd" clip-rule="evenodd" fill="#F4F5F4" d="M545.284,43.964C542.3,42,535.612,40.63,527.836,40.63
			c-0.088,0-0.175,0.002-0.263,0.003v46.86h12.691V54.298c1.376,2.076,3.355,5.788,3.355,11.46v18.259h9V65.758
			C552.618,56.381,550.32,46.94,545.284,43.964z"/>
		<path fill-rule="evenodd" clip-rule="evenodd" fill="#FFEAC7" d="M528.035,16.094c-0.155,0-0.309,0.005-0.462,0.012v21.876
			c0.153,0.007,0.307,0.012,0.462,0.012c5.882,0,10.65-4.902,10.65-10.95S533.916,16.094,528.035,16.094z"/>
		<path fill-rule="evenodd" clip-rule="evenodd" fill="#7E6055" d="M528.035,16.094c-0.155,0-0.309,0.005-0.462,0.012v6.054
			c1.859,1.283,4.266,2.005,6.224,0.815c1.038-0.631,2.362-0.211,2.982,0.782c0.289,0.463,1.008,0.867,1.714,1.221
			C537.552,19.918,533.229,16.094,528.035,16.094z"/>
		<ellipse fill-rule="evenodd" clip-rule="evenodd" fill="#FFEAC7" cx="538.87" cy="27.4" rx="1.128" ry="2.871"/>
		<g>
			<g>
				<path fill-rule="evenodd" clip-rule="evenodd" fill="#0A88A2" d="M527.572,20.694h12.07c-0.013-0.087-0.033-0.174-0.061-0.264
					c-0.192-0.612-0.698-2.429-0.698-3.091c0-5.161-4.829-9.346-10.786-9.346c-0.176,0-0.351,0.004-0.525,0.011V20.694z"/>
				<path fill-rule="evenodd" clip-rule="evenodd" fill="#0A88A2" d="M527.937,5.807c-0.124,0-0.245,0.011-0.364,0.027v5.523
					c0.12,0.016,0.24,0.027,0.364,0.027c1.535,0,2.788-1.253,2.788-2.788C530.725,7.06,529.472,5.807,527.937,5.807z"/>
				<g>
					<g>
						<path fill-rule="evenodd" clip-rule="evenodd" fill="#106F83" d="M530.926,8.319c1.161,0.272,2.245,0.708,3.216,1.279v6.913
							c0,0.925-0.757,1.682-1.683,1.682l0,0c-0.925,0-1.682-0.757-1.682-1.682V9.009C530.777,8.764,530.83,8.53,530.926,8.319z"/>
					</g>
				</g>
			</g>
			<path fill-rule="evenodd" clip-rule="evenodd" fill="#106F83" d="M537.089,20.095h-9.516v1.8h9.516c0.497,0,0.9-0.403,0.9-0.9
				C537.989,20.498,537.585,20.095,537.089,20.095z"/>
		</g>
		<path fill="#0A88A2" d="M540.468,87.578l-0.192-0.652h-12.703v9.403h2.788c4.056,10.472,6.322,31.061,5.936,44.556l11.246,0.322
			C547.817,131.56,547.063,101.74,540.468,87.578z"/>
		<path fill="#524C40" d="M549.279,144.193c0.123-0.378,0.19-0.781,0.19-1.201c0-2.154-1.746-3.9-3.9-3.9h-6.736
			c-2.154,0-3.9,1.746-3.9,3.9c0,0.419,0.068,0.822,0.191,1.201H549.279z"/>
		<path fill="#FFEAC7" d="M527.836,40.63c-0.088,0-0.175,0-0.263,0v3.889c0.067,0.002,0.134,0.008,0.202,0.008
			c2.503,0,4.538-1.854,4.538-3.718C532.313,40.808,530.08,40.637,527.836,40.63z"/>
		<rect x="527.572" y="84.492" fill="#563B3F" width="13.812" height="4.8"/>
		<polygon fill="#E0B28D" points="531.506,86.054 531.506,83.422 527.572,83.422 527.572,84.322 530.606,84.322 530.606,86.054 
			529.112,86.054 529.112,87.523 530.606,87.523 530.606,89.256 527.572,89.256 527.572,90.156 531.506,90.156 531.506,87.523 
			532.074,87.523 532.074,86.054 		"/>
		<path fill="#C8D521" d="M540.243,56.384l-1.048-0.218l-0.32-14.688l-2.484-0.311v10.248c0,0-0.036,6.015-3.978,6.188
			l-0.031,27.042l8.35-0.153L540.243,56.384z"/>
		<rect x="532.487" y="74.838" fill="#F7A608" width="8.227" height="0.921"/>
		<rect x="532.487" y="77.704" fill="#F7A608" width="8.227" height="0.921"/>
	</g>
</g>
<g>
	<g>
		<circle fill-rule="evenodd" clip-rule="evenodd" fill="#8A8A8A" cx="677.772" cy="7.558" r="1.366"/>
		<path fill="#FFEAC7" d="M660.009,88.807c0,1.864-1.511,3.375-3.375,3.375l0,0c-1.864,0-3.375-1.511-3.375-3.375v-5.4
			c0-1.864,1.511-3.375,3.375-3.375l0,0c1.864,0,3.375,1.511,3.375,3.375V88.807z"/>
		<path fill="#FFEAC7" d="M700.904,88.807c0,1.864-1.511,3.375-3.375,3.375l0,0c-1.864,0-3.375-1.511-3.375-3.375v-5.4
			c0-1.864,1.511-3.375,3.375-3.375l0,0c1.864,0,3.375,1.511,3.375,3.375V88.807z"/>
		<path fill-rule="evenodd" clip-rule="evenodd" fill="#B3B4B6" d="M694.66,43.253c-2.985-1.964-9.672-3.334-17.449-3.334
			c-7.739,0-14.399,1.356-17.405,3.305c-5.069,2.944-7.382,12.415-7.382,21.822v18.259h9V65.047c0-6.192,1.999-10.049,3.248-11.989
			v33.725h24.967V53.587c1.376,2.076,3.355,5.788,3.355,11.46v18.259h9V65.047C701.993,55.67,699.695,46.23,694.66,43.253z"/>
		<ellipse fill-rule="evenodd" clip-rule="evenodd" fill="#FFEAC7" cx="677.41" cy="26.333" rx="10.65" ry="10.95"/>
		<path fill-rule="evenodd" clip-rule="evenodd" fill="#7E6055" d="M668.505,23.266c1.092-1.259,2.482-2.136,3.699-3.259
			c0.841-0.776,2.259-0.904,3.083,0c1.839,2.02,5.264,3.85,7.884,2.257c1.038-0.631,2.362-0.211,2.982,0.782
			c0.289,0.463,1.008,0.867,1.714,1.221c-0.94-5.059-5.263-8.884-10.458-8.884c-5.73,0-10.401,4.653-10.639,10.485
			C667.445,25.102,667.852,24.019,668.505,23.266z"/>
		<ellipse fill-rule="evenodd" clip-rule="evenodd" fill="#FFEAC7" cx="688.245" cy="26.69" rx="1.128" ry="2.871"/>
		<ellipse fill-rule="evenodd" clip-rule="evenodd" fill="#FFEAC7" cx="666.811" cy="26.69" rx="1.128" ry="2.871"/>
		<path fill-rule="evenodd" clip-rule="evenodd" fill="#B3B4B6" d="M689.018,19.984c-0.013-0.087-0.033-0.174-0.061-0.264
			c-0.192-0.612-0.698-2.429-0.698-3.091c0-5.161-4.829-9.346-10.786-9.346c-5.957,0-10.786,4.185-10.786,9.346
			c0,0.581-0.524,2.359-0.892,3.355H689.018z"/>
		<path fill-rule="evenodd" clip-rule="evenodd" fill="#8A8A8A" d="M690.636,20.03c0,0.637-0.517,1.154-1.154,1.154h-23.854
			c-0.638,0-1.154-0.517-1.154-1.154l0,0c0-0.637,0.517-1.154,1.154-1.154h23.854C690.119,18.876,690.636,19.392,690.636,20.03
			L690.636,20.03z"/>
		<path fill="#A5A6A8" d="M689.843,86.868l-0.192-0.652h-24.979v2.277c-5.944,14.705-6.634,42.712-6.368,52.004l11.246-0.322
			c-0.389-13.624,2.344-34.224,6.543-44.556h3.643c4.056,10.472,6.322,31.061,5.936,44.556l11.246,0.322
			C697.192,130.849,696.439,101.03,689.843,86.868z"/>
		<path fill="#524C40" d="M671.055,143.482c0.122-0.378,0.19-0.781,0.19-1.201c0-2.154-1.746-3.9-3.9-3.9h-6.736
			c-2.154,0-3.9,1.746-3.9,3.9c0,0.419,0.068,0.822,0.19,1.201H671.055z"/>
		<path fill="#524C40" d="M698.655,143.482c0.123-0.378,0.19-0.781,0.19-1.201c0-2.154-1.746-3.9-3.9-3.9h-6.736
			c-2.154,0-3.9,1.746-3.9,3.9c0,0.419,0.068,0.822,0.191,1.201H698.655z"/>
		<path fill="#8A8A8A" d="M697.08,124.774c-0.255-4.875-0.681-10.256-1.357-15.568h-12.946c0.884,4.961,1.541,10.346,1.958,15.568
			H697.08z"/>
		<path fill="#8A8A8A" d="M670.614,124.774c0.484-5.208,1.226-10.598,2.195-15.568H659.5c-0.675,5.315-1.1,10.699-1.356,15.568
			H670.614z"/>
		<path fill-rule="evenodd" clip-rule="evenodd" fill="#8A8A8A" d="M661.874,71.482v-6.435c0-1.688,0.158-3.291,0.455-4.815h-10.146
			c-0.142,1.627-0.209,3.25-0.209,4.815v6.435H661.874z"/>
		<path fill-rule="evenodd" clip-rule="evenodd" fill="#8A8A8A" d="M692.543,71.482h9.9v-6.435c0-1.564-0.067-3.187-0.209-4.815
			h-10.22c0.349,1.527,0.529,3.125,0.529,4.815V71.482z"/>
		<path fill-rule="evenodd" clip-rule="evenodd" fill="#F4F5F4" d="M684.836,40.39c-2.337-0.3-4.912-0.47-7.625-0.47
			c-2.559,0-4.995,0.151-7.225,0.42v43.293h14.85V40.39z"/>
		<path fill="#FFEAC7" d="M672.59,40.078c-0.006,0.071,0.028,0.292,0.028,0.364c0,1.864,2.029,3.375,4.532,3.375
			c2.503,0,4.538-1.854,4.538-3.718c0-0.001-2.233-0.172-4.477-0.179C674.944,39.913,672.665,40.071,672.59,40.078z"/>
		<rect x="664.059" y="83.782" fill="#563B3F" width="26.7" height="4.8"/>
		<g>
			<g>
				<g>
					<path fill="#E0B28D" d="M680.881,89.445h-6.591v-6.734h6.591V89.445z M675.19,88.545h4.791v-4.934h-4.791V88.545z"/>
				</g>
				<g>
					<rect x="678.487" y="85.344" fill="#E0B28D" width="2.963" height="1.469"/>
				</g>
			</g>
		</g>
		<polygon fill="#8A8A8A" points="686.786,84.109 683.786,83.809 681.686,39.682 686.486,39.682 		"/>
		<polygon fill="#8A8A8A" points="666.986,83.933 669.986,83.632 672.386,39.682 667.585,39.682 		"/>
	</g>
	<g opacity="0.5">
		<path fill-rule="evenodd" clip-rule="evenodd" fill="#8A8A8A" d="M677.772,6.193c-0.272,0-0.524,0.082-0.737,0.22v2.292
			c0.213,0.138,0.465,0.22,0.737,0.22c0.751,0,1.365-0.613,1.365-1.366C679.137,6.806,678.523,6.193,677.772,6.193z"/>
		<path fill="#FFEAC7" d="M700.904,88.807c0,1.864-1.511,3.375-3.375,3.375l0,0c-1.864,0-3.375-1.511-3.375-3.375v-5.4
			c0-1.864,1.511-3.375,3.375-3.375l0,0c1.864,0,3.375,1.511,3.375,3.375V88.807z"/>
		<path fill-rule="evenodd" clip-rule="evenodd" fill="#B3B4B6" d="M694.66,43.253c-2.985-1.964-9.672-3.334-17.449-3.334
			c-0.059,0-0.117,0.002-0.176,0.002v46.861h12.604V53.587c1.376,2.076,3.355,5.788,3.355,11.46v18.259h9V65.047
			C701.993,55.67,699.695,46.23,694.66,43.253z"/>
		<path fill-rule="evenodd" clip-rule="evenodd" fill="#FFEAC7" d="M677.41,15.384c-0.126,0-0.25,0.005-0.375,0.01v21.88
			c0.125,0.004,0.249,0.01,0.375,0.01c5.882,0,10.65-4.902,10.65-10.95S683.292,15.384,677.41,15.384z"/>
		<path fill-rule="evenodd" clip-rule="evenodd" fill="#7E6055" d="M677.41,15.384c-0.126,0-0.25,0.005-0.375,0.009v6.113
			c1.847,1.247,4.209,1.93,6.137,0.758c1.038-0.631,2.362-0.211,2.982,0.782c0.289,0.463,1.008,0.867,1.714,1.221
			C686.928,19.208,682.604,15.384,677.41,15.384z"/>
		<ellipse fill-rule="evenodd" clip-rule="evenodd" fill="#FFEAC7" cx="688.245" cy="26.69" rx="1.128" ry="2.871"/>
		<path fill-rule="evenodd" clip-rule="evenodd" fill="#B3B4B6" d="M677.035,19.984h11.983c-0.013-0.087-0.033-0.174-0.061-0.264
			c-0.192-0.612-0.698-2.429-0.698-3.091c0-5.161-4.829-9.346-10.786-9.346c-0.147,0-0.293,0.005-0.438,0.01V19.984z"/>
		<path fill-rule="evenodd" clip-rule="evenodd" fill="#8A8A8A" d="M689.482,18.876h-12.448v2.308h12.448
			c0.637,0,1.154-0.517,1.154-1.154S690.119,18.876,689.482,18.876z"/>
		<path fill="#A5A6A8" d="M689.843,86.868l-0.192-0.652h-12.616v9.403h2.701c4.056,10.472,6.322,31.061,5.936,44.556l11.246,0.322
			C697.192,130.849,696.439,101.03,689.843,86.868z"/>
		<path fill="#524C40" d="M698.655,143.482c0.123-0.378,0.19-0.781,0.19-1.201c0-2.154-1.746-3.9-3.9-3.9h-6.736
			c-2.154,0-3.9,1.746-3.9,3.9c0,0.419,0.068,0.822,0.191,1.201H698.655z"/>
		<path fill="#8A8A8A" d="M697.08,124.774c-0.255-4.875-0.681-10.256-1.357-15.568h-12.946c0.884,4.961,1.541,10.346,1.958,15.568
			H697.08z"/>
		<path fill-rule="evenodd" clip-rule="evenodd" fill="#8A8A8A" d="M692.543,71.482h9.9v-6.435c0-1.564-0.067-3.187-0.209-4.815
			h-10.22c0.349,1.527,0.529,3.125,0.529,4.815V71.482z"/>
		<path fill-rule="evenodd" clip-rule="evenodd" fill="#F4F5F4" d="M677.211,39.92c-0.059,0-0.117,0.002-0.176,0.003v43.71h7.801
			V40.39C682.499,40.09,679.924,39.92,677.211,39.92z"/>
		<path fill="#FFEAC7" d="M677.211,39.92c-0.059,0-0.117,0-0.176,0v3.892c0.039,0.001,0.076,0.004,0.115,0.004
			c2.503,0,4.538-1.854,4.538-3.718C681.688,40.098,679.455,39.927,677.211,39.92z"/>
		<rect x="677.035" y="83.782" fill="#563B3F" width="13.725" height="4.8"/>
		<g>
			<g>
				<g>
					<polygon fill="#E0B28D" points="677.035,82.711 677.035,83.611 679.981,83.611 679.981,88.545 677.035,88.545 677.035,89.445 
						680.881,89.445 680.881,82.711 					"/>
				</g>
				<g>
					<rect x="678.487" y="85.344" fill="#E0B28D" width="2.963" height="1.469"/>
				</g>
			</g>
		</g>
		<polygon fill="#8A8A8A" points="686.786,84.109 683.786,83.809 681.686,39.682 686.486,39.682 		"/>
	</g>
</g>
<g>
	<g>
		<path fill="#FFEAC7" d="M807.079,89.518c0,1.864-1.511,3.375-3.375,3.375l0,0c-1.864,0-3.375-1.511-3.375-3.375v-5.4
			c0-1.864,1.511-3.375,3.375-3.375l0,0c1.864,0,3.375,1.511,3.375,3.375V89.518z"/>
		<path fill="#FFEAC7" d="M847.974,89.518c0,1.864-1.511,3.375-3.375,3.375l0,0c-1.864,0-3.375-1.511-3.375-3.375v-5.4
			c0-1.864,1.511-3.375,3.375-3.375l0,0c1.864,0,3.375,1.511,3.375,3.375V89.518z"/>
		<path fill-rule="evenodd" clip-rule="evenodd" fill="#FFD634" d="M841.729,43.964c-2.984-1.964-9.672-3.334-17.448-3.334
			c-7.739,0-14.4,1.356-17.405,3.305c-5.069,2.944-7.382,12.415-7.382,21.822v18.259h9V65.758c0-6.192,1.999-10.049,3.248-11.989
			v33.725h24.967V54.298c1.377,2.076,3.355,5.788,3.355,11.46v18.259h9V65.758C849.063,56.381,846.765,46.94,841.729,43.964z"/>
		<ellipse fill-rule="evenodd" clip-rule="evenodd" fill="#FFEAC7" cx="824.479" cy="27.044" rx="10.65" ry="10.95"/>
		<path fill-rule="evenodd" clip-rule="evenodd" fill="#7E6055" d="M815.575,23.976c1.092-1.259,2.482-2.136,3.699-3.259
			c0.841-0.776,2.259-0.904,3.083,0c1.839,2.02,5.264,3.85,7.884,2.257c1.038-0.631,2.362-0.211,2.982,0.782
			c0.289,0.463,1.008,0.867,1.714,1.221c-0.94-5.059-5.264-8.884-10.458-8.884c-5.73,0-10.401,4.653-10.639,10.485
			C814.515,25.813,814.922,24.73,815.575,23.976z"/>
		<ellipse fill-rule="evenodd" clip-rule="evenodd" fill="#FFEAC7" cx="835.315" cy="27.4" rx="1.128" ry="2.871"/>
		<ellipse fill-rule="evenodd" clip-rule="evenodd" fill="#FFEAC7" cx="813.881" cy="27.4" rx="1.128" ry="2.871"/>
		<g>
			<g>
				<path fill-rule="evenodd" clip-rule="evenodd" fill="#F6CD7D" d="M836.088,20.694c-0.013-0.087-0.033-0.174-0.061-0.264
					c-0.192-0.612-0.698-2.429-0.698-3.091c0-5.161-4.829-9.346-10.786-9.346c-5.957,0-10.786,4.185-10.786,9.346
					c0,0.581-0.524,2.359-0.893,3.355H836.088z"/>
				<path fill-rule="evenodd" clip-rule="evenodd" fill="#F6CD7D" d="M824.382,11.384c1.535,0,2.788-1.253,2.788-2.788
					c0-1.536-1.253-2.788-2.788-2.788c-1.536,0-2.788,1.252-2.788,2.788C821.593,10.131,822.846,11.384,824.382,11.384z"/>
				<g>
					<path fill-rule="evenodd" clip-rule="evenodd" fill="#E2B459" d="M818.176,9.795c0.971-0.617,2.066-1.095,3.246-1.404
						c0.076,0.192,0.118,0.4,0.118,0.618v7.501c0,0.925-0.757,1.682-1.682,1.682l0,0c-0.926,0-1.682-0.757-1.682-1.682V9.795z"/>
					<path fill-rule="evenodd" clip-rule="evenodd" fill="#E2B459" d="M827.371,8.319c1.161,0.272,2.245,0.708,3.215,1.279v6.913
						c0,0.925-0.757,1.682-1.683,1.682l0,0c-0.925,0-1.682-0.757-1.682-1.682V9.009C827.222,8.764,827.275,8.53,827.371,8.319z"/>
				</g>
			</g>
			<path fill-rule="evenodd" clip-rule="evenodd" fill="#E2B459" d="M834.433,20.995c0,0.497-0.403,0.9-0.9,0.9h-18.6
				c-0.497,0-0.9-0.403-0.9-0.9l0,0c0-0.497,0.403-0.9,0.9-0.9h18.6C834.03,20.095,834.433,20.498,834.433,20.995L834.433,20.995z"
				/>
		</g>
		<path fill="#F39140" d="M836.913,87.578l-0.192-19.439h-24.979v21.065c-5.944,14.705-6.634,42.712-6.368,52.004l11.246-0.322
			c-0.389-13.624,2.344-34.224,6.543-44.556h3.643c4.056,10.472,6.322,31.061,5.936,44.556l11.246,0.322
			C844.262,131.56,843.508,101.74,836.913,87.578z"/>
		<path fill="#524C40" d="M818.124,144.193c0.122-0.378,0.19-0.781,0.19-1.201c0-2.154-1.746-3.9-3.9-3.9h-6.736
			c-2.154,0-3.9,1.746-3.9,3.9c0,0.419,0.068,0.822,0.19,1.201H818.124z"/>
		<path fill="#524C40" d="M845.724,144.193c0.122-0.378,0.19-0.781,0.19-1.201c0-2.154-1.746-3.9-3.9-3.9h-6.736
			c-2.154,0-3.9,1.746-3.9,3.9c0,0.419,0.068,0.822,0.19,1.201H845.724z"/>
		<rect x="815.233" y="53.006" fill="#F39140" width="17.554" height="19.067"/>
		<polygon fill="#F39140" points="813.797,41.402 815.533,54.423 818.909,53.748 817.077,41.017 		"/>
		<polygon fill="#F39140" points="834.297,41.402 832.56,54.423 829.185,53.748 831.017,41.017 		"/>
		<path fill="#FFEAC7" d="M819.659,40.789c-0.006,0.071,0.028,0.292,0.028,0.364c0,1.864,2.029,3.375,4.532,3.375
			c2.503,0,4.538-1.854,4.538-3.718c0-0.001-2.233-0.172-4.477-0.179C822.013,40.623,819.735,40.781,819.659,40.789z"/>
		<path fill="#BA7230" d="M817.807,62.602v6.097c0,2.308,1.871,4.18,4.18,4.18h4.201c2.308,0,4.18-1.871,4.18-4.18v-6.097H817.807z"
			/>
		<rect x="811.129" y="84.492" fill="#E0B28D" width="26.7" height="4.8"/>
		
			<rect x="821.81" y="83.872" fill="none" stroke="#563B3F" stroke-width="2" stroke-miterlimit="10" width="5.691" height="5.834"/>
		
			<rect x="826.007" y="86.504" fill="none" stroke="#563B3F" stroke-width="2" stroke-miterlimit="10" width="2.063" height="0.569"/>
	</g>
	<g opacity="0.5">
		<path fill="#FFEAC7" d="M847.974,89.518c0,1.864-1.511,3.375-3.375,3.375l0,0c-1.864,0-3.375-1.511-3.375-3.375v-5.4
			c0-1.864,1.511-3.375,3.375-3.375l0,0c1.864,0,3.375,1.511,3.375,3.375V89.518z"/>
		<path fill-rule="evenodd" clip-rule="evenodd" fill="#FFD634" d="M841.729,43.964c-2.921-1.923-9.394-3.272-16.959-3.328v46.858
			h11.938V54.298c1.377,2.076,3.355,5.788,3.355,11.46v18.259h9V65.758C849.063,56.381,846.765,46.94,841.729,43.964z"/>
		<path fill-rule="evenodd" clip-rule="evenodd" fill="#FFEAC7" d="M824.77,16.102v21.885c5.747-0.159,10.36-4.995,10.36-10.942
			S830.517,16.26,824.77,16.102z"/>
		<path fill-rule="evenodd" clip-rule="evenodd" fill="#7E6055" d="M824.77,16.107v6.518c1.727,0.969,3.768,1.385,5.471,0.349
			c1.038-0.631,2.362-0.211,2.982,0.782c0.289,0.463,1.008,0.867,1.714,1.221C834.015,20.014,829.833,16.248,824.77,16.107z"/>
		<ellipse fill-rule="evenodd" clip-rule="evenodd" fill="#FFEAC7" cx="835.315" cy="27.4" rx="1.128" ry="2.871"/>
		<g>
			<g>
				<path fill-rule="evenodd" clip-rule="evenodd" fill="#F6CD7D" d="M824.77,20.694h11.318c-0.013-0.087-0.033-0.174-0.061-0.264
					c-0.192-0.612-0.698-2.429-0.698-3.091c0-5.095-4.707-9.236-10.559-9.341V20.694z"/>
				<path fill-rule="evenodd" clip-rule="evenodd" fill="#F6CD7D" d="M824.77,5.837v5.516c1.352-0.19,2.4-1.354,2.4-2.758
					C827.17,7.192,826.122,6.028,824.77,5.837z"/>
				<g>
					<path fill-rule="evenodd" clip-rule="evenodd" fill="#E2B459" d="M827.371,8.319c1.161,0.272,2.245,0.708,3.215,1.279v6.913
						c0,0.925-0.757,1.682-1.683,1.682l0,0c-0.925,0-1.682-0.757-1.682-1.682V9.009C827.222,8.764,827.275,8.53,827.371,8.319z"/>
				</g>
			</g>
			<path fill-rule="evenodd" clip-rule="evenodd" fill="#E2B459" d="M833.533,20.095h-8.764v1.8h8.764c0.497,0,0.9-0.403,0.9-0.9
				C834.433,20.498,834.03,20.095,833.533,20.095z"/>
		</g>
		<path fill="#F39140" d="M836.913,87.578l-0.192-19.439H824.77V96.33h2.035c4.056,10.472,6.322,31.061,5.936,44.556l11.246,0.322
			C844.262,131.56,843.508,101.74,836.913,87.578z"/>
		<path fill="#524C40" d="M845.724,144.193c0.122-0.378,0.19-0.781,0.19-1.201c0-2.154-1.746-3.9-3.9-3.9h-6.736
			c-2.154,0-3.9,1.746-3.9,3.9c0,0.419,0.068,0.822,0.19,1.201H845.724z"/>
		<rect x="824.77" y="53.006" fill="#F39140" width="8.017" height="19.067"/>
		<polygon fill="#F39140" points="834.297,41.402 832.56,54.423 829.185,53.748 831.017,41.017 		"/>
		<path fill="#FFEAC7" d="M824.77,40.634v3.86c2.244-0.247,3.988-1.96,3.988-3.685C828.758,40.808,826.838,40.661,824.77,40.634z"/>
		<path fill="#BA7230" d="M824.77,62.602v10.277h1.417c2.308,0,4.18-1.871,4.18-4.18v-6.097H824.77z"/>
		<rect x="824.77" y="84.492" fill="#E0B28D" width="13.059" height="4.8"/>
		
			<rect x="824.77" y="83.872" fill="none" stroke="#563B3F" stroke-width="2" stroke-miterlimit="10" width="2.731" height="5.834"/>
		
			<rect x="826.007" y="86.504" fill="none" stroke="#563B3F" stroke-width="2" stroke-miterlimit="10" width="2.063" height="0.569"/>
	</g>
</g>
<g>
	<g>
		<path fill="#FFEAC7" d="M958.248,89.518c0,1.864-1.511,3.375-3.375,3.375l0,0c-1.864,0-3.375-1.511-3.375-3.375v-5.4
			c0-1.864,1.511-3.375,3.375-3.375l0,0c1.864,0,3.375,1.511,3.375,3.375V89.518z"/>
		<path fill="#FFEAC7" d="M999.144,89.518c0,1.864-1.511,3.375-3.375,3.375l0,0c-1.864,0-3.375-1.511-3.375-3.375v-5.4
			c0-1.864,1.511-3.375,3.375-3.375l0,0c1.864,0,3.375,1.511,3.375,3.375V89.518z"/>
		<path fill-rule="evenodd" clip-rule="evenodd" fill="#E3545C" d="M992.898,43.964c-2.984-1.964-9.671-3.334-17.448-3.334
			c-7.74,0-14.4,1.356-17.405,3.305c-5.069,2.944-7.382,12.415-7.382,21.822v18.259h9V65.758c0-6.192,1.999-10.049,3.248-11.99
			v33.725h24.967V54.297c1.377,2.076,3.355,5.788,3.355,11.461v18.259h9V65.758C1000.232,56.38,997.934,46.94,992.898,43.964z"/>
		<ellipse fill-rule="evenodd" clip-rule="evenodd" fill="#FFEAC7" cx="975.649" cy="27.044" rx="10.65" ry="10.95"/>
		<path fill-rule="evenodd" clip-rule="evenodd" fill="#7E6055" d="M966.744,23.976c1.092-1.259,2.482-2.135,3.699-3.259
			c0.842-0.776,2.259-0.904,3.083,0c1.839,2.02,5.264,3.85,7.884,2.258c1.038-0.631,2.362-0.211,2.983,0.782
			c0.289,0.463,1.008,0.867,1.714,1.221c-0.94-5.059-5.264-8.884-10.458-8.884c-5.73,0-10.401,4.653-10.639,10.485
			C965.684,25.813,966.091,24.73,966.744,23.976z"/>
		<ellipse fill-rule="evenodd" clip-rule="evenodd" fill="#FFEAC7" cx="986.484" cy="27.4" rx="1.128" ry="2.871"/>
		<ellipse fill-rule="evenodd" clip-rule="evenodd" fill="#FFEAC7" cx="965.05" cy="27.4" rx="1.128" ry="2.871"/>
		<g>
			<g>
				<path fill-rule="evenodd" clip-rule="evenodd" fill="#F6CD7D" d="M987.257,20.694c-0.013-0.086-0.033-0.174-0.061-0.264
					c-0.192-0.613-0.698-2.429-0.698-3.092c0-5.161-4.829-9.346-10.786-9.346c-5.957,0-10.785,4.184-10.785,9.346
					c0,0.581-0.525,2.359-0.893,3.355H987.257z"/>
				<path fill-rule="evenodd" clip-rule="evenodd" fill="#F6CD7D" d="M975.551,11.384c1.535,0,2.788-1.253,2.788-2.789
					c0-1.535-1.253-2.788-2.788-2.788c-1.536,0-2.788,1.252-2.788,2.788C972.763,10.131,974.015,11.384,975.551,11.384z"/>
				<g>
					<path fill-rule="evenodd" clip-rule="evenodd" fill="#E2B459" d="M969.345,9.795c0.971-0.617,2.066-1.095,3.247-1.404
						c0.076,0.192,0.118,0.4,0.118,0.618v7.501c0,0.925-0.756,1.682-1.682,1.682l0,0c-0.926,0-1.683-0.757-1.683-1.682V9.795z"/>
					<path fill-rule="evenodd" clip-rule="evenodd" fill="#E2B459" d="M978.54,8.319c1.161,0.272,2.245,0.708,3.216,1.278v6.913
						c0,0.925-0.757,1.682-1.683,1.682l0,0c-0.925,0-1.682-0.757-1.682-1.682V9.009C978.391,8.764,978.445,8.529,978.54,8.319z"/>
				</g>
			</g>
			<path fill-rule="evenodd" clip-rule="evenodd" fill="#E2B459" d="M985.602,20.995c0,0.497-0.403,0.9-0.9,0.9h-18.599
				c-0.497,0-0.9-0.403-0.9-0.9l0,0c0-0.497,0.403-0.9,0.9-0.9h18.599C985.2,20.095,985.602,20.497,985.602,20.995L985.602,20.995z"
				/>
		</g>
		<path fill="#0A88A2" d="M988.082,87.578l-0.192-19.439h-24.979v21.065c-5.944,14.705-6.634,42.712-6.368,52.004l11.246-0.322
			c-0.389-13.624,2.344-34.224,6.543-44.556h3.643c4.055,10.472,6.322,31.061,5.936,44.556l11.246,0.322
			C995.431,131.56,994.678,101.74,988.082,87.578z"/>
		<path fill="#524C40" d="M969.293,144.193c0.123-0.378,0.191-0.781,0.191-1.201c0-2.154-1.746-3.9-3.901-3.9h-6.736
			c-2.153,0-3.9,1.746-3.9,3.9c0,0.419,0.068,0.822,0.19,1.201H969.293z"/>
		<path fill="#524C40" d="M996.894,144.193c0.122-0.378,0.19-0.781,0.19-1.201c0-2.154-1.746-3.9-3.9-3.9h-6.736
			c-2.154,0-3.9,1.746-3.9,3.9c0,0.419,0.068,0.822,0.19,1.201H996.894z"/>
		<rect x="966.402" y="53.006" fill="#0A88A2" width="17.554" height="19.067"/>
		<polygon fill="#0A88A2" points="964.967,41.402 966.702,54.423 970.078,53.748 968.246,41.016 		"/>
		<polygon fill="#0A88A2" points="985.466,41.402 983.729,54.423 980.354,53.748 982.187,41.016 		"/>
		<path fill="#FFEAC7" d="M970.828,40.339c-0.006,0.071,0.028,0.292,0.028,0.364c0,1.864,2.029,3.375,4.532,3.375
			c2.503,0,4.539-1.854,4.539-3.718c0-0.001-2.233-0.172-4.477-0.179C973.183,40.173,970.904,40.331,970.828,40.339z"/>
		<path fill="#106F83" d="M968.976,62.602v6.097c0,2.308,1.872,4.18,4.18,4.18h4.201c2.308,0,4.179-1.871,4.179-4.18v-6.097H968.976
			z"/>
		<rect x="962.298" y="84.492" fill="#986568" width="26.7" height="4.8"/>
		
			<rect x="972.979" y="83.872" fill="none" stroke="#563B3F" stroke-width="2" stroke-miterlimit="10" width="5.691" height="5.834"/>
		
			<rect x="977.176" y="86.504" fill="none" stroke="#563B3F" stroke-width="2" stroke-miterlimit="10" width="2.063" height="0.569"/>
	</g>
	<g opacity="0.5">
		<path fill="#FFEAC7" d="M999.144,89.518c0,1.864-1.511,3.375-3.375,3.375l0,0c-1.864,0-3.375-1.511-3.375-3.375v-5.4
			c0-1.864,1.511-3.375,3.375-3.375l0,0c1.864,0,3.375,1.511,3.375,3.375V89.518z"/>
		<path fill-rule="evenodd" clip-rule="evenodd" fill="#E3545C" d="M992.898,43.964c-2.839-1.869-9.033-3.197-16.327-3.321v46.851
			h11.306V54.297c1.377,2.076,3.355,5.788,3.355,11.461v18.259h9V65.758C1000.232,56.38,997.934,46.94,992.898,43.964z"/>
		<path fill-rule="evenodd" clip-rule="evenodd" fill="#FFEAC7" d="M976.572,16.137V37.95c5.449-0.481,9.727-5.179,9.727-10.906
			C986.299,21.316,982.021,16.619,976.572,16.137z"/>
		<path fill-rule="evenodd" clip-rule="evenodd" fill="#7E6055" d="M976.572,16.136v6.814c1.578,0.724,3.34,0.936,4.838,0.025
			c1.038-0.631,2.362-0.211,2.983,0.782c0.289,0.463,1.008,0.867,1.714,1.221C985.223,20.221,981.349,16.558,976.572,16.136z"/>
		<ellipse fill-rule="evenodd" clip-rule="evenodd" fill="#FFEAC7" cx="986.484" cy="27.4" rx="1.128" ry="2.871"/>
		<g>
			<g>
				<path fill-rule="evenodd" clip-rule="evenodd" fill="#F6CD7D" d="M976.572,20.694h10.685c-0.013-0.086-0.033-0.174-0.061-0.264
					c-0.192-0.613-0.698-2.429-0.698-3.092c0-4.91-4.371-8.934-9.926-9.314V20.694z"/>
				<path fill-rule="evenodd" clip-rule="evenodd" fill="#F6CD7D" d="M976.572,6.004v5.183c1.033-0.409,1.768-1.416,1.768-2.592
					C978.339,7.42,977.604,6.413,976.572,6.004z"/>
				<g>
					<path fill-rule="evenodd" clip-rule="evenodd" fill="#E2B459" d="M978.54,8.319c1.161,0.272,2.245,0.708,3.216,1.278v6.913
						c0,0.925-0.757,1.682-1.683,1.682l0,0c-0.925,0-1.682-0.757-1.682-1.682V9.009C978.391,8.764,978.445,8.529,978.54,8.319z"/>
				</g>
			</g>
			<path fill-rule="evenodd" clip-rule="evenodd" fill="#E2B459" d="M984.702,20.095h-8.131v1.8h8.131c0.497,0,0.9-0.403,0.9-0.9
				C985.602,20.497,985.2,20.095,984.702,20.095z"/>
		</g>
		<path fill="#0A88A2" d="M988.082,87.578l-0.192-19.439h-11.319V96.33h1.403c4.055,10.472,6.322,31.061,5.936,44.556l11.246,0.322
			C995.431,131.56,994.678,101.74,988.082,87.578z"/>
		<path fill="#524C40" d="M996.894,144.193c0.122-0.378,0.19-0.781,0.19-1.201c0-2.154-1.746-3.9-3.9-3.9h-6.736
			c-2.154,0-3.9,1.746-3.9,3.9c0,0.419,0.068,0.822,0.19,1.201H996.894z"/>
		<rect x="976.572" y="53.006" fill="#0A88A2" width="7.384" height="19.067"/>
		<polygon fill="#0A88A2" points="985.466,41.402 983.729,54.423 980.354,53.748 982.187,41.016 		"/>
		<path fill="#FFEAC7" d="M976.572,40.196v3.736c1.93-0.466,3.356-2.014,3.356-3.573C979.927,40.358,978.382,40.24,976.572,40.196z"
			/>
		<path fill="#106F83" d="M976.572,62.602v10.277h0.785c2.308,0,4.179-1.871,4.179-4.18v-6.097H976.572z"/>
		<rect x="976.572" y="84.492" fill="#986568" width="12.426" height="4.8"/>
		
			<rect x="976.572" y="83.872" fill="none" stroke="#563B3F" stroke-width="2" stroke-miterlimit="10" width="2.098" height="5.834"/>
		
			<rect x="977.176" y="86.504" fill="none" stroke="#563B3F" stroke-width="2" stroke-miterlimit="10" width="2.063" height="0.569"/>
	</g>
</g>
<g>
	<g>
		<path fill="#FFEAC7" d="M1108.579,89.518c0,1.864-1.511,3.375-3.375,3.375l0,0c-1.864,0-3.375-1.511-3.375-3.375v-5.4
			c0-1.864,1.511-3.375,3.375-3.375l0,0c1.864,0,3.375,1.511,3.375,3.375V89.518z"/>
		<path fill="#FFEAC7" d="M1149.474,89.518c0,1.864-1.511,3.375-3.375,3.375l0,0c-1.864,0-3.375-1.511-3.375-3.375v-5.4
			c0-1.864,1.511-3.375,3.375-3.375l0,0c1.864,0,3.375,1.511,3.375,3.375V89.518z"/>
		<path fill-rule="evenodd" clip-rule="evenodd" fill="#F4F5F4" d="M1143.229,43.964c-2.984-1.964-9.672-3.334-17.448-3.334
			c-7.739,0-14.4,1.356-17.405,3.305c-5.069,2.944-7.382,12.415-7.382,21.822v18.259h9V65.758c0-6.192,1.999-10.049,3.248-11.989
			v33.725h24.967V54.298c1.377,2.076,3.355,5.788,3.355,11.46v18.259h9V65.758C1150.563,56.381,1148.265,46.94,1143.229,43.964z"/>
		<ellipse fill-rule="evenodd" clip-rule="evenodd" fill="#FFEAC7" cx="1125.979" cy="27.044" rx="10.65" ry="10.95"/>
		<path fill-rule="evenodd" clip-rule="evenodd" fill="#7E6055" d="M1117.075,23.976c1.092-1.259,2.482-2.136,3.699-3.259
			c0.841-0.776,2.259-0.904,3.083,0c1.839,2.02,5.264,3.85,7.884,2.257c1.038-0.631,2.362-0.211,2.982,0.782
			c0.289,0.463,1.008,0.867,1.714,1.221c-0.94-5.059-5.264-8.884-10.458-8.884c-5.73,0-10.401,4.653-10.639,10.485
			C1116.015,25.813,1116.422,24.73,1117.075,23.976z"/>
		<ellipse fill-rule="evenodd" clip-rule="evenodd" fill="#FFEAC7" cx="1136.815" cy="27.4" rx="1.128" ry="2.871"/>
		<ellipse fill-rule="evenodd" clip-rule="evenodd" fill="#FFEAC7" cx="1115.381" cy="27.4" rx="1.128" ry="2.871"/>
		<g>
			<g>
				<path fill-rule="evenodd" clip-rule="evenodd" fill="#F6CD7D" d="M1137.588,20.694c-0.013-0.087-0.033-0.174-0.061-0.264
					c-0.192-0.612-0.698-2.429-0.698-3.091c0-5.161-4.829-9.346-10.786-9.346c-5.957,0-10.786,4.185-10.786,9.346
					c0,0.581-0.524,2.359-0.892,3.355H1137.588z"/>
				<path fill-rule="evenodd" clip-rule="evenodd" fill="#F6CD7D" d="M1125.882,11.384c1.535,0,2.788-1.253,2.788-2.788
					c0-1.536-1.253-2.788-2.788-2.788c-1.536,0-2.788,1.252-2.788,2.788C1123.093,10.131,1124.346,11.384,1125.882,11.384z"/>
				<g>
					<path fill-rule="evenodd" clip-rule="evenodd" fill="#E2B459" d="M1119.676,9.795c0.971-0.617,2.066-1.095,3.246-1.404
						c0.076,0.192,0.118,0.4,0.118,0.618v7.501c0,0.925-0.756,1.682-1.682,1.682l0,0c-0.926,0-1.682-0.757-1.682-1.682V9.795z"/>
					<path fill-rule="evenodd" clip-rule="evenodd" fill="#E2B459" d="M1128.871,8.319c1.161,0.272,2.245,0.708,3.215,1.279v6.913
						c0,0.925-0.757,1.682-1.683,1.682l0,0c-0.925,0-1.682-0.757-1.682-1.682V9.009C1128.722,8.764,1128.775,8.53,1128.871,8.319z"
						/>
				</g>
			</g>
			<path fill-rule="evenodd" clip-rule="evenodd" fill="#E2B459" d="M1135.933,20.995c0,0.497-0.403,0.9-0.9,0.9h-18.6
				c-0.497,0-0.9-0.403-0.9-0.9l0,0c0-0.497,0.403-0.9,0.9-0.9h18.6C1135.53,20.095,1135.933,20.498,1135.933,20.995
				L1135.933,20.995z"/>
		</g>
		<path fill="#0A88A2" d="M1138.413,87.578l-0.192-19.439h-24.979v21.065c-5.944,14.705-6.634,42.712-6.368,52.004l11.246-0.322
			c-0.389-13.624,2.344-34.224,6.543-44.556h3.643c4.056,10.472,6.322,31.061,5.936,44.556l11.246,0.322
			C1145.762,131.56,1145.008,101.74,1138.413,87.578z"/>
		<path fill="#524C40" d="M1119.624,144.193c0.122-0.378,0.19-0.781,0.19-1.201c0-2.154-1.746-3.9-3.9-3.9h-6.736
			c-2.154,0-3.9,1.746-3.9,3.9c0,0.419,0.068,0.822,0.19,1.201H1119.624z"/>
		<path fill="#524C40" d="M1147.224,144.193c0.122-0.378,0.19-0.781,0.19-1.201c0-2.154-1.746-3.9-3.9-3.9h-6.736
			c-2.154,0-3.9,1.746-3.9,3.9c0,0.419,0.068,0.822,0.19,1.201H1147.224z"/>
		<rect x="1116.733" y="53.006" fill="#0A88A2" width="17.554" height="19.067"/>
		<polygon fill="#0A88A2" points="1115.297,41.402 1117.033,54.423 1120.409,53.748 1118.577,41.017 		"/>
		<polygon fill="#0A88A2" points="1135.797,41.402 1134.06,54.423 1130.685,53.748 1132.517,41.017 		"/>
		<path fill="#FFEAC7" d="M1121.159,40.789c-0.006,0.071,0.028,0.292,0.028,0.364c0,1.864,2.029,3.375,4.532,3.375
			c2.503,0,4.538-1.854,4.538-3.718c0-0.001-2.233-0.172-4.477-0.179C1123.513,40.623,1121.235,40.781,1121.159,40.789z"/>
		<path fill="#106F83" d="M1119.307,62.602v6.097c0,2.308,1.871,4.18,4.18,4.18h4.201c2.308,0,4.18-1.871,4.18-4.18v-6.097H1119.307
			z"/>
		<rect x="1112.629" y="84.492" fill="#A27178" width="26.7" height="4.8"/>
		
			<rect x="1123.309" y="83.872" fill="none" stroke="#563B3F" stroke-width="2" stroke-miterlimit="10" width="5.691" height="5.834"/>
		
			<rect x="1127.507" y="86.504" fill="none" stroke="#563B3F" stroke-width="2" stroke-miterlimit="10" width="2.063" height="0.569"/>
	</g>
	<g opacity="0.5">
		<path fill="#FFEAC7" d="M1149.474,89.518c0,1.864-1.511,3.375-3.375,3.375l0,0c-1.864,0-3.375-1.511-3.375-3.375v-5.4
			c0-1.864,1.511-3.375,3.375-3.375l0,0c1.864,0,3.375,1.511,3.375,3.375V89.518z"/>
		<path fill-rule="evenodd" clip-rule="evenodd" fill="#F4F5F4" d="M1143.229,43.964c-2.984-1.964-9.672-3.334-17.448-3.334
			c-0.054,0-0.106,0.002-0.16,0.002v46.861h12.588V54.298c1.377,2.076,3.355,5.788,3.355,11.46v18.259h9V65.758
			C1150.563,56.381,1148.265,46.94,1143.229,43.964z"/>
		<path fill-rule="evenodd" clip-rule="evenodd" fill="#FFEAC7" d="M1125.98,16.094c-0.12,0-0.24,0.005-0.359,0.009v21.881
			c0.119,0.004,0.238,0.009,0.359,0.009c5.882,0,10.65-4.902,10.65-10.95S1131.861,16.094,1125.98,16.094z"/>
		<path fill-rule="evenodd" clip-rule="evenodd" fill="#7E6055" d="M1125.98,16.094c-0.12,0-0.24,0.005-0.359,0.009v6.124
			c1.845,1.239,4.198,1.916,6.12,0.748c1.038-0.631,2.362-0.211,2.982,0.782c0.289,0.463,1.008,0.867,1.714,1.221
			C1135.497,19.918,1131.174,16.094,1125.98,16.094z"/>
		<ellipse fill-rule="evenodd" clip-rule="evenodd" fill="#FFEAC7" cx="1136.815" cy="27.4" rx="1.128" ry="2.871"/>
		<g>
			<g>
				<path fill-rule="evenodd" clip-rule="evenodd" fill="#F6CD7D" d="M1125.621,20.694h11.967c-0.013-0.087-0.033-0.174-0.061-0.264
					c-0.192-0.612-0.698-2.429-0.698-3.091c0-5.161-4.829-9.346-10.786-9.346c-0.141,0-0.282,0.005-0.422,0.009V20.694z"/>
				<path fill-rule="evenodd" clip-rule="evenodd" fill="#F6CD7D" d="M1125.882,5.807c-0.088,0-0.175,0.005-0.261,0.013v5.55
					c0.086,0.008,0.173,0.013,0.261,0.013c1.535,0,2.788-1.253,2.788-2.788C1128.67,7.06,1127.417,5.807,1125.882,5.807z"/>
				<g>
					<path fill-rule="evenodd" clip-rule="evenodd" fill="#E2B459" d="M1128.871,8.319c1.161,0.272,2.245,0.708,3.215,1.279v6.913
						c0,0.925-0.757,1.682-1.683,1.682l0,0c-0.925,0-1.682-0.757-1.682-1.682V9.009C1128.722,8.764,1128.775,8.53,1128.871,8.319z"
						/>
				</g>
			</g>
			<path fill-rule="evenodd" clip-rule="evenodd" fill="#E2B459" d="M1135.033,20.095h-9.413v1.8h9.413c0.497,0,0.9-0.403,0.9-0.9
				C1135.933,20.498,1135.53,20.095,1135.033,20.095z"/>
		</g>
		<path fill="#0A88A2" d="M1138.413,87.578l-0.192-19.439h-12.6V96.33h2.684c4.056,10.472,6.322,31.061,5.936,44.556l11.246,0.322
			C1145.762,131.56,1145.008,101.74,1138.413,87.578z"/>
		<path fill="#524C40" d="M1147.224,144.193c0.122-0.378,0.19-0.781,0.19-1.201c0-2.154-1.746-3.9-3.9-3.9h-6.736
			c-2.154,0-3.9,1.746-3.9,3.9c0,0.419,0.068,0.822,0.19,1.201H1147.224z"/>
		<rect x="1125.621" y="53.006" fill="#0A88A2" width="8.666" height="19.067"/>
		<polygon fill="#0A88A2" points="1135.797,41.402 1134.06,54.423 1130.685,53.748 1132.517,41.017 		"/>
		<path fill="#FFEAC7" d="M1125.781,40.63c-0.053,0-0.107,0-0.16,0v3.893c0.033,0,0.065,0.004,0.099,0.004
			c2.503,0,4.538-1.854,4.538-3.718C1130.258,40.808,1128.025,40.637,1125.781,40.63z"/>
		<path fill="#106F83" d="M1125.621,62.602v10.277h2.066c2.308,0,4.18-1.871,4.18-4.18v-6.097H1125.621z"/>
		<rect x="1125.621" y="84.492" fill="#A27178" width="13.708" height="4.8"/>
		
			<rect x="1125.621" y="83.872" fill="none" stroke="#563B3F" stroke-width="2" stroke-miterlimit="10" width="3.38" height="5.834"/>
		
			<rect x="1127.507" y="86.504" fill="none" stroke="#563B3F" stroke-width="2" stroke-miterlimit="10" width="2.063" height="0.569"/>
	</g>
</g>
<g>
</g>
<g>
</g>
<g>
</g>
<g>
</g>
<g>
</g>
<g>
</g>
</svg>
