<?xml version="1.0" encoding="utf-8"?>
<!-- Generator: Adobe Illustrator 18.1.1, SVG Export Plug-In . SVG Version: 6.00 Build 0)  -->
<svg version="1.1" id="Layer_1" xmlns="http://www.w3.org/2000/svg" xmlns:xlink="http://www.w3.org/1999/xlink" x="0px" y="0px" width="150px" height="150px" viewBox="0 0 150 150" enable-background="new 0 0 150 150" xml:space="preserve">
<g>
	<path fill="#F4ECE1" d="M69.4,125c1.1,3.8,2.1,7.8,1.5,11.8c-0.7,4.9-4.8,8.7-9.9,8.5c-4-0.1-7.8-3.3-8.8-7.2
		c-1.1-4.3,0.9-8.8,1.8-12.9c0.9-4.5,3.1-12.8-0.6-16.6c2.3-1.1,4.5-2.4,6.3-4C63.8,111,67.3,117.6,69.4,125z"/>
	<path fill="#F4ECE1" d="M88.1,113.6C88.1,113.6,88.1,113.6,88.1,113.6c-1.7,1.7-3.3,3.5-4.9,5.3c-3.5,4-7.7,8.4-9.7,13.4
		c-0.5,1.3-0.8,2.5-0.9,3.7l0,0c0.2-2.4,0-4.9-0.6-7.4c-1.9-8.8-5.7-17.7-11.6-24.6c1.4-1.3,2.5-2.8,3.2-4.4c2-4.5-1.3-8.4-5.4-11
		c0-6.2-2-12.8-4.8-18.3c0.9-0.3,1.7-0.6,2.6-0.9c5.2-1.8,10.4-3.8,15.6-5.9c3.9,6.8,6,13.7,8.1,21.2c0,0.1,0.1,0.2,0.1,0.2
		c-0.3,1.7-0.6,3.3-0.8,5c0,0,0,0,0,0.1c-0.5,1.6-0.6,3.1-0.4,4.4c0,0.2,0,0.5,0,0.7c0,0.2,0.1,0.3,0.3,0.4c0.9,3.5,3.9,6,7.6,7.8
		C87.4,106.7,87.9,110,88.1,113.6z"/>
	<path fill="#F4ECE1" d="M112.3,107.2c1.2,16.2-8,38.9-26.9,39.2c-3.8,0.1-8.4-1.2-10.4-4.8c-2.7-4.7,0.2-10,3-13.8
		c5.5-7.5,11.9-14.5,18.1-21.5c0,0,0,0,0,0c3.6,0.7,7.1,1,9.6,1.1C107.7,107.4,110,107.4,112.3,107.2z"/>
	<path fill="#1E1E1C" d="M133.5,73.2c1.6,5.7,2.7,12.2,2,18.1c-1.3,10.8-11.9,14.7-21.8,15.8c1.3,5.1,0.1,10.7-1.5,15.6
		c-1.6,5-3.6,10.2-6.7,14.4c-5,6.8-13.9,11.7-22.5,10.7c-6.8-0.8-11.1-5.7-10.5-11.8c0.1-1.2,0.4-2.4,0.9-3.7c2-5,6.3-9.4,9.7-13.4
		c1.6-1.8,3.2-3.6,4.9-5.3c0,0,0,0,0,0c-0.2-3.6-0.6-6.9-1.6-10.3c-3.7-1.8-6.7-4.3-7.6-7.8c-0.1-0.1-0.3-0.2-0.3-0.4
		c0-0.2,0-0.5,0-0.7c-0.2-1.3-0.1-2.8,0.4-4.4c0,0,0,0,0-0.1c0.2-1.6,0.5-3.3,0.8-5c-0.1-0.1-0.1-0.1-0.1-0.2
		c-2.1-7.5-4.3-14.5-8.1-21.2l1-0.4c3.6,5.5,6.7,12,7.9,18.5c2.3-9.5,6.7-18.4,14.9-24c9.1-6.2,21.6-7.3,29.9,0.7
		C129.4,62.3,131.9,67.7,133.5,73.2z M131.9,97c3.1-5,2.2-11.8,1.3-17.4c-1.6-9.6-5.6-20.4-15.4-24.2c-10.2-4-21.8,1.5-28.2,9.6
		c-6.3,8-8.5,18.2-10,28c0.7,6.9,9.4,10,15.4,11.3c7.1,1.6,14.6,1.8,21.7,0.4C122.3,103.8,128.8,102,131.9,97z M85.4,146.4
		c19-0.3,28.1-23,26.9-39.2c-2.3,0.2-4.6,0.2-6.7,0.2c-2.5-0.1-6-0.4-9.6-1.1c0,0,0,0,0,0c-6.1,7-12.5,14-18.1,21.5
		c-2.8,3.8-5.7,9.1-3,13.8C77,145.1,81.5,146.4,85.4,146.4z M89.2,112.4c2.1-2.1,4.2-4.2,6.4-6.2c-2.8-0.6-5.6-1.4-8.2-2.5
		C88.6,106.5,89.3,109.5,89.2,112.4z"/>
	<path fill="#F6A933" d="M133.2,79.6c0.9,5.6,1.8,12.3-1.3,17.4c-3.1,5-9.7,6.8-15.1,7.8c-7.2,1.3-14.6,1.2-21.7-0.4
		C89,103,80.4,100,79.6,93.1c1.5-9.9,3.8-20,10-28c6.4-8.1,18-13.6,28.2-9.6C127.6,59.2,131.7,70.1,133.2,79.6z"/>
	<path fill="#1E1E1C" d="M87.3,23.8c4.3,5.3,9.8,12.1,8.9,19.3c-1,7.9-8,12.9-14.7,16c-3,1.4-6,2.7-9.1,4l-1,0.4
		c-5.1,2.1-10.4,4.1-15.6,5.9c-0.8,0.3-1.7,0.6-2.6,0.9l-0.8,0.3c-7.5,2.4-15.2,4.3-23.1,4.9c-6.1,0.5-14.1-0.4-15.4-7.5
		c0-0.1-0.1-0.1-0.1-0.2c-2.3-18.4,2.3-40.1,15-54.2C39.5,1.9,54.9,1,68.4,8C75.8,11.8,82.1,17.4,87.3,23.8z M94.2,44.9
		c1.3-4.4-0.3-8.4-2.5-12.1C84.4,20.6,72.5,9.4,58.4,5.9c-15-3.7-27.2,4.8-34.4,17.5c-7.4,13.2-9.9,28.4-9,43.4
		c0.2,0.1,0.4,0.2,0.4,0.5c2,10.6,18.8,6.3,25.8,4.7c8.4-1.9,16.5-4.8,24.5-8c6.8-2.7,14.2-5.2,20.3-9.2
		C89.7,52.4,92.9,49.1,94.2,44.9z"/>
	<path fill="#F6A933" d="M91.7,32.8c2.2,3.7,3.8,7.7,2.5,12.1c-1.2,4.3-4.5,7.6-8.1,9.9c-6.1,4-13.6,6.5-20.3,9.2
		c-8,3.2-16.1,6.1-24.5,8c-7.1,1.6-23.8,5.8-25.8-4.7c0-0.3-0.2-0.4-0.4-0.5c-0.9-14.9,1.7-30.2,9-43.4C31.2,10.7,43.4,2.2,58.4,5.9
		C72.5,9.4,84.4,20.6,91.7,32.8z"/>
	<path fill="#1E1E1C" d="M71.9,128.6c0.5,2.4,0.8,5,0.6,7.4c-0.4,4.4-2.4,8.4-7.3,10.2c-6.2,2.3-13.2-1.7-14.6-8.1
		c-0.9-4.3,0.9-8.6,1.8-12.7c1-4.7,2.7-11.8-0.1-16.2c-2.7,1.2-5.4,2-7.7,2.6c-0.3,0.1-0.6,0-0.8-0.2c-0.1,0.1-0.3,0.1-0.4,0.1
		c-2.7-0.9-4-5-4.9-7.4c-1.2-3.3-2.3-6.6-1.2-10c2-6,8.4-9,14.3-8c1.6,0.3,3.4,0.9,5.2,1.8c-1.1-5.9-2.3-11.5-4.2-17.3l0.8-0.3
		c2.8,5.5,4.8,12.1,4.8,18.3c4.1,2.5,7.3,6.5,5.4,11c-0.7,1.6-1.8,3.1-3.2,4.4C66.2,111,70,119.8,71.9,128.6z M70.9,136.7
		c0.6-3.9-0.4-8-1.5-11.8c-2.1-7.4-5.6-14-9.7-20.4c-1.8,1.6-4,2.9-6.3,4c3.7,3.7,1.5,12.1,0.6,16.6c-0.8,4.1-2.9,8.7-1.8,12.9
		c1,3.9,4.8,7.1,8.8,7.2C66.1,145.4,70.2,141.6,70.9,136.7z M59.3,102.4c3.4-3.1,4.1-6.7,0.5-10.3c-2-2.1-4.8-3.6-7.7-4.2
		c-5.6-1.3-11.9,1.4-13.6,7.2c-0.8,2.8,0.1,5.6,1.1,8.3c0.1,0.3,3,7.6,3.8,7.1c0.1,0,0.2-0.1,0.3-0.1c0.1-0.1,0.2-0.1,0.4-0.2
		C49.7,108.8,55.1,106.3,59.3,102.4z"/>
	<path fill="#F6A933" d="M59.9,92.1c3.6,3.6,2.9,7.2-0.5,10.3c-4.3,3.9-9.7,6.4-15.2,7.8c-0.1,0-0.3,0.1-0.4,0.2
		c-0.1,0-0.2,0-0.3,0.1c-0.8,0.5-3.7-6.9-3.8-7.1c-0.9-2.6-1.9-5.4-1.1-8.3c1.7-5.8,8.1-8.5,13.6-7.2C55,88.5,57.8,90,59.9,92.1z"/>
</g>
</svg>
