<?xml version="1.0" encoding="utf-8"?>
<!-- Generator: Adobe Illustrator 17.0.0, SVG Export Plug-In . SVG Version: 6.00 Build 0)  -->
<!DOCTYPE svg PUBLIC "-//W3C//DTD SVG 1.1//EN" "http://www.w3.org/Graphics/SVG/1.1/DTD/svg11.dtd">
<svg version="1.1" id="Слой_1" xmlns="http://www.w3.org/2000/svg" xmlns:xlink="http://www.w3.org/1999/xlink" x="0px" y="0px"
	 width="1200px" height="150px" viewBox="0 0 1200 150" enable-background="new 0 0 1200 150" xml:space="preserve">
<g>
	<path fill="#698AC6" d="M89.351,104.681c-0.329,1.46-1.778,2.377-3.237,2.048c-1.46-0.328-2.377-1.777-2.049-3.237
		c1.742-7.661,0.178-14.957-3.466-21.165c-3.352-5.713-8.46-10.524-14.387-13.89c-5.921-3.362-12.634-5.266-19.2-5.165
		c-6.973,0.107-13.805,2.501-19.337,7.853c-0.043,0.041-0.086,0.08-0.13,0.117c-9.211,8.989-10.407,18.505-7.467,26.074
		c1.13,2.909,2.869,5.552,4.996,7.782c2.124,2.228,4.629,4.033,7.294,5.269c6.09,2.827,13.031,2.647,18.006-2.369
		c5.193-5.237,6.096-10.703,4.593-15.08c-0.618-1.798-1.63-3.423-2.907-4.783c-1.29-1.374-2.845-2.478-4.53-3.215
		c-3.837-1.678-8.408-1.438-12.108,1.893c-1.113,1.001-2.828,0.912-3.831-0.202c-1.002-1.113-0.913-2.83,0.201-3.832
		c5.484-4.938,12.242-5.301,17.902-2.826c2.363,1.033,4.529,2.566,6.314,4.467c1.801,1.916,3.226,4.206,4.095,6.737
		c2.12,6.168,1.014,13.703-5.886,20.662c-6.802,6.86-16.078,7.207-24.119,3.472c-3.279-1.522-6.352-3.733-8.952-6.457
		c-2.594-2.72-4.724-5.968-6.121-9.566c-3.654-9.41-2.321-21.091,8.731-31.882c0.051-0.058,0.105-0.113,0.16-0.168
		c6.595-6.38,14.73-9.233,23.031-9.361c7.545-0.116,15.212,2.046,21.939,5.866c6.722,3.818,12.536,9.311,16.382,15.864
		C89.577,86.929,91.423,95.575,89.351,104.681z"/>
	<g>
		<path fill-rule="evenodd" clip-rule="evenodd" fill="#698AC6" d="M112.836,89.107c-10.385,0-20.683,11.608-23.005,25.926
			c-2.321,14.319,4.216,25.926,14.601,25.926c10.384,0,20.684-11.606,23.004-25.926C129.757,100.714,123.22,89.107,112.836,89.107z"
			/>
		<path fill-rule="evenodd" clip-rule="evenodd" fill="#698AC6" d="M75.718,89.107c10.385,0,20.685,11.608,23.005,25.926
			c2.321,14.319-4.216,25.926-14.6,25.926c-10.385,0-20.685-11.606-23.005-25.926C58.796,100.714,65.334,89.107,75.718,89.107z"/>
	</g>
	<path fill-rule="evenodd" clip-rule="evenodd" fill="#698AC6" d="M94.252,140.958c-58.874,0-5.375-69.661-5.352-81.592
		c0.003-1.71,10.7-1.74,10.707,0.299C99.65,71.585,153.124,140.958,94.252,140.958z"/>
	<path fill-rule="evenodd" clip-rule="evenodd" fill="#698AC6" d="M63.981,31.746c5.322,9.13,12.16,13.969,17.209,12.909
		c1.416-7.292-0.837-18.054-6.159-27.184c-4.605-7.9-10.293-12.386-15.079-13.02c-1.617-0.215-2.518,0.557-2.523,3.646
		C57.419,15.282,59.465,23.999,63.981,31.746z"/>
	<path fill-rule="evenodd" clip-rule="evenodd" fill="#FBD8CF" d="M63.347,28.904c3.994,6.853,9.126,10.484,12.916,9.688
		c1.063-5.472-0.629-13.55-4.622-20.403c-3.457-5.93-7.726-9.296-11.318-9.772c-1.213-0.162-1.891,0.418-1.894,2.737
		C58.422,16.546,59.957,23.089,63.347,28.904z"/>
	<path fill-rule="evenodd" clip-rule="evenodd" fill="#698AC6" d="M127.926,31.747c-5.322,9.129-12.16,13.969-17.21,12.908
		c-1.416-7.292,0.838-18.054,6.159-27.184c4.606-7.901,10.293-12.386,15.08-13.02c1.616-0.214,2.518,0.557,2.523,3.646
		C134.486,15.282,132.441,23.999,127.926,31.747z"/>
	<path fill-rule="evenodd" clip-rule="evenodd" fill="#FBD8CF" d="M128.559,28.904c-3.993,6.853-9.126,10.485-12.915,9.688
		c-1.064-5.474,0.628-13.55,4.622-20.403c3.456-5.93,7.726-9.296,11.318-9.772c1.213-0.16,1.89,0.418,1.893,2.737
		C133.484,16.546,131.948,23.089,128.559,28.904z"/>
	<path fill-rule="evenodd" clip-rule="evenodd" fill="#698AC6" d="M127.668,32.463c-7.226,47.341-56.839,45.842-63.622,0
		C75.251,3.286,116.462,3.486,127.668,32.463z"/>
	<path fill-rule="evenodd" clip-rule="evenodd" fill="#FABA2F" d="M81.528,25.328c4.712,0,8.737,2.598,10.345,6.264
		c-1.608,3.665-5.633,6.264-10.345,6.264c-4.712,0-8.738-2.599-10.344-6.264C72.791,27.927,76.817,25.328,81.528,25.328z"/>
	<path fill-rule="evenodd" clip-rule="evenodd" fill="#343434" d="M83.981,25.57c-0.033,4.766-1.04,8.817-2.453,10.451
		c-1.413-1.634-2.42-5.685-2.453-10.451c0.789-0.157,1.61-0.241,2.453-0.241C82.371,25.328,83.192,25.412,83.981,25.57z"/>
	<path fill-rule="evenodd" clip-rule="evenodd" fill="#FABA2F" d="M110.305,25.328c4.712,0,8.736,2.598,10.344,6.264
		c-1.608,3.665-5.633,6.264-10.344,6.264c-4.712,0-8.738-2.599-10.344-6.264C101.568,27.927,105.594,25.328,110.305,25.328z"/>
	<path fill-rule="evenodd" clip-rule="evenodd" fill="#343434" d="M112.758,25.57c-0.034,4.766-1.041,8.817-2.453,10.451
		c-1.413-1.634-2.421-5.685-2.454-10.451c0.789-0.157,1.61-0.241,2.454-0.241C111.148,25.328,111.969,25.412,112.758,25.57z"/>
	<path fill="#343434" d="M95.022,41.235c0-0.262,0.374-0.475,0.834-0.475c0.461,0,0.834,0.213,0.834,0.475v10.067
		c0,0.262-0.373,0.475-0.834,0.475c-0.46,0-0.834-0.213-0.834-0.475V41.235z"/>
	<g>
		<path fill-rule="evenodd" clip-rule="evenodd" fill="#343434" d="M96.211,38.5h0.023c0.079,0.002,0.156,0.004,0.235,0.008
			l0.015,0.001c0.081,0.003,0.16,0.009,0.241,0.014l0.024,0.001c0.073,0.005,0.146,0.011,0.218,0.018l0.038,0.003
			c0.072,0.006,0.144,0.014,0.216,0.023l0.025,0.002c0.079,0.009,0.158,0.019,0.237,0.03l0.012,0.002
			c0.073,0.01,0.147,0.021,0.221,0.032l0.041,0.008c0.069,0.01,0.137,0.022,0.205,0.035l0.03,0.004
			c0.072,0.014,0.145,0.028,0.217,0.043l0.049,0.01c0.061,0.013,0.122,0.026,0.183,0.04l0.051,0.012
			c0.064,0.014,0.129,0.03,0.193,0.046l0.044,0.011c0.067,0.016,0.133,0.034,0.199,0.052l0.048,0.014
			c0.059,0.015,0.118,0.033,0.176,0.05l0.057,0.016c0.058,0.018,0.115,0.036,0.173,0.055l0.079,0.025
			c0.054,0.018,0.106,0.035,0.158,0.054l0.072,0.025c0.051,0.018,0.101,0.037,0.152,0.055l0.074,0.028
			c0.051,0.019,0.104,0.039,0.155,0.06l0.083,0.033c0.049,0.02,0.098,0.04,0.147,0.061l0.066,0.027
			c0.049,0.021,0.098,0.043,0.146,0.064l0.086,0.039c0.047,0.021,0.094,0.042,0.141,0.064l0.083,0.04
			c0.044,0.021,0.087,0.043,0.131,0.064l0.076,0.038l0.122,0.063l0.118,0.062l0.094,0.051l0.109,0.061l0.108,0.063l0.097,0.057
			l0.097,0.058c0.04,0.025,0.08,0.049,0.119,0.074l0.091,0.057l0.098,0.064l0.107,0.07l0.074,0.05
			c-0.605,3.749-3.072,6.874-6.421,8.397c-1.998-0.908-3.681-2.385-4.843-4.225v-4.958l0.088-0.044l-0.088,0.044l0.088-0.044
			l0.046-0.022c0.057-0.027,0.114-0.055,0.171-0.081l0.041-0.019c0.06-0.026,0.12-0.053,0.18-0.079l0.036-0.016
			c0.062-0.027,0.125-0.052,0.188-0.079l0.054-0.021c0.062-0.025,0.123-0.049,0.187-0.073l0.035-0.013
			c0.066-0.024,0.13-0.048,0.195-0.072l0.027-0.009c0.07-0.025,0.14-0.048,0.21-0.072l0.013-0.004l0.008-0.002
			c0.072-0.024,0.144-0.046,0.217-0.069l0.032-0.009c0.067-0.021,0.134-0.04,0.202-0.059l0.035-0.01
			c0.07-0.02,0.141-0.038,0.212-0.057l0.016-0.004c0.075-0.02,0.152-0.037,0.228-0.056l0.009-0.002l0.014-0.002
			c0.071-0.016,0.142-0.033,0.214-0.048l0.04-0.008c0.068-0.014,0.136-0.027,0.206-0.04l0.033-0.007
			c0.074-0.013,0.149-0.026,0.224-0.038l0.01-0.001l0.004-0.001c0.079-0.013,0.158-0.025,0.238-0.035l0.021-0.003
			c0.075-0.011,0.152-0.021,0.228-0.028l0.022-0.003c0.08-0.009,0.159-0.018,0.239-0.024l0.008-0.001
			c0.082-0.008,0.165-0.014,0.248-0.021h0.014c0.08-0.005,0.159-0.01,0.239-0.014h0.021c0.079-0.004,0.156-0.007,0.236-0.009h0.021
			c0.083-0.002,0.167-0.003,0.251-0.003C96.046,38.497,96.128,38.498,96.211,38.5z M91.003,44.612
			c-0.762-1.205-1.299-2.566-1.554-4.024c0.058-0.041,0.118-0.084,0.178-0.124l0.026-0.019c0.054-0.037,0.106-0.072,0.159-0.107
			l0.054-0.035c0.047-0.031,0.094-0.061,0.142-0.091l0.056-0.035c0.051-0.033,0.104-0.064,0.156-0.096l0.057-0.034
			c0.054-0.032,0.108-0.063,0.164-0.095l0.045-0.025c0.055-0.031,0.108-0.06,0.164-0.091l0.045-0.024
			c0.053-0.028,0.108-0.057,0.163-0.085l0.059-0.031l0.088-0.044l-0.088,0.044l0.088-0.044V44.612z"/>
	</g>
	<g>
		<path fill="#343434" d="M101.788,45.681c-0.205,0.094-0.448,0.003-0.543-0.202c-0.093-0.205-0.003-0.448,0.202-0.542
			c2.882-1.314,5.901-2.312,9.057-2.994c3.152-0.682,6.444-1.051,9.877-1.111c0.225-0.004,0.411,0.176,0.415,0.402
			c0.004,0.226-0.176,0.411-0.402,0.416c-3.373,0.058-6.613,0.423-9.719,1.095C107.574,43.414,104.611,44.393,101.788,45.681z"/>
		<path fill="#343434" d="M102.169,46.513c-0.219,0.057-0.442-0.074-0.499-0.293s0.074-0.442,0.293-0.499
			c3.193-0.84,6.431-1.348,9.712-1.528c3.28-0.181,6.606-0.035,9.973,0.436c0.224,0.031,0.38,0.238,0.349,0.462
			c-0.031,0.224-0.238,0.381-0.462,0.349c-3.318-0.463-6.59-0.607-9.818-0.429C108.49,45.188,105.307,45.689,102.169,46.513z"/>
		<path fill="#343434" d="M102.308,47.383c-0.225,0.022-0.425-0.143-0.446-0.368c-0.021-0.225,0.144-0.425,0.369-0.446
			c3.362-0.326,6.672-0.324,9.93,0.004c3.263,0.33,6.472,0.986,9.627,1.965c0.216,0.068,0.336,0.297,0.27,0.513
			c-0.068,0.216-0.297,0.337-0.513,0.27c-3.107-0.964-6.261-1.61-9.463-1.933C108.873,47.063,105.616,47.061,102.308,47.383z"/>
		<path fill="#343434" d="M90.407,44.945c0.206,0.093,0.297,0.335,0.203,0.541c-0.094,0.205-0.336,0.296-0.541,0.202
			c-2.824-1.284-5.789-2.257-8.891-2.924c-3.108-0.668-6.348-1.028-9.722-1.082c-0.225-0.003-0.405-0.189-0.402-0.415
			c0.003-0.226,0.189-0.406,0.414-0.403c3.433,0.055,6.728,0.42,9.879,1.098C84.503,42.641,87.525,43.634,90.407,44.945z"/>
		<path fill="#343434" d="M89.894,45.73c0.218,0.057,0.35,0.279,0.294,0.498c-0.057,0.219-0.279,0.35-0.499,0.294
			c-3.139-0.821-6.323-1.315-9.551-1.489c-3.228-0.174-6.501-0.024-9.817,0.443c-0.225,0.032-0.431-0.126-0.463-0.349
			c-0.031-0.223,0.126-0.43,0.349-0.462c3.367-0.475,6.692-0.626,9.972-0.45C83.462,44.391,86.7,44.895,89.894,45.73z"/>
		<path fill="#343434" d="M89.627,46.578c0.225,0.021,0.391,0.221,0.369,0.445c-0.021,0.224-0.22,0.39-0.444,0.369
			c-3.31-0.318-6.567-0.311-9.774,0.017c-3.202,0.328-6.356,0.978-9.461,1.947c-0.215,0.068-0.445-0.054-0.512-0.269
			c-0.068-0.216,0.052-0.445,0.269-0.513c3.154-0.983,6.362-1.645,9.624-1.979C82.955,46.262,86.265,46.255,89.627,46.578z"/>
	</g>
	<g>
		<path fill="#343434" d="M95.688,50.411c0.004-0.282,0.237-0.507,0.519-0.502c0.282,0.004,0.508,0.237,0.502,0.519
			c-0.051,3.006,1.103,4.886,2.605,5.811c0.617,0.379,1.29,0.599,1.962,0.669c0.672,0.072,1.342-0.004,1.946-0.217
			c1.212-0.425,2.169-1.405,2.363-2.85c0.038-0.279,0.295-0.476,0.574-0.439c0.281,0.038,0.476,0.296,0.439,0.575
			c-0.252,1.867-1.482,3.133-3.039,3.679c-0.747,0.262-1.568,0.356-2.389,0.27c-0.822-0.087-1.645-0.354-2.393-0.814
			C96.998,56.017,95.629,53.84,95.688,50.411z"/>
		<path fill="#343434" d="M96.024,50.411c-0.004-0.282-0.237-0.507-0.518-0.502c-0.282,0.004-0.507,0.237-0.502,0.519
			c0.051,3.006-1.103,4.886-2.604,5.811c-0.618,0.379-1.291,0.599-1.962,0.669c-0.672,0.072-1.342-0.004-1.947-0.217
			c-1.212-0.425-2.168-1.405-2.362-2.85c-0.038-0.279-0.295-0.476-0.575-0.439c-0.279,0.038-0.476,0.296-0.438,0.575
			c0.251,1.867,1.482,3.133,3.039,3.679c0.747,0.262,1.566,0.356,2.387,0.27c0.823-0.087,1.646-0.354,2.394-0.814
			C94.715,56.017,96.083,53.84,96.024,50.411z"/>
	</g>
	<path fill-rule="evenodd" clip-rule="evenodd" fill="#698AC6" d="M73.04,141.245c3.763,0,6.832-2.012,6.832-4.478
		c0-2.466-3.069-4.477-6.832-4.477c-3.762,0-6.831,2.011-6.831,4.477C66.209,139.233,69.278,141.245,73.04,141.245z"/>
	<path fill-rule="evenodd" clip-rule="evenodd" fill="#698AC6" d="M113.753,141.245c3.763,0,6.832-2.012,6.832-4.478
		c0-2.466-3.069-4.477-6.832-4.477c-3.762,0-6.831,2.011-6.831,4.477C106.922,139.233,109.991,141.245,113.753,141.245z"/>
	<path fill-rule="evenodd" clip-rule="evenodd" fill="#A7BEE4" d="M87.444,140.624c-2.342-12.475-9.893-61.298,6.646-61.156
		c16.674,0.142,9.667,46.44,6.862,61.273c-1.92,0.217-3.998,0.34-6.274,0.34C92.019,141.081,89.621,140.92,87.444,140.624z"/>
	<g>
		<path fill-rule="evenodd" clip-rule="evenodd" fill="#698AC6" d="M74.01,90.084c-0.666,12.857,9.352,39.428,7.047,46.336
			c-0.936,2.8-3.727,1.957-3.956,5.665c-0.293,4.73,14.675,5.11,13.789-0.69c-0.417-2.726-3.646-3.133-4.066-4.457
			c-1.154-3.626-3.12-51.233-0.814-57.623C88.315,72.926,74.882,73.205,74.01,90.084z"/>
		<path fill-rule="evenodd" clip-rule="evenodd" fill="#698AC6" d="M114.498,90.084c0.666,12.857-9.352,39.428-7.047,46.336
			c0.934,2.8,3.726,1.957,3.956,5.665c0.293,4.73-14.676,5.11-13.789-0.69c0.417-2.726,3.645-3.133,4.066-4.457
			c1.153-3.626,3.12-51.233,0.813-57.623C100.193,72.926,113.625,73.205,114.498,90.084z"/>
	</g>
</g>
<g>
	<path fill="#698AC6" d="M219.342,114.241c0.416,1.241,1.761,1.909,3.001,1.492c1.241-0.417,1.908-1.762,1.491-3.002
		c-3.038-8.979-7.065-13.724-12.124-16.027c-4.984-2.271-10.694-2.018-17.349-1.089c-3.13,0.438-5.883-0.029-8.106-1.11
		c-2.027-0.987-3.615-2.492-4.635-4.284c-1.015-1.781-1.476-3.851-1.256-5.978c0.224-2.168,1.149-4.411,2.903-6.503
		c2.243-2.675,4.896-3.362,7.04-2.795c0.834,0.22,1.595,0.622,2.225,1.162c0.616,0.528,1.107,1.19,1.416,1.94
		c0.767,1.865,0.392,4.366-1.949,6.934c-0.88,0.966-0.81,2.465,0.158,3.346c0.967,0.88,2.466,0.81,3.346-0.158
		c3.77-4.134,4.238-8.489,2.829-11.916c-0.599-1.455-1.541-2.729-2.719-3.739c-1.165-0.998-2.561-1.739-4.082-2.14
		c-3.77-0.995-8.287,0.039-11.889,4.334c-2.401,2.863-3.672,5.988-3.988,9.045c-0.324,3.135,0.354,6.184,1.847,8.805
		c1.488,2.611,3.781,4.794,6.695,6.211c3.016,1.469,6.697,2.109,10.825,1.532c5.853-0.818,10.792-1.076,14.73,0.717
		C213.613,102.777,216.781,106.672,219.342,114.241z"/>
	<path fill-rule="evenodd" clip-rule="evenodd" fill="#698AC6" d="M234.752,142.503c-47.898,0-4.373-64.815-4.354-75.914
		c0.003-1.591,8.705-1.62,8.711,0.278C239.143,77.958,282.65,142.503,234.752,142.503z"/>
	<path fill-rule="evenodd" clip-rule="evenodd" fill="#698AC6" d="M201.779,36.075c3.579,13.416,10.665,23.67,17.572,26.545
		c4.463-6.283,5.437-18.953,1.86-32.369c-3.096-11.609-8.825-20.605-14.78-24.993c-2.01-1.481-3.454-1.407-4.576,1.722
		C199.249,14.255,198.743,24.69,201.779,36.075z"/>
	<path fill-rule="evenodd" clip-rule="evenodd" fill="#FBD8CF" d="M202.371,33.021c2.637,10.513,7.859,18.549,12.949,20.802
		c3.289-4.924,4.008-14.851,1.371-25.366c-2.282-9.097-6.503-16.146-10.891-19.585c-1.482-1.16-2.546-1.102-3.373,1.35
		C200.505,15.922,200.133,24.1,202.371,33.021z"/>
	<path fill-rule="evenodd" clip-rule="evenodd" fill="#698AC6" d="M267.935,36.075c-3.578,13.416-10.665,23.67-17.571,26.545
		c-4.464-6.283-5.438-18.953-1.86-32.369c3.096-11.609,8.824-20.605,14.78-24.993c2.01-1.481,3.455-1.407,4.576,1.722
		C270.466,14.255,270.97,24.69,267.935,36.075z"/>
	<path fill-rule="evenodd" clip-rule="evenodd" fill="#FBD8CF" d="M267.711,33.022c-2.637,10.512-7.86,18.548-12.949,20.801
		c-3.289-4.924-4.007-14.853-1.37-25.366c2.281-9.097,6.503-16.146,10.891-19.584c1.481-1.161,2.546-1.103,3.372,1.349
		C269.576,15.922,269.948,24.1,267.711,33.022z"/>
	<path fill-rule="evenodd" clip-rule="evenodd" fill="#698AC6" d="M234.858,69.305c18.552,0,33.683-10.472,33.683-23.31
		c0-12.84-15.131-23.311-33.683-23.311c-18.552,0-33.683,10.472-33.683,23.311C201.174,58.834,216.305,69.305,234.858,69.305z"/>
	<path fill-rule="evenodd" clip-rule="evenodd" fill="#FABA2F" d="M222.54,37.698c3.441,0,6.38,2.145,7.555,5.172
		c-1.174,3.025-4.113,5.171-7.555,5.171c-3.441,0-6.379-2.146-7.554-5.171C216.161,39.843,219.1,37.698,222.54,37.698z"/>
	<path fill-rule="evenodd" clip-rule="evenodd" fill="#242424" d="M224.332,37.897c-0.024,3.935-0.76,7.279-1.792,8.629
		c-1.031-1.35-1.767-4.694-1.791-8.629c0.576-0.13,1.176-0.2,1.791-0.2C223.156,37.698,223.756,37.767,224.332,37.897z"/>
	<path fill-rule="evenodd" clip-rule="evenodd" fill="#FABA2F" d="M246.991,37.698c3.441,0,6.38,2.145,7.555,5.172
		c-1.174,3.025-4.114,5.171-7.555,5.171c-3.441,0-6.38-2.146-7.555-5.171C240.611,39.843,243.55,37.698,246.991,37.698z"/>
	<path fill-rule="evenodd" clip-rule="evenodd" fill="#242424" d="M248.783,37.897c-0.024,3.935-0.76,7.279-1.792,8.629
		c-1.032-1.35-1.768-4.694-1.792-8.629c0.577-0.13,1.176-0.2,1.792-0.2S248.207,37.767,248.783,37.897z"/>
	<path fill="#333333" d="M234.095,55.404c0.005-0.372,0.313-0.671,0.686-0.665c0.373,0.005,0.671,0.313,0.665,0.686
		c-0.068,3.98,1.459,6.469,3.447,7.691c0.816,0.502,1.709,0.793,2.597,0.887c0.891,0.095,1.776-0.006,2.577-0.288
		c1.604-0.562,2.871-1.861,3.128-3.774c0.05-0.37,0.39-0.63,0.761-0.58c0.37,0.049,0.63,0.39,0.58,0.761
		c-0.332,2.47-1.962,4.147-4.024,4.87c-0.988,0.346-2.074,0.471-3.16,0.357c-1.089-0.115-2.179-0.469-3.17-1.079
		C235.827,62.824,234.016,59.943,234.095,55.404z"/>
	<path fill="#333333" d="M234.09,55.426c-0.006-0.373,0.292-0.681,0.665-0.686c0.373-0.006,0.68,0.293,0.686,0.665
		c0.078,4.539-1.733,7.42-4.089,8.868c-0.99,0.609-2.079,0.963-3.169,1.079c-1.087,0.114-2.173-0.011-3.16-0.357
		c-2.062-0.724-3.691-2.4-4.025-4.87c-0.049-0.371,0.211-0.712,0.581-0.761c0.37-0.049,0.71,0.21,0.76,0.58
		c0.258,1.912,1.525,3.211,3.128,3.774c0.801,0.281,1.687,0.383,2.577,0.288c0.888-0.094,1.78-0.385,2.597-0.887
		C232.631,61.895,234.159,59.405,234.09,55.426z"/>
	<g>
		<path fill-rule="evenodd" clip-rule="evenodd" fill="#333333" d="M235.058,51.212h0.019c0.064,0.001,0.127,0.004,0.191,0.006
			l0.013,0.001c0.066,0.003,0.13,0.005,0.196,0.011l0.02,0.001c0.06,0.004,0.119,0.01,0.178,0.014l0.032,0.003
			c0.058,0.005,0.117,0.012,0.175,0.018l0.02,0.002c0.064,0.008,0.128,0.015,0.192,0.024l0.01,0.002
			c0.06,0.007,0.12,0.017,0.18,0.026l0.034,0.006c0.056,0.009,0.112,0.018,0.167,0.029l0.023,0.003
			c0.059,0.012,0.118,0.022,0.176,0.035l0.04,0.007c0.05,0.011,0.1,0.021,0.15,0.033l0.042,0.009
			c0.052,0.013,0.104,0.025,0.156,0.039l0.035,0.009c0.055,0.013,0.109,0.028,0.162,0.043l0.039,0.011
			c0.048,0.014,0.096,0.028,0.143,0.042l0.045,0.014c0.048,0.014,0.094,0.029,0.14,0.044l0.064,0.02
			c0.043,0.014,0.086,0.029,0.13,0.044l0.058,0.02c0.042,0.015,0.082,0.03,0.123,0.045l0.06,0.022
			c0.042,0.016,0.084,0.032,0.126,0.048l0.068,0.027c0.04,0.016,0.08,0.033,0.12,0.05l0.053,0.024
			c0.04,0.016,0.08,0.034,0.119,0.051l0.07,0.032c0.039,0.017,0.077,0.034,0.115,0.052l0.068,0.033
			c0.035,0.017,0.071,0.034,0.106,0.051l0.063,0.031l0.1,0.052l0.096,0.05l0.076,0.043l0.089,0.049l0.088,0.05l0.079,0.047
			l0.078,0.048c0.032,0.019,0.065,0.04,0.097,0.059l0.072,0.047l0.081,0.052l0.087,0.058l0.06,0.041
			c-0.492,3.049-2.499,5.592-5.224,6.831c-1.625-0.739-2.994-1.94-3.939-3.437v-4.033l0.072-0.035l-0.072,0.034l0.072-0.034
			l0.038-0.018c0.045-0.024,0.092-0.045,0.139-0.066l0.034-0.015c0.049-0.022,0.097-0.044,0.146-0.065l0.029-0.013
			c0.051-0.021,0.102-0.043,0.153-0.063l0.044-0.018c0.05-0.019,0.1-0.04,0.151-0.059l0.029-0.011
			c0.052-0.02,0.105-0.04,0.159-0.058l0.022-0.007c0.057-0.02,0.113-0.04,0.171-0.059l0.01-0.004l0.006-0.001
			c0.058-0.019,0.117-0.037,0.176-0.056l0.026-0.009c0.055-0.016,0.109-0.032,0.164-0.047l0.028-0.009
			c0.057-0.016,0.115-0.031,0.173-0.046l0.013-0.003c0.062-0.016,0.123-0.031,0.185-0.045l0.008-0.002l0.011-0.002
			c0.058-0.013,0.115-0.027,0.174-0.038l0.032-0.006c0.056-0.012,0.112-0.022,0.168-0.033l0.027-0.004
			c0.062-0.012,0.121-0.023,0.184-0.032l0.006-0.001h0.003c0.065-0.011,0.129-0.02,0.195-0.03l0.017-0.002
			c0.063-0.009,0.123-0.016,0.186-0.024l0.018-0.001c0.065-0.009,0.129-0.015,0.194-0.02l0.006-0.001
			c0.067-0.005,0.134-0.012,0.202-0.016l0.011-0.001c0.064-0.004,0.13-0.008,0.195-0.011l0.017-0.001
			c0.064-0.002,0.128-0.004,0.191-0.006h0.018c0.068-0.002,0.136-0.002,0.205-0.002C234.924,51.209,234.991,51.209,235.058,51.212z
			 M230.822,56.185c-0.619-0.98-1.057-2.088-1.265-3.274c0.048-0.034,0.096-0.067,0.145-0.102l0.021-0.015
			c0.043-0.029,0.086-0.059,0.13-0.088l0.043-0.027c0.038-0.026,0.077-0.05,0.115-0.075l0.045-0.028
			c0.042-0.027,0.085-0.052,0.127-0.078l0.046-0.027c0.044-0.027,0.089-0.052,0.133-0.078l0.037-0.02
			c0.044-0.025,0.088-0.049,0.133-0.074l0.037-0.02c0.044-0.022,0.088-0.046,0.133-0.068l0.048-0.025l0.072-0.036l-0.072,0.036
			l0.072-0.035V56.185z"/>
	</g>
	<g>
		<path fill="#333333" d="M241.482,53.217c-0.301,0.188-0.699,0.095-0.886-0.206c-0.189-0.301-0.096-0.698,0.206-0.887
			c3.198-2,6.556-3.518,10.071-4.559c3.508-1.038,7.173-1.599,10.993-1.687c0.354-0.007,0.647,0.275,0.655,0.63
			c0.005,0.354-0.276,0.648-0.63,0.655c-3.699,0.083-7.251,0.629-10.656,1.637C247.838,49.805,244.586,51.277,241.482,53.217z"/>
		<path fill="#333333" d="M241.853,54.502c-0.334,0.12-0.702-0.055-0.822-0.388c-0.119-0.335,0.055-0.702,0.389-0.822
			c3.555-1.279,7.158-2.052,10.807-2.325c3.651-0.273,7.351-0.046,11.099,0.677c0.349,0.066,0.578,0.404,0.512,0.753
			c-0.067,0.35-0.405,0.578-0.753,0.512c-3.636-0.701-7.223-0.921-10.763-0.657C248.782,52.515,245.291,53.264,241.853,54.502z"/>
		<path fill="#333333" d="M241.943,55.837c-0.351,0.046-0.675-0.202-0.72-0.554c-0.045-0.352,0.203-0.675,0.555-0.72
			c3.742-0.497,7.427-0.491,11.053,0.016c3.627,0.507,7.196,1.513,10.705,3.012c0.327,0.139,0.479,0.516,0.34,0.843
			c-0.139,0.327-0.517,0.479-0.843,0.34c-3.406-1.455-6.866-2.431-10.378-2.921C249.14,55.363,245.569,55.355,241.943,55.837z"/>
		<path fill="#333333" d="M228.912,52.124c0.301,0.189,0.394,0.586,0.206,0.887c-0.188,0.301-0.585,0.394-0.887,0.206
			c-3.104-1.94-6.356-3.412-9.754-4.418c-3.405-1.008-6.958-1.553-10.656-1.637c-0.355-0.007-0.637-0.301-0.63-0.655
			c0.007-0.355,0.3-0.637,0.655-0.63c3.819,0.088,7.484,0.649,10.992,1.687C222.355,48.605,225.713,50.124,228.912,52.124z"/>
		<path fill="#333333" d="M228.294,53.292c0.334,0.12,0.508,0.487,0.388,0.822c-0.119,0.334-0.487,0.508-0.821,0.388
			c-3.438-1.238-6.929-1.987-10.47-2.251c-3.539-0.264-7.127-0.044-10.762,0.657c-0.349,0.066-0.686-0.163-0.753-0.512
			c-0.067-0.349,0.162-0.686,0.511-0.753c3.748-0.722,7.448-0.95,11.099-0.677C221.136,51.239,224.739,52.013,228.294,53.292z"/>
		<path fill="#333333" d="M227.938,54.563c0.351,0.046,0.6,0.369,0.554,0.72c-0.046,0.352-0.369,0.6-0.72,0.554
			c-3.625-0.482-7.196-0.475-10.71,0.016c-3.514,0.491-6.972,1.467-10.378,2.921c-0.327,0.139-0.705-0.013-0.844-0.34
			c-0.139-0.327,0.013-0.705,0.34-0.843c3.51-1.5,7.078-2.506,10.706-3.012C220.511,54.072,224.195,54.066,227.938,54.563z"/>
	</g>
	<path fill-rule="evenodd" clip-rule="evenodd" fill="#A6BDE3" d="M227.922,142.013c-2.293-12.575-9.688-61.794,6.508-61.651
		c16.327,0.143,9.466,46.816,6.72,61.768c-1.881,0.22-3.915,0.343-6.143,0.343C232.403,142.474,230.053,142.313,227.922,142.013z"/>
	<path fill-rule="evenodd" clip-rule="evenodd" fill="#698AC6" d="M251.479,89.447c0.648,13.158-9.116,40.35-6.869,47.418
		c0.911,2.865,3.632,2.003,3.856,5.797c0.286,4.84-14.305,5.23-13.441-0.705c0.406-2.79,3.553-3.205,3.964-4.561
		c1.124-3.711,3.042-52.43,0.793-58.968C237.533,71.889,250.628,72.175,251.479,89.447z"/>
	<path fill-rule="evenodd" clip-rule="evenodd" fill="#698AC6" d="M218.03,89.447c-0.648,13.158,9.117,40.35,6.869,47.418
		c-0.912,2.865-3.632,2.003-3.856,5.797c-0.286,4.84,14.305,5.23,13.44-0.705c-0.406-2.79-3.553-3.205-3.964-4.561
		c-1.124-3.711-3.041-52.43-0.793-58.968C231.976,71.889,218.882,72.175,218.03,89.447z"/>
	<g>
		<path fill-rule="evenodd" clip-rule="evenodd" fill="#698AC6" d="M216.229,142.628c3.684,0,6.689-1.97,6.689-4.385
			c0-2.415-3.004-4.385-6.689-4.385c-3.684,0-6.689,1.97-6.689,4.385C209.54,140.658,212.545,142.628,216.229,142.628z"/>
		<path fill-rule="evenodd" clip-rule="evenodd" fill="#698AC6" d="M253.106,142.628c3.684,0,6.689-1.97,6.689-4.385
			c0-2.415-3.005-4.385-6.689-4.385c-3.684,0-6.689,1.97-6.689,4.385C246.417,140.658,249.422,142.628,253.106,142.628z"/>
	</g>
</g>
<g>
	<g>
		<path fill-rule="evenodd" clip-rule="evenodd" fill="#698AC6" d="M401.258,93.541c-8.654,0-17.238,10.5-19.172,23.454
			c-1.934,12.953,3.513,23.454,12.167,23.454c8.655,0,17.239-10.501,19.173-23.454C415.36,104.041,409.913,93.541,401.258,93.541z"
			/>
		<path fill-rule="evenodd" clip-rule="evenodd" fill="#698AC6" d="M370.324,93.541c8.654,0,17.238,10.5,19.172,23.454
			c1.934,12.953-3.513,23.454-12.168,23.454c-8.654,0-17.238-10.501-19.173-23.454C356.222,104.041,361.67,93.541,370.324,93.541z"
			/>
		<path fill-rule="evenodd" clip-rule="evenodd" fill="#698AC6" d="M360.31,124.579c-18.643-8.236-32.22-18.921-29.798-38.317
			c1.885-15.096,14.168-22.453,20.844-16.583c11.258,9.902-6.718,14.446-6.786,25.826c-0.034,5.587,3.524,16.973,16.081,25.735
			C366.059,125.014,367.862,127.915,360.31,124.579z"/>
		<path fill-rule="evenodd" clip-rule="evenodd" fill="#698AC6" d="M385.77,140.449c-49.066,0-4.479-63.02-4.461-73.813
			c0.003-1.547,8.917-1.575,8.923,0.271C390.269,77.689,434.835,140.449,385.77,140.449z"/>
		<path fill-rule="evenodd" clip-rule="evenodd" fill="#A7BEE4" d="M379.18,139.996c-2.134-12.336-9.012-60.615,6.054-60.475
			c15.189,0.141,8.805,45.923,6.252,60.59c-1.75,0.215-3.642,0.337-5.715,0.337C383.348,140.449,381.162,140.289,379.18,139.996z"/>
		<path fill-rule="evenodd" clip-rule="evenodd" fill="#698AC6" d="M360.251,25.424c2.374,8.864,7.923,15.636,13.698,17.536
			c4.153-4.151,5.645-12.521,3.27-21.384c-2.054-7.67-6.504-13.612-11.384-16.511c-1.647-0.978-2.891-0.929-4.014,1.138
			C359.209,11.01,358.236,17.903,360.251,25.424z"/>
		<path fill-rule="evenodd" clip-rule="evenodd" fill="#FBD8CF" d="M361.797,25.097c1.923,7.176,6.416,12.661,11.092,14.2
			c3.363-3.361,4.571-10.138,2.648-17.315c-1.664-6.21-5.266-11.023-9.218-13.369c-1.333-0.791-2.34-0.752-3.25,0.922
			C360.954,13.425,360.166,19.007,361.797,25.097z"/>
		<path fill-rule="evenodd" clip-rule="evenodd" fill="#698AC6" d="M411.396,25.424c-2.375,8.864-7.924,15.637-13.698,17.537
			c-4.154-4.152-5.645-12.522-3.27-21.385c2.056-7.67,6.504-13.612,11.385-16.511c1.647-0.978,2.89-0.929,4.014,1.138
			C412.439,11.01,413.411,17.903,411.396,25.424z"/>
		<path fill-rule="evenodd" clip-rule="evenodd" fill="#FBD8CF" d="M409.777,25.097c-1.923,7.176-6.416,12.661-11.092,14.2
			c-3.363-3.361-4.571-10.138-2.648-17.315c1.664-6.21,5.266-11.023,9.218-13.369c1.333-0.791,2.34-0.752,3.25,0.921
			C410.621,13.425,411.408,19.007,409.777,25.097z"/>
		<path fill-rule="evenodd" clip-rule="evenodd" fill="#698AC6" d="M385.823,75.329c19.004,0,34.504-13.94,34.504-31.032
			s-15.5-31.031-34.504-31.031s-34.504,13.939-34.504,31.031S366.819,75.329,385.823,75.329z"/>
		<g>
			<path fill-rule="evenodd" clip-rule="evenodd" fill="#FFFFFF" d="M370.903,24.99c5.386,0,9.988,3.645,11.826,8.787
				c-1.838,5.142-6.44,8.787-11.826,8.787c-5.387,0-9.987-3.645-11.827-8.787C360.916,28.636,365.517,24.99,370.903,24.99z"/>
			<path fill-rule="evenodd" clip-rule="evenodd" fill="#343434" d="M373.708,25.329c-0.038,6.685-1.19,12.369-2.804,14.663
				c-1.615-2.294-2.767-7.977-2.805-14.663c0.902-0.222,1.841-0.339,2.805-0.339C371.866,24.99,372.806,25.107,373.708,25.329z"/>
			<path fill-rule="evenodd" clip-rule="evenodd" fill="#FFFFFF" d="M400.744,24.99c5.387,0,9.988,3.645,11.826,8.787
				c-1.838,5.142-6.439,8.787-11.826,8.787c-5.386,0-9.988-3.645-11.826-8.787C390.756,28.636,395.358,24.99,400.744,24.99z"/>
			<path fill-rule="evenodd" clip-rule="evenodd" fill="#343434" d="M403.548,25.329c-0.037,6.685-1.189,12.369-2.804,14.663
				c-1.615-2.294-2.767-7.977-2.804-14.663c0.901-0.222,1.84-0.339,2.804-0.339S402.646,25.107,403.548,25.329z"/>
		</g>
		<path fill="#343434" d="M385.043,51.073c0.006-0.415,0.321-0.746,0.703-0.74c0.382,0.007,0.687,0.349,0.681,0.763
			c-0.071,4.426,1.495,7.195,3.531,8.553c0.836,0.559,1.751,0.882,2.659,0.987c0.912,0.105,1.82-0.006,2.641-0.319
			c1.642-0.625,2.941-2.069,3.204-4.196c0.052-0.412,0.4-0.701,0.78-0.646c0.379,0.055,0.645,0.433,0.595,0.845
			c-0.342,2.748-2.01,4.613-4.123,5.417c-1.012,0.384-2.125,0.524-3.237,0.396c-1.116-0.128-2.232-0.521-3.247-1.199
			C386.818,59.324,384.962,56.12,385.043,51.073z"/>
		<path fill="#343434" d="M385.037,51.096c-0.006-0.415,0.3-0.757,0.682-0.763c0.382-0.006,0.697,0.325,0.704,0.74
			c0.08,5.048-1.775,8.252-4.188,9.861c-1.014,0.678-2.131,1.071-3.246,1.199c-1.113,0.127-2.226-0.012-3.238-0.396
			c-2.112-0.804-3.781-2.668-4.122-5.417c-0.05-0.412,0.215-0.79,0.595-0.845c0.379-0.055,0.728,0.233,0.779,0.646
			c0.265,2.127,1.562,3.571,3.206,4.196c0.819,0.313,1.728,0.424,2.64,0.319c0.909-0.105,1.823-0.427,2.66-0.987
			C383.543,58.291,385.108,55.522,385.037,51.096z"/>
		<g>
			<path fill-rule="evenodd" clip-rule="evenodd" fill="#343434" d="M386.029,46.41h0.02c0.065,0.002,0.13,0.005,0.195,0.008
				l0.012,0.001c0.068,0.003,0.135,0.007,0.201,0.012l0.02,0.002c0.061,0.004,0.122,0.01,0.182,0.015l0.031,0.003
				c0.06,0.007,0.12,0.012,0.18,0.019l0.021,0.003c0.065,0.008,0.132,0.016,0.197,0.027l0.01,0.001
				c0.061,0.009,0.122,0.018,0.184,0.029l0.035,0.006c0.058,0.01,0.114,0.021,0.171,0.031l0.024,0.005
				c0.06,0.012,0.121,0.025,0.181,0.038l0.04,0.009c0.051,0.012,0.103,0.024,0.154,0.037l0.043,0.01
				c0.053,0.014,0.107,0.028,0.161,0.043l0.036,0.01c0.055,0.015,0.111,0.031,0.166,0.047l0.039,0.012
				c0.05,0.015,0.098,0.03,0.147,0.046l0.047,0.015c0.048,0.015,0.096,0.031,0.144,0.049l0.065,0.023
				c0.044,0.016,0.089,0.032,0.133,0.049l0.061,0.023c0.042,0.016,0.084,0.033,0.126,0.05l0.062,0.025
				c0.043,0.018,0.085,0.036,0.129,0.055l0.069,0.029c0.041,0.018,0.082,0.037,0.123,0.055l0.055,0.026
				c0.041,0.018,0.081,0.038,0.121,0.057l0.071,0.036c0.04,0.019,0.079,0.039,0.117,0.059l0.07,0.036
				c0.036,0.019,0.072,0.039,0.108,0.058l0.064,0.034l0.101,0.057l0.098,0.057l0.078,0.046l0.091,0.055l0.092,0.056l0.08,0.052
				l0.081,0.053c0.033,0.022,0.067,0.044,0.099,0.067l0.075,0.051l0.083,0.058l0.089,0.064l0.061,0.045
				c-0.504,3.392-2.56,6.219-5.352,7.595c-1.664-0.82-3.067-2.157-4.036-3.821v-4.484l0.074-0.04l0.039-0.019
				c0.047-0.024,0.095-0.05,0.143-0.073l0.034-0.016c0.051-0.025,0.1-0.05,0.15-0.072l0.031-0.014
				c0.052-0.025,0.104-0.048,0.155-0.071l0.045-0.018c0.052-0.024,0.104-0.045,0.155-0.066l0.03-0.013
				c0.054-0.022,0.108-0.044,0.163-0.065l0.023-0.009c0.058-0.023,0.116-0.044,0.175-0.064l0.011-0.005l0.006-0.002
				c0.059-0.02,0.12-0.041,0.18-0.062l0.026-0.009c0.056-0.018,0.112-0.036,0.168-0.053l0.029-0.009
				c0.059-0.018,0.117-0.035,0.176-0.051l0.013-0.004c0.063-0.017,0.127-0.035,0.19-0.051l0.008-0.002l0.012-0.002
				c0.059-0.015,0.118-0.029,0.178-0.042l0.033-0.008c0.057-0.013,0.115-0.026,0.172-0.037l0.027-0.005
				c0.063-0.013,0.125-0.024,0.188-0.036l0.007-0.001h0.003c0.066-0.012,0.132-0.023,0.199-0.032l0.017-0.002
				c0.063-0.01,0.126-0.019,0.19-0.027l0.018-0.002c0.067-0.009,0.133-0.015,0.2-0.023h0.006c0.069-0.006,0.138-0.013,0.207-0.018
				h0.012c0.066-0.005,0.133-0.01,0.199-0.013l0.016-0.001c0.066-0.002,0.132-0.005,0.197-0.006l0.018-0.001
				c0.069-0.001,0.139-0.003,0.209-0.003C385.892,46.407,385.961,46.409,386.029,46.41L386.029,46.41z M381.689,47.455l0.074-0.04
				L381.689,47.455z M381.689,51.939c-0.635-1.089-1.082-2.321-1.295-3.639c0.049-0.039,0.098-0.075,0.148-0.113l0.022-0.016
				c0.044-0.033,0.089-0.066,0.133-0.097l0.044-0.031c0.039-0.028,0.079-0.056,0.119-0.083l0.046-0.031
				c0.043-0.029,0.086-0.058,0.13-0.086l0.047-0.03c0.045-0.029,0.09-0.057,0.137-0.086l0.037-0.023
				c0.045-0.027,0.09-0.054,0.136-0.081l0.038-0.022c0.044-0.027,0.09-0.053,0.135-0.079l0.049-0.026l0.074-0.04V51.939
				L381.689,51.939z M381.615,47.495l0.074-0.04L381.615,47.495z"/>
		</g>
		<path fill="#343434" d="M392.922,50.652c-0.37,0.25-0.857,0.126-1.088-0.275c-0.23-0.402-0.117-0.931,0.253-1.18
			c3.409-2.314,6.987-4.07,10.732-5.274c3.739-1.201,7.644-1.85,11.714-1.952c0.435-0.009,0.794,0.366,0.803,0.838
			c0.008,0.472-0.337,0.864-0.772,0.872c-3.922,0.097-7.689,0.724-11.299,1.885C399.662,46.723,396.214,48.417,392.922,50.652z"/>
		<path fill="#343434" d="M393.296,52.144c-0.41,0.16-0.86-0.072-1.007-0.517c-0.147-0.444,0.067-0.934,0.476-1.092
			c3.789-1.48,7.629-2.376,11.516-2.691c3.89-0.315,7.833-0.052,11.827,0.784c0.428,0.088,0.709,0.538,0.627,1.003
			c-0.082,0.464-0.495,0.769-0.923,0.68c-3.855-0.806-7.66-1.061-11.412-0.757C400.643,49.858,396.941,50.72,393.296,52.144z"/>
		<path fill="#343434" d="M393.37,53.69c-0.432,0.062-0.827-0.269-0.884-0.737c-0.056-0.468,0.248-0.898,0.68-0.96
			c3.987-0.574,7.914-0.566,11.777,0.019c3.865,0.586,7.668,1.75,11.407,3.484c0.401,0.186,0.587,0.689,0.417,1.124
			c-0.171,0.435-0.634,0.637-1.035,0.452c-3.612-1.675-7.28-2.799-11.006-3.363C401,53.144,397.214,53.137,393.37,53.69z"/>
		<path fill="#343434" d="M379.559,49.197c0.37,0.249,0.484,0.778,0.254,1.18c-0.231,0.402-0.717,0.526-1.088,0.275
			c-3.292-2.235-6.74-3.928-10.342-5.087c-3.611-1.16-7.378-1.788-11.299-1.885c-0.435-0.009-0.781-0.4-0.773-0.872
			c0.008-0.472,0.368-0.846,0.804-0.838c4.07,0.101,7.974,0.75,11.713,1.952C372.573,45.127,376.15,46.882,379.559,49.197z"/>
		<path fill="#343434" d="M378.883,50.534c0.409,0.159,0.622,0.649,0.475,1.092c-0.146,0.445-0.597,0.677-1.007,0.517
			c-3.645-1.424-7.346-2.285-11.102-2.591c-3.753-0.304-7.557-0.05-11.413,0.757c-0.428,0.089-0.842-0.216-0.923-0.68
			c-0.081-0.465,0.199-0.914,0.627-1.003c3.994-0.836,7.937-1.099,11.827-0.784C371.254,48.158,375.094,49.054,378.883,50.534z"/>
		<path fill="#343434" d="M378.481,51.994c0.432,0.061,0.736,0.491,0.68,0.96c-0.056,0.469-0.452,0.799-0.884,0.737
			c-3.844-0.554-7.631-0.546-11.357,0.019c-3.726,0.564-7.394,1.687-11.005,3.363c-0.402,0.185-0.865-0.017-1.035-0.452
			c-0.171-0.435,0.016-0.938,0.417-1.124c3.739-1.734,7.542-2.897,11.407-3.484C370.568,51.428,374.494,51.418,378.481,51.994z"/>
		<path fill-rule="evenodd" clip-rule="evenodd" fill="#698AC6" d="M366.29,140.612c3.427,0,6.222-1.989,6.222-4.428
			c0-2.44-2.795-4.428-6.222-4.428c-3.427,0-6.222,1.988-6.222,4.428C360.068,138.622,362.863,140.612,366.29,140.612z"/>
		<path fill-rule="evenodd" clip-rule="evenodd" fill="#698AC6" d="M368.388,93.572c-0.554,11.829,7.794,36.274,5.873,42.629
			c-0.779,2.576-3.106,1.801-3.297,5.212c-0.244,4.351,12.231,4.7,11.491-0.635c-0.348-2.508-3.038-2.882-3.389-4.101
			c-0.961-3.336-2.6-47.134-0.678-53.012C380.31,77.787,369.116,78.044,368.388,93.572z"/>
		<path fill-rule="evenodd" clip-rule="evenodd" fill="#698AC6" d="M402.132,93.572c0.554,11.829-7.795,36.274-5.873,42.629
			c0.779,2.576,3.105,1.801,3.297,5.212c0.244,4.351-12.231,4.7-11.491-0.635c0.348-2.508,3.038-2.882,3.389-4.101
			c0.961-3.336,2.6-47.134,0.678-53.012C390.209,77.787,401.404,78.044,402.132,93.572z"/>
	</g>
	<path fill-rule="evenodd" clip-rule="evenodd" fill="#698AC6" d="M404.454,140.612c3.427,0,6.222-1.989,6.222-4.428
		c0-2.44-2.795-4.428-6.222-4.428c-3.427,0-6.223,1.988-6.223,4.428C398.232,138.622,401.027,140.612,404.454,140.612z"/>
</g>
<g>
	<path fill-rule="evenodd" clip-rule="evenodd" fill="#698AC6" d="M553.199,79.599c16.579,6.748,28.653,15.501,26.499,31.391
		c-1.676,12.368-12.599,18.396-18.536,13.586c-10.011-8.112,5.973-11.833,6.035-21.158c0.031-4.577-3.134-13.905-14.301-21.084
		C548.085,79.242,546.482,76.865,553.199,79.599z"/>
	<path fill-rule="evenodd" clip-rule="evenodd" fill="#698AC6" d="M541.401,78.397c8.44,5.065,5.529,15.833-0.94,27.563
		c-6.47,11.729-0.481,28.149-4.823,34.6c-4.342,6.452-17.939,3.207-10.492-0.586c7.859-4.002,3.715-6.451-0.554-13.488
		c-4.269-7.037-17.632-15.159-5.012-36.497C526.285,78.652,536.658,75.552,541.401,78.397z"/>
	<path fill-rule="evenodd" clip-rule="evenodd" fill="#698AC6" d="M509.065,63.405c16.45,11.749,48.193,6.067,49.095,30.219
		c0.92,24.638-43.365,22.755-67,9.954C469.046,91.601,492.934,51.882,509.065,63.405z"/>
	<path fill-rule="evenodd" clip-rule="evenodd" fill="#698AC6" d="M501.483,106.02c46.724,12.747,3.984-42.679,3.966-49.989
		c-0.002-1.048-7.929-1.066-7.935,0.183C497.482,63.517,454.759,93.274,501.483,106.02z"/>
	<path fill-rule="evenodd" clip-rule="evenodd" fill="#698AC6" d="M479.481,88.731c0.321,11.995,14.903,41.698,12.856,48.136
		c-0.83,2.61-3.309,1.824-3.513,5.282c-0.26,4.409,13.032,4.764,12.244-0.643c-0.37-2.541-3.237-2.92-3.611-4.155
		c-1.024-3.38,7.658-50.467,9.705-56.423C509.211,74.972,479.049,72.593,479.481,88.731z"/>
	<path fill-rule="evenodd" clip-rule="evenodd" fill="#698AC6" d="M531.956,26.385c-2.71,9.315-9.039,16.435-15.628,18.432
		c-4.739-4.363-6.44-13.16-3.731-22.475c2.345-8.061,7.419-14.306,12.988-17.353c1.879-1.028,3.297-0.976,4.579,1.196
		C533.145,11.235,534.255,18.48,531.956,26.385z"/>
	<path fill-rule="evenodd" clip-rule="evenodd" fill="#FBD8CF" d="M531.356,24.204c-1.921,6.604-6.408,11.651-11.078,13.066
		c-3.359-3.093-4.565-9.329-2.644-15.932c1.662-5.715,5.259-10.142,9.207-12.302c1.333-0.729,2.338-0.692,3.246,0.848
		C532.199,13.465,532.985,18.602,531.356,24.204z"/>
	<path fill-rule="evenodd" clip-rule="evenodd" fill="#698AC6" d="M470.937,26.385c2.71,9.315,9.04,16.435,15.629,18.432
		c4.739-4.363,6.439-13.16,3.73-22.475c-2.345-8.061-7.42-14.306-12.988-17.353c-1.879-1.028-3.298-0.976-4.579,1.196
		C469.748,11.235,468.639,18.48,470.937,26.385z"/>
	<path fill-rule="evenodd" clip-rule="evenodd" fill="#FBD8CF" d="M471.244,24.204c1.921,6.603,6.408,11.651,11.079,13.066
		c3.359-3.093,4.564-9.329,2.644-15.932c-1.662-5.715-5.259-10.141-9.207-12.302c-1.332-0.729-2.338-0.692-3.246,0.848
		C470.401,13.465,469.614,18.602,471.244,24.204z"/>
	<path fill-rule="evenodd" clip-rule="evenodd" fill="#698AC6" d="M501.447,64.203c16.901,0,30.684-11.42,30.684-25.422
		c0-14.003-13.783-25.423-30.684-25.423c-16.9,0-30.685,11.42-30.685,25.423C470.762,52.783,484.547,64.203,501.447,64.203z"/>
	<path fill-rule="evenodd" clip-rule="evenodd" fill="#A5BCE3" d="M503.938,13.443c0.059,3.031,0.091,6.22,0.091,9.513
		c0,19.883-1.146,36.002-2.56,36.002c-1.414,0-2.561-16.118-2.561-36.002c0-3.295,0.032-6.484,0.091-9.516
		c0.808-0.053,1.623-0.08,2.448-0.08C502.285,13.359,503.116,13.388,503.938,13.443z"/>
	<path fill-rule="evenodd" clip-rule="evenodd" fill="#A5BCE3" d="M481.462,58.071c5.369,3.822,12.351,6.132,19.985,6.132
		c7.655,0,14.654-2.323,20.029-6.164c0-11.651-8.958-21.096-20.007-21.096c-11.05,0-20.008,9.446-20.008,21.097L481.462,58.071z"/>
	<g>
		<path fill-rule="evenodd" clip-rule="evenodd" fill="#FFFFFF" d="M512.667,28.202c-3.135,0-5.812,1.954-6.882,4.711
			c1.07,2.756,3.748,4.711,6.882,4.711c3.134,0,5.812-1.955,6.882-4.711C518.479,30.156,515.801,28.202,512.667,28.202z"/>
		<path fill-rule="evenodd" clip-rule="evenodd" fill="#343434" d="M511.034,28.383c0.022,3.585,0.693,6.631,1.632,7.861
			c0.939-1.23,1.61-4.276,1.631-7.861c-0.525-0.119-1.07-0.181-1.631-0.181C512.105,28.202,511.56,28.264,511.034,28.383z"/>
		<path fill-rule="evenodd" clip-rule="evenodd" fill="#FFFFFF" d="M490.393,28.202c-3.134,0-5.812,1.954-6.881,4.711
			c1.07,2.756,3.747,4.711,6.881,4.711c3.135,0,5.812-1.955,6.882-4.711C496.205,30.156,493.527,28.202,490.393,28.202z"/>
		<path fill-rule="evenodd" clip-rule="evenodd" fill="#343434" d="M488.761,28.383c0.021,3.585,0.692,6.631,1.632,7.861
			c0.94-1.23,1.611-4.276,1.632-7.861c-0.524-0.119-1.071-0.181-1.632-0.181S489.286,28.264,488.761,28.383z"/>
	</g>
	<path fill="#343434" d="M502.141,44.332c-0.006-0.34-0.286-0.611-0.626-0.606c-0.34,0.005-0.611,0.285-0.606,0.625
		c0.062,3.625-1.329,5.894-3.14,7.008c-0.744,0.457-1.557,0.722-2.365,0.807c-0.811,0.087-1.618-0.005-2.348-0.262
		c-1.461-0.512-2.615-1.696-2.85-3.438c-0.045-0.337-0.355-0.573-0.692-0.528c-0.337,0.046-0.575,0.355-0.529,0.693
		c0.303,2.251,1.787,3.778,3.666,4.437c0.899,0.317,1.889,0.43,2.879,0.325c0.992-0.105,1.984-0.428,2.887-0.981
		C500.563,51.092,502.212,48.467,502.141,44.332z"/>
	<path fill="#343434" d="M502.145,44.351c0.005-0.34-0.266-0.62-0.606-0.625c-0.34-0.005-0.621,0.266-0.626,0.606
		c-0.071,4.136,1.578,6.76,3.724,8.08c0.902,0.554,1.895,0.877,2.887,0.981c0.99,0.105,1.979-0.008,2.879-0.325
		c1.878-0.659,3.363-2.186,3.666-4.437c0.045-0.338-0.191-0.648-0.529-0.693c-0.337-0.045-0.648,0.191-0.692,0.528
		c-0.235,1.742-1.389,2.926-2.85,3.438c-0.73,0.257-1.537,0.348-2.348,0.262c-0.808-0.086-1.622-0.35-2.365-0.807
		C503.474,50.245,502.082,47.977,502.145,44.351z"/>
	<g>
		<path fill-rule="evenodd" clip-rule="evenodd" fill="#343434" d="M505.123,45.042c0.565-0.894,0.963-1.902,1.153-2.982
			c-0.044-0.032-0.088-0.062-0.132-0.093l-0.02-0.013c-0.039-0.026-0.079-0.054-0.119-0.08l-0.039-0.024
			c-0.036-0.023-0.07-0.046-0.106-0.068l-0.041-0.025c-0.039-0.024-0.077-0.048-0.116-0.071l-0.042-0.024
			c-0.041-0.024-0.081-0.048-0.122-0.07l-0.034-0.019c-0.04-0.022-0.08-0.045-0.121-0.067l-0.034-0.017
			c-0.04-0.021-0.08-0.043-0.121-0.063l-0.043-0.022l-0.066-0.033l0.066,0.033l-0.066-0.033V45.042z M501.264,40.513h-0.018
			c-0.058,0.001-0.115,0.003-0.173,0.006h-0.012c-0.06,0.003-0.119,0.006-0.179,0.01l-0.017,0.001
			c-0.054,0.004-0.108,0.008-0.162,0.013l-0.028,0.002c-0.053,0.005-0.106,0.01-0.159,0.016l-0.019,0.002
			c-0.059,0.007-0.117,0.014-0.175,0.022l-0.01,0.001c-0.055,0.007-0.109,0.015-0.163,0.024l-0.031,0.005
			c-0.051,0.008-0.101,0.016-0.152,0.025l-0.022,0.004c-0.054,0.01-0.107,0.02-0.16,0.031l-0.036,0.007
			c-0.046,0.01-0.091,0.019-0.137,0.03l-0.038,0.009c-0.048,0.01-0.095,0.022-0.143,0.035l-0.032,0.007
			c-0.05,0.013-0.099,0.026-0.148,0.04l-0.036,0.009c-0.043,0.013-0.088,0.025-0.131,0.038l-0.042,0.013
			c-0.042,0.012-0.085,0.025-0.127,0.04l-0.059,0.018c-0.04,0.013-0.078,0.026-0.117,0.04l-0.055,0.019
			c-0.038,0.013-0.074,0.026-0.112,0.041l-0.055,0.02c-0.039,0.014-0.077,0.029-0.115,0.044l-0.062,0.025
			c-0.037,0.014-0.073,0.03-0.109,0.045l-0.049,0.02c-0.036,0.015-0.072,0.032-0.108,0.047l-0.063,0.03
			c-0.035,0.015-0.07,0.032-0.104,0.048l-0.062,0.031c-0.032,0.015-0.065,0.032-0.097,0.047l-0.057,0.028l-0.091,0.047l-0.088,0.047
			l-0.069,0.038l-0.082,0.045l-0.08,0.047l-0.072,0.043l-0.072,0.043c-0.029,0.018-0.058,0.037-0.088,0.055l-0.067,0.042
			l-0.074,0.048l-0.078,0.053l-0.055,0.037c0.448,2.778,2.276,5.095,4.759,6.223c1.48-0.673,2.727-1.767,3.589-3.131v-3.674
			l-0.066-0.033l0.066,0.033l-0.066-0.033l-0.034-0.016c-0.042-0.02-0.084-0.04-0.127-0.06l-0.031-0.013
			c-0.044-0.02-0.089-0.04-0.133-0.059l-0.027-0.012c-0.046-0.019-0.093-0.039-0.139-0.057l-0.039-0.016
			c-0.046-0.018-0.093-0.037-0.138-0.054l-0.026-0.01c-0.048-0.018-0.096-0.036-0.145-0.053l-0.021-0.007
			c-0.051-0.017-0.103-0.036-0.155-0.052l-0.01-0.004l-0.006-0.001c-0.053-0.018-0.106-0.035-0.161-0.052l-0.023-0.006
			c-0.049-0.015-0.099-0.03-0.149-0.045l-0.026-0.007c-0.052-0.014-0.104-0.028-0.157-0.042l-0.012-0.003
			c-0.056-0.014-0.112-0.027-0.169-0.041l-0.007-0.002l-0.01-0.002c-0.052-0.011-0.105-0.023-0.158-0.035l-0.029-0.006
			c-0.051-0.01-0.102-0.02-0.153-0.03l-0.025-0.004c-0.055-0.011-0.111-0.02-0.167-0.03l-0.006-0.001l-0.003-0.001
			c-0.058-0.009-0.118-0.017-0.177-0.025l-0.016-0.003c-0.056-0.007-0.113-0.014-0.169-0.02l-0.016-0.002
			c-0.059-0.007-0.119-0.013-0.178-0.018l-0.005-0.001c-0.061-0.005-0.123-0.01-0.184-0.014l-0.01-0.001
			c-0.06-0.004-0.119-0.007-0.178-0.01h-0.015c-0.058-0.003-0.116-0.005-0.175-0.006h-0.015c-0.062-0.002-0.125-0.003-0.187-0.003
			C501.385,40.51,501.325,40.511,501.264,40.513z"/>
	</g>
	<g>
		<path fill="#343434" d="M495.134,43.987c0.329,0.205,0.762,0.104,0.967-0.225c0.205-0.33,0.104-0.763-0.225-0.967
			c-3.031-1.896-6.213-3.334-9.545-4.321c-3.324-0.984-6.797-1.516-10.417-1.598c-0.386-0.008-0.707,0.299-0.714,0.686
			c-0.007,0.387,0.3,0.707,0.687,0.714c3.488,0.08,6.838,0.594,10.049,1.544C489.14,40.769,492.207,42.156,495.134,43.987z"/>
		<path fill="#343434" d="M494.801,45.209c0.364,0.13,0.766-0.059,0.896-0.423c0.13-0.364-0.059-0.765-0.423-0.896
			c-3.37-1.212-6.785-1.946-10.241-2.203c-3.46-0.259-6.966-0.044-10.517,0.64c-0.38,0.073-0.631,0.441-0.557,0.822
			c0.072,0.381,0.44,0.63,0.821,0.558c3.428-0.661,6.812-0.869,10.15-0.62C488.268,43.336,491.56,44.043,494.801,45.209z"/>
		<path fill="#343434" d="M494.736,46.477c0.384,0.05,0.736-0.221,0.785-0.605c0.05-0.384-0.22-0.735-0.604-0.786
			c-3.547-0.47-7.039-0.464-10.474,0.015c-3.438,0.48-6.819,1.433-10.144,2.855c-0.356,0.151-0.522,0.564-0.371,0.92
			c0.151,0.356,0.564,0.522,0.92,0.371c3.212-1.372,6.475-2.293,9.788-2.755C487.951,46.029,491.317,46.022,494.736,46.477z"/>
		<path fill="#343434" d="M507.017,42.794c-0.329,0.205-0.43,0.637-0.225,0.967c0.205,0.329,0.638,0.43,0.967,0.225
			c2.927-1.831,5.993-3.218,9.198-4.167c3.211-0.951,6.561-1.464,10.049-1.544c0.386-0.007,0.694-0.327,0.687-0.714
			c-0.008-0.387-0.328-0.694-0.714-0.686c-3.619,0.082-7.093,0.614-10.417,1.598C513.23,39.46,510.048,40.899,507.017,42.794z"/>
		<path fill="#343434" d="M507.619,43.89c-0.364,0.131-0.554,0.532-0.423,0.896c0.13,0.364,0.531,0.554,0.896,0.423
			c3.242-1.167,6.533-1.873,9.872-2.123c3.337-0.249,6.721-0.041,10.15,0.62c0.38,0.072,0.748-0.177,0.821-0.558
			c0.073-0.381-0.177-0.748-0.558-0.822c-3.552-0.684-7.057-0.899-10.517-0.64C514.403,41.944,510.989,42.678,507.619,43.89z"/>
		<path fill="#343434" d="M507.976,45.086c-0.383,0.051-0.654,0.402-0.604,0.786c0.05,0.384,0.402,0.655,0.786,0.605
			c3.419-0.455,6.786-0.448,10.1,0.015c3.313,0.462,6.575,1.383,9.787,2.755c0.356,0.152,0.769-0.014,0.92-0.371
			c0.152-0.356-0.014-0.77-0.37-0.92c-3.326-1.421-6.707-2.374-10.145-2.855C515.014,44.622,511.523,44.615,507.976,45.086z"/>
	</g>
	<path fill-rule="evenodd" clip-rule="evenodd" fill="#A5BCE3" d="M549.086,108.782c-9.339,4.954-24.453,5.031-38.459,1.861
		c0.74-2.626,1.901-5.281,4.086-8.697c9.62,6.188,20.157,4.512,29.257,1.638C546.614,102.75,548.185,105.072,549.086,108.782z"/>
	<path fill-rule="evenodd" clip-rule="evenodd" fill="#698AC6" d="M549.407,78.397c9.881,5.065,10.033,15.833,6.898,27.563
		c-3.136,11.729,7.524,28.149,5.016,34.6c-2.508,6.452-17.028,3.207-10.659-0.586c6.72-4.002,1.88-6.451-4.39-13.488
		c-6.27-7.037-21.943-15.159-15.39-36.497C534.365,78.652,543.856,75.552,549.407,78.397z"/>
	<path fill-rule="evenodd" clip-rule="evenodd" fill="#698AC6" d="M522.667,86.718c0.59,11.988-14.099,43.711-12.052,50.149
		c0.83,2.61,3.309,1.824,3.512,5.282c0.26,4.409-13.032,4.764-12.244-0.643c0.371-2.541,3.238-2.92,3.612-4.155
		c1.024-3.38-7.659-50.467-9.707-56.423C493.741,74.972,521.891,70.983,522.667,86.718z"/>
	<path fill-rule="evenodd" clip-rule="evenodd" fill="#A5BCE3" d="M501.483,106.02c5.271-9.412,10.542-22.966-2.635-22.589
		C485.67,83.807,490.941,95.102,501.483,106.02z"/>
</g>
<g>
	<path fill="#698AC6" d="M670.245,92.197c0.64,0.909,1.896,1.128,2.805,0.487c0.91-0.639,1.128-1.895,0.488-2.804
		c-4.647-6.579-9.075-9.468-13.753-10.12c-4.608-0.643-9.198,0.944-14.392,3.313c-2.443,1.112-4.798,1.399-6.87,1.056
		c-1.889-0.312-3.546-1.154-4.812-2.366c-1.257-1.205-2.133-2.778-2.468-4.564c-0.342-1.819-0.131-3.871,0.791-5.999
		c1.18-2.721,3.173-3.921,5.057-3.979c0.732-0.023,1.45,0.121,2.094,0.408c0.629,0.281,1.189,0.701,1.622,1.237
		c1.077,1.334,1.377,3.461,0.091,6.118c-0.482,1.001-0.063,2.204,0.938,2.686c1.001,0.483,2.204,0.064,2.687-0.937
		c2.07-4.278,1.398-7.939-0.579-10.389c-0.84-1.04-1.917-1.851-3.12-2.388c-1.189-0.531-2.506-0.796-3.843-0.755
		c-3.31,0.102-6.739,2.037-8.634,6.406c-1.262,2.912-1.541,5.765-1.06,8.331c0.495,2.632,1.784,4.95,3.635,6.724
		c1.843,1.766,4.239,2.989,6.956,3.438c2.811,0.465,5.964,0.097,9.185-1.372c4.568-2.082,8.529-3.488,12.17-2.98
		C662.806,84.246,666.328,86.652,670.245,92.197z"/>
	<path fill-rule="evenodd" clip-rule="evenodd" fill="#698AC6" d="M686.787,109.002c-12.351,0-22.224-4.649-22.603-11.474
		c-1.166-21.065,25.242-26.463,18.903-48.202c-0.358-1.229,7.396-1.273,7.401,0.219C690.517,58.263,727.479,109.002,686.787,109.002
		z"/>
	<path fill-rule="evenodd" clip-rule="evenodd" fill="#698AC6" d="M711.188,32.444c-5.71,9.567-14.847,15.198-22.804,14.878
		c-4.059-6.851-3.441-17.566,2.269-27.134c4.94-8.278,12.421-13.407,19.536-14.688c2.402-0.432,3.977,0.186,4.789,3.173
		C716.867,15.615,716.032,24.326,711.188,32.444z"/>
	<path fill-rule="evenodd" clip-rule="evenodd" fill="#FBD8CF" d="M707.495,30.599c-4.499,7.538-11.698,11.975-17.967,11.723
		c-3.198-5.398-2.711-13.84,1.788-21.378c3.893-6.522,9.787-10.563,15.392-11.572c1.892-0.341,3.133,0.147,3.773,2.499
		C711.97,17.34,711.312,24.203,707.495,30.599z"/>
	<path fill-rule="evenodd" clip-rule="evenodd" fill="#698AC6" d="M662.38,32.184c5.71,9.566,14.848,15.197,22.804,14.877
		c4.06-6.851,3.441-17.565-2.269-27.133c-4.941-8.278-12.421-13.407-19.536-14.688c-2.402-0.433-3.976,0.187-4.789,3.172
		C656.7,15.354,657.535,24.065,662.38,32.184z"/>
	<path fill-rule="evenodd" clip-rule="evenodd" fill="#FBD8CF" d="M666.475,30.6c4.498,7.537,11.698,11.974,17.966,11.722
		c3.198-5.398,2.711-13.84-1.788-21.378c-3.893-6.522-9.786-10.563-15.392-11.572c-1.893-0.342-3.133,0.147-3.773,2.499
		C662,17.34,662.658,24.203,666.475,30.6z"/>
	<path fill-rule="evenodd" clip-rule="evenodd" fill="#698AC6" d="M711.188,32.444c-5.557,31.714-43.708,30.71-48.925,0
		C670.88,12.898,702.57,13.032,711.188,32.444z"/>
	<path fill-rule="evenodd" clip-rule="evenodd" fill="#FFFFFF" d="M676.92,27.53c2.759,0,5.117,1.721,6.059,4.147
		c-0.942,2.427-3.3,4.148-6.059,4.148c-2.76,0-5.118-1.721-6.06-4.148C671.802,29.251,674.16,27.53,676.92,27.53z"/>
	<path fill-rule="evenodd" clip-rule="evenodd" fill="#343434" d="M678.356,27.689c-0.018,3.156-0.609,5.839-1.436,6.922
		c-0.827-1.083-1.418-3.766-1.438-6.922c0.463-0.105,0.943-0.159,1.438-0.159C677.413,27.53,677.894,27.585,678.356,27.689z"/>
	<path fill-rule="evenodd" clip-rule="evenodd" fill="#FFFFFF" d="M696.53,27.53c2.76,0,5.118,1.721,6.06,4.147
		c-0.942,2.427-3.299,4.148-6.06,4.148c-2.76,0-5.117-1.721-6.059-4.148C691.414,29.251,693.771,27.53,696.53,27.53z"/>
	<path fill-rule="evenodd" clip-rule="evenodd" fill="#343434" d="M697.967,27.689c-0.019,3.156-0.61,5.839-1.437,6.922
		c-0.827-1.083-1.417-3.766-1.436-6.922c0.462-0.105,0.943-0.159,1.436-0.159C697.024,27.53,697.505,27.585,697.967,27.689z"/>
	<path fill="#343434" d="M686.151,41.731c0.005-0.317,0.267-0.57,0.583-0.565c0.317,0.006,0.57,0.267,0.565,0.583
		c-0.055,3.18,1.164,5.167,2.75,6.142c0.65,0.4,1.363,0.633,2.069,0.707c0.709,0.075,1.415-0.006,2.053-0.229
		c1.275-0.447,2.283-1.48,2.487-3.001c0.042-0.314,0.332-0.536,0.646-0.493c0.314,0.042,0.535,0.331,0.493,0.646
		c-0.268,1.996-1.584,3.35-3.249,3.934c-0.796,0.279-1.673,0.38-2.548,0.287c-0.878-0.093-1.756-0.377-2.555-0.869
		C687.547,47.706,686.087,45.385,686.151,41.731z"/>
	<path fill="#343434" d="M686.147,41.749c-0.005-0.316,0.249-0.577,0.565-0.583c0.317-0.005,0.579,0.248,0.583,0.565
		c0.063,3.653-1.396,5.975-3.294,7.141c-0.798,0.491-1.677,0.776-2.555,0.869c-0.876,0.093-1.752-0.008-2.548-0.287
		c-1.665-0.584-2.981-1.938-3.249-3.934c-0.043-0.314,0.178-0.604,0.493-0.646c0.315-0.043,0.603,0.179,0.646,0.493
		c0.204,1.521,1.212,2.554,2.487,3.001c0.639,0.223,1.345,0.303,2.054,0.229c0.707-0.074,1.418-0.307,2.069-0.707
		C684.984,46.916,686.202,44.929,686.147,41.749z"/>
	<g>
		<path fill-rule="evenodd" clip-rule="evenodd" fill="#343434" d="M686.956,38.369h0.015c0.052,0.001,0.102,0.002,0.153,0.006h0.01
			c0.052,0.002,0.105,0.005,0.157,0.009l0.016,0.001c0.048,0.003,0.096,0.007,0.143,0.012l0.025,0.002
			c0.046,0.004,0.093,0.009,0.14,0.014l0.017,0.003c0.051,0.005,0.103,0.012,0.155,0.019l0.007,0.002
			c0.049,0.006,0.097,0.013,0.144,0.021l0.028,0.005c0.045,0.007,0.089,0.015,0.134,0.023l0.019,0.003
			c0.047,0.009,0.095,0.019,0.142,0.027l0.032,0.008c0.04,0.008,0.081,0.017,0.12,0.025l0.034,0.008
			c0.042,0.01,0.083,0.02,0.125,0.03l0.029,0.008c0.043,0.01,0.086,0.021,0.129,0.034l0.031,0.008
			c0.038,0.012,0.077,0.023,0.115,0.033l0.037,0.012c0.037,0.011,0.075,0.022,0.112,0.034l0.052,0.018
			c0.035,0.011,0.069,0.022,0.103,0.034l0.048,0.018c0.033,0.011,0.065,0.022,0.098,0.034l0.049,0.018
			c0.034,0.013,0.068,0.025,0.102,0.039l0.054,0.022c0.032,0.014,0.064,0.027,0.097,0.04l0.043,0.019
			c0.031,0.014,0.064,0.027,0.095,0.042l0.056,0.025c0.03,0.015,0.061,0.029,0.092,0.043l0.054,0.026
			c0.028,0.014,0.057,0.027,0.085,0.042l0.05,0.024l0.08,0.041l0.078,0.042l0.061,0.033l0.071,0.039l0.071,0.041l0.063,0.038
			l0.063,0.038c0.026,0.016,0.053,0.031,0.078,0.048l0.059,0.037l0.065,0.041l0.071,0.047l0.047,0.032
			c-0.395,2.446-2.004,4.485-4.19,5.479c-1.303-0.592-2.401-1.556-3.16-2.756v-3.235l0.058-0.028l-0.058,0.028l0.058-0.028
			l0.03-0.014c0.037-0.019,0.074-0.036,0.112-0.054l0.026-0.012c0.04-0.018,0.079-0.034,0.118-0.052l0.024-0.011
			c0.04-0.018,0.081-0.034,0.122-0.051l0.035-0.014c0.04-0.017,0.081-0.032,0.121-0.048l0.024-0.009
			c0.042-0.016,0.085-0.031,0.128-0.046l0.018-0.007c0.046-0.016,0.091-0.032,0.137-0.047l0.008-0.003l0.005-0.001
			c0.047-0.016,0.094-0.03,0.142-0.045l0.021-0.006c0.044-0.014,0.088-0.026,0.132-0.039l0.023-0.006
			c0.046-0.013,0.092-0.025,0.139-0.037l0.01-0.002c0.049-0.014,0.099-0.025,0.148-0.037l0.006-0.001l0.009-0.003
			c0.046-0.01,0.093-0.021,0.14-0.03l0.026-0.005c0.044-0.01,0.089-0.019,0.134-0.026l0.022-0.004
			c0.049-0.01,0.098-0.018,0.147-0.025l0.005-0.002h0.003c0.052-0.008,0.104-0.016,0.155-0.023l0.014-0.002
			c0.049-0.007,0.099-0.013,0.149-0.019l0.014-0.002c0.052-0.006,0.104-0.012,0.157-0.016l0.004-0.001
			c0.053-0.005,0.107-0.01,0.162-0.013l0.009-0.001c0.051-0.003,0.103-0.006,0.156-0.009h0.013c0.051-0.003,0.102-0.005,0.154-0.006
			h0.014c0.054-0.002,0.109-0.002,0.163-0.002C686.849,38.367,686.902,38.367,686.956,38.369z M683.558,42.357
			c-0.497-0.786-0.848-1.674-1.015-2.625c0.038-0.028,0.077-0.055,0.116-0.082l0.018-0.012c0.035-0.023,0.069-0.047,0.105-0.07
			l0.034-0.022c0.031-0.02,0.063-0.04,0.094-0.06l0.036-0.023c0.034-0.02,0.068-0.041,0.103-0.062l0.037-0.021
			c0.036-0.021,0.071-0.042,0.107-0.062l0.029-0.017c0.036-0.02,0.071-0.039,0.107-0.059l0.03-0.016
			c0.035-0.019,0.07-0.038,0.107-0.056l0.038-0.02l0.058-0.029l-0.058,0.029l0.058-0.029V42.357z"/>
	</g>
	<g>
		<path fill="#343434" d="M691.729,41.313c-0.24,0.15-0.557,0.076-0.706-0.164c-0.15-0.241-0.076-0.558,0.164-0.707
			c2.409-1.506,4.938-2.649,7.584-3.434c2.643-0.781,5.402-1.204,8.278-1.271c0.283-0.005,0.517,0.22,0.522,0.502
			c0.005,0.282-0.219,0.517-0.502,0.521c-2.78,0.065-5.45,0.474-8.009,1.232C696.506,38.748,694.062,39.855,691.729,41.313z"/>
		<path fill="#343434" d="M692.003,42.282c-0.267,0.095-0.559-0.044-0.654-0.31c-0.095-0.267,0.043-0.56,0.309-0.654
			c2.677-0.963,5.39-1.546,8.138-1.752c2.749-0.205,5.536-0.033,8.357,0.511c0.278,0.053,0.461,0.321,0.408,0.6
			c-0.053,0.278-0.322,0.46-0.6,0.407c-2.732-0.527-5.429-0.692-8.089-0.494C697.21,40.789,694.586,41.352,692.003,42.282z"/>
		<path fill="#343434" d="M692.065,43.288c-0.28,0.036-0.538-0.161-0.574-0.441c-0.037-0.281,0.161-0.537,0.441-0.574
			c2.818-0.375,5.593-0.369,8.323,0.012c2.731,0.382,5.419,1.14,8.062,2.267c0.26,0.111,0.381,0.412,0.271,0.673
			c-0.111,0.261-0.412,0.382-0.672,0.271c-2.56-1.094-5.16-1.827-7.8-2.196C697.473,42.932,694.789,42.927,692.065,43.288z"/>
		<path fill="#343434" d="M682.272,40.441c0.241,0.149,0.314,0.466,0.165,0.707c-0.15,0.24-0.466,0.314-0.707,0.164
			c-2.333-1.458-4.777-2.564-7.331-3.32c-2.559-0.758-5.229-1.167-8.009-1.232c-0.282-0.005-0.507-0.239-0.501-0.521
			c0.005-0.282,0.239-0.507,0.521-0.502c2.876,0.066,5.636,0.489,8.277,1.271C677.335,37.792,679.863,38.936,682.272,40.441z"/>
		<path fill="#343434" d="M681.802,41.318c0.266,0.095,0.404,0.388,0.309,0.654c-0.095,0.266-0.389,0.404-0.654,0.31
			c-2.584-0.931-5.208-1.493-7.869-1.692c-2.66-0.198-5.357-0.033-8.089,0.494c-0.279,0.053-0.548-0.129-0.6-0.407
			c-0.053-0.278,0.129-0.547,0.407-0.6c2.823-0.544,5.609-0.716,8.358-0.511C676.412,39.772,679.125,40.355,681.802,41.318z"/>
		<path fill="#343434" d="M681.528,42.272c0.28,0.037,0.478,0.293,0.441,0.574c-0.036,0.28-0.293,0.478-0.574,0.441
			c-2.725-0.362-5.408-0.356-8.05,0.012c-2.64,0.369-5.24,1.103-7.799,2.196c-0.261,0.11-0.562-0.011-0.673-0.271
			c-0.111-0.261,0.01-0.562,0.271-0.673c2.642-1.128,5.329-1.886,8.061-2.267C675.935,41.903,678.709,41.897,681.528,42.272z"/>
	</g>
	<path fill-rule="evenodd" clip-rule="evenodd" fill="#698AC6" d="M705.225,97.238c0.405,11.179-8.19,34.28-6.359,40.285
		c0.742,2.434,3.063,1.701,3.212,4.925c0.189,4.112-12.211,4.442-11.411-0.6c0.376-2.37,3.055-2.724,3.418-3.875
		c0.996-3.152,3.162-44.543,1.324-50.098C693.571,82.321,704.692,82.564,705.225,97.238z"/>
	<path fill-rule="evenodd" clip-rule="evenodd" fill="#698AC6" d="M687.167,97.238c0.127,11.179-9.042,34.28-7.36,40.285
		c0.682,2.434,3.022,1.701,3.089,4.925c0.087,4.112-12.321,4.442-11.396-0.6c0.435-2.37,3.122-2.724,3.514-3.875
		c1.074-3.152,4.27-44.543,2.57-50.098C675.884,82.321,686.999,82.564,687.167,97.238z"/>
	<path fill-rule="evenodd" clip-rule="evenodd" fill="#A6BDE3" d="M696.003,107.826c-1.845,0.568-3.988,0.958-6.454,1.15
		c-4.235-13.83-4.104-22.859,4.59-22.076C703.831,87.775,699.358,96.052,696.003,107.826z"/>
	<path fill-rule="evenodd" clip-rule="evenodd" fill="#A6BDE3" d="M683.447,109.06c-10.403-0.476-16.063-2.978-18.966-8.191
		c1.187-3.639,1.253-7.199,3.235-4.651c1.982,2.549,3.774,5.599,12.986,2.966C681.835,102.735,682.734,106.026,683.447,109.06z"/>
	<path fill-rule="evenodd" clip-rule="evenodd" fill="#698AC6" d="M675.063,97.238c1.633,11.179,14.443,34.28,13.707,40.285
		c-0.298,2.434-2.753,1.701-2.314,4.925c0.561,4.112,13.022,4.442,11.302-0.6c-0.809-2.37-3.551-2.724-4.125-3.875
		c-1.57-3.152-11.286-44.543-10.462-50.098C683.996,82.321,672.919,82.564,675.063,97.238z"/>
	<path fill-rule="evenodd" clip-rule="evenodd" fill="#698AC6" d="M663.557,97.238c-1.784,11.179,3.962,34.28,1.39,40.285
		c-1.043,2.434-3.274,1.701-3.82,4.925c-0.696,4.112,11.664,4.442,11.485-0.6c-0.084-2.37-2.719-2.724-2.94-3.875
		c-0.607-3.152,2.333-44.543,4.855-50.098C677.051,82.321,665.9,82.564,663.557,97.238z"/>
</g>
<g>
	<path fill-rule="evenodd" clip-rule="evenodd" fill="#698AC6" d="M823.036,22.514c2.254,6.879,5.862,10.928,9.003,10.698
		c1.602-4.926,1.359-12.631-0.896-19.51c-1.951-5.953-4.904-9.641-7.713-10.562c-0.948-0.31-1.57,0.134-1.891,2.281
		C820.793,10.414,821.123,16.678,823.036,22.514z"/>
	<path fill-rule="evenodd" clip-rule="evenodd" fill="#FBD8CF" d="M824.667,20.669c1.736,5.298,4.515,8.417,6.934,8.239
		c1.234-3.794,1.047-9.728-0.69-15.026c-1.502-4.585-3.777-7.425-5.94-8.134c-0.73-0.239-1.209,0.103-1.456,1.757
		C822.939,11.349,823.193,16.173,824.667,20.669z"/>
	<path fill-rule="evenodd" clip-rule="evenodd" fill="#698AC6" d="M873.905,22.514c-2.254,6.879-5.862,10.928-9.003,10.698
		c-1.602-4.926-1.358-12.631,0.896-19.51c1.95-5.953,4.904-9.641,7.713-10.562c0.948-0.31,1.57,0.134,1.891,2.281
		C876.148,10.414,875.818,16.678,873.905,22.514z"/>
	<path fill-rule="evenodd" clip-rule="evenodd" fill="#FBD8CF" d="M872.605,20.573c-1.794,5.473-4.664,8.695-7.164,8.512
		c-1.275-3.92-1.081-10.051,0.713-15.525c1.552-4.736,3.902-7.671,6.138-8.403c0.754-0.248,1.249,0.106,1.505,1.815
		C874.39,10.944,874.127,15.928,872.605,20.573z"/>
	<path fill-rule="evenodd" clip-rule="evenodd" fill="#698AC6" d="M849.106,5.356c17.769,0,23.944,6.615,23.944,18.279
		c0,11.664-10.72,21.12-23.944,21.12c-13.224,0-23.944-9.455-23.944-21.12C825.162,11.971,831.337,5.356,849.106,5.356z"/>
	<path fill-rule="evenodd" clip-rule="evenodd" fill="#698AC6" d="M811.12,76.592c-7.192,5.615-3.917,12.256,1.596,25.259
		c5.513,13.002,0.409,31.205,4.109,38.357c3.7,7.152,15.286,3.555,8.94-0.65c-6.696-4.437-3.166-7.151,0.471-14.953
		c3.638-7.802,14.229-11.509,3.476-35.162C823.999,76.875,815.161,73.437,811.12,76.592z"/>
	<path fill-rule="evenodd" clip-rule="evenodd" fill="#698AC6" d="M839.067,70.161c-14.016,11.296-40.665-4.856-41.433,18.366
		c-0.784,23.689,36.949,21.879,57.087,9.571C873.564,86.582,852.811,59.081,839.067,70.161z"/>
	<path fill-rule="evenodd" clip-rule="evenodd" fill="#698AC6" d="M845.926,98.915c-26.533,10.085-34.081-17.202-7.347-27.99
		c9.285-3.748,7.424-28.694,7.429-31.588c0.002-1.244,6.794-2.87,6.53-1.398C849.335,55.837,885.737,83.784,845.926,98.915z"/>
	<path fill-rule="evenodd" clip-rule="evenodd" fill="#A5BCE3" d="M809.62,102.241c10.944,1.563,22.514,2.188,29.393-2.189
		c1.602-1.019,2.949,0.523,3.86,3.447c-11.214,3.737-24.05,4.74-33.181,1.588C809.658,104.163,809.635,103.215,809.62,102.241z"/>
	<path fill-rule="evenodd" clip-rule="evenodd" fill="#698AC6" d="M827.876,87.123c-0.503,14.231,12.013,40.769,10.268,48.412
		c-0.707,3.099-2.82,2.167-2.993,6.27c-0.222,5.236,11.104,5.656,10.433-0.763c-0.315-3.017-2.759-3.467-3.077-4.933
		c-0.873-4.013,6.524-48.79,8.27-55.861C852.523,73.178,828.536,68.442,827.876,87.123z"/>
	<path fill-rule="evenodd" clip-rule="evenodd" fill="#698AC6" d="M864.673,81.036c-0.274,14.242-12.699,46.855-10.955,54.499
		c0.708,3.099,2.82,2.167,2.994,6.27c0.221,5.236-11.105,5.656-10.433-0.763c0.315-3.017,2.759-3.467,3.077-4.933
		c0.872-4.013-6.525-57.265-8.27-64.335C839.341,64.703,865.041,61.879,864.673,81.036z"/>
	<path fill-rule="evenodd" clip-rule="evenodd" fill="#698AC6" d="M804.033,77.399c-8.419,5.43-7.489,13.269-4.818,25.845
		c2.672,12.575-6.41,30.181-4.274,37.098c2.137,6.917,14.508,3.438,9.083-0.629c-5.727-4.291-1.603-6.916,3.74-14.462
		c5.343-7.546,17.637-12.546,12.053-35.423C816.85,77.673,808.763,74.348,804.033,77.399z"/>
	<path fill-rule="evenodd" clip-rule="evenodd" fill="#FFFFFF" d="M836.923,15.568c4.28,0,7.937,1.626,9.398,3.918
		c-1.461,2.293-5.118,3.919-9.398,3.919c-4.281,0-7.938-1.626-9.398-3.919C828.985,17.194,832.642,15.568,836.923,15.568z"/>
	<path fill-rule="evenodd" clip-rule="evenodd" fill="#343434" d="M839.152,15.719c-0.03,2.982-0.946,5.516-2.228,6.54
		c-1.284-1.023-2.199-3.557-2.229-6.54c0.717-0.098,1.463-0.15,2.229-0.15C837.689,15.568,838.435,15.621,839.152,15.719z"/>
	<path fill-rule="evenodd" clip-rule="evenodd" fill="#FFFFFF" d="M860.37,15.568c4.281,0,7.938,1.626,9.398,3.918
		c-1.461,2.293-5.117,3.919-9.398,3.919c-4.281,0-7.936-1.626-9.398-3.919C852.433,17.194,856.089,15.568,860.37,15.568z"/>
	<path fill-rule="evenodd" clip-rule="evenodd" fill="#343434" d="M862.598,15.719c-0.03,2.982-0.946,5.516-2.229,6.54
		c-1.283-1.023-2.199-3.557-2.229-6.54c0.717-0.098,1.463-0.15,2.229-0.15S861.881,15.621,862.598,15.719z"/>
	<path fill="#343434" d="M847.958,31.965c0.005-0.332,0.279-0.597,0.611-0.592c0.332,0.005,0.597,0.279,0.592,0.611
		c-0.058,3.33,1.218,5.41,2.879,6.431c0.682,0.419,1.426,0.661,2.166,0.74c0.743,0.079,1.482-0.005,2.151-0.239
		c1.335-0.469,2.39-1.55,2.605-3.143c0.044-0.329,0.348-0.56,0.677-0.516c0.329,0.044,0.56,0.348,0.516,0.676
		c-0.281,2.089-1.659,3.507-3.402,4.119c-0.834,0.292-1.752,0.397-2.669,0.3c-0.919-0.097-1.839-0.396-2.676-0.91
		C849.421,38.221,847.892,35.791,847.958,31.965z"/>
	<path fill="#343434" d="M847.955,31.984c-0.005-0.332,0.26-0.605,0.591-0.611c0.332-0.005,0.605,0.26,0.611,0.592
		c0.066,3.826-1.462,6.255-3.449,7.477c-0.837,0.514-1.757,0.813-2.676,0.91c-0.917,0.097-1.835-0.008-2.669-0.3
		c-1.743-0.612-3.12-2.029-3.402-4.119c-0.044-0.329,0.187-0.633,0.516-0.676c0.329-0.044,0.633,0.187,0.677,0.516
		c0.215,1.593,1.27,2.674,2.605,3.143c0.668,0.233,1.407,0.318,2.15,0.239c0.74-0.079,1.485-0.321,2.167-0.74
		C846.736,37.394,848.012,35.314,847.955,31.984z"/>
	<g>
		<path fill-rule="evenodd" clip-rule="evenodd" fill="#343434" d="M848.801,28.444l0.017,0.001c0.053,0.001,0.106,0.003,0.16,0.005
			l0.011,0.001c0.055,0.002,0.109,0.005,0.164,0.008l0.017,0.002c0.049,0.003,0.099,0.008,0.149,0.012l0.026,0.003
			c0.049,0.004,0.098,0.009,0.147,0.015l0.017,0.002c0.055,0.006,0.108,0.013,0.162,0.019l0.008,0.003
			c0.05,0.006,0.1,0.014,0.15,0.021l0.029,0.005c0.047,0.008,0.093,0.015,0.14,0.024l0.02,0.004c0.05,0.008,0.099,0.018,0.148,0.028
			l0.033,0.007c0.042,0.009,0.084,0.019,0.126,0.028l0.035,0.008c0.044,0.009,0.088,0.02,0.132,0.031l0.03,0.007
			c0.045,0.012,0.091,0.025,0.136,0.036l0.032,0.009c0.04,0.011,0.08,0.023,0.12,0.035l0.038,0.011
			c0.04,0.013,0.079,0.025,0.118,0.037l0.054,0.018c0.036,0.012,0.072,0.024,0.108,0.036l0.049,0.017
			c0.035,0.013,0.07,0.025,0.104,0.038l0.05,0.019c0.035,0.014,0.071,0.027,0.106,0.041l0.057,0.022
			c0.033,0.014,0.067,0.028,0.1,0.041l0.045,0.019c0.034,0.014,0.066,0.029,0.1,0.044l0.059,0.026
			c0.032,0.014,0.064,0.03,0.095,0.045l0.057,0.027c0.03,0.014,0.06,0.029,0.09,0.044l0.052,0.026l0.084,0.043l0.08,0.043
			l0.064,0.035l0.074,0.041l0.074,0.043l0.066,0.039l0.066,0.041c0.027,0.016,0.054,0.032,0.081,0.05l0.061,0.039l0.068,0.044
			l0.073,0.048l0.05,0.034c-0.413,2.561-2.098,4.697-4.387,5.737c-1.364-0.621-2.514-1.63-3.308-2.887v-3.387l0.06-0.03l-0.06,0.03
			l0.06-0.03l0.031-0.015c0.039-0.019,0.078-0.036,0.117-0.055l0.029-0.013c0.041-0.019,0.082-0.036,0.122-0.054l0.025-0.011
			c0.043-0.019,0.085-0.035,0.128-0.053l0.036-0.015c0.042-0.017,0.085-0.034,0.127-0.049l0.025-0.009
			c0.044-0.016,0.089-0.033,0.133-0.049l0.018-0.007c0.048-0.017,0.096-0.032,0.143-0.049l0.01-0.003l0.005-0.002
			c0.049-0.016,0.098-0.031,0.148-0.047l0.022-0.007c0.046-0.014,0.092-0.027,0.138-0.041l0.024-0.006
			c0.048-0.014,0.097-0.027,0.145-0.04l0.011-0.003c0.051-0.013,0.103-0.025,0.155-0.037l0.007-0.002l0.009-0.002
			c0.048-0.011,0.097-0.022,0.146-0.033l0.028-0.005c0.046-0.01,0.093-0.019,0.141-0.028l0.022-0.003
			c0.051-0.01,0.102-0.019,0.153-0.027l0.006-0.001l0.003-0.001c0.054-0.008,0.108-0.016,0.163-0.024l0.014-0.003
			c0.052-0.007,0.104-0.013,0.156-0.019l0.015-0.002c0.055-0.006,0.109-0.012,0.163-0.017h0.005c0.056-0.005,0.112-0.01,0.17-0.014
			h0.01c0.054-0.003,0.109-0.007,0.163-0.009l0.014-0.001c0.054-0.003,0.107-0.004,0.161-0.005l0.014-0.001
			c0.057-0.001,0.114-0.002,0.172-0.002C848.689,28.443,848.745,28.444,848.801,28.444z M845.243,32.621
			c-0.52-0.824-0.888-1.753-1.063-2.749c0.04-0.029,0.081-0.057,0.121-0.085l0.019-0.013c0.036-0.025,0.072-0.049,0.109-0.073
			l0.036-0.024c0.032-0.021,0.065-0.042,0.097-0.063l0.038-0.024c0.035-0.022,0.071-0.044,0.107-0.065l0.039-0.023
			c0.037-0.022,0.074-0.044,0.112-0.065l0.031-0.017c0.037-0.021,0.074-0.041,0.112-0.062l0.031-0.017
			c0.036-0.019,0.074-0.04,0.111-0.058l0.04-0.02l0.06-0.03l-0.06,0.03l0.06-0.03V32.621z"/>
	</g>
	<g>
		<path fill="#343434" d="M853.716,30.827c-0.248,0.154-0.574,0.078-0.728-0.169c-0.154-0.249-0.078-0.574,0.17-0.728
			c2.482-1.552,5.086-2.73,7.814-3.538c2.722-0.806,5.566-1.242,8.528-1.31c0.291-0.005,0.532,0.227,0.538,0.517
			c0.006,0.292-0.226,0.533-0.517,0.538c-2.864,0.066-5.615,0.488-8.252,1.268C858.638,28.185,856.119,29.324,853.716,30.827z"/>
		<path fill="#343434" d="M853.997,31.826c-0.274,0.097-0.576-0.045-0.674-0.319c-0.098-0.274,0.044-0.576,0.318-0.675
			c2.759-0.993,5.554-1.593,8.385-1.804c2.833-0.211,5.703-0.035,8.612,0.525c0.287,0.055,0.474,0.332,0.42,0.618
			c-0.055,0.287-0.332,0.474-0.618,0.42c-2.815-0.542-5.593-0.714-8.334-0.509C859.362,30.287,856.66,30.867,853.997,31.826z"/>
		<path fill="#343434" d="M854.061,32.862c-0.289,0.037-0.554-0.166-0.591-0.455c-0.038-0.288,0.166-0.554,0.455-0.592
			c2.904-0.386,5.762-0.38,8.576,0.013c2.814,0.393,5.583,1.174,8.306,2.337c0.268,0.113,0.393,0.424,0.279,0.693
			c-0.114,0.268-0.424,0.393-0.693,0.279c-2.638-1.126-5.317-1.882-8.037-2.262C859.633,32.495,856.868,32.489,854.061,32.862z"/>
		<path fill="#343434" d="M843.972,29.93c0.248,0.154,0.323,0.479,0.17,0.728c-0.154,0.247-0.48,0.323-0.728,0.169
			c-2.404-1.503-4.922-2.642-7.554-3.422c-2.636-0.78-5.387-1.202-8.252-1.268c-0.29-0.005-0.522-0.246-0.516-0.538
			c0.005-0.29,0.247-0.522,0.537-0.517c2.963,0.068,5.807,0.504,8.529,1.31C838.885,27.2,841.49,28.378,843.972,29.93z"/>
		<path fill="#343434" d="M843.488,30.832c0.274,0.099,0.416,0.401,0.318,0.675c-0.098,0.274-0.4,0.416-0.674,0.319
			c-2.663-0.959-5.366-1.539-8.108-1.743c-2.741-0.205-5.519-0.033-8.335,0.509c-0.287,0.054-0.564-0.133-0.618-0.42
			c-0.055-0.286,0.133-0.563,0.419-0.618c2.908-0.56,5.779-0.736,8.611-0.525C837.933,29.239,840.729,29.84,843.488,30.832z"/>
		<path fill="#343434" d="M843.205,31.816c0.289,0.038,0.492,0.304,0.455,0.592c-0.038,0.289-0.303,0.492-0.591,0.455
			c-2.809-0.374-5.573-0.368-8.295,0.013c-2.72,0.38-5.399,1.136-8.037,2.262c-0.268,0.114-0.579-0.011-0.693-0.279
			c-0.115-0.268,0.011-0.579,0.279-0.693c2.723-1.164,5.491-1.944,8.306-2.337C837.442,31.435,840.301,31.43,843.205,31.816z"/>
	</g>
	<path fill-rule="evenodd" clip-rule="evenodd" fill="#698AC6" d="M798.963,82.336c-15.917-6.479-28.305-17.796-26.236-33.053
		c1.609-11.874,12.096-17.661,17.796-13.044c9.612,7.788-5.735,11.362-5.794,20.314c-0.029,4.394,3.009,13.351,13.731,20.243
		C803.077,79.764,805.411,84.96,798.963,82.336z"/>
	<path fill-rule="evenodd" clip-rule="evenodd" fill="#A5BCE3" d="M846.205,105.055c-4.378-7.817-8.755-19.074,2.189-18.761
		C859.338,86.607,854.96,95.988,846.205,105.055z"/>
</g>
<g>
	<path fill="#6A8BC7" d="M976.746,87.88c0.193,0.857,1.046,1.397,1.904,1.204c0.858-0.192,1.397-1.045,1.204-1.903
		c-1.024-4.504-0.104-8.793,2.038-12.442c1.971-3.358,4.973-6.186,8.457-8.165c3.481-1.977,7.427-3.097,11.287-3.037
		c4.1,0.063,8.115,1.47,11.368,4.617c0.024,0.023,0.05,0.047,0.076,0.068c5.415,5.285,6.117,10.879,4.389,15.328
		c-0.664,1.71-1.687,3.264-2.937,4.575c-1.249,1.309-2.72,2.37-4.289,3.098c-3.58,1.662-7.66,1.556-10.584-1.393
		c-3.053-3.078-3.584-6.291-2.7-8.865c0.364-1.057,0.958-2.012,1.708-2.812c0.76-0.807,1.673-1.456,2.663-1.89
		c2.256-0.986,4.943-0.846,7.118,1.113c0.654,0.589,1.662,0.536,2.251-0.119c0.59-0.655,0.536-1.663-0.118-2.253
		c-3.224-2.902-7.196-3.116-10.524-1.662c-1.39,0.607-2.661,1.509-3.711,2.627c-1.059,1.126-1.897,2.472-2.408,3.959
		c-1.246,3.626-0.595,8.056,3.461,12.147c3.999,4.032,9.451,4.236,14.178,2.041c1.928-0.894,3.734-2.194,5.262-3.796
		c1.524-1.599,2.776-3.508,3.598-5.624c2.148-5.53,1.364-12.397-5.132-18.741c-0.03-0.034-0.062-0.066-0.094-0.098
		c-3.877-3.75-8.659-5.428-13.539-5.503c-4.435-0.068-8.942,1.202-12.896,3.448c-3.952,2.245-7.37,5.473-9.631,9.326
		C976.614,77.444,975.528,82.527,976.746,87.88z"/>
	<path fill-rule="evenodd" clip-rule="evenodd" fill="#6A8BC7" d="M937.456,22.33c0.862,6.562,3.73,10.638,7.029,10.721
		c2.711-4.397,4.104-11.533,3.241-18.095c-0.747-5.678-3.015-9.359-5.724-10.473c-0.915-0.377-1.653-0.023-2.444,1.928
		C937.72,10.949,936.723,16.763,937.456,22.33z"/>
	<path fill-rule="evenodd" clip-rule="evenodd" fill="#6A8BC7" d="M990.277,22.33c-0.863,6.562-3.73,10.638-7.029,10.721
		c-2.711-4.398-4.103-11.533-3.241-18.095c0.747-5.678,3.015-9.359,5.724-10.473c0.915-0.377,1.654-0.023,2.444,1.928
		C990.013,10.949,991.009,16.763,990.277,22.33z"/>
	<path fill-rule="evenodd" clip-rule="evenodd" fill="#FBD8CF" d="M989.622,20.753c-0.66,5.023-2.856,8.142-5.381,8.206
		c-2.075-3.366-3.14-8.827-2.48-13.85c0.572-4.346,2.307-7.164,4.382-8.016c0.7-0.288,1.265-0.018,1.87,1.476
		C989.42,12.042,990.182,16.491,989.622,20.753z"/>
	<path fill-rule="evenodd" clip-rule="evenodd" fill="#FBD8CF" d="M938.123,21.3c0.702,5.342,3.036,8.659,5.721,8.726
		c2.206-3.579,3.341-9.387,2.638-14.728c-0.608-4.622-2.454-7.618-4.659-8.525c-0.744-0.306-1.345-0.019-1.989,1.57
		C938.338,12.037,937.526,16.768,938.123,21.3z"/>
	<path fill-rule="evenodd" clip-rule="evenodd" fill="#6A8BC7" d="M963.839,105.598c13.23,0,23.806-4.98,24.21-12.291
		c1.25-22.565-27.037-28.346-20.248-51.632c0.384-1.317-7.922-1.364-7.926,0.234C959.843,51.248,920.251,105.598,963.839,105.598z"
		/>
	<path fill-rule="evenodd" clip-rule="evenodd" fill="#6A8BC7" d="M937.702,23.592c5.952,33.97,46.819,32.895,52.406,0
		C980.878,2.654,946.932,2.798,937.702,23.592z"/>
	<path fill-rule="evenodd" clip-rule="evenodd" fill="#9AB5DF" d="M942.501,36.513c5.003-4.124,12.871-3.145,16.955-8.731
		c2.407-3.292,3.048-19.773,4.58-19.772c1.615,0,2.467,16.932,4.83,19.812c4.237,5.168,11.593,4.634,16.524,8.497
		C975.149,52.526,952.874,52.958,942.501,36.513z"/>
	<path fill-rule="evenodd" clip-rule="evenodd" fill="#FABA2F" d="M974.408,18.328c-2.957,0-5.482,1.843-6.49,4.443
		c1.008,2.6,3.533,4.443,6.49,4.443c2.956,0,5.481-1.843,6.49-4.443C979.889,20.171,977.364,18.328,974.408,18.328z"/>
	<path fill-rule="evenodd" clip-rule="evenodd" fill="#343434" d="M972.869,18.499c0.021,3.381,0.653,6.254,1.539,7.413
		c0.886-1.16,1.519-4.032,1.539-7.413c-0.495-0.112-1.01-0.171-1.539-0.171S973.364,18.387,972.869,18.499z"/>
	<path fill-rule="evenodd" clip-rule="evenodd" fill="#FABA2F" d="M953.401,18.328c-2.956,0-5.481,1.843-6.491,4.443
		c1.01,2.6,3.535,4.443,6.491,4.443c2.956,0,5.481-1.843,6.49-4.443C958.882,20.171,956.357,18.328,953.401,18.328z"/>
	<path fill-rule="evenodd" clip-rule="evenodd" fill="#343434" d="M951.862,18.499c0.021,3.381,0.653,6.254,1.539,7.413
		c0.886-1.16,1.519-4.032,1.539-7.413c-0.495-0.112-1.01-0.171-1.539-0.171C952.872,18.328,952.357,18.387,951.862,18.499z"/>
	<path fill="#343434" d="M964.519,33.54c-0.005-0.339-0.284-0.611-0.624-0.606c-0.339,0.006-0.61,0.285-0.606,0.624
		c0.059,3.405-1.246,5.535-2.945,6.58c-0.697,0.428-1.46,0.677-2.217,0.757c-0.76,0.08-1.516-0.006-2.2-0.246
		c-1.366-0.478-2.446-1.586-2.665-3.215c-0.045-0.336-0.355-0.573-0.691-0.528c-0.336,0.046-0.574,0.355-0.528,0.692
		c0.287,2.138,1.697,3.588,3.48,4.214c0.853,0.299,1.792,0.407,2.73,0.307c0.941-0.099,1.882-0.405,2.738-0.93
		C963.024,39.939,964.587,37.453,964.519,33.54z"/>
	<path fill="#343434" d="M964.524,33.558c0.006-0.339-0.266-0.619-0.606-0.624c-0.339-0.006-0.62,0.266-0.624,0.606
		c-0.068,3.914,1.495,6.399,3.529,7.649c0.855,0.526,1.796,0.832,2.737,0.931c0.938,0.1,1.877-0.008,2.73-0.307
		c1.783-0.626,3.193-2.075,3.48-4.214c0.046-0.336-0.192-0.646-0.528-0.692c-0.336-0.045-0.647,0.192-0.692,0.528
		c-0.22,1.629-1.299,2.736-2.665,3.215c-0.683,0.24-1.44,0.326-2.2,0.246c-0.758-0.08-1.519-0.329-2.217-0.757
		C965.769,39.093,964.465,36.964,964.524,33.558z"/>
	<g>
		<path fill-rule="evenodd" clip-rule="evenodd" fill="#343434" d="M967.297,34.211c0.533-0.843,0.908-1.793,1.087-2.813
			c-0.041-0.03-0.082-0.059-0.124-0.088l-0.019-0.012c-0.036-0.025-0.074-0.05-0.111-0.075l-0.037-0.024
			c-0.033-0.022-0.065-0.043-0.099-0.064l-0.039-0.025c-0.036-0.022-0.072-0.044-0.109-0.066l-0.039-0.023
			c-0.037-0.022-0.076-0.045-0.115-0.066l-0.031-0.018c-0.038-0.022-0.076-0.043-0.114-0.063l-0.032-0.018
			c-0.038-0.02-0.076-0.04-0.114-0.06l-0.041-0.021l-0.062-0.031l0.062,0.031l-0.062-0.031V34.211z M963.657,29.938h-0.016
			c-0.055,0.001-0.11,0.003-0.164,0.006h-0.01c-0.057,0.003-0.113,0.007-0.169,0.009l-0.017,0.002
			c-0.052,0.004-0.102,0.007-0.153,0.012l-0.026,0.003c-0.051,0.004-0.101,0.009-0.151,0.015l-0.018,0.002
			c-0.055,0.007-0.111,0.013-0.165,0.021l-0.008,0.002c-0.052,0.007-0.104,0.014-0.154,0.022l-0.03,0.005
			c-0.048,0.007-0.096,0.016-0.144,0.024l-0.02,0.004c-0.052,0.009-0.101,0.02-0.152,0.029l-0.034,0.007
			c-0.043,0.008-0.086,0.019-0.128,0.028l-0.036,0.008c-0.045,0.01-0.091,0.021-0.136,0.032l-0.029,0.007
			c-0.048,0.012-0.094,0.024-0.14,0.037l-0.033,0.008c-0.042,0.012-0.082,0.024-0.123,0.036l-0.039,0.012
			c-0.041,0.011-0.08,0.024-0.121,0.037l-0.055,0.018c-0.037,0.012-0.074,0.024-0.111,0.037l-0.051,0.018
			c-0.036,0.012-0.071,0.025-0.106,0.037l-0.052,0.02c-0.036,0.014-0.072,0.028-0.108,0.042l-0.058,0.023
			c-0.034,0.014-0.068,0.028-0.103,0.042l-0.046,0.02c-0.034,0.015-0.068,0.03-0.103,0.045l-0.06,0.027
			c-0.033,0.015-0.065,0.031-0.098,0.046l-0.058,0.028c-0.032,0.015-0.062,0.03-0.092,0.045l-0.053,0.026l-0.085,0.045l-0.083,0.044
			l-0.065,0.036l-0.077,0.043l-0.076,0.044l-0.067,0.039l-0.068,0.042c-0.028,0.016-0.055,0.033-0.083,0.051l-0.063,0.039
			l-0.07,0.046l-0.075,0.05l-0.05,0.035c0.422,2.62,2.146,4.804,4.487,5.869c1.396-0.634,2.573-1.667,3.385-2.952v-3.466
			l-0.062-0.031l0.062,0.031l-0.062-0.031l-0.032-0.015c-0.04-0.019-0.08-0.037-0.121-0.056l-0.029-0.013
			c-0.041-0.02-0.083-0.037-0.125-0.056l-0.025-0.01c-0.044-0.019-0.088-0.037-0.131-0.055l-0.037-0.015
			c-0.044-0.017-0.087-0.035-0.131-0.05l-0.025-0.009c-0.045-0.017-0.091-0.034-0.135-0.05l-0.02-0.007
			c-0.049-0.018-0.098-0.034-0.146-0.049l-0.01-0.003l-0.005-0.003c-0.05-0.016-0.101-0.032-0.152-0.047l-0.022-0.007
			c-0.046-0.014-0.093-0.028-0.14-0.041l-0.024-0.007c-0.05-0.014-0.099-0.027-0.149-0.039l-0.011-0.003
			c-0.053-0.014-0.107-0.026-0.159-0.039l-0.007-0.001l-0.009-0.003c-0.05-0.011-0.099-0.022-0.15-0.033l-0.028-0.006
			c-0.048-0.01-0.095-0.02-0.144-0.028l-0.023-0.005c-0.052-0.009-0.105-0.019-0.157-0.026l-0.007-0.002l-0.002-0.001
			c-0.056-0.008-0.111-0.017-0.167-0.024l-0.015-0.002c-0.053-0.007-0.106-0.014-0.159-0.021l-0.015-0.001
			c-0.055-0.007-0.111-0.013-0.168-0.018h-0.005c-0.058-0.006-0.115-0.01-0.174-0.014l-0.009-0.001
			c-0.055-0.004-0.112-0.007-0.167-0.01h-0.014c-0.055-0.003-0.109-0.005-0.164-0.006h-0.015c-0.059-0.002-0.117-0.002-0.176-0.002
			C963.772,29.936,963.715,29.936,963.657,29.938z"/>
	</g>
	<g>
		<path fill="#343434" d="M958.544,33.091c0.258,0.16,0.597,0.081,0.757-0.177c0.161-0.257,0.081-0.595-0.176-0.756
			c-2.58-1.614-5.289-2.838-8.124-3.678c-2.831-0.837-5.786-1.291-8.867-1.361c-0.302-0.007-0.553,0.235-0.559,0.537
			c-0.006,0.303,0.235,0.553,0.537,0.559c2.978,0.068,5.838,0.507,8.579,1.319C953.427,30.344,956.046,31.529,958.544,33.091z"/>
		<path fill="#343434" d="M958.251,34.129c0.285,0.102,0.599-0.047,0.701-0.332c0.102-0.285-0.047-0.598-0.331-0.701
			c-2.868-1.032-5.774-1.656-8.718-1.876c-2.945-0.22-5.929-0.036-8.952,0.547c-0.298,0.057-0.494,0.345-0.436,0.643
			c0.057,0.298,0.345,0.493,0.642,0.436c2.927-0.564,5.815-0.742,8.665-0.529C952.673,32.53,955.483,33.133,958.251,34.129z"/>
		<path fill="#343434" d="M958.185,35.207c0.301,0.039,0.576-0.172,0.615-0.473c0.039-0.3-0.173-0.576-0.473-0.615
			c-3.018-0.401-5.99-0.395-8.915,0.013c-2.926,0.408-5.804,1.22-8.635,2.429c-0.279,0.119-0.409,0.442-0.291,0.721
			c0.119,0.278,0.441,0.408,0.721,0.29c2.742-1.171,5.527-1.957,8.355-2.351C952.392,34.826,955.267,34.82,958.185,35.207z"/>
		<path fill="#343434" d="M968.675,32.158c-0.258,0.161-0.337,0.499-0.177,0.756c0.16,0.258,0.499,0.336,0.757,0.177
			c2.498-1.562,5.116-2.747,7.853-3.557c2.741-0.812,5.601-1.25,8.579-1.319c0.303-0.006,0.543-0.256,0.536-0.559
			c-0.006-0.303-0.256-0.544-0.558-0.537c-3.081,0.07-6.037,0.523-8.868,1.361C973.962,29.32,971.254,30.545,968.675,32.158z"/>
		<path fill="#343434" d="M969.178,33.097c-0.285,0.103-0.433,0.416-0.331,0.701c0.102,0.285,0.416,0.434,0.701,0.332
			c2.768-0.996,5.578-1.599,8.429-1.812c2.848-0.213,5.738-0.036,8.665,0.529c0.298,0.056,0.585-0.138,0.643-0.436
			c0.056-0.298-0.139-0.586-0.437-0.643c-3.022-0.583-6.008-0.766-8.953-0.547C974.952,31.441,972.045,32.065,969.178,33.097z"/>
		<path fill="#343434" d="M969.471,34.119c-0.3,0.039-0.512,0.315-0.473,0.615c0.039,0.301,0.316,0.512,0.615,0.473
			c2.919-0.388,5.794-0.381,8.624,0.014c2.828,0.394,5.613,1.18,8.355,2.351c0.279,0.119,0.602-0.012,0.72-0.29
			c0.119-0.279-0.012-0.603-0.291-0.721c-2.831-1.209-5.709-2.02-8.635-2.429C975.463,33.724,972.49,33.718,969.471,34.119z"/>
	</g>
	<path fill-rule="evenodd" clip-rule="evenodd" fill="#6A8BC7" d="M946.82,92.998c-2.169,11.975,3.453,36.719,0.559,43.153
		c-1.173,2.606-3.546,1.822-4.204,5.275c-0.841,4.405,12.391,4.759,12.317-0.643c-0.035-2.538-2.849-2.917-3.06-4.151
		c-0.577-3.376,3.527-47.713,6.357-53.663C961.619,77.018,949.669,77.278,946.82,92.998z"/>
	<path fill-rule="evenodd" clip-rule="evenodd" fill="#6A8BC7" d="M957.767,92.998c0.279,11.975,10.963,36.719,9.384,43.153
		c-0.64,2.606-3.174,1.822-3.127,5.275c0.06,4.405,13.364,4.759,12.185-0.643c-0.554-2.538-3.445-2.917-3.909-4.151
		c-1.267-3.376-6.231-47.713-4.616-53.663C969.298,77.018,957.401,77.278,957.767,92.998z"/>
	<path fill-rule="evenodd" clip-rule="evenodd" fill="#9AB5DF" d="M954.178,104.364c1.765,0.544,3.816,0.917,6.176,1.101
		c4.053-13.234,3.927-21.875-4.393-21.124C946.688,85.177,950.967,93.097,954.178,104.364z"/>
	<path fill-rule="evenodd" clip-rule="evenodd" fill="#9AB5DF" d="M966.194,105.544c9.954-0.455,18.056-3.788,20.834-8.778
		c-1.136-3.482-2.241-5.551-3.096-4.451c-2.938,3.778-6.297,6.297-15.111,3.778C967.736,99.492,966.875,102.642,966.194,105.544z"/>
	<path fill-rule="evenodd" clip-rule="evenodd" fill="#6A8BC7" d="M977.261,92.998c-0.99,11.975-13.141,36.719-11.944,43.153
		c0.485,2.606,3.065,1.822,2.813,5.275c-0.32,4.405-13.646,4.759-12.147-0.643c0.705-2.538,3.619-2.917,4.156-4.151
		c1.468-3.376,9.061-47.713,7.799-53.663C966.678,77.018,978.56,77.278,977.261,92.998z"/>
	<path fill-rule="evenodd" clip-rule="evenodd" fill="#6A8BC7" d="M988.207,92.998c1.46,11.975-5.63,36.719-3.118,43.153
		c1.019,2.606,3.438,1.822,3.892,5.275c0.579,4.405-12.673,4.759-12.279-0.643c0.186-2.538,3.022-2.917,3.306-4.151
		c0.777-3.376-0.696-47.713-3.175-53.663C974.357,77.018,986.291,77.278,988.207,92.998z"/>
</g>
<g>
	<g>
		<path fill-rule="evenodd" clip-rule="evenodd" fill="#6A8BC7" d="M1139.997,72.378c7.112,5.552,4.658,17.358-0.793,30.214
			c-5.451,12.857-0.404,30.856-4.063,37.928c-3.658,7.072-15.114,3.515-8.84-0.642c6.622-4.388,3.131-7.071-0.466-14.786
			c-3.597-7.714-14.855-16.617-4.222-40.006C1127.262,72.659,1136,69.259,1139.997,72.378z"/>
		<path fill="#6A8BC7" d="M1128.8,75.337c-0.73-0.783-0.684-2.01,0.099-2.74c0.784-0.729,2.012-0.684,2.741,0.1
			c3.818,4.128,8.757,6.155,13.896,6.515c4.728,0.332,9.635-0.736,14.02-2.874c4.38-2.135,8.219-5.328,10.817-9.245
			c2.758-4.16,4.107-9.161,3.186-14.593c-0.007-0.041-0.013-0.082-0.017-0.124c-1.58-9.074-6.714-13.63-12.372-14.955
			c-2.174-0.509-4.438-0.552-6.615-0.199c-2.174,0.353-4.253,1.101-6.062,2.175c-4.132,2.451-6.833,6.622-5.885,11.588
			c0.991,5.184,3.853,7.928,7.045,8.81c1.311,0.364,2.681,0.424,3.999,0.219c1.334-0.206,2.614-0.677,3.732-1.374
			c2.542-1.586,4.249-4.382,3.78-7.912c-0.141-1.064,0.606-2.039,1.669-2.18s2.039,0.606,2.18,1.669
			c0.696,5.235-1.822,9.37-5.573,11.711c-1.566,0.978-3.347,1.636-5.191,1.92c-1.86,0.288-3.788,0.203-5.633-0.307
			c-4.499-1.244-8.5-4.946-9.816-11.834c-1.298-6.789,2.249-12.406,7.707-15.643c2.225-1.32,4.773-2.239,7.433-2.671
			c2.655-0.432,5.434-0.375,8.123,0.256c7.033,1.649,13.39,7.161,15.288,18.051c0.014,0.053,0.026,0.107,0.034,0.162
			c1.099,6.473-0.507,12.431-3.79,17.382c-2.983,4.502-7.361,8.154-12.338,10.579c-4.973,2.424-10.568,3.634-15.992,3.254
			C1139.188,82.652,1133.337,80.245,1128.8,75.337z"/>
		<path fill-rule="evenodd" clip-rule="evenodd" fill="#6A8BC7" d="M1112.753,60.685c13.859,11.171,40.604,5.769,41.363,28.731
			c0.776,23.425-36.536,21.635-56.449,9.464C1079.036,87.493,1099.162,49.731,1112.753,60.685z"/>
		<path fill-rule="evenodd" clip-rule="evenodd" fill="#6A8BC7" d="M1106.364,99.688c26.236,9.972,34.411-25.032,8.832-36.682
			c-8.135-3.706-8.907-19.368-8.912-22.229c-0.002-1.229-6.719-2.837-6.458-1.381C1102.994,57.092,1066.998,84.727,1106.364,99.688z
			"/>
		<path fill-rule="evenodd" clip-rule="evenodd" fill="#6A8BC7" d="M1087.827,79.391c0.27,14.082,12.556,48.95,10.832,56.509
			c-0.699,3.064-2.788,2.142-2.96,6.199c-0.219,5.177,10.98,5.592,10.317-0.755c-0.313-2.982-2.728-3.427-3.043-4.878
			c-0.862-3.968,6.452-59.243,8.178-66.235C1112.876,63.241,1087.463,60.447,1087.827,79.391z"/>
		<path fill-rule="evenodd" clip-rule="evenodd" fill="#6A8BC7" d="M1129.052,23.925c-2.229,6.802-5.796,10.806-8.903,10.578
			c-1.585-4.871-1.343-12.49,0.886-19.291c1.929-5.887,4.849-9.533,7.626-10.443c0.938-0.308,1.552,0.133,1.87,2.255
			C1131.27,11.96,1130.944,18.154,1129.052,23.925z"/>
		<path fill-rule="evenodd" clip-rule="evenodd" fill="#FBD8CF" d="M1128.368,19.963c-1.461,4.46-3.801,7.086-5.838,6.936
			c-1.039-3.195-0.881-8.19,0.581-12.65c1.264-3.86,3.179-6.251,5-6.848c0.615-0.201,1.018,0.087,1.227,1.479
			C1129.822,12.117,1129.609,16.178,1128.368,19.963z"/>
		<path fill-rule="evenodd" clip-rule="evenodd" fill="#6A8BC7" d="M1078.535,24.143c2.229,6.802,5.796,10.806,8.903,10.578
			c1.585-4.871,1.343-12.49-0.886-19.292c-1.929-5.886-4.85-9.532-7.627-10.443c-0.938-0.307-1.552,0.132-1.87,2.255
			C1076.317,12.178,1076.643,18.371,1078.535,24.143z"/>
		<path fill-rule="evenodd" clip-rule="evenodd" fill="#FBD8CF" d="M1079.009,19.963c1.462,4.46,3.801,7.086,5.838,6.936
			c1.039-3.195,0.881-8.19-0.581-12.65c-1.265-3.86-3.18-6.251-5.001-6.848c-0.615-0.201-1.018,0.087-1.226,1.479
			C1077.555,12.117,1077.769,16.178,1079.009,19.963z"/>
		<path fill-rule="evenodd" clip-rule="evenodd" fill="#6A8BC7" d="M1078.432,23.872c5.753,32.835,45.255,31.796,50.656,0
			C1120.166,3.634,1087.354,3.773,1078.432,23.872z"/>
		<path fill-rule="evenodd" clip-rule="evenodd" fill="#A7BFE4" d="M1106.864,8.892c-2.062-0.196-4.146-0.192-6.207,0.011
			c-0.022,1.085-0.034,2.194-0.034,3.325c0,12.406,1.405,22.462,3.138,22.462c1.733,0,3.138-10.056,3.138-22.462
			C1106.898,11.093,1106.886,9.981,1106.864,8.892z"/>
		<path fill-rule="evenodd" clip-rule="evenodd" fill="#FABA2F" d="M1112.844,21.382c-2.557,0-4.741,0.971-5.614,2.34
			c0.873,1.37,3.057,2.341,5.614,2.341c2.556,0,4.741-0.971,5.613-2.341C1117.585,22.353,1115.4,21.382,1112.844,21.382z"/>
		<path fill-rule="evenodd" clip-rule="evenodd" fill="#343434" d="M1111.513,21.472c0.018,1.781,0.565,3.295,1.331,3.905
			c0.766-0.611,1.313-2.125,1.331-3.905c-0.429-0.059-0.874-0.09-1.331-0.09S1111.941,21.413,1111.513,21.472z"/>
		<path fill-rule="evenodd" clip-rule="evenodd" fill="#FABA2F" d="M1094.676,21.382c-2.557,0-4.741,0.971-5.613,2.34
			c0.873,1.37,3.057,2.341,5.613,2.341c2.556,0,4.741-0.971,5.614-2.341C1099.417,22.353,1097.232,21.382,1094.676,21.382z"/>
		<path fill-rule="evenodd" clip-rule="evenodd" fill="#343434" d="M1093.345,21.472c0.018,1.781,0.565,3.295,1.331,3.905
			c0.766-0.611,1.313-2.125,1.331-3.905c-0.428-0.059-0.874-0.09-1.331-0.09C1094.219,21.382,1093.773,21.413,1093.345,21.472z"/>
		<path fill="#343434" d="M1104.355,33.487c-0.005-0.328-0.276-0.59-0.604-0.585c-0.328,0.005-0.591,0.276-0.585,0.603
			c0.056,3.292-1.204,5.35-2.846,6.359c-0.674,0.415-1.411,0.655-2.143,0.732c-0.734,0.078-1.465-0.005-2.125-0.237
			c-1.321-0.463-2.364-1.533-2.576-3.107c-0.044-0.326-0.344-0.554-0.669-0.511c-0.326,0.044-0.555,0.344-0.511,0.67
			c0.278,2.066,1.641,3.468,3.364,4.072c0.825,0.289,1.731,0.394,2.638,0.297c0.91-0.096,1.819-0.391,2.646-0.9
			C1102.909,39.673,1104.42,37.271,1104.355,33.487z"/>
		<path fill="#343434" d="M1104.358,33.506c0.005-0.328-0.257-0.598-0.585-0.603c-0.328-0.005-0.599,0.257-0.604,0.585
			c-0.065,3.784,1.446,6.186,3.411,7.394c0.827,0.509,1.736,0.804,2.646,0.9c0.907,0.097,1.814-0.008,2.639-0.297
			c1.724-0.604,3.085-2.006,3.364-4.072c0.044-0.326-0.185-0.626-0.511-0.67c-0.325-0.043-0.625,0.185-0.669,0.511
			c-0.211,1.574-1.255,2.644-2.576,3.107c-0.661,0.232-1.391,0.315-2.126,0.237c-0.732-0.078-1.468-0.318-2.142-0.732
			C1105.563,38.856,1104.302,36.798,1104.358,33.506z"/>
		<g>
			<path fill-rule="evenodd" clip-rule="evenodd" fill="#343434" d="M1107.04,34.136c0.515-0.814,0.877-1.733,1.05-2.718
				c-0.039-0.029-0.08-0.056-0.12-0.084l-0.018-0.012c-0.036-0.024-0.072-0.048-0.108-0.073l-0.036-0.023
				c-0.031-0.021-0.063-0.041-0.096-0.062l-0.038-0.023c-0.035-0.022-0.07-0.043-0.106-0.064l-0.038-0.022
				c-0.037-0.022-0.073-0.044-0.111-0.064l-0.031-0.017c-0.037-0.021-0.073-0.041-0.11-0.061l-0.03-0.017
				c-0.037-0.019-0.073-0.038-0.11-0.057l-0.039-0.02l-0.06-0.03l0.06,0.03l-0.06-0.03V34.136z M1103.521,30.006h-0.016
				c-0.053,0.002-0.106,0.004-0.158,0.005l-0.011,0.001c-0.055,0.003-0.109,0.005-0.163,0.009l-0.016,0.001
				c-0.049,0.004-0.098,0.008-0.148,0.012l-0.026,0.003c-0.049,0.004-0.098,0.009-0.146,0.015l-0.017,0.002
				c-0.054,0.005-0.106,0.013-0.16,0.02l-0.008,0.001c-0.05,0.007-0.099,0.014-0.149,0.022l-0.028,0.004
				c-0.047,0.007-0.093,0.015-0.14,0.023l-0.02,0.004c-0.048,0.009-0.098,0.019-0.146,0.029l-0.033,0.006
				c-0.042,0.01-0.083,0.019-0.125,0.028l-0.034,0.008c-0.044,0.01-0.087,0.02-0.131,0.031l-0.029,0.007
				c-0.046,0.012-0.09,0.023-0.135,0.036l-0.031,0.009c-0.04,0.011-0.08,0.022-0.119,0.034l-0.038,0.012
				c-0.039,0.012-0.078,0.024-0.116,0.036l-0.053,0.018c-0.036,0.012-0.072,0.023-0.107,0.036l-0.049,0.017
				c-0.034,0.012-0.068,0.024-0.102,0.037l-0.05,0.019c-0.035,0.013-0.07,0.027-0.105,0.041l-0.056,0.022
				c-0.033,0.013-0.066,0.027-0.099,0.041l-0.045,0.019c-0.032,0.013-0.065,0.028-0.099,0.043l-0.058,0.026
				c-0.031,0.014-0.063,0.03-0.095,0.044l-0.056,0.028c-0.03,0.014-0.058,0.029-0.088,0.043l-0.052,0.026l-0.082,0.043l-0.08,0.042
				l-0.064,0.035l-0.073,0.041l-0.074,0.042l-0.065,0.039l-0.065,0.039c-0.027,0.016-0.054,0.033-0.08,0.05l-0.061,0.039
				l-0.067,0.043l-0.073,0.048l-0.049,0.033c0.408,2.533,2.075,4.644,4.338,5.673c1.349-0.613,2.486-1.612,3.272-2.854v-3.349
				l-0.06-0.03l0.06,0.03l-0.06-0.03l-0.031-0.014c-0.038-0.019-0.077-0.037-0.116-0.055l-0.028-0.012
				c-0.04-0.019-0.082-0.036-0.122-0.054l-0.024-0.011c-0.042-0.019-0.084-0.036-0.127-0.053l-0.036-0.015
				c-0.042-0.016-0.083-0.032-0.126-0.049l-0.024-0.008c-0.043-0.017-0.088-0.033-0.132-0.048l-0.019-0.007
				c-0.047-0.016-0.094-0.032-0.141-0.047l-0.009-0.004l-0.005-0.002c-0.049-0.015-0.098-0.031-0.147-0.046l-0.022-0.006
				c-0.045-0.014-0.09-0.027-0.136-0.04l-0.023-0.006c-0.048-0.013-0.096-0.026-0.144-0.039l-0.011-0.003
				c-0.051-0.012-0.102-0.025-0.154-0.038l-0.006-0.001l-0.009-0.002c-0.048-0.012-0.097-0.022-0.145-0.032l-0.027-0.005
				c-0.047-0.01-0.093-0.019-0.14-0.028l-0.021-0.004c-0.051-0.009-0.101-0.018-0.152-0.026l-0.006-0.001h-0.003
				c-0.054-0.009-0.107-0.017-0.161-0.024l-0.013-0.002c-0.052-0.007-0.103-0.014-0.155-0.02l-0.014-0.002
				c-0.054-0.006-0.108-0.012-0.162-0.016l-0.005-0.001c-0.056-0.005-0.112-0.01-0.168-0.013l-0.009-0.001
				c-0.054-0.004-0.108-0.006-0.162-0.009l-0.014-0.001c-0.053-0.002-0.106-0.004-0.159-0.005h-0.013
				c-0.057-0.002-0.114-0.003-0.171-0.003C1103.632,30.004,1103.577,30.004,1103.521,30.006z"/>
		</g>
		<g>
			<path fill="#343434" d="M1098.609,33.05c0.248,0.154,0.574,0.078,0.728-0.17c0.154-0.247,0.078-0.573-0.169-0.726
				c-2.479-1.551-5.081-2.727-7.805-3.534c-2.719-0.806-5.559-1.24-8.519-1.308c-0.291-0.005-0.531,0.226-0.537,0.517
				c-0.006,0.291,0.226,0.531,0.516,0.537c2.861,0.065,5.609,0.486,8.242,1.266C1093.694,30.411,1096.21,31.549,1098.609,33.05z"/>
			<path fill="#343434" d="M1098.328,34.048c0.274,0.098,0.576-0.045,0.674-0.319c0.098-0.274-0.045-0.576-0.319-0.673
				c-2.756-0.992-5.548-1.592-8.375-1.802c-2.829-0.212-5.697-0.036-8.602,0.525c-0.286,0.054-0.474,0.331-0.419,0.617
				c0.055,0.287,0.331,0.475,0.618,0.42c2.812-0.543,5.587-0.714,8.325-0.509C1092.969,32.51,1095.669,33.091,1098.328,34.048z"/>
			<path fill="#343434" d="M1098.266,35.083c0.288,0.039,0.552-0.166,0.59-0.454c0.038-0.288-0.166-0.553-0.454-0.591
				c-2.901-0.386-5.756-0.38-8.566,0.013c-2.811,0.392-5.577,1.172-8.297,2.334c-0.268,0.114-0.393,0.423-0.279,0.692
				c0.114,0.268,0.424,0.393,0.692,0.278c2.635-1.125,5.311-1.88,8.028-2.26C1092.699,34.717,1095.461,34.71,1098.266,35.083z"/>
			<path fill="#343434" d="M1108.343,32.154c-0.248,0.153-0.324,0.479-0.169,0.726c0.153,0.248,0.479,0.324,0.726,0.17
				c2.401-1.501,4.917-2.639,7.545-3.418c2.634-0.78,5.383-1.201,8.243-1.266c0.29-0.006,0.521-0.246,0.516-0.537
				c-0.005-0.291-0.245-0.522-0.536-0.517c-2.96,0.068-5.801,0.502-8.52,1.308C1113.424,29.427,1110.822,30.603,1108.343,32.154z"/>
			<path fill="#343434" d="M1108.827,33.056c-0.274,0.098-0.416,0.399-0.319,0.673c0.098,0.274,0.4,0.416,0.673,0.319
				c2.66-0.957,5.36-1.537,8.099-1.741c2.737-0.204,5.513-0.034,8.326,0.509c0.286,0.055,0.562-0.133,0.617-0.42
				c0.055-0.286-0.132-0.563-0.419-0.617c-2.905-0.56-5.772-0.736-8.602-0.525C1114.374,31.464,1111.583,32.064,1108.827,33.056z"/>
			<path fill="#343434" d="M1109.109,34.038c-0.288,0.038-0.491,0.303-0.454,0.591c0.038,0.288,0.302,0.492,0.591,0.454
				c2.804-0.373,5.566-0.366,8.284,0.013c2.717,0.38,5.394,1.134,8.028,2.26c0.269,0.115,0.578-0.011,0.692-0.278
				c0.115-0.269-0.011-0.578-0.278-0.692c-2.72-1.162-5.485-1.942-8.297-2.334C1114.865,33.658,1112.01,33.652,1109.109,34.038z"/>
		</g>
	</g>
	<g>
		<path fill-rule="evenodd" clip-rule="evenodd" fill="#A7BFE4" d="M1148.214,105.591c-8.214,4.357-21.504,4.425-33.821,1.637
			c0.65-2.309,1.672-4.644,3.593-7.648c8.46,5.442,17.727,3.968,25.729,1.441C1146.04,100.286,1147.422,102.328,1148.214,105.591z"
			/>
		<path fill-rule="evenodd" clip-rule="evenodd" fill="#6A8BC7" d="M1124.212,77.03c0.498,14.071-11.878,51.311-10.153,58.87
			c0.698,3.064,2.787,2.142,2.959,6.199c0.219,5.177-10.98,5.592-10.316-0.755c0.312-2.982,2.727-3.427,3.042-4.878
			c0.863-3.968-6.452-59.243-8.178-66.235C1099.841,63.241,1123.559,58.558,1124.212,77.03z"/>
		<path fill-rule="evenodd" clip-rule="evenodd" fill="#A7BFE4" d="M1106.351,103.162c4.635-8.277,9.271-20.197-2.317-19.865
			C1092.446,83.628,1097.081,93.561,1106.351,103.162z"/>
		<path fill-rule="evenodd" clip-rule="evenodd" fill="#6A8BC7" d="M1146.742,74.747c8.325,5.37,8.453,16.788,5.811,29.223
			c-2.641,12.434,6.34,29.844,4.226,36.683c-2.112,6.839-14.346,3.4-8.98-0.621c5.663-4.244,1.585-6.839-3.698-14.301
			c-5.283-7.461-18.488-16.072-12.966-38.693C1134.068,75.018,1142.064,71.73,1146.742,74.747z"/>
	</g>
</g>
<g>
</g>
<g>
</g>
<g>
</g>
<g>
</g>
<g>
</g>
<g>
</g>
</svg>
