<svg xmlns="http://www.w3.org/2000/svg" width="384" height="500" viewBox="0 0 384 500" version="1.1">
	<path d="M 339.596 2.258 C 334.253 4.119, 326.278 9.876, 327.652 10.881 C 328.938 11.820, 329.132 13.885, 328.114 15.791 C 327.611 16.731, 326.916 19.300, 326.568 21.500 C 326.220 23.700, 325.754 26.625, 325.532 28 C 323.399 41.185, 322.844 52.790, 323.401 72.500 C 324.280 103.579, 324.446 161.833, 323.667 166 C 323.307 167.925, 322.771 172.200, 322.475 175.500 C 321.010 191.866, 319.937 194.460, 313.191 197.942 C 310.428 199.368, 305 198.405, 305 196.488 C 305 195.744, 303.989 194.814, 302.754 194.422 C 301.518 194.030, 299.958 192.987, 299.286 192.104 C 298.614 191.222, 298.049 190.855, 298.032 191.289 C 298.014 191.723, 297.015 191.160, 295.811 190.039 C 294.608 188.918, 293.062 188, 292.376 188 C 291.690 188, 290.582 186.485, 289.912 184.634 C 289.035 182.208, 288.211 181.394, 286.964 181.720 C 284.714 182.308, 279.344 179.512, 278.038 177.071 C 277.476 176.021, 275.668 174.866, 274.020 174.504 C 272.372 174.142, 270.774 173.444, 270.470 172.952 C 270.166 172.460, 267.814 171.127, 265.243 169.990 C 260.861 168.051, 258.735 167.793, 250 168.138 C 248.075 168.214, 243.495 167.734, 239.822 167.071 C 235.186 166.235, 232.049 166.169, 229.559 166.856 C 227.587 167.400, 224.292 167.590, 222.237 167.277 C 212.701 165.825, 209.130 166.825, 195.611 174.735 C 194.450 175.415, 192.559 175.977, 191.410 175.985 C 189.418 175.999, 177.885 178.815, 171.500 180.847 C 168.529 181.792, 163.296 183.888, 157.500 186.453 C 155.850 187.183, 149.745 189.373, 143.933 191.319 C 138.122 193.265, 131.822 195.520, 129.933 196.329 C 128.045 197.139, 122.675 198.997, 118 200.459 C 109.549 203.102, 103.602 205.376, 95 209.253 C 92.525 210.369, 88.650 212.075, 86.389 213.046 C 84.073 214.040, 78.535 218.527, 73.707 223.323 C 68.993 228.005, 63.078 233.042, 60.563 234.516 C 58.048 235.990, 55.654 237.739, 55.245 238.403 C 54.835 239.067, 52.813 240.634, 50.750 241.886 C 48.688 243.138, 45.313 246.261, 43.250 248.825 C 41.188 251.389, 37.137 256.308, 34.250 259.757 C 31.362 263.205, 29 266.470, 29 267.011 C 29 267.552, 27.481 269.683, 25.624 271.747 C 22.717 274.978, 16.163 288.447, 15.282 293 C 14.875 295.101, 14.089 300.394, 13.054 308 C 12.250 313.910, 11.786 314.842, 7.935 318.269 C 4.611 321.227, 3.678 322.767, 3.600 325.424 C 3.545 327.287, 3.837 328.602, 4.250 328.346 C 4.662 328.091, 5 327.009, 5 325.941 C 5 323.526, 6.952 323.351, 7.129 325.750 C 7.200 326.712, 7.208 329.750, 7.147 332.500 C 7.037 337.477, 7.042 337.486, 8.268 334.322 C 8.946 332.574, 9.811 330.838, 10.191 330.464 C 11.015 329.653, 14 336.439, 14 339.122 C 14 340.155, 14.480 341, 15.067 341 C 15.695 341, 15.874 341.927, 15.502 343.250 C 15.021 344.959, 15.112 345.146, 15.880 344.029 C 16.436 343.220, 17.076 342.770, 17.301 343.029 C 18.328 344.210, 21 353.634, 21 356.075 C 21 357.607, 22.186 360.147, 23.718 361.892 L 26.436 364.989 27.682 362.744 C 28.368 361.510, 28.945 361.047, 28.965 361.715 C 28.984 362.383, 29.943 363.434, 31.095 364.051 C 32.964 365.051, 33.118 364.948, 32.527 363.086 C 32.007 361.446, 32.293 361, 33.865 361 C 35.019 361, 36.147 360.111, 36.532 358.899 C 37.017 357.371, 37.498 357.098, 38.299 357.899 C 40.146 359.746, 41 359.145, 41 356 C 41 352.725, 42.916 351.989, 44.977 354.472 C 46.024 355.734, 46.398 355.744, 47.599 354.544 C 48.370 353.773, 49.007 352.548, 49.015 351.821 C 49.027 350.845, 49.284 350.892, 50 352 C 50.784 353.213, 50.972 353.069, 50.985 351.250 C 50.993 350.012, 51.450 349, 52 349 C 52.550 349, 53.010 347.538, 53.022 345.750 L 53.044 342.500 54.973 346.750 C 56.034 349.088, 57.172 351, 57.501 351 C 57.830 351, 57.708 350.301, 57.231 349.448 C 56.192 347.591, 56.855 342, 58.113 342 C 58.601 342, 59 342.873, 59 343.941 C 59 345.009, 59.355 346.101, 59.789 346.369 C 60.223 346.638, 60.480 344.161, 60.361 340.866 C 60.173 335.669, 60.341 335.038, 61.629 336.107 C 62.445 336.784, 63.016 336.925, 62.898 336.419 C 62.779 335.914, 62.953 334.825, 63.283 334 C 63.613 333.175, 64.029 331.600, 64.208 330.500 C 64.470 328.889, 65.308 328.500, 68.517 328.500 L 72.500 328.500 72.500 319 C 72.500 310.566, 72.696 309.516, 74.250 309.639 C 76.281 309.800, 76.567 308.462, 74.750 307.300 C 73.422 306.450, 72.749 303, 73.911 303 C 74.290 303, 75.133 303.533, 75.783 304.183 C 76.434 304.834, 77.299 305.035, 77.704 304.629 C 78.110 304.223, 77.827 303.511, 77.075 303.047 C 75.645 302.162, 76.261 299, 77.864 299 C 79.471 299, 79.789 307.378, 78.226 308.550 C 77.090 309.402, 77.314 309.822, 79.413 310.779 C 80.836 311.427, 82.014 311.629, 82.031 311.229 C 82.049 310.828, 83.165 309.698, 84.512 308.718 C 86.326 307.398, 86.819 307.307, 86.412 308.368 C 86.050 309.312, 86.482 309.749, 87.681 309.650 C 89.044 309.538, 89.579 310.320, 89.815 312.769 C 89.988 314.567, 90.503 315.807, 90.959 315.526 C 91.415 315.244, 91.764 320.073, 91.734 326.257 C 91.705 332.440, 91.979 338.933, 92.343 340.685 C 92.895 343.338, 92.504 344.419, 90.003 347.158 C 87.079 350.360, 86.622 351.308, 86.895 353.617 C 86.967 354.232, 84.525 356.871, 81.469 359.483 C 78.412 362.094, 76.078 364.733, 76.282 365.346 C 76.486 365.959, 75.719 367.242, 74.577 368.197 C 72.522 369.915, 72.535 369.934, 75.792 369.967 C 79.287 370.002, 81.919 368.090, 84.003 364 C 84.704 362.625, 85.899 360.825, 86.660 360 C 87.421 359.175, 88.966 357.262, 90.094 355.750 C 92.856 352.047, 95.116 352.047, 93.990 355.750 C 91.015 365.529, 90.156 369.481, 90.903 369.957 C 91.372 370.256, 92.092 372.517, 92.505 374.983 C 93.266 379.532, 95.180 381.911, 98.128 381.968 C 99.023 381.986, 100.332 382.695, 101.038 383.546 C 101.743 384.396, 102.934 384.856, 103.683 384.568 C 104.432 384.281, 105.964 384.964, 107.088 386.088 C 110.186 389.186, 114.385 387.910, 115.752 383.455 C 116.434 381.233, 116.465 379.787, 115.838 379.400 C 115.302 379.069, 115.127 378.111, 115.449 377.272 C 115.771 376.433, 115.513 375.118, 114.876 374.350 C 113.949 373.233, 114.045 373.080, 115.359 373.584 C 117.123 374.261, 117.658 372.524, 116 371.500 C 114.703 370.699, 114.703 366.301, 116 365.500 C 116.550 365.160, 117.007 365.696, 117.015 366.691 C 117.028 368.225, 117.178 368.272, 118 367 C 118.533 366.175, 118.976 365.849, 118.985 366.276 C 118.993 366.702, 120.353 366.352, 122.007 365.496 C 124.792 364.056, 124.967 363.648, 124.379 359.971 C 123.858 356.709, 124.035 356, 125.372 356 C 126.267 356, 127 355.590, 127 355.088 C 127 354.587, 127.787 354.292, 128.750 354.433 C 130.820 354.736, 131.651 357.749, 130.094 359.306 C 128.476 360.924, 128.756 363.031, 130.500 362.362 C 131.325 362.045, 132 360.775, 132 359.539 C 132 358.303, 133.121 356.082, 134.492 354.604 C 135.862 353.125, 137.268 350.782, 137.615 349.398 C 138.014 347.807, 138.754 347.075, 139.623 347.409 C 140.381 347.700, 141 347.475, 141 346.910 C 141 346.344, 141.399 346.129, 141.887 346.430 C 142.374 346.731, 143.307 346.335, 143.960 345.548 C 144.612 344.762, 145.733 344.344, 146.451 344.619 C 147.309 344.949, 147.981 343.916, 148.416 341.595 C 149.044 338.248, 151 335.566, 151 338.052 C 151 338.695, 151.830 338.197, 152.844 336.944 C 155.042 334.230, 160.295 333.866, 162.691 336.262 C 164.152 337.724, 164.103 338.250, 162.104 342.503 C 160.903 345.057, 159.651 348.494, 159.322 350.140 C 158.782 352.839, 160.655 361.564, 163.123 367.846 C 165.588 374.122, 169.108 421.049, 168.952 445.572 C 168.854 461.061, 169.102 462.733, 172.158 467.148 C 173.418 468.968, 173.803 470.737, 173.389 472.805 C 172.902 475.242, 173.235 476.104, 175.144 477.339 C 176.440 478.178, 178.742 479.170, 180.261 479.543 C 181.780 479.917, 183.911 481.471, 184.998 482.997 C 186.085 484.524, 188.780 486.495, 190.987 487.378 C 195.055 489.006, 195.340 489.476, 195.048 494.080 C 194.959 495.499, 195.602 497.255, 196.479 497.982 C 198.552 499.703, 212.444 500.604, 215.313 499.203 C 216.516 498.616, 222.900 497.890, 229.500 497.590 C 245.944 496.842, 252.015 496.319, 252.749 495.585 C 253.092 495.242, 252.951 493.732, 252.436 492.230 C 250.998 488.036, 243.786 484.987, 231.715 483.472 C 226.097 482.766, 219.987 481.536, 218.138 480.738 L 214.777 479.287 219.485 477.896 C 225.549 476.106, 226.757 473.992, 223.730 470.473 C 220.933 467.220, 213.948 465.696, 207.424 466.915 C 204.214 467.515, 202.748 467.431, 202.510 466.635 C 201.188 462.212, 198.811 445.377, 197.987 434.605 C 195.945 407.919, 197.083 386.954, 200.930 380.407 C 201.929 378.706, 204.138 372.836, 205.839 367.363 C 209.485 355.626, 212.718 348, 214.047 348 C 214.571 348, 215 347.341, 215 346.535 C 215 345.044, 217.915 343, 220.043 343 C 220.787 343, 220.993 343.890, 220.606 345.432 C 219.769 348.770, 223.114 349.842, 226.371 347.280 C 227.670 346.258, 229.805 345.504, 231.116 345.605 C 236.169 345.992, 240 347.308, 240 348.657 C 240 351.233, 245.786 352.243, 250.695 350.524 C 251.352 350.293, 252.190 348.506, 252.556 346.553 C 252.923 344.599, 253.747 343, 254.389 343 C 255.724 343, 258.565 339.959, 258.526 338.572 C 258.474 336.729, 264.188 336.046, 267.093 337.548 C 270.589 339.356, 271.793 339.357, 275.250 337.553 C 277.246 336.512, 278.008 336.445, 278.030 337.309 C 278.047 337.964, 278.519 337.713, 279.080 336.750 C 279.641 335.788, 280.756 335, 281.559 335 C 282.363 335, 283.790 334.100, 284.732 333 C 285.674 331.900, 286.971 331, 287.615 331 C 288.259 331, 289.056 330.297, 289.385 329.439 C 289.807 328.338, 290.872 328.017, 292.992 328.351 C 295.258 328.709, 296 328.439, 296 327.258 C 296 325.886, 296.237 325.905, 297.896 327.406 C 299.319 328.694, 299.899 328.803, 300.219 327.844 C 300.494 327.017, 302.299 326.619, 305.322 326.718 C 307.895 326.802, 310 326.450, 310 325.935 C 310 325.421, 310.337 325.071, 310.750 325.159 C 312.303 325.488, 315 323.733, 315 322.393 C 315 321.627, 315.337 320.963, 315.750 320.918 C 319.479 320.509, 322.637 319.716, 323.549 318.959 C 324.223 318.400, 325.070 318.470, 325.742 319.142 C 326.534 319.934, 327.192 319.665, 328.127 318.169 C 329.168 316.501, 329.703 316.334, 330.896 317.301 C 332.113 318.288, 332.261 318.196, 331.731 316.782 C 331.377 315.837, 331.457 314.835, 331.910 314.556 C 332.362 314.276, 332.556 313.024, 332.342 311.774 C 331.857 308.941, 332.907 307.304, 335.500 306.850 C 338.236 306.371, 339.930 304.045, 339.968 300.715 C 339.986 299.183, 340.692 296.874, 341.537 295.583 C 342.383 294.293, 343.146 290.764, 343.232 287.741 C 343.400 281.893, 341.807 278.281, 337.390 274.500 C 335.056 272.501, 332.706 265.003, 333.879 263.298 C 334.220 262.802, 336.075 261.662, 338 260.766 C 342.597 258.625, 348 253.738, 348 251.720 C 348 250.839, 348.357 249.897, 348.793 249.628 C 349.229 249.358, 349.497 246.969, 349.388 244.319 C 349.279 241.669, 349.536 239.050, 349.959 238.500 C 350.382 237.950, 350.749 236.825, 350.775 236 C 350.801 235.175, 351.042 232.925, 351.311 231 C 351.579 229.075, 351.336 227.213, 350.771 226.862 C 350.169 226.488, 350.096 225.659, 350.594 224.862 C 351.061 224.113, 351.627 222.825, 351.851 222 C 352.684 218.932, 352.008 190.151, 351.044 187.615 C 350.191 185.372, 348.880 177.113, 345.392 152 C 345.048 149.525, 344.637 133.775, 344.478 117 C 344.319 100.225, 344.088 76.825, 343.965 65 C 343.782 47.411, 344.022 42.863, 345.289 40 C 347.002 36.125, 357.156 25.999, 361.634 23.700 C 364.579 22.188, 374.241 19.923, 379.215 19.578 C 380.756 19.472, 382.575 18.818, 383.258 18.125 C 385.099 16.258, 381.578 14.028, 376.559 13.882 C 369.329 13.671, 366.644 12.693, 365.894 9.998 C 365.512 8.624, 365.155 8.063, 365.100 8.750 C 364.926 10.926, 363.063 10.101, 362.427 7.567 C 362.037 6.011, 361.308 5.328, 360.408 5.674 C 359.634 5.971, 359 5.788, 359 5.267 C 359 2.860, 344.378 0.593, 339.596 2.258 M 1.232 329 C 1.232 330.925, 1.438 331.712, 1.689 330.750 C 1.941 329.788, 1.941 328.212, 1.689 327.250 C 1.438 326.288, 1.232 327.075, 1.232 329" fill="none" stroke="#000" stroke-width="2px" fill-rule="evenodd"/>
</svg>
