<svg xmlns="http://www.w3.org/2000/svg" width="292" height="500" viewBox="0 0 292 500" version="1.1">
	<path d="M 100 4.596 C 76.257 10.690, 70.651 13.358, 66.402 20.588 C 63.329 25.817, 63.381 27.859, 66.750 34.268 C 69.223 38.973, 69.507 40.558, 69.572 50 C 69.683 66.076, 73.440 74.676, 85.353 86.124 C 90.644 91.209, 91.093 91.958, 90.033 93.938 C 89.220 95.457, 89.178 96.509, 89.895 97.374 C 90.610 98.235, 90.581 99.756, 89.800 102.299 C 88.822 105.487, 88.924 106.259, 90.565 108.072 C 91.607 109.223, 93.931 110.780, 95.730 111.532 C 99.564 113.133, 99.638 113.743, 97 122 C 95.900 125.443, 95 128.479, 95 128.747 C 95 129.014, 95.900 128.998, 97 128.710 C 98.680 128.271, 99.010 128.693, 99.063 131.344 C 99.126 134.480, 99.133 134.484, 100.177 132 L 101.228 129.500 102.032 132 C 102.474 133.375, 103.138 136.293, 103.507 138.485 C 104.174 142.443, 104.187 142.453, 105.494 140.010 C 106.770 137.627, 106.833 137.702, 107.552 142.501 C 108.280 147.355, 108.094 148.430, 104.258 161.500 C 103.371 164.521, 102.733 171.346, 102.645 178.746 C 102.565 185.481, 102.259 190.994, 101.965 190.996 C 101.096 191.003, 88.981 173.644, 78.588 157.500 C 64.489 135.601, 43.572 105.076, 39.700 100.750 C 37.233 97.993, 35.548 97, 33.339 97 C 31.686 97, 30.032 97.301, 29.664 97.670 C 29.295 98.038, 26.689 98.420, 23.871 98.520 C 20.286 98.646, 18.470 99.195, 17.824 100.350 C 17.316 101.257, 16.360 102.004, 15.700 102.008 C 13.757 102.021, 4.811 113.951, 3.795 117.885 C 3.281 119.873, 2.615 122.508, 2.316 123.741 C 1.902 125.439, 4.784 130.522, 14.219 144.741 C 27.256 164.388, 41.406 186.299, 49.259 199 C 59.295 215.232, 80.367 239.686, 93.775 250.658 C 113.057 266.439, 119.589 272.250, 123.746 277.320 C 126.081 280.169, 127.994 283.078, 127.996 283.785 C 127.998 284.492, 128.652 286.067, 129.449 287.285 C 131.998 291.180, 133.910 300.809, 134.521 312.819 C 134.847 319.244, 135.740 331.250, 136.505 339.500 C 137.270 347.750, 137.854 355.175, 137.802 356 C 137.555 359.959, 141.669 381.503, 146.092 399.414 L 151.009 419.327 150.040 429.414 C 148.826 442.044, 146.749 449.078, 142.957 453.396 C 141.331 455.248, 140 457.768, 140 458.995 C 140 460.221, 138.200 468.434, 136 477.244 C 133.800 486.055, 132 494.779, 132 496.632 L 132 500 160.933 500 C 187.629 500, 189.904 499.865, 190.368 498.250 C 196.423 477.173, 197.702 474.790, 204.696 471.549 C 208.500 469.787, 210.802 469.371, 214.681 469.743 C 220.038 470.258, 223.742 468.729, 227.228 464.564 C 230.567 460.574, 228.962 452.722, 223.301 445.356 C 221.761 443.351, 219.600 439.863, 218.500 437.605 C 217.088 434.706, 215.925 433.551, 214.542 433.674 C 209.125 434.154, 206.744 429.976, 205.039 417 C 204.353 411.775, 201.847 400.750, 199.471 392.500 C 193.225 370.812, 190.220 358.396, 189.430 351 C 189.048 347.425, 188.970 344.725, 189.256 345 C 189.543 345.275, 193.270 350.225, 197.539 356 C 201.808 361.775, 208.219 370.045, 211.786 374.379 C 216.080 379.596, 218.580 383.635, 219.187 386.337 C 219.691 388.580, 220.728 391.785, 221.491 393.458 C 223.791 398.500, 231.852 421.815, 235.082 432.763 C 236.747 438.407, 238.975 444.932, 240.033 447.263 C 241.091 449.593, 241.966 453.177, 241.978 455.227 C 242.004 459.632, 246.111 471.055, 248.981 474.703 C 250.091 476.114, 251 478.054, 251 479.012 C 251 481.086, 253.269 483.186, 255.075 482.785 C 255.915 482.599, 257.207 485.536, 258.801 491.250 L 261.240 500 272.714 500 L 284.188 500 283.539 494.750 C 283.183 491.863, 282.261 485.225, 281.490 480 C 278.424 459.210, 275.075 435.190, 274.463 429.593 C 274.108 426.345, 273.564 422.970, 273.254 422.093 C 272.882 421.040, 273.676 421.348, 275.596 423 C 281.659 428.219, 282.332 428.250, 285.370 423.448 C 287.733 419.712, 288.026 418.447, 287.484 414.306 C 287.138 411.663, 286.661 407.475, 286.422 405 C 286.184 402.525, 285.803 399.150, 285.576 397.500 C 285.349 395.850, 284.892 391.125, 284.561 387 C 284.230 382.875, 283.735 378.375, 283.461 377 C 283.188 375.625, 282.944 372.025, 282.920 369 C 282.866 362.291, 281.322 348.764, 280.066 344 C 276.750 331.423, 275.907 326.825, 276.200 322.918 L 276.531 318.500 277.727 324 L 278.923 329.500 278.480 324.500 C 278.236 321.750, 277.767 316.800, 277.438 313.500 C 277 309.115, 277.125 307.904, 277.904 309 C 279.313 310.983, 279.306 310.859, 277.040 293.500 C 273.753 268.316, 273.760 268.393, 274.808 269.882 C 276.913 272.871, 277.045 266.940, 275.132 255.333 C 274.060 248.825, 272.887 239.675, 272.526 235 C 272.166 230.325, 271.418 223.846, 270.865 220.603 C 270.105 216.149, 270.155 214.522, 271.071 213.956 C 273.076 212.717, 270.748 182.760, 268.189 176.875 C 267.083 174.331, 265.675 168.114, 265.061 163.059 C 264.446 158.005, 263.105 151.086, 262.081 147.684 C 261.057 144.283, 259.225 138.125, 258.010 134 C 256.795 129.875, 254.667 124.475, 253.281 122 C 251.895 119.525, 249.204 114.477, 247.300 110.782 C 244.989 106.295, 242.694 103.356, 240.392 101.933 C 238.496 100.761, 236.330 98.331, 235.578 96.533 C 234.287 93.442, 228.413 88, 226.368 88 C 225.849 88, 223.229 85.770, 220.544 83.045 C 217.860 80.320, 215.355 78.281, 214.978 78.514 C 214.601 78.747, 213.775 77.801, 213.142 76.412 C 212.509 75.023, 211.609 74.123, 211.142 74.412 C 210.675 74.701, 209.814 73.887, 209.229 72.604 C 207.768 69.397, 200.502 63.619, 193.407 60.021 C 188.716 57.642, 188.015 57.006, 190 56.934 C 191.375 56.883, 191.914 56.607, 191.197 56.320 C 190.222 55.929, 190.348 55.454, 191.697 54.431 C 193.384 53.151, 193.348 53.062, 191.128 53.032 C 189.201 53.006, 188.975 52.735, 189.925 51.590 C 190.878 50.442, 190.529 50.055, 188.048 49.510 C 185.117 48.867, 183.679 46.034, 186.250 45.968 C 187.077 45.947, 186.964 45.525, 185.916 44.718 C 185.044 44.048, 184.043 42.340, 183.690 40.923 C 183.264 39.213, 181.698 37.698, 179.036 36.423 C 174.690 34.341, 173.866 33, 176.932 33 C 178.434 33, 178.800 32.401, 178.576 30.304 C 178.341 28.095, 177.497 27.351, 173.894 26.178 C 171.477 25.391, 168.375 24.097, 167 23.303 C 165.625 22.509, 163.262 21.343, 161.750 20.711 C 160.238 20.079, 159 19.060, 159 18.446 C 159 17.833, 157.650 16.128, 156 14.658 C 154.350 13.187, 153 11.639, 153 11.216 C 153 10.793, 151.088 10.445, 148.750 10.442 C 139.746 10.432, 123.904 7.911, 123.978 6.500 C 124.007 5.950, 120.537 5.250, 116.266 4.943 C 111.994 4.637, 107.825 4.116, 107 3.785 C 106.175 3.455, 103.025 3.819, 100 4.596 M 276.232 302 C 276.232 303.925, 276.438 304.712, 276.689 303.750 C 276.941 302.788, 276.941 301.212, 276.689 300.250 C 276.438 299.288, 276.232 300.075, 276.232 302" fill="none" stroke="#000" stroke-width="2px" fill-rule="evenodd"/>
</svg>
