<svg xmlns="http://www.w3.org/2000/svg" width="494" height="448" viewBox="0 0 494 448" version="1.1">
	<path d="M 444.616 7.162 C 443.871 8.998, 443.013 14.550, 442.711 19.500 C 441.421 40.602, 432.838 49.693, 409.580 54.590 C 391.933 58.305, 346.493 58.254, 316.275 54.485 C 299.778 52.427, 291.259 52.545, 287.424 54.883 C 283.087 57.528, 278.355 65.120, 277.536 70.750 C 276.467 78.090, 275.046 79.602, 268.493 80.372 C 258.402 81.558, 232.741 97.778, 221.988 109.767 C 215.516 116.983, 208.904 130.442, 205.416 143.500 C 201.897 156.676, 200.979 174.976, 203.417 183.363 C 205.597 190.863, 211.102 202.835, 214.926 208.392 C 216.617 210.850, 218 213.342, 218 213.930 C 218 216.019, 195.247 214.211, 192.397 211.895 C 191.741 211.362, 191.482 209.040, 191.758 206.165 C 192.667 196.707, 187.120 191.713, 174.202 190.363 C 155.854 188.446, 121.054 199.570, 101 213.765 C 82.242 227.042, 62.738 248.804, 44.775 276.500 C 29.165 300.568, 9.742 338.608, 5.530 353.362 C 3 362.222, 3 362.231, 3 405.112 L 3 448 139.750 447.941 C 245.926 447.896, 276.090 447.616, 274.668 446.691 C 273.660 446.036, 262.127 438.470, 249.039 429.877 L 225.243 414.255 221.480 407.094 C 219.252 402.853, 215.354 397.620, 211.923 394.260 L 206.130 388.587 206.547 376.543 C 206.776 369.920, 206.972 364.197, 206.982 363.828 C 206.992 363.458, 208.537 362.648, 210.416 362.028 C 215.282 360.422, 222.496 353.718, 224.353 349.075 C 225.517 346.167, 227.554 344.019, 232.034 340.977 L 238.132 336.836 242.086 338.418 C 248.044 340.801, 255.698 340.453, 261.554 337.533 C 267.668 334.483, 276.617 325.480, 285.938 313 C 294.796 301.140, 299.946 291.316, 304.606 277.391 C 308.234 266.549, 308.237 266.519, 307.780 252.518 C 307.257 236.521, 306.172 232.894, 300.648 228.680 L 297 225.898 296.985 217.199 C 296.969 207.406, 295.407 199.630, 290.819 186.500 C 287.287 176.393, 287.405 171.965, 291.329 167.404 L 293.569 164.800 302.686 165.908 C 309.376 166.722, 313.801 166.720, 319.302 165.902 C 325.857 164.927, 327.914 165.041, 335.650 166.812 C 340.518 167.926, 347.875 169.365, 352 170.010 C 360.676 171.366, 379.730 175.980, 391.966 179.688 C 416.247 187.045, 441.922 200.255, 461.526 215.478 C 464.729 217.965, 467.994 220, 468.781 220 C 469.568 220, 472.059 221.463, 474.316 223.250 C 477.674 225.910, 479.303 226.500, 483.287 226.500 C 486.956 226.500, 487.752 226.254, 486.518 225.500 C 473.065 217.277, 473.483 217.689, 471.629 210.839 C 466.826 193.097, 454.599 172.842, 438.772 156.409 C 423.077 140.114, 410.162 130.372, 388.659 118.606 C 382.734 115.365, 378.250 112.396, 378.694 112.009 C 379.137 111.621, 383.430 110.556, 388.234 109.642 C 406.666 106.132, 420.643 98.977, 434.215 86.105 C 444.608 76.247, 453.151 63.979, 456.762 53.725 C 460.086 44.287, 460.240 31.642, 457.149 22 C 454.891 14.957, 449.272 4.885, 447.236 4.230 C 446.531 4.004, 445.372 5.301, 444.616 7.162 M 364.070 141.426 C 362.816 142.760, 362.048 144.269, 362.363 144.778 C 362.677 145.287, 365.087 146.507, 367.717 147.490 C 382.736 153.101, 426.398 177.550, 438 186.846 C 440.475 188.829, 447.124 194.870, 452.775 200.270 C 458.426 205.670, 463.471 209.827, 463.986 209.508 C 468.174 206.920, 438.978 173.718, 423.605 163.586 C 414.942 157.876, 405.196 153, 402.447 153 C 401.122 153, 397.443 151.334, 394.269 149.297 C 386.175 144.102, 374.161 139.027, 369.924 139.012 C 367.422 139.004, 365.665 139.728, 364.070 141.426" fill="none" stroke="#000" stroke-width="2px" fill-rule="evenodd"/>
</svg>
