<svg xmlns="http://www.w3.org/2000/svg" width="427" height="449" viewBox="0 0 427 449" version="1.1">
	<path d="M 192.500 8.081 C 177.724 9.647, 165.811 15.350, 155.048 26.012 C 150.805 30.216, 145.904 35.732, 144.158 38.271 C 139.027 45.728, 132.327 60.043, 131.032 66.312 C 130.372 69.509, 128.710 74.576, 127.338 77.572 C 125.622 81.322, 124.695 85.432, 124.367 90.760 C 123.601 103.168, 121.011 111, 117.673 111 C 117.114 111, 113.697 112.181, 110.078 113.624 C 95.924 119.268, 77.624 134.845, 72.424 145.674 C 70.885 148.878, 68.085 153.244, 66.201 155.377 C 61.142 161.103, 57.320 170.143, 53.838 184.615 C 52.133 191.702, 49.696 199.750, 48.422 202.500 C 35.579 230.229, 31.848 243.982, 31.469 265 C 31.335 272.425, 30.719 281.521, 30.100 285.213 C 28.805 292.932, 29.731 298.792, 32.929 303.118 C 34.316 304.995, 35 307.435, 35 310.512 C 35 316.316, 32.300 328.418, 29.983 333.002 C 29.009 334.928, 26.773 341.137, 25.014 346.798 C 21.491 358.138, 19.728 360.364, 6.250 370.479 L -0 375.170 0 396.693 L 0 418.217 2.254 417.651 C 4.377 417.118, 4.487 417.345, 4.150 421.582 C 3.531 429.361, 4.695 432.546, 10.290 438.384 C 13.885 442.134, 16.740 444.145, 19.500 444.870 C 21.874 445.494, 31.834 445.800, 44 445.622 C 66.871 445.287, 70.276 444.591, 81.400 437.968 C 88.750 433.592, 91.087 429.589, 93.947 416.484 C 96.213 406.094, 99.569 381.344, 100.837 365.672 C 101.525 357.153, 102.117 354.438, 103.612 352.944 C 104.657 351.899, 110.009 348.527, 115.506 345.452 L 125.500 339.861 134.765 340.292 C 141.899 340.624, 145.580 340.281, 150.765 338.803 C 155.599 337.425, 159.899 336.964, 166 337.171 C 170.675 337.330, 179.900 337.369, 186.500 337.257 L 198.500 337.054 200.096 339.840 C 203.395 345.598, 215.175 348.300, 216.924 343.699 C 217.405 342.434, 217.567 340.184, 217.283 338.699 C 216.699 335.646, 215.961 335.753, 236 335.979 C 244.924 336.079, 245.614 336.238, 247.375 338.600 L 249.250 341.114 251.423 339.073 C 255.528 335.216, 264.585 332.924, 278.217 332.291 C 286.256 331.918, 291.407 332.076, 292.217 332.720 C 294.538 334.564, 300.351 335.914, 310.500 336.967 C 322.291 338.190, 333.093 341.754, 337.411 345.848 C 339.110 347.458, 341.931 349.497, 343.679 350.377 C 345.428 351.258, 347.118 352.798, 347.436 353.799 C 348.063 355.774, 359.481 361.536, 364.759 362.542 C 366.552 362.884, 370.602 365.094, 373.759 367.454 C 376.917 369.813, 381.300 372.667, 383.500 373.795 C 385.700 374.922, 391.662 379.930, 396.749 384.922 C 401.836 389.915, 406.850 394, 407.892 394 C 408.934 394, 410.020 394.610, 410.306 395.356 C 410.592 396.101, 413.228 398.075, 416.163 399.743 C 423.594 403.964, 426.283 407.168, 427.110 412.786 C 427.491 415.379, 427.735 407.066, 427.652 394.314 L 427.500 371.127 424.785 368.314 C 423.291 366.766, 419.916 364.630, 417.285 363.567 C 414.653 362.504, 406.650 357.304, 399.500 352.012 C 392.350 346.720, 381.325 339.535, 375 336.046 C 349.037 321.724, 334.430 312.646, 330.465 308.368 C 328.083 305.797, 315.978 301.454, 308.419 300.457 C 305.624 300.089, 298.649 300.270, 292.919 300.861 C 282.793 301.905, 259.174 303.253, 228.450 304.541 L 213.399 305.171 212.280 302.714 C 211.656 301.346, 209.925 299.947, 208.375 299.558 C 206.843 299.173, 205.003 298.021, 204.286 296.998 C 202.426 294.343, 193.582 291.296, 183.736 289.919 L 175.270 288.735 176.111 285.117 C 176.574 283.128, 176.963 279.838, 176.976 277.807 C 176.993 275.204, 177.621 273.678, 179.105 272.639 C 180.263 271.828, 184.701 267.812, 188.969 263.714 C 195.174 257.755, 196.873 255.485, 197.448 252.381 C 198.607 246.137, 203.897 237.312, 211.114 229.585 C 214.808 225.629, 219.291 219.492, 221.076 215.946 C 222.861 212.401, 226.039 207.079, 228.138 204.119 C 235.275 194.056, 238.055 182.907, 236.021 172.496 C 235.377 169.198, 234.759 160.650, 234.647 153.500 C 234.473 142.399, 234.045 139.287, 231.721 132.198 C 229.944 126.778, 229 121.744, 229 117.695 C 229 112.303, 229.424 110.896, 232.250 106.920 C 234.037 104.405, 236.563 100.074, 237.863 97.297 L 240.226 92.248 246.363 92.738 C 249.738 93.007, 258.125 92.709, 265 92.076 C 320.671 86.945, 390.158 92.435, 413.167 103.782 L 418.835 106.577 419.417 103.664 C 421.093 95.283, 418.967 81.814, 414.610 73.216 C 408.054 60.280, 395.450 48.137, 379.768 39.650 C 362.847 30.492, 328.179 18.109, 305.297 13.051 C 274.464 6.234, 242.490 5.288, 221.389 10.568 C 215.611 12.014, 215.094 11.991, 211.889 10.156 C 207.975 7.914, 201.062 7.174, 192.500 8.081 M 0.426 396.500 C 0.427 408.600, 0.571 413.413, 0.747 407.195 C 0.923 400.977, 0.922 391.077, 0.746 385.195 C 0.569 379.313, 0.425 384.400, 0.426 396.500" fill="none" stroke="#000" stroke-width="2px" fill-rule="evenodd"/>
</svg>
