<?xml version="1.0" encoding="utf-8"?>
<!-- Generator: Adobe Illustrator 17.0.0, SVG Export Plug-In . SVG Version: 6.00 Build 0)  -->
<!DOCTYPE svg PUBLIC "-//W3C//DTD SVG 1.1//EN" "http://www.w3.org/Graphics/SVG/1.1/DTD/svg11.dtd">
<svg version="1.1" id="Слой_1" xmlns="http://www.w3.org/2000/svg" xmlns:xlink="http://www.w3.org/1999/xlink" x="0px" y="0px"
	 width="800px" height="400px" viewBox="0 0 800 400" enable-background="new 0 0 800 400" xml:space="preserve">
<g>
	<polygon fill="#FFFFFF" points="203.3,148.685 193.82,150.916 171.144,182.142 158.504,208.165 172.631,218.76 209.991,221.176 
		237.873,217.087 244.378,196.083 229.694,153.89 220.029,148.685 	"/>
	<path fill="#B6CBD8" d="M229.198,387.47c0,0,2.602,3.594,5.204,4.709c2.602,1.115,15.49,1.362,18.216,1.115
		c2.727-0.248,7.435-0.497,8.178-2.23c0.743-1.735,0.743-4.338,0.743-4.338l-4.584-3.594l-24.784-0.743L229.198,387.47z"/>
	<path fill="#FFFFFF" d="M238.616,358.351c0,0-4.958,10.904-6.816,15.117c-1.859,4.214-3.716,8.055-4.213,9.665
		c-0.495,1.612,0.867,3.471,0.867,3.471s4.956,1.982,13.011,2.106c8.055,0.125,16.357-0.619,16.357-0.619s4.584-0.123,5.204-6.196
		c0.62-6.071-3.717-19.083-4.708-23.543C257.327,353.89,239.731,353.146,238.616,358.351z"/>
	<path fill="#B6CBD8" d="M146.918,348.685c0,0-0.123,1.239,0.496,2.354s1.487,0.619,2.478-0.248
		c0.991-0.867,17.1-13.383,17.1-13.383l18.835-14.745l3.346-3.099l-0.62-3.346l-1.239-3.346l-34.82,21.933L146.918,348.685z"/>
	<path fill="#FFFFFF" d="M158.814,312.006c0,0-5.452,12.886-6.939,16.48s-5.576,12.019-8.178,14.126
		c-2.602,2.107-2.974,3.222-0.743,5.453s4.461,0.62,4.461,0.62l13.878-11.152l14.994-12.393l9.542-7.682l2.23-2.602
		c0,0-1.487-5.701-6.32-10.162c-4.833-4.461-6.815-4.336-6.815-4.336l-15.861,10.161L158.814,312.006z"/>
	<path fill="#F7CB9B" d="M159.805,309.032l-0.124,2.974c0,0,2.602,2.974,9.541,0.123c6.939-2.849,7.064-7.683,6.444-9.665
		s-9.79-0.495-9.79-0.495L159.805,309.032z"/>
	<path fill="#F9B000" d="M143.201,208.165c0,0-8.426-3.966-21.313,0.991s-13.135,16.357-13.383,22.058
		c-0.248,5.7,9.17,26.766,14.87,35.688c5.7,8.922,32.962,35.935,32.962,35.935l0.496,7.746l3.903-1.301
		c0,0,16.357-7.807,16.914-7.993s1.301-3.16,1.301-4.275s-0.929-4.647-2.416-5.576s-1.859-4.089-1.859-4.089l-3.16-15.985
		l-2.416-15.613l1.115-2.23c0,0,11.152,10.967,25.651,15.242c0,0,6.877,21.19,10.037,28.81s11.71,26.208,16.729,34.015
		s13.383,21.004,13.383,21.004l-1.115,3.346c0,0,6.506,3.16,15.056,3.532s13.941-2.602,13.941-2.602l-1.673-2.974
		c0,0,4.647-2.23,2.602-6.691s-2.602-8.736-2.602-8.736l4.833-38.29l4.089-48.513l3.532-31.97l-2.788-5.204l-44.424-1.673
		l-31.227-2.417l-30.669-4.647L143.201,208.165z"/>
	<path fill="#F9B000" d="M220.772,155.562l8.736,32.9l6.506,28.067l3.717,10.781l33.085-8.736l5.576-1.301l-7.063-25.465
		l-5.762-21.004c0,0,10.781,8.178,15.242,11.896c4.461,3.717,13.383,8.736,19.331,7.621c5.948-1.115,5.204-7.993,5.204-11.152
		c0-3.16,0-26.208,0-26.208l0.743-20.818l-0.929-2.974l-4.089-0.743l-47.955-2.416l-36.617,9.851L220.772,155.562z"/>
	<path fill="#F9B000" d="M180.995,131.213c0,0-5.019,0.186-11.71,3.532c-6.691,3.346-15.799,7.621-15.799,7.621l-21.19,6.691h-9.108
		l-25.093,5.39l-1.673,4.833l4.089,14.498c0,0,2.23,3.903,12.825,5.948s32.714-1.487,32.714-1.487l6.134-1.115l-5.948,10.409h-1.487
		l-2.045,2.23l0.743,0.929l0.372,0.743l-8.364,15.799c0,0,16.914,2.416,29.554,8.551l13.755-29.926l16.729-28.81l3.16-6.134
		l-1.487-10.967L180.995,131.213z"/>
	<path fill="#13A538" d="M165.753,50.544c0,0,7.249-4.461,13.755-5.948l4.833-9.294c0,0,5.204-14.684,5.948-16.171
		c0.743-1.487,5.762-8.55,14.126-11.338s21.19,0.929,23.235,11.152c0,0,5.576-5.204,16.543-5.204s20.446,4.647,23.234,17.1
		c2.788,12.454-0.743,26.952-0.743,26.952s6.877,7.621,12.825,15.799s6.506,14.126,6.506,14.126l-5.39,4.647L165.753,50.544z"/>
	<path fill="#CEE4C6" d="M165.568,52.031c0,0,4.877-4.15,18.278-0.496c10.904,2.974,13.383,10.904,21.313,12.887
		c6.788,1.697,23.978-1.239,45.168-0.496s28.253,5.204,32.156,14.87l4.213,9.665c0,0-3.717,11.4-5.453,17.844
		c0,0-16.852,3.965-18.834,5.452c-1.984,1.487-3.719,4.461,0.99,7.93c0,0-3.221,1.239-3.469,4.957c-0.248,3.717,2.974,5.7,2.974,5.7
		l-2.23,2.974c0,0-20.571,5.7-25.527,6.939c0,0-14.126,0-17.1,1.487s-9.913,2.478-15.613,1.487c-5.7-0.991-13.63-3.965-18.587-8.922
		s-19.827-22.305-21.066-23.544s-13.135-32.714-13.135-32.714S151.503,58.474,165.568,52.031z"/>
	<path fill="#C8D3D9" d="M140.227,81.399c0,0,5.576-4.337,15.49-0.867c9.913,3.47,13.754,18.959,9.417,24.039
		c-4.337,5.081-10.533-1.611-10.533-1.611L140.227,81.399z"/>
	<path fill="#93A7B2" d="M132.544,85.116l3.346-2.974c0,0,11.524-2.478,19.95,4.585c8.426,7.063,9.417,17.844,8.922,21.933
		c-0.496,4.089-6.443,2.974-6.443,2.974L132.544,85.116z"/>
	<path fill="#B6C0C6" d="M129.88,90.321v-3.346c0,0,5.019-4.461,17.286-0.558c12.268,3.903,14.684,17.844,14.684,17.844
		s-0.31,9.356-1.177,10.223s-5.576,3.098-5.576,3.098l0.124-1.115L129.88,90.321z"/>
	<path fill="#FFFFFF" d="M222.445,24.893c0,0-2.23-6.877-9.294-9.294c-7.063-2.416-14.87,2.974-18.587,10.409
		s-3.903,18.587-3.903,18.587l8.364,1.859l15.799-8.178C214.824,38.276,218.914,28.053,222.445,24.893z"/>
	<path fill="#FFFFFF" d="M222.817,39.577c0,0,3.346-11.524,10.223-15.056s17.658-3.346,23.42,2.788
		c5.762,6.134,2.974,20.818,2.974,20.818s-2.045,7.249-5.948,10.223c0,0-20.26-4.647-23.42-5.576S222.817,39.577,222.817,39.577z"/>
	<path fill="#00702F" d="M165.382,72.105l2.23-5.576c0,0,13.011,7.993,29.368,12.639s48.327,9.851,72.119,4.089l1.859,5.762
		c0,0-8.736,17.1-31.784,28.625c0,0-1.115-7.621-12.082-11.338c-10.967-3.717-17.101-2.045-18.774,0.186
		c0,0-3.532-6.506-15.242-4.461s-12.825,8.736-12.825,8.736s-5.576-10.595-7.807-15.056S165.382,72.105,165.382,72.105z"/>
	<path fill="#00974D" d="M180.252,110.767c0,0,2.23-6.134,11.71-8.55c9.48-2.416,15.799,2.974,16.357,4.275
		c0,0,3.903-4.833,15.056-1.487c11.152,3.346,15.056,8.922,15.799,12.639c0,0-13.011,6.877-23.792,9.665s-18.773-0.186-24.349-4.647
		C185.456,118.202,180.252,110.767,180.252,110.767z"/>
	<polygon fill="#009FE3" points="213.709,45.711 211.292,45.154 200.883,49.429 174.861,26.195 213.709,38.276 262.966,46.269 
		261.664,47.384 219.099,52.217 	"/>
	<path fill="#13A538" d="M301.999,134.93c0,0-1.673,8.736-9.108,11.896s-11.71,1.487-16.357-1.301s-14.126-7.249-14.126-7.249
		s-1.487-2.602-1.115-3.903s1.115-4.275,1.115-4.275s-2.974-2.23-2.788-4.647c0.186-2.416,2.974-5.39,2.974-5.39
		s-1.487-1.673-1.487-5.39s7.063-5.204,7.063-5.204l14.312-3.346c0,0,0.743-16.171,7.621-24.349s10.967-10.223,17.472-7.621
		c6.506,2.602,6.877,7.807,5.762,10.409s-5.576,5.39-7.621,6.32c-2.045,0.929-5.948,4.833-7.993,12.082s2.788,13.569,2.788,13.569
		S302.742,129.726,301.999,134.93z"/>
	<path fill="#13A538" d="M132.854,128.239c0,0,2.974-3.346,2.045-5.576s-7.249-9.851-8.178-11.152s-5.762-5.019-11.152,0.558
		c0,0-1.301,0-5.39,1.487s-5.204,5.39-5.204,5.39s-3.717-2.602-9.108,6.134c-5.39,8.736-5.39,16.543-2.23,22.491
		c3.16,5.948,9.108,8.922,16.729,8.55s14.87-5.948,14.87-5.948s2.045,2.974,5.204,1.301c3.16-1.673,4.647-8.55,4.647-8.55
		s3.532-7.807,3.717-9.665C138.988,131.399,137.315,128.611,132.854,128.239z"/>
	<path fill="#BB833A" d="M188.988,206.492c0,0-12.825-1.487-19.331-2.23l-2.788,7.249c0,0,11.71,2.416,22.119,3.346L188.988,206.492
		L188.988,206.492z"/>
	<path fill="#BB833A" d="M210.177,208.35c0,0,16.543,1.859,24.35,2.045l1.673,7.807c0,0-15.427-0.558-26.394-1.673L210.177,208.35z"
		/>
	<path fill="#E30613" d="M186.943,136.417c0,0-4.275-1.115-4.461,1.487s0,15.242,0,15.242s0.558,1.859,2.974,1.487
		s17.1-3.717,17.1-3.717s0.743,2.23,5.019,2.416c4.275,0.186,4.833-1.487,4.833-1.487s12.826,4.461,16.357,5.762
		s8.364,2.974,8.364-0.372s-0.743-11.71-0.743-11.71l-0.186-5.019c0,0-1.115-1.301-3.903-1.115
		c-2.788,0.186-13.383,2.416-14.498,2.788c-1.116,0.372-4.647,0.929-4.647,0.929s-6.568,0.248-10.719,0.124
		C198.281,143.109,189.917,139.391,186.943,136.417z"/>
	<path fill="#C8D3D9" d="M129.508,110.953c0,0-8.178-12.454,0.743-21.375c0,0,10.037-5.019,20.632,3.16
		c10.595,8.178,8.55,20.446,3.346,24.721c-5.204,4.275-16.357-0.558-16.357-0.558s2.974-4.089-0.372-7.435
		C134.155,106.12,130.623,108.908,129.508,110.953z"/>
	<path fill="#C8D3D9" d="M128.021,112.626l4.089-3.903c0,0,3.346-1.487,6.32,1.859c2.974,3.346,0.558,6.506,0,6.691
		c-0.558,0.186-4.461,4.461-4.461,4.461L128.021,112.626z"/>
	<path fill="#C8D3D9" d="M105.716,133.629l-13.755,14.126l-0.743,3.532c0,0,4.151-0.496,5.514,0.496
		c1.363,0.991,1.611,2.355,1.115,2.478s-3.841,1.239-3.841,1.239s1.983,2.355,3.594,3.594s3.594,0.868,5.948-1.611
		c2.354-2.478,12.763-16.109,12.763-16.109L105.716,133.629z"/>
	<path fill="#A6AEB3" d="M91.28,151.907c0,0,0.372-3.346,0.743-3.717c0.372-0.372,3.222-1.983,7.807,1.239s4.337,7.435,4.337,7.435
		l-2.478,2.354c0,0-7.311,0.372-7.807-3.222L91.28,151.907z"/>
	<path fill="#A6AEB3" d="M97.476,154.385c-1.983,0.248-7.93,2.602-7.93,2.602s3.222,7.931-1.363,11.4
		c-4.585,3.47-9.046,0.372-9.046,0.372c-0.991,1.115-2.974,7.807-3.098,9.417c-0.124,1.611-3.098,1.983-4.461,0.372
		c-1.363-1.611-2.107-3.222-0.62-7.063s6.072-8.674,6.072-8.674s0.743-3.469,4.461-6.443c3.717-2.974,11.896-5.081,11.896-5.081
		C97.104,151.535,99.459,154.138,97.476,154.385z M85.58,159.466c0,0-2.726,1.735-2.726,2.974s2.974,3.222,3.965,0.496
		C87.81,160.209,85.58,159.466,85.58,159.466z"/>
	<path fill="#F9B000" d="M176.906,204.075l-2.695-0.093c0,0-3.346,3.81-1.673,9.015l1.208,0.743l1.859-0.279
		C175.605,213.462,176.441,206.213,176.906,204.075z"/>
	<path fill="#F9B000" d="M181.553,204.261c0,0-2.416,4.461-0.558,10.688l2.23,0.186c0,0-0.186-6.32,1.766-10.13L181.553,204.261z"/>
	<path fill="#F9B000" d="M216.869,207.886c0,0,1.58,4.554,0,9.387l2.881,0.279c0,0,0.558-6.227-0.465-9.573
		C219.285,207.979,217.054,207.421,216.869,207.886z"/>
	<path fill="#F9B000" d="M222.817,208.443c0,0,0.372,5.67-0.279,9.48h3.346c0,0,2.138-5.112,0.186-8.736L222.817,208.443z"/>
	<polygon fill="#FFED00" points="189.669,206.553 189.297,209.652 189.421,215.6 201.441,216.839 209,217.459 209.805,216.529 
		210.611,208.536 209.62,207.421 198.219,206.678 190.165,205.934 	"/>
	<g>
		<path fill="#ADCCA5" d="M275.769,69.295c-7.458-3.981-19.075-5.232-24.101-5.598c0.675,0.868,1.29,1.809,1.818,2.832
			c5.576,10.781-2.602,17.844-2.602,17.844s15.985,0.743,18.216-1.115l1.859,6.691c0,0-13.011,17.844-28.996,27.509
			c0,0-3.717,14.498-9.665,21.933l3.903,1.115c0,0,19.02-4.461,26.208-10.409c0,0-3.469-3.222-2.479-5.948
			c0.992-2.726,2.665-4.089,2.665-4.089s-2.665-4.09-1.178-6.568s4.709-2.974,4.709-2.974l16.109-4.957l3.966-16.357
			C286.2,89.206,280.374,75.809,275.769,69.295z"/>
		<path fill="#009338" d="M274.056,67.149c-4.709-4.957-25.03-12.144-41.016-13.259c0,0,12.182,1.524,18.628,9.808
			c5.026,0.366,16.643,1.617,24.101,5.598C275.174,68.451,274.596,67.717,274.056,67.149z"/>
	</g>
	<path fill="#009338" d="M248.033,15.352c0,0,11.648,5.452,11.401,8.922c-0.248,3.47-2.974,3.036-2.974,3.036
		s6.195,7.868,3.717,17.782l2.788,1.177l-3.036,1.549c0,0-2.974,7.435-6.443,10.656l1.239,2.726l20.323,5.204l-8.922-8.426
		c0,0,2.726-16.852,1.734-26.022C266.869,22.787,260.177,13.865,248.033,15.352z"/>
	<path fill="#009338" d="M212.841,8.165c0,0,3.469,2.23-2.974,6.691c0,0,8.922,1.239,12.392,10.904l5.39-6.815
		C227.65,18.945,225.728,8.908,212.841,8.165z"/>
	<path fill="#E78F00" d="M282.729,149.924c0,0,3.471,1.735,6.94,2.23c3.469,0.496,7.435,3.965,7.93,9.913
		c0.497,5.948,0.992,19.579-1.239,21.809c-2.23,2.23-6.196,2.726-6.196,2.726s2.479,2.478,7.932,3.222
		c5.451,0.743,8.425-2.479,7.682-7.187s-0.495-29.74-0.495-33.953s0.867-15.49,0.806-16.543c-0.062-1.053-2.788-3.284-2.788-3.284
		s-0.745-0.744-1.24,1.735c-0.495,2.478,0.992,9.17-4.956,13.631s-15.862,3.47-15.862,3.47S280.499,148.933,282.729,149.924z"/>
	<path fill="#E78F00" d="M240.847,139.515c0,0,11.152-1.487,14.622,0.248c3.469,1.735,18.092,13.135,19.331,14.374
		c1.239,1.239,0.992,5.7,0.248,7.435c-0.743,1.735-2.479,6.196-2.479,6.196l7.435-6.939l1.239-13.135c0,0-11.399-4.957-14.622-6.691
		c-3.222-1.735-4.956-1.735-4.956-4.709s-1.24-3.717-1.24-3.717S243.572,137.285,240.847,139.515z"/>
	<path fill="#E78F00" d="M276.038,164.546c0,0-2.974,2.974-0.743,6.691c2.23,3.717,5.701,4.956,5.701,4.956
		s-2.727-6.443-2.727-8.178s0-6.443,0-6.443L276.038,164.546z"/>
	<path fill="#E78F00" d="M256.212,144.72c0,0,3.717,28.253,4.461,35.192c0.743,6.939-0.992,14.622-0.992,14.622
		s-2.23,2.23-0.99,2.23c1.239,0,1.239,4.461-0.248,5.205l3.469-0.743c0,0,0.992,4.213,0.248,4.213s-2.974,0.496-2.23,0.496
		s2.23,5.453,0.743,15.365l17.72-4.027l-10.781-38.104l-7.932-28.005C259.681,151.164,257.452,145.711,256.212,144.72z"/>
	<path fill="#E78F00" d="M152.618,176.442c0,0,20.57-32.218,21.313-32.714c0.743-0.496-2.478-0.248-5.452,2.974
		s-7.931,9.417-7.435,7.93s2.726-4.213,0-4.956s-3.717,2.726-4.461,5.452c-0.743,2.726-7.931,7.93-14.126,8.922
		c-6.196,0.991-8.922,2.231-9.665,1.239c-0.743-0.991-1.487-6.196-1.983-6.939s-0.991-5.452-1.735-1.487
		c-0.743,3.965-0.991,9.417-3.717,11.648c-2.726,2.23-9.418,2.726-10.409,1.239c-0.991-1.487-3.717-13.631-3.717-13.631
		l-5.948,0.496l-3.222,3.222l-5.638-0.558c0,0,3.159,12.454,7.373,17.162c4.213,4.709,18.092,3.717,23.296,3.717
		S152.618,176.442,152.618,176.442z"/>
	<path fill="#EC9700" d="M236.2,218.202l-9.728-0.868l-0.588,0.59l-3.439,0.465l0.186-0.929l-2.881,0.093l-0.465,0.093l-1.859-0.186
		l-0.558-0.186l-3.903-0.743h-3.16c0,0,0.062,1.796-0.929,1.548c-0.991-0.247,24.164,10.162,28.625,15.738
		s9.294,21.561,10.409,43.866c1.115,22.305,1.859,45.353,2.974,47.212s-2.974,3.346-1.859,4.833s2.602,9.294,1.859,12.268
		c-0.743,2.974-5.204,2.602-2.602,6.32s3.346,9.665-0.372,10.037c0,0,5.328,0.247,9.789,0.247c4.461,0,6.691-0.495,6.196-1.734
		c-0.497-1.24-1.673-2.974-1.673-2.974s2.788-4.709,2.602-6.691c-0.186-1.984-2.665-7.932-2.665-7.932l5.7-48.822l6.073-72.242
		l-34.201,9.108L236.2,218.202z"/>
	<path fill="#EC9700" d="M157.575,239.639c0,0-13.63-7.187-16.357-8.674c-2.726-1.487,1.239,3.469,5.452,11.401
		c4.213,7.93,16.604,29.988,18.339,34.696c1.735,4.709-1.487,5.204,0.991,9.914c2.478,4.708,4.461,9.417,4.709,10.656
		c0.248,1.24,0.248,6.196,0.248,6.196s7.435-1.982,7.683-3.469s0-2.727,0-2.727s0.991-3.717-0.743-4.708
		c-1.735-0.992-2.478-2.727-2.478-2.727l-3.222-13.383l-3.222-24.535L157.575,239.639z"/>
	<path fill="#EC9700" d="M210.611,275.575c0,0-10.408-8.425-14.126-9.665c-3.717-1.239-22.553-12.393-29.244-21.066
		c-6.691-8.674-23.296-15.862-28.748-19.331s2.23,5.701,5.204,10.657s10.657,8.922,10.657,8.922s14.87,6.691,16.357,9.17
		c1.487,2.477,11.648,9.169,18.835,11.896C196.732,268.883,208.628,274.088,210.611,275.575z"/>
	<polygon fill="#EC9700" points="241.032,159.094 244.378,161.696 236.757,177.495 233.04,175.079 	"/>
	<path fill="#EC9700" d="M236.757,176.194c0,0,9.294,7.435,10.409,8.922c1.115,1.487-5.948,41.078-6.691,41.636
		s-0.743-2.045-0.743-2.045s4.089-39.034,3.532-39.777c-0.558-0.743-2.602-3.717-2.602-3.717l-6.134-5.204
		C234.527,176.008,234.341,173.406,236.757,176.194z"/>
	<polygon fill="#EC9700" points="176.906,157.855 174.427,159.59 178.145,164.546 181.367,163.555 	"/>
	<path fill="#EC9700" d="M170.71,169.007c0,0-3.965,1.239-5.204,2.23s-1.239,0.991-0.991,1.735c0.248,0.743-3.717,39.9-3.717,39.9
		s1.239,1.735,1.735,0.497C163.027,212.129,170.71,169.007,170.71,169.007z"/>
	<path fill="#E3E3E3" d="M194.564,165.785c0,0-9.851,19.331-10.223,20.818s-4.461,11.71-4.833,12.825
		c-0.372,1.115-0.929,5.948-0.929,5.948l-1.301-0.186l-0.372-1.115l-2.695-0.093l-0.836,1.022l-3.16-0.743
		c0,0,12.825-25.836,15.428-32.528c2.602-6.691,7.249-12.082,7.249-12.082l3.903-4.833c0,0,1.115,2.416,1.487,3.532
		c0.372,1.115,0.929,1.859,0.929,1.859s-3.16-0.929-4.647,1.115C193.077,163.369,194.564,165.785,194.564,165.785z"/>
	<path fill="#E3E3E3" d="M214.452,153.146l1.673,3.717c0,0,3.16,0.743,2.045,2.788c-1.116,2.045-2.417,3.346-2.417,3.346
		s0.929,0.929,0,1.859s1.115,1.859-0.186,3.346c-1.301,1.487-1.673,2.416-1.673,2.416s3.532,0.558,2.416,2.23
		c-1.115,1.673,1.859,2.23,0.929,3.717c-0.929,1.487,2.045,1.673,0.186,5.948s-0.186,5.39-0.186,5.39s4.647,1.301,1.116,5.948
		c-3.532,4.647-2.788,4.089-2.788,4.089s-2.045,4.461-3.532,5.39s-0.186,2.974-0.186,2.974l0.558,2.788h-1.673l-1.673-2.045
		l-4.833,0.372l0.372-17.1l2.602-25.836l2.974-10.967C210.177,153.518,211.664,150.172,214.452,153.146z"/>
	<path fill="#FFFFFF" d="M203.764,152.867c0,0-2.788,0.651-3.81,0.743c-1.022,0.093-2.138,1.394-2.045,2.881
		s1.301,3.717,1.301,3.717s-3.16-1.58-4.647,1.115s0.186,5.019,2.045,5.948c0,0-2.416,0.929-2.602,2.509s2.602,3.346,2.602,3.346
		s-1.208,1.022,0,1.952c0,0-2.323,0.186-2.509,2.138s1.859,2.695,1.859,2.695s-1.301,0.929-0.279,2.045c0,0-2.138-0.186-3.253,1.673
		c-1.115,1.859,2.045,5.483,2.045,5.483s0.743,1.673-1.394,0.651c-2.138-1.022-2.881-1.58-4.74-1.022
		c-1.859,0.558-3.16,3.253-1.022,6.784c2.138,3.532,5.948,3.439,5.948,3.439s-2.974,2.788,0.929,3.81c0,0-0.372,2.138,1.115,3.067
		s2.788,1.115,2.788,1.115l6.134-0.279c0,0,4.275-1.022,3.346-3.996c0,0,4.089,1.022,5.762-1.394
		c1.673-2.416-0.929-4.647-0.929-4.647s4.74,1.115,4.74-3.625s-5.204-4.089-5.204-4.089l1.58-1.673c0,0,3.625-3.067,3.439-5.762
		c-0.186-2.695-2.788-2.23-2.788-2.23s1.859-1.673,0.279-2.974c-1.58-1.301-4.089-2.323-4.089-2.323s1.859-0.743,2.138-2.23
		s-0.836-2.974-0.836-2.974s2.138-0.929,1.673-2.602c0,0,1.859-1.859,0.836-4.275c0,0,2.416-1.301,2.23-3.903
		s-2.416-2.045-2.788-1.394c0,0-0.465-3.346-2.138-3.625s-4.74,0.186-4.74,0.186L203.764,152.867z"/>
	<path fill="#E3E3E3" d="M249.272,359.838c0,0,0.497,5.7-0.495,9.665c-0.992,3.964-2.974,5.7-2.974,5.7l-0.495,1.239
		c0,0,3.469,1.984,3.717,6.196c0.247,4.213-2.479,5.451-4.709,5.7c0,0,8.674,0.248,12.391-0.247
		c3.717-0.497,7.435-2.479,6.691-8.922c-0.743-6.445-4.708-20.323-4.708-20.323L249.272,359.838z"/>
	<path fill="#E3E3E3" d="M164.514,313.244c0,0,5.452,0.992,6.939,0.992s4.461,5.453,3.222,8.427s-26.766,22.8-27.757,23.543
		s-4.709,1.982-4.709,1.982s3.717,1.488,4.461,0.992c0.743-0.495,40.397-31.722,40.892-32.714s0.496-5.7-2.974-9.665
		c-3.47-3.966-8.178-5.453-8.178-5.453l-0.248,1.984C176.162,303.332,176.658,312.006,164.514,313.244z"/>
	<path fill="#A7B4BB" d="M140.475,112.006c0,0,10.657,0.744,17.1-7.683c0,0,1.983,10.161-3.965,13.63
		c-5.948,3.47-14.622-1.239-14.622-1.239L140.475,112.006z"/>
	<path fill="#A7B4BB" d="M161.54,85.736c0,0,0.991,4.461-0.743,6.939c0,0,3.47,6.816,3.717,11.4c0,0,1.983-5.452,1.239-10.904
		c-0.743-5.452-3.222-8.427-3.717-7.931C161.54,85.736,161.54,85.736,161.54,85.736z"/>
	<path fill="#A7B4BB" d="M158.07,103.084l2.23-2.23c0,0,2.23,8.426,0.372,13.631c0,0-4.833,3.222-6.32,3.222
		C154.353,117.706,159.31,113.245,158.07,103.084z"/>
	<path fill="#FFFFFF" d="M135.518,88.958c0,0-7.931,6.691-3.965,19.579l2.23,0.248c0,0-2.23-11.648,6.939-20.074
		C140.723,88.71,137.501,88.71,135.518,88.958z"/>
	<path fill="#FFFFFF" d="M148.901,83.01c0,0,4.213-2.23,7.435-1.735l-2.478-0.991c0,0-6.939-0.248-10.161,1.487L148.901,83.01z"/>
	<polygon fill="#FFFFFF" points="145.121,82.328 143.077,84.745 138.244,84.559 140.846,81.585 	"/>
	<polygon fill="#FFFFFF" points="138.244,84.559 135.828,87.904 140.723,88.71 143.634,85.302 	"/>
	<path fill="#A7B4BB" d="M137.749,112.006l-6.444,5.948l2.726,2.478l4.956-4.709C138.988,115.723,141.218,113.741,137.749,112.006z"
		/>
	<path fill="#A7B4BB" d="M105.53,135.302c0,0,0,1.239,2.478,3.965s-6.196,11.896-6.196,11.896l2.974,3.965l11.524-13.755
		l-9.789-7.559C106.522,133.815,103.795,133.815,105.53,135.302z"/>
	<polygon points="213.174,45.688 201.477,51.087 169.984,24.093 214.074,37.29 272.261,46.588 218.572,54.086 211.374,45.088 
		212.874,44.188 219.172,50.787 260.863,46.588 213.474,39.09 177.182,27.692 201.177,47.787 211.374,43.589 	"/>
	<path d="M287.19,89.206c-3.469-20.322-19.331-31.227-19.331-31.227c6.691-29.74-2.974-40.397-14.622-44.114s-20.57,0-27.261,5.948
		s-12.144,18.34-12.144,18.34l1.735,0.248c0,0,4.066-10.587,12.143-17.1c7.683-6.196,19.383-10.224,31.723-0.248
		c11.648,9.417,6.443,30.483,4.708,35.935c0,0,20.076,18.092,21.81,37.423L287.19,89.206z"/>
	<path d="M226.224,20.556c0,0-1.115-9.692-12.639-12.143c-11.648-2.478-22.553,7.683-26.518,21.561l-1.735-0.496
		c0,0,2.974-13.135,13.383-20.074s25.775-3.717,30.236,8.922L226.224,20.556z"/>
	<path d="M185.084,35.922l-3.717,9.17c0,0-0.743,0.743-1.983,0.991c-1.239,0.248-25.527,5.7-28.005,32.714l-3.222,0.248
		c0,0,0.495-11.401,8.426-22.057s21.561-13.135,21.561-13.135s5.204-8.179,5.452-9.17S185.084,35.922,185.084,35.922z"/>
	<path d="M167.488,65.414c0,0,38.91,27.262,101.363,16.605l0.743,2.23c0,0-59.479,10.656-102.354-17.596L167.488,65.414z"/>
	<path d="M228.702,52.031c0,0,10.409-0.991,29.491,8.178c0,0-19.083-5.948-33.209-7.187L228.702,52.031z"/>
	<path d="M197.476,45.339c0,0-3.965-1.487-11.152-0.743c0,0,7.684,0.991,12.64,3.717L197.476,45.339z"/>
	<path d="M223.25,39.639c0,0,5.838-20.037,23.792-16.605c16.852,3.222,11.896,22.057,11.896,22.057l2.23,0.496
		c0,0,2.974-20.818-13.63-23.544c-16.605-2.726-24.288,9.914-25.775,17.596H223.25z"/>
	<path d="M260.673,47.57c0,0-1.982,5.948-6.443,10.904h-0.992c0,0,4.461-4.709,5.204-10.409L260.673,47.57z"/>
	<path d="M193.511,31.957c0,0,0.495-4.957,5.452-11.153s18.092-8.178,22.8,5.452l1.239-0.743c0,0-1.982-8.922-11.151-10.656
		c-9.983-1.889-19.083,7.93-19.083,16.605L193.511,31.957z"/>
	<path d="M287.934,106.306c0,0-2.726-1.487-5.948-0.991c-3.221,0.496-17.842,4.461-19.083,4.709
		c-1.239,0.248-3.717,3.222-3.717,5.948s2.479,4.213,3.966,4.709s15.86,1.487,21.808,0.743c0,0-0.99-2.23-1.734-2.478
		c-0.743-0.248-15.118,0-17.597,0c-2.477,0-3.469-2.23-3.221-3.717c0.247-1.487,1.982-2.726,4.213-3.469s13.878-3.966,15.862-4.213
		C284.464,107.297,287.934,106.306,287.934,106.306z"/>
	<path d="M265.382,120.432c0,0-3.469,0.744-3.966,3.222c-0.495,2.478,0.248,4.709,3.222,6.196s15.612,5.7,16.604,6.196
		s1.735,2.726,1.735,2.726s-16.605-6.196-18.092-6.443c-1.487-0.248-6.94-2.231-6.691-6.939c0.248-4.709,2.974-5.7,3.717-6.196
		C262.655,118.697,265.382,120.432,265.382,120.432z"/>
	<path d="M304.787,71.114c9.957,0.343,12.391,9.17,10.656,14.126s-7.435,5.204-11.399,8.426c-3.966,3.222-5.701,12.144-3.966,17.844
		c1.735,5.7,6.443,19.579,0.495,30.483c-5.948,10.904-20.074,7.683-21.561,6.443c-1.487-1.239-12.639-5.452-15.365-7.187
		c-2.726-1.735-4.709-5.452-3.717-7.93s1.982-3.47,1.982-3.47h2.727c0,0-1.24,3.222-1.24,5.7s2.232,3.222,4.709,4.709
		c2.479,1.487,10.657,4.709,12.888,5.7c2.23,0.991,11.895,1.735,16.604-5.452s2.727-20.074,0.248-26.518s-1.982-10.905-0.743-15.118
		c1.239-4.213,5.701-8.426,9.665-10.409c3.966-1.983,4.709-6.443,3.966-10.161c-0.743-3.717-8.675-6.691-16.853,1.487
		s-9.665,26.27-9.665,26.27l-4.956,0.496c0,0,4.213-14.126,7.93-22.553C290.908,75.575,297.6,70.866,304.787,71.114z"/>
	<path d="M212.346,144.472c0,0-0.992,0.991-0.992,2.726s0,3.47,1.239,3.717c1.239,0.248,1.487-1.487,1.487-3.469
		S213.833,142.49,212.346,144.472z"/>
	<path d="M213.337,145.525c0,0,4.647-2.602,10.409-3.717c5.762-1.115,10.037-0.743,10.967-0.743s0.929,0.929,0.929,1.859
		s-0.743,5.948,0.558,11.71c0,0,0.372,1.673-0.372,2.788c-0.743,1.115-7.621-1.301-13.941-3.532
		c-6.32-2.23-9.294-2.974-10.038-2.974s-0.929,1.487,0.558,1.859s7.993,2.602,10.223,3.717c2.23,1.115,9.851,3.16,12.268,3.346
		c2.416,0.186,4.275-0.372,4.275-1.301s-1.301-7.249-1.487-10.967c-0.186-3.717-0.372-6.877-0.743-7.807
		c-0.372-0.929-4.089-1.487-11.896-0.558c-7.807,0.929-12.577,4.399-12.701,5.267C212.222,145.339,213.337,145.525,213.337,145.525z
		"/>
	<path d="M164.081,110.209c0,0,10.409,12.268,16.729,18.959c6.32,6.691,12.639,10.967,21.375,12.639
		c8.736,1.673,16.171-1.487,16.171-1.487s0.372,0.372,0.186,1.301s-7.435,3.717-14.87,3.16s-14.684-4.089-20.818-9.851
		s-16.171-18.216-20.446-22.862L164.081,110.209z"/>
	<path d="M261.911,129.85c0,0-5.451,3.717-21.808,8.922c0,0,0,0.992,2.726,0.496s15.613-3.717,18.092-5.204
		c2.477-1.487,2.477-3.222,2.477-3.222L261.911,129.85z"/>
	<path d="M270.586,73.84c0,0-3.717,4.709-1.735,12.391c1.982,7.683,7.683,9.913,9.17,9.665c0,0,0.248-0.744-0.992-1.735
		c-1.239-0.991-3.469-2.726-5.948-8.922s0.495-11.896,0.495-11.896L270.586,73.84z"/>
	<path d="M166.745,58.227c0,0,3.222,5.204,0.743,11.648c-2.478,6.444-9.418,6.691-9.418,6.691s-0.31-1.115,0.62-1.673
		c0.929-0.558,5.39-2.23,6.877-5.762s1.115-7.807,0.558-9.294C165.568,58.351,166.435,57.731,166.745,58.227z"/>
	<path d="M166.497,70.618c0,0,4.461,23.544,14.622,39.405s27.26,22.694,55.514,7.93c27.509-14.374,33.954-30.979,33.954-30.979
		l1.239,3.47c0,0-13.383,18.587-31.227,28.253s-29.492,11.896-40.892,9.665c-11.4-2.23-29.74-21.066-34.697-55.762L166.497,70.618z"
		/>
	<path d="M204.911,143.976c0,0-1.735,1.487-1.735,3.47s0.743,3.965,4.213,4.709c3.47,0.743,5.204-1.487,5.204-1.487l0.991,1.735
		c0,0-1.487,1.735-5.452,1.983s-7.434-1.983-7.683-5.948c-0.248-3.965,1.735-4.957,1.735-4.957L204.911,143.976z"/>
	<path d="M186.819,137.285c0,0-2.974-0.248-3.222,2.478s0.248,11.648,0.248,12.887s6.692,1.177,18.092-2.974l0.991,2.478
		c0,0-17.1,3.47-19.083,3.965c-1.983,0.496-2.726-0.744-2.726-3.222s0.248-12.391,0-14.622c-0.248-2.23,0.496-3.222,3.47-3.222
		L186.819,137.285z"/>
	<path d="M179.632,129.85c0,0-3.47,0-7.187,1.487c-4.299,1.72-9.417,5.205-13.135,7.187c-3.717,1.983-21.066,7.187-25.527,8.674
		l-0.929,4.089c0,0,18.773-6.815,26.208-10.037s15.861-8.178,23.296-8.178L179.632,129.85z"/>
	<path d="M131.924,130.655c0,0,4.089-5.019,4.833-6.258c0.743-1.239-6.443-9.665-8.674-12.639s-8.178-7.187-14.374-0.743
		l2.974,1.735c0,0,2.726-1.735,4.709-1.983s3.717,0.991,4.709,2.478c0.991,1.487,4.709,7.683,6.443,9.17s0.743,3.47-1.983,5.948
		L131.924,130.655z"/>
	<path d="M103.052,118.945c0,0,2.478-3.965,5.204-6.443c2.726-2.478,6.196-2.478,9.913,1.239s10.657,11.153,12.887,13.631
		s2.974,6.196-4.213,10.409l-1.983-2.23c0,0,3.965-3.47,4.461-4.709s-10.904-11.4-12.639-13.878s-6.196-4.709-9.17,2.478
		L103.052,118.945z"/>
	<path d="M104.787,129.85c0,0,5.452,7.435,14.87,11.152c0,0-2.231,1.239-3.965,0.991c-1.735-0.248-8.674-4.461-11.152-8.922
		C104.539,133.072,103.548,128.61,104.787,129.85z"/>
	<path d="M94.378,144.224c0,0-2.974-4.956,0.743-13.878s6.939-9.913,9.665-10.409s11.4,7.435,14.622,10.657s6.691,6.691,5.452,8.922
		c-1.239,2.23-6.691,6.939-7.187,8.178c-0.496,1.239-3.222,0.496-4.957-1.239l-1.983,1.735c0,0,1.735,2.726,4.461,3.469
		s4.461-0.743,5.452-2.23c0.991-1.487,6.444-7.93,7.435-8.922c0.991-0.991,1.487-4.213-2.478-7.683s-12.887-11.152-14.87-12.639
		s-4.709-2.726-8.178-2.726s-6.444,4.213-7.683,6.691c-1.239,2.478-7.93,12.392-3.47,22.553L94.378,144.224z"/>
	<path d="M126.844,111.758l3.47-3.47c0,0,4.567-3.611,8.426,0.248c4.213,4.213,1.487,8.178,1.487,8.178l-4.461,5.204l-2.478-2.23
		l4.213-3.965c0,0,1.487-2.23-0.248-4.213c-1.735-1.983-4.213-2.23-5.204-1.487c-0.991,0.743-3.965,3.965-3.965,3.965
		L126.844,111.758z"/>
	<path d="M105.282,132.328L90.661,146.95c0,0-1.487,3.47-0.681,5.329l2.54-0.991c0,0-0.372-2.354,1.115-4.089l13.383-13.135
		L105.282,132.328z"/>
	<path d="M94.378,154.881c0,0,4.709,4.709,7.187,3.222l14.126-17.1l3.222,0.248l-16.357,19.579c0,0-5.7,1.487-11.152-4.461
		L94.378,154.881z"/>
	<path d="M96.608,150.792c2.788,0,4.089,3.841,2.23,4.027c-1.859,0.186-8.302,2.478-12.391,4.895
		c-4.089,2.416-2.293,3.841-0.991,3.284c1.301-0.558-0.372-2.788-0.372-2.788l1.239-1.735c0,0,1.487,1.239,1.487,4.089
		s-2.726,3.098-4.089,2.85s-3.717-3.345,0.743-6.815c4.461-3.47,12.516-4.709,12.516-4.709s-0.619-1.611-3.098-1.859
		c-2.478-0.248-12.392,4.461-14.746,9.046s1.735,8.55,5.824,7.807s4.833-4.832,4.585-7.683c-0.248-2.85-1.363-3.965-1.363-3.965
		l2.478-0.372c0,0,0.991,3.222,0.124,7.807s-4.832,6.815-8.798,6.072c-3.965-0.743-7.559-4.337-4.957-10.409
		c2.602-6.072,11.4-9.17,17.472-9.913L96.608,150.792z"/>
	<path d="M76.782,164.422c0,0-5.081,5.204-5.7,11.152c0,0,0,1.611,1.611,2.355c1.611,0.743,2.354,0,2.354,0s0.62-6.196,3.346-10.161
		l1.983,1.487c0,0-2.974,3.098-3.965,11.152c0,0-1.983,0.743-4.585-0.124c-2.602-0.867-2.974-3.47-2.726-5.576
		c0,0,0.991-7.187,7.807-13.011L76.782,164.422z"/>
	<path d="M70.71,176.071c0,0,2.974-0.619,4.337,1.859l1.115-0.248c0,0-2.107-3.594-5.576-2.85L70.71,176.071z"/>
	<path d="M102.371,158.165c0,0,2.346-3.02-1.859-7.435c-3.717-3.903-7.621-2.416-7.621-2.416s3.16-3.16,7.807,0.743
		c4.647,3.903,5.019,7.621,5.019,7.621S103.672,158.536,102.371,158.165z"/>
	<path d="M133.411,127.681c0,0,2.788-0.743,5.762,1.859c2.974,2.602,0.558,6.877-0.743,8.922s-5.019,12.082-5.204,13.569
		c-0.186,1.487-4.089,2.416-7.993,0.186c-3.903-2.23-2.045-7.621-2.045-7.621l2.23-3.16c0,0-0.743,4.833,0.186,6.877
		c0.929,2.045,3.532,2.788,4.833,1.673c1.301-1.115,4.461-9.665,5.948-13.755c1.487-4.089,0-6.134-4.461-5.576l-1.115-1.115
		L133.411,127.681z"/>
	<path d="M124.118,149.243c0,0-3.717,5.948-17.658,5.576l-2.23,2.23c0,0,9.48,3.532,21.561-5.39L124.118,149.243z"/>
	<path d="M128.393,152.588c0,0,0.941,3.415-1.487,10.037c-2.045,5.576-5.948,6.134-5.948,6.134s0.743,1.487,3.532,0.558
		s5.204-5.762,5.204-16.914L128.393,152.588z"/>
	<path d="M130.066,152.96c0,0,1.673,4.647,2.974,10.037s-1.859,10.781-1.859,10.781s-0.558-2.788,0.186-5.762
		c0.743-2.974-0.186-8.55-2.23-12.268l-0.186-2.974L130.066,152.96z"/>
	<path d="M153.114,174.521l-2.602,4.461c-48.141,6.506-49.814-1.487-51.673-5.948s-4.089-14.87-4.089-14.87l3.532,1.301
		c0,0,1.673,7.435,3.532,12.639S123.188,181.585,153.114,174.521z"/>
	<path d="M154.973,190.135c0,0-9.48-3.346-10.037-3.717c-0.558-0.372-3.346,3.16-3.717,3.717c-0.372,0.558,10.037,4.647,11.152,5.39
		l0.743-0.558c0,0-7.249-3.903-8.55-4.461s0.743-2.23,0.743-2.23s7.435,3.16,8.736,3.16S154.973,190.135,154.973,190.135z"/>
	<path d="M134.898,205.191l7.993-14.684l2.23,1.115c0,0-6.134,13.197-6.506,14.126S134.898,205.191,134.898,205.191z"/>
	<path d="M145.307,187.161c0,0,10.223-20.26,27.695-42.193c0,0-1.859,3.717-1.859,5.019c0,0-15.427,22.677-23.606,38.104
		L145.307,187.161z"/>
	<path d="M157.575,167.644c0,0-0.743-2.974-0.743-7.063s1.115-9.851,2.788-10.409c1.673-0.558,1.859,0.558,1.301,1.673
		s-1.301,5.204-1.487,5.948c-0.186,0.743,0.372,1.673,0.372,1.673s1.673-4.833,2.602-6.691s0.186-3.16,0.186-4.089
		s-2.788-0.372-4.647,0.558s-3.717,8.364-2.045,20.074l1.487,0.186L157.575,167.644z"/>
	<path d="M303.3,127.372c0,0,0.99-0.744,2.23-0.496c1.239,0.248,1.982,0.991,1.734,2.23c-0.247,1.239-0.99,20.818-0.99,28.996
		s1.239,23.792,0.743,27.014c-0.497,3.222-2.479,6.691-7.931,7.187c-5.451,0.496-24.784-9.913-32.714-19.578l-1.487-5.948
		c0,0,11.154,11.152,18.092,15.613c6.94,4.461,13.383,6.443,15.365,6.196c1.984-0.248,5.948-2.478,5.948-5.948
		s-0.992-22.057-0.743-28.005c0.248-5.948,1.488-19.083,0.992-21.809c-0.495-2.726-1.982-2.23-1.982-2.23L303.3,127.372z"/>
	<path d="M279.508,147.694c0,0-0.743,9.418-1.487,13.879c-0.743,4.461-1.735,9.17,1.982,13.878c0,0,1.24,1.487,1.487,0.248
		c0.248-1.239-1.487-5.204-1.487-9.17c0-3.965,3.222-12.143,2.23-17.596L279.508,147.694z"/>
	<path d="M279.26,158.846c0,0-4.214,3.47-6.196,8.426c0,0-1.735,2.974,0,1.487s4.461-4.213,5.701-4.709
		C280.003,163.555,279.26,158.846,279.26,158.846z"/>
	<path d="M218.789,153.89c0,0,9.17,37.175,11.401,44.61s7.435,27.756,7.435,28.5s0,2.232,1.982,1.735
		c1.984-0.495,33.954-8.427,35.441-8.674c1.487-0.248,4.956-0.001,4.708-1.984c-0.247-1.982-13.383-47.335-15.117-55.266
		c-1.735-7.93-6.196-18.34-7.932-19.579c0,0-1.239,0.991-0.495,2.23c0.743,1.239,4.956,15.613,6.196,21.066
		c1.239,5.452,14.126,50.061,14.126,50.061s-34.449,8.674-35.193,8.922c-0.743,0.248-20.074-70.631-20.074-70.631L218.789,153.89z"
		/>
	<path d="M254.476,202.713c0,0,13.879-3.718,18.092-3.718l1.239,0.991c0,0-12.886,1.983-18.339,3.47l0.743,2.726
		c0,0,13.88-3.717,17.1-3.965l0.743,1.239l-18.836,4.956l-1.734-4.461C253.486,203.951,252.989,203.456,254.476,202.713z"/>
	<path d="M237.376,152.898c0,0,3.966,3.717,4.709,4.461c0.743,0.743,0.497,0.743,0,1.735c-0.495,0.991-7.683,16.852-7.683,16.852
		l-1.734-1.735c0,0,6.257-14.436,7.187-15.366s-2.479-3.222-2.479-3.222V152.898z"/>
	<path d="M230.189,170.742c0,0,11.896,10.905,12.639,11.648c0.743,0.743,1.735,1.487,1.735,3.222s-3.471,37.67-3.471,38.91
		c0,1.239-1.239-2.727-1.239-2.727s1.735-34.448,2.23-35.191s0-1.239-0.992-2.726c-0.99-1.487-8.178-7.931-9.912-10.161
		C229.446,171.485,230.189,170.742,230.189,170.742z"/>
	<path d="M171.453,217.334c0,0-19.083-9.541-32.838-11.585c-13.755-2.045-24.411,4.646-29.12,13.072
		c-4.709,8.427-3.717,19.579,6.691,39.158c10.409,19.578,40.892,47.584,40.892,47.584s0.743-1.984-0.248-3.471
		s-24.783-24.782-32.466-36.926c-7.683-12.144-14.87-28.5-14.126-39.405c0.743-10.904,16.109-17.843,24.039-17.596
		s28.996,8.922,33.457,9.666C172.197,218.574,175.171,218.821,171.453,217.334z"/>
	<path d="M158.318,237.905c0,0,9.666,15.117,23.296,22.552s25.774,11.401,28.748,14.126l1.239,1.984c0,0-7.436-4.461-15.614-6.94
		s-21.065-7.435-29.492-16.852C158.07,243.356,155.84,239.887,158.318,237.905z"/>
	<path d="M199.707,152.155c0,0-18.092,25.775-33.953,63.94l-1.983-0.743c0,0,17.843-40.892,32.961-62.949L199.707,152.155z"/>
	<path d="M182.606,153.394c0,0-2.974,1.735-3.717,1.983s-1.239,0.496-0.743,1.239s4.957,7.435,4.957,7.435l-2.726,0.743
		c0,0-3.965-6.443-4.709-7.187c-0.743-0.743-1.983-1.735,0.248-2.974c2.23-1.239,6.196-3.717,6.196-3.717L182.606,153.394z"/>
	<path d="M188.802,161.572c0,0-0.496,1.983-2.23,2.23c-1.735,0.248-14.374,3.717-14.374,3.717s-0.743,0.991-0.743,1.735
		s-6.691,43.618-7.187,44.858c-0.496,1.239-2.726,0.743-2.726,0.743s7.435-43.867,7.683-45.354s-1.239-2.478,0.496-3.222
		C171.453,165.538,188.802,161.572,188.802,161.572z"/>
	<path d="M190.103,215.228c0,0-0.372-4.461,0-7.993c0,0,18.03,0.929,19.145,1.115s-0.372,8.179-0.372,8.922l1.487,0.558
		c0,0,0.743-9.48,0.743-10.223c0-0.743-0.743-0.558-1.673-0.929s-19.331-1.301-19.888-1.487c-0.558-0.186-0.929,0.186-1.115,1.301
		c-0.186,1.115-0.186,6.134-0.186,7.621s0.372,2.045,0.929,2.045S190.103,215.228,190.103,215.228z"/>
	<path d="M188.43,214.856c0,0,20.074,1.859,21.004,1.859s0,1.673,0,1.673s-19.888-1.859-21.004-2.045
		C187.315,216.158,188.43,214.856,188.43,214.856z"/>
	<path d="M216.187,207.545c0,0,0.868,1.364,0.868,4.089c0,2.726-0.62,5.329-0.868,5.948c-0.248,0.62,2.85,0.992,3.717,0.62
		c0.868-0.372,0.868-8.303-0.123-10.162c0,0-0.743-0.743-0.743-0.248s0.619,6.692,0.123,9.417l-1.362-0.248
		c0,0,1.239-5.204-0.372-8.922l1.116-0.123c0,0,0.867-0.497-0.497-0.62C216.683,207.174,216.187,207.05,216.187,207.545z"/>
	<path d="M222.011,208.165c0,0,1.115,3.841-0.248,9.789c0,0-0.495,0.743,0.248,0.867c0.743,0.125,3.346-0.123,4.089-0.247
		c0.743-0.125,2.726-5.948,0.495-10.038c0,0-3.097-0.619-3.593-0.619c-0.497,0-0.125,0.619,0.247,0.867s2.23,0.62,2.23,0.62
		s1.735,2.355,0,8.178h-2.106c0,0,0.867-5.576,0.247-8.178C223.003,206.802,222.011,208.165,222.011,208.165z"/>
	<path d="M185.704,205.066c0,0-2.726,3.222-1.611,10.78c0,0-2.478,0-3.346-0.247c-0.867-0.248-2.602-5.701,0.496-11.525
		c0,0-0.124-0.248,0.867-0.124c0.991,0.124,2.726,0.496,2.726,0.496l-0.248,0.619l-2.602-0.248c0,0-2.107,3.222-0.62,9.666
		l1.239,0.123c0,0,0.496-7.93,1.363-9.046C184.836,204.447,185.828,204.075,185.704,205.066z"/>
	<path d="M178.517,203.579c0,0-2.602,4.956-1.983,10.78c0,0-3.47,0-4.337-0.743s-1.239-5.947,1.859-10.284c0,0,3.222-0.124,3.594,0
		s-0.496,1.239-0.496,1.239l-2.726-0.124c0,0-2.355,2.974-1.487,8.179c0,0,1.611,0.62,1.983,0.495
		c0.372-0.123,0.62-6.939,1.859-9.17C176.782,203.951,178.517,202.836,178.517,203.579z"/>
	<path d="M275.791,218.574c0,0-2.23,33.457-4.461,53.16s-8.178,71.747-8.178,71.747l-1.859-5.576c0,0,7.063-59.851,7.435-67.658
		c0.372-7.807,3.346-50.186,3.346-50.186L275.791,218.574z"/>
	<path d="M197.352,268.76c0,0,7.435,24.907,17.1,44.981c9.666,20.074,21.933,37.175,21.933,37.175l-1.487,3.717
		c0,0-10.781-17.1-19.703-33.085s-21.561-53.532-21.561-53.532L197.352,268.76z"/>
	<path d="M264.142,358.351c-1.237,0.961-9.912,2.974-18.834,1.734c-8.922-1.239-12.639-2.974-12.639-2.974s2.23-4.461,3.221-7.435
		c0.992-2.974,0.743-8.425-0.495-7.187c-1.239,1.24-1.982,2.23-1.982,2.23s0.99-1.734,1.734-3.717
		c0.743-1.982,2.727-0.497,3.222,1.239c0.495,1.735,0.743,8.675-2.479,13.136c0,0,4.461,1.982,11.152,2.477
		c6.691,0.497,14.375-0.495,15.118-0.99c0.743-0.497,0.495-0.745-0.992-1.984s-6.195-5.948-7.682-8.922s0.495-4.956,3.964-2.974
		c3.471,1.984,3.717,6.196,3.717,6.196s-0.743-1.487-2.477-2.974c-1.735-1.487-2.727,0.248-0.743,2.23
		c1.982,1.982,5.203,5.948,6.938,7.187C266.621,356.864,266.372,356.615,264.142,358.351z"/>
	<path d="M259.929,352.403c0,0,3.222-1.488,3.717-4.214c0.495-2.726-4.461-13.63-5.204-17.347s0.992-1.984,1.735,0.247
		c0.743,2.23,5.7,17.1,6.443,18.34c0.743,1.239-3.469,3.221-3.469,6.691L259.929,352.403z"/>
	<path d="M237.376,357.607c0,0-1.734,6.443-5.7,13.63c-3.966,7.188-5.204,8.922-5.7,11.649c-0.497,2.726,1.982,7.435,4.708,8.922
		c2.727,1.487,8.178,2.973,18.34,2.477c10.161-0.495,11.894-0.743,12.886-2.23c0.992-1.487,0.743-4.213,0.743-4.213
		s2.479-2.727,1.735-11.401c-0.743-8.674-4.213-17.596-4.213-17.596l-3.222,0.248c0,0,2.727,6.938,3.717,12.639
		c0.992,5.7,0.743,11.894-0.248,13.63c-0.99,1.735-8.921,2.479-16.109,2.479c-7.187,0-14.87-1.982-14.87-1.982l0.495,1.734
		c0,0,5.948,2.23,16.11,2.23c10.161,0,14.126-1.487,14.126-1.487s0.247,1.488-0.743,2.479c-0.992,0.992-19.331,1.239-23.792,0.248
		c-4.461-0.992-7.188-5.204-6.445-7.435c0.743-2.23,2.23-7.188,5.204-11.649c3.003-4.503,4.958-12.391,6.196-12.886
		C241.837,358.598,237.376,357.607,237.376,357.607z"/>
	<path d="M232.42,378.92c0,0,4.709-2.23,12.144-2.23s13.878,1.984,14.622,2.23c0,0,2.974-0.248,0.743-0.992
		c-2.23-0.743-9.417-2.23-12.639-2.974C244.068,374.211,234.404,374.459,232.42,378.92z"/>
	<path d="M166.745,251.288c0,0,4.709,31.227,5.204,33.457c0.496,2.23,2.726,5.451,3.222,6.691c0.496,1.239,2.23,3.469,1.735,4.956
		l3.717,1.735c0,0-0.248-3.469-1.983-5.453c-1.735-1.982-2.974-5.7-3.965-8.178c-0.991-2.479-3.718-23.295-3.965-28.996
		L166.745,251.288z"/>
	<path d="M176.162,294.162c0,0-1.239-0.247-2.974-1.982s-3.222,1.239,0.248,2.726s5.7,2.974,7.187,3.222
		c1.487,0.247-0.248,2.973-1.239,3.964c-0.991,0.992-22.305,9.417-23.792,11.152c-1.487,1.735-0.248-8.177-0.248-10.904
		c0-2.726,1.735-3.221,1.735-1.487c0,1.735,0.248,6.691,0.248,6.691s0.743,1.735,2.23,0.743s13.879-6.691,16.109-7.435
		c2.23-0.743,2.23-1.735-1.239-3.469c-3.47-1.735-2.973-1.487-4.461-3.966c-1.487-2.479-0.496-6.443,2.726-4.461
		S180.128,294.659,176.162,294.162z"/>
	<path d="M170.586,336.418c-1.487,0.743-19.145,15.428-21.375,15.985s-3.717-2.045-3.717-2.045c-2.974,0-5.39-0.929-5.948-2.602
		s2.045-4.275,4.089-6.691c2.045-2.416,7.621-13.941,9.108-18.401c1.487-4.461,4.461-11.152,4.461-11.152l4.089-1.859
		c0,0-3.346,7.435-5.39,11.896c-2.045,4.461-4.089,13.755-11.338,22.119c0,0-1.487,1.487-1.301,2.602s2.045,2.23,2.974,2.23
		s12.082-8.55,18.216-13.941c6.134-5.39,18.401-15.799,20.818-17.286c0,0,1.673-0.372,0.743,0.558
		c-0.929,0.929-18.401,15.056-20.446,17.1c-2.045,2.045-16.357,13.197-17.286,13.94s-0.558,2.416,0.372,1.859
		s20.26-16.171,21.933-17.286s16.543-13.197,17.286-13.94s-0.372-2.416-0.372-2.416s-0.372-3.532-3.16-7.807s-7.249-6.32-7.249-6.32
		l2.416-2.045c0,0,5.204,4.647,8.364,9.108s1.487,6.877,1.487,6.877s1.301,2.045,1.301,3.16s-3.717,2.974-3.717,2.974
		L170.586,336.418z"/>
	<path d="M159.805,310.953c0,0,2.045,1.673,6.877,0.929c4.833-0.743,7.993-3.903,7.993-8.178l2.416-0.743
		c0,0,1.301,6.506-7.435,9.851c-8.736,3.346-11.338-1.115-11.338-1.115L159.805,310.953z"/>
	<path d="M180.066,303.704c0,0-5.204,7.993,0.743,17.286l1.859-0.743c0,0-5.39-5.762-1.487-15.427L180.066,303.704z"/>
	<path d="M204.415,112.254c0,0,3.222-5.452,7.931-6.939s14.602,0.916,20.322,5.204c4.956,3.717,4.956,7.683,4.956,7.683l3.222-0.743
		c0,0-0.495-5.204-9.17-10.161c-8.674-4.957-16.604-5.452-21.561-3.222C205.159,106.306,202.432,111.758,204.415,112.254z"/>
	<path d="M207.141,107.049c0,0-1.239-3.717-7.683-4.213c-6.443-0.496-17.1,2.478-18.091,8.674l-1.735-1.487
		c0,0,1.983-6.196,10.161-8.178c8.178-1.983,17.596-0.743,19.083,3.717L207.141,107.049z"/>
	<path d="M129.88,109.652c0,0-6.134-9.294,1.115-19.145c0,0,11.152-6.134,21.747,5.39s0.372,21.375,0.372,21.375
		s-5.762,2.602-13.941-1.115l-2.23,2.602c0,0,9.108,4.461,17.658-0.186c0,0,6.134-6.506,4.275-15.427s-10.037-14.498-18.587-15.613
		s-12.639,2.788-12.639,2.788s-7.807,10.595,0.743,20.818L129.88,109.652z"/>
	<path d="M130.995,89.577v-2.416c0,0,7.249-3.717,16.914,0.558c9.665,4.275,13.197,14.126,13.197,18.773s-1.673,7.993-2.788,8.736
		c-1.115,0.743-3.717,2.602-3.717,2.602l-1.673,0.743c0,0,1.301,0.372,2.416,0.186c1.115-0.186,6.134-3.903,6.134-3.903
		s2.788-6.877,0-15.242s-9.851-13.569-18.03-15.242c-8.178-1.673-13.755,1.673-14.498,2.416c-0.743,0.743-0.929,4.089-0.929,4.089
		L130.995,89.577z"/>
	<path d="M128.95,86.789c0,0,4.647-4.089,5.576-4.833c0.929-0.743,14.684-3.532,23.792,6.32c9.108,9.851,7.063,20.818,6.691,21.747
		s-3.903,4.275-3.903,4.275l0.372-2.974l1.673-2.045c0,0,2.602-9.665-5.948-19.703c-8.55-10.037-21.375-6.32-21.375-6.32
		l-3.16,2.416L128.95,86.789z"/>
	<path d="M137.129,81.399c0,0,4.323-4.061,13.569-3.16c9.542,0.929,22.491,11.524,14.126,29.554l0.186-5.204
		c0,0,1.673-8.364-2.788-15.613s-16.729-7.621-21.004-5.576C141.218,81.399,138.244,82.142,137.129,81.399z"/>
	<path d="M218.914,29.912c0,0,0.929-5.576-4.275-7.807c-5.204-2.23-9.294,5.019-9.665,8.364c0,0-0.558,4.089,1.115,5.576
		l8.364,2.416C214.452,38.462,218.17,30.47,218.914,29.912z"/>
	<path d="M204.539,56.368c0,0-1.735-0.496-4.213,0.124c0,0-0.867-0.496,0.124-0.991c0.991-0.496,3.097-0.123,3.841,0.124
		C205.034,55.872,204.539,56.368,204.539,56.368z"/>
	<path d="M210.115,56.987c0,0,2.849,0.496,3.841,1.983c0,0,0.001,0.496-0.495,0.496s-2.23-1.487-3.346-1.859
		C209,57.235,210.115,56.987,210.115,56.987z"/>
	<path d="M230.933,40.879c0,0,9.417-7.435,27.014-1.239c0,0-0.001,0.991-1.24,0.743c-1.239-0.248-12.639-4.461-23.048,0.991
		L230.933,40.879z"/>
	<path d="M209.62,153.518c0,0-1.673,2.788-2.788,5.39c-1.115,2.602-1.301,10.037-1.115,12.268c0.186,2.23,0.558,5.204-0.929,9.108
		c-1.487,3.903-2.788,9.108-2.788,11.338s0.372,12.825,0.372,13.755s0,0.929,0,0.929l1.115,0.743c0,0-0.186-10.037-0.372-12.268
		c-0.186-2.23,0.372-7.807,1.859-11.71s2.045-6.691,1.859-13.755c-0.186-7.063-0.558-8.55,4.089-15.985L209.62,153.518z"/>
	<path d="M204.787,155.191c0,0-1.115,4.089-1.673,6.32s-1.673,4.833-1.487,7.063c0.186,2.23,0.372,6.506-0.929,9.851
		s-2.788,7.807-2.788,10.967c0,3.16-0.372,14.126-0.372,14.684s-0.186,2.416-0.186,2.416s-0.558,0.186-0.372-2.974
		s0.372-9.665,0.372-12.454s0.743-3.903,1.859-10.409c1.115-6.506,2.045-6.877,1.673-9.851s0.186-5.019,0.929-8.364
		c0.743-3.346,2.416-7.621,2.416-9.294S205.344,152.96,204.787,155.191z"/>
	<path d="M211.726,160.209c0,0,0.123-1.983,2.23-3.222s3.717,1.983-0.372,4.585c0,0-0.123,0.619,0.248,1.983
		c0.372,1.363-1.115,2.726-1.115,2.726s0.619,0.372-0.248,1.363c-0.867,0.991-1.487,0.743-1.487,0.743s1.239,1.611,1.115,3.098
		c-0.123,1.487-2.478,2.107-2.478,2.107s-0.743,0.248,0.124,0.62c0.867,0.372,4.461,1.859,4.833,3.098
		c0.372,1.239-3.47,3.965-3.47,3.965l0.619,0.619c0,0,2.23-3.842,4.213-1.859s-1.983,6.568-4.833,7.931c0,0-0.868,0.991,0.248,1.363
		c1.115,0.372,5.204,0,5.329,3.222c0.124,3.222-2.85,4.585-5.452,3.346c0,0-1.115,0-0.124,0.496c0.991,0.496,2.602,1.363,2.23,3.594
		c-0.372,2.23-4.585,3.47-7.187,1.487l-0.743,0.372c0,0,1.611-0.248,1.611,1.859c0,2.106-4.089,2.106-4.089,2.106l0.248,0.992
		c0,0,3.717-0.124,4.585-1.239c0.868-1.115,0.372-2.355,0.372-2.355s3.841,0.619,5.824-1.859s-0.248-4.089-0.248-4.089
		s4.213-0.496,4.213-4.833s-4.956-3.965-4.956-3.965s4.584-3.346,4.709-6.568s-2.602-3.098-2.602-3.098s0.62-0.62,0.62-1.735
		s-4.213-3.222-4.213-3.222s1.983-1.364,1.859-2.726s-1.115-1.983-1.115-1.983s1.983-0.496,1.611-2.85c0,0,1.611-1.487,0.743-4.213
		c0,0,2.601-1.611,2.354-4.461c-0.248-2.85-4.213-2.726-5.576,1.239C211.354,158.846,211.106,159.466,211.726,160.209z"/>
	<path d="M212.469,157.979c0,0,1.612-2.354-0.867-4.585l0.805-0.62c0,0,1.672,1.239,1.549,3.346L212.469,157.979z"/>
	<path d="M204.043,153.518c0,0-1.735,0.743-2.602,0.496c-0.868-0.248-2.477,0.619-2.85,2.23c-0.372,1.611,1.61,4.709,1.61,4.709
		s-1.363,0-2.478-0.496c-1.115-0.496-2.726,0.372-3.098,2.354c-0.372,1.983,0.867,3.841,3.717,4.585c0,0,0.371,0.743-0.124,0.62
		c-0.496-0.124-2.602-0.372-3.346,1.487c-0.743,1.859,3.222,3.965,3.222,3.965s-0.743,0-1.115,0.743
		c-0.372,0.743,0.991,1.487,0.991,1.487s-2.23-0.868-3.222,0.867c-0.991,1.735,0.867,3.222,2.23,3.594c0,0-0.868,0-0.991,0.867
		c-0.124,0.867,0.743,1.363,0.743,1.363s-3.346,0-3.841,1.735c-0.496,1.735,2.478,4.461,2.478,4.461s0.124,1.859-0.62,1.735
		c-0.743-0.124-1.983,0.62-2.974-0.372c-0.991-0.991-3.345-1.859-4.585,0.743c-1.239,2.602,1.115,6.692,3.965,7.311
		s3.346,0,3.222,0.619c-0.124,0.62-1.487,1.239-1.239,2.478s1.982,1.61,2.85,0.619c0,0-1.239,0.868-1.363,2.107
		c-0.124,1.239,1.735,2.23,1.735,2.23l-1.239,0.372c0,0-1.363-1.24-1.611-2.107s0.248-1.115,0.248-1.115s-1.61-0.247-2.106-1.61
		s0.991-2.23,0.991-2.23s-4.337-0.001-6.567-4.585c-2.23-4.585,1.115-7.435,2.85-7.311s3.098,1.487,3.717,1.735
		c0.62,0.248,1.363,0.372,0.743-0.372c-0.619-0.743-2.355-2.85-1.859-4.956c0.496-2.107,3.346-2.23,3.346-2.23s-0.743-0.991,0-1.487
		c0,0-1.983-1.859-1.239-3.717c0.743-1.859,2.107-1.611,2.107-1.611s-0.743-0.991,0.124-1.487c0,0-2.85-1.735-2.354-3.717
		c0.496-1.983,2.354-2.23,2.354-2.23s-3.222-1.735-2.478-5.328c0.743-3.594,5.081-2.354,5.081-2.354s-2.726-2.106-0.743-4.833
		c1.983-2.726,5.7-2.23,5.7-2.23S204.539,152.279,204.043,153.518z"/>
	<path d="M200.945,144.72c0,0-3.717-1.115-6.196-0.991c0,0,0.248,0.867,1.363,0.867s4.336,0.496,4.832,1.735
		s1.487,0.372,1.239-0.743C201.937,144.472,200.945,144.72,200.945,144.72z"/>
	<path d="M200.698,147.074c0,0-0.248,1.115-1.983,1.859c-1.735,0.743-3.47,0.619-3.47,0.619s-0.248,0.62,1.239,0.62
		s4.214,0,4.709-1.239C201.689,147.694,200.698,147.074,200.698,147.074z"/>
	<path d="M213.337,145.525c0,0,3.222-0.682,4.708-1.177c1.487-0.496,3.966-0.62,4.709-0.372s0.124,0.372-0.495,0.372
		c-0.62,0-7.683,1.859-8.551,2.726C212.841,147.942,212.965,146.083,213.337,145.525z"/>
	<path d="M213.833,148.19c0,0,0.868,0.867,3.346,1.239s4.337,0,4.337,0s-0.373,0.372-1.24,0.743
		c-0.867,0.372-5.081,0.991-6.691-0.372C211.974,148.437,212.346,147.942,213.833,148.19z"/>
</g>
<g>
	<polygon fill="#FFFFFF" points="603.372,149.685 593.892,151.916 571.216,183.142 558.576,209.165 572.703,219.76 610.063,222.176 
		637.945,218.087 644.45,197.083 629.766,154.89 620.101,149.685 	"/>
	<path fill="#B6CBD8" d="M629.27,388.47c0,0,2.602,3.594,5.204,4.709c2.602,1.115,15.49,1.362,18.216,1.115
		c2.727-0.248,7.435-0.497,8.178-2.23c0.744-1.735,0.744-4.338,0.744-4.338l-4.584-3.594l-24.784-0.743L629.27,388.47z"/>
	<path fill="#FFFFFF" d="M638.688,359.351c0,0-4.958,10.904-6.816,15.117c-1.859,4.214-3.716,8.055-4.213,9.665
		c-0.495,1.612,0.867,3.471,0.867,3.471s4.956,1.982,13.011,2.106c8.055,0.125,16.357-0.619,16.357-0.619s4.584-0.123,5.204-6.196
		c0.62-6.071-3.717-19.083-4.708-23.543C657.399,354.89,639.804,354.146,638.688,359.351z"/>
	<path fill="#B6CBD8" d="M546.99,349.685c0,0-0.123,1.239,0.496,2.354s1.487,0.619,2.478-0.248s17.1-13.383,17.1-13.383
		l18.835-14.745l3.346-3.099l-0.62-3.346l-1.239-3.346l-34.82,21.933L546.99,349.685z"/>
	<path fill="#FFFFFF" d="M558.886,313.006c0,0-5.452,12.886-6.939,16.48s-5.576,12.019-8.178,14.126s-2.974,3.222-0.744,5.453
		s4.461,0.62,4.461,0.62l13.878-11.152l14.994-12.393l9.542-7.682l2.23-2.602c0,0-1.487-5.701-6.32-10.162s-6.815-4.336-6.815-4.336
		l-15.861,10.161L558.886,313.006z"/>
	<path fill="#F7CB9B" d="M559.878,310.032l-0.124,2.974c0,0,2.602,2.974,9.541,0.123c6.939-2.849,7.064-7.683,6.444-9.665
		s-9.79-0.495-9.79-0.495L559.878,310.032z"/>
	<path fill="#F9B000" d="M543.273,209.165c0,0-8.426-3.966-21.313,0.991c-12.887,4.957-13.135,16.357-13.383,22.058
		c-0.248,5.7,9.17,26.766,14.87,35.688s32.962,35.935,32.962,35.935l0.496,7.746l3.903-1.301c0,0,16.357-7.807,16.914-7.993
		s1.301-3.16,1.301-4.275s-0.929-4.647-2.416-5.576s-1.859-4.089-1.859-4.089l-3.16-15.985l-2.416-15.613l1.115-2.23
		c0,0,11.152,10.967,25.651,15.242c0,0,6.877,21.19,10.037,28.81s11.71,26.208,16.729,34.015s13.383,21.004,13.383,21.004
		l-1.115,3.346c0,0,6.506,3.16,15.056,3.532s13.94-2.602,13.94-2.602l-1.673-2.974c0,0,4.647-2.23,2.602-6.691
		s-2.602-8.736-2.602-8.736l4.833-38.29l4.089-48.513l3.532-31.97l-2.788-5.204l-44.424-1.673L596.31,211.4l-30.669-4.647
		L543.273,209.165z"/>
	<path fill="#F9B000" d="M620.844,156.562l8.736,32.9l6.506,28.067l3.717,10.781l33.085-8.736l5.576-1.301l-7.063-25.465
		l-5.762-21.004c0,0,10.781,8.178,15.242,11.896s13.383,8.736,19.331,7.621c5.948-1.115,5.204-7.993,5.204-11.152
		c0-3.16,0-26.208,0-26.208l0.744-20.818l-0.929-2.974l-4.089-0.743l-47.955-2.416l-36.617,9.851L620.844,156.562z"/>
	<path fill="#F9B000" d="M581.067,132.213c0,0-5.019,0.186-11.71,3.532c-6.691,3.346-15.799,7.621-15.799,7.621l-21.19,6.691h-9.108
		l-25.093,5.39l-1.673,4.833l4.089,14.498c0,0,2.23,3.903,12.825,5.948c10.595,2.045,32.714-1.487,32.714-1.487l6.134-1.115
		l-5.948,10.409h-1.487l-2.045,2.23l0.743,0.929l0.372,0.743l-8.364,15.799c0,0,16.914,2.416,29.554,8.551l13.755-29.926
		l16.729-28.81l3.16-6.134l-1.487-10.967L581.067,132.213z"/>
	<path fill="#13A538" d="M565.826,51.544c0,0,7.249-4.461,13.755-5.948l4.833-9.294c0,0,5.204-14.684,5.948-16.171
		s5.762-8.55,14.126-11.338s21.19,0.929,23.235,11.152c0,0,5.576-5.204,16.543-5.204s20.446,4.647,23.234,17.1
		s-0.744,26.952-0.744,26.952s6.877,7.621,12.825,15.799s6.506,14.126,6.506,14.126l-5.39,4.647L565.826,51.544z"/>
	<path fill="#CEE4C6" d="M565.64,53.031c0,0,4.877-4.15,18.278-0.496c10.904,2.974,13.383,10.904,21.313,12.887
		c6.788,1.697,23.978-1.239,45.168-0.496s28.253,5.204,32.156,14.87l4.213,9.665c0,0-3.717,11.4-5.453,17.844
		c0,0-16.852,3.965-18.834,5.452c-1.984,1.487-3.719,4.461,0.99,7.93c0,0-3.221,1.239-3.469,4.957c-0.248,3.718,2.974,5.7,2.974,5.7
		l-2.23,2.974c0,0-20.571,5.7-25.527,6.939c0,0-14.126,0-17.1,1.487s-9.913,2.478-15.613,1.487c-5.7-0.991-13.63-3.965-18.587-8.922
		s-19.827-22.305-21.066-23.544c-1.239-1.239-13.135-32.714-13.135-32.714S551.575,59.474,565.64,53.031z"/>
	<path fill="#C8D3D9" d="M540.299,82.399c0,0,5.576-4.337,15.49-0.867c9.913,3.47,13.754,18.959,9.417,24.039
		c-4.337,5.081-10.533-1.611-10.533-1.611L540.299,82.399z"/>
	<path fill="#93A7B2" d="M532.616,86.116l3.346-2.974c0,0,11.524-2.478,19.95,4.585c8.426,7.063,9.417,17.844,8.922,21.933
		c-0.496,4.089-6.443,2.974-6.443,2.974L532.616,86.116z"/>
	<path fill="#B6C0C6" d="M529.952,91.321v-3.346c0,0,5.019-4.461,17.286-0.558s14.684,17.844,14.684,17.844
		s-0.31,9.356-1.177,10.223s-5.576,3.098-5.576,3.098l0.124-1.115L529.952,91.321z"/>
	<path fill="#FFFFFF" d="M622.517,25.893c0,0-2.23-6.877-9.294-9.294c-7.063-2.416-14.87,2.974-18.587,10.409
		s-3.903,18.587-3.903,18.587l8.364,1.859l15.799-8.178C614.896,39.276,618.986,29.053,622.517,25.893z"/>
	<path fill="#FFFFFF" d="M622.889,40.577c0,0,3.346-11.524,10.223-15.056s17.658-3.346,23.42,2.788s2.974,20.818,2.974,20.818
		s-2.045,7.249-5.948,10.223c0,0-20.26-4.647-23.42-5.576S622.889,40.577,622.889,40.577z"/>
	<path fill="#00702F" d="M565.454,73.105l2.231-5.576c0,0,13.011,7.993,29.368,12.639s48.327,9.851,72.119,4.089l1.859,5.762
		c0,0-8.736,17.1-31.784,28.625c0,0-1.115-7.621-12.082-11.338c-10.967-3.717-17.101-2.045-18.774,0.186
		c0,0-3.532-6.506-15.242-4.461s-12.825,8.736-12.825,8.736s-5.576-10.595-7.807-15.056S565.454,73.105,565.454,73.105z"/>
	<path fill="#E30613" d="M580.324,111.767c0,0,2.231-6.134,11.71-8.55s15.799,2.974,16.357,4.275c0,0,3.903-4.833,15.056-1.487
		c11.152,3.346,15.056,8.922,15.799,12.639c0,0-13.011,6.877-23.792,9.665s-18.773-0.186-24.349-4.647
		C585.528,119.202,580.324,111.767,580.324,111.767z"/>
	<polygon fill="#E30613" points="613.781,46.711 611.365,46.154 600.956,50.429 574.933,27.195 613.781,39.276 663.038,47.269 
		661.737,48.384 619.172,53.217 	"/>
	<path fill="#13A538" d="M702.071,135.93c0,0-1.673,8.736-9.108,11.896s-11.71,1.487-16.357-1.301s-14.126-7.249-14.126-7.249
		s-1.487-2.602-1.115-3.903s1.115-4.275,1.115-4.275s-2.974-2.23-2.788-4.647s2.974-5.39,2.974-5.39s-1.487-1.673-1.487-5.39
		s7.063-5.204,7.063-5.204l14.312-3.346c0,0,0.744-16.171,7.621-24.349s10.966-10.223,17.472-7.621s6.877,7.807,5.762,10.409
		s-5.576,5.39-7.621,6.32s-5.948,4.833-7.993,12.082s2.788,13.569,2.788,13.569S702.815,130.726,702.071,135.93z"/>
	<path fill="#13A538" d="M532.926,129.239c0,0,2.974-3.346,2.045-5.576s-7.249-9.851-8.178-11.152
		c-0.929-1.301-5.762-5.019-11.152,0.558c0,0-1.301,0-5.39,1.487s-5.204,5.39-5.204,5.39s-3.717-2.602-9.108,6.134
		s-5.39,16.543-2.23,22.491c3.16,5.948,9.108,8.922,16.729,8.55s14.87-5.948,14.87-5.948s2.045,2.974,5.204,1.301
		c3.16-1.673,4.647-8.55,4.647-8.55s3.532-7.807,3.717-9.665C539.06,132.399,537.387,129.611,532.926,129.239z"/>
	<path fill="#BB833A" d="M589.06,207.492c0,0-12.825-1.487-19.331-2.23l-2.788,7.249c0,0,11.71,2.416,22.119,3.346V207.492z"/>
	<path fill="#BB833A" d="M610.249,209.35c0,0,16.543,1.859,24.35,2.045l1.673,7.807c0,0-15.427-0.558-26.394-1.673L610.249,209.35z"
		/>
	<path fill="#009FE3" d="M587.015,137.417c0,0-4.275-1.115-4.461,1.487s0,15.242,0,15.242s0.558,1.859,2.974,1.487
		s17.1-3.717,17.1-3.717s0.743,2.23,5.019,2.416c4.275,0.186,4.833-1.487,4.833-1.487s12.826,4.461,16.357,5.762
		s8.364,2.974,8.364-0.372s-0.744-11.71-0.744-11.71l-0.186-5.019c0,0-1.115-1.301-3.903-1.115
		c-2.788,0.186-13.383,2.416-14.498,2.788c-1.116,0.372-4.647,0.929-4.647,0.929s-6.568,0.248-10.719,0.124
		C598.353,144.109,589.989,140.391,587.015,137.417z"/>
	<path fill="#C8D3D9" d="M529.58,111.953c0,0-8.178-12.454,0.743-21.375c0,0,10.037-5.019,20.632,3.16s8.55,20.446,3.346,24.721
		s-16.357-0.558-16.357-0.558s2.974-4.089-0.372-7.435C534.227,107.12,530.695,109.908,529.58,111.953z"/>
	<path fill="#C8D3D9" d="M528.093,113.626l4.089-3.903c0,0,3.346-1.487,6.32,1.859s0.558,6.506,0,6.691s-4.461,4.461-4.461,4.461
		L528.093,113.626z"/>
	<path fill="#C8D3D9" d="M505.788,134.629l-13.755,14.126l-0.743,3.532c0,0,4.151-0.496,5.514,0.496
		c1.363,0.991,1.611,2.355,1.115,2.478s-3.841,1.239-3.841,1.239s1.983,2.355,3.594,3.594s3.594,0.868,5.948-1.611
		c2.354-2.478,12.763-16.109,12.763-16.109L505.788,134.629z"/>
	<path fill="#A6AEB3" d="M491.352,152.907c0,0,0.372-3.346,0.743-3.717c0.372-0.372,3.222-1.983,7.807,1.239
		c4.585,3.222,4.337,7.435,4.337,7.435l-2.478,2.354c0,0-7.311,0.372-7.807-3.222L491.352,152.907z"/>
	<path fill="#F9B000" d="M576.978,205.075l-2.695-0.093c0,0-3.346,3.81-1.673,9.015l1.208,0.743l1.859-0.279
		C575.677,214.462,576.513,207.213,576.978,205.075z"/>
	<path fill="#F9B000" d="M581.625,205.261c0,0-2.416,4.461-0.558,10.688l2.23,0.186c0,0-0.186-6.32,1.766-10.13L581.625,205.261z"/>
	<path fill="#F9B000" d="M616.941,208.886c0,0,1.58,4.554,0,9.387l2.881,0.279c0,0,0.558-6.227-0.465-9.573
		C619.357,208.979,617.127,208.421,616.941,208.886z"/>
	<path fill="#F9B000" d="M622.889,209.443c0,0,0.372,5.67-0.279,9.48h3.346c0,0,2.138-5.112,0.186-8.736L622.889,209.443z"/>
	<polygon fill="#662483" points="589.741,207.553 589.369,210.652 589.494,216.6 601.513,217.839 609.072,218.459 609.878,217.529 
		610.683,209.536 609.692,208.421 598.291,207.678 590.237,206.934 	"/>
	<g>
		<path fill="#ADCCA5" d="M675.841,70.295c-7.458-3.981-19.075-5.232-24.101-5.598c0.675,0.868,1.29,1.809,1.818,2.832
			c5.576,10.781-2.602,17.844-2.602,17.844s15.985,0.743,18.216-1.115l1.859,6.691c0,0-13.011,17.844-28.996,27.509
			c0,0-3.717,14.498-9.665,21.933l3.903,1.115c0,0,19.02-4.461,26.208-10.409c0,0-3.469-3.222-2.479-5.948
			c0.992-2.726,2.665-4.089,2.665-4.089s-2.665-4.09-1.178-6.568s4.709-2.974,4.709-2.974l16.109-4.957l3.966-16.357
			C686.272,90.206,680.446,76.809,675.841,70.295z"/>
		<path fill="#009338" d="M674.128,68.149c-4.709-4.957-25.03-12.144-41.016-13.259c0,0,12.182,1.524,18.628,9.808
			c5.026,0.366,16.643,1.617,24.101,5.598C675.246,69.451,674.668,68.717,674.128,68.149z"/>
	</g>
	<path fill="#009338" d="M648.105,16.352c0,0,11.648,5.452,11.401,8.922c-0.248,3.47-2.974,3.036-2.974,3.036
		s6.195,7.868,3.717,17.782l2.788,1.177l-3.036,1.549c0,0-2.974,7.435-6.443,10.656l1.239,2.726l20.323,5.204l-8.922-8.426
		c0,0,2.726-16.852,1.734-26.022C666.941,23.787,660.25,14.865,648.105,16.352z"/>
	<path fill="#009338" d="M612.913,9.165c0,0,3.469,2.23-2.974,6.691c0,0,8.922,1.239,12.392,10.904l5.39-6.815
		C627.722,19.945,625.801,9.908,612.913,9.165z"/>
	<path fill="#E78F00" d="M682.801,150.924c0,0,3.471,1.735,6.94,2.23s7.435,3.965,7.93,9.913c0.497,5.948,0.992,19.579-1.239,21.809
		c-2.23,2.23-6.196,2.726-6.196,2.726s2.479,2.478,7.932,3.222c5.451,0.743,8.425-2.479,7.682-7.187
		c-0.743-4.709-0.495-29.74-0.495-33.953s0.867-15.49,0.806-16.543c-0.063-1.053-2.788-3.284-2.788-3.284s-0.745-0.744-1.24,1.735
		c-0.495,2.478,0.992,9.17-4.956,13.631s-15.862,3.47-15.862,3.47S680.571,149.933,682.801,150.924z"/>
	<path fill="#E78F00" d="M640.919,140.515c0,0,11.152-1.487,14.622,0.248c3.469,1.735,18.092,13.135,19.331,14.374
		s0.992,5.7,0.248,7.435c-0.743,1.735-2.479,6.196-2.479,6.196l7.435-6.939l1.239-13.135c0,0-11.399-4.957-14.622-6.691
		c-3.222-1.735-4.956-1.735-4.956-4.709s-1.24-3.717-1.24-3.717S643.644,138.285,640.919,140.515z"/>
	<path fill="#E78F00" d="M676.11,165.546c0,0-2.974,2.974-0.743,6.691c2.23,3.717,5.701,4.956,5.701,4.956s-2.727-6.443-2.727-8.178
		s0-6.443,0-6.443L676.11,165.546z"/>
	<path fill="#E78F00" d="M656.284,145.72c0,0,3.717,28.253,4.461,35.192c0.743,6.939-0.992,14.622-0.992,14.622
		s-2.23,2.23-0.99,2.23c1.239,0,1.239,4.461-0.248,5.205l3.469-0.743c0,0,0.992,4.213,0.248,4.213s-2.974,0.496-2.23,0.496
		c0.743,0,2.23,5.453,0.743,15.365l17.72-4.027l-10.781-38.104l-7.932-28.005C659.753,152.164,657.524,146.711,656.284,145.72z"/>
	<path fill="#E78F00" d="M552.691,177.442c0,0,20.57-32.218,21.313-32.714s-2.478-0.248-5.452,2.974s-7.931,9.417-7.435,7.93
		c0.496-1.487,2.726-4.213,0-4.956s-3.717,2.726-4.461,5.452s-7.931,7.93-14.126,8.922c-6.195,0.991-8.922,2.231-9.665,1.239
		c-0.743-0.991-1.487-6.196-1.983-6.939s-0.991-5.452-1.735-1.487c-0.743,3.965-0.991,9.417-3.717,11.648
		c-2.726,2.23-9.418,2.726-10.409,1.239c-0.991-1.487-3.717-13.631-3.717-13.631l-5.948,0.496l-3.222,3.222l-5.638-0.558
		c0,0,3.159,12.454,7.373,17.162c4.213,4.709,18.092,3.717,23.296,3.717S552.691,177.442,552.691,177.442z"/>
	<path fill="#EC9700" d="M636.272,219.202l-9.728-0.868l-0.588,0.59l-3.439,0.465l0.186-0.929l-2.881,0.093l-0.465,0.093
		l-1.859-0.186l-0.558-0.186l-3.903-0.743h-3.16c0,0,0.062,1.796-0.929,1.548c-0.991-0.247,24.164,10.162,28.625,15.738
		s9.294,21.561,10.409,43.866s1.859,45.353,2.974,47.212s-2.974,3.346-1.859,4.833s2.602,9.294,1.859,12.268
		c-0.744,2.974-5.204,2.602-2.602,6.32s3.346,9.665-0.372,10.037c0,0,5.328,0.247,9.789,0.247s6.691-0.495,6.196-1.734
		c-0.497-1.24-1.673-2.974-1.673-2.974s2.788-4.709,2.602-6.691c-0.186-1.984-2.665-7.932-2.665-7.932l5.7-48.822l6.073-72.242
		l-34.201,9.108L636.272,219.202z"/>
	<path fill="#EC9700" d="M557.647,240.639c0,0-13.63-7.187-16.357-8.674c-2.726-1.487,1.239,3.469,5.452,11.401
		c4.213,7.93,16.604,29.988,18.339,34.696c1.735,4.709-1.487,5.204,0.991,9.914c2.478,4.708,4.461,9.417,4.708,10.656
		c0.248,1.24,0.248,6.196,0.248,6.196s7.435-1.982,7.683-3.469s0-2.727,0-2.727s0.991-3.717-0.743-4.708
		c-1.735-0.992-2.478-2.727-2.478-2.727l-3.222-13.383l-3.222-24.535L557.647,240.639z"/>
	<path fill="#EC9700" d="M610.683,276.575c0,0-10.408-8.425-14.126-9.665c-3.717-1.239-22.553-12.393-29.244-21.066
		c-6.691-8.674-23.296-15.862-28.748-19.331c-5.452-3.469,2.23,5.701,5.204,10.657s10.656,8.922,10.656,8.922
		s14.87,6.691,16.357,9.17c1.487,2.477,11.648,9.169,18.835,11.896C596.804,269.883,608.7,275.088,610.683,276.575z"/>
	<polygon fill="#EC9700" points="641.105,160.094 644.45,162.696 636.83,178.495 633.112,176.079 	"/>
	<path fill="#EC9700" d="M636.83,177.194c0,0,9.294,7.435,10.409,8.922s-5.948,41.078-6.691,41.636s-0.743-2.045-0.743-2.045
		s4.089-39.034,3.532-39.777c-0.558-0.743-2.602-3.717-2.602-3.717l-6.134-5.204C634.599,177.008,634.413,174.406,636.83,177.194z"
		/>
	<polygon fill="#EC9700" points="576.978,158.855 574.5,160.59 578.217,165.546 581.439,164.555 	"/>
	<path fill="#EC9700" d="M570.782,170.007c0,0-3.965,1.239-5.204,2.23c-1.239,0.991-1.239,0.991-0.991,1.735
		c0.248,0.743-3.717,39.9-3.717,39.9s1.239,1.735,1.735,0.497C563.1,213.129,570.782,170.007,570.782,170.007z"/>
	<path fill="#E3E3E3" d="M594.636,166.785c0,0-9.851,19.331-10.223,20.818s-4.461,11.71-4.833,12.825
		c-0.372,1.115-0.929,5.948-0.929,5.948l-1.301-0.186l-0.372-1.115l-2.695-0.093l-0.836,1.022l-3.16-0.743
		c0,0,12.825-25.836,15.427-32.528c2.602-6.691,7.249-12.082,7.249-12.082l3.903-4.833c0,0,1.115,2.416,1.487,3.532
		c0.372,1.115,0.929,1.859,0.929,1.859s-3.16-0.929-4.647,1.115C593.149,164.369,594.636,166.785,594.636,166.785z"/>
	<path fill="#E3E3E3" d="M614.524,154.146l1.673,3.717c0,0,3.16,0.743,2.045,2.788c-1.116,2.045-2.417,3.346-2.417,3.346
		s0.929,0.929,0,1.859c-0.929,0.929,1.115,1.859-0.186,3.346c-1.301,1.487-1.673,2.416-1.673,2.416s3.532,0.558,2.416,2.23
		c-1.115,1.673,1.859,2.23,0.929,3.717c-0.929,1.487,2.045,1.673,0.186,5.948s-0.186,5.39-0.186,5.39s4.647,1.301,1.116,5.948
		c-3.532,4.647-2.788,4.089-2.788,4.089s-2.045,4.461-3.532,5.39s-0.186,2.974-0.186,2.974l0.558,2.788h-1.673l-1.673-2.045
		l-4.833,0.372l0.372-17.1l2.602-25.836l2.974-10.967C610.249,154.518,611.736,151.172,614.524,154.146z"/>
	<path fill="#FFFFFF" d="M603.837,153.867c0,0-2.788,0.651-3.81,0.743c-1.022,0.093-2.138,1.394-2.045,2.881
		s1.301,3.717,1.301,3.717s-3.16-1.58-4.647,1.115s0.186,5.019,2.045,5.948c0,0-2.416,0.929-2.602,2.509s2.602,3.346,2.602,3.346
		s-1.208,1.022,0,1.952c0,0-2.323,0.186-2.509,2.138s1.859,2.695,1.859,2.695s-1.301,0.929-0.279,2.045c0,0-2.138-0.186-3.253,1.673
		s2.045,5.483,2.045,5.483s0.743,1.673-1.394,0.651c-2.138-1.022-2.881-1.58-4.74-1.022s-3.16,3.253-1.022,6.784
		c2.138,3.532,5.948,3.439,5.948,3.439s-2.974,2.788,0.929,3.81c0,0-0.372,2.138,1.115,3.067s2.788,1.115,2.788,1.115l6.134-0.279
		c0,0,4.275-1.022,3.346-3.996c0,0,4.089,1.022,5.762-1.394s-0.929-4.647-0.929-4.647s4.74,1.115,4.74-3.625
		s-5.204-4.089-5.204-4.089l1.58-1.673c0,0,3.625-3.067,3.439-5.762c-0.186-2.695-2.788-2.23-2.788-2.23s1.859-1.673,0.279-2.974
		s-4.089-2.323-4.089-2.323s1.859-0.743,2.138-2.23s-0.836-2.974-0.836-2.974s2.138-0.929,1.673-2.602c0,0,1.859-1.859,0.836-4.275
		c0,0,2.416-1.301,2.23-3.903c-0.186-2.602-2.416-2.045-2.788-1.394c0,0-0.465-3.346-2.138-3.625s-4.74,0.186-4.74,0.186
		L603.837,153.867z"/>
	<path fill="#E3E3E3" d="M649.344,360.838c0,0,0.497,5.7-0.495,9.665c-0.992,3.964-2.974,5.7-2.974,5.7l-0.495,1.239
		c0,0,3.469,1.984,3.717,6.196c0.247,4.213-2.479,5.451-4.709,5.7c0,0,8.674,0.248,12.391-0.247
		c3.717-0.497,7.435-2.479,6.691-8.922c-0.743-6.445-4.708-20.323-4.708-20.323L649.344,360.838z"/>
	<path fill="#E3E3E3" d="M564.587,314.244c0,0,5.452,0.992,6.939,0.992s4.461,5.453,3.222,8.427s-26.766,22.8-27.757,23.543
		s-4.709,1.982-4.709,1.982s3.717,1.488,4.461,0.992c0.744-0.495,40.397-31.722,40.892-32.714s0.496-5.7-2.974-9.665
		c-3.47-3.966-8.178-5.453-8.178-5.453l-0.248,1.984C576.234,304.332,576.73,313.006,564.587,314.244z"/>
	<path fill="#A7B4BB" d="M540.547,113.006c0,0,10.657,0.744,17.1-7.683c0,0,1.982,10.161-3.965,13.63
		c-5.948,3.47-14.622-1.239-14.622-1.239L540.547,113.006z"/>
	<path fill="#A7B4BB" d="M561.613,86.736c0,0,0.991,4.461-0.743,6.939c0,0,3.47,6.816,3.717,11.4c0,0,1.983-5.452,1.239-10.904
		c-0.743-5.452-3.222-8.427-3.717-7.931S561.613,86.736,561.613,86.736z"/>
	<path fill="#A7B4BB" d="M558.143,104.084l2.23-2.23c0,0,2.23,8.426,0.372,13.631c0,0-4.833,3.222-6.32,3.222
		C554.425,118.706,559.382,114.245,558.143,104.084z"/>
	<path fill="#FFFFFF" d="M535.59,89.958c0,0-7.931,6.691-3.965,19.579l2.23,0.248c0,0-2.23-11.648,6.939-20.074
		C540.795,89.71,537.573,89.71,535.59,89.958z"/>
	<path fill="#FFFFFF" d="M548.973,84.01c0,0,4.213-2.23,7.435-1.735l-2.478-0.991c0,0-6.939-0.248-10.161,1.487L548.973,84.01z"/>
	<polygon fill="#FFFFFF" points="545.194,83.328 543.149,85.745 538.316,85.559 540.919,82.585 	"/>
	<polygon fill="#FFFFFF" points="538.316,85.559 535.9,88.904 540.795,89.71 543.707,86.302 	"/>
	<path fill="#A7B4BB" d="M537.821,113.006l-6.444,5.948l2.726,2.478l4.957-4.709C539.06,116.723,541.291,114.741,537.821,113.006z"
		/>
	<path fill="#A7B4BB" d="M505.603,136.302c0,0,0,1.239,2.478,3.965c2.478,2.726-6.196,11.896-6.196,11.896l2.974,3.965
		l11.524-13.755l-9.789-7.559C506.594,134.815,503.868,134.815,505.603,136.302z"/>
	<polygon points="613.246,46.688 601.549,52.087 570.056,25.093 614.146,38.29 672.333,47.588 618.644,55.086 611.447,46.088 
		612.946,45.188 619.244,51.787 660.935,47.588 613.546,40.09 577.254,28.692 601.249,48.787 611.447,44.589 	"/>
	<path d="M687.262,90.206c-3.469-20.322-19.331-31.227-19.331-31.227c6.691-29.74-2.974-40.397-14.622-44.114s-20.57,0-27.261,5.948
		s-12.144,18.34-12.144,18.34l1.735,0.248c0,0,4.066-10.587,12.143-17.1c7.683-6.196,19.383-10.224,31.723-0.248
		c11.648,9.417,6.443,30.483,4.708,35.935c0,0,20.076,18.092,21.81,37.423L687.262,90.206z"/>
	<path d="M626.296,21.556c0,0-1.115-9.692-12.639-12.143c-11.648-2.478-22.553,7.683-26.518,21.561l-1.735-0.496
		c0,0,2.974-13.135,13.383-20.074s25.775-3.717,30.236,8.922L626.296,21.556z"/>
	<path d="M585.156,36.922l-3.717,9.17c0,0-0.743,0.743-1.983,0.991c-1.239,0.248-25.527,5.7-28.005,32.714l-3.222,0.248
		c0,0,0.495-11.401,8.426-22.057s21.561-13.135,21.561-13.135s5.204-8.179,5.452-9.17C583.917,34.692,585.156,36.922,585.156,36.922
		z"/>
	<path d="M567.56,66.414c0,0,38.91,27.262,101.363,16.605l0.744,2.23c0,0-59.479,10.656-102.354-17.596L567.56,66.414z"/>
	<path d="M628.775,53.031c0,0,10.409-0.991,29.491,8.178c0,0-19.083-5.948-33.209-7.187L628.775,53.031z"/>
	<path d="M597.548,46.339c0,0-3.965-1.487-11.152-0.743c0,0,7.684,0.991,12.64,3.717L597.548,46.339z"/>
	<path d="M623.322,40.639c0,0,5.838-20.037,23.792-16.605c16.852,3.222,11.896,22.057,11.896,22.057l2.23,0.496
		c0,0,2.974-20.818-13.63-23.544c-16.605-2.726-24.288,9.914-25.775,17.596H623.322z"/>
	<path d="M660.745,48.57c0,0-1.982,5.948-6.443,10.904h-0.992c0,0,4.461-4.709,5.204-10.409L660.745,48.57z"/>
	<path d="M593.583,32.957c0,0,0.495-4.957,5.452-11.153s18.092-8.178,22.8,5.452l1.239-0.743c0,0-1.982-8.922-11.151-10.656
		c-9.983-1.889-19.083,7.93-19.083,16.605L593.583,32.957z"/>
	<path d="M688.006,107.306c0,0-2.726-1.487-5.948-0.991c-3.221,0.496-17.842,4.461-19.083,4.709
		c-1.239,0.248-3.717,3.222-3.717,5.948s2.479,4.213,3.966,4.709s15.86,1.487,21.808,0.743c0,0-0.99-2.23-1.734-2.478
		c-0.744-0.248-15.118,0-17.597,0c-2.477,0-3.469-2.23-3.221-3.717c0.247-1.487,1.982-2.726,4.213-3.469s13.878-3.966,15.862-4.213
		C684.537,108.297,688.006,107.306,688.006,107.306z"/>
	<path d="M665.454,121.432c0,0-3.469,0.744-3.966,3.222c-0.495,2.478,0.248,4.709,3.222,6.196s15.612,5.7,16.604,6.196
		s1.735,2.726,1.735,2.726s-16.605-6.196-18.092-6.443c-1.487-0.248-6.94-2.231-6.691-6.939s2.974-5.7,3.717-6.196
		C662.727,119.697,665.454,121.432,665.454,121.432z"/>
	<path d="M704.859,72.114c9.957,0.343,12.391,9.17,10.656,14.126s-7.435,5.204-11.399,8.426c-3.966,3.222-5.701,12.144-3.966,17.844
		c1.735,5.7,6.443,19.579,0.495,30.483c-5.948,10.904-20.074,7.683-21.561,6.443c-1.487-1.239-12.639-5.452-15.365-7.187
		s-4.709-5.452-3.717-7.93s1.982-3.47,1.982-3.47h2.727c0,0-1.24,3.222-1.24,5.7s2.232,3.222,4.709,4.709
		c2.479,1.487,10.657,4.709,12.888,5.7s11.895,1.735,16.604-5.452s2.727-20.074,0.248-26.518s-1.982-10.905-0.743-15.118
		c1.239-4.213,5.701-8.426,9.665-10.409c3.966-1.983,4.709-6.443,3.966-10.161c-0.743-3.717-8.675-6.691-16.853,1.487
		c-8.178,8.178-9.665,26.27-9.665,26.27l-4.956,0.496c0,0,4.213-14.126,7.93-22.553C690.98,76.575,697.673,71.866,704.859,72.114z"
		/>
	<path d="M612.418,145.472c0,0-0.992,0.991-0.992,2.726s0,3.47,1.239,3.717c1.239,0.248,1.487-1.487,1.487-3.469
		S613.905,143.49,612.418,145.472z"/>
	<path d="M613.409,146.525c0,0,4.647-2.602,10.409-3.717c5.762-1.115,10.037-0.743,10.966-0.743s0.929,0.929,0.929,1.859
		s-0.743,5.948,0.558,11.71c0,0,0.372,1.673-0.372,2.788c-0.743,1.115-7.621-1.301-13.94-3.532c-6.32-2.23-9.294-2.974-10.038-2.974
		s-0.929,1.487,0.558,1.859s7.993,2.602,10.223,3.717c2.231,1.115,9.851,3.16,12.268,3.346c2.416,0.186,4.275-0.372,4.275-1.301
		s-1.301-7.249-1.487-10.967c-0.186-3.717-0.372-6.877-0.744-7.807c-0.372-0.929-4.089-1.487-11.896-0.558
		s-12.577,4.399-12.701,5.267C612.294,146.339,613.409,146.525,613.409,146.525z"/>
	<path d="M564.153,111.209c0,0,10.409,12.268,16.729,18.959c6.32,6.691,12.639,10.967,21.375,12.639
		c8.736,1.673,16.171-1.487,16.171-1.487s0.372,0.372,0.186,1.301c-0.186,0.929-7.435,3.717-14.87,3.16s-14.684-4.089-20.818-9.851
		s-16.171-18.216-20.446-22.862L564.153,111.209z"/>
	<path d="M661.984,130.85c0,0-5.451,3.717-21.808,8.922c0,0,0,0.992,2.726,0.496s15.613-3.717,18.092-5.204
		c2.477-1.487,2.477-3.222,2.477-3.222L661.984,130.85z"/>
	<path d="M670.659,74.84c0,0-3.717,4.709-1.735,12.391c1.982,7.683,7.683,9.913,9.17,9.665c0,0,0.248-0.744-0.992-1.735
		c-1.239-0.991-3.469-2.726-5.948-8.922s0.495-11.896,0.495-11.896L670.659,74.84z"/>
	<path d="M566.817,59.227c0,0,3.222,5.204,0.743,11.648c-2.478,6.444-9.418,6.691-9.418,6.691s-0.31-1.115,0.62-1.673
		c0.929-0.558,5.39-2.23,6.877-5.762s1.115-7.807,0.558-9.294S566.507,58.731,566.817,59.227z"/>
	<path d="M566.569,71.618c0,0,4.461,23.544,14.622,39.405s27.26,22.694,55.514,7.93c27.509-14.374,33.954-30.979,33.954-30.979
		l1.239,3.47c0,0-13.383,18.587-31.227,28.253c-17.844,9.665-29.492,11.896-40.892,9.665c-11.4-2.23-29.74-21.066-34.697-55.762
		L566.569,71.618z"/>
	<path d="M604.983,144.976c0,0-1.735,1.487-1.735,3.47s0.743,3.965,4.213,4.709c3.47,0.743,5.204-1.487,5.204-1.487l0.991,1.735
		c0,0-1.487,1.735-5.452,1.983s-7.434-1.983-7.682-5.948s1.735-4.957,1.735-4.957L604.983,144.976z"/>
	<path d="M586.891,138.285c0,0-2.974-0.248-3.222,2.478s0.248,11.648,0.248,12.887s6.692,1.177,18.092-2.974l0.991,2.478
		c0,0-17.1,3.47-19.083,3.965c-1.983,0.496-2.726-0.744-2.726-3.222s0.248-12.391,0-14.622s0.496-3.222,3.47-3.222L586.891,138.285z
		"/>
	<path d="M579.704,130.85c0,0-3.469,0-7.187,1.487c-4.299,1.72-9.417,5.205-13.135,7.187c-3.717,1.983-21.066,7.187-25.527,8.674
		l-0.929,4.089c0,0,18.773-6.815,26.208-10.037s15.861-8.178,23.296-8.178L579.704,130.85z"/>
	<path d="M531.997,131.655c0,0,4.089-5.019,4.833-6.258c0.744-1.239-6.443-9.665-8.674-12.639s-8.178-7.187-14.374-0.743
		l2.974,1.735c0,0,2.726-1.735,4.709-1.983c1.982-0.248,3.717,0.991,4.708,2.478s4.709,7.683,6.443,9.17
		c1.735,1.487,0.744,3.47-1.982,5.948L531.997,131.655z"/>
	<path d="M503.124,119.945c0,0,2.478-3.965,5.204-6.443c2.726-2.478,6.196-2.478,9.913,1.239s10.657,11.153,12.887,13.631
		c2.23,2.478,2.974,6.196-4.213,10.409l-1.983-2.23c0,0,3.965-3.47,4.461-4.709s-10.904-11.4-12.639-13.878s-6.196-4.709-9.17,2.478
		L503.124,119.945z"/>
	<path d="M504.859,130.85c0,0,5.452,7.435,14.87,11.152c0,0-2.231,1.239-3.965,0.991c-1.735-0.248-8.674-4.461-11.152-8.922
		C504.611,134.072,503.62,129.61,504.859,130.85z"/>
	<path d="M494.45,145.224c0,0-2.974-4.956,0.743-13.878s6.939-9.913,9.665-10.409s11.4,7.435,14.622,10.657s6.691,6.691,5.452,8.922
		s-6.691,6.939-7.187,8.178c-0.496,1.239-3.222,0.496-4.957-1.239l-1.983,1.735c0,0,1.735,2.726,4.461,3.469s4.461-0.743,5.452-2.23
		s6.444-7.93,7.435-8.922c0.991-0.991,1.487-4.213-2.478-7.683s-12.887-11.152-14.87-12.639c-1.982-1.487-4.709-2.726-8.178-2.726
		s-6.444,4.213-7.683,6.691c-1.239,2.478-7.93,12.392-3.47,22.553L494.45,145.224z"/>
	<path d="M526.916,112.758l3.47-3.47c0,0,4.567-3.611,8.426,0.248c4.213,4.213,1.487,8.178,1.487,8.178l-4.461,5.204l-2.478-2.23
		l4.213-3.965c0,0,1.487-2.23-0.248-4.213c-1.735-1.983-4.213-2.23-5.204-1.487c-0.991,0.743-3.965,3.965-3.965,3.965
		L526.916,112.758z"/>
	<path d="M505.355,133.328l-14.622,14.622c0,0-1.487,3.47-0.681,5.329l2.54-0.991c0,0-0.372-2.354,1.115-4.089l13.383-13.135
		L505.355,133.328z"/>
	<path d="M492.591,152.287c0,0,0.428,1.809,1.471,2.963c2.126,2.352,5.912,4.85,7.575,3.853l14.126-17.1l3.222,0.248l-16.357,19.579
		c0,0-9.379-1.6-12.577-8.55L492.591,152.287z"/>
	<path d="M502.443,159.165c0,0,2.346-3.02-1.859-7.435c-3.717-3.903-7.621-2.416-7.621-2.416s3.16-3.16,7.807,0.743
		s5.019,7.621,5.019,7.621S503.744,159.536,502.443,159.165z"/>
	<path d="M533.484,128.681c0,0,2.788-0.743,5.762,1.859c2.974,2.602,0.558,6.877-0.743,8.922
		c-1.301,2.045-5.019,12.082-5.204,13.569c-0.186,1.487-4.089,2.416-7.993,0.186c-3.903-2.23-2.045-7.621-2.045-7.621l2.23-3.16
		c0,0-0.743,4.833,0.186,6.877c0.929,2.045,3.532,2.788,4.833,1.673c1.301-1.115,4.461-9.665,5.948-13.755
		c1.487-4.089,0-6.134-4.461-5.576l-1.115-1.115L533.484,128.681z"/>
	<path d="M524.19,150.243c0,0-3.717,5.948-17.658,5.576l-2.23,2.23c0,0,9.48,3.532,21.561-5.39L524.19,150.243z"/>
	<path d="M528.465,153.588c0,0,0.941,3.415-1.487,10.037c-2.045,5.576-5.948,6.134-5.948,6.134s0.743,1.487,3.532,0.558
		c2.788-0.929,5.204-5.762,5.204-16.914L528.465,153.588z"/>
	<path d="M530.138,153.96c0,0,1.673,4.647,2.974,10.037s-1.859,10.781-1.859,10.781s-0.558-2.788,0.186-5.762
		c0.744-2.974-0.186-8.55-2.23-12.268l-0.186-2.974L530.138,153.96z"/>
	<path d="M553.186,175.521l-2.602,4.461c-48.141,6.506-49.814-1.487-51.673-5.948s-4.089-14.87-4.089-14.87l3.532,1.301
		c0,0,1.673,7.435,3.532,12.639S523.261,182.585,553.186,175.521z"/>
	<path d="M555.045,191.135c0,0-9.48-3.346-10.037-3.717s-3.346,3.16-3.717,3.717s10.037,4.647,11.152,5.39l0.743-0.558
		c0,0-7.249-3.903-8.55-4.461c-1.301-0.558,0.744-2.23,0.744-2.23s7.435,3.16,8.736,3.16
		C555.417,192.436,555.045,191.135,555.045,191.135z"/>
	<path d="M534.971,206.191l7.993-14.684l2.23,1.115c0,0-6.134,13.197-6.506,14.126S534.971,206.191,534.971,206.191z"/>
	<path d="M545.38,188.161c0,0,10.223-20.26,27.695-42.193c0,0-1.859,3.717-1.859,5.019c0,0-15.427,22.677-23.606,38.104
		L545.38,188.161z"/>
	<path d="M557.647,168.644c0,0-0.744-2.974-0.744-7.063s1.115-9.851,2.788-10.409c1.673-0.558,1.859,0.558,1.301,1.673
		s-1.301,5.204-1.487,5.948c-0.186,0.743,0.372,1.673,0.372,1.673s1.673-4.833,2.602-6.691s0.186-3.16,0.186-4.089
		s-2.788-0.372-4.647,0.558c-1.859,0.929-3.717,8.364-2.045,20.074l1.487,0.186L557.647,168.644z"/>
	<path d="M703.372,128.372c0,0,0.99-0.744,2.231-0.496c1.239,0.248,1.982,0.991,1.734,2.23c-0.247,1.239-0.99,20.818-0.99,28.996
		s1.239,23.792,0.743,27.014c-0.497,3.222-2.479,6.691-7.931,7.187c-5.451,0.496-24.784-9.913-32.714-19.578l-1.487-5.948
		c0,0,11.154,11.152,18.092,15.613c6.94,4.461,13.383,6.443,15.365,6.196c1.984-0.248,5.948-2.478,5.948-5.948
		s-0.992-22.057-0.743-28.005c0.248-5.948,1.488-19.083,0.992-21.809c-0.495-2.726-1.982-2.23-1.982-2.23L703.372,128.372z"/>
	<path d="M679.581,148.694c0,0-0.744,9.418-1.487,13.879c-0.744,4.461-1.735,9.17,1.982,13.878c0,0,1.24,1.487,1.487,0.248
		c0.248-1.239-1.487-5.204-1.487-9.17c0-3.965,3.222-12.143,2.231-17.596L679.581,148.694z"/>
	<path d="M679.332,159.846c0,0-4.214,3.47-6.196,8.426c0,0-1.735,2.974,0,1.487s4.461-4.213,5.701-4.709
		C680.076,164.555,679.332,159.846,679.332,159.846z"/>
	<path d="M618.861,154.89c0,0,9.17,37.175,11.401,44.61c2.23,7.435,7.435,27.756,7.435,28.5s0,2.232,1.982,1.735
		c1.984-0.495,33.954-8.427,35.441-8.674c1.487-0.248,4.956-0.001,4.708-1.984c-0.247-1.982-13.383-47.335-15.117-55.266
		c-1.735-7.93-6.196-18.34-7.932-19.579c0,0-1.239,0.991-0.495,2.23c0.743,1.239,4.956,15.613,6.196,21.066
		c1.239,5.452,14.126,50.061,14.126,50.061s-34.449,8.674-35.193,8.922s-20.074-70.631-20.074-70.631L618.861,154.89z"/>
	<path d="M654.549,203.713c0,0,13.88-3.718,18.092-3.718l1.239,0.991c0,0-12.886,1.983-18.339,3.47l0.744,2.726
		c0,0,13.88-3.717,17.1-3.965l0.743,1.239l-18.836,4.956l-1.734-4.461C653.558,204.951,653.062,204.456,654.549,203.713z"/>
	<path d="M637.448,153.898c0,0,3.966,3.717,4.709,4.461c0.743,0.743,0.497,0.743,0,1.735c-0.495,0.991-7.683,16.852-7.683,16.852
		l-1.734-1.735c0,0,6.257-14.436,7.187-15.366s-2.479-3.222-2.479-3.222V153.898z"/>
	<path d="M630.262,171.742c0,0,11.896,10.905,12.639,11.648c0.744,0.743,1.735,1.487,1.735,3.222s-3.471,37.67-3.471,38.91
		c0,1.239-1.239-2.727-1.239-2.727s1.735-34.448,2.23-35.191s0-1.239-0.992-2.726c-0.99-1.487-8.178-7.931-9.912-10.161
		C629.518,172.485,630.262,171.742,630.262,171.742z"/>
	<path d="M571.526,218.334c0,0-19.083-9.541-32.838-11.585c-13.755-2.045-24.411,4.646-29.12,13.072
		c-4.709,8.427-3.717,19.579,6.691,39.158c10.409,19.578,40.892,47.584,40.892,47.584s0.743-1.984-0.248-3.471
		c-0.991-1.487-24.783-24.782-32.466-36.926c-7.683-12.144-14.87-28.5-14.126-39.405c0.743-10.904,16.109-17.843,24.039-17.596
		s28.996,8.922,33.457,9.666C572.269,219.574,575.243,219.821,571.526,218.334z"/>
	<path d="M558.391,238.905c0,0,9.666,15.117,23.296,22.552s25.774,11.401,28.748,14.126l1.239,1.984c0,0-7.436-4.461-15.614-6.94
		c-8.178-2.479-21.065-7.435-29.492-16.852C558.143,244.356,555.912,240.887,558.391,238.905z"/>
	<path d="M599.779,153.155c0,0-18.092,25.775-33.953,63.94l-1.983-0.743c0,0,17.844-40.892,32.961-62.949L599.779,153.155z"/>
	<path d="M582.678,154.394c0,0-2.974,1.735-3.717,1.983c-0.744,0.248-1.239,0.496-0.744,1.239c0.496,0.743,4.957,7.435,4.957,7.435
		l-2.726,0.743c0,0-3.965-6.443-4.709-7.187c-0.744-0.743-1.983-1.735,0.248-2.974c2.23-1.239,6.196-3.717,6.196-3.717
		L582.678,154.394z"/>
	<path d="M588.874,162.572c0,0-0.496,1.983-2.231,2.23c-1.735,0.248-14.374,3.717-14.374,3.717s-0.743,0.991-0.743,1.735
		s-6.691,43.618-7.187,44.858c-0.496,1.239-2.726,0.743-2.726,0.743s7.435-43.867,7.683-45.354s-1.239-2.478,0.496-3.222
		C571.526,166.538,588.874,162.572,588.874,162.572z"/>
	<path d="M590.175,216.228c0,0-0.372-4.461,0-7.993c0,0,18.03,0.929,19.145,1.115s-0.372,8.179-0.372,8.922l1.487,0.558
		c0,0,0.744-9.48,0.744-10.223c0-0.743-0.744-0.558-1.673-0.929c-0.929-0.372-19.331-1.301-19.888-1.487
		c-0.558-0.186-0.929,0.186-1.115,1.301c-0.186,1.115-0.186,6.134-0.186,7.621s0.372,2.045,0.929,2.045
		S590.175,216.228,590.175,216.228z"/>
	<path d="M588.502,215.856c0,0,20.074,1.859,21.004,1.859c0.929,0,0,1.673,0,1.673s-19.888-1.859-21.004-2.045
		C587.387,217.158,588.502,215.856,588.502,215.856z"/>
	<path d="M616.259,208.545c0,0,0.868,1.364,0.868,4.089c0,2.726-0.62,5.329-0.868,5.948c-0.248,0.62,2.85,0.992,3.717,0.62
		c0.868-0.372,0.868-8.303-0.123-10.162c0,0-0.743-0.743-0.743-0.248s0.619,6.692,0.123,9.417l-1.362-0.248
		c0,0,1.239-5.204-0.372-8.922l1.116-0.123c0,0,0.867-0.497-0.497-0.62C616.755,208.174,616.259,208.05,616.259,208.545z"/>
	<path d="M622.083,209.165c0,0,1.115,3.841-0.248,9.789c0,0-0.495,0.743,0.248,0.867c0.744,0.125,3.346-0.123,4.089-0.247
		c0.743-0.125,2.726-5.948,0.495-10.038c0,0-3.097-0.619-3.593-0.619c-0.497,0-0.125,0.619,0.247,0.867s2.23,0.62,2.23,0.62
		s1.735,2.355,0,8.178h-2.106c0,0,0.867-5.576,0.247-8.178C623.075,207.802,622.083,209.165,622.083,209.165z"/>
	<path d="M585.776,206.066c0,0-2.726,3.222-1.611,10.78c0,0-2.478,0-3.346-0.247c-0.867-0.248-2.602-5.701,0.496-11.525
		c0,0-0.124-0.248,0.867-0.124s2.726,0.496,2.726,0.496l-0.248,0.619l-2.602-0.248c0,0-2.107,3.222-0.62,9.666l1.239,0.123
		c0,0,0.496-7.93,1.363-9.046C584.908,205.447,585.9,205.075,585.776,206.066z"/>
	<path d="M578.589,204.579c0,0-2.602,4.956-1.983,10.78c0,0-3.47,0-4.337-0.743s-1.239-5.947,1.859-10.284c0,0,3.222-0.124,3.594,0
		s-0.496,1.239-0.496,1.239l-2.726-0.124c0,0-2.355,2.974-1.487,8.179c0,0,1.611,0.62,1.983,0.495
		c0.372-0.123,0.62-6.939,1.859-9.17C576.854,204.951,578.589,203.836,578.589,204.579z"/>
	<path d="M675.863,219.574c0,0-2.231,33.457-4.461,53.16s-8.178,71.747-8.178,71.747l-1.859-5.576c0,0,7.063-59.851,7.435-67.658
		c0.372-7.807,3.346-50.186,3.346-50.186L675.863,219.574z"/>
	<path d="M597.424,269.76c0,0,7.435,24.907,17.1,44.981c9.666,20.074,21.933,37.175,21.933,37.175l-1.487,3.717
		c0,0-10.781-17.1-19.703-33.085s-21.561-53.532-21.561-53.532L597.424,269.76z"/>
	<path d="M664.214,359.351c-1.237,0.961-9.912,2.974-18.834,1.734c-8.922-1.239-12.639-2.974-12.639-2.974s2.231-4.461,3.221-7.435
		c0.992-2.974,0.744-8.425-0.495-7.187c-1.239,1.24-1.982,2.23-1.982,2.23s0.99-1.734,1.734-3.717
		c0.743-1.982,2.727-0.497,3.222,1.239c0.495,1.735,0.743,8.675-2.479,13.136c0,0,4.461,1.982,11.152,2.477
		c6.691,0.497,14.375-0.495,15.118-0.99c0.743-0.497,0.495-0.745-0.992-1.984s-6.195-5.948-7.682-8.922s0.495-4.956,3.964-2.974
		c3.471,1.984,3.717,6.196,3.717,6.196s-0.743-1.487-2.477-2.974c-1.735-1.487-2.727,0.248-0.743,2.23
		c1.982,1.982,5.203,5.948,6.938,7.187C666.693,357.864,666.445,357.615,664.214,359.351z"/>
	<path d="M660.001,353.403c0,0,3.222-1.488,3.717-4.214c0.495-2.726-4.461-13.63-5.204-17.347c-0.744-3.717,0.992-1.984,1.735,0.247
		c0.744,2.23,5.7,17.1,6.443,18.34c0.744,1.239-3.469,3.221-3.469,6.691L660.001,353.403z"/>
	<path d="M637.448,358.607c0,0-1.734,6.443-5.7,13.63c-3.966,7.188-5.204,8.922-5.7,11.649c-0.497,2.726,1.982,7.435,4.708,8.922
		c2.727,1.487,8.178,2.973,18.34,2.477c10.161-0.495,11.894-0.743,12.886-2.23s0.744-4.213,0.744-4.213s2.479-2.727,1.735-11.401
		c-0.743-8.674-4.213-17.596-4.213-17.596l-3.222,0.248c0,0,2.727,6.938,3.717,12.639c0.992,5.7,0.743,11.894-0.248,13.63
		c-0.99,1.735-8.921,2.479-16.109,2.479c-7.187,0-14.87-1.982-14.87-1.982l0.495,1.734c0,0,5.948,2.23,16.11,2.23
		c10.161,0,14.126-1.487,14.126-1.487s0.247,1.488-0.743,2.479c-0.992,0.992-19.331,1.239-23.792,0.248
		c-4.461-0.992-7.188-5.204-6.445-7.435c0.743-2.23,2.23-7.188,5.204-11.649c3.003-4.503,4.958-12.391,6.196-12.886
		C641.909,359.598,637.448,358.607,637.448,358.607z"/>
	<path d="M632.492,379.92c0,0,4.709-2.23,12.144-2.23s13.878,1.984,14.622,2.23c0,0,2.974-0.248,0.744-0.992
		c-2.231-0.743-9.417-2.23-12.639-2.974C644.14,375.211,634.476,375.459,632.492,379.92z"/>
	<path d="M566.817,252.288c0,0,4.709,31.227,5.204,33.457c0.496,2.23,2.726,5.451,3.222,6.691c0.496,1.239,2.23,3.469,1.735,4.956
		l3.717,1.735c0,0-0.248-3.469-1.983-5.453c-1.735-1.982-2.974-5.7-3.965-8.178c-0.991-2.479-3.718-23.295-3.965-28.996
		L566.817,252.288z"/>
	<path d="M576.234,295.162c0,0-1.239-0.247-2.974-1.982s-3.222,1.239,0.248,2.726c3.469,1.487,5.7,2.974,7.187,3.222
		c1.487,0.247-0.248,2.973-1.239,3.964s-22.305,9.417-23.792,11.152c-1.487,1.735-0.248-8.177-0.248-10.904
		c0-2.726,1.735-3.221,1.735-1.487c0,1.735,0.248,6.691,0.248,6.691s0.744,1.735,2.23,0.743c1.487-0.992,13.879-6.691,16.109-7.435
		s2.23-1.735-1.239-3.469c-3.469-1.735-2.973-1.487-4.461-3.966s-0.496-6.443,2.726-4.461S580.2,295.659,576.234,295.162z"/>
	<path d="M570.658,337.418c-1.487,0.743-19.145,15.428-21.375,15.985s-3.717-2.045-3.717-2.045c-2.974,0-5.39-0.929-5.948-2.602
		s2.045-4.275,4.089-6.691c2.045-2.416,7.621-13.941,9.108-18.401c1.487-4.461,4.461-11.152,4.461-11.152l4.089-1.859
		c0,0-3.346,7.435-5.39,11.896c-2.045,4.461-4.089,13.755-11.338,22.119c0,0-1.487,1.487-1.301,2.602s2.045,2.23,2.974,2.23
		s12.082-8.55,18.216-13.941c6.134-5.39,18.401-15.799,20.818-17.286c0,0,1.673-0.372,0.743,0.558
		c-0.929,0.929-18.401,15.056-20.446,17.1c-2.045,2.045-16.357,13.197-17.286,13.94s-0.558,2.416,0.372,1.859
		s20.26-16.171,21.933-17.286s16.543-13.197,17.286-13.94c0.743-0.743-0.372-2.416-0.372-2.416s-0.372-3.532-3.16-7.807
		s-7.249-6.32-7.249-6.32l2.416-2.045c0,0,5.204,4.647,8.364,9.108s1.487,6.877,1.487,6.877s1.301,2.045,1.301,3.16
		s-3.717,2.974-3.717,2.974L570.658,337.418z"/>
	<path d="M559.878,311.953c0,0,2.045,1.673,6.877,0.929s7.993-3.903,7.993-8.178l2.416-0.743c0,0,1.301,6.506-7.435,9.851
		c-8.736,3.346-11.338-1.115-11.338-1.115L559.878,311.953z"/>
	<path d="M580.138,304.704c0,0-5.204,7.993,0.744,17.286l1.859-0.743c0,0-5.39-5.762-1.487-15.427L580.138,304.704z"/>
	<path d="M604.487,113.254c0,0,3.222-5.452,7.931-6.939c4.709-1.487,14.602,0.916,20.322,5.204c4.956,3.717,4.956,7.683,4.956,7.683
		l3.222-0.743c0,0-0.495-5.204-9.17-10.161c-8.674-4.957-16.604-5.452-21.561-3.222
		C605.231,107.306,602.504,112.758,604.487,113.254z"/>
	<path d="M607.214,108.049c0,0-1.239-3.717-7.683-4.213c-6.444-0.496-17.1,2.478-18.091,8.674l-1.735-1.487
		c0,0,1.983-6.196,10.161-8.178c8.178-1.983,17.596-0.743,19.083,3.717L607.214,108.049z"/>
	<path d="M529.952,110.652c0,0-6.134-9.294,1.115-19.145c0,0,11.152-6.134,21.747,5.39s0.372,21.375,0.372,21.375
		s-5.762,2.602-13.94-1.115l-2.23,2.602c0,0,9.108,4.461,17.658-0.186c0,0,6.134-6.506,4.275-15.427
		c-1.859-8.922-10.037-14.498-18.587-15.613s-12.639,2.788-12.639,2.788s-7.807,10.595,0.744,20.818L529.952,110.652z"/>
	<path d="M531.067,90.577v-2.416c0,0,7.249-3.717,16.914,0.558s13.197,14.126,13.197,18.773s-1.673,7.993-2.788,8.736
		c-1.115,0.743-3.717,2.602-3.717,2.602L553,119.574c0,0,1.301,0.372,2.416,0.186c1.115-0.186,6.134-3.903,6.134-3.903
		s2.788-6.877,0-15.242s-9.851-13.569-18.03-15.242c-8.178-1.673-13.755,1.673-14.498,2.416c-0.744,0.743-0.929,4.089-0.929,4.089
		L531.067,90.577z"/>
	<path d="M529.023,87.789c0,0,4.647-4.089,5.576-4.833c0.929-0.743,14.684-3.532,23.792,6.32s7.063,20.818,6.691,21.747
		s-3.903,4.275-3.903,4.275l0.372-2.974l1.673-2.045c0,0,2.602-9.665-5.948-19.703s-21.375-6.32-21.375-6.32l-3.16,2.416
		L529.023,87.789z"/>
	<path d="M537.201,82.399c0,0,4.323-4.061,13.569-3.16c9.542,0.929,22.491,11.524,14.126,29.554l0.186-5.204
		c0,0,1.673-8.364-2.788-15.613s-16.729-7.621-21.004-5.576C541.29,82.399,538.316,83.142,537.201,82.399z"/>
	<path d="M618.986,30.912c0,0,0.929-5.576-4.275-7.807c-5.204-2.23-9.294,5.019-9.665,8.364c0,0-0.558,4.089,1.115,5.576
		l8.364,2.416C614.524,39.462,618.242,31.47,618.986,30.912z"/>
	<path d="M604.611,57.368c0,0-1.735-0.496-4.213,0.124c0,0-0.867-0.496,0.124-0.991c0.991-0.496,3.097-0.123,3.841,0.124
		C605.107,56.872,604.611,57.368,604.611,57.368z"/>
	<path d="M610.188,57.987c0,0,2.849,0.496,3.841,1.983c0,0,0.001,0.496-0.495,0.496s-2.23-1.487-3.346-1.859
		S610.188,57.987,610.188,57.987z"/>
	<path d="M631.005,41.879c0,0,9.417-7.435,27.014-1.239c0,0-0.001,0.991-1.24,0.743s-12.639-4.461-23.048,0.991L631.005,41.879z"/>
	<path d="M609.692,154.518c0,0-1.673,2.788-2.788,5.39c-1.115,2.602-1.301,10.037-1.115,12.268c0.186,2.23,0.558,5.204-0.929,9.108
		c-1.487,3.903-2.788,9.108-2.788,11.338s0.372,12.825,0.372,13.755s0,0.929,0,0.929l1.115,0.743c0,0-0.186-10.037-0.372-12.268
		c-0.186-2.23,0.372-7.807,1.859-11.71s2.045-6.691,1.859-13.755c-0.186-7.063-0.558-8.55,4.089-15.985L609.692,154.518z"/>
	<path d="M604.859,156.191c0,0-1.115,4.089-1.673,6.32s-1.673,4.833-1.487,7.063c0.186,2.23,0.372,6.506-0.929,9.851
		s-2.788,7.807-2.788,10.967c0,3.16-0.372,14.126-0.372,14.684s-0.186,2.416-0.186,2.416s-0.558,0.186-0.372-2.974
		s0.372-9.665,0.372-12.454s0.743-3.903,1.859-10.409s2.045-6.877,1.673-9.851s0.186-5.019,0.929-8.364
		c0.744-3.346,2.416-7.621,2.416-9.294S605.417,153.96,604.859,156.191z"/>
	<path d="M611.798,161.209c0,0,0.123-1.983,2.23-3.222s3.717,1.983-0.372,4.585c0,0-0.123,0.619,0.248,1.983
		c0.372,1.363-1.115,2.726-1.115,2.726s0.619,0.372-0.248,1.363c-0.867,0.991-1.487,0.743-1.487,0.743s1.239,1.611,1.115,3.098
		c-0.123,1.487-2.478,2.107-2.478,2.107s-0.743,0.248,0.124,0.62s4.461,1.859,4.833,3.098c0.372,1.239-3.47,3.965-3.47,3.965
		l0.619,0.619c0,0,2.23-3.842,4.213-1.859c1.982,1.983-1.983,6.568-4.833,7.931c0,0-0.868,0.991,0.248,1.363
		c1.115,0.372,5.204,0,5.329,3.222c0.124,3.222-2.85,4.585-5.452,3.346c0,0-1.115,0-0.124,0.496c0.991,0.496,2.602,1.363,2.23,3.594
		c-0.372,2.23-4.585,3.47-7.187,1.487l-0.743,0.372c0,0,1.611-0.248,1.611,1.859c0,2.106-4.089,2.106-4.089,2.106l0.248,0.992
		c0,0,3.717-0.124,4.585-1.239c0.868-1.115,0.372-2.355,0.372-2.355s3.841,0.619,5.824-1.859s-0.248-4.089-0.248-4.089
		s4.213-0.496,4.213-4.833s-4.956-3.965-4.956-3.965s4.584-3.346,4.709-6.568s-2.602-3.098-2.602-3.098s0.62-0.62,0.62-1.735
		s-4.213-3.222-4.213-3.222s1.983-1.364,1.859-2.726s-1.115-1.983-1.115-1.983s1.983-0.496,1.611-2.85c0,0,1.611-1.487,0.743-4.213
		c0,0,2.602-1.611,2.354-4.461s-4.213-2.726-5.576,1.239C611.426,159.846,611.178,160.466,611.798,161.209z"/>
	<path d="M612.542,158.979c0,0,1.612-2.354-0.867-4.585l0.805-0.62c0,0,1.672,1.239,1.549,3.346L612.542,158.979z"/>
	<path d="M604.115,154.518c0,0-1.735,0.743-2.602,0.496c-0.868-0.248-2.477,0.619-2.85,2.23c-0.372,1.611,1.61,4.709,1.61,4.709
		s-1.363,0-2.478-0.496c-1.115-0.496-2.726,0.372-3.098,2.354c-0.372,1.983,0.867,3.841,3.717,4.585c0,0,0.371,0.743-0.124,0.62
		c-0.496-0.124-2.602-0.372-3.346,1.487c-0.743,1.859,3.222,3.965,3.222,3.965s-0.743,0-1.115,0.743s0.991,1.487,0.991,1.487
		s-2.23-0.868-3.222,0.867c-0.991,1.735,0.867,3.222,2.23,3.594c0,0-0.868,0-0.991,0.867c-0.124,0.867,0.744,1.363,0.744,1.363
		s-3.346,0-3.841,1.735c-0.496,1.735,2.478,4.461,2.478,4.461s0.124,1.859-0.62,1.735s-1.983,0.62-2.974-0.372
		c-0.991-0.991-3.345-1.859-4.585,0.743c-1.239,2.602,1.115,6.692,3.965,7.311s3.346,0,3.222,0.619s-1.487,1.239-1.239,2.478
		s1.982,1.61,2.85,0.619c0,0-1.239,0.868-1.363,2.107c-0.124,1.239,1.735,2.23,1.735,2.23l-1.239,0.372c0,0-1.363-1.24-1.611-2.107
		c-0.248-0.867,0.248-1.115,0.248-1.115s-1.61-0.247-2.106-1.61s0.991-2.23,0.991-2.23s-4.337-0.001-6.567-4.585
		c-2.23-4.585,1.115-7.435,2.85-7.311s3.098,1.487,3.717,1.735c0.62,0.248,1.363,0.372,0.743-0.372
		c-0.619-0.743-2.355-2.85-1.859-4.956c0.496-2.107,3.346-2.23,3.346-2.23s-0.743-0.991,0-1.487c0,0-1.983-1.859-1.239-3.717
		c0.743-1.859,2.107-1.611,2.107-1.611s-0.744-0.991,0.124-1.487c0,0-2.85-1.735-2.354-3.717c0.496-1.983,2.354-2.23,2.354-2.23
		s-3.222-1.735-2.478-5.328c0.744-3.594,5.081-2.354,5.081-2.354s-2.726-2.106-0.744-4.833c1.983-2.726,5.7-2.23,5.7-2.23
		S604.611,153.279,604.115,154.518z"/>
	<path d="M601.017,145.72c0,0-3.717-1.115-6.195-0.991c0,0,0.248,0.867,1.363,0.867s4.336,0.496,4.832,1.735
		s1.487,0.372,1.239-0.743C602.009,145.472,601.017,145.72,601.017,145.72z"/>
	<path d="M600.77,148.074c0,0-0.248,1.115-1.983,1.859c-1.735,0.743-3.469,0.619-3.469,0.619s-0.248,0.62,1.239,0.62
		s4.214,0,4.709-1.239C601.761,148.694,600.77,148.074,600.77,148.074z"/>
	<path d="M613.409,146.525c0,0,3.222-0.682,4.708-1.177c1.487-0.496,3.966-0.62,4.709-0.372s0.123,0.372-0.495,0.372
		c-0.62,0-7.683,1.859-8.551,2.726C612.913,148.942,613.037,147.083,613.409,146.525z"/>
	<path d="M613.905,149.19c0,0,0.868,0.867,3.346,1.239s4.337,0,4.337,0s-0.373,0.372-1.24,0.743
		c-0.867,0.372-5.081,0.991-6.691-0.372C612.046,149.437,612.418,148.942,613.905,149.19z"/>
</g>
</svg>
