<?xml version="1.0" encoding="UTF-8" standalone="no"?>
<!-- Created with Inkscape (http://www.inkscape.org/) -->

<svg
   xmlns:dc="http://purl.org/dc/elements/1.1/"
   xmlns:cc="http://creativecommons.org/ns#"
   xmlns:rdf="http://www.w3.org/1999/02/22-rdf-syntax-ns#"
   xmlns:svg="http://www.w3.org/2000/svg"
   xmlns="http://www.w3.org/2000/svg"
   xmlns:sodipodi="http://sodipodi.sourceforge.net/DTD/sodipodi-0.dtd"
   xmlns:inkscape="http://www.inkscape.org/namespaces/inkscape"
   width="197.17001"
   height="197.17001"
   viewBox="0 0 52.167898 52.167901"
   version="1.1"
   id="svg1161"
   inkscape:version="0.92.4 (5da689c313, 2019-01-14)"
   sodipodi:docname="3.svg">
  <defs
     id="defs1155" />
  <sodipodi:namedview
     id="base"
     pagecolor="#ffffff"
     bordercolor="#666666"
     borderopacity="1.0"
     inkscape:pageopacity="0.0"
     inkscape:pageshadow="2"
     inkscape:zoom="0.7"
     inkscape:cx="405.80002"
     inkscape:cy="-26.141396"
     inkscape:document-units="mm"
     inkscape:current-layer="layer1"
     showgrid="false"
     units="px"
     inkscape:window-width="1920"
     inkscape:window-height="1017"
     inkscape:window-x="-8"
     inkscape:window-y="-8"
     inkscape:window-maximized="1"
     fit-margin-top="0"
     fit-margin-left="0"
     fit-margin-right="0"
     fit-margin-bottom="0" />
  <metadata
     id="metadata1158">
    <rdf:RDF>
      <cc:Work
         rdf:about="">
        <dc:format>image/svg+xml</dc:format>
        <dc:type
           rdf:resource="http://purl.org/dc/dcmitype/StillImage" />
        <dc:title></dc:title>
      </cc:Work>
    </rdf:RDF>
  </metadata>
  <g
     inkscape:label="Layer 1"
     inkscape:groupmode="layer"
     id="layer1"
     transform="translate(-0.35655382,-244.45075)">
    <g
       transform="matrix(0.36838253,0,0,0.36838253,-166.23383,243.24414)"
       id="Слой_1__x28_копия2_x29_">
      <circle
         style="stroke:#000000;stroke-miterlimit:10"
         stroke-miterlimit="10"
         cx="538.22699"
         cy="59.933998"
         r="4.954"
         id="circle125" />
      <path
         style="fill:#f8f4c1;stroke:#ffed00;stroke-width:2;stroke-miterlimit:10"
         inkscape:connector-curvature="0"
         stroke-miterlimit="10"
         d="m 522.259,67.25 c 0,0 13.749,-47.745 -2.724,-62.162 -5.196,-4.548 -21.854,11.066 -27.157,20.258 -6,10.4 -8.514,23.759 -4.715,30.489 6.416,11.363 24.662,18.351 24.662,18.351 z"
         id="path127" />
      <path
         style="fill:#f8f4c1;stroke:#ffed00;stroke-width:2;stroke-miterlimit:10"
         inkscape:connector-curvature="0"
         stroke-miterlimit="10"
         d="m 512.326,74.185 c 0,0 -20.758,-13.191 -33.495,-13.951 -13.526,-0.807 -30.408,12.159 -24.358,25.139 5.556,11.92 34.377,15.285 34.377,15.285 0,0 12.019,-14.605 14.312,-16.801 2.41,-2.306 9.164,-9.672 9.164,-9.672 z"
         id="path129" />
      <path
         style="fill:none;stroke:#009640;stroke-width:3;stroke-miterlimit:10"
         inkscape:connector-curvature="0"
         stroke-miterlimit="10"
         d="m 516.774,11.911 c 0,0 -16.148,9.64 -20.329,23.158 -4.26,13.772 4.691,25.197 4.691,25.197"
         id="path131" />
      <path
         style="fill:none;stroke:#e30613;stroke-width:3;stroke-miterlimit:10"
         inkscape:connector-curvature="0"
         stroke-miterlimit="10"
         d="m 523.895,25.22 c 0,0 -13.523,4.101 -19.023,13.199 -5.603,9.269 0.058,16.801 0.058,16.801"
         id="path133" />
      <ellipse
         style="fill:none;stroke:#e30613;stroke-width:3;stroke-miterlimit:10"
         transform="matrix(0.975,0.2222,-0.2222,0.975,22.9325,-113.5876)"
         stroke-miterlimit="10"
         cx="516.27698"
         cy="45.124001"
         rx="5.25"
         ry="8.3559999"
         id="ellipse135" />
      <circle
         style="fill:none;stroke:#009fe3;stroke-width:3;stroke-miterlimit:10"
         stroke-miterlimit="10"
         cx="513.18298"
         cy="63.473999"
         r="4.2490001"
         id="circle137" />
      <ellipse
         style="fill:#312783;stroke:#e30613;stroke-width:2;stroke-miterlimit:10"
         transform="matrix(0.9956,-0.0936,0.0936,0.9956,-5.3924,45.2011)"
         stroke-miterlimit="10"
         cx="479.26401"
         cy="80.097"
         rx="15.864"
         ry="7.6490002"
         id="ellipse139" />
      <path
         style="fill:#f8f4c1;stroke:#ffed00;stroke-width:2;stroke-miterlimit:10"
         inkscape:connector-curvature="0"
         stroke-miterlimit="10"
         d="m 529.86,74.851 c 0,0 47.745,-13.749 62.162,2.724 4.548,5.196 -11.066,21.854 -20.258,27.157 -10.4,6 -23.759,8.514 -30.489,4.715 -11.363,-6.416 -18.351,-24.662 -18.351,-24.662 z"
         id="path141" />
      <path
         style="fill:#f8f4c1;stroke:#ffed00;stroke-width:2;stroke-miterlimit:10"
         inkscape:connector-curvature="0"
         stroke-miterlimit="10"
         d="m 522.924,84.784 c 0,0 13.191,20.758 13.951,33.495 0.807,13.526 -12.159,30.408 -25.139,24.358 -11.92,-5.556 -15.285,-34.377 -15.285,-34.377 0,0 13.475,-11.623 15.671,-13.916 2.308,-2.41 10.802,-9.56 10.802,-9.56 z"
         id="path143" />
      <path
         style="fill:none;stroke:#009640;stroke-width:3;stroke-miterlimit:10"
         inkscape:connector-curvature="0"
         stroke-miterlimit="10"
         d="m 585.199,80.336 c 0,0 -9.64,16.148 -23.158,20.329 -13.772,4.26 -25.197,-4.691 -25.197,-4.691"
         id="path145" />
      <path
         style="fill:none;stroke:#e30613;stroke-width:3;stroke-miterlimit:10"
         inkscape:connector-curvature="0"
         stroke-miterlimit="10"
         d="m 571.89,73.215 c 0,0 -4.101,13.523 -13.199,19.023 -9.269,5.603 -16.801,-0.058 -16.801,-0.058"
         id="path147" />
      <ellipse
         style="fill:none;stroke:#e30613;stroke-width:3;stroke-miterlimit:10"
         transform="matrix(-0.2222,-0.975,0.975,-0.2222,595.8244,636.9808)"
         stroke-miterlimit="10"
         cx="551.98602"
         cy="80.833"
         rx="5.25"
         ry="8.3559999"
         id="ellipse149" />
      <circle
         style="fill:none;stroke:#009fe3;stroke-width:3;stroke-miterlimit:10"
         stroke-miterlimit="10"
         cx="533.63599"
         cy="83.927002"
         r="4.2490001"
         id="circle151" />
      <ellipse
         style="fill:#312783;stroke:#e30613;stroke-width:2;stroke-miterlimit:10"
         transform="matrix(0.0936,-0.9956,0.9956,0.0936,351.3023,621.5616)"
         stroke-miterlimit="10"
         cx="517.013"
         cy="117.846"
         rx="15.864"
         ry="7.6490002"
         id="ellipse153" />
      <ellipse
         style="fill:#575756"
         transform="matrix(0.6909,0.7229,-0.7229,0.6909,220.6491,-341.3227)"
         cx="509.50101"
         cy="87.388"
         rx="8.8260002"
         ry="34.780998"
         id="ellipse155" />
      <path
         style="fill:none;stroke:#000000;stroke-miterlimit:10"
         inkscape:connector-curvature="0"
         stroke-miterlimit="10"
         d="m 543.265,27.381 c 0,0 4.949,3.97 3.071,13.357 -1.958,9.786 -6.808,14.421 -6.808,14.421"
         id="path157" />
      <circle
         style="stroke:#000000;stroke-miterlimit:10"
         stroke-miterlimit="10"
         cx="541.45697"
         cy="25.451"
         r="2.6440001"
         id="circle159" />
      <path
         style="fill:none;stroke:#000000;stroke-miterlimit:10"
         inkscape:connector-curvature="0"
         stroke-miterlimit="10"
         d="m 571.072,56.475 c 0,0 -3.742,-5.124 -13.204,-3.672 -9.864,1.513 -14.715,6.149 -14.715,6.149"
         id="path161" />
      <circle
         style="stroke:#000000;stroke-miterlimit:10"
         stroke-miterlimit="10"
         cx="572.91699"
         cy="58.368999"
         r="2.6440001"
         id="circle163" />
    </g>
  </g>
</svg>
