<?xml version="1.0" encoding="UTF-8" standalone="no"?>
<!-- Created with Inkscape (http://www.inkscape.org/) -->

<svg
   xmlns:dc="http://purl.org/dc/elements/1.1/"
   xmlns:cc="http://creativecommons.org/ns#"
   xmlns:rdf="http://www.w3.org/1999/02/22-rdf-syntax-ns#"
   xmlns:svg="http://www.w3.org/2000/svg"
   xmlns="http://www.w3.org/2000/svg"
   xmlns:sodipodi="http://sodipodi.sourceforge.net/DTD/sodipodi-0.dtd"
   xmlns:inkscape="http://www.inkscape.org/namespaces/inkscape"
   width="197.67784"
   height="197.67651"
   viewBox="0 0 52.30226 52.301912"
   version="1.1"
   id="svg1161"
   inkscape:version="0.92.4 (5da689c313, 2019-01-14)"
   sodipodi:docname="set_icon.svg">
  <defs
     id="defs1155" />
  <sodipodi:namedview
     id="base"
     pagecolor="#ffffff"
     bordercolor="#666666"
     borderopacity="1.0"
     inkscape:pageopacity="0.0"
     inkscape:pageshadow="2"
     inkscape:zoom="1.979899"
     inkscape:cx="53.224451"
     inkscape:cy="83.379086"
     inkscape:document-units="mm"
     inkscape:current-layer="layer1"
     showgrid="false"
     units="px"
     inkscape:window-width="1920"
     inkscape:window-height="1017"
     inkscape:window-x="-8"
     inkscape:window-y="-8"
     inkscape:window-maximized="1"
     fit-margin-top="0"
     fit-margin-left="0"
     fit-margin-right="0"
     fit-margin-bottom="0" />
  <metadata
     id="metadata1158">
    <rdf:RDF>
      <cc:Work
         rdf:about="">
        <dc:format>image/svg+xml</dc:format>
        <dc:type
           rdf:resource="http://purl.org/dc/dcmitype/StillImage" />
        <dc:title></dc:title>
      </cc:Work>
    </rdf:RDF>
  </metadata>
  <g
     inkscape:label="Layer 1"
     inkscape:groupmode="layer"
     id="layer1"
     transform="translate(-0.37536847,-244.45612)">
    <g
       transform="matrix(0.36932875,0,0,0.36932875,-0.49040742,243.24643)"
       id="Слой_1">
      <circle
         style="stroke:#000000;stroke-miterlimit:10"
         stroke-miterlimit="10"
         cx="88.349998"
         cy="59.933998"
         r="4.954"
         id="circle2" />
      <path
         style="fill:#f8f4c1;stroke:#ffed00;stroke-width:2;stroke-miterlimit:10"
         inkscape:connector-curvature="0"
         stroke-miterlimit="10"
         d="m 72.383,67.25 c 0,0 13.749,-47.745 -2.724,-62.162 -5.196,-4.548 -21.854,11.065 -27.157,20.258 -6,10.4 -8.514,23.759 -4.715,30.489 6.416,11.362 24.663,18.35 24.663,18.35 z"
         id="path4" />
      <path
         style="fill:#f8f4c1;stroke:#ffed00;stroke-width:2;stroke-miterlimit:10"
         inkscape:connector-curvature="0"
         stroke-miterlimit="10"
         d="m 62.45,74.185 c 0,0 -20.758,-13.191 -33.495,-13.951 -13.527,-0.806 -30.409,12.16 -24.359,25.14 5.556,11.92 34.377,15.285 34.377,15.285 0,0 12.019,-14.605 14.312,-16.801 2.41,-2.307 9.165,-9.673 9.165,-9.673 z"
         id="path6" />
      <path
         style="fill:none;stroke:#009640;stroke-width:3;stroke-miterlimit:10"
         inkscape:connector-curvature="0"
         stroke-miterlimit="10"
         d="m 66.897,11.911 c 0,0 -16.148,9.64 -20.329,23.158 -4.26,13.772 4.691,25.197 4.691,25.197"
         id="path8" />
      <path
         style="fill:none;stroke:#009640;stroke-width:3;stroke-miterlimit:10"
         inkscape:connector-curvature="0"
         stroke-miterlimit="10"
         d="m 74.018,25.22 c 0,0 -13.523,4.101 -19.023,13.199 -5.603,9.269 0.058,16.801 0.058,16.801"
         id="path10" />
      <ellipse
         style="fill:none;stroke:#009fe3;stroke-width:3;stroke-miterlimit:10"
         transform="matrix(0.975,0.2222,-0.2222,0.975,11.6863,-13.6262)"
         stroke-miterlimit="10"
         cx="66.401001"
         cy="45.124001"
         rx="5.25"
         ry="8.3559999"
         id="ellipse12" />
      <circle
         style="fill:none;stroke:#e30613;stroke-width:3;stroke-miterlimit:10"
         stroke-miterlimit="10"
         cx="63.306999"
         cy="63.473999"
         r="4.2490001"
         id="circle14" />
      <ellipse
         style="fill:#312783;stroke:#e30613;stroke-width:2;stroke-miterlimit:10"
         transform="matrix(0.9956,-0.0936,0.0936,0.9956,-7.3665,3.1016)"
         stroke-miterlimit="10"
         cx="29.388"
         cy="80.097"
         rx="15.864"
         ry="7.6490002"
         id="ellipse16" />
      <path
         style="fill:#f8f4c1;stroke:#ffed00;stroke-width:2;stroke-miterlimit:10"
         inkscape:connector-curvature="0"
         stroke-miterlimit="10"
         d="m 79.984,74.851 c 0,0 47.745,-13.749 62.162,2.724 4.548,5.196 -11.066,21.854 -20.258,27.157 -10.4,6 -23.759,8.514 -30.489,4.715 C 80.036,103.031 73.048,84.785 73.048,84.785 Z"
         id="path18" />
      <path
         style="fill:#f8f4c1;stroke:#ffed00;stroke-width:2;stroke-miterlimit:10"
         inkscape:connector-curvature="0"
         stroke-miterlimit="10"
         d="m 73.048,84.784 c 0,0 13.191,20.758 13.951,33.495 0.807,13.526 -12.159,30.408 -25.139,24.358 -11.92,-5.556 -15.285,-34.377 -15.285,-34.377 0,0 13.475,-11.623 15.67,-13.916 2.308,-2.41 10.803,-9.56 10.803,-9.56 z"
         id="path20" />
      <path
         style="fill:none;stroke:#009640;stroke-width:3;stroke-miterlimit:10"
         inkscape:connector-curvature="0"
         stroke-miterlimit="10"
         d="m 135.323,80.336 c 0,0 -9.64,16.148 -23.158,20.329 -13.772,4.26 -25.197,-4.691 -25.197,-4.691"
         id="path22" />
      <path
         style="fill:none;stroke:#009640;stroke-width:3;stroke-miterlimit:10"
         inkscape:connector-curvature="0"
         stroke-miterlimit="10"
         d="m 122.013,73.215 c 0,0 -4.101,13.523 -13.199,19.023 C 99.545,97.841 92.013,92.18 92.013,92.18"
         id="path24" />
      <ellipse
         style="fill:none;stroke:#009fe3;stroke-width:3;stroke-miterlimit:10"
         transform="matrix(-0.2222,-0.975,0.975,-0.2222,45.9867,198.3508)"
         stroke-miterlimit="10"
         cx="102.11"
         cy="80.833"
         rx="5.25"
         ry="8.3559999"
         id="ellipse26" />
      <circle
         style="fill:none;stroke:#e30613;stroke-width:3;stroke-miterlimit:10"
         stroke-miterlimit="10"
         cx="83.760002"
         cy="83.927002"
         r="4.2490001"
         id="circle28" />
      <ellipse
         style="fill:#312783;stroke:#e30613;stroke-width:2;stroke-miterlimit:10"
         transform="matrix(0.0936,-0.9956,0.9956,0.0936,-56.4745,173.6596)"
         stroke-miterlimit="10"
         cx="67.137001"
         cy="117.846"
         rx="15.864"
         ry="7.6490002"
         id="ellipse30" />
      <ellipse
         style="fill:#575756"
         transform="matrix(0.6909,0.7229,-0.7229,0.6909,81.6034,-16.0951)"
         cx="59.625"
         cy="87.388"
         rx="8.8260002"
         ry="34.780998"
         id="ellipse32" />
      <path
         style="fill:none;stroke:#000000;stroke-miterlimit:10"
         inkscape:connector-curvature="0"
         stroke-miterlimit="10"
         d="m 93.389,27.381 c 0,0 4.949,3.97 3.071,13.357 -1.958,9.786 -6.808,14.421 -6.808,14.421"
         id="path34" />
      <circle
         style="stroke:#000000;stroke-miterlimit:10"
         stroke-miterlimit="10"
         cx="91.581001"
         cy="25.451"
         r="2.6440001"
         id="circle36" />
      <path
         style="fill:none;stroke:#000000;stroke-miterlimit:10"
         inkscape:connector-curvature="0"
         stroke-miterlimit="10"
         d="m 121.195,56.475 c 0,0 -3.742,-5.124 -13.204,-3.672 -9.864,1.513 -14.715,6.149 -14.715,6.149"
         id="path38" />
      <circle
         style="stroke:#000000;stroke-miterlimit:10"
         stroke-miterlimit="10"
         cx="123.041"
         cy="58.368999"
         r="2.6440001"
         id="circle40" />
    </g>
  </g>
</svg>
