<?xml version="1.0" encoding="utf-8"?>
<!-- Generator: Adobe Illustrator 17.0.0, SVG Export Plug-In . SVG Version: 6.00 Build 0)  -->
<!DOCTYPE svg PUBLIC "-//W3C//DTD SVG 1.1//EN" "http://www.w3.org/Graphics/SVG/1.1/DTD/svg11.dtd">
<svg version="1.1" id="Слой_1" xmlns="http://www.w3.org/2000/svg" xmlns:xlink="http://www.w3.org/1999/xlink" x="0px" y="0px"
	 width="3200px" height="400px" viewBox="0 0 3200 400" enable-background="new 0 0 3200 400" xml:space="preserve">
<g>
	<g transform="translate(0.000000,150.000000) scale(0.100000,-0.100000)">
		<path fill="none" stroke="#000000" stroke-width="20" stroke-miterlimit="10" d="M2004.191,1291.543
			c-2.473-71.717-54.406-180.529-84.082-180.529c-12.365,0-27.203,22.257-34.622,49.46c-7.419,27.203-22.257,42.041-34.622,34.622
			c-12.365-7.419-9.892-34.622,4.946-64.298c22.257-42.041,22.257-49.46-9.892-37.095c-27.203,9.892-42.041-9.892-56.879-76.663
			c-9.892-49.46-19.784-96.447-24.73-103.866c-2.473-7.419-12.365-37.095-22.257-66.771c-22.257-66.771-54.406-74.19-69.244-12.365
			c-9.892,32.149-12.365,32.149-14.838-9.892c0-29.676-19.784-66.771-39.568-84.082s-37.095-51.933-37.095-79.136
			c0-24.73-14.838-71.717-34.622-101.393c-19.784-29.676-39.568-143.434-46.987-252.246
			c-7.419-108.812-24.73-200.313-39.568-205.259c-12.365-4.946-19.784-22.257-12.365-42.041c7.419-19.784,0-54.406-14.838-79.136
			c-24.73-39.568-27.203-39.568-14.838-2.473c7.419,24.73,2.473,49.46-9.892,56.879c-27.203,17.311-27.203,12.365-34.622-93.974
			c0-37.095-12.365-76.663-27.203-86.555c-12.365-9.892-24.73-111.285-27.203-227.516s-9.892-274.504-17.311-351.167
			c-7.419-79.136-7.419-143.434,2.473-143.434c17.311,0,17.311-66.771-2.473-356.113c-7.419-118.704-2.473-158.272,34.622-197.84
			c49.46-51.933,59.352-89.028,27.203-89.028c-12.365,0-14.838-49.46-4.946-111.285c9.892-64.298,7.419-118.704-9.892-136.015
			s-14.838-24.73,4.946-24.73c17.311,0,29.676-14.838,24.73-32.149c-14.838-84.082,108.812-289.342,178.056-289.342
			c22.257,0,61.825-22.257,86.555-49.46c24.73-27.203,51.933-42.041,64.298-37.095c9.892,7.419,24.73,2.473,34.622-9.892
			c7.419-14.838,51.933-22.257,98.92-17.311c56.879,2.473,86.555-4.946,86.555-24.73c0-34.622,86.555-69.244,121.177-49.46
			c12.365,7.419,17.311,34.622,9.892,61.825c-9.892,37.095,0,44.514,54.406,34.622c34.622-7.419,61.825-4.946,59.352,7.419
			c-14.838,84.082,37.095,118.704,56.879,39.568c17.311-61.825,108.812-54.406,158.272,14.838
			c19.784,29.676,54.406,54.406,74.19,54.406c19.784,0,34.622,12.365,34.622,24.73c0,14.838,14.838,24.73,32.149,24.73
			c19.784,0,34.622,37.095,37.095,103.866c7.419,133.542,24.73,187.948,81.609,272.031c32.149,42.041,39.568,71.717,22.257,81.609
			c-17.311,9.892-7.419,46.987,27.203,103.866c42.041,69.244,49.46,96.447,27.203,131.069
			c-19.784,32.149-17.311,54.406,7.419,89.028c46.987,64.298,44.514,108.812-4.946,148.38
			c-29.676,19.784-46.987,69.244-49.46,138.488c-7.419,126.123-19.784,190.421-44.514,252.246
			c-27.203,59.352-29.676,205.259-9.892,306.653c14.838,71.717,12.365,81.609-24.73,71.717
			c-32.149-7.419-42.041,4.946-37.095,64.298c2.473,42.041-4.946,103.866-19.784,138.488
			c-12.365,34.622-29.676,103.866-37.095,150.853c-22.257,173.11-27.203,210.205-29.676,242.354
			c-2.473,17.311-14.838,24.73-29.676,14.838c-14.838-9.892-24.73,2.473-19.784,29.676c7.419,54.406-54.406,232.462-81.609,232.462
			c-9.892,0-12.365,14.838-4.946,34.622c7.419,17.311-4.946,51.933-29.676,74.19c-22.257,24.73-39.568,69.244-39.568,103.866
			c0,32.149-9.892,66.771-22.257,74.19c-12.365,7.419-22.257,39.568-22.257,71.717s-7.419,76.663-14.838,96.447
			c-14.838,37.095-17.311,37.095-44.514,0c-24.73-32.149-27.203-24.73-19.784,49.46c7.419,54.406,0,89.028-17.311,89.028
			c-14.838,0-27.203,19.784-29.676,44.514c0,34.622-4.946,34.622-17.311,4.946c-9.892-24.73-24.73-2.473-44.514,61.825
			S2004.191,1326.165,2004.191,1291.543z"/>
	</g>
</g>
<g>
	<g transform="translate(0.000000,150.000000) scale(0.100000,-0.100000)">
		<path fill="none" stroke="#000000" stroke-width="20" stroke-miterlimit="10" d="M6442.979,1253.322
			c-74.794-74.795-55.493-149.589,50.667-212.32c69.969-41.016,178.542-176.129,178.542-219.558
			c0-9.651-43.429-28.953-98.922-45.842c-118.224-33.778-164.066-108.573-123.049-200.257
			c24.127-50.667,43.429-60.318,137.525-60.318c101.335,0,110.986-4.825,103.748-53.08s-26.54-57.906-130.288-67.556
			c-147.176-14.476-202.669-55.493-202.669-147.177c0-48.255,19.302-82.033,65.144-110.986
			c132.7-86.858,176.129-142.351,176.129-229.209c0-113.398-82.033-188.193-207.495-188.193
			c-67.556,0-108.573,14.476-137.525,50.667c-38.604,43.429-60.318,45.842-173.717,33.778c-144.764-19.302-164.065,0-77.207,77.207
			c82.033,74.795,103.747,82.033,171.304,55.493c33.778-12.064,94.097-16.889,135.113-9.651
			c62.731,14.476,72.382,26.54,72.382,91.684c0,137.526-120.636,231.622-294.353,231.622c-115.811,0-115.811,0-101.334,67.556
			c9.651,36.191,28.953,72.382,43.429,82.033c16.889,12.064,12.063,19.302-12.064,19.302c-21.714,0-55.493,16.889-72.382,38.604
			c-24.127,28.953-55.493,33.778-130.287,24.127c-67.557-12.064-86.858-7.238-60.318,9.651
			c19.302,12.064,77.208,24.127,127.875,24.127c55.493,0,110.986,16.889,139.938,45.842c28.953,26.54,86.858,53.08,132.7,60.318
			c86.858,16.889,135.113,62.731,65.144,62.731c-24.127,0-84.445-12.064-137.525-26.54c-86.858-24.127-96.509-21.715-173.717,53.08
			c-74.794,72.382-77.207,82.033-43.429,120.636c19.302,21.715,77.208,45.842,127.875,55.493
			c82.033,12.064,241.273,135.113,176.129,135.113c-16.889,0-28.953,14.476-28.953,33.778c0,50.667-96.509,110.985-173.716,110.985
			c-67.557,0-161.653,41.016-190.606,82.033c-24.127,31.365-164.065-7.238-376.386-108.573
			c-185.78-89.271-260.575-139.938-154.415-106.16c26.54,7.238,53.08,4.825,60.318-7.238c7.238-14.476-9.651-31.366-41.017-41.016
			c-50.667-16.889-50.667-16.889-4.826-28.953c26.54-7.238,74.795-38.604,103.748-72.382c50.667-50.667,53.08-62.731,24.127-98.922
			c-19.302-21.715-43.429-60.318-50.667-82.033c-16.889-48.255-185.78-62.731-185.78-16.889c0,14.476,16.889,21.715,36.191,14.476
			c19.302-9.651,41.017-4.825,48.255,4.825c14.476,26.54-55.493,55.493-86.858,36.191c-48.254-28.953-45.842,65.144,4.825,132.7
			c50.667,69.969,50.667,74.795,12.064,132.7c-21.715,36.191-55.493,62.731-74.795,62.731c-19.302,0-77.207,21.715-125.462,48.255
			c-50.667,26.54-125.462,48.255-166.478,48.255c-72.382,0-74.795-4.825-67.557-89.271c4.826-84.445-60.318-248.511-125.462-308.829
			c-74.794-67.556-43.429-180.955,50.667-180.955c33.778,0,74.794-26.54,103.747-65.144c48.255-65.144,50.667-65.144,96.509-21.715
			c48.255,41.016,50.667,41.016,84.446-26.54c19.302-36.191,28.953-82.033,24.127-96.509c-7.238-16.889,0-31.365,14.477-31.365
			s26.54-16.889,26.54-36.191c0-19.302,33.778-53.08,77.208-74.795c41.016-21.715,149.589-113.398,241.273-202.669l166.478-164.066
			l-118.224-96.509l-118.224-98.922l-101.335,50.667c-89.271,43.429-125.462,48.255-347.433,31.365
			c-284.702-19.302-410.164-53.08-422.228-115.811c-16.889-86.858,43.429-120.636,193.019-103.747
			c79.62,7.238,144.764,4.825,152.002-9.651s28.953-24.127,43.429-24.127c16.889,0,14.476,9.651-7.238,24.127
			c-48.255,31.365-9.651,31.365,50.667-2.413c45.842-24.127,45.842-24.127-4.826-67.556c-31.365-26.54-57.905-74.795-60.318-118.224
			c-4.825-65.144,4.826-79.62,74.795-101.335c45.842-14.476,139.938-21.715,212.32-14.476
			c113.398,12.064,137.526,4.825,178.542-41.016c36.191-38.604,45.842-74.795,38.604-142.351l-12.064-91.684h-200.256
			c-217.146,0-262.987-24.127-248.511-125.462c7.238-50.667,21.715-55.493,161.653-62.731
			c108.573-4.825,173.717-21.715,214.733-55.493c43.429-33.778,82.033-43.429,127.875-33.778
			c91.684,21.715,499.435-188.193,516.324-262.988c4.825-28.953,31.365-142.351,57.905-255.749s57.906-258.162,67.557-325.719
			l19.302-120.636h217.146h217.146l14.476,108.573c14.477,106.16,60.318,188.193,207.495,393.275
			c36.191,50.667,82.033,132.7,103.748,185.78c21.715,55.493,77.208,123.049,144.764,173.717
			c86.858,65.144,108.573,96.509,108.573,154.415c0,53.08-16.889,77.207-74.795,106.16c-67.556,36.191-72.382,43.429-48.254,110.986
			c14.476,38.604,62.731,118.224,108.573,171.304c79.62,101.335,79.62,101.335,217.146,89.271
			c243.686-24.127,308.83-19.302,373.973,21.715c127.875,84.446,53.08,258.162-110.985,258.162
			c-38.604,0-67.557,7.238-67.557,19.302c2.413,33.778,65.144,101.335,96.509,101.335c21.714,0,16.889,14.476-12.063,48.255
			c-24.127,26.54-33.778,48.255-24.127,48.255s0,21.715-26.54,50.667c-28.953,33.778-69.969,48.255-130.288,45.842
			c-149.589-7.238-168.891-2.413-168.891,48.255c0,28.953,26.54,77.207,57.906,108.573c31.365,31.365,48.254,60.318,33.778,65.144
			c-12.064,4.825,19.302,53.08,74.794,108.573c120.637,125.462,173.717,226.797,166.479,320.893
			c-4.826,69.969-9.651,72.382-113.398,72.382h-108.573l77.208,79.62c86.858,89.271,98.922,176.129,36.191,224.384
			c-57.906,43.429-130.288,41.016-195.431-4.825c-72.382-48.255-86.858-31.366-67.557,72.382
			c9.651,53.08,43.429,106.16,89.271,142.351c94.097,74.795,135.113,224.384,69.969,258.162
			c-67.557,36.191-132.7,28.953-221.971-21.715c-79.62-48.255-82.033-48.255-212.32-2.413
			C6609.457,1328.117,6515.36,1323.292,6442.979,1253.322z"/>
	</g>
</g>
<g>
	<g transform="translate(0.000000,150.000000) scale(0.100000,-0.100000)">
		<path fill="none" stroke="#000000" stroke-width="20" stroke-miterlimit="10" d="M9898.177,881.16c12-28,40-98,62-158
			c62-152,38-148-34,8c-34,72-66,130-72,130c-12,0,36-116,100-244c80-158,54-136-48,38c-130,224-150,234-36,16c52-98,76-158,54-130
			l-42,50l8-66c6-60,4-64-28-34c-18,16-38,26-44,20s-26,10-48,34c-30,36-32,40-2,18c56-44,38,6-20,60c-32,26-44,34-30,18
			c36-42,30-70-10-38c-20,16-6-10,32-58c36-46,72-80,80-74c8,4,16-6,16-22c0-22-10-22-42,8c-76,70-102,72-42,4c62-68,36-64-48,8
			c-36,30-30,18,20-48c58-76,60-84,18-54c-66,46-94,44-50-6c42-46,26-78-20-40c-16,14-30,18-30,8c0-8,24-36,56-60c30-24,46-52,38-62
			c-10-8-30,2-48,24c-26,38-28,34-16-40l12-80l-60,110c-74,136-78,122-10-32c60-138,20-116-74,40c-34,56-56,86-50,68
			c14-46,0-46-68,4c-38,28-62,34-70,18c-10-14-30-6-58,20c-56,52-98,22-72-48c10-26,14-50,8-56c-6-4,60-74,146-154s122-122,82-94
			c-88,64-116,70-66,14c36-40,36-42-2-28c-34,14-36,12-8-22c28-32,22-32-50,4c-44,24-116,56-160,74c-66,26-74,26-42,2
			c52-40,42-38-86,10c-168,64-140,36,60-60c160-76,398-256,398-300c0-8-22-12-52-8c-44,4-48,0-24-28c14-18,42-46,64-62
			c28-22,30-30,10-44c-20-12-10-20,38-30c44-10,64-24,64-50c0-22-2-40-4-44c-4-4,10-22,30-42c18-20,34-52,34-74c0-44-36-48-150-14
			c-44,12-86,22-94,20s-52,10-98,26c-118,42-144,34-38-10l90-40l-80,10c-60,8-70,6-40-8s2-20-110-24l-150-4l110-12l110-14l-130-20
			l-130-22l120-6l120-4l-120-26c-90-18-106-26-60-30l60-4l-64-20c-44-14-66-34-66-58c0-22,8-38,16-38c10,0,14-28,8-60l-8-62l70,34
			c62,30,76,30,106,6c30-26,30-28-14-42c-30-8-6-12,66-10c132,4,128-8-24-56c-132-44-108-62,26-22c52,16,94,24,94,20s-56-34-126-68
			c-68-34-108-56-88-50c22,6,62,16,90,22c50,10,50,8-10-26c-36-20-64-44-64-54c2-10-10-26-26-34c-22-14-22-18,2-18c22,0,22-6,0-34
			c-24-30-20-30,32,4c34,20,100,60,150,86c78,42,84,42,40,6c-140-116-260-230-260-250c0-10,30,8,66,40c34,34,96,82,134,108
			c54,36,40,14-60-92c-204-214-224-250-60-106c144,126,242,198,184,136c-12-14-24-46-24-70c0-26-48-102-112-176
			c-60-72-104-132-96-132c48,0,462,410,452,450c-2,14,8,36,24,48c22,18,30,16,40-12c8-20-10-64-50-120c-34-50-56-94-48-102
			c20-20,208,196,222,256c6,28,18,68,28,90c16,38,16,38,32,2c16-42-24-130-104-222c-26-30-48-68-48-82c0-36-72-162-142-248
			c-82-98-28-108,58-8c38,42,88,118,114,168c82,164,174,330,164,296c-6-18-18-68-26-110s-38-134-68-206s-62-152-70-180
			c-26-92,126,98,194,240c66,138,122,400,94,444c-30,48-22,156,14,156c22,0,28-12,18-40c-8-22-4-40,8-40s22,22,22,48
			c0,56,10,66,86,80c44,8,54,2,54-30c0-38,0-38,44,2c24,22,54,40,68,40c28,0,50-146,24-156c-26-12-18-64,10-66c12,0,2-10-26-22
			l-50-20l46-18c54-20,60-116,14-224c-42-100-38-128,20-166c46-30,58-30,156,2c168,54,178,70,122,206c-36,88-40,120-22,142
			c14,16,22,70,18,124c-8,90,22,158,66,158c6,0,30,18,54,40s56,40,70,40c34,0,32-10-6-48c-16-18-34-50-38-74c-8-34-4-38,22-16
			c44,36,62,2,68-132l2-60l26,50c20,32,22,60,10,84c-24,46-24,98,0,58c14-22,20-18,32,16c8,26,18,42,22,36c6-4,0-34-12-66
			c-18-54-18-56,10-20c30,38,30,38,32-10c0-26,18,10,40,80c20,72,50,144,68,160c26,28,30,20,34-68c2-88,4-92,12-30
			c10,66,12,64,36-50l28-120l-10,136c-4,74-6,134,0,134c4,0,22-46,40-102c18-56,38-96,44-92c4,6-10,60-30,122s-30,112-22,112
			s22-8,28-20c6-10,22-20,32-20c12,0,14,10,8,20c-24,38,18,18,292-140c280-160,350-194,258-118l-50,40l64-30c80-40,98-40,66-2
			c-14,16-18,30-8,30s-48,38-128,82c-80,46-142,86-136,92s26,4,46-4c20-10,42-16,50-14s50-10,94-26c78-26,82-26,82,10
			c0,28-10,36-34,26c-20-8-28-4-18,10c8,14-22,32-82,50l-96,30l110,4c94,4,102,6,50,20c-32,8-96,16-138,18c-48,2-88,16-104,36
			c-24,32-14,38,108,60l134,24l-142-6c-138-6-144-4-176,48c-18,32-32,70-32,88c0,18-8,32-20,32c-10,0-34,24-50,56
			c-18,30-26,36-18,14c28-80,20-120-22-116c-22,2-46-8-54-20c-12-18-16-18-16,2c0,14-8,22-18,14c-24-14-122,30-122,54
			c0,10-8,12-20,6c-30-18-24,2,18,72c34,56,40,58,60,24c18-32,20-32,22-2c0,18-10,40-20,46c-12,8-8,24,10,42c16,18,40,24,54,16
			c20-12,20-8,0,16c-22,26-18,34,30,46c34,10,46,18,28,26c-20,6-16,20,20,48c26,22,34,34,18,26s2,16,40,50s56,58,40,50
			c-16-6,34,48,110,120c108,104,126,126,74,100c-36-18-76-26-88-18s-16,6-10-6c8-12-2-34-20-48c-28-24-32-24-16,2c10,16-14,6-54-26
			l-74-54l-30,44c-26,38-34,38-64,14c-20-16-30-18-22-4c8,12,6,28-4,34c-10,6-24-4-32-24c-12-30-18-28-54,16c-24,28-38,36-30,18
			c8-24-2-32-38-32c-34,0-48,10-48,36c0,22,10,38,20,38c12,0,20,16,20,36s68,140,152,264c182,272,194,298,120,250
			c-62-42-76-32-76,42v56l-40-54c-22-30-52-54-66-54s-32-24-42-54c-10-42-16-48-22-20c-8,28-18,24-58-30c-26-36-56-84-68-106
			c-12-24-42-50-66-62c-24-10-42-32-38-46c2-14-4-20-14-14s-40-8-70-30c-28-22-52-32-52-20c0,10,10,26,20,32c12,8,14,22,8,34
			c-8,10-4,40,8,62c10,24,34,112,50,194c18,84,36,168,44,190c6,22-10,0-36-50c-78-152-96-184-108-174c-4,6,6,34,26,62
			c18,30,28,58,24,64c-10,10-116-156-116-182c0-6,10-6,20,0c32,20,24-22-10-50c-26-22-30-20-18,12c10,36,10,36-18,2
			c-26-30-30-30-40-4c-8,16-4,28,6,24c12-2,42,44,68,102c58,120,52,140-6,30c-22-42-40-62-42-46c0,16-16,6-32-26c-18-32-26-68-22-82
			c6-14-2-26-16-26s-20,18-16,42c8,34,6,36-12,12c-28-40-28-26,10,98c16,58,26,110,22,114c-16,18-74-228-62-264c10-32,8-32-10-8
			c-12,16-28,76-36,130l-14,100l-24-120l-26-120l8,190l6,190l-26-180l-24-180l-8,210l-6,210l-10-190l-12-190l-16,160
			c-24,232-28,240-34,50c-2-116-8-158-20-130c-16,36-18,36-20-10c-4-48-4-46-20,10c-8,34-22,96-30,140c-12,66-18,72-30,40
			c-12-34-18-28-30,36c-8,42-20,72-24,66c-6-6,0-56,14-110c38-156,12-168-38-16c-58,174-74,164-22-12c44-162,22-160-40,0
			c-26,64-54,126-64,136C9888.177,923.16,9888.177,909.16,9898.177,881.16z"/>
	</g>
</g>
<g>
	<g transform="translate(0.000000,150.000000) scale(0.100000,-0.100000)">
		<path fill="none" stroke="#000000" stroke-width="20" stroke-miterlimit="10" d="M13925.339,1331.163
			c-19.622-7.358-58.866-39.244-85.847-68.677c-41.696-44.15-46.603-68.677-31.886-159.429
			c24.527-134.902,12.264-144.713-228.106-183.957c-73.583-9.811-98.11-31.886-144.713-125.091l-58.866-110.374l-44.149,85.847
			c-58.866,112.827-169.241,174.146-247.729,134.902c-154.523-80.941-181.504-183.957-78.488-291.878l61.319-63.772l-61.319-58.866
			c-73.583-71.13-78.488-166.788-12.264-252.634c88.3-112.827,53.961-179.051-90.752-169.24
			c-49.056,4.906-80.941-4.906-80.941-24.528c0-14.717-22.074-51.508-49.055-80.941c-83.395-88.299-88.3-188.863-12.264-277.162
			c36.791-44.15,53.96-78.488,36.791-78.488c-14.717,0-44.149-17.169-63.771-36.791c-51.508-49.055-112.827-46.602-188.862,12.264
			c-112.827,88.299-245.276,51.508-274.71-78.488c-14.716-53.961-2.452-80.941,58.866-144.713
			c41.697-41.697,95.658-110.374,115.28-149.618c36.791-71.13,36.791-76.036-26.98-142.26
			c-83.394-88.299-132.449-353.197-80.941-458.666c41.697-88.299,144.713-103.016,213.391-34.339
			c29.433,29.433,56.413,51.508,61.318,51.508c4.906,0,31.887-36.791,58.866-83.394c26.98-46.602,107.922-122.638,181.505-171.693
			c107.921-73.583,152.071-88.299,257.54-88.299c230.559,0,284.52,122.638,137.354,313.953
			c-34.339,44.15-56.414,88.299-49.056,95.658s80.941,4.906,164.335-4.906c139.808-17.169,149.618-22.075,137.354-71.13
			c-31.886-127.544,127.544-208.485,247.729-125.091c44.15,31.886,63.772,31.886,166.788-2.453
			c61.319-22.075,120.186-56.413,127.544-73.583c7.357-17.169,14.716-191.315,14.716-382.631l4.906-350.745l90.752-7.358
			l88.299-7.358l-9.811,147.166c-4.906,83.394-14.717,218.296-19.622,299.237c-9.812,129.996-4.906,152.071,34.338,161.882
			c24.528,7.358,51.509,39.244,58.867,71.13c9.811,39.244,56.413,78.488,137.354,120.185
			c139.807,71.13,171.692,31.886,41.696-49.055c-95.657-61.319-110.374-147.166-53.961-338.481
			c41.697-144.713,90.753-179.052,193.769-139.807c76.035,29.433,100.563,66.224,149.618,233.012l41.697,147.166l53.961-68.677
			c71.13-88.299,198.673-93.205,240.37-7.358l26.98,61.319l68.677-51.508c66.225-49.055,71.13-49.055,132.449-9.811
			c34.339,22.075,68.678,73.583,76.036,112.827c14.716,68.677,17.169,68.677,98.11,34.339
			c103.016-44.15,191.314-9.811,233.012,90.752c22.075,58.866,22.075,80.941-12.264,132.449
			c-44.149,68.677-206.032,159.429-255.087,142.26c-49.056-17.169-152.071,14.717-152.071,46.602
			c0,14.717-17.169,46.603-36.791,68.677c-29.434,34.339-31.887,53.961-4.906,125.091c34.339,98.11,56.414,117.732,115.28,103.016
			c49.055-12.264,73.583,51.508,73.583,191.315c0,71.13-14.717,100.563-63.772,132.449c-36.791,22.075-80.94,44.15-98.11,46.602
			c-51.508,7.358-93.205,56.413-63.771,73.583c12.264,7.358,36.791-2.453,53.961-22.075
			c68.677-83.394,196.221-12.264,196.221,105.469c0,36.791-39.244,120.185-85.847,186.41s-85.847,132.449-85.847,147.166
			c2.453,29.433,198.674,161.882,237.918,161.882c22.074,0-44.15,154.524-115.28,269.804
			c-12.264,19.622-44.149,90.752-76.035,154.524c-56.413,129.996-129.996,179.051-225.654,154.524
			c-78.488-19.622-103.016-115.28-53.96-208.485c36.791-71.13,36.791-73.583-29.434-61.319
			c-85.847,17.169-110.374,31.886-90.752,63.772c7.358,12.264-26.98,66.225-76.036,117.732
			c-58.866,61.319-88.299,110.374-80.94,139.807c17.169,61.319-56.414,183.957-134.902,228.107
			c-58.866,31.886-73.582,31.886-132.448,0c-39.245-22.075-83.395-71.13-103.017-110.374l-34.339-71.13l-22.074,58.866
			c-12.264,34.339-17.17,90.752-9.812,127.544s2.453,73.583-9.811,80.941c-14.717,7.358-24.527,34.339-24.527,56.414
			c-2.453,22.075-19.622,63.772-44.15,93.205c-49.055,56.413-201.126,120.185-201.126,80.941c0-14.717-24.527-7.358-53.961,12.264
			C13984.205,1350.785,13981.752,1350.785,13925.339,1331.163z"/>
	</g>
</g>
<g>
	<g transform="translate(0.000000,150.000000) scale(0.100000,-0.100000)">
		<path fill="none" stroke="#000000" stroke-width="20" stroke-miterlimit="10" d="M17857.523,1282.849
			c-67.098-27.336-156.563-64.613-198.809-82.009c0,0-79.008-14.712-74.555-34.792c4.441-20.016,82.01,0,82.01,0
			c42.246-2.485,79.523-12.426,79.523-27.336c0-12.426,19.881-24.851,44.732-24.851c32.307,0,34.791-4.97,7.455-22.366
			c-17.396-12.426-64.613-12.426-101.891-2.485c-74.553,22.366-191.354-17.396-243.541-82.009
			c-19.881-22.366-96.92-72.068-173.957-109.345c-129.227-62.128-136.682-67.098-72.068-77.039
			c37.275-4.97,67.098-19.881,67.098-34.792c0-12.426,19.881-17.396,42.246-9.94c37.277,14.911,37.277,12.426,4.971-27.336
			c-62.127-74.554-119.285-248.512-91.949-275.848c17.396-17.396-2.484-39.762-64.613-64.613
			c-121.77-49.702-116.801-91.949,9.941-77.039c129.225,17.396,126.74-22.366-4.971-89.464
			c-54.672-27.336-91.949-59.643-79.523-67.098c12.426-9.94,22.365-34.792,22.365-54.673c0-22.366,17.396-34.792,44.732-29.821
			c22.365,4.97,67.098-9.94,96.92-29.821c52.188-37.277,52.188-37.277-42.248-91.949c-52.188-32.307-82.008-62.128-67.098-67.098
			c14.91-4.97,19.881-24.851,12.426-44.732s2.484-34.792,19.881-34.792s22.365-7.455,14.91-17.396
			c-9.939-7.455-4.969-29.821,9.941-47.217c19.881-24.851,4.971-42.247-62.129-69.583c-49.701-19.881-89.463-54.673-89.463-77.039
			c0-24.851,12.426-32.307,29.82-22.366c17.396,9.94,62.129,22.366,101.891,27.336c96.92,9.94,77.039-39.762-44.732-101.89
			c-52.188-27.336-84.494-52.187-67.098-59.643c14.91-4.97,19.881-24.851,12.426-47.217c-12.426-32.307-2.486-37.277,49.701-22.366
			c39.762,9.94,67.098,4.97,67.098-9.94c0-52.187,52.188-22.366,77.039,44.732c32.307,77.039,59.643,34.792,37.277-57.158
			c-9.941-39.762-57.158-82.009-134.197-121.771c-64.611-34.792-96.918-62.128-74.553-64.613c29.822,0,37.277-12.426,27.336-39.762
			c-12.426-34.792-4.971-39.762,49.703-27.336c39.762,12.426,67.098,4.97,77.039-14.911c9.939-19.881,19.881-22.366,27.336-2.485
			c7.455,14.911,29.82,49.702,49.701,74.554c32.307,44.732,34.793,44.732,22.367-4.97c-12.426-47.217-4.971-52.187,62.127-44.732
			c109.346,12.426,94.436-19.881-39.762-89.464c-101.889-49.702-109.346-62.128-62.127-69.583
			c29.82-4.97,54.672-19.881,54.672-34.792c0-14.911,22.365-7.455,52.188,19.881c42.248,37.277,57.158,39.762,101.891,12.426
			c37.275-22.366,57.156-24.851,77.037-4.97c14.912,14.911,49.703,27.336,74.555,27.336c34.791,0,44.732,12.426,34.791,49.702
			c-12.426,49.702,34.791,57.158,99.404,17.396c34.793-22.366,67.1,19.881,44.732,57.158
			c-32.307,52.187,14.91,124.256,79.523,124.256c54.674,0,59.643-4.97,29.822-39.762c-24.852-32.307-24.852-42.247,0-57.158
			c24.852-17.396,29.82-171.473,24.852-733.109l-9.941-710.744h57.158h54.672v705.773c0,559.151,7.455,710.743,32.307,733.109
			c19.881,14.911,42.248,19.881,49.703,9.94c9.939-7.455,34.791,9.94,59.643,39.762c42.246,52.188,47.217,52.188,126.74,12.426
			c62.129-29.821,79.523-52.187,72.068-86.979c-14.91-52.188,7.455-62.128,47.219-22.366c17.395,17.396,24.85,9.94,24.85-27.336
			c-2.484-74.554,54.674-89.464,79.523-22.366c17.396,49.702,22.367,49.702,52.188,14.911
			c34.793-42.247,101.891-54.673,101.891-17.396c0,12.426-14.91,34.792-34.791,52.187c-39.762,29.821-24.852,109.345,12.426,84.494
			c14.91-7.455,39.762,0,59.643,14.911s47.217,22.366,62.127,12.426c49.703-32.307,9.941,208.75-44.732,268.393
			c-69.582,74.554-69.582,86.979,7.457,72.068c34.791-4.97,62.127,0,62.127,12.426c0,12.426-27.336,39.762-62.127,57.158
			c-34.793,17.396-62.129,42.247-62.129,52.187c0,34.792,52.188,52.187,82.01,24.851c19.881-14.911,44.73-14.911,67.098,0
			c39.762,24.851,24.852,42.247-109.346,131.711c-47.217,29.821-47.217,32.307,2.486,82.009
			c39.762,39.762,59.643,44.732,82.008,22.366c19.881-19.881,27.336,2.485,22.365,91.949
			c-4.969,67.098-14.91,124.256-27.336,131.711c-34.791,22.366-22.365,59.643,24.852,62.128s27.336,9.94-74.553,32.307
			c-39.762,9.94-69.584,24.851-69.584,37.277c0,14.911,29.822,14.911,74.553,2.485c91.951-27.336,96.92,4.97,12.426,59.643
			s-57.156,89.464,57.158,74.554c0,0,81.535-35.74,91.949-14.911s-67.098,64.613-67.098,64.613
			c-39.762,34.792-89.465,74.554-111.83,86.979c-37.277,22.366-37.277,29.821-9.941,49.702
			c24.852,14.911,24.852,24.851,2.486,39.762c-22.367,12.426-9.941,37.277,37.275,77.039c64.613,57.158,67.1,62.128,29.822,104.375
			c-47.217,49.702-57.158,91.949-17.396,67.098c14.912-7.455,24.852-4.97,24.852,9.94c0,12.426,24.852,27.336,57.158,32.307
			c29.82,4.97-57.158,29.821-193.84,54.673c-228.631,42.247-335.49,89.464-335.49,144.137c0,12.426,12.426,14.911,24.852,7.455
			c14.91-7.455,24.85-2.485,24.85,12.426c0,14.911-29.82,39.762-64.611,54.673c-39.764,19.881-59.645,44.732-52.188,72.068
			c9.939,32.307-12.426,44.732-116.801,57.158C18028.996,1342.492,17996.689,1340.006,17857.523,1282.849z"/>
	</g>
</g>
<g>
	<g transform="translate(0.000000,150.000000) scale(0.100000,-0.100000)">
		<path fill="none" stroke="#000000" stroke-width="20" stroke-miterlimit="10" d="M21663.133,1228.145
			c-58.791-46.543-124.932-88.187-146.979-88.187c-134.729-12.248-169.023-17.147-235.164-46.543
			c-39.195-17.147-90.637-29.396-115.133-26.946c-22.047,2.45-46.543-7.349-56.342-22.047c-7.35-12.248-51.441-24.496-97.984-24.496
			c-88.188,0-137.18-39.194-75.939-63.69s-29.396-129.831-110.234-132.28c-78.387,0-154.326-73.489-80.838-73.489
			c44.094-2.45,44.094-2.45-2.449-29.396c-26.945-14.698-53.891-34.295-61.24-44.093c-7.35-7.349-29.396-22.047-51.443-29.396
			c-22.045-9.799-58.791-48.993-78.387-90.636c-31.846-66.14-31.846-71.039,4.898-58.791c22.047,7.349,53.893,26.946,73.488,41.644
			c29.396,22.047,31.846,19.597,14.699-9.799c-12.248-19.597-19.598-56.342-17.148-78.388c4.9-24.496-4.898-44.093-17.146-44.093
			c-14.699,0-26.947-12.248-26.947-29.396s-29.395-53.892-66.139-85.737c-58.791-46.543-63.691-53.892-22.047-56.342
			c46.543,0,46.543-2.45,4.898-31.845c-34.295-24.496-36.744-41.644-17.146-100.435c14.697-36.744,19.596-80.838,12.248-93.086
			c-12.248-17.147,2.449-22.047,36.744-12.248c31.846,7.349,48.992,7.349,41.645,0c-7.35-7.349,2.449-29.396,22.045-48.993
			c19.598-19.597,36.746-53.892,36.746-75.939c0-53.892,90.637-134.73,124.93-112.683c14.699,7.349,22.047-2.45,17.148-26.946
			c-9.799-58.791,71.039-110.233,100.436-63.69c14.697,24.496,46.543,29.396,107.783,17.147
			c58.791-12.248,88.188-7.349,95.535,14.698c9.799,24.496,19.598,24.496,51.443-2.45c34.295-26.946,44.094-26.946,53.891,0
			c14.699,39.194,159.227,51.442,159.227,14.698c0-12.248,22.047-17.147,48.992-9.799c24.498,7.349,51.443,0,56.342-14.698
			c4.9-17.147,34.295-2.45,71.039,34.295l61.242,61.241l41.643-105.334c24.496-58.791,51.443-105.334,63.691-105.334
			c34.295,0,78.389,73.489,66.141,110.233c-9.799,19.597-4.9,41.644,7.348,48.993c14.697,9.799,24.496-4.899,24.496-26.946
			c0-34.295,7.35-36.745,29.396-14.698c17.146,17.147,44.094,29.396,63.689,29.396c24.496,0,24.496-9.799-4.898-53.892
			c-48.992-68.59-51.443-120.032-2.449-102.885c31.844,12.248,36.744-39.194,39.193-372.344
			c4.9-1104.784,22.047-1491.826,58.791-1499.175c19.598-4.899,44.094,7.349,51.443,29.396c7.348,19.597,2.449,347.848-9.799,729.99
			c-14.697,382.143-17.148,786.332-9.799,901.465c17.146,203.32,17.146,208.219,85.736,213.118
			c39.195,2.45,66.141-7.349,66.141-26.946c0-17.147,22.047-51.442,48.992-75.939c44.094-41.644,46.543-39.194,63.691,22.047
			c7.348,36.745,22.047,58.791,29.395,51.442c7.35-7.349,34.295,4.899,58.791,29.396c48.994,44.093,95.537,24.496,48.994-22.047
			c-17.148-17.147-29.396-53.892-29.396-85.737c0-85.737,71.039-71.039,90.637,17.147c17.148,88.187,63.691,95.536,117.582,19.597
			c34.295-51.442,41.645-51.442,68.59-17.147c48.992,63.69,127.381,97.985,159.227,66.14c19.598-19.597,44.094-14.698,90.637,14.698
			c58.791,39.194,63.689,39.194,115.133-7.349c58.791-56.342,93.086-46.543,93.086,26.946c0,26.946,19.596,53.892,48.992,61.241
			c26.945,7.349,48.992,31.845,48.992,53.892c2.449,26.946,12.248,19.597,36.744-22.047c36.746-61.241,36.746-61.241,26.947,24.496
			c-4.9,58.791,4.898,100.435,36.744,132.28c44.094,44.093,46.543,44.093,68.59-19.597c34.295-85.737,58.791-80.838,46.543,7.349
			c-7.35,51.442-2.449,68.59,22.047,58.791c31.846-12.248,41.643,17.147,31.846,90.636c-2.451,29.396,2.449,31.845,26.945,7.349
			c61.24-61.241,78.389-31.845,19.598,34.295c-44.094,48.993-48.994,61.241-14.699,48.993c51.443-19.597,53.893,14.698,4.9,56.342
			c-19.598,17.147-36.744,41.644-36.744,53.892c0,14.698,17.146,19.597,36.744,9.799c19.596-7.349,36.744-2.45,36.744,9.799
			c0,14.698-14.697,24.496-29.396,24.496c-17.146,0-56.34,19.597-88.186,44.093c-48.992,36.744-53.893,53.892-31.846,107.784
			c17.148,48.993,17.148,68.59-7.35,75.939c-39.193,14.698-68.59,139.629-31.844,139.629c12.248,0,9.797,17.147-7.35,36.745
			c-22.047,24.496-22.047,46.543-4.898,68.59c31.844,36.745-29.396,112.683-205.77,257.211
			c-90.637,73.489-149.428,102.885-203.32,102.885c-46.543,0-73.488,9.799-63.689,24.496c7.348,14.698,4.898,24.496-9.799,24.496
			c-12.248,0-39.195,14.698-58.791,34.295c-19.598,19.597-66.141,39.194-105.334,46.543c-39.195,4.899-90.637,17.147-115.133,26.946
			c-22.047,12.248-66.141,14.698-97.986,4.899c-29.395-7.349-83.287,2.45-117.582,19.597s-127.381,34.295-208.219,36.745
			c-78.389,2.45-146.979,14.698-151.877,26.946c-4.9,14.698-61.24,24.496-122.482,24.496
			C21790.514,1313.883,21751.32,1296.735,21663.133,1228.145z"/>
	</g>
</g>
<g>
	<g transform="translate(0.000000,150.000000) scale(0.100000,-0.100000)">
		<path fill="none" stroke="#000000" stroke-width="20" stroke-miterlimit="10" d="M25868.914,1130.24
			c-59.107-11.822-191.51-30.736-295.539-40.193c-319.182-35.465-498.869-163.137-543.791-387.747
			c-14.186-68.565-163.139-167.866-297.904-193.874c-99.301-18.914-191.508-94.572-248.252-203.331
			c-52.016-101.665-59.107-328.639-9.457-392.476c18.914-26.007,23.643-37.829,14.186-28.372
			c-11.822,9.457-56.744-37.829-101.666-104.03c-63.836-101.665-78.021-144.223-75.658-243.524
			c2.365-108.758,35.465-290.81,42.559-236.431c2.363,14.186,23.643-7.093,47.285-42.558c23.645-37.829,52.016-63.836,63.838-59.108
			c11.82,4.729,23.643-47.286,28.371-113.487c4.729-101.665-2.365-127.673-56.744-186.781
			c-94.572-104.03-132.4-215.152-151.314-449.219c-28.373-338.097,61.471-413.755,252.98-210.424
			c89.844,92.208,113.486,106.394,167.865,92.208c35.465-7.093,66.201-23.643,70.93-35.465c4.729-11.822,35.465-9.457,66.201,4.729
			c47.287,21.279,63.836,21.279,78.023-2.364c14.186-23.643,21.277-21.279,33.1,4.729c11.822,33.1,28.371,33.1,137.131,4.729
			c127.672-33.1,174.959-23.643,231.701,44.922c18.914,21.279,40.193,33.1,49.65,26.007s26.008,23.643,33.102,66.201
			c28.371,141.859,44.922,146.587,163.137,30.736c59.107-59.108,115.852-132.401,122.945-160.773
			c9.457-30.736,42.557-89.844,75.656-132.401c52.016-70.929,56.744-89.844,40.193-241.16l-16.549-165.502h108.758h106.395
			l-14.186,203.331c-9.459,156.045-4.729,208.059,18.914,222.245c37.828,23.643,99.301-44.922,78.021-82.751
			c-7.092-11.822,0-9.457,18.914,7.093c26.008,23.643,40.193,18.915,73.295-23.643c33.1-42.558,42.557-44.922,42.557-16.55
			c0,26.007,33.102,47.286,96.938,63.836c106.395,26.007,141.859,18.914,236.432-49.651c82.75-59.108,182.051-44.922,243.523,37.829
			c40.193,54.379,47.287,94.572,42.559,219.881c-4.73,125.308,0,148.952,30.734,137.13c18.916-9.457,35.465-33.1,35.465-54.379
			c0-30.736,4.729-30.736,21.279-4.729c11.822,16.55,33.1,23.643,47.287,16.55c14.186-9.457,21.277-26.007,14.186-35.465
			c-4.729-11.822,54.379-21.279,130.037-23.643c78.021-2.364,165.502-11.822,196.238-23.643
			c89.844-30.736,420.848-14.186,444.49,23.643c11.82,18.914,21.279,122.944,21.279,234.067
			c0,208.059-11.822,245.889-125.309,371.197c-35.465,40.193-47.287,89.844-49.65,189.145
			c-2.365,101.665-21.279,172.595-70.93,267.167c-37.83,75.658-70.93,184.416-78.023,260.074
			c-14.186,151.316-89.844,283.717-193.873,345.19c-42.557,26.007-78.021,68.565-87.48,111.123
			c-7.092,37.829-61.471,120.58-118.215,184.416s-104.029,139.494-104.029,165.502c0,63.836-78.023,212.788-146.588,271.896
			c-63.836,59.108-191.51,127.673-238.795,127.673c-16.551,0-66.201,37.829-111.123,82.751
			c-111.123,115.851-316.818,174.959-442.127,127.673c-37.828-14.186-52.014-14.186-42.557,2.364
			c7.092,14.186,11.822,21.279,7.092,21.279C25977.672,1151.518,25928.021,1142.061,25868.914,1130.24z"/>
	</g>
</g>
<g>
	<g transform="translate(0.000000,150.000000) scale(0.100000,-0.100000)">
		<path fill="none" stroke="#000000" stroke-width="20" stroke-miterlimit="10" d="M29758.803,987.846
			c-16.748-35.888-50.244-50.243-107.664-50.243c-43.064,0-110.057-11.963-148.336-26.318
			c-35.889-14.355-88.523-28.71-114.842-33.495c-26.316-2.393-55.027-7.178-66.99-9.57c-9.57,0-14.355-16.748-11.963-31.103
			c4.785-16.748-9.57-31.103-31.102-31.103c-19.141,0-71.775-35.888-114.842-81.346c-69.383-71.776-83.738-76.561-136.373-52.635
			c-95.701,43.065-136.373,31.103-220.111-55.028c-62.207-66.991-69.385-86.131-43.066-107.663
			c19.141-16.748,31.104-55.028,26.318-88.523c-7.178-66.991,28.709-93.308,167.477-117.233
			c102.877-19.14,322.99-122.018,322.99-150.729c0-9.57-11.963-33.495-23.926-52.635c-21.533-31.103-28.711-31.103-57.42,4.785
			c-16.748,23.925-71.775,59.813-119.627,78.953c-86.131,35.888-88.523,35.888-148.336-35.888
			c-33.496-38.28-100.486-81.346-153.121-95.701c-50.242-14.355-98.094-40.673-105.271-59.813s-28.709-35.888-50.242-35.888
			c-19.141,0-35.889-11.963-35.889-23.925c0-14.355-26.316-38.28-59.813-52.635c-33.494-14.355-59.813-45.458-59.813-69.383
			c0-21.533-11.963-45.458-26.318-50.243c-21.533-7.178-21.533-28.71-4.785-78.953c23.926-71.776,23.926-71.776,186.617-62.206
			c88.523,4.785,196.186,16.748,236.859,28.71c83.738,23.925,229.682,28.71,229.682,7.178c0-57.42-179.439-136.374-239.252-105.271
			c-31.104,16.748-50.242,14.355-69.383-9.57c-16.748-21.533-76.561-33.495-145.943-33.495
			c-66.99-2.393-129.197-7.178-141.158-16.748c-11.963-7.178-50.244,0-83.738,16.748c-55.029,23.925-69.385,19.14-122.02-28.71
			c-66.99-64.598-76.561-114.841-23.926-133.981c19.141-9.57,35.889-33.495,35.889-57.42c0-76.561,136.373-169.869,248.822-167.476
			c138.766,4.785,189.008-9.57,196.186-55.028c2.393-28.71-19.139-43.065-81.346-55.028c-50.242-9.57-107.662-31.103-129.195-50.243
			s-50.242-28.71-62.205-21.533c-11.963,7.178-57.422-2.392-100.486-23.925l-74.168-38.28l50.242-55.028
			c40.674-43.065,69.383-52.635,150.729-43.065c78.953,9.57,110.057,2.392,143.553-35.888
			c26.316-26.318,59.813-43.065,78.953-35.888c19.139,7.178,33.494-2.393,33.494-23.925c0-19.14-21.531-40.673-50.242-47.85
			c-40.674-11.963-45.459-21.533-23.926-59.813c19.141-35.888,19.141-52.635-4.785-59.813c-21.533-7.177-21.533-21.533-2.393-55.028
			c21.533-35.888,52.637-45.458,162.691-43.065c74.168,2.393,150.729,19.14,172.262,35.888
			c19.141,16.748,76.561,33.495,126.803,35.888c47.852,2.392,141.16,26.318,205.758,50.243
			c148.336,59.813,318.205,100.486,334.953,81.346c9.57-7.177,31.102-14.355,52.635-14.355c31.104,0,35.889-35.888,33.496-227.289
			c-4.785-246.43-26.318-291.887-153.121-346.915c-64.6-26.318-59.814-28.71,102.877-59.813
			c150.729-28.71,184.225-28.71,282.318,7.178c62.205,23.925,133.98,40.673,157.906,40.673c71.775,0,14.355,43.065-69.383,52.635
			c-100.486,9.57-136.375,90.916-126.805,287.102c9.57,169.869,26.318,212.934,69.383,169.869
			c14.355-14.355,43.066-21.533,62.207-14.355c28.709,11.963,33.494,2.393,21.531-35.888c-14.355-40.673-7.178-45.458,33.496-35.888
			c26.318,7.177,47.85,2.392,47.85-9.57c0-14.355,57.422-31.103,126.805-38.28c133.98-16.748,327.775,40.673,327.775,95.701
			c0,33.495,193.793,16.748,270.354-21.533c28.711-14.355,57.42-9.57,93.309,16.748c31.104,19.14,86.131,35.888,126.803,35.888
			c40.674,0,86.131,11.963,100.486,26.318c38.281,38.28,7.178,143.551-47.85,162.691c-45.459,16.748-45.459,19.14,16.748,35.888
			c47.85,11.963,81.344,4.785,107.662-21.533c47.852-40.673,145.943-47.85,145.943-11.963c0,14.355,35.889,23.925,78.953,19.14
			c167.477-9.57,258.393,86.131,222.506,234.467c-31.104,124.411-196.188,200.972-270.355,126.803
			c-14.355-14.355-45.457-21.533-69.383-14.355c-40.674,9.57-40.674,14.355,9.57,28.71c57.42,19.14,69.383,69.383,23.924,100.486
			c-16.746,9.57-31.102,35.888-31.102,55.028c0,26.318-23.926,35.888-81.346,31.103c-50.244-2.393-69.383,4.785-50.244,16.748
			c16.748,9.57,26.318,40.673,16.748,69.383c-11.963,45.458-4.785,50.243,95.701,40.673c59.813-4.785,138.766,2.393,177.047,16.748
			c78.953,31.103,86.131,76.561,35.887,267.962c-26.316,98.093-50.242,131.589-133.98,189.009
			c-59.813,40.673-136.373,69.383-186.617,71.776c-71.775,2.393-88.523-7.178-102.877-57.42
			c-9.57-33.495-16.748-45.458-19.141-26.318s-16.748,26.318-38.281,16.748c-21.531-7.178-35.887-2.393-33.494,16.748
			c11.963,88.523-4.785,110.056-90.916,126.804c-133.98,23.925-169.869,47.85-107.664,66.991
			c31.104,9.57,52.637,38.28,52.637,62.206c0,66.991,86.131,102.878,220.111,90.916c78.953-9.57,112.447-4.785,107.664,14.355
			c-4.785,14.355,0,45.458,11.961,69.383c16.748,31.103,11.963,40.673-21.531,40.673c-38.281,2.393-174.654,100.486-174.654,129.196
			c0,4.785,23.926,14.355,52.635,19.14c40.674,4.785,55.027,23.925,57.42,83.738c4.785,88.523-40.672,110.056-133.98,62.206
			c-83.738-43.065-153.121-40.673-133.98,4.785c14.355,40.673-45.459,50.243-69.383,11.963
			c-7.178-11.963-45.459-23.925-81.346-23.925c-47.852,0-71.775-14.355-81.346-47.85c-7.178-26.318-28.711-47.85-50.244-47.85
			c-21.531,0-38.279-7.178-38.279-19.14c0-9.57-43.066-14.355-95.701-9.57c-112.449,11.963-136.373,76.561-28.711,76.561
			c38.281,0,86.131,19.14,107.664,43.065c33.496,35.888,33.496,45.458,2.393,88.523c-28.711,38.28-59.813,45.458-162.691,40.673
			c-143.551-4.785-196.186,28.71-98.094,66.991c66.99,26.318,69.383,88.523,4.785,76.561c-19.141-2.393-43.064,4.785-52.635,19.14
			c-21.533,35.888-100.486,28.71-117.234-11.963c-19.139-50.243-105.27-45.458-100.484,7.178
			c2.393,33.495-19.141,40.673-105.271,43.065c-59.813,0-126.803,9.57-148.336,19.14
			C29799.475,1030.911,29777.941,1021.341,29758.803,987.846z"/>
	</g>
</g>
</svg>
