<?xml version="1.0" encoding="UTF-8" standalone="no"?>
<!-- Generator: Adobe Illustrator 17.0.0, SVG Export Plug-In . SVG Version: 6.00 Build 0)  -->

<svg
   xmlns:dc="http://purl.org/dc/elements/1.1/"
   xmlns:cc="http://creativecommons.org/ns#"
   xmlns:rdf="http://www.w3.org/1999/02/22-rdf-syntax-ns#"
   xmlns:svg="http://www.w3.org/2000/svg"
   xmlns="http://www.w3.org/2000/svg"
   xmlns:sodipodi="http://sodipodi.sourceforge.net/DTD/sodipodi-0.dtd"
   xmlns:inkscape="http://www.inkscape.org/namespaces/inkscape"
   version="1.1"
   id="Слой_1"
   x="0px"
   y="0px"
   width="144.87801"
   height="96.670334"
   viewBox="0 0 144.87801 96.670334"
   enable-background="new 0 0 1200 150"
   xml:space="preserve"
   sodipodi:docname="0.svg"
   inkscape:version="0.92.4 (5da689c313, 2019-01-14)"><metadata
   id="metadata1169"><rdf:RDF><cc:Work
       rdf:about=""><dc:format>image/svg+xml</dc:format><dc:type
         rdf:resource="http://purl.org/dc/dcmitype/StillImage" /><dc:title></dc:title></cc:Work></rdf:RDF></metadata><defs
   id="defs1167" /><sodipodi:namedview
   pagecolor="#ffffff"
   bordercolor="#666666"
   borderopacity="1"
   objecttolerance="10"
   gridtolerance="10"
   guidetolerance="10"
   inkscape:pageopacity="0"
   inkscape:pageshadow="2"
   inkscape:window-width="1920"
   inkscape:window-height="1017"
   id="namedview1165"
   showgrid="false"
   fit-margin-top="0"
   fit-margin-left="0"
   fit-margin-right="0"
   fit-margin-bottom="0"
   inkscape:zoom="0.94666667"
   inkscape:cx="621.74924"
   inkscape:cy="-96.844926"
   inkscape:window-x="-8"
   inkscape:window-y="-8"
   inkscape:window-maximized="1"
   inkscape:current-layer="Слой_1" />
<g
   id="g170"
   transform="translate(-2.463,-27.792667)">
	<circle
   cx="39.323002"
   cy="108.629"
   r="15.834"
   id="circle2"
   style="fill:#2e2f2f" />
	<circle
   cx="39.323002"
   cy="108.629"
   r="10.324"
   id="circle4"
   style="fill:#c3c2c2" />
	<circle
   cx="39.323002"
   cy="108.629"
   r="8.526"
   id="circle6"
   style="fill:#555555" />
	<g
   id="g28">
		<g
   id="g16">
			<g
   id="g10">
				<polygon
   points="39.922,108.03 47.303,104.18 45.537,102.415 43.771,100.649 "
   id="polygon8"
   style="opacity:0.4;fill:#c3c2c2" />
			</g>
			<g
   id="g14">
				<polygon
   points="38.724,109.228 34.874,116.609 33.108,114.843 31.342,113.078 "
   id="polygon12"
   style="opacity:0.4;fill:#c3c2c2" />
			</g>
		</g>
		<g
   id="g26">
			<g
   id="g20">
				<polygon
   points="38.724,108.03 34.874,100.649 33.108,102.415 31.342,104.18 "
   id="polygon18"
   style="opacity:0.4;fill:#c3c2c2" />
			</g>
			<g
   id="g24">
				<polygon
   points="39.922,109.228 47.303,113.078 45.537,114.843 43.771,116.609 "
   id="polygon22"
   style="opacity:0.4;fill:#c3c2c2" />
			</g>
		</g>
	</g>
	<circle
   cx="39.323002"
   cy="108.629"
   r="4.1760001"
   id="circle30"
   style="fill:#c3c2c2" />
	<circle
   cx="131.507"
   cy="108.629"
   r="15.834"
   id="circle32"
   style="fill:#2e2f2f" />
	<circle
   cx="131.507"
   cy="108.629"
   r="10.324"
   id="circle34"
   style="fill:#c3c2c2" />
	<circle
   cx="131.507"
   cy="108.629"
   r="8.526"
   id="circle36"
   style="fill:#555555" />
	<g
   id="g58">
		<g
   id="g46">
			<g
   id="g40">
				<polygon
   points="132.106,108.03 139.487,104.18 137.721,102.415 135.955,100.649 "
   id="polygon38"
   style="opacity:0.4;fill:#c3c2c2" />
			</g>
			<g
   id="g44">
				<polygon
   points="130.908,109.228 127.058,116.609 125.292,114.843 123.526,113.078 "
   id="polygon42"
   style="opacity:0.4;fill:#c3c2c2" />
			</g>
		</g>
		<g
   id="g56">
			<g
   id="g50">
				<polygon
   points="130.908,108.03 127.058,100.649 125.292,102.415 123.526,104.18 "
   id="polygon48"
   style="opacity:0.4;fill:#c3c2c2" />
			</g>
			<g
   id="g54">
				<polygon
   points="132.106,109.228 139.487,113.078 137.721,114.843 135.955,116.609 "
   id="polygon52"
   style="opacity:0.4;fill:#c3c2c2" />
			</g>
		</g>
	</g>
	<circle
   cx="131.507"
   cy="108.629"
   r="4.1760001"
   id="circle60"
   style="fill:#c3c2c2" />
	<path
   d="m 67.952,109.603 c 0,0 4.257,5.649 7.778,6.304 3.52,0.655 24.725,-0.082 31.275,-4.421 l -34.713,-3.93 z"
   id="path62"
   inkscape:connector-curvature="0"
   style="fill:#2e2f2f" />
	<ellipse
   cx="115.483"
   cy="49.581001"
   rx="2.46"
   ry="4.211"
   id="ellipse64"
   style="fill:#e7d888" />
	<polygon
   points="115.858,54.71 112.939,53.792 113.023,45.87 115.608,44.786 "
   id="polygon66"
   style="fill:#e84620" />
	<polygon
   points="107.664,59.964 114.441,74.641 109.687,76.225 104.85,61.381 "
   id="polygon68"
   style="fill:#b53118" />
	<path
   d="m 114.095,73.418 c 0,0 -7.276,0 -7.969,1.27 -0.693,1.271 -0.693,14.322 -0.808,15.592 -0.116,1.27 1.155,4.966 3.927,5.775 l 7.969,-13.629 z"
   id="path70"
   inkscape:connector-curvature="0"
   style="fill:#09ae9e" />
	<g
   id="g80">
		<path
   d="m 78.311,108.95 c 0,0 -7.591,4.277 -19.888,2.673 C 51.07,110.664 46.341,100.717 54.36,98.899 Z"
   id="path72"
   inkscape:connector-curvature="0"
   style="fill:#555555" />
		<path
   d="m 73.927,103.925 c 0,0.354 -0.287,0.642 -0.642,0.642 H 52.971 c -0.354,0 -0.642,-0.287 -0.642,-0.642 v 0 c 0,-0.354 0.287,-0.642 0.642,-0.642 h 20.315 c 0.354,0 0.641,0.287 0.641,0.642 z"
   id="path74"
   inkscape:connector-curvature="0"
   style="fill:#2e2f2f" />
		<path
   d="m 75.21,106.277 c 0,0.354 -0.287,0.642 -0.642,0.642 H 54.254 c -0.354,0 -0.642,-0.287 -0.642,-0.642 v 0 c 0,-0.354 0.287,-0.642 0.642,-0.642 h 20.315 c 0.354,0 0.641,0.287 0.641,0.642 z"
   id="path76"
   inkscape:connector-curvature="0"
   style="fill:#2e2f2f" />
		<path
   d="m 76.494,108.629 c 0,0.354 -0.287,0.642 -0.642,0.642 H 55.537 c -0.354,0 -0.642,-0.287 -0.642,-0.642 v 0 c 0,-0.354 0.287,-0.642 0.642,-0.642 h 20.315 c 0.354,0.001 0.642,0.288 0.642,0.642 z"
   id="path78"
   inkscape:connector-curvature="0"
   style="fill:#2e2f2f" />
	</g>
	<path
   d="m 80.683,101.853 c 0,0 17.125,4.805 20.452,5.298 3.326,0.493 6.53,-3.08 6.53,-6.16 l 0.986,4.805 -1.725,3.573 -10.842,0.616 c 0,0 -14.291,-2.218 -14.415,-2.587 -0.124,-0.371 -0.986,-5.545 -0.986,-5.545 z"
   id="path82"
   inkscape:connector-curvature="0"
   style="fill:#b53118" />
	<path
   d="m 82.9,78.814 c 0,0 0,5.298 -2.218,9.733 -2.218,4.435 -1.725,12.443 3.942,16.139 0,0 -8.008,0.739 -8.131,0.37 -0.123,-0.37 -2.341,-7.269 -2.341,-7.269 L 72.92,91.75 c 0,0 3.696,-7.269 4.189,-7.762 z"
   id="path84"
   inkscape:connector-curvature="0"
   style="fill:#09ae9e" />
	<path
   d="m 115.672,70.067 c 0,0 3.674,-0.92 5.052,0.748 1.378,1.668 7.021,15.885 7.021,15.885 l -8.747,0.739 z"
   id="path86"
   inkscape:connector-curvature="0"
   style="fill:#b53118" />
	<path
   d="m 60.354,101.36 5.791,6.653 c 0,0 7.564,2.053 21.684,3.326 15.031,1.355 21.807,2.218 22.053,-3.203 0.112,-2.465 -0.37,-15.479 11.704,-21.045 0,0 -5.914,-31.439 -13.922,-27.127 0,0 5.945,15.792 6.685,19.617 1.478,7.639 -7.301,9.213 -6.931,23.011 0.132,4.932 -2.094,5.544 -5.667,5.79 -1.721,0.119 -18.145,-4.319 -24.921,-6.414 0,0 -2.318,-3.07 -1.906,-8.285 0.542,-6.85 9.332,-15.609 9.332,-15.609 L 44.339,72.845 c 0,0 -9.364,5.476 -10.288,11.143 -0.924,5.668 26.303,17.372 26.303,17.372 z"
   id="path88"
   inkscape:connector-curvature="0"
   style="fill:#e84620" />
	<polygon
   points="26.534,75.281 35.53,81.349 29.553,81.386 20.542,75.281 "
   id="polygon90"
   style="fill:#2e2f2f" />
	<ellipse
   cx="19.632"
   cy="88.07"
   rx="2.3469999"
   ry="3.9430001"
   id="ellipse92"
   style="fill:#e7d888" />
	<g
   id="g102">
		<g
   id="g96">
			
				<ellipse
   transform="matrix(0.9159,0.4015,-0.4015,0.9159,21.7397,-40.1738)"
   cx="106.729"
   cy="31.785999"
   rx="2.1619999"
   ry="4.2610002"
   id="ellipse94"
   style="fill:#b53118" />
		</g>
		<g
   id="g100">
			<path
   d="m 106.547,47.978 c 0.138,-0.475 3.383,-11.643 3.888,-13.028 0.234,-0.642 0.274,-1.134 0.115,-1.423 -0.092,-0.166 -0.259,-0.274 -0.51,-0.328 -0.847,-0.185 -2.807,-0.84 -2.89,-0.868 l 0.253,-0.756 c 0.02,0.007 2.002,0.669 2.806,0.845 0.477,0.104 0.835,0.354 1.038,0.723 0.277,0.504 0.255,1.204 -0.065,2.081 -0.496,1.36 -3.838,12.862 -3.872,12.978 z"
   id="path98"
   inkscape:connector-curvature="0"
   style="fill:#b53118" />
		</g>
	</g>
	<g
   id="g108">
		<path
   d="m 130.186,108.598 c 0.273,0.555 0.937,0.787 1.483,0.518 v 0 c 0.546,-0.269 0.766,-0.936 0.493,-1.491 l -4.1,-8.318 c -0.273,-0.555 -0.937,-0.787 -1.483,-0.518 v 0 c -0.546,0.269 -0.766,0.936 -0.493,1.491 z"
   id="path104"
   inkscape:connector-curvature="0"
   style="fill:#646464" />
		<path
   d="m 125.348,101.204 c 0.15,0.304 1.155,0.115 2.245,-0.422 v 0 c 1.09,-0.537 1.853,-1.219 1.703,-1.523 l -3.62,-7.711 c -0.15,-0.304 -1.155,-0.115 -2.245,0.422 v 0 c -1.09,0.537 -1.853,1.219 -1.703,1.523 z"
   id="path106"
   inkscape:connector-curvature="0"
   style="fill:#747374" />
	</g>
	<g
   id="g114">
		<path
   d="m 38.593,108.074 c -0.257,0.479 -0.062,1.049 0.434,1.273 v 0 c 0.496,0.224 1.107,0.016 1.363,-0.463 l 3.844,-7.19 c 0.257,-0.479 0.062,-1.049 -0.434,-1.273 v 0 c -0.496,-0.224 -1.107,-0.016 -1.363,0.463 z"
   id="path110"
   inkscape:connector-curvature="0"
   style="fill:#646464" />
		<path
   d="m 41.356,100.88 c -0.14,0.263 0.55,0.838 1.542,1.285 v 0 c 0.992,0.447 1.91,0.596 2.05,0.334 l 3.664,-6.544 c 0.141,-0.263 -0.55,-0.838 -1.542,-1.285 v 0 c -0.992,-0.447 -1.91,-0.596 -2.05,-0.334 z"
   id="path112"
   inkscape:connector-curvature="0"
   style="fill:#747374" />
	</g>
	<rect
   x="18.881001"
   y="83.188004"
   width="4.2249999"
   height="9.8579998"
   id="rect116"
   style="fill:#e84620" />
	<path
   d="m 52.884,94.41 c 0,1.788 -1.449,3.237 -3.237,3.237 H 23.808 c -1.788,0 -3.237,-1.449 -3.237,-3.237 V 83.045 c 0,-1.788 1.449,-3.237 3.237,-3.237 h 25.839 c 1.788,0 3.237,1.449 3.237,3.237 z"
   id="path118"
   inkscape:connector-curvature="0"
   style="fill:#b53118" />
	<path
   d="m 21.517,103.103 c 2.319,-1.546 14.577,-6.626 30.368,-2.429 12.301,3.269 14.687,5.963 18.662,5.08 3.775,-0.839 4.307,-7.951 0.221,-15.239 -4.086,-7.288 -17.669,-16.564 -34.785,-8.061 -17.116,8.503 -19.546,19.104 -18.773,20.319 0.773,1.213 2.523,1.519 4.307,0.33 z"
   id="path120"
   inkscape:connector-curvature="0"
   style="fill:#09ae9e" />
	<path
   d="m 35.723,73.982 c 0,0.993 -0.805,1.798 -1.798,1.798 H 11.653 c -0.993,0 -1.798,-0.805 -1.798,-1.798 v 0 c 0,-0.993 0.805,-1.798 1.798,-1.798 h 22.273 c 0.992,0 1.797,0.805 1.797,1.798 z"
   id="path122"
   inkscape:connector-curvature="0"
   style="fill:#b53118" />
	<path
   d="m 40.517,63.576 c 0,4.754 -3.854,8.608 -8.608,8.608 h -18.44 c -4.754,0 -8.608,-3.854 -8.608,-8.608 v -4.457 c 0,-4.754 3.854,-8.608 8.608,-8.608 h 18.44 c 4.754,0 8.608,3.854 8.608,8.608 z"
   id="path124"
   inkscape:connector-curvature="0"
   style="fill:#e84620" />
	<g
   id="g130">
		<path
   d="m 42.615,59.824 c 0,0.607 -0.492,1.099 -1.099,1.099 H 3.562 c -0.607,0 -1.099,-0.492 -1.099,-1.099 v 0 c 0,-0.607 0.492,-1.099 1.099,-1.099 h 37.954 c 0.607,10e-4 1.099,0.493 1.099,1.099 z"
   id="path126"
   inkscape:connector-curvature="0"
   style="fill:#09ae9e" />
		<path
   d="m 42.615,63.22 c 0,0.607 -0.492,1.099 -1.099,1.099 H 3.562 c -0.607,0 -1.099,-0.492 -1.099,-1.099 v 0 c 0,-0.607 0.492,-1.099 1.099,-1.099 h 37.954 c 0.607,10e-4 1.099,0.492 1.099,1.099 z"
   id="path128"
   inkscape:connector-curvature="0"
   style="fill:#09ae9e" />
	</g>
	<path
   d="m 44.431,66.125 c 0,0 -2.008,6.276 -0.377,6.903 1.632,0.628 10.292,4.268 17.823,5.397 7.89,1.183 20.533,2.304 22.415,-0.332 0,0 1.056,-5.944 -3.714,-5.819 -4.77,0.125 -18.451,0.125 -21.463,-2.636 -3.011,-2.76 -9.914,-5.898 -14.684,-3.513 z"
   id="path132"
   inkscape:connector-curvature="0"
   style="fill:#b53118" />
	<path
   d="m 143.217,90.97 c 0,0 -10.675,-3.023 -20.068,4.824 -6.288,5.253 -7.421,10.076 -9.384,10.769 -1.963,0.693 -5.082,1.039 -4.851,-2.31 0.231,-3.35 5.066,-15.898 14.553,-19.519 10.134,-3.869 17.094,0.977 18.54,2.151 1.847,1.5 2.249,3.854 1.21,4.085 z"
   id="path134"
   inkscape:connector-curvature="0"
   style="fill:#09ae9e" />
	<path
   d="m 104.683,61.465 c 0.103,0.155 6.338,-3.169 6.338,-3.169 0,0 -1.485,-2.201 -0.751,-3.002 0.917,-1.001 3.836,-0.25 3.836,-0.25 V 44.369 c 0,0 -6.8,2.242 -8.423,3.086 -2.084,1.084 -7.838,3.752 -1,14.01 z"
   id="path136"
   inkscape:connector-curvature="0"
   style="fill:#09ae9e" />
	<g
   id="g146">
		<g
   id="g140">
			
				<ellipse
   transform="matrix(0.9954,-0.0958,0.0958,0.9954,-2.8705,9.2389)"
   cx="94.764"
   cy="34.507999"
   rx="2.434"
   ry="4.796"
   id="ellipse138"
   style="fill:#b53118" />
		</g>
		<g
   id="g144">
			<path
   d="m 103.468,50.522 c -0.125,-0.542 -3.062,-13.299 -3.325,-14.938 -0.122,-0.76 -0.353,-1.265 -0.667,-1.462 -0.181,-0.113 -0.404,-0.127 -0.681,-0.043 -0.934,0.283 -3.22,0.714 -3.316,0.732 l -0.166,-0.882 c 0.023,-0.004 2.335,-0.44 3.222,-0.709 0.525,-0.16 1.015,-0.11 1.417,0.141 0.549,0.343 0.911,1.043 1.078,2.08 0.258,1.609 3.283,14.746 3.314,14.879 z"
   id="path142"
   inkscape:connector-curvature="0"
   style="fill:#b53118" />
		</g>
	</g>
	<g
   id="g162">
		
			<ellipse
   transform="matrix(0.9913,0.132,-0.132,0.9913,7.7825,-13.2328)"
   cx="103.718"
   cy="52.094002"
   rx="2.089"
   ry="2.168"
   id="ellipse148"
   style="fill:#e84620" />
		<g
   id="g154">
			<path
   d="m 104.269,51.963 c 0.02,-0.455 -0.319,-0.84 -0.758,-0.859 -0.088,-0.004 -0.173,0.011 -0.253,0.035 l -10e-4,-0.003 -4.847,1.004 0.413,1.577 4.773,-0.974 c 0.053,-0.009 0.104,-0.022 0.153,-0.041 h 0.002 v 0 c 0.29,-0.113 0.503,-0.397 0.518,-0.739 z"
   id="path150"
   inkscape:connector-curvature="0"
   style="fill:#747374" />
			
				<ellipse
   transform="matrix(0.999,0.0438,-0.0438,0.999,2.4155,-4.2718)"
   stroke-miterlimit="10"
   cx="98.589996"
   cy="52.929001"
   rx="0.79500002"
   ry="0.82499999"
   id="ellipse152"
   style="fill:#ffffff;stroke:#1e1e1c;stroke-miterlimit:10" />
		</g>
		<g
   id="g160">
			<path
   d="m 100.528,52.858 c 0.038,-0.864 -0.607,-1.595 -1.44,-1.631 -0.168,-0.007 -0.328,0.021 -0.481,0.067 l -0.002,-0.006 -3.513,0.966 0.784,2.994 3.373,-0.909 c 0.1,-0.016 0.198,-0.042 0.291,-0.078 l 0.003,-0.001 v 0 c 0.552,-0.214 0.957,-0.754 0.985,-1.402 z"
   id="path156"
   inkscape:connector-curvature="0"
   style="fill:#b53118" />
			
				<ellipse
   transform="matrix(0.999,0.0438,-0.0438,0.999,2.4469,-4.13)"
   cx="95.433998"
   cy="53.751999"
   rx="1.51"
   ry="1.567"
   id="ellipse158"
   style="fill:#e84620" />
		</g>
	</g>
	<circle
   cx="131.507"
   cy="108.629"
   r="2.1459999"
   id="circle164"
   style="fill:#2e2f2f" />
	<circle
   cx="39.323002"
   cy="108.629"
   r="2.1459999"
   id="circle166"
   style="fill:#2e2f2f" />
	<path
   d="m 68.333,100.925 c 0.173,-2.842 -0.617,-6.602 -2.554,-10.411 -0.244,-0.479 -0.527,-0.967 -0.843,-1.457 -7.865,-0.753 -26.184,-0.508 -47.841,13.244 0.014,0.211 0.048,0.374 0.104,0.471 0.16,0.278 0.369,0.506 0.612,0.681 3.44,-3.038 19.899,-13.499 50.522,-2.528 z"
   id="path168"
   inkscape:connector-curvature="0"
   style="fill:#e84620" />
</g>







<g
   id="g1152"
   transform="translate(-2.463,-27.792667)">
</g>
<g
   id="g1154"
   transform="translate(-2.463,-27.792667)">
</g>
<g
   id="g1156"
   transform="translate(-2.463,-27.792667)">
</g>
<g
   id="g1158"
   transform="translate(-2.463,-27.792667)">
</g>
<g
   id="g1160"
   transform="translate(-2.463,-27.792667)">
</g>
<g
   id="g1162"
   transform="translate(-2.463,-27.792667)">
</g>
</svg>