<?xml version="1.0" encoding="UTF-8" standalone="no"?>
<!-- Generator: Adobe Illustrator 17.0.0, SVG Export Plug-In . SVG Version: 6.00 Build 0)  -->

<svg
   xmlns:dc="http://purl.org/dc/elements/1.1/"
   xmlns:cc="http://creativecommons.org/ns#"
   xmlns:rdf="http://www.w3.org/1999/02/22-rdf-syntax-ns#"
   xmlns:svg="http://www.w3.org/2000/svg"
   xmlns="http://www.w3.org/2000/svg"
   xmlns:sodipodi="http://sodipodi.sourceforge.net/DTD/sodipodi-0.dtd"
   xmlns:inkscape="http://www.inkscape.org/namespaces/inkscape"
   version="1.1"
   id="Слой_1"
   x="0px"
   y="0px"
   width="144.34602"
   height="106.46051"
   viewBox="0 0 144.34602 106.46051"
   enable-background="new 0 0 1200 150"
   xml:space="preserve"
   sodipodi:docname="4.svg"
   inkscape:version="0.92.4 (5da689c313, 2019-01-14)"><metadata
   id="metadata1169"><rdf:RDF><cc:Work
       rdf:about=""><dc:format>image/svg+xml</dc:format><dc:type
         rdf:resource="http://purl.org/dc/dcmitype/StillImage" /><dc:title></dc:title></cc:Work></rdf:RDF></metadata><defs
   id="defs1167" /><sodipodi:namedview
   pagecolor="#ffffff"
   bordercolor="#666666"
   borderopacity="1"
   objecttolerance="10"
   gridtolerance="10"
   guidetolerance="10"
   inkscape:pageopacity="0"
   inkscape:pageshadow="2"
   inkscape:window-width="1920"
   inkscape:window-height="1017"
   id="namedview1165"
   showgrid="false"
   inkscape:zoom="0.94666667"
   inkscape:cx="335.11357"
   inkscape:cy="-131.64514"
   inkscape:window-x="-8"
   inkscape:window-y="-8"
   inkscape:window-maximized="1"
   inkscape:current-layer="Слой_1"
   fit-margin-top="0"
   fit-margin-left="0"
   fit-margin-right="0"
   fit-margin-bottom="0" />





<g
   id="g822"
   transform="translate(-602.727,-18.553494)">
	<circle
   cx="630.20398"
   cy="106.94"
   r="18.073999"
   id="circle692"
   style="fill:#2e2f2f" />
	<circle
   cx="630.20398"
   cy="106.94"
   r="11.785"
   id="circle694"
   style="fill:#c3c2c2" />
	<circle
   cx="630.20398"
   cy="106.94"
   r="9.7320004"
   id="circle696"
   style="fill:#555555" />
	<g
   id="g710">
		<g
   id="g702">
			<rect
   x="629.30298"
   y="96.400002"
   width="1.803"
   height="21.08"
   id="rect698"
   style="opacity:0.4;fill:#c3c2c2" />
			<rect
   x="619.664"
   y="106.039"
   width="21.08"
   height="1.803"
   id="rect700"
   style="opacity:0.4;fill:#c3c2c2" />
		</g>
		<g
   id="g708">
			
				<rect
   x="629.30298"
   y="96.400002"
   transform="matrix(-0.7071,-0.7071,0.7071,-0.7071,1000.1938,628.1905)"
   width="1.803"
   height="21.08"
   id="rect704"
   style="opacity:0.4;fill:#c3c2c2" />
			
				<rect
   x="629.30298"
   y="96.400002"
   transform="matrix(0.7071,-0.7071,0.7071,0.7071,108.9643,476.9439)"
   width="1.803"
   height="21.08"
   id="rect706"
   style="opacity:0.4;fill:#c3c2c2" />
		</g>
	</g>
	<circle
   cx="630.20398"
   cy="106.94"
   r="4.7670002"
   id="circle712"
   style="fill:#c3c2c2" />
	<g
   id="g718">
		<path
   d="m 629.658,106.477 c -0.209,0.368 -0.011,0.875 0.443,1.132 v 0 c 0.453,0.257 0.99,0.167 1.199,-0.201 l 3.129,-5.519 c 0.209,-0.368 0.01,-0.875 -0.443,-1.132 v 0 c -0.453,-0.257 -0.99,-0.167 -1.199,0.201 z"
   id="path714"
   inkscape:connector-curvature="0"
   style="fill:#646464" />
		<path
   d="m 631.82,100.805 c -0.114,0.202 0.527,0.782 1.433,1.296 v 0 c 0.906,0.514 1.733,0.767 1.847,0.566 l 2.995,-5 c 0.114,-0.202 -0.527,-0.782 -1.433,-1.296 v 0 c -0.906,-0.514 -1.733,-0.767 -1.847,-0.566 z"
   id="path716"
   inkscape:connector-curvature="0"
   style="fill:#747374" />
	</g>
	<circle
   cx="630.20398"
   cy="106.94"
   r="2.5039999"
   id="circle720"
   style="fill:#2e2f2f" />
	<g
   id="g730">
		<g
   id="g724">
			
				<ellipse
   transform="matrix(0.965,0.2622,-0.2622,0.965,30.7643,-182.7176)"
   cx="700.16101"
   cy="23.938"
   rx="2.819"
   ry="5.5549998"
   id="ellipse722"
   style="fill:#0a7934" />
		</g>
		<g
   id="g728">
			<path
   d="m 703.036,44.851 c 0.087,-0.639 2.126,-15.663 2.512,-17.546 0.179,-0.873 0.136,-1.515 -0.125,-1.857 -0.15,-0.197 -0.386,-0.303 -0.72,-0.326 -1.128,-0.076 -3.781,-0.544 -3.893,-0.564 l 0.181,-1.023 c 0.027,0.005 2.71,0.479 3.781,0.551 0.634,0.042 1.145,0.296 1.478,0.733 0.454,0.596 0.561,1.503 0.316,2.695 -0.379,1.849 -2.479,17.321 -2.5,17.477 z"
   id="path726"
   inkscape:connector-curvature="0"
   style="fill:#0a7934" />
		</g>
	</g>
	<path
   d="m 607.004,81.025 c 0,2.753 2.232,4.984 4.984,4.984 h 1.51 c 2.753,0 4.984,-2.232 4.984,-4.984 v 0 c 0,-2.753 -2.232,-4.984 -4.984,-4.984 h -1.51 c -2.753,0 -4.984,2.231 -4.984,4.984 z"
   id="path732"
   inkscape:connector-curvature="0"
   style="fill:#e7d888" />
	<path
   d="m 630.197,75.285 h -15.255 c 0,0 -6.495,3.474 -6.193,12.234 h 9.818 z"
   id="path734"
   inkscape:connector-curvature="0"
   style="fill:#0a7934" />
	<ellipse
   cx="714.77899"
   cy="47.192001"
   rx="3.776"
   ry="5.1350002"
   id="ellipse736"
   style="fill:#e7d888" />
	<polygon
   points="716.214,53.989 712.815,52.176 712.513,42.359 716.214,40.546 "
   id="polygon738"
   style="fill:#0a7934" />
	<path
   d="m 699.99,51.48 c 0,0 6.307,16.678 6.447,25.647 0.14,8.97 -6.307,17.519 -11.913,18.5 -5.606,0.981 -12.053,1.542 -19.06,-1.682 -7.007,-3.223 -10.371,-5.045 -9.39,-9.81 0.981,-4.765 5.606,-7.428 7.148,-7.708 1.542,-0.28 1.542,-2.803 1.261,-4.765 0,0 -19.294,0 -22.984,0 -3.69,0 -43.658,0.047 -48.772,28.871 0,0 6.167,-0.981 13.735,-1.121 h 17.378 15.276 l 13.174,6.727 h 20.322 l 14.435,-1.542 12.193,-15.277 7.008,-10.932 -4.064,-11.212 -5.746,-14.435 z"
   id="path740"
   inkscape:connector-curvature="0"
   style="fill:#fab720" />
	<path
   d="m 657.825,108.567 40.938,-2.753 c 0,0 -15.803,-0.994 -18.769,-0.994 -2.966,0 -8.118,0 -10.304,0 -2.186,0 -7.025,-4.059 -9.523,-4.059 -2.498,0 -2.342,7.806 -2.342,7.806 z"
   id="path742"
   inkscape:connector-curvature="0"
   style="fill:#2e2f2f" />
	<path
   d="m 696.075,94.984 c 0,0 0.312,3.122 -3.279,3.903 -3.591,0.781 -19.827,1.873 -26.384,-4.059 0,0 -0.625,-2.966 1.561,-5.776 0,0 14.363,10.304 28.102,5.932 z"
   id="path744"
   inkscape:connector-curvature="0"
   style="fill:#0a7934" />
	<path
   d="m 725.728,82.595 c 0,0 0,-4.206 -1.641,-6.566 -1.056,-1.518 -13.131,-7.181 -14.67,-21.646 h -3.898 c 0,0 3.356,9.173 5.027,13.131 1.949,4.616 3.597,10.44 1.641,13.234 -0.718,1.026 -13.644,20.107 -14.157,20.723 -0.513,0.616 -0.615,0.923 -2.052,1.128 -1.436,0.205 -15.593,-0.41 -17.85,3.283 l 0.167,1.308 c 0,0 18.812,-0.795 20.248,-0.795 1.436,0 27.185,-23.8 27.185,-23.8 z"
   id="path746"
   inkscape:connector-curvature="0"
   style="fill:#0a7934" />
	<path
   d="m 609.428,102.01 c 0,0 22.637,-4.84 32.317,1.093 9.679,5.933 14.831,6.557 19.203,6.089 0,0 6.22,-14.536 0.624,-25.448 -6.244,-12.178 -48.241,-5.309 -52.144,18.266 z"
   id="path748"
   inkscape:connector-curvature="0"
   style="fill:#0c9a39" />
	<g
   id="g754">
		<path
   d="m 620.357,92.955 c 0,0.948 0.769,1.717 1.717,1.717 h 15.612 c 0.948,0 1.717,-0.769 1.717,-1.717 v 0 c 0,-0.948 -0.769,-1.717 -1.717,-1.717 h -15.612 c -0.948,-0.001 -1.717,0.768 -1.717,1.717 z"
   id="path750"
   inkscape:connector-curvature="0"
   style="fill:#fab720" />
		<path
   d="m 626.133,88.227 c 0,0.658 0.533,1.191 1.191,1.191 h 10.831 c 0.658,0 1.191,-0.533 1.191,-1.191 v 0 c 0,-0.658 -0.533,-1.191 -1.191,-1.191 h -10.831 c -0.657,0 -1.191,0.533 -1.191,1.191 z"
   id="path752"
   inkscape:connector-curvature="0"
   style="fill:#fab720" />
	</g>
	<polygon
   points="702.847,63.202 711.758,62.296 711.154,60.181 701.336,58.067 "
   id="polygon756"
   style="fill:#0c9a39" />
	<path
   d="m 713.268,39.489 v 14.953 c 0,0 -15.496,2.222 -16.916,-5.286 -1.057,-5.589 9.667,-9.818 16.916,-9.667 z"
   id="path758"
   inkscape:connector-curvature="0"
   style="fill:#0c9a39" />
	<g
   id="g768">
		<g
   id="g762">
			
				<ellipse
   transform="matrix(0.932,-0.3624,0.3624,0.932,34.9106,251.4337)"
   cx="687.74402"
   cy="32.650002"
   rx="2.819"
   ry="5.5549998"
   id="ellipse760"
   style="fill:#0a7934" />
		</g>
		<g
   id="g766">
			<path
   d="m 702.48,47.765 c -0.309,-0.565 -7.594,-13.863 -8.402,-15.607 -0.375,-0.808 -0.791,-1.299 -1.203,-1.42 -0.238,-0.069 -0.491,-0.015 -0.773,0.166 -0.952,0.609 -3.365,1.808 -3.467,1.859 l -0.462,-0.931 c 0.025,-0.012 2.464,-1.224 3.369,-1.803 0.535,-0.343 1.097,-0.442 1.624,-0.288 0.719,0.21 1.344,0.876 1.856,1.98 0.793,1.712 8.295,15.406 8.371,15.545 z"
   id="path764"
   inkscape:connector-curvature="0"
   style="fill:#0a7934" />
		</g>
	</g>
	<g
   id="g784">
		
			<ellipse
   transform="rotate(-13.951476,702.28112,49.35667)"
   cx="702.40302"
   cy="49.349998"
   rx="2.777"
   ry="2.881"
   id="ellipse770"
   style="fill:#fab720" />
		<g
   id="g776">
			<path
   d="m 703.021,48.919 c -0.197,-0.573 -0.805,-0.883 -1.357,-0.692 -0.111,0.038 -0.208,0.098 -0.296,0.167 l -0.003,-0.003 -5.503,3.606 1.28,1.748 5.426,-3.533 c 0.061,-0.036 0.118,-0.078 0.169,-0.126 l 0.002,-10e-4 v 0 c 0.305,-0.281 0.43,-0.736 0.282,-1.166 z"
   id="path772"
   inkscape:connector-curvature="0"
   style="fill:#534f46" />
			
				<ellipse
   transform="matrix(0.9454,-0.3259,0.3259,0.9454,20.7976,229.8987)"
   stroke-miterlimit="10"
   cx="696.46997"
   cy="52.883999"
   rx="1.057"
   ry="1.097"
   id="ellipse774"
   style="fill:#ffffff;stroke:#1e1e1c;stroke-miterlimit:10" />
		</g>
		<g
   id="g782">
			<path
   d="m 698.831,51.85 c -0.375,-1.087 -1.528,-1.676 -2.576,-1.315 -0.211,0.073 -0.395,0.186 -0.562,0.317 l -0.005,-0.006 -3.872,2.908 2.43,3.32 3.727,-2.769 c 0.116,-0.069 0.224,-0.149 0.321,-0.239 l 0.003,-0.003 v 0 c 0.579,-0.533 0.816,-1.397 0.534,-2.213 z"
   id="path778"
   inkscape:connector-curvature="0"
   style="fill:#0a7934" />
			
				<ellipse
   transform="matrix(0.9454,-0.3259,0.3259,0.9454,19.7707,228.8878)"
   cx="692.96802"
   cy="55.441002"
   rx="2.007"
   ry="2.082"
   id="ellipse780"
   style="fill:#0c9a39" />
		</g>
	</g>
	<path
   d="m 640.458,72.34 c 0,0 33.767,0 35.718,0 1.951,0 2.251,-4.652 2.251,-7.204 0,-2.551 -0.3,-3.602 -1.651,-3.602 -1.351,0 -37.519,0 -40.67,0 -3.152,0 -7.654,-3.452 -9.755,-3.452 -2.101,0 -5.553,-0.45 -4.652,2.551 0.9,3.001 2.251,5.403 3.152,7.654 0.901,2.251 3.001,4.052 4.802,4.052 1.801,0 10.805,0.001 10.805,0.001 z"
   id="path786"
   inkscape:connector-curvature="0"
   style="fill:#534f46" />
	<circle
   cx="728.99902"
   cy="106.94"
   r="18.073999"
   id="circle788"
   style="fill:#2e2f2f" />
	<circle
   cx="728.99902"
   cy="106.94"
   r="11.785"
   id="circle790"
   style="fill:#c3c2c2" />
	<circle
   cx="728.99902"
   cy="106.94"
   r="9.7320004"
   id="circle792"
   style="fill:#555555" />
	<g
   id="g806">
		<g
   id="g798">
			<rect
   x="728.09802"
   y="96.400002"
   width="1.803"
   height="21.08"
   id="rect794"
   style="opacity:0.4;fill:#c3c2c2" />
			<rect
   x="718.45898"
   y="106.039"
   width="21.08"
   height="1.803"
   id="rect796"
   style="opacity:0.4;fill:#c3c2c2" />
		</g>
		<g
   id="g804">
			
				<rect
   x="728.09802"
   y="96.400002"
   transform="matrix(-0.7071,-0.7071,0.7071,-0.7071,1168.8448,698.0507)"
   width="1.803"
   height="21.08"
   id="rect800"
   style="opacity:0.4;fill:#c3c2c2" />
			
				<rect
   x="728.09802"
   y="96.400002"
   transform="matrix(0.7071,-0.7071,0.7071,0.7071,137.9005,546.8022)"
   width="1.803"
   height="21.08"
   id="rect802"
   style="opacity:0.4;fill:#c3c2c2" />
		</g>
	</g>
	<circle
   cx="728.99902"
   cy="106.94"
   r="4.7670002"
   id="circle808"
   style="fill:#c3c2c2" />
	<g
   id="g814">
		<path
   d="m 728.153,107.26 c 0.234,0.475 0.803,0.674 1.271,0.444 v 0 c 0.468,-0.23 0.657,-0.803 0.423,-1.278 l -3.514,-7.129 c -0.234,-0.475 -0.803,-0.674 -1.271,-0.444 v 0 c -0.468,0.23 -0.657,0.803 -0.423,1.278 z"
   id="path810"
   inkscape:connector-curvature="0"
   style="fill:#646464" />
		<path
   d="m 724.007,100.923 c 0.128,0.26 0.99,0.099 1.924,-0.362 v 0 c 0.934,-0.46 1.588,-1.045 1.459,-1.305 l -3.103,-6.609 c -0.128,-0.26 -0.99,-0.098 -1.924,0.362 v 0 c -0.934,0.46 -1.588,1.045 -1.459,1.305 z"
   id="path812"
   inkscape:connector-curvature="0"
   style="fill:#747374" />
	</g>
	<circle
   cx="728.99902"
   cy="106.94"
   r="2.5039999"
   id="circle816"
   style="fill:#2e2f2f" />
	<path
   d="m 744.94,93.423 c 0,0 -1.873,-6.401 -9.679,-10.148 -8.312,-3.99 -27.165,-3.591 -27.945,17.017 l 3.591,2.966 c 0,0 12.038,-6.07 14.363,-7.494 7.649,-4.683 19.67,-2.341 19.67,-2.341 z"
   id="path818"
   inkscape:connector-curvature="0"
   style="fill:#0c9a39" />
	<path
   d="m 746.502,94.984 c 0,0 -8.899,-1.717 -16.861,-0.156 -7.962,1.561 -12.177,9.055 -13.426,10.148 -1.249,1.093 -8.899,1.873 -9.367,0.625 -0.468,-1.249 -1.405,-3.903 -0.312,-6.557 0,0 5.149,3.501 9.367,0.156 4.527,-3.591 9.055,-9.836 29.819,-6.401 z"
   id="path820"
   inkscape:connector-curvature="0"
   style="fill:#fab720" />
</g>


<g
   id="g1152"
   transform="translate(-602.727,-18.553494)">
</g>
<g
   id="g1154"
   transform="translate(-602.727,-18.553494)">
</g>
<g
   id="g1156"
   transform="translate(-602.727,-18.553494)">
</g>
<g
   id="g1158"
   transform="translate(-602.727,-18.553494)">
</g>
<g
   id="g1160"
   transform="translate(-602.727,-18.553494)">
</g>
<g
   id="g1162"
   transform="translate(-602.727,-18.553494)">
</g>
</svg>