<svg xmlns="http://www.w3.org/2000/svg" width="279" height="243" viewBox="0 0 279 243" version="1.1">
	<path d="M 181.500 3.551 C 176.550 4.357, 170.025 5.726, 167 6.592 C 150.454 11.327, 110.157 28.162, 93.500 37.297 C 79.668 44.884, 66.542 53, 68.105 53 C 68.931 53, 74.308 50.215, 80.054 46.811 C 92.114 39.665, 104.138 34.192, 133.500 22.484 C 174.119 6.288, 192.785 3.973, 226.662 10.927 C 236.665 12.980, 252.638 19.506, 259.074 24.169 C 267.011 29.918, 270.314 42.271, 265.732 49.069 C 261.560 55.260, 250.288 63.413, 236.258 70.386 C 235.025 70.999, 234.012 71.838, 234.008 72.250 C 234.004 72.662, 233.509 73, 232.908 73 C 232.308 73, 230.620 73.920, 229.158 75.043 C 225.364 77.960, 216.150 84, 215.496 84 C 214.878 84, 200.940 93.161, 194.015 98.117 C 191.549 99.883, 186.226 102.834, 182.187 104.674 C 175.427 107.755, 174.113 108.009, 165.671 107.868 C 160.627 107.784, 153.909 108.056, 150.742 108.474 C 146.737 109.002, 144.546 108.868, 143.542 108.035 C 142.749 107.377, 140.615 106.920, 138.800 107.020 C 133.342 107.322, 132.954 107.136, 131.449 103.500 C 130.652 101.575, 129.319 98.356, 128.487 96.346 C 125.871 90.030, 125.889 93.338, 128.507 100.018 C 131.256 107.033, 130.907 107.957, 125.493 107.985 C 119.303 108.016, 115.981 106.123, 107.293 97.609 C 102.506 92.917, 98.367 89.300, 98.095 89.571 C 97.824 89.843, 102.023 94.502, 107.426 99.926 C 113.441 105.963, 116.970 110.240, 116.527 110.956 C 116.030 111.761, 112.236 112.054, 104.354 111.896 C 94.796 111.705, 92.629 111.943, 91.238 113.334 C 90.272 114.299, 90.057 115, 90.727 115 C 91.362 115, 92.154 114.560, 92.486 114.023 C 93.141 112.963, 105.445 112.803, 113.500 113.749 L 118.500 114.336 115 115.153 C 113.075 115.602, 110.551 115.758, 109.390 115.501 C 106.876 114.942, 103.422 118.256, 104.575 120.121 C 105.132 121.023, 105.534 120.833, 106.028 119.434 C 106.603 117.806, 107.684 117.500, 112.851 117.500 C 117.949 117.500, 118.992 117.787, 118.996 119.191 C 118.998 120.121, 119.450 121.160, 120 121.500 C 120.550 121.840, 121 121.163, 121 119.996 C 121 118.558, 121.564 117.945, 122.750 118.093 C 123.713 118.214, 125.767 117.792, 127.315 117.156 C 128.863 116.520, 130.740 116, 131.486 116 C 133.579 116, 150.147 119.946, 153.364 121.211 C 156.221 122.334, 156.211 122.345, 148.364 126.127 C 144.039 128.211, 137.350 131.739, 133.500 133.966 C 124.660 139.080, 95.798 153.131, 95.253 152.586 C 94.416 151.749, 97.419 146.124, 98.911 145.733 C 100.669 145.274, 102 141.255, 102 136.408 C 102 135.061, 103.501 132.566, 105.533 130.533 C 107.674 128.393, 108.493 127, 107.611 127 C 106.811 127, 104.615 128.800, 102.732 131 C 100.849 133.200, 99.021 135, 98.671 135 C 97.488 135, 92.859 124.810, 93.400 123.399 C 93.710 122.592, 93.316 122, 92.469 122 C 90.536 122, 90.612 122.929, 93 128.500 C 96.781 137.321, 95.293 138.047, 86.064 131.884 C 82.673 129.620, 79.694 127.972, 79.444 128.223 C 79.193 128.473, 81.694 130.848, 85 133.500 C 88.306 136.152, 90.792 138.541, 90.524 138.809 C 90.256 139.078, 88.073 138.255, 85.673 136.982 C 81.481 134.758, 78 134.761, 78 136.988 C 78 137.584, 78.992 137.789, 80.293 137.463 C 83.434 136.674, 88.571 140.607, 86.952 142.558 C 86.333 143.303, 86.115 144.377, 86.466 144.945 C 86.817 145.512, 86.180 148.064, 85.052 150.616 C 83.923 153.167, 83 155.866, 83 156.614 C 83 160.962, 61 163.604, 50.465 160.522 C 47.184 159.562, 41.800 158.647, 38.500 158.489 C 35.200 158.332, 30.866 157.892, 28.870 157.512 C 26.024 156.972, 23.755 157.463, 18.370 159.786 C 14.591 161.416, 10.150 163.061, 8.500 163.443 C 6.850 163.824, 4.458 164.810, 3.185 165.633 C 1.256 166.882, 0.986 167.660, 1.566 170.301 C 1.949 172.045, 2.991 174.052, 3.881 174.762 C 6.988 177.238, 18.831 182.931, 31.532 188.052 C 46.945 194.267, 55.717 195.411, 65.550 192.491 C 75.579 189.513, 82.273 189.700, 91.481 193.214 C 95.891 194.898, 99.662 196.413, 99.859 196.580 C 100.057 196.748, 99.275 198.209, 98.123 199.828 C 96.970 201.446, 95.133 204.857, 94.040 207.406 C 91.794 212.647, 89.900 213.819, 86.564 212.034 C 85.298 211.357, 83.416 211.001, 82.381 211.244 C 80.744 211.628, 80.829 211.822, 83.041 212.738 C 84.439 213.318, 86.141 214.464, 86.823 215.287 C 87.865 216.542, 87.553 216.960, 84.883 217.891 C 83.133 218.501, 80.055 219, 78.042 219 C 76.029 219, 73.509 219.643, 72.441 220.430 C 70.710 221.704, 71.349 221.823, 78.350 221.529 C 82.668 221.348, 85.818 221.526, 85.350 221.926 C 84.883 222.325, 81.575 223.915, 78 225.460 C 70.138 228.856, 69 229.698, 69 232.122 C 69 234.506, 70.684 234.572, 71.431 232.217 C 72.020 230.363, 90 222.565, 90 224.164 C 90 224.630, 88.119 228.602, 85.821 232.993 C 83.522 237.383, 81.881 241.215, 82.174 241.508 C 82.467 241.800, 84.685 238.816, 87.103 234.875 C 89.521 230.934, 92.634 226.387, 94.020 224.771 L 96.540 221.831 99.876 226.477 C 101.711 229.031, 103.420 230.913, 103.675 230.658 C 103.930 230.403, 103.144 227.882, 101.928 225.055 C 99.334 219.024, 99.452 218.611, 107.115 206.870 C 113.393 197.251, 114.699 192.996, 112.435 189.541 C 110.604 186.747, 110.174 187.078, 120.456 183.370 C 122.632 182.585, 126.682 180.861, 129.456 179.538 C 132.230 178.216, 135.175 176.861, 136 176.528 C 136.825 176.194, 138.400 175.365, 139.500 174.685 C 140.600 174.005, 145.049 171.473, 149.386 169.059 C 160.665 162.781, 172.196 154.063, 182.041 144.368 L 190.582 135.957 200.360 140.043 C 211.597 144.738, 213.675 144.682, 219.708 139.518 C 223.223 136.509, 224.111 136.205, 227.905 136.714 C 231.617 137.212, 232.092 137.553, 231.631 139.392 C 231.140 141.353, 231.242 141.332, 233.093 139.089 C 234.643 137.209, 236.284 136.589, 240.541 136.274 C 245.829 135.882, 246.586 136.286, 246.118 139.250 C 246.053 139.662, 246.450 140, 247 140 C 248.425 140, 248.239 136.441, 246.750 135.218 C 246.063 134.654, 244.375 134.013, 243 133.796 C 241.222 133.514, 242.234 133.036, 246.500 132.141 C 249.800 131.449, 253.812 130.457, 255.415 129.936 C 257.688 129.198, 258.735 129.355, 260.165 130.649 C 261.827 132.153, 262 132.158, 262 130.705 C 262 128.267, 259.110 127.107, 255.584 128.129 C 249.211 129.977, 239.911 131.050, 238.263 130.127 C 236.890 129.359, 237.436 128.679, 241.501 126.101 C 244.191 124.396, 247.689 123, 249.275 123 C 250.861 123, 255.070 121.835, 258.628 120.412 C 262.187 118.988, 265.751 118.074, 266.549 118.380 C 267.411 118.711, 268 118.341, 268 117.469 C 268 115.437, 266.439 115.622, 259.500 118.481 C 256.200 119.840, 252.101 120.963, 250.390 120.976 C 248.680 120.989, 244.589 122.388, 241.299 124.085 C 236.106 126.763, 234.698 127.077, 230.615 126.465 C 228.029 126.077, 226.045 125.390, 226.207 124.938 C 226.836 123.176, 235.469 118.141, 236.103 119.166 C 236.538 119.871, 236.992 119.823, 237.488 119.020 C 237.894 118.363, 237.743 117.343, 237.152 116.752 C 236.388 115.988, 234.305 116.870, 229.916 119.817 C 226.527 122.093, 222.121 124.206, 220.127 124.512 C 218.132 124.818, 215.321 125.674, 213.879 126.414 C 211.423 127.674, 210.968 127.510, 206.629 123.801 C 204.083 121.625, 202 119.450, 202 118.967 C 202 118.485, 205.713 115.283, 210.250 111.853 C 214.787 108.422, 222.775 101.729, 228 96.979 C 233.225 92.229, 242.675 84.791, 249 80.451 C 263.787 70.303, 274.070 60.178, 276.332 53.538 C 279.784 43.409, 277.401 31.887, 270.199 23.876 C 265.513 18.664, 252.122 11.100, 241.500 7.666 C 227.453 3.124, 196.956 1.032, 181.500 3.551" fill="none" stroke="#000" stroke-width="2px" fill-rule="evenodd"/>
</svg>
