<svg xmlns="http://www.w3.org/2000/svg" width="272" height="212" viewBox="0 0 272 212" version="1.1">
	<path d="M 97 2.626 C 90.657 3.853, 85.061 6.312, 82.163 9.145 C 77.032 14.161, 78.397 18.857, 86.296 23.373 C 95.216 28.472, 104.786 29.263, 138 27.650 L 155.500 26.799 151.626 30.075 C 144.752 35.887, 143.429 42.730, 146.974 54.145 C 148.059 57.640, 150.050 62.114, 151.399 64.087 C 154.369 68.432, 164.574 74.044, 174.517 76.799 C 184.717 79.625, 195.460 84.325, 206.112 90.619 C 211.275 93.670, 215.651 96.318, 215.835 96.502 C 216.020 96.686, 206.570 96.794, 194.835 96.741 C 181.756 96.683, 170.985 97.121, 167 97.873 C 142.982 102.409, 131.130 111.592, 130.187 126.397 C 129.294 140.426, 134.564 155.969, 141.751 160.500 C 143.496 161.600, 144.940 162.768, 144.961 163.094 C 144.983 163.421, 138.813 163.984, 131.250 164.344 C 110.034 165.354, 103.555 167.362, 89.152 177.386 L 81.804 182.500 68.652 182.279 C 61.418 182.157, 52.800 181.788, 49.500 181.460 C 44.449 180.956, 42.207 181.322, 35.331 183.773 C 30.226 185.593, 26.003 187.843, 24.073 189.774 C 22.374 191.473, 19.205 193.647, 17.032 194.606 C 12.572 196.574, 11.534 198.261, 13.047 201.087 C 14.424 203.661, 12.481 204.397, 5.958 203.770 C 3.231 203.508, 1 203.475, 1 203.698 C 1 205.092, 8.492 206.945, 11.915 206.398 C 14.717 205.950, 16.492 206.231, 18.140 207.385 C 20.061 208.731, 23.546 209, 39.073 209 C 49.319 209, 59.006 208.552, 60.601 208.004 C 62.195 207.456, 69.575 205.890, 77 204.524 C 88.740 202.364, 92.050 201.288, 102.388 196.270 L 114.277 190.500 136.388 190.517 C 156.983 190.534, 159.257 190.720, 169.530 193.233 C 188.309 197.828, 200.070 199.278, 218.500 199.272 C 232.540 199.268, 236.833 198.907, 243.154 197.199 C 262.077 192.086, 270.026 183.962, 269.979 169.782 C 269.915 150.470, 262.957 139.385, 247.654 134.219 C 240.457 131.790, 240.104 131.391, 244.428 130.580 C 246.647 130.163, 249.820 128.179, 253.013 125.210 L 258.078 120.500 259.587 110.500 C 262.169 93.404, 259.263 82.006, 250.863 76.275 C 241.516 69.897, 203.481 51.387, 193.750 48.480 C 188.387 46.879, 184 45.287, 184 44.944 C 184 44.602, 185.079 43.830, 186.397 43.229 C 187.715 42.628, 190.048 40.493, 191.581 38.483 C 193.991 35.323, 194.427 33.700, 194.806 26.480 C 195.186 19.239, 194.961 17.673, 193.115 14.685 C 186.508 3.996, 159.957 3.363, 122.601 13.005 C 106.637 17.126, 96.886 18.048, 91.386 15.957 L 88.642 14.913 90.743 12.813 C 93.674 9.881, 107.357 7.053, 118.750 7.024 C 135.369 6.981, 127.912 3.133, 110 2.508 C 104.225 2.307, 98.375 2.360, 97 2.626" fill="none" stroke="#000" stroke-width="2px" fill-rule="evenodd"/>
</svg>
