<svg xmlns="http://www.w3.org/2000/svg" width="281" height="188" viewBox="0 0 281 188" version="1.1">
	<path d="M 52 7.142 C 48.425 9.872, 43.104 14.669, 40.176 17.803 C 32.931 25.555, 23.860 39.628, 23.269 44.030 C 22.914 46.674, 21.914 48.205, 19.430 49.908 C 15.690 52.470, 4.945 68.440, 3.070 74.222 C 1.544 78.931, 3.182 82.862, 7.509 84.870 C 9.154 85.634, 11.405 87.078, 12.511 88.079 C 13.617 89.081, 16.445 90.207, 18.795 90.583 C 23.591 91.350, 23.472 92.039, 18.289 93.500 C 16.339 94.050, 14.071 95.513, 13.249 96.750 C 11.851 98.857, 11.898 99, 13.985 99 C 15.725 99, 16.051 99.384, 15.469 100.750 C 15.060 101.713, 14.237 104.214, 13.640 106.309 C 12.195 111.384, 14.250 115.370, 18.531 115.794 C 22.565 116.194, 25.219 114, 25.654 109.907 C 25.853 108.033, 26.849 105.375, 27.866 104 C 29.636 101.608, 30.198 101.495, 40.827 101.385 C 53.642 101.253, 56.235 100.179, 58.867 93.911 C 59.765 91.771, 61.187 90.016, 62.027 90.010 C 62.868 90.005, 64.496 89.341, 65.646 88.535 C 66.796 87.730, 67.959 87.292, 68.230 87.563 C 68.997 88.330, 88.879 92.069, 94.863 92.571 C 97.813 92.819, 100.625 93.268, 101.113 93.570 C 101.601 93.871, 102.001 93.754, 102.002 93.309 C 102.003 92.864, 104.501 92.500, 107.554 92.500 L 113.104 92.500 116.534 98.919 C 119.070 103.667, 119.685 105.675, 118.892 106.630 C 118.144 107.532, 118.128 109.358, 118.839 112.694 C 119.902 117.679, 119.121 120, 116.378 120 C 114.345 120, 114.703 122.422, 117.050 124.545 C 119.672 126.918, 125.303 126.941, 127.902 124.588 C 129.848 122.828, 129.970 122.853, 132.235 125.487 C 133.959 127.491, 135.797 128.335, 139.290 128.729 C 143.342 129.186, 144.619 128.852, 148.257 126.384 C 153.850 122.590, 154.214 121.872, 154.467 114.114 C 154.765 104.996, 155.621 102.646, 158.346 103.462 C 159.531 103.817, 163.425 104.564, 167 105.122 C 173.479 106.133, 181.461 108.357, 190 111.530 C 193.972 113.006, 207.632 113.711, 217.500 112.950 C 221.938 112.607, 234.753 116.772, 240.500 120.424 C 249.398 126.079, 255 130.906, 255 132.918 C 255 136.561, 257.191 141, 258.989 141 C 262.875 141, 265.282 152.866, 262.864 160.101 C 261.125 165.300, 260.244 165.586, 260.180 160.973 C 260.060 152.249, 252.096 145.278, 243.373 146.261 C 238.156 146.849, 235.065 148.737, 231.356 153.599 C 227.571 158.563, 226.849 167.839, 229.803 173.582 C 235.917 185.474, 248.283 189.197, 260.835 182.924 C 267.909 179.390, 272.678 174.129, 276.625 165.507 C 280.499 157.045, 280.577 144.523, 276.820 134.194 L 274.162 126.889 276.581 125.969 C 279.558 124.837, 279.668 123.428, 276.893 121.943 C 275.248 121.062, 274.912 120.190, 275.359 117.957 C 276.864 110.429, 270.851 104.832, 258.776 102.521 C 254.611 101.724, 249.833 100.269, 248.160 99.286 C 244.137 96.924, 220.022 80.616, 212.800 75.374 C 203.646 68.728, 190.244 61.844, 176 56.470 C 150.022 46.668, 134.211 40.984, 132.950 40.991 C 132.097 40.996, 130.860 40.460, 130.200 39.800 C 129.540 39.140, 129 38.891, 129 39.246 C 129 39.602, 126.412 38.982, 123.250 37.870 C 120.088 36.758, 116.600 35.684, 115.500 35.483 C 114.400 35.283, 111.925 34.826, 110 34.469 C 108.075 34.112, 106.344 33.391, 106.153 32.868 C 105.959 32.337, 105.114 32.487, 104.240 33.208 C 103.001 34.231, 102.587 34.240, 102.255 33.252 C 101.984 32.447, 100.922 32.233, 99.268 32.648 C 97.471 33.099, 96.914 32.948, 97.410 32.146 C 97.799 31.516, 97.668 31, 97.118 31 C 96.568 31, 95.810 31.498, 95.434 32.107 C 94.957 32.879, 94.485 32.803, 93.875 31.857 C 93.149 30.732, 92.829 30.756, 92 32 C 91.122 33.317, 90.885 33.321, 90.054 32.028 C 89.244 30.769, 89.011 30.808, 88.437 32.304 C 87.959 33.550, 87.415 33.759, 86.541 33.034 C 85.867 32.475, 84.988 32.345, 84.587 32.746 C 84.187 33.147, 83.328 33.489, 82.679 33.507 C 82.031 33.525, 77.777 35.453, 73.227 37.792 C 66.139 41.436, 64.865 41.812, 64.330 40.417 C 63.401 37.995, 64.737 17.004, 66.061 13.232 C 67.623 8.783, 66.549 5.335, 63.035 3.518 C 61.420 2.683, 59.739 2.040, 59.300 2.089 C 58.860 2.138, 55.575 4.411, 52 7.142 M 132.392 101.237 L 135.410 107.545 138.660 106.023 C 140.448 105.185, 142.337 103.320, 142.859 101.878 C 143.741 99.438, 143.553 99.182, 140.153 98.183 C 138.144 97.592, 135.600 96.911, 134.500 96.668 C 133.400 96.425, 131.797 95.935, 130.937 95.578 C 129.791 95.103, 130.179 96.613, 132.392 101.237" fill="none" stroke="#000" stroke-width="2px" fill-rule="evenodd"/>
</svg>
