<svg xmlns="http://www.w3.org/2000/svg" width="284" height="208" viewBox="0 0 284 208" version="1.1">
	<path d="M 118.971 3.922 C 114.791 4.741, 109.734 8.261, 107.951 11.592 C 106.223 14.820, 108.172 21.328, 111.585 23.729 C 112.970 24.703, 116.180 27.637, 118.717 30.250 C 123.552 35.227, 125 35.981, 125 33.521 C 125 32.337, 125.463 32.254, 127.322 33.101 C 129.047 33.887, 129.639 34.973, 129.626 37.329 C 129.616 39.073, 129.937 41.202, 130.338 42.060 C 130.790 43.026, 130.167 44.948, 128.705 47.103 C 125.202 52.264, 124.806 54.806, 127.139 57.139 C 128.626 58.626, 129.874 58.967, 132.065 58.486 C 134.449 57.962, 135.029 58.185, 135.156 59.671 C 135.242 60.677, 135.420 62.625, 135.551 64 C 135.683 65.375, 136.057 70.406, 136.382 75.181 C 136.729 80.256, 137.826 86.021, 139.024 89.061 C 140.151 91.920, 140.944 94.383, 140.787 94.533 C 140.629 94.683, 132.175 96.476, 122 98.517 C 94.751 103.984, 80.440 110.263, 67.122 122.593 C 63.148 126.273, 59.010 131.020, 57.928 133.142 C 56.024 136.873, 55.787 137.001, 50.730 137.016 C 47.853 137.024, 42.800 137.731, 39.500 138.587 C 36.200 139.443, 30.108 140.944, 25.963 141.922 C 14.943 144.524, 8.795 148.359, 3.579 155.886 C 0.174 160.800, 0.650 164.349, 5.296 168.692 C 12.825 175.728, 31.626 183.458, 53.334 188.441 C 57.092 189.304, 68.004 192.680, 77.582 195.944 C 95.394 202.014, 104.673 204.180, 120.458 205.952 C 128.961 206.906, 129.532 206.849, 131.696 204.816 C 133.941 202.707, 139.659 202.053, 142.189 203.617 C 142.789 203.987, 161.038 204.230, 182.744 204.157 C 218.651 204.035, 222.807 203.848, 228.854 202.078 C 232.509 201.008, 237.750 199.827, 240.500 199.452 C 249.830 198.182, 265.753 190.134, 273.832 182.605 C 277.715 178.986, 283 168.372, 283 164.191 C 283 157.660, 278.270 149.330, 269.862 141.053 C 267.145 138.379, 263.365 135.452, 261.461 134.549 C 257.524 132.680, 257.416 132.441, 259.555 130.302 C 260.962 128.895, 260.929 128.544, 259.204 126.623 C 256.911 124.069, 255.741 121.363, 255.475 118 C 255.072 112.902, 252.568 99.823, 250.687 93 C 249.854 89.975, 248.944 85.475, 248.665 83 C 247.860 75.843, 246.225 69.616, 243.095 61.785 C 237.718 48.337, 234.180 43.322, 219.841 28.822 C 209.396 18.260, 203.933 15.013, 193.299 13.048 C 186.020 11.702, 175.563 11.716, 170.658 13.078 C 167.225 14.031, 166.427 13.877, 163.158 11.628 C 158.097 8.147, 155.438 7.316, 148.500 7.047 C 137.055 6.605, 135.484 6.377, 132.300 4.693 C 128.999 2.947, 125.097 2.721, 118.971 3.922 M 146.500 146.113 C 134.774 147.141, 117.744 148.923, 113.250 149.593 C 108.688 150.274, 107.569 151.415, 111.250 151.633 C 112.487 151.707, 114.850 152.079, 116.500 152.461 C 118.150 152.842, 121.525 153.272, 124 153.415 C 126.475 153.558, 129.175 153.948, 130 154.282 C 130.825 154.616, 135.325 155.129, 140 155.421 C 144.675 155.712, 153.900 156.339, 160.500 156.812 C 167.100 157.286, 180.375 157.556, 190 157.412 C 199.625 157.269, 210.811 157.150, 214.857 157.147 C 220.350 157.144, 222.107 156.822, 221.792 155.876 C 221.244 154.233, 217.253 153.092, 208.147 151.975 C 204.103 151.480, 200.237 150.611, 199.555 150.046 C 198.874 149.481, 195.433 148.094, 191.908 146.965 C 186.337 145.181, 183.409 144.951, 169.500 145.206 C 160.700 145.368, 150.350 145.776, 146.500 146.113 M 33 155.523 C 20.031 157.897, 15 159.365, 15 160.775 C 15 161.732, 26.396 168.637, 33.086 171.733 C 35.608 172.901, 41.908 175.202, 47.086 176.848 C 68.902 183.783, 72.768 185.033, 78 186.847 C 91.101 191.390, 92.723 190.307, 81.480 184.523 C 76.873 182.153, 70.900 177.811, 66.057 173.311 C 59.073 166.824, 57.901 165.213, 55.995 159.484 L 53.837 153 49.668 153.117 C 47.376 153.182, 39.875 154.264, 33 155.523 M 48.250 172.360 C 47.013 172.973, 46 173.818, 46 174.237 C 46 175.469, 47.018 175.131, 49.727 173 C 52.470 170.842, 51.854 170.575, 48.250 172.360" fill="none" stroke="#000" stroke-width="2px" fill-rule="evenodd"/>
</svg>
