<svg xmlns="http://www.w3.org/2000/svg" width="288" height="177" viewBox="0 0 288 177" version="1.1">
	<path d="M 118.564 3.322 C 116.397 4.262, 113.952 4.354, 109.226 3.675 C 103.565 2.861, 102.516 2.981, 100.162 4.714 C 98.448 5.977, 95.077 6.899, 90.695 7.305 C 78.105 8.471, 68.634 15.856, 56.191 34.209 C 46.797 48.066, 45.121 51.017, 44.384 55 C 43.211 61.341, 42.454 62.086, 38.744 60.551 C 33.379 58.331, 18.108 60.870, 17.258 64.123 C 16.670 66.371, 8.687 72, 6.087 72 C 4.939 72, 4 72.450, 4 73 C 4 73.550, 5.098 74, 6.441 74 C 7.784 74, 9.156 74.443, 9.491 74.985 C 10.251 76.214, 4.456 82, 2.466 82 C 1.659 82, 1 82.506, 1 83.125 C 1 83.824, 2.060 84.038, 3.797 83.691 C 5.335 83.383, 7.248 83.571, 8.047 84.110 C 9.262 84.928, 9.131 85.347, 7.250 86.666 C 4.418 88.652, 4.329 90.409, 7.096 89.685 C 8.249 89.384, 12.187 89.697, 15.846 90.382 C 20.346 91.224, 23.633 91.323, 26 90.688 C 30.081 89.592, 33.522 89.474, 52.637 89.776 L 66.773 90 81.656 99.750 C 89.842 105.113, 98.780 110.502, 101.519 111.727 C 107.711 114.495, 145.819 128, 147.438 128 C 148.090 128, 150.607 128.958, 153.030 130.128 C 157.193 132.140, 157.968 132.192, 167.170 131.077 C 174.162 130.229, 177.974 130.196, 180.702 130.957 C 186.071 132.456, 194.132 137.134, 195.415 139.497 C 196.012 140.595, 197.738 142.973, 199.250 144.782 C 200.762 146.590, 202 148.504, 202 149.035 C 202 149.566, 202.605 150, 203.345 150 C 205.211 150, 207.605 152.968, 208.385 156.249 C 208.794 157.973, 210.540 159.947, 213.067 161.542 C 215.283 162.941, 217.347 164.741, 217.655 165.543 C 218.365 167.394, 219.755 167.425, 220.177 165.599 C 220.788 162.949, 228.846 167.743, 230.735 171.880 L 232.389 175.500 232.944 170.509 C 233.356 166.810, 233.956 165.431, 235.260 165.183 C 236.538 164.941, 237.188 165.692, 237.635 167.925 C 238.581 172.657, 240.248 171.582, 239.843 166.500 C 239.647 164.025, 239.826 162, 240.243 162 C 240.659 162, 241 162.675, 241 163.500 C 241 164.325, 241.422 165, 241.937 165 C 242.834 165, 242.416 160.380, 241.032 155 C 240.678 153.625, 239.401 152.056, 238.194 151.513 C 236.988 150.970, 236 149.966, 236 149.282 C 236 147.216, 231.448 146.717, 228.152 148.421 L 225.089 150.005 221.294 144.441 C 219.207 141.381, 215.801 136.839, 213.724 134.347 C 211.647 131.856, 209.042 128.043, 207.936 125.874 L 205.924 121.930 209.212 120.565 C 211.020 119.815, 215.294 118.069, 218.710 116.687 C 228.430 112.752, 244 100.336, 244 96.520 C 244 95.855, 243.098 94.493, 241.995 93.495 C 240.007 91.696, 240.022 91.660, 243.745 89.371 C 247.311 87.179, 255.739 85.995, 254.595 87.847 C 253.866 89.026, 257.169 100.058, 259.034 102.675 C 259.879 103.862, 262.221 105.139, 264.250 105.519 C 266.590 105.958, 268.151 106.901, 268.533 108.105 C 269.167 110.101, 270.912 110.703, 271.125 109 C 271.374 107.009, 271.544 106.479, 272.334 105.234 C 272.776 104.537, 273.506 104.195, 273.956 104.473 C 274.405 104.751, 275.329 104.308, 276.009 103.489 C 276.689 102.670, 278.292 102, 279.573 102 C 280.853 102, 282.359 101.212, 282.920 100.250 C 283.549 99.170, 283.951 99.001, 283.970 99.809 C 283.986 100.529, 284.450 100.840, 285 100.500 C 285.550 100.160, 286 97.840, 286 95.345 C 286 89.408, 283.013 85, 278.991 85 C 276.070 85, 274.238 83.589, 275.858 82.588 C 277.362 81.658, 276.395 70.252, 274.577 67.477 C 272.779 64.733, 273.402 61.047, 276.748 54.641 C 278.500 51.288, 277.844 43.937, 275.471 40.315 C 273.012 36.562, 266.599 37.176, 253.258 42.440 C 247.075 44.879, 241.031 47.565, 239.827 48.409 C 237.735 49.874, 237.385 49.682, 231.918 44.078 C 223.969 35.929, 217.558 31.315, 202.500 22.906 C 182.810 11.910, 175.617 8.849, 167.277 7.913 C 163.280 7.465, 157.916 6.172, 155.357 5.040 C 151.575 3.367, 147.968 2.894, 136.102 2.515 C 125.579 2.179, 120.680 2.404, 118.564 3.322" fill="none" stroke="#000" stroke-width="2px" fill-rule="evenodd"/>
</svg>
