<?xml version="1.0" encoding="utf-8"?><!DOCTYPE svg PUBLIC "-//W3C//DTD SVG 1.1//EN" "http://www.w3.org/Graphics/SVG/1.1/DTD/svg11.dtd"><svg version="1.1" id="Слой_1" xmlns="http://www.w3.org/2000/svg" xmlns:xlink="http://www.w3.org/1999/xlink" x="0px" y="0px" width="150px" height="150px" viewBox="0 0 150 150" enable-background="new 0 0 150 150" xml:space="preserve"><g transform="translate(0.000000,150.000000) scale(0.100000,-0.100000)"><path fill="none" stroke="#000000" stroke-width="8" stroke-miterlimit="10" d="M291,1364c-31-40-42-95-35-176c15-175,14-190-22-223c-17-16-50-43-72-59c-41-29-48-43-93-181c-10-33-23-68-29-77c-6-11-6-19,0-23c6-3,10-14,10-23c0-28,14-42,46-46c59-7,134-54,134-84c0-21,120-141,162-163l37-19l-17-35c-20-41-69-68-111-60c-22,4-38-2-63-22c-18-15-35-29-38-31s3-10,14-17c26-20,261-13,284,8c11,10,47,16,103,19c64,3,91,9,104,21c9,10,20,15,24,13c4-3,28-6,54-7c26-2,47-5,47-7s-9-16-21-30l-20-26l22-8c32-12,101-7,384,28c51,7,101,36,97,57c-2,11,7,19,28,24c16,4,30,11,30,16c0,4,8,15,18,25c18,18,58,94,64,121c2,8,13,25,26,37c16,16,19,24,10,27c-8,4-7,6,5,6c20,1,24,21,4,21c-21,0-47,34-53,66c-10,65-45,162-72,204c-69,106-140,148-321,190c-136,32-172,29-342-19c-165-47-174-48-187-14c-16,40-13,93,9,131c27,48,40,141,28,202c-4,19-10,52-14,73c-5,31-13,41-38,52c-33,14-74,5-89-18c-5-8-8-7-8,4c0,22-32,49-58,49C321,1390,302,1378,291,1364z"/></g><g transform="translate(0.000000,150.000000) scale(0.100000,-0.100000)"><path fill="none" stroke="#000000" stroke-width="8" stroke-miterlimit="10" d="M130.167,1384.74c4-15-3-44-19-81c-14-31-25-61-25-67s-18-42-41-79c-48-82-48-120,2-137c25-8,33-7,49,9c32,32,72,55,120,67c41,11,47,10,66-10c37-38,134-209,134-237c0-51,31-132,61-159c16-15,31-36,34-47c2-10,11-44,20-74c8-30,18-80,21-110s9-71,13-90c11-53,4-129-14-153c-53-73-65-91-65-98c0-5,18-9,41-9c32,0,42,4,46,20c3,10,16,26,29,35c15,9,24,25,24,41c0,13,6,27,14,30c10,4,12,20,9,67c-7,78-7,80,1,212c4,60,9,111,12,114c6,7,13,7,157,15c129,8,170,16,244,55c35,17,43,18,53,6c12-14,50-17,50-3c0,4,4,8,9,8c14,0,31-57,42-140c20-151,20-188,3-247c-21-74-54-153-64-153c-12,0-50-69-41-74c8-6,59,2,73,10c5,3,6,10,3,15c-4,5,6,21,20,35c25,24,45,78,87,226c6,21,14,38,18,38c16,0,27-58,25-130c-3-82-11-105-54-165c-16-22-27-43-25-47c3-5,25-8,50-8h45l-3,36c-2,27,3,40,21,53c21,16,24,27,25,89c1,64,8,89,18,63c2-4,12-11,23-15c30-9,50,43,47,126c-1,37,1,69,6,72c9,5,7,355-2,395c-15,65-48,111-104,144c-103,59-177,73-273,51c-32-7-71-16-86-19c-15-2-49-8-75-13c-25-5-66-7-90-5c-61,6-180,68-257,135c-36,32-91,69-121,83s-62,29-70,35c-49,32-96,51-137,54c-38,3-49,9-60,30c-16,31-37,35-28,6c4-14,2-20-9-20c-9,0-21,9-28,20C136.167,1417.74,123.167,1414.74,130.167,1384.74z"/></g><g transform="translate(0.000000,150.000000) scale(0.100000,-0.100000)"><path fill="none" stroke="#000000" stroke-width="8" stroke-miterlimit="10" d="M1307.487,1456.962c0-7-4-12-9-12c-29,0-171-79-203-113l-37-39l-44,15c-24,8-64,29-87,46c-51,37-121,59-210,67c-78,7-204-23-263-62c-30-19-47-24-80-20c-40,4-41,4-20-11c13-9,23-19,23-23c0-5-15-31-34-60c-19-28-44-84-56-123c-12-40-31-96-42-126c-21-60-25-156-9-238c7-33,7-63,0-85c-5-18-12-46-15-62c-2-16-9-37-14-46c-5-10-7-20-4-22c8-8-17-108-27-108c-6,0-8-4-4-9c3-5-1-16-9-24s-12-17-9-21c3-3,0-12-7-21c-7-8-10-15-7-15s1-18-4-40c-14-62-4-87,38-92c38-5,61,17,68,64c4,19,28,116,42,168c2,8,4,17,5,20c1,11,30,86,43,110c7,14,16,47,20,74c7,41,16,58,52,93l44,44l33-16c19-9,33-22,32-28c-6-33-21-63-43-86c-23-24-24-32-19-91c6-68,11-99,21-130c3-10,8-35,10-56c9-63,16-97,23-108s8-16,11-36c0-5,7-7,15-4c9,3,19-5,28-23c12-25,19-28,65-29l53-2l-18,32c-9,17-21,34-27,38c-5,4-7,8-2,8c4,0,0,14-8,30c-9,17-13,35-10,39c3,5,1,11-4,13c-13,4-42,153-37,185c3,14,12,33,21,43c8,9,15,22,15,28c0,7,9,12,19,12c12,0,30-18,50-50c17-27,27-50,23-50s-1-4,6-9c7-4,14-18,15-29c1-12,4-22,7-22c6,0,30-75,31-95c0-5,4-15,9-20c13-15,44-177,49-250c1-15,3-17,10-6c10,16,31,6,31-15c0-8,7-14,15-15c52-3,84-2,98,4c9,3,19,2,22-3c5-9,23-8,40,1c6,4,20,5,33,4c20-1,27,10,23,38c0,4,2,7,7,7c4,0,7,87,8,193v192l36,90c77,189,105,315,89,401c-15,81-14,97,5,90c22-8,54,11,54,34c0,10,4,21,9,24c8,5,12,22,27,96c5,26,5,83-2,144c-4,37-3,61,4,65s6,13-4,25C1313.487,1459.962,1307.487,1462.962,1307.487,1456.962z M915.487,560.962l56-2l-3-145c-2-79-3-161-4-181c0-21-4-38-7-38c-4,0-17,28-28,63c-18,54-24,80-37,167c-3,22-14,51-36,91c-21,41-25,64-8,53C854.487,565.962,884.487,561.962,915.487,560.962z"/></g></svg>