<?xml version="1.0" encoding="utf-8"?>
<!-- Generator: Adobe Illustrator 17.0.0, SVG Export Plug-In . SVG Version: 6.00 Build 0)  -->
<!DOCTYPE svg PUBLIC "-//W3C//DTD SVG 1.1//EN" "http://www.w3.org/Graphics/SVG/1.1/DTD/svg11.dtd">
<svg version="1.1" id="Слой_1" xmlns="http://www.w3.org/2000/svg" xmlns:xlink="http://www.w3.org/1999/xlink" x="0px" y="0px"
	 width="150px" height="150px" viewBox="0 0 150 150" enable-background="new 0 0 150 150" xml:space="preserve">
<g>
	<linearGradient id="SVGID_1_" gradientUnits="userSpaceOnUse" x1="29.2737" y1="44.4297" x2="39.0308" y2="80.1158">
		<stop  offset="0" style="stop-color:#9ED8F7"/>
		<stop  offset="0.6242" style="stop-color:#7EC2EC"/>
		<stop  offset="1" style="stop-color:#3D7ABE"/>
	</linearGradient>
	<path fill="url(#SVGID_1_)" d="M5.674,55.675c4.346-11.017,34.823-15.819,44.037-10.904c10.613,5.66,11.825,17.688,11.018,31.232
		c-8.795,1.616-34.105,5.382-35.316,18.118C28.849,77.139,26.799,45.77,5.674,55.675z"/>
	<linearGradient id="SVGID_2_" gradientUnits="userSpaceOnUse" x1="36.0914" y1="46.9971" x2="44.1695" y2="77.5606">
		<stop  offset="0" style="stop-color:#D7EEFD"/>
		<stop  offset="1" style="stop-color:#64B8E8"/>
	</linearGradient>
	<path fill="url(#SVGID_2_)" d="M22.446,51.055c1.086,0.798,2.098,1.747,3.023,2.845c4.997,5.926,6.753,15.338,6.99,24.083
		c7.285-3.696,16.212-5.62,22.699-6.824C55.356,59.143,52.939,53.02,47,49.852c-1.129-0.602-3.89-1.247-8.243-1.247
		C33.01,48.604,27.238,49.594,22.446,51.055L22.446,51.055z"/>
	<linearGradient id="SVGID_3_" gradientUnits="userSpaceOnUse" x1="117.4237" y1="4.5185" x2="117.4237" y2="46.4637">
		<stop  offset="0" style="stop-color:#52AEE2"/>
		<stop  offset="1" style="stop-color:#2067B1"/>
	</linearGradient>
	<path fill="url(#SVGID_3_)" d="M87.73,9.745c10.488-1.44,44.147-1.263,50.542,2.497c12.391,7.289,8.405,29.716,7.583,39.589
		c-2.288-3.188-3.624-3.753-8.976-4.659c-0.461-9.528,7.794-34.079-14.827-35.107C105.056,11.292,87.73,9.745,87.73,9.745z"/>
	<linearGradient id="SVGID_4_" gradientUnits="userSpaceOnUse" x1="113.8641" y1="48.9294" x2="125.9316" y2="66.6434">
		<stop  offset="0" style="stop-color:#9ED8F7"/>
		<stop  offset="0.6242" style="stop-color:#7EC2EC"/>
		<stop  offset="1" style="stop-color:#5AA3DA"/>
	</linearGradient>
	<path fill="url(#SVGID_4_)" d="M95.339,60.332c7.814-11.105,36.193-15.012,44.419-12.75c8.226,2.262,9.459,8.431-1.85,14.806
		c-11.311,6.375-29.597,15.678-34.027,16.168C111.379,71.643,95.339,60.332,95.339,60.332z"/>
	<linearGradient id="SVGID_5_" gradientUnits="userSpaceOnUse" x1="119.9953" y1="49.5858" x2="128.4953" y2="60.8294">
		<stop  offset="0" style="stop-color:#D7EEFD"/>
		<stop  offset="1" style="stop-color:#A5DAF8"/>
	</linearGradient>
	<path fill="url(#SVGID_5_)" d="M109.395,57.018c4.275,2.168,6.702,5.467,6.797,9.735c6.493-2.97,10.476-4.64,18.887-9.38
		c2.716-1.529,4.163-2.815,4.852-3.614C132.878,48.806,116.366,52.617,109.395,57.018L109.395,57.018z"/>
	<linearGradient id="SVGID_6_" gradientUnits="userSpaceOnUse" x1="96.2848" y1="8.7272" x2="87.97" y2="75.2543">
		<stop  offset="0" style="stop-color:#B3E0F9"/>
		<stop  offset="1" style="stop-color:#3A77BC"/>
	</linearGradient>
	<path fill="url(#SVGID_6_)" d="M46.329,43.891c0.758-8.345,7.094-30.736,21.414-33.11c20.102-3.331,65.036-5.691,69.34,9.246
		c2.543,8.822,0.824,22.004-0.205,27.145c-7.403-0.617-32.844,1.979-41.539,13.161c-5.758,7.404-6.59,14.021-6.73,18.678
		c-7.338-1.719-21.569-3.583-27.881-3.007C61.202,65.885,59.9,46.564,46.329,43.891z"/>
	<linearGradient id="SVGID_7_" gradientUnits="userSpaceOnUse" x1="95.7208" y1="13.8627" x2="88.5025" y2="72.1692">
		<stop  offset="0" style="stop-color:#D7EEFD"/>
		<stop  offset="1" style="stop-color:#64B8E8"/>
	</linearGradient>
	<path fill="url(#SVGID_7_)" d="M65.728,71.006c5.51,0.205,12.698,1.083,18.512,2.1c0.804-4.537,2.702-10.015,7.203-15.803
		c9.071-11.663,31.362-14.78,41.26-15.119c0.826-6.008,2.617-15.122-0.361-20.791c-4.232-8.054-40.507-9.004-60.688-6.304
		c-13.96,1.868-18.074,16.757-19.819,25.427C63.205,45.807,65.524,60.903,65.728,71.006L65.728,71.006z"/>
	<linearGradient id="SVGID_8_" gradientUnits="userSpaceOnUse" x1="58.0294" y1="53.9436" x2="54.5576" y2="139.0089">
		<stop  offset="0" style="stop-color:#76B7E6"/>
		<stop  offset="1" style="stop-color:#3A77BC"/>
	</linearGradient>
	<path fill="url(#SVGID_8_)" d="M26.411,93.325c2.156-11.989,3.258-43.583-17.101-39.641c-9.908,1.917-10.362,19.69,2.074,19.95
		c0,13.473-0.518,42.232-0.518,52.078c0,9.846,3.746,10.537,43.529,14.25c13.687,1.277,37.009,2.394,49.313,1.898
		c0.811-12.154,0.434-56.05,0.175-63.304c12.956-2.333,12.422-21.44-2.333-20.21c-18.654,1.555-12.694,37.052-12.694,46.896
		c0,9.846-24.131,6.322-35.238,5.441C37.293,109.388,23.16,111.394,26.411,93.325z"/>
	<linearGradient id="SVGID_9_" gradientUnits="userSpaceOnUse" x1="58.1432" y1="114.0183" x2="57.8556" y2="76.2119">
		<stop  offset="0" style="stop-color:#3D7ABE"/>
		<stop  offset="0.0296" style="stop-color:#528DCA"/>
		<stop  offset="0.0786" style="stop-color:#70A8DB"/>
		<stop  offset="0.1289" style="stop-color:#88BEE8"/>
		<stop  offset="0.1803" style="stop-color:#98CEF1"/>
		<stop  offset="0.2334" style="stop-color:#A2D7F6"/>
		<stop  offset="0.2909" style="stop-color:#A5DAF8"/>
		<stop  offset="1" style="stop-color:#4182C4"/>
	</linearGradient>
	<path fill="url(#SVGID_9_)" d="M88.076,78.296c-9.046-2.882-28.676-4.27-42.927,0.652c-14.25,4.922-21.799,9.134-19.256,21.631
		c3.597,17.68,48.866,13.427,57.556,10.628c8.689-2.798,7.498-14.711,6.429-23.177C88.81,79.564,88.076,78.296,88.076,78.296z"/>
	<linearGradient id="SVGID_10_" gradientUnits="userSpaceOnUse" x1="103.7062" y1="99.5543" x2="144.8148" y2="99.5543">
		<stop  offset="0" style="stop-color:#93CCF0"/>
		<stop  offset="1" style="stop-color:#3A77BC"/>
	</linearGradient>
	<path fill="url(#SVGID_10_)" d="M103.881,78.556c8.526-3.418,35.465-16.784,40.606-21.308c1.029,12.544-0.679,50.95-0.875,54.867
		c-5.21,6.991-22.486,18.966-39.906,29.745C104.244,137.016,103.881,78.556,103.881,78.556z"/>
	<linearGradient id="SVGID_11_" gradientUnits="userSpaceOnUse" x1="108.469" y1="98.561" x2="140.4506" y2="99.6695">
		<stop  offset="0" style="stop-color:#B5E1FA"/>
		<stop  offset="1" style="stop-color:#4391CF"/>
	</linearGradient>
	<path fill="url(#SVGID_11_)" d="M109.735,98.747c0.039,4.632,0.005,12.411,0.036,19.111c0.03,6.701,1.428,12.934,9.144,7.25
		c4.279-3.151,6.034-4.224,12.296-9.233c6.261-5.009,6.775-6.283,7.087-14.703c0.314-8.42,0.598-17.446,0.656-22.196
		c0.085-7.046-3.448-9.408-7.315-7.442c-3.867,1.964-9.381,4.712-14.116,7.139C110.087,82.484,109.67,90.907,109.735,98.747z"/>
	<linearGradient id="SVGID_12_" gradientUnits="userSpaceOnUse" x1="15.9977" y1="58.8272" x2="19.0293" y2="130.7242">
		<stop  offset="0" style="stop-color:#87532C"/>
		<stop  offset="1" style="stop-color:#301C10"/>
	</linearGradient>
	<path fill="url(#SVGID_12_)" d="M6.19,60.54c1.414-3.749,7.458-6.553,12.545-1.045c2.759,2.986,4.183,8.364,4.647,17.541
		c0.464,9.177-2.493,24.406-0.928,31.713c1.741,8.131,9.407,13.243,5.923,19.864c-3.484,6.62-17.656,2.787-13.822-12.663
		c3.833-15.45,4.57-29.395,3.368-36.592C15.95,67.547,3.012,68.965,6.19,60.54z"/>
	<linearGradient id="SVGID_13_" gradientUnits="userSpaceOnUse" x1="15.2217" y1="56.6634" x2="19.6221" y2="129.5555">
		<stop  offset="0" style="stop-color:#C06625"/>
		<stop  offset="1" style="stop-color:#552810"/>
	</linearGradient>
	<path fill="url(#SVGID_13_)" d="M12.476,57.637c-2.543,0-4.507,1.679-5.132,3.339c-1.212,3.208,0.213,4.383,3.546,6.733
		c3.2,2.258,7.185,5.066,8.25,11.447c1.079,6.461,0.839,20.053-3.39,37.091c-1.479,5.969-0.044,9.456,1.422,11.331
		c1.426,1.822,3.561,2.91,5.711,2.91c1.977,0,3.582-0.893,4.402-2.45c1.809-3.436,0.052-6.451-2.172-10.267
		c-1.473-2.533-3.146-5.403-3.865-8.764c-0.93-4.342-0.338-11.277,0.237-17.981c0.423-4.947,0.861-10.063,0.665-13.928
		c-0.448-8.845-1.78-14.016-4.32-16.767C16.2,58.569,14.349,57.637,12.476,57.637L12.476,57.637z"/>
	
		<linearGradient id="SVGID_14_" gradientUnits="userSpaceOnUse" x1="2940.1641" y1="64.6675" x2="2943.1956" y2="136.5656" gradientTransform="matrix(-1 0 0 1 3039.998 0)">
		<stop  offset="0" style="stop-color:#87532C"/>
		<stop  offset="1" style="stop-color:#301C10"/>
	</linearGradient>
	<path fill="url(#SVGID_14_)" d="M109.642,66.382c-1.413-3.75-7.458-6.553-12.545-1.045c-2.758,2.986-4.182,8.364-4.646,17.541
		c-0.464,9.176,2.493,24.405,0.928,31.712c-1.742,8.132-9.408,13.244-5.924,19.865c3.485,6.621,17.657,2.788,13.823-12.663
		c-3.832-15.449-4.569-29.394-3.368-36.59C99.881,73.389,112.821,74.807,109.642,66.382z"/>
	
		<linearGradient id="SVGID_15_" gradientUnits="userSpaceOnUse" x1="2939.3877" y1="62.5048" x2="2943.7881" y2="135.3969" gradientTransform="matrix(-1 0 0 1 3039.998 0)">
		<stop  offset="0" style="stop-color:#C06625"/>
		<stop  offset="1" style="stop-color:#552810"/>
	</linearGradient>
	<path fill="url(#SVGID_15_)" d="M103.356,63.479c-1.874,0-3.725,0.932-5.354,2.695c-2.539,2.751-3.871,7.921-4.319,16.767
		c-0.196,3.864,0.242,8.981,0.665,13.928c0.576,6.704,1.167,13.638,0.239,17.98c-0.721,3.362-2.393,6.232-3.867,8.763
		c-2.225,3.818-3.981,6.834-2.172,10.269c0.819,1.557,2.424,2.449,4.402,2.449c2.149,0,4.284-1.087,5.71-2.91
		c1.467-1.874,2.901-5.36,1.421-11.33c-4.228-17.038-4.468-30.63-3.389-37.092c1.064-6.38,5.049-9.191,8.249-11.448
		c3.334-2.351,4.757-3.525,3.546-6.733C107.862,65.159,105.899,63.479,103.356,63.479L103.356,63.479z"/>
	<linearGradient id="SVGID_16_" gradientUnits="userSpaceOnUse" x1="93.3329" y1="134.8984" x2="96.6087" y2="114.498">
		<stop  offset="0" style="stop-color:#A55B2B"/>
		<stop  offset="1" style="stop-color:#7F3811"/>
	</linearGradient>
	<path fill="url(#SVGID_16_)" d="M96.502,113.264c-0.077,0.681-0.178,1.327-0.309,1.93c-0.772,3.609-2.509,6.594-4.04,9.227
		c-2.326,3.991-3.473,6.18-2.15,8.692c0.534,1.013,1.58,1.57,2.946,1.57c1.648,0,3.298-0.851,4.414-2.277
		c1.242-1.586,2.442-4.592,1.121-9.921C97.69,119.286,97.035,116.205,96.502,113.264L96.502,113.264z"/>
	
		<linearGradient id="SVGID_17_" gradientUnits="userSpaceOnUse" x1="2940.7246" y1="129.2571" x2="2944.0005" y2="108.8568" gradientTransform="matrix(-1 0 0 1 2963.2734 0)">
		<stop  offset="0" style="stop-color:#A55B2B"/>
		<stop  offset="1" style="stop-color:#7F3811"/>
	</linearGradient>
	<path fill="url(#SVGID_17_)" d="M19.38,107.623c-0.534,2.94-1.19,6.023-1.983,9.222c-1.32,5.328-0.12,8.335,1.122,9.92
		c1.115,1.426,2.765,2.279,4.413,2.279c1.367,0,2.413-0.558,2.947-1.57c1.323-2.514,0.176-4.703-2.15-8.693
		c-1.531-2.634-3.268-5.617-4.04-9.228C19.558,108.95,19.457,108.303,19.38,107.623L19.38,107.623z"/>
	<linearGradient id="SVGID_18_" gradientUnits="userSpaceOnUse" x1="103.6553" y1="65.5889" x2="96.5719" y2="87.3847">
		<stop  offset="0" style="stop-color:#F0AB53"/>
		<stop  offset="1" style="stop-color:#A95017"/>
	</linearGradient>
	<path fill="url(#SVGID_18_)" d="M103.356,65.124c-1.403,0-2.836,0.75-4.146,2.167c-2.228,2.415-3.464,7.412-3.885,15.734
		c-0.01,0.172-0.015,0.348-0.022,0.527c1.452-6.241,5.606-9.171,8.688-11.344c3.417-2.408,3.693-2.858,2.957-4.809
		C106.532,66.295,105.132,65.124,103.356,65.124L103.356,65.124z"/>
	
		<linearGradient id="SVGID_19_" gradientUnits="userSpaceOnUse" x1="2946.8318" y1="59.5138" x2="2939.7483" y2="81.3095" gradientTransform="matrix(-1 0 0 1 2958.8203 0)">
		<stop  offset="0" style="stop-color:#F0AB53"/>
		<stop  offset="1" style="stop-color:#A95017"/>
	</linearGradient>
	<path fill="url(#SVGID_19_)" d="M12.288,59.049c-1.776,0-3.175,1.171-3.592,2.274c-0.735,1.951-0.46,2.4,2.957,4.81
		c3.081,2.172,7.235,5.104,8.688,11.344c-0.006-0.18-0.013-0.355-0.022-0.528c-0.421-8.32-1.657-13.32-3.885-15.734
		C15.124,59.799,13.69,59.049,12.288,59.049L12.288,59.049z"/>
	<linearGradient id="SVGID_20_" gradientUnits="userSpaceOnUse" x1="57.662" y1="146.46" x2="57.2488" y2="117.9486">
		<stop  offset="0" style="stop-color:#36A1DB"/>
		<stop  offset="1" style="stop-color:#116AB3"/>
	</linearGradient>
	<path fill="url(#SVGID_20_)" d="M32.875,116.603c-0.977,4.334,2.408,4.326,0.013,12.44c-0.958,3.244,0.672,5.526,4,6.377
		c7.023,1.798,22.866,2.882,37.058,3.509c6.925,0.307,9.858-3.94,7.599-7.958c-2.775-4.936-2.02-4.246-3.287-8.996
		c-1.976-7.407-15.026-3.893-19.024-3.478c-3.997,0.417-8.858,0.425-15.446-1.032C39.804,116.585,33.711,112.883,32.875,116.603z"/>
</g>
<g>
</g>
<g>
</g>
<g>
</g>
<g>
</g>
<g>
</g>
<g>
</g>
</svg>
