<?xml version="1.0" encoding="utf-8"?>
<!-- Generator: Adobe Illustrator 17.0.0, SVG Export Plug-In . SVG Version: 6.00 Build 0)  -->
<!DOCTYPE svg PUBLIC "-//W3C//DTD SVG 1.1//EN" "http://www.w3.org/Graphics/SVG/1.1/DTD/svg11.dtd">
<svg version="1.1" id="Слой_1" xmlns="http://www.w3.org/2000/svg" xmlns:xlink="http://www.w3.org/1999/xlink" x="0px" y="0px"
	 width="150px" height="150px" viewBox="0 0 150 150" enable-background="new 0 0 150 150" xml:space="preserve">
<g>
	<linearGradient id="SVGID_1_" gradientUnits="userSpaceOnUse" x1="75" y1="76.875" x2="75" y2="-30.9456">
		<stop  offset="0.1011" style="stop-color:#7BCDF3"/>
		<stop  offset="1" style="stop-color:#368ACA"/>
	</linearGradient>
	<rect fill="url(#SVGID_1_)" width="150" height="150"/>
	<g>
		<radialGradient id="SVGID_2_" cx="105.928" cy="24.3605" r="13.8503" gradientUnits="userSpaceOnUse">
			<stop  offset="0.0112" style="stop-color:#F3E600"/>
			<stop  offset="1" style="stop-color:#FFE80C"/>
		</radialGradient>
		<circle fill="url(#SVGID_2_)" cx="105.928" cy="24.361" r="13.85"/>
	</g>
	<g>
		<defs>
			<rect id="SVGID_3_" width="150" height="150"/>
		</defs>
		<clipPath id="SVGID_4_">
			<use xlink:href="#SVGID_3_"  overflow="visible"/>
		</clipPath>
		<g clip-path="url(#SVGID_4_)">
			<linearGradient id="SVGID_5_" gradientUnits="userSpaceOnUse" x1="145.8849" y1="101.5151" x2="140.4917" y2="84.8666">
				<stop  offset="0" style="stop-color:#AADCF3"/>
				<stop  offset="1" style="stop-color:#FFFFFF"/>
			</linearGradient>
			<path fill="url(#SVGID_5_)" d="M171.461,71.523c0-4.416-3.383-7.996-7.557-7.996c-2.856,0-5.34,1.677-6.626,4.15
				c-0.593,1.025-0.935,2.231-0.935,3.521c0,0.073,0.005,0.146,0.007,0.219c-0.001,0.036-0.003,0.07-0.003,0.106
				c0,1.024,0.184,2.002,0.516,2.902c-0.013,0-0.026-0.002-0.039-0.002c-0.816,0-1.477,0.7-1.477,1.563
				c0,0.231,0.049,0.45,0.134,0.647c-0.492-0.418-1.118-0.667-1.801-0.667c-1.579,0-2.858,1.335-2.858,2.983
				c0,0.122,0.01,0.243,0.023,0.361c-0.968-1.71-2.737-2.857-4.758-2.857c-3.061,0-5.543,2.626-5.543,5.865
				c0,0.965,0.222,1.874,0.612,2.678c-0.865,0.129-1.532,0.914-1.532,1.866c0,0.355,0.094,0.686,0.255,0.97
				c-0.103-0.009-0.206-0.017-0.312-0.017c-2.128,0-3.855,1.826-3.855,4.078c0,0.399,0.057,0.783,0.157,1.147
				c-0.135-0.069-0.284-0.112-0.444-0.112c-0.198,0-0.381,0.063-0.537,0.166c-0.201-2.143-1.909-3.817-3.989-3.817
				c-2.213,0-4.007,1.898-4.007,4.241c0,0.121,0.007,0.241,0.017,0.359c-0.299-0.237-0.669-0.381-1.072-0.381
				c-0.938,0-1.705,0.768-1.776,1.741c-0.181-0.172-0.416-0.279-0.677-0.279c-0.406,0-0.754,0.254-0.917,0.618
				c-1.003-1.503-2.657-2.484-4.528-2.484c-3.06,0-5.542,2.625-5.542,5.864c0,0.513,0.062,1.012,0.181,1.486
				c-1.09,0.013-1.97,0.95-1.97,2.105c0,1.163,0.892,2.106,1.991,2.106c0.79,0,3.99,0.167,5.34,0.167h50.855l0.263-27.448
				C170.535,75.91,171.461,73.832,171.461,71.523z"/>
		</g>
		<g clip-path="url(#SVGID_4_)">
			<linearGradient id="SVGID_6_" gradientUnits="userSpaceOnUse" x1="32.4702" y1="114.8756" x2="48.4428" y2="89.4057">
				<stop  offset="0.2303" style="stop-color:#AADCF3"/>
				<stop  offset="1" style="stop-color:#FFFFFF"/>
			</linearGradient>
			<path fill="url(#SVGID_6_)" d="M102.555,108.772c0-5.125-4.334-9.278-9.68-9.278c-0.979,0-1.923,0.142-2.815,0.4
				c-0.184-1.23-1.285-2.178-2.621-2.178c-0.31,0-0.607,0.054-0.885,0.149c0.053-0.341,0.09-0.685,0.09-1.04
				c0-3.858-3.266-6.987-7.294-6.987c-3.813,0-6.938,2.805-7.261,6.376c-0.141-0.014-0.284-0.024-0.429-0.024
				c-1.754,0-3.231,1.127-3.693,2.665c-1.174-1.609-3.12-2.665-5.324-2.665c-1.15,0-2.228,0.29-3.164,0.791
				c0.074-0.462,0.113-0.94,0.113-1.425c0-5.123-4.333-9.276-9.679-9.276c-2.292,0-4.398,0.766-6.055,2.041
				c-0.458-0.764-1.315-1.278-2.299-1.278c-0.011,0-0.02,0.001-0.031,0.001c0.362-1.038,0.561-2.149,0.561-3.305
				c0-5.755-4.868-10.419-10.873-10.419c-2.106,0-4.071,0.575-5.737,1.569c-0.424-1.207-1.612-2.078-3.014-2.078
				c-0.6,0-1.159,0.162-1.638,0.437c0.029-0.141,0.046-0.286,0.046-0.437c0-0.903-0.545-1.679-1.336-2.051
				c0.349-1.036,0.541-2.14,0.541-3.286c0-5.895-4.988-10.672-11.139-10.672c-6.151,0-11.139,4.778-11.139,10.672v40.916
				L102.555,108.772z"/>
		</g>
		<linearGradient id="SVGID_7_" gradientUnits="userSpaceOnUse" x1="120.4847" y1="51.8388" x2="120.4847" y2="38.1167">
			<stop  offset="0" style="stop-color:#7BCDF3;stop-opacity:0"/>
			<stop  offset="0.1957" style="stop-color:#A1DAF6;stop-opacity:0.1957"/>
			<stop  offset="0.5696" style="stop-color:#D8EEFC;stop-opacity:0.5696"/>
			<stop  offset="0.8489" style="stop-color:#F5FBFE;stop-opacity:0.8489"/>
			<stop  offset="1" style="stop-color:#FFFFFF"/>
		</linearGradient>
		<path clip-path="url(#SVGID_4_)" fill="url(#SVGID_7_)" d="M166.226,49.04l-1.738-0.462c-0.573-2.225-2.637-3.882-5.111-3.882
			c-1.48,0-2.812,0.591-3.773,1.539c-0.114-0.771-0.767-1.371-1.596-1.371c-0.334,0-0.624,0.118-0.884,0.282
			c-0.464-2.174-2.451-3.807-4.834-3.807c-0.604,0-1.179,0.122-1.716,0.311c0.367-0.644,0.592-1.372,0.592-2.16
			c0-2.504-2.094-4.533-4.679-4.533c-1.303,0-2.477,0.518-3.327,1.352c-0.547-0.523-1.3-0.845-2.127-0.845
			c-0.414,0-0.807,0.079-1.166,0.224c0.024-0.24,0.039-0.483,0.039-0.73c0-4.172-3.49-7.553-7.795-7.553
			c-3.713,0-6.816,2.52-7.6,5.889c-0.272-0.111-0.573-0.179-0.89-0.179c-0.722,0-1.359,0.336-1.77,0.848
			c-1.081-1.227-2.671-2.024-4.467-2.024c-3.252,0-5.888,2.555-5.888,5.705c0,0.884,0.225,1.716,0.599,2.462
			c-1.206-0.807-2.663-1.283-4.237-1.283c-2.829,0-5.292,1.53-6.552,3.777c-0.425-0.361-0.978-0.587-1.591-0.587
			c-1.34,0-2.426,1.052-2.426,2.344c0,0.036,0.01,0.07,0.012,0.102c-3.684,0.235-17.751,1.247-0.525,2.113
			c0,0,8.996,1.113-0.744,1.703c0,0-17.285-0.511-17.285,0.82c0,1.337,7.351,1.337,7.351,1.337"/>
	</g>
	<g>
		<defs>
			<rect id="SVGID_8_" width="150" height="150"/>
		</defs>
		<clipPath id="SVGID_9_">
			<use xlink:href="#SVGID_8_"  overflow="visible"/>
		</clipPath>
		<path clip-path="url(#SVGID_9_)" fill="#A4C840" d="M-2.447,104.591c58.299,15.718,96.667-26.977,154.977,1.736L152.336,151
			H-2.447C-2.447,151-2.254,121.01-2.447,104.591z"/>
		<g clip-path="url(#SVGID_9_)">
			<path fill="#BBD14D" d="M114.029,105.507c-32.7,0-59.208,8.311-59.208,18.564c0,0.815,0.169,1.617,0.493,2.404
				c-3.739-0.232-7.603-0.355-11.559-0.355c-32.7,0-59.208,8.311-59.208,18.564c0,10.253,26.509,18.564,59.208,18.564
				c32.7,0,59.209-8.312,59.209-18.564c0-0.815-0.169-1.617-0.493-2.404c3.739,0.232,7.603,0.355,11.559,0.355
				c32.7,0,59.209-8.312,59.209-18.564C173.237,113.819,146.729,105.507,114.029,105.507z"/>
		</g>
	</g>
</g>
<g id="Design">
	<g>
		<path fill="#F0D19C" d="M28.561,125.686c0.439,0.109,0.94,0.525,0.401,1.99c0,0,0.372,2.158,2.948,0.052
			c-0.003-0.043-0.747-10.709-0.895-15.137l-4.764,0.376c0,0,1.388,9.231,2.317,12.694L28.561,125.686z"/>
		<polygon fill="#87A8AA" points="23.782,98.57 24.275,112.22 31.874,113.062 32.918,104.673 34.146,111.47 41.734,110.396 
			39.512,99.237 		"/>
		<path fill="#F0D19C" d="M37.685,126.317l1.638,1.543c0,0,0.325-0.943,1.306-1.284c0,0-1.67-1.186-0.451-1.932
			c0,0,0.288-13.326,0.068-14.038l-4.3,0.27c0,0,0.664,11.072,1.688,15.404C37.651,126.293,37.667,126.303,37.685,126.317z"/>
		<path fill="#739FB2" d="M32.126,113.417c-0.011,0.203-0.187,0.359-0.39,0.348l-7.562-0.429c-0.203-0.011-0.359-0.187-0.348-0.39
			l0.073-1.291c0.012-0.203,0.187-0.359,0.39-0.348l7.562,0.429c0.203,0.012,0.36,0.187,0.348,0.39L32.126,113.417z"/>
		<path fill="#739FB2" d="M42.036,111.116c0.019,0.202-0.13,0.384-0.332,0.403l-7.539,0.727c-0.202,0.02-0.384-0.13-0.403-0.332
			l-0.124-1.287c-0.019-0.202,0.13-0.383,0.332-0.403l7.539-0.727c0.202-0.02,0.384,0.13,0.403,0.333L42.036,111.116z"/>
		<path fill="#63440F" d="M32.536,127.172c0,0,2.709,2.593,0.19,3.854c0,0-7.052,3.434-10.59,0.706c0,0-3.514-2.751,1.24-4.065
			c0,0,1.791-0.442,2.929-0.326c0,0,1.482-0.447,1.767-1.678c0,0,1.74-0.3,0.889,2.013C28.962,127.676,29.39,130.179,32.536,127.172
			z"/>
		<path fill="#FFFFFF" d="M24.784,127.406c-0.543,0.073-1.025,0.174-1.258,0.226c1.32,0.779,1.681,1.91,1.697,1.966l0.886-0.261
			C26.093,129.279,25.793,128.295,24.784,127.406z"/>
		<path fill="#FFFFFF" d="M26.673,129.071l0.739-0.218c-0.014-0.047-0.248-0.817-1.026-1.539c-0.049,0.018-0.08,0.028-0.08,0.028
			c-0.351-0.036-0.764-0.018-1.168,0.023C26.336,128.014,26.658,129.023,26.673,129.071z"/>
		<path fill="#F0D19C" d="M24.292,76.801c0,0-7.987,0.689-13.056-5.021c0,0-1.155-1.727,0.202-2.724c0,0,0.885-0.645-0.089-0.651
			c0,0-1.146,0.186-1.499,1.284c0,0-0.702-0.075-1.512-3.125c0,0-0.117-0.509-0.543-0.49c0,0-0.395,0.02-0.265,0.834
			c0,0,0.344,1.436,0.71,2.485c0,0-1.207-1.6-2.171-2.452c0,0-0.397-0.319-0.615-0.025c0,0-0.177,0.292,0.163,0.69l1.526,2.097
			l-2.183-0.998c0,0-0.325-0.053-0.432,0.165c0,0-0.161,0.277,0.16,0.516l2.232,1.456c0,0-1.419-0.001-1.892-0.009
			c-0.221-0.003-0.64,0.286-0.014,0.529c0,0,1.75,0.598,2.275,0.733c0,0,0.694,1.307,2.69,1.077c0,0,5.225,7.612,14.982,6.967
			L24.292,76.801z"/>
		<path fill="#63440F" d="M40.178,124.644c0,0,1.012-0.622,1.863,1.856c0,0,6.927,1.232,5.584,4.516c0,0-1.605,2.148-5.177,1.186
			c0,0-5.745-1.41-5.914-4.699c0,0-0.114-2.133,1.15-1.186l1.638,1.543c0,0,0.325-0.943,1.306-1.284
			C40.629,126.576,38.959,125.391,40.178,124.644z"/>
		<path fill="#F0D19C" d="M43.889,83.1c0,0,0.348,7.589,7.684,12.161c0,0,1.88,0.884,2.664-0.606c0,0,0.506-0.971,0.657-0.009
			c0,0-0.013,1.161-1.046,1.673c0,0,0.178,0.683,3.316,1.029c0,0,0.521,0.04,0.565,0.464c0,0,0.039,0.394-0.784,0.387
			c0,0-1.472-0.126-2.563-0.332c0,0,1.762,0.955,2.749,1.781c0,0,0.375,0.346,0.116,0.604c0,0-0.262,0.219-0.707-0.058l-2.301-1.196
			l1.313,2.009c0,0,0.101,0.314-0.099,0.452c0,0-0.249,0.2-0.534-0.082l-1.772-1.99c0,0,0.213,1.403,0.291,1.869
			c0.036,0.218-0.188,0.675-0.521,0.093c0,0-0.852-1.641-1.064-2.14c0,0-1.396-0.491-1.466-2.5c0,0-7.404-2.93-9.895-13.776
			L43.889,83.1z"/>
		<path fill="#FFFFFF" d="M44.965,127.364c-0.328-0.136-0.657-0.255-0.969-0.357c-0.729,0.774-1.127,1.746-1.151,1.806l0.857,0.345
			C43.856,128.775,44.327,127.88,44.965,127.364z"/>
		<path fill="#FFFFFF" d="M42.528,126.602c-0.553,0.693-0.856,1.432-0.876,1.484l0.686,0.276c0.005-0.013,0.37-0.902,0.989-1.556
			C43.016,126.718,42.742,126.65,42.528,126.602z"/>
		<path fill="#80461E" d="M34.294,57.846c0,0-0.74,0.587-0.684,1.229c0,0,5.621-3.352,11.097,2.765c0,0-0.723-0.112-1.002-0.168
			c-0.279-0.056,4.471,3.492,1.007,9.246c0,0-0.642-0.615-1.731,1.061c0,0,1.704-3.38-1.424-5.056
			c-3.129-1.676-8.743-1.592-9.19-3.827c0,0-4.25,0.168-3.552,4.86c0,0-0.815-0.614-0.815-1.145v1.285c0,0-0.535-0.894-0.945-0.596
			c0,0-0.538-5.81,4.416-7.337c0,0-0.63-0.595-1.333-0.128c0,0,0.604-1.369,2.279-0.566C32.417,59.47,32.623,58.043,34.294,57.846z"
			/>
		<path fill="#F0D19C" d="M44.712,70.918c0,0-0.642-0.615-1.731,1.061c0,0,1.704-3.38-1.424-5.056
			c-3.129-1.676-8.743-1.592-9.19-3.827c0,0-4.25,0.168-3.552,4.86c0,0-0.815-0.614-0.815-1.145v1.285c0,0-0.535-0.894-0.945-0.596
			c-1.304,1.341,1.051,2.964,1.051,2.964c1.678,5.796,5.92,6.239,5.92,6.239c5.479,1.33,8.692-3.452,8.692-3.452
			c1.172,0.19,1.986-0.76,1.986-0.76C45.575,70.592,44.712,70.918,44.712,70.918z"/>
		<path fill="#FDE7B4" d="M34.058,76.704c0,0-1.07-0.113-2.345-0.968c-0.283,3.385,1.716,3.944,1.716,3.944
			c1.774,0.527,3.094-1.67,3.653-2.827C36.171,76.992,35.161,76.972,34.058,76.704z"/>
		<path fill="#E74668" d="M40.282,84.559l1.154,4.134c0,0,2.272-0.522,4.507-2.235c0,0-2.384-6.033-4.32-8.417
			c0,0-1.565-0.987-3.127-1.548c-0.44,0.158-0.912,0.283-1.414,0.359c-0.559,1.158-1.879,3.354-3.653,2.827
			c0,0-2.002-0.557-1.718-3.945c-0.501-0.335-1.033-0.787-1.545-1.389c-2.466,0.118-5.868,1.135-9.921,1.386
			c-0.558,2.924,0,5.363,0,5.363s3.911,0.149,5.289-0.112c0,0-1.601,5.829-0.987,11.192c0,0,0.084,1.536-1.145,2.765
			c0,0-0.95,0.67,0.056,1.676c0,0,0.698,0.698-0.251,1.341c0,0-1.117,0.615,0.419,1.481c1.537,0.866,8.985,4.749,16.769,0.317
			l-0.019-0.782c0,0,1.024-0.819,0.168-2.011c0,0-0.912-1.359-0.67-3.687C39.872,93.274,40.17,87.39,40.282,84.559z"/>
		<path fill="#8F572F" d="M34.328,59.386c0,0,4.181-2.174,8.557,1.477C42.886,60.863,38.872,58.243,34.328,59.386z"/>
		<path fill="#6D3D1C" d="M35.589,60.127c0,0,10.317-0.41,9.088,9.311C44.676,69.438,45.235,61.617,35.589,60.127z"/>
		<path fill="#8F572F" d="M34.328,60.124c1.633,5.254,8.188,1.083,9.454,8.606C42.181,61.207,35.104,65.993,34.328,60.124z"/>
		<path fill="#8F572F" d="M33.234,60.863c0,0-0.884,4.068,4.957,4.414C38.192,65.277,34.176,64.52,33.234,60.863z"/>
		<path fill="#6D3D1C" d="M32.196,60.416c0,0-2.959,0.587-3.689,4.012C28.507,64.427,30.16,61.492,32.196,60.416z"/>
		<circle fill="#80461E" cx="31.88" cy="68.937" r="0.701"/>
		<path fill="#80461E" d="M31.501,66.254c0,0,1.094-1.159,1.685,0.558C33.186,66.812,32.381,66.016,31.501,66.254z"/>
		<circle fill="#80461E" cx="39.701" cy="70.278" r="0.701"/>
		<circle fill="#FDE7B4" cx="39.508" cy="70.085" r="0.231"/>
		<circle fill="#FDE7B4" cx="32.166" cy="68.732" r="0.231"/>
		<path fill="#80461E" d="M36.273,70.801c0.067,0.108,0.107,0.234,0.107,0.371c0,0.387-0.314,0.701-0.701,0.701
			c-0.136,0-0.263-0.04-0.371-0.107c0.124,0.198,0.343,0.33,0.594,0.33c0.387,0,0.701-0.314,0.701-0.701
			C36.603,71.144,36.471,70.925,36.273,70.801z"/>
		<path fill="#80461E" d="M39.322,67.594c0,0,1.094-1.159,1.685,0.559C41.008,68.153,40.202,67.357,39.322,67.594z"/>
		<path fill="#EB5E30" d="M33.186,72.594c0,0,0.661,4.665,4.516,0.894C37.702,73.488,34.174,73.516,33.186,72.594z"/>
		
			<ellipse transform="matrix(0.9072 0.4207 -0.4207 0.9072 33.911 -10.3228)" fill="#E5AB6C" cx="40.357" cy="71.714" rx="1.08" ry="0.266"/>
		
			<ellipse transform="matrix(0.9837 0.1798 -0.1798 0.9837 13.0433 -4.3472)" fill="#E5AB6C" cx="30.504" cy="69.782" rx="1.08" ry="0.266"/>
		<path fill="#EED49A" d="M34.058,76.704c0,0-1.07-0.113-2.345-0.968c-0.014,0.163-0.02,0.317-0.024,0.467
			c0.685,0.513,2.393,1.479,5.18,1.066c0.08-0.148,0.151-0.289,0.213-0.417C36.171,76.992,35.161,76.972,34.058,76.704z"/>
	</g>
	<g>
		<path fill="#F193B9" d="M57.226,130.813c0,0,1.098,0.914,0.084,2.33c0,0-1.783,1.173-2.821,1.552c0,0-1.503,0.571-2.429-0.754
			c0,0-0.908-1.327,1.283-2.312c0,0,0.265,1.873,1.925,1.166C55.268,132.796,57.462,132.089,57.226,130.813z"/>
		<path fill="#FEE9B5" d="M53.342,131.63c0,0,0.265,1.873,1.925,1.166c0,0,2.194-0.707,1.958-1.982c0,0,0.922-6.987,1.759-10.983
			l-3.018-0.57c0,0-0.69,6.438-0.951,10.06C55.016,129.32,54.962,130.828,53.342,131.63z"/>
		<path fill="#F193B9" d="M55.751,133.085c-0.76-1.468-1.889-1.762-1.899-1.764l0.35-0.301c0.049,0.01,1.07,0.228,1.921,1.872
			L55.751,133.085z"/>
		<path fill="#F193B9" d="M69.459,124.905c0,0,1.286-0.624,2.158,0.883c0,0,0.334,2.108,0.253,3.209c0,0-0.099,1.604-1.687,1.903
			c0,0-1.584,0.281-1.579-2.12c0,0,1.816,0.53,1.855-1.275C70.459,127.505,70.718,125.214,69.459,124.905z"/>
		<path fill="#FEE9B5" d="M68.604,128.78c0,0,1.816,0.53,1.855-1.275c0,0,0.259-2.291-1.001-2.6c0,0-5.552-3.351-8.244-6.344
			l-1.762,2.516c0,0,3.868,3.515,7.735,5.227C67.188,126.303,68.54,126.973,68.604,128.78z"/>
		<path fill="#F193B9" d="M70.921,127.184c-1.651,0.088-2.383,0.996-2.389,1.004l-0.13-0.443c0.029-0.04,0.648-0.882,2.497-0.98
			L70.921,127.184z"/>
		<path fill="#F193B9" d="M55.996,105.988c0,0-1.288,10.622-3.582,15.67c0,0,6.623,4.51,15.818-0.483c0,0-4.271-12.869-4.813-15.76
			l-1.512,0.537c0,0,0.264,3.372-1.598,3.556c0,0-2.328,0.339-2.743-3.227L55.996,105.988z"/>
		<path fill="#FEE9B5" d="M60.31,109.507c1.339-0.132,1.578-1.914,1.607-2.904c-1.256,0.483-2.202,0.503-2.202,0.503
			c-0.735,0.035-1.408-0.006-2.026-0.102C58.314,109.795,60.31,109.507,60.31,109.507z"/>
		<path fill="#FEE9B5" d="M65.21,106.708c0,0,1.569,3.45,4.575,5.195c0,0,1.122,0.064,2.692-1.098
			c0.245-0.181,0.673-0.11,0.207,0.418c0,0-0.287,0.347-0.607,0.689c0,0,1.033,0.04,1.986-0.034c0,0,0.445-0.053,0.577,0.187
			c0,0,0.056,0.297-0.55,0.434l-1.422,0.242l1.901,0.251c0,0,0.468,0.043,0.476,0.294c0,0,0.006,0.272-0.528,0.28
			c-0.533,0.008-1.975-0.128-1.975-0.128l1.422,0.552c0,0,0.326,0.1,0.271,0.373c0,0-0.127,0.315-0.559,0.185l-1.902-0.506
			c0,0,0.892,0.314,0.834,1.059c0,0-1.044-0.232-2.682-1.845c0,0-3.885-1.512-6.2-6.662L65.21,106.708z"/>
		<path fill="#FEE9B5" d="M54.621,107.81c0,0-1.125,3.619-3.89,5.726c0,0-1.105,0.203-2.808-0.752
			c-0.266-0.149-0.682-0.025-0.153,0.44c0,0,0.328,0.308,0.689,0.608c0,0-1.02,0.168-1.975,0.214c0,0-0.448,0.003-0.549,0.258
			c0,0-0.019,0.301,0.6,0.362l1.441,0.063l-1.854,0.486c0,0-0.459,0.101-0.435,0.352c0,0,0.028,0.27,0.559,0.212
			c0.53-0.059,1.943-0.374,1.943-0.374l-1.341,0.726c0,0-0.311,0.14-0.222,0.404c0,0,0.166,0.297,0.578,0.114l1.824-0.74
			c0,0-0.846,0.423-0.695,1.155c0,0,1.007-0.361,2.43-2.166c0,0,3.585-1.73,5.238-7.128L54.621,107.81z"/>
		<path fill="#F193B9" d="M56.067,105.982c0,0-1.227-0.04-2.763,3.563l2.674,0.613L56.067,105.982z"/>
		<path fill="#F193B9" d="M63.313,105.404c0,0,1.178-0.344,3.561,2.766l-2.438,1.257L63.313,105.404z"/>
		<path fill="#FEE9B5" d="M63.489,93.925c0,0-1.342,1.53-4.858,1.239c0,0-3.755-0.712-5.713,1.232c0,0-2.128,1.638-2.161,4.461
			c0,0-1.912-0.395-0.63,1.417c0,0,0.692,0.792,1.801,0.928c0,0,2.117,4.171,7.788,3.903c0,0,4.925-0.107,7.236-5.576
			c0,0,1.539-0.31,1.278-1.922c0,0-0.193-0.607-0.729-0.351c0,0-0.458,0.201-0.376,0.922c0,0-0.236-0.156-0.335-0.938
			c0,0-1.194-1.575-2.13-2.359C64.66,96.882,63.017,95.227,63.489,93.925z"/>
		<g>
			<path fill="#80461E" d="M51.613,103.143c-0.923-0.227-1.486-0.723-1.486-0.723c-0.219-0.309-0.343-0.602-0.401-0.602h-0.001
				c-3.523,1.818,0.136,4.173,0.136,4.173c0.952,0.467,0.389,0.884,0.389,0.884c-0.652,0.684-1.291-0.102-1.291-0.102
				c0.585,2.201,3.131,0.68,3.131,0.68c1.48-0.9,0.116-2.672,0.116-2.672C51.723,104.134,51.619,103.527,51.613,103.143z"/>
			<path fill="#80461E" d="M52.918,96.396c1.958-1.944,5.713-1.232,5.713-1.232c3.516,0.291,4.858-1.239,4.858-1.239
				c-0.472,1.302,1.171,2.957,1.171,2.957c0.936,0.785,2.13,2.359,2.13,2.359c0.1,0.782,0.335,0.938,0.335,0.938
				c-0.083-0.721,0.376-0.922,0.376-0.922c0.649-5.437-3.723-8.205-3.723-8.205c-5.229-3.358-10.061,0.132-10.061,0.132
				c-5.042,3.615-2.96,9.673-2.96,9.673C50.79,98.034,52.918,96.396,52.918,96.396z"/>
			<path fill="#80461E" d="M69.326,105.346c-0.742-0.297,0.179-1.166,0.179-1.166c1.172-1.115,1.134-2.307,1.134-2.307
				c0.053-1.035-1.492-1.897-2.433-2.325c0.016,0.036,0.024,0.061,0.024,0.061c0.18,1.112-0.497,1.604-0.934,1.803
				c0.372,0.502-0.361,2-0.361,2c-0.943,2.083,0.314,2.825,0.314,2.825c2.36,1.375,3.534-1.333,3.534-1.333
				C70.025,105.701,69.326,105.346,69.326,105.346z"/>
		</g>
		<path fill="#80461E" d="M53.778,98.132c0,0,0.528-1.722,2.112-0.344C55.89,97.788,54.546,97.098,53.778,98.132z"/>
		<path fill="#80461E" d="M61.496,100.137c0,0,0.661-1.32,1.775-0.533c0,0,0.437,0.364,0.722,0.257c0,0-0.179,0.369-0.839,0.126
			C63.155,99.988,62.261,99.68,61.496,100.137z"/>
		<path fill="#80461E" d="M63.836,97.259c0,0-0.83-1.598-2.14,0.043C61.696,97.302,62.893,96.38,63.836,97.259z"/>
		<path fill="#EB5E30" d="M57.302,103.677c0,0,1.839,0.253,4.043-0.182C61.344,103.495,59.172,107.019,57.302,103.677z"/>
		<path fill="#80461E" d="M59.375,102.496c-0.378-0.019-0.694-0.343-0.694-0.722c0,0,0-0.001,0-0.001
			c0,0.082-0.056,0.195-0.062,0.311c-0.017,0.337,0.264,0.626,0.601,0.643c0.249,0.013,0.459-0.126,0.565-0.335
			C59.67,102.464,59.521,102.503,59.375,102.496z"/>
		<path fill="#945A31" d="M63.133,91.707c0,0-4.919-3.154-8.888,0.326C54.245,92.033,58.357,90.012,63.133,91.707z"/>
		<path fill="#945A31" d="M63.14,92.252c0,0-2.959,1.826-6.606,1.132C56.534,93.384,60.64,95.371,63.14,92.252z"/>
		<path fill="#6D3D1C" d="M64.729,92.768c0,0,2.264,1.875,2.174,5.753C66.904,98.521,66.163,94.775,64.729,92.768z"/>
		<path fill="#945A31" d="M57.357,92.192c0,0-4.777-0.231-6.562,4.152C50.795,96.345,54.016,92.258,57.357,92.192z"/>
		<path fill="#6D3D1C" d="M51.274,97.632c0,0,0.783-3.606,5.598-3.052C56.872,94.58,52.54,94.867,51.274,97.632z"/>
		<path fill="#80461E" d="M56.641,100.69c0,0-0.82-1.227-1.828-0.308c0,0-0.389,0.415-0.685,0.345c0,0,0.224,0.344,0.848,0.021
			C54.977,100.748,55.825,100.332,56.641,100.69z"/>
		
			<ellipse transform="matrix(-0.9936 0.1125 -0.1125 -0.9936 119.4232 198.2138)" fill="#F4A29F" cx="54.118" cy="102.477" rx="1.183" ry="0.708"/>
		
			<ellipse transform="matrix(-0.9936 0.1125 -0.1125 -0.9936 140.3601 194.7338)" fill="#F4A29F" cx="64.684" cy="101.328" rx="1.183" ry="0.708"/>
		<path fill="#EED49A" d="M57.69,107.004c0.043,0.193,0.093,0.369,0.149,0.534c0.797,0.098,2.392,0.169,4.052-0.479
			c0.015-0.163,0.024-0.318,0.028-0.457c-1.256,0.483-2.202,0.503-2.202,0.503C58.981,107.141,58.308,107.1,57.69,107.004z"/>
	</g>
	<g>
		<path fill="#81BCD7" d="M88.764,137.505c0,0,1.727,1.183,0.453,2.106c0,0-3.574,2.53-5.77,1.348c0,0-2.185-1.197,0.315-2.352
			c0,0,0.947-0.406,1.584-0.445c0,0,0.776-0.38,0.821-1.084c0,0,0.932-0.323,0.672,1.029
			C86.841,138.107,87.303,139.446,88.764,137.505z"/>
		<path fill="#FEE9B5" d="M86.374,137.045c0-0.005,0.645,0.13,0.467,1.062c0,0,0.431,1.243,1.769-0.404c0-0.014,0.28-5.833,0-6.983
			l-2.667-0.096C85.943,130.624,86.044,133.945,86.374,137.045L86.374,137.045z"/>
		<path fill="#FFFFFF" d="M85.228,139.666l0.189-0.1l0.189-0.099c-0.017-0.033-0.339-0.635-0.966-1.168
			c-0.179,0.051-0.349,0.107-0.492,0.159C84.852,138.968,85.224,139.658,85.228,139.666z"/>
		<path fill="#FFFFFF" d="M85.799,139.238l0.189-0.1l0.189-0.1c-0.015-0.028-0.255-0.477-0.719-0.94
			c-0.067,0.042-0.111,0.064-0.111,0.064c-0.121,0.007-0.253,0.028-0.388,0.057C85.507,138.695,85.795,139.231,85.799,139.238z"/>
		<path fill="#81BCD7" d="M95.847,140.728c0,1.198-0.917,1.276-2.048,1.276c-1.131,0-2.048-0.078-2.048-1.276
			c0-0.712,0.324-1.661,0.825-2.312c0.341-0.445,0.359,0.142,1.223,0.142c0.885,0,0.851-0.609,1.185-0.191
			C95.506,139.019,95.847,139.997,95.847,140.728z"/>
		<path fill="#FEE9B5" d="M93.798,138.558c0.745,0,0.839-0.557,1.05-0.443L95.001,129h-2.69l0.458,9.129
			C92.967,138.079,93.127,138.558,93.798,138.558z"/>
		<path fill="#FFFFFF" d="M94.738,140.452c-0.961-0.261-1.892-0.003-1.902-0.001l-0.114-0.4c0.042-0.012,1.049-0.293,2.125-0.001
			L94.738,140.452z"/>
		<path fill="#81BCD7" d="M85.207,123c0,0-0.336,6.553-0.336,7.604c0,1.051,4.708,0.586,4.708,0.586l0.962-4.709l0.678,4.518
			c0,0,3.195,0.526,4.413-0.048c0.76-1.776,0.883-7.951,0.883-7.951H85.207z"/>
		<path fill="#E8A820" d="M88.401,108c0,0-2.828,0.518-4.119,15.104c0,0,2.9,2.411,13.156,0.505c0,0-1.254-15.608-3.229-15.608
			H88.401z"/>
		<path fill="#FFFFFF" d="M94.756,139.83c-0.98-0.266-1.929-0.003-1.939-0.001l-0.076-0.267c0.041-0.012,1.03-0.288,2.088-0.001
			L94.756,139.83z"/>
		<path fill="#FEE9B5" d="M96.934,109.768c0,0,5.989-0.174,7.995-3.402c0,0,0.518-1.311-0.245-3.641
			c-0.119-0.364,0.134-0.845,0.579-0.081c0,0,0.301,0.479,0.582,0.996c0,0,0.454-1.215,0.742-2.38c0,0,0.113-0.551,0.451-0.614
			c0,0,0.376,0.05,0.301,0.827l-0.272,1.79l1.049-2.166c0,0,0.236-0.541,0.539-0.451c0,0,0.326,0.1,0.125,0.739
			c-0.201,0.639-0.931,2.302-0.931,2.302l1.219-1.476c0,0,0.248-0.349,0.551-0.175c0,0,0.326,0.276,0,0.739l-1.353,2.066
			c0,0,0.727-0.939,1.591-0.576c0,0-0.689,1.152-3.256,2.467c0,0-3.194,5.035-10.383,4.76L96.934,109.768z"/>
		<path fill="#E8A820" d="M94.209,107.929c0,0,3.929,1.007,6.505,0.89c0.445,1.523,0,2.97,0,2.97s-2.648,0.574-4.58,1.2
			L94.209,107.929z"/>
		<path fill="#FEE9B5" d="M85.581,109.955c0,0-5.989-0.174-7.995-3.402c0,0-0.518-1.311,0.245-3.641
			c0.119-0.364-0.134-0.845-0.579-0.081c0,0-0.3,0.479-0.582,0.996c0,0-0.454-1.215-0.742-2.38c0,0-0.113-0.551-0.451-0.614
			c0,0-0.376,0.05-0.301,0.827l0.272,1.79l-1.049-2.166c0,0-0.236-0.541-0.539-0.451c0,0-0.326,0.1-0.125,0.739
			c0.201,0.639,0.931,2.302,0.931,2.302l-1.219-1.476c0,0-0.248-0.349-0.551-0.175c0,0-0.326,0.276,0,0.739l1.353,2.066
			c0,0-0.727-0.939-1.591-0.576c0,0,0.689,1.152,3.256,2.467c0,0,3.194,5.035,10.383,4.76L85.581,109.955z"/>
		<path fill="#E8A820" d="M88.306,107.929c0,0-3.929,1.007-6.505,0.89c-0.445,1.523,0,2.97,0,2.97s2.648,0.574,4.58,1.2
			L88.306,107.929z"/>
		<path fill="#80461E" d="M94.755,91.742c0,0-9.182-4.368-13.065,6.836c0,0,0.688-1.011,1.416-1.335c0,0-1.982,2.104,0.647,4.854
			l0.121-2.022c0,0,9.789-0.688,11.043-4.611c0,0-0.242,3.802,2.791,5.178c0,0,1.577,3.033,4.814,0.566c0,0-1.072,0.162-1.78-1.557
			c0,0,0.546-4.429-4.267-7.241c0,0,0.93-0.748,1.8-0.324c0,0-0.768-2.043-2.306-0.526c0,0-0.465-1.497-1.84-1.315
			C94.128,90.245,94.897,90.791,94.755,91.742z"/>
		<path fill="#FEE9B5" d="M100.909,102.062c-2.149,0.602-3.201-1.42-3.201-1.42c-3.034-1.376-2.791-5.178-2.791-5.178
			c-1.254,3.924-11.043,4.611-11.043,4.611l0.239,2.022C83.934,101.91,84,101.726,84,101.544v0.001
			c-1-0.398-1.179,0.845-1.179,0.845c0,1.756,1.635,1.786,1.635,1.786c2.292,5.148,7.379,5.327,7.379,5.327
			c5.565,0,7.692-5.297,7.692-5.297C101.312,104.027,100.909,102.062,100.909,102.062L100.909,102.062z"/>
		<circle fill="#80461E" cx="87.717" cy="102.149" r="0.611"/>
		<ellipse fill="#F4A29F" cx="86.756" cy="103.756" rx="1.183" ry="0.708"/>
		<circle fill="#80461E" cx="96.135" cy="102.149" r="0.611"/>
		<ellipse fill="#F4A29F" cx="97.095" cy="103.756" rx="1.183" ry="0.708"/>
		<path fill="#EB5E30" d="M89.396,105.101c0,0,2.427,0.738,4.814,0.273c0,0-0.182,2.073-2.407,2.073
			C91.802,107.447,89.598,107.426,89.396,105.101z"/>
		<path fill="#80461E" d="M92.326,103.011c0.128,0.147,0.204,0.326,0.204,0.52c0,0.45-0.404,0.821-0.931,0.889
			c0.062,0.008,0.126,0.012,0.191,0.012c0.61,0,1.104-0.34,1.104-0.759C92.894,103.389,92.665,103.141,92.326,103.011z"/>
		<path fill="#6D3D1C" d="M94.728,93.925c0,0-0.112,4.293-9.774,5.285C84.955,99.21,93.76,96.836,94.728,93.925z"/>
		<path fill="#6D3D1C" d="M94.523,92.063c0,0-7.767-2.381-10.95,4.505C83.573,96.568,88.638,91.52,94.523,92.063z"/>
		<path fill="#975E37" d="M82.992,99.548c0,0,1.23-3.785,7.767-5.197C90.759,94.351,85.284,96.464,82.992,99.548z"/>
		<path fill="#975E37" d="M95.398,95.314c0,0-0.349,3.31,2.518,4.853C97.916,100.166,95.286,97.754,95.398,95.314z"/>
		<path fill="#975E37" d="M96.38,92.874c0,0,4.123,2.145,3.703,7.762C100.083,100.636,99.774,95.903,96.38,92.874z"/>
	</g>
	<g>
		<path fill="#FEE9B5" d="M125.609,79.082c0,0,1.182,4.515-2.752,5.077c-3.934,0.562-3.546-2.44-4.535-4.873L125.609,79.082z"/>
		<path fill="#FEE9B5" d="M115.427,111.831c0,0-1.079,5.693-1.92,10.493c0,0-0.089,1.161-1.34,1.563c0,0-1.135,0.249-2.364,0.068
			l-1.051,2.655c0,0,4.621,1.395,6.363,1.116c0.402-1.239-0.424-2.701,0.313-4.621c0,0,3.004-8.038,3.504-10.72L115.427,111.831z"/>
		<path fill="#FEE9B5" d="M126.31,112.94c0,0,2.838,5.052,5.283,9.267c0,0,0.679,0.946-0.019,2.058c0,0-0.709,0.921-1.766,1.574
			l0.904,2.709c0,0,4.435-1.906,5.588-3.24c-0.49-1.207-2.063-1.795-2.735-3.738c0,0-2.874-8.086-4.217-10.46L126.31,112.94z"/>
		<path fill="#614192" d="M116.826,95.692l-2.26,15.671l6.061,1.42l2.372-9.875c0,0,0.627,6.884,1.774,10.215l5.805-1.433
			c0,0-1.933-3.576-0.907-9.501c0,0,0.983-3.932,0.055-6.88L116.826,95.692z"/>
		<path fill="#4E367D" d="M120.884,113.335c-0.048,0.19-0.243,0.307-0.434,0.259l-6.063-1.521c-0.191-0.048-0.307-0.243-0.259-0.433
			l0.217-0.866c0.048-0.191,0.243-0.307,0.434-0.26l6.063,1.521c0.191,0.048,0.307,0.243,0.259,0.433L120.884,113.335z"/>
		<path fill="#4E367D" d="M124.495,113.697c0.045,0.179,0.228,0.288,0.406,0.243l5.684-1.426c0.179-0.045,0.288-0.228,0.244-0.406
			l-0.204-0.812c-0.045-0.179-0.228-0.288-0.406-0.243l-5.684,1.426c-0.179,0.045-0.288,0.228-0.243,0.406L124.495,113.697z"/>
		<path fill="#D26198" d="M115.407,127.236c-2.518,0.039-4.489-0.289-6.003-0.744c0.595-1.114,0.399-2.536,0.399-2.536
			c-3.969-3.175-5.122,0.144-5.122,0.144c-0.154,0.124-0.178,0.348-0.055,0.502c0.112,0.139,2.782,3.351,10.374,3.351
			c0.137,0,0.277-0.001,0.417-0.003c0.197-0.003,0.355-0.165,0.352-0.363C115.766,127.39,115.605,127.235,115.407,127.236z"/>
		<path fill="#D26198" d="M136.208,124.743c-1.901,1.65-3.622,2.668-5.073,3.293c-0.261-1.235-1.327-2.198-1.327-2.198
			c-5.082,0.124-3.828,3.407-3.828,3.407c-0.038,0.194,0.087,0.381,0.281,0.42c0.175,0.034,4.286,0.775,10.097-4.112
			c0.105-0.088,0.211-0.178,0.317-0.27c0.149-0.129,0.165-0.355,0.036-0.504C136.582,124.63,136.359,124.616,136.208,124.743z"/>
		<path fill="#FEE9B5" d="M127.638,79.286c0,0,7.431,0.801,12.348-4.737c0,0,1.12-1.675-0.196-2.643c0,0-0.858-0.626,0.087-0.632
			c0,0,1.111,0.181,1.454,1.245c0,0,0.681-0.072,1.466-3.031c0,0,0.113-0.494,0.527-0.475c0,0,0.383,0.019,0.257,0.809
			c0,0-0.333,1.393-0.689,2.41c0,0,1.171-1.552,2.106-2.379c0,0,0.385-0.309,0.596-0.024c0,0,0.172,0.283-0.158,0.669l-1.481,2.034
			l2.117-0.968c0,0,0.315-0.052,0.419,0.16c0,0,0.156,0.268-0.156,0.501l-2.165,1.412c0,0,1.377-0.001,1.835-0.008
			c0.214-0.003,0.621,0.278,0.014,0.513c0,0-1.697,0.58-2.207,0.711c0,0-0.673,1.268-2.61,1.045c0,0-5.069,7.384-14.532,6.757
			L127.638,79.286z"/>
		<path fill="#FEE9B5" d="M116.758,79.616c0,0-3.442,6.593-11.773,7.54c0,0-2.015-0.009-2.081-1.641c0,0-0.039-1.061-0.572-0.282
			c0,0-0.472,1.022,0.218,1.902c0,0-0.441,0.524-3.333-0.481c0,0-0.473-0.182-0.688,0.171c0,0-0.198,0.328,0.526,0.666
			c0,0,1.341,0.503,2.383,0.777c0,0-1.941,0.102-3.15,0.414c0,0-0.472,0.146-0.354,0.481c0,0,0.139,0.301,0.643,0.244l2.514-0.089
			l-1.987,1.213c0,0-0.219,0.232-0.102,0.437c0,0,0.135,0.28,0.502,0.151l2.382-1.004c0,0-0.771,1.14-1.033,1.516
			c-0.123,0.175-0.117,0.67,0.417,0.298c0,0,1.43-1.082,1.824-1.431c0,0,1.427,0.152,2.326-1.578c0,0,6.843,0.462,13.242-6.566
			C119.055,81.923,116.758,79.616,116.758,79.616z"/>
		<path fill="#F3D89D" d="M125.736,79.834c-0.049-0.453-0.127-0.753-0.127-0.753l-7.286,0.204c0.126,0.311,0.23,0.632,0.324,0.953
			C119.702,80.771,122.732,81.946,125.736,79.834z"/>
		<path fill="#81BCD7" d="M122.675,83.879c0,0-3.148,0.34-4.253-4.934c0,0-0.643,0.142-1.664,0.671c0,0,1.215,9.84-0.755,19.028
			c0,0,7.438,3.228,14.926-0.417c0,0-4.143-12.416-3.291-18.941c0,0-0.932-0.455-2.297-0.341
			C125.341,78.945,126.22,83.737,122.675,83.879z"/>
		<path fill="#E8A820" d="M131.353,78.207c0,0-2.042,0.624-1.333-1.673c0,0,2.552-6.324,1.333-9.613c0,0-2.439-5.955-8.876-6.069
			c0,0-5.493-0.567-8.673,5.218c0,0-1.621,2.921-1.309,6.948c0,0,0.712,4.261,5.163,6.158l8.238-0.153
			C125.896,79.022,130.474,79.994,131.353,78.207z"/>
		<path fill="#FEE9B5" d="M120.44,64.95c0,0,0.856,5.888,8.564,7.957c0,0,0.799-1.279,1.395-0.475c0,0,0.737,1.38-1.569,2.448
			c0,0-1.73,5.482-6.948,5.482c0,0-7.231,0-8.054-7.373C113.828,72.99,113.043,66.155,120.44,64.95z"/>
		<path fill="#80461E" d="M118.243,72.9c0,0-0.745-1.365-1.89-0.495c0,0-0.447,0.399-0.751,0.298c0,0,0.203,0.382,0.888,0.101
			C116.49,72.805,117.42,72.447,118.243,72.9z"/>
		<path fill="#80461E" d="M122.942,72.767c0,0,0.515-1.467,1.785-0.793c0,0,0.505,0.322,0.789,0.173c0,0-0.139,0.409-0.86,0.243
			C124.656,72.391,123.68,72.188,122.942,72.767z"/>
		<path fill="#80461E" d="M115.75,70.2c0,0,1.083-1.759,1.972-0.351C117.723,69.849,116.715,69.242,115.75,70.2z"/>
		<path fill="#80461E" d="M122.985,69.558c-0.164,0.078-0.329,0.227-0.488,0.478c0,0,0.324-0.195,0.78-0.189
			C123.176,69.751,123.079,69.655,122.985,69.558z"/>
		
			<ellipse transform="matrix(0.9853 -0.1709 0.1709 0.9853 -11.0193 21.0174)" fill="#F4A29F" cx="116.574" cy="74.516" rx="1.111" ry="0.553"/>
		
			<ellipse transform="matrix(0.9996 -0.0294 0.0294 0.9996 -2.1071 3.7305)" fill="#F4A29F" cx="125.762" cy="73.495" rx="1.111" ry="0.553"/>
		<path fill="#80461E" d="M120.597,74.942c-0.521,0-0.943-0.289-0.943-0.645c0-0.208,0.145-0.393,0.369-0.51
			c-0.408,0.071-0.709,0.323-0.709,0.624c0,0.356,0.422,0.645,0.943,0.645c0.216,0,0.415-0.05,0.575-0.134
			C120.756,74.935,120.678,74.942,120.597,74.942z"/>
		<path fill="#EB5E30" d="M118.606,76.35l5.402-0.142C124.008,76.208,121.768,80.788,118.606,76.35z"/>
		<path fill="#EDB041" d="M120.099,64.062c0,0-4.895-0.85-6.182,4.327C113.917,68.389,115.726,63.991,120.099,64.062z"/>
		<path fill="#EDB041" d="M121.522,62.677c0,0-2.287-0.888-4.083,0.321C117.439,62.998,120.974,62.488,121.522,62.677z"/>
		<path fill="#EDB041" d="M122.942,62.362c0,0,5.32-0.02,8.269,6.027C131.211,68.389,127.496,63.063,122.942,62.362z"/>
		<path fill="#EDB041" d="M121.796,64.142c0,0,6.239,0.992,7.969,6.919C129.765,71.061,126.532,65.163,121.796,64.142z"/>
		<path fill="#CF8B16" d="M121.172,64.95c0,0,0.624,4.89,6.466,6.847C127.638,71.797,122.25,68.822,121.172,64.95z"/>
	</g>
</g>
</svg>