<svg xmlns="http://www.w3.org/2000/svg" width="285" height="203" viewBox="0 0 285 203" version="1.1">
	<path d="M 103.288 4.240 C 99.620 6.821, 95.923 11.316, 95.587 13.605 C 95.462 14.460, 94.716 15.567, 93.930 16.065 C 93.115 16.580, 92.991 16.976, 93.642 16.985 C 94.269 16.993, 95.083 18.194, 95.449 19.654 C 96.390 23.401, 101.346 30.315, 105.611 33.831 C 109.776 37.264, 109.513 38.493, 104.436 39.317 C 101.866 39.734, 98.900 39.167, 94.162 37.353 C 90.498 35.951, 84.912 33.908, 81.750 32.814 C 76.955 31.154, 76 30.435, 76 28.483 C 76 27.196, 76.729 25.414, 77.619 24.524 C 78.510 23.633, 79.009 22.675, 78.728 22.395 C 78.448 22.114, 77.238 23.261, 76.041 24.942 C 73.269 28.835, 71.043 28.826, 62.362 24.884 C 58.588 23.170, 51.900 20.201, 47.500 18.287 C 43.100 16.373, 37.569 13.837, 35.208 12.653 C 31.834 10.961, 29.300 10.531, 23.364 10.644 C 19.211 10.723, 15.369 11.231, 14.827 11.773 C 14.286 12.314, 13.593 14.613, 13.289 16.880 C 12.839 20.233, 13.228 21.745, 15.368 24.980 C 16.816 27.167, 18 29.269, 18 29.650 C 18 30.031, 18.611 31.053, 19.358 31.921 C 20.859 33.666, 24.436 40.538, 31.457 55.168 C 34.009 60.485, 36.751 65.378, 37.549 66.040 C 39.852 67.952, 39.183 70.331, 35.711 72.581 C 33.945 73.725, 32.598 75.144, 32.718 75.733 C 32.837 76.323, 30.925 78.658, 28.468 80.923 C 26.010 83.188, 24 85.466, 24 85.986 C 24 86.505, 22.650 88.468, 21 90.347 C 19.350 92.226, 18 94.397, 18 95.170 C 18 95.943, 16.668 98.134, 15.041 100.038 C 13.413 101.942, 12.063 104.218, 12.041 105.095 C 12.018 105.972, 11.111 107.495, 10.024 108.479 C 8.937 109.462, 8.257 110.606, 8.513 111.020 C 8.769 111.435, 8.308 112.329, 7.489 113.009 C 6.670 113.689, 6 115.005, 6 115.934 C 6 116.863, 5.077 118.614, 3.949 119.824 C 2.821 121.035, 2.160 122.450, 2.481 122.969 C 2.801 123.488, 2.353 125.612, 1.485 127.690 C 0.609 129.786, 0.325 131.608, 0.847 131.782 C 1.364 131.955, 1.558 132.974, 1.277 134.048 C 0.983 135.172, 1.269 136, 1.951 136 C 2.662 136, 2.892 136.764, 2.527 137.916 C 2.192 138.970, 2.387 140.121, 2.959 140.475 C 3.532 140.829, 4 142.785, 4 144.822 C 4 147.361, 4.568 148.836, 5.805 149.513 C 11.244 152.488, 21.381 157, 22.625 157 C 23.416 157, 24.322 157.675, 24.638 158.500 C 24.955 159.325, 26.426 160, 27.907 160 C 31.190 160, 33 161.652, 33 164.650 C 33 165.888, 33.689 167.286, 34.531 167.758 C 35.373 168.229, 36.297 169.939, 36.583 171.557 C 37.739 178.088, 40.328 181.771, 45.452 184.176 C 49.922 186.273, 51.690 186.485, 63.590 186.343 C 80.047 186.147, 98.395 184.270, 103 182.311 C 112.173 178.409, 121.479 175.816, 124.530 176.311 C 126.309 176.600, 128.203 176.397, 128.740 175.860 C 129.375 175.225, 131.077 175.586, 133.608 176.891 C 135.749 177.995, 139.879 179.207, 142.786 179.583 L 148.073 180.267 152.422 175.530 C 156.730 170.838, 157.964 167.494, 157.989 160.441 C 157.995 158.759, 158.620 156.534, 159.378 155.497 C 160.706 153.681, 161.040 153.748, 168.431 157.306 C 172.652 159.338, 176.471 161, 176.918 161 C 178.904 161, 183 165.344, 183 167.450 C 183 168.718, 183.675 170.315, 184.500 171 C 185.325 171.685, 186 173.236, 186 174.448 C 186 175.660, 187.125 177.708, 188.500 179 C 189.875 180.292, 191 181.892, 191 182.556 C 191 184.602, 197.199 189.954, 202.479 192.467 C 205.461 193.886, 210.391 195.124, 214.617 195.516 C 222.745 196.270, 227.140 194.673, 232.500 189.018 C 235.303 186.061, 235.492 185.373, 235.380 178.540 C 235.308 174.160, 234.637 169.979, 233.707 168.114 C 231.848 164.389, 232.787 164.212, 237.770 167.346 C 246.279 172.699, 255.981 174.359, 265.906 172.160 C 279.952 169.047, 284.640 159.967, 276.701 151.250 C 274.669 149.019, 274.668 148.981, 276.594 146.750 C 277.662 145.512, 279.594 142.983, 280.888 141.128 C 283.050 138.028, 283.140 137.424, 282.004 133.628 C 279.900 126.602, 278.791 124, 277.899 124 C 277.427 124, 276.113 122.181, 274.979 119.959 C 273.845 117.736, 272.024 115.024, 270.932 113.932 C 268.312 111.312, 258.431 106, 256.177 106 C 255.200 106, 253.901 105.501, 253.292 104.892 C 252.681 104.281, 250.124 103.948, 247.592 104.149 C 245.066 104.350, 243 104.174, 243 103.757 C 243 103.341, 242.332 103, 241.515 103 C 240.298 103, 240.143 101.922, 240.656 97.012 C 241.219 91.627, 241.013 90.618, 238.604 86.977 C 235.872 82.850, 235.894 81, 238.674 81 C 241.824 81, 249.821 75.748, 251.545 72.546 C 254.240 67.543, 253.117 60.756, 248.863 56.329 C 244.149 51.424, 241.544 50.286, 229.808 48.007 C 210.496 44.258, 200.448 45.786, 194.377 53.394 C 190.939 57.703, 187.876 58.028, 179.260 55 C 176.091 53.886, 171.006 53, 167.785 53 C 164.603 53, 162 52.647, 162 52.216 C 162 51.784, 163.300 50.663, 164.889 49.725 C 175.663 43.360, 183 35.801, 183 31.064 C 183 29.894, 183.675 28.678, 184.500 28.362 C 185.508 27.975, 186 26.391, 186 23.530 C 186 19.718, 185.483 18.790, 181.043 14.637 C 176.313 10.212, 175.817 10, 170.224 10 C 167.001 10, 162.144 10.689, 159.432 11.531 C 154.847 12.955, 152.987 13.827, 145.376 18.123 C 139.666 21.346, 138.319 21.343, 137.672 18.108 C 136.102 10.262, 125.016 3.050, 113.500 2.385 C 107.457 2.036, 106.061 2.290, 103.288 4.240 M 142.336 73.567 C 142.005 74.429, 142.214 75.614, 142.800 76.200 C 144.355 77.755, 147 76.390, 147 74.031 C 147 71.565, 143.247 71.192, 142.336 73.567 M 121.500 75 C 120.229 77.056, 122.292 78, 128.059 78 C 133.333 78, 134 77.776, 134 76 C 134 74.224, 133.333 74, 128.059 74 C 124.791 74, 121.840 74.450, 121.500 75 M 125.950 83.632 C 124.979 86.184, 124.889 86.210, 122.968 84.471 C 121.879 83.486, 120.673 82.994, 120.288 83.379 C 119.421 84.246, 122.631 90.356, 125.150 92.636 C 127.385 94.659, 128.874 93.629, 127.317 91.136 C 126.390 89.652, 126.544 89.375, 128.266 89.432 C 129.725 89.480, 130.564 88.629, 131.156 86.500 C 132.227 82.650, 131.582 81, 129.007 81 C 127.706 81, 126.583 81.967, 125.950 83.632 M 135.039 85.250 C 135.075 86.405, 143.863 91.335, 145.658 91.207 C 148.190 91.026, 146.458 88.759, 142.100 86.551 C 136.467 83.696, 134.982 83.423, 135.039 85.250 M 155.558 85.775 C 154.384 86.949, 155.131 87.755, 159.010 89.505 C 163.716 91.627, 165.559 90.686, 161.985 87.985 C 159.217 85.893, 156.406 84.927, 155.558 85.775 M 131.513 89.941 C 131.158 91.559, 131.327 93.742, 131.889 94.792 C 133.409 97.632, 144.895 108, 146.522 108 C 149.408 108, 150.184 104.285, 148.366 99.169 C 146.825 94.828, 145.989 93.986, 139.935 90.675 C 136.239 88.654, 132.977 87, 132.687 87 C 132.396 87, 131.868 88.324, 131.513 89.941 M 151.714 92.619 C 150.113 94.220, 151.217 95, 155.083 95 C 157.902 95, 159.040 94.613, 158.756 93.750 C 158.302 92.367, 152.843 91.491, 151.714 92.619 M 129 97.373 C 129 99.663, 132.810 107.524, 134.714 109.160 C 135.696 110.005, 137.255 110.963, 138.178 111.289 C 139.101 111.615, 140.001 113.146, 140.178 114.691 C 140.681 119.074, 143.584 118.405, 143.177 114 C 142.824 110.173, 139.698 105.055, 134.348 99.547 C 130.710 95.800, 129 95.105, 129 97.373 M 150 98.441 C 150 100.233, 151.652 101.333, 153.049 100.470 C 153.765 100.027, 153.727 99.376, 152.926 98.411 C 151.415 96.590, 150 96.605, 150 98.441 M 190 110.452 C 190 111.734, 205.391 125.500, 206.824 125.500 C 208.718 125.500, 208.742 121.599, 206.861 119.333 C 203.423 115.190, 190 108.120, 190 110.452 M 224 114 C 224 116.267, 225.037 116.563, 226.800 114.800 C 228.563 113.037, 228.267 112, 226 112 C 224.667 112, 224 112.667, 224 114 M 222 124.702 C 221.175 124.895, 219.691 126.466, 218.701 128.192 C 217.122 130.948, 217.082 131.510, 218.367 132.795 C 219.316 133.744, 220.740 134.031, 222.415 133.611 C 224.645 133.051, 225 132.424, 225 129.040 C 225 124.914, 224.457 124.128, 222 124.702 M 212 136.506 C 212 137.427, 210.988 139.043, 209.750 140.099 L 207.500 142.019 210.962 145.009 C 212.866 146.654, 214.955 148, 215.604 148 C 217.743 148, 218.109 143.197, 216.265 139.338 C 214.363 135.358, 212 133.789, 212 136.506" fill="none" stroke="#000" stroke-width="2px" fill-rule="evenodd"/>
</svg>
