<svg xmlns="http://www.w3.org/2000/svg" width="273" height="178" viewBox="0 0 273 178" version="1.1">
	<path d="M 86.655 3.829 C 85.745 4.835, 85 6.247, 85 6.968 C 85 7.690, 84.268 8.815, 83.373 9.469 C 82.068 10.423, 81.969 11.074, 82.873 12.763 C 83.493 13.921, 84 16.303, 84 18.057 C 84 20.777, 83.780 21.062, 82.500 20 C 81.232 18.947, 81 19.160, 81 21.378 C 81 22.820, 80.662 23.970, 80.250 23.932 C 79.838 23.895, 77.250 20.408, 74.500 16.182 C 71.719 11.909, 68.659 8.344, 67.604 8.149 C 66.211 7.890, 65.871 8.222, 66.323 9.399 C 67.110 11.451, 66.143 11.439, 63.855 9.369 C 62.864 8.472, 60.213 7.634, 57.965 7.507 C 55.716 7.381, 53.364 6.764, 52.738 6.138 C 51.017 4.417, 48.962 4.739, 49.683 6.616 C 50.207 7.981, 49.978 8.059, 48.217 7.116 C 45.309 5.560, 40 5.686, 40 7.311 C 40 8.033, 40.937 9.629, 42.083 10.859 C 43.734 12.631, 43.920 13.391, 42.981 14.522 C 42.023 15.677, 42.295 16.177, 44.398 17.136 C 47.256 18.438, 47.857 20, 45.500 20 C 43.357 20, 43.647 21.741, 46 23 C 47.100 23.589, 48 24.744, 48 25.567 C 48 26.389, 48.686 27.326, 49.526 27.648 C 50.727 28.109, 50.799 28.537, 49.865 29.663 C 48.928 30.792, 49.101 31.660, 50.689 33.796 C 52.312 35.978, 53.742 36.605, 58.100 37.046 C 61.820 37.422, 62.971 37.838, 61.798 38.384 C 60.862 38.820, 59.655 38.905, 59.117 38.572 C 58.579 38.240, 57.865 38.410, 57.530 38.951 C 57.196 39.492, 55.590 39.668, 53.961 39.342 C 52.083 38.967, 51 39.162, 51 39.875 C 51 40.494, 49.875 41, 48.500 41 C 47.125 41, 46 41.374, 46 41.831 C 46 42.288, 44.875 43.264, 43.500 44 C 42.125 44.736, 41 45.600, 41 45.921 C 41 46.838, 49.318 51.006, 51.143 51.003 C 52.047 51.001, 53.067 51.731, 53.410 52.625 C 53.905 53.917, 54.867 54.117, 58.102 53.600 L 62.170 52.949 61.585 55.975 C 61.263 57.639, 60.733 60.378, 60.407 62.061 L 59.814 65.122 58.055 61.811 C 56.200 58.318, 50.377 53.711, 48.568 54.306 C 47.981 54.499, 47.355 55.641, 47.179 56.843 C 46.985 58.162, 46.411 58.754, 45.733 58.335 C 44.335 57.471, 32.931 57.570, 30.093 58.470 C 26.747 59.532, 25.655 62.543, 27.560 65.451 C 28.450 66.810, 30.039 68.195, 31.089 68.528 C 33.899 69.420, 33.418 70.666, 30 71.350 C 28.350 71.680, 27 72.576, 27 73.340 C 27 75.578, 31.082 80.131, 34.302 81.485 L 37.274 82.735 32.241 83.942 C 29.414 84.620, 26.210 86.213, 24.930 87.575 C 23.677 88.909, 21.930 90, 21.048 90 C 18.872 90, 15 92.815, 15 94.396 C 15 95.102, 16.209 96.230, 17.687 96.903 L 20.373 98.127 14.165 102.207 C 9.424 105.323, 8.091 106.712, 8.526 108.083 C 8.893 109.239, 8.411 110.245, 7.173 110.907 C 4.977 112.083, 3.704 115.699, 5.167 116.603 C 5.706 116.936, 5.188 117.880, 4.017 118.701 C 1.463 120.490, 1.666 124.320, 4.341 124.831 C 5.353 125.024, 7.072 126.072, 8.160 127.160 C 9.994 128.994, 10.314 129.024, 12.534 127.569 C 15.567 125.583, 15.660 125.593, 16.290 128 C 16.927 130.438, 20.266 130.623, 25.346 128.500 C 30.006 126.553, 30 126.552, 30 129.627 C 30 132.174, 30.152 132.240, 34.951 131.779 C 37.675 131.517, 40.326 131.726, 40.844 132.244 C 42.004 133.404, 45.428 131.746, 49.345 128.128 L 52.189 125.500 51.845 131.500 C 51.510 137.325, 51.573 137.500, 54 137.500 C 56.065 137.500, 56.761 138.271, 58 141.934 C 58.825 144.373, 60.038 146.540, 60.696 146.749 C 61.354 146.959, 62.853 145.248, 64.027 142.946 C 65.602 139.860, 66.456 139.056, 67.281 139.881 C 69.131 141.731, 69.880 141.225, 73.148 135.915 C 75.227 132.535, 76.532 131.242, 77.037 132.060 C 77.456 132.737, 78.461 133.037, 79.271 132.726 C 81.195 131.988, 85 124.082, 85 120.823 C 85 118.647, 85.363 118.347, 87.500 118.755 C 88.875 119.018, 90.007 119.743, 90.015 120.367 C 90.024 120.990, 90.446 122.157, 90.954 122.960 C 91.748 124.215, 92.154 124.171, 93.842 122.643 C 95.762 120.906, 95.830 120.980, 96.903 125.983 C 98.367 132.809, 100.159 136.054, 104.634 139.983 C 112.724 147.087, 120.022 148.472, 131.186 145.024 C 143.855 141.111, 150.313 132.399, 150.432 119.058 L 150.500 111.500 162.500 117.500 L 174.500 123.500 169.692 125.342 C 162.892 127.946, 158.403 132.808, 156.384 139.752 C 153.760 148.776, 156.174 155.246, 165.569 164.370 C 168.604 167.317, 168.840 167.888, 167.492 169.007 C 166.639 169.715, 166.206 171.072, 166.518 172.057 C 166.828 173.033, 166.613 174.121, 166.041 174.475 C 164.479 175.440, 164.789 177, 166.543 177 C 167.391 177, 170.251 174.975, 172.897 172.500 C 176.621 169.016, 178.474 167.995, 181.104 167.978 C 188.229 167.932, 196.812 161.962, 199.764 155 C 201.706 150.420, 201.590 142.041, 199.529 138.056 L 197.891 134.889 201.696 135.694 C 203.788 136.138, 208.918 136.500, 213.096 136.500 L 220.691 136.500 219.457 139.500 C 218.779 141.150, 217.919 144.355, 217.545 146.623 C 215.934 156.417, 225.388 167.017, 235.710 166.990 C 239.570 166.980, 249.103 163.121, 252.207 160.313 C 253.764 158.904, 254.309 158.986, 258.210 161.217 C 262.003 163.387, 262.790 163.519, 265 162.357 C 266.375 161.635, 268.326 161.302, 269.336 161.617 C 272.314 162.546, 269.554 158.338, 265.970 156.485 C 264.337 155.640, 263 154.563, 263 154.091 C 263 153.248, 259.654 152.019, 258.227 152.338 C 257.827 152.427, 257.238 149.769, 256.919 146.431 C 256.599 143.093, 255.474 138.630, 254.419 136.515 L 252.500 132.668 256.212 128.832 C 260.810 124.081, 262.253 119.151, 262.511 107.320 C 262.704 98.495, 262.852 97.945, 266.356 93.068 C 270.489 87.314, 270.859 85.458, 268.020 84.716 C 266.560 84.334, 265.498 85.076, 263.971 87.547 C 260.817 92.650, 258.988 92.700, 249.396 87.949 C 241.519 84.046, 240.443 83.773, 234.942 84.272 C 231.063 84.623, 227.413 85.740, 224.433 87.487 C 219.087 90.619, 217.515 90.324, 216.655 86.025 C 216.273 84.114, 213.779 80.523, 210.305 76.881 C 203.753 70.012, 203.813 69.111, 211.091 65.024 C 215.938 62.302, 214.423 60.860, 209.436 63.450 C 206.272 65.093, 204.301 63.530, 207.371 61.812 C 209.052 60.871, 209.682 56, 208.122 56 C 207.640 56, 206.675 56.686, 205.979 57.525 C 204.848 58.889, 204.523 58.878, 202.920 57.427 C 200.764 55.476, 198.631 56.482, 199.322 59.123 C 199.595 60.167, 199.327 62.322, 198.727 63.913 C 197.669 66.716, 197.388 66.818, 189.568 67.235 C 182.371 67.619, 180.960 67.387, 176.500 65.083 C 170.558 62.014, 170.042 61.412, 169.993 57.500 C 169.973 55.850, 169.056 52.517, 167.957 50.093 L 165.958 45.687 170.900 40.719 C 175.599 35.995, 176.565 33, 173.389 33 C 171.180 33, 165.220 36.506, 163.210 38.988 C 161.753 40.788, 160.980 41.047, 159.439 40.248 C 150.604 35.672, 145.513 34.619, 138.498 35.916 C 133.310 36.875, 132.448 36.754, 127.849 34.423 C 120.128 30.511, 110.485 30.191, 101.717 33.555 C 100.129 34.164, 100.003 33.769, 100.537 29.869 C 101.071 25.978, 100.980 25.691, 99.708 27.250 C 97.837 29.542, 97.064 29.469, 97.694 27.061 C 98.347 24.565, 96.105 11.183, 94.910 10.445 C 94.410 10.135, 93.996 10.471, 93.990 11.191 C 93.985 11.911, 92.881 10.138, 91.536 7.250 C 90.192 4.362, 88.916 2, 88.701 2 C 88.486 2, 87.565 2.823, 86.655 3.829 M 82.300 52.750 C 81.950 53.712, 80.356 56.429, 78.758 58.788 L 75.852 63.075 78.426 62.429 C 80.420 61.929, 81 62.159, 81 63.451 C 81 66.996, 82.744 63.815, 83.286 59.279 C 83.601 56.651, 84.163 53.712, 84.536 52.750 C 84.938 51.711, 84.751 51, 84.076 51 C 83.449 51, 82.651 51.788, 82.300 52.750 M 71.224 54.814 C 69.165 56.383, 69.088 56.735, 70.413 58.524 C 71.795 60.388, 71.976 60.403, 73.611 58.793 C 74.886 57.536, 75.100 56.556, 74.422 55.083 C 73.539 53.165, 73.404 53.154, 71.224 54.814 M 63 56.941 C 63 58.073, 63.450 59, 64 59 C 64.550 59, 65 58.352, 65 57.559 C 65 56.766, 64.550 55.840, 64 55.500 C 63.450 55.160, 63 55.809, 63 56.941 M 79.750 68.689 C 77.284 69.334, 77.575 70.486, 80.547 71.839 C 83.953 73.391, 84 73.373, 84 70.500 C 84 68.049, 83.316 67.757, 79.750 68.689 M 77.622 78.862 C 77.932 80.408, 77.705 83.408, 77.119 85.530 C 76.534 87.652, 76.155 89.485, 76.277 89.604 C 76.400 89.723, 79.786 88.438, 83.803 86.749 C 92.186 83.222, 92.120 82.693, 82.780 78.574 L 77.060 76.052 77.622 78.862 M 132.269 87.646 C 129.060 90.771, 129.054 90.797, 131.342 91.371 C 132.609 91.689, 135.359 93.112, 137.452 94.532 C 140.261 96.438, 141.093 96.685, 140.629 95.476 C 140.283 94.574, 140 92.298, 140 90.418 C 140 88.099, 139.534 87, 138.550 87 C 137.752 87, 136.740 86.438, 136.300 85.750 C 135.716 84.837, 134.629 85.348, 132.269 87.646 M 88.500 90.168 C 85.200 91.857, 82.367 93.356, 82.205 93.498 C 82.043 93.640, 83.168 95.092, 84.705 96.725 C 93.805 106.390, 95.790 108.649, 96.369 110 C 96.723 110.825, 96.773 110.253, 96.481 108.728 C 96.106 106.766, 96.416 105.778, 97.543 105.345 C 98.419 105.009, 101.550 102.320, 104.500 99.369 L 109.865 94.004 107.183 93.376 C 105.707 93.030, 102.356 91.454, 99.735 89.874 C 97.114 88.293, 94.864 87.022, 94.735 87.048 C 94.606 87.075, 91.800 88.478, 88.500 90.168" fill="none" stroke="#000" stroke-width="2px" fill-rule="evenodd"/>
</svg>
