<svg xmlns="http://www.w3.org/2000/svg" width="500" height="404" viewBox="0 0 500 404" version="1.1">
	<path d="M 195.417 4.058 C 187.966 6.927, 185.716 9.779, 185.192 17.016 C 184.936 20.563, 185.273 24.246, 186.020 26.049 C 187.318 29.182, 191.465 32, 194.776 32 C 197.399 32, 201 36.135, 201 39.148 C 201 43.205, 200.001 43.171, 195.203 38.948 C 189.337 33.784, 181.547 31.334, 176.397 33.034 C 171.534 34.639, 170.545 33.315, 173.004 28.492 C 179.356 16.033, 168.978 2.419, 154.812 4.629 C 148.602 5.598, 142.444 11.857, 141.499 18.160 C 140.632 23.937, 143.362 30.729, 147.897 34.082 C 149.604 35.344, 151 36.929, 151 37.604 C 151 38.280, 148.300 41.276, 145 44.262 C 141.700 47.248, 139 50.264, 139 50.964 C 139 51.663, 140.350 53.774, 142 55.653 C 143.650 57.532, 145 59.659, 145 60.380 C 145 63.213, 141.173 65.036, 132.913 66.138 C 119.245 67.961, 120.520 68.611, 120.856 60 C 121.184 51.587, 120.112 47.827, 116.186 43.624 C 109.823 36.811, 98.704 35.062, 89.373 39.407 C 86.552 40.720, 83.938 42.291, 83.564 42.897 C 83.189 43.504, 82.002 44, 80.927 44 C 79.852 44, 78.082 44.556, 76.993 45.236 C 75.246 46.328, 74.659 46.042, 71.987 42.800 C 64.349 33.535, 49.620 30.809, 38.346 36.575 C 31.287 40.185, 27.422 45.470, 25.838 53.681 C 25.220 56.881, 23.900 60.406, 22.905 61.514 C 17.974 67.001, 16.527 77.082, 19.996 81.790 L 21.992 84.500 19.496 89.419 C 15.352 97.586, 16.738 104.543, 24.248 113.284 C 27.093 116.594, 28.189 117.137, 33 117.618 C 41.275 118.447, 41.300 118.469, 38.507 122.584 C 33.772 129.563, 32.785 137.730, 35.861 144.500 C 37.844 148.864, 37.709 149.590, 33.096 159.372 C 31.665 162.407, 31 165.250, 31.333 166.913 C 31.644 168.472, 31.064 171.375, 29.936 173.894 C 28.874 176.266, 27.561 180.989, 27.018 184.390 C 26.474 187.791, 24.742 194.607, 23.168 199.537 C 18.963 212.704, 18.810 213.597, 20.510 215.008 C 22.228 216.434, 22.481 220.119, 20.965 221.635 C 18.701 223.899, 12 245.338, 11.976 250.391 C 11.961 253.638, 11.007 257.687, 9.358 261.500 C 7.931 264.800, 6.548 268.917, 6.284 270.649 C 5.874 273.346, 6.213 273.992, 8.652 275.158 C 12.495 276.994, 12.665 279.767, 9.385 287.077 L 6.637 293.201 9.388 304.850 C 10.900 311.258, 13.058 319.078, 14.183 322.228 C 15.359 325.522, 15.970 328.985, 15.620 330.377 C 15.278 331.742, 15.661 334.040, 16.500 335.648 C 17.318 337.217, 17.990 339.274, 17.994 340.220 C 17.997 341.167, 19.062 344.317, 20.361 347.220 C 21.659 350.124, 23.562 354.902, 24.589 357.837 C 25.633 360.819, 27.350 363.635, 28.479 364.218 C 31.446 365.749, 38.903 374.235, 38.955 376.139 C 38.980 377.041, 39.788 378.751, 40.750 379.940 C 42.438 382.024, 42.503 381.630, 42.575 368.800 C 42.669 352.039, 45.327 338.126, 54.584 305.932 C 58.290 293.044, 62.960 276.425, 64.963 269 C 66.966 261.575, 69.011 255.582, 69.509 255.682 C 70.007 255.783, 71.172 258.188, 72.098 261.028 C 74.654 268.871, 84.698 278, 90.769 278 C 91.786 278, 93.399 278.571, 94.354 279.270 C 95.957 280.442, 95.972 280.824, 94.545 284.238 C 92.345 289.502, 92.610 295.804, 95.250 301.030 C 98.020 306.514, 102.714 309.761, 109.098 310.607 C 113.022 311.128, 114.435 311.881, 116.456 314.531 C 121.906 321.677, 131.189 324.922, 140.646 322.988 C 145.586 321.978, 147.226 321.043, 151.146 317.006 C 153.734 314.341, 156.102 310.814, 156.490 309.043 C 157.397 304.917, 158.955 304.428, 164.949 306.389 C 171.711 308.600, 176.856 308.409, 182.096 305.750 C 185.989 303.775, 186.958 303.646, 190.016 304.694 C 194.799 306.332, 201.949 306.282, 206.784 304.576 C 209.003 303.793, 211.085 303.418, 211.410 303.743 C 211.734 304.068, 212.010 307.071, 212.022 310.417 C 212.049 317.787, 214.345 323.296, 219.463 328.267 C 223.415 332.105, 230.320 335, 235.523 335 C 237.474 335, 239.422 335.809, 240.595 337.106 C 243.327 340.127, 249.622 343.112, 254.833 343.857 L 259.325 344.500 260.615 350.827 C 262.928 362.165, 267.135 366.518, 276.900 367.675 C 281.301 368.196, 282.869 367.847, 288.435 365.107 C 295.552 361.603, 298.502 357.969, 299.550 351.412 C 301.037 342.115, 294.898 332.429, 285.975 329.993 C 283.514 329.321, 280.938 328.612, 280.250 328.417 C 278.779 328, 278.569 324.385, 279.966 323.521 C 280.497 323.193, 282.824 323.890, 285.137 325.070 C 288.451 326.761, 290.594 327.125, 295.243 326.789 L 301.144 326.362 302.980 329.931 C 306.958 337.662, 314.250 342.007, 323.218 341.990 C 329.697 341.978, 337.846 338.431, 340.736 334.366 C 343.095 331.048, 344.986 324.851, 344.994 320.417 C 345.002 316.091, 345.639 315.841, 350.349 318.318 C 353.482 319.965, 356.298 320.512, 361.835 320.548 L 369.171 320.597 370.890 325.676 C 373.361 332.974, 375.308 335.486, 380.404 337.953 C 387.371 341.326, 394.530 341.701, 400.287 338.995 C 408.458 335.154, 411.854 328.283, 410.360 318.614 C 409.926 315.801, 409.554 313.086, 409.535 312.579 C 409.516 312.073, 411.987 311.161, 415.028 310.554 C 422.892 308.984, 429.414 304.856, 432.588 299.440 C 434.869 295.548, 435.174 294.069, 434.825 288.587 C 434.317 280.620, 431.276 276.261, 423.607 272.508 C 420.270 270.876, 417.985 269.051, 417.644 267.747 C 416.814 264.574, 418.148 250.026, 419.336 249.292 C 419.905 248.940, 422.772 248.764, 425.706 248.900 C 433.319 249.252, 440.110 246.687, 445.546 241.404 C 451.196 235.912, 453.006 231.742, 452.978 224.282 C 452.951 217.240, 450.585 211.651, 445.459 206.525 C 441.802 202.869, 441.735 202.674, 443.256 200.166 C 444.557 198.022, 446.034 197.375, 451.882 196.390 C 455.763 195.736, 460.531 194.217, 462.478 193.013 C 470.854 187.837, 473.587 175.449, 468.548 165.496 C 467.200 162.832, 466.287 160.345, 466.520 159.968 C 466.753 159.591, 469.576 159.044, 472.794 158.752 C 479.822 158.115, 486.053 155.139, 488.988 151.017 C 492 146.787, 495.800 134.773, 494.873 132.410 C 494.462 131.359, 493.850 128.400, 493.514 125.833 C 492.744 119.960, 488.489 113.942, 483.366 111.481 C 477.433 108.632, 467.912 108.956, 460.742 112.250 L 454.985 114.896 449.784 112.198 C 442.371 108.352, 433.401 108.383, 426.777 112.277 C 421.772 115.218, 417.513 121.186, 416.382 126.839 C 415.535 131.077, 414.430 131.586, 412.495 128.632 C 410.184 125.105, 403.867 121.233, 398.320 119.943 C 395.669 119.326, 392.908 118.640, 392.185 118.417 C 391.306 118.147, 392.201 116.435, 394.882 113.254 C 401.925 104.903, 404.156 96.458, 401.613 87.787 C 398.610 77.552, 392.643 71.926, 383.187 70.414 C 379.790 69.871, 378.716 69.042, 376.024 64.888 C 370.229 55.944, 362.421 53.322, 350.073 56.172 C 346.163 57.075, 343.784 58.513, 339.736 62.422 C 336.844 65.215, 333.513 68.850, 332.334 70.500 C 330.267 73.393, 330.125 73.436, 328.346 71.705 C 326.557 69.966, 326.627 69.804, 330.614 66.485 C 341.617 57.325, 342.491 38.289, 332.342 28.860 C 322.720 19.921, 310.978 19.885, 299.131 28.760 C 292.836 33.475, 289.491 46.761, 293.029 53 C 293.808 54.375, 294.529 56.400, 294.630 57.500 C 294.731 58.600, 295.124 60.478, 295.504 61.674 C 296.068 63.453, 295.585 64.157, 292.847 65.545 C 291.006 66.478, 288.728 67.917, 287.785 68.744 C 286.225 70.111, 285.968 69.986, 284.950 67.373 C 280.643 56.323, 277.280 52.759, 268.124 49.539 C 262.430 47.536, 259.675 47.635, 253 50.080 C 243.566 53.536, 244.129 53.554, 242.535 49.738 C 240.461 44.773, 236.137 39.955, 232.329 38.364 C 225.329 35.439, 216.571 37.515, 211.076 43.403 C 206.673 48.119, 202 46.327, 202 39.922 C 202 35.708, 202.885 34.812, 208.676 33.157 C 216.392 30.953, 220.387 22.866, 218.050 14.186 C 216.754 9.373, 212.504 5.482, 206.892 3.971 C 204.683 3.376, 202.341 2.712, 201.687 2.495 C 201.034 2.278, 198.213 2.982, 195.417 4.058 M 54.655 103.191 C 53.299 106.226, 50.895 109.508, 49.044 110.852 C 45.250 113.607, 46.127 115.663, 50.402 114.037 C 51.903 113.467, 54.729 113, 56.683 113 C 59.205 113, 61.228 112.129, 63.653 110 C 65.532 108.350, 67.504 107, 68.035 107 C 70.300 107, 68.743 104.106, 65.956 103.134 C 64.281 102.551, 61.587 101.130, 59.969 99.978 L 57.027 97.883 54.655 103.191 M 301.655 125.750 C 301.141 126.583, 299 137.699, 299 139.534 C 299 140.176, 301.267 142.110, 304.038 143.833 C 310.077 147.587, 310.406 147.191, 309.823 136.866 C 309.468 130.595, 309.095 129.479, 306.655 127.379 C 303.781 124.908, 302.444 124.472, 301.655 125.750 M 103.136 153.102 C 100.245 155.667, 99.232 157.130, 100.136 157.433 C 107.260 159.824, 109.327 159.904, 112.150 157.893 C 113.718 156.777, 115 155.707, 115 155.516 C 115 155.325, 113.313 153.832, 111.250 152.198 L 107.500 149.228 103.136 153.102 M 347.670 190.750 C 347.284 191.394, 348.552 199.961, 349.594 203.750 C 350.121 205.667, 351.843 205.248, 354.545 202.545 C 357.515 199.576, 357.618 197.526, 355.011 193.250 C 353.127 190.160, 348.886 188.716, 347.670 190.750 M 294.054 205.677 C 294.084 206.680, 295.105 211.325, 296.325 216 C 298.233 223.318, 298.862 224.546, 300.844 224.829 C 305.740 225.529, 306.157 224.386, 302.911 219.163 C 301.231 216.461, 299.297 212.057, 298.613 209.376 C 297.818 206.259, 296.763 204.385, 295.685 204.178 C 294.589 203.967, 294.019 204.491, 294.054 205.677 M 198.473 209.044 C 198.118 209.618, 198.381 210.754, 199.057 211.569 C 200.138 212.871, 200.508 212.850, 202.120 211.392 C 203.128 210.479, 203.712 209.343, 203.417 208.866 C 202.671 207.659, 199.253 207.781, 198.473 209.044 M 349.623 209.802 C 349.350 210.242, 348.211 212.929, 347.090 215.771 L 345.053 220.939 348.581 223.629 C 351.841 226.116, 352.232 226.196, 353.737 224.691 C 355.243 223.186, 355.239 222.921, 353.683 221.202 C 351.502 218.792, 351.559 218.099, 354.164 215.325 C 356.263 213.091, 356.274 212.960, 354.509 211.010 C 352.629 208.933, 350.487 208.403, 349.623 209.802 M 337.250 227.675 C 334.145 229.483, 333 230.787, 333 232.516 C 333 236.258, 334.526 236.328, 341.680 232.914 L 348.375 229.719 345.632 227.360 C 342.374 224.557, 342.620 224.548, 337.250 227.675 M 357.517 226.981 C 355.495 229.216, 356.518 231.379, 360.032 232.298 C 362.567 232.961, 363.138 231.938, 362.371 228.103 C 361.655 224.525, 360.071 224.159, 357.517 226.981 M 75.550 231.176 C 73.374 237.659, 72.134 243.534, 72.802 244.202 C 73.248 244.648, 74.789 243.773, 76.227 242.257 C 79.531 238.771, 80.531 230.726, 77.727 230.186 C 76.774 230.002, 75.794 230.448, 75.550 231.176 M 371.998 260.505 C 371.449 261.949, 371 263.483, 371 263.915 C 371 264.347, 369.673 266.532, 368.051 268.770 C 364.751 273.327, 365.390 274.927, 370.658 275.300 C 373.317 275.488, 373.497 275.253, 373.585 271.500 C 373.637 269.300, 374.008 265.634, 374.410 263.353 C 375.268 258.486, 373.541 256.447, 371.998 260.505 M 326.179 269.284 C 324.765 270.988, 326.249 277.509, 328.661 280.189 C 330.768 282.530, 339.892 287.977, 341.730 287.991 C 343.174 288.002, 347.333 280.321, 346.243 279.656 C 345.834 279.407, 343.594 278.691, 341.264 278.066 C 338.652 277.366, 335.215 275.218, 332.301 272.465 C 329.701 270.009, 327.500 268, 327.409 268 C 327.319 268, 326.765 268.578, 326.179 269.284 M 315.500 275.155 C 312.750 276.122, 309.289 276.932, 307.809 276.956 C 306.329 276.980, 304.861 277.416, 304.546 277.925 C 303.490 279.635, 306.255 283.903, 310.045 286.411 C 312.476 288.020, 314.760 290.854, 316.514 294.439 C 318.005 297.486, 319.618 299.736, 320.099 299.439 C 320.580 299.141, 321.664 296.524, 322.507 293.623 C 323.720 289.452, 323.839 286.919, 323.075 281.528 C 322.544 277.778, 321.748 274.415, 321.305 274.054 C 320.862 273.693, 318.250 274.189, 315.500 275.155 M 224.719 274.704 C 223.788 276.328, 223.980 287.869, 224.948 288.468 C 226.075 289.165, 238.023 287.039, 239.365 285.903 C 239.841 285.500, 238.777 284.419, 237.001 283.500 C 235.224 282.582, 231.837 280.048, 229.473 277.869 C 227.110 275.690, 224.970 274.265, 224.719 274.704 M 328.751 288.750 C 327.308 290.262, 325.622 292.837, 325.005 294.470 C 324.058 296.975, 324.156 297.641, 325.632 298.720 C 326.595 299.424, 328.127 300, 329.036 300 C 329.946 300, 331.505 300.900, 332.500 302 C 333.495 303.100, 334.905 304, 335.632 304 C 337.673 304, 339.998 299.728, 340.262 295.490 C 340.476 292.049, 340.099 291.384, 336.500 288.866 C 334.300 287.326, 332.247 286.051, 331.937 286.033 C 331.627 286.015, 330.194 287.238, 328.751 288.750 M 46.564 390.293 C 46.940 391.279, 47.499 391.834, 47.807 391.526 C 48.115 391.219, 47.808 390.412, 47.124 389.733 C 46.136 388.753, 46.022 388.868, 46.564 390.293" fill="none" stroke="#000" stroke-width="2px" fill-rule="evenodd"/>
</svg>
