<svg xmlns="http://www.w3.org/2000/svg" width="264" height="194" viewBox="0 0 264 194" version="1.1">
	<path d="M 216.874 3.250 C 216.354 4.213, 215.455 5, 214.875 5 C 214.295 5, 212.976 6.012, 211.944 7.250 C 210.339 9.174, 210.062 9.246, 210.033 7.750 C 209.991 5.506, 209.443 5.548, 205.904 8.068 C 204.150 9.318, 203 9.665, 203 8.946 C 203 8.096, 202.529 8.146, 201.355 9.121 C 199.949 10.287, 199.558 10.247, 198.671 8.840 C 197.770 7.411, 197.356 7.376, 195.533 8.570 C 194.378 9.327, 192.479 10.092, 191.314 10.270 C 190.149 10.448, 188.442 11.218, 187.521 11.982 C 186.090 13.170, 185.718 13.163, 184.954 11.936 C 184.220 10.756, 183.699 10.725, 182.031 11.758 C 180.914 12.451, 180 12.593, 180 12.075 C 180 11.557, 178.650 11.172, 177 11.219 C 175.350 11.266, 173.993 11.798, 173.985 12.402 C 173.976 13.006, 173.526 12.825, 172.985 12 C 172.163 10.749, 171.898 10.873, 171.383 12.750 C 171.044 13.988, 170.383 15, 169.915 15 C 169.446 15, 169.342 14.273, 169.683 13.384 C 170.196 12.046, 169.966 11.948, 168.346 12.815 C 165.738 14.210, 158 13.146, 158 11.391 C 158 9.789, 150.023 9.897, 149.990 11.500 C 149.979 12.050, 149.583 11.891, 149.112 11.147 C 148.453 10.108, 147.776 10.050, 146.193 10.897 C 143.594 12.288, 142.696 12.300, 143.541 10.933 C 143.937 10.293, 143.461 9.993, 142.350 10.183 C 141.055 10.405, 140.401 9.802, 140.170 8.174 C 139.922 6.420, 139.430 6.029, 138.170 6.585 C 137.252 6.991, 135.546 7.301, 134.379 7.275 C 132.759 7.239, 131.595 8.617, 129.446 13.114 C 126.703 18.851, 125 20.532, 125 17.500 C 125 15.533, 124.032 15.636, 121.062 17.919 C 119.721 18.949, 118.033 19.566, 117.312 19.289 C 116.473 18.967, 116 19.584, 116 21 C 116 22.557, 115.555 23.043, 114.500 22.638 C 113.441 22.232, 113 22.723, 113 24.309 C 113 25.544, 112.330 27.512, 111.510 28.682 C 110.623 29.949, 110.118 32.564, 110.260 35.154 C 110.458 38.732, 110.196 39.476, 108.781 39.366 C 107.835 39.293, 106.787 40.096, 106.452 41.151 C 105.874 42.972, 105.750 42.952, 104.019 40.752 C 103.017 39.477, 99.925 37.370, 97.150 36.070 C 92.631 33.953, 91.485 33.807, 86.155 34.665 C 81.537 35.409, 79.793 35.322, 78.360 34.274 C 77.101 33.354, 74.129 33.016, 69.013 33.212 C 61.571 33.498, 61.491 33.530, 59.114 37.210 C 57.157 40.238, 56.388 40.743, 54.924 39.960 C 50.939 37.827, 47.205 38.878, 41.783 43.660 C 38.878 46.224, 36.275 48.638, 36 49.026 C 35.725 49.413, 34.375 50.078, 33 50.503 C 31.625 50.928, 29.455 52.091, 28.178 53.088 C 24.892 55.654, 19 63.583, 19 65.440 C 19 66.298, 18.290 67, 17.422 67 C 15.318 67, 8.609 73.871, 6.050 78.646 C 3.827 82.793, 3.365 87.965, 5.066 89.666 C 5.822 90.422, 5.531 91.720, 4.070 94.116 C 1.632 98.117, 1.361 104.643, 3.508 107.707 C 4.878 109.663, 4.822 110.188, 2.895 113.454 C 0.983 116.694, 0.891 117.512, 1.963 121.774 C 4.240 130.831, 7.899 134.470, 15.473 135.210 C 17.910 135.448, 18.632 136.131, 19.473 139 C 20.950 144.036, 21.764 144.989, 26.373 147.082 C 30.998 149.182, 37.102 149.551, 40.160 147.914 C 41.781 147.047, 42.622 147.221, 44.344 148.783 C 45.530 149.858, 47.737 151.030, 49.250 151.388 C 51.106 151.827, 52 152.682, 52 154.019 C 52 155.109, 51.550 156, 51 156 C 50.450 156, 50 156.421, 50 156.935 C 50 157.449, 49.460 159.137, 48.800 160.685 C 48.141 162.233, 47.509 164.625, 47.397 166 C 47.285 167.375, 46.891 169.441, 46.521 170.592 C 45.926 172.447, 46.232 172.670, 49.232 172.566 C 51.092 172.501, 53.887 171.447, 55.442 170.224 C 58.627 167.719, 59.353 167.583, 62 169 C 63.257 169.673, 64.771 169.657, 66.625 168.953 C 68.896 168.089, 69.867 168.265, 72.151 169.954 C 74.784 171.901, 75.150 171.926, 79.479 170.455 C 83.482 169.097, 84.369 169.085, 86.768 170.356 C 98.581 176.616, 108.244 179.169, 113.710 177.473 C 115.403 176.948, 116.572 177.503, 118.719 179.853 C 122.784 184.304, 128.909 186.201, 140 186.442 C 145.225 186.556, 150.832 187.203, 152.461 187.880 C 154.089 188.557, 156.456 188.851, 157.719 188.534 C 159.043 188.202, 161.897 188.814, 164.454 189.979 C 167.450 191.344, 170.998 192, 175.380 192 C 182.999 192, 185.816 191.093, 189.431 187.478 C 191.265 185.644, 192.618 185.050, 193.794 185.562 C 202.439 189.325, 212.649 183.357, 216.206 172.463 C 217.224 169.345, 218.390 168.072, 221.677 166.493 C 229.866 162.557, 233.004 157.399, 232.996 147.884 C 232.993 143.628, 230.041 137, 228.148 137 C 227.664 137, 227.936 134.599, 228.753 131.663 C 230.159 126.610, 230.123 126.067, 228.072 121.429 C 226.745 118.430, 226.311 116.396, 226.953 116.182 C 227.529 115.990, 228 115.196, 228 114.417 C 228 113.638, 228.900 113, 230 113 C 231.329 113, 232 112.333, 232 111.012 C 232 109.723, 232.616 109.081, 233.750 109.186 C 236.701 109.459, 242 107.815, 242.004 106.625 C 242.007 106.006, 243.686 105.412, 245.736 105.305 C 247.786 105.198, 249.606 104.683, 249.780 104.161 C 249.954 103.639, 250.953 103.437, 252.002 103.711 C 253.928 104.214, 261.927 101.085, 261.974 99.809 C 261.988 99.429, 261.550 98.840, 261 98.500 C 260.450 98.160, 260 97.064, 260 96.063 C 260 95.063, 259.315 93.676, 258.477 92.981 C 257.640 92.286, 257.183 90.994, 257.461 90.109 C 257.795 89.047, 256.867 87.859, 254.734 86.615 C 252.867 85.527, 252.029 84.541, 252.750 84.282 C 254.706 83.580, 254.220 82.202, 251.750 81.449 C 250.512 81.072, 248.825 80.195, 248 79.500 C 247.175 78.805, 243.575 76.797, 240 75.038 C 236.425 73.278, 232.719 71.425, 231.764 70.919 C 230.809 70.414, 229.401 70, 228.636 70 C 227.871 70, 226.725 69.373, 226.089 68.607 C 225.453 67.841, 221.581 66.154, 217.485 64.857 C 213.388 63.561, 210.028 62.200, 210.018 61.833 C 210.008 61.467, 211.071 60.792, 212.379 60.333 C 214.746 59.504, 223 52.558, 223 51.396 C 223 51.060, 222.325 51.045, 221.500 51.362 C 220.675 51.678, 220 51.501, 220 50.969 C 220 50.436, 220.397 50, 220.882 50 C 221.367 50, 221.776 48.538, 221.790 46.750 C 221.805 44.962, 222.135 42.487, 222.525 41.250 C 222.970 39.837, 222.818 39, 222.117 39 C 220.528 39, 220.735 35.824, 222.486 33.324 C 223.811 31.432, 223.799 31.137, 222.373 30.590 C 221.009 30.066, 220.975 29.736, 222.137 28.335 C 222.887 27.432, 223.571 25.750, 223.658 24.597 C 223.925 21.069, 225.053 13.597, 225.589 11.813 C 225.867 10.884, 225.536 9.230, 224.853 8.137 C 223.896 6.604, 223.877 5.564, 224.773 3.599 C 225.920 1.081, 225.886 1.053, 221.876 1.275 C 219.204 1.423, 217.495 2.098, 216.874 3.250" fill="none" stroke="#000" stroke-width="2px" fill-rule="evenodd"/>
</svg>
