<svg xmlns="http://www.w3.org/2000/svg" width="262" height="128" viewBox="0 0 262 128" version="1.1">
	<path d="M 132.136 5.500 C 130.385 7.425, 128.303 9, 127.511 9 C 126.718 9, 123.917 9.731, 121.285 10.625 C 117.239 11.998, 115.762 12.060, 111.725 11.026 C 107.742 10.005, 106.581 10.043, 104.725 11.254 C 103.501 12.052, 99.237 12.936, 95.250 13.219 L 88 13.733 87.817 10.616 C 87.716 8.902, 87.688 6.488, 87.755 5.250 C 87.909 2.393, 86.768 2.354, 85.487 5.172 C 83.952 8.549, 79.828 11.047, 74.536 11.806 C 69.886 12.473, 69.569 12.732, 66.337 18.500 C 64.163 22.380, 63.162 25.295, 63.506 26.750 C 63.799 27.988, 63.805 29, 63.521 29 C 63.237 29, 59.984 27.425, 56.292 25.500 C 52.600 23.575, 49.162 22, 48.654 22 C 48.133 22, 47.997 23.959, 48.342 26.481 C 48.854 30.212, 48.609 31.286, 46.883 32.894 C 45.457 34.223, 45.017 35.477, 45.472 36.913 C 46.047 38.722, 45.723 39, 43.042 39 C 38.933 39, 29.578 42.352, 24.727 45.562 C 17.585 50.288, 15.040 61.014, 19.801 66.318 C 21.256 67.938, 21.274 68.417, 19.967 70.702 C 19.144 72.141, 16.586 74.010, 14.141 74.958 C 8.729 77.058, 3.450 82.106, 1.967 86.600 C 0.592 90.767, 2.800 98.524, 6.296 101.809 C 16.382 111.283, 37.867 107.472, 50.345 93.994 C 54.847 89.132, 55.617 87.752, 55.246 85.222 C 54.741 81.781, 49.554 75, 47.427 75 C 46.642 75, 46 74.550, 46 74 C 46 73.450, 46.413 73, 46.918 73 C 47.423 73, 48.610 72.703, 49.555 72.341 C 50.750 71.882, 51.133 72.102, 50.812 73.063 C 50.304 74.588, 55.787 82.258, 59.439 85.130 C 60.718 86.137, 62.943 87.408, 64.382 87.955 C 68.239 89.422, 67.623 91.733, 63.007 93.116 C 60.811 93.774, 56.723 96.268, 53.923 98.659 C 51.122 101.049, 48.056 103.567, 47.110 104.253 C 46.164 104.939, 42.863 109.167, 39.775 113.648 L 34.160 121.796 39.994 121.267 C 44.552 120.854, 46.775 121.180, 50.164 122.759 C 52.549 123.871, 55.850 125.019, 57.500 125.309 C 62.748 126.233, 93.860 122.990, 102.172 120.653 C 105.102 119.829, 109.975 118.612, 113 117.949 C 116.025 117.285, 119.049 116.306, 119.721 115.773 C 120.393 115.240, 125.176 114.714, 130.350 114.606 C 139.175 114.421, 139.975 114.226, 143.266 111.454 C 145.196 109.829, 147.266 107.487, 147.866 106.250 C 149.422 103.041, 150.475 103.429, 153.301 108.251 C 156.860 114.324, 159.067 115.973, 164.860 116.889 C 171.681 117.967, 177.145 115.315, 180.740 109.181 C 182.512 106.158, 183.771 105.002, 184.892 105.373 C 185.776 105.666, 188.900 106.770, 191.834 107.827 C 196.068 109.353, 198.023 109.558, 201.314 108.818 C 206.245 107.710, 211.766 103.747, 213.037 100.402 C 213.540 99.081, 214.555 98, 215.294 98 C 219.753 98, 227.527 94.536, 230.608 91.176 L 233.979 87.500 238.239 89.753 C 245.632 93.661, 252.989 91.991, 257.006 85.491 C 258.899 82.428, 259.333 80.271, 259.408 73.558 C 259.492 66.089, 259.257 65.045, 256.748 61.746 C 255.234 59.756, 252.385 57.545, 250.416 56.833 C 246.886 55.557, 246.843 55.475, 247.408 51.019 C 249.186 37.005, 249.162 35.582, 247.093 32.288 C 245.849 30.307, 243.816 28.734, 241.788 28.183 C 239.727 27.622, 238.638 26.768, 238.869 25.894 C 239.653 22.930, 239.535 14.382, 238.677 12 C 237.862 9.740, 237.506 7.957, 237.128 4.250 C 236.849 1.521, 235 3.202, 235 6.184 C 235 7.936, 234.083 11.263, 232.962 13.579 C 230.520 18.623, 226.681 20.578, 221.233 19.555 C 219.180 19.169, 217.050 18.909, 216.500 18.978 C 215.950 19.046, 212.982 19.226, 209.904 19.378 C 204.570 19.642, 204.258 19.522, 203.236 16.815 C 202.036 13.636, 195.405 10.059, 190.644 10.022 C 186.456 9.990, 176.004 12.852, 172.185 15.077 L 168.871 17.009 164.685 14.579 C 162.383 13.242, 158.793 11.837, 156.708 11.455 C 154.554 11.061, 151.671 9.517, 150.035 7.881 C 147.705 5.551, 146.284 5, 142.608 5 C 138.979 5, 138.179 4.698, 138.638 3.500 C 139.752 0.597, 135.371 1.945, 132.136 5.500" fill="none" stroke="#000" stroke-width="2px" fill-rule="evenodd"/>
</svg>
