<svg xmlns="http://www.w3.org/2000/svg" width="500" height="375" viewBox="0 0 500 375" version="1.1">
	<path d="M 409.760 5.793 C 406.225 9.572, 404.833 12.669, 400.080 27.330 C 391.537 53.678, 388.885 68.999, 389.115 90.683 C 389.265 104.886, 389.115 106.329, 387.305 108.139 C 385.520 109.924, 384.884 110, 380.635 108.930 C 378.051 108.279, 373.991 107.966, 371.611 108.235 C 368.393 108.597, 366.670 108.251, 364.892 106.883 C 363.576 105.872, 362.042 105.034, 361.482 105.022 C 360.922 105.010, 358.809 103.875, 356.785 102.500 C 353.633 100.358, 351.982 100, 345.253 100 C 340.478 100, 336.930 100.470, 336.200 101.200 C 335.346 102.054, 335 102.073, 335 101.267 C 335 100.644, 335.912 99.845, 337.027 99.492 C 340.199 98.485, 342.282 94.558, 341.509 91.041 C 340.836 87.978, 338.424 86.980, 336.450 88.947 C 334.784 90.607, 334.866 82.854, 336.541 80.297 C 338.376 77.497, 337.604 73.965, 335.183 74.079 C 334.142 74.128, 333.977 74.350, 334.750 74.662 C 337.414 75.737, 335.817 76.785, 332.244 76.306 C 327.921 75.726, 325.975 77.324, 324.091 83 C 323.452 84.925, 321.894 87.765, 320.629 89.310 C 318.744 91.614, 317.833 91.996, 315.584 91.432 C 314.074 91.053, 312.616 90.162, 312.343 89.452 C 311.489 87.227, 315.061 83.067, 319.520 81.094 C 321.875 80.053, 324.085 78.309, 324.430 77.219 C 324.776 76.130, 328.258 72.396, 332.167 68.922 C 339.128 62.735, 342.932 56.895, 342.978 52.323 C 343.006 49.564, 338.539 45.990, 335.115 46.032 C 331.249 46.079, 329.386 47.962, 326.153 55.088 C 324.553 58.614, 321.839 62.822, 320.122 64.437 C 318.405 66.052, 317 67.913, 317 68.570 C 317 69.228, 316.100 70.002, 315 70.290 C 313.900 70.577, 312.984 71.642, 312.965 72.656 C 312.945 73.670, 312.364 75.518, 311.673 76.762 C 310.556 78.773, 310.425 78.364, 310.494 73.078 C 310.545 69.150, 311.114 66.514, 312.167 65.315 C 313.045 64.317, 314.014 61.025, 314.321 58 C 314.627 54.975, 315.018 51.600, 315.189 50.500 C 315.429 48.959, 314.937 48.500, 313.045 48.500 C 310.981 48.500, 310.461 49.138, 309.784 52.500 C 309.341 54.700, 308.083 57.247, 306.989 58.160 C 305.616 59.307, 305 61.051, 305 63.795 C 305 66.905, 304.469 68.118, 302.560 69.369 C 300.234 70.893, 300.024 70.845, 298.063 68.353 C 296.932 66.915, 295.566 64.110, 295.027 62.119 C 294.488 60.129, 292.266 56.250, 290.089 53.500 C 283.483 45.155, 281.892 43.874, 278.539 44.202 C 273.678 44.678, 273.934 48.152, 279.249 53.836 C 281.672 56.426, 284.494 60.447, 285.520 62.773 C 286.721 65.495, 288.028 67, 289.192 67 C 290.187 67, 291 67.685, 291 68.522 C 291 69.360, 292.800 71.997, 295 74.384 C 301.390 81.317, 299.989 84.238, 292 80.639 C 284.317 77.179, 272.125 75.855, 270.574 78.314 C 269.251 80.411, 264.243 72.383, 263.346 66.728 C 261.821 57.108, 256.658 50.575, 247.127 46.205 C 242.557 44.109, 240.850 43.835, 235.705 44.373 C 232.378 44.721, 228.187 45.872, 226.392 46.931 C 223.625 48.564, 222.950 48.644, 221.967 47.461 C 221.330 46.692, 218.843 44.965, 216.441 43.623 C 212.724 41.545, 210.990 41.226, 204.787 41.479 C 200.779 41.642, 196.687 41.346, 195.693 40.822 C 193.457 39.642, 184.035 39.090, 182 40.020 C 171.377 44.875, 169.183 46.868, 165.754 54.778 C 163.278 60.491, 163.130 61.506, 164.107 66.065 C 165.015 70.298, 164.921 71.471, 163.502 73.637 C 162.235 75.570, 161.209 76.082, 159.321 75.721 C 157.944 75.458, 155.489 75.744, 153.864 76.357 C 151.470 77.261, 150.732 77.191, 149.970 75.986 C 149.141 74.675, 149.028 74.676, 149.005 76 C 148.991 76.825, 147.297 78.272, 145.240 79.217 C 143.183 80.161, 140.825 81.346, 140 81.850 C 139.175 82.354, 137.150 83.166, 135.500 83.655 C 132.645 84.502, 132.464 84.881, 131.762 91.522 C 130.171 106.580, 130.155 108.744, 131.612 111.553 C 133.196 114.607, 132.638 115.448, 128.250 116.617 C 127.012 116.947, 126 117.566, 126 117.992 C 126 118.418, 125.100 119.002, 124 119.290 C 122.900 119.577, 122 120.530, 122 121.406 C 122 122.360, 121.154 123, 119.893 123 C 118.514 123, 117.969 123.476, 118.315 124.378 C 118.606 125.136, 118.339 126.261, 117.723 126.877 C 117.028 127.572, 116.516 133.223, 116.376 141.749 C 116.185 153.353, 115.890 155.656, 114.485 156.500 C 106.417 161.346, 99.240 168.044, 96.500 173.284 C 93.133 179.724, 91.289 181.306, 85.263 182.929 C 75.260 185.623, 68.071 194.867, 67.794 205.392 C 67.630 211.647, 68.127 211.084, 60.117 214.085 C 51.419 217.344, 46.728 224.771, 46.826 235.130 L 46.889 241.874 39.986 241.296 C 30.889 240.533, 25.186 242.204, 19.346 247.344 C 13.282 252.682, 11.050 257.719, 11.022 266.128 C 11.006 271.062, 10.576 273.106, 9.342 274.128 C 6.322 276.627, 4.044 283.236, 4.044 289.500 C 4.044 296.711, 6.108 301.693, 11.842 308.318 C 16.576 313.788, 16.776 314.991, 13.993 321.282 C 9.008 332.553, 10.896 342.973, 19.487 351.597 C 25.459 357.593, 32.121 360.254, 40.191 359.867 C 45.384 359.618, 52.824 362.288, 54.502 365.003 C 55.437 366.517, 68.500 365.331, 72.663 363.355 C 74.584 362.444, 77.358 360.191, 78.828 358.349 C 80.297 356.507, 81.747 355, 82.049 355 C 82.351 355, 83.191 356.639, 83.915 358.643 C 85.736 363.677, 92.626 370.279, 97.616 371.770 C 109.262 375.250, 118.522 371.104, 125.179 359.429 C 126.455 357.190, 129.075 353.546, 131 351.332 C 133.908 347.987, 135.322 347.196, 139.356 346.657 C 145.834 345.793, 153.271 341.604, 158.348 335.960 L 162.500 331.346 167.381 333.590 C 170.237 334.903, 174.109 337.945, 176.714 340.924 C 183.241 348.385, 189.074 351.496, 196.500 351.479 C 204.256 351.460, 210.186 348.596, 217.396 341.387 C 224.692 334.091, 226.799 328.214, 224.695 321.036 L 223.235 316.055 228.968 316.654 C 232.488 317.022, 236.160 316.772, 238.481 316.006 C 243.222 314.442, 249.881 308.514, 251.653 304.282 C 253.218 300.543, 253.425 290.968, 252.044 286.153 C 251.199 283.208, 251.287 282.900, 252.794 283.512 C 253.732 283.893, 257.311 284.445, 260.748 284.739 C 268.270 285.382, 274.515 283.337, 279.912 278.461 L 283.516 275.205 289.508 276.759 C 297.103 278.730, 303.218 277.882, 309.323 274.010 C 317.135 269.056, 323 258.999, 323 250.557 C 323 248.216, 323.358 248, 327.250 247.999 C 333.928 247.998, 346.097 245.117, 350.645 242.460 C 355.488 239.631, 359.694 234.930, 361.793 230 C 363.396 226.235, 363.863 217.220, 362.686 212.750 C 362.154 210.729, 362.328 210, 363.342 210 C 364.298 210, 364.886 211.801, 365.254 215.863 C 366.215 226.458, 371.417 234.460, 380.500 239.314 C 386.537 242.540, 396.636 242.258, 404.500 238.644 C 407.800 237.128, 411.625 234.869, 413 233.626 C 414.375 232.382, 416.761 230.581, 418.303 229.624 C 419.845 228.667, 421.030 227.123, 420.938 226.192 C 420.594 222.736, 421.093 222.500, 428.750 222.500 C 435.377 222.500, 437.168 222.107, 441.113 219.788 C 453.319 212.612, 459.192 198.575, 454.592 187.567 L 453.184 184.197 457.858 187.102 C 472.389 196.135, 488.551 191.306, 495.483 175.858 C 497.800 170.695, 498.166 168.765, 497.732 163.983 C 496.671 152.277, 489.748 142.937, 479.174 138.944 C 472.141 136.288, 463.508 136.680, 457.107 139.945 L 452.773 142.157 450.136 139.801 C 445.469 135.630, 439.146 131, 438.118 131 C 437.568 131, 436.822 130.522, 436.461 129.937 C 435.658 128.638, 438.780 125, 440.697 125 C 441.460 125, 443.003 124.143, 444.128 123.096 C 446.361 121.015, 447.421 122.051, 432.578 111.811 C 431.966 111.389, 432.292 110.335, 433.421 109.087 C 435.214 107.106, 435.837 99.226, 434.529 95.083 C 434.169 93.946, 435.313 92.971, 438.588 91.620 C 441.337 90.487, 443.491 88.838, 444.012 87.467 C 444.488 86.217, 445.359 84.896, 445.949 84.531 C 448.499 82.956, 440.316 76.281, 437.268 77.451 C 436.308 77.819, 436.089 78.958, 436.529 81.301 C 437.286 85.341, 436.405 86.177, 429 88.439 C 425.975 89.363, 422.937 90.355, 422.249 90.643 C 421.468 90.971, 421.208 90.621, 421.557 89.711 C 421.974 88.626, 421.517 88.370, 419.764 88.705 C 418.348 88.975, 416.434 88.362, 414.956 87.163 C 412.610 85.261, 412.504 84.686, 412.588 74.336 C 412.680 63.045, 414.044 56.234, 419.963 37.500 C 422.500 29.470, 422.726 27.689, 422.058 20.973 C 421.310 13.454, 420.166 10.128, 417.133 6.657 C 414.014 3.089, 412.459 2.907, 409.760 5.793 M 336.574 110.880 C 336.119 111.616, 334.839 111.925, 333.568 111.606 C 331.592 111.111, 331.401 111.371, 331.790 114.025 C 332.198 116.799, 335 118.402, 335 115.860 C 335 115.233, 335.737 114.182, 336.638 113.523 C 337.538 112.864, 338.071 111.712, 337.821 110.962 C 337.457 109.870, 337.208 109.854, 336.574 110.880 M 346.686 116.124 L 342.873 120 345.496 120 C 346.955 120, 350.155 118.446, 352.704 116.500 C 355.225 114.575, 356.660 112.994, 355.894 112.986 C 355.127 112.979, 353.600 112.809, 352.500 112.610 C 351.195 112.373, 349.176 113.593, 346.686 116.124 M 397 120.515 C 397 120.798, 397.751 123.730, 398.668 127.030 C 400.051 132.004, 400.140 133.882, 399.188 138.007 C 396.892 147.951, 389.625 155.077, 380.250 156.576 C 377.913 156.950, 376 157.350, 376 157.465 C 376 157.580, 377.865 159.635, 380.144 162.031 C 385.427 167.585, 388.919 175.215, 389.327 182.098 L 389.647 187.500 393.574 188.103 C 395.733 188.434, 398.767 189.222, 400.315 189.853 C 404.009 191.358, 403.655 191.530, 405.681 187.250 C 406.656 185.188, 409.384 181.621, 411.742 179.325 L 416.030 175.149 414.015 170.038 C 410.231 160.437, 411.789 148.865, 418.236 138.692 C 419.926 136.025, 420.886 133.543, 420.392 133.120 C 411.383 125.404, 397 117.653, 397 120.515 M 310 151.275 C 310 152.205, 311.797 153.424, 314.554 154.364 C 319.097 155.912, 319.106 155.910, 318.430 153.708 C 317.545 150.828, 317.794 151.003, 313.624 150.326 C 310.776 149.864, 310 150.067, 310 151.275" fill="none" stroke="#000" stroke-width="2px" fill-rule="evenodd"/>
</svg>
