<svg xmlns="http://www.w3.org/2000/svg" width="279" height="239" viewBox="0 0 279 239" version="1.1">
	<path d="M 229 2.831 C 227.075 3.749, 223.394 5.962, 220.820 7.750 C 218.246 9.537, 215.243 11, 214.147 11 C 212.024 11, 206 15.533, 206 17.131 C 206 17.655, 205.100 19.050, 204 20.230 C 202.900 21.411, 201.963 23.305, 201.919 24.439 C 201.874 25.572, 201.717 27.850, 201.569 29.500 C 201.421 31.150, 201.675 34.960, 202.133 37.967 C 203.196 44.943, 201.675 46.913, 199.462 41.427 C 196.179 33.287, 192.996 27, 192.157 27 C 191.679 27, 189.225 25.425, 186.704 23.500 C 184.183 21.575, 181.305 20.024, 180.310 20.052 C 178.738 20.098, 178.795 20.311, 180.750 21.674 C 181.988 22.538, 183 24.148, 183 25.253 C 183 28.427, 176.738 26.899, 171.925 22.551 C 169.075 19.976, 167.076 19, 164.654 19 C 162.817 19, 159.331 17.889, 156.907 16.530 C 146.728 10.825, 144.985 10, 143.111 10 C 142.029 10, 140.454 10.689, 139.612 11.531 C 138.238 12.905, 137.707 12.905, 134.419 11.531 C 129.506 9.478, 124.853 9.603, 119.739 11.924 C 117.408 12.983, 114.027 14.146, 112.226 14.509 C 110.425 14.872, 107.564 16.337, 105.869 17.764 C 104.173 19.191, 101.395 21.065, 99.697 21.929 C 96.457 23.577, 93.197 28.212, 93.073 31.346 C 93.033 32.361, 92.116 34.433, 91.035 35.951 C 89.256 38.450, 88.084 42.147, 86.471 50.353 C 85.944 53.036, 85.692 53.165, 82.240 52.517 C 80.221 52.138, 77.246 51.144, 75.628 50.308 C 73.753 49.338, 69.573 48.735, 64.094 48.644 L 55.500 48.500 55.810 51 C 55.980 52.375, 56.363 55.409, 56.660 57.743 C 57.326 62.975, 55.741 63.914, 50.069 61.644 C 47.386 60.571, 46.026 60.421, 45.776 61.171 C 45.515 61.954, 43.748 61.983, 39.621 61.272 C 34.966 60.470, 33.729 60.542, 33.309 61.637 C 32.641 63.379, 29.174 63.377, 24.872 61.633 C 23.017 60.881, 19.025 59.997, 16 59.668 L 10.500 59.071 16.750 64.816 C 20.188 67.975, 23 70.885, 23 71.282 C 23 71.680, 24.647 73.558, 26.660 75.457 C 29.451 78.089, 30.062 79.221, 29.231 80.222 C 27.705 82.060, 30.404 85.246, 35.750 87.917 C 40.382 90.231, 40.933 91.341, 38.250 92.950 C 36.602 93.937, 36.614 94.086, 38.441 95.499 C 39.509 96.325, 41.141 97, 42.069 97 C 42.996 97, 44.314 97.674, 44.997 98.497 C 45.681 99.320, 48.323 100.629, 50.870 101.405 C 57.698 103.485, 62.496 105.688, 63.910 107.391 C 64.597 108.220, 66.688 109.402, 68.556 110.019 C 74.663 112.034, 81.103 125, 75.997 125 C 75.034 125, 73.685 124.325, 73 123.500 C 72.315 122.675, 71.023 122, 70.128 122 C 69.232 122, 67.225 120.401, 65.666 118.448 C 63.390 115.596, 62.553 115.126, 61.421 116.066 C 60.645 116.709, 59.019 116.977, 57.807 116.660 C 56.596 116.343, 55.050 116.544, 54.373 117.106 C 53.695 117.668, 50.764 118.305, 47.859 118.521 C 41.675 118.982, 31.818 122.439, 29.552 124.942 C 28.102 126.545, 28.138 126.906, 29.985 129.253 C 31.093 130.663, 32 132.932, 32 134.296 C 32 136.327, 31.382 136.893, 28.597 137.416 C 26.725 137.767, 24.955 138.675, 24.664 139.433 C 24.373 140.191, 22.728 141.121, 21.008 141.498 C 18.994 141.941, 17.554 143.043, 16.965 144.593 C 16.251 146.471, 15.317 147, 12.716 147 C 10.882 147, 8.509 147.661, 7.441 148.468 C 6.374 149.276, 4.713 149.951, 3.750 149.968 C 0.211 150.033, 2.144 151.835, 7 153 C 9.750 153.660, 12 154.514, 12 154.899 C 12 155.284, 13.600 156.177, 15.555 156.884 C 17.510 157.591, 18.933 158.694, 18.717 159.335 C 18.112 161.130, 21.138 162.933, 24.817 162.968 C 27.645 162.995, 28.043 163.288, 27.516 164.949 C 26.920 166.827, 27.340 166.879, 38.949 166.375 C 49.279 165.926, 51 166.068, 51 167.367 C 51 168.200, 50.604 169.127, 50.119 169.426 C 48.271 170.568, 48.243 175.708, 50.057 180.885 C 51.893 186.126, 51.894 186.340, 50.096 188.885 C 49.080 190.323, 47.933 192.957, 47.547 194.739 C 47.162 196.520, 46.431 198.234, 45.923 198.548 C 44.279 199.564, 45.329 216, 47.039 216 C 47.461 216, 49.987 213.789, 52.653 211.086 C 55.319 208.384, 58.513 205.878, 59.750 205.519 C 61.736 204.942, 62 205.225, 62 207.930 C 62 211.531, 67.889 218.683, 71.628 219.622 C 72.939 219.950, 74 220.964, 74 221.886 C 74 227.370, 87.973 235.089, 90.500 231 C 91.509 229.368, 94.288 229.807, 93.640 231.496 C 92.846 233.565, 99.589 236.849, 103.500 236.299 C 107.843 235.688, 108.800 234.255, 105.663 233.062 C 104.198 232.505, 103 231.588, 103 231.025 C 103 229.465, 104.465 229.791, 107.231 231.967 C 108.607 233.049, 109.994 233.673, 110.313 233.353 C 110.633 233.034, 112.064 233.692, 113.493 234.816 C 116.423 237.121, 121.499 236.874, 126.159 234.201 C 128.586 232.809, 128.973 232.830, 130.588 234.446 C 132.852 236.709, 139.125 236.023, 143.113 233.075 C 144.656 231.934, 146.816 231, 147.912 231 C 150.417 231, 155 228.956, 155 227.839 C 155 227.378, 155.865 227, 156.923 227 C 157.981 227, 160.231 225.835, 161.923 224.411 C 163.615 222.987, 165 222.118, 165 222.479 C 165 222.841, 166.355 222.171, 168.012 220.992 C 169.668 219.812, 170.746 218.398, 170.407 217.850 C 170.068 217.301, 170.686 215.873, 171.780 214.676 C 172.875 213.479, 174.100 211.375, 174.503 210 C 174.907 208.625, 175.766 206.825, 176.414 206 C 178.158 203.777, 181.261 194.231, 180.591 193.147 C 180.272 192.631, 180.704 191.944, 181.551 191.619 C 185.933 189.937, 187.118 178.067, 183.335 173.753 C 181.558 171.727, 181.558 171.682, 183.332 172.330 C 184.339 172.699, 185.524 173, 185.965 173 C 186.406 173, 186.987 173.844, 187.257 174.875 C 187.588 176.141, 188.650 176.750, 190.525 176.750 C 192.149 176.750, 193.967 177.608, 194.901 178.814 C 195.781 179.950, 197.742 181.181, 199.259 181.550 C 200.777 181.919, 202.250 182.596, 202.533 183.053 C 202.815 183.510, 205.097 184.192, 207.603 184.568 C 210.176 184.954, 213.253 186.246, 214.669 187.537 C 216.048 188.794, 217.682 190.227, 218.298 190.721 C 219.636 191.793, 226.610 190.851, 229.684 189.184 C 230.886 188.533, 233.270 188, 234.984 188 C 236.697 188, 239.344 187.356, 240.865 186.570 C 243.780 185.063, 248.337 179.061, 249.473 175.233 C 249.843 173.986, 251.910 172.066, 254.067 170.966 C 256.224 169.866, 257.902 168.636, 257.796 168.233 C 257.201 165.966, 259.339 163, 261.567 163 C 262.905 163, 264 162.520, 264 161.933 C 264 161.336, 263.155 161.133, 262.083 161.474 C 260.530 161.967, 260.267 161.695, 260.700 160.041 C 260.993 158.918, 262.058 158, 263.065 158 C 264.073 158, 266.111 156.875, 267.595 155.500 C 270.830 152.502, 269.872 152.169, 266.236 155.029 C 262.700 157.810, 260.824 156.034, 263.263 152.215 C 264.217 150.722, 265.546 148.262, 266.218 146.750 C 266.889 145.237, 268.015 144, 268.719 144 C 269.424 144, 270.034 143.662, 270.077 143.250 C 270.119 142.838, 270.303 141.721, 270.485 140.769 C 270.668 139.817, 269.926 137.904, 268.836 136.519 C 267.746 135.133, 267.316 134, 267.881 134 C 269.174 134, 271.225 129.234, 273.262 121.500 C 274.130 118.200, 275.406 113.641, 276.095 111.370 C 277.208 107.705, 277.115 106.690, 275.274 102.370 C 274.133 99.691, 272.745 94.575, 272.189 91 C 270.348 79.167, 265.550 71.045, 256.906 65.129 C 251.432 61.382, 249.420 60.611, 243.074 59.822 C 238.989 59.315, 235.343 58.712, 234.972 58.482 C 234.600 58.253, 232.559 58.950, 230.436 60.032 C 222.729 63.962, 221.647 61.733, 228.750 56.560 C 235.549 51.608, 243.238 48.047, 251.137 46.193 C 254.912 45.308, 258 44.227, 258 43.791 C 258 42.572, 240.097 42.855, 236.071 44.139 C 229.985 46.079, 227.962 47.291, 220.878 53.239 C 217.104 56.407, 213.514 59, 212.900 59 C 211.167 59, 212.559 54.957, 216.980 47.156 C 221.372 39.405, 223.166 35.037, 225.053 27.500 C 225.741 24.750, 226.980 21.713, 227.807 20.751 C 228.633 19.788, 229.407 16.863, 229.527 14.251 C 229.759 9.166, 231.212 4.605, 232.938 3.538 C 234.149 2.790, 234.382 0.959, 233.250 1.081 C 232.838 1.125, 230.925 1.913, 229 2.831" fill="none" stroke="#000" stroke-width="2px" fill-rule="evenodd"/>
</svg>
