<svg xmlns="http://www.w3.org/2000/svg" width="276" height="245" viewBox="0 0 276 245" version="1.1">
	<path d="M 155.029 6.970 C 148.038 14.148, 146.591 18.666, 147.248 31.268 C 147.882 43.419, 150.264 50.997, 155.702 58.156 C 159.882 63.661, 169.734 71.385, 177.500 75.247 C 185.236 79.093, 200.555 84.926, 205.978 86.089 C 214.528 87.922, 214.849 90.667, 207.107 95.735 C 201.384 99.482, 197.145 101.384, 191 102.965 C 188.525 103.602, 185.327 104.482, 183.893 104.921 C 180.829 105.858, 172.887 103.181, 169.611 100.106 C 166.003 96.719, 158.830 94.045, 153.288 94.022 C 147.744 93.999, 137.987 97.106, 135.969 99.538 C 135.301 100.342, 134.360 101, 133.878 101 C 132.206 101, 133.012 99.070, 135.740 96.540 C 137.247 95.143, 137.977 94, 137.362 94 C 136.748 94, 135.685 94.675, 135 95.500 C 132.884 98.049, 132 97.183, 132 92.559 C 132 90.116, 131.662 87.915, 131.250 87.667 C 130.838 87.419, 128.700 87.510, 126.500 87.871 C 122.780 88.480, 122.465 88.790, 122 92.296 C 121.427 96.616, 121.692 96.522, 114.594 94.934 C 111.583 94.260, 105.663 93.936, 101.139 94.198 C 90.577 94.810, 81.447 99.191, 71.211 108.561 C 62.639 116.408, 60.129 120.808, 59.327 129.400 L 58.737 135.718 53.119 137.478 C 44.719 140.110, 40.585 142.499, 36.823 146.894 C 33.601 150.658, 33.157 150.850, 27.965 150.734 C 24.278 150.651, 21.638 151.178, 19.850 152.355 C 16.147 154.792, 12 161.399, 12 164.864 C 12 166.885, 11.214 168.285, 9.416 169.463 C 7.995 170.394, 6.035 172.936, 5.061 175.112 C 4.087 177.287, 2.438 179.713, 1.395 180.502 C 0.308 181.325, 0.033 181.950, 0.750 181.968 C 1.526 181.988, 2 183.448, 2 185.820 C 2 190.235, 6.811 196.690, 11.961 199.184 L 15.020 200.666 11.572 203.120 C 6.822 206.499, 3.979 210.357, 3.341 214.286 C 2.619 218.734, 6.065 225.923, 11.099 230.471 C 16.024 234.920, 20.707 235.141, 29.208 231.326 C 34.164 229.102, 35.304 228.892, 35.981 230.076 C 41.377 239.511, 44.309 242.080, 50.369 242.685 C 53.625 243.009, 55.582 242.464, 59.607 240.110 C 65.643 236.580, 68.139 232.167, 68.016 225.243 C 67.898 218.608, 68.998 213, 70.418 213 C 73.158 213, 74.934 215.621, 75.161 220 C 75.370 224.021, 75.984 225.069, 80.935 229.849 L 86.475 235.199 93.346 234.811 C 99.933 234.438, 100.378 234.249, 104.144 230.211 C 106.305 227.895, 108.731 226, 109.536 226 C 111.486 226, 111.408 224.370, 109.420 223.608 C 107.546 222.889, 108.305 217.436, 110.617 215.020 C 111.856 213.723, 112.310 213.720, 114.266 214.989 C 115.495 215.786, 119.425 216.770, 123 217.175 C 126.575 217.580, 131.128 218.199, 133.118 218.550 C 139.503 219.676, 146.589 213.798, 148.548 205.750 C 149.332 202.527, 149.343 202.524, 152.512 204.600 C 158.267 208.371, 166.406 205.583, 171.057 198.249 C 175.139 191.813, 174.740 185.568, 169.918 180.419 C 168.060 178.435, 168.051 178.266, 169.734 176.803 C 170.706 175.959, 172.625 174.987, 174 174.643 C 178.705 173.466, 179.565 172.425, 178.099 169.684 C 175.738 165.273, 177.265 163.500, 183.422 163.500 C 188.052 163.500, 189.316 163.071, 191.853 160.640 C 193.495 159.068, 195.110 156.699, 195.442 155.376 L 196.045 152.971 200.484 156.235 C 202.925 158.031, 204.940 159.780, 204.961 160.121 C 204.982 160.463, 203.313 162.618, 201.250 164.909 C 198.584 167.872, 195.375 169.932, 190.146 172.038 C 186.102 173.667, 182.191 175, 181.455 175 C 180.720 175, 179.797 175.520, 179.404 176.156 C 178.880 177.003, 180.211 177.155, 184.392 176.723 C 191.779 175.961, 197.807 172.393, 202.493 166.010 C 206.722 160.248, 204.735 159.640, 218.232 170.829 C 224.262 175.828, 226.186 178.097, 227.389 181.627 C 229.111 186.681, 229.532 186.285, 220.551 188.053 C 209.149 190.298, 207.391 192.454, 214.974 194.893 C 218.329 195.972, 220.790 196.060, 225.902 195.286 C 232.117 194.345, 232.664 194.424, 235.324 196.641 L 238.147 198.995 245.027 192.836 C 249.522 188.811, 253.458 184.047, 256.384 179.088 C 262.044 169.499, 263 166.940, 263 161.376 C 263 158.635, 263.390 157.123, 264 157.500 C 265.407 158.370, 265.241 164.113, 263.528 173.849 C 262.102 181.952, 261.837 182.474, 254.544 191.542 C 246.565 201.462, 245.948 202.020, 236.318 208.015 C 228.893 212.637, 226.107 216.219, 228.083 218.601 C 231.047 222.171, 246.109 216.239, 251.553 209.359 C 256.498 203.108, 269.503 176.220, 270.973 169.208 C 272.658 161.164, 271.565 157.229, 264.903 147.357 C 262.207 143.360, 260 139.620, 260 139.045 C 260 138.470, 261.238 137.998, 262.750 137.995 C 269.325 137.983, 274.874 127.863, 272.968 119.359 C 271.426 112.474, 267.041 105.148, 260.500 98.524 C 255.607 93.568, 253.236 92.010, 247.645 90.077 C 241.498 87.951, 239.691 87.769, 230.141 88.316 L 219.492 88.925 219.814 84.713 C 220.872 70.886, 203.588 57.831, 191.695 63.474 C 188.237 65.116, 187.878 65.098, 182.317 63.018 C 179.137 61.828, 172.567 58.804, 167.716 56.299 C 154.890 49.675, 148.994 41.429, 149.006 30.128 C 149.013 22.241, 150.412 18.118, 154.636 13.537 C 164.081 3.290, 164.440 -2.691, 155.029 6.970 M 191.004 65.623 C 191.006 66.105, 192.976 67.309, 195.382 68.299 C 200.209 70.283, 211.027 80.610, 214.325 86.380 C 216.778 90.673, 217.597 90.889, 218.260 87.420 C 219.636 80.224, 214.854 72.544, 206.433 68.424 C 200.916 65.724, 190.996 63.924, 191.004 65.623 M 229 90.892 C 229 91.382, 230.238 92.091, 231.750 92.467 C 236.123 93.554, 242.306 97.898, 245.190 101.910 C 248.747 106.858, 252 116.825, 252 122.773 C 252 126.394, 252.730 128.760, 254.909 132.195 L 257.818 136.782 263.659 133.842 C 266.872 132.225, 269.635 130.518, 269.801 130.049 C 270.523 127.999, 255.303 105.904, 246.519 96.250 L 240.832 90 234.916 90 C 231.662 90, 229 90.401, 229 90.892 M 218.500 94.441 C 216.850 95.206, 213.925 96.424, 212 97.147 L 208.500 98.462 213.956 99.252 C 219.932 100.118, 229.974 105.148, 236.750 110.671 C 239.088 112.575, 240.996 113.766, 240.991 113.317 C 240.972 111.654, 235.012 102.365, 231.316 98.238 C 227.003 93.421, 223.157 92.281, 218.500 94.441 M 140.289 99.240 C 136.456 101.166, 134.274 103.608, 135.390 104.723 C 135.630 104.963, 136.878 104.474, 138.163 103.635 C 139.448 102.796, 143.637 101.610, 147.471 101 C 151.305 100.390, 154.610 99.723, 154.815 99.518 C 155.298 99.035, 147.957 96.994, 146 97.068 C 145.175 97.099, 142.605 98.076, 140.289 99.240 M 97.608 102.522 C 84.391 106.151, 71.148 116.327, 65.504 127.191 C 63.878 130.321, 62.811 133.145, 63.133 133.467 C 63.455 133.789, 67.270 132.590, 71.609 130.803 C 78.835 127.828, 80.419 127.552, 90.418 127.527 L 101.335 127.500 105.970 121.641 C 111.056 115.210, 113.604 113.451, 119.248 112.474 L 122.996 111.825 122.414 107.662 C 122.095 105.373, 121.660 102.938, 121.448 102.250 C 120.923 100.546, 104.108 100.737, 97.608 102.522 M 205.500 102.655 C 204.400 102.888, 202.375 103.350, 201 103.683 L 198.500 104.287 201 105.044 C 202.375 105.460, 205.750 105.852, 208.500 105.915 C 211.250 105.978, 216.378 106.708, 219.895 107.537 C 227.340 109.292, 228.860 108.821, 223.358 106.465 C 213.264 102.141, 210.608 101.575, 205.500 102.655 M 143.075 104.306 C 139.020 105.719, 138.076 107.572, 140.945 108.483 C 144.217 109.521, 143.337 110.957, 140.013 110.004 C 138.371 109.533, 136.804 109.508, 136.531 109.950 C 136.258 110.391, 136.136 115.014, 136.260 120.223 L 136.484 129.693 139.030 126.968 C 142.608 123.138, 152.135 118.599, 161.249 116.384 C 165.511 115.348, 168.998 114.143, 168.999 113.707 C 169 113.271, 166.913 110.684, 164.363 107.957 L 159.726 103 153.113 103.056 C 149.476 103.087, 144.959 103.650, 143.075 104.306 M 190.693 109.750 C 190.459 110.162, 192.457 112.194, 195.134 114.265 C 200.523 118.435, 201.760 117.246, 197.411 112.077 C 194.989 109.198, 191.660 108.045, 190.693 109.750 M 181.675 112.658 C 180.506 113.828, 183.172 116, 185.777 116 C 188.247 116, 188.265 115.950, 186.500 114 C 184.661 111.968, 182.865 111.468, 181.675 112.658 M 162.500 122.758 L 157.500 125.447 164 126.089 C 167.575 126.443, 171.767 127.242, 173.315 127.866 C 178.374 129.904, 179.158 129.381, 176.866 125.497 C 174.469 121.435, 174.449 121.420, 170.500 120.652 C 168.340 120.232, 166.099 120.822, 162.500 122.758 M 151.750 122.162 C 150.238 122.715, 149 123.591, 149 124.109 C 149 124.627, 150.350 124.353, 152 123.500 C 153.650 122.647, 155 121.735, 155 121.474 C 155 121.213, 154.887 121.036, 154.750 121.079 C 154.613 121.122, 153.262 121.610, 151.750 122.162 M 121.088 126.373 C 119.283 128.995, 117.963 131.269, 118.154 131.427 C 118.344 131.584, 120.631 132.511, 123.236 133.487 C 125.841 134.463, 128.483 135.877, 129.108 136.630 C 130.606 138.436, 132 138.373, 132 136.500 C 132 135.675, 131.357 135, 130.572 135 C 129.375 135, 127.052 130.174, 124.822 123.052 C 124.526 122.107, 123.229 123.260, 121.088 126.373 M 188.336 128.432 C 188.701 129.384, 189 130.811, 189 131.603 C 189 132.395, 190.238 133.554, 191.750 134.179 C 193.262 134.804, 196.931 136.376, 199.902 137.672 C 202.874 138.968, 205.478 139.855, 205.690 139.644 C 205.902 139.432, 205.537 138.078, 204.880 136.636 C 203.654 133.945, 195.332 128.623, 190.424 127.391 C 188.087 126.805, 187.771 126.962, 188.336 128.432 M 233.686 134.673 C 235.142 137.878, 237.023 141.571, 237.867 142.881 L 239.402 145.262 240.625 141.881 C 242.996 135.326, 242.474 133.704, 237.280 131.500 C 234.688 130.400, 232.223 129.353, 231.804 129.173 C 231.384 128.994, 232.231 131.469, 233.686 134.673 M 162.017 132.031 C 163.395 134.607, 170.963 140.141, 172.125 139.423 C 173.756 138.415, 173.011 137.276, 168.336 133.634 C 163.004 129.480, 160.282 128.789, 162.017 132.031 M 209 138.809 C 209 140.293, 211.462 142.655, 215.250 144.805 C 219.453 147.190, 219.713 147.018, 217.352 143.414 C 215.221 140.162, 209 136.732, 209 138.809 M 249.496 144.374 C 248.566 147.329, 246.980 151.005, 245.972 152.543 C 244.167 155.294, 244.178 155.417, 246.619 160.236 C 247.984 162.929, 249.641 164.961, 250.301 164.750 C 254.060 163.552, 256.620 143.763, 253.429 140.571 C 252.564 139.707, 251.706 139, 251.522 139 C 251.337 139, 250.426 141.418, 249.496 144.374 M 72.500 146.511 C 68.122 147.791, 67.587 148.706, 70.239 150.379 C 71.644 151.265, 72.500 150.955, 74.686 148.768 C 76.175 147.279, 77.193 145.899, 76.947 145.701 C 76.701 145.503, 74.700 145.868, 72.500 146.511 M 60.500 150.163 C 54.037 152.327, 43 157.406, 43 158.216 C 43 158.686, 43.621 160.067, 44.381 161.285 C 47.079 165.613, 47.093 168.528, 44.436 173.523 C 42.698 176.793, 42.222 178.622, 42.926 179.326 C 43.630 180.030, 44.445 179.117, 45.511 176.427 C 48.952 167.746, 51.422 162.952, 53.423 161.072 C 56.357 158.316, 62.287 156, 66.409 156 C 71.105 156, 71.851 154.266, 68.377 151.425 C 65.170 148.802, 64.759 148.736, 60.500 150.163 M 86.667 177.667 C 86.300 178.033, 86 178.798, 86 179.367 C 86 179.993, 86.466 179.934, 87.183 179.217 C 87.834 178.566, 88.134 177.801, 87.850 177.517 C 87.566 177.232, 87.033 177.300, 86.667 177.667 M 119.007 185.982 C 117.798 188.903, 118.169 192.029, 119.719 191.971 C 120.638 191.936, 127.352 185.963, 126.845 185.631 C 126.234 185.231, 120.917 183, 120.574 183 C 120.392 183, 119.687 184.342, 119.007 185.982" fill="none" stroke="#000" stroke-width="2px" fill-rule="evenodd"/>
</svg>
