<?xml version="1.0" encoding="utf-8"?>
<!-- Generator: Adobe Illustrator 17.0.0, SVG Export Plug-In . SVG Version: 6.00 Build 0)  -->
<!DOCTYPE svg PUBLIC "-//W3C//DTD SVG 1.1//EN" "http://www.w3.org/Graphics/SVG/1.1/DTD/svg11.dtd">
<svg version="1.1" xmlns="http://www.w3.org/2000/svg" xmlns:xlink="http://www.w3.org/1999/xlink" x="0px" y="0px" width="1200px"
	 height="150px" viewBox="0 0 1200 150" enable-background="new 0 0 1200 150" xml:space="preserve">
<g id="Слой_1">
	<circle stroke="#000000" stroke-miterlimit="10" cx="88.35" cy="59.934" r="4.954"/>
	<path fill="#F8F4C1" stroke="#FFED00" stroke-width="2" stroke-miterlimit="10" d="M72.383,67.25c0,0,13.749-47.745-2.724-62.162
		C64.463,0.54,47.805,16.153,42.502,25.346c-6,10.4-8.514,23.759-4.715,30.489C44.203,67.197,62.45,74.185,62.45,74.185
		L72.383,67.25z"/>
	<path fill="#F8F4C1" stroke="#FFED00" stroke-width="2" stroke-miterlimit="10" d="M62.45,74.185c0,0-20.758-13.191-33.495-13.951
		C15.428,59.428-1.454,72.394,4.596,85.374c5.556,11.92,34.377,15.285,34.377,15.285s12.019-14.605,14.312-16.801
		C55.695,81.551,62.45,74.185,62.45,74.185z"/>
	<path fill="none" stroke="#009640" stroke-width="3" stroke-miterlimit="10" d="M66.897,11.911c0,0-16.148,9.64-20.329,23.158
		c-4.26,13.772,4.691,25.197,4.691,25.197"/>
	<path fill="none" stroke="#009640" stroke-width="3" stroke-miterlimit="10" d="M74.018,25.22c0,0-13.523,4.101-19.023,13.199
		c-5.603,9.269,0.058,16.801,0.058,16.801"/>
	
		<ellipse transform="matrix(0.975 0.2222 -0.2222 0.975 11.6863 -13.6262)" fill="none" stroke="#009FE3" stroke-width="3" stroke-miterlimit="10" cx="66.401" cy="45.124" rx="5.25" ry="8.356"/>
	<circle fill="none" stroke="#E30613" stroke-width="3" stroke-miterlimit="10" cx="63.307" cy="63.474" r="4.249"/>
	
		<ellipse transform="matrix(0.9956 -0.0936 0.0936 0.9956 -7.3665 3.1016)" fill="#312783" stroke="#E30613" stroke-width="2" stroke-miterlimit="10" cx="29.388" cy="80.097" rx="15.864" ry="7.649"/>
	<path fill="#F8F4C1" stroke="#FFED00" stroke-width="2" stroke-miterlimit="10" d="M79.984,74.851c0,0,47.745-13.749,62.162,2.724
		c4.548,5.196-11.066,21.854-20.258,27.157c-10.4,6-23.759,8.514-30.489,4.715c-11.363-6.416-18.351-24.662-18.351-24.662
		L79.984,74.851z"/>
	<path fill="#F8F4C1" stroke="#FFED00" stroke-width="2" stroke-miterlimit="10" d="M73.048,84.784c0,0,13.191,20.758,13.951,33.495
		c0.807,13.526-12.159,30.408-25.139,24.358c-11.92-5.556-15.285-34.377-15.285-34.377S60.05,96.637,62.245,94.344
		C64.553,91.934,73.048,84.784,73.048,84.784z"/>
	<path fill="none" stroke="#009640" stroke-width="3" stroke-miterlimit="10" d="M135.323,80.336c0,0-9.64,16.148-23.158,20.329
		c-13.772,4.26-25.197-4.691-25.197-4.691"/>
	<path fill="none" stroke="#009640" stroke-width="3" stroke-miterlimit="10" d="M122.013,73.215c0,0-4.101,13.523-13.199,19.023
		c-9.269,5.603-16.801-0.058-16.801-0.058"/>
	
		<ellipse transform="matrix(-0.2222 -0.975 0.975 -0.2222 45.9867 198.3508)" fill="none" stroke="#009FE3" stroke-width="3" stroke-miterlimit="10" cx="102.11" cy="80.833" rx="5.25" ry="8.356"/>
	<circle fill="none" stroke="#E30613" stroke-width="3" stroke-miterlimit="10" cx="83.76" cy="83.927" r="4.249"/>
	
		<ellipse transform="matrix(0.0936 -0.9956 0.9956 0.0936 -56.4745 173.6596)" fill="#312783" stroke="#E30613" stroke-width="2" stroke-miterlimit="10" cx="67.137" cy="117.846" rx="15.864" ry="7.649"/>
	
		<ellipse transform="matrix(0.6909 0.7229 -0.7229 0.6909 81.6034 -16.0951)" fill="#575756" cx="59.625" cy="87.388" rx="8.826" ry="34.781"/>
	<path fill="none" stroke="#000000" stroke-miterlimit="10" d="M93.389,27.381c0,0,4.949,3.97,3.071,13.357
		c-1.958,9.786-6.808,14.421-6.808,14.421"/>
	<circle stroke="#000000" stroke-miterlimit="10" cx="91.581" cy="25.451" r="2.644"/>
	<path fill="none" stroke="#000000" stroke-miterlimit="10" d="M121.195,56.475c0,0-3.742-5.124-13.204-3.672
		c-9.864,1.513-14.715,6.149-14.715,6.149"/>
	<circle stroke="#000000" stroke-miterlimit="10" cx="123.041" cy="58.369" r="2.644"/>
</g>
<g id="Слой_1__x28_копия_x29_">
	<circle stroke="#000000" stroke-miterlimit="10" cx="238.392" cy="59.934" r="4.954"/>
	<path fill="#F8F4C1" stroke="#FFED00" stroke-width="2" stroke-miterlimit="10" d="M222.425,67.25c0,0,13.749-47.745-2.724-62.162
		c-5.196-4.548-21.854,11.066-27.157,20.258c-6,10.4-8.514,23.759-4.715,30.489c6.416,11.363,24.662,18.351,24.662,18.351
		L222.425,67.25z"/>
	<path fill="#F8F4C1" stroke="#FFED00" stroke-width="2" stroke-miterlimit="10" d="M212.491,74.185
		c0,0-20.758-13.191-33.495-13.951c-13.526-0.807-30.408,12.159-24.358,25.139c5.556,11.92,34.377,15.285,34.377,15.285
		s12.019-14.605,14.312-16.801C205.737,81.551,212.491,74.185,212.491,74.185z"/>
	<path fill="none" stroke="#009640" stroke-width="3" stroke-miterlimit="10" d="M216.939,11.911c0,0-16.148,9.64-20.329,23.158
		c-4.26,13.772,4.691,25.197,4.691,25.197"/>
	<path fill="none" stroke="#E30613" stroke-width="3" stroke-miterlimit="10" d="M224.06,25.22c0,0-13.523,4.101-19.023,13.199
		c-5.603,9.269,0.058,16.801,0.058,16.801"/>
	
		<ellipse transform="matrix(0.975 0.2222 -0.2222 0.975 15.4371 -46.965)" fill="none" stroke="#009FE3" stroke-width="3" stroke-miterlimit="10" cx="216.443" cy="45.124" rx="5.25" ry="8.356"/>
	<circle fill="none" stroke="#E30613" stroke-width="3" stroke-miterlimit="10" cx="213.349" cy="63.474" r="4.249"/>
	
		<ellipse transform="matrix(0.9956 -0.0936 0.0936 0.9956 -6.7081 17.1426)" fill="#312783" stroke="#E30613" stroke-width="2" stroke-miterlimit="10" cx="179.43" cy="80.097" rx="15.864" ry="7.649"/>
	<path fill="#F8F4C1" stroke="#FFED00" stroke-width="2" stroke-miterlimit="10" d="M230.025,74.851c0,0,47.745-13.749,62.162,2.724
		c4.548,5.196-11.066,21.854-20.258,27.157c-10.4,6-23.759,8.514-30.489,4.715c-11.363-6.416-18.351-24.662-18.351-24.662
		L230.025,74.851z"/>
	<path fill="#F8F4C1" stroke="#FFED00" stroke-width="2" stroke-miterlimit="10" d="M223.09,84.784c0,0,13.191,20.758,13.951,33.495
		c0.807,13.526-12.159,30.408-25.139,24.358c-11.92-5.556-15.285-34.377-15.285-34.377s13.475-11.623,15.671-13.916
		C214.595,91.934,223.09,84.784,223.09,84.784z"/>
	<path fill="none" stroke="#009640" stroke-width="3" stroke-miterlimit="10" d="M285.365,80.336c0,0-9.64,16.148-23.158,20.329
		c-13.772,4.26-25.197-4.691-25.197-4.691"/>
	<path fill="none" stroke="#E30613" stroke-width="3" stroke-miterlimit="10" d="M272.055,73.215c0,0-4.101,13.523-13.199,19.023
		c-9.269,5.603-16.801-0.058-16.801-0.058"/>
	
		<ellipse transform="matrix(-0.2222 -0.975 0.975 -0.2222 229.3672 344.6416)" fill="none" stroke="#009FE3" stroke-width="3" stroke-miterlimit="10" cx="252.152" cy="80.833" rx="5.25" ry="8.356"/>
	<circle fill="none" stroke="#E30613" stroke-width="3" stroke-miterlimit="10" cx="233.801" cy="83.927" r="4.249"/>
	
		<ellipse transform="matrix(0.0936 -0.9956 0.9956 0.0936 79.5262 323.0428)" fill="#312783" stroke="#E30613" stroke-width="2" stroke-miterlimit="10" cx="217.178" cy="117.846" rx="15.864" ry="7.649"/>
	
		<ellipse transform="matrix(0.6909 0.7229 -0.7229 0.6909 127.9776 -124.5642)" fill="#575756" cx="209.667" cy="87.388" rx="8.826" ry="34.781"/>
	<path fill="none" stroke="#000000" stroke-miterlimit="10" d="M243.431,27.381c0,0,4.949,3.97,3.071,13.357
		c-1.958,9.786-6.808,14.421-6.808,14.421"/>
	<circle stroke="#000000" stroke-miterlimit="10" cx="241.622" cy="25.451" r="2.644"/>
	<path fill="none" stroke="#000000" stroke-miterlimit="10" d="M271.237,56.475c0,0-3.742-5.124-13.204-3.672
		c-9.864,1.513-14.715,6.149-14.715,6.149"/>
	<circle stroke="#000000" stroke-miterlimit="10" cx="273.083" cy="58.369" r="2.644"/>
</g>
<g id="Слой_1_копия_2">
	<circle stroke="#000000" stroke-miterlimit="10" cx="388.185" cy="59.934" r="4.954"/>
	<path fill="#F8F4C1" stroke="#FFED00" stroke-width="2" stroke-miterlimit="10" d="M372.218,67.25c0,0,13.749-47.745-2.724-62.162
		c-5.196-4.548-21.854,11.066-27.157,20.258c-6,10.4-8.514,23.759-4.715,30.489c6.416,11.363,24.662,18.351,24.662,18.351
		L372.218,67.25z"/>
	<path fill="#F8F4C1" stroke="#FFED00" stroke-width="2" stroke-miterlimit="10" d="M362.284,74.185
		c0,0-20.758-13.191-33.495-13.951c-13.526-0.807-30.408,12.159-24.358,25.139c5.556,11.92,34.377,15.285,34.377,15.285
		s12.019-14.605,14.312-16.801C355.53,81.551,362.284,74.185,362.284,74.185z"/>
	<path fill="none" stroke="#009640" stroke-width="3" stroke-miterlimit="10" d="M366.732,11.911c0,0-16.148,9.64-20.329,23.158
		c-4.26,13.772,4.691,25.197,4.691,25.197"/>
	<path fill="none" stroke="#E30613" stroke-width="3" stroke-miterlimit="10" d="M373.853,25.22c0,0-13.523,4.101-19.023,13.199
		c-5.603,9.269,0.058,16.801,0.058,16.801"/>
	
		<ellipse transform="matrix(0.975 0.2222 -0.2222 0.975 19.1817 -80.2487)" fill="none" stroke="#E30613" stroke-width="3" stroke-miterlimit="10" cx="366.236" cy="45.124" rx="5.25" ry="8.356"/>
	<circle fill="none" stroke="#E30613" stroke-width="3" stroke-miterlimit="10" cx="363.142" cy="63.474" r="4.249"/>
	
		<ellipse transform="matrix(0.9956 -0.0936 0.0936 0.9956 -6.0508 31.1602)" fill="#312783" stroke="#E30613" stroke-width="2" stroke-miterlimit="10" cx="329.223" cy="80.097" rx="15.864" ry="7.649"/>
	<path fill="#F8F4C1" stroke="#FFED00" stroke-width="2" stroke-miterlimit="10" d="M379.818,74.851c0,0,47.745-13.749,62.162,2.724
		c4.548,5.196-11.066,21.854-20.258,27.157c-10.4,6-23.759,8.514-30.489,4.715c-11.363-6.416-18.351-24.662-18.351-24.662
		L379.818,74.851z"/>
	<path fill="#F8F4C1" stroke="#FFED00" stroke-width="2" stroke-miterlimit="10" d="M372.883,84.784
		c0,0,13.191,20.758,13.951,33.495c0.807,13.526-12.159,30.408-25.139,24.358c-11.92-5.556-15.285-34.377-15.285-34.377
		s13.475-11.623,15.671-13.916C364.388,91.934,372.883,84.784,372.883,84.784z"/>
	<path fill="none" stroke="#009640" stroke-width="3" stroke-miterlimit="10" d="M435.158,80.336c0,0-9.64,16.148-23.158,20.329
		c-13.772,4.26-25.197-4.691-25.197-4.691"/>
	<path fill="none" stroke="#E30613" stroke-width="3" stroke-miterlimit="10" d="M421.848,73.215c0,0-4.101,13.523-13.199,19.023
		c-9.269,5.603-16.801-0.058-16.801-0.058"/>
	
		<ellipse transform="matrix(-0.2222 -0.975 0.975 -0.2222 412.4439 490.6901)" fill="none" stroke="#E30613" stroke-width="3" stroke-miterlimit="10" cx="401.945" cy="80.833" rx="5.25" ry="8.356"/>
	<circle fill="none" stroke="#E30613" stroke-width="3" stroke-miterlimit="10" cx="383.594" cy="83.927" r="4.249"/>
	
		<ellipse transform="matrix(0.0936 -0.9956 0.9956 0.0936 215.3016 472.1785)" fill="#312783" stroke="#E30613" stroke-width="2" stroke-miterlimit="10" cx="366.971" cy="117.846" rx="15.864" ry="7.649"/>
	
		<ellipse transform="matrix(0.6909 0.7229 -0.7229 0.6909 174.2749 -232.8536)" fill="#575756" cx="359.46" cy="87.388" rx="8.826" ry="34.781"/>
	<path fill="none" stroke="#000000" stroke-miterlimit="10" d="M393.224,27.381c0,0,4.949,3.97,3.071,13.357
		c-1.958,9.786-6.808,14.421-6.808,14.421"/>
	<circle stroke="#000000" stroke-miterlimit="10" cx="391.415" cy="25.451" r="2.644"/>
	<path fill="none" stroke="#000000" stroke-miterlimit="10" d="M421.03,56.475c0,0-3.742-5.124-13.204-3.672
		c-9.864,1.513-14.715,6.149-14.715,6.149"/>
	<circle stroke="#000000" stroke-miterlimit="10" cx="422.876" cy="58.369" r="2.644"/>
</g>
<g id="Слой_1__x28_копия2_x29_">
	<circle stroke="#000000" stroke-miterlimit="10" cx="538.227" cy="59.934" r="4.954"/>
	<path fill="#F8F4C1" stroke="#FFED00" stroke-width="2" stroke-miterlimit="10" d="M522.259,67.25c0,0,13.749-47.745-2.724-62.162
		c-5.196-4.548-21.854,11.066-27.157,20.258c-6,10.4-8.514,23.759-4.715,30.489c6.416,11.363,24.662,18.351,24.662,18.351
		L522.259,67.25z"/>
	<path fill="#F8F4C1" stroke="#FFED00" stroke-width="2" stroke-miterlimit="10" d="M512.326,74.185
		c0,0-20.758-13.191-33.495-13.951c-13.526-0.807-30.408,12.159-24.358,25.139c5.556,11.92,34.377,15.285,34.377,15.285
		s12.019-14.605,14.312-16.801C505.572,81.551,512.326,74.185,512.326,74.185z"/>
	<path fill="none" stroke="#009640" stroke-width="3" stroke-miterlimit="10" d="M516.774,11.911c0,0-16.148,9.64-20.329,23.158
		c-4.26,13.772,4.691,25.197,4.691,25.197"/>
	<path fill="none" stroke="#E30613" stroke-width="3" stroke-miterlimit="10" d="M523.895,25.22c0,0-13.523,4.101-19.023,13.199
		c-5.603,9.269,0.058,16.801,0.058,16.801"/>
	
		<ellipse transform="matrix(0.975 0.2222 -0.2222 0.975 22.9325 -113.5876)" fill="none" stroke="#E30613" stroke-width="3" stroke-miterlimit="10" cx="516.277" cy="45.124" rx="5.25" ry="8.356"/>
	<circle fill="none" stroke="#009FE3" stroke-width="3" stroke-miterlimit="10" cx="513.183" cy="63.474" r="4.249"/>
	
		<ellipse transform="matrix(0.9956 -0.0936 0.0936 0.9956 -5.3924 45.2011)" fill="#312783" stroke="#E30613" stroke-width="2" stroke-miterlimit="10" cx="479.264" cy="80.097" rx="15.864" ry="7.649"/>
	<path fill="#F8F4C1" stroke="#FFED00" stroke-width="2" stroke-miterlimit="10" d="M529.86,74.851c0,0,47.745-13.749,62.162,2.724
		c4.548,5.196-11.066,21.854-20.258,27.157c-10.4,6-23.759,8.514-30.489,4.715c-11.363-6.416-18.351-24.662-18.351-24.662
		L529.86,74.851z"/>
	<path fill="#F8F4C1" stroke="#FFED00" stroke-width="2" stroke-miterlimit="10" d="M522.924,84.784
		c0,0,13.191,20.758,13.951,33.495c0.807,13.526-12.159,30.408-25.139,24.358c-11.92-5.556-15.285-34.377-15.285-34.377
		s13.475-11.623,15.671-13.916C514.43,91.934,522.924,84.784,522.924,84.784z"/>
	<path fill="none" stroke="#009640" stroke-width="3" stroke-miterlimit="10" d="M585.199,80.336c0,0-9.64,16.148-23.158,20.329
		c-13.772,4.26-25.197-4.691-25.197-4.691"/>
	<path fill="none" stroke="#E30613" stroke-width="3" stroke-miterlimit="10" d="M571.89,73.215c0,0-4.101,13.523-13.199,19.023
		c-9.269,5.603-16.801-0.058-16.801-0.058"/>
	
		<ellipse transform="matrix(-0.2222 -0.975 0.975 -0.2222 595.8244 636.9808)" fill="none" stroke="#E30613" stroke-width="3" stroke-miterlimit="10" cx="551.986" cy="80.833" rx="5.25" ry="8.356"/>
	<circle fill="none" stroke="#009FE3" stroke-width="3" stroke-miterlimit="10" cx="533.636" cy="83.927" r="4.249"/>
	
		<ellipse transform="matrix(0.0936 -0.9956 0.9956 0.0936 351.3023 621.5616)" fill="#312783" stroke="#E30613" stroke-width="2" stroke-miterlimit="10" cx="517.013" cy="117.846" rx="15.864" ry="7.649"/>
	
		<ellipse transform="matrix(0.6909 0.7229 -0.7229 0.6909 220.6491 -341.3227)" fill="#575756" cx="509.501" cy="87.388" rx="8.826" ry="34.781"/>
	<path fill="none" stroke="#000000" stroke-miterlimit="10" d="M543.265,27.381c0,0,4.949,3.97,3.071,13.357
		c-1.958,9.786-6.808,14.421-6.808,14.421"/>
	<circle stroke="#000000" stroke-miterlimit="10" cx="541.457" cy="25.451" r="2.644"/>
	<path fill="none" stroke="#000000" stroke-miterlimit="10" d="M571.072,56.475c0,0-3.742-5.124-13.204-3.672
		c-9.864,1.513-14.715,6.149-14.715,6.149"/>
	<circle stroke="#000000" stroke-miterlimit="10" cx="572.917" cy="58.369" r="2.644"/>
</g>
<g id="Слой_1_копия_4">
	<circle stroke="#000000" stroke-miterlimit="10" cx="688.165" cy="59.934" r="4.954"/>
	<path fill="#F8F4C1" stroke="#FFED00" stroke-width="2" stroke-miterlimit="10" d="M672.198,67.25c0,0,13.749-47.745-2.724-62.162
		c-5.196-4.548-21.854,11.066-27.157,20.258c-6,10.4-8.514,23.759-4.715,30.489c6.416,11.363,24.662,18.351,24.662,18.351
		L672.198,67.25z"/>
	<path fill="#F8F4C1" stroke="#FFED00" stroke-width="2" stroke-miterlimit="10" d="M662.264,74.185
		c0,0-20.758-13.191-33.495-13.951c-13.526-0.807-30.408,12.159-24.358,25.139c5.556,11.92,34.377,15.285,34.377,15.285
		s12.019-14.605,14.312-16.801C655.51,81.551,662.264,74.185,662.264,74.185z"/>
	<path fill="none" stroke="#009640" stroke-width="3" stroke-miterlimit="10" d="M666.712,11.911c0,0-16.148,9.64-20.329,23.158
		c-4.26,13.772,4.691,25.197,4.691,25.197"/>
	<path fill="none" stroke="#E30613" stroke-width="3" stroke-miterlimit="10" d="M673.833,25.22c0,0-13.523,4.101-19.023,13.199
		c-5.603,9.269,0.058,16.801,0.058,16.801"/>
	
		<ellipse transform="matrix(0.975 0.2222 -0.2222 0.975 26.6807 -146.9036)" fill="none" stroke="#E30613" stroke-width="3" stroke-miterlimit="10" cx="666.216" cy="45.124" rx="5.25" ry="8.356"/>
	<circle fill="none" stroke="#009FE3" stroke-width="3" stroke-miterlimit="10" cx="663.122" cy="63.474" r="4.249"/>
	
		<ellipse transform="matrix(0.9956 -0.0936 0.0936 0.9956 -4.7344 59.2324)" fill="#E30613" stroke="#312783" stroke-width="2" stroke-miterlimit="10" cx="629.203" cy="80.097" rx="15.864" ry="7.649"/>
	<path fill="#F8F4C1" stroke="#FFED00" stroke-width="2" stroke-miterlimit="10" d="M679.798,74.851c0,0,47.745-13.749,62.162,2.724
		c4.548,5.196-11.066,21.854-20.258,27.157c-10.4,6-23.759,8.514-30.489,4.715c-11.363-6.416-18.351-24.662-18.351-24.662
		L679.798,74.851z"/>
	<path fill="#F8F4C1" stroke="#FFED00" stroke-width="2" stroke-miterlimit="10" d="M672.863,84.784
		c0,0,13.191,20.758,13.951,33.495c0.807,13.526-12.159,30.408-25.139,24.358c-11.92-5.556-15.285-34.377-15.285-34.377
		s13.475-11.623,15.671-13.916C664.368,91.934,672.863,84.784,672.863,84.784z"/>
	<path fill="none" stroke="#009640" stroke-width="3" stroke-miterlimit="10" d="M735.138,80.336c0,0-9.64,16.148-23.158,20.329
		c-13.772,4.26-25.197-4.691-25.197-4.691"/>
	<path fill="none" stroke="#E30613" stroke-width="3" stroke-miterlimit="10" d="M721.828,73.215c0,0-4.101,13.523-13.199,19.023
		c-9.269,5.603-16.801-0.058-16.801-0.058"/>
	
		<ellipse transform="matrix(-0.2222 -0.975 0.975 -0.2222 779.0787 783.171)" fill="none" stroke="#E30613" stroke-width="3" stroke-miterlimit="10" cx="701.925" cy="80.833" rx="5.25" ry="8.356"/>
	<circle fill="none" stroke="#009FE3" stroke-width="3" stroke-miterlimit="10" cx="683.574" cy="83.927" r="4.249"/>
	
		<ellipse transform="matrix(0.0936 -0.9956 0.9956 0.0936 487.2094 770.842)" fill="#E30613" stroke="#312783" stroke-width="2" stroke-miterlimit="10" cx="666.951" cy="117.846" rx="15.864" ry="7.649"/>
	
		<ellipse transform="matrix(0.6909 0.7229 -0.7229 0.6909 266.9913 -449.7171)" fill="#575756" cx="659.44" cy="87.388" rx="8.826" ry="34.781"/>
	<path fill="none" stroke="#000000" stroke-miterlimit="10" d="M693.204,27.381c0,0,4.949,3.97,3.071,13.357
		c-1.958,9.786-6.808,14.421-6.808,14.421"/>
	<circle stroke="#000000" stroke-miterlimit="10" cx="691.395" cy="25.451" r="2.644"/>
	<path fill="none" stroke="#000000" stroke-miterlimit="10" d="M721.01,56.475c0,0-3.742-5.124-13.204-3.672
		c-9.864,1.513-14.715,6.149-14.715,6.149"/>
	<circle stroke="#000000" stroke-miterlimit="10" cx="722.856" cy="58.369" r="2.644"/>
</g>
<g id="Слой_1__x28_копия4_x29_">
	<circle stroke="#000000" stroke-miterlimit="10" cx="838.206" cy="59.934" r="4.954"/>
	<path fill="#F8F4C1" stroke="#FFED00" stroke-width="2" stroke-miterlimit="10" d="M822.239,67.25c0,0,13.749-47.745-2.724-62.162
		c-5.196-4.548-21.854,11.066-27.157,20.258c-6,10.4-8.514,23.759-4.715,30.489c6.416,11.363,24.662,18.351,24.662,18.351
		L822.239,67.25z"/>
	<path fill="#F8F4C1" stroke="#FFED00" stroke-width="2" stroke-miterlimit="10" d="M812.306,74.185
		c0,0-20.758-13.191-33.495-13.951c-13.526-0.807-30.408,12.159-24.358,25.139c5.556,11.92,34.377,15.285,34.377,15.285
		s12.019-14.605,14.312-16.801C805.551,81.551,812.306,74.185,812.306,74.185z"/>
	<path fill="none" stroke="#312783" stroke-width="3" stroke-miterlimit="10" d="M816.753,11.911c0,0-16.148,9.64-20.329,23.158
		c-4.26,13.772,4.691,25.197,4.691,25.197"/>
	<path fill="none" stroke="#009640" stroke-width="3" stroke-miterlimit="10" d="M823.875,25.22c0,0-13.523,4.101-19.023,13.199
		c-5.603,9.269,0.058,16.801,0.058,16.801"/>
	
		<ellipse transform="matrix(0.975 0.2222 -0.2222 0.975 30.4315 -180.2425)" fill="none" stroke="#E30613" stroke-width="3" stroke-miterlimit="10" cx="816.257" cy="45.124" rx="5.25" ry="8.356"/>
	<circle fill="none" stroke="#009FE3" stroke-width="3" stroke-miterlimit="10" cx="813.163" cy="63.474" r="4.249"/>
	
		<ellipse transform="matrix(0.9956 -0.0936 0.0936 0.9956 -4.076 73.2733)" fill="#E30613" stroke="#312783" stroke-width="2" stroke-miterlimit="10" cx="779.244" cy="80.097" rx="15.864" ry="7.649"/>
	<path fill="#F8F4C1" stroke="#FFED00" stroke-width="2" stroke-miterlimit="10" d="M829.84,74.851c0,0,47.745-13.749,62.162,2.724
		c4.548,5.196-11.066,21.854-20.258,27.157c-10.4,6-23.759,8.514-30.489,4.715c-11.363-6.416-18.351-24.662-18.351-24.662
		L829.84,74.851z"/>
	<path fill="#F8F4C1" stroke="#FFED00" stroke-width="2" stroke-miterlimit="10" d="M822.904,84.784
		c0,0,13.191,20.758,13.951,33.495c0.807,13.526-12.159,30.408-25.139,24.358c-11.92-5.556-15.285-34.377-15.285-34.377
		s13.475-11.623,15.671-13.916C814.41,91.934,822.904,84.784,822.904,84.784z"/>
	<path fill="none" stroke="#312783" stroke-width="3" stroke-miterlimit="10" d="M885.179,80.336c0,0-9.64,16.148-23.158,20.329
		c-13.772,4.26-25.197-4.691-25.197-4.691"/>
	<path fill="none" stroke="#009640" stroke-width="3" stroke-miterlimit="10" d="M871.87,73.215c0,0-4.101,13.523-13.199,19.023
		c-9.269,5.603-16.801-0.058-16.801-0.058"/>
	
		<ellipse transform="matrix(-0.2222 -0.975 0.975 -0.2222 962.4592 929.4617)" fill="none" stroke="#E30613" stroke-width="3" stroke-miterlimit="10" cx="851.966" cy="80.833" rx="5.25" ry="8.356"/>
	<circle fill="none" stroke="#009FE3" stroke-width="3" stroke-miterlimit="10" cx="833.616" cy="83.927" r="4.249"/>
	
		<ellipse transform="matrix(0.0936 -0.9956 0.9956 0.0936 623.21 920.2252)" fill="#E30613" stroke="#312783" stroke-width="2" stroke-miterlimit="10" cx="816.993" cy="117.846" rx="15.864" ry="7.649"/>
	
		<ellipse transform="matrix(0.6909 0.7229 -0.7229 0.6909 313.3654 -558.1862)" fill="#575756" cx="809.481" cy="87.388" rx="8.826" ry="34.781"/>
	<path fill="none" stroke="#000000" stroke-miterlimit="10" d="M843.245,27.381c0,0,4.949,3.97,3.071,13.357
		c-1.958,9.786-6.808,14.421-6.808,14.421"/>
	<circle stroke="#000000" stroke-miterlimit="10" cx="841.437" cy="25.451" r="2.644"/>
	<path fill="none" stroke="#000000" stroke-miterlimit="10" d="M871.051,56.475c0,0-3.742-5.124-13.204-3.672
		c-9.864,1.513-14.715,6.149-14.715,6.149"/>
	<circle stroke="#000000" stroke-miterlimit="10" cx="872.897" cy="58.369" r="2.644"/>
</g>
<g id="Слой_1_копия_3">
	<circle stroke="#000000" stroke-miterlimit="10" cx="988" cy="59.934" r="4.954"/>
	<path fill="#F8F4C1" stroke="#FFED00" stroke-width="2" stroke-miterlimit="10" d="M972.032,67.25c0,0,13.749-47.745-2.724-62.162
		c-5.196-4.548-21.854,11.066-27.157,20.258c-6,10.4-8.514,23.759-4.715,30.489c6.416,11.363,24.662,18.351,24.662,18.351
		L972.032,67.25z"/>
	<path fill="#F8F4C1" stroke="#FFED00" stroke-width="2" stroke-miterlimit="10" d="M962.099,74.185
		c0,0-20.758-13.191-33.495-13.951c-13.526-0.807-30.408,12.159-24.358,25.139c5.556,11.92,34.377,15.285,34.377,15.285
		s12.019-14.605,14.312-16.801C955.345,81.551,962.099,74.185,962.099,74.185z"/>
	<path fill="none" stroke="#312783" stroke-width="3" stroke-miterlimit="10" d="M966.547,11.911c0,0-16.148,9.64-20.329,23.158
		c-4.26,13.772,4.691,25.197,4.691,25.197"/>
	<path fill="none" stroke="#009640" stroke-width="3" stroke-miterlimit="10" d="M973.668,25.22c0,0-13.523,4.101-19.023,13.199
		c-5.603,9.269,0.058,16.801,0.058,16.801"/>
	
		<ellipse transform="matrix(0.975 0.2222 -0.2222 0.975 34.1761 -213.5262)" fill="none" stroke="#009FE3" stroke-width="3" stroke-miterlimit="10" cx="966.05" cy="45.124" rx="5.25" ry="8.356"/>
	<circle fill="none" stroke="#009FE3" stroke-width="3" stroke-miterlimit="10" cx="962.956" cy="63.474" r="4.249"/>
	
		<ellipse transform="matrix(0.9956 -0.0936 0.0936 0.9956 -3.4186 87.291)" fill="#E30613" stroke="#312783" stroke-width="2" stroke-miterlimit="10" cx="929.037" cy="80.097" rx="15.864" ry="7.649"/>
	<path fill="#F8F4C1" stroke="#FFED00" stroke-width="2" stroke-miterlimit="10" d="M979.633,74.851c0,0,47.745-13.749,62.162,2.724
		c4.548,5.196-11.066,21.854-20.258,27.157c-10.4,6-23.759,8.514-30.489,4.715c-11.363-6.416-18.351-24.662-18.351-24.662
		L979.633,74.851z"/>
	<path fill="#F8F4C1" stroke="#FFED00" stroke-width="2" stroke-miterlimit="10" d="M972.697,84.784
		c0,0,13.191,20.758,13.951,33.495c0.807,13.526-12.159,30.408-25.139,24.358c-11.92-5.556-15.285-34.377-15.285-34.377
		s13.475-11.623,15.671-13.916C964.203,91.934,972.697,84.784,972.697,84.784z"/>
	<path fill="none" stroke="#312783" stroke-width="3" stroke-miterlimit="10" d="M1034.972,80.336c0,0-9.64,16.148-23.158,20.329
		c-13.772,4.26-25.197-4.691-25.197-4.691"/>
	<path fill="none" stroke="#009640" stroke-width="3" stroke-miterlimit="10" d="M1021.663,73.215c0,0-4.101,13.523-13.199,19.023
		c-9.269,5.603-16.801-0.058-16.801-0.058"/>
	
		<ellipse transform="matrix(-0.2222 -0.975 0.975 -0.2222 1145.536 1075.5103)" fill="none" stroke="#009FE3" stroke-width="3" stroke-miterlimit="10" cx="1001.759" cy="80.833" rx="5.25" ry="8.356"/>
	<circle fill="none" stroke="#009FE3" stroke-width="3" stroke-miterlimit="10" cx="983.409" cy="83.927" r="4.249"/>
	
		<ellipse transform="matrix(0.0936 -0.9956 0.9956 0.0936 758.9855 1069.361)" fill="#E30613" stroke="#312783" stroke-width="2" stroke-miterlimit="10" cx="966.786" cy="117.846" rx="15.864" ry="7.649"/>
	
		<ellipse transform="matrix(0.6909 0.7229 -0.7229 0.6909 359.6628 -666.4756)" fill="#575756" cx="959.274" cy="87.388" rx="8.826" ry="34.781"/>
	<path fill="none" stroke="#000000" stroke-miterlimit="10" d="M993.038,27.381c0,0,4.949,3.97,3.071,13.357
		c-1.958,9.786-6.808,14.421-6.808,14.421"/>
	<circle stroke="#000000" stroke-miterlimit="10" cx="991.23" cy="25.451" r="2.644"/>
	<path fill="none" stroke="#000000" stroke-miterlimit="10" d="M1020.845,56.475c0,0-3.742-5.124-13.204-3.672
		c-9.864,1.513-14.715,6.149-14.715,6.149"/>
	<circle stroke="#000000" stroke-miterlimit="10" cx="1022.69" cy="58.369" r="2.644"/>
</g>
<g id="Слой_1__x28_копия3_x29_">
	<circle stroke="#000000" stroke-miterlimit="10" cx="1138.041" cy="59.934" r="4.954"/>
	<path fill="#F8F4C1" stroke="#FFED00" stroke-width="2" stroke-miterlimit="10" d="M1122.074,67.25c0,0,13.749-47.745-2.724-62.162
		c-5.196-4.548-21.854,11.066-27.157,20.258c-6,10.4-8.514,23.759-4.714,30.489c6.416,11.363,24.662,18.351,24.662,18.351
		L1122.074,67.25z"/>
	<path fill="#F8F4C1" stroke="#FFED00" stroke-width="2" stroke-miterlimit="10" d="M1112.14,74.185
		c0,0-20.758-13.191-33.495-13.951c-13.526-0.807-30.408,12.159-24.358,25.139c5.556,11.92,34.377,15.285,34.377,15.285
		s12.019-14.605,14.312-16.801C1105.386,81.551,1112.14,74.185,1112.14,74.185z"/>
	<path fill="none" stroke="#312783" stroke-width="3" stroke-miterlimit="10" d="M1116.588,11.911c0,0-16.148,9.64-20.329,23.158
		c-4.26,13.772,4.691,25.197,4.691,25.197"/>
	<path fill="none" stroke="#009640" stroke-width="3" stroke-miterlimit="10" d="M1123.709,25.22c0,0-13.523,4.101-19.023,13.199
		c-5.603,9.269,0.058,16.801,0.058,16.801"/>
	
		<ellipse transform="matrix(0.975 0.2222 -0.2222 0.975 37.9269 -246.8651)" fill="none" stroke="#009FE3" stroke-width="3" stroke-miterlimit="10" cx="1116.092" cy="45.124" rx="5.25" ry="8.356"/>
	<circle fill="none" stroke="#E30613" stroke-width="3" stroke-miterlimit="10" cx="1112.998" cy="63.474" r="4.249"/>
	
		<ellipse transform="matrix(0.9956 -0.0936 0.0936 0.9956 -2.7602 101.3319)" fill="#E30613" stroke="#312783" stroke-width="2" stroke-miterlimit="10" cx="1079.079" cy="80.097" rx="15.864" ry="7.649"/>
	<path fill="#F8F4C1" stroke="#FFED00" stroke-width="2" stroke-miterlimit="10" d="M1129.674,74.851
		c0,0,47.745-13.749,62.162,2.724c4.548,5.196-11.066,21.854-20.258,27.157c-10.4,6-23.759,8.514-30.489,4.715
		c-11.363-6.416-18.351-24.662-18.351-24.662L1129.674,74.851z"/>
	<path fill="#F8F4C1" stroke="#FFED00" stroke-width="2" stroke-miterlimit="10" d="M1122.739,84.784
		c0,0,13.191,20.758,13.951,33.495c0.807,13.526-12.159,30.408-25.139,24.358c-11.92-5.556-15.285-34.377-15.285-34.377
		s13.475-11.623,15.671-13.916C1114.244,91.934,1122.739,84.784,1122.739,84.784z"/>
	<path fill="none" stroke="#312783" stroke-width="3" stroke-miterlimit="10" d="M1185.014,80.336c0,0-9.64,16.148-23.158,20.329
		c-13.771,4.26-25.197-4.691-25.197-4.691"/>
	<path fill="none" stroke="#009640" stroke-width="3" stroke-miterlimit="10" d="M1171.704,73.215c0,0-4.101,13.523-13.199,19.023
		c-9.269,5.603-16.801-0.058-16.801-0.058"/>
	
		<ellipse transform="matrix(-0.2222 -0.975 0.975 -0.2222 1328.9164 1221.801)" fill="none" stroke="#009FE3" stroke-width="3" stroke-miterlimit="10" cx="1151.801" cy="80.833" rx="5.25" ry="8.356"/>
	<circle fill="none" stroke="#E30613" stroke-width="3" stroke-miterlimit="10" cx="1133.45" cy="83.927" r="4.249"/>
	
		<ellipse transform="matrix(0.0936 -0.9956 0.9956 0.0936 894.986 1218.744)" fill="#E30613" stroke="#312783" stroke-width="2" stroke-miterlimit="10" cx="1116.827" cy="117.846" rx="15.864" ry="7.649"/>
	
		<ellipse transform="matrix(0.6909 0.7229 -0.7229 0.6909 406.037 -774.9448)" fill="#575756" cx="1109.316" cy="87.388" rx="8.826" ry="34.781"/>
	<path fill="none" stroke="#000000" stroke-miterlimit="10" d="M1143.08,27.381c0,0,4.949,3.97,3.071,13.357
		c-1.958,9.786-6.808,14.421-6.808,14.421"/>
	<circle stroke="#000000" stroke-miterlimit="10" cx="1141.271" cy="25.451" r="2.644"/>
	<path fill="none" stroke="#000000" stroke-miterlimit="10" d="M1170.886,56.475c0,0-3.742-5.124-13.204-3.672
		c-9.864,1.513-14.715,6.149-14.715,6.149"/>
	<circle stroke="#000000" stroke-miterlimit="10" cx="1172.732" cy="58.369" r="2.644"/>
	<g>
	</g>
	<g>
	</g>
	<g>
	</g>
	<g>
	</g>
	<g>
	</g>
	<g>
	</g>
</g>
</svg>
