<?xml version="1.0" encoding="UTF-8" standalone="no"?>
<!-- Generator: Adobe Illustrator 17.0.0, SVG Export Plug-In . SVG Version: 6.00 Build 0)  -->

<svg
   xmlns:dc="http://purl.org/dc/elements/1.1/"
   xmlns:cc="http://creativecommons.org/ns#"
   xmlns:rdf="http://www.w3.org/1999/02/22-rdf-syntax-ns#"
   xmlns:svg="http://www.w3.org/2000/svg"
   xmlns="http://www.w3.org/2000/svg"
   xmlns:sodipodi="http://sodipodi.sourceforge.net/DTD/sodipodi-0.dtd"
   xmlns:inkscape="http://www.inkscape.org/namespaces/inkscape"
   version="1.1"
   id="Слой_1"
   x="0px"
   y="0px"
   width="138.58099"
   height="116.477"
   viewBox="0 0 138.58099 116.477"
   enable-background="new 0 0 1200 150"
   xml:space="preserve"
   sodipodi:docname="1.svg"
   inkscape:version="0.92.4 (5da689c313, 2019-01-14)"><metadata
   id="metadata633"><rdf:RDF><cc:Work
       rdf:about=""><dc:format>image/svg+xml</dc:format><dc:type
         rdf:resource="http://purl.org/dc/dcmitype/StillImage" /><dc:title></dc:title></cc:Work></rdf:RDF></metadata><defs
   id="defs631" /><sodipodi:namedview
   pagecolor="#ffffff"
   bordercolor="#666666"
   borderopacity="1"
   objecttolerance="10"
   gridtolerance="10"
   guidetolerance="10"
   inkscape:pageopacity="0"
   inkscape:pageshadow="2"
   inkscape:window-width="1920"
   inkscape:window-height="1017"
   id="namedview629"
   showgrid="false"
   inkscape:zoom="1.3387888"
   inkscape:cx="259.01658"
   inkscape:cy="97.977647"
   inkscape:window-x="-8"
   inkscape:window-y="-8"
   inkscape:window-maximized="1"
   inkscape:current-layer="Слой_1"
   fit-margin-top="0"
   fit-margin-left="0"
   fit-margin-right="0"
   fit-margin-bottom="0" />

<g
   id="g164"
   transform="translate(-155.923,-16.717)">
	<g
   id="g118">
		<path
   d="m 239.486,95.402 v -6.171 h -28.93 v 6.171 z m -16.593,-1.743 v -2.313 h 3.905 v 2.313 z m 11.04,-1.251 c 0,-0.588 0.401,-1.06 0.898,-1.06 0.495,0 0.895,0.472 0.895,1.06 0,0.586 -0.401,1.062 -0.895,1.062 -0.497,0 -0.898,-0.476 -0.898,-1.062 z m -15.041,0 c 0,-0.588 0.399,-1.06 0.895,-1.06 0.494,0 0.895,0.472 0.895,1.06 0,0.586 -0.401,1.062 -0.895,1.062 -0.497,0 -0.895,-0.476 -0.895,-1.062 z m 10.268,0 c 0,-0.588 0.401,-1.062 0.897,-1.062 0.495,0 0.893,0.474 0.893,1.062 0,0.586 -0.399,1.06 -0.893,1.06 -0.497,0 -0.897,-0.474 -0.897,-1.06 z m -14.662,0 c 0,-0.588 0.4,-1.062 0.894,-1.062 0.494,0 0.897,0.474 0.897,1.062 0,0.586 -0.403,1.06 -0.897,1.06 -0.494,0 -0.894,-0.474 -0.894,-1.06 z"
   id="path82"
   inkscape:connector-curvature="0"
   style="clip-rule:evenodd;fill:#be4670;fill-rule:evenodd" />
		<path
   d="M 239.486,128.379 V 95.957 h -28.93 v 32.422 z m -24.988,-4.051 V 102.4 h -1.133 v -2.458 h 23.311 v 2.458 h -0.952 v 21.928 z m 21.737,-22.445 v -1.421 h -22.429 v 1.421 h 0.692 v -0.233 h 21.227 v 0.233 z"
   id="path84"
   inkscape:connector-curvature="0"
   style="clip-rule:evenodd;fill:#be4670;fill-rule:evenodd" />
		<polygon
   points="213.806,100.462 213.806,101.883 236.235,101.883 236.235,100.462 "
   id="polygon86"
   style="clip-rule:evenodd;fill:#be4670;fill-rule:evenodd" />
		<polygon
   points="232.736,42.575 232.736,16.717 217.162,16.717 217.162,42.575 "
   id="polygon88"
   style="clip-rule:evenodd;fill:#be4670;fill-rule:evenodd" />
		<polygon
   points="238.109,55.822 239.018,43.279 211.027,43.279 211.93,55.822 "
   id="polygon90"
   style="clip-rule:evenodd;fill:#be4670;fill-rule:evenodd" />
		<path
   d="m 185.043,129.593 v -0.679 h -29.12 v 0.679 z m 0,-1.229 v -23.089 h -29.12 v 14.703 0 0.549 0 7.838 h 29.12 z m -27.019,-2.757 v -17.64 h 24.835 v 17.64 z m 24.393,-0.524 v -16.594 h -23.955 v 16.594 z m -14.522,-13.752 v -1.615 h 4.99 v 1.615 z m 17.148,-6.607 V 89.231 h -29.12 v 15.493 z m -27.019,-2.669 V 92.5 h 24.835 v 9.554 h -24.835 z m 24.393,-0.521 v -8.51 h -23.955 v 8.51 z m -14.522,-5.855 v -1.613 h 4.99 v 1.613 z"
   id="path92"
   inkscape:connector-curvature="0"
   style="clip-rule:evenodd;fill:#be4670;fill-rule:evenodd" />
		<path
   d="M 261.955,128.364 V 89.231 H 239.91 v 39.132 h 22.045 z m -19.161,-2.836 v -33.46 h 16.273 v 33.46 z m 15.831,-0.525 V 92.589 h -15.391 v 32.414 z m -2.862,-13.311 v -5.918 h 1.362 v 5.918 z"
   id="path94"
   inkscape:connector-curvature="0"
   style="clip-rule:evenodd;fill:#be4670;fill-rule:evenodd" />
		<polygon
   points="261.955,128.914 261.955,133.194 155.923,133.194 155.923,128.914 "
   id="polygon96"
   style="clip-rule:evenodd;fill:#be4670;fill-rule:evenodd" />
		<path
   d="m 185.511,128.364 v -7.838 h 24.581 v 7.838 z m 0,-8.387 v -14.703 h 24.581 v 14.703 z m 21.598,-2.453 v -9.763 h -19.448 v 9.763 z m -19.01,-0.521 v -8.72 h 18.572 v 8.72 z m 11.796,-5.672 v -1.615 h -4.991 v 1.615 z m -14.384,-6.603 V 89.231 h 24.581 v 15.497 z m 21.601,-2.813 v -9.766 h -19.451 v 9.766 z m -19.011,-0.522 v -8.721 h 18.57 v 8.721 z m 11.794,-5.714 v -1.613 h -4.991 v 1.613 z"
   id="path98"
   inkscape:connector-curvature="0"
   style="clip-rule:evenodd;fill:#be4670;fill-rule:evenodd" />
		<path
   d="M 262.484,87.364 V 16.719 H 294.5 V 87.364 H 268.047 V 62.286 h -3.456 v 25.078 z m 2.55,0 V 62.809 h 2.573 v 24.555 z"
   id="path100"
   inkscape:connector-curvature="0"
   style="clip-rule:evenodd;fill:#be4670;fill-rule:evenodd" />
		<path
   d="M 262.487,133.194 V 89.229 h 2.104 v 11.527 h 3.456 V 89.229 h 26.457 v 43.965 z m 2.547,-32.961 V 89.229 h 2.573 v 11.004 z"
   id="path102"
   inkscape:connector-curvature="0"
   style="clip-rule:evenodd;fill:#be4670;fill-rule:evenodd" />
		<polygon
   points="267.607,62.809 267.607,100.233 265.034,100.233 265.034,62.809 "
   id="polygon104"
   style="clip-rule:evenodd;fill:#be4670;fill-rule:evenodd" />
		<path
   d="M 155.957,57.716 V 16.719 H 169.18 V 57.716 Z M 167.319,54.13 V 20.31 h -9.345 v 33.82 z m -8.938,-0.52 V 20.831 h 8.533 V 53.61 Z m 7.449,-1.524 v -5.914 h -1.258 v 5.914 z"
   id="path106"
   inkscape:connector-curvature="0"
   style="clip-rule:evenodd;fill:#be4670;fill-rule:evenodd" />
		<path
   d="M 169.609,57.716 V 16.719 h 13.225 V 57.716 Z M 180.892,54.13 V 20.31 h -9.345 v 33.82 z m -8.939,-0.52 V 20.831 h 8.535 V 53.61 Z m 2.24,-1.524 v -5.914 h -1.257 v 5.914 z"
   id="path108"
   inkscape:connector-curvature="0"
   style="clip-rule:evenodd;fill:#be4670;fill-rule:evenodd" />
		<path
   d="M 183.154,55.826 V 39.319 h 23.012 v 15.984 h -23.011 v 0.523 z m 20.801,-2.978 c 0,-0.594 -0.406,-1.077 -0.907,-1.077 -0.503,0 -0.909,0.483 -0.909,1.077 0,0.594 0.406,1.08 0.909,1.08 0.5,0 0.907,-0.486 0.907,-1.08 z m -4.068,-0.515 V 42.577 H 186.2 v 9.756 z m 4.333,-2.383 v -0.841 h -2.174 v 0.841 z m -0.001,-2.159 V 46.95 l -2.173,-0.002 v 0.843 z m 0,-2.218 v -0.84 h -2.173 v 0.84 z m -0.002,-2.159 v -0.839 h -2.171 v 0.839 z"
   id="path110"
   inkscape:connector-curvature="0"
   style="clip-rule:evenodd;fill:#be4670;fill-rule:evenodd" />
		<polygon
   points="206.627,16.721 208.201,16.721 208.201,57.72 206.627,57.72 "
   id="polygon112"
   style="clip-rule:evenodd;fill:#be4670;fill-rule:evenodd" />
		<polygon
   points="208.204,55.855 208.204,57.72 183.154,57.72 183.154,55.855 "
   id="polygon114"
   style="clip-rule:evenodd;fill:#be4670;fill-rule:evenodd" />
		<path
   d="m 207.973,39.082 v -0.311 h -1.342 v -22.05 h 1.57 v 22.361 z m -24.819,-0.311 v -22.05 h 23.012 v 22.05 z m 21.599,-2.468 V 20.312 h -19.452 v 15.991 z m -19.01,-0.52 V 20.831 h 18.57 v 14.952 z m 11.799,-1.334 v -1.613 h -4.993 v 1.613 z"
   id="path116"
   inkscape:connector-curvature="0"
   style="clip-rule:evenodd;fill:#be4670;fill-rule:evenodd" />
	</g>
	<g
   id="g162">
		<polygon
   points="235.181,88.604 235.181,79.892 223.62,79.892 223.62,88.604 "
   id="polygon120"
   style="clip-rule:evenodd;fill:#be4670;fill-rule:evenodd" />
		<polygon
   points="235.677,79.448 235.677,78.53 222.983,78.53 222.983,79.448 "
   id="polygon122"
   style="clip-rule:evenodd;fill:#be4670;fill-rule:evenodd" />
		<path
   d="m 227.796,78.7 c 0,-1.033 0.704,-1.866 1.574,-1.866 0.866,0 1.57,0.833 1.57,1.866 v 0 h -3.144 z"
   id="path124"
   inkscape:connector-curvature="0"
   style="clip-rule:evenodd;fill:#be4670;fill-rule:evenodd" />
		<polygon
   points="236.235,82.028 236.235,81.11 222.405,81.11 222.405,82.028 "
   id="polygon126"
   style="clip-rule:evenodd;fill:#be4670;fill-rule:evenodd" />
		<path
   d="M 239.91,64.876 V 63.31 h 4.342 v 1.566 z m 6.023,0 V 63.31 h 3.005 v 1.566 z m 4.688,0 V 63.31 h 2.249 v 1.566 z m 3.933,0 V 63.31 h 3.112 v 1.566 z"
   id="path128"
   inkscape:connector-curvature="0"
   style="clip-rule:evenodd;fill:#be4670;fill-rule:evenodd" />
		<path
   d="m 249.844,72.268 c 0.909,0 1.646,1.357 1.646,3.026 0,1.67 -0.737,3.026 -1.646,3.026 -0.908,0 -1.645,-1.356 -1.645,-3.026 -0.001,-1.669 0.736,-3.026 1.645,-3.026 z"
   id="path130"
   inkscape:connector-curvature="0"
   style="clip-rule:evenodd;fill:#be4670;fill-rule:evenodd" />
		<polygon
   points="247.475,77.776 246.322,72.015 243.769,72.015 242.617,77.776 "
   id="polygon132"
   style="clip-rule:evenodd;fill:#be4670;fill-rule:evenodd" />
		<polygon
   points="245.435,74.896 245.435,62.004 244.733,62.004 244.733,74.896 "
   id="polygon134"
   style="clip-rule:evenodd;fill:#be4670;fill-rule:evenodd" />
		<polygon
   points="250.089,74.896 250.089,62.004 249.387,62.004 249.387,74.896 "
   id="polygon136"
   style="clip-rule:evenodd;fill:#be4670;fill-rule:evenodd" />
		<path
   d="m 253.837,72.268 c 0.908,0 1.645,0.95 1.645,2.121 0,1.169 -0.737,2.121 -1.645,2.121 -0.909,0 -1.646,-0.952 -1.646,-2.121 -0.001,-1.17 0.736,-2.121 1.646,-2.121 z"
   id="path138"
   inkscape:connector-curvature="0"
   style="clip-rule:evenodd;fill:#be4670;fill-rule:evenodd" />
		<polygon
   points="254.083,74.9 254.083,62.006 253.381,62.006 253.381,74.9 "
   id="polygon140"
   style="clip-rule:evenodd;fill:#be4670;fill-rule:evenodd" />
		<polygon
   points="183.154,78.319 183.154,76.072 155.956,76.072 155.956,78.319 "
   id="polygon142"
   style="clip-rule:evenodd;fill:#be4670;fill-rule:evenodd" />
		<polygon
   points="165.403,75.279 165.403,68.082 160.081,68.082 160.081,75.279 "
   id="polygon144"
   style="clip-rule:evenodd;fill:#be4670;fill-rule:evenodd" />
		<polygon
   points="165.407,65.818 165.407,67.577 160.084,67.577 160.084,65.818 "
   id="polygon146"
   style="clip-rule:evenodd;fill:#be4670;fill-rule:evenodd" />
		<path
   d="m 162.734,64.319 c 0.579,0 1.049,0.558 1.049,1.243 0,0.685 -0.471,1.243 -1.049,1.243 -0.578,0 -1.049,-0.559 -1.049,-1.243 0,-0.686 0.471,-1.243 1.049,-1.243 z"
   id="path148"
   inkscape:connector-curvature="0"
   style="clip-rule:evenodd;fill:#be4670;fill-rule:evenodd" />
		<polygon
   points="171.478,75.281 171.478,68.084 166.155,68.084 166.155,75.281 "
   id="polygon150"
   style="clip-rule:evenodd;fill:#be4670;fill-rule:evenodd" />
		<polygon
   points="171.479,65.82 171.479,67.579 166.157,67.579 166.157,65.82 "
   id="polygon152"
   style="clip-rule:evenodd;fill:#be4670;fill-rule:evenodd" />
		<path
   d="m 168.807,64.321 c 0.579,0 1.049,0.558 1.049,1.243 0,0.685 -0.47,1.244 -1.049,1.244 -0.578,0 -1.049,-0.559 -1.049,-1.244 0,-0.686 0.471,-1.243 1.049,-1.243 z"
   id="path154"
   inkscape:connector-curvature="0"
   style="clip-rule:evenodd;fill:#be4670;fill-rule:evenodd" />
		<polygon
   points="177.572,75.279 177.572,68.082 172.25,68.082 172.25,75.279 "
   id="polygon156"
   style="clip-rule:evenodd;fill:#be4670;fill-rule:evenodd" />
		<polygon
   points="177.574,65.818 177.574,67.577 172.252,67.577 172.252,65.818 "
   id="polygon158"
   style="clip-rule:evenodd;fill:#be4670;fill-rule:evenodd" />
		<path
   d="m 174.902,64.319 c 0.578,0 1.048,0.558 1.048,1.243 0,0.685 -0.47,1.243 -1.048,1.243 -0.578,0 -1.049,-0.559 -1.049,-1.243 0,-0.686 0.471,-1.243 1.049,-1.243 z"
   id="path160"
   inkscape:connector-curvature="0"
   style="clip-rule:evenodd;fill:#be4670;fill-rule:evenodd" />
	</g>
</g>






<g
   id="g616"
   transform="translate(-155.923,-16.717)">
</g>
<g
   id="g618"
   transform="translate(-155.923,-16.717)">
</g>
<g
   id="g620"
   transform="translate(-155.923,-16.717)">
</g>
<g
   id="g622"
   transform="translate(-155.923,-16.717)">
</g>
<g
   id="g624"
   transform="translate(-155.923,-16.717)">
</g>
<g
   id="g626"
   transform="translate(-155.923,-16.717)">
</g>
</svg>