<?xml version="1.0" encoding="UTF-8" standalone="no"?>
<!-- Generator: Adobe Illustrator 17.0.0, SVG Export Plug-In . SVG Version: 6.00 Build 0)  -->

<svg
   xmlns:dc="http://purl.org/dc/elements/1.1/"
   xmlns:cc="http://creativecommons.org/ns#"
   xmlns:rdf="http://www.w3.org/1999/02/22-rdf-syntax-ns#"
   xmlns:svg="http://www.w3.org/2000/svg"
   xmlns="http://www.w3.org/2000/svg"
   xmlns:sodipodi="http://sodipodi.sourceforge.net/DTD/sodipodi-0.dtd"
   xmlns:inkscape="http://www.inkscape.org/namespaces/inkscape"
   version="1.1"
   id="Слой_1"
   x="0px"
   y="0px"
   width="138.207"
   height="117.174"
   viewBox="0 0 138.207 117.174"
   enable-background="new 0 0 1200 150"
   xml:space="preserve"
   sodipodi:docname="2.svg"
   inkscape:version="0.92.4 (5da689c313, 2019-01-14)"><metadata
   id="metadata633"><rdf:RDF><cc:Work
       rdf:about=""><dc:format>image/svg+xml</dc:format><dc:type
         rdf:resource="http://purl.org/dc/dcmitype/StillImage" /><dc:title></dc:title></cc:Work></rdf:RDF></metadata><defs
   id="defs631" /><sodipodi:namedview
   pagecolor="#ffffff"
   bordercolor="#666666"
   borderopacity="1"
   objecttolerance="10"
   gridtolerance="10"
   guidetolerance="10"
   inkscape:pageopacity="0"
   inkscape:pageshadow="2"
   inkscape:window-width="1920"
   inkscape:window-height="1017"
   id="namedview629"
   showgrid="false"
   inkscape:zoom="0.66939442"
   inkscape:cx="794.64257"
   inkscape:cy="-48.960145"
   inkscape:window-x="-8"
   inkscape:window-y="-8"
   inkscape:window-maximized="1"
   inkscape:current-layer="Слой_1"
   fit-margin-top="0"
   fit-margin-left="0"
   fit-margin-right="0"
   fit-margin-bottom="0" />


<g
   id="g240"
   transform="translate(-306.65,-16.721)">
	<g
   id="g194">
		<path
   d="m 364.253,95.879 v -6.208 h 30.504 v 6.208 z m 17.497,-1.756 v -2.329 h -4.117 v 2.329 z m -11.644,-1.259 c 0,-0.59 -0.42,-1.067 -0.942,-1.067 -0.522,0 -0.942,0.477 -0.942,1.067 0,0.592 0.42,1.068 0.942,1.068 0.521,0 0.942,-0.476 0.942,-1.068 z m 15.861,0 c 0,-0.59 -0.421,-1.067 -0.943,-1.067 -0.522,0 -0.946,0.477 -0.946,1.067 0,0.592 0.424,1.068 0.946,1.068 0.522,0 0.943,-0.476 0.943,-1.068 z m -10.824,-0.002 c 0,-0.59 -0.425,-1.065 -0.946,-1.065 -0.522,0 -0.942,0.475 -0.942,1.065 0,0.59 0.421,1.07 0.942,1.07 0.521,0 0.946,-0.48 0.946,-1.07 z m 15.458,0 c 0,-0.59 -0.424,-1.065 -0.942,-1.065 -0.523,0 -0.945,0.475 -0.945,1.065 0,0.59 0.422,1.07 0.945,1.07 0.517,0 0.942,-0.48 0.942,-1.07 z"
   id="path166"
   inkscape:connector-curvature="0"
   style="clip-rule:evenodd;fill:#48bac1;fill-rule:evenodd" />
		<path
   d="M 364.253,129.049 V 96.433 h 30.504 v 32.616 z m 26.348,-4.071 v -22.064 h 1.194 v -2.468 h -24.578 v 2.468 h 1.003 v 22.064 z m -22.923,-22.582 v -1.428 h 23.652 v 1.428 h -0.73 v -0.232 h -22.38 v 0.232 z"
   id="path168"
   inkscape:connector-curvature="0"
   style="clip-rule:evenodd;fill:#48bac1;fill-rule:evenodd" />
		<polygon
   points="391.331,100.969 391.331,102.396 367.678,102.396 367.678,100.969 "
   id="polygon170"
   style="clip-rule:evenodd;fill:#48bac1;fill-rule:evenodd" />
		<polygon
   points="387.344,42.734 387.344,16.721 370.924,16.721 370.924,42.734 "
   id="polygon172"
   style="clip-rule:evenodd;fill:#48bac1;fill-rule:evenodd" />
		<polygon
   points="394.127,56.06 395.168,43.443 363.049,43.443 364.088,56.06 "
   id="polygon174"
   style="clip-rule:evenodd;fill:#48bac1;fill-rule:evenodd" />
		<path
   d="m 363.763,130.272 v -0.681 h -30.704 v 0.681 z m 0,-1.237 v -23.227 h -30.704 v 14.791 0 0.554 0 7.882 z m -28.492,-2.776 v -17.743 h 26.186 v 17.743 z m 25.724,-0.522 v -16.695 h -25.259 v 16.695 z m -15.316,-13.838 v -1.623 h 5.263 v 1.623 z m 18.084,-6.645 V 89.669 h -30.704 v 15.585 z m -28.492,-2.683 V 92.96 h 26.186 v 9.612 h -26.186 z m 25.724,-0.524 v -8.563 h -25.259 v 8.563 z M 345.679,96.155 V 94.53 h 5.263 v 1.624 h -5.263 z"
   id="path176"
   inkscape:connector-curvature="0"
   style="clip-rule:evenodd;fill:#48bac1;fill-rule:evenodd" />
		<path
   d="m 333.058,133.895 v -4.303 0 1.32 h -0.489 v -1.32 H 306.65 v 4.303 z m 0,-4.86 v -7.882 0 7.882 z m -0.489,0 v -7.882 H 306.65 v 7.882 z m 0.489,-8.436 v -14.791 0 14.791 z m -0.489,0 V 105.808 H 306.65 v 14.791 z m -22.774,-2.472 v -9.818 h 20.508 v 9.818 z m 20.045,-0.522 v -8.772 h -19.579 v 8.772 z m -12.439,-5.706 v -1.623 h 5.263 v 1.623 z m 15.657,-6.645 v -15.585 0 15.585 z m -0.489,0 V 89.669 H 306.65 v 15.585 z m -22.776,-2.826 v -9.824 h 20.509 v 9.824 z m 20.043,-0.526 v -8.774 h -19.579 v 8.774 z M 317.401,96.155 V 94.53 h 5.263 v 1.624 h -5.263 z"
   id="path178"
   inkscape:connector-curvature="0"
   style="clip-rule:evenodd;fill:#48bac1;fill-rule:evenodd" />
		<path
   d="M 444.855,129.035 V 89.671 H 421.61 v 39.365 h 23.245 z M 424.654,126.18 V 92.522 h 17.156 v 33.657 h -17.156 z m 16.692,-0.525 V 93.047 h -16.228 v 32.608 z m -3.017,-13.393 v -5.952 h 1.434 v 5.952 z"
   id="path180"
   inkscape:connector-curvature="0"
   style="clip-rule:evenodd;fill:#48bac1;fill-rule:evenodd" />
		<polygon
   points="444.857,129.592 444.857,133.893 306.65,133.893 306.65,129.592 "
   id="polygon182"
   style="clip-rule:evenodd;fill:#48bac1;fill-rule:evenodd" />
		<path
   d="M 420.593,89.669 V 73.063 h 24.264 v 16.081 h -24.262 v 0.524 h -0.002 z m 21.931,-2.995 c 0,-0.598 -0.429,-1.085 -0.958,-1.085 -0.529,0 -0.96,0.487 -0.96,1.085 0,0.6 0.432,1.084 0.96,1.084 0.528,0 0.958,-0.484 0.958,-1.084 z m -4.288,-0.516 V 76.34 h -14.431 v 9.818 z m 4.567,-2.401 v -0.846 h -2.291 v 0.846 z m 0,-2.173 V 80.74 h -2.291 v 0.844 z m 0,-2.23 v -0.846 h -2.291 v 0.846 z m -0.004,-2.171 V 76.34 h -2.287 v 0.844 h 2.287 z"
   id="path184"
   inkscape:connector-curvature="0"
   style="clip-rule:evenodd;fill:#48bac1;fill-rule:evenodd" />
		<path
   d="m 421.164,129.037 v -7.884 h -25.919 v 7.884 z m 0,-8.438 V 105.81 h -25.919 v 14.789 z m -22.776,-2.468 v -9.823 h 20.509 v 9.823 z m 20.047,-0.526 v -8.772 h -19.582 v 8.772 z m -12.439,-5.702 v -1.625 h 5.265 v 1.625 z m 15.168,-6.649 V 89.671 h -25.919 v 15.583 z m -22.776,-2.826 v -9.822 h 20.509 v 9.822 z m 20.043,-0.526 v -8.774 h -19.579 v 8.774 z m -12.435,-5.747 v -1.62 h 5.265 v 1.62 z"
   id="path186"
   inkscape:connector-curvature="0"
   style="clip-rule:evenodd;fill:#48bac1;fill-rule:evenodd" />
		<path
   d="M 306.65,57.962 V 16.725 h 19.964 v 41.237 z m 17.349,-3.551 V 20.276 h -14.733 v 34.136 h 14.733 z M 309.664,53.887 V 20.8 h 13.935 v 33.087 z m 2.591,-1.589 v -5.952 h -1.234 v 5.952 z"
   id="path188"
   inkscape:connector-curvature="0"
   style="clip-rule:evenodd;fill:#48bac1;fill-rule:evenodd" />
		<path
   d="M 327.046,57.964 V 16.721 h 14.6 v 41.243 z m 12.547,-3.608 V 20.331 H 329.27 v 34.024 h 10.323 z m -9.874,-0.525 V 20.858 h 9.424 v 32.973 z m 8.227,-1.533 v -5.952 h -1.386 v 5.952 z"
   id="path190"
   inkscape:connector-curvature="0"
   style="clip-rule:evenodd;fill:#48bac1;fill-rule:evenodd" />
		<path
   d="M 342.119,57.964 V 16.721 h 14.604 v 41.243 z m 12.463,-3.608 V 20.331 h -10.319 v 34.024 h 10.319 z m -9.874,-0.525 V 20.858 h 9.424 v 32.973 z m 2.473,-1.533 v -5.952 h -1.386 v 5.952 z"
   id="path192"
   inkscape:connector-curvature="0"
   style="clip-rule:evenodd;fill:#48bac1;fill-rule:evenodd" />
	</g>
	<g
   id="g238">
		<polygon
   points="379.075,89.037 379.075,80.274 366.886,80.274 366.886,89.037 "
   id="polygon196"
   style="clip-rule:evenodd;fill:#48bac1;fill-rule:evenodd" />
		<polygon
   points="379.6,79.826 379.6,78.901 366.215,78.901 366.215,79.826 "
   id="polygon198"
   style="clip-rule:evenodd;fill:#48bac1;fill-rule:evenodd" />
		<path
   d="m 371.289,79.07 c 0,-1.033 0.743,-1.872 1.658,-1.872 0.915,0 1.658,0.84 1.658,1.872 0,0.004 0,0.004 0,0.004 h -3.315 c -0.001,0 -0.001,0 -0.001,-0.004 z"
   id="path200"
   inkscape:connector-curvature="0"
   style="clip-rule:evenodd;fill:#48bac1;fill-rule:evenodd" />
		<polygon
   points="380.188,82.422 380.188,81.499 365.606,81.499 365.606,82.422 "
   id="polygon202"
   style="clip-rule:evenodd;fill:#48bac1;fill-rule:evenodd" />
		<path
   d="m 337.998,65.165 v -1.573 h 4.578 v 1.573 z m 6.353,0 v -1.573 h 3.169 v 1.573 z m 4.943,0 v -1.573 h 2.371 v 1.573 z m 4.144,0 v -1.573 h 3.285 v 1.573 z"
   id="path204"
   inkscape:connector-curvature="0"
   style="clip-rule:evenodd;fill:#48bac1;fill-rule:evenodd" />
		<path
   d="m 348.472,72.604 c 0.958,0 1.735,1.364 1.735,3.044 0,1.68 -0.777,3.044 -1.735,3.044 -0.959,0 -1.736,-1.364 -1.736,-3.044 0,-1.68 0.777,-3.044 1.736,-3.044 z"
   id="path206"
   inkscape:connector-curvature="0"
   style="clip-rule:evenodd;fill:#48bac1;fill-rule:evenodd" />
		<polygon
   points="345.978,78.147 344.76,72.35 342.07,72.35 340.851,78.147 "
   id="polygon208"
   style="clip-rule:evenodd;fill:#48bac1;fill-rule:evenodd" />
		<polygon
   points="343.824,75.247 343.824,62.278 343.083,62.278 343.083,75.247 "
   id="polygon210"
   style="clip-rule:evenodd;fill:#48bac1;fill-rule:evenodd" />
		<polygon
   points="348.733,75.247 348.733,62.278 347.992,62.278 347.992,75.247 "
   id="polygon212"
   style="clip-rule:evenodd;fill:#48bac1;fill-rule:evenodd" />
		<path
   d="m 352.683,72.604 c 0.959,0 1.735,0.955 1.735,2.133 0,1.178 -0.776,2.133 -1.735,2.133 -0.959,0 -1.735,-0.955 -1.735,-2.133 0,-1.178 0.776,-2.133 1.735,-2.133 z"
   id="path214"
   inkscape:connector-curvature="0"
   style="clip-rule:evenodd;fill:#48bac1;fill-rule:evenodd" />
		<polygon
   points="352.943,75.249 352.943,62.279 352.202,62.279 352.202,75.249 "
   id="polygon216"
   style="clip-rule:evenodd;fill:#48bac1;fill-rule:evenodd" />
		<polygon
   points="434.931,57.952 434.931,55.69 406.253,55.69 406.253,57.952 "
   id="polygon218"
   style="clip-rule:evenodd;fill:#48bac1;fill-rule:evenodd" />
		<polygon
   points="416.216,54.894 416.216,47.655 410.604,47.655 410.604,54.894 "
   id="polygon220"
   style="clip-rule:evenodd;fill:#48bac1;fill-rule:evenodd" />
		<polygon
   points="416.218,45.377 416.218,47.147 410.606,47.147 410.606,45.377 "
   id="polygon222"
   style="clip-rule:evenodd;fill:#48bac1;fill-rule:evenodd" />
		<path
   d="m 413.402,43.868 c 0.609,0 1.106,0.562 1.106,1.251 0,0.689 -0.496,1.251 -1.106,1.251 -0.609,0 -1.106,-0.562 -1.106,-1.251 0,-0.689 0.497,-1.251 1.106,-1.251 z"
   id="path224"
   inkscape:connector-curvature="0"
   style="clip-rule:evenodd;fill:#48bac1;fill-rule:evenodd" />
		<polygon
   points="422.621,54.894 422.621,47.655 417.009,47.655 417.009,54.894 "
   id="polygon226"
   style="clip-rule:evenodd;fill:#48bac1;fill-rule:evenodd" />
		<polygon
   points="422.623,45.377 422.623,47.147 417.011,47.147 417.011,45.377 "
   id="polygon228"
   style="clip-rule:evenodd;fill:#48bac1;fill-rule:evenodd" />
		<path
   d="m 419.805,43.87 c 0.609,0 1.105,0.562 1.105,1.251 0,0.689 -0.496,1.251 -1.105,1.251 -0.609,0 -1.106,-0.563 -1.106,-1.251 0,-0.689 0.497,-1.251 1.106,-1.251 z"
   id="path230"
   inkscape:connector-curvature="0"
   style="clip-rule:evenodd;fill:#48bac1;fill-rule:evenodd" />
		<polygon
   points="429.048,54.894 429.048,47.655 423.436,47.655 423.436,54.894 "
   id="polygon232"
   style="clip-rule:evenodd;fill:#48bac1;fill-rule:evenodd" />
		<polygon
   points="429.05,45.377 429.05,47.147 423.437,47.147 423.437,45.377 "
   id="polygon234"
   style="clip-rule:evenodd;fill:#48bac1;fill-rule:evenodd" />
		<path
   d="m 426.231,43.868 c 0.61,0 1.106,0.562 1.106,1.251 0,0.689 -0.496,1.251 -1.106,1.251 -0.609,0 -1.105,-0.562 -1.105,-1.251 0,-0.689 0.496,-1.251 1.105,-1.251 z"
   id="path236"
   inkscape:connector-curvature="0"
   style="clip-rule:evenodd;fill:#48bac1;fill-rule:evenodd" />
	</g>
</g>





<g
   id="g616"
   transform="translate(-306.65,-16.721)">
</g>
<g
   id="g618"
   transform="translate(-306.65,-16.721)">
</g>
<g
   id="g620"
   transform="translate(-306.65,-16.721)">
</g>
<g
   id="g622"
   transform="translate(-306.65,-16.721)">
</g>
<g
   id="g624"
   transform="translate(-306.65,-16.721)">
</g>
<g
   id="g626"
   transform="translate(-306.65,-16.721)">
</g>
</svg>