<?xml version="1.0" encoding="UTF-8" standalone="no"?>
<!-- Generator: Adobe Illustrator 17.0.0, SVG Export Plug-In . SVG Version: 6.00 Build 0)  -->

<svg
   xmlns:dc="http://purl.org/dc/elements/1.1/"
   xmlns:cc="http://creativecommons.org/ns#"
   xmlns:rdf="http://www.w3.org/1999/02/22-rdf-syntax-ns#"
   xmlns:svg="http://www.w3.org/2000/svg"
   xmlns="http://www.w3.org/2000/svg"
   xmlns:sodipodi="http://sodipodi.sourceforge.net/DTD/sodipodi-0.dtd"
   xmlns:inkscape="http://www.inkscape.org/namespaces/inkscape"
   version="1.1"
   id="Слой_1"
   x="0px"
   y="0px"
   width="141.899"
   height="116.632"
   viewBox="0 0 141.899 116.632"
   enable-background="new 0 0 1200 150"
   xml:space="preserve"
   sodipodi:docname="5.svg"
   inkscape:version="0.92.4 (5da689c313, 2019-01-14)"><metadata
   id="metadata633"><rdf:RDF><cc:Work
       rdf:about=""><dc:format>image/svg+xml</dc:format><dc:type
         rdf:resource="http://purl.org/dc/dcmitype/StillImage" /><dc:title></dc:title></cc:Work></rdf:RDF></metadata><defs
   id="defs631" /><sodipodi:namedview
   pagecolor="#ffffff"
   bordercolor="#666666"
   borderopacity="1"
   objecttolerance="10"
   gridtolerance="10"
   guidetolerance="10"
   inkscape:pageopacity="0"
   inkscape:pageshadow="2"
   inkscape:window-width="1920"
   inkscape:window-height="1017"
   id="namedview629"
   showgrid="false"
   inkscape:zoom="0.66939442"
   inkscape:cx="406.70231"
   inkscape:cy="-41.186417"
   inkscape:window-x="-8"
   inkscape:window-y="-8"
   inkscape:window-maximized="1"
   inkscape:current-layer="Слой_1"
   fit-margin-top="0"
   fit-margin-left="0"
   fit-margin-right="0"
   fit-margin-bottom="0" />





<g
   id="g450"
   transform="translate(-754.24,-16.722)">
	<g
   id="g412">
		<path
   d="M 817.805,55.883 V 39.354 h 23.568 v 16.005 h -23.566 v 0.524 z m 21.302,-2.981 c 0,-0.595 -0.415,-1.078 -0.93,-1.078 -0.515,0 -0.931,0.483 -0.931,1.078 0,0.596 0.416,1.081 0.931,1.081 0.514,0 0.93,-0.486 0.93,-1.081 z m -4.167,-0.516 v -9.77 h -14.016 v 9.77 z M 839.38,50 v -0.842 h -2.227 V 50 Z m -0.004,-2.163 v -0.842 h -2.223 v 0.842 z m 0,-2.224 v -0.838 h -2.223 v 0.838 z m -0.002,-2.155 v -0.842 h -2.221 v 0.842 z"
   id="path374"
   inkscape:connector-curvature="0"
   style="clip-rule:evenodd;fill:#bd4570;fill-rule:evenodd" />
		<polygon
   points="841.844,16.727 843.456,16.727 843.456,57.78 841.844,57.78 "
   id="polygon376"
   style="clip-rule:evenodd;fill:#bd4570;fill-rule:evenodd" />
		<path
   d="m 843.458,95.512 v -6.176 h 29.626 v 6.176 z m 16.995,-1.746 V 91.45 h -4.003 v 2.317 h 4.003 z m -11.311,-1.252 c 0,-0.589 -0.41,-1.063 -0.917,-1.063 -0.505,0 -0.917,0.473 -0.917,1.063 0,0.587 0.412,1.062 0.917,1.062 0.507,0 0.917,-0.475 0.917,-1.062 z m 15.407,0 c 0,-0.589 -0.411,-1.063 -0.918,-1.063 -0.508,0 -0.917,0.473 -0.917,1.063 0,0.587 0.408,1.062 0.917,1.062 0.507,0 0.918,-0.475 0.918,-1.062 z m -10.518,0 c 0,-0.589 -0.409,-1.065 -0.915,-1.065 -0.506,0 -0.919,0.475 -0.919,1.065 0,0.587 0.413,1.06 0.919,1.06 0.506,0.001 0.915,-0.473 0.915,-1.06 z m 15.018,0 c 0,-0.589 -0.412,-1.065 -0.919,-1.065 -0.507,0 -0.915,0.475 -0.915,1.065 0,0.587 0.408,1.06 0.915,1.06 0.507,0 0.919,-0.473 0.919,-1.06 z"
   id="path378"
   inkscape:connector-curvature="0"
   style="clip-rule:evenodd;fill:#bd4570;fill-rule:evenodd" />
		<path
   d="M 843.458,128.533 V 96.068 h 29.626 v 32.465 z m 25.591,-4.054 v -21.96 h 1.158 v -2.459 h -23.875 v 2.459 h 0.976 v 21.96 z m -22.265,-22.478 v -1.423 h 22.973 v 1.423 h -0.708 v -0.233 h -21.74 v 0.233 z"
   id="path380"
   inkscape:connector-curvature="0"
   style="clip-rule:evenodd;fill:#bd4570;fill-rule:evenodd" />
		<polygon
   points="869.757,100.578 869.757,102.001 846.784,102.001 846.784,100.578 "
   id="polygon382"
   style="clip-rule:evenodd;fill:#bd4570;fill-rule:evenodd" />
		<polygon
   points="843.458,55.912 843.458,57.778 817.805,57.778 817.805,55.912 "
   id="polygon384"
   style="clip-rule:evenodd;fill:#bd4570;fill-rule:evenodd" />
		<polygon
   points="866.536,42.616 866.536,16.722 850.674,16.722 850.674,42.616 "
   id="polygon386"
   style="clip-rule:evenodd;fill:#bd4570;fill-rule:evenodd" />
		<polygon
   points="873.087,55.879 866.466,43.32 850.692,43.32 844.074,55.879 "
   id="polygon388"
   style="clip-rule:evenodd;fill:#bd4570;fill-rule:evenodd" />
		<path
   d="M 754.24,87.464 V 16.725 h 32.789 V 87.463 H 759.937 V 62.355 h -3.539 v 25.109 z m 2.611,0 V 62.875 h 2.635 v 24.589 z"
   id="path390"
   inkscape:connector-curvature="0"
   style="clip-rule:evenodd;fill:#bd4570;fill-rule:evenodd" />
		<path
   d="m 754.242,133.352 v -44.02 h 2.157 v 11.544 h 3.539 V 89.332 h 27.092 v 44.02 z m 2.609,-32.998 V 89.332 h 2.635 v 11.022 z"
   id="path392"
   inkscape:connector-curvature="0"
   style="clip-rule:evenodd;fill:#bd4570;fill-rule:evenodd" />
		<polygon
   points="759.486,62.875 759.486,100.354 756.851,100.354 756.851,62.875 "
   id="polygon394"
   style="clip-rule:evenodd;fill:#bd4570;fill-rule:evenodd" />
		<path
   d="M 787.504,57.778 V 16.725 h 14.675 v 41.053 z m 12.612,-3.591 V 20.32 h -10.373 v 33.867 z m -9.921,-0.522 V 20.842 h 9.468 v 32.824 h -9.468 z m 8.265,-1.526 v -5.922 h -1.393 v 5.922 z"
   id="path396"
   inkscape:connector-curvature="0"
   style="clip-rule:evenodd;fill:#bd4570;fill-rule:evenodd" />
		<path
   d="M 802.656,57.778 V 16.725 h 14.674 v 41.053 z m 12.522,-3.591 V 20.32 h -10.371 v 33.867 z m -9.921,-0.522 V 20.842 h 9.469 v 32.824 h -9.469 z m 2.482,-1.526 v -5.922 h -1.392 v 5.922 z"
   id="path398"
   inkscape:connector-curvature="0"
   style="clip-rule:evenodd;fill:#bd4570;fill-rule:evenodd" />
		<path
   d="m 787.506,129.748 v -0.68 h 29.824 v 0.68 z m 0,-1.231 v -23.12 h 29.824 v 14.721 0 0.55 0 7.849 z m 27.676,-2.761 v -17.662 h -25.438 v 17.662 z m -24.987,-0.524 v -16.616 h 24.533 v 16.616 z m 14.874,-13.771 v -1.617 h -5.111 v 1.617 z m -17.563,-6.616 V 89.332 h 29.824 v 15.513 z m 27.676,-2.67 v -9.568 h -25.438 v 9.568 z m -24.987,-0.523 v -8.523 h 24.533 v 8.523 z m 14.874,-5.864 v -1.615 h -5.111 v 1.615 z"
   id="path400"
   inkscape:connector-curvature="0"
   style="clip-rule:evenodd;fill:#bd4570;fill-rule:evenodd" />
		<path
   d="m 817.33,133.354 v -4.287 0 1.316 h 0.475 v -1.316 h 25.176 v 4.287 z m 0,-4.837 v -7.849 0 7.849 z m 0.475,0 v -7.849 h 25.176 v 7.849 z m -0.475,-8.399 v -14.721 0 14.721 z m 0.475,0 v -14.721 h 25.176 v 14.721 z m 22.121,-2.457 v -9.777 h -19.921 v 9.777 z m -19.468,-0.52 v -8.732 h 19.018 v 8.732 z m 12.08,-5.68 v -1.617 h -5.112 v 1.617 z m -15.208,-6.616 v -15.513 0 15.513 z m 0.475,0 V 89.332 h 25.176 v 15.513 z m 22.121,-2.814 v -9.775 h -19.917 v 9.775 z m -19.468,-0.52 v -8.732 h 19.018 v 8.732 z m 12.08,-5.723 v -1.615 h -5.112 v 1.615 z"
   id="path402"
   inkscape:connector-curvature="0"
   style="clip-rule:evenodd;fill:#bd4570;fill-rule:evenodd" />
		<path
   d="M 873.559,128.517 V 89.336 h 22.58 v 39.182 h -22.58 z m 19.622,-2.84 V 92.174 h -16.664 v 33.503 z m -16.213,-0.524 V 92.698 h 15.762 v 32.455 z m 2.93,-13.329 v -5.927 h -1.393 v 5.927 z"
   id="path404"
   inkscape:connector-curvature="0"
   style="clip-rule:evenodd;fill:#bd4570;fill-rule:evenodd" />
		<polygon
   points="896.138,129.068 896.138,133.352 787.504,133.352 787.504,129.068 "
   id="polygon406"
   style="clip-rule:evenodd;fill:#bd4570;fill-rule:evenodd" />
		<path
   d="m 843.218,39.117 v -0.311 h -1.372 v -22.08 h 1.61 v 22.392 h -0.238 z m -25.413,-0.311 v -22.08 h 23.568 v 22.08 z m 22.119,-2.469 V 20.32 h -19.921 v 16.017 z m -19.47,-0.525 v -14.97 h 19.017 v 14.97 z m 12.084,-1.333 v -1.62 h -5.112 v 1.62 z"
   id="path408"
   inkscape:connector-curvature="0"
   style="clip-rule:evenodd;fill:#bd4570;fill-rule:evenodd" />
		<path
   d="M 873.56,57.778 V 16.727 h 22.578 v 41.051 z m 19.621,-3.534 V 20.261 H 876.517 V 54.244 Z M 876.968,53.72 V 20.786 H 892.73 V 53.72 Z m 2.93,-1.581 v -5.922 h -1.393 v 5.922 z"
   id="path410"
   inkscape:connector-curvature="0"
   style="clip-rule:evenodd;fill:#bd4570;fill-rule:evenodd" />
	</g>
	<g
   id="g448">
		<path
   d="m 891.815,63.609 v -1.564 h -4.447 v 1.564 z m -6.17,0 v -1.564 h -3.079 v 1.564 z m -4.801,0 v -1.564 h -2.304 v 1.564 z m -4.026,0 v -1.564 h -3.191 v 1.564 z"
   id="path414"
   inkscape:connector-curvature="0"
   style="clip-rule:evenodd;fill:#bd4570;fill-rule:evenodd" />
		<path
   d="m 881.638,71.014 c -0.93,0 -1.685,1.358 -1.685,3.03 0,1.671 0.755,3.03 1.685,3.03 0.931,0 1.686,-1.359 1.686,-3.03 0,-1.672 -0.755,-3.03 -1.686,-3.03 z"
   id="path416"
   inkscape:connector-curvature="0"
   style="clip-rule:evenodd;fill:#bd4570;fill-rule:evenodd" />
		<polygon
   points="884.064,76.53 885.246,70.759 887.859,70.759 889.044,76.53 "
   id="polygon418"
   style="clip-rule:evenodd;fill:#bd4570;fill-rule:evenodd" />
		<polygon
   points="886.153,73.645 886.153,60.735 886.873,60.735 886.873,73.645 "
   id="polygon420"
   style="clip-rule:evenodd;fill:#bd4570;fill-rule:evenodd" />
		<polygon
   points="881.386,73.645 881.386,60.735 882.106,60.735 882.106,73.645 "
   id="polygon422"
   style="clip-rule:evenodd;fill:#bd4570;fill-rule:evenodd" />
		<path
   d="m 877.55,71.014 c -0.931,0 -1.685,0.952 -1.685,2.123 0,1.172 0.754,2.124 1.685,2.124 0.931,0 1.685,-0.952 1.685,-2.124 0,-1.171 -0.754,-2.123 -1.685,-2.123 z"
   id="path424"
   inkscape:connector-curvature="0"
   style="clip-rule:evenodd;fill:#bd4570;fill-rule:evenodd" />
		<polygon
   points="877.297,73.645 877.297,60.735 878.016,60.735 878.016,73.645 "
   id="polygon426"
   style="clip-rule:evenodd;fill:#bd4570;fill-rule:evenodd" />
		<polygon
   points="843.419,77.499 843.419,75.425 817.743,75.425 817.743,77.499 "
   id="polygon428"
   style="clip-rule:evenodd;fill:#bd4570;fill-rule:evenodd" />
		<polygon
   points="826.663,74.693 826.663,68.053 821.638,68.053 821.638,74.693 "
   id="polygon430"
   style="clip-rule:evenodd;fill:#bd4570;fill-rule:evenodd" />
		<polygon
   points="826.664,65.961 826.664,67.585 821.64,67.585 821.64,65.961 "
   id="polygon432"
   style="clip-rule:evenodd;fill:#bd4570;fill-rule:evenodd" />
		<path
   d="m 824.143,64.577 c 0.545,0 0.99,0.517 0.99,1.149 0,0.631 -0.445,1.147 -0.99,1.147 -0.545,0 -0.99,-0.517 -0.99,-1.147 0,-0.632 0.445,-1.149 0.99,-1.149 z"
   id="path434"
   inkscape:connector-curvature="0"
   style="clip-rule:evenodd;fill:#bd4570;fill-rule:evenodd" />
		<polygon
   points="832.397,74.693 832.397,68.053 827.372,68.053 827.372,74.693 "
   id="polygon436"
   style="clip-rule:evenodd;fill:#bd4570;fill-rule:evenodd" />
		<polygon
   points="832.398,65.964 832.398,67.587 827.374,67.587 827.374,65.964 "
   id="polygon438"
   style="clip-rule:evenodd;fill:#bd4570;fill-rule:evenodd" />
		<path
   d="m 829.877,64.579 c 0.545,0 0.99,0.517 0.99,1.149 0,0.631 -0.445,1.147 -0.99,1.147 -0.545,0 -0.99,-0.516 -0.99,-1.147 0,-0.632 0.445,-1.149 0.99,-1.149 z"
   id="path440"
   inkscape:connector-curvature="0"
   style="clip-rule:evenodd;fill:#bd4570;fill-rule:evenodd" />
		<polygon
   points="838.15,74.693 838.15,68.053 833.125,68.053 833.125,74.693 "
   id="polygon442"
   style="clip-rule:evenodd;fill:#bd4570;fill-rule:evenodd" />
		<polygon
   points="838.151,65.961 838.151,67.585 833.127,67.585 833.127,65.961 "
   id="polygon444"
   style="clip-rule:evenodd;fill:#bd4570;fill-rule:evenodd" />
		<path
   d="m 835.63,64.577 c 0.545,0 0.99,0.517 0.99,1.149 0,0.631 -0.445,1.147 -0.99,1.147 -0.545,0 -0.99,-0.517 -0.99,-1.147 0,-0.632 0.445,-1.149 0.99,-1.149 z"
   id="path446"
   inkscape:connector-curvature="0"
   style="clip-rule:evenodd;fill:#bd4570;fill-rule:evenodd" />
	</g>
</g>


<g
   id="g616"
   transform="translate(-754.24,-16.722)">
</g>
<g
   id="g618"
   transform="translate(-754.24,-16.722)">
</g>
<g
   id="g620"
   transform="translate(-754.24,-16.722)">
</g>
<g
   id="g622"
   transform="translate(-754.24,-16.722)">
</g>
<g
   id="g624"
   transform="translate(-754.24,-16.722)">
</g>
<g
   id="g626"
   transform="translate(-754.24,-16.722)">
</g>
</svg>