<?xml version="1.0" encoding="UTF-8" standalone="no"?>
<!-- Generator: Adobe Illustrator 17.0.0, SVG Export Plug-In . SVG Version: 6.00 Build 0)  -->

<svg
   xmlns:dc="http://purl.org/dc/elements/1.1/"
   xmlns:cc="http://creativecommons.org/ns#"
   xmlns:rdf="http://www.w3.org/1999/02/22-rdf-syntax-ns#"
   xmlns:svg="http://www.w3.org/2000/svg"
   xmlns="http://www.w3.org/2000/svg"
   xmlns:sodipodi="http://sodipodi.sourceforge.net/DTD/sodipodi-0.dtd"
   xmlns:inkscape="http://www.inkscape.org/namespaces/inkscape"
   version="1.1"
   id="Слой_1"
   x="0px"
   y="0px"
   width="138.207"
   height="117.235"
   viewBox="0 0 138.207 117.235"
   enable-background="new 0 0 1200 150"
   xml:space="preserve"
   sodipodi:docname="6.svg"
   inkscape:version="0.92.4 (5da689c313, 2019-01-14)"><metadata
   id="metadata633"><rdf:RDF><cc:Work
       rdf:about=""><dc:format>image/svg+xml</dc:format><dc:type
         rdf:resource="http://purl.org/dc/dcmitype/StillImage" /><dc:title></dc:title></cc:Work></rdf:RDF></metadata><defs
   id="defs631" /><sodipodi:namedview
   pagecolor="#ffffff"
   bordercolor="#666666"
   borderopacity="1"
   objecttolerance="10"
   gridtolerance="10"
   guidetolerance="10"
   inkscape:pageopacity="0"
   inkscape:pageshadow="2"
   inkscape:window-width="1920"
   inkscape:window-height="1017"
   id="namedview629"
   showgrid="false"
   inkscape:zoom="0.66939442"
   inkscape:cx="278.94473"
   inkscape:cy="-22.979003"
   inkscape:window-x="-8"
   inkscape:window-y="-8"
   inkscape:window-maximized="1"
   inkscape:current-layer="Слой_1"
   fit-margin-top="0"
   fit-margin-left="0"
   fit-margin-right="0"
   fit-margin-bottom="0" />






<g
   id="g532"
   transform="translate(-906.073,-16.613)">
	<g
   id="g484">
		<path
   d="m 963.677,95.831 v -6.208 h 30.504 v 6.208 z m 17.497,-1.755 v -2.329 h -4.117 v 2.329 z M 969.53,92.817 c 0,-0.59 -0.42,-1.067 -0.942,-1.067 -0.522,0 -0.942,0.477 -0.942,1.067 0,0.592 0.42,1.068 0.942,1.068 0.521,0 0.942,-0.476 0.942,-1.068 z m 15.861,0 c 0,-0.59 -0.421,-1.067 -0.943,-1.067 -0.522,0 -0.946,0.477 -0.946,1.067 0,0.592 0.424,1.068 0.946,1.068 0.522,0 0.943,-0.476 0.943,-1.068 z m -10.824,-0.002 c 0,-0.59 -0.425,-1.065 -0.946,-1.065 -0.521,0 -0.942,0.475 -0.942,1.065 0,0.59 0.421,1.07 0.942,1.07 0.521,0 0.946,-0.48 0.946,-1.07 z m 15.457,0 c 0,-0.59 -0.424,-1.065 -0.942,-1.065 -0.523,0 -0.945,0.475 -0.945,1.065 0,0.59 0.422,1.07 0.945,1.07 0.518,0 0.942,-0.48 0.942,-1.07 z"
   id="path452"
   inkscape:connector-curvature="0"
   style="clip-rule:evenodd;fill:#48bac1;fill-rule:evenodd" />
		<path
   d="M 963.677,129.002 V 96.386 h 30.504 v 32.616 z m 26.347,-4.071 v -22.064 h 1.194 v -2.468 H 966.64 v 2.468 h 1.003 v 22.064 z m -22.922,-22.582 v -1.428 h 23.652 v 1.428 h -0.73 v -0.232 h -22.381 v 0.232 z"
   id="path454"
   inkscape:connector-curvature="0"
   style="clip-rule:evenodd;fill:#48bac1;fill-rule:evenodd" />
		<polygon
   points="990.755,100.922 990.755,102.349 967.102,102.349 967.102,100.922 "
   id="polygon456"
   style="clip-rule:evenodd;fill:#48bac1;fill-rule:evenodd" />
		<polygon
   points="986.768,42.687 986.768,16.674 970.348,16.674 970.348,42.687 "
   id="polygon458"
   style="clip-rule:evenodd;fill:#48bac1;fill-rule:evenodd" />
		<polygon
   points="993.55,56.013 994.592,43.396 962.473,43.396 963.511,56.013 "
   id="polygon460"
   style="clip-rule:evenodd;fill:#48bac1;fill-rule:evenodd" />
		<path
   d="m 963.186,130.225 v -0.681 h -30.704 v 0.681 z m 0,-1.237 v -23.227 h -30.704 v 14.791 0 0.554 0 7.882 z m -28.491,-2.776 v -17.743 h 26.185 v 17.743 z m 25.724,-0.523 V 108.994 H 935.16 v 16.695 z m -15.316,-13.837 v -1.623 h 5.263 v 1.623 z m 18.083,-6.645 V 89.622 h -30.704 v 15.585 z m -28.491,-2.683 v -9.612 h 26.185 v 9.612 z M 960.419,102 V 93.437 H 935.16 V 102 Z m -15.316,-5.893 v -1.624 h 5.263 v 1.624 z"
   id="path462"
   inkscape:connector-curvature="0"
   style="clip-rule:evenodd;fill:#48bac1;fill-rule:evenodd" />
		<path
   d="m 932.482,133.848 v -4.303 0 1.32 h -0.489 v -1.32 h -25.919 v 4.303 z m 0,-4.86 v -7.882 0 7.882 z m -0.489,0 v -7.882 h -25.919 v 7.882 z m 0.489,-8.436 v -14.791 0 14.791 z m -0.489,0 v -14.791 h -25.919 v 14.791 z m -22.775,-2.472 v -9.818 h 20.508 v 9.818 z m 20.045,-0.522 v -8.772 h -19.579 v 8.772 z m -12.439,-5.706 v -1.623 h 5.263 v 1.623 z m 15.658,-6.645 v -15.585 0 15.585 z m -0.489,0 V 89.622 h -25.919 v 15.585 z m -22.777,-2.826 v -9.824 h 20.51 v 9.824 z m 20.044,-0.526 v -8.774 h -19.579 v 8.774 z m -12.436,-5.748 v -1.624 h 5.263 v 1.624 z"
   id="path464"
   inkscape:connector-curvature="0"
   style="clip-rule:evenodd;fill:#48bac1;fill-rule:evenodd" />
		<path
   d="M 1044.278,128.988 V 89.624 h -23.244 v 39.365 h 23.244 z m -20.2,-2.856 V 92.475 h 17.156 v 33.657 z m 16.692,-0.524 V 93 h -16.228 v 32.608 z m -3.017,-13.393 v -5.952 h 1.434 v 5.952 z"
   id="path466"
   inkscape:connector-curvature="0"
   style="clip-rule:evenodd;fill:#48bac1;fill-rule:evenodd" />
		<path
   d="M 1044.278,88.988 V 53.375 h -23.244 v 35.613 z m -20.2,-2.583 v -30.45 h 17.156 v 30.45 z M 1040.77,85.93 V 56.429 h -16.228 V 85.93 Z m -3.017,-12.116 v -5.385 h 1.434 v 5.385 z"
   id="path468"
   inkscape:connector-curvature="0"
   style="clip-rule:evenodd;fill:#48bac1;fill-rule:evenodd" />
		<path
   d="M 1044.278,52.75 V 16.613 h -23.244 V 52.75 Z m -20.2,-2.622 V 19.231 h 17.156 v 30.898 h -17.156 z m 16.692,-0.481 V 19.712 h -16.228 v 29.935 z m -3.017,-12.295 v -5.464 h 1.434 v 5.464 z"
   id="path470"
   inkscape:connector-curvature="0"
   style="clip-rule:evenodd;fill:#48bac1;fill-rule:evenodd" />
		<polygon
   points="1044.28,129.544 1044.28,133.846 906.073,133.846 906.073,129.544 "
   id="polygon472"
   style="clip-rule:evenodd;fill:#48bac1;fill-rule:evenodd" />
		<path
   d="M 996.017,89.622 V 73.016 h 24.264 v 16.081 h -24.262 v 0.524 h -0.002 z m 21.93,-2.995 c 0,-0.598 -0.429,-1.085 -0.958,-1.085 -0.529,0 -0.96,0.487 -0.96,1.085 0,0.6 0.432,1.084 0.96,1.084 0.529,0 0.958,-0.484 0.958,-1.084 z m -4.287,-0.516 v -9.818 h -14.431 v 9.818 z m 4.567,-2.401 v -0.846 h -2.291 v 0.846 z m 0,-2.173 v -0.844 h -2.291 v 0.844 z m 0,-2.23 v -0.846 h -2.291 v 0.846 z m 0,-2.171 v -0.844 h -2.287 v 0.844 z"
   id="path474"
   inkscape:connector-curvature="0"
   style="clip-rule:evenodd;fill:#48bac1;fill-rule:evenodd" />
		<path
   d="m 1020.588,128.99 v -7.884 h -25.919 v 7.884 z m 0,-8.438 v -14.789 h -25.919 v 14.789 z m -22.776,-2.468 v -9.823 h 20.509 v 9.823 z m 20.046,-0.526 v -8.772 h -19.582 v 8.772 z m -12.439,-5.702 v -1.625 h 5.265 v 1.625 z m 15.169,-6.649 V 89.624 h -25.919 v 15.583 z m -22.776,-2.826 v -9.822 h 20.509 v 9.822 z m 20.043,-0.526 v -8.774 h -19.579 v 8.774 z m -12.436,-5.748 v -1.62 h 5.265 v 1.62 z"
   id="path476"
   inkscape:connector-curvature="0"
   style="clip-rule:evenodd;fill:#48bac1;fill-rule:evenodd" />
		<path
   d="M 906.073,57.915 V 16.678 h 19.964 v 41.237 z m 17.35,-3.551 V 20.229 H 908.69 v 34.136 h 14.733 z M 909.087,53.84 V 20.753 h 13.935 V 53.84 Z m 2.591,-1.589 v -5.952 h -1.234 v 5.952 z"
   id="path478"
   inkscape:connector-curvature="0"
   style="clip-rule:evenodd;fill:#48bac1;fill-rule:evenodd" />
		<path
   d="M 926.47,57.917 V 16.674 h 14.6 v 41.243 z m 12.547,-3.609 V 20.284 h -10.323 v 34.024 z m -9.874,-0.524 V 20.811 h 9.424 v 32.973 z m 8.227,-1.533 v -5.952 h -1.386 v 5.952 z"
   id="path480"
   inkscape:connector-curvature="0"
   style="clip-rule:evenodd;fill:#48bac1;fill-rule:evenodd" />
		<path
   d="M 941.543,57.917 V 16.674 h 14.604 v 41.243 z m 12.462,-3.609 V 20.284 h -10.32 v 34.024 z m -9.873,-0.524 V 20.811 h 9.424 v 32.973 z m 2.472,-1.533 v -5.952 h -1.386 v 5.952 z"
   id="path482"
   inkscape:connector-curvature="0"
   style="clip-rule:evenodd;fill:#48bac1;fill-rule:evenodd" />
	</g>
	<g
   id="g530">
		<polygon
   points="978.499,88.99 978.499,80.226 966.309,80.226 966.309,88.99 "
   id="polygon486"
   style="clip-rule:evenodd;fill:#48bac1;fill-rule:evenodd" />
		<polygon
   points="979.024,79.779 979.024,78.854 965.639,78.854 965.639,79.779 "
   id="polygon488"
   style="clip-rule:evenodd;fill:#48bac1;fill-rule:evenodd" />
		<path
   d="m 970.713,79.023 c 0,-1.033 0.743,-1.872 1.658,-1.872 0.915,0 1.658,0.84 1.658,1.872 0,0.004 0,0.004 0,0.004 h -3.315 c -0.001,0 -0.001,0 -0.001,-0.004 z"
   id="path490"
   inkscape:connector-curvature="0"
   style="clip-rule:evenodd;fill:#48bac1;fill-rule:evenodd" />
		<polygon
   points="979.612,82.375 979.612,81.452 965.029,81.452 965.029,82.375 "
   id="polygon492"
   style="clip-rule:evenodd;fill:#48bac1;fill-rule:evenodd" />
		<path
   d="m 937.421,65.118 v -1.573 h 4.578 v 1.573 z m 6.353,0 v -1.573 h 3.169 v 1.573 z m 4.943,0 v -1.573 h 2.371 v 1.573 z m 4.145,0 v -1.573 h 3.285 v 1.573 z"
   id="path494"
   inkscape:connector-curvature="0"
   style="clip-rule:evenodd;fill:#48bac1;fill-rule:evenodd" />
		<path
   d="m 947.896,72.557 c 0.958,0 1.735,1.364 1.735,3.044 0,1.68 -0.777,3.044 -1.735,3.044 -0.959,0 -1.736,-1.364 -1.736,-3.044 0,-1.68 0.777,-3.044 1.736,-3.044 z"
   id="path496"
   inkscape:connector-curvature="0"
   style="clip-rule:evenodd;fill:#48bac1;fill-rule:evenodd" />
		<polygon
   points="945.401,78.1 944.184,72.303 941.494,72.303 940.275,78.1 "
   id="polygon498"
   style="clip-rule:evenodd;fill:#48bac1;fill-rule:evenodd" />
		<polygon
   points="943.248,75.2 943.248,62.23 942.507,62.23 942.507,75.2 "
   id="polygon500"
   style="clip-rule:evenodd;fill:#48bac1;fill-rule:evenodd" />
		<polygon
   points="948.156,75.2 948.156,62.23 947.415,62.23 947.415,75.2 "
   id="polygon502"
   style="clip-rule:evenodd;fill:#48bac1;fill-rule:evenodd" />
		<path
   d="m 952.107,72.557 c 0.959,0 1.735,0.955 1.735,2.133 0,1.178 -0.776,2.133 -1.735,2.133 -0.959,0 -1.735,-0.955 -1.735,-2.133 0,-1.178 0.776,-2.133 1.735,-2.133 z"
   id="path504"
   inkscape:connector-curvature="0"
   style="clip-rule:evenodd;fill:#48bac1;fill-rule:evenodd" />
		<polygon
   points="952.367,75.202 952.367,62.232 951.626,62.232 951.626,75.202 "
   id="polygon506"
   style="clip-rule:evenodd;fill:#48bac1;fill-rule:evenodd" />
		<g
   id="g528">
			<polygon
   points="935.355,76.905 935.355,74.643 906.677,74.643 906.677,76.905 "
   id="polygon508"
   style="clip-rule:evenodd;fill:#48bac1;fill-rule:evenodd" />
			<polygon
   points="916.64,73.846 916.64,66.608 911.028,66.608 911.028,73.846 "
   id="polygon510"
   style="clip-rule:evenodd;fill:#48bac1;fill-rule:evenodd" />
			<polygon
   points="916.642,64.33 916.642,66.1 911.03,66.1 911.03,64.33 "
   id="polygon512"
   style="clip-rule:evenodd;fill:#48bac1;fill-rule:evenodd" />
			<path
   d="m 913.826,62.821 c 0.609,0 1.106,0.562 1.106,1.251 0,0.689 -0.496,1.251 -1.106,1.251 -0.609,0 -1.106,-0.562 -1.106,-1.251 0,-0.689 0.497,-1.251 1.106,-1.251 z"
   id="path514"
   inkscape:connector-curvature="0"
   style="clip-rule:evenodd;fill:#48bac1;fill-rule:evenodd" />
			<polygon
   points="923.045,73.846 923.045,66.608 917.433,66.608 917.433,73.846 "
   id="polygon516"
   style="clip-rule:evenodd;fill:#48bac1;fill-rule:evenodd" />
			<polygon
   points="923.046,64.33 923.046,66.1 917.435,66.1 917.435,64.33 "
   id="polygon518"
   style="clip-rule:evenodd;fill:#48bac1;fill-rule:evenodd" />
			<path
   d="m 920.229,62.823 c 0.609,0 1.105,0.562 1.105,1.251 0,0.689 -0.496,1.251 -1.105,1.251 -0.609,0 -1.106,-0.563 -1.106,-1.251 0,-0.689 0.497,-1.251 1.106,-1.251 z"
   id="path520"
   inkscape:connector-curvature="0"
   style="clip-rule:evenodd;fill:#48bac1;fill-rule:evenodd" />
			<polygon
   points="929.471,73.846 929.471,66.608 923.859,66.608 923.859,73.846 "
   id="polygon522"
   style="clip-rule:evenodd;fill:#48bac1;fill-rule:evenodd" />
			<polygon
   points="929.473,64.33 929.473,66.1 923.861,66.1 923.861,64.33 "
   id="polygon524"
   style="clip-rule:evenodd;fill:#48bac1;fill-rule:evenodd" />
			<path
   d="m 926.655,62.821 c 0.61,0 1.106,0.562 1.106,1.251 0,0.689 -0.496,1.251 -1.106,1.251 -0.609,0 -1.105,-0.562 -1.105,-1.251 0,-0.689 0.496,-1.251 1.105,-1.251 z"
   id="path526"
   inkscape:connector-curvature="0"
   style="clip-rule:evenodd;fill:#48bac1;fill-rule:evenodd" />
		</g>
	</g>
</g>

<g
   id="g616"
   transform="translate(-906.073,-16.613)">
</g>
<g
   id="g618"
   transform="translate(-906.073,-16.613)">
</g>
<g
   id="g620"
   transform="translate(-906.073,-16.613)">
</g>
<g
   id="g622"
   transform="translate(-906.073,-16.613)">
</g>
<g
   id="g624"
   transform="translate(-906.073,-16.613)">
</g>
<g
   id="g626"
   transform="translate(-906.073,-16.613)">
</g>
</svg>