<?xml version="1.0" encoding="utf-8"?>
<!-- Generator: Adobe Illustrator 17.0.0, SVG Export Plug-In . SVG Version: 6.00 Build 0)  -->
<!DOCTYPE svg PUBLIC "-//W3C//DTD SVG 1.1//EN" "http://www.w3.org/Graphics/SVG/1.1/DTD/svg11.dtd">
<svg version="1.1" id="Слой_1" xmlns="http://www.w3.org/2000/svg" xmlns:xlink="http://www.w3.org/1999/xlink" x="0px" y="0px"
	 width="400px" height="400px" viewBox="0 0 400 400" enable-background="new 0 0 400 400" xml:space="preserve">
<linearGradient id="SVGID_1_" gradientUnits="userSpaceOnUse" x1="183.7497" y1="18.0205" x2="229.3226" y2="538.9208">
	<stop  offset="0" style="stop-color:#F0F6FD"/>
	<stop  offset="0.1917" style="stop-color:#EEF5FC"/>
	<stop  offset="0.3457" style="stop-color:#E5F1FC"/>
	<stop  offset="0.4866" style="stop-color:#D7EBFA"/>
	<stop  offset="0.6197" style="stop-color:#C1E3F8"/>
	<stop  offset="0.7474" style="stop-color:#A1D7F4"/>
	<stop  offset="0.8709" style="stop-color:#72C8F0"/>
	<stop  offset="0.9891" style="stop-color:#00B6E9"/>
	<stop  offset="1" style="stop-color:#00B5E9"/>
</linearGradient>
<rect x="-2.036" y="-3.724" fill-rule="evenodd" clip-rule="evenodd" fill="url(#SVGID_1_)" width="403.202" height="405.029"/>
<g>
	<linearGradient id="SVGID_2_" gradientUnits="userSpaceOnUse" x1="286.3265" y1="18.5621" x2="60.2719" y2="380.3251">
		<stop  offset="0" style="stop-color:#85624B"/>
		<stop  offset="1" style="stop-color:#533929"/>
	</linearGradient>
	<path fill-rule="evenodd" clip-rule="evenodd" fill="url(#SVGID_2_)" d="M-2.036-3.724h19.084
		c-1.885,22.435-4.842,59.307-5.224,73.95c-0.566,21.7-0.566,21.7-0.566,21.7s16.279-31.569,36.621-48.571
		C68.22,26.352,59.51,7.994,66.974-3.724h12.672c-3.638,11.007,1.74,27.619-22.812,55.303
		c-24.552,27.684-33.688,43.737-36.519,61.367c-2.83,17.631-6.792,21.699-6.792,21.699s16.134-3.044,47.264-15.926
		c5.296-2.191-1.835-13.687,1.642-15.437c7.382-3.716,3.452,13.206,8.623,11.175c37.674-14.799,79.718,3.512,117.291,3.327
		c26.552-0.129,43.481-7.402,70.3-9.41c10.259-0.768,33.51,7.502,43.666,8.112c1.768,0.105,3.514-5.838,4.716-5.617
		c0.871,0.16-2.331,3.614-1.646,5.028c0.94,1.941,4.938,1.06,4.938,1.064c0,0.254-2.322,2.02-2.347,2.276
		c-0.057,0.561,6.383,3.466,6.153,3.969c-0.268,0.586-2.533,0.431-4.88,0.159c-1.162-0.136,3.449,5.137,2.478,5.017
		c-0.753-0.093-7.184-5.604-7.567-5.607c-0.573-0.004-1.219-0.037-1.924-0.085c-9.469-0.654-32.396-3.424-53.909-0.807
		c-20.853,2.536-40.098,10.45-62.059,10.558c-30.127,0.148-63.659-7.382-73.113-7.143c-3.698,0.093,2.269,3.101,4.577,5.634
		l16.951,18.615c0,0-3.058-0.354-6.201,0.542c-2.176,0.619-4.396,1.843-5.666,4.197c-0.871,1.614-0.983,3.492-1.308,5.32
		c-0.115,0.642-0.105,0.772-0.105,0.772s-9.888-19.969-17.516-23.692c-7.628-3.723-16.951-7.784-16.951-7.784
		c-27.513,10.742-42.998,19.757-71.71,24.731c0,0-5.116,20.976-2.776,44.21l5.04,50.047c0.555,5.508,55.36,18.433,83.92,22.395
		c26.104,3.62,54.741-10.698,87.818-18.183c39.485-8.935,83.747-11.896,116.247-14.513c36.924-2.973,56.436,6.394,89.306,13.68
		l-19.155,9.945c9.188,5.227,0.818,2.754-21.817,0.473c-48.063-4.837-99.762-4.162-147.245,4.673
		c-26.438,4.919-49.642,14.856-78.478,20.272c-24.213,4.548-47.086,1.982-82.597,1.385c-14.194-0.238-13.63,3.658-20.136,4.219
		l10.814,69.65c69.233-11.729,96.698-13.481,129.412-8.682c3.395,0.497-4.735-10.1-1.175-9.466
		c2.28,0.407,4.999,6.438,10.799,10.193c3.254,2.107,10.472,2.806,11.846,3.08c13.65,2.72,29.349,6.255,49.476,10.405
		c8.607,1.775,16.923,2.489,25.028,2.537c31.8,0.191,60.38-9.831,90.86-5.971c-5.302,0.634-9.474,7.177-9.474,15.618
		c0,8.441,4.608,15.665,10.292,15.665c-22.123,2.865-96.4-6.851-121.732-13.179c-57.006-14.245-113.118-21.672-168.118,7.698
		c-8.879,4.742-2.608,9.569-9.665,11.522H-2.036V-3.724z"/>
	<path fill-rule="evenodd" clip-rule="evenodd" fill="#B5BD10" d="M393.14,234.536c0,0-2.54,3.294-1.419,7.65
		c1.121,4.355,2.783,5.194,2.783,5.194s5.652-4.788,3.957-10.943c-1.695-6.155-3.407-8.641-3.407-8.641L393.14,234.536z"/>
	<path fill-rule="evenodd" clip-rule="evenodd" fill="#B5BD10" d="M395.472,265.903c0,0-2.497-3.341-1.319-7.675
		c1.178-4.335,2.85-5.143,2.85-5.143s5.59,4.893,3.816,11.016c-1.774,6.121-3.519,8.576-3.519,8.576L395.472,265.903z"/>
	<path fill-rule="evenodd" clip-rule="evenodd" fill="#B5BD10" d="M386.357,265.409c0,0-0.706-2.469,0.746-4.474
		c1.452-2.004,2.502-1.983,2.502-1.983s2.071,4.144-0.041,6.944c-2.11,2.801-3.511,3.643-3.511,3.643L386.357,265.409z"/>
	<g>
		<path fill-rule="evenodd" clip-rule="evenodd" fill="#B5BD10" d="M301.742,106.316c0,0-1.69,2.191-0.944,5.089
			c0.746,2.898,1.852,3.456,1.852,3.456s3.76-3.186,2.633-7.28c-1.127-4.095-2.266-5.749-2.266-5.749L301.742,106.316z"/>
		<path fill-rule="evenodd" clip-rule="evenodd" fill="#B5BD10" d="M301.139,132.008c0,0-1.661-2.222-0.878-5.106
			c0.784-2.883,1.896-3.421,1.896-3.421s3.718,3.256,2.538,7.329c-1.18,4.074-2.34,5.706-2.34,5.706L301.139,132.008z"/>
		<path fill-rule="evenodd" clip-rule="evenodd" fill="#B5BD10" d="M295.824,129.436c0,0-0.47-1.643,0.497-2.977
			c0.966-1.333,1.664-1.319,1.664-1.319s1.377,2.757-0.027,4.62c-1.404,1.863-2.335,2.423-2.335,2.423L295.824,129.436z"/>
		<path fill-rule="evenodd" clip-rule="evenodd" fill="#B5BD10" d="M314.029,111.423c0,0-1.587-1.672-3.624-0.853
			c-2.037,0.819-2.409,1.954-2.409,1.954s2.335,3.756,5.211,2.525c2.876-1.231,4.025-2.424,4.025-2.424L314.029,111.423z"/>
		<path fill-rule="evenodd" clip-rule="evenodd" fill="#B5BD10" d="M310.557,103.357c0,0-2.024,0.728-2.523,3.232
			c-0.498,2.504,0.108,3.483,0.108,3.483s3.896-0.385,4.547-3.96c0.651-3.575,0.414-5.373,0.414-5.373L310.557,103.357z"/>
		<path fill-rule="evenodd" clip-rule="evenodd" fill="#B5BD10" d="M309.366,133.843c0,0-2.112-0.101-3.116-2.376
			c-1.004-2.275-0.621-3.405-0.621-3.405s3.853-0.792,5.228,2.476c1.374,3.268,1.52,5.08,1.52,5.08L309.366,133.843z"/>
		<path fill-rule="evenodd" clip-rule="evenodd" fill="#B5BD10" d="M320.145,137.815c0,0-1.849-1.228-1.891-3.801
			c-0.042-2.574,0.726-3.376,0.726-3.376s3.738,1.37,3.738,5.029c0,3.66-0.551,5.356-0.551,5.356L320.145,137.815z"/>
		<path fill-rule="evenodd" clip-rule="evenodd" fill="#B5BD10" d="M314.002,132.027c0,0-1.578-1.125-1.557-3.362
			c0.021-2.236,0.704-2.908,0.704-2.908s3.216,1.309,3.135,4.486c-0.081,3.178-0.597,4.633-0.597,4.633L314.002,132.027z"/>
		<path fill-rule="evenodd" clip-rule="evenodd" fill="#B5BD10" d="M322.658,129.695c0,0-2.38,0.754-4.148-1.368
			c-1.767-2.122-1.662-3.538-1.662-3.538s4.064-2.46,6.528,0.615c2.464,3.075,3.143,5.033,3.143,5.033L322.658,129.695z"/>
		<path fill-rule="evenodd" clip-rule="evenodd" fill="#B5BD10" d="M318.707,115.307c0,0-1.8-0.435-3.038,1.239
			c-1.238,1.674-1.108,2.723-1.108,2.723s3.117,1.616,4.837-0.805c1.721-2.421,2.153-3.914,2.153-3.914L318.707,115.307z"/>
		<path fill-rule="evenodd" clip-rule="evenodd" fill="#B5BD10" d="M320.574,108.648c0,0-1.377,0.438-1.759,2.113
			c-0.381,1.675,0.011,2.351,0.011,2.351s2.633-0.158,3.136-2.552c0.504-2.394,0.376-3.611,0.376-3.611L320.574,108.648z"/>
	</g>
	<path fill-rule="evenodd" clip-rule="evenodd" fill="#85624B" d="M93.993,284.252c0,0,8.193,7.447,20.624,13.878
		c12.431,6.43,27.97,12.861,27.97,12.861l0.848,6.43c0,0-0.284,2.369-6.78-1.016c-2.385-1.241-15.522-2.609-27.426-7.746
		c-20.514-8.852-41.825-22.905-30.261-23.559L93.993,284.252z"/>
	<path fill-rule="evenodd" clip-rule="evenodd" fill="#B1886E" d="M352.917,395.265c5.669,0,10.292-7.037,10.292-15.665
		s-4.623-15.665-10.292-15.665c-5.669,0-10.292,7.037-10.292,15.665S347.249,395.265,352.917,395.265z"/>
	
		<path fill-rule="evenodd" clip-rule="evenodd" fill="none" stroke="#F5ECDA" stroke-width="0.216" stroke-linecap="round" stroke-linejoin="round" stroke-miterlimit="22.9256" d="
		M355.031,387.57c0,0,4.751-1.507,4.751-7.45c0-5.944-0.978-10.381-3.843-11.721c-2.865-1.339-7.408-0.418-8.806,5.944
		c-1.397,6.362-2.795,13.311,1.328,15.99c4.124,2.68,8.177,0.837,8.177,0.837"/>
	
		<path fill-rule="evenodd" clip-rule="evenodd" fill="none" stroke="#F5ECDA" stroke-width="0.216" stroke-linecap="round" stroke-linejoin="round" stroke-miterlimit="22.9256" d="
		M352.864,377.608c0,0,1.118-2.093,1.607-0.251c0.489,1.842-0.01,3.767-1.717,2.469c-1.707-1.298-2.196-4.563-0.728-5.651
		c1.467-1.088,3.494-2.177,4.751,1.507c1.258,3.684,0.35,7.535-1.607,8.204c-1.957,0.67-6.08,1.591-6.08-1.172
		c0-2.762-0.35-9.627,1.328-10.548c1.677-0.921,3.843-1.423,3.843-1.423"/>
	<g>
		<path fill-rule="evenodd" clip-rule="evenodd" fill="#B5BD10" d="M148.562,323.581c0,0-0.016-4.576-3.383-6.894
			c-3.367-2.318-5.094-1.56-5.094-1.56s-1.44,8.287,3.399,11.47c4.839,3.183,7.562,3.612,7.562,3.612L148.562,323.581z"/>
		<path fill-rule="evenodd" clip-rule="evenodd" fill="#B5BD10" d="M135.595,302.713c0,0,2.589,0.32,3.676,3.21
			c1.087,2.891,0.542,4.244,0.542,4.244s-4.788,0.615-6.265-3.53c-1.478-4.145-1.539-6.386-1.539-6.386L135.595,302.713z"/>
		<path fill-rule="evenodd" clip-rule="evenodd" fill="#B5BD10" d="M135.119,321.48c0,0,1.387-1.624,0.902-3.914
			c-0.484-2.289-1.326-2.776-1.326-2.776s-3.031,2.3-2.289,5.538c0.742,3.239,1.573,4.579,1.573,4.579L135.119,321.48z"/>
		<path fill-rule="evenodd" clip-rule="evenodd" fill="#B5BD10" d="M124.703,324.365c0,0,0.223-2.308,2.03-3.251
			c1.807-0.943,2.644-0.444,2.644-0.444s0.339,4.278-2.253,5.559c-2.591,1.28-3.985,1.315-3.985,1.315L124.703,324.365z"/>
		<path fill-rule="evenodd" clip-rule="evenodd" fill="#B5BD10" d="M133.335,328.33c0,0,0.884-2.492,3.164-2.832
			c2.28-0.34,3.077,0.547,3.077,0.547s-0.799,4.916-4.048,5.323c-3.248,0.408-4.815-0.105-4.815-0.105L133.335,328.33z"/>
		<path fill-rule="evenodd" clip-rule="evenodd" fill="#B5BD10" d="M150.672,297.068c0,0-4.494,0.544-6.388,5.555
			c-1.894,5.011-0.952,7.362-0.952,7.362s8.305,1.086,10.882-6.1c2.576-7.186,2.688-11.073,2.688-11.073L150.672,297.068z"/>
		<path fill-rule="evenodd" clip-rule="evenodd" fill="#B5BD10" d="M154.466,312.036c0,0-2.301-2.457-5.278-1.288
			c-2.977,1.169-3.53,2.82-3.53,2.82s3.373,5.506,7.579,3.745c4.205-1.76,5.89-3.485,5.89-3.485L154.466,312.036z"/>
		<path fill-rule="evenodd" clip-rule="evenodd" fill="#B5BD10" d="M158.143,323.528c0,0-0.848-2.461-3.086-2.823
			c-2.238-0.362-3.03,0.5-3.03,0.5s0.743,4.842,3.934,5.283c3.19,0.442,4.735-0.043,4.735-0.043L158.143,323.528z"/>
		<path fill-rule="evenodd" clip-rule="evenodd" fill="#B5BD10" d="M162.176,304.257c0,0-2.004-1.15-3.87,0.373
			c-1.866,1.524-1.973,2.8-1.973,2.8s3.256,3.003,5.874,0.776c2.618-2.228,3.496-3.826,3.496-3.826L162.176,304.257z"/>
		<path fill-rule="evenodd" clip-rule="evenodd" fill="#B5BD10" d="M138.802,294.339c0,0-1.398,2.965,0.065,5.949
			c1.463,2.985,2.813,3.259,2.813,3.259s3.481-4.721,1.333-8.916c-2.148-4.195-3.775-5.675-3.775-5.675L138.802,294.339z"/>
		<g>
			<path fill-rule="evenodd" clip-rule="evenodd" fill="#85624B" d="M138.493,361.68c-3.946,6.205-13.049,16.325-14.97,23.538
				l-0.098,0.154l0.056,0.012c-0.194,0.786-0.302,1.609-0.302,2.453c0,5.649,4.616,10.226,10.311,10.226
				c4.394,0,8.145-2.728,9.629-6.569c3.015-7.814,3.969-19.291,5.733-27.782L138.493,361.68z"/>
			<path fill-rule="evenodd" clip-rule="evenodd" fill="#B1886E" d="M133.49,397.356c5.286,0,9.598-4.278,9.598-9.522
				c0-5.244-4.312-9.522-9.598-9.522s-9.598,4.278-9.598,9.522C123.892,393.079,128.204,397.356,133.49,397.356z"/>
			
				<path fill-rule="evenodd" clip-rule="evenodd" fill="none" stroke="#F5ECDA" stroke-width="0.216" stroke-linecap="round" stroke-linejoin="round" stroke-miterlimit="22.9256" d="
				M135.603,393.029c0,0,4.752-0.982,4.752-4.856c0-3.874-0.978-6.766-3.844-7.639c-2.865-0.873-7.407-0.273-8.805,3.874
				c-1.397,4.147-2.795,8.676,1.328,10.422c4.123,1.746,8.176,0.545,8.176,0.545"/>
			
				<path fill-rule="evenodd" clip-rule="evenodd" fill="none" stroke="#F5ECDA" stroke-width="0.216" stroke-linecap="round" stroke-linejoin="round" stroke-miterlimit="22.9256" d="
				M133.437,386.536c0,0,1.118-1.364,1.607-0.164c0.489,1.201-0.01,2.456-1.717,1.61c-1.707-0.846-2.196-2.974-0.729-3.683
				c1.467-0.71,3.494-1.419,4.752,0.982c1.258,2.401,0.35,4.911-1.607,5.348c-1.957,0.436-6.08,1.036-6.08-0.764
				c0-1.801-0.349-6.275,1.328-6.875c1.677-0.6,3.843-0.927,3.843-0.927"/>
		</g>
	</g>
	
		<path fill-rule="evenodd" clip-rule="evenodd" fill="none" stroke="#BFA787" stroke-width="1.2277" stroke-linecap="round" stroke-linejoin="round" stroke-miterlimit="22.9256" d="
		M8.427,21.403c0,0-7.924,26.446-5.095,56.961c2.831,30.515,2.264,48.823,2.264,73.913c0,25.09-11.354,73.621,5.095,112.565
		c16.448,38.944,21.509,103.072,14.717,104.428c-6.792,1.356-20.377-13.561-13.019-18.309c7.358-4.747,7.924,6.781,7.924,6.781"/>
	
		<path fill-rule="evenodd" clip-rule="evenodd" fill="none" stroke="#BFA787" stroke-width="1.2274" stroke-linecap="round" stroke-linejoin="round" stroke-miterlimit="22.9256" d="
		M19.748,386.901c0,0,23.208,9.493,31.698-3.39c8.49-12.884,11.321-15.597,23.773-16.275c12.453-0.679,30.689-8.006,46.981-6.781"/>
	
		<path fill-rule="evenodd" clip-rule="evenodd" fill="none" stroke="#BFA787" stroke-width="1.2274" stroke-linecap="round" stroke-linejoin="round" stroke-miterlimit="22.9256" d="
		M102.39,114.981c-0.077-6.284-13.868,9.824-27.736,6.781c-13.867-3.042-40.755,16.274-40.755,16.274"/>
	
		<path fill-rule="evenodd" clip-rule="evenodd" fill="none" stroke="#BFA787" stroke-width="1.2277" stroke-linecap="round" stroke-linejoin="round" stroke-miterlimit="22.9256" d="
		M175.974,125.153c0,0,26.603,1.356,36.226-1.356c9.623-2.712,24.906-5.425,24.906-5.425"/>
	
		<path fill-rule="evenodd" clip-rule="evenodd" fill="none" stroke="#BFA787" stroke-width="1.2277" stroke-linecap="round" stroke-linejoin="round" stroke-miterlimit="22.9256" d="
		M332.766,388.257c0,0-22.641,4.747-41.32-4.069c-18.679-8.815-30.566-2.712-30.566-2.712"/>
	<path fill-rule="evenodd" clip-rule="evenodd" fill="#B1886E" d="M121.396,160.374l0.001,0.005c0,0-0.391,1.549,4.459,1.592
		c4.85,0.043,9.7-4.804,9.805-7.652c0.106-2.848-0.985-4.771-0.985-4.771h-0.003h-0.002c-0.124-0.014-3.118-0.335-6.195,0.542
		c-2.176,0.619-4.396,1.843-5.666,4.197c-0.871,1.614-0.983,3.492-1.308,5.32C121.395,160.201,121.395,160.355,121.396,160.374z"/>
	
		<path fill-rule="evenodd" clip-rule="evenodd" fill="none" stroke="#F5ECDA" stroke-width="0.216" stroke-linecap="round" stroke-linejoin="round" stroke-miterlimit="22.9256" d="
		M133.112,152.193c0,0-0.99-1.573-4.92,0.256c-3.929,1.828-4.851,3.189-5.133,5.186c-0.282,1.997-0.709,2.677,1.239,2.677
		c1.948,0,3.575,0.127,6.796-2.466c3.222-2.593,2.938-3.486,1.452-4.209c-1.486-0.723-4.461,0.596-5.841,1.701
		c-1.379,1.105-2.795,2.252-1.203,2.593c1.592,0.341,3.751-1.488,3.751-1.488"/>
</g>
<line fill-rule="evenodd" clip-rule="evenodd" fill="none" stroke="#B2B2B2" stroke-width="0.216" stroke-miterlimit="22.9256" x1="-5.886" y1="-7.443" x2="-5.886" y2="-17.125"/>
<line fill-rule="evenodd" clip-rule="evenodd" fill="none" stroke="#B2B2B2" stroke-width="0.216" stroke-miterlimit="22.9256" x1="-8.553" y1="-3.723" x2="-16.712" y2="-3.723"/>
<line fill-rule="evenodd" clip-rule="evenodd" fill="none" stroke="#B2B2B2" stroke-width="0.216" stroke-miterlimit="22.9256" x1="499.174" y1="-3.723" x2="491.015" y2="-3.723"/>
<line fill-rule="evenodd" clip-rule="evenodd" fill="none" stroke="#B2B2B2" stroke-width="0.216" stroke-miterlimit="22.9256" x1="-8.553" y1="401.306" x2="-16.712" y2="401.306"/>
<line fill-rule="evenodd" clip-rule="evenodd" fill="none" stroke="#B2B2B2" stroke-width="0.216" stroke-miterlimit="22.9256" x1="499.174" y1="401.306" x2="491.015" y2="401.306"/>
<line fill-rule="evenodd" clip-rule="evenodd" fill="none" stroke="#B2B2B2" stroke-width="0.216" stroke-miterlimit="22.9256" x1="-5.886" y1="413.671" x2="-5.886" y2="403.99"/>
<line fill-rule="evenodd" clip-rule="evenodd" fill="none" stroke="#B2B2B2" stroke-width="0.216" stroke-miterlimit="22.9256" x1="487.998" y1="-7.443" x2="487.998" y2="-17.125"/>
<line fill-rule="evenodd" clip-rule="evenodd" fill="none" stroke="#B2B2B2" stroke-width="0.216" stroke-miterlimit="22.9256" x1="487.998" y1="413.671" x2="487.998" y2="403.99"/>
<g>
</g>
<g>
</g>
<g>
</g>
<g>
</g>
<g>
</g>
<g>
</g>
</svg>
