<?xml version="1.0" encoding="UTF-8" standalone="no"?>
<!-- Created with Inkscape (http://www.inkscape.org/) -->

<svg
   xmlns:dc="http://purl.org/dc/elements/1.1/"
   xmlns:cc="http://creativecommons.org/ns#"
   xmlns:rdf="http://www.w3.org/1999/02/22-rdf-syntax-ns#"
   xmlns:svg="http://www.w3.org/2000/svg"
   xmlns="http://www.w3.org/2000/svg"
   xmlns:xlink="http://www.w3.org/1999/xlink"
   xmlns:sodipodi="http://sodipodi.sourceforge.net/DTD/sodipodi-0.dtd"
   xmlns:inkscape="http://www.inkscape.org/namespaces/inkscape"
   width="153.28734"
   height="194.05862"
   viewBox="0 0 40.557274 51.344679"
   version="1.1"
   id="svg1161"
   inkscape:version="0.92.4 (5da689c313, 2019-01-14)"
   sodipodi:docname="1.svg">
  <defs
     id="defs1155">
    <clipPath
       id="SVGID_2_">
      <use
         height="100%"
         width="100%"
         y="0"
         x="0"
         style="overflow:visible"
         xlink:href="#SVGID_1_"
         overflow="visible"
         id="use15" />
    </clipPath>
    <clipPath
       id="SVGID_4_">
      <use
         height="100%"
         width="100%"
         y="0"
         x="0"
         style="overflow:visible"
         xlink:href="#SVGID_3_"
         overflow="visible"
         id="use91" />
    </clipPath>
    <clipPath
       id="SVGID_6_">
      <use
         height="100%"
         width="100%"
         y="0"
         x="0"
         style="overflow:visible"
         xlink:href="#SVGID_5_"
         overflow="visible"
         id="use193" />
    </clipPath>
    <clipPath
       id="SVGID_8_">
      <use
         height="100%"
         width="100%"
         y="0"
         x="0"
         style="overflow:visible"
         xlink:href="#SVGID_7_"
         overflow="visible"
         id="use251" />
    </clipPath>
    <clipPath
       id="SVGID_10_">
      <use
         height="100%"
         width="100%"
         y="0"
         x="0"
         style="overflow:visible"
         xlink:href="#SVGID_9_"
         overflow="visible"
         id="use335" />
    </clipPath>
    <clipPath
       id="SVGID_12_">
      <use
         height="100%"
         width="100%"
         y="0"
         x="0"
         style="overflow:visible"
         xlink:href="#SVGID_11_"
         overflow="visible"
         id="use453" />
    </clipPath>
    <clipPath
       id="SVGID_14_">
      <use
         height="100%"
         width="100%"
         y="0"
         x="0"
         style="overflow:visible"
         xlink:href="#SVGID_13_"
         overflow="visible"
         id="use597" />
    </clipPath>
    <clipPath
       id="SVGID_16_">
      <use
         height="100%"
         width="100%"
         y="0"
         x="0"
         style="overflow:visible"
         xlink:href="#SVGID_15_"
         overflow="visible"
         id="use679" />
    </clipPath>
    <clipPath
       id="SVGID_18_">
      <use
         height="100%"
         width="100%"
         y="0"
         x="0"
         style="overflow:visible"
         xlink:href="#SVGID_17_"
         overflow="visible"
         id="use785" />
    </clipPath>
    <clipPath
       id="SVGID_20_">
      <use
         height="100%"
         width="100%"
         y="0"
         x="0"
         style="overflow:visible"
         xlink:href="#SVGID_19_"
         overflow="visible"
         id="use837" />
    </clipPath>
    <clipPath
       id="SVGID_22_">
      <use
         height="100%"
         width="100%"
         y="0"
         x="0"
         style="overflow:visible"
         xlink:href="#SVGID_21_"
         overflow="visible"
         id="use915" />
    </clipPath>
    <clipPath
       id="SVGID_24_">
      <use
         height="100%"
         width="100%"
         y="0"
         x="0"
         style="overflow:visible"
         xlink:href="#SVGID_23_"
         overflow="visible"
         id="use1009" />
    </clipPath>
    <clipPath
       id="SVGID_26_">
      <use
         height="100%"
         width="100%"
         y="0"
         x="0"
         style="overflow:visible"
         xlink:href="#SVGID_25_"
         overflow="visible"
         id="use1129" />
    </clipPath>
    <clipPath
       id="SVGID_28_">
      <use
         height="100%"
         width="100%"
         y="0"
         x="0"
         style="overflow:visible"
         xlink:href="#SVGID_27_"
         overflow="visible"
         id="use1177" />
    </clipPath>
    <path
       inkscape:connector-curvature="0"
       id="SVGID_1_"
       d="m 85.61,63.771 c 0,0 9.11,-7.035 22.765,-12.285 6.524,-2.508 21.116,-6.162 22.188,-5.343 1.133,1.889 5.288,20.02 5.415,28.834 0.125,8.814 -5.667,28.584 -7.177,29.34 -1.511,0.754 -22.784,-5.016 -28.585,-8.31 C 94.676,92.859 89.593,88.308 85.611,83.54 85.61,80.015 85.61,63.771 85.61,63.771 Z" />
    <path
       inkscape:connector-curvature="0"
       id="SVGID_3_"
       d="m 66.218,63.771 c 0,0 -9.109,-7.035 -22.765,-12.285 -6.523,-2.508 -21.116,-6.162 -22.186,-5.343 -1.133,1.889 -5.288,20.021 -5.414,28.836 -0.127,8.812 5.666,28.582 7.176,29.338 1.511,0.754 22.782,-5.016 28.583,-8.31 5.54,-3.148 10.624,-7.699 14.605,-12.467 0.001,-3.525 0.001,-19.769 0.001,-19.769 z" />
    <path
       inkscape:connector-curvature="0"
       id="SVGID_5_"
       d="m 216.268,64.571 c 0,0 -9.109,-7.034 -22.765,-12.285 -6.523,-2.509 -21.116,-6.162 -22.187,-5.343 -1.133,1.889 -5.288,20.021 -5.414,28.835 -0.127,8.814 5.666,28.583 7.176,29.339 1.511,0.755 22.782,-5.014 28.583,-8.311 5.54,-3.147 10.624,-7.697 14.605,-12.465 0.002,-3.527 0.002,-19.77 0.002,-19.77 z" />
    <path
       inkscape:connector-curvature="0"
       id="SVGID_7_"
       d="m 235.66,64.57 c 0,0 9.11,-7.034 22.765,-12.285 6.524,-2.509 21.116,-6.162 22.188,-5.343 1.133,1.888 5.288,20.021 5.415,28.835 0.125,8.814 -5.667,28.583 -7.177,29.339 -1.511,0.755 -22.784,-5.014 -28.585,-8.311 -5.54,-3.148 -10.623,-7.697 -14.605,-12.466 C 235.66,80.814 235.66,64.57 235.66,64.57 Z" />
    <path
       inkscape:connector-curvature="0"
       id="SVGID_9_"
       d="m 365.769,66.058 c 0,0 -9.111,-7.032 -22.767,-12.284 -6.523,-2.508 -21.116,-6.161 -22.186,-5.343 -1.133,1.89 -5.289,20.021 -5.415,28.835 -0.126,8.814 5.667,28.583 7.178,29.338 1.51,0.757 22.782,-5.013 28.583,-8.31 5.54,-3.148 10.624,-7.696 14.606,-12.465 0.001,-3.526 0.001,-19.771 0.001,-19.771 z" />
    <path
       inkscape:connector-curvature="0"
       id="SVGID_11_"
       d="m 385.16,66.058 c 0,0 9.111,-7.034 22.766,-12.284 6.524,-2.508 21.116,-6.161 22.187,-5.343 1.133,1.89 5.288,20.021 5.416,28.835 0.125,8.814 -5.667,28.583 -7.178,29.338 -1.511,0.757 -22.782,-5.014 -28.585,-8.31 -5.54,-3.148 -10.623,-7.696 -14.605,-12.465 -10e-4,-3.526 -10e-4,-19.771 -10e-4,-19.771 z" />
    <path
       inkscape:connector-curvature="0"
       id="SVGID_13_"
       d="m 515.153,66.489 c 0,0 -9.11,-7.035 -22.766,-12.286 -6.523,-2.509 -21.116,-6.162 -22.186,-5.343 -1.133,1.89 -5.289,20.021 -5.415,28.834 -0.125,8.814 5.667,28.583 7.178,29.339 1.51,0.754 22.782,-5.014 28.583,-8.311 5.539,-3.147 10.624,-7.697 14.606,-12.465 0,-3.525 0,-19.768 0,-19.768 z" />
    <path
       inkscape:connector-curvature="0"
       id="SVGID_15_"
       d="m 534.544,66.489 c 0,0 9.112,-7.035 22.766,-12.286 6.525,-2.509 21.116,-6.162 22.188,-5.343 1.133,1.888 5.287,20.021 5.415,28.834 0.125,8.814 -5.667,28.583 -7.178,29.339 -1.51,0.754 -22.782,-5.015 -28.584,-8.311 -5.54,-3.147 -10.622,-7.697 -14.606,-12.465 -10e-4,-3.525 -10e-4,-19.768 -10e-4,-19.768 z" />
    <path
       inkscape:connector-curvature="0"
       id="SVGID_17_"
       d="m 666.023,66.498 c 0,0 -9.111,-7.035 -22.766,-12.285 -6.523,-2.509 -21.116,-6.162 -22.186,-5.343 -1.133,1.888 -5.289,20.02 -5.415,28.834 -0.126,8.814 5.667,28.583 7.178,29.338 1.511,0.755 22.782,-5.014 28.583,-8.31 5.539,-3.148 10.624,-7.698 14.606,-12.465 0,-3.527 0,-19.769 0,-19.769 z" />
    <path
       inkscape:connector-curvature="0"
       id="SVGID_19_"
       d="m 685.413,66.497 c 0,0 9.111,-7.034 22.766,-12.284 6.525,-2.509 21.116,-6.162 22.188,-5.343 1.133,1.888 5.287,20.02 5.415,28.834 0.125,8.814 -5.667,28.583 -7.178,29.338 -1.51,0.755 -22.782,-5.014 -28.584,-8.31 -5.54,-3.149 -10.623,-7.698 -14.606,-12.465 -10e-4,-3.527 -10e-4,-19.77 -10e-4,-19.77 z" />
    <path
       inkscape:connector-curvature="0"
       id="SVGID_21_"
       d="m 814.768,66.498 c 0,0 -9.109,-7.035 -22.765,-12.286 -6.523,-2.509 -21.116,-6.161 -22.186,-5.343 -1.133,1.888 -5.288,20.021 -5.414,28.835 -0.127,8.814 5.666,28.583 7.176,29.339 1.511,0.756 22.782,-5.014 28.583,-8.31 5.54,-3.148 10.624,-7.697 14.605,-12.466 10e-4,-3.526 10e-4,-19.769 10e-4,-19.769 z" />
    <path
       inkscape:connector-curvature="0"
       id="SVGID_23_"
       d="m 834.16,66.498 c 0,0 9.11,-7.035 22.765,-12.285 6.524,-2.509 21.116,-6.162 22.188,-5.343 1.133,1.889 5.288,20.021 5.415,28.835 0.125,8.814 -5.667,28.584 -7.177,29.339 -1.511,0.756 -22.784,-5.015 -28.585,-8.31 -5.54,-3.148 -10.622,-7.697 -14.605,-12.466 -10e-4,-3.527 -10e-4,-19.77 -10e-4,-19.77 z" />
    <path
       inkscape:connector-curvature="0"
       id="SVGID_25_"
       d="m 984.75,66.772 c 0,0 9.11,-7.035 22.765,-12.285 6.524,-2.509 21.116,-6.161 22.187,-5.343 1.133,1.889 5.288,20.021 5.414,28.835 0.126,8.814 -5.666,28.584 -7.177,29.34 -1.511,0.755 -22.782,-5.015 -28.583,-8.311 -5.54,-3.148 -10.624,-7.697 -14.606,-12.466 0,-3.527 0,-19.77 0,-19.77 z" />
    <path
       inkscape:connector-curvature="0"
       id="SVGID_27_"
       d="m 965.359,66.772 c 0,0 -9.11,-7.034 -22.765,-12.285 -6.524,-2.509 -21.116,-6.162 -22.187,-5.343 -1.133,1.889 -5.289,20.021 -5.415,28.835 -0.126,8.814 5.667,28.583 7.178,29.339 1.511,0.755 22.782,-5.015 28.583,-8.311 5.54,-3.148 10.624,-7.697 14.606,-12.466 0,-3.526 0,-19.769 0,-19.769 z" />
  </defs>
  <sodipodi:namedview
     id="base"
     pagecolor="#ffffff"
     bordercolor="#666666"
     borderopacity="1.0"
     inkscape:pageopacity="0.0"
     inkscape:pageshadow="2"
     inkscape:zoom="0.98994949"
     inkscape:cx="163.67908"
     inkscape:cy="39.970688"
     inkscape:document-units="mm"
     inkscape:current-layer="layer1"
     showgrid="false"
     units="px"
     inkscape:window-width="1920"
     inkscape:window-height="1017"
     inkscape:window-x="-8"
     inkscape:window-y="-8"
     inkscape:window-maximized="1"
     fit-margin-top="0"
     fit-margin-left="0"
     fit-margin-right="0"
     fit-margin-bottom="0" />
  <metadata
     id="metadata1158">
    <rdf:RDF>
      <cc:Work
         rdf:about="">
        <dc:format>image/svg+xml</dc:format>
        <dc:type
           rdf:resource="http://purl.org/dc/dcmitype/StillImage" />
        <dc:title></dc:title>
      </cc:Work>
    </rdf:RDF>
  </metadata>
  <g
     inkscape:label="Layer 1"
     inkscape:groupmode="layer"
     id="layer1"
     transform="translate(-6.1823739,-245.13757)">
    <g
       transform="matrix(0.39726567,0,0,0.39726567,-3.5937243,240.74088)"
       id="g1288" />
    <g
       transform="matrix(0.39726567,0,0,0.39726567,-3.5937243,240.74088)"
       id="g1290" />
    <g
       transform="matrix(0.39726567,0,0,0.39726567,-3.5937243,240.74088)"
       id="g1292" />
    <g
       transform="matrix(0.39726567,0,0,0.39726567,-3.5937243,240.74088)"
       id="g1294" />
    <g
       transform="matrix(0.39726567,0,0,0.39726567,-3.5937243,240.74088)"
       id="g1296" />
    <g
       transform="matrix(0.39726567,0,0,0.39726567,-3.5937243,240.74088)"
       id="g1298" />
    <g
       transform="matrix(0.36466783,0,0,0.36466783,-1.0914262,244.55219)"
       id="Слой_9" />
    <g
       transform="matrix(0.36131508,0,0,0.36131508,-55.446778,243.62221)"
       id="g446">
      <g
         id="g438">
        <g
           id="g212">
          <g
             id="g162">
            <path
               style="fill:#b5d69b"
               inkscape:connector-curvature="0"
               d="m 237.187,81.184 c 0.877,-0.735 8.019,-8.698 8.763,-5.907 0.801,3.001 -5.713,5.01 -8.763,5.907 z"
               id="path140" />
            <path
               style="fill:#b5d69b"
               inkscape:connector-curvature="0"
               d="m 245.536,80.908 c 1.006,-0.806 6.494,-6.873 8.119,-4.966 1.857,2.181 -7.433,5.015 -8.119,4.966 z"
               id="path142" />
            <path
               style="fill:#b5d69b"
               inkscape:connector-curvature="0"
               d="m 251.58,81.895 c 1.159,-0.972 5.842,-5.776 7.758,-4.497 1.184,0.791 -1.276,2.351 -1.962,2.792 -1.661,1.068 -3.598,1.329 -5.796,1.705 z"
               id="path144" />
            <path
               style="fill:#b5d69b"
               inkscape:connector-curvature="0"
               d="m 257.41,83.228 c 0.471,-0.874 6.365,-6.114 7.109,-4.045 0.844,2.35 -5.492,5.057 -7.109,4.045 z"
               id="path146" />
            <path
               style="fill:#b5d69b"
               inkscape:connector-curvature="0"
               d="m 257.84,83.54 c 1.128,1.334 2.533,2.097 3.358,3.748 0.438,0.876 1.167,2.677 -0.384,2.505 -1.004,-0.111 -2.133,-2.047 -2.741,-2.767 -0.964,-1.142 -1.055,-2.187 -0.233,-3.486 z"
               id="path148" />
            <path
               style="fill:#b5d69b"
               inkscape:connector-curvature="0"
               d="m 252.258,82.503 c 0.599,0.509 6.617,6.418 4.12,7.277 -0.806,0.277 -2.892,-2.66 -3.183,-3.192 -0.725,-1.329 -0.941,-3.095 -0.937,-4.085 z"
               id="path150" />
            <path
               style="fill:#b5d69b"
               inkscape:connector-curvature="0"
               d="m 246.065,81.138 c 1.356,1.352 2.949,2.181 3.934,3.925 0.329,0.583 1.896,3.208 0.403,3.534 -0.985,0.215 -3.343,-2.982 -3.84,-3.676 -0.793,-1.107 -1.123,-2.241 -0.497,-3.783 z"
               id="path152" />
            <path
               style="fill:#b5d69b"
               inkscape:connector-curvature="0"
               d="m 237.55,81.216 c 2.293,0.695 4.338,3.009 5.873,4.793 0.681,0.792 2.518,3.268 0.406,3.492 -1.623,0.172 -3.938,-2.688 -4.851,-3.776 -1.036,-1.234 -2.426,-2.629 -1.428,-4.509 z"
               id="path154" />
            <g
               id="g160">
              <g
                 id="g158">
                <path
                   style="fill:#5c8b72"
                   inkscape:connector-curvature="0"
                   d="m 228.567,83.432 c 11.131,-2.395 22.292,-1.738 33.078,1.9 0.948,0.32 1.351,-1.174 0.411,-1.491 -11.042,-3.724 -22.51,-4.351 -33.901,-1.9 -0.974,0.21 -0.561,1.701 0.412,1.491 z"
                   id="path156" />
              </g>
            </g>
          </g>
          <g
             id="g186">
            <path
               style="fill:#b5d69b"
               inkscape:connector-curvature="0"
               d="m 224.882,44.062 c -0.232,-1.328 2.153,-3.321 3.132,-4.142 0.787,-0.66 2.612,-2.411 2.833,-0.463 0.326,2.868 -4.755,4.182 -5.965,4.605 z"
               id="path164" />
            <path
               style="fill:#b5d69b"
               inkscape:connector-curvature="0"
               d="m 224.85,44.425 c -0.567,-1.011 -5.021,-7.414 -6.455,-4.083 -0.546,1.269 1.484,3.123 2.415,3.605 1.314,0.68 2.815,0.448 4.04,0.478 z"
               id="path166" />
            <path
               style="fill:#b5d69b"
               inkscape:connector-curvature="0"
               d="m 225.103,50.943 c 0.482,-1.045 6.795,-8.857 7.655,-5.078 0.349,1.534 -2.626,3.427 -3.65,4.035 -1.337,0.794 -3.083,1.428 -4.005,1.043 z"
               id="path168" />
            <path
               style="fill:#b5d69b"
               inkscape:connector-curvature="0"
               d="m 224.693,51.456 c -0.701,-1.519 -2.408,-3.314 -4.036,-3.857 -0.914,-0.305 -2.865,-0.383 -3.267,0.773 -0.912,2.624 5.679,2.918 7.303,3.084 z"
               id="path170" />
            <path
               style="fill:#b5d69b"
               inkscape:connector-curvature="0"
               d="m 224.831,58.238 c 0.673,-0.646 6.374,-6.155 6.91,-4.282 0.3,1.046 -1.684,2.796 -2.353,3.319 -1.344,1.05 -2.611,1.267 -4.557,0.963 z"
               id="path172" />
            <path
               style="fill:#b5d69b"
               inkscape:connector-curvature="0"
               d="m 224.701,58.684 c -1.453,-1.622 -2.297,-2.862 -4.461,-3.663 -0.905,-0.335 -3.267,-0.854 -3.73,0.307 -0.915,2.294 6.432,3.986 8.191,3.356 z"
               id="path174" />
            <path
               style="fill:#b5d69b"
               inkscape:connector-curvature="0"
               d="m 223.683,65.091 c 0.633,-0.765 5.875,-6.803 6.406,-3.271 0.466,3.098 -5.052,2.94 -6.406,3.271 z"
               id="path176" />
            <path
               style="fill:#b5d69b"
               inkscape:connector-curvature="0"
               d="m 223.963,65.024 c -0.963,-2.664 -4.36,-5.687 -7.246,-3.657 0.774,2.601 4.8,3.963 7.246,3.657 z"
               id="path178" />
            <g
               id="g184">
              <g
                 id="g182">
                <path
                   style="fill:#5c8b72"
                   inkscape:connector-curvature="0"
                   d="m 223.975,41.329 c 0.889,11.999 -0.415,23.833 -3.905,35.349 -0.29,0.957 1.203,1.363 1.491,0.411 3.53,-11.649 4.859,-23.619 3.96,-35.761 -0.072,-0.987 -1.619,-0.994 -1.546,10e-4 z"
                   id="path180" />
              </g>
            </g>
          </g>
          <g
             id="g210">
            <path
               style="fill:#b5d69b"
               inkscape:connector-curvature="0"
               d="m 252.29,52.864 c 1.13,-1.178 2.289,-4.274 2.08,-5.943 -0.18,-1.434 -1.234,-2.908 -2.668,-1.976 -2.406,1.562 -1.194,5.962 0.588,7.919 z"
               id="path188" />
            <path
               style="fill:#b5d69b"
               inkscape:connector-curvature="0"
               d="m 251.993,53.113 c 1.238,-0.909 10.893,-1.823 9.37,1.096 -0.49,0.939 -2.628,1.223 -3.634,1.284 -2.025,0.122 -3.822,-1.213 -5.736,-2.38 z"
               id="path190" />
            <path
               style="fill:#b5d69b"
               inkscape:connector-curvature="0"
               d="m 245.315,59.39 c 0.201,-0.877 0.944,-1.785 1.244,-2.723 0.423,-1.323 0.43,-2.743 0.265,-4.096 -0.135,-1.106 -0.46,-4.369 -2.253,-2.991 -1.114,0.856 -1.217,3.711 -1.146,4.995 0.08,1.471 0.522,3.517 1.89,4.815 z"
               id="path192" />
            <path
               style="fill:#b5d69b"
               inkscape:connector-curvature="0"
               d="m 245.184,59.836 c 1.237,-1.15 9.619,-2.25 9.716,0.596 0.13,3.797 -9.57,-0.69 -9.716,-0.596 z"
               id="path194" />
            <path
               style="fill:#b5d69b"
               inkscape:connector-curvature="0"
               d="m 239.13,65.253 c 0.55,-2.174 1.537,-4.074 1.483,-6.46 -0.018,-0.822 -0.232,-3.475 -1.221,-3.864 -2.867,-1.127 -2.977,5.25 -2.595,6.607 0.41,1.457 0.904,2.608 2.333,3.717 z"
               id="path196" />
            <path
               style="fill:#b5d69b"
               inkscape:connector-curvature="0"
               d="m 238.833,65.501 c 1.186,-1.171 10.984,-3.75 10.118,-0.176 -0.37,1.526 -3.358,1.424 -4.554,1.397 -2.185,-0.049 -3.905,-0.863 -5.564,-1.221 z"
               id="path198" />
            <path
               style="fill:#b5d69b"
               inkscape:connector-curvature="0"
               d="m 232.976,70.752 c 1.688,-1.335 2.402,-3.263 2.486,-5.413 0.042,-1.081 -0.324,-4.002 -1.775,-3.809 -2.702,0.357 -1.246,7.403 -0.711,9.222 z"
               id="path200" />
            <path
               style="fill:#b5d69b"
               inkscape:connector-curvature="0"
               d="m 232.976,70.752 c 1.218,-0.803 10.851,-2.69 9.611,0.924 -0.974,2.841 -7.651,0.374 -9.611,-0.924 z"
               id="path202" />
            <g
               id="g208">
              <g
                 id="g206">
                <path
                   style="fill:#5c8b72"
                   inkscape:connector-curvature="0"
                   d="m 252.14,51.65 c -9.437,9.478 -19.364,18.42 -29.773,26.819 -0.776,0.626 0.325,1.714 1.094,1.094 10.409,-8.399 20.336,-17.341 29.773,-26.819 0.704,-0.707 -0.39,-1.801 -1.094,-1.094 z"
                   id="path204" />
              </g>
            </g>
          </g>
        </g>
        <g
           id="g364">
          <g
             id="g218">
            <g
               id="g216">
              <path
                 style="fill:#5c8b72"
                 inkscape:connector-curvature="0"
                 d="m 229.047,103.038 c 18.664,6.869 35.298,17.961 48.864,32.5 1.023,1.096 2.66,-0.548 1.64,-1.64 -13.844,-14.837 -30.847,-26.089 -49.888,-33.097 -1.406,-0.518 -2.008,1.725 -0.616,2.237 z"
                 id="path214" />
            </g>
          </g>
          <g
             id="g224">
            <g
               id="g222">
              <path
                 style="fill:#5c8b72"
                 inkscape:connector-curvature="0"
                 d="m 235.434,105.511 c 4.395,-0.092 8.852,-0.313 13.128,0.891 1.443,0.406 2.055,-1.832 0.617,-2.237 -4.478,-1.261 -9.14,-1.071 -13.745,-0.974 -1.494,0.032 -1.497,2.352 0,2.32 z"
                 id="path220" />
            </g>
          </g>
          <g
             id="g230">
            <g
               id="g228">
              <path
                 style="fill:#5c8b72"
                 inkscape:connector-curvature="0"
                 d="m 242.969,109.335 c 3.283,0.217 6.457,0.864 9.574,1.912 1.422,0.478 2.027,-1.763 0.617,-2.237 -3.312,-1.113 -6.705,-1.764 -10.191,-1.995 -1.494,-0.099 -1.485,2.222 0,2.32 z"
                 id="path226" />
            </g>
          </g>
          <g
             id="g236">
            <g
               id="g234">
              <path
                 style="fill:#5c8b72"
                 inkscape:connector-curvature="0"
                 d="m 249.713,112.786 c 2.818,0.333 5.565,1.065 8.175,2.181 1.36,0.582 2.543,-1.416 1.171,-2.003 -3.015,-1.29 -6.089,-2.113 -9.346,-2.498 -1.484,-0.176 -1.467,2.146 0,2.32 z"
                 id="path232" />
            </g>
          </g>
          <g
             id="g242">
            <g
               id="g240">
              <path
                 style="fill:#5c8b72"
                 inkscape:connector-curvature="0"
                 d="m 256.219,116.794 c 1.131,-0.159 2.248,0.327 3.295,0.688 1.128,0.389 2.255,0.778 3.383,1.167 1.418,0.489 2.022,-1.752 0.617,-2.237 -2.522,-0.87 -5.191,-2.238 -7.911,-1.855 -1.477,0.207 -0.847,2.443 0.616,2.237 z"
                 id="path238" />
            </g>
          </g>
          <g
             id="g248">
            <g
               id="g246">
              <path
                 style="fill:#5c8b72"
                 inkscape:connector-curvature="0"
                 d="m 261.853,121.05 c 1.948,0.385 3.806,1 5.582,1.893 1.333,0.67 2.508,-1.331 1.171,-2.003 -1.952,-0.982 -3.991,-1.703 -6.136,-2.127 -1.462,-0.289 -2.085,1.947 -0.617,2.237 z"
                 id="path244" />
            </g>
          </g>
          <g
             id="g254">
            <g
               id="g252">
              <path
                 style="fill:#5c8b72"
                 inkscape:connector-curvature="0"
                 d="m 267.258,125.119 c 1.869,0.56 3.652,1.292 5.374,2.21 1.319,0.704 2.491,-1.299 1.171,-2.003 -1.894,-1.01 -3.873,-1.827 -5.929,-2.444 -1.436,-0.431 -2.045,1.808 -0.616,2.237 z"
                 id="path250" />
            </g>
          </g>
          <g
             id="g260">
            <g
               id="g258">
              <path
                 style="fill:#5c8b72"
                 inkscape:connector-curvature="0"
                 d="m 272.088,129.49 c 1.922,0.511 3.699,1.288 5.382,2.347 1.27,0.799 2.434,-1.209 1.171,-2.003 -1.842,-1.158 -3.834,-2.022 -5.936,-2.581 -1.448,-0.385 -2.062,1.852 -0.617,2.237 z"
                 id="path256" />
            </g>
          </g>
          <g
             id="g266">
            <g
               id="g264">
              <path
                 style="fill:#5c8b72"
                 inkscape:connector-curvature="0"
                 d="m 276.763,133.495 c 1.471,0.433 2.834,1.127 4.021,2.103 1.146,0.942 2.797,-0.69 1.641,-1.64 -1.506,-1.237 -3.172,-2.148 -5.045,-2.699 -1.438,-0.425 -2.048,1.815 -0.617,2.236 z"
                 id="path262" />
            </g>
          </g>
          <g
             id="g272">
            <g
               id="g270">
              <path
                 style="fill:#5c8b72"
                 inkscape:connector-curvature="0"
                 d="m 276.369,132.789 c -0.375,2.188 0.197,4.273 1.694,5.926 1.006,1.111 2.642,-0.535 1.641,-1.64 -0.898,-0.992 -1.325,-2.341 -1.097,-3.669 0.25,-1.463 -1.986,-2.089 -2.238,-0.617 z"
                 id="path268" />
            </g>
          </g>
          <g
             id="g278">
            <g
               id="g276">
              <path
                 style="fill:#5c8b72"
                 inkscape:connector-curvature="0"
                 d="m 271.78,129.129 c 0.23,1.988 0.783,3.839 1.727,5.608 0.705,1.32 2.707,0.148 2.003,-1.171 -0.738,-1.384 -1.229,-2.875 -1.41,-4.437 -0.17,-1.468 -2.492,-1.484 -2.32,0 z"
                 id="path274" />
            </g>
          </g>
          <g
             id="g284">
            <g
               id="g282">
              <path
                 style="fill:#5c8b72"
                 inkscape:connector-curvature="0"
                 d="m 266.321,124.553 c 0.244,2.163 0.822,4.183 1.784,6.137 0.66,1.342 2.661,0.166 2.003,-1.171 -0.768,-1.561 -1.271,-3.235 -1.467,-4.966 -0.166,-1.469 -2.488,-1.485 -2.32,0 z"
                 id="path280" />
            </g>
          </g>
          <g
             id="g290">
            <g
               id="g288">
              <path
                 style="fill:#5c8b72"
                 inkscape:connector-curvature="0"
                 d="m 261.107,120.42 c 0.215,2.011 0.847,3.879 2.001,5.55 0.844,1.222 2.856,0.064 2.003,-1.171 -0.91,-1.318 -1.514,-2.779 -1.685,-4.379 -0.156,-1.472 -2.478,-1.487 -2.319,0 z"
                 id="path286" />
            </g>
          </g>
          <g
             id="g296">
            <g
               id="g294">
              <path
                 style="fill:#5c8b72"
                 inkscape:connector-curvature="0"
                 d="m 254.774,115.241 c -0.63,2.535 1.131,4.96 2.232,7.122 0.679,1.334 2.68,0.159 2.003,-1.171 -0.743,-1.459 -2.42,-3.633 -1.998,-5.334 0.361,-1.452 -1.876,-2.068 -2.237,-0.617 z"
                 id="path292" />
            </g>
          </g>
          <g
             id="g302">
            <g
               id="g300">
              <path
                 style="fill:#5c8b72"
                 inkscape:connector-curvature="0"
                 d="m 248.202,112.373 c 0.688,2.135 1.662,4.137 2.949,5.975 0.851,1.215 2.864,0.058 2.003,-1.171 -1.175,-1.678 -2.087,-3.471 -2.715,-5.421 -0.456,-1.418 -2.697,-0.811 -2.237,0.617 z"
                 id="path298" />
            </g>
          </g>
          <g
             id="g308">
            <g
               id="g306">
              <path
                 style="fill:#5c8b72"
                 inkscape:connector-curvature="0"
                 d="m 241.738,108.825 c 0.731,2.417 2.084,4.55 4.003,6.198 1.129,0.969 2.777,-0.664 1.64,-1.64 -1.626,-1.396 -2.785,-3.119 -3.406,-5.174 -0.432,-1.428 -2.671,-0.819 -2.237,0.616 z"
                 id="path304" />
            </g>
          </g>
          <g
             id="g314">
            <g
               id="g312">
              <path
                 style="fill:#5c8b72"
                 inkscape:connector-curvature="0"
                 d="m 233.919,105.195 c 1.614,3.326 3.29,6.678 6.138,9.13 1.127,0.971 2.776,-0.663 1.64,-1.64 -2.702,-2.326 -4.246,-5.507 -5.775,-8.66 -0.652,-1.347 -2.653,-0.17 -2.003,1.17 z"
                 id="path310" />
            </g>
          </g>
          <g
             id="g320">
            <g
               id="g318">
              <path
                 style="fill:#5c8b72"
                 inkscape:connector-curvature="0"
                 d="m 258.459,118.271 c 0.125,2.843 0.9,5.516 2.341,7.971 0.757,1.289 2.762,0.122 2.003,-1.171 -1.236,-2.105 -1.917,-4.361 -2.024,-6.8 -0.065,-1.49 -2.386,-1.497 -2.32,0 z"
                 id="path316" />
            </g>
          </g>
          <g
             id="g326">
            <g
               id="g324">
              <path
                 style="fill:#5c8b72"
                 inkscape:connector-curvature="0"
                 d="m 263.523,122.13 c 0.36,2.833 1.144,5.489 2.413,8.049 0.665,1.34 2.666,0.165 2.003,-1.171 -1.074,-2.167 -1.791,-4.477 -2.097,-6.878 -0.185,-1.463 -2.507,-1.481 -2.319,0 z"
                 id="path322" />
            </g>
          </g>
          <g
             id="g332">
            <g
               id="g330">
              <path
                 style="fill:#5c8b72"
                 inkscape:connector-curvature="0"
                 d="m 268.662,126.489 c 0.231,2.505 1.007,4.838 2.409,6.934 0.827,1.237 2.838,0.077 2.003,-1.171 -1.167,-1.745 -1.899,-3.667 -2.092,-5.763 -0.136,-1.477 -2.457,-1.491 -2.32,0 z"
                 id="path328" />
            </g>
          </g>
          <g
             id="g338">
            <g
               id="g336">
              <path
                 style="fill:#5c8b72"
                 inkscape:connector-curvature="0"
                 d="m 245.427,110.783 c 0.679,2.873 2.142,5.429 4.265,7.479 1.076,1.039 2.719,-0.6 1.64,-1.64 -1.854,-1.79 -3.076,-3.948 -3.669,-6.455 -0.343,-1.456 -2.58,-0.838 -2.236,0.616 z"
                 id="path334" />
            </g>
          </g>
          <g
             id="g344">
            <g
               id="g342">
              <path
                 style="fill:#5c8b72"
                 inkscape:connector-curvature="0"
                 d="m 251.777,113.698 c 0.408,2.697 1.261,5.388 2.763,7.682 0.816,1.246 2.825,0.085 2.003,-1.171 -1.402,-2.141 -2.148,-4.612 -2.529,-7.128 -0.224,-1.475 -2.459,-0.846 -2.237,0.617 z"
                 id="path340" />
            </g>
          </g>
          <g
             id="g350">
            <g
               id="g348">
              <path
                 style="fill:#5c8b72"
                 inkscape:connector-curvature="0"
                 d="m 234.603,104.634 c 4.969,-1.541 10.02,-1.069 15.106,-0.5 1.486,0.166 1.47,-2.156 0,-2.32 -5.3,-0.593 -10.555,-1.02 -15.722,0.583 -1.425,0.442 -0.817,2.682 0.616,2.237 z"
                 id="path346" />
            </g>
          </g>
          <g
             id="g356">
            <g
               id="g354">
              <path
                 style="fill:#5c8b72"
                 inkscape:connector-curvature="0"
                 d="m 241.611,107.909 c 3.182,-0.092 6.309,0.162 9.43,0.798 1.46,0.297 2.082,-1.939 0.617,-2.237 -3.319,-0.676 -6.66,-0.979 -10.047,-0.881 -1.493,0.043 -1.497,2.363 0,2.32 z"
                 id="path352" />
            </g>
          </g>
          <g
             id="g362">
            <g
               id="g360">
              <path
                 style="fill:#5c8b72"
                 inkscape:connector-curvature="0"
                 d="m 238.122,106.674 c 0.567,3.157 3.208,6.289 5.217,8.682 0.963,1.147 2.596,-0.503 1.64,-1.64 -1.739,-2.072 -4.128,-4.921 -4.62,-7.658 -0.264,-1.472 -2.499,-0.847 -2.237,0.616 z"
                 id="path358" />
            </g>
          </g>
        </g>
        <path
           style="fill:#5c8b72"
           inkscape:connector-curvature="0"
           d="m 216.979,95.701 c -4.07,2.924 -6.172,10.878 -5.555,15.637 0.623,4.804 3.62,10.896 6.088,14.802 2.534,-1.741 6.584,-10.256 6.693,-20.503 0.027,-2.564 -0.689,-4.937 -1.659,-7.288 -0.306,-0.742 -0.558,-2.001 -1.185,-2.545 -1.01,-0.878 -2.399,-0.369 -4.382,-0.103 z"
           id="path366" />
        <path
           style="fill:#b5d69b"
           inkscape:connector-curvature="0"
           d="m 225.132,98.198 c 0.054,1.581 -0.836,3.293 -0.857,5.01 -0.025,2.136 0.377,4.272 0.9,6.32 1.001,3.919 2.476,7.779 4.565,11.247 4.488,7.45 12.04,12.49 18.954,17.467 1.909,1.375 3.926,2.56 5.835,3.938 1.71,1.235 3.189,3.069 4.953,4.119 0.362,-4.303 -1.607,-8.761 -3.052,-12.675 -2.148,-5.819 -4.957,-11.599 -8.721,-16.618 -3.389,-4.52 -7.332,-8.817 -11.914,-12.116 -2.714,-1.953 -6.767,-5.877 -10.663,-6.692 z"
           id="path368" />
        <g
           id="g394">
          <g
             id="g380">
            <g
               id="g374">
              <g
                 id="g372">
                <path
                   style="fill:#5c8b72"
                   inkscape:connector-curvature="0"
                   d="m 205.199,96.706 c -5.26,0.994 -10.157,2.928 -14.682,5.787 -0.841,0.531 -0.065,1.87 0.781,1.336 4.416,-2.79 9.181,-4.661 14.312,-5.631 0.979,-0.186 0.563,-1.676 -0.411,-1.492 z"
                   id="path370" />
              </g>
            </g>
            <path
               style="fill:#ea6b77"
               inkscape:connector-curvature="0"
               d="m 190.315,99.315 c -1.709,-1.015 -5.784,1.329 -7.298,2.086 -1.457,0.728 -4.521,1.963 -4.709,3.91 -0.108,1.121 0.52,1.38 1.379,1.534 1.029,0.185 1.251,0.03 2.163,0.583 2.129,1.29 4.272,0.595 6.345,-0.788 1.697,-1.133 6.298,-3.762 2.12,-7.325 z"
               id="path376" />
            <path
               style="fill:#5c8b72"
               inkscape:connector-curvature="0"
               d="m 189.044,99.204 c 1.614,-1.185 5.583,-0.825 5.955,1.483 0.338,2.095 -1.84,4.117 -3.571,4.732 -0.699,-0.571 -0.21,-1.158 -0.434,-1.836 -0.212,-0.642 -0.744,-0.682 -0.975,-1.228 -0.123,-0.29 0.167,-0.716 0.075,-0.956 -0.107,-0.279 -0.43,-0.495 -0.533,-0.777 -0.254,-0.697 -0.983,-1.073 -0.517,-1.418 z"
               id="path378" />
          </g>
          <g
             id="g392">
            <g
               id="g386">
              <g
                 id="g384">
                <path
                   style="fill:#5c8b72"
                   inkscape:connector-curvature="0"
                   d="m 215.365,89.724 c -9.367,5.069 -16.794,12.703 -21.594,22.212 -0.448,0.888 0.886,1.671 1.335,0.781 4.693,-9.297 11.879,-16.7 21.039,-21.657 0.878,-0.476 0.097,-1.811 -0.78,-1.336 z"
                   id="path382" />
              </g>
            </g>
            <path
               style="fill:#ea6b77"
               inkscape:connector-curvature="0"
               d="m 191.07,112.646 c -4.527,3.823 -7.116,10.945 -5.002,16.652 0.77,2.078 1.48,1.324 2.98,0.213 0.682,0.973 1.523,1.018 2.441,0.307 3.388,4.349 6.145,-5.632 6.553,-7.859 0.398,-2.171 0.636,-4.379 0.301,-6.563 -0.564,-3.679 -3.248,-4.071 -7.273,-2.75 z"
               id="path388" />
            <path
               style="fill:#5c8b72"
               inkscape:connector-curvature="0"
               d="m 190.171,113.306 c -0.404,-0.332 -1.296,0.155 -1.438,0.034 1.773,-1.752 5.166,-4.752 7.711,-3.015 1.594,1.088 3.355,4.491 2.16,6.246 -1.031,-0.715 -0.736,-1.88 -2.125,-1.392 -1.491,0.524 -1.734,1.37 -3.088,0.231 -0.355,-0.298 -0.468,-0.747 -0.926,-0.863 -0.437,-0.11 -0.828,0.497 -1.32,0.396 -1.139,-0.232 -0.454,-1.21 -0.974,-1.637 z"
               id="path390" />
          </g>
        </g>
        <g
           id="g426">
          <path
             style="fill:#b5d69b"
             inkscape:connector-curvature="0"
             d="m 186.697,27.73 c 1.464,-5.045 3.959,-12.8 9.781,-14.472 1.435,4.939 -5.304,14.119 -9.781,14.472 z"
             id="path396" />
          <path
             style="fill:#b5d69b"
             inkscape:connector-curvature="0"
             d="m 187.053,37.779 c 1.054,-5.498 4.953,-12.613 10.559,-14.663 -1.571,5.472 -2.977,16.007 -10.559,14.663 z"
             id="path398" />
          <path
             style="fill:#b5d69b"
             inkscape:connector-curvature="0"
             d="m 189.799,51.88 c -3.933,-8.75 7.395,-14.506 12.867,-18.575 -1.448,4.747 -4.385,9.803 -6.668,14.233 -1.235,2.396 -3.005,4.841 -6.199,4.342 z"
             id="path400" />
          <path
             style="fill:#b5d69b"
             inkscape:connector-curvature="0"
             d="m 194.709,61.641 c 0.614,-3.58 -0.111,-8.006 2.536,-10.964 2.028,-2.265 5.02,-3.939 7.543,-5.265 0.119,2.489 -1.16,5.381 -1.824,7.801 -0.508,1.851 -1.138,3.862 -2.097,5.532 -1.465,2.547 -3.377,3.104 -6.158,2.896 z"
             id="path402" />
          <path
             style="fill:#b5d69b"
             inkscape:connector-curvature="0"
             d="m 200.999,69.739 c 0.523,-2.929 0.803,-6.599 2.827,-9.414 1.556,-2.165 4.028,-3.679 5.586,-5.795 -0.046,4.441 0.65,17.318 -8.413,15.209 z"
             id="path404" />
          <path
             style="fill:#b5d69b"
             inkscape:connector-curvature="0"
             d="m 186.152,27.683 c -2.591,-6.731 -8.514,-9.646 -15.329,-9.238 0.642,2.992 4.433,6.303 6.883,7.895 2.843,1.846 6.122,2.171 8.446,1.343 z"
             id="path406" />
          <path
             style="fill:#b5d69b"
             inkscape:connector-curvature="0"
             d="m 187.077,37.507 c -0.818,-0.802 -1.204,-3.238 -2.218,-4.448 -1.078,-1.287 -2.725,-2.438 -4.254,-3.118 -2.885,-1.284 -6.96,-2.119 -10.036,-2.542 2.24,3.129 4.35,5.99 7.781,7.904 2.343,1.305 5.97,3.262 8.727,2.204 z"
             id="path408" />
          <path
             style="fill:#b5d69b"
             inkscape:connector-curvature="0"
             d="m 187.772,45.252 c -0.947,-0.717 -1.647,-3.351 -3.001,-4.493 -1.218,-1.028 -3.084,-1.623 -4.55,-2.099 -2.737,-0.888 -5.829,-1.489 -8.709,-1.643 3.208,3.707 9.9,11.774 16.26,8.235 z"
             id="path410" />
          <path
             style="fill:#b5d69b"
             inkscape:connector-curvature="0"
             d="m 192.022,57.838 c -1.634,-1.71 -1.985,-4.122 -3.884,-5.772 -1.648,-1.432 -3.921,-2.542 -5.906,-3.414 -3.491,-1.534 -7.315,-2.643 -11.11,-2.547 2.187,3.66 4.841,6.815 8.685,8.729 3.284,1.635 8.657,3.75 12.215,3.004 z"
             id="path412" />
          <path
             style="fill:#b5d69b"
             inkscape:connector-curvature="0"
             d="m 195.78,63.518 c -4.265,-5.811 -13.372,-6.419 -19.812,-6.511 4.064,5.452 13.161,11.12 19.812,6.511 z"
             id="path414" />
          <path
             style="fill:#b5d69b"
             inkscape:connector-curvature="0"
             d="m 201.147,69.615 c -6.717,-4.534 -14.622,-1.786 -21.298,0.989 4.653,1.337 7.375,4.186 12.545,3.475 1.572,-0.217 8.771,-1.446 8.753,-4.464 z"
             id="path416" />
          <g
             id="g422">
            <g
               id="g420">
              <path
                 style="fill:#5c8b72"
                 inkscape:connector-curvature="0"
                 d="m 182.076,15.817 c 4.909,12.777 1.631,27.09 7.265,39.704 5.428,12.152 15.184,21.001 26.07,28.291 1.663,1.113 3.209,-1.567 1.561,-2.671 -11.201,-7.501 -21.27,-16.818 -25.938,-29.781 -4.217,-11.711 -1.478,-24.659 -5.976,-36.366 -0.707,-1.841 -3.699,-1.042 -2.982,0.823 z"
                 id="path418" />
            </g>
          </g>
          <path
             style="fill:#b5d69b"
             inkscape:connector-curvature="0"
             d="m 186.137,23.153 c 3.821,-4.339 -0.348,-15.116 -3.828,-18.959 -8.433,6.44 -2.073,14.258 3.828,18.959 z"
             id="path424" />
        </g>
        <g
           id="g432">
          <path
             style="fill:#ea6b77"
             inkscape:connector-curvature="0"
             d="m 211.378,69.153 c -0.783,-4.387 -3.627,-7.603 -8.198,-9.147 -4.514,-1.525 -8.858,0.981 -11.652,4.406 -3.491,4.28 -3.816,8.822 -0.2,13.193 3.234,3.909 7.963,6.449 13.251,4.594 4.892,-1.716 7.759,-7.669 6.799,-13.046 z"
             id="path428" />
          <path
             style="fill:#5c8b72"
             inkscape:connector-curvature="0"
             d="m 206.878,59.54 c -0.503,0.891 -1.082,1.576 -1.547,2.357 -0.318,0.535 -0.768,0.969 -0.369,1.512 0.276,0.375 0.696,0.751 1.1,1.021 0.552,0.369 0.913,0.442 1.473,0.036 0.71,-0.516 1.594,-1.258 2.102,-1.975 -0.412,-0.095 -1.076,0.121 -1.492,-0.043 0.117,-0.357 0.427,-1.274 0.383,-1.63 -0.543,0.051 -1.032,0.368 -1.513,0.546 0.008,-0.439 0.014,-1.377 -0.137,-1.824 z"
             id="path430" />
        </g>
        <path
           style="fill:#b5d69b"
           inkscape:connector-curvature="0"
           d="m 218.949,89.156 c -4.217,-6.838 -13.963,-8.793 -21.367,-7.564 -6.222,1.034 -11.73,4.371 -17.314,6.946 7.814,5.151 17.548,11.173 27.227,11.378 6.449,0.138 12.383,-4.101 11.454,-10.76 z"
           id="path434" />
        <path
           style="fill:#f49a5d"
           inkscape:connector-curvature="0"
           d="m 221.708,66.748 c -4.418,-2.404 -9.375,5.746 -11.786,10.016 -2.24,3.967 -2.181,10.903 -0.307,15.274 3.773,8.797 12.982,12.405 22.155,11.064 3.869,-0.565 9.822,-2.877 12.636,-5.928 3.95,-4.282 -4.35,-3.12 -5.064,-5.223 -0.483,-1.425 1.899,-2.432 1.397,-4.187 -0.534,-1.868 -2.126,-1.497 -3.568,-1.694 -2.597,-0.355 -2.195,-0.9 -1.887,-3.149 0.264,-1.932 -0.236,-3.845 -2.441,-4.089 -1.86,-0.206 -4.07,0.87 -4.118,-1.821 -0.034,-1.906 1.906,-5.007 -1.718,-4.866 -1.907,0.074 -3.373,2.113 -4.793,-0.27 -0.95,-1.592 2.048,-3.738 -0.506,-5.127 z"
           id="path436" />
      </g>
      <g
         id="g444">
        <path
           style="fill:#ffe3a6"
           inkscape:connector-curvature="0"
           d="m 227.779,108.366 c 6.754,4.392 8.511,9.899 7.858,15.763 -5.367,-0.838 -9.775,-6.846 -10.614,-13.343 -0.808,0.918 -1.603,4.016 -5.278,7.434 -1.877,1.746 -5.589,3.201 -8,3.89 -1.02,-5.025 5.239,-12.848 10.247,-14.848 -2.927,0.587 -8.221,-2.316 -10.443,-3.834 -2.025,-1.384 -4.44,-4.261 -5.174,-6.725 5.206,0.57 12.747,2.689 16.483,6.655 -0.535,-2.863 -0.421,-6.539 0.452,-9.321 1.148,-3.655 4.833,-8.056 4.833,-8.056 0,0 3.82,7.88 -0.244,17.036 3.148,-0.718 5.6,-1.044 8.915,-0.288 2.085,0.475 4.609,1.216 6.51,2.209 -3.214,1.84 -5.703,3.624 -9.394,3.916 -1.238,0.098 -4.585,-0.282 -6.151,-0.488 z"
           id="path440" />
        <circle
           style="fill:#f49a5d"
           cx="224.612"
           cy="106.529"
           r="2.352"
           id="circle442" />
      </g>
    </g>
    <g
       transform="matrix(0.36131508,0,0,0.36131508,-1.1693956,243.62221)"
       id="g1385" />
    <g
       transform="matrix(0.36131508,0,0,0.36131508,-1.1693956,243.62221)"
       id="g1387" />
    <g
       transform="matrix(0.36131508,0,0,0.36131508,-1.1693956,243.62221)"
       id="g1389" />
    <g
       transform="matrix(0.36131508,0,0,0.36131508,-1.1693956,243.62221)"
       id="g1391" />
    <g
       transform="matrix(0.36131508,0,0,0.36131508,-1.1693956,243.62221)"
       id="g1393" />
    <g
       transform="matrix(0.36131508,0,0,0.36131508,-1.1693956,243.62221)"
       id="g1395" />
  </g>
</svg>
