<?xml version="1.0" encoding="UTF-8" standalone="no"?>
<!-- Created with Inkscape (http://www.inkscape.org/) -->

<svg
   xmlns:dc="http://purl.org/dc/elements/1.1/"
   xmlns:cc="http://creativecommons.org/ns#"
   xmlns:rdf="http://www.w3.org/1999/02/22-rdf-syntax-ns#"
   xmlns:svg="http://www.w3.org/2000/svg"
   xmlns="http://www.w3.org/2000/svg"
   xmlns:xlink="http://www.w3.org/1999/xlink"
   xmlns:sodipodi="http://sodipodi.sourceforge.net/DTD/sodipodi-0.dtd"
   xmlns:inkscape="http://www.inkscape.org/namespaces/inkscape"
   width="161.89874"
   height="188.69319"
   viewBox="0 0 42.835708 49.925075"
   version="1.1"
   id="svg1161"
   inkscape:version="0.92.4 (5da689c313, 2019-01-14)"
   sodipodi:docname="3.svg">
  <defs
     id="defs1155">
    <clipPath
       id="SVGID_2_">
      <use
         height="100%"
         width="100%"
         y="0"
         x="0"
         style="overflow:visible"
         xlink:href="#SVGID_1_"
         overflow="visible"
         id="use15" />
    </clipPath>
    <clipPath
       id="SVGID_4_">
      <use
         height="100%"
         width="100%"
         y="0"
         x="0"
         style="overflow:visible"
         xlink:href="#SVGID_3_"
         overflow="visible"
         id="use91" />
    </clipPath>
    <clipPath
       id="SVGID_6_">
      <use
         height="100%"
         width="100%"
         y="0"
         x="0"
         style="overflow:visible"
         xlink:href="#SVGID_5_"
         overflow="visible"
         id="use193" />
    </clipPath>
    <clipPath
       id="SVGID_8_">
      <use
         height="100%"
         width="100%"
         y="0"
         x="0"
         style="overflow:visible"
         xlink:href="#SVGID_7_"
         overflow="visible"
         id="use251" />
    </clipPath>
    <clipPath
       id="SVGID_10_">
      <use
         height="100%"
         width="100%"
         y="0"
         x="0"
         style="overflow:visible"
         xlink:href="#SVGID_9_"
         overflow="visible"
         id="use335" />
    </clipPath>
    <clipPath
       id="SVGID_12_">
      <use
         height="100%"
         width="100%"
         y="0"
         x="0"
         style="overflow:visible"
         xlink:href="#SVGID_11_"
         overflow="visible"
         id="use453" />
    </clipPath>
    <clipPath
       id="SVGID_14_">
      <use
         height="100%"
         width="100%"
         y="0"
         x="0"
         style="overflow:visible"
         xlink:href="#SVGID_13_"
         overflow="visible"
         id="use597" />
    </clipPath>
    <clipPath
       id="SVGID_16_">
      <use
         height="100%"
         width="100%"
         y="0"
         x="0"
         style="overflow:visible"
         xlink:href="#SVGID_15_"
         overflow="visible"
         id="use679" />
    </clipPath>
    <clipPath
       id="SVGID_18_">
      <use
         height="100%"
         width="100%"
         y="0"
         x="0"
         style="overflow:visible"
         xlink:href="#SVGID_17_"
         overflow="visible"
         id="use785" />
    </clipPath>
    <clipPath
       id="SVGID_20_">
      <use
         height="100%"
         width="100%"
         y="0"
         x="0"
         style="overflow:visible"
         xlink:href="#SVGID_19_"
         overflow="visible"
         id="use837" />
    </clipPath>
    <clipPath
       id="SVGID_22_">
      <use
         height="100%"
         width="100%"
         y="0"
         x="0"
         style="overflow:visible"
         xlink:href="#SVGID_21_"
         overflow="visible"
         id="use915" />
    </clipPath>
    <clipPath
       id="SVGID_24_">
      <use
         height="100%"
         width="100%"
         y="0"
         x="0"
         style="overflow:visible"
         xlink:href="#SVGID_23_"
         overflow="visible"
         id="use1009" />
    </clipPath>
    <clipPath
       id="SVGID_26_">
      <use
         height="100%"
         width="100%"
         y="0"
         x="0"
         style="overflow:visible"
         xlink:href="#SVGID_25_"
         overflow="visible"
         id="use1129" />
    </clipPath>
    <clipPath
       id="SVGID_28_">
      <use
         height="100%"
         width="100%"
         y="0"
         x="0"
         style="overflow:visible"
         xlink:href="#SVGID_27_"
         overflow="visible"
         id="use1177" />
    </clipPath>
    <path
       inkscape:connector-curvature="0"
       id="SVGID_1_"
       d="m 85.61,63.771 c 0,0 9.11,-7.035 22.765,-12.285 6.524,-2.508 21.116,-6.162 22.188,-5.343 1.133,1.889 5.288,20.02 5.415,28.834 0.125,8.814 -5.667,28.584 -7.177,29.34 -1.511,0.754 -22.784,-5.016 -28.585,-8.31 C 94.676,92.859 89.593,88.308 85.611,83.54 85.61,80.015 85.61,63.771 85.61,63.771 Z" />
    <path
       inkscape:connector-curvature="0"
       id="SVGID_3_"
       d="m 66.218,63.771 c 0,0 -9.109,-7.035 -22.765,-12.285 -6.523,-2.508 -21.116,-6.162 -22.186,-5.343 -1.133,1.889 -5.288,20.021 -5.414,28.836 -0.127,8.812 5.666,28.582 7.176,29.338 1.511,0.754 22.782,-5.016 28.583,-8.31 5.54,-3.148 10.624,-7.699 14.605,-12.467 0.001,-3.525 0.001,-19.769 0.001,-19.769 z" />
    <path
       inkscape:connector-curvature="0"
       id="SVGID_5_"
       d="m 216.268,64.571 c 0,0 -9.109,-7.034 -22.765,-12.285 -6.523,-2.509 -21.116,-6.162 -22.187,-5.343 -1.133,1.889 -5.288,20.021 -5.414,28.835 -0.127,8.814 5.666,28.583 7.176,29.339 1.511,0.755 22.782,-5.014 28.583,-8.311 5.54,-3.147 10.624,-7.697 14.605,-12.465 0.002,-3.527 0.002,-19.77 0.002,-19.77 z" />
    <path
       inkscape:connector-curvature="0"
       id="SVGID_7_"
       d="m 235.66,64.57 c 0,0 9.11,-7.034 22.765,-12.285 6.524,-2.509 21.116,-6.162 22.188,-5.343 1.133,1.888 5.288,20.021 5.415,28.835 0.125,8.814 -5.667,28.583 -7.177,29.339 -1.511,0.755 -22.784,-5.014 -28.585,-8.311 -5.54,-3.148 -10.623,-7.697 -14.605,-12.466 C 235.66,80.814 235.66,64.57 235.66,64.57 Z" />
    <path
       inkscape:connector-curvature="0"
       id="SVGID_9_"
       d="m 365.769,66.058 c 0,0 -9.111,-7.032 -22.767,-12.284 -6.523,-2.508 -21.116,-6.161 -22.186,-5.343 -1.133,1.89 -5.289,20.021 -5.415,28.835 -0.126,8.814 5.667,28.583 7.178,29.338 1.51,0.757 22.782,-5.013 28.583,-8.31 5.54,-3.148 10.624,-7.696 14.606,-12.465 0.001,-3.526 0.001,-19.771 0.001,-19.771 z" />
    <path
       inkscape:connector-curvature="0"
       id="SVGID_11_"
       d="m 385.16,66.058 c 0,0 9.111,-7.034 22.766,-12.284 6.524,-2.508 21.116,-6.161 22.187,-5.343 1.133,1.89 5.288,20.021 5.416,28.835 0.125,8.814 -5.667,28.583 -7.178,29.338 -1.511,0.757 -22.782,-5.014 -28.585,-8.31 -5.54,-3.148 -10.623,-7.696 -14.605,-12.465 -10e-4,-3.526 -10e-4,-19.771 -10e-4,-19.771 z" />
    <path
       inkscape:connector-curvature="0"
       id="SVGID_13_"
       d="m 515.153,66.489 c 0,0 -9.11,-7.035 -22.766,-12.286 -6.523,-2.509 -21.116,-6.162 -22.186,-5.343 -1.133,1.89 -5.289,20.021 -5.415,28.834 -0.125,8.814 5.667,28.583 7.178,29.339 1.51,0.754 22.782,-5.014 28.583,-8.311 5.539,-3.147 10.624,-7.697 14.606,-12.465 0,-3.525 0,-19.768 0,-19.768 z" />
    <path
       inkscape:connector-curvature="0"
       id="SVGID_15_"
       d="m 534.544,66.489 c 0,0 9.112,-7.035 22.766,-12.286 6.525,-2.509 21.116,-6.162 22.188,-5.343 1.133,1.888 5.287,20.021 5.415,28.834 0.125,8.814 -5.667,28.583 -7.178,29.339 -1.51,0.754 -22.782,-5.015 -28.584,-8.311 -5.54,-3.147 -10.622,-7.697 -14.606,-12.465 -10e-4,-3.525 -10e-4,-19.768 -10e-4,-19.768 z" />
    <path
       inkscape:connector-curvature="0"
       id="SVGID_17_"
       d="m 666.023,66.498 c 0,0 -9.111,-7.035 -22.766,-12.285 -6.523,-2.509 -21.116,-6.162 -22.186,-5.343 -1.133,1.888 -5.289,20.02 -5.415,28.834 -0.126,8.814 5.667,28.583 7.178,29.338 1.511,0.755 22.782,-5.014 28.583,-8.31 5.539,-3.148 10.624,-7.698 14.606,-12.465 0,-3.527 0,-19.769 0,-19.769 z" />
    <path
       inkscape:connector-curvature="0"
       id="SVGID_19_"
       d="m 685.413,66.497 c 0,0 9.111,-7.034 22.766,-12.284 6.525,-2.509 21.116,-6.162 22.188,-5.343 1.133,1.888 5.287,20.02 5.415,28.834 0.125,8.814 -5.667,28.583 -7.178,29.338 -1.51,0.755 -22.782,-5.014 -28.584,-8.31 -5.54,-3.149 -10.623,-7.698 -14.606,-12.465 -10e-4,-3.527 -10e-4,-19.77 -10e-4,-19.77 z" />
    <path
       inkscape:connector-curvature="0"
       id="SVGID_21_"
       d="m 814.768,66.498 c 0,0 -9.109,-7.035 -22.765,-12.286 -6.523,-2.509 -21.116,-6.161 -22.186,-5.343 -1.133,1.888 -5.288,20.021 -5.414,28.835 -0.127,8.814 5.666,28.583 7.176,29.339 1.511,0.756 22.782,-5.014 28.583,-8.31 5.54,-3.148 10.624,-7.697 14.605,-12.466 10e-4,-3.526 10e-4,-19.769 10e-4,-19.769 z" />
    <path
       inkscape:connector-curvature="0"
       id="SVGID_23_"
       d="m 834.16,66.498 c 0,0 9.11,-7.035 22.765,-12.285 6.524,-2.509 21.116,-6.162 22.188,-5.343 1.133,1.889 5.288,20.021 5.415,28.835 0.125,8.814 -5.667,28.584 -7.177,29.339 -1.511,0.756 -22.784,-5.015 -28.585,-8.31 -5.54,-3.148 -10.622,-7.697 -14.605,-12.466 -10e-4,-3.527 -10e-4,-19.77 -10e-4,-19.77 z" />
    <path
       inkscape:connector-curvature="0"
       id="SVGID_25_"
       d="m 984.75,66.772 c 0,0 9.11,-7.035 22.765,-12.285 6.524,-2.509 21.116,-6.161 22.187,-5.343 1.133,1.889 5.288,20.021 5.414,28.835 0.126,8.814 -5.666,28.584 -7.177,29.34 -1.511,0.755 -22.782,-5.015 -28.583,-8.311 -5.54,-3.148 -10.624,-7.697 -14.606,-12.466 0,-3.527 0,-19.77 0,-19.77 z" />
    <path
       inkscape:connector-curvature="0"
       id="SVGID_27_"
       d="m 965.359,66.772 c 0,0 -9.11,-7.034 -22.765,-12.285 -6.524,-2.509 -21.116,-6.162 -22.187,-5.343 -1.133,1.889 -5.289,20.021 -5.415,28.835 -0.126,8.814 5.667,28.583 7.178,29.339 1.511,0.755 22.782,-5.015 28.583,-8.311 5.54,-3.148 10.624,-7.697 14.606,-12.466 0,-3.526 0,-19.769 0,-19.769 z" />
  </defs>
  <sodipodi:namedview
     id="base"
     pagecolor="#ffffff"
     bordercolor="#666666"
     borderopacity="1.0"
     inkscape:pageopacity="0.0"
     inkscape:pageshadow="2"
     inkscape:zoom="0.98994949"
     inkscape:cx="421.36606"
     inkscape:cy="-17.372557"
     inkscape:document-units="mm"
     inkscape:current-layer="layer1"
     showgrid="false"
     units="px"
     inkscape:window-width="1920"
     inkscape:window-height="1017"
     inkscape:window-x="-8"
     inkscape:window-y="-8"
     inkscape:window-maximized="1"
     fit-margin-top="0"
     fit-margin-left="0"
     fit-margin-right="0"
     fit-margin-bottom="0" />
  <metadata
     id="metadata1158">
    <rdf:RDF>
      <cc:Work
         rdf:about="">
        <dc:format>image/svg+xml</dc:format>
        <dc:type
           rdf:resource="http://purl.org/dc/dcmitype/StillImage" />
        <dc:title></dc:title>
      </cc:Work>
    </rdf:RDF>
  </metadata>
  <g
     inkscape:label="Layer 1"
     inkscape:groupmode="layer"
     id="layer1"
     transform="translate(-5.204435,-245.47323)">
    <g
       transform="matrix(0.39726567,0,0,0.39726567,-3.5937243,240.74088)"
       id="g1288" />
    <g
       transform="matrix(0.39726567,0,0,0.39726567,-3.5937243,240.74088)"
       id="g1290" />
    <g
       transform="matrix(0.39726567,0,0,0.39726567,-3.5937243,240.74088)"
       id="g1292" />
    <g
       transform="matrix(0.39726567,0,0,0.39726567,-3.5937243,240.74088)"
       id="g1294" />
    <g
       transform="matrix(0.39726567,0,0,0.39726567,-3.5937243,240.74088)"
       id="g1296" />
    <g
       transform="matrix(0.39726567,0,0,0.39726567,-3.5937243,240.74088)"
       id="g1298" />
    <g
       transform="matrix(0.36466783,0,0,0.36466783,-1.0914262,244.55219)"
       id="Слой_9" />
    <g
       transform="matrix(0.36131508,0,0,0.36131508,-163.92607,243.62221)"
       id="g826">
      <g
         id="g688">
        <path
           style="fill:#5c8b72"
           inkscape:connector-curvature="0"
           d="m 490.288,20.987 c 1.539,-4.993 11.977,-10.154 17.122,-9.555 -1.476,7.722 -10.503,15.109 -18.036,15.501 -0.02,-2.541 1.615,-5.204 0.914,-5.946 z"
           id="path662" />
        <path
           style="fill:#5c8b72"
           inkscape:connector-curvature="0"
           d="m 490.116,20.782 c 0.032,-3.551 -2.512,-7.518 -4.712,-10.203 -1.469,-1.793 -4.312,-4.96 -6.634,-5.456 0.716,2.253 0.406,4.799 0.924,7.113 0.569,2.543 1.383,5.028 2.354,7.433 0.893,2.21 3.766,7.083 6.476,7.347"
           id="path664" />
        <path
           style="fill:#5c8b72"
           inkscape:connector-curvature="0"
           d="m 488.637,30.07 c -3.926,-4.628 -10.598,-8.473 -16.761,-7.088 0.436,2.311 2.85,4.772 4.474,6.398 1.46,1.461 3.055,2.788 4.812,3.87 1.882,1.159 4.73,3.072 6.979,2.485"
           id="path666" />
        <path
           style="fill:#5c8b72"
           inkscape:connector-curvature="0"
           d="m 488.936,32.094 c 2.79,-2.428 5.381,-4.712 8.569,-6.672 2.317,-1.424 5.044,-2.282 7.605,-3.02 0.616,3.834 -4.652,8.72 -7.773,10.214 -2.432,1.164 -5.809,2.909 -8.562,2.412"
           id="path668" />
        <path
           style="fill:#5c8b72"
           inkscape:connector-curvature="0"
           d="m 489.618,46.044 c 1.086,-5.536 6.716,-9.713 11.01,-12.707 0.924,3.81 -0.292,8.816 -2.469,12.096 -1.843,2.777 -3.99,4.666 -6.512,6.782"
           id="path670" />
        <path
           style="fill:#5c8b72"
           inkscape:connector-curvature="0"
           d="m 492.015,54.53 c 1.805,-1.721 2.811,-4.187 4.592,-5.996 1.735,-1.762 3.777,-3.521 5.799,-4.959 2.593,-1.844 5.274,-3.527 8.348,-4.385 -1.833,5.442 -3.946,10.755 -8.308,14.795 -2.551,2.362 -5.282,4.462 -7.922,6.662"
           id="path672" />
        <path
           style="fill:#5c8b72"
           inkscape:connector-curvature="0"
           d="m 497.198,64.877 c 0.907,-2.088 1.47,-4.102 2.804,-6.031 1.967,-2.844 4.542,-5.685 7.376,-7.674 3.189,-2.238 6.564,-4.197 9.809,-6.195 0.212,3.348 -1.374,6.511 -2.664,9.508 -1.4,3.253 -2.767,6.163 -5.327,8.682 -2.798,2.753 -6.081,3.874 -9.222,5.853"
           id="path674" />
        <path
           style="fill:#5c8b72"
           inkscape:connector-curvature="0"
           d="m 489.432,41.651 c -0.754,-3.18 -5.004,-5.362 -7.847,-6.537 -3.414,-1.411 -8.065,-1.496 -11.629,-1.078 2.735,3.87 6.208,6.821 10.676,8.347 1.855,0.633 6.914,2.271 8.8,-0.732 z"
           id="path676" />
        <path
           style="fill:#5c8b72"
           inkscape:connector-curvature="0"
           d="m 491.196,50.843 c -1.402,-1.319 -3.472,-1.195 -5.288,-1.298 -2.666,-0.15 -5.704,-0.158 -8.328,0.402 -3.344,0.714 -6.428,1.967 -9.483,3.2 3.172,4.519 9.719,6.05 14.995,5.024 1.805,-0.351 8.553,-1.58 8.681,-4.138"
           id="path678" />
        <path
           style="fill:#5c8b72"
           inkscape:connector-curvature="0"
           d="m 495.989,62.393 c -8.126,-4.965 -19.815,0.065 -26.092,6.001 5.538,2.008 12.586,2.896 18.45,1.92 1.612,-0.268 9.365,-2.369 8.818,-5.059"
           id="path680" />
        <g
           id="g686">
          <g
             id="g684">
            <path
               style="fill:#95563e"
               inkscape:connector-curvature="0"
               d="m 489.095,19.902 c -5.109,14.011 -0.926,30.681 5.743,43.507 6.388,12.285 18.632,20.664 30.416,27.193 1.644,0.911 3.112,-1.604 1.47,-2.514 -11.2,-6.205 -21.811,-13.699 -28.606,-24.796 -7.251,-11.841 -11.05,-29.355 -6.214,-42.615 0.643,-1.769 -2.171,-2.524 -2.809,-0.775 z"
               id="path682" />
          </g>
        </g>
      </g>
      <g
         id="g694">
        <path
           style="fill:#ffe3a6"
           inkscape:connector-curvature="0"
           d="m 507.849,64.382 c 7.686,-3.038 13.335,-1.235 17.851,2.797 -3.89,3.99 -11.534,4.106 -17.465,0.947 0.287,1.221 2.406,3.727 3.08,8.831 0.345,2.607 -0.645,6.576 -1.501,9.001 -4.808,-2.133 -7.631,-12.016 -6.327,-17.392 -1.248,2.796 -6.822,5.498 -9.412,6.454 -2.36,0.871 -6.202,1.181 -8.698,0.331 3.57,-4.015 9.823,-9.062 15.36,-9.829 -2.712,-1.254 -5.718,-3.534 -7.525,-5.917 -2.374,-3.131 -3.865,-8.829 -3.865,-8.829 0,0 8.86,1.489 14.101,10.328 1.27,-3.059 2.455,-5.303 5.057,-7.627 1.636,-1.461 3.756,-3.132 5.716,-4.132 -0.372,3.781 -0.358,6.923 -2.308,10.183 -0.654,1.093 -2.961,3.666 -4.064,4.854 z"
           id="path690" />
        <circle
           style="fill:#f49a5d"
           cx="504.431"
           cy="65.938004"
           r="2.4119999"
           id="circle692" />
      </g>
      <g
         id="g714">
        <path
           style="fill:#f49a5d"
           inkscape:connector-curvature="0"
           d="m 503.829,89.669 c 1.031,-0.929 1.754,-4.003 7.956,-6.724 2.286,-1.003 6.492,-2.147 8.943,-1.283 -0.253,3.137 -4.562,7.988 -5.937,9.394 -1.639,1.676 -4.332,3.171 -6.591,3.846 3.026,1.083 5.932,1.705 8.644,3.601 2.242,1.567 3.193,3.644 4.554,5.876 -1.878,2.016 -6.904,1.044 -9.094,0.149 -2.778,-1.136 -5.073,-2.704 -7.134,-4.879 0.118,1.561 1.204,6.141 -0.743,10.236 -0.93,1.956 -2.047,5.069 -3.64,6.572 -2.192,-2.447 -2.762,-5.829 -2.901,-8.91 -0.139,-3.072 0.691,-6.088 1.709,-9.019 -2.176,2.042 -4.532,5.156 -7.353,6.91 -2.642,1.643 -5.341,2.382 -8.302,3.073 0.615,-5.924 6.634,-12.589 11.722,-15.375 -5.76,2.279 -12.681,0.187 -16.834,-5.333 5.142,-4.034 12.429,-3.34 18.606,0.482 -3.793,-4.868 -2.599,-12.425 0.629,-17.169 2.388,2.303 4.613,5.948 5.406,9.054 0.411,1.603 1.212,5.197 0.36,9.499 z"
           id="path696" />
        <path
           style="fill:#ffe3a6"
           inkscape:connector-curvature="0"
           d="m 503.485,91.969 c 1.386,-1.163 6.267,-4.261 6.186,-1.644 -0.047,1.511 -3.608,3.385 -4.673,4.249 0.854,0.811 5.014,1.843 4.844,3.659 -0.23,2.46 -5.001,-1.329 -5.85,-1.292 -0.398,1.035 0.225,6.338 -1.971,6.324 -1.936,-0.013 -0.867,-6.095 -1.343,-7.332 -1.011,0.482 -7.181,5.64 -7.072,2.213 0.06,-1.879 4.48,-4.533 6.145,-4.98 -1.061,-0.641 -6.533,-1.672 -6.643,-3.174 -0.187,-2.537 6.418,1.185 7.189,1.294 -0.824,-1.806 -2.392,-5.511 -0.557,-6.303 3.182,-1.371 2.6,5.935 3.745,6.986 z"
           id="path698" />
        <circle
           style="fill:#95563e"
           cx="502.06"
           cy="94.127998"
           r="1.809"
           id="circle700" />
        <circle
           style="fill:#95563e"
           cx="503.82401"
           cy="90.809998"
           r="0.80400002"
           id="circle702" />
        <circle
           style="fill:#95563e"
           cx="506.146"
           cy="94.723"
           r="0.80400002"
           id="circle704" />
        <circle
           style="fill:#95563e"
           cx="504.07901"
           cy="97.681999"
           r="0.80400002"
           id="circle706" />
        <circle
           style="fill:#95563e"
           cx="500.08801"
           cy="97.095001"
           r="0.80400002"
           id="circle708" />
        <circle
           style="fill:#95563e"
           cx="497.86099"
           cy="93.190002"
           r="0.80400002"
           id="circle710" />
        <circle
           style="fill:#95563e"
           cx="499.39499"
           cy="90.327003"
           r="0.80400002"
           id="circle712" />
      </g>
      <path
         style="fill:#b5d69b"
         inkscape:connector-curvature="0"
         d="m 519.959,91.793 c -4.746,7.468 -10.705,14.642 -7.432,23.978 2.369,6.757 4.752,13.176 8.639,19.181 1.795,2.774 3.623,6.028 5.988,8.347 1.919,-2.037 3.144,-5.2 4.229,-7.773 1.532,-3.632 2.792,-7.739 3.632,-11.595 1.239,-5.691 2.477,-13.105 0.91,-18.837 -0.635,-2.324 -1.358,-4.613 -2.31,-6.826 -0.662,-1.539 -1.065,-3.602 -2.186,-4.897 -1.26,-1.455 -3.641,-1.826 -5.433,-2.288 -3.111,-0.802 -2.549,-0.635 -5.68,-0.114"
         id="path716" />
      <g
         id="g798">
        <g
           id="g722">
          <g
             id="g720">
            <path
               style="fill:#95563e"
               inkscape:connector-curvature="0"
               d="m 526.45,91.869 c 5.779,2.807 11.7,5.428 17.251,8.672 4.972,2.905 8.983,7.199 12.704,11.523 7.043,8.185 13.06,17.204 22.464,22.926 1.609,0.979 3.071,-1.54 1.47,-2.514 -9.542,-5.806 -15.679,-15.27 -22.827,-23.577 -8.163,-9.486 -18.532,-14.172 -29.593,-19.544 -1.681,-0.817 -3.158,1.694 -1.469,2.514 z"
               id="path718" />
          </g>
        </g>
        <g
           id="g728">
          <g
             id="g726">
            <path
               style="fill:#95563e"
               inkscape:connector-curvature="0"
               d="m 538.086,95.833 c 6.14,-1.614 12.359,-2.56 18.702,-2.838 0.935,-0.041 0.939,-1.497 0,-1.456 -6.474,0.284 -12.821,1.242 -19.089,2.89 -0.907,0.238 -0.522,1.642 0.387,1.404 z"
               id="path724" />
          </g>
        </g>
        <g
           id="g734">
          <g
             id="g732">
            <path
               style="fill:#95563e"
               inkscape:connector-curvature="0"
               d="m 545.585,100.504 c 5.606,-0.804 11.156,-0.715 16.736,0.257 0.918,0.16 1.311,-1.243 0.387,-1.404 -5.842,-1.017 -11.639,-1.098 -17.51,-0.257 -0.927,0.133 -0.531,1.536 0.387,1.404 z"
               id="path730" />
          </g>
        </g>
        <g
           id="g740">
          <g
             id="g738">
            <path
               style="fill:#95563e"
               inkscape:connector-curvature="0"
               d="m 556.419,108.956 c 4.645,-1.017 9.291,-1.947 14.04,-1.103 0.918,0.163 1.31,-1.24 0.387,-1.404 -5.028,-0.894 -9.893,0.025 -14.814,1.103 -0.917,0.201 -0.528,1.605 0.387,1.404 z"
               id="path736" />
          </g>
        </g>
        <g
           id="g746">
          <g
             id="g744">
            <path
               style="fill:#95563e"
               inkscape:connector-curvature="0"
               d="m 561.266,115.88 c 4.206,-0.994 8.41,-1.184 12.689,-0.611 0.928,0.124 0.916,-1.333 0,-1.456 -4.407,-0.591 -8.753,-0.359 -13.076,0.663 -0.914,0.216 -0.526,1.62 0.387,1.404 z"
               id="path742" />
          </g>
        </g>
        <g
           id="g752">
          <g
             id="g750">
            <path
               style="fill:#95563e"
               inkscape:connector-curvature="0"
               d="m 567.269,123.599 c 4.024,-0.918 8.071,-1.32 12.196,-1.224 0.939,0.022 0.937,-1.434 0,-1.456 -4.256,-0.099 -8.434,0.329 -12.583,1.276 -0.916,0.209 -0.527,1.612 0.387,1.404 z"
               id="path748" />
          </g>
        </g>
        <g
           id="g758">
          <g
             id="g756">
            <path
               style="fill:#95563e"
               inkscape:connector-curvature="0"
               d="m 540.04,97.569 c -1.418,5.051 -0.074,9.958 1.463,14.818 0.282,0.892 1.688,0.511 1.404,-0.387 -1.453,-4.597 -2.809,-9.251 -1.463,-14.044 0.254,-0.905 -1.151,-1.289 -1.404,-0.387 z"
               id="path754" />
          </g>
        </g>
        <g
           id="g764">
          <g
             id="g762">
            <path
               style="fill:#95563e"
               inkscape:connector-curvature="0"
               d="m 549.01,104.395 c 0.598,5.235 -0.388,10.578 1.432,15.635 0.315,0.876 1.723,0.499 1.404,-0.387 -1.772,-4.923 -0.797,-10.149 -1.38,-15.248 -0.105,-0.922 -1.562,-0.932 -1.456,0 z"
               id="path760" />
          </g>
        </g>
        <g
           id="g770">
          <g
             id="g768">
            <path
               style="fill:#95563e"
               inkscape:connector-curvature="0"
               d="m 559.353,115.338 c 0.035,4.589 0.961,8.948 2.749,13.173 0.365,0.862 1.619,0.119 1.257,-0.735 -1.683,-3.976 -2.517,-8.122 -2.55,-12.438 -0.007,-0.939 -1.463,-0.94 -1.456,0 z"
               id="path766" />
          </g>
        </g>
        <g
           id="g776">
          <g
             id="g774">
            <path
               style="fill:#95563e"
               inkscape:connector-curvature="0"
               d="m 568.007,125.081 c -0.139,3.517 0.451,6.904 1.79,10.162 0.352,0.856 1.761,0.482 1.404,-0.387 -1.29,-3.141 -1.872,-6.38 -1.738,-9.775 0.037,-0.939 -1.419,-0.935 -1.456,0 z"
               id="path772" />
          </g>
        </g>
        <path
           style="fill:#b5d69b"
           inkscape:connector-curvature="0"
           d="m 547.704,93.269 c 0.844,-3.908 5.914,-4.333 9.306,-3.488 6.061,1.51 -0.158,4.852 -3.296,5.333 -1.832,0.282 -4.816,0.355 -6.01,-1.845 z"
           id="path778" />
        <path
           style="fill:#b5d69b"
           inkscape:connector-curvature="0"
           d="m 552.281,99.663 c 2.857,-4.678 10.192,-1.801 14.09,-0.066 -1.472,2.149 -4.673,2.945 -7.198,3.206 -3.268,0.338 -4.699,-0.679 -6.892,-3.14 z"
           id="path780" />
        <path
           style="fill:#b5d69b"
           inkscape:connector-curvature="0"
           d="m 559.568,107.721 c -0.138,-5.78 11.63,-4.269 13.726,-0.797 -2.986,2.778 -10.609,4.968 -13.726,0.797 z"
           id="path782" />
        <path
           style="fill:#b5d69b"
           inkscape:connector-curvature="0"
           d="m 565.537,114.522 c -0.131,-2.506 4.126,-3.1 5.911,-3.123 2.446,-0.032 4.532,0.522 6.578,1.775 -2.231,2.149 -9.064,4.565 -12.489,1.348 z"
           id="path784" />
        <path
           style="fill:#b5d69b"
           inkscape:connector-curvature="0"
           d="m 575.034,121.775 c 0.968,-4.582 8.608,-2.145 11.618,-1.142 -4.2,4.047 -8.081,3.728 -11.618,1.142 z"
           id="path786" />
        <path
           style="fill:#b5d69b"
           inkscape:connector-curvature="0"
           d="m 573.257,129.04 c 3.781,-3.319 10.133,2.922 12.614,5.385 -1.784,2.113 -4.707,1.42 -6.964,0.513 -3.131,-1.26 -4.129,-3.475 -5.65,-5.898 z"
           id="path788" />
        <path
           style="fill:#b5d69b"
           inkscape:connector-curvature="0"
           d="m 569.033,128.385 c -3.601,3.193 -1.752,9.075 1.847,11.538 2.175,-2.96 1.374,-9.02 -1.847,-11.538 z"
           id="path790" />
        <path
           style="fill:#b5d69b"
           inkscape:connector-curvature="0"
           d="m 560.614,120.228 c -3.006,-0.145 -3.296,4.925 -2.355,6.854 1.156,2.371 3.383,4.417 5.552,5.659 1.58,-3.524 0.92,-11.625 -3.197,-12.513 z"
           id="path792" />
        <path
           style="fill:#b5d69b"
           inkscape:connector-curvature="0"
           d="m 550.108,111.46 c -6.453,4.065 -2.047,10.444 0.325,15.697 2.608,-1.621 4.258,-5.43 4.143,-8.41 -0.082,-2.117 -1.062,-7.331 -4.468,-7.287 z"
           id="path794" />
        <path
           style="fill:#b5d69b"
           inkscape:connector-curvature="0"
           d="m 540.864,102.945 c -3.431,-1.331 -3.581,4.574 -3.308,6.449 0.414,2.844 1.936,5.535 3.49,7.794 4.848,-3 4.329,-9.857 -0.182,-14.243 z"
           id="path796" />
      </g>
      <g
         id="g824">
        <g
           id="g812">
          <g
             id="g806">
            <path
               style="fill:#ea6b77"
               inkscape:connector-curvature="0"
               d="m 548.224,75.906 c 1.657,-2.091 1.08,-4.187 -1.075,-5.659 -2.155,-1.472 -3.438,0.329 -4.981,-0.15 -2.671,-0.829 0.378,-4.596 -2.353,-6.249 -1.344,-0.813 -3.317,-0.423 -4.435,0.651 -0.969,0.931 -2.031,4.736 -4.036,3.132 -0.614,-0.491 -0.704,-1.631 -1.075,-2.313 -0.49,-0.901 -1.308,-2.052 -2.1,-2.728 -1.735,-1.483 -4.035,-0.958 -5.482,0.872 -1.553,1.965 0.08,4.351 -1.114,6.253 -1.468,2.339 -3.816,0.184 -5.819,0.546 -2.409,0.434 -2.734,2.807 -1.712,4.795 1.268,2.467 4.037,3.517 0.65,5.659 -1.193,0.754 -2.795,1.18 -3.374,2.616 -0.622,1.542 0.442,3.387 1.59,4.408 2.403,2.137 6.55,1.421 6.786,5.597 0.185,3.266 1.496,6.553 5.509,5.644 1.482,-0.336 2.746,-1.521 4.159,-1.819 1.448,-0.306 2.31,0.936 3.367,1.605 1.459,0.924 2.97,1.256 4.443,0.284 1.749,-1.154 0.992,-2.722 1.74,-4.365 1.471,-3.231 5.512,2.651 8.491,-3.506 0.736,-1.522 -1.619,-2.267 -2.156,-3.469 -0.879,-1.969 1.35,-1.474 2.754,-1.904 1.599,-0.49 3.754,-1.313 3.052,-4.253 -0.388,-1.626 -2.192,-1.267 -3.19,-2.323 -1.271,-1.346 -0.411,-2.668 0.361,-3.324 z"
               id="path800" />
            <path
               style="fill:#f0929b"
               inkscape:connector-curvature="0"
               d="m 539.346,78.696 c -0.657,-0.319 0.476,-1.829 0.178,-2.446 -0.416,-0.863 -1.283,-0.549 -1.945,-0.598 -1.741,-0.13 -1.119,-0.954 -1.694,-2.253 -0.345,-0.779 -0.508,-1.239 -1.42,-0.911 -1.033,0.372 -1.209,0.864 -2.45,0.215 -0.937,-0.49 -1.481,-1.418 -2.693,-1.341 -1.089,0.069 -1.118,0.798 -1.801,1.451 -1.018,0.973 -1.648,-0.238 -2.776,0.152 -0.995,0.344 -0.728,1.341 -1.134,2.139 -0.594,1.167 -2.499,1.073 -2.769,2.306 -0.327,1.492 1.131,1.678 -0.206,3.141 -1.423,1.558 0.22,1.292 0.605,2.747 0.353,1.337 -1.721,3.053 0.922,3.428 0.826,0.117 1.13,-0.292 1.8,0.442 0.509,0.557 0.628,1.379 1.12,1.975 0.516,0.624 1.122,1.109 1.92,1.315 0.948,0.244 1.105,-0.355 1.875,-0.43 0.762,-0.074 1.366,0.832 2.128,1.001 1.15,0.255 1.268,-0.237 2.059,-0.896 0.67,-0.559 1.104,-0.69 1.986,-0.682 1.15,0.01 1.901,0.101 2.357,-1.256 0.374,-1.112 1.524,-0.353 2.293,-1.333 0.602,-0.768 -0.566,-1.409 -0.347,-1.743 0.539,-0.823 1.76,-0.409 1.791,-1.306 0.034,-1.004 -1.504,-0.74 -1.248,-1.643 0.148,-0.523 1.311,-1.535 1.171,-1.967 -0.157,-0.488 -0.903,-0.613 -1.722,-1.507 z"
               id="path802" />
            <path
               style="fill:#95563e"
               inkscape:connector-curvature="0"
               d="m 536.466,81.441 c -0.125,-2.859 -1.493,-4.533 -4.015,-5.817 -2.155,-1.097 -4.551,-0.509 -6.143,1.218 -3.429,3.719 -0.705,9.74 4.276,9.905 2.664,0.089 6.022,-2.118 5.882,-5.306 z"
               id="path804" />
          </g>
          <path
             style="fill:#f8b589"
             inkscape:connector-curvature="0"
             d="m 535.089,79.28 c -0.542,-1.009 -2.227,0.177 -1.489,1.177 0.661,0.894 2.327,-0.02 1.522,-1.152"
             id="path808" />
          <path
             style="fill:#f8b589"
             inkscape:connector-curvature="0"
             d="m 532.061,76.145 c -0.542,-1.009 -2.227,0.177 -1.489,1.177 0.661,0.894 2.327,-0.02 1.522,-1.152"
             id="path810" />
        </g>
        <path
           style="fill:#f8b589"
           inkscape:connector-curvature="0"
           d="m 528.74,77.27 c -0.542,-1.009 -2.227,0.177 -1.489,1.177 0.661,0.894 2.327,-0.02 1.522,-1.152"
           id="path814" />
        <path
           style="fill:#f8b589"
           inkscape:connector-curvature="0"
           d="m 528.027,81.59 c -0.542,-1.009 -2.227,0.177 -1.489,1.177 0.661,0.894 2.327,-0.02 1.522,-1.152"
           id="path816" />
        <path
           style="fill:#f8b589"
           inkscape:connector-curvature="0"
           d="m 531.721,80.263 c -0.542,-1.009 -2.227,0.177 -1.489,1.177 0.661,0.894 2.327,-0.02 1.522,-1.152"
           id="path818" />
        <path
           style="fill:#f8b589"
           inkscape:connector-curvature="0"
           d="m 531.152,84.065 c -0.542,-1.009 -2.227,0.177 -1.489,1.177 0.661,0.894 2.327,-0.02 1.522,-1.152"
           id="path820" />
        <path
           style="fill:#f8b589"
           inkscape:connector-curvature="0"
           d="m 534.279,82.923 c -0.542,-1.009 -2.227,0.177 -1.489,1.177 0.661,0.894 2.327,-0.02 1.522,-1.152"
           id="path822" />
      </g>
    </g>
    <g
       transform="matrix(0.36131508,0,0,0.36131508,-1.1693956,243.62221)"
       id="g1385" />
    <g
       transform="matrix(0.36131508,0,0,0.36131508,-1.1693956,243.62221)"
       id="g1387" />
    <g
       transform="matrix(0.36131508,0,0,0.36131508,-1.1693956,243.62221)"
       id="g1389" />
    <g
       transform="matrix(0.36131508,0,0,0.36131508,-1.1693956,243.62221)"
       id="g1391" />
    <g
       transform="matrix(0.36131508,0,0,0.36131508,-1.1693956,243.62221)"
       id="g1393" />
    <g
       transform="matrix(0.36131508,0,0,0.36131508,-1.1693956,243.62221)"
       id="g1395" />
  </g>
</svg>
