<?xml version="1.0" encoding="UTF-8" standalone="no"?>
<!-- Created with Inkscape (http://www.inkscape.org/) -->

<svg
   xmlns:dc="http://purl.org/dc/elements/1.1/"
   xmlns:cc="http://creativecommons.org/ns#"
   xmlns:rdf="http://www.w3.org/1999/02/22-rdf-syntax-ns#"
   xmlns:svg="http://www.w3.org/2000/svg"
   xmlns="http://www.w3.org/2000/svg"
   xmlns:xlink="http://www.w3.org/1999/xlink"
   xmlns:sodipodi="http://sodipodi.sourceforge.net/DTD/sodipodi-0.dtd"
   xmlns:inkscape="http://www.inkscape.org/namespaces/inkscape"
   width="159.53717"
   height="191.99518"
   viewBox="0 0 42.210875 50.798726"
   version="1.1"
   id="svg1161"
   inkscape:version="0.92.4 (5da689c313, 2019-01-14)"
   sodipodi:docname="4.svg">
  <defs
     id="defs1155">
    <clipPath
       id="SVGID_2_">
      <use
         height="100%"
         width="100%"
         y="0"
         x="0"
         style="overflow:visible"
         xlink:href="#SVGID_1_"
         overflow="visible"
         id="use15" />
    </clipPath>
    <clipPath
       id="SVGID_4_">
      <use
         height="100%"
         width="100%"
         y="0"
         x="0"
         style="overflow:visible"
         xlink:href="#SVGID_3_"
         overflow="visible"
         id="use91" />
    </clipPath>
    <clipPath
       id="SVGID_6_">
      <use
         height="100%"
         width="100%"
         y="0"
         x="0"
         style="overflow:visible"
         xlink:href="#SVGID_5_"
         overflow="visible"
         id="use193" />
    </clipPath>
    <clipPath
       id="SVGID_8_">
      <use
         height="100%"
         width="100%"
         y="0"
         x="0"
         style="overflow:visible"
         xlink:href="#SVGID_7_"
         overflow="visible"
         id="use251" />
    </clipPath>
    <clipPath
       id="SVGID_10_">
      <use
         height="100%"
         width="100%"
         y="0"
         x="0"
         style="overflow:visible"
         xlink:href="#SVGID_9_"
         overflow="visible"
         id="use335" />
    </clipPath>
    <clipPath
       id="SVGID_12_">
      <use
         height="100%"
         width="100%"
         y="0"
         x="0"
         style="overflow:visible"
         xlink:href="#SVGID_11_"
         overflow="visible"
         id="use453" />
    </clipPath>
    <clipPath
       id="SVGID_14_">
      <use
         height="100%"
         width="100%"
         y="0"
         x="0"
         style="overflow:visible"
         xlink:href="#SVGID_13_"
         overflow="visible"
         id="use597" />
    </clipPath>
    <clipPath
       id="SVGID_16_">
      <use
         height="100%"
         width="100%"
         y="0"
         x="0"
         style="overflow:visible"
         xlink:href="#SVGID_15_"
         overflow="visible"
         id="use679" />
    </clipPath>
    <clipPath
       id="SVGID_18_">
      <use
         height="100%"
         width="100%"
         y="0"
         x="0"
         style="overflow:visible"
         xlink:href="#SVGID_17_"
         overflow="visible"
         id="use785" />
    </clipPath>
    <clipPath
       id="SVGID_20_">
      <use
         height="100%"
         width="100%"
         y="0"
         x="0"
         style="overflow:visible"
         xlink:href="#SVGID_19_"
         overflow="visible"
         id="use837" />
    </clipPath>
    <clipPath
       id="SVGID_22_">
      <use
         height="100%"
         width="100%"
         y="0"
         x="0"
         style="overflow:visible"
         xlink:href="#SVGID_21_"
         overflow="visible"
         id="use915" />
    </clipPath>
    <clipPath
       id="SVGID_24_">
      <use
         height="100%"
         width="100%"
         y="0"
         x="0"
         style="overflow:visible"
         xlink:href="#SVGID_23_"
         overflow="visible"
         id="use1009" />
    </clipPath>
    <clipPath
       id="SVGID_26_">
      <use
         height="100%"
         width="100%"
         y="0"
         x="0"
         style="overflow:visible"
         xlink:href="#SVGID_25_"
         overflow="visible"
         id="use1129" />
    </clipPath>
    <clipPath
       id="SVGID_28_">
      <use
         height="100%"
         width="100%"
         y="0"
         x="0"
         style="overflow:visible"
         xlink:href="#SVGID_27_"
         overflow="visible"
         id="use1177" />
    </clipPath>
    <path
       inkscape:connector-curvature="0"
       id="SVGID_1_"
       d="m 85.61,63.771 c 0,0 9.11,-7.035 22.765,-12.285 6.524,-2.508 21.116,-6.162 22.188,-5.343 1.133,1.889 5.288,20.02 5.415,28.834 0.125,8.814 -5.667,28.584 -7.177,29.34 -1.511,0.754 -22.784,-5.016 -28.585,-8.31 C 94.676,92.859 89.593,88.308 85.611,83.54 85.61,80.015 85.61,63.771 85.61,63.771 Z" />
    <path
       inkscape:connector-curvature="0"
       id="SVGID_3_"
       d="m 66.218,63.771 c 0,0 -9.109,-7.035 -22.765,-12.285 -6.523,-2.508 -21.116,-6.162 -22.186,-5.343 -1.133,1.889 -5.288,20.021 -5.414,28.836 -0.127,8.812 5.666,28.582 7.176,29.338 1.511,0.754 22.782,-5.016 28.583,-8.31 5.54,-3.148 10.624,-7.699 14.605,-12.467 0.001,-3.525 0.001,-19.769 0.001,-19.769 z" />
    <path
       inkscape:connector-curvature="0"
       id="SVGID_5_"
       d="m 216.268,64.571 c 0,0 -9.109,-7.034 -22.765,-12.285 -6.523,-2.509 -21.116,-6.162 -22.187,-5.343 -1.133,1.889 -5.288,20.021 -5.414,28.835 -0.127,8.814 5.666,28.583 7.176,29.339 1.511,0.755 22.782,-5.014 28.583,-8.311 5.54,-3.147 10.624,-7.697 14.605,-12.465 0.002,-3.527 0.002,-19.77 0.002,-19.77 z" />
    <path
       inkscape:connector-curvature="0"
       id="SVGID_7_"
       d="m 235.66,64.57 c 0,0 9.11,-7.034 22.765,-12.285 6.524,-2.509 21.116,-6.162 22.188,-5.343 1.133,1.888 5.288,20.021 5.415,28.835 0.125,8.814 -5.667,28.583 -7.177,29.339 -1.511,0.755 -22.784,-5.014 -28.585,-8.311 -5.54,-3.148 -10.623,-7.697 -14.605,-12.466 C 235.66,80.814 235.66,64.57 235.66,64.57 Z" />
    <path
       inkscape:connector-curvature="0"
       id="SVGID_9_"
       d="m 365.769,66.058 c 0,0 -9.111,-7.032 -22.767,-12.284 -6.523,-2.508 -21.116,-6.161 -22.186,-5.343 -1.133,1.89 -5.289,20.021 -5.415,28.835 -0.126,8.814 5.667,28.583 7.178,29.338 1.51,0.757 22.782,-5.013 28.583,-8.31 5.54,-3.148 10.624,-7.696 14.606,-12.465 0.001,-3.526 0.001,-19.771 0.001,-19.771 z" />
    <path
       inkscape:connector-curvature="0"
       id="SVGID_11_"
       d="m 385.16,66.058 c 0,0 9.111,-7.034 22.766,-12.284 6.524,-2.508 21.116,-6.161 22.187,-5.343 1.133,1.89 5.288,20.021 5.416,28.835 0.125,8.814 -5.667,28.583 -7.178,29.338 -1.511,0.757 -22.782,-5.014 -28.585,-8.31 -5.54,-3.148 -10.623,-7.696 -14.605,-12.465 -10e-4,-3.526 -10e-4,-19.771 -10e-4,-19.771 z" />
    <path
       inkscape:connector-curvature="0"
       id="SVGID_13_"
       d="m 515.153,66.489 c 0,0 -9.11,-7.035 -22.766,-12.286 -6.523,-2.509 -21.116,-6.162 -22.186,-5.343 -1.133,1.89 -5.289,20.021 -5.415,28.834 -0.125,8.814 5.667,28.583 7.178,29.339 1.51,0.754 22.782,-5.014 28.583,-8.311 5.539,-3.147 10.624,-7.697 14.606,-12.465 0,-3.525 0,-19.768 0,-19.768 z" />
    <path
       inkscape:connector-curvature="0"
       id="SVGID_15_"
       d="m 534.544,66.489 c 0,0 9.112,-7.035 22.766,-12.286 6.525,-2.509 21.116,-6.162 22.188,-5.343 1.133,1.888 5.287,20.021 5.415,28.834 0.125,8.814 -5.667,28.583 -7.178,29.339 -1.51,0.754 -22.782,-5.015 -28.584,-8.311 -5.54,-3.147 -10.622,-7.697 -14.606,-12.465 -10e-4,-3.525 -10e-4,-19.768 -10e-4,-19.768 z" />
    <path
       inkscape:connector-curvature="0"
       id="SVGID_17_"
       d="m 666.023,66.498 c 0,0 -9.111,-7.035 -22.766,-12.285 -6.523,-2.509 -21.116,-6.162 -22.186,-5.343 -1.133,1.888 -5.289,20.02 -5.415,28.834 -0.126,8.814 5.667,28.583 7.178,29.338 1.511,0.755 22.782,-5.014 28.583,-8.31 5.539,-3.148 10.624,-7.698 14.606,-12.465 0,-3.527 0,-19.769 0,-19.769 z" />
    <path
       inkscape:connector-curvature="0"
       id="SVGID_19_"
       d="m 685.413,66.497 c 0,0 9.111,-7.034 22.766,-12.284 6.525,-2.509 21.116,-6.162 22.188,-5.343 1.133,1.888 5.287,20.02 5.415,28.834 0.125,8.814 -5.667,28.583 -7.178,29.338 -1.51,0.755 -22.782,-5.014 -28.584,-8.31 -5.54,-3.149 -10.623,-7.698 -14.606,-12.465 -10e-4,-3.527 -10e-4,-19.77 -10e-4,-19.77 z" />
    <path
       inkscape:connector-curvature="0"
       id="SVGID_21_"
       d="m 814.768,66.498 c 0,0 -9.109,-7.035 -22.765,-12.286 -6.523,-2.509 -21.116,-6.161 -22.186,-5.343 -1.133,1.888 -5.288,20.021 -5.414,28.835 -0.127,8.814 5.666,28.583 7.176,29.339 1.511,0.756 22.782,-5.014 28.583,-8.31 5.54,-3.148 10.624,-7.697 14.605,-12.466 10e-4,-3.526 10e-4,-19.769 10e-4,-19.769 z" />
    <path
       inkscape:connector-curvature="0"
       id="SVGID_23_"
       d="m 834.16,66.498 c 0,0 9.11,-7.035 22.765,-12.285 6.524,-2.509 21.116,-6.162 22.188,-5.343 1.133,1.889 5.288,20.021 5.415,28.835 0.125,8.814 -5.667,28.584 -7.177,29.339 -1.511,0.756 -22.784,-5.015 -28.585,-8.31 -5.54,-3.148 -10.622,-7.697 -14.605,-12.466 -10e-4,-3.527 -10e-4,-19.77 -10e-4,-19.77 z" />
    <path
       inkscape:connector-curvature="0"
       id="SVGID_25_"
       d="m 984.75,66.772 c 0,0 9.11,-7.035 22.765,-12.285 6.524,-2.509 21.116,-6.161 22.187,-5.343 1.133,1.889 5.288,20.021 5.414,28.835 0.126,8.814 -5.666,28.584 -7.177,29.34 -1.511,0.755 -22.782,-5.015 -28.583,-8.311 -5.54,-3.148 -10.624,-7.697 -14.606,-12.466 0,-3.527 0,-19.77 0,-19.77 z" />
    <path
       inkscape:connector-curvature="0"
       id="SVGID_27_"
       d="m 965.359,66.772 c 0,0 -9.11,-7.034 -22.765,-12.285 -6.524,-2.509 -21.116,-6.162 -22.187,-5.343 -1.133,1.889 -5.289,20.021 -5.415,28.835 -0.126,8.814 5.667,28.583 7.178,29.339 1.511,0.755 22.782,-5.015 28.583,-8.311 5.54,-3.148 10.624,-7.697 14.606,-12.466 0,-3.526 0,-19.769 0,-19.769 z" />
  </defs>
  <sodipodi:namedview
     id="base"
     pagecolor="#ffffff"
     bordercolor="#666666"
     borderopacity="1.0"
     inkscape:pageopacity="0.0"
     inkscape:pageshadow="2"
     inkscape:zoom="0.98994949"
     inkscape:cx="295.0957"
     inkscape:cy="44.025202"
     inkscape:document-units="mm"
     inkscape:current-layer="layer1"
     showgrid="false"
     units="px"
     inkscape:window-width="1920"
     inkscape:window-height="1017"
     inkscape:window-x="-8"
     inkscape:window-y="-8"
     inkscape:window-maximized="1"
     fit-margin-top="0"
     fit-margin-left="0"
     fit-margin-right="0"
     fit-margin-bottom="0" />
  <metadata
     id="metadata1158">
    <rdf:RDF>
      <cc:Work
         rdf:about="">
        <dc:format>image/svg+xml</dc:format>
        <dc:type
           rdf:resource="http://purl.org/dc/dcmitype/StillImage" />
        <dc:title></dc:title>
      </cc:Work>
    </rdf:RDF>
  </metadata>
  <g
     inkscape:label="Layer 1"
     inkscape:groupmode="layer"
     id="layer1"
     transform="translate(-6.082492,-245.12962)">
    <g
       transform="matrix(0.39726567,0,0,0.39726567,-3.5937243,240.74088)"
       id="g1288" />
    <g
       transform="matrix(0.39726567,0,0,0.39726567,-3.5937243,240.74088)"
       id="g1290" />
    <g
       transform="matrix(0.39726567,0,0,0.39726567,-3.5937243,240.74088)"
       id="g1292" />
    <g
       transform="matrix(0.39726567,0,0,0.39726567,-3.5937243,240.74088)"
       id="g1294" />
    <g
       transform="matrix(0.39726567,0,0,0.39726567,-3.5937243,240.74088)"
       id="g1296" />
    <g
       transform="matrix(0.39726567,0,0,0.39726567,-3.5937243,240.74088)"
       id="g1298" />
    <g
       transform="matrix(0.36466783,0,0,0.36466783,-1.0914262,244.55219)"
       id="Слой_9" />
    <g
       transform="matrix(0.36131508,0,0,0.36131508,-216.84277,243.62221)"
       id="g982">
      <g
         id="g848">
        <g
           id="g836">
          <g
             id="g832">
            <g
               id="g830">
              <path
                 style="fill:#5c8b72"
                 inkscape:connector-curvature="0"
                 d="m 672.024,93.202 c 3.865,-1.097 6.341,-3.723 8.468,-7.014 2.455,-3.798 5.446,-8.48 6.251,-12.982 0.145,-0.812 -1.096,-1.159 -1.242,-0.342 -0.618,3.459 -2.67,6.489 -4.334,9.537 -2.25,4.121 -4.684,8.195 -9.486,9.559 -0.797,0.226 -0.457,1.469 0.343,1.242 z"
                 id="path828" />
            </g>
          </g>
          <path
             style="fill:#f49a5d"
             inkscape:connector-curvature="0"
             d="m 685.758,63.352 c -1.941,3.401 -4.76,11.614 0.917,13.611 3.89,1.369 9.534,-2.292 11.183,-5.784 -1.158,-0.052 -2.292,0.436 -3.416,0.626 -0.441,-1.281 0.574,-2.368 0.318,-3.648 -1.465,-0.085 -3.132,0.451 -4.623,0.678 0.141,-1.227 1.212,-2.601 0.621,-3.781 -1.326,0.122 -2.422,0.629 -3.442,1.45 -0.762,-0.832 -0.921,-2.195 -1.558,-3.152 z"
             id="path834" />
        </g>
        <g
           id="g846">
          <g
             id="g842">
            <g
               id="g840">
              <path
                 style="fill:#5c8b72"
                 inkscape:connector-curvature="0"
                 d="m 668.645,89.949 c 8.305,1.372 16.537,1.153 24.753,-0.676 0.81,-0.18 0.467,-1.422 -0.342,-1.242 -8.011,1.784 -15.972,2.014 -24.068,0.676 -0.813,-0.134 -1.161,1.107 -0.343,1.242 z"
                 id="path838" />
            </g>
          </g>
          <path
             style="fill:#f49a5d"
             inkscape:connector-curvature="0"
             d="m 705.114,78.119 c -4.612,-0.018 -12.375,3.258 -14.285,7.88 -2.21,5.351 3.185,8.172 7.537,9.005 2.875,0.55 6.615,0.328 9.323,-0.926 -1.006,-0.919 -2.844,-1.455 -4.117,-2.058 1.111,-1.228 3.513,-1.813 5.039,-2.479 -1.505,-1.024 -3.615,-1.678 -5.369,-2.187 1.208,-1.23 3.136,-2.031 4.706,-2.638 -1.379,-1.02 -3.646,-0.289 -5.28,-0.677 1.301,-1.205 2.969,-2.152 4.388,-3.259 -1.791,0.084 -3.561,-0.083 -5.332,-0.051 0.831,-0.783 1.614,-1.605 3.39,-2.61 z"
             id="path844" />
        </g>
      </g>
      <g
         id="g884">
        <g
           id="g854">
          <g
             id="g852">
            <path
               style="fill:#5c8b72"
               inkscape:connector-curvature="0"
               d="m 629.306,15.185 c -3.021,12.74 -3.163,26.292 4.599,37.407 8.541,12.23 24.738,18.005 28.812,33.415 0.424,1.604 2.908,0.923 2.483,-0.685 C 661.973,73.114 651.313,66.106 642.431,58.098 629.867,46.769 628.029,31.721 631.788,15.869 c 0.384,-1.615 -2.099,-2.3 -2.482,-0.684 z"
               id="path850" />
          </g>
        </g>
        <path
           style="fill:#5c8b72"
           inkscape:connector-curvature="0"
           d="m 629.946,18.324 c 2.614,-4.159 3.555,-9.339 2.571,-14.152 -1.752,1.784 -2.738,4.225 -3.066,6.704 -0.328,2.479 -0.037,5.004 0.495,7.448 z"
           id="path856" />
        <path
           style="fill:#5c8b72"
           inkscape:connector-curvature="0"
           d="m 629.688,19.366 c 1.968,-4.4 5.066,-8.288 8.916,-11.187 -0.008,2.572 -0.908,5.134 -2.511,7.145 -1.604,2.011 -3.9,3.46 -6.405,4.042 z"
           id="path858" />
        <path
           style="fill:#5c8b72"
           inkscape:connector-curvature="0"
           d="m 629.353,20.075 c -0.683,-4.043 -2.548,-7.88 -5.306,-10.915 -0.691,2.126 -0.526,4.517 0.451,6.528 0.977,2.011 2.756,3.618 4.855,4.387 z"
           id="path860" />
        <path
           style="fill:#5c8b72"
           inkscape:connector-curvature="0"
           d="m 637.706,18.4 c -1.616,3.702 -4.676,6.752 -8.385,8.353 1.419,-3.815 4.565,-6.949 8.385,-8.353 z"
           id="path862" />
        <path
           style="fill:#5c8b72"
           inkscape:connector-curvature="0"
           d="m 620.8,18.632 c 1.26,3.947 4.182,7.333 7.901,9.158 -1.102,-4.065 -3.864,-7.956 -7.901,-9.158 z"
           id="path864" />
        <path
           style="fill:#5c8b72"
           inkscape:connector-curvature="0"
           d="m 616.983,24.254 c 2.489,4.63 6.801,8.249 11.793,9.896 -0.985,-2.45 -2.757,-4.534 -4.844,-6.151 -2.088,-1.617 -4.487,-2.791 -6.949,-3.745 z"
           id="path866" />
        <path
           style="fill:#5c8b72"
           inkscape:connector-curvature="0"
           d="m 629.225,36.414 c 1.143,-2.651 3.591,-4.999 5.758,-6.854 1.246,-1.067 3.123,-3.272 4.703,-3.665 -0.197,2.867 -2.938,6.28 -4.917,8.289 -1.012,1.026 -4.151,4.226 -5.544,2.23 z"
           id="path868" />
        <path
           style="fill:#5c8b72"
           inkscape:connector-curvature="0"
           d="m 629.566,39.498 c -2.698,-3.215 -6.939,-8.294 -11.642,-7.509 2.329,5.424 6.729,8.626 11.642,7.509 z"
           id="path870" />
        <path
           style="fill:#5c8b72"
           inkscape:connector-curvature="0"
           d="m 631.839,47.028 c 0.126,-2.788 0.109,-4.872 1.984,-7.275 1.384,-1.774 2.974,-3.307 4.817,-4.683 -0.065,4.461 -2.776,9.258 -6.801,11.958 z"
           id="path872" />
        <path
           style="fill:#5c8b72"
           inkscape:connector-curvature="0"
           d="m 632.819,49.801 c -2.355,-2.807 -7.243,-7.689 -11.378,-6.389 1.008,2.977 3.774,4.978 6.493,6.327 1.901,0.944 3.585,0.611 4.885,0.062 z"
           id="path874" />
        <path
           style="fill:#5c8b72"
           inkscape:connector-curvature="0"
           d="m 636.823,54.306 c -1.745,-3.648 1.337,-10.606 4.429,-12.895 1.392,3.826 -0.472,10.547 -4.429,12.895 z"
           id="path876" />
        <path
           style="fill:#5c8b72"
           inkscape:connector-curvature="0"
           d="m 639.299,56.722 c -3.574,-2.289 -9.366,-2.007 -13.204,-0.734 0.947,2.83 5.412,3.386 7.97,3.19 1.932,-0.148 3.877,-1.537 5.234,-2.456 z"
           id="path878" />
        <path
           style="fill:#5c8b72"
           inkscape:connector-curvature="0"
           d="m 645.001,61.375 c -4.69,-1.273 -9.025,-0.139 -13.324,1.827 4.85,1.832 9.64,1.577 13.324,-1.827 z"
           id="path880" />
        <path
           style="fill:#5c8b72"
           inkscape:connector-curvature="0"
           d="m 650.64,66.755 c -4.159,-0.941 -9.794,0.786 -12.876,3.648 4.923,2.074 10.062,0.513 12.876,-3.648 z"
           id="path882" />
      </g>
      <g
         id="g890">
        <path
           style="fill:#ea6b77"
           inkscape:connector-curvature="0"
           d="m 647.896,50.632 c -0.654,-0.732 -4.529,0.155 -5.613,0.665 -1.65,0.776 -3.455,2.45 -4.211,4.095 -1.539,3.349 -1.462,7.746 0.641,10.82 2.257,3.298 7.111,4.528 10.857,3.686 4.296,-0.965 6.361,-4.754 6.854,-8.842 0.264,-2.188 -0.37,-4.495 -1.419,-6.504 -1.717,-3.29 -5.162,-3.578 -7.109,-3.92 z"
           id="path886" />
        <path
           style="fill:#5c8b72"
           inkscape:connector-curvature="0"
           d="m 647.317,48.871 c 0.897,-0.227 1.632,0.359 2.052,1.12 0.122,-0.613 0.456,-0.822 1.082,-1.053 -0.058,0.64 -0.142,1.307 -0.139,1.875 0.691,-0.541 1.395,-1.314 2.286,-1.25 -0.904,0.936 -1.536,2.901 -2.355,3.599 -0.771,0.657 -2.03,0.041 -3.12,-0.258 0.589,-1.173 1.32,-3.167 0.201,-4.034"
           id="path888" />
      </g>
      <g
         id="g910">
        <g
           id="g896">
          <g
             id="g894">
            <path
               style="fill:#5c8b72"
               inkscape:connector-curvature="0"
               d="m 670.252,96.868 c 20.269,6.707 34.011,24.271 48.283,39.1 1.154,1.198 2.972,-0.625 1.821,-1.821 -14.651,-15.222 -28.611,-32.876 -49.42,-39.762 -1.581,-0.523 -2.253,1.964 -0.684,2.483 z"
               id="path892" />
          </g>
        </g>
        <path
           style="fill:#5c8b72"
           inkscape:connector-curvature="0"
           d="m 674.59,97.44 c -1.034,2.446 -0.078,7.647 0.211,10.271 0.396,3.59 1.205,7.681 2.981,10.873 0.955,1.718 3.809,7.49 6.285,4.625 1.325,-1.533 0.242,-4.714 -0.045,-6.427 -0.465,-2.781 -1.063,-5.56 -1.906,-8.236 -1.003,-3.185 -3.054,-9.637 -7.526,-11.106 z"
           id="path898" />
        <path
           style="fill:#5c8b72"
           inkscape:connector-curvature="0"
           d="m 686.248,103.836 c 4.92,-4.735 15.172,-7.444 21.819,-6.287 2.824,0.492 4.1,2.326 2.03,4.712 -2.221,2.561 -6.843,3.56 -10.032,3.911 -2.067,0.227 -4.229,0.293 -6.305,0.124 -2.922,-0.238 -5.892,-2.034 -7.512,-2.46 z"
           id="path900" />
        <path
           style="fill:#5c8b72"
           inkscape:connector-curvature="0"
           d="m 702.094,116.829 c 2.28,-2.16 7.676,-2.991 10.705,-3.369 3.358,-0.42 7.539,-0.554 10.659,0.816 2.448,1.075 3.044,3.427 0.989,5.374 -2.716,2.572 -7.957,2.225 -11.369,1.684 -3.587,-0.569 -7.213,-1.809 -10.984,-4.505 z"
           id="path902" />
        <path
           style="fill:#5c8b72"
           inkscape:connector-curvature="0"
           d="m 711.32,127.288 c -1.461,1.918 -2.002,6.745 -1.965,9.176 0.038,2.496 1.586,5.407 3.343,7.194 4.531,4.61 4.411,-6.502 3.469,-8.928 -0.684,-1.76 -1.932,-5.016 -4.847,-7.442 z"
           id="path904" />
        <path
           style="fill:#5c8b72"
           inkscape:connector-curvature="0"
           d="m 717.532,133.086 c 3.836,-3.029 13.419,1.597 15.666,5.28 1.249,2.048 0.581,4.198 -1.994,4.462 -2.636,0.271 -5.889,-1.82 -8.019,-3.201 -2.549,-1.652 -4.033,-4.541 -5.653,-6.541 z"
           id="path906" />
        <path
           style="fill:#5c8b72"
           inkscape:connector-curvature="0"
           d="m 693.605,109.122 c -1.374,1.938 -1.154,6.843 -0.857,9.164 0.408,3.186 2.122,6.596 3.901,9.191 1.17,1.707 3.518,5.567 5.732,2.817 1.963,-2.438 -0.45,-8.224 -1.644,-10.529 -1.742,-3.367 -4.335,-7.503 -7.132,-10.643 z"
           id="path908" />
      </g>
      <g
         id="g954">
        <g
           id="g924">
          <g
             id="g916">
            <g
               id="g914">
              <path
                 style="fill:#5c8b72"
                 inkscape:connector-curvature="0"
                 d="m 652.845,95.409 c -9.212,-0.282 -17.4,3.476 -24.786,8.713 -0.671,0.476 -0.029,1.593 0.65,1.112 7.204,-5.108 15.134,-8.813 24.136,-8.538 0.831,0.027 0.828,-1.261 0,-1.287 z"
                 id="path912" />
            </g>
          </g>
          <g
             id="g922">
            <path
               style="fill:#ea6b77"
               inkscape:connector-curvature="0"
               d="m 633.291,104.456 c 1.4,-1.516 0.359,-3.808 -1.289,-4.548 -1.841,-0.826 -4.473,0.208 -6.096,1.101 -1.746,0.961 -3.833,2.47 -3.237,4.719 0.582,2.197 2.553,2.639 4.593,2.269 2.647,-0.48 3.898,-1.233 6.029,-3.541 z"
               id="path918" />
            <path
               style="fill:#5c8b72"
               inkscape:connector-curvature="0"
               d="m 623.526,104.671 c -0.984,0.099 -1.728,-0.11 -2.594,-0.07 0.223,0.368 0.601,0.488 0.885,0.762 -0.269,0.296 -0.612,0.389 -0.915,0.614 0.358,0.133 0.702,0.229 1.081,0.274 -0.054,0.239 -0.486,0.501 -0.701,0.632 0.193,0.071 0.807,0.108 1.027,0.084 0.053,0.39 -0.216,0.663 -0.291,1.069 0.626,-0.243 2.134,-1.768 2.134,-1.768 0,0 -0.136,-0.576 -0.626,-1.597 z"
               id="path920" />
          </g>
        </g>
        <g
           id="g938">
          <g
             id="g930">
            <g
               id="g928">
              <path
                 style="fill:#5c8b72"
                 inkscape:connector-curvature="0"
                 d="m 652.744,95.307 c -6.031,4.282 -12.009,8.634 -16.736,14.39 -0.522,0.636 0.383,1.553 0.911,0.911 4.658,-5.672 10.529,-9.967 16.475,-14.189 0.671,-0.477 0.029,-1.594 -0.65,-1.112 z"
                 id="path926" />
            </g>
          </g>
          <g
             id="g936">
            <path
               style="fill:#ea6b77"
               inkscape:connector-curvature="0"
               d="m 641.276,108.973 c 0.758,-1.92 -1.041,-3.681 -2.844,-3.775 -2.015,-0.106 -4.096,1.809 -5.287,3.228 -1.282,1.527 -2.682,3.688 -1.314,5.57 1.336,1.839 3.334,1.539 5.103,0.457 2.294,-1.404 3.188,-2.558 4.342,-5.48 z"
               id="path932" />
            <path
               style="fill:#5c8b72"
               inkscape:connector-curvature="0"
               d="m 632.248,112.7 c -0.881,0.448 -1.651,0.521 -2.444,0.872 0.34,0.263 0.737,0.238 1.1,0.391 -0.144,0.373 -0.431,0.584 -0.632,0.903 0.382,-0.005 0.738,-0.04 1.107,-0.134 0.036,0.243 -0.272,0.642 -0.425,0.843 0.206,-0.003 0.792,-0.19 0.988,-0.293 0.19,0.344 0.038,0.697 0.115,1.102 0.496,-0.453 1.351,-2.419 1.351,-2.419 0,0 -0.335,-0.49 -1.16,-1.265 z"
               id="path934" />
          </g>
        </g>
        <g
           id="g952">
          <g
             id="g944">
            <g
               id="g942">
              <path
                 style="fill:#5c8b72"
                 inkscape:connector-curvature="0"
                 d="m 652.098,95.69 c -2.377,7.367 -4.529,14.797 -6.458,22.294 -0.207,0.805 1.035,1.146 1.242,0.342 1.929,-7.497 4.081,-14.926 6.458,-22.294 0.256,-0.792 -0.988,-1.129 -1.242,-0.342 z"
                 id="path940" />
            </g>
          </g>
          <g
             id="g950">
            <path
               style="fill:#ea6b77"
               inkscape:connector-curvature="0"
               d="m 649.216,116.083 c -0.133,-2.06 -2.511,-2.886 -4.182,-2.202 -1.868,0.764 -2.934,3.383 -3.406,5.174 -0.508,1.927 -0.853,4.479 1.186,5.598 1.992,1.094 3.672,-0.029 4.811,-1.762 1.476,-2.249 1.793,-3.674 1.591,-6.808 z"
               id="path946" />
            <path
               style="fill:#5c8b72"
               inkscape:connector-curvature="0"
               d="m 642.638,123.303 c -0.607,0.781 -1.271,1.175 -1.839,1.831 0.42,0.092 0.768,-0.098 1.162,-0.116 0.029,0.399 -0.141,0.712 -0.187,1.086 0.343,-0.167 0.65,-0.35 0.944,-0.594 0.136,0.204 0.028,0.697 -0.026,0.944 0.185,-0.091 0.635,-0.51 0.769,-0.686 0.319,0.23 0.331,0.614 0.573,0.947 0.256,-0.621 0.19,-2.765 0.19,-2.765 0,0 -0.508,-0.298 -1.586,-0.647 z"
               id="path948" />
          </g>
        </g>
      </g>
      <g
         id="g980">
        <path
           style="fill:#86c7a4"
           inkscape:connector-curvature="0"
           d="m 660.829,88.539 c 7.624,3.015 16.792,12.918 12.437,21.457 -4.845,-1.927 -9.206,-7.979 -11.435,-12.49 -1.331,-2.695 -2.34,-6.67 -1.002,-8.967 z"
           id="path956" />
        <path
           style="fill:#5c8b72"
           inkscape:connector-curvature="0"
           d="m 661.029,89.045 c -3.869,-3.356 -10.541,-4.061 -15.447,-4.29 -4.078,-0.19 -7.655,0.542 -11.015,2.706 1.195,1.919 4.134,2.677 6.118,3.381 3.036,1.077 5.687,1.51 8.908,1.446 4.282,-0.086 8.081,-1.117 11.436,-3.243 z"
           id="path958" />
        <path
           style="fill:#5c8b72"
           inkscape:connector-curvature="0"
           d="m 660.741,88.49 c 0.081,-5.121 -3.67,-10.683 -6.65,-14.587 -2.477,-3.245 -5.339,-5.512 -9.157,-6.694 -0.701,2.15 0.609,4.887 1.346,6.859 1.128,3.018 2.502,5.325 4.623,7.751 2.819,3.224 6.052,5.469 9.838,6.671 z"
           id="path960" />
        <path
           style="fill:#5c8b72"
           inkscape:connector-curvature="0"
           d="m 661.157,87.59 c 1.618,-4.069 3.678,-8.588 6.737,-11.787 2.788,-2.915 5.894,-4.578 9.076,-6.83 -0.026,5.249 -2.601,10.199 -6.468,13.701 -2.312,2.095 -6.846,6.66 -9.345,4.916 z"
           id="path962" />
        <path
           style="fill:#5c8b72"
           inkscape:connector-curvature="0"
           d="m 662.058,87.058 c -1.343,0.138 -3.389,4.544 -3.934,5.774 -1.17,2.64 -2.048,5.369 -2.099,8.276 -0.052,2.998 0.593,7.691 2.196,10.269 2.625,-3.73 3.705,-9.006 4.678,-13.407 0.714,-3.228 1.6,-7.429 -0.841,-10.912 z"
           id="path964" />
        <path
           style="fill:#b5d69b"
           inkscape:connector-curvature="0"
           d="m 660.387,88.012 c 7.761,-1.022 16.392,1.618 21.263,7.97 -2.216,2.514 -8.346,1.393 -10.983,0.378 -3.722,-1.435 -6.88,-4.292 -10.28,-8.348 z"
           id="path966" />
        <path
           style="fill:#b5d69b"
           inkscape:connector-curvature="0"
           d="m 659.485,88.544 c 4.094,-1.763 6.519,-9.503 7.053,-13.553 0.261,-1.981 0.546,-7.133 -1.069,-8.736 -2.993,2.081 -5.664,6.884 -6.47,10.33 -0.95,4.064 -1.369,7.698 0.486,11.959 z"
           id="path968" />
        <path
           style="fill:#86c7a4"
           inkscape:connector-curvature="0"
           d="m 659.327,87.552 c 0.579,-1.316 0.417,-3.715 0.553,-5.232 0.241,-2.688 0.597,-5.402 0.628,-8.098 0.035,-3.028 -0.437,-7.123 -2.09,-9.69 -3.263,2.247 -3.813,9.223 -3.689,12.697 0.132,3.677 0.959,9.086 4.598,10.323 z"
           id="path970" />
        <path
           style="fill:#86c7a4"
           inkscape:connector-curvature="0"
           d="m 659.327,87.552 c -0.03,0.204 -0.113,0.282 -0.066,0.454 7.063,-4.001 13.803,-6.42 21.871,-4.399 -3.315,3.075 -6.894,4.562 -11.255,5.565 -1.771,0.407 -3.778,0.973 -5.625,0.899 -2.651,-0.104 -4.856,-1.897 -4.925,-2.519 z"
           id="path972" />
        <path
           style="fill:#b5d69b"
           inkscape:connector-curvature="0"
           d="m 660.476,88.386 c -3.122,-3.7 -6.98,-6.179 -11.279,-8.348 -1.206,-0.608 -6.984,-3.49 -7.882,-1.374 -1.184,2.786 7.24,7.592 9.021,8.355 1.669,0.714 7.544,3.299 10.14,1.367 z"
           id="path974" />
        <path
           style="fill:#b5d69b"
           inkscape:connector-curvature="0"
           d="m 660.909,88.164 c -5.156,4.961 -12.894,10.766 -10.543,18.939 5.177,-4.423 13.243,-10.958 10.543,-18.939 z"
           id="path976" />
        <path
           style="fill:#86c7a4"
           inkscape:connector-curvature="0"
           d="m 661.51,87.743 c -6.16,0.71 -15.123,4.078 -18.748,9.428 6.293,0.403 15.841,-4.177 18.748,-9.428 z"
           id="path978" />
      </g>
    </g>
    <g
       transform="matrix(0.36131508,0,0,0.36131508,-1.1693956,243.62221)"
       id="g1385" />
    <g
       transform="matrix(0.36131508,0,0,0.36131508,-1.1693956,243.62221)"
       id="g1387" />
    <g
       transform="matrix(0.36131508,0,0,0.36131508,-1.1693956,243.62221)"
       id="g1389" />
    <g
       transform="matrix(0.36131508,0,0,0.36131508,-1.1693956,243.62221)"
       id="g1391" />
    <g
       transform="matrix(0.36131508,0,0,0.36131508,-1.1693956,243.62221)"
       id="g1393" />
    <g
       transform="matrix(0.36131508,0,0,0.36131508,-1.1693956,243.62221)"
       id="g1395" />
  </g>
</svg>
