<?xml version="1.0" encoding="UTF-8" standalone="no"?>
<!-- Created with Inkscape (http://www.inkscape.org/) -->

<svg
   xmlns:dc="http://purl.org/dc/elements/1.1/"
   xmlns:cc="http://creativecommons.org/ns#"
   xmlns:rdf="http://www.w3.org/1999/02/22-rdf-syntax-ns#"
   xmlns:svg="http://www.w3.org/2000/svg"
   xmlns="http://www.w3.org/2000/svg"
   xmlns:xlink="http://www.w3.org/1999/xlink"
   xmlns:sodipodi="http://sodipodi.sourceforge.net/DTD/sodipodi-0.dtd"
   xmlns:inkscape="http://www.inkscape.org/namespaces/inkscape"
   width="165.94092"
   height="194.89438"
   viewBox="0 0 43.9052 51.565806"
   version="1.1"
   id="svg1161"
   inkscape:version="0.92.4 (5da689c313, 2019-01-14)"
   sodipodi:docname="set_icon.svg">
  <defs
     id="defs1155">
    <clipPath
       id="SVGID_2_">
      <use
         height="100%"
         width="100%"
         y="0"
         x="0"
         style="overflow:visible"
         xlink:href="#SVGID_1_"
         overflow="visible"
         id="use15" />
    </clipPath>
    <clipPath
       id="SVGID_4_">
      <use
         height="100%"
         width="100%"
         y="0"
         x="0"
         style="overflow:visible"
         xlink:href="#SVGID_3_"
         overflow="visible"
         id="use91" />
    </clipPath>
    <clipPath
       id="SVGID_6_">
      <use
         height="100%"
         width="100%"
         y="0"
         x="0"
         style="overflow:visible"
         xlink:href="#SVGID_5_"
         overflow="visible"
         id="use193" />
    </clipPath>
    <clipPath
       id="SVGID_8_">
      <use
         height="100%"
         width="100%"
         y="0"
         x="0"
         style="overflow:visible"
         xlink:href="#SVGID_7_"
         overflow="visible"
         id="use251" />
    </clipPath>
    <clipPath
       id="SVGID_10_">
      <use
         height="100%"
         width="100%"
         y="0"
         x="0"
         style="overflow:visible"
         xlink:href="#SVGID_9_"
         overflow="visible"
         id="use335" />
    </clipPath>
    <clipPath
       id="SVGID_12_">
      <use
         height="100%"
         width="100%"
         y="0"
         x="0"
         style="overflow:visible"
         xlink:href="#SVGID_11_"
         overflow="visible"
         id="use453" />
    </clipPath>
    <clipPath
       id="SVGID_14_">
      <use
         height="100%"
         width="100%"
         y="0"
         x="0"
         style="overflow:visible"
         xlink:href="#SVGID_13_"
         overflow="visible"
         id="use597" />
    </clipPath>
    <clipPath
       id="SVGID_16_">
      <use
         height="100%"
         width="100%"
         y="0"
         x="0"
         style="overflow:visible"
         xlink:href="#SVGID_15_"
         overflow="visible"
         id="use679" />
    </clipPath>
    <clipPath
       id="SVGID_18_">
      <use
         height="100%"
         width="100%"
         y="0"
         x="0"
         style="overflow:visible"
         xlink:href="#SVGID_17_"
         overflow="visible"
         id="use785" />
    </clipPath>
    <clipPath
       id="SVGID_20_">
      <use
         height="100%"
         width="100%"
         y="0"
         x="0"
         style="overflow:visible"
         xlink:href="#SVGID_19_"
         overflow="visible"
         id="use837" />
    </clipPath>
    <clipPath
       id="SVGID_22_">
      <use
         height="100%"
         width="100%"
         y="0"
         x="0"
         style="overflow:visible"
         xlink:href="#SVGID_21_"
         overflow="visible"
         id="use915" />
    </clipPath>
    <clipPath
       id="SVGID_24_">
      <use
         height="100%"
         width="100%"
         y="0"
         x="0"
         style="overflow:visible"
         xlink:href="#SVGID_23_"
         overflow="visible"
         id="use1009" />
    </clipPath>
    <clipPath
       id="SVGID_26_">
      <use
         height="100%"
         width="100%"
         y="0"
         x="0"
         style="overflow:visible"
         xlink:href="#SVGID_25_"
         overflow="visible"
         id="use1129" />
    </clipPath>
    <clipPath
       id="SVGID_28_">
      <use
         height="100%"
         width="100%"
         y="0"
         x="0"
         style="overflow:visible"
         xlink:href="#SVGID_27_"
         overflow="visible"
         id="use1177" />
    </clipPath>
    <path
       inkscape:connector-curvature="0"
       id="SVGID_1_"
       d="m 85.61,63.771 c 0,0 9.11,-7.035 22.765,-12.285 6.524,-2.508 21.116,-6.162 22.188,-5.343 1.133,1.889 5.288,20.02 5.415,28.834 0.125,8.814 -5.667,28.584 -7.177,29.34 -1.511,0.754 -22.784,-5.016 -28.585,-8.31 C 94.676,92.859 89.593,88.308 85.611,83.54 85.61,80.015 85.61,63.771 85.61,63.771 Z" />
    <path
       inkscape:connector-curvature="0"
       id="SVGID_3_"
       d="m 66.218,63.771 c 0,0 -9.109,-7.035 -22.765,-12.285 -6.523,-2.508 -21.116,-6.162 -22.186,-5.343 -1.133,1.889 -5.288,20.021 -5.414,28.836 -0.127,8.812 5.666,28.582 7.176,29.338 1.511,0.754 22.782,-5.016 28.583,-8.31 5.54,-3.148 10.624,-7.699 14.605,-12.467 0.001,-3.525 0.001,-19.769 0.001,-19.769 z" />
    <path
       inkscape:connector-curvature="0"
       id="SVGID_5_"
       d="m 216.268,64.571 c 0,0 -9.109,-7.034 -22.765,-12.285 -6.523,-2.509 -21.116,-6.162 -22.187,-5.343 -1.133,1.889 -5.288,20.021 -5.414,28.835 -0.127,8.814 5.666,28.583 7.176,29.339 1.511,0.755 22.782,-5.014 28.583,-8.311 5.54,-3.147 10.624,-7.697 14.605,-12.465 0.002,-3.527 0.002,-19.77 0.002,-19.77 z" />
    <path
       inkscape:connector-curvature="0"
       id="SVGID_7_"
       d="m 235.66,64.57 c 0,0 9.11,-7.034 22.765,-12.285 6.524,-2.509 21.116,-6.162 22.188,-5.343 1.133,1.888 5.288,20.021 5.415,28.835 0.125,8.814 -5.667,28.583 -7.177,29.339 -1.511,0.755 -22.784,-5.014 -28.585,-8.311 -5.54,-3.148 -10.623,-7.697 -14.605,-12.466 C 235.66,80.814 235.66,64.57 235.66,64.57 Z" />
    <path
       inkscape:connector-curvature="0"
       id="SVGID_9_"
       d="m 365.769,66.058 c 0,0 -9.111,-7.032 -22.767,-12.284 -6.523,-2.508 -21.116,-6.161 -22.186,-5.343 -1.133,1.89 -5.289,20.021 -5.415,28.835 -0.126,8.814 5.667,28.583 7.178,29.338 1.51,0.757 22.782,-5.013 28.583,-8.31 5.54,-3.148 10.624,-7.696 14.606,-12.465 0.001,-3.526 0.001,-19.771 0.001,-19.771 z" />
    <path
       inkscape:connector-curvature="0"
       id="SVGID_11_"
       d="m 385.16,66.058 c 0,0 9.111,-7.034 22.766,-12.284 6.524,-2.508 21.116,-6.161 22.187,-5.343 1.133,1.89 5.288,20.021 5.416,28.835 0.125,8.814 -5.667,28.583 -7.178,29.338 -1.511,0.757 -22.782,-5.014 -28.585,-8.31 -5.54,-3.148 -10.623,-7.696 -14.605,-12.465 -10e-4,-3.526 -10e-4,-19.771 -10e-4,-19.771 z" />
    <path
       inkscape:connector-curvature="0"
       id="SVGID_13_"
       d="m 515.153,66.489 c 0,0 -9.11,-7.035 -22.766,-12.286 -6.523,-2.509 -21.116,-6.162 -22.186,-5.343 -1.133,1.89 -5.289,20.021 -5.415,28.834 -0.125,8.814 5.667,28.583 7.178,29.339 1.51,0.754 22.782,-5.014 28.583,-8.311 5.539,-3.147 10.624,-7.697 14.606,-12.465 0,-3.525 0,-19.768 0,-19.768 z" />
    <path
       inkscape:connector-curvature="0"
       id="SVGID_15_"
       d="m 534.544,66.489 c 0,0 9.112,-7.035 22.766,-12.286 6.525,-2.509 21.116,-6.162 22.188,-5.343 1.133,1.888 5.287,20.021 5.415,28.834 0.125,8.814 -5.667,28.583 -7.178,29.339 -1.51,0.754 -22.782,-5.015 -28.584,-8.311 -5.54,-3.147 -10.622,-7.697 -14.606,-12.465 -10e-4,-3.525 -10e-4,-19.768 -10e-4,-19.768 z" />
    <path
       inkscape:connector-curvature="0"
       id="SVGID_17_"
       d="m 666.023,66.498 c 0,0 -9.111,-7.035 -22.766,-12.285 -6.523,-2.509 -21.116,-6.162 -22.186,-5.343 -1.133,1.888 -5.289,20.02 -5.415,28.834 -0.126,8.814 5.667,28.583 7.178,29.338 1.511,0.755 22.782,-5.014 28.583,-8.31 5.539,-3.148 10.624,-7.698 14.606,-12.465 0,-3.527 0,-19.769 0,-19.769 z" />
    <path
       inkscape:connector-curvature="0"
       id="SVGID_19_"
       d="m 685.413,66.497 c 0,0 9.111,-7.034 22.766,-12.284 6.525,-2.509 21.116,-6.162 22.188,-5.343 1.133,1.888 5.287,20.02 5.415,28.834 0.125,8.814 -5.667,28.583 -7.178,29.338 -1.51,0.755 -22.782,-5.014 -28.584,-8.31 -5.54,-3.149 -10.623,-7.698 -14.606,-12.465 -10e-4,-3.527 -10e-4,-19.77 -10e-4,-19.77 z" />
    <path
       inkscape:connector-curvature="0"
       id="SVGID_21_"
       d="m 814.768,66.498 c 0,0 -9.109,-7.035 -22.765,-12.286 -6.523,-2.509 -21.116,-6.161 -22.186,-5.343 -1.133,1.888 -5.288,20.021 -5.414,28.835 -0.127,8.814 5.666,28.583 7.176,29.339 1.511,0.756 22.782,-5.014 28.583,-8.31 5.54,-3.148 10.624,-7.697 14.605,-12.466 10e-4,-3.526 10e-4,-19.769 10e-4,-19.769 z" />
    <path
       inkscape:connector-curvature="0"
       id="SVGID_23_"
       d="m 834.16,66.498 c 0,0 9.11,-7.035 22.765,-12.285 6.524,-2.509 21.116,-6.162 22.188,-5.343 1.133,1.889 5.288,20.021 5.415,28.835 0.125,8.814 -5.667,28.584 -7.177,29.339 -1.511,0.756 -22.784,-5.015 -28.585,-8.31 -5.54,-3.148 -10.622,-7.697 -14.605,-12.466 -10e-4,-3.527 -10e-4,-19.77 -10e-4,-19.77 z" />
    <path
       inkscape:connector-curvature="0"
       id="SVGID_25_"
       d="m 984.75,66.772 c 0,0 9.11,-7.035 22.765,-12.285 6.524,-2.509 21.116,-6.161 22.187,-5.343 1.133,1.889 5.288,20.021 5.414,28.835 0.126,8.814 -5.666,28.584 -7.177,29.34 -1.511,0.755 -22.782,-5.015 -28.583,-8.311 -5.54,-3.148 -10.624,-7.697 -14.606,-12.466 0,-3.527 0,-19.77 0,-19.77 z" />
    <path
       inkscape:connector-curvature="0"
       id="SVGID_27_"
       d="m 965.359,66.772 c 0,0 -9.11,-7.034 -22.765,-12.285 -6.524,-2.509 -21.116,-6.162 -22.187,-5.343 -1.133,1.889 -5.289,20.021 -5.415,28.835 -0.126,8.814 5.667,28.583 7.178,29.339 1.511,0.755 22.782,-5.015 28.583,-8.311 5.54,-3.148 10.624,-7.697 14.606,-12.466 0,-3.526 0,-19.769 0,-19.769 z" />
  </defs>
  <sodipodi:namedview
     id="base"
     pagecolor="#ffffff"
     bordercolor="#666666"
     borderopacity="1.0"
     inkscape:pageopacity="0.0"
     inkscape:pageshadow="2"
     inkscape:zoom="0.7"
     inkscape:cx="619.69411"
     inkscape:cy="26.460432"
     inkscape:document-units="mm"
     inkscape:current-layer="layer1"
     showgrid="false"
     units="px"
     inkscape:window-width="1920"
     inkscape:window-height="1017"
     inkscape:window-x="-8"
     inkscape:window-y="-8"
     inkscape:window-maximized="1"
     fit-margin-top="0"
     fit-margin-left="0"
     fit-margin-right="0"
     fit-margin-bottom="0" />
  <metadata
     id="metadata1158">
    <rdf:RDF>
      <cc:Work
         rdf:about="">
        <dc:format>image/svg+xml</dc:format>
        <dc:type
           rdf:resource="http://purl.org/dc/dcmitype/StillImage" />
        <dc:title></dc:title>
      </cc:Work>
    </rdf:RDF>
  </metadata>
  <g
     inkscape:label="Layer 1"
     inkscape:groupmode="layer"
     id="layer1"
     transform="translate(-4.2875461,-244.75674)">
    <g
       transform="matrix(0.39726567,0,0,0.39726567,-3.5937243,240.74088)"
       id="g1288" />
    <g
       transform="matrix(0.39726567,0,0,0.39726567,-3.5937243,240.74088)"
       id="g1290" />
    <g
       transform="matrix(0.39726567,0,0,0.39726567,-3.5937243,240.74088)"
       id="g1292" />
    <g
       transform="matrix(0.39726567,0,0,0.39726567,-3.5937243,240.74088)"
       id="g1294" />
    <g
       transform="matrix(0.39726567,0,0,0.39726567,-3.5937243,240.74088)"
       id="g1296" />
    <g
       transform="matrix(0.39726567,0,0,0.39726567,-3.5937243,240.74088)"
       id="g1298" />
    <g
       transform="matrix(0.36466783,0,0,0.36466783,-1.0914262,244.55219)"
       id="Слой_9" />
    <g
       transform="matrix(0.36131508,0,0,0.36131508,-1.1693956,243.62221)"
       id="g138">
      <path
         style="fill:#b5d69b"
         inkscape:connector-curvature="0"
         d="m 64.829,99.177 c -2.875,7.981 -6.946,15.942 -1.927,23.991 3.633,5.825 7.207,11.331 12.103,16.135 2.261,2.219 4.654,4.881 7.352,6.554 1.368,-2.308 1.852,-5.524 2.328,-8.158 0.672,-3.719 0.99,-7.826 0.967,-11.61 -0.034,-5.584 -0.43,-12.78 -3.097,-17.815 -1.082,-2.042 -2.238,-4.032 -3.592,-5.902 -0.942,-1.301 -1.751,-3.147 -3.072,-4.123 -1.484,-1.097 -3.789,-0.945 -5.562,-1.001 -3.078,-0.098 -2.518,-0.06 -5.338,1.084"
         id="path2" />
      <g
         id="g28">
        <g
           id="g14">
          <g
             id="g8">
            <g
               id="g6">
              <path
                 style="fill:#5c8b72"
                 inkscape:connector-curvature="0"
                 d="m 80.155,75.945 c 3.495,-2.453 6.432,-5.491 8.757,-9.071 0.383,-0.59 -0.559,-1.134 -0.939,-0.549 -2.223,3.423 -5.027,6.336 -8.367,8.681 -0.569,0.4 -0.027,1.343 0.549,0.939 z"
                 id="path4" />
            </g>
          </g>
          <path
             style="fill:#ea6b77"
             inkscape:connector-curvature="0"
             d="m 90.134,69.174 c 1.564,0.169 3.728,-2.858 4.57,-3.901 0.81,-1.003 2.61,-2.9 2.106,-4.363 -0.291,-0.843 -0.828,-0.822 -1.497,-0.651 -0.802,0.205 -0.911,0.39 -1.749,0.291 -1.957,-0.229 -3.272,0.975 -4.31,2.653 -0.851,1.373 -3.3,4.779 0.88,5.971 z"
             id="path10" />
          <path
             style="fill:#5c8b72"
             inkscape:connector-curvature="0"
             d="m 91.085,68.837 c -0.773,1.383 -3.749,2.429 -4.775,0.89 -0.932,-1.397 -0.028,-3.569 1.016,-4.581 0.691,0.181 0.532,0.764 0.916,1.179 0.364,0.393 0.76,0.246 1.106,0.564 0.184,0.169 0.115,0.571 0.26,0.713 0.168,0.166 0.473,0.215 0.639,0.384 0.412,0.418 1.06,0.449 0.838,0.851 z"
             id="path12" />
        </g>
        <g
           id="g26">
          <g
             id="g20">
            <g
               id="g18">
              <path
                 style="fill:#5c8b72"
                 inkscape:connector-curvature="0"
                 d="m 75.217,84.237 c 5.073,-6.809 7.828,-14.601 8.214,-23.076 0.032,-0.701 -1.056,-0.698 -1.087,0 -0.377,8.291 -3.112,15.879 -8.065,22.527 -0.42,0.563 0.525,1.104 0.938,0.549 z"
                 id="path16" />
            </g>
          </g>
          <path
             style="fill:#ea6b77"
             inkscape:connector-curvature="0"
             d="m 85.208,59.823 c 2.003,-4.241 1.526,-10.221 -1.872,-13.635 -1.237,-1.243 -1.501,-0.466 -2.216,0.826 -0.811,-0.477 -1.432,-0.232 -1.858,0.581 -3.869,-2.018 -2.574,6.075 -2.135,7.813 0.427,1.694 0.981,3.362 1.94,4.825 1.615,2.464 3.677,1.865 6.141,-0.41 z"
             id="path22" />
          <path
             style="fill:#5c8b72"
             inkscape:connector-curvature="0"
             d="m 85.638,59.052 c 0.4,0.106 0.882,-0.538 1.025,-0.497 -0.701,1.844 -2.158,5.12 -4.561,4.705 -1.505,-0.259 -3.892,-2.131 -3.609,-3.788 0.977,0.176 1.148,1.111 1.988,0.304 0.902,-0.867 0.798,-1.556 2.148,-1.182 0.354,0.098 0.582,0.384 0.95,0.317 0.351,-0.064 0.433,-0.63 0.82,-0.719 0.896,-0.205 0.725,0.724 1.239,0.86 z"
             id="path24" />
        </g>
      </g>
      <g
         id="g52">
        <path
           style="fill:#86c7a4"
           inkscape:connector-curvature="0"
           d="m 23.418,73.853 c -0.408,-0.026 -0.841,-0.071 -1.161,-0.325 -0.536,-0.423 -0.525,-1.286 -0.157,-1.86 0.368,-0.575 0.993,-0.926 1.6,-1.238 6.211,-3.194 13.288,-4.681 20.259,-4.256 -5.357,5.294 -13.025,8.161 -20.541,7.679 z"
           id="path30" />
        <path
           style="fill:#86c7a4"
           inkscape:connector-curvature="0"
           d="m 20.449,63.989 c 2.971,-2.917 6.198,-5.757 10.132,-7.12 3.934,-1.363 8.747,-0.933 11.649,2.052 -5.508,5.619 -14.358,7.678 -21.781,5.068 z"
           id="path32" />
        <path
           style="fill:#86c7a4"
           inkscape:connector-curvature="0"
           d="m 15.103,47.136 c 3.171,-3.552 8.073,-5.482 12.815,-5.043 4.742,0.439 9.206,3.235 11.671,7.309 -3.722,2.367 -8.238,3.459 -12.63,3.052 -4.392,-0.407 -8.632,-2.308 -11.856,-5.318 z"
           id="path34" />
        <path
           style="fill:#86c7a4"
           inkscape:connector-curvature="0"
           d="m 38.353,38.696 c -4.383,1.423 -9.34,0.133 -13.061,-2.585 -3.721,-2.718 -6.34,-6.706 -8.269,-10.891 4.502,-0.408 9.129,0.707 12.95,3.121 3.821,2.414 6.816,6.114 8.38,10.355 z"
           id="path36" />
        <path
           style="fill:#86c7a4"
           inkscape:connector-curvature="0"
           d="m 36.822,12.455 c 1.734,-3.105 3.468,-6.21 5.201,-9.315 1.357,3.376 2.723,6.78 3.387,10.358 0.664,3.578 0.586,7.386 -0.875,10.719 -0.656,1.498 -1.612,2.907 -2.957,3.837 -1.345,0.93 -3.119,1.326 -4.662,0.783 -2.046,-0.72 -3.268,-2.907 -3.553,-5.057 -0.527,-3.986 1.499,-7.816 3.459,-11.325 z"
           id="path38" />
        <path
           style="fill:#86c7a4"
           inkscape:connector-curvature="0"
           d="m 57.759,23.551 c -8.549,3.1 -15.747,9.753 -19.51,18.032 4.823,0.968 9.907,-1.265 13.267,-4.858 3.36,-3.593 5.201,-8.366 6.243,-13.174 z"
           id="path40" />
        <path
           style="fill:#86c7a4"
           inkscape:connector-curvature="0"
           d="m 63.631,33.307 c -9.523,2.819 -17.762,9.723 -22.204,18.606 5.317,0.338 10.739,-1.44 14.823,-4.862 4.083,-3.422 6.784,-8.45 7.381,-13.744 z"
           id="path42" />
        <path
           style="fill:#86c7a4"
           inkscape:connector-curvature="0"
           d="m 47.682,57.152 c -1.127,1.099 -2.25,2.245 -2.965,3.647 -0.715,1.402 -0.974,3.121 -0.319,4.552 4.527,-1.486 9.066,-3.252 12.749,-6.275 3.683,-3.023 6.431,-7.512 6.318,-12.275 -6.125,1.714 -11.231,5.91 -15.783,10.351 z"
           id="path44" />
        <g
           id="g50">
          <g
             id="g48">
            <path
               style="fill:#95563e"
               inkscape:connector-curvature="0"
               d="M 50.281,79.042 C 43.793,60.859 37.26,41.913 40.88,22.374 c 0.312,-1.684 -2.262,-2.402 -2.576,-0.71 -3.72,20.077 2.723,39.374 9.401,58.088 0.575,1.61 3.157,0.916 2.576,-0.71 z"
               id="path46" />
          </g>
        </g>
      </g>
      <path
         style="fill:#5c8b72"
         inkscape:connector-curvature="0"
         d="m 63.207,86.792 c 0.92,-1.099 1.762,-2.386 1.78,-3.82 0.026,-2.115 -1.716,-3.813 -3.478,-4.982 -6.527,-4.332 -14.972,-5.131 -22.609,-3.388 -7.637,1.743 -14.562,5.816 -20.779,10.583 6.537,5.17 14.26,9.162 22.556,9.963 8.295,0.8 17.18,-1.967 22.53,-8.356 z"
         id="path54" />
      <g
         id="g74">
        <g
           id="g60">
          <g
             id="g58">
            <path
               style="fill:#5c8b72"
               inkscape:connector-curvature="0"
               d="m 76.879,103.033 c 5.387,7.377 12.829,12.933 20.257,18.127 7.44,5.202 16.555,6.537 25.434,6.52 1.613,-0.003 1.613,-2.504 0,-2.501 -8.664,0.016 -16.82,-1.368 -24.171,-6.178 -7.122,-4.661 -14.313,-10.319 -19.359,-17.23 -0.943,-1.289 -3.114,-0.043 -2.161,1.262 z"
               id="path56" />
          </g>
        </g>
        <path
           style="fill:#5c8b72"
           inkscape:connector-curvature="0"
           d="m 110.258,122.611 c -1.18,0.665 -2.465,1.185 -3.813,1.312 -1.348,0.127 -2.769,-0.169 -3.839,-0.999 1.173,-2.932 3.306,-5.47 5.992,-7.131 2.686,-1.661 5.91,-2.434 9.057,-2.172 -1.245,3.769 -3.937,7.041 -7.397,8.99 z"
           id="path62" />
        <path
           style="fill:#5c8b72"
           inkscape:connector-curvature="0"
           d="m 110.413,108.301 c -2.199,2.714 -4.571,5.382 -7.592,7.135 -3.021,1.753 -6.824,2.477 -10.046,1.128 1.216,-3.399 3.83,-6.273 7.098,-7.804 3.268,-1.531 7.151,-1.7 10.54,-0.459 z"
           id="path64" />
        <path
           style="fill:#5c8b72"
           inkscape:connector-curvature="0"
           d="m 136.618,124.355 c -2.564,2.68 -5.574,5.155 -9.187,5.994 -3.613,0.839 -7.918,-0.39 -9.697,-3.645 2.208,-2.721 5.492,-4.543 8.969,-4.976 3.477,-0.432 7.108,0.53 9.915,2.627 z"
           id="path66" />
        <path
           style="fill:#5c8b72"
           inkscape:connector-curvature="0"
           d="m 106.798,129.829 c -0.148,-1.158 -0.165,-2.329 -0.182,-3.497 -0.006,-0.444 0.004,-0.936 0.303,-1.264 0.483,-0.53 1.36,-0.298 1.991,0.043 2.807,1.518 4.714,4.37 5.689,7.408 0.975,3.038 1.114,6.278 1.103,9.469 -4.758,-2.203 -8.239,-6.958 -8.904,-12.159 z"
           id="path68" />
        <path
           style="fill:#5c8b72"
           inkscape:connector-curvature="0"
           d="m 94.283,118.267 c 4.229,5.575 4.909,13.62 1.673,19.825 -2.713,-2.444 -4.45,-5.943 -4.757,-9.582 -0.307,-3.638 0.819,-7.379 3.084,-10.243 z"
           id="path70" />
        <path
           style="fill:#5c8b72"
           inkscape:connector-curvature="0"
           d="m 82.146,107.572 c 2.207,3.08 3.333,6.918 3.141,10.702 -0.192,3.784 -1.702,7.488 -4.209,10.329 -2.805,-2.792 -4.353,-6.801 -4.152,-10.753 0.2,-3.952 2.147,-7.784 5.22,-10.278 z"
           id="path72" />
      </g>
      <g
         id="g98">
        <path
           style="fill:#b5d69b"
           inkscape:connector-curvature="0"
           d="m 103.986,91.62 c 0.936,-0.625 8.769,-7.649 9.199,-4.841 0.462,3.02 -6.122,4.289 -9.199,4.841 z"
           id="path76" />
        <path
           style="fill:#b5d69b"
           inkscape:connector-curvature="0"
           d="m 112.179,92.241 c 1.07,-0.681 7.084,-6.028 8.469,-3.989 1.583,2.331 -7.803,4.11 -8.469,3.989 z"
           id="path78" />
        <path
           style="fill:#b5d69b"
           inkscape:connector-curvature="0"
           d="m 117.983,93.85 c 1.237,-0.827 6.329,-5.025 8.066,-3.569 1.074,0.9 -1.498,2.163 -2.217,2.521 -1.738,0.867 -3.66,0.915 -5.849,1.048 z"
           id="path80" />
        <path
           style="fill:#b5d69b"
           inkscape:connector-curvature="0"
           d="m 123.541,95.776 c 0.554,-0.804 6.876,-5.299 7.383,-3.196 0.575,2.388 -5.91,4.358 -7.383,3.196 z"
           id="path82" />
        <path
           style="fill:#b5d69b"
           inkscape:connector-curvature="0"
           d="m 123.928,96.127 c 0.961,1.425 2.253,2.32 2.884,4.023 0.335,0.903 0.855,2.742 -0.643,2.409 -0.97,-0.216 -1.868,-2.229 -2.385,-2.998 -0.82,-1.22 -0.798,-2.251 0.144,-3.434 z"
           id="path84" />
        <path
           style="fill:#b5d69b"
           inkscape:connector-curvature="0"
           d="m 118.581,94.518 c 0.532,0.561 5.785,6.982 3.252,7.555 -0.818,0.185 -2.544,-2.91 -2.771,-3.461 -0.568,-1.377 -0.591,-3.127 -0.481,-4.094 z"
           id="path86" />
        <path
           style="fill:#b5d69b"
           inkscape:connector-curvature="0"
           d="m 112.672,92.522 c 1.182,1.466 2.651,2.447 3.427,4.257 0.26,0.605 1.511,3.339 0.017,3.499 -0.986,0.105 -2.951,-3.273 -3.362,-4.004 -0.658,-1.167 -0.859,-2.311 -0.082,-3.752 z"
           id="path88" />
        <path
           style="fill:#b5d69b"
           inkscape:connector-curvature="0"
           d="m 104.337,91.689 c 2.168,0.925 3.921,3.405 5.231,5.313 0.581,0.847 2.114,3.464 0.025,3.458 -1.605,-0.005 -3.564,-3.049 -4.341,-4.21 -0.881,-1.317 -2.091,-2.829 -0.915,-4.561 z"
           id="path90" />
        <g
           id="g96">
          <g
             id="g94">
            <path
               style="fill:#5c8b72"
               inkscape:connector-curvature="0"
               d="m 95.196,92.822 c 11.142,-1.154 22.034,0.628 32.202,5.34 0.785,0.364 1.472,-0.801 0.682,-1.167 -10.39,-4.815 -21.489,-6.705 -32.884,-5.525 -0.858,0.09 -0.867,1.442 0,1.352 z"
               id="path92" />
          </g>
        </g>
      </g>
      <path
         style="fill:#86c7a4"
         inkscape:connector-curvature="0"
         d="m 91.78,84.042 c -3.775,-0.887 -7.237,-3.052 -9.685,-6.058 4.264,-0.881 8.893,0.189 12.338,2.852 0.602,-4.19 2.773,-8.136 5.989,-10.889 0.679,3.626 0.426,7.422 -0.728,10.926 4.197,-1.119 8.797,-0.649 12.682,1.295 -4.014,2.983 -9.179,4.373 -14.148,3.806 2.064,4.047 1.725,9.212 -0.85,12.956 -1.75,-3.496 -2.774,-7.353 -2.988,-11.257 -1.928,2.211 -3.895,4.455 -6.378,6.017 -2.483,1.562 -5.605,2.371 -8.394,1.462 3.149,-4.555 7.341,-8.384 12.162,-11.11 z"
         id="path100" />
      <g
         id="g108">
        <path
           style="fill:#ffe3a6"
           inkscape:connector-curvature="0"
           d="m 76.131,90.857 c -1.984,1.014 -4.059,2.051 -6.287,2.076 -2.228,0.025 -4.641,-1.3 -5.079,-3.484 -0.479,-2.383 1.62,-4.666 3.969,-5.29 2.349,-0.624 4.83,-0.038 7.188,0.548 -1.875,-1.759 -3.824,-3.635 -4.577,-6.093 -0.753,-2.459 0.205,-5.643 2.655,-6.424 1.845,-0.589 3.902,0.38 5.157,1.856 1.255,1.476 1.88,3.37 2.477,5.213 -0.816,-2.542 0.781,-5.563 3.305,-6.432 2.524,-0.869 5.567,0.44 6.782,2.817 1.215,2.377 0.556,5.524 -1.428,7.31 2.205,-1.131 4.513,-2.288 6.991,-2.31 2.478,-0.022 5.158,1.476 5.613,3.912 0.426,2.284 -1.261,4.539 -3.356,5.543 -2.095,1.005 -4.504,1.05 -6.827,1.076 2.494,1.809 4.563,4.201 5.995,6.929 0.615,1.171 1.124,2.497 0.853,3.792 -0.488,2.332 -3.384,3.47 -5.703,2.922 -2.319,-0.548 -4.156,-2.263 -5.876,-3.912 0.357,2.471 0.7,5.075 -0.215,7.398 -0.914,2.323 -3.561,4.165 -5.899,3.289 -1.886,-0.707 -2.835,-2.815 -3.244,-4.787 -0.706,-3.404 -0.375,-7.017 0.938,-10.236 -1.394,2.181 -2.938,4.489 -5.339,5.455 -2.401,0.967 -5.814,-0.25 -6.063,-2.826 -0.12,-1.244 0.507,-2.44 1.251,-3.445 1.674,-2.263 4.053,-3.997 6.719,-4.897 z"
           id="path102" />
        <path
           style="fill:#fff1d2"
           inkscape:connector-curvature="0"
           d="m 82.253,85.003 c 0.183,-3.126 2.231,-6.071 5.098,-7.33 0.612,3.482 0.253,7.129 -1.028,10.424 3.425,-1.533 7.093,-2.524 10.824,-2.925 -2.534,2.351 -5.6,4.125 -8.901,5.15 1.429,1.811 2.857,3.622 4.286,5.433 0.375,0.476 0.763,0.977 0.874,1.573 0.111,0.596 -0.156,1.309 -0.735,1.491 -0.546,0.171 -1.107,-0.173 -1.576,-0.5 -1.714,-1.196 -3.428,-2.393 -5.142,-3.589 0.116,3.01 -0.802,6.051 -2.565,8.494 -1.227,-3.191 -1.87,-6.605 -1.885,-10.024 -1.81,1.392 -3.62,2.785 -5.431,4.177 -0.66,0.508 -1.576,1.03 -2.259,0.554 -0.842,-0.586 -0.332,-1.908 0.294,-2.72 1.516,-1.966 3.338,-3.696 5.379,-5.11 -2.842,0.973 -6.096,0.664 -8.703,-0.826 2.576,-1.834 6.025,-2.377 9.04,-1.424 -1.189,-2.44 -1.923,-5.1 -2.152,-7.805 2.244,0.708 4.052,2.663 4.582,4.957 z"
           id="path104" />
        <path
           style="fill:#95563e"
           inkscape:connector-curvature="0"
           d="m 82.588,89.577 c -0.518,-0.722 -1.789,-1.816 -2.383,-1.248 -0.387,0.738 1.205,1.549 2.056,1.69 -0.537,0.118 -1.046,0.367 -1.468,0.719 -0.162,0.135 -0.323,0.31 -0.32,0.521 0.006,0.415 0.605,0.538 0.98,0.36 0.375,-0.179 0.678,-0.52 1.087,-0.588 -0.023,0.67 0.075,1.344 0.289,1.98 0.064,0.19 0.157,0.397 0.343,0.471 0.266,0.106 0.567,-0.142 0.626,-0.422 0.059,-0.28 -0.049,-0.567 -0.156,-0.833 -0.107,-0.266 -0.218,-0.55 -0.166,-0.832 0.791,0.781 2.636,1.958 2.901,1.548 0.277,-0.427 -1.253,-1.663 -2.111,-2.243 0.701,-0.198 1.401,-0.402 2.098,-0.613 0.28,-0.085 0.62,-0.252 0.599,-0.544 -0.021,-0.298 -0.396,-0.412 -0.694,-0.435 -0.883,-0.069 -1.887,0.227 -2.632,0.661 0.332,-0.598 0.548,-1.743 0.654,-2.418 0.036,-0.229 0.048,-0.492 -0.11,-0.662 -0.169,-0.181 -0.474,-0.169 -0.682,-0.035 -0.208,0.134 -0.337,0.36 -0.441,0.584 -0.338,0.726 -0.501,1.536 -0.47,2.339 z"
           id="path106" />
      </g>
      <g
         id="g116">
        <path
           style="fill:#f49a5d"
           inkscape:connector-curvature="0"
           d="m 63.812,65.853 c 2.179,-1.477 5.037,-2.411 7.025,-0.687 1.988,1.724 2.624,4.828 1.471,7.194 2.362,-0.286 4.826,1.174 5.71,3.383 0.884,2.209 0.108,4.966 -1.799,6.388 1.709,1.686 1.949,4.648 0.535,6.587 -1.414,1.939 -4.31,2.614 -6.436,1.501 0.059,2.717 -1.843,5.36 -4.437,6.167 -2.595,0.807 -5.66,-0.29 -7.153,-2.561 -2,1.562 -5.114,1.466 -7.014,-0.216 -1.9,-1.682 -2.373,-4.761 -1.064,-6.936 -2.305,-0.432 -4.124,-2.69 -4.054,-5.034 0.07,-2.344 2.019,-4.49 4.346,-4.784 -1.456,-1.888 -1.593,-4.691 -0.327,-6.712 1.266,-2.021 3.847,-3.122 6.181,-2.637 0.741,-2.69 4.854,-3.834 7.016,-1.653 z"
           id="path110" />
        <path
           style="fill:#ffeab9"
           inkscape:connector-curvature="0"
           d="m 69.29,75.667 c -1.167,-1.461 -2.85,-2.502 -4.678,-2.892 -3.63,-0.775 -7.666,1.281 -9.172,4.674 -1.506,3.393 -0.326,7.765 2.684,9.938 3.01,2.173 7.531,1.918 10.278,-0.58 3.035,-2.76 3.448,-7.934 0.888,-11.14 z"
           id="path112" />
        <path
           style="fill:#95563e"
           inkscape:connector-curvature="0"
           d="m 66.421,77.935 c -0.645,-0.808 -1.575,-1.382 -2.585,-1.598 -2.006,-0.428 -4.236,0.708 -5.068,2.583 -0.832,1.875 -0.18,4.291 1.483,5.491 1.663,1.201 4.162,1.06 5.679,-0.32 1.677,-1.526 1.905,-4.385 0.491,-6.156 z"
           id="path114" />
      </g>
      <g
         id="g136">
        <path
           style="fill:#ea6b77"
           inkscape:connector-curvature="0"
           d="m 70.837,103.718 c 1.081,-0.775 2.099,-3.627 8.299,-5.557 2.285,-0.711 6.414,-1.352 8.658,-0.267 -0.576,2.962 -5.2,7.124 -6.661,8.317 -1.741,1.422 -4.466,2.558 -6.69,2.961 2.767,1.356 5.47,2.258 7.851,4.354 1.968,1.732 2.654,3.813 3.712,6.085 -2.005,1.72 -6.69,0.257 -8.681,-0.829 -2.526,-1.379 -4.544,-3.119 -6.276,-5.411 -0.055,1.5 0.491,5.979 -1.801,9.674 -1.095,1.765 -2.492,4.612 -4.171,5.873 -1.827,-2.566 -2.009,-5.849 -1.812,-8.8 0.196,-2.942 1.309,-5.727 2.592,-8.411 -2.292,1.713 -4.869,4.429 -7.745,5.799 -2.693,1.283 -5.343,1.7 -8.238,2.042 1.219,-5.579 7.665,-11.287 12.812,-13.397 -5.732,1.556 -12.102,-1.176 -15.47,-6.88 5.33,-3.295 12.2,-1.855 17.677,2.447 -3.094,-5.043 -1.149,-12.117 2.433,-16.291 2.029,2.449 3.76,6.16 4.184,9.204 0.219,1.57 0.598,5.08 -0.673,9.087 z"
           id="path118" />
        <path
           style="fill:#ffe3a6"
           inkscape:connector-curvature="0"
           d="m 70.263,105.874 c 1.445,-0.96 6.427,-3.39 6.07,-0.905 -0.206,1.435 -3.799,2.84 -4.906,3.55 0.727,0.864 4.581,2.292 4.225,4.004 -0.482,2.32 -4.623,-1.801 -5.436,-1.856 -0.49,0.944 -0.463,6.063 -2.554,5.815 -1.843,-0.219 -0.175,-5.9 -0.497,-7.129 -1.015,0.351 -7.445,4.607 -6.975,1.353 0.258,-1.784 4.753,-3.84 6.387,-4.089 -0.943,-0.724 -6.046,-2.291 -5.991,-3.733 0.093,-2.438 5.988,1.815 6.712,2.001 -0.593,-1.809 -1.691,-5.507 0.143,-6.065 3.178,-0.97 1.844,5.929 2.822,7.054 z"
           id="path120" />
        <circle
           style="fill:#95563e"
           cx="68.674004"
           cy="107.778"
           r="1.735"
           id="circle122" />
        <circle
           style="fill:#95563e"
           cx="70.709999"
           cy="104.805"
           r="0.77100003"
           id="circle124" />
        <circle
           style="fill:#95563e"
           cx="72.503998"
           cy="108.782"
           r="0.77100003"
           id="circle126" />
        <circle
           style="fill:#95563e"
           cx="70.219002"
           cy="111.38"
           r="0.77100003"
           id="circle128" />
        <circle
           style="fill:#95563e"
           cx="66.478996"
           cy="110.394"
           r="0.77100003"
           id="circle130" />
        <circle
           style="fill:#95563e"
           cx="64.774002"
           cy="106.435"
           r="0.77100003"
           id="circle132" />
        <circle
           style="fill:#95563e"
           cx="66.542"
           cy="103.872"
           r="0.77100003"
           id="circle134" />
      </g>
    </g>
    <g
       transform="matrix(0.36131508,0,0,0.36131508,-1.1693956,243.62221)"
       id="g1385" />
    <g
       transform="matrix(0.36131508,0,0,0.36131508,-1.1693956,243.62221)"
       id="g1387" />
    <g
       transform="matrix(0.36131508,0,0,0.36131508,-1.1693956,243.62221)"
       id="g1389" />
    <g
       transform="matrix(0.36131508,0,0,0.36131508,-1.1693956,243.62221)"
       id="g1391" />
    <g
       transform="matrix(0.36131508,0,0,0.36131508,-1.1693956,243.62221)"
       id="g1393" />
    <g
       transform="matrix(0.36131508,0,0,0.36131508,-1.1693956,243.62221)"
       id="g1395" />
  </g>
</svg>
