<?xml version="1.0" encoding="utf-8"?>
<!-- Generator: Adobe Illustrator 17.0.0, SVG Export Plug-In . SVG Version: 6.00 Build 0)  -->
<!DOCTYPE svg PUBLIC "-//W3C//DTD SVG 1.1//EN" "http://www.w3.org/Graphics/SVG/1.1/DTD/svg11.dtd">
<svg version="1.1" id="Слой_1" xmlns="http://www.w3.org/2000/svg" xmlns:xlink="http://www.w3.org/1999/xlink" x="0px" y="0px"
	 width="800px" height="400px" viewBox="0 0 800 400" enable-background="new 0 0 800 400" xml:space="preserve">
<g id="Слой_1_1_">
	<g>
		<g>
			<defs>
				<rect id="SVGID_1_" x="-0.23" width="400.46" height="400.46"/>
			</defs>
			<clipPath id="SVGID_2_">
				<use xlink:href="#SVGID_1_"  overflow="visible"/>
			</clipPath>
			<rect x="-0.23" clip-path="url(#SVGID_2_)" fill="#E1F0EF" width="400.46" height="400.46"/>
		</g>
		<g>
			<defs>
				<rect id="SVGID_3_" x="-0.23" width="400.46" height="400.46"/>
			</defs>
			<clipPath id="SVGID_4_">
				<use xlink:href="#SVGID_3_"  overflow="visible"/>
			</clipPath>
			<g clip-path="url(#SVGID_4_)">
				<path fill="#FFFFFF" d="M417.459,138.949c0-6.481-4.621-11.88-10.747-13.09c0.053-0.564,0.083-1.135,0.083-1.713
					c0-10.058-8.153-18.212-18.211-18.212c-6.836,0-12.788,3.767-15.903,9.337c-2.095-1.451-4.635-2.304-7.375-2.304
					c-6.769,0-12.324,5.189-12.91,11.805c-1.667-0.679-3.488-1.055-5.398-1.055c-7.912,0-14.327,6.414-14.327,14.327
					c0,7.912,6.415,14.327,14.327,14.327c0.773,0,1.532-0.063,2.272-0.181c0.512,0.227,1.076,0.355,1.672,0.355h55.402
					c1.2,0,2.277-0.514,3.032-1.331C414.13,149.173,417.459,144.451,417.459,138.949z"/>
				<path fill="#FFFFFF" d="M280.988,47.851c0-6.565,4.682-12.036,10.887-13.261c-0.053-0.572-0.084-1.15-0.084-1.735
					c0-10.189,8.26-18.45,18.45-18.45c6.924,0,12.954,3.817,16.11,9.459c2.121-1.471,4.695-2.334,7.471-2.334
					c6.858,0,12.485,5.256,13.079,11.959c1.688-0.688,3.533-1.069,5.468-1.069c8.016,0,14.514,6.498,14.514,14.514
					s-6.498,14.514-14.514,14.514c-0.784,0-1.551-0.064-2.301-0.183c-0.518,0.23-1.091,0.36-1.694,0.36h-56.128
					c-1.216,0-2.306-0.521-3.071-1.348C284.362,58.208,280.988,53.424,280.988,47.851z"/>
				<path fill="#FFFFFF" d="M-17.461,169.365c0-6.852,4.886-12.561,11.363-13.84c-0.055-0.597-0.088-1.2-0.088-1.811
					c0-10.635,8.622-19.256,19.256-19.256c7.227,0,13.52,3.984,16.814,9.872c2.214-1.535,4.901-2.436,7.798-2.436
					c7.158,0,13.03,5.486,13.651,12.482c1.762-0.718,3.688-1.116,5.707-1.116c8.366,0,15.148,6.782,15.148,15.148
					s-6.782,15.149-15.148,15.149c-0.818,0-1.619-0.067-2.402-0.192c-0.541,0.24-1.139,0.376-1.768,0.376H-5.708
					c-1.269,0-2.407-0.543-3.206-1.407C-13.94,180.175-17.461,175.182-17.461,169.365z"/>
			</g>
		</g>
	</g>
	<g>
		<g>
			<g>
				<g>
					<g>
						<path fill="#996B5A" d="M140.215,352.997c0,8.53-6.915,15.445-15.445,15.445l0,0c-8.53,0-15.445-6.915-15.445-15.445v-14.996
							c0-8.529,6.915-15.444,15.445-15.444l0,0c8.53,0,15.445,6.915,15.445,15.444V352.997z"/>
						<g>
							<path fill="#683820" d="M139.215,352.997c-0.139,6.339-4.06,11.742-10.079,13.775c-6.013,2.03-12.656-0.523-16.265-5.577
								c-2.428-3.4-2.546-7.257-2.546-11.229c0-3.663,0-7.326,0-10.989c0-4.864,1.656-9.073,5.421-12.262
								c4.871-4.127,12.044-3.993,17.221-0.611c7.868,5.138,6.248,15.39,6.248,23.443
								C139.215,350.696,139.215,351.846,139.215,352.997c0,1.29,2,1.29,2,0c0-5.887,0.628-12.131-0.271-17.965
								c-1.653-10.722-13.67-16.051-23.136-11.928c-4.636,2.019-7.902,6.45-9.081,11.275c-0.729,2.981-0.401,6.344-0.401,9.385
								c0,3.07,0,6.141,0,9.211c0,4.95,2.252,9.543,6.006,12.724c4.861,4.118,11.679,4.688,17.401,2.196
								c5.851-2.548,9.347-8.677,9.483-14.898C141.243,351.706,139.243,351.709,139.215,352.997z"/>
						</g>
					</g>
					<g>
						<path fill="#996B5A" d="M290.674,352.997c0,8.53-6.916,15.445-15.445,15.445l0,0c-8.53,0-15.445-6.915-15.445-15.445v-14.996
							c0-8.529,6.916-15.444,15.445-15.444l0,0c8.53,0,15.445,6.915,15.445,15.444V352.997z"/>
						<g>
							<path fill="#683820" d="M289.674,352.997c-0.139,6.339-4.06,11.742-10.079,13.775c-6.013,2.03-12.656-0.523-16.265-5.577
								c-2.428-3.4-2.547-7.257-2.547-11.229c0-3.663,0-7.326,0-10.989c0-4.864,1.656-9.073,5.421-12.262
								c4.871-4.127,12.044-3.993,17.222-0.611c7.868,5.138,6.248,15.39,6.248,23.443
								C289.674,350.696,289.674,351.846,289.674,352.997c0,1.29,2,1.29,2,0c0-5.887,0.628-12.131-0.271-17.965
								c-1.653-10.722-13.671-16.051-23.136-11.928c-4.636,2.019-7.902,6.45-9.082,11.275c-0.729,2.981-0.402,6.344-0.402,9.385
								c0,3.07,0,6.141,0,9.211c0,4.95,2.253,9.543,6.007,12.724c4.861,4.118,11.679,4.688,17.401,2.196
								c5.851-2.548,9.347-8.677,9.483-14.898C291.702,351.706,289.702,351.709,289.674,352.997z"/>
						</g>
					</g>
				</g>
				<g>
					<g>
						<path fill="#83CAC8" d="M324.32,309.625v-37.904c0-12.793-8.232-23.656-19.685-27.602c0.002-0.012,0.003-0.035,0.003-0.064
							c10.263-2.774,9.814-10.026,9.814-10.026l0,0c2,1.707,4.595,2.738,7.431,2.738h4.43c6.331,0,11.463-5.131,11.463-11.462
							c0-6.33-5.131-11.462-11.463-11.462h-4.43c-6.331,0-11.463,5.132-11.463,11.462c0,0.467,0.031,0.926,0.085,1.378
							c0.305,9.273-6.092,10.084-6.092,10.084l-9.151-78.333c0-16.124-13.071-29.195-29.194-29.195H133.931
							c-16.124,0-29.195,13.071-29.195,29.195l-9.151,78.333c0,0-6.397-0.811-6.092-10.084c0.054-0.452,0.086-0.911,0.086-1.378
							c0-6.33-5.132-11.462-11.462-11.462h-4.431c-6.331,0-11.463,5.132-11.463,11.462c0,6.331,5.132,11.462,11.463,11.462h4.431
							c2.836,0,5.43-1.032,7.431-2.738l0,0c0,0-0.449,7.252,9.813,10.026c0,0.028,0.001,0.052,0.004,0.064
							c-11.453,3.946-19.684,14.809-19.684,27.602v37.904c0,3.81,0.737,7.444,2.064,10.781h244.512
							C323.582,317.069,324.32,313.435,324.32,309.625z"/>
						<g>
							<path fill="#683820" d="M325.32,309.625c0-10.598,0-21.195,0-31.793c0-5.284,0.123-10.405-1.501-15.531
								c-2.851-8.999-10.123-15.996-18.918-19.145c0.245,0.321,0.489,0.643,0.734,0.964c0.001-0.021,0.002-0.042,0.003-0.064
								c-0.245,0.321-0.489,0.643-0.734,0.964c4.87-1.409,10.837-5.122,10.549-10.99c-0.569,0.236-1.138,0.471-1.707,0.707
								c5.403,4.3,15.226,4.368,20.661,0.043c7.088-5.641,5.023-17.591-3.213-20.934c-2.991-1.214-6.087-1.002-9.245-1.002
								c-4.293,0-8.032,2.157-10.479,5.617c-2.9,4.1-1.147,8.769-2.655,13.197c-0.676,1.986-2.525,3.843-4.666,4.146
								c0.422,0.321,0.844,0.643,1.266,0.964c-2.85-24.4-5.701-48.801-8.551-73.201c-0.522-4.471-0.578-9.153-1.768-13.48
								c-2.803-10.189-11.238-18.081-21.321-20.855c-3.653-1.005-7.365-0.992-11.104-0.992c-4.4,0-8.799,0-13.199,0
								c-30.375,0-60.75,0-91.126,0c-8.071,0-16.142,0-24.212,0c-8.887,0-17.249,3.833-23.096,10.513
								c-3.454,3.946-5.72,8.826-6.752,13.947c-0.451,2.239-0.403,4.504-0.667,6.758c-2.943,25.191-5.886,50.382-8.828,75.574
								c-0.068,0.579-0.135,1.157-0.203,1.736c0.422-0.321,0.844-0.643,1.266-0.964c-1.955-0.276-3.458-1.781-4.358-3.444
								c-1.172-2.165-0.991-4.692-0.915-7.054c0.071-2.205-0.656-4.381-1.701-6.29c-2.022-3.69-5.988-5.784-10.063-6.151
								c-3.009-0.271-6.535-0.239-9.395,0.732c-8.822,2.994-10.586,14.477-4.313,20.749c2.667,2.666,6.245,3.423,9.871,3.423
								c4.214,0,7.821-0.283,11.277-3.031c-0.569-0.236-1.138-0.471-1.707-0.707c-0.288,5.868,5.678,9.581,10.547,10.99
								c-0.245-0.321-0.489-0.643-0.734-0.964c0.001,0.021,0.003,0.042,0.004,0.064c0.245-0.321,0.489-0.643,0.734-0.964
								c-9.632,3.449-16.888,11.262-19.505,21.169c-1.349,5.108-0.913,10.683-0.913,15.921c0,7.23,0,14.46,0,21.69
								c0,6.412-0.241,12.599,2.1,18.736c0.161,0.422,0.487,0.734,0.964,0.734c14.856,0,29.712,0,44.568,0
								c31.378,0,62.755,0,94.133,0c28.113,0,56.226,0,84.338,0c7.157,0,14.315,0,21.472,0c0.477,0,0.803-0.312,0.964-0.734
								C324.58,317.105,325.263,313.439,325.32,309.625c0.019-1.29-1.981-1.289-2,0c-0.054,3.643-0.731,7.114-2.028,10.515
								c0.321-0.245,0.643-0.489,0.964-0.734c-14.856,0-29.712,0-44.568,0c-31.378,0-62.755,0-94.133,0c-28.113,0-56.226,0-84.338,0
								c-7.157,0-14.315,0-21.472,0c0.321,0.245,0.643,0.489,0.964,0.734c-2.188-5.735-2.029-11.421-2.029-17.399
								c0-6.765,0-13.53,0-20.295c0-4.292-0.184-8.632,0.081-12.919c0.688-11.108,8.533-20.743,18.869-24.444
								c0.403-0.144,0.763-0.5,0.734-0.964c-0.001-0.021-0.003-0.042-0.004-0.064c-0.028-0.453-0.286-0.835-0.734-0.964
								c-4.011-1.161-9.321-4.125-9.079-9.061c0.047-0.961-1.084-1.202-1.707-0.707c-3.132,2.491-6.533,2.446-10.276,2.446
								c-3.893,0-7.266-1.374-9.566-4.626c-2.675-3.783-2.185-8.981,0.627-12.514c2.476-3.111,6.077-3.784,9.804-3.784
								c3.435,0,6.526,0.143,9.365,2.403c1.78,1.417,2.9,3.441,3.495,5.603c0.602,2.19,0.078,4.53,0.353,6.768
								c0.435,3.537,2.819,7.569,6.677,8.115c0.694,0.098,1.184-0.263,1.266-0.964c2.85-24.4,5.701-48.801,8.551-73.201
								c0.553-4.738,0.619-9.685,2.094-14.219c3.717-11.43,14.863-18.968,26.7-19.107c6.974-0.082,13.954,0,20.928,0
								c30.466,0,60.933,0,91.399,0c7.268,0,14.634-0.353,21.895,0.073c11.954,0.703,22.061,9.578,25.189,20.949
								c1.119,4.07,1.118,8.862,1.614,13.113c2.819,24.131,5.638,48.261,8.457,72.392c0.082,0.701,0.572,1.062,1.266,0.964
								c3.818-0.54,6.045-4.403,6.641-7.849c0.305-1.766,0.068-3.505,0.121-5.276c0.072-2.416,1.237-4.697,2.816-6.466
								c2.616-2.93,6.187-3.298,9.84-3.298c3.528,0,6.61,0.364,9.38,2.837c3.66,3.268,4.15,8.743,1.87,12.905
								c-1.909,3.484-5.727,5.182-9.558,5.182c-3.855,0-7.399,0.126-10.631-2.446c-0.623-0.496-1.754-0.254-1.707,0.707
								c0.242,4.936-5.07,7.901-9.08,9.061c-0.446,0.129-0.71,0.512-0.734,0.964c-0.001,0.021-0.002,0.042-0.003,0.064
								c-0.025,0.465,0.329,0.819,0.734,0.964c9.453,3.385,16.336,11.35,18.42,21.154c0.899,4.228,0.531,8.871,0.531,13.173
								c0,10.071,0,20.143,0,30.214C323.32,310.915,325.32,310.915,325.32,309.625z"/>
						</g>
					</g>
					<g>
						<path fill="#2FAC66" d="M77.744,320.406c4.29,10.786,14.816,18.414,27.13,18.414h190.25c12.314,0,22.841-7.628,27.131-18.414
							H77.744z"/>
						<g>
							<path fill="#683820" d="M76.78,320.672c4.17,10.13,13.439,17.692,24.458,18.923c2.333,0.261,4.654,0.224,6.995,0.224
								c9.072,0,18.144,0,27.216,0c31.286,0,62.571,0,93.857,0c21.557,0,43.114,0,64.671,0c12.918,0,24.269-7.067,29.243-19.148
								c0.253-0.614-0.374-1.266-0.964-1.266c-14.856,0-29.712,0-44.568,0c-31.378,0-62.755,0-94.133,0c-28.113,0-56.226,0-84.338,0
								c-7.157,0-14.315,0-21.472,0c-1.29,0-1.29,2,0,2c14.856,0,29.712,0,44.568,0c31.378,0,62.755,0,94.133,0
								c28.113,0,56.226,0,84.338,0c7.157,0,14.315,0,21.472,0c-0.321-0.422-0.643-0.844-0.964-1.266
								c-4.356,10.581-14.732,17.68-26.21,17.68c-1.637,0-3.275,0-4.912,0c-9.83,0-19.66,0-29.491,0c-31.576,0-63.152,0-94.728,0
								c-20.212,0-40.424,0-60.637,0c-11.652,0-22.151-6.858-26.606-17.68C78.225,318.965,76.289,319.479,76.78,320.672z"/>
						</g>
					</g>
				</g>
				<g>
					<g>
						<path fill="#D1EAEA" d="M284.707,220.588c0,16.123-13.071,29.194-29.195,29.194H144.486
							c-16.123,0-29.194-13.071-29.194-29.194v-50.926c0-16.124,13.071-29.195,29.194-29.195h111.026
							c16.124,0,29.195,13.071,29.195,29.195V220.588z"/>
						<g>
							<path fill="#683820" d="M283.707,220.588c-0.141,12.046-7.719,22.704-19.107,26.699c-4.212,1.478-8.502,1.495-12.874,1.495
								c-12.31,0-24.62,0-36.93,0c-15.886,0-31.771,0-47.657,0c-8.21,0-16.536,0.409-24.739-0.073
								c-11.954-0.703-22.061-9.577-25.189-20.949c-1.383-5.03-0.92-10.62-0.92-15.794c0-13.754,0-27.509,0-41.263
								c0-9.303,3.769-17.869,11.248-23.584c5.423-4.145,11.887-5.651,18.584-5.651c10.97,0,21.939,0,32.909,0
								c25.396,0,50.791,0,76.187,0c9.685,0,18.598,4.782,23.953,12.852c3.973,5.988,4.535,12.629,4.535,19.541
								c0,14.272,0,28.544,0,42.816C283.707,217.98,283.707,219.284,283.707,220.588c0,1.29,2,1.29,2,0c0-12.276,0-24.551,0-36.827
								c0-4.68,0-9.361,0-14.041c0-10.081-5.07-19.356-13.299-25.085c-8.98-6.251-19.824-5.168-30.149-5.168
								c-14.917,0-29.834,0-44.752,0c-14.321,0-28.642,0-42.964,0c-3.212,0-6.425,0-9.637,0c-8.318,0-16.112,3.188-21.999,9.075
								c-5.907,5.907-8.615,13.932-8.615,22.161c0,5.917,0,11.835,0,17.752c0,7.837,0,15.674,0,23.511
								c0,4.987-0.31,10.106,0.681,15.019c2.092,10.378,10.032,18.771,19.894,22.231c4.241,1.488,8.606,1.566,13.021,1.566
								c12.117,0,24.234,0,36.35,0c23.986,0,47.988,0.273,71.973-0.008c16.324-0.192,29.307-14.142,29.496-30.186
								C285.722,219.298,283.722,219.299,283.707,220.588z"/>
						</g>
					</g>
					<g>
						<g>
							<g>
								<path fill="#EF7E87" d="M167.073,223.033l-6.385,2.273l-6.385-2.273c0,0-12.116,6.107-11.2,26.749h17.585h17.586
									C179.189,229.14,167.073,223.033,167.073,223.033z"/>
								<g>
									<path fill="#683820" d="M166.807,222.069c-1.706,0.607-3.413,1.215-5.119,1.822c-0.304,0.108-0.608,0.216-0.912,0.325
										c-0.683,0.243,0.296,0.168,0.015,0.068c-0.934-0.332-1.868-0.665-2.802-0.997c-0.972-0.346-3.138-1.656-4.198-1.113
										c-0.536,0.274-1.031,0.635-1.512,0.994c-8.161,6.084-10.524,16.976-10.177,26.615c0.02,0.545,0.44,1,1,1
										c11.724,0,23.447,0,35.171,0c0.56,0,0.98-0.455,1-1c0.343-9.507-2.191-22.745-11.696-27.612
										c-1.146-0.587-2.158,1.139-1.009,1.727c8.872,4.543,11.022,17.081,10.705,25.885c0.333-0.333,0.667-0.667,1-1
										c-11.724,0-23.447,0-35.171,0c0.333,0.333,0.667,0.667,1,1c-0.326-9.057,1.77-19.655,9.668-25.238
										c0.259-0.183,0.526-0.354,0.799-0.515c0.616-0.364-0.697-0.09-0.37,0.027c1.77,0.63,3.539,1.26,5.309,1.89
										c2.425,0.863,5.516-1.124,7.83-1.948C168.545,223.568,168.025,221.635,166.807,222.069z"/>
								</g>
							</g>
							<g>
								<g>
									<path fill="#FFF8F4" d="M160.688,229.418c3.527,0,6.385-2.858,6.385-6.384c0-0.639-0.095-1.255-0.269-1.838
										c-0.015,0-0.028-0.001-0.043-0.001h-12.145c-0.015,0-0.028,0.001-0.043,0.001c-0.175,0.582-0.269,1.199-0.269,1.838
										C154.303,226.559,157.161,229.418,160.688,229.418z"/>
									<g>
										<path fill="#683820" d="M160.688,230.418c5.062-0.273,8.171-4.594,7.08-9.488c-0.098-0.438-0.535-0.725-0.964-0.734
											c-4.065-0.09-8.166-0.09-12.231,0c-0.429,0.009-0.867,0.296-0.964,0.734C152.517,225.824,155.626,230.145,160.688,230.418
											c1.289,0.069,1.283-1.931,0-2c-3.729-0.201-5.953-3.361-5.151-6.956c-0.321,0.245-0.643,0.489-0.964,0.734
											c4.065-0.09,8.166-0.09,12.231,0c-0.321-0.245-0.643-0.489-0.964-0.734c0.802,3.595-1.423,6.755-5.152,6.956
											C159.405,228.487,159.398,230.487,160.688,230.418z"/>
									</g>
								</g>
								<g>
									<g>
										<g>
											<g>
												<path fill="#FFF8F4" d="M130.96,203.866c0.282,1.244-0.498,2.482-1.742,2.764l0,0c-1.244,0.282-2.482-0.498-2.764-1.742
													l-0.478-2.109c-0.282-1.244,0.498-2.482,1.743-2.764l0,0c1.245-0.282,2.482,0.498,2.764,1.742L130.96,203.866z"/>
												<g>
													<path fill="#683820" d="M129.996,204.132c0.256,1.786-2.223,2.054-2.608,0.356c-0.149-0.658-0.298-1.316-0.448-1.974
														c-0.395-1.741,2.222-2.063,2.609-0.355C129.698,202.816,129.847,203.474,129.996,204.132
														c0.285,1.258,2.213,0.724,1.929-0.532c-0.385-1.698-0.565-3.413-2.272-4.315c-2.616-1.382-5.002,1.242-4.641,3.76
														c0.24,1.673,0.673,3.47,2.272,4.316c2.616,1.382,5.001-1.243,4.64-3.76
														C131.742,202.328,129.815,202.871,129.996,204.132z"/>
												</g>
											</g>
											<g>
												<path fill="#FFF8F4" d="M190.416,203.866c-0.283,1.244,0.498,2.482,1.742,2.764l0,0
													c1.245,0.282,2.481-0.498,2.764-1.742l0.478-2.109c0.283-1.244-0.498-2.482-1.742-2.764l0,0
													c-1.245-0.282-2.482,0.498-2.764,1.742L190.416,203.866z"/>
												<g>
													<path fill="#683820" d="M189.451,203.6c-0.371,2.578,1.782,4.766,4.402,3.861c1.914-0.661,2.128-2.727,2.511-4.416
														c0.59-2.607-1.938-4.712-4.402-3.861C190.048,199.845,189.834,201.911,189.451,203.6
														c-0.285,1.256,1.644,1.789,1.929,0.532c0.138-0.608,0.275-1.216,0.413-1.823c0.102-0.452,0.221-0.83,0.626-1.131
														c0.962-0.715,2.169,0.273,2.016,1.335c-0.088,0.611-0.277,1.222-0.413,1.824c-0.102,0.452-0.222,0.83-0.626,1.131
														c-0.962,0.715-2.169-0.273-2.016-1.336C191.561,202.871,189.634,202.328,189.451,203.6z"/>
												</g>
											</g>
										</g>
										<g>
											<path fill="#FFF8F4" d="M176.774,165.932c5.53,0.903,11.502,2.949,14.45,8.552c2.064,4.424,1.77,10.911,1.475,15.629
												c-0.59,8.847,0.641,24.929-9.141,28.015c-26.836,8.465-45.74,0-45.74,0c-9.731-3.244-8.551-19.168-9.141-28.015
												c-0.295-4.718-0.59-11.206,1.474-15.629c2.949-5.603,7.903-7.201,14.45-8.552
												C144.601,165.932,158.196,162.897,176.774,165.932z"/>
											<g>
												<path fill="#683820" d="M176.509,166.897c6.413,1.099,12.851,3.729,14.69,10.579c1.489,5.544,0.484,11.632,0.306,17.29
													c-0.157,4.994-0.31,10.063-1.769,14.879c-0.658,2.174-1.737,4.186-3.382,5.765c-2.384,2.288-6.449,2.79-9.525,3.515
													c-10.997,2.592-22.792,2.761-33.753-0.112c-1.466-0.384-3.752-1.104-4.753-1.548c-4.84-2.147-6.591-6.31-7.539-11.309
													c-1.155-6.09-0.987-12.526-1.259-18.705c-0.18-4.082-0.158-8.451,1.49-12.262c1.583-3.662,5.322-5.712,8.919-6.874
													C151.447,164.396,164.789,165.04,176.509,166.897c1.261,0.2,1.803-1.727,0.532-1.929
													c-10.436-1.654-21.277-2.037-31.722-0.191c-3.76,0.665-7.587,1.613-10.883,3.598c-4.846,2.918-6.482,8.073-6.883,13.418
													c-0.395,5.263,0.209,10.702,0.433,15.973c0.204,4.789,0.599,9.752,2.445,14.225c2.347,5.686,7.391,7.552,12.883,8.948
													c8.734,2.221,17.938,2.41,26.838,1.227c5.133-0.682,11.211-1.512,15.812-4.01c3.167-1.72,4.865-5.219,5.864-8.518
													c1.167-3.853,1.4-8.001,1.576-11.998c0.197-4.481,0.507-8.996,0.502-13.479c-0.006-4.863-0.756-9.614-4.078-13.34
													c-3.196-3.584-8.223-5.073-12.787-5.855C175.779,164.752,175.239,166.679,176.509,166.897z"/>
											</g>
										</g>
										<g>
											<path fill="#EEC997" d="M191.677,171.838c-5.714-11.428-18.57-12.618-29.998-10.714c0,0-0.476,0.017-0.991,0.368
												c-0.515-0.351-0.991-0.368-0.991-0.368c-11.427-1.904-24.284-0.714-29.998,10.714
												c-4.048,8.333-4.048,19.522-1.667,28.093c12.861-4.073,27.986-15.008,32.656-29.008
												c4.67,13.999,19.795,24.935,32.656,29.008C195.724,191.36,195.724,180.171,191.677,171.838z"/>
											<g>
												<path fill="#683820" d="M192.54,171.333c-2.965-5.692-7.915-9.351-14.075-10.98c-3.056-0.809-6.276-1.004-9.423-0.954
													c-2.788,0.045-6.291,0.054-8.859,1.23c0.336,0,0.673,0,1.009,0c-2.052-0.941-4.611-0.973-6.84-1.138
													c-2.663-0.197-5.339-0.118-7.988,0.216c-4.969,0.625-9.639,2.508-13.345,5.916c-8.934,8.216-8.844,23.774-5.952,34.574
													c0.136,0.509,0.714,0.866,1.23,0.698c14.219-4.612,28.321-15.192,33.354-29.706c-0.643,0-1.286,0-1.929,0
													c5.034,14.514,19.136,25.094,33.355,29.706c0.516,0.167,1.094-0.19,1.23-0.698
													C196.828,190.783,196.717,180.261,192.54,171.333c-0.546-1.167-2.27-0.151-1.727,1.009
													c3.94,8.42,3.938,18.465,1.566,27.323c0.41-0.233,0.82-0.466,1.23-0.698c-13.515-4.383-27.166-14.492-31.958-28.309
													c-0.33-0.951-1.599-0.951-1.929,0c-4.791,13.817-18.443,23.926-31.957,28.309c0.41,0.233,0.82,0.466,1.23,0.698
													c-2.372-8.858-2.374-18.903,1.566-27.323c3.494-7.467,11.319-10.534,19.094-10.923
													c3.591-0.179,7.316,0.088,10.765,1.037c0.551,0.151,1.003-0.278,1.523-0.368c1.016-0.176,2.039-0.305,3.063-0.421
													c2.007-0.227,4.027-0.301,6.045-0.269c8.232,0.131,15.837,3.411,19.761,10.944
													C191.409,173.487,193.135,172.476,192.54,171.333z"/>
											</g>
										</g>
										<g>
											<g>
												<ellipse fill="#683820" cx="143.142" cy="202.438" rx="1.769" ry="2.506"/>
											</g>
											<g>
												<ellipse fill="#683820" cx="178.234" cy="202.438" rx="1.769" ry="2.506"/>
											</g>
										</g>
										<g>
											<g>
												<g>
													<path fill="#FDE7DD" d="M182.1,208.926c0,1.221-0.99,2.212-2.212,2.212h-3.244c-1.222,0-2.212-0.991-2.212-2.212l0,0
														c0-1.222,0.99-2.212,2.212-2.212h3.244C181.109,206.714,182.1,207.704,182.1,208.926L182.1,208.926z"/>
												</g>
												<g>
													<path fill="#FDE7DD" d="M146.943,208.926c0,1.221-0.99,2.212-2.212,2.212h-3.243c-1.221,0-2.212-0.991-2.212-2.212l0,0
														c0-1.222,0.991-2.212,2.212-2.212h3.243C145.952,206.714,146.943,207.704,146.943,208.926L146.943,208.926z"/>
												</g>
											</g>
										</g>
										<g>
											<g>
												<path fill="#683820" d="M155.998,213.871c3.08,0.945,6.289,0.86,9.379,0c1.241-0.345,0.713-2.275-0.532-1.929
													c-2.765,0.769-5.56,0.845-8.315,0C155.293,211.563,154.769,213.494,155.998,213.871L155.998,213.871z"/>
											</g>
										</g>
									</g>
									<g>
										<g>
											<path fill="#683820" d="M178.505,201.549c0.972,0.225,2.125-0.059,2.897-0.689c0.171-0.14,0.393-0.402,0.232-0.634
												c-0.148-0.212-0.504-0.141-0.675-0.001c-0.509,0.416-1.25,0.608-1.895,0.459
												C178.597,200.574,177.908,201.411,178.505,201.549L178.505,201.549z"/>
										</g>
										<g>
											<path fill="#683820" d="M142.87,201.549c-0.971,0.225-2.125-0.059-2.897-0.689c-0.171-0.14-0.394-0.402-0.232-0.634
												c0.148-0.212,0.504-0.141,0.675-0.001c0.509,0.416,1.25,0.608,1.894,0.459
												C142.779,200.574,143.467,201.411,142.87,201.549L142.87,201.549z"/>
										</g>
									</g>
								</g>
							</g>
						</g>
						<g>
							<g>
								<path fill="#AEB9DF" d="M245.696,223.033l-6.385,2.273l-6.385-2.273c0,0-12.116,6.107-11.2,26.749h17.585h17.586
									C257.813,229.14,245.696,223.033,245.696,223.033z"/>
								<g>
									<path fill="#683820" d="M245.43,222.069c-1.706,0.607-3.413,1.215-5.119,1.822c-0.304,0.108-0.608,0.216-0.912,0.325
										c-0.683,0.243,0.296,0.168,0.015,0.068c-0.934-0.332-1.868-0.665-2.802-0.997c-0.972-0.346-3.138-1.656-4.198-1.113
										c-0.536,0.274-1.031,0.635-1.512,0.994c-8.161,6.084-10.524,16.976-10.177,26.615c0.02,0.545,0.44,1,1,1
										c11.724,0,23.447,0,35.171,0c0.56,0,0.98-0.455,1-1c0.343-9.507-2.191-22.745-11.696-27.612
										c-1.146-0.587-2.158,1.139-1.009,1.727c8.872,4.543,11.022,17.081,10.705,25.885c0.333-0.333,0.667-0.667,1-1
										c-11.724,0-23.447,0-35.171,0c0.333,0.333,0.667,0.667,1,1c-0.326-9.057,1.77-19.655,9.668-25.238
										c0.259-0.183,0.526-0.354,0.799-0.515c0.616-0.364-0.697-0.09-0.37,0.027c1.77,0.63,3.539,1.26,5.309,1.89
										c2.425,0.863,5.516-1.124,7.83-1.948C247.168,223.568,246.649,221.635,245.43,222.069z"/>
								</g>
							</g>
							<g>
								<g>
									<g>
										<path fill="#FFF8F4" d="M209.584,203.866c0.283,1.244-0.498,2.482-1.743,2.764l0,0c-1.244,0.282-2.482-0.498-2.763-1.742
											l-0.478-2.109c-0.282-1.244,0.498-2.482,1.742-2.764l0,0c1.245-0.282,2.482,0.498,2.764,1.742L209.584,203.866z"/>
										<g>
											<path fill="#683820" d="M208.619,204.132c0.257,1.786-2.223,2.054-2.608,0.356c-0.149-0.658-0.298-1.316-0.448-1.974
												c-0.395-1.741,2.221-2.063,2.608-0.355C208.321,202.816,208.47,203.474,208.619,204.132
												c0.285,1.258,2.213,0.724,1.929-0.532c-0.385-1.698-0.565-3.413-2.272-4.315c-2.616-1.382-5.001,1.243-4.641,3.76
												c0.24,1.673,0.672,3.47,2.272,4.316c2.616,1.382,5.003-1.243,4.641-3.76
												C210.365,202.328,208.438,202.871,208.619,204.132z"/>
										</g>
									</g>
									<g>
										<path fill="#FFF8F4" d="M269.038,203.866c-0.282,1.244,0.498,2.482,1.743,2.764l0,0c1.244,0.282,2.481-0.498,2.763-1.742
											l0.477-2.109c0.283-1.244-0.498-2.482-1.741-2.764l0,0c-1.245-0.282-2.482,0.498-2.764,1.742L269.038,203.866z"/>
										<g>
											<path fill="#683820" d="M268.074,203.6c-0.369,2.578,1.782,4.766,4.402,3.861c1.914-0.661,2.128-2.726,2.51-4.416
												c0.59-2.606-1.936-4.712-4.401-3.861C268.672,199.845,268.457,201.911,268.074,203.6
												c-0.285,1.256,1.643,1.789,1.929,0.532c0.138-0.608,0.276-1.216,0.413-1.823c0.103-0.452,0.222-0.83,0.626-1.131
												c0.962-0.715,2.169,0.273,2.015,1.335c-0.088,0.611-0.276,1.222-0.413,1.824c-0.102,0.452-0.221,0.83-0.626,1.131
												c-0.962,0.715-2.169-0.273-2.017-1.336C270.183,202.871,268.256,202.328,268.074,203.6z"/>
										</g>
									</g>
								</g>
								<g>
									<path fill="#FFF8F4" d="M239.311,229.418c3.527,0,6.385-2.858,6.385-6.384c0-0.639-0.095-1.255-0.269-1.838
										c-0.015,0-0.029-0.001-0.043-0.001h-12.146c-0.014,0-0.028,0.001-0.043,0.001c-0.175,0.582-0.269,1.199-0.269,1.838
										C232.926,226.559,235.784,229.418,239.311,229.418z"/>
									<g>
										<path fill="#683820" d="M239.311,230.418c5.062-0.273,8.17-4.593,7.08-9.488c-0.098-0.438-0.535-0.725-0.964-0.734
											c-4.065-0.09-8.166-0.091-12.231,0c-0.429,0.01-0.867,0.296-0.964,0.734C231.14,225.824,234.249,230.145,239.311,230.418
											c1.289,0.069,1.283-1.931,0-2c-3.729-0.201-5.953-3.361-5.151-6.956c-0.321,0.245-0.643,0.489-0.964,0.734
											c4.065-0.091,8.166-0.09,12.231,0c-0.321-0.245-0.643-0.489-0.964-0.734c0.801,3.595-1.422,6.755-5.152,6.956
											C238.028,228.487,238.022,230.487,239.311,230.418z"/>
									</g>
								</g>
								<g>
									<path fill="#FFF8F4" d="M255.398,167.997c5.53,0.903,11.5,2.949,14.45,8.552c2.064,4.424,1.77,8.847,1.474,13.565
										c-0.59,8.847,0.641,24.929-9.141,28.015c-26.835,8.465-45.739,0-45.739,0c-9.732-3.244-8.552-19.168-9.142-28.015
										c-0.295-4.718-0.59-9.142,1.474-13.565c2.949-5.603,7.904-7.201,14.45-8.552
										C223.224,167.997,236.82,164.961,255.398,167.997z"/>
									<g>
										<path fill="#683820" d="M255.132,168.961c6.785,1.162,13.034,3.974,14.894,11.176c0.87,3.368,0.48,7.023,0.267,10.449
											c-0.146,2.349-0.171,4.705-0.266,7.056c-0.199,4.957-0.525,10.251-2.791,14.759c-2.881,5.73-10.534,6.405-16.181,7.408
											c-10.211,1.813-21.083,1.512-31.051-1.477c-2.081-0.624-3.643-1.093-5.412-2.224c-4.23-2.704-5.16-8.942-5.647-13.488
											c-0.622-5.802-0.832-11.873-0.852-17.705c-0.015-4.269,1.092-8.351,4.199-11.387c2.57-2.511,6.324-3.469,9.716-4.249
											C232.749,166.809,244.334,167.25,255.132,168.961c1.261,0.2,1.803-1.727,0.532-1.929
											c-10.436-1.654-21.277-2.037-31.722-0.191c-3.76,0.665-7.587,1.614-10.883,3.598c-5.114,3.08-6.847,8.818-6.966,14.475
											c-0.11,5.224,0.322,10.66,0.692,15.876c0.324,4.568,1.008,9.324,3.343,13.341c2.79,4.8,8.908,6.219,13.955,7.303
											c8.476,1.82,17.245,1.808,25.799,0.577c4.871-0.701,10.877-1.492,15.133-4.117c2.914-1.798,4.48-5.098,5.436-8.254
											c1.11-3.665,1.365-7.604,1.55-11.407c0.202-4.146,0.429-8.316,0.526-12.465c0.117-4.968-1.001-9.772-4.57-13.379
											c-3.206-3.241-7.933-4.609-12.293-5.356C254.402,166.816,253.863,168.743,255.132,168.961z"/>
									</g>
								</g>
								<g>
									<g>
										<ellipse fill="#683820" cx="221.765" cy="202.438" rx="1.769" ry="2.506"/>
									</g>
									<g>
										<ellipse fill="#683820" cx="256.857" cy="202.438" rx="1.769" ry="2.506"/>
									</g>
								</g>
								<g>
									<g>
										<path fill="#683820" d="M234.621,213.871c3.08,0.945,6.29,0.86,9.379,0c1.241-0.345,0.713-2.275-0.532-1.929
											c-2.765,0.769-5.56,0.845-8.316,0C233.916,211.563,233.392,213.494,234.621,213.871L234.621,213.871z"/>
									</g>
								</g>
								<g>
									<path fill="#FCECA7" d="M254.663,163.748c-62.086-11.803-46.73,36.711-46.73,36.711s25.52-7.034,39.88-25.013l-0.001,0.001
										c0,0,3.694,16.137,23.252,24.034C271.064,199.483,279.248,168.218,254.663,163.748z"/>
									<g>
										<path fill="#683820" d="M254.928,162.784c-14.157-2.647-34.387-4.714-44.437,8.331c-5.455,7.081-5.99,16.596-4.548,25.108
											c0.256,1.511,0.565,3.038,1.026,4.502c0.163,0.519,0.691,0.848,1.23,0.698c15.097-4.191,30.426-13.061,40.321-25.27
											c-0.557-0.324-1.114-0.649-1.671-0.973c-0.267,0.776,0.507,2.201,0.761,2.867c0.904,2.381,2.111,4.635,3.501,6.765
											c4.71,7.217,11.796,12.37,19.688,15.633c0.5,0.207,1.106-0.219,1.23-0.698c1.423-5.486,1.754-11.547,0.965-17.142
											C271.551,172.381,265.28,164.782,254.928,162.784c-1.26-0.243-1.797,1.684-0.532,1.929
											c4.998,0.964,9.532,3.205,12.601,7.368c2.561,3.473,3.732,7.81,4.177,12.046c0.52,4.951,0.179,10.256-1.076,15.09
											c0.41-0.233,0.82-0.466,1.23-0.698c-7.449-3.08-13.982-7.989-18.493-14.714c-1.268-1.891-2.355-3.927-3.203-6.04
											c-0.239-0.597-0.452-1.205-0.644-1.818c-0.213-0.682,0.012-0.886-0.213-0.233c0.316-0.917-1.039-1.753-1.671-0.973
											c-9.688,11.954-24.649,20.65-39.438,24.756c0.41,0.233,0.82,0.466,1.23,0.698c-1.762-5.596-2.166-11.998-1.136-17.751
											c0.885-4.943,3.137-9.483,6.887-12.869c5.364-4.844,12.981-6.322,19.972-6.629c6.626-0.291,13.277,0.552,19.777,1.768
											C255.657,164.948,256.195,163.021,254.928,162.784z"/>
									</g>
								</g>
							</g>
						</g>
						<g>
							<rect x="237.944" y="235.459" fill="#683820" width="3.003" height="14.323"/>
							<g>
								<path fill="#683820" d="M254.796,249.308h-3.003c0-6.809-5.539-12.347-12.347-12.347c-6.809,0-12.348,5.539-12.348,12.347
									h-3.003c0-8.465,6.886-15.351,15.351-15.351C247.91,233.957,254.796,240.843,254.796,249.308z"/>
								<g>
									<path fill="#FFF8F4" stroke="#683820" stroke-width="2" stroke-miterlimit="10" d="M259.455,243.423
										c-1.295,2.101-4.048,2.754-6.15,1.458l-2.68-1.653c-2.101-1.295-2.754-4.049-1.459-6.15l0.135-0.22
										c1.295-2.101,4.05-2.753,6.15-1.458l2.68,1.652c2.102,1.295,2.754,4.049,1.459,6.151L259.455,243.423z"/>
									<path fill="#FFF8F4" stroke="#683820" stroke-width="2" stroke-miterlimit="10" d="M219.076,243.423
										c1.295,2.101,4.048,2.754,6.15,1.458l2.68-1.653c2.101-1.295,2.754-4.049,1.459-6.15l-0.135-0.22
										c-1.295-2.101-4.05-2.753-6.15-1.458l-2.68,1.652c-2.102,1.295-2.754,4.049-1.459,6.151L219.076,243.423z"/>
								</g>
							</g>
						</g>
					</g>
				</g>
				<g>
					<g>
						<path fill="#FCECA7" d="M140.512,283.528c0,7.292-5.911,13.203-13.202,13.203h-5.078c-7.292,0-13.203-5.911-13.203-13.203l0,0
							c0-7.292,5.911-13.201,13.203-13.201h5.078C134.601,270.328,140.512,276.237,140.512,283.528L140.512,283.528z"/>
						<g>
							<path fill="#683820" d="M139.512,283.528c-0.111,4.252-2.125,7.946-5.669,10.309c-2.771,1.847-5.891,1.894-9.072,1.894
								c-3.012,0-5.758-0.096-8.507-1.557c-3.918-2.081-6.121-6.317-6.234-10.646c-0.109-4.185,2.262-8.037,5.669-10.307
								c2.772-1.847,5.891-1.893,9.072-1.893c3.012,0,5.758,0.096,8.507,1.556C137.196,274.964,139.399,279.2,139.512,283.528
								c0.034,1.287,2.034,1.29,2,0c-0.114-4.383-2.007-8.629-5.587-11.28c-3.41-2.525-7.063-2.92-11.154-2.92
								c-3.855,0-7.313,0.321-10.628,2.53c-3.893,2.595-5.994,7.081-6.114,11.67c-0.112,4.308,2.144,8.731,5.587,11.282
								c3.41,2.526,7.063,2.921,11.154,2.921c3.855,0,7.313-0.321,10.628-2.531c3.893-2.595,5.994-7.083,6.113-11.672
								C141.545,282.238,139.545,282.241,139.512,283.528z"/>
						</g>
					</g>
					<g>
						<path fill="#EF7E87" d="M139.624,307.571c0,2.217-1.797,4.015-4.015,4.015h-21.677c-2.218,0-4.015-1.798-4.015-4.015l0,0
							c0-2.217,1.797-4.014,4.015-4.014h21.677C137.827,303.556,139.624,305.353,139.624,307.571L139.624,307.571z"/>
						<g>
							<path fill="#683820" d="M138.624,307.571c-0.263,3.265-3.177,3.015-5.527,3.015c-2.775,0-5.551,0-8.326,0
								c-2.663,0-5.326,0-7.988,0c-2.418,0-5.592,0.379-5.865-3.015c-0.263-3.265,3.432-3.014,5.528-3.014c2.775,0,5.551,0,8.326,0
								c2.663,0,5.326,0,7.988,0C135.176,304.556,138.35,304.177,138.624,307.571c0.103,1.276,2.104,1.286,2,0
								c-0.272-3.367-2.71-5.014-5.893-5.014c-3.32,0-6.64,0-9.96,0c-3.246,0-6.493,0-9.739,0c-3.244,0-5.83,1.49-6.115,5.014
								c-0.272,3.375,3.069,5.015,5.894,5.015c3.32,0,6.64,0,9.96,0c3.246,0,6.493,0,9.739,0c3.245,0,5.83-1.491,6.114-5.015
								C140.728,306.284,138.727,306.294,138.624,307.571z"/>
						</g>
					</g>
					<g>
						<path fill="#FCECA7" d="M290.969,283.528c0,7.292-5.911,13.203-13.202,13.203h-5.078c-7.291,0-13.202-5.911-13.202-13.203l0,0
							c0-7.292,5.911-13.201,13.202-13.201h5.078C285.059,270.328,290.969,276.237,290.969,283.528L290.969,283.528z"/>
						<g>
							<path fill="#683820" d="M289.969,283.528c-0.111,4.252-2.125,7.946-5.669,10.309c-2.771,1.848-5.891,1.894-9.072,1.894
								c-3.012,0-5.758-0.096-8.507-1.557c-3.918-2.081-6.121-6.317-6.234-10.646c-0.109-4.185,2.262-8.037,5.669-10.307
								c2.772-1.847,5.891-1.893,9.072-1.893c3.012,0,5.758,0.096,8.507,1.556C287.654,274.964,289.856,279.2,289.969,283.528
								c0.034,1.287,2.034,1.29,2,0c-0.114-4.383-2.007-8.629-5.587-11.28c-3.41-2.525-7.063-2.92-11.154-2.92
								c-3.855,0-7.312,0.321-10.628,2.53c-3.893,2.595-5.994,7.081-6.114,11.67c-0.112,4.308,2.144,8.731,5.587,11.282
								c3.41,2.526,7.063,2.921,11.154,2.921c3.855,0,7.312-0.321,10.627-2.531c3.893-2.595,5.993-7.083,6.113-11.672
								C292.003,282.238,290.003,282.241,289.969,283.528z"/>
						</g>
					</g>
					<g>
						<path fill="#EF7E87" d="M290.082,307.571c0,2.217-1.798,4.015-4.015,4.015H264.39c-2.217,0-4.015-1.798-4.015-4.015l0,0
							c0-2.217,1.798-4.014,4.015-4.014h21.678C288.284,303.556,290.082,305.353,290.082,307.571L290.082,307.571z"/>
						<g>
							<path fill="#683820" d="M289.082,307.571c-0.264,3.265-3.177,3.015-5.527,3.015c-2.775,0-5.551,0-8.326,0
								c-2.663,0-5.326,0-7.989,0c-2.418,0-5.591,0.379-5.865-3.015c-0.264-3.265,3.432-3.014,5.527-3.014c2.776,0,5.551,0,8.326,0
								c2.663,0,5.326,0,7.989,0C285.634,304.556,288.808,304.177,289.082,307.571c0.103,1.276,2.104,1.286,2,0
								c-0.272-3.367-2.71-5.014-5.893-5.014c-3.32,0-6.64,0-9.961,0c-3.246,0-6.493,0-9.74,0c-3.244,0-5.83,1.491-6.114,5.014
								c-0.272,3.374,3.069,5.015,5.893,5.015c3.32,0,6.64,0,9.961,0c3.247,0,6.493,0,9.74,0c3.245,0,5.83-1.492,6.114-5.015
								C291.186,306.284,289.185,306.294,289.082,307.571z"/>
						</g>
					</g>
				</g>
				<g>
					<g>
						<path fill="#D1EAEA" d="M237.099,294.8c0,7.837-6.352,14.19-14.189,14.19h-45.821c-7.837,0-14.19-6.353-14.19-14.19v-1.097
							c0-7.836,6.353-14.189,14.19-14.189h45.821c7.837,0,14.189,6.353,14.189,14.189V294.8z"/>
						<g>
							<path fill="#683820" d="M236.099,294.8c-0.153,6.422-4.497,11.612-10.759,12.97c-1.763,0.382-3.754,0.22-5.553,0.22
								c-7.094,0-14.188,0-21.281,0c-6.571,0-13.141,0-19.712,0c-2.88,0-5.558-0.291-8.176-1.694
								c-5.179-2.775-7.051-8.418-6.654-13.96c0.443-6.193,5.781-11.043,11.758-11.758c1.555-0.186,3.2-0.065,4.761-0.065
								c7.003,0,14.006,0,21.009,0c6.501,0,13.002,0,19.502,0c2.495,0,4.868,0.109,7.231,1.109
								C233.614,283.901,236.099,289.231,236.099,294.8c0,1.29,2,1.29,2,0c0-8.867-6.222-16.286-15.441-16.286
								c-5.42,0-10.84,0-16.26,0c-7.687,0-15.373,0-23.06,0c-5.805,0-11.164-0.306-16.043,3.584
								c-7.621,6.076-7.088,19.206,0.704,24.864c4.869,3.536,10.413,3.028,16.064,3.028c12.911,0,25.823,0,38.734,0
								c8.463,0,15.104-6.834,15.302-15.19C238.13,293.51,236.13,293.513,236.099,294.8z"/>
						</g>
					</g>
					<g>
						<g>
							<g>
								<path fill="#683820" d="M165.112,287.101c23.105,0,46.211,0,69.316,0c0.153,0,0.306,0,0.46,0c1.29,0,1.29-2,0-2
									c-23.105,0-46.211,0-69.316,0c-0.153,0-0.306,0-0.46,0C163.822,285.101,163.822,287.101,165.112,287.101L165.112,287.101z"
									/>
							</g>
						</g>
						<g>
							<g>
								<path fill="#683820" d="M162.9,294.876c23.998,0,47.996,0,71.994,0c0.735,0,1.47,0,2.205,0c1.29,0,1.29-2,0-2
									c-23.998,0-47.996,0-71.994,0c-0.735,0-1.47,0-2.205,0C161.61,292.876,161.61,294.876,162.9,294.876L162.9,294.876z"/>
							</g>
						</g>
						<g>
							<g>
								<path fill="#683820" d="M165.112,302.652c23.105,0,46.211,0,69.316,0c0.153,0,0.306,0,0.46,0c1.29,0,1.29-2,0-2
									c-23.105,0-46.211,0-69.316,0c-0.153,0-0.306,0-0.46,0C163.822,300.652,163.822,302.652,165.112,302.652L165.112,302.652z"
									/>
							</g>
						</g>
					</g>
				</g>
			</g>
			<g>
				<g>
					<path fill="#EF7E87" d="M270.676,123.565c0,3.135-2.433,5.676-5.436,5.676H134.758c-3.002,0-5.435-2.541-5.435-5.676v-15.542
						c0-3.135,2.433-5.676,5.435-5.676H265.24c3.003,0,5.436,2.541,5.436,5.676V123.565z"/>
					<g>
						<path fill="#683820" d="M269.676,123.565c-0.289,5.232-4.959,4.676-8.609,4.676c-4.672,0-9.343,0-14.015,0
							c-15.019,0-30.038,0-45.056,0c-22.413,0-44.825,0-67.238,0c-5.113,0-4.435-5.873-4.435-9.305c0-3.474,0-6.948,0-10.423
							c0-5.158,4.04-5.166,7.703-5.166c11.135,0,22.27,0,33.405,0c28.942,0,57.883,0,86.825,0c2.328,0,4.657,0,6.985,0
							c5.389,0,4.436,6.698,4.436,10.242C269.676,116.914,269.676,120.24,269.676,123.565c0,1.29,2,1.29,2,0
							c0-2.838,0-5.676,0-8.514c0-2.816,0.288-5.804-0.179-8.595c-0.77-4.602-5.177-5.108-8.875-5.108c-10.75,0-21.5,0-32.25,0
							c-29.212,0-58.424,0-87.636,0c-2.592,0-5.183,0-7.775,0c-7.461,0-6.639,8.08-6.639,13.211c0,5.255-1.637,15.682,6.476,15.682
							c2.235,0,4.47,0,6.706,0c28.87,0,57.739,0,86.609,0c9.717,0,19.433,0,29.15,0c5.585,0,13.971,1.342,14.414-6.676
							C271.747,122.276,269.747,122.283,269.676,123.565z"/>
					</g>
				</g>
				<g>
					
						<rect x="146.025" y="102.347" fill="#FCECA7" stroke="#683820" stroke-width="2" stroke-miterlimit="10" width="9.392" height="26.894"/>
					
						<rect x="244.582" y="102.347" fill="#FCECA7" stroke="#683820" stroke-width="2" stroke-miterlimit="10" width="9.392" height="26.894"/>
				</g>
				<path fill="#996B5A" stroke="#683820" stroke-width="2" stroke-miterlimit="10" d="M218.983,115.112
					c0,2.35-1.905,4.255-4.255,4.255H185.27c-2.35,0-4.255-1.905-4.255-4.255l0,0c0-2.35,1.905-4.255,4.255-4.255h29.459
					C217.079,110.857,218.983,112.762,218.983,115.112L218.983,115.112z"/>
			</g>
			<g>
				<g>
					<path fill="#996B5A" stroke="#683820" stroke-width="2" stroke-miterlimit="10" d="M151.602,73.314
						c-3.135,0-5.675,2.541-5.675,5.676v17.682c0,3.135,2.541,5.676,5.675,5.676h5.685V73.314H151.602z"/>
					
						<rect x="157.288" y="73.314" fill="#AEB9DF" stroke="#683820" stroke-width="2" stroke-miterlimit="10" width="85.423" height="29.033"/>
					<path fill="#996B5A" stroke="#683820" stroke-width="2" stroke-miterlimit="10" d="M248.396,73.314h-5.685v29.033h5.685
						c3.135,0,5.676-2.541,5.676-5.676V78.99C254.072,75.855,251.531,73.314,248.396,73.314z"/>
				</g>
				<path fill="#996B5A" stroke="#683820" stroke-width="2" stroke-miterlimit="10" d="M211.148,86.829
					c0,1.659-1.345,3.003-3.003,3.003h-16.29c-1.659,0-3.003-1.345-3.003-3.003l0,0c0-1.659,1.345-3.003,3.003-3.003h16.29
					C209.803,83.826,211.148,85.171,211.148,86.829L211.148,86.829z"/>
			</g>
			<path fill="#FCECA7" stroke="#683820" stroke-width="2" stroke-miterlimit="10" d="M232.85,68.269
				c0,2.786-2.541,5.045-5.676,5.045h-54.35c-3.134,0-5.676-2.259-5.676-5.045V50.327c0-2.786,2.541-5.045,5.676-5.045h54.35
				c3.135,0,5.676,2.259,5.676,5.045V68.269z"/>
			<g>
				
					<line fill="none" stroke="#683820" stroke-width="3" stroke-miterlimit="10" x1="179.885" y1="45.282" x2="115.196" y2="135.965"/>
				
					<line fill="none" stroke="#683820" stroke-width="3" stroke-miterlimit="10" x1="220.114" y1="45.282" x2="284.803" y2="135.965"/>
			</g>
		</g>
	</g>
</g>
<g id="Слой_1__x28_копия_x29_">
	<g>
		<g>
			<defs>
				<rect id="SVGID_5_" x="400.229" width="400.46" height="400.46"/>
			</defs>
			<clipPath id="SVGID_6_">
				<use xlink:href="#SVGID_5_"  overflow="visible"/>
			</clipPath>
			<rect x="400.229" clip-path="url(#SVGID_6_)" fill="#E1F0EF" width="400.46" height="400.46"/>
		</g>
		<g>
			<defs>
				<rect id="SVGID_7_" x="400.229" width="400.46" height="400.46"/>
			</defs>
			<clipPath id="SVGID_8_">
				<use xlink:href="#SVGID_7_"  overflow="visible"/>
			</clipPath>
			<g clip-path="url(#SVGID_8_)">
				<path fill="#FFFFFF" d="M522.564,59.901c0-6.393-4.558-11.72-10.602-12.913c0.052-0.557,0.082-1.119,0.082-1.689
					c0-9.922-8.044-17.966-17.966-17.966c-6.743,0-12.615,3.717-15.687,9.211c-2.066-1.432-4.572-2.273-7.276-2.273
					c-6.678,0-12.157,5.119-12.736,11.646c-1.643-0.669-3.44-1.041-5.324-1.041c-7.806,0-14.133,6.328-14.133,14.133
					c0,7.806,6.328,14.134,14.133,14.134c0.763,0,1.511-0.062,2.24-0.179c0.505,0.224,1.062,0.351,1.65,0.351H511.6
					c1.184,0,2.246-0.507,2.991-1.313C519.279,69.987,522.564,65.328,522.564,59.901z"/>
				<path fill="#FFFFFF" d="M817.919,138.949c0-6.481-4.621-11.88-10.747-13.09c0.053-0.564,0.083-1.135,0.083-1.713
					c0-10.058-8.153-18.212-18.211-18.212c-6.835,0-12.788,3.767-15.903,9.337c-2.095-1.451-4.635-2.304-7.375-2.304
					c-6.769,0-12.324,5.189-12.91,11.805c-1.667-0.679-3.488-1.055-5.398-1.055c-7.912,0-14.327,6.414-14.327,14.327
					c0,7.912,6.415,14.327,14.327,14.327c0.773,0,1.532-0.063,2.272-0.181c0.512,0.227,1.076,0.355,1.672,0.355h55.402
					c1.2,0,2.277-0.514,3.032-1.331C814.59,149.173,817.919,144.451,817.919,138.949z"/>
				<path fill="#FFFFFF" d="M681.448,47.851c0-6.565,4.682-12.036,10.887-13.261c-0.053-0.572-0.084-1.15-0.084-1.735
					c0-10.189,8.26-18.45,18.45-18.45c6.924,0,12.954,3.817,16.11,9.459c2.121-1.471,4.695-2.334,7.471-2.334
					c6.858,0,12.484,5.256,13.079,11.959c1.688-0.688,3.533-1.069,5.468-1.069c8.016,0,14.514,6.498,14.514,14.514
					s-6.498,14.514-14.514,14.514c-0.784,0-1.551-0.064-2.301-0.183c-0.518,0.23-1.091,0.36-1.694,0.36h-56.128
					c-1.216,0-2.306-0.521-3.071-1.348C684.822,58.208,681.448,53.424,681.448,47.851z"/>
				<path fill="#FFFFFF" d="M382.999,169.365c0-6.852,4.886-12.561,11.363-13.84c-0.055-0.597-0.087-1.2-0.087-1.811
					c0-10.635,8.622-19.256,19.256-19.256c7.227,0,13.52,3.984,16.814,9.872c2.214-1.535,4.901-2.436,7.798-2.436
					c7.158,0,13.03,5.486,13.651,12.482c1.762-0.718,3.688-1.116,5.707-1.116c8.366,0,15.148,6.782,15.148,15.148
					s-6.782,15.149-15.148,15.149c-0.818,0-1.619-0.067-2.402-0.192c-0.541,0.24-1.139,0.376-1.768,0.376H394.75
					c-1.269,0-2.407-0.543-3.206-1.407C386.52,180.175,382.999,175.182,382.999,169.365z"/>
			</g>
		</g>
	</g>
	<g>
		<g>
			<g>
				<g>
					<g>
						<path fill="#996B5A" d="M540.675,352.997c0,8.53-6.915,15.445-15.445,15.445l0,0c-8.53,0-15.445-6.915-15.445-15.445v-14.996
							c0-8.529,6.915-15.444,15.445-15.444l0,0c8.53,0,15.445,6.915,15.445,15.444V352.997z"/>
						<g>
							<path fill="#683820" d="M539.675,352.997c-0.139,6.339-4.06,11.742-10.079,13.775c-6.013,2.03-12.656-0.523-16.265-5.577
								c-2.428-3.4-2.546-7.257-2.546-11.229c0-3.663,0-7.326,0-10.989c0-4.864,1.656-9.073,5.421-12.262
								c4.871-4.127,12.044-3.993,17.221-0.611c7.868,5.138,6.248,15.39,6.248,23.443
								C539.675,350.696,539.675,351.846,539.675,352.997c0,1.29,2,1.29,2,0c0-5.887,0.628-12.131-0.271-17.965
								c-1.653-10.722-13.67-16.051-23.136-11.928c-4.636,2.019-7.902,6.45-9.081,11.275c-0.728,2.981-0.401,6.344-0.401,9.385
								c0,3.07,0,6.141,0,9.211c0,4.95,2.252,9.543,6.006,12.724c4.861,4.118,11.679,4.688,17.401,2.196
								c5.851-2.548,9.347-8.677,9.483-14.898C541.703,351.706,539.703,351.709,539.675,352.997z"/>
						</g>
					</g>
					<g>
						<path fill="#996B5A" d="M691.134,352.997c0,8.53-6.916,15.445-15.445,15.445l0,0c-8.53,0-15.445-6.915-15.445-15.445v-14.996
							c0-8.529,6.916-15.444,15.445-15.444l0,0c8.53,0,15.445,6.915,15.445,15.444V352.997z"/>
						<g>
							<path fill="#683820" d="M690.134,352.997c-0.139,6.339-4.06,11.742-10.079,13.775c-6.013,2.03-12.656-0.523-16.265-5.577
								c-2.428-3.4-2.547-7.257-2.547-11.229c0-3.663,0-7.326,0-10.989c0-4.864,1.656-9.073,5.421-12.262
								c4.871-4.127,12.044-3.993,17.222-0.611c7.868,5.138,6.248,15.39,6.248,23.443
								C690.134,350.696,690.134,351.846,690.134,352.997c0,1.29,2,1.29,2,0c0-5.887,0.628-12.131-0.272-17.965
								c-1.653-10.722-13.671-16.051-23.136-11.928c-4.636,2.019-7.902,6.45-9.082,11.275c-0.729,2.981-0.402,6.344-0.402,9.385
								c0,3.07,0,6.141,0,9.211c0,4.95,2.253,9.543,6.007,12.724c4.861,4.118,11.679,4.688,17.401,2.196
								c5.851-2.548,9.347-8.677,9.483-14.898C692.162,351.706,690.162,351.709,690.134,352.997z"/>
						</g>
					</g>
				</g>
				<g>
					<g>
						<path fill="#83CAC8" d="M724.78,309.625v-37.904c0-12.793-8.232-23.656-19.685-27.602c0.002-0.012,0.003-0.035,0.003-0.064
							c10.263-2.774,9.815-10.026,9.815-10.026l0,0c2,1.707,4.595,2.738,7.431,2.738h4.43c6.331,0,11.463-5.131,11.463-11.462
							c0-6.33-5.131-11.462-11.463-11.462h-4.43c-6.331,0-11.463,5.132-11.463,11.462c0,0.467,0.031,0.926,0.085,1.378
							c0.305,9.273-6.092,10.084-6.092,10.084l-9.151-78.333c0-16.124-13.071-29.195-29.194-29.195H534.391
							c-16.124,0-29.195,13.071-29.195,29.195l-9.151,78.333c0,0-6.397-0.811-6.092-10.084c0.054-0.452,0.086-0.911,0.086-1.378
							c0-6.33-5.132-11.462-11.462-11.462h-4.431c-6.331,0-11.463,5.132-11.463,11.462c0,6.331,5.132,11.462,11.463,11.462h4.431
							c2.836,0,5.43-1.032,7.431-2.738l0,0c0,0-0.449,7.252,9.813,10.026c0.001,0.028,0.001,0.052,0.004,0.064
							c-11.453,3.946-19.684,14.809-19.684,27.602v37.904c0,3.81,0.737,7.444,2.064,10.781h244.511
							C724.042,317.069,724.78,313.435,724.78,309.625z"/>
						<g>
							<path fill="#683820" d="M725.78,309.625c0-10.598,0-21.195,0-31.793c0-5.284,0.123-10.405-1.501-15.531
								c-2.851-8.999-10.123-15.996-18.919-19.145c0.245,0.321,0.489,0.643,0.734,0.964c0.001-0.021,0.002-0.042,0.003-0.064
								c-0.245,0.321-0.489,0.643-0.734,0.964c4.87-1.409,10.837-5.122,10.549-10.99c-0.569,0.236-1.138,0.471-1.707,0.707
								c5.403,4.3,15.226,4.368,20.661,0.043c7.088-5.641,5.023-17.591-3.213-20.934c-2.991-1.214-6.087-1.002-9.245-1.002
								c-4.293,0-8.032,2.157-10.479,5.617c-2.9,4.1-1.147,8.769-2.655,13.197c-0.676,1.986-2.525,3.843-4.666,4.146
								c0.422,0.321,0.844,0.643,1.266,0.964c-2.85-24.4-5.701-48.801-8.551-73.201c-0.522-4.471-0.578-9.153-1.768-13.48
								c-2.803-10.189-11.238-18.081-21.321-20.855c-3.653-1.005-7.365-0.992-11.104-0.992c-4.4,0-8.799,0-13.199,0
								c-30.375,0-60.75,0-91.126,0c-8.071,0-16.142,0-24.212,0c-8.887,0-17.249,3.833-23.096,10.513
								c-3.454,3.946-5.72,8.826-6.752,13.947c-0.451,2.239-0.403,4.504-0.667,6.758c-2.943,25.191-5.886,50.382-8.828,75.574
								c-0.068,0.579-0.135,1.157-0.203,1.736c0.422-0.321,0.844-0.643,1.266-0.964c-1.955-0.276-3.458-1.781-4.358-3.444
								c-1.172-2.165-0.991-4.692-0.915-7.054c0.071-2.205-0.656-4.381-1.701-6.29c-2.022-3.69-5.988-5.784-10.063-6.151
								c-3.009-0.271-6.535-0.239-9.395,0.732c-8.822,2.994-10.586,14.477-4.313,20.749c2.667,2.666,6.245,3.423,9.871,3.423
								c4.214,0,7.821-0.283,11.277-3.031c-0.569-0.236-1.138-0.471-1.707-0.707c-0.288,5.868,5.677,9.581,10.547,10.99
								c-0.245-0.321-0.489-0.643-0.734-0.964c0.001,0.021,0.003,0.042,0.004,0.064c0.245-0.321,0.489-0.643,0.734-0.964
								c-9.632,3.449-16.888,11.262-19.505,21.169c-1.349,5.108-0.913,10.683-0.913,15.921c0,7.23,0,14.46,0,21.69
								c0,6.412-0.241,12.599,2.1,18.736c0.161,0.422,0.487,0.734,0.964,0.734c14.856,0,29.712,0,44.568,0
								c31.378,0,62.755,0,94.133,0c28.113,0,56.226,0,84.338,0c7.157,0,14.315,0,21.472,0c0.477,0,0.804-0.312,0.964-0.734
								C725.04,317.105,725.723,313.439,725.78,309.625c0.019-1.29-1.981-1.289-2,0c-0.054,3.643-0.731,7.114-2.028,10.515
								c0.321-0.245,0.643-0.489,0.964-0.734c-14.856,0-29.712,0-44.568,0c-31.378,0-62.755,0-94.133,0c-28.113,0-56.226,0-84.338,0
								c-7.157,0-14.315,0-21.472,0c0.321,0.245,0.643,0.489,0.964,0.734c-2.188-5.735-2.029-11.421-2.029-17.399
								c0-6.765,0-13.53,0-20.295c0-4.292-0.184-8.632,0.081-12.919c0.688-11.108,8.533-20.743,18.869-24.444
								c0.403-0.144,0.763-0.5,0.734-0.964c-0.001-0.021-0.003-0.042-0.004-0.064c-0.028-0.453-0.286-0.835-0.734-0.964
								c-4.011-1.161-9.321-4.125-9.079-9.061c0.047-0.961-1.084-1.202-1.707-0.707c-3.132,2.491-6.533,2.446-10.276,2.446
								c-3.893,0-7.266-1.374-9.566-4.626c-2.675-3.783-2.185-8.981,0.627-12.514c2.476-3.111,6.077-3.784,9.804-3.784
								c3.435,0,6.526,0.143,9.365,2.403c1.78,1.417,2.9,3.441,3.495,5.603c0.602,2.19,0.078,4.53,0.353,6.768
								c0.435,3.537,2.819,7.569,6.677,8.115c0.694,0.098,1.184-0.263,1.266-0.964c2.85-24.4,5.701-48.801,8.551-73.201
								c0.553-4.738,0.619-9.685,2.094-14.219c3.717-11.43,14.863-18.968,26.7-19.107c6.974-0.082,13.954,0,20.928,0
								c30.466,0,60.933,0,91.399,0c7.268,0,14.634-0.353,21.895,0.073c11.954,0.703,22.061,9.578,25.189,20.949
								c1.119,4.07,1.118,8.862,1.614,13.113c2.819,24.131,5.638,48.261,8.457,72.392c0.082,0.701,0.572,1.062,1.266,0.964
								c3.818-0.54,6.045-4.403,6.641-7.849c0.305-1.766,0.068-3.505,0.121-5.276c0.072-2.416,1.237-4.697,2.817-6.466
								c2.616-2.93,6.187-3.298,9.84-3.298c3.528,0,6.61,0.364,9.38,2.837c3.66,3.268,4.15,8.743,1.87,12.905
								c-1.909,3.484-5.727,5.182-9.558,5.182c-3.855,0-7.399,0.126-10.631-2.446c-0.623-0.496-1.754-0.254-1.707,0.707
								c0.242,4.936-5.07,7.901-9.08,9.061c-0.446,0.129-0.71,0.512-0.734,0.964c-0.001,0.021-0.002,0.042-0.003,0.064
								c-0.025,0.465,0.329,0.819,0.734,0.964c9.453,3.385,16.336,11.35,18.421,21.154c0.899,4.228,0.531,8.871,0.531,13.173
								c0,10.071,0,20.143,0,30.214C723.78,310.915,725.78,310.915,725.78,309.625z"/>
						</g>
					</g>
					<g>
						<path fill="#EF7E87" d="M478.204,320.406c4.29,10.786,14.816,18.414,27.13,18.414h190.25c12.314,0,22.841-7.628,27.131-18.414
							H478.204z"/>
						<g>
							<path fill="#683820" d="M477.24,320.672c4.17,10.13,13.439,17.692,24.458,18.923c2.333,0.261,4.654,0.224,6.995,0.224
								c9.072,0,18.144,0,27.216,0c31.286,0,62.571,0,93.857,0c21.557,0,43.114,0,64.671,0c12.918,0,24.269-7.067,29.243-19.148
								c0.253-0.614-0.374-1.266-0.964-1.266c-14.856,0-29.712,0-44.568,0c-31.378,0-62.755,0-94.133,0c-28.113,0-56.226,0-84.338,0
								c-7.157,0-14.315,0-21.472,0c-1.29,0-1.29,2,0,2c14.856,0,29.712,0,44.568,0c31.378,0,62.755,0,94.133,0
								c28.113,0,56.226,0,84.338,0c7.157,0,14.315,0,21.472,0c-0.321-0.422-0.643-0.844-0.964-1.266
								c-4.357,10.581-14.732,17.68-26.21,17.68c-1.637,0-3.275,0-4.912,0c-9.83,0-19.66,0-29.491,0c-31.576,0-63.152,0-94.728,0
								c-20.212,0-40.424,0-60.637,0c-11.652,0-22.151-6.858-26.606-17.68C478.685,318.965,476.749,319.479,477.24,320.672z"/>
						</g>
					</g>
				</g>
				<g>
					<g>
						<path fill="#D1EAEA" d="M685.167,220.588c0,16.123-13.071,29.194-29.195,29.194H544.946
							c-16.123,0-29.194-13.071-29.194-29.194v-50.926c0-16.124,13.071-29.195,29.194-29.195h111.026
							c16.124,0,29.195,13.071,29.195,29.195L685.167,220.588L685.167,220.588z"/>
						<g>
							<path fill="#683820" d="M684.167,220.588c-0.141,12.046-7.719,22.704-19.107,26.699c-4.212,1.478-8.502,1.495-12.874,1.495
								c-12.31,0-24.62,0-36.93,0c-15.886,0-31.771,0-47.657,0c-8.21,0-16.536,0.409-24.739-0.073
								c-11.954-0.703-22.061-9.577-25.189-20.949c-1.383-5.03-0.92-10.62-0.92-15.794c0-13.754,0-27.509,0-41.263
								c0-9.303,3.769-17.869,11.248-23.584c5.423-4.145,11.887-5.651,18.584-5.651c10.97,0,21.939,0,32.909,0
								c25.396,0,50.791,0,76.187,0c9.685,0,18.598,4.782,23.953,12.852c3.973,5.988,4.535,12.629,4.535,19.541
								c0,14.272,0,28.544,0,42.816C684.167,217.98,684.167,219.284,684.167,220.588c0,1.29,2,1.29,2,0c0-12.276,0-24.551,0-36.827
								c0-4.68,0-9.361,0-14.041c0-10.081-5.07-19.356-13.299-25.085c-8.98-6.251-19.824-5.168-30.149-5.168
								c-14.917,0-29.834,0-44.752,0c-14.321,0-28.642,0-42.964,0c-3.212,0-6.425,0-9.637,0c-8.318,0-16.112,3.188-21.999,9.075
								c-5.907,5.907-8.615,13.932-8.615,22.161c0,5.917,0,11.835,0,17.752c0,7.837,0,15.674,0,23.511
								c0,4.987-0.31,10.106,0.681,15.019c2.092,10.378,10.032,18.771,19.894,22.231c4.241,1.488,8.606,1.566,13.021,1.566
								c12.117,0,24.234,0,36.35,0c23.986,0,47.988,0.273,71.973-0.008c16.324-0.192,29.307-14.142,29.496-30.186
								C686.182,219.298,684.182,219.299,684.167,220.588z"/>
						</g>
					</g>
					<g>
						<g>
							<g>
								<path fill="#EF7E87" d="M567.533,223.033l-6.385,2.273l-6.385-2.273c0,0-12.116,6.107-11.2,26.749h17.585h17.586
									C579.649,229.14,567.533,223.033,567.533,223.033z"/>
								<g>
									<path fill="#683820" d="M567.267,222.069c-1.706,0.607-3.413,1.215-5.119,1.822c-0.304,0.108-0.608,0.216-0.912,0.325
										c-0.683,0.243,0.296,0.168,0.015,0.068c-0.934-0.332-1.868-0.665-2.802-0.997c-0.972-0.346-3.138-1.656-4.198-1.113
										c-0.536,0.274-1.031,0.635-1.512,0.994c-8.161,6.084-10.524,16.976-10.177,26.615c0.02,0.545,0.44,1,1,1
										c11.724,0,23.447,0,35.171,0c0.56,0,0.98-0.455,1-1c0.343-9.507-2.191-22.745-11.696-27.612
										c-1.146-0.587-2.158,1.139-1.009,1.727c8.871,4.543,11.022,17.081,10.705,25.885c0.333-0.333,0.667-0.667,1-1
										c-11.724,0-23.447,0-35.171,0c0.333,0.333,0.667,0.667,1,1c-0.326-9.057,1.77-19.655,9.668-25.238
										c0.259-0.183,0.526-0.354,0.799-0.515c0.616-0.364-0.697-0.09-0.37,0.027c1.77,0.63,3.539,1.26,5.309,1.89
										c2.425,0.863,5.516-1.124,7.83-1.948C569.005,223.568,568.485,221.635,567.267,222.069z"/>
								</g>
							</g>
							<g>
								<g>
									<path fill="#FFF8F4" d="M561.148,229.418c3.527,0,6.385-2.858,6.385-6.384c0-0.639-0.095-1.255-0.269-1.838
										c-0.015,0-0.028-0.001-0.043-0.001h-12.145c-0.015,0-0.028,0.001-0.043,0.001c-0.174,0.582-0.269,1.199-0.269,1.838
										C554.763,226.559,557.621,229.418,561.148,229.418z"/>
									<g>
										<path fill="#683820" d="M561.148,230.418c5.062-0.273,8.171-4.594,7.08-9.488c-0.098-0.438-0.535-0.725-0.964-0.734
											c-4.065-0.09-8.166-0.09-12.231,0c-0.429,0.009-0.867,0.296-0.964,0.734C552.977,225.824,556.086,230.145,561.148,230.418
											c1.289,0.069,1.283-1.931,0-2c-3.729-0.201-5.953-3.361-5.151-6.956c-0.321,0.245-0.643,0.489-0.964,0.734
											c4.065-0.09,8.166-0.09,12.231,0c-0.321-0.245-0.643-0.489-0.964-0.734c0.802,3.595-1.422,6.755-5.152,6.956
											C559.865,228.487,559.858,230.487,561.148,230.418z"/>
									</g>
								</g>
								<g>
									<g>
										<g>
											<g>
												<path fill="#FFF8F4" d="M531.42,203.866c0.282,1.244-0.498,2.482-1.742,2.764l0,0c-1.244,0.282-2.482-0.498-2.764-1.742
													l-0.478-2.109c-0.282-1.244,0.498-2.482,1.743-2.764l0,0c1.245-0.282,2.482,0.498,2.764,1.742L531.42,203.866z"/>
												<g>
													<path fill="#683820" d="M530.456,204.132c0.256,1.786-2.223,2.054-2.608,0.356c-0.149-0.658-0.298-1.316-0.448-1.974
														c-0.395-1.741,2.222-2.063,2.609-0.355C530.158,202.816,530.307,203.474,530.456,204.132
														c0.285,1.258,2.213,0.724,1.929-0.532c-0.385-1.698-0.565-3.413-2.272-4.315c-2.616-1.382-5.002,1.242-4.641,3.76
														c0.24,1.673,0.673,3.47,2.272,4.316c2.616,1.382,5.001-1.243,4.64-3.76
														C532.202,202.328,530.275,202.871,530.456,204.132z"/>
												</g>
											</g>
											<g>
												<path fill="#FFF8F4" d="M590.875,203.866c-0.283,1.244,0.498,2.482,1.742,2.764l0,0
													c1.245,0.282,2.481-0.498,2.764-1.742l0.478-2.109c0.283-1.244-0.498-2.482-1.742-2.764l0,0
													c-1.245-0.282-2.482,0.498-2.764,1.742L590.875,203.866z"/>
												<g>
													<path fill="#683820" d="M589.911,203.6c-0.371,2.578,1.782,4.766,4.402,3.861c1.914-0.661,2.128-2.727,2.511-4.416
														c0.59-2.607-1.938-4.712-4.402-3.861C590.508,199.845,590.294,201.911,589.911,203.6
														c-0.284,1.256,1.644,1.789,1.929,0.532c0.138-0.608,0.275-1.216,0.413-1.823c0.102-0.452,0.221-0.83,0.626-1.131
														c0.962-0.715,2.169,0.273,2.016,1.335c-0.088,0.611-0.277,1.222-0.413,1.824c-0.102,0.452-0.222,0.83-0.626,1.131
														c-0.962,0.715-2.169-0.273-2.016-1.336C592.021,202.871,590.094,202.328,589.911,203.6z"/>
												</g>
											</g>
										</g>
										<g>
											<path fill="#EEC997" d="M572.133,160.224c0,3.873-3.743,7.013-8.359,7.013h-5.252c-4.617,0-8.359-3.14-8.359-7.013
												v-4.405c0-3.873,3.743-7.013,8.359-7.013h5.252c4.616,0,8.359,3.14,8.359,7.013V160.224z"/>
											<g>
												<path fill="#683820" d="M571.133,160.224c-0.332,6.552-7.865,6.013-12.552,6.013c-3.555,0-7.224-2.184-7.418-6.013
													c-0.074-1.461,0-2.943,0-4.405c0-6.55,8.068-6.013,12.552-6.013c3.555,0,7.224,2.184,7.418,6.013
													C571.207,157.28,571.133,158.761,571.133,160.224c0,1.29,2,1.29,2,0c0-2.291,0.408-5.1-0.607-7.236
													c-1.601-3.369-5.152-5.182-8.811-5.182c-2.725,0-5.57-0.251-8.231,0.431c-3.533,0.905-6.137,3.961-6.321,7.582
													c-0.112,2.213-0.368,5.183,0.607,7.236c1.601,3.369,5.152,5.182,8.811,5.182c2.725,0,5.57,0.251,8.231-0.431
													c3.533-0.905,6.137-3.961,6.321-7.582C573.198,158.935,571.198,158.941,571.133,160.224z"/>
											</g>
										</g>
										<g>
											<path fill="#FFF8F4" d="M577.234,165.932c5.53,0.903,11.501,2.949,14.45,8.552c2.064,4.424,1.77,10.911,1.475,15.629
												c-0.59,8.847,0.641,24.929-9.141,28.015c-26.836,8.465-45.74,0-45.74,0c-9.731-3.244-8.551-19.168-9.141-28.015
												c-0.295-4.718-0.59-11.206,1.474-15.629c2.949-5.603,7.903-7.201,14.45-8.552
												C545.061,165.932,558.656,162.897,577.234,165.932z"/>
											<g>
												<path fill="#683820" d="M576.969,166.897c6.413,1.099,12.851,3.729,14.69,10.579c1.489,5.544,0.484,11.632,0.306,17.29
													c-0.157,4.994-0.31,10.063-1.769,14.879c-0.658,2.174-1.737,4.186-3.382,5.765c-2.384,2.288-6.449,2.79-9.525,3.515
													c-10.997,2.592-22.792,2.761-33.753-0.112c-1.466-0.384-3.752-1.104-4.753-1.548c-4.84-2.147-6.591-6.31-7.539-11.309
													c-1.155-6.09-0.987-12.526-1.259-18.705c-0.18-4.082-0.158-8.451,1.49-12.262c1.583-3.662,5.322-5.712,8.919-6.874
													C551.907,164.396,565.249,165.04,576.969,166.897c1.261,0.2,1.803-1.727,0.532-1.929
													c-10.436-1.654-21.277-2.037-31.722-0.191c-3.76,0.665-7.587,1.613-10.883,3.598c-4.846,2.918-6.482,8.073-6.883,13.418
													c-0.395,5.263,0.208,10.702,0.433,15.973c0.204,4.789,0.599,9.752,2.445,14.225c2.347,5.686,7.391,7.552,12.883,8.948
													c8.734,2.221,17.938,2.41,26.838,1.227c5.133-0.682,11.211-1.512,15.812-4.01c3.167-1.72,4.865-5.219,5.864-8.518
													c1.167-3.853,1.4-8.001,1.576-11.998c0.197-4.481,0.507-8.996,0.502-13.479c-0.006-4.863-0.756-9.614-4.078-13.34
													c-3.195-3.584-8.223-5.073-12.787-5.855C576.239,164.752,575.699,166.679,576.969,166.897z"/>
											</g>
										</g>
										<g>
											<path fill="#EEC997" d="M592.137,171.838c-5.714-11.428-18.57-12.618-29.998-10.714c0,0-0.476,0.017-0.991,0.368
												c-0.515-0.351-0.991-0.368-0.991-0.368c-11.427-1.904-24.284-0.714-29.998,10.714
												c-4.048,8.333-4.048,19.522-1.667,28.093c12.861-4.073,27.986-15.008,32.656-29.008
												c4.67,13.999,19.795,24.935,32.656,29.008C596.184,191.36,596.184,180.171,592.137,171.838z"/>
											<g>
												<path fill="#683820" d="M593,171.333c-2.965-5.692-7.914-9.351-14.075-10.98c-3.056-0.809-6.276-1.004-9.423-0.954
													c-2.788,0.045-6.291,0.054-8.859,1.23c0.336,0,0.673,0,1.009,0c-2.052-0.941-4.611-0.973-6.84-1.138
													c-2.663-0.197-5.339-0.118-7.988,0.216c-4.969,0.625-9.639,2.508-13.345,5.916c-8.934,8.216-8.844,23.774-5.952,34.574
													c0.136,0.509,0.714,0.866,1.23,0.698c14.219-4.612,28.321-15.192,33.354-29.706c-0.643,0-1.286,0-1.929,0
													c5.034,14.514,19.136,25.094,33.355,29.706c0.516,0.167,1.094-0.19,1.23-0.698
													C597.288,190.783,597.177,180.261,593,171.333c-0.546-1.167-2.27-0.151-1.727,1.009
													c3.94,8.42,3.937,18.465,1.566,27.323c0.41-0.233,0.82-0.466,1.23-0.698c-13.515-4.383-27.166-14.492-31.958-28.309
													c-0.33-0.951-1.599-0.951-1.929,0c-4.791,13.817-18.443,23.926-31.957,28.309c0.41,0.233,0.82,0.466,1.23,0.698
													c-2.372-8.858-2.374-18.903,1.566-27.323c3.494-7.467,11.319-10.534,19.094-10.923
													c3.591-0.179,7.316,0.088,10.765,1.037c0.551,0.151,1.003-0.278,1.523-0.368c1.016-0.176,2.039-0.305,3.063-0.421
													c2.007-0.227,4.027-0.301,6.045-0.269c8.232,0.131,15.837,3.411,19.761,10.944
													C591.869,173.487,593.595,172.476,593,171.333z"/>
											</g>
										</g>
										<g>
											<g>
												<ellipse fill="#683820" cx="543.602" cy="202.438" rx="1.769" ry="2.506"/>
											</g>
											<g>
												<ellipse fill="#683820" cx="578.694" cy="202.438" rx="1.769" ry="2.506"/>
											</g>
										</g>
										<g>
											<g>
												<g>
													<path fill="#FDE7DD" d="M582.56,208.926c0,1.221-0.99,2.212-2.212,2.212h-3.244c-1.222,0-2.211-0.991-2.211-2.212l0,0
														c0-1.222,0.99-2.212,2.211-2.212h3.244C581.569,206.714,582.56,207.704,582.56,208.926L582.56,208.926z"/>
												</g>
												<g>
													<path fill="#FDE7DD" d="M547.403,208.926c0,1.221-0.99,2.212-2.212,2.212h-3.243c-1.221,0-2.212-0.991-2.212-2.212l0,0
														c0-1.222,0.991-2.212,2.212-2.212h3.243C546.412,206.714,547.403,207.704,547.403,208.926L547.403,208.926z"/>
												</g>
											</g>
										</g>
										<g>
											<g>
												<path fill="#683820" d="M556.458,213.871c3.08,0.945,6.289,0.86,9.379,0c1.241-0.345,0.713-2.275-0.532-1.929
													c-2.765,0.769-5.56,0.845-8.315,0C555.753,211.563,555.229,213.494,556.458,213.871L556.458,213.871z"/>
											</g>
										</g>
									</g>
									<g>
										<g>
											<path fill="#683820" d="M578.965,201.549c0.972,0.225,2.125-0.059,2.897-0.689c0.171-0.14,0.393-0.402,0.232-0.634
												c-0.148-0.212-0.504-0.141-0.675-0.001c-0.509,0.416-1.25,0.608-1.895,0.459
												C579.057,200.574,578.368,201.411,578.965,201.549L578.965,201.549z"/>
										</g>
										<g>
											<path fill="#683820" d="M543.33,201.549c-0.971,0.225-2.125-0.059-2.897-0.689c-0.171-0.14-0.394-0.402-0.232-0.634
												c0.148-0.212,0.504-0.141,0.675-0.001c0.509,0.416,1.25,0.608,1.894,0.459
												C543.239,200.574,543.927,201.411,543.33,201.549L543.33,201.549z"/>
										</g>
									</g>
								</g>
							</g>
						</g>
						<g>
							<g>
								<path fill="#EF7E87" d="M646.156,223.033l-6.385,2.273l-6.385-2.273c0,0-12.116,6.107-11.2,26.749h17.585h17.586
									C658.273,229.14,646.156,223.033,646.156,223.033z"/>
								<g>
									<path fill="#683820" d="M645.89,222.069c-1.706,0.607-3.413,1.215-5.119,1.822c-0.304,0.108-0.608,0.216-0.912,0.325
										c-0.683,0.243,0.296,0.168,0.015,0.068c-0.934-0.332-1.868-0.665-2.802-0.997c-0.972-0.346-3.138-1.656-4.198-1.113
										c-0.536,0.274-1.031,0.635-1.512,0.994c-8.161,6.084-10.524,16.976-10.177,26.615c0.02,0.545,0.44,1,1,1
										c11.724,0,23.447,0,35.171,0c0.56,0,0.98-0.455,1-1c0.343-9.507-2.191-22.745-11.696-27.612
										c-1.146-0.587-2.158,1.139-1.009,1.727c8.871,4.543,11.022,17.081,10.705,25.885c0.333-0.333,0.667-0.667,1-1
										c-11.724,0-23.447,0-35.171,0c0.333,0.333,0.667,0.667,1,1c-0.326-9.057,1.77-19.655,9.668-25.238
										c0.259-0.183,0.526-0.354,0.799-0.515c0.616-0.364-0.697-0.09-0.37,0.027c1.77,0.63,3.539,1.26,5.309,1.89
										c2.425,0.863,5.516-1.124,7.83-1.948C647.628,223.568,647.109,221.635,645.89,222.069z"/>
								</g>
							</g>
							<g>
								<g>
									<g>
										<path fill="#FFF8F4" d="M610.044,203.866c0.283,1.244-0.498,2.482-1.743,2.764l0,0c-1.244,0.282-2.482-0.498-2.763-1.742
											l-0.478-2.109c-0.282-1.244,0.498-2.482,1.742-2.764l0,0c1.245-0.282,2.482,0.498,2.764,1.742L610.044,203.866z"/>
										<g>
											<path fill="#683820" d="M609.079,204.132c0.257,1.786-2.223,2.054-2.608,0.356c-0.149-0.658-0.298-1.316-0.448-1.974
												c-0.395-1.741,2.221-2.063,2.608-0.355C608.781,202.816,608.93,203.474,609.079,204.132
												c0.285,1.258,2.213,0.724,1.929-0.532c-0.385-1.698-0.565-3.413-2.272-4.315c-2.616-1.382-5.001,1.243-4.641,3.76
												c0.24,1.673,0.672,3.47,2.272,4.316c2.616,1.382,5.003-1.243,4.641-3.76
												C610.825,202.328,608.898,202.871,609.079,204.132z"/>
										</g>
									</g>
									<g>
										<path fill="#FFF8F4" d="M669.498,203.866c-0.282,1.244,0.498,2.482,1.743,2.764l0,0c1.244,0.282,2.481-0.498,2.763-1.742
											l0.477-2.109c0.283-1.244-0.498-2.482-1.741-2.764l0,0c-1.245-0.282-2.482,0.498-2.764,1.742L669.498,203.866z"/>
										<g>
											<path fill="#683820" d="M668.534,203.6c-0.369,2.578,1.782,4.766,4.402,3.861c1.914-0.661,2.128-2.726,2.51-4.416
												c0.59-2.606-1.936-4.712-4.401-3.861C669.132,199.845,668.917,201.911,668.534,203.6
												c-0.285,1.256,1.643,1.789,1.929,0.532c0.138-0.608,0.276-1.216,0.413-1.823c0.103-0.452,0.221-0.83,0.626-1.131
												c0.962-0.715,2.169,0.273,2.015,1.335c-0.088,0.611-0.276,1.222-0.413,1.824c-0.102,0.452-0.221,0.83-0.626,1.131
												c-0.962,0.715-2.169-0.273-2.017-1.336C670.643,202.871,668.716,202.328,668.534,203.6z"/>
										</g>
									</g>
								</g>
								<g>
									<path fill="#FFF8F4" d="M639.771,229.418c3.526,0,6.385-2.858,6.385-6.384c0-0.639-0.095-1.255-0.269-1.838
										c-0.015,0-0.029-0.001-0.043-0.001h-12.146c-0.014,0-0.028,0.001-0.043,0.001c-0.174,0.582-0.269,1.199-0.269,1.838
										C633.386,226.559,636.244,229.418,639.771,229.418z"/>
									<g>
										<path fill="#683820" d="M639.771,230.418c5.062-0.273,8.17-4.593,7.08-9.488c-0.098-0.438-0.535-0.725-0.964-0.734
											c-4.065-0.09-8.166-0.091-12.231,0c-0.429,0.01-0.867,0.296-0.964,0.734C631.6,225.824,634.709,230.145,639.771,230.418
											c1.289,0.069,1.283-1.931,0-2c-3.729-0.201-5.953-3.361-5.151-6.956c-0.321,0.245-0.643,0.489-0.964,0.734
											c4.065-0.091,8.166-0.09,12.231,0c-0.321-0.245-0.643-0.489-0.964-0.734c0.801,3.595-1.422,6.755-5.152,6.956
											C638.488,228.487,638.482,230.487,639.771,230.418z"/>
									</g>
								</g>
								<g>
									<path fill="#FFF8F4" d="M655.858,167.997c5.53,0.903,11.5,2.949,14.45,8.552c2.064,4.424,1.77,8.847,1.474,13.565
										c-0.59,8.847,0.641,24.929-9.141,28.015c-26.835,8.465-45.739,0-45.739,0c-9.732-3.244-8.552-19.168-9.142-28.015
										c-0.295-4.718-0.59-9.142,1.474-13.565c2.949-5.603,7.904-7.201,14.45-8.552
										C623.684,167.997,637.28,164.961,655.858,167.997z"/>
									<g>
										<path fill="#683820" d="M655.592,168.961c6.785,1.162,13.034,3.974,14.894,11.176c0.87,3.368,0.48,7.023,0.267,10.449
											c-0.146,2.349-0.171,4.705-0.266,7.056c-0.199,4.957-0.525,10.251-2.791,14.759c-2.881,5.73-10.534,6.405-16.181,7.408
											c-10.211,1.813-21.083,1.512-31.051-1.477c-2.081-0.624-3.643-1.093-5.412-2.224c-4.23-2.704-5.16-8.942-5.647-13.488
											c-0.622-5.802-0.832-11.873-0.852-17.705c-0.015-4.269,1.092-8.351,4.199-11.387c2.57-2.511,6.324-3.469,9.716-4.249
											C633.209,166.809,644.794,167.25,655.592,168.961c1.261,0.2,1.803-1.727,0.532-1.929
											c-10.436-1.654-21.277-2.037-31.722-0.191c-3.76,0.665-7.587,1.614-10.883,3.598c-5.114,3.08-6.847,8.818-6.966,14.475
											c-0.11,5.224,0.322,10.66,0.692,15.876c0.324,4.568,1.008,9.324,3.343,13.341c2.79,4.8,8.908,6.219,13.954,7.303
											c8.476,1.82,17.245,1.808,25.799,0.577c4.871-0.701,10.877-1.492,15.133-4.117c2.914-1.798,4.48-5.098,5.436-8.254
											c1.11-3.665,1.365-7.604,1.55-11.407c0.202-4.146,0.429-8.316,0.526-12.465c0.117-4.968-1.001-9.772-4.57-13.379
											c-3.206-3.241-7.933-4.609-12.293-5.356C654.862,166.816,654.323,168.743,655.592,168.961z"/>
									</g>
								</g>
								<g>
									<g>
										<ellipse fill="#683820" cx="622.225" cy="202.438" rx="1.769" ry="2.506"/>
									</g>
									<g>
										<ellipse fill="#683820" cx="657.317" cy="202.438" rx="1.769" ry="2.506"/>
									</g>
								</g>
								<g>
									<g>
										<path fill="#683820" d="M635.081,213.871c3.08,0.945,6.29,0.86,9.379,0c1.241-0.345,0.713-2.275-0.532-1.929
											c-2.765,0.769-5.56,0.845-8.316,0C634.376,211.563,633.852,213.494,635.081,213.871L635.081,213.871z"/>
									</g>
								</g>
								<g>
									<path fill="#FCECA7" d="M655.122,163.748c-62.086-11.803-46.73,36.711-46.73,36.711s25.521-7.034,39.88-25.013v0.001
										c0,0,3.694,16.137,23.252,24.034C671.524,199.483,679.708,168.218,655.122,163.748z"/>
									<g>
										<path fill="#683820" d="M655.388,162.784c-14.157-2.647-34.387-4.714-44.437,8.331c-5.455,7.081-5.99,16.596-4.548,25.108
											c0.256,1.511,0.565,3.038,1.026,4.502c0.163,0.519,0.691,0.848,1.23,0.698c15.097-4.191,30.426-13.061,40.321-25.27
											c-0.557-0.324-1.114-0.649-1.671-0.973c-0.267,0.776,0.507,2.201,0.761,2.867c0.904,2.381,2.111,4.635,3.501,6.765
											c4.71,7.217,11.796,12.37,19.688,15.633c0.5,0.207,1.106-0.219,1.23-0.698c1.423-5.486,1.754-11.547,0.965-17.142
											C672.011,172.381,665.74,164.782,655.388,162.784c-1.26-0.243-1.797,1.684-0.532,1.929
											c4.998,0.964,9.532,3.205,12.601,7.368c2.561,3.473,3.732,7.81,4.177,12.046c0.52,4.951,0.179,10.256-1.076,15.09
											c0.41-0.233,0.82-0.466,1.23-0.698c-7.449-3.08-13.982-7.989-18.493-14.714c-1.268-1.891-2.355-3.927-3.203-6.04
											c-0.239-0.597-0.452-1.205-0.644-1.818c-0.213-0.682,0.012-0.886-0.213-0.233c0.316-0.917-1.039-1.753-1.671-0.973
											c-9.688,11.954-24.649,20.65-39.438,24.756c0.41,0.233,0.82,0.466,1.23,0.698c-1.762-5.596-2.166-11.998-1.136-17.751
											c0.885-4.943,3.137-9.483,6.887-12.869c5.364-4.844,12.981-6.322,19.972-6.629c6.626-0.291,13.277,0.552,19.777,1.768
											C656.117,164.948,656.655,163.021,655.388,162.784z"/>
									</g>
								</g>
							</g>
						</g>
						<g>
							<rect x="638.404" y="235.459" fill="#683820" width="3.003" height="14.323"/>
							<g>
								<path fill="#683820" d="M655.256,249.308h-3.003c0-6.809-5.539-12.347-12.347-12.347c-6.809,0-12.348,5.539-12.348,12.347
									h-3.003c0-8.465,6.886-15.351,15.351-15.351C648.37,233.957,655.256,240.843,655.256,249.308z"/>
								<g>
									<path fill="#FFF8F4" stroke="#683820" stroke-width="2" stroke-miterlimit="10" d="M659.915,243.423
										c-1.295,2.101-4.048,2.754-6.15,1.458l-2.68-1.653c-2.101-1.295-2.754-4.049-1.459-6.15l0.135-0.22
										c1.295-2.101,4.05-2.753,6.15-1.458l2.68,1.652c2.102,1.295,2.754,4.049,1.459,6.151L659.915,243.423z"/>
									<path fill="#FFF8F4" stroke="#683820" stroke-width="2" stroke-miterlimit="10" d="M619.536,243.423
										c1.295,2.101,4.048,2.754,6.15,1.458l2.68-1.653c2.101-1.295,2.754-4.049,1.459-6.15l-0.135-0.22
										c-1.295-2.101-4.05-2.753-6.15-1.458l-2.68,1.652c-2.102,1.295-2.754,4.049-1.459,6.151L619.536,243.423z"/>
								</g>
							</g>
						</g>
					</g>
				</g>
				<g>
					<g>
						<path fill="#FCECA7" d="M540.972,283.528c0,7.292-5.911,13.203-13.202,13.203h-5.078c-7.292,0-13.203-5.911-13.203-13.203l0,0
							c0-7.292,5.911-13.201,13.203-13.201h5.078C535.061,270.328,540.972,276.237,540.972,283.528L540.972,283.528z"/>
						<g>
							<path fill="#683820" d="M539.972,283.528c-0.111,4.252-2.125,7.946-5.669,10.309c-2.772,1.847-5.891,1.894-9.072,1.894
								c-3.012,0-5.758-0.096-8.507-1.557c-3.918-2.081-6.121-6.317-6.234-10.646c-0.109-4.185,2.262-8.037,5.669-10.307
								c2.772-1.847,5.891-1.893,9.072-1.893c3.012,0,5.758,0.096,8.507,1.556C537.656,274.964,539.859,279.2,539.972,283.528
								c0.034,1.287,2.034,1.29,2,0c-0.114-4.383-2.007-8.629-5.587-11.28c-3.41-2.525-7.063-2.92-11.154-2.92
								c-3.855,0-7.313,0.321-10.628,2.53c-3.893,2.595-5.994,7.081-6.114,11.67c-0.112,4.308,2.144,8.731,5.587,11.282
								c3.41,2.526,7.063,2.921,11.154,2.921c3.855,0,7.313-0.321,10.628-2.531c3.893-2.595,5.994-7.083,6.113-11.672
								C542.005,282.238,540.005,282.241,539.972,283.528z"/>
						</g>
					</g>
					<g>
						<path fill="#EF7E87" d="M540.084,307.571c0,2.217-1.797,4.015-4.015,4.015h-21.677c-2.218,0-4.015-1.798-4.015-4.015l0,0
							c0-2.217,1.797-4.014,4.015-4.014h21.677C538.287,303.556,540.084,305.353,540.084,307.571L540.084,307.571z"/>
						<g>
							<path fill="#683820" d="M539.084,307.571c-0.263,3.265-3.177,3.015-5.527,3.015c-2.775,0-5.551,0-8.326,0
								c-2.663,0-5.326,0-7.988,0c-2.418,0-5.592,0.379-5.866-3.015c-0.263-3.265,3.432-3.014,5.528-3.014c2.775,0,5.551,0,8.326,0
								c2.663,0,5.326,0,7.989,0C535.636,304.556,538.81,304.177,539.084,307.571c0.103,1.276,2.104,1.286,2,0
								c-0.272-3.367-2.71-5.014-5.893-5.014c-3.32,0-6.64,0-9.96,0c-3.246,0-6.493,0-9.739,0c-3.244,0-5.83,1.49-6.115,5.014
								c-0.272,3.375,3.069,5.015,5.894,5.015c3.32,0,6.64,0,9.96,0c3.246,0,6.493,0,9.739,0c3.245,0,5.83-1.491,6.114-5.015
								C541.188,306.284,539.187,306.294,539.084,307.571z"/>
						</g>
					</g>
					<g>
						<path fill="#FCECA7" d="M691.429,283.528c0,7.292-5.911,13.203-13.202,13.203h-5.078c-7.291,0-13.202-5.911-13.202-13.203l0,0
							c0-7.292,5.911-13.201,13.202-13.201h5.078C685.519,270.328,691.429,276.237,691.429,283.528L691.429,283.528z"/>
						<g>
							<path fill="#683820" d="M690.429,283.528c-0.111,4.252-2.125,7.946-5.669,10.309c-2.771,1.848-5.891,1.894-9.072,1.894
								c-3.012,0-5.758-0.096-8.507-1.557c-3.918-2.081-6.121-6.317-6.234-10.646c-0.109-4.185,2.262-8.037,5.669-10.307
								c2.772-1.847,5.891-1.893,9.072-1.893c3.012,0,5.758,0.096,8.507,1.556C688.114,274.964,690.316,279.2,690.429,283.528
								c0.034,1.287,2.034,1.29,2,0c-0.114-4.383-2.007-8.629-5.587-11.28c-3.41-2.525-7.063-2.92-11.154-2.92
								c-3.855,0-7.312,0.321-10.628,2.53c-3.893,2.595-5.994,7.081-6.114,11.67c-0.112,4.308,2.144,8.731,5.587,11.282
								c3.41,2.526,7.063,2.921,11.154,2.921c3.855,0,7.313-0.321,10.628-2.531c3.893-2.595,5.993-7.083,6.113-11.672
								C692.463,282.238,690.463,282.241,690.429,283.528z"/>
						</g>
					</g>
					<g>
						<path fill="#EF7E87" d="M690.542,307.571c0,2.217-1.798,4.015-4.015,4.015H664.85c-2.217,0-4.015-1.798-4.015-4.015l0,0
							c0-2.217,1.798-4.014,4.015-4.014h21.678C688.744,303.556,690.542,305.353,690.542,307.571L690.542,307.571z"/>
						<g>
							<path fill="#683820" d="M689.542,307.571c-0.264,3.265-3.177,3.015-5.527,3.015c-2.776,0-5.551,0-8.326,0
								c-2.663,0-5.326,0-7.989,0c-2.418,0-5.591,0.379-5.865-3.015c-0.263-3.265,3.432-3.014,5.527-3.014c2.775,0,5.551,0,8.326,0
								c2.663,0,5.326,0,7.989,0C686.094,304.556,689.268,304.177,689.542,307.571c0.103,1.276,2.104,1.286,2,0
								c-0.272-3.367-2.71-5.014-5.893-5.014c-3.32,0-6.64,0-9.961,0c-3.247,0-6.493,0-9.74,0c-3.244,0-5.83,1.491-6.114,5.014
								c-0.272,3.374,3.069,5.015,5.893,5.015c3.32,0,6.64,0,9.961,0c3.246,0,6.493,0,9.74,0c3.245,0,5.83-1.492,6.114-5.015
								C691.646,306.284,689.645,306.294,689.542,307.571z"/>
						</g>
					</g>
				</g>
				<g>
					<g>
						<path fill="#D1EAEA" d="M619.009,294.8c0,7.837-3.176,14.19-7.095,14.19h-22.91c-3.918,0-7.095-6.353-7.095-14.19v-1.097
							c0-7.836,3.177-14.189,7.095-14.189h22.91c3.918,0,7.095,6.353,7.095,14.189V294.8z"/>
						<g>
							<path fill="#683820" d="M618.009,294.8c-0.055,3.677-0.937,13.19-6.317,13.19c-2.839,0-5.678,0-8.517,0
								c-3.798,0-7.596,0-11.394,0c-0.884,0-1.768,0-2.651,0c-2.227,0-3.544-2.197-4.42-3.95c-2.674-5.348-2.367-13.073-0.42-18.581
								c0.694-1.963,2.295-4.945,4.728-4.945c0.811,0,1.622,0,2.432,0c6.707,0,13.413,0,20.12,0
								C617.458,280.514,618.009,290.821,618.009,294.8c0,1.29,2,1.29,2,0c0-4.915-0.639-10.097-3.807-14.056
								c-1.721-2.151-3.945-2.23-6.421-2.23c-6.763,0-13.525,0-20.287,0c-3.431,0-5.475,2.621-6.779,5.543
								c-2.168,4.857-2.202,10.795-1.326,15.961c0.606,3.574,2.738,9.681,7.183,9.947c2.261,0.135,4.555,0.026,6.819,0.026
								c5.345,0,10.689,0,16.034,0c7.019,0,8.506-9.941,8.584-15.19C620.028,293.51,618.028,293.512,618.009,294.8z"/>
						</g>
					</g>
					<g>
						<g>
							<g>
								<path fill="#683820" d="M583.015,287.101c11.629,0,23.259,0,34.888,0c1.29,0,1.29-2,0-2c-11.629,0-23.259,0-34.888,0
									C581.726,285.101,581.726,287.101,583.015,287.101L583.015,287.101z"/>
							</g>
						</g>
						<g>
							<g>
								<path fill="#683820" d="M581.909,294.876c12.367,0,24.733,0,37.1,0c1.29,0,1.29-2,0-2c-12.367,0-24.733,0-37.1,0
									C580.62,292.876,580.62,294.876,581.909,294.876L581.909,294.876z"/>
							</g>
						</g>
						<g>
							<g>
								<path fill="#683820" d="M583.015,302.652c11.629,0,23.259,0,34.888,0c1.29,0,1.29-2,0-2c-11.629,0-23.259,0-34.888,0
									C581.726,300.652,581.726,302.652,583.015,302.652L583.015,302.652z"/>
							</g>
						</g>
					</g>
				</g>
			</g>
			<g>
				<g>
					<path fill="#EF7E87" d="M671.136,123.565c0,3.135-2.433,5.676-5.436,5.676H535.218c-3.002,0-5.435-2.541-5.435-5.676v-15.542
						c0-3.135,2.433-5.676,5.435-5.676H665.7c3.002,0,5.436,2.541,5.436,5.676V123.565z"/>
					<g>
						<path fill="#683820" d="M670.136,123.565c-0.289,5.232-4.959,4.676-8.609,4.676c-4.672,0-9.343,0-14.015,0
							c-15.019,0-30.038,0-45.056,0c-22.413,0-44.825,0-67.238,0c-5.113,0-4.435-5.873-4.435-9.305c0-3.474,0-6.948,0-10.423
							c0-5.158,4.04-5.166,7.703-5.166c11.135,0,22.27,0,33.405,0c28.941,0,57.883,0,86.825,0c2.328,0,4.657,0,6.985,0
							c5.389,0,4.436,6.698,4.436,10.242C670.136,116.914,670.136,120.24,670.136,123.565c0,1.29,2,1.29,2,0
							c0-2.838,0-5.676,0-8.514c0-2.816,0.288-5.804-0.179-8.595c-0.77-4.602-5.177-5.108-8.875-5.108c-10.75,0-21.5,0-32.25,0
							c-29.212,0-58.424,0-87.636,0c-2.592,0-5.183,0-7.775,0c-7.461,0-6.639,8.08-6.639,13.211c0,5.255-1.637,15.682,6.476,15.682
							c2.235,0,4.47,0,6.706,0c28.87,0,57.739,0,86.609,0c9.717,0,19.433,0,29.15,0c5.585,0,13.971,1.342,14.414-6.676
							C672.207,122.276,670.207,122.283,670.136,123.565z"/>
					</g>
				</g>
				<g>
					
						<rect x="546.485" y="102.347" fill="#FCECA7" stroke="#683820" stroke-width="2" stroke-miterlimit="10" width="9.392" height="26.894"/>
					
						<rect x="645.042" y="102.347" fill="#FCECA7" stroke="#683820" stroke-width="2" stroke-miterlimit="10" width="9.392" height="26.894"/>
				</g>
				<path fill="#996B5A" stroke="#683820" stroke-width="2" stroke-miterlimit="10" d="M619.443,115.112
					c0,2.35-1.905,4.255-4.255,4.255H585.73c-2.35,0-4.255-1.905-4.255-4.255l0,0c0-2.35,1.905-4.255,4.255-4.255h29.459
					C617.539,110.857,619.443,112.762,619.443,115.112L619.443,115.112z"/>
			</g>
			<g>
				<g>
					<path fill="#996B5A" stroke="#683820" stroke-width="2" stroke-miterlimit="10" d="M552.062,73.314
						c-3.135,0-5.675,2.541-5.675,5.676v17.682c0,3.135,2.541,5.676,5.675,5.676h5.685V73.314H552.062z"/>
					
						<rect x="557.748" y="73.314" fill="#AEB9DF" stroke="#683820" stroke-width="2" stroke-miterlimit="10" width="85.423" height="29.033"/>
					<path fill="#996B5A" stroke="#683820" stroke-width="2" stroke-miterlimit="10" d="M648.856,73.314h-5.685v29.033h5.685
						c3.135,0,5.676-2.541,5.676-5.676V78.99C654.532,75.855,651.991,73.314,648.856,73.314z"/>
				</g>
				<path fill="#996B5A" stroke="#683820" stroke-width="2" stroke-miterlimit="10" d="M611.608,86.829
					c0,1.659-1.345,3.003-3.003,3.003h-16.29c-1.659,0-3.003-1.345-3.003-3.003l0,0c0-1.659,1.345-3.003,3.003-3.003h16.29
					C610.263,83.826,611.608,85.171,611.608,86.829L611.608,86.829z"/>
			</g>
			<path fill="#FCECA7" stroke="#683820" stroke-width="2" stroke-miterlimit="10" d="M633.31,68.269
				c0,2.786-2.541,5.045-5.676,5.045h-54.35c-3.135,0-5.676-2.259-5.676-5.045V50.327c0-2.786,2.541-5.045,5.676-5.045h54.35
				c3.135,0,5.676,2.259,5.676,5.045V68.269z"/>
			<g>
				
					<line fill="none" stroke="#683820" stroke-width="3" stroke-miterlimit="10" x1="580.345" y1="45.282" x2="515.656" y2="135.965"/>
				
					<line fill="none" stroke="#683820" stroke-width="3" stroke-miterlimit="10" x1="620.574" y1="45.282" x2="685.263" y2="135.965"/>
			</g>
		</g>
	</g>
</g>
</svg>
