<svg xmlns="http://www.w3.org/2000/svg" width="254" height="282" viewBox="0 0 254 282" version="1.1">
	<path d="M 147.087 2.119 C 134.753 3.549, 99.715 9.878, 94.730 11.576 C 88.596 13.666, 84.342 18.537, 83.449 24.495 C 83.071 27.013, 83.090 35.628, 83.490 43.640 C 84.089 55.629, 84.525 58.469, 85.953 59.692 C 87.390 60.922, 87.623 62.494, 87.307 68.839 C 87.098 73.052, 86.690 78.412, 86.402 80.750 L 85.877 85 81.189 85.006 C 64.432 85.027, 21.382 95.070, 10.360 101.529 C 5.194 104.556, 3.873 106.722, 2.753 114 C 0.910 125.967, 0.828 128.561, 1.931 139.823 C 3.401 154.828, 3.821 156.813, 5.603 157.189 C 6.813 157.445, 7.117 160.426, 7.321 174 C 7.556 189.650, 7.718 190.861, 10.471 197.500 C 12.068 201.350, 13.946 207.425, 14.644 211 C 15.818 217.012, 15.766 217.703, 13.956 220.210 C 11.384 223.772, 11.484 226.597, 14.280 229.298 C 15.533 230.509, 17.088 232.713, 17.734 234.196 C 19.168 237.490, 24.234 238.738, 29.334 237.055 C 33.652 235.630, 35.414 236.065, 51.500 242.532 C 70.930 250.343, 83.723 254.240, 107 259.435 C 111.125 260.356, 121.326 263.384, 129.669 266.165 C 142.780 270.535, 144.919 271.543, 145.434 273.592 C 146.137 276.395, 150.690 279, 154.885 279 C 159.697 279, 162.998 277.235, 164.394 273.915 C 165.268 271.836, 167.074 270.199, 169.878 268.943 C 177.136 265.694, 201.171 245.964, 218.132 229.333 C 230.636 217.073, 234.363 207.513, 230.085 198.676 C 227.715 193.780, 227.800 191.951, 231.537 167.500 C 235.711 140.193, 238.256 120.638, 241.558 90.500 C 243.547 72.350, 246.537 49.850, 248.203 40.500 C 251.118 24.138, 251.758 16.156, 250.542 11.313 C 249.172 5.854, 237.731 3.324, 208.500 2.018 C 182.730 0.866, 157.538 0.907, 147.087 2.119" fill="none" stroke="#000" stroke-width="2px" fill-rule="evenodd"/>
</svg>
