<svg xmlns="http://www.w3.org/2000/svg" width="279" height="242" viewBox="0 0 279 242" version="1.1">
	<path d="M 159.374 3.588 C 155.205 5.644, 151.821 12.178, 148.543 24.500 C 144.017 41.516, 130.906 81, 129.782 81 C 129.196 81, 124.333 77.683, 118.977 73.629 C 103.354 61.804, 95.018 58.703, 78.500 58.572 C 70.398 58.507, 68.851 58.812, 63 61.621 C 59.425 63.337, 54.700 66.339, 52.500 68.293 C 48.749 71.624, 48.604 71.951, 50.173 73.559 C 51.740 75.166, 51.655 75.470, 48.825 78.387 C 43.958 83.403, 37.230 94.274, 33.999 102.343 C 32.350 106.462, 31 110.268, 31 110.800 C 31 111.332, 30.123 111.996, 29.050 112.277 C 25 113.336, 21.214 123.226, 20.828 133.761 C 20.709 136.991, 21.237 138.623, 23.010 140.511 L 25.349 143 22.799 143 C 20.734 143, 20.129 143.605, 19.613 146.184 C 19.011 149.194, 19.617 150.306, 22.392 151.281 C 23.125 151.539, 19.295 181.667, 18.377 182.869 C 18.222 183.072, 17.429 182.571, 16.614 181.757 C 14.275 179.418, 5.038 178.534, 3.108 180.463 C 0.987 182.584, 2.040 184.115, 10.590 191.339 C 27.060 205.255, 39.335 211.297, 59.026 215.182 C 69.257 217.201, 70.937 217.278, 80.043 216.141 C 92.229 214.620, 99.058 212.881, 109.873 208.543 L 118.246 205.184 123.873 210.538 C 144.356 230.027, 161.787 238.320, 185.189 239.709 C 208.792 241.110, 228.373 232.995, 260.680 208.422 C 267.409 203.304, 273.834 198.624, 274.957 198.023 C 277.845 196.477, 277.559 193.163, 274.435 191.975 C 267.912 189.495, 265.637 190.423, 248.358 202.615 C 239.304 209.003, 231.648 213.981, 231.343 213.677 C 231.039 213.372, 232.612 200.383, 234.839 184.811 C 237.066 169.240, 239.167 153.125, 239.508 149 C 239.931 143.886, 241.747 136.729, 245.217 126.500 C 248.016 118.250, 250.631 111.129, 251.028 110.675 C 251.425 110.221, 254.551 110.401, 257.974 111.075 C 263.186 112.100, 264.341 112.072, 265.083 110.900 C 266.605 108.496, 266.164 108.014, 260 105.341 C 256.700 103.910, 254 102.354, 254 101.885 C 254 101.415, 256.221 94.836, 258.936 87.265 C 275.558 40.911, 275.314 42, 269.044 42 C 267.553 42, 266.071 41.737, 265.749 41.416 C 265.428 41.095, 266.028 38.324, 267.083 35.260 C 269.677 27.720, 269.629 20.052, 266.971 17.199 C 263.536 13.512, 259.856 12.243, 250.500 11.517 C 245.550 11.134, 231.600 9.505, 219.500 7.897 C 172.789 1.693, 164.430 1.094, 159.374 3.588 M 75.107 71.061 C 64.268 74.909, 53.755 85.551, 46.518 100 C 40.929 111.159, 40.911 110.997, 47.683 111.019 C 50.882 111.030, 57.775 111.666, 63 112.432 C 68.225 113.198, 80.825 115, 91 116.435 C 101.175 117.870, 110.795 119.308, 112.379 119.630 L 115.257 120.215 114.572 114.358 C 112.158 93.732, 103.321 77.743, 90.839 71.418 C 85.192 68.557, 82.342 68.492, 75.107 71.061 M 117.696 88.717 C 119.602 92.842, 121.409 97.744, 121.711 99.609 C 122.014 101.474, 122.540 102.990, 122.881 102.979 C 123.400 102.961, 128.105 89.614, 127.652 89.442 C 127.569 89.411, 124.514 87.547, 120.865 85.301 L 114.230 81.217 117.696 88.717 M 30.609 174.750 C 29.623 181.762, 28.607 188.421, 28.351 189.547 C 27.982 191.169, 29.299 192.569, 34.697 196.291 C 38.444 198.874, 44.882 202.453, 49.005 204.244 C 56.083 207.319, 57.139 207.496, 68 207.424 C 79.701 207.347, 86.585 206.079, 98.193 201.866 C 102.803 200.192, 103.989 199.295, 104.432 197.150 C 105.678 191.116, 107.937 175.604, 107.617 175.284 C 107.315 174.982, 34.375 162.007, 32.951 162.002 C 32.648 162.001, 31.595 167.738, 30.609 174.750 M 117.947 177.250 C 117.197 180.790, 115.315 193.587, 115.512 193.809 C 115.839 194.179, 133.918 183.194, 135.843 181.455 C 136.917 180.485, 135.413 179.917, 128.343 178.619 C 119.396 176.977, 118.043 176.799, 117.947 177.250 M 153.428 183.162 C 150.452 184.920, 150.303 185.354, 148.634 197.238 C 147.686 203.982, 146.707 210.475, 146.457 211.666 C 145.849 214.571, 153.532 220.680, 164.836 226.281 C 171.903 229.784, 174.474 230.533, 180.401 230.818 C 189.126 231.239, 203.088 228.340, 212.168 224.223 L 218.629 221.294 220.464 207.630 C 221.474 200.115, 222.043 193.709, 221.728 193.395 C 221.414 193.081, 207.284 190.396, 190.329 187.430 C 173.373 184.463, 158.825 181.881, 158 181.692 C 157.175 181.503, 155.118 182.165, 153.428 183.162 M 131.277 197.537 C 125.925 200.800, 125.510 202, 129.732 202 C 131.052 202, 132.952 202.439, 133.956 202.976 C 135.564 203.837, 135.861 203.411, 136.465 199.385 C 136.842 196.872, 137.004 194.712, 136.825 194.585 C 136.646 194.457, 134.150 195.786, 131.277 197.537" fill="none" stroke="#000" stroke-width="2px" fill-rule="evenodd"/>
</svg>
