<svg xmlns="http://www.w3.org/2000/svg" width="290" height="155" viewBox="0 0 290 155" version="1.1">
	<path d="M 84.500 1.645 C 73.144 2.954, 64.492 6.189, 57.231 11.840 C 54.233 14.174, 51.831 14.966, 45 15.873 C 40.325 16.494, 33.264 17.002, 29.309 17.001 C 25.354 17.001, 21.843 17.445, 21.507 17.989 C 21.171 18.533, 21.576 20.445, 22.407 22.239 C 24.441 26.628, 28 39.844, 28 43.007 C 28 45.196, 27.049 45.968, 21.250 48.490 C 12.831 52.150, 5.671 58.992, 3.834 65.132 C 3.115 67.534, 2.561 72.650, 2.603 76.500 C 2.682 83.726, 6.635 108.729, 7.979 110.500 C 8.397 111.050, 9.312 113.975, 10.014 117 C 10.716 120.025, 11.788 122.831, 12.395 123.235 C 13.948 124.267, 19.407 124.176, 22.320 123.069 C 24.553 122.219, 24.724 121.727, 24.247 117.497 L 23.724 112.858 27.112 113.423 C 34.060 114.582, 62.366 118.045, 89 120.995 C 104.125 122.670, 119.875 124.480, 124 125.018 C 131.372 125.978, 168.130 130.471, 209.500 135.468 C 221.050 136.863, 231.718 138.004, 233.206 138.002 C 235.871 138, 235.917 138.110, 236.206 145.230 L 236.500 152.460 241.457 153.288 C 249.115 154.567, 251 153.110, 251 145.909 C 251 140.393, 251.172 140.008, 255.180 136.578 C 259.003 133.305, 259.891 133, 265.582 133 C 271.662 133, 271.829 132.928, 272.902 129.851 C 273.506 128.119, 274 126.046, 274 125.245 C 274 124.444, 275.080 122.505, 276.400 120.936 C 279.087 117.743, 280.599 110.320, 284.021 83.500 C 285.144 74.700, 286.514 64.800, 287.066 61.500 C 287.617 58.200, 288.341 50.095, 288.675 43.490 C 289.699 23.201, 286.267 16.517, 272.534 12.062 C 261.825 8.588, 254.775 7.748, 240.324 8.226 C 228.738 8.609, 224.233 9.260, 212.500 12.247 C 179.196 20.724, 163.877 20.139, 131.223 9.140 C 111.201 2.395, 97.316 0.168, 84.500 1.645 M 12.238 117.039 C 12.802 119.261, 13.767 120.911, 14.382 120.706 C 14.997 120.501, 15.455 119.808, 15.400 119.167 C 15.345 118.525, 15.232 116.875, 15.150 115.500 C 15.046 113.766, 14.420 113, 13.106 113 C 11.391 113, 11.309 113.381, 12.238 117.039 M 18.619 115.750 C 19.940 121.274, 22 121.731, 22 116.500 C 22 113.656, 21.622 113, 19.981 113 C 18.286 113, 18.067 113.441, 18.619 115.750 M 269.524 126.359 C 267.817 127.607, 268.092 130, 269.942 130 C 270.734 130, 272.219 125.886, 271.637 125.304 C 271.482 125.148, 270.531 125.623, 269.524 126.359 M 239.195 145.500 C 239.215 147.150, 239.439 147.704, 239.693 146.731 C 239.947 145.758, 239.930 144.408, 239.656 143.731 C 239.382 143.054, 239.175 143.850, 239.195 145.500 M 242 146 C 242 148, 242.500 149, 243.500 149 C 244.500 149, 245 148, 245 146 C 245 144, 244.500 143, 243.500 143 C 242.500 143, 242 144, 242 146 M 247.553 144.250 C 246.923 146.296, 247.272 149, 248.167 149 C 248.625 149, 249 147.650, 249 146 C 249 142.930, 248.241 142.013, 247.553 144.250" fill="none" stroke="#000" stroke-width="2px" fill-rule="evenodd"/>
</svg>
