<svg xmlns="http://www.w3.org/2000/svg" width="283" height="191" viewBox="0 0 283 191" version="1.1">
	<path d="M 124 2.896 C 113.390 4.111, 102.815 7.094, 100.340 9.569 C 98.389 11.520, 96.362 11.977, 85.293 12.964 C 45.434 16.518, 25 22.609, 25 30.934 C 25 32.450, 25.903 34.507, 27.006 35.506 C 28.110 36.504, 28.841 37.492, 28.632 37.701 C 28.423 37.910, 25.018 37.346, 21.066 36.447 C 15.138 35.099, 13.717 34.386, 12.955 32.380 C 11.579 28.761, 9.040 28.232, 6.730 31.083 C 5.027 33.184, 4.857 34.444, 5.425 40.722 C 5.817 45.056, 5.469 53.653, 4.554 62.222 C 2.404 82.356, 1 113.336, 1 140.647 C 1 163.043, 1.079 164, 2.928 164 C 4.515 164, 4.956 163.072, 5.422 158.750 C 5.907 154.253, 8.520 118.658, 9.257 106.500 L 9.500 102.500 19.421 101.648 C 27.352 100.968, 30.645 101.118, 35.839 102.400 C 39.413 103.282, 42.513 104.179, 42.727 104.394 C 42.942 104.609, 42.291 113.618, 41.281 124.414 C 39.478 143.692, 39.659 147, 42.515 147 C 44.840 147, 45.683 144.110, 47.033 131.500 C 48.514 117.679, 49.839 112.732, 49.937 120.665 C 49.971 123.506, 50.895 137.996, 51.990 152.864 C 53.084 167.732, 54.058 181.967, 54.154 184.496 C 54.307 188.544, 54.578 189.060, 56.414 188.798 C 58.484 188.502, 58.500 188.225, 58.500 153.053 L 58.500 117.607 69.185 109.957 C 76.424 104.775, 80.825 102.281, 82.829 102.224 C 85.696 102.142, 85.807 102.314, 86.439 107.820 C 87.361 115.858, 92.951 155.947, 93.610 159.250 C 93.980 161.105, 94.784 162, 96.079 162 C 98.369 162, 98.426 160.910, 97.018 144.172 C 92.571 91.291, 92.677 93.950, 94.936 91.845 C 97.288 89.653, 97.647 85.782, 95.651 84.125 C 93.525 82.361, 85.694 81.265, 69.750 80.500 L 55 79.792 55.065 74.146 C 55.101 71.041, 55.663 64.912, 56.315 60.527 L 57.500 52.554 61.782 51.712 C 64.168 51.242, 66.580 50.044, 67.229 49.005 C 68.751 46.568, 74.177 47.085, 90.838 51.255 L 103.176 54.344 102.590 58.422 C 101.785 64.027, 99 106.113, 99 112.673 C 99 116.711, 99.358 118, 100.481 118 C 101.295 118, 102.170 116.987, 102.425 115.750 C 103.078 112.576, 106.804 83.829, 107.595 75.853 C 107.958 72.196, 108.605 68.639, 109.033 67.947 C 110.167 66.112, 127.803 69.763, 129.049 72.091 C 129.543 73.014, 131.084 74.055, 132.474 74.404 L 135 75.038 135.118 91.769 C 135.183 100.971, 135.521 114.570, 135.868 121.989 C 136.398 133.294, 136.762 135.529, 138.116 135.787 C 140.346 136.212, 140.999 132.216, 141.003 118.125 C 141.005 111.731, 141.300 99.433, 141.658 90.795 L 142.309 75.091 145.222 74.451 C 146.824 74.099, 148.373 73.191, 148.664 72.433 C 149.162 71.135, 155.612 69.278, 156.508 70.175 C 156.955 70.621, 157.826 84.885, 161.080 144.996 C 162.268 166.946, 163.611 184.031, 164.204 184.746 C 165.689 186.536, 167.772 186.295, 168.890 184.205 C 169.509 183.048, 169.344 162.171, 168.426 125.537 C 167.643 94.257, 167.114 68.578, 167.251 68.472 C 167.388 68.365, 169.355 67.995, 171.621 67.648 L 175.743 67.017 176.954 78.259 C 178.701 94.471, 181.934 118.267, 182.462 118.795 C 182.710 119.044, 183.557 119, 184.343 118.699 C 185.362 118.307, 185.665 116.913, 185.401 113.825 C 185.197 111.446, 184.536 99.622, 183.933 87.548 C 183.329 75.475, 182.495 62.425, 182.078 58.548 C 181.220 50.554, 182.013 49.203, 187.750 48.882 C 189.537 48.782, 191.563 48.655, 192.250 48.600 C 193.127 48.530, 193.851 52.081, 194.675 60.500 C 196.259 76.670, 196.255 78, 194.622 78 C 192.381 78, 190.573 80.780, 191.829 82.294 C 192.598 83.220, 192.491 87.413, 191.453 97.044 C 188.564 123.837, 186.154 156.515, 187.003 157.383 C 189.674 160.115, 190.677 156.574, 194.374 131.362 C 196.460 117.138, 198.280 105.387, 198.418 105.249 C 198.555 105.111, 199.224 111.343, 199.903 119.098 C 201.247 134.436, 201.579 136, 203.485 136 C 206.447 136, 206.830 133.527, 205.957 120 C 204.573 98.541, 204.627 97.680, 207.422 96.385 C 209.329 95.501, 210.937 95.660, 215.164 97.154 C 218.099 98.190, 227.743 101.542, 236.596 104.602 L 252.691 110.166 253.343 127.333 C 253.701 136.775, 253.995 151.551, 253.997 160.168 C 253.999 168.786, 254.273 176.548, 254.607 177.418 C 254.941 178.288, 256.025 179, 257.017 179 C 258.559 179, 258.910 177.806, 259.436 170.750 C 260.453 157.108, 261.979 118.300, 261.990 105.785 C 261.999 95.100, 262.176 93.976, 264 93 C 265.854 92.008, 266.002 92.242, 266.023 96.215 C 266.069 104.952, 268.849 150.183, 269.372 150.705 C 269.670 151.003, 270.557 151, 271.344 150.698 C 272.490 150.259, 272.923 145.820, 273.529 128.325 C 274.176 109.641, 273.648 53.903, 272.786 49.883 C 272.629 49.148, 273.466 48.399, 274.646 48.218 C 278.854 47.571, 280.468 44.372, 280.852 35.913 C 281.210 28.036, 281.209 28.030, 278.355 26.940 C 272.813 24.823, 265.153 23.848, 263.022 24.988 C 260.430 26.376, 260.435 29.770, 263.034 32.536 L 265.068 34.702 256.784 36.345 C 248.208 38.046, 244.483 40.490, 245.687 43.625 C 246.378 45.428, 250.098 47, 253.674 47 L 256.219 47 255.568 58.250 C 254.563 75.647, 254.210 77.297, 251.647 76.573 C 244.288 74.495, 232.674 73.949, 218.692 75.024 C 210.519 75.652, 203.706 76.016, 203.552 75.833 C 203.397 75.650, 202.965 69.088, 202.591 61.250 L 201.912 47 205.706 46.969 C 211.599 46.920, 229.711 43.547, 237.815 40.989 C 249.689 37.241, 254.062 31.226, 248.625 26.118 C 243.534 21.334, 224.076 16.644, 197.958 13.903 C 187.953 12.853, 186.246 12.401, 184.500 10.338 C 180.896 6.082, 165.399 2.879, 146.500 2.485 C 137.700 2.301, 127.575 2.486, 124 2.896 M 261 53.344 C 261 56.284, 261.295 63.503, 261.655 69.388 C 262.208 78.431, 262.556 80.040, 263.905 79.782 C 265.255 79.524, 265.577 77.144, 266 64.288 C 266.479 49.727, 266.417 49.076, 264.500 48.563 C 261.128 47.660, 261 47.835, 261 53.344 M 10.369 69.903 L 10.237 89.817 14.611 90.165 C 18.395 90.466, 19.249 90.154, 20.953 87.850 C 23.274 84.710, 30.172 82.191, 39.161 81.199 L 45.500 80.500 46.129 74.500 C 46.475 71.200, 47.058 65.305, 47.425 61.400 L 48.092 54.299 35.296 54.281 C 23.440 54.265, 19.111 53.583, 12 50.614 C 10.698 50.071, 10.483 52.622, 10.369 69.903 M 249.783 96.235 C 251.470 97.048, 252.369 97.031, 253.233 96.167 C 254.122 95.278, 253.580 95.016, 250.950 95.068 C 247.710 95.131, 247.639 95.202, 249.783 96.235" fill="none" stroke="#000" stroke-width="2px" fill-rule="evenodd"/>
</svg>
