<?xml version="1.0" encoding="UTF-8" standalone="no"?>
<svg
   xmlns:dc="http://purl.org/dc/elements/1.1/"
   xmlns:cc="http://creativecommons.org/ns#"
   xmlns:rdf="http://www.w3.org/1999/02/22-rdf-syntax-ns#"
   xmlns:svg="http://www.w3.org/2000/svg"
   xmlns="http://www.w3.org/2000/svg"
   xmlns:sodipodi="http://sodipodi.sourceforge.net/DTD/sodipodi-0.dtd"
   xmlns:inkscape="http://www.inkscape.org/namespaces/inkscape"
   width="200"
   height="200"
   viewBox="0 0 52.916666 52.916668"
   version="1.1"
   id="svg3023"
   inkscape:version="1.0.2-2 (e86c870879, 2021-01-15)"
   sodipodi:docname="1.svg">
  <defs
     id="defs3017" />
  <sodipodi:namedview
     id="base"
     pagecolor="#ffffff"
     bordercolor="#666666"
     borderopacity="1.0"
     inkscape:pageopacity="0.0"
     inkscape:pageshadow="2"
     inkscape:zoom="2.8"
     inkscape:cx="119.87417"
     inkscape:cy="83.20568"
     inkscape:document-units="mm"
     inkscape:current-layer="layer1"
     inkscape:document-rotation="0"
     showgrid="false"
     units="px"
     inkscape:window-width="1920"
     inkscape:window-height="1017"
     inkscape:window-x="-8"
     inkscape:window-y="-8"
     inkscape:window-maximized="1" />
  <metadata
     id="metadata3020">
    <rdf:RDF>
      <cc:Work
         rdf:about="">
        <dc:format>image/svg+xml</dc:format>
        <dc:type
           rdf:resource="http://purl.org/dc/dcmitype/StillImage" />
        <dc:title></dc:title>
      </cc:Work>
    </rdf:RDF>
  </metadata>
  <g
     inkscape:label="Layer 1"
     inkscape:groupmode="layer"
     id="layer1">
    <g
       id="g4177"
       transform="matrix(1.6909253,0,0,1.6909253,-14.489686,-9.0892225)">
      <path
         id="path888"
         style="fill:#bc232c;fill-opacity:1;fill-rule:evenodd;stroke:none;stroke-width:0.0352777"
         d="m 23.551679,32.796827 0.340431,2.29856 2.238375,0.400579 -0.937683,0.499287 -2.192867,-0.143616 0.551744,-0.620254 -0.370062,-2.593306 c 0,0 0.139345,0.0041 0.231068,0.046 0.08114,0.03694 0.135819,0.08791 0.138994,0.112747 v 0" />
      <path
         id="path890"
         style="fill:#eae9e6;fill-opacity:1;fill-rule:evenodd;stroke:none;stroke-width:0.0352777"
         d="m 30.075246,18.863022 c 0.194029,-0.29986 -0.564444,-0.370768 -0.79375,-0.370768 -4.188529,0 -1.83515,8.549605 -3.678767,9.404244 -2.507192,1.161698 -5.309447,1.091424 -6.899026,0.661212 -0.763413,-0.20687 -1.451224,-1.151361 -1.306089,-0.845434 1.294093,2.724645 -1.284748,5.613014 5.140536,5.94995 4.472517,0.234527 8.129762,-0.186724 6.020152,-5.924478 -0.950383,-2.584908 -0.07585,-6.485361 1.516944,-8.874726 v 0" />
      <path
         id="path892"
         style="fill:#faf8f7;fill-opacity:1;fill-rule:evenodd;stroke:none;stroke-width:0.0352777"
         d="m 27.0657,29.289722 c 0.925687,1.052126 -0.08396,2.861487 -3.113616,3.282209 -3.029657,0.420831 -4.713007,-1.094316 -5.049663,-1.893427 0.184644,0.101952 1.051983,0.547087 2.440871,-0.126508 1.326092,-0.642866 4.228041,-2.960298 5.722408,-1.262274 v 0" />
      <path
         id="path894"
         style="fill:#dddcdb;fill-opacity:1;fill-rule:evenodd;stroke:none;stroke-width:0.0352777"
         d="m 18.365528,32.264628 c 0.530686,0.746477 1.666735,1.266259 4.172622,1.397598 4.472517,0.234527 8.129762,-0.186724 6.0198,-5.924478 -0.740833,-2.015773 -0.371829,-4.831538 0.581729,-7.106955 l -0.209902,-0.1524 c 0,0 -1.2319,1.476727 -1.135944,4.430959 0.04798,1.480008 0.323496,2.889745 0.348192,4.17336 0.0441,2.306709 -0.756356,3.310327 -3.027188,3.83921 -2.385483,0.555379 -5.653193,0.432049 -6.675154,-0.589772 -0.371933,-0.371793 -0.04907,-0.0466 -0.07415,-0.06752 v 0" />
      <path
         id="path896"
         style="fill:#d3222d;fill-opacity:1;fill-rule:evenodd;stroke:none;stroke-width:0.0352777"
         d="m 31.054558,21.21852 c -0.696383,-0.01341 -1.84785,0.286102 -2.355146,-0.19826 -0.06914,-0.06632 -0.03633,-0.724606 -0.03633,-0.724606 0.36689,-0.07937 1.893358,0.784225 2.391481,0.922866 v 0" />
      <path
         id="path900"
         style="fill:#ffffff;fill-opacity:1;fill-rule:evenodd;stroke:none;stroke-width:0.0352777"
         d="m 28.668017,18.413937 c -0.306213,0 -0.554215,0.22366 -0.554215,0.498827 0,0.275167 0.248002,0.498475 0.554215,0.498475 0.30621,0 0.554566,-0.223308 0.554566,-0.498475 0,-0.275167 -0.248356,-0.498827 -0.554566,-0.498827 v 0" />
      <path
         id="path902"
         style="fill:none;stroke:#231f20;stroke-width:0.1764;stroke-linecap:butt;stroke-linejoin:miter;stroke-miterlimit:2.6131;stroke-dasharray:none;stroke-opacity:1"
         d="m 28.668017,18.413937 c -0.306213,0 -0.554215,0.22366 -0.554215,0.498827 0,0.275167 0.248002,0.498475 0.554215,0.498475 0.30621,0 0.554566,-0.223308 0.554566,-0.498475 0,-0.275167 -0.248356,-0.498827 -0.554566,-0.498827 z" />
      <path
         id="path904"
         style="fill:#231f20;fill-opacity:1;fill-rule:evenodd;stroke:none;stroke-width:0.0352777"
         d="m 28.48316,18.62772 c -0.153106,0 -0.276931,0.111832 -0.276931,0.249415 0,0.137583 0.123825,0.249412 0.276931,0.249412 0.153459,0 0.277636,-0.111829 0.277636,-0.249412 0,-0.137583 -0.124177,-0.249415 -0.277636,-0.249415 v 0" />
      <path
         id="path906"
         style="fill:#ffffff;fill-opacity:1;fill-rule:evenodd;stroke:none;stroke-width:0.0352777"
         d="m 28.390027,18.749077 c -0.0635,0 -0.114652,0.04621 -0.114652,0.10301 0,0.05715 0.05115,0.103365 0.114652,0.103365 0.0635,0 0.115006,-0.04622 0.115006,-0.103365 0,-0.0568 -0.05151,-0.10301 -0.115006,-0.10301 v 0" />
      <path
         id="path908"
         style="fill:#ffffff;fill-opacity:1;fill-rule:evenodd;stroke:none;stroke-width:0.0352777"
         d="m 28.609808,18.832331 c -0.04445,0 -0.08043,0.03246 -0.08043,0.07232 0,0.03986 0.03598,0.07232 0.08043,0.07232 0.0441,0 0.08008,-0.03246 0.08008,-0.07232 0,-0.03986 -0.03598,-0.07232 -0.08008,-0.07232 v 0" />
      <path
         id="path910"
         style="fill:#e41e2a;fill-opacity:1;fill-rule:evenodd;stroke:none;stroke-width:0.0352777"
         d="m 21.606817,33.471763 0.340077,2.298594 2.238375,0.40058 -0.938035,0.498861 -2.192515,-0.143333 0.552098,-0.620112 -0.370771,-2.593483 c 0,0 0.1397,0.0042 0.231423,0.04576 0.08114,0.03722 0.135466,0.08819 0.139348,0.113136 v 0" />
    </g>
  </g>
</svg>
