<?xml version="1.0" encoding="UTF-8" standalone="no"?>
<svg
   xmlns:dc="http://purl.org/dc/elements/1.1/"
   xmlns:cc="http://creativecommons.org/ns#"
   xmlns:rdf="http://www.w3.org/1999/02/22-rdf-syntax-ns#"
   xmlns:svg="http://www.w3.org/2000/svg"
   xmlns="http://www.w3.org/2000/svg"
   xmlns:sodipodi="http://sodipodi.sourceforge.net/DTD/sodipodi-0.dtd"
   xmlns:inkscape="http://www.inkscape.org/namespaces/inkscape"
   width="200"
   height="200"
   viewBox="0 0 52.916666 52.916668"
   version="1.1"
   id="svg3023"
   sodipodi:docname="3.svg"
   inkscape:version="1.0.2-2 (e86c870879, 2021-01-15)">
  <defs
     id="defs3017" />
  <sodipodi:namedview
     id="base"
     pagecolor="#ffffff"
     bordercolor="#666666"
     borderopacity="1.0"
     inkscape:pageopacity="0.0"
     inkscape:pageshadow="2"
     inkscape:zoom="2.8"
     inkscape:cx="124.64704"
     inkscape:cy="114.35804"
     inkscape:document-units="mm"
     inkscape:current-layer="layer1"
     inkscape:document-rotation="0"
     showgrid="false"
     units="px"
     inkscape:window-width="1920"
     inkscape:window-height="1017"
     inkscape:window-x="-8"
     inkscape:window-y="-8"
     inkscape:window-maximized="1" />
  <metadata
     id="metadata3020">
    <rdf:RDF>
      <cc:Work
         rdf:about="">
        <dc:format>image/svg+xml</dc:format>
        <dc:type
           rdf:resource="http://purl.org/dc/dcmitype/StillImage" />
        <dc:title></dc:title>
      </cc:Work>
    </rdf:RDF>
  </metadata>
  <g
     inkscape:label="Layer 1"
     inkscape:groupmode="layer"
     id="layer1">
    <g
       id="g4500"
       transform="matrix(1.419374,0,0,1.419374,-10.95547,-12.611469)">
      <path
         id="path820"
         style="fill:#85b0b9;fill-opacity:1;fill-rule:evenodd;stroke:none;stroke-width:0.0352777"
         d="m 13.577887,35.969708 c 0.354965,1.090718 0.700052,2.26427 1.011625,3.292546 0.50091,1.652554 1.764171,4.266425 2.076133,5.283412 0.244334,0.796502 0.771419,0.665303 0.743338,0.03239 -0.03764,-0.841976 -1.161697,-3.63347 -1.34359,-4.766238 -0.122096,-0.760802 -0.02896,-1.579917 0.117828,-2.181826 -0.216358,-0.24779 -0.395393,-0.495829 -0.503837,-0.750358 -0.203799,-0.478862 -1.092376,-0.774454 -2.101497,-0.909921 v 0" />
      <path
         id="path822"
         style="fill:#719da8;fill-opacity:1;fill-rule:evenodd;stroke:none;stroke-width:0.0352777"
         d="m 17.320506,44.982088 c 0.06064,-0.08915 0.09631,-0.226978 0.08848,-0.404037 -0.03764,-0.841976 -1.161697,-3.63347 -1.34359,-4.766238 -0.09662,-0.601912 -0.0587,-1.239944 0.03404,-1.778355 -0.397016,-0.165063 -0.602368,-0.03969 -0.602368,-0.03969 0.0248,0.173638 0,2.082905 0.669607,3.868562 0.504896,1.346375 0.967387,2.340187 1.15383,3.119755 v 0" />
      <path
         id="path824"
         style="fill:#d3d2d2;fill-opacity:1;fill-rule:evenodd;stroke:none;stroke-width:0.0352777"
         d="m 33.668863,22.521115 c -0.735612,-2.66559 -4.41385,-5.203473 -6.202433,-6.201834 -0.547052,-0.305151 -0.0063,0.04763 0.18094,0.213784 2.134164,1.896533 3.94342,3.327752 5.053824,6.103056 0.223661,0.559152 0.521441,0.0635 0.967669,-0.115006 v 0" />
      <path
         id="path826"
         style="fill:#aeafaf;fill-opacity:1;fill-rule:evenodd;stroke:none;stroke-width:0.0352777"
         d="m 32.691422,20.635517 c -0.163866,-0.220486 -0.340678,-0.437444 -0.528497,-0.649817 -0.299296,0.04904 -0.604802,0.149225 -0.819503,0.218017 0.192935,0.259291 0.376732,0.529873 0.551216,0.815271 0.248179,-0.166865 0.539503,-0.289632 0.796784,-0.383471 z m -1.055053,-1.208262 c -0.15748,-0.157692 -0.319546,-0.311505 -0.484364,-0.461788 -0.217734,0.07444 -0.447851,0.179916 -0.618066,0.263173 0.144039,0.15734 0.284727,0.317852 0.421569,0.4826 0.195121,-0.116417 0.462174,-0.21096 0.680861,-0.283985 z m -0.952747,-0.87348 c -0.183973,-0.155927 -0.369746,-0.307269 -0.555484,-0.452612 -0.205881,0.03493 -0.411233,0.0889 -0.578238,0.136877 0.19431,0.18274 0.38407,0.367241 0.568572,0.554215 0.171027,-0.09102 0.38033,-0.173567 0.56515,-0.23848 z m -1.102289,-0.867127 c -0.19364,-0.141465 -0.384775,-0.276931 -0.571747,-0.404635 -0.143757,0.02963 -0.279224,0.06597 -0.398004,0.103362 0.164148,0.145698 0.326037,0.290338 0.485069,0.434271 0.134656,-0.06773 0.305929,-0.109363 0.484682,-0.132998 z m -1.066624,-0.734131 c -0.157762,-0.101952 -0.310338,-0.197909 -0.456388,-0.286809 -0.06657,0.02434 -0.124601,0.05116 -0.173779,0.07726 l 0.304694,0.269171 c 0.104564,-0.02294 0.215654,-0.04304 0.325473,-0.05962 v 0" />
      <path
         id="path828"
         style="fill:#edf1f1;fill-opacity:1;fill-rule:evenodd;stroke:none;stroke-width:0.0352777"
         d="m 34.408709,22.67175 c 0.66107,0.398992 1.720779,0.136879 1.789959,1.031523 0.08996,1.16346 1.184699,2.518481 2.347876,2.428523 3.668043,-0.283281 1.071562,1.983528 1.371036,3.764209 0.148132,0.881697 3.01738,1.566968 1.831412,1.568627 -0.718117,0.0011 -2.569777,-0.756111 -2.631935,-1.561571 -1.360242,-0.607026 0.366149,2.300885 2.006036,2.78003 0.08597,0.02479 -3.619994,0.0689 -3.387373,-3.068463 0.114372,-1.544108 -1.021821,-0.613656 -2.030553,-0.65278 -1.273987,-0.05002 -1.848204,-0.634576 -2.230331,-0.907873 -0.230823,-0.164994 -1.080947,-1.176408 -1.370049,-1.424058 -0.482035,-0.41275 -2.133494,0.345016 -2.244019,-1.086554 -0.14538,-1.878542 -0.396981,-2.688167 1.333676,-3.703109 1.627329,-0.954971 2.305861,0.721429 3.214265,0.831496 v 0" />
      <path
         id="path830"
         style="fill:#c4d7d7;fill-opacity:1;fill-rule:evenodd;stroke:none;stroke-width:0.0352777"
         d="m 34.303863,28.616657 c -0.155716,-0.07966 -0.290089,-0.1651 -0.408199,-0.247793 -0.37659,-0.894397 -0.219075,-2.186974 -0.11243,-1.440849 0.08586,0.601485 0.387244,1.368777 0.520629,1.688642 v 0" />
      <path
         id="path832"
         style="fill:#edf1f1;fill-opacity:1;fill-rule:evenodd;stroke:none;stroke-width:0.0352777"
         d="m 31.379371,22.993131 c -1.907046,0.897467 -3.903416,4.648907 -5.048145,6.169766 -2.589494,3.441383 -8.857473,-0.50532 -13.035138,1.28129 -1.607502,-1.210593 -1.124338,-2.336025 -1.013425,-4.600258 -3.4958049,3.514371 -0.204787,4.49252 0.01834,5.421593 0.315277,1.313535 -0.110808,4.595321 -0.381035,7.080745 -0.186584,1.716651 -0.04808,4.61645 -0.159597,5.674077 -0.08707,0.828886 0.449262,0.914611 0.671124,0.321381 0.295452,-0.789622 0.354577,-3.798146 0.631014,-4.912042 0.395499,-1.593287 1.793628,-3.046553 1.714253,-2.526348 -0.229835,1.503858 5.315232,5.463646 9.310863,0.672889 0,1.009827 -1.061085,2.813968 -0.22419,3.92631 0.08516,0.113843 0.301237,5.166006 1.233735,4.038495 0.166617,-0.20119 -0.596689,-8.123555 1.009544,-7.403923 0.444852,0.19939 0.755861,5.287539 2.916625,7.291879 1.212145,1.123773 -1.450234,-3.75059 -1.581996,-6.866747 -0.111055,-2.633027 0.23248,-6.030983 1.694462,-8.053281 0.714904,-0.989156 0.343958,-0.495655 3.477471,-3.028492 0.616798,-0.498827 -0.336515,-5.160434 -1.233911,-4.487334 v 0" />
      <path
         id="path834"
         style="fill:#f7fafb;fill-opacity:1;fill-rule:evenodd;stroke:none;stroke-width:0.0352777"
         d="m 22.85954,31.118062 c 1.880024,-0.139171 3.377142,1.079429 2.785287,2.715824 -0.591891,1.636289 -2.611261,5.083175 -5.222628,5.327086 -2.611261,0.243628 -5.187632,-1.009827 -5.849091,-4.212942 -1.346623,-6.521275 5.273464,-3.606731 8.286432,-3.829968 z m 9.40054,-5.299533 c -0.148837,-0.718962 -1.46304,-2.35585 -3.37259,0.446617 -1.909269,2.801689 -3.000411,3.719052 -3.099506,4.46292 -0.0992,0.744149 1.264638,1.735913 2.579017,-0.66929 0.141111,-0.621524 2.136634,-2.457309 3.491265,-3.299388 0.46729,-0.290338 0.444395,-0.734484 0.401814,-0.940859 v 0" />
      <path
         id="path836"
         style="fill:#d6dedf;fill-opacity:1;fill-rule:evenodd;stroke:none;stroke-width:0.0352777"
         d="m 29.235293,45.011015 c -0.382834,-1.254971 -1.702153,-4.278384 -1.793945,-6.448777 -0.111055,-2.633027 0.23248,-6.030983 1.694462,-8.053281 0.714904,-0.989156 0.343958,-0.495655 3.477471,-3.028492 0.06847,-0.05574 0.117546,-0.162984 0.149366,-0.307975 -0.0532,-0.178859 -0.288007,-0.433917 -1.139084,0.148518 -1.206606,0.825712 -3.68307,3.175143 -4.445423,5.524855 -0.761753,2.349394 -0.222109,6.540428 0.539926,8.668101 0.558942,1.559949 1.169,2.846777 1.517227,3.497051 z m -4.112613,0.225036 c 0.0058,-1.403101 -0.406787,-7.123075 0.781474,-7.144419 5.55e-4,-0.0044 0.0018,-0.0069 0.004,-0.0069 0.032,0 -0.698359,-0.412715 -1.015859,0.825463 -0.30413,1.185511 -0.60773,5.076685 0.230399,6.32587 v 0" />
      <path
         id="path838"
         style="fill:#a4bdc3;fill-opacity:1;fill-rule:evenodd;stroke:none;stroke-width:0.0352777"
         d="m 19.29839,30.26367 c -2.083294,-0.303848 -4.230828,-0.576969 -6.002302,0.180517 -1.607502,-1.210593 -1.124338,-2.336025 -1.013425,-4.600258 -3.4958049,3.514371 -0.204787,4.49252 0.01834,5.421593 0.315277,1.313535 -0.110808,4.595321 -0.381035,7.080745 -0.186584,1.716651 -0.04808,4.61645 -0.159597,5.674077 -0.08707,0.828886 0.449262,0.914611 0.671124,0.321381 0.295452,-0.789622 0.354577,-3.798146 0.631014,-4.912042 0.395499,-1.593287 1.793628,-3.046553 1.714253,-2.526348 -0.106786,0.699101 1.034626,1.928284 2.687884,2.563284 -0.06463,-0.428273 0.172509,-0.708449 1.269295,-0.497451 1.884327,0.362267 1.594414,0.21731 0.217311,-1.087015 -1.376786,-1.304573 -2.029001,-2.318808 -0.217311,-2.60904 1.811866,-0.289666 2.391586,0.0725 0.434763,-1.159616 -1.956647,-1.231969 -2.029142,-0.507116 0.942164,-0.941739 2.971341,-0.435187 2.463799,-0.507542 -1.449388,-1.377069 -2.254214,-0.500944 -0.901382,-1.122151 0.636905,-1.531019 v 0" />
      <path
         id="path840"
         style="fill:#b5d3d7;fill-opacity:1;fill-rule:evenodd;stroke:none;stroke-width:0.0352777"
         d="m 17.941431,38.904678 c 0.191699,-0.01929 0.450073,-0.0013 0.792515,0.06449 1.884327,0.362267 1.594414,0.21731 0.217311,-1.087015 -1.376786,-1.304573 -2.029001,-2.318808 -0.217311,-2.60904 1.811866,-0.289666 2.391586,0.0725 0.434763,-1.159616 -1.956647,-1.231969 -2.029142,-0.507116 0.942164,-0.941739 2.971341,-0.435187 2.4638,-0.507542 -1.449388,-1.377069 -1.587112,-0.352777 -1.386064,-0.765244 -0.591185,-1.121055 -2.347207,-0.125662 -4.284874,0.460269 -3.497192,4.274396 0.445664,2.157341 1.760044,3.42981 3.368323,3.956648 v 0" />
      <path
         id="path842"
         style="fill:#86a3ab;fill-opacity:1;fill-rule:evenodd;stroke:none;stroke-width:0.0352777"
         d="m 12.267388,44.616363 c 0.06255,-0.06382 0.119451,-0.155435 0.164112,-0.274638 0.295452,-0.789622 0.354577,-3.798146 0.631014,-4.912042 0.316371,-1.274657 1.274657,-2.459778 1.604574,-2.6162 -0.263489,-0.0496 -1.073079,-0.110913 -1.674601,1.527564 -0.619407,1.68783 -0.686822,4.957762 -0.725099,6.275316 v 0" />
      <path
         id="path844"
         style="fill:#7498a5;fill-opacity:1;fill-rule:evenodd;stroke:none;stroke-width:0.0352777"
         d="m 13.26589,30.421044 c -1.570954,-1.201915 -1.09347,-2.327381 -0.983227,-4.577115 -0.110243,0.110771 -0.213465,0.218721 -0.310479,0.324554 -0.400438,0.646642 -0.520735,1.717675 -0.399204,2.55524 0.196498,1.354598 1.59438,1.676366 1.69291,1.697321 v 0" />
      <path
         id="path846"
         style="fill:#e9e9e9;fill-opacity:1;fill-rule:evenodd;stroke:none;stroke-width:0.0352777"
         d="m 32.022943,21.948204 c -1.435241,-2.692048 -6.007558,-4.536723 -8.173861,-5.179131 -0.959097,-0.285043 1.671285,0.978958 1.775601,1.03364 2.801162,1.46826 3.734365,2.162175 5.345571,4.511675 0.383787,0.559152 0.636376,-0.08079 1.052689,-0.366184 v 0" />
      <path
         id="path848"
         style="fill:#d3d2d2;fill-opacity:1;fill-rule:evenodd;stroke:none;stroke-width:0.0352777"
         d="m 31.641484,21.346365 c -0.182174,-0.24765 -0.389572,-0.487186 -0.617502,-0.718257 -0.361738,0.124884 -0.69977,0.24765 -1.046197,0.349605 0.12954,0.156985 0.260173,0.322791 0.393558,0.499885 0.01902,-0.0019 0.03764,-0.0024 0.05581,-0.0024 0.261549,0 0.866669,-0.0762 1.214331,-0.128765 z m -1.296881,-1.335969 c -0.2286,-0.188383 -0.469336,-0.370065 -0.718785,-0.544338 -0.195403,0.08855 -0.507929,0.20038 -0.832308,0.303742 0.227894,0.191913 0.443865,0.3937 0.655249,0.612775 0.02783,-0.0024 0.05482,-0.0042 0.08117,-0.0042 0.08378,0 0.481753,-0.172509 0.81467,-0.367946 z M 28.581949,18.800721 C 28.357335,18.66984 28.129688,18.54425 27.901088,18.4236 c -0.129823,0.09772 -0.306776,0.248356 -0.4826,0.375005 0.18796,0.1143 0.365195,0.227541 0.533999,0.340783 0.19431,-0.09948 0.439597,-0.23354 0.629462,-0.338667 z m -1.548906,-0.809273 c -0.212196,-0.09948 -0.42291,-0.194381 -0.630873,-0.28434 -0.08488,0.05433 -0.148801,0.101248 -0.162595,0.128765 0,0.02011 -0.09052,0.09807 -0.204787,0.183444 0.220627,0.117475 0.428977,0.231071 0.626744,0.340431 0.118252,-0.115358 0.255059,-0.255058 0.371511,-0.3683 z m -1.839525,-0.770467 c -0.258268,-0.09631 -0.504648,-0.182739 -0.73533,-0.259998 -0.05637,0.05398 -0.114229,0.110773 -0.172825,0.17004 0.220627,0.11571 0.467712,0.240242 0.689045,0.35066 0.06752,-0.116416 0.14344,-0.213077 0.21911,-0.260702 v 0" />
      <path
         id="path850"
         style="fill:#ffffff;fill-opacity:1;fill-rule:evenodd;stroke:none;stroke-width:0.0352777"
         d="m 34.397983,23.379775 c -0.646711,0 -1.17108,0.524229 -1.17108,1.170871 0,0.646642 0.524369,1.170869 1.17108,1.170869 0.64643,0 1.170906,-0.524227 1.170906,-1.170869 0,-0.646642 -0.524476,-1.170871 -1.170906,-1.170871 v 0" />
      <path
         id="path852"
         style="fill:#99def9;fill-opacity:1;fill-rule:evenodd;stroke:none;stroke-width:0.0352777"
         d="m 34.388035,23.791467 c -0.417124,0 -0.755439,0.338314 -0.755439,0.755298 0,0.417335 0.338315,0.75565 0.755439,0.75565 0.4173,0 0.755581,-0.338315 0.755581,-0.75565 0,-0.416984 -0.338281,-0.755298 -0.755581,-0.755298 v 0" />
      <path
         id="path854"
         style="fill:#231f20;fill-opacity:1;fill-rule:evenodd;stroke:none;stroke-width:0.0352777"
         d="m 34.431604,24.06734 c -0.224227,0 -0.406117,0.182033 -0.406117,0.405693 0,0.224367 0.18189,0.406048 0.406117,0.406048 0.224049,0 0.405976,-0.181681 0.405976,-0.406048 0,-0.22366 -0.181927,-0.405693 -0.405976,-0.405693 v 0" />
      <path
         id="path856"
         style="fill:#ffffff;fill-opacity:1;fill-rule:evenodd;stroke:none;stroke-width:0.0352777"
         d="m 34.659674,24.584158 c -0.07648,0 -0.138501,0.06209 -0.138501,0.13829 0,0.07655 0.06202,0.138642 0.138501,0.138642 0.0762,0 0.138465,-0.06209 0.138465,-0.138642 0,-0.0762 -0.06226,-0.13829 -0.138465,-0.13829 v 0" />
      <path
         id="path858"
         style="fill:#ffffff;fill-opacity:1;fill-rule:evenodd;stroke:none;stroke-width:0.0352777"
         d="m 34.483004,24.281475 c -0.05264,0 -0.09522,0.04269 -0.09522,0.0956 0,0.05256 0.04258,0.0949 0.09522,0.0949 0.05249,0 0.09536,-0.04233 0.09536,-0.0949 0,-0.05292 -0.04286,-0.0956 -0.09536,-0.0956 v 0" />
      <path
         id="path860"
         style="fill:#ffffff;fill-opacity:1;fill-rule:evenodd;stroke:none;stroke-width:0.0352777"
         d="m 36.035367,23.866963 c -0.340643,0 -0.616939,0.276225 -0.616939,0.616654 0,0.340783 0.276296,0.617362 0.616939,0.617362 0.340501,0 0.617078,-0.276579 0.617078,-0.617362 0,-0.340429 -0.276577,-0.616654 -0.617078,-0.616654 v 0" />
      <path
         id="path862"
         style="fill:#99def9;fill-opacity:1;fill-rule:evenodd;stroke:none;stroke-width:0.0352777"
         d="m 36.03025,24.083567 c -0.219778,0 -0.398108,0.178506 -0.398108,0.397933 0,0.220133 0.17833,0.398288 0.398108,0.398288 0.219816,0 0.398005,-0.178155 0.398005,-0.398288 0,-0.219427 -0.178189,-0.397933 -0.398005,-0.397933 v 0" />
      <path
         id="path864"
         style="fill:#231f20;fill-opacity:1;fill-rule:evenodd;stroke:none;stroke-width:0.0352777"
         d="m 36.053147,24.229265 c -0.118252,0 -0.214032,0.0956 -0.214032,0.213431 0,0.118533 0.09578,0.214135 0.214032,0.214135 0.117933,0 0.213712,-0.0956 0.213712,-0.214135 0,-0.117829 -0.09578,-0.213431 -0.213712,-0.213431 v 0" />
      <path
         id="path866"
         style="fill:#ffffff;fill-opacity:1;fill-rule:evenodd;stroke:none;stroke-width:0.0352777"
         d="m 36.173162,24.501256 c -0.04025,0 -0.07274,0.03281 -0.07274,0.07302 0,0.04022 0.03249,0.07267 0.07274,0.07267 0.04039,0 0.07303,-0.03246 0.07303,-0.07267 0,-0.04022 -0.03263,-0.07302 -0.07303,-0.07302 v 0" />
      <path
         id="path868"
         style="fill:#ffffff;fill-opacity:1;fill-rule:evenodd;stroke:none;stroke-width:0.0352777"
         d="m 36.080135,24.3418 c -0.02769,0 -0.05016,0.02257 -0.05016,0.05045 0,0.02752 0.02246,0.05045 0.05016,0.05045 0.02769,0 0.05016,-0.02294 0.05016,-0.05045 0,-0.02787 -0.02246,-0.05045 -0.05016,-0.05045 v 0" />
      <path
         id="path872"
         style="fill:#edf1f1;fill-opacity:1;fill-rule:evenodd;stroke:none;stroke-width:0.0352777"
         d="m 34.151709,21.626823 c 1.233911,-1.051631 1.339744,-1.056217 1.49987,-1.128535 0.635566,-0.286105 -0.171837,1.946275 -2.260812,2.145241 -0.118779,0.0113 -1.072267,0.08184 -1.136331,0.02716 0,0 -0.384599,-0.3302 -0.444289,-0.325967 0.367242,-0.02787 1.93795,-0.373592 2.341562,-0.717902 v 0" />
      <path
         id="path874"
         style="fill:#edf1f1;fill-opacity:1;fill-rule:evenodd;stroke:none;stroke-width:0.0352777"
         d="m 27.070931,21.253231 c 0.401708,1.002948 2.555734,1.527175 3.460961,1.549048 0.50726,0.01236 1.871769,-0.660048 1.352127,-0.644525 -1.92345,0.05715 -5.787884,-3.338337 -4.813088,-0.904523 v 0" />
      <path
         id="path876"
         style="fill:#a9b8c4;fill-opacity:1;fill-rule:evenodd;stroke:none;stroke-width:0.0352777"
         d="m 27.070931,21.253231 c 0.366289,0.914752 2.190115,1.430867 3.195002,1.531409 l 0.328789,-0.07549 c 0.107915,0 0.358846,-0.215548 0.394829,-0.215548 -0.01517,-0.5588 -2.751666,-1.460148 -3.943138,-2.093383 -0.170462,0.07655 -0.184926,0.329848 0.02452,0.853016 z m 8.764904,-0.446616 c -0.130773,0.478366 -0.733002,1.34126 -1.774788,1.694039 -0.934298,-0.01765 0.206163,-0.673454 0.920115,-1.228725 0.372496,-0.289631 0.662834,-0.435681 0.854673,-0.465314 v 0" />
      <path
         id="path878"
         style="fill:#231f20;fill-opacity:1;fill-rule:evenodd;stroke:none;stroke-width:0.0352777"
         d="m 25.261851,45.028406 0.823807,0.320641 0.295592,0.341064 -0.674687,-0.114652 0.578767,0.365477 -0.82049,0.225991 -0.744679,-0.553014 0.54169,-0.585507 v 0" />
      <path
         id="path880"
         style="fill:#231f20;fill-opacity:1;fill-rule:evenodd;stroke:none;stroke-width:0.0352777"
         d="m 29.384412,44.737894 0.823772,0.320675 0.295592,0.34149 -0.674687,-0.115076 0.578485,0.36544 -0.820068,0.226166 -0.744819,-0.553014 0.541725,-0.585681 v 0" />
      <path
         id="path882"
         style="fill:#231f20;fill-opacity:1;fill-rule:evenodd;stroke:none;stroke-width:0.0352777"
         d="m 17.478163,44.688718 0.703192,0.490855 0.197908,0.335526 -0.611187,-0.298344 0.460127,0.443759 -0.830685,-0.105444 -0.572276,-0.629073 0.652921,-0.237279 v 0" />
      <path
         id="path884"
         style="fill:#231f20;fill-opacity:1;fill-rule:evenodd;stroke:none;stroke-width:0.0352777"
         d="m 12.409028,44.549794 0.404883,0.756285 0.0248,0.388442 -0.410104,-0.542536 0.209585,0.604025 -0.692997,-0.470074 -0.225883,-0.819928 0.689716,0.08379 v 0" />
      <path
         id="path870"
         style="fill:#393536;fill-opacity:1;fill-rule:evenodd;stroke:none;stroke-width:0.0352777"
         d="m 39.307239,27.014798 c -0.04382,-0.01376 -0.345051,-0.09207 -0.345051,-0.04586 0,0.137583 0.345051,0.229658 0.482987,0.229658 0.115077,0 0.230012,0 0.345053,0 0.04604,0 0.02289,0.367946 0.02289,0.437092 0,0.160866 0.01019,0.394864 0.046,0.551989 0.102129,0.4469 0.116591,0.118076 0.138218,-0.08131 0.03281,-0.298521 -0.135572,-0.883073 0.03433,-0.9882 0.535376,-0.330907 0.42238,-0.44803 0.31115,-0.413809 -0.130633,0.04022 -0.254919,0.553154 -1.03558,0.310444 v 0" />
    </g>
  </g>
</svg>
