<?xml version="1.0" encoding="UTF-8" standalone="no"?>
<svg
   xmlns:dc="http://purl.org/dc/elements/1.1/"
   xmlns:cc="http://creativecommons.org/ns#"
   xmlns:rdf="http://www.w3.org/1999/02/22-rdf-syntax-ns#"
   xmlns:svg="http://www.w3.org/2000/svg"
   xmlns="http://www.w3.org/2000/svg"
   xmlns:sodipodi="http://sodipodi.sourceforge.net/DTD/sodipodi-0.dtd"
   xmlns:inkscape="http://www.inkscape.org/namespaces/inkscape"
   width="200"
   height="200"
   viewBox="0 0 52.916666 52.916668"
   version="1.1"
   id="svg3023"
   sodipodi:docname="7.svg"
   inkscape:version="1.0.2-2 (e86c870879, 2021-01-15)">
  <defs
     id="defs3017" />
  <sodipodi:namedview
     id="base"
     pagecolor="#ffffff"
     bordercolor="#666666"
     borderopacity="1.0"
     inkscape:pageopacity="0.0"
     inkscape:pageshadow="2"
     inkscape:zoom="2.8"
     inkscape:cx="124.64704"
     inkscape:cy="150.78662"
     inkscape:document-units="mm"
     inkscape:current-layer="layer1"
     inkscape:document-rotation="0"
     showgrid="false"
     units="px"
     inkscape:window-width="1920"
     inkscape:window-height="1017"
     inkscape:window-x="-8"
     inkscape:window-y="-8"
     inkscape:window-maximized="1" />
  <metadata
     id="metadata3020">
    <rdf:RDF>
      <cc:Work
         rdf:about="">
        <dc:format>image/svg+xml</dc:format>
        <dc:type
           rdf:resource="http://purl.org/dc/dcmitype/StillImage" />
        <dc:title></dc:title>
      </cc:Work>
    </rdf:RDF>
  </metadata>
  <g
     inkscape:label="Layer 1"
     inkscape:groupmode="layer"
     id="layer1">
    <g
       id="g5392"
       transform="matrix(1.4698544,0,0,1.4698544,9.3566282,-33.55448)">
      <path
         id="path914"
         style="fill:#794aa1;fill-opacity:1;fill-rule:evenodd;stroke:none;stroke-width:0.0352777"
         d="m 13.139709,49.768551 c 0,1.944405 -0.122767,4.903047 0.121354,7.00772 0.06703,0.577427 1.936398,0.210714 2.308931,0.445381 2.556579,1.612053 -3.124552,1.285732 -2.916415,0.810294 0.533755,-1.218599 -0.392641,-5.007784 -0.32385,-7.323595 0.02363,-0.804333 0.972257,-0.9398 0.80998,-0.9398 v 0" />
      <path
         id="path916"
         style="fill:#794aa1;fill-opacity:1;fill-rule:evenodd;stroke:none;stroke-width:0.0352777"
         d="m 5.8738962,50.13484 c -0.017648,1.045245 0.2554129,7.296714 -0.4452038,7.285003 -0.3242045,-0.0055 -1.4859,-0.05211 -2.1089064,0.126752 -3.16935642,0.909531 3.0599935,1.852083 2.9026564,0.858379 -0.3552481,-2.241655 0.4078102,-5.054211 0.4455583,-7.316681 0.013414,-0.80504 -0.9560295,-0.956204 -0.7941045,-0.953453 v 0" />
      <path
         id="path918"
         style="fill:#532f73;fill-opacity:1;fill-rule:evenodd;stroke:none;stroke-width:0.0352777"
         d="m 9.7798526,47.948853 c 0,0.979098 0.3531314,6.831613 -0.3037417,6.831613 -0.3033898,0 -1.3924147,-0.02548 -1.9734397,0.152011 -2.9548667,0.901242 2.8952478,1.687407 2.7326168,0.758859 -0.3675938,-2.094616 0.30339,-4.741545 0.30339,-6.861915 0,-0.754063 -0.910519,-0.880568 -0.7588254,-0.880568 v 0" />
      <path
         id="path920"
         style="fill:#532f73;fill-opacity:1;fill-rule:evenodd;stroke:none;stroke-width:0.0352777"
         d="m 16.438179,47.385925 c 0,1.26986 -0.385585,7.291459 0.324205,7.291459 0.32385,0 1.486252,-0.02713 2.106435,0.161925 3.153127,0.962025 -3.090333,1.800823 -2.916415,0.810435 0.391938,-2.23587 -0.32385,-5.060561 -0.32385,-7.323736 0,-0.805039 0.97155,-0.940083 0.809625,-0.940083 v 0" />
      <path
         id="path922"
         style="fill:#c1afda;fill-opacity:1;fill-rule:evenodd;stroke:none;stroke-width:0.0352777"
         d="M 5.5662757,51.181709 C 3.1264629,52.92108 0.69970458,48.95233 3.4792424,47.255679 0.76637958,46.715082 -1.1005204,42.235229 4.027811,41.349438 5.5186507,40.885007 1.9880508,37.223703 7.4014257,37.406795 6.6253128,35.76532 9.3141859,34.765547 10.085359,36.479343 c 0.420862,-1.747309 3.82552,-1.920171 3.281537,0.307268 1.056571,-1.709208 2.948871,-1.609373 3.142546,0.559152 1.277409,-1.024466 4.200877,0.426863 2.37631,2.619375 2.306813,-0.853016 4.550834,2.384319 1.574446,4.469696 4.975225,2.666259 -0.85866,4.133427 -0.548921,5.018829 0.8128,2.322263 -3.526718,2.351333 -3.939468,1.666732 -2.719565,-2.320184 -1.391005,3.717538 -5.185481,-0.778156 -0.9704921,0.716137 -0.724252,1.737958 -2.1607652,2.449018 -1.4767269,0.731062 -2.0140083,-1.815148 -3.0592871,-1.609548 v 0" />
      <path
         id="path924"
         style="fill:#cbb8dd;fill-opacity:1;fill-rule:evenodd;stroke:none;stroke-width:0.0352777"
         d="m 14.519069,40.202205 c -0.663927,0.514704 -0.282223,1.460712 0.614185,1.643311 0.896057,0.182597 1.39418,-0.06657 1.510242,-0.813329 0.20814,-1.338334 -1.283404,-1.481915 -2.124427,-0.829982 v 0" />
      <path
         id="path926"
         style="fill:#cbb8dd;fill-opacity:1;fill-rule:evenodd;stroke:none;stroke-width:0.0352777"
         d="m 16.120327,37.901036 c -0.860776,0.667457 -0.365831,1.894417 0.796574,2.131484 1.162401,0.236537 1.808337,-0.08643 1.958972,-1.055159 0.269875,-1.735666 -1.664756,-1.921581 -2.755546,-1.076325 v 0" />
      <path
         id="path928"
         style="fill:#cbb8dd;fill-opacity:1;fill-rule:evenodd;stroke:none;stroke-width:0.0352777"
         d="m 17.458413,40.829479 c -1.177925,0.912672 -0.500592,2.591401 1.089731,2.915391 1.589969,0.32385 2.473325,-0.117967 2.679346,-1.443212 0.369358,-2.374265 -2.277179,-2.628265 -3.769077,-1.472179 v 0" />
      <path
         id="path930"
         style="fill:#cbb8dd;fill-opacity:1;fill-rule:evenodd;stroke:none;stroke-width:0.0352777"
         d="m 17.391386,45.081158 c -1.161698,0.900536 -0.49389,2.556262 1.074912,2.87595 1.568804,0.319722 2.440165,-0.116171 2.643365,-1.423493 0.364418,-2.342409 -2.24649,-2.592776 -3.718277,-1.452457 v 0" />
      <path
         id="path932"
         style="fill:#cbb8dd;fill-opacity:1;fill-rule:evenodd;stroke:none;stroke-width:0.0352777"
         d="m 13.988844,36.491688 c -0.663927,0.514705 -0.282223,1.460855 0.614185,1.643592 0.896409,0.182388 1.39418,-0.06668 1.510597,-0.813504 0.208137,-1.33844 -1.283759,-1.481667 -2.124782,-0.830088 v 0" />
      <path
         id="path934"
         style="fill:#baa0d5;fill-opacity:1;fill-rule:evenodd;stroke:none;stroke-width:0.0352777"
         d="M 5.5662757,51.181709 C 3.1264629,52.92108 0.69970458,48.95233 3.4792424,47.255679 1.6603193,46.893271 0.22239625,44.76006 1.0168527,43.126803 c -0.0977186,0.822291 0.1767416,2.111447 1.7473083,2.620365 2.0905602,0.677296 2.1201935,1.030745 1.825625,1.531265 -0.2942167,0.500629 -1.7077981,1.884892 -0.5891398,2.591401 1.1190129,0.706509 1.7670648,-0.117827 2.4147647,0.500626 0.6480519,0.618349 2.3854833,0.795126 2.886075,0.05884 0.5005917,-0.736282 1.1486431,-1.678445 2.0320001,-0.912953 0.883356,0.765916 1.501423,1.708079 2.179108,1.00143 0.676982,-0.70693 0.235302,-1.619885 1.88454,-0.647946 4.610097,2.71653 4.372327,-0.491279 3.830106,-1.427374 1.759656,0.483129 3.109737,-1.689066 2.314575,-3.32412 2.902304,2.238905 -1.912761,3.528907 -1.630538,4.335323 0.8128,2.322263 -3.526718,2.351333 -3.939468,1.666732 -2.719565,-2.320184 -1.391005,3.717538 -5.185481,-0.778156 -0.9704921,0.716137 -0.724252,1.737958 -2.1607652,2.449018 -1.4767269,0.731062 -2.0140083,-1.815148 -3.0592871,-1.609548 v 0" />
      <path
         id="path936"
         style="fill:#baa0d3;fill-opacity:1;fill-rule:evenodd;stroke:none;stroke-width:0.0352777"
         d="m 10.806084,50.365239 -0.01976,-0.02299 c -0.579615,0.427461 -0.725311,0.963507 -1.0541004,1.477785 -0.3425481,-0.490855 -0.5732647,-1.123103 -0.6074833,-1.361088 -0.058915,-0.412289 0.1767417,-2.532554 0.088548,-3.32768 -0.088548,-0.794986 0.32385,-1.737291 0.3531288,-2.296761 0.029633,-0.559787 0.3242045,-1.472459 0.5302249,-2.356061 0.206023,-0.88332 0.05891,-0.441643 0.206023,-1.383948 0.147461,-0.942375 0.58914,-1.737183 0.6477,-1.737183 0.05927,0 0.618773,-0.05927 0.824794,0.146756 0.206023,0.206727 0.206023,0.177094 0.206023,0.177094 0,0 0.618418,-0.117827 1.56069,0.353131 0.942268,0.471099 0.20602,1.325208 0.20602,1.325208 0,0 0.677333,0.02963 1.089732,1.059993 0.412043,1.030745 -0.324202,2.26755 -1.413227,2.827019 -1.090084,0.559507 -1.325388,1.001149 -1.796346,2.414728 -0.329494,0.988343 -0.730954,1.932977 -0.821971,2.704007 v 0" />
      <path
         id="path938"
         style="fill:#a586c7;fill-opacity:1;fill-rule:evenodd;stroke:none;stroke-width:0.0352777"
         d="m 10.806084,50.365239 -0.01976,-0.02299 C 10.206709,50.76971 10.061013,51.305756 9.7322236,51.820034 9.4415339,51.403863 9.231632,50.885878 9.1536672,50.592897 c 0.056798,-0.04851 0.1065398,-0.102942 0.1478148,-0.163584 0.4462647,-0.655918 1.008592,-1.475597 1.75119,-1.1049 -0.117475,0.37084 -0.208846,0.720868 -0.246592,1.040836 v 0" />
      <path
         id="path940"
         style="fill:#5a5371;fill-opacity:1;fill-rule:evenodd;stroke:none;stroke-width:0.0352777"
         d="m 6.7851212,51.804607 c 0.904875,3.176376 5.3622228,1.001538 3.4215918,-0.604694 -0.521404,-0.190712 0.543631,-4.92305 1.867254,-5.831171 2.610202,-1.790348 -3.3789061,-2.723269 -4.8764477,-1.75246 -2.0792731,1.347719 -0.8904103,6.511256 -0.4123981,8.188325 v 0" />
      <path
         id="path942"
         style="fill:#6d6283;fill-opacity:1;fill-rule:evenodd;stroke:none;stroke-width:0.0352777"
         d="m 6.6327212,46.111658 c 0,0 -0.5630334,1.656397 0.1322916,3.975205 0.6960315,2.319232 1.5243546,2.650242 2.1537083,2.451524 0.6293565,-0.198686 1.7003899,-5.941378 1.6231319,-6.360303 -0.231775,-1.259274 -2.2196773,-0.398002 -2.5509356,-0.430916 -0.3309065,-0.03323 -1.3581962,0.36449 -1.3581962,0.36449 v 0" />
      <path
         id="path944"
         style="fill:#ffffff;fill-opacity:1;fill-rule:evenodd;stroke:none;stroke-width:0.0352777"
         d="m 7.3954276,45.280265 c 0.4878917,0 0.8833564,0.3955 0.8833564,0.883074 0,0.48782 -0.3954647,0.883319 -0.8833564,0.883319 -0.4875398,0 -0.8830019,-0.395499 -0.8830019,-0.883319 0,-0.487574 0.3954621,-0.883074 0.8830019,-0.883074 v 0" />
      <path
         id="path946"
         style="fill:none;stroke:#ffffff;stroke-width:0.0762;stroke-linecap:butt;stroke-linejoin:miter;stroke-miterlimit:2.6131;stroke-dasharray:none;stroke-opacity:1"
         d="m 7.3954276,45.280265 c 0.4878917,0 0.8833564,0.3955 0.8833564,0.883074 0,0.48782 -0.3954647,0.883319 -0.8833564,0.883319 -0.4875398,0 -0.8830019,-0.395499 -0.8830019,-0.883319 0,-0.487574 0.3954621,-0.883074 0.8830019,-0.883074 z" />
      <path
         id="path948"
         style="fill:#99def9;fill-opacity:1;fill-rule:evenodd;stroke:none;stroke-width:0.0352777"
         d="m 7.4028359,45.590603 c 0.3150315,0 0.5700898,0.255095 0.5700898,0.56995 0,0.314465 -0.2550583,0.569841 -0.5700898,0.569841 -0.3146769,0 -0.5697352,-0.255376 -0.5697352,-0.569841 0,-0.314855 0.2550583,-0.56995 0.5697352,-0.56995 v 0" />
      <path
         id="path950"
         style="fill:none;stroke:#ffffff;stroke-width:0.0762;stroke-linecap:butt;stroke-linejoin:miter;stroke-miterlimit:2.6131;stroke-dasharray:none;stroke-opacity:1"
         d="m 7.4028359,45.590603 c 0.3150315,0 0.5700898,0.255095 0.5700898,0.56995 0,0.314465 -0.2550583,0.569841 -0.5700898,0.569841 -0.3146769,0 -0.5697352,-0.255376 -0.5697352,-0.569841 0,-0.314855 0.2550583,-0.56995 0.5697352,-0.56995 z" />
      <path
         id="path952"
         style="fill:#231f20;fill-opacity:1;fill-rule:evenodd;stroke:none;stroke-width:0.0352777"
         d="m 7.3700276,45.798849 c 0.1693333,0 0.3065648,0.136948 0.3065648,0.306176 0,0.169087 -0.1372315,0.306353 -0.3065648,0.306353 -0.1686269,0 -0.3058583,-0.137266 -0.3058583,-0.306353 0,-0.169228 0.1372314,-0.306176 0.3058583,-0.306176 v 0" />
      <path
         id="path954"
         style="fill:#ffffff;fill-opacity:1;fill-rule:evenodd;stroke:none;stroke-width:0.0352777"
         d="m 7.1982257,46.188667 c 0.057854,0 0.1044205,0.0466 0.1044205,0.104458 0,0.05747 -0.046567,0.104317 -0.1044205,0.104317 -0.057505,0 -0.1044231,-0.04685 -0.1044231,-0.104317 0,-0.05785 0.046919,-0.104458 0.1044231,-0.104458 v 0" />
      <path
         id="path956"
         style="fill:#ffffff;fill-opacity:1;fill-rule:evenodd;stroke:none;stroke-width:0.0352777"
         d="m 7.3315757,45.960739 c 0.03951,0 0.071612,0.032 0.071612,0.07168 0,0.03955 -0.032102,0.07193 -0.071612,0.07193 -0.039865,0 -0.071967,-0.03238 -0.071967,-0.07193 0,-0.03969 0.032102,-0.07168 0.071967,-0.07168 v 0" />
      <path
         id="path958"
         style="fill:#ffffff;fill-opacity:1;fill-rule:evenodd;stroke:none;stroke-width:0.0352777"
         d="m 9.5008045,44.786519 c 0.7203735,0 1.3049245,0.584446 1.3049245,1.304464 0,0.720302 -0.584551,1.304573 -1.3049245,1.304573 -0.7200186,0 -1.3042186,-0.584271 -1.3042186,-1.304573 0,-0.720018 0.5842,-1.304464 1.3042186,-1.304464 v 0" />
      <path
         id="path960"
         style="fill:none;stroke:#ffffff;stroke-width:0.0762;stroke-linecap:butt;stroke-linejoin:miter;stroke-miterlimit:2.6131;stroke-dasharray:none;stroke-opacity:1"
         d="m 9.5008045,44.786519 c 0.7203735,0 1.3049245,0.584446 1.3049245,1.304464 0,0.720302 -0.584551,1.304573 -1.3049245,1.304573 -0.7200186,0 -1.3042186,-0.584271 -1.3042186,-1.304573 0,-0.720018 0.5842,-1.304464 1.3042186,-1.304464 z" />
      <path
         id="path962"
         style="fill:#99def9;fill-opacity:1;fill-rule:evenodd;stroke:none;stroke-width:0.0352777"
         d="m 9.5120942,45.245129 c 0.4646084,0 0.8413748,0.376483 0.8413748,0.841727 0,0.464396 -0.3767664,0.841129 -0.8413748,0.841129 -0.4649602,0 -0.8417268,-0.376733 -0.8417268,-0.841129 0,-0.465244 0.3767666,-0.841727 0.8417268,-0.841727 v 0" />
      <path
         id="path964"
         style="fill:none;stroke:#ffffff;stroke-width:0.0762;stroke-linecap:butt;stroke-linejoin:miter;stroke-miterlimit:2.6131;stroke-dasharray:none;stroke-opacity:1"
         d="m 9.5120942,45.245129 c 0.4646084,0 0.8413748,0.376483 0.8413748,0.841727 0,0.464396 -0.3767664,0.841129 -0.8413748,0.841129 -0.4649602,0 -0.8417268,-0.376733 -0.8417268,-0.841129 0,-0.465244 0.3767666,-0.841727 0.8417268,-0.841727 z" />
      <path
         id="path966"
         style="fill:#231f20;fill-opacity:1;fill-rule:evenodd;stroke:none;stroke-width:0.0352777"
         d="m 9.4637628,45.552434 c 0.2494148,0 0.4519083,0.202565 0.4519083,0.452401 0,0.249698 -0.2024935,0.452014 -0.4519083,0.452014 -0.2497667,0 -0.4522602,-0.202316 -0.4522602,-0.452014 0,-0.249836 0.2024935,-0.452401 0.4522602,-0.452401 v 0" />
      <path
         id="path968"
         style="fill:#ffffff;fill-opacity:1;fill-rule:evenodd;stroke:none;stroke-width:0.0352777"
         d="m 9.2097628,46.128168 c 0.085021,0 0.1541648,0.06918 0.1541648,0.154339 0,0.08506 -0.069144,0.154339 -0.1541648,0.154339 -0.08537,0 -0.1541621,-0.06928 -0.1541621,-0.154339 0,-0.08516 0.068792,-0.154339 0.1541621,-0.154339 v 0" />
      <path
         id="path970"
         style="fill:#ffffff;fill-opacity:1;fill-rule:evenodd;stroke:none;stroke-width:0.0352777"
         d="m 9.4066128,45.791263 c 0.058563,0 0.1054814,0.04752 0.1054814,0.106082 0,0.05859 -0.046919,0.106114 -0.1054814,0.106114 -0.058912,0 -0.1061852,-0.04752 -0.1061852,-0.106114 0,-0.05856 0.047273,-0.106082 0.1061852,-0.106082 v 0" />
      <path
         id="path972"
         style="fill:#231f20;fill-opacity:1;fill-rule:evenodd;stroke:none;stroke-width:0.0352777"
         d="m 7.8254628,52.301389 0.9987148,0.189055 0.7503583,-0.901525 -0.4155731,1.009438 0.2264833,0.707321 -0.485775,-0.545396 c 0,0 -1.2167287,-0.485351 -1.0742083,-0.458893 v 0" />
      <path
         id="path974"
         style="fill:#5a5371;fill-opacity:1;fill-rule:evenodd;stroke:none;stroke-width:0.0352777"
         d="m 2.2445193,44.602966 c -0.073731,0.354579 -0.088194,0.979102 0.1125353,1.306373 0.3552481,0.578519 0.9641416,-0.05719 1.1218333,-0.525709 0.2850462,-0.848185 3.5895147,-1.809787 2.9643916,-2.187646 -1.2371916,-0.749372 -3.8667954,-0.1881 -4.1987602,1.406982 v 0" />
      <path
         id="path976"
         style="fill:#5a5371;fill-opacity:1;fill-rule:evenodd;stroke:none;stroke-width:0.0352777"
         d="m 15.829992,44.733459 c 0.0448,0.35941 0.0092,0.983369 -0.217313,1.293426 -0.400753,0.547793 -0.956733,-0.135186 -1.07597,-0.614611 -0.2159,-0.868574 -3.431823,-2.093206 -2.77848,-2.419808 1.293638,-0.646993 3.869267,0.124283 4.071763,1.740993 v 0" />
      <path
         id="path978"
         style="fill:#3e3855;fill-opacity:1;fill-rule:evenodd;stroke:none;stroke-width:0.0352777"
         d="m 15.547769,46.103366 c -0.3937,0.39924 -0.897818,-0.23675 -1.01106,-0.691092 -0.192617,-0.77484 -2.77354,-1.833174 -2.863146,-2.284481 0.307975,-0.128588 1.699331,-0.06273 2.648656,0.887023 0.756002,0.755579 0.962377,1.604468 1.22555,2.08855 z m -12.6957663,0.0086 c 0.269875,-0.09924 0.5312833,-0.444428 0.6268852,-0.728308 0.1975564,-0.586777 1.838325,-1.227137 2.625373,-1.691957 -0.016589,-0.02371 -0.034925,-0.04505 -0.056092,-0.06392 -0.2236602,-0.203978 -0.6928564,-0.631862 -0.6928564,-0.631862 -0.1425205,0 -1.8746603,0.0816 -2.4249936,0.998681 -0.3728852,0.620818 -0.4367397,1.615757 -0.078317,2.11737 v 0" />
      <path
         id="path980"
         style="fill:#c6b7dd;fill-opacity:1;fill-rule:evenodd;stroke:none;stroke-width:0.0352777"
         d="M 6.4933757,44.489021 C 5.3807129,45.873919 4.5552129,44.130315 5.650236,43.306228 4.7340712,43.173264 4.1964379,41.381543 6.0322943,41.455272 5.7437212,41.042522 5.9356341,39.426447 7.808884,40.46446 c -0.09878,-1.52908 1.8305621,-0.728274 2.0633955,-0.555059 0.6826245,-1.353608 2.0319995,-0.692856 1.7483665,0.555059 0.850548,-1.21793 2.751315,0.359939 1.49719,1.208511 0.960967,-0.233961 1.3208,0.900573 0.904875,1.81543 -1.059392,2.329709 -3.0861,1.321964 -2.972152,1.093894 0.40922,-0.820632 -1.6721667,1.239977 -2.3519712,-0.537845 0.042333,0.17473 -1.0100019,1.171328 -1.0974916,1.192847 C 6.703984,45.733232 6.8637924,44.491349 6.4933757,44.489021 v 0" />
      <path
         id="path982"
         style="fill:#ddd5e8;fill-opacity:1;fill-rule:evenodd;stroke:none;stroke-width:0.0352777"
         d="m 5.1471757,41.638117 c 0.1954372,-0.125658 0.4833038,-0.199107 0.8851186,-0.182845 -0.097367,-0.138923 -0.1397,-0.414267 -0.081844,-0.67885 0.2091955,-0.08061 0.5178769,-0.153916 0.9539102,-0.2056 0.8558398,-0.101952 1.3042186,0.427885 1.3042186,0.427885 0,0 -0.1629833,-0.794737 0.5298731,-0.977829 0.6928564,-0.183798 1.3652508,0.549944 1.3652508,0.549944 0,0 0.244826,-0.611679 0.89676,-0.468804 0.652288,0.14252 0.38735,0.978429 0.38735,0.978429 0,0 0.04057,-0.08174 0.38735,-0.387387 0.346075,-0.305927 0.937331,-0.346427 1.160991,0.20366 0.224367,0.550122 -0.407458,1.039458 0.04128,1.059744 0.44803,0.0204 0.570442,0.59115 0.04057,2.017429 -0.529873,1.42667 -1.630188,0.611436 -1.467205,0.244618 0.162983,-0.366996 -0.448733,-1.243012 -0.835377,-0.305541 -0.38735,0.937366 -1.2636502,0.509482 -1.6100771,0.04068 C 8.7589128,43.48512 8.2491507,42.812478 8.1884711,43.729561 8.1270878,44.646395 7.4956174,44.687459 7.1082674,44.340854 6.7209174,43.994568 7.0063128,43.464449 6.6394257,43.851515 6.2725359,44.2389 5.7222026,44.055596 6.0280609,43.56626 6.3339193,43.077485 6.3949507,43.281145 5.539111,42.751306 4.9146943,42.365052 4.8974091,41.957133 5.1471757,41.638117 v 0" />
      <path
         id="path984"
         style="fill:#cbb8dd;fill-opacity:1;fill-rule:evenodd;stroke:none;stroke-width:0.0352777"
         d="m 10.896746,35.785076 c -0.663927,0.51435 -0.28222,1.4605 0.61454,1.643592 0.896408,0.182385 1.393825,-0.06668 1.510593,-0.813507 0.20814,-1.338439 -1.28411,-1.481666 -2.125133,-0.830085 v 0" />
      <path
         id="path986"
         style="fill:#cbb8dd;fill-opacity:1;fill-rule:evenodd;stroke:none;stroke-width:0.0352777"
         d="m 7.7848943,36.121272 c -0.6244167,0.484364 -0.2652898,1.374423 0.57785,1.545873 0.8431397,0.172156 1.3112749,-0.06209 1.4206352,-0.764823 0.1961462,-1.259063 -1.2075584,-1.393825 -1.9984852,-0.78105 v 0" />
      <path
         id="path988"
         style="fill:#cbb8dd;fill-opacity:1;fill-rule:evenodd;stroke:none;stroke-width:0.0352777"
         d="m 10.059253,37.367636 c -0.2300107,0.178152 -0.097719,0.505884 0.212725,0.569384 0.310798,0.06315 0.483306,-0.02294 0.523523,-0.281869 0.07197,-0.463904 -0.444855,-0.513646 -0.736248,-0.287515 v 0" />
      <path
         id="path990"
         style="fill:#cbb8dd;fill-opacity:1;fill-rule:evenodd;stroke:none;stroke-width:0.0352777"
         d="m 12.328671,37.820955 c -0.467077,0.362304 -0.19826,1.02729 0.4318,1.155348 0.630415,0.128765 0.980371,-0.04622 1.061863,-0.571852 0.146402,-0.940858 -0.902406,-1.041754 -1.493663,-0.583496 v 0" />
      <path
         id="path992"
         style="fill:#cbb8dd;fill-opacity:1;fill-rule:evenodd;stroke:none;stroke-width:0.0352777"
         d="M 5.0212341,38.011809 C 4.3297879,38.54803 4.7273693,39.532986 5.6608193,39.72278 6.5939174,39.91328 7.1125007,39.65364 7.2338545,38.875761 7.4504609,37.482643 5.8968276,37.333418 5.0212341,38.011809 v 0" />
      <path
         id="path994"
         style="fill:#cbb8dd;fill-opacity:1;fill-rule:evenodd;stroke:none;stroke-width:0.0352777"
         d="m 7.526309,37.953247 c -0.4039314,0.312914 -0.1718045,0.888296 0.3732372,0.999421 0.5453962,0.111125 0.8484314,-0.04022 0.9189878,-0.494596 0.1262936,-0.814211 -0.78105,-0.900994 -1.292225,-0.504825 v 0" />
      <path
         id="path996"
         style="fill:#cbb8dd;fill-opacity:1;fill-rule:evenodd;stroke:none;stroke-width:0.0352777"
         d="m 9.015384,38.640459 c -0.2621148,0.202846 -0.1114795,0.576086 0.2420038,0.648404 0.3534833,0.07197 0.5503333,-0.02646 0.5958417,-0.320675 C 9.9354276,38.44008 9.3469942,38.383636 9.015384,38.640459 v 0" />
      <path
         id="path998"
         style="fill:#cbb8dd;fill-opacity:1;fill-rule:evenodd;stroke:none;stroke-width:0.0352777"
         d="m 9.2873757,37.960655 c -0.1594565,0.123473 -0.068088,0.351015 0.1474602,0.394758 0.2148417,0.04375 0.3344333,-0.01588 0.3623019,-0.195437 0.050448,-0.321029 -0.307975,-0.3556 -0.5097621,-0.199321 v 0" />
      <path
         id="path1000"
         style="fill:#cbb8dd;fill-opacity:1;fill-rule:evenodd;stroke:none;stroke-width:0.0352777"
         d="M 4.8868257,40.080145 C 4.5777924,40.319611 4.7555924,40.760301 5.1729276,40.84546 5.5902628,40.93051 5.8220378,40.81445 5.8763674,40.466788 5.9730274,39.84343 5.278761,39.776755 4.8868257,40.080145 v 0" />
      <path
         id="path1002"
         style="fill:#cbb8dd;fill-opacity:1;fill-rule:evenodd;stroke:none;stroke-width:0.0352777"
         d="m 1.4405379,43.216656 c -0.035277,0.399626 0.4198064,0.572981 0.7750545,0.318346 0.3545417,-0.254952 0.4293288,-0.510151 0.2053167,-0.793078 -0.4014629,-0.507402 -0.9355667,-0.03129 -0.9803712,0.474732 v 0" />
      <path
         id="path1004"
         style="fill:#cbb8dd;fill-opacity:1;fill-rule:evenodd;stroke:none;stroke-width:0.0352777"
         d="m 2.5588443,42.226974 c -0.022569,0.254495 0.2674065,0.365019 0.4938898,0.202848 0.2261288,-0.162208 0.2741083,-0.32484 0.1308788,-0.505743 C 2.9278508,41.600898 2.5874193,41.9045 2.5588443,42.226974 v 0" />
      <path
         id="path1006"
         style="fill:#cbb8dd;fill-opacity:1;fill-rule:evenodd;stroke:none;stroke-width:0.0352777"
         d="m 16.429361,44.088548 c -0.03845,0.436986 0.459316,0.626462 0.847373,0.347943 0.388054,-0.278199 0.4699,-0.557671 0.224718,-0.867056 -0.438501,-0.554921 -1.023056,-0.03443 -1.072091,0.519113 v 0" />
    </g>
  </g>
</svg>
