<svg xmlns="http://www.w3.org/2000/svg" width="277" height="270" viewBox="0 0 277 270" version="1.1">
	<path d="M 72.661 4.441 C 72.297 5.389, 72 9.020, 72 12.510 C 72 19.055, 73.452 22, 76.677 22 C 77.693 22, 77.157 22.985, 75.090 24.916 C 71.392 28.370, 69.468 32.664, 68.553 39.500 C 67.584 46.740, 71.433 54.694, 77.027 57.011 C 79.763 58.145, 79.859 58.363, 78.478 60.335 C 76.244 63.524, 76.775 82, 79.101 82 C 79.563 82, 80.966 80.203, 82.220 78.008 C 84.273 74.412, 84.893 74.015, 88.452 74.008 C 91.533 74.002, 93.118 74.691, 95.636 77.132 C 99.656 81.028, 101.536 80.437, 103.052 74.801 C 105.123 67.104, 106.511 65.361, 111.582 64.084 C 116.706 62.793, 125.505 58.648, 128.250 56.231 C 130.382 54.354, 130.399 54.619, 128.489 60.030 C 127.658 62.385, 127.208 64.542, 127.489 64.823 C 127.770 65.104, 128.139 65.146, 128.308 64.917 C 129.377 63.472, 135 47.522, 135 45.936 C 135 43.285, 136.225 43.506, 139.522 46.750 L 142.316 49.500 141.650 47 C 141.284 45.625, 140.714 43.487, 140.384 42.250 C 139.861 40.291, 140.163 40, 142.717 40 C 146.074 40, 148.432 42.244, 152.486 49.295 C 155.376 54.321, 155.476 56.902, 152.612 52.531 C 151.700 51.139, 150.587 50, 150.138 50 C 149.690 50, 151.947 55.287, 155.155 61.750 C 162.381 76.309, 165.516 88.885, 164.128 97.740 C 163.551 101.420, 162.610 103.815, 161.482 104.476 C 160.520 105.039, 158.442 106.553, 156.866 107.839 C 155.290 109.125, 154 109.714, 154 109.148 C 154 108.581, 154.450 107.840, 155 107.500 C 155.550 107.160, 155.976 106.346, 155.948 105.691 C 155.919 105.036, 155.219 105.467, 154.392 106.649 L 152.890 108.799 150.490 106.399 C 148.334 104.243, 147.229 104, 139.595 104 C 132.559 104, 130.924 103.699, 130.080 102.250 C 129.519 101.287, 129.047 100.995, 129.030 101.601 C 129.009 102.359, 125.192 102.596, 116.750 102.361 C 100.730 101.916, 98.651 102.480, 98 107.446 L 97.500 111.258 93.500 103.012 C 88.616 92.945, 85.464 90, 79.572 90 C 77.222 90, 73.823 90.514, 72.019 91.143 C 69.274 92.100, 68.596 92.030, 67.859 90.713 C 66.761 88.750, 53.088 79.579, 52.354 80.312 C 52.058 80.608, 53.658 82.069, 55.908 83.558 C 60.689 86.722, 60.977 87.283, 57.351 86.373 C 55.486 85.905, 54.911 86.048, 55.410 86.854 C 55.884 87.622, 55.086 88, 52.989 88 C 51.268 88, 44.136 89.970, 37.139 92.377 C 30.143 94.785, 22.187 97.051, 19.459 97.413 C 14.909 98.017, 7.877 96.826, 1.500 94.373 C 0.102 93.836, 0.779 95.134, 3.750 98.691 C 6.831 102.379, 8.942 103.954, 11.424 104.420 C 14.792 105.052, 14.825 105.108, 13.431 107.781 C 11.077 112.294, 11.727 114.815, 16.750 120.658 C 21.705 126.421, 25.477 129, 28.950 129 C 30.728 129, 31.001 129.630, 31.006 133.750 C 31.013 140.105, 32.384 144.599, 35.943 149.943 L 38.903 154.385 39.949 151.634 C 40.925 149.068, 41.137 148.983, 43.112 150.366 C 45.742 152.208, 48.627 151.460, 46.903 149.383 C 46.036 148.338, 46.053 147.642, 46.971 146.535 C 47.755 145.591, 47.951 143.670, 47.523 141.139 C 46.771 136.684, 47.421 135.826, 56.956 128.707 C 64.150 123.335, 66.386 120.719, 70.094 113.336 C 72.130 109.283, 72.963 106.458, 72.527 105.086 C 72.138 103.861, 72.306 103, 72.933 103 C 73.520 103, 74 103.659, 74 104.465 C 74 105.925, 76.152 113.028, 78.176 118.250 C 78.763 119.763, 79.599 121, 80.035 121 C 80.471 121, 79.998 118.862, 78.983 116.250 C 77.969 113.638, 76.241 108.575, 75.144 105 L 73.149 98.500 76.271 95.250 C 82.183 89.095, 85.573 91.659, 93.494 108.276 C 97.866 117.449, 98.798 120.322, 98.592 124 C 98.337 128.569, 93.838 138.751, 89.534 144.500 C 84.265 151.538, 85.446 154.530, 94.886 158.054 C 109.686 163.579, 116.340 169.795, 121.590 183 C 123.449 187.675, 124.976 191.725, 124.983 192 C 124.990 192.275, 123.599 192.550, 121.892 192.612 C 120.185 192.673, 118.438 193.291, 118.009 193.985 C 117.480 194.842, 116.344 193.681, 114.474 190.374 C 109.034 180.750, 107.071 178.199, 104.093 176.881 C 101.248 175.622, 101.156 175.411, 102.535 173.306 C 105.049 169.469, 104.157 168.876, 99.906 171.560 C 97.654 172.981, 95.708 173.999, 95.582 173.822 C 91.860 168.584, 85.443 160.792, 82.964 158.500 L 79.719 155.500 82.532 160.500 C 84.079 163.250, 85.829 166.147, 86.422 166.937 C 87.302 168.111, 87.133 168.228, 85.500 167.579 C 80.355 165.532, 75.939 164.784, 67.566 164.542 C 62.580 164.398, 58.122 164.217, 57.660 164.140 C 57.197 164.063, 54.651 161.750, 52 159 C 49.349 156.250, 46.702 154, 46.116 154 C 44.883 154, 42 159.188, 42 161.405 C 42 163.466, 35.571 164.581, 32.294 163.088 C 30.890 162.449, 29.614 162.054, 29.459 162.213 C 29.304 162.371, 29.618 164.919, 30.157 167.875 C 31.242 173.833, 35.198 183.456, 37.695 186.216 C 39.182 187.858, 39.181 188.142, 37.693 189.787 C 35.715 191.972, 33.035 202.916, 33.015 208.890 C 32.997 214.302, 34.818 215.919, 41 215.982 C 46.394 216.036, 50 216.900, 50 218.139 C 50 218.637, 51.361 222.045, 53.024 225.713 C 56.526 233.437, 57.126 233.270, 60.973 223.500 C 62.272 220.200, 64.141 216.451, 65.125 215.170 C 66.513 213.362, 78.267 205.037, 90.361 197.296 C 90.834 196.993, 91.056 198.827, 90.854 201.372 C 90.254 208.911, 91.682 206.677, 94.018 196.421 C 96.417 185.889, 96.779 185.798, 100.770 194.730 L 102.455 198.500 102.788 195.282 C 102.972 193.506, 102.196 189.970, 101.055 187.392 C 98.851 182.408, 99.474 180, 102.967 180 C 105.208 180, 106.766 181.908, 111.948 191 C 115.686 197.558, 116.209 199.216, 116.108 204.195 C 116.045 207.327, 115.606 210.927, 115.133 212.195 C 114.660 213.463, 113.958 216.641, 113.574 219.257 C 113.009 223.104, 112.198 224.539, 109.338 226.757 C 100.574 233.553, 101.243 232.626, 103.500 234.841 C 106.599 237.882, 116.970 243, 120.032 243 C 122.198 243, 122.930 243.584, 123.472 245.744 C 124.344 249.219, 133.226 263.989, 135.896 266.406 C 137.569 267.920, 138.427 268.047, 140.976 267.158 C 144.634 265.883, 159 253.135, 159 251.165 C 159 250.329, 159.612 250.021, 160.554 250.382 C 162.508 251.132, 182 246.376, 182 245.149 C 182 244.858, 180.899 240.992, 179.554 236.560 C 178.209 232.127, 176.095 225.125, 174.857 221 C 173.528 216.572, 172.552 210.519, 172.475 206.222 C 172.402 202.219, 171.929 198.536, 171.422 198.038 C 170.915 197.541, 168.801 196.991, 166.723 196.817 L 162.947 196.500 167.709 187.103 C 173.727 175.230, 176.632 172, 181.294 172 C 185.887 172, 186.930 174.480, 183.479 177.195 C 181.219 178.973, 177 185.771, 177 187.634 C 177 188.027, 178.012 187.437, 179.250 186.323 C 183.896 182.140, 184.278 182.300, 183.553 188.122 C 183.089 191.848, 183.192 193.048, 183.887 192.029 C 185.159 190.166, 184.760 189.564, 190.833 202.539 C 196.681 215.034, 197.114 218.449, 193.997 227.508 C 192.896 230.709, 192.179 233.512, 192.404 233.737 C 193.292 234.625, 204.284 228.629, 204.703 227.029 C 205.115 225.454, 205.465 225.476, 209.324 227.321 C 211.621 228.419, 214.625 230.306, 216 231.512 C 220.910 235.822, 221.827 235.541, 225.063 228.737 C 226.694 225.307, 228.291 220.901, 228.611 218.947 C 229.175 215.502, 229.403 215.339, 236.082 213.619 C 243.751 211.643, 247.081 209.493, 247.110 206.500 C 247.132 204.225, 244.181 190.848, 243.509 190.176 C 243.266 189.933, 244.194 188.849, 245.571 187.766 C 246.947 186.683, 249.363 183.243, 250.938 180.122 L 253.803 174.447 246.152 174.460 C 240.639 174.469, 237.563 173.965, 235.147 172.658 C 232.347 171.141, 231.324 171.037, 228.936 172.027 C 226.509 173.032, 225.581 172.911, 222.789 171.228 C 218.673 168.748, 210.437 166.044, 204.237 165.138 L 199.500 164.446 202.750 162.508 C 204.537 161.441, 206 160.204, 206 159.759 C 206 158.554, 200.063 161.794, 195.493 165.493 C 192.061 168.270, 190.516 168.798, 184.740 169.166 C 178.600 169.557, 178.045 169.434, 178.564 167.798 C 179.279 165.547, 177.443 165.404, 176.583 167.643 C 176.237 168.547, 175.714 169.047, 175.421 168.755 C 174.681 168.014, 183.116 152.298, 190.050 141.500 C 193.228 136.550, 197.288 129.213, 199.072 125.196 L 202.316 117.893 204.728 125.196 C 207.700 134.198, 207.306 138.792, 203.111 144.012 L 200.061 147.807 202.023 150.302 C 203.330 151.963, 205.743 153.183, 209.243 153.950 C 221.261 156.587, 228.280 159.258, 231.986 162.606 C 234.052 164.473, 236.142 166, 236.631 166 C 238.124 166, 248.044 152.332, 249.019 148.933 C 249.541 147.113, 249.562 145.048, 249.067 144.122 C 248.321 142.727, 248.921 142.490, 253.350 142.428 C 259.441 142.343, 265.804 139.415, 271.250 134.191 C 273.313 132.213, 274.989 129.673, 274.975 128.547 C 274.939 125.530, 271.303 115.169, 268.840 111.067 C 267.663 109.105, 266.121 103.968, 265.414 99.650 C 264.277 92.702, 262.100 88, 260.022 88 C 259.654 88, 256.945 90.250, 254 93 C 248.073 98.535, 246.356 98.922, 238.409 96.511 C 235.709 95.692, 232.488 95.017, 231.250 95.011 C 228.471 94.997, 228.329 93.430, 230.977 92.012 C 232.064 91.430, 233.480 89.952, 234.123 88.727 C 235.284 86.513, 235.278 86.511, 233.146 88.405 C 230.495 90.758, 230.487 90.375, 233.050 83.872 C 235.715 77.113, 235.358 73.600, 231.968 73.205 C 228.235 72.769, 221.023 78.074, 217.714 83.689 L 214.879 88.500 215.193 83.796 C 215.372 81.117, 215.131 79.469, 214.634 79.966 C 213.569 81.031, 212.103 88.295, 212.044 92.798 C 212.013 95.107, 211.176 96.821, 209.250 98.516 C 206.824 100.652, 205.529 100.941, 198.250 100.968 C 193.713 100.986, 190 101.365, 190 101.811 C 190 102.257, 192.243 103.197, 194.984 103.899 L 199.967 105.176 197.633 108.338 C 196.349 110.077, 194.069 114.650, 192.565 118.500 C 191.062 122.350, 189.257 126.850, 188.554 128.500 C 183.895 139.435, 178.575 152.725, 175.944 160 C 174.253 164.675, 171.081 171.775, 168.894 175.778 C 166.707 179.782, 165.184 183.489, 165.510 184.017 C 165.840 184.550, 165.420 184.715, 164.566 184.387 C 162.846 183.727, 161 187.451, 161 191.579 C 161 195.782, 159.055 197.876, 155.972 196.992 C 151.117 195.600, 148.999 193.988, 149.037 191.715 C 149.057 190.497, 150.311 182.767, 151.824 174.538 L 154.573 159.576 159.537 158.178 C 168.740 155.584, 168.983 155.416, 168.057 152.297 C 167.600 150.759, 165.600 146.826, 163.613 143.559 C 159.183 136.274, 159.153 136.081, 161.017 126.682 C 161.867 122.392, 162.936 120.182, 165.086 118.266 C 168.097 115.583, 168.354 113.632, 165.370 116.107 C 163.809 117.402, 163.797 117.289, 165.205 114.500 C 167.431 110.089, 168.221 105.972, 167.101 104.621 C 166.453 103.841, 166.461 101.904, 167.126 98.967 C 168.367 93.484, 167.750 88.794, 163.841 74 C 162.169 67.675, 160.836 61.825, 160.878 61 C 160.920 60.175, 160.957 56.448, 160.959 52.718 C 160.962 48.988, 161.475 44.938, 162.099 43.718 C 163.189 41.586, 163.162 41.568, 161.394 43.259 C 160.259 44.343, 159.352 47.025, 159.027 50.254 L 158.500 55.490 155.218 48.807 C 151.511 41.259, 147.145 37, 143.114 37 C 141.612 37, 139.522 36.371, 138.470 35.602 C 136.704 34.311, 136.651 33.751, 137.779 28.292 C 140.084 17.131, 138.866 16.019, 135.543 26.250 C 134.516 29.413, 133.411 31.995, 133.088 31.990 C 132.764 31.984, 131.759 30.216, 130.854 28.059 C 128.599 22.689, 122.128 19.488, 110.395 17.938 C 99.539 16.505, 95.649 14.628, 89.610 7.911 C 87.044 5.057, 84.796 2.897, 84.614 3.111 C 83.701 4.185, 83.255 11.040, 84.066 11.541 C 85.636 12.511, 85.107 14, 83.192 14 C 81.607 14, 79.414 11.597, 74.619 4.610 C 73.417 2.859, 73.273 2.846, 72.661 4.441 M 200.286 109.250 C 199.151 110.487, 196.876 114.740, 195.230 118.699 C 192.699 124.788, 192.479 125.946, 193.806 126.201 C 195.043 126.439, 194.740 127.244, 192.377 130.002 C 189.857 132.942, 184 144.667, 184 146.770 C 184 148.333, 193.651 131.558, 197.964 122.500 C 204.368 109.047, 205.289 103.793, 200.286 109.250 M 156.583 125.866 C 156.152 126.563, 156.070 127.403, 156.400 127.733 C 157.295 128.628, 158.271 127.312, 157.787 125.862 C 157.449 124.846, 157.213 124.846, 156.583 125.866 M 148.009 161.489 C 147.329 162.308, 146.451 162.779, 146.058 162.536 C 145.664 162.293, 143.690 163.455, 141.671 165.120 L 138 168.146 138.103 180.823 C 138.188 191.214, 138.386 192.824, 139.203 189.750 C 139.750 187.688, 140.514 186, 140.899 186 C 141.283 186, 141.479 187.688, 141.332 189.750 C 141.074 193.386, 141.090 193.406, 141.873 190.413 C 143.146 185.548, 144.209 184.267, 145.065 186.566 C 146.019 189.127, 146.222 188.439, 149.159 172.750 C 151.512 160.176, 151.248 157.587, 148.009 161.489 M 134.841 179.250 C 134.635 179.938, 134.739 182.975, 135.071 186 L 135.674 191.500 135.837 184.750 C 135.992 178.326, 135.662 176.502, 134.841 179.250 M 123.519 181 C 123.936 182.375, 125.281 185.750, 126.509 188.500 L 128.742 193.500 128.713 188.786 C 128.689 184.876, 128.179 183.597, 125.723 181.286 L 122.762 178.500 123.519 181 M 131.601 187.666 C 132.521 191.498, 133 191.860, 133 188.726 C 133 187.291, 132.532 185.829, 131.960 185.475 C 131.278 185.054, 131.154 185.808, 131.601 187.666" fill="none" stroke="#000" stroke-width="2px" fill-rule="evenodd"/>
</svg>
