<svg xmlns="http://www.w3.org/2000/svg" width="273" height="282" viewBox="0 0 273 282" version="1.1">
	<path d="M 98 14.650 C 98 16.290, 98.481 20.234, 99.069 23.414 C 100.237 29.733, 99.671 31.895, 98 27.500 C 96.340 23.135, 95.757 25.267, 97.348 29.883 C 98.262 32.536, 98.417 34.243, 97.779 34.637 C 97.216 34.984, 97.052 36.923, 97.400 39.101 L 98.016 42.950 94.368 40.475 C 89.437 37.129, 86.567 37.139, 87.411 40.500 C 87.874 42.345, 87.640 43, 86.519 43 C 83.878 43, 84.878 45.723, 87.750 46.353 C 89.263 46.684, 91.625 47.878, 93 49.006 L 95.500 51.057 90 49.029 C 86.975 47.914, 84.136 47.001, 83.691 47.001 C 82.259 47, 84.131 49.109, 87.242 51.001 L 90.266 52.840 86.133 54.078 C 83.860 54.759, 82 55.643, 82 56.042 C 82 57.122, 85.922 57.971, 90.982 57.986 L 95.464 58 91.757 60.519 C 88.127 62.986, 85.339 66.673, 86.344 67.677 C 87.343 68.676, 94.558 65.485, 97.440 62.769 C 100.985 59.430, 102.719 59.139, 100.532 62.250 C 98.481 65.167, 96.716 71.732, 97.598 73.159 C 98.013 73.830, 99.169 72.807, 100.512 70.582 C 102.633 67.068, 102.768 67.002, 103.356 69.196 C 103.695 70.463, 103.979 72.675, 103.986 74.110 C 103.994 75.546, 105.123 78.376, 106.496 80.399 C 109.074 84.198, 109.577 87.077, 110.446 103 C 110.701 107.675, 111.439 115.964, 112.086 121.419 L 113.262 131.338 110.273 133.919 C 108.629 135.339, 106.289 137.963, 105.074 139.750 C 103.655 141.836, 102.039 143, 100.561 143 C 98.543 143, 98.173 142.362, 97.574 137.843 C 96.799 132, 97.527 131.040, 102.750 131.015 C 108.812 130.987, 105.728 127.041, 99.550 126.921 C 95.652 126.845, 95.603 126.804, 98.250 125.838 C 99.763 125.285, 101 124.344, 101 123.745 C 101 123.147, 101.745 121.835, 102.655 120.829 C 104.200 119.121, 104.190 119, 102.500 119 C 100.774 119, 100.771 118.910, 102.440 117.066 C 105.004 114.233, 106.906 108.176, 106.956 102.684 C 106.980 100.036, 107.516 96.904, 108.147 95.726 C 109.986 92.289, 96.822 103.140, 94.659 106.844 C 93.620 108.624, 92.554 111.749, 92.291 113.790 C 91.770 117.838, 90.128 120.493, 90.060 117.399 C 90.036 116.355, 90.037 110.888, 90.062 105.250 C 90.090 98.710, 89.725 95, 89.053 95 C 88.474 95, 88 96.855, 88 99.122 C 88 102.726, 87.806 103.084, 86.456 101.963 C 85.417 101.101, 85.109 99.782, 85.514 97.936 C 85.849 96.413, 85.646 94.899, 85.059 94.536 C 84.365 94.107, 83.998 95.712, 83.995 99.191 L 83.990 104.500 81.745 101.836 C 80.510 100.370, 78.150 98.455, 76.500 97.581 C 74.850 96.706, 72.394 95.205, 71.043 94.245 C 68.068 92.133, 68.743 93.504, 73.679 99.603 C 75.506 101.860, 77 104.146, 77 104.683 C 77 105.221, 79.915 109, 83.477 113.080 C 89.934 120.477, 92.472 124.944, 87.250 119.719 C 83.523 115.990, 76.392 110, 75.680 110 C 75.362 110, 75.754 111.561, 76.551 113.468 C 78.884 119.051, 78.522 120, 74.059 120 C 71.891 120, 69.840 119.550, 69.500 119 C 69.160 118.450, 67.461 118, 65.725 118 C 62.615 118, 62.649 118.053, 68 121.500 C 70.988 123.425, 74.460 125, 75.716 125 C 76.972 125, 78 125.498, 78 126.107 C 78 126.716, 77.300 126.945, 76.444 126.617 C 75.352 126.198, 74.579 126.910, 73.847 129.010 C 72.611 132.554, 72.540 132.570, 69.273 130 C 66.220 127.599, 63.079 127.185, 64.942 129.430 C 65.886 130.567, 65.757 131.052, 64.315 131.793 C 61.517 133.232, 51 134.192, 51 133.009 C 51 132.454, 51.900 132, 53 132 C 55.958 132, 55.427 130.256, 52.250 129.535 C 49.800 128.980, 48.919 127.470, 44.180 115.706 C 41.253 108.443, 38.701 101.012, 38.508 99.194 C 38.315 97.376, 37.475 94.848, 36.642 93.576 C 35.213 91.395, 35.279 91.187, 37.813 89.914 C 39.291 89.171, 43.163 88.100, 46.418 87.532 C 52.615 86.452, 55.376 84, 50.396 84 L 47.626 84 50.395 81.110 C 53.441 77.930, 52.870 76.919, 47.946 76.779 L 44.920 76.693 47.710 73.692 C 49.802 71.443, 50.034 70.858, 48.639 71.357 C 47.209 71.868, 46.920 71.651, 47.393 70.419 C 47.805 69.343, 47.348 68.642, 46.004 68.291 C 44.902 68.003, 44 67.144, 44 66.383 C 44 64.388, 42.679 64.683, 41.232 67 C 40.545 68.100, 39.312 69, 38.492 69 C 37.671 69, 36.032 69.968, 34.848 71.152 C 32.977 73.023, 32.552 73.108, 31.596 71.801 C 29.608 69.081, 22.520 71.057, 23.318 74.108 C 23.683 75.505, 23.287 75.888, 21.649 75.720 C 20.003 75.552, 19.519 76.026, 19.579 77.750 C 19.672 80.364, 19.211 80.474, 16.559 78.468 C 15.491 77.661, 13.916 77.018, 13.059 77.040 C 12.163 77.063, 12.707 77.734, 14.338 78.618 C 15.900 79.464, 16.951 80.383, 16.674 80.659 C 16.398 80.936, 15.262 80.676, 14.151 80.081 C 11.091 78.443, 10.250 78.756, 10.250 81.531 C 10.250 82.975, 11.163 84.705, 12.375 85.559 C 15.210 87.556, 13.138 88.910, 8.142 88.325 C 5.503 88.016, 4.905 88.173, 5.971 88.895 C 7.652 90.033, 7.569 90.134, 3.510 91.885 C 0.792 93.058, 0.677 93.291, 2.244 94.437 C 3.193 95.130, 3.638 96.054, 3.234 96.490 C 2.831 96.925, 3.787 96.972, 5.359 96.594 L 8.218 95.907 6.109 98.588 C 3.458 101.958, 3.449 103, 6.071 103 C 8.470 103, 8.607 103.132, 16.348 112.818 C 22.530 120.553, 23.192 122.480, 18.403 118.794 C 15.736 116.741, 15.797 116.922, 19.156 121.030 C 21.497 123.892, 23.475 125.395, 24.656 125.208 C 26.074 124.984, 26.183 125.131, 25.129 125.842 C 24.044 126.575, 24.403 127.344, 26.851 129.525 C 28.552 131.041, 29.698 132.679, 29.398 133.165 C 29.097 133.652, 29.447 133.926, 30.176 133.775 C 30.904 133.624, 31.364 134.134, 31.197 134.908 C 31.031 135.683, 31.263 136.583, 31.713 136.908 C 32.164 137.234, 33.816 139.075, 35.385 141 C 41.017 147.909, 47.541 155.430, 49.750 157.560 C 52.353 160.070, 52.680 161.475, 50.462 160.624 C 48.425 159.842, 47.423 162.600, 49.038 164.546 C 50.152 165.888, 50.574 165.809, 52.640 163.869 C 54.834 161.807, 55.093 161.774, 56.821 163.338 C 57.834 164.254, 58.856 164.891, 59.093 164.752 C 59.330 164.613, 59.069 164.952, 58.512 165.504 C 56.797 167.204, 56.762 169.305, 58.459 168.654 C 59.460 168.270, 60 168.636, 60 169.698 C 60 170.597, 60.297 171.036, 60.660 170.673 C 61.600 169.734, 71 185.906, 71 188.461 C 71 188.651, 64.922 188.390, 62.683 188.104 C 62.233 188.047, 62.132 187.159, 62.458 186.132 C 63.261 183.602, 59.124 180.791, 56.642 182.181 C 55.232 182.970, 53.471 181.854, 47.403 176.328 C 38.062 167.821, 31.950 163.157, 30 163.051 C 28.667 162.978, 28.667 162.863, 30 162.008 C 30.825 161.478, 32.332 161.305, 33.349 161.622 C 34.899 162.105, 35.085 161.819, 34.498 159.849 C 34.113 158.557, 33.168 157, 32.399 156.390 C 31.630 155.779, 31 154.793, 31 154.199 C 31 153.604, 30.539 152.833, 29.975 152.485 C 29.412 152.136, 29.074 152.447, 29.225 153.176 C 29.406 154.046, 28.691 154.386, 27.141 154.169 C 25.843 153.986, 25.003 154.211, 25.273 154.669 C 25.544 155.126, 25.365 156.560, 24.875 157.857 C 24.168 159.730, 23.487 160.088, 21.554 159.603 C 20.217 159.267, 18.843 159.444, 18.502 159.996 C 18.161 160.548, 18.632 161, 19.548 161 C 20.636 161, 21.009 161.533, 20.624 162.538 C 20.269 163.462, 20.726 164.361, 21.767 164.788 C 22.720 165.180, 23.545 166.063, 23.600 166.750 C 23.655 167.438, 23.767 169.595, 23.850 171.544 C 23.968 174.321, 24.379 175.024, 25.750 174.794 C 29.091 174.233, 29.974 172.699, 28.381 170.222 C 26.833 167.813, 27.384 165.501, 29.234 166.644 C 29.836 167.017, 31.582 167.420, 33.114 167.540 C 36.280 167.790, 44.337 174.300, 52.074 182.863 C 54.875 185.963, 56.894 187.649, 56.561 186.609 C 56.040 184.984, 56.176 184.901, 57.524 186.020 C 59.542 187.695, 57.415 189.293, 54.935 187.965 C 52.847 186.848, 52 187.648, 52 190.738 C 52 192.652, 52.460 193.084, 54.250 192.852 C 57.556 192.425, 59.098 193.762, 58.419 196.467 C 57.969 198.259, 58.321 198.967, 59.915 199.473 C 61.062 199.837, 62 200.603, 62 201.174 C 62 201.746, 61.212 201.940, 60.250 201.605 C 58.583 201.024, 58.583 201.060, 60.250 202.358 C 61.213 203.107, 62 204.008, 62 204.360 C 62 206.081, 59.485 204.420, 52.748 198.250 C 48.693 194.537, 43.492 189.957, 41.188 188.072 C 36.867 184.535, 35.741 182.580, 38.674 183.705 C 40.017 184.220, 40.189 183.968, 39.545 182.424 C 39.103 181.366, 38.650 179.600, 38.538 178.500 C 38.426 177.400, 38.034 176.613, 37.667 176.750 C 37.300 176.887, 36.316 177, 35.481 177 C 34.360 177, 34.126 177.655, 34.589 179.500 C 34.943 180.908, 34.784 182, 34.225 182 C 33.680 182, 33.011 181.152, 32.740 180.115 C 32.365 178.678, 31.610 178.352, 29.566 178.743 C 27.819 179.077, 27.068 179.734, 27.411 180.628 C 27.700 181.382, 27.533 182, 27.038 182 C 26.515 182, 26.499 183.254, 27 185 C 27.516 186.800, 27.488 188, 26.930 188 C 26.419 188, 26 188.900, 26 190 C 26 191.100, 26.436 192, 26.969 192 C 27.501 192, 27.642 192.787, 27.281 193.750 C 26.731 195.217, 26.872 195.300, 28.155 194.259 C 28.996 193.576, 29.903 193.237, 30.171 193.505 C 30.439 193.773, 31.664 192.923, 32.892 191.615 C 34.760 189.627, 35.673 189.363, 38.486 189.997 C 40.334 190.414, 43.119 191.676, 44.674 192.801 C 48.722 195.732, 59.789 207.329, 58 206.765 C 55.553 205.995, 54.203 209.705, 55.129 214.659 C 56.295 220.903, 61.696 231.281, 66.241 236.011 C 68.431 238.290, 69.796 240.521, 69.396 241.168 C 68.988 241.829, 69.132 242.036, 69.740 241.661 C 70.680 241.080, 74.335 247.932, 74.454 250.500 C 74.479 251.050, 75.063 251.860, 75.750 252.300 C 76.438 252.740, 77 253.711, 77 254.460 C 77 256.770, 85.713 264.265, 90.995 266.498 C 93.754 267.664, 97.492 270.054, 99.303 271.809 C 101.114 273.564, 103.049 275, 103.605 275 C 104.160 275, 105.103 276.238, 105.701 277.750 L 106.787 280.500 106.957 278 C 107.127 275.502, 107.127 275.502, 108.031 277.750 C 108.814 279.698, 109.668 280, 114.394 280 C 118.753 280, 119.946 279.647, 120.311 278.250 C 120.681 276.834, 120.790 276.804, 120.884 278.091 C 120.973 279.319, 122.199 279.700, 126.250 279.759 L 131.500 279.835 127.750 278.282 C 124.429 276.906, 122.696 275.009, 124.750 274.995 C 126.400 274.984, 135 278.442, 135 279.117 C 135 280.420, 146.589 279.926, 149.325 278.506 C 151.629 277.311, 152 277.318, 152 278.559 C 152 279.352, 152.619 280, 153.375 280 C 154.457 280, 154.684 278.192, 154.445 271.500 C 154.273 266.710, 154.546 263, 155.070 263 C 155.582 263, 156 263.360, 156 263.799 C 156 264.239, 157.463 264.450, 159.250 264.268 C 164.118 263.774, 164.791 264.728, 163.996 271 C 163.613 274.025, 162.959 277.288, 162.543 278.250 C 161.932 279.663, 162.289 280, 164.393 280 C 166.426 280, 167.003 279.504, 167.014 277.750 C 167.034 274.387, 168.111 271, 169.160 271 C 169.670 271, 170.015 271.562, 169.925 272.250 C 169.494 275.574, 170.107 280, 171 280 C 171.575 280, 172 276.897, 172 272.691 C 172 266.043, 172.329 264.845, 175.634 259.441 C 177.633 256.174, 179.996 252.265, 180.884 250.756 C 181.773 249.247, 182.743 248.010, 183.041 248.006 C 183.339 248.003, 183.024 252.387, 182.341 257.750 C 180.173 274.786, 179.997 280, 181.590 280 C 182.546 280, 183.012 278.793, 183.037 276.250 C 183.058 274.188, 183.867 265.750, 184.836 257.500 L 186.596 242.500 191.261 235.742 C 193.826 232.025, 196.452 227.223, 197.097 225.070 C 197.753 222.880, 199.986 219.530, 202.168 217.463 C 205.613 214.198, 205.878 213.631, 204.444 212.583 C 202.982 211.513, 203.149 210.717, 206.152 204.449 C 207.983 200.627, 209.602 197.308, 209.751 197.073 C 209.899 196.838, 211.366 197.935, 213.010 199.510 C 216.374 202.733, 216.729 202.310, 214.415 197.835 C 213.469 196.006, 213.195 194.405, 213.735 193.865 C 214.276 193.324, 215.184 193.975, 215.989 195.480 C 216.731 196.866, 217.712 198, 218.169 198 C 219.421 198, 219.172 196.609, 217.532 194.441 C 215.755 192.092, 215.566 190.614, 217.170 191.605 C 217.971 192.100, 218.125 191.769, 217.659 190.553 C 217.080 189.044, 217.374 188.877, 219.615 189.440 C 221.662 189.953, 222.130 189.780, 221.702 188.666 C 221.307 187.636, 222.189 187.053, 224.826 186.600 C 226.847 186.253, 229.400 185.245, 230.500 184.360 C 232.459 182.783, 232.451 182.762, 230.071 183.328 C 228.297 183.750, 227.030 183.245, 225.369 181.453 C 224.119 180.104, 221.976 179, 220.607 179 C 217.048 179, 216.396 177.167, 219.709 176.479 C 221.244 176.160, 223.850 175.518, 225.500 175.052 C 228.254 174.274, 228.110 174.196, 223.750 174.102 C 221.137 174.046, 219 173.679, 219 173.288 C 219 172.896, 220.238 171.579, 221.750 170.362 C 223.925 168.612, 224.245 167.889, 223.278 166.903 C 222.312 165.917, 222.519 165.426, 224.269 164.553 C 226.584 163.399, 227.931 160, 226.073 160 C 225.483 160, 225 160.675, 225 161.500 C 225 162.325, 224.427 163, 223.727 163 C 222.860 163, 222.363 160.974, 222.169 156.647 L 221.884 150.295 227.692 149.173 C 240.159 146.766, 245 145.538, 245 144.785 C 245 144.353, 245.719 144, 246.599 144 C 247.478 144, 249.699 143.287, 251.535 142.416 C 253.370 141.545, 257.488 140.011, 260.686 139.008 C 264.416 137.837, 265.604 137.154, 264 137.102 C 262.625 137.058, 259.291 137.692, 256.591 138.511 C 250.224 140.442, 247.671 140.418, 251 138.456 L 253.500 136.984 250.500 137.609 C 248.850 137.952, 244.463 139.227, 240.750 140.440 C 237.038 141.654, 234 142.324, 234 141.928 C 234 141.533, 231.316 141.928, 228.036 142.807 C 224.756 143.686, 221.854 144.187, 221.587 143.920 C 221.320 143.654, 220.967 140.975, 220.801 137.968 C 220.635 134.960, 220.050 132.127, 219.500 131.672 C 218.943 131.211, 219.737 131.042, 221.290 131.291 C 223.071 131.576, 223.938 131.333, 223.688 130.619 C 223.473 130.004, 222.353 129.533, 221.199 129.574 C 220.044 129.615, 219.329 129.277, 219.609 128.824 C 220.509 127.367, 225 127.904, 225 129.469 C 225 131.207, 228.058 130.384, 229.309 128.309 C 229.865 127.386, 230.636 127.256, 231.775 127.894 C 232.925 128.538, 234.617 128.216, 237.312 126.841 C 239.447 125.752, 240.961 124.628, 240.676 124.343 C 240.392 124.058, 237.612 124.354, 234.500 125 C 231.388 125.646, 228.618 125.952, 228.345 125.679 C 228.073 125.406, 226.508 125.568, 224.868 126.038 C 223.172 126.524, 220.939 126.507, 219.693 125.998 L 217.500 125.102 219.750 124.434 C 220.988 124.067, 222 123.383, 222 122.915 C 222 122.446, 222.749 122.350, 223.664 122.701 C 224.704 123.100, 225.082 122.942, 224.673 122.280 C 224.302 121.680, 225.643 120.473, 227.759 119.501 C 229.816 118.555, 232.807 117.156, 234.404 116.391 C 236.001 115.626, 237.940 115, 238.713 115 C 239.575 115, 239.825 114.517, 239.359 113.750 C 238.942 113.063, 240.325 113.806, 242.432 115.401 L 246.263 118.303 248.053 115.929 C 249.038 114.624, 249.627 113.206, 249.363 112.778 C 249.098 112.350, 249.809 112, 250.941 112 C 253.427 112, 253.590 110.310, 251.345 107.829 C 249.769 106.088, 249.871 106, 253.462 106 C 256.613 106, 257.155 105.702, 256.758 104.184 C 256.384 102.752, 257.361 101.982, 261.392 100.536 C 264.201 99.528, 265.943 98.509, 265.262 98.272 C 264.581 98.035, 262.669 98.518, 261.012 99.344 C 259.355 100.171, 258 100.463, 258 99.994 C 258 99.525, 255.533 98.630, 252.517 98.004 C 249.502 97.378, 246.788 96.467, 246.487 95.979 C 246.186 95.492, 247.825 94.586, 250.129 93.965 C 255.826 92.431, 259 90.184, 259 87.685 C 259 86.063, 258.733 85.867, 257.800 86.800 C 256.401 88.199, 254 88.399, 254 87.117 C 254 86.631, 254.947 85.986, 256.105 85.683 C 258.794 84.980, 258.010 82.473, 255.135 82.581 C 253.479 82.643, 253.109 82.233, 253.554 80.831 C 253.939 79.618, 253.634 79, 252.651 79 C 251.834 79, 251.001 78.503, 250.799 77.897 C 250.546 77.139, 249.266 77.280, 246.716 78.346 C 244.672 79.199, 243 79.471, 243 78.949 C 243 78.427, 243.434 78, 243.965 78 C 245.551 78, 246.944 74.528, 245.983 72.972 C 245.265 71.810, 244.625 72.001, 242.458 74.026 L 239.810 76.500 241.584 72.763 C 243.658 68.394, 242.889 66.886, 239.945 69.550 C 238.410 70.939, 237.684 71.107, 237.126 70.204 C 236.631 69.402, 235.545 70.438, 233.937 73.244 C 231.547 77.417, 231.494 77.447, 231.184 74.750 C 231.010 73.237, 230.447 72, 229.934 72 C 229.420 72, 229 70.845, 229 69.434 C 229 68.023, 228.502 65.937, 227.893 64.799 C 227.004 63.139, 226.611 63.004, 225.908 64.115 C 225.425 64.877, 224.992 66.850, 224.945 68.500 C 224.871 71.085, 224.741 71.223, 224 69.500 C 223.395 68.092, 223.093 67.944, 222.980 69 C 222.892 69.825, 222.329 68.925, 221.728 67 L 220.637 63.500 219.965 67 L 219.293 70.500 218.522 67.250 C 217.668 63.656, 216.863 63.256, 215 65.500 C 213.133 67.750, 211.116 67.310, 210.411 64.500 C 209.663 61.522, 207.704 61.296, 205.110 63.890 C 203.257 65.743, 203.196 65.728, 201.979 63.140 C 201.253 61.596, 200.550 61.019, 200.286 61.750 C 200.037 62.438, 198.746 63, 197.417 63 C 195.667 63, 195 63.552, 195 65 C 195 66.100, 194.339 67, 193.531 67 C 192.572 67, 192.284 67.577, 192.701 68.664 C 193.148 69.828, 192.966 70.097, 192.096 69.559 C 190.510 68.579, 185 68.174, 185 69.038 C 185 69.396, 185.926 70.528, 187.057 71.552 L 189.114 73.414 186.807 74.327 C 184.650 75.180, 184.825 75.391, 189.500 77.559 C 195.117 80.163, 194.471 80.535, 187.231 78.864 C 183.661 78.040, 181.786 78.028, 180.404 78.819 C 178.684 79.804, 178.816 79.975, 181.766 80.583 C 184.276 81.101, 184.786 81.553, 183.967 82.539 C 183.209 83.454, 183.236 84.028, 184.063 84.539 C 184.816 85.004, 184.130 85.948, 182.112 87.226 C 180.400 88.310, 179 89.741, 179 90.407 C 179 91.916, 185.835 91.694, 188.837 90.087 C 190.004 89.463, 192.081 89.233, 193.453 89.577 C 195.846 90.178, 195.887 90.317, 194.473 93.052 C 193.663 94.619, 193 96.598, 193 97.450 C 193 98.333, 192.140 99, 191 99 C 189.533 99, 189 99.667, 189 101.500 C 189 103.500, 189.500 104, 191.500 104 C 194.041 104, 194.839 105.363, 192.973 106.516 C 192.409 106.865, 192.036 107.679, 192.145 108.325 C 192.484 110.333, 183.482 128.144, 182.555 127.299 C 182.073 126.859, 181.979 127.024, 182.346 127.665 C 182.713 128.305, 182.672 128.980, 182.256 129.165 C 181.134 129.662, 177.596 136.929, 178.188 137.521 C 179.010 138.343, 185.587 127.060, 188.436 119.939 C 190.737 114.189, 196.129 106.466, 197.141 107.473 C 197.338 107.669, 197.275 111.725, 197 116.486 C 196.577 123.816, 196.193 125.310, 194.500 126.229 C 193.400 126.826, 190.925 128.985, 189 131.025 C 187.075 133.065, 184.528 135.037, 183.340 135.406 C 182.152 135.775, 180.630 136.741, 179.958 137.551 C 178.982 138.727, 178.437 138.777, 177.259 137.800 C 176.049 136.796, 175.430 137.063, 173.809 139.288 C 171.345 142.670, 169.367 142.896, 171.563 139.544 C 172.448 138.193, 172.882 136.618, 172.527 136.044 C 171.461 134.319, 170.160 134.861, 169.820 137.172 C 169.644 138.366, 168.996 139.509, 168.381 139.711 C 167.662 139.948, 167.447 139.113, 167.779 137.376 C 168.202 135.161, 167.998 134.793, 166.648 135.336 C 165.742 135.701, 164.302 136.282, 163.449 136.627 C 162.114 137.166, 161.994 136.501, 162.584 131.877 C 162.962 128.919, 163.396 126.351, 163.550 126.169 C 163.703 125.987, 164.767 126.340, 165.914 126.954 C 167.672 127.895, 168 127.785, 168 126.258 C 168 125.261, 167.299 123.444, 166.442 122.221 C 165.585 120.997, 165.143 119.578, 165.459 119.067 C 165.775 118.555, 165.013 117.406, 163.767 116.513 C 161.505 114.892, 161.507 114.890, 164.500 115.563 C 166.150 115.934, 168.582 116.915, 169.905 117.743 C 172.085 119.108, 172.251 119.097, 171.686 117.624 C 171.343 116.731, 171.554 116, 172.154 116 C 172.917 116, 172.901 115.585, 172.101 114.622 C 171.203 113.540, 171.391 113.131, 172.979 112.716 C 175.338 112.099, 175.651 110.187, 173.526 109.371 C 172.227 108.873, 172.227 108.631, 173.526 107.331 C 175.547 105.310, 175.373 103.910, 173.024 103.296 C 171.460 102.887, 171.252 102.399, 172.024 100.955 C 173.789 97.658, 173.191 96.759, 169.518 97.188 C 166.058 97.592, 166.046 97.579, 167.594 95.216 C 169.712 91.984, 168.824 90.120, 165.470 90.761 C 162.979 91.237, 162.867 91.117, 163.939 89.114 C 164.866 87.383, 164.788 86.645, 163.548 85.405 C 161.889 83.747, 161.425 80, 162.878 80 C 163.361 80, 164.474 81.013, 165.351 82.250 C 166.905 84.442, 166.985 84.451, 168.441 82.603 C 170.312 80.228, 169.648 79.018, 166.873 79.744 C 163.633 80.591, 161.177 75.311, 163.377 72.226 C 163.876 71.525, 164.041 70.708, 163.743 70.410 C 162.948 69.614, 158.976 74.153, 159.594 75.151 C 159.882 75.618, 159.191 76, 158.059 76 C 156.927 76, 156 75.381, 156 74.625 C 156 73.817, 154.946 73.250, 153.441 73.250 C 151.681 73.250, 151.047 73.679, 151.410 74.625 C 151.700 75.381, 151.501 76, 150.969 76 C 150.436 76, 150 76.627, 150 77.393 C 150 79.036, 152.721 80.290, 154.245 79.349 C 154.872 78.961, 155.016 79.165, 154.595 79.845 C 154.203 80.480, 153.121 81.015, 152.191 81.033 C 149.704 81.082, 146.325 84.251, 144.641 88.113 L 143.163 91.500 143.082 86.361 C 143.025 82.808, 142.393 80.493, 141.033 78.861 L 139.067 76.500 139.033 79.372 C 139.004 81.923, 138.816 82.092, 137.356 80.880 C 135.894 79.667, 135.791 79.765, 136.423 81.758 C 137.361 84.712, 136.262 84.603, 133.821 81.500 C 131.697 78.800, 129.728 78.127, 130.600 80.399 C 130.895 81.168, 130.675 82.083, 130.112 82.431 C 129.548 82.779, 129.382 83.837, 129.743 84.782 C 130.196 85.969, 129.370 85.637, 127.074 83.709 C 123.101 80.374, 121.940 80.837, 124.886 84.582 C 127.742 88.213, 127.545 89.115, 124.250 87.491 C 122.737 86.746, 120.150 85.852, 118.500 85.505 C 115.824 84.942, 115.716 85.006, 117.500 86.096 C 121.174 88.340, 131.080 97.253, 130.521 97.812 C 130.218 98.115, 128.485 96.924, 126.669 95.164 C 123.322 91.920, 121.303 91.829, 122.999 94.998 C 123.816 96.524, 123.548 96.655, 120.770 96.087 C 117.249 95.367, 116.832 94.363, 114.517 81.059 C 113.541 75.449, 113.502 73.166, 114.361 71.783 C 115.275 70.310, 115.039 69.145, 113.166 65.880 L 110.832 61.812 113.166 62.516 C 114.450 62.904, 116.871 64.521, 118.548 66.110 C 121.629 69.032, 124 69.847, 124 67.984 C 124 67.426, 125.337 68.438, 126.971 70.234 C 129.798 73.342, 129.943 73.389, 129.971 71.200 C 130.015 67.752, 127.488 63.548, 123.293 60.090 C 121.231 58.390, 120.007 57, 120.572 57 C 121.137 57, 122.059 57.459, 122.621 58.021 C 124.147 59.547, 137.511 60.636, 136.598 59.159 C 136.204 58.522, 135.303 58, 134.596 58 C 133.889 58, 132.495 57.100, 131.500 56 C 129.721 54.034, 129.753 54, 133.428 54 C 138.048 54, 137.797 52.150, 132.940 50.395 L 129.500 49.152 132.750 49.076 C 136.606 48.986, 137.194 47, 133.365 47 L 130.730 47 133.365 44.927 C 134.814 43.788, 136 42.531, 136 42.136 C 136 41.740, 134.322 40.656, 132.271 39.727 C 128.607 38.066, 128.476 38.081, 124.647 40.615 C 120.809 43.155, 120.776 43.159, 122.376 40.874 C 124.721 37.526, 124.538 35.642, 122 37 C 120.900 37.589, 120 37.818, 120 37.510 C 120 37.201, 118.662 37.641, 117.027 38.486 C 114.393 39.848, 114.120 39.851, 114.634 38.512 C 114.953 37.680, 114.968 36.360, 114.668 35.578 C 113.833 33.401, 110.071 34.871, 109.374 37.646 C 108.893 39.563, 108.487 39.819, 107.385 38.904 C 106.623 38.272, 106 37.109, 106 36.319 C 106 35.528, 105.550 35.160, 105 35.500 C 104.433 35.851, 104 35.010, 104 33.559 C 104 32.152, 103.646 31, 103.214 31 C 102.782 31, 102.366 30.212, 102.290 29.250 C 102.050 26.231, 99.071 12.737, 98.523 12.189 C 98.235 11.902, 98 13.009, 98 14.650 M 110.500 85 C 110.898 90.225, 111.406 94.695, 111.628 94.933 C 111.851 95.172, 112.505 94.895, 113.081 94.319 C 114.114 93.286, 111.757 77.386, 110.375 76.070 C 110.046 75.757, 110.102 79.775, 110.500 85 M 164 77.068 C 164 77.581, 165.425 78, 167.167 78 C 170.777 78, 170.280 76.806, 166.502 76.403 C 165.126 76.256, 164 76.556, 164 77.068 M 155.667 82.667 C 155.300 83.033, 155 83.798, 155 84.367 C 155 84.993, 155.466 84.934, 156.183 84.217 C 156.834 83.566, 157.134 82.801, 156.850 82.517 C 156.566 82.233, 156.033 82.300, 155.667 82.667 M 250 89 C 248.718 89.828, 248.754 89.972, 250.250 89.985 C 251.213 89.993, 252 89.550, 252 89 C 252 87.780, 251.887 87.780, 250 89 M 31.479 99.067 C 30.289 102.815, 26.737 107.137, 25.700 106.100 C 25.197 105.597, 24.496 103.819, 24.143 102.150 C 23.508 99.152, 23.461 99.192, 20.325 105.431 L 17.150 111.748 20.649 115.124 C 22.573 116.981, 25.099 119.516, 26.261 120.757 C 27.842 122.446, 28.574 122.698, 29.171 121.757 C 29.786 120.788, 29.973 120.823, 29.985 121.909 C 30.010 124.204, 37.990 134.124, 39.207 133.372 C 39.871 132.962, 40.025 133.150, 39.595 133.845 C 39.203 134.480, 39.359 135, 39.941 135 C 40.523 135, 41 135.474, 41 136.053 C 41 136.633, 43.587 140.518, 46.750 144.687 C 52.972 152.891, 55.809 156.971, 56.303 158.427 C 56.476 158.937, 57.125 159.041, 57.744 158.658 C 59.117 157.810, 54.731 147.375, 53.151 147.728 C 52.589 147.854, 52.213 146.732, 52.315 145.235 C 52.463 143.053, 51.824 142.174, 49.090 140.804 C 46.737 139.625, 45.595 138.305, 45.408 136.548 C 45.130 133.944, 47.447 132.840, 48.234 135.201 C 48.545 136.135, 48.798 136.135, 49.376 135.201 C 49.784 134.540, 49.641 134, 49.059 134 C 48.477 134, 48 133.369, 48 132.597 C 48 130.237, 39.170 108.866, 35.600 102.586 C 32.483 97.104, 32.183 96.847, 31.479 99.067 M 111 99.441 C 111 101.387, 112.105 101.893, 114.478 101.032 C 116.408 100.331, 116.403 100.286, 114.293 99.157 C 111.488 97.656, 111 97.698, 111 99.441 M 196.583 98.866 C 196.152 99.563, 196.070 100.403, 196.400 100.733 C 197.295 101.628, 198.271 100.312, 197.787 98.862 C 197.449 97.846, 197.213 97.846, 196.583 98.866 M 16.527 100.956 C 16.202 101.482, 15.347 101.687, 14.628 101.411 C 13.909 101.135, 12.772 101.569, 12.103 102.376 C 11.143 103.533, 11.160 104.283, 12.183 105.922 C 13.942 108.737, 14.243 108.591, 16.176 103.990 C 17.728 100.293, 17.911 98.717, 16.527 100.956 M 192.459 101.067 C 192.096 101.653, 192.014 102.348, 192.276 102.610 C 192.538 102.872, 193.019 102.392, 193.345 101.543 C 194.021 99.781, 193.445 99.471, 192.459 101.067 M 211.374 102.750 C 211.168 103.438, 210.789 104.675, 210.531 105.500 C 209.807 107.819, 208.107 107.275, 207.411 104.500 C 206.729 101.786, 205 101.068, 205 103.500 C 205 104.325, 204.148 105, 203.107 105 C 200.650 105, 200.180 106.401, 199.366 116.162 C 198.908 121.658, 199.027 124.146, 199.737 123.885 C 200.314 123.673, 203.940 121.925, 207.795 120 C 213.737 117.034, 214.972 115.966, 215.896 113 C 216.783 110.151, 216.708 109.293, 215.493 108.390 C 213.585 106.971, 213.588 106, 215.500 106 C 216.416 106, 217 105.067, 217 103.606 C 217 101.651, 216.518 101.238, 214.374 101.356 C 212.930 101.435, 211.580 102.063, 211.374 102.750 M 112 103.906 C 112 104.405, 112.900 104.577, 114 104.290 C 115.100 104.002, 116 103.594, 116 103.383 C 116 103.173, 115.100 103, 114 103 C 112.900 103, 112 103.408, 112 103.906 M 223.070 107.756 C 221.665 112.058, 222.152 114.248, 224.085 112.315 C 224.663 111.737, 224.984 109.517, 224.799 107.382 L 224.461 103.500 223.070 107.756 M 231 108.559 C 231 109.416, 231.457 109.835, 232.016 109.490 C 232.575 109.144, 232.774 108.443, 232.457 107.931 C 231.600 106.544, 231 106.802, 231 108.559 M 112 110 C 112 110.550, 112.423 111, 112.941 111 C 113.459 111, 114.160 110.550, 114.500 110 C 114.840 109.450, 114.416 109, 113.559 109 C 112.702 109, 112 109.450, 112 110 M 219.720 111.332 C 218.606 114.165, 218.788 115.612, 220.094 114.306 C 220.695 113.705, 221.020 112.377, 220.814 111.356 C 220.454 109.566, 220.415 109.565, 219.720 111.332 M 113 116.629 C 113 118.977, 113.071 119, 115.500 117.408 C 118.659 115.338, 118.659 114.538, 115.499 114.356 C 113.483 114.239, 113 114.679, 113 116.629 M 118.589 122.371 C 118.878 123.125, 118.391 124.020, 117.506 124.360 C 116.581 124.714, 116.153 124.562, 116.500 124 C 116.842 123.446, 116.432 123.281, 115.552 123.618 C 114.644 123.967, 114 125.415, 114 127.107 C 114 130.407, 114.647 130.636, 117.777 128.443 C 120.027 126.867, 121.016 121, 119.031 121 C 118.499 121, 118.300 121.617, 118.589 122.371 M 149 126.679 C 149 129.465, 151.289 134.897, 152.688 135.434 C 154.498 136.128, 154.298 134.253, 152.027 129.250 C 149.985 124.752, 149 123.915, 149 126.679 M 159.638 127.500 C 159.955 128.325, 160.391 129, 160.607 129 C 160.823 129, 161 128.325, 161 127.500 C 161 126.675, 160.564 126, 160.031 126 C 159.499 126, 159.322 126.675, 159.638 127.500 M 137.250 131.707 C 135.503 135.469, 135.685 136.214, 138 134.768 C 139.100 134.081, 140 132.502, 140 131.259 C 140 128.221, 138.777 128.420, 137.250 131.707 M 143 131.417 C 143 132.196, 143.563 133.023, 144.250 133.254 C 145.227 133.583, 145.202 134.036, 144.138 135.325 C 143.389 136.232, 143.045 137.674, 143.373 138.529 C 143.884 139.862, 144.396 139.767, 146.985 137.853 C 150.379 135.344, 151.026 132.919, 148.096 133.685 C 146.783 134.029, 145.987 133.534, 145.529 132.091 C 144.779 129.730, 143 129.255, 143 131.417 M 206 133.584 C 203.610 135.030, 203.719 135.068, 208.500 134.453 C 215.238 133.586, 217.796 132.059, 212.500 132.066 C 210.300 132.069, 207.375 132.752, 206 133.584 M 210.500 135.689 C 207.750 136.415, 204.375 136.782, 203 136.506 C 199.182 135.739, 197.773 137.303, 197.234 142.912 C 196.808 147.350, 196.960 147.952, 198.371 147.411 C 199.381 147.024, 200.006 147.302, 200.015 148.143 C 200.056 151.750, 201.605 152.109, 206.082 149.549 C 208.512 148.160, 211.258 147.019, 212.185 147.012 C 213.112 147.005, 214.976 146.579, 216.328 146.066 C 218.680 145.171, 218.742 144.924, 217.787 140.316 C 217.238 137.667, 216.499 135.245, 216.145 134.934 C 215.790 134.623, 213.250 134.963, 210.500 135.689 M 82.698 137.047 C 82.016 139.656, 85.744 151.102, 87.813 152.750 C 90.547 154.928, 91.087 154.136, 90.400 148.958 C 89.849 144.805, 90.040 143.691, 91.483 142.636 C 93.087 141.463, 92.895 141.085, 89.224 138.177 C 84.529 134.459, 83.425 134.268, 82.698 137.047 M 121 137.903 C 121 139.014, 119.893 143.409, 118.540 147.669 C 117.188 151.929, 116.234 155.567, 116.420 155.753 C 116.607 155.940, 118.388 154.556, 120.380 152.678 C 123.733 149.516, 125.177 146, 123.123 146 C 122.640 146, 122.467 144.034, 122.738 141.630 C 123.037 138.979, 122.792 136.990, 122.115 136.571 C 121.435 136.151, 121 136.671, 121 137.903 M 200.813 137.683 C 201.534 137.972, 202.397 137.936, 202.729 137.604 C 203.061 137.272, 202.471 137.036, 201.417 137.079 C 200.252 137.127, 200.015 137.364, 200.813 137.683 M 72.518 142.060 C 70.878 144.286, 69.369 145.607, 69.165 144.996 C 68.961 144.384, 69.596 142.898, 70.576 141.692 C 71.556 140.486, 70.277 141.571, 67.734 144.102 C 64.210 147.610, 63.245 149.220, 63.677 150.873 C 64.069 152.371, 64.601 152.746, 65.396 152.086 C 66.030 151.560, 69.130 151.274, 72.287 151.449 C 75.443 151.625, 78.272 151.369, 78.573 150.881 C 78.883 150.381, 79.965 150.446, 81.061 151.032 C 82.127 151.603, 82.995 151.942, 82.988 151.785 C 82.883 149.225, 78.113 138.459, 77 138.269 C 76.175 138.127, 74.158 139.833, 72.518 142.060 M 191 140.650 C 189.460 141.155, 178.826 146.119, 178.089 146.677 C 177.462 147.152, 181.178 151, 182.263 151 C 182.788 151, 182.934 149.875, 182.589 148.500 C 182.096 146.533, 182.339 146.007, 183.731 146.032 C 184.704 146.049, 186.377 146.727, 187.449 147.537 C 189.231 148.885, 189.636 148.750, 192.199 145.944 C 196.346 141.403, 195.818 139.069, 191 140.650 M 62.720 144.648 C 57.822 148.325, 57.457 149.669, 60.188 154 C 60.846 155.044, 60.966 154.501, 60.584 152.212 C 60.197 149.895, 60.457 148.762, 61.465 148.375 C 62.672 147.912, 68.686 140.941, 67.801 141.030 C 67.635 141.047, 65.349 142.675, 62.720 144.648 M 127 144 C 127 144.550, 127.450 145, 128 145 C 128.550 145, 129 144.550, 129 144 C 129 143.450, 128.550 143, 128 143 C 127.450 143, 127 143.450, 127 144 M 161.667 146.667 C 160.660 147.673, 160.867 154, 161.906 154 C 162.405 154, 162.563 155.012, 162.259 156.250 C 161.954 157.488, 162.076 158.157, 162.531 157.738 C 163.538 156.810, 163.991 146, 163.023 146 C 162.644 146, 162.033 146.300, 161.667 146.667 M 168.500 147 C 168.160 147.550, 168.332 148, 168.882 148 C 169.432 148, 170.160 147.550, 170.500 147 C 170.840 146.450, 170.668 146, 170.118 146 C 169.568 146, 168.840 146.450, 168.500 147 M 129.206 148.101 C 127.275 148.831, 127.083 149.287, 127.991 150.984 C 128.585 152.093, 129.580 153, 130.202 153 C 130.824 153, 131.049 152.716, 130.702 152.369 C 130.355 152.021, 130.541 150.858, 131.116 149.783 C 132.432 147.324, 132.080 147.014, 129.206 148.101 M 171.137 152.563 C 167.875 158.586, 169.017 159.475, 172.884 153.923 C 174.700 151.316, 175.139 151.036, 174.727 152.751 C 174.430 153.990, 174.550 154.778, 174.994 154.503 C 175.991 153.888, 175.883 147, 174.877 147 C 174.477 147, 172.794 149.503, 171.137 152.563 M 168.799 150.750 C 166.139 153.591, 164.243 158.001, 165.683 157.999 C 166.132 157.998, 167.763 155.748, 169.308 152.999 C 170.852 150.250, 171.949 148, 171.745 148 C 171.541 148, 170.216 149.238, 168.799 150.750 M 134.959 152.858 C 135.431 154.503, 135.558 156.108, 135.242 156.425 C 134.926 156.741, 135.417 157, 136.333 157 C 137.250 157, 138 156.550, 138 156 C 138 155.450, 137.627 155, 137.171 155 C 136.714 155, 136.377 154.033, 136.421 152.851 C 136.464 151.669, 135.960 150.514, 135.301 150.285 C 134.424 149.979, 134.332 150.670, 134.959 152.858 M 157.162 153 C 158.569 157.340, 159 157.893, 159 155.358 C 159 154.271, 158.331 152.509, 157.514 151.441 C 156.163 149.677, 156.131 149.820, 157.162 153 M 214.449 154.468 C 212.543 159.031, 212.530 159.004, 216 157.694 C 218.343 156.810, 219 155.952, 219 153.781 C 219 149.794, 216.227 150.212, 214.449 154.468 M 66.395 153.586 C 66.728 154.454, 67 155.647, 67 156.237 C 67 156.827, 67.823 156.565, 68.829 155.655 C 69.835 154.745, 70.957 154, 71.322 154 C 72.245 154, 71.642 157.064, 70.205 159.678 C 68.781 162.266, 69.479 164.630, 71.849 165.250 C 74.380 165.912, 75.503 164.028, 75.476 159.166 C 75.449 154.471, 74.690 153.689, 69.145 152.641 C 66.353 152.114, 65.891 152.273, 66.395 153.586 M 153.517 152.972 C 152.925 153.930, 155.921 159.412, 156.642 158.691 C 156.847 158.487, 156.730 156.898, 156.382 155.160 C 155.749 151.995, 154.643 151.150, 153.517 152.972 M 130.500 155 C 128.743 156.941, 128.753 157, 130.845 157 C 132.333 157, 133 156.381, 133 155 C 133 153.900, 132.845 153, 132.655 153 C 132.465 153, 131.495 153.900, 130.500 155 M 146.565 153.895 C 146.260 154.388, 146.721 155.063, 147.588 155.395 C 150.084 156.353, 151 156.113, 151 154.500 C 151 152.890, 147.482 152.410, 146.565 153.895 M 206.123 155.629 C 204.408 159.393, 205.541 159.788, 207.452 156.093 C 208.332 154.392, 208.662 153, 208.186 153 C 207.710 153, 206.782 154.183, 206.123 155.629 M 30.020 158.476 C 29.231 159.426, 29.155 160, 29.819 160 C 31.027 160, 32.436 158.103, 31.743 157.409 C 31.491 157.158, 30.716 157.638, 30.020 158.476 M 216.500 162 C 216.160 162.550, 216.332 163, 216.882 163 C 217.432 163, 218.160 162.550, 218.500 162 C 218.840 161.450, 218.668 161, 218.118 161 C 217.568 161, 216.840 161.450, 216.500 162 M 134 163.500 C 134 164.325, 134.450 165, 135 165 C 135.550 165, 136 165.675, 136 166.500 C 136 167.325, 136.675 168, 137.500 168 C 138.325 168, 139 167.564, 139 167.031 C 139 166.499, 139.680 166.324, 140.511 166.643 C 141.572 167.050, 141.846 166.763, 141.431 165.681 C 141.106 164.833, 139.459 163.658, 137.771 163.070 C 133.905 161.722, 134 161.712, 134 163.500 M 144 167 C 144 171.026, 144.892 171.746, 148.270 170.450 C 149.899 169.825, 149.413 164.975, 147.601 163.765 C 145.090 162.090, 144 163.069, 144 167 M 68 171.066 C 68 175.180, 69.641 178, 72.035 178 C 73.116 178, 74 177.702, 74 177.338 C 74 176.403, 69.013 168, 68.458 168 C 68.206 168, 68 169.380, 68 171.066 M 130.667 168.667 C 129.658 169.675, 129.869 172, 130.969 172 C 131.501 172, 131.650 171.251, 131.299 170.336 C 130.869 169.217, 131.043 168.909, 131.830 169.395 C 132.474 169.793, 133 170.766, 133 171.559 C 133 172.352, 133.450 173, 134 173 C 135.631 173, 135.137 169.266, 133.418 168.607 C 131.460 167.855, 131.478 167.855, 130.667 168.667 M 125.500 171 C 125.160 171.550, 125.610 172, 126.500 172 C 127.390 172, 127.840 171.550, 127.500 171 C 127.160 170.450, 126.710 170, 126.500 170 C 126.290 170, 125.840 170.450, 125.500 171 M 138 172.500 C 138 174.182, 138.184 174.250, 140.412 173.395 C 142.243 172.693, 141.557 171, 139.441 171 C 138.648 171, 138 171.675, 138 172.500 M 158.638 173.500 C 158.322 174.325, 158.499 175, 159.031 175 C 159.564 175, 160 174.325, 160 173.500 C 160 172.675, 159.823 172, 159.607 172 C 159.391 172, 158.955 172.675, 158.638 173.500 M 75 175 C 76.086 177.029, 78.469 177.525, 81.517 176.355 C 82.775 175.872, 82.230 175.373, 79.349 174.370 C 74.216 172.583, 73.743 172.652, 75 175 M 153.543 173.931 C 153.226 174.443, 153.425 175.144, 153.984 175.490 C 155.177 176.227, 157 175.291, 157 173.941 C 157 172.724, 154.293 172.716, 153.543 173.931 M 167.500 175 C 167.160 175.550, 167.359 176, 167.941 176 C 168.523 176, 169 175.550, 169 175 C 169 174.450, 168.802 174, 168.559 174 C 168.316 174, 167.840 174.450, 167.500 175 M 71 180.885 C 71 182.426, 73.920 188.565, 73.961 187.110 C 73.982 186.346, 74.748 185.173, 75.662 184.505 C 77.981 182.810, 76.652 180, 73.531 180 C 72.139 180, 71 180.398, 71 180.885 M 78 181 C 78 181.550, 78.675 182, 79.500 182 C 80.325 182, 81 181.550, 81 181 C 81 180.450, 80.325 180, 79.500 180 C 78.675 180, 78 180.450, 78 181 M 29 181.393 C 29 181.609, 29.698 182.054, 30.552 182.382 C 31.442 182.723, 31.843 182.555, 31.493 181.989 C 30.906 181.038, 29 180.583, 29 181.393 M 139.699 182.958 C 140.466 185.891, 142.239 186.706, 141.834 183.939 C 141.650 182.684, 140.973 181.483, 140.329 181.271 C 139.582 181.026, 139.354 181.638, 139.699 182.958 M 209 183.393 C 209 183.609, 209.698 184.054, 210.552 184.382 C 211.442 184.723, 211.843 184.555, 211.493 183.989 C 210.906 183.038, 209 182.583, 209 183.393 M 120.733 185.124 C 121.412 185.808, 122.219 186.115, 122.526 185.807 C 122.834 185.499, 122.279 184.940, 121.293 184.564 C 119.868 184.022, 119.753 184.136, 120.733 185.124 M 214 186.500 C 214 187.325, 214.730 188, 215.622 188 C 216.951 188, 217.020 187.729, 216 186.500 C 215.315 185.675, 214.585 185, 214.378 185 C 214.170 185, 214 185.675, 214 186.500 M 128 188.810 C 128 189.347, 128.713 190.059, 129.584 190.394 C 130.557 190.767, 131.015 190.544, 130.771 189.813 C 130.273 188.318, 128 187.495, 128 188.810 M 134 192.594 C 134 194.467, 134.450 196, 135 196 C 135.550 196, 136 195.523, 136 194.941 C 136 194.359, 136.338 194.090, 136.750 194.345 C 137.162 194.600, 137.562 193.766, 137.639 192.492 C 137.729 190.988, 137.115 190.002, 135.889 189.681 C 134.310 189.268, 134 189.746, 134 192.594 M 147.398 189.765 C 146.232 190.542, 145.713 200.027, 146.840 199.962 C 148.273 199.880, 152.917 191.948, 152.369 190.520 C 151.753 188.914, 149.246 188.533, 147.398 189.765 M 191.334 196.740 C 188.067 203.827, 185.682 218.718, 188.221 216.179 C 188.869 215.531, 191.466 215, 193.990 215 L 198.581 215 203.304 204.791 L 208.027 194.583 205.876 192.541 C 204.693 191.419, 204.007 191.012, 204.351 191.637 C 204.696 192.262, 204.308 193.329, 203.489 194.009 C 202.278 195.014, 202 194.953, 202 193.681 C 202 192.822, 201.627 191.888, 201.172 191.606 C 200.716 191.324, 200.547 193.660, 200.796 196.797 C 201.318 203.377, 200.743 203.179, 197.094 195.526 L 194.451 189.980 191.334 196.740 M 120.459 193.067 C 120.096 193.653, 119.957 194.239, 120.150 194.369 C 122.581 196.009, 126.044 198, 126.465 198 C 127.776 198, 126.835 193.151, 125.418 192.607 C 123.053 191.699, 121.198 191.871, 120.459 193.067 M 68.250 193.662 C 65.974 194.581, 66.947 197.235, 71.267 201.896 C 73.613 204.428, 76.510 207.850, 77.704 209.500 C 79.749 212.325, 79.724 212.071, 77.271 205.156 C 75.504 200.174, 73.997 197.541, 72.583 196.970 C 71.438 196.506, 71.118 196.098, 71.872 196.063 C 72.979 196.012, 73.003 195.709, 72 194.500 C 70.696 192.928, 70.292 192.838, 68.250 193.662 M 76 193.992 C 76 194.546, 76.375 195, 76.833 195 C 77.292 195, 77.677 195.563, 77.689 196.250 C 77.701 196.938, 78.404 199.129, 79.251 201.121 C 80.461 203.968, 81.463 204.841, 83.938 205.204 C 86.522 205.583, 86.964 205.382, 86.408 204.083 C 86.035 203.212, 85.189 201.016, 84.527 199.202 C 83.481 196.332, 83.158 196.105, 82.040 197.452 C 80.304 199.543, 78.734 199.413, 79.425 197.236 C 79.778 196.124, 79.249 195.012, 77.993 194.227 C 76.809 193.488, 76 193.392, 76 193.992 M 130 195.500 C 130.928 196.618, 130.944 197, 130.063 197 C 129.414 197, 129.160 197.450, 129.500 198 C 130.574 199.738, 131.556 199.089, 131.771 196.500 C 131.913 194.782, 131.474 194, 130.366 194 C 129.048 194, 128.981 194.272, 130 195.500 M 121 198 C 121.589 199.100, 122.493 200, 123.010 200 C 123.526 200, 124.617 201.293, 125.434 202.873 C 126.251 204.453, 127.794 205.974, 128.861 206.254 C 130.672 206.727, 130.715 206.551, 129.491 203.631 C 128.769 201.909, 127.355 200.334, 126.349 200.131 C 125.344 199.927, 123.928 198.915, 123.204 197.881 C 121.411 195.321, 119.618 195.418, 121 198 M 135.336 199.567 C 134.263 202.363, 136.562 203.256, 137.806 200.527 C 138.760 198.432, 138.699 198, 137.447 198 C 136.617 198, 135.667 198.705, 135.336 199.567 M 161.348 199.816 C 160.330 200.476, 157.372 213.823, 158.128 214.348 C 163.449 218.037, 163.981 218.136, 165.111 215.655 C 165.905 213.912, 165.903 212.687, 165.103 211.192 C 164.496 210.059, 164 207.103, 164 204.625 C 164 200.016, 163.221 198.603, 161.348 199.816 M 88.271 201.174 C 87.471 202.138, 87.428 203.019, 88.133 204.034 C 88.909 205.150, 89.274 205.200, 89.661 204.244 C 90.012 203.379, 90.755 203.689, 92.052 205.244 C 93.606 207.107, 93.939 207.205, 93.967 205.809 C 93.985 204.879, 93.570 203.852, 93.044 203.527 C 92.518 203.202, 92.377 202.163, 92.731 201.218 C 93.279 199.755, 93.139 199.691, 91.784 200.792 C 90.628 201.731, 90.090 201.770, 89.811 200.932 C 89.543 200.130, 89.076 200.203, 88.271 201.174 M 184.882 200.750 C 184.816 201.162, 184.841 201.910, 184.935 202.411 C 185.030 202.912, 184.135 205.583, 182.947 208.345 C 180.596 213.811, 179.376 221, 180.800 221 C 182.989 221, 184.976 216.977, 185.514 211.458 C 185.834 208.181, 186.287 204.262, 186.523 202.750 C 186.758 201.238, 186.511 200, 185.975 200 C 185.439 200, 184.947 200.338, 184.882 200.750 M 155.204 202.811 C 153.942 203.783, 152.788 205.704, 152.642 207.081 C 152.495 208.458, 152.037 210.131, 151.624 210.799 C 150.730 212.246, 153.321 213.475, 155.500 212.638 C 156.325 212.322, 157 211.163, 157 210.063 C 157 208.608, 156.546 208.237, 155.336 208.701 C 154.217 209.131, 153.909 208.957, 154.395 208.170 C 154.793 207.526, 155.766 207, 156.559 207 C 157.352 207, 158 206.362, 158 205.582 C 158 204.802, 158.273 203.452, 158.607 202.582 C 159.399 200.518, 158.068 200.607, 155.204 202.811 M 68.314 203.376 C 68.657 204.269, 68.534 205, 68.042 205 C 66.534 205, 66.284 208.358, 67.591 211.035 C 68.272 212.430, 69.993 214.193, 71.415 214.954 C 72.837 215.715, 74 216.742, 74 217.236 C 74 217.730, 74.897 217.850, 75.994 217.502 C 77.423 217.048, 77.840 217.253, 77.467 218.226 C 76.787 219.999, 82.843 224.557, 84.146 223.254 C 84.748 222.652, 83.548 220.343, 80.886 216.975 C 76.752 211.745, 76.657 211.692, 75.723 214.074 C 75.158 215.515, 74.581 215.990, 74.301 215.244 C 74.041 214.553, 73.341 214.289, 72.745 214.658 C 72.056 215.083, 71.892 214.725, 72.294 213.676 C 72.643 212.767, 72.607 212.131, 72.214 212.262 C 71.821 212.393, 71.500 212.050, 71.500 211.500 C 71.500 210.950, 72.684 210.522, 74.132 210.549 L 76.763 210.599 74.682 207.783 C 73.537 206.235, 71.496 204.244, 70.145 203.360 C 67.885 201.879, 67.740 201.880, 68.314 203.376 M 122.583 202.866 C 122.152 203.563, 122.070 204.403, 122.400 204.733 C 123.295 205.628, 124.271 204.312, 123.787 202.862 C 123.449 201.846, 123.213 201.846, 122.583 202.866 M 96.490 205.875 C 96.771 207.731, 97 209.644, 97 210.125 C 97 210.606, 97.730 211, 98.622 211 C 99.781 211, 99.962 210.642, 99.257 209.750 C 98.713 209.063, 97.754 207.150, 97.124 205.500 L 95.980 202.500 96.490 205.875 M 139.188 204.273 C 138.032 205.666, 138.082 208.341, 139.272 208.750 C 142.790 209.958, 143.991 207.889, 141.600 204.739 C 140.525 203.323, 140.053 203.232, 139.188 204.273 M 53 206 C 53 206.550, 53.450 207, 54 207 C 54.550 207, 55 206.550, 55 206 C 55 205.450, 54.550 205, 54 205 C 53.450 205, 53 205.450, 53 206 M 82.593 207.250 C 84.076 209.858, 86.360 212, 87.655 212 C 89.767 212, 89.229 209.274, 86.777 207.557 C 84.091 205.675, 81.593 205.492, 82.593 207.250 M 147.775 207.250 C 147.533 207.938, 147.665 209.625, 148.068 211 C 148.471 212.375, 148.852 212.825, 148.914 212 C 148.976 211.175, 149.299 209.488, 149.630 208.250 C 150.253 205.928, 148.560 205.016, 147.775 207.250 M 173.727 208 C 172.329 209.100, 170.693 210, 170.092 210 C 168.789 210, 168.618 213.646, 169.885 214.429 C 170.372 214.730, 172.126 214.503, 173.783 213.926 C 176.203 213.082, 176.875 212.199, 177.197 209.438 C 177.662 205.458, 177.202 205.267, 173.727 208 M 90.015 208.715 C 90.024 209.147, 90.455 210.171, 90.974 210.992 C 91.684 212.115, 92.200 212.200, 93.066 211.334 C 93.931 210.469, 93.694 209.907, 92.107 209.057 C 90.948 208.437, 90.007 208.283, 90.015 208.715 M 58.473 210.970 C 60.162 212.836, 59.041 214.761, 57 213.500 C 55.707 212.701, 55.735 213.942, 57.098 217.851 C 58.327 221.377, 58.823 221.581, 61.462 219.652 C 63.685 218.026, 62.717 216.012, 59.691 215.968 C 57.657 215.939, 57.625 215.841, 59.250 214.608 C 61.626 212.804, 61.456 210.352, 58.908 209.686 C 56.938 209.171, 56.913 209.246, 58.473 210.970 M 50 211.378 C 50 211.585, 50.788 212.373, 51.750 213.128 C 53.336 214.371, 53.371 214.336, 52.128 212.750 C 50.821 211.084, 50 210.555, 50 211.378 M 140.500 212 C 139.771 213.180, 140.717 215, 142.059 215 C 142.577 215, 143 214.100, 143 213 C 143 210.891, 141.545 210.309, 140.500 212 M 63 213 C 63 213.550, 63.423 214, 63.941 214 C 64.459 214, 65.160 213.550, 65.500 213 C 65.840 212.450, 65.416 212, 64.559 212 C 63.702 212, 63 212.450, 63 213 M 65.133 218.500 C 67.179 221.969, 68.690 223.239, 67.700 220.659 C 67.417 219.922, 67.587 218.684, 68.077 217.909 C 68.838 216.708, 68.972 216.714, 68.985 217.950 C 68.997 219.078, 69.267 219.133, 70.200 218.200 C 72.135 216.265, 69.754 214.526, 67.107 215.943 C 65.714 216.688, 65 216.719, 65 216.035 C 65 215.466, 64.565 215, 64.034 215 C 63.502 215, 63.997 216.575, 65.133 218.500 M 50.750 217.662 C 51.438 217.940, 52.563 217.940, 53.250 217.662 C 53.938 217.385, 53.375 217.158, 52 217.158 C 50.625 217.158, 50.063 217.385, 50.750 217.662 M 87 217.524 C 87 218.976, 89.378 225, 89.951 224.999 C 91.381 224.997, 90.564 219.916, 88.891 218.401 C 87.851 217.460, 87 217.065, 87 217.524 M 93.082 219.153 C 93.642 220.200, 94.597 220.749, 95.205 220.373 C 95.861 219.968, 96.027 220.148, 95.614 220.816 C 94.845 222.059, 97.557 228, 98.892 228 C 99.354 228, 99.059 225.581, 98.237 222.625 C 96.973 218.084, 96.378 217.250, 94.402 217.250 C 92.413 217.250, 92.216 217.534, 93.082 219.153 M 100.787 219.750 C 100.488 221.208, 102.672 233.005, 103.370 233.703 C 103.489 233.823, 104.521 233.677, 105.662 233.378 C 107.483 232.902, 107.676 232.266, 107.246 228.168 C 106.977 225.601, 106.361 223.072, 105.878 222.550 C 104.677 221.250, 104.767 219.738, 106 220.500 C 106.550 220.840, 107 220.593, 107 219.952 C 107 219.311, 106.339 219.040, 105.532 219.349 C 104.725 219.659, 103.798 219.482, 103.473 218.956 C 102.536 217.441, 101.179 217.842, 100.787 219.750 M 165.015 219.191 C 165.007 220.121, 165.450 221.160, 166 221.500 C 167.266 222.282, 167.266 220.958, 166 219 C 165.165 217.707, 165.029 217.734, 165.015 219.191 M 170 220 C 170 220.550, 170.648 221, 171.441 221 C 172.234 221, 173.160 220.550, 173.500 220 C 173.840 219.450, 173.191 219, 172.059 219 C 170.927 219, 170 219.450, 170 220 M 175 220 C 175 220.550, 175.423 221, 175.941 221 C 176.459 221, 177.160 220.550, 177.500 220 C 177.840 219.450, 177.416 219, 176.559 219 C 175.702 219, 175 219.450, 175 220 M 62.400 220.765 C 60.550 222.001, 60.260 224.355, 61.570 227.488 C 62.611 229.977, 63.392 230.478, 66.250 230.488 C 69.029 230.498, 69.595 230.167, 69.224 228.750 C 68.717 226.811, 67.451 226.462, 66.500 228 C 66.160 228.550, 65.346 228.990, 64.691 228.978 C 64.036 228.966, 64.579 228.126, 65.898 227.112 C 68.283 225.278, 68.286 225.255, 66.398 222.666 C 64.323 219.820, 64.027 219.679, 62.400 220.765 M 109.711 220.634 C 110.472 220.952, 110.705 222.227, 110.337 224.064 C 109.753 226.985, 111.555 233, 113.014 233 C 114.386 233, 115.056 229.818, 114.410 226.375 C 114.064 224.528, 113.380 223.265, 112.890 223.568 C 112.401 223.870, 112 223.641, 112 223.059 C 112 222.477, 112.525 222, 113.167 222 C 115.140 222, 113.086 220.630, 110.724 220.371 C 109.501 220.237, 109.045 220.355, 109.711 220.634 M 116.518 222.250 C 115.916 224.854, 116.316 229.084, 117.316 230.702 C 117.696 231.317, 117.704 232.609, 117.333 233.574 C 116.867 234.789, 117.028 235.101, 117.856 234.589 C 119.079 233.833, 119.136 227, 117.921 227 C 117.552 227, 117.250 225.883, 117.250 224.518 C 117.250 223.153, 117.644 222.280, 118.125 222.577 C 118.606 222.875, 119 222.416, 119 221.559 C 119 219.177, 117.106 219.704, 116.518 222.250 M 69.775 222.558 C 69.031 223.302, 70.032 227, 70.978 227 C 71.388 227, 71.508 225.875, 71.245 224.500 C 70.733 221.825, 70.636 221.697, 69.775 222.558 M 92.032 223.191 C 92.014 224.121, 92.480 225.179, 93.067 225.541 C 94.829 226.630, 95.076 225.482, 93.521 223.427 C 92.241 221.735, 92.060 221.706, 92.032 223.191 M 53 224 C 53 224.550, 53.450 225, 54 225 C 54.550 225, 55 224.550, 55 224 C 55 223.450, 54.550 223, 54 223 C 53.450 223, 53 223.450, 53 224 M 74.861 224.914 C 71.380 227.736, 72.949 228.066, 76.898 225.343 C 78.784 224.042, 79.612 223, 78.759 223 C 77.913 223, 76.159 223.861, 74.861 224.914 M 124.651 224.468 C 124.341 225.275, 124.518 226.202, 125.044 226.527 C 125.570 226.852, 126 226.191, 126 225.059 C 126 222.644, 125.444 222.401, 124.651 224.468 M 64 225 C 62.707 225.835, 62.734 225.971, 64.191 225.985 C 65.121 225.993, 66.160 225.550, 66.500 225 C 67.282 223.734, 65.958 223.734, 64 225 M 192.500 225 C 192.160 225.550, 190.769 226, 189.410 226 C 186.378 226, 185.792 227.377, 186.190 233.556 L 186.500 238.357 190.068 232.928 C 192.030 229.943, 193.929 226.713, 194.287 225.750 C 194.975 223.899, 193.550 223.301, 192.500 225 M 76.553 226.915 C 76.242 227.418, 76.553 228.057, 77.244 228.336 C 78.242 228.738, 78.243 228.858, 77.250 228.921 C 76.563 228.964, 76 229.477, 76 230.059 C 76 230.641, 76.385 230.880, 76.856 230.589 C 77.326 230.298, 77.487 231.231, 77.214 232.661 C 76.941 234.091, 77.118 235.083, 77.608 234.865 C 80.423 233.613, 86 229.673, 86 228.936 C 86 226.653, 77.799 224.898, 76.553 226.915 M 181.790 228.094 C 180.850 228.622, 179.745 230.730, 179.335 232.777 C 178.926 234.825, 178.533 236.725, 178.464 237 C 177.437 241.052, 177.045 243.371, 176.605 248 C 176.187 252.384, 176.307 253.094, 177.196 251.500 C 177.810 250.400, 179.611 247.836, 181.199 245.802 C 183.880 242.368, 184.065 241.569, 183.793 234.618 C 183.530 227.892, 183.327 227.231, 181.790 228.094 M 92 229.355 C 92 230.139, 93.987 233.480, 96.416 236.779 C 100.858 242.813, 103.327 245.228, 102.572 242.802 C 102.349 242.086, 101.896 240.262, 101.564 238.750 C 101.233 237.238, 100.310 236, 99.512 236 C 98.615 236, 98.289 235.411, 98.657 234.452 C 99.226 232.968, 97.681 231.235, 93.750 228.948 C 92.426 228.177, 92 228.276, 92 229.355 M 54.813 229.683 C 55.534 229.972, 56.397 229.936, 56.729 229.604 C 57.061 229.272, 56.471 229.036, 55.417 229.079 C 54.252 229.127, 54.015 229.364, 54.813 229.683 M 172.699 230.250 C 170.774 231.680, 170.030 240.430, 171.692 242.092 C 172.745 243.145, 174.246 240.223, 175.414 234.843 C 175.732 233.381, 176.267 231.469, 176.603 230.593 C 177.346 228.656, 175.109 228.460, 172.699 230.250 M 84.163 232.263 C 82.316 233.148, 81.939 233.946, 82.365 236.073 C 82.661 237.553, 82.615 239.051, 82.264 239.402 C 81.365 240.301, 81.185 244.004, 82.066 243.459 C 82.465 243.212, 83.996 243.635, 85.467 244.398 C 87.200 245.298, 87.677 245.959, 86.821 246.276 C 85.862 246.632, 86.150 247.415, 87.871 249.133 L 90.243 251.500 89.581 248.666 C 89.218 247.108, 89.297 246.065, 89.758 246.350 C 90.218 246.635, 91.170 246.513, 91.872 246.079 C 92.874 245.460, 92.646 243.827, 90.809 238.474 C 89.523 234.724, 88.027 231.541, 87.485 231.400 C 86.943 231.259, 85.448 231.647, 84.163 232.263 M 65 232.489 C 65 233.702, 68.592 237, 69.913 237 C 70.991 237, 70.865 236.609, 69.441 235.532 C 67.957 234.409, 67.853 234.053, 69 234.016 C 70.333 233.975, 70.333 233.862, 69 233 C 67.413 231.975, 65 231.666, 65 232.489 M 121 233.031 C 121 233.564, 121.675 234, 122.500 234 C 123.325 234, 124 233.823, 124 233.607 C 124 233.391, 123.325 232.955, 122.500 232.638 C 121.675 232.322, 121 232.499, 121 233.031 M 165.803 235.561 C 165.574 237.519, 165.750 239.346, 166.194 239.620 C 166.637 239.894, 167 238.291, 167 236.059 C 167 231.049, 166.361 230.783, 165.803 235.561 M 58.500 235 C 58.160 235.550, 58.332 236, 58.882 236 C 59.432 236, 60.160 235.550, 60.500 235 C 60.840 234.450, 60.668 234, 60.118 234 C 59.568 234, 58.840 234.450, 58.500 235 M 180.733 236.124 C 181.412 236.808, 182.219 237.115, 182.526 236.807 C 182.834 236.499, 182.279 235.940, 181.293 235.564 C 179.868 235.022, 179.753 235.136, 180.733 236.124 M 78 237 C 78 237.550, 78.450 238, 79 238 C 79.550 238, 80 237.550, 80 237 C 80 236.450, 79.550 236, 79 236 C 78.450 236, 78 236.450, 78 237 M 112.704 236.670 C 112.373 237.205, 112.979 238.394, 114.051 239.312 C 116.294 241.232, 116.630 240.244, 114.653 237.540 C 113.903 236.514, 113.039 236.128, 112.704 236.670 M 117.333 239.414 C 117.660 241.566, 118.408 243.808, 118.995 244.395 C 119.752 245.152, 119.884 244.304, 119.447 241.481 C 119.109 239.292, 118.361 237.050, 117.786 236.500 C 117.061 235.808, 116.922 236.704, 117.333 239.414 M 72 238.559 C 72 239.416, 72.457 239.835, 73.016 239.490 C 73.575 239.144, 73.774 238.443, 73.457 237.931 C 72.600 236.544, 72 236.802, 72 238.559 M 121 239 C 121 240.619, 121.667 241, 124.500 241 C 128.164 241, 128.812 240.212, 126.800 238.200 C 124.788 236.188, 121 236.710, 121 239 M 131.505 238.992 C 131.168 239.538, 131.352 240.775, 131.915 241.742 C 132.888 243.411, 132.941 243.412, 132.970 241.750 C 132.986 240.787, 133.450 240, 134 240 C 134.550 240, 135 239.550, 135 239 C 135 237.706, 132.304 237.700, 131.505 238.992 M 95 239.882 C 95 240.432, 95.450 241.160, 96 241.500 C 96.550 241.840, 97 241.668, 97 241.118 C 97 240.568, 96.550 239.840, 96 239.500 C 95.450 239.160, 95 239.332, 95 239.882 M 73.500 242 C 73.840 242.550, 74.316 243, 74.559 243 C 74.802 243, 75 242.550, 75 242 C 75 241.450, 74.523 241, 73.941 241 C 73.359 241, 73.160 241.450, 73.500 242 M 107.710 243 C 107.423 244.100, 107.595 245, 108.094 245 C 108.592 245, 109 244.100, 109 243 C 109 241.900, 108.827 241, 108.617 241 C 108.406 241, 107.998 241.900, 107.710 243 M 153.452 243.433 C 152.230 245.298, 152.034 246.992, 152.611 250.683 C 153.026 253.332, 153.396 256.850, 153.433 258.500 C 153.494 261.220, 153.780 261.473, 156.500 261.205 C 158.811 260.978, 159.155 261.147, 158 261.940 C 156.746 262.801, 156.828 262.960, 158.500 262.914 C 163.556 262.775, 164.463 261.626, 164.605 255.176 C 164.679 251.803, 164.348 249.285, 163.870 249.580 C 163.391 249.876, 163 249.571, 163 248.903 C 163 246.990, 158.052 241, 156.472 241 C 155.688 241, 154.329 242.095, 153.452 243.433 M 130 243.059 C 130 243.641, 129.438 243.794, 128.750 243.399 C 128.063 243.003, 127.851 243.065, 128.279 243.535 C 129.617 245.006, 131.901 244.906, 131.324 243.401 C 130.688 241.744, 130 241.566, 130 243.059 M 121.442 243.906 C 121.750 244.404, 122.902 244.577, 124.001 244.289 C 126.753 243.570, 126.505 243, 123.441 243 C 122.034 243, 121.134 243.408, 121.442 243.906 M 172.471 245.351 C 171.905 245.983, 171.617 247.400, 171.830 248.500 C 172.043 249.600, 171.875 250.169, 171.457 249.765 C 170.517 248.857, 168 253.523, 168 256.173 C 168 258.999, 169.735 257.485, 170.503 253.989 C 170.864 252.345, 171.537 251, 172 251 C 172.837 251, 174.504 245.154, 173.845 244.529 C 173.655 244.349, 173.037 244.719, 172.471 245.351 M 74.389 246.570 C 74.725 247.447, 75 248.378, 75 248.641 C 75 248.903, 75.450 248.840, 76 248.500 C 77.484 247.583, 77.213 246.296, 75.389 245.596 C 74.209 245.143, 73.941 245.404, 74.389 246.570 M 82 246.059 C 82 246.641, 81.550 246.840, 81 246.500 C 79.235 245.409, 79.928 246.819, 82.542 249.640 C 84.494 251.746, 84.937 251.932, 84.449 250.441 C 83.949 248.914, 84.255 249.033, 85.885 251 C 88.663 254.354, 88.568 252.458, 85.750 248.319 C 83.486 244.993, 82 244.097, 82 246.059 M 126 246.059 C 126 246.641, 126.450 246.840, 127 246.500 C 127.550 246.160, 128 245.684, 128 245.441 C 128 245.198, 127.550 245, 127 245 C 126.450 245, 126 245.477, 126 246.059 M 82.500 248 C 82.840 248.550, 83.316 249, 83.559 249 C 83.802 249, 84 248.550, 84 248 C 84 247.450, 83.523 247, 82.941 247 C 82.359 247, 82.160 247.450, 82.500 248 M 69.872 249.750 C 68.658 251.298, 68.683 251.357, 70.092 250.259 C 70.968 249.576, 72.052 249.351, 72.502 249.759 C 72.952 250.166, 72.997 249.938, 72.601 249.250 C 71.672 247.634, 71.508 247.664, 69.872 249.750 M 91.234 249.750 C 91.294 250.713, 91.010 252.512, 90.604 253.750 C 90.182 255.034, 90.277 256, 90.826 256 C 92.045 256, 93.188 253.113, 92.444 251.910 C 92.135 251.409, 92.359 251, 92.941 251 C 93.523 251, 94 250.325, 94 249.500 C 94 248.675, 93.353 248, 92.562 248 C 91.771 248, 91.173 248.787, 91.234 249.750 M 125.685 249.378 C 125.394 250.136, 125.661 251.261, 126.278 251.878 C 127.107 252.707, 127.103 253, 126.262 253 C 125.636 253, 125.185 253.811, 125.260 254.802 C 125.420 256.930, 129 257.539, 129 255.438 C 129 254.562, 130 254, 131.559 254 C 133.017 254, 133.851 253.568, 133.498 252.996 C 133.157 252.444, 131.780 252.268, 130.439 252.605 C 129.030 252.958, 128 252.780, 128 252.182 C 128 251.612, 128.787 250.941, 129.750 250.689 C 131.417 250.254, 131.417 250.226, 129.750 250.116 C 128.787 250.052, 128 249.550, 128 249 C 128 247.512, 126.294 247.791, 125.685 249.378 M 135.079 250.583 C 135.127 251.748, 135.364 251.985, 135.683 251.188 C 135.972 250.466, 135.936 249.603, 135.604 249.271 C 135.272 248.939, 135.036 249.529, 135.079 250.583 M 77 250.581 C 77 250.866, 77.705 252.463, 78.568 254.131 C 79.589 256.106, 80.652 256.964, 81.620 256.593 C 82.505 256.253, 82.841 256.447, 82.454 257.074 C 81.628 258.411, 84.318 261.400, 88.641 263.951 C 92.747 266.373, 93.233 264.623, 89.557 260.656 C 87.937 258.908, 86.538 258.240, 85.407 258.674 C 83.989 259.218, 83.809 258.898, 84.341 256.779 C 85.174 253.458, 82.769 251.117, 80.477 253.019 C 79.217 254.065, 79.054 254.022, 79.535 252.770 C 79.866 251.906, 79.448 251.002, 78.557 250.660 C 77.701 250.332, 77 250.296, 77 250.581 M 100 251.922 C 100 253.624, 107.190 267, 108.105 267 C 108.481 267, 108.398 265.313, 107.919 263.250 C 107.440 261.188, 107.037 259.164, 107.024 258.752 C 106.979 257.360, 100 250.573, 100 251.922 M 122.158 254 C 122.158 255.375, 122.385 255.938, 122.662 255.250 C 122.940 254.563, 122.940 253.438, 122.662 252.750 C 122.385 252.063, 122.158 252.625, 122.158 254 M 114.473 254.044 C 114.148 254.570, 114.160 255.450, 114.500 256 C 115.424 257.495, 118 257.206, 118 255.607 C 118 253.911, 115.296 252.713, 114.473 254.044 M 169.709 258.733 C 168.174 261.220, 167.075 263.724, 167.266 264.297 C 167.457 264.870, 168.854 262.966, 170.370 260.066 C 173.811 253.486, 173.426 252.710, 169.709 258.733 M 92.495 256.008 C 91.914 256.947, 94.157 260, 95.429 260 C 95.743 260, 96 258.875, 96 257.500 C 96 254.983, 93.727 254.015, 92.495 256.008 M 129.590 256.627 C 128.945 258.306, 131.440 260.909, 133.750 260.968 C 135.598 261.015, 135.267 258.552, 133.171 256.655 C 130.890 254.591, 130.373 254.587, 129.590 256.627 M 97 257.794 C 97 258.379, 97.603 259.460, 98.339 260.196 C 99.076 260.933, 99.940 262.203, 100.260 263.018 C 100.690 264.113, 100.863 264.150, 100.921 263.158 C 100.964 262.419, 100.100 260.671, 99 259.273 C 97.900 257.874, 97 257.209, 97 257.794 M 122.678 258.656 C 122.305 259.028, 122 260.473, 122 261.867 C 122 263.837, 122.267 264.133, 123.200 263.200 C 123.860 262.540, 125.055 262, 125.855 262 C 127.010 262, 126.937 262.412, 125.500 264 C 124.505 265.100, 124.017 266, 124.416 266 C 124.816 266, 124.436 266.707, 123.571 267.571 C 120.490 270.653, 122.084 270.762, 127.481 267.839 C 130.496 266.206, 133.195 264.494, 133.480 264.033 C 134.457 262.452, 124.058 257.275, 122.678 258.656 M 87 261 C 87 261.550, 87.477 262, 88.059 262 C 88.641 262, 88.840 261.550, 88.500 261 C 88.160 260.450, 87.684 260, 87.441 260 C 87.198 260, 87 260.450, 87 261 M 92.393 261.582 C 92.727 262.452, 93 263.754, 93 264.475 C 93 265.196, 93.692 266.052, 94.538 266.376 C 96.861 267.268, 97.503 264.214, 95.466 261.963 C 93.331 259.603, 91.549 259.383, 92.393 261.582 M 158.500 265.999 L 154.500 266.564 157.727 267.105 C 159.501 267.403, 161.513 267.301, 162.198 266.878 C 164.131 265.683, 162.869 265.383, 158.500 265.999 M 133.079 267.583 C 133.127 268.748, 133.364 268.985, 133.683 268.188 C 133.972 267.466, 133.936 266.603, 133.604 266.271 C 133.272 265.939, 133.036 266.529, 133.079 267.583 M 99 268.882 C 99 269.432, 99.450 270.160, 100 270.500 C 100.550 270.840, 101 270.668, 101 270.118 C 101 269.568, 100.550 268.840, 100 268.500 C 99.450 268.160, 99 268.332, 99 268.882 M 128.980 269.524 C 128.284 270.362, 127.968 271.301, 128.276 271.610 C 128.585 271.919, 129.340 271.233, 129.954 270.086 C 131.264 267.638, 130.778 267.358, 128.980 269.524 M 150.500 269 C 150.840 269.550, 150.416 270, 149.559 270 C 148.702 270, 147.994 270.788, 147.986 271.750 C 147.979 272.712, 147.697 274.529, 147.360 275.786 C 146.784 277.937, 146.903 278.001, 149.374 276.875 C 151.545 275.886, 152 275.014, 152 271.839 C 152 269.728, 151.523 268, 150.941 268 C 150.359 268, 150.160 268.450, 150.500 269 M 131.666 271.427 C 131.365 272.212, 131.767 273.392, 132.559 274.049 C 133.751 275.038, 134 274.792, 134 272.622 C 134 269.812, 132.568 269.078, 131.666 271.427 M 114 277.059 C 114 278.191, 114.430 278.852, 114.956 278.527 C 115.482 278.202, 115.659 277.275, 115.349 276.468 C 114.556 274.401, 114 274.644, 114 277.059" fill="none" stroke="#000" stroke-width="2px" fill-rule="evenodd"/>
</svg>
