<svg xmlns="http://www.w3.org/2000/svg" width="280" height="257" viewBox="0 0 280 257" version="1.1">
	<path d="M 73 2.820 C 72.175 3.194, 70.316 4.304, 68.869 5.287 C 66.328 7.013, 66.124 7.006, 62.853 5.076 C 59.675 3.201, 59.059 3.163, 52.839 4.465 C 49.194 5.227, 44.306 6.897, 41.976 8.176 C 39.646 9.454, 36.898 10.944, 35.870 11.487 C 33.440 12.770, 33.492 14.666, 36 16.232 C 38.736 17.941, 38.508 19, 35.404 19 C 33.977 19, 31.464 19.787, 29.821 20.750 C 27.177 22.299, 26.897 22.903, 27.386 26 C 27.690 27.925, 28.853 30.247, 29.970 31.160 C 31.086 32.073, 32 33.282, 32 33.846 C 32 34.409, 33.575 35.440, 35.500 36.136 C 39.387 37.542, 39.757 38.506, 37.410 41.100 C 35.932 42.733, 36.125 43.068, 40.160 45.861 C 42.547 47.514, 45.279 49.562, 46.230 50.413 C 47.182 51.264, 50.445 53.363, 53.480 55.076 C 61.512 59.608, 60.534 61.798, 52.003 58.385 C 47.453 56.564, 36.352 56.779, 33.937 58.735 C 23.230 67.408, 22.541 68.808, 25.898 75.071 C 27.220 77.538, 27.513 79.118, 26.864 80.279 C 26.109 81.628, 26.651 82.250, 29.716 83.552 C 31.797 84.437, 35.075 85.388, 37 85.665 C 42.810 86.504, 43.389 86.826, 42.029 88.465 C 40.277 90.576, 37.969 98.862, 38.961 99.476 C 40.080 100.167, 39.015 104.123, 37.230 105.911 C 36.311 106.831, 35.966 108.744, 36.240 111.411 C 36.571 114.643, 36.156 116.109, 34.261 118.408 C 31.424 121.848, 31.833 125.122, 35.592 129.076 L 38.040 131.652 34.386 135.415 L 30.731 139.177 32.866 142.975 C 35.385 147.457, 35.547 149, 33.500 149 C 32.591 149, 32 149.928, 32 151.355 C 32 153.519, 31.485 153.759, 25.663 154.303 C 18.144 155.005, 14 156.681, 14 159.021 C 14 159.956, 15.087 162.322, 16.415 164.279 C 18.982 168.062, 18.844 169, 15.719 169 C 12.373 169, 6 173.177, 6 175.370 C 6 176.470, 5.186 178.300, 4.191 179.436 C 3.196 180.571, 1.869 182.709, 1.242 184.186 C 0.141 186.777, 0.282 186.962, 5.247 189.436 C 8.077 190.846, 10.979 192, 11.696 192 C 12.413 192, 13 192.675, 13 193.500 C 13 194.350, 13.975 195.057, 15.250 195.131 C 30.021 195.992, 30.405 195.954, 36.794 192.987 C 42.069 190.537, 43.181 190.308, 43.665 191.569 C 44.431 193.565, 41.873 196.260, 36.995 198.597 C 34.810 199.644, 33.018 201.026, 33.011 201.668 C 33.005 202.311, 31.402 203.825, 29.448 205.032 C 26.163 207.062, 26.015 207.359, 27.472 208.969 C 29.042 210.704, 28.634 214, 26.849 214 C 26.334 214, 26.023 214.562, 26.159 215.250 C 26.295 215.938, 25.607 218.003, 24.631 219.840 C 22.439 223.963, 23.032 225.697, 27.236 227.457 C 31.768 229.355, 31.838 229.496, 30.690 234.511 C 29.836 238.245, 29.941 239.278, 31.334 240.817 C 32.250 241.829, 33 243.202, 33 243.869 C 33 244.535, 33.882 246.808, 34.959 248.920 C 37.387 253.679, 41.957 254.929, 46.131 251.977 C 48.735 250.135, 48.784 250.141, 51.065 252.569 L 53.368 255.021 56.184 252.323 C 57.783 250.792, 59 248.559, 59 247.158 C 59 244.762, 59.058 244.742, 60.979 246.481 C 63.246 248.532, 63.134 248.727, 64.986 239.500 C 65.649 236.200, 66.689 232.375, 67.298 231 C 68.279 228.785, 68.473 229.298, 69.006 235.500 C 69.789 244.634, 72.865 249.513, 80.443 253.646 C 83.327 255.219, 83.443 255.188, 86.179 252.126 C 87.715 250.407, 89.631 249, 90.437 249 C 91.595 249, 91.818 247.846, 91.502 243.496 L 91.101 237.992 95.050 238.624 L 99 239.256 99 235.096 C 99 232.808, 98.325 229.320, 97.500 227.346 C 96.675 225.371, 96 223.586, 96 223.378 C 96 223.170, 96.675 223, 97.500 223 C 99.274 223, 99.347 222.518, 97.965 219.934 C 96.805 217.768, 98.360 217.155, 99.700 219.250 C 100.140 219.938, 101.513 221.357, 102.750 222.405 C 104.775 224.119, 105.175 224.158, 106.750 222.792 C 109.756 220.185, 114.529 219.822, 116.543 222.047 C 118.653 224.379, 121.288 224.563, 123 222.500 C 123.685 221.675, 125.059 221, 126.055 221 C 127.051 221, 128.161 220.067, 128.523 218.928 C 128.982 217.482, 129.682 217.062, 130.840 217.538 C 131.753 217.914, 134.491 218.464, 136.925 218.760 C 140.898 219.244, 141.580 219.011, 143.606 216.470 C 145.357 214.274, 146.165 213.892, 147.214 214.763 C 147.972 215.392, 149.143 215.529, 149.877 215.076 C 150.597 214.631, 153.200 214.494, 155.661 214.771 C 159.160 215.165, 160.748 214.823, 162.942 213.201 C 166.123 210.849, 172.147 210.452, 171.304 212.650 C 170.676 214.287, 173.314 214.437, 176.140 212.925 C 177.951 211.956, 178.119 212.127, 177.857 214.675 C 177.696 216.229, 178.196 220.137, 178.966 223.360 L 180.367 229.219 185.232 228.752 C 189.723 228.320, 190.203 228.492, 191.497 230.994 C 193.624 235.107, 197.579 237.164, 204.258 237.628 C 207.563 237.858, 210.601 238.253, 211.010 238.506 C 211.419 238.759, 213.272 237.848, 215.127 236.480 C 216.982 235.113, 219.251 233.728, 220.168 233.402 C 221.086 233.076, 222.369 231.390, 223.019 229.655 C 223.670 227.920, 224.677 225.498, 225.257 224.273 C 226.141 222.409, 225.699 221.051, 222.542 215.938 C 220.169 212.093, 219.123 209.477, 219.719 208.881 C 221.349 207.251, 224.003 209.085, 226.175 213.342 C 227.324 215.595, 229.427 218.895, 230.849 220.677 C 233.187 223.608, 233.593 223.773, 235.101 222.408 C 236.615 221.039, 237.282 221.412, 242.319 226.450 C 245.372 229.502, 248.326 232, 248.884 232 C 249.442 232, 251.100 230.425, 252.568 228.500 C 254.691 225.716, 255.929 225, 258.619 225 C 260.743 225, 262 224.512, 262 223.687 C 262 222.965, 263.393 221.052, 265.095 219.437 C 269.316 215.432, 272.662 208.273, 271.313 206.134 C 270.499 204.844, 271.108 203.788, 274.303 200.953 C 277.563 198.060, 278.200 196.932, 277.699 194.936 C 277.017 192.219, 272.352 189, 269.096 189 C 266.590 189, 266.557 188.757, 268.541 184.921 C 269.388 183.282, 269.808 181.498, 269.473 180.956 C 268.633 179.598, 261.423 176, 259.540 176 C 258.693 176, 258 175.370, 258 174.600 C 258 173.260, 253.876 171.987, 244.782 170.521 C 240.282 169.795, 237.451 167.367, 238.970 165.536 C 239.542 164.847, 242.670 164.006, 245.923 163.666 C 250.840 163.152, 252.482 162.455, 255.668 159.529 C 257.776 157.593, 259.868 156.007, 260.317 156.005 C 260.767 156.002, 260.839 155.068, 260.477 153.928 C 260.073 152.655, 260.418 151.196, 261.372 150.142 C 262.225 149.199, 263.626 146.745, 264.485 144.691 C 266.106 140.811, 265.634 138.601, 262.658 136.131 C 261.814 135.430, 261.438 134.040, 261.761 132.807 C 262.290 130.782, 262.058 130.714, 256.575 131.280 C 251.633 131.790, 250.918 131.655, 251.435 130.308 C 252.944 126.377, 254.190 119.857, 253.554 119.221 C 253.168 118.835, 249.960 118.445, 246.425 118.355 C 241.079 118.219, 239.387 118.605, 236.370 120.653 C 231.885 123.696, 229.529 123.103, 230.324 119.130 C 230.636 117.569, 230.382 115.782, 229.759 115.159 C 228.916 114.316, 229.207 113.409, 230.898 111.608 C 232.148 110.278, 233.765 107.461, 234.491 105.349 L 235.811 101.509 231.455 100.238 C 229.059 99.540, 226.825 98.525, 226.490 97.984 C 225.669 96.655, 221.039 96.742, 216.963 98.163 C 213.969 99.207, 213.483 99.107, 212.213 97.194 L 210.798 95.063 206.899 97.052 C 204.074 98.493, 202.968 98.691, 202.885 97.770 C 202.821 97.072, 202.703 96.050, 202.622 95.500 C 202.541 94.950, 200.810 92.743, 198.774 90.595 C 196.739 88.447, 195.327 86.279, 195.637 85.778 C 195.948 85.276, 195.243 84.615, 194.073 84.309 C 192.503 83.898, 192.106 83.240, 192.562 81.804 C 193.225 79.714, 190.595 76, 188.452 76 C 187.771 76, 186.955 75.325, 186.638 74.500 C 186.322 73.675, 185.304 73, 184.377 73 C 183.450 73, 181.151 71.200, 179.268 69 C 177.385 66.800, 175.236 65, 174.493 65 C 173.750 65, 171.461 63.415, 169.407 61.477 C 165.909 58.178, 165.457 58.024, 162.314 59.061 C 159.301 60.056, 158.759 59.930, 157.012 57.835 C 155.942 56.551, 155.052 55.163, 155.033 54.750 C 155.015 54.337, 154.352 54, 153.559 54 C 151.318 54, 150.812 52.341, 151.876 48.486 C 152.808 45.113, 152.710 44.887, 149.801 43.700 C 146.831 42.488, 146.745 42.268, 146.611 35.477 C 146.423 25.927, 143.537 21, 138.130 21 C 134.979 21, 133.878 20.347, 130.779 16.640 C 125.998 10.920, 110.903 3.005, 108.531 4.974 C 107.689 5.673, 107 6.913, 107 7.729 C 107 8.624, 106.416 8.990, 105.532 8.651 C 103.605 7.911, 102.800 9.359, 102.800 13.566 C 102.800 15.843, 102.328 17, 101.400 17 C 100.596 17, 100 15.997, 100 14.646 C 100 12.254, 95.932 7, 94.081 7 C 93.523 7, 91.547 8.520, 89.690 10.377 L 86.313 13.754 85.168 10.627 C 83.506 6.088, 76.171 1.382, 73 2.820 M 104.015 35.250 C 104.007 37.313, 104.450 39, 105 39 C 106.274 39, 106.274 34.971, 105 33 C 104.279 31.884, 104.027 32.461, 104.015 35.250" fill="none" stroke="#000" stroke-width="2px" fill-rule="evenodd"/>
</svg>
