<?xml version="1.0" encoding="utf-8"?>

<!DOCTYPE svg PUBLIC "-//W3C//DTD SVG 1.1//EN" "http://www.w3.org/Graphics/SVG/1.1/DTD/svg11.dtd">
<svg version="1.1" id="Слой_1" xmlns="http://www.w3.org/2000/svg" xmlns:xlink="http://www.w3.org/1999/xlink" x="0px" y="0px"
	 width="500px" height="500px" viewBox="0 0 500 500" enable-background="new 0 0 500 500" xml:space="preserve">
<g>
	
		<linearGradient id="SVGID_1_" gradientUnits="userSpaceOnUse" x1="325.1396" y1="-226.0699" x2="323.8448" y2="406.8963" gradientTransform="matrix(1 0 0 -1 -47.66 330.04)">
		<stop  offset="0" style="stop-color:#FFFFFF"/>
		<stop  offset="1" style="stop-color:#D7EEF6"/>
	</linearGradient>
	<rect x="-0.229" y="-1" fill="url(#SVGID_1_)" stroke="#010202" stroke-miterlimit="10" width="554.229" height="533.378"/>
	<path fill="#69B654" d="M291.7,158.494c92.019,80.605,180.995,148.353,262.01,146.961v-68.776
		c-64.729,19.685-163.907-17.797-272.334-100.646C165.895,47.793,57.01,44.026-0.143,50.411v0.649
		C54.833,46.356,170.757,52.551,291.7,158.494z"/>
	<path fill="#FCEB23" d="M322.83,198.701c95.276,102.554,168.275,165.614,230.881,184.889v-78.135
		c-81.015,1.392-169.992-66.356-262.01-146.961C170.757,52.551,54.833,46.356-0.143,51.06v0.86
		C73.75,46.771,201.009,67.577,322.83,198.701z"/>
	<path fill="#1DB7EC" d="M244.198,156.784C139.572,62.928,51.212,50.733-0.143,54.689v1.385
		c50.244-4.339,155.821,8.601,271.09,155.6c81.7,104.189,105.169,218.498,110.721,294.436h109.767
		C415.952,432.381,372.225,271.633,244.198,156.784z"/>
	<path fill="#EF7922" d="M322.83,198.701C201.009,67.577,73.75,46.771-0.143,51.919v2.338
		c49.249-4.773,137.422,3.077,241.258,86.077c126.606,101.2,210.931,271.069,312.596,322.752V383.59
		C491.105,364.316,418.106,301.255,322.83,198.701z"/>
	<path fill="#0E8DC5" d="M76.385,170.165C68.745,95.674,23.297,68.313-0.143,59.062v1.695c13.143,7.784,55.909,37.54,57.58,96.027
		c1.439,50.371-34.945,77.734-57.58,81.716v70.098C47.666,297.152,83.151,236.142,76.385,170.165z"/>
	<path fill="#D91F2B" d="M268.352,299.875C188.794,75.478,56.752,54.964,3.966,56.44c38.571-0.433,120.491,14.139,184.895,131.471
		c60.417,110.065,50.273,236.265,29.265,318.199h73.299C295.876,437.172,291.3,364.598,268.352,299.875z"/>
	<path fill="#EE751C" d="M174.963,277.823C162.755,117.618,56.37,62.242-0.143,57.164v0.454
		c31.72,5.782,112.359,32.864,131.005,159.243C150.547,350.276,75.689,477.189-0.143,505.504v0.606h133.781
		C166.078,450.13,181.785,367.347,174.963,277.823z"/>
	<path fill="#149CBC" d="M80.782,183.588C79.508,100.139,25.263,68.645,6.312,60.176c-2.393-0.777-4.561-1.402-6.455-1.901v0.787
		c23.44,9.251,68.888,36.611,76.528,111.103c6.767,65.976-28.719,126.987-76.528,138.434v13.31
		C17.944,314.431,82.269,280.957,80.782,183.588z"/>
	<path fill="#A82284" d="M6.312,60.176c18.951,8.469,73.196,39.963,74.47,123.412c1.487,97.369-62.838,130.843-80.925,138.321
		v73.257c53.493-15.061,101.288-75.31,104.27-165.753C108.162,107.009,37.782,70.4,6.312,60.176z"/>
	<path fill="#E62D3D" d="M130.863,216.861C112.216,90.481,31.577,63.4-0.143,57.618v0.657c0.992,0.261,2.06,0.557,3.195,0.892
		c17.768,3.583,69.636,20.06,95.887,92.43c34.193,94.263,4.182,230.706-99.082,271.151v82.756
		C75.689,477.189,150.547,350.276,130.863,216.861z"/>
	<path fill="#D7368B" d="M98.939,151.597C72.688,79.228,20.819,62.75,3.052,59.167c29.535,8.695,105.256,43.408,101.075,170.247
		c-2.982,90.443-50.777,150.691-104.27,165.753v27.582C103.121,382.303,133.132,245.86,98.939,151.597z"/>
	<path fill="#F0E501" d="M188.861,187.911C124.456,70.579,42.536,56.007,3.966,56.44c-1.429,0.041-2.799,0.096-4.108,0.165v0.559
		c1.404,0.127,2.839,0.285,4.303,0.474c30.013,1.971,94.145,17.866,149.5,109.965c65.491,108.964,37.071,276.913,7.509,338.508
		h56.957C239.134,424.176,249.278,297.977,188.861,187.911z"/>
	<path fill="#F8C41E" d="M153.66,167.602C98.305,75.504,34.173,59.609,4.16,57.638c57.438,7.421,158.897,63.96,170.803,220.185
		c6.822,89.524-8.885,172.307-41.324,228.287h27.53C190.731,444.515,219.151,276.566,153.66,167.602z"/>
	<path fill="#0991CF" d="M270.947,211.674C183.158,99.718,100.993,65.525,44.609,57.5c46.225,8.674,118.507,38.052,182.296,132.14
		c76.658,113.071,97.68,241.753,89.339,316.469h65.423C376.116,430.172,352.647,315.862,270.947,211.674z"/>
	<path fill="#68B650" d="M226.905,189.641C163.116,95.553,90.834,66.174,44.609,57.5c-17.649-2.512-32.774-2.461-44.752-1.427v0.472
		c1.307-0.053,2.679-0.089,4.108-0.105c52.786-1.476,184.828,19.038,264.386,243.436c22.948,64.722,27.524,137.296,23.073,206.235
		h24.82C324.585,431.394,303.564,302.712,226.905,189.641z"/>
	<path fill="#FFFFFF" d="M314.233,224.226C190.315,74.939,65.235,55.819,33.262,53.383c-12.523-0.514-23.717-0.064-33.405,0.875
		v0.431c51.354-3.955,139.715,8.239,244.341,102.096C372.225,271.633,415.952,432.381,491.434,506.11h18.947
		C453.751,458.258,397.375,324.39,314.233,224.226z"/>
	<path fill="#DD318A" d="M553.711,463.086c-101.665-51.683-185.99-221.552-312.596-322.752
		C157.704,73.661,84.401,55.481,33.262,53.383c31.973,2.437,157.053,21.556,280.971,170.843
		C397.375,324.39,453.751,458.258,510.382,506.11h43.329V463.086z"/>
</g>
<g>
	<g>
		<g>
			<path fill="#D8D9D9" d="M319.207,115.249c2.516,1.986,3.902,4.562,3.49,7.125c-0.511,3.187-3.668,5.526-7.895,6.312
				c-0.025,0.259-0.055,0.52-0.097,0.782c-0.834,5.194-4.833,8.871-8.934,8.213c-2.293-0.368-4.131-2.015-5.162-4.303
				c-2.327,2.747-6.34,4.234-10.584,3.553c-1.331-0.214-2.574-0.624-3.696-1.188c-3.101,3.57-9.567,5.406-16.599,4.277
				c-8.248-1.324-14.481-6.276-15.029-11.559c-5.883-1.109-9.976-5.846-9.191-10.733c0.342-2.126,1.554-3.935,3.3-5.238
				c-3.062,1.312-5.294,3.782-5.792,6.882c-0.835,5.202,3.523,10.244,9.786,11.427c0.582,5.624,7.217,10.895,15.998,12.304
				c7.486,1.202,14.37-0.752,17.671-4.552c1.194,0.6,2.518,1.037,3.935,1.264c4.518,0.725,8.791-0.858,11.268-3.783
				c1.097,2.437,3.054,4.19,5.495,4.582c4.366,0.7,8.624-3.214,9.511-8.743c0.045-0.278,0.078-0.556,0.105-0.832
				c4.499-0.837,7.86-3.326,8.405-6.72C325.741,120.894,323.28,117.449,319.207,115.249z"/>
			<path fill="#FFFFFF" d="M245.511,117.727c-0.784,4.886,3.308,9.624,9.191,10.733c0.547,5.283,6.781,10.235,15.029,11.559
				c7.032,1.129,13.498-0.706,16.599-4.277c1.122,0.564,2.366,0.974,3.696,1.188c4.243,0.682,8.257-0.806,10.584-3.553
				c1.031,2.288,2.869,3.935,5.162,4.303c4.101,0.658,8.1-3.019,8.934-8.213c0.042-0.262,0.073-0.523,0.097-0.782
				c4.227-0.786,7.383-3.125,7.895-6.312c0.411-2.564-0.974-5.139-3.49-7.125c-2.046-1.616-4.84-2.843-8.027-3.355
				c-0.786-0.126-1.561-0.201-2.323-0.232c-1.605-3.409-4.788-5.986-8.761-6.624c-5.347-0.858-10.433,2.068-12.59,6.815
				c-1.124-4.6-5.287-8.415-10.747-9.291c-7.034-1.129-13.551,3.044-14.569,9.322c-1.255-0.681-2.677-1.175-4.215-1.422
				c-3.489-0.56-6.811,0.274-9.162,2.027C247.065,113.792,245.853,115.6,245.511,117.727z"/>
		</g>
	</g>
</g>
<g>
	<g>
		<g>
			<path fill="#D8D9D9" d="M152.175,422.545c3.909,3.086,6.062,7.087,5.423,11.07c-0.794,4.951-5.698,8.586-12.265,9.806
				c-0.038,0.402-0.086,0.807-0.152,1.215c-1.295,8.069-7.508,13.781-13.879,12.759c-3.562-0.571-6.418-3.13-8.02-6.685
				c-3.614,4.268-9.85,6.578-16.442,5.52c-2.067-0.332-4-0.969-5.742-1.845c-4.817,5.547-14.863,8.398-25.787,6.644
				c-12.814-2.058-22.498-9.75-23.348-17.959c-9.14-1.722-15.498-9.083-14.279-16.674c0.531-3.303,2.414-6.113,5.127-8.137
				c-4.757,2.039-8.225,5.875-8.999,10.692c-1.298,8.082,5.473,15.916,15.203,17.753c0.904,8.737,11.213,16.927,24.855,19.115
				c11.63,1.867,22.325-1.169,27.453-7.072c1.855,0.932,3.912,1.611,6.113,1.964c7.019,1.127,13.657-1.332,17.506-5.878
				c1.703,3.786,4.745,6.51,8.536,7.118c6.783,1.088,13.398-4.993,14.776-13.583c0.07-0.432,0.12-0.864,0.162-1.292
				c6.99-1.301,12.211-5.168,13.057-10.441C162.326,431.316,158.503,425.963,152.175,422.545z"/>
			<path fill="#FFFFFF" d="M37.683,426.395c-1.219,7.591,5.139,14.952,14.279,16.674c0.851,8.208,10.534,15.901,23.348,17.959
				c10.924,1.754,20.97-1.097,25.787-6.644c1.743,0.876,3.675,1.513,5.742,1.845c6.593,1.059,12.828-1.252,16.442-5.52
				c1.602,3.555,4.457,6.113,8.02,6.685c6.371,1.022,12.584-4.69,13.879-12.759c0.066-0.408,0.113-0.813,0.152-1.215
				c6.566-1.22,11.47-4.855,12.265-9.806c0.639-3.982-1.514-7.984-5.423-11.07c-3.179-2.511-7.519-4.417-12.471-5.212
				c-1.221-0.195-2.426-0.312-3.61-0.36c-2.494-5.297-7.438-9.3-13.611-10.291c-8.306-1.332-16.209,3.213-19.56,10.589
				c-1.746-7.147-8.214-13.074-16.696-14.434c-10.927-1.755-21.052,4.729-22.634,14.483c-1.95-1.058-4.159-1.826-6.549-2.209
				c-5.421-0.87-10.582,0.426-14.234,3.149C40.097,420.282,38.214,423.092,37.683,426.395z"/>
		</g>
	</g>
</g>
<g>
	<g>
		<g>
			<path fill="#D8D9D9" d="M522.173,259.406c5.58,4.405,8.654,10.117,7.741,15.803c-1.134,7.07-8.135,12.257-17.509,14
				c-0.055,0.573-0.123,1.152-0.216,1.734c-1.849,11.521-10.719,19.674-19.814,18.215c-5.086-0.816-9.162-4.469-11.449-9.544
				c-5.16,6.094-14.062,9.392-23.474,7.881c-2.951-0.475-5.71-1.385-8.198-2.636c-6.877,7.919-21.218,11.99-36.814,9.485
				c-18.294-2.938-32.118-13.919-33.332-25.637c-13.048-2.458-22.124-12.967-20.385-23.804c0.758-4.714,3.446-8.728,7.319-11.617
				c-6.79,2.911-11.742,8.388-12.846,15.264c-1.853,11.537,7.813,22.721,21.703,25.344c1.29,12.473,16.007,24.165,35.482,27.289
				c16.603,2.665,31.871-1.667,39.193-10.096c2.648,1.331,5.584,2.3,8.727,2.804c10.02,1.609,19.497-1.902,24.992-8.391
				c2.432,5.406,6.775,9.293,12.187,10.163c9.684,1.553,19.127-7.129,21.093-19.391c0.1-0.619,0.172-1.235,0.232-1.847
				c9.979-1.857,17.433-7.377,18.641-14.904C536.665,271.927,531.207,264.286,522.173,259.406z"/>
			<path fill="#FFFFFF" d="M358.724,264.903c-1.739,10.838,7.337,21.347,20.385,23.804c1.214,11.718,15.039,22.699,33.332,25.637
				c15.596,2.505,29.936-1.566,36.814-9.485c2.488,1.251,5.247,2.161,8.198,2.636c9.411,1.51,18.313-1.788,23.474-7.881
				c2.286,5.075,6.363,8.728,11.449,9.544c9.095,1.459,17.965-6.694,19.814-18.215c0.093-0.582,0.161-1.161,0.216-1.734
				c9.374-1.742,16.375-6.929,17.509-14c0.912-5.686-2.161-11.398-7.741-15.803c-4.539-3.583-10.735-6.305-17.804-7.442
				c-1.744-0.277-3.463-0.445-5.154-0.515c-3.561-7.561-10.619-13.276-19.432-14.69c-11.858-1.902-23.14,4.586-27.924,15.115
				c-2.492-10.203-11.726-18.663-23.835-20.606c-15.6-2.505-30.054,6.75-32.313,20.675c-2.784-1.51-5.938-2.607-9.349-3.154
				c-7.739-1.241-15.106,0.608-20.32,4.495C362.17,256.175,359.482,260.188,358.724,264.903z"/>
		</g>
	</g>
</g>
<g>
	<g>
		<g>
			<path fill="#D8D9D9" d="M112.841,50.31c0-7.482-4.406-13.789-10.425-15.76c2.299,2.67,3.72,6.326,3.72,10.36
				c0,5.838-2.972,10.886-7.286,13.297c0.298,1.096,0.457,2.26,0.457,3.466c0,6.481-4.618,11.735-10.315,11.735
				c-2.326,0-4.472-0.875-6.198-2.354c-0.165,6.318-4.714,11.381-10.307,11.381c-3.539,0-6.66-2.028-8.519-5.117
				c0.003,0.115,0.008,0.229,0.008,0.345c0,6.481-4.619,11.735-10.317,11.735c-5.697,0-10.316-5.254-10.316-11.735
				c0-0.829,0.078-1.637,0.221-2.417c-2.857-1.436-5.036-4.302-5.827-7.803c-1.891,2.692-4.799,4.417-8.062,4.417
				c-5.697,0-10.316-5.254-10.316-11.734c0-0.088,0.004-0.176,0.007-0.263c-1.629,1.224-3.581,1.94-5.68,1.94
				c-5.697,0-10.316-5.254-10.316-11.735c0-1.816,0.363-3.535,1.01-5.069C1.15,47.294-1,51.372-1,56.023
				c0,7.178,5.116,12.998,11.428,12.998c2.325,0,4.487-0.792,6.292-2.149c-0.002,0.098-0.007,0.195-0.007,0.292
				c0,7.179,5.117,12.999,11.428,12.999c3.615,0,6.836-1.912,8.931-4.893c0.876,3.879,3.289,7.053,6.454,8.644
				c-0.159,0.864-0.244,1.759-0.244,2.677c0,7.18,5.117,12.999,11.428,12.999s11.428-5.819,11.428-12.999
				c0-0.127-0.004-0.255-0.008-0.382c2.06,3.422,5.516,5.667,9.436,5.667c6.197,0,11.236-5.609,11.419-12.607
				c1.912,1.637,4.289,2.608,6.865,2.608c6.311,0,11.427-5.82,11.427-12.999c0-1.337-0.177-2.626-0.506-3.84
				C109.547,62.368,112.841,56.777,112.841,50.31z"/>
			<path fill="#FFFFFF" d="M13.683,61.802c2.099,0,4.052-0.715,5.68-1.94c-0.002,0.088-0.007,0.175-0.007,0.263
				c0,6.481,4.619,11.734,10.316,11.734c3.264,0,6.172-1.725,8.062-4.417c0.792,3.5,2.97,6.366,5.827,7.803
				c-0.143,0.78-0.221,1.588-0.221,2.417c0,6.481,4.619,11.735,10.316,11.735c5.698,0,10.317-5.254,10.317-11.735
				c0-0.115-0.005-0.23-0.008-0.345c1.859,3.089,4.98,5.117,8.519,5.117c5.593,0,10.142-5.064,10.307-11.381
				c1.726,1.479,3.872,2.354,6.198,2.354c5.697,0,10.315-5.254,10.315-11.735c0-1.207-0.159-2.37-0.457-3.466
				c4.314-2.411,7.286-7.459,7.286-13.297c0-4.034-1.42-7.69-3.72-10.36c-2.363-2.743-5.655-4.448-9.298-4.448
				c-0.95,0-1.875,0.119-2.767,0.339c-0.335,0.083-0.666,0.179-0.991,0.291c-0.25-0.434-0.529-0.846-0.826-1.237
				c-1.892-2.483-4.681-4.056-7.795-4.056c-0.15,0-0.301,0.004-0.449,0.012c-0.451,0.023-0.894,0.079-1.327,0.166
				c-0.382-0.793-0.846-1.527-1.371-2.195c-1.89-2.399-4.63-3.913-7.684-3.913c-3.305,0-6.245,1.77-8.133,4.52
				c-1.227-0.586-2.574-0.91-3.988-0.91c-3.878,0-7.256,2.436-9.018,6.036c-1.346-4.7-5.228-8.099-9.808-8.099
				c-4.662,0-8.599,3.518-9.876,8.346c-0.174,0.659-0.3,1.34-0.371,2.042c-0.171-0.115-0.347-0.223-0.525-0.327
				c-1.411-0.824-3.008-1.293-4.702-1.293c-4.06,0-7.568,2.669-9.251,6.548c-0.271,0.627-0.497,1.283-0.668,1.966
				c-0.396,0.005-0.784,0.038-1.168,0.092c-3.545,0.503-6.532,3.047-8.018,6.57c-0.647,1.534-1.01,3.253-1.01,5.069
				C3.367,56.549,7.986,61.802,13.683,61.802z"/>
		</g>
	</g>
</g>
</svg>
