<?xml version="1.0" encoding="utf-8"?>
<!DOCTYPE svg PUBLIC "-//W3C//DTD SVG 1.1//EN" "http://www.w3.org/Graphics/SVG/1.1/DTD/svg11.dtd">
<svg version="1.1" id="Слой_1" xmlns="http://www.w3.org/2000/svg" xmlns:xlink="http://www.w3.org/1999/xlink" x="0px" y="0px"
	 width="150px" height="150px" viewBox="0 0 150 150" enable-background="new 0 0 150 150" xml:space="preserve">
<g>
	<g>
		<g>
			<linearGradient id="SVGID_1_" gradientUnits="userSpaceOnUse" x1="99.7359" y1="113.6275" x2="60.4828" y2="113.6275">
				<stop  offset="0" style="stop-color:#B7B9BF"/>
				<stop  offset="1" style="stop-color:#ACB0B7"/>
			</linearGradient>
			<path fill="url(#SVGID_1_)" d="M107.42,82.63c-0.014,0.011-0.03,0.011-0.049,0.022c-0.075-0.84-1.52-1.251-1.52-1.251
				l-43.894-0.751c-3.287,0-2.631,1.131-2.631,1.131l3.946,3.765c1.646,1.131-0.657,1.884-0.657,1.884l-4.222,2.99l-2.849,1.484
				c-0.863,0.87-0.863,1.663-0.863,2.6l0.509,47.683c0,1.047,0.95,1.895,2.118,1.895l41.983,2.521c1.167,0,2.114-0.854,2.114-1.902
				V139.9l4.201-2.725c1.526-0.378,1.603-3.377,1.603-3.377L107.42,82.63z"/>
			<g>
				<linearGradient id="SVGID_2_" gradientUnits="userSpaceOnUse" x1="75.5343" y1="65.457" x2="78.6205" y2="83.533">
					<stop  offset="0" style="stop-color:#E3DF00"/>
					<stop  offset="0.191" style="stop-color:#FDDD00"/>
					<stop  offset="1" style="stop-color:#FBC900"/>
				</linearGradient>
				<path fill="url(#SVGID_2_)" d="M72.928,68.104c0,0-3.717,5.026-1.094,10.271c2.623,5.243,6.775,5.243,6.775,5.243
					s1.092,0.655,2.62-2.624c1.528-3.272,3.277-6.336,0.87-10.482C79.701,66.36,75.329,61.551,72.928,68.104z"/>
				<path opacity="0.13" fill="#CB8617" d="M77.297,65.483c0,0,5.681,3.059,5.9,9.176c0,0-0.219,5.032-3.496,8.52
					c0,0-2.404,1.747-5.683-1.745c0,0,4.366,1.31,5.245-1.743c0.873-3.065,2.343-4.247,1.966-6.777
					C80.355,67.014,77.297,65.483,77.297,65.483z"/>
				<path opacity="0.42" fill="#FFFFFF" d="M74.018,70.07c0,0-2.185,1.747-1.307,3.498c0,0,1.745,3.274,1.745,0.87
					C74.456,72.04,74.456,68.104,74.018,70.07z"/>
			</g>
			<polygon opacity="0.14" points="59.933,82.255 59.933,90.421 66.311,87.081 			"/>
			<path fill="#9B9FA5" d="M56.041,92.406l7.087-4.586c0,0,2.239-0.739,0.646-1.85l-3.843-3.715c0,0-0.634-1.109,2.562-1.109
				l42.66,0.741c0,0,2.558,0.746,0.959,2.23L99.4,86.714c0,0-0.888,0.192-0.322,1.483c0.083,0.182,1.453,2.97,1.453,2.97
				s1.413,2.32-1.56,2.599L56.041,92.406z"/>
			<g>
				
					<radialGradient id="SVGID_3_" cx="331.8403" cy="-30.7992" r="12.3106" gradientTransform="matrix(0.74 0.6726 -0.6726 0.74 -167.4289 -122.5947)" gradientUnits="userSpaceOnUse">
					<stop  offset="0" style="stop-color:#EE832F"/>
					<stop  offset="1" style="stop-color:#D7561C"/>
				</radialGradient>
				<path fill="url(#SVGID_3_)" d="M103.912,88.431c-3.403,3.742-8.946,4.244-12.387,1.117c-3.437-3.12-3.468-8.692-0.065-12.439
					c3.403-3.733,8.942-4.236,12.385-1.114C107.28,79.122,107.312,84.688,103.912,88.431z"/>
				<path fill="#D22E1D" d="M104.347,78.942c-0.42,0.331-1.208,0.026-1.761-0.68c-0.555-0.71-0.653-1.552-0.231-1.88
					c0.42-0.334,1.218-0.024,1.769,0.683C104.674,77.77,104.775,78.613,104.347,78.942z"/>
				<path fill="#C22821" d="M104.039,78.491c-0.255,0.201-0.744,0.015-1.074-0.419c-0.341-0.428-0.399-0.941-0.142-1.146
					c0.259-0.202,0.742-0.018,1.078,0.415C104.236,77.775,104.301,78.288,104.039,78.491z"/>
				<path fill="#997622" d="M103.431,77.709l2.312-2.327c0,0,1.111,0.014,0.62,0.695l-2.866,1.906L103.431,77.709z"/>
				<path opacity="0.26" fill="#FFFFFF" d="M100.142,76.441c0,0-0.136,1.253,0.685,1.998c0.821,0.751,0.339,1.559-0.756,0.694
					c-1.088-0.867-1.996-1.939-1.771-2.743C98.859,74.397,100.193,74.721,100.142,76.441z"/>
			</g>
			<g>
				<g>
					<linearGradient id="SVGID_4_" gradientUnits="userSpaceOnUse" x1="47.0344" y1="55.6708" x2="63.8148" y2="101.5837">
						<stop  offset="0" style="stop-color:#00AA79"/>
						<stop  offset="0.5169" style="stop-color:#D8DB82"/>
						<stop  offset="0.6102" style="stop-color:#E3E5A7"/>
						<stop  offset="0.7369" style="stop-color:#EFF0CF"/>
						<stop  offset="0.8488" style="stop-color:#F8F8EA"/>
						<stop  offset="0.9403" style="stop-color:#FDFDFA"/>
						<stop  offset="1" style="stop-color:#FFFFFF"/>
					</linearGradient>
					<path fill="url(#SVGID_4_)" d="M69.349,128.168c0,0,0.971,6.692,4.009,4.485c3.036-2.216,1.597-6.742,1.597-6.742
						s-4.947-19.366-8.003-27.93c-3.054-8.566-14.908-39.583-17.707-45.832c0,0-17.875-50.907-20.918-49.778
						c-1.801,0.668,16.573,50.723,16.573,50.723s13.753,37.604,16.55,45.963C64.246,107.422,69.349,128.168,69.349,128.168z"/>
				</g>
				<g>
					
						<linearGradient id="SVGID_5_" gradientUnits="userSpaceOnUse" x1="90.3444" y1="57.3737" x2="103.7976" y2="94.1831" gradientTransform="matrix(1.2886 0.1499 -0.1737 0.9866 -52.7575 -9.1401)">
						<stop  offset="0" style="stop-color:#00AA79"/>
						<stop  offset="0.5169" style="stop-color:#D8DB82"/>
						<stop  offset="0.6102" style="stop-color:#E3E5A7"/>
						<stop  offset="0.7369" style="stop-color:#EFF0CF"/>
						<stop  offset="0.8488" style="stop-color:#F8F8EA"/>
						<stop  offset="0.9403" style="stop-color:#FDFDFA"/>
						<stop  offset="1" style="stop-color:#FFFFFF"/>
					</linearGradient>
					<path fill="url(#SVGID_5_)" d="M66.649,121.041c0,0,0.073,5.402,3.518,4.021c3.445-1.381,2.592-5.139,2.592-5.139
						s-2.418-15.912-4.378-23.052C66.42,89.727,58.49,63.77,56.467,58.485c0,0-11.38-42.411-14.679-41.885
						c-1.952,0.308,10.06,42.111,10.06,42.111S60.82,90.11,62.547,97.058C64.27,104.004,66.649,121.041,66.649,121.041z"/>
				</g>
				<g>
					<linearGradient id="SVGID_6_" gradientUnits="userSpaceOnUse" x1="79.5324" y1="74.5959" x2="52.1736" y2="105.3987">
						<stop  offset="0" style="stop-color:#00AA79"/>
						<stop  offset="0.5169" style="stop-color:#D8DB82"/>
						<stop  offset="0.6102" style="stop-color:#E3E5A7"/>
						<stop  offset="0.7369" style="stop-color:#EFF0CF"/>
						<stop  offset="0.8488" style="stop-color:#F8F8EA"/>
						<stop  offset="0.9403" style="stop-color:#FDFDFA"/>
						<stop  offset="1" style="stop-color:#FFFFFF"/>
					</linearGradient>
					<path fill="url(#SVGID_6_)" d="M69.774,129.272c0,0,0.233,6.752,3.488,4.889c3.265-1.862,2.329-6.516,2.329-6.516
						s-2.791-19.79-4.888-28.642c-2.094-8.852-10.476-40.983-12.571-47.5c0,0-0.111-2.184-3.259-1.395
						c-1.867,0.461-1.165,1.858-1.165,1.858s9.548,38.885,11.41,47.501C66.977,108.085,69.774,129.272,69.774,129.272z"/>
					<linearGradient id="SVGID_7_" gradientUnits="userSpaceOnUse" x1="48.5003" y1="76.3079" x2="48.5003" y2="94.6119">
						<stop  offset="0" style="stop-color:#00AA79"/>
						<stop  offset="1" style="stop-color:#D8DB82"/>
					</linearGradient>
					<path fill="url(#SVGID_7_)" d="M54.404,50.336c0,0-1.865-1.159-3.954,5.125c-2.1,6.285-7.922,30.268-7.922,30.268
						s-4.425,15.365-3.027,17.229c0,0,1.398-0.693,2.332-4.186c0.932-3.497,4.422-11.872,4.422-11.872l10.48-32.602
						C56.735,54.297,60.226,48.36,54.404,50.336z"/>
					<path opacity="0.74" fill="#009740" d="M57.665,51.853l-2.096,5.818l0.233,1.629c0,0,0.114-1.98,2.329-2.905L57.665,51.853z"/>
					<path opacity="0.26" fill="#ACCF82" d="M56.617,50.689L46.026,83.051c0,0-6.525,18.861-5.478,16.885
						c1.048-1.977,4.311-10.477,5.594-14.09c1.277-3.608,5.47-16.302,5.707-17.228c0.225-0.932,5.468-17.002,5.468-17.002
						S57.902,49.526,56.617,50.689z"/>
					<path opacity="0.47" fill="#009740" d="M57.083,50.222c0,0-1.281,0-2.564,2.326c-0.655,1.193-3.608,8.273-3.259,5.939
						c0.351-2.321,1.745-5.939,1.745-5.939s-0.58-0.232-0.932,0.234c0,0,0.47-1.746,1.516-2.212
						C54.637,50.108,57.083,50.222,57.083,50.222z"/>
				</g>
				<polygon fill="#009740" points="50.912,54.995 48.35,62.447 46.952,57.79 48.816,51.504 				"/>
				<path fill="#009740" d="M50.912,54.995c0,0,1.419-4.966,3.646-4.966l-0.991-2.229c0,0-3.216,0.992-3.711,4.457L50.912,54.995z"
					/>
			</g>
			<g>
				<radialGradient id="SVGID_8_" cx="69.1531" cy="77.1894" r="12.3091" gradientUnits="userSpaceOnUse">
					<stop  offset="0" style="stop-color:#EE832F"/>
					<stop  offset="1" style="stop-color:#D7561C"/>
				</radialGradient>
				<path fill="url(#SVGID_8_)" d="M80.043,81.639c0,5.053-3.764,9.159-8.411,9.159c-4.651,0-8.419-4.106-8.419-9.159
					c0-5.054,3.768-9.153,8.419-9.153C76.28,72.487,80.043,76.586,80.043,81.639z"/>
				<path fill="#D22E1D" d="M73.986,74.321c-0.089,0.53-0.877,0.84-1.763,0.681c-0.882-0.151-1.526-0.703-1.433-1.235
					c0.089-0.526,0.882-0.834,1.765-0.684C73.438,73.241,74.081,73.792,73.986,74.321z"/>
				<path fill="#C22821" d="M73.455,74.196c-0.057,0.318-0.537,0.512-1.078,0.415c-0.539-0.096-0.928-0.428-0.876-0.754
					c0.059-0.327,0.539-0.51,1.08-0.419C73.118,73.53,73.507,73.871,73.455,74.196z"/>
				<path fill="#997622" d="M72.48,74.023l0.138-3.274c0,0,0.837-0.744,0.926,0.093l-0.829,3.345L72.48,74.023z"/>
				<path opacity="0.26" fill="#FFFFFF" d="M69.189,75.299c0,0,0.744,1.018,1.852,1.018c1.115,0,1.301,0.929-0.091,1.019
					c-1.39,0.097-2.781-0.086-3.156-0.83C66.868,74.647,68.074,74,69.189,75.299z"/>
			</g>
			<g>
				<linearGradient id="SVGID_9_" gradientUnits="userSpaceOnUse" x1="61.431" y1="78.5721" x2="64.5174" y2="96.6494">
					<stop  offset="0" style="stop-color:#E3DF00"/>
					<stop  offset="0.191" style="stop-color:#FDDD00"/>
					<stop  offset="1" style="stop-color:#FBC900"/>
				</linearGradient>
				<path fill="url(#SVGID_9_)" d="M58.822,81.221c0,0-3.715,5.024-1.092,10.272c2.621,5.243,6.773,5.243,6.773,5.243
					s1.094,0.651,2.62-2.62c1.528-3.282,3.277-6.342,0.875-10.493C65.597,79.475,61.228,74.666,58.822,81.221z"/>
				<path opacity="0.13" fill="#CB8617" d="M63.191,78.593c0,0,5.683,3.064,5.9,9.181c0,0-0.217,5.029-3.494,8.525
					c0,0-2.406,1.748-5.687-1.752c0,0,4.374,1.312,5.247-1.744c0.873-3.057,2.341-4.243,1.966-6.775
					C66.252,80.128,63.191,78.593,63.191,78.593z"/>
				<path opacity="0.42" fill="#FFFFFF" d="M59.91,83.19c0,0-2.181,1.744-1.309,3.494c0,0,1.749,3.279,1.749,0.874
					C60.35,85.151,60.35,81.221,59.91,83.19z"/>
			</g>
			<linearGradient id="SVGID_10_" gradientUnits="userSpaceOnUse" x1="116.1844" y1="95.5955" x2="92.4813" y2="122.2824">
				<stop  offset="0" style="stop-color:#D4D7E3"/>
				<stop  offset="1" style="stop-color:#C8CBD7"/>
			</linearGradient>
			<path fill="url(#SVGID_10_)" d="M106.678,83.092l-0.192,50.389c0,0-0.087,2.971-1.571,3.342l-4.331,2.848l-2.596-52.464
				C97.988,87.207,101.449,85.474,106.678,83.092z"/>
			<g>
				<radialGradient id="SVGID_11_" cx="89.5704" cy="86.2806" r="12.3071" gradientUnits="userSpaceOnUse">
					<stop  offset="0" style="stop-color:#EE832F"/>
					<stop  offset="1" style="stop-color:#D7561C"/>
				</radialGradient>
				<path fill="url(#SVGID_11_)" d="M100.458,90.734c0,5.054-3.766,9.154-8.411,9.154c-4.649,0-8.415-4.101-8.415-9.154
					c0-5.055,3.765-9.155,8.415-9.155C96.693,81.579,100.458,85.679,100.458,90.734z"/>
				<path fill="#D22E1D" d="M94.404,83.42c-0.089,0.526-0.882,0.833-1.769,0.68c-0.883-0.154-1.524-0.711-1.429-1.237
					c0.089-0.529,0.883-0.837,1.763-0.683C93.853,82.333,94.496,82.882,94.404,83.42z"/>
				<path fill="#C22821" d="M93.867,83.285c-0.055,0.33-0.537,0.513-1.074,0.419c-0.541-0.088-0.93-0.43-0.873-0.754
					c0.055-0.317,0.537-0.51,1.078-0.411C93.537,82.632,93.924,82.963,93.867,83.285z"/>
				<path fill="#997622" d="M92.894,83.123l0.142-3.277c0,0,0.835-0.74,0.926,0.094l-0.837,3.338L92.894,83.123z"/>
				<path opacity="0.26" fill="#FFFFFF" d="M89.605,84.394c0,0,0.742,1.024,1.854,1.024c1.109,0,1.297,0.922-0.095,1.017
					c-1.388,0.092-2.778-0.092-3.156-0.833C87.283,83.739,88.491,83.092,89.605,84.394z"/>
			</g>
			<g>
				<g>
					<linearGradient id="SVGID_12_" gradientUnits="userSpaceOnUse" x1="101.5191" y1="59.5167" x2="82.3889" y2="112.2301">
						<stop  offset="0" style="stop-color:#F7C449"/>
						<stop  offset="1" style="stop-color:#F6B200"/>
					</linearGradient>
					<path fill="url(#SVGID_12_)" d="M84.374,81.395c0,0,7.049-21.536,12.247-27.469c0,0,6.311-7.796,7.055,3.708
						c0,0-2.227,32.294-10.766,50.485c0,0-5.569,11.876-10.022,10.764C78.912,117.889,81.405,92.899,84.374,81.395z"/>
					<path opacity="0.25" fill="#D98D20" d="M96.622,53.796c-5.198,5.945-12.247,27.467-12.247,27.467
						c-2.969,11.512-5.462,36.499-1.486,37.496c4.453,1.111,10.022-10.767,10.022-10.767c8.538-18.184,10.766-50.478,10.766-50.478
						C102.933,46.005,96.622,53.796,96.622,53.796z M91.575,103.626c0,0-4.854,10.75-8.283,9.565
						c-3.062-1.058-0.063-24.007,2.742-34.508c0,0,6.416-19.601,10.723-24.889c0,0,5.257-6.962,5.35,3.675
						C102.108,57.469,99.007,87.159,91.575,103.626z"/>
					<path opacity="0.25" fill="#FFFFFF" d="M98.484,55.282c0,0-12.377,20.044-14.11,53.947c0,0,0.498,2.228,1.733-1.484
						c1.234-3.711,7.92-36.623,7.92-36.623S100.707,51.577,98.484,55.282z"/>
					<path opacity="0.61" fill="#E19224" d="M102.562,59.679c0,0-7.426,0.18-11.692,6.127
						C90.87,65.806,96.994,61.904,102.562,59.679z"/>
					<path opacity="0.61" fill="#E19224" d="M101.771,68.772c0,0-9.511,0.233-14.983,7.847
						C86.788,76.619,94.635,71.622,101.771,68.772z"/>
					<path opacity="0.61" fill="#E19224" d="M100.099,79.537c0,0-9.785,1.981-16.282,8.527
						C83.817,88.064,92.544,83.803,100.099,79.537z"/>
					<path opacity="0.61" fill="#E19224" d="M97.925,89.928c0,0-7.61,2.042-15.405,8.343C82.52,98.271,91.054,95.683,97.925,89.928z
						"/>
					<path opacity="0.61" fill="#E19224" d="M94.767,101.611c0,0-6.601,1.773-13.362,7.241
						C81.405,108.853,88.811,106.604,94.767,101.611z"/>
					<path opacity="0.24" fill="#FFFFFF" d="M87.342,76.195c0,0,5.202-6.925,13.862-7.298
						C101.204,68.897,92.295,67.783,87.342,76.195z"/>
					<path opacity="0.24" fill="#FFFFFF" d="M91.054,65.426c0,0,4.132-5.393,11.015-5.685
						C102.069,59.741,94.99,58.869,91.054,65.426z"/>
					<path opacity="0.24" fill="#FFFFFF" d="M84.255,87.82c0,0,6.799-6.556,15.589-8.162C99.844,79.657,90.065,79.291,84.255,87.82z
						"/>
					<path opacity="0.24" fill="#FFFFFF" d="M83.017,97.976c0,0,7.545-5.818,14.596-7.797C97.613,90.18,89.204,90.672,83.017,97.976
						z"/>
					<path opacity="0.24" fill="#FFFFFF" d="M81.405,108.853c0,0,7.675-5.807,12.989-7.045
						C94.394,101.808,87.098,102.531,81.405,108.853z"/>
				</g>
				<g>
					
						<linearGradient id="SVGID_13_" gradientUnits="userSpaceOnUse" x1="41.8522" y1="73.4072" x2="26.7594" y2="114.9957" gradientTransform="matrix(0.9915 -0.1302 0.1302 0.9915 34.9562 4.0797)">
						<stop  offset="0" style="stop-color:#F7C449"/>
						<stop  offset="1" style="stop-color:#F6B200"/>
					</linearGradient>
					<path fill="url(#SVGID_13_)" d="M74.845,90.286c0,0,3.307-17.563,6.767-22.742c0,0,4.132-6.744,5.896,2.176
						c0,0,1.573,25.492-3.239,40.596c0,0-3.133,9.864-6.731,9.451C74.32,119.397,73.704,99.595,74.845,90.286z"/>
					<path opacity="0.25" fill="#D98D20" d="M81.598,67.447c-3.457,5.178-6.761,22.743-6.761,22.743
						c-1.145,9.302-0.525,29.109,2.683,29.482c3.602,0.409,6.737-9.453,6.737-9.453c4.809-15.103,3.237-40.597,3.237-40.597
						C85.732,60.7,81.598,67.447,81.598,67.447z M82.763,106.94c0,0-2.687,8.904-5.496,8.328c-2.507-0.508-2.513-18.77-1.396-27.274
						c0,0,3.002-15.987,5.829-20.565c0,0,3.395-5.988,4.562,2.321C86.261,69.75,86.884,93.299,82.763,106.94z"/>
					<path opacity="0.25" fill="#FFFFFF" d="M83.199,68.42c0,0-7.62,16.942-5.496,43.646c0,0,0.622,1.69,1.206-1.344
						c0.588-3.024,2.432-29.464,2.432-29.464S84.559,65.282,83.199,68.42z"/>
					<path opacity="0.61" fill="#E19224" d="M86.845,71.43c0,0-5.788,0.912-8.516,5.996C78.329,77.426,82.719,73.748,86.845,71.43z"
						/>
					<path opacity="0.61" fill="#E19224" d="M87.157,78.63c0,0-7.416,1.16-10.914,7.679C76.243,86.309,81.867,81.594,87.157,78.63z"
						/>
					<path opacity="0.61" fill="#E19224" d="M86.956,87.218c0,0-7.454,2.557-11.862,8.346
						C75.094,95.564,81.482,91.336,86.956,87.218z"/>
					<path opacity="0.61" fill="#E19224" d="M86.322,95.575c0,0-5.742,2.376-11.195,8.11
						C75.127,103.685,81.541,100.781,86.322,95.575z"/>
					<path opacity="0.61" fill="#E19224" d="M85.053,105.038c0,0-4.977,2.063-9.708,7.036
						C75.346,112.074,80.907,109.555,85.053,105.038z"/>
					<path opacity="0.24" fill="#FFFFFF" d="M76.637,85.917c0,0,3.354-5.949,10.091-7.132
						C86.727,78.785,79.642,78.828,76.637,85.917z"/>
					<path opacity="0.24" fill="#FFFFFF" d="M78.438,77.113c0,0,2.673-4.65,8.026-5.576C86.464,71.536,80.84,71.58,78.438,77.113z"
						/>
					<path opacity="0.24" fill="#FFFFFF" d="M75.41,95.337c0,0,4.651-5.831,11.356-7.989C86.766,87.348,79.081,88.058,75.41,95.337z
						"/>
					<path opacity="0.24" fill="#FFFFFF" d="M75.483,103.395c0,0,5.308-5.32,10.624-7.596
						C86.107,95.799,79.573,97.051,75.483,103.395z"/>
					<path opacity="0.24" fill="#FFFFFF" d="M75.346,112.074c0,0,5.403-5.333,9.438-6.85
						C84.784,105.224,79.148,106.545,75.346,112.074z"/>
				</g>
				<path opacity="0.58" fill="#CA8D16" d="M87.836,72.855c0,0,1.488,32.42-6.678,43.553c0,0,13.858-17.323,9.404-50.233
					L87.836,72.855z"/>
			</g>
			<g>
				<linearGradient id="SVGID_14_" gradientUnits="userSpaceOnUse" x1="70.5243" y1="83.3966" x2="73.6102" y2="101.4712">
					<stop  offset="0" style="stop-color:#E3DF00"/>
					<stop  offset="0.191" style="stop-color:#FDDD00"/>
					<stop  offset="1" style="stop-color:#FBC900"/>
				</linearGradient>
				<path fill="url(#SVGID_14_)" d="M67.916,86.048c0,0-3.713,5.022-1.094,10.271c2.627,5.237,6.773,5.237,6.773,5.237
					s1.092,0.658,2.621-2.622c1.532-3.273,3.281-6.332,0.876-10.487C74.687,84.298,70.319,79.489,67.916,86.048z"/>
				<path opacity="0.13" fill="#CB8617" d="M72.287,83.425c0,0,5.681,3.058,5.898,9.177c0,0-0.217,5.023-3.498,8.521
					c0,0-2.399,1.75-5.681-1.749c0,0,4.37,1.311,5.245-1.749c0.872-3.061,2.343-4.242,1.964-6.773
					C75.346,84.954,72.287,83.425,72.287,83.425z"/>
				<path opacity="0.42" fill="#FFFFFF" d="M69.006,88.014c0,0-2.185,1.749-1.313,3.494c0,0,1.755,3.279,1.755,0.875
					C69.448,89.98,69.448,86.048,69.006,88.014z"/>
			</g>
			<linearGradient id="SVGID_15_" gradientUnits="userSpaceOnUse" x1="98.217" y1="96.5624" x2="64.0291" y2="135.0539">
				<stop  offset="0" style="stop-color:#E8E9F0"/>
				<stop  offset="0.5169" style="stop-color:#F8F8FA"/>
				<stop  offset="0.7992" style="stop-color:#E7E8EE"/>
				<stop  offset="1" style="stop-color:#E0E1E9"/>
			</linearGradient>
			<path fill="url(#SVGID_15_)" d="M100.827,144.232c0,1.032-0.918,1.869-2.051,1.869l-40.805-2.47
				c-1.133,0-2.055-0.838-2.055-1.872l-0.618-47.484c0-1.032,0.92-1.869,2.057-1.869l41.156,1.264c1.133,0,2.229-0.745,2.316-0.646
				V144.232z"/>
			<path opacity="0.07" d="M98.259,93.427l-41.154-1.273c-1.133,0-2.057,0.84-2.057,1.869l0.622,47.488
				c0,1.029,0.92,1.867,2.055,1.867l40.803,2.47c1.137,0,2.055-0.828,2.055-1.863v-51.21C100.491,92.68,99.4,93.427,98.259,93.427z
				 M98.604,142.109c0,0.963-0.859,1.745-1.909,1.745l-37.879-1.734c-1.054,0-1.905-0.781-1.905-1.744l-0.742-45.384
				c0-0.969,0.849-1.745,1.905-1.745l38.371,1.619c1.06,0,2.069-0.693,2.158-0.605V142.109z"/>
			<path opacity="0.07" d="M63.706,78.546c0,0,3.593,3.094,4.829,6.185c0,0,1.857-3.957,5.322-0.741l1.729,2.231
				c0,0,1.486-8.048,2.598-10.145c0,0-1.36,6.675-7.298,5.441c-5.936-1.239-6.801-3.59-6.801-3.59L63.706,78.546z"/>
			<path opacity="0.07" d="M57.278,90.67c0,0,3.218,2.354,8.538,0.867c0,0,7.669,2.229,12.126,0c0,0,9.282,1.978,9.651-0.867
				c0,0,2.473,2.845,10.891,1.489c0,0,1.729-0.251,1.974-0.744c0,0,0.249,2.101-1.731,2.101L58.02,92.278L57.278,90.67z"/>
			<path opacity="0.7" fill="#FFFFFF" d="M88.827,97.851c0,0,6.439,0.391,6.439,7.544c0,0,1.869,6.814,2.039,3.713
				c0.047-0.883,0.363-5.532,0.154-9.091c-0.154-2.603-1.074-4.187-2.754-4.09c-2.422,0.145-9.588-0.798-9.092,0.191
				C85.613,96.118,85.858,97.851,88.827,97.851z"/>
		</g>
		<g>
			<linearGradient id="SVGID_16_" gradientUnits="userSpaceOnUse" x1="77.4606" y1="115.8402" x2="77.4606" y2="129.6268">
				<stop  offset="0" style="stop-color:#FCCB00"/>
				<stop  offset="0.4888" style="stop-color:#F7B300"/>
				<stop  offset="1" style="stop-color:#F7C000"/>
			</linearGradient>
			<path fill="url(#SVGID_16_)" d="M76.918,108.139c-5.644,0.127-9.996,5.179-9.941,11.295c0.051,6.12,4.489,11.388,10.15,11.791
				c5.922,0.419,10.887-4.631,10.816-11.284C87.883,113.291,82.834,108.011,76.918,108.139z"/>
			<path fill="none" stroke="#F7B300" stroke-width="0.2429" d="M76.784,106.268c-6.769,0.142-11.984,6.091-11.913,13.294
				c0.071,7.206,5.401,13.426,12.189,13.899c7.108,0.504,13.054-5.44,12.956-13.28C89.946,112.347,83.876,106.129,76.784,106.268z"
				/>
		</g>
	</g>
</g>
</svg>
