<?xml version="1.0" encoding="utf-8"?><!DOCTYPE svg PUBLIC "-//W3C//DTD SVG 1.1//EN" "http://www.w3.org/Graphics/SVG/1.1/DTD/svg11.dtd"><svg version="1.1" id="Слой_1" xmlns="http://www.w3.org/2000/svg" xmlns:xlink="http://www.w3.org/1999/xlink" x="0px" y="0px" width="150px" height="150px" viewBox="0 0 150 150" enable-background="new 0 0 150 150" xml:space="preserve"><g><rect x="5" y="5" fill="none" stroke="#000000" stroke-width="2" stroke-miterlimit="10" width="140" height="140"/><line fill="none" stroke="#000000" stroke-width="2" stroke-miterlimit="10" x1="5" y1="110" x2="145" y2="110"/><line fill="none" stroke="#000000" stroke-width="2" stroke-miterlimit="10" x1="5" y1="75" x2="145" y2="75"/><line fill="none" stroke="#000000" stroke-width="2" stroke-miterlimit="10" x1="5" y1="40" x2="145" y2="40"/><line fill="none" stroke="#000000" stroke-width="2" stroke-miterlimit="10" x1="110" y1="5" x2="110" y2="145"/><line fill="none" stroke="#000000" stroke-width="2" stroke-miterlimit="10" x1="75" y1="5" x2="75" y2="145"/><line fill="none" stroke="#000000" stroke-width="2" stroke-miterlimit="10" x1="40" y1="5" x2="40" y2="145"/></g><g><path fill="#E30613" d="M19.207,25.769l-2.1,6.36h-2.7l6.87-20.219h3.15l6.9,20.219h-2.79l-2.16-6.36H19.207z M25.837,23.729l-1.98-5.82c-0.45-1.32-0.75-2.52-1.05-3.69h-0.06c-0.3,1.2-0.63,2.43-1.02,3.66l-1.98,5.85H25.837z"/></g><g><path fill="#E94E1B" d="M63.392,11.91v2.19h-8.73v5.43c0.63-0.09,1.83-0.15,2.49-0.15c1.92,0,3.81,0.42,5.22,1.35c1.53,0.99,2.58,2.58,2.58,4.95c0,1.89-0.63,3.33-1.68,4.38c-1.65,1.62-4.38,2.25-7.14,2.25c-1.83,0-3.21-0.12-4.08-0.24V11.91H63.392z M54.662,30.119c0.6,0.12,1.29,0.15,2.19,0.15c1.62,0,3.27-0.51,4.26-1.56c0.69-0.72,1.11-1.71,1.11-2.97c0-1.56-0.66-2.61-1.65-3.3c-1.05-0.72-2.4-1.02-3.84-1.02c-0.6,0-1.41,0.06-2.07,0.12V30.119z"/></g><g><path fill="#FFED00" d="M86.166,12.18c1.141-0.24,2.94-0.42,4.771-0.42c2.609,0,4.289,0.45,5.55,1.47c1.05,0.78,1.68,1.98,1.68,3.57c0,1.95-1.29,3.66-3.42,4.44v0.06c1.92,0.48,4.17,2.07,4.17,5.07c0,1.74-0.69,3.06-1.71,4.05c-1.41,1.29-3.69,1.89-6.99,1.89c-1.8,0-3.18-0.12-4.05-0.24V12.18z M88.776,20.459h2.37c2.76,0,4.38-1.44,4.38-3.39c0-2.37-1.8-3.3-4.44-3.3c-1.199,0-1.89,0.09-2.31,0.18V20.459z M88.776,30.149c0.51,0.09,1.26,0.12,2.189,0.12c2.7,0,5.19-0.99,5.19-3.93c0-2.76-2.37-3.9-5.22-3.9h-2.16V30.149z"/></g><g><path fill="#009640" d="M133.512,11.909v2.19h-8.13v18.029h-2.61V11.909H133.512z"/></g><g><path fill="#009FE3" d="M28.767,45.77v18.089l1.77,0.06l-0.18,6.93h-2.04l-0.18-4.86h-12.75l-0.18,4.86h-2.04l-0.18-6.93l1.53-0.06c0.75-1.38,1.5-2.85,1.98-4.44c0.69-2.34,0.96-5.04,0.96-8.52v-5.13H28.767z M19.887,51.739c0,3.24-0.3,5.97-1.02,8.25c-0.42,1.41-1.05,2.76-1.65,3.84h8.94V47.93h-6.27V51.739z"/></g><g><path fill="#312783" d="M62.521,57.509h-7.86v7.29h8.76v2.19h-11.37V46.77h10.919v2.19h-8.31v6.39h7.86V57.509z"/></g><g><path fill="#E6007E" d="M84.576,46.77l6.27,8.97h0.78v-8.97h2.55v8.97h0.811l6.239-8.97h3.06l-7.169,9.3c3.18,0.33,4.47,2.31,5.459,5.189c0.69,1.92,1.17,3.87,2.011,5.73h-2.67c-0.69-1.35-1.17-3.3-1.681-4.74c-0.93-2.76-1.949-4.53-5.189-4.53h-0.87v9.27h-2.55v-9.27h-0.899c-3.24,0-4.261,1.77-5.221,4.53c-0.479,1.44-0.96,3.39-1.619,4.74h-2.67c0.87-1.86,1.35-3.81,2.01-5.7c1.02-2.85,2.31-4.83,5.46-5.22l-7.17-9.3H84.576z"/></g><g><path fill="#B17F4A" d="M121.992,47.969c1.38-0.9,3.149-1.53,5.34-1.53c3.51,0,5.939,1.83,5.939,4.95c0,2.49-1.8,4.38-4.17,4.92v0.06c2.85,0.3,4.92,2.16,4.92,5.07c0,4.2-3.63,5.88-7.319,5.88c-1.83,0-3.75-0.39-5.28-1.32l0.69-2.04c1.079,0.63,2.88,1.23,4.529,1.23c3,0,4.65-1.62,4.65-3.84c0-3.03-2.91-3.9-5.49-3.9h-1.2v-1.98h1.2c2.67,0,4.74-1.65,4.74-3.72c0-2.04-1.44-3.18-3.63-3.18c-1.53,0-3.12,0.63-4.2,1.32L121.992,47.969z"/></g><g><path fill="#009640" d="M17.397,82.12v8.52c0,3.21-0.06,5.851-0.24,8.55l0.06,0.03c1.02-2.1,2.28-4.29,3.75-6.689l6.54-10.41h2.61v20.22h-2.46v-8.61c0-3.27,0.03-5.669,0.24-8.219l-0.09-0.03c-0.99,2.22-2.37,4.56-3.75,6.81l-6.33,10.05h-2.79V82.12H17.397z"/></g><g><path fill="#FFED00" d="M54.631,82.121v8.97h0.81l6.93-8.97h3.15l-7.65,9.27c3.33,0.45,4.62,2.49,5.67,5.22c0.75,2.07,1.32,3.93,2.22,5.729h-2.82c-0.72-1.38-1.29-3.18-1.83-4.77c-0.93-2.67-2.22-4.5-5.64-4.5h-0.84v9.27h-2.58V82.121H54.631z"/></g><g><path fill="#E94E1B" d="M99.455,82.121v20.219h-2.64V84.311h-6.689v6.12c0,4.38-0.181,9.27-3.03,11.189c-0.75,0.479-1.92,0.96-3.09,0.96l-0.33-2.1c0.811-0.15,1.65-0.63,2.13-1.08c1.62-1.59,1.771-5.52,1.771-8.76v-8.52H99.455z"/></g><g><path fill="#E30613" d="M134.812,93.46c-0.15-2.82-0.33-6.21-0.301-8.729h-0.09c-0.689,2.37-1.529,4.89-2.55,7.68l-3.569,9.81h-1.98l-3.27-9.63c-0.96-2.85-1.771-5.46-2.34-7.859h-0.061c-0.06,2.52-0.21,5.909-0.39,8.939l-0.54,8.67h-2.49l1.41-20.22h3.33l3.45,9.78c0.84,2.489,1.529,4.709,2.04,6.81h0.09c0.51-2.04,1.229-4.26,2.13-6.81l3.6-9.78h3.33l1.26,20.22h-2.55L134.812,93.46z"/></g><g><path fill="#936037" d="M17.547,116.98v8.46h9.78v-8.46h2.64v20.22h-2.64v-9.479h-9.78v9.479h-2.61v-20.22H17.547z"/></g><g><path fill="#E6007E" d="M67.331,126.881c0,6.959-4.229,10.649-9.39,10.649c-5.34,0-9.089-4.141-9.089-10.26c0-6.42,3.99-10.62,9.39-10.62C63.761,116.65,67.331,120.881,67.331,126.881z M51.642,127.21c0,4.32,2.34,8.19,6.45,8.19c4.14,0,6.48-3.811,6.48-8.4c0-4.02-2.1-8.22-6.45-8.22C53.802,118.78,51.642,122.771,51.642,127.21z"/></g><g><path fill="#312783" d="M99.775,116.98v20.22h-2.609v-18.029h-9.39V137.2h-2.61v-20.22H99.775z"/></g><g><path fill="#009FE3" d="M121.771,117.221c1.261-0.21,2.91-0.391,5.01-0.391c2.58,0,4.471,0.601,5.67,1.68c1.11,0.96,1.771,2.431,1.771,4.23c0,1.83-0.54,3.27-1.561,4.319c-1.38,1.471-3.63,2.22-6.18,2.22c-0.779,0-1.5-0.029-2.1-0.18v8.1h-2.61V117.221z M124.382,126.97c0.57,0.15,1.29,0.21,2.16,0.21c3.149,0,5.069-1.529,5.069-4.319c0-2.67-1.89-3.96-4.77-3.96c-1.14,0-2.01,0.09-2.46,0.21V126.97z"/></g><g></g><g></g><g></g><g></g><g></g><g></g></svg>