<?xml version="1.0" encoding="utf-8"?>
<!-- Generator: Adobe Illustrator 17.0.0, SVG Export Plug-In . SVG Version: 6.00 Build 0)  -->
<!DOCTYPE svg PUBLIC "-//W3C//DTD SVG 1.1//EN" "http://www.w3.org/Graphics/SVG/1.1/DTD/svg11.dtd">
<svg version="1.1" id="Слой_1" xmlns="http://www.w3.org/2000/svg" xmlns:xlink="http://www.w3.org/1999/xlink" x="0px" y="0px"
	 width="150px" height="150px" viewBox="0 0 150 150" enable-background="new 0 0 150 150" xml:space="preserve">
<g>
	<g>
		<g>
			<path fill="#F08929" d="M34.629,83.74c0.003-0.012,0.006-0.028,0.008-0.038C34.635,83.714,34.632,83.727,34.629,83.74z"/>
			<path fill="#F08929" d="M39.963,76.748c0.176,0.035,0.351,0.073,0.524,0.124C40.313,76.82,40.138,76.783,39.963,76.748z"/>
			<path fill="#F08929" d="M34.583,83.973c0.005-0.028,0.011-0.058,0.016-0.083C34.594,83.916,34.589,83.943,34.583,83.973z"/>
			<path fill="#F08929" d="M40.777,76.973c0.16,0.057,0.319,0.117,0.476,0.187C41.096,77.09,40.937,77.03,40.777,76.973z"/>
			<path fill="#F08929" d="M34.469,84.686c0.006-0.044,0.012-0.084,0.018-0.126C34.481,84.603,34.475,84.641,34.469,84.686z"/>
			<path fill="#F08929" d="M34.528,84.29c0.007-0.041,0.013-0.08,0.02-0.117C34.541,84.212,34.534,84.248,34.528,84.29z"/>
			<path fill="#F08929" d="M42.997,78.25c0.163,0.133,0.322,0.276,0.479,0.424C43.318,78.527,43.159,78.383,42.997,78.25z"/>
			<path fill="#F08929" d="M44.32,79.55c0.215,0.252,0.422,0.519,0.622,0.797C44.742,80.068,44.534,79.802,44.32,79.55z"/>
			<path fill="#F08929" d="M38.927,76.632c0.262,0,0.523,0.024,0.784,0.063C39.45,76.656,39.189,76.632,38.927,76.632z"/>
			<path fill="#F08929" d="M44.266,79.491c-0.191-0.222-0.388-0.433-0.59-0.632C43.878,79.058,44.074,79.269,44.266,79.491z"/>
			<path fill="#F08929" d="M41.546,77.302c0.155,0.078,0.308,0.162,0.459,0.253C41.854,77.464,41.701,77.38,41.546,77.302z"/>
			<path fill="#F08929" d="M42.286,77.73c0.155,0.102,0.307,0.211,0.458,0.326C42.593,77.941,42.441,77.831,42.286,77.73z"/>
			<path fill="#F08929" d="M34.412,85.154c0.002-0.016,0.004-0.03,0.005-0.046C34.415,85.124,34.413,85.138,34.412,85.154z"/>
			<path fill="#F08929" d="M35.358,82.553c0.033-0.026,0.065-0.053,0.1-0.076C35.423,82.501,35.391,82.528,35.358,82.553z"/>
			<path fill="#F08929" d="M35.299,96.178c-0.178-0.224-0.351-0.458-0.517-0.701C34.948,95.72,35.121,95.953,35.299,96.178z"/>
			<path fill="#F08929" d="M34.607,95.216c-0.162-0.249-0.318-0.508-0.467-0.774C34.289,94.708,34.445,94.966,34.607,95.216z"/>
			<path fill="#F08929" d="M34.018,94.228c-0.183-0.341-0.356-0.693-0.517-1.058C33.662,93.535,33.835,93.887,34.018,94.228z"/>
			<path fill="#F08929" d="M47.525,86.809c-0.396-2.47-1.329-4.707-2.576-6.451c-1.223-0.965-2.58-1.52-3.955-1.52
				c-0.269,0-0.539,0.022-0.805,0.064c-1.797,0.288-3.313,1.547-4.369,3.385c-0.008,0.003-0.014,0.008-0.022,0.012
				c0.351-0.141,0.746-0.181,1.142-0.087c1.018,0.241,1.646,1.262,1.406,2.279c-0.016,0.068-0.669,3.009,0.253,5.538
				c0.359,0.984-0.148,2.072-1.131,2.431c-0.5,0.182-1.027,0.141-1.472-0.073c-0.429-0.207-0.782-0.575-0.958-1.058
				c-0.555-1.522-0.717-3.089-0.717-4.413c0,0.045-0.002,0.086-0.002,0.132c-0.166,1.395-0.145,2.884,0.097,4.398
				c0.394,2.46,1.321,4.689,2.561,6.431c1.227,0.974,2.589,1.541,3.969,1.541c0.269,0,0.539-0.021,0.804-0.064
				C45.863,98.693,48.508,92.949,47.525,86.809z"/>
			<path fill="#F08929" d="M36.913,97.827c-0.244-0.197-0.484-0.408-0.716-0.637C36.429,97.419,36.669,97.629,36.913,97.827z"/>
			<path fill="#F08929" d="M33.423,92.978c-0.128-0.301-0.247-0.61-0.357-0.925C33.176,92.369,33.296,92.677,33.423,92.978z"/>
			<path fill="#F08929" d="M32.601,90.475c-0.097-0.405-0.184-0.816-0.252-1.236C32.416,89.66,32.503,90.07,32.601,90.475z"/>
			<path fill="#F08929" d="M35.044,82.852c0.03-0.037,0.062-0.072,0.095-0.106C35.106,82.781,35.075,82.815,35.044,82.852z"/>
			<path fill="#F08929" d="M34.809,83.208c0.02-0.039,0.044-0.075,0.067-0.113C34.854,83.133,34.829,83.168,34.809,83.208z"/>
			<path fill="#F08929" d="M34.326,86.49c0.002-0.073,0.003-0.146,0.006-0.216C34.329,86.344,34.328,86.417,34.326,86.49z"/>
			<path fill="#F08929" d="M34.355,85.835c0.003-0.048,0.005-0.099,0.009-0.146C34.361,85.736,34.358,85.787,34.355,85.835z"/>
			<path fill="#F08929" d="M35.44,96.358c0.233,0.282,0.473,0.55,0.722,0.798C35.912,96.909,35.672,96.64,35.44,96.358z"/>
			<path fill="#F08929" d="M32.946,91.692c-0.091-0.281-0.174-0.567-0.251-0.857C32.771,91.126,32.855,91.411,32.946,91.692z"/>
		</g>
		<g>
			<path fill="#F08929" d="M57.125,63.278c0.163,0.019,0.326,0.042,0.489,0.072C57.45,63.32,57.287,63.297,57.125,63.278z"/>
			<path fill="#F08929" d="M54.196,78.229c-0.19-0.227-0.376-0.458-0.555-0.698C53.82,77.77,54.006,78.002,54.196,78.229z"/>
			<path fill="#F08929" d="M52.769,70.533c0-0.043,0.008-0.084,0.011-0.126C52.777,70.449,52.769,70.49,52.769,70.533z"/>
			<path fill="#F08929" d="M52.812,70.14c0.01-0.047,0.026-0.091,0.039-0.136C52.838,70.049,52.822,70.093,52.812,70.14z"/>
			<path fill="#F08929" d="M57.853,63.396c0.165,0.034,0.331,0.074,0.497,0.118C58.185,63.47,58.019,63.43,57.853,63.396z"/>
			<path fill="#F08929" d="M58.56,63.57c0.23,0.067,0.461,0.141,0.69,0.226C59.021,63.711,58.791,63.637,58.56,63.57z"/>
			<path fill="#F08929" d="M61.578,64.98c0.226,0.146,0.45,0.299,0.671,0.462C62.028,65.279,61.804,65.126,61.578,64.98z"/>
			<path fill="#F08929" d="M56.222,63.218c0.227,0,0.457,0.013,0.688,0.034C56.679,63.232,56.449,63.218,56.222,63.218z"/>
			<path fill="#F08929" d="M60.881,64.56c0.177,0.1,0.353,0.204,0.528,0.314C61.234,64.764,61.058,64.659,60.881,64.56z"/>
			<path fill="#F08929" d="M59.26,63.8c0.24,0.089,0.479,0.19,0.717,0.298C59.738,63.99,59.5,63.889,59.26,63.8z"/>
			<path fill="#F08929" d="M60.138,64.176c0.182,0.086,0.364,0.178,0.545,0.275C60.503,64.353,60.321,64.262,60.138,64.176z"/>
			<path fill="#F08929" d="M57.599,81.257c-0.166-0.107-0.331-0.219-0.495-0.334C57.267,81.039,57.432,81.15,57.599,81.257z"/>
			<path fill="#F08929" d="M65.48,68.672c-0.953-1.274-2.055-2.364-3.228-3.228c-1.23-0.55-2.483-0.847-3.687-0.847
				c-1.277,0-2.385,0.344-3.291,1.023c-1.121,0.839-1.846,2.143-2.112,3.758c-0.013,0.018-0.022,0.038-0.035,0.056
				c0.264-0.369,0.654-0.649,1.132-0.753c1.021-0.225,2.03,0.423,2.255,1.443c0.016,0.068,0.703,3.001,2.632,4.88
				c0.75,0.73,0.766,1.93,0.036,2.681c-0.372,0.382-0.865,0.573-1.358,0.573c-0.477,0-0.954-0.179-1.322-0.538
				c-1.947-1.896-2.958-4.386-3.402-5.762c0.005,0.016,0.008,0.028,0.014,0.044c0.256,2.331,1.256,4.749,2.871,6.908
				c0.953,1.274,2.055,2.364,3.228,3.228c1.23,0.55,2.484,0.847,3.687,0.847c1.278,0,2.385-0.344,3.292-1.023
				c1.484-1.11,2.274-3.034,2.225-5.418C68.361,73.924,67.319,71.129,65.48,68.672z"/>
			<path fill="#F08929" d="M52.84,71.059c-0.002-0.01-0.006-0.023-0.008-0.032C52.835,71.038,52.838,71.048,52.84,71.059z"/>
			<path fill="#F08929" d="M52.9,71.291c-0.006-0.022-0.012-0.045-0.018-0.066C52.889,71.248,52.894,71.268,52.9,71.291z"/>
			<path fill="#F08929" d="M53,69.641c-0.023,0.042-0.046,0.084-0.066,0.128C52.953,69.725,52.977,69.684,53,69.641z"/>
			<path fill="#F08929" d="M54.787,78.895c-0.139-0.149-0.276-0.302-0.411-0.458C54.511,78.593,54.648,78.746,54.787,78.895z"/>
			<path fill="#F08929" d="M52.992,71.613c-0.009-0.03-0.017-0.058-0.025-0.087C52.975,71.556,52.982,71.582,52.992,71.613z"/>
			<path fill="#F08929" d="M56.247,80.274c-0.213-0.176-0.423-0.361-0.63-0.552C55.824,79.913,56.033,80.098,56.247,80.274z"/>
			<path fill="#F08929" d="M54.995,79.114c0.142,0.146,0.286,0.288,0.431,0.427C55.281,79.402,55.137,79.26,54.995,79.114z"/>
			<path fill="#F08929" d="M58.32,81.686c-0.168-0.093-0.335-0.19-0.501-0.291C57.984,81.497,58.152,81.593,58.32,81.686z"/>
			<path fill="#F08929" d="M59.206,82.134c-0.231-0.104-0.461-0.218-0.69-0.339C58.745,81.916,58.975,82.03,59.206,82.134z"/>
			<path fill="#F08929" d="M56.917,80.792c-0.224-0.163-0.446-0.333-0.664-0.513C56.471,80.459,56.693,80.628,56.917,80.792z"/>
		</g>
		<g>
			<path fill="#86BF95" d="M14.482,31.324c-0.041-0.083-0.082-0.166-0.121-0.246C14.4,31.158,14.441,31.241,14.482,31.324z"/>
			<path fill="#86BF95" d="M14.822,31.992c-0.049-0.095-0.098-0.188-0.145-0.281C14.724,31.804,14.772,31.897,14.822,31.992z"/>
			<path fill="#86BF95" d="M15.193,32.685c-0.055-0.1-0.107-0.198-0.16-0.296C15.086,32.487,15.138,32.585,15.193,32.685z"/>
			<path fill="#86BF95" d="M15.597,33.405c-0.055-0.096-0.107-0.189-0.161-0.285C15.49,33.215,15.542,33.308,15.597,33.405z"/>
			<path fill="#86BF95" d="M27.017,37.794c0.429,0.395,0.841,0.802,1.242,1.214C27.858,38.596,27.447,38.188,27.017,37.794z"/>
			<path fill="#86BF95" d="M29.713,40.6c0.766,0.894,1.47,1.801,2.103,2.691C31.183,42.401,30.48,41.495,29.713,40.6z"/>
			<path fill="#86BF95" d="M14.171,30.678c-0.03-0.064-0.062-0.131-0.09-0.194C14.11,30.547,14.141,30.614,14.171,30.678z"/>
			<path fill="#86BF95" d="M28.446,39.199c0.385,0.402,0.757,0.811,1.114,1.223C29.202,40.01,28.831,39.602,28.446,39.199z"/>
			<path fill="#86BF95" d="M16.185,34.391c-0.056-0.091-0.114-0.183-0.168-0.273C16.071,34.208,16.129,34.3,16.185,34.391z"/>
			<path fill="#86BF95" d="M19.9,39.553c-0.106-0.125-0.214-0.25-0.318-0.376C19.686,39.303,19.794,39.427,19.9,39.553z"/>
			<path fill="#86BF95" d="M18.986,38.434c-0.1-0.127-0.195-0.255-0.293-0.382C18.79,38.18,18.886,38.307,18.986,38.434z"/>
			<path fill="#86BF95" d="M20.59,40.345c-0.115-0.128-0.231-0.257-0.344-0.386C20.359,40.088,20.475,40.216,20.59,40.345z"/>
			<path fill="#86BF95" d="M31.817,43.293c-0.601-0.655-1.234-1.299-1.905-1.916c-4.595-4.225-10.194-6.884-13.178-7.855
				c0.743,1.748,2.145,4.368,4.068,7.055c0.604,0.661,1.235,1.305,1.897,1.914c4.31,3.963,9.844,6.329,12.757,7.219
				C34.83,48.155,33.592,45.791,31.817,43.293z"/>
			<path fill="#86BF95" d="M17.795,36.834c-0.094-0.132-0.186-0.264-0.277-0.396C17.609,36.57,17.701,36.701,17.795,36.834z"/>
			<path fill="#86BF95" d="M17.242,36.034c-0.087-0.128-0.173-0.256-0.257-0.383C17.069,35.778,17.155,35.906,17.242,36.034z"/>
			<path fill="#86BF95" d="M18.375,37.635c-0.099-0.133-0.195-0.266-0.292-0.399C18.18,37.369,18.276,37.501,18.375,37.635z"/>
			<path fill="#86BF95" d="M16.712,35.23c-0.076-0.118-0.153-0.236-0.227-0.353C16.559,34.994,16.636,35.112,16.712,35.23z"/>
		</g>
		<g>
			<path fill="#86BF95" d="M22.492,14.966c-0.049-0.119-0.096-0.237-0.142-0.354C22.396,14.728,22.443,14.846,22.492,14.966z"/>
			<path fill="#86BF95" d="M22.195,14.214c-0.041-0.107-0.082-0.214-0.121-0.318C22.113,14,22.154,14.107,22.195,14.214z"/>
			<path fill="#86BF95" d="M22.819,15.746c-0.056-0.129-0.109-0.256-0.162-0.382C22.71,15.491,22.763,15.617,22.819,15.746z"/>
			<path fill="#86BF95" d="M21.929,13.497c-0.033-0.094-0.068-0.188-0.099-0.279C21.861,13.309,21.895,13.403,21.929,13.497z"/>
			<path fill="#86BF95" d="M21.69,12.805c-0.024-0.072-0.05-0.147-0.072-0.217C21.641,12.658,21.667,12.733,21.69,12.805z"/>
			<path fill="#86BF95" d="M35.933,24.415c0.61,0.906,1.164,1.816,1.661,2.708C37.097,26.231,36.544,25.321,35.933,24.415z"/>
			<path fill="#86BF95" d="M33.611,21.353c0.367,0.427,0.716,0.864,1.056,1.305C34.327,22.217,33.978,21.78,33.611,21.353z"/>
			<path fill="#86BF95" d="M34.851,22.898c0.322,0.426,0.632,0.857,0.928,1.289C35.483,23.755,35.174,23.324,34.851,22.898z"/>
			<path fill="#86BF95" d="M23.179,16.556c-0.063-0.138-0.122-0.272-0.182-0.408C23.057,16.284,23.116,16.419,23.179,16.556z"/>
			<path fill="#86BF95" d="M27.453,23.861c-0.113-0.151-0.222-0.305-0.333-0.458C27.231,23.556,27.34,23.71,27.453,23.861z"/>
			<path fill="#86BF95" d="M26.837,23.007c-0.109-0.156-0.216-0.314-0.322-0.471C26.621,22.693,26.728,22.85,26.837,23.007z"/>
			<path fill="#86BF95" d="M25.695,21.269c-0.1-0.161-0.198-0.322-0.295-0.482C25.497,20.947,25.596,21.108,25.695,21.269z"/>
			<path fill="#86BF95" d="M23.569,17.389c-0.071-0.148-0.138-0.292-0.206-0.438C23.431,17.097,23.498,17.242,23.569,17.389z"/>
			<path fill="#86BF95" d="M37.65,27.224c-0.407-0.541-0.834-1.076-1.283-1.598c-4.037-4.694-9.332-8.025-12.171-9.343
				c0.542,1.853,1.656,4.683,3.296,7.63c0.409,0.546,0.835,1.083,1.28,1.602c3.842,4.467,9.048,7.452,11.829,8.667
				C40.155,32.533,39.171,29.974,37.65,27.224z"/>
			<path fill="#86BF95" d="M26.251,22.141c-0.105-0.159-0.207-0.319-0.309-0.479C26.043,21.822,26.146,21.981,26.251,22.141z"/>
			<path fill="#86BF95" d="M24.214,18.667c-0.16-0.305-0.314-0.608-0.462-0.908C23.9,18.059,24.054,18.361,24.214,18.667z"/>
			<path fill="#86BF95" d="M24.676,19.526c-0.089-0.161-0.179-0.323-0.266-0.484C24.497,19.203,24.587,19.365,24.676,19.526z"/>
			<path fill="#86BF95" d="M25.169,20.394c-0.094-0.161-0.188-0.322-0.279-0.483C24.981,20.072,25.075,20.233,25.169,20.394z"/>
		</g>
		<g>
			<path fill="#86BF95" d="M59.2,32.695c-0.11-0.001-0.223-0.002-0.326-0.004C58.977,32.693,59.09,32.693,59.2,32.695z"/>
			<path fill="#86BF95" d="M79.21,25.315c-3.052,0.092-7.427,0.887-11.386,2.471C64.434,29.143,61.488,31,59.441,33
				C59.46,33,60,33,60,33v-0.451c2,0,6.187-0.119,10.66-1.909c4.215-1.687,7.938-4.586,10.123-6.638
				C80.36,24.4,79.748,24.867,79.21,25.315z"/>
		</g>
	</g>
	<path fill="#402E21" d="M56.501,77.719c0.369,0.359,0.846,0.538,1.322,0.538c0.494,0,0.987-0.192,1.358-0.573
		c0.73-0.75,0.715-1.95-0.036-2.681c-1.929-1.878-2.616-4.811-2.632-4.88c-0.226-1.02-1.234-1.667-2.255-1.443
		c-1.023,0.223-1.671,1.234-1.447,2.257C52.847,71.102,53.728,75.019,56.501,77.719z"/>
	<path fill="#402E21" d="M38.346,84.489c0.239-1.017-0.388-2.038-1.406-2.279c-1.018-0.243-2.041,0.387-2.283,1.405
		c-0.039,0.165-0.946,4.075,0.381,7.711c0.176,0.483,0.528,0.851,0.958,1.058c0.445,0.214,0.972,0.256,1.472,0.073
		c0.984-0.359,1.49-1.447,1.131-2.431C37.677,87.498,38.33,84.558,38.346,84.489z"/>
	<path fill="#402E21" d="M86.033,21.717c-0.528-1.321-2.086-1.86-5.375-1.86c-3.405,0-8.754,0.684-13.553,2.605
		c-3.225,1.29-6.7,3.399-9.534,5.785c-1.22,1.027-2.239,2.037-2.945,2.921c-0.311,0.389-0.975,1.415-0.975,1.415
		c1.541-2.709,3.278-5.457,5.239-8.213c0.607-0.853,0.407-2.037-0.446-2.644c-0.854-0.607-2.037-0.407-2.644,0.446
		c-3.877,5.449-6.898,10.857-9.256,15.959l-1.891-2.019c0.073-1.208-0.259-3.161-1.593-6.397c-1.606-3.893-4.002-7.842-6.576-10.834
		c-5.539-6.44-14.014-11.287-16.807-11.287c-0.805,0-1.329,0.305-1.627,0.561c-0.588,0.506-1.813,1.559,1.011,8.433
		c1.014,2.467,3.25,7.228,6.836,11.398c5.246,6.1,12.924,9.979,15.808,10.525l3.184,3.399c-0.531,1.286-1.021,2.547-1.472,3.778
		c-0.06,0.122-0.106,0.251-0.138,0.384c-0.807,2.235-1.487,4.366-2.058,6.366l-1.514-1.278c-0.069-1.209-0.626-3.109-2.329-6.166
		c-2.049-3.679-4.891-7.321-7.796-9.992c-6.061-5.573-14.59-9.27-17.571-9.27c-0.849,0-1.518,0.26-1.989,0.772
		c-0.525,0.571-1.618,1.76,1.989,8.257c1.295,2.332,4.072,6.799,8.12,10.521c5.923,5.445,14.1,8.474,16.944,8.619l3.081,2.6
		c-0.16,0.675-0.309,1.331-0.445,1.961c-1.437,6.693-1.769,11.815-1.833,14.447c-3.21,0.707-6.156,2.664-7.824,6.005
		c-1.563,3.13-2.078,7.01-1.451,10.924c1.22,7.621,6.526,13.369,12.341,13.369c0.469,0,0.941-0.038,1.404-0.112
		c3.147-0.504,5.798-2.621,7.466-5.963c1.563-3.13,2.078-7.01,1.452-10.924c-1.025-6.399-4.931-11.475-9.599-12.939
		c0.063-3.001,0.527-10.463,3.297-20.089c1.54,4.64,3.244,7.672,4.319,9.308c-1.597,1.843-2.43,4.352-2.371,7.248
		c0.07,3.404,1.381,6.979,3.69,10.065c3.219,4.301,7.929,6.973,12.293,6.973c2.085,0,4.009-0.615,5.564-1.779
		c2.489-1.863,3.819-4.892,3.744-8.531c-0.07-3.404-1.38-6.979-3.69-10.065c-3.218-4.301-7.929-6.973-12.294-6.973
		c-1.385,0-2.699,0.273-3.881,0.797c-1.267-1.979-3.616-6.351-5.241-13.547c1.082-2.937,2.379-6.004,3.933-9.154l4.178-1.47
		c0.857,0.266,2.184,0.435,4.286,0.435c0,0,0,0,0,0c2.011,0,7.236-0.22,12.32-2.254c4.494-1.798,8.171-4.605,9.963-6.117
		c1.206-1.018,2.287-2.064,3.044-2.945C85.742,24.103,86.524,22.945,86.033,21.717z M33.611,21.353
		c3.914,4.551,6.228,10.014,6.991,12.828c-2.781-1.215-7.987-4.2-11.829-8.667c-3.912-4.548-6.424-10.399-7.333-13.504
		C24.279,13.328,29.574,16.659,33.611,21.353z M35.456,49.71c-2.914-0.891-8.447-3.257-12.758-7.219
		c-4.415-4.059-7.592-9.573-8.859-12.552c2.983,0.971,8.582,3.63,13.178,7.855C31.432,41.852,34.367,47.003,35.456,49.71z
		 M41.751,99.352c-0.265,0.043-0.536,0.064-0.804,0.064c-3.907,0-7.683-4.47-8.597-10.177c-0.983-6.141,1.66-11.885,5.773-12.544
		c0.265-0.042,0.536-0.064,0.805-0.064c3.907,0,7.684,4.47,8.598,10.177C48.508,92.949,45.863,98.693,41.751,99.352z M52.931,64.241
		c0.907-0.679,2.014-1.023,3.291-1.023c3.194,0,6.741,2.09,9.258,5.453c1.839,2.457,2.881,5.252,2.936,7.871
		c0.049,2.383-0.741,4.307-2.225,5.418c-0.907,0.679-2.015,1.023-3.292,1.023c-3.193,0-6.741-2.09-9.258-5.453
		c-1.839-2.458-2.881-5.253-2.935-7.872C50.656,67.275,51.446,65.351,52.931,64.241z M59.496,32.698
		c-0.421,0-0.803-0.01-1.145-0.026c1.842-1.881,5.602-4.866,10.163-6.691c4.299-1.72,9.092-2.333,12.145-2.333
		c0.141,0,0.276,0.001,0.404,0.004c-2.091,2.054-6.166,5.267-10.654,7.063C65.935,32.505,61.287,32.698,59.496,32.698L59.496,32.698
		z"/>
</g>
<g>
	<path fill="#009741" d="M119.623,113.694c-2.31-0.395-4.667,0.729-6.425,2.246c2.02-8.066,2.682-17.081-0.656-24.199
		c-0.163-0.348-0.706-0.1-0.609,0.257c2.147,7.926,2.049,16.493,0.079,24.668c-1.247-2.388-3.12-5.138-5.718-6.186
		c-1.997-0.805-4.374-0.205-5.273,1.892c-2.474,5.771,6.733,6.533,10.722,5.336c-1.048,4.006-2.556,7.9-4.46,11.572
		c-1.033-2.313-2.686-4.677-5.154-5.496c-1.967-0.653-4.597-0.056-5.136,2.217c-1.121,4.721,5.876,6.577,9.471,4.805
		c-3.551,6.347-8.335,11.935-14.132,16.078c-0.516,0.369-0.03,1.228,0.504,0.862c6.209-4.268,11.082-10.116,14.632-16.702
		c0.877,1.866,2.425,3.314,4.398,4.036c2.072,0.758,5.077,0.742,6.214-1.541c0.912-1.831-0.251-3.872-1.965-4.701
		c-2.47-1.195-5.263-0.032-7.806,0.58c0.874-1.757,1.66-3.559,2.351-5.393c0.709-1.881,1.387-3.903,1.985-6.009
		c1.494,1.644,3.628,2.525,5.873,2.78c1.986,0.225,4.338-0.542,4.659-2.798C123.49,115.784,121.686,114.047,119.623,113.694z"/>
	<path fill="#96C23E" d="M105.927,129.607c-2.76-1.104-5.118-2.403-7.408-4.316c-0.201-0.168-0.471,0.093-0.29,0.29
		c1.98,2.162,4.677,3.9,7.527,4.645C106.166,130.333,106.302,129.757,105.927,129.607z"/>
	<path fill="#96C23E" d="M110.402,116.901c-1.211-0.824-2.644-1.359-3.907-2.115c-1.274-0.763-2.472-1.616-3.679-2.478
		c-0.231-0.165-0.51,0.202-0.302,0.392c2.07,1.886,4.899,4.074,7.645,4.779C110.516,117.571,110.694,117.1,110.402,116.901z"/>
	<path fill="#96C23E" d="M121.682,116.54c-2.724,0.303-5.241,0.634-7.993,0.356c-0.314-0.032-0.386,0.493-0.075,0.553
		c2.631,0.513,5.588,0.65,8.161-0.225C122.122,117.106,122.095,116.494,121.682,116.54z"/>
	<path fill="#96C23E" d="M116.812,132.14c-1.48-0.031-2.825,0.163-4.302-0.18c-1.457-0.338-2.651-1.061-3.964-1.725
		c-0.215-0.109-0.433,0.155-0.26,0.338c1.911,2.016,5.965,3.137,8.608,2.174C117.212,132.63,117.175,132.147,116.812,132.14z"/>
	<path fill="#EF7F72" d="M133.59,69.453c-3.944-1.523-8.633-1.194-12.948-0.615c3.54-2.05,7.056-4.561,9.148-8.008
		c1.996-3.289,2.324-7.878-0.348-10.925c-3.038-3.466-8.058-2.422-11.303,0.144c-2.693,2.131-4.819,5.046-6.496,8.158
		c1.28-7.524,1.277-18.233-7.092-16.841c-3.98,0.662-7.782,4.162-8.617,8.107c-0.741,3.501-0.124,7.314,1.114,10.798
		c-2.42-2.901-5.299-5.587-8.669-6.876c-4.072-1.558-8.68,0.082-10.53,4.123c-1.811,3.954-0.258,8.321,2.872,11.08
		c1.836,1.619,3.984,2.604,6.264,3.235c-2.407,0.307-4.717,1.034-6.734,2.533c-3.114,2.316-4.989,6.616-3.247,10.334
		c1.557,3.322,5.517,4.842,9,4.692c3.893-0.168,7.228-2.284,10.249-4.647c-1.899,3.42-3.198,7.28-2.247,11.168
		c0.877,3.588,3.666,6.886,7.5,7.254c4.181,0.401,8.213-2.321,10.201-5.874c1.294-2.313,1.646-4.913,1.211-7.405
		c1.444,1.965,3.2,3.69,5.256,5.083c2.818,1.909,7.346,4.086,10.319,1.271c2.615-2.476,0.91-6.832-0.742-9.366
		c-0.932-1.43-2.071-2.684-3.317-3.834c2.332,0.969,4.795,1.507,7.374,1.13c3.525-0.516,6.861-3.049,7.349-6.757
		C139.643,73.738,136.823,70.701,133.59,69.453z"/>
	<path fill="#F9CCC7" d="M117.343,73.597c2.053-1.478,1.482-4.874-1.168-5.465c1.512-2.93-1.914-6.035-4.589-4.271
		c-0.68-2.543-3.901-3.477-5.152-1.558c-1.261-1.299-3.561-0.801-4.066,1.117c-1.029-0.802-2.408-1.063-3.531-0.015
		c-0.923,0.862-1.047,2.188-0.519,3.195c-2.385,0.487-3.397,3.375-1.638,5.181c-2.802,1.348-2.54,5.505,0.51,6.277
		c-1.814,2.649,1.323,6.122,4.057,4.587c0.358,2.29,3.277,3.163,4.854,1.433c1.484,2.928,5.99,2.104,6.178-0.953
		c2.209,1.005,4.647-1.093,4.189-3.372c1.118-0.026,2.191-0.899,2.521-2.215C119.402,75.883,118.633,74.39,117.343,73.597z"/>
	<path fill="#343434" d="M102.062,78.834c-0.408-0.278-0.786-0.69-0.85-1.197c-0.026-0.207-0.317-0.218-0.331,0
		c-0.044,0.688,0.336,1.382,1.034,1.545C102.13,79.232,102.24,78.955,102.062,78.834z"/>
	<path fill="#343434" d="M106.217,80.615c-0.626-0.218-1.319-0.237-1.975-0.296c-0.261-0.023-0.323,0.413-0.062,0.461
		c0.648,0.119,1.321,0.285,1.983,0.243C106.397,81.007,106.441,80.693,106.217,80.615z"/>
	<path fill="#343434" d="M110.865,79.53c-0.505,0.415-1.051,0.712-1.716,0.741c-0.253,0.011-0.249,0.371,0,0.39
		c0.761,0.058,1.565-0.183,2.062-0.786C111.412,79.632,111.109,79.329,110.865,79.53z"/>
	<path fill="#343434" d="M114.236,75.651c-0.133,0.646-0.397,1.179-0.834,1.669c-0.132,0.148,0.038,0.404,0.221,0.287
		c0.641-0.407,1.035-1.148,1.02-1.901C114.639,75.48,114.284,75.414,114.236,75.651z"/>
	<path fill="#343434" d="M115.161,70.26c-0.032-0.276-0.397-0.276-0.43,0c-0.094,0.806-0.016,1.65,0.032,2.459
		c0.014,0.235,0.352,0.236,0.366,0C115.176,71.911,115.255,71.066,115.161,70.26z"/>
	<path fill="#343434" d="M113.598,67.913c-0.208-0.761-0.809-1.501-1.634-1.585c-0.241-0.025-0.299,0.321-0.117,0.433
		c0.542,0.331,1.036,0.66,1.251,1.29C113.205,68.364,113.687,68.238,113.598,67.913z"/>
	<path fill="#343434" d="M109.006,65.581c-0.581-0.188-1.42-0.49-2.028-0.299c-0.22,0.069-0.235,0.4,0,0.462
		c0.291,0.077,0.597,0.03,0.895,0.031c0.355,0.001,0.703,0.032,1.053,0.092C109.113,65.898,109.19,65.64,109.006,65.581z"/>
	<path fill="#343434" d="M104.167,66.503c-0.773,0.12-1.68,0.619-1.881,1.43c-0.055,0.222,0.221,0.393,0.388,0.226
		c0.511-0.511,0.885-1.031,1.594-1.289C104.501,66.785,104.407,66.466,104.167,66.503z"/>
	<path fill="#343434" d="M100.874,70.231c-0.578,0.45-1.006,1.211-0.912,1.96c0.043,0.341,0.493,0.344,0.533,0
		c0.074-0.636,0.232-1.177,0.689-1.649C101.387,70.333,101.091,70.062,100.874,70.231z"/>
	<path fill="#343434" d="M101.916,75.915c-0.432-0.365-0.801-0.78-0.987-1.322c-0.081-0.235-0.441-0.142-0.376,0.104
		c0.167,0.634,0.533,1.215,1.112,1.544C101.862,76.354,102.101,76.072,101.916,75.915z"/>
	<path fill="#343434" d="M105.285,78.45c-0.517-0.058-0.919-0.22-1.321-0.551c-0.133-0.109-0.365,0.031-0.256,0.198
		c0.331,0.507,0.971,0.838,1.577,0.783C105.564,78.855,105.56,78.481,105.285,78.45z"/>
	<path fill="#343434" d="M110.405,77.487c-0.485,0.38-0.976,0.756-1.524,1.042c-0.178,0.093-0.055,0.401,0.139,0.33
		c0.641-0.237,1.228-0.556,1.696-1.061C110.913,77.585,110.623,77.316,110.405,77.487z"/>
	<path fill="#343434" d="M112.613,73.358c-0.168,0.669-0.321,1.28-0.649,1.895c-0.101,0.19,0.169,0.43,0.314,0.243
		c0.454-0.586,0.799-1.32,0.805-2.074C113.086,73.154,112.68,73.094,112.613,73.358z"/>
	<path fill="#343434" d="M110.989,69.141c-0.204-0.084-0.324,0.206-0.199,0.343c0.19,0.208,0.414,0.368,0.581,0.601
		c0.167,0.232,0.281,0.486,0.352,0.762c0.059,0.232,0.39,0.13,0.353-0.097C111.972,70.124,111.607,69.395,110.989,69.141z"/>
	<path fill="#343434" d="M108.376,68.318c-0.863-0.405-2.249-0.353-2.709,0.633c-0.077,0.166,0.086,0.369,0.264,0.264
		c0.746-0.442,1.411-0.855,2.306-0.567C108.428,68.709,108.563,68.405,108.376,68.318z"/>
	<path fill="#343434" d="M103.961,70.799c-0.779,0.599-1.194,1.679-0.655,2.575c0.141,0.234,0.515,0.082,0.442-0.187
		c-0.2-0.74-0.146-1.539,0.443-2.09C104.345,70.954,104.135,70.666,103.961,70.799z"/>
	<path fill="#343434" d="M106.095,75.879c-0.285-0.166-0.628-0.21-0.927-0.348c-0.326-0.151-0.614-0.343-0.852-0.614
		c-0.097-0.11-0.278,0.032-0.202,0.156c0.375,0.608,1.133,1.389,1.93,1.195C106.223,76.223,106.249,75.969,106.095,75.879z"/>
	<path fill="#343434" d="M109.589,74.3c-0.529,0.369-0.908,0.986-1.297,1.491c-0.131,0.17,0.141,0.356,0.287,0.222
		c0.453-0.419,1.025-0.845,1.334-1.388C110.025,74.43,109.792,74.159,109.589,74.3z"/>
	<path fill="#343434" d="M109.708,72.316c-0.194-0.486-0.599-1.193-1.174-1.283c-0.193-0.03-0.444,0.178-0.293,0.381
		c0.147,0.197,0.362,0.325,0.539,0.495c0.187,0.179,0.349,0.372,0.481,0.596C109.396,72.734,109.813,72.581,109.708,72.316z"/>
	<path fill="#343434" d="M106.491,71.767c-0.973,0.161-1.3,1.842-0.244,2.123c0.228,0.061,0.422-0.239,0.238-0.409
		c-0.392-0.36-0.552-1.21,0.082-1.438C106.742,71.98,106.672,71.737,106.491,71.767z"/>
	<path fill="#343434" d="M108.293,72.71c-0.17-0.178-0.415,0.047-0.322,0.249c0.195,0.42,0.085,0.948-0.3,1.217
		c-0.135,0.095-0.057,0.32,0.116,0.275C108.525,74.26,108.823,73.262,108.293,72.71z"/>
</g>
</svg>
