<?xml version="1.0" encoding="utf-8"?>
<!-- Generator: Adobe Illustrator 17.0.0, SVG Export Plug-In . SVG Version: 6.00 Build 0)  -->
<!DOCTYPE svg PUBLIC "-//W3C//DTD SVG 1.1//EN" "http://www.w3.org/Graphics/SVG/1.1/DTD/svg11.dtd">
<svg version="1.1" id="Слой_1" xmlns="http://www.w3.org/2000/svg" xmlns:xlink="http://www.w3.org/1999/xlink" x="0px" y="0px"
	 width="500px" height="500px" viewBox="0 0 500 500" enable-background="new 0 0 500 500" xml:space="preserve">
<g>
	<path fill="#1E1E1C" d="M498.163,8.33c0.304,35.638,0.025,71.282,0,106.926c-0.034,63.439-0.067,126.884-0.093,190.328
		c-0.034,63.797-0.034,127.595-0.084,191.392c0,0.834-1.847,0.909-2.193,0.235c-0.084,0.011-0.177,0.021-0.278,0.021
		c-35.991,0.118-71.983,0.23-107.974,0.348c-63.995,0.203-127.982,0.417-191.977,0.337c-32.28-0.043-64.56-0.166-96.84-0.401
		c-16.001-0.112-32.002-0.257-47.994-0.454c-15.916-0.198-31.926-0.155-47.809-0.829c0,0.07,0,0.134,0,0.203
		c-0.008,0.823-2.016,0.823-2.008,0c0.405-35.601,0.81-71.202,1.147-106.803C2.659,326.617,3.131,263.6,3.334,200.583
		c0.101-31.329,0.152-62.659,0.194-93.988c0.034-31.682-0.54-63.38,0.025-95.063c0-0.032,0.009-0.064,0.017-0.091l1.223,0.021
		c0.008,0.027,0.025,0.043,0.025,0.07c0.228,10.137,0.337,20.273,0.388,30.41v0.765c0.118,25.213-0.16,50.432-0.152,75.634
		c0,63.017-0.211,126.034-0.548,189.051c-0.051,9.271-0.11,18.546-0.169,27.817c0.008,0,0.017,0,0.025,0
		c3.239-0.064,6.478-0.118,9.709-0.176c0-0.005,0-0.011,0-0.016c-1.704-21.246-2.412-42.519-2.564-63.792
		c-0.278-37.606,1.156-75.201,2.058-112.796c0.455-18.798,0.776-37.6,0.683-56.398c-0.101-18.434-1.341-36.852-1.594-55.281
		l1.62-0.011c2.328,20.818,1.965,41.878,1.957,62.739c0,3.357-0.025,6.715-0.051,10.072c0.118-0.037,0.253-0.059,0.405-0.064
		c34.448-0.551,68.921-0.647,103.377-0.802c60.798-0.273,121.597-0.257,182.386,0.059c61.077,0.321,122.145,0.946,183.205,1.86
		c0.228,0.005,0.405,0.048,0.548,0.112c0.025-5.33,0.042-10.661,0.059-15.991c0.059-18.439-0.894-37.018,0.405-55.436
		c-17.224,1.582-34.355-5.646-49.217-10.495c-9.928-3.24-20.277-5.581-31.605-4.993c-11.606,0.604-22.513,3.561-33.343,6.041
		c-20.336,4.662-41.44,8.34-63.093,9.34c-16.667,0.775-36.742,0.684-50.601-6.18c-15.276-7.57-13.833-20.578-15.022-31.591
		l0.278,0.005c0.649,3.657,1.645,7.276,2.328,10.933c0.599,3.202,1.333,6.416,2.885,9.495c3.357,6.656,10.889,11.27,21.129,13.692
		c17.797,4.202,39.171,2.85,57.416,0.754c20.395-2.336,39.272-7.1,58.841-11.206c8.873-1.86,18.228-3.283,27.641-2.694
		c8.865,0.551,17.114,2.801,24.933,5.378c16.887,5.56,36.194,13.959,55.822,8.506c0.363-0.102,0.717-0.075,0.995,0.021
		c0.051-12.58,0.127-25.165,0.245-37.745l0.093-0.487C496.67,7.539,498.163,7.63,498.163,8.33z M495.995,199.728
		c0.042-50.747-0.236-101.5-0.042-152.247c-2.581,0.775-5.171,1.304-7.76,1.631c0.666,10.511,0.169,21.08,0.127,31.602l-0.118,30.95
		c-0.143,37.173-0.278,74.351-0.405,111.529c-0.127,37.173-0.135,74.351-0.413,111.529c-0.008,0.118-0.059,0.219-0.135,0.305
		c2.876,0.032,5.753,0.059,8.637,0.091C495.92,289.989,495.962,244.856,495.995,199.728z M495.835,390.056
		c0.017-17.835,0.034-35.671,0.051-53.506c-35.857-0.433-71.713-0.775-107.57-1.016c-17.393-0.118-34.777-0.208-52.161-0.283
		l-1.56-0.005c-46.088-0.187-92.176-0.224-138.264-0.096c-12.711,0.032-25.431,0.102-38.142,0.187
		c1.586,11.543,2.176,23.176,2.893,34.751c2.606,42.033,2.615,84.316-1.248,126.317c47.842,0.155,95.685,0.112,143.527-0.005
		c11.564-0.027,23.137-0.059,34.701-0.091l1.518-0.005c51.976-0.144,103.951-0.332,155.935-0.497c0.076,0,0.152,0.005,0.219,0.016
		C495.759,460.563,495.801,425.31,495.835,390.056z M486.093,123.388c0.008-0.524,0.008-1.048,0.008-1.572
		c-0.143,0.059-0.329,0.096-0.548,0.091c-34.448-0.519-68.904-0.946-103.361-1.272c-60.79-0.583-121.588-0.872-182.387-0.866
		c-61.077,0.011-122.145,0.636-183.221,0.871c-0.16,0-0.295-0.021-0.405-0.059c-0.008,0.882-0.025,1.764-0.034,2.646
		c17.241-0.412,34.558-0.171,51.807-0.192c17.114-0.021,34.237-0.037,51.36-0.053c60.9-0.048,121.807-0.053,182.707,0
		c60.765,0.053,121.521,0.15,182.285,0.299c0.278-0.107,0.633-0.096,0.919,0.005c0.11,0,0.228,0,0.346,0
		C485.789,123.286,485.95,123.329,486.093,123.388z M485.975,160.224c0.042-11.928,0.076-23.85,0.118-35.777
		c-0.143,0.059-0.304,0.102-0.523,0.102c-0.051,0-0.101,0-0.152,0c-3.475,7.437-22.774,8.287-28.231,1.641
		c-2.05,3.09-6.807,5.357-12.306,5.239c-4.083-0.086-9.059-1.86-10.932-4.379c-1.442,2.657-5.508,4.662-10.156,4.758
		c-5.617,0.118-10.164-2.31-12.61-5.33c-1.839,3.112-6.605,5.443-12.079,5.207c-4.707-0.203-8.435-2.165-10.231-4.753
		c-1.746,3.106-6.402,5.496-11.876,5.346c-5.407-0.144-9.742-2.834-10.906-6.02c-1.611,2.839-6.276,4.993-11.117,4.881
		c-4.757-0.107-8.553-2.155-10.206-4.806c-1.754,2.946-5.449,5.149-11.033,5.052c-4.572-0.086-8.165-1.978-9.565-4.485
		c-4.614,6.314-19.206,6.175-23.727-0.118c-1.518,2.331-4.977,4.015-9.152,4.314c-5.305,0.374-9.894-1.631-12.72-4.32
		c-0.919,2.951-4.934,5.469-9.995,5.293c-4.319-0.144-7.642-2.165-8.679-4.63c-1.307,2.165-4.665,3.828-8.477,4.101
		c-5.348,0.385-9.7-1.54-12.053-4.304c-1.274,2.743-5.238,4.753-10.113,4.806c-6.098,0.064-10.594-2.523-12.534-5.892
		c-1.695,2.78-5.533,5.015-10.485,5.175c-4.968,0.166-9.219-1.786-11.092-4.502c-1.459,2.395-4.985,4.261-9.287,4.181
		c-4.395-0.08-7.963-2.16-8.975-4.726c-1.012,2.983-4.352,5.539-9.599,5.806c-5.854,0.299-9.008-2.433-11.016-5.443
		c-1.265,2.657-4.74,4.769-9.455,4.913c-5.744,0.176-9.253-2.165-11.033-5.165c-0.987,3.154-5.289,5.565-10.738,5.592
		c-5.761,0.032-10.012-2.433-11.682-5.651c-1.982,2.743-5.39,5.309-10.679,4.528c-3.003-0.444-7.186-2.326-8.688-4.475
		c-1.088,2.449-4.226,4.673-8.199,4.972c-4.327,0.331-9.127-1.673-11.109-4.245c-1.341,2.459-5.559,4.432-9.506,4.518
		c-4.757,0.102-8.629-2.042-9.886-4.747c-1.046,2.539-5.221,4.625-9.253,4.822c-4.47,0.225-9.886-1.566-11.109-4.277
		c-1.847,2.454-5.516,4.224-10.215,4.127c-4.158-0.086-7.448-1.738-8.62-3.962c-0.371,31.565-1.518,63.124-2.176,94.683
		c0,0.219-0.008,0.438-0.008,0.652c0.127-0.091,0.321-0.155,0.582-0.155c34.515,0.059,69.048,0.695,103.554,1.042
		c61.465,0.615,122.921,1.139,184.385,1.577c61.102,0.433,122.204,0.765,183.306,1.032
		C485.815,204.358,485.899,182.294,485.975,160.224z M485.722,232.052c0-1.443,0.008-2.892,0.008-4.341
		c-34.431-0.144-68.87-0.326-103.301-0.535c-61.473-0.369-122.938-0.829-184.394-1.379c-61.161-0.545-122.415-0.658-183.542-2
		c-0.27-0.005-0.472-0.08-0.599-0.182c-0.025,1.443-0.051,2.887-0.076,4.33c34.397-0.176,68.887,0.781,103.276,1.155
		c61.414,0.668,122.82,1.219,184.234,1.641c61.127,0.417,122.263,0.716,183.399,0.882c0.531,0,0.843,0.208,0.961,0.454
		C485.697,232.068,485.705,232.062,485.722,232.052z M485.578,271.753c0.042-11.954,0.084-23.909,0.127-35.868
		c-2.033,2.336-5.694,4.063-10.08,4.325c-6.048,0.364-11.421-2.219-13.395-5.694c-3.281,3.037-8.679,5.277-14.702,4.854
		c-5.297-0.374-9.582-2.673-10.898-5.811c-0.894,2.914-4.783,5.304-9.692,5.405c-4.437,0.091-8.14-1.657-10.071-4.026
		c-2.969,5.779-17.975,5.325-20.648-0.978c-1.493,3.053-5.837,5.496-11.126,5.501c-5.061,0-9.16-2.128-10.932-4.935
		c-3.838,5.576-16.667,5.672-20.809,0.283c-1.704,3.005-6.731,5.042-12.02,4.448c-3.121-0.353-8.089-2.261-9.877-4.534
		c-1.501,2.839-5.753,4.972-10.704,5.015c-5.55,0.043-10.037-2.417-12.096-5.512c-4.108,5.544-16.524,5.667-21.02,0.444
		c-1.366,2.411-5.188,4.192-9.481,3.978c-4.673-0.23-7.92-2.577-9.017-5.271c-1.299,3.416-6.157,6.063-11.885,6.287
		c-6.166,0.241-11.387-2.187-14.398-5.405c-1.518,2.839-5.896,4.897-10.856,4.726c-4.816-0.171-8.426-2.304-10.181-4.956
		c-1.4,3.256-4.639,6.266-10.527,6.437c-6.461,0.193-9.759-3.379-11.277-6.881c-1.695,3.047-6.124,5.421-11.471,5.475
		c-5.263,0.048-9.599-2.181-11.497-5.095c-1.932,3.085-6.579,5.421-12.112,5.282c-5.55-0.134-9.945-2.775-11.421-5.993
		c-2.117,2.866-5.837,5.298-11.193,5.298c-6.891,0-8.35-3.074-9.742-6.383c-1.08,3.32-5.466,6.138-11.067,6.287
		c-5.373,0.139-9.793-2.219-11.471-5.245c-1.754,3.042-4.968,5.459-11.016,5.1c-4.707-0.278-7.963-2.454-9.152-5.106
		c-1.974,2.716-5.542,4.999-10.712,4.534c-4.42-0.401-7.136-2.796-8.739-5.346c-0.515,2.994-5.12,5.544-9.961,5.688
		c-5.677,0.171-9.911-2.122-11.792-5.181c-1.636,3.069-5.356,5.63-11.058,5.32c-4.732-0.257-6.849-2.395-7.752-4.881
		c-1.662,2.582-4.993,4.576-10.004,4.363c-3.079-0.134-5.044-1.059-6.166-2.352c-0.489,33.222-0.143,66.455,2.412,99.65
		c32.002-0.529,64.029-0.658,96.031-0.882c63.987-0.444,127.982-0.583,191.977-0.412c60.469,0.155,120.93,0.599,181.383,1.299
		c-0.068-0.08-0.11-0.171-0.11-0.283C485.376,313.732,485.503,292.743,485.578,271.753z M485.435,232.789
		c-0.169,0.107-0.396,0.176-0.708,0.176c-7.094-0.021-14.187-0.053-21.273-0.075c0,0,0,0,0,0.005
		c1.004,3.331,5.415,6.138,10.991,6.164C480.13,239.082,484.516,236.168,485.435,232.789z M470.522,129.483
		c5.71,0.086,10.662-1.711,12.846-4.94c-8.418-0.021-16.828-0.032-25.246-0.048C459.751,127.863,465.259,129.397,470.522,129.483z
		 M461.64,232.88c-8.14-0.027-16.271-0.053-24.402-0.086c1.544,3.16,6.276,5.496,11.564,5.496
		C454.403,238.285,459.034,235.847,461.64,232.88z M456.09,124.489c-7.203-0.016-14.398-0.032-21.602-0.043
		c0.042,0.315,0.025,0.625-0.008,0.936c2.353,2.443,4.825,4.614,9.97,4.86C450.135,130.52,454.833,127.863,456.09,124.489z
		 M434.944,232.784c-5.803-0.021-11.606-0.048-17.409-0.075c0.911,2.459,3.652,4.576,7.802,4.993
		C430.263,238.194,434.531,235.815,434.944,232.784z M422.224,130.584c5.677,0.433,10.856-2.502,10.442-6.143
		c-6.967-0.011-13.943-0.027-20.918-0.043c0.042,0.043,0.093,0.091,0.118,0.139C413.41,127.499,417.113,130.194,422.224,130.584z
		 M396.684,232.613c1.813,6.822,18.902,7.383,18.852,0.086C409.252,232.672,402.968,232.645,396.684,232.613z M410.171,124.398
		c-6.874-0.016-13.749-0.032-20.623-0.043c0.025,0.043,0.059,0.08,0.067,0.134c0.675,3.496,5.474,6.309,11.134,5.999
		c5.002-0.273,8.612-2.935,9.346-5.95C410.103,124.484,410.137,124.441,410.171,124.398z M394.912,232.608
		c-4.555-0.021-9.11-0.037-13.664-0.064c-2.05-0.011-4.091-0.027-6.132-0.037C376.685,240.007,393.048,239.841,394.912,232.608z
		 M387.861,124.35c-1.948,0-3.905-0.005-5.854-0.011c-4.968-0.005-9.936-0.011-14.904-0.016c0.337,3.331,4.276,6.645,9.894,6.79
		c5.854,0.15,10.518-3.063,10.814-6.624C387.81,124.436,387.844,124.398,387.861,124.35z M365.011,124.324
		c-6.394-0.011-12.787-0.016-19.181-0.021c0.649,3.186,4.909,5.811,10.164,5.598C360.988,129.691,363.906,127.146,365.011,124.324z
		 M353.97,232.383c1.974,7.025,17.199,7.041,19.299,0.112C366.833,232.463,360.405,232.42,353.97,232.383z M352.215,232.431
		c0-0.021,0.017-0.037,0.017-0.059c-6.798-0.043-13.588-0.075-20.387-0.118c0.118,0.086,0.203,0.203,0.194,0.353
		c-0.008,0.246-0.034,0.487-0.084,0.727c0.987,2.427,6.427,4.507,9.616,4.854C347.129,238.793,352.359,236.019,352.215,232.431z
		 M343.755,124.302c-6.444-0.011-12.88-0.016-19.316-0.021c0.008,0.027,0.008,0.053,0.017,0.08c0.447,0.07,0.835,0.332,0.7,0.695
		c-0.067,0.193-0.152,0.374-0.236,0.556c1.451,2.796,5.381,4.94,10.333,4.523C340.39,129.702,342.836,127.221,343.755,124.302z
		 M330.217,232.608c0.009-0.155,0.101-0.273,0.236-0.364c-6.992-0.043-13.985-0.096-20.969-0.144
		c0.042,0.048,0.076,0.091,0.101,0.15c1.088,3.069,4.563,5.699,9.624,6.223C324.827,239.055,330.048,236.152,330.217,232.608z
		 M323.537,124.58c0-0.102,0-0.203,0.008-0.305c-7.532-0.005-15.065-0.016-22.605-0.021c0.127,0.07,0.228,0.155,0.27,0.289
		c2.53,7.758,19.24,7.843,22.201,0.208C323.436,124.682,323.486,124.628,323.537,124.58z M307.806,232.249
		c0.025-0.059,0.067-0.112,0.11-0.16c-6.63-0.048-13.251-0.091-19.881-0.144c0.025,0.043,0.067,0.075,0.084,0.123
		C290.379,238.98,305.242,239.151,307.806,232.249z M299.843,124.254c-7.186-0.005-14.365-0.011-21.543-0.016
		c0.11,0.048,0.211,0.102,0.27,0.187c1.881,2.694,5.23,4.94,9.961,5.459c5.196,0.567,10.442-1.807,10.881-5.186
		C299.439,124.5,299.616,124.35,299.843,124.254z M286.398,231.934c-5.542-0.037-11.083-0.075-16.625-0.118
		c0.641,2.523,3.34,5.058,7.49,5.603c4.993,0.658,9.464-2.09,9.025-5.191C286.272,232.11,286.322,232.019,286.398,231.934z
		 M269.132,131.001c5.12-0.08,8.376-3.304,7.768-6.287c-0.042-0.219,0.16-0.38,0.43-0.476c-5.694,0-11.387-0.011-17.081-0.011
		c0.059,0.15,0.084,0.294,0.118,0.438c0.118,0.048,0.211,0.123,0.202,0.23C260.444,127.895,263.97,131.081,269.132,131.001z
		 M249.597,130.408c5.947,0.192,9.16-2.737,9.051-6.18c-6.41-0.005-12.829-0.005-19.24-0.011c0.143,0.07,0.261,0.16,0.312,0.294
		C240.884,127.563,244.3,130.231,249.597,130.408z M256.083,238.462c6.006,0.118,11.193-2.908,11.514-6.661
		c-8.384-0.064-16.777-0.134-25.17-0.203c-6.588-0.053-13.167-0.112-19.754-0.171c0.582,3.037,3.888,5.843,8.882,6.287
		c5.01,0.438,9.7-2.122,9.953-5.277c0.034-0.39,0.464-0.583,0.911-0.583c0.388,0,0.784,0.139,0.97,0.422
		C245.515,235.543,250.263,238.344,256.083,238.462z M238.193,124.217c-6.891,0-13.774-0.005-20.665-0.011
		c-0.059,0.246-0.126,0.487-0.219,0.727c1.678,2.919,5.019,5.346,10.13,5.838c5.913,0.572,10.982-2.299,10.426-6.1
		C237.839,124.463,237.982,124.313,238.193,124.217z M215.765,124.206c-5.483,0-10.974-0.005-16.465-0.005c-1.223,0-2.455,0-3.678,0
		c0.127,0.086,0.219,0.192,0.245,0.337c0.531,3.24,5.078,5.95,10.366,5.699C211.337,130.001,214.989,127.243,215.765,124.206z
		 M209.186,239.146c7.347,1.101,10.881-4.01,11.463-7.736c-6.63-0.059-13.268-0.112-19.906-0.176c0,0.016,0.009,0.021,0.009,0.032
		c-0.017,0.241-0.059,0.481-0.11,0.716C201.923,234.917,204.099,238.382,209.186,239.146z M198.878,231.218
		c-0.624-0.005-1.248-0.011-1.864-0.016c-6.453-0.059-12.905-0.123-19.358-0.187c0.169,0.096,0.295,0.241,0.321,0.428
		c0.481,3.384,4.993,6.442,10.569,6.389c5.618-0.048,9.877-3.181,10.307-6.565C198.861,231.25,198.87,231.239,198.878,231.218z
		 M194.374,124.206c-5.677,0-11.362,0-17.047,0.005c0.034,0.037,0.067,0.08,0.076,0.134c0.869,6.891,16.229,7.26,16.768,0.192
		C194.18,124.393,194.265,124.286,194.374,124.206z M176.374,230.998c-7.153-0.069-14.314-0.139-21.475-0.214
		c-0.093,3.529,4.142,7.105,10.037,7.25c5.854,0.144,10.704-3.005,11.117-6.592C176.079,231.244,176.197,231.1,176.374,230.998z
		 M175.43,124.211c-6.216,0-12.441,0.005-18.658,0.005c1.493,2.86,3.669,6.592,9.321,6.742
		C172.14,131.119,175.354,127.585,175.43,124.211z M160.078,460.718c0.843-21.145,0.962-42.3,0.337-63.445
		c-0.607-20.658-2.885-41.284-3.551-61.932c-50.837,0.337-101.665,0.962-152.502,1.208c-0.008,0-0.017-0.005-0.034-0.005
		C4.008,389.436,3.57,442.332,2.937,495.218c18.152-0.208,36.371,0.342,54.523,0.513c17.966,0.171,35.924,0.326,53.89,0.444
		c15.554,0.096,31.108,0.171,46.662,0.225C158.779,484.504,159.606,472.619,160.078,460.718z M155.026,124.222
		c-6.368,0-12.737,0-19.105,0.005c0.008,0.037,0.008,0.069,0.017,0.107c1.645,2.946,4.083,5.876,9.692,6.079
		c5.533,0.198,9.396-2.711,9.354-6.057C154.984,124.308,155.009,124.265,155.026,124.222z M152.942,230.763
		c-6.672-0.069-13.352-0.139-20.024-0.214c2.48,2.684,2.075,6.389,8.435,6.758C147.645,237.676,151.416,234.169,152.942,230.763z
		 M125.04,130.873c5.828,0.037,9.624-3.197,9.143-6.645c-6.621,0.005-13.251,0.005-19.881,0.011c0.067,0.07,0.127,0.15,0.143,0.246
		C115.137,128.007,119.237,130.83,125.04,130.873z M121.927,237.168c5.272-0.289,8.992-3.427,8.949-6.64
		c-6.537-0.069-13.074-0.139-19.619-0.214c0,0.005,0.008,0.011,0.008,0.021C111.08,234.051,115.829,237.505,121.927,237.168z
		 M112.809,124.238c-1.763,0-3.526,0-5.289,0c-4.369,0.005-8.739,0.027-13.108,0.048c0.295,2.315,4.774,4.865,8.148,5.459
		c5.685,1.005,8.705-2.641,10.164-5.405C112.742,124.297,112.776,124.27,112.809,124.238z M109.317,230.293
		c-1.333-0.016-2.665-0.027-3.998-0.043c-4.656-0.053-9.32-0.091-13.985-0.134c0.017,0.043,0.034,0.086,0.025,0.134
		c-0.447,3.406,2.885,6.897,8.789,6.865C106.348,237.088,108.28,233.516,109.317,230.293z M92.743,124.292
		c-5.955,0.032-11.91,0.069-17.873,0.107c0.017,0.027,0.042,0.048,0.051,0.08c0.101,0.251,0.152,0.503,0.177,0.748
		c1.139,2.866,6.824,5.726,11.454,4.812C90.777,129.21,91.916,126.687,92.743,124.292z M76.843,236.029
		c6.697,2.401,11.463-2.438,12.61-5.929c-6.419-0.053-12.838-0.096-19.265-0.15C71.774,232.153,73.393,234.794,76.843,236.029z
		 M73.579,124.479c0.008-0.027,0.025-0.048,0.042-0.069c-5.854,0.037-11.708,0.075-17.561,0.091
		c0.067,3.208,4.201,6.212,9.506,5.918C70.787,130.13,72.659,127.28,73.579,124.479z M59.813,236.874
		c6.436,0.112,9.017-3.416,8.494-6.897c0-0.016,0.008-0.027,0.008-0.043c-6.436-0.048-12.88-0.107-19.316-0.187
		c0.287,0.08,0.515,0.251,0.557,0.513C50.113,233.762,53.959,236.772,59.813,236.874z M53.749,124.511
		c-5.854,0.016-11.699,0.011-17.553-0.021c-0.059,0.433-0.177,0.866-0.337,1.283c0.169,3.384,6.714,5.443,11.547,4.625
		C52.053,129.606,53.352,127.178,53.749,124.511z M47.659,230.261c0.042-0.273,0.278-0.444,0.565-0.524
		c-5.71-0.07-11.421-0.171-17.131-0.289c0.009,2.817,0.371,6.72,5.685,7.495C43.289,237.9,47.169,233.752,47.659,230.261z
		 M26.2,130.397c4.85-0.433,7.701-3.005,8.241-5.924c-5.879-0.037-11.766-0.107-17.637-0.225c0.017,0.037,0.017,0.075,0.008,0.118
		C16.062,127.906,20.617,130.894,26.2,130.397z M20.929,236.537c5.812-0.139,8.232-3.988,8.291-7.127
		c-4.977-0.107-9.945-0.23-14.913-0.385C13.438,232.319,13.995,236.708,20.929,236.537z"/>
	<path fill="#1E1E1C" d="M496.291,8.063l-0.093,0.487c-0.202,0.267-0.7,0.369-1.105,0.278c-35.781,1.759-71.645,2.689-107.519,3.08
		c-47.876,0.519-95.744,0.102-143.611-0.492l-0.278-0.005c-0.261,0-0.515-0.005-0.768-0.011l-0.995-0.011
		c-15.52-0.193-31.04-0.401-46.56-0.604c-31.504-0.412-63.025-0.823-94.546-0.781c-31.858,0.048-63.624,0.989-95.457,1.583
		c-0.245,0.005-0.422-0.048-0.565-0.123L3.57,11.442c0.101-0.289,0.641-0.364,0.978-0.225c-0.067-0.139-0.042-0.299,0.067-0.438
		c-0.008-0.016-0.017-0.032-0.017-0.048c-0.051-3.058,3.813-5.769,8.663-6.041c4.411-0.246,8.359,1.508,10.037,3.988
		c0.59-2.721,4.26-5.036,8.764-5.031c3.821,0,6.984,1.572,8.426,3.673c1.122-2.08,4.125-3.673,7.802-3.689
		c3.18-0.011,6.2,1.31,7.608,3.095c1.122-1.529,5.753-3.149,7.414-3.315c4.428-0.46,10.139,1.443,11.117,4.373
		c0.312-2.465,4.057-4.293,7.903-4.245c3.163,0.043,7.026,1.636,8.165,3.668c1.156-2.497,5.103-4.315,9.346-4.192
		c3.18,0.096,7.887,1.727,9.43,3.892c0.877-2.31,4.201-4.143,8.148-4.288c4.445-0.16,8.932,1.962,10.257,4.657
		c1.493-2.7,5.668-4.63,10.375-4.416c3.551,0.16,7.406,1.764,8.907,3.913c1.274-2.24,4.673-3.946,8.595-3.94
		c4.361,0.005,7.811,1.962,9.067,4.443c2.421-5.549,15.613-5.058,19.307,0.064c1.417-2.288,4.926-3.94,9.025-3.833
		c3.804,0.096,7.828,1.994,8.873,4.384c1.037-2.935,5.305-5.271,10.231-5.213c4.31,0.053,7.811,1.807,9.489,4.143
		c2.336-2.903,7.372-4.86,12.703-4.363c3.467,0.321,6.756,1.957,8.123,4.02c1.071-1.321,2.969-2.406,5.095-2.978
		c5.55-1.502,11.362,0.839,12.905,4.208c1.721-2.326,5.272-4.042,9.574-4.127c4.74-0.096,10.324,2.181,11.32,5.245
		c0.843-3.363,5.904-6.063,11.564-5.517c3.568,0.347,6.739,1.925,8.3,3.978c0.118,0.15,0.245,0.331,0.363,0.529
		c1.046-2.62,6.36-4.635,10.451-4.726c4.774-0.107,10.156,2.224,11.48,5.234c1.425-2.641,4.934-4.977,9.531-4.897
		c3.922,0.07,7.574,2.171,9.051,4.587c1.434-2.523,4.546-4.651,8.992-4.876c5.845-0.299,10.299,2.475,11.556,5.827
		c0.346-0.893,0.54-1.839,1.274-2.636c0.784-0.861,1.889-1.609,3.146-2.197c2.336-1.091,5.305-1.679,8.207-1.438
		c3.382,0.283,7.878,2.315,9.59,4.715c1.771-2.711,6.2-4.609,11.117-4.411c4.142,0.171,8.249,2.144,9.38,4.673
		c1.451-2.502,4.968-4.475,9.388-4.678c4.369-0.198,8.621,1.556,10.434,4.01c0.464-0.588,1.046-1.139,1.552-1.572
		c1.889-1.625,4.707-2.689,7.87-2.951c5.306-0.433,10.915,1.743,12.382,4.977c1.991-2.946,6.436-5.255,11.665-5.32
		c4.69-0.059,7.971,2.16,9.27,4.812c0.253-0.791,0.894-1.615,1.417-2.149c1.982-2.01,5.483-3.149,9.127-3.443
		C484.6,0.856,496.291,3.096,496.291,8.063z M493.971,7.443c-2.016-2.828-6.166-4.234-11.168-4.721
		c-3.45-0.337-6.841-0.08-9.708,1.246c-1.544,0.716-5.322,3.229-3.585,4.534C477.667,8.191,485.815,7.844,493.971,7.443z
		 M466.49,8.614c-1.814-2.903-3.315-5.929-9.818-5.084c-4.496,0.588-7.718,2.957-9.405,5.523c0,0.037,0.009,0.07,0.009,0.107
		c0,0.037-0.025,0.064-0.034,0.102C453.661,9.068,460.071,8.849,466.49,8.614z M445.614,9.309c0-0.005,0-0.005,0-0.005
		c-1.442-3.005-4.209-5.672-9.759-5.619c-2.589,0.027-5.086,0.706-6.891,1.882c-0.16,0.102-2.353,1.983-3.062,3.17
		c0.067,0.31,0.118,0.62,0.11,0.936c0,0.005-0.009,0.011-0.009,0.016c0.084,0.032,0.143,0.075,0.177,0.118
		C432.658,9.661,439.136,9.496,445.614,9.309z M424.223,9.849c-0.034-0.053-0.067-0.107-0.084-0.176
		c-0.565-3.144-4.917-6.041-10.274-5.378c-4.487,0.556-7.465,3.16-8.047,5.908C411.959,10.1,418.091,9.982,424.223,9.849z
		 M403.786,10.234c0-0.011-0.017-0.021-0.017-0.037c-0.616-3.432-3.399-6.234-9.565-5.924c-2.961,0.15-5.668,1.246-7.229,2.85
		c-0.616,0.636-0.877,2.037-1.577,2.785c-0.034,0.123-0.076,0.251-0.127,0.374c0.093,0.048,0.16,0.118,0.16,0.198
		C391.547,10.415,397.671,10.33,403.786,10.234z M383.213,9.902c0.447-1.823-2.48-4.165-4.529-5.031
		c-2.294-0.978-5.162-1.224-7.785-0.684c-2.994,0.615-5.306,2.106-6.453,3.924c-0.565,0.909-0.751,1.641-1.552,2.363
		c0.009,0.059,0.025,0.118,0.025,0.182c6.613-0.032,13.226-0.086,19.83-0.15c0-0.016,0-0.037-0.008-0.053
		C382.707,10.191,382.918,10.004,383.213,9.902z M360.886,10.661c-0.776-3.518-4.934-7.324-11.412-6.047
		c-3.973,0.781-5.71,3.213-6.79,5.549c0.008,0.182,0,0.364-0.034,0.54C348.732,10.704,354.813,10.688,360.886,10.661z
		 M340.938,10.704c-1.012-2.459-2.446-5.352-7.068-5.924c-5.365-0.674-9.127,3.069-9.869,5.897
		C329.644,10.699,335.286,10.704,340.938,10.704z M322.027,10.672c-1.181-2.935-2.665-5.576-8.055-6.239
		c-5.145-0.636-12.517,2.171-11.024,5.961c0.034,0.064,0.008,0.128-0.025,0.182c0.371,0,0.734,0.005,1.097,0.005
		C310.024,10.624,316.021,10.651,322.027,10.672z M300.248,9.988c0.371-1.048-1.645-2.994-2.48-3.577
		c-1.535-1.064-3.61-1.764-5.862-1.871c-5.339-0.246-9.16,2.759-9.709,5.865c5.862,0.053,11.733,0.102,17.604,0.144
		c-0.051-0.208,0.084-0.444,0.388-0.545C300.215,9.998,300.231,9.993,300.248,9.988z M280.494,10.389
		c-0.152-0.027-0.287-0.091-0.363-0.208c-1.839-2.657-4.099-5.122-9.219-5.346c-5.154-0.23-9.185,2.331-10.299,5.341
		C267.243,10.255,273.864,10.324,280.494,10.389z M259.331,10.164c0-0.011,0-0.016,0-0.027c-0.253-0.086-0.439-0.241-0.439-0.481
		c0.017-2.903-3.534-5.576-8.334-5.4c-2.286,0.086-4.344,0.909-5.736,2.032c-0.346,0.278-1.333,1.326-1.78,2.219
		c0,0.326-0.067,0.658-0.177,0.989c0.059,0.155,0.177,0.278,0.405,0.342c0.084,0.021,0.118,0.075,0.11,0.128
		C248.695,10.036,254.009,10.1,259.331,10.164z M241.247,9.939c-0.101-0.08-0.177-0.182-0.186-0.31
		c-0.219-3.165-2.994-5.982-8.57-5.945c-4.833,0.032-8.199,2.096-10.164,4.635c0.127,0.353,0.219,0.711,0.261,1.075
		c0.008,0.118-0.025,0.219-0.084,0.305C228.746,9.779,234.996,9.865,241.247,9.939z M202.463,9.442
		c6.065,0.075,12.121,0.155,18.185,0.235c-0.067-0.08-0.118-0.176-0.126-0.283c0-0.005-0.009-0.016-0.009-0.021
		c-0.118-0.091-0.185-0.214-0.135-0.374c0.008-0.037,0.034-0.08,0.042-0.118c-0.717-2.834-4.597-5.122-9.287-4.897
		c-4.479,0.214-7.541,2.62-8.426,5.245C202.674,9.33,202.581,9.4,202.463,9.442z M184.438,9.218
		c5.297,0.064,10.594,0.128,15.9,0.193c-1.088-2.278-3.112-4.528-7.38-4.662c-3.872-0.123-7.094,1.684-8.334,3.892
		c0.017,0.032,0.034,0.059,0.042,0.091C184.725,8.918,184.615,9.089,184.438,9.218z M165.654,9.009
		c5.828,0.059,11.648,0.123,17.477,0.192c-0.017-0.016-0.042-0.027-0.051-0.043c-1.62-2.315-3.889-4.33-8.114-4.753
		C170.318,3.941,166.354,6.208,165.654,9.009z M163.376,8.988c-0.152-0.096-0.261-0.225-0.287-0.39
		c-0.455-2.63-4.082-4.737-8.317-4.475c-3.829,0.235-6.419,2.331-7.153,4.576c-0.008,0.005-0.008,0.005-0.008,0.005
		c0,0.048,0.008,0.096,0.008,0.139C152.866,8.886,158.121,8.94,163.376,8.988z M145.984,8.833c-1.603-2.417-3.737-4.667-8.46-4.764
		c-4.403-0.091-7.912,2.085-9.101,4.619c0,0.016-0.017,0.021-0.017,0.032C134.259,8.747,140.121,8.79,145.984,8.833z M126.448,8.71
		c-1.4-2.347-3.399-4.47-7.701-4.828c-4.513-0.369-8.064,2.085-8.3,4.785c0.649,0,1.299,0,1.948,0
		C117.086,8.672,121.767,8.688,126.448,8.71z M108.111,8.667c-0.515-0.47-0.776-1.133-1.24-1.609
		c-1.198-1.208-3.129-2.213-5.305-2.625c-4.875-0.92-9.228,1.304-10.122,4.245C97.002,8.667,102.561,8.667,108.111,8.667z
		 M89.259,8.688c-1.518-1.705-2.48-3.406-5.955-3.876c-3.694-0.503-6.722,1.288-7.65,3.395c-0.152,0.337-0.793,0.358-1.097,0.155
		c0.017,0.128,0.042,0.257,0.034,0.39C79.483,8.715,84.375,8.699,89.259,8.688z M72.913,8.763c-1.4-1.877-2.699-3.555-6.276-4.111
		c-3.855-0.593-9.076,0.984-9.329,3.716c-0.017,0.128-0.236,0.225-0.422,0.155c-0.076-0.027-0.127-0.053-0.186-0.08
		c0.025,0.16,0.034,0.326,0.034,0.492C62.124,8.86,67.523,8.806,72.913,8.763z M54.972,8.966c-0.59-2.037-2.514-3.817-6.014-4.101
		C45.027,4.54,41.72,6.775,41.4,9.127c-0.008,0.037-0.025,0.059-0.042,0.091C45.896,9.116,50.434,9.036,54.972,8.966z M39.384,9.26
		c-0.472-2.556-3.914-4.657-8.106-4.395c-3.821,0.241-6.427,2.352-6.984,4.625c-0.025,0.096-0.101,0.166-0.211,0.203
		C29.178,9.522,34.281,9.383,39.384,9.26z M22.05,9.763c-1.223-2.534-5.044-4.464-9.379-3.94c-3.72,0.449-6.124,2.406-6.992,4.625
		C11.127,10.18,16.585,9.961,22.05,9.763z"/>
	<path fill="#ED857F" d="M496.198,8.549c-0.118,12.58-0.194,25.165-0.245,37.745c-0.278-0.096-0.633-0.123-0.995-0.021
		c-19.628,5.453-38.935-2.946-55.822-8.506c-7.819-2.577-16.068-4.828-24.933-5.378c-9.413-0.588-18.767,0.834-27.641,2.694
		c-19.569,4.106-38.446,8.87-58.841,11.206c-18.245,2.096-39.618,3.448-57.416-0.754c-10.24-2.422-17.772-7.036-21.129-13.692
		c-1.552-3.079-2.286-6.293-2.885-9.495c-0.683-3.657-1.678-7.276-2.328-10.933c47.868,0.593,95.735,1.01,143.611,0.492
		c35.873-0.39,71.738-1.321,107.519-3.08C495.498,8.918,495.995,8.817,496.198,8.549z"/>
	<path fill="#ED857F" d="M495.953,47.481c-0.194,50.747,0.084,101.499,0.042,152.247c-0.034,45.128-0.076,90.262-0.11,135.39
		c-2.885-0.032-5.761-0.059-8.637-0.091c0.076-0.086,0.127-0.187,0.135-0.305c0.278-37.178,0.287-74.356,0.413-111.529
		c0.126-37.178,0.261-74.356,0.405-111.529l0.118-30.95c0.042-10.522,0.54-21.091-0.127-31.602
		C490.783,48.786,493.372,48.256,495.953,47.481z"/>
	<path fill="#ED857F" d="M495.886,336.55c-0.017,17.835-0.034,35.671-0.051,53.506c-0.034,35.254-0.076,70.507-0.101,105.766
		c-0.067-0.011-0.143-0.016-0.219-0.016c-51.984,0.166-103.959,0.353-155.935,0.497c0.11-0.096,0.194-0.209,0.186-0.364
		c-2.429-41.872-2.396-83.787-2.935-125.681c-0.152-11.634,0.396-23.385-0.675-35.008c17.384,0.075,34.768,0.166,52.161,0.283
		C424.173,335.775,460.029,336.117,495.886,336.55z M489.754,485.937c0.582-0.005,1.164-0.321,1.13-0.711
		c-0.042-0.47-0.093-0.936-0.152-1.401c-0.051-0.39-0.498-0.615-0.978-0.658c0-0.059,0-0.118-0.017-0.182
		c-2.902-8.757-2.303-17.958-2.53-26.865c-0.236-9.025-0.363-18.054-0.43-27.084c-0.135-18.065,0.025-36.125,0.287-54.185
		c0.152-10.121,0.591-20.252,0.337-30.372c0-0.144-0.009-0.294-0.009-0.438c-0.008-0.278-0.278-0.444-0.59-0.503
		c-0.135-0.246-0.464-0.444-1.004-0.438c-24.183,0.112-48.365,0.16-72.548-0.027c-11.952-0.096-23.904-0.235-35.857-0.422
		c-6.115-0.096-12.23-0.198-18.346-0.31c-4.125-0.08-9.202-0.749-12.711,0.952c-0.329,0.16-0.354,0.401-0.194,0.567
		c-1.063,18.151-0.236,36.424,0.034,54.58c0.278,18.584,0.784,37.167,1.527,55.746c0.422,10.618,0.928,21.235,1.501,31.848
		c0.025,0.364,0.439,0.556,0.877,0.593c0.135,0.075,0.304,0.128,0.54,0.134c23.171,0.321,46.4-0.16,69.571-0.326
		C443.379,486.268,466.566,486.102,489.754,485.937z"/>
	<path fill="#1E1E1C" d="M490.884,485.226c0.034,0.39-0.548,0.706-1.13,0.711c-23.187,0.166-46.375,0.331-69.562,0.497
		c-23.171,0.166-46.4,0.647-69.571,0.326c-0.236-0.005-0.405-0.059-0.54-0.134c-0.439-0.037-0.852-0.23-0.877-0.593
		c-0.573-10.612-1.08-21.23-1.501-31.848c-0.742-18.578-1.248-37.162-1.527-55.746c-0.27-18.156-1.096-36.43-0.034-54.58
		l1.628-0.027c0.548,10.227,0.11,20.482,0.16,30.709c0.16,37.05,1.257,74.1,3.239,111.128c22.976-0.636,46.029-0.497,69.022-0.658
		c22.791-0.166,45.59-0.331,68.39-0.492c-0.017-0.23-0.034-0.465-0.051-0.695c0-0.027,0.008-0.053,0.008-0.08
		c-0.312-0.032-0.59-0.166-0.675-0.433c-3.188-9.538-2.471-19.61-2.716-29.314c-0.455-18.236-0.531-36.472-0.413-54.714
		c0.11-18.242-0.202-36.558,0.903-54.789l1.763-0.016c0.253,10.121-0.186,20.252-0.337,30.372
		c-0.261,18.06-0.422,36.12-0.287,54.185c0.067,9.03,0.194,18.06,0.43,27.084c0.228,8.907-0.371,18.108,2.53,26.865
		c0.017,0.064,0.017,0.123,0.017,0.182c0.481,0.043,0.928,0.267,0.978,0.658C490.791,484.29,490.842,484.755,490.884,485.226z"/>
	<path fill="#ED857F" d="M482.803,2.722c5.002,0.487,9.152,1.893,11.168,4.721c-8.156,0.401-16.305,0.748-24.461,1.059
		c-1.738-1.304,2.041-3.817,3.585-4.534C475.963,2.642,479.354,2.385,482.803,2.722z"/>
	<path fill="#ED857F" d="M488.531,483.825c0.017,0.23,0.034,0.465,0.051,0.695c-22.799,0.16-45.599,0.326-68.39,0.492
		c-22.993,0.16-46.046,0.021-69.022,0.658c-1.982-37.029-3.079-74.078-3.239-111.128c-0.051-10.227,0.388-20.482-0.16-30.709
		c0-0.005,0-0.016,0-0.021c2.497-0.519,5.398-0.208,7.946-0.144c3.053,0.075,6.115,0.123,9.169,0.182
		c5.837,0.112,11.674,0.208,17.511,0.294c11.395,0.166,22.791,0.289,34.186,0.369c23.019,0.166,46.046,0.208,69.056-0.016
		c-1.105,18.231-0.793,36.547-0.903,54.789c-0.118,18.242-0.042,36.478,0.413,54.714c0.245,9.704-0.472,19.776,2.716,29.314
		c0.084,0.267,0.363,0.401,0.675,0.433C488.539,483.771,488.531,483.798,488.531,483.825z M362.936,408.747
		c2.218-1.272,2.758-3.582,0.506-4.977c-1.982-1.224-5.854-1.524-7.827-0.128c-0.245,0.166-0.278,0.38-0.194,0.561
		c-1.434,1.107-1.679,2.604-0.152,3.962C357.099,409.789,360.566,410.11,362.936,408.747z"/>
	<path fill="#1E1E1C" d="M487.392,344.04c0,0.144,0.009,0.294,0.009,0.438l-1.763,0.016c-23.01,0.225-46.037,0.182-69.056,0.016
		c-11.396-0.08-22.791-0.203-34.186-0.369c-5.837-0.086-11.674-0.182-17.511-0.294c-3.053-0.059-6.115-0.107-9.169-0.182
		c-2.547-0.064-5.449-0.374-7.946,0.144c0,0.005,0,0.016,0,0.021l-1.628,0.027c-0.16-0.166-0.135-0.406,0.194-0.567
		c3.509-1.7,8.587-1.032,12.711-0.952c6.115,0.112,12.23,0.214,18.346,0.31c11.952,0.187,23.904,0.326,35.857,0.422
		c24.183,0.187,48.365,0.139,72.548,0.027c0.54-0.005,0.869,0.193,1.004,0.438C487.114,343.597,487.384,343.763,487.392,344.04z"/>
	<path fill="#ED857F" d="M486.101,121.816c0,0.524,0,1.048-0.008,1.572c-0.143-0.059-0.304-0.102-0.523-0.102
		c-0.118,0-0.236,0-0.346,0c-0.287-0.102-0.641-0.112-0.919-0.005c-60.765-0.15-121.521-0.246-182.285-0.299
		c-60.9-0.053-121.807-0.048-182.707,0c-17.123,0.016-34.245,0.032-51.36,0.053c-17.249,0.021-34.566-0.219-51.807,0.192
		c0.008-0.882,0.025-1.764,0.034-2.646c0.11,0.037,0.245,0.059,0.405,0.059c61.077-0.235,122.145-0.861,183.221-0.871
		c60.798-0.005,121.597,0.283,182.387,0.866c34.456,0.326,68.913,0.754,103.361,1.272
		C485.772,121.912,485.958,121.875,486.101,121.816z"/>
	<path fill="#ED857F" d="M485.73,227.71c0,1.449-0.008,2.898-0.008,4.341c-0.017,0.011-0.025,0.016-0.034,0.027
		c-0.118-0.246-0.43-0.454-0.961-0.454c-61.136-0.166-122.271-0.465-183.399-0.882c-61.414-0.422-122.82-0.973-184.234-1.641
		c-34.389-0.374-68.879-1.331-103.276-1.155c0.025-1.443,0.051-2.887,0.076-4.33c0.127,0.102,0.329,0.176,0.599,0.182
		c61.127,1.342,122.381,1.454,183.542,2c61.456,0.551,122.921,1.011,184.394,1.379C416.86,227.384,451.299,227.566,485.73,227.71z"
		/>
	<path fill="#ED857F" d="M484.727,232.966c0.312,0,0.54-0.069,0.708-0.176c-0.919,3.379-5.305,6.293-10.991,6.271
		c-5.575-0.027-9.987-2.834-10.991-6.164c0-0.005,0-0.005,0-0.005C470.539,232.912,477.633,232.944,484.727,232.966z"/>
	<path fill="#ED857F" d="M483.369,124.543c-2.185,3.229-7.136,5.026-12.846,4.94c-5.263-0.086-10.771-1.62-12.399-4.988
		C466.541,124.511,474.951,124.521,483.369,124.543z"/>
	<path fill="#ED857F" d="M437.238,232.795c8.131,0.032,16.262,0.059,24.402,0.086c-2.606,2.967-7.237,5.405-12.838,5.41
		C443.514,238.291,438.782,235.954,437.238,232.795z"/>
	<path fill="#ED857F" d="M456.672,3.529c6.503-0.845,8.005,2.181,9.818,5.084c-6.419,0.235-12.829,0.454-19.248,0.647
		c0.008-0.037,0.034-0.064,0.034-0.102c0-0.037-0.009-0.069-0.009-0.107C448.954,6.486,452.176,4.117,456.672,3.529z"/>
	<path fill="#ED857F" d="M434.489,124.447c7.203,0.011,14.398,0.027,21.602,0.043c-1.257,3.373-5.955,6.031-11.64,5.753
		c-5.145-0.246-7.617-2.417-9.97-4.86C434.514,125.072,434.531,124.762,434.489,124.447z"/>
	<path fill="#ED857F" d="M445.614,9.303c0,0,0,0,0,0.005c-6.478,0.187-12.956,0.353-19.434,0.497
		c-0.034-0.043-0.093-0.086-0.177-0.118c0-0.005,0.009-0.011,0.009-0.016c0.008-0.315-0.042-0.625-0.11-0.936
		c0.709-1.187,2.902-3.069,3.062-3.17c1.805-1.176,4.302-1.855,6.891-1.882C441.405,3.631,444.172,6.299,445.614,9.303z"/>
	<path fill="#ED857F" d="M417.535,232.709c5.803,0.027,11.606,0.053,17.409,0.075c-0.413,3.031-4.681,5.41-9.607,4.919
		C421.187,237.286,418.446,235.168,417.535,232.709z"/>
	<path fill="#ED857F" d="M432.667,124.441c0.413,3.641-4.766,6.576-10.442,6.143c-5.111-0.39-8.814-3.085-10.358-6.047
		c-0.025-0.048-0.076-0.096-0.118-0.139C418.724,124.414,425.7,124.431,432.667,124.441z"/>
	<path fill="#ED857F" d="M424.139,9.672c0.017,0.07,0.051,0.123,0.084,0.176c-6.132,0.134-12.264,0.251-18.405,0.353
		c0.582-2.748,3.559-5.352,8.047-5.908C419.222,3.631,423.574,6.529,424.139,9.672z"/>
	<path fill="#ED857F" d="M415.536,232.698c0.051,7.298-17.038,6.736-18.852-0.086C402.968,232.645,409.252,232.672,415.536,232.698z
		"/>
	<path fill="#ED857F" d="M389.548,124.356c6.874,0.011,13.749,0.027,20.623,0.043c-0.034,0.043-0.067,0.086-0.076,0.139
		c-0.734,3.015-4.344,5.678-9.346,5.95c-5.66,0.31-10.459-2.502-11.134-5.999C389.607,124.436,389.573,124.398,389.548,124.356z"/>
	<path fill="#ED857F" d="M403.769,10.196c0,0.016,0.017,0.027,0.017,0.037c-6.115,0.096-12.239,0.182-18.354,0.246
		c0-0.08-0.067-0.15-0.16-0.198c0.051-0.123,0.093-0.251,0.127-0.374c0.7-0.749,0.962-2.149,1.577-2.785
		c1.56-1.604,4.268-2.7,7.229-2.85C400.37,3.962,403.153,6.764,403.769,10.196z"/>
	<path fill="#ED857F" d="M381.248,232.543c4.555,0.027,9.11,0.043,13.664,0.064c-1.864,7.234-18.228,7.399-19.797-0.102
		C377.157,232.517,379.198,232.533,381.248,232.543z"/>
	<path fill="#ED857F" d="M382.007,124.34c1.948,0.005,3.905,0.011,5.854,0.011c-0.017,0.048-0.051,0.086-0.051,0.139
		c-0.295,3.561-4.96,6.774-10.814,6.624c-5.618-0.144-9.557-3.459-9.894-6.79C372.071,124.329,377.039,124.334,382.007,124.34z"/>
	<path fill="#ED857F" d="M378.684,4.871c2.05,0.866,4.977,3.208,4.529,5.031c-0.295,0.102-0.506,0.289-0.472,0.551
		c0.008,0.016,0.008,0.037,0.008,0.053c-6.604,0.064-13.217,0.118-19.83,0.15c0-0.064-0.017-0.123-0.025-0.182
		c0.801-0.722,0.987-1.454,1.552-2.363c1.147-1.818,3.458-3.309,6.453-3.924C373.522,3.647,376.389,3.893,378.684,4.871z"/>
	<path fill="#ED857F" d="M345.83,124.302c6.394,0.005,12.787,0.011,19.181,0.021c-1.105,2.823-4.023,5.368-9.017,5.576
		C350.739,130.114,346.48,127.489,345.83,124.302z"/>
	<path fill="#ED857F" d="M373.269,232.495c-2.1,6.929-17.325,6.913-19.299-0.112C360.405,232.42,366.833,232.463,373.269,232.495z"
		/>
	<path fill="#1E1E1C" d="M363.442,403.769c2.252,1.395,1.712,3.705-0.506,4.977c-2.37,1.363-5.837,1.043-7.667-0.583
		c-1.527-1.358-1.282-2.855,0.152-3.962c-0.084-0.182-0.051-0.396,0.194-0.561C357.588,402.246,361.46,402.545,363.442,403.769z
		 M361.789,407.629c1.409-0.957,1.501-2.486-0.337-3.24c-1.417-0.588-2.885-0.476-4.251-0.021c-1.147,0.893-1.577,1.973-0.312,3.047
		C358.137,408.474,360.338,408.618,361.789,407.629z"/>
	<path fill="#ED857F" d="M361.451,404.39c1.839,0.754,1.746,2.283,0.337,3.24c-1.451,0.989-3.652,0.845-4.901-0.214
		c-1.265-1.075-0.835-2.155,0.312-3.047C358.567,403.914,360.034,403.801,361.451,404.39z"/>
	<path fill="#ED857F" d="M349.474,4.615c6.478-1.278,10.636,2.529,11.412,6.047c-6.073,0.027-12.155,0.043-18.236,0.043
		c0.034-0.176,0.042-0.358,0.034-0.54C343.764,7.828,345.501,5.395,349.474,4.615z"/>
	<path fill="#ED857F" d="M352.232,232.372c0,0.021-0.017,0.037-0.017,0.059c0.143,3.587-5.086,6.362-10.645,5.758
		c-3.188-0.348-8.629-2.427-9.616-4.854c0.051-0.241,0.076-0.481,0.084-0.727c0.009-0.15-0.076-0.267-0.194-0.353
		C338.644,232.297,345.434,232.33,352.232,232.372z"/>
	<path fill="#ED857F" d="M324.439,124.281c6.436,0.005,12.872,0.011,19.316,0.021c-0.919,2.919-3.366,5.4-8.502,5.833
		c-4.951,0.417-8.882-1.727-10.333-4.523c0.084-0.182,0.169-0.364,0.236-0.556c0.135-0.364-0.253-0.625-0.7-0.695
		C324.448,124.334,324.448,124.308,324.439,124.281z"/>
	<path fill="#1E1E1C" d="M339.765,495.94c0.008,0.155-0.076,0.267-0.186,0.364l-1.518,0.005c-0.127-0.096-0.228-0.214-0.236-0.369
		c-0.827-11.97-1.274-23.946-1.603-35.922c-0.582-20.968-0.751-41.936-1.029-62.91c-0.135-10.35-0.27-20.706-0.413-31.062
		c-0.135-10.238-0.852-20.562-0.186-30.8l1.56,0.005c1.071,11.623,0.523,23.374,0.675,35.008
		C337.37,412.152,337.336,454.067,339.765,495.94z"/>
	<path fill="#ED857F" d="M333.87,4.78c4.622,0.572,6.056,3.464,7.068,5.924c-5.651,0-11.294-0.005-16.937-0.027
		C324.743,7.849,328.505,4.107,333.87,4.78z"/>
	<path fill="#ED857F" d="M338.062,496.308c-11.564,0.032-23.137,0.064-34.701,0.091c-47.842,0.118-95.685,0.16-143.527,0.005
		c3.863-42.001,3.855-84.284,1.248-126.317c-0.717-11.575-1.307-23.208-2.893-34.751c12.711-0.086,25.431-0.155,38.142-0.187
		c46.088-0.128,92.176-0.091,138.264,0.096c-0.666,10.238,0.051,20.562,0.186,30.8c0.143,10.356,0.278,20.712,0.413,31.062
		c0.278,20.974,0.447,41.942,1.029,62.91c0.329,11.976,0.776,23.951,1.603,35.922C337.834,496.095,337.935,496.212,338.062,496.308z
		 M324.288,488.615c0.582,0.374,1.822,0.241,1.763-0.417c-3.787-38.461-0.143-76.971-1.071-115.464
		c-0.127-5.293-0.346-10.58-0.675-15.873c-0.337-5.239-0.143-10.746-1.721-15.905c-0.118-0.385-0.793-0.363-1.113-0.134
		c-0.16-0.15-0.422-0.262-0.81-0.273c-12.517-0.326-25.203,0.16-37.737,0.225c-12.585,0.069-25.161,0.102-37.746,0.112
		c-25.11,0.011-50.398-0.738-75.492-0.107c-0.641,0.016-0.818,0.433-0.548,0.69c-0.067,0.053-0.11,0.118-0.11,0.203
		c0,0.005,0,0.005,0,0.011c-0.388,9.554,0.455,19.14,0.793,28.694c0.337,9.57,0.59,19.14,0.768,28.715
		c0.354,18.963,0.396,37.932,0.135,56.901c-0.16,10.81-0.413,21.621-0.768,32.436c-0.008,0.401,0.481,0.599,0.978,0.599
		c0.11,0.064,0.253,0.112,0.447,0.118c0.152,0.005,0.304,0.016,0.455,0.016c25.009,1.123,50.398,0.556,75.45,0.545
		c25.304-0.005,50.609-0.123,75.905-0.347C323.925,489.353,324.296,488.979,324.288,488.615z"/>
	<path fill="#ED857F" d="M330.453,232.244c-0.135,0.091-0.228,0.208-0.236,0.364c-0.169,3.545-5.39,6.448-11.007,5.865
		c-5.061-0.524-8.536-3.154-9.624-6.223c-0.025-0.059-0.059-0.102-0.101-0.15C316.468,232.148,323.461,232.201,330.453,232.244z"/>
	<path fill="#1E1E1C" d="M326.05,488.198c0.059,0.658-1.181,0.791-1.763,0.417l-0.304-0.497
		c-1.105-10.896-1.611-21.808-1.771-32.725c-0.27-19.081,0.54-38.151,0.717-57.227c0.093-9.538,0.093-19.076-0.236-28.608
		c-0.16-4.758-0.396-9.522-0.734-14.275c-0.312-4.475-1.181-9.094-0.717-13.574l0.228-0.887c0.321-0.23,0.995-0.251,1.113,0.134
		c1.577,5.159,1.383,10.666,1.721,15.905c0.329,5.293,0.548,10.58,0.675,15.873C325.907,411.227,322.263,449.737,326.05,488.198z"/>
	<path fill="#1E1E1C" d="M324.288,488.615c0.008,0.364-0.363,0.738-1.097,0.743c-25.296,0.224-50.601,0.342-75.905,0.347
		c-25.051,0.011-50.44,0.577-75.45-0.545l0.093-0.941c25.035-0.706,50.297,0.064,75.357,0.053
		c25.304-0.011,50.609-0.128,75.905-0.353c0.354-0.005,0.616,0.075,0.793,0.198L324.288,488.615z"/>
	<path fill="#ED857F" d="M323.545,124.275c-0.008,0.102-0.008,0.203-0.008,0.305c-0.051,0.048-0.101,0.102-0.127,0.171
		c-2.961,7.635-19.67,7.549-22.201-0.208c-0.042-0.134-0.143-0.219-0.27-0.289C308.481,124.259,316.013,124.27,323.545,124.275z"/>
	<path fill="#ED857F" d="M323.984,488.118c-0.177-0.123-0.439-0.203-0.793-0.198c-25.296,0.225-50.601,0.342-75.905,0.353
		c-25.06,0.011-50.322-0.759-75.357-0.053c1.24-38.034,1.257-76.083,0.017-114.122c-0.354-10.784-0.278-21.658-1.805-32.404
		c24.874,1.059,50.111,0.556,75.036,0.561c12.298,0,24.604-0.027,36.902-0.08c12.804-0.059,25.819,0.246,38.581-0.326
		c0.245-0.011,0.422-0.064,0.582-0.139c-0.464,4.48,0.405,9.099,0.717,13.574c0.337,4.753,0.574,9.516,0.734,14.275
		c0.329,9.533,0.329,19.07,0.236,28.608c-0.177,19.076-0.987,38.146-0.717,57.227C322.373,466.31,322.879,477.222,323.984,488.118z
		 M315.245,407.469c1.948-1.54,1.873-4.197-0.953-5.325c-1.948-0.775-4.96-0.31-5.786,1.005c-2.345,0.818-3.197,2.844-1.51,4.325
		C309.079,409.303,313.111,409.153,315.245,407.469z"/>
	<path fill="#1E1E1C" d="M321.47,340.822l-0.228,0.887c-0.16,0.075-0.337,0.128-0.582,0.139
		c-12.762,0.572-25.777,0.267-38.581,0.326c-12.298,0.053-24.604,0.08-36.902,0.08c-24.925-0.005-50.162,0.497-75.036-0.561
		l-1.113-0.011c0-0.005,0-0.005,0-0.011c0-0.086,0.042-0.15,0.11-0.203c-0.27-0.257-0.093-0.674,0.548-0.69
		c25.094-0.631,50.381,0.118,75.492,0.107c12.585-0.011,25.161-0.043,37.746-0.112c12.534-0.064,25.22-0.551,37.737-0.225
		C321.048,340.56,321.31,340.672,321.47,340.822z"/>
	<path fill="#ED857F" d="M313.972,4.433c5.39,0.663,6.874,3.304,8.055,6.239c-6.006-0.021-12.003-0.048-18.008-0.091
		c-0.363,0-0.725-0.005-1.097-0.005c0.034-0.053,0.059-0.118,0.025-0.182C301.454,6.603,308.826,3.797,313.972,4.433z"/>
	<path fill="#1E1E1C" d="M314.292,402.144c2.826,1.128,2.902,3.785,0.953,5.325c-2.134,1.684-6.166,1.834-8.249,0.005
		c-1.687-1.481-0.835-3.507,1.51-4.325C309.333,401.834,312.344,401.369,314.292,402.144z M313.499,406.801
		c1.232-0.855,1.518-2.347,0.245-3.256c-1.215-0.871-3.281-0.492-3.846,0.556c-0.202,0.38-0.843,0.449-1.257,0.273
		c-0.776,0.716-0.978,1.631,0.008,2.395C309.965,407.779,312.133,407.747,313.499,406.801z"/>
	<path fill="#ED857F" d="M313.744,403.545c1.274,0.909,0.987,2.4-0.245,3.256c-1.366,0.946-3.534,0.978-4.85-0.032
		c-0.987-0.765-0.784-1.679-0.008-2.395c0.413,0.176,1.054,0.107,1.257-0.273C310.463,403.053,312.529,402.673,313.744,403.545z"/>
	<path fill="#ED857F" d="M307.915,232.089c-0.042,0.048-0.084,0.102-0.11,0.16c-2.564,6.902-17.426,6.731-19.687-0.182
		c-0.017-0.048-0.059-0.08-0.084-0.123C294.664,231.998,301.286,232.041,307.915,232.089z"/>
	<path fill="#ED857F" d="M297.768,6.411c0.835,0.583,2.851,2.529,2.48,3.577c-0.017,0.005-0.034,0.011-0.059,0.016
		c-0.304,0.102-0.439,0.337-0.388,0.545c-5.871-0.043-11.741-0.091-17.604-0.144c0.548-3.106,4.369-6.111,9.709-5.865
		C294.158,4.647,296.233,5.347,297.768,6.411z"/>
	<path fill="#ED857F" d="M278.301,124.238c7.178,0.005,14.356,0.011,21.543,0.016c-0.228,0.096-0.405,0.246-0.43,0.444
		c-0.439,3.379-5.685,5.753-10.881,5.186c-4.732-0.519-8.081-2.764-9.961-5.459C278.512,124.34,278.41,124.286,278.301,124.238z"/>
	<path fill="#ED857F" d="M269.773,231.816c5.542,0.043,11.083,0.08,16.625,0.118c-0.076,0.086-0.127,0.176-0.11,0.294
		c0.439,3.101-4.032,5.849-9.025,5.191C273.113,236.874,270.414,234.34,269.773,231.816z"/>
	<path fill="#ED857F" d="M280.131,10.18c0.076,0.118,0.211,0.182,0.363,0.208c-6.63-0.064-13.251-0.134-19.881-0.214
		c1.113-3.01,5.145-5.571,10.299-5.341C276.032,5.058,278.292,7.523,280.131,10.18z"/>
	<path fill="#ED857F" d="M276.901,124.714c0.607,2.983-2.649,6.207-7.768,6.287c-5.162,0.08-8.688-3.106-8.561-6.106
		c0.009-0.107-0.084-0.182-0.202-0.23c-0.034-0.144-0.059-0.289-0.118-0.438c5.694,0,11.387,0.011,17.081,0.011
		C277.061,124.334,276.858,124.495,276.901,124.714z"/>
	<path fill="#ED857F" d="M259.331,10.137c0,0.011,0,0.016,0,0.027c-5.322-0.064-10.636-0.128-15.95-0.198
		c0.008-0.053-0.025-0.107-0.11-0.128c-0.228-0.064-0.346-0.187-0.405-0.342c0.11-0.331,0.177-0.663,0.177-0.989
		c0.447-0.893,1.434-1.941,1.78-2.219c1.392-1.123,3.45-1.946,5.736-2.032c4.799-0.176,8.351,2.497,8.334,5.4
		C258.892,9.897,259.078,10.052,259.331,10.137z"/>
	<path fill="#ED857F" d="M258.648,124.227c0.11,3.443-3.104,6.373-9.051,6.18c-5.297-0.176-8.713-2.844-9.877-5.897
		c-0.051-0.134-0.169-0.225-0.312-0.294C245.818,124.222,252.237,124.222,258.648,124.227z"/>
	<path fill="#ED857F" d="M267.597,231.8c-0.32,3.753-5.508,6.779-11.514,6.661c-5.82-0.118-10.569-2.919-12.694-6.186
		c-0.186-0.283-0.582-0.422-0.97-0.422l0.008-0.257C250.82,231.667,259.213,231.736,267.597,231.8z"/>
	<path fill="#1E1E1C" d="M243.347,11.837c2.724,11.34-4.403,23.112-18.236,30.511c-33.065,17.686-77.584,0.588-112.748-4.347
		c-10.712-1.502-21.981-2.31-32.871-1.059c-10.797,1.24-18.928,4.892-28.139,8.351c-11.53,4.33-25.482,5.031-37.08,1.444
		l-1.62,0.011c0-0.187-0.008-0.369-0.008-0.556c-2.64-0.925-5.137-2.085-7.44-3.486v-0.765c0.253-0.102,0.599-0.123,0.894,0.032
		c7.853,4.175,18.253,6.346,28.484,5.651c11.421-0.781,19.527-5.71,29.353-8.875c34.237-11.04,71.78,3.903,105.385,8.394
		c18.886,2.523,39.914,2.197,55.096-6.303c12.602-7.062,19.299-18.044,16.752-28.624c-0.093-0.401,0.287-0.7,0.751-0.829
		l0.995,0.011C243.128,11.479,243.296,11.624,243.347,11.837z"/>
	<path fill="#ED857F" d="M242.427,231.597l-0.008,0.257c-0.447,0-0.877,0.193-0.911,0.583c-0.253,3.154-4.943,5.715-9.953,5.277
		c-4.993-0.444-8.3-3.251-8.882-6.287C229.261,231.485,235.84,231.544,242.427,231.597z"/>
	<path fill="#ED857F" d="M241.171,12.217c2.547,10.58-4.15,21.562-16.752,28.624c-15.183,8.501-36.211,8.827-55.096,6.303
		c-33.604-4.491-71.148-19.434-105.385-8.394c-9.827,3.165-17.933,8.094-29.353,8.875C24.353,48.321,13.953,46.15,6.1,41.975
		c-0.295-0.155-0.641-0.134-0.894-0.032c-0.051-10.137-0.16-20.273-0.388-30.41c0-0.027-0.017-0.043-0.025-0.07
		c0.143,0.075,0.32,0.128,0.565,0.123c31.833-0.593,63.599-1.534,95.457-1.583c31.521-0.043,63.042,0.369,94.546,0.781
		c15.52,0.203,31.04,0.412,46.56,0.604C241.457,11.517,241.078,11.816,241.171,12.217z"/>
	<path fill="#ED857F" d="M241.061,9.629c0.009,0.128,0.084,0.23,0.186,0.31c-6.25-0.075-12.5-0.16-18.742-0.241
		c0.059-0.086,0.093-0.187,0.084-0.305c-0.042-0.364-0.135-0.722-0.261-1.075c1.965-2.54,5.331-4.603,10.164-4.635
		C238.067,3.647,240.842,6.464,241.061,9.629z"/>
	<path fill="#ED857F" d="M217.528,124.206c6.891,0.005,13.774,0.011,20.665,0.011c-0.211,0.096-0.354,0.246-0.329,0.454
		c0.557,3.801-4.513,6.672-10.426,6.1c-5.111-0.492-8.452-2.919-10.13-5.838C217.401,124.693,217.469,124.452,217.528,124.206z"/>
	<path fill="#ED857F" d="M220.649,9.678c-6.065-0.08-12.121-0.16-18.185-0.235c0.118-0.043,0.211-0.112,0.245-0.214
		c0.886-2.625,3.947-5.031,8.426-5.245c4.69-0.225,8.57,2.064,9.287,4.897c-0.008,0.037-0.034,0.08-0.042,0.118
		c-0.051,0.16,0.017,0.283,0.135,0.374c0,0.005,0.009,0.016,0.009,0.021C220.531,9.501,220.581,9.597,220.649,9.678z"/>
	<path fill="#ED857F" d="M199.3,124.201c5.491,0,10.982,0.005,16.465,0.005c-0.776,3.037-4.428,5.795-9.531,6.031
		c-5.289,0.251-9.835-2.459-10.366-5.699c-0.025-0.144-0.118-0.251-0.245-0.337C196.846,124.201,198.077,124.201,199.3,124.201z"/>
	<path fill="#ED857F" d="M220.649,231.41c-0.582,3.726-4.116,8.837-11.463,7.736c-5.086-0.765-7.262-4.229-8.545-7.164
		c0.051-0.235,0.093-0.476,0.11-0.716c0-0.011-0.009-0.016-0.009-0.032C207.381,231.298,214.019,231.351,220.649,231.41z"/>
	<path fill="#ED857F" d="M200.338,9.41c-5.305-0.064-10.603-0.128-15.9-0.193c0.177-0.128,0.287-0.299,0.228-0.486
		c-0.008-0.032-0.025-0.059-0.042-0.091c1.24-2.208,4.462-4.015,8.334-3.892C197.225,4.882,199.249,7.133,200.338,9.41z"/>
	<path fill="#ED857F" d="M197.014,231.201c0.616,0.005,1.24,0.011,1.864,0.016c-0.008,0.021-0.017,0.032-0.025,0.048
		c-0.43,3.384-4.69,6.517-10.307,6.565c-5.575,0.053-10.088-3.005-10.569-6.389c-0.025-0.187-0.152-0.331-0.321-0.428
		C184.109,231.079,190.562,231.143,197.014,231.201z"/>
	<path fill="#ED857F" d="M177.327,124.211c5.685-0.005,11.37-0.005,17.047-0.005c-0.11,0.08-0.194,0.187-0.202,0.331
		c-0.54,7.068-15.9,6.699-16.768-0.192C177.395,124.292,177.361,124.249,177.327,124.211z"/>
	<path fill="#ED857F" d="M183.131,9.202c-5.829-0.069-11.649-0.134-17.477-0.192c0.7-2.801,4.665-5.068,9.312-4.603
		c4.226,0.422,6.495,2.438,8.114,4.753C183.088,9.175,183.114,9.186,183.131,9.202z"/>
	<path fill="#ED857F" d="M154.899,230.785c7.161,0.075,14.322,0.144,21.475,0.214c-0.177,0.102-0.295,0.246-0.321,0.444
		c-0.413,3.587-5.263,6.736-11.117,6.592C159.041,237.89,154.806,234.313,154.899,230.785z"/>
	<path fill="#ED857F" d="M156.772,124.217c6.216,0,12.441-0.005,18.658-0.005c-0.076,3.374-3.29,6.907-9.337,6.747
		C160.441,130.809,158.265,127.077,156.772,124.217z"/>
	<path fill="#1E1E1C" d="M171.946,374.097c1.24,38.039,1.223,76.089-0.017,114.122l-0.093,0.941c-0.152,0-0.304-0.011-0.455-0.016
		c-0.194-0.005-0.337-0.053-0.447-0.118c-0.498,0-0.987-0.198-0.978-0.599c0.354-10.815,0.607-21.626,0.768-32.436
		c0.261-18.969,0.219-37.937-0.135-56.901c-0.177-9.575-0.43-19.145-0.768-28.715c-0.337-9.554-1.181-19.14-0.793-28.694
		l1.113,0.011C171.668,352.44,171.592,363.314,171.946,374.097z"/>
	<path fill="#ED857F" d="M163.089,8.598c0.025,0.166,0.135,0.294,0.287,0.39c-5.255-0.048-10.51-0.102-15.756-0.144
		c0-0.043-0.008-0.091-0.008-0.139c0,0,0,0,0.008-0.005c0.734-2.245,3.323-4.341,7.153-4.576
		C159.007,3.861,162.634,5.967,163.089,8.598z"/>
	<path fill="#ED857F" d="M160.416,397.274c0.624,21.145,0.506,42.3-0.337,63.445c-0.472,11.901-1.299,23.786-2.067,35.681
		c-15.554-0.053-31.108-0.128-46.662-0.225c-17.966-0.118-35.924-0.273-53.89-0.444c-18.152-0.171-36.371-0.722-54.523-0.513
		c0.633-52.886,1.071-105.782,1.392-158.673c0.017,0,0.025,0.005,0.034,0.005c50.837-0.246,101.665-0.872,152.502-1.208
		C157.531,355.989,159.808,376.616,160.416,397.274z M150.555,370.125c0.135-5.844-0.439-11.676-1.577-17.472
		c-0.008-0.043-0.025-0.075-0.034-0.112c0.607-0.385,0.354-1.246-0.768-1.251l-66.627-0.481c-10.822-0.075-21.652-0.155-32.483-0.23
		c-5.55-0.037-11.1-0.075-16.65-0.118c-4.917-0.032-10.08-0.299-14.972,0.118c0.059-0.08,0.118-0.166,0.143-0.257
		c0.093-0.305-0.413-0.631-0.886-0.433c-0.38,0.16-0.624,0.385-0.987,0.545c-0.371,0.166-0.785,0.246-1.232,0.257
		c-0.489,0.005-0.624,0.299-0.447,0.503c-0.118,0.096-0.211,0.214-0.228,0.369c-0.489,4.667,0.16,9.5,0.447,14.173
		c0.287,4.715,0.447,9.484,1.35,14.168c0.059,0.315,0.481,0.476,0.86,0.465l0.008,0.059c-0.557,0.048-0.337,0.524,0.118,0.561
		c10.695,0.904,21.914,0.38,32.685,0.374c10.898-0.005,21.787-0.011,32.685-0.021c10.62-0.011,21.23-0.021,31.85-0.032
		c11.117-0.016,22.42,0.337,33.52-0.102c0.337-0.016,0.582-0.102,0.751-0.225c0.084,0.027,0.185,0.043,0.287,0.027
		c1.459-0.235,1.265-1.844,1.417-2.572C150.344,375.691,150.488,372.894,150.555,370.125z M149.096,437.478
		c0.186-3.7,1.62-8.533-1.324-11.912c-0.202-0.241-0.574-0.315-0.928-0.289c-0.16-0.123-0.413-0.203-0.759-0.208
		c-10.847-0.198-21.829,0.305-32.685,0.465c-10.889,0.16-21.787,0.31-32.677,0.438c-10.619,0.128-21.239,0.241-31.85,0.337
		c-5.592,0.048-11.176,0.096-16.768,0.139c-4.69,0.037-10.569-0.503-15.014,0.54c-0.034,0.005-0.067,0.016-0.101,0.021
		c-0.548-0.251-1.434-0.134-1.426,0.428c0.076,4.117-1.653,8.046-1.156,12.184c0.506,4.175,1.822,8.26,1.544,12.462
		c-0.017,0.187,0.177,0.321,0.413,0.385c0.008,0.203,0.219,0.401,0.649,0.422c0.076,0.005,0.16,0.011,0.236,0.011
		c10.544,0.54,21.239,0.251,31.816,0.257c10.965,0.005,21.931,0.011,32.896,0.016c21.652,0.011,43.296,0.016,64.948,0.032
		c1.122,0,1.333-0.893,0.633-1.23C148.438,447.155,148.86,442.327,149.096,437.478z M147.274,487.498
		c1.206-3.764,1.636-7.581,1.51-11.42c-0.067-2.042-0.329-4.069-0.658-6.1c-0.152-0.957-1.366-4.347-0.742-5.469
		c0.422-0.107,0.624-0.465,0.523-0.727c-0.017-0.053-0.034-0.107-0.059-0.155c-0.135-0.369-0.734-0.535-1.257-0.454
		c-0.169-0.214-0.481-0.374-0.962-0.385c-21.981-0.556-43.979-0.893-65.977-0.994c-10.864-0.048-21.728-0.037-32.584,0.021
		c-10.231,0.064-20.783-0.235-30.939,0.684c-0.312,0.027-0.624,0.053-0.936,0.086c-0.43,0.043-0.405,0.348-0.152,0.503
		c-0.245,0.091-0.439,0.241-0.464,0.47c-0.843,7.148-0.987,14.515,0.084,21.652c0.008,0.048,0.025,0.091,0.051,0.128
		c0.034,0.037,0.067,0.075,0.11,0.107c-0.228,0.225-0.059,0.593,0.506,0.631c10.78,0.706,21.753,0.588,32.584,0.77
		c10.856,0.182,21.711,0.369,32.575,0.551c21.711,0.369,43.431,0.829,65.151,1.123c0.683,0.005,1.012-0.331,0.995-0.668
		C146.928,487.829,147.207,487.717,147.274,487.498z M148.101,392.58c0.16-1.171,1.248-3.079-0.177-4.052
		c0.076-0.358-0.253-0.749-1.012-0.759c-21.753-0.198-43.617,0.524-65.362,0.797c-10.619,0.139-21.23,0.273-31.85,0.406
		c-10.881,0.144-22.192-0.257-33.006,0.599c-0.169,0.011-0.346,0.021-0.515,0.037c-0.127,0.011-0.236,0.032-0.329,0.064
		c-0.548-0.016-1.105,0.203-1.105,0.652c0.008,4.448,0.135,8.896,0.236,13.344c0.093,3.951-0.7,8.554,0.903,12.387
		c0.067,0.176,0.379,0.235,0.607,0.166c-0.034,0.171,0.084,0.347,0.388,0.38c4.96,0.481,10.172,0.176,15.183,0.112
		c5.567-0.069,11.134-0.166,16.701-0.246c10.856-0.166,21.711-0.326,32.567-0.492c10.864-0.166,21.72-0.326,32.575-0.492
		l16.701-0.251c5.019-0.075,10.333,0.166,15.267-0.412c0.801-0.096,0.843-0.984,0-1.059c-0.034,0-0.059,0-0.093-0.005
		c1.442-4.453,0.987-9.41,1.459-13.927C147.493,397.413,147.78,394.996,148.101,392.58z"/>
	<path fill="#ED857F" d="M135.921,124.227c6.368-0.005,12.737-0.005,19.105-0.005c-0.017,0.043-0.042,0.086-0.042,0.134
		c0.042,3.347-3.821,6.255-9.354,6.057c-5.609-0.203-8.047-3.133-9.692-6.079C135.929,124.297,135.929,124.265,135.921,124.227z"/>
	<path fill="#ED857F" d="M132.918,230.549c6.672,0.075,13.352,0.144,20.024,0.214c-1.527,3.406-5.297,6.913-11.589,6.544
		C134.993,236.938,135.398,233.233,132.918,230.549z"/>
	<path fill="#1E1E1C" d="M148.978,352.653c1.139,5.795,1.712,11.628,1.577,17.472c-0.067,2.769-0.211,5.565-0.768,8.313
		c-0.152,0.727,0.042,2.336-1.417,2.572c-0.101,0.016-0.202,0-0.287-0.027l-0.397-1.026c0.009-0.171,0.076-0.358,0.219-0.572
		c0.008-0.684,0.042-1.369,0.101-2.053c0.059-1.027,0.143-2.058,0.203-3.085c0.143-2.401,0.211-4.806,0.169-7.212
		c-0.101-4.79-0.624-9.565-1.535-14.317l-65.294-0.47c-11.1-0.08-22.209-0.16-33.309-0.241c-5.55-0.043-11.109-0.08-16.659-0.128
		c-4.732-0.043-9.7,0.15-14.39-0.342l0.253-0.957c4.892-0.417,10.054-0.15,14.972-0.118c5.55,0.043,11.1,0.08,16.65,0.118
		c10.83,0.075,21.661,0.155,32.483,0.23l66.627,0.481c1.122,0.005,1.375,0.866,0.768,1.251
		C148.953,352.578,148.969,352.611,148.978,352.653z"/>
	<path fill="#1E1E1C" d="M147.772,425.566c2.944,3.379,1.51,8.212,1.324,11.912c-0.236,4.849-0.658,9.677-1.552,14.499l-1.409-0.128
		c0.11-4.272,0.388-8.538,0.616-12.804c0.228-4.143,1.13-8.629-0.624-12.665c-0.017,0-0.025,0.005-0.042,0.005
		c-11.092,0.588-22.395,0.438-33.52,0.599c-10.611,0.155-21.23,0.299-31.841,0.422c-10.898,0.128-21.796,0.246-32.693,0.342
		c-5.305,0.048-10.611,0.096-15.925,0.134c-4.58,0.037-10.24,0.631-14.677-0.257l-0.337-0.636c4.445-1.043,10.324-0.503,15.014-0.54
		c5.592-0.043,11.176-0.091,16.768-0.139c10.611-0.096,21.23-0.208,31.85-0.337c10.889-0.128,21.787-0.278,32.677-0.438
		c10.856-0.16,21.838-0.663,32.685-0.465c0.346,0.005,0.599,0.086,0.759,0.208C147.198,425.251,147.569,425.326,147.772,425.566z"/>
	<path fill="#1E1E1C" d="M148.784,476.078c0.127,3.839-0.304,7.656-1.51,11.42c-0.067,0.219-0.346,0.331-0.641,0.353l-0.903-0.642
		c0.675-4.908,1.139-9.8,0.548-14.729c-0.295-2.438-1.012-4.881-0.945-7.33c0.008-0.315-0.008-0.642,0.051-0.946
		c-21.627-0.54-43.262-0.877-64.898-0.978c-10.864-0.053-21.728-0.048-32.584,0.011c-10.451,0.059-21.18,0.609-31.605-0.005
		l-0.169-0.732c10.156-0.92,20.708-0.62,30.939-0.684c10.856-0.059,21.72-0.069,32.584-0.021
		c21.998,0.102,43.996,0.438,65.977,0.994c0.481,0.011,0.793,0.171,0.962,0.385c0.523-0.08,1.122,0.086,1.257,0.454
		c0.025,0.048,0.042,0.102,0.059,0.155c0.101,0.262-0.101,0.62-0.523,0.727c-0.624,1.123,0.59,4.512,0.742,5.469
		C148.455,472.01,148.716,474.036,148.784,476.078z"/>
	<path fill="#ED857F" d="M148.379,367.035c0.042,2.406-0.025,4.812-0.169,7.212c-0.059,1.026-0.143,2.058-0.203,3.085
		c-0.059,0.684-0.093,1.369-0.101,2.053c-0.143,0.214-0.211,0.401-0.219,0.572c-0.101-0.027-0.219-0.053-0.354-0.059
		c-11.1-0.417-22.403-0.037-33.52-0.021c-10.898,0.011-21.796,0.021-32.685,0.037c-10.898,0.016-21.796,0.037-32.685,0.053
		c-10.552,0.016-21.5-0.449-31.968,0.46l-0.008-0.059c0.346-0.016,0.649-0.166,0.658-0.465c0.118-4.715-0.405-9.452-0.641-14.168
		c-0.236-4.694,0.034-9.5-0.717-14.173c-0.008-0.091-0.051-0.166-0.101-0.235c0.127-0.021,0.253-0.043,0.371-0.07
		c0.076,0.096,0.203,0.176,0.388,0.198c0.253,0.032,0.515,0.059,0.768,0.08c4.69,0.492,9.658,0.299,14.39,0.342
		c5.55,0.048,11.109,0.086,16.659,0.128c11.1,0.08,22.209,0.16,33.309,0.241l65.294,0.47
		C147.755,357.47,148.278,362.245,148.379,367.035z M86.088,357.604c0.278-1.347-0.953-2.668-3.037-3.021
		c-0.11-0.155-0.354-0.273-0.725-0.294c-2.387-0.123-4.563,1.128-4.816,2.62c-0.253,1.518,1.679,2.689,3.964,2.844
		C83.684,359.903,85.776,359.053,86.088,357.604z"/>
	<path fill="#1E1E1C" d="M147.924,388.527c1.426,0.973,0.337,2.882,0.177,4.052c-0.321,2.417-0.607,4.833-0.86,7.25
		c-0.472,4.518-0.017,9.474-1.459,13.927l-1.24-0.08c-0.784-3.817,0.118-7.977,0.481-11.773c0.211-2.245,0.447-4.491,0.717-6.736
		c0.126-1.037,0.261-2.069,0.396-3.106c0.067-0.519,0.135-1.032,0.211-1.55c-0.202-0.449-0.169-0.775,0.093-0.989
		c-0.025-0.021-0.059-0.037-0.084-0.064c-0.051-0.048-0.101-0.102-0.152-0.155c-0.042-0.043-0.067-0.091-0.084-0.144
		c-21.458,0.716-43.085,0.561-64.569,0.829c-10.898,0.134-21.796,0.267-32.685,0.406c-10.535,0.128-21.45,0.775-31.968,0.23
		l-0.202-1.053c10.813-0.855,22.125-0.454,33.006-0.599c10.619-0.134,21.23-0.267,31.85-0.406
		c21.745-0.273,43.608-0.994,65.362-0.797C147.67,387.779,147.999,388.169,147.924,388.527z"/>
	<path fill="#1E1E1C" d="M147.687,379.957l0.397,1.026c-0.169,0.123-0.413,0.208-0.751,0.225c-11.1,0.438-22.403,0.086-33.52,0.102
		c-10.619,0.011-21.23,0.021-31.85,0.032c-10.898,0.011-21.787,0.016-32.685,0.021c-10.771,0.005-21.99,0.529-32.685-0.374
		c-0.455-0.037-0.675-0.513-0.118-0.561c10.468-0.909,21.416-0.444,31.968-0.46c10.889-0.016,21.787-0.037,32.685-0.053
		c10.889-0.016,21.787-0.027,32.685-0.037c11.117-0.016,22.42-0.396,33.52,0.021C147.468,379.903,147.586,379.93,147.687,379.957z"
		/>
	<path fill="#1E1E1C" d="M147.544,451.977c0.7,0.337,0.489,1.23-0.633,1.23c-21.652-0.016-43.296-0.021-64.948-0.032
		c-10.965-0.005-21.931-0.011-32.896-0.016c-10.577-0.005-21.273,0.283-31.816-0.257l0.101-0.877
		c10.788-0.535,21.745-0.225,32.558-0.219c10.687,0.005,21.365,0.011,32.052,0.016c21.391,0.011,42.782,0.027,64.172,0.027
		L147.544,451.977z"/>
	<path fill="#ED857F" d="M146.127,426.379c1.754,4.036,0.852,8.522,0.624,12.665c-0.228,4.266-0.506,8.533-0.616,12.804
		c-21.391,0-42.782-0.016-64.172-0.027c-10.687-0.005-21.365-0.011-32.052-0.016c-10.813-0.005-21.77-0.315-32.558,0.219
		c0.894-4.01-0.186-7.902-0.7-11.901c-0.54-4.186,1.552-8.378,0.776-12.5c4.437,0.887,10.097,0.294,14.677,0.257
		c5.314-0.037,10.619-0.086,15.925-0.134c10.898-0.096,21.796-0.214,32.693-0.342c10.611-0.123,21.23-0.267,31.841-0.422
		c11.126-0.16,22.428-0.011,33.52-0.599C146.102,426.384,146.11,426.379,146.127,426.379z M82.756,436.879
		c3.357-0.294,4.74-2.967,3.829-4.817c-0.422-0.866-1.468-1.582-2.918-1.727c-1.037-0.102-2.05,0.091-2.657,0.577
		c-2.092,0.305-3.838,1.427-3.872,2.951C77.105,435.671,79.989,437.12,82.756,436.879z"/>
	<path fill="#1E1E1C" d="M146.633,487.851c0.017,0.337-0.312,0.674-0.995,0.668c-21.72-0.294-43.439-0.754-65.151-1.123
		c-10.864-0.182-21.72-0.369-32.575-0.551c-10.83-0.182-21.804-0.064-32.584-0.77c-0.565-0.037-0.734-0.406-0.506-0.631
		c-0.042-0.032-0.076-0.07-0.11-0.107l1.265-0.091c10.872-0.315,21.888,0.176,32.769,0.358l31.74,0.529
		c21.711,0.364,43.439,0.631,65.151,1.069c0.034,0,0.059,0.005,0.093,0.005L146.633,487.851z"/>
	<path fill="#ED857F" d="M146.355,389.457c0.025,0.027,0.059,0.043,0.084,0.064c-0.261,0.214-0.295,0.54-0.093,0.989
		c-0.076,0.519-0.143,1.032-0.211,1.55c-0.135,1.037-0.27,2.069-0.396,3.106c-0.27,2.245-0.506,4.491-0.717,6.736
		c-0.363,3.796-1.265,7.955-0.481,11.773c-4.58-0.267-9.354,0.059-13.934,0.134c-5.567,0.086-11.134,0.171-16.701,0.257
		c-10.856,0.171-21.711,0.337-32.575,0.508c-10.856,0.171-21.711,0.337-32.567,0.508c-5.567,0.086-11.134,0.166-16.701,0.262
		c-5.01,0.091-10.265-0.059-15.183,0.577c-0.059,0.005-0.101,0.021-0.143,0.037c1.409-3.849,0.464-8.362,0.405-12.291
		c-0.059-4.347-0.093-8.699-0.245-13.045c10.518,0.545,21.433-0.102,31.968-0.23c10.889-0.139,21.787-0.273,32.685-0.406
		c21.484-0.267,43.11-0.112,64.569-0.829c0.017,0.053,0.042,0.102,0.084,0.144C146.253,389.356,146.304,389.409,146.355,389.457z
		 M87.058,396.397c1.754-1.337,2.016-3.705-0.658-4.662c-2.084-0.748-5.154-0.075-5.567,1.454c-1.645,0.679-2.109,2.272-0.86,3.304
		C81.769,397.974,85.286,397.744,87.058,396.397z"/>
	<path fill="#ED857F" d="M146.279,472.48c0.59,4.929,0.127,9.821-0.548,14.729c-0.034,0-0.059-0.005-0.093-0.005
		c-21.711-0.438-43.439-0.706-65.151-1.069l-31.74-0.529c-10.881-0.182-21.897-0.674-32.769-0.358c0-0.011,0.008-0.021,0.008-0.037
		c0.27-7.212,0.245-14.435,0.464-21.652c0.008-0.134-0.059-0.241-0.152-0.326c10.426,0.615,21.155,0.064,31.605,0.005
		c10.856-0.059,21.72-0.064,32.584-0.011c21.635,0.102,43.271,0.438,64.898,0.978c-0.059,0.305-0.042,0.631-0.051,0.946
		C145.267,467.599,145.984,470.042,146.279,472.48z M77.889,474.811c2.564-0.449,4.504-2.374,3.29-3.994
		c-1.088-1.454-4.175-2.074-6.242-1.101c-1.67,0.203-3.045,1.123-3.011,2.374C71.959,473.934,75.165,475.287,77.889,474.811z"/>
	<path fill="#1E1E1C" d="M145.874,413.762c0.843,0.075,0.801,0.962,0,1.059c-4.934,0.577-10.248,0.337-15.267,0.412l-16.701,0.251
		c-10.856,0.166-21.711,0.326-32.575,0.492c-10.856,0.166-21.711,0.326-32.567,0.492c-5.567,0.08-11.134,0.176-16.701,0.246
		c-5.01,0.064-10.223,0.369-15.183-0.112c-0.304-0.032-0.422-0.208-0.388-0.38c-0.228,0.069-0.54,0.011-0.607-0.166l0.852-0.096
		c0.042-0.016,0.084-0.032,0.143-0.037c4.918-0.636,10.172-0.487,15.183-0.577c5.567-0.096,11.134-0.176,16.701-0.262
		c10.856-0.171,21.711-0.337,32.567-0.508c10.864-0.171,21.72-0.337,32.575-0.508c5.567-0.086,11.134-0.171,16.701-0.257
		c4.58-0.075,9.354-0.401,13.934-0.134l1.24,0.08C145.815,413.762,145.84,413.762,145.874,413.762z"/>
	<path fill="#ED857F" d="M137.523,4.069c4.723,0.096,6.858,2.347,8.46,4.764c-5.862-0.043-11.724-0.086-17.578-0.112
		c0-0.011,0.017-0.016,0.017-0.032C129.612,6.154,133.12,3.978,137.523,4.069z"/>
	<path fill="#ED857F" d="M134.183,124.227c0.481,3.448-3.315,6.683-9.143,6.645c-5.803-0.043-9.903-2.866-10.594-6.389
		c-0.017-0.096-0.076-0.176-0.143-0.246C120.932,124.233,127.562,124.233,134.183,124.227z"/>
	<path fill="#ED857F" d="M130.877,230.528c0.042,3.213-3.678,6.351-8.949,6.64c-6.098,0.337-10.847-3.117-10.662-6.833
		c0-0.011-0.008-0.016-0.008-0.021C117.803,230.389,124.34,230.458,130.877,230.528z"/>
	<path fill="#ED857F" d="M118.747,3.882c4.302,0.358,6.301,2.481,7.701,4.828c-4.681-0.021-9.363-0.037-14.052-0.043
		c-0.649,0-1.299,0-1.948,0C110.684,5.967,114.235,3.513,118.747,3.882z"/>
	<path fill="#ED857F" d="M107.521,124.238c1.763,0,3.526,0,5.289,0c-0.034,0.032-0.067,0.059-0.084,0.102
		c-1.459,2.764-4.479,6.41-10.164,5.405c-3.374-0.593-7.853-3.144-8.148-5.459C98.782,124.265,103.151,124.243,107.521,124.238z"/>
	<path fill="#ED857F" d="M105.319,230.25c1.333,0.016,2.665,0.027,3.998,0.043c-1.037,3.224-2.969,6.795-9.169,6.822
		c-5.904,0.032-9.236-3.459-8.789-6.865c0.008-0.048-0.008-0.091-0.025-0.134C95.999,230.159,100.663,230.196,105.319,230.25z"/>
	<path fill="#ED857F" d="M106.871,7.058c0.464,0.476,0.725,1.139,1.24,1.609c-5.55,0-11.109,0-16.667,0.011
		c0.894-2.94,5.246-5.165,10.122-4.245C103.742,4.844,105.673,5.85,106.871,7.058z"/>
	<path fill="#ED857F" d="M74.869,124.398c5.963-0.037,11.918-0.075,17.873-0.107c-0.827,2.395-1.965,4.919-6.191,5.747
		c-4.631,0.914-10.316-1.946-11.454-4.812c-0.025-0.246-0.076-0.497-0.177-0.748C74.912,124.447,74.886,124.425,74.869,124.398z"/>
	<path fill="#1E1E1C" d="M86.4,391.735c2.674,0.957,2.412,3.325,0.658,4.662c-1.771,1.347-5.289,1.577-7.085,0.096
		c-1.248-1.032-0.784-2.625,0.86-3.304C81.246,391.66,84.316,390.986,86.4,391.735z M85.641,395.696
		c1.156-0.813,1.518-2.406-0.219-3.01c-1.164-0.412-2.083-0.048-2.741,0.497c0.135,0.182,0.093,0.401-0.27,0.497
		c-0.118,0.037-0.228,0.08-0.329,0.123c-0.101,0.112-0.245,0.171-0.405,0.192c-0.903,0.524-1.113,1.395-0.025,1.994
		C82.857,396.664,84.645,396.402,85.641,395.696z"/>
	<path fill="#ED857F" d="M83.304,4.812c3.475,0.47,4.437,2.171,5.955,3.876c-4.884,0.011-9.776,0.027-14.668,0.064
		c0.009-0.134-0.017-0.262-0.034-0.39c0.304,0.203,0.945,0.182,1.097-0.155C76.582,6.101,79.61,4.31,83.304,4.812z"/>
	<path fill="#1E1E1C" d="M86.585,432.062c0.911,1.85-0.472,4.523-3.829,4.817c-2.767,0.241-5.651-1.208-5.618-3.015
		c0.034-1.524,1.78-2.646,3.872-2.951c0.607-0.487,1.62-0.679,2.657-0.577C85.118,430.48,86.164,431.196,86.585,432.062z
		 M84.907,433.794c0.185-0.658,0.143-1.481-0.624-1.989c-0.295-0.198-0.633-0.305-0.97-0.337c-0.025,0.005-0.042,0.011-0.068,0.011
		c-0.312,0.011-0.641,0.059-0.961,0.118c-0.169,0.064-0.346,0.139-0.506,0.235c-0.185,0.123-0.447,0.144-0.675,0.107
		c-0.843,0.326-1.552,0.797-1.856,1.326c-0.582,1.037,0.439,2.032,2.033,2.342C83.279,435.997,84.586,434.944,84.907,433.794z"/>
	<path fill="#1E1E1C" d="M82.672,355.284c0.008,0,0.017-0.005,0.025-0.005c0.051,0.364-0.759,0.551-1.13,0.299
		c-0.076-0.059-0.143-0.112-0.194-0.171c-1.181,0.208-2.142,0.877-2.21,1.689c-0.067,0.925,1.232,1.529,2.573,1.598
		c3.247,0.166,3.568-2.7,1.037-3.459C82.739,355.252,82.705,355.268,82.672,355.284z M83.051,354.583
		c2.083,0.353,3.315,1.673,3.037,3.021c-0.312,1.449-2.404,2.299-4.614,2.149c-2.286-0.155-4.217-1.326-3.964-2.844
		c0.253-1.492,2.429-2.743,4.816-2.62C82.697,354.311,82.942,354.428,83.051,354.583z"/>
	<path fill="#ED857F" d="M85.421,392.686c1.738,0.604,1.375,2.197,0.219,3.01c-0.995,0.706-2.783,0.968-3.99,0.294
		c-1.088-0.599-0.877-1.47,0.025-1.994c0.16-0.021,0.304-0.08,0.405-0.192c0.101-0.043,0.211-0.086,0.329-0.123
		c0.363-0.096,0.405-0.315,0.27-0.497C83.338,392.638,84.257,392.275,85.421,392.686z"/>
	<path fill="#ED857F" d="M84.283,431.805c0.768,0.508,0.81,1.331,0.624,1.989c-0.321,1.149-1.628,2.203-3.627,1.812
		c-1.594-0.31-2.615-1.304-2.033-2.342c0.304-0.529,1.012-1,1.856-1.326c0.228,0.037,0.489,0.016,0.675-0.107
		c0.16-0.096,0.337-0.171,0.506-0.235c0.321-0.059,0.649-0.107,0.961-0.118c0.025,0,0.042-0.005,0.068-0.011
		C83.65,431.501,83.987,431.608,84.283,431.805z"/>
	<path fill="#ED857F" d="M82.773,355.236c2.53,0.759,2.21,3.625-1.037,3.459c-1.341-0.069-2.64-0.674-2.573-1.598
		c0.067-0.813,1.029-1.481,2.21-1.689c0.051,0.059,0.118,0.112,0.194,0.171c0.371,0.251,1.181,0.064,1.13-0.299
		c-0.009,0-0.017,0.005-0.025,0.005C82.705,355.268,82.739,355.252,82.773,355.236z"/>
	<path fill="#1E1E1C" d="M81.179,470.817c1.215,1.62-0.725,3.545-3.29,3.994c-2.724,0.476-5.93-0.877-5.964-2.721
		c-0.034-1.251,1.341-2.171,3.011-2.374C77.003,468.743,80.091,469.363,81.179,470.817z M77.611,473.683
		c1.518-0.315,2.758-1.55,1.898-2.513c-0.742-0.834-2.37-1.027-3.635-0.604c-0.228,0.08-0.472,0.064-0.692,0.005
		c-1.012,0.396-1.712,1.16-1.383,1.877C74.237,473.416,76.135,473.988,77.611,473.683z"/>
	<path fill="#ED857F" d="M89.453,230.1c-1.147,3.491-5.913,8.33-12.61,5.929c-3.45-1.235-5.069-3.876-6.655-6.079
		C76.615,230.004,83.034,230.047,89.453,230.1z"/>
	<path fill="#ED857F" d="M79.509,471.17c0.86,0.962-0.38,2.197-1.898,2.513c-1.476,0.305-3.374-0.267-3.813-1.235
		c-0.329-0.716,0.371-1.481,1.383-1.877c0.219,0.059,0.464,0.075,0.692-0.005C77.138,470.144,78.766,470.336,79.509,471.17z"/>
	<path fill="#ED857F" d="M73.621,124.409c-0.017,0.021-0.034,0.043-0.042,0.069c-0.919,2.801-2.792,5.651-8.013,5.94
		c-5.305,0.294-9.439-2.711-9.506-5.918C61.913,124.484,67.767,124.447,73.621,124.409z"/>
	<path fill="#ED857F" d="M66.637,4.652c3.576,0.556,4.875,2.235,6.276,4.111c-5.39,0.043-10.788,0.096-16.178,0.171
		c0-0.166-0.008-0.331-0.034-0.492c0.059,0.027,0.11,0.053,0.186,0.08c0.185,0.069,0.405-0.027,0.422-0.155
		C57.561,5.636,62.782,4.059,66.637,4.652z"/>
	<path fill="#ED857F" d="M68.307,229.977c0.523,3.48-2.058,7.009-8.494,6.897c-5.854-0.102-9.7-3.112-10.257-6.613
		c-0.042-0.262-0.27-0.433-0.557-0.513c6.436,0.08,12.88,0.139,19.316,0.187C68.316,229.95,68.307,229.961,68.307,229.977z"/>
	<path fill="#ED857F" d="M36.196,124.489c5.854,0.032,11.699,0.037,17.553,0.021c-0.396,2.668-1.695,5.095-6.343,5.886
		c-4.833,0.818-11.379-1.24-11.547-4.625C36.019,125.355,36.137,124.922,36.196,124.489z"/>
	<path fill="#ED857F" d="M48.958,4.866c3.5,0.283,5.424,2.064,6.014,4.101c-4.538,0.069-9.076,0.15-13.614,0.251
		c0.017-0.032,0.034-0.053,0.042-0.091C41.72,6.775,45.027,4.54,48.958,4.866z"/>
	<path fill="#ED857F" d="M48.224,229.737c-0.287,0.08-0.523,0.251-0.565,0.524c-0.489,3.491-4.369,7.64-10.881,6.683
		c-5.314-0.775-5.677-4.678-5.685-7.495C36.803,229.565,42.513,229.667,48.224,229.737z"/>
	<path fill="#ED857F" d="M34.441,124.473c-0.54,2.919-3.391,5.491-8.241,5.924c-5.584,0.497-10.139-2.491-9.388-6.031
		c0.009-0.043,0.009-0.08-0.008-0.118C22.675,124.366,28.562,124.436,34.441,124.473z"/>
	<path fill="#ED857F" d="M31.278,4.866c4.192-0.262,7.634,1.839,8.106,4.395c-5.103,0.123-10.206,0.262-15.301,0.433
		c0.11-0.037,0.186-0.107,0.211-0.203C24.851,7.218,27.457,5.106,31.278,4.866z"/>
	<path fill="#ED857F" d="M29.22,229.41c-0.059,3.138-2.48,6.988-8.291,7.127c-6.933,0.171-7.49-4.218-6.621-7.512
		C19.275,229.181,24.244,229.304,29.22,229.41z"/>
	<path fill="#1E1E1C" d="M16.703,349.889c0.472-0.198,0.978,0.128,0.886,0.433c-0.025,0.091-0.084,0.176-0.143,0.257l-0.253,0.957
		c-0.253-0.021-0.515-0.048-0.768-0.08c-0.185-0.021-0.312-0.102-0.388-0.198c-0.118,0.027-0.245,0.048-0.371,0.07
		c0.051,0.069,0.093,0.144,0.101,0.235c0.751,4.673,0.481,9.479,0.717,14.173c0.236,4.715,0.759,9.452,0.641,14.168
		c-0.008,0.299-0.312,0.449-0.658,0.465c-0.38,0.011-0.801-0.15-0.86-0.465c-0.903-4.683-1.063-9.452-1.35-14.168
		c-0.287-4.673-0.936-9.506-0.447-14.173c0.017-0.155,0.11-0.273,0.228-0.369c-0.177-0.203-0.042-0.497,0.447-0.503
		c0.447-0.011,0.86-0.091,1.232-0.257C16.079,350.274,16.323,350.05,16.703,349.889z"/>
	<path fill="#1E1E1C" d="M17.428,427.625c0.776,4.122-1.316,8.313-0.776,12.5c0.515,3.999,1.594,7.891,0.7,11.901l-0.101,0.877
		c-0.076,0-0.16-0.005-0.236-0.011c-0.43-0.021-0.641-0.219-0.649-0.422c-0.236-0.064-0.43-0.198-0.413-0.385
		c0.278-4.202-1.037-8.287-1.544-12.462c-0.498-4.138,1.232-8.068,1.156-12.184c-0.008-0.561,0.877-0.679,1.426-0.428
		c0.034-0.005,0.067-0.016,0.101-0.021L17.428,427.625z"/>
	<path fill="#1E1E1C" d="M17.141,403.668c0.059,3.929,1.004,8.442-0.405,12.291l-0.852,0.096c-1.603-3.833-0.81-8.436-0.903-12.387
		c-0.101-4.448-0.228-8.896-0.236-13.344c0-0.449,0.557-0.668,1.105-0.652c0.093-0.032,0.202-0.053,0.329-0.064
		c0.169-0.016,0.346-0.027,0.515-0.037l0.202,1.053C17.049,394.969,17.082,399.321,17.141,403.668z"/>
	<path fill="#1E1E1C" d="M16.298,463.231c0.093,0.086,0.16,0.192,0.152,0.326c-0.219,7.217-0.194,14.44-0.464,21.652
		c0,0.016-0.008,0.027-0.008,0.037l-1.265,0.091c-0.025-0.037-0.042-0.08-0.051-0.128c-1.071-7.137-0.928-14.505-0.084-21.652
		c0.025-0.23,0.219-0.38,0.464-0.47c-0.253-0.155-0.278-0.46,0.152-0.503c0.312-0.032,0.624-0.059,0.936-0.086L16.298,463.231z"/>
	<path fill="#ED857F" d="M12.671,5.823c4.335-0.524,8.156,1.406,9.379,3.94c-5.466,0.198-10.923,0.417-16.372,0.684
		C6.547,8.229,8.951,6.272,12.671,5.823z"/>
	<path fill="#ED857F" d="M14.248,102.03c0.093,18.798-0.228,37.6-0.683,56.398c-0.902,37.595-2.336,75.19-2.058,112.796
		c0.152,21.273,0.86,42.546,2.564,63.792c0,0.005,0,0.011,0,0.016c-3.231,0.059-6.47,0.112-9.709,0.176c-0.008,0-0.017,0-0.025,0
		c0.059-9.271,0.118-18.546,0.169-27.817c0.337-63.017,0.548-126.034,0.548-189.051C5.046,93.139,5.324,67.92,5.206,42.707
		c2.303,1.401,4.799,2.561,7.44,3.486c0,0.187,0.008,0.369,0.008,0.556C12.907,65.177,14.147,83.595,14.248,102.03z"/>
	<path fill="#1E1E1C" d="M6.075,499.105c0.034,0.016-0.017,0.048-0.051,0.032c-1.13-0.711-2.269-1.417-3.382-2.139
		c-0.034-0.027,0.025-0.064,0.068-0.037C3.84,497.666,4.953,498.388,6.075,499.105z"/>
</g>
<g>
</g>
<g>
</g>
<g>
</g>
<g>
</g>
<g>
</g>
<g>
</g>
</svg>
