<?xml version="1.0" encoding="utf-8"?><!DOCTYPE svg PUBLIC "-//W3C//DTD SVG 1.1//EN" "http://www.w3.org/Graphics/SVG/1.1/DTD/svg11.dtd"><svg version="1.1" id="Слой_1" xmlns="http://www.w3.org/2000/svg" xmlns:xlink="http://www.w3.org/1999/xlink" x="0px" y="0px" width="150px" height="150px" viewBox="0 0 150 150" enable-background="new 0 0 150 150" xml:space="preserve"><rect x="24.981" y="21.964" fill="#3C3C3B" width="101.218" height="9.202"/><rect x="24.981" y="53.891" fill="#3C3C3B" width="101.218" height="9.202"/><rect x="24.981" y="85.957" fill="#3C3C3B" width="101.218" height="9.202"/><rect x="24.981" y="118.024" fill="#3C3C3B" width="101.218" height="9.202"/><path fill="#683D14" d="M44.92,36.472c0,0-1.378,5.011-5.717,5.011c-4.339,0-5.717-5.011-5.717-5.011V17.483c0,0,1.64-4.721,5.717-4.721c3.954,0,5.717,4.721,5.717,4.721V36.472z"/><path fill="#683D14" d="M77.822,67.841c0,0-1.378,5.011-5.717,5.011c-4.339,0-5.717-5.011-5.717-5.011V48.853c0,0,1.64-4.721,5.717-4.721c3.954,0,5.717,4.721,5.717,4.721V67.841z"/><path fill="#683D14" d="M61.092,36.472c0,0-1.378,5.011-5.717,5.011c-4.339,0-5.717-5.011-5.717-5.011V17.483c0,0,1.64-4.721,5.717-4.721c3.954,0,5.717,4.721,5.717,4.721V36.472z"/><path fill="#683D14" d="M44.92,99.908c0,0-1.378,5.011-5.717,5.011c-4.339,0-5.717-5.011-5.717-5.011V80.919c0,0,1.64-4.721,5.717-4.721c3.954,0,5.717,4.721,5.717,4.721V99.908z"/><path fill="#683D14" d="M61.092,99.908c0,0-1.378,5.011-5.717,5.011c-4.339,0-5.717-5.011-5.717-5.011V80.919c0,0,1.64-4.721,5.717-4.721c3.954,0,5.717,4.721,5.717,4.721V99.908z"/><path fill="#683D14" d="M77.822,99.908c0,0-1.378,5.011-5.717,5.011c-4.339,0-5.717-5.011-5.717-5.011V80.919c0,0,1.64-4.721,5.717-4.721c3.954,0,5.717,4.721,5.717,4.721V99.908z"/><path fill="#683D14" d="M94.553,99.908c0,0-1.378,5.011-5.717,5.011c-4.339,0-5.717-5.011-5.717-5.011V80.919c0,0,1.64-4.721,5.717-4.721c3.954,0,5.717,4.721,5.717,4.721V99.908z"/><path fill="#683D14" d="M94.553,131.974c0,0-1.378,5.011-5.717,5.011c-4.339,0-5.717-5.011-5.717-5.011v-18.989c0,0,1.64-4.721,5.717-4.721c3.954,0,5.717,4.721,5.717,4.721V131.974z"/><path fill="#683D14" d="M110.725,131.974c0,0-1.378,5.011-5.717,5.011c-4.339,0-5.717-5.011-5.717-5.011v-18.989c0,0,1.64-4.721,5.717-4.721c3.954,0,5.717,4.721,5.717,4.721V131.974z"/><path fill="#432918" d="M141.095,137.682c0,0-1.977,6.703-8.205,6.703c-6.227,0-8.205-6.703-8.205-6.703V11.09c0,0,2.349-6.146,8.2-6.146c5.674,0,8.209,6.146,8.209,6.146V137.682z"/><path fill="#432918" d="M25.657,137.682c0,0-1.977,6.703-8.205,6.703c-6.227,0-8.205-6.703-8.205-6.703V11.09c0,0,2.349-6.146,8.2-6.146c5.674,0,8.209,6.146,8.209,6.146V137.682z"/></svg>