<?xml version="1.0" encoding="utf-8"?>

<!DOCTYPE svg PUBLIC "-//W3C//DTD SVG 1.1//EN" "http://www.w3.org/Graphics/SVG/1.1/DTD/svg11.dtd">
<svg version="1.1" id="Слой_1" xmlns="http://www.w3.org/2000/svg" xmlns:xlink="http://www.w3.org/1999/xlink" x="0px" y="0px"
	 width="500px" height="500px" viewBox="0 0 500 500" enable-background="new 0 0 500 500" xml:space="preserve">
<rect x="-0.579" y="0.234" fill="#A4D8E4" width="500.592" height="500.209"/>
<g>
	<g>
		<path fill="#FFFFFF" d="M39.887,488.443c-0.002,0.002-0.005,0.007-0.006,0.01C39.883,488.451,39.885,488.447,39.887,488.443z"/>
		<path fill="#FFFFFF" d="M72.995,483.627c-32.092-30.91-60.27-4.802-45.512,6.729c0,0,7.997,4.294,12.449-1.981
			c8.645-13.205,25.196-3.555,37.814,12.068h7.934C82.61,494.68,78.498,488.928,72.995,483.627z"/>
		<path fill="#FFFFFF" d="M39.881,488.453C39.853,488.497,39.832,488.529,39.881,488.453L39.881,488.453z"/>
		<path fill="#FFFFFF" d="M39.932,488.375c0,0-0.023,0.035-0.045,0.068C39.899,488.426,39.913,488.405,39.932,488.375z"/>
		<path fill="#FFFFFF" d="M87.823,487.577C87.558,487.595,87.765,487.581,87.823,487.577L87.823,487.577z"/>
		<path fill="#FFFFFF" d="M78.78,478.814c0,0,1.361,8.969,9.056,8.762c8.533-0.55,13.09,4.779,14.695,12.867h9.442
			C110.65,465.958,79.121,461.73,78.78,478.814z"/>
		<path fill="#FFFFFF" d="M10.403,457.967C10.38,457.979,10.374,457.983,10.403,457.967L10.403,457.967z"/>
		<path fill="#FFFFFF" d="M10.51,457.907c0,0-0.007,0.005-0.017,0.01C10.5,457.913,10.503,457.912,10.51,457.907z"/>
		<path fill="#FFFFFF" d="M10.51,457.907c-6.585,3.984-2.878,12.265-2.878,12.265c10.44,15.542,38.54-10.65,10.01-44.871
			c-5.59-6.704-11.899-11.642-18.234-15.282v7.697C15.172,431.658,24.871,449.941,10.51,457.907z"/>
		<path fill="#FFFFFF" d="M10.493,457.917c-0.046,0.026-0.074,0.04-0.09,0.05C10.429,457.952,10.47,457.93,10.493,457.917z"/>
		<path fill="#FFFFFF" d="M14.771,410.254c-0.004,0.031-0.008,0.056-0.01,0.073C14.764,410.303,14.768,410.275,14.771,410.254z"/>
		<path fill="#FFFFFF" d="M14.76,410.327C14.755,410.369,14.752,410.392,14.76,410.327L14.76,410.327z"/>
		<path fill="#FFFFFF" d="M14.775,410.223c0,0-0.002,0.013-0.004,0.03C14.772,410.243,14.773,410.237,14.775,410.223z"/>
		<path fill="#FFFFFF" d="M14.775,410.223c-0.763,7.653,8.09,9.66,8.09,9.66c17.76,0.933,14.956-33.421-23.457-34.967v8.961
			C9.4,395.495,16.108,400.549,14.775,410.223z"/>
		<ellipse fill="#FFFFFF" cx="44.988" cy="453.553" rx="7.409" ry="7.404"/>
		<path fill="#FFFFFF" d="M-0.592,476.677v23.766h23.784C23.192,487.319,12.543,476.677-0.592,476.677z"/>
		<path fill="#FFFFFF" d="M53.853,492.495c-7.055,0-13.389,3.073-17.745,7.948h35.49C67.243,495.568,60.908,492.495,53.853,492.495z
			"/>
		<path fill="#FFFFFF" d="M7.879,442.794c0-7.294-3.293-13.818-8.47-18.178v36.357C4.586,456.614,7.879,450.09,7.879,442.794z"/>
		<path fill="#FFFFFF" d="M56.664,465.892c0,0,13.696,3.888,15.343,7.927c0,0,0.374-8.824,9.243-10.059
			C81.25,463.76,66.767,452.431,56.664,465.892z"/>
		<path fill="#FFFFFF" d="M35.459,416.006c-0.826,8.909-9.631,9.689-9.631,9.689c4.113,1.458,8.632,14.95,8.632,14.95
			C47.452,429.94,35.459,416.006,35.459,416.006z"/>
		<path fill="#FFFFFF" d="M459.476,488.375c4.452,6.275,12.449,1.981,12.449,1.981c14.759-11.531-13.419-37.639-45.512-6.729
			c-5.503,5.301-9.616,11.053-12.685,16.816h7.934C434.28,484.82,450.832,475.17,459.476,488.375z"/>
		<path fill="#FFFFFF" d="M459.476,488.375c0.018,0.028,0.029,0.045,0.042,0.062C459.497,488.407,459.476,488.375,459.476,488.375z"
			/>
		<path fill="#FFFFFF" d="M459.518,488.437C459.552,488.49,459.584,488.539,459.518,488.437L459.518,488.437z"/>
		<path fill="#FFFFFF" d="M411.573,487.576c7.695,0.206,9.056-8.762,9.056-8.762c-0.341-17.084-31.87-12.856-33.194,21.629h9.442
			C398.482,492.355,403.04,487.027,411.573,487.576z"/>
		<path fill="#FFFFFF" d="M411.586,487.577C411.644,487.581,411.851,487.595,411.586,487.577L411.586,487.577z"/>
		<path fill="#FFFFFF" d="M488.996,457.961C489.028,457.979,489.041,457.986,488.996,457.961L488.996,457.961z"/>
		<path fill="#FFFFFF" d="M481.767,425.3c-28.531,34.221-0.431,60.413,10.009,44.871c0,0,3.707-8.281-2.878-12.265
			c-14.36-7.966-4.661-26.249,11.102-40.191v-7.697C493.664,413.659,487.357,418.596,481.767,425.3z"/>
		<path fill="#FFFFFF" d="M488.898,457.907c0.049,0.027,0.077,0.043,0.098,0.054C488.957,457.94,488.898,457.907,488.898,457.907z"
			/>
		<path fill="#FFFFFF" d="M484.634,410.223c0.005,0.033,0.007,0.056,0.011,0.077C484.64,410.262,484.634,410.223,484.634,410.223z"
			/>
		<path fill="#FFFFFF" d="M484.645,410.3C484.654,410.361,484.661,410.415,484.645,410.3L484.645,410.3z"/>
		<path fill="#FFFFFF" d="M476.543,419.883c0,0,8.853-2.006,8.091-9.66c-1.333-9.674,5.375-14.728,15.366-16.346v-8.961
			C461.588,386.462,458.784,420.816,476.543,419.883z"/>
		<ellipse fill="#FFFFFF" cx="454.421" cy="453.553" rx="7.41" ry="7.404"/>
		<path fill="#FFFFFF" d="M500,476.677c-13.134,0-23.784,10.642-23.784,23.766H500V476.677z"/>
		<path fill="#FFFFFF" d="M445.556,492.495c-7.055,0-13.39,3.073-17.746,7.948h35.49
			C458.944,495.568,452.61,492.495,445.556,492.495z"/>
		<path fill="#FFFFFF" d="M491.529,442.794c0,7.296,3.294,13.819,8.471,18.179v-36.357
			C494.823,428.976,491.529,435.5,491.529,442.794z"/>
		<path fill="#FFFFFF" d="M418.159,463.76c8.869,1.235,9.243,10.059,9.243,10.059c1.646-4.039,15.343-7.927,15.343-7.927
			C432.641,452.431,418.159,463.76,418.159,463.76z"/>
		<path fill="#FFFFFF" d="M473.581,425.695c0,0-8.806-0.78-9.63-9.689c0,0-11.993,13.934,0.998,24.639
			C464.949,440.645,469.467,427.153,473.581,425.695z"/>
		<path fill="#FFFFFF" d="M39.903,12.237C39.869,12.186,39.839,12.14,39.903,12.237L39.903,12.237z"/>
		<path fill="#FFFFFF" d="M39.934,12.285c-0.012-0.018-0.023-0.034-0.031-0.047C39.915,12.255,39.926,12.272,39.934,12.285z"/>
		<path fill="#FFFFFF" d="M39.945,12.302c0,0-0.005-0.007-0.011-0.017C39.938,12.292,39.94,12.294,39.945,12.302z"/>
		<g>
			<path fill="#FFFFFF" d="M39.945,12.302c-4.452-6.275-12.449-1.98-12.449-1.98C12.738,21.852,40.915,47.961,73.008,17.05
				c5.503-5.301,9.616-11.053,12.685-16.816h-7.934C65.141,15.857,48.59,25.508,39.945,12.302z"/>
		</g>
		<path fill="#FFFFFF" d="M87.835,13.1C87.778,13.096,87.57,13.083,87.835,13.1L87.835,13.1z"/>
		<g>
			<path fill="#FFFFFF" d="M87.849,13.1c-7.695-0.206-9.056,8.762-9.056,8.762c0.34,17.085,31.869,12.857,33.193-21.629h-9.442
				C100.939,8.322,96.382,13.65,87.849,13.1z"/>
		</g>
		<path fill="#FFFFFF" d="M10.523,42.77C10.523,42.77,10.231,42.609,10.523,42.77L10.523,42.77z"/>
		<path fill="#FFFFFF" d="M17.655,75.377c28.531-34.221,0.43-60.414-10.01-44.87c0,0-3.707,8.28,2.878,12.264
			c14.36,7.967,4.662,26.248-11.102,40.191v7.698C5.756,87.019,12.065,82.081,17.655,75.377z"/>
		<path fill="#FFFFFF" d="M22.878,80.793c0,0-8.854,2.006-8.09,9.66c1.334,9.675-5.374,14.727-15.366,16.347v8.961
			C37.834,114.215,40.638,79.86,22.878,80.793z"/>
		<ellipse fill="#FFFFFF" cx="45.001" cy="47.125" rx="7.409" ry="7.404"/>
		<g>
			<path fill="#FFFFFF" d="M23.205,0.234L23.205,0.234L-0.579,0.234V24C12.556,24,23.205,13.359,23.205,0.234z"/>
		</g>
		<g>
			<path fill="#FFFFFF" d="M53.866,8.181c7.055,0,13.39-3.072,17.745-7.948h-35.49C40.477,5.109,46.811,8.181,53.866,8.181z"/>
		</g>
		<path fill="#FFFFFF" d="M7.892,57.882c0-7.294-3.293-13.819-8.47-18.178v36.357C4.599,71.701,7.892,65.177,7.892,57.882z"/>
		<path fill="#FFFFFF" d="M72.019,26.857c-1.647,4.039-15.343,7.928-15.343,7.928c10.104,13.461,24.586,2.131,24.586,2.131
			C72.394,35.682,72.019,26.857,72.019,26.857z"/>
		<path fill="#FFFFFF" d="M34.472,60.032c0,0-4.519,13.493-8.632,14.95c0,0,8.805,0.78,9.631,9.689
			C35.472,84.671,47.464,70.738,34.472,60.032z"/>
		<path fill="#FFFFFF" d="M459.49,12.302c0,0,0.02-0.029,0.039-0.059C459.518,12.259,459.507,12.276,459.49,12.302z"/>
		<g>
			<path fill="#FFFFFF" d="M426.427,17.05c32.092,30.911,60.27,4.802,45.512-6.728c0,0-7.997-4.295-12.449,1.98
				c-8.644,13.206-25.197,3.555-37.815-12.068h-7.933C416.811,5.996,420.923,11.748,426.427,17.05z"/>
		</g>
		<path fill="#FFFFFF" d="M459.529,12.242C459.597,12.136,459.564,12.188,459.529,12.242L459.529,12.242z"/>
		<path fill="#FFFFFF" d="M411.598,13.1C411.864,13.083,411.657,13.096,411.598,13.1L411.598,13.1z"/>
		<g>
			<path fill="#FFFFFF" d="M420.641,21.863c0,0-1.36-8.969-9.056-8.762c-8.533,0.55-13.089-4.779-14.695-12.867h-9.442
				C388.772,34.719,420.301,38.947,420.641,21.863z"/>
		</g>
		<path fill="#FFFFFF" d="M488.912,42.77c6.585-3.984,2.878-12.264,2.878-12.264c-10.441-15.544-38.54,10.649-10.011,44.87
			c5.59,6.704,11.899,11.642,18.234,15.282v-7.697C484.249,69.019,474.551,50.737,488.912,42.77z"/>
		<path fill="#FFFFFF" d="M488.912,42.77c0.011-0.006,0.016-0.009,0.024-0.014C488.923,42.764,488.912,42.77,488.912,42.77z"/>
		<path fill="#FFFFFF" d="M488.985,42.729C489.077,42.679,489.036,42.701,488.985,42.729L488.985,42.729z"/>
		<path fill="#FFFFFF" d="M488.936,42.756c0.015-0.007,0.032-0.017,0.049-0.027C488.973,42.737,488.954,42.747,488.936,42.756z"/>
		<path fill="#FFFFFF" d="M484.657,90.378C484.673,90.262,484.666,90.316,484.657,90.378L484.657,90.378z"/>
		<path fill="#FFFFFF" d="M484.647,90.454c0.763-7.654-8.091-9.66-8.091-9.66c-17.76-0.933-14.957,33.422,23.457,34.968V106.8
			C490.021,105.181,483.314,100.128,484.647,90.454z"/>
		<path fill="#FFFFFF" d="M484.647,90.454c0,0,0.005-0.038,0.01-0.076C484.655,90.398,484.651,90.42,484.647,90.454z"/>
		<ellipse fill="#FFFFFF" cx="454.434" cy="47.125" rx="7.409" ry="7.404"/>
		<path fill="#FFFFFF" d="M500.014,24V0.234h-23.784v0.001C476.229,13.359,486.878,24,500.014,24z"/>
		<g>
			<path fill="#FFFFFF" d="M445.569,8.181c7.054,0,13.389-3.072,17.744-7.948h-35.49C432.179,5.109,438.514,8.181,445.569,8.181z"/>
		</g>
		<path fill="#FFFFFF" d="M491.543,57.882c0,7.295,3.292,13.819,8.471,18.178V39.704C494.835,44.064,491.543,50.588,491.543,57.882z
			"/>
		<path fill="#FFFFFF" d="M427.415,26.857c0,0-0.374,8.825-9.243,10.059c0,0,14.482,11.33,24.586-2.131
			C442.758,34.785,429.062,30.896,427.415,26.857z"/>
		<path fill="#FFFFFF" d="M473.594,74.982c-4.114-1.458-8.632-14.95-8.632-14.95c-12.993,10.706-1,24.639-1,24.639
			C464.789,75.762,473.594,74.982,473.594,74.982z"/>
		<g>
			<circle fill="#FFFFFF" cx="5.552" cy="251.325" r="3.99"/>
			<circle fill="#FFFFFF" cx="491.529" cy="256.358" r="3.99"/>
			<circle fill="#FFFFFF" cx="247.919" cy="490.9" r="3.992"/>
			<g>
				<circle fill="#FFFFFF" cx="249.122" cy="8.226" r="3.993"/>
			</g>
			<g>
				<path fill="none" d="M489.223,373.072c-2.397,4.769-8.978,2.952-8.978,2.952c-10.572-4.799-0.395-20.261,19.755-15.752v-15.72
					c-4.194-0.188-7.627,1.36-9.451,5.387c-2.263,4.504-8.479,2.788-8.479,2.788c-9.857-4.475-0.617-18.763,17.93-15.033v-15.974
					c-3.596,0.038-6.521,1.545-8.126,5.086c-2.129,4.238-7.979,2.622-7.979,2.622c-9.139-4.148-0.835-17.264,16.105-14.294V298.94
					c-2.995,0.244-5.419,1.685-6.8,4.732c-1.996,3.973-7.481,2.458-7.481,2.458c-8.419-3.822-1.046-15.76,14.281-13.53v-16.364
					c-2.392,0.421-4.323,1.761-5.474,4.302c-1.863,3.709-6.982,2.295-6.982,2.295c-7.696-3.494-1.249-14.243,12.456-12.732v-28.232
					c-13.648,1.594-20.051-10.128-12.372-13.943c0,0,5.12-1.545,6.983,2.512c1.137,2.747,3.036,4.21,5.388,4.688v-17.87
					c-15.27,2.376-22.599-10.645-14.196-14.819c0,0,5.485-1.656,7.482,2.692c1.366,3.302,3.758,4.876,6.714,5.166v-17.691
					c-16.882,3.184-25.143-11.124-16.021-15.656c0,0,5.85-1.766,7.981,2.871c1.591,3.843,4.484,5.494,8.04,5.561v-17.455
					c-18.49,4.014-27.687-11.578-17.846-16.466c0,0,6.217-1.877,8.479,3.05c1.811,4.376,5.211,6.076,9.367,5.897v-17.179
					c-20.093,4.863-30.226-12.013-19.67-17.257c0,0,6.582-1.987,8.978,3.229c2.03,4.904,5.942,6.636,10.693,6.193V0.234H372.683
					c-0.753,5.126,0.926,9.378,6.226,11.525c5.327,2.394,3.297,8.971,3.297,8.971c-5.428,10.694-23.07,0.139-17.405-20.496h-17.699
					c-0.466,4.533,1.194,8.269,5.96,10.2c5.032,2.26,3.114,8.473,3.114,8.473c-5.067,9.981-21.395,0.363-16.616-18.672h-18.01
					c-0.194,3.938,1.435,7.161,5.665,8.875c4.736,2.128,2.932,7.975,2.932,7.975c-4.704,9.266-19.723,0.584-15.812-16.849h-18.292
					c0.06,3.34,1.64,6.057,5.326,7.55c4.439,1.995,2.747,7.476,2.747,7.476c-4.34,8.549-18.046,0.801-14.985-15.026h-18.529
					c0.286,2.739,1.787,4.956,4.919,6.225c4.143,1.862,2.565,6.978,2.565,6.978c-3.976,7.829-16.362,1.011-14.127-13.203h-28.498
					c2.299,14.272-10.132,21.133-14.115,13.287c0,0-1.579-5.116,2.565-6.977c3.165-1.282,4.667-3.531,4.93-6.31h-18.556
					c3.128,15.884-10.621,23.675-14.969,15.11c0,0-1.691-5.481,2.748-7.475c3.717-1.506,5.295-4.255,5.329-7.635h-18.314
					c3.979,17.49-11.081,26.215-15.793,16.933c0,0-1.804-5.846,2.931-7.974c4.26-1.726,5.884-4.983,5.662-8.959h-18.029
					c4.849,19.091-11.52,28.753-16.595,18.757c0,0-1.917-6.211,3.114-8.473c4.797-1.942,6.446-5.713,5.951-10.284h-17.715
					c5.737,20.69-11.944,31.289-17.38,20.58c0,0-2.03-6.576,3.297-8.971c5.329-2.158,6.995-6.446,6.211-11.609H-0.579V131.07
					c4.279,0.106,7.773-1.699,9.652-6.203c2.396-5.173,8.978-3.202,8.978-3.202c10.372,5.11,0.77,21.359-18.63,17.348v16.809
					c3.679-0.133,6.668-1.881,8.326-5.853c2.263-4.885,8.479-3.024,8.479-3.024c9.654,4.756,0.986,19.73-16.805,16.536v17.037
					c3.078-0.347,5.567-2.014,7-5.446c2.13-4.599,7.98-2.847,7.98-2.847c8.934,4.402,1.197,18.099-14.98,15.701v17.209
					c2.475-0.529,4.472-2.08,5.674-4.961c1.996-4.312,7.481-2.67,7.481-2.67c8.21,4.045,1.402,16.464-13.156,14.835v17.305
					c1.872-0.661,3.384-2.058,4.348-4.368c1.863-4.024,6.983-2.491,6.983-2.491c7.481,3.686,1.596,14.813-11.331,13.923v28.046
					c12.986-0.924,18.914,10.003,11.416,13.618c0,0-5.12,1.501-6.983-2.436c-0.979-2.295-2.523-3.666-4.433-4.301v16.968
					c14.616-1.651,21.466,10.54,13.241,14.506c0,0-5.485,1.607-7.481-2.611c-1.216-2.85-3.245-4.371-5.759-4.871v16.869
					c16.235-2.407,24.015,11.035,15.065,15.349c0,0-5.851,1.715-7.98-2.786c-1.446-3.389-3.968-5.019-7.085-5.338v16.695
					c17.848-3.187,26.56,11.503,16.89,16.164c0,0-6.216,1.822-8.479-2.959c-1.67-3.916-4.692-5.624-8.411-5.73v16.469
					c19.457-3.988,29.102,11.948,18.715,16.955c0,0-6.582,1.93-8.978-3.134c-1.892-4.434-5.42-6.194-9.737-6.065v132.326H125.23
					c1.379-5.848-0.053-10.787-5.906-13.159c-5.327-2.394-3.297-8.971-3.297-8.971c5.571-10.973,23.998,0.426,16.912,22.13h17.947
					c1.069-5.263-0.385-9.674-5.715-11.834c-5.031-2.26-3.114-8.473-3.114-8.473c5.21-10.263,22.33,0.195,16.162,20.306h18.288
					c0.766-4.674-0.687-8.564-5.488-10.509c-4.735-2.129-2.931-7.975-2.931-7.975c4.849-9.551,20.656-0.032,15.395,18.483h18.622
					c0.476-4.083-0.969-7.454-5.239-9.184c-4.439-1.995-2.748-7.476-2.748-7.476c4.487-8.838,18.985-0.258,14.615,16.66h18.934
					c0.201-3.488-1.219-6.347-4.954-7.859c-4.143-1.862-2.565-6.978-2.565-6.978c4.124-8.124,17.308-0.479,13.812,14.837h29.097
					c-3.427-15.258,9.714-22.86,13.83-14.751c0,0,1.579,5.116-2.565,6.977c-3.703,1.501-5.129,4.324-4.956,7.774h18.915
					c-4.3-16.861,10.156-25.399,14.636-16.574c0,0,1.691,5.481-2.749,7.475c-4.241,1.718-5.694,5.056-5.248,9.099h18.606
					c-5.188-18.46,10.579-27.935,15.42-18.398c0,0,1.804,5.846-2.931,7.973c-4.774,1.934-6.238,5.789-5.503,10.424h18.275
					c-6.094-20.056,10.987-30.471,16.19-20.221c0,0,1.916,6.211-3.114,8.473c-5.302,2.147-6.768,6.523-5.732,11.748h17.936
					c-7.01-21.648,11.376-33.003,16.94-22.044c0,0,2.029,6.576-3.298,8.971c-5.825,2.359-7.271,7.263-5.926,13.073H500V367.421
					C495.211,366.989,491.264,368.564,489.223,373.072z"/>
				<path fill="#FFFFFF" d="M116.026,478.313c0,0-2.03,6.578,3.297,8.971c5.854,2.372,7.285,7.31,5.906,13.159h7.708
					C140.024,478.74,121.597,467.341,116.026,478.313z"/>
				<path fill="#FFFFFF" d="M142.056,480.137c0,0-1.917,6.212,3.114,8.473c5.33,2.159,6.784,6.57,5.715,11.834h7.332
					C164.386,480.332,147.266,469.874,142.056,480.137z"/>
				<path fill="#FFFFFF" d="M168.086,481.96c0,0-1.804,5.846,2.931,7.975c4.802,1.944,6.255,5.835,5.488,10.509h6.976
					C188.741,481.928,172.935,472.409,168.086,481.96z"/>
				<path fill="#FFFFFF" d="M194.116,483.783c0,0-1.691,5.481,2.748,7.476c4.271,1.729,5.715,5.101,5.239,9.184h6.628
					C213.1,483.526,198.603,474.945,194.116,483.783z"/>
				<path fill="#FFFFFF" d="M220.146,485.606c0,0-1.579,5.116,2.565,6.978c3.735,1.512,5.154,4.371,4.954,7.859h6.294
					C237.454,485.128,224.27,477.483,220.146,485.606z"/>
				<path fill="#FFFFFF" d="M377.708,487.37c5.327-2.395,3.298-8.971,3.298-8.971c-5.564-10.959-23.95,0.396-16.94,22.044h7.715
					C370.437,494.632,371.883,489.729,377.708,487.37z"/>
				<path fill="#FFFFFF" d="M351.862,488.695c5.03-2.262,3.114-8.473,3.114-8.473c-5.203-10.25-22.283,0.165-16.19,20.221h7.344
					C345.093,495.217,346.56,490.842,351.862,488.695z"/>
				<path fill="#FFFFFF" d="M326.014,490.019c4.735-2.127,2.931-7.973,2.931-7.973c-4.841-9.538-20.608-0.062-15.42,18.398h6.986
					C319.777,495.807,321.241,491.953,326.014,490.019z"/>
				<path fill="#FFFFFF" d="M300.167,491.344c4.44-1.994,2.749-7.475,2.749-7.475c-4.48-8.825-18.936-0.287-14.636,16.574h6.64
					C294.473,496.4,295.926,493.062,300.167,491.344z"/>
				<path fill="#FFFFFF" d="M274.32,492.669c4.144-1.861,2.565-6.977,2.565-6.977c-4.116-8.109-17.257-0.507-13.83,14.751h6.309
					C269.191,496.993,270.617,494.17,274.32,492.669z"/>
				<path fill="#FFFFFF" d="M120.525,11.842c-5.327,2.395-3.297,8.971-3.297,8.971c5.436,10.709,23.118,0.11,17.38-20.58h-7.872
					C127.52,5.397,125.855,9.685,120.525,11.842z"/>
				<path fill="#FFFFFF" d="M146.372,10.517c-5.031,2.262-3.114,8.473-3.114,8.473c5.075,9.996,21.444,0.335,16.595-18.757h-7.53
					C152.819,4.805,151.169,8.576,146.372,10.517z"/>
				<path fill="#FFFFFF" d="M172.219,9.193c-4.735,2.128-2.931,7.974-2.931,7.974c4.712,9.281,19.772,0.557,15.793-16.933h-7.2
					C178.103,4.21,176.479,7.467,172.219,9.193z"/>
				<path fill="#FFFFFF" d="M198.066,7.869c-4.439,1.994-2.748,7.475-2.748,7.475c4.348,8.565,18.097,0.774,14.969-15.11h-6.893
					C203.361,3.613,201.783,6.363,198.066,7.869z"/>
				<path fill="#FFFFFF" d="M223.912,6.544c-4.143,1.861-2.565,6.977-2.565,6.977c3.983,7.846,16.414,0.986,14.115-13.287h-6.62
					C228.579,3.013,227.077,5.261,223.912,6.544z"/>
				<path fill="#FFFFFF" d="M382.207,20.729c0,0,2.03-6.577-3.297-8.971c-5.3-2.147-6.979-6.399-6.226-11.525h-7.882
					C359.137,20.868,376.779,31.423,382.207,20.729z"/>
				<path fill="#FFFFFF" d="M356.177,18.906c0,0,1.918-6.212-3.114-8.473c-4.766-1.931-6.426-5.666-5.96-10.2h-7.542
					C334.782,19.269,351.11,28.887,356.177,18.906z"/>
				<path fill="#FFFFFF" d="M330.148,17.083c0,0,1.804-5.847-2.932-7.975c-4.23-1.713-5.859-4.936-5.665-8.875h-7.216
					C310.425,17.666,325.444,26.349,330.148,17.083z"/>
				<path fill="#FFFFFF" d="M304.117,15.259c0,0,1.691-5.481-2.747-7.476c-3.686-1.493-5.266-4.21-5.326-7.55h-6.911
					C286.071,16.061,299.777,23.809,304.117,15.259z"/>
				<path fill="#FFFFFF" d="M278.088,13.436c0,0,1.578-5.116-2.565-6.978c-3.132-1.269-4.633-3.485-4.919-6.225h-6.642
					C261.726,14.447,274.112,21.265,278.088,13.436z"/>
				<path fill="#FFFFFF" d="M9.158,374.182c2.396,5.063,8.978,3.134,8.978,3.134c10.388-5.007,0.742-20.944-18.715-16.955v7.757
					C3.738,367.988,7.266,369.747,9.158,374.182z"/>
				<path fill="#FFFFFF" d="M7.832,349.621c2.263,4.781,8.479,2.959,8.479,2.959c9.67-4.661,0.958-19.351-16.89-16.164v7.475
					C3.14,343.997,6.162,345.704,7.832,349.621z"/>
				<path fill="#FFFFFF" d="M6.506,325.058c2.13,4.5,7.98,2.786,7.98,2.786c8.949-4.315,1.17-17.756-15.065-15.349v7.226
					C2.538,320.039,5.06,321.669,6.506,325.058z"/>
				<path fill="#FFFFFF" d="M5.181,300.497c1.996,4.218,7.481,2.611,7.481,2.611c8.226-3.965,1.375-16.157-13.241-14.506v7.023
					C1.935,296.127,3.965,297.647,5.181,300.497z"/>
				<path fill="#FFFFFF" d="M3.855,275.936c1.863,3.937,6.983,2.436,6.983,2.436c7.498-3.615,1.57-14.542-11.416-13.618v6.88
					C1.332,272.27,2.876,273.641,3.855,275.936z"/>
				<path fill="#FFFFFF" d="M18.051,121.665c0,0-6.582-1.971-8.978,3.202c-1.879,4.504-5.373,6.309-9.652,6.203v7.943
					C18.821,143.024,28.423,126.775,18.051,121.665z"/>
				<path fill="#FFFFFF" d="M16.226,146.945c0,0-6.216-1.861-8.479,3.024c-1.658,3.972-4.647,5.72-8.326,5.853v7.659
					C17.212,166.675,25.881,151.701,16.226,146.945z"/>
				<path fill="#FFFFFF" d="M14.402,172.225c0,0-5.851-1.752-7.98,2.847c-1.433,3.432-3.922,5.099-7,5.446v7.408
					C15.598,190.324,23.335,176.627,14.402,172.225z"/>
				<path fill="#FFFFFF" d="M12.577,197.505c0,0-5.485-1.643-7.481,2.67c-1.203,2.88-3.2,4.432-5.674,4.961v7.205
					C13.979,213.969,20.787,201.55,12.577,197.505z"/>
				<path fill="#FFFFFF" d="M10.752,222.785c0,0-5.12-1.533-6.983,2.491c-0.965,2.311-2.477,3.707-4.348,4.368v7.064
					C12.348,237.598,18.233,226.471,10.752,222.785z"/>
				<path fill="#FFFFFF" d="M480.245,376.023c0,0,6.581,1.817,8.978-2.952c2.041-4.508,5.987-6.083,10.777-5.651v-7.15
					C479.851,355.762,469.674,371.224,480.245,376.023z"/>
				<path fill="#FFFFFF" d="M482.07,352.726c0,0,6.216,1.716,8.479-2.788c1.823-4.026,5.256-5.575,9.451-5.387v-6.858
					C481.453,333.963,472.213,348.252,482.07,352.726z"/>
				<path fill="#FFFFFF" d="M483.895,329.428c0,0,5.85,1.616,7.979-2.622c1.605-3.542,4.53-5.048,8.126-5.086v-6.586
					C483.06,312.163,474.755,325.279,483.895,329.428z"/>
				<path fill="#FFFFFF" d="M485.719,306.131c0,0,5.485,1.514,7.481-2.458c1.381-3.047,3.805-4.488,6.8-4.732v-6.339
					C484.673,290.371,477.3,302.308,485.719,306.131z"/>
				<path fill="#FFFFFF" d="M487.544,282.834c0,0,5.12,1.414,6.982-2.295c1.151-2.541,3.082-3.881,5.474-4.302v-6.135
					C486.295,268.591,479.848,279.34,487.544,282.834z"/>
				<path fill="#FFFFFF" d="M489.308,129.199c-2.395-5.216-8.978-3.229-8.978-3.229c-10.556,5.244-0.423,22.12,19.67,17.257v-7.835
					C495.25,135.835,491.338,134.103,489.308,129.199z"/>
				<path fill="#FFFFFF" d="M490.634,154.509c-2.262-4.927-8.479-3.05-8.479-3.05c-9.841,4.888-0.644,20.48,17.846,16.466v-7.519
					C495.845,160.585,492.445,158.885,490.634,154.509z"/>
				<path fill="#FFFFFF" d="M491.96,179.819c-2.13-4.637-7.981-2.871-7.981-2.871c-9.122,4.532-0.86,18.84,16.021,15.656v-7.224
					C496.444,185.314,493.551,183.662,491.96,179.819z"/>
				<path fill="#FFFFFF" d="M493.286,205.129c-1.997-4.348-7.482-2.692-7.482-2.692c-8.402,4.175-1.073,17.196,14.196,14.819v-6.962
					C497.044,210.005,494.652,208.43,493.286,205.129z"/>
				<path fill="#FFFFFF" d="M494.612,230.439c-1.864-4.057-6.983-2.512-6.983-2.512c-7.679,3.815-1.276,15.536,12.372,13.943v-6.742
					C497.647,234.649,495.748,233.186,494.612,230.439z"/>
			</g>
		</g>
	</g>
	<g>
		<g>
			<g>
				<g>
					<path fill="#FFFFFF" d="M269.94,357.198c0,11.129-27.227,20.155-60.811,20.155c-33.584,0-60.809-9.026-60.809-20.155
						c0-11.136,27.226-20.16,60.809-20.16C242.713,337.038,269.94,346.062,269.94,357.198z"/>
					<g>
						<path fill="#FFFFFF" d="M104.796,299.397c-2.647-0.276-5.225-0.637-7.728-1.082c-16.707-2.958-28.59-9.148-39.471-19.852
							c-17.308-17.02-15.6-70.367,32.15-66.29c5.882,0.506,10.043,1.494,13.203,2.651c-2.021,4.201-3.686,8.71-4.956,13.549
							c-17.352-0.507-27.601,6.902-30.117,16.431c-7.259,27.499,18.322,37.121,31.637,40.091
							C100.954,289.88,102.725,294.72,104.796,299.397z"/>
						<path fill="#FFFFFF" d="M392.743,193.984c-13.323,3.57-15.781,11.967-20.544,32.313c-2.622,11.199-5.881,25.129-12.79,40.173
							c-11.394,24.829-30.26,31.706-44.077,33.101c-0.044,0.006-0.082,0.006-0.126,0.012c6.345-14.255,9.869-30.037,9.869-46.65
							c0-4.27-0.232-8.36-0.689-12.268c13.629-3.495,22.095-13.987,24.298-23.403c4.881-20.865,13.01-36.209,38.74-43.1
							L392.743,193.984z"/>
						<path fill="#E4F3FB" d="M390.796,186.49c-12.831,3.656-15.306,12.176-19.96,32.073c-2.631,11.246-5.901,25.246-12.936,40.334
							c-9.973,21.396-25.748,29.409-39.056,32.074c-0.852,3.766-2.433,6.825-3.339,8.365c13.799-1.439,32.554-8.365,43.901-33.08
							c6.914-15.054,10.174-28.981,12.789-40.184c4.768-20.339,7.231-28.734,20.551-32.311L390.796,186.49z"/>
						<g>
							<path fill="#B8CFD3" d="M394.351,182.926c1.317,5.294,0.532,10.044-1.754,10.612c-2.287,0.566-5.208-3.266-6.524-8.558
								c-1.314-5.295-0.528-10.048,1.759-10.614C390.118,173.799,393.039,177.633,394.351,182.926z"/>
							<path fill="#FFFFFF" d="M392.138,193.907c-2.376,0-5.113-3.805-6.367-8.851c-1.376-5.547-0.504-10.376,1.987-10.993
								c0.172-0.043,0.352-0.065,0.534-0.065c2.376,0,5.112,3.806,6.363,8.854c1.38,5.543,0.51,10.371-1.981,10.99
								C392.5,193.885,392.319,193.907,392.138,193.907z M388.292,174.623c-0.131,0-0.26,0.016-0.384,0.046
								c-2.079,0.515-2.779,5.202-1.53,10.235c1.167,4.697,3.697,8.377,5.76,8.377c0.131,0,0.26-0.015,0.384-0.046
								c2.079-0.517,2.778-5.203,1.525-10.233C392.884,178.304,390.355,174.623,388.292,174.623z"/>
						</g>
						<path fill="#FFFFFF" d="M325.076,252.933c0,16.613-3.523,32.395-9.869,46.65c-17.902,40.237-58.256,68.292-105.168,68.292
							c-46.98,0-87.385-28.143-105.243-68.478c-2.071-4.677-3.842-9.517-5.281-14.501c-2.935-10.147-4.505-20.871-4.505-31.963
							c0-8.978,1.032-17.151,2.984-24.56c1.27-4.84,2.935-9.348,4.956-13.549h0.006c16.795-34.858,58.406-48.345,107.083-48.345
							c59.258,0,108.053,19.983,114.347,74.187C324.844,244.574,325.076,248.663,325.076,252.933z"/>
						<path fill="#E4F3FB" d="M225.611,344.854c-37.43,0-70.676-17.861-91.682-45.517c-0.412-0.477-0.615-0.697-1.244-1.672
							c-13.898-19-22.107-42.415-22.107-67.758c0-13.229,2.233-24.695,6.354-34.57c-13.789,13.54-21.924,32.364-21.924,57.593
							c0,15.252,2.98,29.809,8.377,43.125c-16.568-2.976-28.39-9.153-39.216-19.803c-14.055-13.831-15.57-51.616,9.943-63.137
							c-32.249,7.606-31.69,50.429-16.518,65.35c10.882,10.706,22.775,16.896,39.479,19.855c2.502,0.441,5.078,0.802,7.728,1.077
							c17.863,40.339,58.26,68.481,105.243,68.481c44.689,0,83.431-25.466,102.477-62.667
							C291.43,329.5,260.317,344.854,225.611,344.854z"/>
					</g>
				</g>
				<g>
					<g>
						<path fill="#D0DFE3" d="M284.793,174.66c0,11.42-34.388,20.678-76.804,20.678c-42.417,0-76.803-9.258-76.803-20.678
							c0-11.421,35.528-34.941,77.947-34.941C251.548,139.719,284.793,163.239,284.793,174.66z"/>
						<path fill="#FFFFFF" d="M284.793,172.591c0,11.42-34.388,20.678-76.804,20.678c-42.417,0-76.803-9.258-76.803-20.678
							c0-11.421,35.528-34.941,77.947-34.941C251.548,137.65,284.793,161.17,284.793,172.591z"/>
					</g>
					<path fill="#E4F3FB" d="M215.072,193.181c-2.332,0.06-4.697,0.087-7.091,0.087c-42.412,0-76.795-9.261-76.795-20.675
						c0-11.42,35.527-34.943,77.939-34.943c2.393,0,4.75,0.073,7.082,0.225c-39.206,2.391-70.842,23.943-70.842,34.718
						C145.366,183.363,175.983,192.218,215.072,193.181z"/>
				</g>
				<g>
					<ellipse fill="#FFFFFF" cx="209.129" cy="128.918" rx="14.4" ry="14.39"/>
					<path fill="#E4F3FB" d="M210.901,143.193c-0.575,0.079-1.171,0.115-1.771,0.115c-7.959,0-14.402-6.446-14.402-14.39
						c0-7.952,6.443-14.389,14.402-14.389c0.6,0,1.196,0.035,1.771,0.115c-7.125,0.868-12.627,6.925-12.627,14.274
						C198.274,136.259,203.777,142.324,210.901,143.193z"/>
				</g>
			</g>
			<g>
				<path fill="#C0E4EE" d="M283.987,267.143c-1.646-2.612-3.781-5.184-6.556-7.495c-16.234-13.526-28.669-0.215-21.295,4.735
					c0,0,3.929,1.759,5.82-1.362c3.635-6.536,11.785-2.545,18.285,4.405c-5.432,7.812-12.924,12.931-17.461,6.983
					c-2.321-2.815-5.957-0.51-5.957-0.51c-6.585,5.956,7.634,17.344,21.755,1.628c2.414-2.684,4.155-5.536,5.41-8.357l0.015-0.001
					c-0.002-0.006-0.006-0.009-0.009-0.013c0.002-0.005,0.004-0.01,0.007-0.013L283.987,267.143z"/>
				<path fill="#A4D8E4" d="M288.096,257.68c0.802,1.906-2.487,7.797-2.487,7.797c7.906,1.131,8.962-7.52,8.962-7.52
					C291.182,260.515,288.096,257.68,288.096,257.68z"/>
				<path fill="#A4D8E4" d="M288.096,275.843c0.802-1.906-2.487-7.799-2.487-7.799c7.906-1.132,8.962,7.52,8.962,7.52
					C291.182,273.008,288.096,275.843,288.096,275.843z"/>
				<path fill="#A4D8E4" d="M137.661,258.095c-0.802,1.906,2.487,7.797,2.487,7.797c-7.905,1.132-8.961-7.519-8.961-7.519
					C134.575,260.93,137.661,258.095,137.661,258.095z"/>
				<circle fill="#C0E4EE" cx="267.244" cy="268.622" r="3.512"/>
				<path fill="#C0E4EE" d="M230.86,258.783c-0.019-0.005-0.034-0.009-0.045-0.01C230.835,258.778,230.86,258.783,230.86,258.783z"
					/>
				<path fill="#C0E4EE" d="M242.142,239.423c-2.955-0.899-6.253-1.449-9.864-1.384c-21.134,0.383-21.825,18.58-13.007,17.501
					c0,0,4.123-1.237,3.511-4.833c-1.53-7.32,7.247-9.63,16.713-8.621c1.005,9.46-1.31,18.229-8.635,16.697
					c-3.598-0.613-4.84,3.506-4.84,3.506c-1.082,8.81,17.128,8.128,17.521-12.989c0.068-3.609-0.481-6.904-1.38-9.858l0.011-0.011
					c-0.006-0.001-0.01-0.002-0.015-0.004c-0.001-0.005-0.003-0.01-0.005-0.016L242.142,239.423z"/>
				<path fill="#C0E4EE" d="M142.292,267.29c1.647-2.612,3.781-5.183,6.555-7.495c16.235-13.526,28.67-0.214,21.295,4.735
					c0,0-3.929,1.759-5.82-1.362c-3.635-6.536-11.785-2.546-18.285,4.405c5.433,7.812,12.925,12.931,17.462,6.983
					c2.32-2.815,5.956-0.51,5.956-0.51c6.585,5.956-7.634,17.344-21.756,1.629c-2.414-2.685-4.155-5.536-5.41-8.358l-0.016-0.001
					c0.003-0.005,0.006-0.009,0.01-0.013c-0.003-0.005-0.005-0.009-0.007-0.013L142.292,267.29z"/>
				<path fill="#C0E4EE" d="M247.195,243.005c0,0-0.029,0.024-0.045,0.037C247.159,243.035,247.171,243.024,247.195,243.005z"/>
				<path fill="#C0E4EE" d="M231.214,278.857C231.061,278.9,231.214,278.857,231.214,278.857L231.214,278.857z"/>
				<path fill="#C0E4EE" d="M244.544,287.403c-1.911-21.033-20.123-20.405-18.41-11.696c0,0,1.534,4.019,5.08,3.15
					c7.488-2.138,10.369,7.242,9.759,17.197l-0.039-0.038c-9.964,0.604-19.35-2.279-17.206-9.76
					c0.871-3.543-3.149-5.078-3.149-5.078c-8.716-1.716-9.353,16.482,11.696,18.401c4.124,0.377,7.896-0.082,11.241-0.983
					l0.039,0.039C244.459,295.292,244.919,291.525,244.544,287.403z"/>
				<path fill="#C0E4EE" d="M248.625,293.409C248.554,293.356,248.598,293.389,248.625,293.409L248.625,293.409z"/>
				<path fill="#A4D8E4" d="M248.114,287.472c0,0-2.297,3.638,0.527,5.95c3.693,2.798,3.138,6.739,0.331,10.629l-0.039-0.039
					c-3.894,2.805-7.839,3.356-10.637-0.335c-2.312-2.823-5.954-0.53-5.954-0.53c-6.27,5.635,6.196,16.219,19.598,3.87l0.039,0.039
					C264.342,293.669,253.756,281.209,248.114,287.472z"/>
				<circle fill="#C0E4EE" cx="244.238" cy="268.768" r="3.512"/>
				<path fill="#A4D8E4" d="M221.196,260.342L221.196,260.342c-4.405-4.382-11.532-4.377-15.93,0.016l0.039,0.039
					c-4.373,4.367-4.404,11.428-0.098,15.838l-0.002,0.002l0,0c0.016,0.016,0.033,0.032,0.05,0.048
					c0.016,0.016,0.031,0.033,0.047,0.049l0,0l0.002-0.002c4.41,4.306,11.478,4.277,15.85-0.09l0.039,0.039
					c4.399-4.394,4.407-11.514,0.023-15.917h0l0,0c-0.003-0.005-0.006-0.007-0.01-0.01
					C221.203,260.35,221.201,260.346,221.196,260.342L221.196,260.342z"/>
				<path fill="#C0E4EE" d="M235.401,284.807c-2.447-2.447-5.74-3.532-8.939-3.259l-0.039-0.039
					c-0.274,3.196,0.81,6.488,3.258,8.934c2.447,2.446,5.74,3.531,8.939,3.259l0.039,0.039
					C238.933,290.544,237.848,287.253,235.401,284.807z"/>
				<path fill="#C0E4EE" d="M246.5,252.92c0.802,1.906-2.486,7.799-2.486,7.799c7.906,1.131,8.962-7.52,8.962-7.52
					C249.586,255.754,246.5,252.92,246.5,252.92z"/>
				<path fill="#A4D8E4" d="M137.338,275.936c-0.802-1.906,2.487-7.799,2.487-7.799c-7.905-1.131-8.961,7.52-8.961,7.52
					C134.252,273.1,137.338,275.936,137.338,275.936z"/>
				<path fill="#C0E4EE" d="M245.037,276.625c0,0,3.01,6.038,2.12,7.905c0,0,3.215-2.688,6.48,0.023
					C253.638,284.553,252.986,275.863,245.037,276.625z"/>
				<path fill="#C0E4EE" d="M203.638,285.893c0,0-0.005-0.024-0.01-0.045C203.631,285.859,203.634,285.873,203.638,285.893z"/>
				<path fill="#C0E4EE" d="M187.84,302.207c0.02-0.024,0.031-0.035,0.038-0.044C187.865,302.179,187.84,302.207,187.84,302.207z"/>
				<path fill="#A4D8E4" d="M187.84,302.207c-2.662,3.024-5.953,2.783-9.186,0.645c-2.138-3.231-2.378-6.521,0.65-9.179
					c2.65-2.508,0.098-5.973,0.098-5.973c-5.828-5.598-14.944,6.295-3.967,18.271l-0.006,0.006c0.017,0.016,0.034,0.029,0.052,0.045
					c0.016,0.017,0.029,0.034,0.045,0.051l0.007-0.006c11.979,10.975,23.886,1.871,18.285-3.956
					C193.817,302.112,190.351,299.561,187.84,302.207z"/>
				<path fill="#C0E4EE" d="M223.728,286.257C223.728,286.257,223.771,286.104,223.728,286.257L223.728,286.257z"/>
				<path fill="#C0E4EE" d="M238.26,303.631c0.005,0.006,0.011,0.015,0.023,0.031C238.275,303.65,238.266,303.639,238.26,303.631z"
					/>
				<path fill="#C0E4EE" d="M238.26,303.631C238.253,303.621,238.254,303.624,238.26,303.631L238.26,303.631z"/>
				<path fill="#C0E4EE" d="M216.111,296.785c-1.372-1.373-3.597-1.373-4.97-0.002c-1.372,1.37-1.373,3.594-0.001,4.965
					c1.372,1.371,3.596,1.371,4.969,0.001C217.481,300.378,217.483,298.155,216.111,296.785z"/>
				<path fill="#C0E4EE" d="M200.781,280.656c-3.035-0.122-6.111,0.97-8.429,3.284c-2.318,2.314-3.413,5.388-3.291,8.422
					l-0.091,0.092c0.031,0.001,0.063,0,0.094,0.002c0.001,0.032,0.001,0.063,0.003,0.094l0.091-0.092
					c3.036,0.122,6.112-0.968,8.43-3.285c2.318-2.314,3.412-5.387,3.291-8.42l0.091-0.092c-0.031-0.001-0.063-0.001-0.094-0.002
					c-0.002-0.032-0.002-0.064-0.003-0.094L200.781,280.656z"/>
				<path fill="#C0E4EE" d="M197.764,301.518c0,0,2.835,3.085,0.275,6.47c0,0,8.658-1.051,7.531-8.95
					C205.57,299.038,199.671,302.32,197.764,301.518z"/>
				<path fill="#C0E4EE" d="M229.397,302.19c-1.869,0.889-7.91-2.122-7.91-2.122c-0.766,7.943,7.931,8.599,7.931,8.599
					C226.705,305.402,229.397,302.19,229.397,302.19z"/>
				<path fill="#C0E4EE" d="M222.782,250.707c0,0,0.005,0.024,0.009,0.044C222.789,250.74,222.786,250.726,222.782,250.707z"/>
				<path fill="#C0E4EE" d="M238.58,234.392c-0.02,0.024-0.031,0.036-0.038,0.045C238.555,234.422,238.58,234.392,238.58,234.392z"
					/>
				<path fill="#A4D8E4" d="M250.982,230.613c-0.004-0.002-0.006-0.006-0.01-0.01l-0.001,0.001
					c-12.005-11.092-23.982-1.958-18.368,3.883c0,0,3.465,2.552,5.977-0.095c2.675-3.038,5.986-2.781,9.234-0.614
					c2.167,3.247,2.423,6.555-0.619,9.227c-2.651,2.508-0.098,5.972-0.098,5.972c5.842,5.612,14.99-6.352,3.894-18.353l0.001-0.001
					C250.989,230.619,250.986,230.618,250.982,230.613z"/>
				<path fill="#C0E4EE" d="M202.692,250.343C202.692,250.343,202.649,250.497,202.692,250.343L202.692,250.343z"/>
				<path fill="#C0E4EE" d="M194.145,237.019c-4.124-0.376-7.895,0.083-11.241,0.984l0.039,0.039
					c-0.904,3.342-1.364,7.111-0.99,11.231c1.912,21.036,20.124,20.407,18.41,11.697c0,0-1.535-4.018-5.079-3.15
					c-7.489,2.14-10.37-7.24-9.76-17.197l-0.038-0.039c9.964-0.605,19.351,2.278,17.207,9.76c-0.872,3.542,3.149,5.077,3.149,5.077
					C214.557,257.137,215.195,238.939,194.145,237.019z"/>
				<path fill="#C0E4EE" d="M188.137,232.938C188.158,232.965,188.192,233.01,188.137,232.938L188.137,232.938z"/>
				<circle fill="#C0E4EE" cx="212.795" cy="237.335" r="3.512"/>
				<circle fill="#FFFFFF" cx="212.795" cy="268.3" r="3.512"/>
				<circle fill="#C0E4EE" cx="160.81" cy="268.768" r="3.512"/>
				<path fill="#C0E4EE" d="M225.566,256.017c3.084,0.166,6.223-0.927,8.58-3.279c2.357-2.354,3.45-5.49,3.286-8.573l0.018-0.018
					c-0.006,0-0.013,0-0.018,0c-0.001-0.007,0-0.013-0.001-0.019l-0.018,0.018c-3.084-0.166-6.223,0.926-8.579,3.28
					c-2.357,2.354-3.45,5.491-3.287,8.573l-0.018,0.017c0.007,0.001,0.013,0,0.02,0.001c0,0.006,0,0.012,0,0.018L225.566,256.017z"
					/>
				<path fill="#C0E4EE" d="M228.656,235.08c0,0-2.835-3.084-0.275-6.468c0,0-8.658,1.05-7.531,8.95
					C220.85,237.562,226.749,234.278,228.656,235.08z"/>
				<path fill="#C0E4EE" d="M197.023,234.409c1.869-0.888,7.91,2.124,7.91,2.124c0.766-7.943-7.931-8.599-7.931-8.599
					C199.714,231.198,197.023,234.409,197.023,234.409z"/>
				<path fill="#C0E4EE" d="M195.638,277.895c0.019,0.004,0.034,0.007,0.044,0.008C195.663,277.9,195.638,277.895,195.638,277.895z"
					/>
				<path fill="#C0E4EE" d="M184.399,297.211c2.925,0.878,6.18,1.414,9.744,1.349c21.133-0.383,21.824-18.58,13.007-17.502
					c0,0-4.123,1.238-3.511,4.835c1.526,7.302-7.204,9.616-16.642,8.628c-0.986-9.433,1.336-18.155,8.642-16.626
					c3.598,0.613,4.84-3.506,4.84-3.506c1.081-8.811-17.129-8.128-17.522,12.989c-0.065,3.561,0.468,6.813,1.346,9.737l-0.054,0.054
					c0.025,0.007,0.051,0.013,0.075,0.022c0.008,0.024,0.014,0.05,0.022,0.076L184.399,297.211z"/>
				<path fill="#C0E4EE" d="M179.304,293.673c0,0,0.029-0.026,0.044-0.038C179.34,293.643,179.328,293.654,179.304,293.673z"/>
				<path fill="#C0E4EE" d="M195.284,257.819C195.436,257.777,195.284,257.819,195.284,257.819L195.284,257.819z"/>
				<path fill="#C0E4EE" d="M177.902,243.291c-0.007-0.006-0.02-0.015-0.029-0.022C177.889,243.28,177.897,243.287,177.902,243.291z
					"/>
				<path fill="#C0E4EE" d="M177.902,243.291C177.91,243.297,177.913,243.299,177.902,243.291L177.902,243.291z"/>
				<path fill="#A4D8E4" d="M178.384,249.206c0,0,2.296-3.639-0.527-5.95c-3.693-2.798-3.138-6.74-0.33-10.629l-0.039-0.039
					c3.894-2.804,7.84-3.356,10.638,0.335c2.312,2.823,5.955,0.531,5.955,0.531c6.269-5.637-6.197-16.22-19.598-3.871l0.038,0.039
					C162.156,243.007,172.741,255.469,178.384,249.206z"/>
				<circle fill="#C0E4EE" cx="182.26" cy="267.909" r="3.512"/>
				<path fill="#C0E4EE" d="M199.998,255.091c0.274-3.196-0.811-6.488-3.258-8.934c-2.447-2.446-5.74-3.532-8.939-3.258l0.038,0.038
					c-0.274,3.196,0.811,6.487,3.258,8.934c2.448,2.446,5.74,3.531,8.939,3.259L199.998,255.091z"/>
				<path fill="#C0E4EE" d="M179.997,283.757c-0.802-1.906,2.486-7.799,2.486-7.799c-7.905-1.13-8.961,7.52-8.961,7.52
					C176.911,280.921,179.997,283.757,179.997,283.757z"/>
				<path fill="#C0E4EE" d="M181.461,260.053c0,0-3.011-6.039-2.12-7.905c0,0-3.215,2.688-6.481-0.024
					C172.86,252.124,173.513,260.815,181.461,260.053z"/>
			</g>
		</g>
		<g>
			<g>
				<path fill="#FFFFFF" d="M386.301,398.898c0,4.87-14.773,8.82-32.997,8.82c-18.224,0-32.996-3.949-32.996-8.82
					c0-4.874,14.772-8.822,32.996-8.822C371.528,390.076,386.301,394.024,386.301,398.898z"/>
				<path fill="#E4F3FB" d="M452.582,367.368c-5.056,4.972-10.574,7.841-18.333,9.217c-3.085,0.551-6.414,0.819-9.974,0.819
					c-2.773,0-5.682-0.162-8.73-0.501c3.135-3.001,6.02-6.233,8.61-9.666c2.998,0.006,5.776-0.219,8.317-0.669
					c5.519-0.976,9.868-3.07,12.571-6.04c3.066-3.371,3.329-7.103,2.766-8.792c-1.797-5.333-5.307-7.866-11.502-7.916
					c1.039-3.277,1.853-6.64,2.422-10.073c0.62,0.062,1.251,0.144,1.877,0.25C462.544,337.744,460.616,359.459,452.582,367.368z"/>
				<path fill="#D0DFE3" d="M439.17,320.852c0,10.723-38.316,19.416-85.582,19.416c-44.501,0-81.069-7.705-85.19-17.556
					c-0.262-0.612-0.39-1.232-0.39-1.86c0-0.627,0.128-1.247,0.39-1.857c4.121-9.854,40.689-17.557,85.19-17.557
					C400.855,301.438,439.17,310.13,439.17,320.852z"/>
				<ellipse fill="#654734" cx="353.305" cy="337.038" rx="80.176" ry="12.585"/>
				<ellipse fill="#654734" cx="354.695" cy="341.032" rx="77.279" ry="12.583"/>
				<path fill="#FFFFFF" d="M439.762,321.368c0,1.958-0.076,3.902-0.226,5.822c-0.169,2.214-0.438,4.402-0.807,6.559
					c-0.569,3.433-1.383,6.796-2.422,10.073c-2.666,8.473-6.807,16.37-12.152,23.417c-2.59,3.433-5.475,6.665-8.61,9.666
					c-15.631,14.988-37.544,24.305-61.797,24.305c-27.721,0-52.375-12.168-68.099-31.063c-10.858-13.032-17.458-29.269-17.891-46.92
					c4.149,9.854,40.98,17.557,85.802,17.557C401.165,340.783,439.762,332.091,439.762,321.368z"/>
				<path fill="#FFFFFF" d="M353.589,341.032c-21.481,0-42.042-1.811-57.892-5.1c-11.289-2.341-25.308-6.485-28.002-12.927
					c-0.298-0.699-0.45-1.424-0.45-2.153c0-0.729,0.152-1.454,0.451-2.158c2.692-6.436,16.712-10.579,28.001-12.92
					c15.85-3.289,36.411-5.1,57.892-5.1c22.915,0,44.466,2.026,60.685,5.706c11.706,2.656,25.66,7.322,25.66,14.473
					c0,7.15-13.954,11.818-25.66,14.474C398.055,339.006,376.504,341.032,353.589,341.032z M353.589,302.201
					c-21.382,0-41.83,1.799-57.582,5.068c-15.224,3.157-25.03,7.539-26.903,12.019c-0.221,0.518-0.332,1.043-0.332,1.564
					c0,0.523,0.111,1.048,0.33,1.561c1.876,4.486,11.681,8.866,26.906,12.025c15.751,3.268,36.2,5.067,57.582,5.067
					c22.805,0,44.236-2.013,60.347-5.668c15.552-3.528,24.471-8.26,24.471-12.985c0-4.724-8.919-9.456-24.471-12.984
					C397.825,304.213,376.394,302.201,353.589,302.201z"/>
				<path fill="#E4F3FB" d="M268.23,327.188c3.211,41.381,40.391,74.019,85.787,74.019c27.718,0,52.373-12.166,68.101-31.06
					c-16.454,10.231-37.001,16.308-59.288,16.308C317.496,386.455,279.353,361.315,268.23,327.188z"/>
			</g>
			<g>
				<path fill="#C0E4EE" d="M316.05,365.255c1.317,2.485,3.082,4.965,5.445,7.253c13.832,13.388,26.034,2.138,19.669-2.859
					c0,0-3.451-1.862-5.38,0.844c-3.746,5.691-10.881,1.514-16.313-5.241c5.465-6.729,12.62-10.871,16.338-5.161
					c1.918,2.715,5.377,0.867,5.377,0.867c6.388-4.964-5.759-16.274-19.656-2.953c-2.375,2.275-4.15,4.748-5.481,7.226h-0.013
					c0.001,0.005,0.004,0.007,0.007,0.012c-0.002,0.005-0.005,0.009-0.009,0.013L316.05,365.255z"/>
				<path fill="#A4D8E4" d="M343.028,365.32l0.001,0.001c0,5.658,4.584,10.252,10.25,10.267v-0.05
					c5.632,0.013,10.215-4.506,10.295-10.118h0.004l0,0c0-0.021-0.001-0.042-0.001-0.062c0-0.021,0.002-0.042,0.001-0.064l0,0
					l-0.002,0.001c-0.054-5.613-4.615-10.153-10.246-10.168v-0.049c-5.667-0.015-10.272,4.556-10.3,10.215l0,0l0,0
					c0,0.006,0,0.009,0,0.013C343.029,365.312,343.029,365.316,343.028,365.32L343.028,365.32z"/>
				<path fill="#C0E4EE" d="M369.277,365.435c1.871,2.036,4.554,3.318,7.539,3.327c2.985,0.006,5.674-1.263,7.556-3.291h0.117
					c-0.02-0.021-0.04-0.04-0.057-0.062c0.017-0.021,0.039-0.04,0.059-0.062h-0.117c-1.874-2.037-4.555-3.319-7.541-3.328
					c-2.986-0.005-5.674,1.264-7.557,3.291h-0.117c0.02,0.021,0.04,0.04,0.059,0.063c-0.02,0.02-0.04,0.039-0.059,0.061
					L369.277,365.435z"/>
				<circle fill="#FFFFFF" cx="353.57" cy="365.626" r="3.201"/>
				<circle fill="#A4D8E4" cx="397.58" cy="365.276" r="3.201"/>
				<circle fill="#A4D8E4" cx="308.535" cy="364.199" r="3.201"/>
				<path fill="#C0E4EE" d="M337.426,365.283c-1.877-2.097-4.599-3.419-7.635-3.428c-3.036-0.007-5.765,1.304-7.651,3.39h-0.023
					c0.004,0.005,0.009,0.009,0.012,0.012c-0.004,0.005-0.009,0.007-0.012,0.013h0.023c1.876,2.096,4.599,3.419,7.635,3.425
					c3.035,0.007,5.764-1.302,7.651-3.389h0.022c-0.002-0.005-0.007-0.007-0.011-0.012c0.005-0.005,0.009-0.009,0.012-0.012H337.426
					z"/>
				<path fill="#C0E4EE" d="M390.503,365.361c-1.313-2.452-3.06-4.896-5.392-7.153c-13.832-13.388-26.031-2.137-19.667,2.859
					c0,0,3.449,1.864,5.38-0.843c3.736-5.677,10.842-1.534,16.271,5.19c-5.461,6.7-12.588,10.808-16.297,5.113
					c-1.916-2.716-5.375-0.871-5.375-0.871c-6.388,4.967,5.756,16.275,19.654,2.955c2.343-2.247,4.102-4.682,5.426-7.127l0.07,0.001
					c-0.011-0.023-0.024-0.043-0.034-0.064c0.011-0.021,0.022-0.042,0.034-0.062H390.503z"/>
			</g>
		</g>
	</g>
</g>
</svg>
