<svg xmlns="http://www.w3.org/2000/svg" width="282" height="152" viewBox="0 0 282 152" version="1.1">
	<path d="M 119 3.612 C 90.533 6.202, 68.163 10.338, 49.485 16.465 C 34.155 21.493, 25.939 25.439, 16.857 32.134 C 1.736 43.281, -1.418 54.106, 5.535 71 C 14.979 93.947, 34.028 116.671, 53.500 128.219 C 69.277 137.576, 86.844 144.112, 107.100 148.161 C 117.031 150.147, 121.529 150.440, 142 150.435 C 168.281 150.430, 175.615 149.474, 195.852 143.417 C 217 137.087, 233.081 128.138, 247.652 114.588 C 260.477 102.664, 271.052 87.207, 277.130 71.500 C 279.750 64.731, 280.151 62.556, 279.737 57.364 C 277.846 33.617, 244.155 14.389, 190.500 6.434 C 176.761 4.397, 168.704 3.845, 148.500 3.558 C 134.750 3.362, 121.475 3.386, 119 3.612" fill="none" stroke="#000" stroke-width="2px" fill-rule="evenodd"/>
</svg>
