<svg xmlns="http://www.w3.org/2000/svg" width="257" height="248" viewBox="0 0 257 248" version="1.1">
	<path d="M 15.702 3.589 C 7.978 4.985, 2 7.289, 2 8.871 C 2 11.272, 10.022 15.607, 25.398 21.517 C 30.842 23.610, 36.876 26.708, 38.805 28.402 C 43.305 32.353, 45.950 38.223, 45.978 44.320 C 46 49.063, 45.846 49.300, 36.250 59.320 C 25.266 70.788, 20.962 77.920, 17.975 89.596 C 12.491 111.041, 17.826 135.948, 37.984 183 C 47.412 205.007, 48.476 208.631, 49.579 222.500 C 50.254 230.991, 50.483 231.679, 53.626 234.662 C 60.155 240.861, 74.272 243.943, 99.500 244.676 C 127.222 245.483, 143.543 242.207, 151.913 234.158 C 155.685 230.530, 155.721 230.422, 156.265 220.967 C 156.706 213.315, 157.523 209.564, 160.408 201.967 C 166.561 185.760, 167.169 184.936, 186.450 166.665 C 226.575 128.642, 239.769 113.637, 247.937 96.736 C 261.653 68.355, 254.986 39.784, 232.175 29.184 C 227.387 26.959, 225.093 26.543, 217.500 26.523 C 209.399 26.502, 207.973 26.792, 203.224 29.423 C 196.065 33.390, 187.173 42.429, 180.365 52.660 L 174.715 61.151 169.443 55.944 C 161.667 48.264, 160.397 41.746, 164 28 C 166.565 18.212, 166.511 17.313, 163.250 15.641 C 155.735 11.787, 145.361 10.729, 108 10.011 L 71.500 9.308 54.500 5.664 C 35.870 1.670, 28.498 1.276, 15.702 3.589 M 212.942 39.948 C 205.242 42.284, 199.490 47.663, 197.408 54.473 C 196.563 57.238, 195.506 65.575, 195.061 73 C 194.615 80.425, 193.770 87.697, 193.184 89.161 C 192.570 90.691, 192.167 98.337, 192.233 107.161 C 192.346 122.106, 192.256 122.807, 188.709 134.451 C 186.708 141.025, 185.258 146.591, 185.488 146.822 C 187.549 148.882, 204.293 136.692, 217.520 123.500 C 237.545 103.530, 245.020 85.996, 241.696 66.796 C 238.008 45.496, 227.375 35.568, 212.942 39.948" fill="none" stroke="#000" stroke-width="2px" fill-rule="evenodd"/>
</svg>
