<svg xmlns="http://www.w3.org/2000/svg" width="263" height="264" viewBox="0 0 263 264" version="1.1">
	<path d="M 111 3.475 C 60.281 12.063, 19.847 48.235, 6.088 97.328 C 1.850 112.452, 0.610 123.125, 1.364 138 C 3.248 175.151, 19.880 208.993, 47.472 231.815 C 67.016 247.980, 86.545 256.720, 111.541 260.487 C 138.574 264.562, 165.268 260.131, 189.918 247.479 C 220.379 231.843, 243.247 205.256, 254.103 172.853 C 258.333 160.226, 259.885 151.586, 260.639 136.455 C 261.711 114.967, 257.791 95.513, 248.493 76.177 C 244.031 66.898, 243.192 64.396, 244.220 63.435 C 244.924 62.778, 248.762 59.465, 252.750 56.073 C 256.738 52.681, 260 49.232, 260 48.408 C 260 46.568, 255.573 41.999, 253.795 42.003 C 253.083 42.005, 248.900 44.899, 244.500 48.434 L 236.500 54.862 232.532 50.181 C 230.350 47.607, 226.852 43.749, 224.758 41.608 C 222.664 39.467, 221.075 37.654, 221.225 37.578 C 222.074 37.153, 235.620 25.363, 236.235 24.514 C 238.376 21.557, 234.717 15, 230.925 15 C 230.129 15, 225.564 18.150, 220.780 22 C 215.996 25.850, 211.840 29, 211.543 29 C 211.247 29, 208.866 27.472, 206.252 25.605 C 191.988 15.413, 168.861 6.136, 151.006 3.445 C 139.568 1.721, 121.280 1.734, 111 3.475" fill="none" stroke="#000" stroke-width="2px" fill-rule="evenodd"/>
</svg>
