<svg xmlns="http://www.w3.org/2000/svg" width="284" height="148" viewBox="0 0 284 148" version="1.1">
	<path d="M 132.735 4.262 C 130.115 6.300, 129.825 6.328, 127.209 4.783 C 124.614 3.250, 124.302 3.269, 121.975 5.108 C 120.614 6.184, 118.213 7.761, 116.641 8.614 C 113.904 10.098, 113.660 10.048, 110.949 7.452 L 108.118 4.739 104.165 7.869 C 99.795 11.330, 97.850 11.730, 96.032 9.539 C 93.543 6.539, 90.946 6.660, 87.572 9.930 L 84.344 13.059 81.764 11.029 C 78.342 8.337, 76.162 8.470, 72.929 11.568 L 70.248 14.137 66.473 12.114 C 62.734 10.110, 60.103 10.406, 58.492 13.013 C 58.111 13.630, 57.293 13.436, 56.365 12.508 C 54.234 10.377, 50.245 10.635, 48.768 13 C 48.007 14.219, 46.436 15, 44.745 15 C 42.718 15, 41.466 15.830, 40.096 18.083 C 38.983 19.913, 37.949 20.726, 37.551 20.083 C 36.453 18.306, 32.108 18.855, 30.809 20.935 C 29.935 22.334, 28.870 22.724, 26.964 22.343 C 24.208 21.792, 21 23.993, 21 26.435 C 21 27.283, 19.709 27.689, 17.254 27.614 C 14.270 27.523, 13.307 27.957, 12.517 29.750 C 11.961 31.011, 10.640 32, 9.510 32 C 6.367 32, 2.328 36.956, 2.218 40.947 C 2.075 46.111, 12.755 70.238, 19.240 79.400 C 20.758 81.545, 22 83.852, 22 84.528 C 22 85.203, 22.749 86.373, 23.666 87.128 C 24.582 87.882, 26.913 90.975, 28.848 94 C 35.153 103.863, 48.780 119, 51.353 119 C 51.870 119, 54.140 120.503, 56.397 122.339 C 60.955 126.049, 83.281 135.343, 100.237 140.590 C 106.523 142.536, 115.436 144.399, 121.737 145.085 C 134.841 146.513, 158.598 145.737, 169 143.542 C 188.295 139.472, 213.856 129.573, 226.112 121.426 C 234.298 115.983, 248.634 102.299, 252.238 96.487 C 253.606 94.280, 256.362 90.838, 258.363 88.837 C 260.363 86.837, 262 84.480, 262 83.600 C 262 82.720, 262.406 82, 262.902 82 C 264.942 82, 281.405 48.651, 281.386 44.557 C 281.357 38.210, 280.214 36.145, 276.041 34.894 C 273.277 34.066, 272.012 33.085, 271.801 31.607 C 271.548 29.835, 270.839 29.513, 267.341 29.580 C 263.550 29.652, 263.132 29.409, 262.616 26.830 C 262.169 24.597, 261.503 24, 259.459 24 C 258.034 24, 255.985 24.473, 254.905 25.051 C 253.199 25.964, 252.746 25.636, 251.457 22.551 C 250.335 19.866, 249.381 19, 247.546 19 C 246.210 19, 244.840 19.450, 244.500 20 C 243.442 21.712, 242.162 21.109, 240.786 18.250 C 239.743 16.083, 238.751 15.488, 236.110 15.445 C 234.166 15.413, 232.238 14.678, 231.519 13.695 C 230.124 11.788, 227.754 11.526, 225.039 12.979 C 223.710 13.690, 222.874 13.553, 221.983 12.479 C 220.297 10.448, 218.337 10.624, 214.829 13.122 L 211.849 15.244 209.105 11.957 L 206.361 8.669 202.172 11.023 L 197.984 13.377 194.695 10.189 C 190.879 6.491, 189.016 6.220, 186.500 9 C 184.010 11.752, 181.604 11.511, 176.500 8 C 171.142 4.314, 169.813 4.278, 165.321 7.704 C 161.388 10.704, 162.803 11.004, 152.315 4.947 L 148.129 2.530 145.558 4.946 L 142.987 7.361 140.189 4.681 C 136.863 1.494, 136.331 1.464, 132.735 4.262" fill="none" stroke="#000" stroke-width="2px" fill-rule="evenodd"/>
</svg>
