<?xml version="1.0" encoding="utf-8"?>
<!-- Generator: Adobe Illustrator 17.0.0, SVG Export Plug-In . SVG Version: 6.00 Build 0)  -->
<!DOCTYPE svg PUBLIC "-//W3C//DTD SVG 1.1//EN" "http://www.w3.org/Graphics/SVG/1.1/DTD/svg11.dtd">
<svg version="1.1" id="Слой_1" xmlns="http://www.w3.org/2000/svg" xmlns:xlink="http://www.w3.org/1999/xlink" x="0px" y="0px"
	 width="500px" height="500px" viewBox="0 0 500 500" enable-background="new 0 0 500 500" xml:space="preserve">
<rect x="-1.264" fill="#DCE5F4" width="501.465" height="501.465"/>
<g>
	<circle fill="#EB5A5E" cx="180.352" cy="297.295" r="17.038"/>
	<circle fill="#EB5A5E" cx="262.704" cy="209.644" r="14.072"/>
	<circle fill="#FCC558" cx="309.125" cy="16.924" r="11.823"/>
	<circle fill="#FCC558" cx="312.64" cy="314.334" r="11.823"/>
	<circle fill="#FCC558" cx="468.672" cy="53.661" r="14.712"/>
	<circle fill="#8265A9" cx="476.628" cy="271.771" r="21.692"/>
	<circle fill="#49A141" cx="201.167" cy="400.454" r="29.669"/>
	<circle fill="#8265A9" cx="415.996" cy="357.133" r="78.728"/>
	<circle fill="#EB5A5E" cx="157.022" cy="464.108" r="19.881"/>
	<circle fill="#49A141" cx="146.337" cy="82.145" r="17.843"/>
	<circle fill="#49A141" cx="216.223" cy="201.746" r="11.712"/>
	<path fill="#49A141" d="M140.169,0c-4.03,5.571-6.412,12.412-6.412,19.812c0,18.694,15.155,33.849,33.849,33.849
		c18.694,0,33.849-15.155,33.849-33.849c0-7.401-2.382-14.242-6.412-19.812H140.169z"/>
	<circle fill="#00B1AB" cx="170.741" cy="238.581" r="29.669"/>
	<circle fill="#00B1AB" cx="35.771" cy="38.95" r="32.683"/>
	<circle fill="#FCC558" cx="414.418" cy="150.64" r="78.728"/>
	<circle fill="#00B1AB" cx="88.076" cy="162.478" r="76.104"/>
	<circle fill="#EB5A5E" cx="91.296" cy="372.511" r="76.104"/>
	<circle fill="#49A141" cx="249.468" cy="104.194" r="78.728"/>
	<circle fill="#EB5A5E" cx="23.183" cy="283.954" r="17.038"/>
	<circle fill="#FCC558" cx="341.915" cy="64.303" r="20.966"/>
	<circle fill="#FCC558" cx="317.992" cy="220.018" r="19.851"/>
	<path fill="#EB5A5E" d="M15.192,449.648c-7.042,0-13.364,3.07-17.709,7.941v31.577c4.346,4.871,10.668,7.941,17.709,7.941
		c13.105,0,23.73-10.624,23.73-23.729C38.922,460.272,28.297,449.648,15.192,449.648z"/>
	<circle fill="#49A141" cx="104.652" cy="23.481" r="9.064"/>
	<circle fill="#00B1AB" cx="11.972" cy="231.704" r="9.064"/>
	<circle fill="#00B1AB" cx="11.972" cy="99.988" r="9.064"/>
	<circle fill="#FCC558" cx="425.608" cy="25.467" r="23.552"/>
	<circle fill="#49A141" cx="351.169" cy="14.417" r="11.712"/>
	<circle fill="#49A141" cx="114.52" cy="53.661" r="11.712"/>
	<circle fill="#8265A9" cx="337.843" cy="278.406" r="19.37"/>
	<circle fill="#8265A9" cx="487.661" cy="442.907" r="12.539"/>
	<circle fill="#8265A9" cx="326.641" cy="430.168" r="25.062"/>
	<circle fill="#8265A9" cx="301.268" cy="365.284" r="12.539"/>
</g>
<path opacity="0.5" fill="#7D868C" d="M445.414,387.505c-2.585-10.471-2.116-19.615,0-33.635
	c2.116-14.019,8.226-22.649,3.525-33.042c-4.147-9.17-4.633-28.458-1.462-35.87c-2.815-1.23-5.716-2.3-8.692-3.198
	c-2.741,0.021-5.834,0.259-9.019,0.911c2.508,10.054-15.936,17.406-24.475,17.406c-7.365,0-22.089-5.472-24.39-13.428
	c-5.684,2.835-10.976,6.337-15.775,10.405c0.279,8.288-0.881,18.023-3.482,23.775c-4.701,10.394,1.409,19.023,3.525,33.042
	c2.116,14.019,2.585,23.163,0,33.635c-2.936,5.768-5.182,13.965-6.716,23.35c14.369,15.385,34.831,25.006,57.543,25.006
	c13.753,0,26.68-3.53,37.931-9.728C452.731,410.542,449.862,396.243,445.414,387.505z"/>
<path opacity="0.5" fill="#7D868C" d="M453.855,82.491c-7.948-4.609-16.777-7.865-26.172-9.46c-1.35,11.759-8.08,24.87-25,24.87
	c-13.496,0-20.506-8.344-23.477-17.688c-14.914,7.471-27.124,19.536-34.774,34.343c2.782,2.516,5.845,4.453,7.998,4.453
	c0,0,11.558-18.092,13.065-21.107c-2.512,20.024,13.821,31.41,4.775,64.325c-2.466,9.6-8.277,24.834-13.048,42.506
	c14.35,15.168,34.667,24.634,57.197,24.634c13.523,0,26.249-3.411,37.366-9.418c-4.923-24.002-13.538-45.456-16.688-57.723
	c-9.046-32.915,7.287-44.301,4.775-64.325c1.508,3.015,13.066,21.107,13.066,21.107c4.524,0,13.066-8.544,14.574-13.066
	C464.872,101.839,459.158,90.898,453.855,82.491z"/>
<g>
	<path fill="#EB5A5E" d="M423.032,259.761c6.533,1.507,21.107-4.022,22.615-5.529c1.507-1.507,21.359-1.005,22.866-6.532
		c2.01-37.691-15.327-77.393-20.103-95.986c-9.046-32.915,7.287-44.301,4.775-64.325c1.508,3.015,13.066,21.107,13.066,21.107
		c4.524,0,13.066-8.544,14.574-13.066c-4.522-7.036-18.091-34.173-23.116-34.173c-8.543-1.005-11.559,1.005-16.584,0
		c-1.005,12.061-7.599,26.132-25.127,26.132s-24.122-14.072-25.127-26.132c-5.025,1.005-8.04-1.005-16.584,0
		c-5.025,0-18.594,27.137-23.116,34.173c1.508,4.523,10.05,13.066,14.574,13.066c0,0,11.558-18.092,13.065-21.107
		c-2.512,20.024,13.821,31.41,4.775,64.325c-4.775,18.594-22.113,58.295-20.103,95.986c1.507,5.527,18.451,6.017,19.959,7.525
		c1.507,1.507,14.824,6.236,21.356,4.729C411.328,258.447,416.499,258.253,423.032,259.761z"/>
	<path fill="#F8E0A4" d="M410.685,209.652c16.871,0.356,33.199-0.861,53.454-4.658c-2.709-11.99-6.217-23.219-9.339-32.824
		c-14.391,2.495-17.822,7.309-46.844,7.183c-11.853-0.052-22.575-4.631-31.203-5.818c-3.138,9.701-6.601,20.961-9.228,32.944
		C375.992,207.819,396.778,209.359,410.685,209.652z M467.658,225.155c-17.269,4.211-27.059,13.042-59.703,11.488
		c-21.107-1.005-33.467-7.602-43.809-9.863c-0.746,6.945-1.038,13.966-0.666,20.92c1.507,5.527,18.451,6.017,19.959,7.525
		c1.507,1.507,14.824,6.236,21.356,4.729c6.532-1.508,11.703-1.702,18.236-0.193c6.533,1.507,21.107-4.022,22.615-5.529
		c1.507-1.507,21.359-1.005,22.866-6.532C468.913,240.203,468.539,232.629,467.658,225.155z"/>
	<g>
		<path fill="#212221" d="M448.41,151.714c-0.238-0.865-0.448-1.706-0.651-2.541h-63.524c-0.203,0.835-0.414,1.677-0.651,2.541
			c-0.222,0.862-0.478,1.784-0.75,2.735h66.327C448.888,153.498,448.632,152.576,448.41,151.714z"/>
		<g>
			<rect x="400.355" y="148.621" fill="#C4C6C9" width="31.283" height="6.38"/>
			<path opacity="0.5" fill="#FFFFFF" d="M425.341,155.001h6.297v-3.676L425.341,155.001z M400.355,154.956v0.045h7.396l10.928-6.38
				h-7.475L400.355,154.956z"/>
		</g>
	</g>
	<path opacity="0.5" fill="#7D868C" d="M377.901,253.827c1.988,0.356,3.688,0.657,4.687,0.982
		c0.108-15.758,6.434-51.155,5.392-54.977C383.927,211.989,379.359,242.193,377.901,253.827z M436.978,198.245
		c-0.315,5.905,5.397,42.892,7.305,56.835c0.673-0.34,1.151-0.635,1.364-0.847c0.414-0.415,2.221-0.677,4.649-0.956
		C447.487,235.717,437.264,203.19,436.978,198.245z M409.85,259.035c2.049-0.262,4.031-0.361,6.044-0.277
		c0.394-14.138,1.233-32.97,0.102-42.55C416.667,222.96,412.064,246.117,409.85,259.035z"/>
</g>
<path opacity="0.5" fill="#7D868C" d="M123.336,175.478c-3.118-9.384-6.412-19.923-4.813-28.489
	c0.64-3.429,10.026-37.955,9.024-44.763c-0.124-0.839-0.136-2.605-0.104-4.891c-11.486-6.956-24.959-10.962-39.368-10.962
	c-21.082,0-40.161,8.574-53.943,22.423c1.843,12.348,8.07,35.421,8.587,38.192c1.599,8.566-1.695,19.105-4.813,28.489
	c-1.261,3.797-4.39,19.449-7.238,36.961c13.952,16.018,34.496,26.142,57.407,26.142c16.544,0,31.853-5.282,44.339-14.247
	C129.217,202.507,124.88,180.122,123.336,175.478z"/>
<g>
	<path fill="#EE7498" d="M90.863,264.498c21.056-1.059,42.841-5.209,55.475-13.985c-0.602-23.193-10.283-76.374-12.76-83.83
		c-3.118-9.384-6.412-19.923-4.813-28.489c0.64-3.429,10.026-37.955,9.024-44.763c-0.565-3.837,1.203-27.041-1.203-30.802
		c-2.406-3.761-18.048-1.88-19.552,0c-0.902,5.641-14.138,11.283-26.17,11.283s-25.268-5.641-26.17-11.283
		c-1.504-1.88-17.146-3.761-19.552,0c-2.406,3.761-0.638,26.966-1.203,30.802c-1.002,6.808,8.384,41.334,9.024,44.763
		c1.599,8.566-1.695,19.105-4.813,28.489c-2.477,7.456-12.158,60.637-12.76,83.83C48.022,259.289,69.806,263.439,90.863,264.498z"/>
	<path fill="#F6B9C9" d="M144.234,227.047c-12.857,7.845-33.438,11.62-53.371,12.623c-19.933-1.003-40.514-4.778-53.371-12.623
		c-1.14,8.995-1.943,17.293-2.103,23.466c12.634,8.776,34.418,12.926,55.475,13.985c21.056-1.059,42.841-5.209,55.475-13.985
		C146.177,244.34,145.374,236.041,144.234,227.047z"/>
	<path fill="#EE7498" d="M93.886,264.322c0.316-0.02,0.631-0.039,0.947-0.06l4.283-4.283l3.588,3.588
		c0.266-0.029,0.531-0.061,0.796-0.091l-4.385-4.384L93.886,264.322z M103.895,242.739l-3.741-3.741
		c-0.271,0.026-0.542,0.05-0.812,0.074l3.667,3.667l-4.519,4.519l-4.519-4.519l3.507-3.506c-0.321,0.026-0.643,0.053-0.965,0.078
		l-3.429,3.428l5.406,5.406L103.895,242.739z M90.863,257.869l5.405-5.405l-5.405-5.405l-5.406,5.405L90.863,257.869z
		 M95.382,252.464l-4.519,4.519l-4.519-4.519l4.519-4.519L95.382,252.464z M59.838,235.538c-0.239-0.057-0.475-0.116-0.713-0.174
		l-4.409,4.41l-4.519-4.519l1.852-1.852c-0.225-0.07-0.45-0.141-0.673-0.213l-2.065,2.065l5.406,5.406L59.838,235.538z
		 M119.149,240.217l-3.388-3.388c-0.249,0.047-0.496,0.095-0.746,0.14l3.248,3.248l-4.519,4.519l-4.519-4.519l2.722-2.721
		c-0.351,0.056-0.702,0.113-1.054,0.168l-2.554,2.553l5.406,5.406L119.149,240.217z M88.59,240.217l-0.721-0.721
		c-0.316-0.02-0.632-0.04-0.948-0.062l0.783,0.783l-4.519,4.519l-4.519-4.519l1.373-1.373c-0.267-0.027-0.535-0.055-0.803-0.084
		l-1.457,1.457l5.406,5.406L88.59,240.217z M142.473,247.058l-5.406,5.405l2.112,2.112c0.201-0.094,0.407-0.186,0.605-0.282
		l-1.83-1.83l4.519-4.519l3.088,3.088c0.178-0.118,0.356-0.236,0.531-0.355L142.473,247.058z M131.318,235.255l-1.802-1.802
		c-0.225,0.07-0.449,0.141-0.676,0.211l1.591,1.591l-4.519,4.519l-4.197-4.197c-0.239,0.056-0.481,0.11-0.721,0.165l4.919,4.919
		L131.318,235.255z M146.012,244.2c-0.023-0.315-0.048-0.637-0.072-0.959l-3.024-3.024l2.531-2.531
		c-0.026-0.268-0.053-0.535-0.08-0.806l-3.337,3.337L146.012,244.2z M144.653,230.456l-2.317-2.317
		c-0.191,0.105-0.378,0.211-0.572,0.315l3.007,3.007C144.732,231.127,144.694,230.793,144.653,230.456z M144.975,233.239
		c-0.029-0.264-0.059-0.53-0.09-0.796l-4.085,4.085l-4.519-4.519l1.732-1.732c-0.512,0.228-1.03,0.452-1.557,0.671l-1.061,1.061
		l5.406,5.406L144.975,233.239z M132.548,250.116l5.405-5.406l-5.405-5.405l-5.406,5.405L132.548,250.116z M137.067,244.71
		l-4.519,4.519l-4.519-4.519l4.519-4.519L137.067,244.71z M125.47,257.505l1.535,1.534c0.23-0.065,0.457-0.133,0.686-0.201
		l-1.334-1.333l4.519-4.519l3.586,3.586c0.214-0.082,0.43-0.163,0.641-0.245l-4.227-4.227L125.47,257.505z M59.235,242.739
		l5.406,5.406l5.405-5.406l-5.405-5.405L59.235,242.739z M64.641,247.258l-4.519-4.519l4.519-4.519l4.519,4.519L64.641,247.258z
		 M44.792,245.623l5.405-5.406l-5.405-5.405l-5.406,5.405L44.792,245.623z M49.311,240.217l-4.519,4.519l-4.519-4.519l4.519-4.519
		L49.311,240.217z M59.235,257.505l3.511,3.511c0.373,0.078,0.745,0.158,1.121,0.234l-3.746-3.745l4.519-4.519l4.519,4.519l-4,4.001
		c0.247,0.048,0.495,0.095,0.744,0.142l4.142-4.143l-5.405-5.405L59.235,257.505z M106.221,247.138l-5.406,5.406l5.406,5.405
		l5.405-5.405L106.221,247.138z M101.701,252.543l4.519-4.519l4.519,4.519l-4.519,4.519L101.701,252.543z M80.495,262.467
		l1.386,1.386c0.326,0.031,0.651,0.063,0.977,0.092l-1.477-1.478l4.519-4.519l4.519,4.519l-1.899,1.899
		c0.279,0.017,0.558,0.033,0.837,0.049l1.948-1.948l-5.405-5.405L80.495,262.467z M78.223,247.138l-5.406,5.406l5.406,5.405
		l5.405-5.405L78.223,247.138z M73.703,252.543l4.519-4.519l4.519,4.519l-4.519,4.519L73.703,252.543z M108.338,262.467l0.353,0.354
		c0.258-0.037,0.515-0.076,0.773-0.114l-0.24-0.24l4.519-4.519l3.436,3.437c0.247-0.049,0.495-0.097,0.74-0.147l-4.176-4.176
		L108.338,262.467z M37.307,228.522c-0.033,0.264-0.064,0.527-0.097,0.79l2.697,2.697l-3.395,3.395
		c-0.035,0.332-0.069,0.662-0.103,0.99l4.385-4.385L37.307,228.522z M35.834,242.621c-0.022,0.278-0.042,0.55-0.063,0.823
		l4.137,4.137l-3.568,3.568c0.178,0.116,0.358,0.232,0.539,0.347l3.915-3.916L35.834,242.621z M120.951,244.267l-5.406,5.405
		l5.406,5.405l5.405-5.405L120.951,244.267z M116.432,249.672l4.519-4.519l4.519,4.519l-4.519,4.519L116.432,249.672z
		 M40.467,253.553c0.193,0.1,0.392,0.198,0.589,0.297l3.736-3.736l4.519,4.519l-1.968,1.969c0.214,0.081,0.425,0.165,0.641,0.245
		l2.214-2.214l-5.405-5.405L40.467,253.553z M54.717,244.267l-5.406,5.405l5.406,5.405l5.405-5.405L54.717,244.267z M50.197,249.672
		l4.519-4.519l4.519,4.519l-4.519,4.519L50.197,249.672z"/>
	<path fill="#EE7498" d="M129.755,153.724c-0.029,0.007-0.058,0.004-0.086,0.015c-6.646,2.561-18.761,5.615-38.738,5.615
		c-20.017,0-32.14-3.053-38.786-5.615c-0.056-0.022-0.114-0.025-0.171-0.029c-0.092,0.398-0.19,0.795-0.288,1.194
		c0.004,0.001,0.006,0.004,0.009,0.006c6.745,2.6,19.027,5.698,39.237,5.698c20.1,0,32.357-3.077,39.117-5.671
		C129.948,154.531,129.849,154.127,129.755,153.724z"/>
	<path opacity="0.4" fill="#EE7498" d="M71.274,77.672c0.586-1.693,1.605-4.38,2.585-7.181c-0.578-0.243-1.137-0.496-1.675-0.758
		C71.695,72.415,71.186,75.641,71.274,77.672z M55.029,73.912c0,0,0.78-7.352,1.934-13.272c-1.23-0.116-2.503-0.181-3.744-0.181
		C53.857,65.408,54.892,72.131,55.029,73.912z M105.562,71.375c2.492,6.435,6.116,14.885,8.179,21.342
		c0.356-5.699-3.229-15.336-5.332-22.459C107.506,70.655,106.553,71.029,105.562,71.375z M130.463,60.518
		c-1.236-0.079-2.556-0.076-3.87-0.01c1.976,3.571,3.636,7.481,2.506,10.27C130.413,69.465,130.522,65.272,130.463,60.518z"/>
</g>
<path opacity="0.7" fill="#7D868C" d="M113.785,371.448c0.001,0.001,0.001,0.001,0.002,0.001c-0.425-1.818-0.805-3.498-1.125-5.018
	c-0.012-0.059-0.024-0.115-0.036-0.173c-0.099-0.474-0.193-0.937-0.279-1.378c-0.069-0.356-0.123-0.725-0.165-1.106
	c-0.122-1.13-0.124-2.367-0.034-3.681h-0.001c0.136-1.947,0.481-4.068,0.983-6.299c5.418-4.299,14.942-18.49,13.272-33.035
	c-0.264-2.299-1.442-9.446-2.753-17.145c-9.191-4.324-19.386-6.865-30.142-7.171c-3.38,9.488-7.642,22.093-10.432,35.802
	c-0.892,0.481-1.859,0.747-2.929,0.747c-1.07,0-2.037-0.266-2.929-0.747c-2.451-12.045-6.04-23.237-9.167-32.215
	c-13.452,4.311-25.277,12.258-34.311,22.691c-0.662,13.84,8.249,26.968,13.423,31.073c0.839,3.732,1.256,7.17,0.95,9.966
	c-0.001,0-0.002,0.001-0.003,0.001c-0.042,0.384-0.094,0.76-0.163,1.119c-0.086,0.441-0.18,0.904-0.279,1.378
	c-0.012,0.058-0.024,0.114-0.036,0.173c-0.319,1.521-0.699,3.201-1.124,5.018c0.001,0,0.001,0,0.002-0.001
	c-2.909,12.445-8.026,31.588-11.281,52.519c13.911,15.15,33.879,24.648,56.068,24.648c12.932,0,25.109-3.23,35.774-8.921
	C124.463,412.878,117.411,386.96,113.785,371.448z"/>
<g>
	<path fill="#212221" d="M123.496,361.063c-0.275-1.41-0.319-3.03-0.198-4.787c-20.758-1.064-46.05,0.94-64.038,3.668
		c-0.042,0.384-0.094,0.76-0.163,1.119c-3.519,18.014-17.652,63.039-15.505,102.628c0,0,4.771,7.39,47.705,7.39
		s47.705-7.39,47.705-7.39C141.148,424.103,127.015,379.077,123.496,361.063z"/>
	<g>
		<path fill="#212221" d="M136.376,313.836c-4.531-12.642-12.106-15.022-14.072-15.027c-19.792-0.049-19.558,30.366-31.008,30.366
			S80.08,298.76,60.288,298.809c-1.966,0.005-9.541,2.385-14.072,15.027c-4.531,12.642,5.008,29.337,12.097,36.141l7.833,9.613
			l25.151-4.491l25.151,4.491l7.833-9.613C131.368,343.173,140.907,326.478,136.376,313.836z"/>
		<circle fill="#F6A217" cx="66.252" cy="329.2" r="0.954"/>
		<circle fill="#F6A217" cx="66.252" cy="305.965" r="0.954"/>
		<circle fill="#F6A217" cx="60.288" cy="345.678" r="0.954"/>
		<circle fill="#F6A217" cx="49.793" cy="315.989" r="0.954"/>
		<circle fill="#F6A217" cx="96.782" cy="336.257" r="0.954"/>
		<circle fill="#F6A217" cx="77.939" cy="337.211" r="0.954"/>
		<circle fill="#F6A217" cx="132.321" cy="317.898" r="0.954"/>
		<circle fill="#F6A217" cx="117.771" cy="309.304" r="0.954"/>
		<circle fill="#F6A217" cx="112.762" cy="341.504" r="0.954"/>
		<circle fill="#F6A217" cx="103.698" cy="321.946" r="0.954"/>
		<circle fill="#F6A217" cx="127.789" cy="335.303" r="0.954"/>
	</g>
	<g>
		<path opacity="0.7" fill="#212221" d="M91.296,355.1c0-36.493-19.32-74.18-18.604-79.189c-4.651-1.958-13.953-3.22-20.751,0
			c0,0-6.247,35.345-6.9,41.032c-1.67,14.544,7.854,28.736,13.272,33.035L91.296,355.1z"/>
		<path opacity="0.7" fill="#212221" d="M91.296,355.1c0-36.493,19.32-74.18,18.604-79.189c4.651-1.958,13.953-3.22,20.751,0
			c0,0,6.247,35.345,6.9,41.032c1.67,14.544-7.854,28.736-13.272,33.035L91.296,355.1z"/>
	</g>
	<g>
		<path fill="#FAB510" d="M123.496,361.063c-0.581-2.972-0.171-6.84,0.784-11.086c-10.441-2.004-27.268-3.345-32.984-3.345
			c-7.513,0-22.542,1.341-32.984,3.345c0.955,4.246,1.364,8.114,0.784,11.086c-0.37,1.898-0.865,4.111-1.44,6.569
			c10.547-2.226,22.468-3.946,33.64-3.946s23.093,1.72,33.64,3.946C124.361,365.174,123.866,362.961,123.496,361.063z"/>
		<g>
			<circle fill="#B36F14" cx="116.817" cy="353.729" r="0.954"/>
			<circle fill="#B36F14" cx="88.076" cy="360.544" r="0.954"/>
			<circle fill="#B36F14" cx="62.257" cy="364.104" r="0.537"/>
			<circle fill="#B36F14" cx="81.159" cy="355.986" r="0.537"/>
			<circle fill="#B36F14" cx="103.699" cy="359.053" r="0.537"/>
			<circle fill="#B36F14" cx="98.751" cy="349.495" r="0.537"/>
			<circle fill="#B36F14" cx="118.964" cy="362.316" r="0.537"/>
			<circle fill="#B36F14" cx="65.297" cy="352.774" r="0.955"/>
		</g>
	</g>
	<path fill="#212221" d="M69.447,380.664c1.653,0.005,3.281,0.01,4.856,0.014c1.575-0.004,3.095,0.02,4.539-0.008
		c1.443-0.02,2.807-0.037,4.066-0.054c2.517-0.013,4.616-0.118,6.082-0.157c1.467-0.049,2.305-0.076,2.305-0.076
		s-0.837-0.051-2.303-0.14c-1.465-0.098-3.555-0.189-6.061-0.41c-1.252-0.1-2.61-0.209-4.045-0.325
		c-1.435-0.107-2.945-0.272-4.509-0.414c-1.562-0.151-3.177-0.306-4.818-0.465c-1.639-0.178-3.303-0.357-4.968-0.539
		c-3.131-0.319-6.241-0.741-9.188-1.095c-0.264,1.085-0.535,2.202-0.811,3.344c3.145,0.077,6.491,0.223,9.838,0.25
		C66.113,380.615,67.793,380.639,69.447,380.664z M53.092,415.736c1.575-0.004,3.095,0.02,4.54-0.007
		c1.443-0.02,2.807-0.037,4.066-0.054c2.516-0.013,4.616-0.119,6.082-0.157c1.467-0.048,2.305-0.075,2.305-0.075
		s-0.837-0.051-2.303-0.14c-1.465-0.099-3.556-0.189-6.061-0.41c-1.252-0.101-2.609-0.21-4.044-0.326
		c-1.435-0.107-2.946-0.272-4.509-0.414c-1.562-0.151-3.177-0.307-4.818-0.465c-0.291-0.032-0.589-0.064-0.882-0.095
		c-0.123,0.703-0.246,1.405-0.365,2.113c0.376,0.006,0.76,0.011,1.134,0.017C49.89,415.727,51.517,415.732,53.092,415.736z
		 M113.039,405.427c1.259,0.016,2.623,0.034,4.066,0.053c1.444,0.028,2.964,0.004,4.539,0.008c1.575-0.005,3.203-0.009,4.856-0.014
		c1.654-0.024,3.335-0.049,5.015-0.074c0.691-0.006,1.382-0.019,2.071-0.033c-0.176-0.891-0.354-1.774-0.534-2.652
		c-0.565,0.064-1.13,0.128-1.697,0.186c-1.664,0.18-3.329,0.361-4.967,0.539c-1.64,0.159-3.255,0.315-4.818,0.465
		c-1.563,0.142-3.075,0.307-4.509,0.414c-1.435,0.115-2.792,0.225-4.045,0.326c-2.506,0.221-4.597,0.312-6.061,0.41
		c-1.465,0.088-2.303,0.139-2.303,0.139s0.838,0.028,2.305,0.076C108.423,405.309,110.522,405.414,113.039,405.427z M78.639,452.826
		c-1.252-0.101-2.609-0.21-4.044-0.325c-1.435-0.107-2.946-0.272-4.509-0.414c-1.563-0.151-3.177-0.306-4.818-0.465
		c-1.639-0.178-3.303-0.358-4.968-0.539c-3.33-0.34-6.644-0.797-9.755-1.164c-1.548-0.217-3.046-0.427-4.465-0.626
		c-0.9-0.128-1.768-0.247-2.59-0.373c-0.049,1.365-0.08,2.728-0.099,4.088c0.75,0.04,1.516,0.076,2.315,0.114
		c1.448,0.067,2.975,0.137,4.554,0.209c3.156,0.076,6.518,0.223,9.88,0.252c1.68,0.025,3.36,0.05,5.014,0.073
		c1.653,0.005,3.281,0.01,4.856,0.014c1.575-0.004,3.095,0.02,4.539-0.007c1.443-0.02,2.807-0.037,4.066-0.054
		c2.516-0.013,4.616-0.119,6.082-0.157c1.467-0.049,2.305-0.076,2.305-0.076s-0.837-0.051-2.303-0.14
		C83.235,453.138,81.145,453.048,78.639,452.826z M138.452,438.455c-1.1,0.142-2.223,0.286-3.386,0.436
		c-3.351,0.365-6.922,0.812-10.506,1.154c-1.792,0.179-3.584,0.358-5.348,0.534c-1.766,0.159-3.503,0.316-5.185,0.467
		c-3.365,0.313-6.507,0.548-9.204,0.745c-1.348,0.098-2.584,0.204-3.68,0.257c-1.097,0.062-2.052,0.116-2.839,0.162
		c-1.576,0.089-2.476,0.141-2.476,0.141s0.901,0.027,2.478,0.075c0.79,0.023,1.748,0.052,2.847,0.084
		c1.101,0.043,2.34,0.044,3.693,0.064c2.707,0.037,5.867,0.075,9.251,0.056c1.693-0.004,3.442-0.01,5.22-0.015
		c1.778-0.023,3.584-0.046,5.39-0.069c3.614-0.03,7.227-0.167,10.619-0.239c1.173-0.048,2.306-0.096,3.416-0.141
		C138.655,440.927,138.559,439.691,138.452,438.455z M99.159,424.999c0,0-1.068-0.047-2.936-0.129
		c-1.868-0.094-4.535-0.24-7.733-0.441c-6.398-0.402-14.922-1.033-23.434-1.756c-6.607-0.561-13.206-1.18-18.788-1.791
		c-0.197,1.284-0.386,2.573-0.567,3.869c5.72,0.209,12.475,0.347,19.234,0.424c8.56,0.099,17.116,0.105,23.533,0.037
		c3.208-0.033,5.881-0.083,7.752-0.125C98.091,425.03,99.159,424.999,99.159,424.999z"/>
</g>
<path opacity="0.5" fill="#7D868C" d="M280.627,153.118c-0.393-1.424-1.866-2.259-3.29-1.866c-0.052-0.188-0.124-0.363-0.211-0.529
	c-1.874-5.543-3.531-10.757-4.829-15.139c-0.351-1.184-0.675-2.307-0.97-3.358c-0.001-0.005-0.002-0.009-0.004-0.014
	c-0.065-0.233-0.129-0.461-0.191-0.686c-0.017-0.063-0.034-0.125-0.051-0.187c-0.058-0.209-0.114-0.416-0.17-0.619
	c-0.016-0.062-0.032-0.122-0.049-0.183c-0.095-0.351-0.185-0.692-0.272-1.023c-0.024-0.09-0.048-0.182-0.071-0.271
	c-0.037-0.141-0.072-0.279-0.107-0.416c-0.03-0.119-0.061-0.238-0.09-0.354c-0.031-0.124-0.062-0.246-0.092-0.367
	c-0.032-0.132-0.064-0.26-0.095-0.388c-0.025-0.1-0.05-0.203-0.073-0.3c-0.051-0.212-0.099-0.418-0.145-0.617
	c-0.015-0.066-0.029-0.128-0.043-0.193c-0.033-0.144-0.065-0.287-0.094-0.424c-0.016-0.072-0.031-0.142-0.045-0.212
	c-0.028-0.129-0.053-0.254-0.078-0.376c-0.012-0.058-0.024-0.118-0.035-0.175c-0.034-0.172-0.066-0.339-0.093-0.494
	c-3.891,2.594-21.399,3.242-30.477,3.242c-9.078,0-26.586-0.648-30.477-3.242c-0.028,0.156-0.059,0.324-0.093,0.498
	c-0.01,0.053-0.022,0.108-0.032,0.162c-0.026,0.128-0.053,0.26-0.082,0.396c-0.013,0.064-0.027,0.127-0.041,0.193
	c-0.031,0.144-0.065,0.295-0.099,0.448c-0.013,0.058-0.025,0.114-0.039,0.173c-0.047,0.203-0.096,0.413-0.148,0.63
	c-0.021,0.087-0.043,0.178-0.065,0.268c-0.034,0.137-0.068,0.276-0.103,0.419c-0.028,0.115-0.058,0.232-0.087,0.35
	c-0.031,0.122-0.063,0.247-0.095,0.373c-0.034,0.135-0.069,0.269-0.105,0.407c-0.021,0.08-0.043,0.164-0.065,0.246
	c-0.093,0.354-0.19,0.72-0.292,1.098c-0.011,0.04-0.021,0.079-0.032,0.12c-0.059,0.217-0.12,0.439-0.182,0.663l-0.034,0.123
	c-0.348,1.258-0.741,2.627-1.174,4.089c-1.981,6.692-4.803,15.329-7.953,24.102c-0.667-0.232-1.423-0.207-2.101,0.142
	c-0.436,0.224-0.775,0.558-1.022,0.943c14.168,13.709,33.466,22.149,54.738,22.149c13.07,0,25.395-3.189,36.244-8.826
	c-2.297-5.717-4.574-11.84-6.666-17.798C280.289,155.795,280.992,154.442,280.627,153.118z M309.084,109.368
	c-5.984-13.095-11.672-42.797-11.672-52.524s-8.785-17.399-12.137-19.404c-3.351-2.005-13.752-1.51-20.191,0.306
	c-13.326,12.569-26.031,35.756-26.031,46.98c0-11.225-12.705-34.411-26.031-46.98c-1.301-0.367-2.764-0.679-4.298-0.928
	c-12.308,7.46-22.406,18.198-29.088,31.002c-1.666,11.34-5.103,27.008-8.882,37.286c0.106,9.28,1.813,18.175,4.865,26.419
	c3.268-5.977,6.223-12.085,8.317-16.971c5.77-13.465,10.906-25.036,14.155-48.488c-0.684,8.605,12.329,31.793,9.189,46.543
	c3.242,6.484,27.235,5.187,31.774,5.187c4.539,0,28.531,1.297,31.774-5.187c-3.14-14.75,9.873-37.939,9.189-46.543
	c3.249,23.453,8.384,35.024,14.155,48.488c4.461,10.411,12.827,26.373,19.813,34.765c3.425-4.888,6.309-10.183,8.564-15.798
	C318.049,126.966,313.523,119.083,309.084,109.368z"/>
<g>
	<g>
		<path fill="#302A26" d="M249.469,200.786c14.914,3.242,27.235-2.594,29.828-4.696c2.594-2.102,18.156,1.454,29.828-10.218
			c-9.078-8.43-27.235-63.116-29.18-74.14c-3.891,2.594-21.399,3.242-30.477,3.242c-9.078,0-26.586-0.648-30.477-3.242
			c-1.945,11.023-20.102,65.71-29.18,74.14c11.672,11.672,27.235,8.116,29.828,10.218
			C222.234,198.192,234.554,197.544,249.469,200.786z"/>
		<path fill="#413C38" d="M279.945,111.732c-3.891,2.594-21.399,3.242-30.477,3.242c-9.078,0-26.586-0.648-30.477-3.242
			c-0.376,2.133-1.362,5.905-2.769,10.655c5.675,2.51,23.656,3.157,33.245,3.157c9.59,0,27.57-0.647,33.245-3.157
			C281.306,117.637,280.322,113.865,279.945,111.732z"/>
		<g>
			<defs>
				<path id="SVGID_1_" d="M249.469,200.786c14.914,3.242,27.235-2.594,29.828-4.696c2.594-2.102,18.156,1.454,29.828-10.218
					c-9.078-8.43-27.235-63.116-29.18-74.14c-3.891,2.594-21.399,3.242-30.477,3.242c-9.078,0-26.586-0.648-30.477-3.242
					c-1.945,11.023-20.102,65.71-29.18,74.14c11.672,11.672,27.235,8.116,29.828,10.218
					C222.234,198.192,234.554,197.544,249.469,200.786z"/>
			</defs>
			<clipPath id="SVGID_2_">
				<use xlink:href="#SVGID_1_"  overflow="visible"/>
			</clipPath>
			<g clip-path="url(#SVGID_2_)">
				<g>
					<g>
						<circle fill="#7DC9CB" cx="205.294" cy="178.995" r="2.675"/>
						<circle fill="#7DC9CB" cx="202.62" cy="181.67" r="2.675"/>
						<circle fill="#7DC9CB" cx="205.294" cy="184.345" r="2.675"/>
						<circle fill="#7DC9CB" cx="207.969" cy="181.67" r="2.675"/>
					</g>
					<circle fill="#FFFFFF" cx="205.294" cy="181.67" r="2.03"/>
				</g>
				<g>
					<g>
						<circle fill="#7DC9CB" cx="269.364" cy="146.647" r="2.675"/>
						<circle fill="#7DC9CB" cx="265.749" cy="147.758" r="2.675"/>
						<circle fill="#7DC9CB" cx="266.86" cy="151.374" r="2.675"/>
						<circle fill="#7DC9CB" cx="270.475" cy="150.262" r="2.675"/>
					</g>
					<circle fill="#FFFFFF" cx="268.112" cy="149.01" r="2.03"/>
				</g>
				<g>
					<g>
						<circle fill="#7DC9CB" cx="272.039" cy="121.929" r="2.675"/>
						<circle fill="#7DC9CB" cx="268.424" cy="123.04" r="2.675"/>
						<circle fill="#7DC9CB" cx="269.535" cy="126.656" r="2.675"/>
						<circle fill="#7DC9CB" cx="273.15" cy="125.544" r="2.675"/>
					</g>
					<circle fill="#FFFFFF" cx="270.787" cy="124.292" r="2.03"/>
				</g>
				<g>
					<g>
						<circle fill="#7DC9CB" cx="245.219" cy="163.592" r="2.675"/>
						<circle fill="#7DC9CB" cx="241.603" cy="164.703" r="2.675"/>
						<circle fill="#7DC9CB" cx="242.714" cy="168.319" r="2.675"/>
						<circle fill="#7DC9CB" cx="246.33" cy="167.207" r="2.675"/>
					</g>
					<circle fill="#FFFFFF" cx="243.967" cy="165.955" r="2.03"/>
				</g>
				<g>
					<g>
						<circle fill="#7DC9CB" cx="306.936" cy="182.818" r="2.675"/>
						<circle fill="#7DC9CB" cx="303.321" cy="183.929" r="2.675"/>
						<circle fill="#7DC9CB" cx="304.432" cy="187.545" r="2.675"/>
						<circle fill="#7DC9CB" cx="308.048" cy="186.433" r="2.675"/>
					</g>
					<circle fill="#FFFFFF" cx="305.684" cy="185.181" r="2.03"/>
				</g>
				<g>
					<g>
						<circle fill="#7DC9CB" cx="226.567" cy="123.181" r="2.675"/>
						<circle fill="#7DC9CB" cx="222.951" cy="124.292" r="2.675"/>
						<circle fill="#7DC9CB" cx="224.062" cy="127.908" r="2.675"/>
						<circle fill="#7DC9CB" cx="227.678" cy="126.797" r="2.675"/>
					</g>
					<circle fill="#FFFFFF" cx="225.314" cy="125.545" r="2.03"/>
				</g>
				<g>
					<g>
						<circle fill="#EE7498" cx="219.964" cy="157.93" r="2.675"/>
						<circle fill="#EE7498" cx="217.29" cy="160.605" r="2.675"/>
						<circle fill="#EE7498" cx="219.964" cy="163.28" r="2.675"/>
						<circle fill="#EE7498" cx="222.639" cy="160.605" r="2.675"/>
					</g>
					<circle fill="#FFFFFF" cx="219.964" cy="160.605" r="2.03"/>
				</g>
				<g>
					<g>
						<circle fill="#EE7498" cx="235.703" cy="176.077" r="2.675"/>
						<circle fill="#EE7498" cx="233.029" cy="178.752" r="2.675"/>
						<circle fill="#EE7498" cx="235.703" cy="181.427" r="2.675"/>
						<circle fill="#EE7498" cx="238.378" cy="178.752" r="2.675"/>
					</g>
					<circle fill="#FFFFFF" cx="235.703" cy="178.752" r="2.03"/>
				</g>
				<g>
					<g>
						<circle fill="#EE7498" cx="232.961" cy="130.346" r="2.675"/>
						<circle fill="#EE7498" cx="231.095" cy="133.636" r="2.675"/>
						<circle fill="#EE7498" cx="234.385" cy="135.502" r="2.675"/>
						<circle fill="#EE7498" cx="236.251" cy="132.212" r="2.675"/>
					</g>
					<circle fill="#FFFFFF" cx="233.673" cy="132.924" r="2.03"/>
				</g>
				<g>
					<g>
						<circle fill="#EE7498" cx="285.175" cy="138.766" r="2.675"/>
						<circle fill="#EE7498" cx="283.309" cy="142.056" r="2.675"/>
						<circle fill="#EE7498" cx="286.599" cy="143.923" r="2.675"/>
						<circle fill="#EE7498" cx="288.465" cy="140.633" r="2.675"/>
					</g>
					<circle fill="#FFFFFF" cx="285.887" cy="141.345" r="2.03"/>
				</g>
				<g>
					<g>
						<circle fill="#EE7498" cx="264.434" cy="125.32" r="2.676"/>
						<circle fill="#EE7498" cx="261.379" cy="127.551" r="2.675"/>
						<circle fill="#EE7498" cx="263.609" cy="130.606" r="2.675"/>
						<circle fill="#EE7498" cx="266.664" cy="128.376" r="2.675"/>
					</g>
					<circle fill="#FFFFFF" cx="264.021" cy="127.963" r="2.029"/>
				</g>
				<g>
					<g>
						<circle fill="#EE7498" cx="299.526" cy="163.001" r="2.676"/>
						<circle fill="#EE7498" cx="296.471" cy="165.232" r="2.675"/>
						<circle fill="#EE7498" cx="298.701" cy="168.287" r="2.675"/>
						<circle fill="#EE7498" cx="301.757" cy="166.056" r="2.675"/>
					</g>
					<circle fill="#FFFFFF" cx="299.114" cy="165.644" r="2.029"/>
				</g>
				<g>
					<g>
						<circle fill="#EE7498" cx="273.073" cy="192.896" r="2.675"/>
						<circle fill="#EE7498" cx="271.207" cy="196.186" r="2.675"/>
						<circle fill="#EE7498" cx="274.497" cy="198.053" r="2.675"/>
						<circle fill="#EE7498" cx="276.363" cy="194.762" r="2.675"/>
					</g>
					<circle fill="#FFFFFF" cx="273.785" cy="195.474" r="2.03"/>
				</g>
				<g>
					<g>
						<circle fill="#FED16E" cx="273.462" cy="154.065" r="2.675"/>
						<circle fill="#FED16E" cx="270.787" cy="156.739" r="2.675"/>
						<circle fill="#FED16E" cx="273.462" cy="159.414" r="2.675"/>
						<circle fill="#FED16E" cx="276.136" cy="156.739" r="2.675"/>
					</g>
					<circle fill="#FFFFFF" cx="273.462" cy="156.739" r="2.03"/>
				</g>
				<g>
					<g>
						<circle fill="#FED16E" cx="240.74" cy="181.115" r="2.675"/>
						<circle fill="#FED16E" cx="240.041" cy="184.833" r="2.675"/>
						<circle fill="#FED16E" cx="243.759" cy="185.531" r="2.675"/>
						<circle fill="#FED16E" cx="244.457" cy="181.814" r="2.675"/>
					</g>
					<circle fill="#FFFFFF" cx="242.249" cy="183.324" r="2.03"/>
				</g>
				<g>
					<g>
						<circle fill="#FED16E" cx="242.763" cy="135.411" r="2.675"/>
						<circle fill="#FED16E" cx="239.422" cy="137.185" r="2.675"/>
						<circle fill="#FED16E" cx="241.197" cy="140.526" r="2.675"/>
						<circle fill="#FED16E" cx="244.537" cy="138.751" r="2.675"/>
					</g>
					<circle fill="#FFFFFF" cx="241.979" cy="137.969" r="2.03"/>
				</g>
				<g>
					<g>
						<circle fill="#FED16E" cx="207.392" cy="149.01" r="2.675"/>
						<circle fill="#FED16E" cx="206.236" cy="152.612" r="2.675"/>
						<circle fill="#FED16E" cx="209.837" cy="153.769" r="2.675"/>
						<circle fill="#FED16E" cx="210.993" cy="150.167" r="2.675"/>
					</g>
					<circle fill="#FFFFFF" cx="208.614" cy="151.389" r="2.029"/>
				</g>
				<g>
					<g>
						<circle fill="#FED16E" cx="280.537" cy="168.63" r="2.675"/>
						<circle fill="#FED16E" cx="277.863" cy="171.305" r="2.675"/>
						<circle fill="#FED16E" cx="280.537" cy="173.98" r="2.675"/>
						<circle fill="#FED16E" cx="283.211" cy="171.305" r="2.675"/>
					</g>
					<circle fill="#FFFFFF" cx="280.537" cy="171.305" r="2.03"/>
				</g>
				<g>
					<g>
						<circle fill="#EE7498" cx="272.512" cy="177.801" r="2.675"/>
						<circle fill="#EE7498" cx="271.433" cy="181.427" r="2.675"/>
						<circle fill="#EE7498" cx="275.059" cy="182.506" r="2.675"/>
						<circle fill="#EE7498" cx="276.137" cy="178.88" r="2.675"/>
					</g>
					<circle fill="#FFFFFF" cx="273.785" cy="180.153" r="2.029"/>
				</g>
				<g>
					<g>
						<circle fill="#EE7498" cx="214.517" cy="182.829" r="2.675"/>
						<circle fill="#EE7498" cx="210.741" cy="183.063" r="2.675"/>
						<circle fill="#EE7498" cx="210.975" cy="186.838" r="2.675"/>
						<circle fill="#EE7498" cx="214.75" cy="186.604" r="2.675"/>
					</g>
					<circle fill="#FFFFFF" cx="212.746" cy="184.833" r="2.03"/>
				</g>
			</g>
		</g>
	</g>
	<g>
		<path fill="#302A26" d="M249.469,71.529c0-11.225,12.705-34.411,26.031-46.98c6.439-1.816,16.84-2.311,20.191-0.306
			c3.352,2.005,12.137,9.677,12.137,19.404s5.688,39.429,11.672,52.524c7.408,16.211,15.057,27.352,22.415,35.664
			c0,0-4.888,9.51-11.608,9.51c-7.368-3.242-19.885-26.37-25.721-39.987c-5.836-13.617-11.024-25.289-14.266-49.282
			c1.659,7.879-12.321,32.107-9.078,47.336c-3.243,6.484-27.235,5.187-31.774,5.187c-4.539,0-28.532,1.297-31.774-5.187
			c3.242-15.23-10.737-39.457-9.078-47.336c-3.242,23.993-8.43,35.664-14.266,49.282c-5.836,13.617-18.353,36.745-25.721,39.987
			c-6.72,0-11.608-9.51-11.608-9.51c7.357-8.312,15.007-19.453,22.415-35.664c5.984-13.095,11.672-42.797,11.672-52.524
			s8.785-17.399,12.137-19.404c3.352-2.005,13.753-1.51,20.192,0.306C236.764,37.118,249.469,60.304,249.469,71.529z"/>
		<path opacity="0.5" fill="#C4C6C9" d="M226.004,83.395c-0.963-3.724-1.795-6.94-1.937-8.496c-0.049-0.535-0.529-0.933-1.057-0.881
			c-0.535,0.048-0.93,0.522-0.881,1.057c0.156,1.713,0.966,4.844,1.991,8.807c1.524,5.89,3.498,13.53,4.214,20.068
			c0.65,0.091,1.311,0.172,1.981,0.243C229.627,97.403,227.578,89.479,226.004,83.395z"/>
		<path opacity="0.5" fill="#C4C6C9" d="M272.932,83.395c0.964-3.724,1.795-6.94,1.937-8.496c0.05-0.535,0.529-0.933,1.057-0.881
			c0.536,0.048,0.93,0.522,0.881,1.057c-0.156,1.713-0.965,4.844-1.991,8.807c-1.524,5.89-3.498,13.53-4.213,20.068
			c-0.65,0.091-1.311,0.172-1.981,0.243C269.31,97.403,271.359,89.479,272.932,83.395z"/>
	</g>
</g>
<g>
	<g>
		<path fill="#343E48" d="M249.468,231.704c-31.009,0-56.148,25.139-56.148,56.147v91.639h112.298v-91.639
			C305.618,256.843,280.479,231.704,249.468,231.704z"/>
		<rect x="205.345" y="297.664" opacity="0.3" fill="#7D868C" width="88.248" height="81.826"/>
		<g>
			<path fill="#F5D2A0" d="M301.71,396.383c-0.445-3.254-2.344-6.129-5.165-7.811l-12.659-7.556
				c-5.118-3.056-11.741-1.38-14.797,3.738c-3.054,5.119-1.381,11.741,3.738,14.798l8.195,4.892l13.209,97.021h21.783
				L301.71,396.383z"/>
			<path fill="#F5D2A0" d="M229.847,384.754c-3.056-5.118-9.679-6.791-14.798-3.738l-12.661,7.556
				c-2.819,1.682-4.72,4.557-5.162,7.811l-14.304,105.082h21.782l13.207-97.021l8.198-4.892
				C231.226,396.496,232.901,389.873,229.847,384.754z"/>
		</g>
		<g>
			<path fill="#F5D2A0" d="M208.575,297.295c-7.514,0-13.604,6.09-13.604,13.604c0,7.514,6.09,13.606,13.604,13.606V297.295z"/>
			<path fill="#F5D2A0" d="M290.363,297.295c7.514,0,13.604,6.09,13.604,13.604c0,7.514-6.09,13.606-13.604,13.606V297.295z"/>
			<circle fill="#AA3439" cx="201.167" cy="324.505" r="4.175"/>
			<circle fill="#AA3439" cx="297.768" cy="324.505" r="4.175"/>
			<rect x="239.052" y="354.868" fill="#F5D2A0" width="20.834" height="20.832"/>
			<path opacity="0.5" fill="#7D868C" d="M239.052,354.868v8.045c0.593,0.034,1.187,0.056,1.784,0.056h16.67
				c0.797,0,1.59-0.04,2.379-0.102v-8H239.052z"/>
			<path fill="#F5D2A0" d="M270.456,254.669h-42.571c-16.619,0-22.847,13.493-20.797,29.985l-0.199,44.168
				c2.052,16.492,17.326,29.985,33.947,29.985h16.67c16.621,0,31.895-13.493,33.947-29.985l-0.2-44.168
				C293.303,268.162,287.075,254.669,270.456,254.669z"/>
			<path opacity="0.5" fill="#7D868C" d="M291.625,278.301c0.33-14.199-6.219-23.632-21.169-23.632h-42.571
				c-16.619,0-22.847,13.493-20.797,29.985l-0.199,44.168c2.052,16.492,17.326,29.985,33.947,29.985h5.811
				c-16.621,0-31.895-13.493-33.947-29.985l0.117-25.895C228.816,299.939,273.729,289.874,291.625,278.301z"/>
			<path fill="#EF7F89" d="M246.442,307.068c0-1.672,1.355-3.03,3.025-3.03c1.673,0,3.027,1.358,3.027,3.03v9.788
				c0,1.671-1.354,3.028-3.027,3.028c-1.671,0-3.025-1.356-3.025-3.028V307.068z"/>
			<circle fill="#4C3D2A" cx="229.15" cy="307.038" r="3.226"/>
			<circle fill="#4C3D2A" cx="269.786" cy="307.038" r="3.226"/>
			<g>
				<path fill="#4C3D2A" d="M232.376,326.929c0,9.44,7.652,17.092,17.092,17.092c9.44,0,17.092-7.652,17.092-17.092H232.376z"/>
				<path fill="#EF7F89" d="M249.468,334.982c-4.411,0-8.368,1.899-11.134,4.909c2.993,2.572,6.88,4.13,11.134,4.13
					c4.257,0,8.144-1.557,11.136-4.13C257.838,336.881,253.878,334.982,249.468,334.982z"/>
			</g>
			<path fill="#343E48" d="M301.268,270.152c-1.786,7.648-78.207,28.599-90.617,29.678c-10.143-5.883-13.194-11.979-13.194-11.979
				s-2.182-31.13,15.623-37.499C230.885,243.984,285.588,234.002,301.268,270.152z"/>
			<path fill="#974F15" d="M295.715,266.916"/>
		</g>
		<path fill="#7DC9CB" d="M266.916,375.7h-34.895c-16.618,0-29.305,13.565-28.192,30.148l3.108,94.494l0.088,1.123h84.889
			l0.088-1.123l3.106-94.494C296.221,389.265,283.535,375.7,266.916,375.7z"/>
		<path fill="none" stroke="#008A96" stroke-width="3" stroke-linecap="round" stroke-linejoin="round" stroke-miterlimit="10" d="
			M254.981,421.776c0,9.833,7.973,17.806,17.806,17.806c9.834,0,17.806-7.972,17.806-17.806"/>
		<path fill="none" stroke="#008A96" stroke-width="3" stroke-linecap="round" stroke-linejoin="round" stroke-miterlimit="10" d="
			M243.955,421.776c0,9.833-7.971,17.806-17.805,17.806c-9.836,0-17.808-7.972-17.808-17.806"/>
		<polygon fill="#F5D2A0" points="238.904,375.7 249.171,388.142 259.737,375.7 		"/>
	</g>
	<polygon fill="#EB5A5E" points="205.51,456.96 206.937,500.342 207.025,501.465 291.914,501.465 292.002,500.342 293.427,456.96 	
		"/>
	<path fill="#343E48" d="M206.316,269.936v48.267c2.464-2.254,4.02-5.485,4.02-9.086v-37.499L206.316,269.936z"/>
	<path fill="#343E48" d="M292.619,269.936v48.267c-2.465-2.254-4.02-5.485-4.02-9.086v-37.499L292.619,269.936z"/>
</g>
<g>
	<path fill="#48749A" d="M415.997,320.9l39.101-21.263v-23.692l-14.626-3.386c2.508,10.054-15.936,17.406-24.475,17.406
		s-26.983-7.351-24.475-17.406l-14.626,3.386v23.692L415.997,320.9z"/>
	<path fill="#A1C4E9" d="M415.997,386.295c15.224,0,42.707,1.568,40.122-8.903s-2.116-19.615,0-33.635
		c2.116-14.019,8.226-22.649,3.525-33.042c-4.701-10.394-4.701-33.796,0-38.157c0,0-9.143-2.054-19.173,0
		c2.09,1.696,9.194,7.993,9.194,11.74c-0.255,2.217-1.243,4.76-3.343,6.3c-4.27,3.13-15.461,8.313-19.641,10.82
		s-8.833,9.066-10.685,9.066s-6.506-6.558-10.685-9.066c-4.179-2.507-15.37-7.69-19.64-10.82c-2.1-1.54-3.088-4.083-3.343-6.3
		c0-3.747,7.104-10.043,9.194-11.74c-10.03-2.054-19.173,0-19.173,0c4.701,4.361,4.701,27.764,0,38.157
		c-4.701,10.393,1.409,19.023,3.525,33.042c2.116,14.019,2.585,23.163,0,33.635S400.773,386.295,415.997,386.295z"/>
	<g>
		<path fill="#246EB6" d="M415.997,382.407c12.09,0,33.042-2.427,40.122-5.015c9.063,17.806,11.591,58.69,6.706,86.583
			c-5.2,7.522-34.111,9.402-46.828,9.402s-41.629-1.88-46.828-9.402c-4.885-27.894-2.357-68.778,6.706-86.583
			C382.955,379.98,403.907,382.407,415.997,382.407z"/>
		<path opacity="0.5" fill="#7D868C" d="M383.582,390.214c-0.94,1.989,2.194,16.72,1.567,20.481
			c2.821-7.209-0.313-16.516,1.567-20.481H383.582z"/>
		<path opacity="0.5" fill="#7D868C" d="M452.325,390.214c0.627,3.348-1.254,16.301-0.836,20.481
			c-1.671-1.88-0.209-14.218-1.462-20.481H452.325z"/>
		<path opacity="0.5" fill="#7D868C" d="M409.053,393.015c-0.397,2.01-2.278,18.725-1.86,25.621
			c-1.462-6.686-0.956-22.985-0.06-26.536L409.053,393.015z"/>
		<path fill="#FFFFFF" d="M459.874,387.254c-13.424,2.337-32.108,4.039-43.877,4.039s-30.453-1.702-43.877-4.039
			c-0.172,0.591-0.336,1.2-0.499,1.811c13.593,2.377,32.495,4.109,44.376,4.109s30.784-1.732,44.376-4.109
			C460.21,388.454,460.046,387.845,459.874,387.254z"/>
	</g>
</g>
</svg>
