<?xml version="1.0" encoding="utf-8"?>
<!-- Generator: Adobe Illustrator 17.0.0, SVG Export Plug-In . SVG Version: 6.00 Build 0)  -->
<!DOCTYPE svg PUBLIC "-//W3C//DTD SVG 1.1//EN" "http://www.w3.org/Graphics/SVG/1.1/DTD/svg11.dtd">
<svg version="1.1" id="Слой_1" xmlns="http://www.w3.org/2000/svg" xmlns:xlink="http://www.w3.org/1999/xlink" x="0px" y="0px"
	 width="3200px" height="400px" viewBox="0 0 3200 400" enable-background="new 0 0 3200 400" xml:space="preserve">
<g>
	<g transform="translate(0.000000,150.000000) scale(0.100000,-0.100000)">
		<path fill="none" stroke="#000000" stroke-width="20" stroke-miterlimit="10" d="M2304.543,406.766
			c-103.408-19.697-295.453-73.863-430.868-120.643s-248.672-81.249-253.597-76.325s4.924,32.007,19.697,61.553
			c24.621,49.242,24.621,51.704-19.697,27.083c-27.083-14.773-78.787-61.553-115.719-103.408
			c-34.469-44.318-160.037-135.416-278.218-206.817c-337.308-199.43-620.45-401.323-770.638-546.587
			c-76.325-73.863-145.264-125.567-152.65-113.257c-9.848,14.773-22.159,68.939-32.007,125.567
			c-24.621,164.961,54.166,292.99,285.604,465.338C743.569,57.147,901.144,224.57,901.144,281.199
			c0,14.773-14.773,4.924-29.545-22.159C824.818,172.866,721.41,71.92,581.07-24.102
			C416.109-137.359,268.383-294.934,246.224-383.569c-9.848-34.469-7.386-137.878,2.462-226.514
			c9.848-91.098,14.773-192.044,12.311-226.514c-4.924-34.469-7.386-98.484-7.386-140.34c0-44.318-9.848-81.249-22.159-81.249
			c-36.932,0-19.697-71.401,19.697-93.56c29.545-14.773,36.932-41.856,27.083-78.787c-7.386-32.007-4.924-46.78,7.386-34.469
			c9.848,12.311,24.621,49.242,29.545,83.712c9.848,68.939,4.924,68.939,211.741-7.386
			c118.181-44.318,145.264-64.015,123.105-86.174c-17.235-17.235-44.318-29.545-59.09-29.545c-17.235,0-36.932-9.849-44.318-22.159
			c-24.621-36.932,76.325,0,128.029,46.78c71.401,66.477,251.135,88.636,344.694,39.394c41.856-22.159,91.098-39.394,108.333-39.394
			c17.235,2.462-2.462,17.235-44.318,34.469c-192.044,83.712-71.401,145.264,273.294,140.34
			c135.416-2.462,305.301,7.386,376.702,19.697c123.105,24.621,553.973,199.43,534.276,219.127
			c-4.924,4.924-83.711-24.621-177.271-64.015c-91.098-41.856-211.741-86.174-265.907-98.484
			c-150.188-39.394-421.02-61.552-517.042-44.318l-86.174,17.235l66.477,56.628c39.394,32.007,96.022,66.477,130.492,76.325
			c34.469,9.848,81.249,34.469,105.87,56.628c39.394,34.469,46.78,32.007,105.87-22.159c51.704-49.242,88.636-59.091,201.892-56.628
			c78.787,0,172.347,17.235,214.203,39.394c88.636,49.242,184.658,135.416,184.658,169.885c0,34.469-113.257,71.401-228.975,71.401
			h-103.408l135.416,78.787c118.181,66.477,160.037,76.325,324.998,78.787c103.408,2.462,196.968,9.848,206.817,22.159
			c9.848,9.848-14.773,51.704-54.166,93.56c0,0-87.237,55.541-71.401,76.325c16.853,22.119,98.484-51.704,98.484-51.704
			c108.333-56.628,211.741-66.477,329.922-24.621c64.015,22.159,96.022,19.697,169.885-12.311
			c51.704-22.159,145.264-49.242,211.741-59.09c91.098-12.311,132.954-34.469,172.347-86.174
			c64.015-86.174,41.856-125.567-135.416-233.9c-209.279-125.567-337.308-155.112-610.602-137.878
			c-196.968,14.773-251.135,9.848-317.611-24.621c-44.318-22.159-86.174-56.628-93.56-73.863
			c-14.772-34.469,125.567-310.225,172.347-339.77c46.78-32.007,224.051-22.159,275.756,17.235
			c59.09,44.318,83.711,46.78,83.711,2.462c0-73.863,209.279-86.174,418.558-24.621
			c406.247,120.643,723.858,851.888,536.739,1238.438C3557.753,276.274,2895.448,520.023,2304.543,406.766z"/>
	</g>
</g>
<g>
	<g transform="translate(0.000000,150.000000) scale(0.100000,-0.100000)">
		<path fill="none" stroke="#000000" stroke-width="20" stroke-miterlimit="10" d="M4378.676,664.88
			c-30.59-40.787-53.533-79.025-50.984-89.222c5.099-10.197-17.844-35.689-48.435-58.632
			c-40.787-28.041-58.632-76.476-71.377-196.288c-10.197-89.222-22.943-191.19-28.042-229.428
			c-5.098-40.787,2.549-71.378,15.295-71.378c25.492,0,17.844-407.872-7.648-448.659c-7.647-15.295,7.648-63.73,35.689-109.616
			c38.238-66.279,43.336-91.771,20.394-119.812s-20.394-45.886,5.099-79.025c20.394-22.943,38.238-94.32,38.238-158.05
			c2.549-63.73,7.648-117.263,10.197-117.263c0,0,5.099-43.336,10.197-96.87c5.099-53.533,20.394-109.616,35.689-124.911
			c17.844-17.844,30.59-58.632,30.59-94.32c0-38.238,17.845-89.222,38.238-114.714c20.394-28.041,38.238-89.222,38.238-135.108
			c0-53.533,12.746-84.124,33.14-84.124c17.844,0,56.083-20.394,84.124-48.435c71.378-63.73,221.781-109.616,300.806-89.222
			c73.927,17.844,152.952,114.714,260.019,316.101c79.025,147.854,458.856,678.087,525.136,734.17
			c25.492,20.394,147.854,38.238,305.904,48.435c239.625,12.746,277.863,10.197,390.028-43.336
			c140.206-61.181,122.362-94.32-28.041-53.533c-91.771,25.492-137.657,17.844-137.657-20.394c0-10.197,63.73-38.238,140.206-63.73
			c76.476-28.041,132.558-58.632,124.911-71.378c-12.746-17.844,33.14-30.59,112.165-28.041
			c48.435,2.549,35.688-35.689-25.492-79.025c-91.771-66.279-22.943-45.886,101.968,25.492
			c94.32,56.082,132.558,63.73,231.977,50.984c168.247-20.394,282.961,15.295,463.955,140.206
			c305.904,214.133,563.374,517.488,525.135,619.456c-10.197,22.943-180.993,73.927-469.053,142.755
			c-882.023,209.034-943.205,226.879-1055.369,303.355c-117.264,76.476-288.06,155.501-341.593,155.501
			c-25.492,0-124.911-244.723-127.46-318.65c0-12.746-45.886-28.041-99.419-33.14c-89.222-7.648-112.165,5.098-242.174,130.009
			c-163.149,158.05-226.879,203.936-474.151,336.495C4539.276,766.848,4478.095,784.692,4378.676,664.88z"/>
	</g>
</g>
<g>
	<g transform="translate(0.000000,150.000000) scale(0.100000,-0.100000)">
		<path fill="none" stroke="#000000" stroke-width="20" stroke-miterlimit="10" d="M8201.101,668.577
			c7.491-44.948,57.435-132.347,109.874-194.776s117.364-144.833,144.833-187.284c72.416-114.868,259.7-359.586,287.169-374.568
			c12.485-9.988,24.971-79.908,24.971-157.319c0-317.135,7.492-392.048,49.942-399.54c52.44-9.989,147.331,109.873,147.331,184.787
			c0,94.891,44.948,92.394,207.261-9.988c84.902-52.44,204.764-122.359,267.192-154.822
			c62.428-29.965,114.867-57.434,119.861-62.428c2.497-2.497-12.485-54.937-32.462-114.868
			c-22.475-59.931-44.948-164.81-49.942-232.232c-7.492-67.422-24.972-137.342-39.954-157.319
			c-47.445-57.434,0-69.919,84.901-24.971c127.354,69.919,204.765,204.764,199.771,344.603l-4.994,119.862l92.394-39.954
			c49.942-19.977,127.353-52.44,167.307-69.919c184.787-84.902,262.198-107.376,307.146-94.891
			c42.451,9.988,52.439-14.983,92.394-204.764c37.457-169.804,59.931-224.741,104.879-254.707
			c49.942-34.96,64.925-32.463,137.342,9.989c44.948,24.971,102.382,89.896,129.851,142.336
			c42.451,89.896,44.948,99.885,7.491,179.793c-47.445,94.891-42.451,99.885,54.937,47.445
			c89.896-44.948,194.775-177.296,309.644-387.054c99.885-177.296,272.186-364.58,314.637-339.609
			c39.954,24.971,34.96,139.839-9.988,267.192c-22.474,59.931-34.96,119.862-27.468,137.342
			c4.994,14.983,67.422,32.463,134.844,39.954c117.365,12.486,279.678,94.891,279.678,144.833
			c0,22.474-199.77,89.896-342.105,114.868c-199.77,37.457-304.648,67.422-399.539,124.856
			c-109.874,62.428-174.799,132.347-99.886,102.382c59.932-22.474,292.164,52.44,292.164,94.891
			c0,19.977-64.926,104.879-142.336,189.781L10977.901-392.7l-217.25-14.983l-214.753-14.983l-234.729,164.81
			c-259.7,184.787-886.479,574.338-1066.271,666.732c-169.805,84.902-551.864,217.25-661.738,229.735
			c-52.439,4.994-147.33,32.463-209.758,59.931C8208.592,770.959,8181.124,765.965,8201.101,668.577z"/>
	</g>
</g>
<g>
	<g transform="translate(0.000000,150.000000) scale(0.100000,-0.100000)">
		<path fill="none" stroke="#000000" stroke-width="20" stroke-miterlimit="10" d="M15344.226,652.718
			c-57.864-28.932-215.678-165.704-347.188-302.475l-244.61-249.871l-373.491-5.26c-384.013-5.26-423.466-13.151-862.713-165.704
			c-65.756-21.042-207.787-92.058-315.626-155.183c-418.205-239.35-1078.391-1033.677-1078.391-1296.699
			c0-81.537,142.031-249.871,244.61-289.324c113.1-44.714,718.05,60.495,973.182,168.334c55.234,21.042,113.1,39.453,131.511,36.823
			c94.688-10.521,157.813,10.521,241.98,84.167c49.975,44.714,92.058,94.688,92.058,113.099
			c0,34.193,334.038,205.157,486.591,249.871c160.443,44.714,526.044,405.054,644.404,633.883l47.344,94.688L15244.277-402
			c210.418,23.672,297.215,47.344,447.138,120.99c157.813,81.537,186.746,105.209,186.746,160.443
			c0,60.495-10.521,68.386-102.579,68.386c-160.443,0-226.199,39.453-310.366,189.376c-97.317,170.964-99.948,189.376-13.15,352.45
			c44.714,81.537,57.864,131.511,36.822,136.771c-21.041,7.891-21.041,21.042,2.631,47.344
			C15536.232,728.995,15470.477,718.474,15344.226,652.718z"/>
	</g>
</g>
<g>
	<g transform="translate(0.000000,150.000000) scale(0.100000,-0.100000)">
		<path fill="none" stroke="#000000" stroke-width="20" stroke-miterlimit="10" d="M19257.99,667.915
			c-63.447-71.061-164.965-203.032-225.873-294.397c-159.889-238.563-192.881-266.48-296.936-230.949
			c-45.682,15.227-139.584,55.834-208.107,91.365s-139.586,63.448-154.813,63.448c-17.766,0-45.682,17.765-63.447,38.069
			c-17.766,20.303-58.373,38.069-93.902,38.069c-32.994,0-81.213,10.152-106.592,25.379
			c-25.381,12.69-116.744,30.455-203.033,40.606c-121.82,12.69-154.813,7.614-154.813-17.765c0-30.455-5.076-30.455-22.84,0
			c-17.766,27.917-27.918,25.379-53.297-12.69c-25.379-40.606-27.918-40.606-15.227-2.538c7.613,22.841,2.537,43.144-12.691,43.144
			c-55.832,0-375.609-180.191-456.822-258.866c-50.758-45.682-182.729-162.426-299.473-256.328
			c-126.895-104.054-223.336-208.108-246.176-258.866c-17.766-45.682-43.145-88.827-53.297-93.902
			c-12.689-2.538-68.523-81.213-129.434-170.04c-78.674-121.819-106.591-187.805-106.591-261.404
			c0-190.343-58.372-464.436-119.282-553.263c-30.454-48.22-58.371-116.744-58.371-154.812
			c0-142.123,131.971-185.267,659.855-215.722c390.836-22.841,383.223-22.841,862.887,12.689
			c365.459,27.917,406.064,35.531,583.719,119.281c294.396,137.047,502.504,375.61,573.566,652.241
			c114.205,454.285,134.508,548.187,137.047,629.4c0,144.661,38.068,170.04,367.996,251.253
			c408.602,98.978,494.891,134.509,494.891,215.722c0,43.144-20.303,73.599-55.834,88.827
			c-32.992,12.69-43.145,22.841-25.379,22.841c15.227,2.538,30.455,20.303,30.455,40.606c0,22.841-15.229,30.455-40.607,20.303
			c-35.529-12.69-35.529-5.076,5.076,55.834c0,0,59.701,55.265,45.682,71.061c-16.385,18.465-88.826-43.144-88.826-43.144
			s-73.047-63.303-86.289-43.144c-11.371,17.315,63.449,53.296,63.449,53.296c40.605,35.531,53.295,58.372,32.992,65.986
			c-17.766,7.614-22.842,30.455-15.229,53.296c12.689,30.455,7.615,35.531-20.303,20.303c-27.916-15.227-30.455-12.69-2.537,15.227
			c45.682,50.758,38.068,86.289-12.689,45.682c-35.531-30.455-40.607-30.455-20.305,0c15.229,27.917,10.152,32.993-20.303,20.303
			c-27.916-10.152-35.531-5.076-25.379,22.841c7.613,22.841,0,35.531-20.303,30.455s-32.992,7.614-27.918,25.379
			c2.539,15.227-17.764,30.455-48.219,30.455c-32.994,0-45.684,10.152-32.994,30.455c12.689,17.765,5.076,22.841-22.84,12.69
			c-25.379-10.152-35.531-5.076-27.918,17.765C19471.174,843.03,19362.045,784.659,19257.99,667.915z"/>
	</g>
</g>
<g>
	<g transform="translate(0.000000,150.000000) scale(0.100000,-0.100000)">
		<path fill="none" stroke="#000000" stroke-width="20" stroke-miterlimit="10" d="M20494.129,781.135
			c0-53.079,12.639-108.685,25.275-121.323c30.332-30.331,42.969-399.355,17.693-477.71
			c-15.166-48.024-136.488-121.323-300.779-187.04c-88.465-32.858-90.992-73.299-7.584-93.52
			c68.244-17.693,411.994,2.528,523.207,30.331c58.133,12.638,85.938,0,169.346-83.41c53.08-55.606,106.158-126.378,113.742-154.182
			c10.109-30.331,40.439-55.606,65.717-55.606c27.803,0,108.684-70.772,189.566-169.347
			c133.961-154.182,144.072-174.402,128.906-262.867c-12.639-83.41-7.582-98.575,40.441-113.74
			c53.078-17.693,111.213-27.803,184.512-32.858c15.166-2.528,83.41-55.606,151.654-118.796
			c70.771-63.189,197.15-166.819,285.615-230.008c85.938-60.662,156.709-131.433,156.709-154.182
			c0-63.189-85.938-181.985-207.262-290.67c-85.936-75.827-101.102-101.103-70.771-118.796
			c70.771-45.496,290.67,35.386,515.623,189.567l98.576,68.244l166.818-88.465c166.82-88.465,609.145-270.45,659.695-270.45
			c12.639,0,25.275,17.693,25.275,37.913c0,32.858,7.584,35.386,58.135,2.528c65.717-40.441,346.275-55.606,346.275-17.693
			c0,37.914-341.221,454.962-490.348,596.506c-73.299,70.772-204.732,189.567-293.197,265.394
			c-358.914,308.363-331.111,270.45-356.387,492.875c-12.637,111.213-35.385,235.064-53.078,275.505
			c-25.275,63.189-32.859,68.244-58.135,30.331c-17.693-22.748-80.883-80.882-141.543-128.906
			c-131.434-103.63-245.174-113.74-414.521-37.913c-171.875,78.355-500.457,202.205-535.844,202.205
			c-17.693,0-55.607,25.276-83.41,55.606c-35.385,40.441-75.826,55.606-126.379,50.551
			c-106.156-12.638-343.748,113.74-376.605,194.623c-12.639,35.386-48.025,141.544-75.828,235.064s-68.244,207.26-90.992,252.757
			c-60.662,121.323-199.678,323.528-219.898,323.528C20501.713,877.182,20494.129,834.214,20494.129,781.135z"/>
	</g>
</g>
<g>
	<g transform="translate(0.000000,150.000000) scale(0.100000,-0.100000)">
		<path fill="none" stroke="#000000" stroke-width="20" stroke-miterlimit="10" d="M25618.205,603.33
			c-30.955-19.699-53.469-28.141-53.469-14.071c0,11.257-67.539-45.026-146.336-123.823l-149.148-146.336l-298.301-42.212
			c-166.035-25.327-368.654-45.026-450.264-45.026c-84.426-2.814-188.549-16.885-230.76-36.584l-81.611-33.77l64.725-84.425
			l64.727-84.425l-70.354,64.725c-81.611,70.354-123.822,53.469-75.982-33.77c118.193-225.132,686.652-703.538,903.342-759.821
			c56.283-14.071,90.053-53.469,135.08-154.778c39.398-95.681,81.609-149.15,137.893-171.663
			c112.566-45.026,239.203-2.814,236.389,81.61c-2.814,67.54,19.699,70.354,250.459,22.513
			c115.381-25.327,174.479-53.469,208.248-104.124c104.123-157.592,185.734-222.318,306.742-242.017
			c149.15-22.513,219.504,0,278.602,90.053c36.584,56.283,39.398,78.796,11.256,112.566c-25.326,33.77-19.699,39.398,45.027,39.398
			c129.451,0,244.83-78.796,436.193-301.114c101.309-115.38,216.689-236.389,258.9-264.53l73.168-53.469l2.814,258.902
			l2.814,258.902l171.664,163.221c98.494,95.681,160.406,177.291,149.148,194.176c-14.07,22.513-75.98,25.327-219.504,8.442
			c-109.75-11.257-298.299-22.513-419.307-25.327h-219.504l-11.258,157.592c-8.441,154.778-73.168,326.441-137.893,368.654
			c-16.885,11.257-104.123,22.513-191.363,22.513c-236.389,0-256.088,14.071-191.361,126.637
			c45.025,81.61,47.84,101.309,14.07,166.035c-22.514,42.212-42.213,84.425-45.025,95.681
			c-2.814,11.257-11.258,42.212-19.699,70.354c-5.629,25.327-22.514,47.841-36.584,47.841
			c-30.957,0-137.895,104.124-137.895,135.079c0,11.257-39.398,45.026-84.424,75.982c-45.027,30.956-84.424,64.725-84.424,78.796
			c0,11.257-19.699,19.699-42.213,19.699s-42.213,14.071-42.213,28.142c0,16.885-25.326,28.141-56.283,28.141
			c-30.955,0-56.283,8.442-56.283,22.513C25818.01,653.985,25674.488,642.728,25618.205,603.33z"/>
	</g>
</g>
<g>
	<g transform="translate(0.000000,150.000000) scale(0.100000,-0.100000)">
		<path fill="none" stroke="#000000" stroke-width="20" stroke-miterlimit="10" d="M29751.313,502.205
			c-28.984-71.145-65.873-192.354-84.318-276.673l-34.256-147.559l-173.908-57.97c-155.463-50.065-266.133-100.129-479.566-213.434
			c-65.875-36.89-329.373-266.133-635.031-550.711c-139.654-131.749-152.828-152.829-137.02-223.974
			c15.811-86.954,68.51-118.574,274.039-171.274c65.875-15.81,179.178-44.795,250.322-65.875
			c384.709-108.034,587.602-126.479,869.545-81.684c210.799,31.62,239.783,31.62,263.498-2.635
			c15.811-23.715,63.24-97.494,105.4-163.369c63.238-97.494,97.494-123.844,163.369-129.114
			c105.398-10.54,144.924,55.335,134.383,213.434c-7.904,92.224-21.08,115.939-86.953,147.559l-79.051,39.525l284.578,139.654
			l284.578,142.289l144.924-65.875c176.545-81.685,271.404-89.589,276.674-21.08c15.811,189.719-31.619,347.818-108.035,347.818
			c-79.049,0-42.158,44.795,55.336,65.875c50.064,10.54,176.543-7.905,353.088-52.7c305.656-76.414,424.23-79.049,418.961-5.27
			c-2.635,23.715-52.699,121.209-113.305,213.434l-110.668,168.639l28.984,166.004c71.145,453.217,7.904,492.742-318.832,187.084
			c-92.225-84.319-194.99-168.639-226.609-187.084c-73.779-39.525-229.244-36.89-371.533,5.27l-113.303,34.255l100.129,65.875
			c55.334,34.255,100.129,76.414,100.129,94.859c0,92.224-782.59,505.917-964.404,508.552
			C29811.918,626.049,29780.299,570.714,29751.313,502.205z"/>
	</g>
</g>
</svg>
