<?xml version="1.0" encoding="utf-8"?>
<!-- Generator: Adobe Illustrator 17.0.0, SVG Export Plug-In . SVG Version: 6.00 Build 0)  -->
<!DOCTYPE svg PUBLIC "-//W3C//DTD SVG 1.1//EN" "http://www.w3.org/Graphics/SVG/1.1/DTD/svg11.dtd">
<svg version="1.1" id="Слой_1" xmlns="http://www.w3.org/2000/svg" xmlns:xlink="http://www.w3.org/1999/xlink" x="0px" y="0px"
	 width="3200px" height="400px" viewBox="0 0 3200 400" enable-background="new 0 0 3200 400" xml:space="preserve">
<g>
	<g transform="translate(0.000000,150.000000) scale(0.100000,-0.100000)">
		<path fill="none" stroke="#000000" stroke-width="20" stroke-miterlimit="10" d="M1431.003,1121.445
			c-354.637-77.095-675.352-370.056-888.134-817.207C385.595-25.729,330.087-309.438,354.757-642.489
			c40.089-511.911,194.279-878.883,484.157-1147.173c237.453-218.95,533.497-317.631,1023.821-345.386
			c610.592-33.922,959.062,83.263,1329.118,453.319c626.011,622.927,650.682,1640.581,55.508,2245.006
			C2868.054,951.836,1955.249,1232.462,1431.003,1121.445z"/>
	</g>
</g>
<g>
	<g transform="translate(0.000000,150.000000) scale(0.100000,-0.100000)">
		<path fill="none" stroke="#000000" stroke-width="20" stroke-miterlimit="10" d="M5311.857,1145.633
			c-89.631-179.263-115.24-199.75-169.019-143.41c-112.68,112.679-355.964,166.458-514.74,112.679
			c-53.779-15.365-158.775-76.827-230.48-130.606c-158.775-115.24-163.897-143.41-87.07-524.983
			c28.169-133.167,40.974-286.82,33.292-353.403c-5.122-64.022-2.561-115.24,10.244-115.24c12.804,0,23.048,35.853,25.609,79.388
			c5.122,112.679,115.24,212.554,399.5,358.525c151.093,79.388,309.868,186.945,412.304,281.698
			c220.237,199.75,340.599,253.529,568.519,250.968c99.875,0,225.359-15.365,281.698-33.292l102.436-30.731l-128.045-74.266
			c-163.897-97.314-701.685-327.794-891.191-384.134c-79.388-23.048-153.654-53.779-161.336-69.144
			c-10.244-12.804-2.561-69.144,15.365-122.923l30.731-97.314l148.532,74.266c79.388,38.413,220.237,99.875,309.868,133.166
			s225.359,92.192,299.625,128.045c151.093,74.266,151.093,74.266,43.535-74.266c-69.144-97.314-89.631-110.118-217.676-125.484
			c-76.827-10.244-171.58-33.292-209.994-53.779c-176.702-92.192-578.762-394.378-699.124-530.105
			c-504.496-558.275-527.544-1344.469-51.218-1782.382c186.945-171.58,317.551-220.237,589.006-220.237
			c207.432,0,248.407,7.683,396.938,81.949c227.919,112.679,432.791,302.186,535.227,494.253l84.509,156.214l79.388-53.779
			c192.067-128.045,307.307-163.897,517.301-163.897c161.336,0,230.48,10.244,322.672,56.34
			c186.945,92.192,314.99,217.676,414.865,409.743c194.628,368.769,235.603,798.999,110.119,1167.768
			c-128.045,376.451-353.403,694.002-565.958,796.438c-120.362,56.34-391.817,81.949-466.083,43.535
			c-43.535-25.609-56.339-15.365-92.192,61.461l-43.535,87.07h66.583c35.853,0,107.558,28.17,158.775,64.022
			c99.875,69.144,381.573,166.458,476.327,166.458c48.657,0,53.779,10.244,46.096,89.631
			c-5.122,48.657-20.487,97.314-33.292,102.436c-30.73,20.487-261.211-46.096-512.179-151.093
			c-281.698-117.801-445.596-135.727-868.143-104.997c-122.923,10.244-266.333,5.122-330.355-7.683l-112.679-25.609l15.365,163.897
			c10.244,97.314,5.122,163.897-7.683,163.897S5355.393,1227.582,5311.857,1145.633z"/>
	</g>
</g>
<g>
	<g transform="translate(0.000000,150.000000) scale(0.100000,-0.100000)">
		<path fill="none" stroke="#000000" stroke-width="20" stroke-miterlimit="10" d="M9367.461,906.728
			c-356.519-35.38-609.619-144.24-827.341-364.683c-231.329-231.329-340.189-525.253-342.911-936.202
			c-2.722-193.228,10.887-274.873,70.76-440.886c152.405-419.114,332.024-688.544,582.404-865.442
			c168.734-122.468,277.595-166.013,519.81-209.557c228.607-43.544,340.189-32.658,587.848,54.43l171.456,59.873l168.733-54.43
			c149.684-51.709,182.342-51.709,334.747-21.772c244.937,51.709,465.379,179.62,699.43,410.949
			c160.569,160.57,228.607,253.101,315.696,435.443c146.962,302.088,182.342,468.101,166.013,759.303
			c-16.329,274.873-95.254,478.987-255.823,655.886c-108.86,119.747-367.404,307.531-459.937,334.747
			c-29.937,8.165-78.924,21.772-111.582,29.937c-51.709,16.329-62.595-2.722-103.417-138.797
			c-27.216-87.089-57.152-176.899-70.76-201.392s-32.658-92.532-43.544-149.683l-19.051-103.418l-78.924,157.848
			c-92.532,182.342-307.532,402.785-484.431,492.595C9960.752,925.779,9783.854,947.551,9367.461,906.728z"/>
	</g>
</g>
<g>
	<g transform="translate(0.000000,150.000000) scale(0.100000,-0.100000)">
		<path fill="none" stroke="#000000" stroke-width="20" stroke-miterlimit="10" d="M13097.717,1291.792
			c-24.268-29.121-16.987-48.534,43.681-106.775c41.254-36.401,109.202-82.508,150.456-99.495
			c89.788-36.401,133.469-165.016,97.068-288.779c-63.095-225.684-101.922-288.779-218.404-364.007
			c-206.271-133.469-371.287-364.007-410.114-575.131c-19.414-104.349,0-361.58,31.547-390.701
			c19.414-21.84,310.62,167.443,407.688,264.512c211.124,211.124,291.205,533.877,169.869,696.467l-55.813,77.655l63.094,160.163
			c41.255,99.495,60.668,191.71,55.814,240.245l-9.707,82.508l58.241-55.814c31.548-29.121,82.509-97.069,109.202-150.456
			c48.534-89.788,53.388-133.469,53.388-533.877c0-380.994-9.707-480.489-67.947-774.121
			c-38.828-184.43-89.789-405.261-116.482-490.196c-50.961-167.443-29.121-152.883-310.619-191.71
			c-237.818-31.547-354.301-184.43-354.301-461.075c2.427-208.697,65.521-354.3,218.404-495.049
			c116.482-106.775,213.551-135.896,400.408-118.909c201.417,19.414,371.287,189.284,448.941,444.089
			c48.534,160.163,46.107,269.365-9.707,393.127c-50.961,106.775-218.404,249.951-298.485,249.951
			c-55.814,0-55.814,9.707,16.987,354.3c99.495,485.343,133.469,771.695,133.469,1130.848c0,385.847-14.561,468.356-121.336,633.372
			c-38.827,63.094-63.094,114.055-53.388,114.055c50.961,0,274.219-155.31,361.581-249.951
			c169.869-184.43,376.14-643.079,504.756-1121.141c60.668-225.684,118.909-490.196,126.189-584.838l14.56-169.87l-101.922-29.121
			c-138.322-43.681-281.498-184.43-317.899-317.899c-53.388-201.417,36.401-495.049,198.99-650.359
			c101.923-97.069,184.431-128.616,339.74-128.616c157.736,0,264.512,53.388,383.421,189.284
			c167.443,189.284,215.978,463.502,116.482,660.066c-72.802,138.323-143.177,186.857-334.887,225.684l-157.736,33.974
			l-111.629,446.515c-135.896,536.304-225.685,800.815-390.701,1138.128c-152.883,308.193-339.739,514.463-558.144,606.678
			c-77.654,33.974-140.749,67.948-140.749,80.082c0,9.707,43.681,16.987,99.495,16.987c111.629,0,383.421-128.616,402.834-191.71
			c50.961-162.59,196.563-405.261,320.326-533.877c189.283-196.564,383.421-288.779,652.786-310.619
			c123.762-9.707,198.99-4.853,198.99,9.707c0,50.961-121.336,378.567-184.431,490.196
			c-82.508,155.31-271.791,342.167-429.527,429.528c-162.59,89.788-388.274,99.495-492.623,19.414l-67.948-48.534l-133.469,80.082
			c-155.31,94.642-257.231,116.482-349.447,82.508c-75.228-29.12-198.99,7.28-257.231,77.655
			C13180.225,1337.9,13136.544,1340.326,13097.717,1291.792z"/>
	</g>
</g>
<g>
	<g transform="translate(0.000000,150.000000) scale(0.100000,-0.100000)">
		<path fill="none" stroke="#000000" stroke-width="20" stroke-miterlimit="10" d="M17329.174,916.898
			c-177.141-42.514-368.453-165.332-488.91-314.13c-207.846-257.445-276.34-479.462-238.549-762.888
			c16.533-115.732,14.17-162.97-4.725-170.056c-14.172-4.724-80.305-63.771-148.799-134.627
			c-155.884-158.246-207.846-311.768-205.483-599.918c2.361-245.636,51.961-370.816,214.931-545.595
			c245.637-262.169,441.672-337.749,843.193-323.578c203.121,7.086,266.893,18.895,422.775,85.028
			c101.563,40.152,219.656,101.561,264.531,134.627c75.58,59.047,82.666,61.409,236.189,33.066
			c181.863-30.704,309.406-18.895,540.871,51.961c193.674,61.409,356.643,205.484,422.775,375.539
			c33.066,82.666,61.41,115.732,134.627,148.799c134.629,61.409,318.855,236.188,377.902,359.006
			c70.855,148.799,87.389,406.244,37.789,602.28c-40.15,151.16-85.027,238.55-85.027,160.608
			c0-33.066-118.094-94.475-200.76-103.923c-28.342-2.362-106.285-30.704-148.799-51.961c-18.895-9.448-47.236-56.685-63.77-106.285
			c-30.705-87.39-111.01-174.779-125.18-134.627c-4.725,9.448-40.152-11.809-82.666-49.6
			c-73.219-66.133-134.629-89.752-134.629-47.238c0,9.448-25.98,14.171-59.047,7.086c-40.152-7.086-59.047,0-59.047,21.257
			c0,28.343-4.723,28.343-21.256,2.362c-16.533-28.343-28.344-28.343-70.857,0c-28.342,16.533-44.875,44.876-37.789,63.771
			c9.447,25.981,7.084,28.343-23.619,2.362c-59.047-47.238-103.924,89.752-80.305,243.274
			c18.895,111.008-4.723,356.644-40.152,451.12c-16.533,42.514,14.172,49.6,51.963,16.533
			c37.789-37.79,340.109-188.951,340.109-170.056c0,9.448-9.447,25.981-21.256,37.79c-11.811,14.171-37.791,77.942-59.047,141.713
			c-85.027,266.893-210.209,373.177-486.549,415.691c-96.836,14.171-217.293,47.238-264.529,70.857
			C17870.045,926.346,17544.105,966.498,17329.174,916.898z"/>
	</g>
</g>
<g>
	<g transform="translate(0.000000,150.000000) scale(0.100000,-0.100000)">
		<path fill="none" stroke="#000000" stroke-width="20" stroke-miterlimit="10" d="M22898.506,1194.654
			c0-12.31-61.549-17.234-135.408-9.848c-174.801,14.772-369.299-73.859-462.854-211.731
			c-132.947-194.497-211.73-610.572-140.334-743.52c19.697-36.93,14.773-51.702-24.619-73.86
			c-41.854-22.158-64.012-7.386-164.953,96.017c-142.795,145.257-295.438,199.421-568.719,199.421
			c-164.953,0-179.725,4.924-164.953,44.316c61.551,142.795,27.082,231.427-140.332,366.836
			c-147.721,120.637-256.047,142.795-558.871,108.327c-142.795-17.234-268.357-36.93-280.666-44.316
			c-12.311-7.386,17.232-36.93,66.473-66.474c46.777-27.082,118.176-98.479,160.029-155.105
			c76.322-105.865,280.666-221.579,507.17-290.514l98.479-27.082l-76.322-41.854c-115.713-59.088-251.121-224.041-283.127-342.216
			c-34.469-132.947-14.773-327.444,46.777-472.701l49.24-110.789l-130.486-64.012c-315.135-152.643-571.18-583.491-517.018-866.619
			c19.697-110.789,258.51-352.064,450.545-457.929c273.279-147.719,627.807-73.86,861.693,179.725l115.715,125.561l78.783-39.392
			c199.42-98.479,691.818-110.789,846.924-22.158c366.834,216.655,465.314,955.25,167.414,1260.537
			c-44.316,44.316-73.859,86.169-66.473,91.093c22.156,24.62,241.273-167.415,241.273-209.269
			c0-44.316,61.551-86.169,118.176-76.322c17.234,2.462,39.391-19.696,54.164-51.702c12.309-32.006,22.158-46.778,22.158-34.468
			c2.461,12.31,22.156,4.924,49.238-19.696c44.316-39.392,44.316-44.316-14.771-206.807
			c-34.467-91.094-88.631-278.204-120.637-418.538c-81.246-327.444-118.176-433.309-209.27-576.105
			c-41.854-64.012-71.396-128.023-66.473-142.795c2.461-12.31,68.936,17.234,142.795,68.936
			c73.859,49.24,196.959,123.099,270.818,162.491c73.859,39.392,164.953,98.479,204.344,132.947
			c59.088,56.626,66.475,59.088,66.475,17.234c0-108.327,83.707,66.474,160.029,337.292
			c44.314,155.105,34.467,339.754-19.697,423.462c-24.619,36.93-93.555,88.631-152.643,115.713
			c-61.549,27.082-110.789,66.474-118.176,98.479c-12.309,41.854-22.156,46.778-64.012,24.62
			c-34.467-19.696-54.162-19.696-66.473,2.462c-9.848,17.234-7.387,19.696,9.848,9.848c17.234-9.848,29.545-2.462,29.545,19.696
			c0,19.696-9.85,44.316-24.621,51.702c-29.543,17.234-32.006,61.55-4.924,61.55c12.311,0,68.936-46.778,128.023-100.941
			c100.941-96.017,113.252-100.941,216.654-86.169c115.713,14.772,384.07,152.643,361.912,184.649
			c-9.848,17.234-354.525,56.626-553.947,61.55c-88.631,2.462-342.215,110.789-344.678,145.257c0,9.848,81.246,12.31,179.725,2.462
			c295.439-27.082,297.9-27.082,324.982,32.006c24.621,56.626,152.645,123.099,258.51,135.409
			c98.479,12.31,83.707,76.322-54.164,243.737c-268.357,320.058-364.375,388.994-546.561,396.38
			c-93.557,4.924-105.865,12.31-81.246,41.854c17.234,22.158,29.543,123.099,29.543,270.818c0,216.655-4.924,246.199-68.936,354.526
			C22920.664,1211.888,22898.506,1234.046,22898.506,1194.654z"/>
	</g>
</g>
<g>
	<g transform="translate(0.000000,150.000000) scale(0.100000,-0.100000)">
		<path fill="none" stroke="#000000" stroke-width="20" stroke-miterlimit="10" d="M25173.379,636.878
			c-338.131-49.725-661.346-295.864-768.254-584.27c-27.348-74.588-89.506-161.607-154.148-223.763
			c-89.504-82.046-109.395-116.854-109.395-188.955c0-96.964,79.561-218.79,141.717-218.79c19.891,0,111.881-72.101,203.873-161.607
			c191.441-183.983,390.342-283.433,604.16-303.323c171.551-17.404,425.148,29.835,532.059,94.478
			c124.313,74.588,114.367,57.184-49.725-106.909c-84.533-87.019-186.471-201.387-226.25-256.084s-99.451-129.285-134.258-169.065
			c-72.102-79.56-47.238-131.772,49.725-96.964c32.322,12.431,144.203,32.321,246.141,39.78
			c489.791,47.239,750.848,121.827,867.703,248.626c47.238,49.725,67.129,57.184,94.477,37.294
			c17.404-17.404,109.396-34.808,203.873-42.266c166.58-9.945,171.553-14.917,186.469-82.046
			c29.836-156.634,407.746-300.837,795.602-305.809l201.387-2.486l7.459,166.579c9.945,248.625-22.375,340.617-183.982,502.224
			c-77.074,77.074-146.689,139.23-156.635,139.23c-7.457,0-14.916,96.964-14.916,216.304c0,323.213-34.809,412.718-228.736,596.701
			c-211.332,201.387-315.754,241.167-591.729,226.249c-134.258-9.945-233.709-29.835-273.488-54.698
			c-74.588-49.725-87.02-49.725-87.02-2.486s-370.451,420.177-464.93,469.902
			C25707.924,654.281,25451.838,676.658,25173.379,636.878z"/>
	</g>
</g>
<g>
	<g transform="translate(0.000000,150.000000) scale(0.100000,-0.100000)">
		<path fill="none" stroke="#000000" stroke-width="20" stroke-miterlimit="10" d="M29862.662,1283.751
			c-39.061-39.06-39.061-43.942,7.322-83.002c68.355-53.707,107.414-239.24,87.885-415.008
			c-17.088-158.68-24.412-166.003-185.533-227.034c-126.943-46.383-280.74-197.739-358.859-351.537
			c-26.854-53.707-78.121-195.298-112.297-314.918c-34.178-117.179-126.943-346.654-209.945-507.775
			c-170.887-336.889-205.064-498.01-168.445-786.075c43.941-346.654,288.064-705.515,573.688-839.782
			c131.826-63.472,170.887-70.796,407.686-70.796c353.979,0,461.393,41.501,737.25,285.624
			c239.24,209.945,305.154,307.595,383.273,568.806c48.824,161.121,51.266,202.622,29.295,356.419
			c-34.178,229.475-124.504,419.891-302.713,637.16c-131.826,158.68-156.238,207.504-249.004,488.245
			c-92.768,290.506-109.855,322.242-227.035,441.862c-70.795,68.354-146.473,126.944-170.885,126.944
			c-36.619,0-39.061,21.971-24.414,219.71c17.09,239.24-7.322,378.39-87.883,463.833
			C29935.898,1335.017,29913.928,1337.458,29862.662,1283.751z"/>
	</g>
</g>
</svg>
