<?xml version="1.0" encoding="utf-8"?>
<!-- Generator: Adobe Illustrator 17.0.0, SVG Export Plug-In . SVG Version: 6.00 Build 0)  -->
<!DOCTYPE svg PUBLIC "-//W3C//DTD SVG 1.1//EN" "http://www.w3.org/Graphics/SVG/1.1/DTD/svg11.dtd">
<svg version="1.1" id="Слой_1" xmlns="http://www.w3.org/2000/svg" xmlns:xlink="http://www.w3.org/1999/xlink" x="0px" y="0px"
	 width="3200px" height="400px" viewBox="0 0 3200 400" enable-background="new 0 0 3200 400" xml:space="preserve">
<g>
	<g transform="translate(0.000000,150.000000) scale(0.100000,-0.100000)">
		<path fill="none" stroke="#000000" stroke-width="20" stroke-miterlimit="10" d="M1553.917,1301.557
			c-290.087-69.422-545.462-332.236-600.008-622.323c-14.876-81.819-27.273-91.737-131.407-116.531
			c-64.464-14.876-205.788-39.67-312.401-52.067c-109.092-14.876-203.309-29.752-210.747-37.191
			c-29.752-32.232,44.629-104.134,185.953-178.515c89.257-47.108,131.407-81.819,109.092-89.257
			c-19.835-7.438-84.299-24.794-141.324-39.67c-59.505-17.356-106.613-39.67-106.613-49.587
			c0-39.67,458.684-114.051,748.771-126.448c39.67,0,143.804-220.664,143.804-300.004c-2.479-119.01-74.381-265.293-210.747-419.014
			c-180.994-203.309-245.458-366.947-247.937-607.446c0-176.036,9.917-218.185,81.819-364.468
			c49.587-101.654,123.969-200.829,185.953-255.375c592.57-508.271,1849.612-461.163,2357.883,89.257
			c210.747,228.102,295.045,493.395,295.045,939.682c2.479,490.916-76.861,768.606-218.185,768.606
			c-19.835,0-109.092-64.464-195.87-146.283c-178.515-166.118-213.226-188.432-342.154-210.747
			c-166.118-29.753-763.647,141.324-813.234,230.582c-17.356,34.711,0,61.984,89.257,136.366
			c290.087,242.979,384.303,647.116,228.102,986.79c-111.572,242.978-265.293,376.865-515.709,451.246
			C1786.979,1331.31,1697.721,1336.269,1553.917,1301.557z"/>
	</g>
</g>
<g>
	<g transform="translate(0.000000,150.000000) scale(0.100000,-0.100000)">
		<path fill="none" stroke="#000000" stroke-width="20" stroke-miterlimit="10" d="M5980.911,1226.118
			c-26.632-36.317-60.528-101.687-77.476-142.846c-24.211-65.37-50.843-82.318-179.163-116.214
			c-181.584-50.844-334.116-135.583-389.802-217.901c-43.58-70.213-50.844-188.848-12.105-261.482
			c21.79-41.159,14.527-60.528-46.001-125.899c-89.582-92.003-116.214-181.585-79.897-283.272
			c21.79-67.792,19.369-84.739-33.896-147.689c-75.055-87.161-94.424-164.637-77.476-280.851
			c12.105-72.634,2.421-108.951-55.686-196.111c-75.055-111.372-87.161-176.742-50.844-278.43
			c19.369-43.58,14.527-67.792-12.105-89.582c-70.213-58.107-111.372-169.479-101.688-285.693
			c4.842-82.318-7.263-133.162-46.001-196.111c-72.634-118.635-87.16-196.111-55.686-312.325
			c84.739-319.589,660.968-583.492,1271.092-583.492c561.702,0,1118.561,232.428,1249.302,520.542
			c58.107,125.899,58.107,198.532-4.842,314.747c-36.317,67.792-53.265,145.268-55.686,254.218
			c-2.421,116.214-14.527,176.742-53.265,230.007c-41.159,58.107-48.423,96.845-41.159,205.796
			c9.685,113.793,2.421,145.268-50.844,225.165c-58.107,82.318-60.528,101.687-38.738,186.427
			c29.054,108.951-4.842,222.744-92.003,297.799c-43.58,41.159-46.001,50.844-14.526,108.951
			c55.686,106.53,41.159,188.848-48.423,290.535c-75.055,82.318-79.897,94.424-48.422,138.004
			c41.159,55.686,43.58,157.373,7.263,239.692c-41.159,89.582-188.848,181.585-382.538,242.113
			c-164.637,48.423-171.9,55.686-237.271,184.006C6138.285,1308.436,6055.966,1335.069,5980.911,1226.118z"/>
	</g>
</g>
<g>
	<g transform="translate(0.000000,150.000000) scale(0.100000,-0.100000)">
		<path fill="none" stroke="#000000" stroke-width="20" stroke-miterlimit="10" d="M9758.032,1118.608
			c-436.521-41.457-858.411-238.989-999.854-465.785l-73.16-117.056h-226.796c-199.971,0-226.796-4.877-241.428-46.335
			c-31.703-104.863,2.438-124.372,246.305-124.372h229.235v-977.905c0-1102.277-4.878-1065.698,187.777-1243.72
			c380.432-348.729,1302.248-448.715,1941.179-207.287c170.706,63.405,334.097,163.391,424.328,263.376
			c126.811,136.565,129.249,158.513,129.249,1275.423c0,1182.753,7.316,1133.98-209.726,1326.635
			c-63.405,53.651-107.301,99.985-97.547,99.985c48.773,0,641.37,75.599,668.195,85.353c39.019,14.632,39.019,131.688-2.438,148.759
			c-19.51,7.316-248.744-14.632-509.682-48.773c-434.083-56.089-487.733-58.528-592.596-24.387
			c-95.108,26.825-602.352,90.231-646.247,80.476C9977.512,1140.556,9875.088,1128.362,9758.032,1118.608z"/>
	</g>
</g>
<g>
	<g transform="translate(0.000000,150.000000) scale(0.100000,-0.100000)">
		<path fill="none" stroke="#000000" stroke-width="20" stroke-miterlimit="10" d="M14651.286,239.607
			c-294.553-82.375-946.063-262.102-1447.801-399.394s-931.087-254.613-953.553-262.102
			c-39.938-12.481-44.932-44.932-44.932-242.132v-229.651l117.322-72.39c102.345-59.909,132.299-67.398,207.186-49.924
			c69.894,17.473,89.863,34.947,94.855,89.864c4.992,39.939,14.978,69.894,24.962,69.894
			c9.985-2.496,117.322-54.917,242.133-119.818l224.659-117.322l12.48-137.292c12.481-127.307,19.97-139.788,122.314-209.682
			c94.855-62.405,119.818-69.894,199.696-49.924l89.864,22.466l7.488,167.246l7.488,167.246l918.605,461.799l918.605,461.799
			l137.291-72.39c122.314-67.398,144.78-69.894,217.171-42.436l79.878,29.954l-7.488,222.163l-7.488,222.163l-272.087,122.314
			c-147.276,64.901-289.561,119.818-312.026,117.322S14945.839,319.486,14651.286,239.607z"/>
	</g>
</g>
<g>
	<g transform="translate(0.000000,150.000000) scale(0.100000,-0.100000)">
		<path fill="none" stroke="#000000" stroke-width="20" stroke-miterlimit="10" d="M17590.707,1202.285
			c-667.125-163.813-1156.191-707.485-1265.401-1405.473c-185.181-1189.429,954.392-2269.649,2105.835-1991.878
			c603.025,142.447,1030.365,534.175,1234.537,1127.702c59.354,170.936,66.477,223.166,66.477,510.434
			c2.373,370.361-30.863,522.304-175.686,819.068C19205.102,986.241,18359.918,1389.839,17590.707,1202.285z"/>
	</g>
</g>
<g>
	<g transform="translate(0.000000,150.000000) scale(0.100000,-0.100000)">
		<path fill="none" stroke="#000000" stroke-width="20" stroke-miterlimit="10" d="M20804.855,566.1l-534.65-98.299V-47.668v-515.47
			l304.486-304.487l306.885-304.487l541.842,110.286l541.842,107.889l335.654-342.847l338.053-345.245l541.842,107.889
			l541.844,105.491l9.59,74.323c7.191,38.361,16.783,287.704,23.975,551.433l11.988,479.507l-285.307,251.741
			c-158.236,139.057-299.691,254.138-318.871,258.934c-16.783,2.398-268.523-35.963-556.229-91.106
			c-287.703-52.746-544.24-91.106-568.215-81.516c-23.975,7.193-43.156,35.963-43.156,67.131
			c0,40.758-79.117,127.069-297.293,323.667c-163.033,146.249-311.68,263.729-330.859,263.729
			C21351.492,666.797,21097.354,621.243,20804.855,566.1z"/>
	</g>
</g>
<g>
	<g transform="translate(0.000000,150.000000) scale(0.100000,-0.100000)">
		<path fill="none" stroke="#000000" stroke-width="20" stroke-miterlimit="10" d="M26625.629,1188.758
			c-38.734-33.893-84.732-96.836-99.258-142.833l-24.209-77.469l-176.725,58.102c-145.256,48.418-205.777,58.102-370.4,45.997
			c-123.465-7.263-237.248-29.051-312.297-62.944c-62.943-29.051-118.623-48.418-121.045-45.997
			c-2.42,4.842-19.367,43.576-36.314,87.153c-41.154,101.678-118.623,154.938-232.406,154.938
			c-319.561,0-421.238-525.337-135.57-697.221c55.68-31.472,65.363-55.681,67.785-152.517
			c7.262-164.622,89.574-334.085,227.564-464.814l121.047-113.783l-91.996-58.102c-309.875-208.198-658.486-697.221-624.594-881.21
			c19.367-94.415,125.887-191.252,251.775-227.565c162.201-43.576,193.672-33.893,213.039,67.785
			c19.367,113.783,55.682,183.989,58.102,113.783c2.422-26.63,16.947-89.574,33.893-140.413l33.893-91.995l-89.572-43.576
			c-48.418-24.209-128.309-58.102-176.727-72.627c-89.574-29.051-94.416-26.63-171.885,55.681
			c-135.57,142.833-251.773,169.464-343.77,75.048c-82.311-79.89-77.469-196.093,9.684-370.399
			c157.359-309.876,307.455-438.184,476.92-406.712c106.52,21.788,307.455,111.362,537.441,242.091
			c183.988,104.099,191.252,106.52,355.873,91.994c152.518-12.104,183.988-24.209,387.346-157.359
			c421.236-275.983,532.6-309.876,697.221-198.514c111.361,77.469,324.402,377.661,346.189,486.602
			c45.998,251.774-193.672,343.769-392.188,152.517l-79.889-77.469l-108.941,45.997c-60.523,26.63-133.15,62.943-157.359,82.311
			c-45.996,36.314-45.996,38.734-2.42,121.045c45.996,82.311,45.996,82.311,48.418,21.788c0-84.732,53.26-101.678,210.619-70.206
			c164.621,36.314,273.563,135.571,273.563,254.195c0,215.461-273.563,631.857-588.281,902.998l-94.416,79.89l108.941,101.678
			c157.359,147.675,220.303,283.246,222.725,486.602c2.42,135.571,12.104,171.884,53.26,205.777
			c29.051,21.788,75.047,77.469,101.678,123.466C27213.91,995.086,26879.824,1401.798,26625.629,1188.758z"/>
	</g>
</g>
<g>
	<g transform="translate(0.000000,150.000000) scale(0.100000,-0.100000)">
		<path fill="none" stroke="#000000" stroke-width="20" stroke-miterlimit="10" d="M30598.449,660.473
			c-426.342-134.763-676.266-477.796-676.266-921.29c0-105.36,2.451-203.37,7.352-220.521
			c7.35-29.403-534.152-269.526-607.66-269.526c-14.701,0-46.555,26.953-68.605,61.256
			c-63.707,98.01-227.873,203.37-360.186,230.322c-355.285,75.957-676.266-176.417-700.768-556.204
			c-9.801-144.564-2.451-181.318,58.805-298.929c274.428-534.152,1041.352-384.687,1107.508,215.621l14.701,137.213l318.531,129.863
			l318.531,132.313l46.555-68.607c93.109-132.313,254.824-271.976,394.488-340.583c200.92-95.559,499.848-112.711,705.668-34.303
			c617.461,232.773,820.83,975.195,406.74,1497.095C31350.674,626.17,30916.98,760.933,30598.449,660.473z"/>
	</g>
</g>
</svg>
