<svg xmlns="http://www.w3.org/2000/svg" width="151" height="284" viewBox="0 0 151 284" version="1.1">
	<path d="M 72.500 2.741 C 66.603 3.034, 64.940 3.537, 61.948 5.933 C 59.768 7.678, 56.099 9.248, 52.448 9.999 C 43.480 11.842, 15.834 23.236, 11.102 27.038 C 7.760 29.724, 7 30.960, 7 33.712 C 7 35.569, 6.361 39.881, 5.580 43.294 C 3.493 52.409, 1.665 68.528, 2.389 71.415 C 3.232 74.773, 13.620 80.876, 31.263 88.380 C 34.960 89.952, 35.015 90.056, 34.385 94.240 C 34.032 96.583, 32.469 102.232, 30.912 106.793 C 24.024 126.972, 19.079 156.221, 15.492 198 C 14.665 207.625, 13.066 221.575, 11.937 229 C 10.809 236.425, 9.457 247.450, 8.934 253.500 C 8.410 259.550, 7.723 266.551, 7.406 269.057 C 7.002 272.247, 7.230 273.920, 8.165 274.637 C 8.899 275.200, 14.857 276.438, 21.404 277.388 C 27.952 278.339, 35.023 279.707, 37.117 280.428 C 42.385 282.243, 44.667 280.561, 45.520 274.235 C 45.872 271.631, 47.015 266.800, 48.062 263.500 C 50.828 254.780, 55.712 232.690, 58.564 216 C 64.652 180.378, 67.827 167, 70.191 167 C 70.787 167, 70.953 168.052, 70.587 169.511 C 70.240 170.892, 70.913 177.530, 72.083 184.261 C 73.253 190.992, 74.585 199.425, 75.043 203 C 77.804 224.553, 83.097 260.647, 83.975 263.906 C 84.543 266.016, 85.247 270.607, 85.540 274.108 C 85.833 277.609, 86.492 280.892, 87.005 281.405 C 87.582 281.982, 93.199 281.695, 101.719 280.654 C 109.298 279.729, 116.705 278.978, 118.177 278.986 C 119.799 278.994, 121.574 278.086, 122.677 276.682 C 124.318 274.596, 124.485 272.322, 124.353 253.932 C 124.042 210.751, 122.132 153.204, 120.588 140.500 C 118.678 124.777, 115.665 111.837, 111.779 102.667 C 110.186 98.910, 109.030 94.635, 109.211 93.167 C 109.512 90.711, 109.750 90.904, 112.219 95.618 C 113.694 98.433, 117.173 102.680, 119.950 105.055 C 122.728 107.430, 125 109.885, 125 110.509 C 125 111.134, 126.356 114.148, 128.013 117.208 C 131.680 123.979, 133.793 124.630, 142.377 121.636 C 145.745 120.461, 148.650 119.425, 148.834 119.333 C 149.018 119.240, 148.196 115.865, 147.006 111.832 C 145.817 107.800, 143.794 100.900, 142.510 96.500 C 131.198 57.731, 127.473 47.744, 117.717 30.026 C 110.657 17.205, 107.150 13.847, 97.890 11.038 C 93.825 9.805, 88.415 7.267, 85.866 5.398 C 83.317 3.529, 80.842 2.088, 80.366 2.196 C 79.890 2.304, 76.350 2.549, 72.500 2.741" fill="none" stroke="#000" stroke-width="2px" fill-rule="evenodd"/>
</svg>
