<svg xmlns="http://www.w3.org/2000/svg" width="242" height="292" viewBox="0 0 242 292" version="1.1">
	<path d="M 98.952 6.309 C 95.977 7.855, 91.485 9.561, 88.968 10.100 C 86.451 10.640, 83.291 12.076, 81.946 13.291 C 80.601 14.506, 78.733 15.500, 77.796 15.500 C 76.859 15.500, 74.278 17.220, 72.060 19.322 C 69.098 22.128, 67.492 22.974, 66.013 22.504 C 64.580 22.049, 64 22.317, 64 23.433 C 64 24.295, 63.487 25, 62.860 25 C 62.233 25, 61.178 25.742, 60.514 26.650 C 59.851 27.557, 57.815 28.795, 55.991 29.400 C 54.166 30.005, 52.564 31.271, 52.430 32.214 C 52.297 33.157, 51.236 35.265, 50.072 36.899 C 48.909 38.533, 48.079 40.260, 48.228 40.737 C 48.378 41.214, 47.520 43.831, 46.322 46.552 C 45.123 49.273, 43.551 52.962, 42.827 54.750 C 42.104 56.537, 41.217 58, 40.856 58 C 40.495 58, 39.638 60.339, 38.953 63.197 C 38.267 66.056, 36.184 70.991, 34.324 74.165 C 31.437 79.091, 31.122 80.223, 32.172 81.903 C 32.848 82.986, 34.184 84.076, 35.141 84.327 C 36.685 84.731, 36.376 86.056, 32.379 96.141 C 27.476 108.512, 20.764 130.591, 16.150 149.524 C 13.520 160.318, 12.381 168.446, 10.440 190.259 C 10.109 193.977, 9.483 196.799, 9.048 196.530 C 8.614 196.261, 7.188 196.970, 5.879 198.105 C 3.690 200.003, 3.489 200.966, 3.368 210.149 C 3.253 218.856, 3.472 220.278, 5.083 221.284 C 6.406 222.110, 6.755 223.129, 6.315 224.883 C 5.832 226.805, 6.028 227.203, 7.228 226.743 C 8.069 226.420, 9.245 226.645, 9.842 227.242 C 11.284 228.684, 36.365 229.809, 38.399 228.522 C 41.971 226.263, 42.258 229.043, 40.562 249.507 C 39.296 264.785, 38.487 270.085, 36.965 273.070 C 35.884 275.187, 35 277.783, 35 278.838 C 35 281.262, 37.285 283.212, 39.244 282.460 C 40.068 282.144, 41.443 282.586, 42.300 283.442 C 43.156 284.299, 45.014 285, 46.429 285 C 47.843 285, 49 285.423, 49 285.940 C 49 286.457, 50.237 286.759, 51.750 286.612 C 53.263 286.464, 55.288 286.732, 56.250 287.207 C 57.273 287.712, 58 287.689, 58 287.152 C 58 286.647, 58.900 285.998, 60 285.710 C 61.328 285.363, 62 285.680, 62 286.653 C 62 287.517, 62.480 287.821, 63.170 287.395 C 63.957 286.909, 64.131 287.217, 63.701 288.336 C 63.070 289.981, 64.438 290.718, 65.359 289.229 C 65.920 288.321, 72.365 288.489, 73.923 289.453 C 74.516 289.819, 75 289.697, 75 289.182 C 75 288.667, 77.813 288.360, 81.250 288.498 C 87.978 288.770, 88.960 288.176, 88.985 283.821 C 88.993 282.348, 89.662 280.480, 90.472 279.671 C 91.768 278.375, 91.763 278.048, 90.427 276.939 C 89.545 276.207, 89.193 275.013, 89.588 274.090 C 89.961 273.215, 90.235 271.712, 90.196 270.750 C 90.118 268.849, 91.612 268.336, 92.189 270.067 C 92.388 270.664, 96.270 271.314, 101.022 271.545 C 105.685 271.772, 109.500 272, 109.500 272.052 C 109.500 272.591, 119.693 273.307, 124 273.070 C 125.925 272.964, 131.908 273.198, 137.295 273.589 C 147.907 274.358, 148.604 274.788, 148.509 280.500 C 148.452 283.952, 152.014 287.071, 155.094 286.265 C 156.170 285.984, 157 286.278, 157 286.942 C 157 287.589, 157.450 287.840, 158 287.500 C 158.550 287.160, 159 287.407, 159 288.048 C 159 288.689, 159.646 288.966, 160.435 288.663 C 161.225 288.360, 162.038 288.614, 162.242 289.227 C 162.515 290.046, 163.782 290.045, 167.018 289.223 C 169.717 288.538, 171.851 288.461, 172.529 289.024 C 173.225 289.601, 174.399 289.409, 175.687 288.507 C 176.815 287.717, 178.019 287.352, 178.363 287.696 C 178.706 288.040, 179.778 287.627, 180.744 286.778 C 181.806 285.845, 184.357 285.245, 187.198 285.260 C 192.108 285.287, 198 283.418, 198 281.835 C 198 281.327, 198.787 281.045, 199.750 281.206 C 200.915 281.402, 201.408 280.940, 201.224 279.826 C 201.065 278.865, 201.811 277.877, 202.974 277.508 C 204.192 277.122, 205.001 275.995, 205.003 274.683 C 205.007 272.092, 202.391 254.468, 200.492 244.297 C 199.659 239.834, 199.468 236.029, 199.988 234.297 C 200.673 232.015, 201.486 232.614, 201.150 235.154 C 201.103 235.514, 201.705 236.340, 202.488 236.990 C 204.174 238.389, 206 237.520, 206 235.319 C 206 234.042, 206.275 233.984, 207.500 235 C 208.729 236.020, 209 235.950, 209 234.614 C 209 233.226, 209.308 233.171, 211.065 234.242 C 212.837 235.321, 213.372 235.205, 214.835 233.423 C 215.773 232.281, 217.093 231.531, 217.770 231.757 C 218.446 231.982, 219 231.649, 219 231.016 C 219 230.320, 219.791 230.116, 221 230.500 C 222.100 230.849, 223 230.750, 223 230.280 C 223 229.810, 224.809 229.353, 227.019 229.265 C 229.230 229.177, 231.737 228.406, 232.591 227.552 C 233.444 226.698, 234.561 226, 235.071 226 C 235.582 226, 236 225.325, 236 224.500 C 236 223.675, 236.627 223, 237.394 223 C 238.161 223, 238.829 221.987, 238.878 220.750 C 238.927 219.512, 239.148 215.894, 239.370 212.708 C 239.652 208.654, 239.357 206.500, 238.387 205.530 C 237.624 204.767, 237 203.854, 237 203.500 C 237 202.270, 234.475 200.342, 233.353 200.716 C 232.642 200.953, 231.604 197.657, 230.545 191.796 C 225.382 163.222, 216.480 132.318, 203.671 98.500 C 198.154 83.935, 197.177 80.373, 199.012 81.507 C 199.983 82.108, 200.168 81.750, 199.736 80.099 C 199.258 78.272, 199.405 78.092, 200.579 79.065 C 201.689 79.986, 202.022 79.944, 202.099 78.872 C 202.154 78.118, 202.368 75.647, 202.575 73.382 C 202.862 70.232, 202.486 68.845, 200.975 67.477 C 199.889 66.494, 199 64.886, 199 63.904 C 199 62.922, 198.550 61.840, 198 61.500 C 197.450 61.160, 197 60.009, 197 58.941 C 197 57.873, 196.662 56.996, 196.250 56.992 C 195.441 56.984, 193 52.216, 193 50.645 C 193 48.631, 187.807 43, 185.949 43 C 184.877 43, 184 42.425, 184 41.722 C 184 39.527, 180.466 37.160, 178.680 38.159 C 177.332 38.914, 176.970 38.253, 176.406 34.006 C 175.873 29.983, 175.103 28.449, 172.618 26.463 C 170.903 25.092, 168.956 23.527, 168.292 22.985 C 167.628 22.443, 166.446 22, 165.665 22 C 164.884 22, 163.685 21.325, 163 20.500 C 162.315 19.675, 160.965 19, 160 19 C 159.035 19, 157.685 18.325, 157 17.500 C 156.315 16.675, 155.183 16, 154.485 16 C 153.786 16, 152.955 15.325, 152.638 14.500 C 152.322 13.675, 151.131 13, 149.992 13 C 147.537 13, 140.332 9.486, 139.842 8.050 C 139.654 7.498, 136.800 6.959, 133.500 6.850 C 130.200 6.742, 126.940 6.229, 126.255 5.709 C 125.571 5.189, 124.037 5.018, 122.848 5.330 C 121.658 5.641, 119.142 5.250, 117.255 4.462 C 112.199 2.350, 105.217 3.054, 98.952 6.309 M 190.298 183.188 C 191.134 185.574, 192.749 195.359, 193.553 202.916 C 194.058 207.666, 194.478 208.897, 195.172 207.658 C 195.687 206.737, 195.856 205.576, 195.548 205.077 C 195.240 204.579, 195.433 204.020, 195.979 203.835 C 196.628 203.616, 196.636 202.293, 196.002 200 C 195.469 198.075, 194.333 193.579, 193.476 190.009 C 192.619 186.439, 191.420 183.064, 190.812 182.509 C 190.030 181.796, 189.879 181.995, 190.298 183.188 M 196.769 222.570 C 197.097 224.288, 197.592 224.808, 198.263 224.137 C 199.374 223.026, 198.574 220, 197.170 220 C 196.679 220, 196.498 221.157, 196.769 222.570 M 198.079 231.583 C 198.127 232.748, 198.364 232.985, 198.683 232.188 C 198.972 231.466, 198.936 230.603, 198.604 230.271 C 198.272 229.939, 198.036 230.529, 198.079 231.583" fill="none" stroke="#000" stroke-width="2px" fill-rule="evenodd"/>
</svg>
