<svg xmlns="http://www.w3.org/2000/svg" width="210" height="296" viewBox="0 0 210 296" version="1.1">
	<path d="M 110.506 6.236 C 110.116 7.191, 109.958 10.004, 110.155 12.486 L 110.514 16.999 105.507 18.458 C 102.363 19.374, 98.301 21.778, 94.590 24.919 C 89.062 29.597, 87.928 30.095, 77.090 32.598 C 64.574 35.487, 51.059 39.927, 44.221 43.395 C 41.285 44.884, 38.110 48.011, 34.106 53.359 C 28.976 60.209, 27.635 63.051, 23.034 76.826 C 15.660 98.901, 10.583 116.543, 6.973 132.638 C 5.263 140.262, 3.368 147.790, 2.763 149.366 C 1.838 151.771, 1.939 152.387, 3.392 153.199 C 4.669 153.914, 4.959 154.908, 4.501 156.997 C 3.984 159.347, 4.267 159.950, 6.166 160.553 C 8.073 161.158, 9.217 160.426, 13.056 156.139 C 15.811 153.063, 18.497 151, 19.748 151 C 23.353 151, 25 149.869, 25 147.393 C 25 146.077, 25.533 145, 26.186 145 C 26.838 145, 28.384 144.049, 29.621 142.886 L 31.871 140.772 34.936 142.955 L 38.001 145.137 37.513 157.818 C 37.245 164.793, 36.792 177.925, 36.507 187 C 36.222 196.075, 35.532 207.100, 34.974 211.500 C 34.416 215.900, 33.085 229.512, 32.017 241.749 C 30.194 262.634, 30.174 264.493, 31.697 272.084 C 33.548 281.313, 33.767 281.496, 44.157 282.481 C 59.245 283.912, 59 283.837, 59 287.005 C 59 291.127, 62.194 293, 69.223 293 C 77.797 293, 79 291.417, 79 280.139 L 79 271.277 88.067 270.760 C 96.207 270.296, 97.578 269.924, 101.495 267.111 C 109.544 261.331, 115.571 261.647, 118.895 268.024 C 120.053 270.244, 121 272.670, 121 273.414 C 121 275.875, 130.302 276.979, 134.066 274.965 C 135.854 274.008, 136 274.294, 136 278.765 C 136 284.522, 137.205 285.992, 141.950 286.024 C 143.903 286.037, 148.200 287.160, 151.500 288.519 C 154.800 289.879, 158.657 290.993, 160.072 290.995 C 164.113 291.003, 171.539 288.120, 173.870 285.639 C 175.956 283.417, 176.008 282.427, 176.971 226.440 C 177.509 195.123, 178.240 165.620, 178.594 160.877 L 179.238 152.254 183.043 153.749 C 186.640 155.162, 187.021 155.121, 189.988 153.009 C 193.045 150.832, 193.121 150.589, 192.899 143.744 C 192.625 135.292, 194.006 133.608, 200.478 134.501 C 206.928 135.392, 207.634 134.324, 205.543 126.843 C 204.567 123.355, 199.276 107.675, 193.783 92 C 188.291 76.325, 183.304 61.995, 182.701 60.155 C 181.471 56.398, 176.438 52.775, 161.500 44.894 C 149.629 38.631, 138.359 34.241, 131.314 33.136 C 126.636 32.402, 125.136 31.659, 123.049 29.039 C 121.647 27.278, 118.541 23.744, 116.146 21.184 C 112.203 16.968, 111.836 16.151, 112.246 12.511 C 112.495 10.301, 112.365 7.594, 111.957 6.496 C 111.280 4.677, 111.152 4.654, 110.506 6.236" fill="none" stroke="#000" stroke-width="2px" fill-rule="evenodd"/>
</svg>
