<svg xmlns="http://www.w3.org/2000/svg" width="110" height="281" viewBox="0 0 110 281" version="1.1">
	<path d="M 7.201 2.258 C 5.863 3.871, 1 14.618, 1 15.963 C 1 17.490, 19.990 31.966, 25.919 34.959 C 33.359 38.715, 38.769 46.288, 44.002 60.276 C 46.200 66.152, 46.315 65.361, 41.082 80.344 C 37.787 89.777, 35.180 106.278, 34.100 124.537 C 33.256 138.806, 32.525 143.682, 29.604 154.537 C 27.685 161.667, 23.357 179.875, 19.986 195 C 16.614 210.125, 12.314 227.794, 10.428 234.264 C 8.543 240.735, 7 247.260, 7.001 248.764 C 7.003 254.996, 17.647 272.564, 20.813 271.559 C 22.041 271.170, 23.232 272.139, 24.962 274.938 C 26.940 278.139, 27.714 278.688, 29.155 277.917 C 32.432 276.163, 52.558 256.613, 67.450 240.718 L 82.236 224.936 81.703 205.718 C 81.165 186.323, 78.964 149.036, 76.998 126 C 75.445 107.803, 72.447 90.418, 69.011 79.693 C 67.355 74.523, 66 68.250, 66 65.754 C 66 60.551, 68.787 46.035, 70.098 44.412 C 70.581 43.813, 72.669 42.799, 74.738 42.157 C 76.807 41.515, 80.401 39.529, 82.725 37.745 C 92.529 30.216, 107.938 17.424, 108.330 16.488 C 108.563 15.932, 107.624 12.418, 106.242 8.679 L 103.729 1.882 80.615 2.520 C 67.902 2.870, 56.975 3.319, 56.333 3.515 C 55.132 3.884, 27.995 2.520, 15.429 1.460 C 10.034 1.004, 8.084 1.193, 7.201 2.258 M 28.980 19.590 C 36.348 28.235, 37.466 29.060, 44.972 31.405 C 49.112 32.698, 55.086 34.068, 58.248 34.450 C 63.671 35.104, 64.046 35.010, 64.896 32.775 C 65.391 31.472, 68.984 27.982, 72.881 25.020 C 76.778 22.057, 79.838 19.504, 79.680 19.347 C 79.523 19.189, 68.393 18.884, 54.947 18.669 C 41.501 18.454, 29.600 17.918, 28.500 17.479 C 26.734 16.773, 26.790 17.020, 28.980 19.590" fill="none" stroke="#000" stroke-width="2px" fill-rule="evenodd"/>
</svg>
