<svg xmlns="http://www.w3.org/2000/svg" width="275" height="268" viewBox="0 0 275 268" version="1.1">
	<path d="M 98.653 3.163 C 98.309 4.448, 98.021 6.724, 98.014 8.219 C 97.999 11.144, 89.325 31.410, 80.913 48.174 C 70.225 69.473, 58.800 85.759, 47.747 95.451 C 40.724 101.609, 29.942 108.779, 25.284 110.389 C 21.872 111.568, 21.432 112.129, 20.803 116.098 C 20.419 118.519, 20.163 124.142, 20.233 128.593 C 20.341 135.423, 20.022 137.161, 18.188 139.735 C 15.208 143.921, 10.002 155.099, 10.001 157.315 C 10 159.903, 6.008 169.120, 3.825 171.576 C 2.095 173.521, 2.081 173.854, 3.595 176.891 C 5.657 181.024, 16.470 190.013, 25.500 195.102 C 36.913 201.532, 62.236 213.686, 65.873 214.478 C 67.729 214.882, 70.879 216.178, 72.873 217.357 C 78.214 220.513, 93.682 220.465, 99.658 217.274 C 101.945 216.053, 104.001 214.498, 104.227 213.819 C 104.510 212.969, 105.336 213.235, 106.878 214.672 C 108.445 216.132, 109.377 218.596, 109.983 222.877 C 112.090 237.789, 118.338 242.435, 147.500 250.776 C 151.350 251.878, 160.350 254.479, 167.500 256.557 C 183.637 261.247, 201.071 265.127, 206.964 265.339 C 211.320 265.496, 211.539 265.352, 216.100 259.342 C 221.131 252.713, 227 237.481, 227 231.052 C 227 228.725, 227.826 226.748, 229.548 224.950 C 232.371 222.004, 235.010 217.706, 238.007 211.177 L 239.991 206.855 237.496 203.583 C 235.242 200.628, 235.001 199.400, 235.008 190.906 C 235.013 184.873, 235.878 177.358, 237.419 169.949 C 243.006 143.099, 247.332 126.094, 250.124 120 C 255.140 109.051, 263.618 94.782, 268.470 89.121 C 271.006 86.163, 272.950 83.445, 272.790 83.081 C 272.267 81.891, 234.763 46, 234.042 46 C 233.655 46, 226.644 38.360, 218.462 29.023 C 204.521 13.115, 203.195 11.890, 197.400 9.570 C 191.679 7.280, 189.948 7.094, 174.321 7.081 C 162.859 7.072, 155.509 6.595, 151.463 5.596 C 145.597 4.149, 130.788 2.671, 109.889 1.448 C 99.380 0.832, 99.273 0.849, 98.653 3.163" fill="none" stroke="#000" stroke-width="2px" fill-rule="evenodd"/>
</svg>
