<?xml version="1.0" encoding="utf-8"?>
<!-- Generator: Adobe Illustrator 18.1.1, SVG Export Plug-In . SVG Version: 6.00 Build 0)  -->
<svg version="1.1" id="Layer_1" xmlns="http://www.w3.org/2000/svg" xmlns:xlink="http://www.w3.org/1999/xlink" x="0px" y="0px"
	 viewBox="0 0 200 400" enable-background="new 0 0 200 400" xml:space="preserve">
<g id="Layer_1_1_">
	<g>
		<path fill="#FFFFFF" d="M196.1,67.1C194,81.4,179,92,162.6,91.6c-41.5-1.4-83,1.3-123.8,8C22.6,102.4,7.4,90,4.6,71.1
			C3.1,59.6,1.5,48.3-0.1,36.9C-2.8,18,10.3,1.3,29.2,0.6c47.2-2,94.4,0.7,140.8,8c18.6,3,31.9,17.9,29.7,32.2
			C198.6,49.6,197.3,58.3,196.1,67.1z"/>
		<path fill="#5C74D7" d="M36,94.7c-10.7,0.4-20.2-8.4-22.6-21.1L11.5,63L7.2,39.8c-1.3-7,0.1-13.7,4.1-19c3.9-5.2,9.7-8.4,16.5-8.9
			c9.9-0.8,19.8-1.5,29.6-1.9c36.6-1.6,73.7-0.4,110.1,3.7c13.9,1.6,25.1,11.9,24.1,22l-1.8,17.6l-0.9,8.8
			c-1,9.9-11.6,18.1-24.1,18.6c-0.2,0-0.5,0-0.7,0c-7.1,0.1-14.4,0.3-21.6,0.6c-34.6,1.5-69.4,5.9-103.3,12.9
			C38.2,94.5,37.1,94.6,36,94.7L36,94.7z"/>
	</g>
</g>
<g id="Layer_1_2_">
	<g>
		<path fill="#FFFFFF" d="M195,166.7c-2.1,14.2-17.1,24.7-33.4,24.3c-41.2-1.4-82.5,1.3-123.1,7.9c-16,2.8-31.1-9.5-33.9-28.3
			c-1.5-11.4-3.1-22.7-4.7-34c-2.7-18.8,10.3-35.4,29.1-36.1c46.9-2,93.8,0.7,140,7.9c18.5,3,31.7,17.8,29.5,32
			C197.5,149.3,196.2,158,195,166.7z"/>
		<path fill="#00D36F" d="M35.8,194.1c-10.6,0.4-20.1-8.3-22.5-21l-1.9-10.5l-4.3-23.1c-1.3-7,0.1-13.6,4.1-18.9
			c3.9-5.2,9.6-8.3,16.4-8.8c9.8-0.8,19.7-1.5,29.4-1.9c36.4-1.6,73.2-0.4,109.4,3.7c13.8,1.6,24.9,11.8,23.9,21.9l-1.8,17.5
			l-0.9,8.7c-1,9.8-11.5,18-23.9,18.5c-0.2,0-0.5,0-0.7,0c-7.1,0.1-14.3,0.3-21.5,0.6c-34.4,1.5-69,5.9-102.6,12.8
			C38,193.9,36.9,194,35.8,194.1L35.8,194.1z"/>
	</g>
</g>
<g id="Layer_1_3_">
	<g>
		<path fill="#FFFFFF" d="M195.4,266.7c-2.1,14.2-17.1,24.7-33.4,24.3c-41.2-1.4-82.5,1.3-123.1,8c-16,2.8-31.1-9.5-33.9-28.3
			c-1.5-11.4-3.1-22.7-4.7-34c-2.7-18.8,10.3-35.4,29.1-36.1c46.9-2,93.8,0.7,140,8c18.5,3,31.7,17.8,29.5,32
			C197.9,249.3,196.6,258,195.4,266.7z"/>
		<path fill="#FF9D2A" d="M36.2,294.2c-10.6,0.4-20.1-8.3-22.5-21l-1.9-10.5l-4.3-23.1c-1.3-7,0.1-13.6,4.1-18.9
			c3.9-5.2,9.6-8.3,16.4-8.8c9.8-0.8,19.7-1.5,29.4-1.9c36.4-1.6,73.2-0.4,109.4,3.7c13.8,1.6,24.9,11.8,24,21.9l-1.8,17.5l-0.9,8.7
			c-1,9.8-11.5,18-24,18.5c-0.2,0-0.5,0-0.7,0c-7.1,0.1-14.3,0.3-21.5,0.6c-34.4,1.5-69,5.9-102.7,12.8
			C38.4,294,37.3,294.1,36.2,294.2L36.2,294.2z"/>
	</g>
</g>
<g id="Layer_1_4_">
	<g>
		<path fill="#FFFFFF" d="M196.2,367.3c-2.1,14.1-17,24.6-33.2,24.2c-41-1.4-82.1,1.3-122.5,7.9c-15.9,2.8-31-9.5-33.7-28.2
			c-1.5-11.4-3.1-22.5-4.6-33.8c-2.7-18.7,10.3-35.2,29-35.9c46.7-2,93.4,0.7,139.4,7.9c18.4,3,31.6,17.7,29.4,31.8
			C198.6,350,197.3,358.6,196.2,367.3z"/>
		<path fill="#FF2480" d="M37.7,394.6c-10.6,0.4-20-8.3-22.4-20.9l-1.9-10.5l-4.3-22.9c-1.3-6.9,0.1-13.5,4.1-18.8
			c3.9-5.1,9.6-8.3,16.3-8.8c9.8-0.8,19.6-1.5,29.3-1.9c36.2-1.6,72.9-0.4,108.9,3.7c13.7,1.6,24.8,11.8,23.8,21.8l-1.8,17.4
			l-0.9,8.7c-1,9.8-11.5,17.9-23.8,18.4c-0.2,0-0.5,0-0.7,0c-7,0.1-14.2,0.3-21.4,0.6c-34.2,1.5-68.6,5.8-102.2,12.8
			C39.9,394.4,38.8,394.5,37.7,394.6L37.7,394.6z"/>
	</g>
</g>
</svg>
