<svg width="200" height="200" xmlns="http://www.w3.org/2000/svg" viewBox="0 0 100 100" preserveAspectRatio="xMidYMid" class="uil-blank"><path fill="none" class="bk" d="M0 0h100v100H0z"/><circle cx="50" cy="50" r="25" fill="#edb900"/><g><path d="M79.7 53.9c-.3 2.6-1 5-1.9 7.3l15.6.2-13.7-7.5zM61.2 22.2l.2-15.6-7.5 13.6c2.5.4 5 1 7.3 2zm-15.4-1.9L38.1 6.8l.4 15.5c2.3-1 4.7-1.6 7.3-2zm27.8 11.2l7.9-13.4-13.3 8.1c2 1.5 3.8 3.3 5.4 5.3zm6.1 14.3l13.6-7.6-15.5.4c.9 2.2 1.5 4.6 1.9 7.2zM31.5 26.4l-13.4-7.9 8.1 13.3c1.5-2 3.3-3.8 5.3-5.4zm22.7 53.3l7.6 13.6-.4-15.5c-2.2.9-4.6 1.5-7.2 1.9zm-32-40.9l-15.6-.1 13.6 7.5c.4-2.6 1-5.1 2-7.4zm46.3 34.8l13.4 7.9-8.1-13.3c-1.5 2-3.3 3.8-5.3 5.4zm-29.7 4.2l-.2 15.6 7.5-13.6c-2.5-.4-5-1-7.3-2zm-12.4-9.3l-7.9 13.4 13.3-8.1c-2-1.5-3.8-3.3-5.4-5.3zm-6.1-14.3L6.8 61.9l15.5-.4c-1-2.3-1.6-4.7-2-7.3z" fill="red"/><animateTransform attributeName="transform" type="rotate" from="0 50 50" to="60 50 50" repeatCount="indefinite" dur="1s"/></g></svg>