<?xml version="1.0" encoding="utf-8"?>
<!-- Generator: Adobe Illustrator 18.1.1, SVG Export Plug-In . SVG Version: 6.00 Build 0)  -->
<svg version="1.1" id="Layer_1" xmlns="http://www.w3.org/2000/svg" xmlns:xlink="http://www.w3.org/1999/xlink" x="0px" y="0px"
	 viewBox="0 0 200 200" enable-background="new 0 0 200 200" xml:space="preserve">
<path fill="#5C74D7" d="M196.3,37.9c5.6,3.8,3.6,12-6.4,11.9C132,49.6,73.6,50.1,16,45.8c-3.4-0.3-4.3-2.7-2.7-4.1
	c-1.7-0.2-3.5-0.4-5.2-0.6c-12.3-1.6-7.9-13.7,2.7-14.3c0.7,0,1.3-0.1,2-0.1c-9.9-2.3-8.4-12.7,2-13.2C9.6,9.3,11.9,1.2,22.2,1.2
	c53.6,0.5,108.3-2,161.6,2.8c7.6,0.7,9.7,6.5,5.7,9.5c7.1,2.8,6.4,10.5-1,12.2c1.3,0.1,2.6,0.3,3.8,0.4
	C199.9,27.1,201.3,34.8,196.3,37.9z"/>
<path fill="#00D36F" d="M196.3,86.9c5.6,3.8,3.6,12-6.4,11.9C132,98.6,73.6,99.1,16,94.8c-3.4-0.3-4.3-2.7-2.7-4.1
	c-1.7-0.2-3.5-0.4-5.2-0.6c-12.3-1.6-7.9-13.7,2.7-14.3c0.7,0,1.3-0.1,2-0.1c-9.9-2.3-8.4-12.7,2-13.2c-5.2-4.2-2.9-12.3,7.4-12.3
	c53.6,0.5,108.3-2,161.6,2.8c7.6,0.7,9.7,6.5,5.7,9.5c7.1,2.8,6.4,10.5-1,12.2c1.3,0.1,2.6,0.3,3.8,0.4
	C199.9,76.1,201.3,83.8,196.3,86.9z"/>
<path fill="#FF9D2A" d="M196.3,136.9c5.6,3.8,3.6,12-6.4,11.9c-57.9-0.2-116.3,0.3-173.9-4c-3.4-0.3-4.3-2.7-2.7-4.1
	c-1.7-0.2-3.5-0.4-5.2-0.6c-12.3-1.6-7.9-13.7,2.7-14.3c0.7,0,1.3-0.1,2-0.1c-9.9-2.3-8.4-12.7,2-13.2c-5.2-4.2-2.9-12.3,7.4-12.3
	c53.6,0.5,108.3-2,161.6,2.8c7.6,0.7,9.7,6.5,5.7,9.5c7.1,2.8,6.4,10.5-1,12.2c1.3,0.1,2.6,0.3,3.8,0.4
	C199.9,126.1,201.3,133.8,196.3,136.9z"/>
<path fill="#FF2480" d="M196.3,187.1c5.6,3.8,3.6,12-6.4,11.9c-57.9-0.2-116.3,0.3-173.9-4c-3.4-0.3-4.3-2.7-2.7-4.1
	c-1.7-0.2-3.5-0.4-5.2-0.6c-12.3-1.6-7.9-13.7,2.7-14.3c0.7,0,1.3-0.1,2-0.1c-9.9-2.3-8.4-12.7,2-13.2c-5.2-4.2-2.9-12.3,7.4-12.3
	c53.6,0.5,108.3-2,161.6,2.8c7.6,0.7,9.7,6.5,5.7,9.5c7.1,2.8,6.4,10.5-1,12.2c1.3,0.1,2.6,0.3,3.8,0.4
	C199.9,176.3,201.3,184,196.3,187.1z"/>
</svg>
