<?xml version="1.0" encoding="utf-8"?>
<!-- Generator: Adobe Illustrator 17.0.0, SVG Export Plug-In . SVG Version: 6.00 Build 0)  -->
<!DOCTYPE svg PUBLIC "-//W3C//DTD SVG 1.1//EN" "http://www.w3.org/Graphics/SVG/1.1/DTD/svg11.dtd">
<svg version="1.1" id="Слой_1" xmlns="http://www.w3.org/2000/svg" xmlns:xlink="http://www.w3.org/1999/xlink" x="0px" y="0px"
	 width="1600px" height="400px" viewBox="0 0 1600 400" enable-background="new 0 0 1600 400" xml:space="preserve">
<g>
	<g>
		<path fill="#C6C2D2" d="M100.348,141.81c0,0,0.416,15.388-4.991,30.129c0,0,98.521,23.309,212.538-1.715
			c-6.12-12.055-7.784-28.899-7.784-28.899S194.663,162.285,100.348,141.81z"/>
		<ellipse fill="#E7E6EF" cx="200.323" cy="141.543" rx="99.936" ry="9.993"/>
	</g>
</g>
<g>
	<g>
		<g>
			<rect x="595.183" y="180.187" fill="#581E19" width="15.597" height="101.405"/>
			<rect x="573.077" y="277.636" display="none" fill="#581E19" width="59.099" height="4.803"/>
		</g>
		<g display="none">
			<g display="inline">
				<defs>
					<polygon id="SVGID_1_" points="610.781,277.636 610.781,180.187 595.183,180.187 595.183,277.636 573.077,277.636 
						573.077,282.439 632.176,282.439 632.176,277.636 					"/>
				</defs>
				<clipPath id="SVGID_2_">
					<use xlink:href="#SVGID_1_"  overflow="visible"/>
				</clipPath>
				<path opacity="0.3" clip-path="url(#SVGID_2_)" fill="#581E19" enable-background="new    " d="M671.184,195.271
					c0,19.551-15.588,30.045-50.688,25.754c-36.939-4.514-76.34-22.724-76.34-42.274c0-19.551,27.64-18.88,63.001-18.88
					S671.184,175.72,671.184,195.271z"/>
			</g>
		</g>
	</g>
</g>
<g>
	<g>
		<polygon fill="#581E19" points="1179.749,97.436 1179.59,122.209 1126.472,117.842 1126.129,96.945 		"/>
		<polygon fill="#A87E4F" points="1177.183,99.08 1176.921,120.878 1125.444,116.923 1125.365,98.386 		"/>
		<polygon fill="#C3996B" points="1174.516,99.08 1174.37,120.741 1125.388,116.923 1125.314,98.387 		"/>
	</g>
</g>
<g>
	<g>
		<polygon fill="#581E19" points="1229.235,275.548 1220.951,274.817 1220.951,119.986 1229.05,119.986 		"/>
	</g>
</g>
</svg>
