<?xml version="1.0" encoding="UTF-8" standalone="no"?>
<svg
   xmlns:dc="http://purl.org/dc/elements/1.1/"
   xmlns:cc="http://creativecommons.org/ns#"
   xmlns:rdf="http://www.w3.org/1999/02/22-rdf-syntax-ns#"
   xmlns:svg="http://www.w3.org/2000/svg"
   xmlns="http://www.w3.org/2000/svg"
   xmlns:sodipodi="http://sodipodi.sourceforge.net/DTD/sodipodi-0.dtd"
   xmlns:inkscape="http://www.inkscape.org/namespaces/inkscape"
   width="200"
   height="200"
   viewBox="0 0 52.916665 52.916669"
   version="1.1"
   id="svg1116"
   sodipodi:docname="1.svg"
   inkscape:version="1.0.2-2 (e86c870879, 2021-01-15)">
  <defs
     id="defs1110" />
  <sodipodi:namedview
     id="base"
     pagecolor="#ffffff"
     bordercolor="#666666"
     borderopacity="1.0"
     inkscape:pageopacity="0.0"
     inkscape:pageshadow="2"
     inkscape:zoom="1.4"
     inkscape:cx="273.98843"
     inkscape:cy="40.132343"
     inkscape:document-units="mm"
     inkscape:current-layer="layer1"
     inkscape:document-rotation="0"
     showgrid="false"
     units="px"
     inkscape:window-width="1920"
     inkscape:window-height="1001"
     inkscape:window-x="-9"
     inkscape:window-y="-9"
     inkscape:window-maximized="1"
     fit-margin-top="0"
     fit-margin-left="0"
     fit-margin-right="0"
     fit-margin-bottom="0" />
  <metadata
     id="metadata1113">
    <rdf:RDF>
      <cc:Work
         rdf:about="">
        <dc:format>image/svg+xml</dc:format>
        <dc:type
           rdf:resource="http://purl.org/dc/dcmitype/StillImage" />
        <dc:title></dc:title>
      </cc:Work>
    </rdf:RDF>
  </metadata>
  <g
     inkscape:label="Layer 1"
     inkscape:groupmode="layer"
     id="layer1"
     transform="translate(-3.1567074,-7.6159666)">
    <g
       id="g836"
       transform="translate(1.9282851,26.461701)">
      <path
         id="path552"
         style="fill:#6d6179;fill-opacity:1;fill-rule:nonzero;stroke:none;stroke-width:0.0443279"
         d="m 8.7339339,32.898011 h 1.2868441 v -6.135442 c 0,-3.19738 1.603788,-3.843241 1.680031,-3.885795 -1.8054782,-0.626797 -3.7106979,-1.131252 -5.7134379,-1.511141 2.6539192,3.826393 2.7829146,9.623611 2.7465628,11.532378" />
      <path
         id="path554"
         style="fill:#b5493d;fill-opacity:1;fill-rule:nonzero;stroke:none;stroke-width:0.0443279"
         d="m 45.468121,26.962486 c -2.168527,-0.353292 -3.847228,-0.858631 -4.490871,-1.067417 -0.721216,0.428652 -2.449566,1.146766 -4.744872,1.146766 -3.092321,0 -6.133667,-1.238969 -9.039368,-3.681441 C 20.954727,18.115944 9.4649035,10.684353 6.8836841,9.0313619 3.1565823,16.067103 4.7102818,19.637725 4.8898103,19.98304 c 5.5667127,0.923353 9.8572207,2.469072 13.9664277,4.964737 3.823735,2.322348 6.103082,4.876971 6.103082,4.876971 1.357767,1.387909 3.975335,3.043119 8.734393,3.043119 5.855731,0 15.08394,-1.995204 17.308317,-2.496112 -0.363488,-1.691999 -3.010313,-2.998348 -5.533909,-3.409269" />
      <path
         id="path556"
         style="fill:#322926;fill-opacity:1;fill-rule:nonzero;stroke:none;stroke-width:0.0443279"
         d="m 33.693713,32.867867 c -4.759058,0 -7.376626,-1.65521 -8.734393,-3.043119 0,0 -2.279347,-2.554623 -6.103082,-4.876971 C 14.747031,22.452112 10.456523,20.906393 4.8898103,19.98304 4.7102818,19.637725 3.1565823,16.067103 6.8836841,9.0313619 9.4649035,10.684353 20.954727,18.115944 27.19301,23.360394 c 2.905701,2.442472 5.947047,3.681441 9.039368,3.681441 2.295306,0 4.023656,-0.718114 4.744872,-1.146766 0.643643,0.208786 2.322344,0.714125 4.490871,1.067417 2.523596,0.410921 5.170421,1.71727 5.533909,3.409269 -2.224377,0.500908 -11.452586,2.496112 -17.308317,2.496112 z M 10.020778,26.762569 v 6.135442 H 8.7339339 c 0.036352,-1.908767 -0.092645,-7.705985 -2.7465628,-11.532378 2.00274,0.379889 3.9079597,0.884344 5.7134379,1.511141 -0.07625,0.04256 -1.680031,0.688415 -1.680031,3.885795 z m 35.635739,-0.957486 c -2.624663,-0.427767 -4.550715,-1.103768 -4.57022,-1.110417 -0.204795,-0.0727 -0.43264,-0.0257 -0.591779,0.120125 -0.241143,0.183964 -1.863549,1.054122 -4.26214,1.054122 -2.809064,0 -5.596411,-1.145881 -8.284464,-3.406164 C 20.865628,16.509053 7.1261566,7.7941615 6.9882988,7.7068381 6.852655,7.6212802 6.6877552,7.5946792 6.5326062,7.633255 6.3770148,7.6722706 6.2440299,7.7728883 6.1646818,7.9120792 1.1077435,16.794526 3.9252306,20.721103 4.060432,20.873593 c 0.9738857,1.096673 3.5644148,3.750593 3.4806348,12.575858 -0.00138,0.161356 0.047874,0.319606 0.1586963,0.437076 0.1108145,0.117474 0.2650814,0.184405 0.4268788,0.184405 h 2.4805951 c 0.323594,0 0.586018,-0.262424 0.586018,-0.58646 V 26.76257 c 0,-1.401653 0.316057,-2.340078 0.946401,-2.778925 0.877253,-0.610397 2.002298,-0.155592 2.022688,-0.150715 5.804754,2.415433 9.958734,6.811445 9.958734,6.811445 1.515131,1.549706 4.405761,3.396412 9.572635,3.396412 6.797703,0 17.613297,-2.532458 18.070316,-2.640175 0.259319,-0.06117 0.444613,-0.289463 0.451704,-0.555874 0.07048,-2.717752 -3.350756,-4.517468 -6.559216,-5.039653" />
    </g>
  </g>
</svg>
