<?xml version="1.0" encoding="utf-8"?><!DOCTYPE svg PUBLIC "-//W3C//DTD SVG 1.1//EN" "http://www.w3.org/Graphics/SVG/1.1/DTD/svg11.dtd"><svg version="1.1" id="Слой_1" xmlns="http://www.w3.org/2000/svg" xmlns:xlink="http://www.w3.org/1999/xlink" x="0px" y="0px" width="150px" height="150px" viewBox="0 0 150 150" enable-background="new 0 0 150 150" xml:space="preserve"><g id="Слой_2"><path fill="#84CDE3" stroke="#010202" stroke-miterlimit="10" d="M44.187,86.876c0,0-17.656,9.822-17.653,27.209c0.006,30.413,26.176,32.531,38.889,32.784c12.463,0.248,38.699,2.201,44.729-22.696c4.114-16.989-9.955-31.457-9.955-31.457L44.187,86.876z"/></g><g id="Слой_3"><path fill="#A6D9E2" stroke="#010202" stroke-miterlimit="10" d="M43.921,91.123c0,0-16.128,12.468-19.644-8.627C22.287,70.55,44.851,61.989,50.425,62.899c3.438,0.562,5.442,11.368,5.442,11.368L43.921,91.123z"/></g><g id="Слой_4"><path fill="#A6D9E2" stroke="#010202" stroke-miterlimit="10" d="M54.54,55.42c0,0-9.327,10.372-10.751,16.724c-1.726,7.698-3.778,18.449,13.671,22.639c3.328,0.799,13.671,0.722,13.671,0.722s5.176,9.424,15.662,7.3c17.83-3.611,14.161-17.625,12.847-23.996c-2.167-10.512-17.227-18.876-17.227-18.876L54.54,55.42z"/></g><g id="Слой_5"><path fill="none" stroke="#010202" stroke-miterlimit="10" d="M89.016,80.14c0,0-10.196-3.894-16.326,2.937c-5.556,6.192-1.56,12.427-1.56,12.427s-3.763-6.088,1.734-12.327C78.762,76.482,89.016,80.14,89.016,80.14z"/></g><g id="Слой_6"><path fill="#683D14" stroke="#010202" stroke-miterlimit="10" d="M60.944,130.908c-8.992-1.493,11.386-33.676,11.386-33.676s1.977,2.178,2.625,2.718c0.717,0.595,2.828,1.765,2.828,1.765s-8.043,16.949-11.099,26.904C65.385,132.853,62.538,131.173,60.944,130.908z"/><path fill="#683D14" stroke="#010202" stroke-miterlimit="10" d="M82.113,79.039l7.479-14.127l3.09,2.752l-4.824,12.112c0,0-1.79-0.424-2.397-0.509C84.63,79.151,82.113,79.039,82.113,79.039z"/></g><g id="Слой_10"><path fill="#1E1E1C" stroke="#E52822" stroke-miterlimit="10" d="M69.057,25.838c-0.216-2.008,4.654-4.165,6.62-4.629c1.91-0.451,6.745-0.532,7.765,1.145c1.01,1.662-1.362,6.322-3.136,7.118C77.609,30.681,69.373,28.776,69.057,25.838z"/></g><g id="Слой_7"><path fill="#C6E6F0" stroke="#020304" stroke-miterlimit="10" d="M90.376,43.209c0.006,16.856-13.384,20.771-23.625,20.838c-9.291,0.061-18.989-7.902-21.237-13.803c-2.722-7.146,0.531-22.829,12.211-25.484C79.131,19.894,90.373,33.359,90.376,43.209z"/></g><g id="Слой_12"><path fill="#585857" stroke="#020304" stroke-miterlimit="10" d="M44.611,4.983c5.35-4.778,13.645-4.025,16.101-2.323c1.49,1.033,1.172,6.304,1.172,6.304l-10.53,10.043c0,0-8.467,2.712-10.552,0.774C38.253,17.412,38.797,10.176,44.611,4.983z"/></g><g id="Слой_11"><path fill="#585857" stroke="#020304" stroke-miterlimit="10" d="M46.178,36.97c0,0-0.88-4.662-0.929-6.238c-0.038-1.215,0.263-3.724,0-4.911c-0.306-1.384-1.744-3.379-2.787-4.612c-0.601-0.71-2.779-9.989,4.497-14.235c7.847-4.579,13.042-2.008,15.062-1.255c5.858,2.184,20.06,14.262,20.06,14.262L64.756,25.34L46.178,36.97z"/></g><g id="Слой_13"><path fill="none" stroke="#020304" stroke-miterlimit="10" d="M45.355,26.982c0,0,2.922-6.081,3.494-8.187c0.168-0.618,0.589-2.299-0.149-2.713c-0.83-0.465-1.984,0.658-2.364,1.593c-0.296,0.727,0.035,2.405-0.058,3.185c-0.041,0.348-0.135-2.383,0.257-3.036c0.266-0.443,1.269-2.14,1.966-1.568c0.923,0.759,0.053,3.064-0.143,3.555C47.561,21.813,45.355,26.982,45.355,26.982z"/></g><g id="Слой_9"><path fill="#585857" stroke="#020304" stroke-miterlimit="10" d="M84.868,20.446c-3.231-3.788-15.137,0.884-19.71,2.854c-6.354,2.738-21.635,14.909-21.635,14.909l3.436-0.043c0,0,14.205-9.521,19.66-12.229c3.158-1.568,12.963-4.973,14.998-3.434c1.626,1.229-1.773,4.531-1.773,4.531l2.14,1.366C81.983,28.4,87.672,23.732,84.868,20.446z"/></g><g id="Слой_16"><path fill="#1E1E1C" stroke="#020304" stroke-miterlimit="10" d="M75.378,29.471c0.701-1.013,3.794,1.079,4.447,2.124c0.733,1.174,2.658,4.994,1.327,5.375c-1.149,0.33-1.48-3.332-2.323-4.18C77.985,31.941,74.696,30.455,75.378,29.471z"/></g><g id="Слой_17"><path fill="#3D3D3B" stroke="#010202" stroke-miterlimit="10" d="M98.207,42.611c0,0,2.836-13.259,3.053-17.271c0.227-4.192-0.796-16.773-0.796-16.773h5.774c0,0-0.238,12.626-0.896,16.773c-0.679,4.279-4.712,17.702-4.712,17.702L98.207,42.611z"/></g><g id="Слой_17__x28_копия_x29_"><path fill="#3D3D3B" stroke="#010202" stroke-miterlimit="10" d="M100.862,43.459c0,0,3.934-15.244,4.621-19.203c0.754-4.341,0.754-20.733,0.754-20.733h5.906c0,0-2.047,18.259-3.252,22.282c-2.111,7.051-6.67,17.896-6.67,17.896L100.862,43.459z"/></g><g id="Слой_17__x28_копия3_x29_"><path fill="#3D3D3B" stroke="#010202" stroke-miterlimit="10" d="M105.762,32.723c0,0,1.08-2.576,2.898-6.159c1.993-3.929,6.395-20.372,6.395-20.372l4.057,3.436c0,0-5.721,15.152-8.052,18.645c-4.086,6.122-7.536,12.814-7.536,12.814L105.762,32.723z"/></g><g id="Слой_17__x28_копия2_x29_"><path fill="#3D3D3B" stroke="#010202" stroke-miterlimit="10" d="M102.306,43.486c0,0,8.617-17.02,10.567-20.519c2.145-3.848,6.836-17.918,6.836-17.918l7.348,5.419c0,0-4.266,5.218-6.685,8.65C115.66,25.804,103.98,44.57,103.98,44.57L102.306,43.486z"/></g><g id="Слой_17__x28_копия4_x29_"><path fill="#3D3D3B" stroke="#010202" stroke-miterlimit="10" d="M103.181,45.336c0,0,11.515-17.085,14.139-20.112c3.451-3.982,9.738-8.959,9.738-8.959l3.27,4.844c0,0-8.506,6.593-11.481,9.556c-5.929,5.906-12.609,15.662-12.609,15.662L103.181,45.336z"/></g><g id="Слой_17__x28_копия5_x29_"><path fill="#3D3D3B" stroke="#010202" stroke-miterlimit="10" d="M105.54,46.327c0,0,9.521-13.033,12.145-16.06c3.451-3.982,8.063-7.217,8.063-7.217l3.285,7.317c0,0-6.658,2.932-9.922,5.575c-3.32,2.688-11.979,11.697-11.979,11.697L105.54,46.327z"/></g><g id="Слой_26__x28_копия_x29_"><path fill="#3D3D3B" stroke="#010202" stroke-miterlimit="10" d="M97.509,48.418c0,0-1.748,3.924-6.708,8.103c-2.916,2.456-9.383,6.089-4.772,9.334c2.688,1.891,3.079,0.012,7.615-7.416c3.42-5.6,5.923-9.407,5.923-9.407L97.509,48.418z"/></g><g id="Слой_26__x28_копия2_x29_"><path fill="#3D3D3B" stroke="#010202" stroke-miterlimit="10" d="M99.368,48.063c0,0-2.14,3.856-5.375,8.734c-2.041,3.078-7.4,9.191-4.35,11.259c3.802,2.578,3.209-0.827,6.767-8.77c2.809-6.271,4.452-9.556,4.452-9.556L99.368,48.063z"/></g><g id="Слой_26__x28_копия3_x29_"><path fill="#3D3D3B" stroke="#010202" stroke-miterlimit="10" d="M100.487,48.932c0,0-0.692,3.901-3.624,9.345c-1.751,3.251-6.025,9.508-2.644,10.974c3.988,1.73,4.336,0.262,6.268-8.224c1.735-7.618,1.818-10.935,1.818-10.935L100.487,48.932z"/></g><g id="Слой_26__x28_копия4_x29_"><path fill="#3D3D3B" stroke="#010202" stroke-miterlimit="10" d="M101.957,50.376c0,0,0.349,4.43-1.891,10.45c-0.831,2.233-4.044,9.206-0.498,10.206c4.657,1.313,3.217-2.867,4.181-8.249c1.045-5.837,0.043-11.072,0.043-11.072L101.957,50.376z"/></g><g id="Слой_26"><path fill="#3D3D3B" stroke="#010202" stroke-miterlimit="10" d="M96.216,48.063c0,0-2.042,1.568-7.001,5.747c-2.916,2.456-8.717,5.812-5.774,8.013c1.332,0.996,1.605,2.757,6.935-4.181c3.998-5.204,8.096-8.959,8.096-8.959L96.216,48.063z"/></g><g id="Слой_18"><path fill="#3D3D3B" stroke="#010202" stroke-miterlimit="10" d="M96.216,45.863c0-1.56,4.999-1.57,6.587-0.763c1.627,0.827,4.828,5.226,3.766,6.139c-1.117,0.96-3.929-2.621-5.071-3.551C100.214,46.643,96.216,47.323,96.216,45.863z"/></g><g id="Слой_18__x28_копия_x29_"><path fill="#3D3D3B" stroke="#010202" stroke-miterlimit="10" d="M95.213,47.757c0-1.56,4.554-1.016,6.146-0.067c1.574,0.938,5.276,4.627,4.215,5.539c-1.117,0.96-4.068-2.18-5.209-3.11C99.08,49.074,95.213,49.217,95.213,47.757z"/></g><g id="Слой_18__x28_копия5_x29_"><path fill="#3D3D3B" stroke="#010202" stroke-miterlimit="10" d="M96.415,44.194c-0.199-3.584,5.48-1.703,7.068-0.896c1.627,0.827,6.238,3.783,4.214,6.072c-0.975,1.103-3.424-3.346-5.077-4.297C100.862,44.061,96.496,45.653,96.415,44.194z"/></g><g id="Слой_33"><path fill="#1E1E1C" stroke="#010202" stroke-miterlimit="10" d="M71.197,39.359c0.002-0.998,1.46-2.722,2.92-2.721c1.109,0.001,3.252,1.527,2.854,3.393c-0.191,0.896-0.722,2.253-2.887,2.253C73.056,42.285,71.193,41.087,71.197,39.359z"/></g><g id="Слой_33__x28_копия_x29_"><path fill="#1E1E1C" stroke="#010202" stroke-miterlimit="10" d="M54.23,35.242c0.002-0.998,1.46-2.722,2.92-2.721c1.109,0.001,3.252,1.527,2.854,3.393c-0.191,0.896-0.722,2.253-2.887,2.253C56.089,38.168,54.226,36.97,54.23,35.242z"/></g><g></g><g></g><g></g><g></g><g></g><g></g></svg>