<?xml version="1.0" encoding="utf-8"?>
<!-- Generator: Adobe Illustrator 17.0.0, SVG Export Plug-In . SVG Version: 6.00 Build 0)  -->
<!DOCTYPE svg PUBLIC "-//W3C//DTD SVG 1.1//EN" "http://www.w3.org/Graphics/SVG/1.1/DTD/svg11.dtd">
<svg version="1.1" id="Слой_1" xmlns="http://www.w3.org/2000/svg" xmlns:xlink="http://www.w3.org/1999/xlink" x="0px" y="0px"
	 width="800px" height="400px" viewBox="0 0 800 400" enable-background="new 0 0 800 400" xml:space="preserve">
<radialGradient id="SVGID_1_" cx="368.0611" cy="48.1206" r="300.518" gradientTransform="matrix(1.1765 0 0 -0.7856 -33.0165 237.4835)" gradientUnits="userSpaceOnUse">
	<stop  offset="0" style="stop-color:#8B6E5F"/>
	<stop  offset="0.2705" style="stop-color:#886B5C"/>
	<stop  offset="0.7552" style="stop-color:#7C6254"/>
	<stop  offset="1" style="stop-color:#755C4F"/>
</radialGradient>
<rect y="-0.637" fill="url(#SVGID_1_)" width="800" height="400.637"/>
<g>
	<g>
		
			<linearGradient id="SVGID_2_" gradientUnits="userSpaceOnUse" x1="422.1424" y1="-97.1188" x2="422.1424" y2="-73.2904" gradientTransform="matrix(1 0 0 -1 -20.9 304.4)">
			<stop  offset="0" style="stop-color:#FFDB95"/>
			<stop  offset="1" style="stop-color:#BE9459"/>
		</linearGradient>
		<polygon fill="url(#SVGID_2_)" points="6.211,391.093 13,374.553 781.525,374.553 796.274,391.093 		"/>
	</g>
	<g>
		
			<linearGradient id="SVGID_3_" gradientUnits="userSpaceOnUse" x1="422.1424" y1="-82.4548" x2="422.1424" y2="-96.5957" gradientTransform="matrix(1 0 0 -1 -20.9 304.4)">
			<stop  offset="0" style="stop-color:#FFDB95"/>
			<stop  offset="1" style="stop-color:#CA9D5F"/>
		</linearGradient>
		<polygon fill="url(#SVGID_3_)" points="796.274,391.093 793.839,398.522 8.646,398.522 6.211,391.093 		"/>
	</g>
</g>
<g>
	<g>
		
			<linearGradient id="SVGID_4_" gradientUnits="userSpaceOnUse" x1="422.1424" y1="-36.1188" x2="422.1424" y2="-12.2903" gradientTransform="matrix(1 0 0 -1 -20.9 304.4)">
			<stop  offset="0" style="stop-color:#FFDB95"/>
			<stop  offset="1" style="stop-color:#BE9459"/>
		</linearGradient>
		<polygon fill="url(#SVGID_4_)" points="6.211,330.093 13,313.553 781.525,313.553 796.274,330.093 		"/>
	</g>
	<g>
		
			<linearGradient id="SVGID_5_" gradientUnits="userSpaceOnUse" x1="422.1424" y1="-21.4548" x2="422.1424" y2="-35.5957" gradientTransform="matrix(1 0 0 -1 -20.9 304.4)">
			<stop  offset="0" style="stop-color:#FFDB95"/>
			<stop  offset="1" style="stop-color:#CA9D5F"/>
		</linearGradient>
		<polygon fill="url(#SVGID_5_)" points="796.274,330.093 793.839,337.522 8.646,337.522 6.211,330.093 		"/>
	</g>
</g>
<g>
	<g>
		
			<linearGradient id="SVGID_6_" gradientUnits="userSpaceOnUse" x1="420.9" y1="29.8812" x2="420.9" y2="53.7096" gradientTransform="matrix(1 0 0 -1 -20.9 304.4)">
			<stop  offset="0" style="stop-color:#FFDB95"/>
			<stop  offset="1" style="stop-color:#BE9459"/>
		</linearGradient>
		<polygon fill="url(#SVGID_6_)" points="4.969,264.093 11.758,247.553 780.282,247.553 795.031,264.093 		"/>
	</g>
	<g>
		
			<linearGradient id="SVGID_7_" gradientUnits="userSpaceOnUse" x1="420.9" y1="44.5452" x2="420.9" y2="30.4043" gradientTransform="matrix(1 0 0 -1 -20.9 304.4)">
			<stop  offset="0" style="stop-color:#FFDB95"/>
			<stop  offset="1" style="stop-color:#CA9D5F"/>
		</linearGradient>
		<polygon fill="url(#SVGID_7_)" points="795.031,264.093 792.597,271.522 7.403,271.522 4.969,264.093 		"/>
	</g>
</g>
<g>
	<g>
		
			<linearGradient id="SVGID_8_" gradientUnits="userSpaceOnUse" x1="420.9" y1="95.8812" x2="420.9" y2="119.7096" gradientTransform="matrix(1 0 0 -1 -20.9 304.4)">
			<stop  offset="0" style="stop-color:#FFDB95"/>
			<stop  offset="1" style="stop-color:#BE9459"/>
		</linearGradient>
		<polygon fill="url(#SVGID_8_)" points="4.969,198.093 11.758,181.553 780.282,181.553 795.031,198.093 		"/>
	</g>
	<g>
		
			<linearGradient id="SVGID_9_" gradientUnits="userSpaceOnUse" x1="420.9" y1="110.5452" x2="420.9" y2="96.4043" gradientTransform="matrix(1 0 0 -1 -20.9 304.4)">
			<stop  offset="0" style="stop-color:#FFDB95"/>
			<stop  offset="1" style="stop-color:#CA9D5F"/>
		</linearGradient>
		<polygon fill="url(#SVGID_9_)" points="795.031,198.093 792.597,205.522 7.403,205.522 4.969,198.093 		"/>
	</g>
</g>
<g>
	<g>
		
			<linearGradient id="SVGID_10_" gradientUnits="userSpaceOnUse" x1="420.9" y1="160.8812" x2="420.9" y2="184.7097" gradientTransform="matrix(1 0 0 -1 -20.9 304.4)">
			<stop  offset="0" style="stop-color:#FFDB95"/>
			<stop  offset="1" style="stop-color:#BE9459"/>
		</linearGradient>
		<polygon fill="url(#SVGID_10_)" points="4.969,133.093 11.758,116.553 780.282,116.553 795.031,133.093 		"/>
	</g>
	<g>
		
			<linearGradient id="SVGID_11_" gradientUnits="userSpaceOnUse" x1="420.9" y1="175.5452" x2="420.9" y2="161.4043" gradientTransform="matrix(1 0 0 -1 -20.9 304.4)">
			<stop  offset="0" style="stop-color:#FFDB95"/>
			<stop  offset="1" style="stop-color:#CA9D5F"/>
		</linearGradient>
		<polygon fill="url(#SVGID_11_)" points="795.031,133.093 792.597,140.522 7.403,140.522 4.969,133.093 		"/>
	</g>
</g>
<g>
	<g>
		
			<linearGradient id="SVGID_12_" gradientUnits="userSpaceOnUse" x1="422.1424" y1="222.9746" x2="422.1424" y2="246.8031" gradientTransform="matrix(1 0 0 -1 -20.9 304.4)">
			<stop  offset="0" style="stop-color:#FFDB95"/>
			<stop  offset="1" style="stop-color:#BE9459"/>
		</linearGradient>
		<polygon fill="url(#SVGID_12_)" points="6.211,71 13,54.459 781.525,54.459 796.274,71 		"/>
	</g>
	<g>
		
			<linearGradient id="SVGID_13_" gradientUnits="userSpaceOnUse" x1="422.1424" y1="237.6386" x2="422.1424" y2="223.4977" gradientTransform="matrix(1 0 0 -1 -20.9 304.4)">
			<stop  offset="0" style="stop-color:#FFDB95"/>
			<stop  offset="1" style="stop-color:#CA9D5F"/>
		</linearGradient>
		<polygon fill="url(#SVGID_13_)" points="796.274,71 793.839,78.429 8.646,78.429 6.211,71 		"/>
	</g>
</g>
<g>
</g>
<g>
</g>
<g>
</g>
<g>
</g>
<g>
</g>
<g>
</g>
</svg>
