<?xml version="1.0" encoding="utf-8"?>
<!-- Generator: Adobe Illustrator 18.1.1, SVG Export Plug-In . SVG Version: 6.00 Build 0)  -->
<svg version="1.1" id="Layer_1" xmlns="http://www.w3.org/2000/svg" xmlns:xlink="http://www.w3.org/1999/xlink" x="0px" y="0px" width="150px" height="150px" viewBox="0 0 150 150" enable-background="new 0 0 150 150" xml:space="preserve">
<g>
	<path fill="#1E1E1C" d="M126.7,61.5c3.1,7.6-0.9,15.8-7.3,20.2c-8.3,5.7-18.7,5.5-28.3,5.1c2,8.6,3.5,17.2,4.5,25.8
		c0.7,6.3,1.7,13.2-0.4,19.3c-1.9,5.4-6.5,9.2-11.5,11.6c-9.2,4.4-23.4,5.1-31-2.9c-9.2-9.7,0.3-22.8,5.5-31.6
		c4.1-6.8,7.5-14.2,9.1-22c-10.8,1.3-21.8-3.7-31.2-8.6c-8.3-4.3-15.9-12.8-12.7-22.8c1.2-3.8,4-6.4,7.1-8.7
		c3.9-2.8,7.8-5.3,10.8-9.2C47,30.3,50,21.2,56.6,14.1c3.2-3.4,6.8-6.5,11.1-8.3c4.5-1.9,9.6-2.4,14.5-2.1c8.3,0.5,17.5,2.8,23,9.4
		c5.8,7,6.1,16.5,7.7,25c0.9,4.9,2.3,9.8,5.4,13.8C120.9,55.3,125,57.4,126.7,61.5z M121.2,79c3.6-3.3,5.8-8,5.4-12.9
		c-0.2-2.5-1-5-2.7-7c-1.6-1.9-3.7-3.3-5.4-5.1c0.3,1.2,0.1,2.5-0.7,3.5c0,0,0,0,0,0c3.7,3.1,6.5,7.3,6.1,12.2
		c-0.5,6-5.6,10.2-10.9,12.2c-7,2.7-15.1,3-22.5,2.3c0.1,0.5,0.2,1,0.4,1.5C101.2,86.2,113,86.5,121.2,79z M113.3,81
		c7.5-3,12.6-10.7,8.1-18.4c-0.6-1.1-1.4-2.1-2.3-2.9c0,0.1-0.1,0.1-0.1,0.1c-5.2,1.4-10.6,2.2-15.9,3.2c-4.9,0.9-9.8,2-14.7,2.6
		c0.3,1.2-0.1,2.4-1.1,3.2c4.9,4.4,10,9,14.3,14c0.2,0.3,0,0.6-0.3,0.6c-0.1,0-0.2,0-0.2-0.1c-4.9-4.5-9.5-9.5-14.3-14.2
		c-0.1,0-0.1,0.1-0.2,0.1c1.4,4.6,2.7,9.3,3.8,14.1c3.5,0.4,7.2,0.5,10.9,0.2C105.4,83.3,109.5,82.5,113.3,81z M117.3,57.1
		c1.1-1.4,0.9-3.7-0.7-4.6c-1.5-0.9-3.5,0-4.3,1.4c0.8,0.5,1.7,0.9,2.5,1.4C115.6,55.8,116.4,56.4,117.3,57.1
		C117.3,57.1,117.3,57.1,117.3,57.1z M111.9,53.7c0.8-1.8,3-2.8,4.8-1.9c-1.8-2.5-3-5.3-3.8-8.2c-1.4,0.6-3.4-0.1-3.9-1.6
		c-0.6-1.7,0.9-3.7,2.6-3.7c-1.5-7.9-1.9-16.3-6.2-22.7c-2.7,5.3-9,8.7-14.1,4c-3.9-3.6-2.8-10.4,1.9-12.7c-5.7-2-12.2-2.5-18-1.8
		c-5.8,0.7-10.9,3.4-15.1,7.1c4.7,2.6,6.4,8.3,3,12.7c-3.3,4.3-10,6.2-13.9,1.7c-1.6,3-3.2,6.1-5,9c0.6-0.4,1.2-0.7,1.9-0.9
		c4.7-1.3,9.1,2.5,9.4,7.1c9.5-1.2,19.1-0.4,28.4,1.8c-1.4-1.4-2-3.5-1.3-5.5c1-2.9,4.6-4.6,7.4-3.2c2.7,1.4,3.8,5.1,2,7.6
		c-0.5,0.8-2,1.7-3.4,2.3c1.8,0.5,3.5,1,5.2,1.6C99.8,48.4,106.2,50.7,111.9,53.7z M118.7,59.3c-3.8-3.7-9.2-5.9-14-7.9
		c-4.4-1.8-8.9-3.5-13.5-4.9c-1.6-0.5-3.1-0.9-4.7-1.3c-0.5,0-0.9-0.1-1.3-0.3c-4.5-1.1-9.2-2-13.8-2.4c1.2,6.2,1.9,12.4,3.1,18.6
		c0,0.1,0,0.2-0.1,0.2c2.8-0.3,6.4-0.5,9.3,0.3c2.4-4.9,4.9-9.7,7.1-14.7c0.1-0.2,0.3-0.2,0.4-0.2c0.2,0.1,0.3,0.3,0.2,0.6
		c-2.2,4.9-4.5,9.8-7.2,14.5c0.9,0.3,1.8,0.7,2.5,1.3c0.7,0.5,1.2,1.2,1.5,2c5.1-1.3,10.4-2.1,15.6-3.1
		C108.7,61,113.7,59.9,118.7,59.3z M109.7,41.7c0.4,1.2,1.9,1.8,3.1,1.4c-0.4-1.4-0.7-2.8-1-4.2C110.4,39.1,109.2,40.3,109.7,41.7z
		 M104.8,14.7c-1.3-1.7-2.8-3.2-4.8-4.6c-1.9-1.3-3.9-2.3-6.1-3.1c-4.2,2.7-5.8,8.8-1.4,12.2C97.3,23,102.6,19.5,104.8,14.7z
		 M95.2,123.5c0-6.6-0.9-13.2-2-19.6c-2.1-12.9-5.8-25.4-8.7-38.1c-5.6-0.6-11.1-0.1-16.5,1.4c0,0-0.1,0-0.1,0c0,0,0,0,0,0
		c1.8,6.4,1.8,12.8,0.6,19.1c0,0,0,0,0,0c0.4,0,0.5,0.6,0.1,0.7c-0.1,0-0.2,0-0.3,0c-1.3,6.6-3.9,13-7.1,18.9
		c-5,9.3-17.7,23.6-7.9,34c4,4.3,10.7,5.7,16.3,5.7c5.9,0,11.8-1.8,16.7-5C92.7,136.5,95.2,130.8,95.2,123.5z M92,40.7
		c0.5-2.2-0.9-4.7-3-5.3c-2.5-0.7-5.3,1.2-5.8,3.7c-0.4,2,0.7,3.8,2.3,4.9c0.5,0.1,0.9,0.2,1.3,0.3c0.8,0,1.6-0.3,2.1-0.5
		C90.3,43.3,91.6,42.2,92,40.7z M86.3,68.5c2.2-1.2,1.2-4-0.7-5.1c-1.3-0.8-2.9-1-4.4-1.1c-2.3-0.3-4.6-0.3-6.8-0.1
		c-2.4,0.2-5.1,0.6-7.3,1.7c-1.4,0.7-2.8,1.8-2.9,3.5c-0.1,2.1,1.6,3.3,3.4,3.5c-0.2-1.1-0.4-2.2-0.7-3.3c-0.1-0.5,0.4-0.8,0.8-0.7
		c0-0.1,0.1-0.2,0.2-0.3c5.5-1.8,11.1-2.4,16.9-1.7c0,0,0.1,0,0.1,0c0.1,0,0.3,0.1,0.4,0.3C85.6,66.3,85.9,67.4,86.3,68.5z
		 M74.1,61.4c0,0-0.1-0.1-0.1-0.1c-1.6-6-3.1-12.6-3.1-18.8c-5.2-0.4-10.3-0.4-15.5,0.3c-0.1,0.1-0.3,0.1-0.4,0.1
		c-1.4,0.2-2.8,0.4-4.2,0.7c0,0,0.1,0,0.1,0.1c5.5,6.3,10.8,12.8,15.1,20c2.1-1.3,5-1.8,7.2-2.1C73.3,61.5,73.7,61.4,74.1,61.4z
		 M67.7,84.5c0.7-4.4,0.7-8.8,0-13.2c-0.9,0.1-1.7-0.1-2.4-0.6l-0.4-0.1c0.1-0.1,0.2-0.1,0.2-0.1c-0.9-0.6-1.6-1.6-1.7-2.8
		c-7.2-0.7-14.4-2.2-21.5-3.4c-3.7-0.6-7.3-1.2-11-1.8c-0.8-0.1-3.3-0.1-3.8-1.1c0,3.7,1.9,7.2,5.1,10c4.7,4.2,10.8,7.3,16.6,9.6
		c1.3,0.5,2.5,1,3.8,1.4l0.4,0.1C57.8,84,62.6,84.7,67.7,84.5z M67.4,86.4c0.1-0.4,0.2-0.9,0.2-1.3c-7.6,1.1-15.5-1.5-22.4-4.7
		c-6.2-2.9-13.7-6.5-17.4-12.6c-3.2-5.2-1.7-11.4,2.3-15.6c3.1-3.3,7.4-5.5,11.8-7.1c-0.9-1.7-1-3.9-0.4-5.8c-0.6,0.8-1.3,1.6-2,2.3
		c-5.7,5.8-15.2,8.5-15.8,18c-0.6,10.1,8.1,16,16.2,19.8C48.6,83.3,57.8,87,67.4,86.4z M63.6,66.3c0.3-1,1-1.8,1.8-2.5
		c-4.9-6.7-9.8-13.4-15.3-19.6c-0.2-0.2-0.1-0.4,0-0.5c-1.2,0.3-2.4,0.6-3.6,0.9c-6.1,1.8-13,4.4-16.9,9.7c-1.5,2.1-2.3,4.2-2.5,6.3
		c0.2-0.1,0.5-0.1,0.5,0.1c0.2,0.9,3.7,1,4.5,1.1c1.6,0.3,3.2,0.5,4.8,0.8c2.9,0.5,5.7,1,8.6,1.5c6,1,12,1.8,17.9,3.2
		C63.5,67,63.5,66.6,63.6,66.3z M62.4,24.2c3.1-4.1,1.4-9.2-3-11.5c-2.9,2.6-5.3,5.8-7.4,9c-0.9,1.4-1.7,2.8-2.5,4.3
		C53.8,29.4,59.1,28.6,62.4,24.2z M48.8,43c1.9-0.5,3.9-0.8,5.8-1.1c-0.5-4-3.9-7.4-8.2-6.3c-3.7,0.9-5,5.9-3.7,9.2
		C44.7,44.1,46.8,43.5,48.8,43z"/>
	<path fill="#E83A43" d="M126.6,66.1c0.3,4.9-1.8,9.6-5.4,12.9c-8.2,7.5-19.9,7.2-30.2,6.8c-0.1-0.5-0.2-1-0.4-1.5
		c7.4,0.7,15.5,0.3,22.5-2.3c5.3-2,10.4-6.2,10.9-12.2c0.4-4.9-2.4-9.2-6.1-12.2c0,0,0,0,0,0c0.8-1,1-2.3,0.7-3.5
		c1.7,1.8,3.8,3.2,5.4,5.1C125.6,61.1,126.4,63.6,126.6,66.1z"/>
	<path fill="#FEF0D7" d="M121.3,62.6c4.6,7.7-0.6,15.4-8.1,18.4c-3.8,1.5-7.9,2.3-12,2.6l0-0.1c0.3,0,0.5-0.3,0.3-0.6
		c-4.3-5-9.4-9.6-14.3-14c1-0.8,1.4-2,1.1-3.2c4.9-0.7,9.8-1.7,14.7-2.6c5.3-1,10.7-1.8,15.9-3.2c0.1,0,0.1-0.1,0.1-0.1
		C119.9,60.6,120.7,61.5,121.3,62.6z"/>
	<path fill="#F6F6F6" d="M116.6,52.5c1.6,0.9,1.8,3.2,0.7,4.6c0,0,0,0,0,0c-0.8-0.7-1.7-1.3-2.6-1.8c-0.8-0.5-1.6-0.9-2.5-1.4
		C113,52.4,115,51.6,116.6,52.5z"/>
	<path fill="#E83A43" d="M116.7,51.8c-1.8-0.9-4,0.1-4.8,1.9c-5.7-3-12.1-5.3-18.1-7.3c-1.7-0.6-3.5-1.1-5.2-1.6
		c1.5-0.6,2.9-1.5,3.4-2.3c1.8-2.5,0.7-6.2-2-7.6c-2.8-1.4-6.4,0.4-7.4,3.2c-0.7,2,0,4.1,1.3,5.5c-9.3-2.2-18.9-3-28.4-1.8
		c-0.3-4.6-4.7-8.4-9.4-7.1c-0.7,0.2-1.3,0.5-1.9,0.9c1.8-2.9,3.4-6,5-9c3.9,4.5,10.7,2.6,13.9-1.7c3.4-4.4,1.7-10.1-3-12.7
		c4.2-3.7,9.3-6.4,15.1-7.1c5.7-0.7,12.2-0.2,18,1.8c-4.7,2.3-5.8,9.1-1.9,12.7c5.1,4.7,11.4,1.4,14.1-4c4.3,6.4,4.7,14.7,6.2,22.7
		c-1.8,0.1-3.2,2-2.6,3.7c0.5,1.6,2.4,2.3,3.9,1.6C113.7,46.5,114.9,49.3,116.7,51.8z M104,36.5c2.9-1.5,4-5.4,2.5-8.3
		c-1.4-2.7-5-3.7-7.7-2.5c0,0-0.1,0-0.1,0c-3.3,1-4.8,4.7-3.4,7.8C96.7,36.8,100.9,38.1,104,36.5z M105.4,46.4
		c0.1-0.9-0.4-1.7-1.2-2c0-0.1-0.1-0.2-0.2-0.2c-1.1-0.3-2.1,0.6-2.3,1.7c-0.1,1,0.7,1.8,1.7,2C104.4,47.9,105.3,47.3,105.4,46.4z
		 M80.5,27c1.2-0.1,2.3-0.9,2.2-2.2c0-1.2-1.1-2.3-2.3-2.3c0,0,0,0-0.1,0c-0.1-0.1-0.2-0.2-0.3-0.1c-1.2,0.2-2,1.4-1.9,2.6
		C78.2,26.3,79.3,27.1,80.5,27z M78.9,18.2c2.8-1.1,4.1-4.4,3-7.2C80.7,8,77,7,74.2,8.5c-0.1,0-0.1,0.1-0.1,0.2
		c-2.4,1-3.8,3.8-2.9,6.3C72.3,18.1,76,19.4,78.9,18.2z M69.3,36.9c2.6-0.5,3.9-3.6,3.2-6c-0.7-2.2-3.2-3.5-5.3-2.3
		c-2,0.7-3.4,2.9-3,5.1C64.7,35.8,67.1,37.4,69.3,36.9z"/>
	<path fill="#FEF0D7" d="M104.7,51.5c4.8,2,10.2,4.1,14,7.9c-5,0.6-10,1.7-15,2.7c-5.2,1-10.4,1.8-15.6,3.1c-0.3-0.7-0.8-1.5-1.5-2
		c-0.7-0.6-1.6-1-2.5-1.3c2.8-4.6,5.1-9.5,7.2-14.5c0.1-0.2,0-0.5-0.2-0.6l0.1-0.2C95.8,48,100.3,49.6,104.7,51.5z"/>
	<path fill="#F6F6F6" d="M112.8,43.1c-1.2,0.4-2.7-0.2-3.1-1.4c-0.4-1.4,0.8-2.7,2.1-2.8C112.1,40.3,112.4,41.8,112.8,43.1z"/>
	<path fill="#1E1E1C" d="M106.5,28.2c1.5,2.9,0.4,6.8-2.5,8.3c-3.2,1.7-7.3,0.3-8.8-3c-1.4-3.1,0.1-6.8,3.4-7.8c0.1,0,0.1,0,0.1,0
		C101.5,24.4,105.1,25.5,106.5,28.2z M103.9,35.6c2.3-1.4,3.2-4.6,1.9-7c-1.4-2.6-4.6-3.2-7.2-2c-0.2,0.1-0.4,0-0.5-0.2
		c-2.4,1.6-3.5,4.6-1.9,7.3C97.8,36.3,101.3,37.1,103.9,35.6z"/>
	<path fill="#F6F6F6" d="M105.8,28.6c1.3,2.4,0.4,5.6-1.9,7c-2.6,1.5-6.1,0.7-7.6-1.9c-1.6-2.7-0.5-5.7,1.9-7.3
		c0.1,0.2,0.2,0.3,0.5,0.2C101.2,25.4,104.4,26,105.8,28.6z"/>
	<path fill="#1E1E1C" d="M104.3,44.4c0.8,0.3,1.3,1.1,1.2,2c-0.1,1-1,1.6-2,1.4c-1-0.1-1.8-0.9-1.7-2c0.1-1,1.2-1.9,2.3-1.7
		C104.2,44.2,104.2,44.3,104.3,44.4z M103.6,47.3c1.6,0.1,1.7-2,0.6-2.6c0,0-0.1,0.1-0.2,0.1c-0.8-0.1-1.7,0.5-1.7,1.4
		C102.3,46.8,103,47.2,103.6,47.3z"/>
	<path fill="#F6F6F6" d="M104.2,44.6c1.2,0.6,1,2.7-0.6,2.6c-0.7,0-1.3-0.5-1.3-1.2c0-0.9,0.9-1.4,1.7-1.4
		C104.1,44.7,104.1,44.7,104.2,44.6z"/>
	<path fill="#FEF0D7" d="M101.2,83.5L101.2,83.5c-3.7,0.4-7.4,0.2-10.9-0.1c-1.2-4.7-2.4-9.4-3.8-14.1c0.1,0,0.1-0.1,0.2-0.1
		c4.7,4.7,9.3,9.7,14.3,14.2C101.1,83.5,101.2,83.5,101.2,83.5z"/>
	<path fill="#F6F6F6" d="M100,10.1c2,1.3,3.6,2.9,4.8,4.6c-2.2,4.8-7.5,8.3-12.4,4.5c-4.4-3.4-2.8-9.5,1.4-12.2
		C96.1,7.9,98.1,8.9,100,10.1z"/>
	<path fill="#FEF0D7" d="M93.2,103.9c1.1,6.5,2,13.1,2,19.6c0,7.2-2.5,13-8.7,17c-4.9,3.2-10.8,5-16.7,5c-5.7,0-12.3-1.4-16.3-5.7
		c-9.8-10.4,2.9-24.7,7.9-34c3.2-5.9,5.8-12.3,7.1-18.9c0.1,0,0.2,0,0.3,0c0.4-0.1,0.3-0.7-0.1-0.7c0,0,0,0,0,0
		c1.2-6.3,1.1-12.7-0.6-19.1c0,0,0,0,0,0c0,0,0.1,0,0.1,0c5.4-1.5,10.9-2,16.5-1.4C87.4,78.5,91.1,91,93.2,103.9z"/>
	<path fill="#F6F6F6" d="M89,35.3c2.2,0.6,3.5,3.2,3,5.3c-0.4,1.5-1.7,2.6-3.1,3.1c-0.5,0.2-1.3,0.4-2.1,0.5
		c-0.4-0.1-0.9-0.2-1.3-0.3c-1.6-1.1-2.7-2.9-2.3-4.9C83.7,36.5,86.4,34.6,89,35.3z"/>
	<path fill="#FEF0D7" d="M91.2,46.5l-0.1,0.2c-0.2-0.1-0.4,0-0.4,0.2c-2.2,5-4.7,9.8-7.1,14.7c-2.9-0.8-6.4-0.6-9.3-0.3
		c0.1-0.1,0.1-0.1,0.1-0.2c-1.2-6.2-1.9-12.5-3.1-18.6c4.7,0.4,9.3,1.3,13.8,2.4c0.4,0.2,0.8,0.3,1.3,0.3
		C88,45.6,89.6,46.1,91.2,46.5z"/>
	<path fill="#FEF0D7" d="M85.6,63.4c1.8,1.1,2.9,3.9,0.7,5.1c-0.3-1.1-0.7-2.2-1-3.3c-0.1-0.2-0.2-0.3-0.4-0.3c0,0-0.1,0-0.1,0
		c-5.7-0.7-11.4-0.1-16.9,1.7c-0.1,0-0.2,0.2-0.2,0.3c-0.4-0.2-0.9,0.1-0.8,0.7c0.3,1.1,0.5,2.2,0.7,3.3c-1.8-0.1-3.5-1.4-3.4-3.5
		c0.1-1.7,1.5-2.8,2.9-3.5c2.2-1.1,4.9-1.4,7.3-1.7c2.3-0.2,4.6-0.2,6.8,0.1C82.7,62.4,84.3,62.6,85.6,63.4z"/>
	<path fill="#1E1E1C" d="M82.7,24.8c0,1.3-1,2.1-2.2,2.2c-1.2,0.1-2.3-0.7-2.4-1.9c-0.1-1.2,0.7-2.4,1.9-2.6c0.1,0,0.2,0,0.3,0.1
		c0,0,0,0,0.1,0C81.6,22.5,82.7,23.6,82.7,24.8z M82.1,24.8c0-1-0.8-1.9-1.7-2c0,0,0,0,0,0c0,0.1-0.1,0.1-0.2,0.2
		c-1.8,0.5-1.9,3.3,0.2,3.4C81.3,26.4,82.1,25.8,82.1,24.8z"/>
	<path fill="#F6F6F6" d="M80.4,22.8c1,0.1,1.7,1,1.7,2c0,1-0.9,1.6-1.8,1.5c-2.1,0-2-2.9-0.2-3.4C80.3,22.9,80.3,22.9,80.4,22.8
		C80.4,22.8,80.4,22.8,80.4,22.8z"/>
	<path fill="#1E1E1C" d="M81.9,11c1.1,2.8-0.2,6.1-3,7.2c-2.9,1.1-6.6-0.1-7.7-3.2c-0.9-2.5,0.5-5.3,2.9-6.3c0-0.1,0.1-0.1,0.1-0.2
		C77,7,80.7,8,81.9,11z M78.5,17.5c2.4-0.9,3.6-3.8,2.7-6.2c-1-2.7-4.3-3.5-6.6-2.2c-0.1,0.1-0.3,0-0.4,0c-1.8,1-3,3.2-2.4,5.3
		C72.6,17.3,75.9,18.5,78.5,17.5z"/>
	<path fill="#F6F6F6" d="M81.2,11.3c0.9,2.4-0.2,5.3-2.7,6.2c-2.6,1-6-0.2-6.7-3.1c-0.6-2.1,0.6-4.2,2.4-5.3c0.1,0.1,0.2,0.1,0.4,0
		C77,7.9,80.2,8.6,81.2,11.3z"/>
	<path fill="#FEF0D7" d="M74,61.2c0,0.1,0.1,0.1,0.1,0.1c-0.4,0-0.7,0.1-1.1,0.1c-2.1,0.3-5.1,0.7-7.2,2.1
		c-4.3-7.1-9.6-13.7-15.1-20c0,0-0.1,0-0.1-0.1c1.4-0.3,2.8-0.5,4.2-0.7c0.1,0.1,0.3,0,0.4-0.1c5.1-0.7,10.3-0.7,15.5-0.3
		C70.9,48.6,72.4,55.3,74,61.2z"/>
	<path fill="#1E1E1C" d="M72.5,30.9c0.7,2.4-0.6,5.5-3.2,6c-2.2,0.4-4.6-1.1-5-3.3c-0.5-2.2,0.9-4.4,3-5.1
		C69.3,27.4,71.8,28.6,72.5,30.9z M71.9,32.3c0-2.4-2.3-4.4-4.6-3c-0.2,0.1-0.3,0-0.4-0.1c-1.1,0.8-1.9,2.1-1.9,3.5
		c0,1.8,1.5,3.2,3.2,3.4C70.3,36.4,71.9,34.4,71.9,32.3z"/>
	<path fill="#F6F6F6" d="M67.4,29.3c2.2-1.5,4.6,0.6,4.6,3c0,2-1.6,4.1-3.7,3.8c-1.7-0.2-3.2-1.6-3.2-3.4c0-1.4,0.8-2.7,1.9-3.5
		C67,29.4,67.2,29.4,67.4,29.3z"/>
	<path fill="#FEF0D7" d="M67.7,71.3c0.7,4.4,0.7,8.9,0,13.2c-5.1,0.1-9.9-0.5-14.7-1.9c0,0,0,0,0,0c2.1-1.6,3.9-3.7,5.8-5.5
		c2.1-2,4.3-4,6.4-6c0.1-0.1,0.1-0.2,0-0.3C66,71.2,66.8,71.4,67.7,71.3z"/>
	<path fill="#E83A43" d="M67.6,85c-0.1,0.4-0.1,0.9-0.2,1.3C57.8,87,48.6,83.3,40,79.3c-8.1-3.7-16.8-9.7-16.2-19.8
		c0.6-9.4,10-12.2,15.8-18c0.7-0.7,1.4-1.5,2-2.3c-0.6,1.9-0.5,4,0.4,5.8c-4.4,1.6-8.7,3.8-11.8,7.1c-4.1,4.3-5.5,10.4-2.3,15.6
		c3.7,6.1,11.2,9.7,17.4,12.6C52.1,83.5,60,86.1,67.6,85z"/>
	<path fill="#1E1E1C" d="M65.3,70.7c0.1,0.1,0.1,0.2,0,0.3c-2.1,2-4.3,4-6.4,6c-1.9,1.8-3.7,3.9-5.8,5.5c0,0,0,0,0,0l-0.4-0.1
		c-0.1-0.1-0.1-0.2,0-0.4c3.3-4.3,8.1-8.1,12.3-11.4L65.3,70.7z"/>
	<path fill="#FEF0D7" d="M65.1,70.6c-0.1,0-0.2,0-0.2,0.1c-4.2,3.4-9,7.1-12.3,11.4c-0.1,0.1-0.1,0.3,0,0.4
		c-1.3-0.4-2.6-0.9-3.8-1.4c-5.8-2.4-11.9-5.4-16.6-9.6c-3.2-2.8-5-6.3-5.1-10c0.6,1,3,1,3.8,1.1c3.7,0.6,7.3,1.2,11,1.8
		c7.1,1.2,14.3,2.6,21.5,3.4C63.5,69,64.2,70,65.1,70.6z"/>
	<path fill="#FEF0D7" d="M65.5,63.8c-0.8,0.6-1.5,1.4-1.8,2.5c-0.1,0.4-0.2,0.7-0.2,1c-5.9-1.4-11.9-2.2-17.9-3.2
		c-2.9-0.5-5.7-1-8.6-1.5c-1.6-0.3-3.2-0.5-4.8-0.8c-0.8-0.1-4.3-0.2-4.5-1.1c-0.1-0.2-0.4-0.3-0.5-0.1c0.2-2.1,0.9-4.2,2.5-6.3
		c3.9-5.3,10.8-8,16.9-9.7c1.2-0.3,2.4-0.7,3.6-0.9c-0.1,0.1-0.1,0.4,0,0.5C55.6,50.4,60.5,57.1,65.5,63.8z"/>
	<path fill="#F6F6F6" d="M59.4,12.8c4.3,2.3,6.1,7.4,3,11.5c-3.3,4.4-8.6,5.2-12.9,1.9c0.8-1.5,1.6-2.9,2.5-4.3
		C54.1,18.5,56.5,15.4,59.4,12.8z"/>
	<path fill="#F6F6F6" d="M54.6,41.9c-1.9,0.3-3.9,0.6-5.8,1.1c-2,0.5-4.1,1.1-6.2,1.8c-1.2-3.4,0-8.3,3.7-9.2
		C50.7,34.4,54.1,37.8,54.6,41.9z"/>
</g>
</svg>
