<?xml version="1.0" encoding="utf-8"?>
<!-- Generator: Adobe Illustrator 17.0.0, SVG Export Plug-In . SVG Version: 6.00 Build 0)  -->
<!DOCTYPE svg PUBLIC "-//W3C//DTD SVG 1.1//EN" "http://www.w3.org/Graphics/SVG/1.1/DTD/svg11.dtd">
<svg version="1.1" id="Слой_1" xmlns="http://www.w3.org/2000/svg" xmlns:xlink="http://www.w3.org/1999/xlink" x="0px" y="0px"
	 width="400px" height="466px" viewBox="0 0 400 466" enable-background="new 0 0 400 466" xml:space="preserve">
<linearGradient id="SVGID_1_" gradientUnits="userSpaceOnUse" x1="69.5" y1="842.6381" x2="69.5" y2="452.5028" gradientTransform="matrix(1 0 0 1 131.5 -426.5)">
	<stop  offset="0.0899" style="stop-color:#FFFFFF"/>
	<stop  offset="0.4888" style="stop-color:#6FC8E0"/>
	<stop  offset="0.6573" style="stop-color:#57C2E3"/>
	<stop  offset="0.8708" style="stop-color:#15B8E8"/>
</linearGradient>
<rect x="1" fill="url(#SVGID_1_)" width="400" height="466"/>
<g>
	<g>
		<polygon fill="#C9526E" points="198.489,458 194.483,331.305 190.474,204.924 186.464,331.465 182.459,458 190.474,458 		"/>
		<polygon fill="#C9526E" points="247.507,348.191 209.024,456.391 210.065,458 226.466,458 254.553,355.387 285.991,240.943 		"/>
		<polygon fill="#C9526E" points="155.35,458 172.196,458 141.724,342.66 111.208,227.482 134.261,347.844 		"/>
	</g>
	<path fill="#AACB5D" d="M371.656,140.579l-10.282-1.791l-13.349,27.132l-6.505-6.91l-7.424-3.589l-10.562-18.034l-3.509,26.681
		l-2.819,16.058l-25.445-33.808l-9.064,11.18l12.971,5.203l-16.448,16.674l11.233-18.471l8.319-19.7l-31.69,2.8l30.094-36.804
		l-30.898,9.198l11.611-28.144l-16.188,2.245l1.758-22.703L247.37,79.829l1.001-28.114l-15.258,22.331l-3.864-17.93l-6.21-13.948
		l-6.817-31.872l-9.904,25.412l-6.368,19.853l-6.123,8.426l-18.924-42.905l4.282,49.812l-22.469-36.11l1.857,32.942l-18.349-13.279
		l2.566,28.635l9.742,31.228l-9.178,3.988l-27.358,2.011l10.748,21.261l-3.347,16.237l8.204,15.052l7.187,28.367l-4.621-35.748
		l-6.99-8.931l-23.514,27.623l11.284-54.852l-10.404-6.213l-15.908,38.667l-5.208-32.241l-9.166-18.027l-8.883,22.778l-6.34,25.422
		l-7.246,4.425l-9.36-6.182l-14.406-15.746l-15.088-2.735l10.448,41.385l-16.421,0.501l16.551,26.407l-7.996,9.838l-9.001,15.079
		l-2.062,17.778l19.184,2.323L4.66,291.504l32.83-26.269l-10.57,38.49l12.222-1.111l2.378,20.5l6.032,12.956l3.485,21.031
		l17.233-23.282l1.798,30.924l7.593,11.125l14.347-30.951l4.944,28.015l12.601-38.304l3.978,56.62l9.628-10.072l8.855,1.72
		l8.697-47.524l8.394,23.134l8.284,3.331l11.41,28.608l7.676-9.297l8.599,2.448l2.07-53.491l12.466,49.161l5.835-38.338
		l8.938,22.297l8.086,6.744l8.133-1.889l8.358-4.503l8.567-9.107l8.82-32.358l8.674,44.432l6.777-27.159l5.098-23.784l12.084,28.455
		l9.596,6.459l6.758-3.731l7.562-29.813l6.352-9.479l17.324,40.762l4.585-5.8l8.859,2.848l-1.337-60.879l26.565,45.667
		l-15.108-52.299l13.389,0.91l15.593-1.672l-7.617-23.641l19.693-9.192l-30.22-19.125l22.272-13.278l-14.848-8.759l-7.053-5.525
		l12.23-29.752l-7.877-8.464L371.656,140.579z"/>
</g>
<path fill="#3EAB37" d="M1,359l3.459,89.612L9,380.4c0,0,3,66.875,3.5,64.869s-1.5-79.581,0-76.906s7,80.25,7,80.25
	s5.5-69.55,6-64.2s3.5,56.844,3.5,56.844l7-50.825l-3.5,53.5l8-52.163V444.6v-80.919l10,71.556c0,0,5-71.556,5-57.512
	s0,55.506,0,55.506l7-47.481v60.856l8-61.525l5.5,56.844l4-38.119v38.788l3.5-76.574L94,445.269c0,0,0-68.212,0-60.856
	c0,7.356,4.5,64.2,4.5,64.2s2-64.2,2.5-61.525c0.5,2.675,0,67.544,0,67.544l12.5-66.206v58.181c0,0,6.5-66.875,6.5-60.856
	s0,63.531,0,63.531s5-64.869,7-56.844s4.5,58.181,4.5,58.181s3-62.862,3-60.856s3.5,53.5,3.5,53.5l3.702-44.138L147,450.619
	l3.06-64.372L158,439.25l8.119-46.817l8.881,50.16l3-59.519l4.459,58.85l3.541-48.15l4.474,49.488c0,0,3.526-68.881,3.526-66.206
	c0,2.675,7,68.881,7,68.881l1.826-56.175l6.198,56.175l6.476-59.519l4.5,68.212l8-63.531c0,0-0.5,58.181,0,56.175
	s11-72.225,11.5-70.219s0,66.206,0,66.206l2.5,4.681l5.508-56.175L251,454.631l7.5-54.169l2.5,54.169l7.5-67.544l3.5,60.188
	l3.5-40.459l4,23.072l9.5-18.056l-3.009,39.456L289,383.744l4.5,60.188c0,0,4.5-56.175,5.5-53.5s3.5,58.85,3.5,58.85l4-55.506
	l3,60.856c0,0-3-70.219,0-65.538s14.5,65.538,14.5,65.538l3-51.494l3.5,43.469l4.5-52.831c0,0-1,40.125,0,42.8
	s7.5-41.463,9.5-38.788c2,2.675,0,50.825,0,50.825l8-48.819l4,54.837l3-47.816l3,39.791c0,0,4.5-67.544,4.5-64.869
	s-1,68.881,0,66.206s3-66.206,4-61.525s4.5,51.494,4.5,51.494l7-44.138v56.844c0,0,3-51.494,4-46.813s2.5,50.825,2.5,50.825
	l6-52.163v47.481l6-48.819V466H1V359z"/>
<g>
</g>
<g>
</g>
<g>
</g>
<g>
</g>
<g>
</g>
<g>
</g>
</svg>
