<?xml version="1.0" encoding="utf-8"?>
<!-- Generator: Adobe Illustrator 17.0.0, SVG Export Plug-In . SVG Version: 6.00 Build 0)  -->
<!DOCTYPE svg PUBLIC "-//W3C//DTD SVG 1.1//EN" "http://www.w3.org/Graphics/SVG/1.1/DTD/svg11.dtd">
<svg version="1.1" id="Слой_1" xmlns="http://www.w3.org/2000/svg" xmlns:xlink="http://www.w3.org/1999/xlink" x="0px" y="0px"
	 width="400px" height="400px" viewBox="0 0 400 400" enable-background="new 0 0 400 400" xml:space="preserve">
<rect x="1.794" y="1.365" fill="#D0EBFC" width="397.431" height="397.431"/>
<path fill="#9ED9F8" d="M4.323,1.365h2.529c-0.985,3.75-1.827,7.519-2.529,11.3V1.365L4.323,1.365z M4.323,398.795h118.811
	c20.236-13.244,37.759-31.299,50.677-53.673c26.606-46.083,27.6-99.918,7.413-145.042c-13.017,31.038-35.912,58.229-67.309,76.356
	c-34.489,19.913-73.32,25.471-109.592,18.552v47.326c32.838,3.796,67.134-2.533,97.96-20.331
	c46.083-26.606,73.861-72.732,78.941-121.903c-26.792,20.372-60.215,32.472-96.47,32.472c-29.334,0-56.816-7.92-80.432-21.733
	v48.134c15.029,4.692,31.01,7.228,47.585,7.228c53.212,0,100.331-26.058,129.317-66.101c-33.388,4.246-68.384-1.986-99.781-20.113
	c-42.1-24.307-68.926-64.905-77.12-109.234v97.795c9.359,9.151,20.002,17.293,31.86,24.139c46.083,26.606,99.918,27.6,145.042,7.413
	c-31.038-13.017-58.229-35.912-76.356-67.309C80.895,91.248,77.715,43.431,92.085,1.365H43.054
	C32.925,40.461,37.532,83.4,59.321,121.139C85.927,167.222,132.053,195,181.225,200.08c-20.372-26.792-32.472-60.216-32.472-96.47
	c0-38.908,13.934-74.557,37.076-102.246h-54.858c-10.153,20.983-15.847,44.525-15.847,69.399
	c0,53.212,26.057,100.331,66.101,129.317c-4.246-33.388,1.986-68.384,20.113-99.781c40.279-69.766,125.29-97.588,197.887-68.18
	V1.365h-159.91c-20.236,13.244-37.759,31.299-50.678,53.673c-26.606,46.083-27.599,99.918-7.413,145.042
	c13.016-31.038,35.911-58.229,67.309-76.356c48.022-27.726,104.463-27.64,150.691-4.754V68.222
	c-43.845-17.516-94.997-15.485-139.059,9.955c-46.084,26.606-73.861,72.732-78.941,121.903
	c26.792-20.372,60.215-32.472,96.469-32.472c48.684,0,92.267,21.812,121.53,56.189v-62.912
	c-25.361-16.991-55.863-26.906-88.683-26.906c-53.212,0-100.331,26.057-129.317,66.101c33.388-4.246,68.384,1.986,99.781,20.113
	c63.667,36.757,92.402,110.769,74.591,178.602h41.353c0.812-2.29,1.574-4.59,2.275-6.899v-92.328
	c-11.31-37.501-36.36-70.945-72.957-92.075c-46.084-26.606-99.919-27.599-145.042-7.413c31.038,13.016,58.229,35.912,76.356,67.309
	c23.973,41.522,27.154,89.339,12.784,131.406h49.031c10.129-39.096,5.522-82.035-16.267-119.774
	c-26.606-46.083-72.732-73.86-121.904-78.941c20.371,26.792,32.472,60.215,32.472,96.47c0,38.908-13.935,74.557-37.076,102.246
	h54.857c10.153-20.983,15.847-44.525,15.847-69.399c0-53.212-26.057-100.331-66.101-129.316
	c4.246,33.388-1.986,68.384-20.113,99.781c-32.846,56.891-95.438,85.885-156.788,78.707v20.226H4.323z M1.794,1.365h2.529v11.3
	C2.942,20.1,2.104,27.579,1.794,35.047L1.794,1.365L1.794,1.365z M4.323,70.733v97.795c-0.854-0.835-1.697-1.678-2.529-2.529V48.348
	C2.11,55.875,2.959,63.355,4.323,70.733L4.323,70.733z M4.323,210.819v48.134c-0.846-0.264-1.69-0.535-2.529-0.812v-48.832
	C2.632,209.82,3.475,210.323,4.323,210.819L4.323,210.819z M4.323,294.988v47.326c-0.844-0.098-1.687-0.2-2.529-0.311v-47.517
	C2.636,294.661,3.479,294.827,4.323,294.988L4.323,294.988z M4.323,378.568v20.227H1.794v-20.54
	C2.637,378.367,3.48,378.469,4.323,378.568z"/>
<g>
	<g>
		<path fill="#FFFFFF" d="M179.192,225.645c-1.747-3.898-4.101-7.475-6.966-10.643c-2.45-2.709-5.276-5.117-8.423-7.166
			c-2.876-1.873-6.021-3.444-9.392-4.673c-3.486-1.271-7.212-2.174-11.134-2.661c-2.216-0.275-4.492-0.422-6.824-0.422
			c-1.802,0-3.594,0.085-5.371,0.25c-17.226,1.603-32.992,10.79-42.817,23.849c-3.041-1.58-6.599-2.489-10.403-2.489
			c-11.188,0-20.259,7.86-20.259,17.557c0,1.144,0.128,2.263,0.369,3.346c-12.926,1.368-22.879,9.829-22.879,20.064
			c0,11.189,11.892,20.259,26.562,20.259c3.36,0,6.574-0.477,9.533-1.344c3.39,4.044,9.547,6.747,16.579,6.747
			c2.517,0,4.922-0.347,7.129-0.977c7.833,5.713,17.915,9.08,29.278,9.08c14.109,0,27.567-5.19,38.02-13.619
			c0.801,4.666,4.866,8.216,9.76,8.216c5.097,0,9.294-3.85,9.844-8.8c1.785,2.596,4.776,4.298,8.165,4.298
			c5.164,0,9.404-3.953,9.862-8.998c0.193-0.073,0.386-0.148,0.577-0.226c2.611,0.144,5.289,0.22,8.018,0.22
			c27.6,0,49.972-7.66,49.972-17.108c0-8.477-18.009-15.512-41.643-16.869c-3.397-11.585-14.103-20.047-26.788-20.047
			c-0.589,0-1.172,0.024-1.752,0.06c-2.745,0.17-5.382,0.733-7.855,1.64C179.963,225.334,179.575,225.484,179.192,225.645z"/>
	</g>
</g>
<g>
	<g>
		<path fill="#FFFFFF" d="M379.86,183.339c0.132-0.591,0.201-1.202,0.201-1.826c0-5.292-4.951-9.582-11.057-9.582
			c-2.076,0-4.018,0.496-5.678,1.358c-1.785-2.372-3.933-4.504-6.346-6.333c-1.494-1.132-3.089-2.145-4.768-3.023
			c-1.335-0.698-2.721-1.31-4.148-1.827c-1.511-0.547-3.067-0.985-4.656-1.309c-1.515-0.309-3.057-0.518-4.621-0.605
			c-0.585-0.033-1.172-0.055-1.761-0.055c-0.957,0-1.89,0.059-2.812,0.144c-1.38,0.128-2.717,0.349-4.007,0.657
			c-7.643,1.825-13.604,6.674-16.507,13.152c-1.809-0.757-3.795-1.176-5.878-1.176c-6.923,0-12.766,4.618-14.62,10.941
			c-12.899,0.741-22.729,4.581-22.729,9.207c0,5.157,12.211,9.338,27.274,9.338c1.49,0,2.951-0.041,4.376-0.12
			c0.104,0.042,0.209,0.083,0.315,0.123c0.25,2.754,2.564,4.911,5.383,4.911c1.85,0,3.482-0.929,4.456-2.345
			c0.3,2.702,2.59,4.803,5.372,4.803c2.671,0,4.889-1.938,5.327-4.484c5.705,4.6,13.05,7.433,20.75,7.433
			c6.202,0,11.705-1.839,15.979-4.956c1.204,0.344,2.517,0.533,3.891,0.533c3.838,0,7.198-1.475,9.048-3.682
			c1.615,0.474,3.37,0.734,5.203,0.734c8.006,0,14.497-4.95,14.497-11.057C392.346,188.704,386.915,184.086,379.86,183.339z"/>
	</g>
</g>
<g>
	<g>
		<path fill="#FFFFFF" d="M373.154,84.526c-2.189-2.91-5.839-4.868-9.734-4.868c-4.026,0-7.257,2.092-8.634,5.164
			c-0.67-0.28-1.404-0.435-2.175-0.435c-2.562,0-4.726,1.709-5.411,4.049c-4.774,0.274-8.412,1.696-8.412,3.408
			c0,1.908,4.52,3.456,10.095,3.456c0.551,0,1.091-0.015,1.619-0.044l0.117,0.046c0.093,1.019,0.949,1.817,1.992,1.817
			c0.685,0,1.288-0.344,1.65-0.868c0.11,1,0.958,1.778,1.988,1.778c0.988,0,1.81-0.718,1.972-1.66
			c2.111,1.703,4.83,2.751,7.68,2.751c2.296,0,4.333-0.68,5.914-1.834c0.446,0.127,0.932,0.197,1.44,0.197
			c1.42,0,2.664-0.546,3.349-1.363c0.598,0.175,1.247,0.272,1.926,0.272c2.963,0,5.365-1.832,5.365-4.093
			c0-2.067-2.01-3.776-4.621-4.053c0.049-0.219,0.075-0.445,0.075-0.676c0-1.959-1.833-3.547-4.093-3.547
			C374.487,84.023,373.768,84.207,373.154,84.526z"/>
	</g>
</g>
<g>
	<rect x="70.141" y="196.092" fill="#646160" width="1.673" height="26.432"/>
	<rect x="79.677" y="196.092" fill="#646160" width="1.673" height="26.432"/>
	<path fill="#646160" d="M107.57,160.021c0,0,5.328,0.88,12.197-1.057c0,0-0.529,3.875-9.599,6.341c0,0,3.038,1.497,9.995,0.881
		c0,0-3.836,4.697-12.642,4.785C107.52,170.971,108.144,166.921,107.57,160.021z"/>
	<path fill="#AAC811" d="M88.174,140.636c31.185,0.478,27.992,60.623-21.114,62.712c-19.743,0.84-37.006-10.838-42.857-23.708
		c39.619-6.81,35.013-18.954,43.541-31.539C74.564,140.952,80.566,140.522,88.174,140.636z"/>
	<path fill="#646160" d="M88.57,140.636c31.378,0.478,28.164,60.623-21.245,62.712c-19.865,0.84-37.235-10.838-43.122-23.708
		c0.2-0.034,0.393-0.07,0.591-0.104c6.193,11.949,22.507,22.486,41.079,21.701c47.746-2.019,50.851-60.14,20.529-60.601
		l-0.501-0.006C86.77,140.617,87.658,140.623,88.57,140.636z"/>
	<path fill="#646160" d="M84.364,134.746c0,0-0.792,1.233-1.145,2.201c0,0,3.434-2.114,6.869-2.818
		c3.434-0.705-1.321,2.113-1.849,3.082c0,0,2.554-1.321,5.108-1.497s2.554,2.818-0.88,3.435c-3.435,0.616-5.46,1.497-5.46,1.497
		c0.065-0.002,0.128,0.001,0.193,0c-13.018,1.972-15.143,15.822-24.429,26.656c-9.922,11.576-32.605,12.537-38.448,12.588
		c-0.039-0.083-0.08-0.167-0.118-0.25C77.892,170.412,50.362,151.389,84.364,134.746z"/>
	<path fill="#AAC811" d="M61.608,179.425c0.102-0.341,1.812-4.027,1.906-4.378c-3.899-1.265-11.424-5.65-12.023-7.156
		c-0.599-1.506,5.228-2.632,5.228-2.632c-8.468-1.783-9.58-8.217-9.58-8.217c2.317-1.087,6.461-1.592,6.461-1.592
		c-8.142-2.895-7.851-10.708-7.851-10.708c1.849-0.628,5.281,0.16,5.281,0.16c-6.088-6.498-2.832-13.063-2.832-13.063
		s6.44,6.374,15.569,11.643C90.236,158.764,80.224,178.095,61.608,179.425z"/>
	<path fill="#646160" d="M61.408,183.347c0.046-0.154,0.373-0.89,0.762-1.759c19.917-1.867,30.304-22.717,1.685-39.24
		c-2.661-1.536-5.113-3.159-7.279-4.712v-0.885c2.206,1.565,4.677,3.187,7.347,4.729C94.755,159.28,83.092,181.798,61.408,183.347
		L61.408,183.347z M56.576,174.981c2.257,1.255,4.65,2.41,6.5,3.076c0.268-0.606,0.471-1.078,0.503-1.198
		c-1.89-0.613-4.559-1.897-7.003-3.28V174.981z M56.576,137.635c-5.956-4.271-9.743-8.019-9.743-8.019s-3.56,7.178,3.096,14.283
		c0,0-3.752-0.862-5.774-0.175c0,0-0.318,8.542,8.584,11.708c0,0-4.531,0.553-7.064,1.741c0,0,1.215,7.035,10.474,8.985
		c0,0-0.727,0.14-1.663,0.39c-8.745-2.411-9.932-9.274-9.932-9.274c2.698-1.266,7.526-1.855,7.526-1.855
		c-9.485-3.373-9.145-12.473-9.145-12.473c2.154-0.731,6.152,0.187,6.152,0.187c-7.092-7.569-3.299-15.216-3.299-15.216
		s4.208,4.165,10.788,8.834L56.576,137.635L56.576,137.635z M56.576,173.579v1.402c-3.432-1.91-6.548-4.054-6.953-5.071
		c-0.189-0.474,0.17-0.916,0.794-1.309c-0.045,0.14-0.043,0.285,0.016,0.433C50.797,169.951,53.509,171.843,56.576,173.579z"/>
	<path fill="#646160" d="M94.376,159.445c1.89,0,3.432-1.542,3.432-3.432c0-1.891-1.542-3.432-3.432-3.432s-3.432,1.542-3.432,3.432
		S92.485,159.445,94.376,159.445z"/>
	<circle fill="#FFFFFF" cx="93.766" cy="156.622" r="1.602"/>
	<circle fill="#FFFFFF" cx="95.71" cy="154.602" r="0.725"/>
</g>
</svg>
