<?xml version="1.0" encoding="utf-8"?>
<!-- Generator: Adobe Illustrator 17.0.0, SVG Export Plug-In . SVG Version: 6.00 Build 0)  -->
<!DOCTYPE svg PUBLIC "-//W3C//DTD SVG 1.1//EN" "http://www.w3.org/Graphics/SVG/1.1/DTD/svg11.dtd">
<svg version="1.1" id="Слой_1" xmlns="http://www.w3.org/2000/svg" xmlns:xlink="http://www.w3.org/1999/xlink" x="0px" y="0px"
	 width="2800px" height="400px" viewBox="0 0 2800 400" enable-background="new 0 0 2800 400" xml:space="preserve">
<g>
	<path fill="#E30D18" d="M258.392,109.001c-43.149,10.72-78.129,60.819-78.129,111.898c0,1.447,0.034,2.875,0.09,4.291
		c2.473-0.907,5.111-1.47,7.855-1.64c-0.07-1.514-0.108-3.046-0.108-4.599c0-47.296,32.388-93.683,72.341-103.609
		c33.311-8.276,61.358,11.41,69.765,45.595c1.29-0.308,2.627-0.529,4.007-0.657C325.764,122.11,295.025,99.9,258.392,109.001z"/>
</g>
<g>
	<path fill="#F39208" d="M656.343,102.111c-44.357,11.02-80.717,60.571-84.117,112.891c2.865,3.168,5.219,6.745,6.966,10.643
		c0.383-0.16,0.771-0.31,1.162-0.454c-0.056-1.416-0.09-2.845-0.09-4.291c0-51.08,34.98-101.178,78.129-111.898
		c36.632-9.101,67.371,13.109,75.822,51.28c0.922-0.085,1.855-0.144,2.812-0.144c0.59,0,1.176,0.022,1.761,0.055
		C730.535,117.322,696.76,92.07,656.343,102.111z"/>
</g>
<g>
	<path fill="#FDEB1B" d="M1053.78,94.757c-45.397,11.279-83.035,59.928-89.977,113.079c3.148,2.049,5.973,4.457,8.423,7.166
		c3.4-52.32,39.76-101.87,84.117-112.891c40.418-10.041,74.192,15.211,82.445,58.081c1.564,0.088,3.106,0.296,4.621,0.605
		C1135.631,112.494,1098.463,83.656,1053.78,94.757z"/>
</g>
<g>
	<path fill="#009741" d="M1450.705,86.891c-47.357,11.765-86.897,61.187-96.294,116.272c3.371,1.229,6.516,2.8,9.392,4.673
		c6.942-53.15,44.58-101.8,89.977-113.079c44.683-11.101,81.851,17.737,89.628,66.04c1.589,0.324,3.146,0.762,4.656,1.309
		C1541.075,107.607,1500.151,74.606,1450.705,86.891z"/>
</g>
<g>
	<path fill="#209DD9" d="M1846.605,78.589c-50.094,12.445-92.087,63.904-103.329,121.912c3.923,0.486,7.649,1.39,11.134,2.661
		c9.398-55.085,48.937-104.506,96.294-116.272c49.446-12.285,90.37,20.716,97.36,75.215c1.428,0.517,2.813,1.129,4.148,1.827
		C1946.236,102.634,1901.239,65.015,1846.605,78.589z"/>
</g>
<g>
	<path fill="#302D7F" d="M2267.573,66.568c-8.069-0.123-16.456,0.835-25.067,2.975c-0.33,0.082-0.658,0.173-0.988,0.258
		c-53.413,13.803-98.119,68.621-110.436,130.529c0.554-0.051,1.112-0.081,1.669-0.117c0.018-0.001,0.036-0.002,0.054-0.003
		c0.512-0.032,1.024-0.061,1.539-0.08c0.701-0.03,1.404-0.05,2.109-0.05c2.332,0,4.607,0.147,6.823,0.422
		c11.242-58.008,53.235-109.467,103.329-121.912c54.634-13.574,99.631,24.045,105.608,85.344c1.678,0.878,3.274,1.891,4.768,3.023
		C2353.257,107.525,2316.24,67.31,2267.573,66.568z"/>
</g>
<g>
	<path fill="#662682" d="M2638.639,59.946c-57.655,14.672-106.05,75-119.514,143.273c3.865-1.186,7.867-2.006,11.957-2.387
		c0,0,0,0,0,0c12.317-61.908,57.023-116.726,110.436-130.529c0.507-0.137,1.013-0.277,1.522-0.407
		c8.412-2.141,16.62-3.042,24.533-2.826c48.667,0.742,85.685,40.957,89.408,100.389c1.802,0.966,3.794,3.899,5.398,5.144
		C2757.719,96.403,2703.644,43.4,2638.639,59.946z"/>
</g>
</svg>
