<?xml version="1.0" encoding="utf-8"?><!DOCTYPE svg PUBLIC "-//W3C//DTD SVG 1.1//EN" "http://www.w3.org/Graphics/SVG/1.1/DTD/svg11.dtd"><svg version="1.1" xmlns="http://www.w3.org/2000/svg" xmlns:xlink="http://www.w3.org/1999/xlink" x="0px" y="0px" width="150px" height="150px" viewBox="0 0 150 150" enable-background="new 0 0 150 150" xml:space="preserve"><g id="Слой_1"><g><g id="Слой_10"><path fill="#E30D18" stroke="#020304" stroke-miterlimit="10" d="M13.251,24.099C29.04-4.386,54.915,2.907,54.915,2.907l-39.05,65.37C15.864,68.277,2.508,43.479,13.251,24.099z"/></g><g id="Слой_9"><path fill="#E30D18" stroke="#020304" stroke-miterlimit="10" d="M51.432,2.309c13.589,1.122,33.97,17.725,19.361,51.214c-4.315,9.891-26.91,29.018-40.701,15.586c-7.689-7.488-8.42-21.783-3.92-37.752C28.776,22.115,41.052,1.452,51.432,2.309z"/></g><g id="Слой_2"><path fill="#A38A7B" stroke="#020304" stroke-miterlimit="10" d="M6.972,69.501c-0.578-5.859,7.404-15.352,17.856-15.352c11.759,0,17.241,8.839,17.312,14.481c0.075,5.944-2.339,15.983-17.584,16.005C12.09,84.654,7.542,75.273,6.972,69.501z"/></g><g id="Слой_3"><path fill="#FFFFFF" stroke="#020304" stroke-miterlimit="10" d="M14.703,69.393c0.013,2.94-0.653,9.205-3.515,9.499c-1.107,0.114-4.198-6.854-4.216-9.39c-0.029-4.301,2.994-8.739,4.029-8.739C13.249,60.763,14.693,67.145,14.703,69.393z"/></g><g id="Слой_4"><path fill="#FFFFFF" stroke="#020304" stroke-miterlimit="10" d="M29.129,69.393c-0.436-5.117,3.431-9.416,6.315-9.745c4.301-0.49,6.696,5.607,6.696,8.983c0,5.498-1.733,10.143-5.879,9.962C31.253,78.375,29.376,72.292,29.129,69.393z"/></g><g id="Слой_5"><path fill="#1E1E1C" stroke="#020304" stroke-miterlimit="10" d="M31.525,69.393c-0.116-1.597,0.762-5.444,3.375-5.444c1.564,0,3.539,2.069,3.539,5.16c0,3.441-1.198,5.895-3.457,5.891C33.335,74.997,31.743,72.387,31.525,69.393z"/></g><g id="Слой_6"><path fill="#FFFFFF" stroke="#020304" stroke-miterlimit="10" d="M35.618,67.106c-0.122-0.356-0.023-1.363,0.643-1.361c0.328,0.001,0.825,0.655,0.871,0.98c0.091,0.635-0.177,1.129-0.49,1.252C36.134,68.177,35.727,67.424,35.618,67.106z"/></g><g id="Слой_7"><path fill="#1E1E1C" stroke="#020304" stroke-miterlimit="10" d="M9.613,64.602c1.361,0.122,2.495,2.395,2.477,4.872c-0.016,2.211-0.827,4.704-2.15,4.9C7.735,74.7,6.996,71.016,6.943,69.61C6.889,68.193,7.19,64.384,9.613,64.602z"/></g><g id="Слой_8"><path fill="#FFFFFF" stroke="#020304" stroke-miterlimit="10" d="M7.762,67.079c0-0.572,0.487-1.037,0.817-1.034c0.325,0.003,0.789,0.299,0.789,1.034c0,0.789-0.442,1.198-0.803,1.198S7.762,67.759,7.762,67.079z"/></g><g id="Слой_11"><path fill="#3D3D3B" stroke="#010202" stroke-miterlimit="10" d="M32.777,45.439c0-4.464,4.029-7.948,8.275-7.948s7.295,3.92,7.295,9.473c0,4.682-4.129,8.312-8.384,7.839C34.083,54.149,32.777,49.032,32.777,45.439z"/></g><g id="Слой_12"><path fill="#3D3D3B" stroke="#020304" stroke-miterlimit="10" d="M64.569,41.627c8.135-2.446,9.221,3.703,9.221,3.703s-1.348,4.136-2.255,6.43c-1.849,4.676-3.621,6.43-3.621,6.43s-8.136-1.481-8.136-7.415C59.779,47.829,60.223,42.934,64.569,41.627z"/></g><g id="Слой_13"><path fill="#3D3D3B" stroke="#020304" stroke-miterlimit="10" d="M57.849,17.403c-0.482,3.566,0.952,9.244,6.177,9.962c8.71,1.198,9.262-8.418,9.262-8.418s-1.303-2.844-2.584-4.727c-1.002-1.473-1.002-1.473-2.838-3.541C67.866,10.679,58.937,9.346,57.849,17.403z"/></g><g id="Слой_14"><path fill="#3D3D3B" stroke="#020304" stroke-miterlimit="10" d="M45.588,15.751c2.094,4.791,0.363,10.489-5.027,12.376c-7.404,2.593-9.954-6.909-9.954-6.909s1.734-3.144,3.319-5.425c1.306-1.879,3.518-4.717,3.518-4.717S43.996,12.109,45.588,15.751z"/></g><g id="Слой_15"><path fill="#3D3D3B" stroke="#020304" stroke-miterlimit="10" d="M24.645,10.123c0,0,3.314,1.727,8.713-1.594c2.24-1.378,4.137-5.096,4.137-5.096s-4.326,1.53-6.061,2.33C29.282,6.755,24.645,10.123,24.645,10.123z"/></g><g id="Слой_16"><path fill="#3D3D3B" stroke="#020304" stroke-miterlimit="10" d="M22.166,23.627c-0.783,2.564-2.337,5.889-4.524,7.44c-4.5,3.194-7.23,0-7.23,0s1.639-5.228,3.671-8.421c1.945-3.057,5.258-7.367,5.258-7.367S23.74,18.473,22.166,23.627z"/></g><g id="Слой_17"><path fill="#1E1E1C" stroke="#020304" stroke-miterlimit="10" d="M75.524,27.113c0,0,3.708,2.72,3.527,3.518c-0.131,0.576-3.207,0.708-3.207,0.708s0.07-1.136,0-2.036C75.767,28.309,75.524,27.113,75.524,27.113z"/></g><g id="Слой_18"><path fill="#1E1E1C" stroke="#020304" stroke-miterlimit="10" d="M80.666,34.152c0.557-0.792-1.657-3.439-1.657-3.439s-0.217,0.159-1.052,0.399c-0.447,0.129-2.113,0.227-2.113,0.227C75.872,31.811,80.194,34.823,80.666,34.152z"/></g><g id="Слой_19"><path fill="#1E1E1C" stroke="#030405" stroke-miterlimit="10" d="M75.432,37.778c0,0,3.21,1.767,3.625,2.689c0.216,0.481,0.373,2.045-0.152,2.105c-1.016,0.116-4.138-1.069-4.138-1.069L75.432,37.778z"/></g><g id="Слой_20"><path fill="#1E1E1C" stroke="#020304" stroke-miterlimit="10" d="M80.502,45.729c0.942-0.529-1.243-4.518-1.243-4.518s0.072,1.187-0.233,1.369c-0.384,0.23-1.846-0.287-1.846-0.287S79.522,46.28,80.502,45.729z"/></g><g id="Слой_21"><path fill="#1E1E1C" stroke="#020304" stroke-miterlimit="10" d="M71.536,51.76c0,0,4.076,3.45,3.867,5.021c-0.076,0.576-0.962,1.706-1.851,1.409c-1.96-0.655-3.738-2.754-3.738-2.754s0.694-1.298,0.909-1.757C70.939,53.219,71.536,51.76,71.536,51.76z"/></g><g id="Слой_22"><path fill="#1E1E1C" stroke="#020304" stroke-miterlimit="10" d="M76.564,62.37c-1.188,0.561-3.375-4.318-3.375-4.318s0.889,0.326,1.343,0.018c0.376-0.256,0.962-1.434,0.962-1.434S77.883,61.747,76.564,62.37z"/></g><g id="Слой_23"><path fill="#1E1E1C" stroke="#020304" stroke-miterlimit="10" d="M56.227,68.744c0,0,3.37,3.208,3.008,4.514c-0.183,0.66-0.944,1.615-2.051,1.415c-1.302-0.235-4.655-3.848-4.655-3.848L56.227,68.744z"/></g><g id="Слой_24"><path fill="#1E1E1C" stroke="#020304" stroke-miterlimit="10" d="M60.214,79.474c1.397-0.563-0.953-6.307-0.953-6.307s-0.408,1.034-1.275,1.447c-0.892,0.425-2.092-0.594-2.092-0.594S58.651,80.104,60.214,79.474z"/></g><g id="Слой_25"><path fill="#1E1E1C" stroke="#020304" stroke-miterlimit="10" d="M9.675,34.322c0,0-3.485,1.092-3.791,3.169c-0.245,1.66,3.188,2.858,3.188,2.858s0.117-2.26,0.192-3.014C9.339,36.582,9.675,34.322,9.675,34.322z"/></g><g id="Слой_26"><path fill="#1E1E1C" stroke="#020304" stroke-miterlimit="10" d="M4.632,44.024c-1.294-0.726,1.39-5.772,1.39-5.772s0.637,0.805,1.184,1.175c0.438,0.296,1.326,0.706,1.326,0.706S5.832,44.698,4.632,44.024z"/></g><g id="Слой_27"><path fill="#1E1E1C" stroke="#020304" stroke-miterlimit="10" d="M4.74,55.91c-0.98-1.624,4.899-7.116,4.899-7.116l0.483,2.773l0.647,2.89C10.77,54.457,5.57,57.284,4.74,55.91z"/></g><g id="Слой_28"><path fill="#1E1E1C" stroke="#020304" stroke-miterlimit="10" d="M4.849,61.078c-1.232-0.274-0.014-5.047-0.014-5.047s0.526,0.483,1.578,0.17c0.496-0.147,1.927-0.609,1.927-0.609S6.385,61.42,4.849,61.078z"/></g><g id="Слой_29"><path fill="#1E1E1C" stroke="#020304" stroke-miterlimit="10" d="M20.365,59.103c-0.327,0.236-3.939-5.618-5.662-7.095c-1.999-1.714-7.926-6.788-9.364-4.827c-0.399,0.544,1.633,1.612,0,2.014c-1.493,0.368-1.772-1.513-1.415-2.014c0.507-0.713,1.815-1.597,3.266-1.252c2.608,0.619,6.954,4.172,8.819,6.097C17.455,53.518,21.303,58.426,20.365,59.103z"/></g><g id="Слой_29__x28_копия_x29_"><path fill="#1E1E1C" stroke="#020304" stroke-miterlimit="10" d="M26.437,58.427c-0.403,0.012-0.562-6.785-0.706-9.05c-0.238-3.74-3.197-7.571-5.488-6.754c-0.636,0.227,0.429,2.456-1.148,1.873c-1.442-0.534-0.826-2.274-0.316-2.619c1.042-0.705,2.929-0.621,4.054,0.115c2.244,1.467,4.065,4.9,3.969,8.134C26.74,52.202,27.593,58.392,26.437,58.427z"/></g><g id="Слой_31"><path fill="#1E1E1C" stroke="#020304" stroke-miterlimit="10" d="M14.703,80.244c-0.238-0.187,0.077-0.913,0.181-1.198c0.113-0.307,0.657-1.065,0.944-0.907c0.231,0.127-0.172,0.853,0,1.052c0.872,1.012,2.986,2.351,5.807,2.214c2.43-0.118,4.855-2.442,5.299-3.266c0.111-0.207-0.56-0.635-0.436-0.835c0.184-0.295,1.095,0.119,1.343,0.363c0.254,0.25,0.954,0.953,0.726,1.226c-0.176,0.209-0.847-0.475-1.052-0.295c-0.835,0.73-3.502,3.642-5.879,3.642c-2.904,0-5.435-1.688-6.17-2.25C15.306,79.868,14.861,80.368,14.703,80.244z"/></g></g></g><g id="Слой_1__x28_копия_x29_"><g id="Слой_10_1_"><path fill="#59B031" stroke="#020304" stroke-miterlimit="10" d="M77.078,84.021c15.789-28.485,41.664-21.192,41.664-21.192l-39.05,65.37C79.691,128.198,66.336,103.401,77.078,84.021z"/></g><g id="Слой_9_1_"><path fill="#59B031" stroke="#020304" stroke-miterlimit="10" d="M115.259,62.231c13.589,1.122,33.97,17.725,19.361,51.214c-4.315,9.891-26.91,29.018-40.701,15.586c-7.689-7.488-8.42-21.783-3.92-37.752C92.603,82.037,104.879,61.374,115.259,62.231z"/></g><g id="Слой_2_1_"><path fill="#A38A7B" stroke="#020304" stroke-miterlimit="10" d="M70.8,129.423c-0.578-5.859,7.404-15.352,17.856-15.352c11.759,0,17.241,8.839,17.312,14.481c0.075,5.944-2.339,15.983-17.584,16.005C75.917,144.576,71.369,135.195,70.8,129.423z"/></g><g id="Слой_3_1_"><path fill="#FFFFFF" stroke="#020304" stroke-miterlimit="10" d="M78.53,129.314c0.013,2.94-0.653,9.205-3.515,9.499c-1.107,0.114-4.198-6.854-4.216-9.39c-0.029-4.301,2.994-8.739,4.029-8.739C77.076,120.685,78.52,127.067,78.53,129.314z"/></g><g id="Слой_4_1_"><path fill="#FFFFFF" stroke="#020304" stroke-miterlimit="10" d="M92.957,129.314c-0.436-5.117,3.431-9.416,6.315-9.745c4.301-0.49,6.696,5.607,6.696,8.983c0,5.498-1.733,10.143-5.879,9.962C95.08,138.297,93.203,132.214,92.957,129.314z"/></g><g id="Слой_5_1_"><path fill="#1E1E1C" stroke="#020304" stroke-miterlimit="10" d="M95.352,129.314c-0.116-1.597,0.762-5.444,3.375-5.444c1.564,0,3.539,2.069,3.539,5.16c0,3.441-1.198,5.895-3.457,5.891C97.162,134.919,95.57,132.309,95.352,129.314z"/></g><g id="Слой_6_1_"><path fill="#FFFFFF" stroke="#020304" stroke-miterlimit="10" d="M99.445,127.028c-0.122-0.356-0.023-1.363,0.643-1.361c0.328,0.001,0.825,0.655,0.871,0.98c0.091,0.635-0.177,1.129-0.49,1.252C99.961,128.099,99.554,127.346,99.445,127.028z"/></g><g id="Слой_7_1_"><path fill="#1E1E1C" stroke="#020304" stroke-miterlimit="10" d="M73.44,124.524c1.361,0.122,2.495,2.395,2.477,4.872c-0.016,2.211-0.827,4.704-2.15,4.9c-2.205,0.327-2.943-3.358-2.996-4.763C70.716,128.114,71.017,124.306,73.44,124.524z"/></g><g id="Слой_8_1_"><path fill="#FFFFFF" stroke="#020304" stroke-miterlimit="10" d="M71.589,127.001c0-0.572,0.487-1.037,0.817-1.034c0.325,0.003,0.789,0.299,0.789,1.034c0,0.789-0.442,1.198-0.803,1.198C72.031,128.198,71.589,127.681,71.589,127.001z"/></g><g id="Слой_11_1_"><path fill="#3D3D3B" stroke="#010202" stroke-miterlimit="10" d="M96.604,105.361c0-4.464,4.029-7.948,8.275-7.948c4.246,0,7.295,3.92,7.295,9.473c0,4.682-4.129,8.312-8.384,7.839C97.911,114.071,96.604,108.954,96.604,105.361z"/></g><g id="Слой_12_1_"><path fill="#3D3D3B" stroke="#020304" stroke-miterlimit="10" d="M128.397,101.549c8.135-2.446,9.221,3.703,9.221,3.703s-1.348,4.136-2.255,6.43c-1.849,4.676-3.621,6.43-3.621,6.43s-8.136-1.481-8.136-7.415C123.606,107.751,124.051,102.856,128.397,101.549z"/></g><g id="Слой_13_1_"><path fill="#3D3D3B" stroke="#020304" stroke-miterlimit="10" d="M121.676,77.325c-0.482,3.566,0.952,9.244,6.177,9.962c8.71,1.198,9.262-8.418,9.262-8.418s-1.303-2.844-2.584-4.727c-1.002-1.473-1.002-1.473-2.838-3.541C131.693,70.601,122.765,69.268,121.676,77.325z"/></g><g id="Слой_14_1_"><path fill="#3D3D3B" stroke="#020304" stroke-miterlimit="10" d="M109.415,75.673c2.094,4.791,0.363,10.489-5.027,12.376c-7.404,2.593-9.954-6.909-9.954-6.909s1.734-3.144,3.319-5.425c1.306-1.879,3.518-4.717,3.518-4.717S107.823,72.031,109.415,75.673z"/></g><g id="Слой_15_1_"><path fill="#3D3D3B" stroke="#020304" stroke-miterlimit="10" d="M88.472,70.045c0,0,3.314,1.727,8.713-1.594c2.24-1.378,4.137-5.096,4.137-5.096s-4.326,1.53-6.061,2.33C93.109,66.677,88.472,70.045,88.472,70.045z"/></g><g id="Слой_16_1_"><path fill="#3D3D3B" stroke="#020304" stroke-miterlimit="10" d="M85.993,83.549c-0.783,2.564-2.337,5.889-4.524,7.44c-4.5,3.194-7.23,0-7.23,0s1.639-5.228,3.671-8.421c1.945-3.057,5.258-7.367,5.258-7.367S87.567,78.395,85.993,83.549z"/></g><g id="Слой_17_1_"><path fill="#1E1E1C" stroke="#020304" stroke-miterlimit="10" d="M139.351,87.035c0,0,3.708,2.72,3.527,3.518c-0.131,0.576-3.207,0.708-3.207,0.708s0.07-1.136,0-2.036C139.594,88.231,139.351,87.035,139.351,87.035z"/></g><g id="Слой_18_1_"><path fill="#1E1E1C" stroke="#020304" stroke-miterlimit="10" d="M144.493,94.074c0.557-0.792-1.657-3.439-1.657-3.439s-0.217,0.159-1.052,0.399c-0.447,0.129-2.113,0.227-2.113,0.227C139.699,91.733,144.021,94.745,144.493,94.074z"/></g><g id="Слой_19_1_"><path fill="#1E1E1C" stroke="#030405" stroke-miterlimit="10" d="M139.259,97.7c0,0,3.21,1.767,3.625,2.689c0.216,0.481,0.373,2.045-0.152,2.105c-1.016,0.116-4.138-1.069-4.138-1.069L139.259,97.7z"/></g><g id="Слой_20_1_"><path fill="#1E1E1C" stroke="#020304" stroke-miterlimit="10" d="M144.33,105.651c0.942-0.529-1.243-4.518-1.243-4.518s0.072,1.187-0.233,1.369c-0.384,0.23-1.846-0.287-1.846-0.287S143.349,106.202,144.33,105.651z"/></g><g id="Слой_21_1_"><path fill="#1E1E1C" stroke="#020304" stroke-miterlimit="10" d="M135.363,111.682c0,0,4.076,3.45,3.867,5.021c-0.076,0.576-0.962,1.706-1.851,1.409c-1.96-0.655-3.738-2.754-3.738-2.754s0.694-1.298,0.909-1.757C134.766,113.14,135.363,111.682,135.363,111.682z"/></g><g id="Слой_22_1_"><path fill="#1E1E1C" stroke="#020304" stroke-miterlimit="10" d="M140.392,122.292c-1.188,0.561-3.375-4.318-3.375-4.318s0.889,0.326,1.343,0.018c0.376-0.256,0.962-1.434,0.962-1.434S141.711,121.669,140.392,122.292z"/></g><g id="Слой_23_1_"><path fill="#1E1E1C" stroke="#020304" stroke-miterlimit="10" d="M120.054,128.666c0,0,3.37,3.208,3.008,4.514c-0.183,0.66-0.944,1.615-2.051,1.415c-1.302-0.235-4.655-3.848-4.655-3.848L120.054,128.666z"/></g><g id="Слой_24_1_"><path fill="#1E1E1C" stroke="#020304" stroke-miterlimit="10" d="M124.042,139.396c1.397-0.563-0.953-6.307-0.953-6.307s-0.408,1.034-1.275,1.447c-0.892,0.425-2.092-0.594-2.092-0.594S122.478,140.026,124.042,139.396z"/></g><g id="Слой_25_1_"><path fill="#1E1E1C" stroke="#020304" stroke-miterlimit="10" d="M73.502,94.244c0,0-3.485,1.092-3.791,3.169c-0.245,1.66,3.188,2.858,3.188,2.858s0.117-2.26,0.192-3.014C73.166,96.504,73.502,94.244,73.502,94.244z"/></g><g id="Слой_26_1_"><path fill="#1E1E1C" stroke="#020304" stroke-miterlimit="10" d="M68.459,103.946c-1.294-0.726,1.39-5.772,1.39-5.772s0.637,0.805,1.184,1.175c0.438,0.296,1.326,0.706,1.326,0.706S69.66,104.62,68.459,103.946z"/></g><g id="Слой_27_1_"><path fill="#1E1E1C" stroke="#020304" stroke-miterlimit="10" d="M68.568,115.832c-0.98-1.624,4.899-7.116,4.899-7.116l0.483,2.773l0.647,2.89C74.597,114.379,69.397,117.206,68.568,115.832z"/></g><g id="Слой_28_1_"><path fill="#1E1E1C" stroke="#020304" stroke-miterlimit="10" d="M68.677,121c-1.232-0.274-0.014-5.047-0.014-5.047s0.526,0.483,1.578,0.17c0.496-0.147,1.927-0.609,1.927-0.609S70.212,121.342,68.677,121z"/></g><g id="Слой_29_1_"><path fill="#1E1E1C" stroke="#020304" stroke-miterlimit="10" d="M84.192,119.025c-0.327,0.236-3.939-5.618-5.662-7.095c-1.999-1.714-7.926-6.788-9.364-4.827c-0.399,0.544,1.633,1.612,0,2.014c-1.493,0.368-1.772-1.513-1.415-2.014c0.507-0.713,1.815-1.597,3.266-1.252c2.608,0.619,6.954,4.172,8.819,6.097C81.282,113.44,85.13,118.348,84.192,119.025z"/></g><g id="Слой_29__x28_копия_x29__1_"><path fill="#1E1E1C" stroke="#020304" stroke-miterlimit="10" d="M90.264,118.349c-0.403,0.012-0.562-6.785-0.706-9.05c-0.238-3.74-3.197-7.571-5.488-6.754c-0.636,0.227,0.429,2.456-1.148,1.873c-1.442-0.534-0.826-2.274-0.316-2.619c1.042-0.705,2.929-0.621,4.054,0.115c2.244,1.467,4.065,4.9,3.969,8.134C90.567,112.124,91.42,118.314,90.264,118.349z"/></g><g id="Слой_31_1_"><path fill="#1E1E1C" stroke="#020304" stroke-miterlimit="10" d="M78.53,140.166c-0.238-0.187,0.077-0.913,0.181-1.198c0.113-0.307,0.657-1.065,0.944-0.907c0.231,0.127-0.172,0.853,0,1.052c0.872,1.012,2.986,2.351,5.807,2.214c2.43-0.118,4.855-2.442,5.299-3.266c0.111-0.207-0.56-0.635-0.436-0.835c0.184-0.295,1.095,0.119,1.343,0.363c0.254,0.25,0.954,0.953,0.726,1.226c-0.176,0.209-0.847-0.475-1.052-0.295c-0.835,0.73-3.502,3.642-5.879,3.642c-2.904,0-5.435-1.688-6.17-2.25C79.133,139.79,78.688,140.29,78.53,140.166z"/></g><g></g><g></g><g></g><g></g><g></g><g></g></g></svg>