<?xml version="1.0" encoding="utf-8"?>
<!DOCTYPE svg PUBLIC "-//W3C//DTD SVG 1.1//EN" "http://www.w3.org/Graphics/SVG/1.1/DTD/svg11.dtd">
<svg version="1.1" id="Слой_14" xmlns="http://www.w3.org/2000/svg" xmlns:xlink="http://www.w3.org/1999/xlink" x="0px"
	 y="0px" width="500px" height="500px" viewBox="0 0 500 500" enable-background="new 0 0 500 500" xml:space="preserve">
<g>
	<rect x="0" y="247.294" fill="#009FE3" width="500.275" height="252.822"/>
	<linearGradient id="SVGID_1_" gradientUnits="userSpaceOnUse" x1="250.1377" y1="247.294" x2="250.1377" y2="-1.123044e-008">
		<stop  offset="0" style="stop-color:#F0F0F0"/>
		<stop  offset="0.0573" style="stop-color:#E1E6F1"/>
		<stop  offset="0.3003" style="stop-color:#A8BEF6"/>
		<stop  offset="0.5246" style="stop-color:#7A9FFA"/>
		<stop  offset="0.7231" style="stop-color:#5989FD"/>
		<stop  offset="0.8884" style="stop-color:#457BFE"/>
		<stop  offset="1" style="stop-color:#3E76FF"/>
	</linearGradient>
	<rect x="0" y="0" fill="url(#SVGID_1_)" width="500.275" height="247.294"/>
	<path fill="#F9B233" d="M500.275,247.294H0v-77.863c0,0,73.684-28.371,135.319-28.44c30.322-0.034,114.429,26.143,194.266,32.902
		C417.52,181.336,500,162.669,500,162.669L500.275,247.294z"/>
	<polygon fill="#95C11F" points="36.5,247.294 36.5,173.892 19.5,103.963 51.5,175.628 35.5,62.5 67.5,194.142 67.5,111.039 
		87.5,194.142 91.5,86.61 96.954,198.5 134.751,111.505 105.5,203.774 131.488,171.709 104.5,248.828 	"/>
	<path fill="#95C11F" d="M377.5,247.294l-17.638-61.897l-30.543-69.069l61.483,109.115L360.061,97.811L407.5,220.905L390.803,76.5
		c0,0,30.697,144.938,29.697,141.469s0.024-92.223,0.024-92.223s7.976,107.287,7.976,101.021s4-61.458,4-61.458l13,55.597l5-134.295
		v131.359l35-72.482l-29,89.426l19-21.123l-12,33.504H377.5z"/>
	<path fill="#F6F6F6" d="M109.167,31.167c12.405,0.532,33.129-22,49.612,2.333c5.718,8.442-16.43,18.567-16.483,26.333
		c-0.04,5.848,12.871,10.667,6.367,22.51c-4.879,8.885-33.971,18.931-43.496,15.468c-10.8-3.927-6-3.056-28.041-15.833
		c-7.258-4.207-23.844,0.41-32.553,0C34.538,81.505,16.942,65.938,13.5,56.5c-3.084-8.455-7.503-31.029,0-36
		c8.045-5.33,27.425,12.199,37,11c7.989-1,2-18.12,26.626-18.12C103.833,13.38,100.013,30.774,109.167,31.167z"/>
	<path fill="#F6F6F6" d="M447.136,71.455c10.568,6.518,39.653-3.034,42.164,26.249c0.871,10.159-18.962,11.871-22.799,18.623
		c-2.889,5.085,1.589,11.908-9.868,19.071c-8.594,5.374-38.889-0.056-45.513-7.728c-7.51-8.699,5.656-15.31-17.011-22.585
		c-7.988-2.564-29.541-0.683-36.941-5.292c-8.528-5.31-29.449-27.378-27.847-37.295c1.435-8.885,7.866-31.333,37.237-35.333
		c9.562-1.302,20.268,12.321,29.211,15.947c7.461,3.026,10.589-14.839,32.083-2.821C451.161,53.328,439.338,66.646,447.136,71.455z"
		/>
	<path fill="#312783" stroke="#312783" stroke-width="2" stroke-miterlimit="10" d="M80.015,467.524
		c-5.182-4.002-0.961-19.724-2.61-26.061c-3.644-13.999-36.002-20.806-32.579-34.86c12.596-51.721,151.378-67.791,204.591-66.368
		c49.61,1.327,175.557,13.045,188.96,60.828c2.271,8.097-16.15,19.682-19.554,27.372c-4.747,10.725,7.226,37.192,0.658,46.908
		c-14.91,22.056-76.984,23.992-103.599,24.657c-56.616,1.415-89.267-10.324-101.647-24.661
		C192.268,449.899,106.617,488.069,80.015,467.524z"/>
	<path fill="#878787" stroke="#1D1D1B" stroke-width="2" stroke-miterlimit="10" d="M210.653,430.385
		c-16.564-1.391-67.354-2.708-73.302-1.957s-57.375-12.052-55.382-27.366c7.166-55.056,99.387-64.894,137.481-65.809
		c33.065-0.794,93.173,2.601,127.712,34.535c8.622,7.971,22.136,31.718,18.89,43.003c-4.452,15.479-40.837,27.745-56.685,30.624
		C283.206,448.169,237.149,432.61,210.653,430.385z"/>
	<path fill="#2FAC66" stroke="#1D1D1B" stroke-width="2" stroke-miterlimit="10" d="M104.768,376.304
		c3.97,4.164,6.232,22.153,6.232,22.153s11.051-10.505,15.76-10.337c3.989,0.142,12.695,9.685,12.695,9.685l23.795-47.551l-42-7.254
		l-24.296,30.699C96.954,373.699,103.347,374.814,104.768,376.304z"/>
	<path fill="#2FAC66" stroke="#1D1D1B" stroke-width="2" stroke-miterlimit="10" d="M297,393.75
		c4.177-0.11,14.833,9.902,14.833,9.902s6.625-12.234,15.776-12.843c5.891-0.392,9.499,3.525,9.499,3.525s0.642-22.833-1.775-28.417
		c-2.039-4.711-18.519-21.417-18.519-21.417l-33.564,1.507l0.054,57.645C283.304,403.652,293.336,393.847,297,393.75z"/>
	<path fill="#009640" stroke="#1D1D1B" stroke-width="2" stroke-miterlimit="10" d="M180.348,294.867
		c0,0-30.508-35.851-61.241-34.543c-7.961,0.339-24.121,15.516-23.455,23.456c2.605,31.053,44.96,50.175,44.96,50.175
		s-22.018,7.079-27.328,12.376c-5.577,5.563-15.676,26.391-15.676,26.391s14.747-12.893,20.195-16.464
		c15.638-10.251,20.197-8.026,20.197-8.026s-13.3,15.751-16.935,21.562c-6.52,10.421-9.118,28.012-9.118,28.012
		s13.124-21.441,18.459-27.087c4.085-4.323,19.434-14.885,19.434-14.885s-6.676,10.461-10.045,21.776
		c-5.044,16.944-0.341,20.195-0.341,20.195s16.691-28.618,22.28-35.836c7.429-9.594,33.16-25.186,33.16-25.186L180.348,294.867z"/>
	<path fill="#009640" stroke="#1D1D1B" stroke-width="2" stroke-miterlimit="10" d="M277.167,291.223
		c0,0,41.494-34.542,58.263-33.501c20.848,1.294,30.749,16.466,31.115,26.711c0.465,12.994-12.883,30.625-23.624,37.952
		c-12.151,8.29-30.293,16.128-30.293,16.128s19.142,17.495,21.501,22.804c7.819,17.596,3.386,33.236,3.386,33.236
		s-6.219-15.421-12.511-24.962c-7.82-11.858-17.588-16.745-17.588-16.745s5.596,14.974,6.513,20.2
		c1.952,11.121-1.957,29.32-1.957,29.32s-3.704-18.884-5.817-24.757c-3.955-10.988-12.424-20.196-12.424-20.196
		s1.301,15.633-0.899,26.754c-1.301,6.58-9.529,19.485-9.529,19.485s-0.654-22.136-3.912-35.167
		C276,354.918,266.5,347.649,266.5,347.649L277.167,291.223z"/>
	<path fill="#009640" stroke="#1D1D1B" stroke-width="2" stroke-miterlimit="10" d="M226.619,126.098
		c34.097-2.445,90.893,7.498,91.872,40.402c0.901,30.249-61.091,48.6-86.01,46.911c-22.872-1.55-78.198-6.07-83.4-34.206
		C143.37,148.316,197.581,128.18,226.619,126.098z"/>
	<path fill="#009640" stroke="#1D1D1B" stroke-width="2" stroke-miterlimit="10" d="M219.449,360.656
		c-17.393-0.317-48.213,1.313-57.336-36.156c-1.768-7.262,7.296-28.991,7.296-28.991s-10.509-0.115-12.509-2.605
		c-8.57-10.668-4.636-42.111,0.656-54.73c3.862-9.207,12.889-29.498,22.148-33.232c11.749-4.739,37.483,6.385,50.078,7.747
		c12.88,1.393,39.712-10.37,51.566-5.142c9.398,4.145,19.545,18.259,22.264,34.533c1.858,11.125,9.635,35.309,3.793,44.957
		c-2.716,4.486-18.889,9.122-18.889,9.122s1.95,22.369-0.977,29.008C274.181,355.455,237.695,360.988,219.449,360.656z"/>
	
		<ellipse fill="#FFFFFF" stroke="#1D1D1B" stroke-width="2" stroke-miterlimit="10" cx="198.745" cy="116.328" rx="29.124" ry="29.16"/>
	<circle fill="#1D1D1B" stroke="#1D1D1B" stroke-width="2" stroke-miterlimit="10" cx="197.592" cy="116.328" r="11.242"/>
	<path fill="#006633" stroke="#1D1D1B" stroke-width="2" stroke-miterlimit="10" d="M169.621,121.316
		c0,0-2.454-25.816,19.925-33.015c26.65-8.573,36.641,18.253,36.641,18.253s-14.814-1.471-30.52,3.91
		C188.932,112.771,169.621,121.316,169.621,121.316z"/>
	
		<ellipse transform="matrix(0.9148 0.4038 -0.4038 0.9148 66.9842 -94.6305)" fill="#FFFFFF" stroke="#1D1D1B" stroke-width="2" stroke-miterlimit="10" cx="257.862" cy="111.505" rx="29.124" ry="29.16"/>
	<circle fill="#1D1D1B" stroke="#1D1D1B" stroke-width="2" stroke-miterlimit="10" cx="256.807" cy="111.039" r="11.242"/>
	<path fill="#006633" stroke="#1D1D1B" stroke-width="2" stroke-miterlimit="10" d="M229.204,104.307c0,0,8.179-24.608,31.56-22.158
		c27.843,2.918,26.15,31.495,26.15,31.495s-12.959-7.328-29.5-8.747C250.321,104.289,229.204,104.307,229.204,104.307z"/>
	<path fill="none" stroke="#1D1D1B" stroke-width="2" stroke-miterlimit="10" d="M177.75,169.757c0,0,21,13.773,55.832,11.743
		c31.789-1.853,52.585-18.259,52.585-18.259"/>
	<path fill="none" stroke="#1D1D1B" stroke-width="2" stroke-miterlimit="10" d="M187.167,162.669c0,0-5.073,0.873-9,6
		c-4.328,5.65-3.614,11.167-3.614,11.167"/>
	<path fill="none" stroke="#1D1D1B" stroke-width="2" stroke-miterlimit="10" d="M276.975,156.725c0,0,5.073,0.873,9,6
		c4.328,5.65,3.614,11.167,3.614,11.167"/>
	
		<ellipse transform="matrix(0.7312 0.6821 -0.6821 0.7312 159.5257 -112.2124)" fill="#1D1D1B" stroke="#1D1D1B" stroke-width="2" stroke-miterlimit="10" cx="222.164" cy="146.337" rx="4.948" ry="3"/>
	
		<ellipse transform="matrix(-0.4685 0.8834 -0.8834 -0.4685 474.4454 5.7452)" fill="#1D1D1B" stroke="#1D1D1B" stroke-width="2" stroke-miterlimit="10" cx="235.495" cy="145.583" rx="4.948" ry="3"/>
	<path fill="#7D4E24" stroke="#1D1D1B" stroke-width="2" stroke-miterlimit="10" d="M390.803,13.38
		c0,0-101.635,73.788-127.045,145.301c-28.188,79.332-61.873,184.98-54.925,192.38c3.005,3.201,6.626,2.118,9.173-1.459
		c4.701-6.602,35.76-151.511,55.523-197.113C298.944,93.849,390.803,13.38,390.803,13.38z"/>
	
		<ellipse fill="#29235C" stroke="#312783" stroke-width="2" stroke-miterlimit="10" cx="350.252" cy="464.928" rx="33.231" ry="13.679"/>
	<path fill="none" stroke="#1D1D1B" stroke-width="2" stroke-miterlimit="10" d="M351.061,464.928c0,0,9.049-178.014,14.339-237.182
		c4.806-53.752,25.403-214.366,25.403-214.366"/>
	<circle fill="#006633" stroke="#1D1D1B" stroke-width="2" stroke-miterlimit="10" cx="165.044" cy="164.868" r="6.841"/>
	
		<ellipse fill="#95C11F" stroke="#1D1D1B" stroke-width="2" stroke-miterlimit="10" cx="160.156" cy="179.531" rx="7.82" ry="5.865"/>
	
		<ellipse fill="#3AAA35" stroke="#1D1D1B" stroke-width="2" stroke-miterlimit="10" cx="301.549" cy="152.489" rx="7.166" ry="8.145"/>
	
		<ellipse transform="matrix(-0.6224 0.7827 -0.7827 -0.6224 460.3481 219.7112)" fill="#3AAA35" stroke="#1D1D1B" stroke-width="2" stroke-miterlimit="10" cx="177.173" cy="220.905" rx="7.641" ry="6.191"/>
	
		<ellipse transform="matrix(0.9312 0.3646 -0.3646 0.9312 100.0144 -44.5397)" fill="#006633" stroke="#1D1D1B" stroke-width="2" stroke-miterlimit="10" cx="167.976" cy="242.63" rx="8.684" ry="12.01"/>
	
		<ellipse fill="#95C11F" stroke="#1D1D1B" stroke-width="2" stroke-miterlimit="10" cx="289.167" cy="226.767" rx="8.472" ry="8.797"/>
	
		<ellipse fill="#3AAA35" stroke="#1D1D1B" stroke-width="2" stroke-miterlimit="10" cx="297.965" cy="240.668" rx="4.236" ry="4.453"/>
	
		<ellipse fill="#006633" stroke="#1D1D1B" stroke-width="2" stroke-miterlimit="10" cx="296.01" cy="254.753" rx="6.191" ry="4.753"/>
	
		<ellipse fill="#95C11F" stroke="#1D1D1B" stroke-width="2" stroke-miterlimit="10" cx="120.327" cy="269.87" rx="11.161" ry="8.63"/>
	
		<ellipse fill="#3AAA35" stroke="#1D1D1B" stroke-width="2" stroke-miterlimit="10" cx="142.296" cy="272.345" rx="7.544" ry="6.155"/>
	
		<ellipse fill="#006633" stroke="#1D1D1B" stroke-width="2" stroke-miterlimit="10" cx="125.238" cy="289.336" rx="8.905" ry="8.163"/>
	
		<ellipse fill="#3AAA35" stroke="#1D1D1B" stroke-width="2" stroke-miterlimit="10" cx="329.32" cy="269.441" rx="12.789" ry="9.363"/>
	
		<ellipse fill="#006633" stroke="#1D1D1B" stroke-width="2" stroke-miterlimit="10" cx="352.044" cy="272.182" rx="7.818" ry="6.622"/>
	<path fill="none" stroke="#1D1D1B" stroke-width="2" stroke-miterlimit="10" d="M194.04,225.443c0,0-7.397,12.949-9.114,17.266
		c-1.867,4.696-5.222,18.786-5.222,18.786"/>
	<path fill="#009640" stroke="#1D1D1B" stroke-width="2" stroke-miterlimit="10" d="M173.839,262.281c0,0,15.251-1.972,20.201-3.265
		c3.66-0.956,11.252-2.842,14.21-5.2c4.892-3.899,8.327-16.2,15.785-21.306c3.076-2.106,26.434-5.85,27.34-0.864
		c0.458,2.521-18.894,10.985-18.894,10.985s17.588-5.797,18.894-2.505c1.719,4.333-14.994,11.088-14.994,11.088
		s12.656,0.982,13.036,2.811c0.652,3.143-9.135,9.876-13.167,11.726c-8.083,3.71-20.72,3.71-20.72,3.71"/>
	<path fill="none" stroke="#1D1D1B" stroke-width="2" stroke-miterlimit="10" d="M169.409,295.509c0,0,21.279-6.565,27.391-9.343
		c11.223-5.1,8.802-4.434,29.536-17.645"/>
	<path fill="#009640" stroke="#1D1D1B" stroke-width="2" stroke-miterlimit="10" d="M285.91,262.926c0,0-15.239-0.756-20.243,0
		c-4.872,0.736-13.924,5.347-18.828,5.825c-2.548,0.248-7.566-1.812-10.116-1.584c-3.01,0.269-10.574,1.901-11.056,4.884
		c-0.398,2.467,6.667,7.449,6.667,7.449s-12.159-0.86-12.883,2.332c-0.801,3.528,11.731,8.473,11.731,8.473
		s-10.249,3.049-9.776,5.859c0.711,4.221,12.536,4.191,16.762,3.503c9.5-1.547,9.767-5.133,13.332-5.879
		c3.596-0.752,10.061,2.489,16.668,3.024c10.07,0.815,20.349-0.653,20.349-0.653"/>
	<path fill="none" stroke="#1D1D1B" stroke-width="2" stroke-miterlimit="10" d="M273.53,234.913c0,0,3.856,9.192,4.777,12.378
		c1.093,3.782,3.042,15.452,3.042,15.452"/>
</g>
</svg>
