<?xml version="1.0" encoding="utf-8"?>
<!-- Generator: Adobe Illustrator 17.0.0, SVG Export Plug-In . SVG Version: 6.00 Build 0)  -->
<!DOCTYPE svg PUBLIC "-//W3C//DTD SVG 1.1//EN" "http://www.w3.org/Graphics/SVG/1.1/DTD/svg11.dtd">
<svg version="1.1" id="Слой_1" xmlns="http://www.w3.org/2000/svg" xmlns:xlink="http://www.w3.org/1999/xlink" x="0px" y="0px"
	 width="150px" height="150px" viewBox="0 0 150 150" enable-background="new 0 0 150 150" xml:space="preserve">
<g>
	<g>
		
			<linearGradient id="SVGID_1_" gradientUnits="userSpaceOnUse" x1="4421.6963" y1="1053.9692" x2="4398.8818" y2="1060.1519" gradientTransform="matrix(-0.9816 -0.1908 -0.1908 0.9816 4613.7471 -82.4977)">
			<stop  offset="0" style="stop-color:#F9F9F9"/>
			<stop  offset="1" style="stop-color:#CFCFCF"/>
		</linearGradient>
		<path fill="url(#SVGID_1_)" d="M76.31,119.225c-2.88-3.443-3.875-8.817-2.174-14.099c2.432-7.556,9.452-12.056,15.68-10.052
			c6.229,2.005,10.619,10.313,6.875,17.311c-1.236,2.31-3.243,3.37-4.295,5.049c-0.371,0.593,0.235,2.424-0.308,2.93l-11.382,10.191
			c-2.28,2.124-5.851,1.998-7.976-0.283c-2.124-2.281-1.998-5.852,0.283-7.976L76.31,119.225z"/>
		
			<linearGradient id="SVGID_2_" gradientUnits="userSpaceOnUse" x1="4558.0874" y1="2264.1138" x2="4558.0874" y2="2243.3572" gradientTransform="matrix(-0.6391 -0.7691 -0.7691 0.6391 4760.6504 2166.1162)">
			<stop  offset="0" style="stop-color:#CFCFCF"/>
			<stop  offset="1" style="stop-color:#F9F9F9"/>
		</linearGradient>
		<path fill="url(#SVGID_2_)" d="M116.858,91.491c0.696,0.511,1.053,1.387,1.101,2.487c2.241-0.484,4.13-0.136,4.96,1.117
			c0.737,1.113,0.491,2.717-0.499,4.376c0.745,0.412,1.257,0.967,1.455,1.654c0.701,2.428-2.79,5.567-7.797,7.012
			c-4.634,1.337-8.941,0.753-10.113-1.265c-0.099-0.052-0.197-0.11-0.289-0.177c-2.036-1.497-1.182-6.115,1.905-10.313
			C110.669,92.183,114.822,89.993,116.858,91.491z"/>
		
			<linearGradient id="SVGID_3_" gradientUnits="userSpaceOnUse" x1="4339.0264" y1="-235.9489" x2="4350.3477" y2="-252.7828" gradientTransform="matrix(-0.9998 0.0188 0.0188 0.9998 4394.0283 264.023)">
			<stop  offset="0" style="stop-color:#CFCFCF"/>
			<stop  offset="1" style="stop-color:#F9F9F9"/>
		</linearGradient>
		<path fill="url(#SVGID_3_)" d="M31.913,101.644c0.058,3.116,2.632,5.595,5.748,5.536l16.121-0.303
			c3.117-0.059,5.595-2.633,5.537-5.749l0,0c-0.059-3.117-2.632-5.595-5.749-5.536l-16.121,0.303
			C34.333,95.954,31.854,98.528,31.913,101.644L31.913,101.644z"/>
		
			<linearGradient id="SVGID_4_" gradientUnits="userSpaceOnUse" x1="4624.7461" y1="834.8212" x2="4624.7461" y2="789.0622" gradientTransform="matrix(-0.9508 -0.3099 -0.3099 0.9508 4727.936 760.9399)">
			<stop  offset="0" style="stop-color:#CFCFCF"/>
			<stop  offset="1" style="stop-color:#F9F9F9"/>
		</linearGradient>
		<path fill="url(#SVGID_4_)" d="M109.174,110.221c4.029-12.362-6.258-26.8-22.976-32.25C69.479,72.522,52.57,78.097,48.63,90.487
			c-5.859,18.429,7.429,25.79,24.147,31.24C89.496,127.176,105.145,122.583,109.174,110.221z"/>
		
			<linearGradient id="SVGID_5_" gradientUnits="userSpaceOnUse" x1="4405.8735" y1="1051.7367" x2="4383.0581" y2="1057.9196" gradientTransform="matrix(-0.9816 -0.1908 -0.1908 0.9816 4613.7471 -82.4977)">
			<stop  offset="0" style="stop-color:#F9F9F9"/>
			<stop  offset="1" style="stop-color:#CFCFCF"/>
		</linearGradient>
		<path fill="url(#SVGID_5_)" d="M92.269,120.053c-2.88-3.443-3.875-8.817-2.175-14.099c2.432-7.556,9.452-12.056,15.681-10.052
			c6.228,2.005,10.619,10.313,6.875,17.312c-1.236,2.309-3.243,3.37-4.296,5.049c-0.371,0.592,0.236,2.423-0.308,2.93
			l-11.381,10.191c-2.28,2.124-5.851,1.997-7.976-0.283c-2.124-2.28-1.998-5.852,0.283-7.976L92.269,120.053z"/>
		
			<linearGradient id="SVGID_6_" gradientUnits="userSpaceOnUse" x1="4331.3193" y1="-228.2711" x2="4342.6406" y2="-245.1051" gradientTransform="matrix(-0.9998 0.0188 0.0188 0.9998 4394.0283 264.023)">
			<stop  offset="0" style="stop-color:#CFCFCF"/>
			<stop  offset="1" style="stop-color:#F9F9F9"/>
		</linearGradient>
		<path fill="url(#SVGID_6_)" d="M39.763,109.175c0.059,3.116,2.633,5.594,5.749,5.536l16.121-0.303
			c3.116-0.059,5.595-2.633,5.536-5.75l0,0c-0.059-3.116-2.632-5.594-5.748-5.536l-16.122,0.303
			C42.183,103.485,39.705,106.059,39.763,109.175L39.763,109.175z"/>
	</g>
	<g>
		<g>
			
				<linearGradient id="SVGID_7_" gradientUnits="userSpaceOnUse" x1="4807.7617" y1="1932.3281" x2="4807.7617" y2="1857.3643" gradientTransform="matrix(-0.632 -0.775 -0.775 0.632 4599.6279 2565.8855)">
				<stop  offset="0" style="stop-color:#CFCFCF"/>
				<stop  offset="1" style="stop-color:#F9F9F9"/>
			</linearGradient>
			<path fill="url(#SVGID_7_)" d="M84.374,27.424C68.1,40.152,57.437,53.584,59.97,56.689c2.532,3.105,15.144-8.685,33.575-18.019
				c18.848-9.545,38.756-9.862,34.493-16.895C119.597,7.854,96.823,17.687,84.374,27.424z"/>
			
				<linearGradient id="SVGID_8_" gradientUnits="userSpaceOnUse" x1="4741.5117" y1="1439.3135" x2="4741.5117" y2="1382.0897" gradientTransform="matrix(-0.8495 -0.5275 -0.5275 0.8495 4832.5415 1377.8574)">
				<stop  offset="0" style="stop-color:#CFCFCF"/>
				<stop  offset="1" style="stop-color:#F9F9F9"/>
			</linearGradient>
			<path fill="url(#SVGID_8_)" d="M75.574,50.795c15.417,9.573,19.892,28.894,11.919,41.734
				c-7.973,12.841-26.686,16.45-42.103,6.878C29.973,89.834,24.91,71.461,32.883,58.62C40.856,45.779,60.158,41.222,75.574,50.795z"
				/>
			
				<linearGradient id="SVGID_9_" gradientUnits="userSpaceOnUse" x1="4204.7539" y1="3115.0684" x2="4204.7539" y2="3040.1045" gradientTransform="matrix(-0.1848 -0.9828 -0.9828 0.1848 3910.188 3628.1311)">
				<stop  offset="0" style="stop-color:#CFCFCF"/>
				<stop  offset="1" style="stop-color:#F9F9F9"/>
			</linearGradient>
			<path fill="url(#SVGID_9_)" d="M106.031,51.723C85.653,55.127,69.867,61.83,70.608,65.768c0.74,3.938,17.453-0.392,38.105,0.217
				c21.118,0.623,38.757,9.858,38.373,1.643C146.325,51.365,121.62,49.12,106.031,51.723z"/>
		</g>
		<g>
			<g>
				
					<linearGradient id="SVGID_10_" gradientUnits="userSpaceOnUse" x1="4750.9902" y1="1414.4486" x2="4752.6016" y2="1411.9596" gradientTransform="matrix(-0.8495 -0.5275 -0.5275 0.8495 4832.5415 1377.8574)">
					<stop  offset="0" style="stop-color:#101010"/>
					<stop  offset="1" style="stop-color:#707070"/>
				</linearGradient>
				<circle fill="url(#SVGID_10_)" cx="50.426" cy="71.802" r="1.482"/>
				
					<linearGradient id="SVGID_11_" gradientUnits="userSpaceOnUse" x1="4762.8901" y1="1414.4481" x2="4764.501" y2="1411.959" gradientTransform="matrix(-0.8495 -0.5275 -0.5275 0.8495 4832.5415 1377.8583)">
					<stop  offset="0" style="stop-color:#101010"/>
					<stop  offset="1" style="stop-color:#707070"/>
				</linearGradient>
				<circle fill="url(#SVGID_11_)" cx="40.317" cy="65.525" r="1.482"/>
			</g>
			<g>
				<g>
					
						<linearGradient id="SVGID_12_" gradientUnits="userSpaceOnUse" x1="3245.8958" y1="-794.3954" x2="3245.8958" y2="-815.3228" gradientTransform="matrix(-0.8208 0.5712 0.5712 0.8208 3141.5823 -1121.446)">
						<stop  offset="0" style="stop-color:#008E3D"/>
						<stop  offset="0.446" style="stop-color:#5FAE69"/>
						<stop  offset="0.8211" style="stop-color:#A3CD98"/>
						<stop  offset="1" style="stop-color:#B9D9AB"/>
					</linearGradient>
					<path fill="url(#SVGID_12_)" d="M20.498,69.976c-3.301-4.744-7.267-7.69-8.859-6.583c-1.592,1.108-0.207,5.851,3.094,10.594
						c3.301,4.744,7.267,7.691,8.859,6.583C25.183,79.462,23.798,74.719,20.498,69.976z"/>
					
						<linearGradient id="SVGID_13_" gradientUnits="userSpaceOnUse" x1="918.4542" y1="-109.078" x2="918.4542" y2="-130.006" gradientTransform="matrix(0.186 0.9825 0.9825 -0.186 -39.8788 -842.2569)">
						<stop  offset="0" style="stop-color:#008E3D"/>
						<stop  offset="0.446" style="stop-color:#5FAE69"/>
						<stop  offset="0.8211" style="stop-color:#A3CD98"/>
						<stop  offset="1" style="stop-color:#B9D9AB"/>
					</linearGradient>
					<path fill="url(#SVGID_13_)" d="M12.851,78.909c-5.678,1.075-9.988,3.491-9.628,5.396c0.361,1.906,5.256,2.579,10.934,1.505
						c5.678-1.075,9.988-3.491,9.628-5.396C23.424,78.507,18.528,77.834,12.851,78.909z"/>
					
						<linearGradient id="SVGID_14_" gradientUnits="userSpaceOnUse" x1="2091.7942" y1="-722.5818" x2="2091.7942" y2="-743.5086" gradientTransform="matrix(-0.4586 1.1186 0.9588 0.393 1676.506 -1975.1005)">
						<stop  offset="0" style="stop-color:#008E3D"/>
						<stop  offset="0.446" style="stop-color:#5FAE69"/>
						<stop  offset="0.8211" style="stop-color:#A3CD98"/>
						<stop  offset="1" style="stop-color:#B9D9AB"/>
					</linearGradient>
					<path fill="url(#SVGID_14_)" d="M15.976,72.766c-5.54-2.272-10.752-2.354-11.642-0.185c-0.889,2.17,2.881,5.77,8.421,8.041
						c5.541,2.271,10.753,2.354,11.643,0.185C25.286,78.637,21.517,75.037,15.976,72.766z"/>
				</g>
				
					<linearGradient id="SVGID_15_" gradientUnits="userSpaceOnUse" x1="2033.1135" y1="-746.5623" x2="2033.1135" y2="-764.765" gradientTransform="matrix(-0.3903 0.9207 0.9207 0.3903 1517.0048 -1494.5197)">
					<stop  offset="0" style="stop-color:#F18400"/>
					<stop  offset="1" style="stop-color:#FCD0A1"/>
				</linearGradient>
				<path fill="url(#SVGID_15_)" d="M23.21,93.122c7.324,3.105,10.407-1.234,12.911-7.138c2.502-5.903,3.871-10.968-3.849-14.241
					c-4.628-1.962-10.408,1.234-12.91,7.137C16.858,84.784,18.582,91.159,23.21,93.122z"/>
				
					<linearGradient id="SVGID_16_" gradientUnits="userSpaceOnUse" x1="2033.1135" y1="-742.5131" x2="2033.1135" y2="-754.9828" gradientTransform="matrix(-0.3903 0.9207 0.9207 0.3903 1517.0048 -1494.5197)">
					<stop  offset="0" style="stop-color:#F18400"/>
					<stop  offset="1" style="stop-color:#FCD0A1"/>
				</linearGradient>
				<path fill="url(#SVGID_16_)" d="M31.004,92.454c5.017,2.127,7.131-0.845,8.845-4.889c1.714-4.045,2.653-7.514-2.636-9.756
					c-3.17-1.344-7.13,0.845-8.845,4.889C26.654,86.743,27.834,91.11,31.004,92.454z"/>
				
					<linearGradient id="SVGID_17_" gradientUnits="userSpaceOnUse" x1="2033.1136" y1="-740.2912" x2="2033.1136" y2="-748.4612" gradientTransform="matrix(-0.3903 0.9207 0.9207 0.3903 1517.0048 -1494.5197)">
					<stop  offset="0" style="stop-color:#F18400"/>
					<stop  offset="1" style="stop-color:#FCD0A1"/>
				</linearGradient>
				<path fill="url(#SVGID_17_)" d="M36.1,91.636c3.287,1.393,4.672-0.554,5.795-3.204c1.123-2.65,1.737-4.923-1.727-6.392
					c-2.077-0.88-4.671,0.554-5.795,3.203C33.249,87.893,34.022,90.755,36.1,91.636z"/>
				
					<linearGradient id="SVGID_18_" gradientUnits="userSpaceOnUse" x1="2033.1134" y1="-738.2133" x2="2033.1134" y2="-743.2294" gradientTransform="matrix(-0.3903 0.9207 0.9207 0.3903 1517.0048 -1494.5197)">
					<stop  offset="0" style="stop-color:#F18400"/>
					<stop  offset="1" style="stop-color:#FCD0A1"/>
				</linearGradient>
				<path fill="url(#SVGID_18_)" d="M40.25,91.21c2.018,0.856,2.868-0.34,3.558-1.967c0.69-1.627,1.067-3.023-1.061-3.924
					c-1.276-0.54-2.868,0.34-3.558,1.967C38.499,88.912,38.974,90.669,40.25,91.21z"/>
			</g>
			<g>
				
					<linearGradient id="SVGID_19_" gradientUnits="userSpaceOnUse" x1="4758.6987" y1="1427.2583" x2="4758.6987" y2="1423.277" gradientTransform="matrix(-0.8495 -0.5275 -0.5275 0.8495 4832.5415 1377.8583)">
					<stop  offset="0" style="stop-color:#DFDFDF"/>
					<stop  offset="1" style="stop-color:#F9F9F9"/>
				</linearGradient>
				<path fill="url(#SVGID_19_)" d="M40.291,77.366c0.654,0.405,0.713,1.492,0.134,2.426c-0.58,0.934-1.58,1.362-2.233,0.956
					c-0.451-0.28-0.62-0.884-0.491-1.538c-0.529,0.406-1.145,0.523-1.596,0.243c-0.654-0.406-0.714-1.492-0.134-2.426
					c0.58-0.934,1.58-1.362,2.234-0.956L40.291,77.366z"/>
				<g>
					
						<linearGradient id="SVGID_20_" gradientUnits="userSpaceOnUse" x1="4758.6689" y1="1425.4828" x2="4758.6689" y2="1417.8855" gradientTransform="matrix(-0.8495 -0.5275 -0.5275 0.8495 4832.5415 1377.8583)">
						<stop  offset="0" style="stop-color:#CFCFCF"/>
						<stop  offset="1" style="stop-color:#F9F9F9"/>
					</linearGradient>
					<path fill="url(#SVGID_20_)" d="M39.205,70.346c1.286,0.799,1.925,2.241,1.767,3.652c1.195-0.768,2.77-0.834,4.057-0.036
						c1.782,1.107,2.33,3.448,1.223,5.23c-1.107,1.782-3.449,2.33-5.231,1.223c-1.286-0.799-1.925-2.241-1.767-3.652
						c-1.195,0.768-2.771,0.834-4.057,0.036c-1.782-1.107-2.329-3.449-1.223-5.231C35.082,69.787,37.423,69.239,39.205,70.346z"/>
					
						<linearGradient id="SVGID_21_" gradientUnits="userSpaceOnUse" x1="4758.6694" y1="1416.4958" x2="4758.6694" y2="1420.9434" gradientTransform="matrix(-0.8495 -0.5275 -0.5275 0.8495 4832.5415 1377.8583)">
						<stop  offset="0" style="stop-color:#F6BBCF"/>
						<stop  offset="1" style="stop-color:#D4819E"/>
					</linearGradient>
					<path fill="url(#SVGID_21_)" d="M39.168,71.195c-0.688,1.108,0.982,3.336,1.336,3.556c0.276,0.171,3.091,0.729,3.78-0.38
						c0.689-1.108-0.119-2.582-1.532-3.459C41.339,70.035,39.857,70.087,39.168,71.195z"/>
				</g>
				<g>
					<path fill="#BFBFBF" d="M45.678,77.335c0.031,0.019,0.068,0.028,0.107,0.023c0.049-0.007,5.041-0.603,13.733,5.787
						c0.068,0.05,0.173,0.037,0.225-0.034c0.053-0.072,0.037-0.173-0.034-0.226c-8.812-6.479-13.763-5.875-13.969-5.846
						c-0.088,0.012-0.15,0.094-0.137,0.182C45.609,77.27,45.638,77.311,45.678,77.335z"/>
					<path fill="#BFBFBF" d="M56.294,88.065c0.054,0.033,0.124,0.033,0.179-0.006c0.072-0.052,0.089-0.152,0.037-0.225
						c-6.36-8.9-11.252-9.865-11.456-9.902c-0.088-0.016-0.171,0.042-0.187,0.13c-0.016,0.088,0.042,0.172,0.13,0.187
						c0.048,0.009,4.98,0.996,11.251,9.773C56.261,88.039,56.277,88.054,56.294,88.065z"/>
					<path fill="#BFBFBF" d="M35.543,71.043c0.039,0.025,0.089,0.032,0.136,0.016c0.085-0.028,0.13-0.119,0.103-0.204
						c-0.066-0.198-1.719-4.9-11.435-9.927c-0.079-0.041-0.176-0.01-0.217,0.069c-0.041,0.079-0.008,0.174,0.069,0.217
						c5.007,2.59,7.808,5.102,9.275,6.755c1.588,1.786,1.998,2.977,2.002,2.988C35.488,70.995,35.513,71.024,35.543,71.043z"/>
					<path fill="#BFBFBF" d="M21.219,66.285c0.018,0.011,0.038,0.018,0.059,0.023c5.565,0.903,9.008,2.42,10.915,3.533
						c2.068,1.205,2.825,2.208,2.833,2.218c0.053,0.072,0.154,0.086,0.225,0.033c0.072-0.053,0.087-0.154,0.034-0.225
						c-0.124-0.167-3.158-4.124-13.956-5.877c-0.088-0.015-0.171,0.045-0.185,0.133C21.134,66.189,21.165,66.253,21.219,66.285z"/>
				</g>
			</g>
		</g>
	</g>
</g>
<g>
</g>
<g>
</g>
<g>
</g>
<g>
</g>
<g>
</g>
<g>
</g>
</svg>
