<?xml version="1.0" encoding="UTF-8" standalone="no"?>


<svg
   xmlns:dc="http://purl.org/dc/elements/1.1/"
   xmlns:cc="http://creativecommons.org/ns#"
   xmlns:rdf="http://www.w3.org/1999/02/22-rdf-syntax-ns#"
   xmlns:svg="http://www.w3.org/2000/svg"
   xmlns="http://www.w3.org/2000/svg"
   xmlns:sodipodi="http://sodipodi.sourceforge.net/DTD/sodipodi-0.dtd"
   xmlns:inkscape="http://www.inkscape.org/namespaces/inkscape"
   version="1.1"
   id="Слой_1"
   x="0px"
   y="0px"
   width="150px"
   height="150px"
   viewBox="0 0 150 150"
   enable-background="new 0 0 150 150"
   xml:space="preserve"
   sodipodi:docname="icon.svg"
   inkscape:version="0.92.4 (5da689c313, 2019-01-14)"><metadata
   id="metadata175"><rdf:RDF><cc:Work
       rdf:about=""><dc:format>image/svg+xml</dc:format><dc:type
         rdf:resource="http://purl.org/dc/dcmitype/StillImage" /><dc:title></dc:title></cc:Work></rdf:RDF></metadata><defs
   id="defs173" /><sodipodi:namedview
   pagecolor="#ffffff"
   bordercolor="#666666"
   borderopacity="1"
   objecttolerance="10"
   gridtolerance="10"
   guidetolerance="10"
   inkscape:pageopacity="0"
   inkscape:pageshadow="2"
   inkscape:window-width="1920"
   inkscape:window-height="1017"
   id="namedview171"
   showgrid="false"
   inkscape:zoom="1.5733333"
   inkscape:cx="75"
   inkscape:cy="75"
   inkscape:window-x="-8"
   inkscape:window-y="-8"
   inkscape:window-maximized="1"
   inkscape:current-layer="Слой_1" />
<g
   id="g156"
   transform="matrix(0.667109,0,0,0.667109,-6.362618,46.821595)">
	<path
   d="m 39.877,22.026 c 0,0 -1.578,-3.682 -2.045,-8.006 -0.468,-4.325 -0.058,-7.13 -0.058,-7.13 0,0 4.734,3.448 6.37,5.552 1.635,2.104 3.856,6.136 3.856,6.136 0,0 2.747,-0.76 4.734,-1.11 1.987,-0.35 4.441,-0.76 4.441,-0.76 0,0 0.234,-0.935 0.117,-1.812 C 57.175,14.02 57,10.455 58.169,7.124 59.338,3.793 60.916,2.04 60.916,2.04 c 0,0 3.039,5.26 3.506,7.48 0.468,2.221 1.052,7.013 1.052,7.013 l 2.688,0.175 c 0,0 -2.221,4.617 -3.331,7.422 -1.11,2.805 -2.688,11.396 -2.747,14.552 -0.058,3.156 0.584,8.123 0.584,8.123 l -1.812,0.643 c 0,0 -1.636,-5.201 -5.669,-10.461 -4.033,-5.26 -8.824,-8.883 -10.694,-10.227 -1.87,-1.344 -6.312,-3.857 -6.312,-3.857 z"
   id="path2"
   inkscape:connector-curvature="0"
   style="fill:#ae5c59" />
	<path
   d="m 41.766,41.078 c 0,0 5.766,1.091 9.272,2.805 3.506,1.714 8.337,5.844 8.337,5.844 0,0 -1.403,8.026 -1.403,14.415 0,6.389 0.935,11.844 1.013,12.857 0.078,1.013 0.156,2.104 0.156,2.104 0,0 1.87,4.364 1.948,7.48 0.078,3.116 -1.169,6.234 -1.403,7.013 -0.234,0.779 -1.013,2.338 -1.013,2.338 0,0 9.818,-0.156 15.818,-1.792 6,-1.636 14.805,-3.662 21.895,-4.441 7.091,-0.779 12.311,1.013 14.571,2.104 2.26,1.091 -1.87,7.091 -1.87,7.091 0,0 -9.584,20.727 -13.091,22.051 -3.506,1.325 -12.545,7.636 -12.545,7.636 0,0 -17.298,3.428 -22.831,4.052 -5.533,0.624 -17.064,0.156 -24.934,-7.714 -7.87,-7.87 -8.026,-12.467 -8.415,-14.727 -0.389,-2.26 -0.857,-3.584 -0.857,-3.584 0,0 -4.13,-3.117 -6.078,-9.195 -1.948,-6.078 -2.104,-15.116 0.312,-22.753 2.416,-7.637 6.545,-16.675 10.675,-22.129 4.13,-5.454 10.443,-11.455 10.443,-11.455 z"
   id="path4"
   inkscape:connector-curvature="0"
   style="fill:#ae5c59" />
	<path
   d="m 40.442,11.936 1.87,8.805 2.883,-1.403 c 0,0 -0.156,-1.247 -1.714,-3.662 -1.559,-2.416 -3.039,-3.74 -3.039,-3.74 z"
   id="path6"
   inkscape:connector-curvature="0"
   style="fill:#f9dbe8" />
	<path
   d="m 60.623,9.131 c 0,0 -0.39,4.441 -0.39,5.454 0,1.013 0.078,1.714 0.078,1.714 l 1.87,0.156 c 0,0 0.312,-2.026 -0.078,-4.13 -0.389,-2.104 -1.48,-3.194 -1.48,-3.194 z"
   id="path8"
   inkscape:connector-curvature="0"
   style="fill:#f9dbe8" />
	<path
   d="m 38.182,22.903 c 0,0 -5.299,3.214 -7.792,5.63 -2.493,2.416 -5.376,5.299 -6.156,6.545 -0.779,1.247 -3.662,5.532 -3.662,5.532 0,0 1.169,-1.091 3.896,-2.104 2.727,-1.013 4.286,-1.325 4.286,-1.325 l -3.039,5.688 c 0,0 6.935,-2.182 12.935,-2.104 6,0.078 12.779,2.883 15.116,4.364 2.337,1.481 5.61,4.597 5.61,4.597 l 1.48,-2.279 c 0,0 -1.325,-3.565 -3.195,-6.76 -1.87,-3.195 -4.831,-7.091 -8.337,-10.13 -3.506,-3.039 -8.415,-6.156 -9.506,-6.701 -1.091,-0.545 -1.636,-0.953 -1.636,-0.953 z"
   id="path10"
   inkscape:connector-curvature="0"
   style="fill:#ffffff" />
	<path
   d="m 62.883,47.155 c 0,0 -0.701,-4.909 -0.39,-9.428 0.312,-4.519 1.247,-9.272 2.182,-12.623 0.935,-3.351 3.487,-8.396 3.487,-8.396 0,0 6.253,0.76 9.526,2.084 3.273,1.325 9.35,4.052 10.909,5.065 1.558,1.013 3.039,1.87 3.039,1.87 0,0 -3.818,-0.234 -5.61,-0.156 -1.792,0.078 -2.727,0.701 -2.727,0.701 l 4.052,3.428 c 0,0 -7.948,0.935 -12,3.818 -4.052,2.883 -8.337,7.792 -9.35,9.818 -1.013,2.026 -1.558,4.052 -1.558,4.052 0,0 0.232,-0.544 -1.56,-0.233 z"
   id="path12"
   inkscape:connector-curvature="0"
   style="fill:#ffffff" />
	<path
   d="m 61.48,47.077 c 0,0 -1.87,1.091 -1.325,2.883 0.545,1.792 1.48,2.883 3.273,2.26 1.792,-0.623 2.493,-1.091 1.948,-2.649 -0.545,-1.558 -0.701,-2.26 -1.558,-2.493 -0.857,-0.234 -1.714,-0.371 -2.338,-0.001 z"
   id="path14"
   inkscape:connector-curvature="0"
   style="fill:#77736f" />
	<path
   d="m 78.272,124.296 c 0,0 2.338,1.519 3.273,2.688 0.935,1.169 1.909,1.597 1.909,1.597 0,0 11.065,-1.13 18.545,1.675 7.48,2.805 12.974,8.298 14.61,10.636 1.636,2.338 2.688,3.74 3.273,4.675 0.584,0.935 1.403,2.688 1.403,2.688 0,0 8.298,-7.13 10.169,-14.844 1.87,-7.714 0.818,-12.039 -0.468,-17.999 -1.286,-5.961 -8.182,-14.844 -9.935,-16.831 -1.753,-1.987 -6.74,-5.143 -8.415,-5.961 -1.675,-0.818 -2.922,-1.636 -2.922,-1.636 0,0 -3.039,0.468 -5.493,1.169 -2.454,0.701 -5.376,1.753 -5.376,1.753 0,0 3.39,1.636 5.026,3.156 1.636,1.519 2.338,2.571 2.338,2.571 0,0 -4.909,-0.351 -8.649,0.701 -3.74,1.052 -4.441,1.403 -4.441,1.403 0,0 3.74,2.454 5.26,4.091 1.519,1.636 2.338,2.571 2.338,2.571 0,0 -4.675,-0.351 -7.48,-0.584 -2.805,-0.234 -4.325,-0.234 -4.325,-0.234 0,0 2.805,3.506 4.325,6.078 1.519,2.571 1.753,3.39 1.753,3.39 0,0 -6.662,-1.169 -9.117,-1.169 -2.455,0 -3.273,0.701 -3.273,0.701 0,0 1.519,2.688 2.805,4.208 1.286,1.519 1.87,2.338 1.87,2.338 0,0 -1.403,-1.052 -4.441,-0.468 -3.043,0.585 -4.562,1.637 -4.562,1.637 z"
   id="path16"
   inkscape:connector-curvature="0"
   style="fill:#ffffff" />
	<g
   id="g22">
		<g
   id="g20">
			<path
   d="m 44.245,87.902 c 1.796,9.214 14.182,9.143 21.392,8.6 14.768,-1.112 28.655,-9.062 43.611,-4.376 1.195,0.375 1.704,-1.497 0.515,-1.868 C 99.312,86.993 88.856,89.562 78.565,92.177 69.05,94.594 49.984,99.644 44.688,87.716 44.57,87.449 44.196,87.649 44.245,87.902 Z"
   id="path18"
   inkscape:connector-curvature="0"
   style="fill:#913534" />
		</g>
	</g>
	<g
   id="g28">
		<g
   id="g26">
			<path
   d="M 41.745,41.008 C 31.65,48.144 24.836,59.968 20.893,71.45 c -4.094,11.922 -5.351,26.662 4.721,35.958 0.916,0.846 2.289,-0.52 1.37,-1.37 C 16.902,96.715 19.186,82.165 23.098,70.458 26.941,58.958 34.18,50.373 42.17,41.561 42.427,41.278 42.085,40.767 41.745,41.008 Z"
   id="path24"
   inkscape:connector-curvature="0"
   style="fill:#913534" />
		</g>
	</g>
	<g
   id="g34">
		<g
   id="g32">
			<path
   d="m 20.837,40.935 c 4.648,-6.907 10.331,-13.354 17.818,-17.264 1.078,-0.563 0.047,-2.305 -0.946,-1.619 -7.169,4.947 -13.628,10.533 -17.56,18.481 -0.228,0.461 0.401,0.829 0.688,0.402 z"
   id="path30"
   inkscape:connector-curvature="0"
   style="fill:#9c9793" />
		</g>
	</g>
	<g
   id="g40">
		<g
   id="g38">
			<path
   d="m 60.639,16.299 c 0.267,-2.546 0.317,-5.099 0.716,-7.634 -0.438,0.057 -0.875,0.114 -1.313,0.172 0.602,1.298 1.002,2.616 1.25,4.021 0.222,1.258 -0.18,2.741 0.49,3.854 0.125,0.208 0.458,0.282 0.629,0.081 0.868,-1.019 0.587,-2.534 0.4,-3.785 C 62.553,11.286 62.046,9.676 61.283,8.112 60.931,7.391 60.028,7.85 59.945,8.474 c -0.349,2.629 -0.548,5.302 -0.054,7.926 0.085,0.455 0.707,0.294 0.748,-0.101 z"
   id="path36"
   inkscape:connector-curvature="0"
   style="fill:#f0a7c7" />
		</g>
	</g>
	<g
   id="g46">
		<g
   id="g44">
			<path
   d="m 42.534,20.587 c 10e-4,-2.961 -0.84,-5.968 -1.457,-8.848 -0.437,0.254 -0.874,0.509 -1.312,0.763 1.151,1.197 2.123,2.492 2.958,3.926 0.687,1.18 0.916,2.858 2.097,3.62 0.26,0.167 0.566,-0.008 0.66,-0.268 0.493,-1.371 -0.673,-3.016 -1.332,-4.184 -0.873,-1.549 -2.025,-2.945 -3.274,-4.203 -0.571,-0.575 -1.484,0.014 -1.312,0.763 0.659,2.859 1.177,5.907 2.424,8.579 0.13,0.274 0.548,0.128 0.548,-0.148 z"
   id="path42"
   inkscape:connector-curvature="0"
   style="fill:#f0a7c7" />
		</g>
	</g>
	<g
   id="g52">
		<g
   id="g50">
			<path
   d="m 65.798,28.862 c 0.182,2.327 3.232,3.018 5.1,2.606 2.143,-0.473 4.091,-3.279 3.252,-5.422 -0.27,-0.69 -1.45,-0.902 -1.618,0 -0.284,1.526 -0.453,3.027 -2.121,3.656 -1.587,0.598 -2.755,-0.509 -4.049,-1.164 -0.233,-0.118 -0.587,0.021 -0.564,0.324 z"
   id="path48"
   inkscape:connector-curvature="0"
   style="fill:#68635f" />
		</g>
	</g>
	<g
   id="g58">
		<g
   id="g56">
			<path
   d="m 40.617,35.137 c 0.544,2.441 3.466,3.345 5.639,2.557 1.682,-0.61 4.419,-3.856 2.337,-5.396 -0.145,-0.107 -0.379,-0.057 -0.497,0.064 -0.35,0.359 -0.506,0.745 -0.639,1.226 -0.277,0.996 -0.637,1.743 -1.517,2.344 -1.611,1.101 -3.57,0.014 -4.833,-1.08 -0.222,-0.193 -0.556,-0.01 -0.49,0.285 z"
   id="path54"
   inkscape:connector-curvature="0"
   style="fill:#68635f" />
		</g>
	</g>
	<g
   id="g64">
		<g
   id="g62">
			<path
   d="m 67.724,17.654 c 8.53,1.23 16.346,4.397 23.289,9.511 1.203,0.886 2.351,-1.121 1.167,-1.997 C 84.971,19.836 76.871,16.779 68,15.613 c -1.158,-0.152 -1.431,1.875 -0.276,2.041 z"
   id="path60"
   inkscape:connector-curvature="0"
   style="fill:#9c9793" />
		</g>
	</g>
	<g
   id="g70">
		<g
   id="g68">
			<path
   d="m 38.616,23.603 c 9.151,-5.081 18.986,-7.012 29.385,-5.904 1.338,0.142 1.335,-1.965 0,-2.094 -10.739,-1.035 -20.897,1.16 -30.252,6.514 -0.963,0.551 -0.103,2.023 0.867,1.484 z"
   id="path66"
   inkscape:connector-curvature="0"
   style="fill:#913534" />
		</g>
	</g>
	<g
   id="g76">
		<g
   id="g74">
			<path
   d="m 41.506,21.361 c 0.04,0 0.04,-0.063 0,-0.063 -0.041,0 -0.041,0.063 0,0.063 z"
   id="path72"
   inkscape:connector-curvature="0"
   style="fill:#913534" />
		</g>
	</g>
	<g
   id="g82">
		<g
   id="g80">
			<path
   d="m 38.195,23.241 c 4.217,3.457 8.715,6.259 12.587,10.18 2.373,2.404 4.344,5.143 6.089,8.023 1.31,2.161 1.865,4.708 3.799,6.366 0.264,0.227 0.6,0.063 0.64,-0.265 C 61.919,42.546 56.299,36.655 53.158,33.143 49.359,28.896 43.97,24.485 38.499,22.718 38.212,22.626 37.95,23.04 38.195,23.241 Z"
   id="path78"
   inkscape:connector-curvature="0"
   style="fill:#913534" />
		</g>
	</g>
	<g
   id="g88">
		<g
   id="g86">
			<path
   d="m 67.958,16.558 c -6.374,8.085 -7.697,20.308 -6.496,30.208 0.156,1.288 2.168,1.345 2.063,0 -0.404,-5.144 -0.338,-10.063 0.462,-15.171 0.809,-5.161 3.014,-9.779 4.507,-14.726 0.087,-0.29 -0.332,-0.57 -0.536,-0.311 z"
   id="path84"
   inkscape:connector-curvature="0"
   style="fill:#913534" />
		</g>
	</g>
	<g
   id="g94">
		<g
   id="g92">
			<path
   d="m 20.371,41.29 c 2.832,-1.721 5.366,-3.18 8.682,-3.866 -0.231,-0.3 -0.462,-0.6 -0.692,-0.901 -1.119,2.06 -2.237,4.12 -3.356,6.181 -0.256,0.471 0.17,1.175 0.743,0.967 5.846,-2.123 11.851,-2.526 17.948,-1.343 6.533,1.267 10.668,5.073 15.996,8.548 0.507,0.331 1.166,-0.326 0.834,-0.834 -7.025,-10.732 -24.337,-11.717 -35.128,-7.64 0.248,0.322 0.496,0.645 0.743,0.967 1.093,-2.075 2.185,-4.151 3.278,-6.226 0.256,-0.487 -0.16,-1.018 -0.692,-0.901 -3.387,0.746 -6.347,2.014 -8.612,4.717 -0.147,0.176 0.039,0.463 0.256,0.331 z"
   id="path90"
   inkscape:connector-curvature="0"
   style="fill:#9c9793" />
		</g>
	</g>
	<g
   id="g100">
		<g
   id="g98">
			<path
   d="m 91.932,26.194 c -2.954,-1.593 -5.877,-1.563 -9.087,-0.725 -0.491,0.128 -0.755,0.863 -0.321,1.215 1.48,1.201 2.964,2.398 4.447,3.595 0.178,-0.43 0.356,-0.859 0.534,-1.289 -9.609,0.775 -22.101,7.49 -23.786,18.031 -0.107,0.671 0.717,1.073 1.114,0.47 2.6,-3.947 4.384,-7.706 8.054,-10.921 4.008,-3.511 9.376,-5.506 14.618,-6.07 0.566,-0.061 1.112,-0.829 0.534,-1.289 -1.494,-1.187 -2.989,-2.373 -4.486,-3.556 -0.107,0.405 -0.214,0.81 -0.321,1.215 2.9,-0.835 5.556,-0.672 8.508,-0.221 0.261,0.042 0.461,-0.31 0.192,-0.455 z"
   id="path96"
   inkscape:connector-curvature="0"
   style="fill:#9c9793" />
		</g>
	</g>
	<g
   id="g106">
		<g
   id="g104">
			<path
   d="M 48.416,18.573 C 46.913,13.152 42.534,8.795 37.98,5.751 c -0.598,-0.4 -1.376,0.133 -1.386,0.796 -0.078,5.197 -0.326,11.324 2.424,15.958 0.519,0.874 2.034,0.297 1.678,-0.707 -1.815,-5.112 -2.31,-9.836 -2.259,-15.251 -0.462,0.265 -0.924,0.53 -1.386,0.796 4.636,3.061 7.559,7.074 10.813,11.464 0.193,0.262 0.649,0.118 0.552,-0.234 z"
   id="path102"
   inkscape:connector-curvature="0"
   style="fill:#913534" />
		</g>
	</g>
	<g
   id="g112">
		<g
   id="g110">
			<path
   d="m 57.773,16.284 c 0.193,-2.504 -0.039,-4.816 0.566,-7.31 0.587,-2.419 1.877,-4.624 3.214,-6.694 -0.5,0 -1,0 -1.5,0 1.276,2.318 2.274,4.705 3.034,7.24 0.68,2.269 0.808,4.663 1.536,6.898 0.276,0.846 1.385,0.625 1.477,-0.2 0.55,-4.939 -2.16,-10.631 -4.547,-14.814 -0.331,-0.581 -1.16,-0.544 -1.5,0 -2.62,4.197 -5.109,10.167 -2.917,15.054 0.152,0.338 0.614,0.129 0.637,-0.174 z"
   id="path108"
   inkscape:connector-curvature="0"
   style="fill:#913534" />
		</g>
	</g>
	<g
   id="g118">
		<g
   id="g116">
			<path
   d="m 109.248,92.126 c 10.868,4.158 18.237,14.877 21.443,25.703 1.793,6.054 1.491,11.955 -1.001,17.722 -2.123,4.915 -6.05,8.318 -9.028,12.602 -0.393,0.566 0.36,1.227 0.909,0.909 10.035,-5.826 13.545,-19.543 11.402,-30.137 -2.449,-12.106 -11.577,-24.219 -23.211,-28.666 -1.168,-0.448 -1.669,1.425 -0.514,1.867 z"
   id="path114"
   inkscape:connector-curvature="0"
   style="fill:#9c9793" />
		</g>
	</g>
	<g
   id="g124">
		<g
   id="g122">
			<path
   d="m 82.9,127.512 c -14.037,2.086 -28.261,7.843 -41.639,0.218 -5.918,-3.373 -10.073,-9.094 -12.211,-15.46 -2.397,-7.14 -0.397,-13.403 1.017,-20.396 0.203,-1.006 -1.032,-1.499 -1.614,-0.68 -8.26,11.627 -1.239,28.996 8.853,36.859 13.879,10.814 30.769,3.973 46.171,1.553 1.385,-0.217 0.789,-2.297 -0.577,-2.094 z"
   id="path120"
   inkscape:connector-curvature="0"
   style="fill:#913534" />
		</g>
	</g>
	<g
   id="g130">
		<g
   id="g128">
			<path
   d="m 121.598,148.387 c -2.401,-6.712 -7.389,-12.007 -13.223,-15.934 -7.642,-5.144 -16.275,-5.745 -25.187,-5.058 -1.685,0.13 -1.365,2.573 0.309,2.287 16.042,-2.742 29.606,5.269 37.415,18.995 0.207,0.362 0.832,0.117 0.686,-0.29 z"
   id="path126"
   inkscape:connector-curvature="0"
   style="fill:#9c9793" />
		</g>
	</g>
	<g
   id="g136">
		<g
   id="g134">
			<path
   d="m 109.524,90.77 c -3.891,0.057 -7.476,0.966 -11.107,2.356 -0.506,0.194 -0.819,1.051 -0.173,1.326 3.102,1.32 5.544,3.131 7.716,5.725 0.165,-0.399 0.331,-0.798 0.496,-1.197 -4.765,-0.307 -9.126,0.263 -13.608,1.926 -0.591,0.219 -0.738,0.981 -0.175,1.339 2.973,1.889 5.484,4.061 7.776,6.718 0.179,-0.431 0.357,-0.862 0.536,-1.294 -4.088,-0.323 -8.178,-0.637 -12.264,-0.989 -0.734,-0.063 -0.955,0.866 -0.551,1.33 2.491,2.861 4.577,5.878 6.379,9.207 0.308,-0.401 0.617,-0.802 0.925,-1.203 -4.416,-0.941 -8.738,-1.214 -13.248,-0.881 -0.659,0.049 -1.113,0.716 -0.763,1.33 1.489,2.614 3.151,4.853 5.259,6.991 0.211,-0.508 0.421,-1.016 0.632,-1.525 -3.498,-0.418 -6.434,0.053 -9.643,1.453 -0.624,0.272 -0.47,1.144 0,1.457 1.991,1.326 3.517,2.873 5.21,4.524 0.505,0.492 1.353,-0.141 0.982,-0.757 -1.347,-2.235 -3.183,-3.788 -5.34,-5.224 0,0.486 0,0.971 0,1.457 2.859,-1.248 5.465,-1.618 8.554,-1.156 0.856,0.128 1.521,-0.79 0.869,-1.493 -1.911,-2.061 -3.556,-4.213 -4.996,-6.62 -0.254,0.443 -0.509,0.887 -0.763,1.33 4.375,-0.451 8.491,-0.219 12.813,0.693 0.703,0.148 1.281,-0.549 0.925,-1.203 -1.877,-3.453 -4.071,-6.56 -6.691,-9.482 -0.184,0.443 -0.367,0.887 -0.551,1.33 4.09,0.293 8.176,0.624 12.264,0.946 0.715,0.056 0.928,-0.839 0.536,-1.294 -2.388,-2.769 -5,-4.995 -8.108,-6.911 -0.058,0.446 -0.117,0.893 -0.175,1.339 4.315,-1.668 8.605,-2.342 13.218,-1.937 0.496,0.044 0.921,-0.643 0.605,-1.055 -2.218,-2.894 -4.854,-4.874 -8.259,-6.201 0,0.466 0,0.933 0,1.399 3.517,-1.472 7.084,-2.32 10.819,-3.034 0.412,-0.078 0.308,-0.726 -0.099,-0.72 z"
   id="path132"
   inkscape:connector-curvature="0"
   style="fill:#9c9793" />
		</g>
	</g>
	<g
   id="g142">
		<g
   id="g140">
			<path
   d="m 58.543,96.061 c 5.43,-5.928 4.073,-21.321 -4.861,-23.651 -0.349,-0.091 -0.676,0.298 -0.476,0.62 2.076,3.338 4.959,5.408 6.33,9.338 1.649,4.726 0.133,9.056 -1.214,13.564 -0.038,0.125 0.131,0.228 0.221,0.129 z"
   id="path138"
   inkscape:connector-curvature="0"
   style="fill:#913534" />
		</g>
	</g>
	<g
   id="g148">
		<g
   id="g146">
			<path
   d="m 59.383,78.436 c -0.105,-4.485 -0.659,-8.93 -0.668,-13.428 -0.011,-5.1 1.398,-10.32 0.937,-15.349 -0.027,-0.291 -0.459,-0.49 -0.611,-0.166 -1.924,4.095 -1.775,9.133 -1.856,13.585 -0.092,5.069 0.335,10.555 1.892,15.399 0.052,0.164 0.311,0.14 0.306,-0.041 z"
   id="path144"
   inkscape:connector-curvature="0"
   style="fill:#913534" />
		</g>
	</g>
	<g
   id="g154">
		<g
   id="g152">
			<path
   d="m 64.634,47.314 c -0.127,-0.815 -1.04,-1.058 -1.734,-1.147 -1.007,-0.129 -2.058,0.443 -2.79,1.071 -1.597,1.371 -1.265,4.166 0.365,5.354 1.725,1.258 4.054,0.633 5.263,-1.003 0.655,-0.886 0.673,-2.141 0.418,-3.162 -0.195,-0.785 -1.014,-1.904 -1.95,-1.605 -0.116,0.037 -0.24,0.133 -0.262,0.262 -0.169,0.986 0.71,1.844 0.555,2.877 -0.186,1.24 -1.649,1.922 -2.764,1.438 -1.187,-0.516 -1.332,-2.173 -0.507,-3.043 0.418,-0.44 1.042,-0.676 1.622,-0.792 0.523,-0.104 1.001,0.097 1.513,0.105 0.199,0.005 0.299,-0.18 0.271,-0.355 z"
   id="path150"
   inkscape:connector-curvature="0"
   style="fill:#68635f" />
		</g>
	</g>
</g>
<g
   id="g158">
</g>
<g
   id="g160">
</g>
<g
   id="g162">
</g>
<g
   id="g164">
</g>
<g
   id="g166">
</g>
<g
   id="g168">
</g>
<g
   id="g1106"
   transform="translate(50.598936,-10.890983)"><path
     id="path982"
     d="m 53.57,73.045 c 0,-0.49 0,-0.965 0,-1.44 -0.015,-0.787 -0.074,-1.618 -0.223,-2.39 -0.713,0.059 -1.425,0.119 -2.138,0.178 -2.494,-0.149 -2.494,-0.149 -2.598,-0.119 -0.594,1.218 -1.277,2.197 -2.242,3.133 0,0.089 0,0.193 0,0.297 0.549,1.514 1.306,3.029 -0.015,4.35 -1.039,0.445 -1.975,-0.327 -2.613,-1.054 -0.535,-0.876 -0.832,-1.514 -0.935,-1.633 -0.609,0.074 -0.609,0.074 -0.772,0.148 -0.015,0.03 -0.03,0.074 -0.045,0.119 -0.015,0.03 -0.015,0.074 -0.015,0.119 -0.03,0 -0.045,0 -0.059,0 0,0.386 0,0.787 0,1.188 0.015,0 0.044,0 0.074,0 0.208,6.844 0.208,6.844 0.178,7.23 -0.401,1.425 -3.133,1.44 -4.276,1.514 -1.767,-0.134 -4.335,-0.757 -4.499,-2.851 0.148,-0.386 0.831,-1.618 0.594,-1.975 -1.767,-0.624 -1.945,-2.212 -0.757,-3.578 0.579,-0.475 1.158,-0.802 1.247,-1.559 0.044,0 0.044,0 0.044,-1.336 -0.03,0 -0.059,0 -0.074,0 -0.623,0.104 -1.173,-0.015 -1.692,-0.297 -0.579,-0.846 -0.089,-2.138 0.445,-2.895 0,-0.327 -0.327,-0.52 -0.609,-0.609 -0.059,0.267 -0.119,0.549 -0.178,0.832 -0.609,5.775 -0.609,5.775 -0.609,6.236 -0.03,0.134 -0.045,0.267 -0.059,0.401 0,0.356 0,0.713 0,1.084 0.015,0.148 0.03,0.297 0.059,0.445 0.074,1.915 0.267,3.83 0.312,5.746 -0.713,1.143 -1.5,1.366 -2.821,1.648 -0.534,0.044 -1.054,0.089 -1.574,0.148 -2.331,-0.312 -5.375,-1.01 -4.365,-4.053 0.208,-0.401 1.247,-1.915 1.039,-2.331 -1.841,-0.327 -2.658,-0.742 -1.975,-2.687 0.653,-1.01 1.292,-1.5 2.257,-2.212 0.46,-0.549 0.371,-1.381 0.356,-2.078 -0.46,-4.053 -1.41,-8.032 -2.272,-12.011 -0.208,-0.624 -0.401,-1.247 -0.594,-1.856 -1.975,-3.415 -1.975,-3.415 -2.776,-4.929 -1.455,-3.252 -2.465,-6.251 -3.073,-9.769 -0.06,-0.683 -0.119,-1.366 -0.178,-2.034 0,-0.638 0,-1.262 0,-1.885 0.134,-1.782 0.416,-3.37 0.965,-5.078 -0.594,0 -2.479,2.658 -2.806,3.088 -1.366,2.197 -2.316,4.439 -2.791,6.993 -0.045,0.727 -0.045,0.727 0,1.782 0.178,1.173 0.416,2.316 0.713,3.459 0.401,1.039 0.401,1.039 1.618,3.771 0.356,1.232 0.356,1.232 0.564,2.197 0.252,3.044 -0.653,5.182 -2.717,7.364 C 9.829,65.059 7.899,65.697 5.702,65.949 5.138,66.112 4.737,66.261 4.247,66.587 4.204,67.121 4.1,68.413 3.21,67.745 2.572,66.928 2.171,66.097 1.785,65.132 1.31,61.777 2.453,59.253 5.036,57.204 6.224,56.477 7.501,55.764 8.584,54.888 8.896,54.308 9,53.848 9.089,53.195 c 0,-0.401 0,-0.802 0,-1.188 -0.445,-2.39 -1.099,-4.84 -1.188,-7.275 0,-0.475 0,-0.95 0,-1.425 0.089,-2.242 0.906,-4.335 1.99,-6.295 1.128,-1.618 2.301,-3.192 3.652,-4.632 0.505,-0.46 1.024,-0.921 1.544,-1.366 0.668,-0.46 1.336,-0.906 2.019,-1.351 1.485,-0.757 2.925,-1.44 4.513,-1.96 0.46,-0.505 0.935,-0.995 1.41,-1.485 2.747,-2.583 5.924,-4.395 9.383,-5.865 0.742,-0.267 1.485,-0.534 2.227,-0.787 2.598,-0.594 2.598,-0.594 3.979,-0.831 4.706,-0.178 9.606,-0.728 14.297,-0.074 2.361,0.49 4.721,0.98 7.082,1.485 4.796,1.41 9.294,3.578 13.436,6.369 0.505,0.371 1.01,0.742 1.529,1.113 1.796,-0.564 3.444,-0.787 4.959,0.624 0.059,0 0.133,0.015 0.208,0.03 1.5,-0.935 4.439,-0.727 5.449,0.921 0.267,0 0.267,0 0.817,-0.149 2.004,-0.03 3.043,0.238 4.543,1.603 0.95,-0.638 1.232,-1.722 1.9,-2.628 2.093,-1.158 3.133,0.935 3.519,2.672 0,1.663 -0.802,3.192 -1.752,4.528 -0.623,0.638 -0.623,0.638 -0.668,0.742 2.153,0.995 2.732,2.717 3.652,4.81 0.104,0.95 -0.713,1.024 -1.455,1.396 -1.069,0.208 -1.069,0.208 -1.604,0.237 -1.128,-0.163 -2.168,-0.505 -3.252,-0.846 0.653,3.311 2.791,6.607 4.632,9.354 0.401,0.817 0.802,1.648 1.217,2.479 0.356,1.084 0.356,1.084 0.742,2.598 0,0.787 0,1.574 0,2.375 -0.698,3.489 -2.717,5.508 -5.642,7.364 -0.802,0.297 -1.589,0.594 -2.375,0.891 -1.693,0.297 -3.415,0.505 -5.122,0.668 -0.03,0 -0.044,0 -0.059,0 -0.416,0 -0.831,0 -1.232,0 -1.782,0 -3.534,-0.46 -5.167,-1.114 -1.039,-0.638 -2.108,-0.965 -3.192,-1.485 -1.039,-0.757 -1.945,-1.663 -2.761,-2.658 -0.341,0 -0.728,0.52 -0.965,0.742 -0.416,0.327 -1.381,0.861 -1.618,1.336 -0.965,13.763 -0.965,13.763 -0.965,14.535 -0.03,0 -0.059,0 -0.074,0 0,0.52 0,1.054 0,1.589 0.015,0 0.044,0 0.074,0 0.134,1.425 0.831,2.776 0.742,4.216 -0.861,2.613 -5.538,2.227 -7.572,1.782 -1.396,-1.054 -0.297,-3.756 0.208,-4.989 0,-0.698 -1.024,-1.128 -1.47,-1.618 -0.579,-1.767 1.188,-1.826 1.826,-3.103 0.015,-0.416 0.044,-0.817 0.074,-1.218 0,-0.505 0,-0.995 0,-1.485 -0.059,-2.049 -0.104,-4.098 -0.149,-6.132 -0.252,0.015 -0.252,0.015 -1.96,0.475 -0.341,2.465 -0.341,2.465 -0.579,4.677 -0.089,1.514 -0.163,3.029 -0.238,4.543 -0.015,0.341 -0.03,0.683 -0.045,1.039 0,0.713 0,1.425 0,2.138 0.045,0.757 0.119,1.5 0.312,2.227 0.282,0.475 0.564,0.95 0.846,1.425 0.148,1.188 0.074,1.871 -0.965,2.554 -2.286,0.876 -6.176,1.381 -8.092,-0.534 -1.113,-1.782 -0.03,-2.999 0.698,-4.736 0,-0.831 -0.609,-0.95 -1.292,-1.262 -1.975,-1.544 0.564,-3.415 1.737,-4.365 0.659,-0.945 0.644,-1.673 0.718,-2.831 z"
     inkscape:connector-curvature="0"
     style="clip-rule:evenodd;fill-rule:evenodd" /><path
     id="path984"
     d="m 55.604,86.734 c -1.188,-0.119 -2.257,-0.223 -3.222,-0.965 -1.054,-1.262 0.297,-2.955 0.817,-4.127 0.327,0 0.683,0.267 0.98,0.416 0.535,0.163 1.084,0.327 1.633,0.505 0.713,0.074 0.713,0.074 1.915,0.074 0.416,-0.163 0.831,-0.312 1.262,-0.46 0,0.846 0.965,1.648 1.188,2.42 0,0.208 0,0.416 0,0.638 -0.49,1.232 -2.138,1.321 -3.281,1.485 -0.431,-0.001 -0.861,-0.001 -1.292,0.014 z"
     inkscape:connector-curvature="0"
     style="clip-rule:evenodd;fill:#bb9a80;fill-rule:evenodd" /><path
     id="path986"
     d="m 64.542,81.701 c 0.297,0.045 0.297,0.045 1.336,0.059 0,-0.03 0,-0.045 0,-0.059 0.772,-0.208 1.41,-0.445 2.123,-0.817 0.386,1.306 0.742,2.168 0.787,3.459 -0.267,0.549 -0.98,0.831 -1.529,1.099 -1.574,0.401 -3.534,0.683 -5.018,-0.119 -0.49,-1.247 0.149,-2.673 0.668,-3.801 0.52,-0.073 1.113,0.12 1.633,0.179 z"
     inkscape:connector-curvature="0"
     style="clip-rule:evenodd;fill:#bb9a80;fill-rule:evenodd" /><path
     id="path988"
     d="m 27.692,85.338 c -1.381,-0.208 -3.964,-0.475 -3.801,-2.465 0.327,-0.935 0.831,-1.782 1.306,-2.643 0.46,0 1.039,0.505 1.485,0.713 0.46,0.119 0.935,0.238 1.411,0.356 0.594,0.015 0.594,0.015 1.396,-0.074 0.549,-0.223 1.069,-0.535 1.574,-0.861 0.03,0.045 0.074,0.089 0.119,0.148 0.059,1.069 0.119,2.153 0.193,3.237 -0.149,0.594 -0.149,0.594 -0.252,0.742 -0.966,0.684 -2.258,0.729 -3.431,0.847 z"
     inkscape:connector-curvature="0"
     style="clip-rule:evenodd;fill:#bb9a80;fill-rule:evenodd" /><path
     id="path990"
     d="m 37.164,83.883 c -0.089,-0.044 -0.163,-0.089 -0.238,-0.119 -0.995,-0.178 -2.316,-0.624 -2.747,-1.633 0.059,-0.653 0.416,-1.232 0.698,-1.826 0.134,-0.015 0.416,0.119 1.722,0.49 0.787,0.119 1.5,0.163 2.301,0.045 0.431,-0.193 0.876,-0.386 1.321,-0.579 0.98,-0.728 0.98,-0.728 1.084,-0.742 0.178,2.969 0.178,2.969 0.149,3.519 -1.068,0.92 -2.983,0.831 -4.29,0.845 z"
     inkscape:connector-curvature="0"
     style="clip-rule:evenodd;fill:#bb9a80;fill-rule:evenodd" /><path
     id="path992"
     d="m 31.003,76.905 c 0,0.356 0,0.713 0,1.084 0.059,1.678 0.059,1.678 0.03,1.782 -0.594,0.549 -1.069,0.92 -1.886,1.099 -0.401,0 -0.802,0 -1.188,0 -0.846,-0.223 -1.559,-0.52 -2.272,-1.054 -0.252,-0.297 -0.252,-0.297 -0.594,-0.594 -0.876,-0.49 -3.088,-0.193 -2.227,-1.752 0.609,-0.698 0.609,-0.698 1.307,-1.336 0.817,-0.549 0.817,-0.549 1.262,-0.921 0.713,-1.277 0.297,-3.251 0.104,-4.647 C 24.871,67.032 24.099,63.499 23.356,59.98 23,58.911 22.584,57.946 22.02,56.981 c -0.371,-0.549 0.104,-1.455 0.267,-2.004 0.163,-0.237 0.341,-0.475 0.52,-0.698 1.841,-1.292 5.582,-2.361 4.662,-5.33 -0.342,-0.683 -0.95,-1.188 -1.351,-1.826 0,-0.772 0.46,-1.277 0.891,-1.886 0.921,-0.787 2.123,-1.455 2.361,-2.702 0.015,0 0.044,0 0.074,0 0,-0.386 0,-0.772 0,-1.143 -0.03,0 -0.06,0 -0.074,0 -0.178,-0.817 -0.549,-1.485 -1.024,-2.182 -1.381,-1.292 -3.608,-2.375 -3.608,-4.514 0.059,-0.297 0.134,-0.594 0.208,-0.891 0.95,-2.257 3.266,-4.172 2.168,-6.829 -0.653,-0.742 -1.069,-1.173 -2.004,-1.485 -0.015,-0.045 -0.03,-0.074 -0.045,-0.104 0.475,-0.356 0.95,-0.713 1.425,-1.069 1.395,-0.846 1.395,-0.846 1.544,-0.98 0.149,-0.015 0.149,-0.015 0.371,-0.134 0.193,0.074 1.143,0.178 1.633,0.297 0.475,0.356 0.95,0.713 1.44,1.084 0.534,0.787 1.069,1.544 1.321,2.479 0,2.183 -1.173,4.113 -1.069,6.28 0.431,1.01 1.336,1.693 1.93,2.628 0.074,0.312 0.163,0.624 0.252,0.935 0,1.351 0,2.702 0,4.053 0.401,1.752 1.5,1.752 3.103,1.96 0.653,0.178 1.425,0.282 2.004,0.624 0.713,0.579 0.713,0.579 1.44,1.307 0.431,0.817 0.861,1.648 1.306,2.479 0.49,0.594 0.995,1.143 1.603,1.618 2.272,1.217 4.068,0.371 5.969,-1.069 0.906,-1.306 1.084,-2.865 1.084,-4.424 -0.148,-0.787 -0.282,-1.574 -0.416,-2.361 0,-1.366 -0.163,-2.732 0.742,-3.875 0.935,-0.638 1.678,-1.054 2.286,-2.049 0.238,-0.772 0.238,-0.772 0.297,-0.831 0.044,-0.891 0.044,-0.891 0,-2.687 0,-0.356 0,-0.698 0,-1.039 0.015,-0.668 0.044,-1.336 0.074,-2.004 0.401,-1.975 0.579,-2.999 2.346,-4.083 0.267,-0.089 0.297,-0.163 1.113,-0.534 0.594,-0.238 1.203,-0.475 1.811,-0.713 0.802,-0.49 2.197,-1.93 3.162,-1.782 0.995,0.342 0.995,0.342 1.084,0.431 0,0.015 0,0.045 0,0.074 -0.282,0.163 -1.381,0.668 -1.47,0.965 -0.074,0.015 -0.134,0.03 -0.193,0.045 -1.292,0.995 -3.237,2.539 -1.321,3.964 0.505,0.119 1.054,0.134 1.529,0.326 0.906,0.906 1.306,1.945 2.658,2.079 0.327,-0.015 0.921,0.015 1.114,-0.297 1.143,-0.431 1.604,-1.514 2.108,-2.539 0.193,-0.178 0.386,-0.356 0.594,-0.535 0.638,-0.119 1.247,-0.223 1.901,-0.238 0.371,-0.178 0.371,-0.178 0.505,-0.312 0.059,0 0.119,0 0.178,0 1.262,0.802 2.509,1.633 3.652,2.583 0.089,0.163 0.237,0.178 0.237,0.386 -0.267,0.312 -0.534,0.638 -0.802,0.965 -2.197,-1.217 -4.38,-0.742 -6.013,1.024 -0.549,1.01 -0.549,1.01 -1.203,2.45 -0.505,0 -1.99,-1.514 -2.435,-1.871 -0.802,-0.327 -0.935,-0.534 -1.514,0.341 -0.683,1.707 -0.98,3.222 0.341,4.707 0.312,0.223 1.663,1.01 1.707,1.143 -0.519,0.267 -1.039,0.535 -1.544,0.802 -0.371,0.341 -0.742,0.683 -1.099,1.039 -0.935,1.5 -1.826,2.895 -1.826,4.736 1.143,0.683 2.955,0.416 4.202,0.193 1.574,-0.52 3.237,-1.752 3.875,-3.311 0.727,3.296 0.727,3.296 1.084,4.647 0.534,4.068 0.534,4.068 1.099,7.884 0.238,2.613 0.535,5.048 1.618,7.453 0.015,0.134 0.03,0.267 0.044,0.416 -1.188,1.781 -3.548,2.954 -5.36,3.949 -1.321,0.594 -2.643,1.188 -3.964,1.782 -0.594,0.148 -1.811,0.683 -2.39,0.579 0.03,-0.594 0.059,-1.188 0.089,-1.767 -0.119,-0.015 -0.237,-0.03 -0.356,-0.03 -0.505,4.306 -0.995,8.522 -1.128,12.857 -0.015,0.549 -0.015,1.099 -0.015,1.648 0.015,0.52 0.03,1.054 0.045,1.589 -0.223,0.134 -0.431,0.267 -0.638,0.416 -1.707,0.416 -4.083,-0.178 -5.226,-1.514 -0.341,-0.223 -1.559,-0.757 -1.752,-0.906 -0.846,-1.529 0.876,-2.272 1.945,-2.999 0.624,-0.713 0.802,-1.069 1.039,-1.975 0.208,-2.658 0.03,-5.375 -0.297,-8.017 -0.074,-0.193 -0.149,-0.386 -0.208,-0.564 -0.089,0 -0.178,0 -0.267,0 -0.208,0.416 0.148,1.648 0.148,2.242 -3.177,0.638 -6.518,-0.074 -9.695,-0.416 -3.326,-0.698 -6.726,-0.95 -9.74,-2.643 0.104,-0.564 0.623,-0.965 0.802,-1.5 -0.044,-0.059 -0.089,-0.104 -0.119,-0.148 -0.074,0 -0.149,0 -0.223,0 -3.009,3.684 -3.188,8.762 -3.633,13.275 z"
     inkscape:connector-curvature="0"
     style="clip-rule:evenodd;fill:#ffffff;fill-rule:evenodd" /><path
     id="path994"
     d="m 63.399,75.614 c 0,-0.594 0,-1.173 0,-1.752 -0.03,-0.549 -0.059,-1.099 -0.074,-1.633 0.015,0 0.044,0 0.074,0 0,-0.416 0,-0.831 0,-1.232 -0.045,0 -0.074,0 -0.104,0 -0.015,-0.416 -0.015,-0.831 -0.015,-1.247 0,-0.698 0,-1.396 0.015,-2.079 0,-0.312 -0.03,-0.549 0.148,-0.802 0.341,-0.193 0.341,-0.193 3.86,-1.782 0.475,-0.282 0.965,-0.668 1.485,-0.787 0.045,0.134 0.045,0.134 0.015,2.91 -0.282,3.504 -0.564,7.008 -0.831,10.526 -0.03,0.817 -0.045,1.633 -0.06,2.465 -0.237,0.727 -1.544,0.95 -2.182,1.084 -0.876,0 -1.945,0.059 -2.702,-0.445 -0.431,-0.728 -1.024,-1.158 -1.678,-1.633 0,-0.861 0.713,-1.128 1.336,-1.574 0.624,-0.624 0.639,-1.188 0.713,-2.019 z"
     inkscape:connector-curvature="0"
     style="clip-rule:evenodd;fill:#fbefde;fill-rule:evenodd" /><path
     id="path996"
     d="m 35.234,74.263 c 0.03,0 0.059,0 0.104,0 0,-0.49 0,-0.965 0,-1.44 -0.03,0 -0.059,0 -0.074,0 -0.059,-0.074 -0.059,-0.074 -0.074,-0.238 0.624,0 1.396,0.579 1.989,0.831 0,0.535 -0.475,1.5 -0.638,2.064 0.015,0.134 0.015,0.134 -0.119,0.609 0,1.01 0.059,1.871 1.306,1.871 1.574,-0.638 1.782,-2.153 2.257,-3.712 0.208,-0.104 1.054,-0.163 1.232,0.015 0,1.054 0.045,2.108 0.134,3.163 -0.03,0 -0.059,0 -0.074,0 0,0.475 0,0.95 0,1.44 0.015,0 0.044,0 0.074,0 -0.208,0.104 -0.297,0.223 -0.445,0.401 -0.638,0.475 -0.638,0.475 -0.668,0.549 -0.445,0.208 -0.891,0.416 -1.321,0.624 -1.396,0.267 -3.355,-0.119 -4.38,-1.143 -1.396,-0.49 -1.811,-1.024 -0.891,-2.316 0.371,-0.386 0.831,-0.728 1.217,-1.114 0.267,-0.58 0.312,-0.966 0.371,-1.604 z"
     inkscape:connector-curvature="0"
     style="clip-rule:evenodd;fill:#fbefde;fill-rule:evenodd" /><path
     id="path998"
     d="m 37.535,77.603 c -0.178,-0.119 -0.356,-0.238 -0.519,-0.356 -0.475,-0.772 0.134,-2.836 0.683,-3.519 0.609,0.074 1.306,0.104 1.871,0.341 0,0.787 -0.416,1.693 -0.638,2.435 -0.372,0.594 -0.758,0.802 -1.397,1.099 z"
     inkscape:connector-curvature="0"
     style="clip-rule:evenodd;fill:#f7cac9;fill-rule:evenodd" /><path
     id="path1000"
     d="m 45.657,76.415 c -1.069,-0.356 -1.44,-1.232 -1.96,-2.182 -0.045,-0.163 -0.089,-0.312 -0.134,-0.46 0.104,-0.223 1.752,-0.995 2.049,-0.92 0.282,0.667 1.633,3.414 0.045,3.562 z"
     inkscape:connector-curvature="0"
     style="clip-rule:evenodd;fill:#f7cac9;fill-rule:evenodd" /><path
     id="path1002"
     d="m 40.876,73.743 c -0.787,-0.104 -1.559,-0.208 -2.331,-0.312 -0.921,-0.297 -1.797,-0.698 -2.643,-1.173 -0.015,-0.045 -0.03,-0.089 -0.03,-0.119 0.371,-0.401 0.713,-0.772 1.173,-1.084 0.49,-0.98 -0.52,-2.301 -1.559,-2.301 -0.356,0.208 -1.336,0.95 -1.678,0.95 -0.445,-0.505 -0.95,-0.98 -0.95,-1.707 0.341,-0.921 0.341,-0.921 1.024,-2.361 0.193,0.074 0.52,0.356 1.262,0.742 2.836,0.98 5.909,1.396 8.864,1.975 1.247,0.134 2.702,0.163 3.89,0.52 -0.059,0.356 -0.119,0.416 -0.193,0.727 -1.603,2.629 -3.8,3.876 -6.829,4.143 z"
     inkscape:connector-curvature="0"
     style="clip-rule:evenodd;fill:#f7cac9;fill-rule:evenodd" /><path
     id="path1004"
     d="m 33.408,72.644 c -1.128,-1.351 1.084,-2.851 2.108,-3.489 0.935,0 1.306,0.683 1.306,1.485 -0.802,0.802 -1.574,1.529 -2.658,1.975 -0.251,0 -0.504,0.015 -0.756,0.029 z"
     inkscape:connector-curvature="0"
     style="clip-rule:evenodd;fill:#f7cac9;fill-rule:evenodd" /><path
     id="path1006"
     d="m 8.584,44.985 c 0,-0.609 0,-1.218 0,-1.826 0.475,-4.796 3.534,-8.819 7.201,-11.759 1.366,-0.935 2.583,-1.648 4.083,-2.331 1.321,-0.475 1.321,-0.475 1.396,-0.445 -0.95,1.277 -1.811,2.583 -2.658,3.934 -0.312,0.624 -0.327,0.935 -0.92,1.128 -1.425,1.143 -2.628,2.435 -3.771,3.875 -1.811,2.984 -3.281,6.043 -3.133,9.621 0.208,1.307 0.282,2.984 0.98,4.142 0.015,0.104 0.03,0.223 0.059,0.341 1.01,2.168 2.227,4.617 1.886,7.097 -0.134,0.535 -0.267,1.069 -0.401,1.618 -0.267,0.49 -0.534,0.98 -0.787,1.485 -1.336,1.648 -2.554,2.375 -4.573,2.939 -1.366,0.208 -2.643,0.416 -3.92,0.921 -0.015,-0.044 -0.015,-0.089 -0.015,-0.134 0.817,-1.01 1.678,-1.01 2.895,-1.084 0,-0.045 0,-0.089 0,-0.134 -0.802,-0.149 -1.47,-0.119 -2.272,0.059 0.356,-0.727 1.128,-1.128 1.782,-1.559 -0.46,-0.46 -2.123,1.44 -2.316,1.648 -0.342,0.683 -0.564,1.262 -0.713,1.989 -0.045,0 -0.089,0.015 -0.134,0.03 -0.327,-0.594 -0.594,-1.203 -0.832,-1.841 -0.148,-2.019 0.282,-3.875 1.5,-5.493 1.396,-1.5 3.177,-2.39 4.84,-3.548 0.906,-0.802 0.965,-1.796 1.054,-2.94 -0.221,-2.596 -0.934,-5.15 -1.231,-7.733 z"
     inkscape:connector-curvature="0"
     style="clip-rule:evenodd;fill:#f3c781;fill-rule:evenodd" /><path
     id="path1008"
     d="m 75.009,60.99 c -0.015,-0.46 -0.03,-0.92 -0.03,-1.381 -0.015,-0.134 -0.015,-0.267 -0.015,-0.401 0.564,0.059 0.92,0.535 1.455,0.638 0.119,-0.119 0.163,-0.163 0.163,-0.341 -0.223,-0.148 -0.445,-0.297 -0.668,-0.445 -1.024,-0.431 -2.613,-0.148 -2.613,1.247 0.282,0.282 0.787,-0.802 1.113,-0.906 0.06,0.193 0.06,0.193 0.149,2.168 0.282,0.742 0.638,1.44 1.025,2.138 0.312,0.341 0.312,0.341 0.341,0.46 -1.202,-0.535 -2.153,-1.663 -2.999,-2.643 -0.341,-0.683 -0.683,-1.351 -1.024,-2.019 -0.267,-1.039 -0.535,-2.064 -0.787,-3.088 -0.312,-2.954 -0.312,-2.954 -0.297,-3.355 1.47,-1.47 3.875,-2.539 5.82,-3.252 2.331,-0.431 4.751,-1.009 7.141,-1.009 0.52,0 1.054,0 1.589,0 0.891,-0.03 1.781,-0.044 2.672,-0.059 0.386,0 0.787,0 1.188,0 1.648,0.193 3.251,0.475 4.87,0.876 1.366,2.093 2.583,4.291 3.014,6.785 -0.015,0.668 -0.03,1.351 -0.03,2.034 -0.653,3.103 -2.717,5.434 -5.582,6.859 -0.549,0.193 -1.099,0.386 -1.648,0.594 -1.396,0.237 -2.806,0.46 -4.202,0.638 -0.95,0 -1.9,0 -2.836,0 -0.846,-0.119 -1.885,-0.238 -2.717,-0.445 -0.49,-0.238 -0.49,-0.238 -1.143,-0.445 -1.841,-1.13 -3.756,-2.303 -3.949,-4.648 z"
     inkscape:connector-curvature="0"
     style="clip-rule:evenodd;fill:#f7cac9;fill-rule:evenodd" /><path
     id="path1010"
     d="m 55.233,41.674 c 0.356,0 0.713,0 1.084,0 1.232,0.074 1.574,0.535 1.485,1.797 -0.178,0.772 -0.178,0.772 -0.282,1.544 0.371,1.173 0.549,1.485 1.544,2.123 1.188,0.445 2.093,0.623 1.989,2.093 -0.193,0.668 -0.564,1.559 -0.609,1.856 0.223,0.757 0.223,0.757 0.401,1.113 0.861,0.861 1.93,1.5 2.257,2.702 0,1.292 -0.193,1.841 -0.995,2.865 -0.965,0.698 -1.96,0.876 -3.133,0.965 -0.846,-0.178 -1.618,-0.505 -2.361,-0.98 -0.312,-0.089 -0.624,-0.178 -0.935,-0.252 -0.475,0.059 -0.935,0.134 -1.396,0.208 -1.351,0.475 -2.301,1.143 -3.266,-0.119 -1.351,-2.435 0.787,-4.439 2.197,-6.28 0.52,-0.252 0.49,-1.544 0.475,-2.019 -0.282,-0.995 -0.876,-1.782 -1.277,-2.702 -0.222,-2.123 0.55,-4.35 2.822,-4.914 z"
     inkscape:connector-curvature="0"
     style="clip-rule:evenodd;fill:#933d29;fill-rule:evenodd" /><path
     id="path1012"
     d="m 25.064,25.387 c 0.015,0.03 0.03,0.059 0.045,0.104 0.935,0.312 1.351,0.742 2.004,1.485 1.099,2.658 -1.217,4.573 -2.168,6.829 -0.074,0.297 -0.149,0.594 -0.208,0.891 0,2.138 2.227,3.222 3.608,4.514 0.475,0.698 0.846,1.366 1.024,2.182 0,0.371 0,0.757 0,1.143 -0.237,1.247 -1.44,1.915 -2.361,2.702 -0.431,0.609 -0.891,1.114 -0.891,1.886 0.401,0.638 1.009,1.143 1.351,1.826 0.92,2.969 -2.821,4.038 -4.662,5.33 -0.178,0.223 -0.356,0.46 -0.52,0.698 -0.163,0.549 -0.638,1.455 -0.267,2.004 -0.416,0 -0.579,-0.698 -0.653,-0.995 -0.891,-1.485 -0.891,-1.485 -1.01,-1.603 -0.519,-1.143 -1.039,-2.286 -1.559,-3.415 -0.401,-1.292 -0.802,-2.583 -1.203,-3.86 -0.208,-1.114 -0.416,-2.227 -0.609,-3.326 -0.148,-2.182 -0.178,-4.276 0.223,-6.429 0.223,-0.787 0.46,-1.574 0.698,-2.346 1.546,-3.667 3.907,-7.23 7.158,-9.62 z"
     inkscape:connector-curvature="0"
     style="clip-rule:evenodd;fill:#933d29;fill-rule:evenodd" /><path
     id="path1014"
     d="m 75.469,56.565 c -0.653,-0.208 -1.158,-0.564 -1.039,-1.321 0.564,-0.92 2.895,-2.999 3.459,-1.099 0,0.98 -0.609,2.049 -1.589,2.375 -0.281,0.015 -0.563,0.03 -0.831,0.045 z"
     inkscape:connector-curvature="0"
     style="clip-rule:evenodd;fill-rule:evenodd" /><path
     id="path1016"
     d="m 75.455,56.12 c -1.544,-0.772 0.52,-2.064 1.499,-2.153 0.074,-0.074 0.148,-0.134 0.223,-0.193 0.817,0.609 -0.089,2.123 -0.891,2.316 -0.282,0 -0.564,0.015 -0.831,0.03 z"
     inkscape:connector-curvature="0"
     style="clip-rule:evenodd;fill:#db9995;fill-rule:evenodd" /><path
     id="path1018"
     d="m 72.827,55.496 c -0.772,-0.386 0.342,-1.989 0.609,-2.42 0.757,-0.698 0.757,-0.698 1.143,-0.98 1.351,-0.416 2.643,-0.475 3.92,0.282 -0.03,0.074 -0.045,0.149 -0.059,0.238 -0.119,0.059 -0.119,0.059 -0.416,0.059 -1.915,-0.638 -2.895,-0.757 -4.335,0.757 -0.312,0.46 -0.312,0.46 -0.549,0.98 -0.061,0.342 -0.105,0.817 -0.313,1.084 z"
     inkscape:connector-curvature="0"
     style="clip-rule:evenodd;fill-rule:evenodd" /><path
     id="path1020"
     d="m 90.97,54.739 c -0.683,-0.312 -1.099,-0.549 -1.099,-1.336 0.505,-0.92 1.114,-1.128 2.108,-1.128 1.752,0.341 1.811,1.737 0.238,2.435 -0.416,-10e-4 -0.832,0.014 -1.247,0.029 z"
     inkscape:connector-curvature="0"
     style="clip-rule:evenodd;fill-rule:evenodd" /><path
     id="path1022"
     d="m 91.281,54.338 c -0.564,-0.193 -0.846,-0.327 -0.92,-0.935 0.891,-1.01 1.618,-0.861 2.613,-0.119 0,1.054 -0.846,1.024 -1.693,1.054 z"
     inkscape:connector-curvature="0"
     style="clip-rule:evenodd;fill:#db9995;fill-rule:evenodd" /><path
     id="path1024"
     d="m 35.902,50.775 c 0,0.43 0,0.861 0,1.292 -0.03,0.06 -0.059,0.119 -0.089,0.178 -1.262,0.95 -3.578,1.321 -4.395,-0.327 0,-0.906 0.237,-1.648 0.386,-2.539 0,-1.128 -0.52,-1.96 -1.025,-2.94 0.193,-1.96 2.821,-1.782 4.231,-1.589 0.98,0.401 1.559,0.965 2.019,1.9 0,1.084 -0.757,1.559 -1.203,2.465 0.017,1.055 0.017,1.055 0.076,1.56 z"
     inkscape:connector-curvature="0"
     style="clip-rule:evenodd;fill:#933d29;fill-rule:evenodd" /><path
     id="path1026"
     d="m 93.761,52.556 c -0.95,-1.113 -1.856,-1.856 -3.341,-1.514 -0.431,0.282 -0.831,0.579 -1.217,0.935 -0.059,-0.03 -0.119,-0.044 -0.178,-0.059 -0.148,-0.594 0.846,-1.025 1.262,-1.307 1.663,-0.475 2.836,0.297 3.637,1.722 -0.015,0.06 -0.03,0.119 -0.045,0.193 -0.044,10e-4 -0.089,0.016 -0.118,0.03 z"
     inkscape:connector-curvature="0"
     style="clip-rule:evenodd;fill-rule:evenodd" /><path
     id="path1028"
     d="m 90.094,37.903 c 0,0.356 0,0.727 0,1.099 0.03,0.624 0.015,0.921 0.178,1.485 0.267,1.781 0.802,3.296 1.485,4.988 0.623,1.129 1.247,2.272 1.885,3.415 -0.089,0.015 -0.163,0.03 -0.237,0.045 -1.693,-0.267 -3.37,-0.535 -5.093,-0.639 0.06,-0.267 0.356,-0.416 0.549,-0.594 0.223,-0.401 0.46,-0.802 0.698,-1.188 0.074,-0.341 0.163,-0.757 0.297,-1.084 0.104,-1.455 0.193,-3.415 -0.579,-4.736 -0.297,-0.386 -0.594,-0.757 -0.876,-1.128 -1.173,-0.921 -1.93,-1.603 -3.474,-1.529 -0.193,0.089 -0.193,0.089 -0.787,0.193 -1.069,0.475 -1.559,1.158 -2.153,2.123 -0.386,0.802 -0.386,0.802 -0.475,0.876 -0.134,-0.267 -0.252,-0.52 -0.371,-0.772 -1.262,-2.034 -2.865,-3.029 -5.285,-2.168 -3.148,1.886 -4.053,5.909 -2.806,9.175 0.846,1.188 1.618,1.722 3.014,2.019 -0.044,0.045 -0.089,0.104 -0.119,0.163 -1.796,0.802 -3.548,1.737 -5.196,2.836 -0.03,-0.06 -0.059,-0.104 -0.089,-0.149 -0.252,-1.796 -0.549,-3.489 -0.713,-5.285 -0.342,-1.782 -0.742,-3.548 -1.158,-5.315 -0.03,-0.683 -0.252,-1.47 -0.624,-2.034 -0.015,-0.06 -0.015,-0.119 -0.015,-0.163 0.371,0.104 0.742,0.223 1.128,0.342 1.589,0 2.702,-0.475 3.474,-1.9 0.549,-0.059 1.114,-0.119 1.678,-0.163 0,-0.044 0,-0.074 0,-0.104 0.653,-0.267 1.158,-0.787 1.707,-1.232 0.95,0.312 1.589,0.431 2.598,0.297 0.772,-0.341 0.772,-0.341 0.906,-0.341 0.98,0.46 1.381,0.475 2.494,0.445 1.113,-0.282 1.113,-0.282 1.307,-0.282 0.341,0.193 0.683,0.386 1.039,0.579 1.128,0.119 1.871,-0.015 2.851,-0.668 0.267,0 0.52,0.401 0.683,0.579 0.713,0.297 1.292,0.282 2.064,0.327 0,0.161 0,0.324 0.015,0.488 z"
     inkscape:connector-curvature="0"
     style="clip-rule:evenodd;fill:#f3c781;fill-rule:evenodd" /><path
     id="path1030"
     d="m 28.034,23.338 c 0.015,-0.059 0.03,-0.104 0.059,-0.149 1.603,-0.802 3.207,-1.603 4.855,-2.301 2.197,-0.742 4.291,-1.173 6.577,-1.529 1.277,-0.074 2.554,-0.148 3.831,-0.208 0.579,-0.015 1.158,-0.03 1.737,-0.03 0.015,-0.015 0.03,-0.015 0.045,-0.015 0.92,-0.015 1.841,-0.03 2.776,-0.03 1.945,0.015 3.801,0.148 5.716,0.401 6.607,1.425 6.607,1.425 7.394,1.633 0.237,0.163 0.594,0.163 0.816,0.386 -0.965,-0.148 -2.361,1.292 -3.162,1.782 -0.609,0.237 -1.217,0.475 -1.811,0.713 -0.817,0.371 -0.846,0.445 -1.113,0.534 -1.767,1.084 -1.945,2.108 -2.346,4.083 -0.03,0.668 -0.059,1.336 -0.074,2.004 -0.03,0 -0.059,0 -0.074,0 0,0.341 0,0.683 0,1.039 0.015,0 0.044,0 0.074,0 0.044,1.797 0.044,1.797 0,2.687 -0.059,0.059 -0.059,0.059 -0.297,0.831 -0.609,0.995 -1.351,1.41 -2.286,2.049 -0.906,1.143 -0.742,2.509 -0.742,3.875 0.134,0.787 0.267,1.574 0.416,2.361 0,1.559 -0.178,3.118 -1.084,4.424 -1.9,1.44 -3.697,2.286 -5.969,1.069 -0.609,-0.475 -1.113,-1.024 -1.603,-1.618 -0.445,-0.832 -0.876,-1.663 -1.306,-2.479 -0.728,-0.728 -0.728,-0.728 -1.44,-1.307 -0.579,-0.341 -1.351,-0.445 -2.004,-0.624 -1.604,-0.208 -2.702,-0.208 -3.103,-1.96 0,-1.351 0,-2.702 0,-4.053 -0.089,-0.312 -0.178,-0.624 -0.252,-0.935 -0.594,-0.935 -1.5,-1.618 -1.93,-2.628 -0.104,-2.168 1.069,-4.098 1.069,-6.28 -0.252,-0.935 -0.787,-1.693 -1.321,-2.479 -0.49,-0.371 -0.965,-0.728 -1.44,-1.084 -0.49,-0.119 -1.44,-0.223 -1.633,-0.297 -0.227,0.12 -0.227,0.12 -0.375,0.135 z"
     inkscape:connector-curvature="0"
     style="clip-rule:evenodd;fill:#933d29;fill-rule:evenodd" /><path
     id="path1032"
     d="m 76.687,49.112 c -4.083,-0.579 -4.276,-4.41 -3.103,-7.676 0.312,-0.594 0.683,-1.128 1.069,-1.678 0.594,-0.594 0.594,-0.594 0.653,-0.713 1.143,-0.534 1.678,-0.683 2.91,-0.638 0,0.044 0,0.089 0,0.148 -1.514,0.371 -2.301,2.183 -2.39,3.593 0.178,1.678 0.698,2.375 2.242,3.148 0.846,0 1.47,0.059 2.123,-0.52 0.653,-0.772 0.757,-0.98 0.861,-1.024 -0.089,1.158 -0.356,2.034 -0.831,3.088 -0.297,0.386 -0.594,0.772 -0.891,1.158 -0.401,0.341 -0.401,0.341 -0.46,0.475 -0.728,0.401 -1.367,0.595 -2.183,0.639 z"
     inkscape:connector-curvature="0"
     style="clip-rule:evenodd;fill:#ffffff;fill-rule:evenodd" /><path
     id="path1034"
     d="m 79.33,48.845 c -0.06,-0.045 -0.119,-0.074 -0.163,-0.104 0.861,-0.935 1.485,-1.826 1.945,-3.014 0.193,-0.817 0.193,-0.817 0.282,-0.98 0.327,0.802 0.668,1.455 1.173,2.153 0.356,0.327 1.292,0.95 1.425,1.381 -1.559,0.148 -3.118,0.341 -4.662,0.564 z"
     inkscape:connector-curvature="0"
     style="clip-rule:evenodd;fill:#f3c781;fill-rule:evenodd" /><path
     id="path1036"
     d="m 86.085,48.281 c -0.282,-0.03 -0.564,-0.059 -0.832,-0.089 -1.96,-0.817 -3.029,-2.272 -3.534,-4.291 0.03,0 0.074,0 0.119,0.015 0.92,0.92 1.945,1.217 3.222,0.98 0.831,-0.505 1.47,-1.217 1.678,-2.197 0,-1.351 0.089,-2.301 -0.831,-3.385 -0.238,-0.193 -0.98,-0.594 -1.054,-0.817 0.312,-0.015 0.624,-0.03 0.935,-0.03 1.217,0.297 2.286,1.307 3.029,2.286 0.817,2.004 1.128,4.142 0.134,6.147 -0.282,0.312 -0.564,0.638 -0.846,0.965 -0.669,0.327 -1.278,0.356 -2.02,0.416 z"
     inkscape:connector-curvature="0"
     style="clip-rule:evenodd;fill:#ffffff;fill-rule:evenodd" /><path
     id="path1038"
     d="m 62.063,43.693 c -0.386,-0.06 -0.772,-0.104 -1.158,-0.149 0,-0.594 1.351,-1.945 1.797,-2.479 0.98,-0.831 2.999,-2.539 4.41,-2.375 0.193,0.163 0.386,0.327 0.579,0.49 0.089,0.624 0.134,1.128 -0.089,1.722 -0.653,0.787 -0.653,0.787 -1.247,1.381 -0.772,0.49 -1.485,0.891 -2.346,1.203 -0.818,0.118 -0.818,0.118 -1.946,0.207 z"
     inkscape:connector-curvature="0"
     style="clip-rule:evenodd;fill:#f7cac9;fill-rule:evenodd" /><path
     id="path1040"
     d="m 60.548,43.055 c 0.223,-2.182 1.574,-4.187 3.519,-5.226 0.757,-0.223 2.39,-0.609 2.672,0.431 -0.92,0 -2.094,0.876 -2.851,1.306 -1.35,1.024 -2.286,2.152 -3.34,3.489 z"
     inkscape:connector-curvature="0"
     style="clip-rule:evenodd;fill:#f3c781;fill-rule:evenodd" /><path
     id="path1042"
     d="m 79.137,42.802 c -1.841,-0.445 -2.123,-2.925 -0.193,-3.474 1.5,0.193 1.796,1.069 1.856,2.435 -0.401,0.802 -0.788,0.95 -1.663,1.039 z"
     inkscape:connector-curvature="0"
     style="clip-rule:evenodd;fill:#ffffff;fill-rule:evenodd" /><path
     id="path1044"
     d="m 83.442,42.758 c -2.851,-0.713 -0.757,-4.424 1.128,-2.776 0.609,0.906 0.49,2.286 -0.638,2.717 -0.163,0.014 -0.327,0.029 -0.49,0.059 z"
     inkscape:connector-curvature="0"
     style="clip-rule:evenodd;fill:#ffffff;fill-rule:evenodd" /><path
     id="path1046"
     d="m 90.539,38.794 c 0,-0.431 0,-0.861 0,-1.277 0,-0.03 0,-0.06 0.015,-0.089 2.242,0 4.246,2.212 5.761,3.578 -0.178,0.742 -2.257,0.505 -2.806,0.386 -1.039,-0.327 -2.286,-0.579 -2.895,-1.559 -0.03,-0.357 -0.06,-0.698 -0.075,-1.039 z"
     inkscape:connector-curvature="0"
     style="clip-rule:evenodd;fill:#f7cac9;fill-rule:evenodd" /><path
     id="path1048"
     d="M 96.359,40.382 C 96.24,40.219 96.24,40.219 93.731,38.17 92.989,37.739 92.647,37.487 92.098,37.205 91.742,37.101 91.385,37.012 91.044,36.923 91.029,36.878 91.014,36.849 91,36.819 c 2.286,-0.876 3.489,0.163 4.87,1.915 0.252,0.549 0.49,1.069 0.594,1.648 -0.046,0 -0.075,0 -0.105,0 z"
     inkscape:connector-curvature="0"
     style="clip-rule:evenodd;fill:#f3c781;fill-rule:evenodd" /><path
     id="path1050"
     d="m 82.254,36.477 c 0,-0.03 0,-0.045 0,-0.059 -0.431,0 -0.846,0 -1.262,0 0,0.015 0,0.03 0,0.059 -0.401,-0.134 -0.401,-0.134 -0.98,-0.431 0.104,-0.416 0.802,-1.099 0.594,-1.514 -0.089,0 -0.178,0 -0.252,0 -0.549,1.158 -1.024,1.574 -2.272,1.9 -0.549,-0.074 -1.114,-0.134 -1.603,-0.401 0,-0.431 0.282,-0.861 0.282,-1.277 -0.074,-0.074 -0.074,-0.074 -0.282,-0.074 -0.534,1.262 -1.069,2.361 -2.524,2.747 -0.297,0 -0.594,0 -0.876,0 0.059,-0.341 0.757,-1.767 0.059,-1.767 -0.074,0.401 -0.148,0.802 -0.208,1.203 -0.475,0.846 -0.653,1.262 -0.891,1.633 -0.92,0.594 -1.618,0.906 -2.747,0.906 -0.728,-0.252 -1.975,-0.787 -2.138,-1.633 0.327,0 1.247,0.238 1.5,0.044 0.653,-1.574 0.861,-3.192 0.341,-4.84 -0.134,-0.015 -0.267,-0.059 -0.386,0.015 0.015,0.237 0.03,0.49 0.059,0.742 C 68,33.7 67.436,33.611 66.871,33.255 c 0,-0.98 0.728,-2.093 1.321,-2.85 1.292,-1.247 2.672,-1.307 4.365,-1.024 0.965,0.534 2.123,1.633 2.554,2.658 0.059,-0.015 0.134,-0.015 0.208,-0.015 0.074,-0.624 -1.039,-1.841 -1.336,-2.212 0,-0.297 0.297,-0.564 0.445,-0.802 1.41,-1.024 3.34,-1.574 4.796,-0.267 0.757,0.935 1.069,1.633 1.381,2.806 0.059,0 0.134,0 0.208,0 -0.03,-0.832 -0.163,-1.41 -0.594,-2.123 0,-0.06 0,-0.119 0.015,-0.163 0.831,-0.772 1.351,-0.742 2.465,-0.742 1.247,0.431 1.693,0.475 2.479,1.5 0.802,1.351 0.802,1.351 0.906,1.425 0.312,-0.149 -0.163,-0.95 -0.252,-1.173 0.193,-0.802 2.286,-0.312 2.732,-0.267 0.965,0.386 1.529,0.965 2.153,1.782 0.505,1.351 1.158,3.37 -0.03,4.558 -0.237,0.713 -1.425,0.668 -2.004,0.549 -0.341,-0.208 -0.683,-0.416 -1.01,-0.624 0.148,-0.564 0.727,-0.98 0.653,-1.589 -0.074,-0.015 -0.149,-0.03 -0.208,-0.044 -0.98,1.485 -1.99,2.539 -3.86,1.826 -0.134,-0.104 -0.267,-0.193 -0.386,-0.282 0,-0.386 0.549,-0.95 0.742,-1.351 0.03,-0.178 0.074,-0.356 0.119,-0.534 -0.208,0.015 -0.208,0.015 -0.297,0.074 -0.578,1.126 -0.92,1.809 -2.182,2.106 z"
     inkscape:connector-curvature="0"
     style="clip-rule:evenodd;fill:#c24629;fill-rule:evenodd" /><path
     id="path1052"
     d="m 67.363,37.264 c -1.871,-0.163 -3.949,-0.728 -4.914,-2.479 -0.238,-1.203 -0.267,-2.747 0.742,-3.608 0.163,0.104 0.163,0.104 0.668,0.282 1.5,1.381 2.702,2.613 4.825,2.851 0.03,-0.03 0.059,-0.045 0.089,-0.06 0.371,0.549 0.015,2.435 -0.371,2.969 -0.356,0.016 -0.698,0.03 -1.039,0.045 z"
     inkscape:connector-curvature="0"
     style="clip-rule:evenodd;fill:#feeea2;fill-rule:evenodd" /><path
     id="path1054"
     d="m 80.992,36.477 c 0,-0.03 0,-0.045 0,-0.059 0.416,0 0.832,0 1.262,0 0,0.015 0,0.03 0,0.059 -0.43,0 -0.846,0 -1.262,0 z"
     inkscape:connector-curvature="0"
     style="clip-rule:evenodd;fill:#7e4835;fill-rule:evenodd" /><path
     id="path1056"
     d="m 91.682,35.408 c 0.015,0 0.045,0 0.074,0 0,-0.757 0,-1.514 0,-2.272 -0.03,0 -0.059,0 -0.074,0 -0.178,-0.534 -0.431,-1.084 -0.505,-1.648 0.995,-0.728 1.307,-1.455 1.9,-2.554 1.203,-1.411 2.272,0.609 2.539,1.693 0,2.168 -1.143,4.053 -2.94,5.167 -0.416,0.119 -0.832,0.252 -1.247,0.386 0.075,-0.282 0.209,-0.504 0.253,-0.772 z"
     inkscape:connector-curvature="0"
     style="clip-rule:evenodd;fill:#feeea2;fill-rule:evenodd" /><path
     id="path1058"
     d="m 62.924,22.002 c 0,-0.03 0,-0.059 0,-0.074 0.906,0.178 2.049,0.757 2.925,1.054 3.355,1.707 3.504,1.826 4.603,2.346 0.015,0.045 0.045,0.089 0.074,0.134 -0.06,0 -0.119,0 -0.178,0 -0.119,-0.178 -0.579,-0.341 -0.698,-0.089 -1.099,0.059 -2.004,0.238 -2.717,1.113 -0.386,1.024 -0.386,1.024 -0.549,1.322 -1.024,1.024 -2.093,1.589 -3.4,0.713 -0.267,-0.46 -0.609,-0.98 -1.069,-1.262 -0.134,-0.163 -0.341,-0.252 -0.445,-0.386 -0.282,-0.089 -0.282,-0.089 -1.262,-0.223 -1.826,-1.099 0.564,-2.999 1.589,-3.504 0.341,-0.46 1.128,-0.445 1.455,-0.935 -0.12,-0.076 -0.224,-0.15 -0.328,-0.209 z"
     inkscape:connector-curvature="0"
     style="clip-rule:evenodd;fill:#933d29;fill-rule:evenodd" /></g></svg>