<?xml version="1.0" encoding="utf-8"?>
<!-- Generator: Adobe Illustrator 17.0.0, SVG Export Plug-In . SVG Version: 6.00 Build 0)  -->
<!DOCTYPE svg PUBLIC "-//W3C//DTD SVG 1.1//EN" "http://www.w3.org/Graphics/SVG/1.1/DTD/svg11.dtd">
<svg version="1.1" id="Слой_1" xmlns="http://www.w3.org/2000/svg" xmlns:xlink="http://www.w3.org/1999/xlink" x="0px" y="0px"
	 width="150px" height="150px" viewBox="0 0 150 150" enable-background="new 0 0 150 150" xml:space="preserve">
<g>
	<circle fill="#4EB68E" cx="81.047" cy="59.02" r="2.161"/>
	<circle fill="#4EB68E" cx="84.273" cy="62.099" r="2.161"/>
	<circle fill="#4EB68E" cx="87.498" cy="65.178" r="2.161"/>
	<circle fill="#4EB68E" cx="90.724" cy="68.256" r="2.161"/>
	<circle fill="#4EB68E" cx="93.95" cy="71.335" r="2.161"/>
	<circle fill="#4EB68E" cx="96.938" cy="74.662" r="2.161"/>
	<circle fill="#4EB68E" cx="100.164" cy="77.74" r="2.161"/>
	<circle fill="#4EB68E" cx="103.39" cy="80.819" r="2.161"/>
	<circle fill="#4EB68E" cx="106.615" cy="83.898" r="2.161"/>
	<circle fill="#4EB68E" cx="109.604" cy="87.225" r="2.161"/>
	<circle fill="#4EB68E" cx="112.83" cy="90.303" r="2.161"/>
	<circle fill="#4EB68E" cx="116.055" cy="93.382" r="2.161"/>
	<circle fill="#4EB68E" cx="119.281" cy="96.461" r="2.161"/>
	<circle fill="#4EB68E" cx="122.27" cy="99.787" r="2.161"/>
	<circle fill="#4EB68E" cx="125.495" cy="102.866" r="2.161"/>
	<circle fill="#4EB68E" cx="128.721" cy="105.945" r="2.161"/>
	<polygon fill="#D8E49F" points="31.098,17.725 25.048,20.149 27.187,13.993 	"/>
	<polygon fill="#D8E49F" points="33.965,20.462 27.916,22.885 30.054,16.73 	"/>
	<polygon fill="#D8E49F" points="36.832,23.198 30.783,25.622 32.922,19.466 	"/>
	<polygon fill="#D8E49F" points="39.699,25.935 33.65,28.359 35.789,22.203 	"/>
	<polygon fill="#D8E49F" points="42.567,28.672 36.517,31.095 38.656,24.939 	"/>
	<polygon fill="#D8E49F" points="45.434,31.408 39.384,33.832 41.523,27.676 	"/>
	<polygon fill="#D8E49F" points="48.301,34.145 42.252,36.568 44.391,30.413 	"/>
	<polygon fill="#D8E49F" points="51.168,36.881 45.119,39.305 47.258,33.149 	"/>
	<polygon fill="#D8E49F" points="54.035,39.618 47.986,42.042 50.125,35.886 	"/>
	
		<ellipse transform="matrix(0.7234 0.6904 -0.6904 0.7234 14.4319 -18.3898)" fill="#00975E" cx="30.167" cy="8.817" rx="4.595" ry="5.916"/>
	
		<ellipse transform="matrix(0.7234 0.6904 -0.6904 0.7234 20.2034 -21.2307)" fill="#00975E" cx="36.599" cy="14.599" rx="4.595" ry="5.916"/>
	<g>
		<path fill="#4EB68E" d="M65.027,58.284c-2.229-0.436-5.245,0.399-7.375,1.2c-0.835,0.314-4.52,1.798-4.484,3.079
			c0.074,2.689,10.258,1.466,11.962,0.145C66.728,61.468,65.651,59.108,65.027,58.284z"/>
		<path fill="#4EB68E" d="M67.704,59.561c-2.083,0.906-4.092,3.305-5.391,5.174c-0.509,0.733-2.701,4.045-1.945,5.08
			c1.587,2.172,9.278-4.614,9.931-6.67C70.912,61.217,68.686,59.886,67.704,59.561z"/>
		<path fill="#4EB68E" d="M67.121,64.049c-1.088,1.994-1.2,5.122-1.077,7.394c0.048,0.891,0.353,4.851,1.585,5.204
			c2.586,0.739,4.488-9.34,3.741-11.363C70.669,63.386,68.094,63.703,67.121,64.049z"/>
	</g>
	<g>
		<path fill="#4EB68E" d="M104.465,95.451c-2.229-0.436-5.245,0.399-7.375,1.2c-0.835,0.314-4.52,1.798-4.484,3.079
			c0.074,2.689,10.258,1.466,11.962,0.145C106.167,98.635,105.089,96.275,104.465,95.451z"/>
		<path fill="#4EB68E" d="M107.143,96.728c-2.083,0.906-4.092,3.305-5.391,5.174c-0.509,0.733-2.701,4.045-1.945,5.08
			c1.587,2.172,9.278-4.614,9.931-6.67C110.351,98.384,108.124,97.053,107.143,96.728z"/>
		<path fill="#4EB68E" d="M106.559,101.216c-1.088,1.994-1.2,5.122-1.077,7.394c0.048,0.891,0.353,4.851,1.585,5.204
			c2.586,0.739,4.488-9.34,3.741-11.363C110.108,100.553,107.533,100.87,106.559,101.216z"/>
	</g>
	<path fill="#00975E" d="M41.163,13.74c0,0-0.806,1.838-1.24,4.032c-0.434,2.193,10.708,11.88,14.548,15.308s8.3,7.448,8.3,7.448
		s4.003-6.926,8.091-6.739c3.906,0.179,5.351,2.342,5.814,4.838c0.504,2.719-0.97,5.238-0.97,5.238s3.936-2.882,7.031-0.164
		c3.096,2.718,2.543,5.035,1.512,7.606c-1.032,2.571-4.95,6.18-4.95,6.18s44.068,43.245,46.425,45.495s6.079,5.802,10.375,2.791
		c4.296-3.011,3.214-8.715-0.367-10.544c-3.028-1.547-4.28-0.319-5.475-0.721c-1.271-0.428-1.824-2.808,2.743-4.613
		c4.567-1.805,12.949,1.336,14.816,8.57c1.867,7.234-2.228,16.371-7.154,20.908c-3.919,3.609-6.223,5.361-11.459,2.733
		c-4.654-2.335-59.725-54.08-65.059-59.171S50.987,50.142,50.446,47.729c-0.541-2.413,2.898-5.768,2.898-5.768
		S27.89,16.718,26.029,14.942c-1.861-1.776-1.805-4.567,0.056-8.007s5.729-4.015,6.749-1.855c1.021,2.16,0.79,7.866,0.79,7.866
		S40.537,12.906,41.163,13.74z"/>
	<circle fill="#231F20" cx="32.105" cy="6.755" r="1.315"/>
	<circle fill="#231F20" cx="38.868" cy="12.419" r="1.315"/>
	<path fill="#B5CE3C" d="M69.572,47.109l3.803-3.984c1.732-1.815,1.841-4.548,0.243-6.073l0,0c-1.598-1.526-4.323-1.289-6.055,0.526
		l-3.803,3.984L69.572,47.109z"/>
	<path fill="#B5CE3C" d="M78.215,55.358l3.803-3.984c1.732-1.815,1.841-4.548,0.243-6.073l0,0c-1.598-1.526-4.323-1.289-6.055,0.526
		l-3.803,3.984L78.215,55.358z"/>
	<circle fill="#231F20" cx="70.883" cy="39.894" r="1.189"/>
	<circle fill="#231F20" cx="79.485" cy="48.103" r="1.189"/>
</g>
<g>
	<g>
		<g>
			<path fill="#34AD7E" d="M47.142,117.401c0,0,5.005-9.062,9.927-9.268c4.922-0.206-0.125,10.815-1.759,13.421
				c-1.634,2.606-4.681,8.006-4.681,8.006s20.071,0.071,20.386,0.148c0.315,0.077-4.794,0.504-6.011,3.178
				c-1.217,2.674,1.559,3.883,1.559,3.883s-4.486-1.491-6.188,0.298s-0.614,4.49-0.614,4.49l-14.649-9.065L47.142,117.401z"/>
			<path fill="#34AD7E" d="M30.418,117.401c0,0-5.005-9.062-9.927-9.268c-4.922-0.206,0.125,10.815,1.759,13.421
				c1.634,2.606,4.681,8.006,4.681,8.006s-20.071,0.071-20.386,0.148c-0.315,0.077,4.794,0.504,6.011,3.178
				s-1.559,3.883-1.559,3.883s4.486-1.491,6.188,0.298s0.614,4.49,0.614,4.49l14.649-9.065L30.418,117.401z"/>
			<g>
				<defs>
					<ellipse id="XMLID_2_" cx="38.707" cy="114.158" rx="11.587" ry="21.175"/>
				</defs>
				<use xlink:href="#XMLID_2_"  overflow="visible" fill="#B5CE3C"/>
				<clipPath id="XMLID_4_">
					<use xlink:href="#XMLID_2_"  overflow="visible"/>
				</clipPath>
				<ellipse clip-path="url(#XMLID_4_)" fill="#D8E49F" cx="38.707" cy="130.36" rx="9.331" ry="16.372"/>
			</g>
			<g>
				<defs>
					<ellipse id="XMLID_3_" cx="38.776" cy="92.813" rx="27.618" ry="17.91"/>
				</defs>
				<use xlink:href="#XMLID_3_"  overflow="visible" fill="#B5CE3C"/>
				<clipPath id="XMLID_5_">
					<use xlink:href="#XMLID_3_"  overflow="visible"/>
				</clipPath>
				<rect x="9.791" y="93.291" clip-path="url(#XMLID_5_)" fill="#00975E" width="57.115" height="1.436"/>
			</g>
			<ellipse fill="#00975E" cx="36.418" cy="81.156" rx="0.868" ry="2.707"/>
			<ellipse fill="#00975E" cx="40.784" cy="81.156" rx="0.868" ry="2.707"/>
			<path fill="#34AD7E" d="M30.501,114.626c0.242,4.095,2.021,13.506,1.878,16.302s-5.601,8.162-5.601,8.162s2.24-1.349,3.777-0.363
				c1.537,0.985,1.437,3.158,1.437,3.158s1.57-2.351,3.263-2.134c1.53,0.196,2.96,2.565,2.96,2.565s-3.126-10.001-3.699-14.89
				c-0.574-4.89-0.654-9.373-1.198-12.452C32.713,111.563,30.228,110.017,30.501,114.626z"/>
			<path fill="#34AD7E" d="M47.06,114.626c-0.242,4.095-2.021,13.506-1.878,16.302s5.601,8.162,5.601,8.162s-2.24-1.349-3.777-0.363
				c-1.537,0.985-1.437,3.158-1.437,3.158s-1.57-2.351-3.263-2.134c-1.53,0.196-2.96,2.565-2.96,2.565s3.126-10.001,3.699-14.89
				c0.574-4.89,0.654-9.373,1.198-12.452C44.848,111.563,47.332,110.017,47.06,114.626z"/>
			<ellipse fill="#34AD7E" cx="21.822" cy="78.867" rx="8.443" ry="8.887"/>
			<ellipse fill="#231F20" cx="24.179" cy="79.748" rx="1.527" ry="1.607"/>
			<ellipse fill="#34AD7E" cx="55.729" cy="78.867" rx="8.443" ry="8.887"/>
		</g>
	</g>
	<ellipse fill="#231F20" cx="51.185" cy="79.748" rx="1.527" ry="1.607"/>
</g>
</svg>
