<?xml version="1.0" encoding="utf-8"?>
<!-- Generator: Adobe Illustrator 18.1.1, SVG Export Plug-In . SVG Version: 6.00 Build 0)  -->
<svg version="1.1" id="Слой_1" xmlns="http://www.w3.org/2000/svg" xmlns:xlink="http://www.w3.org/1999/xlink" x="0px" y="0px"
	 viewBox="0 0 150 150" enable-background="new 0 0 150 150" xml:space="preserve">
<g>
	<g>
		<g>
			<path fill="#E8A602" d="M80.7,128.7c0,0,4-1.9,5,0.3c0,0-4.3,1.3-4.9,1.8S80.7,128.7,80.7,128.7z"/>
			<path fill="#FBBB10" d="M62.4,131.1c0,0-4.1-1.4-5.4,2c0,0,5.1-0.9,6.1,0.8L62.4,131.1z"/>
			<path fill="#FBBB10" d="M64.7,126.5c0,0-1.1-5.7-5.2-2.5c0,0,2.6,1,3.5,3.6L64.7,126.5z"/>
			<g>
				<g>
					<path id="SVGID_1_" fill="#FFE005" d="M76.3,119.6c0,0-3,5.8-2.4,9.4c0,0-3.3,2.2-5.4,0.2c0,0,0.7-5-4.3-4c0,0-0.2,1.1-1.7,1.6
						c0,0-0.2,2.6,0.7,3.6c0,0-1.3,0-1.6,1.3s0.8,4.5,4,5.6s8.6-2.2,10.4-3.1c1.9-0.9,6.2-2.1,6.4-3.7c0.2-1.6-0.2-2.6-1.5-2.3
						c-1.3,0.3-3,1.1-4.1,0.7c0,0-1-3.6,1.6-7.6C78.4,121.3,78.1,118.3,76.3,119.6z"/>
				</g>
				<g>
					<defs>
						<path id="SVGID_2_" d="M76.3,119.6c0,0-3,5.8-2.4,9.4c0,0-3.3,2.2-5.4,0.2c0,0,0.7-5-4.3-4c0,0-0.2,1.1-1.7,1.6
							c0,0-0.2,2.6,0.7,3.6c0,0-1.3,0-1.6,1.3s0.8,4.5,4,5.6s8.6-2.2,10.4-3.1c1.9-0.9,6.2-2.1,6.4-3.7c0.2-1.6-0.2-2.6-1.5-2.3
							c-1.3,0.3-3,1.1-4.1,0.7c0,0-1-3.6,1.6-7.6C78.4,121.3,78.1,118.3,76.3,119.6z"/>
					</defs>
					<clipPath id="SVGID_4_">
						<use xlink:href="#SVGID_2_"  overflow="visible"/>
					</clipPath>
					<path clip-path="url(#SVGID_4_)" fill="#E5C406" d="M78.4,121c0,0-2.2,6.4-0.6,7s10-3.2,10.3,1c0.3,4.2-14.4,7.7-16,9.3
						c-1.6,1.6-11-0.4-9.9-4.2c0,0,3.2,2.7,6.3,1.9c3.1-0.8,4.8-3.2,7.7-5.2c0,0-2.1-4.3,0.7-10.6S78.9,119.1,78.4,121z"/>
				</g>
			</g>
			<g>
				<g>
					<g>
						<path fill="#A9981F" d="M63.6,130c0,0,0.3-0.2,0.9-0.3c0.6-0.1,1.5-0.4,2.6,0.1c1,0.5,1.7,1.2,2.6,1.8
							c0.8,0.6,1.7,0.9,2.7,0.8c0,0-0.2,0.2-0.6,0.4c-0.4,0.2-1.2,0.3-2-0.1c-0.9-0.3-1.7-1-2.6-1.7c-0.2-0.2-0.4-0.3-0.6-0.5
							c-0.2-0.1-0.5-0.2-0.8-0.3C65.1,130,64.4,130,63.6,130z"/>
					</g>
				</g>
			</g>
			<g>
				<g>
					<g>
						<path fill="#F9F091" d="M59.4,123.9c0,0,0.1-0.1,0.3-0.3c0.2-0.2,0.6-0.5,1.1-0.7c0.5-0.2,1.3-0.4,2.2-0.1
							c0.2,0.1,0.4,0.2,0.6,0.4c0.2,0.2,0.4,0.3,0.5,0.5c0.1,0.2,0.2,0.4,0.4,0.5c0,0.1,0.1,0.1,0.1,0.2l0.1,0l0.2,0
							c0.2,0,0.6-0.1,0.9,0c0.6,0,1.3,0.2,2,0.6c0.6,0.5,1.1,1.1,1.3,1.8c0.2,0.3,0.3,0.7,0.3,1.1c0,0.2,0.1,0.4,0.1,0.6l0,0.4l0,0
							h0c0,0,0,0,0,0c0.2,0,0.3,0.1,0.5,0.1c0.2,0,0.3,0.1,0.5,0.1l0.6,0c0.4,0,0.8-0.2,1.2-0.3l0.6-0.2c0,0,0,0,0.1,0l0,0
							c0,0,0,0,0,0l0-0.2c0-0.3,0.1-0.6,0.1-0.9c0.1-0.6,0.2-1.2,0.4-1.7c0.3-1.1,0.8-2.2,1.4-3c0,0,0,0.2-0.1,0.4
							c0,0.3-0.1,0.7-0.2,1.3c0,0.3-0.1,0.6-0.1,0.9c0,0.3,0,0.7,0,1.1c0,0.4,0,0.8,0,1.3c0,0.2,0,0.5,0.1,0.7c0,0.1,0,0.3,0.1,0.6
							c0,0.2,0.1,0.5,0.1,0.7c-0.5,0.3-1.1,0.5-1.6,0.8c-0.4,0.2-0.9,0.3-1.4,0.5c-0.5,0.1-1.1,0.2-1.7,0.1c-0.3,0-0.6-0.1-1-0.2
							c-0.1,0-0.4-0.2-0.6-0.3c-0.2-0.1-0.4-0.3-0.6-0.5c0-0.1-0.1-0.3-0.1-0.5c0-0.1-0.1-0.3-0.1-0.5l0.1-0.3l0-0.1
							c0-0.1,0-0.2,0-0.3c0-0.2-0.1-0.4-0.1-0.6c-0.1-0.2-0.1-0.4-0.2-0.6c-0.1-0.2-0.2-0.4-0.3-0.5c-0.2-0.3-0.6-0.5-1-0.6
							c-0.2-0.1-0.5-0.1-0.7-0.1c-0.3,0-0.8,0.1-1.3,0.1c-0.1-0.3-0.3-0.7-0.4-1.1c-0.1-0.3-0.2-0.4-0.3-0.6
							c-0.2-0.4-0.5-0.7-0.9-0.9C61.5,123,60.4,123.3,59.4,123.9z"/>
					</g>
				</g>
			</g>
		</g>
		<g>
			<path fill="#E8A602" d="M112.2,124.7c0,0,2.4-1.9,4.4-0.2c0,0-3.6,1-3.9,2.2C112.4,127.9,112.2,124.7,112.2,124.7z"/>
			<path fill="#FBBB10" d="M98.5,137.1c0,0-3.7-0.5-3.5,2.5c0,0,3.3-1,4.2-0.8L98.5,137.1z"/>
			<g>
				<g>
					<path id="SVGID_3_" fill="#FFE005" d="M99.3,121.5c0,0,1.6,4.3,6.9,6.2c0,0-0.4,2.8-1.5,4.5c-1,1.7-3.6,0-5.7,0.8
						c-2.2,0.9-1.9,4.9,0.2,5.2c0,0-1.9,4.3,3.9,5c3.6,0.4,6.6-3.6,5.8-7.4c-0.7-3.4,1.9-6.8,4.1-8.3s1.6-2.6-0.1-3.5
						c-1.7-0.9-4.5,2-4.5,2s-4.2-1.3-6.3-5.2C99.9,116.8,98.5,120.4,99.3,121.5z"/>
				</g>
				<g>
					<defs>
						<path id="SVGID_6_" d="M99.3,121.5c0,0,1.6,4.3,6.9,6.2c0,0-0.4,2.8-1.5,4.5c-1,1.7-3.6,0-5.7,0.8c-2.2,0.9-1.9,4.9,0.2,5.2
							c0,0-1.9,4.3,3.9,5c3.6,0.4,6.6-3.6,5.8-7.4c-0.7-3.4,1.9-6.8,4.1-8.3s1.6-2.6-0.1-3.5c-1.7-0.9-4.5,2-4.5,2s-4.2-1.3-6.3-5.2
							C99.9,116.8,98.5,120.4,99.3,121.5z"/>
					</defs>
					<clipPath id="SVGID_8_">
						<use xlink:href="#SVGID_6_"  overflow="visible"/>
					</clipPath>
					<path clip-path="url(#SVGID_8_)" fill="#E5C406" d="M101,143.8c0,0,3.2-0.9,5.2-3s0.3-7.9,2.7-12.4c0,0-7.3-4.3-8.3-7.2
						s7.4,2.7,7.4,2.7s9.6-2.5,10.2-0.1c0.6,2.4-6.9,7.6-6.9,7.6s0.7,9.9-5.9,12.3C98.8,146.2,101,143.8,101,143.8z"/>
				</g>
			</g>
			<g>
				<g>
					<g>
						<path fill="#A9981F" d="M99.5,137.8c0,0,0.1-0.2,0.4-0.5c0.3-0.3,0.8-0.6,1.4-0.7c0.6-0.1,1.3-0.1,1.8-0.1
							c0.6,0,1-0.1,1.4-0.5c0,0,0,0.1,0,0.4c0,0.1-0.1,0.3-0.3,0.5c-0.2,0.2-0.4,0.3-0.7,0.4c-0.6,0.2-1.2,0.2-1.8,0.2
							C101.1,137.5,100.4,137.3,99.5,137.8z"/>
					</g>
				</g>
			</g>
			<path fill="#FBBB10" d="M100,140.1c-1.1,0.6-2.9,2.4-2,4.5c0,0,3-1.9,4-2.3C103,141.9,101,139.5,100,140.1z"/>
			<g>
				<g>
					<g>
						<path fill="#F9F091" d="M100.5,123.3c0,0,0.1,0.1,0.3,0.4c0.2,0.3,0.6,0.6,1.1,1c0.5,0.4,1.2,0.8,1.9,1.2
							c0.4,0.2,0.8,0.4,1.3,0.6c0.2,0.1,0.5,0.2,0.7,0.3c0.2,0.1,0.4,0.2,0.6,0.3l0.3,0.1l0.2,0.1c0.1,0,0.1,0,0.1,0.1
							c-0.1,0.4-0.1,1-0.2,1.4c0,0.3-0.1,0.6-0.2,0.9c-0.1,0.6-0.3,1.2-0.5,1.9c-0.1,0.3-0.3,0.6-0.5,1c-0.1,0.3-0.6,0.8-1.1,1
							c-1,0.4-1.7,0.3-2.4,0.3c-1.4-0.1-2.6-0.2-3.1,0.3c-0.3,0.3-0.6,0.7-0.7,1.2l-0.1,0.4c0,0.1,0,0.1,0,0.2l0,0.1c0,0,0,0,0,0.2
							c0,0.3,0.2,0.6,0.3,0.9l0.3,0.8c-0.8-0.1-1.6-0.2-2.1-0.1c-0.3,0-0.6,0.1-0.9,0.2c-0.5,0.2-0.7,0.9-0.7,1.6
							c0,0-0.2-0.3-0.2-1.1c0-0.4,0.3-0.9,0.8-1.3c0.2-0.2,0.6-0.3,0.9-0.4c0.2-0.1,0.3-0.1,0.4-0.1c-0.1-0.1-0.2-0.3-0.2-0.4
							c0,0-0.1-0.2-0.1-0.4c0-0.2,0-0.4,0-0.6c0-0.8,0.3-1.7,1.1-2.5c0.2-0.2,0.4-0.3,0.6-0.5c0.2-0.1,0.5-0.2,0.8-0.3
							c0.5-0.1,1-0.2,1.5-0.2c0.9,0,1.9,0.1,2.6,0.1c0.2,0,0.3-0.1,0.4-0.1c0,0,0.1,0,0.1-0.1c0,0,0,0,0.1-0.1
							c0.2-0.3,0.4-0.7,0.6-1.1c0.2-0.4,0.4-0.9,0.5-1.4c0.1-0.2,0.1-0.5,0.2-0.7c0-0.1,0.1-0.2,0.1-0.2l-0.1-0.1c0,0,0,0-0.1-0.1
							l-0.2-0.1c-0.3-0.2-0.5-0.3-0.8-0.5c-0.5-0.4-1-0.7-1.5-1.1C101.8,125.4,101,124.4,100.5,123.3z"/>
					</g>
				</g>
			</g>
		</g>
		<path fill="#D6D7D8" d="M93.8,115.2c0,0-2.2,8.1,6.3,7.4s7.1-9.5,6.3-11.3C105.7,109.7,96.3,112.6,93.8,115.2z"/>
		<path fill="#D6D7D8" d="M74.9,114.1c0,0-3.2,2.8-1.9,5.4s13,5.5,12.1-3.1C84.2,107.7,74.9,114.1,74.9,114.1z"/>
	</g>
	<g>
		<g>
			<g>
				<g>
					<path id="SVGID_5_" fill="#EAE8E8" d="M118.2,96.7c0,0-7.4-9.2-2.2-18s16.8-9.1,22.8-4.9c5.9,4.1,4.7,7.5,4,8.2
						c-0.7,0.7-4.7-4.5-11.3-4.4s-8.3,3.3-8.3,3.3s9.9-4.3,18.9,3.2s5.1,8.6-1,4.6c-6.2-4-12.1-3.1-12.1-3.1s9.5,2.5,13.8,12.5
						s1.1,16.9-1.5,16.7s0.4-18.2-16.2-22c0,0,9.4,8.3,10.4,19.5s-4.1,14.5-5.3,14.5s-0.1-9.5-1.6-15
						C126.8,106.2,120.5,100.6,118.2,96.7z"/>
				</g>
				<g>
					<defs>
						<path id="SVGID_10_" d="M118.2,96.7c0,0-7.4-9.2-2.2-18s16.8-9.1,22.8-4.9c5.9,4.1,4.7,7.5,4,8.2c-0.7,0.7-4.7-4.5-11.3-4.4
							s-8.3,3.3-8.3,3.3s9.9-4.3,18.9,3.2s5.1,8.6-1,4.6c-6.2-4-12.1-3.1-12.1-3.1s9.5,2.5,13.8,12.5s1.1,16.9-1.5,16.7
							s0.4-18.2-16.2-22c0,0,9.4,8.3,10.4,19.5s-4.1,14.5-5.3,14.5s-0.1-9.5-1.6-15C126.8,106.2,120.5,100.6,118.2,96.7z"/>
					</defs>
					<clipPath id="SVGID_12_">
						<use xlink:href="#SVGID_10_"  overflow="visible"/>
					</clipPath>
					<path clip-path="url(#SVGID_12_)" fill="#FFFFFF" d="M114.4,87.7c0,0-2.4-8,4-14.2c6.5-6.2,22.7-5.5,26.5,3.9s-0.5,5.7-2.2,4.4
						c-1.6-1.3-10.1-10.5-19.4-4.4C113.9,83.7,118.8,94.3,114.4,87.7z"/>
				</g>
				<g>
					<defs>
						<path id="SVGID_13_" d="M118.2,96.7c0,0-7.4-9.2-2.2-18s16.8-9.1,22.8-4.9c5.9,4.1,4.7,7.5,4,8.2c-0.7,0.7-4.7-4.5-11.3-4.4
							s-8.3,3.3-8.3,3.3s9.9-4.3,18.9,3.2s5.1,8.6-1,4.6c-6.2-4-12.1-3.1-12.1-3.1s9.5,2.5,13.8,12.5s1.1,16.9-1.5,16.7
							s0.4-18.2-16.2-22c0,0,9.4,8.3,10.4,19.5s-4.1,14.5-5.3,14.5s-0.1-9.5-1.6-15C126.8,106.2,120.5,100.6,118.2,96.7z"/>
					</defs>
					<clipPath id="SVGID_14_">
						<use xlink:href="#SVGID_13_"  overflow="visible"/>
					</clipPath>
					<path clip-path="url(#SVGID_14_)" fill="#FFFFFF" d="M120.2,84.1c0,0,1.1-3,6.2-4.8s17,1.7,22.2,10.3c5.2,8.6-2.4,0.4-4.4-1.8
						S131.6,76.2,120.2,84.1z"/>
				</g>
				<g>
					<defs>
						<path id="SVGID_15_" d="M118.2,96.7c0,0-7.4-9.2-2.2-18s16.8-9.1,22.8-4.9c5.9,4.1,4.7,7.5,4,8.2c-0.7,0.7-4.7-4.5-11.3-4.4
							s-8.3,3.3-8.3,3.3s9.9-4.3,18.9,3.2s5.1,8.6-1,4.6c-6.2-4-12.1-3.1-12.1-3.1s9.5,2.5,13.8,12.5s1.1,16.9-1.5,16.7
							s0.4-18.2-16.2-22c0,0,9.4,8.3,10.4,19.5s-4.1,14.5-5.3,14.5s-0.1-9.5-1.6-15C126.8,106.2,120.5,100.6,118.2,96.7z"/>
					</defs>
					<clipPath id="SVGID_16_">
						<use xlink:href="#SVGID_15_"  overflow="visible"/>
					</clipPath>
					<path clip-path="url(#SVGID_16_)" fill="#FFFFFF" d="M124,86.2c0,0,5.3-1.9,11.9,1.7c8.8,4.9,15.8,23,10.5,27.8s-5.2,1.9-5,0.5
						s4.3-13.8-3.2-22.4C132.6,87.3,129.2,86.2,124,86.2z"/>
				</g>
			</g>
			<g>
				<g>
					<g>
						<path id="SVGID_7_" fill="#FFFFFF" d="M73.4,83.2c0,0-9.2,7.1-10.5,14s0,17.3,17.3,20.1c17.3,2.8,39.9-3,40.9-18.8
							C122.2,82.7,81.7,76,73.4,83.2z"/>
					</g>
					<g>
						<defs>
							<path id="SVGID_17_" d="M73.4,83.2c0,0-9.2,7.1-10.5,14s0,17.3,17.3,20.1c17.3,2.8,39.9-3,40.9-18.8
								C122.2,82.7,81.7,76,73.4,83.2z"/>
						</defs>
						<clipPath id="SVGID_18_">
							<use xlink:href="#SVGID_17_"  overflow="visible"/>
						</clipPath>
						<path clip-path="url(#SVGID_18_)" fill="#EAE8E8" d="M66.8,89.8c0,0-9.3,15.4,15.5,19.2c24.8,3.8,40.1-7.3,36.9-18.8
							c0,0,15.1,16.6-9.7,27.2s-46.4,9.2-50.4-4.8S59.9,87.2,66.8,89.8z"/>
					</g>
				</g>
				<g>
					<g>
						<g>
							<path fill="#FFFFFF" d="M67.6,89.1c0,0-0.2,0.2-0.5,0.6c-0.2,0.2-0.3,0.5-0.6,0.8c-0.2,0.3-0.4,0.7-0.7,1.1
								c-1,1.6-2.1,4.1-2.5,7.1c-0.1,1.5-0.2,3.2,0.2,4.8c0.1,0.8,0.5,1.6,0.7,2.5c0.2,0.4,0.4,0.8,0.6,1.2l0.3,0.6l0.4,0.6
								c0.3,0.4,0.5,0.7,0.8,1.1l0.9,1l0.5,0.5c0.2,0.2,0.4,0.3,0.5,0.5l1.1,0.9c0.7,0.6,1.6,1.1,2.3,1.6l1.3,0.7l1,0.5
								c0.4,0.2,0.8,0.4,1.1,0.6c-0.4,0.4-0.8,0.9-1.1,1.3c-0.2,0.3-0.3,0.5-0.4,0.7c-0.2,0.5-0.2,0.9-0.1,1.4
								c0.3,0.9,1.2,1.6,2.1,2.2c0,0-0.1,0-0.4-0.1c-0.3-0.1-0.7-0.2-1.2-0.5c-0.5-0.3-1.1-0.8-1.4-1.8c-0.1-0.5-0.1-1,0-1.6
								c0.1-0.3,0.2-0.6,0.3-0.7c0-0.1,0.1-0.2,0.1-0.3c0-0.1-0.2-0.1-0.2-0.1c-0.1,0-0.1,0-0.3-0.1c-0.4-0.2-0.9-0.4-1.4-0.6
								c-0.5-0.2-0.9-0.5-1.4-0.8c-0.5-0.3-1-0.5-1.5-0.9c-1.9-1.3-3.9-3.3-5.2-6.1c-1.3-2.7-1.8-6.1-0.9-9.5
								c0.1-0.4,0.2-0.8,0.3-1.3c0.1-0.4,0.3-0.8,0.5-1.2c0.3-0.8,0.8-1.6,1.2-2.4C65,91.7,66.2,90.3,67.6,89.1z"/>
						</g>
					</g>
				</g>
				<g>
					<g>
						<g>
							<path fill="#FFFFFF" d="M121.2,100.4c0,0,0,0.2,0,0.5c0,0.3,0,0.8-0.1,1.4c-0.2,1.2-0.7,2.9-1.8,4.8
								c-1.1,1.8-2.8,3.7-4.8,5.2c-1.1,0.7-2.2,1.5-3.4,2.1c-0.6,0.3-1.2,0.6-1.8,0.9l-0.9,0.4c0,0,0,0-0.1,0c0,0,0,0,0,0
								c0,0,0,0,0,0l0,0.3c-0.1,0.4-0.2,0.9-0.3,1.3c-0.3,0.8-0.6,1.6-1.1,2.3c-1,1.4-2.4,2.2-3.7,2.6c0,0,0.1-0.2,0.4-0.5
								c0.1-0.1,0.3-0.3,0.5-0.6c0.2-0.2,0.4-0.5,0.6-0.8c0.4-0.6,0.8-1.4,1-2.3c0.1-0.5,0.2-1,0.2-1.5c0-0.3,0-0.6,0-0.8
								c0-0.1,0-0.1,0-0.3l0-0.5c0-0.3,0-0.6-0.1-1c0.5-0.3,1.1-0.5,1.6-0.8c0.3-0.2,0.6-0.3,0.9-0.5c0.6-0.3,1.2-0.7,1.8-1
								c0.3-0.2,0.6-0.3,1-0.5c0.3-0.2,0.6-0.4,1-0.6c0.7-0.4,1.3-0.9,2-1.3c1.3-1,2.8-2,4-3.4C119.3,104.3,120.6,102.7,121.2,100.4
								z"/>
						</g>
					</g>
				</g>
			</g>
		</g>
		<g>
			<path fill="#FFFFFF" d="M87.8,100.4c0.3,3.4,7.1,8.4,16.7,7.7s13.9-5.1,13.9-6.3s-5.6-1.1-5.6-1.1s6.2-1.9,5.4-3.7
				c-0.8-1.7-6.4-2.6-6.4-2.6s2.6-0.7,2.5-1.7c-0.2-1-9.6-3.9-14.9-3.4C94,89.8,87.2,93.6,87.8,100.4z"/>
			<path fill="#EAE8E8" d="M87.8,98.8c0,0-1.5,6.8,12.2,9.1s18.4-6.2,18.4-6.2s-4.2,3.1-10.1,3.7S92.6,106.9,87.8,98.8z"/>
			<g>
				<g>
					<g>
						<path fill="#CFCECE" d="M88,100.4c0,0,0,0.3,0.3,0.8c0.2,0.5,0.7,1.3,1.5,2c1.6,1.5,4.5,3.1,8.3,3.7c1.9,0.3,3.9,0.4,6.1,0.3
							c2.2-0.2,4.4-0.6,6.6-1.3c2.2-0.7,4.4-1.8,6-3.4c0.1-0.1,0.2-0.2,0.3-0.3c0.1-0.1,0.2-0.3,0.2-0.2c0,0,0,0,0,0s0,0,0,0
							c-0.1,0-0.5-0.1-0.7-0.2c-1.1-0.2-2.4-0.3-3.7-0.3l-6.1-0.1l5.8-1.8c1.1-0.3,2.3-0.8,3.4-1.3c0.5-0.3,1-0.6,1.4-0.9
							c0.2-0.2,0.2-0.2,0.2-0.3c0,0,0-0.1,0-0.1c0,0,0-0.1-0.1-0.2c-0.6-0.7-1.8-1.1-2.9-1.5l-0.6-0.2l-0.7-0.2
							c-0.4-0.1-0.9-0.2-1.3-0.3c-0.4-0.1-0.8-0.2-1.2-0.3l-0.3-0.1c0,0,0,0,0.1-0.1c0,0,0-0.1,0-0.2c1.1-0.3,2.1-0.5,2.7-0.8
							c0.3-0.1,0.6-0.3,0.7-0.4c0.1-0.1,0.2-0.2,0.2-0.4c0,0,0.1,0.1-0.1,0.5c-0.1,0.2-0.4,0.4-0.6,0.5c-0.2,0.2-0.5,0.3-0.8,0.4
							c-0.1,0-0.2,0.1-0.4,0.1c-0.1,0,0,0,0.1,0c0.1,0,0.2,0,0.3,0c0.4,0.1,0.8,0.1,1.2,0.2c0.6,0.1,1.9,0.3,3,0.8
							c0.3,0.1,0.6,0.3,0.9,0.5c0.2,0.1,0.3,0.2,0.5,0.4c0.2,0.1,0.3,0.3,0.4,0.6c0.3,0.5,0.1,1.1-0.2,1.6c-0.3,0.4-0.6,0.7-0.9,0.9
							c-1.3,1-2.8,1.6-4.6,2.2c-0.1-0.5-0.2-1.1-0.3-1.7c1.3,0,2.6,0,4.1,0.2c0.2,0,0.4,0.1,0.6,0.1l0.3,0.1
							c0.1,0.1,0.3,0.1,0.5,0.2c0.6,0.3,1.2,0.8,1.1,1.4c0,0.2,0,0.3-0.1,0.5c-0.1,0.2-0.1,0.3-0.2,0.5c-0.1,0.1-0.2,0.3-0.3,0.4
							c-0.1,0.1-0.1,0.2-0.2,0.3c-0.3,0.4-0.6,0.6-0.9,0.9c-2.5,2.2-5.8,3.5-9.3,4.1c-1.8,0.3-3.6,0.5-5.5,0.5
							c-1.9-0.1-3.9-0.3-5.8-0.9c-1.9-0.6-3.9-1.4-5.6-2.6c-0.8-0.6-1.7-1.3-2.3-2.2C88.6,102.4,88,101.4,88,100.4z"/>
					</g>
				</g>
			</g>
		</g>
	</g>
	<g>
		<g>
			<g>
				<path id="SVGID_9_" fill="#E8471C" d="M95.3,56.7c0,0-1.6-3,0.5-7.3s7.1-5.7,8-4.8c0.9,1-2,7.6-2.2,8.4c0,0,5.6-4.8,11.3-4.7
					c5.7,0.1,7.5,4.5-3.5,7.8c0,0,10.4,4.6,8.6,9.7s-9.2,0.4-9.2,0.4S106.1,52.9,95.3,56.7z"/>
			</g>
			<g>
				<defs>
					<path id="SVGID_19_" d="M95.3,56.7c0,0-1.6-3,0.5-7.3s7.1-5.7,8-4.8c0.9,1-2,7.6-2.2,8.4c0,0,5.6-4.8,11.3-4.7
						c5.7,0.1,7.5,4.5-3.5,7.8c0,0,10.4,4.6,8.6,9.7s-9.2,0.4-9.2,0.4S106.1,52.9,95.3,56.7z"/>
				</defs>
				<clipPath id="SVGID_20_">
					<use xlink:href="#SVGID_19_"  overflow="visible"/>
				</clipPath>
				<path clip-path="url(#SVGID_20_)" fill="#D73116" d="M99.1,45c0,0-4.9,4.5-4.2,6.9c0.7,2.4,5.7,1.9,6.7,1.1c0,0,7.9,4.4,16-4
					c0,0,7.4,2-4.6,7.3c9.1-2,6.4,13.4,1.8,12.9C110.1,68.6,94.6,65.6,93,59C91.4,52.4,87.4,46.3,99.1,45z"/>
			</g>
			<g>
				<defs>
					<path id="SVGID_21_" d="M95.3,56.7c0,0-1.6-3,0.5-7.3s7.1-5.7,8-4.8c0.9,1-2,7.6-2.2,8.4c0,0,5.6-4.8,11.3-4.7
						c5.7,0.1,7.5,4.5-3.5,7.8c0,0,10.4,4.6,8.6,9.7s-9.2,0.4-9.2,0.4S106.1,52.9,95.3,56.7z"/>
				</defs>
				<clipPath id="SVGID_22_">
					<use xlink:href="#SVGID_21_"  overflow="visible"/>
				</clipPath>
				<path clip-path="url(#SVGID_22_)" fill="#F0834E" d="M96.4,52.2C95,51.6,95.8,49.8,97,48s4-3.4,5.4-3.4s0.2,3.2-1.3,5
					C99.6,51.5,97.7,52.8,96.4,52.2z"/>
			</g>
			<g>
				<defs>
					<path id="SVGID_23_" d="M95.3,56.7c0,0-1.6-3,0.5-7.3s7.1-5.7,8-4.8c0.9,1-2,7.6-2.2,8.4c0,0,5.6-4.8,11.3-4.7
						c5.7,0.1,7.5,4.5-3.5,7.8c0,0,10.4,4.6,8.6,9.7s-9.2,0.4-9.2,0.4S106.1,52.9,95.3,56.7z"/>
				</defs>
				<clipPath id="SVGID_24_">
					<use xlink:href="#SVGID_23_"  overflow="visible"/>
				</clipPath>
				<path clip-path="url(#SVGID_24_)" fill="#F0834E" d="M104.7,52.2c0-0.7,1.6-2.2,4.6-3.1c3-0.9,5-0.7,6,0.5
					c0.6,0.8-2.8,2.2-6,3.2S104.6,53.2,104.7,52.2z"/>
			</g>
		</g>
		<g>
			<path fill="#D8D9D9" d="M68.7,86.9c0,0,1.2,2.7,5.3,1.3c0,0,0,5.7,3.2,7.5c3.1,1.8,4.4-4,4.4-4s1.9,6.7,6.1,5.9
				c4.2-0.7,5.4-7.8,5.4-7.8s3,5.5,8.1,4.1s3.1-5.7,3.1-5.7s9.5,1,5.2-3C109.4,85.3,86.3,76,68.7,86.9z"/>
			<path fill="#FFFFFF" d="M103.2,54.9c6.5,1.9,10.1,9.8,7.3,16.2c-2.7,6.4-5,11-3.5,12s3.4,2.6,2.5,3.9c-0.9,1.3-4.7,1.4-6.6-1.7
				c0,0,1.2,5.3-1.9,5.8s-8.2-3.3-8.2-3.3s-2.3,7.4-5.8,7.6c-3.5,0.1-4.3-5.9-4.3-5.9s-2.2,5.1-5.3,3.5c-3.1-1.5-1.3-7.6-1.3-7.6
				s-5.5,3.8-7.4,1.6s6.5-6.8,8.4-9.1C79,75.5,86,49.8,103.2,54.9z"/>
		</g>
		<g>
			<circle fill="#D3E2EA" cx="98.7" cy="63.3" r="3.3"/>
			<circle fill="#FFFFFF" cx="99" cy="63" r="3.1"/>
			<circle fill="#1E120D" cx="99.8" cy="62.7" r="2.1"/>
			<circle fill="#FFFFFF" cx="100.4" cy="62" r="1.2"/>
		</g>
		<g>
			<circle fill="#D3E2EA" cx="91.6" cy="60" r="2.5"/>
			<circle fill="#FFFFFF" cx="91.8" cy="59.8" r="2.3"/>
			<circle fill="#1E120D" cx="92.4" cy="59.6" r="1.6"/>
			<circle fill="#FFFFFF" cx="92.8" cy="59.1" r="0.9"/>
		</g>
		<g>
			<g>
				<path fill="#E8471C" d="M85.5,70.2c0,0-4.2,2.6-2.6,3.9c1.6,1.3,4.1-2.4,4.1-2.4s0,4.1,2.2,4.3c2.2,0.2,2.4-6.4,1.5-6.6
					C90.6,69.3,87.9,70.1,85.5,70.2z"/>
				<path fill="#D73116" d="M84.9,70.6c0,0,1.5,1,3.5,0.5c0,0,1.5,3.1-0.2,4.4c0,0,1.2,1.5,2.3-0.7s0.9-5.5,0.2-5.6L84.9,70.6z"/>
			</g>
			<g>
				<path fill="#D3B005" d="M82,67c0,0,2.2,0.3,3.6-0.1s2.3-2.5,2.3-2.5l5.5,0.2c0,0,1.2,2.5-2.8,4.4C86.5,70.8,82,67,82,67"/>
				<path fill="#FBD8CB" d="M92.7,65.1c0,0-4.4,1.3-5.9,4.5c0,0,4.1-0.3,5.4-1.7S93.9,65.6,92.7,65.1z"/>
				<g>
					<g>
						<path id="SVGID_11_" fill="#FFCE05" d="M93,62.8c0,0-2.9-3.9-8.2-4.7c-5.3-0.8-8.1,5.3-8.1,5.3s5.6-1.3,8.2,0.4
							s5.2,3.1,8.2,2.1c0,0-1.7,2.1-4.5,2.7C85.8,69.3,82,67,82,67s1.4,3.4,3.2,3.8c1.8,0.4,7-1.3,8-3.2
							C94.3,65.7,93.5,63.4,93,62.8z"/>
					</g>
					<g>
						<defs>
							<path id="SVGID_25_" d="M93,62.8c0,0-2.9-3.9-8.2-4.7c-5.3-0.8-8.1,5.3-8.1,5.3s5.6-1.3,8.2,0.4s5.2,3.1,8.2,2.1
								c0,0-1.7,2.1-4.5,2.7C85.8,69.3,82,67,82,67s1.4,3.4,3.2,3.8c1.8,0.4,7-1.3,8-3.2C94.3,65.7,93.5,63.4,93,62.8z"/>
						</defs>
						<clipPath id="SVGID_26_">
							<use xlink:href="#SVGID_25_"  overflow="visible"/>
						</clipPath>
						<path clip-path="url(#SVGID_26_)" fill="#FEEB17" d="M76.8,63.5c0,0,2-5.2,6.9-5.4s8.4,2.8,9.8,5s-3.3,1.6-4.7,0.9
							C87.4,63.3,82.3,61.3,76.8,63.5z"/>
					</g>
				</g>
			</g>
		</g>
	</g>
</g>
<g>
	<path fill="#853114" d="M44.7,55.2c-2.3-2.4-5.8-2-9.1-1.7c-1.7,0.2-2.6,0.2-3.8,1.4c-0.9,0.9-4.2,13.3-5,18.1
		c-0.1,0.6-0.2,1.2,0,1.8s0.6,1.1,1.2,1.1c0.5,0,1-0.3,1.4-0.6c1.5-1.2,2.3-3,3.4-4.6c-0.3,1.3-0.2,3,0.1,4.3
		c0.3,1.3,1.1,2.5,2.7,2.5c1.6,0,2.8-3.1,2.7-4.2c0.1,1.6,1.6,4.6,3.8,4.2c1.9-0.3,2.3-4.9,1.7-6.7c0.4,1,2,3.4,2.8,4.1
		c0.8,0.7,1.4,1.5,2.4,1.2c1.4-0.3,1-3.9,0.8-5.3C49.5,68.7,45.8,56.3,44.7,55.2z"/>
	<path fill="#C27240" d="M33,60.5c-2.3,0-4.5,0.1-6.7,0.4c-1.1,0.1-2,0.1-3,0.4c-0.9,0.3-1.7,0.9-2.6,1.2c-2.3,0.7-4.8-0.2-7,1.3
		c-1.2,0.8-3.7,3-4.5,4.1c1.5,1.4,0.8,4.8,3.3,3.2c1.2-0.8,1.2-2.1,2.3-2.9c1.1-0.8,3.2-1.4,4.5-2c5.1-2.2,9.6-2.4,15.1-1.9
		c3.5,0.4,6.6-0.3,10-0.5c1.5-0.1,3.2-0.2,4.7,0.1c2.2,0.4,3.1,1.4,4.9,2.4c1.7,1.1,3.6,1.1,5.2,2.4c1.1,0.9,1.2,2,2.2,2.8
		c2.2,1.9,5.3-5.7,2.9-7.5c-1.2-0.9-3-0.6-4.5-1.1c-1.3-0.4-2.4-1.1-3.7-1.4c-2.8-0.7-5.6-1.6-8.5-1.6c-2.4,0-4.8,0.4-7.3,0.4
		C38.1,60.5,34.8,61.1,33,60.5z"/>
	<path fill="#853114" d="M26,57c1,0.2,2.1,0.2,2.8-0.4c0.9-0.8,0.8-2.1,0.6-3.3c-1.1-7.7-2.6-15.7-7.5-21.7
		c-4.3,3.3-6.8,8.8-6.1,14.2C16.5,51.1,20.7,55.9,26,57z"/>
	<path fill="#853114" d="M50.6,57c-1,0.2-2.1,0.2-2.8-0.4c-0.9-0.8-0.8-2.1-0.6-3.3c1.1-7.7,2.6-15.7,7.5-21.7
		c4.3,3.3,6.8,8.8,6.1,14.2S55.9,55.9,50.6,57z"/>
	<path fill="#F39157" d="M19,33.6c1.4,1.2,3.3,2.1,3.8,3.9c0.3,1.4-0.4,2.9-1,4.3c-1.6,4.3-0.4,9.3,2.4,12.8
		c2.8,3.6,7.2,5.7,11.7,6.4c5.3,0.8,11-0.5,15-4c4-3.5,6.2-9.3,4.8-14.4c-0.6-2.3-1.9-4.7-0.9-6.9c0.6-1.3,1.9-1.6,2.9-2.5
		c2.9-2.7,3.2-6.8,2.6-10.7c-0.5-3.9-2.5-9.3-6-11.1c-4-2.2-8.2-0.9-12.8-0.4c-4.5,0.4-9.2,1-13.5-0.5c-1.4-0.5-1.3-0.5-2.7-0.2
		c-1.7,0.4-2.9,0.7-4.4,2.3c-2.6,2.7-4.4,7.3-4.9,11C15.3,27,16.2,31.2,19,33.6z"/>
	<g>
		<g>
			<path id="XMLID_3_" fill="#853114" d="M34.3,18.7c1.1,1.7,1.2,3.8,0.9,5.8c-0.2,1.9-0.6,4,0.6,5.5c1.1,1.3,3.1,1.5,4.6,0.8
				c1.5-0.7,2.6-2.2,3.4-3.7c0.8-1.5,1.3-3.1,2.1-4.6c1.4-2.6,1.9-5.5,4.5-6.9c6.4-3.4,9.2-8,9.3-10.7c-6.8,3.2-12.7,5.4-20.2,5.6
				S24.7,8.3,18.6,3.8c1,4.6,4.2,8.6,8.4,10.6C29.6,15.6,32.8,16.3,34.3,18.7z"/>
		</g>
		<g>
			<defs>
				<path id="SVGID_27_" d="M34.3,18.7c1.1,1.7,1.2,3.8,0.9,5.8c-0.2,1.9-0.6,4,0.6,5.5c1.1,1.3,3.1,1.5,4.6,0.8
					c1.5-0.7,2.6-2.2,3.4-3.7c0.8-1.5,1.3-3.1,2.1-4.6c1.4-2.6,1.9-5.5,4.5-6.9c6.4-3.4,9.2-8,9.3-10.7c-6.8,3.2-12.7,5.4-20.2,5.6
					S24.7,8.3,18.6,3.8c1,4.6,4.2,8.6,8.4,10.6C29.6,15.6,32.8,16.3,34.3,18.7z"/>
			</defs>
			<clipPath id="SVGID_28_">
				<use xlink:href="#SVGID_27_"  overflow="visible"/>
			</clipPath>
			<path clip-path="url(#SVGID_28_)" fill="#F39157" d="M38.8,18.7c0.8-3.4,2.7-7,4.7-9.4c-1.7-0.2-11.1-1.5-9.6,0.3
				C35.9,12.1,38.4,16.1,38.8,18.7z"/>
		</g>
	</g>
	<path fill="#FFE609" d="M37.5,29.3c1.7-0.2,3.7,0.3,4.9,1.3c-1.7,1.2-2.9,2.7-3.7,4.6c-1.3-2.3-2.4-3-4-4.3
		C35.2,29.8,36.4,29.4,37.5,29.3z"/>
	<g>
		<g>
			<g>
				<path fill="#FFE609" d="M33,59.5c-1.7,0.1-3.2,1.3-4.4,2.4c-1,0.9-2.9,2.9-2.5,4.4c0,0.2,0.2,0.2,0.4,0.2c0.5-0.3,0.7-0.8,1-1.4
					c0.4-0.8,1-1.5,1.6-2.1c1.2-1.3,2.7-2,4.1-3C33.3,59.9,33.3,59.5,33,59.5L33,59.5z"/>
			</g>
		</g>
		<g>
			<g>
				<path fill="#FFE609" d="M33,59.7c-0.9,0.8-1.4,2-1.8,3.1c-0.4,1.1-1.1,2.9-0.6,4c0.1,0.2,0.3,0.2,0.5,0.1c0.7-0.9,0.7-2.3,1-3.3
					c0.4-1.2,1-2.4,1.3-3.7C33.3,59.7,33.1,59.5,33,59.7L33,59.7z"/>
			</g>
		</g>
		<g>
			<g>
				<path fill="#FFE609" d="M32.9,59.8c-0.6,2.1-0.2,5.8,1.4,7.3c0.1,0.1,0.3,0,0.4-0.1c0.1-1.1-0.4-2.1-0.7-3.1
					c-0.4-1.3-0.6-2.7-0.8-4.1C33.2,59.6,33,59.7,32.9,59.8L32.9,59.8z"/>
			</g>
		</g>
	</g>
	<g>
		<g>
			<g>
				<path fill="#FFE609" d="M45,60.1c-1.2,0.5-2,1.6-2.5,2.7c-0.5,1.1-1.1,2.8-0.4,3.9c0.1,0.1,0.3,0.1,0.4,0
					c0.5-0.9,0.5-2.1,0.9-3.1c0.4-1.2,1.2-2.2,1.9-3.3C45.2,60.2,45.1,60.1,45,60.1L45,60.1z"/>
			</g>
		</g>
		<g>
			<g>
				<path fill="#FFE609" d="M44.8,60.5c0.1,0.9,0.4,1.7,0.6,2.6c0.2,1,0.1,2.3,0.7,3.2c0.1,0.1,0.3,0.1,0.4,0
					c0.6-0.9,0.1-2.4-0.2-3.4c-0.2-0.8-0.6-1.8-1.2-2.4C45.1,60.3,44.8,60.4,44.8,60.5L44.8,60.5z"/>
			</g>
		</g>
		<g>
			<g>
				<path fill="#FFE609" d="M44.9,60.7c1,0.8,2,1.5,2.8,2.5c0.7,0.9,1,2,1.7,2.8c0.1,0.1,0.3,0,0.4-0.1c0.7-2.3-2.4-5.4-4.5-5.7
					C44.9,60.2,44.7,60.5,44.9,60.7L44.9,60.7z"/>
			</g>
		</g>
	</g>
	<circle fill="#FFFFFF" cx="28.5" cy="24.8" r="9.4"/>
	<circle fill="#FFFFFF" cx="48.8" cy="24.9" r="9.4"/>
	<g>
		<circle fill="#1E1E1C" cx="29.2" cy="25.1" r="3.9"/>
		<circle fill="#FFFFFF" cx="28.3" cy="26.1" r="1"/>
	</g>
	<g>
		<circle fill="#1E1E1C" cx="48.7" cy="25.2" r="3.9"/>
		<circle fill="#FFFFFF" cx="47.7" cy="26.2" r="1"/>
	</g>
</g>
</svg>
