<?xml version="1.0" encoding="utf-8"?>
<svg version="1.1" id="Layer_1" xmlns="http://www.w3.org/2000/svg" xmlns:xlink="http://www.w3.org/1999/xlink" x="0px" y="0px" width="500px" height="500px" viewBox="0 0 500 500" enable-background="new 0 0 500 500" xml:space="preserve">
<rect x="-0.8" y="-0.8" fill="#FFEFA0" width="500.8" height="499.7"/>
<g>
	<defs>
		<rect id="SVGID_1_" x="-0.1" y="-0.1" width="500.1" height="500.1"/>
	</defs>
	<clipPath id="SVGID_2_">
		<use xlink:href="#SVGID_1_"  overflow="visible"/>
	</clipPath>
	<g opacity="0.2" clip-path="url(#SVGID_2_)">
		<polygon fill="#9F5216" points="71.9,138 69.3,135.3 53.8,141.1 54.5,128.5 50.5,128.5 46.6,145.4 36.1,149.7 36.1,128.5 
			17.7,128.5 17.7,154.3 6.8,134.3 8.7,126.7 5.6,125.2 4.6,131 -7.5,122.3 -10.2,125.2 1.6,136.8 17.7,173.3 17.7,372.6 
			36.1,372.6 36.1,162.7 		"/>
		<path fill="#EE713C" d="M-48.5,133.8c0,0-1.4-0.9-2.7-1.4c0-0.6-0.1-1.3-0.1-1.9c-2.2,0.2-3.9-0.9-3.9-3.1c7,0.7-0.6-7.1,0-9.5
			c4.1,1.6,10.3-0.7,7.9-7.3c-1.4-3.8-11.9-4.6-7.6-11.2c2.9-4.5,6.9-0.6,5.7-7.8c-0.6-3.3-3.6-4.9,2-5.9c-3.3-3.7,0.6-5.1,1.2-7.8
			c0.5-2.3-2.5-4.8,1.3-7.4c3.1-2.1,5.1,1.1,8.3,0.1c5.3-1.6,1.6-6.5,2.4-11c1.4-0.1,5.3,0.7,6.4-0.4c1-1-0.2-2.4,0.5-3.3
			c1.1-1.6,2.3-3.6,3.5-5.2c2.1-2.7,1.4-3.1,4.6-5.2c1.2-0.8,0.6-2.8,2.3-3.2c1.6-0.4,4.7,1.4,6.1,2.2c3.9,2.4,3.1,2.1,3.5,6.8
			c0.3,2.9-0.3,7.3,2,9.4c0.8,0.7,4.7,1.2,5.6,0.7c2.6-1.6,0.1-2,1.5-4.4c1.5-2.5,2-2.9,5-4.2c-3.9-2.5,0-5.6,1.6-7.7
			c1.2-1.6-0.5-2.4,2-3.8c1.9-1.1,4.8-0.1,6.5,0.8c-0.4,3.3,4.1,8.4,6.6,5.2c1.6-2-3.2-8.3,2.4-8c-0.3-1.2,0.4-2.9,0.2-4.1
			c0.7,0.1,1.7-0.3,2.4-0.1c0.3-5.2,5.2-5.4,9.1-5.1c0.4,2.5,0.6,4.9,1.7,7.2c2.6,0.2,5.3,1.2,7.9,1.6c-1.6-5.6,2.5-13.1,7.5-7.3
			c-1.9-5.3,3.4-4.3,7-4c0.6,2.7,0.2,6.5,3.6,6.7c2.1,0.1,4.1-2.7,4.1-4.7c2.6-0.7,5.4-0.2,7.9-1.6c2.4,3.9-2.7,10.9,4.5,10.4
			c1.4-2.6,4.7-4.3,7.8-3.5c3.3,0.9,2.6,3.2,5.3,4.7c0.4,2.1,1.7,7.8,4.1,8.4c3.1,0.7,4.1-3.7,5.4-5.2c0.4,1,1.7,1.9,2.1,2.7
			c1.9-0.8,4-0.9,6-0.6c0.1,2-1.2,6.8-0.5,8.4c0.7,1.7,2.2,1,3,2.2c3.1,4.6,1.7,3.7,0.5,8.8c-0.9,3.5,0.9,7.3-0.4,10.5
			c-1.8,4.1-4.5,3.5-4.1,9.3c2.7-4.4,7.3-0.1,5.7,4c-0.5,1.4-3,0.3-3.6,2.3c-0.3,1.2,0.9,3.8,1.5,4.7c10.4-3,2.5,6.3,0.4,10.1
			c2.3,0.4,4.2,1.7,6.5,2.3c-0.6,2.8-3,5-3.4,7.7c5.2-0.7,5.5,5.2,3,8.4c0.3-0.3-4.2,2.2-4,2.1c-1.8,0.9-4.1,1.8-5.6,2.6
			c2.7-0.1,3.1,2.2,2.4,4.8c-2.4,0.9-4.9,1-7.3,1.6c1.6,6.1-5.4,7.7-9.7,5.3c-2,2.6-4.4-0.7-6.7-0.1c-6,1.5-1.1,4.2-1.5,8.4
			c-0.2,0-0.9-0.3-1-0.3c-2.3,3.5-1.3,6.4-5.7,8.3c-0.8-3.5-3.2-4.3-6.2-3.1c2.9,4.4-0.5,4.5-3.6,5c-1.9,0.3-6,2.5-6.6-1.4
			c-3.2,2.2-5.7,0.9-6.9-2.7c-0.9-2.7,1.4-4.9,0.9-8.8c-1.6-0.1-3.4,0.2-4.9,0.9c0.6-11.3-4.9-2.5-10.1-3.7c0.2-0.9-0.3-2.2-0.1-3
			c-1.8-0.3-3.7-0.1-5.4,0.6c1.3,3.4,0.1,7.4-4,7.2c0.3-1.2-0.4-2.9-0.1-4.1c-1-0.3-2.9-0.3-3.9,0c1.9,3.4-0.6,6.8-3.5,3.6
			c-3.5,4.1-4.3,0.1-5.9-3.1c-1.1,1.4-2.8,2.1-4.6,1.9c-0.6-2.9,0.3-6.5-3-7.6c-1.8,1.6-3.8,1.2-6,0.2c0-1.3-1.1-2.9-1.2-4.1
			c-1,0.8-2.5,0.5-3.4,0.9C2,131,1,129.5,0,125.7c-10.5-2.3-0.9,12.3-9.4,12.1c0,6.1-4.6,6.3-8.6,3.6c0.2,3.9-2.9,4.7-6,4.1
			c0.1-2.1,0.6-5.7-1.6-6.2c-2.7-0.7-1.6,3.2-4,3.2c-4.5,0.1-2.6-6.1-7.5-4.7c0,1.7-1,2.6-1.6,4.1c-1.7-0.7-3.1-2.6-3.9-4.1
			c-1.5,3.3-4.2,2.3-4.2-0.9c0,0.3-0.1,1.1,0,1.4L-48.5,133.8z"/>
	</g>
	<g opacity="0.5" clip-path="url(#SVGID_2_)">
		<polygon fill="#9F5216" points="143,124.4 143,161.2 122.7,118 117.2,124.4 143,176.2 143,404.6 168.3,405.3 163.3,146.2 
			172.3,130.6 170.7,121.3 161.9,132.2 160.4,108.6 142.5,108.6 		"/>
		<path fill="#F6A24F" d="M57.6,126.1c-3.2-1.9,2.2-3.2,1.6-5.8c-0.5-2-3.3-1-3.5-2.5c-0.2-1.6,1.1-1.5,1.3-2.8
			c0.2-1.1,2.2-1.4,2.3-3.2c0.1-2.1-1.6-2.5-2.3-4.1c-0.8-2-3.9-5.4,1.1-5.9c0-2.5-0.4-6.1-3.8-5.9c-0.3-0.9-0.3-2.6,0-3.5
			c3.5-0.2,4.7-2.5,3.2-5.3c-6.7-0.8-3.9-3.6-3.3-7.9c1.8,0,3-0.9,4.4-2.2c-1-0.8-0.6-1.6-2.1-2.2c0.8-2.6,2.4-6.2,6.1-5.8
			c0.5-2.4-0.7-4.5-2.3-6.3c0.9-0.3,1.7-1.4,2.8-1.6c0.9-4.8-4.5-6.6,0-10.6c2.9-2.6,7.2-1.3,4.2-6.6c7.3,3.1,2.5-4.3,2.7-5.9
			c0.8-5,5.4-1.9,9.1-3.3c0.1-4-4-3.9-1.2-7.3c0.7-0.8,4.4-1.7,5.3-2.1c0.9-0.4,0.5-2.2,1.8-2.5c2.5-0.7,5.3,2.1,7.9,0.9
			c2-1,2.4-5.1,4.1-6.7c2.4,0.1,4,1.4,4.6,3.6c1.4,0.8,2.9,0.9,4.4,0.5c0.3-4.1,2-7.5,5.8-9.7c1.7,8.7,12.9,2.4,11.9-4.7
			c3.4,0.7,7.8-0.2,12-0.2c4.8,0,8.4,3.4,11.9,3.1c0-1.2,1-2.1,0.9-3.1c9.2,0.2,24-3.3,28.5,5.9c8.2-5.8,10.7-2.5,16.3,3.7
			c4.7-3,10.3-3,13,2.6c2.7,5.5-0.2,7,8,8c1,2.7,2.7,5.2,4.2,7.7c1.8,0,3.8,0.3,5.6-0.1c2.5,2.6,2.4,4.5,2.4,7.5
			c8.5-0.1-0.7,9.5,1.2,13.2c4-0.8,8.6,3.1,4.7,6.3c12.5,6.8-2.5,5.8-0.2,13.2c9.4,0.4-1.4,12.8,6.7,11.7c-0.4,1.7-0.3,3.1-1.6,4.6
			c2.6,0.4,4,3.3,2.4,5.4c-1.2,1.7-6.2,1.1-8.1,1.1c2.2,2.4,1.6,5.1,0.4,7.7c-2.6,0.5-5.2-0.7-7.2-2c-0.4,7-1.4,4.4-7.4,6.4
			c0.3,2.2,3.3,5,2.1,7.3c-1.4,2.7-4.1,0.7-5.6,3.2c-1.2,2,2.3,3.6,0,6.2c-0.3,0.4-5.5,0.4-6.9,1.6c-1.2-1.8-2.4-1.8-4.5-0.9
			c1.2,1.2,1,2.3,1.6,3.5c-1.9-0.8-3.5-0.2-4.5,1.7c2.1,1.3,2.3,2.9,0.2,4.1c-1.3-1.1-3.2-1.4-5.2-0.9c0.1,2.9-2.7,5.1-5.8,4
			c-3.4-1.1-2.2-4.5-5.6-5.7c0.4,0.8,0.2,1.8,0.4,2.5c-2.7,1-6,1-8.4-0.5c0.4-7.5-3.6-5.6-8.1-9.9c1.1-2.4,1.7-6.7-2.1-6.8
			c0.4,2.2-1,4.3-3,5.2c0,0.4,0.1,0.4,0.1,0c-0.9-1.9-2.8-2.6-5.1-2.1c-1.3,2.6-6.6,3.2-5.9-1.1c-5.3-0.1-2.3,2.9-5,4.6
			c-2.5,1.6-4.8,2.4-4.7-1.4c-3-1-6.4-1.3-7.3,2c2.4,1.3,3.1,3.9,1.1,5.7c-5.5-2.8-3.4,3.1-3.9,3.7c-1.9,2.1-2.1,2.3-5.6,1.1
			c3.6,6.2-2.3,3.9-6.3,5.2c2.4,4.5-3.5,5.8-5.3,1.7c-3.8,3.3-1.8,6-7.1,3.5c-2.7-1.3-0.1-2.7-4.1-2c-1,0.2-1.1,3-4.4,2
			c-1.7-5.3-6.8-2.4-7-9.3c-6.4,4.1-3.9-4.5-8.9-3.7c-0.4,5.5-3.6,0.5-4,0.4c-2.1-0.4-2.9-0.8-5.6-0.1c-0.1-2-0.8-2.8-2.8-3.6
			c-0.5,3.1-2.6,2.9-4.7,1.6c-1.5-1,1.1-5.3-1.1-4.3L57.6,126.1z"/>
	</g>
	<g opacity="0.5" clip-path="url(#SVGID_2_)">
		<path fill="#9F5216" d="M349.1,421.6c0,0,0-189.7,0-222.6s0-85.2,0-85.2H372v39.4l14.6-31.8l7.3,4.9l-9,18.9l9.5-1.6l-0.4,7.6
			l-10.4,1.1l-6.4,18.4l-1.8,251L349.1,421.6z"/>
		<path fill="#F9BF4B" d="M452.3,155.9c6.2-3.6-7.5-7.8,0.2-13.2c0.3,0.8,1.2,1.5,1.5,2.6c6.5-0.4,0-9.6,2.7-13.3
			c1.9-2.6,5.9-1.3,6.1-5.4c0.1-0.9-3.4-5.1-3.6-7.2c1.9,1.2,4.2,2.1,6.4,1.3c-0.2-2.2-1.1-4.5-2.2-6.4c1.2-0.3,2.9-1.7,4.4-1.8
			c-0.8-2.9-3.4-4.4-4.7-6.8c16.8,1.4-0.9-11.4-1.6-15.4c3.1-1,6.8-0.8,8.1-4.1c-3.2-1.3-6.4-5.6-2.5-7.6c-3.7-1.2-5.2-5.2-6-9
			c11.7-0.6-3.1-7.5-4.6-12.7c2.7-1,5-2.8,7.8-3.5c-1.7-2.5-2.4-6.8-4.2-8.9c-2.6-3.2-5.1-2.3-8.6-3.9c2.5-1.8,3.4-8.1,0.3-10.2
			c-1-0.7-4.1,1.5-5.4,1.1c-2.2-0.6-4.2-2.8-5.4-4.5c6.6-3.1,6.7-5.7,3.2-11.1c-3.1-4.8-7.8-3.4-10.4-6.6c7-4.3-12.5-17.6-11.5-2.2
			c-2.6,0.4-5.3-0.2-8,0.2c-0.6-4.4-3.6-7.5-8-6.5c0.3,3.7-3,4.7-5.7,2.7c-3.7-2.7-0.6-4.2-0.2-7.5c0.4-4.2,0-10.3-5.9-11.2
			c0.7-7.5-7.8-5.5-12.4-4.1c1,4.7-0.3,6.5-5.2,6.9c-2.5-8.7-4.9-10.6-12.6-4.2c-0.9-6-5.3-10.1-12.5-4.8c0.6,2,0.8,3.9,0.7,6
			c-9.3,3.9-7.4-4.5-10.8-9.6c-1.5,0.5-4.9,1.7-6.5,1c-3-1.4-0.3-2.3-2-4.6c-3.2-4.5-5.5-5.9-10.4-1.6c0.3,3.4,0.2,8.2-4.1,8.4
			c-1.7-3.5-3.7-0.5-5.7-2.3c-1-0.9,0.5-2.8-0.4-3.6c-0.9-0.7-2.3-0.8-2.8-1.1c-5.5-4.2-9.3-2.1-10.4,4c-0.7,3.8,1.4,3.4-2.1,6.2
			c-1.6,1.3-4.7,1.2-5.8,2.8c-2.9,4.3,2.2,10.5-5.1,11.7c-2.4,0.4-2.7-2.8-5.9-1.3c-2.6,1.2-2,3.7-3,5.4c-1.6,2.9,0.8,3.8-4.2,4.9
			c-2.4,0.5-3.3-1.7-6.7-0.8c-9.1,2.4-2.4,6.9-2,11.3c0.4,4.5-4.4,8.5-8.9,9.4c1.3,1.9,2.1,4.4,2.3,6.8c-5.2,1.7-8.3-0.7-5.9,6.6
			c-1-0.2-2.5,0.5-3.5,0.4c2.4,4.5-0.8,5.9-4.8,5.7c0.8,3.2,3.1,5.7,3.5,9.1c-7.7,2.4-9.1,3.5-6.2,11.6c2.8-0.7,5.8-1.2,7.3,1.6
			c2.7,5.1-2.3,4.3-3.8,6.7c-3.8,6.1,1.2,14.3,9,8.8c-0.9,0.1-1.8,0.5-2.7,0.8c2,3.9,2.8,8.8,4.1,13.2c6.3-8.8,9.4-6.2,11.3,2.8
			c-7.6,1.3-9.7,7.6-2.6,12.1c-4.6,5.2,3.4,9.2,7.7,9.4c6.1,0.3,11.3-3,17.3-3.9c-1.2,8.7,13.8,17.8,15,8.6
			c3.1,2.2,7.2,2.8,11.1,1.5c1.1,3.8,1.6,9.1,6.1,10.2c4.3,1.1,7.2-4.1,9.9,1.8c4.2-0.8,8-3,12.1-3.6c0.8,2.5,1.1,8,4.3,8.8
			c3.7,0.9,4.3-4.3,7.7-2.6c2.4-3.6,3.4-3.4,6.5-4.2c0.5-0.1,2.6,1.2,3.9,0.9c1.1-0.2,0.7-2.2,1.8-2.6c7.3-2.4,6.1,0.7,12.8,3.7
			c0.7-3.8,4.9-5.1,7.9-4.6c5.6,0.9,6,4,6.4,7.4c0.5,5.3-5.2,11.6,4.1,11.5c-0.6,2.1-0.4,4.5,0.6,6.6c0.8-0.4,1.8-0.4,2.7-1
			c0.1,3.8,3.2,4.7,6.5,5.1c5.7-7.1,6.5,2.7,11,2.8c2.7,0,2.6-3.1,4.4-4.3c2.7-2,5.5-1.5,7.5-4.9c4.6,7.8,8.2-2.1,13-3.6
			c0.3,2.5,1.6,1.3,1.7,1.4C445.8,155.1,449,157.9,452.3,155.9z"/>
	</g>
	<g opacity="0.2" clip-path="url(#SVGID_2_)">
		<polygon fill="#9F5216" points="462.2,155.7 462.2,187 445,150.3 440.3,155.7 462.2,199.7 462.2,394.2 483.8,394.8 479.6,174.2 
			487.2,161 485.8,153 478.3,162.3 477.1,142.2 461.8,142.2 		"/>
		<path fill="#F6A24F" d="M389.6,157.1c-2.8-1.7,1.9-2.7,1.3-4.9c-0.4-1.7-2.8-0.9-2.9-2.1c-0.2-1.3,0.9-1.3,1.1-2.4
			c0.2-0.9,1.9-1.2,1.9-2.7c0.1-1.8-1.4-2.1-1.9-3.5c-0.7-1.7-3.4-4.6,0.9-5c0-2.1-0.3-5.2-3.3-5c-0.3-0.7-0.3-2.2,0-3
			c3-0.1,4-2.2,2.8-4.5c-5.7-0.7-3.3-3.1-2.8-6.8c1.5,0,2.5-0.7,3.8-1.8c-0.8-0.7-0.5-1.3-1.8-1.9c0.7-2.2,2-5.3,5.2-4.9
			c0.5-2-0.6-3.8-1.9-5.3c0.7-0.3,1.4-1.2,2.4-1.4c0.8-4.1-3.8-5.6,0-9c2.5-2.2,6.2-1.1,3.6-5.7c6.3,2.7,2.1-3.7,2.3-5
			c0.7-4.2,4.6-1.6,7.7-2.8c0.1-3.4-3.4-3.3-1-6.2c0.6-0.7,3.7-1.4,4.5-1.8c0.7-0.3,0.4-1.8,1.6-2.2c2.1-0.6,4.5,1.8,6.7,0.7
			c1.7-0.8,2.1-4.4,3.5-5.7c2,0.1,3.4,1.2,3.9,3c1.2,0.7,2.5,0.8,3.7,0.4c0.2-3.5,1.7-6.4,5-8.3c1.4,7.4,11,2,10.1-4
			c2.9,0.6,6.7-0.2,10.2-0.2c4.1,0,7.1,2.9,10.1,2.6c0-1,0.8-1.8,0.8-2.7c7.9,0.2,20.5-2.8,24.2,5c7-4.9,9.1-2.2,13.9,3.2
			c4-2.5,8.8-2.5,11.1,2.2c2.3,4.6-0.1,6,6.8,6.8c0.9,2.3,2.3,4.4,3.6,6.6c1.6,0,3.2,0.3,4.8-0.1c2.1,2.2,2.1,3.9,2,6.4
			c7.2,0-0.6,8.1,1,11.2c3.4-0.6,7.3,2.7,4,5.4c10.7,5.8-2.1,5-0.1,11.3c8,0.3-1.2,10.9,5.7,10c-0.4,1.4-0.3,2.7-1.4,3.9
			c2.2,0.4,3.4,2.8,2.1,4.6c-1.1,1.4-5.2,0.9-6.9,1c1.9,2.1,1.3,4.3,0.4,6.6c-2.2,0.5-4.5-0.6-6.1-1.7c-0.3,6-1.2,3.7-6.3,5.4
			c0.2,1.9,2.8,4.2,1.8,6.2c-1.2,2.3-3.5,0.6-4.8,2.7c-1,1.7,1.9,3.1,0,5.3c-0.3,0.3-4.6,0.4-5.9,1.4c-1-1.5-2-1.5-3.8-0.8
			c1,1,0.8,2,1.4,3c-1.6-0.7-3-0.2-3.9,1.4c1.8,1.1,1.9,2.4,0.2,3.5c-1.1-0.9-2.8-1.2-4.4-0.8c0.1,2.4-2.3,4.3-4.9,3.4
			c-2.9-1-1.9-3.8-4.8-4.8c0.3,0.7,0.2,1.5,0.4,2.1c-2.3,0.9-5.1,0.8-7.1-0.4c0.3-6.4-3.1-4.8-6.9-8.4c0.9-2,1.4-5.7-1.8-5.8
			c0.3,1.9-0.9,3.6-2.5,4.5c0,0.3,0,0.3,0.1,0c-0.8-1.6-2.4-2.2-4.3-1.8c-1.1,2.2-5.6,2.7-5-0.9c-4.5-0.1-2,2.5-4.2,3.9
			c-2.1,1.3-4,2-4-1.2c-2.6-0.9-5.5-1.1-6.2,1.7c2.1,1.1,2.7,3.3,0.9,4.9c-4.7-2.4-2.9,2.6-3.4,3.2c-1.6,1.8-1.8,1.9-4.8,1
			c3.1,5.3-1.9,3.4-5.3,4.4c2,3.9-3,4.9-4.5,1.4c-3.2,2.8-1.5,5.1-6.1,3c-2.3-1.1-0.1-2.3-3.5-1.7c-0.9,0.1-0.9,2.6-3.8,1.7
			c-1.4-4.5-5.8-2.1-6-7.9c-5.4,3.5-3.3-3.8-7.6-3.1c-0.3,4.7-3.1,0.4-3.4,0.4c-1.8-0.3-2.5-0.7-4.8,0c-0.1-1.7-0.7-2.4-2.4-3
			c-0.4,2.6-2.2,2.5-4,1.3c-1.3-0.8,1-4.5-0.9-3.6L389.6,157.1z"/>
	</g>
	<g opacity="0.2" clip-path="url(#SVGID_2_)">
		<path fill="#9F5216" d="M235.6,399.5c0,0,0-161.5,0-189.5c0-27.9,0-72.5,0-72.5h-19.5V171l-12.5-27.1l-6.2,4.1l7.7,16.1l-8.1-1.4
			l0.4,6.4l8.9,0.9l5.5,15.6l1.5,213.7L235.6,399.5z"/>
		<path fill="#F9BF4B" d="M147.7,173.3c-5.2-3.1,6.4-6.7-0.2-11.3c-0.2,0.7-1,1.3-1.3,2.2c-5.5-0.4,0-8.2-2.3-11.3
			c-1.6-2.2-5-1.1-5.2-4.6c0-0.8,2.9-4.3,3-6.1c-1.6,1-3.6,1.8-5.5,1.1c0.2-1.9,0.9-3.8,1.8-5.4c-1-0.2-2.4-1.5-3.8-1.6
			c0.7-2.5,2.9-3.7,4-5.8c-14.3,1.2,0.8-9.7,1.3-13.1c-2.7-0.8-5.8-0.7-6.9-3.5c2.7-1.1,5.4-4.7,2.1-6.5c3.1-1,4.4-4.5,5.1-7.6
			c-9.9-0.5,2.6-6.3,3.9-10.8c-2.3-0.9-4.2-2.4-6.6-3c1.5-2.1,2.1-5.8,3.6-7.6c2.2-2.7,4.4-1.9,7.3-3.3c-2.1-1.5-2.9-6.9-0.2-8.7
			c0.9-0.6,3.5,1.2,4.6,0.9c1.9-0.5,3.6-2.4,4.6-3.9c-5.6-2.6-5.7-4.8-2.7-9.4c2.7-4.1,6.6-2.9,8.8-5.6c-6-3.7,10.7-15,9.8-1.9
			c2.2,0.4,4.5-0.2,6.8,0.2c0.5-3.7,3-6.4,6.8-5.6c-0.3,3.2,2.6,4,4.9,2.3c3.2-2.3,0.5-3.6,0.2-6.4c-0.4-3.6,0-8.8,5-9.6
			c-0.6-6.4,6.6-4.7,10.5-3.5c-0.8,4,0.2,5.5,4.4,5.9c2.1-7.4,4.2-9,10.8-3.6c0.8-5.1,4.5-8.6,10.6-4c-0.5,1.7-0.7,3.3-0.6,5.1
			c7.9,3.3,6.3-3.8,9.2-8.2c1.3,0.4,4.2,1.5,5.5,0.8c2.6-1.2,0.3-1.9,1.7-3.9c2.7-3.8,4.7-5,8.9-1.3c-0.2,2.9-0.1,7,3.5,7.2
			c1.4-2.9,3.1-0.4,4.8-2c0.9-0.8-0.4-2.4,0.3-3c0.7-0.6,1.9-0.7,2.3-1c4.7-3.6,7.9-1.8,8.9,3.4c0.6,3.3-1.2,2.9,1.8,5.3
			c1.4,1.1,4,1,4.9,2.3c2.5,3.7-1.9,9,4.4,9.9c2.1,0.3,2.3-2.4,5-1.1c2.2,1,1.7,3.1,2.5,4.6c1.4,2.5-0.7,3.2,3.6,4.2
			c2.1,0.5,2.8-1.4,5.7-0.7c7.7,2.1,2.1,5.9,1.7,9.6c-0.4,3.9,3.7,7.2,7.6,8c-1.1,1.6-1.8,3.8-2,5.8c4.4,1.5,7.1-0.6,5,5.6
			c0.9-0.2,2.1,0.5,3,0.4c-2,3.8,0.7,5,4.1,4.9c-0.7,2.8-2.6,4.8-3,7.7c6.6,2,7.7,3,5.3,9.9c-2.4-0.6-4.9-1-6.2,1.4
			c-2.3,4.3,2,3.7,3.2,5.7c3.2,5.2-1,12.2-7.7,7.5c0.8,0.1,1.6,0.4,2.3,0.7c-1.7,3.3-2.4,7.5-3.5,11.2c-5.4-7.5-8-5.2-9.6,2.4
			c6.5,1.1,8.3,6.5,2.2,10.3c3.9,4.5-2.9,7.8-6.6,8c-5.2,0.2-9.7-2.5-14.7-3.3c1,7.4-11.7,15.1-12.8,7.3c-2.7,1.9-6.1,2.4-9.4,1.3
			c-0.9,3.3-1.4,7.7-5.2,8.7c-3.6,0.9-6.1-3.5-8.5,1.6c-3.6-0.6-6.8-2.6-10.3-3.1c-0.7,2.1-0.9,6.8-3.6,7.5
			c-3.2,0.8-3.6-3.6-6.6-2.2c-2-3.1-2.9-2.9-5.5-3.6c-0.5-0.1-2.2,1-3.3,0.8c-0.9-0.2-0.6-1.9-1.5-2.2c-6.2-2-5.2,0.6-10.9,3.1
			c-0.6-3.2-4.1-4.3-6.8-3.9c-4.7,0.7-5.1,3.4-5.4,6.3c-0.5,4.5,4.4,9.9-3.5,9.8c0.5,1.8,0.4,3.8-0.5,5.6c-0.7-0.4-1.6-0.4-2.3-0.9
			c-0.1,3.2-2.7,4-5.5,4.3c-4.9-6-5.5,2.3-9.4,2.3c-2.3,0-2.2-2.6-3.7-3.7c-2.3-1.7-4.7-1.3-6.4-4.2c-3.9,6.7-7-1.8-11.1-3
			c-0.3,2.1-1.4,1.1-1.5,1.2C153.3,172.7,150.6,175,147.7,173.3z"/>
	</g>
	<g clip-path="url(#SVGID_2_)">
		<polygon fill="#9F5216" points="328.4,91.4 323.6,86.6 294.6,96.9 296,74.3 288.5,74.3 281.2,104.7 261.5,112.3 261.5,74.3 
			227.3,74.3 227.3,120.6 206.8,84.8 210.5,71.1 204.6,68.5 202.7,78.9 180.3,63.4 175.1,68.5 197.2,89.2 227.3,154.5 227.3,511.3 
			261.5,511.3 261.5,135.5 		"/>
		<path fill="#EE713C" d="M103.6,83.8c0,0-2.6-1.6-5-2.5c-0.1-1.1-0.3-2.4-0.2-3.4c-4.1,0.4-7.3-1.5-7.2-5.6
			c13.1,1.3-1.2-12.8,0-16.9c7.7,2.9,19.2-1.3,14.8-13c-2.6-6.9-22.3-8.2-14.2-20.1c5.4-8,13-1.1,10.6-14c-1.1-5.9-6.7-8.8,3.6-10.5
			c-6.1-6.7,1.1-9.1,2.3-14c1-4.1-4.7-8.5,2.5-13.2c5.8-3.8,9.4,1.9,15.6,0.2c10-2.9,3-11.6,4.5-19.7c2.6-0.1,9.9,1.3,12-0.7
			c1.8-1.7-0.4-4.3,0.9-5.9c2.1-2.8,4.2-6.4,6.6-9.3c3.9-4.9,2.6-5.5,8.7-9.4c2.2-1.4,1.1-4.9,4.4-5.8c3-0.8,8.8,2.4,11.3,3.9
			c7.4,4.3,5.7,3.7,6.6,12.2c0.5,5.2-0.6,13.1,3.7,16.7c1.6,1.3,8.7,2.2,10.4,1.2c4.9-2.8,0.1-3.7,2.8-7.9c2.8-4.5,3.7-5.1,9.3-7.5
			c-7.2-4.5,0-10,2.9-13.8c2.2-2.9-0.8-4.2,3.7-6.9c3.6-2,8.9-0.2,12.2,1.4c-0.7,5.9,7.6,15,12.4,9.3c3-3.6-6.1-14.8,4.5-14.3
			c-0.5-2.1,0.8-5.2,0.3-7.2c1.3,0.1,3.1-0.5,4.4-0.3c0.6-9.2,9.7-9.6,16.9-9.1c0.8,4.4,1.1,8.8,3.1,12.9c4.9,0.4,10,2.2,14.7,2.8
			c-2.9-10,4.7-23.5,14.1-13.1c-3.6-9.5,6.3-7.7,13.1-7.2c1.1,4.9,0.3,11.6,6.8,12.1c3.9,0.3,7.7-4.8,7.6-8.3
			c4.9-1.3,10.1-0.4,14.7-2.9c4.5,6.9-5,19.5,8.5,18.5c2.6-4.7,8.7-7.7,14.5-6.2c6.2,1.5,4.8,5.7,9.9,8.4c0.7,3.8,3.2,14,7.6,14.9
			c5.8,1.3,7.6-6.7,10.2-9.3c0.7,1.7,3.3,3.3,4,4.8c3.5-1.4,7.4-1.6,11.2-1c0.2,3.6-2.1,12.1-0.9,15c1.4,3.1,4.2,1.7,5.7,3.9
			c5.7,8.2,3.2,6.6,0.9,15.7c-1.6,6.2,1.7,13.1-0.8,18.8c-3.3,7.4-8.3,6.3-7.6,16.6c5.1-7.9,13.6-0.2,10.7,7.1
			c-1,2.4-5.7,0.6-6.7,4.2c-0.6,2.1,1.7,6.7,2.9,8.4c19.4-5.4,4.7,11.3,0.8,18c4.3,0.8,7.9,3.1,12.1,4.1c-1.2,5-5.7,8.9-6.4,13.8
			c9.6-1.2,10.3,9.3,5.6,15c0.5-0.6-7.8,3.9-7.4,3.7c-3.4,1.6-7.7,3.2-10.4,4.7c5.1-0.2,5.8,3.9,4.5,8.5c-4.5,1.6-9.2,1.8-13.6,2.9
			c2.9,10.9-10,13.8-18,9.5c-3.8,4.7-8.1-1.3-12.6-0.2c-11.2,2.7-2,7.6-2.8,15c-0.4,0-1.7-0.6-1.9-0.6c-4.3,6.3-2.4,11.4-10.7,14.8
			c-1.5-6.2-6-7.7-11.5-5.5c5.4,7.9-0.9,8.1-6.7,9c-3.6,0.6-11.3,4.6-12.4-2.5c-6,4-10.6,1.6-12.9-4.8c-1.8-4.9,2.6-8.9,1.7-15.8
			c-3.1-0.2-6.3,0.4-9.1,1.6c1.2-20.3-9.1-4.5-18.9-6.6c0.4-1.6-0.5-3.9-0.2-5.4c-3.4-0.5-6.9-0.1-10.1,1c2.5,6.1,0.1,13.3-7.5,12.9
			c0.5-2.2-0.7-5.1-0.2-7.3c-1.9-0.5-5.4-0.6-7.3,0c3.6,6.2-1.2,12.2-6.6,6.5c-6.5,7.4-8.1,0.2-11.1-5.5c-2.1,2.5-5.3,3.8-8.6,3.4
			c-1.1-5.1,0.5-11.7-5.6-13.7c-3.3,2.9-7.2,2.1-11.1,0.4c0-2.3-2.1-5.2-2.2-7.3c-1.8,1.4-4.7,0.9-6.4,1.7
			c-3.1-6.3-4.9-8.9-6.9-15.7c-19.5-4-1.7,22-17.6,21.6c0,10.9-8.6,11.3-16,6.5c0.3,6.9-5.4,8.5-11.3,7.3c0.1-3.7,1.1-10.2-2.9-11.1
			c-5.1-1.2-3,5.7-7.5,5.7c-8.4,0.2-4.9-10.9-13.9-8.4c-0.1,3-1.9,4.7-2.9,7.3c-3.2-1.3-5.7-4.7-7.3-7.4c-2.8,5.9-7.8,4-7.8-1.6
			c0,0.6-0.3,2,0,2.5L103.6,83.8z"/>
	</g>
	<path clip-path="url(#SVGID_2_)" fill="#C17C12" d="M126.7,411.3c-0.8-4.9,2.2-6,6.2-5.6c1.9,0.2,2.5,1.4,4.2-0.3
		c1.3-1.3,0.2-3,1.3-4.2c2.9-3.1,6.1,0.3,8.9,0.7c4.9,0.7,5.8-5.8,10.1-5.9c4.5-0.1,3,6.6,8.7,3.5c4.6-2.5,2-5.7,2-9.3
		c-0.1-9.5,12.2,0,12.7-8.6c0.2-3.6-1.3-5.7,3.9-7.1c3-0.8,6.9,0,7.9,3.3c5.5,0.8,4.9-2.1,5.5-6.1c0.8-5.5,4.8-3,9-3.9
		c3.6-0.8,3.7-5.1,8.2-6.1c4.6-1.1,9-0.4,10.3,4.1c0.4,1.2,0,3,1,3.7c1.7,1.2,4.9-1,6.6-1.3c4.1-0.7,5.6,1.4,6.2,5.1
		c0.7,5.2,0.8,7.2,6.6,5.5c4-1.2,10-3,12,2.3c1.4,3.9-4.9,5.7,0.3,9.7c4.2,3.2,7.1-1.1,11.7-0.7c6.2,0.6,8.3,3.4,7.5,9
		c-0.7,4.5-0.1,4.5,3.9,4.5c10.6-0.1-1.5,11.3,6.9,10.1c1.6-0.2,2.7-1.5,5.1-1.1c1.7,0.3,7.5,2.5,7.9,4.4c0.5,2.2-5.4,6.9,1.1,6.5
		c3.7-0.2,5.2-4.4,7.8,1c1.4,2.8-0.4,5.8,1.5,7.9c3,3.3,6.5-0.9,9.6,2.1c1.7,1.6,0.9,5.5,3.4,6.2H86.5c0,0-1.4-8.6,4.8-8.6
		c6.2,0,9.6,1.4,9.3-3.8c-0.3-5.2-4.8-7,0.3-7.8c5.2-0.8,6.5,3.9,8.9,0c2.4-3.9-2.1-7,2.8-7.7C117.5,412.3,127.8,417.5,126.7,411.3z
		"/>
	<path clip-path="url(#SVGID_2_)" fill="#C17C12" d="M553.6,426.7c-4.1,1.2-6.1-5-10.3-2.7c1.7-8.4-7.2-7.3-13.4-6.6
		c0.9-8.5-1.9-13.6-12.7-9.2c0.4-3.2,1.9-7.4-0.7-10c-2.3-2.4-6.3-2.5-7.6-0.4c0.1-3.4,0.7-7.1-2.2-9.4c-7.9,7.6-5.6-4.1-6-7.2
		c-1.1-9.1-6.9-1.8-12.8-5.9c4.1-4.3,3.6-14.4-5-13.4c-1.6-9.4,6.8-19.7-11.9-17.7c0.5,3.8,3.1,9.4-3,10.4c0.3-1.3-0.4-3.1-0.2-4.4
		c-4-0.1-10.1,0.4-11.8,3.2c-1.9,3,1.3,6-2.2,8.7c-2.7-6-10.6-4.4-17.1-2.6c0.8,9.1-3.5,7.3-9.8,7.8c-6.8,0.6-12.8,6.7-3.1,9.4
		c-1.6,1.2-4,1.9-6.5,1.9c-0.5,4.4,6.9,16.3-4.5,15c-0.9-7.4-9.8,0.9-14.2,0.7c0-3.9-3.9-4.8-7.5-3.1c0.8,3.7-0.7,7.7-5.2,5.7
		c2.8-6.2-4-3.2-6.1-5.6c-3-3.5,1-3.9-0.7-7.5c-1.5-3.1-4.7-4.9-9-4c-5.6,1.2-5.2,4.8-5.8,8.6c-1.5-3.1-6.4-2.4-8.3,0.7
		c-1,1.7,2.3,4.1,1.4,6.6c-2,5.6-6.9,0.8-13.3,2.8c-0.2,3.5,0.4,8.3-1.6,11.1c-2.3,3.3-6.9,4.9-7.6-1.2c-9.1-0.7-7.8,5.7-9.9,10.4
		c-16.2-5-3.9,10-17.5,9.4c0.2,2-0.7,5-0.9,5.2h256.7C563.6,433.3,562.2,424.2,553.6,426.7z"/>
	<g clip-path="url(#SVGID_2_)">
		<polygon fill="#9F5216" points="64.4,59.1 64.4,111.4 31.1,50 22,59.1 64.4,132.6 64.4,457.1 106.2,458.1 98,90 112.9,67.9 
			110.1,54.6 95.7,70.1 93.2,36.6 63.7,36.6 		"/>
		<path fill="#F6A24F" d="M-76.3,65.6c-5.3-3.5,3.6-5.7,2.6-10.3c-0.8-3.5-5.4-1.8-5.7-4.5c-0.3-2.8,1.7-2.7,2.2-4.9
			c0.4-2,3.6-2.5,3.8-5.6c0.2-3.7-2.6-4.5-3.7-7.3c-1.4-3.6-6.5-9.6,1.7-10.5c-0.1-4.5-0.6-10.8-6.3-10.5c-0.5-1.6-0.5-4.7,0-6.3
			c5.7-0.3,7.8-4.5,5.4-9.4c-11.1-1.5-6.4-6.5-5.4-14.1c3,0,4.9-1.6,7.3-3.9c-1.6-1.5-1-2.8-3.5-3.9c1.4-4.7,4-11.1,10-10.3
			c0.9-4.2-1.1-8-3.8-11.2c1.4-0.6,2.8-2.5,4.7-2.9c1.5-8.6-7.4-11.7,0-18.9c4.8-4.7,11.9-2.2,6.9-11.8c12.1,5.6,4.1-7.7,4.5-10.4
			c1.3-8.9,9-3.3,14.9-5.8c0.2-7.1-6.6-7-2-13c1.1-1.5,7.3-3,8.7-3.7c1.4-0.7,0.9-3.9,3-4.5c4-1.2,8.7,3.8,13,1.5
			c3.3-1.8,4-9.1,6.7-12c3.9,0.2,6.6,2.4,7.5,6.3c2.3,1.4,4.8,1.7,7.2,0.9c0.4-7.3,3.3-13.4,9.6-17.3c2.7,15.4,21.3,4.3,19.6-8.5
			c5.6,1.2,12.9-0.4,19.8-0.4c8,0.1,13.8,6.1,19.6,5.5c0.1-2.1,1.6-3.8,1.5-5.6c15.2,0.3,39.6-5.8,46.9,10.4
			c13.5-10.3,17.6-4.5,26.9,6.6c7.8-5.3,17-5.3,21.4,4.6c4.4,9.7-0.3,12.5,13.1,14.2c1.7,4.9,4.4,9.3,6.9,13.8
			c3-0.1,6.2,0.5,9.2-0.2c4.2,4.6,4,8.1,3.9,13.3c14-0.1-1.2,17,1.9,23.5c6.6-1.3,14.1,5.6,7.7,11.2c20.6,12.1-4.1,10.4-0.3,23.5
			c15.5,0.7-2.2,22.8,11,20.9c-0.7,3-0.5,5.6-2.6,8.2c4.2,0.8,6.6,5.8,4,9.6c-2.1,3-10.2,1.9-13.3,2c3.7,4.3,2.6,9,0.7,13.8
			c-4.2,1-8.6-1.2-11.9-3.5c-0.6,12.5-2.4,7.8-12.3,11.3c0.4,3.9,5.4,8.8,3.4,13c-2.3,4.9-6.8,1.3-9.2,5.6c-2,3.6,3.8,6.4,0.1,11.1
			c-0.5,0.6-9,0.8-11.4,2.9c-1.9-3.2-3.9-3.1-7.4-1.6c2,2.1,1.6,4.1,2.6,6.2c-3.1-1.4-5.8-0.4-7.5,3c3.5,2.3,3.7,5.1,0.4,7.3
			c-2.2-2-5.3-2.5-8.6-1.6c0.2,5.1-4.4,9-9.5,7.2c-5.6-2-3.6-8-9.3-10.1c0.7,1.5,0.3,3.1,0.7,4.5c-4.5,1.8-9.9,1.7-13.8-0.9
			c0.6-13.3-6-10-13.4-17.7c1.7-4.2,2.7-12-3.5-12.1c0.6,4-1.7,7.6-4.9,9.3c0,0.7,0.1,0.7,0.1,0c-1.6-3.4-4.6-4.6-8.4-3.7
			c-2.1,4.7-10.9,5.6-9.7-1.9c-8.8-0.1-3.9,5.2-8.2,8.2c-4.1,2.8-7.8,4.3-7.7-2.5c-5-1.8-10.6-2.3-12,3.6c4,2.3,5.1,7,1.8,10.2
			c-9.1-5-5.5,5.5-6.5,6.7c-3.1,3.7-3.5,4.1-9.3,2c6,11.1-3.7,7-10.4,9.2c3.9,8.1-5.8,10.3-8.8,3c-6.2,5.9-2.9,10.7-11.8,6.2
			c-4.5-2.3-0.1-4.7-6.8-3.6c-1.7,0.3-1.8,5.4-7.3,3.6c-2.7-9.4-11.2-4.4-11.6-16.6c-10.5,7.3-6.4-8-14.7-6.6
			c-0.6,9.9-6,0.9-6.7,0.8c-3.5-0.7-4.9-1.5-9.3-0.1c-0.2-3.6-1.4-5-4.7-6.3c-0.8,5.5-4.2,5.2-7.7,2.8c-2.5-1.7,1.8-9.4-1.8-7.6
			L-76.3,65.6z"/>
	</g>
	<g clip-path="url(#SVGID_2_)">
		<g>
			<path fill="#D1691D" d="M63.7,310.5c0,0-19.2-8-24.9,5.1c-5.7,13.1,6,23.9,6,42.8c0,18.9-0.7,57-0.7,57h8.7c0,0,2.8-45,6-63.1
				C61.9,334.3,64,317.4,63.7,310.5z"/>
			<polygon fill="#71160D" points="44.1,415.5 43.6,425.8 58.2,426.6 52.8,415.5 			"/>
			<path fill="#D1691D" d="M93.5,318.9c0,0-10.4,49.1-38.9,52.8l-2.2-46.3C52.4,325.4,69,300.7,93.5,318.9z"/>
		</g>
		<path fill="#D1691D" d="M154.7,311.3c0,0-19.2-8-24.9,5.1c-5.7,13.1,6,23.9,6,42.8s-0.7,57-0.7,57h8.7c0,0,2.8-45,6-63.1
			C152.9,335.1,155,318.2,154.7,311.3z"/>
		<polygon fill="#71160D" points="135.1,416.2 134.6,426.6 149.2,427.4 143.8,416.2 		"/>
		<path fill="#F08227" d="M129.2,237.3c0,0,5.4,35.4-10.8,42.8c-16.2,7.4-79.9-3.2-87.7,21.2c-7.7,24.4-17.7,44.7,33,44.7
			c50.7-0.1,72.6,8.7,85.2-15.4c12.7-24.1,13.1-73.8,13.1-85.7L129.2,237.3z"/>
		<path fill="#FBE5BD" d="M152.8,242.8l-10.4,2.2c0,0-5.2,35.1-8.5,71.5c-3.2,35.8-22.7,31.2-23.7,31.1c26.1,2.2,29.8,0,38.7-16.9
			c12.7-24.1,9.9-74.6,9.9-86.4L152.8,242.8z"/>
		<path fill="#71160D" d="M133.3,193.4c-0.7-1.4-2.9-6.1-2.7-11c0-1-0.7-1.8-1.7-1.8c-1,0-1.8,0.7-1.8,1.7c-0.1,3.6,0.8,7,1.7,9.5
			c-1.7-0.5-3.7-1.2-5.7-2c-1.1-1.1-5.9-6.8-4.8-15.7c0.1-1-0.6-1.8-1.5-2c-1-0.1-1.8,0.6-2,1.5c-0.7,5.6,0.6,10.1,2.2,13.3
			c-7.4-3.9-14.2-10-13.5-18.6c0.1-1-0.6-1.8-1.6-1.9c-1-0.1-1.8,0.6-1.9,1.6c-0.6,7.4,3,13.9,10.7,19.2c6.1,4.2,13.6,6.9,18.8,8.3
			c8.1,2.3,6.9,10.5,6.9,10.9c-0.2,1,0.5,1.8,1.5,2c0.1,0,0.2,0,0.3,0c0.8,0,1.6-0.6,1.7-1.5C140.3,203.5,139.5,196.7,133.3,193.4z"
			/>
		<path fill="#71160D" d="M161.6,193.4c0.7-1.4,2.9-6.1,2.7-11c0-1,0.7-1.8,1.7-1.8c1,0,1.8,0.7,1.8,1.7c0.1,3.6-0.8,7-1.7,9.5
			c1.7-0.5,3.7-1.2,5.7-2c1.1-1.1,5.9-6.8,4.8-15.7c-0.1-1,0.6-1.8,1.5-2c1-0.1,1.8,0.6,2,1.5c0.7,5.6-0.6,10.1-2.2,13.3
			c7.4-3.9,14.2-10,13.5-18.6c-0.1-1,0.6-1.8,1.6-1.9c1-0.1,1.8,0.6,1.9,1.6c0.6,7.4-3,13.9-10.7,19.2c-6.1,4.2-13.6,6.9-18.8,8.3
			c-8.1,2.3-6.9,10.5-6.9,10.9c0.2,1-0.5,1.8-1.5,2c-0.1,0-0.2,0-0.3,0c-0.8,0-1.6-0.6-1.7-1.5C154.6,203.5,155.4,196.7,161.6,193.4
			z"/>
		<path fill="#F39134" d="M174.9,197.7c0,0-9.7-7-17.3,9.7c0,0-5-4.5-10.9-4.5c-6,0-10.9,4.5-10.9,4.5c-7.5-16.7-17.3-9.7-17.3-9.7
			c-1.2,10.7,7.7,17.1,7.7,17.1s-2.4,5.4,0,22.1c2.4,16.7,20.4,32.4,20.4,32.4s18.1-15.7,20.4-32.4c2.4-16.7,0-22.1,0-22.1
			S176.1,208.4,174.9,197.7z"/>
		<circle fill="#71160D" cx="156.5" cy="227.1" r="3"/>
		<circle fill="#FFFFFF" cx="155.6" cy="226.2" r="1"/>
		<path fill="#FBE5BD" d="M133,209.9c0,0,1.1-5.1-12.1-9c0,0-0.1,7.8,7.1,12.4L133,209.9z"/>
		<circle fill="#71160D" cx="136.9" cy="227.1" r="3"/>
		<circle fill="#FFFFFF" cx="136" cy="226.2" r="1"/>
		<path fill="#FBE5BD" d="M162.3,210c0,0-2.1-5.9,11-9.8c0,0,0.2,8.4-7,13L162.3,210z"/>
		<circle fill="#71160D" cx="146.7" cy="269.3" r="4.3"/>
		<path fill="#F08227" d="M132.1,311.3c0,0-19.2-8-24.9,5.1c-5.7,13.1,6,23.9,6,42.8s-0.7,57-0.7,57h8.7c0,0,2.8-45,6-63.1
			C130.3,335.1,132.5,318.2,132.1,311.3z"/>
		<polygon fill="#71160D" points="112.5,416.2 112.1,426.6 126.6,427.4 121.2,416.2 		"/>
		<g>
			<path fill="#F08227" d="M43.7,310.5c0,0-7.5-14.7-13.2-1.6c-5.7,13.1-5.7,30.6-5.7,49.5c0,18.9-0.7,57-0.7,57h8.7
				c0,0,2.8-45,6-63.1C41.9,334.3,44.1,317.4,43.7,310.5z"/>
			<polygon fill="#71160D" points="24.1,415.5 23.7,425.8 38.2,426.6 32.8,415.5 			"/>
			<path fill="#F08227" d="M73.5,318.9c0,0-10.4,49.1-38.9,52.8l-2.2-46.3C32.4,325.4,49,300.7,73.5,318.9z"/>
		</g>
		<path fill="#F08227" d="M40.4,291.2c0,0-19.9,3.2-23.4-12.1c0,0-1.3,7.3,0.7,9.8l-3.6-1.8c0,0-0.8,7.8,2.7,10.5h-3.5
			c0,0,0.5,5,4.3,6.8l-4.3,0.7c0,0-1.8,6.7,13.5,8C42.2,314.4,40.4,291.2,40.4,291.2z"/>
		<path fill="#FBE5BD" d="M20.6,286.1c-1.6-1.7-2.9-4-3.6-7c0,0-1.3,7.3,0.7,9.8l-3.6-1.8c0,0-0.8,7.8,2.7,10.5h-3.5
			c0,0,0.5,5,4.3,6.8l-4.3,0.7c0,0-1,3.8,5.1,6.2l-2.3-3.2l7.5-0.6c-3.4-1.1-5.7-7.5-5.7-7.5l5.7,2c-0.6-0.5-5.7-10.2-5.7-10.2
			l5.7,1.2C21.9,291.7,21.1,288.6,20.6,286.1z"/>
		<g>
			<g>
				<ellipse fill="#C76219" cx="90.5" cy="291.6" rx="4.5" ry="2.4"/>
				<ellipse fill="#C76219" cx="100" cy="289.6" rx="2.4" ry="1"/>
				<ellipse fill="#C76219" cx="106.9" cy="294.3" rx="3.4" ry="1.9"/>
				<ellipse fill="#C76219" cx="107.4" cy="287.4" rx="2.3" ry="1.1"/>
				<ellipse fill="#C76219" cx="72.6" cy="289" rx="3.6" ry="1.6"/>
				<ellipse fill="#C76219" cx="79.7" cy="294" rx="2.6" ry="1.5"/>
				<ellipse fill="#C76219" cx="83" cy="287.4" rx="1.6" ry="1.1"/>
				<ellipse fill="#C76219" cx="62.6" cy="293.3" rx="3.6" ry="1.7"/>
				<ellipse fill="#C76219" cx="64.1" cy="288.5" rx="2.1" ry="1.1"/>
			</g>
		</g>
	</g>
	<g clip-path="url(#SVGID_2_)">
		<path fill="#9F5216" d="M391.3,447.9c0,0,0-215.3,0-265.7s0-130.8,0-130.8h35.2v60.5l22.5-48.9l11.1,7.5l-13.8,29l14.5-2.5
			l-0.7,11.6l-16,1.7l-9.9,28.2l-2.7,309.4L391.3,447.9z"/>
		<path fill="#F9BF4B" d="M590.4-4.9c-1.6-4.4-0.9-11-2.7-14.9c-2.6-5.7-6.7-5.4-11.2-9.2c4.4-1.7,8.2-10.7,4.4-15.1
			c-1.2-1.5-6.7,0.6-8.5-0.5c-3-1.7-5.2-5.9-6.3-8.9c11-1.9,12.2-5.8,9.1-15.2c-2.7-8.4-10.2-8.1-12.8-13.9
			c12.1-3.7-11.7-31-16.2-7.8c-4.1-0.4-7.8-2.4-11.9-2.8c0.9-6.7-2.4-12.5-9.3-12.9c-1,5.6-6.3,5.7-9.6,1.7
			c-4.5-5.5,0.8-6.5,2.6-11.3c2.3-6.1,4-15.3-4.4-19c4-10.9-9.4-11.2-16.8-10.9c-0.4,7.4-3,9.5-10.4,8.2c-0.3-14-3.2-17.7-17.1-11.2
			c0.9-9.2-3.9-17-16.7-12c0.1,3.2-0.3,6.1-1.2,9.1c-15.3,2.1-9.2-9.6-12.2-18.5c-2.5,0.2-8,0.6-10-1.1c-3.9-3.3,0.4-3.5-1.1-7.5
			c-3-7.9-5.9-11-14.9-6.4c-0.9,5.1-3,12.2-9.4,10.9c-1.2-5.8-5.3-2.2-7.5-5.7c-1.2-1.8,1.9-4,0.8-5.4c-1-1.4-3.1-2-3.6-2.8
			c-6.5-8.4-13-6.7-17.1,1.8c-2.6,5.4,0.8,5.5-5.6,8.4c-2.9,1.3-7.4-0.1-9.6,1.8c-6.1,5.2-0.9,16.5-12.2,15.3
			c-3.7-0.4-3-5.2-8.2-4.3c-4.3,0.7-4.5,4.6-6.5,6.8c-3.5,3.7-0.3,6-8.2,5.7c-3.8-0.2-4.3-3.8-9.6-3.8c-14.4,0.1-6.3,9.3-7.4,16
			c-1.1,6.9-9.9,10.9-16.9,10.5c1.1,3.4,1.3,7.4,0.8,11c-8.3,0.5-12.1-4.2-11.3,7.5c-1.4-0.7-3.9-0.1-5.3-0.7
			c1.8,7.6-3.5,8.5-9.4,6.6c-0.1,5.1,2.4,9.6,1.6,14.8c-12.4,0.5-14.8,1.6-13.8,14.7c4.5,0,9.1,0.5,10.2,5.3
			c2.1,8.7-5.1,5.5-8.3,8.5c-7.2,6.8-4.6,18.7,5.7,17.7c1.2,6.4,0.5,13.7,0.8,20.3c12.8-10.6,16.4-5.4,15.7,8.6
			c-11.8-1-17.4,7.4-8.6,17c-2.4,1.6-3.4,3.5-3.4,5.4c2.9,3.5,6.2,6.8,10.5,7.1c7.2,0.5,16.1-0.8,21.6,5c0.1,0.1,0.2,0.2,0.3,0.3
			c2,0,3.9,0,5.9,0.2c-1.9,4.6-0.6,10,2.1,14.5c2.5-0.9,5-1.6,7.7-1.8c2.6-0.1,5.2,1.9,5.9,4.5c0.2,0.9,0.7,2.6,0.9,3.1
			c0.1,0.2,0.4,0.6,0.6,1c0.7-0.7,1.2-1.6,1.7-2.7c1.2,1.4,2.6,2.7,4.1,3.6c0.8-0.3,1.7-0.6,2.5-0.9c6.5-2.3,15.3-4.3,19.2,3.4
			c1.5,3,2.3,6.6,1.7,10c0.3,0.1,0.6,0.2,1,0.3c0.8,0.2,1.5,0.5,2.3,0.7c0,0,0.2,0,0.5,0c0.4,0,2-0.2,0,0.1c0.6-0.1,1.3-0.2,1.9-0.3
			c2.4-0.1,4.5,0.9,6.2,2.5c2.3,1.9,4.2,4.4,5.1,7.3c0.2,0.8,0.5,2.3,0.8,3.5c3-0.3,6-0.5,9-0.2c0.3,4-1.5,12.3,2.9,14.7
			c5.2,2.9,8-4.7,12.5-0.9c5-4.4,6.4-3.7,11.3-3.7c0.9,0,3.4,2.8,5.5,2.9c1.7,0.1,1.9-3,3.7-3.1c11.8-0.6,8.8,3.5,17.6,10.5
			c2.5-5.4,9.2-5.6,13.6-3.7c7.9,3.5,7.4,8.4,6.6,13.4c-1.3,8.1-12.3,15.2,1.6,18.8c-1.7,2.9-2.4,6.5-1.6,10
			c1.3-0.4,2.9,0.1,4.4-0.4c-1.3,5.6,2.9,8.3,7.7,10.1c11.3-8.3,8.5,6.6,15.2,8.4c4,1.1,5.1-3.5,8.2-4.7c4.7-1.9,8.8-0.1,13-4.4
			c3.8,13.5,13,0.1,20.7-0.2c-0.5,3.8,1.9,2.5,2,2.7c0,0,3.6,5.4,9.4,3.8c10.6-3-8-14.6,5.5-19.6c0.1,1.3,1.2,2.8,1.2,4.4
			c9.9,1.9,3.8-14.2,9.2-18.7c3.9-3.2,9.2,0.4,11.1-5.6c0.4-1.4-3.1-8.9-2.5-12.1c2.3,2.6,5.5,4.8,9.1,4.5c0.6-3.4,0.2-7.1-0.7-10.3
			c1.8,0.1,4.9-1.4,7.3-1c0-4.6-3.4-7.9-4.4-11.9c24.4,8.7,3.1-17.4,3.7-23.5c5-0.2,10.4,1.5,13.6-3c-4.2-3.1-7.3-10.8-0.7-12.3
			c-5-3.2-5.6-9.8-5.4-15.7c17.6,3.7-1.6-12.3-1.9-20.6C581.8-3.2,586-5,590.4-4.9z"/>
	</g>
	<g clip-path="url(#SVGID_2_)">
		<path fill="#EC6413" d="M411.1,365.7c0,0-0.3,8.9,9.6,6.7c9.9-2.2-4.1-17.9,0-29c4.1-11.2,11.3-15.5,19.3-16.6l-3.9,5.4
			c0,0,4.7-3.8,16.7-2.7c0,0-17.3,2.4-13.8,12.8c3.5,10.4,21.4,21.9,18.2,45.8c-3.2,23.8-32.9,29.4-46.2,17.5
			C397.8,393.6,400.6,374.3,411.1,365.7z"/>
		<path fill="#FDD8B0" d="M373.7,410.8c0,0,7.3,10.7,19.6,0c12.3-10.7,2-39.3-12-37.8C367.4,374.6,367.7,394.5,373.7,410.8z"/>
		<path fill="#CE5516" d="M360,382.6c0,0-11.1-9-14,2.6c-2.8,11.6,14,31.6,14,31.6s-8.2,1-6.5,4.2c1.8,3.2,18.6,3,18.6,3L360,382.6z
			"/>
		<path fill="#CE5516" d="M404.7,382.6c0,0,11.1-9,14,2.6c2.8,11.6-14,31.6-14,31.6s8.2,1,6.5,4.2c-1.8,3.2-18.6,3-18.6,3
			L404.7,382.6z"/>
		<path fill="#EC6413" d="M365.3,347.8c0,0-9.1,4.3-10,30.7c-0.9,26.4,16.8,45.5,16.8,45.5s5.2,3.3,6.2,0c1-3.3-4.2-19.1-3.8-28.6
			c0.3-9.5,2.5-14.3,2.5-14.3s11.3-8.5,13.3,7.2c2,15.6-5.7,34.6-2.5,36.4c3.2,1.8,6.2,0.7,12-13.3c5.8-14,15.3-19.3,11.7-49.8
			C408,331.1,372.8,338.7,365.3,347.8z"/>
		<path fill="#FDD8B0" d="M413.7,330.4l-10.3-5.9c4-1.7,9.3,0,9.3,0c-2.3-4.1-9.3-7.7-9.3-7.7c3.4-13.1,3.6-25.5,3.6-25.5
			c-8.4,6.7-17,18.3-17,18.3l0,0c-2.4-0.5-5.2-0.9-8.5-1c-3.6-0.2-6.6,0.2-9.3,0.9c-3.2-4-10.3-12.6-17.2-18.1
			c0,0,0.2,12.1,3.3,25.6c-1.6,0.9-6.9,3.9-8.8,7.4c0,0,5.3-1.7,9.3,0c0,0,0,0,0,0l-10.2,5.8l8.2,2.5l-8.2,7.2
			c0,0,10.4,0.1,16.5,7.9c0,0,0-0.1,0-0.3c7.4,15.8,17.3,16.8,17.3,16.8c6.9-2.1,11.6-8.7,14.7-16.4l0,0c6.1-7.9,16.5-7.9,16.5-7.9
			l-8.2-7.2L413.7,330.4z"/>
		<circle fill="#231F20" cx="392.1" cy="329.5" r="2.8"/>
		<circle fill="#231F20" cx="371.4" cy="329.5" r="2.8"/>
		<path fill="#EB6B16" d="M390,309.7L390,309.7c-2.4-0.5-5.2-0.9-8.5-1c-3.6-0.2-6.6,0.2-9.3,0.9c-3.2-4-10.3-12.6-17.2-18.1
			c0,0,0.2,12.1,3.3,25.6c29.2-3.5,22.8,44.6,22.8,44.6h3.1c-1.7-51.7,19.1-44.8,19.1-44.8c3.4-13.1,3.6-25.5,3.6-25.5
			C398.7,298.1,390,309.7,390,309.7z"/>
		<path fill="#FDD8B0" d="M439,342.3c-3.5-10.4,13.8-12.8,13.8-12.8c-12.1-1.1-16.7,2.7-16.7,2.7l3.9-5.4c-8,1.1-15.3,5.4-19.3,16.6
			c-2.7,7.4,2.5,16.7,3.5,22.8l0,0c0.2,0.3,0.8-7.7,0.8-7.7l3.9,6.8l0.6-8.1l6.3,8.6l-0.6-6.4l6.9,5.8v-9.3l5.6,6.4v-6.7
			C444,350.5,440.4,346.3,439,342.3z"/>
		<circle fill="#231F20" cx="382.5" cy="363.1" r="5.2"/>
		<path fill="#FDD8B0" d="M394.9,308.7l9.9-11.2l-2.5,13.5C402.3,311,400.2,310.8,394.9,308.7z"/>
		<path fill="#FDD8B0" d="M368.6,310.8l-11-12.4l2.8,15C360.4,313.3,362.7,313.1,368.6,310.8z"/>
	</g>
	<path clip-path="url(#SVGID_2_)" fill="#F9BF4B" d="M530.8,398.8c0.8-4.9-2.2-6-6.2-5.6c-2,0.2-2.5,1.4-4.2-0.3
		c-1.3-1.3-0.2-3-1.3-4.2c-2.9-3.1-6.1,0.3-8.9,0.7c-4.9,0.7-5.8-5.8-10.1-5.9c-4.5-0.1-3,6.6-8.7,3.5c-4.6-2.5-2-5.7-2-9.3
		c0.1-9.5-12.2,0-12.7-8.6c-0.2-3.6,1.3-5.7-3.9-7.1c-3-0.8-6.9,0-7.9,3.3c-5.5,0.8-4.9-2.1-5.5-6.1c-0.8-5.5-4.8-3-9-3.9
		c-3.6-0.8-3.7-5.1-8.2-6.1c-4.6-1.1-9-0.4-10.3,4.1c-0.4,1.2,0,3-1,3.7c-1.7,1.2-4.9-1-6.6-1.3c-4.1-0.7-5.6,1.4-6.2,5.1
		c-0.7,5.2-0.8,7.2-6.6,5.5c-4-1.2-10-3-12,2.3c-1.4,3.9,4.9,5.7-0.3,9.7c-4.2,3.2-7.1-1.1-11.7-0.7c-6.2,0.6-8.3,3.4-7.5,9
		c0.7,4.5,0.1,4.5-3.9,4.5c-10.6-0.1,1.5,11.3-6.9,10.1c-1.6-0.2-2.7-1.5-5.1-1.1c-1.7,0.3-7.5,2.5-7.9,4.4
		c-0.5,2.2,5.4,6.9-1.1,6.5c-3.7-0.2-5.2-4.4-7.8,1c-1.4,2.8,0.4,5.8-1.5,7.9c-3,3.3-6.5-0.9-9.6,2.1c-1.7,1.6-0.9,5.5-3.4,6.2H571
		c0,0,1.4-8.6-4.8-8.6c-6.2,0-9.6,1.4-9.3-3.8c0.3-5.2,4.8-7-0.3-7.8c-5.2-0.8-6.5,3.9-8.9,0c-2.4-3.9,2.1-7-2.8-7.7
		C540.1,399.8,529.8,405,530.8,398.8z"/>
	<path clip-path="url(#SVGID_2_)" fill="#F9BF4B" d="M-40.1,420.9c4.1,1.3,6.1-5.6,10.3-3.1c-1.7-9.5,7.2-8.3,13.4-7.5
		c-0.9-9.6,1.9-15.3,12.7-10.4c-0.4-3.6-1.9-8.3,0.7-11.3c2.3-2.7,6.3-2.8,7.6-0.5c-0.1-3.8-0.7-8,2.2-10.6c7.9,8.6,5.6-4.6,6-8.1
		c1.1-10.3,6.9-2,12.8-6.7c-4.1-4.9-3.6-16.2,5-15.1c1.6-10.5-6.8-22.2,11.9-19.9c-0.5,4.3-3.1,10.6,3,11.7c-0.3-1.4,0.4-3.5,0.2-5
		c4-0.1,10.1,0.5,11.8,3.6c1.9,3.4-1.3,6.8,2.2,9.8c2.7-6.8,10.6-5,17.1-2.9c-0.8,10.2,3.5,8.2,9.8,8.8c6.8,0.6,12.8,7.6,3.1,10.6
		c1.6,1.4,4,2.2,6.5,2.2c0.5,5-6.9,18.3,4.5,16.9c0.9-8.4,9.8,1.1,14.2,0.7c0-4.4,3.9-5.4,7.5-3.5c-0.8,4.2,0.7,8.7,5.2,6.4
		c-2.8-7,4-3.6,6.1-6.4c3-3.9-1-4.4,0.7-8.4c1.5-3.5,4.7-5.6,9-4.5c5.6,1.4,5.2,5.4,5.8,9.7c1.5-3.5,6.4-2.7,8.3,0.8
		c1,1.9-2.3,4.7-1.4,7.5c2,6.3,6.9,0.9,13.3,3.1c0.2,4-0.4,9.3,1.6,12.5c2.3,3.7,6.9,5.6,7.6-1.4c9.1-0.7,7.8,6.4,9.9,11.7
		c16.2-5.7,3.9,11.2,17.5,10.6c-0.2,2.2,0.7,5.6,0.9,5.9H-50.1C-50.1,428.3-48.6,418.1-40.1,420.9z"/>
	<rect x="-0.8" y="428.3" clip-path="url(#SVGID_2_)" fill="#B8651A" width="500.8" height="71.7"/>
	<g clip-path="url(#SVGID_2_)">
		<path fill="#F7C09A" d="M323.8,345v1.6c0,0-4.6,3.5-4.2,7.5c0.5,3.9,4.2,3.5,4.2,3.5s-0.8,6.1,1.4,6.5c2.3,0.4,3.8-2.1,3.8-2.1
			s9.8,1,10.7-5.5c0.8-6.5-1.7-11.5-1.7-11.5H323.8z"/>
		<ellipse opacity="0.5" fill="#B8651A" cx="284" cy="458.1" rx="73.4" ry="12.2"/>
		<g>
			<g>
				<path fill="#6FA6D1" d="M295.6,417c0,0,0,33,0,36.2c0,3.1,0,5,8.2,5c8.2,0,28.8,0,28.8,0s3.3-0.4,3.3-7
					c0-6.6-8.4-11.6-18.4-13.6l0.6-20.6H295.6z"/>
				<path fill="#5A513A" d="M324.8,341.4c0,0,0,56.2,0,67.1c0,10.8-4.3,16-19.8,16c-15.5,0-16.3-13.3-16.3-18.1s0.3-65,0.3-65H324.8
					z"/>
				<path fill="#5173A4" d="M335.9,458.5c0,0.7-0.6,1.2-1.3,1.2h-37.7c-0.7,0-1.3-0.6-1.3-1.2v-2.6c0-0.7,0.6-1.2,1.3-1.2h37.7
					c0.7,0,1.3,0.6,1.3,1.2V458.5z"/>
			</g>
			<g>
				<path fill="#6FA6D1" d="M279.5,417c0,0,0,33,0,36.2c0,3.1,0,5-8.2,5c-8.2,0-28.8,0-28.8,0s-3.3-0.4-3.3-7
					c0-6.6,8.4-11.6,18.4-13.6L257,417H279.5z"/>
				<path fill="#443C2B" d="M250.2,341.4c0,0,0,56.2,0,67.1c0,10.8,4.3,16,19.8,16c15.5,0,16.3-13.3,16.3-18.1s-0.3-65-0.3-65H250.2
					z"/>
				<path fill="#5173A4" d="M239.2,458.5c0,0.7,0.6,1.2,1.3,1.2h37.7c0.7,0,1.3-0.6,1.3-1.2v-2.6c0-0.7-0.6-1.2-1.3-1.2h-37.7
					c-0.7,0-1.3,0.6-1.3,1.2V458.5z"/>
			</g>
		</g>
		<g>
			<ellipse fill="#BEC9E8" cx="290.2" cy="146" rx="11.6" ry="10.9"/>
			<path fill="#443F92" d="M315.3,180.3c0.4-1.9,0.6-3.8,0.6-5.9c0-15-11.5-27.1-25.7-27.1c-14.2,0-25.7,12.1-25.7,27.1
				c0,2,0.2,4,0.6,5.9H315.3z"/>
			<path fill="#F7C09A" d="M289.6,180.3v48.6c0,0-23.1-1.5-23.1-13.6c0-12.1,0-34.2,0-34.2L289.6,180.3z"/>
			<path fill="#EAAD82" d="M266.5,189.7c0,0-6.2-3.3-6.2,4.4c0,7.8,0.7,11.5,6.2,15.7V189.7z"/>
			<path fill="#A15E1D" d="M271.2,187.7c0,0-4.7,3.3-4.7,11.1c0,0,0-9.4-2.3-9.8v-1.4L271.2,187.7z"/>
			<circle fill="#231F20" cx="277.7" cy="195.6" r="3.2"/>
			<circle fill="#FFFFFF" cx="276.7" cy="194.7" r="1"/>
			<path fill="#A15E1D" d="M289.6,213.3c0,0-3.7-3.9-8.2-1c-4.5,2.8-6.6,8.5-10.7,5.3c0,0,3.1,5.7,10.3,3.5c7.2-2.1,8.7-1.6,8.7-1.6
				V213.3z"/>
			<path fill="#A06236" d="M262.5,198.3c0,0-0.8,0.1-0.8-2.6c0.1-2.7,2.1-4.1,3-2c1,2.1,0.3,8.3,0.3,8.3s-1.5-0.5-1.6,0.6
				c-0.1,1,1.4,2.7,1.4,2.7s-2.8-1.3-2.6-3.1c0.1-1.8,1.6-1.9,1.6-1.9s1.8-5.3-0.4-6C261.4,193.7,262.5,198.3,262.5,198.3z"/>
			<path fill="#FCD7BD" d="M289.6,180.3v48.6c0,0,23.1-1.5,23.1-13.6c0-12.1,0-34.2,0-34.2L289.6,180.3z"/>
			<path fill="#F7C09A" d="M312.7,189.7c0,0,6.2-3.3,6.2,4.4c0,7.8-0.7,11.5-6.2,15.7V189.7z"/>
			<path fill="#A15E1D" d="M308,187.7c0,0,4.7,3.3,4.7,11.1c0,0,0-9.4,2.3-9.8v-1.4L308,187.7z"/>
			<circle fill="#231F20" cx="301.5" cy="195.6" r="3.2"/>
			<circle fill="#FFFFFF" cx="300.5" cy="194.7" r="1"/>
			<path fill="#A15E1D" d="M289.6,213.3c0,0,3.7-3.9,8.2-1c4.5,2.8,6.6,8.5,10.7,5.3c0,0-3.1,5.7-10.3,3.5c-7.2-2.1-8.7-1.6-8.7-1.6
				V213.3z"/>
			<path fill="#A06236" d="M316.7,198.3c0,0,0.8,0.1,0.8-2.6c-0.1-2.7-2.1-4.1-3-2c-1,2.1-0.3,8.3-0.3,8.3s1.5-0.5,1.6,0.6
				c0.1,1-1.4,2.7-1.4,2.7s2.8-1.3,2.6-3.1c-0.1-1.8-1.6-1.9-1.6-1.9s-1.8-5.3,0.4-6C317.8,193.7,316.7,198.3,316.7,198.3z"/>
			<path fill="#6961A8" d="M320.2,182.5c0,2.9-2.4,5.3-5.4,5.3h-49.2c-3,0-5.4-2.4-5.4-5.3c0-2.9,2.4-5.3,5.4-5.3h49.2
				C317.8,177.2,320.2,179.6,320.2,182.5z"/>
		</g>
		<g>
			<path fill="#43658F" d="M289.6,240h-22c0,0-12.5,5.3-15.5,11.6v89.8h37.5V240z"/>
			<path fill="#5173A4" d="M289.3,240h22c0,0,12.5,5.3,15.5,11.6v89.8h-37.5V240z"/>
			<g>
				<rect x="258.6" y="312.1" fill="#AFC9E8" width="21.2" height="6.9"/>
				<rect x="298.4" y="312.1" fill="#AFC9E8" width="21.2" height="6.9"/>
			</g>
			<rect x="296.7" y="237.7" fill="#2B2F72" width="18.9" height="56.9"/>
			<path fill="#443F92" d="M317.7,238.2c0,4.6-3.7,8.3-8.3,8.3h-39.6c-4.6,0-8.3-3.7-8.3-8.3v-4.4c0-4.6,3.7-8.3,8.3-8.3h39.6
				c4.6,0,8.3,3.7,8.3,8.3V238.2z"/>
			<rect x="296.7" y="294.6" fill="#9590C5" width="18.9" height="7.7"/>
			<circle fill="#FFFFFF" cx="289.1" cy="258.2" r="3.1"/>
			<circle fill="#FFFFFF" cx="289.1" cy="279.1" r="3.1"/>
			<circle fill="#FFFFFF" cx="289.1" cy="300" r="3.1"/>
			<circle fill="#FFFFFF" cx="289.1" cy="320.9" r="3.1"/>
		</g>
		<path fill="#2C5073" d="M252.1,251.6c0,0-24.9,18.8-23.3,40.6c1.7,21.8,39.4,18.6,39.4,18.6v-17.7c0,0-19.2-0.6-19.7-5.2
			c-0.5-4.6,4.1-7.3,4.1-7.3L252.1,251.6z"/>
		<g>
			<g>
				<path fill="#E52529" d="M240.3,309.3c-4.5-3-9.7,1.8-9.7,1.8s-6.9-1.8-9.4,2.9c-2.5,4.8,4.2,15.8,7.6,17.3
					c3.5,1.5,5.9-3.5,5.9-3.5s4.5,3.2,6.9,0.3C244,325.2,244.8,312.3,240.3,309.3z"/>
				<path fill="#44AD4D" d="M230.2,309.8c0,0-0.3-4.4-3.2-5.5c-2.9-1.1-6.9,0.1-6.9,0.1S223.1,311.1,230.2,309.8z"/>
			</g>
			<g>
				<circle fill="#F39223" cx="279.5" cy="324.1" r="11.4"/>
				
					<ellipse transform="matrix(0.9347 -0.3553 0.3553 0.9347 -94.6543 118.7276)" fill="#C16A15" cx="275.9" cy="317.1" rx="1.8" ry="1.4"/>
			</g>
			<g>
				<circle fill="#B03481" cx="263.2" cy="311.1" r="3.6"/>
				<circle fill="#B03481" cx="267.6" cy="316.1" r="3.6"/>
				<circle fill="#B03481" cx="261.5" cy="317.3" r="3.6"/>
				<circle fill="#B03481" cx="255.8" cy="315" r="3.6"/>
				<circle fill="#B03481" cx="257.2" cy="310" r="3.6"/>
				<circle fill="#B03481" cx="261.9" cy="323.3" r="3.6"/>
				<circle fill="#B03481" cx="256.3" cy="326.9" r="3.6"/>
				<circle fill="#B03481" cx="266.9" cy="321.7" r="3.6"/>
				<circle fill="#B03481" cx="251" cy="323.3" r="3.6"/>
				<circle fill="#B03481" cx="244.4" cy="319.9" r="3.6"/>
				<circle fill="#B03481" cx="249.9" cy="316.8" r="3.6"/>
				<circle fill="#B03481" cx="250" cy="329.9" r="3.6"/>
				<circle fill="#B03481" cx="243.8" cy="331.9" r="3.6"/>
				<circle fill="#B03481" cx="244.5" cy="326.1" r="3.6"/>
				<circle fill="#B03481" cx="256.2" cy="321" r="3.6"/>
				<path fill="#44AD4D" d="M266,311.3c0,0,3.9-2.8,4.9-7.4l2.4,1.4c0,0-4.5,7.9-7.8,8.7L266,311.3z"/>
			</g>
			<path fill="#9F7132" d="M292,362.5c0,4.4-3.6,8-8,8h-55.9c-4.4,0-8-3.6-8-8v-30.2c0-4.4,3.6-8,8-8H284c4.4,0,8,3.6,8,8V362.5z"/>
			<path fill="#603B14" d="M292,340.9v-1.2h-19.5v-11.6h-1.2v11.6h-26.3v-11.6h-1.2v11.6h-23.6v1.2h9.8v10.9h-9.8v1.2h23.5v10.9
				h-23.3c0.1,0.4,0.2,0.8,0.4,1.2h70.8c0.2-0.4,0.3-0.8,0.4-1.2h-19.4v-10.9H292v-1.2h-5.7v-10.9H292z M231.1,351.9v-10.9h26.3
				v10.9H231.1z M271.2,364.1h-26.3v-10.9h26.3V364.1z M285,351.9h-26.3v-10.9H285V351.9z"/>
			<path fill="#D39D49" d="M295.1,327c0,3.2-3.7,5.8-8.3,5.8h-62.3c-4.6,0-8.3-2.6-8.3-5.8s3.7-5.8,8.3-5.8h62.3
				C291.4,321.2,295.1,323.8,295.1,327z"/>
			<path fill="#B37726" d="M260,327.9c0,2.7-1.9,5-4.2,5h-0.4c-2.3,0-4.2-2.2-4.2-5v-38.6c0-2.7,1.9-5,4.2-5h0.4
				c2.3,0,4.2,2.2,4.2,5V327.9z"/>
			<circle fill="#FFFFFF" cx="255.7" cy="327" r="3.1"/>
		</g>
		<path fill="#F7C09A" d="M268.1,293.5h1.6c0,0,3.5-5,7.5-4.5c3.9,0.5,3.5,4.5,3.5,4.5s6.1-0.9,6.5,1.6c0.4,2.5-2.1,4.1-2.1,4.1
			s1,10.7-5.5,11.6c-6.5,0.9-11.5-1.8-11.5-1.8V293.5z"/>
		<path fill="#36597B" d="M326.8,251.6c0,0,12.3,9,12.5,43c0.3,34,0,50.4,0,50.4h-14.5L326.8,251.6z"/>
	</g>
	<g clip-path="url(#SVGID_2_)">
		<ellipse opacity="0.5" fill="#B8651A" cx="464.7" cy="438.6" rx="23.4" ry="5.3"/>
		<path fill="#FAE5B4" d="M460.7,398.4c0,0,3.6,2.5-0.5,16.1c-4.1,13.6-8.6,26.5,3.3,25.6c11.9-0.9,11.9-4.6,10.5-19.3
			c-1.5-14.6-2.3-26.8-2.3-26.8L460.7,398.4z"/>
		<path fill="#E52625" d="M467.1,378.5c8.4,0.3,11.8,13.3,19.4,14.9c7.6,1.6,10.1,3.5,8.4,7.3c-1.6,3.8-3.9,2.2-11.4,1
			c-7.6-1.3-8.9,3.7-15.2,2.1c-6.3-1.5-5.5-3.4-11.9-1.7c-6.4,1.6-10.3,0.2-14.4-0.9c-4.2-1.1-8.9,2.4-9.4-3
			c-0.5-5.4,5.1-5.5,9.1-6.9c4-1.4,14-5.6,18.3-9.9C464.2,377.2,467.1,378.5,467.1,378.5z"/>
		<path fill="#F6E834" d="M477.1,390.2c1.2,0,2.4-0.3,3.4-0.7c-3-3.2-5.6-7.4-9-9.5c-1,1.1-1.6,2.5-1.6,3.9
			C469.8,387.3,473.1,390.2,477.1,390.2z"/>
		<path fill="#F6E834" d="M457.1,390.2c2.9,0,5.2-2.2,5.2-4.8c0-1.7-0.9-3.1-2.3-4c0,0-0.1,0.1-0.1,0.1c-1.8,1.8-4.8,3.7-7.8,5.3
			C452.8,388.7,454.8,390.2,457.1,390.2z"/>
		<path fill="#F6E834" d="M462.6,396.4c-3.4,0-6.2,2.5-6.5,5.8c0.1,0,0.2,0,0.3-0.1c6.4-1.6,5.6,0.2,11.9,1.7
			c0.2,0.1,0.4,0.1,0.6,0.1c0.1-0.4,0.1-0.8,0.1-1.3C469.1,399.2,466.1,396.4,462.6,396.4z"/>
		<path fill="#F6E834" d="M493,402.9c-0.1-3.6-3.6-6.5-7.9-6.5c-4,0-7.3,2.5-7.9,5.8c1.6-0.6,3.6-0.9,6.3-0.5
			C488.6,402.5,491.3,403.5,493,402.9z"/>
		<path fill="#F6E834" d="M432.8,395.9c0.7,1.9,2.9,3.3,5.4,3.3c3.1,0,5.7-2.1,5.7-4.8c0-1.3-0.6-2.5-1.6-3.4
			c-0.2,0.1-0.4,0.1-0.6,0.2C438.3,392.5,433.9,392.7,432.8,395.9z"/>
	</g>
	<g clip-path="url(#SVGID_2_)">
		<ellipse opacity="0.5" fill="#B8651A" cx="415.4" cy="436.6" rx="25.5" ry="6.4"/>
		<path fill="#FAE5B4" d="M422.7,406.1c0,0-3.7,1.9,0,13.1c3.7,11.2,7.7,21.8-4.1,20.7c-11.8-1.1-11.8-4.1-9.9-16
			c1.9-11.9,3.1-21.8,3.1-21.8L422.7,406.1z"/>
		<path fill="#E52625" d="M417.2,397.2c8,0.2,11.2,7.9,18.4,8.8c7.2,1,9.5,2.1,8,4.3c-1.6,2.2-3.7,1.3-10.8,0.6
			c-7.2-0.7-8.4,2.2-14.4,1.3c-6-0.9-5.2-2-11.3-1c-6.1,1-9.7,0.1-13.7-0.5c-3.9-0.6-8.4,1.4-8.9-1.8c-0.5-3.2,4.9-3.3,8.6-4.1
			c3.8-0.8,13.3-3.3,17.3-5.9C414.4,396.4,417.2,397.2,417.2,397.2z"/>
		<g>
			<path fill="#F6E834" d="M417.2,397.2C417.2,397.2,417.1,397.2,417.2,397.2c0.1,3.1,2.7,5.6,5.9,5.6c1.4,0,2.7-0.5,3.8-1.3
				C424.1,399.4,421.2,397.3,417.2,397.2z"/>
			<path fill="#F6E834" d="M407.9,403.6c2.1,0,3.8-1.7,3.8-3.8c0-0.5-0.1-1-0.3-1.5c-0.3,0.2-0.7,0.4-1.1,0.6
				c-1.4,0.9-3.5,1.8-5.8,2.6C405.2,402.8,406.4,403.6,407.9,403.6z"/>
			<path fill="#F6E834" d="M432.7,411c0.8,0.1,1.6,0.2,2.3,0.3c-0.3-2.7-2.6-4.9-5.4-4.9c-3,0-5.4,2.4-5.4,5.4c0,0.1,0,0.1,0,0.1
				C426.4,411.3,428.6,410.5,432.7,411z"/>
			<path fill="#F6E834" d="M407,406.3c-2.9,0-5.3,2.4-5.4,5.3c1.6,0,3.3-0.1,5.3-0.4c2.8-0.5,4.2-0.5,5.4-0.2
				C412,408.3,409.7,406.3,407,406.3z"/>
			<path fill="#F6E834" d="M389.5,409.3c2.8,0,5-2.2,5.1-4.9c-0.6,0.2-1.2,0.3-1.7,0.4c-2.7,0.6-6.3,0.8-7.9,2.1
				C386.1,408.3,387.7,409.3,389.5,409.3z"/>
		</g>
	</g>
	<g clip-path="url(#SVGID_2_)">
		<path fill="#6D482D" d="M-48.6,393H65.7l17.1-15.9l4.1,3.3l-4.5,4.7l7.4,2.2l-1.7,2.7h-8.5l-2,3h56.5c0,0,19.5,7.2,19.5,37.7
			s-19.9,32.2-19.9,32.2H-46.1c0,0-17.9-13.4-17.1-35.8C-62.4,404.8-48.6,393-48.6,393z"/>
		<path fill="#F3D0B0" d="M153.6,430.7c0-30.6-19.5-37.7-19.5-37.7s-19.3,4.5-19.3,36.2c0,31.7,18.9,33.8,18.9,33.8l4.6-1.3
			C144.1,459.1,153.6,451.8,153.6,430.7z"/>
		<path fill="#CE976A" d="M137.6,458.1c-0.4,0-0.8,0-1.2-0.1c-9.2-1.5-9.7-10-10-16.9c-0.1-2.8-0.3-5.5-1-7.5c-2.1-6-1.6-27,3.4-34
			c1.3-1.9,2.9-2.7,4.7-2.5c8.9,1,13.7,17.2,14.1,18.6c5,9,4.3,26.6-1.4,36.3C143.8,455.9,140.8,458.1,137.6,458.1z M133,398.3
			c-1.2,0-2.3,0.7-3.2,2.1c-4.8,6.8-5.3,27-3.2,32.9c0.7,2.1,0.9,4.9,1,7.8c0.4,7.1,0.7,14.4,9,15.7c0.4,0.1,0.7,0.1,1.1,0.1
			c3.5,0,6-3,7.5-5.5c5.5-9.4,6.2-26.4,1.3-35.1c0,0,0-0.1-0.1-0.1c0-0.2-4.7-16.9-13.1-17.8C133.2,398.3,133.1,398.3,133,398.3z"/>
		<path fill="#CE976A" d="M138.5,447.7c-2.7,0-5-3.3-6.2-8.9c-2-9.3-1.6-28.1,1.5-32c0.7-0.9,1.6-1,2.5-0.4c3.9,2.7,4.1,6.9,4.1,7.7
			c0.7,1.5,6,13.9,4.1,24.6C143.4,444.4,141.2,447.7,138.5,447.7z M135.2,407.3c-0.2,0-0.4,0.2-0.5,0.3c-2.6,3.2-3.4,21.4-1.3,30.9
			c1,4.8,3,7.9,5,7.9c2,0,3.9-3.1,4.7-7.9c2-10.9-4-23.9-4-24c0-0.1-0.1-0.2-0.1-0.3c0-0.2,0.2-4.2-3.6-6.8
			C135.4,407.3,135.3,407.3,135.2,407.3z"/>
		<path fill="#CE976A" d="M138.3,435.6c-0.2,0-0.3,0-0.5-0.1c-2.9-0.8-3.3-8.9-2.9-12.2c0.1-0.7,0.4-2.9,1.7-2.9
			c0.7,0,1.3,0.6,1.9,1.9c0,0,0,0.1,0,0.1c0.4,1.7,2.6,10.4,0.9,12.5C139.1,435.4,138.7,435.6,138.3,435.6z M136.6,421.7
			c-0.6,0.6-0.9,4.7-0.3,8.6c0.5,2.8,1.3,3.9,1.8,4.1c0.2,0,0.3,0.1,0.4-0.1c1-1.3-0.2-7.7-1.1-11.4
			C136.9,422,136.7,421.8,136.6,421.7z"/>
	</g>
</g>
</svg>
