<?xml version="1.0" encoding="UTF-8" standalone="no"?>
<!-- Created with Inkscape (http://www.inkscape.org/) -->

<svg
   xmlns:dc="http://purl.org/dc/elements/1.1/"
   xmlns:cc="http://creativecommons.org/ns#"
   xmlns:rdf="http://www.w3.org/1999/02/22-rdf-syntax-ns#"
   xmlns:svg="http://www.w3.org/2000/svg"
   xmlns="http://www.w3.org/2000/svg"
   xmlns:xlink="http://www.w3.org/1999/xlink"
   xmlns:sodipodi="http://sodipodi.sourceforge.net/DTD/sodipodi-0.dtd"
   xmlns:inkscape="http://www.inkscape.org/namespaces/inkscape"
   width="194.4682"
   height="87.622345"
   viewBox="0 0 51.453043 23.183413"
   version="1.1"
   id="svg1161"
   inkscape:version="0.92.4 (5da689c313, 2019-01-14)"
   sodipodi:docname="3.svg">
  <defs
     id="defs1155">
    <clipPath
       id="SVGID_2_">
      <use
         height="100%"
         width="100%"
         y="0"
         x="0"
         style="overflow:visible"
         xlink:href="#SVGID_1_"
         overflow="visible"
         id="use15" />
    </clipPath>
    <clipPath
       id="SVGID_4_">
      <use
         height="100%"
         width="100%"
         y="0"
         x="0"
         style="overflow:visible"
         xlink:href="#SVGID_3_"
         overflow="visible"
         id="use91" />
    </clipPath>
    <clipPath
       id="SVGID_6_">
      <use
         height="100%"
         width="100%"
         y="0"
         x="0"
         style="overflow:visible"
         xlink:href="#SVGID_5_"
         overflow="visible"
         id="use193" />
    </clipPath>
    <clipPath
       id="SVGID_8_">
      <use
         height="100%"
         width="100%"
         y="0"
         x="0"
         style="overflow:visible"
         xlink:href="#SVGID_7_"
         overflow="visible"
         id="use251" />
    </clipPath>
    <clipPath
       id="SVGID_10_">
      <use
         height="100%"
         width="100%"
         y="0"
         x="0"
         style="overflow:visible"
         xlink:href="#SVGID_9_"
         overflow="visible"
         id="use335" />
    </clipPath>
    <clipPath
       id="SVGID_12_">
      <use
         height="100%"
         width="100%"
         y="0"
         x="0"
         style="overflow:visible"
         xlink:href="#SVGID_11_"
         overflow="visible"
         id="use453" />
    </clipPath>
    <clipPath
       id="SVGID_14_">
      <use
         height="100%"
         width="100%"
         y="0"
         x="0"
         style="overflow:visible"
         xlink:href="#SVGID_13_"
         overflow="visible"
         id="use597" />
    </clipPath>
    <clipPath
       id="SVGID_16_">
      <use
         height="100%"
         width="100%"
         y="0"
         x="0"
         style="overflow:visible"
         xlink:href="#SVGID_15_"
         overflow="visible"
         id="use679" />
    </clipPath>
    <clipPath
       id="SVGID_18_">
      <use
         height="100%"
         width="100%"
         y="0"
         x="0"
         style="overflow:visible"
         xlink:href="#SVGID_17_"
         overflow="visible"
         id="use785" />
    </clipPath>
    <clipPath
       id="SVGID_20_">
      <use
         height="100%"
         width="100%"
         y="0"
         x="0"
         style="overflow:visible"
         xlink:href="#SVGID_19_"
         overflow="visible"
         id="use837" />
    </clipPath>
    <clipPath
       id="SVGID_22_">
      <use
         height="100%"
         width="100%"
         y="0"
         x="0"
         style="overflow:visible"
         xlink:href="#SVGID_21_"
         overflow="visible"
         id="use915" />
    </clipPath>
    <clipPath
       id="SVGID_24_">
      <use
         height="100%"
         width="100%"
         y="0"
         x="0"
         style="overflow:visible"
         xlink:href="#SVGID_23_"
         overflow="visible"
         id="use1009" />
    </clipPath>
    <clipPath
       id="SVGID_26_">
      <use
         height="100%"
         width="100%"
         y="0"
         x="0"
         style="overflow:visible"
         xlink:href="#SVGID_25_"
         overflow="visible"
         id="use1129" />
    </clipPath>
    <clipPath
       id="SVGID_28_">
      <use
         height="100%"
         width="100%"
         y="0"
         x="0"
         style="overflow:visible"
         xlink:href="#SVGID_27_"
         overflow="visible"
         id="use1177" />
    </clipPath>
    <path
       inkscape:connector-curvature="0"
       id="SVGID_1_"
       d="m 85.61,63.771 c 0,0 9.11,-7.035 22.765,-12.285 6.524,-2.508 21.116,-6.162 22.188,-5.343 1.133,1.889 5.288,20.02 5.415,28.834 0.125,8.814 -5.667,28.584 -7.177,29.34 -1.511,0.754 -22.784,-5.016 -28.585,-8.31 C 94.676,92.859 89.593,88.308 85.611,83.54 85.61,80.015 85.61,63.771 85.61,63.771 Z" />
    <path
       inkscape:connector-curvature="0"
       id="SVGID_3_"
       d="m 66.218,63.771 c 0,0 -9.109,-7.035 -22.765,-12.285 -6.523,-2.508 -21.116,-6.162 -22.186,-5.343 -1.133,1.889 -5.288,20.021 -5.414,28.836 -0.127,8.812 5.666,28.582 7.176,29.338 1.511,0.754 22.782,-5.016 28.583,-8.31 5.54,-3.148 10.624,-7.699 14.605,-12.467 0.001,-3.525 0.001,-19.769 0.001,-19.769 z" />
    <path
       inkscape:connector-curvature="0"
       id="SVGID_5_"
       d="m 216.268,64.571 c 0,0 -9.109,-7.034 -22.765,-12.285 -6.523,-2.509 -21.116,-6.162 -22.187,-5.343 -1.133,1.889 -5.288,20.021 -5.414,28.835 -0.127,8.814 5.666,28.583 7.176,29.339 1.511,0.755 22.782,-5.014 28.583,-8.311 5.54,-3.147 10.624,-7.697 14.605,-12.465 0.002,-3.527 0.002,-19.77 0.002,-19.77 z" />
    <path
       inkscape:connector-curvature="0"
       id="SVGID_7_"
       d="m 235.66,64.57 c 0,0 9.11,-7.034 22.765,-12.285 6.524,-2.509 21.116,-6.162 22.188,-5.343 1.133,1.888 5.288,20.021 5.415,28.835 0.125,8.814 -5.667,28.583 -7.177,29.339 -1.511,0.755 -22.784,-5.014 -28.585,-8.311 -5.54,-3.148 -10.623,-7.697 -14.605,-12.466 C 235.66,80.814 235.66,64.57 235.66,64.57 Z" />
    <path
       inkscape:connector-curvature="0"
       id="SVGID_9_"
       d="m 365.769,66.058 c 0,0 -9.111,-7.032 -22.767,-12.284 -6.523,-2.508 -21.116,-6.161 -22.186,-5.343 -1.133,1.89 -5.289,20.021 -5.415,28.835 -0.126,8.814 5.667,28.583 7.178,29.338 1.51,0.757 22.782,-5.013 28.583,-8.31 5.54,-3.148 10.624,-7.696 14.606,-12.465 0.001,-3.526 0.001,-19.771 0.001,-19.771 z" />
    <path
       inkscape:connector-curvature="0"
       id="SVGID_11_"
       d="m 385.16,66.058 c 0,0 9.111,-7.034 22.766,-12.284 6.524,-2.508 21.116,-6.161 22.187,-5.343 1.133,1.89 5.288,20.021 5.416,28.835 0.125,8.814 -5.667,28.583 -7.178,29.338 -1.511,0.757 -22.782,-5.014 -28.585,-8.31 -5.54,-3.148 -10.623,-7.696 -14.605,-12.465 -10e-4,-3.526 -10e-4,-19.771 -10e-4,-19.771 z" />
    <path
       inkscape:connector-curvature="0"
       id="SVGID_13_"
       d="m 515.153,66.489 c 0,0 -9.11,-7.035 -22.766,-12.286 -6.523,-2.509 -21.116,-6.162 -22.186,-5.343 -1.133,1.89 -5.289,20.021 -5.415,28.834 -0.125,8.814 5.667,28.583 7.178,29.339 1.51,0.754 22.782,-5.014 28.583,-8.311 5.539,-3.147 10.624,-7.697 14.606,-12.465 0,-3.525 0,-19.768 0,-19.768 z" />
    <path
       inkscape:connector-curvature="0"
       id="SVGID_15_"
       d="m 534.544,66.489 c 0,0 9.112,-7.035 22.766,-12.286 6.525,-2.509 21.116,-6.162 22.188,-5.343 1.133,1.888 5.287,20.021 5.415,28.834 0.125,8.814 -5.667,28.583 -7.178,29.339 -1.51,0.754 -22.782,-5.015 -28.584,-8.311 -5.54,-3.147 -10.622,-7.697 -14.606,-12.465 -10e-4,-3.525 -10e-4,-19.768 -10e-4,-19.768 z" />
    <path
       inkscape:connector-curvature="0"
       id="SVGID_17_"
       d="m 666.023,66.498 c 0,0 -9.111,-7.035 -22.766,-12.285 -6.523,-2.509 -21.116,-6.162 -22.186,-5.343 -1.133,1.888 -5.289,20.02 -5.415,28.834 -0.126,8.814 5.667,28.583 7.178,29.338 1.511,0.755 22.782,-5.014 28.583,-8.31 5.539,-3.148 10.624,-7.698 14.606,-12.465 0,-3.527 0,-19.769 0,-19.769 z" />
    <path
       inkscape:connector-curvature="0"
       id="SVGID_19_"
       d="m 685.413,66.497 c 0,0 9.111,-7.034 22.766,-12.284 6.525,-2.509 21.116,-6.162 22.188,-5.343 1.133,1.888 5.287,20.02 5.415,28.834 0.125,8.814 -5.667,28.583 -7.178,29.338 -1.51,0.755 -22.782,-5.014 -28.584,-8.31 -5.54,-3.149 -10.623,-7.698 -14.606,-12.465 -10e-4,-3.527 -10e-4,-19.77 -10e-4,-19.77 z" />
    <path
       inkscape:connector-curvature="0"
       id="SVGID_21_"
       d="m 814.768,66.498 c 0,0 -9.109,-7.035 -22.765,-12.286 -6.523,-2.509 -21.116,-6.161 -22.186,-5.343 -1.133,1.888 -5.288,20.021 -5.414,28.835 -0.127,8.814 5.666,28.583 7.176,29.339 1.511,0.756 22.782,-5.014 28.583,-8.31 5.54,-3.148 10.624,-7.697 14.605,-12.466 10e-4,-3.526 10e-4,-19.769 10e-4,-19.769 z" />
    <path
       inkscape:connector-curvature="0"
       id="SVGID_23_"
       d="m 834.16,66.498 c 0,0 9.11,-7.035 22.765,-12.285 6.524,-2.509 21.116,-6.162 22.188,-5.343 1.133,1.889 5.288,20.021 5.415,28.835 0.125,8.814 -5.667,28.584 -7.177,29.339 -1.511,0.756 -22.784,-5.015 -28.585,-8.31 -5.54,-3.148 -10.622,-7.697 -14.605,-12.466 -10e-4,-3.527 -10e-4,-19.77 -10e-4,-19.77 z" />
    <path
       inkscape:connector-curvature="0"
       id="SVGID_25_"
       d="m 984.75,66.772 c 0,0 9.11,-7.035 22.765,-12.285 6.524,-2.509 21.116,-6.161 22.187,-5.343 1.133,1.889 5.288,20.021 5.414,28.835 0.126,8.814 -5.666,28.584 -7.177,29.34 -1.511,0.755 -22.782,-5.015 -28.583,-8.311 -5.54,-3.148 -10.624,-7.697 -14.606,-12.466 0,-3.527 0,-19.77 0,-19.77 z" />
    <path
       inkscape:connector-curvature="0"
       id="SVGID_27_"
       d="m 965.359,66.772 c 0,0 -9.11,-7.034 -22.765,-12.285 -6.524,-2.509 -21.116,-6.162 -22.187,-5.343 -1.133,1.889 -5.289,20.021 -5.415,28.835 -0.126,8.814 5.667,28.583 7.178,29.339 1.511,0.755 22.782,-5.015 28.583,-8.311 5.54,-3.148 10.624,-7.697 14.606,-12.466 0,-3.526 0,-19.769 0,-19.769 z" />
  </defs>
  <sodipodi:namedview
     id="base"
     pagecolor="#ffffff"
     bordercolor="#666666"
     borderopacity="1.0"
     inkscape:pageopacity="0.0"
     inkscape:pageshadow="2"
     inkscape:zoom="0.98994949"
     inkscape:cx="402.22763"
     inkscape:cy="-84.648209"
     inkscape:document-units="mm"
     inkscape:current-layer="layer1"
     showgrid="false"
     units="px"
     inkscape:window-width="1920"
     inkscape:window-height="1017"
     inkscape:window-x="-8"
     inkscape:window-y="-8"
     inkscape:window-maximized="1"
     fit-margin-top="0"
     fit-margin-left="0"
     fit-margin-right="0"
     fit-margin-bottom="0" />
  <metadata
     id="metadata1158">
    <rdf:RDF>
      <cc:Work
         rdf:about="">
        <dc:format>image/svg+xml</dc:format>
        <dc:type
           rdf:resource="http://purl.org/dc/dcmitype/StillImage" />
        <dc:title></dc:title>
      </cc:Work>
    </rdf:RDF>
  </metadata>
  <g
     inkscape:label="Layer 1"
     inkscape:groupmode="layer"
     id="layer1"
     transform="translate(-0.8468806,-260.10471)">
    <g
       transform="matrix(0.39726567,0,0,0.39726567,-181.93069,240.74088)"
       id="g770">
      <g
         id="g756">
        <path
           style="fill:#4e357c"
           inkscape:connector-curvature="0"
           d="m 509.829,66.633 c 0,0 -8.997,-6.947 -22.482,-12.133 -6.442,-2.477 -20.17,-6.017 -21.909,-5.275 -1.119,1.866 -5.222,19.77 -5.347,28.475 -0.124,8.704 5.596,28.225 7.087,28.972 1.493,0.745 22.497,-4.953 28.226,-8.207 5.47,-3.11 10.49,-7.602 14.424,-12.311 0.001,-3.481 0.001,-19.521 0.001,-19.521 z"
           id="path584" />
        <path
           style="fill:#007971"
           inkscape:connector-curvature="0"
           d="m 515.153,66.489 c 0,0 -9.11,-7.035 -22.766,-12.286 -6.523,-2.509 -21.116,-6.162 -22.186,-5.343 -1.133,1.89 -5.289,20.021 -5.415,28.834 -0.125,8.814 5.667,28.583 7.178,29.339 1.51,0.754 22.782,-5.014 28.583,-8.311 5.539,-3.147 10.624,-7.697 14.606,-12.465 0,-3.525 0,-19.768 0,-19.768 z"
           id="path586" />
        <path
           style="fill:#4e357c"
           inkscape:connector-curvature="0"
           d="m 539.868,66.632 c 0,0 8.997,-6.946 22.48,-12.132 6.443,-2.477 20.17,-6.017 21.91,-5.275 1.118,1.864 5.223,19.77 5.347,28.475 0.124,8.704 -5.596,28.225 -7.088,28.97 -1.492,0.747 -22.497,-4.951 -28.225,-8.205 -5.472,-3.11 -10.491,-7.602 -14.424,-12.311 0,-3.482 0,-19.522 0,-19.522 z"
           id="path588" />
        <path
           style="fill:#4e357c"
           inkscape:connector-curvature="0"
           d="m 515.153,66.489 c 0,2.015 0,17.124 0,20.147 3.69,1.279 15.701,1.279 19.391,0 0,-3.022 0,-18.132 0,-20.147 -3.674,-0.854 -15.717,-0.854 -19.391,0 z"
           id="path590" />
        <g
           id="g672">
          <defs
             id="defs593">
            <path
               inkscape:connector-curvature="0"
               id="path3296"
               d="m 515.153,66.489 c 0,0 -9.11,-7.035 -22.766,-12.286 -6.523,-2.509 -21.116,-6.162 -22.186,-5.343 -1.133,1.89 -5.289,20.021 -5.415,28.834 -0.125,8.814 5.667,28.583 7.178,29.339 1.51,0.754 22.782,-5.014 28.583,-8.311 5.539,-3.147 10.624,-7.697 14.606,-12.465 0,-3.525 0,-19.768 0,-19.768 z" />
          </defs>
          <use
             height="100%"
             width="100%"
             y="0"
             x="0"
             style="overflow:visible;fill:#6a539e"
             xlink:href="#SVGID_13_"
             overflow="visible"
             id="use595" />
          <clipPath
             id="clipPath2466">
            <use
               height="100%"
               width="100%"
               y="0"
               x="0"
               style="overflow:visible"
               xlink:href="#SVGID_13_"
               overflow="visible"
               id="use2464" />
          </clipPath>
          <g
             clip-path="url(#SVGID_14_)"
             id="g670">
            <g
               id="g612">
              <rect
                 style="fill:#099c95"
                 x="468.466"
                 y="-38.341999"
                 transform="matrix(0.707,0.7072,-0.7072,0.707,152.9566,-326.8917)"
                 width="5.0619998"
                 height="118.992"
                 id="rect600" />
              <rect
                 style="fill:#46ae51"
                 x="472.04599"
                 y="-34.762001"
                 transform="matrix(0.7072,0.707,-0.707,0.7072,156.4192,-328.2685)"
                 width="5.0640001"
                 height="118.993"
                 id="rect602" />
              <rect
                 style="fill:#2d6fb6"
                 x="479.207"
                 y="-27.601"
                 transform="matrix(0.7071,0.7071,-0.7071,0.7071,163.6516,-331.2989)"
                 width="5.0640001"
                 height="118.993"
                 id="rect604" />
              <rect
                 style="fill:#1d85c7"
                 x="482.78699"
                 y="-24.021"
                 transform="matrix(0.7071,0.7071,-0.7071,0.7071,167.2441,-332.7926)"
                 width="5.0619998"
                 height="118.993"
                 id="rect606" />
              <rect
                 style="fill:#099c95"
                 x="489.94699"
                 y="-16.860001"
                 transform="matrix(0.707,0.7072,-0.7072,0.707,174.4451,-335.7917)"
                 width="5.0640001"
                 height="118.993"
                 id="rect608" />
              <rect
                 style="fill:#46ae51"
                 x="493.52802"
                 y="-13.281"
                 transform="matrix(0.7071,0.7071,-0.7071,0.7071,177.9562,-337.2173)"
                 width="5.0630002"
                 height="118.994"
                 id="rect610" />
            </g>
            <g
               id="g626">
              <rect
                 style="fill:#099c95"
                 x="489.94699"
                 y="-16.860001"
                 transform="matrix(0.707,0.7072,-0.7072,0.707,174.4451,-335.7917)"
                 width="5.0640001"
                 height="118.993"
                 id="rect614" />
              <rect
                 style="fill:#46ae51"
                 x="493.52802"
                 y="-13.281"
                 transform="matrix(0.7071,0.7071,-0.7071,0.7071,177.9562,-337.2173)"
                 width="5.0630002"
                 height="118.994"
                 id="rect616" />
              <rect
                 style="fill:#2d6fb6"
                 x="500.68799"
                 y="-6.1199999"
                 transform="matrix(0.7071,0.7071,-0.7071,0.7071,185.1188,-340.1854)"
                 width="5.0630002"
                 height="118.992"
                 id="rect618" />
              <rect
                 style="fill:#1d85c7"
                 x="504.26801"
                 y="-2.539"
                 transform="matrix(0.7071,0.7071,-0.7071,0.7071,188.6989,-341.6683)"
                 width="5.0630002"
                 height="118.992"
                 id="rect620" />
              <rect
                 style="fill:#099c95"
                 x="511.42999"
                 y="4.6199999"
                 transform="matrix(0.7072,0.707,-0.707,0.7072,195.8333,-344.6148)"
                 width="5.0630002"
                 height="118.994"
                 id="rect622" />
              <rect
                 style="fill:#46ae51"
                 x="515.00897"
                 y="8.2019997"
                 transform="matrix(0.707,0.7072,-0.7072,0.707,199.5377,-346.1926)"
                 width="5.0640001"
                 height="118.992"
                 id="rect624" />
            </g>
            <g
               id="g640">
              <rect
                 style="fill:#099c95"
                 x="511.42999"
                 y="4.6199999"
                 transform="matrix(0.7072,0.707,-0.707,0.7072,195.8333,-344.6148)"
                 width="5.0630002"
                 height="118.994"
                 id="rect628" />
              <rect
                 style="fill:#46ae51"
                 x="515.00897"
                 y="8.2019997"
                 transform="matrix(0.707,0.7072,-0.7072,0.707,199.5377,-346.1926)"
                 width="5.0640001"
                 height="118.992"
                 id="rect630" />
              <rect
                 style="fill:#2d6fb6"
                 x="522.16998"
                 y="15.361"
                 transform="matrix(0.7071,0.7071,-0.7071,0.7071,206.5988,-349.0831)"
                 width="5.0619998"
                 height="118.992"
                 id="rect632" />
              <rect
                 style="fill:#1d85c7"
                 x="525.74902"
                 y="18.941999"
                 transform="matrix(0.707,0.7072,-0.7072,0.707,210.2541,-350.6218)"
                 width="5.0640001"
                 height="118.993"
                 id="rect634" />
              <rect
                 style="fill:#099c95"
                 x="532.90997"
                 y="26.101999"
                 transform="matrix(0.7072,0.707,-0.707,0.7072,217.3086,-353.5102)"
                 width="5.0630002"
                 height="118.993"
                 id="rect636" />
              <rect
                 style="fill:#46ae51"
                 x="536.48999"
                 y="29.683001"
                 transform="matrix(0.7071,0.7072,-0.7072,0.7071,220.9661,-355.0485)"
                 width="5.0650001"
                 height="118.992"
                 id="rect638" />
            </g>
            <g
               id="g654">
              <rect
                 style="fill:#099c95"
                 x="532.90997"
                 y="26.101999"
                 transform="matrix(0.7072,0.707,-0.707,0.7072,217.3086,-353.5102)"
                 width="5.0630002"
                 height="118.993"
                 id="rect642" />
              <rect
                 style="fill:#46ae51"
                 x="536.48999"
                 y="29.683001"
                 transform="matrix(0.7071,0.7072,-0.7072,0.7071,220.9661,-355.0485)"
                 width="5.0650001"
                 height="118.992"
                 id="rect644" />
              <rect
                 style="fill:#2d6fb6"
                 x="543.651"
                 y="36.841"
                 transform="matrix(0.7072,0.707,-0.707,0.7072,228.0348,-357.9505)"
                 width="5.0630002"
                 height="118.995"
                 id="rect646" />
              <rect
                 style="fill:#1d85c7"
                 x="547.23102"
                 y="40.423"
                 transform="matrix(0.7069,0.7073,-0.7073,0.7069,231.7848,-359.5504)"
                 width="5.0630002"
                 height="118.993"
                 id="rect648" />
              <rect
                 style="fill:#099c95"
                 x="554.39203"
                 y="47.583"
                 transform="matrix(0.7072,0.707,-0.707,0.7072,238.7867,-362.4079)"
                 width="5.0640001"
                 height="118.993"
                 id="rect650" />
              <rect
                 style="fill:#46ae51"
                 x="557.97302"
                 y="51.164001"
                 transform="matrix(0.7071,0.7071,-0.7071,0.7071,242.4033,-363.9156)"
                 width="5.0619998"
                 height="118.993"
                 id="rect652" />
            </g>
            <g
               id="g668">
              <rect
                 style="fill:#099c95"
                 x="554.39099"
                 y="47.583"
                 transform="matrix(0.707,0.7072,-0.7072,0.707,238.8849,-362.4741)"
                 width="5.0619998"
                 height="118.993"
                 id="rect656" />
              <rect
                 style="fill:#46ae51"
                 x="557.97198"
                 y="51.161999"
                 transform="matrix(0.7073,0.7069,-0.7069,0.7073,242.3034,-363.8492)"
                 width="5.0640001"
                 height="118.995"
                 id="rect658" />
              <rect
                 style="fill:#2d6fb6"
                 x="565.133"
                 y="58.324001"
                 transform="matrix(0.7072,0.7071,-0.7071,0.7072,249.5431,-366.868)"
                 width="5.0630002"
                 height="118.993"
                 id="rect660" />
              <rect
                 style="fill:#1d85c7"
                 x="568.71301"
                 y="61.904999"
                 transform="matrix(0.7071,0.7071,-0.7071,0.7071,253.157,-368.3731)"
                 width="5.0630002"
                 height="118.993"
                 id="rect662" />
              <rect
                 style="fill:#099c95"
                 x="575.87299"
                 y="69.064003"
                 transform="matrix(0.7072,0.707,-0.707,0.7072,260.2506,-371.297)"
                 width="5.0630002"
                 height="118.994"
                 id="rect664" />
              <rect
                 style="fill:#46ae51"
                 x="579.453"
                 y="72.644997"
                 transform="matrix(0.7071,0.7071,-0.7071,0.7071,263.8972,-372.8218)"
                 width="5.0630002"
                 height="118.992"
                 id="rect666" />
            </g>
          </g>
        </g>
        <g
           id="g754">
          <defs
             id="defs675">
            <path
               inkscape:connector-curvature="0"
               id="path3339"
               d="m 534.544,66.489 c 0,0 9.112,-7.035 22.766,-12.286 6.525,-2.509 21.116,-6.162 22.188,-5.343 1.133,1.888 5.287,20.021 5.415,28.834 0.125,8.814 -5.667,28.583 -7.178,29.339 -1.51,0.754 -22.782,-5.015 -28.584,-8.311 -5.54,-3.147 -10.622,-7.697 -14.606,-12.465 -10e-4,-3.525 -10e-4,-19.768 -10e-4,-19.768 z" />
          </defs>
          <use
             height="100%"
             width="100%"
             y="0"
             x="0"
             style="overflow:visible;fill:#6a539e"
             xlink:href="#SVGID_15_"
             overflow="visible"
             id="use677" />
          <clipPath
             id="clipPath2510">
            <use
               height="100%"
               width="100%"
               y="0"
               x="0"
               style="overflow:visible"
               xlink:href="#SVGID_15_"
               overflow="visible"
               id="use2508" />
          </clipPath>
          <g
             clip-path="url(#SVGID_16_)"
             id="g752">
            <g
               id="g694">
              <rect
                 style="fill:#099c95"
                 x="468.466"
                 y="-38.341999"
                 transform="matrix(0.707,0.7072,-0.7072,0.707,152.9566,-326.8917)"
                 width="5.0619998"
                 height="118.992"
                 id="rect682" />
              <rect
                 style="fill:#46ae51"
                 x="472.04599"
                 y="-34.762001"
                 transform="matrix(0.7072,0.707,-0.707,0.7072,156.4192,-328.2685)"
                 width="5.0640001"
                 height="118.993"
                 id="rect684" />
              <rect
                 style="fill:#2d6fb6"
                 x="479.207"
                 y="-27.601"
                 transform="matrix(0.7071,0.7071,-0.7071,0.7071,163.6516,-331.2989)"
                 width="5.0640001"
                 height="118.993"
                 id="rect686" />
              <rect
                 style="fill:#1d85c7"
                 x="482.78699"
                 y="-24.021"
                 transform="matrix(0.7071,0.7071,-0.7071,0.7071,167.2441,-332.7926)"
                 width="5.0619998"
                 height="118.993"
                 id="rect688" />
              <rect
                 style="fill:#099c95"
                 x="489.94699"
                 y="-16.860001"
                 transform="matrix(0.707,0.7072,-0.7072,0.707,174.4451,-335.7917)"
                 width="5.0640001"
                 height="118.993"
                 id="rect690" />
              <rect
                 style="fill:#46ae51"
                 x="493.52802"
                 y="-13.281"
                 transform="matrix(0.7071,0.7071,-0.7071,0.7071,177.9562,-337.2173)"
                 width="5.0630002"
                 height="118.994"
                 id="rect692" />
            </g>
            <g
               id="g708">
              <rect
                 style="fill:#099c95"
                 x="489.94699"
                 y="-16.860001"
                 transform="matrix(0.707,0.7072,-0.7072,0.707,174.4451,-335.7917)"
                 width="5.0640001"
                 height="118.993"
                 id="rect696" />
              <rect
                 style="fill:#46ae51"
                 x="493.52802"
                 y="-13.281"
                 transform="matrix(0.7071,0.7071,-0.7071,0.7071,177.9562,-337.2173)"
                 width="5.0630002"
                 height="118.994"
                 id="rect698" />
              <rect
                 style="fill:#2d6fb6"
                 x="500.68799"
                 y="-6.1199999"
                 transform="matrix(0.7071,0.7071,-0.7071,0.7071,185.1188,-340.1854)"
                 width="5.0630002"
                 height="118.992"
                 id="rect700" />
              <rect
                 style="fill:#1d85c7"
                 x="504.26801"
                 y="-2.539"
                 transform="matrix(0.7071,0.7071,-0.7071,0.7071,188.6989,-341.6683)"
                 width="5.0630002"
                 height="118.992"
                 id="rect702" />
              <rect
                 style="fill:#099c95"
                 x="511.42999"
                 y="4.6199999"
                 transform="matrix(0.7072,0.707,-0.707,0.7072,195.8333,-344.6148)"
                 width="5.0630002"
                 height="118.994"
                 id="rect704" />
              <rect
                 style="fill:#46ae51"
                 x="515.00897"
                 y="8.2019997"
                 transform="matrix(0.707,0.7072,-0.7072,0.707,199.5377,-346.1926)"
                 width="5.0640001"
                 height="118.992"
                 id="rect706" />
            </g>
            <g
               id="g722">
              <rect
                 style="fill:#099c95"
                 x="511.42999"
                 y="4.6199999"
                 transform="matrix(0.7072,0.707,-0.707,0.7072,195.8333,-344.6148)"
                 width="5.0630002"
                 height="118.994"
                 id="rect710" />
              <rect
                 style="fill:#46ae51"
                 x="515.00897"
                 y="8.2019997"
                 transform="matrix(0.707,0.7072,-0.7072,0.707,199.5377,-346.1926)"
                 width="5.0640001"
                 height="118.992"
                 id="rect712" />
              <rect
                 style="fill:#2d6fb6"
                 x="522.16998"
                 y="15.361"
                 transform="matrix(0.7071,0.7071,-0.7071,0.7071,206.5988,-349.0831)"
                 width="5.0619998"
                 height="118.992"
                 id="rect714" />
              <rect
                 style="fill:#1d85c7"
                 x="525.74902"
                 y="18.941999"
                 transform="matrix(0.707,0.7072,-0.7072,0.707,210.2541,-350.6218)"
                 width="5.0640001"
                 height="118.993"
                 id="rect716" />
              <rect
                 style="fill:#099c95"
                 x="532.90997"
                 y="26.101999"
                 transform="matrix(0.7072,0.707,-0.707,0.7072,217.3086,-353.5102)"
                 width="5.0630002"
                 height="118.993"
                 id="rect718" />
              <rect
                 style="fill:#46ae51"
                 x="536.48999"
                 y="29.683001"
                 transform="matrix(0.7071,0.7072,-0.7072,0.7071,220.9661,-355.0485)"
                 width="5.0650001"
                 height="118.992"
                 id="rect720" />
            </g>
            <g
               id="g736">
              <rect
                 style="fill:#099c95"
                 x="532.90997"
                 y="26.101999"
                 transform="matrix(0.7072,0.707,-0.707,0.7072,217.3086,-353.5102)"
                 width="5.0630002"
                 height="118.993"
                 id="rect724" />
              <rect
                 style="fill:#46ae51"
                 x="536.48999"
                 y="29.683001"
                 transform="matrix(0.7071,0.7072,-0.7072,0.7071,220.9661,-355.0485)"
                 width="5.0650001"
                 height="118.992"
                 id="rect726" />
              <rect
                 style="fill:#2d6fb6"
                 x="543.651"
                 y="36.841"
                 transform="matrix(0.7072,0.707,-0.707,0.7072,228.0348,-357.9505)"
                 width="5.0630002"
                 height="118.995"
                 id="rect728" />
              <rect
                 style="fill:#1d85c7"
                 x="547.23102"
                 y="40.423"
                 transform="matrix(0.7069,0.7073,-0.7073,0.7069,231.7848,-359.5504)"
                 width="5.0630002"
                 height="118.993"
                 id="rect730" />
              <rect
                 style="fill:#099c95"
                 x="554.39203"
                 y="47.583"
                 transform="matrix(0.7072,0.707,-0.707,0.7072,238.7867,-362.4079)"
                 width="5.0640001"
                 height="118.993"
                 id="rect732" />
              <rect
                 style="fill:#46ae51"
                 x="557.97302"
                 y="51.164001"
                 transform="matrix(0.7071,0.7071,-0.7071,0.7071,242.4033,-363.9156)"
                 width="5.0619998"
                 height="118.993"
                 id="rect734" />
            </g>
            <g
               id="g750">
              <rect
                 style="fill:#099c95"
                 x="554.39099"
                 y="47.583"
                 transform="matrix(0.707,0.7072,-0.7072,0.707,238.8849,-362.4741)"
                 width="5.0619998"
                 height="118.993"
                 id="rect738" />
              <rect
                 style="fill:#46ae51"
                 x="557.97198"
                 y="51.161999"
                 transform="matrix(0.7073,0.7069,-0.7069,0.7073,242.3034,-363.8492)"
                 width="5.0640001"
                 height="118.995"
                 id="rect740" />
              <rect
                 style="fill:#2d6fb6"
                 x="565.133"
                 y="58.324001"
                 transform="matrix(0.7072,0.7071,-0.7071,0.7072,249.5431,-366.868)"
                 width="5.0630002"
                 height="118.993"
                 id="rect742" />
              <rect
                 style="fill:#1d85c7"
                 x="568.71301"
                 y="61.904999"
                 transform="matrix(0.7071,0.7071,-0.7071,0.7071,253.157,-368.3731)"
                 width="5.0630002"
                 height="118.993"
                 id="rect744" />
              <rect
                 style="fill:#099c95"
                 x="575.87299"
                 y="69.064003"
                 transform="matrix(0.7072,0.707,-0.707,0.7072,260.2506,-371.297)"
                 width="5.0630002"
                 height="118.994"
                 id="rect746" />
              <rect
                 style="fill:#46ae51"
                 x="579.453"
                 y="72.644997"
                 transform="matrix(0.7071,0.7071,-0.7071,0.7071,263.8972,-372.8218)"
                 width="5.0630002"
                 height="118.992"
                 id="rect748" />
            </g>
          </g>
        </g>
      </g>
      <g
         id="g762">
        <path
           style="fill:#e3e4e4"
           inkscape:connector-curvature="0"
           d="m 513.642,72.785 c -3.812,-2.14 -21.784,-7.555 -32.234,-10.199 -10.451,-2.645 -16.117,7.681 -6.17,9.192 9.946,1.511 31.101,-0.379 38.404,1.007 z"
           id="path758" />
        <path
           style="fill:#e3e4e4"
           inkscape:connector-curvature="0"
           d="m 513.642,79.709 c -7.177,2.016 -24.806,4.786 -35.256,2.141 -10.452,-2.643 -11.711,8.94 -1.764,10.453 9.948,1.51 31.356,-4.038 37.02,-12.594 z"
           id="path760" />
      </g>
      <g
         id="g768">
        <path
           style="fill:#e3e4e4"
           inkscape:connector-curvature="0"
           d="m 536.055,72.785 c 3.813,-2.14 21.784,-7.555 32.235,-10.199 10.452,-2.645 16.117,7.681 6.169,9.192 -9.946,1.511 -31.101,-0.379 -38.404,1.007 z"
           id="path764" />
        <path
           style="fill:#e3e4e4"
           inkscape:connector-curvature="0"
           d="m 536.055,79.709 c 7.177,2.016 24.805,4.786 35.257,2.141 10.451,-2.643 11.71,8.939 1.763,10.453 -9.948,1.51 -31.357,-4.038 -37.02,-12.594 z"
           id="path766" />
      </g>
    </g>
    <g
       transform="matrix(0.39726567,0,0,0.39726567,-3.5937243,240.74088)"
       id="g1288" />
    <g
       transform="matrix(0.39726567,0,0,0.39726567,-3.5937243,240.74088)"
       id="g1290" />
    <g
       transform="matrix(0.39726567,0,0,0.39726567,-3.5937243,240.74088)"
       id="g1292" />
    <g
       transform="matrix(0.39726567,0,0,0.39726567,-3.5937243,240.74088)"
       id="g1294" />
    <g
       transform="matrix(0.39726567,0,0,0.39726567,-3.5937243,240.74088)"
       id="g1296" />
    <g
       transform="matrix(0.39726567,0,0,0.39726567,-3.5937243,240.74088)"
       id="g1298" />
  </g>
</svg>
