<?xml version="1.0" encoding="UTF-8" standalone="no"?>
<!-- Created with Inkscape (http://www.inkscape.org/) -->

<svg
   xmlns:dc="http://purl.org/dc/elements/1.1/"
   xmlns:cc="http://creativecommons.org/ns#"
   xmlns:rdf="http://www.w3.org/1999/02/22-rdf-syntax-ns#"
   xmlns:svg="http://www.w3.org/2000/svg"
   xmlns="http://www.w3.org/2000/svg"
   xmlns:xlink="http://www.w3.org/1999/xlink"
   xmlns:sodipodi="http://sodipodi.sourceforge.net/DTD/sodipodi-0.dtd"
   xmlns:inkscape="http://www.inkscape.org/namespaces/inkscape"
   width="194.46674"
   height="87.623779"
   viewBox="0 0 51.452656 23.183792"
   version="1.1"
   id="svg1161"
   inkscape:version="0.92.4 (5da689c313, 2019-01-14)"
   sodipodi:docname="set_icon.svg">
  <defs
     id="defs1155">
    <clipPath
       id="SVGID_2_">
      <use
         height="100%"
         width="100%"
         y="0"
         x="0"
         style="overflow:visible"
         xlink:href="#SVGID_1_"
         overflow="visible"
         id="use15" />
    </clipPath>
    <clipPath
       id="SVGID_4_">
      <use
         height="100%"
         width="100%"
         y="0"
         x="0"
         style="overflow:visible"
         xlink:href="#SVGID_3_"
         overflow="visible"
         id="use91" />
    </clipPath>
    <clipPath
       id="SVGID_6_">
      <use
         height="100%"
         width="100%"
         y="0"
         x="0"
         style="overflow:visible"
         xlink:href="#SVGID_5_"
         overflow="visible"
         id="use193" />
    </clipPath>
    <clipPath
       id="SVGID_8_">
      <use
         height="100%"
         width="100%"
         y="0"
         x="0"
         style="overflow:visible"
         xlink:href="#SVGID_7_"
         overflow="visible"
         id="use251" />
    </clipPath>
    <clipPath
       id="SVGID_10_">
      <use
         height="100%"
         width="100%"
         y="0"
         x="0"
         style="overflow:visible"
         xlink:href="#SVGID_9_"
         overflow="visible"
         id="use335" />
    </clipPath>
    <clipPath
       id="SVGID_12_">
      <use
         height="100%"
         width="100%"
         y="0"
         x="0"
         style="overflow:visible"
         xlink:href="#SVGID_11_"
         overflow="visible"
         id="use453" />
    </clipPath>
    <clipPath
       id="SVGID_14_">
      <use
         height="100%"
         width="100%"
         y="0"
         x="0"
         style="overflow:visible"
         xlink:href="#SVGID_13_"
         overflow="visible"
         id="use597" />
    </clipPath>
    <clipPath
       id="SVGID_16_">
      <use
         height="100%"
         width="100%"
         y="0"
         x="0"
         style="overflow:visible"
         xlink:href="#SVGID_15_"
         overflow="visible"
         id="use679" />
    </clipPath>
    <clipPath
       id="SVGID_18_">
      <use
         height="100%"
         width="100%"
         y="0"
         x="0"
         style="overflow:visible"
         xlink:href="#SVGID_17_"
         overflow="visible"
         id="use785" />
    </clipPath>
    <clipPath
       id="SVGID_20_">
      <use
         height="100%"
         width="100%"
         y="0"
         x="0"
         style="overflow:visible"
         xlink:href="#SVGID_19_"
         overflow="visible"
         id="use837" />
    </clipPath>
    <clipPath
       id="SVGID_22_">
      <use
         height="100%"
         width="100%"
         y="0"
         x="0"
         style="overflow:visible"
         xlink:href="#SVGID_21_"
         overflow="visible"
         id="use915" />
    </clipPath>
    <clipPath
       id="SVGID_24_">
      <use
         height="100%"
         width="100%"
         y="0"
         x="0"
         style="overflow:visible"
         xlink:href="#SVGID_23_"
         overflow="visible"
         id="use1009" />
    </clipPath>
    <clipPath
       id="SVGID_26_">
      <use
         height="100%"
         width="100%"
         y="0"
         x="0"
         style="overflow:visible"
         xlink:href="#SVGID_25_"
         overflow="visible"
         id="use1129" />
    </clipPath>
    <clipPath
       id="SVGID_28_">
      <use
         height="100%"
         width="100%"
         y="0"
         x="0"
         style="overflow:visible"
         xlink:href="#SVGID_27_"
         overflow="visible"
         id="use1177" />
    </clipPath>
    <path
       inkscape:connector-curvature="0"
       id="SVGID_1_"
       d="m 85.61,63.771 c 0,0 9.11,-7.035 22.765,-12.285 6.524,-2.508 21.116,-6.162 22.188,-5.343 1.133,1.889 5.288,20.02 5.415,28.834 0.125,8.814 -5.667,28.584 -7.177,29.34 -1.511,0.754 -22.784,-5.016 -28.585,-8.31 C 94.676,92.859 89.593,88.308 85.611,83.54 85.61,80.015 85.61,63.771 85.61,63.771 Z" />
    <path
       inkscape:connector-curvature="0"
       id="SVGID_3_"
       d="m 66.218,63.771 c 0,0 -9.109,-7.035 -22.765,-12.285 -6.523,-2.508 -21.116,-6.162 -22.186,-5.343 -1.133,1.889 -5.288,20.021 -5.414,28.836 -0.127,8.812 5.666,28.582 7.176,29.338 1.511,0.754 22.782,-5.016 28.583,-8.31 5.54,-3.148 10.624,-7.699 14.605,-12.467 0.001,-3.525 0.001,-19.769 0.001,-19.769 z" />
    <path
       inkscape:connector-curvature="0"
       id="SVGID_5_"
       d="m 216.268,64.571 c 0,0 -9.109,-7.034 -22.765,-12.285 -6.523,-2.509 -21.116,-6.162 -22.187,-5.343 -1.133,1.889 -5.288,20.021 -5.414,28.835 -0.127,8.814 5.666,28.583 7.176,29.339 1.511,0.755 22.782,-5.014 28.583,-8.311 5.54,-3.147 10.624,-7.697 14.605,-12.465 0.002,-3.527 0.002,-19.77 0.002,-19.77 z" />
    <path
       inkscape:connector-curvature="0"
       id="SVGID_7_"
       d="m 235.66,64.57 c 0,0 9.11,-7.034 22.765,-12.285 6.524,-2.509 21.116,-6.162 22.188,-5.343 1.133,1.888 5.288,20.021 5.415,28.835 0.125,8.814 -5.667,28.583 -7.177,29.339 -1.511,0.755 -22.784,-5.014 -28.585,-8.311 -5.54,-3.148 -10.623,-7.697 -14.605,-12.466 C 235.66,80.814 235.66,64.57 235.66,64.57 Z" />
    <path
       inkscape:connector-curvature="0"
       id="SVGID_9_"
       d="m 365.769,66.058 c 0,0 -9.111,-7.032 -22.767,-12.284 -6.523,-2.508 -21.116,-6.161 -22.186,-5.343 -1.133,1.89 -5.289,20.021 -5.415,28.835 -0.126,8.814 5.667,28.583 7.178,29.338 1.51,0.757 22.782,-5.013 28.583,-8.31 5.54,-3.148 10.624,-7.696 14.606,-12.465 0.001,-3.526 0.001,-19.771 0.001,-19.771 z" />
    <path
       inkscape:connector-curvature="0"
       id="SVGID_11_"
       d="m 385.16,66.058 c 0,0 9.111,-7.034 22.766,-12.284 6.524,-2.508 21.116,-6.161 22.187,-5.343 1.133,1.89 5.288,20.021 5.416,28.835 0.125,8.814 -5.667,28.583 -7.178,29.338 -1.511,0.757 -22.782,-5.014 -28.585,-8.31 -5.54,-3.148 -10.623,-7.696 -14.605,-12.465 -10e-4,-3.526 -10e-4,-19.771 -10e-4,-19.771 z" />
    <path
       inkscape:connector-curvature="0"
       id="SVGID_13_"
       d="m 515.153,66.489 c 0,0 -9.11,-7.035 -22.766,-12.286 -6.523,-2.509 -21.116,-6.162 -22.186,-5.343 -1.133,1.89 -5.289,20.021 -5.415,28.834 -0.125,8.814 5.667,28.583 7.178,29.339 1.51,0.754 22.782,-5.014 28.583,-8.311 5.539,-3.147 10.624,-7.697 14.606,-12.465 0,-3.525 0,-19.768 0,-19.768 z" />
    <path
       inkscape:connector-curvature="0"
       id="SVGID_15_"
       d="m 534.544,66.489 c 0,0 9.112,-7.035 22.766,-12.286 6.525,-2.509 21.116,-6.162 22.188,-5.343 1.133,1.888 5.287,20.021 5.415,28.834 0.125,8.814 -5.667,28.583 -7.178,29.339 -1.51,0.754 -22.782,-5.015 -28.584,-8.311 -5.54,-3.147 -10.622,-7.697 -14.606,-12.465 -10e-4,-3.525 -10e-4,-19.768 -10e-4,-19.768 z" />
    <path
       inkscape:connector-curvature="0"
       id="SVGID_17_"
       d="m 666.023,66.498 c 0,0 -9.111,-7.035 -22.766,-12.285 -6.523,-2.509 -21.116,-6.162 -22.186,-5.343 -1.133,1.888 -5.289,20.02 -5.415,28.834 -0.126,8.814 5.667,28.583 7.178,29.338 1.511,0.755 22.782,-5.014 28.583,-8.31 5.539,-3.148 10.624,-7.698 14.606,-12.465 0,-3.527 0,-19.769 0,-19.769 z" />
    <path
       inkscape:connector-curvature="0"
       id="SVGID_19_"
       d="m 685.413,66.497 c 0,0 9.111,-7.034 22.766,-12.284 6.525,-2.509 21.116,-6.162 22.188,-5.343 1.133,1.888 5.287,20.02 5.415,28.834 0.125,8.814 -5.667,28.583 -7.178,29.338 -1.51,0.755 -22.782,-5.014 -28.584,-8.31 -5.54,-3.149 -10.623,-7.698 -14.606,-12.465 -10e-4,-3.527 -10e-4,-19.77 -10e-4,-19.77 z" />
    <path
       inkscape:connector-curvature="0"
       id="SVGID_21_"
       d="m 814.768,66.498 c 0,0 -9.109,-7.035 -22.765,-12.286 -6.523,-2.509 -21.116,-6.161 -22.186,-5.343 -1.133,1.888 -5.288,20.021 -5.414,28.835 -0.127,8.814 5.666,28.583 7.176,29.339 1.511,0.756 22.782,-5.014 28.583,-8.31 5.54,-3.148 10.624,-7.697 14.605,-12.466 10e-4,-3.526 10e-4,-19.769 10e-4,-19.769 z" />
    <path
       inkscape:connector-curvature="0"
       id="SVGID_23_"
       d="m 834.16,66.498 c 0,0 9.11,-7.035 22.765,-12.285 6.524,-2.509 21.116,-6.162 22.188,-5.343 1.133,1.889 5.288,20.021 5.415,28.835 0.125,8.814 -5.667,28.584 -7.177,29.339 -1.511,0.756 -22.784,-5.015 -28.585,-8.31 -5.54,-3.148 -10.622,-7.697 -14.605,-12.466 -10e-4,-3.527 -10e-4,-19.77 -10e-4,-19.77 z" />
    <path
       inkscape:connector-curvature="0"
       id="SVGID_25_"
       d="m 984.75,66.772 c 0,0 9.11,-7.035 22.765,-12.285 6.524,-2.509 21.116,-6.161 22.187,-5.343 1.133,1.889 5.288,20.021 5.414,28.835 0.126,8.814 -5.666,28.584 -7.177,29.34 -1.511,0.755 -22.782,-5.015 -28.583,-8.311 -5.54,-3.148 -10.624,-7.697 -14.606,-12.466 0,-3.527 0,-19.77 0,-19.77 z" />
    <path
       inkscape:connector-curvature="0"
       id="SVGID_27_"
       d="m 965.359,66.772 c 0,0 -9.11,-7.034 -22.765,-12.285 -6.524,-2.509 -21.116,-6.162 -22.187,-5.343 -1.133,1.889 -5.289,20.021 -5.415,28.835 -0.126,8.814 5.667,28.583 7.178,29.339 1.511,0.755 22.782,-5.015 28.583,-8.311 5.54,-3.148 10.624,-7.697 14.606,-12.466 0,-3.526 0,-19.769 0,-19.769 z" />
  </defs>
  <sodipodi:namedview
     id="base"
     pagecolor="#ffffff"
     bordercolor="#666666"
     borderopacity="1.0"
     inkscape:pageopacity="0.0"
     inkscape:pageshadow="2"
     inkscape:zoom="1.4"
     inkscape:cx="144.09322"
     inkscape:cy="45.052469"
     inkscape:document-units="mm"
     inkscape:current-layer="layer1"
     showgrid="false"
     units="px"
     inkscape:window-width="1920"
     inkscape:window-height="1017"
     inkscape:window-x="-8"
     inkscape:window-y="-8"
     inkscape:window-maximized="1"
     fit-margin-top="0"
     fit-margin-left="0"
     fit-margin-right="0"
     fit-margin-bottom="0" />
  <metadata
     id="metadata1158">
    <rdf:RDF>
      <cc:Work
         rdf:about="">
        <dc:format>image/svg+xml</dc:format>
        <dc:type
           rdf:resource="http://purl.org/dc/dcmitype/StillImage" />
        <dc:title></dc:title>
      </cc:Work>
    </rdf:RDF>
  </metadata>
  <g
     inkscape:label="Layer 1"
     inkscape:groupmode="layer"
     id="layer1"
     transform="translate(-0.8381646,-259.02535)">
    <g
       transform="matrix(0.39726567,0,0,0.39726567,-3.5937243,240.74088)"
       id="g178">
      <path
         style="fill:#007971"
         inkscape:connector-curvature="0"
         d="m 90.934,63.914 c 0,0 8.996,-6.946 22.48,-12.131 6.443,-2.477 20.169,-6.017 21.909,-5.276 1.12,1.865 5.224,19.771 5.348,28.475 0.124,8.705 -5.596,28.226 -7.088,28.972 -1.493,0.745 -22.497,-4.952 -28.226,-8.206 -5.471,-3.109 -10.49,-7.602 -14.423,-12.311 0,-3.483 0,-19.523 0,-19.523 z"
         id="path2" />
      <g
         id="g164">
        <path
           style="fill:#007971"
           inkscape:connector-curvature="0"
           d="m 60.896,63.914 c 0,0 -8.997,-6.946 -22.481,-12.131 -6.443,-2.476 -20.17,-6.017 -21.91,-5.276 -1.12,1.865 -5.223,19.771 -5.347,28.475 -0.125,8.705 5.595,28.226 7.087,28.972 1.493,0.745 22.498,-4.952 28.227,-8.206 5.47,-3.109 10.49,-7.602 14.424,-12.311 0,-3.483 0,-19.523 0,-19.523 z"
           id="path4" />
        <path
           style="fill:#099c95"
           inkscape:connector-curvature="0"
           d="m 66.218,63.771 c 0,0 -9.109,-7.035 -22.765,-12.285 -6.523,-2.508 -21.116,-6.162 -22.186,-5.343 -1.133,1.889 -5.288,20.021 -5.414,28.836 -0.127,8.812 5.666,28.582 7.176,29.338 1.511,0.754 22.782,-5.016 28.583,-8.31 5.54,-3.148 10.624,-7.699 14.605,-12.467 0.001,-3.525 0.001,-19.769 0.001,-19.769 z"
           id="path6" />
        <path
           style="fill:#099c95"
           inkscape:connector-curvature="0"
           d="m 85.61,63.771 c 0,0 9.11,-7.035 22.765,-12.285 6.524,-2.508 21.116,-6.162 22.188,-5.343 1.133,1.889 5.288,20.02 5.415,28.834 0.125,8.814 -5.667,28.584 -7.177,29.34 -1.511,0.754 -22.784,-5.016 -28.585,-8.31 C 94.676,92.859 89.593,88.308 85.611,83.54 85.61,80.015 85.61,63.771 85.61,63.771 Z"
           id="path8" />
        <path
           style="fill:#46ae51"
           inkscape:connector-curvature="0"
           d="m 66.218,63.771 c 0,2.014 0,17.125 0,20.146 3.691,1.28 15.702,1.28 19.392,0 0,-3.022 0,-18.132 0,-20.146 -3.674,-0.853 -15.717,-0.853 -19.392,0 z"
           id="path10" />
        <g
           id="g86">
          <defs
             id="defs13">
            <path
               inkscape:connector-curvature="0"
               id="path2994"
               d="m 85.61,63.771 c 0,0 9.11,-7.035 22.765,-12.285 6.524,-2.508 21.116,-6.162 22.188,-5.343 1.133,1.889 5.288,20.02 5.415,28.834 0.125,8.814 -5.667,28.584 -7.177,29.34 -1.511,0.754 -22.784,-5.016 -28.585,-8.31 C 94.676,92.859 89.593,88.308 85.611,83.54 85.61,80.015 85.61,63.771 85.61,63.771 Z" />
          </defs>
          <clipPath
             id="clipPath2157">
            <use
               height="100%"
               width="100%"
               y="0"
               x="0"
               style="overflow:visible"
               xlink:href="#SVGID_1_"
               overflow="visible"
               id="use2155" />
          </clipPath>
          <g
             clip-path="url(#SVGID_2_)"
             id="g84">
            <g
               id="g38">
              <g
                 id="g24">
                <g
                   id="g20">
                  <polyline
                     style="fill:#ffffff"
                     points="-3.891,96.105 4.524,110.105 12.937,96.105 21.351,110.105 29.765,96.105 38.181,110.105          46.595,96.105 55.012,110.105 63.43,96.105 71.846,110.105 80.263,96.105 88.681,110.105 97.1,96.105 105.517,110.105          113.934,96.105 122.35,110.105 130.767,96.105 139.186,110.105 147.608,96.105 156.027,110.105 164.452,96.105          172.876,110.105        "
                     id="polyline18" />
                </g>
                <polygon
                   style="fill:#46ae51"
                   points="97.113,97.756 105.53,101.572 113.947,97.756 122.364,101.572 130.782,97.756 139.2,101.572 147.619,97.756 156.038,101.572 164.456,97.756 174.17,102.157 171.583,107.867 164.456,104.638 156.038,108.452 147.619,104.638 139.2,108.452 130.782,104.638 122.364,108.452 113.947,104.638 105.53,108.452 97.113,104.638 88.694,108.452 80.279,104.638 71.86,108.452 63.443,104.638 55.026,108.452 46.609,104.638 38.191,108.452 29.774,104.638 21.358,108.452 12.942,104.638 4.525,108.452 -5.186,104.052 -2.597,98.344 4.525,101.572 12.942,97.756 21.358,101.572 29.774,97.756 38.191,101.572 46.609,97.756 55.026,101.572 63.443,97.756 71.86,101.572 80.279,97.756 88.694,101.572 "
                   id="polygon22" />
              </g>
              <g
                 id="g28">
                <polygon
                   style="fill:#099c95"
                   points="97.113,103.707 105.53,107.522 113.947,103.707 122.364,107.522 130.782,103.707 139.2,107.522 147.619,103.707 156.038,107.522 164.456,103.707 174.17,108.108 171.583,113.817 164.456,110.588 156.038,114.403 147.619,110.588 139.2,114.403 130.782,110.588 122.364,114.403 113.947,110.588 105.53,114.403 97.113,110.588 88.694,114.403 80.279,110.588 71.86,114.403 63.443,110.588 55.026,114.403 46.609,110.588 38.191,114.403 29.774,110.588 21.358,114.403 12.942,110.588 4.525,114.403 -5.186,110.002 -2.597,104.292 4.525,107.522 12.942,103.707 21.358,107.522 29.774,103.707 38.191,107.522 46.609,103.707 55.026,107.522 63.443,103.707 71.86,107.522 80.279,103.707 88.694,107.522 "
                   id="polygon26" />
              </g>
              <g
                 id="g32">
                <polygon
                   style="fill:#afcc3d"
                   points="97.113,91.582 105.53,95.396 113.947,91.582 122.364,95.396 130.782,91.582 139.2,95.396 147.619,91.582 156.038,95.396 164.456,91.582 174.17,95.981 171.583,101.69 164.456,98.461 156.038,102.276 147.619,98.461 139.2,102.276 130.782,98.461 122.364,102.276 113.947,98.461 105.53,102.276 97.113,98.461 88.694,102.276 80.279,98.461 71.86,102.276 63.443,98.461 55.026,102.276 46.609,98.461 38.191,102.276 29.774,98.461 21.358,102.276 12.942,98.461 4.525,102.276 -5.186,97.877 -2.597,92.167 4.525,95.396 12.942,91.582 21.358,95.396 29.774,91.582 38.191,95.396 46.609,91.582 55.026,95.396 63.443,91.582 71.86,95.396 80.279,91.582 88.694,95.396 "
                   id="polygon30" />
              </g>
              <g
                 id="g36">
                <polygon
                   style="fill:#fbea32"
                   points="97.113,85.585 105.53,89.399 113.947,85.585 122.364,89.399 130.782,85.585 139.2,89.399 147.619,85.585 156.038,89.399 164.456,85.585 174.17,89.986 171.583,95.695 164.456,92.467 156.038,96.282 147.619,92.467 139.2,96.282 130.782,92.467 122.364,96.282 113.947,92.467 105.53,96.282 97.113,92.467 88.694,96.282 80.279,92.467 71.86,96.282 63.443,92.467 55.026,96.282 46.609,92.467 38.191,96.282 29.774,92.467 21.358,96.282 12.942,92.467 4.525,96.282 -5.186,91.88 -2.597,86.171 4.525,89.399 12.942,85.585 21.358,89.399 29.774,85.585 38.191,89.399 46.609,85.585 55.026,89.399 63.443,85.585 71.86,89.399 80.279,85.585 88.694,89.399 "
                   id="polygon34" />
              </g>
            </g>
            <g
               id="g60">
              <g
                 id="g46">
                <g
                   id="g42">
                  <polyline
                     style="fill:#ffffff"
                     points="-3.891,71.325 4.524,85.325 12.937,71.325 21.351,85.325 29.765,71.325 38.181,85.325          46.595,71.325 55.012,85.325 63.43,71.325 71.846,85.325 80.263,71.325 88.681,85.325 97.1,71.325 105.517,85.325          113.934,71.325 122.35,85.325 130.767,71.325 139.186,85.325 147.608,71.325 156.027,85.325 164.452,71.325 172.876,85.325                 "
                     id="polyline40" />
                </g>
                <polygon
                   style="fill:#46ae51"
                   points="97.113,72.976 105.53,76.791 113.947,72.976 122.364,76.791 130.782,72.976 139.2,76.791 147.619,72.976 156.038,76.791 164.456,72.976 174.17,77.377 171.583,83.087 164.456,79.856 156.038,83.673 147.619,79.856 139.2,83.673 130.782,79.856 122.364,83.673 113.947,79.856 105.53,83.673 97.113,79.856 88.694,83.673 80.279,79.856 71.86,83.673 63.443,79.856 55.026,83.673 46.609,79.856 38.191,83.673 29.774,79.856 21.358,83.673 12.942,79.856 4.525,83.673 -5.186,79.272 -2.597,73.562 4.525,76.791 12.942,72.976 21.358,76.791 29.774,72.976 38.191,76.791 46.609,72.976 55.026,76.791 63.443,72.976 71.86,76.791 80.279,72.976 88.694,76.791 "
                   id="polygon44" />
              </g>
              <g
                 id="g50">
                <polygon
                   style="fill:#099c95"
                   points="97.113,78.925 105.53,82.741 113.947,78.925 122.364,82.741 130.782,78.925 139.2,82.741 147.619,78.925 156.038,82.741 164.456,78.925 174.17,83.328 171.583,89.036 164.456,85.807 156.038,89.622 147.619,85.807 139.2,89.622 130.782,85.807 122.364,89.622 113.947,85.807 105.53,89.622 97.113,85.807 88.694,89.622 80.279,85.807 71.86,89.622 63.443,85.807 55.026,89.622 46.609,85.807 38.191,89.622 29.774,85.807 21.358,89.622 12.942,85.807 4.525,89.622 -5.186,85.219 -2.597,79.512 4.525,82.741 12.942,78.925 21.358,82.741 29.774,78.925 38.191,82.741 46.609,78.925 55.026,82.741 63.443,78.925 71.86,82.741 80.279,78.925 88.694,82.741 "
                   id="polygon48" />
              </g>
              <g
                 id="g54">
                <polygon
                   style="fill:#afcc3d"
                   points="97.113,66.799 105.53,70.615 113.947,66.799 122.364,70.615 130.782,66.799 139.2,70.615 147.619,66.799 156.038,70.615 164.456,66.799 174.17,71.201 171.583,76.909 164.456,73.681 156.038,77.497 147.619,73.681 139.2,77.497 130.782,73.681 122.364,77.497 113.947,73.681 105.53,77.497 97.113,73.681 88.694,77.497 80.279,73.681 71.86,77.497 63.443,73.681 55.026,77.497 46.609,73.681 38.191,77.497 29.774,73.681 21.358,77.497 12.942,73.681 4.525,77.497 -5.186,73.094 -2.597,67.386 4.525,70.615 12.942,66.799 21.358,70.615 29.774,66.799 38.191,70.615 46.609,66.799 55.026,70.615 63.443,66.799 71.86,70.615 80.279,66.799 88.694,70.615 "
                   id="polygon52" />
              </g>
              <g
                 id="g58">
                <polygon
                   style="fill:#fbea32"
                   points="97.113,60.804 105.53,64.62 113.947,60.804 122.364,64.62 130.782,60.804 139.2,64.62 147.619,60.804 156.038,64.62 164.456,60.804 174.17,65.205 171.583,70.915 164.456,67.686 156.038,71.5 147.619,67.686 139.2,71.5 130.782,67.686 122.364,71.5 113.947,67.686 105.53,71.5 97.113,67.686 88.694,71.5 80.279,67.686 71.86,71.5 63.443,67.686 55.026,71.5 46.609,67.686 38.191,71.5 29.774,67.686 21.358,71.5 12.942,67.686 4.525,71.5 -5.186,67.098 -2.597,61.392 4.525,64.62 12.942,60.804 21.358,64.62 29.774,60.804 38.191,64.62 46.609,60.804 55.026,64.62 63.443,60.804 71.86,64.62 80.279,60.804 88.694,64.62 "
                   id="polygon56" />
              </g>
            </g>
            <g
               id="g82">
              <g
                 id="g68">
                <g
                   id="g64">
                  <polyline
                     style="fill:#ffffff"
                     points="-3.891,46.543 4.524,60.543 12.937,46.543 21.351,60.543 29.765,46.543 38.181,60.543          46.595,46.543 55.012,60.543 63.43,46.543 71.846,60.543 80.263,46.543 88.681,60.543 97.1,46.543 105.517,60.543          113.934,46.543 122.35,60.543 130.767,46.543 139.186,60.543 147.608,46.543 156.027,60.543 164.452,46.543 172.876,60.543                 "
                     id="polyline62" />
                </g>
                <polygon
                   style="fill:#46ae51"
                   points="97.113,48.195 105.53,52.01 113.947,48.195 122.364,52.01 130.782,48.195 139.2,52.01 147.619,48.195 156.038,52.01 164.456,48.195 174.17,52.595 171.583,58.306 164.456,55.076 156.038,58.891 147.619,55.076 139.2,58.891 130.782,55.076 122.364,58.891 113.947,55.076 105.53,58.891 97.113,55.076 88.694,58.891 80.279,55.076 71.86,58.891 63.443,55.076 55.026,58.891 46.609,55.076 38.191,58.891 29.774,55.076 21.358,58.891 12.942,55.076 4.525,58.891 -5.186,54.489 -2.597,48.781 4.525,52.01 12.942,48.195 21.358,52.01 29.774,48.195 38.191,52.01 46.609,48.195 55.026,52.01 63.443,48.195 71.86,52.01 80.279,48.195 88.694,52.01 "
                   id="polygon66" />
              </g>
              <g
                 id="g72">
                <polygon
                   style="fill:#099c95"
                   points="97.113,54.144 105.53,57.961 113.947,54.144 122.364,57.961 130.782,54.144 139.2,57.961 147.619,54.144 156.038,57.961 164.456,54.144 174.17,58.546 171.583,64.255 164.456,61.026 156.038,64.84 147.619,61.026 139.2,64.84 130.782,61.026 122.364,64.84 113.947,61.026 105.53,64.84 97.113,61.026 88.694,64.84 80.279,61.026 71.86,64.84 63.443,61.026 55.026,64.84 46.609,61.026 38.191,64.84 29.774,61.026 21.358,64.84 12.942,61.026 4.525,64.84 -5.186,60.44 -2.597,54.731 4.525,57.961 12.942,54.144 21.358,57.961 29.774,54.144 38.191,57.961 46.609,54.144 55.026,57.961 63.443,54.144 71.86,57.961 80.279,54.144 88.694,57.961 "
                   id="polygon70" />
              </g>
              <g
                 id="g76">
                <polygon
                   style="fill:#afcc3d"
                   points="97.113,42.019 105.53,45.834 113.947,42.019 122.364,45.834 130.782,42.019 139.2,45.834 147.619,42.019 156.038,45.834 164.456,42.019 174.17,46.419 171.583,52.129 164.456,48.899 156.038,52.715 147.619,48.899 139.2,52.715 130.782,48.899 122.364,52.715 113.947,48.899 105.53,52.715 97.113,48.899 88.694,52.715 80.279,48.899 71.86,52.715 63.443,48.899 55.026,52.715 46.609,48.899 38.191,52.715 29.774,48.899 21.358,52.715 12.942,48.899 4.525,52.715 -5.186,48.314 -2.597,42.604 4.525,45.834 12.942,42.019 21.358,45.834 29.774,42.019 38.191,45.834 46.609,42.019 55.026,45.834 63.443,42.019 71.86,45.834 80.279,42.019 88.694,45.834 "
                   id="polygon74" />
              </g>
              <g
                 id="g80">
                <polygon
                   style="fill:#fbea32"
                   points="97.113,36.024 105.53,39.837 113.947,36.024 122.364,39.837 130.782,36.024 139.2,39.837 147.619,36.024 156.038,39.837 164.456,36.024 174.17,40.425 171.583,46.133 164.456,42.904 156.038,46.719 147.619,42.904 139.2,46.719 130.782,42.904 122.364,46.719 113.947,42.904 105.53,46.719 97.113,42.904 88.694,46.719 80.279,42.904 71.86,46.719 63.443,42.904 55.026,46.719 46.609,42.904 38.191,46.719 29.774,42.904 21.358,46.719 12.942,42.904 4.525,46.719 -5.186,42.318 -2.597,36.61 4.525,39.837 12.942,36.024 21.358,39.837 29.774,36.024 38.191,39.837 46.609,36.024 55.026,39.837 63.443,36.024 71.86,39.837 80.279,36.024 88.694,39.837 "
                   id="polygon78" />
              </g>
            </g>
          </g>
        </g>
        <g
           id="g162">
          <defs
             id="defs89">
            <path
               inkscape:connector-curvature="0"
               id="path3034"
               d="m 66.218,63.771 c 0,0 -9.109,-7.035 -22.765,-12.285 -6.523,-2.508 -21.116,-6.162 -22.186,-5.343 -1.133,1.889 -5.288,20.021 -5.414,28.836 -0.127,8.812 5.666,28.582 7.176,29.338 1.511,0.754 22.782,-5.016 28.583,-8.31 5.54,-3.148 10.624,-7.699 14.605,-12.467 0.001,-3.525 0.001,-19.769 0.001,-19.769 z" />
          </defs>
          <clipPath
             id="clipPath2198">
            <use
               height="100%"
               width="100%"
               y="0"
               x="0"
               style="overflow:visible"
               xlink:href="#SVGID_3_"
               overflow="visible"
               id="use2196" />
          </clipPath>
          <g
             clip-path="url(#SVGID_4_)"
             id="g160">
            <g
               id="g114">
              <g
                 id="g100">
                <g
                   id="g96">
                  <polyline
                     style="fill:#ffffff"
                     points="-3.891,96.105 4.524,110.105 12.937,96.105 21.351,110.105 29.765,96.105 38.181,110.105          46.595,96.105 55.012,110.105 63.43,96.105 71.846,110.105 80.263,96.105 88.681,110.105 97.1,96.105 105.517,110.105          113.934,96.105 122.35,110.105 130.767,96.105 139.186,110.105 147.608,96.105 156.027,110.105 164.452,96.105          172.876,110.105        "
                     id="polyline94" />
                </g>
                <polygon
                   style="fill:#46ae51"
                   points="97.113,97.756 105.53,101.572 113.947,97.756 122.364,101.572 130.782,97.756 139.2,101.572 147.619,97.756 156.038,101.572 164.456,97.756 174.17,102.157 171.583,107.867 164.456,104.638 156.038,108.452 147.619,104.638 139.2,108.452 130.782,104.638 122.364,108.452 113.947,104.638 105.53,108.452 97.113,104.638 88.694,108.452 80.279,104.638 71.86,108.452 63.443,104.638 55.026,108.452 46.609,104.638 38.191,108.452 29.774,104.638 21.358,108.452 12.942,104.638 4.525,108.452 -5.186,104.052 -2.597,98.344 4.525,101.572 12.942,97.756 21.358,101.572 29.774,97.756 38.191,101.572 46.609,97.756 55.026,101.572 63.443,97.756 71.86,101.572 80.279,97.756 88.694,101.572 "
                   id="polygon98" />
              </g>
              <g
                 id="g104">
                <polygon
                   style="fill:#099c95"
                   points="97.113,103.707 105.53,107.522 113.947,103.707 122.364,107.522 130.782,103.707 139.2,107.522 147.619,103.707 156.038,107.522 164.456,103.707 174.17,108.108 171.583,113.817 164.456,110.588 156.038,114.403 147.619,110.588 139.2,114.403 130.782,110.588 122.364,114.403 113.947,110.588 105.53,114.403 97.113,110.588 88.694,114.403 80.279,110.588 71.86,114.403 63.443,110.588 55.026,114.403 46.609,110.588 38.191,114.403 29.774,110.588 21.358,114.403 12.942,110.588 4.525,114.403 -5.186,110.002 -2.597,104.292 4.525,107.522 12.942,103.707 21.358,107.522 29.774,103.707 38.191,107.522 46.609,103.707 55.026,107.522 63.443,103.707 71.86,107.522 80.279,103.707 88.694,107.522 "
                   id="polygon102" />
              </g>
              <g
                 id="g108">
                <polygon
                   style="fill:#afcc3d"
                   points="97.113,91.582 105.53,95.396 113.947,91.582 122.364,95.396 130.782,91.582 139.2,95.396 147.619,91.582 156.038,95.396 164.456,91.582 174.17,95.981 171.583,101.69 164.456,98.461 156.038,102.276 147.619,98.461 139.2,102.276 130.782,98.461 122.364,102.276 113.947,98.461 105.53,102.276 97.113,98.461 88.694,102.276 80.279,98.461 71.86,102.276 63.443,98.461 55.026,102.276 46.609,98.461 38.191,102.276 29.774,98.461 21.358,102.276 12.942,98.461 4.525,102.276 -5.186,97.877 -2.597,92.167 4.525,95.396 12.942,91.582 21.358,95.396 29.774,91.582 38.191,95.396 46.609,91.582 55.026,95.396 63.443,91.582 71.86,95.396 80.279,91.582 88.694,95.396 "
                   id="polygon106" />
              </g>
              <g
                 id="g112">
                <polygon
                   style="fill:#fbea32"
                   points="97.113,85.585 105.53,89.399 113.947,85.585 122.364,89.399 130.782,85.585 139.2,89.399 147.619,85.585 156.038,89.399 164.456,85.585 174.17,89.986 171.583,95.695 164.456,92.467 156.038,96.282 147.619,92.467 139.2,96.282 130.782,92.467 122.364,96.282 113.947,92.467 105.53,96.282 97.113,92.467 88.694,96.282 80.279,92.467 71.86,96.282 63.443,92.467 55.026,96.282 46.609,92.467 38.191,96.282 29.774,92.467 21.358,96.282 12.942,92.467 4.525,96.282 -5.186,91.88 -2.597,86.171 4.525,89.399 12.942,85.585 21.358,89.399 29.774,85.585 38.191,89.399 46.609,85.585 55.026,89.399 63.443,85.585 71.86,89.399 80.279,85.585 88.694,89.399 "
                   id="polygon110" />
              </g>
            </g>
            <g
               id="g136">
              <g
                 id="g122">
                <g
                   id="g118">
                  <polyline
                     style="fill:#ffffff"
                     points="-3.891,71.325 4.524,85.325 12.937,71.325 21.351,85.325 29.765,71.325 38.181,85.325          46.595,71.325 55.012,85.325 63.43,71.325 71.846,85.325 80.263,71.325 88.681,85.325 97.1,71.325 105.517,85.325          113.934,71.325 122.35,85.325 130.767,71.325 139.186,85.325 147.608,71.325 156.027,85.325 164.452,71.325 172.876,85.325                 "
                     id="polyline116" />
                </g>
                <polygon
                   style="fill:#46ae51"
                   points="97.113,72.976 105.53,76.791 113.947,72.976 122.364,76.791 130.782,72.976 139.2,76.791 147.619,72.976 156.038,76.791 164.456,72.976 174.17,77.377 171.583,83.087 164.456,79.856 156.038,83.673 147.619,79.856 139.2,83.673 130.782,79.856 122.364,83.673 113.947,79.856 105.53,83.673 97.113,79.856 88.694,83.673 80.279,79.856 71.86,83.673 63.443,79.856 55.026,83.673 46.609,79.856 38.191,83.673 29.774,79.856 21.358,83.673 12.942,79.856 4.525,83.673 -5.186,79.272 -2.597,73.562 4.525,76.791 12.942,72.976 21.358,76.791 29.774,72.976 38.191,76.791 46.609,72.976 55.026,76.791 63.443,72.976 71.86,76.791 80.279,72.976 88.694,76.791 "
                   id="polygon120" />
              </g>
              <g
                 id="g126">
                <polygon
                   style="fill:#099c95"
                   points="97.113,78.925 105.53,82.741 113.947,78.925 122.364,82.741 130.782,78.925 139.2,82.741 147.619,78.925 156.038,82.741 164.456,78.925 174.17,83.328 171.583,89.036 164.456,85.807 156.038,89.622 147.619,85.807 139.2,89.622 130.782,85.807 122.364,89.622 113.947,85.807 105.53,89.622 97.113,85.807 88.694,89.622 80.279,85.807 71.86,89.622 63.443,85.807 55.026,89.622 46.609,85.807 38.191,89.622 29.774,85.807 21.358,89.622 12.942,85.807 4.525,89.622 -5.186,85.219 -2.597,79.512 4.525,82.741 12.942,78.925 21.358,82.741 29.774,78.925 38.191,82.741 46.609,78.925 55.026,82.741 63.443,78.925 71.86,82.741 80.279,78.925 88.694,82.741 "
                   id="polygon124" />
              </g>
              <g
                 id="g130">
                <polygon
                   style="fill:#afcc3d"
                   points="97.113,66.799 105.53,70.615 113.947,66.799 122.364,70.615 130.782,66.799 139.2,70.615 147.619,66.799 156.038,70.615 164.456,66.799 174.17,71.201 171.583,76.909 164.456,73.681 156.038,77.497 147.619,73.681 139.2,77.497 130.782,73.681 122.364,77.497 113.947,73.681 105.53,77.497 97.113,73.681 88.694,77.497 80.279,73.681 71.86,77.497 63.443,73.681 55.026,77.497 46.609,73.681 38.191,77.497 29.774,73.681 21.358,77.497 12.942,73.681 4.525,77.497 -5.186,73.094 -2.597,67.386 4.525,70.615 12.942,66.799 21.358,70.615 29.774,66.799 38.191,70.615 46.609,66.799 55.026,70.615 63.443,66.799 71.86,70.615 80.279,66.799 88.694,70.615 "
                   id="polygon128" />
              </g>
              <g
                 id="g134">
                <polygon
                   style="fill:#fbea32"
                   points="97.113,60.804 105.53,64.62 113.947,60.804 122.364,64.62 130.782,60.804 139.2,64.62 147.619,60.804 156.038,64.62 164.456,60.804 174.17,65.205 171.583,70.915 164.456,67.686 156.038,71.5 147.619,67.686 139.2,71.5 130.782,67.686 122.364,71.5 113.947,67.686 105.53,71.5 97.113,67.686 88.694,71.5 80.279,67.686 71.86,71.5 63.443,67.686 55.026,71.5 46.609,67.686 38.191,71.5 29.774,67.686 21.358,71.5 12.942,67.686 4.525,71.5 -5.186,67.098 -2.597,61.392 4.525,64.62 12.942,60.804 21.358,64.62 29.774,60.804 38.191,64.62 46.609,60.804 55.026,64.62 63.443,60.804 71.86,64.62 80.279,60.804 88.694,64.62 "
                   id="polygon132" />
              </g>
            </g>
            <g
               id="g158">
              <g
                 id="g144">
                <g
                   id="g140">
                  <polyline
                     style="fill:#ffffff"
                     points="-3.891,46.543 4.524,60.543 12.937,46.543 21.351,60.543 29.765,46.543 38.181,60.543          46.595,46.543 55.012,60.543 63.43,46.543 71.846,60.543 80.263,46.543 88.681,60.543 97.1,46.543 105.517,60.543          113.934,46.543 122.35,60.543 130.767,46.543 139.186,60.543 147.608,46.543 156.027,60.543 164.452,46.543 172.876,60.543                 "
                     id="polyline138" />
                </g>
                <polygon
                   style="fill:#46ae51"
                   points="97.113,48.195 105.53,52.01 113.947,48.195 122.364,52.01 130.782,48.195 139.2,52.01 147.619,48.195 156.038,52.01 164.456,48.195 174.17,52.595 171.583,58.306 164.456,55.076 156.038,58.891 147.619,55.076 139.2,58.891 130.782,55.076 122.364,58.891 113.947,55.076 105.53,58.891 97.113,55.076 88.694,58.891 80.279,55.076 71.86,58.891 63.443,55.076 55.026,58.891 46.609,55.076 38.191,58.891 29.774,55.076 21.358,58.891 12.942,55.076 4.525,58.891 -5.186,54.489 -2.597,48.781 4.525,52.01 12.942,48.195 21.358,52.01 29.774,48.195 38.191,52.01 46.609,48.195 55.026,52.01 63.443,48.195 71.86,52.01 80.279,48.195 88.694,52.01 "
                   id="polygon142" />
              </g>
              <g
                 id="g148">
                <polygon
                   style="fill:#099c95"
                   points="97.113,54.144 105.53,57.961 113.947,54.144 122.364,57.961 130.782,54.144 139.2,57.961 147.619,54.144 156.038,57.961 164.456,54.144 174.17,58.546 171.583,64.255 164.456,61.026 156.038,64.84 147.619,61.026 139.2,64.84 130.782,61.026 122.364,64.84 113.947,61.026 105.53,64.84 97.113,61.026 88.694,64.84 80.279,61.026 71.86,64.84 63.443,61.026 55.026,64.84 46.609,61.026 38.191,64.84 29.774,61.026 21.358,64.84 12.942,61.026 4.525,64.84 -5.186,60.44 -2.597,54.731 4.525,57.961 12.942,54.144 21.358,57.961 29.774,54.144 38.191,57.961 46.609,54.144 55.026,57.961 63.443,54.144 71.86,57.961 80.279,54.144 88.694,57.961 "
                   id="polygon146" />
              </g>
              <g
                 id="g152">
                <polygon
                   style="fill:#afcc3d"
                   points="97.113,42.019 105.53,45.834 113.947,42.019 122.364,45.834 130.782,42.019 139.2,45.834 147.619,42.019 156.038,45.834 164.456,42.019 174.17,46.419 171.583,52.129 164.456,48.899 156.038,52.715 147.619,48.899 139.2,52.715 130.782,48.899 122.364,52.715 113.947,48.899 105.53,52.715 97.113,48.899 88.694,52.715 80.279,48.899 71.86,52.715 63.443,48.899 55.026,52.715 46.609,48.899 38.191,52.715 29.774,48.899 21.358,52.715 12.942,48.899 4.525,52.715 -5.186,48.314 -2.597,42.604 4.525,45.834 12.942,42.019 21.358,45.834 29.774,42.019 38.191,45.834 46.609,42.019 55.026,45.834 63.443,42.019 71.86,45.834 80.279,42.019 88.694,45.834 "
                   id="polygon150" />
              </g>
              <g
                 id="g156">
                <polygon
                   style="fill:#fbea32"
                   points="97.113,36.024 105.53,39.837 113.947,36.024 122.364,39.837 130.782,36.024 139.2,39.837 147.619,36.024 156.038,39.837 164.456,36.024 174.17,40.425 171.583,46.133 164.456,42.904 156.038,46.719 147.619,42.904 139.2,46.719 130.782,42.904 122.364,46.719 113.947,42.904 105.53,46.719 97.113,42.904 88.694,46.719 80.279,42.904 71.86,46.719 63.443,42.904 55.026,46.719 46.609,42.904 38.191,46.719 29.774,42.904 21.358,46.719 12.942,42.904 4.525,46.719 -5.186,42.318 -2.597,36.61 4.525,39.837 12.942,36.024 21.358,39.837 29.774,36.024 38.191,39.837 46.609,36.024 55.026,39.837 63.443,36.024 71.86,39.837 80.279,36.024 88.694,39.837 "
                   id="polygon154" />
              </g>
            </g>
          </g>
        </g>
      </g>
      <g
         id="g170">
        <path
           style="fill:#e3e4e4"
           inkscape:connector-curvature="0"
           d="m 64.708,70.067 c -3.813,-2.141 -21.784,-7.555 -32.235,-10.2 -10.451,-2.644 -16.117,7.682 -6.17,9.192 9.948,1.512 31.101,-0.376 38.405,1.008 z"
           id="path166" />
        <path
           style="fill:#e3e4e4"
           inkscape:connector-curvature="0"
           d="M 64.708,76.992 C 57.53,79.006 39.901,81.777 29.451,79.134 19,76.488 17.741,88.073 27.688,89.585 c 9.948,1.51 31.356,-4.038 37.02,-12.593 z"
           id="path168" />
      </g>
      <g
         id="g176">
        <path
           style="fill:#e3e4e4"
           inkscape:connector-curvature="0"
           d="m 87.121,70.067 c 3.814,-2.141 21.784,-7.555 32.236,-10.2 10.451,-2.644 16.117,7.682 6.169,9.192 -9.947,1.512 -31.102,-0.376 -38.405,1.008 z"
           id="path172" />
        <path
           style="fill:#e3e4e4"
           inkscape:connector-curvature="0"
           d="m 87.121,76.992 c 7.178,2.014 24.807,4.784 35.258,2.141 10.45,-2.645 11.71,8.939 1.762,10.452 -9.948,1.51 -31.356,-4.038 -37.02,-12.593 z"
           id="path174" />
      </g>
    </g>
    <g
       transform="matrix(0.39726567,0,0,0.39726567,-3.5937243,240.74088)"
       id="g1288" />
    <g
       transform="matrix(0.39726567,0,0,0.39726567,-3.5937243,240.74088)"
       id="g1290" />
    <g
       transform="matrix(0.39726567,0,0,0.39726567,-3.5937243,240.74088)"
       id="g1292" />
    <g
       transform="matrix(0.39726567,0,0,0.39726567,-3.5937243,240.74088)"
       id="g1294" />
    <g
       transform="matrix(0.39726567,0,0,0.39726567,-3.5937243,240.74088)"
       id="g1296" />
    <g
       transform="matrix(0.39726567,0,0,0.39726567,-3.5937243,240.74088)"
       id="g1298" />
  </g>
</svg>
