<?xml version="1.0" encoding="UTF-8" standalone="no"?>
<!-- Generator: Adobe Illustrator 17.0.0, SVG Export Plug-In . SVG Version: 6.00 Build 0)  -->

<svg
   xmlns:dc="http://purl.org/dc/elements/1.1/"
   xmlns:cc="http://creativecommons.org/ns#"
   xmlns:rdf="http://www.w3.org/1999/02/22-rdf-syntax-ns#"
   xmlns:svg="http://www.w3.org/2000/svg"
   xmlns="http://www.w3.org/2000/svg"
   xmlns:sodipodi="http://sodipodi.sourceforge.net/DTD/sodipodi-0.dtd"
   xmlns:inkscape="http://www.inkscape.org/namespaces/inkscape"
   version="1.1"
   id="Слой_1"
   x="0px"
   y="0px"
   width="121.91065"
   height="143.53185"
   viewBox="0 0 121.91065 143.53185"
   enable-background="new 0 0 1200 150"
   xml:space="preserve"
   sodipodi:docname="1.svg"
   inkscape:version="0.92.4 (5da689c313, 2019-01-14)"><metadata
   id="metadata93"><rdf:RDF><cc:Work
       rdf:about=""><dc:format>image/svg+xml</dc:format><dc:type
         rdf:resource="http://purl.org/dc/dcmitype/StillImage" /><dc:title></dc:title></cc:Work></rdf:RDF></metadata><defs
   id="defs91" /><sodipodi:namedview
   pagecolor="#ffffff"
   bordercolor="#666666"
   borderopacity="1"
   objecttolerance="10"
   gridtolerance="10"
   guidetolerance="10"
   inkscape:pageopacity="0"
   inkscape:pageshadow="2"
   inkscape:window-width="1920"
   inkscape:window-height="1017"
   id="namedview89"
   showgrid="false"
   inkscape:zoom="0.66939442"
   inkscape:cx="519.29027"
   inkscape:cy="-115.30072"
   inkscape:window-x="-8"
   inkscape:window-y="-8"
   inkscape:window-maximized="1"
   inkscape:current-layer="Слой_1"
   fit-margin-top="0"
   fit-margin-left="0"
   fit-margin-right="0"
   fit-margin-bottom="0" />

<g
   id="g26"
   transform="translate(-163.41903,-2.6354719)">
	<path
   d="m 273.68,65.318 c 1.706,-4.427 -0.482,-9.33 -4.565,-11.272 5.318,-5.155 7.219,-13.648 4.544,-20.683 -3.53,-9.283 -13.523,-14.296 -23.077,-14.192 -2.459,-9.879 -14.037,-14.277 -22.169,-8.034 -5.99,-7.605 -17.03,-10.83 -26.031,-6.671 -9.084,4.197 -13.773,14.947 -11.588,24.487 -8.004,0.762 -12.066,9.884 -7.453,16.309 -12.419,4.334 -20.976,16.509 -19.817,29.966 0.603,6.998 4.645,15.384 10.631,19.919 0.701,1.169 2,2.056 3.224,1.954 2.741,1.273 5.77,1.737 8.986,1.001 -0.004,5.588 3.086,11.064 8.529,13.193 5.201,2.035 10.95,0.455 14.797,-3.274 3.249,6.246 9.494,11.078 16.809,10.841 6.652,-0.216 12.306,-4.662 14.224,-10.709 5.874,6.472 16.227,2.784 17.557,-5.104 9.291,4.962 21.586,0.142 25.639,-9.955 3.557,-8.859 0.468,-25.93 -10.24,-27.776 z"
   id="path16"
   inkscape:connector-curvature="0"
   style="fill:#059839" />
	<path
   d="m 261.997,66.794 c -0.649,-1.614 -3.424,-2.145 -3.834,0 -0.684,3.572 -0.371,6.95 -1.837,10.429 -1.407,3.34 -3.647,6.223 -6.388,8.579 -5.922,5.09 -13.899,7.676 -21.639,7.968 -0.092,-2.336 -0.194,-4.671 -0.276,-7.007 -0.241,-6.821 -0.439,-13.642 -0.609,-20.465 0.579,-0.034 1.157,-0.08 1.733,-0.149 6.327,-0.762 12.371,-3.412 16.844,-8.019 3.669,-3.78 7.776,-10.601 5.911,-16.056 -0.619,-1.81 -3.304,-1.983 -3.852,0 -0.602,2.18 -0.505,4.439 -1.323,6.593 -0.946,2.492 -2.541,4.73 -4.438,6.585 -4.011,3.921 -9.434,6.04 -14.989,6.425 -0.016,-0.722 -0.039,-1.444 -0.054,-2.166 -0.119,-5.852 -0.075,-11.763 -0.284,-17.648 0.092,-0.012 0.185,-0.02 0.276,-0.034 7.439,-1.15 15.181,-11.524 10.643,-18.795 -0.815,-1.305 -2.92,-1.117 -3.332,0.435 -0.659,2.479 -0.068,5.022 -0.941,7.506 -1.095,3.118 -3.622,5.585 -6.881,6.193 -0.139,-2.166 -0.321,-4.327 -0.581,-6.476 -0.123,-1.017 -0.91,-1.478 -1.638,-1.388 -0.612,-0.637 -1.933,-0.443 -2.163,0.532 -0.517,2.184 -0.775,4.452 -0.919,6.743 -3.55,-1.528 -6.075,-5.159 -8.102,-8.503 -0.651,-1.073 -2.252,-0.591 -2.305,0.624 -0.262,5.995 4.61,10.953 10.234,12.645 -0.03,1.719 -0.045,3.429 -0.097,5.104 -0.152,4.937 -0.276,9.875 -0.416,14.812 -8.202,-1.638 -14.762,-7.387 -19.372,-14.633 -0.875,-1.375 -3.225,-0.522 -2.713,1.144 3.047,9.909 12.069,16.455 21.949,18.147 -0.276,9.078 -0.571,18.154 -0.9,27.23 -4.693,-0.869 -9.208,-2.594 -13.299,-5.143 -5.966,-3.717 -10.073,-9.087 -14.522,-14.391 -0.952,-1.135 -2.907,0.078 -2.465,1.435 4.077,12.529 17.109,20.494 30.121,22.75 -0.027,0.702 -0.048,1.403 -0.075,2.105 -0.462,11.876 -0.993,23.749 -1.59,35.619 -0.134,2.671 -1.716,8.596 1.651,10.02 0.237,0.1 0.472,0.159 0.704,0.193 2.133,0.89 5.269,0.155 7.401,-0.042 0.578,-0.054 1.229,-0.261 1.606,-0.738 0.967,-0.178 1.777,-0.904 1.689,-2.19 -1.011,-14.768 -1.818,-29.549 -2.441,-44.337 0.672,-0.025 1.341,-0.06 2,-0.119 8.466,-0.761 16.857,-3.866 23.224,-9.607 5.241,-4.727 11.236,-14.586 8.289,-21.91 z m -38.231,36.577 c 0.038,-0.99 0.081,-1.981 0.118,-2.971 0.045,1.028 0.097,2.056 0.144,3.083 -0.086,-0.042 -0.172,-0.083 -0.262,-0.112 z"
   id="path18"
   inkscape:connector-curvature="0"
   style="fill:#936138" />
	<path
   d="m 201.36,62.593 c -0.511,-3.67 -2.589,-7.37 -6.999,-6.017 -2.826,0.867 -4.436,3.369 -4.937,6.112 -5.655,-2.355 -12.756,-0.751 -14.918,5.884 -1.094,3.357 -0.568,7.417 1.893,10.062 1.56,1.678 3.786,2.587 5.904,2.402 0.933,4.231 4.308,7.657 9.306,6.837 3.896,-0.64 6.943,-4.77 6.224,-8.446 0.272,0.025 0.545,0.037 0.819,0.041 4.815,4.495 12.494,0.814 12.514,-5.843 0.011,-4.306 -4.959,-10.683 -9.806,-11.032 z m -9.233,20.43 c 0.096,-0.163 0.188,-0.331 0.274,-0.507 0.24,-0.06 0.475,-0.145 0.707,-0.246 -0.242,0.291 -0.564,0.546 -0.981,0.753 z"
   id="path20"
   inkscape:connector-curvature="0"
   style="fill:#3daa35" />
	<path
   d="m 235.722,22.412 c -0.394,-2.223 -1.716,-4.214 -4.046,-5.231 -3.154,-1.376 -6.529,-0.112 -8.464,2.383 -1.946,-1.231 -4.432,-1.151 -6.305,0.103 -3.433,-6.44 -11.463,-10.239 -17.83,-4.554 -3.721,3.322 -3.795,7.957 -1.926,12.307 1.11,2.585 2.884,5.303 5.308,6.059 -0.361,3.684 1.683,7.525 5.583,8.545 3.782,0.99 7.118,-1.307 8.444,-4.51 1.59,2.466 4.191,4.168 7.437,4.13 3.605,-0.043 6.283,-2.212 7.729,-5.135 3.054,2.212 6.665,3.635 10.518,2.785 4.057,-0.895 7.263,-4.172 7.236,-8.459 -0.051,-7.857 -7.552,-10.611 -13.684,-8.423 z m 9.166,6.845 c -0.464,-0.919 -1.177,-1.825 -2.03,-2.563 -0.055,-0.06 -0.109,-0.121 -0.167,-0.179 1.058,0.527 1.862,1.43 2.197,2.742 z"
   id="path22"
   inkscape:connector-curvature="0"
   style="fill:#3daa35" />
	<path
   d="m 266.821,65.888 c 1.584,-1.654 2.436,-4.118 2.002,-6.4 -0.685,-3.607 -5.021,-4.324 -7.611,-2.21 -0.917,0.748 -1.727,2.162 -2.212,3.727 -2.228,-2.521 -7.197,-3.748 -10.066,-2.044 -5.071,3.012 -4.107,9.053 -0.22,11.809 -0.049,0.123 -0.089,0.248 -0.113,0.375 -1.256,1.795 -1.507,4.057 0.424,6.036 2.241,2.297 4.746,1.496 6.735,-0.205 0.135,-0.052 0.27,-0.104 0.396,-0.172 2.286,3.652 7.519,5.019 11.266,1.634 4.212,-3.806 3.074,-9.37 -0.601,-12.55 z"
   id="path24"
   inkscape:connector-curvature="0"
   style="fill:#3daa35" />
</g>






<g
   id="g76"
   transform="translate(-163.41903,-2.6354719)">
</g>
<g
   id="g78"
   transform="translate(-163.41903,-2.6354719)">
</g>
<g
   id="g80"
   transform="translate(-163.41903,-2.6354719)">
</g>
<g
   id="g82"
   transform="translate(-163.41903,-2.6354719)">
</g>
<g
   id="g84"
   transform="translate(-163.41903,-2.6354719)">
</g>
<g
   id="g86"
   transform="translate(-163.41903,-2.6354719)">
</g>
</svg>