<?xml version="1.0" encoding="UTF-8" standalone="no"?>
<!-- Generator: Adobe Illustrator 17.0.0, SVG Export Plug-In . SVG Version: 6.00 Build 0)  -->

<svg
   xmlns:dc="http://purl.org/dc/elements/1.1/"
   xmlns:cc="http://creativecommons.org/ns#"
   xmlns:rdf="http://www.w3.org/1999/02/22-rdf-syntax-ns#"
   xmlns:svg="http://www.w3.org/2000/svg"
   xmlns="http://www.w3.org/2000/svg"
   xmlns:sodipodi="http://sodipodi.sourceforge.net/DTD/sodipodi-0.dtd"
   xmlns:inkscape="http://www.inkscape.org/namespaces/inkscape"
   version="1.1"
   id="Слой_1"
   x="0px"
   y="0px"
   width="117.39406"
   height="142.48769"
   viewBox="0 0 117.39406 142.48769"
   enable-background="new 0 0 1200 150"
   xml:space="preserve"
   sodipodi:docname="5.svg"
   inkscape:version="0.92.4 (5da689c313, 2019-01-14)"><metadata
   id="metadata93"><rdf:RDF><cc:Work
       rdf:about=""><dc:format>image/svg+xml</dc:format><dc:type
         rdf:resource="http://purl.org/dc/dcmitype/StillImage" /><dc:title></dc:title></cc:Work></rdf:RDF></metadata><defs
   id="defs91" /><sodipodi:namedview
   pagecolor="#ffffff"
   bordercolor="#666666"
   borderopacity="1"
   objecttolerance="10"
   gridtolerance="10"
   guidetolerance="10"
   inkscape:pageopacity="0"
   inkscape:pageshadow="2"
   inkscape:window-width="1920"
   inkscape:window-height="1017"
   id="namedview89"
   showgrid="false"
   inkscape:zoom="0.66939442"
   inkscape:cx="249.55737"
   inkscape:cy="-45.520155"
   inkscape:window-x="-8"
   inkscape:window-y="-8"
   inkscape:window-maximized="1"
   inkscape:current-layer="Слой_1"
   fit-margin-top="0"
   fit-margin-left="0"
   fit-margin-right="0"
   fit-margin-bottom="0" />





<g
   id="g60"
   transform="translate(-765.58143,-3.1828039)">
	<path
   d="m 874.313,48.295 c 2.251,-2.472 2.913,-6.207 1.522,-9.543 -1.847,-4.428 -6.369,-6.133 -10.85,-6.307 1.626,-4.696 0.683,-10.42 -3.96,-13.051 -3.922,-2.222 -8.852,-1.159 -11.591,2.067 -1.813,-1.484 -4.176,-2.133 -6.681,-1.873 -3.485,0.362 -6.24,2.507 -8.618,4.951 -2.3,-5.024 -7.769,-7.739 -12.886,-6.656 -0.49,-0.028 -0.921,0.109 -1.276,0.354 -0.529,0.182 -1.054,0.392 -1.564,0.664 0.998,-6.753 -0.465,-15.838 -8.997,-15.717 -6.752,0.095 -11.679,6.052 -12.586,12.341 -4.272,-0.534 -7.866,2.049 -9.144,5.889 -2.165,-1.204 -4.769,-1.529 -7.344,-0.847 -4.75,1.259 -7.61,5.761 -8.409,10.378 -1.428,8.255 3.061,16.713 10.537,19.049 -3.545,2.289 -6.005,7.284 -6.661,10.902 -0.853,4.707 0.818,10.365 5.18,12.1 -0.93,6.529 3.9,14.612 8.984,17.507 6.153,3.503 13.953,2.284 18.912,-2.419 1.996,2.319 4.908,3.622 8.213,3.676 4.262,0.069 7.913,-2.055 11.111,-4.695 1.276,5.049 5.155,9.352 10.454,10.481 5.355,1.141 12.667,-1.719 14.579,-7.211 2.67,1.538 6.255,1.849 8.289,-0.152 1.817,-1.788 2.105,-4.625 1.373,-7.171 8.109,2.114 16.981,-4.537 19.338,-12.886 2.302,-8.158 -0.907,-17.363 -7.925,-21.831 z"
   id="path52"
   inkscape:connector-curvature="0"
   style="fill:#3daa35" />
	<path
   d="m 849.81,28.583 c 2.718,-5.13 2.66,-11.563 -0.996,-16.39 -2.03,-2.681 -4.922,-4.486 -8.383,-3.786 -2.604,0.526 -4.479,2.192 -5.96,4.22 -3.097,-4.665 -9.39,-7.168 -14.768,-4.721 -5.086,2.314 -7.44,8.236 -6.379,13.465 -4.597,-0.61 -9.227,0.871 -11.823,5.329 -1.56,2.678 -1.606,5.864 -0.464,8.491 -0.33,0.141 -0.654,0.298 -0.968,0.474 -1.079,-3.238 -3.814,-5.769 -7.588,-6.229 -5.41,-0.659 -10.232,2.799 -11.879,7.729 -6.647,-1.086 -13.375,2.887 -14.775,9.868 -1.02,5.084 1.199,10.577 5.513,12.621 -2.078,3.342 -2.243,7.821 0.47,11.05 2.902,3.453 7.959,3.956 11.744,1.962 1.477,4.295 4.678,7.584 10.008,6.096 2.499,-0.697 4.239,-2.231 5.466,-4.174 3.726,4.2 10.464,5.522 15.566,2.107 5.724,-3.831 6.306,-11.717 2.034,-16.372 1.569,-1.354 2.537,-3.396 2.563,-5.688 0.023,-1.994 -0.689,-3.718 -1.81,-5.183 2.104,-0.65 3.781,-2.212 5.016,-4.12 2.244,3.666 6.204,6.306 10.588,6.77 3.807,0.402 7.728,-1.725 9.04,-5.009 4.883,2.155 10.981,0.467 13.43,-4.958 2.581,-5.714 -0.462,-11.419 -5.645,-13.552 z m -41.308,13.166 c -0.225,-0.454 -0.499,-0.855 -0.8,-1.224 0.025,-0.013 0.05,-0.028 0.074,-0.044 0.312,0.337 0.586,0.709 0.784,1.131 -0.022,0.042 -0.04,0.089 -0.058,0.137 z"
   id="path54"
   inkscape:connector-curvature="0"
   style="fill:#059839" />
	<path
   d="m 874.55,69.332 c 2.608,-4.602 -0.581,-10.683 -5.631,-12.719 -5.867,-2.366 -11.973,0.22 -14.878,5.286 -4.512,-3.38 -12.373,-0.342 -15.391,4.172 -3.561,5.325 -1.393,12.745 3.987,15.068 -1.976,3.288 -1.467,7.854 2.331,10.281 2.824,1.805 5.773,1.741 8.265,0.531 -0.841,6.057 4.741,12.022 11.578,11.378 7.387,-0.696 12.065,-9.03 9.689,-15.55 3.444,-0.784 6.353,-3.771 6.872,-7.459 0.691,-4.914 -2.681,-8.896 -6.822,-10.988 z"
   id="path56"
   inkscape:connector-curvature="0"
   style="fill:#059839" />
	<path
   d="m 864.997,74.521 c -0.463,-2.026 -2.595,-4.595 -4.839,-2.93 -1.246,0.924 -1.068,2.424 -1.172,3.818 -0.192,2.554 -0.686,4.999 -1.649,7.378 -1.976,4.883 -5.62,8.947 -10.238,11.477 -2.417,1.325 -5.073,2.252 -7.8,2.679 -2.112,0.33 -4.235,0.075 -6.321,0.323 -0.147,-3.252 -0.285,-6.501 -0.386,-9.739 -0.579,-18.594 -1.174,-37.188 -1.765,-55.782 -0.092,-2.898 -4.61,-2.911 -4.515,0 0.037,1.138 0.075,2.276 0.112,3.414 -0.835,9.019 -1.193,18.102 -1.453,27.18 -4.4,0.588 -8.382,2.19 -12.966,1.986 -4.567,-0.203 -9.037,-1.617 -12.748,-4.314 -3.404,-2.474 -5.239,-5.671 -7.142,-9.299 -0.934,-1.78 -2.11,-3.222 -3.976,-3.346 -0.337,-0.252 -0.781,-0.359 -1.293,-0.206 -0.198,0.06 -0.396,0.119 -0.594,0.178 -0.608,0.182 -1.158,0.667 -1.305,1.305 -0.824,3.561 2.357,7.705 4.381,10.382 2.738,3.621 6.184,6.76 10.135,9.012 7.428,4.233 17.104,5.763 25.279,2.814 -0.087,3.372 -0.175,6.742 -0.285,10.103 -0.543,16.567 -0.949,33.143 -1.634,49.705 -0.166,4.012 -2.254,13.032 3.285,14.729 5.425,1.662 7.917,-4.373 8.005,-8.606 0.226,-10.849 -0.294,-21.793 -0.818,-32.705 7.718,1.489 15.343,-2.313 21.242,-7.284 5.966,-5.026 12.365,-13.93 10.46,-22.272 z m -37.18,13.246 c 0.047,-1.941 0.097,-3.883 0.144,-5.824 0.063,1.928 0.127,3.856 0.19,5.784 -0.113,0.004 -0.224,0.017 -0.334,0.04 z"
   id="path58"
   inkscape:connector-curvature="0"
   style="fill:#936138" />
</g>


<g
   id="g76"
   transform="translate(-765.58143,-3.1828039)">
</g>
<g
   id="g78"
   transform="translate(-765.58143,-3.1828039)">
</g>
<g
   id="g80"
   transform="translate(-765.58143,-3.1828039)">
</g>
<g
   id="g82"
   transform="translate(-765.58143,-3.1828039)">
</g>
<g
   id="g84"
   transform="translate(-765.58143,-3.1828039)">
</g>
<g
   id="g86"
   transform="translate(-765.58143,-3.1828039)">
</g>
</svg>