<?xml version="1.0" encoding="UTF-8" standalone="no"?>
<!-- Generator: Adobe Illustrator 17.0.0, SVG Export Plug-In . SVG Version: 6.00 Build 0)  -->

<svg
   xmlns:dc="http://purl.org/dc/elements/1.1/"
   xmlns:cc="http://creativecommons.org/ns#"
   xmlns:rdf="http://www.w3.org/1999/02/22-rdf-syntax-ns#"
   xmlns:svg="http://www.w3.org/2000/svg"
   xmlns="http://www.w3.org/2000/svg"
   xmlns:sodipodi="http://sodipodi.sourceforge.net/DTD/sodipodi-0.dtd"
   xmlns:inkscape="http://www.inkscape.org/namespaces/inkscape"
   version="1.1"
   id="Слой_1"
   x="0px"
   y="0px"
   width="77.237999"
   height="141.49812"
   viewBox="0 0 77.237999 141.49812"
   enable-background="new 0 0 1200 150"
   xml:space="preserve"
   sodipodi:docname="7.svg"
   inkscape:version="0.92.4 (5da689c313, 2019-01-14)"><metadata
   id="metadata93"><rdf:RDF><cc:Work
       rdf:about=""><dc:format>image/svg+xml</dc:format><dc:type
         rdf:resource="http://purl.org/dc/dcmitype/StillImage" /><dc:title></dc:title></cc:Work></rdf:RDF></metadata><defs
   id="defs91" /><sodipodi:namedview
   pagecolor="#ffffff"
   bordercolor="#666666"
   borderopacity="1"
   objecttolerance="10"
   gridtolerance="10"
   guidetolerance="10"
   inkscape:pageopacity="0"
   inkscape:pageshadow="2"
   inkscape:window-width="1920"
   inkscape:window-height="1017"
   id="namedview89"
   showgrid="false"
   inkscape:zoom="0.66939442"
   inkscape:cx="-425.61493"
   inkscape:cy="-42.975696"
   inkscape:window-x="-8"
   inkscape:window-y="-8"
   inkscape:window-maximized="1"
   inkscape:current-layer="Слой_1"
   fit-margin-top="0"
   fit-margin-left="0"
   fit-margin-right="0"
   fit-margin-bottom="0" />







<g
   id="g74"
   transform="translate(-1088.7044,-4.0893858)">
	<path
   d="m 1163.099,107.377 c 1.783,0.67 3.599,-1.725 2.519,-3.277 -9.205,-13.23 -18.724,-26.234 -28.504,-39.044 5.753,3.778 12.243,6.54 18.894,8.415 1.764,0.497 3.726,-1.661 2.542,-3.307 -6.543,-9.102 -12.818,-18.413 -19.02,-27.76 1.971,1.155 3.949,2.295 5.894,3.465 1.664,1.001 3.89,-0.661 3.318,-2.55 -2.391,-7.902 -5.612,-15.538 -9.733,-22.697 -3.367,-5.85 -7.5,-13.981 -14.217,-16.429 -1.134,-0.413 -2.493,0.469 -2.778,1.577 -3.525,13.697 -9.221,26.573 -16.895,38.45 -0.995,1.54 0.682,3.945 2.501,3.254 3.216,-1.222 6.452,-2.451 9.614,-3.826 -5.866,9.378 -11.796,18.72 -18.222,27.727 -1.417,1.985 1.253,3.99 3.081,3.081 4.784,-2.379 9.564,-4.765 14.344,-7.149 -8.25,12.259 -16.405,24.684 -23.106,37.833 -0.784,1.539 0.573,4.12 2.539,3.303 5.478,-2.276 10.733,-4.943 15.748,-7.994 -2.69,3.742 -5.165,7.661 -7.614,11.245 -5.372,7.863 -10.462,15.909 -15.041,24.261 -0.878,1.601 0.606,4.029 2.551,3.318 11.516,-4.21 22.609,-9.497 33.034,-15.964 1.25,-0.775 2.656,-2.074 4.025,-2.573 1.847,-0.673 2.953,-0.234 4.781,0.548 3.166,1.355 6.204,3.337 9.243,4.971 l 18.486,9.943 c 2.051,1.103 4.092,-1.081 3.09,-3.09 -6.019,-12.069 -13.398,-23.66 -22.155,-33.989 0.116,0.035 0.232,0.07 0.348,0.104 6.816,2.947 13.755,5.533 20.733,8.154 z"
   id="path68"
   inkscape:connector-curvature="0"
   style="fill:#3daa35" />
	<path
   d="m 1159.7,131.378 c -5.468,-13.604 -12.781,-26.292 -21.771,-37.761 5.615,4.697 11.592,8.951 17.902,12.723 1.544,0.923 4.083,-0.655 3.308,-2.543 -4.277,-10.42 -9.178,-20.559 -14.824,-30.309 -1.168,-2.018 -2.373,-4.014 -3.599,-5.998 2.41,1.54 4.932,2.909 7.539,4.101 2.064,0.943 4.097,-0.975 3.079,-3.079 -4.261,-8.808 -8.845,-17.452 -13.795,-25.893 -1.442,-2.459 -2.871,-4.986 -4.377,-7.453 2.668,2.167 5.355,4.31 8.083,6.404 1.56,1.197 3.932,-0.791 3.318,-2.551 -2.312,-6.623 -4.997,-13.109 -8.155,-19.375 -2.552,-5.064 -5.07,-10.991 -10.045,-14.122 -1.213,-0.764 -2.847,-0.013 -3.222,1.311 -3.145,11.09 -7.03,22.406 -8.816,33.809 -0.196,1.249 1.49,2.37 2.28,1.371 0.469,0.318 1.048,0.453 1.659,0.264 0.093,-0.029 0.187,-0.058 0.28,-0.087 0.349,-0.108 0.642,-0.304 0.878,-0.548 -4.651,7.843 -9.487,15.598 -12.416,24.287 -0.661,1.961 1.663,3.378 3.293,2.531 3.574,-1.856 7.027,-3.91 10.326,-6.22 -8.619,13.771 -15.902,28.582 -23.701,42.743 -1.01,1.833 1.14,4.432 3.068,3.068 7.562,-5.345 14.759,-11.148 21.57,-17.394 -8.22,15.009 -19.512,28.299 -25.737,44.36 -0.716,1.846 1.737,3.546 3.306,2.542 11.048,-7.071 20.699,-15.843 28.843,-26.083 9.317,7.366 18.634,14.733 27.951,22.099 1.525,1.207 4.722,0.16 3.775,-2.197 z m -30.871,-80.66 c 0.057,0.216 0.119,0.43 0.182,0.644 -0.185,-0.091 -0.374,-0.174 -0.567,-0.241 0.128,-0.134 0.257,-0.268 0.385,-0.403 z"
   id="path70"
   inkscape:connector-curvature="0"
   style="fill:#059839" />
	<path
   d="m 1137.32,76.518 c -0.167,0.297 -0.288,0.612 -0.361,0.934 -0.144,-0.128 -0.501,0.684 -0.606,0.851 -0.353,0.558 -0.703,1.117 -1.052,1.677 -0.736,1.179 -1.461,2.365 -2.186,3.551 -0.181,0.296 -0.365,0.589 -0.548,0.884 -0.011,-0.647 -0.022,-1.293 -0.033,-1.939 -0.122,-7.285 -0.245,-14.571 -0.367,-21.856 1.118,-1.232 2.222,-2.476 3.293,-3.752 1.328,-1.582 3.41,-3.172 3.424,-5.348 0.01,-1.054 -1.086,-1.963 -2.13,-1.623 -2.087,0.679 -2.961,3.033 -4.188,4.738 -0.161,0.223 -0.326,0.442 -0.488,0.665 -0.011,-0.686 -0.023,-1.372 -0.035,-2.057 -0.165,-9.819 0.044,-19.8 -1.377,-29.538 -0.141,-0.964 -1.11,-0.998 -1.73,-0.538 -0.641,-0.493 -1.743,-0.22 -1.82,0.854 -1.088,15.071 -0.935,30.254 -1.047,45.397 -0.111,-0.093 -0.225,-0.187 -0.334,-0.28 -1.441,-1.236 -3.049,-3.206 -5.031,-3.336 -0.5,-0.033 -1.086,0.496 -1.019,1.019 0.271,2.084 2.385,3.614 3.791,5.065 0.841,0.868 1.673,1.801 2.541,2.692 -0.036,2.806 -0.084,5.61 -0.16,8.412 -0.117,4.354 -0.257,8.707 -0.407,13.06 -0.259,-0.256 -0.513,-0.509 -0.756,-0.762 -1.642,-1.708 -3.77,-4.833 -6.149,-5.466 -0.996,-0.265 -1.761,0.476 -1.857,1.415 -0.222,2.163 3.081,4.892 4.349,6.371 1.259,1.469 2.618,3.428 4.167,4.948 -0.122,3.177 -0.239,6.355 -0.379,9.532 -0.435,9.861 -1.721,19.963 -1.425,29.821 0.01,0.253 0.067,0.485 0.161,0.694 -0.312,0.765 -0.143,1.73 0.688,2.144 1.915,0.953 4.44,0.907 6.534,0.759 0.878,-0.062 1.577,-0.54 1.89,-1.283 0.524,-0.356 0.891,-0.942 0.877,-1.775 -0.292,-17.06 -0.581,-34.12 -0.869,-51.181 1.607,-2.022 3.012,-4.214 4.456,-6.35 0.922,-1.363 1.833,-2.733 2.758,-4.094 0.667,-0.981 1.596,-1.926 1.548,-3.183 -0.078,-2.135 -3.009,-3.101 -4.123,-1.122 z m -8.712,46.055 c 0.042,-1.634 0.08,-3.266 0.125,-4.89 0.021,1.696 0.042,3.393 0.062,5.089 -0.057,-0.072 -0.122,-0.136 -0.187,-0.199 z"
   id="path72"
   inkscape:connector-curvature="0"
   style="fill:#936138" />
</g>
<g
   id="g76"
   transform="translate(-1088.7044,-4.0893858)">
</g>
<g
   id="g78"
   transform="translate(-1088.7044,-4.0893858)">
</g>
<g
   id="g80"
   transform="translate(-1088.7044,-4.0893858)">
</g>
<g
   id="g82"
   transform="translate(-1088.7044,-4.0893858)">
</g>
<g
   id="g84"
   transform="translate(-1088.7044,-4.0893858)">
</g>
<g
   id="g86"
   transform="translate(-1088.7044,-4.0893858)">
</g>
</svg>