<?xml version="1.0" encoding="UTF-8" standalone="no"?>
<!-- Generator: Adobe Illustrator 17.0.0, SVG Export Plug-In . SVG Version: 6.00 Build 0)  -->

<svg
   xmlns:dc="http://purl.org/dc/elements/1.1/"
   xmlns:cc="http://creativecommons.org/ns#"
   xmlns:rdf="http://www.w3.org/1999/02/22-rdf-syntax-ns#"
   xmlns:svg="http://www.w3.org/2000/svg"
   xmlns="http://www.w3.org/2000/svg"
   xmlns:sodipodi="http://sodipodi.sourceforge.net/DTD/sodipodi-0.dtd"
   xmlns:inkscape="http://www.inkscape.org/namespaces/inkscape"
   version="1.1"
   id="Слой_1"
   x="0px"
   y="0px"
   width="86.090866"
   height="143.58725"
   viewBox="0 0 86.090866 143.58725"
   enable-background="new 0 0 1200 150"
   xml:space="preserve"
   sodipodi:docname="0.svg"
   inkscape:version="0.92.4 (5da689c313, 2019-01-14)"><metadata
   id="metadata93"><rdf:RDF><cc:Work
       rdf:about=""><dc:format>image/svg+xml</dc:format><dc:type
         rdf:resource="http://purl.org/dc/dcmitype/StillImage" /><dc:title></dc:title></cc:Work></rdf:RDF></metadata><defs
   id="defs91" /><sodipodi:namedview
   pagecolor="#ffffff"
   bordercolor="#666666"
   borderopacity="1"
   objecttolerance="10"
   gridtolerance="10"
   guidetolerance="10"
   inkscape:pageopacity="0"
   inkscape:pageshadow="2"
   inkscape:window-width="1920"
   inkscape:window-height="1017"
   id="namedview89"
   showgrid="false"
   fit-margin-top="0"
   fit-margin-left="0"
   fit-margin-right="0"
   fit-margin-bottom="0"
   inkscape:zoom="0.66939442"
   inkscape:cx="682.70931"
   inkscape:cy="-111.46803"
   inkscape:window-x="-8"
   inkscape:window-y="-8"
   inkscape:window-maximized="1"
   inkscape:current-layer="Слой_1" />
<g
   id="g14"
   transform="translate(-32.910476,-2.6990664)">
	<path
   d="m 118.556,121.039 c -5.443,-7.446 -8.597,-15.993 -11.524,-24.662 -3.316,-9.821 -6.597,-19.654 -9.896,-29.48 C 90.489,47.096 83.843,27.295 77.196,7.493 76.97,6.82 76.545,6.378 76.04,6.127 75.692,5.555 75.344,4.983 74.995,4.412 74.904,4.263 74.789,4.139 74.661,4.034 74.544,3.849 74.422,3.667 74.307,3.481 73.455,2.104 71.233,2.648 71.23,4.314 c -0.001,0.3 -0.009,0.589 -0.011,0.87 -0.282,0.17 -0.525,0.445 -0.675,0.843 -7.067,18.78 -12.038,38.413 -18.164,57.523 -6.136,19.142 -12.594,38.18 -19.346,57.113 -0.624,1.748 1.24,3.156 2.815,2.815 25.91,-5.603 54.314,-10.314 79.478,0.79 1.881,0.831 4.793,-1.09 3.229,-3.229 z"
   id="path2"
   inkscape:connector-curvature="0"
   style="fill:#059839" />
	<path
   d="m 72.206,48.393 c -0.284,-1.173 -1.92,-0.828 -2.004,0.271 0.02,0.37 -0.029,0.707 -0.132,1.018 -0.124,-0.959 -0.393,-1.899 -0.815,-2.878 -0.435,-1.01 -1.836,-0.558 -2.134,0.279 -0.604,1.697 -1.378,3.276 -2.314,4.76 0.137,-1.421 0.211,-2.848 0.209,-4.29 -0.001,-1.354 -2.037,-1.664 -2.382,-0.322 -0.824,3.202 -2.299,5.595 -4.507,8.041 -0.649,0.719 0.307,1.602 1.036,1.036 1.228,-0.953 2.289,-2.111 3.198,-3.385 -0.098,0.922 -0.216,1.843 -0.382,2.764 -0.185,1.028 1.065,2.006 1.893,1.102 1.598,-1.743 2.917,-3.627 3.989,-5.67 -0.008,0.312 -0.029,0.626 -0.076,0.951 -0.11,0.76 0.501,1.784 1.421,1.421 2.161,-0.852 3.575,-2.723 3,-5.098 z"
   id="path4"
   inkscape:connector-curvature="0"
   style="fill:#3daa35" />
	<path
   d="m 94.531,71.094 c -1.916,-1.3 -3.719,-2.151 -5.312,-3.916 -0.955,-1.059 -2.463,0.085 -2.225,1.295 0.16,0.813 0.32,1.626 0.48,2.439 -1.491,-1.121 -2.626,-2.65 -3.733,-4.221 -0.784,-1.114 -2.416,-0.69 -2.522,0.683 -0.192,2.492 -0.107,4.924 0.255,7.334 -2.601,-3.103 -4.304,-6.929 -6.11,-10.538 -0.344,-0.688 -1.518,-0.208 -1.255,0.529 1.972,5.517 4.42,10.666 8.628,14.829 0.93,0.92 2.529,-0.009 2.189,-1.274 -0.644,-2.393 -0.995,-4.714 -1.081,-7.086 1.399,1.532 2.997,2.785 5.127,3.545 1.034,0.369 1.831,-0.728 1.647,-1.647 -0.091,-0.455 -0.182,-0.91 -0.273,-1.366 1.089,0.697 2.291,1.186 3.654,1.347 1.126,0.133 1.297,-1.433 0.531,-1.953 z"
   id="path6"
   inkscape:connector-curvature="0"
   style="fill:#3daa35" />
	<path
   d="m 66.994,93.132 c -0.316,-1.434 -2.539,-1.096 -2.533,0.343 0.108,0.679 0.042,1.279 -0.18,1.809 -0.123,-1.239 -0.351,-2.461 -0.704,-3.725 -0.275,-0.984 -1.849,-1.334 -2.331,-0.305 -0.95,2.029 -2.156,3.679 -3.735,5.064 0.092,-1.666 0.081,-3.329 -0.054,-5.02 -0.083,-1.041 -1.518,-1.972 -2.328,-0.964 -1.864,2.32 -3.909,4.314 -6.199,6.045 1.342,-2.656 2.419,-5.564 2.033,-8.007 -0.054,-0.345 -0.46,-0.486 -0.755,-0.429 -0.082,0.016 -0.165,0.032 -0.247,0.048 -0.143,0.028 -0.276,0.169 -0.308,0.308 -0.017,0.076 -0.035,0.151 -0.052,0.227 -0.053,0.229 0.137,0.388 0.354,0.354 -0.945,0.151 -2.371,5.063 -2.959,6.165 -0.867,1.626 -1.864,3.151 -2.934,4.648 -0.819,1.146 0.727,2.328 1.789,1.789 3.422,-1.736 6.45,-4.009 9.064,-6.754 0.007,1.439 -0.072,2.874 -0.254,4.339 -0.125,1 1.193,1.602 1.962,1.126 2.056,-1.272 3.731,-2.804 5.073,-4.659 0.064,0.888 0.066,1.783 -0.005,2.717 -0.085,1.12 1.173,1.519 2.011,1.154 2.598,-1.131 3.901,-3.511 3.292,-6.273 z"
   id="path8"
   inkscape:connector-curvature="0"
   style="fill:#3daa35" />
	<path
   d="m 101.408,97.373 c -1.291,-1.122 -2.845,0.536 -1.837,1.837 0.945,1.218 1.032,0.825 -0.175,0.305 -0.517,-0.223 -0.838,-0.431 -1.411,-0.634 -0.935,-0.329 -2.099,0.741 -1.707,1.707 0.072,0.179 0.144,0.358 0.217,0.537 -1.219,-0.84 -2.208,-1.954 -2.998,-3.377 -0.295,-0.531 -1.023,-0.843 -1.61,-0.655 -3.183,1.018 -2.251,5.389 -1.283,8.719 -3.388,-2.007 -5.808,-5.056 -7.43,-8.793 -0.372,-0.858 -1.741,-0.243 -1.492,0.629 1.541,5.39 5.396,9.558 10.416,11.941 1.127,0.535 2.24,-0.34 2.023,-1.555 -0.069,-0.383 -0.888,-4.052 -1.293,-6.348 1.55,1.699 3.498,2.869 5.897,3.523 0.933,0.254 2.147,-0.697 1.723,-1.724 -0.064,-0.156 -0.128,-0.312 -0.192,-0.468 0.761,0.212 1.52,0.105 2.276,-0.78 1.411,-1.652 0.222,-3.694 -1.124,-4.864 z"
   id="path10"
   inkscape:connector-curvature="0"
   style="fill:#3daa35" />
	<path
   d="m 76.289,25.17 c 0.009,-0.985 -0.703,-1.5 -1.463,-1.556 -10e-4,-0.01 -10e-4,-0.021 -0.002,-0.031 -0.071,-1.182 -1.76,-1.181 -1.837,0 -1.31,20.083 -1.157,40.245 -1.805,60.359 -0.648,20.114 -1.579,40.219 -2.848,60.304 -0.066,1.042 0.888,1.729 1.814,1.814 3.839,0.351 7.606,0.294 11.432,-0.173 0.898,-0.11 1.984,-0.764 1.852,-1.852 C 78.649,104.576 75.945,64.933 76.289,25.17 Z m -0.078,116.958 c 0.185,-0.103 0.355,-0.223 0.518,-0.351 0.078,0.26 0.162,0.518 0.243,0.777 -0.337,0.014 -0.674,0.03 -1.011,0.038 0.105,-0.136 0.194,-0.287 0.25,-0.464 z"
   id="path12"
   inkscape:connector-curvature="0"
   style="fill:#936138" />
</g>







<g
   id="g76"
   transform="translate(-32.910476,-2.6990664)">
</g>
<g
   id="g78"
   transform="translate(-32.910476,-2.6990664)">
</g>
<g
   id="g80"
   transform="translate(-32.910476,-2.6990664)">
</g>
<g
   id="g82"
   transform="translate(-32.910476,-2.6990664)">
</g>
<g
   id="g84"
   transform="translate(-32.910476,-2.6990664)">
</g>
<g
   id="g86"
   transform="translate(-32.910476,-2.6990664)">
</g>
</svg>