<?xml version="1.0" encoding="UTF-8" standalone="no"?>
<svg
   xmlns:dc="http://purl.org/dc/elements/1.1/"
   xmlns:cc="http://creativecommons.org/ns#"
   xmlns:rdf="http://www.w3.org/1999/02/22-rdf-syntax-ns#"
   xmlns:svg="http://www.w3.org/2000/svg"
   xmlns="http://www.w3.org/2000/svg"
   xmlns:sodipodi="http://sodipodi.sourceforge.net/DTD/sodipodi-0.dtd"
   xmlns:inkscape="http://www.inkscape.org/namespaces/inkscape"
   sodipodi:docname="0.svg"
   inkscape:version="1.0 (4035a4fb49, 2020-05-01)"
   inkscape:export-ydpi="300"
   inkscape:export-xdpi="300"
   inkscape:export-filename="C:\Users\Aleksandr\Desktop\0.png"
   id="svg2110"
   version="1.1"
   viewBox="0 0 52.916665 52.916668"
   height="200"
   width="200">
  <defs
     id="defs2104" />
  <sodipodi:namedview
     inkscape:window-maximized="1"
     inkscape:window-y="-8"
     inkscape:window-x="-8"
     inkscape:window-height="1017"
     inkscape:window-width="1920"
     units="px"
     showgrid="false"
     inkscape:document-rotation="0"
     inkscape:current-layer="layer4"
     inkscape:document-units="mm"
     inkscape:cy="84.362407"
     inkscape:cx="135.4498"
     inkscape:zoom="2.5893301"
     inkscape:pageshadow="2"
     inkscape:pageopacity="0.0"
     borderopacity="1.0"
     bordercolor="#666666"
     pagecolor="#ffffff"
     id="base" />
  <metadata
     id="metadata2107">
    <rdf:RDF>
      <cc:Work
         rdf:about="">
        <dc:format>image/svg+xml</dc:format>
        <dc:type
           rdf:resource="http://purl.org/dc/dcmitype/StillImage" />
        <dc:title></dc:title>
      </cc:Work>
    </rdf:RDF>
  </metadata>
  <g
     id="layer1"
     inkscape:groupmode="layer"
     inkscape:label="Layer 1">
    <rect
       y="0"
       x="-0.10218216"
       height="53.339085"
       width="53.339088"
       id="rect2728"
       style="fill:#3db6b0;stroke:none;stroke-width:1.05833;stroke-linecap:round;stroke-linejoin:round" />
  </g>
  <g
     inkscape:label="Layer 2"
     id="layer4"
     inkscape:groupmode="layer">
    <g
       style="stroke-width:0.684788"
       transform="matrix(0.38637235,0,0,0.38637235,-3.0435759,-3.5298372)"
       id="g53">
      <g
         style="stroke-width:0.684788"
         id="g51">
        <g
           style="stroke-width:0.684788"
           id="g49">
          <path
             style="stroke-width:0.468935"
             fill="#ffffff"
             d="m 72.961,12.542 c 0,0 -24.29,2.716 -28.275,20.407 -3.565,15.828 -1.721,25.325 -1.721,25.325 0,0 -5.901,-3.688 -10.081,0.983 -4.18,4.671 -1.967,12.785 2.705,14.015 4.672,1.229 8.851,0 8.851,0 0,0 0,17.211 7.13,24.833 7.13,7.622 16.596,9.22 16.596,9.22 0,0 3.073,8.728 -10.204,14.138 -13.277,5.409 -21.145,5.655 -24.587,14.506 -3.442,8.851 -2.95,12.294 -2.95,12.294 L 118.692,149 c 0,0 0.738,-13.277 -5.901,-18.44 -6.639,-5.163 -21.882,-6.884 -25.079,-12.048 -3.197,-5.164 -3.073,-11.187 -3.073,-11.187 0,0 14.383,0.492 20.776,-12.294 6.393,-12.785 6.393,-21.268 6.393,-21.268 0,0 6.554,2.723 10.204,-3.073 2.09,-3.319 4.794,-11.187 -3.565,-13.4 -2.191,-0.58 -6.638,1.475 -6.638,1.475 0,0 1.229,-21.329 -2.643,-29.443 -3.055,-6.4 -7.376,-12.171 -17.518,-15.305 -8.946,-2.765 -18.687,-1.475 -18.687,-1.475 z"
             id="path5" />
          <g
             style="stroke-width:0.684788"
             id="g15">
            <g
               style="stroke-width:0.684788"
               id="g11">
              <g
                 style="stroke-width:0.684788"
                 id="g9">
                <path
                   style="stroke-width:0.468935"
                   fill="#37b4ad"
                   d="m 72.917,54.432 c -0.579,10.757 -16.115,10.757 -16.694,0 -0.254,-4.721 3.997,-8.113 8.347,-8.347 4.721,-0.254 8.113,3.997 8.347,8.347 0.052,0.962 1.552,0.967 1.5,0 -0.3,-5.578 -4.27,-9.547 -9.847,-9.847 -5.566,-0.3 -9.571,4.722 -9.847,9.847 -0.3,5.566 4.722,9.571 9.847,9.847 5.566,0.3 9.571,-4.722 9.847,-9.847 0.053,-0.967 -1.448,-0.962 -1.5,0 z"
                   id="path7" />
              </g>
            </g>
            <circle
               style="stroke-width:0.468935"
               fill="#37b4ad"
               cx="64.509003"
               cy="50.098999"
               r="2.7049999"
               id="circle13" />
          </g>
          <g
             style="stroke-width:0.684788"
             id="g25">
            <g
               style="stroke-width:0.684788"
               id="g21">
              <g
                 style="stroke-width:0.684788"
                 id="g19">
                <path
                   style="stroke-width:0.468935"
                   fill="#37b4ad"
                   d="m 98.519,54.432 c -0.579,10.757 -16.115,10.757 -16.694,0 -0.254,-4.721 3.997,-8.113 8.347,-8.347 4.72,-0.254 8.112,3.997 8.347,8.347 0.052,0.962 1.552,0.967 1.5,0 -0.3,-5.578 -4.27,-9.547 -9.847,-9.847 -5.566,-0.3 -9.571,4.722 -9.847,9.847 -0.3,5.566 4.722,9.571 9.847,9.847 5.566,0.3 9.571,-4.722 9.847,-9.847 0.052,-0.967 -1.449,-0.962 -1.5,0 z"
                   id="path17" />
              </g>
            </g>
            <circle
               style="stroke-width:0.468935"
               fill="#37b4ad"
               cx="89.956001"
               cy="50.498001"
               r="2.7049999"
               id="circle23" />
          </g>
          <path
             style="stroke-width:0.468935"
             fill="#37b4ad"
             d="m 84.515,90.484 c 0,0 -1.596,-6.701 2.474,-9.895 3.922,-3.077 8.776,-0.371 8.776,-0.371 0,0 -4.672,-0.061 -7.626,2.818 -2.402,2.341 -3.624,7.448 -3.624,7.448 z"
             id="path27" />
          <path
             style="stroke-width:0.468935"
             fill="#37b4ad"
             d="m 69.242,31.904 0.83,6.638 c 0,0 -5.716,0.092 -11.71,3.043 -5.402,2.659 -8.298,5.44 -8.298,5.44 0,0 0.369,-6.731 6.085,-10.603 5.716,-3.872 13.093,-4.518 13.093,-4.518 z"
             id="path29" />
          <path
             style="stroke-width:0.468935"
             fill="#37b4ad"
             d="m 85.1,31.996 -1.014,6.362 c 0,0 5.348,-0.277 11.249,3.135 5.447,3.149 7.284,6.823 7.284,6.823 0,0 1.961,-4.656 -2.489,-9.681 C 94.413,32.181 85.1,31.996 85.1,31.996 Z"
             id="path31" />
          <g
             style="stroke-width:0.684788"
             id="g35">
            <path
               style="stroke-width:0.468935"
               fill="#37b4ad"
               d="m 69.516,67.449 c -1.058,1.455 -2.528,3.67 -0.609,5.059 2.078,1.503 6.97,1.237 9.37,1.163 1.828,-0.056 5.07,-0.172 6.318,-1.726 1.084,-1.35 0.028,-3.823 -1.597,-4.178 -0.344,-0.075 -0.571,0.201 -0.525,0.525 0.23,1.584 0.645,2.514 -1.176,3.25 -1.247,0.504 -2.798,0.55 -4.123,0.615 -1.565,0.076 -3.193,0.114 -4.755,-0.022 -1.446,-0.126 -3.162,-0.112 -3.212,-2.169 -0.017,-0.684 0.585,-1.671 0.751,-2.33 0.071,-0.279 -0.285,-0.402 -0.442,-0.187 z"
               id="path33" />
          </g>
          <g
             style="stroke-width:0.684788"
             id="g41">
            <g
               style="stroke-width:0.684788"
               id="g39">
              <path
                 style="stroke-width:0.468935"
                 fill="#37b4ad"
                 d="m 60.794,29.942 c 7.998,-1.873 16.38,-4.371 24.532,-2.017 0.592,0.171 0.84,-0.742 0.253,-0.919 -7.887,-2.379 -17.328,-0.012 -24.856,2.68 -0.159,0.057 -0.097,0.296 0.071,0.256 z"
                 id="path37" />
            </g>
          </g>
          <g
             style="stroke-width:0.684788"
             id="g47">
            <g
               style="stroke-width:0.684788"
               id="g45">
              <path
                 style="stroke-width:0.468935"
                 fill="#37b4ad"
                 d="m 70.242,23.784 c 2.095,-0.158 4.268,-0.022 6.339,-0.308 0.23,-0.032 0.187,-0.363 0,-0.422 -1.998,-0.63 -4.416,-0.302 -6.408,0.223 -0.276,0.074 -0.226,0.529 0.069,0.507 z"
                 id="path43" />
            </g>
          </g>
        </g>
      </g>
    </g>
  </g>
</svg>
