<?xml version="1.0" encoding="UTF-8" standalone="no"?>
<svg
   xmlns:dc="http://purl.org/dc/elements/1.1/"
   xmlns:cc="http://creativecommons.org/ns#"
   xmlns:rdf="http://www.w3.org/1999/02/22-rdf-syntax-ns#"
   xmlns:svg="http://www.w3.org/2000/svg"
   xmlns="http://www.w3.org/2000/svg"
   xmlns:sodipodi="http://sodipodi.sourceforge.net/DTD/sodipodi-0.dtd"
   xmlns:inkscape="http://www.inkscape.org/namespaces/inkscape"
   sodipodi:docname="1.svg"
   inkscape:version="1.0 (4035a4fb49, 2020-05-01)"
   inkscape:export-ydpi="300"
   inkscape:export-xdpi="300"
   inkscape:export-filename="C:\Users\Aleksandr\Desktop\0.png"
   id="svg2110"
   version="1.1"
   viewBox="0 0 52.916665 52.916668"
   height="200"
   width="200">
  <defs
     id="defs2104" />
  <sodipodi:namedview
     inkscape:window-maximized="1"
     inkscape:window-y="-8"
     inkscape:window-x="-8"
     inkscape:window-height="1017"
     inkscape:window-width="1920"
     units="px"
     showgrid="false"
     inkscape:document-rotation="0"
     inkscape:current-layer="layer4"
     inkscape:document-units="mm"
     inkscape:cy="84.362407"
     inkscape:cx="135.4498"
     inkscape:zoom="2.5893301"
     inkscape:pageshadow="2"
     inkscape:pageopacity="0.0"
     borderopacity="1.0"
     bordercolor="#666666"
     pagecolor="#ffffff"
     id="base" />
  <metadata
     id="metadata2107">
    <rdf:RDF>
      <cc:Work
         rdf:about="">
        <dc:format>image/svg+xml</dc:format>
        <dc:type
           rdf:resource="http://purl.org/dc/dcmitype/StillImage" />
        <dc:title></dc:title>
      </cc:Work>
    </rdf:RDF>
  </metadata>
  <g
     id="layer1"
     inkscape:groupmode="layer"
     inkscape:label="Layer 1">
    <rect
       y="0"
       x="-0.10218216"
       height="53.339085"
       width="53.339088"
       id="rect2728"
       style="fill:#3db6b0;stroke:none;stroke-width:1.05833;stroke-linecap:round;stroke-linejoin:round" />
  </g>
  <g
     inkscape:label="Layer 2"
     id="layer4"
     inkscape:groupmode="layer">
    <g
       style="stroke-width:0.68165"
       transform="matrix(0.38815151,0,0,0.38815151,-62.004869,-3.7345346)"
       id="g107">
      <g
         style="stroke-width:0.68165"
         id="g105">
        <path
           style="stroke-width:0.459329"
           fill="#ffffff"
           d="m 223.258,11.856 c 0,0 -24.234,2.71 -28.21,20.36 -3.557,15.791 -1.717,25.266 -1.717,25.266 0,0 -5.887,-3.68 -10.057,0.981 -4.17,4.661 -1.962,12.756 2.698,13.982 4.661,1.227 8.831,0 8.831,0 0,0 0,17.171 7.114,24.776 7.114,7.604 16.558,9.199 16.558,9.199 0,0 3.066,8.708 -10.18,14.105 -13.246,5.397 -21.096,5.642 -24.53,14.473 -3.434,8.831 -2.944,12.265 -2.944,12.265 L 268.885,148 c 0,0 0.736,-13.246 -5.887,-18.398 -6.623,-5.152 -21.832,-6.869 -25.021,-12.02 -3.189,-5.151 -3.066,-11.161 -3.066,-11.161 0,0 14.35,0.491 20.728,-12.265 6.378,-12.756 6.378,-21.219 6.378,-21.219 0,0 6.539,2.716 10.18,-3.066 2.085,-3.312 4.783,-11.161 -3.557,-13.369 -2.186,-0.579 -6.623,1.472 -6.623,1.472 0,0 1.227,-21.28 -2.637,-29.375 -3.048,-6.386 -7.359,-12.143 -17.478,-15.27 -8.925,-2.759 -18.644,-1.473 -18.644,-1.473 z"
           id="path55" />
        <g
           style="stroke-width:0.68165"
           id="g61">
          <g
             style="stroke-width:0.68165"
             id="g59">
            <path
               style="stroke-width:0.459329"
               fill="#33b3ac"
               d="m 223.412,55.363 c -0.505,9.206 -16.147,9.206 -16.652,0 -0.547,-9.971 16.112,-9.938 16.652,0 0.052,0.962 1.553,0.967 1.5,0 -0.647,-11.895 -19.006,-11.895 -19.652,0 -0.605,11.13 19.043,11.101 19.652,0 0.053,-0.967 -1.447,-0.961 -1.5,0 z"
               id="path57" />
          </g>
        </g>
        <circle
           style="stroke-width:0.459329"
           fill="#33b3ac"
           cx="215.02499"
           cy="55.271"
           r="2.698"
           id="circle63" />
        <g
           style="stroke-width:0.68165"
           id="g69">
          <g
             style="stroke-width:0.68165"
             id="g67">
            <path
               style="stroke-width:0.459329"
               fill="#33b3ac"
               d="m 248.982,55.371 c -0.505,9.206 -16.147,9.206 -16.652,0 -0.548,-9.972 16.111,-9.938 16.652,0 0.052,0.962 1.553,0.967 1.5,0 -0.647,-11.895 -19.006,-11.895 -19.652,0 -0.605,11.13 19.043,11.101 19.652,0 0.053,-0.967 -1.447,-0.962 -1.5,0 z"
               id="path65" />
          </g>
        </g>
        <circle
           style="stroke-width:0.459329"
           fill="#33b3ac"
           cx="240.80901"
           cy="55.310001"
           r="2.698"
           id="circle71" />
        <path
           style="stroke-width:0.459329"
           fill="#36b3ad"
           d="m 222.119,33.74 0.571,6.65 c 0,0 -5.703,-0.129 -11.791,2.581 -5.488,2.442 -8.483,5.102 -8.483,5.102 0,0 0.628,-6.696 6.477,-10.336 5.847,-3.638 13.226,-3.997 13.226,-3.997 z"
           id="path73" />
        <path
           style="stroke-width:0.459329"
           fill="#36b3ad"
           d="m 233.391,33.729 -0.298,6.42 c 0,0 5.271,-0.869 11.501,1.857 5.751,2.516 7.981,5.954 7.981,5.954 0,0 1.426,-4.835 -3.545,-9.322 -6.386,-5.762 -15.639,-4.909 -15.639,-4.909 z"
           id="path75" />
        <g
           style="stroke-width:0.68165"
           id="g79">
          <path
             style="stroke-width:0.459329"
             fill="#36b3ad"
             d="m 220.925,67.557 c -1.055,1.451 -2.522,3.662 -0.608,5.047 2.073,1.499 6.954,1.234 9.349,1.16 1.823,-0.056 5.059,-0.172 6.304,-1.722 1.082,-1.347 0.028,-3.814 -1.593,-4.169 -0.343,-0.075 -0.57,0.2 -0.523,0.523 0.229,1.58 0.644,2.508 -1.174,3.243 -1.244,0.503 -2.791,0.549 -4.114,0.614 -1.562,0.076 -3.186,0.114 -4.744,-0.022 -1.443,-0.126 -3.155,-0.112 -3.205,-2.164 -0.017,-0.682 0.583,-1.667 0.749,-2.325 0.071,-0.277 -0.284,-0.399 -0.441,-0.185 z"
             id="path77" />
        </g>
        <g
           style="stroke-width:0.68165"
           id="g85">
          <g
             style="stroke-width:0.68165"
             id="g83">
            <path
               style="stroke-width:0.459329"
               fill="#36b3ad"
               d="m 202.691,72.173 c 3.513,0.467 12.133,0.261 13.126,-4.39 0.061,-0.287 -0.208,-0.461 -0.459,-0.353 -1.847,0.798 -3.164,2.262 -5.134,2.955 -2.438,0.858 -5.019,0.615 -7.532,0.929 -0.556,0.069 -0.552,0.786 -0.001,0.859 z"
               id="path81" />
          </g>
        </g>
        <g
           style="stroke-width:0.68165"
           id="g91">
          <g
             style="stroke-width:0.68165"
             id="g89">
            <path
               style="stroke-width:0.459329"
               fill="#36b3ad"
               d="m 243.122,67.403 c 1.342,3.466 8.297,7.271 11.773,5.288 0.446,-0.254 0.353,-0.954 -0.142,-1.085 -1.884,-0.5 -3.768,-0.511 -5.64,-1.195 -2.094,-0.765 -3.543,-2.411 -5.463,-3.414 -0.253,-0.131 -0.65,0.09 -0.528,0.406 z"
               id="path87" />
          </g>
        </g>
        <g
           style="stroke-width:0.68165"
           id="g97">
          <g
             style="stroke-width:0.68165"
             id="g95">
            <path
               style="stroke-width:0.459329"
               fill="#36b3ad"
               d="m 207.216,71.737 c 0.307,9.822 11.855,12.087 19.606,12.776 8.052,0.715 22.438,-2.666 23.866,-12.47 0.107,-0.734 -0.72,-1.084 -1.171,-0.494 -2.348,3.077 -3.873,5.804 -7.205,7.997 -3.541,2.33 -7.861,2.904 -11.988,3.105 -8.864,0.431 -19.691,-1.3 -22.586,-10.985 -0.084,-0.282 -0.531,-0.235 -0.522,0.071 z"
               id="path93" />
          </g>
        </g>
        <g
           style="stroke-width:0.68165"
           id="g103">
          <g
             style="stroke-width:0.68165"
             id="g101">
            <path
               style="stroke-width:0.459329"
               fill="#36b3ad"
               d="m 217.35,85.502 c 2.742,3.799 12.507,5.942 15.999,2.399 0.243,-0.246 0.073,-0.704 -0.287,-0.694 -2.397,0.07 -4.607,0.69 -7.057,0.526 -3.005,-0.202 -5.765,-0.942 -8.291,-2.594 -0.216,-0.141 -0.521,0.145 -0.364,0.363 z"
               id="path99" />
          </g>
        </g>
      </g>
    </g>
  </g>
</svg>
