<?xml version="1.0" encoding="UTF-8" standalone="no"?>
<svg
   xmlns:dc="http://purl.org/dc/elements/1.1/"
   xmlns:cc="http://creativecommons.org/ns#"
   xmlns:rdf="http://www.w3.org/1999/02/22-rdf-syntax-ns#"
   xmlns:svg="http://www.w3.org/2000/svg"
   xmlns="http://www.w3.org/2000/svg"
   xmlns:xlink="http://www.w3.org/1999/xlink"
   xmlns:sodipodi="http://sodipodi.sourceforge.net/DTD/sodipodi-0.dtd"
   xmlns:inkscape="http://www.inkscape.org/namespaces/inkscape"
   sodipodi:docname="3.svg"
   inkscape:version="1.0 (4035a4fb49, 2020-05-01)"
   inkscape:export-ydpi="300"
   inkscape:export-xdpi="300"
   inkscape:export-filename="C:\Users\Aleksandr\Desktop\0.png"
   id="svg2110"
   version="1.1"
   viewBox="0 0 52.916665 52.916668"
   height="200"
   width="200">
  <defs
     id="defs2104">
    <clipPath
       id="SVGID_2_">
      <use
         height="100%"
         width="100%"
         y="0"
         x="0"
         xlink:href="#SVGID_1_"
         overflow="visible"
         id="use178" />
    </clipPath>
    <path
       id="SVGID_1_"
       d="m 360.561,95.257 c -2.727,-0.62 -2.637,-3.507 -1.674,-5.951 1.209,-3.068 7.283,-10.259 12.242,-12.986 4.959,-2.727 11.594,-1.675 14.257,0.868 3.44,3.285 8.926,11.53 9.174,14.877 0.248,3.347 -1.116,4.835 -4.215,3.595 -3.099,-1.24 -8.558,-3.704 -13.513,-3.471 -7.903,0.372 -13.543,3.688 -16.271,3.068 z" />
  </defs>
  <sodipodi:namedview
     inkscape:window-maximized="1"
     inkscape:window-y="-8"
     inkscape:window-x="-8"
     inkscape:window-height="1017"
     inkscape:window-width="1920"
     units="px"
     showgrid="false"
     inkscape:document-rotation="0"
     inkscape:current-layer="layer4"
     inkscape:document-units="mm"
     inkscape:cy="84.362407"
     inkscape:cx="135.4498"
     inkscape:zoom="2.5893301"
     inkscape:pageshadow="2"
     inkscape:pageopacity="0.0"
     borderopacity="1.0"
     bordercolor="#666666"
     pagecolor="#ffffff"
     id="base" />
  <metadata
     id="metadata2107">
    <rdf:RDF>
      <cc:Work
         rdf:about="">
        <dc:format>image/svg+xml</dc:format>
        <dc:type
           rdf:resource="http://purl.org/dc/dcmitype/StillImage" />
        <dc:title></dc:title>
      </cc:Work>
    </rdf:RDF>
  </metadata>
  <g
     id="layer1"
     inkscape:groupmode="layer"
     inkscape:label="Layer 1">
    <rect
       y="0"
       x="-0.10218216"
       height="53.339085"
       width="53.339088"
       id="rect2728"
       style="fill:#3db6b0;stroke:none;stroke-width:1.05833;stroke-linecap:round;stroke-linejoin:round" />
  </g>
  <g
     inkscape:label="Layer 2"
     id="layer4"
     inkscape:groupmode="layer">
    <g
       style="stroke-width:0.699715"
       transform="matrix(0.37813009,0,0,0.37813009,-173.35402,-2.3558333)"
       id="g3037">
      <path
         style="stroke-width:0.489601"
         id="path213"
         d="m 522.526,11.469 c 0,0 -24.481,2.737 -28.497,20.568 -3.593,15.952 -1.735,25.524 -1.735,25.524 0,0 -5.947,-3.717 -10.16,0.991 -4.213,4.708 -1.982,12.886 2.726,14.125 4.708,1.239 8.921,0 8.921,0 0,0 0,17.346 7.186,25.028 7.186,7.682 16.727,9.293 16.727,9.293 0,0 3.098,8.797 -10.284,14.249 -13.382,5.452 -21.311,5.699 -24.78,14.62 -3.469,8.921 -2.974,12.39 -2.974,12.39 L 568.618,149 c 0,0 0.743,-13.381 -5.947,-18.585 -6.69,-5.204 -22.055,-6.938 -25.276,-12.142 -3.221,-5.204 -3.098,-11.275 -3.098,-11.275 0,0 14.496,0.496 20.939,-12.39 6.443,-12.886 6.443,-21.435 6.443,-21.435 0,0 6.606,2.744 10.284,-3.098 2.106,-3.345 4.832,-11.275 -3.593,-13.505 -2.209,-0.585 -6.691,1.487 -6.691,1.487 0,0 1.239,-21.497 -2.664,-29.674 -3.079,-6.451 -7.434,-12.266 -17.656,-15.426 -9.015,-2.788 -18.833,-1.488 -18.833,-1.488 z"
         fill="#ffffff" />
      <path
         style="stroke-width:0.489601"
         id="path215"
         d="m 517.845,69.56 c -1.127,1.55 -2.694,3.912 -0.649,5.391 2.214,1.602 7.428,1.318 9.986,1.24 1.948,-0.06 5.404,-0.183 6.733,-1.839 1.156,-1.439 0.03,-4.074 -1.701,-4.453 -0.366,-0.08 -0.609,0.214 -0.559,0.559 0.245,1.688 0.688,2.679 -1.254,3.464 -1.329,0.537 -2.981,0.587 -4.394,0.656 -1.668,0.082 -3.403,0.122 -5.068,-0.023 -1.541,-0.134 -3.37,-0.119 -3.423,-2.312 -0.018,-0.729 0.623,-1.78 0.8,-2.483 0.075,-0.299 -0.305,-0.43 -0.471,-0.2 z"
         fill="#33b3ac" />
      <g
         style="stroke-width:0.699715"
         id="g221">
        <g
           style="stroke-width:0.699715"
           id="g219">
          <path
             style="stroke-width:0.489601"
             id="path217"
             d="m 521.519,55.687 c -0.621,11.527 -17.269,11.527 -17.89,0 -0.272,-5.059 4.283,-8.694 8.945,-8.945 5.059,-0.272 8.694,4.283 8.945,8.945 0.052,0.962 1.552,0.967 1.5,0 -0.319,-5.917 -4.528,-10.126 -10.445,-10.445 -5.904,-0.318 -10.152,5.008 -10.445,10.445 -0.318,5.904 5.008,10.152 10.445,10.445 5.904,0.318 10.152,-5.008 10.445,-10.445 0.052,-0.967 -1.448,-0.962 -1.5,0 z"
             fill="#33b3ac" />
        </g>
      </g>
      <circle
         style="stroke-width:0.489601"
         id="circle223"
         r="2.882"
         cy="55.624001"
         cx="513.57898"
         fill="#33b3ac" />
      <path
         style="stroke-width:0.489601"
         id="path225"
         d="m 505.334,38.828 c 4.969,4.635 11.469,6.089 17.936,5.76 0.299,1.619 0.578,3.047 0.254,4.931 -0.387,2.244 -0.997,2.855 -3.325,2.753 -3.893,-0.17 -7.741,-1.412 -11.251,-3.02 -1.884,-0.863 -5.227,-2.284 -6.475,-3.98 -1.523,-2.07 -0.194,-5.576 2.861,-6.444 z"
         fill="#33b3ac" />
      <g
         style="stroke-width:0.699715"
         id="g231">
        <g
           style="stroke-width:0.699715"
           id="g229">
          <path
             style="stroke-width:0.489601"
             id="path227"
             d="m 529.885,55.687 c 0.319,5.917 4.528,10.126 10.445,10.445 5.904,0.318 10.152,-5.008 10.445,-10.445 0.318,-5.904 -5.008,-10.152 -10.445,-10.445 -5.904,-0.318 -10.152,5.008 -10.445,10.445 -0.052,0.967 1.448,0.962 1.5,0 0.621,-11.527 17.269,-11.527 17.89,0 0.272,5.059 -4.283,8.694 -8.945,8.945 -5.059,0.272 -8.694,-4.283 -8.945,-8.945 -0.052,-0.962 -1.552,-0.967 -1.5,0 z"
             fill="#33b3ac" />
        </g>
      </g>
      <circle
         style="stroke-width:0.489601"
         id="circle233"
         r="2.882"
         cy="55.785"
         cx="540.13397"
         fill="#33b3ac" />
      <path
         style="stroke-width:0.489601"
         id="path235"
         d="m 547.482,38.933 c -4.903,4.705 -11.49,6.347 -17.962,6.109 -0.102,1.853 -0.427,2.959 -0.076,4.838 0.419,2.239 1.037,2.841 3.363,2.706 3.89,-0.225 7.72,-1.522 11.207,-3.179 1.872,-0.89 5.194,-2.358 6.418,-4.071 1.496,-2.092 0.117,-5.579 -2.95,-6.403 z"
         fill="#33b3ac" />
      <g
         style="stroke-width:0.699715"
         id="g241">
        <g
           style="stroke-width:0.699715"
           id="g239">
          <path
             style="stroke-width:0.489601"
             id="path237"
             d="m 525.592,35.984 c 0.36,3.213 -0.01,6.36 0.147,9.563 0.013,0.266 0.353,0.294 0.445,0.06 1.189,-3.04 0.82,-6.599 0.145,-9.723 -0.088,-0.408 -0.784,-0.322 -0.737,0.1 z"
             fill="#33b3ac" />
        </g>
      </g>
      <g
         style="stroke-width:0.699715"
         id="g247">
        <g
           style="stroke-width:0.699715"
           id="g245">
          <path
             style="stroke-width:0.489601"
             id="path243"
             d="m 520.808,84.492 c 1.429,-0.4 2.606,-1.175 4.128,-1.366 1.681,-0.211 2.765,0.678 4.279,1.03 1.057,0.246 1.947,-0.658 1.709,-1.709 -0.489,-2.162 -3.715,-2.404 -5.496,-2.261 -2.033,0.163 -4.84,1.396 -5.331,3.595 -0.095,0.422 0.27,0.835 0.711,0.711 z"
             fill="#33b3ac" />
        </g>
      </g>
    </g>
  </g>
</svg>
