<?xml version="1.0" encoding="UTF-8" standalone="no"?>
<svg
   xmlns:dc="http://purl.org/dc/elements/1.1/"
   xmlns:cc="http://creativecommons.org/ns#"
   xmlns:rdf="http://www.w3.org/1999/02/22-rdf-syntax-ns#"
   xmlns:svg="http://www.w3.org/2000/svg"
   xmlns="http://www.w3.org/2000/svg"
   xmlns:xlink="http://www.w3.org/1999/xlink"
   xmlns:sodipodi="http://sodipodi.sourceforge.net/DTD/sodipodi-0.dtd"
   xmlns:inkscape="http://www.inkscape.org/namespaces/inkscape"
   sodipodi:docname="5.svg"
   inkscape:version="1.0 (4035a4fb49, 2020-05-01)"
   inkscape:export-ydpi="300"
   inkscape:export-xdpi="300"
   inkscape:export-filename="C:\Users\Aleksandr\Desktop\0.png"
   id="svg2110"
   version="1.1"
   viewBox="0 0 52.916665 52.916668"
   height="200"
   width="200">
  <defs
     id="defs2104">
    <clipPath
       id="SVGID_2_">
      <use
         height="100%"
         width="100%"
         y="0"
         x="0"
         xlink:href="#SVGID_1_"
         overflow="visible"
         id="use178" />
    </clipPath>
    <path
       id="SVGID_1_"
       d="m 360.561,95.257 c -2.727,-0.62 -2.637,-3.507 -1.674,-5.951 1.209,-3.068 7.283,-10.259 12.242,-12.986 4.959,-2.727 11.594,-1.675 14.257,0.868 3.44,3.285 8.926,11.53 9.174,14.877 0.248,3.347 -1.116,4.835 -4.215,3.595 -3.099,-1.24 -8.558,-3.704 -13.513,-3.471 -7.903,0.372 -13.543,3.688 -16.271,3.068 z" />
    <clipPath
       id="SVGID_4_">
      <use
         height="100%"
         width="100%"
         y="0"
         x="0"
         xlink:href="#SVGID_3_"
         overflow="visible"
         id="use288" />
    </clipPath>
    <path
       id="SVGID_3_"
       d="m 656.189,70.621 c 0,0 7.393,10.103 20.33,10.35 12.937,0.246 22.178,-12.937 22.178,-12.937 0,0 1.971,28.585 -19.837,29.447 -21.808,0.862 -22.455,-17.373 -22.578,-19.467 -0.124,-2.095 -0.093,-7.393 -0.093,-7.393 z" />
  </defs>
  <sodipodi:namedview
     inkscape:window-maximized="1"
     inkscape:window-y="-8"
     inkscape:window-x="-8"
     inkscape:window-height="1017"
     inkscape:window-width="1920"
     units="px"
     showgrid="false"
     inkscape:document-rotation="0"
     inkscape:current-layer="layer4"
     inkscape:document-units="mm"
     inkscape:cy="84.362407"
     inkscape:cx="135.4498"
     inkscape:zoom="2.5893301"
     inkscape:pageshadow="2"
     inkscape:pageopacity="0.0"
     borderopacity="1.0"
     bordercolor="#666666"
     pagecolor="#ffffff"
     id="base" />
  <metadata
     id="metadata2107">
    <rdf:RDF>
      <cc:Work
         rdf:about="">
        <dc:format>image/svg+xml</dc:format>
        <dc:type
           rdf:resource="http://purl.org/dc/dcmitype/StillImage" />
        <dc:title></dc:title>
      </cc:Work>
    </rdf:RDF>
  </metadata>
  <g
     id="layer1"
     inkscape:groupmode="layer"
     inkscape:label="Layer 1">
    <rect
       y="0"
       x="-0.10218216"
       height="53.339085"
       width="53.339088"
       id="rect2728"
       style="fill:#3db6b0;stroke:none;stroke-width:1.05833;stroke-linecap:round;stroke-linejoin:round" />
  </g>
  <g
     inkscape:label="Layer 2"
     id="layer4"
     inkscape:groupmode="layer">
    <g
       style="stroke-width:0.695133"
       transform="matrix(0.38062276,0,0,0.38062276,-288.53417,-3.3610246)"
       id="g373">
      <g
         style="stroke-width:0.695133"
         id="g371">
        <g
           style="stroke-width:0.695133"
           id="g369">
          <path
             style="stroke-width:0.483209"
             fill="#ffffff"
             d="m 822.707,12.931 c 0,0 -24.399,2.728 -28.402,20.499 -3.581,15.899 -1.729,25.438 -1.729,25.438 0,0 -5.927,-3.705 -10.126,0.988 -4.199,4.693 -1.976,12.842 2.717,14.077 4.692,1.235 8.891,0 8.891,0 0,0 0,17.288 7.162,24.944 7.162,7.656 16.67,9.261 16.67,9.261 0,0 3.087,8.767 -10.249,14.201 -13.336,5.434 -21.239,5.68 -24.697,14.571 -3.458,8.891 -2.964,12.349 -2.964,12.349 L 868.644,150 c 0,0 0.741,-13.336 -5.927,-18.523 -6.668,-5.186 -21.98,-6.915 -25.191,-12.102 -3.211,-5.187 -3.087,-11.237 -3.087,-11.237 0,0 14.448,0.494 20.869,-12.349 6.421,-12.842 6.421,-21.363 6.421,-21.363 0,0 6.584,2.735 10.249,-3.087 2.099,-3.334 4.816,-11.237 -3.581,-13.46 -2.201,-0.583 -6.668,1.482 -6.668,1.482 0,0 1.235,-21.425 -2.655,-29.575 -3.068,-6.429 -7.409,-12.225 -17.597,-15.374 -8.985,-2.776 -18.77,-1.481 -18.77,-1.481 z"
             id="path309" />
          <g
             style="stroke-width:0.695133"
             id="g313">
            <path
               style="stroke-width:0.483209"
               fill="#33b3ac"
               d="m 820.886,67.552 c -0.821,1.609 -1.932,4.038 0.19,5.115 2.297,1.165 7.11,0.134 9.479,-0.316 1.804,-0.343 5.004,-0.966 5.998,-2.704 0.864,-1.51 -0.572,-3.797 -2.24,-3.895 -0.353,-0.021 -0.535,0.289 -0.438,0.603 0.476,1.535 1.035,2.393 -0.657,3.409 -1.159,0.696 -2.689,0.985 -3.994,1.257 -1.541,0.322 -3.15,0.614 -4.721,0.725 -1.455,0.102 -3.155,0.385 -3.527,-1.648 -0.124,-0.676 0.318,-1.749 0.38,-2.43 0.025,-0.288 -0.348,-0.354 -0.47,-0.116 z"
               id="path311" />
          </g>
          <g
             style="stroke-width:0.695133"
             id="g323">
            <g
               style="stroke-width:0.695133"
               id="g319">
              <g
                 style="stroke-width:0.695133"
                 id="g317">
                <path
                   style="stroke-width:0.483209"
                   fill="#33b3ac"
                   d="m 821.89,54.762 c -0.582,10.809 -16.194,10.809 -16.776,0 -0.255,-4.744 4.016,-8.152 8.388,-8.388 4.744,-0.255 8.153,4.016 8.388,8.388 0.052,0.962 1.552,0.967 1.5,0 -0.302,-5.601 -4.287,-9.586 -9.888,-9.888 -5.589,-0.301 -9.611,4.741 -9.888,9.888 -0.301,5.589 4.741,9.611 9.888,9.888 5.589,0.301 9.611,-4.741 9.888,-9.888 0.052,-0.967 -1.448,-0.962 -1.5,0 z"
                   id="path315" />
              </g>
            </g>
            <circle
               style="stroke-width:0.483209"
               fill="#33b3ac"
               cx="817.979"
               cy="55.022999"
               r="2.099"
               id="circle321" />
          </g>
          <g
             style="stroke-width:0.695133"
             id="g333">
            <circle
               style="stroke-width:0.483209"
               fill="#33b3ac"
               cx="843.26202"
               cy="54.837002"
               r="2.099"
               id="circle325" />
            <g
               style="stroke-width:0.695133"
               id="g331">
              <g
                 style="stroke-width:0.695133"
                 id="g329">
                <path
                   style="stroke-width:0.483209"
                   fill="#33b3ac"
                   d="m 847.606,54.762 c -0.582,10.809 -16.194,10.809 -16.776,0 -0.255,-4.744 4.016,-8.152 8.388,-8.388 4.744,-0.255 8.153,4.016 8.388,8.388 0.052,0.962 1.552,0.967 1.5,0 -0.302,-5.601 -4.287,-9.586 -9.888,-9.888 -5.589,-0.301 -9.611,4.741 -9.888,9.888 -0.301,5.589 4.741,9.611 9.888,9.888 5.589,0.301 9.611,-4.741 9.888,-9.888 0.052,-0.967 -1.448,-0.962 -1.5,0 z"
                   id="path327" />
              </g>
            </g>
          </g>
          <g
             style="stroke-width:0.695133"
             id="g339">
            <g
               style="stroke-width:0.695133"
               id="g337">
              <path
                 style="stroke-width:0.483209"
                 fill="#33b3ac"
                 d="m 829.683,83.019 c -3.251,-3.485 -8.425,-6.171 -12.52,-8.513 -0.919,-0.525 -2.898,-1.855 -4.034,-1.189 -2.761,1.617 -0.693,6.563 0.595,8.439 0.335,0.487 1.205,0.352 1.179,-0.319 -0.045,-1.174 -0.31,-2.074 -0.68,-3.201 -0.558,-1.698 -1.027,-3.632 1.077,-2.646 1.703,0.798 3.308,1.831 4.902,2.821 2.656,1.649 5.917,4.757 9.094,5.275 0.382,0.061 0.676,-0.357 0.387,-0.667 z"
                 id="path335" />
            </g>
          </g>
          <g
             style="stroke-width:0.695133"
             id="g345">
            <g
               style="stroke-width:0.695133"
               id="g343">
              <path
                 style="stroke-width:0.483209"
                 fill="#33b3ac"
                 d="m 825.61,47.126 c 1.353,-1.86 1.352,-5.67 0.548,-7.744 -0.099,-0.256 -0.569,-0.35 -0.618,0 -0.177,1.281 -0.104,2.58 -0.153,3.871 -0.049,1.274 -0.442,2.543 -0.248,3.811 0.038,0.247 0.357,0.219 0.471,0.062 z"
                 id="path341" />
            </g>
          </g>
          <path
             style="stroke-width:0.483209"
             fill="#33b3ac"
             d="m 831.24,41.006 c -0.141,1.074 0.277,4.324 0.277,4.324 0,0 0.106,1.141 1.658,1.988 1.979,1.08 5.691,2.599 9.915,2.666 4.56,0.072 7.317,-0.47 8.511,-0.781 0.768,-0.2 0.757,-0.911 0.757,-0.911 l 0.208,-2.483 c 0,0 -0.146,-0.455 -0.475,-0.452 -1.827,0.019 -8.112,-0.014 -11.95,-1.236 -3.206,-1.021 -6.371,-2.732 -7.946,-3.645 -0.649,-0.376 -0.919,0.259 -0.955,0.53 z"
             id="path347" />
          <path
             style="stroke-width:0.483209"
             fill="#33b3ac"
             d="m 818.858,34.358 0.581,5.045 c 0,0 -0.109,1.269 -0.52,1.793 -1.418,1.81 -5.126,6.047 -9.995,7.856 -3.61,1.341 -5.835,1.84 -7.075,2.023 -0.917,0.135 -1.195,-0.177 -1.286,-0.511 -0.162,-0.592 -0.027,-1.844 0.036,-2.455 0.044,-0.427 0.264,-1.369 0.697,-1.57 1.585,-0.732 5.633,-2.684 8.933,-4.972 2.958,-2.052 5.968,-5.327 7.49,-7.085 0.638,-0.739 1.139,-0.124 1.139,-0.124 z"
             id="path349" />
          <g
             style="stroke-width:0.695133"
             id="g355">
            <g
               style="stroke-width:0.695133"
               id="g353">
              <path
                 style="stroke-width:0.483209"
                 fill="#33b3ac"
                 d="m 820.854,27.468 c 1.565,-0.531 3.034,-1.133 4.709,-1.227 1.563,-0.088 2.759,0.634 4.204,0.978 0.155,0.037 0.301,-0.13 0.212,-0.275 -0.685,-1.121 -2.21,-1.315 -3.419,-1.465 -2.034,-0.254 -4.155,0.537 -5.953,1.405 -0.327,0.156 -0.095,0.7 0.247,0.584 z"
                 id="path351" />
            </g>
          </g>
          <g
             style="stroke-width:0.695133"
             id="g361">
            <g
               style="stroke-width:0.695133"
               id="g359">
              <path
                 style="stroke-width:0.483209"
                 fill="#33b3ac"
                 d="m 822.69,21.766 c 2.543,-0.603 4.861,-0.494 7.039,1.048 0.108,0.077 0.253,-0.049 0.218,-0.168 -0.288,-0.964 -1.376,-1.328 -2.241,-1.626 -1.656,-0.569 -3.517,-0.144 -5.094,0.459 -0.177,0.068 -0.112,0.332 0.078,0.287 z"
                 id="path357" />
            </g>
          </g>
          <g
             style="stroke-width:0.695133"
             id="g367">
            <g
               style="stroke-width:0.695133"
               id="g365">
              <path
                 style="stroke-width:0.483209"
                 fill="#33b3ac"
                 d="m 814.331,81.629 c -3.731,3.605 -5.199,9.176 -5.005,14.234 0.188,4.895 3.777,7.466 8.158,8.668 0.163,0.045 0.275,-0.201 0.117,-0.278 -1.209,-0.594 -2.428,-1.16 -3.627,-1.773 -3.479,-1.781 -4.131,-5.807 -3.976,-9.342 0.188,-4.282 2.388,-7.828 4.48,-11.394 0.055,-0.094 -0.07,-0.189 -0.147,-0.115 z"
                 id="path363" />
            </g>
          </g>
        </g>
      </g>
    </g>
  </g>
</svg>
