<?xml version="1.0" encoding="UTF-8" standalone="no"?>
<svg
   xmlns:dc="http://purl.org/dc/elements/1.1/"
   xmlns:cc="http://creativecommons.org/ns#"
   xmlns:rdf="http://www.w3.org/1999/02/22-rdf-syntax-ns#"
   xmlns:svg="http://www.w3.org/2000/svg"
   xmlns="http://www.w3.org/2000/svg"
   xmlns:xlink="http://www.w3.org/1999/xlink"
   xmlns:sodipodi="http://sodipodi.sourceforge.net/DTD/sodipodi-0.dtd"
   xmlns:inkscape="http://www.inkscape.org/namespaces/inkscape"
   sodipodi:docname="7.svg"
   inkscape:version="1.0 (4035a4fb49, 2020-05-01)"
   inkscape:export-ydpi="300"
   inkscape:export-xdpi="300"
   inkscape:export-filename="C:\Users\Aleksandr\Desktop\0.png"
   id="svg2110"
   version="1.1"
   viewBox="0 0 52.916665 52.916668"
   height="200"
   width="200">
  <defs
     id="defs2104">
    <clipPath
       id="SVGID_2_">
      <use
         height="100%"
         width="100%"
         y="0"
         x="0"
         xlink:href="#SVGID_1_"
         overflow="visible"
         id="use178" />
    </clipPath>
    <path
       id="SVGID_1_"
       d="m 360.561,95.257 c -2.727,-0.62 -2.637,-3.507 -1.674,-5.951 1.209,-3.068 7.283,-10.259 12.242,-12.986 4.959,-2.727 11.594,-1.675 14.257,0.868 3.44,3.285 8.926,11.53 9.174,14.877 0.248,3.347 -1.116,4.835 -4.215,3.595 -3.099,-1.24 -8.558,-3.704 -13.513,-3.471 -7.903,0.372 -13.543,3.688 -16.271,3.068 z" />
    <clipPath
       id="SVGID_4_">
      <use
         height="100%"
         width="100%"
         y="0"
         x="0"
         xlink:href="#SVGID_3_"
         overflow="visible"
         id="use288" />
    </clipPath>
    <path
       id="SVGID_3_"
       d="m 656.189,70.621 c 0,0 7.393,10.103 20.33,10.35 12.937,0.246 22.178,-12.937 22.178,-12.937 0,0 1.971,28.585 -19.837,29.447 -21.808,0.862 -22.455,-17.373 -22.578,-19.467 -0.124,-2.095 -0.093,-7.393 -0.093,-7.393 z" />
    <clipPath
       id="SVGID_6_">
      <use
         height="100%"
         width="100%"
         y="0"
         x="0"
         xlink:href="#SVGID_5_"
         overflow="visible"
         id="use408" />
    </clipPath>
    <path
       id="SVGID_5_"
       d="m 978.569,76.182 c -5.474,-1.746 -7.619,7.889 -7.217,10.515 0.546,3.567 3.711,6.426 7.312,7.261 1.928,0.447 3.185,0.307 4.443,-1.266 1.342,-1.677 1.478,-4.339 1.351,-6.375 -0.536,-8.555 -3.667,-9.427 -5.889,-10.135 z" />
  </defs>
  <sodipodi:namedview
     inkscape:window-maximized="1"
     inkscape:window-y="-8"
     inkscape:window-x="-8"
     inkscape:window-height="1017"
     inkscape:window-width="1920"
     units="px"
     showgrid="false"
     inkscape:document-rotation="0"
     inkscape:current-layer="layer4"
     inkscape:document-units="mm"
     inkscape:cy="84.362407"
     inkscape:cx="135.4498"
     inkscape:zoom="2.5893301"
     inkscape:pageshadow="2"
     inkscape:pageopacity="0.0"
     borderopacity="1.0"
     bordercolor="#666666"
     pagecolor="#ffffff"
     id="base" />
  <metadata
     id="metadata2107">
    <rdf:RDF>
      <cc:Work
         rdf:about="">
        <dc:format>image/svg+xml</dc:format>
        <dc:type
           rdf:resource="http://purl.org/dc/dcmitype/StillImage" />
        <dc:title></dc:title>
      </cc:Work>
    </rdf:RDF>
  </metadata>
  <g
     id="layer1"
     inkscape:groupmode="layer"
     inkscape:label="Layer 1">
    <rect
       y="0"
       x="-0.10218216"
       height="53.339085"
       width="53.339088"
       id="rect2728"
       style="fill:#3db6b0;stroke:none;stroke-width:1.05833;stroke-linecap:round;stroke-linejoin:round" />
  </g>
  <g
     inkscape:label="Layer 2"
     id="layer4"
     inkscape:groupmode="layer">
    <g
       style="stroke-width:0.694719"
       transform="matrix(0.38084924,0,0,0.38084924,-403.32628,-3.1011346)"
       id="g569">
      <g
         style="stroke-width:0.694719"
         id="g567">
        <g
           style="stroke-width:0.694719"
           id="g565">
          <path
             style="stroke-width:0.482635"
             fill="#ffffff"
             d="m 1122.623,11.321 c 0,0 -24.508,2.74 -28.528,20.59 -3.597,15.97 -1.737,25.551 -1.737,25.551 0,0 -5.954,-3.721 -10.171,0.992 -4.217,4.713 -1.984,12.9 2.729,14.14 4.713,1.24 8.931,0 8.931,0 0,0 0,17.365 7.194,25.055 7.194,7.69 16.745,9.303 16.745,9.303 0,0 3.101,8.807 -10.295,14.264 -13.396,5.458 -21.334,5.706 -24.807,14.636 -3.473,8.93 -2.977,12.404 -2.977,12.404 l 89.057,0.744 c 0,0 0.744,-13.396 -5.954,-18.605 -6.698,-5.209 -22.078,-6.946 -25.303,-12.155 -3.225,-5.209 -3.101,-11.287 -3.101,-11.287 0,0 14.512,0.496 20.962,-12.404 6.45,-12.9 6.45,-21.458 6.45,-21.458 0,0 6.613,2.747 10.295,-3.101 2.109,-3.349 4.837,-11.287 -3.597,-13.52 -2.211,-0.585 -6.698,1.488 -6.698,1.488 0,0 1.24,-21.52 -2.667,-29.706 -3.082,-6.458 -7.442,-12.279 -17.675,-15.442 -9.025,-2.79 -18.853,-1.489 -18.853,-1.489 z"
             id="path449" />
          <g
             style="stroke-width:0.694719"
             id="g563">
            <g
               style="stroke-width:0.694719"
               id="g459">
              <g
                 style="stroke-width:0.694719"
                 id="g455">
                <g
                   style="stroke-width:0.694719"
                   id="g453">
                  <path
                     style="stroke-width:0.482635"
                     fill="#37b4ad"
                     d="m 1122.787,57.551 c -0.512,9.321 -16.345,9.321 -16.857,0 -0.554,-10.095 16.31,-10.061 16.857,0 0.052,0.962 1.553,0.967 1.5,0 -0.653,-12.018 -19.204,-12.018 -19.857,0 -0.611,11.244 19.242,11.216 19.857,0 0.053,-0.967 -1.447,-0.961 -1.5,0 z"
                     id="path451" />
                </g>
              </g>
              <circle
                 style="stroke-width:0.482635"
                 fill="#37b4ad"
                 cx="1111.689"
                 cy="54.733002"
                 r="2.7290001"
                 id="circle457" />
            </g>
            <g
               style="stroke-width:0.694719"
               id="g469">
              <g
                 style="stroke-width:0.694719"
                 id="g465">
                <g
                   style="stroke-width:0.694719"
                   id="g463">
                  <path
                     style="stroke-width:0.482635"
                     fill="#37b4ad"
                     d="m 1148.645,57.559 c -0.512,9.321 -16.346,9.321 -16.857,0 -0.554,-10.095 16.31,-10.061 16.857,0 0.052,0.962 1.552,0.967 1.5,0 -0.653,-12.018 -19.204,-12.018 -19.857,0 -0.611,11.244 19.242,11.216 19.857,0 0.053,-0.967 -1.447,-0.962 -1.5,0 z"
                     id="path461" />
                </g>
              </g>
              <circle
                 style="stroke-width:0.482635"
                 fill="#37b4ad"
                 cx="1137.395"
                 cy="54.768002"
                 r="2.7290001"
                 id="circle467" />
            </g>
            <path
               style="stroke-width:0.482635"
               fill="#37b4ad"
               d="m 1121.472,37.187 -0.025,6.75 c 0,0 -5.732,-0.644 -12.11,1.536 -5.748,1.965 -9.005,4.375 -9.005,4.375 0,0 1.236,-6.688 7.455,-9.827 6.22,-3.139 13.685,-2.834 13.685,-2.834 z"
               id="path471" />
            <path
               style="stroke-width:0.482635"
               fill="#37b4ad"
               d="m 1133.604,37.616 -0.138,6.498 c 0,0 5.307,-1.013 11.675,1.585 5.878,2.398 8.219,5.817 8.219,5.817 0,0 1.319,-4.924 -3.821,-9.334 -6.602,-5.663 -15.935,-4.566 -15.935,-4.566 z"
               id="path473" />
            <g
               style="stroke-width:0.694719"
               id="g477">
              <path
                 style="stroke-width:0.482635"
                 fill="#37b4ad"
                 d="m 1120.45,67.278 c -1.067,1.468 -2.551,3.703 -0.614,5.104 2.096,1.516 7.033,1.248 9.454,1.173 1.844,-0.057 5.116,-0.174 6.375,-1.741 1.094,-1.362 0.028,-3.857 -1.611,-4.216 -0.347,-0.076 -0.577,0.203 -0.529,0.529 0.232,1.598 0.651,2.537 -1.187,3.279 -1.259,0.508 -2.823,0.555 -4.16,0.621 -1.579,0.077 -3.222,0.115 -4.798,-0.022 -1.459,-0.127 -3.191,-0.113 -3.241,-2.189 -0.017,-0.69 0.59,-1.686 0.758,-2.351 0.07,-0.28 -0.289,-0.404 -0.447,-0.187 z"
                 id="path475" />
            </g>
            <g
               style="stroke-width:0.694719"
               id="g483">
              <g
                 style="stroke-width:0.694719"
                 id="g481">
                <path
                   style="stroke-width:0.482635"
                   fill="#37b4ad"
                   d="m 1112.795,71.504 c -1.05,3.957 -6.266,3.616 -9.179,5.417 -1.604,0.992 -3.29,3.813 -2.105,5.595 0.141,0.212 0.505,0.263 0.634,0 0.703,-1.44 0.582,-2.827 1.79,-4.09 1.268,-1.325 3.506,-1.704 5.177,-2.286 2.187,-0.762 3.853,-2.203 4.022,-4.59 0.013,-0.197 -0.29,-0.23 -0.339,-0.046 z"
                   id="path479" />
              </g>
            </g>
            <g
               style="stroke-width:0.694719"
               id="g489">
              <g
                 style="stroke-width:0.694719"
                 id="g487">
                <path
                   style="stroke-width:0.482635"
                   fill="#37b4ad"
                   d="m 1142.128,71.358 c -0.503,1.991 0.691,4.118 2.696,4.72 1.819,0.546 3.558,0.787 5.233,1.764 1.43,0.834 2.366,2.271 2.577,3.904 0.054,0.416 0.274,0.608 0.545,0.93 0.11,0.131 0.341,0.12 0.453,0 1.616,-1.722 -0.66,-4.501 -2.077,-5.62 -2.995,-2.366 -8.285,-0.852 -8.889,-5.625 -0.037,-0.286 -0.456,-0.396 -0.538,-0.073 z"
                   id="path485" />
              </g>
            </g>
            <g
               style="stroke-width:0.694719"
               id="g495">
              <g
                 style="stroke-width:0.694719"
                 id="g493">
                <path
                   style="stroke-width:0.482635"
                   fill="#37b4ad"
                   d="m 1106.49,76.643 c 11.421,5.991 28.11,6.841 39.18,-0.298 0.852,-0.549 0.096,-1.863 -0.797,-1.363 -12.626,7.081 -24.929,4.04 -38.257,1.36 -0.174,-0.034 -0.299,0.211 -0.126,0.301 z"
                   id="path491" />
              </g>
            </g>
            <g
               style="stroke-width:0.694719"
               id="g501">
              <g
                 style="stroke-width:0.694719"
                 id="g499">
                <path
                   style="stroke-width:0.482635"
                   fill="#37b4ad"
                   d="m 1105.021,76.781 c 0.286,11.182 12.014,17.528 22.015,17.567 9.696,0.038 21.325,-6.937 23.606,-16.837 0.166,-0.72 -0.789,-1.129 -1.185,-0.5 -2.276,3.613 -4.083,7.009 -7.348,9.905 -3.704,3.286 -8.614,4.948 -13.448,5.542 -10.793,1.326 -20.819,-5.154 -23.149,-15.743 -0.061,-0.278 -0.499,-0.214 -0.491,0.066 z"
                   id="path497" />
              </g>
            </g>
            <g
               style="stroke-width:0.694719"
               id="g507">
              <g
                 style="stroke-width:0.694719"
                 id="g505">
                <path
                   style="stroke-width:0.482635"
                   fill="#37b4ad"
                   d="m 1105.249,76.606 c 8.926,13.145 35.327,15.555 44.112,0.684 0.305,-0.516 -0.344,-1.282 -0.876,-0.876 -2.542,1.937 -4.654,4.239 -7.446,5.881 -3.742,2.202 -8.279,2.841 -12.519,3.214 -8.816,0.775 -16.829,-3.059 -22.926,-9.168 -0.174,-0.172 -0.488,0.056 -0.345,0.265 z"
                   id="path503" />
              </g>
            </g>
            <g
               style="stroke-width:0.694719"
               id="g513">
              <g
                 style="stroke-width:0.694719"
                 id="g511">
                <path
                   style="stroke-width:0.482635"
                   fill="#37b4ad"
                   d="m 1126.86,80.539 c -0.296,1.942 -0.308,3.891 -0.354,5.853 -0.051,2.22 -0.416,4.645 0.125,6.81 0.044,0.176 0.297,0.167 0.347,0 0.547,-1.863 0.351,-3.913 0.386,-5.844 0.041,-2.256 0.159,-4.515 -0.09,-6.763 -0.024,-0.216 -0.376,-0.31 -0.414,-0.056 z"
                   id="path509" />
              </g>
            </g>
            <g
               style="stroke-width:0.694719"
               id="g519">
              <g
                 style="stroke-width:0.694719"
                 id="g517">
                <path
                   style="stroke-width:0.482635"
                   fill="#37b4ad"
                   d="m 1109.065,77.264 c -0.524,1.303 -0.253,3.049 -0.247,4.435 0.01,1.365 -0.208,3.306 0.523,4.506 0.11,0.181 0.382,0.144 0.443,-0.058 0.395,-1.306 -0.056,-3.085 -0.129,-4.448 -0.074,-1.398 0.183,-3.129 -0.348,-4.435 -0.049,-0.118 -0.194,-0.119 -0.242,0 z"
                   id="path515" />
              </g>
            </g>
            <g
               style="stroke-width:0.694719"
               id="g525">
              <g
                 style="stroke-width:0.694719"
                 id="g523">
                <path
                   style="stroke-width:0.482635"
                   fill="#37b4ad"
                   d="m 1114.286,79.372 c -0.583,0.849 -0.141,3.073 -0.152,4.052 -0.025,2.259 -0.15,4.552 0.042,6.805 0.048,0.569 0.855,0.578 0.891,0 0.137,-2.26 0.105,-4.541 0.09,-6.805 -0.01,-0.874 0.401,-3.478 -0.417,-4.11 -0.154,-0.119 -0.34,-0.109 -0.454,0.058 z"
                   id="path521" />
              </g>
            </g>
            <g
               style="stroke-width:0.694719"
               id="g531">
              <g
                 style="stroke-width:0.694719"
                 id="g529">
                <path
                   style="stroke-width:0.482635"
                   fill="#37b4ad"
                   d="m 1120.233,80.3 c -0.267,4.044 -0.216,8.086 -0.073,12.134 0.023,0.653 1.039,0.655 1.016,0 -0.143,-4.044 -0.163,-8.09 -0.287,-12.134 -0.013,-0.426 -0.629,-0.419 -0.656,0 z"
                   id="path527" />
              </g>
            </g>
            <g
               style="stroke-width:0.694719"
               id="g537">
              <g
                 style="stroke-width:0.694719"
                 id="g535">
                <path
                   style="stroke-width:0.482635"
                   fill="#37b4ad"
                   d="m 1133.564,80.39 c -0.842,3.73 -0.566,7.863 -0.73,11.676 -0.031,0.715 1.084,0.714 1.109,0 0.136,-3.803 0.688,-7.909 0.073,-11.676 -0.037,-0.232 -0.403,-0.217 -0.452,0 z"
                   id="path533" />
              </g>
            </g>
            <g
               style="stroke-width:0.694719"
               id="g543">
              <g
                 style="stroke-width:0.694719"
                 id="g541">
                <path
                   style="stroke-width:0.482635"
                   fill="#37b4ad"
                   d="m 1139.145,78.853 c -0.412,1.815 -0.361,3.709 -0.393,5.562 -0.031,1.76 -0.446,3.874 0.155,5.544 0.062,0.171 0.335,0.257 0.428,0.056 0.676,-1.457 0.46,-3.214 0.506,-4.797 0.061,-2.109 0.232,-4.277 -0.123,-6.365 -0.05,-0.292 -0.51,-0.275 -0.573,0 z"
                   id="path539" />
              </g>
            </g>
            <g
               style="stroke-width:0.694719"
               id="g549">
              <g
                 style="stroke-width:0.694719"
                 id="g547">
                <path
                   style="stroke-width:0.482635"
                   fill="#37b4ad"
                   d="m 1144.581,75.974 c -0.849,2.893 -0.478,6.37 -0.554,9.365 -0.02,0.768 1.156,0.762 1.188,0 0.121,-2.986 0.471,-6.435 -0.182,-9.365 -0.052,-0.234 -0.389,-0.214 -0.452,0 z"
                   id="path545" />
              </g>
            </g>
            <g
               style="stroke-width:0.694719"
               id="g555">
              <g
                 style="stroke-width:0.694719"
                 id="g553">
                <path
                   style="stroke-width:0.482635"
                   fill="#37b4ad"
                   d="m 1120.888,29.278 c 4.378,-1.329 8.43,-1.152 12.913,-1.132 0.171,10e-4 0.197,-0.242 0.039,-0.292 -4.195,-1.314 -9.024,-0.41 -13.048,1.077 -0.213,0.079 -0.129,0.415 0.096,0.347 z"
                   id="path551" />
              </g>
            </g>
            <g
               style="stroke-width:0.694719"
               id="g561">
              <g
                 style="stroke-width:0.694719"
                 id="g559">
                <path
                   style="stroke-width:0.482635"
                   fill="#37b4ad"
                   d="m 1123.894,25.41 c 2.111,-0.771 4.183,-0.664 6.364,-0.308 0.165,0.027 0.287,-0.195 0.12,-0.286 -2.115,-1.151 -4.557,-0.86 -6.665,0.166 -0.237,0.116 -0.068,0.52 0.181,0.428 z"
                   id="path557" />
              </g>
            </g>
          </g>
        </g>
      </g>
    </g>
  </g>
</svg>
