<?xml version="1.0" encoding="UTF-8" standalone="no"?>
<svg
   xmlns:dc="http://purl.org/dc/elements/1.1/"
   xmlns:cc="http://creativecommons.org/ns#"
   xmlns:rdf="http://www.w3.org/1999/02/22-rdf-syntax-ns#"
   xmlns:svg="http://www.w3.org/2000/svg"
   xmlns="http://www.w3.org/2000/svg"
   xmlns:xlink="http://www.w3.org/1999/xlink"
   xmlns:sodipodi="http://sodipodi.sourceforge.net/DTD/sodipodi-0.dtd"
   xmlns:inkscape="http://www.inkscape.org/namespaces/inkscape"
   sodipodi:docname="4.svg"
   inkscape:version="1.0 (4035a4fb49, 2020-05-01)"
   inkscape:export-ydpi="300"
   inkscape:export-xdpi="300"
   inkscape:export-filename="C:\Users\Aleksandr\Desktop\0.png"
   id="svg2110"
   version="1.1"
   viewBox="0 0 52.916665 52.916668"
   height="200"
   width="200">
  <defs
     id="defs2104">
    <clipPath
       id="SVGID_2_">
      <use
         height="100%"
         width="100%"
         y="0"
         x="0"
         xlink:href="#SVGID_1_"
         overflow="visible"
         id="use178" />
    </clipPath>
    <path
       id="SVGID_1_"
       d="m 360.561,95.257 c -2.727,-0.62 -2.637,-3.507 -1.674,-5.951 1.209,-3.068 7.283,-10.259 12.242,-12.986 4.959,-2.727 11.594,-1.675 14.257,0.868 3.44,3.285 8.926,11.53 9.174,14.877 0.248,3.347 -1.116,4.835 -4.215,3.595 -3.099,-1.24 -8.558,-3.704 -13.513,-3.471 -7.903,0.372 -13.543,3.688 -16.271,3.068 z" />
    <clipPath
       id="SVGID_4_">
      <use
         height="100%"
         width="100%"
         y="0"
         x="0"
         xlink:href="#SVGID_3_"
         overflow="visible"
         id="use288" />
    </clipPath>
    <path
       id="SVGID_3_"
       d="m 656.189,70.621 c 0,0 7.393,10.103 20.33,10.35 12.937,0.246 22.178,-12.937 22.178,-12.937 0,0 1.971,28.585 -19.837,29.447 -21.808,0.862 -22.455,-17.373 -22.578,-19.467 -0.124,-2.095 -0.093,-7.393 -0.093,-7.393 z" />
  </defs>
  <sodipodi:namedview
     inkscape:window-maximized="1"
     inkscape:window-y="-8"
     inkscape:window-x="-8"
     inkscape:window-height="1017"
     inkscape:window-width="1920"
     units="px"
     showgrid="false"
     inkscape:document-rotation="0"
     inkscape:current-layer="layer4"
     inkscape:document-units="mm"
     inkscape:cy="84.362407"
     inkscape:cx="135.4498"
     inkscape:zoom="2.5893301"
     inkscape:pageshadow="2"
     inkscape:pageopacity="0.0"
     borderopacity="1.0"
     bordercolor="#666666"
     pagecolor="#ffffff"
     id="base" />
  <metadata
     id="metadata2107">
    <rdf:RDF>
      <cc:Work
         rdf:about="">
        <dc:format>image/svg+xml</dc:format>
        <dc:type
           rdf:resource="http://purl.org/dc/dcmitype/StillImage" />
        <dc:title></dc:title>
      </cc:Work>
    </rdf:RDF>
  </metadata>
  <g
     id="layer1"
     inkscape:groupmode="layer"
     inkscape:label="Layer 1">
    <rect
       y="0"
       x="-0.10218216"
       height="53.339085"
       width="53.339088"
       id="rect2728"
       style="fill:#3db6b0;stroke:none;stroke-width:1.05833;stroke-linecap:round;stroke-linejoin:round" />
  </g>
  <g
     inkscape:label="Layer 2"
     id="layer4"
     inkscape:groupmode="layer">
    <g
       style="stroke-width:0.69195"
       transform="matrix(0.38237315,0,0,0.38237315,-232.63053,-3.3839257)"
       id="g307">
      <g
         style="stroke-width:0.69195"
         id="g305">
        <g
           style="stroke-width:0.69195"
           id="g303">
          <path
             style="stroke-width:0.482559"
             fill="#ffffff"
             d="m 673.333,12.237 c 0,0 -24.345,2.722 -28.338,20.453 -3.573,15.863 -1.725,25.381 -1.725,25.381 0,0 -5.914,-3.696 -10.103,0.986 -4.189,4.682 -1.971,12.814 2.711,14.046 4.682,1.232 8.871,0 8.871,0 0,0 0,17.249 7.146,24.888 7.146,7.639 16.633,9.241 16.633,9.241 0,0 3.08,8.748 -10.226,14.169 -13.307,5.421 -21.192,5.668 -24.642,14.539 -3.45,8.871 -2.957,12.321 -2.957,12.321 L 719.168,149 c 0,0 0.739,-13.307 -5.914,-18.482 -6.653,-5.175 -21.931,-6.9 -25.135,-12.075 -3.203,-5.175 -3.08,-11.212 -3.08,-11.212 0,0 14.416,0.493 20.823,-12.321 6.407,-12.814 6.407,-21.315 6.407,-21.315 0,0 6.569,2.729 10.226,-3.08 2.095,-3.327 4.805,-11.212 -3.573,-13.43 -2.196,-0.581 -6.653,1.479 -6.653,1.479 0,0 1.232,-21.377 -2.649,-29.509 -3.062,-6.415 -7.393,-12.198 -17.557,-15.34 -8.967,-2.771 -18.73,-1.478 -18.73,-1.478 z"
             id="path249" />
          <path
             style="stroke-width:0.482559"
             fill="#37b4ad"
             d="m 669.407,30.828 1.807,6.457 c 0,0 -5.652,0.939 -11.155,4.753 -4.96,3.437 -7.418,6.623 -7.418,6.623 0,0 -0.633,-6.726 4.459,-11.413 5.092,-4.687 12.307,-6.42 12.307,-6.42 z"
             id="path251" />
          <path
             style="stroke-width:0.482559"
             fill="#37b4ad"
             d="m 688.101,31.317 -1.725,7.023 c 0,0 3.489,0.826 9.364,4.312 5.423,3.218 8.378,6.53 8.378,6.53 0,0 0.091,-4.401 -4.312,-9.487 -5.656,-6.533 -11.705,-8.378 -11.705,-8.378 z"
             id="path253" />
          <g
             style="stroke-width:0.69195"
             id="g257">
            <path
               style="stroke-width:0.482559"
               fill="#37b4ad"
               d="m 670.497,64.249 c -1.06,1.458 -2.534,3.679 -0.61,5.07 2.082,1.506 6.986,1.24 9.391,1.166 1.832,-0.057 5.082,-0.173 6.332,-1.73 1.087,-1.353 0.028,-3.831 -1.6,-4.188 -0.344,-0.075 -0.573,0.201 -0.526,0.526 0.23,1.587 0.647,2.52 -1.179,3.257 -1.25,0.505 -2.804,0.552 -4.133,0.617 -1.569,0.077 -3.2,0.115 -4.766,-0.022 -1.45,-0.126 -3.169,-0.112 -3.22,-2.174 -0.017,-0.685 0.586,-1.674 0.753,-2.335 0.072,-0.28 -0.285,-0.403 -0.442,-0.187 z"
               id="path255" />
          </g>
          <g
             style="stroke-width:0.69195"
             id="g263">
            <g
               style="stroke-width:0.69195"
               id="g261">
              <path
                 style="stroke-width:0.482559"
                 fill="#33b3ac"
                 d="m 667.4,86.217 c 2.759,3.815 12.556,5.962 16.069,2.409 0.243,-0.246 0.073,-0.705 -0.287,-0.694 -2.408,0.075 -4.628,0.696 -7.089,0.53 -3.019,-0.203 -5.793,-0.946 -8.33,-2.609 -0.215,-0.141 -0.52,0.147 -0.363,0.364 z"
                 id="path259" />
            </g>
          </g>
          <g
             style="stroke-width:0.69195"
             id="g271">
            <path
               style="stroke-width:0.482559"
               fill="#37b4ad"
               d="m 656.189,70.621 c 0,0 7.393,10.103 20.33,10.35 12.937,0.246 22.178,-12.937 22.178,-12.937 0,0 1.971,28.585 -19.837,29.447 -21.808,0.862 -22.455,-17.373 -22.578,-19.467 -0.124,-2.095 -0.093,-7.393 -0.093,-7.393 z"
               id="path265" />
            <g
               style="stroke-width:0.69195"
               id="g269">
              <path
                 style="stroke-width:0.482559"
                 fill="#37b4ad"
                 d="m 654.894,71.378 c 5.321,7.104 14.202,11.221 22.997,11.069 8.769,-0.152 17.201,-6.784 22.101,-13.656 -0.932,-0.252 -1.863,-0.505 -2.795,-0.757 0.714,11.127 -3.089,24.872 -15.317,27.61 -8.833,1.978 -18.482,-1.512 -22.359,-9.857 -2.175,-4.682 -1.855,-10.16 -1.831,-15.166 0.009,-1.935 -2.991,-1.934 -3,0 -0.028,6.064 -0.053,11.744 2.548,17.34 4.078,8.776 13.832,11.519 22.81,10.944 15.268,-0.978 20.994,-17.72 20.15,-30.871 -0.099,-1.543 -1.925,-1.977 -2.795,-0.757 -4.095,5.743 -10.371,10.343 -17.257,11.897 -8.162,1.843 -18.125,-3.256 -22.66,-9.31 -1.147,-1.529 -3.753,-0.036 -2.592,1.514 z"
                 id="path267" />
            </g>
          </g>
          <g
             style="stroke-width:0.69195"
             id="g277">
            <g
               style="stroke-width:0.69195"
               id="g275">
              <path
                 style="stroke-width:0.482559"
                 fill="#37b4ad"
                 d="m 657.006,53.939 c 1.986,-1.623 3.732,-2.731 6.415,-2.238 2.08,0.382 3.606,2.113 4.331,3.991 0.206,0.533 0.696,1.101 1.346,1.025 0.265,-0.031 0.462,-0.081 0.705,-0.191 0.517,-0.233 0.855,-1.048 0.642,-1.576 -1.145,-2.832 -3.378,-4.871 -6.407,-5.484 -2.924,-0.592 -6.727,0.952 -8.038,3.697 -0.322,0.674 0.439,1.24 1.006,0.776 z"
                 id="path273" />
            </g>
          </g>
          <g
             style="stroke-width:0.69195"
             id="g283">
            <g
               style="stroke-width:0.69195"
               id="g281">
              <path
                 style="stroke-width:0.482559"
                 fill="#37b4ad"
                 d="m 686.492,57.33 c 1.329,-1.997 2.404,-3.87 4.795,-4.718 2.584,-0.917 4.722,-0.363 6.58,1.536 1.151,1.177 3.281,-0.385 2.315,-1.787 -4.417,-6.412 -13.479,-2.068 -14.947,4.439 -0.174,0.773 0.824,1.181 1.257,0.53 z"
                 id="path279" />
            </g>
          </g>
          <g
             style="stroke-width:0.69195"
             id="g301">
            <defs
               id="defs286">
              <path
                 id="path3209"
                 d="m 656.189,70.621 c 0,0 7.393,10.103 20.33,10.35 12.937,0.246 22.178,-12.937 22.178,-12.937 0,0 1.971,28.585 -19.837,29.447 -21.808,0.862 -22.455,-17.373 -22.578,-19.467 -0.124,-2.095 -0.093,-7.393 -0.093,-7.393 z" />
            </defs>
            <clipPath
               id="clipPath3140">
              <use
                 height="100%"
                 width="100%"
                 y="0"
                 x="0"
                 xlink:href="#SVGID_3_"
                 overflow="visible"
                 id="use3138" />
            </clipPath>
            <g
               style="stroke-width:0.69195"
               clip-path="url(#SVGID_4_)"
               id="g299">
              <path
                 style="stroke-width:0.482559"
                 fill="#ffffff"
                 d="m 659.947,72.623 c 0,1.956 -0.888,4.94 0.327,6.514 1.13,1.464 4.037,3.468 6.033,3.175 0.511,-1.309 1.476,-3.668 1.121,-5.11 -0.35,-1.425 -4.786,-5.984 -7.481,-4.579 z"
                 id="path291" />
              <path
                 style="stroke-width:0.482559"
                 fill="#ffffff"
                 d="m 675.964,79.677 c 0,1.059 0.466,3.571 -0.323,4.347 -0.838,0.824 -3.462,0.152 -4.464,-0.029 -0.877,-0.158 -1.749,-0.272 -2.571,-0.668 -0.969,-0.466 -0.775,-0.788 -0.61,-1.801 0.18,-1.106 0.329,-3.451 1.028,-3.789 0.99,-0.479 3.301,0.637 4.354,0.942 0.663,0.191 1.743,0.465 2.586,0.998 z"
                 id="path293" />
              <path
                 style="stroke-width:0.482559"
                 fill="#ffffff"
                 d="m 693.038,72.716 c 0,1.956 0.888,4.94 -0.327,6.514 -1.13,1.464 -4.037,3.468 -6.033,3.175 -0.51,-1.309 -1.476,-3.668 -1.121,-5.11 0.35,-1.426 4.786,-5.984 7.481,-4.579 z"
                 id="path295" />
              <path
                 style="stroke-width:0.482559"
                 fill="#ffffff"
                 d="m 677.02,79.708 c 0,1.059 -0.466,3.571 0.323,4.347 0.838,0.824 3.462,0.152 4.464,-0.029 0.877,-0.158 1.749,-0.272 2.571,-0.668 0.969,-0.466 0.869,-1.25 0.704,-2.264 -0.18,-1.106 0.065,-2.966 -1.122,-3.326 -1.052,-0.32 -3.301,0.637 -4.354,0.942 -0.663,0.191 -1.742,0.465 -2.586,0.998 z"
                 id="path297" />
            </g>
          </g>
        </g>
      </g>
    </g>
  </g>
</svg>
