<svg xmlns="http://www.w3.org/2000/svg" width="291" height="259" viewBox="0 0 291 259" version="1.1">
	<path d="M 88.836 4.498 C 88.562 4.771, 81.849 6.352, 73.919 8.011 C 56.161 11.724, 47.147 16.017, 34.566 26.753 C 24.736 35.141, 19.505 42.412, 15.470 53.297 C 12.598 61.046, 10.596 65.613, 9.025 68 C 6.106 72.438, 2 82.792, 2 85.717 C 2 93.130, 10.379 102.997, 18.455 105.092 C 20.680 105.669, 25.200 106.979, 28.500 108.002 C 36.041 110.340, 41.416 111.055, 54.630 111.480 C 63.943 111.779, 65.567 112.109, 69.051 114.415 C 75.051 118.386, 79.817 123.417, 80.607 126.615 C 80.999 128.202, 82.125 131.075, 83.109 133 C 85.539 137.755, 89 145.977, 89 146.996 C 89 147.453, 86.001 148.795, 82.336 149.979 C 71.845 153.369, 66.652 156.459, 59.602 163.509 C 51.950 171.161, 48.942 175.948, 45.402 186.106 C 43.203 192.416, 42.819 195.259, 42.780 205.500 C 42.734 217.445, 42.752 217.537, 46.617 225.467 C 49.019 230.395, 52.748 235.842, 56.395 239.749 C 71.708 256.155, 97.694 259.323, 115.127 246.910 L 118.166 244.746 121.156 248.373 C 122.906 250.496, 125.048 252.006, 126.323 252.015 C 127.520 252.023, 132.100 253.148, 136.500 254.515 C 147.226 257.846, 154.868 257.841, 159.785 254.500 C 161.809 253.125, 164.228 252, 165.161 252 C 166.094 252, 168.495 250.456, 170.497 248.568 C 174.019 245.246, 174.127 244.933, 173.863 238.818 C 173.714 235.343, 174.032 231.725, 174.570 230.777 C 175.448 229.232, 175.835 229.202, 178.304 230.483 C 187.103 235.048, 208.284 237.833, 210.758 234.750 C 211.310 234.063, 212.305 228.100, 212.970 221.500 C 213.964 211.633, 217.475 197.191, 219.332 195.335 C 219.518 195.148, 222.333 196.298, 225.586 197.890 C 234.302 202.155, 241.080 203.460, 254.112 203.382 C 263.896 203.323, 266.431 202.970, 270.212 201.139 C 276.324 198.181, 281.523 192.735, 284.603 186.068 C 286.017 183.005, 287.585 179.719, 288.087 178.764 C 289.333 176.394, 289.259 163, 288 163 C 287.450 163, 287 162.157, 287 161.127 C 287 154.653, 274.863 135.898, 262.224 122.841 C 250.968 111.212, 244.488 107.477, 228 103.114 C 218.558 100.615, 214.308 100.037, 204.250 99.882 C 197.512 99.778, 192 99.485, 192 99.231 C 192 98.976, 193.578 96.619, 195.506 93.992 C 202.110 84.995, 204.136 75.822, 202.009 64.549 C 199.874 53.234, 188.785 37.621, 175.235 26.853 C 166.372 19.810, 162 17.504, 148 12.486 C 127.672 5.200, 121.532 4, 104.595 4 C 96.201 4, 89.109 4.224, 88.836 4.498 M 162.500 109.576 C 150.141 112.057, 144.289 113, 141.249 113 C 139.527 113, 137.848 113.437, 137.518 113.971 C 136.765 115.189, 141.252 130.033, 145.123 139.130 C 146.730 142.906, 150.068 151.699, 152.541 158.671 C 156.813 170.714, 156.987 171.620, 156.019 176.856 C 155.458 179.887, 155 184.703, 155 187.558 C 155 190.413, 154.394 194.493, 153.652 196.624 C 150.424 205.910, 150.233 205.371, 158.516 210.350 L 166.029 214.865 167.396 211.596 C 168.147 209.797, 169.092 207.240, 169.495 205.913 C 170.193 203.614, 177.019 190.991, 183.128 180.702 L 185.977 175.905 183.475 173.702 C 174.003 165.362, 168.245 158.756, 166.999 154.800 C 166.254 152.435, 165.029 149.767, 164.277 148.871 C 161.953 146.103, 157.999 133.924, 158.022 129.603 C 158.050 124.280, 161.178 117.457, 165.740 112.768 C 167.736 110.716, 169.174 108.887, 168.935 108.704 C 168.696 108.521, 165.800 108.913, 162.500 109.576" fill="none" stroke="#000" stroke-width="2px" fill-rule="evenodd"/>
</svg>
