<svg xmlns="http://www.w3.org/2000/svg" width="283" height="198" viewBox="0 0 283 198" version="1.1">
	<path d="M 208.094 4.548 C 204.571 5.313, 199.621 6.964, 197.094 8.219 L 192.500 10.500 191.872 17.520 C 191.228 24.722, 187.532 41.055, 185.803 44.338 C 185.105 45.664, 184.162 46.007, 182.418 45.569 C 180.534 45.096, 180 45.358, 180 46.756 C 180 48.196, 178.300 48.922, 171.377 50.440 C 161.549 52.595, 150.642 57.500, 147.076 61.370 C 145.742 62.816, 144.145 64, 143.526 64 C 142.907 64, 141.440 60.738, 140.266 56.750 C 136.258 43.136, 132.447 36.479, 124.986 30.057 C 116.767 22.983, 106.063 17.605, 96 15.494 C 87.091 13.625, 67.318 13.645, 65 15.526 C 64.175 16.195, 61.025 17.538, 58 18.510 C 44.011 23.003, 33.701 30.183, 20.315 44.754 C 8.922 57.156, 5.481 63.269, 3.512 74.610 C 0.846 89.961, 4.086 104.496, 12.364 114.321 C 15.496 118.038, 18.927 120.469, 26.500 124.338 C 35.877 129.129, 36.998 129.457, 44.500 129.612 C 48.900 129.703, 53.487 129.828, 54.694 129.889 C 58.246 130.069, 61.974 134.082, 66.905 143.035 C 70.748 150.014, 72.075 151.590, 74.752 152.358 C 78.960 153.565, 85.320 151.186, 91.999 145.906 C 97.859 141.274, 99.872 141.081, 104.051 144.750 C 113.546 153.086, 114.175 153.998, 113.452 158.389 C 113.081 160.650, 112.152 164.017, 111.388 165.872 C 110.625 167.727, 110 170.527, 110 172.095 C 110 173.663, 108.999 177.007, 107.775 179.525 C 105.129 184.972, 105.039 184.876, 116 188.338 C 128.658 192.336, 137.178 194.017, 144.745 194.008 L 151.990 194 154.065 189.586 C 155.206 187.158, 157.630 183.446, 159.452 181.336 L 162.764 177.500 174.632 176.958 C 182.781 176.585, 187.504 176.798, 189.703 177.637 C 192.592 178.739, 193.426 178.576, 198.203 175.978 C 208.552 170.351, 220.129 155.949, 223.429 144.595 L 224.918 139.474 230.709 138.135 C 244.509 134.946, 257.827 126.742, 268.038 115.142 C 273.076 109.419, 274.376 106.958, 277.572 97.091 C 279.281 91.814, 279.433 80.603, 277.878 74.429 C 276.709 69.789, 269.787 61.716, 264.912 59.309 C 258.964 56.371, 248.192 52.150, 245 51.505 C 241.120 50.722, 235.656 45.431, 233.537 40.406 C 231.382 35.295, 230.825 26.061, 232.304 19.942 C 233.325 15.719, 233.386 13.452, 232.559 10.503 C 231.595 7.069, 230.895 6.417, 226.485 4.852 C 220.558 2.749, 216.685 2.685, 208.094 4.548" fill="none" stroke="#000" stroke-width="2px" fill-rule="evenodd"/>
</svg>
