<svg xmlns="http://www.w3.org/2000/svg" width="282" height="168" viewBox="0 0 282 168" version="1.1">
	<path d="M 195.500 2.024 C 189.723 2.434, 184.233 3.393, 182.500 4.294 C 180.850 5.152, 176.575 6.420, 173 7.111 C 169.425 7.802, 165.483 9.267, 164.239 10.368 C 162.996 11.468, 160.462 13.298, 158.609 14.434 C 155.473 16.356, 153.074 18.063, 142.402 25.966 C 140.148 27.634, 138.019 29, 137.671 29 C 137.322 29, 137.143 26.638, 137.271 23.750 C 137.483 18.987, 137.736 18.468, 140.002 18.154 C 144.768 17.494, 146.972 13.328, 143.092 12.314 C 142.043 12.040, 140.960 10.957, 140.686 9.908 C 140.314 8.485, 139.289 8, 136.653 8 C 134.709 8, 132.871 7.600, 132.568 7.110 C 130.965 4.516, 116.245 3.993, 105.642 6.154 C 93.261 8.676, 87.732 11.732, 76.169 22.440 C 66.523 31.372, 65.804 31.830, 58.803 33.497 C 54.787 34.453, 50.375 35.968, 49 36.864 C 47.625 37.760, 45.220 39.053, 43.655 39.738 C 42.090 40.423, 36.655 43.880, 31.577 47.420 C 15.251 58.803, 5.725 74.063, 2.328 94.274 C 0.796 103.393, 0.799 104.465, 2.373 110.274 C 3.300 113.698, 4.694 117.850, 5.470 119.500 C 6.246 121.150, 8.665 126.374, 10.845 131.110 C 15.128 140.409, 18.507 143.559, 25.402 144.678 C 28.351 145.156, 29.258 144.812, 31.299 142.439 L 33.711 139.635 37.525 141.445 C 41.209 143.193, 41.386 143.193, 42.670 141.437 C 43.402 140.436, 44 138.580, 44 137.312 C 44 136.043, 45.575 133.262, 47.500 131.132 C 49.425 129.001, 51 126.995, 51 126.674 C 51 124.863, 56.753 120.863, 62.074 118.974 C 69.272 116.418, 75.256 116.779, 86.500 120.447 C 95.885 123.508, 100.226 124.713, 108.307 126.496 C 120.369 129.157, 130.574 134.847, 141.627 145.074 C 152.565 155.194, 160.416 161.362, 163.675 162.397 C 164.854 162.771, 166.365 163.735, 167.032 164.539 C 168.879 166.765, 169.752 166.327, 171.144 162.478 C 171.844 160.541, 173.486 158.256, 174.792 157.400 C 176.098 156.545, 177.811 154.417, 178.598 152.672 C 179.386 150.927, 180.586 148.686, 181.265 147.691 C 182.286 146.196, 182.197 145.658, 180.750 144.581 C 178.484 142.896, 178.542 141.725, 181 139.500 C 182.100 138.505, 183 137.085, 183 136.345 C 183 133.295, 185.818 135.218, 186.475 138.716 C 187.420 143.756, 190.272 147.489, 195.530 150.571 C 199.542 152.921, 200.661 153.108, 208.215 152.685 C 218.876 152.088, 223.310 151.439, 225.787 150.114 C 228.865 148.467, 233.042 143.039, 233.678 139.860 C 234.079 137.856, 234.849 137, 236.253 137 C 238.065 137, 238.181 136.595, 237.476 132.750 C 237.047 130.412, 236.725 127.375, 236.760 126 C 236.796 124.625, 236.408 120.125, 235.897 116 C 234.542 105.048, 234.571 98.222, 235.978 96.527 C 236.659 95.706, 239.679 94.258, 242.689 93.309 C 246.829 92.004, 248.933 90.600, 251.331 87.542 C 258.063 78.956, 270.568 64.992, 273.135 63.193 C 274.161 62.475, 275 60.951, 275 59.808 C 275 58.665, 276.179 56.636, 277.621 55.300 C 279.946 53.146, 280.177 52.341, 279.667 48.186 C 278.395 37.823, 277.014 33.606, 273.991 30.844 C 272.346 29.342, 271 27.651, 271 27.087 C 271 25.567, 259.696 14.575, 254.352 10.898 C 250.754 8.423, 248.117 7.520, 242.606 6.878 C 238.698 6.422, 233.025 5.584, 230 5.015 C 226.975 4.446, 222.297 3.747, 219.605 3.463 C 216.913 3.178, 212.863 2.518, 210.605 1.997 C 208.347 1.476, 206.275 1.108, 206 1.181 C 205.725 1.254, 201 1.633, 195.500 2.024 M 158 86.149 C 158 87.729, 182.479 112, 184.072 112 C 184.809 112, 185.027 110.838, 184.683 108.750 C 183.848 103.682, 180.889 93.623, 179.861 92.357 C 179.105 91.426, 171.256 88.700, 159.750 85.371 C 158.729 85.076, 158 85.400, 158 86.149" fill="none" stroke="#000" stroke-width="2px" fill-rule="evenodd"/>
</svg>
