<svg xmlns="http://www.w3.org/2000/svg" width="195" height="290" viewBox="0 0 195 290" version="1.1">
	<path d="M 64.500 3.009 C 49.508 5.811, 43.944 7.938, 34.656 14.421 C 17.238 26.577, 8.078 36.814, 4.062 48.609 C 1.174 57.093, 1.665 60.548, 5.891 61.476 C 7.482 61.826, 10.745 63.346, 13.142 64.855 C 21.130 69.884, 28.458 72.256, 35.772 72.181 C 40.003 72.138, 44.912 72.883, 49 74.189 C 52.575 75.331, 56.095 76.429, 56.822 76.629 C 57.802 76.898, 57.995 78.355, 57.567 82.246 C 56.831 88.932, 55.650 108.263, 55.657 113.500 C 55.662 117.949, 58.897 156.869, 59.537 160.194 C 59.761 161.357, 60.212 165.726, 60.539 169.904 C 60.866 174.082, 61.805 181.695, 62.625 186.822 C 63.446 191.949, 64.513 204.099, 64.997 213.822 C 65.481 223.545, 66.354 233.975, 66.936 237 C 67.518 240.025, 68.222 244.075, 68.500 246 C 69.241 251.131, 72.559 255.918, 76.522 257.574 L 80 259.027 80.007 266.263 C 80.014 274.538, 80.916 276.388, 88.391 283.448 L 93.210 288 106.137 288 C 125.037 288, 127.467 286.500, 131.849 272.126 C 135.231 261.033, 141.767 234.783, 142.359 229.917 C 142.834 226.009, 149.011 206.138, 159.866 173.603 L 162.500 165.707 171.501 165.908 C 180.493 166.109, 180.505 166.106, 183.730 162.779 C 185.505 160.947, 188.192 156.535, 189.701 152.974 C 191.996 147.556, 192.448 145.032, 192.472 137.500 C 192.497 129.450, 192.186 127.890, 189.527 122.723 C 181.431 106.989, 161.416 94.993, 145.245 96.183 C 141.960 96.425, 137.037 97.738, 133.747 99.249 C 127.561 102.091, 117.738 110.671, 115.322 115.344 L 113.837 118.216 111.340 113.358 C 107.136 105.177, 103 91.292, 103 85.357 L 103 79.894 114.750 80.053 C 121.213 80.140, 129.200 79.716, 132.500 79.111 C 135.800 78.507, 144.222 78.009, 151.215 78.006 C 165.885 77.999, 165.831 78.034, 166.714 68.116 C 167.884 54.959, 163.137 42.973, 151.467 29.625 C 137.923 14.133, 125.737 7.022, 107.500 3.970 C 98.950 2.539, 70.428 1.901, 64.500 3.009 M 122 139.796 C 122 141.633, 123.186 144, 124.107 144 C 125.538 144, 125.137 141.359, 123.500 140 C 122.592 139.246, 122 139.166, 122 139.796" fill="none" stroke="#000" stroke-width="2px" fill-rule="evenodd"/>
</svg>
