<svg xmlns="http://www.w3.org/2000/svg" width="289" height="249" viewBox="0 0 289 249" version="1.1">
	<path d="M 83.571 3.324 C 81.876 4.564, 81.969 4.805, 85.008 7.074 C 86.795 8.408, 90.880 12.200, 94.087 15.500 L 99.918 21.500 94.106 22.890 L 88.295 24.280 82.957 20.060 C 72.723 11.971, 62.045 7.997, 50.568 8.006 C 41.236 8.013, 36.303 9.497, 32.297 13.503 C 28.298 17.502, 28.170 19.525, 31.687 23.195 C 33.494 25.081, 33.903 26.011, 32.937 26.035 C 28.644 26.139, 15.659 29.057, 11.705 30.806 C 6.464 33.124, 0.975 39.867, 1.045 43.900 C 1.094 46.673, 1.011 46.620, 19.709 55.958 C 24.224 58.213, 28.210 60.531, 28.568 61.110 C 28.927 61.691, 30.347 61.879, 31.739 61.529 C 33.855 60.998, 34.182 61.198, 33.770 62.772 C 33.390 64.223, 35.782 66.550, 44.358 73.073 C 56.322 82.173, 61 86.308, 61 87.784 C 61 88.299, 58.841 88.977, 56.203 89.290 C 49.727 90.057, 46.132 91.844, 44.425 95.145 C 42.337 99.183, 42.665 102.394, 45.749 108.105 C 48.702 113.572, 53.617 117.657, 63.500 122.860 C 66.800 124.597, 70.794 127.052, 72.375 128.314 C 75.157 130.537, 75.244 130.879, 75.097 139 C 75.013 143.614, 74.746 147.588, 74.503 147.831 C 74.260 148.073, 71.363 145.774, 68.065 142.721 C 61.656 136.787, 55.842 134.053, 45.164 131.952 C 30.256 129.019, 15 134.488, 15 142.765 C 15 148.211, 28.806 170.079, 38.753 180.390 C 46.439 188.356, 50.260 190.599, 61.270 193.603 L 71.500 196.395 75.163 202.111 C 79.620 209.066, 86.965 214.049, 95.500 215.908 C 98.800 216.626, 102.850 217.686, 104.500 218.262 C 108.150 219.537, 117.147 225.268, 118.996 227.496 C 119.736 228.386, 122.315 230.272, 124.728 231.686 C 127.554 233.343, 128.923 234.759, 128.574 235.667 C 128.277 236.442, 128.701 237.332, 129.517 237.645 C 130.333 237.958, 131 239.312, 131 240.655 C 131 243.602, 135.455 248, 138.440 248 C 139.622 248, 142.559 246.162, 144.968 243.917 C 148.270 240.837, 149.947 239.948, 151.788 240.300 C 154.664 240.850, 164.482 238.803, 175.013 235.459 C 179.146 234.147, 185.148 232.765, 188.351 232.389 C 191.726 231.992, 194.391 231.146, 194.685 230.377 C 195.494 228.269, 191.211 222.252, 186.149 218.388 C 183.592 216.435, 181.500 214.427, 181.500 213.925 C 181.500 212.729, 191.360 204.659, 195.632 202.359 L 198.968 200.563 202.734 204.152 C 204.805 206.127, 208.658 208.455, 211.295 209.326 C 215.840 210.827, 216.190 210.810, 217.993 209.007 C 220.492 206.508, 222.328 199.483, 221.702 194.816 C 220.997 189.561, 217.744 185.504, 212.508 183.350 C 207.539 181.307, 207.376 180.555, 211.276 177.643 C 213.718 175.820, 214.372 175.765, 219.627 176.941 C 225.155 178.178, 225.383 178.145, 227.142 175.858 C 228.139 174.561, 228.966 172.770, 228.978 171.878 C 229.024 168.511, 240.845 168.694, 248.497 172.181 C 251.663 173.623, 252.973 172.250, 252.963 167.500 C 252.944 159.150, 245.867 151.380, 232.444 144.974 C 227.491 142.609, 224.143 140.457, 224.642 139.958 C 225.123 139.477, 230.980 138.775, 237.658 138.397 L 249.799 137.711 259.183 142.368 C 270.862 148.165, 280.643 149.855, 284.580 146.758 C 289.104 143.200, 286.986 134.506, 279.010 123.890 C 275.068 118.644, 275.049 118.577, 276.949 116.548 C 282.083 111.066, 281.553 105.686, 275.313 99.935 C 266.038 91.385, 250.394 87.474, 237.464 90.472 C 230.627 92.058, 221.329 92.332, 217 91.075 C 214.793 90.435, 215.182 90.147, 220.315 88.628 C 223.513 87.681, 230.488 85.987, 235.815 84.864 C 247.082 82.489, 257.763 82.912, 267.301 86.110 C 270.491 87.180, 273.584 87.757, 274.174 87.392 C 275.678 86.463, 274.526 77.977, 272.174 72.660 C 264.721 55.811, 210.945 26.535, 176.378 20.507 C 156.978 17.124, 145.750 19.738, 145.750 27.638 C 145.750 29.700, 147.426 31.904, 152.809 36.921 C 159.149 42.830, 163.167 48, 161.419 48 C 159.785 48, 149.603 39.744, 140.387 30.945 C 128.689 19.778, 113.133 9.026, 102.743 4.926 C 94.834 1.806, 86.590 1.117, 83.571 3.324" fill="none" stroke="#000" stroke-width="2px" fill-rule="evenodd"/>
</svg>
