<svg xmlns="http://www.w3.org/2000/svg" width="281" height="167" viewBox="0 0 281 167" version="1.1">
	<path d="M 176.588 2.857 C 176.297 3.329, 173.908 3.975, 171.279 4.293 C 165.054 5.047, 160.982 7.170, 156.727 11.880 C 153.634 15.304, 152.110 19.615, 151.575 26.455 C 151.463 27.886, 145.820 28.727, 132.750 29.258 C 123.607 29.630, 121 29.451, 121 28.453 C 121 26.243, 112.600 19.655, 104.800 15.748 C 98.125 12.405, 96.518 12.005, 89.909 12.044 C 85.834 12.068, 80.475 12.555, 78 13.126 C 75.525 13.698, 70.475 14.660, 66.778 15.263 C 60.793 16.241, 59.842 16.167, 58.095 14.586 C 54.065 10.939, 42.051 8.491, 40.500 11 C 40.160 11.550, 39.170 12, 38.301 12 C 36.776 12, 33.127 13.544, 22.500 18.685 C 17.934 20.894, 9.123 29.870, 8.160 33.293 C 7.974 33.957, 7.186 35.918, 6.410 37.651 C 5.635 39.384, 5 41.692, 5 42.779 C 5 43.866, 4.275 46.491, 3.389 48.613 C 1.698 52.659, 1.950 60.148, 3.895 63.674 C 4.450 64.678, 5.651 67.188, 6.565 69.250 C 8.289 73.137, 7.911 75.010, 3.952 82.236 C 2.701 84.519, 2.731 89.716, 4 90.500 C 4.550 90.840, 5.003 92.554, 5.006 94.309 C 5.010 96.064, 5.685 98.789, 6.506 100.364 C 7.328 101.940, 8 103.849, 8 104.607 C 8 110.017, 14.093 116.814, 24.500 123.014 C 26.700 124.324, 30.525 127.053, 33 129.078 C 35.475 131.104, 38.515 133.282, 39.756 133.918 C 40.996 134.555, 48.893 135.432, 57.304 135.866 C 71.498 136.599, 72.978 136.863, 77.897 139.540 C 81.040 141.251, 84.346 144.096, 86.021 146.531 C 88.094 149.544, 89.977 150.976, 93.093 151.910 C 95.793 152.719, 99.448 155.194, 103.131 158.706 L 108.922 164.230 115.711 163.645 C 128.913 162.508, 135.547 161.280, 139.560 159.228 C 145.697 156.092, 154.983 154, 162.772 154 C 167.201 154, 171.172 153.372, 173.628 152.283 C 176.785 150.884, 180.049 150.611, 191.300 150.810 L 205.100 151.054 207.800 148.091 C 209.285 146.462, 211.800 143.504, 213.389 141.518 C 217.124 136.849, 220.444 135.201, 229.668 133.437 C 235.939 132.237, 237.942 131.341, 241.652 128.075 C 244.102 125.918, 248.091 123.333, 250.516 122.330 C 252.942 121.327, 255.475 119.480, 256.147 118.226 C 256.818 116.972, 258.355 115.698, 259.563 115.395 C 260.771 115.092, 263.271 113.284, 265.118 111.378 C 267.743 108.670, 268.177 107.727, 267.103 107.064 C 266.003 106.384, 265.956 105.566, 266.865 102.958 C 267.489 101.167, 268 98.219, 268 96.408 C 268 94.596, 268.907 91.577, 270.016 89.698 C 275.928 79.677, 279.413 62.764, 277.083 55.399 C 276.578 53.805, 275.879 51.202, 275.530 49.616 C 274.599 45.391, 255.656 27.265, 250.797 25.950 C 248.289 25.272, 244.726 22.595, 239.757 17.658 C 232.913 10.860, 231.850 10.195, 223.960 7.785 C 210.250 3.599, 178.191 0.263, 176.588 2.857" fill="none" stroke="#000" stroke-width="2px" fill-rule="evenodd"/>
</svg>
