<svg xmlns="http://www.w3.org/2000/svg" width="282" height="183" viewBox="0 0 282 183" version="1.1">
	<path d="M 194.500 3.415 C 166.837 8.810, 145.153 28.710, 138.069 55.201 C 135.324 65.466, 134.644 74.282, 135.923 83 C 136.529 87.125, 137.131 91.307, 137.262 92.294 C 137.456 93.759, 133.141 95.817, 113.676 103.544 C 100.572 108.745, 89.509 113, 89.092 113 C 88.674 113, 86.625 110.521, 84.539 107.491 C 80.241 101.251, 73.886 96.211, 65.445 92.346 C 57.719 88.809, 44.150 87.953, 35.440 90.452 C 6.387 98.791, -6.985 132.168, 8.288 158.228 C 12.075 164.691, 21.136 172.696, 28.741 176.299 C 35.177 179.347, 36.073 179.500, 47.500 179.500 C 58.547 179.500, 59.974 179.278, 65.468 176.705 C 82.964 168.513, 92.685 154.161, 93.378 135.500 L 93.638 128.500 118.554 118.681 C 143.121 108.999, 143.491 108.890, 144.985 110.900 C 145.818 112.021, 148.525 115.703, 151 119.082 C 159.421 130.580, 175.544 140.992, 190.528 144.609 C 199.643 146.809, 215.356 146.808, 224.500 144.606 C 250.202 138.417, 270.665 118.179, 277.691 92 C 279.824 84.051, 280.063 65.942, 278.139 58 C 276.253 50.213, 268.920 35.518, 263.547 28.758 C 255.010 18.017, 239.315 8, 225.568 4.517 C 216.853 2.310, 202.735 1.809, 194.500 3.415 M 40.929 105.338 C 21.183 110.790, 12.186 130.637, 21.242 148.770 C 27.793 161.888, 45.746 168.128, 59.599 162.102 C 79.057 153.638, 83.749 127.163, 68.312 112.934 C 60.498 105.731, 50.025 102.826, 40.929 105.338" fill="none" stroke="#000" stroke-width="2px" fill-rule="evenodd"/>
</svg>
