<svg xmlns="http://www.w3.org/2000/svg" width="297" height="195" viewBox="0 0 297 195" version="1.1">
	<path d="M 48.500 10.402 L 3.500 18.605 3.239 61.685 L 2.979 104.766 28.112 129.411 C 45.293 146.260, 53.759 153.904, 54.872 153.574 C 55.768 153.309, 76.522 149.212, 100.993 144.470 C 125.464 139.727, 145.561 135.769, 145.653 135.674 C 145.745 135.578, 145.954 115.276, 146.117 90.559 L 146.413 45.617 121.714 23.809 C 108.130 11.814, 96.225 2.045, 95.258 2.100 C 94.291 2.155, 73.250 5.891, 48.500 10.402 M 196 49.426 L 151.500 57.623 151.276 100.561 L 151.052 143.500 175.458 168.174 C 193.083 185.992, 200.369 192.732, 201.682 192.430 C 202.682 192.200, 223.075 188.151, 247 183.433 C 270.925 178.715, 290.782 174.550, 291.126 174.177 C 291.471 173.805, 292.442 153.549, 293.283 129.163 L 294.814 84.827 291.157 81.525 C 260.682 54.007, 245.254 41.072, 243 41.147 C 241.625 41.192, 220.475 44.918, 196 49.426" fill="none" stroke="#000" stroke-width="2px" fill-rule="evenodd"/>
</svg>
