<svg xmlns="http://www.w3.org/2000/svg" width="284" height="297" viewBox="0 0 284 297" version="1.1">
	<path d="M 104.362 4.981 C 81.090 11.083, 62.692 30.092, 57.126 53.787 C 55.351 61.341, 55.234 61.527, 51.407 62.808 C 45.739 64.705, 26.932 67.768, 16.500 68.493 C 4.784 69.306, 3 69.719, 3 71.615 C 3 76.008, 12.432 83.452, 25 88.978 C 32.286 92.181, 33.088 92.999, 28.950 93.006 C 23.059 93.015, 7 98.196, 7 100.087 C 7 101.429, 19.513 104.857, 30.500 106.526 C 36 107.361, 46.575 108.314, 54 108.644 L 67.500 109.244 71.692 113.273 C 77.910 119.250, 80.278 125.548, 79.848 134.966 C 79.373 145.382, 74.759 154.728, 64.699 165.653 C 51.791 179.672, 46.398 189.399, 43.439 204.004 C 39.052 225.657, 47.004 249.750, 63.522 264.847 C 85.263 284.716, 120.287 294.830, 163.500 293.718 C 184.828 293.169, 197.246 291.175, 214.475 285.531 C 253.942 272.603, 273.620 249.553, 280.525 208.167 C 284.102 186.723, 280.768 141.835, 274.720 130.020 C 271.734 124.188, 266.944 121.413, 261.596 122.416 C 258.541 122.989, 255.541 125.302, 246.443 134.098 C 231.582 148.465, 227.467 150.507, 213.500 150.444 C 205.215 150.406, 201.013 149.745, 189 146.588 C 172.951 142.371, 159.487 137.599, 156.648 135.121 C 155.629 134.232, 154.119 132.198, 153.293 130.600 C 151.972 128.045, 151.969 127.597, 153.267 126.871 C 158.682 123.840, 167.621 115.954, 171.596 110.702 C 200.842 72.049, 182.428 16.746, 136.391 4.972 C 126.564 2.459, 113.970 2.462, 104.362 4.981" fill="none" stroke="#000" stroke-width="2px" fill-rule="evenodd"/>
</svg>
