<svg xmlns="http://www.w3.org/2000/svg" width="211" height="286" viewBox="0 0 211 286" version="1.1">
	<path d="M 103.624 3.081 C 101.200 4.988, 93 20.170, 93 22.752 C 93 23.360, 90.412 24.369, 87.250 24.993 C 55.420 31.276, 37.772 49.585, 48.421 65.274 L 50.611 68.500 45.884 72.772 C 37.439 80.405, 34.778 90.437, 38.817 99.427 L 40.581 103.355 36.428 107.628 C 28.757 115.520, 26.206 125.014, 29.464 133.544 L 31.185 138.052 27.636 141.981 C 20.175 150.240, 17.501 159.744, 20.341 167.908 L 21.875 172.316 18.475 176.465 C 13.291 182.791, 11.047 188.578, 11.022 195.685 C 11.010 199.087, 11.456 203.070, 12.014 204.537 C 12.891 206.842, 12.620 207.669, 10.020 210.630 C 4.949 216.405, 2.726 221.850, 2.210 229.760 C 1.776 236.396, 2.008 237.575, 4.903 243.455 C 26.757 287.845, 139.556 298.345, 190.577 260.738 C 209.015 247.148, 213.450 230.290, 202.887 213.947 C 199.294 208.387, 198.995 207.452, 199.944 204.731 C 202.858 196.373, 200.454 185.149, 194.008 177.010 C 191.091 173.326, 191.050 173.126, 192.504 169.644 C 195.890 161.540, 193.609 151.110, 186.572 142.523 C 183.372 138.617, 183.286 138.302, 184.691 135.619 C 185.502 134.073, 186.410 130.430, 186.710 127.523 C 187.378 121.049, 184.214 113.281, 178.639 107.706 L 175.018 104.084 176.936 100.792 C 181.953 92.178, 180.432 83.741, 172.272 74.927 L 166.871 69.093 169.005 66.208 C 172.091 62.034, 173.121 56.372, 171.774 51 C 170.267 44.994, 161.777 36.478, 152.992 32.162 C 149.413 30.403, 141.660 27.770, 135.763 26.311 C 125.128 23.679, 125.033 23.630, 123.901 20.079 C 122.021 14.185, 116.821 5.005, 114.192 2.936 C 110.994 0.421, 106.935 0.476, 103.624 3.081" fill="none" stroke="#000" stroke-width="2px" fill-rule="evenodd"/>
</svg>
