<?xml version="1.0" encoding="UTF-8" standalone="no"?>
<svg
   xmlns:dc="http://purl.org/dc/elements/1.1/"
   xmlns:cc="http://creativecommons.org/ns#"
   xmlns:rdf="http://www.w3.org/1999/02/22-rdf-syntax-ns#"
   xmlns:svg="http://www.w3.org/2000/svg"
   xmlns="http://www.w3.org/2000/svg"
   xmlns:xlink="http://www.w3.org/1999/xlink"
   xmlns:sodipodi="http://sodipodi.sourceforge.net/DTD/sodipodi-0.dtd"
   xmlns:inkscape="http://www.inkscape.org/namespaces/inkscape"
   inkscape:version="1.0 (4035a4fb49, 2020-05-01)"
   sodipodi:docname="items.svg"
   xml:space="preserve"
   enable-background="new 0 0 800 400"
   viewBox="0 0 400.45999 400.45999"
   height="400.45999"
   width="400.45999"
   y="0px"
   x="0px"
   id="Слой_1"
   version="1.1"><metadata
   id="metadata747"><rdf:RDF><cc:Work
       rdf:about=""><dc:format>image/svg+xml</dc:format><dc:type
         rdf:resource="http://purl.org/dc/dcmitype/StillImage" /><dc:title></dc:title></cc:Work></rdf:RDF></metadata><defs
   id="defs745" /><sodipodi:namedview
   inkscape:current-layer="Слой_1"
   inkscape:window-maximized="1"
   inkscape:window-y="-8"
   inkscape:window-x="-8"
   inkscape:cy="200"
   inkscape:cx="-0.22900391"
   inkscape:zoom="1.4375"
   fit-margin-bottom="0"
   fit-margin-right="0"
   fit-margin-left="0"
   fit-margin-top="0"
   showgrid="false"
   id="namedview743"
   inkscape:window-height="1017"
   inkscape:window-width="1920"
   inkscape:pageshadow="2"
   inkscape:pageopacity="0"
   guidetolerance="10"
   gridtolerance="10"
   objecttolerance="10"
   borderopacity="1"
   bordercolor="#666666"
   pagecolor="#ffffff" />

<g
   transform="translate(-400.229)"
   id="Слой_1__x28_копия_x29_">
	<g
   id="g395">
		<g
   id="g375">
			<defs
   id="defs368">
				<rect
   y="0"
   height="400.45999"
   width="400.45999"
   x="400.229"
   id="SVGID_5_" />
			</defs>
			<clipPath
   id="SVGID_6_">
				<use
   height="100%"
   width="100%"
   y="0"
   x="0"
   id="use370"
   overflow="visible"
   xlink:href="#SVGID_5_" />
			</clipPath>
			<rect
   y="0"
   id="rect373"
   height="400.45999"
   width="400.45999"
   fill="#e1f0ef"
   clip-path="url(#SVGID_6_)"
   x="400.229" />
		</g>
		<g
   id="g393">
			<defs
   id="defs378">
				<rect
   y="0"
   height="400.45999"
   width="400.45999"
   x="400.229"
   id="SVGID_7_" />
			</defs>
			<clipPath
   id="SVGID_8_">
				<use
   height="100%"
   width="100%"
   y="0"
   x="0"
   id="use380"
   overflow="visible"
   xlink:href="#SVGID_7_" />
			</clipPath>
			<g
   id="g391"
   clip-path="url(#SVGID_8_)">
				<path
   id="path383"
   d="m 522.564,59.901 c 0,-6.393 -4.558,-11.72 -10.602,-12.913 0.052,-0.557 0.082,-1.119 0.082,-1.689 0,-9.922 -8.044,-17.966 -17.966,-17.966 -6.743,0 -12.615,3.717 -15.687,9.211 -2.066,-1.432 -4.572,-2.273 -7.276,-2.273 -6.678,0 -12.157,5.119 -12.736,11.646 -1.643,-0.669 -3.44,-1.041 -5.324,-1.041 -7.806,0 -14.133,6.328 -14.133,14.133 0,7.806 6.328,14.134 14.133,14.134 0.763,0 1.511,-0.062 2.24,-0.179 0.505,0.224 1.062,0.351 1.65,0.351 H 511.6 c 1.184,0 2.246,-0.507 2.991,-1.313 4.688,-2.015 7.973,-6.674 7.973,-12.101 z"
   fill="#ffffff" />
				<path
   id="path385"
   d="m 817.919,138.949 c 0,-6.481 -4.621,-11.88 -10.747,-13.09 0.053,-0.564 0.083,-1.135 0.083,-1.713 0,-10.058 -8.153,-18.212 -18.211,-18.212 -6.835,0 -12.788,3.767 -15.903,9.337 -2.095,-1.451 -4.635,-2.304 -7.375,-2.304 -6.769,0 -12.324,5.189 -12.91,11.805 -1.667,-0.679 -3.488,-1.055 -5.398,-1.055 -7.912,0 -14.327,6.414 -14.327,14.327 0,7.912 6.415,14.327 14.327,14.327 0.773,0 1.532,-0.063 2.272,-0.181 0.512,0.227 1.076,0.355 1.672,0.355 h 55.402 c 1.2,0 2.277,-0.514 3.032,-1.331 4.754,-2.041 8.083,-6.763 8.083,-12.265 z"
   fill="#ffffff" />
				<path
   id="path387"
   d="m 681.448,47.851 c 0,-6.565 4.682,-12.036 10.887,-13.261 -0.053,-0.572 -0.084,-1.15 -0.084,-1.735 0,-10.189 8.26,-18.45 18.45,-18.45 6.924,0 12.954,3.817 16.11,9.459 2.121,-1.471 4.695,-2.334 7.471,-2.334 6.858,0 12.484,5.256 13.079,11.959 1.688,-0.688 3.533,-1.069 5.468,-1.069 8.016,0 14.514,6.498 14.514,14.514 0,8.016 -6.498,14.514 -14.514,14.514 -0.784,0 -1.551,-0.064 -2.301,-0.183 -0.518,0.23 -1.091,0.36 -1.694,0.36 h -56.128 c -1.216,0 -2.306,-0.521 -3.071,-1.348 -4.813,-2.069 -8.187,-6.853 -8.187,-12.426 z"
   fill="#ffffff" />
				<path
   id="path389"
   d="m 382.999,169.365 c 0,-6.852 4.886,-12.561 11.363,-13.84 -0.055,-0.597 -0.087,-1.2 -0.087,-1.811 0,-10.635 8.622,-19.256 19.256,-19.256 7.227,0 13.52,3.984 16.814,9.872 2.214,-1.535 4.901,-2.436 7.798,-2.436 7.158,0 13.03,5.486 13.651,12.482 1.762,-0.718 3.688,-1.116 5.707,-1.116 8.366,0 15.148,6.782 15.148,15.148 0,8.366 -6.782,15.149 -15.148,15.149 -0.818,0 -1.619,-0.067 -2.402,-0.192 -0.541,0.24 -1.139,0.376 -1.768,0.376 H 394.75 c -1.269,0 -2.407,-0.543 -3.206,-1.407 -5.024,-2.159 -8.545,-7.152 -8.545,-12.969 z"
   fill="#ffffff" />
			</g>
		</g>
	</g>
	<g
   id="g739">
		<g
   id="g737">
			<g
   id="g697">
				<g
   id="g413">
					<g
   id="g403">
						<path
   id="path397"
   d="m 540.675,352.997 c 0,8.53 -6.915,15.445 -15.445,15.445 v 0 c -8.53,0 -15.445,-6.915 -15.445,-15.445 v -14.996 c 0,-8.529 6.915,-15.444 15.445,-15.444 v 0 c 8.53,0 15.445,6.915 15.445,15.444 z"
   fill="#996b5a" />
						<g
   id="g401">
							<path
   id="path399"
   d="m 539.675,352.997 c -0.139,6.339 -4.06,11.742 -10.079,13.775 -6.013,2.03 -12.656,-0.523 -16.265,-5.577 -2.428,-3.4 -2.546,-7.257 -2.546,-11.229 0,-3.663 0,-7.326 0,-10.989 0,-4.864 1.656,-9.073 5.421,-12.262 4.871,-4.127 12.044,-3.993 17.221,-0.611 7.868,5.138 6.248,15.39 6.248,23.443 0,1.149 0,2.299 0,3.45 0,1.29 2,1.29 2,0 0,-5.887 0.628,-12.131 -0.271,-17.965 -1.653,-10.722 -13.67,-16.051 -23.136,-11.928 -4.636,2.019 -7.902,6.45 -9.081,11.275 -0.728,2.981 -0.401,6.344 -0.401,9.385 0,3.07 0,6.141 0,9.211 0,4.95 2.252,9.543 6.006,12.724 4.861,4.118 11.679,4.688 17.401,2.196 5.851,-2.548 9.347,-8.677 9.483,-14.898 0.027,-1.291 -1.973,-1.288 -2.001,0 z"
   fill="#683820" />
						</g>
					</g>
					<g
   id="g411">
						<path
   id="path405"
   d="m 691.134,352.997 c 0,8.53 -6.916,15.445 -15.445,15.445 v 0 c -8.53,0 -15.445,-6.915 -15.445,-15.445 v -14.996 c 0,-8.529 6.916,-15.444 15.445,-15.444 v 0 c 8.53,0 15.445,6.915 15.445,15.444 z"
   fill="#996b5a" />
						<g
   id="g409">
							<path
   id="path407"
   d="m 690.134,352.997 c -0.139,6.339 -4.06,11.742 -10.079,13.775 -6.013,2.03 -12.656,-0.523 -16.265,-5.577 -2.428,-3.4 -2.547,-7.257 -2.547,-11.229 0,-3.663 0,-7.326 0,-10.989 0,-4.864 1.656,-9.073 5.421,-12.262 4.871,-4.127 12.044,-3.993 17.222,-0.611 7.868,5.138 6.248,15.39 6.248,23.443 0,1.149 0,2.299 0,3.45 0,1.29 2,1.29 2,0 0,-5.887 0.628,-12.131 -0.272,-17.965 -1.653,-10.722 -13.671,-16.051 -23.136,-11.928 -4.636,2.019 -7.902,6.45 -9.082,11.275 -0.729,2.981 -0.402,6.344 -0.402,9.385 0,3.07 0,6.141 0,9.211 0,4.95 2.253,9.543 6.007,12.724 4.861,4.118 11.679,4.688 17.401,2.196 5.851,-2.548 9.347,-8.677 9.483,-14.898 0.029,-1.291 -1.971,-1.288 -1.999,0 z"
   fill="#683820" />
						</g>
					</g>
				</g>
				<g
   id="g431">
					<g
   id="g421">
						<path
   id="path415"
   d="m 724.78,309.625 v -37.904 c 0,-12.793 -8.232,-23.656 -19.685,-27.602 0.002,-0.012 0.003,-0.035 0.003,-0.064 10.263,-2.774 9.815,-10.026 9.815,-10.026 v 0 c 2,1.707 4.595,2.738 7.431,2.738 h 4.43 c 6.331,0 11.463,-5.131 11.463,-11.462 0,-6.33 -5.131,-11.462 -11.463,-11.462 h -4.43 c -6.331,0 -11.463,5.132 -11.463,11.462 0,0.467 0.031,0.926 0.085,1.378 0.305,9.273 -6.092,10.084 -6.092,10.084 l -9.151,-78.333 c 0,-16.124 -13.071,-29.195 -29.194,-29.195 H 534.391 c -16.124,0 -29.195,13.071 -29.195,29.195 l -9.151,78.333 c 0,0 -6.397,-0.811 -6.092,-10.084 0.054,-0.452 0.086,-0.911 0.086,-1.378 0,-6.33 -5.132,-11.462 -11.462,-11.462 h -4.431 c -6.331,0 -11.463,5.132 -11.463,11.462 0,6.331 5.132,11.462 11.463,11.462 h 4.431 c 2.836,0 5.43,-1.032 7.431,-2.738 v 0 c 0,0 -0.449,7.252 9.813,10.026 10e-4,0.028 10e-4,0.052 0.004,0.064 -11.453,3.946 -19.684,14.809 -19.684,27.602 v 37.904 c 0,3.81 0.737,7.444 2.064,10.781 h 244.511 c 1.326,-3.337 2.064,-6.971 2.064,-10.781 z"
   fill="#83cac8" />
						<g
   id="g419">
							<path
   id="path417"
   d="m 725.78,309.625 c 0,-10.598 0,-21.195 0,-31.793 0,-5.284 0.123,-10.405 -1.501,-15.531 -2.851,-8.999 -10.123,-15.996 -18.919,-19.145 0.245,0.321 0.489,0.643 0.734,0.964 10e-4,-0.021 0.002,-0.042 0.003,-0.064 -0.245,0.321 -0.489,0.643 -0.734,0.964 4.87,-1.409 10.837,-5.122 10.549,-10.99 -0.569,0.236 -1.138,0.471 -1.707,0.707 5.403,4.3 15.226,4.368 20.661,0.043 7.088,-5.641 5.023,-17.591 -3.213,-20.934 -2.991,-1.214 -6.087,-1.002 -9.245,-1.002 -4.293,0 -8.032,2.157 -10.479,5.617 -2.9,4.1 -1.147,8.769 -2.655,13.197 -0.676,1.986 -2.525,3.843 -4.666,4.146 0.422,0.321 0.844,0.643 1.266,0.964 -2.85,-24.4 -5.701,-48.801 -8.551,-73.201 -0.522,-4.471 -0.578,-9.153 -1.768,-13.48 -2.803,-10.189 -11.238,-18.081 -21.321,-20.855 -3.653,-1.005 -7.365,-0.992 -11.104,-0.992 -4.4,0 -8.799,0 -13.199,0 -30.375,0 -60.75,0 -91.126,0 -8.071,0 -16.142,0 -24.212,0 -8.887,0 -17.249,3.833 -23.096,10.513 -3.454,3.946 -5.72,8.826 -6.752,13.947 -0.451,2.239 -0.403,4.504 -0.667,6.758 -2.943,25.191 -5.886,50.382 -8.828,75.574 -0.068,0.579 -0.135,1.157 -0.203,1.736 0.422,-0.321 0.844,-0.643 1.266,-0.964 -1.955,-0.276 -3.458,-1.781 -4.358,-3.444 -1.172,-2.165 -0.991,-4.692 -0.915,-7.054 0.071,-2.205 -0.656,-4.381 -1.701,-6.29 -2.022,-3.69 -5.988,-5.784 -10.063,-6.151 -3.009,-0.271 -6.535,-0.239 -9.395,0.732 -8.822,2.994 -10.586,14.477 -4.313,20.749 2.667,2.666 6.245,3.423 9.871,3.423 4.214,0 7.821,-0.283 11.277,-3.031 -0.569,-0.236 -1.138,-0.471 -1.707,-0.707 -0.288,5.868 5.677,9.581 10.547,10.99 -0.245,-0.321 -0.489,-0.643 -0.734,-0.964 10e-4,0.021 0.003,0.042 0.004,0.064 0.245,-0.321 0.489,-0.643 0.734,-0.964 -9.632,3.449 -16.888,11.262 -19.505,21.169 -1.349,5.108 -0.913,10.683 -0.913,15.921 0,7.23 0,14.46 0,21.69 0,6.412 -0.241,12.599 2.1,18.736 0.161,0.422 0.487,0.734 0.964,0.734 14.856,0 29.712,0 44.568,0 31.378,0 62.755,0 94.133,0 28.113,0 56.226,0 84.338,0 7.157,0 14.315,0 21.472,0 0.477,0 0.804,-0.312 0.964,-0.734 1.359,-3.568 2.042,-7.234 2.099,-11.048 0.019,-1.29 -1.981,-1.289 -2,0 -0.054,3.643 -0.731,7.114 -2.028,10.515 0.321,-0.245 0.643,-0.489 0.964,-0.734 -14.856,0 -29.712,0 -44.568,0 -31.378,0 -62.755,0 -94.133,0 -28.113,0 -56.226,0 -84.338,0 -7.157,0 -14.315,0 -21.472,0 0.321,0.245 0.643,0.489 0.964,0.734 -2.188,-5.735 -2.029,-11.421 -2.029,-17.399 0,-6.765 0,-13.53 0,-20.295 0,-4.292 -0.184,-8.632 0.081,-12.919 0.688,-11.108 8.533,-20.743 18.869,-24.444 0.403,-0.144 0.763,-0.5 0.734,-0.964 -0.001,-0.021 -0.003,-0.042 -0.004,-0.064 -0.028,-0.453 -0.286,-0.835 -0.734,-0.964 -4.011,-1.161 -9.321,-4.125 -9.079,-9.061 0.047,-0.961 -1.084,-1.202 -1.707,-0.707 -3.132,2.491 -6.533,2.446 -10.276,2.446 -3.893,0 -7.266,-1.374 -9.566,-4.626 -2.675,-3.783 -2.185,-8.981 0.627,-12.514 2.476,-3.111 6.077,-3.784 9.804,-3.784 3.435,0 6.526,0.143 9.365,2.403 1.78,1.417 2.9,3.441 3.495,5.603 0.602,2.19 0.078,4.53 0.353,6.768 0.435,3.537 2.819,7.569 6.677,8.115 0.694,0.098 1.184,-0.263 1.266,-0.964 2.85,-24.4 5.701,-48.801 8.551,-73.201 0.553,-4.738 0.619,-9.685 2.094,-14.219 3.717,-11.43 14.863,-18.968 26.7,-19.107 6.974,-0.082 13.954,0 20.928,0 30.466,0 60.933,0 91.399,0 7.268,0 14.634,-0.353 21.895,0.073 11.954,0.703 22.061,9.578 25.189,20.949 1.119,4.07 1.118,8.862 1.614,13.113 2.819,24.131 5.638,48.261 8.457,72.392 0.082,0.701 0.572,1.062 1.266,0.964 3.818,-0.54 6.045,-4.403 6.641,-7.849 0.305,-1.766 0.068,-3.505 0.121,-5.276 0.072,-2.416 1.237,-4.697 2.817,-6.466 2.616,-2.93 6.187,-3.298 9.84,-3.298 3.528,0 6.61,0.364 9.38,2.837 3.66,3.268 4.15,8.743 1.87,12.905 -1.909,3.484 -5.727,5.182 -9.558,5.182 -3.855,0 -7.399,0.126 -10.631,-2.446 -0.623,-0.496 -1.754,-0.254 -1.707,0.707 0.242,4.936 -5.07,7.901 -9.08,9.061 -0.446,0.129 -0.71,0.512 -0.734,0.964 -10e-4,0.021 -0.002,0.042 -0.003,0.064 -0.025,0.465 0.329,0.819 0.734,0.964 9.453,3.385 16.336,11.35 18.421,21.154 0.899,4.228 0.531,8.871 0.531,13.173 0,10.071 0,20.143 0,30.214 0,1.291 2,1.291 2,10e-4 z"
   fill="#683820" />
						</g>
					</g>
					<g
   id="g429">
						<path
   id="path423"
   d="m 478.204,320.406 c 4.29,10.786 14.816,18.414 27.13,18.414 h 190.25 c 12.314,0 22.841,-7.628 27.131,-18.414 z"
   fill="#ef7e87" />
						<g
   id="g427">
							<path
   id="path425"
   d="m 477.24,320.672 c 4.17,10.13 13.439,17.692 24.458,18.923 2.333,0.261 4.654,0.224 6.995,0.224 9.072,0 18.144,0 27.216,0 31.286,0 62.571,0 93.857,0 21.557,0 43.114,0 64.671,0 12.918,0 24.269,-7.067 29.243,-19.148 0.253,-0.614 -0.374,-1.266 -0.964,-1.266 -14.856,0 -29.712,0 -44.568,0 -31.378,0 -62.755,0 -94.133,0 -28.113,0 -56.226,0 -84.338,0 -7.157,0 -14.315,0 -21.472,0 -1.29,0 -1.29,2 0,2 14.856,0 29.712,0 44.568,0 31.378,0 62.755,0 94.133,0 28.113,0 56.226,0 84.338,0 7.157,0 14.315,0 21.472,0 -0.321,-0.422 -0.643,-0.844 -0.964,-1.266 -4.357,10.581 -14.732,17.68 -26.21,17.68 -1.637,0 -3.275,0 -4.912,0 -9.83,0 -19.66,0 -29.491,0 -31.576,0 -63.152,0 -94.728,0 -20.212,0 -40.424,0 -60.637,0 -11.652,0 -22.151,-6.858 -26.606,-17.68 -0.483,-1.174 -2.419,-0.66 -1.928,0.533 z"
   fill="#683820" />
						</g>
					</g>
				</g>
				<g
   id="g631">
					<g
   id="g439">
						<path
   id="path433"
   d="m 685.167,220.588 c 0,16.123 -13.071,29.194 -29.195,29.194 H 544.946 c -16.123,0 -29.194,-13.071 -29.194,-29.194 v -50.926 c 0,-16.124 13.071,-29.195 29.194,-29.195 h 111.026 c 16.124,0 29.195,13.071 29.195,29.195 z"
   fill="#d1eaea" />
						<g
   id="g437">
							<path
   id="path435"
   d="m 684.167,220.588 c -0.141,12.046 -7.719,22.704 -19.107,26.699 -4.212,1.478 -8.502,1.495 -12.874,1.495 -12.31,0 -24.62,0 -36.93,0 -15.886,0 -31.771,0 -47.657,0 -8.21,0 -16.536,0.409 -24.739,-0.073 -11.954,-0.703 -22.061,-9.577 -25.189,-20.949 -1.383,-5.03 -0.92,-10.62 -0.92,-15.794 0,-13.754 0,-27.509 0,-41.263 0,-9.303 3.769,-17.869 11.248,-23.584 5.423,-4.145 11.887,-5.651 18.584,-5.651 10.97,0 21.939,0 32.909,0 25.396,0 50.791,0 76.187,0 9.685,0 18.598,4.782 23.953,12.852 3.973,5.988 4.535,12.629 4.535,19.541 0,14.272 0,28.544 0,42.816 0,1.303 0,2.607 0,3.911 0,1.29 2,1.29 2,0 0,-12.276 0,-24.551 0,-36.827 0,-4.68 0,-9.361 0,-14.041 0,-10.081 -5.07,-19.356 -13.299,-25.085 -8.98,-6.251 -19.824,-5.168 -30.149,-5.168 -14.917,0 -29.834,0 -44.752,0 -14.321,0 -28.642,0 -42.964,0 -3.212,0 -6.425,0 -9.637,0 -8.318,0 -16.112,3.188 -21.999,9.075 -5.907,5.907 -8.615,13.932 -8.615,22.161 0,5.917 0,11.835 0,17.752 0,7.837 0,15.674 0,23.511 0,4.987 -0.31,10.106 0.681,15.019 2.092,10.378 10.032,18.771 19.894,22.231 4.241,1.488 8.606,1.566 13.021,1.566 12.117,0 24.234,0 36.35,0 23.986,0 47.988,0.273 71.973,-0.008 16.324,-0.192 29.307,-14.142 29.496,-30.186 0.015,-1.29 -1.985,-1.289 -2,0 z"
   fill="#683820" />
						</g>
					</g>
					<g
   id="g629">
						<g
   id="g543">
							<g
   id="g447">
								<path
   id="path441"
   d="m 567.533,223.033 -6.385,2.273 -6.385,-2.273 c 0,0 -12.116,6.107 -11.2,26.749 h 17.585 17.586 c 0.915,-20.642 -11.201,-26.749 -11.201,-26.749 z"
   fill="#ef7e87" />
								<g
   id="g445">
									<path
   id="path443"
   d="m 567.267,222.069 c -1.706,0.607 -3.413,1.215 -5.119,1.822 -0.304,0.108 -0.608,0.216 -0.912,0.325 -0.683,0.243 0.296,0.168 0.015,0.068 -0.934,-0.332 -1.868,-0.665 -2.802,-0.997 -0.972,-0.346 -3.138,-1.656 -4.198,-1.113 -0.536,0.274 -1.031,0.635 -1.512,0.994 -8.161,6.084 -10.524,16.976 -10.177,26.615 0.02,0.545 0.44,1 1,1 11.724,0 23.447,0 35.171,0 0.56,0 0.98,-0.455 1,-1 0.343,-9.507 -2.191,-22.745 -11.696,-27.612 -1.146,-0.587 -2.158,1.139 -1.009,1.727 8.871,4.543 11.022,17.081 10.705,25.885 0.333,-0.333 0.667,-0.667 1,-1 -11.724,0 -23.447,0 -35.171,0 0.333,0.333 0.667,0.667 1,1 -0.326,-9.057 1.77,-19.655 9.668,-25.238 0.259,-0.183 0.526,-0.354 0.799,-0.515 0.616,-0.364 -0.697,-0.09 -0.37,0.027 1.77,0.63 3.539,1.26 5.309,1.89 2.425,0.863 5.516,-1.124 7.83,-1.948 1.207,-0.431 0.687,-2.364 -0.531,-1.93 z"
   fill="#683820" />
								</g>
							</g>
							<g
   id="g541">
								<g
   id="g455">
									<path
   id="path449"
   d="m 561.148,229.418 c 3.527,0 6.385,-2.858 6.385,-6.384 0,-0.639 -0.095,-1.255 -0.269,-1.838 -0.015,0 -0.028,-0.001 -0.043,-0.001 h -12.145 c -0.015,0 -0.028,0.001 -0.043,0.001 -0.174,0.582 -0.269,1.199 -0.269,1.838 -10e-4,3.525 2.857,6.384 6.384,6.384 z"
   fill="#fff8f4" />
									<g
   id="g453">
										<path
   id="path451"
   d="m 561.148,230.418 c 5.062,-0.273 8.171,-4.594 7.08,-9.488 -0.098,-0.438 -0.535,-0.725 -0.964,-0.734 -4.065,-0.09 -8.166,-0.09 -12.231,0 -0.429,0.009 -0.867,0.296 -0.964,0.734 -1.092,4.894 2.017,9.215 7.079,9.488 1.289,0.069 1.283,-1.931 0,-2 -3.729,-0.201 -5.953,-3.361 -5.151,-6.956 -0.321,0.245 -0.643,0.489 -0.964,0.734 4.065,-0.09 8.166,-0.09 12.231,0 -0.321,-0.245 -0.643,-0.489 -0.964,-0.734 0.802,3.595 -1.422,6.755 -5.152,6.956 -1.283,0.069 -1.29,2.069 0,2 z"
   fill="#683820" />
									</g>
								</g>
								<g
   id="g539">
									<g
   id="g527">
										<g
   id="g473">
											<g
   id="g463">
												<path
   id="path457"
   d="m 531.42,203.866 c 0.282,1.244 -0.498,2.482 -1.742,2.764 v 0 c -1.244,0.282 -2.482,-0.498 -2.764,-1.742 l -0.478,-2.109 c -0.282,-1.244 0.498,-2.482 1.743,-2.764 v 0 c 1.245,-0.282 2.482,0.498 2.764,1.742 z"
   fill="#fff8f4" />
												<g
   id="g461">
													<path
   id="path459"
   d="m 530.456,204.132 c 0.256,1.786 -2.223,2.054 -2.608,0.356 -0.149,-0.658 -0.298,-1.316 -0.448,-1.974 -0.395,-1.741 2.222,-2.063 2.609,-0.355 0.149,0.657 0.298,1.315 0.447,1.973 0.285,1.258 2.213,0.724 1.929,-0.532 -0.385,-1.698 -0.565,-3.413 -2.272,-4.315 -2.616,-1.382 -5.002,1.242 -4.641,3.76 0.24,1.673 0.673,3.47 2.272,4.316 2.616,1.382 5.001,-1.243 4.64,-3.76 -0.182,-1.273 -2.109,-0.73 -1.928,0.531 z"
   fill="#683820" />
												</g>
											</g>
											<g
   id="g471">
												<path
   id="path465"
   d="m 590.875,203.866 c -0.283,1.244 0.498,2.482 1.742,2.764 v 0 c 1.245,0.282 2.481,-0.498 2.764,-1.742 l 0.478,-2.109 c 0.283,-1.244 -0.498,-2.482 -1.742,-2.764 v 0 c -1.245,-0.282 -2.482,0.498 -2.764,1.742 z"
   fill="#fff8f4" />
												<g
   id="g469">
													<path
   id="path467"
   d="m 589.911,203.6 c -0.371,2.578 1.782,4.766 4.402,3.861 1.914,-0.661 2.128,-2.727 2.511,-4.416 0.59,-2.607 -1.938,-4.712 -4.402,-3.861 -1.914,0.661 -2.128,2.727 -2.511,4.416 -0.284,1.256 1.644,1.789 1.929,0.532 0.138,-0.608 0.275,-1.216 0.413,-1.823 0.102,-0.452 0.221,-0.83 0.626,-1.131 0.962,-0.715 2.169,0.273 2.016,1.335 -0.088,0.611 -0.277,1.222 -0.413,1.824 -0.102,0.452 -0.222,0.83 -0.626,1.131 -0.962,0.715 -2.169,-0.273 -2.016,-1.336 0.181,-1.261 -1.746,-1.804 -1.929,-0.532 z"
   fill="#683820" />
												</g>
											</g>
										</g>
										<g
   id="g481">
											<path
   id="path475"
   d="m 572.133,160.224 c 0,3.873 -3.743,7.013 -8.359,7.013 h -5.252 c -4.617,0 -8.359,-3.14 -8.359,-7.013 v -4.405 c 0,-3.873 3.743,-7.013 8.359,-7.013 h 5.252 c 4.616,0 8.359,3.14 8.359,7.013 z"
   fill="#eec997" />
											<g
   id="g479">
												<path
   id="path477"
   d="m 571.133,160.224 c -0.332,6.552 -7.865,6.013 -12.552,6.013 -3.555,0 -7.224,-2.184 -7.418,-6.013 -0.074,-1.461 0,-2.943 0,-4.405 0,-6.55 8.068,-6.013 12.552,-6.013 3.555,0 7.224,2.184 7.418,6.013 0.074,1.461 0,2.942 0,4.405 0,1.29 2,1.29 2,0 0,-2.291 0.408,-5.1 -0.607,-7.236 -1.601,-3.369 -5.152,-5.182 -8.811,-5.182 -2.725,0 -5.57,-0.251 -8.231,0.431 -3.533,0.905 -6.137,3.961 -6.321,7.582 -0.112,2.213 -0.368,5.183 0.607,7.236 1.601,3.369 5.152,5.182 8.811,5.182 2.725,0 5.57,0.251 8.231,-0.431 3.533,-0.905 6.137,-3.961 6.321,-7.582 0.065,-1.289 -1.935,-1.283 -2,0 z"
   fill="#683820" />
											</g>
										</g>
										<g
   id="g489">
											<path
   id="path483"
   d="m 577.234,165.932 c 5.53,0.903 11.501,2.949 14.45,8.552 2.064,4.424 1.77,10.911 1.475,15.629 -0.59,8.847 0.641,24.929 -9.141,28.015 -26.836,8.465 -45.74,0 -45.74,0 -9.731,-3.244 -8.551,-19.168 -9.141,-28.015 -0.295,-4.718 -0.59,-11.206 1.474,-15.629 2.949,-5.603 7.903,-7.201 14.45,-8.552 0,0 13.595,-3.035 32.173,0 z"
   fill="#fff8f4" />
											<g
   id="g487">
												<path
   id="path485"
   d="m 576.969,166.897 c 6.413,1.099 12.851,3.729 14.69,10.579 1.489,5.544 0.484,11.632 0.306,17.29 -0.157,4.994 -0.31,10.063 -1.769,14.879 -0.658,2.174 -1.737,4.186 -3.382,5.765 -2.384,2.288 -6.449,2.79 -9.525,3.515 -10.997,2.592 -22.792,2.761 -33.753,-0.112 -1.466,-0.384 -3.752,-1.104 -4.753,-1.548 -4.84,-2.147 -6.591,-6.31 -7.539,-11.309 -1.155,-6.09 -0.987,-12.526 -1.259,-18.705 -0.18,-4.082 -0.158,-8.451 1.49,-12.262 1.583,-3.662 5.322,-5.712 8.919,-6.874 11.513,-3.719 24.855,-3.075 36.575,-1.218 1.261,0.2 1.803,-1.727 0.532,-1.929 -10.436,-1.654 -21.277,-2.037 -31.722,-0.191 -3.76,0.665 -7.587,1.613 -10.883,3.598 -4.846,2.918 -6.482,8.073 -6.883,13.418 -0.395,5.263 0.208,10.702 0.433,15.973 0.204,4.789 0.599,9.752 2.445,14.225 2.347,5.686 7.391,7.552 12.883,8.948 8.734,2.221 17.938,2.41 26.838,1.227 5.133,-0.682 11.211,-1.512 15.812,-4.01 3.167,-1.72 4.865,-5.219 5.864,-8.518 1.167,-3.853 1.4,-8.001 1.576,-11.998 0.197,-4.481 0.507,-8.996 0.502,-13.479 -0.006,-4.863 -0.756,-9.614 -4.078,-13.34 -3.195,-3.584 -8.223,-5.073 -12.787,-5.855 -1.262,-0.214 -1.802,1.713 -0.532,1.931 z"
   fill="#683820" />
											</g>
										</g>
										<g
   id="g497">
											<path
   id="path491"
   d="m 592.137,171.838 c -5.714,-11.428 -18.57,-12.618 -29.998,-10.714 0,0 -0.476,0.017 -0.991,0.368 -0.515,-0.351 -0.991,-0.368 -0.991,-0.368 -11.427,-1.904 -24.284,-0.714 -29.998,10.714 -4.048,8.333 -4.048,19.522 -1.667,28.093 12.861,-4.073 27.986,-15.008 32.656,-29.008 4.67,13.999 19.795,24.935 32.656,29.008 2.38,-8.571 2.38,-19.76 -1.667,-28.093 z"
   fill="#eec997" />
											<g
   id="g495">
												<path
   id="path493"
   d="m 593,171.333 c -2.965,-5.692 -7.914,-9.351 -14.075,-10.98 -3.056,-0.809 -6.276,-1.004 -9.423,-0.954 -2.788,0.045 -6.291,0.054 -8.859,1.23 0.336,0 0.673,0 1.009,0 -2.052,-0.941 -4.611,-0.973 -6.84,-1.138 -2.663,-0.197 -5.339,-0.118 -7.988,0.216 -4.969,0.625 -9.639,2.508 -13.345,5.916 -8.934,8.216 -8.844,23.774 -5.952,34.574 0.136,0.509 0.714,0.866 1.23,0.698 14.219,-4.612 28.321,-15.192 33.354,-29.706 -0.643,0 -1.286,0 -1.929,0 5.034,14.514 19.136,25.094 33.355,29.706 0.516,0.167 1.094,-0.19 1.23,-0.698 2.521,-9.414 2.41,-19.936 -1.767,-28.864 -0.546,-1.167 -2.27,-0.151 -1.727,1.009 3.94,8.42 3.937,18.465 1.566,27.323 0.41,-0.233 0.82,-0.466 1.23,-0.698 -13.515,-4.383 -27.166,-14.492 -31.958,-28.309 -0.33,-0.951 -1.599,-0.951 -1.929,0 -4.791,13.817 -18.443,23.926 -31.957,28.309 0.41,0.233 0.82,0.466 1.23,0.698 -2.372,-8.858 -2.374,-18.903 1.566,-27.323 3.494,-7.467 11.319,-10.534 19.094,-10.923 3.591,-0.179 7.316,0.088 10.765,1.037 0.551,0.151 1.003,-0.278 1.523,-0.368 1.016,-0.176 2.039,-0.305 3.063,-0.421 2.007,-0.227 4.027,-0.301 6.045,-0.269 8.232,0.131 15.837,3.411 19.761,10.944 0.597,1.145 2.323,0.134 1.728,-1.009 z"
   fill="#683820" />
											</g>
										</g>
										<g
   id="g507">
											<g
   id="g501">
												<ellipse
   id="ellipse499"
   ry="2.506"
   rx="1.7690001"
   cy="202.438"
   cx="543.60199"
   fill="#683820" />
											</g>
											<g
   id="g505">
												<ellipse
   id="ellipse503"
   ry="2.506"
   rx="1.7690001"
   cy="202.438"
   cx="578.69397"
   fill="#683820" />
											</g>
										</g>
										<g
   id="g519">
											<g
   id="g517">
												<g
   id="g511">
													<path
   id="path509"
   d="m 582.56,208.926 c 0,1.221 -0.99,2.212 -2.212,2.212 h -3.244 c -1.222,0 -2.211,-0.991 -2.211,-2.212 v 0 c 0,-1.222 0.99,-2.212 2.211,-2.212 h 3.244 c 1.221,0 2.212,0.99 2.212,2.212 z"
   fill="#fde7dd" />
												</g>
												<g
   id="g515">
													<path
   id="path513"
   d="m 547.403,208.926 c 0,1.221 -0.99,2.212 -2.212,2.212 h -3.243 c -1.221,0 -2.212,-0.991 -2.212,-2.212 v 0 c 0,-1.222 0.991,-2.212 2.212,-2.212 h 3.243 c 1.221,0 2.212,0.99 2.212,2.212 z"
   fill="#fde7dd" />
												</g>
											</g>
										</g>
										<g
   id="g525">
											<g
   id="g523">
												<path
   id="path521"
   d="m 556.458,213.871 c 3.08,0.945 6.289,0.86 9.379,0 1.241,-0.345 0.713,-2.275 -0.532,-1.929 -2.765,0.769 -5.56,0.845 -8.315,0 -1.237,-0.379 -1.761,1.552 -0.532,1.929 z"
   fill="#683820" />
											</g>
										</g>
									</g>
									<g
   id="g537">
										<g
   id="g531">
											<path
   id="path529"
   d="m 578.965,201.549 c 0.972,0.225 2.125,-0.059 2.897,-0.689 0.171,-0.14 0.393,-0.402 0.232,-0.634 -0.148,-0.212 -0.504,-0.141 -0.675,-0.001 -0.509,0.416 -1.25,0.608 -1.895,0.459 -0.467,-0.11 -1.156,0.727 -0.559,0.865 z"
   fill="#683820" />
										</g>
										<g
   id="g535">
											<path
   id="path533"
   d="m 543.33,201.549 c -0.971,0.225 -2.125,-0.059 -2.897,-0.689 -0.171,-0.14 -0.394,-0.402 -0.232,-0.634 0.148,-0.212 0.504,-0.141 0.675,-0.001 0.509,0.416 1.25,0.608 1.894,0.459 0.469,-0.11 1.157,0.727 0.56,0.865 z"
   fill="#683820" />
										</g>
									</g>
								</g>
							</g>
						</g>
						<g
   id="g613">
							<g
   id="g551">
								<path
   id="path545"
   d="m 646.156,223.033 -6.385,2.273 -6.385,-2.273 c 0,0 -12.116,6.107 -11.2,26.749 h 17.585 17.586 c 0.916,-20.642 -11.201,-26.749 -11.201,-26.749 z"
   fill="#ef7e87" />
								<g
   id="g549">
									<path
   id="path547"
   d="m 645.89,222.069 c -1.706,0.607 -3.413,1.215 -5.119,1.822 -0.304,0.108 -0.608,0.216 -0.912,0.325 -0.683,0.243 0.296,0.168 0.015,0.068 -0.934,-0.332 -1.868,-0.665 -2.802,-0.997 -0.972,-0.346 -3.138,-1.656 -4.198,-1.113 -0.536,0.274 -1.031,0.635 -1.512,0.994 -8.161,6.084 -10.524,16.976 -10.177,26.615 0.02,0.545 0.44,1 1,1 11.724,0 23.447,0 35.171,0 0.56,0 0.98,-0.455 1,-1 0.343,-9.507 -2.191,-22.745 -11.696,-27.612 -1.146,-0.587 -2.158,1.139 -1.009,1.727 8.871,4.543 11.022,17.081 10.705,25.885 0.333,-0.333 0.667,-0.667 1,-1 -11.724,0 -23.447,0 -35.171,0 0.333,0.333 0.667,0.667 1,1 -0.326,-9.057 1.77,-19.655 9.668,-25.238 0.259,-0.183 0.526,-0.354 0.799,-0.515 0.616,-0.364 -0.697,-0.09 -0.37,0.027 1.77,0.63 3.539,1.26 5.309,1.89 2.425,0.863 5.516,-1.124 7.83,-1.948 1.207,-0.431 0.688,-2.364 -0.531,-1.93 z"
   fill="#683820" />
								</g>
							</g>
							<g
   id="g611">
								<g
   id="g569">
									<g
   id="g559">
										<path
   id="path553"
   d="m 610.044,203.866 c 0.283,1.244 -0.498,2.482 -1.743,2.764 v 0 c -1.244,0.282 -2.482,-0.498 -2.763,-1.742 l -0.478,-2.109 c -0.282,-1.244 0.498,-2.482 1.742,-2.764 v 0 c 1.245,-0.282 2.482,0.498 2.764,1.742 z"
   fill="#fff8f4" />
										<g
   id="g557">
											<path
   id="path555"
   d="m 609.079,204.132 c 0.257,1.786 -2.223,2.054 -2.608,0.356 -0.149,-0.658 -0.298,-1.316 -0.448,-1.974 -0.395,-1.741 2.221,-2.063 2.608,-0.355 0.15,0.657 0.299,1.315 0.448,1.973 0.285,1.258 2.213,0.724 1.929,-0.532 -0.385,-1.698 -0.565,-3.413 -2.272,-4.315 -2.616,-1.382 -5.001,1.243 -4.641,3.76 0.24,1.673 0.672,3.47 2.272,4.316 2.616,1.382 5.003,-1.243 4.641,-3.76 -0.183,-1.273 -2.11,-0.73 -1.929,0.531 z"
   fill="#683820" />
										</g>
									</g>
									<g
   id="g567">
										<path
   id="path561"
   d="m 669.498,203.866 c -0.282,1.244 0.498,2.482 1.743,2.764 v 0 c 1.244,0.282 2.481,-0.498 2.763,-1.742 l 0.477,-2.109 c 0.283,-1.244 -0.498,-2.482 -1.741,-2.764 v 0 c -1.245,-0.282 -2.482,0.498 -2.764,1.742 z"
   fill="#fff8f4" />
										<g
   id="g565">
											<path
   id="path563"
   d="m 668.534,203.6 c -0.369,2.578 1.782,4.766 4.402,3.861 1.914,-0.661 2.128,-2.726 2.51,-4.416 0.59,-2.606 -1.936,-4.712 -4.401,-3.861 -1.913,0.661 -2.128,2.727 -2.511,4.416 -0.285,1.256 1.643,1.789 1.929,0.532 0.138,-0.608 0.276,-1.216 0.413,-1.823 0.103,-0.452 0.221,-0.83 0.626,-1.131 0.962,-0.715 2.169,0.273 2.015,1.335 -0.088,0.611 -0.276,1.222 -0.413,1.824 -0.102,0.452 -0.221,0.83 -0.626,1.131 -0.962,0.715 -2.169,-0.273 -2.017,-1.336 0.182,-1.261 -1.745,-1.804 -1.927,-0.532 z"
   fill="#683820" />
										</g>
									</g>
								</g>
								<g
   id="g577">
									<path
   id="path571"
   d="m 639.771,229.418 c 3.526,0 6.385,-2.858 6.385,-6.384 0,-0.639 -0.095,-1.255 -0.269,-1.838 -0.015,0 -0.029,-0.001 -0.043,-0.001 h -12.146 c -0.014,0 -0.028,0.001 -0.043,0.001 -0.174,0.582 -0.269,1.199 -0.269,1.838 0,3.525 2.858,6.384 6.385,6.384 z"
   fill="#fff8f4" />
									<g
   id="g575">
										<path
   id="path573"
   d="m 639.771,230.418 c 5.062,-0.273 8.17,-4.593 7.08,-9.488 -0.098,-0.438 -0.535,-0.725 -0.964,-0.734 -4.065,-0.09 -8.166,-0.091 -12.231,0 -0.429,0.01 -0.867,0.296 -0.964,0.734 -1.092,4.894 2.017,9.215 7.079,9.488 1.289,0.069 1.283,-1.931 0,-2 -3.729,-0.201 -5.953,-3.361 -5.151,-6.956 -0.321,0.245 -0.643,0.489 -0.964,0.734 4.065,-0.091 8.166,-0.09 12.231,0 -0.321,-0.245 -0.643,-0.489 -0.964,-0.734 0.801,3.595 -1.422,6.755 -5.152,6.956 -1.283,0.069 -1.289,2.069 0,2 z"
   fill="#683820" />
									</g>
								</g>
								<g
   id="g585">
									<path
   id="path579"
   d="m 655.858,167.997 c 5.53,0.903 11.5,2.949 14.45,8.552 2.064,4.424 1.77,8.847 1.474,13.565 -0.59,8.847 0.641,24.929 -9.141,28.015 -26.835,8.465 -45.739,0 -45.739,0 -9.732,-3.244 -8.552,-19.168 -9.142,-28.015 -0.295,-4.718 -0.59,-9.142 1.474,-13.565 2.949,-5.603 7.904,-7.201 14.45,-8.552 0,0 13.596,-3.036 32.174,0 z"
   fill="#fff8f4" />
									<g
   id="g583">
										<path
   id="path581"
   d="m 655.592,168.961 c 6.785,1.162 13.034,3.974 14.894,11.176 0.87,3.368 0.48,7.023 0.267,10.449 -0.146,2.349 -0.171,4.705 -0.266,7.056 -0.199,4.957 -0.525,10.251 -2.791,14.759 -2.881,5.73 -10.534,6.405 -16.181,7.408 -10.211,1.813 -21.083,1.512 -31.051,-1.477 -2.081,-0.624 -3.643,-1.093 -5.412,-2.224 -4.23,-2.704 -5.16,-8.942 -5.647,-13.488 -0.622,-5.802 -0.832,-11.873 -0.852,-17.705 -0.015,-4.269 1.092,-8.351 4.199,-11.387 2.57,-2.511 6.324,-3.469 9.716,-4.249 10.741,-2.47 22.326,-2.029 33.124,-0.318 1.261,0.2 1.803,-1.727 0.532,-1.929 -10.436,-1.654 -21.277,-2.037 -31.722,-0.191 -3.76,0.665 -7.587,1.614 -10.883,3.598 -5.114,3.08 -6.847,8.818 -6.966,14.475 -0.11,5.224 0.322,10.66 0.692,15.876 0.324,4.568 1.008,9.324 3.343,13.341 2.79,4.8 8.908,6.219 13.954,7.303 8.476,1.82 17.245,1.808 25.799,0.577 4.871,-0.701 10.877,-1.492 15.133,-4.117 2.914,-1.798 4.48,-5.098 5.436,-8.254 1.11,-3.665 1.365,-7.604 1.55,-11.407 0.202,-4.146 0.429,-8.316 0.526,-12.465 0.117,-4.968 -1.001,-9.772 -4.57,-13.379 -3.206,-3.241 -7.933,-4.609 -12.293,-5.356 -1.261,-0.217 -1.8,1.71 -0.531,1.928 z"
   fill="#683820" />
									</g>
								</g>
								<g
   id="g595">
									<g
   id="g589">
										<ellipse
   id="ellipse587"
   ry="2.506"
   rx="1.7690001"
   cy="202.438"
   cx="622.22498"
   fill="#683820" />
									</g>
									<g
   id="g593">
										<ellipse
   id="ellipse591"
   ry="2.506"
   rx="1.7690001"
   cy="202.438"
   cx="657.31702"
   fill="#683820" />
									</g>
								</g>
								<g
   id="g601">
									<g
   id="g599">
										<path
   id="path597"
   d="m 635.081,213.871 c 3.08,0.945 6.29,0.86 9.379,0 1.241,-0.345 0.713,-2.275 -0.532,-1.929 -2.765,0.769 -5.56,0.845 -8.316,0 -1.236,-0.379 -1.76,1.552 -0.531,1.929 z"
   fill="#683820" />
									</g>
								</g>
								<g
   id="g609">
									<path
   id="path603"
   d="m 655.122,163.748 c -62.086,-11.803 -46.73,36.711 -46.73,36.711 0,0 25.521,-7.034 39.88,-25.013 v 0.001 c 0,0 3.694,16.137 23.252,24.034 0,0.002 8.184,-31.263 -16.402,-35.733 z"
   fill="#fceca7" />
									<g
   id="g607">
										<path
   id="path605"
   d="m 655.388,162.784 c -14.157,-2.647 -34.387,-4.714 -44.437,8.331 -5.455,7.081 -5.99,16.596 -4.548,25.108 0.256,1.511 0.565,3.038 1.026,4.502 0.163,0.519 0.691,0.848 1.23,0.698 15.097,-4.191 30.426,-13.061 40.321,-25.27 -0.557,-0.324 -1.114,-0.649 -1.671,-0.973 -0.267,0.776 0.507,2.201 0.761,2.867 0.904,2.381 2.111,4.635 3.501,6.765 4.71,7.217 11.796,12.37 19.688,15.633 0.5,0.207 1.106,-0.219 1.23,-0.698 1.423,-5.486 1.754,-11.547 0.965,-17.142 -1.443,-10.224 -7.714,-17.823 -18.066,-19.821 -1.26,-0.243 -1.797,1.684 -0.532,1.929 4.998,0.964 9.532,3.205 12.601,7.368 2.561,3.473 3.732,7.81 4.177,12.046 0.52,4.951 0.179,10.256 -1.076,15.09 0.41,-0.233 0.82,-0.466 1.23,-0.698 -7.449,-3.08 -13.982,-7.989 -18.493,-14.714 -1.268,-1.891 -2.355,-3.927 -3.203,-6.04 -0.239,-0.597 -0.452,-1.205 -0.644,-1.818 -0.213,-0.682 0.012,-0.886 -0.213,-0.233 0.316,-0.917 -1.039,-1.753 -1.671,-0.973 -9.688,11.954 -24.649,20.65 -39.438,24.756 0.41,0.233 0.82,0.466 1.23,0.698 -1.762,-5.596 -2.166,-11.998 -1.136,-17.751 0.885,-4.943 3.137,-9.483 6.887,-12.869 5.364,-4.844 12.981,-6.322 19.972,-6.629 6.626,-0.291 13.277,0.552 19.777,1.768 1.261,0.234 1.799,-1.693 0.532,-1.93 z"
   fill="#683820" />
									</g>
								</g>
							</g>
						</g>
						<g
   id="g627">
							<rect
   id="rect615"
   height="14.323"
   width="3.003"
   fill="#683820"
   y="235.459"
   x="638.40399" />
							<g
   id="g625">
								<path
   id="path617"
   d="m 655.256,249.308 h -3.003 c 0,-6.809 -5.539,-12.347 -12.347,-12.347 -6.809,0 -12.348,5.539 -12.348,12.347 h -3.003 c 0,-8.465 6.886,-15.351 15.351,-15.351 8.464,0 15.35,6.886 15.35,15.351 z"
   fill="#683820" />
								<g
   id="g623">
									<path
   id="path619"
   d="m 659.915,243.423 c -1.295,2.101 -4.048,2.754 -6.15,1.458 l -2.68,-1.653 c -2.101,-1.295 -2.754,-4.049 -1.459,-6.15 l 0.135,-0.22 c 1.295,-2.101 4.05,-2.753 6.15,-1.458 l 2.68,1.652 c 2.102,1.295 2.754,4.049 1.459,6.151 z"
   stroke-miterlimit="10"
   stroke-width="2"
   stroke="#683820"
   fill="#fff8f4" />
									<path
   id="path621"
   d="m 619.536,243.423 c 1.295,2.101 4.048,2.754 6.15,1.458 l 2.68,-1.653 c 2.101,-1.295 2.754,-4.049 1.459,-6.15 l -0.135,-0.22 c -1.295,-2.101 -4.05,-2.753 -6.15,-1.458 l -2.68,1.652 c -2.102,1.295 -2.754,4.049 -1.459,6.151 z"
   stroke-miterlimit="10"
   stroke-width="2"
   stroke="#683820"
   fill="#fff8f4" />
								</g>
							</g>
						</g>
					</g>
				</g>
				<g
   id="g665">
					<g
   id="g639">
						<path
   id="path633"
   d="m 540.972,283.528 c 0,7.292 -5.911,13.203 -13.202,13.203 h -5.078 c -7.292,0 -13.203,-5.911 -13.203,-13.203 v 0 c 0,-7.292 5.911,-13.201 13.203,-13.201 h 5.078 c 7.291,10e-4 13.202,5.91 13.202,13.201 z"
   fill="#fceca7" />
						<g
   id="g637">
							<path
   id="path635"
   d="m 539.972,283.528 c -0.111,4.252 -2.125,7.946 -5.669,10.309 -2.772,1.847 -5.891,1.894 -9.072,1.894 -3.012,0 -5.758,-0.096 -8.507,-1.557 -3.918,-2.081 -6.121,-6.317 -6.234,-10.646 -0.109,-4.185 2.262,-8.037 5.669,-10.307 2.772,-1.847 5.891,-1.893 9.072,-1.893 3.012,0 5.758,0.096 8.507,1.556 3.918,2.08 6.121,6.316 6.234,10.644 0.034,1.287 2.034,1.29 2,0 -0.114,-4.383 -2.007,-8.629 -5.587,-11.28 -3.41,-2.525 -7.063,-2.92 -11.154,-2.92 -3.855,0 -7.313,0.321 -10.628,2.53 -3.893,2.595 -5.994,7.081 -6.114,11.67 -0.112,4.308 2.144,8.731 5.587,11.282 3.41,2.526 7.063,2.921 11.154,2.921 3.855,0 7.313,-0.321 10.628,-2.531 3.893,-2.595 5.994,-7.083 6.113,-11.672 0.034,-1.29 -1.966,-1.287 -1.999,0 z"
   fill="#683820" />
						</g>
					</g>
					<g
   id="g647">
						<path
   id="path641"
   d="m 540.084,307.571 c 0,2.217 -1.797,4.015 -4.015,4.015 h -21.677 c -2.218,0 -4.015,-1.798 -4.015,-4.015 v 0 c 0,-2.217 1.797,-4.014 4.015,-4.014 h 21.677 c 2.218,-0.001 4.015,1.796 4.015,4.014 z"
   fill="#ef7e87" />
						<g
   id="g645">
							<path
   id="path643"
   d="m 539.084,307.571 c -0.263,3.265 -3.177,3.015 -5.527,3.015 -2.775,0 -5.551,0 -8.326,0 -2.663,0 -5.326,0 -7.988,0 -2.418,0 -5.592,0.379 -5.866,-3.015 -0.263,-3.265 3.432,-3.014 5.528,-3.014 2.775,0 5.551,0 8.326,0 2.663,0 5.326,0 7.989,0 2.416,-0.001 5.59,-0.38 5.864,3.014 0.103,1.276 2.104,1.286 2,0 -0.272,-3.367 -2.71,-5.014 -5.893,-5.014 -3.32,0 -6.64,0 -9.96,0 -3.246,0 -6.493,0 -9.739,0 -3.244,0 -5.83,1.49 -6.115,5.014 -0.272,3.375 3.069,5.015 5.894,5.015 3.32,0 6.64,0 9.96,0 3.246,0 6.493,0 9.739,0 3.245,0 5.83,-1.491 6.114,-5.015 0.104,-1.287 -1.897,-1.277 -2,0 z"
   fill="#683820" />
						</g>
					</g>
					<g
   id="g655">
						<path
   id="path649"
   d="m 691.429,283.528 c 0,7.292 -5.911,13.203 -13.202,13.203 h -5.078 c -7.291,0 -13.202,-5.911 -13.202,-13.203 v 0 c 0,-7.292 5.911,-13.201 13.202,-13.201 h 5.078 c 7.292,10e-4 13.202,5.91 13.202,13.201 z"
   fill="#fceca7" />
						<g
   id="g653">
							<path
   id="path651"
   d="m 690.429,283.528 c -0.111,4.252 -2.125,7.946 -5.669,10.309 -2.771,1.848 -5.891,1.894 -9.072,1.894 -3.012,0 -5.758,-0.096 -8.507,-1.557 -3.918,-2.081 -6.121,-6.317 -6.234,-10.646 -0.109,-4.185 2.262,-8.037 5.669,-10.307 2.772,-1.847 5.891,-1.893 9.072,-1.893 3.012,0 5.758,0.096 8.507,1.556 3.919,2.08 6.121,6.316 6.234,10.644 0.034,1.287 2.034,1.29 2,0 -0.114,-4.383 -2.007,-8.629 -5.587,-11.28 -3.41,-2.525 -7.063,-2.92 -11.154,-2.92 -3.855,0 -7.312,0.321 -10.628,2.53 -3.893,2.595 -5.994,7.081 -6.114,11.67 -0.112,4.308 2.144,8.731 5.587,11.282 3.41,2.526 7.063,2.921 11.154,2.921 3.855,0 7.313,-0.321 10.628,-2.531 3.893,-2.595 5.993,-7.083 6.113,-11.672 0.035,-1.29 -1.965,-1.287 -1.999,0 z"
   fill="#683820" />
						</g>
					</g>
					<g
   id="g663">
						<path
   id="path657"
   d="m 690.542,307.571 c 0,2.217 -1.798,4.015 -4.015,4.015 H 664.85 c -2.217,0 -4.015,-1.798 -4.015,-4.015 v 0 c 0,-2.217 1.798,-4.014 4.015,-4.014 h 21.678 c 2.216,-0.001 4.014,1.796 4.014,4.014 z"
   fill="#ef7e87" />
						<g
   id="g661">
							<path
   id="path659"
   d="m 689.542,307.571 c -0.264,3.265 -3.177,3.015 -5.527,3.015 -2.776,0 -5.551,0 -8.326,0 -2.663,0 -5.326,0 -7.989,0 -2.418,0 -5.591,0.379 -5.865,-3.015 -0.263,-3.265 3.432,-3.014 5.527,-3.014 2.775,0 5.551,0 8.326,0 2.663,0 5.326,0 7.989,0 2.417,-0.001 5.591,-0.38 5.865,3.014 0.103,1.276 2.104,1.286 2,0 -0.272,-3.367 -2.71,-5.014 -5.893,-5.014 -3.32,0 -6.64,0 -9.961,0 -3.247,0 -6.493,0 -9.74,0 -3.244,0 -5.83,1.491 -6.114,5.014 -0.272,3.374 3.069,5.015 5.893,5.015 3.32,0 6.64,0 9.961,0 3.246,0 6.493,0 9.74,0 3.245,0 5.83,-1.492 6.114,-5.015 0.104,-1.287 -1.897,-1.277 -2,0 z"
   fill="#683820" />
						</g>
					</g>
				</g>
				<g
   id="g695">
					<g
   id="g673">
						<path
   id="path667"
   d="m 619.009,294.8 c 0,7.837 -3.176,14.19 -7.095,14.19 h -22.91 c -3.918,0 -7.095,-6.353 -7.095,-14.19 v -1.097 c 0,-7.836 3.177,-14.189 7.095,-14.189 h 22.91 c 3.918,0 7.095,6.353 7.095,14.189 z"
   fill="#d1eaea" />
						<g
   id="g671">
							<path
   id="path669"
   d="m 618.009,294.8 c -0.055,3.677 -0.937,13.19 -6.317,13.19 -2.839,0 -5.678,0 -8.517,0 -3.798,0 -7.596,0 -11.394,0 -0.884,0 -1.768,0 -2.651,0 -2.227,0 -3.544,-2.197 -4.42,-3.95 -2.674,-5.348 -2.367,-13.073 -0.42,-18.581 0.694,-1.963 2.295,-4.945 4.728,-4.945 0.811,0 1.622,0 2.432,0 6.707,0 13.413,0 20.12,0 5.888,0 6.439,10.307 6.439,14.286 0,1.29 2,1.29 2,0 0,-4.915 -0.639,-10.097 -3.807,-14.056 -1.721,-2.151 -3.945,-2.23 -6.421,-2.23 -6.763,0 -13.525,0 -20.287,0 -3.431,0 -5.475,2.621 -6.779,5.543 -2.168,4.857 -2.202,10.795 -1.326,15.961 0.606,3.574 2.738,9.681 7.183,9.947 2.261,0.135 4.555,0.026 6.819,0.026 5.345,0 10.689,0 16.034,0 7.019,0 8.506,-9.941 8.584,-15.19 0.019,-1.291 -1.981,-1.289 -2,-10e-4 z"
   fill="#683820" />
						</g>
					</g>
					<g
   id="g693">
						<g
   id="g679">
							<g
   id="g677">
								<path
   id="path675"
   d="m 583.015,287.101 c 11.629,0 23.259,0 34.888,0 1.29,0 1.29,-2 0,-2 -11.629,0 -23.259,0 -34.888,0 -1.289,0 -1.289,2 0,2 z"
   fill="#683820" />
							</g>
						</g>
						<g
   id="g685">
							<g
   id="g683">
								<path
   id="path681"
   d="m 581.909,294.876 c 12.367,0 24.733,0 37.1,0 1.29,0 1.29,-2 0,-2 -12.367,0 -24.733,0 -37.1,0 -1.289,0 -1.289,2 0,2 z"
   fill="#683820" />
							</g>
						</g>
						<g
   id="g691">
							<g
   id="g689">
								<path
   id="path687"
   d="m 583.015,302.652 c 11.629,0 23.259,0 34.888,0 1.29,0 1.29,-2 0,-2 -11.629,0 -23.259,0 -34.888,0 -1.289,0 -1.289,2 0,2 z"
   fill="#683820" />
							</g>
						</g>
					</g>
				</g>
			</g>
			<g
   id="g715">
				<g
   id="g705">
					<path
   id="path699"
   d="m 671.136,123.565 c 0,3.135 -2.433,5.676 -5.436,5.676 H 535.218 c -3.002,0 -5.435,-2.541 -5.435,-5.676 v -15.542 c 0,-3.135 2.433,-5.676 5.435,-5.676 H 665.7 c 3.002,0 5.436,2.541 5.436,5.676 z"
   fill="#ef7e87" />
					<g
   id="g703">
						<path
   id="path701"
   d="m 670.136,123.565 c -0.289,5.232 -4.959,4.676 -8.609,4.676 -4.672,0 -9.343,0 -14.015,0 -15.019,0 -30.038,0 -45.056,0 -22.413,0 -44.825,0 -67.238,0 -5.113,0 -4.435,-5.873 -4.435,-9.305 0,-3.474 0,-6.948 0,-10.423 0,-5.158 4.04,-5.166 7.703,-5.166 11.135,0 22.27,0 33.405,0 28.941,0 57.883,0 86.825,0 2.328,0 4.657,0 6.985,0 5.389,0 4.436,6.698 4.436,10.242 -10e-4,3.325 -10e-4,6.651 -10e-4,9.976 0,1.29 2,1.29 2,0 0,-2.838 0,-5.676 0,-8.514 0,-2.816 0.288,-5.804 -0.179,-8.595 -0.77,-4.602 -5.177,-5.108 -8.875,-5.108 -10.75,0 -21.5,0 -32.25,0 -29.212,0 -58.424,0 -87.636,0 -2.592,0 -5.183,0 -7.775,0 -7.461,0 -6.639,8.08 -6.639,13.211 0,5.255 -1.637,15.682 6.476,15.682 2.235,0 4.47,0 6.706,0 28.87,0 57.739,0 86.609,0 9.717,0 19.433,0 29.15,0 5.585,0 13.971,1.342 14.414,-6.676 0.07,-1.289 -1.93,-1.282 -2.001,0 z"
   fill="#683820" />
					</g>
				</g>
				<g
   id="g711">
					
						<rect
   id="rect707"
   height="26.893999"
   width="9.3920002"
   stroke-miterlimit="10"
   stroke-width="2"
   stroke="#683820"
   fill="#fceca7"
   y="102.347"
   x="546.48499" />
					
						<rect
   id="rect709"
   height="26.893999"
   width="9.3920002"
   stroke-miterlimit="10"
   stroke-width="2"
   stroke="#683820"
   fill="#fceca7"
   y="102.347"
   x="645.04199" />
				</g>
				<path
   id="path713"
   d="m 619.443,115.112 c 0,2.35 -1.905,4.255 -4.255,4.255 H 585.73 c -2.35,0 -4.255,-1.905 -4.255,-4.255 v 0 c 0,-2.35 1.905,-4.255 4.255,-4.255 h 29.459 c 2.35,0 4.254,1.905 4.254,4.255 z"
   stroke-miterlimit="10"
   stroke-width="2"
   stroke="#683820"
   fill="#996b5a" />
			</g>
			<g
   id="g727">
				<g
   id="g723">
					<path
   id="path717"
   d="m 552.062,73.314 c -3.135,0 -5.675,2.541 -5.675,5.676 v 17.682 c 0,3.135 2.541,5.676 5.675,5.676 h 5.685 V 73.314 Z"
   stroke-miterlimit="10"
   stroke-width="2"
   stroke="#683820"
   fill="#996b5a" />
					
						<rect
   id="rect719"
   height="29.033001"
   width="85.422997"
   stroke-miterlimit="10"
   stroke-width="2"
   stroke="#683820"
   fill="#aeb9df"
   y="73.314003"
   x="557.74799" />
					<path
   id="path721"
   d="m 648.856,73.314 h -5.685 v 29.033 h 5.685 c 3.135,0 5.676,-2.541 5.676,-5.676 V 78.99 c 0,-3.135 -2.541,-5.676 -5.676,-5.676 z"
   stroke-miterlimit="10"
   stroke-width="2"
   stroke="#683820"
   fill="#996b5a" />
				</g>
				<path
   id="path725"
   d="m 611.608,86.829 c 0,1.659 -1.345,3.003 -3.003,3.003 h -16.29 c -1.659,0 -3.003,-1.345 -3.003,-3.003 v 0 c 0,-1.659 1.345,-3.003 3.003,-3.003 h 16.29 c 1.658,0 3.003,1.345 3.003,3.003 z"
   stroke-miterlimit="10"
   stroke-width="2"
   stroke="#683820"
   fill="#996b5a" />
			</g>
			<path
   id="path729"
   d="m 633.31,68.269 c 0,2.786 -2.541,5.045 -5.676,5.045 h -54.35 c -3.135,0 -5.676,-2.259 -5.676,-5.045 V 50.327 c 0,-2.786 2.541,-5.045 5.676,-5.045 h 54.35 c 3.135,0 5.676,2.259 5.676,5.045 z"
   stroke-miterlimit="10"
   stroke-width="2"
   stroke="#683820"
   fill="#fceca7" />
			<g
   id="g735">
				
					<line
   id="line731"
   y2="135.965"
   x2="515.65601"
   y1="45.282001"
   x1="580.34497"
   stroke-miterlimit="10"
   stroke-width="3"
   stroke="#683820"
   fill="none" />
				
					<line
   id="line733"
   y2="135.965"
   x2="685.263"
   y1="45.282001"
   x1="620.57397"
   stroke-miterlimit="10"
   stroke-width="3"
   stroke="#683820"
   fill="none" />
			</g>
		</g>
	</g>
</g>
</svg>
