<?xml version="1.0" encoding="utf-8"?><!DOCTYPE svg PUBLIC "-//W3C//DTD SVG 1.1//EN" "http://www.w3.org/Graphics/SVG/1.1/DTD/svg11.dtd"><svg version="1.1" id="Слой_1" xmlns="http://www.w3.org/2000/svg" xmlns:xlink="http://www.w3.org/1999/xlink" x="0px" y="0px" width="150px" height="150px" viewBox="0 0 150 150" enable-background="new 0 0 150 150" xml:space="preserve"><g><path fill="#FFFFFF" stroke="#3F7FC1" stroke-miterlimit="10" d="M73,59.066C73,66.762,66.732,73,59,73H17C9.268,73,3,66.762,3,59.066V17.265C3,9.569,9.268,3.331,17,3.331h42c7.732,0,14,6.238,14,13.934V59.066z"/></g><g><path fill="#FFFFFF" stroke="#3F7FC1" stroke-miterlimit="10" d="M146.796,132.735c0,7.695-6.268,13.934-14,13.934h-42c-7.732,0-14-6.238-14-13.934V90.934c0-7.695,6.268-13.934,14-13.934h42c7.732,0,14,6.238,14,13.934V132.735z"/></g><g><path fill="#FFFFFF" stroke="#3F7FC1" stroke-miterlimit="10" d="M147.087,59.066c0,7.695-6.268,13.934-14,13.934h-42c-7.732,0-14-6.238-14-13.934V17.265c0-7.695,6.268-13.934,14-13.934h42c7.732,0,14,6.238,14,13.934V59.066z"/></g><g><path fill="#FFFFFF" stroke="#3F7FC1" stroke-miterlimit="10" d="M73,132.735c0,7.695-6.268,13.934-14,13.934H17c-7.732,0-14-6.238-14-13.934V90.934C3,83.238,9.268,77,17,77h42c7.732,0,14,6.238,14,13.934V132.735z"/></g><g><ellipse fill="#4D4B4B" stroke="#1D1D1B" stroke-miterlimit="10" cx="38.316" cy="44.752" rx="4.735" ry="18.66"/><circle fill="#1D1D1B" stroke="#1D1D1B" stroke-miterlimit="10" cx="38.316" cy="23.435" r="2.658"/><path fill="#87FF48" stroke="#1D1D1B" stroke-miterlimit="10" d="M34.903,32.077c0,0-11.104-21.723-22.802-20.679c-3.69,0.329,3.307,14.565,2.607,18.202c-0.783,4.072-5.598,10.807-1.981,12.834c4.339,2.432,21.15-3.463,21.15-3.463L34.903,32.077z"/><path fill="#87FF48" stroke="#1D1D1B" stroke-miterlimit="10" d="M33.877,38.972c0,0-5.544,1.958-10.239,3.113c-4.261,1.048-6.652,1.861-8.509,3.474c-1.392,1.209-1.773,2.648-1.928,4.485c-0.317,3.76,1.117,3.011,0.988,6.946c-0.104,3.186-2.193,2.246-0.926,6.371c0.758,2.468,6.082,4.488,8.481,3.534c4.297-1.709,12.133-13.961,12.133-13.961s-0.294-5.103-0.296-6.806C33.58,44.336,33.877,38.972,33.877,38.972z"/><path fill="#87FF48" stroke="#1D1D1B" stroke-miterlimit="10" d="M41.935,32.077c0,0,11.104-21.723,22.802-20.679c3.69,0.329-3.307,14.565-2.607,18.202c0.783,4.072,5.598,10.807,1.981,12.834c-4.339,2.432-21.15-3.463-21.15-3.463L41.935,32.077z"/><path fill="#87FF48" stroke="#1D1D1B" stroke-miterlimit="10" d="M42.961,38.972c0,0,5.544,1.958,10.239,3.113c4.261,1.048,6.652,1.861,8.509,3.474c1.392,1.209,1.773,2.648,1.928,4.485c0.317,3.76-1.117,3.011-0.988,6.946c0.104,3.186,2.193,2.246,0.926,6.371c-0.758,2.468-6.082,4.488-8.481,3.534C50.797,65.184,42.59,52.797,42.59,52.797s0.448-5.02,0.45-6.723C43.041,44.284,42.961,38.972,42.961,38.972z"/><path fill="none" stroke="#1D1D1B" stroke-miterlimit="10" d="M27.558,9.414c0,0,3.374-0.448,6.319,3.76c3.07,4.387,3.07,7.986,3.07,7.986"/><circle fill="#1D1D1B" stroke="#1D1D1B" stroke-miterlimit="10" cx="26.14" cy="9.4" r="1.419"/><path fill="none" stroke="#1D1D1B" stroke-miterlimit="10" d="M49.15,9.414c0,0-3.374-0.448-6.319,3.76c-3.07,4.387-3.07,7.986-3.07,7.986"/><circle fill="#1D1D1B" stroke="#1D1D1B" stroke-miterlimit="10" cx="50.568" cy="9.4" r="1.419"/></g><g><ellipse fill="#4D4B4B" stroke="#1D1D1B" stroke-miterlimit="10" cx="111.65" cy="44.36" rx="4.735" ry="18.66"/><circle fill="#1D1D1B" stroke="#1D1D1B" stroke-miterlimit="10" cx="111.65" cy="23.042" r="2.658"/><path fill="#F7F4C0" stroke="#1D1D1B" stroke-miterlimit="10" d="M108.236,31.684c0,0-11.104-21.723-22.802-20.679c-3.69,0.329,3.307,14.565,2.607,18.202c-0.783,4.072-5.598,10.807-1.981,12.834c4.339,2.432,21.15-3.463,21.15-3.463L108.236,31.684z"/><path fill="#F7F4C0" stroke="#1D1D1B" stroke-miterlimit="10" d="M107.211,38.579c0,0-5.544,1.958-10.239,3.113c-4.261,1.048-6.652,1.861-8.509,3.474c-1.392,1.209-1.773,2.648-1.928,4.485c-0.317,3.76,1.117,3.011,0.988,6.946c-0.104,3.186-2.193,2.246-0.926,6.371c0.758,2.468,6.082,4.488,8.481,3.534c4.297-1.709,12.133-13.961,12.133-13.961s-0.294-5.103-0.296-6.806C106.913,43.944,107.211,38.579,107.211,38.579z"/><path fill="#F7F4C0" stroke="#1D1D1B" stroke-miterlimit="10" d="M115.269,31.684c0,0,11.104-21.723,22.802-20.679c3.69,0.329-3.307,14.565-2.607,18.202c0.783,4.072,5.598,10.807,1.981,12.834c-4.339,2.432-21.15-3.463-21.15-3.463L115.269,31.684z"/><path fill="#F7F4C0" stroke="#1D1D1B" stroke-miterlimit="10" d="M116.294,38.579c0,0,5.544,1.958,10.239,3.113c4.261,1.048,6.652,1.861,8.509,3.474c1.392,1.209,1.773,2.648,1.928,4.485c0.317,3.76-1.117,3.011-0.988,6.946c0.104,3.186,2.193,2.246,0.926,6.371c-0.758,2.468-6.082,4.488-8.481,3.534c-4.297-1.709-12.504-14.096-12.504-14.096s0.448-5.02,0.45-6.723C116.374,43.892,116.294,38.579,116.294,38.579z"/><path fill="none" stroke="#1D1D1B" stroke-miterlimit="10" d="M100.892,9.021c0,0,3.374-0.448,6.319,3.76c3.07,4.387,3.07,7.986,3.07,7.986"/><circle fill="#1D1D1B" stroke="#1D1D1B" stroke-miterlimit="10" cx="99.473" cy="9.007" r="1.419"/><path fill="none" stroke="#1D1D1B" stroke-miterlimit="10" d="M122.483,9.021c0,0-3.374-0.448-6.319,3.76c-3.07,4.387-3.07,7.986-3.07,7.986"/><circle fill="#1D1D1B" stroke="#1D1D1B" stroke-miterlimit="10" cx="123.902" cy="9.007" r="1.419"/></g><g><ellipse fill="#4D4B4B" stroke="#1D1D1B" stroke-miterlimit="10" cx="111.547" cy="117.86" rx="4.735" ry="18.66"/><circle fill="#1D1D1B" stroke="#1D1D1B" stroke-miterlimit="10" cx="111.547" cy="96.542" r="2.658"/><path fill="#FF617C" stroke="#1D1D1B" stroke-miterlimit="10" d="M108.133,105.184c0,0-11.104-21.723-22.802-20.679c-3.69,0.329,3.307,14.565,2.607,18.202c-0.783,4.072-5.598,10.807-1.981,12.834c4.339,2.432,21.15-3.463,21.15-3.463L108.133,105.184z"/><path fill="#FF617C" stroke="#1D1D1B" stroke-miterlimit="10" d="M107.108,112.079c0,0-5.544,1.958-10.239,3.113c-4.261,1.048-6.652,1.861-8.509,3.474c-1.392,1.209-1.773,2.648-1.928,4.485c-0.317,3.76,1.117,3.011,0.988,6.946c-0.104,3.186-2.193,2.246-0.926,6.371c0.758,2.468,6.082,4.488,8.481,3.534c4.297-1.709,12.133-13.961,12.133-13.961s-0.294-5.103-0.296-6.806C106.81,117.444,107.108,112.079,107.108,112.079z"/><path fill="#FF617C" stroke="#1D1D1B" stroke-miterlimit="10" d="M115.166,105.184c0,0,11.104-21.723,22.802-20.679c3.69,0.329-3.307,14.565-2.607,18.202c0.783,4.072,5.598,10.807,1.981,12.834c-4.339,2.432-21.15-3.463-21.15-3.463L115.166,105.184z"/><path fill="#FF617C" stroke="#1D1D1B" stroke-miterlimit="10" d="M116.191,112.079c0,0,5.544,1.958,10.239,3.113c4.261,1.048,6.652,1.861,8.509,3.474c1.392,1.209,1.773,2.648,1.928,4.485c0.317,3.76-1.117,3.011-0.988,6.946c0.104,3.186,2.193,2.246,0.926,6.371c-0.758,2.468-6.082,4.488-8.481,3.534c-4.297-1.709-12.504-14.096-12.504-14.096s0.448-5.02,0.45-6.723C116.272,117.392,116.191,112.079,116.191,112.079z"/><path fill="none" stroke="#1D1D1B" stroke-miterlimit="10" d="M100.789,82.521c0,0,3.374-0.448,6.319,3.76c3.07,4.387,3.07,7.986,3.07,7.986"/><circle fill="#1D1D1B" stroke="#1D1D1B" stroke-miterlimit="10" cx="99.37" cy="82.507" r="1.419"/><path fill="none" stroke="#1D1D1B" stroke-miterlimit="10" d="M122.38,82.521c0,0-3.374-0.448-6.319,3.76c-3.07,4.387-3.07,7.986-3.07,7.986"/><circle fill="#1D1D1B" stroke="#1D1D1B" stroke-miterlimit="10" cx="123.799" cy="82.507" r="1.419"/></g><g><ellipse fill="#4D4B4B" stroke="#1D1D1B" stroke-miterlimit="10" cx="37.897" cy="118.029" rx="4.735" ry="18.66"/><circle fill="#1D1D1B" stroke="#1D1D1B" stroke-miterlimit="10" cx="37.897" cy="96.711" r="2.658"/><path fill="#F7F4C0" stroke="#1D1D1B" stroke-miterlimit="10" d="M34.484,105.353c0,0-11.104-21.723-22.802-20.679c-3.69,0.329,3.307,14.565,2.607,18.202c-0.783,4.072-5.598,10.807-1.981,12.834c4.339,2.432,21.15-3.463,21.15-3.463L34.484,105.353z"/><path fill="#F7F4C0" stroke="#1D1D1B" stroke-miterlimit="10" d="M33.458,112.248c0,0-5.544,1.958-10.239,3.113c-4.261,1.048-6.652,1.861-8.509,3.474c-1.392,1.209-1.773,2.648-1.928,4.485c-0.317,3.76,1.117,3.011,0.988,6.946c-0.104,3.186-2.193,2.246-0.926,6.371c0.758,2.468,6.082,4.488,8.481,3.534c4.297-1.709,12.133-13.961,12.133-13.961s-0.294-5.103-0.296-6.806C33.161,117.613,33.458,112.248,33.458,112.248z"/><path fill="#F7F4C0" stroke="#1D1D1B" stroke-miterlimit="10" d="M41.516,105.353c0,0,11.104-21.723,22.802-20.679c3.69,0.329-3.307,14.565-2.607,18.202c0.783,4.072,5.598,10.807,1.981,12.834c-4.339,2.432-21.15-3.463-21.15-3.463L41.516,105.353z"/><path fill="#F7F4C0" stroke="#1D1D1B" stroke-miterlimit="10" d="M42.542,112.248c0,0,5.544,1.958,10.239,3.113c4.261,1.048,6.652,1.861,8.509,3.474c1.392,1.209,1.773,2.648,1.928,4.485c0.317,3.76-1.117,3.011-0.988,6.946c0.104,3.186,2.193,2.246,0.926,6.371c-0.758,2.468-6.082,4.488-8.481,3.534c-4.297-1.709-12.504-14.096-12.504-14.096s0.448-5.02,0.45-6.723C42.622,117.561,42.542,112.248,42.542,112.248z"/><path fill="none" stroke="#1D1D1B" stroke-miterlimit="10" d="M27.139,82.69c0,0,3.374-0.448,6.319,3.76c3.07,4.387,3.07,7.986,3.07,7.986"/><circle fill="#1D1D1B" stroke="#1D1D1B" stroke-miterlimit="10" cx="25.721" cy="82.676" r="1.419"/><path fill="none" stroke="#1D1D1B" stroke-miterlimit="10" d="M48.731,82.69c0,0-3.374-0.448-6.319,3.76c-3.07,4.387-3.07,7.986-3.07,7.986"/><circle fill="#1D1D1B" stroke="#1D1D1B" stroke-miterlimit="10" cx="50.149" cy="82.676" r="1.419"/></g></svg>