<?xml version="1.0" encoding="UTF-8" standalone="no"?>
<svg
   xmlns:dc="http://purl.org/dc/elements/1.1/"
   xmlns:cc="http://creativecommons.org/ns#"
   xmlns:rdf="http://www.w3.org/1999/02/22-rdf-syntax-ns#"
   xmlns:svg="http://www.w3.org/2000/svg"
   xmlns="http://www.w3.org/2000/svg"
   xmlns:sodipodi="http://sodipodi.sourceforge.net/DTD/sodipodi-0.dtd"
   xmlns:inkscape="http://www.inkscape.org/namespaces/inkscape"
   version="1.1"
   id="Слой_1"
   x="0px"
   y="0px"
   width="435.646"
   height="400.776"
   viewBox="0 0 435.646 400.776"
   enable-background="new 0 0 800 400"
   xml:space="preserve"
   sodipodi:docname="1.svg"
   inkscape:version="1.0 (4035a4fb49, 2020-05-01)"><metadata
   id="metadata866"><rdf:RDF><cc:Work
       rdf:about=""><dc:format>image/svg+xml</dc:format><dc:type
         rdf:resource="http://purl.org/dc/dcmitype/StillImage" /><dc:title /></cc:Work></rdf:RDF></metadata><defs
   id="defs864">
	
	
	
	

	
	
	
	
	
	
	
	
	
	
	
	
	
	
	
	
	
	
	
	
	
	
	
	
	

		
		
		
		
		
		
		
		
		
		
		
		
		
			
	
	
	
	
	
	
	
	
	
	
	<linearGradient
   gradientTransform="translate(-0.818,0.577)"
   y2="197.7197"
   x2="355.0195"
   y1="385.5513"
   x1="355.0195"
   gradientUnits="userSpaceOnUse"
   id="SVGID_4_">
		<stop
   id="stop81"
   style="stop-color:#F7E8AE"
   offset="0" />
		<stop
   id="stop83"
   style="stop-color:#F4CA64"
   offset="1" />
	</linearGradient>
	
	
	
	
	
	
	
	
	
	
	
	
	
	
	
	
	
	
		
	
		
	
	
	
	
	

	
	
	
</defs><sodipodi:namedview
   inkscape:document-rotation="0"
   pagecolor="#ffffff"
   bordercolor="#666666"
   borderopacity="1"
   objecttolerance="10"
   gridtolerance="10"
   guidetolerance="10"
   inkscape:pageopacity="0"
   inkscape:pageshadow="2"
   inkscape:window-width="1920"
   inkscape:window-height="1017"
   id="namedview862"
   showgrid="false"
   fit-margin-top="0"
   fit-margin-left="0"
   fit-margin-right="0"
   fit-margin-bottom="0"
   inkscape:zoom="1.0874905"
   inkscape:cx="177.77392"
   inkscape:cy="310.81447"
   inkscape:window-x="-8"
   inkscape:window-y="-8"
   inkscape:window-maximized="1"
   inkscape:current-layer="Слой_1" />
<radialGradient
   id="SVGID_1_"
   cx="213.73039"
   cy="2261.6013"
   r="174.868"
   gradientTransform="matrix(1.056,0,0,1.1207,-8.1544,-2342.4928)"
   gradientUnits="userSpaceOnUse">
	<stop
   offset="0.135"
   style="stop-color:#ECF0F2"
   id="stop2" />
	<stop
   offset="1"
   style="stop-color:#C7DFE4"
   id="stop4" />
</radialGradient>
<rect
   x="0.24999996"
   y="0.030999996"
   fill="url(#SVGID_1_)"
   width="434.586"
   height="384.31201"
   id="rect7"
   style="fill:url(#SVGID_1_)" />
<linearGradient
   id="SVGID_2_"
   gradientUnits="userSpaceOnUse"
   x1="218.2361"
   y1="400.19901"
   x2="218.2361"
   y2="112.2401"
   gradientTransform="translate(-0.818,0.577)">
	<stop
   offset="0"
   style="stop-color:#FFFFFF"
   id="stop9" />
	<stop
   offset="1"
   style="stop-color:#000000"
   id="stop11" />
</linearGradient>
<path
   opacity="0.15"
   fill="url(#SVGID_2_)"
   d="m 399.558,139.308 -6.621,-7.501 -2.4,-7.44 -2.742,-3.719 -2.743,-1.958 -1.371,1.175 -0.8,0.979 -3.657,-1.175 -2.4,-0.587 -1.942,1.566 -2.171,7.243 -1.143,10.768 c 0,0 -2.257,5.714 -2.769,7.018 -7.926,4.382 -14.812,10.696 -20.125,18.284 -6.605,-4.028 -14.156,-6.972 -22.309,-8.533 l -8.924,-21.087 -1.948,-9.46 -0.651,-7.79 -2.698,-2.119 -1.828,0.587 -1.829,-1.958 c 0,0 -2.399,-0.586 -2.742,-0.586 -0.343,0 -2.057,-0.197 -2.057,-0.197 l -2.056,1.567 -0.687,3.719 -0.228,2.741 -0.228,3.523 c 0,0 -2.742,13.313 -2.857,13.9 -0.115,0.588 -1.715,9.789 -1.715,9.789 l -2.4,4.11 -0.929,0.797 -2.842,-4.712 -2.057,-5.677 -1.486,-6.069 -2.514,-0.588 -3.314,0.784 c 0,0 -0.228,1.565 -0.343,2.349 -0.114,0.782 -0.342,2.545 -0.342,2.545 0,0 -0.229,3.916 -0.343,4.503 -0.115,0.586 -0.8,8.613 -0.8,8.613 l -3.428,6.265 -1.662,5.36 c -4.979,3.532 -9.308,7.722 -12.82,12.412 -3.513,-4.69 -7.842,-8.88 -12.821,-12.412 l -1.662,-5.36 -3.429,-6.265 c 0,0 -0.686,-8.026 -0.8,-8.613 -0.114,-0.588 -0.343,-4.503 -0.343,-4.503 0,0 -0.229,-1.763 -0.343,-2.545 -0.115,-0.784 -0.343,-2.349 -0.343,-2.349 l -3.314,-0.784 -2.514,0.588 -1.486,6.069 -2.057,5.677 -2.841,4.712 -0.929,-0.797 -2.4,-4.11 c 0,0 -1.599,-9.201 -1.714,-9.789 -0.114,-0.587 -2.857,-13.9 -2.857,-13.9 l -0.228,-3.523 -0.229,-2.741 -0.686,-3.719 -2.057,-1.567 c 0,0 -1.714,0.197 -2.057,0.197 -0.342,0 -2.742,0.586 -2.742,0.586 l -1.828,1.958 -1.828,-0.587 -2.698,2.119 -0.65,7.79 -1.949,9.46 -8.924,21.087 c -8.153,1.561 -15.705,4.505 -22.309,8.533 -5.314,-7.588 -12.199,-13.902 -20.125,-18.284 -0.512,-1.304 -2.769,-7.018 -2.769,-7.018 l -1.143,-10.768 -2.171,-7.243 -1.943,-1.566 -2.4,0.587 -3.657,1.175 -0.8,-0.979 -1.372,-1.175 -2.742,1.958 -2.743,3.719 -2.399,7.44 -6.621,7.501 c -9.468,1.059 -18.115,4.893 -25.217,10.798 -7.102,-5.905 -15.749,-9.739 -25.217,-10.798 l -6.621,-7.501 -2.4,-7.44 -2.742,-3.719 -2.743,-1.958 -1.371,1.175 -0.8,0.979 -3.657,-1.175 -2.4,-0.587 -1.942,1.566 -2.171,7.243 -1.143,10.768 c 0,0 -2.257,5.714 -2.769,7.018 -7.926,4.382 -14.812,10.696 -20.125,18.284 -6.083,-3.71 -12.976,-6.485 -20.395,-8.122 V 298.05 400.486 h 96.132 122.21 l 51.413,0.29 H 434.838 V 161.414 c -8.016,-12.278 -20.685,-20.474 -35.28,-22.106 z m -162.331,20.967 -0.594,-0.509 1.212,0.791 c -0.205,-0.096 -0.412,-0.189 -0.618,-0.282 z m 46.818,0 c -0.207,0.093 -0.413,0.186 -0.619,0.281 l 1.212,-0.791 z"
   id="path14"
   style="fill:url(#SVGID_2_)" />
<path
   opacity="0.27"
   fill="#bf865d"
   d="m 0.25,294.864 c 0,0 132.535,-76.616 244.976,105.621 H 0.25 Z"
   id="path16" />
<path
   opacity="0.28"
   fill="#8dae44"
   d="m 434.447,298.285 c 0,0 -184.169,-74.134 -340.417,102.2 h 340.417 z"
   id="path18" />
<path
   fill="#4d6d6c"
   d="m 0,366.287 c 1.089,-1.451 2.05,-2.231 2.05,-2.231 -1.144,9.161 7.317,14.214 7.317,14.214 -1.371,-1.896 1.83,-8.528 1.83,-8.528 0.457,8.845 8.002,15.162 8.002,15.162 -2.515,-6.949 2.973,-12.319 2.973,-12.319 0.457,6.318 6.859,6.949 6.859,6.949 4.573,-4.106 1.372,-17.057 1.372,-17.057 3.43,1.58 6.86,16.109 6.86,16.109 -1.601,-9.476 6.402,-18.636 6.402,-18.636 0.229,13.582 7.545,21.479 7.545,21.479 4.573,-3.475 5.487,-15.794 5.487,-15.794 3.201,2.843 6.173,17.373 6.173,17.373 -0.686,-5.685 2.972,-11.687 2.972,-11.687 -0.914,2.527 2.058,7.581 2.058,7.581 -1.144,-4.107 2.057,-8.213 2.057,-8.213 -0.457,5.685 4.573,14.214 4.573,14.214 -2.743,-10.74 2.743,-22.426 2.743,-22.426 -1.371,6.95 4.802,16.741 4.802,16.741 8.917,-6.633 5.487,-13.583 5.487,-13.583 5.945,2.843 10.06,13.898 10.06,13.898 -1.829,-7.581 4.344,-20.532 4.344,-20.532 -2.515,12.635 6.174,24.006 6.174,24.006 -0.914,-8.529 7.774,-14.846 7.774,-14.846 -1.829,3.475 3.43,11.687 3.43,11.687 2.515,-3.159 0.914,-7.265 0.914,-7.265 3.887,0 8.46,6.949 8.46,6.949 0.457,-8.844 6.63,-14.214 6.63,-14.214 0,3.159 4.573,12.319 4.573,12.319 l -1.6,-15.478 7.317,18.636 c 7.317,-0.948 3.887,-14.846 3.887,-14.846 6.538,2.657 10.972,14.47 12.218,18.16 -1.594,-6.161 2.873,-13.738 2.873,-13.738 -0.686,6.317 2.286,9.792 2.286,9.792 -2.057,-8.213 3.887,-22.426 3.887,-22.426 -0.686,18.004 6.859,28.428 6.859,28.428 -0.229,-4.106 3.658,-16.109 4.344,-16.425 0,8.213 4.344,14.53 4.344,14.53 -0.686,-5.686 5.03,-11.056 5.03,-11.056 -0.457,3.475 5.716,12.635 5.716,12.635 4.802,-9.792 0,-21.794 0,-21.794 5.945,0.316 10.975,18.636 10.975,18.636 -0.686,-7.897 2.287,-16.425 2.287,-16.425 -0.251,5.546 1.984,11.277 4.052,15.325 v -3.322 c -1.829,-8.845 4.801,-14.214 4.801,-14.214 -1.143,9.161 7.317,14.214 7.317,14.214 -1.372,-1.896 1.829,-8.528 1.829,-8.528 0.457,8.845 8.003,15.162 8.003,15.162 -2.515,-6.949 2.972,-12.319 2.972,-12.319 0.457,6.318 6.86,6.949 6.86,6.949 4.573,-4.106 1.372,-17.057 1.372,-17.057 3.43,1.58 6.859,16.109 6.859,16.109 -1.6,-9.476 6.402,-18.636 6.402,-18.636 0.228,13.582 7.545,21.479 7.545,21.479 4.573,-3.475 5.487,-15.794 5.487,-15.794 3.201,2.843 6.173,17.373 6.173,17.373 -0.686,-5.685 2.973,-11.687 2.973,-11.687 -0.915,2.527 2.057,7.581 2.057,7.581 -1.142,-4.107 2.058,-8.213 2.058,-8.213 -0.457,5.685 4.573,14.214 4.573,14.214 -2.744,-10.74 2.744,-22.426 2.744,-22.426 -1.372,6.95 4.802,16.741 4.802,16.741 8.917,-6.633 5.487,-13.583 5.487,-13.583 5.945,2.843 10.06,13.898 10.06,13.898 -1.83,-7.581 4.344,-20.532 4.344,-20.532 -2.515,12.635 6.173,24.006 6.173,24.006 -0.915,-8.529 7.774,-14.846 7.774,-14.846 -1.829,3.475 3.43,11.687 3.43,11.687 2.515,-3.159 0.915,-7.265 0.915,-7.265 3.887,0 8.46,6.949 8.46,6.949 0.457,-8.844 6.631,-14.214 6.631,-14.214 0,3.159 4.573,12.319 4.573,12.319 l -1.6,-15.478 7.316,18.636 c 7.317,-0.948 3.887,-14.846 3.887,-14.846 6.538,2.657 10.972,14.47 12.218,18.16 -1.594,-6.161 2.873,-13.738 2.873,-13.738 -0.686,6.317 2.286,9.792 2.286,9.792 -2.058,-8.213 3.886,-22.426 3.886,-22.426 -0.686,18.004 6.86,28.428 6.86,28.428 -0.229,-4.106 3.658,-16.109 4.344,-16.425 0,8.213 4.344,14.53 4.344,14.53 -0.686,-5.686 5.03,-11.056 5.03,-11.056 -0.457,3.475 5.716,12.635 5.716,12.635 4.801,-9.792 0,-21.794 0,-21.794 5.945,0.316 10.975,18.636 10.975,18.636 -0.686,-7.897 2.286,-16.425 2.286,-16.425 -0.457,10.108 7.344,20.847 7.344,20.847 v 13.371 H 217.688 214.397 0 Z"
   id="path20" />
<path
   opacity="0.5"
   fill="none"
   stroke="#ffffff"
   stroke-width="0.5"
   stroke-linecap="round"
   stroke-linejoin="round"
   stroke-dasharray="1, 1, 1, 1, 1, 1"
   d="m 434.836,387.28 c 0,0 -7.101,-6.255 -7.531,-12.131 0,0 -2.729,4.55 -1.436,10.616 0,0 -6.606,-13.459 -9.191,-16.492 0,0 3.16,11.184 -2.872,18.008 0,0 -6.318,-5.119 -6.893,-9.857 0,0 -3.877,1.137 -3.59,7.582 0.287,6.445 0.144,1.706 0.144,1.706 0,0 -6.606,-5.308 -6.75,-11.563 0,0 -3.734,7.583 -2.441,12.321 0,0 -6.893,-2.654 -9.478,-22.746 0,0 -3.59,9.098 -1.292,17.059 0,0 -3.877,-1.138 -4.739,-5.876 0,0 -2.297,4.171 -1.149,8.909 l 0.144,4.17 c 0,0 -7.036,-16.301 -12.206,-20.093 0,0 2.441,10.993 -6.031,12.889 l -5.313,-11.941 0.431,11.563 c 0,0 -6.031,-8.909 -6.175,-12.7 0,0 -6.032,3.791 -5.17,14.216 0,0 -5.6,-7.014 -7.467,-7.582 0,0 -2.872,5.119 -4.165,6.256 0,0 -5.313,-6.825 -4.739,-10.805 0,0 -6.893,5.497 -5.744,12.51 l 0.718,2.275 c 0,0 -8.041,-5.875 -9.478,-19.903 0,0 -3.877,8.719 -0.862,15.353 l 1.436,3.602 c 0,0 -7.611,-10.047 -11.776,-15.354 0,0 -1.866,10.237 -8.185,12.132 0,0 -6.171,-8.485 -6.062,-13.536 0,0 -2.952,9.236 -0.218,19.628 0,0 -6.67,-6.639 -6.67,-13.422 0,0 -2.187,2.599 -1.093,6.351 0,0 -3.17,-2.597 -3.389,-6.206 0,0 -2.952,5.052 -1.531,10.68 1.422,5.629 -0.218,1.732 -0.218,1.732 0,0 -4.921,-14.432 -5.795,-16.453 0,0 -3.499,11.69 -6.889,13.278 0,0 -8.965,-10.535 -8.965,-20.638 0,0 -6.889,5.485 -5.576,15.443 v 3.608 c 0,0 -3.499,-10.824 -5.139,-12.989 0,0 1.203,8.082 -3.499,11.546 0,0 -7.873,-1.732 -8.091,-5.196 0,0 -4.701,3.031 -0.984,11.113 0,0 -8.638,-4.329 -10.278,-12.845 0,0 -1.64,2.598 -0.656,5.34 0,0 -7.872,-1.153 -9.84,-11.979 0,0 -5.248,3.031 -2.515,16.597 0,0 -5.248,-4.474 -5.904,-11.69 0,0 -1.859,6.349 -1.094,11.834 l -0.765,1.444 c 0,0 -4.592,-13.711 -8.856,-18.185 0,0 1.421,14.289 -2.515,20.927 0,0 -6.233,-7.939 -6.779,-12.268 0,0 -4.92,3.464 -4.046,8.949 0,0 -6.341,-2.743 -6.013,-11.691 0,0 -3.609,9.526 -3.171,14.433 0,0 -9.184,-9.381 -8.965,-24.969 0,0 -4.701,12.412 -1.422,18.907 0,0 -4.702,-0.722 -4.92,-7.794 0,0 -2.952,6.35 -0.874,12.989 0,0 -6.014,-11.836 -11.809,-18.186 0,0 2.296,11.402 -6.341,13.856 l -5.467,-13.133 0.437,11.113 c 0,0 -5.905,-7.072 -6.123,-11.835 0,0 -4.811,4.618 -5.139,12.123 v 1.876 c 0,0 -4.811,-6.64 -8.638,-7.938 0,0 -0.328,5.052 -2.405,6.496 0,0 -5.576,-5.629 -5.248,-10.536 0,0 -6.997,6.783 -5.686,14.577 0,0 -9.184,-8.948 -8.638,-20.494 0,0 -4.811,8.371 -2.077,16.886 0,0 -7.217,-12.557 -9.95,-12.413 0,0 -1.859,9.67 -7.654,11.258 0,0 -5.139,-5.918 -5.576,-12.701 0,0 -4.154,9.814 -0.218,20.206 0,0 -6.889,-7.65 -7.108,-13.422 0,0 -1.749,3.175 -0.765,5.918 0,0 -3.609,-2.886 -3.718,-5.628 0,0 -2.733,5.051 -1.858,10.535 0,0 -5.248,-14.721 -6.123,-16.742 -0.219,0.722 -2.515,13.135 -6.451,14.289 0,0 -9.184,-9.094 -9.184,-18.908 0,0 -6.779,7.506 -5.03,16.887 0,0 -3.936,-10.104 -5.576,-13.567 0,0 0.656,11.257 -3.28,14.144 0,0 -7.872,-1.588 -8.091,-6.062 0,0 -4.265,3.897 -0.766,10.68"
   id="path22" />
<path
   opacity="0.29"
   fill="#8dae44"
   d="m 235.837,0.216 c 0.003,-0.01 0.008,-0.019 0.011,-0.029 h 2.324 c 0.005,0.01 0.01,0.02 0.016,0.029 h 197.458 v 380.725 l -4.863,-0.413 c 1.64,10.728 2.295,18.324 2.438,20.143 h -5.377 c -0.458,-4.734 -0.967,-9.292 -1.521,-13.673 -13.997,-4.769 -36.092,-1.925 -36.092,-1.925 7.669,-3.959 14.529,-5.686 20.203,-6.273 l -8.061,-0.684 0.127,-2.997 c -9.367,-0.243 -17.033,0.558 -17.033,0.558 6.317,-2.971 12.125,-4.605 17.24,-5.419 l 0.188,-4.432 c -9.682,-0.304 -17.733,0.537 -17.733,0.537 2.732,-1.286 5.369,-2.315 7.9,-3.144 -1.325,-1.709 -2.777,-4.569 -2.828,-8.934 -12.229,-1.005 -22.076,-0.874 -22.076,-0.874 14.278,-4.203 26.759,-4.572 35.975,-3.786 l 0.575,-3.495 c -12.402,-1.222 -24.878,0.199 -24.878,0.199 10.308,-5.031 19.231,-6.332 25.879,-6.27 l 0.247,-1.503 c 0,0 0.212,-0.614 0.551,-1.607 -13.663,-2.135 -29.285,-0.357 -29.285,-0.357 13.51,-6.594 24.642,-6.786 31.383,-5.891 0.366,-1.105 0.734,-2.233 1.084,-3.32 -15.213,-4.749 -38.283,-2.443 -38.283,-2.443 21.371,-9.865 37.08,-4.868 39.548,-3.969 -0.766,-1.988 -1.535,-3.889 -2.303,-5.693 -16.054,-4.217 -43.591,2.057 -43.591,2.057 20.015,-11.859 35.946,-10.213 40.178,-9.479 -0.588,-1.188 -1.171,-2.324 -1.754,-3.415 -16.103,-2.962 -44.37,6.845 -44.37,6.845 20.672,-15.15 37.581,-14.225 40.228,-13.969 -0.384,-0.603 -0.763,-1.184 -1.14,-1.745 -14.243,-1.292 -38.013,7.67 -38.013,7.67 16.527,-14.465 30.19,-14.275 33.32,-14.006 -0.183,-0.222 -0.366,-0.442 -0.546,-0.654 -16.006,-2.238 -45.507,7.464 -45.507,7.464 20.415,-15.584 37.011,-14.158 38.81,-13.949 -0.362,-0.266 -0.619,-0.435 -0.765,-0.528 -0.295,-0.014 -0.586,-0.02 -0.88,-0.041 -0.477,-3.542 -1.569,-10.075 -1.569,-10.075 l -1.799,9.717 c -2.454,-0.352 -4.934,-0.91 -7.425,-1.719 -0.337,-2.888 -1.05,-6.524 -1.05,-6.524 l -2.372,5.255 c -3.251,-1.363 -6.503,-3.174 -9.707,-5.532 0,0 1.052,-2.089 3.151,-4.917 l 1.563,2.507 -0.509,-3.874 c 1.882,-2.351 4.392,-5.018 7.532,-7.381 l 1.95,3.638 -0.822,-4.454 c 1.81,-1.254 3.806,-2.392 5.995,-3.313 l 2.947,7.85 -0.527,-8.747 c 2.666,-0.86 5.584,-1.38 8.748,-1.404 l 0.63,14.376 1.749,-14.301 c 3.549,0.246 7.383,1.109 11.509,2.797 l 0.193,8.208 3.214,-6.656 c 0.14,0.07 0.286,0.152 0.427,0.224 l -0.125,-8.174 c -3.106,0.931 -6.113,1.67 -9.02,2.225 l -3.763,-12.784 -2.485,13.725 c -7.515,0.816 -14.312,0.391 -20.455,-0.936 l 0.753,-24.942 -4.849,23.901 c -5.416,-1.598 -10.279,-3.902 -14.622,-6.66 l 3.196,-14.472 -7.107,11.77 c -3.509,-2.623 -6.633,-5.519 -9.399,-8.518 l 2.57,-7.098 -4.293,5.168 c -4.762,-5.52 -8.366,-11.243 -10.974,-16.123 l 1.887,-6.277 -3.336,3.455 c -2.854,-5.792 -4.107,-9.825 -4.107,-9.825 6.108,-2.398 12.155,-3.852 18.083,-4.55 l 2.687,10.01 c 0,0 2.175,-5.774 3.508,-10.47 4.481,-0.14 8.88,0.137 13.173,0.748 l 0.54,17.248 c 0,0 3.583,-10.466 5.329,-16.197 5.064,1.093 9.953,2.629 14.627,4.462 v 18.196 l 7.884,-14.737 c 4.892,2.372 9.482,5.017 13.713,7.748 l -0.636,10.682 4.084,-8.383 c 0.286,0.198 0.569,0.397 0.853,0.595 l 1.926,-4.65 -3.85,3.247 c -2.115,-2.258 -4.291,-4.794 -6.442,-7.612 l 3.508,-9.407 -6.838,4.769 c -1.892,-2.807 -3.729,-5.843 -5.444,-9.118 1.704,-2.729 4.714,-7.992 4.714,-7.992 l -6.619,4.142 c -1.336,-2.86 -2.573,-5.881 -3.673,-9.068 1.42,-2.169 3.031,-5.212 3.031,-5.212 l -4.454,0.735 c -1.265,-4.353 -2.277,-8.986 -2.947,-13.911 0,0 1.839,-0.174 4.748,0.315 l -0.437,3.252 1.871,-2.972 c 2.507,0.554 5.584,1.588 8.885,3.491 l -0.838,4.375 2.006,-3.669 c 1.839,1.161 3.734,2.598 5.621,4.378 l -2.592,8.083 4.616,-6.041 c 2.151,2.332 4.272,5.147 6.267,8.539 l -7.732,9.674 9.179,-7.066 c 0.636,1.214 1.253,2.502 1.855,3.851 1.887,-0.837 5.08,-1.332 8.419,2.196 l -1.108,-8.398 c -1.611,-0.916 -5.257,-2.696 -7.685,-1.642 0,0 5.3,1.483 7.282,4.185 0,0 -6.508,3.624 -10.984,-5.852 0,0 5.639,-5.095 11.304,2.496 l -0.585,-10.115 c -9.606,0.497 -11.933,-11.934 -11.933,-11.934 1.506,-0.649 2.987,-0.699 4.405,-0.356 -1.799,-2.751 -3.328,-7.083 -1.333,-12.849 0,0 6.092,4.325 5.571,13.215 0,0 -2.088,-7.208 -4.351,-8.169 0,0 2.144,5.102 2.984,9.04 1.566,0.967 3.002,2.309 4.237,3.707 l -0.474,-19.585 c -7.16,1.892 -9.409,-7.083 -9.409,-7.083 2.856,-1.586 5.774,0.122 7.939,2.163 l -4.139,-9.95 c -3.792,4.755 -8.511,1.85 -8.511,1.85 1.113,-3.959 4.009,-5.73 6.572,-6.518 l -1.542,-3.703 c -3.896,8.421 -10.149,4.57 -10.149,4.57 1.516,-5.394 6.344,-6.729 9.121,-7.045 l -2.175,-5.227 c -5.441,6.093 -11.92,2.101 -11.92,2.101 1.529,-5.439 5.366,-8.046 8.927,-9.292 l -0.615,-1.482 -3.956,-5.459 c -1.844,2.905 -5.202,6.227 -10.006,3.283 -4.603,2.484 -9.026,-0.236 -9.026,-0.236 2.295,-8.17 9.802,-9.959 13.756,-10.325 l -8.864,-12.235 c -5.141,4.321 -10.693,0.898 -10.693,0.898 0.92,-3.276 2.682,-5.521 4.712,-7.065 -0.029,-0.042 -0.061,-0.088 -0.093,-0.131 -2.663,-0.079 -4.619,-1.281 -4.619,-1.281 0.21,-0.743 0.464,-1.43 0.753,-2.071 -2.25,-0.257 -3.824,-1.225 -3.824,-1.225 0.387,-1.38 0.925,-2.575 1.569,-3.615 -0.548,-0.498 -1.134,-1.006 -1.746,-1.522 -5.649,13.375 -15.178,7.491 -15.178,7.491 1.979,-7.054 7.848,-9.352 11.961,-10.084 -3.148,-2.438 -6.537,-4.83 -9.237,-6.675 -23.597,-0.373 -60.325,5.749 -61.131,5.749 -1.023,0 -53.578,24.96 -54.944,25.431 -1.364,0.471 -59.721,3.768 -61.085,3.768 -1.365,0 -19.453,-9.419 -19.453,-9.419 -18.316,-19.347 -50.86,-25.666 -70.739,-27.729 -7.743,5.103 -14.235,9.362 -14.235,9.362 0,0 -14.848,24.721 -17.407,28.253 -0.217,0.302 -0.564,0.869 -1.007,1.643 1.505,1.707 2.451,3.259 2.451,3.259 -1.844,0.88 -3.432,1.15 -4.802,1.022 -0.01,0.019 -0.021,0.04 -0.032,0.059 1.701,1.846 2.785,3.628 2.785,3.628 -2.03,0.969 -3.752,1.2 -5.21,0.971 -0.684,1.307 -1.399,2.686 -2.13,4.104 4.733,-0.184 9.256,2.425 9.256,2.425 -5.12,7.433 -9.988,6.979 -13.202,5.258 -1.598,3.128 -3.164,6.217 -4.571,9 8.382,-8.233 21.377,-7.375 21.377,-7.375 -4.757,15.018 -12.018,19.055 -17.837,19.505 0.832,0.464 1.646,0.937 2.433,1.424 l -1.065,8.401 4.566,-6.066 c 4.129,2.972 7.589,6.271 10.493,9.745 l -6.322,12.728 8.22,-10.328 c 2.459,3.289 4.46,6.697 6.081,10.107 l -5.114,6.136 6.519,-2.951 c 1.216,2.961 2.165,5.892 2.902,8.716 l -3.034,2.555 3.479,-0.765 c 1.185,5.047 1.712,9.676 1.919,13.412 l -2.48,2.435 2.567,-0.3 c 0.119,4.326 -0.18,7.006 -0.18,7.006 -3.774,-1.507 -7.285,-3.481 -10.557,-5.799 l 0.97,-6.46 c 0,0 -2.512,2.041 -4.325,3.898 -2.382,-1.954 -4.621,-4.091 -6.725,-6.353 l 3.816,-9.281 c 0,0 -4.364,3.863 -6.64,6.075 -2.393,-2.864 -4.59,-5.881 -6.604,-8.956 l 4.324,-9.534 -7.634,4.154 c -1.998,-3.456 -3.776,-6.919 -5.345,-10.264 l 2.872,-5.309 -4.131,2.545 c -0.032,-0.072 -0.061,-0.143 -0.093,-0.215 v 7.846 c 4.261,3.418 7.231,9.103 7.231,9.103 -2.936,1.081 -5.358,1.111 -7.354,0.517 -0.018,0.399 -0.04,0.833 -0.064,1.299 3.62,3.418 6.053,8.073 6.053,8.073 -2.584,0.951 -4.765,1.084 -6.614,0.7 -0.032,0.442 -0.069,0.888 -0.106,1.337 3.23,3.321 5.355,7.382 5.355,7.382 -2.377,0.875 -4.417,1.059 -6.166,0.784 -0.7,5.741 -1.656,10.872 -2.944,12.902 -3.583,5.651 -6.143,13.422 -6.143,13.422 0,0 -0.003,2.924 -0.48,5.688 1.54,-0.67 3.223,-1.259 5.069,-1.707 l 3.1,5.804 -0.834,-6.267 c 2.501,-0.419 5.255,-0.576 8.265,-0.363 l 1.15,10.282 1.115,-10.055 c 3.382,0.433 7.06,1.327 11.048,2.83 l 0.501,5.857 2.801,-4.504 c 5.074,2.246 10.608,5.449 16.618,9.869 0,0 -6.137,3.067 -15.515,4.961 l -1.683,-3.98 -0.31,4.356 c -2.438,0.426 -5.066,0.76 -7.841,0.939 l -3.339,-7.106 -1.11,7.249 c -2.623,0 -5.345,-0.155 -8.133,-0.513 -0.588,-2.557 -1.876,-7.288 -1.876,-7.288 l -1.341,6.787 c -0.625,-0.115 -1.253,-0.241 -1.884,-0.377 l 0.005,1.084 c 0,0 -0.214,-0.045 -0.625,-0.082 1.01,0.704 10.17,7.446 17.325,24.953 0,0 -13.39,-18.493 -22.432,-24.528 -0.146,0.03 -0.292,0.064 -0.44,0.099 1.728,1.272 9.039,7.344 14.395,22.504 0,0 -10.515,-15.508 -18.396,-21.254 -0.331,0.129 -0.67,0.266 -1.018,0.413 1.468,1.06 10.679,8.207 18.075,25.603 0,0 -12.025,-17.022 -21.207,-23.193 -0.209,0.639 -0.405,1.262 -0.586,1.863 3.699,2.79 10.793,9.305 17.195,21.859 0,0 -9.513,-11.414 -18.226,-17.909 -0.053,0.258 -0.101,0.507 -0.138,0.74 -0.127,0.803 -0.225,1.641 -0.294,2.504 3.8,3.015 8.71,7.964 13.48,15.842 0,0 -6.508,-6.469 -13.639,-11.565 -0.003,1.482 0.037,3.001 0.093,4.532 2.157,2.37 4.441,5.321 6.709,8.976 2.703,1.811 4.481,4.365 4.481,4.365 -2.364,3.831 -4.947,4.883 -7.327,4.608 1.537,1.747 3.092,3.635 4.653,5.691 0,0 -3.636,-3.157 -8.766,-7.108 -0.159,0.981 -0.339,1.998 -0.538,3.033 1.489,1.693 2.42,3.223 2.42,3.223 -0.625,0.298 -1.219,0.524 -1.786,0.69 1.91,1.976 3.153,4.019 3.153,4.019 -2.21,1.054 -4.051,1.233 -5.586,0.898 -0.034,0.166 -0.069,0.33 -0.101,0.494 3.482,0.678 6.588,4.457 7.979,6.4 3.543,-2.8 7.176,-3.316 9.124,-3.358 -1.253,-2.703 -1.913,-6.403 -0.318,-11.019 0,0 6.095,4.325 5.573,13.215 0,0 -2.091,-7.208 -4.354,-8.169 0,0 3.135,7.448 3.31,11.293 0,0 -1.635,-1.156 -3.116,-3.375 -0.771,3.629 -1.985,6.391 -3.416,8.499 3.177,-2.481 6.259,-4.361 9.225,-5.732 l 4.733,13.981 -2.271,-15.017 c 3.302,-1.251 6.447,-1.897 9.4,-2.09 l 1.229,9.196 1.473,-9.25 c 2.464,0.061 4.775,0.424 6.913,0.982 l 0.053,4.904 1.29,-4.522 c 3.75,1.158 6.908,2.883 9.344,4.536 l 0.26,4.185 1.118,-3.206 c 2.761,2.057 4.279,3.777 4.279,3.777 -2.856,3.715 -5.872,6.887 -8.983,9.599 l -3.538,-4.436 c 0,0 -0.002,4.022 0.233,7.123 -2.43,1.836 -4.9,3.412 -7.383,4.763 l -3.853,-9.252 c 0,0 0.193,7.15 0.419,10.98 -3.005,1.389 -6.005,2.467 -8.946,3.298 l -3.752,-9.984 -1.176,10.221 c 3.148,0.965 6.98,2.721 11.13,5.889 0,0 -11.077,-3.64 -19.225,-3.876 -0.379,0.028 -0.764,0.061 -1.137,0.083 l -0.026,-0.091 c -0.819,0.012 -1.593,0.065 -2.316,0.166 -0.088,0.104 -0.178,0.212 -0.268,0.322 1.561,-0.134 8.376,-0.23 16.62,6.987 0,0 -11.858,-4.47 -18.963,-3.825 -0.188,0.28 -0.376,0.569 -0.567,0.869 1.32,-0.127 9.754,-0.59 20.065,6.968 0,0 -14.1,-4.891 -22.132,-3.412 -0.291,0.543 -0.583,1.109 -0.875,1.701 2.112,-0.366 10.059,-1.187 20.042,4.729 0,0 -13.74,-3.128 -21.745,-1.021 -0.384,0.898 -0.766,1.845 -1.148,2.835 1.23,-0.448 9.065,-2.942 19.728,1.98 0,0 -12.703,-1.268 -20.219,1.609 -0.05,0.5 -0.109,1.037 -0.172,1.598 2.891,-0.677 9.32,-1.38 17.489,2.606 0,0 -10.631,-1.209 -17.916,0.895 -0.05,0.395 -0.103,0.796 -0.156,1.203 3.162,-0.604 9.222,-0.926 16.771,2.759 0,0 -9.988,-1.137 -17.238,0.709 -0.079,0.577 -0.159,1.158 -0.241,1.74 4.258,-0.943 12.804,-2.006 23.301,1.084 0,0 -13.732,-0.184 -23.799,2.408 -0.056,0.386 -0.111,0.767 -0.167,1.147 3.495,-0.384 8.949,-0.168 15.483,2.906 0,0 -8.768,-0.916 -15.976,0.448 -0.069,0.466 -0.135,0.919 -0.201,1.358 3.456,-0.466 9.142,-0.399 16.027,2.839 0,0 -9.238,-0.963 -16.541,0.563 -0.053,0.343 -0.101,0.655 -0.146,0.951 3.275,-0.29 8.297,0.069 14.31,3.173 0,0 -7.966,-1.023 -14.643,0.131 l 0.49,23.654 H 0.334 v -81.511 -32.337 -2.361 -4.469 -3.736 -2.964 -4.159 -2.454 -4.485 -2.275 -4.441 -0.635 -4.665 V 203.975 0.216 Z m 156.432,354.991 c 0,0 1.85,3.908 2.623,7.444 0.471,-0.139 0.941,-0.27 1.404,-0.395 -0.833,-2.425 -2.238,-5.743 -4.027,-7.049 z m 2.989,-0.452 c 0.953,1.714 1.72,4.065 1.894,7.273 2.077,-0.528 4.065,-0.917 5.957,-1.193 l 0.215,-5.066 c -2.703,-0.402 -5.413,-0.737 -8.066,-1.014 z m 11.209,-53.638 -2.048,-19.779 0.501,-2.41 c -2.229,0.691 -4.577,1.299 -7.033,1.761 l -3.122,-9.661 -1.585,10.344 c -0.642,0.066 -1.291,0.117 -1.94,0.159 6.103,5.972 11.347,13.344 15.841,21.48 -0.372,-1.167 -0.614,-1.894 -0.614,-1.894 z m 5.305,-96.364 5.774,-0.705 c 0.562,2.285 1.074,4.711 1.54,7.255 l 3.762,-5.551 -1.266,-9.615 c -0.734,0.336 -3.533,1.381 -6.514,-0.548 0.421,1.227 0.83,2.498 1.221,3.819 z m 2.714,-12.894 c 0,0 4.908,1.374 7.043,3.884 l -0.366,-2.78 c -1.836,-0.911 -4.671,-1.973 -6.677,-1.104 z M 394.789,94.977 c -0.119,0.299 -0.241,0.594 -0.363,0.876 0.251,-0.113 0.514,-0.212 0.781,-0.296 z m -2.824,6.463 c 0,0 2.493,-2.091 4.96,-3.514 l -0.999,-1.382 c -1.556,1.173 -3.572,3.013 -3.961,4.896 z M 304.491,42.175 c -0.607,-3.008 -2.058,-8.879 -4.523,-11.275 0,0 2.396,6.806 2.523,11.588 0.667,-0.108 1.331,-0.213 2,-0.313 z M 123.046,38.333 c 6.484,1.884 42.319,15.541 45.048,16.483 2.73,0.942 30.371,10.361 32.078,11.303 1.709,0.942 8.191,2.354 10.923,2.354 2.73,0 42.658,-9.89 67.228,-19.779 6.717,-2.704 14.79,-4.632 22.97,-6.009 -1.948,-2.369 -5.433,-8.25 -2.915,-18.049 0,0 7.961,3.87 6.678,17.454 3.084,-0.457 6.156,-0.84 9.151,-1.16 -3.811,-2.331 -5.676,-7.045 -5.676,-7.045 7.47,-6.307 17.489,5.33 17.489,5.33 -0.368,0.281 -0.729,0.54 -1.087,0.777 1.958,-0.134 3.829,-0.243 5.592,-0.333 -12.646,-6.842 -26.142,-14.042 -26.947,-14.042 -1.537,0 -31.738,-13.422 -31.738,-13.422 0,0 -8.141,-1.337 -14.88,-2.201 -0.018,4.383 -2.409,7.227 -2.409,7.227 -1.486,-2.153 -1.743,-5.037 -1.529,-7.688 -0.811,-0.083 -1.556,-0.15 -2.208,-0.194 0.05,4.487 -2.406,7.411 -2.406,7.411 -1.322,-1.913 -1.669,-4.403 -1.582,-6.794 -0.514,0.216 -1.137,0.481 -1.834,0.781 1.484,6.057 -2.046,10.251 -2.046,10.251 -1.688,-2.443 -1.788,-5.827 -1.418,-8.744 -0.347,0.152 -0.702,0.307 -1.06,0.465 -0.75,5.895 -3.856,9.591 -3.856,9.591 -1.372,-1.986 -2.112,-4.346 -2.443,-6.806 -3.8,1.686 -6.866,3.059 -6.866,3.059 0,0 -6.662,1.876 -13.47,3.695 -2.788,10.059 -10.629,10.185 -10.629,10.185 -0.133,-2.931 0.488,-5.547 1.497,-7.833 -2.531,0.614 -4.431,1.017 -5.043,1.017 -0.087,0 -0.193,-0.001 -0.315,-0.003 -2.187,5.726 -6.94,5.809 -6.94,5.809 -0.103,-2.288 0.456,-4.299 1.319,-6.015 -6.248,-0.305 -15.314,-0.941 -18.123,-1.91 -4.094,-1.413 -26.107,-11.303 -26.107,-11.303 l -18.428,11.303 c 0,0 -9.214,8.477 -16.382,13.422 -0.119,0.083 -0.249,0.173 -0.385,0.265 3.534,0.217 6.764,0.572 8.749,1.148 z M 25.415,221.054 c -0.079,0.348 -0.17,0.685 -0.273,1.005 l 0.951,1.305 z m 1.028,14.32 c -0.08,-0.025 -0.156,-0.045 -0.236,-0.07 -0.432,-2.081 -1.248,-4.722 -1.248,-4.722 l -2.054,3.569 c -0.822,-0.316 -1.645,-0.656 -2.467,-1.017 -0.559,1.432 -1.124,2.922 -1.667,4.409 2.505,-1.019 5.064,-1.766 7.672,-2.169 z m -5.042,37.982 c -1.073,-2.126 -3.728,-3.331 -5.875,-3.982 0.646,0.902 1.298,1.864 1.945,2.877 2.186,0.5 3.93,1.105 3.93,1.105 z m -5.285,-1.386 c -0.238,-0.222 -0.487,-0.453 -0.75,-0.693 -0.005,0.182 -0.013,0.37 -0.024,0.561 0.26,0.04 0.52,0.085 0.774,0.132 z m -0.797,-4.48 c 1.68,-0.312 3.283,0.03 4.717,0.687 -1.29,-1.207 -2.965,-2.726 -4.862,-4.329 0.055,1.228 0.105,2.445 0.145,3.642 z m 11.482,57.419 -0.71,-2.338 -0.273,3.311 c 0.323,-0.332 0.652,-0.657 0.983,-0.973 z m -0.413,-12.084 -1.343,-7.804 c -1.052,1.027 -2.154,1.814 -3.244,2.401 z m -10.009,27.437 c 1.945,-4.179 4.227,-8.104 6.898,-11.473 -2.745,-0.024 -5.255,-0.201 -7.451,-0.446 0.373,4.254 0.505,8.496 0.553,11.919 z m -5.096,-43.383 c 0.416,2.876 1.513,11.373 2.735,19.007 2.464,-3.123 4.894,-5.844 7.279,-8.21 -4.097,2.001 -7.878,1.425 -7.878,1.425 2.989,-5.099 12.29,-11.494 12.29,-11.494 -3.535,-1.493 -11.352,5.873 -11.352,5.873 1.094,-2.464 2.369,-4.399 3.718,-5.919 -3.103,0.468 -5.276,-0.989 -6.734,-2.788 -0.098,0.893 -0.129,1.617 -0.058,2.106 z"
   id="path24" />
<path
   fill="#575756"
   d="m 199.808,0.031 c -0.003,-0.01 -0.006,-0.019 -0.009,-0.029 h -2.324 c -0.005,0.01 -0.011,0.02 -0.016,0.029 H 0 v 380.725 l 4.864,-0.413 c -1.642,10.728 -2.296,18.325 -2.44,20.143 h 5.377 c 0.458,-4.734 0.967,-9.292 1.521,-13.673 13.996,-4.769 36.093,-1.925 36.093,-1.925 -7.669,-3.959 -14.531,-5.686 -20.203,-6.273 l 8.062,-0.684 -0.128,-2.997 c 9.367,-0.243 17.032,0.558 17.032,0.558 -6.316,-2.971 -12.126,-4.605 -17.24,-5.419 l -0.189,-4.432 c 9.683,-0.304 17.735,0.537 17.735,0.537 -2.734,-1.286 -5.37,-2.315 -7.9,-3.144 1.326,-1.709 2.777,-4.569 2.828,-8.934 12.23,-1.005 22.075,-0.874 22.075,-0.874 -14.277,-4.203 -26.758,-4.572 -35.974,-3.786 l -0.576,-3.495 c 12.403,-1.222 24.878,0.199 24.878,0.199 -10.308,-5.031 -19.23,-6.332 -25.878,-6.27 l -0.247,-1.503 c 0,0 -0.212,-0.614 -0.55,-1.607 13.661,-2.135 29.284,-0.357 29.284,-0.357 -13.509,-6.594 -24.643,-6.786 -31.384,-5.891 -0.365,-1.105 -0.734,-2.233 -1.083,-3.32 15.212,-4.749 38.285,-2.443 38.285,-2.443 -21.372,-9.865 -37.081,-4.868 -39.548,-3.969 0.764,-1.988 1.533,-3.889 2.303,-5.693 16.052,-4.217 43.59,2.057 43.59,2.057 -20.013,-11.859 -35.946,-10.213 -40.178,-9.479 0.588,-1.188 1.173,-2.324 1.755,-3.415 16.103,-2.962 44.369,6.845 44.369,6.845 -20.671,-15.151 -37.579,-14.225 -40.227,-13.969 0.384,-0.603 0.763,-1.184 1.139,-1.745 14.243,-1.292 38.015,7.67 38.015,7.67 C 58.932,288.59 45.269,288.78 42.138,289.049 c 0.185,-0.222 0.368,-0.442 0.548,-0.654 16.006,-2.238 45.506,7.463 45.506,7.463 -20.415,-15.584 -37.011,-14.158 -38.81,-13.949 0.363,-0.266 0.619,-0.435 0.765,-0.528 0.294,-0.014 0.585,-0.02 0.88,-0.041 0.476,-3.542 1.568,-10.075 1.568,-10.075 l 1.802,9.717 c 2.452,-0.352 4.933,-0.91 7.424,-1.719 0.336,-2.888 1.049,-6.524 1.049,-6.524 l 2.372,5.255 c 3.252,-1.363 6.503,-3.174 9.707,-5.532 0,0 -1.052,-2.089 -3.15,-4.917 l -1.564,2.507 0.509,-3.874 c -1.881,-2.351 -4.392,-5.018 -7.532,-7.381 l -1.949,3.638 0.82,-4.454 c -1.808,-1.254 -3.805,-2.392 -5.993,-3.313 l -2.946,7.85 0.527,-8.747 c -2.666,-0.86 -5.583,-1.38 -8.748,-1.404 l -0.63,14.376 -1.749,-14.301 c -3.546,0.246 -7.381,1.109 -11.507,2.797 l -0.195,8.208 -3.214,-6.656 c -0.14,0.07 -0.284,0.152 -0.425,0.224 l 0.123,-8.174 c 3.106,0.931 6.113,1.67 9.021,2.225 l 3.764,-12.784 2.486,13.725 c 7.513,0.816 14.311,0.391 20.453,-0.936 l -0.753,-24.942 4.85,23.901 c 5.418,-1.598 10.28,-3.902 14.624,-6.66 l -3.196,-14.472 7.108,11.77 c 3.507,-2.623 6.632,-5.519 9.4,-8.518 l -2.572,-7.098 4.294,5.168 c 4.762,-5.52 8.366,-11.243 10.973,-16.123 l -1.888,-6.277 3.338,3.455 c 2.853,-5.792 4.108,-9.825 4.108,-9.825 -6.109,-2.398 -12.155,-3.852 -18.085,-4.55 l -2.686,10.01 c 0,0 -2.175,-5.774 -3.508,-10.47 -4.481,-0.14 -8.88,0.137 -13.174,0.748 l -0.54,17.248 c 0,0 -3.583,-10.466 -5.329,-16.197 -5.064,1.093 -9.953,2.629 -14.628,4.462 v 18.196 L 47.501,206.16 c -4.891,2.372 -9.481,5.017 -13.713,7.748 l 0.638,10.682 -4.083,-8.383 c -0.289,0.198 -0.571,0.397 -0.856,0.595 l -1.925,-4.65 3.85,3.247 c 2.116,-2.258 4.291,-4.794 6.443,-7.612 l -3.508,-9.407 6.838,4.769 c 1.893,-2.807 3.729,-5.843 5.444,-9.118 -1.704,-2.729 -4.715,-7.992 -4.715,-7.992 l 6.62,4.142 c 1.335,-2.86 2.572,-5.881 3.674,-9.068 -1.422,-2.169 -3.032,-5.212 -3.032,-5.212 l 4.454,0.735 c 1.265,-4.353 2.275,-8.986 2.947,-13.911 0,0 -1.839,-0.174 -4.75,0.315 l 0.438,3.252 -1.872,-2.972 c -2.505,0.554 -5.584,1.588 -8.884,3.491 l 0.837,4.375 -2.005,-3.669 c -1.841,1.161 -3.733,2.598 -5.622,4.378 l 2.593,8.083 -4.616,-6.041 c -2.154,2.332 -4.273,5.147 -6.267,8.539 l 7.732,9.674 -9.179,-7.066 c -0.636,1.214 -1.254,2.502 -1.855,3.851 -1.888,-0.837 -5.082,-1.332 -8.42,2.196 l 1.107,-8.398 c 1.613,-0.916 5.259,-2.696 7.686,-1.642 0,0 -5.3,1.483 -7.283,4.185 0,0 6.509,3.624 10.984,-5.852 0,0 -5.64,-5.095 -11.305,2.496 l 0.586,-10.115 c 9.605,0.497 11.934,-11.934 11.934,-11.934 -1.505,-0.649 -2.987,-0.699 -4.406,-0.356 1.801,-2.751 3.329,-7.083 1.335,-12.849 0,0 -6.094,4.325 -5.572,13.215 0,0 2.089,-7.208 4.353,-8.169 0,0 -2.146,5.102 -2.984,9.04 -1.567,0.967 -3.002,2.309 -4.238,3.707 l 0.473,-19.585 c 7.161,1.892 9.41,-7.083 9.41,-7.083 -2.854,-1.586 -5.772,0.122 -7.939,2.163 l 4.139,-9.95 c 3.794,4.755 8.513,1.85 8.513,1.85 -1.112,-3.959 -4.01,-5.73 -6.571,-6.518 l 1.541,-3.703 c 3.897,8.421 10.149,4.57 10.149,4.57 -1.515,-5.394 -6.344,-6.729 -9.12,-7.045 l 2.175,-5.227 c 5.441,6.093 11.92,2.101 11.92,2.101 -1.528,-5.439 -5.366,-8.046 -8.928,-9.292 l 0.616,-1.482 3.956,-5.459 c 1.843,2.905 5.202,6.227 10.004,3.283 4.605,2.484 9.026,-0.236 9.026,-0.236 -2.296,-8.17 -9.802,-9.959 -13.756,-10.325 l 8.866,-12.235 c 5.141,4.321 10.691,0.898 10.691,0.898 -0.92,-3.276 -2.681,-5.521 -4.713,-7.065 0.031,-0.042 0.062,-0.088 0.093,-0.131 2.663,-0.079 4.619,-1.281 4.619,-1.281 -0.209,-0.743 -0.463,-1.43 -0.751,-2.071 2.247,-0.257 3.823,-1.225 3.823,-1.225 -0.388,-1.38 -0.926,-2.575 -1.568,-3.615 0.549,-0.498 1.134,-1.006 1.745,-1.522 5.65,13.375 15.181,7.491 15.181,7.491 -1.982,-7.054 -7.851,-9.352 -11.962,-10.084 3.147,-2.438 6.536,-4.83 9.237,-6.675 23.599,-0.373 60.325,5.749 61.131,5.749 1.024,0 53.578,24.96 54.944,25.431 1.365,0.471 59.722,3.768 61.086,3.768 1.365,0 19.452,-9.419 19.452,-9.419 18.316,-19.347 50.86,-25.666 70.74,-27.729 7.743,5.103 14.235,9.362 14.235,9.362 0,0 14.845,24.724 17.405,28.256 0.219,0.302 0.564,0.869 1.008,1.643 -1.507,1.707 -2.451,3.259 -2.451,3.259 1.843,0.88 3.432,1.15 4.8,1.022 0.01,0.019 0.021,0.04 0.031,0.059 -1.7,1.846 -2.784,3.628 -2.784,3.628 2.03,0.969 3.753,1.2 5.211,0.971 0.683,1.307 1.398,2.686 2.131,4.104 -4.733,-0.184 -9.259,2.425 -9.259,2.425 5.121,7.433 9.99,6.979 13.203,5.258 1.597,3.128 3.164,6.217 4.573,9 -8.383,-8.233 -21.379,-7.375 -21.379,-7.375 4.758,15.018 12.018,19.055 17.836,19.505 -0.83,0.464 -1.646,0.937 -2.433,1.424 l 1.066,8.401 -4.564,-6.066 c -4.13,2.972 -7.591,6.271 -10.494,9.745 l 6.321,12.728 -8.219,-10.328 c -2.46,3.289 -4.46,6.697 -6.08,10.107 l 5.113,6.136 -6.521,-2.951 c -1.215,2.961 -2.163,5.892 -2.901,8.716 l 3.033,2.555 -3.478,-0.765 c -1.183,5.047 -1.712,9.676 -1.918,13.412 l 2.48,2.435 -2.569,-0.3 c -0.119,4.326 0.182,7.006 0.182,7.006 3.771,-1.507 7.284,-3.481 10.556,-5.799 l -0.971,-6.46 c 0,0 2.512,2.041 4.326,3.898 2.381,-1.954 4.62,-4.091 6.725,-6.353 l -3.816,-9.281 c 0,0 4.364,3.863 6.641,6.075 2.393,-2.864 4.59,-5.881 6.604,-8.956 l -4.324,-9.534 7.633,4.154 c 1.999,-3.456 3.775,-6.919 5.344,-10.264 l -2.872,-5.309 4.131,2.545 c 0.032,-0.072 0.063,-0.143 0.095,-0.215 v 7.846 c -4.261,3.418 -7.233,9.103 -7.233,9.103 2.936,1.081 5.358,1.111 7.355,0.517 0.019,0.399 0.04,0.833 0.064,1.299 -3.62,3.418 -6.053,8.073 -6.053,8.073 2.583,0.951 4.765,1.084 6.613,0.7 0.034,0.442 0.069,0.888 0.106,1.337 -3.229,3.321 -5.354,7.382 -5.354,7.382 2.378,0.875 4.417,1.059 6.167,0.784 0.698,5.741 1.655,10.872 2.942,12.902 3.583,5.651 6.143,13.422 6.143,13.422 0,0 10e-4,2.924 0.48,5.688 -1.54,-0.67 -3.223,-1.259 -5.069,-1.707 l -3.102,5.804 0.836,-6.267 c -2.503,-0.419 -5.256,-0.576 -8.265,-0.363 l -1.15,10.282 -1.116,-10.055 c -3.381,0.433 -7.061,1.327 -11.049,2.83 l -0.5,5.857 -2.802,-4.504 c -5.074,2.246 -10.607,5.449 -16.616,9.869 0,0 6.135,3.067 15.515,4.961 l 1.683,-3.98 0.308,4.356 c 2.44,0.426 5.069,0.76 7.841,0.939 l 3.339,-7.106 1.11,7.249 c 2.624,0 5.345,-0.155 8.134,-0.513 0.588,-2.557 1.876,-7.288 1.876,-7.288 l 1.342,6.787 c 0.625,-0.115 1.253,-0.241 1.883,-0.377 l -0.005,1.084 c 0,0 0.214,-0.046 0.625,-0.082 -1.009,0.704 -10.169,7.446 -17.325,24.953 0,0 13.391,-18.493 22.432,-24.528 0.144,0.03 0.291,0.064 0.44,0.099 -1.729,1.272 -9.04,7.344 -14.395,22.504 0,0 10.515,-15.508 18.395,-21.254 0.332,0.129 0.671,0.266 1.018,0.413 -1.469,1.06 -10.679,8.207 -18.076,25.603 0,0 12.025,-17.022 21.209,-23.193 0.208,0.639 0.403,1.262 0.585,1.863 -3.699,2.79 -10.793,9.305 -17.196,21.859 0,0 9.515,-11.414 18.227,-17.909 0.052,0.258 0.099,0.507 0.137,0.74 0.129,0.803 0.225,1.64 0.296,2.504 -3.8,3.015 -8.712,7.964 -13.482,15.842 0,0 6.509,-6.469 13.639,-11.565 0.003,1.482 -0.036,3.001 -0.092,4.532 -2.155,2.37 -4.441,5.321 -6.708,8.976 -2.703,1.811 -4.483,4.365 -4.483,4.365 2.365,3.831 4.947,4.883 7.329,4.608 -1.537,1.747 -3.095,3.635 -4.656,5.691 0,0 3.636,-3.157 8.767,-7.108 0.159,0.981 0.341,1.998 0.537,3.033 -1.488,1.693 -2.419,3.223 -2.419,3.223 0.625,0.298 1.219,0.524 1.787,0.69 -1.911,1.976 -3.152,4.019 -3.152,4.019 2.208,1.054 4.051,1.233 5.586,0.898 0.034,0.166 0.068,0.33 0.1,0.494 -3.484,0.678 -6.589,4.457 -7.98,6.4 -3.543,-2.8 -7.175,-3.316 -9.122,-3.358 1.251,-2.703 1.912,-6.403 0.316,-11.019 0,0 -6.094,4.325 -5.572,13.215 0,0 2.09,-7.208 4.353,-8.169 0,0 -3.134,7.448 -3.308,11.293 0,0 1.635,-1.156 3.117,-3.375 0.77,3.629 1.983,6.391 3.413,8.499 -3.176,-2.481 -6.258,-4.361 -9.224,-5.732 l -4.731,13.981 2.269,-15.017 c -3.302,-1.251 -6.446,-1.897 -9.398,-2.09 l -1.231,9.196 -1.472,-9.25 c -2.466,0.061 -4.777,0.424 -6.914,0.982 l -0.053,4.904 -1.29,-4.522 c -3.751,1.158 -6.909,2.883 -9.345,4.536 l -0.259,4.185 -1.119,-3.206 c -2.76,2.057 -4.28,3.777 -4.28,3.777 2.857,3.716 5.874,6.888 8.984,9.599 l 3.538,-4.436 c 0,0 0.003,4.022 -0.234,7.123 2.43,1.836 4.901,3.412 7.383,4.763 l 3.853,-9.252 c 0,0 -0.193,7.15 -0.417,10.98 3.004,1.389 6.003,2.467 8.946,3.298 l 3.753,-9.984 1.176,10.222 c -3.148,0.965 -6.98,2.721 -11.13,5.889 0,0 11.076,-3.64 19.224,-3.876 0.379,0.028 0.764,0.061 1.138,0.083 l 0.027,-0.091 c 0.816,0.012 1.592,0.065 2.315,0.166 0.089,0.104 0.178,0.212 0.269,0.322 -1.562,-0.134 -8.378,-0.23 -16.622,6.987 0,0 11.86,-4.47 18.964,-3.825 0.187,0.28 0.376,0.569 0.567,0.869 -1.32,-0.127 -9.755,-0.59 -20.066,6.968 0,0 14.101,-4.891 22.134,-3.412 0.29,0.543 0.581,1.109 0.874,1.701 -2.111,-0.366 -10.059,-1.187 -20.042,4.729 0,0 13.74,-3.128 21.746,-1.021 0.383,0.898 0.766,1.845 1.146,2.835 -1.23,-0.448 -9.066,-2.942 -19.728,1.98 0,0 12.703,-1.268 20.217,1.609 0.051,0.5 0.11,1.038 0.174,1.598 -2.892,-0.677 -9.321,-1.38 -17.49,2.606 0,0 10.629,-1.209 17.915,0.895 0.051,0.395 0.103,0.796 0.156,1.203 -3.16,-0.604 -9.222,-0.926 -16.771,2.759 0,0 9.987,-1.137 17.237,0.709 0.079,0.577 0.16,1.158 0.242,1.74 -4.259,-0.943 -12.804,-2.006 -23.3,1.084 0,0 13.732,-0.184 23.798,2.408 0.055,0.386 0.111,0.767 0.166,1.147 -3.493,-0.384 -8.948,-0.168 -15.483,2.906 0,0 8.769,-0.916 15.976,0.448 0.07,0.466 0.137,0.919 0.203,1.358 -3.455,-0.466 -9.143,-0.399 -16.026,2.839 0,0 9.235,-0.963 16.541,0.563 0.052,0.343 0.1,0.655 0.145,0.951 -3.275,-0.29 -8.297,0.069 -14.31,3.173 0,0 7.965,-1.023 14.643,0.131 l -0.491,23.654 h 12.485 v -81.511 -32.34 -2.361 -4.469 -3.736 -2.964 -4.159 -2.454 -4.485 -2.275 -4.441 -0.635 -4.665 V 203.79 0.031 Z M 43.375,355.021 c 0,0 -1.848,3.908 -2.622,7.444 -0.473,-0.139 -0.94,-0.27 -1.404,-0.395 0.834,-2.424 2.239,-5.743 4.026,-7.049 z m -2.988,-0.452 c -0.955,1.714 -1.72,4.065 -1.894,7.273 -2.079,-0.528 -4.067,-0.917 -5.957,-1.193 l -0.216,-5.066 c 2.705,-0.402 5.416,-0.737 8.067,-1.014 z m -11.209,-53.637 2.048,-19.779 -0.499,-2.41 c 2.227,0.69 4.575,1.299 7.032,1.761 l 3.122,-9.661 1.583,10.344 c 0.642,0.066 1.29,0.117 1.942,0.159 -6.105,5.972 -11.348,13.344 -15.844,21.48 0.375,-1.168 0.616,-1.894 0.616,-1.894 z M 23.873,204.567 18.1,203.862 c -0.563,2.285 -1.074,4.711 -1.539,7.255 l -3.763,-5.551 1.267,-9.615 c 0.734,0.336 3.532,1.381 6.513,-0.548 -0.422,1.227 -0.831,2.498 -1.222,3.819 z m -2.715,-12.893 c 0,0 -4.906,1.374 -7.042,3.884 l 0.366,-2.78 c 1.836,-0.912 4.672,-1.974 6.676,-1.104 z M 40.857,94.791 c 0.119,0.299 0.24,0.594 0.363,0.876 -0.253,-0.113 -0.514,-0.212 -0.783,-0.296 z m 2.824,6.463 c 0,0 -2.495,-2.091 -4.962,-3.514 l 1.001,-1.382 c 1.555,1.174 3.571,3.014 3.961,4.896 z m 87.474,-59.265 c 0.606,-3.008 2.058,-8.879 4.523,-11.275 0,0 -2.396,6.806 -2.523,11.588 -0.667,-0.108 -1.334,-0.212 -2,-0.313 z m 181.444,-3.841 c -6.484,1.884 -42.317,15.541 -45.047,16.483 -2.73,0.942 -30.372,10.361 -32.079,11.303 -1.707,0.942 -8.19,2.354 -10.92,2.354 -2.73,0 -42.658,-9.89 -67.229,-19.779 -6.718,-2.704 -14.79,-4.632 -22.971,-6.009 1.948,-2.369 5.433,-8.25 2.915,-18.049 0,0 -7.958,3.87 -6.677,17.454 -3.084,-0.457 -6.155,-0.84 -9.149,-1.16 3.81,-2.331 5.675,-7.045 5.675,-7.045 -7.469,-6.307 -17.488,5.33 -17.488,5.33 0.367,0.281 0.729,0.54 1.084,0.777 -1.957,-0.134 -3.827,-0.243 -5.59,-0.333 12.644,-6.842 26.141,-14.042 26.947,-14.042 1.536,0 31.738,-13.422 31.738,-13.422 0,0 8.14,-1.337 14.88,-2.201 0.019,4.383 2.408,7.227 2.408,7.227 1.488,-2.153 1.743,-5.037 1.529,-7.688 0.812,-0.083 1.557,-0.15 2.207,-0.194 -0.048,4.487 2.407,7.411 2.407,7.411 1.322,-1.913 1.67,-4.403 1.581,-6.794 0.516,0.216 1.138,0.481 1.834,0.781 -1.482,6.057 2.046,10.251 2.046,10.251 1.688,-2.443 1.791,-5.827 1.419,-8.744 0.347,0.152 0.701,0.307 1.059,0.465 0.752,5.895 3.858,9.591 3.858,9.591 1.372,-1.986 2.112,-4.346 2.443,-6.806 3.798,1.686 6.866,3.059 6.866,3.059 0,0 6.661,1.876 13.468,3.695 2.789,10.059 10.628,10.185 10.628,10.185 0.132,-2.931 -0.487,-5.547 -1.497,-7.833 2.533,0.614 4.432,1.017 5.043,1.017 0.087,0 0.195,-10e-4 0.315,-0.003 2.188,5.726 6.94,5.809 6.94,5.809 0.104,-2.288 -0.455,-4.299 -1.318,-6.015 6.247,-0.305 15.313,-0.941 18.121,-1.91 C 264.14,21.9 286.152,12.01 286.152,12.01 l 18.428,11.303 c 0,0 9.214,8.477 16.381,13.422 0.121,0.083 0.25,0.173 0.385,0.265 -3.53,0.216 -6.763,0.571 -8.747,1.148 z m 97.631,182.72 c 0.081,0.348 0.171,0.685 0.272,1.005 l -0.951,1.305 z m -1.028,14.321 c 0.079,-0.025 0.157,-0.045 0.236,-0.07 0.43,-2.081 1.247,-4.722 1.247,-4.722 l 2.055,3.569 c 0.822,-0.316 1.645,-0.656 2.469,-1.017 0.559,1.432 1.123,2.922 1.665,4.409 -2.503,-1.02 -5.065,-1.766 -7.672,-2.169 z m 5.044,37.982 c 1.073,-2.126 3.728,-3.331 5.873,-3.982 -0.647,0.902 -1.296,1.864 -1.945,2.877 -2.184,0.499 -3.928,1.105 -3.928,1.105 z m 5.282,-1.386 c 0.238,-0.222 0.488,-0.453 0.75,-0.693 0.005,0.182 0.014,0.37 0.024,0.561 -0.259,0.039 -0.517,0.084 -0.774,0.132 z m 0.8,-4.48 c -1.682,-0.312 -3.284,0.03 -4.717,0.687 1.289,-1.207 2.964,-2.726 4.862,-4.329 -0.055,1.227 -0.107,2.445 -0.145,3.642 z m -11.483,57.418 0.709,-2.338 0.273,3.311 c -0.323,-0.332 -0.65,-0.657 -0.982,-0.973 z m 0.413,-12.083 1.345,-7.804 c 1.051,1.027 2.153,1.814 3.243,2.401 z m 10.01,27.437 c -1.947,-4.179 -4.228,-8.104 -6.9,-11.473 2.746,-0.024 5.255,-0.201 7.452,-0.446 -0.374,4.254 -0.507,8.496 -0.552,11.919 z m 5.095,-43.384 c -0.417,2.876 -1.513,11.373 -2.734,19.007 -2.464,-3.123 -4.894,-5.844 -7.28,-8.21 4.096,2.001 7.877,1.425 7.877,1.425 -2.987,-5.099 -12.29,-11.494 -12.29,-11.494 3.537,-1.493 11.353,5.873 11.353,5.873 -1.093,-2.464 -2.37,-4.398 -3.718,-5.919 3.103,0.468 5.275,-0.989 6.734,-2.788 0.099,0.893 0.129,1.618 0.058,2.106 z"
   id="path26" />
<linearGradient
   id="SVGID_3_"
   gradientUnits="userSpaceOnUse"
   x1="218.3165"
   y1="357.1611"
   x2="218.3165"
   y2="399.90851"
   gradientTransform="translate(-0.818,0.577)">
	<stop
   offset="0.3252"
   style="stop-color:#A8BE4B"
   id="stop28" />
	<stop
   offset="1"
   style="stop-color:#8DAE44"
   id="stop30" />
</linearGradient>
<path
   fill="url(#SVGID_3_)"
   d="m 434.836,366.287 c -1.089,-1.451 -2.049,-2.231 -2.049,-2.231 1.143,9.161 -7.314,14.214 -7.314,14.214 1.371,-1.896 -1.829,-8.528 -1.829,-8.528 -0.457,8.845 -7.999,15.162 -7.999,15.162 2.514,-6.949 -2.971,-12.319 -2.971,-12.319 -0.457,6.318 -6.857,6.949 -6.857,6.949 -4.571,-4.106 -1.371,-17.057 -1.371,-17.057 -3.428,1.58 -6.857,16.109 -6.857,16.109 1.6,-9.476 -6.399,-18.636 -6.399,-18.636 -0.229,13.582 -7.542,21.479 -7.542,21.479 -4.571,-3.475 -5.485,-15.794 -5.485,-15.794 -3.2,2.843 -6.171,17.373 -6.171,17.373 0.686,-5.685 -2.971,-11.687 -2.971,-11.687 0.914,2.527 -2.058,7.581 -2.058,7.581 1.143,-4.107 -2.057,-8.213 -2.057,-8.213 0.457,5.685 -4.571,14.214 -4.571,14.214 2.742,-10.74 -2.742,-22.426 -2.742,-22.426 1.371,6.95 -4.801,16.741 -4.801,16.741 -8.914,-6.633 -5.485,-13.583 -5.485,-13.583 -5.943,2.843 -10.056,13.898 -10.056,13.898 1.828,-7.581 -4.343,-20.532 -4.343,-20.532 2.514,12.635 -6.171,24.006 -6.171,24.006 0.914,-8.529 -7.771,-14.846 -7.771,-14.846 1.828,3.475 -3.428,11.687 -3.428,11.687 -2.514,-3.159 -0.914,-7.265 -0.914,-7.265 -3.886,0 -8.457,6.949 -8.457,6.949 -0.457,-8.844 -6.628,-14.214 -6.628,-14.214 0,3.159 -4.571,12.319 -4.571,12.319 l 1.6,-15.478 -7.314,18.636 c -7.314,-0.948 -3.886,-14.846 -3.886,-14.846 -6.536,2.657 -10.968,14.47 -12.213,18.16 1.593,-6.161 -2.872,-13.738 -2.872,-13.738 0.685,6.317 -2.286,9.792 -2.286,9.792 2.057,-8.213 -3.885,-22.426 -3.885,-22.426 0.686,18.004 -6.857,28.428 -6.857,28.428 0.229,-4.106 -3.657,-16.109 -4.343,-16.425 0,8.213 -4.343,14.53 -4.343,14.53 0.686,-5.686 -5.028,-11.056 -5.028,-11.056 0.457,3.475 -5.714,12.635 -5.714,12.635 -4.8,-9.792 0,-21.794 0,-21.794 -5.943,0.316 -10.971,18.636 -10.971,18.636 0.686,-7.897 -2.286,-16.425 -2.286,-16.425 0.251,5.546 -1.983,11.277 -4.051,15.325 v -3.322 c 1.828,-8.845 -4.799,-14.214 -4.799,-14.214 1.143,9.161 -7.314,14.214 -7.314,14.214 1.371,-1.896 -1.828,-8.528 -1.828,-8.528 -0.457,8.845 -7.999,15.162 -7.999,15.162 2.514,-6.949 -2.971,-12.319 -2.971,-12.319 -0.457,6.318 -6.857,6.949 -6.857,6.949 -4.571,-4.106 -1.371,-17.057 -1.371,-17.057 -3.428,1.58 -6.857,16.109 -6.857,16.109 1.6,-9.476 -6.4,-18.636 -6.4,-18.636 -0.228,13.582 -7.542,21.479 -7.542,21.479 -4.571,-3.475 -5.485,-15.794 -5.485,-15.794 -3.2,2.843 -6.171,17.373 -6.171,17.373 0.686,-5.685 -2.971,-11.687 -2.971,-11.687 0.914,2.527 -2.057,7.581 -2.057,7.581 1.143,-4.107 -2.057,-8.213 -2.057,-8.213 0.457,5.685 -4.571,14.214 -4.571,14.214 2.743,-10.74 -2.743,-22.426 -2.743,-22.426 1.371,6.95 -4.8,16.741 -4.8,16.741 -8.914,-6.633 -5.485,-13.583 -5.485,-13.583 -5.943,2.843 -10.056,13.898 -10.056,13.898 1.828,-7.581 -4.343,-20.532 -4.343,-20.532 2.514,12.635 -6.171,24.006 -6.171,24.006 0.914,-8.529 -7.771,-14.846 -7.771,-14.846 1.828,3.475 -3.428,11.687 -3.428,11.687 -2.514,-3.159 -0.914,-7.265 -0.914,-7.265 -3.886,0 -8.457,6.949 -8.457,6.949 -0.457,-8.844 -6.628,-14.214 -6.628,-14.214 0,3.159 -4.571,12.319 -4.571,12.319 l 1.6,-15.478 -7.314,18.636 c -7.314,-0.948 -3.886,-14.846 -3.886,-14.846 -6.535,2.657 -10.968,14.47 -12.213,18.16 1.593,-6.161 -2.872,-13.738 -2.872,-13.738 0.686,6.317 -2.286,9.792 -2.286,9.792 2.057,-8.213 -3.885,-22.426 -3.885,-22.426 0.686,18.004 -6.857,28.428 -6.857,28.428 0.229,-4.106 -3.657,-16.109 -4.343,-16.425 0,8.213 -4.343,14.53 -4.343,14.53 0.686,-5.686 -5.028,-11.056 -5.028,-11.056 0.457,3.475 -5.714,12.635 -5.714,12.635 -4.8,-9.792 0,-21.794 0,-21.794 C 14.818,364.37 9.79,382.69 9.79,382.69 10.476,374.793 7.504,366.265 7.504,366.265 7.961,376.373 0.163,387.112 0.163,387.112 v 13.371 h 217.068 3.29 214.318 v -34.196 z"
   id="path33"
   style="fill:url(#SVGID_3_)" />
<path
   fill="#74a522"
   d="m 434.836,109.741 v -40.73 c -0.065,-0.212 -0.131,-0.426 -0.193,-0.635 -4.685,-0.14 -9.284,0.137 -13.772,0.748 l -0.564,17.249 c 0,0 -3.745,-10.466 -5.571,-16.198 -5.294,1.094 -10.406,2.63 -15.292,4.462 v 18.197 l -8.243,-14.738 c -5.113,2.372 -9.912,5.018 -14.336,7.748 l 0.666,10.682 -4.269,-8.383 c -16.926,11.119 -27.477,22.78 -27.477,22.78 12.45,6.416 23.666,10.236 33.756,12.079 l 3.934,-12.784 2.599,13.725 c 7.855,0.815 14.961,0.39 21.382,-0.937 l -0.787,-24.942 5.069,23.901 c 5.664,-1.598 10.748,-3.902 15.289,-6.66 l -3.342,-14.472 7.43,11.77 c 1.292,-0.921 2.529,-1.879 3.721,-2.862 z"
   id="path35" />
<path
   fill="#74a522"
   d="m 340.923,0.001 4.993,23.538 c 5.664,-1.598 10.748,-3.902 15.289,-6.66 l -3.342,-14.472 7.431,11.77 c 3.667,-2.623 6.933,-5.519 9.827,-8.518 L 372.978,0 h -32.055 z m -47.447,0 c -8.561,7.022 -13.514,12.496 -13.514,12.496 12.45,6.416 23.666,10.236 33.756,12.079 l 3.934,-12.784 2.599,13.725 c 7.855,0.815 14.961,0.39 21.382,-0.937 L 340.857,0 h -47.381 z m 80.206,0 3.239,3.73 c 1.116,-1.237 2.161,-2.484 3.157,-3.73 z"
   id="path37" />
<path
   fill="#a8be4b"
   d="m 434.836,34.595 c -1.548,-1.578 -3.207,-3.102 -5.007,-4.521 l -5.455,9.799 2.414,-12.011 c -3.374,-2.256 -7.149,-4.132 -11.351,-5.419 l -3.656,19.834 0.48,-20.67 c -4.762,-1.058 -10.027,-1.364 -15.842,-0.638 l -1.868,11.388 -2.967,-10.566 c -7.466,1.592 -15.758,4.83 -24.953,10.225 0,0 7.863,9.593 20.446,18.696 l 3.127,-6.972 -0.449,8.853 c 3.288,2.234 6.853,4.396 10.65,6.327 l 6.044,-12.263 0.075,15.076 c 3.627,1.486 7.42,2.726 11.345,3.598 1.329,-4.76 4.06,-13.456 4.06,-13.456 l 0.489,14.287 c 3.327,0.477 6.735,0.677 10.204,0.531 0.678,-2.613 1.646,-5.621 2.212,-7.328 v -24.77 z"
   id="path39" />
<path
   fill="#a8be4b"
   d="M 27.937,14.594 31.777,4.158 C 30.547,2.647 29.309,1.273 28.068,0.002 H 16.504 L 11.016,10.206 14.554,0.001 H 1 v 27.151 c 1.642,0.872 3.292,1.656 4.94,2.36 l 6.919,-11.994 -1.233,14.12 c 3.613,1.17 7.165,1.991 10.548,2.555 l 3.709,-7.396 -0.924,7.807 C 38.163,36.322 48.192,34.276 48.192,34.276 44.029,23.392 39.534,14.877 34.884,8.269 Z"
   id="path41" />
<path
   fill="#74a522"
   d="m 19.119,0.836 0.66,-0.835 h -1.561 c 0.302,0.278 0.594,0.56 0.901,0.835 z m 47.322,9.839 -3.001,2.037 2.299,-4.645 C 65.038,5.605 64.141,2.87 63.022,0.001 H 25.523 l -0.932,5.414 c 3.275,2.538 6.754,4.887 10.426,6.916 2.115,-4.234 6.276,-11.88 6.276,-11.88 l -1.991,14.058 c 3.157,1.465 6.441,2.685 9.844,3.586 1.66,-3.493 4.105,-7.665 4.105,-7.665 l 0.637,8.695 c 4.575,0.778 9.343,0.971 14.289,0.417 0,10e-4 -0.387,-3.542 -1.736,-8.867 z"
   id="path43" />
<path
   fill="#a8be4b"
   d="m 60.671,104.611 -3.845,8.383 0.6,-10.682 c -3.985,-2.73 -8.308,-5.377 -12.913,-7.748 l -7.425,14.738 V 91.105 c -4.401,-1.832 -9.006,-3.368 -13.775,-4.462 -1.644,5.731 -5.018,16.198 -5.018,16.198 L 17.786,85.592 C 13.743,84.981 9.6,84.704 5.38,84.844 4.124,89.54 2.076,95.314 2.076,95.314 L 1,91.055 v 23.84 L 2.126,113.456 1,116.756 V 122 c 2.277,2.482 4.788,4.874 7.556,7.072 l 6.693,-11.77 -3.01,14.472 c 4.091,2.758 8.67,5.062 13.772,6.66 l 4.566,-23.901 -0.709,24.942 c 5.784,1.327 12.186,1.752 19.261,0.937 l 2.342,-13.725 3.544,12.784 c 9.089,-1.843 19.192,-5.664 30.407,-12.079 0,-10e-4 -9.504,-11.662 -24.751,-22.781 z"
   id="path45" />
<path
   fill="#74a522"
   d="M 43.416,38.745 40.744,49.311 39.061,37.923 c -5.238,-0.726 -9.98,-0.42 -14.27,0.638 l 0.432,20.67 -3.293,-19.834 c -3.785,1.287 -7.185,3.163 -10.225,5.419 L 13.88,56.827 8.967,47.028 c -2.456,2.15 -4.646,4.528 -6.589,6.994 L 4.145,59.919 1.169,55.608 C 0.853,56.037 0.551,56.469 0.25,56.9 v 25.995 c 0.628,0.123 1.255,0.236 1.88,0.329 l 1.911,-8.275 c 0,0 1.496,4.798 2.408,8.698 3.125,0.146 6.195,-0.054 9.192,-0.531 l 0.44,-14.287 c 0,0 2.46,8.696 3.657,13.456 3.536,-0.872 6.953,-2.112 10.22,-3.598 l 0.068,-15.076 5.444,12.263 c 3.421,-1.932 6.633,-4.093 9.594,-6.327 l -0.404,-8.853 2.816,6.972 C 58.81,58.563 65.894,48.97 65.894,48.97 57.611,43.575 50.141,40.337 43.416,38.745 Z"
   id="path47" />
<path
   fill="#8dae44"
   d="m 111.733,9.017 c 0,0 0.411,-3.725 0.404,-9.016 h -8.808 c 1.986,3.18 4.711,6.248 8.404,9.016 z m 9.388,2.789 c 0,0 1.544,-4.961 2.593,-11.805 h -9.049 c 1.323,3.817 3.387,7.788 6.456,11.805 z m 7.168,-11.805 c 0.558,2.599 1.358,5.345 2.454,8.245 0,0 2.072,-3.234 4.346,-8.245 z"
   id="path49" />
<path
   fill="#dedc00"
   d="m 87.942,18.164 c 0,0 2.569,-8.259 3.331,-18.162 h -11.37 c 0.875,5.663 3.221,11.855 8.039,18.162 z M 67.133,0.001 c 1.837,5.378 5.302,10.787 11.42,15.373 0,0 0.769,-6.963 0.184,-15.373 H 67.133 Z m 27.051,0 c 0.32,4.354 1.344,9.216 3.379,14.603 0,0 3.932,-6.135 6.907,-14.603 z"
   id="path51" />
<path
   fill="#a2c43c"
   d="m 144.378,8.31 c 0,0 0.375,-3.397 0.402,-8.309 h -8.35 c 1.942,2.927 4.529,5.747 7.948,8.309 z m 9.388,2.789 c 0,0 1.439,-4.623 2.482,-11.098 h -8.684 c 1.329,3.6 3.322,7.328 6.202,11.098 z m 7.325,-11.098 c 0.548,2.389 1.3,4.9 2.297,7.539 0,0 1.879,-2.932 4.022,-7.539 z"
   id="path53" />
<path
   fill="#dedc00"
   d="m 216.604,0.001 c 0.525,3.41 1.474,7.097 2.975,11.071 0,0 2.872,-4.482 5.564,-11.071 z m -26,0 c 2.031,4.177 5.189,8.26 9.965,11.841 0,0 0.563,-5.1 0.359,-11.841 z m 19.353,14.631 c 0,0 1.982,-6.371 2.98,-14.63 h -10.293 c 1.209,4.665 3.479,9.611 7.313,14.63 z"
   id="path55" />
<path
   fill="#dedc00"
   d="m 239.137,20.435 c 0,0 7.551,-7.55 8.613,-20.434 h -12.072 c -0.659,7.002 -0.043,14.387 3.459,20.434 z m 19.526,-6.483 c 0,0 3.006,-5.786 3.741,-13.951 h -11.042 c 1.231,5.489 3.46,10.558 7.301,13.951 z m 7.744,-13.951 c 2.199,4.818 5.276,8.884 9.59,10.799 0,0 1.28,-4.581 1.263,-10.799 z"
   id="path57" />
<path
   fill="#a8be4b"
   d="m 383.798,5.738 c 1.315,-1.948 2.426,-3.863 3.36,-5.737 h -5.243 c 1.014,3.527 1.883,5.737 1.883,5.737 z m 21.285,-5.737 c -1.665,6.897 -2.1,12.505 -2.1,12.505 7.7,-2.73 12.411,-7.389 15.248,-12.505 z m -12.569,0 c -0.232,6.955 0.391,12.239 0.391,12.239 4.992,-3.761 8.283,-7.972 10.395,-12.239 z"
   id="path59" />
<path
   fill="none"
   stroke="#ffffff"
   stroke-width="0.5"
   stroke-linecap="round"
   stroke-linejoin="round"
   stroke-dasharray="1, 1, 1, 1, 1, 1"
   d="m 0.327,388.065 c 0,0 6.779,-6.255 7.191,-12.131 0,0 2.605,4.55 1.371,10.616 0,0 6.307,-13.459 8.775,-16.492 0,0 -3.016,11.184 2.742,18.008 0,0 6.033,-5.119 6.581,-9.857 0,0 3.702,1.137 3.428,7.582 -0.274,6.445 -0.137,1.706 -0.137,1.706 0,0 6.307,-5.308 6.444,-11.563 0,0 3.565,7.583 2.331,12.321 0,0 6.581,-2.654 9.049,-22.746 0,0 3.427,9.098 1.234,17.059 0,0 3.702,-1.138 4.524,-5.876 0,0 2.194,4.171 1.097,8.909 l -0.137,4.17 c 0,0 6.718,-16.301 11.654,-20.093 0,0 -2.331,10.993 5.758,12.889 l 5.073,-11.941 -0.411,11.563 c 0,0 5.758,-8.909 5.896,-12.7 0,0 5.759,3.791 4.936,14.216 0,0 5.347,-7.014 7.129,-7.582 0,0 2.742,5.119 3.976,6.256 0,0 5.073,-6.825 4.524,-10.805 0,0 6.581,5.497 5.484,12.51 l -0.686,2.275 c 0,0 7.678,-5.875 9.049,-19.903 0,0 3.702,8.719 0.823,15.353 l -1.371,3.602 c 0,0 7.267,-10.047 11.243,-15.354 0,0 1.782,10.237 7.815,12.132 0,0 5.892,-8.485 5.788,-13.536 0,0 2.818,9.236 0.209,19.628 0,0 6.368,-6.639 6.368,-13.422 0,0 2.088,2.599 1.044,6.351 0,0 3.027,-2.597 3.236,-6.206 0,0 2.818,5.052 1.462,10.68 -1.357,5.629 0.209,1.732 0.209,1.732 0,0 4.698,-14.432 5.533,-16.453 0,0 3.341,11.689 6.577,13.278 0,0 8.56,-10.535 8.56,-20.638 0,0 6.577,5.485 5.324,15.443 v 3.608 c 0,0 3.341,-10.824 4.906,-12.989 0,0 -1.148,8.082 3.341,11.546 0,0 7.517,-1.732 7.725,-5.196 0,0 4.489,3.031 0.939,11.114 0,0 8.247,-4.33 9.813,-12.845 0,0 1.566,2.598 0.626,5.34 0,0 7.516,-1.153 9.395,-11.979 0,0 5.011,3.031 2.401,16.597 0,0 5.01,-4.474 5.637,-11.69 0,0 1.775,6.349 1.044,11.834 l 0.73,1.444 c 0,0 4.384,-13.711 8.456,-18.185 0,0 -1.357,14.289 2.401,20.927 0,0 5.951,-7.939 6.473,-12.268 0,0 4.698,3.464 3.863,8.949 0,0 6.054,-2.743 5.741,-11.691 0,0 3.445,9.526 3.028,14.433 0,0 8.769,-9.381 8.56,-24.969 0,0 4.489,12.412 1.357,18.907 0,0 4.489,-0.722 4.698,-7.794 0,0 2.818,6.35 0.835,12.989 0,0 5.742,-11.836 11.275,-18.186 0,0 -2.193,11.402 6.055,13.856 l 5.22,-13.133 -0.418,11.113 c 0,0 5.637,-7.072 5.846,-11.835 0,0 4.593,4.618 4.906,12.123 v 1.876 c 0,0 4.593,-6.64 8.247,-7.938 0,0 0.313,5.053 2.296,6.496 0,0 5.324,-5.629 5.011,-10.536 0,0 6.681,6.783 5.428,14.577 0,0 8.769,-8.948 8.247,-20.494 0,0 4.593,8.371 1.983,16.886 0,0 6.89,-12.557 9.5,-12.413 0,0 1.775,9.67 7.308,11.258 0,0 4.906,-5.918 5.324,-12.701 0,0 3.966,9.814 0.209,20.206 0,0 6.578,-7.65 6.786,-13.422 0,0 1.67,3.175 0.73,5.918 0,0 3.445,-2.886 3.55,-5.628 0,0 2.609,5.051 1.774,10.535 0,0 5.011,-14.721 5.846,-16.742 0.209,0.722 2.401,13.135 6.159,14.289 0,0 8.769,-9.094 8.769,-18.908 0,0 6.472,7.506 4.802,16.887 0,0 3.758,-10.104 5.324,-13.567 0,0 -0.627,11.257 3.132,14.144 0,0 7.516,-1.588 7.725,-6.062 0,0 4.072,3.897 0.731,10.68 0,0 6.368,-0.721 9.917,-11.834 0,0 1.879,2.164 -0.313,5.773 0,0 8.78,-2.163 10.127,-11.979 0,0 1.347,1.3 1.347,3.464"
   id="path61" />
<path
   id="path63"
   d="m 383.344,303.111 c 3.232,-0.721 6.22,-9.719 5.923,-15.016 -0.072,2.911 -0.535,5.935 -1.593,8.211 -0.724,1.556 -1.494,2.861 -2.247,4.377 -0.667,1.345 -1.118,3.255 -1.796,4.463 0.929,-2.001 2.217,-3.08 2.983,-5.334 0.617,-1.819 0.924,-3.293 1.107,-5.366 0.222,-2.514 -0.2,-6.549 1.217,-8.197 0.742,0.944 0.393,6.246 0.107,7.816 -0.287,1.573 -1.046,3.333 -1.577,4.655 -0.708,1.766 -1.662,3.104 -2.455,4.75 -0.781,1.62 -1.379,3.484 -2.253,4.971 1.366,-2.768 3.528,-4.5 4.668,-7.642 0.731,-2.011 0.809,-4.297 0.805,-6.571 -0.004,-2.478 0.085,-4.959 0.195,-7.335 0.126,3.916 -0.403,7.948 -0.769,11.799 -0.138,1.46 -0.321,2.841 -0.757,4.13 -0.539,1.594 -1.417,2.803 -1.948,4.386 1.78,-3.429 3.654,-9.054 3.755,-13.758 0.06,-2.799 -0.03,-5.461 0.256,-8.207 0.262,2.275 -0.674,5.984 -1.027,8.179 -0.417,2.59 -0.883,4.979 -1.452,7.486 -0.564,2.484 -0.938,3.983 -1.732,6.057"
   stroke-width="0.2835"
   stroke="#c05821"
   fill="none" /><path
   id="path65"
   d="m 311.712,110.812 c 4.448,4.678 7.042,10.145 5.796,12.209 -1.246,2.065 -5.862,-0.053 -10.31,-4.731 -4.447,-4.678 -7.043,-10.143 -5.796,-12.21 1.245,-2.064 5.862,0.055 10.31,4.732 z"
   fill="#c05821" /><path
   id="path67"
   d="m 334.592,119.232 c -3.543,5.87 -7.685,9.296 -9.249,7.651 -1.564,-1.647 0.041,-7.739 3.585,-13.61 3.543,-5.871 7.685,-9.297 9.249,-7.651 1.564,1.646 -0.041,7.738 -3.585,13.61 z"
   fill="#c05821" /><path
   id="path69"
   d="m 308.345,117.524 c 0,0 -7.516,-9.103 -5.877,-10.583 1.638,-1.48 8.709,4.667 8.709,4.667"
   stroke-width="0.2835"
   stroke="#943b1c"
   fill="none" /><path
   id="path71"
   d="m 330.838,112.518 c 0,0 5.002,-6.488 6.037,-5.122 1.035,1.366 0.431,6.489 -3.622,8.537"
   stroke-width="0.2835"
   stroke="#943b1c"
   fill="none" /><path
   id="path73"
   d="m 317.87,106.777 c 0,0 -3.452,-5.8 -1.708,-11.508 l 0.907,0.046 c 0,0 -1.186,5.433 2.616,9.253 z"
   fill="#943b1c" /><ellipse
   id="ellipse75"
   ry="1.012"
   rx="1.325"
   cy="95.222"
   cx="316.54501"
   fill="#943b1c" /><path
   id="path77"
   d="m 323.974,106.132 c 0,0 3.453,-5.8 1.71,-11.508 l -0.908,0.045 c 0,0 1.186,5.433 -2.616,9.253 z"
   fill="#943b1c" /><ellipse
   id="ellipse79"
   ry="1.012"
   rx="1.325"
   cy="94.577003"
   cx="325.29901"
   fill="#943b1c" /><path
   style="fill:url(#SVGID_4_)"
   id="path86"
   d="m 313.077,198.297 v 187.832 h 19.74 c 0,0 -3.289,-60.259 19.33,-60.259 22.62,0 21.385,60.259 21.385,60.259 h 20.563 c 0,0 12.338,-102.601 -41.126,-102.601 0,0 -25.91,-1.087 -25.91,-84.688 z"
   fill="url(#SVGID_4_)" /><path
   id="path88"
   d="m 346.62,172.476 c 0,18.757 -11.521,33.963 -25.729,33.963 -14.21,0 -25.73,-15.206 -25.73,-33.963 0,-18.757 11.519,-69.182 25.73,-69.182 14.209,0 25.729,50.425 25.729,69.182 z"
   fill="#e47127" /><path
   id="path90"
   d="m 298.499,147.037 c -2.121,9.942 -3.338,19.357 -3.338,25.439 0,18.757 11.519,33.963 25.73,33.963 14.209,0 25.729,-15.206 25.729,-33.963 0,-6.276 -1.296,-16.099 -3.543,-26.391 -6.243,-3.04 -13.55,-4.79 -21.364,-4.79 -8.599,0 -16.586,2.117 -23.214,5.742 z"
   fill="#c05821" /><path
   id="path92"
   d="M 314.482,108.17"
   fill="#c05821" /><ellipse
   id="ellipse94"
   ry="2.375"
   rx="1.799"
   cy="135.114"
   cx="308.14001"
   fill="#3c3c3b" /><ellipse
   id="ellipse96"
   ry="5.1170001"
   rx="3.8759999"
   cy="172.935"
   cx="312.29199"
   fill="#f2d39a" /><path
   id="path98"
   d="m 313.077,231.775 c 0.029,0.001 0.058,0.006 0.087,0.006 3.745,0 6.783,-4.01 6.783,-8.955 0,-4.943 -3.038,-8.952 -6.783,-8.952 -0.03,0 -0.058,0.006 -0.087,0.006 z"
   fill="#e47127"
   opacity="0.4" /><path
   id="path100"
   d="m 326.829,226.922 c -4.547,0 -8.236,4.869 -8.236,10.871 0,6.004 3.689,10.874 8.236,10.874 1.55,0 2.995,-0.576 4.233,-1.559 -1.163,-5.724 -2.136,-12.352 -2.832,-20.017 -0.456,-0.103 -0.922,-0.169 -1.401,-0.169 z"
   fill="#e47127"
   opacity="0.4" /><path
   id="path102"
   d="m 313.077,280.095 c 1.237,0.586 2.564,0.922 3.953,0.922 6.474,0 11.726,-6.932 11.726,-15.48 0,-8.545 -5.252,-15.475 -11.726,-15.475 -1.389,0 -2.717,0.336 -3.953,0.922 z"
   fill="#e47127"
   opacity="0.4" /><path
   id="path104"
   d="m 313.077,372.73 c 0.059,10e-4 0.114,0.012 0.174,0.012 6.474,0 11.726,-6.933 11.726,-15.48 0,-8.545 -5.252,-15.476 -11.726,-15.476 -0.059,0 -0.115,0.01 -0.174,0.012 z"
   fill="#e47127"
   opacity="0.4" /><path
   id="path106"
   d="m 361.82,284.583 c -3.079,3.188 -5.053,8.084 -5.053,13.575 0,9.607 6.034,17.399 13.47,17.399 6.444,0 11.831,-5.853 13.156,-13.665 -4.973,-8.494 -11.923,-14.895 -21.573,-17.309 z"
   fill="#e47127"
   opacity="0.4" /><path
   id="path108"
   d="m 386.092,307.097 c -1.428,2.279 -2.286,5.175 -2.286,8.332 0,6.654 3.799,12.151 8.746,13.106 -1.412,-7.554 -3.479,-14.922 -6.46,-21.438 z"
   fill="#e47127"
   opacity="0.4" /><path
   id="path110"
   d="m 393.456,333.985 c -1.293,1.771 -2.091,4.15 -2.091,6.775 0,3.534 1.442,6.628 3.602,8.376 -0.284,-4.927 -0.765,-10.044 -1.511,-15.151 z"
   fill="#e47127"
   opacity="0.4" /><path
   id="path112"
   d="m 337.532,267.861 c -5.212,2.32 -8.968,8.821 -8.968,16.481 0,9.607 5.903,17.399 13.179,17.399 7.277,0 13.18,-7.793 13.18,-17.399 0,-0.253 -0.006,-0.505 -0.014,-0.756 -0.64,-0.031 -1.281,-0.059 -1.94,-0.059 0,0 -8.248,-0.349 -15.437,-15.666 z"
   fill="#e47127"
   opacity="0.4" /><ellipse
   id="ellipse116"
   ry="5.1170001"
   rx="3.8759999"
   cy="172.935"
   cx="329.733"
   fill="#f2d39a" /><ellipse
   id="ellipse118"
   ry="2.375"
   rx="1.799"
   cy="135.114"
   cx="333.88501"
   fill="#3c3c3b" /><path
   id="path120"
   d="m 299.872,148.025 c 0,0 -14.71,51.526 22.017,55.968 0,0 33.075,-3.807 19.518,-56.476 0,0 -17.595,-10.026 -41.535,0.508 z"
   stroke-dasharray="2.8347, 2.8347, 2.8347, 2.8347, 2.8347, 2.8347"
   stroke-linejoin="round"
   stroke-linecap="round"
   stroke-width="0.5669"
   stroke="#f4ca64"
   fill="none" /><path
   id="path122"
   d="m 314.995,207.971 0.872,172.703 13.956,2.303 c 0,0 -4.071,-57.184 21.806,-60.254 0,0 23.551,-5.373 24.423,59.487 l 15.7,1.536 c 0,0 6.978,-63.324 -18.608,-91.725 0,0 -9.013,-6.908 -22.097,-6.14 -13.084,0.768 -26.458,-29.936 -26.749,-77.524"
   stroke-dasharray="2.8347, 2.8347, 2.8347, 2.8347, 2.8347, 2.8347"
   stroke-linejoin="round"
   stroke-linecap="round"
   stroke-width="0.5669"
   stroke="#c05821"
   fill="none" /><path
   id="path124"
   d="m 332.78,386.128 c -0.015,-3.726 -1.585,-6.739 -3.52,-6.739 -1.329,0 -2.485,1.422 -3.084,3.519 -0.599,-2.097 -1.756,-3.519 -3.085,-3.519 -1.45,0 -2.695,1.692 -3.234,4.108 -0.539,-2.416 -1.784,-4.108 -3.234,-4.108 -1.935,0 -3.505,3.013 -3.519,6.739 z"
   fill="#8b7766" /><path
   id="path126"
   d="m 394.127,386.128 c -0.016,-3.726 -1.655,-6.739 -3.676,-6.739 -1.388,0 -2.596,1.422 -3.222,3.519 -0.626,-2.097 -1.833,-3.519 -3.221,-3.519 -1.515,0 -2.814,1.692 -3.378,4.108 -0.563,-2.416 -1.863,-4.108 -3.378,-4.108 -2.021,0 -3.66,3.013 -3.675,6.739 z"
   fill="#8b7766" /><path
   id="path128"
   d="m 299.77,144.707 1.884,-1.372 -1.299,-0.686 1.559,-0.772 -1.17,-1.629 2.079,-0.857 -1.234,-1.629 1.884,-0.343 -1.364,-1.715 2.209,-0.429 -1.559,-1.973 1.884,-0.343 -1.17,-2.058 1.365,-0.257 -0.65,-1.715 1.494,-0.171 -0.91,-2.23 2.014,-0.171 c 0,0 -1.3,-1.801 -1.039,-1.801 0.261,0 2.404,-0.257 2.404,-0.257 0,0 -2.209,-2.059 -2.014,-2.059 0.195,0 3.183,-0.514 3.183,-0.514 l -1.624,-1.801 1.883,-0.086 -1.234,-2.315 1.754,0.343 -0.714,-2.401 1.558,0.601 -0.519,-2.487 1.819,0.086 -0.974,-1.715 2.079,-0.172 -1.039,-2.058 3.313,1.544 -1.494,-4.03 1.559,1.029 0.455,-2.744 0.974,1.201 0.455,-1.887 0.52,2.058 0.909,-2.744 0.715,2.744 c 0,0 1.494,-2.487 1.494,-2.744 0,-0.257 0.65,3.002 0.65,3.002 l 1.299,-2.315 -0.129,1.887 2.403,-1.715 -0.91,2.744 2.144,-1.457 -0.845,1.972 1.755,-0.343 c 0,0 -1.17,2.315 -0.975,2.401 0.194,0.086 2.339,-0.686 2.339,-0.686 l -0.91,1.972 1.884,-0.086 -1.364,2.229 2.339,-0.6 -1.299,2.058 c 0,0 1.689,-0.429 1.884,-0.601 0.194,-0.171 -1.039,2.059 -1.039,2.059 l 2.404,-0.858 -1.299,2.229 1.819,0.086 c 0,0 -1.624,1.458 -1.365,1.629 0.26,0.171 2.469,0.343 2.469,0.343 0,0 -2.079,1.801 -1.885,1.801 0.195,0 2.664,0.172 2.664,0.172 l -2.209,1.715 2.793,0.515 -1.364,1.886 h 2.144 l -1.949,1.544 2.339,0.086 -1.949,1.715 2.923,0.086 -2.014,1.715 2.793,0.857 -1.559,1.544 2.079,0.686 -1.689,1.286 2.209,0.772 -1.559,2.058 2.404,0.343 -2.144,0.772 2.144,1.544 -1.82,0.515 2.339,1.286 -1.104,0.515 1.494,0.772"
   stroke-width="0.2835"
   stroke="#943b1c"
   fill="none" /><path
   id="path130"
   d="m 326.066,214.316 5.783,0.526 -7.378,5.396 9.272,-1.974 c 0,0 -9.272,6.054 -8.674,6.054 0.598,0 11.666,0.922 11.666,0.922 l -10.669,4.475 c 0,0 10.868,3.291 9.572,3.949 -1.296,0.658 -6.88,4.606 -6.88,4.606 l 3.889,1.185 -2.792,0.921 c 0,0 -4.088,3.027 -3.689,3.159 0.399,0.132 8.775,0.132 8.475,0.132 -0.298,0 -5.384,3.291 -5.384,3.291 l 3.191,-0.527 -2.393,2.238 c 0,0 6.58,1.185 5.982,1.711 -0.598,0.526 -1.595,1.316 -1.595,1.316 0,0 -4.985,2.106 -3.49,2.369 1.496,0.263 7.677,0.921 7.677,0.921 l -6.382,4.343 4.488,0.921 -2.692,3.028"
   stroke="#c05821"
   fill="none" /><path
   id="path132"
   d="m 388.402,277.836 c 0,0 0,4.013 -1.46,4.816 -1.46,0.804 -0.608,7.227 3.528,4.497 4.136,-2.73 -2.068,-9.313 -2.068,-9.313 z"
   fill="#c05821" />
<path
   fill="#8b7766"
   d="m 113.433,176.575 c 0,0 -34.612,9.245 -5.489,-118.122 l -3.003,-0.455 c 0,0 -29.122,122.059 7.995,123.682 z"
   id="path136" />
<path
   fill="#8b7766"
   d="m 128.006,179.353 c 0,0 34.03,16.082 39.492,-6.932 l 2.101,0.277 c 0,0 -2.521,26.619 -42.013,9.428 z"
   id="path138" />
<path
   fill="#633f31"
   d="m 111.831,165.766 -4.832,71.817 6.092,0.832 c 0,0 -1.471,-23.569 1.26,-24.679 2.731,-1.109 9.243,2.773 5.672,25.511 h 5.882 l 3.151,-65.994 z"
   id="path140" />
<g
   id="g174"
   transform="translate(-0.818,0.577)">
	<path
   fill="#633f31"
   d="m 121.395,136.854 c -1.748,2.202 -4.668,1.908 -6.521,-0.656 -1.853,-2.563 -1.939,-6.427 -0.191,-8.629 1.748,-2.201 4.668,-1.908 6.521,0.656 1.854,2.564 1.939,6.428 0.191,8.629 z"
   id="path142" />
	<path
   fill="#b9a28c"
   d="m 120.777,135.999 c -1.426,1.797 -3.808,1.557 -5.32,-0.535 -1.512,-2.092 -1.582,-5.244 -0.156,-7.041 1.426,-1.796 3.808,-1.557 5.32,0.535 1.513,2.093 1.582,5.245 0.156,7.041 z"
   id="path144" />
	<path
   fill="#633f31"
   d="m 135.737,148.337 c 0.057,-3.188 2.279,-5.706 4.963,-5.623 2.684,0.082 4.814,2.735 4.757,5.924 -0.056,3.188 -2.278,5.706 -4.962,5.623 -2.685,-0.083 -4.815,-2.735 -4.758,-5.924 z"
   id="path146" />
	<path
   fill="#b9a28c"
   d="m 136.632,148.365 c 0.046,-2.602 1.859,-4.656 4.049,-4.588 2.19,0.068 3.927,2.231 3.882,4.833 -0.046,2.601 -1.859,4.656 -4.049,4.588 -2.191,-0.067 -3.928,-2.231 -3.882,-4.833 z"
   id="path148" />
	<path
   fill="#bf865d"
   d="m 136.187,168.665 c -3.337,8.059 -12.399,10.006 -20.24,4.349 -7.841,-5.658 -11.492,-16.777 -8.155,-24.836 3.337,-8.058 18.665,-25.136 26.506,-19.478 7.841,5.656 5.226,31.906 1.889,39.965 z"
   id="path150" />
	<path
   fill="#b9a28c"
   d="m 114.16,138.577 c -2.939,3.427 -5.286,6.988 -6.368,9.6 -3.337,8.059 0.314,19.178 8.155,24.836 7.841,5.657 16.903,3.71 20.24,-4.349 1.117,-2.696 2.149,-7.432 2.741,-12.749 -2.904,-3.791 -6.625,-7.452 -10.936,-10.563 -4.746,-3.423 -9.53,-5.694 -13.832,-6.775 z"
   id="path152" />
	<path
   fill="#c05821"
   d="M 129.894,128.242"
   id="path154" />
	
		<path
   fill="none"
   stroke="#633f31"
   stroke-width="0.5669"
   stroke-linecap="round"
   stroke-linejoin="round"
   stroke-dasharray="2.8347, 2.8347, 2.8347, 2.8347, 2.8347, 2.8347"
   d="m 114.742,139.548 c 0,0 -17.283,16.281 2.192,32.812 0,0 18.928,11.533 20.817,-16.493 0,-10e-4 -7.925,-11.313 -23.009,-16.319 z"
   id="path156" />
	<path
   fill="#633f31"
   d="m 129.256,167.776 c 0,0 -5.992,4.38 -10.927,-5.397 0,0 3.916,14.76 10.927,5.397 z"
   id="path158" />
	<path
   fill="#3c3c3b"
   d="m 125.333,137.121 c -0.412,0.995 -1.357,1.361 -2.111,0.817 -0.754,-0.544 -1.031,-1.792 -0.619,-2.787 0.412,-0.995 1.357,-1.361 2.111,-0.817 0.754,0.544 1.031,1.792 0.619,2.787 z"
   id="path160" />
	<path
   opacity="0.2"
   fill="#e2dbc3"
   d="m 123.335,149.217 c -0.412,0.995 -1.357,1.36 -2.111,0.816 -0.754,-0.544 -1.031,-1.792 -0.619,-2.786 0.412,-0.995 1.357,-1.361 2.111,-0.817 0.755,0.543 1.032,1.791 0.619,2.787 z"
   id="path162" />
	<path
   opacity="0.2"
   fill="#e2dbc3"
   d="m 130.354,154.28 c -0.412,0.995 -1.357,1.36 -2.111,0.817 -0.754,-0.544 -1.031,-1.792 -0.619,-2.787 0.412,-0.995 1.357,-1.361 2.111,-0.817 0.754,0.544 1.031,1.792 0.619,2.787 z"
   id="path164" />
	<path
   fill="#3c3c3b"
   d="m 136.481,145.164 c -0.412,0.995 -1.358,1.361 -2.111,0.817 -0.754,-0.544 -1.031,-1.792 -0.619,-2.787 0.412,-0.995 1.358,-1.361 2.111,-0.817 0.753,0.544 1.031,1.792 0.619,2.787 z"
   id="path166" />
	<path
   fill="#633f31"
   d="m 121.703,145.783 c 0,0 -2.714,1.05 -0.858,4.43 0,0 -0.705,-2.227 0.858,-4.43 z"
   id="path168" />
	<path
   fill="#633f31"
   d="m 130.591,152.518 c 0,0 0.796,3.582 -2.361,3.345 -10e-4,0 1.8,-0.42 2.361,-3.345 z"
   id="path170" />
	<path
   fill="#633f31"
   d="m 131.946,127.67 7.166,1.846 -1.451,0.767 3.028,1.641 -2.481,0.023 2.101,1.516 c 0,0 -2.072,-0.468 -2.209,-0.385 -0.137,0.082 1.449,1.227 1.449,1.227 l -1.694,-0.013 z"
   id="path172" />
</g>
<path
   opacity="0.62"
   fill="#8b7766"
   d="m 124.785,200.973 c -0.738,0.731 -1.936,-0.609 -1.936,-0.609 1.014,-0.974 0.83,-3.286 0.83,-3.286 -0.369,0.73 -1.475,0 -1.475,0 l -0.553,-1.947 c 0,0 -1.291,0.974 -1.66,0.974 -0.369,0 -0.369,-1.583 -0.369,-1.583 l -1.383,0.731 -0.276,-0.974 c 0,0 -1.014,0.852 -1.199,0.487 -0.184,-0.365 -0.738,-1.096 -0.738,-1.096 l -1.752,2.313 -0.645,-1.339 c -1.199,1.704 -0.461,7.06 -0.461,7.06 l -1.014,-0.853 c -0.553,3.652 0.83,7.79 0.83,7.79 l -0.83,-0.366 c -0.392,2.415 0.972,4.7 1.802,5.832 0.122,-0.178 0.252,-0.312 0.396,-0.371 1.152,-0.468 2.974,-0.04 4.431,2.308 2.639,-1.429 3.421,-6.429 3.421,-6.429 -0.461,0.365 -1.66,-0.121 -1.66,-0.121 1.752,-0.365 3.873,-5.234 3.873,-5.234 l -1.107,-0.243 c 0.737,-0.488 1.475,-3.044 1.475,-3.044 z"
   id="path176" />
<ellipse
   fill="#eea795"
   cx="115.414"
   cy="180.95099"
   rx="0.94099998"
   ry="1.242"
   id="ellipse178" />
<ellipse
   fill="#eea795"
   cx="123.53"
   cy="181.72699"
   rx="0.94099998"
   ry="1.242"
   id="ellipse180" />
<path
   fill="#eea795"
   d="m 132.938,247.674 c -0.682,1.431 -4.446,-0.076 -8.407,-3.366 -3.961,-3.291 -6.619,-7.118 -5.936,-8.549 0.683,-1.431 4.446,0.077 8.407,3.366 3.96,3.292 6.618,7.119 5.936,8.549 z"
   id="path182" />
<path
   fill="#eea795"
   d="m 134.814,248.429 c -0.476,0.998 -1.475,1.299 -2.232,0.67 -0.756,-0.628 -0.983,-1.947 -0.507,-2.945 0.476,-0.998 1.475,-1.299 2.232,-0.671 0.755,0.629 0.983,1.948 0.507,2.946 z"
   id="path184" />
<path
   fill="#eea795"
   d="m 99.653,243.179 c -0.419,-1.598 2.828,-4.53 7.251,-6.547 4.423,-2.018 8.348,-2.359 8.766,-0.76 0.418,1.598 -2.828,4.529 -7.251,6.547 -4.424,2.016 -8.348,2.357 -8.766,0.76 z"
   id="path186" />
<path
   fill="#eea795"
   d="m 98.032,244.637 c -0.292,-1.115 0.156,-2.332 1.001,-2.717 0.844,-0.386 1.766,0.206 2.058,1.321 0.292,1.115 -0.156,2.331 -1.001,2.717 -0.844,0.386 -1.766,-0.206 -2.058,-1.321 z"
   id="path188" />
<g
   id="g211"
   transform="translate(-0.818,0.577)">
	<linearGradient
   id="SVGID_5_"
   gradientUnits="userSpaceOnUse"
   x1="104.9966"
   y1="40.769001"
   x2="109.3694"
   y2="40.769001">
		<stop
   offset="0"
   style="stop-color:#F8F4D4"
   id="stop190" />
		<stop
   offset="1"
   style="stop-color:#EEA795"
   id="stop192" />
	</linearGradient>
	<ellipse
   fill="url(#SVGID_5_)"
   cx="107.183"
   cy="40.769001"
   rx="2.1860001"
   ry="4.329"
   id="ellipse195"
   style="fill:url(#SVGID_5_)" />
	<linearGradient
   id="SVGID_6_"
   gradientUnits="userSpaceOnUse"
   x1="111.3846"
   y1="40.769001"
   x2="115.7573"
   y2="40.769001">
		<stop
   offset="0"
   style="stop-color:#F8F4D4"
   id="stop197" />
		<stop
   offset="1"
   style="stop-color:#EEA795"
   id="stop199" />
	</linearGradient>
	<ellipse
   fill="url(#SVGID_6_)"
   cx="113.571"
   cy="40.769001"
   rx="2.1860001"
   ry="4.329"
   id="ellipse202"
   style="fill:url(#SVGID_6_)" />
	<linearGradient
   id="SVGID_7_"
   gradientUnits="userSpaceOnUse"
   x1="108.1054"
   y1="40.769001"
   x2="112.4781"
   y2="40.769001">
		<stop
   offset="0"
   style="stop-color:#F8F4D4"
   id="stop204" />
		<stop
   offset="1"
   style="stop-color:#EEA795"
   id="stop206" />
	</linearGradient>
	<ellipse
   fill="url(#SVGID_7_)"
   cx="110.292"
   cy="40.769001"
   rx="2.1860001"
   ry="4.329"
   id="ellipse209"
   style="fill:url(#SVGID_7_)" />
</g>
<g
   id="g223"
   transform="matrix(1,0,0,-1,-0.818,339.328)">
	<path
   fill="#8b7766"
   d="m 154.338,176.54 c 0,0 -1.07,1.531 -0.758,2.944 l -1.383,-1.119 c 0,0 1.65,-1.589 1.784,-2.119 z"
   id="path213" />
	<path
   fill="#8b7766"
   d="m 189.502,176.954 c 0,0 1.153,1.044 1.335,2.468 l 0.626,-1.53 c 0,0 -1.562,-0.893 -1.801,-1.338 z"
   id="path215" />
	<path
   fill="#ffde00"
   d="m 153.762,177.054 c 0,0 2.785,-11.787 17.04,-11.787 14.254,0 19.579,12.327 19.579,12.327 0,0 -18.105,-10.056 -36.619,-0.54 z"
   id="path217" />
	
		<path
   fill="none"
   stroke="#b77c6f"
   stroke-width="0.2835"
   stroke-linecap="round"
   stroke-linejoin="round"
   stroke-dasharray="1.4173, 1.4173, 1.4173, 1.4173, 1.4173, 1.4173"
   d="m 154.7,175.964 c 0,0 14.578,-12.257 33.933,-0.013"
   id="path219" />
	
		<path
   fill="none"
   stroke="#b77c6f"
   stroke-width="0.2835"
   stroke-linecap="round"
   stroke-linejoin="round"
   stroke-dasharray="1.4173, 1.4173, 1.4173, 1.4173, 1.4173, 1.4173"
   d="m 154.7,175.964 c 0,0 14.578,-20.332 33.933,-0.021"
   id="path221" />
</g>
<g
   id="g246"
   transform="translate(-0.818,0.577)">
	<linearGradient
   id="SVGID_8_"
   gradientUnits="userSpaceOnUse"
   x1="164.823"
   y1="164.1532"
   x2="169.19569"
   y2="164.1532">
		<stop
   offset="0"
   style="stop-color:#F8F4D4"
   id="stop225" />
		<stop
   offset="1"
   style="stop-color:#EEA795"
   id="stop227" />
	</linearGradient>
	<ellipse
   fill="url(#SVGID_8_)"
   cx="167.009"
   cy="164.153"
   rx="2.1860001"
   ry="4.329"
   id="ellipse230"
   style="fill:url(#SVGID_8_)" />
	<linearGradient
   id="SVGID_9_"
   gradientUnits="userSpaceOnUse"
   x1="171.21091"
   y1="164.1532"
   x2="175.5836"
   y2="164.1532">
		<stop
   offset="0"
   style="stop-color:#F8F4D4"
   id="stop232" />
		<stop
   offset="1"
   style="stop-color:#EEA795"
   id="stop234" />
	</linearGradient>
	<ellipse
   fill="url(#SVGID_9_)"
   cx="173.397"
   cy="164.153"
   rx="2.1860001"
   ry="4.329"
   id="ellipse237"
   style="fill:url(#SVGID_9_)" />
	<linearGradient
   id="SVGID_10_"
   gradientUnits="userSpaceOnUse"
   x1="167.9317"
   y1="164.1532"
   x2="172.3045"
   y2="164.1532">
		<stop
   offset="0"
   style="stop-color:#F8F4D4"
   id="stop239" />
		<stop
   offset="1"
   style="stop-color:#EEA795"
   id="stop241" />
	</linearGradient>
	<ellipse
   fill="url(#SVGID_10_)"
   cx="170.118"
   cy="164.153"
   rx="2.1860001"
   ry="4.329"
   id="ellipse244"
   style="fill:url(#SVGID_10_)" />
</g>
<g
   id="Слой_2__x28_копия2_x29_"
   transform="translate(-0.818,0.577)">
	<g
   id="g252">
		<path
   fill="#cac9c9"
   d="m 115.241,270.007 c 2.714,-7.942 22.913,-16.435 30.759,-13.454 16,6.078 18.271,68.306 2.333,80.683 -3.956,3.072 -16.667,2.868 -20.016,-0.855 -6.041,-6.716 -4.831,-35.806 -4.831,-35.806 0,0 -10.804,-23.079 -8.245,-30.568 z"
   id="path248" />
		<path
   fill="#cac9c9"
   d="M 91.813,270.007 C 89.099,262.065 68.9,253.572 61.054,256.553 c -16,6.078 -18.271,68.306 -2.333,80.683 3.956,3.072 16.667,2.868 20.016,-0.855 6.041,-6.716 4.831,-35.806 4.831,-35.806 0,0 10.805,-23.079 8.245,-30.568 z"
   id="path250" />
	</g>
</g>
<g
   id="g295"
   transform="translate(-0.818,0.577)">
	<path
   fill="#3c3c3b"
   d="m 12.557,387.535 h 31.199 c 0,0 -4.105,-26.552 2.463,-29.802 6.568,-3.253 16.42,14.087 12.726,28.719 h 30.378 c 0,0 25.041,-81.281 4.105,-94.287 -20.936,-13.005 -120.28,-8.67 -80.871,95.37 z"
   id="path255" />
	
		<path
   fill="none"
   stroke="#f6f6f6"
   stroke-width="0.5669"
   stroke-linecap="round"
   stroke-linejoin="round"
   stroke-dasharray="2.8347, 2.8347, 2.8347, 2.8347, 2.8347, 2.8347"
   d="m 47.843,291.896 c 0,0 -64.382,16.02 -34.145,92.587 l 27.563,0.813 c 0,0 -3.702,-31.224 6.171,-30.952 9.873,0.273 18.306,13.304 13.576,29.595 l 26.946,0.271 c 0,0 6.788,-26.608 7.816,-35.025"
   id="path257" />
	
		<path
   fill="none"
   stroke="#3c3c3b"
   stroke-width="0.5669"
   stroke-linecap="round"
   stroke-linejoin="round"
   stroke-dasharray="2.8347, 2.8347, 2.8347, 2.8347, 2.8347, 2.8347"
   d="m 92.684,273.161 c 0,0 -30.648,-16.562 -34.968,-8.145 -4.319,8.417 -26.123,83.084 22.009,69.78"
   id="path259" />
	
		<path
   fill="none"
   stroke="#3c3c3b"
   stroke-width="0.5669"
   stroke-linecap="round"
   stroke-linejoin="round"
   stroke-dasharray="2.8347, 2.8347, 2.8347, 2.8347, 2.8347, 2.8347"
   d="m 115.31,272.618 c 0,0 21.598,-16.019 31.677,-10.046 10.079,5.973 18.718,91.502 -20.364,73.039"
   id="path261" />
	<path
   fill="#9d9d9c"
   d="m 130.457,323.798 c 0,17.02 -12.225,30.819 -27.304,30.819 -15.08,0 -27.305,-13.798 -27.305,-30.819 0,-17.019 12.225,-62.774 27.305,-62.774 15.078,10e-4 27.304,45.755 27.304,62.774 z"
   id="path263" />
	<path
   fill="#c05821"
   d="M 97.895,265.393"
   id="path265" />
	<ellipse
   fill="#3c3c3b"
   cx="97.363998"
   cy="283.95499"
   rx="1.909"
   ry="2.52"
   id="ellipse267" />
	<ellipse
   fill="#3c3c3b"
   cx="106.929"
   cy="283.95499"
   rx="1.909"
   ry="2.52"
   id="ellipse269" />
	<path
   fill="#ededed"
   d="m 40.654,387.508 c -0.014,-3.255 -1.445,-5.885 -3.21,-5.885 -1.212,0 -2.267,1.242 -2.814,3.073 -0.546,-1.832 -1.601,-3.073 -2.813,-3.073 -1.323,0 -2.458,1.478 -2.95,3.588 -0.492,-2.11 -1.627,-3.588 -2.95,-3.588 -1.765,0 -3.196,2.63 -3.209,5.885 z"
   id="path271" />
	<path
   fill="#ededed"
   d="m 88.675,386.541 c -0.014,-3.255 -1.445,-5.886 -3.209,-5.886 -1.213,0 -2.268,1.242 -2.814,3.073 -0.546,-1.832 -1.601,-3.073 -2.813,-3.073 -1.323,0 -2.458,1.478 -2.95,3.588 -0.492,-2.11 -1.627,-3.588 -2.95,-3.588 -1.765,0 -3.196,2.631 -3.209,5.886 z"
   id="path273" />
	<path
   fill="#575756"
   d="m 152.438,354.209 c -1.08,-2.647 -2.314,-1.629 -2.314,-1.629 0,0 -0.155,-4.683 -2.16,-3.869 -2.006,0.815 -0.154,4.276 -0.154,4.276 -17.477,8.44 -24.353,0.168 -26.934,-5.755 5.861,-5.653 9.581,-14.05 9.581,-23.433 0,-5.695 -1.375,-14.608 -3.76,-23.946 -6.625,-2.758 -14.38,-4.347 -22.671,-4.347 -9.125,0 -17.601,1.921 -24.635,5.21 -2.251,9.022 -3.542,17.565 -3.542,23.082 0,16.778 11.882,30.416 26.666,30.799 28.391,37.852 46.993,1.037 46.993,1.037 0,0 4.01,1.222 2.93,-1.425 z"
   id="path275" />
	
		<path
   fill="none"
   stroke="#000000"
   stroke-width="0.5669"
   stroke-linecap="round"
   stroke-linejoin="round"
   stroke-dasharray="2.8347, 2.8347, 2.8347, 2.8347, 2.8347, 2.8347"
   d="m 80.847,301.613 c 0,0 -15.61,46.753 23.365,50.784 0,0 35.099,-3.455 20.713,-51.246 0,0 -18.672,-9.097 -44.078,0.462 z"
   id="path277" />
	<path
   fill="#3c3c3b"
   d="m 119.733,348.915 c 0,0 -7.559,6.923 -13.422,6.72 0.772,-0.408 8.639,6.516 13.422,-6.72 z"
   id="path279" />
	<path
   fill="#3c3c3b"
   d="m 122.336,352.916 c 0,0 -5.943,8.194 -11.082,8.811 0.635,-0.53 8.167,5.489 11.082,-8.811 z"
   id="path281" />
	<path
   fill="#3c3c3b"
   d="m 125.823,355.468 c 0,0 -3.776,8.978 -8.169,11.076 0.464,-0.656 8.107,2.329 8.169,-11.076 z"
   id="path283" />
	<path
   fill="#3c3c3b"
   d="m 129.221,357.676 c 0,0 -1.275,8.803 -4.465,12.498 0.249,-0.731 7.157,-1.952 4.465,-12.498 z"
   id="path285" />
	<path
   fill="#3c3c3b"
   d="m 133.453,358.042 c 0,0 0.554,7.583 -1.362,11.653 0.069,-0.677 5.441,-3.981 1.362,-11.653 z"
   id="path287" />
	<path
   fill="#3c3c3b"
   d="m 137.546,358.135 c 0,0 1.365,5.262 0.576,8.666 -0.04,-0.501 3.223,-4.261 -0.576,-8.666 z"
   id="path289" />
	<path
   fill="#3c3c3b"
   d="m 141.119,356.555 c 0,0 1.73,3.375 1.598,5.914 -0.097,-0.34 1.837,-3.654 -1.598,-5.914 z"
   id="path291" />
	<path
   fill="none"
   stroke="#3c3c3b"
   stroke-width="0.2835"
   stroke-linecap="round"
   stroke-linejoin="round"
   d="m 98.953,263.02 0.315,-3.12 1.261,2.01 c 0,0 1.366,-4.785 1.419,-4.577 0.053,0.209 0.631,4.023 0.735,4.37 0.105,0.346 0.736,-1.041 0.736,-1.041 0,0 -0.158,2.497 0,2.428 0.158,-0.07 2.522,-2.498 2.522,-2.498 l -0.63,4.092 2.522,-3.191 -0.84,3.26 2.942,-2.15"
   id="path293" />
</g>

<path
   id="path363"
   d="m 151.682,71.992 c 0,0 -13.2,21.193 -21.406,29.198 -8.206,8.005 -30.325,20.721 -37.818,9.419 0,0 26.401,38.617 73.852,-31.553 l 1.427,-5.651 z"
   fill="#a2c43c" /><path
   id="path365"
   d="m 315.599,37.066 c 0.126,0.083 0.262,0.172 0.402,0.265 -3.689,0.217 -7.068,0.572 -9.143,1.148 -6.779,1.884 -44.24,15.541 -47.094,16.483 -2.854,0.942 -31.752,10.361 -33.537,11.303 -1.784,0.942 -8.563,2.355 -11.417,2.355 -2.854,0 -44.597,-9.89 -70.284,-19.779 -4.147,-1.597 -8.789,-2.921 -13.654,-4.023 l -0.545,18.352 c 13.827,6.006 51.2,22.959 52.374,23.346 1.427,0.471 62.435,3.768 63.862,3.768 1.427,0 20.336,-9.419 20.336,-9.419 19.148,-19.347 53.171,-25.666 73.954,-27.729 2.557,1.612 4.982,3.139 7.105,4.474"
   fill="#575756" /><path
   id="path367"
   d="M 234.348,31.569"
   fill="#633f31" /><path
   id="path369"
   d="M 223.056,32.579"
   fill="#633f31" /><path
   id="path371"
   d="m 176.289,59.186 c 0,0 -4.571,47.28 12.192,47.682 16.763,0.403 25.38,-18.304 25.38,-18.304 l -11.506,-0.706 c 0,0 -10.209,4.115 -9.599,-28.874 0.61,-32.989 -30.133,-3.878 -30.133,-3.878 z"
   fill="#a2c43c" /><path
   id="path373"
   d="m 265.97,81.316 c -0.004,0.006 -3.238,1.678 -3.242,1.684 -2.975,4.272 -21.54,0.353 -30.905,-28.256 0,0 -18.96,-13.799 -24.751,12.351 l 7.618,1.567 2.166,-0.199 c 0,0 10.028,37.599 27.401,37.197 17.372,-0.402 32.976,-33.189 32.976,-33.189 -6.059,3.957 -10.345,8.417 -10.345,8.417 z"
   fill="#a2c43c" /><path
   id="path375"
   d="m 103.32,115.004 c -1.842,0.159 -3.591,0.066 -5.178,-0.356 v 1.512 c 1.455,1.06 3.181,2.106 5.178,2.969 z"
   fill="#f0efa7" /><path
   id="path377"
   d="m 167.05,56.427 8.056,2.406 -5.596,-9.312 c -1.772,1.263 -3.328,2.504 -4.51,3.494 z"
   fill="#f0efa7" /><path
   id="path379"
   d="m 207.045,98.301 c 1.518,-1.6 2.789,-3.222 3.802,-4.673 l -3.276,-5.451 -5.216,-0.32 c 0,0 -0.602,0.241 -1.504,0.137 z"
   fill="#f0efa7" /><path
   id="path381"
   d="m 192.851,67.288 c -0.096,-2.071 -0.138,-4.347 -0.115,-6.847 l -16.686,1.885 c -0.111,1.75 -0.232,4.133 -0.292,6.893 z"
   fill="#f0efa7" /><path
   id="path383"
   d="m 220.125,78.266 17.819,-9.85 c -1.05,-1.746 -2.063,-3.668 -3.026,-5.758 l -16.985,9.39 c 0.536,1.667 1.269,3.815 2.192,6.218 z"
   fill="#f0efa7" /><path
   id="path385"
   d="m 239.086,70.23 -12.227,22.109 c 1.106,1.821 2.299,3.566 3.575,5.161 l 12.371,-22.371 c -1.26,-1.439 -2.508,-3.062 -3.719,-4.899 z"
   fill="#f0efa7" /><path
   id="path387"
   d="m 239.011,104.606 c 1.648,0.706 3.379,1.088 5.192,1.054 l 5.768,-24.274 c -1.496,-0.945 -3.039,-2.133 -4.59,-3.588 z"
   fill="#f0efa7" /><path
   id="path389"
   d="m 257.594,99.596 3.693,-15.543 c -1.292,0.509 -3.184,0.555 -5.436,-0.026 l -4.721,19.871 c 2.231,-1.063 4.397,-2.548 6.464,-4.302 z"
   fill="#f0efa7" /><path
   id="path391"
   d="m 195.536,82.64 c -0.678,-1.628 -1.29,-3.739 -1.769,-6.463 l -17.733,5.817 c 0.164,2.283 0.403,4.576 0.739,6.801 z"
   fill="#f0efa7" /><path
   id="path393"
   d="m 109.631,120.927 c 1.654,0.246 3.422,0.34 5.305,0.236 l -1.304,-9.05 c -1.667,0.729 -3.347,1.356 -5.005,1.844 z"
   fill="#f0efa7" /><path
   id="path395"
   d="m 121.433,120.059 c 1.605,-0.449 3.271,-1.036 5.002,-1.795 l -2.065,-12.256 c -1.489,1.05 -3.102,2.088 -4.788,3.069 z"
   fill="#f0efa7" /><path
   id="path397"
   d="m 130.276,101.191 c -0.445,0.435 -0.939,0.885 -1.461,1.342 l 5.302,11.476 c 1.476,-0.982 2.989,-2.078 4.539,-3.304 l -5.712,-12.364 c -0.929,1.062 -1.826,2.028 -2.668,2.85 z"
   fill="#f0efa7" /><path
   id="path399"
   d="m 136.556,93.929 7.731,11.892 c 1.356,-1.276 2.737,-2.651 4.143,-4.124 l -8.222,-12.646 c -1.205,1.665 -2.434,3.312 -3.652,4.878 z"
   fill="#f0efa7" /><path
   id="path401"
   d="m 153.57,95.99 c 1.248,-1.468 2.516,-3.022 3.8,-4.651 l -9.112,-14.015 c -1.002,1.528 -2.174,3.293 -3.457,5.177 z"
   fill="#f0efa7" /><path
   id="path403"
   d="m 157.778,75.386 5.356,8.238 c 1.022,-1.436 2.051,-2.907 3.093,-4.445 -2.683,-1.204 -5.54,-2.487 -8.449,-3.793 z"
   fill="#f0efa7" /><path
   id="path405"
   d="m 183.399,43.266 c -5.467,3.885 -7.814,12.767 -8.312,15.561 l 0.532,0.159 c 5.719,-6.282 13.002,-8.027 16.344,-8.507 -1.448,-5.649 -4.714,-7.45 -8.564,-7.213 z"
   fill="#f0efa7" /><path
   id="path407"
   d="m 192.499,106.582 c 2.978,-4.371 6.229,-10.865 6.944,-19.011 -0.397,-0.196 -0.815,-0.47 -1.239,-0.849 -3.413,3.16 -12.51,10.985 -19.189,11.292 1.924,5.158 4.904,8.745 9.467,8.855 1.397,0.032 2.733,-0.077 4.017,-0.287 z"
   fill="#f0efa7" /><path
   id="path409"
   d="m 211.867,55.777 c 0.487,5.572 3.443,11.035 4.439,12.738 l 0.342,-0.031 c 0.21,-4.757 3.629,-12.394 6.072,-17.288 -3.573,-0.398 -7.589,0.463 -10.853,4.581 z"
   fill="#f0efa7" /><polygon
   transform="translate(-0.818,0.577)"
   fill="#8c7c3d"
   points="279.291,66.569 278.615,71.179 274.559,68.8 276.925,65.528 276.249,69.246 "
   id="polygon411" /><path
   fill="#a2c43c"
   d="m 288.108,103.566 c -0.249,9.178 -7.691,16.277 -16.621,15.855 -8.93,-0.423 -15.967,-8.205 -15.719,-17.384 0.249,-9.178 8.158,-33.509 17.089,-33.087 8.93,0.422 15.5,25.438 15.251,34.616 z"
   id="path415" /><path
   fill="#8dae44"
   d="m 258.204,89.688 c -1.465,4.802 -2.354,9.373 -2.435,12.348 -0.249,9.179 6.789,16.961 15.719,17.384 8.93,0.422 16.371,-6.676 16.621,-15.855 0.084,-3.071 -0.601,-7.916 -1.876,-13.019 -3.883,-1.673 -8.452,-2.746 -13.362,-2.979 -5.405,-0.254 -10.453,0.544 -14.667,2.121 z"
   id="path417" /><path
   fill="#c05821"
   d="M 268.765,71.146"
   id="path419" /><path
   fill="#3c3c3b"
   d="m 272.229,80.434 c -0.031,1.133 -0.752,2.019 -1.611,1.978 -0.859,-0.04 -1.53,-0.992 -1.499,-2.125 0.031,-1.133 0.752,-2.02 1.611,-1.979 0.858,0.04 1.529,0.992 1.499,2.126 z"
   id="path421" /><path
   fill="#3c3c3b"
   d="m 276.123,80.529 c -0.031,1.133 -0.752,2.02 -1.61,1.979 -0.859,-0.041 -1.53,-0.993 -1.499,-2.126 0.031,-1.133 0.752,-2.02 1.61,-1.979 0.859,0.041 1.53,0.993 1.499,2.126 z"
   id="path423" /><path
   opacity="0.2"
   fill="#633f31"
   d="m 260.324,103.036 c -0.031,1.133 -0.752,2.019 -1.61,1.978 -0.859,-0.04 -1.53,-0.992 -1.499,-2.125 0.03,-1.134 0.751,-2.02 1.61,-1.979 0.859,0.041 1.53,0.993 1.499,2.126 z"
   id="path425" /><path
   opacity="0.2"
   fill="#633f31"
   d="m 286.494,103.162 c -0.031,1.133 -0.751,2.019 -1.61,1.978 -0.858,-0.04 -1.53,-0.992 -1.499,-2.125 0.03,-1.133 0.752,-2.02 1.611,-1.979 0.858,0.041 1.529,0.993 1.498,2.126 z"
   id="path427" /><path
   fill="#633f31"
   d="m 257.7,100.932 c 0,0 -2.071,2.543 0.736,4.468 0,-0.001 -1.386,-1.575 -0.736,-4.468 z"
   id="path429" /><path
   fill="#633f31"
   d="m 286.108,101.446 c 0,0 1.927,2.732 -0.976,4.387 -0.001,0 1.467,-1.44 0.976,-4.387 z"
   id="path431" /><path
   fill="none"
   stroke="#8c7c3d"
   stroke-width="0.2835"
   d="m 260.677,89.652 c 0,0 -0.357,-3.062 0.089,-2.59 0.446,0.471 2.497,2.944 2.497,2.944 l 0.268,-3.414 0.892,2.237 c 0,0 0.268,-3.768 0.803,-2.472 0.535,1.295 1.07,4.238 1.07,4.238 l 1.338,-4.356 0.268,1.648 0.803,-1.531 0.268,1.413 0.713,-0.942 0.179,0.942 1.516,-1.53 0.178,2.943 0.981,-3.061 0.446,2.354 0.625,-1.53 0.535,1.413"
   id="path433" /><path
   fill="none"
   stroke="#8c7c3d"
   stroke-width="0.2835"
   stroke-linecap="round"
   stroke-linejoin="round"
   stroke-dasharray="1.4173, 1.4173, 1.4173, 1.4173, 1.4173, 1.4173"
   d="m 258.179,106.841 c 0,0 14.984,22.958 28.275,0.942"
   id="path435" />
<radialGradient
   id="SVGID_11_"
   cx="591.50812"
   cy="2261.6013"
   r="174.868"
   gradientTransform="matrix(1.056,0,0,1.1207,-7.3364,-2343.0698)"
   gradientUnits="userSpaceOnUse">
	<stop
   offset="0.135"
   style="stop-color:#ECF0F2"
   id="stop441" />
	<stop
   offset="1"
   style="stop-color:#C7DFE4"
   id="stop443" />
</radialGradient>







<linearGradient
   id="SVGID_12_"
   gradientUnits="userSpaceOnUse"
   x1="617.24701"
   y1="357.1611"
   x2="617.24701"
   y2="399.90851">
	<stop
   offset="0.3252"
   style="stop-color:#A8BE4B"
   id="stop460" />
	<stop
   offset="1"
   style="stop-color:#8DAE44"
   id="stop462" />
</linearGradient>




































<g
   transform="matrix(-1,0,0,1,454.23366,0)"
   id="g1177"><path
     fill="none"
     stroke="#9e191b"
     stroke-width="0.2835"
     d="m 206.754,352.216 c -5.995,3.204 -14.879,-2.276 -16.477,-8.006 1.293,2.863 3.324,5.362 6.106,6.38 1.901,0.695 3.784,1.08 5.721,1.7 1.717,0.55 3.279,1.937 4.96,2.337 -2.442,-0.896 -5.149,-0.422 -7.404,-1.774 -1.819,-1.091 -2.952,-2.212 -4.108,-4.089 -1.399,-2.278 -2.273,-6.881 -5.436,-6.825 -0.932,1.86 1.811,6.807 2.945,8.051 1.138,1.244 3.184,2.103 4.65,2.798 1.959,0.928 4.18,1.122 6.24,1.824 2.028,0.691 3.831,1.852 5.971,2.295 -3.521,-1.144 -8.032,-0.266 -11.305,-2.062 -2.096,-1.148 -3.151,-3.37 -4.056,-5.679 -0.986,-2.517 -2.14,-4.922 -3.287,-7.195 1.348,4.122 3.899,7.564 6.089,11.021 0.831,1.311 1.708,2.488 2.994,3.264 1.59,0.959 3.625,1.115 5.198,2.073 -4.517,-1.309 -10.081,-4.728 -12.147,-9.37 -1.229,-2.764 -2.138,-5.571 -3.744,-8.005 0.449,2.624 3.589,5.245 5.093,7.038 1.774,2.118 3.556,3.97 5.566,5.818 1.993,1.83 3.253,2.895 5.487,4.029"
     id="path729" /><path
     fill="#9e191b"
     d="m 186.76,331.751 c 0,0 2.026,5.121 3.743,5.244 1.716,0.123 4.196,8.847 -0.895,7.923 -5.091,-0.926 -2.848,-13.167 -2.848,-13.167 z"
     id="path731" /></g><g
   transform="translate(-405.804,-1.913)"
   id="g781">
		<path
   id="path733"
   d="m 614.575,357.29 c 0,0 -25.688,1.89 -12.309,20.447 0,0 -4.282,1.031 -3.925,4.983 l 15.341,-1.031 z"
   fill="#f4ca64" />
		<path
   id="path735"
   d="m 653.62,357.29 c 0,0 25.688,1.89 12.309,20.447 0,0 4.282,1.031 3.925,4.983 l -15.341,-1.031 z"
   fill="#f4ca64" />
		<path
   id="path737"
   d="m 614.875,305.253 -4.031,82.176 15.228,-0.591 c 0,0 -2.687,-21.874 2.687,-23.057 5.375,-1.182 14.332,1.774 9.853,23.647 l 18.364,-1.181 -5.375,-74.491 z"
   fill="#f7e8ae" />
		
			<path
   id="path739"
   d="m 616.537,319.85 -2.676,64.754 8.206,-0.236 c 0,0 -1.605,-24.018 7.849,-23.547 9.454,0.471 13.557,8.712 11.595,22.605 l 11.952,-0.235 -4.46,-67.109"
   stroke-dasharray="2.8347, 2.8347, 2.8347, 2.8347, 2.8347, 2.8347"
   stroke-linejoin="round"
   stroke-linecap="round"
   stroke-width="0.5669"
   stroke="#9e191b"
   fill="none" />
		<path
   id="path741"
   d="m 687.178,262.318 c 0,-6.406 -2.368,-12.079 -6.011,-15.584 1.693,-3.147 2.691,-6.99 2.691,-11.142 0,-10.398 -6.237,-18.869 -14.042,-19.26 0.493,-1.933 0.765,-4 0.765,-6.152 0,-10.648 -6.539,-19.279 -14.605,-19.279 -3.337,0 -6.411,1.482 -8.872,3.969 -1.241,-8.985 -7.197,-15.799 -14.362,-15.799 -7.515,0 -13.701,7.493 -14.513,17.126 -2.618,-3.28 -6.154,-5.296 -10.049,-5.296 -8.066,0 -14.605,8.631 -14.605,19.278 0,2.33 0.314,4.565 0.888,6.633 -7.55,0.746 -13.501,9.062 -13.501,19.218 0,5.704 1.878,10.826 4.86,14.356 -3.555,3.516 -5.856,9.123 -5.856,15.438 0,9.128 4.806,16.768 11.26,18.765 -1.656,3.126 -2.63,6.927 -2.63,11.029 0,10.647 6.539,19.279 14.605,19.279 2.984,0 5.757,-1.184 8.069,-3.211 1.583,8.387 7.326,14.602 14.17,14.602 5.58,0 10.428,-4.134 12.887,-10.206 2.677,4.354 6.763,7.139 11.343,7.139 7.518,0 13.707,-7.501 14.514,-17.142 1.671,0.88 3.492,1.369 5.401,1.369 8.066,0 14.605,-8.631 14.605,-19.279 0,-3.998 -0.922,-7.713 -2.502,-10.793 3.345,-3.534 5.49,-8.964 5.49,-15.058 z m -50.394,32.55 c -2.677,-4.354 -6.764,-7.139 -11.343,-7.139 -2.984,0 -5.757,1.184 -8.069,3.211 -1.318,-6.975 -5.512,-12.443 -10.824,-14.089 1.655,-3.124 2.629,-6.926 2.629,-11.029 0,-5.704 -1.877,-10.827 -4.86,-14.356 3.556,-3.517 5.856,-9.122 5.856,-15.438 0,-2.33 -0.314,-4.565 -0.887,-6.633 7.009,-0.693 12.637,-7.908 13.408,-17.066 2.619,3.28 6.154,5.297 10.049,5.297 3.338,0 6.412,-1.481 8.872,-3.968 1.208,8.748 6.888,15.432 13.799,15.78 -0.493,1.933 -0.764,4 -0.764,6.153 0,6.405 2.368,12.077 6.01,15.583 -1.693,3.147 -2.69,6.99 -2.69,11.143 0,3.998 0.922,7.713 2.502,10.793 -2.949,3.114 -4.963,7.702 -5.399,12.92 -1.671,-0.878 -3.493,-1.367 -5.401,-1.367 -5.582,0 -10.43,4.132 -12.888,10.205 z"
   fill="#f39200" />
		<path
   id="path743"
   d="m 672.622,245.63 c -0.948,-4.496 -3.449,-7.867 -6.524,-9.39 0.723,-2.645 0.855,-5.6 0.241,-8.514 -1.538,-7.298 -7.169,-11.636 -12.704,-9.899 0.06,-1.484 -0.055,-3.004 -0.374,-4.515 -1.574,-7.473 -7.44,-11.846 -13.102,-9.768 -2.342,0.861 -4.28,2.693 -5.639,5.072 -2.2,-5.985 -7.388,-9.234 -12.417,-7.387 -5.274,1.936 -8.509,8.79 -7.654,15.76 -2.322,-1.628 -5.102,-2.132 -7.836,-1.128 -5.66,2.079 -8.974,9.821 -7.399,17.294 0.344,1.636 0.895,3.124 1.604,4.427 -5.189,2.469 -8.136,9.839 -6.634,16.967 0.844,4.004 2.919,7.115 5.534,8.825 -1.975,3.383 -2.761,7.912 -1.828,12.344 1.35,6.407 5.854,10.53 10.679,10.268 -0.7,2.621 -0.822,5.54 -0.215,8.419 1.574,7.472 7.44,11.845 13.102,9.767 2.094,-0.769 3.866,-2.314 5.188,-4.332 2.352,5.478 7.302,8.361 12.105,6.598 3.917,-1.439 6.708,-5.589 7.536,-10.484 2.523,2.366 5.802,3.268 9.017,2.087 5.277,-1.937 8.512,-8.797 7.652,-15.771 1.302,0.188 2.653,0.061 3.993,-0.431 5.661,-2.079 8.974,-9.821 7.399,-17.295 -0.591,-2.806 -1.788,-5.175 -3.352,-6.929 1.827,-3.344 2.529,-7.708 1.628,-11.985 z m -30.556,35.833 c -2.523,-2.367 -5.803,-3.268 -9.016,-2.088 -2.095,0.768 -3.866,2.315 -5.189,4.333 -1.956,-4.556 -5.709,-7.312 -9.681,-7.099 0.7,-2.619 0.822,-5.539 0.215,-8.418 -0.844,-4.004 -2.919,-7.115 -5.535,-8.823 1.976,-3.385 2.761,-7.912 1.827,-12.344 -0.344,-1.636 -0.895,-3.124 -1.603,-4.427 4.816,-2.292 7.7,-8.807 6.886,-15.432 2.324,1.627 5.103,2.132 7.837,1.127 2.343,-0.86 4.282,-2.692 5.641,-5.071 2.141,5.829 7.116,9.056 12.019,7.519 -0.06,1.484 0.055,3.004 0.374,4.515 0.947,4.496 3.448,7.867 6.523,9.389 -0.722,2.645 -0.854,5.6 -0.24,8.514 0.592,2.806 1.788,5.176 3.353,6.93 -1.609,2.946 -2.344,6.685 -1.878,10.459 -1.303,-0.185 -2.653,-0.059 -3.993,0.433 -3.921,1.437 -6.712,5.586 -7.54,10.483 z"
   fill="#f7e8ae"
   opacity="0.28" />
		<ellipse
   id="ellipse745"
   ry="7.3099999"
   rx="7.1609998"
   cy="223.53"
   cx="656.85602"
   fill="#c05821" />
		<ellipse
   id="ellipse747"
   ry="4.796"
   rx="4.697"
   cy="223.826"
   cx="656.40698"
   fill="#e5b98d" />
		<ellipse
   id="ellipse749"
   ry="7.3099999"
   rx="7.1609998"
   cy="223.53"
   cx="608.70801"
   fill="#c05821" />
		<ellipse
   id="ellipse751"
   ry="4.7950001"
   rx="4.697"
   cy="224.12199"
   cx="609.828"
   fill="#e5b98d" />
		<path
   id="path753"
   d="m 665.18,267.729 c 0,16.595 -14.463,30.047 -32.3,30.047 -17.839,0 -32.3,-13.452 -32.3,-30.047 0,-16.594 14.461,-61.207 32.3,-61.207 17.838,0 32.3,44.612 32.3,61.207 z"
   fill="#f7e8ae" />
		<path
   id="path755"
   d="m 604.771,245.223 c -2.663,8.795 -4.19,17.126 -4.19,22.506 0,16.595 14.461,30.047 32.3,30.047 17.837,0 32.3,-13.452 32.3,-30.047 0,-5.553 -1.627,-14.243 -4.448,-23.348 -7.837,-2.689 -17.011,-4.238 -26.82,-4.238 -10.795,0 -20.822,1.872 -29.142,5.08 z"
   fill="#9e191b" />
		<path
   id="path757"
   d="M 624.836,210.837"
   fill="#c05821" />
		<ellipse
   id="ellipse759"
   ry="2.983"
   rx="2.2579999"
   cy="226.032"
   cx="624.729"
   fill="#3c3c3b" />
		<ellipse
   id="ellipse761"
   ry="2.983"
   rx="2.2579999"
   cy="226.032"
   cx="641.74701"
   fill="#3c3c3b" />
		
			<path
   id="path763"
   d="m 606.494,246.097 c 0,0 -18.466,45.586 27.64,49.516 0,0 41.521,-3.368 24.502,-49.965 0,-0.001 -22.088,-8.87 -52.142,0.449 z"
   stroke-dasharray="2.8347, 2.8347, 2.8347, 2.8347, 2.8347, 2.8347"
   stroke-linejoin="round"
   stroke-linecap="round"
   stroke-width="0.5669"
   stroke="#f4ca64"
   fill="none" />
		<path
   id="path765"
   d="m 616.485,250.124 c 0.608,2.438 1.39,4.575 2.277,6.464 0.841,-0.57 1.792,-0.898 2.801,-0.898 3.391,0 6.142,3.631 6.142,8.106 0,1.133 -0.177,2.21 -0.494,3.189 3.375,2.405 6.138,3.022 6.138,3.022 1.925,-0.469 3.691,-1.416 5.298,-2.645 -0.401,-1.078 -0.632,-2.285 -0.632,-3.566 0,-4.476 2.752,-8.106 6.142,-8.106 1.05,0 2.036,0.348 2.901,0.962 1.859,-3.507 2.827,-6.311 2.827,-6.311 -15.064,-6.051 -33.4,-0.217 -33.4,-0.217 z"
   fill="#ec8e3a" />
		<path
   id="path767"
   d="m 647.066,257.699 c -0.837,-0.722 -1.834,-1.146 -2.908,-1.146 -2.94,0 -5.324,3.147 -5.324,7.027 0,1.307 0.275,2.525 0.745,3.574 4.369,-2.863 6.549,-7.076 7.487,-9.455 z"
   fill="#f2d39a" />
		<path
   id="path769"
   d="m 618.811,257.699 c 0.837,-0.722 1.834,-1.146 2.909,-1.146 2.939,0 5.323,3.147 5.323,7.027 0,1.307 -0.275,2.525 -0.745,3.574 -4.369,-2.863 -6.548,-7.076 -7.487,-9.455 z"
   fill="#f2d39a" />
		
			<path
   id="path771"
   d="m 619.573,197.821 c 0,0 2.263,-16.551 13.757,-16.78 11.493,-0.23 12.364,18.849 12.364,18.849 0,0 8.534,-11.263 19.504,-2.069 0,0 5.746,9.425 2.089,20.689 0,0 16.543,-0.92 14.803,17.24 0,0 -0.871,11.034 -5.747,13.102 0,0 19.156,13.333 0.348,28.275 0.523,1.378 9.926,8.504 2.612,21.837 0,0 -6.269,12.183 -18.111,2.298 0,0 2.438,12.414 -6.443,17.93 -8.882,5.517 -16.37,-7.125 -16.37,-7.125 0,0 -9.23,16.552 -16.893,9.654 -7.662,-6.895 -8.184,-14.251 -8.184,-14.251 0,0 -13.758,10.344 -20.723,-3.909 -6.965,-14.252 2.96,-21.147 2.96,-21.147 0,0 -13.757,-10e-4 -12.887,-17.241 0.871,-17.24 7.313,-14.942 7.313,-14.942 0,0 -11.492,-8.965 -3.482,-24.366 0,0 6.095,-7.586 10.797,-7.817 0,0 -5.224,-17.7 8.707,-24.595 0,0 9.578,-0.691 12.887,6.436 z"
   stroke-dasharray="2.8347, 2.8347, 2.8347, 2.8347, 2.8347, 2.8347"
   stroke-linejoin="round"
   stroke-linecap="round"
   stroke-width="0.5669"
   stroke="#ffffff"
   fill="none" />
		<path
   id="path773"
   d="m 652.983,381.463 c -1.033,0 -1.932,1.422 -2.398,3.519 -0.466,-2.097 -1.365,-3.519 -2.399,-3.519 -1.127,0 -2.095,1.692 -2.514,4.108 -0.419,-2.416 -1.387,-4.108 -2.514,-4.108 -1.382,0 -2.521,2.545 -2.707,5.847 l 15.155,-0.974 c -0.333,-2.815 -1.38,-4.873 -2.623,-4.873 z"
   fill="#8b7766" />
		<path
   id="path775"
   d="m 624.899,386.677 c -0.266,-3.496 -1.171,-6.075 -2.251,-6.075 -0.881,0 -1.647,1.714 -2.043,4.241 -0.397,-2.528 -1.163,-4.241 -2.044,-4.241 -0.961,0 -1.785,2.039 -2.142,4.952 -0.357,-2.913 -1.182,-4.952 -2.143,-4.952 -1.151,0 -2.105,2.932 -2.294,6.783 z"
   fill="#8b7766" />
		<path
   id="path777"
   d="m 637.116,366.617 c 8.089,-11.017 -0.421,-18.51 -0.421,-18.51 l 0.713,-2.826 -3.211,2.355 -1.427,-4.709 -1.962,4.003 -0.892,-2.59 c -8.388,4.547 -4.074,16.563 -2.475,20.299 0.373,-0.446 0.809,-0.745 1.318,-0.857 2.589,-0.57 6.008,-0.171 8.357,2.835 z"
   fill="#e47127" />
		<path
   id="path779"
   d="m 627.954,208.708 -0.535,-4.238 2.498,4.71 0.535,-6.123 c 0,0 1.249,7.3 1.606,6.123 0.356,-1.178 1.605,-5.651 1.605,-5.651 l 0.858,5.087 1.639,-4.146 0.357,4.71 1.962,-2.119 0.178,1.883"
   stroke-width="0.5669"
   stroke="#9e191b"
   fill="none" />
	</g>

</svg>
