<?xml version="1.0" encoding="utf-8"?>
<!-- Generator: Adobe Illustrator 17.0.0, SVG Export Plug-In . SVG Version: 6.00 Build 0)  -->
<!DOCTYPE svg PUBLIC "-//W3C//DTD SVG 1.1//EN" "http://www.w3.org/Graphics/SVG/1.1/DTD/svg11.dtd">
<svg version="1.1" id="Слой_1" xmlns="http://www.w3.org/2000/svg" xmlns:xlink="http://www.w3.org/1999/xlink" x="0px" y="0px"
	 width="150px" height="150px" viewBox="0 0 150 150" enable-background="new 0 0 150 150" xml:space="preserve" style="transform:scale(1.5)">
<path fill-rule="evenodd" clip-rule="evenodd" d="M53.57,73.045c0-0.49,0-0.965,0-1.44c-0.015-0.787-0.074-1.618-0.223-2.39
	c-0.713,0.059-1.425,0.119-2.138,0.178c-2.494-0.149-2.494-0.149-2.598-0.119c-0.594,1.218-1.277,2.197-2.242,3.133
	c0,0.089,0,0.193,0,0.297c0.549,1.514,1.306,3.029-0.015,4.35c-1.039,0.445-1.975-0.327-2.613-1.054
	c-0.535-0.876-0.832-1.514-0.935-1.633c-0.609,0.074-0.609,0.074-0.772,0.148c-0.015,0.03-0.03,0.074-0.045,0.119
	c-0.015,0.03-0.015,0.074-0.015,0.119c-0.03,0-0.045,0-0.059,0c0,0.386,0,0.787,0,1.188c0.015,0,0.044,0,0.074,0
	c0.208,6.844,0.208,6.844,0.178,7.23c-0.401,1.425-3.133,1.44-4.276,1.514c-1.767-0.134-4.335-0.757-4.499-2.851
	c0.148-0.386,0.831-1.618,0.594-1.975c-1.767-0.624-1.945-2.212-0.757-3.578c0.579-0.475,1.158-0.802,1.247-1.559
	c0.044,0,0.044,0,0.044-1.336c-0.03,0-0.059,0-0.074,0c-0.623,0.104-1.173-0.015-1.692-0.297c-0.579-0.846-0.089-2.138,0.445-2.895
	c0-0.327-0.327-0.52-0.609-0.609c-0.059,0.267-0.119,0.549-0.178,0.832c-0.609,5.775-0.609,5.775-0.609,6.236
	c-0.03,0.134-0.045,0.267-0.059,0.401c0,0.356,0,0.713,0,1.084c0.015,0.148,0.03,0.297,0.059,0.445
	c0.074,1.915,0.267,3.83,0.312,5.746c-0.713,1.143-1.5,1.366-2.821,1.648c-0.534,0.044-1.054,0.089-1.574,0.148
	c-2.331-0.312-5.375-1.01-4.365-4.053c0.208-0.401,1.247-1.915,1.039-2.331c-1.841-0.327-2.658-0.742-1.975-2.687
	c0.653-1.01,1.292-1.5,2.257-2.212c0.46-0.549,0.371-1.381,0.356-2.078c-0.46-4.053-1.41-8.032-2.272-12.011
	c-0.208-0.624-0.401-1.247-0.594-1.856c-1.975-3.415-1.975-3.415-2.776-4.929c-1.455-3.252-2.465-6.251-3.073-9.769
	c-0.06-0.683-0.119-1.366-0.178-2.034c0-0.638,0-1.262,0-1.885c0.134-1.782,0.416-3.37,0.965-5.078
	c-0.594,0-2.479,2.658-2.806,3.088c-1.366,2.197-2.316,4.439-2.791,6.993c-0.045,0.727-0.045,0.727,0,1.782
	c0.178,1.173,0.416,2.316,0.713,3.459c0.401,1.039,0.401,1.039,1.618,3.771c0.356,1.232,0.356,1.232,0.564,2.197
	c0.252,3.044-0.653,5.182-2.717,7.364c-1.856,1.203-3.786,1.841-5.983,2.093c-0.564,0.163-0.965,0.312-1.455,0.638
	C4.204,67.121,4.1,68.413,3.21,67.745c-0.638-0.817-1.039-1.648-1.425-2.613c-0.475-3.355,0.668-5.879,3.251-7.928
	c1.188-0.727,2.465-1.44,3.548-2.316C8.896,54.308,9,53.848,9.089,53.195c0-0.401,0-0.802,0-1.188
	c-0.445-2.39-1.099-4.84-1.188-7.275c0-0.475,0-0.95,0-1.425c0.089-2.242,0.906-4.335,1.99-6.295
	c1.128-1.618,2.301-3.192,3.652-4.632c0.505-0.46,1.024-0.921,1.544-1.366c0.668-0.46,1.336-0.906,2.019-1.351
	c1.485-0.757,2.925-1.44,4.513-1.96c0.46-0.505,0.935-0.995,1.41-1.485c2.747-2.583,5.924-4.395,9.383-5.865
	c0.742-0.267,1.485-0.534,2.227-0.787c2.598-0.594,2.598-0.594,3.979-0.831c4.706-0.178,9.606-0.728,14.297-0.074
	c2.361,0.49,4.721,0.98,7.082,1.485c4.796,1.41,9.294,3.578,13.436,6.369c0.505,0.371,1.01,0.742,1.529,1.113
	c1.796-0.564,3.444-0.787,4.959,0.624c0.059,0,0.133,0.015,0.208,0.03c1.5-0.935,4.439-0.727,5.449,0.921
	c0.267,0,0.267,0,0.817-0.149c2.004-0.03,3.043,0.238,4.543,1.603c0.95-0.638,1.232-1.722,1.9-2.628
	c2.093-1.158,3.133,0.935,3.519,2.672c0,1.663-0.802,3.192-1.752,4.528c-0.623,0.638-0.623,0.638-0.668,0.742
	c2.153,0.995,2.732,2.717,3.652,4.81c0.104,0.95-0.713,1.024-1.455,1.396c-1.069,0.208-1.069,0.208-1.604,0.237
	c-1.128-0.163-2.168-0.505-3.252-0.846c0.653,3.311,2.791,6.607,4.632,9.354c0.401,0.817,0.802,1.648,1.217,2.479
	c0.356,1.084,0.356,1.084,0.742,2.598c0,0.787,0,1.574,0,2.375c-0.698,3.489-2.717,5.508-5.642,7.364
	c-0.802,0.297-1.589,0.594-2.375,0.891c-1.693,0.297-3.415,0.505-5.122,0.668c-0.03,0-0.044,0-0.059,0c-0.416,0-0.831,0-1.232,0
	c-1.782,0-3.534-0.46-5.167-1.114c-1.039-0.638-2.108-0.965-3.192-1.485c-1.039-0.757-1.945-1.663-2.761-2.658
	c-0.341,0-0.728,0.52-0.965,0.742c-0.416,0.327-1.381,0.861-1.618,1.336c-0.965,13.763-0.965,13.763-0.965,14.535
	c-0.03,0-0.059,0-0.074,0c0,0.52,0,1.054,0,1.589c0.015,0,0.044,0,0.074,0c0.134,1.425,0.831,2.776,0.742,4.216
	c-0.861,2.613-5.538,2.227-7.572,1.782c-1.396-1.054-0.297-3.756,0.208-4.989c0-0.698-1.024-1.128-1.47-1.618
	c-0.579-1.767,1.188-1.826,1.826-3.103c0.015-0.416,0.044-0.817,0.074-1.218c0-0.505,0-0.995,0-1.485
	c-0.059-2.049-0.104-4.098-0.149-6.132c-0.252,0.015-0.252,0.015-1.96,0.475c-0.341,2.465-0.341,2.465-0.579,4.677
	c-0.089,1.514-0.163,3.029-0.238,4.543c-0.015,0.341-0.03,0.683-0.045,1.039c0,0.713,0,1.425,0,2.138
	c0.045,0.757,0.119,1.5,0.312,2.227c0.282,0.475,0.564,0.95,0.846,1.425c0.148,1.188,0.074,1.871-0.965,2.554
	c-2.286,0.876-6.176,1.381-8.092-0.534c-1.113-1.782-0.03-2.999,0.698-4.736c0-0.831-0.609-0.95-1.292-1.262
	c-1.975-1.544,0.564-3.415,1.737-4.365C53.511,74.931,53.496,74.203,53.57,73.045L53.57,73.045z"/>
<path fill-rule="evenodd" clip-rule="evenodd" fill="#BB9A80" d="M55.604,86.734c-1.188-0.119-2.257-0.223-3.222-0.965
	c-1.054-1.262,0.297-2.955,0.817-4.127c0.327,0,0.683,0.267,0.98,0.416c0.535,0.163,1.084,0.327,1.633,0.505
	c0.713,0.074,0.713,0.074,1.915,0.074c0.416-0.163,0.831-0.312,1.262-0.46c0,0.846,0.965,1.648,1.188,2.42c0,0.208,0,0.416,0,0.638
	c-0.49,1.232-2.138,1.321-3.281,1.485C56.465,86.719,56.035,86.719,55.604,86.734L55.604,86.734z"/>
<path fill-rule="evenodd" clip-rule="evenodd" fill="#BB9A80" d="M64.542,81.701c0.297,0.045,0.297,0.045,1.336,0.059
	c0-0.03,0-0.045,0-0.059c0.772-0.208,1.41-0.445,2.123-0.817c0.386,1.306,0.742,2.168,0.787,3.459
	c-0.267,0.549-0.98,0.831-1.529,1.099c-1.574,0.401-3.534,0.683-5.018-0.119c-0.49-1.247,0.149-2.673,0.668-3.801
	C63.429,81.449,64.022,81.642,64.542,81.701L64.542,81.701z"/>
<path fill-rule="evenodd" clip-rule="evenodd" fill="#BB9A80" d="M27.692,85.338c-1.381-0.208-3.964-0.475-3.801-2.465
	c0.327-0.935,0.831-1.782,1.306-2.643c0.46,0,1.039,0.505,1.485,0.713c0.46,0.119,0.935,0.238,1.411,0.356
	c0.594,0.015,0.594,0.015,1.396-0.074c0.549-0.223,1.069-0.535,1.574-0.861c0.03,0.045,0.074,0.089,0.119,0.148
	c0.059,1.069,0.119,2.153,0.193,3.237c-0.149,0.594-0.149,0.594-0.252,0.742C30.157,85.175,28.865,85.22,27.692,85.338
	L27.692,85.338z"/>
<path fill-rule="evenodd" clip-rule="evenodd" fill="#BB9A80" d="M37.164,83.883c-0.089-0.044-0.163-0.089-0.238-0.119
	c-0.995-0.178-2.316-0.624-2.747-1.633c0.059-0.653,0.416-1.232,0.698-1.826c0.134-0.015,0.416,0.119,1.722,0.49
	c0.787,0.119,1.5,0.163,2.301,0.045c0.431-0.193,0.876-0.386,1.321-0.579c0.98-0.728,0.98-0.728,1.084-0.742
	c0.178,2.969,0.178,2.969,0.149,3.519C40.386,83.958,38.471,83.869,37.164,83.883L37.164,83.883z"/>
<path fill-rule="evenodd" clip-rule="evenodd" fill="#FFFFFF" d="M31.003,76.905c0,0.356,0,0.713,0,1.084
	c0.059,1.678,0.059,1.678,0.03,1.782c-0.594,0.549-1.069,0.92-1.886,1.099c-0.401,0-0.802,0-1.188,0
	c-0.846-0.223-1.559-0.52-2.272-1.054c-0.252-0.297-0.252-0.297-0.594-0.594c-0.876-0.49-3.088-0.193-2.227-1.752
	c0.609-0.698,0.609-0.698,1.307-1.336c0.817-0.549,0.817-0.549,1.262-0.921c0.713-1.277,0.297-3.251,0.104-4.647
	c-0.668-3.534-1.44-7.067-2.183-10.586c-0.356-1.069-0.772-2.034-1.336-2.999c-0.371-0.549,0.104-1.455,0.267-2.004
	c0.163-0.237,0.341-0.475,0.52-0.698c1.841-1.292,5.582-2.361,4.662-5.33c-0.342-0.683-0.95-1.188-1.351-1.826
	c0-0.772,0.46-1.277,0.891-1.886c0.921-0.787,2.123-1.455,2.361-2.702c0.015,0,0.044,0,0.074,0c0-0.386,0-0.772,0-1.143
	c-0.03,0-0.06,0-0.074,0c-0.178-0.817-0.549-1.485-1.024-2.182c-1.381-1.292-3.608-2.375-3.608-4.514
	c0.059-0.297,0.134-0.594,0.208-0.891c0.95-2.257,3.266-4.172,2.168-6.829c-0.653-0.742-1.069-1.173-2.004-1.485
	c-0.015-0.045-0.03-0.074-0.045-0.104c0.475-0.356,0.95-0.713,1.425-1.069c1.395-0.846,1.395-0.846,1.544-0.98
	c0.149-0.015,0.149-0.015,0.371-0.134c0.193,0.074,1.143,0.178,1.633,0.297c0.475,0.356,0.95,0.713,1.44,1.084
	c0.534,0.787,1.069,1.544,1.321,2.479c0,2.183-1.173,4.113-1.069,6.28c0.431,1.01,1.336,1.693,1.93,2.628
	c0.074,0.312,0.163,0.624,0.252,0.935c0,1.351,0,2.702,0,4.053c0.401,1.752,1.5,1.752,3.103,1.96
	c0.653,0.178,1.425,0.282,2.004,0.624c0.713,0.579,0.713,0.579,1.44,1.307c0.431,0.817,0.861,1.648,1.306,2.479
	c0.49,0.594,0.995,1.143,1.603,1.618c2.272,1.217,4.068,0.371,5.969-1.069c0.906-1.306,1.084-2.865,1.084-4.424
	c-0.148-0.787-0.282-1.574-0.416-2.361c0-1.366-0.163-2.732,0.742-3.875c0.935-0.638,1.678-1.054,2.286-2.049
	c0.238-0.772,0.238-0.772,0.297-0.831c0.044-0.891,0.044-0.891,0-2.687c0-0.356,0-0.698,0-1.039
	c0.015-0.668,0.044-1.336,0.074-2.004c0.401-1.975,0.579-2.999,2.346-4.083c0.267-0.089,0.297-0.163,1.113-0.534
	c0.594-0.238,1.203-0.475,1.811-0.713c0.802-0.49,2.197-1.93,3.162-1.782c0.995,0.342,0.995,0.342,1.084,0.431
	c0,0.015,0,0.045,0,0.074c-0.282,0.163-1.381,0.668-1.47,0.965c-0.074,0.015-0.134,0.03-0.193,0.045
	c-1.292,0.995-3.237,2.539-1.321,3.964c0.505,0.119,1.054,0.134,1.529,0.326c0.906,0.906,1.306,1.945,2.658,2.079
	c0.327-0.015,0.921,0.015,1.114-0.297c1.143-0.431,1.604-1.514,2.108-2.539c0.193-0.178,0.386-0.356,0.594-0.535
	c0.638-0.119,1.247-0.223,1.901-0.238c0.371-0.178,0.371-0.178,0.505-0.312c0.059,0,0.119,0,0.178,0
	c1.262,0.802,2.509,1.633,3.652,2.583c0.089,0.163,0.237,0.178,0.237,0.386c-0.267,0.312-0.534,0.638-0.802,0.965
	c-2.197-1.217-4.38-0.742-6.013,1.024c-0.549,1.01-0.549,1.01-1.203,2.45c-0.505,0-1.99-1.514-2.435-1.871
	c-0.802-0.327-0.935-0.534-1.514,0.341c-0.683,1.707-0.98,3.222,0.341,4.707c0.312,0.223,1.663,1.01,1.707,1.143
	c-0.519,0.267-1.039,0.535-1.544,0.802c-0.371,0.341-0.742,0.683-1.099,1.039c-0.935,1.5-1.826,2.895-1.826,4.736
	c1.143,0.683,2.955,0.416,4.202,0.193c1.574-0.52,3.237-1.752,3.875-3.311c0.727,3.296,0.727,3.296,1.084,4.647
	c0.534,4.068,0.534,4.068,1.099,7.884c0.238,2.613,0.535,5.048,1.618,7.453c0.015,0.134,0.03,0.267,0.044,0.416
	c-1.188,1.781-3.548,2.954-5.36,3.949c-1.321,0.594-2.643,1.188-3.964,1.782c-0.594,0.148-1.811,0.683-2.39,0.579
	c0.03-0.594,0.059-1.188,0.089-1.767c-0.119-0.015-0.237-0.03-0.356-0.03c-0.505,4.306-0.995,8.522-1.128,12.857
	c-0.015,0.549-0.015,1.099-0.015,1.648c0.015,0.52,0.03,1.054,0.045,1.589c-0.223,0.134-0.431,0.267-0.638,0.416
	c-1.707,0.416-4.083-0.178-5.226-1.514c-0.341-0.223-1.559-0.757-1.752-0.906c-0.846-1.529,0.876-2.272,1.945-2.999
	c0.624-0.713,0.802-1.069,1.039-1.975c0.208-2.658,0.03-5.375-0.297-8.017c-0.074-0.193-0.149-0.386-0.208-0.564
	c-0.089,0-0.178,0-0.267,0c-0.208,0.416,0.148,1.648,0.148,2.242c-3.177,0.638-6.518-0.074-9.695-0.416
	c-3.326-0.698-6.726-0.95-9.74-2.643c0.104-0.564,0.623-0.965,0.802-1.5c-0.044-0.059-0.089-0.104-0.119-0.148
	c-0.074,0-0.149,0-0.223,0C31.627,67.314,31.448,72.392,31.003,76.905L31.003,76.905z"/>
<path fill-rule="evenodd" clip-rule="evenodd" fill="#FBEFDE" d="M63.399,75.614c0-0.594,0-1.173,0-1.752
	c-0.03-0.549-0.059-1.099-0.074-1.633c0.015,0,0.044,0,0.074,0c0-0.416,0-0.831,0-1.232c-0.045,0-0.074,0-0.104,0
	c-0.015-0.416-0.015-0.831-0.015-1.247c0-0.698,0-1.396,0.015-2.079c0-0.312-0.03-0.549,0.148-0.802
	c0.341-0.193,0.341-0.193,3.86-1.782c0.475-0.282,0.965-0.668,1.485-0.787c0.045,0.134,0.045,0.134,0.015,2.91
	c-0.282,3.504-0.564,7.008-0.831,10.526c-0.03,0.817-0.045,1.633-0.06,2.465c-0.237,0.727-1.544,0.95-2.182,1.084
	c-0.876,0-1.945,0.059-2.702-0.445c-0.431-0.728-1.024-1.158-1.678-1.633c0-0.861,0.713-1.128,1.336-1.574
	C63.31,77.009,63.325,76.445,63.399,75.614L63.399,75.614z"/>
<path fill-rule="evenodd" clip-rule="evenodd" fill="#FBEFDE" d="M35.234,74.263c0.03,0,0.059,0,0.104,0c0-0.49,0-0.965,0-1.44
	c-0.03,0-0.059,0-0.074,0c-0.059-0.074-0.059-0.074-0.074-0.238c0.624,0,1.396,0.579,1.989,0.831c0,0.535-0.475,1.5-0.638,2.064
	c0.015,0.134,0.015,0.134-0.119,0.609c0,1.01,0.059,1.871,1.306,1.871c1.574-0.638,1.782-2.153,2.257-3.712
	c0.208-0.104,1.054-0.163,1.232,0.015c0,1.054,0.045,2.108,0.134,3.163c-0.03,0-0.059,0-0.074,0c0,0.475,0,0.95,0,1.44
	c0.015,0,0.044,0,0.074,0c-0.208,0.104-0.297,0.223-0.445,0.401c-0.638,0.475-0.638,0.475-0.668,0.549
	c-0.445,0.208-0.891,0.416-1.321,0.624c-1.396,0.267-3.355-0.119-4.38-1.143c-1.396-0.49-1.811-1.024-0.891-2.316
	c0.371-0.386,0.831-0.728,1.217-1.114C35.13,75.287,35.175,74.901,35.234,74.263L35.234,74.263z"/>
<path fill-rule="evenodd" clip-rule="evenodd" fill="#F7CAC9" d="M37.535,77.603c-0.178-0.119-0.356-0.238-0.519-0.356
	c-0.475-0.772,0.134-2.836,0.683-3.519c0.609,0.074,1.306,0.104,1.871,0.341c0,0.787-0.416,1.693-0.638,2.435
	C38.56,77.098,38.174,77.306,37.535,77.603L37.535,77.603z"/>
<path fill-rule="evenodd" clip-rule="evenodd" fill="#F7CAC9" d="M45.657,76.415c-1.069-0.356-1.44-1.232-1.96-2.182
	c-0.045-0.163-0.089-0.312-0.134-0.46c0.104-0.223,1.752-0.995,2.049-0.92C45.894,73.52,47.245,76.267,45.657,76.415L45.657,76.415z
	"/>
<path fill-rule="evenodd" clip-rule="evenodd" fill="#F7CAC9" d="M40.876,73.743c-0.787-0.104-1.559-0.208-2.331-0.312
	c-0.921-0.297-1.797-0.698-2.643-1.173c-0.015-0.045-0.03-0.089-0.03-0.119c0.371-0.401,0.713-0.772,1.173-1.084
	c0.49-0.98-0.52-2.301-1.559-2.301c-0.356,0.208-1.336,0.95-1.678,0.95c-0.445-0.505-0.95-0.98-0.95-1.707
	c0.341-0.921,0.341-0.921,1.024-2.361c0.193,0.074,0.52,0.356,1.262,0.742c2.836,0.98,5.909,1.396,8.864,1.975
	c1.247,0.134,2.702,0.163,3.89,0.52c-0.059,0.356-0.119,0.416-0.193,0.727C46.102,72.229,43.905,73.476,40.876,73.743L40.876,73.743
	z"/>
<path fill-rule="evenodd" clip-rule="evenodd" fill="#F7CAC9" d="M33.408,72.644c-1.128-1.351,1.084-2.851,2.108-3.489
	c0.935,0,1.306,0.683,1.306,1.485c-0.802,0.802-1.574,1.529-2.658,1.975C33.913,72.615,33.66,72.63,33.408,72.644L33.408,72.644z"/>
<path fill-rule="evenodd" clip-rule="evenodd" fill="#F3C781" d="M8.584,44.985c0-0.609,0-1.218,0-1.826
	c0.475-4.796,3.534-8.819,7.201-11.759c1.366-0.935,2.583-1.648,4.083-2.331c1.321-0.475,1.321-0.475,1.396-0.445
	c-0.95,1.277-1.811,2.583-2.658,3.934c-0.312,0.624-0.327,0.935-0.92,1.128c-1.425,1.143-2.628,2.435-3.771,3.875
	c-1.811,2.984-3.281,6.043-3.133,9.621c0.208,1.307,0.282,2.984,0.98,4.142c0.015,0.104,0.03,0.223,0.059,0.341
	c1.01,2.168,2.227,4.617,1.886,7.097c-0.134,0.535-0.267,1.069-0.401,1.618c-0.267,0.49-0.534,0.98-0.787,1.485
	c-1.336,1.648-2.554,2.375-4.573,2.939c-1.366,0.208-2.643,0.416-3.92,0.921c-0.015-0.044-0.015-0.089-0.015-0.134
	c0.817-1.01,1.678-1.01,2.895-1.084c0-0.045,0-0.089,0-0.134c-0.802-0.149-1.47-0.119-2.272,0.059
	c0.356-0.727,1.128-1.128,1.782-1.559c-0.46-0.46-2.123,1.44-2.316,1.648c-0.342,0.683-0.564,1.262-0.713,1.989
	c-0.045,0-0.089,0.015-0.134,0.03c-0.327-0.594-0.594-1.203-0.832-1.841c-0.148-2.019,0.282-3.875,1.5-5.493
	c1.396-1.5,3.177-2.39,4.84-3.548c0.906-0.802,0.965-1.796,1.054-2.94C9.594,50.122,8.881,47.568,8.584,44.985L8.584,44.985z"/>
<path fill-rule="evenodd" clip-rule="evenodd" fill="#F7CAC9" d="M75.009,60.99c-0.015-0.46-0.03-0.92-0.03-1.381
	c-0.015-0.134-0.015-0.267-0.015-0.401c0.564,0.059,0.92,0.535,1.455,0.638c0.119-0.119,0.163-0.163,0.163-0.341
	c-0.223-0.148-0.445-0.297-0.668-0.445c-1.024-0.431-2.613-0.148-2.613,1.247c0.282,0.282,0.787-0.802,1.113-0.906
	c0.06,0.193,0.06,0.193,0.149,2.168c0.282,0.742,0.638,1.44,1.025,2.138c0.312,0.341,0.312,0.341,0.341,0.46
	c-1.202-0.535-2.153-1.663-2.999-2.643c-0.341-0.683-0.683-1.351-1.024-2.019c-0.267-1.039-0.535-2.064-0.787-3.088
	c-0.312-2.954-0.312-2.954-0.297-3.355c1.47-1.47,3.875-2.539,5.82-3.252c2.331-0.431,4.751-1.009,7.141-1.009
	c0.52,0,1.054,0,1.589,0c0.891-0.03,1.781-0.044,2.672-0.059c0.386,0,0.787,0,1.188,0c1.648,0.193,3.251,0.475,4.87,0.876
	c1.366,2.093,2.583,4.291,3.014,6.785c-0.015,0.668-0.03,1.351-0.03,2.034c-0.653,3.103-2.717,5.434-5.582,6.859
	c-0.549,0.193-1.099,0.386-1.648,0.594c-1.396,0.237-2.806,0.46-4.202,0.638c-0.95,0-1.9,0-2.836,0
	c-0.846-0.119-1.885-0.238-2.717-0.445c-0.49-0.238-0.49-0.238-1.143-0.445C77.117,64.508,75.202,63.335,75.009,60.99L75.009,60.99z
	"/>
<path fill-rule="evenodd" clip-rule="evenodd" fill="#933D29" d="M55.233,41.674c0.356,0,0.713,0,1.084,0
	c1.232,0.074,1.574,0.535,1.485,1.797c-0.178,0.772-0.178,0.772-0.282,1.544c0.371,1.173,0.549,1.485,1.544,2.123
	c1.188,0.445,2.093,0.623,1.989,2.093c-0.193,0.668-0.564,1.559-0.609,1.856c0.223,0.757,0.223,0.757,0.401,1.113
	c0.861,0.861,1.93,1.5,2.257,2.702c0,1.292-0.193,1.841-0.995,2.865c-0.965,0.698-1.96,0.876-3.133,0.965
	c-0.846-0.178-1.618-0.505-2.361-0.98c-0.312-0.089-0.624-0.178-0.935-0.252c-0.475,0.059-0.935,0.134-1.396,0.208
	c-1.351,0.475-2.301,1.143-3.266-0.119c-1.351-2.435,0.787-4.439,2.197-6.28c0.52-0.252,0.49-1.544,0.475-2.019
	c-0.282-0.995-0.876-1.782-1.277-2.702C52.189,44.465,52.961,42.238,55.233,41.674L55.233,41.674z"/>
<path fill-rule="evenodd" clip-rule="evenodd" fill="#933D29" d="M25.064,25.387c0.015,0.03,0.03,0.059,0.045,0.104
	c0.935,0.312,1.351,0.742,2.004,1.485c1.099,2.658-1.217,4.573-2.168,6.829c-0.074,0.297-0.149,0.594-0.208,0.891
	c0,2.138,2.227,3.222,3.608,4.514c0.475,0.698,0.846,1.366,1.024,2.182c0,0.371,0,0.757,0,1.143
	c-0.237,1.247-1.44,1.915-2.361,2.702c-0.431,0.609-0.891,1.114-0.891,1.886c0.401,0.638,1.009,1.143,1.351,1.826
	c0.92,2.969-2.821,4.038-4.662,5.33c-0.178,0.223-0.356,0.46-0.52,0.698c-0.163,0.549-0.638,1.455-0.267,2.004
	c-0.416,0-0.579-0.698-0.653-0.995c-0.891-1.485-0.891-1.485-1.01-1.603c-0.519-1.143-1.039-2.286-1.559-3.415
	c-0.401-1.292-0.802-2.583-1.203-3.86c-0.208-1.114-0.416-2.227-0.609-3.326c-0.148-2.182-0.178-4.276,0.223-6.429
	c0.223-0.787,0.46-1.574,0.698-2.346C19.452,31.34,21.813,27.777,25.064,25.387L25.064,25.387z"/>
<path fill-rule="evenodd" clip-rule="evenodd" d="M75.469,56.565c-0.653-0.208-1.158-0.564-1.039-1.321
	c0.564-0.92,2.895-2.999,3.459-1.099c0,0.98-0.609,2.049-1.589,2.375C76.019,56.535,75.737,56.55,75.469,56.565L75.469,56.565z"/>
<path fill-rule="evenodd" clip-rule="evenodd" fill="#DB9995" d="M75.455,56.12c-1.544-0.772,0.52-2.064,1.499-2.153
	c0.074-0.074,0.148-0.134,0.223-0.193c0.817,0.609-0.089,2.123-0.891,2.316C76.004,56.09,75.722,56.105,75.455,56.12L75.455,56.12z"
	/>
<path fill-rule="evenodd" clip-rule="evenodd" d="M72.827,55.496c-0.772-0.386,0.342-1.989,0.609-2.42
	c0.757-0.698,0.757-0.698,1.143-0.98c1.351-0.416,2.643-0.475,3.92,0.282c-0.03,0.074-0.045,0.149-0.059,0.238
	c-0.119,0.059-0.119,0.059-0.416,0.059c-1.915-0.638-2.895-0.757-4.335,0.757c-0.312,0.46-0.312,0.46-0.549,0.98
	C73.079,54.754,73.035,55.229,72.827,55.496L72.827,55.496z"/>
<path fill-rule="evenodd" clip-rule="evenodd" d="M90.97,54.739c-0.683-0.312-1.099-0.549-1.099-1.336
	c0.505-0.92,1.114-1.128,2.108-1.128c1.752,0.341,1.811,1.737,0.238,2.435C91.801,54.709,91.385,54.724,90.97,54.739L90.97,54.739z"
	/>
<path fill-rule="evenodd" clip-rule="evenodd" fill="#DB9995" d="M91.281,54.338c-0.564-0.193-0.846-0.327-0.92-0.935
	c0.891-1.01,1.618-0.861,2.613-0.119C92.974,54.338,92.128,54.308,91.281,54.338L91.281,54.338z"/>
<path fill-rule="evenodd" clip-rule="evenodd" fill="#933D29" d="M35.902,50.775c0,0.43,0,0.861,0,1.292
	c-0.03,0.06-0.059,0.119-0.089,0.178c-1.262,0.95-3.578,1.321-4.395-0.327c0-0.906,0.237-1.648,0.386-2.539
	c0-1.128-0.52-1.96-1.025-2.94c0.193-1.96,2.821-1.782,4.231-1.589c0.98,0.401,1.559,0.965,2.019,1.9
	c0,1.084-0.757,1.559-1.203,2.465C35.843,50.27,35.843,50.27,35.902,50.775L35.902,50.775z"/>
<path fill-rule="evenodd" clip-rule="evenodd" d="M93.761,52.556c-0.95-1.113-1.856-1.856-3.341-1.514
	c-0.431,0.282-0.831,0.579-1.217,0.935c-0.059-0.03-0.119-0.044-0.178-0.059c-0.148-0.594,0.846-1.025,1.262-1.307
	c1.663-0.475,2.836,0.297,3.637,1.722c-0.015,0.06-0.03,0.119-0.045,0.193C93.835,52.527,93.79,52.542,93.761,52.556L93.761,52.556z
	"/>
<path fill-rule="evenodd" clip-rule="evenodd" fill="#F3C781" d="M90.094,37.903c0,0.356,0,0.727,0,1.099
	c0.03,0.624,0.015,0.921,0.178,1.485c0.267,1.781,0.802,3.296,1.485,4.988c0.623,1.129,1.247,2.272,1.885,3.415
	c-0.089,0.015-0.163,0.03-0.237,0.045c-1.693-0.267-3.37-0.535-5.093-0.639c0.06-0.267,0.356-0.416,0.549-0.594
	c0.223-0.401,0.46-0.802,0.698-1.188c0.074-0.341,0.163-0.757,0.297-1.084c0.104-1.455,0.193-3.415-0.579-4.736
	c-0.297-0.386-0.594-0.757-0.876-1.128c-1.173-0.921-1.93-1.603-3.474-1.529c-0.193,0.089-0.193,0.089-0.787,0.193
	c-1.069,0.475-1.559,1.158-2.153,2.123c-0.386,0.802-0.386,0.802-0.475,0.876c-0.134-0.267-0.252-0.52-0.371-0.772
	c-1.262-2.034-2.865-3.029-5.285-2.168c-3.148,1.886-4.053,5.909-2.806,9.175c0.846,1.188,1.618,1.722,3.014,2.019
	c-0.044,0.045-0.089,0.104-0.119,0.163c-1.796,0.802-3.548,1.737-5.196,2.836c-0.03-0.06-0.059-0.104-0.089-0.149
	c-0.252-1.796-0.549-3.489-0.713-5.285c-0.342-1.782-0.742-3.548-1.158-5.315c-0.03-0.683-0.252-1.47-0.624-2.034
	c-0.015-0.06-0.015-0.119-0.015-0.163c0.371,0.104,0.742,0.223,1.128,0.342c1.589,0,2.702-0.475,3.474-1.9
	c0.549-0.059,1.114-0.119,1.678-0.163c0-0.044,0-0.074,0-0.104c0.653-0.267,1.158-0.787,1.707-1.232
	c0.95,0.312,1.589,0.431,2.598,0.297c0.772-0.341,0.772-0.341,0.906-0.341c0.98,0.46,1.381,0.475,2.494,0.445
	c1.113-0.282,1.113-0.282,1.307-0.282c0.341,0.193,0.683,0.386,1.039,0.579c1.128,0.119,1.871-0.015,2.851-0.668
	c0.267,0,0.52,0.401,0.683,0.579c0.713,0.297,1.292,0.282,2.064,0.327C90.079,37.576,90.079,37.739,90.094,37.903L90.094,37.903z"/>
<path fill-rule="evenodd" clip-rule="evenodd" fill="#933D29" d="M28.034,23.338c0.015-0.059,0.03-0.104,0.059-0.149
	c1.603-0.802,3.207-1.603,4.855-2.301c2.197-0.742,4.291-1.173,6.577-1.529c1.277-0.074,2.554-0.148,3.831-0.208
	c0.579-0.015,1.158-0.03,1.737-0.03c0.015-0.015,0.03-0.015,0.045-0.015c0.92-0.015,1.841-0.03,2.776-0.03
	c1.945,0.015,3.801,0.148,5.716,0.401c6.607,1.425,6.607,1.425,7.394,1.633c0.237,0.163,0.594,0.163,0.816,0.386
	c-0.965-0.148-2.361,1.292-3.162,1.782c-0.609,0.237-1.217,0.475-1.811,0.713c-0.817,0.371-0.846,0.445-1.113,0.534
	c-1.767,1.084-1.945,2.108-2.346,4.083c-0.03,0.668-0.059,1.336-0.074,2.004c-0.03,0-0.059,0-0.074,0c0,0.341,0,0.683,0,1.039
	c0.015,0,0.044,0,0.074,0c0.044,1.797,0.044,1.797,0,2.687c-0.059,0.059-0.059,0.059-0.297,0.831
	c-0.609,0.995-1.351,1.41-2.286,2.049c-0.906,1.143-0.742,2.509-0.742,3.875c0.134,0.787,0.267,1.574,0.416,2.361
	c0,1.559-0.178,3.118-1.084,4.424c-1.9,1.44-3.697,2.286-5.969,1.069c-0.609-0.475-1.113-1.024-1.603-1.618
	c-0.445-0.832-0.876-1.663-1.306-2.479c-0.728-0.728-0.728-0.728-1.44-1.307c-0.579-0.341-1.351-0.445-2.004-0.624
	c-1.604-0.208-2.702-0.208-3.103-1.96c0-1.351,0-2.702,0-4.053c-0.089-0.312-0.178-0.624-0.252-0.935
	c-0.594-0.935-1.5-1.618-1.93-2.628c-0.104-2.168,1.069-4.098,1.069-6.28c-0.252-0.935-0.787-1.693-1.321-2.479
	c-0.49-0.371-0.965-0.728-1.44-1.084c-0.49-0.119-1.44-0.223-1.633-0.297C28.182,23.323,28.182,23.323,28.034,23.338L28.034,23.338z
	"/>
<path fill-rule="evenodd" clip-rule="evenodd" fill="#FFFFFF" d="M76.687,49.112c-4.083-0.579-4.276-4.41-3.103-7.676
	c0.312-0.594,0.683-1.128,1.069-1.678c0.594-0.594,0.594-0.594,0.653-0.713c1.143-0.534,1.678-0.683,2.91-0.638
	c0,0.044,0,0.089,0,0.148c-1.514,0.371-2.301,2.183-2.39,3.593c0.178,1.678,0.698,2.375,2.242,3.148c0.846,0,1.47,0.059,2.123-0.52
	c0.653-0.772,0.757-0.98,0.861-1.024c-0.089,1.158-0.356,2.034-0.831,3.088c-0.297,0.386-0.594,0.772-0.891,1.158
	c-0.401,0.341-0.401,0.341-0.46,0.475C78.142,48.874,77.503,49.068,76.687,49.112L76.687,49.112z"/>
<path fill-rule="evenodd" clip-rule="evenodd" fill="#F3C781" d="M79.33,48.845c-0.06-0.045-0.119-0.074-0.163-0.104
	c0.861-0.935,1.485-1.826,1.945-3.014c0.193-0.817,0.193-0.817,0.282-0.98c0.327,0.802,0.668,1.455,1.173,2.153
	c0.356,0.327,1.292,0.95,1.425,1.381C82.433,48.429,80.874,48.622,79.33,48.845L79.33,48.845z"/>
<path fill-rule="evenodd" clip-rule="evenodd" fill="#FFFFFF" d="M86.085,48.281c-0.282-0.03-0.564-0.059-0.832-0.089
	c-1.96-0.817-3.029-2.272-3.534-4.291c0.03,0,0.074,0,0.119,0.015c0.92,0.92,1.945,1.217,3.222,0.98
	c0.831-0.505,1.47-1.217,1.678-2.197c0-1.351,0.089-2.301-0.831-3.385c-0.238-0.193-0.98-0.594-1.054-0.817
	c0.312-0.015,0.624-0.03,0.935-0.03c1.217,0.297,2.286,1.307,3.029,2.286c0.817,2.004,1.128,4.142,0.134,6.147
	c-0.282,0.312-0.564,0.638-0.846,0.965C87.436,48.192,86.827,48.221,86.085,48.281L86.085,48.281z"/>
<path fill-rule="evenodd" clip-rule="evenodd" fill="#F7CAC9" d="M62.063,43.693c-0.386-0.06-0.772-0.104-1.158-0.149
	c0-0.594,1.351-1.945,1.797-2.479c0.98-0.831,2.999-2.539,4.41-2.375c0.193,0.163,0.386,0.327,0.579,0.49
	c0.089,0.624,0.134,1.128-0.089,1.722c-0.653,0.787-0.653,0.787-1.247,1.381c-0.772,0.49-1.485,0.891-2.346,1.203
	C63.191,43.604,63.191,43.604,62.063,43.693L62.063,43.693z"/>
<path fill-rule="evenodd" clip-rule="evenodd" fill="#F3C781" d="M60.548,43.055c0.223-2.182,1.574-4.187,3.519-5.226
	c0.757-0.223,2.39-0.609,2.672,0.431c-0.92,0-2.094,0.876-2.851,1.306C62.538,40.59,61.602,41.718,60.548,43.055L60.548,43.055z"/>
<path fill-rule="evenodd" clip-rule="evenodd" fill="#FFFFFF" d="M79.137,42.802c-1.841-0.445-2.123-2.925-0.193-3.474
	c1.5,0.193,1.796,1.069,1.856,2.435C80.399,42.565,80.012,42.713,79.137,42.802L79.137,42.802z"/>
<path fill-rule="evenodd" clip-rule="evenodd" fill="#FFFFFF" d="M83.442,42.758c-2.851-0.713-0.757-4.424,1.128-2.776
	c0.609,0.906,0.49,2.286-0.638,2.717C83.769,42.713,83.605,42.728,83.442,42.758L83.442,42.758z"/>
<path fill-rule="evenodd" clip-rule="evenodd" fill="#F7CAC9" d="M90.539,38.794c0-0.431,0-0.861,0-1.277c0-0.03,0-0.06,0.015-0.089
	c2.242,0,4.246,2.212,5.761,3.578c-0.178,0.742-2.257,0.505-2.806,0.386c-1.039-0.327-2.286-0.579-2.895-1.559
	C90.584,39.476,90.554,39.135,90.539,38.794L90.539,38.794z"/>
<path fill-rule="evenodd" clip-rule="evenodd" fill="#F3C781" d="M96.359,40.382c-0.119-0.163-0.119-0.163-2.628-2.212
	c-0.742-0.431-1.084-0.683-1.633-0.965c-0.356-0.104-0.713-0.193-1.054-0.282c-0.015-0.045-0.03-0.074-0.044-0.104
	c2.286-0.876,3.489,0.163,4.87,1.915c0.252,0.549,0.49,1.069,0.594,1.648C96.418,40.382,96.389,40.382,96.359,40.382L96.359,40.382z
	"/>
<path fill-rule="evenodd" clip-rule="evenodd" fill="#C24629" d="M82.254,36.477c0-0.03,0-0.045,0-0.059c-0.431,0-0.846,0-1.262,0
	c0,0.015,0,0.03,0,0.059c-0.401-0.134-0.401-0.134-0.98-0.431c0.104-0.416,0.802-1.099,0.594-1.514c-0.089,0-0.178,0-0.252,0
	c-0.549,1.158-1.024,1.574-2.272,1.9c-0.549-0.074-1.114-0.134-1.603-0.401c0-0.431,0.282-0.861,0.282-1.277
	c-0.074-0.074-0.074-0.074-0.282-0.074c-0.534,1.262-1.069,2.361-2.524,2.747c-0.297,0-0.594,0-0.876,0
	c0.059-0.341,0.757-1.767,0.059-1.767c-0.074,0.401-0.148,0.802-0.208,1.203c-0.475,0.846-0.653,1.262-0.891,1.633
	c-0.92,0.594-1.618,0.906-2.747,0.906c-0.728-0.252-1.975-0.787-2.138-1.633c0.327,0,1.247,0.238,1.5,0.044
	c0.653-1.574,0.861-3.192,0.341-4.84c-0.134-0.015-0.267-0.059-0.386,0.015c0.015,0.237,0.03,0.49,0.059,0.742
	c-0.668-0.03-1.232-0.119-1.797-0.475c0-0.98,0.728-2.093,1.321-2.85c1.292-1.247,2.672-1.307,4.365-1.024
	c0.965,0.534,2.123,1.633,2.554,2.658c0.059-0.015,0.134-0.015,0.208-0.015c0.074-0.624-1.039-1.841-1.336-2.212
	c0-0.297,0.297-0.564,0.445-0.802c1.41-1.024,3.34-1.574,4.796-0.267c0.757,0.935,1.069,1.633,1.381,2.806c0.059,0,0.134,0,0.208,0
	c-0.03-0.832-0.163-1.41-0.594-2.123c0-0.06,0-0.119,0.015-0.163c0.831-0.772,1.351-0.742,2.465-0.742
	c1.247,0.431,1.693,0.475,2.479,1.5c0.802,1.351,0.802,1.351,0.906,1.425c0.312-0.149-0.163-0.95-0.252-1.173
	c0.193-0.802,2.286-0.312,2.732-0.267c0.965,0.386,1.529,0.965,2.153,1.782c0.505,1.351,1.158,3.37-0.03,4.558
	c-0.237,0.713-1.425,0.668-2.004,0.549c-0.341-0.208-0.683-0.416-1.01-0.624c0.148-0.564,0.727-0.98,0.653-1.589
	c-0.074-0.015-0.149-0.03-0.208-0.044c-0.98,1.485-1.99,2.539-3.86,1.826c-0.134-0.104-0.267-0.193-0.386-0.282
	c0-0.386,0.549-0.95,0.742-1.351c0.03-0.178,0.074-0.356,0.119-0.534c-0.208,0.015-0.208,0.015-0.297,0.074
	C83.858,35.497,83.516,36.18,82.254,36.477L82.254,36.477z"/>
<path fill-rule="evenodd" clip-rule="evenodd" fill="#FEEEA2" d="M67.363,37.264c-1.871-0.163-3.949-0.728-4.914-2.479
	c-0.238-1.203-0.267-2.747,0.742-3.608c0.163,0.104,0.163,0.104,0.668,0.282c1.5,1.381,2.702,2.613,4.825,2.851
	c0.03-0.03,0.059-0.045,0.089-0.06c0.371,0.549,0.015,2.435-0.371,2.969C68.046,37.235,67.704,37.249,67.363,37.264L67.363,37.264z"
	/>
<path fill-rule="evenodd" clip-rule="evenodd" fill="#7E4835" d="M80.992,36.477c0-0.03,0-0.045,0-0.059c0.416,0,0.832,0,1.262,0
	c0,0.015,0,0.03,0,0.059C81.824,36.477,81.408,36.477,80.992,36.477L80.992,36.477z"/>
<path fill-rule="evenodd" clip-rule="evenodd" fill="#FEEEA2" d="M91.682,35.408c0.015,0,0.045,0,0.074,0c0-0.757,0-1.514,0-2.272
	c-0.03,0-0.059,0-0.074,0c-0.178-0.534-0.431-1.084-0.505-1.648c0.995-0.728,1.307-1.455,1.9-2.554
	c1.203-1.411,2.272,0.609,2.539,1.693c0,2.168-1.143,4.053-2.94,5.167c-0.416,0.119-0.832,0.252-1.247,0.386
	C91.504,35.898,91.638,35.676,91.682,35.408L91.682,35.408z"/>
<path fill-rule="evenodd" clip-rule="evenodd" fill="#933D29" d="M62.924,22.002c0-0.03,0-0.059,0-0.074
	c0.906,0.178,2.049,0.757,2.925,1.054c3.355,1.707,3.504,1.826,4.603,2.346c0.015,0.045,0.045,0.089,0.074,0.134
	c-0.06,0-0.119,0-0.178,0c-0.119-0.178-0.579-0.341-0.698-0.089c-1.099,0.059-2.004,0.238-2.717,1.113
	c-0.386,1.024-0.386,1.024-0.549,1.322c-1.024,1.024-2.093,1.589-3.4,0.713c-0.267-0.46-0.609-0.98-1.069-1.262
	c-0.134-0.163-0.341-0.252-0.445-0.386c-0.282-0.089-0.282-0.089-1.262-0.223c-1.826-1.099,0.564-2.999,1.589-3.504
	c0.341-0.46,1.128-0.445,1.455-0.935C63.132,22.135,63.028,22.061,62.924,22.002L62.924,22.002z"/>
</svg>
