<?xml version="1.0" encoding="UTF-8" standalone="no"?>
<!-- Generator: Adobe Illustrator 17.0.0, SVG Export Plug-In . SVG Version: 6.00 Build 0)  -->

<svg
   xmlns:dc="http://purl.org/dc/elements/1.1/"
   xmlns:cc="http://creativecommons.org/ns#"
   xmlns:rdf="http://www.w3.org/1999/02/22-rdf-syntax-ns#"
   xmlns:svg="http://www.w3.org/2000/svg"
   xmlns="http://www.w3.org/2000/svg"
   xmlns:sodipodi="http://sodipodi.sourceforge.net/DTD/sodipodi-0.dtd"
   xmlns:inkscape="http://www.inkscape.org/namespaces/inkscape"
   version="1.1"
   id="Слой_1"
   x="0px"
   y="0px"
   width="121.27386"
   height="141.27219"
   viewBox="0 0 121.27386 141.27219"
   enable-background="new 0 0 1200 150"
   xml:space="preserve"
   sodipodi:docname="0.svg"
   inkscape:version="0.92.4 (5da689c313, 2019-01-14)"><metadata
   id="metadata517"><rdf:RDF><cc:Work
       rdf:about=""><dc:format>image/svg+xml</dc:format><dc:type
         rdf:resource="http://purl.org/dc/dcmitype/StillImage" /><dc:title></dc:title></cc:Work></rdf:RDF></metadata><defs
   id="defs515" /><sodipodi:namedview
   pagecolor="#ffffff"
   bordercolor="#666666"
   borderopacity="1"
   objecttolerance="10"
   gridtolerance="10"
   guidetolerance="10"
   inkscape:pageopacity="0"
   inkscape:pageshadow="2"
   inkscape:window-width="1920"
   inkscape:window-height="1017"
   id="namedview513"
   showgrid="false"
   fit-margin-top="0"
   fit-margin-left="0"
   fit-margin-right="0"
   fit-margin-bottom="0"
   inkscape:zoom="0.66939442"
   inkscape:cx="770.67113"
   inkscape:cy="122.91628"
   inkscape:window-x="-8"
   inkscape:window-y="-8"
   inkscape:window-maximized="1"
   inkscape:current-layer="Слой_1" />
<g
   id="g68"
   transform="translate(-13.204168,-4.4174276)">
	<path
   d="m 89.351,104.681 c -0.329,1.46 -1.778,2.377 -3.237,2.048 -1.46,-0.328 -2.377,-1.777 -2.049,-3.237 1.742,-7.661 0.178,-14.957 -3.466,-21.165 -3.352,-5.713 -8.46,-10.524 -14.387,-13.89 -5.921,-3.362 -12.634,-5.266 -19.2,-5.165 -6.973,0.107 -13.805,2.501 -19.337,7.853 -0.043,0.041 -0.086,0.08 -0.13,0.117 -9.211,8.989 -10.407,18.505 -7.467,26.074 1.13,2.909 2.869,5.552 4.996,7.782 2.124,2.228 4.629,4.033 7.294,5.269 6.09,2.827 13.031,2.647 18.006,-2.369 5.193,-5.237 6.096,-10.703 4.593,-15.08 -0.618,-1.798 -1.63,-3.423 -2.907,-4.783 -1.29,-1.374 -2.845,-2.478 -4.53,-3.215 -3.837,-1.678 -8.408,-1.438 -12.108,1.893 -1.113,1.001 -2.828,0.912 -3.831,-0.202 -1.002,-1.113 -0.913,-2.83 0.201,-3.832 5.484,-4.938 12.242,-5.301 17.902,-2.826 2.363,1.033 4.529,2.566 6.314,4.467 1.801,1.916 3.226,4.206 4.095,6.737 2.12,6.168 1.014,13.703 -5.886,20.662 -6.802,6.86 -16.078,7.207 -24.119,3.472 -3.279,-1.522 -6.352,-3.733 -8.952,-6.457 -2.594,-2.72 -4.724,-5.968 -6.121,-9.566 -3.654,-9.41 -2.321,-21.091 8.731,-31.882 0.051,-0.058 0.105,-0.113 0.16,-0.168 6.595,-6.38 14.73,-9.233 23.031,-9.361 7.545,-0.116 15.212,2.046 21.939,5.866 6.722,3.818 12.536,9.311 16.382,15.864 4.309,7.342 6.155,15.988 4.083,25.094 z"
   id="path2"
   inkscape:connector-curvature="0"
   style="fill:#698ac6" />
	<g
   id="g8">
		<path
   d="m 112.836,89.107 c -10.385,0 -20.683,11.608 -23.005,25.926 -2.321,14.319 4.216,25.926 14.601,25.926 10.384,0 20.684,-11.606 23.004,-25.926 2.321,-14.319 -4.216,-25.926 -14.6,-25.926 z"
   id="path4"
   inkscape:connector-curvature="0"
   style="clip-rule:evenodd;fill:#698ac6;fill-rule:evenodd" />
		<path
   d="m 75.718,89.107 c 10.385,0 20.685,11.608 23.005,25.926 2.321,14.319 -4.216,25.926 -14.6,25.926 -10.385,0 -20.685,-11.606 -23.005,-25.926 -2.322,-14.319 4.216,-25.926 14.6,-25.926 z"
   id="path6"
   inkscape:connector-curvature="0"
   style="clip-rule:evenodd;fill:#698ac6;fill-rule:evenodd" />
	</g>
	<path
   d="m 94.252,140.958 c -58.874,0 -5.375,-69.661 -5.352,-81.592 0.003,-1.71 10.7,-1.74 10.707,0.299 0.043,11.92 53.517,81.293 -5.355,81.293 z"
   id="path10"
   inkscape:connector-curvature="0"
   style="clip-rule:evenodd;fill:#698ac6;fill-rule:evenodd" />
	<path
   d="m 63.981,31.746 c 5.322,9.13 12.16,13.969 17.209,12.909 C 82.606,37.363 80.353,26.601 75.031,17.471 70.426,9.571 64.738,5.085 59.952,4.451 58.335,4.236 57.434,5.008 57.429,8.097 c -0.01,7.185 2.036,15.902 6.552,23.649 z"
   id="path12"
   inkscape:connector-curvature="0"
   style="clip-rule:evenodd;fill:#698ac6;fill-rule:evenodd" />
	<path
   d="m 63.347,28.904 c 3.994,6.853 9.126,10.484 12.916,9.688 1.063,-5.472 -0.629,-13.55 -4.622,-20.403 -3.457,-5.93 -7.726,-9.296 -11.318,-9.772 -1.213,-0.162 -1.891,0.418 -1.894,2.737 -0.007,5.392 1.528,11.935 4.918,17.75 z"
   id="path14"
   inkscape:connector-curvature="0"
   style="clip-rule:evenodd;fill:#fbd8cf;fill-rule:evenodd" />
	<path
   d="m 127.926,31.747 c -5.322,9.129 -12.16,13.969 -17.21,12.908 -1.416,-7.292 0.838,-18.054 6.159,-27.184 4.606,-7.901 10.293,-12.386 15.08,-13.02 1.616,-0.214 2.518,0.557 2.523,3.646 0.008,7.185 -2.037,15.902 -6.552,23.65 z"
   id="path16"
   inkscape:connector-curvature="0"
   style="clip-rule:evenodd;fill:#698ac6;fill-rule:evenodd" />
	<path
   d="m 128.559,28.904 c -3.993,6.853 -9.126,10.485 -12.915,9.688 -1.064,-5.474 0.628,-13.55 4.622,-20.403 3.456,-5.93 7.726,-9.296 11.318,-9.772 1.213,-0.16 1.89,0.418 1.893,2.737 0.007,5.392 -1.529,11.935 -4.918,17.75 z"
   id="path18"
   inkscape:connector-curvature="0"
   style="clip-rule:evenodd;fill:#fbd8cf;fill-rule:evenodd" />
	<path
   d="m 127.668,32.463 c -7.226,47.341 -56.839,45.842 -63.622,0 11.205,-29.177 52.416,-28.977 63.622,0 z"
   id="path20"
   inkscape:connector-curvature="0"
   style="clip-rule:evenodd;fill:#698ac6;fill-rule:evenodd" />
	<path
   d="m 81.528,25.328 c 4.712,0 8.737,2.598 10.345,6.264 -1.608,3.665 -5.633,6.264 -10.345,6.264 -4.712,0 -8.738,-2.599 -10.344,-6.264 1.607,-3.665 5.633,-6.264 10.344,-6.264 z"
   id="path22"
   inkscape:connector-curvature="0"
   style="clip-rule:evenodd;fill:#faba2f;fill-rule:evenodd" />
	<path
   d="m 83.981,25.57 c -0.033,4.766 -1.04,8.817 -2.453,10.451 -1.413,-1.634 -2.42,-5.685 -2.453,-10.451 0.789,-0.157 1.61,-0.241 2.453,-0.241 0.843,-0.001 1.664,0.083 2.453,0.241 z"
   id="path24"
   inkscape:connector-curvature="0"
   style="clip-rule:evenodd;fill:#343434;fill-rule:evenodd" />
	<path
   d="m 110.305,25.328 c 4.712,0 8.736,2.598 10.344,6.264 -1.608,3.665 -5.633,6.264 -10.344,6.264 -4.712,0 -8.738,-2.599 -10.344,-6.264 1.607,-3.665 5.633,-6.264 10.344,-6.264 z"
   id="path26"
   inkscape:connector-curvature="0"
   style="clip-rule:evenodd;fill:#faba2f;fill-rule:evenodd" />
	<path
   d="m 112.758,25.57 c -0.034,4.766 -1.041,8.817 -2.453,10.451 -1.413,-1.634 -2.421,-5.685 -2.454,-10.451 0.789,-0.157 1.61,-0.241 2.454,-0.241 0.843,-0.001 1.664,0.083 2.453,0.241 z"
   id="path28"
   inkscape:connector-curvature="0"
   style="clip-rule:evenodd;fill:#343434;fill-rule:evenodd" />
	<path
   d="m 95.022,41.235 c 0,-0.262 0.374,-0.475 0.834,-0.475 0.461,0 0.834,0.213 0.834,0.475 v 10.067 c 0,0.262 -0.373,0.475 -0.834,0.475 -0.46,0 -0.834,-0.213 -0.834,-0.475 z"
   id="path30"
   inkscape:connector-curvature="0"
   style="fill:#343434" />
	<g
   id="g34">
		<path
   d="m 96.211,38.5 h 0.023 c 0.079,0.002 0.156,0.004 0.235,0.008 l 0.015,10e-4 c 0.081,0.003 0.16,0.009 0.241,0.014 l 0.024,10e-4 c 0.073,0.005 0.146,0.011 0.218,0.018 l 0.038,0.003 c 0.072,0.006 0.144,0.014 0.216,0.023 l 0.025,0.002 c 0.079,0.009 0.158,0.019 0.237,0.03 l 0.012,0.002 c 0.073,0.01 0.147,0.021 0.221,0.032 l 0.041,0.008 c 0.069,0.01 0.137,0.022 0.205,0.035 l 0.03,0.004 c 0.072,0.014 0.145,0.028 0.217,0.043 l 0.049,0.01 c 0.061,0.013 0.122,0.026 0.183,0.04 l 0.051,0.012 c 0.064,0.014 0.129,0.03 0.193,0.046 l 0.044,0.011 c 0.067,0.016 0.133,0.034 0.199,0.052 l 0.048,0.014 c 0.059,0.015 0.118,0.033 0.176,0.05 l 0.057,0.016 c 0.058,0.018 0.115,0.036 0.173,0.055 l 0.079,0.025 c 0.054,0.018 0.106,0.035 0.158,0.054 l 0.072,0.025 c 0.051,0.018 0.101,0.037 0.152,0.055 l 0.074,0.028 c 0.051,0.019 0.104,0.039 0.155,0.06 l 0.083,0.033 c 0.049,0.02 0.098,0.04 0.147,0.061 l 0.066,0.027 c 0.049,0.021 0.098,0.043 0.146,0.064 l 0.086,0.039 c 0.047,0.021 0.094,0.042 0.141,0.064 l 0.083,0.04 c 0.044,0.021 0.087,0.043 0.131,0.064 l 0.076,0.038 0.122,0.063 0.118,0.062 0.094,0.051 0.109,0.061 0.108,0.063 0.097,0.057 0.097,0.058 c 0.04,0.025 0.08,0.049 0.119,0.074 l 0.091,0.057 0.098,0.064 0.107,0.07 0.074,0.05 c -0.605,3.749 -3.072,6.874 -6.421,8.397 -1.998,-0.908 -3.681,-2.385 -4.843,-4.225 v -4.958 l 0.088,-0.044 -0.088,0.044 0.088,-0.044 0.046,-0.022 c 0.057,-0.027 0.114,-0.055 0.171,-0.081 l 0.041,-0.019 c 0.06,-0.026 0.12,-0.053 0.18,-0.079 l 0.036,-0.016 c 0.062,-0.027 0.125,-0.052 0.188,-0.079 l 0.054,-0.021 c 0.062,-0.025 0.123,-0.049 0.187,-0.073 l 0.035,-0.013 c 0.066,-0.024 0.13,-0.048 0.195,-0.072 l 0.027,-0.009 c 0.07,-0.025 0.14,-0.048 0.21,-0.072 l 0.013,-0.004 0.008,-0.002 c 0.072,-0.024 0.144,-0.046 0.217,-0.069 l 0.032,-0.009 c 0.067,-0.021 0.134,-0.04 0.202,-0.059 l 0.035,-0.01 c 0.07,-0.02 0.141,-0.038 0.212,-0.057 l 0.016,-0.004 c 0.075,-0.02 0.152,-0.037 0.228,-0.056 l 0.009,-0.002 0.014,-0.002 c 0.071,-0.016 0.142,-0.033 0.214,-0.048 l 0.04,-0.008 c 0.068,-0.014 0.136,-0.027 0.206,-0.04 l 0.033,-0.007 c 0.074,-0.013 0.149,-0.026 0.224,-0.038 l 0.01,-0.001 0.004,-10e-4 c 0.079,-0.013 0.158,-0.025 0.238,-0.035 l 0.021,-0.003 c 0.075,-0.011 0.152,-0.021 0.228,-0.028 l 0.022,-0.003 c 0.08,-0.009 0.159,-0.018 0.239,-0.024 l 0.008,-10e-4 c 0.082,-0.008 0.165,-0.014 0.248,-0.021 h 0.014 c 0.08,-0.005 0.159,-0.01 0.239,-0.014 h 0.021 c 0.079,-0.004 0.156,-0.007 0.236,-0.009 h 0.021 c 0.083,-0.002 0.167,-0.003 0.251,-0.003 0.084,0.004 0.166,0.005 0.249,0.007 z m -5.208,6.112 c -0.762,-1.205 -1.299,-2.566 -1.554,-4.024 0.058,-0.041 0.118,-0.084 0.178,-0.124 l 0.026,-0.019 c 0.054,-0.037 0.106,-0.072 0.159,-0.107 l 0.054,-0.035 c 0.047,-0.031 0.094,-0.061 0.142,-0.091 l 0.056,-0.035 c 0.051,-0.033 0.104,-0.064 0.156,-0.096 l 0.057,-0.034 c 0.054,-0.032 0.108,-0.063 0.164,-0.095 l 0.045,-0.025 c 0.055,-0.031 0.108,-0.06 0.164,-0.091 l 0.045,-0.024 c 0.053,-0.028 0.108,-0.057 0.163,-0.085 l 0.059,-0.031 0.088,-0.044 -0.088,0.044 0.088,-0.044 v 4.96 z"
   id="path32"
   inkscape:connector-curvature="0"
   style="clip-rule:evenodd;fill:#343434;fill-rule:evenodd" />
	</g>
	<g
   id="g48">
		<path
   d="m 101.788,45.681 c -0.205,0.094 -0.448,0.003 -0.543,-0.202 -0.093,-0.205 -0.003,-0.448 0.202,-0.542 2.882,-1.314 5.901,-2.312 9.057,-2.994 3.152,-0.682 6.444,-1.051 9.877,-1.111 0.225,-0.004 0.411,0.176 0.415,0.402 0.004,0.226 -0.176,0.411 -0.402,0.416 -3.373,0.058 -6.613,0.423 -9.719,1.095 -3.101,0.669 -6.064,1.648 -8.887,2.936 z"
   id="path36"
   inkscape:connector-curvature="0"
   style="fill:#343434" />
		<path
   d="m 102.169,46.513 c -0.219,0.057 -0.442,-0.074 -0.499,-0.293 -0.057,-0.219 0.074,-0.442 0.293,-0.499 3.193,-0.84 6.431,-1.348 9.712,-1.528 3.28,-0.181 6.606,-0.035 9.973,0.436 0.224,0.031 0.38,0.238 0.349,0.462 -0.031,0.224 -0.238,0.381 -0.462,0.349 -3.318,-0.463 -6.59,-0.607 -9.818,-0.429 -3.227,0.177 -6.41,0.678 -9.548,1.502 z"
   id="path38"
   inkscape:connector-curvature="0"
   style="fill:#343434" />
		<path
   d="m 102.308,47.383 c -0.225,0.022 -0.425,-0.143 -0.446,-0.368 -0.021,-0.225 0.144,-0.425 0.369,-0.446 3.362,-0.326 6.672,-0.324 9.93,0.004 3.263,0.33 6.472,0.986 9.627,1.965 0.216,0.068 0.336,0.297 0.27,0.513 -0.068,0.216 -0.297,0.337 -0.513,0.27 -3.107,-0.964 -6.261,-1.61 -9.463,-1.933 -3.209,-0.325 -6.466,-0.327 -9.774,-0.005 z"
   id="path40"
   inkscape:connector-curvature="0"
   style="fill:#343434" />
		<path
   d="m 90.407,44.945 c 0.206,0.093 0.297,0.335 0.203,0.541 -0.094,0.205 -0.336,0.296 -0.541,0.202 -2.824,-1.284 -5.789,-2.257 -8.891,-2.924 -3.108,-0.668 -6.348,-1.028 -9.722,-1.082 -0.225,-0.003 -0.405,-0.189 -0.402,-0.415 0.003,-0.226 0.189,-0.406 0.414,-0.403 3.433,0.055 6.728,0.42 9.879,1.098 3.156,0.679 6.178,1.672 9.06,2.983 z"
   id="path42"
   inkscape:connector-curvature="0"
   style="fill:#343434" />
		<path
   d="m 89.894,45.73 c 0.218,0.057 0.35,0.279 0.294,0.498 -0.057,0.219 -0.279,0.35 -0.499,0.294 -3.139,-0.821 -6.323,-1.315 -9.551,-1.489 -3.228,-0.174 -6.501,-0.024 -9.817,0.443 -0.225,0.032 -0.431,-0.126 -0.463,-0.349 -0.031,-0.223 0.126,-0.43 0.349,-0.462 3.367,-0.475 6.692,-0.626 9.972,-0.45 3.283,0.176 6.521,0.68 9.715,1.515 z"
   id="path44"
   inkscape:connector-curvature="0"
   style="fill:#343434" />
		<path
   d="m 89.627,46.578 c 0.225,0.021 0.391,0.221 0.369,0.445 -0.021,0.224 -0.22,0.39 -0.444,0.369 -3.31,-0.318 -6.567,-0.311 -9.774,0.017 -3.202,0.328 -6.356,0.978 -9.461,1.947 -0.215,0.068 -0.445,-0.054 -0.512,-0.269 -0.068,-0.216 0.052,-0.445 0.269,-0.513 3.154,-0.983 6.362,-1.645 9.624,-1.979 3.257,-0.333 6.567,-0.34 9.929,-0.017 z"
   id="path46"
   inkscape:connector-curvature="0"
   style="fill:#343434" />
	</g>
	<g
   id="g54">
		<path
   d="m 95.688,50.411 c 0.004,-0.282 0.237,-0.507 0.519,-0.502 0.282,0.004 0.508,0.237 0.502,0.519 -0.051,3.006 1.103,4.886 2.605,5.811 0.617,0.379 1.29,0.599 1.962,0.669 0.672,0.072 1.342,-0.004 1.946,-0.217 1.212,-0.425 2.169,-1.405 2.363,-2.85 0.038,-0.279 0.295,-0.476 0.574,-0.439 0.281,0.038 0.476,0.296 0.439,0.575 -0.252,1.867 -1.482,3.133 -3.039,3.679 -0.747,0.262 -1.568,0.356 -2.389,0.27 -0.822,-0.087 -1.645,-0.354 -2.393,-0.814 -1.779,-1.095 -3.148,-3.272 -3.089,-6.701 z"
   id="path50"
   inkscape:connector-curvature="0"
   style="fill:#343434" />
		<path
   d="m 96.024,50.411 c -0.004,-0.282 -0.237,-0.507 -0.518,-0.502 -0.282,0.004 -0.507,0.237 -0.502,0.519 0.051,3.006 -1.103,4.886 -2.604,5.811 -0.618,0.379 -1.291,0.599 -1.962,0.669 -0.672,0.072 -1.342,-0.004 -1.947,-0.217 -1.212,-0.425 -2.168,-1.405 -2.362,-2.85 -0.038,-0.279 -0.295,-0.476 -0.575,-0.439 -0.279,0.038 -0.476,0.296 -0.438,0.575 0.251,1.867 1.482,3.133 3.039,3.679 0.747,0.262 1.566,0.356 2.387,0.27 0.823,-0.087 1.646,-0.354 2.394,-0.814 1.779,-1.095 3.147,-3.272 3.088,-6.701 z"
   id="path52"
   inkscape:connector-curvature="0"
   style="fill:#343434" />
	</g>
	<path
   d="m 73.04,141.245 c 3.763,0 6.832,-2.012 6.832,-4.478 0,-2.466 -3.069,-4.477 -6.832,-4.477 -3.762,0 -6.831,2.011 -6.831,4.477 0,2.466 3.069,4.478 6.831,4.478 z"
   id="path56"
   inkscape:connector-curvature="0"
   style="clip-rule:evenodd;fill:#698ac6;fill-rule:evenodd" />
	<path
   d="m 113.753,141.245 c 3.763,0 6.832,-2.012 6.832,-4.478 0,-2.466 -3.069,-4.477 -6.832,-4.477 -3.762,0 -6.831,2.011 -6.831,4.477 0,2.466 3.069,4.478 6.831,4.478 z"
   id="path58"
   inkscape:connector-curvature="0"
   style="clip-rule:evenodd;fill:#698ac6;fill-rule:evenodd" />
	<path
   d="m 87.444,140.624 c -2.342,-12.475 -9.893,-61.298 6.646,-61.156 16.674,0.142 9.667,46.44 6.862,61.273 -1.92,0.217 -3.998,0.34 -6.274,0.34 -2.659,0 -5.057,-0.161 -7.234,-0.457 z"
   id="path60"
   inkscape:connector-curvature="0"
   style="clip-rule:evenodd;fill:#a7bee4;fill-rule:evenodd" />
	<g
   id="g66">
		<path
   d="m 74.01,90.084 c -0.666,12.857 9.352,39.428 7.047,46.336 -0.936,2.8 -3.727,1.957 -3.956,5.665 -0.293,4.73 14.675,5.11 13.789,-0.69 -0.417,-2.726 -3.646,-3.133 -4.066,-4.457 -1.154,-3.626 -3.12,-51.233 -0.814,-57.623 2.305,-6.389 -11.128,-6.11 -12,10.769 z"
   id="path62"
   inkscape:connector-curvature="0"
   style="clip-rule:evenodd;fill:#698ac6;fill-rule:evenodd" />
		<path
   d="m 114.498,90.084 c 0.666,12.857 -9.352,39.428 -7.047,46.336 0.934,2.8 3.726,1.957 3.956,5.665 0.293,4.73 -14.676,5.11 -13.789,-0.69 0.417,-2.726 3.645,-3.133 4.066,-4.457 1.153,-3.626 3.12,-51.233 0.813,-57.623 -2.304,-6.389 11.128,-6.11 12.001,10.769 z"
   id="path64"
   inkscape:connector-curvature="0"
   style="clip-rule:evenodd;fill:#698ac6;fill-rule:evenodd" />
	</g>
</g>







<g
   id="g500"
   transform="translate(-13.204168,-4.4174276)">
</g>
<g
   id="g502"
   transform="translate(-13.204168,-4.4174276)">
</g>
<g
   id="g504"
   transform="translate(-13.204168,-4.4174276)">
</g>
<g
   id="g506"
   transform="translate(-13.204168,-4.4174276)">
</g>
<g
   id="g508"
   transform="translate(-13.204168,-4.4174276)">
</g>
<g
   id="g510"
   transform="translate(-13.204168,-4.4174276)">
</g>
</svg>