<?xml version="1.0" encoding="UTF-8" standalone="no"?>
<!-- Generator: Adobe Illustrator 17.0.0, SVG Export Plug-In . SVG Version: 6.00 Build 0)  -->

<svg
   xmlns:dc="http://purl.org/dc/elements/1.1/"
   xmlns:cc="http://creativecommons.org/ns#"
   xmlns:rdf="http://www.w3.org/1999/02/22-rdf-syntax-ns#"
   xmlns:svg="http://www.w3.org/2000/svg"
   xmlns="http://www.w3.org/2000/svg"
   xmlns:sodipodi="http://sodipodi.sourceforge.net/DTD/sodipodi-0.dtd"
   xmlns:inkscape="http://www.inkscape.org/namespaces/inkscape"
   version="1.1"
   id="Слой_1"
   x="0px"
   y="0px"
   width="94.44381"
   height="142.02779"
   viewBox="0 0 94.44381 142.02779"
   enable-background="new 0 0 1200 150"
   xml:space="preserve"
   sodipodi:docname="1.svg"
   inkscape:version="0.92.4 (5da689c313, 2019-01-14)"><metadata
   id="metadata517"><rdf:RDF><cc:Work
       rdf:about=""><dc:format>image/svg+xml</dc:format><dc:type
         rdf:resource="http://purl.org/dc/dcmitype/StillImage" /><dc:title></dc:title></cc:Work></rdf:RDF></metadata><defs
   id="defs515" /><sodipodi:namedview
   pagecolor="#ffffff"
   bordercolor="#666666"
   borderopacity="1"
   objecttolerance="10"
   gridtolerance="10"
   guidetolerance="10"
   inkscape:pageopacity="0"
   inkscape:pageshadow="2"
   inkscape:window-width="1920"
   inkscape:window-height="1017"
   id="namedview513"
   showgrid="false"
   inkscape:zoom="0.66939442"
   inkscape:cx="996.95227"
   inkscape:cy="-21.158161"
   inkscape:window-x="-8"
   inkscape:window-y="-8"
   inkscape:window-maximized="1"
   inkscape:current-layer="Слой_1"
   fit-margin-top="0"
   fit-margin-left="0"
   fit-margin-right="0"
   fit-margin-bottom="0" />

<g
   id="g126"
   transform="translate(-175.57462,-4.3231969)">
	<path
   d="m 219.342,114.241 c 0.416,1.241 1.761,1.909 3.001,1.492 1.241,-0.417 1.908,-1.762 1.491,-3.002 -3.038,-8.979 -7.065,-13.724 -12.124,-16.027 -4.984,-2.271 -10.694,-2.018 -17.349,-1.089 -3.13,0.438 -5.883,-0.029 -8.106,-1.11 -2.027,-0.987 -3.615,-2.492 -4.635,-4.284 -1.015,-1.781 -1.476,-3.851 -1.256,-5.978 0.224,-2.168 1.149,-4.411 2.903,-6.503 2.243,-2.675 4.896,-3.362 7.04,-2.795 0.834,0.22 1.595,0.622 2.225,1.162 0.616,0.528 1.107,1.19 1.416,1.94 0.767,1.865 0.392,4.366 -1.949,6.934 -0.88,0.966 -0.81,2.465 0.158,3.346 0.967,0.88 2.466,0.81 3.346,-0.158 3.77,-4.134 4.238,-8.489 2.829,-11.916 -0.599,-1.455 -1.541,-2.729 -2.719,-3.739 -1.165,-0.998 -2.561,-1.739 -4.082,-2.14 -3.77,-0.995 -8.287,0.039 -11.889,4.334 -2.401,2.863 -3.672,5.988 -3.988,9.045 -0.324,3.135 0.354,6.184 1.847,8.805 1.488,2.611 3.781,4.794 6.695,6.211 3.016,1.469 6.697,2.109 10.825,1.532 5.853,-0.818 10.792,-1.076 14.73,0.717 3.862,1.759 7.03,5.654 9.591,13.223 z"
   id="path70"
   inkscape:connector-curvature="0"
   style="fill:#698ac6" />
	<path
   d="m 234.752,142.503 c -47.898,0 -4.373,-64.815 -4.354,-75.914 0.003,-1.591 8.705,-1.62 8.711,0.278 0.034,11.091 43.541,75.636 -4.357,75.636 z"
   id="path72"
   inkscape:connector-curvature="0"
   style="clip-rule:evenodd;fill:#698ac6;fill-rule:evenodd" />
	<path
   d="m 201.779,36.075 c 3.579,13.416 10.665,23.67 17.572,26.545 4.463,-6.283 5.437,-18.953 1.86,-32.369 -3.096,-11.609 -8.825,-20.605 -14.78,-24.993 -2.01,-1.481 -3.454,-1.407 -4.576,1.722 -2.606,7.275 -3.112,17.71 -0.076,29.095 z"
   id="path74"
   inkscape:connector-curvature="0"
   style="clip-rule:evenodd;fill:#698ac6;fill-rule:evenodd" />
	<path
   d="m 202.371,33.021 c 2.637,10.513 7.859,18.549 12.949,20.802 3.289,-4.924 4.008,-14.851 1.371,-25.366 -2.282,-9.097 -6.503,-16.146 -10.891,-19.585 -1.482,-1.16 -2.546,-1.102 -3.373,1.35 -1.922,5.7 -2.294,13.878 -0.056,22.799 z"
   id="path76"
   inkscape:connector-curvature="0"
   style="clip-rule:evenodd;fill:#fbd8cf;fill-rule:evenodd" />
	<path
   d="m 267.935,36.075 c -3.578,13.416 -10.665,23.67 -17.571,26.545 -4.464,-6.283 -5.438,-18.953 -1.86,-32.369 3.096,-11.609 8.824,-20.605 14.78,-24.993 2.01,-1.481 3.455,-1.407 4.576,1.722 2.606,7.275 3.11,17.71 0.075,29.095 z"
   id="path78"
   inkscape:connector-curvature="0"
   style="clip-rule:evenodd;fill:#698ac6;fill-rule:evenodd" />
	<path
   d="m 267.711,33.022 c -2.637,10.512 -7.86,18.548 -12.949,20.801 -3.289,-4.924 -4.007,-14.853 -1.37,-25.366 2.281,-9.097 6.503,-16.146 10.891,-19.584 1.481,-1.161 2.546,-1.103 3.372,1.349 1.921,5.7 2.293,13.878 0.056,22.8 z"
   id="path80"
   inkscape:connector-curvature="0"
   style="clip-rule:evenodd;fill:#fbd8cf;fill-rule:evenodd" />
	<path
   d="m 234.858,69.305 c 18.552,0 33.683,-10.472 33.683,-23.31 0,-12.84 -15.131,-23.311 -33.683,-23.311 -18.552,0 -33.683,10.472 -33.683,23.311 -0.001,12.839 15.13,23.31 33.683,23.31 z"
   id="path82"
   inkscape:connector-curvature="0"
   style="clip-rule:evenodd;fill:#698ac6;fill-rule:evenodd" />
	<path
   d="m 222.54,37.698 c 3.441,0 6.38,2.145 7.555,5.172 -1.174,3.025 -4.113,5.171 -7.555,5.171 -3.441,0 -6.379,-2.146 -7.554,-5.171 1.175,-3.027 4.114,-5.172 7.554,-5.172 z"
   id="path84"
   inkscape:connector-curvature="0"
   style="clip-rule:evenodd;fill:#faba2f;fill-rule:evenodd" />
	<path
   d="m 224.332,37.897 c -0.024,3.935 -0.76,7.279 -1.792,8.629 -1.031,-1.35 -1.767,-4.694 -1.791,-8.629 0.576,-0.13 1.176,-0.2 1.791,-0.2 0.616,10e-4 1.216,0.07 1.792,0.2 z"
   id="path86"
   inkscape:connector-curvature="0"
   style="clip-rule:evenodd;fill:#242424;fill-rule:evenodd" />
	<path
   d="m 246.991,37.698 c 3.441,0 6.38,2.145 7.555,5.172 -1.174,3.025 -4.114,5.171 -7.555,5.171 -3.441,0 -6.38,-2.146 -7.555,-5.171 1.175,-3.027 4.114,-5.172 7.555,-5.172 z"
   id="path88"
   inkscape:connector-curvature="0"
   style="clip-rule:evenodd;fill:#faba2f;fill-rule:evenodd" />
	<path
   d="m 248.783,37.897 c -0.024,3.935 -0.76,7.279 -1.792,8.629 -1.032,-1.35 -1.768,-4.694 -1.792,-8.629 0.577,-0.13 1.176,-0.2 1.792,-0.2 0.616,0 1.216,0.07 1.792,0.2 z"
   id="path90"
   inkscape:connector-curvature="0"
   style="clip-rule:evenodd;fill:#242424;fill-rule:evenodd" />
	<path
   d="m 234.095,55.404 c 0.005,-0.372 0.313,-0.671 0.686,-0.665 0.373,0.005 0.671,0.313 0.665,0.686 -0.068,3.98 1.459,6.469 3.447,7.691 0.816,0.502 1.709,0.793 2.597,0.887 0.891,0.095 1.776,-0.006 2.577,-0.288 1.604,-0.562 2.871,-1.861 3.128,-3.774 0.05,-0.37 0.39,-0.63 0.761,-0.58 0.37,0.049 0.63,0.39 0.58,0.761 -0.332,2.47 -1.962,4.147 -4.024,4.87 -0.988,0.346 -2.074,0.471 -3.16,0.357 -1.089,-0.115 -2.179,-0.469 -3.17,-1.079 -2.355,-1.446 -4.166,-4.327 -4.087,-8.866 z"
   id="path92"
   inkscape:connector-curvature="0"
   style="fill:#333333" />
	<path
   d="m 234.09,55.426 c -0.006,-0.373 0.292,-0.681 0.665,-0.686 0.373,-0.006 0.68,0.293 0.686,0.665 0.078,4.539 -1.733,7.42 -4.089,8.868 -0.99,0.609 -2.079,0.963 -3.169,1.079 -1.087,0.114 -2.173,-0.011 -3.16,-0.357 -2.062,-0.724 -3.691,-2.4 -4.025,-4.87 -0.049,-0.371 0.211,-0.712 0.581,-0.761 0.37,-0.049 0.71,0.21 0.76,0.58 0.258,1.912 1.525,3.211 3.128,3.774 0.801,0.281 1.687,0.383 2.577,0.288 0.888,-0.094 1.78,-0.385 2.597,-0.887 1.99,-1.224 3.518,-3.714 3.449,-7.693 z"
   id="path94"
   inkscape:connector-curvature="0"
   style="fill:#333333" />
	<g
   id="g98">
		<path
   d="m 235.058,51.212 h 0.019 c 0.064,10e-4 0.127,0.004 0.191,0.006 l 0.013,10e-4 c 0.066,0.003 0.13,0.005 0.196,0.011 l 0.02,0.001 c 0.06,0.004 0.119,0.01 0.178,0.014 l 0.032,0.003 c 0.058,0.005 0.117,0.012 0.175,0.018 l 0.02,0.002 c 0.064,0.008 0.128,0.015 0.192,0.024 l 0.01,0.002 c 0.06,0.007 0.12,0.017 0.18,0.026 l 0.034,0.006 c 0.056,0.009 0.112,0.018 0.167,0.029 l 0.023,0.003 c 0.059,0.012 0.118,0.022 0.176,0.035 l 0.04,0.007 c 0.05,0.011 0.1,0.021 0.15,0.033 l 0.042,0.009 c 0.052,0.013 0.104,0.025 0.156,0.039 l 0.035,0.009 c 0.055,0.013 0.109,0.028 0.162,0.043 l 0.039,0.011 c 0.048,0.014 0.096,0.028 0.143,0.042 l 0.045,0.014 c 0.048,0.014 0.094,0.029 0.14,0.044 l 0.064,0.02 c 0.043,0.014 0.086,0.029 0.13,0.044 l 0.058,0.02 c 0.042,0.015 0.082,0.03 0.123,0.045 l 0.06,0.022 c 0.042,0.016 0.084,0.032 0.126,0.048 l 0.068,0.027 c 0.04,0.016 0.08,0.033 0.12,0.05 l 0.053,0.024 c 0.04,0.016 0.08,0.034 0.119,0.051 l 0.07,0.032 c 0.039,0.017 0.077,0.034 0.115,0.052 l 0.068,0.033 c 0.035,0.017 0.071,0.034 0.106,0.051 l 0.063,0.031 0.1,0.052 0.096,0.05 0.076,0.043 0.089,0.049 0.088,0.05 0.079,0.047 0.078,0.048 c 0.032,0.019 0.065,0.04 0.097,0.059 l 0.072,0.047 0.081,0.052 0.087,0.058 0.06,0.041 c -0.492,3.049 -2.499,5.592 -5.224,6.831 -1.625,-0.739 -2.994,-1.94 -3.939,-3.437 v -4.033 l 0.072,-0.035 -0.072,0.034 0.072,-0.034 0.038,-0.018 c 0.045,-0.024 0.092,-0.045 0.139,-0.066 l 0.034,-0.015 c 0.049,-0.022 0.097,-0.044 0.146,-0.065 l 0.029,-0.013 c 0.051,-0.021 0.102,-0.043 0.153,-0.063 l 0.044,-0.018 c 0.05,-0.019 0.1,-0.04 0.151,-0.059 l 0.029,-0.011 c 0.052,-0.02 0.105,-0.04 0.159,-0.058 l 0.022,-0.007 c 0.057,-0.02 0.113,-0.04 0.171,-0.059 l 0.01,-0.004 0.006,-10e-4 c 0.058,-0.019 0.117,-0.037 0.176,-0.056 l 0.026,-0.009 c 0.055,-0.016 0.109,-0.032 0.164,-0.047 l 0.028,-0.009 c 0.057,-0.016 0.115,-0.031 0.173,-0.046 l 0.013,-0.003 c 0.062,-0.016 0.123,-0.031 0.185,-0.045 l 0.008,-0.002 0.011,-0.002 c 0.058,-0.013 0.115,-0.027 0.174,-0.038 l 0.032,-0.006 c 0.056,-0.012 0.112,-0.022 0.168,-0.033 l 0.027,-0.004 c 0.062,-0.012 0.121,-0.023 0.184,-0.032 l 0.006,-10e-4 h 0.003 c 0.065,-0.011 0.129,-0.02 0.195,-0.03 l 0.017,-0.002 c 0.063,-0.009 0.123,-0.016 0.186,-0.024 l 0.018,-0.001 c 0.065,-0.009 0.129,-0.015 0.194,-0.02 l 0.006,-0.001 c 0.067,-0.005 0.134,-0.012 0.202,-0.016 l 0.011,-10e-4 c 0.064,-0.004 0.13,-0.008 0.195,-0.011 l 0.017,-10e-4 c 0.064,-0.002 0.128,-0.004 0.191,-0.006 h 0.018 c 0.068,-0.002 0.136,-0.002 0.205,-0.002 0.069,-0.002 0.136,-0.002 0.203,0.001 z m -4.236,4.973 c -0.619,-0.98 -1.057,-2.088 -1.265,-3.274 0.048,-0.034 0.096,-0.067 0.145,-0.102 l 0.021,-0.015 c 0.043,-0.029 0.086,-0.059 0.13,-0.088 l 0.043,-0.027 c 0.038,-0.026 0.077,-0.05 0.115,-0.075 l 0.045,-0.028 c 0.042,-0.027 0.085,-0.052 0.127,-0.078 l 0.046,-0.027 c 0.044,-0.027 0.089,-0.052 0.133,-0.078 l 0.037,-0.02 c 0.044,-0.025 0.088,-0.049 0.133,-0.074 l 0.037,-0.02 c 0.044,-0.022 0.088,-0.046 0.133,-0.068 l 0.048,-0.025 0.072,-0.036 -0.072,0.036 0.072,-0.035 z"
   id="path96"
   inkscape:connector-curvature="0"
   style="clip-rule:evenodd;fill:#333333;fill-rule:evenodd" />
	</g>
	<g
   id="g112">
		<path
   d="m 241.482,53.217 c -0.301,0.188 -0.699,0.095 -0.886,-0.206 -0.189,-0.301 -0.096,-0.698 0.206,-0.887 3.198,-2 6.556,-3.518 10.071,-4.559 3.508,-1.038 7.173,-1.599 10.993,-1.687 0.354,-0.007 0.647,0.275 0.655,0.63 0.005,0.354 -0.276,0.648 -0.63,0.655 -3.699,0.083 -7.251,0.629 -10.656,1.637 -3.397,1.005 -6.649,2.477 -9.753,4.417 z"
   id="path100"
   inkscape:connector-curvature="0"
   style="fill:#333333" />
		<path
   d="m 241.853,54.502 c -0.334,0.12 -0.702,-0.055 -0.822,-0.388 -0.119,-0.335 0.055,-0.702 0.389,-0.822 3.555,-1.279 7.158,-2.052 10.807,-2.325 3.651,-0.273 7.351,-0.046 11.099,0.677 0.349,0.066 0.578,0.404 0.512,0.753 -0.067,0.35 -0.405,0.578 -0.753,0.512 -3.636,-0.701 -7.223,-0.921 -10.763,-0.657 -3.54,0.263 -7.031,1.012 -10.469,2.25 z"
   id="path102"
   inkscape:connector-curvature="0"
   style="fill:#333333" />
		<path
   d="m 241.943,55.837 c -0.351,0.046 -0.675,-0.202 -0.72,-0.554 -0.045,-0.352 0.203,-0.675 0.555,-0.72 3.742,-0.497 7.427,-0.491 11.053,0.016 3.627,0.507 7.196,1.513 10.705,3.012 0.327,0.139 0.479,0.516 0.34,0.843 -0.139,0.327 -0.517,0.479 -0.843,0.34 -3.406,-1.455 -6.866,-2.431 -10.378,-2.921 -3.515,-0.49 -7.086,-0.498 -10.712,-0.016 z"
   id="path104"
   inkscape:connector-curvature="0"
   style="fill:#333333" />
		<path
   d="m 228.912,52.124 c 0.301,0.189 0.394,0.586 0.206,0.887 -0.188,0.301 -0.585,0.394 -0.887,0.206 -3.104,-1.94 -6.356,-3.412 -9.754,-4.418 -3.405,-1.008 -6.958,-1.553 -10.656,-1.637 -0.355,-0.007 -0.637,-0.301 -0.63,-0.655 0.007,-0.355 0.3,-0.637 0.655,-0.63 3.819,0.088 7.484,0.649 10.992,1.687 3.517,1.041 6.875,2.56 10.074,4.56 z"
   id="path106"
   inkscape:connector-curvature="0"
   style="fill:#333333" />
		<path
   d="m 228.294,53.292 c 0.334,0.12 0.508,0.487 0.388,0.822 -0.119,0.334 -0.487,0.508 -0.821,0.388 -3.438,-1.238 -6.929,-1.987 -10.47,-2.251 -3.539,-0.264 -7.127,-0.044 -10.762,0.657 -0.349,0.066 -0.686,-0.163 -0.753,-0.512 -0.067,-0.349 0.162,-0.686 0.511,-0.753 3.748,-0.722 7.448,-0.95 11.099,-0.677 3.65,0.273 7.253,1.047 10.808,2.326 z"
   id="path108"
   inkscape:connector-curvature="0"
   style="fill:#333333" />
		<path
   d="m 227.938,54.563 c 0.351,0.046 0.6,0.369 0.554,0.72 -0.046,0.352 -0.369,0.6 -0.72,0.554 -3.625,-0.482 -7.196,-0.475 -10.71,0.016 -3.514,0.491 -6.972,1.467 -10.378,2.921 -0.327,0.139 -0.705,-0.013 -0.844,-0.34 -0.139,-0.327 0.013,-0.705 0.34,-0.843 3.51,-1.5 7.078,-2.506 10.706,-3.012 3.625,-0.507 7.309,-0.513 11.052,-0.016 z"
   id="path110"
   inkscape:connector-curvature="0"
   style="fill:#333333" />
	</g>
	<path
   d="m 227.922,142.013 c -2.293,-12.575 -9.688,-61.794 6.508,-61.651 16.327,0.143 9.466,46.816 6.72,61.768 -1.881,0.22 -3.915,0.343 -6.143,0.343 -2.604,10e-4 -4.954,-0.16 -7.085,-0.46 z"
   id="path114"
   inkscape:connector-curvature="0"
   style="clip-rule:evenodd;fill:#a6bde3;fill-rule:evenodd" />
	<path
   d="m 251.479,89.447 c 0.648,13.158 -9.116,40.35 -6.869,47.418 0.911,2.865 3.632,2.003 3.856,5.797 0.286,4.84 -14.305,5.23 -13.441,-0.705 0.406,-2.79 3.553,-3.205 3.964,-4.561 1.124,-3.711 3.042,-52.43 0.793,-58.968 -2.249,-6.539 10.846,-6.253 11.697,11.019 z"
   id="path116"
   inkscape:connector-curvature="0"
   style="clip-rule:evenodd;fill:#698ac6;fill-rule:evenodd" />
	<path
   d="m 218.03,89.447 c -0.648,13.158 9.117,40.35 6.869,47.418 -0.912,2.865 -3.632,2.003 -3.856,5.797 -0.286,4.84 14.305,5.23 13.44,-0.705 -0.406,-2.79 -3.553,-3.205 -3.964,-4.561 -1.124,-3.711 -3.041,-52.43 -0.793,-58.968 2.25,-6.539 -10.844,-6.253 -11.696,11.019 z"
   id="path118"
   inkscape:connector-curvature="0"
   style="clip-rule:evenodd;fill:#698ac6;fill-rule:evenodd" />
	<g
   id="g124">
		<path
   d="m 216.229,142.628 c 3.684,0 6.689,-1.97 6.689,-4.385 0,-2.415 -3.004,-4.385 -6.689,-4.385 -3.684,0 -6.689,1.97 -6.689,4.385 0,2.415 3.005,4.385 6.689,4.385 z"
   id="path120"
   inkscape:connector-curvature="0"
   style="clip-rule:evenodd;fill:#698ac6;fill-rule:evenodd" />
		<path
   d="m 253.106,142.628 c 3.684,0 6.689,-1.97 6.689,-4.385 0,-2.415 -3.005,-4.385 -6.689,-4.385 -3.684,0 -6.689,1.97 -6.689,4.385 0,2.415 3.005,4.385 6.689,4.385 z"
   id="path122"
   inkscape:connector-curvature="0"
   style="clip-rule:evenodd;fill:#698ac6;fill-rule:evenodd" />
	</g>
</g>






<g
   id="g500"
   transform="translate(-175.57462,-4.3231969)">
</g>
<g
   id="g502"
   transform="translate(-175.57462,-4.3231969)">
</g>
<g
   id="g504"
   transform="translate(-175.57462,-4.3231969)">
</g>
<g
   id="g506"
   transform="translate(-175.57462,-4.3231969)">
</g>
<g
   id="g508"
   transform="translate(-175.57462,-4.3231969)">
</g>
<g
   id="g510"
   transform="translate(-175.57462,-4.3231969)">
</g>
</svg>