<?xml version="1.0" encoding="UTF-8" standalone="no"?>
<!-- Generator: Adobe Illustrator 17.0.0, SVG Export Plug-In . SVG Version: 6.00 Build 0)  -->

<svg
   xmlns:dc="http://purl.org/dc/elements/1.1/"
   xmlns:cc="http://creativecommons.org/ns#"
   xmlns:rdf="http://www.w3.org/1999/02/22-rdf-syntax-ns#"
   xmlns:svg="http://www.w3.org/2000/svg"
   xmlns="http://www.w3.org/2000/svg"
   xmlns:sodipodi="http://sodipodi.sourceforge.net/DTD/sodipodi-0.dtd"
   xmlns:inkscape="http://www.inkscape.org/namespaces/inkscape"
   version="1.1"
   id="Слой_1"
   x="0px"
   y="0px"
   width="110.23929"
   height="141.16893"
   viewBox="0 0 110.23929 141.16893"
   enable-background="new 0 0 1200 150"
   xml:space="preserve"
   sodipodi:docname="3.svg"
   inkscape:version="0.92.4 (5da689c313, 2019-01-14)"><metadata
   id="metadata517"><rdf:RDF><cc:Work
       rdf:about=""><dc:format>image/svg+xml</dc:format><dc:type
         rdf:resource="http://purl.org/dc/dcmitype/StillImage" /><dc:title></dc:title></cc:Work></rdf:RDF></metadata><defs
   id="defs515" /><sodipodi:namedview
   pagecolor="#ffffff"
   bordercolor="#666666"
   borderopacity="1"
   objecttolerance="10"
   gridtolerance="10"
   guidetolerance="10"
   inkscape:pageopacity="0"
   inkscape:pageshadow="2"
   inkscape:window-width="1920"
   inkscape:window-height="1017"
   id="namedview513"
   showgrid="false"
   inkscape:zoom="0.66939442"
   inkscape:cx="836.3964"
   inkscape:cy="-56.316414"
   inkscape:window-x="-8"
   inkscape:window-y="-8"
   inkscape:window-maximized="1"
   inkscape:current-layer="Слой_1"
   fit-margin-top="0"
   fit-margin-left="0"
   fit-margin-right="0"
   fit-margin-bottom="0" />



<g
   id="g254"
   transform="translate(-469.70768,-4.3403571)">
	<path
   d="m 553.199,79.599 c 16.579,6.748 28.653,15.501 26.499,31.391 -1.676,12.368 -12.599,18.396 -18.536,13.586 -10.011,-8.112 5.973,-11.833 6.035,-21.158 0.031,-4.577 -3.134,-13.905 -14.301,-21.084 -4.811,-3.092 -6.414,-5.469 0.303,-2.735 z"
   id="path190"
   inkscape:connector-curvature="0"
   style="clip-rule:evenodd;fill:#698ac6;fill-rule:evenodd" />
	<path
   d="m 541.401,78.397 c 8.44,5.065 5.529,15.833 -0.94,27.563 -6.47,11.729 -0.481,28.149 -4.823,34.6 -4.342,6.452 -17.939,3.207 -10.492,-0.586 7.859,-4.002 3.715,-6.451 -0.554,-13.488 -4.269,-7.037 -17.632,-15.159 -5.012,-36.497 6.705,-11.337 17.078,-14.437 21.821,-11.592 z"
   id="path192"
   inkscape:connector-curvature="0"
   style="clip-rule:evenodd;fill:#698ac6;fill-rule:evenodd" />
	<path
   d="m 509.065,63.405 c 16.45,11.749 48.193,6.067 49.095,30.219 0.92,24.638 -43.365,22.755 -67,9.954 -22.114,-11.977 1.774,-51.696 17.905,-40.173 z"
   id="path194"
   inkscape:connector-curvature="0"
   style="clip-rule:evenodd;fill:#698ac6;fill-rule:evenodd" />
	<path
   d="m 501.483,106.02 c 46.724,12.747 3.984,-42.679 3.966,-49.989 -0.002,-1.048 -7.929,-1.066 -7.935,0.183 -0.032,7.303 -42.755,37.06 3.969,49.806 z"
   id="path196"
   inkscape:connector-curvature="0"
   style="clip-rule:evenodd;fill:#698ac6;fill-rule:evenodd" />
	<path
   d="m 479.481,88.731 c 0.321,11.995 14.903,41.698 12.856,48.136 -0.83,2.61 -3.309,1.824 -3.513,5.282 -0.26,4.409 13.032,4.764 12.244,-0.643 -0.37,-2.541 -3.237,-2.92 -3.611,-4.155 -1.024,-3.38 7.658,-50.467 9.705,-56.423 2.049,-5.956 -28.113,-8.335 -27.681,7.803 z"
   id="path198"
   inkscape:connector-curvature="0"
   style="clip-rule:evenodd;fill:#698ac6;fill-rule:evenodd" />
	<path
   d="m 531.956,26.385 c -2.71,9.315 -9.039,16.435 -15.628,18.432 -4.739,-4.363 -6.44,-13.16 -3.731,-22.475 2.345,-8.061 7.419,-14.306 12.988,-17.353 1.879,-1.028 3.297,-0.976 4.579,1.196 2.981,5.05 4.091,12.295 1.792,20.2 z"
   id="path200"
   inkscape:connector-curvature="0"
   style="clip-rule:evenodd;fill:#698ac6;fill-rule:evenodd" />
	<path
   d="m 531.356,24.204 c -1.921,6.604 -6.408,11.651 -11.078,13.066 -3.359,-3.093 -4.565,-9.329 -2.644,-15.932 1.662,-5.715 5.259,-10.142 9.207,-12.302 1.333,-0.729 2.338,-0.692 3.246,0.848 2.112,3.581 2.898,8.718 1.269,14.32 z"
   id="path202"
   inkscape:connector-curvature="0"
   style="clip-rule:evenodd;fill:#fbd8cf;fill-rule:evenodd" />
	<path
   d="m 470.937,26.385 c 2.71,9.315 9.04,16.435 15.629,18.432 4.739,-4.363 6.439,-13.16 3.73,-22.475 -2.345,-8.061 -7.42,-14.306 -12.988,-17.353 -1.879,-1.028 -3.298,-0.976 -4.579,1.196 -2.981,5.05 -4.09,12.295 -1.792,20.2 z"
   id="path204"
   inkscape:connector-curvature="0"
   style="clip-rule:evenodd;fill:#698ac6;fill-rule:evenodd" />
	<path
   d="m 471.244,24.204 c 1.921,6.603 6.408,11.651 11.079,13.066 3.359,-3.093 4.564,-9.329 2.644,-15.932 -1.662,-5.715 -5.259,-10.141 -9.207,-12.302 -1.332,-0.729 -2.338,-0.692 -3.246,0.848 -2.113,3.581 -2.9,8.718 -1.27,14.32 z"
   id="path206"
   inkscape:connector-curvature="0"
   style="clip-rule:evenodd;fill:#fbd8cf;fill-rule:evenodd" />
	<path
   d="m 501.447,64.203 c 16.901,0 30.684,-11.42 30.684,-25.422 0,-14.003 -13.783,-25.423 -30.684,-25.423 -16.9,0 -30.685,11.42 -30.685,25.423 0,14.002 13.785,25.422 30.685,25.422 z"
   id="path208"
   inkscape:connector-curvature="0"
   style="clip-rule:evenodd;fill:#698ac6;fill-rule:evenodd" />
	<path
   d="m 503.938,13.443 c 0.059,3.031 0.091,6.22 0.091,9.513 0,19.883 -1.146,36.002 -2.56,36.002 -1.414,0 -2.561,-16.118 -2.561,-36.002 0,-3.295 0.032,-6.484 0.091,-9.516 0.808,-0.053 1.623,-0.08 2.448,-0.08 0.838,-10e-4 1.669,0.028 2.491,0.083 z"
   id="path210"
   inkscape:connector-curvature="0"
   style="clip-rule:evenodd;fill:#a5bce3;fill-rule:evenodd" />
	<path
   d="m 481.462,58.071 c 5.369,3.822 12.351,6.132 19.985,6.132 7.655,0 14.654,-2.323 20.029,-6.164 0,-11.651 -8.958,-21.096 -20.007,-21.096 -11.05,0 -20.008,9.446 -20.008,21.097 z"
   id="path212"
   inkscape:connector-curvature="0"
   style="clip-rule:evenodd;fill:#a5bce3;fill-rule:evenodd" />
	<g
   id="g222">
		<path
   d="m 512.667,28.202 c -3.135,0 -5.812,1.954 -6.882,4.711 1.07,2.756 3.748,4.711 6.882,4.711 3.134,0 5.812,-1.955 6.882,-4.711 -1.07,-2.757 -3.748,-4.711 -6.882,-4.711 z"
   id="path214"
   inkscape:connector-curvature="0"
   style="clip-rule:evenodd;fill:#ffffff;fill-rule:evenodd" />
		<path
   d="m 511.034,28.383 c 0.022,3.585 0.693,6.631 1.632,7.861 0.939,-1.23 1.61,-4.276 1.631,-7.861 -0.525,-0.119 -1.07,-0.181 -1.631,-0.181 -0.561,0 -1.106,0.062 -1.632,0.181 z"
   id="path216"
   inkscape:connector-curvature="0"
   style="clip-rule:evenodd;fill:#343434;fill-rule:evenodd" />
		<path
   d="m 490.393,28.202 c -3.134,0 -5.812,1.954 -6.881,4.711 1.07,2.756 3.747,4.711 6.881,4.711 3.135,0 5.812,-1.955 6.882,-4.711 -1.07,-2.757 -3.748,-4.711 -6.882,-4.711 z"
   id="path218"
   inkscape:connector-curvature="0"
   style="clip-rule:evenodd;fill:#ffffff;fill-rule:evenodd" />
		<path
   d="m 488.761,28.383 c 0.021,3.585 0.692,6.631 1.632,7.861 0.94,-1.23 1.611,-4.276 1.632,-7.861 -0.524,-0.119 -1.071,-0.181 -1.632,-0.181 -0.561,0 -1.107,0.062 -1.632,0.181 z"
   id="path220"
   inkscape:connector-curvature="0"
   style="clip-rule:evenodd;fill:#343434;fill-rule:evenodd" />
	</g>
	<path
   d="m 502.141,44.332 c -0.006,-0.34 -0.286,-0.611 -0.626,-0.606 -0.34,0.005 -0.611,0.285 -0.606,0.625 0.062,3.625 -1.329,5.894 -3.14,7.008 -0.744,0.457 -1.557,0.722 -2.365,0.807 -0.811,0.087 -1.618,-0.005 -2.348,-0.262 -1.461,-0.512 -2.615,-1.696 -2.85,-3.438 -0.045,-0.337 -0.355,-0.573 -0.692,-0.528 -0.337,0.046 -0.575,0.355 -0.529,0.693 0.303,2.251 1.787,3.778 3.666,4.437 0.899,0.317 1.889,0.43 2.879,0.325 0.992,-0.105 1.984,-0.428 2.887,-0.981 2.146,-1.32 3.795,-3.945 3.724,-8.08 z"
   id="path224"
   inkscape:connector-curvature="0"
   style="fill:#343434" />
	<path
   d="m 502.145,44.351 c 0.005,-0.34 -0.266,-0.62 -0.606,-0.625 -0.34,-0.005 -0.621,0.266 -0.626,0.606 -0.071,4.136 1.578,6.76 3.724,8.08 0.902,0.554 1.895,0.877 2.887,0.981 0.99,0.105 1.979,-0.008 2.879,-0.325 1.878,-0.659 3.363,-2.186 3.666,-4.437 0.045,-0.338 -0.191,-0.648 -0.529,-0.693 -0.337,-0.045 -0.648,0.191 -0.692,0.528 -0.235,1.742 -1.389,2.926 -2.85,3.438 -0.73,0.257 -1.537,0.348 -2.348,0.262 -0.808,-0.086 -1.622,-0.35 -2.365,-0.807 -1.811,-1.114 -3.203,-3.382 -3.14,-7.008 z"
   id="path226"
   inkscape:connector-curvature="0"
   style="fill:#343434" />
	<g
   id="g230">
		<path
   d="m 505.123,45.042 c 0.565,-0.894 0.963,-1.902 1.153,-2.982 -0.044,-0.032 -0.088,-0.062 -0.132,-0.093 l -0.02,-0.013 c -0.039,-0.026 -0.079,-0.054 -0.119,-0.08 l -0.039,-0.024 c -0.036,-0.023 -0.07,-0.046 -0.106,-0.068 l -0.041,-0.025 c -0.039,-0.024 -0.077,-0.048 -0.116,-0.071 l -0.042,-0.024 c -0.041,-0.024 -0.081,-0.048 -0.122,-0.07 l -0.034,-0.019 c -0.04,-0.022 -0.08,-0.045 -0.121,-0.067 l -0.034,-0.017 c -0.04,-0.021 -0.08,-0.043 -0.121,-0.063 l -0.043,-0.022 -0.066,-0.033 0.066,0.033 -0.066,-0.033 v 3.671 z m -3.859,-4.529 h -0.018 c -0.058,0.001 -0.115,0.003 -0.173,0.006 h -0.012 c -0.06,0.003 -0.119,0.006 -0.179,0.01 l -0.017,10e-4 c -0.054,0.004 -0.108,0.008 -0.162,0.013 l -0.028,0.002 c -0.053,0.005 -0.106,0.01 -0.159,0.016 l -0.019,0.002 c -0.059,0.007 -0.117,0.014 -0.175,0.022 l -0.01,10e-4 c -0.055,0.007 -0.109,0.015 -0.163,0.024 l -0.031,0.005 c -0.051,0.008 -0.101,0.016 -0.152,0.025 l -0.022,0.004 c -0.054,0.01 -0.107,0.02 -0.16,0.031 l -0.036,0.007 c -0.046,0.01 -0.091,0.019 -0.137,0.03 l -0.038,0.009 c -0.048,0.01 -0.095,0.022 -0.143,0.035 l -0.032,0.007 c -0.05,0.013 -0.099,0.026 -0.148,0.04 l -0.036,0.009 c -0.043,0.013 -0.088,0.025 -0.131,0.038 l -0.042,0.013 c -0.042,0.012 -0.085,0.025 -0.127,0.04 l -0.059,0.018 c -0.04,0.013 -0.078,0.026 -0.117,0.04 l -0.055,0.019 c -0.038,0.013 -0.074,0.026 -0.112,0.041 l -0.055,0.02 c -0.039,0.014 -0.077,0.029 -0.115,0.044 l -0.062,0.025 c -0.037,0.014 -0.073,0.03 -0.109,0.045 l -0.049,0.02 c -0.036,0.015 -0.072,0.032 -0.108,0.047 l -0.063,0.03 c -0.035,0.015 -0.07,0.032 -0.104,0.048 l -0.062,0.031 c -0.032,0.015 -0.065,0.032 -0.097,0.047 l -0.057,0.028 -0.091,0.047 -0.088,0.047 -0.069,0.038 -0.082,0.045 -0.08,0.047 -0.072,0.043 -0.072,0.043 c -0.029,0.018 -0.058,0.037 -0.088,0.055 l -0.067,0.042 -0.074,0.048 -0.078,0.053 -0.055,0.037 c 0.448,2.778 2.276,5.095 4.759,6.223 1.48,-0.673 2.727,-1.767 3.589,-3.131 v -3.674 l -0.066,-0.033 0.066,0.033 -0.066,-0.033 -0.034,-0.016 c -0.042,-0.02 -0.084,-0.04 -0.127,-0.06 l -0.031,-0.013 c -0.044,-0.02 -0.089,-0.04 -0.133,-0.059 l -0.027,-0.012 c -0.046,-0.019 -0.093,-0.039 -0.139,-0.057 l -0.039,-0.016 c -0.046,-0.018 -0.093,-0.037 -0.138,-0.054 l -0.026,-0.01 c -0.048,-0.018 -0.096,-0.036 -0.145,-0.053 l -0.021,-0.007 c -0.051,-0.017 -0.103,-0.036 -0.155,-0.052 l -0.01,-0.004 -0.006,-0.001 c -0.053,-0.018 -0.106,-0.035 -0.161,-0.052 l -0.023,-0.006 c -0.049,-0.015 -0.099,-0.03 -0.149,-0.045 l -0.026,-0.007 c -0.052,-0.014 -0.104,-0.028 -0.157,-0.042 l -0.012,-0.003 c -0.056,-0.014 -0.112,-0.027 -0.169,-0.041 l -0.007,-0.002 -0.01,-0.002 c -0.052,-0.011 -0.105,-0.023 -0.158,-0.035 l -0.029,-0.006 c -0.051,-0.01 -0.102,-0.02 -0.153,-0.03 l -0.025,-0.004 c -0.055,-0.011 -0.111,-0.02 -0.167,-0.03 l -0.006,-10e-4 -0.003,-10e-4 c -0.058,-0.009 -0.118,-0.017 -0.177,-0.025 l -0.016,-0.003 c -0.056,-0.007 -0.113,-0.014 -0.169,-0.02 l -0.016,-0.002 c -0.059,-0.007 -0.119,-0.013 -0.178,-0.018 l -0.005,-10e-4 c -0.061,-0.005 -0.123,-0.01 -0.184,-0.014 l -0.01,-10e-4 c -0.06,-0.004 -0.119,-0.007 -0.178,-0.01 h -0.015 c -0.058,-0.003 -0.116,-0.005 -0.175,-0.006 h -0.015 c -0.062,-0.002 -0.125,-0.003 -0.187,-0.003 -0.06,-0.002 -0.12,-10e-4 -0.181,10e-4 z"
   id="path228"
   inkscape:connector-curvature="0"
   style="clip-rule:evenodd;fill:#343434;fill-rule:evenodd" />
	</g>
	<g
   id="g244">
		<path
   d="m 495.134,43.987 c 0.329,0.205 0.762,0.104 0.967,-0.225 0.205,-0.33 0.104,-0.763 -0.225,-0.967 -3.031,-1.896 -6.213,-3.334 -9.545,-4.321 -3.324,-0.984 -6.797,-1.516 -10.417,-1.598 -0.386,-0.008 -0.707,0.299 -0.714,0.686 -0.007,0.387 0.3,0.707 0.687,0.714 3.488,0.08 6.838,0.594 10.049,1.544 3.204,0.949 6.271,2.336 9.198,4.167 z"
   id="path232"
   inkscape:connector-curvature="0"
   style="fill:#343434" />
		<path
   d="m 494.801,45.209 c 0.364,0.13 0.766,-0.059 0.896,-0.423 0.13,-0.364 -0.059,-0.765 -0.423,-0.896 -3.37,-1.212 -6.785,-1.946 -10.241,-2.203 -3.46,-0.259 -6.966,-0.044 -10.517,0.64 -0.38,0.073 -0.631,0.441 -0.557,0.822 0.072,0.381 0.44,0.63 0.821,0.558 3.428,-0.661 6.812,-0.869 10.15,-0.62 3.338,0.249 6.63,0.956 9.871,2.122 z"
   id="path234"
   inkscape:connector-curvature="0"
   style="fill:#343434" />
		<path
   d="m 494.736,46.477 c 0.384,0.05 0.736,-0.221 0.785,-0.605 0.05,-0.384 -0.22,-0.735 -0.604,-0.786 -3.547,-0.47 -7.039,-0.464 -10.474,0.015 -3.438,0.48 -6.819,1.433 -10.144,2.855 -0.356,0.151 -0.522,0.564 -0.371,0.92 0.151,0.356 0.564,0.522 0.92,0.371 3.212,-1.372 6.475,-2.293 9.788,-2.755 3.315,-0.463 6.681,-0.47 10.1,-0.015 z"
   id="path236"
   inkscape:connector-curvature="0"
   style="fill:#343434" />
		<path
   d="m 507.017,42.794 c -0.329,0.205 -0.43,0.637 -0.225,0.967 0.205,0.329 0.638,0.43 0.967,0.225 2.927,-1.831 5.993,-3.218 9.198,-4.167 3.211,-0.951 6.561,-1.464 10.049,-1.544 0.386,-0.007 0.694,-0.327 0.687,-0.714 -0.008,-0.387 -0.328,-0.694 -0.714,-0.686 -3.619,0.082 -7.093,0.614 -10.417,1.598 -3.332,0.987 -6.514,2.426 -9.545,4.321 z"
   id="path238"
   inkscape:connector-curvature="0"
   style="fill:#343434" />
		<path
   d="m 507.619,43.89 c -0.364,0.131 -0.554,0.532 -0.423,0.896 0.13,0.364 0.531,0.554 0.896,0.423 3.242,-1.167 6.533,-1.873 9.872,-2.123 3.337,-0.249 6.721,-0.041 10.15,0.62 0.38,0.072 0.748,-0.177 0.821,-0.558 0.073,-0.381 -0.177,-0.748 -0.558,-0.822 -3.552,-0.684 -7.057,-0.899 -10.517,-0.64 -3.457,0.258 -6.871,0.992 -10.241,2.204 z"
   id="path240"
   inkscape:connector-curvature="0"
   style="fill:#343434" />
		<path
   d="m 507.976,45.086 c -0.383,0.051 -0.654,0.402 -0.604,0.786 0.05,0.384 0.402,0.655 0.786,0.605 3.419,-0.455 6.786,-0.448 10.1,0.015 3.313,0.462 6.575,1.383 9.787,2.755 0.356,0.152 0.769,-0.014 0.92,-0.371 0.152,-0.356 -0.014,-0.77 -0.37,-0.92 -3.326,-1.421 -6.707,-2.374 -10.145,-2.855 -3.436,-0.479 -6.927,-0.486 -10.474,-0.015 z"
   id="path242"
   inkscape:connector-curvature="0"
   style="fill:#343434" />
	</g>
	<path
   d="m 549.086,108.782 c -9.339,4.954 -24.453,5.031 -38.459,1.861 0.74,-2.626 1.901,-5.281 4.086,-8.697 9.62,6.188 20.157,4.512 29.257,1.638 2.644,-0.834 4.215,1.488 5.116,5.198 z"
   id="path246"
   inkscape:connector-curvature="0"
   style="clip-rule:evenodd;fill:#a5bce3;fill-rule:evenodd" />
	<path
   d="m 549.407,78.397 c 9.881,5.065 10.033,15.833 6.898,27.563 -3.136,11.729 7.524,28.149 5.016,34.6 -2.508,6.452 -17.028,3.207 -10.659,-0.586 6.72,-4.002 1.88,-6.451 -4.39,-13.488 -6.27,-7.037 -21.943,-15.159 -15.39,-36.497 3.483,-11.337 12.974,-14.437 18.525,-11.592 z"
   id="path248"
   inkscape:connector-curvature="0"
   style="clip-rule:evenodd;fill:#698ac6;fill-rule:evenodd" />
	<path
   d="m 522.667,86.718 c 0.59,11.988 -14.099,43.711 -12.052,50.149 0.83,2.61 3.309,1.824 3.512,5.282 0.26,4.409 -13.032,4.764 -12.244,-0.643 0.371,-2.541 3.238,-2.92 3.612,-4.155 1.024,-3.38 -7.659,-50.467 -9.707,-56.423 -2.047,-5.956 26.103,-9.945 26.879,5.79 z"
   id="path250"
   inkscape:connector-curvature="0"
   style="clip-rule:evenodd;fill:#698ac6;fill-rule:evenodd" />
	<path
   d="m 501.483,106.02 c 5.271,-9.412 10.542,-22.966 -2.635,-22.589 -13.178,0.376 -7.907,11.671 2.635,22.589 z"
   id="path252"
   inkscape:connector-curvature="0"
   style="clip-rule:evenodd;fill:#a5bce3;fill-rule:evenodd" />
</g>




<g
   id="g500"
   transform="translate(-469.70768,-4.3403571)">
</g>
<g
   id="g502"
   transform="translate(-469.70768,-4.3403571)">
</g>
<g
   id="g504"
   transform="translate(-469.70768,-4.3403571)">
</g>
<g
   id="g506"
   transform="translate(-469.70768,-4.3403571)">
</g>
<g
   id="g508"
   transform="translate(-469.70768,-4.3403571)">
</g>
<g
   id="g510"
   transform="translate(-469.70768,-4.3403571)">
</g>
</svg>