<?xml version="1.0" encoding="UTF-8" standalone="no"?>
<!-- Generator: Adobe Illustrator 17.0.0, SVG Export Plug-In . SVG Version: 6.00 Build 0)  -->

<svg
   xmlns:dc="http://purl.org/dc/elements/1.1/"
   xmlns:cc="http://creativecommons.org/ns#"
   xmlns:rdf="http://www.w3.org/1999/02/22-rdf-syntax-ns#"
   xmlns:svg="http://www.w3.org/2000/svg"
   xmlns="http://www.w3.org/2000/svg"
   xmlns:sodipodi="http://sodipodi.sourceforge.net/DTD/sodipodi-0.dtd"
   xmlns:inkscape="http://www.inkscape.org/namespaces/inkscape"
   version="1.1"
   id="Слой_1"
   x="0px"
   y="0px"
   width="88.847267"
   height="140.46539"
   viewBox="0 0 88.847267 140.46539"
   enable-background="new 0 0 1200 150"
   xml:space="preserve"
   sodipodi:docname="4.svg"
   inkscape:version="0.92.4 (5da689c313, 2019-01-14)"><metadata
   id="metadata517"><rdf:RDF><cc:Work
       rdf:about=""><dc:format>image/svg+xml</dc:format><dc:type
         rdf:resource="http://purl.org/dc/dcmitype/StillImage" /><dc:title></dc:title></cc:Work></rdf:RDF></metadata><defs
   id="defs515" /><sodipodi:namedview
   pagecolor="#ffffff"
   bordercolor="#666666"
   borderopacity="1"
   objecttolerance="10"
   gridtolerance="10"
   guidetolerance="10"
   inkscape:pageopacity="0"
   inkscape:pageshadow="2"
   inkscape:window-width="1920"
   inkscape:window-height="1017"
   id="namedview513"
   showgrid="false"
   inkscape:zoom="0.66939442"
   inkscape:cx="711.27732"
   inkscape:cy="-18.906065"
   inkscape:window-x="-8"
   inkscape:window-y="-8"
   inkscape:window-maximized="1"
   inkscape:current-layer="Слой_1"
   fit-margin-top="0"
   fit-margin-left="0"
   fit-margin-right="0"
   fit-margin-bottom="0" />




<g
   id="g312"
   transform="translate(-627.0653,-5.1161075)">
	<path
   d="m 670.245,92.197 c 0.64,0.909 1.896,1.128 2.805,0.487 0.91,-0.639 1.128,-1.895 0.488,-2.804 -4.647,-6.579 -9.075,-9.468 -13.753,-10.12 -4.608,-0.643 -9.198,0.944 -14.392,3.313 -2.443,1.112 -4.798,1.399 -6.87,1.056 -1.889,-0.312 -3.546,-1.154 -4.812,-2.366 -1.257,-1.205 -2.133,-2.778 -2.468,-4.564 -0.342,-1.819 -0.131,-3.871 0.791,-5.999 1.18,-2.721 3.173,-3.921 5.057,-3.979 0.732,-0.023 1.45,0.121 2.094,0.408 0.629,0.281 1.189,0.701 1.622,1.237 1.077,1.334 1.377,3.461 0.091,6.118 -0.482,1.001 -0.063,2.204 0.938,2.686 1.001,0.483 2.204,0.064 2.687,-0.937 2.07,-4.278 1.398,-7.939 -0.579,-10.389 -0.84,-1.04 -1.917,-1.851 -3.12,-2.388 -1.189,-0.531 -2.506,-0.796 -3.843,-0.755 -3.31,0.102 -6.739,2.037 -8.634,6.406 -1.262,2.912 -1.541,5.765 -1.06,8.331 0.495,2.632 1.784,4.95 3.635,6.724 1.843,1.766 4.239,2.989 6.956,3.438 2.811,0.465 5.964,0.097 9.185,-1.372 4.568,-2.082 8.529,-3.488 12.17,-2.98 3.573,0.498 7.095,2.904 11.012,8.449 z"
   id="path256"
   inkscape:connector-curvature="0"
   style="fill:#698ac6" />
	<path
   d="m 686.787,109.002 c -12.351,0 -22.224,-4.649 -22.603,-11.474 -1.166,-21.065 25.242,-26.463 18.903,-48.202 -0.358,-1.229 7.396,-1.273 7.401,0.219 0.029,8.718 36.991,59.457 -3.701,59.457 z"
   id="path258"
   inkscape:connector-curvature="0"
   style="clip-rule:evenodd;fill:#698ac6;fill-rule:evenodd" />
	<path
   d="m 711.188,32.444 c -5.71,9.567 -14.847,15.198 -22.804,14.878 -4.059,-6.851 -3.441,-17.566 2.269,-27.134 4.94,-8.278 12.421,-13.407 19.536,-14.688 2.402,-0.432 3.977,0.186 4.789,3.173 1.889,6.942 1.054,15.653 -3.79,23.771 z"
   id="path260"
   inkscape:connector-curvature="0"
   style="clip-rule:evenodd;fill:#698ac6;fill-rule:evenodd" />
	<path
   d="m 707.495,30.599 c -4.499,7.538 -11.698,11.975 -17.967,11.723 -3.198,-5.398 -2.711,-13.84 1.788,-21.378 3.893,-6.522 9.787,-10.563 15.392,-11.572 1.892,-0.341 3.133,0.147 3.773,2.499 1.489,5.469 0.831,12.332 -2.986,18.728 z"
   id="path262"
   inkscape:connector-curvature="0"
   style="clip-rule:evenodd;fill:#fbd8cf;fill-rule:evenodd" />
	<path
   d="m 662.38,32.184 c 5.71,9.566 14.848,15.197 22.804,14.877 4.06,-6.851 3.441,-17.565 -2.269,-27.133 C 677.974,11.65 670.494,6.521 663.379,5.24 c -2.402,-0.433 -3.976,0.187 -4.789,3.172 -1.89,6.942 -1.055,15.653 3.79,23.772 z"
   id="path264"
   inkscape:connector-curvature="0"
   style="clip-rule:evenodd;fill:#698ac6;fill-rule:evenodd" />
	<path
   d="m 666.475,30.6 c 4.498,7.537 11.698,11.974 17.966,11.722 3.198,-5.398 2.711,-13.84 -1.788,-21.378 -3.893,-6.522 -9.786,-10.563 -15.392,-11.572 -1.893,-0.342 -3.133,0.147 -3.773,2.499 -1.488,5.469 -0.83,12.332 2.987,18.729 z"
   id="path266"
   inkscape:connector-curvature="0"
   style="clip-rule:evenodd;fill:#fbd8cf;fill-rule:evenodd" />
	<path
   d="m 711.188,32.444 c -5.557,31.714 -43.708,30.71 -48.925,0 8.617,-19.546 40.307,-19.412 48.925,0 z"
   id="path268"
   inkscape:connector-curvature="0"
   style="clip-rule:evenodd;fill:#698ac6;fill-rule:evenodd" />
	<path
   d="m 676.92,27.53 c 2.759,0 5.117,1.721 6.059,4.147 -0.942,2.427 -3.3,4.148 -6.059,4.148 -2.76,0 -5.118,-1.721 -6.06,-4.148 0.942,-2.426 3.3,-4.147 6.06,-4.147 z"
   id="path270"
   inkscape:connector-curvature="0"
   style="clip-rule:evenodd;fill:#ffffff;fill-rule:evenodd" />
	<path
   d="m 678.356,27.689 c -0.018,3.156 -0.609,5.839 -1.436,6.922 -0.827,-1.083 -1.418,-3.766 -1.438,-6.922 0.463,-0.105 0.943,-0.159 1.438,-0.159 0.493,0 0.974,0.055 1.436,0.159 z"
   id="path272"
   inkscape:connector-curvature="0"
   style="clip-rule:evenodd;fill:#343434;fill-rule:evenodd" />
	<path
   d="m 696.53,27.53 c 2.76,0 5.118,1.721 6.06,4.147 -0.942,2.427 -3.299,4.148 -6.06,4.148 -2.76,0 -5.117,-1.721 -6.059,-4.148 0.943,-2.426 3.3,-4.147 6.059,-4.147 z"
   id="path274"
   inkscape:connector-curvature="0"
   style="clip-rule:evenodd;fill:#ffffff;fill-rule:evenodd" />
	<path
   d="m 697.967,27.689 c -0.019,3.156 -0.61,5.839 -1.437,6.922 -0.827,-1.083 -1.417,-3.766 -1.436,-6.922 0.462,-0.105 0.943,-0.159 1.436,-0.159 0.494,0 0.975,0.055 1.437,0.159 z"
   id="path276"
   inkscape:connector-curvature="0"
   style="clip-rule:evenodd;fill:#343434;fill-rule:evenodd" />
	<path
   d="m 686.151,41.731 c 0.005,-0.317 0.267,-0.57 0.583,-0.565 0.317,0.006 0.57,0.267 0.565,0.583 -0.055,3.18 1.164,5.167 2.75,6.142 0.65,0.4 1.363,0.633 2.069,0.707 0.709,0.075 1.415,-0.006 2.053,-0.229 1.275,-0.447 2.283,-1.48 2.487,-3.001 0.042,-0.314 0.332,-0.536 0.646,-0.493 0.314,0.042 0.535,0.331 0.493,0.646 -0.268,1.996 -1.584,3.35 -3.249,3.934 -0.796,0.279 -1.673,0.38 -2.548,0.287 -0.878,-0.093 -1.756,-0.377 -2.555,-0.869 -1.898,-1.167 -3.358,-3.488 -3.294,-7.142 z"
   id="path278"
   inkscape:connector-curvature="0"
   style="fill:#343434" />
	<path
   d="m 686.147,41.749 c -0.005,-0.316 0.249,-0.577 0.565,-0.583 0.317,-0.005 0.579,0.248 0.583,0.565 0.063,3.653 -1.396,5.975 -3.294,7.141 -0.798,0.491 -1.677,0.776 -2.555,0.869 -0.876,0.093 -1.752,-0.008 -2.548,-0.287 -1.665,-0.584 -2.981,-1.938 -3.249,-3.934 -0.043,-0.314 0.178,-0.604 0.493,-0.646 0.315,-0.043 0.603,0.179 0.646,0.493 0.204,1.521 1.212,2.554 2.487,3.001 0.639,0.223 1.345,0.303 2.054,0.229 0.707,-0.074 1.418,-0.307 2.069,-0.707 1.586,-0.974 2.804,-2.961 2.749,-6.141 z"
   id="path280"
   inkscape:connector-curvature="0"
   style="fill:#343434" />
	<g
   id="g284">
		<path
   d="m 686.956,38.369 h 0.015 c 0.052,10e-4 0.102,0.002 0.153,0.006 h 0.01 c 0.052,0.002 0.105,0.005 0.157,0.009 l 0.016,10e-4 c 0.048,0.003 0.096,0.007 0.143,0.012 l 0.025,0.002 c 0.046,0.004 0.093,0.009 0.14,0.014 l 0.017,0.003 c 0.051,0.005 0.103,0.012 0.155,0.019 l 0.007,0.002 c 0.049,0.006 0.097,0.013 0.144,0.021 l 0.028,0.005 c 0.045,0.007 0.089,0.015 0.134,0.023 l 0.019,0.003 c 0.047,0.009 0.095,0.019 0.142,0.027 l 0.032,0.008 c 0.04,0.008 0.081,0.017 0.12,0.025 l 0.034,0.008 c 0.042,0.01 0.083,0.02 0.125,0.03 l 0.029,0.008 c 0.043,0.01 0.086,0.021 0.129,0.034 l 0.031,0.008 c 0.038,0.012 0.077,0.023 0.115,0.033 l 0.037,0.012 c 0.037,0.011 0.075,0.022 0.112,0.034 l 0.052,0.018 c 0.035,0.011 0.069,0.022 0.103,0.034 l 0.048,0.018 c 0.033,0.011 0.065,0.022 0.098,0.034 l 0.049,0.018 c 0.034,0.013 0.068,0.025 0.102,0.039 l 0.054,0.022 c 0.032,0.014 0.064,0.027 0.097,0.04 l 0.043,0.019 c 0.031,0.014 0.064,0.027 0.095,0.042 l 0.056,0.025 c 0.03,0.015 0.061,0.029 0.092,0.043 l 0.054,0.026 c 0.028,0.014 0.057,0.027 0.085,0.042 l 0.05,0.024 0.08,0.041 0.078,0.042 0.061,0.033 0.071,0.039 0.071,0.041 0.063,0.038 0.063,0.038 c 0.026,0.016 0.053,0.031 0.078,0.048 l 0.059,0.037 0.065,0.041 0.071,0.047 0.047,0.032 c -0.395,2.446 -2.004,4.485 -4.19,5.479 -1.303,-0.592 -2.401,-1.556 -3.16,-2.756 v -3.235 l 0.058,-0.028 -0.058,0.028 0.058,-0.028 0.03,-0.014 c 0.037,-0.019 0.074,-0.036 0.112,-0.054 l 0.026,-0.012 c 0.04,-0.018 0.079,-0.034 0.118,-0.052 l 0.024,-0.011 c 0.04,-0.018 0.081,-0.034 0.122,-0.051 l 0.035,-0.014 c 0.04,-0.017 0.081,-0.032 0.121,-0.048 l 0.024,-0.009 c 0.042,-0.016 0.085,-0.031 0.128,-0.046 l 0.018,-0.007 c 0.046,-0.016 0.091,-0.032 0.137,-0.047 l 0.008,-0.003 0.005,-10e-4 c 0.047,-0.016 0.094,-0.03 0.142,-0.045 l 0.021,-0.006 c 0.044,-0.014 0.088,-0.026 0.132,-0.039 l 0.023,-0.006 c 0.046,-0.013 0.092,-0.025 0.139,-0.037 l 0.01,-0.002 c 0.049,-0.014 0.099,-0.025 0.148,-0.037 l 0.006,-10e-4 0.009,-0.003 c 0.046,-0.01 0.093,-0.021 0.14,-0.03 l 0.026,-0.005 c 0.044,-0.01 0.089,-0.019 0.134,-0.026 l 0.022,-0.004 c 0.049,-0.01 0.098,-0.018 0.147,-0.025 l 0.005,-0.002 h 0.003 c 0.052,-0.008 0.104,-0.016 0.155,-0.023 l 0.014,-0.002 c 0.049,-0.007 0.099,-0.013 0.149,-0.019 l 0.014,-0.002 c 0.052,-0.006 0.104,-0.012 0.157,-0.016 l 0.004,-0.001 c 0.053,-0.005 0.107,-0.01 0.162,-0.013 l 0.009,-10e-4 c 0.051,-0.003 0.103,-0.006 0.156,-0.009 h 0.013 c 0.051,-0.003 0.102,-0.005 0.154,-0.006 h 0.014 c 0.054,-0.002 0.109,-0.002 0.163,-0.002 0.052,10e-4 0.105,10e-4 0.159,0.003 z m -3.398,3.988 c -0.497,-0.786 -0.848,-1.674 -1.015,-2.625 0.038,-0.028 0.077,-0.055 0.116,-0.082 l 0.018,-0.012 c 0.035,-0.023 0.069,-0.047 0.105,-0.07 l 0.034,-0.022 c 0.031,-0.02 0.063,-0.04 0.094,-0.06 l 0.036,-0.023 c 0.034,-0.02 0.068,-0.041 0.103,-0.062 l 0.037,-0.021 c 0.036,-0.021 0.071,-0.042 0.107,-0.062 l 0.029,-0.017 c 0.036,-0.02 0.071,-0.039 0.107,-0.059 l 0.03,-0.016 c 0.035,-0.019 0.07,-0.038 0.107,-0.056 l 0.038,-0.02 0.058,-0.029 -0.058,0.029 0.058,-0.029 v 3.236 z"
   id="path282"
   inkscape:connector-curvature="0"
   style="clip-rule:evenodd;fill:#343434;fill-rule:evenodd" />
	</g>
	<g
   id="g298">
		<path
   d="m 691.729,41.313 c -0.24,0.15 -0.557,0.076 -0.706,-0.164 -0.15,-0.241 -0.076,-0.558 0.164,-0.707 2.409,-1.506 4.938,-2.649 7.584,-3.434 2.643,-0.781 5.402,-1.204 8.278,-1.271 0.283,-0.005 0.517,0.22 0.522,0.502 0.005,0.282 -0.219,0.517 -0.502,0.521 -2.78,0.065 -5.45,0.474 -8.009,1.232 -2.554,0.756 -4.998,1.863 -7.331,3.321 z"
   id="path286"
   inkscape:connector-curvature="0"
   style="fill:#343434" />
		<path
   d="m 692.003,42.282 c -0.267,0.095 -0.559,-0.044 -0.654,-0.31 -0.095,-0.267 0.043,-0.56 0.309,-0.654 2.677,-0.963 5.39,-1.546 8.138,-1.752 2.749,-0.205 5.536,-0.033 8.357,0.511 0.278,0.053 0.461,0.321 0.408,0.6 -0.053,0.278 -0.322,0.46 -0.6,0.407 -2.732,-0.527 -5.429,-0.692 -8.089,-0.494 -2.662,0.199 -5.286,0.762 -7.869,1.692 z"
   id="path288"
   inkscape:connector-curvature="0"
   style="fill:#343434" />
		<path
   d="m 692.065,43.288 c -0.28,0.036 -0.538,-0.161 -0.574,-0.441 -0.037,-0.281 0.161,-0.537 0.441,-0.574 2.818,-0.375 5.593,-0.369 8.323,0.012 2.731,0.382 5.419,1.14 8.062,2.267 0.26,0.111 0.381,0.412 0.271,0.673 -0.111,0.261 -0.412,0.382 -0.672,0.271 -2.56,-1.094 -5.16,-1.827 -7.8,-2.196 -2.643,-0.368 -5.327,-0.373 -8.051,-0.012 z"
   id="path290"
   inkscape:connector-curvature="0"
   style="fill:#343434" />
		<path
   d="m 682.272,40.441 c 0.241,0.149 0.314,0.466 0.165,0.707 -0.15,0.24 -0.466,0.314 -0.707,0.164 -2.333,-1.458 -4.777,-2.564 -7.331,-3.32 -2.559,-0.758 -5.229,-1.167 -8.009,-1.232 -0.282,-0.005 -0.507,-0.239 -0.501,-0.521 0.005,-0.282 0.239,-0.507 0.521,-0.502 2.876,0.066 5.636,0.489 8.277,1.271 2.648,0.784 5.176,1.928 7.585,3.433 z"
   id="path292"
   inkscape:connector-curvature="0"
   style="fill:#343434" />
		<path
   d="m 681.802,41.318 c 0.266,0.095 0.404,0.388 0.309,0.654 -0.095,0.266 -0.389,0.404 -0.654,0.31 -2.584,-0.931 -5.208,-1.493 -7.869,-1.692 -2.66,-0.198 -5.357,-0.033 -8.089,0.494 -0.279,0.053 -0.548,-0.129 -0.6,-0.407 -0.053,-0.278 0.129,-0.547 0.407,-0.6 2.823,-0.544 5.609,-0.716 8.358,-0.511 2.748,0.206 5.461,0.789 8.138,1.752 z"
   id="path294"
   inkscape:connector-curvature="0"
   style="fill:#343434" />
		<path
   d="m 681.528,42.272 c 0.28,0.037 0.478,0.293 0.441,0.574 -0.036,0.28 -0.293,0.478 -0.574,0.441 -2.725,-0.362 -5.408,-0.356 -8.05,0.012 -2.64,0.369 -5.24,1.103 -7.799,2.196 -0.261,0.11 -0.562,-0.011 -0.673,-0.271 -0.111,-0.261 0.01,-0.562 0.271,-0.673 2.642,-1.128 5.329,-1.886 8.061,-2.267 2.73,-0.381 5.504,-0.387 8.323,-0.012 z"
   id="path296"
   inkscape:connector-curvature="0"
   style="fill:#343434" />
	</g>
	<path
   d="m 705.225,97.238 c 0.405,11.179 -8.19,34.28 -6.359,40.285 0.742,2.434 3.063,1.701 3.212,4.925 0.189,4.112 -12.211,4.442 -11.411,-0.6 0.376,-2.37 3.055,-2.724 3.418,-3.875 0.996,-3.152 3.162,-44.543 1.324,-50.098 -1.838,-5.554 9.283,-5.311 9.816,9.363 z"
   id="path300"
   inkscape:connector-curvature="0"
   style="clip-rule:evenodd;fill:#698ac6;fill-rule:evenodd" />
	<path
   d="m 687.167,97.238 c 0.127,11.179 -9.042,34.28 -7.36,40.285 0.682,2.434 3.022,1.701 3.089,4.925 0.087,4.112 -12.321,4.442 -11.396,-0.6 0.435,-2.37 3.122,-2.724 3.514,-3.875 1.074,-3.152 4.27,-44.543 2.57,-50.098 -1.7,-5.554 9.415,-5.311 9.583,9.363 z"
   id="path302"
   inkscape:connector-curvature="0"
   style="clip-rule:evenodd;fill:#698ac6;fill-rule:evenodd" />
	<path
   d="m 696.003,107.826 c -1.845,0.568 -3.988,0.958 -6.454,1.15 -4.235,-13.83 -4.104,-22.859 4.59,-22.076 9.692,0.875 5.219,9.152 1.864,20.926 z"
   id="path304"
   inkscape:connector-curvature="0"
   style="clip-rule:evenodd;fill:#a6bde3;fill-rule:evenodd" />
	<path
   d="m 683.447,109.06 c -10.403,-0.476 -16.063,-2.978 -18.966,-8.191 1.187,-3.639 1.253,-7.199 3.235,-4.651 1.982,2.549 3.774,5.599 12.986,2.966 1.133,3.551 2.032,6.842 2.745,9.876 z"
   id="path306"
   inkscape:connector-curvature="0"
   style="clip-rule:evenodd;fill:#a6bde3;fill-rule:evenodd" />
	<path
   d="m 675.063,97.238 c 1.633,11.179 14.443,34.28 13.707,40.285 -0.298,2.434 -2.753,1.701 -2.314,4.925 0.561,4.112 13.022,4.442 11.302,-0.6 -0.809,-2.37 -3.551,-2.724 -4.125,-3.875 -1.57,-3.152 -11.286,-44.543 -10.462,-50.098 0.825,-5.554 -10.252,-5.311 -8.108,9.363 z"
   id="path308"
   inkscape:connector-curvature="0"
   style="clip-rule:evenodd;fill:#698ac6;fill-rule:evenodd" />
	<path
   d="m 663.557,97.238 c -1.784,11.179 3.962,34.28 1.39,40.285 -1.043,2.434 -3.274,1.701 -3.82,4.925 -0.696,4.112 11.664,4.442 11.485,-0.6 -0.084,-2.37 -2.719,-2.724 -2.94,-3.875 -0.607,-3.152 2.333,-44.543 4.855,-50.098 2.524,-5.554 -8.627,-5.311 -10.97,9.363 z"
   id="path310"
   inkscape:connector-curvature="0"
   style="clip-rule:evenodd;fill:#698ac6;fill-rule:evenodd" />
</g>



<g
   id="g500"
   transform="translate(-627.0653,-5.1161075)">
</g>
<g
   id="g502"
   transform="translate(-627.0653,-5.1161075)">
</g>
<g
   id="g504"
   transform="translate(-627.0653,-5.1161075)">
</g>
<g
   id="g506"
   transform="translate(-627.0653,-5.1161075)">
</g>
<g
   id="g508"
   transform="translate(-627.0653,-5.1161075)">
</g>
<g
   id="g510"
   transform="translate(-627.0653,-5.1161075)">
</g>
</svg>