<?xml version="1.0" encoding="UTF-8" standalone="no"?>
<!-- Generator: Adobe Illustrator 17.0.0, SVG Export Plug-In . SVG Version: 6.00 Build 0)  -->

<svg
   xmlns:dc="http://purl.org/dc/elements/1.1/"
   xmlns:cc="http://creativecommons.org/ns#"
   xmlns:rdf="http://www.w3.org/1999/02/22-rdf-syntax-ns#"
   xmlns:svg="http://www.w3.org/2000/svg"
   xmlns="http://www.w3.org/2000/svg"
   xmlns:sodipodi="http://sodipodi.sourceforge.net/DTD/sodipodi-0.dtd"
   xmlns:inkscape="http://www.inkscape.org/namespaces/inkscape"
   version="1.1"
   id="Слой_1"
   x="0px"
   y="0px"
   width="101.03923"
   height="141.36308"
   viewBox="0 0 101.03923 141.36308"
   enable-background="new 0 0 1200 150"
   xml:space="preserve"
   sodipodi:docname="7.svg"
   inkscape:version="0.92.4 (5da689c313, 2019-01-14)"><metadata
   id="metadata517"><rdf:RDF><cc:Work
       rdf:about=""><dc:format>image/svg+xml</dc:format><dc:type
         rdf:resource="http://purl.org/dc/dcmitype/StillImage" /><dc:title></dc:title></cc:Work></rdf:RDF></metadata><defs
   id="defs515" /><sodipodi:namedview
   pagecolor="#ffffff"
   bordercolor="#666666"
   borderopacity="1"
   objecttolerance="10"
   gridtolerance="10"
   guidetolerance="10"
   inkscape:pageopacity="0"
   inkscape:pageshadow="2"
   inkscape:window-width="1920"
   inkscape:window-height="1017"
   id="namedview513"
   showgrid="false"
   inkscape:zoom="0.66939442"
   inkscape:cx="49.181041"
   inkscape:cy="8.0508367"
   inkscape:window-x="-8"
   inkscape:window-y="-8"
   inkscape:window-maximized="1"
   inkscape:current-layer="Слой_1"
   fit-margin-top="0"
   fit-margin-left="0"
   fit-margin-right="0"
   fit-margin-bottom="0" />







<g
   id="g498"
   transform="translate(-1076.6898,-4.6808638)">
	<g
   id="g486">
		<path
   d="m 1139.997,72.378 c 7.112,5.552 4.658,17.358 -0.793,30.214 -5.451,12.857 -0.404,30.856 -4.063,37.928 -3.658,7.072 -15.114,3.515 -8.84,-0.642 6.622,-4.388 3.131,-7.071 -0.466,-14.786 -3.597,-7.714 -14.855,-16.617 -4.222,-40.006 5.649,-12.427 14.387,-15.827 18.384,-12.708 z"
   id="path434"
   inkscape:connector-curvature="0"
   style="clip-rule:evenodd;fill:#6a8bc7;fill-rule:evenodd" />
		<path
   d="m 1128.8,75.337 c -0.73,-0.783 -0.684,-2.01 0.099,-2.74 0.784,-0.729 2.012,-0.684 2.741,0.1 3.818,4.128 8.757,6.155 13.896,6.515 4.728,0.332 9.635,-0.736 14.02,-2.874 4.38,-2.135 8.219,-5.328 10.817,-9.245 2.758,-4.16 4.107,-9.161 3.186,-14.593 -0.01,-0.041 -0.013,-0.082 -0.017,-0.124 -1.58,-9.074 -6.714,-13.63 -12.372,-14.955 -2.174,-0.509 -4.438,-0.552 -6.615,-0.199 -2.174,0.353 -4.253,1.101 -6.062,2.175 -4.132,2.451 -6.833,6.622 -5.885,11.588 0.991,5.184 3.853,7.928 7.045,8.81 1.311,0.364 2.681,0.424 3.999,0.219 1.334,-0.206 2.614,-0.677 3.732,-1.374 2.542,-1.586 4.249,-4.382 3.78,-7.912 -0.141,-1.064 0.606,-2.039 1.669,-2.18 1.063,-0.141 2.039,0.606 2.18,1.669 0.696,5.235 -1.822,9.37 -5.573,11.711 -1.566,0.978 -3.347,1.636 -5.191,1.92 -1.86,0.288 -3.788,0.203 -5.633,-0.307 -4.499,-1.244 -8.5,-4.946 -9.816,-11.834 -1.298,-6.789 2.249,-12.406 7.707,-15.643 2.225,-1.32 4.773,-2.239 7.433,-2.671 2.655,-0.432 5.434,-0.375 8.123,0.256 7.033,1.649 13.39,7.161 15.288,18.051 0.014,0.053 0.026,0.107 0.034,0.162 1.099,6.473 -0.507,12.431 -3.79,17.382 -2.983,4.502 -7.361,8.154 -12.338,10.579 -4.973,2.424 -10.568,3.634 -15.992,3.254 -6.077,-0.425 -11.928,-2.832 -16.465,-7.74 z"
   id="path436"
   inkscape:connector-curvature="0"
   style="fill:#6a8bc7" />
		<path
   d="m 1112.753,60.685 c 13.859,11.171 40.604,5.769 41.363,28.731 0.776,23.425 -36.536,21.635 -56.449,9.464 -18.631,-11.387 1.495,-49.149 15.086,-38.195 z"
   id="path438"
   inkscape:connector-curvature="0"
   style="clip-rule:evenodd;fill:#6a8bc7;fill-rule:evenodd" />
		<path
   d="m 1106.364,99.688 c 26.236,9.972 34.411,-25.032 8.832,-36.682 -8.135,-3.706 -8.907,-19.368 -8.912,-22.229 0,-1.229 -6.719,-2.837 -6.458,-1.381 3.168,17.696 -32.828,45.331 6.538,60.292 z"
   id="path440"
   inkscape:connector-curvature="0"
   style="clip-rule:evenodd;fill:#6a8bc7;fill-rule:evenodd" />
		<path
   d="m 1087.827,79.391 c 0.27,14.082 12.556,48.95 10.832,56.509 -0.699,3.064 -2.788,2.142 -2.96,6.199 -0.219,5.177 10.98,5.592 10.317,-0.755 -0.313,-2.982 -2.728,-3.427 -3.043,-4.878 -0.862,-3.968 6.452,-59.243 8.178,-66.235 1.725,-6.99 -23.688,-9.784 -23.324,9.16 z"
   id="path442"
   inkscape:connector-curvature="0"
   style="clip-rule:evenodd;fill:#6a8bc7;fill-rule:evenodd" />
		<path
   d="m 1129.052,23.925 c -2.229,6.802 -5.796,10.806 -8.903,10.578 -1.585,-4.871 -1.343,-12.49 0.886,-19.291 1.929,-5.887 4.849,-9.533 7.626,-10.443 0.938,-0.308 1.552,0.133 1.87,2.255 0.739,4.936 0.413,11.13 -1.479,16.901 z"
   id="path444"
   inkscape:connector-curvature="0"
   style="clip-rule:evenodd;fill:#6a8bc7;fill-rule:evenodd" />
		<path
   d="m 1128.368,19.963 c -1.461,4.46 -3.801,7.086 -5.838,6.936 -1.039,-3.195 -0.881,-8.19 0.581,-12.65 1.264,-3.86 3.179,-6.251 5,-6.848 0.615,-0.201 1.018,0.087 1.227,1.479 0.484,3.237 0.271,7.298 -0.97,11.083 z"
   id="path446"
   inkscape:connector-curvature="0"
   style="clip-rule:evenodd;fill:#fbd8cf;fill-rule:evenodd" />
		<path
   d="m 1078.535,24.143 c 2.229,6.802 5.796,10.806 8.903,10.578 1.585,-4.871 1.343,-12.49 -0.886,-19.292 -1.929,-5.886 -4.85,-9.532 -7.627,-10.443 -0.938,-0.307 -1.552,0.132 -1.87,2.255 -0.738,4.937 -0.412,11.13 1.48,16.902 z"
   id="path448"
   inkscape:connector-curvature="0"
   style="clip-rule:evenodd;fill:#6a8bc7;fill-rule:evenodd" />
		<path
   d="m 1079.009,19.963 c 1.462,4.46 3.801,7.086 5.838,6.936 1.039,-3.195 0.881,-8.19 -0.581,-12.65 -1.265,-3.86 -3.18,-6.251 -5.001,-6.848 -0.615,-0.201 -1.018,0.087 -1.226,1.479 -0.484,3.237 -0.27,7.298 0.97,11.083 z"
   id="path450"
   inkscape:connector-curvature="0"
   style="clip-rule:evenodd;fill:#fbd8cf;fill-rule:evenodd" />
		<path
   d="m 1078.432,23.872 c 5.753,32.835 45.255,31.796 50.656,0 -8.922,-20.238 -41.734,-20.099 -50.656,0 z"
   id="path452"
   inkscape:connector-curvature="0"
   style="clip-rule:evenodd;fill:#6a8bc7;fill-rule:evenodd" />
		<path
   d="m 1106.864,8.892 c -2.062,-0.196 -4.146,-0.192 -6.207,0.011 -0.022,1.085 -0.034,2.194 -0.034,3.325 0,12.406 1.405,22.462 3.138,22.462 1.733,0 3.138,-10.056 3.138,-22.462 -10e-4,-1.135 -0.013,-2.247 -0.035,-3.336 z"
   id="path454"
   inkscape:connector-curvature="0"
   style="clip-rule:evenodd;fill:#a7bfe4;fill-rule:evenodd" />
		<path
   d="m 1112.844,21.382 c -2.557,0 -4.741,0.971 -5.614,2.34 0.873,1.37 3.057,2.341 5.614,2.341 2.556,0 4.741,-0.971 5.613,-2.341 -0.872,-1.369 -3.057,-2.34 -5.613,-2.34 z"
   id="path456"
   inkscape:connector-curvature="0"
   style="clip-rule:evenodd;fill:#faba2f;fill-rule:evenodd" />
		<path
   d="m 1111.513,21.472 c 0.018,1.781 0.565,3.295 1.331,3.905 0.766,-0.611 1.313,-2.125 1.331,-3.905 -0.429,-0.059 -0.874,-0.09 -1.331,-0.09 -0.457,0 -0.903,0.031 -1.331,0.09 z"
   id="path458"
   inkscape:connector-curvature="0"
   style="clip-rule:evenodd;fill:#343434;fill-rule:evenodd" />
		<path
   d="m 1094.676,21.382 c -2.557,0 -4.741,0.971 -5.613,2.34 0.873,1.37 3.057,2.341 5.613,2.341 2.556,0 4.741,-0.971 5.614,-2.341 -0.873,-1.369 -3.058,-2.34 -5.614,-2.34 z"
   id="path460"
   inkscape:connector-curvature="0"
   style="clip-rule:evenodd;fill:#faba2f;fill-rule:evenodd" />
		<path
   d="m 1093.345,21.472 c 0.018,1.781 0.565,3.295 1.331,3.905 0.766,-0.611 1.313,-2.125 1.331,-3.905 -0.428,-0.059 -0.874,-0.09 -1.331,-0.09 -0.457,0 -0.903,0.031 -1.331,0.09 z"
   id="path462"
   inkscape:connector-curvature="0"
   style="clip-rule:evenodd;fill:#343434;fill-rule:evenodd" />
		<path
   d="m 1104.355,33.487 c -0.01,-0.328 -0.276,-0.59 -0.604,-0.585 -0.328,0.005 -0.591,0.276 -0.585,0.603 0.056,3.292 -1.204,5.35 -2.846,6.359 -0.674,0.415 -1.411,0.655 -2.143,0.732 -0.734,0.078 -1.465,-0.005 -2.125,-0.237 -1.321,-0.463 -2.364,-1.533 -2.576,-3.107 -0.044,-0.326 -0.344,-0.554 -0.669,-0.511 -0.326,0.044 -0.555,0.344 -0.511,0.67 0.278,2.066 1.641,3.468 3.364,4.072 0.825,0.289 1.731,0.394 2.638,0.297 0.91,-0.096 1.819,-0.391 2.646,-0.9 1.965,-1.207 3.476,-3.609 3.411,-7.393 z"
   id="path464"
   inkscape:connector-curvature="0"
   style="fill:#343434" />
		<path
   d="m 1104.358,33.506 c 0.01,-0.328 -0.257,-0.598 -0.585,-0.603 -0.328,-0.005 -0.599,0.257 -0.604,0.585 -0.065,3.784 1.446,6.186 3.411,7.394 0.827,0.509 1.736,0.804 2.646,0.9 0.907,0.097 1.814,-0.008 2.639,-0.297 1.724,-0.604 3.085,-2.006 3.364,-4.072 0.044,-0.326 -0.185,-0.626 -0.511,-0.67 -0.325,-0.043 -0.625,0.185 -0.669,0.511 -0.211,1.574 -1.255,2.644 -2.576,3.107 -0.661,0.232 -1.391,0.315 -2.126,0.237 -0.732,-0.078 -1.468,-0.318 -2.142,-0.732 -1.642,-1.01 -2.903,-3.068 -2.847,-6.36 z"
   id="path466"
   inkscape:connector-curvature="0"
   style="fill:#343434" />
		<g
   id="g470">
			<path
   d="m 1107.04,34.136 c 0.515,-0.814 0.877,-1.733 1.05,-2.718 -0.039,-0.029 -0.08,-0.056 -0.12,-0.084 l -0.018,-0.012 c -0.036,-0.024 -0.072,-0.048 -0.108,-0.073 l -0.036,-0.023 c -0.031,-0.021 -0.063,-0.041 -0.096,-0.062 l -0.038,-0.023 c -0.035,-0.022 -0.07,-0.043 -0.106,-0.064 l -0.038,-0.022 c -0.037,-0.022 -0.073,-0.044 -0.111,-0.064 l -0.031,-0.017 c -0.037,-0.021 -0.073,-0.041 -0.11,-0.061 l -0.03,-0.017 c -0.037,-0.019 -0.073,-0.038 -0.11,-0.057 l -0.039,-0.02 -0.06,-0.03 0.06,0.03 -0.06,-0.03 v 3.347 z m -3.519,-4.13 h -0.016 c -0.053,0.002 -0.106,0.004 -0.158,0.005 l -0.011,0.001 c -0.055,0.003 -0.109,0.005 -0.163,0.009 l -0.016,10e-4 c -0.049,0.004 -0.098,0.008 -0.148,0.012 l -0.026,0.003 c -0.049,0.004 -0.098,0.009 -0.146,0.015 l -0.017,0.002 c -0.054,0.005 -0.106,0.013 -0.16,0.02 l -0.01,10e-4 c -0.05,0.007 -0.099,0.014 -0.149,0.022 l -0.028,0.004 c -0.047,0.007 -0.093,0.015 -0.14,0.023 l -0.02,0.004 c -0.048,0.009 -0.098,0.019 -0.146,0.029 l -0.033,0.006 c -0.042,0.01 -0.083,0.019 -0.125,0.028 l -0.034,0.008 c -0.044,0.01 -0.087,0.02 -0.131,0.031 l -0.029,0.007 c -0.046,0.012 -0.09,0.023 -0.135,0.036 l -0.031,0.009 c -0.04,0.011 -0.08,0.022 -0.119,0.034 l -0.038,0.012 c -0.039,0.012 -0.078,0.024 -0.116,0.036 l -0.053,0.018 c -0.036,0.012 -0.072,0.023 -0.107,0.036 l -0.049,0.017 c -0.034,0.012 -0.068,0.024 -0.102,0.037 l -0.05,0.019 c -0.035,0.013 -0.07,0.027 -0.105,0.041 l -0.056,0.022 c -0.033,0.013 -0.066,0.027 -0.099,0.041 l -0.045,0.019 c -0.032,0.013 -0.065,0.028 -0.099,0.043 l -0.058,0.026 c -0.031,0.014 -0.063,0.03 -0.095,0.044 l -0.056,0.028 c -0.03,0.014 -0.058,0.029 -0.088,0.043 l -0.052,0.026 -0.082,0.043 -0.08,0.042 -0.064,0.035 -0.073,0.041 -0.074,0.042 -0.065,0.039 -0.065,0.039 c -0.027,0.016 -0.054,0.033 -0.08,0.05 l -0.061,0.039 -0.067,0.043 -0.073,0.048 -0.049,0.033 c 0.408,2.533 2.075,4.644 4.338,5.673 1.349,-0.613 2.486,-1.612 3.272,-2.854 v -3.349 l -0.06,-0.03 0.06,0.03 -0.06,-0.03 -0.031,-0.014 c -0.038,-0.019 -0.077,-0.037 -0.116,-0.055 l -0.028,-0.012 c -0.04,-0.019 -0.082,-0.036 -0.122,-0.054 l -0.024,-0.011 c -0.042,-0.019 -0.084,-0.036 -0.127,-0.053 l -0.036,-0.015 c -0.042,-0.016 -0.083,-0.032 -0.126,-0.049 l -0.024,-0.008 c -0.043,-0.017 -0.088,-0.033 -0.132,-0.048 l -0.019,-0.007 c -0.047,-0.016 -0.094,-0.032 -0.141,-0.047 l -0.01,-0.004 -0.01,-0.002 c -0.049,-0.015 -0.098,-0.031 -0.147,-0.046 l -0.022,-0.006 c -0.045,-0.014 -0.09,-0.027 -0.136,-0.04 l -0.023,-0.006 c -0.048,-0.013 -0.096,-0.026 -0.144,-0.039 l -0.011,-0.003 c -0.051,-0.012 -0.102,-0.025 -0.154,-0.038 l -0.01,-0.001 -0.01,-0.002 c -0.048,-0.012 -0.097,-0.022 -0.145,-0.032 l -0.027,-0.005 c -0.047,-0.01 -0.093,-0.019 -0.14,-0.028 l -0.021,-0.004 c -0.051,-0.009 -0.101,-0.018 -0.152,-0.026 l -0.01,-0.001 v 0 c -0.054,-0.009 -0.107,-0.017 -0.161,-0.024 l -0.013,-0.002 c -0.052,-0.007 -0.103,-0.014 -0.155,-0.02 l -0.014,-0.002 c -0.054,-0.006 -0.108,-0.012 -0.162,-0.016 l -0.01,-0.001 c -0.056,-0.005 -0.112,-0.01 -0.168,-0.013 l -0.01,-0.001 c -0.054,-0.004 -0.108,-0.006 -0.162,-0.009 l -0.014,-10e-4 c -0.053,-0.002 -0.106,-0.004 -0.159,-0.005 h -0.013 c -0.057,-0.002 -0.114,-0.003 -0.171,-0.003 -0.057,-10e-4 -0.112,-10e-4 -0.168,0.001 z"
   id="path468"
   inkscape:connector-curvature="0"
   style="clip-rule:evenodd;fill:#343434;fill-rule:evenodd" />
		</g>
		<g
   id="g484">
			<path
   d="m 1098.609,33.05 c 0.248,0.154 0.574,0.078 0.728,-0.17 0.154,-0.247 0.078,-0.573 -0.169,-0.726 -2.479,-1.551 -5.081,-2.727 -7.805,-3.534 -2.719,-0.806 -5.559,-1.24 -8.519,-1.308 -0.291,-0.005 -0.531,0.226 -0.537,0.517 -0.01,0.291 0.226,0.531 0.516,0.537 2.861,0.065 5.609,0.486 8.242,1.266 2.629,0.779 5.145,1.917 7.544,3.418 z"
   id="path472"
   inkscape:connector-curvature="0"
   style="fill:#343434" />
			<path
   d="m 1098.328,34.048 c 0.274,0.098 0.576,-0.045 0.674,-0.319 0.098,-0.274 -0.045,-0.576 -0.319,-0.673 -2.756,-0.992 -5.548,-1.592 -8.375,-1.802 -2.829,-0.212 -5.697,-0.036 -8.602,0.525 -0.286,0.054 -0.474,0.331 -0.419,0.617 0.055,0.287 0.331,0.475 0.618,0.42 2.812,-0.543 5.587,-0.714 8.325,-0.509 2.739,0.203 5.439,0.784 8.098,1.741 z"
   id="path474"
   inkscape:connector-curvature="0"
   style="fill:#343434" />
			<path
   d="m 1098.266,35.083 c 0.288,0.039 0.552,-0.166 0.59,-0.454 0.038,-0.288 -0.166,-0.553 -0.454,-0.591 -2.901,-0.386 -5.756,-0.38 -8.566,0.013 -2.811,0.392 -5.577,1.172 -8.297,2.334 -0.268,0.114 -0.393,0.423 -0.279,0.692 0.114,0.268 0.424,0.393 0.692,0.278 2.635,-1.125 5.311,-1.88 8.028,-2.26 2.719,-0.378 5.481,-0.385 8.286,-0.012 z"
   id="path476"
   inkscape:connector-curvature="0"
   style="fill:#343434" />
			<path
   d="m 1108.343,32.154 c -0.248,0.153 -0.324,0.479 -0.169,0.726 0.153,0.248 0.479,0.324 0.726,0.17 2.401,-1.501 4.917,-2.639 7.545,-3.418 2.634,-0.78 5.383,-1.201 8.243,-1.266 0.29,-0.006 0.521,-0.246 0.516,-0.537 0,-0.291 -0.245,-0.522 -0.536,-0.517 -2.96,0.068 -5.801,0.502 -8.52,1.308 -2.724,0.807 -5.326,1.983 -7.805,3.534 z"
   id="path478"
   inkscape:connector-curvature="0"
   style="fill:#343434" />
			<path
   d="m 1108.827,33.056 c -0.274,0.098 -0.416,0.399 -0.319,0.673 0.098,0.274 0.4,0.416 0.673,0.319 2.66,-0.957 5.36,-1.537 8.099,-1.741 2.737,-0.204 5.513,-0.034 8.326,0.509 0.286,0.055 0.562,-0.133 0.617,-0.42 0.055,-0.286 -0.132,-0.563 -0.419,-0.617 -2.905,-0.56 -5.772,-0.736 -8.602,-0.525 -2.828,0.21 -5.619,0.81 -8.375,1.802 z"
   id="path480"
   inkscape:connector-curvature="0"
   style="fill:#343434" />
			<path
   d="m 1109.109,34.038 c -0.288,0.038 -0.491,0.303 -0.454,0.591 0.038,0.288 0.302,0.492 0.591,0.454 2.804,-0.373 5.566,-0.366 8.284,0.013 2.717,0.38 5.394,1.134 8.028,2.26 0.269,0.115 0.578,-0.011 0.692,-0.278 0.115,-0.269 -0.011,-0.578 -0.278,-0.692 -2.72,-1.162 -5.485,-1.942 -8.297,-2.334 -2.81,-0.394 -5.665,-0.4 -8.566,-0.014 z"
   id="path482"
   inkscape:connector-curvature="0"
   style="fill:#343434" />
		</g>
	</g>
	<g
   id="g496">
		<path
   d="m 1148.214,105.591 c -8.214,4.357 -21.504,4.425 -33.821,1.637 0.65,-2.309 1.672,-4.644 3.593,-7.648 8.46,5.442 17.727,3.968 25.729,1.441 2.325,-0.735 3.707,1.307 4.499,4.57 z"
   id="path488"
   inkscape:connector-curvature="0"
   style="clip-rule:evenodd;fill:#a7bfe4;fill-rule:evenodd" />
		<path
   d="m 1124.212,77.03 c 0.498,14.071 -11.878,51.311 -10.153,58.87 0.698,3.064 2.787,2.142 2.959,6.199 0.219,5.177 -10.98,5.592 -10.316,-0.755 0.312,-2.982 2.727,-3.427 3.042,-4.878 0.863,-3.968 -6.452,-59.243 -8.178,-66.235 -1.725,-6.99 21.993,-11.673 22.646,6.799 z"
   id="path490"
   inkscape:connector-curvature="0"
   style="clip-rule:evenodd;fill:#6a8bc7;fill-rule:evenodd" />
		<path
   d="m 1106.351,103.162 c 4.635,-8.277 9.271,-20.197 -2.317,-19.865 -11.588,0.331 -6.953,10.264 2.317,19.865 z"
   id="path492"
   inkscape:connector-curvature="0"
   style="clip-rule:evenodd;fill:#a7bfe4;fill-rule:evenodd" />
		<path
   d="m 1146.742,74.747 c 8.325,5.37 8.453,16.788 5.811,29.223 -2.641,12.434 6.34,29.844 4.226,36.683 -2.112,6.839 -14.346,3.4 -8.98,-0.621 5.663,-4.244 1.585,-6.839 -3.698,-14.301 -5.283,-7.461 -18.488,-16.072 -12.966,-38.693 2.933,-12.02 10.929,-15.308 15.607,-12.291 z"
   id="path494"
   inkscape:connector-curvature="0"
   style="clip-rule:evenodd;fill:#6a8bc7;fill-rule:evenodd" />
	</g>
</g>
<g
   id="g500"
   transform="translate(-1076.6898,-4.6808638)">
</g>
<g
   id="g502"
   transform="translate(-1076.6898,-4.6808638)">
</g>
<g
   id="g504"
   transform="translate(-1076.6898,-4.6808638)">
</g>
<g
   id="g506"
   transform="translate(-1076.6898,-4.6808638)">
</g>
<g
   id="g508"
   transform="translate(-1076.6898,-4.6808638)">
</g>
<g
   id="g510"
   transform="translate(-1076.6898,-4.6808638)">
</g>
</svg>