<svg xmlns="http://www.w3.org/2000/svg" width="500" height="488" viewBox="0 0 500 488" version="1.1">
	<path d="M 168.975 6.750 C 167.219 8.975, 166.918 10.326, 167.395 13.831 C 167.719 16.213, 167.505 19.057, 166.919 20.152 C 166.165 21.561, 166.167 23.040, 166.926 25.219 C 167.699 27.435, 167.690 28.669, 166.894 29.627 C 166.138 30.539, 166.096 31.836, 166.761 33.745 C 167.316 35.337, 167.600 46.142, 167.424 58.957 C 167.119 81.227, 167.101 81.391, 164.808 82.575 C 163.539 83.231, 160.475 84.079, 158 84.459 C 144.957 86.464, 130.777 91.804, 119.373 99.006 C 115.895 101.203, 112.341 103, 111.475 103 C 110.609 103, 108.686 103.613, 107.200 104.362 C 105.715 105.111, 101.915 105.978, 98.755 106.289 C 91.335 107.019, 84.697 110.315, 78.712 116.241 C 76.078 118.848, 72.928 121.235, 71.712 121.546 C 70.495 121.857, 68.209 123.921, 66.630 126.132 C 62.745 131.575, 63.231 137.320, 68.228 145.009 C 70.190 148.029, 72.104 152.300, 72.482 154.500 C 72.860 156.700, 74.251 159.926, 75.574 161.669 C 77.909 164.747, 77.947 165.081, 76.872 173.169 C 75.170 185.988, 75.041 186.066, 67.700 178.736 C 62.270 173.315, 56.519 168.114, 44.770 158 C 43.172 156.625, 40.463 154.037, 38.749 152.250 C 37.035 150.463, 34.992 149, 34.210 149 C 33.428 149, 31.452 147.875, 29.818 146.500 C 28.184 145.125, 25.938 144, 24.828 144 C 23.717 144, 21.389 142.988, 19.654 141.750 C 15.785 138.990, 7.835 138.737, 5.279 141.293 C 3.752 142.819, 3.773 143.091, 5.564 145.071 C 8.197 147.980, 12.042 149.846, 16.306 150.283 C 18.268 150.484, 20.463 151.126, 21.186 151.709 C 21.909 152.292, 24.075 153.105, 26 153.515 C 27.925 153.925, 30.573 155.102, 31.885 156.130 C 33.197 157.159, 34.724 158, 35.280 158 C 35.835 158, 37.237 158.926, 38.395 160.057 C 39.553 161.189, 43.200 164.197, 46.500 166.742 C 52.475 171.351, 57.731 175.826, 65.678 183.074 C 69.719 186.759, 76.387 189.457, 79.818 188.797 C 82.068 188.363, 84.241 183.548, 84.797 177.759 C 85.049 175.142, 85.591 173, 86.003 173 C 86.415 173, 88.495 175.019, 90.626 177.486 C 92.757 179.954, 95.063 181.979, 95.750 181.986 C 96.438 181.994, 97 182.450, 97 183 C 97 183.550, 97.900 184, 99 184 C 100.100 184, 101 184.367, 101 184.816 C 101 185.975, 108.762 190.272, 113.500 191.735 C 118.656 193.327, 125.007 193.333, 128.635 191.750 C 130.211 191.063, 134.152 188.526, 137.393 186.113 L 143.285 181.726 145.158 184.113 C 148.254 188.060, 149.850 192.103, 151.484 200.144 C 152.338 204.348, 154.406 210.354, 156.079 213.489 C 158.977 218.919, 159.036 219.257, 157.311 220.589 C 156.315 221.359, 154.600 221.794, 153.500 221.558 C 152.400 221.321, 142.950 221.042, 132.500 220.938 C 122.050 220.834, 111.475 220.328, 109 219.813 C 106.525 219.299, 99.775 218.701, 94 218.484 C 84.331 218.121, 70.475 215.395, 65.926 212.960 C 64.740 212.326, 63.843 212.484, 63.022 213.473 C 61.441 215.379, 62.705 219.327, 64.658 218.578 C 65.470 218.266, 68.154 218.931, 70.622 220.056 C 73.120 221.194, 75.972 221.826, 77.055 221.483 C 78.232 221.109, 79 221.331, 79 222.046 C 79 222.789, 80.112 223.064, 82 222.787 C 83.650 222.545, 85 222.654, 85 223.030 C 85 223.406, 88.487 224.011, 92.750 224.375 C 108.304 225.700, 112.540 226.310, 114.500 227.508 C 121.119 231.553, 139.554 232.017, 149.749 228.395 L 154.844 226.586 156.841 229.043 C 158.387 230.945, 158.733 232.516, 158.375 236 C 158.020 239.451, 158.368 241.074, 159.870 242.962 C 161.551 245.075, 162.841 245.482, 168.958 245.828 C 174.651 246.149, 176.465 245.889, 177.959 244.537 C 179.747 242.919, 180.160 243.193, 187.245 250.672 C 202.026 266.278, 202 266.244, 202 269.625 C 202 271.390, 201.607 272.983, 201.126 273.167 C 200.645 273.350, 197.706 276.650, 194.593 280.500 C 188.263 288.330, 181.965 300.354, 181.567 305.368 C 181.252 309.330, 176.922 317.563, 172.333 322.925 C 170.500 325.066, 169 327.293, 169 327.874 C 169 328.454, 168.100 329.411, 167 330 C 165.900 330.589, 165 331.431, 165 331.871 C 165 333.109, 153.298 345, 152.079 345 C 150.174 345, 150.928 348.891, 153.055 350.030 C 154.763 350.944, 155.420 350.738, 156.944 348.815 C 157.953 347.542, 159.840 345.334, 161.139 343.909 C 162.437 342.483, 164.850 339.598, 166.500 337.497 C 168.150 335.396, 170.454 332.737, 171.620 331.589 C 172.786 330.440, 176.292 324.929, 179.410 319.341 C 182.529 313.754, 185.702 308.945, 186.461 308.653 C 188.442 307.893, 195.228 298.517, 198.876 291.500 C 200.592 288.200, 201.997 286.331, 201.998 287.346 C 202.004 292.655, 208.216 297.356, 211.235 294.337 C 211.984 293.588, 214.860 292.816, 217.627 292.623 C 222.423 292.287, 227.303 290.065, 229.530 287.205 C 230.306 286.208, 231.225 286.135, 233.261 286.909 C 235.582 287.792, 235.880 288.350, 235.374 290.879 C 234.751 293.994, 236.365 300.182, 238.342 302.259 C 240.067 304.071, 241.964 308.703, 241.266 309.400 C 240.937 309.730, 239.911 310, 238.988 310 C 237.071 310, 234 313.034, 234 314.928 C 234 315.626, 234.721 317.841, 235.602 319.849 C 236.483 321.857, 237.582 324.400, 238.045 325.500 C 238.507 326.600, 239.144 331.775, 239.461 337 C 240.085 347.297, 243.845 361.434, 246.472 363.357 C 249.073 365.262, 250.077 375.718, 249.386 393.710 C 249.031 402.945, 248.818 412.296, 248.912 414.491 C 249.165 420.368, 247.111 428, 245.278 428 C 244.038 428, 243.986 428.278, 245 429.500 C 245.685 430.325, 247.652 431, 249.372 431 L 252.500 431 252.607 424.750 C 252.667 421.313, 253.042 408.375, 253.442 396 C 253.902 381.772, 253.799 371.892, 253.163 369.125 C 252.502 366.251, 252.493 364.012, 253.138 362.597 C 254.190 360.288, 253.069 354.057, 248.634 337.566 C 246.341 329.039, 246.312 328.562, 248.003 327.066 C 250.023 325.280, 251.985 319.941, 252.032 316.101 C 252.049 314.670, 252.724 312.626, 253.532 311.559 C 254.564 310.194, 255 307.010, 255 300.840 C 255 292.910, 255.169 292.123, 256.750 292.686 C 257.712 293.029, 259.400 294.347, 260.500 295.616 C 262.214 297.592, 271.275 300.708, 276.784 301.215 C 277.490 301.280, 279.135 302.322, 280.439 303.531 C 281.743 304.740, 284.203 306.721, 285.905 307.933 C 289.561 310.536, 289.867 312.708, 286.750 313.934 C 282.720 315.520, 274.443 326.067, 273.359 331 C 271.934 337.482, 272.397 362.004, 274 365 C 274.710 366.327, 276.134 370.784, 277.163 374.904 C 279.089 382.610, 280.661 385.474, 294.014 405.602 C 302.431 418.290, 325.876 443.098, 336.941 451.022 C 340.379 453.485, 345.638 457.448, 348.627 459.830 C 354.144 464.226, 371.367 472, 375.589 472 C 378.415 472, 386.720 473.662, 394.262 475.738 C 400.772 477.530, 402.583 477.578, 423.588 476.518 C 434.910 475.946, 439.253 476.065, 440.989 476.994 C 443.076 478.111, 443.231 478.049, 442.569 476.366 C 440.810 471.895, 441.385 467.152, 445.199 454.658 C 448.573 443.609, 449.226 440.057, 449.272 432.500 C 449.358 418.593, 448.017 401.118, 446.363 394.596 C 444.996 389.209, 439.599 377.658, 433.700 367.500 C 432.423 365.300, 429.567 360.115, 427.353 355.978 C 425.140 351.841, 419.880 343.700, 415.664 337.887 C 411.449 332.075, 408 327.022, 408 326.659 C 408 326.297, 407.212 325.159, 406.250 324.130 C 405.287 323.102, 403.263 320.893, 401.751 319.221 C 392.667 309.177, 366.945 289.299, 357.192 284.784 C 353.692 283.164, 350.610 282.057, 350.343 282.323 C 350.077 282.590, 348.817 282.268, 347.544 281.607 C 342.877 279.186, 327.867 280.893, 321.089 284.616 L 316.678 287.039 313.880 283.770 C 312.341 281.971, 311.085 280.275, 311.089 280 C 311.093 279.725, 315.843 277.260, 321.644 274.522 C 328.486 271.293, 334.836 267.346, 339.721 263.285 C 346.348 257.775, 351.675 255.024, 355.750 255.006 C 356.438 255.003, 357 254.401, 357 253.669 C 357 252.937, 358.064 251.768, 359.365 251.072 C 361.509 249.925, 362.887 250.434, 374.115 256.519 C 380.927 260.210, 388.429 264.710, 390.788 266.517 C 395.293 269.970, 407.306 273.656, 410.678 272.621 C 412.992 271.911, 415.824 272.612, 435.877 278.859 C 444.884 281.665, 452.581 283.759, 452.980 283.512 C 453.379 283.266, 460.745 282.937, 469.349 282.782 C 483.692 282.523, 484.993 282.349, 484.996 280.684 C 485.003 277.499, 483.022 274.736, 481.587 275.928 C 479.666 277.522, 469.446 278.651, 457.855 278.550 C 448.210 278.466, 446.335 278.089, 430.500 273.047 C 416.165 268.483, 412.324 266.820, 406 262.437 C 390.611 251.773, 372.756 245.062, 361 245.522 C 358.525 245.620, 355.947 245.270, 355.272 244.745 C 354.435 244.095, 349.333 245.782, 339.272 250.036 C 320.027 258.172, 315.666 260.417, 302.594 268.912 C 296.596 272.810, 291.340 276, 290.915 276 C 290.490 276, 289.532 275.389, 288.785 274.642 C 288.038 273.895, 285.761 272.681, 283.725 271.945 C 280.324 270.715, 279.782 270.785, 277.052 272.803 C 273.255 275.611, 272.181 275.569, 271.432 272.585 C 269.914 266.536, 277.461 258.451, 283.750 259.389 C 286.814 259.847, 288.118 258.809, 286.069 257.543 C 285.557 257.226, 283.656 253.039, 281.843 248.236 C 280.031 243.434, 277.143 237.929, 275.426 236.003 C 272.181 232.362, 267.122 218.459, 269.345 219.291 C 269.980 219.529, 271.400 219.402, 272.500 219.010 C 274.238 218.391, 273.943 218.013, 270.250 216.128 C 267.913 214.935, 266 213.856, 266.001 213.730 C 266.012 210.467, 269.627 197.739, 271.132 195.663 C 272.272 194.091, 272.963 191.965, 272.682 190.893 C 272.404 189.830, 272.891 187.140, 273.765 184.916 C 275.311 180.981, 275.281 180.729, 272.635 175.504 C 271.140 172.551, 269.770 168.506, 269.592 166.514 C 269.200 162.145, 271.573 150.219, 273.233 148.219 C 274.181 147.077, 274.036 146.500, 272.521 145.392 C 269.029 142.838, 267.244 143.622, 267.153 147.750 C 267.108 149.813, 266.605 153.072, 266.035 154.993 C 264.684 159.552, 264.716 166.886, 266.104 170.868 C 266.997 173.431, 266.902 174.501, 265.604 176.482 C 263.394 179.855, 263.597 182.604, 266.190 184.420 C 268.313 185.908, 268.043 187.500, 265.667 187.500 C 265.025 187.500, 263.839 189.412, 263.031 191.750 C 262.223 194.088, 260.991 196, 260.293 196 C 259.596 196, 257.957 194.312, 256.652 192.250 C 254.079 188.184, 244.334 179.004, 242.581 178.994 C 241.986 178.991, 239.099 176.558, 236.165 173.587 C 231.543 168.907, 230.975 167.915, 231.915 166.159 C 233.202 163.754, 233.351 160, 232.159 160 C 231.697 160, 229.517 158.234, 227.315 156.076 C 222.972 151.818, 213.708 148.363, 204.746 147.658 C 201.208 147.380, 199.375 146.618, 197.576 144.677 C 196.247 143.242, 193.126 141.557, 190.641 140.931 C 188.156 140.306, 185.478 139.053, 184.689 138.147 C 182.874 136.064, 180.732 127.045, 181.168 123.326 C 181.457 120.870, 181.129 120.457, 178.666 120.175 C 177.107 119.997, 175.125 120.122, 174.262 120.453 C 172.890 120.979, 172.924 121.224, 174.530 122.398 C 175.541 123.137, 176.469 125.201, 176.592 126.985 C 176.716 128.769, 177.360 133.108, 178.024 136.628 C 179.383 143.829, 181.987 146.589, 187.967 147.171 C 189.825 147.352, 191.531 148.063, 191.756 148.750 C 192.053 149.654, 190.551 150, 186.327 150 C 183.115 150, 178.945 150.442, 177.060 150.983 C 175.175 151.523, 173.518 151.851, 173.378 151.711 C 173.238 151.572, 173.835 149.297, 174.704 146.656 C 176.084 142.466, 176.112 141.135, 174.926 136.193 C 173.778 131.408, 172.632 129.599, 167.523 124.516 C 161.406 118.428, 148.129 109.887, 140.606 107.200 C 138.347 106.393, 133.012 105.511, 128.750 105.238 C 124.487 104.966, 121 104.325, 121 103.815 C 121 102.688, 134.233 96.553, 140.028 94.993 C 142.321 94.375, 148.889 93.494, 154.621 93.035 C 161 92.525, 165.948 91.609, 167.374 90.674 C 170.631 88.540, 170.982 85.763, 172.512 50 C 173.457 27.908, 173.803 24.600, 176.131 15.417 C 176.945 12.206, 176.839 10.551, 175.634 7.667 C 173.806 3.292, 171.910 3.031, 168.975 6.750" fill="none" stroke="#000" stroke-width="2px" fill-rule="evenodd"/>
</svg>
