<svg xmlns="http://www.w3.org/2000/svg" width="500" height="469" viewBox="0 0 500 469" version="1.1">
	<path d="M 303.344 6.545 C 302.226 9.460, 304.112 20.087, 308.180 33.786 C 310.420 41.329, 313.937 53.575, 315.995 61 C 318.053 68.425, 324.709 90.925, 330.786 111 C 347.075 164.813, 347.945 168.760, 354.029 216.500 C 356.202 233.550, 358.224 248.536, 358.522 249.802 C 358.866 251.261, 358.320 253.049, 357.032 254.686 C 355.914 256.107, 354.982 257.772, 354.959 258.385 C 354.937 258.998, 353.587 261.058, 351.959 262.962 C 350.332 264.866, 349 267.004, 349 267.712 C 349 269.698, 345.950 269.248, 340.788 266.500 C 337.813 264.916, 334.468 264, 331.662 264 C 328.140 264, 327.131 263.608, 326.733 262.086 C 326.457 261.033, 324.717 259.391, 322.866 258.438 C 321.015 257.485, 317.700 255.281, 315.500 253.542 C 309.320 248.654, 306.294 247, 303.535 247 C 301.489 247, 301 246.512, 301 244.468 C 301 240.957, 298.706 235.883, 296.045 233.511 C 291.222 229.211, 291.370 228.657, 299.933 218.954 C 309.174 208.483, 310.287 205.444, 307.140 199.274 C 304.843 194.772, 300.722 192.530, 296.633 193.556 C 295.162 193.925, 291.263 195.969, 287.968 198.099 C 278.438 204.259, 274 206.320, 274 204.588 C 274 203.789, 273.181 202.875, 272.179 202.557 C 271.178 202.239, 268.346 200.703, 265.886 199.143 C 262.376 196.916, 260.347 194.393, 256.457 187.411 C 250.855 177.358, 236.889 162.429, 222 150.576 C 210.234 141.209, 185.334 124.837, 175.104 119.741 C 164.887 114.651, 160.585 110.498, 157.246 102.500 C 154.303 95.450, 147.862 70.777, 141.452 42 C 138.941 30.725, 136.663 20.736, 136.392 19.801 C 135.582 17.016, 132.043 16.513, 129.706 18.850 L 127.646 20.909 136.393 58.241 C 141.204 78.774, 145.221 97.807, 145.320 100.537 C 145.523 106.125, 146.573 105.743, 134.798 104.364 C 130.591 103.871, 123.139 104.858, 118.962 106.461 C 117.813 106.902, 117.132 105.944, 116.250 102.644 C 115.120 98.419, 110.737 92, 108.983 92 C 108.521 92, 107.476 92.667, 106.661 93.482 C 105.351 94.792, 105.401 95.550, 107.089 99.993 C 108.140 102.759, 109 106.084, 109 107.382 C 109 109.474, 108.404 109.821, 103.750 110.438 C 100.862 110.821, 95.445 112.418, 91.711 113.986 C 86.478 116.185, 84.261 116.648, 82.033 116.009 C 78.151 114.896, 71.345 116.520, 66.818 119.640 C 62.738 122.452, 60.094 122.228, 56.289 118.748 C 54.568 117.173, 53.260 116.858, 50.376 117.326 C 48.339 117.657, 46.231 118.369, 45.692 118.908 C 43.777 120.823, 47.276 126.072, 55.941 134.283 C 63.527 141.472, 64.900 143.313, 66.922 149 C 74.303 169.765, 86.484 186.584, 114.102 214.149 L 131.784 231.797 125.642 233.502 C 104.189 239.459, 79.838 250.228, 50.352 266.801 C 40.534 272.320, 28.225 278.840, 23 281.290 C 16.863 284.168, 12.125 287.182, 9.615 289.803 L 5.730 293.861 10.615 295.292 L 15.500 296.723 21 293.189 C 33.379 285.234, 42.299 280.289, 57.500 272.955 C 75.836 264.108, 103.462 252.946, 113 250.531 C 116.575 249.626, 122.043 247.336, 125.151 245.443 C 128.259 243.549, 131.747 242, 132.902 242 C 134.057 242, 138.715 243.912, 143.251 246.250 C 152.889 251.216, 165.287 262.801, 168.668 270 C 171.391 275.801, 173.093 277.226, 181.078 280.392 C 189.150 283.592, 200.290 284.091, 201.840 281.321 C 202.563 280.030, 204.422 279.594, 209.890 279.433 C 213.993 279.312, 217 279.637, 217 280.201 C 217 280.738, 210.762 291.150, 203.139 303.339 C 178.524 342.692, 155.732 385.958, 152.232 399.975 C 151.069 404.636, 150.271 408.604, 150.460 408.793 C 150.648 408.982, 152.516 406.555, 154.610 403.401 C 156.704 400.246, 160.318 396.325, 162.641 394.688 C 165.924 392.373, 167.227 390.574, 168.494 386.605 C 171.108 378.418, 193.261 334.488, 200.693 322.753 C 204.437 316.842, 211.094 306.942, 215.487 300.753 L 223.474 289.500 224.034 294.262 C 224.745 300.306, 226.645 302.167, 232.675 302.728 C 236.767 303.108, 238.148 302.738, 241.764 300.291 C 245.964 297.449, 246.160 297.419, 254.764 298.247 C 260.490 298.798, 264.291 298.728, 265.797 298.044 C 269.138 296.526, 272 296.758, 272 298.548 C 272 299.399, 273.106 301.120, 274.457 302.372 C 277.038 304.764, 277.863 309.328, 276.573 314.070 C 275.950 316.359, 276.314 316.838, 279.914 318.461 C 282.137 319.464, 284.221 321.122, 284.547 322.147 C 285.536 325.266, 290.063 330, 292.054 330 C 293.086 330, 295.409 328.712, 297.215 327.139 C 304.266 320.997, 311.653 319.279, 315.973 322.777 C 317.729 324.199, 318.648 327.146, 320.572 337.527 C 325.350 363.298, 329.564 392.552, 333.428 426.771 C 335.762 447.437, 335.916 448.140, 338.819 451.447 C 340.463 453.320, 342.112 456.235, 342.484 457.926 C 343.391 462.058, 345 461.835, 345 457.577 C 345 455.381, 344.100 453.084, 342.490 451.171 C 340.107 448.338, 340.038 447.919, 341.128 442.844 C 342.650 435.761, 341.783 421.286, 338.083 391.969 C 335.019 367.694, 331.475 345.391, 327.996 328.482 C 326.898 323.146, 326 318.663, 326 318.520 C 326 317.525, 348.830 313.821, 359.390 313.102 C 373.267 312.158, 392.643 313.222, 396.295 315.129 C 401.895 318.054, 412.365 327.866, 432.742 349.286 C 466.017 384.264, 472 391.688, 472 397.999 C 472 400.551, 474.512 401.650, 476.527 399.978 C 478.381 398.439, 485.732 399.293, 490.110 401.557 C 493.431 403.274, 494.583 402.960, 493.672 400.586 C 493.355 399.762, 489.970 398.137, 486.150 396.977 C 479.291 394.893, 479.190 394.813, 478.105 390.504 C 476.850 385.518, 472.309 379.579, 455.382 360.785 C 448.944 353.636, 440.748 344.122, 437.170 339.644 C 433.592 335.165, 424.816 325.310, 417.668 317.743 C 400.841 299.931, 398.048 298.402, 383 298.771 C 377.225 298.913, 366.875 298.741, 360 298.390 L 347.500 297.751 351.487 294.626 C 367.772 281.861, 379.915 266.064, 384.036 252.282 C 385.863 246.174, 384.557 245, 375.939 245 L 369.123 245 368.516 240.250 C 364.100 205.644, 352.362 158.431, 337.002 113.500 C 332.793 101.188, 322.800 68.010, 319.050 53.895 C 317.354 47.512, 314.586 38.512, 312.899 33.895 C 311.078 28.909, 309.470 22.004, 308.939 16.891 C 308.448 12.156, 307.762 7.544, 307.416 6.641 C 306.620 4.568, 304.126 4.508, 303.344 6.545" fill="none" stroke="#000" stroke-width="2px" fill-rule="evenodd"/>
</svg>
