<svg xmlns="http://www.w3.org/2000/svg" width="251" height="248" viewBox="0 0 251 248" version="1.1">
	<path d="M 104 1.345 C 104 2.085, 103.128 3.479, 102.062 4.444 C 100.458 5.896, 100.165 7.346, 100.364 12.874 C 100.497 16.547, 100.920 20.062, 101.306 20.685 C 101.691 21.309, 101.725 22.552, 101.382 23.447 C 101.029 24.367, 101.529 25.928, 102.534 27.037 C 103.511 28.117, 103.838 29, 103.262 29 C 101.228 29, 101.105 32.006, 102.912 37.486 L 104.740 43.027 102.361 43.624 C 100.949 43.979, 99.734 45.211, 99.371 46.656 C 98.472 50.241, 99.584 66.880, 101.051 71.777 C 101.749 74.107, 102.033 76.300, 101.683 76.651 C 101.332 77.001, 96.973 74.707, 91.996 71.552 C 87.019 68.397, 82.297 65.720, 81.502 65.603 C 80.708 65.487, 79.745 65.078, 79.362 64.696 C 78.092 63.425, 76.969 63.973, 75.860 66.407 C 74.799 68.736, 74.408 68.814, 63.845 68.815 C 57.840 68.815, 52.381 69.247, 51.714 69.774 C 51.046 70.301, 47.054 70.979, 42.841 71.282 C 38.629 71.584, 34.241 72.336, 33.091 72.951 C 30.440 74.370, 30.392 77.604, 33 79 C 35.236 80.197, 35.666 79.099, 33.750 77.088 C 32.729 76.015, 32.939 75.908, 34.901 76.503 C 36.883 77.104, 37.190 76.939, 36.661 75.558 C 36.071 74.022, 37.656 73.910, 55.980 74.192 C 75.114 74.487, 75.850 74.572, 73.721 76.228 C 71.182 78.203, 72.693 78.553, 76.424 76.853 C 79.099 75.634, 78.604 75.501, 96 82.113 L 103.500 84.964 103.769 89.611 L 104.038 94.258 100.769 93.556 C 88.569 90.936, 83.948 91.194, 68.529 95.351 C 63.193 96.789, 59.639 98.398, 57.779 100.216 C 56.251 101.710, 55 103.191, 55 103.507 C 55 103.823, 54.116 105.300, 53.035 106.790 C 51.954 108.281, 50.595 111.666, 50.016 114.313 C 49.437 116.961, 48.337 120.111, 47.572 121.313 C 46.780 122.558, 46.329 125.215, 46.526 127.481 C 46.728 129.817, 46.381 131.773, 45.685 132.216 C 44.903 132.713, 45.117 132.975, 46.317 132.985 C 47.652 132.996, 47.973 133.510, 47.526 134.919 C 47.090 136.292, 47.498 137.023, 48.958 137.487 C 50.081 137.843, 51 138.506, 51 138.959 C 51 139.412, 52.013 140.042, 53.250 140.359 C 54.487 140.676, 57.686 142.749, 60.359 144.967 C 63.031 147.185, 65.659 149, 66.199 149 C 66.738 149, 67.927 149.877, 68.840 150.949 C 69.753 152.021, 72.043 153.279, 73.930 153.745 L 77.359 154.591 73.677 156.763 C 71.652 157.958, 69.434 158.758, 68.748 158.541 C 68.061 158.324, 61.428 157.859, 54.006 157.508 C 43.600 157.015, 40.101 156.497, 38.713 155.241 C 37.047 153.733, 36.962 153.737, 37.561 155.299 C 38.153 156.842, 37.920 156.865, 34.814 155.567 C 32.947 154.787, 27.188 152.959, 22.016 151.505 C 16.845 150.051, 11.393 147.992, 9.902 146.930 C 8.411 145.869, 6.753 145, 6.218 145 C 5.683 145, 4.685 144.325, 4 143.500 C 2.980 142.271, 3.049 142, 4.378 142 C 5.270 142, 6 141.550, 6 141 C 6 139.400, 2.373 139.846, 0.894 141.628 C -0.281 143.044, -0.009 143.629, 2.984 146.128 C 4.876 147.707, 6.936 149, 7.562 149 C 8.188 149, 10.464 150.278, 12.619 151.839 C 16.073 154.341, 28.545 160, 30.606 160 C 31.027 160, 32.360 160.929, 33.568 162.064 C 35.985 164.335, 39.630 165.005, 51.167 165.302 C 55.383 165.411, 59.126 165.793, 59.484 166.151 C 59.842 166.508, 56.729 170.546, 52.567 175.123 C 44.855 183.604, 43.842 185.968, 46.109 190.204 C 47.083 192.023, 46.577 192.891, 41.971 197.308 C 37.404 201.687, 27.007 216.983, 27.002 219.331 C 27.001 219.787, 25.394 222.581, 23.431 225.538 C 21.468 228.495, 19.426 232.496, 18.892 234.430 C 16.877 241.726, 23.182 246.969, 32.375 245.642 C 38.495 244.759, 54.094 238.642, 60.176 234.742 C 65.792 231.140, 83.783 217.135, 92.912 209.258 C 101.484 201.863, 119.088 189, 120.638 189 C 121.416 189, 122.327 190.387, 122.667 192.086 C 123.007 193.783, 123.895 195.406, 124.642 195.693 C 125.389 195.980, 126 196.760, 126 197.427 C 126 198.094, 127.125 199.618, 128.500 200.813 C 130.890 202.891, 131.413 204.074, 131.092 206.674 C 130.923 208.047, 134.528 209.410, 135.970 208.518 C 137.370 207.653, 141.186 209.889, 140.422 211.126 C 139.806 212.122, 145.487 220.115, 147.355 220.881 C 147.865 221.090, 149.953 222.769, 151.993 224.613 C 154.033 226.456, 156.031 227.635, 156.433 227.234 C 156.835 226.832, 157.689 227.205, 158.332 228.064 C 159.414 229.509, 162.439 231.211, 164.286 231.414 C 164.719 231.461, 165.445 232.102, 165.900 232.837 C 167.171 234.895, 171.448 233.861, 171.798 231.412 C 172.112 229.219, 169.451 226.216, 168.255 227.412 C 167.872 227.795, 168.220 228.527, 169.029 229.039 C 171.219 230.424, 169.395 230.192, 165.589 228.602 C 163.485 227.723, 160.917 225.215, 158.675 221.852 C 156.713 218.908, 152.834 213.819, 150.054 210.543 C 147.274 207.267, 144.990 203.892, 144.978 203.043 C 144.930 199.696, 140.938 192.947, 136.057 187.962 C 130.480 182.266, 130.098 180.373, 134.598 180.730 C 149.649 181.924, 150.766 182.193, 152.946 185.141 C 154.120 186.729, 157.073 188.964, 159.509 190.109 C 163.440 191.957, 163.901 192.519, 163.600 195.096 C 163.415 196.693, 163.541 198.012, 163.881 198.027 C 164.222 198.042, 165.603 199.842, 166.951 202.027 C 168.299 204.212, 169.931 206, 170.579 206 C 171.226 206, 172.315 206.675, 173 207.500 C 173.685 208.325, 175.104 209, 176.154 209 C 177.204 209, 178.322 209.675, 178.638 210.500 C 178.955 211.325, 179.953 212.011, 180.857 212.025 C 181.761 212.039, 186.088 213.836, 190.472 216.017 C 197.058 219.294, 198.673 219.755, 199.759 218.669 C 201.291 217.137, 200.519 214.413, 198.311 213.566 C 197.229 213.151, 196.951 213.430, 197.366 214.512 C 197.863 215.806, 197.607 215.864, 195.727 214.879 C 194.502 214.237, 191.788 212.181, 189.696 210.310 C 187.604 208.439, 184.896 206.454, 183.678 205.899 C 182.460 205.344, 180.473 203.452, 179.262 201.695 C 178.051 199.938, 175.036 196.475, 172.563 194 C 170.089 191.525, 168.051 188.813, 168.033 187.973 C 168.015 187.132, 167.280 185.417, 166.400 184.161 L 164.801 181.877 169.436 182.422 C 171.985 182.722, 174.925 183.425, 175.970 183.984 C 179.767 186.016, 186.244 185.161, 191 182 C 196.644 178.248, 199.559 178.108, 200.422 181.546 C 200.774 182.946, 200.806 184.505, 200.494 185.010 C 199.786 186.155, 204.562 189.176, 217.810 195.964 C 229.950 202.185, 235 206.475, 235 210.568 C 235 212.668, 235.291 213.109, 236.127 212.273 C 237.884 210.516, 236.229 205.949, 232.602 202.554 C 229.358 199.516, 227.638 198.500, 212.637 190.761 C 206.410 187.548, 204.486 186.014, 203.387 183.384 C 202.624 181.558, 202 179.832, 202 179.548 C 202 178.640, 209.310 182.284, 215.396 186.224 C 221.200 189.983, 223.502 190.515, 221.020 187.524 C 219.298 185.449, 220.813 185.610, 225.500 188 C 230.630 190.615, 236.135 190.613, 238.506 187.994 C 240.704 185.564, 239.765 184.092, 237.476 186.381 C 236.586 187.271, 234.713 188, 233.315 188 C 229.918 188, 223.281 184.181, 222.679 181.880 C 222.385 180.756, 218.848 178.440, 213.599 175.933 C 206.732 172.655, 204.997 171.392, 204.986 169.664 C 204.979 168.474, 204.727 166.586, 204.427 165.468 C 204.037 164.016, 205.129 162.058, 208.260 158.599 C 213.225 153.114, 212.708 153.144, 227 157.535 C 237.407 160.733, 245.721 162.287, 248.582 161.569 C 251.942 160.725, 251.633 158.923, 248.244 159.601 C 245.315 160.187, 238.806 158.829, 225 154.751 C 210.116 150.354, 210.397 150.360, 208.490 154.379 C 205.900 159.837, 199.581 162.863, 201.564 157.695 C 202.681 154.784, 200.020 148.225, 196.451 145.091 C 194.515 143.391, 192.323 142, 191.580 142 C 190.837 142, 189.045 141.386, 187.599 140.636 C 183.539 138.529, 186.279 137.283, 195.439 137.070 C 199.805 136.968, 203.733 136.665, 204.167 136.396 C 204.602 136.128, 208.680 135.748, 213.229 135.552 C 217.778 135.357, 222.850 134.891, 224.500 134.517 C 226.696 134.020, 227.106 134.113, 226.029 134.865 C 225.220 135.429, 224.829 136.162, 225.160 136.493 C 226.223 137.557, 228.937 133.999, 228.310 132.364 C 227.859 131.191, 226.836 130.927, 224.321 131.335 C 222.460 131.637, 216.354 131.202, 210.751 130.367 C 199.661 128.715, 190.885 129.021, 188.323 131.147 C 187.426 131.891, 185.346 132.500, 183.701 132.500 C 181.142 132.500, 179.920 131.433, 175.255 125.126 C 172.099 120.857, 168.637 117.312, 167.037 116.708 C 165.516 116.134, 163.727 114.793, 163.062 113.728 C 161.905 111.875, 162.081 111.824, 167.177 112.536 C 170.104 112.946, 176.550 113.237, 181.500 113.184 C 187.231 113.123, 192.276 113.663, 195.390 114.671 C 198.972 115.830, 202.376 116.099, 208.111 115.675 C 215.271 115.146, 218.580 115.905, 216.016 117.490 C 215.457 117.835, 215.015 118.654, 215.033 119.309 C 215.052 119.964, 215.972 119.412, 217.080 118.082 C 220.080 114.478, 217.892 112.829, 210.159 112.866 C 206.801 112.882, 203.762 112.424, 203.406 111.848 C 202.577 110.507, 190.984 105.002, 188.985 105.001 C 188.152 105, 185.749 104.077, 183.645 102.950 C 180.627 101.332, 178.205 100.936, 172.160 101.074 C 167.463 101.180, 163.911 101.760, 162.977 102.573 C 162.140 103.302, 160.969 103.584, 160.377 103.199 C 159.140 102.397, 151.207 78.839, 147.682 65.500 C 142.811 47.068, 135.940 24.802, 133.862 20.718 C 131.103 15.295, 123.935 5.964, 119.952 2.613 C 117.309 0.389, 115.890 -0, 110.423 -0 C 105.709 -0, 104 0.358, 104 1.345 M 120.627 104.706 C 119.512 105.821, 119.961 107, 121.500 107 C 123.341 107, 123.511 111.049, 121.750 112.947 C 120.730 114.046, 120.817 114.183, 122.221 113.690 C 123.168 113.357, 124.597 113.740, 125.397 114.540 C 126.878 116.020, 130 115.552, 130 113.849 C 130 113.334, 130.563 112.981, 131.250 113.065 C 133.457 113.334, 137.093 111.779, 136.739 110.718 C 136.551 110.153, 134.620 109.138, 132.448 108.464 C 130.277 107.789, 126.870 106.527, 124.877 105.658 C 122.884 104.790, 120.972 104.361, 120.627 104.706 M 110.119 153.636 C 109.137 154.746, 108.535 154.865, 108.031 154.050 C 107.530 153.240, 106.937 153.371, 106.002 154.498 C 105.274 155.374, 104.077 155.860, 103.340 155.577 C 102.603 155.294, 102 155.450, 102 155.923 C 102 156.396, 103.871 157.531, 106.157 158.446 C 110.419 160.152, 111.944 159.577, 111.985 156.250 C 111.993 155.563, 112.402 155, 112.893 155 C 113.384 155, 114.045 154.325, 114.362 153.500 C 115.137 151.480, 111.937 151.583, 110.119 153.636" fill="none" stroke="#000" stroke-width="2px" fill-rule="evenodd"/>
</svg>
