<svg xmlns="http://www.w3.org/2000/svg" width="500" height="488" viewBox="0 0 500 488" version="1.1">
	<path d="M 116.254 4.475 C 115.338 5.528, 113.683 5.750, 110.004 5.314 C 103.091 4.495, 103.305 6.741, 110.666 12.255 C 120.867 19.898, 126 25.082, 126 27.742 C 126 29.100, 127.125 31.548, 128.500 33.182 C 129.875 34.816, 131 36.719, 131 37.409 C 131 38.100, 132.800 40.112, 135 41.880 C 137.200 43.648, 139 45.704, 139 46.449 C 139 47.194, 140.656 48.663, 142.680 49.714 C 146.287 51.585, 147.322 52.766, 148.384 56.218 C 148.675 57.164, 150.557 58.624, 152.566 59.463 C 155.845 60.833, 156.150 61.272, 155.542 63.745 C 153.937 70.272, 152.730 70.935, 141.853 71.262 C 139.479 71.334, 138.365 71.787, 138.662 72.561 C 139.132 73.787, 133.893 73.082, 126 70.857 C 122.162 69.775, 117.152 70.839, 104.500 75.422 C 100.650 76.817, 96.369 77.967, 94.987 77.979 C 92.789 77.997, 92.319 78.651, 91.242 83.184 C 90.196 87.585, 90.240 88.717, 91.528 90.684 C 92.363 91.958, 93.373 93, 93.773 92.999 C 94.173 92.999, 94.357 95.137, 94.182 97.749 C 93.830 103.024, 95.841 108.841, 99.168 112.168 L 101.289 114.289 98.395 113.582 C 89.112 111.311, 78.648 107.602, 77.470 106.164 C 76.721 105.249, 75.263 103.425, 74.231 102.110 C 72.410 99.791, 72.279 99.771, 69.727 101.443 C 67.593 102.841, 66.478 102.968, 63.799 102.116 C 52.917 98.657, 39.838 96.879, 38.060 98.617 C 36.898 99.753, 41.115 101.790, 46.636 102.759 C 54.396 104.121, 69.772 110.615, 72.820 113.817 C 74.095 115.157, 76.293 117.996, 77.703 120.127 C 79.112 122.257, 80.589 124, 80.985 124 C 82.587 124, 88.170 130.314, 88.390 132.375 C 88.519 133.590, 88.961 135.128, 89.372 135.792 C 89.782 136.457, 89.633 137, 89.040 137 C 87.676 137, 88.651 141.452, 90.902 145.500 C 91.820 147.150, 93.164 150.525, 93.889 153 C 96.125 160.629, 96.881 161.989, 99.564 163.211 C 101.633 164.154, 102.054 164.910, 101.643 166.947 C 100.989 170.186, 102.944 177.122, 104.961 178.718 C 105.807 179.388, 106.132 179.951, 105.682 179.968 C 105.232 179.986, 105.796 181.310, 106.936 182.911 C 108.978 185.778, 120.781 193, 123.426 193 C 124.172 193, 125.075 194.163, 125.432 195.585 C 126.436 199.585, 129.610 202.569, 131.336 201.136 C 132.280 200.353, 133.525 200.270, 135.121 200.884 C 137.256 201.706, 137.315 201.874, 135.693 202.529 C 134.698 202.930, 134.109 203.842, 134.383 204.556 C 134.657 205.270, 134.238 206.388, 133.452 207.040 C 132.665 207.693, 132.263 208.616, 132.557 209.093 C 132.852 209.569, 132.620 210.841, 132.044 211.919 C 131.374 213.169, 131.346 214.096, 131.965 214.478 C 132.498 214.808, 132.675 216.376, 132.357 217.963 C 131.936 220.071, 132.348 221.458, 133.890 223.113 C 136.344 225.746, 136.431 226.337, 134.760 229.013 C 133.687 230.731, 133.884 231.337, 136.216 233.500 C 137.699 234.875, 139.340 236, 139.863 236 C 140.385 236, 140.587 236.862, 140.312 237.915 C 139.971 239.219, 140.647 240.378, 142.431 241.547 C 144.119 242.653, 144.862 243.859, 144.519 244.939 C 144.174 246.028, 145.037 247.391, 146.986 248.831 C 148.635 250.050, 150.905 252.853, 152.030 255.059 C 153.156 257.266, 154.479 258.822, 154.971 258.518 C 155.463 258.214, 156.654 259.298, 157.617 260.928 C 158.579 262.558, 159.734 263.664, 160.183 263.387 C 161.827 262.371, 160.931 263.950, 158.250 266.795 C 156.737 268.400, 153.173 270.741, 150.329 271.999 C 147.214 273.376, 144.952 275.075, 144.639 276.272 C 144.298 277.575, 143.582 278.054, 142.560 277.661 C 140.199 276.755, 140.636 279.735, 143.054 281.029 C 145.086 282.117, 145.082 282.148, 142.646 284.064 C 141.292 285.129, 139.693 286, 139.092 286 C 138.492 286, 138 286.427, 138 286.948 C 138 287.470, 136.834 289.156, 135.408 290.694 C 132.838 293.467, 132.801 293.474, 131.112 291.495 C 130.175 290.398, 128.355 288.895, 127.067 288.156 C 119.717 283.936, 118.135 283.198, 117.596 283.738 C 116.631 284.703, 116.945 279.635, 117.949 278.048 C 119.940 274.901, 117.733 275.235, 114.852 278.516 C 111.872 281.910, 111.662 281.979, 106.149 281.369 C 103.042 281.026, 100.121 280.400, 99.657 279.980 C 99.194 279.559, 97.696 279.795, 96.328 280.505 C 93.873 281.778, 89.730 281.272, 84.500 279.060 C 83.400 278.594, 78.872 277.273, 74.438 276.123 C 67.021 274.199, 63.829 273.947, 49.500 274.150 C 46.750 274.189, 40.949 273.202, 36.610 271.957 C 30.387 270.173, 28.329 269.938, 26.873 270.847 C 24.679 272.218, 22 272.361, 22 271.108 C 22 270.618, 20.765 269.907, 19.256 269.528 C 13.137 267.992, 12.327 264.365, 17.106 259.901 C 21.193 256.083, 18.921 256.201, 12.808 260.123 C 7.283 263.668, 5 266.454, 5 269.649 C 5 271.339, 6.236 272.419, 10.293 274.277 C 13.204 275.609, 17.366 277.010, 19.543 277.390 C 24.528 278.260, 33.984 280.897, 36.127 282.015 C 37.022 282.481, 39.497 283.179, 41.627 283.565 C 48.835 284.872, 51.703 287.168, 51.142 291.181 C 50.904 292.881, 57.664 297.126, 62.817 298.511 C 65.942 299.351, 69.882 300.480, 71.571 301.019 C 73.260 301.559, 75.596 302, 76.762 302 C 77.928 302, 79.160 302.450, 79.500 303 C 80.381 304.426, 84.736 304.239, 85.341 302.750 C 86.057 300.984, 87.992 303.856, 87.300 305.659 C 87.011 306.413, 87.443 307, 88.286 307 C 89.111 307, 90.045 306.325, 90.362 305.500 C 91.434 302.704, 95.082 303.942, 99.568 308.625 C 102.006 311.169, 104 313.653, 104 314.144 C 104 314.636, 105.237 314.751, 106.750 314.400 C 109.327 313.803, 109.380 313.855, 107.597 315.230 C 105.529 316.824, 106.165 319, 108.699 319 C 109.568 319, 110.877 318.213, 111.608 317.250 C 112.386 316.225, 112.950 316.007, 112.968 316.724 C 112.986 317.398, 114.350 318.647, 116 319.500 C 117.650 320.353, 119 321.715, 119 322.526 C 119 324.723, 121.768 324.307, 122.500 322 C 123.418 319.106, 128.622 319.234, 129.555 322.173 L 130.245 324.346 131.470 322.056 C 132.613 319.920, 132.745 319.891, 133.419 321.633 C 134.116 323.432, 134.197 323.427, 135.616 321.500 C 136.439 320.382, 136.841 318.508, 136.526 317.250 C 136.216 316.012, 136.420 315, 136.981 315 C 137.886 315, 138.382 316.315, 138.160 318.125 C 138.118 318.469, 139.208 318.750, 140.583 318.750 C 141.958 318.750, 142.853 318.520, 142.571 318.238 C 142.290 317.956, 142.936 316.495, 144.007 314.990 C 145.786 312.491, 153.279 309.436, 155.007 310.505 C 155.353 310.718, 156.267 310.017, 157.039 308.946 C 157.810 307.876, 158.814 307, 159.269 307 C 159.724 307, 161.116 305.814, 162.362 304.365 C 164.321 302.088, 164.925 301.889, 166.814 302.901 C 168.235 303.661, 169.002 305.021, 169.006 306.785 C 169.010 308.278, 169.674 310.768, 170.482 312.318 C 171.291 313.868, 171.850 316.086, 171.726 317.246 C 171.565 318.754, 172.204 319.530, 173.967 319.965 C 175.730 320.401, 176.618 321.480, 177.083 323.753 C 177.799 327.254, 176.732 328.628, 171.500 330.938 C 169.850 331.666, 169.029 332.455, 169.675 332.690 C 170.322 332.925, 172.684 332.181, 174.925 331.038 C 179.436 328.737, 180.683 330.167, 177.040 333.464 C 175.962 334.440, 175.135 335.522, 175.204 335.869 C 175.272 336.216, 174.980 337.738, 174.556 339.250 C 173.555 342.812, 174.726 348.047, 176.053 345.948 C 176.772 344.811, 176.973 344.966, 176.985 346.668 C 176.993 347.861, 177.273 349.549, 177.608 350.420 C 178.129 351.778, 178.547 351.683, 180.554 349.751 C 181.841 348.513, 183.480 347.500, 184.197 347.500 C 185.845 347.500, 188.993 350.598, 189.022 352.250 C 189.034 352.938, 189.924 352.375, 191 351 C 192.394 349.218, 192.962 348.951, 192.978 350.070 C 192.990 350.933, 194.125 352.618, 195.500 353.813 C 196.875 355.009, 198.039 356.777, 198.087 357.743 C 198.410 364.280, 199.071 366.628, 200.939 367.872 C 202.073 368.627, 203.015 369.977, 203.033 370.872 C 203.073 372.819, 206.383 377, 207.885 377 C 208.470 377, 209.725 378.463, 210.674 380.250 C 211.997 382.741, 212.487 383.092, 212.773 381.750 C 213.258 379.479, 221 379.178, 221 381.430 C 221 382.216, 222.950 383.834, 225.333 385.024 C 229.700 387.204, 232 390.910, 232 395.762 C 232 396.928, 232.450 398.160, 233 398.500 C 233.550 398.840, 234 398.656, 234 398.090 C 234 397.525, 234.661 397.316, 235.468 397.626 C 236.276 397.936, 236.881 398.485, 236.812 398.845 C 236.744 399.205, 237.162 400.625, 237.741 402 L 238.794 404.500 239.914 401.641 C 240.844 399.265, 241.283 398.990, 242.517 400.014 C 243.332 400.691, 244 402.138, 244 403.229 C 244 404.615, 244.470 405.034, 245.557 404.617 C 246.496 404.256, 248.032 405.010, 249.428 406.517 C 251.417 408.663, 251.914 408.809, 252.957 407.552 C 253.932 406.377, 254.549 406.326, 256.096 407.292 C 257.156 407.954, 258.273 409.284, 258.579 410.248 C 259.248 412.358, 261 412.583, 261 410.559 C 261 408.121, 262.827 407.827, 264.927 409.927 C 266.047 411.047, 267.190 411.501, 267.525 410.960 C 268.520 409.349, 274.274 410.948, 275.938 413.298 C 276.795 414.509, 279.264 418.425, 281.425 422 C 288.363 433.481, 299.871 447.615, 313.861 461.838 C 328.559 476.782, 334.373 481.170, 341.847 482.963 C 346.045 483.970, 347.332 483.848, 352.380 481.959 C 356.602 480.379, 358.417 479.102, 359.207 477.154 C 359.799 475.694, 361.136 472.557, 362.178 470.183 C 363.220 467.809, 363.974 464.187, 363.853 462.135 C 363.732 460.082, 364.011 457.792, 364.473 457.044 C 364.934 456.297, 365.238 453.731, 365.148 451.343 C 365.058 448.954, 365.383 447, 365.871 447 C 367.482 447, 369.196 441.197, 368.880 436.813 C 368.493 431.445, 370.838 424.724, 372.832 425.489 C 373.994 425.935, 374.129 424.926, 373.598 419.765 C 373.244 416.319, 372.599 409.225, 372.165 404 C 371.660 397.922, 370.699 393.239, 369.499 391 C 368.189 388.556, 367.494 384.727, 367.195 378.313 C 366.778 369.355, 366.820 369.140, 368.883 369.680 C 370.545 370.114, 371 369.780, 371 368.123 C 371 366.490, 371.509 366.097, 373.250 366.388 C 374.488 366.595, 377.137 365.863, 379.137 364.761 C 381.998 363.186, 383.118 361.693, 384.387 357.764 C 385.274 355.018, 386 351.610, 386 350.191 C 386 347.650, 386.037 347.663, 388.485 351.056 C 394.003 358.704, 397.696 361.039, 410.500 364.975 C 412.700 365.652, 418.550 367.783, 423.500 369.711 C 437.139 375.024, 446.486 377.203, 454.120 376.851 C 458.555 376.646, 461.275 376.983, 462.345 377.872 C 463.688 378.986, 464.206 378.936, 465.581 377.562 C 466.894 376.249, 468.364 376.055, 473.011 376.581 C 477.933 377.138, 479.624 376.861, 484.259 374.739 C 492.073 371.162, 494.991 366.909, 496.261 357.247 C 497.144 350.524, 497.007 348.427, 495.220 341.380 C 493.152 333.220, 485.789 317.091, 481.581 311.500 C 480.339 309.850, 478.094 306.025, 476.592 303 C 471.690 293.123, 460.035 279.262, 450.500 271.968 C 438.778 263.001, 434.611 259.715, 432.676 257.913 C 431.547 256.861, 430.290 256, 429.883 256 C 429.476 256, 428.548 255.427, 427.821 254.728 C 427.095 254.028, 423.800 251.681, 420.500 249.513 C 417.200 247.345, 409.712 241.955, 403.860 237.535 C 398.008 233.116, 390.283 227.700, 386.692 225.500 C 375.374 218.566, 363.762 210.269, 356 203.570 C 351.875 200.010, 343.243 193.025, 336.817 188.047 C 330.392 183.070, 324.174 177.648, 322.999 175.999 C 321.825 174.350, 320.046 173, 319.046 173 C 317.313 173, 314 167.735, 314 164.982 C 314 164.263, 313.191 163.978, 312.017 164.285 C 310.352 164.721, 310.192 164.510, 311.017 162.968 C 312.451 160.289, 312.287 160.007, 309.250 159.930 C 307.738 159.891, 305.633 159.520, 304.573 159.105 C 302.849 158.429, 302.823 158.282, 304.323 157.706 C 306.151 157.005, 306.693 152, 304.941 152 C 304.359 152, 304.149 151.568, 304.475 151.041 C 305.385 149.568, 302.823 146.131, 301.262 146.730 C 300.435 147.047, 299.665 146.433, 299.342 145.199 C 299.016 143.952, 298.251 143.350, 297.405 143.675 C 296.330 144.087, 296.144 143.529, 296.600 141.249 C 297.031 139.095, 296.766 138.124, 295.628 137.688 C 294.768 137.357, 293.798 137.518, 293.473 138.044 C 292.388 139.800, 291.207 139.030, 289.955 135.750 C 289.272 133.963, 288.773 132.179, 288.845 131.786 C 288.917 131.393, 288.228 131.359, 287.314 131.710 C 286.025 132.204, 285.808 131.944, 286.344 130.547 C 286.724 129.555, 286.472 128.069, 285.782 127.238 C 285.094 126.408, 284.479 125.227, 284.417 124.614 C 284.355 124.002, 284.236 122.712, 284.152 121.750 C 284.069 120.787, 283.663 120.053, 283.250 120.118 C 280.477 120.556, 280.063 119.822, 280.653 115.514 C 281.049 112.627, 280.837 110.509, 280.060 109.572 C 279.081 108.392, 279.334 107.697, 281.392 105.907 C 282.789 104.693, 283.715 103.348, 283.450 102.918 C 283.184 102.489, 283.432 101.851, 284 101.500 C 285.563 100.534, 284.163 99, 282.353 99.695 C 281.122 100.167, 280.914 99.847, 281.419 98.257 C 281.817 97.002, 281.475 95.618, 280.534 94.677 C 279.690 93.833, 279 91.710, 279 89.958 C 279 87.003, 278.788 86.804, 276.063 87.204 C 273.646 87.559, 273.022 87.225, 272.544 85.318 C 272.130 83.669, 271.242 83, 269.467 83 C 266.678 83, 263.930 81.590, 260.212 78.250 C 258.835 77.012, 257.324 75.944, 256.854 75.875 C 253.648 75.406, 249.795 73.911, 242.695 70.382 C 238.952 68.522, 234.806 67, 233.482 67 C 232.158 67, 228.920 66.174, 226.287 65.164 C 222.892 63.861, 220.493 63.546, 218.036 64.081 C 215.146 64.710, 214.328 64.486, 213.097 62.728 C 210.386 58.858, 208.059 57.040, 206.554 57.618 C 205.118 58.169, 196.418 55.466, 194.628 53.913 C 194.149 53.497, 193.182 53.377, 192.479 53.646 C 191.777 53.916, 190.905 53.656, 190.542 53.068 C 190.179 52.481, 188.982 52, 187.882 52 C 186.771 52, 186.164 51.544, 186.515 50.975 C 186.864 50.412, 186.778 50.047, 186.324 50.166 C 184.057 50.758, 177.005 48.260, 173 45.446 C 172.175 44.866, 168.350 43.342, 164.500 42.058 C 159.419 40.363, 156.250 38.521, 152.941 35.337 C 150.434 32.925, 148.071 31.262, 147.691 31.642 C 147.311 32.022, 147 31.820, 147 31.192 C 147 30.565, 145.708 29.383, 144.129 28.567 C 138.532 25.672, 129.439 16.986, 125 10.293 C 120.362 3.300, 118.408 2, 116.254 4.475 M 161.046 65.359 C 159.450 70.196, 159.144 76, 160.486 76 C 171.243 76, 184.818 77.262, 187.281 78.490 C 188.945 79.321, 190.363 80, 190.430 80 C 190.498 80, 190.389 78.313, 190.190 76.250 C 189.855 72.794, 189.422 72.328, 184.663 70.311 C 176.075 66.671, 163.903 62, 163.002 62 C 162.536 62, 161.656 63.512, 161.046 65.359 M 192 76.386 C 192 77.500, 194.861 81.854, 197.263 84.396 C 199.610 86.880, 200.005 87.022, 200.032 85.396 C 200.061 83.651, 200.165 83.633, 201.336 85.173 C 202.525 86.737, 202.682 86.737, 203.745 85.173 C 204.718 83.742, 204.895 83.934, 204.973 86.500 L 205.063 89.500 207.678 86.524 L 210.293 83.547 209.849 86.576 C 209.500 88.956, 209.789 89.634, 211.199 89.740 C 212.327 89.825, 213.220 88.971, 213.604 87.440 C 214.597 83.484, 213.524 82.243, 209.053 82.181 C 206.462 82.146, 202.872 80.998, 199.299 79.062 C 194.014 76.200, 192 75.461, 192 76.386 M 238.343 104.548 C 237.669 106.305, 240.571 108.920, 243.250 108.968 C 244.213 108.986, 245 108.495, 245 107.878 C 245 107.080, 245.415 107.100, 246.436 107.947 C 247.470 108.805, 248.422 108.845, 249.836 108.088 C 251.317 107.295, 251.928 107.370, 252.321 108.393 C 252.607 109.139, 254.192 109.948, 255.844 110.190 C 258.209 110.537, 259.060 110.165, 259.847 108.437 C 260.805 106.334, 260.508 106.176, 252.673 104.621 C 242.425 102.587, 239.102 102.570, 238.343 104.548 M 88 118.154 C 88 119.217, 95.698 126.437, 96.951 126.549 C 99.559 126.783, 101.716 128.502, 102.835 131.238 C 103.568 133.032, 104.530 135.400, 104.972 136.500 C 105.415 137.600, 106.908 141.200, 108.290 144.500 C 109.673 147.800, 111.098 151.913, 111.457 153.640 C 111.999 156.244, 112.970 157.137, 117.151 158.874 C 122.864 161.248, 126.587 160.424, 125.507 157.023 C 124.744 154.617, 126.423 153.621, 128.957 154.977 C 130.540 155.824, 130.845 155.759, 130.424 154.664 C 130.133 153.903, 128.905 152.749, 127.697 152.099 C 123.458 149.818, 117.200 139.890, 115.077 132.080 C 113.966 127.996, 112.482 124.294, 111.779 123.853 C 111.076 123.413, 108.025 122.558, 105 121.952 C 101.975 121.346, 97.121 119.985, 94.212 118.926 C 87.999 116.663, 88 116.663, 88 118.154" fill="none" stroke="#000" stroke-width="2px" fill-rule="evenodd"/>
</svg>
