<svg xmlns="http://www.w3.org/2000/svg" width="266" height="265" viewBox="0 0 266 265" version="1.1">
	<path d="M 83.749 0.754 C 81.042 1.361, 77.656 8.025, 70.659 26.513 C 67.123 35.856, 62.627 46.991, 60.669 51.257 C 56.708 59.884, 54.367 72.363, 55.355 79.577 C 56.191 85.675, 59.445 91.885, 63.822 95.735 L 67.500 98.970 62.866 98.985 C 59.449 98.996, 56.034 100.097, 49.866 103.176 C 41.023 107.590, 39.464 108.959, 38.647 113.027 C 38.317 114.671, 36.694 116.366, 34.001 117.879 L 29.863 120.205 30.527 126.412 C 31.140 132.128, 30.988 132.861, 28.600 135.699 C 26.370 138.349, 26.093 139.400, 26.618 143.228 C 27.188 147.391, 26.979 147.934, 23.364 151.681 C 21.239 153.883, 16.575 157.371, 13 159.432 C 5.795 163.585, 1 167.683, 1 169.687 C 1 171.649, 3.074 171.310, 11.341 168 C 20.122 164.484, 22.740 164.317, 27.887 166.942 C 32.026 169.054, 34.604 172.282, 37.116 178.500 C 38.005 180.700, 39.908 183.172, 41.344 183.993 C 43.685 185.331, 44.457 185.307, 48.803 183.764 C 52.696 182.381, 54.238 182.264, 56.634 183.168 C 64.039 185.963, 68.424 182.778, 85.331 162.329 C 97.593 147.497, 108.329 140.934, 101.094 152.693 C 99.418 155.417, 97.505 159.991, 96.844 162.857 C 95.815 167.314, 95.864 168.292, 97.182 169.610 C 100.212 172.641, 109.058 168.787, 117.750 160.650 C 122.108 156.570, 121.843 157.867, 116.798 165.305 C 112.549 171.570, 106.619 177.760, 92.660 190.500 C 85.246 197.267, 84.992 197.650, 85.031 202 C 85.053 204.475, 85.691 207.620, 86.449 208.989 C 87.623 211.110, 87.617 211.980, 86.413 214.862 C 83.354 222.183, 85.019 225.663, 92.612 227.826 C 95.367 228.611, 98.254 230.633, 101.362 233.956 C 105.826 238.728, 106 239.142, 106 244.989 C 106 248.467, 105.124 253.664, 103.950 257.148 C 102.823 260.495, 102.149 263.483, 102.454 263.787 C 103.639 264.972, 108.106 259.356, 113.187 250.294 C 119.846 238.418, 123.874 234.566, 128.688 235.469 C 131.576 236.011, 132.653 235.634, 135.594 233.051 C 138.837 230.204, 139.453 230.036, 144.475 230.626 C 149.797 231.251, 149.899 231.214, 151.893 227.880 C 153.006 226.021, 155.847 223.352, 158.208 221.948 C 160.663 220.489, 163.223 217.921, 164.189 215.948 C 167.634 208.917, 170 202.042, 170 199.065 C 170 196.004, 171.278 195.023, 172.560 197.098 C 172.934 197.702, 175.298 199.502, 177.815 201.098 C 181.953 203.722, 183.212 203.999, 190.946 203.988 C 201.360 203.974, 208.012 202.313, 218.500 197.111 C 222.900 194.928, 228.525 192.268, 231 191.200 C 240.066 187.286, 247.634 184.125, 253.211 181.921 C 259.654 179.375, 265.006 175.006, 264.988 172.306 C 264.954 167.274, 254.869 154.257, 247.206 149.355 C 227.255 136.593, 184.387 127.455, 153.351 129.349 C 144.703 129.877, 143.113 129.738, 142.604 128.410 C 142.275 127.553, 142.679 126.178, 143.503 125.354 C 145.365 123.492, 145.366 122.968, 143.517 120.328 C 141.802 117.879, 142.125 117.576, 157 107.697 C 168.192 100.264, 170.624 98.291, 169.714 97.381 C 169.298 96.965, 167.055 98.451, 164.729 100.683 C 162.403 102.915, 156.828 107.066, 152.341 109.908 C 147.853 112.751, 143.674 115.688, 143.053 116.437 C 142.169 117.501, 141.289 117.558, 139.012 116.698 C 136.621 115.796, 135.764 115.904, 134.221 117.300 C 133.188 118.235, 132.153 119.001, 131.921 119.002 C 131.690 119.003, 131.648 114.391, 131.830 108.752 C 132.191 97.541, 130.669 79.486, 128.437 68.500 C 126.217 57.575, 119.381 37.423, 114.444 27.249 C 111.306 20.783, 108.320 16.363, 104.526 12.570 C 97.021 5.065, 87.832 -0.161, 83.749 0.754 M 153.748 88.536 C 153.286 90.955, 153.349 90.994, 155.132 89.381 C 157.343 87.380, 157.541 86, 155.617 86 C 154.856 86, 154.015 87.141, 153.748 88.536 M 146.624 101.539 C 145.659 104.053, 145.943 104.702, 147.122 102.675 C 147.706 101.671, 147.973 100.639, 147.715 100.382 C 147.458 100.124, 146.966 100.645, 146.624 101.539 M 142.705 110.528 C 141.229 113.538, 140.234 116, 140.494 116 C 141.167 116, 146.211 105.878, 145.762 105.429 C 145.557 105.224, 144.182 107.518, 142.705 110.528" fill="none" stroke="#000" stroke-width="2px" fill-rule="evenodd"/>
</svg>
