<svg xmlns="http://www.w3.org/2000/svg" width="469" height="500" viewBox="0 0 469 500" version="1.1">
	<path d="M 160.500 4.634 C 145.345 6.261, 131.169 9.393, 125.047 12.466 C 115.629 17.193, 97.130 24.348, 85.035 27.942 C 64.374 34.079, 41.105 52.031, 28.253 71.748 C 21.935 81.441, 13.488 98.873, 12.086 105.111 C 11.551 107.494, 10.320 110.024, 9.352 110.732 C 7.875 111.812, 7.538 113.965, 7.262 124.095 C 6.960 135.120, 7.140 136.620, 9.326 141.336 C 10.643 144.176, 13.519 148.525, 15.718 151 C 17.917 153.475, 20.060 156.625, 20.481 158 C 22.031 163.063, 27.072 172.267, 30.518 176.325 C 32.467 178.621, 37.735 182.975, 42.224 186 C 49.233 190.724, 51.226 192.761, 56.344 200.431 C 62.620 209.837, 76.890 225.513, 80.105 226.533 C 81.147 226.864, 82 227.914, 82 228.867 C 82 231.472, 84.037 233, 87.509 233 C 89.219 233, 91.450 233.608, 92.467 234.352 C 94.208 235.625, 94.159 235.743, 91.622 236.380 C 88.769 237.096, 86.639 240.895, 87.635 243.491 C 88.358 245.374, 87.648 245.387, 84.102 243.553 C 81.876 242.402, 79.581 242.283, 72.901 242.973 C 66.213 243.665, 64.048 243.552, 62.285 242.421 C 59.514 240.643, 56.254 240.619, 52.934 242.351 C 51.158 243.278, 47.908 243.548, 42.382 243.228 C 35.210 242.813, 33.862 243.036, 29.162 245.418 C 19.570 250.279, 13 257.964, 13 264.324 C 13 268.103, 17.360 272.560, 24.491 276.070 C 30.266 278.913, 33 279.243, 33 277.097 C 33 276.665, 30.750 273.740, 28 270.597 C 24.402 266.486, 23 264.050, 23 261.910 C 23 258.532, 24.907 257.345, 27.825 258.907 C 29.394 259.746, 30.754 259.438, 34.350 257.428 C 37.921 255.432, 39.661 255.033, 42.486 255.563 C 45.040 256.043, 46.575 255.801, 47.790 254.730 C 50.976 251.922, 55.665 251.630, 59.503 254.002 C 61.426 255.190, 63 256.791, 63 257.559 C 63 258.326, 64.141 259.701, 65.535 260.615 C 67.870 262.145, 69.331 262.521, 74.306 262.872 C 75.300 262.943, 77.325 264.314, 78.806 265.919 C 83.582 271.095, 92.064 276.042, 98.936 277.662 C 106.941 279.547, 125.624 278.917, 134 276.478 C 138.340 275.214, 144.457 274.871, 163 274.853 C 175.925 274.840, 186.992 274.868, 187.593 274.915 C 188.818 275.010, 192.678 281.656, 191.937 282.396 C 191.676 282.657, 188.096 282.438, 183.981 281.909 C 168.742 279.950, 132.671 281.369, 129.434 284.054 C 128.573 284.769, 127.253 286.544, 126.501 287.999 C 125.586 289.768, 123.703 291.071, 120.816 291.934 C 114.083 293.948, 108.161 297.269, 98.622 304.381 C 92.934 308.622, 88.525 311.144, 86.160 311.512 C 79.945 312.478, 75 314.035, 75 315.027 C 75 315.547, 76.575 316.631, 78.500 317.436 C 82.545 319.125, 83.020 321.528, 79.961 324.811 C 77.718 327.219, 77.924 327.164, 69.733 327.533 C 63.802 327.799, 59 329.980, 59 332.406 C 59 334.064, 55.922 334.968, 50.219 334.986 C 47.225 334.996, 45.753 335.481, 45.323 336.601 C 44.809 337.940, 43.671 338.091, 38.353 337.521 C 33.499 337.001, 31.878 337.155, 31.490 338.170 C 31.127 339.118, 29.379 339.400, 25.403 339.152 C 20.645 338.856, 19.609 339.113, 18.356 340.902 C 17.548 342.056, 15.814 343, 14.502 343 C 13.191 343, 11.823 343.478, 11.462 344.062 C 11.101 344.646, 9.724 345.534, 8.403 346.037 C 7.081 346.539, 6 347.460, 6 348.082 C 6 348.769, 6.689 348.930, 7.750 348.492 C 10.837 347.218, 16.001 346.190, 15.969 346.855 C 15.952 347.210, 14.829 349.300, 13.474 351.500 C 12.119 353.700, 11.018 356.625, 11.028 358 C 11.044 360.088, 11.496 359.691, 13.773 355.586 C 15.981 351.607, 17.706 350.036, 22.835 347.336 C 30.524 343.287, 31.779 343.211, 32.600 346.750 C 34.373 354.392, 38.335 355.947, 43.004 350.834 C 45.573 348.022, 46.087 347.827, 47.610 349.084 C 48.992 350.225, 49.411 350.247, 49.765 349.194 C 50.006 348.476, 51.643 346.001, 53.403 343.694 C 55.625 340.781, 57.350 339.500, 59.051 339.500 C 61.159 339.500, 61.543 340.022, 61.810 343.250 C 61.995 345.484, 62.642 347, 63.410 347 C 65.289 347, 72.713 341.404, 73.983 339.031 C 74.899 337.320, 76.061 337, 81.364 337 C 86.790 337, 88.333 336.552, 92.566 333.750 C 99.301 329.291, 108.509 319.645, 111.059 314.379 C 113.855 308.601, 123.549 300.033, 127.309 300.014 C 128.854 300.006, 129.872 300.398, 129.571 300.884 C 128.811 302.115, 136.018 303.783, 147.966 305.141 C 163.844 306.947, 176.200 304.674, 193.265 296.809 L 200.108 293.654 207.804 301.178 C 212.037 305.315, 216.959 309.697, 218.743 310.913 L 221.985 313.126 216.083 319.983 C 208.348 328.971, 202.745 338.730, 199.998 348 C 198.775 352.125, 196.926 357.170, 195.888 359.210 C 193.549 363.806, 193.499 367.159, 195.706 371.300 C 196.644 373.060, 197.268 374.950, 197.093 375.500 C 196.198 378.317, 197.265 389.612, 198.687 392.361 C 200.596 396.053, 220.834 416.155, 226.331 419.819 C 229.588 421.990, 230.066 422.757, 229.520 424.936 C 229.167 426.346, 228.630 428.738, 228.326 430.250 C 227.957 432.083, 227.144 433, 225.887 433 C 222.326 433, 219.767 436.761, 220.206 441.346 C 220.556 445.001, 220.207 445.875, 217.302 448.618 C 215.486 450.333, 214 452.636, 214 453.735 C 214 454.964, 212.437 456.769, 209.941 458.421 C 206.416 460.753, 205.922 461.528, 206.191 464.303 C 206.439 466.870, 207.240 467.861, 210.250 469.332 C 212.312 470.340, 214 471.558, 214 472.038 C 214 472.518, 212.875 474.569, 211.500 476.595 C 210.125 478.621, 209 481.146, 209 482.205 C 209 485.140, 207.242 487.804, 204.225 489.441 C 202.399 490.432, 202.052 490.933, 203.173 490.960 C 204.094 490.982, 206.184 489.875, 207.818 488.500 C 211.644 485.280, 211.997 485.344, 212.015 489.250 C 212.024 491.038, 212.467 493.175, 213 494 C 213.717 495.109, 213.973 494.479, 213.985 491.579 C 213.993 489.361, 214.715 486.867, 215.646 485.839 C 216.551 484.839, 217.508 481.766, 217.773 479.010 C 218.038 476.255, 218.647 474, 219.127 474 C 221.286 474, 224 469.803, 224 466.465 C 224 464.520, 224.736 461.806, 225.637 460.432 C 226.857 458.570, 227.133 456.574, 226.721 452.586 L 226.169 447.238 229.165 448.369 C 233.495 450.003, 235.227 447.358, 234.813 439.748 C 234.641 436.585, 234.859 433.997, 235.298 433.998 C 238.941 434.006, 244.030 421.239, 242.621 415.625 C 241.472 411.049, 235.999 406.094, 226.905 401.397 C 217.040 396.302, 206.565 387.097, 205.414 382.514 C 204.578 379.182, 205.972 376.512, 208.551 376.505 C 210.568 376.500, 213.578 372.697, 222.156 359.320 C 230.466 346.361, 233.902 338.855, 236.069 328.926 C 237.479 322.466, 239.059 318.430, 241.893 314.044 L 245.782 308.027 246.468 311.681 C 247.679 318.134, 251.077 325.958, 255.596 332.698 C 258.018 336.310, 260 339.366, 260 339.490 C 260 339.614, 257.219 340.006, 253.819 340.361 C 243.993 341.388, 239.428 345.790, 241.928 351.825 C 244.204 357.320, 251.217 358.427, 262.145 355.017 C 265.640 353.926, 269.929 352.153, 271.675 351.077 L 274.849 349.121 276.411 351.505 C 277.631 353.367, 279.017 353.956, 282.737 354.195 L 287.500 354.500 287.162 359.227 C 286.559 367.658, 291.346 377.282, 297.096 379.199 C 299.763 380.088, 296.689 383.643, 290.947 386.311 C 281.613 390.648, 279.118 396.256, 282.624 405.018 C 283.796 407.947, 285.187 409.469, 287.624 410.487 C 290.064 411.507, 291.003 412.536, 291.012 414.199 C 291.028 417.393, 297.332 428.428, 299.367 428.827 C 300.489 429.047, 301.528 427.979, 302.532 425.577 C 303.354 423.610, 304.670 422, 305.457 422 C 307.617 422, 310 426.037, 310 429.697 C 310 432.299, 310.600 433.259, 313 434.500 C 314.650 435.353, 316 436.474, 316 436.991 C 316 438.856, 322.252 445, 324.150 445 C 325.262 445, 326.822 443.720, 327.797 442.006 C 329.841 438.413, 330.709 438.322, 335.010 441.250 C 340.031 444.667, 342.050 448.058, 342.637 454.059 C 343.155 459.349, 343.082 459.548, 340.011 461.246 C 336.398 463.243, 336.236 466.317, 339.719 466.814 C 342.139 467.160, 348.362 463.356, 350.597 460.166 C 352.991 456.747, 353.519 449.441, 351.585 446.490 C 349.007 442.555, 338.603 435.357, 332.748 433.456 C 324.153 430.666, 320.164 428.028, 318.942 424.323 C 318.188 422.040, 316.483 420.195, 313.520 418.459 C 310.928 416.940, 308.953 414.948, 308.585 413.483 C 308.248 412.139, 306.628 410.046, 304.986 408.831 C 301.553 406.294, 301.286 405.362, 303.764 404.575 C 304.734 404.267, 306.255 402.816, 307.145 401.350 C 308.188 399.631, 309.781 398.586, 311.631 398.406 C 317.117 397.873, 321.504 396.717, 322.235 395.612 C 323.605 393.539, 323.008 391.954, 320.500 391 C 317.400 389.821, 317.316 388.430, 320.250 386.887 C 321.488 386.237, 325.535 383.027, 329.244 379.754 C 334.912 374.754, 336.094 374.083, 336.656 375.546 C 337.132 376.785, 336.341 378.090, 333.912 380.076 C 332.035 381.609, 330.496 383.579, 330.491 384.453 C 330.485 385.327, 329.179 387.079, 327.589 388.348 C 325.229 390.229, 324.820 391.146, 325.367 393.327 C 326.171 396.531, 329.467 396.923, 333.127 394.250 C 334.445 393.288, 336.418 392.008, 337.511 391.408 C 338.605 390.807, 340.066 389.164, 340.757 387.757 C 342.315 384.585, 344 375.935, 344 371.106 C 344 368.137, 345.016 366.320, 349.649 361.008 C 356.174 353.526, 358.001 349.758, 357.999 343.782 L 357.997 339.500 362.249 339.500 C 365.784 339.500, 366.788 339.956, 368.212 342.212 C 369.166 343.723, 371.342 345.291, 373.130 345.754 C 374.893 346.211, 376.822 347.465, 377.418 348.542 C 378.013 349.619, 379.063 350.860, 379.750 351.300 C 380.438 351.740, 381 353.427, 381 355.050 C 381 358.295, 381.262 358.466, 383.993 357.004 C 385.017 356.456, 386.531 356.267, 387.358 356.584 C 388.801 357.138, 391.182 361.871, 391.591 365 C 391.699 365.825, 391.835 366.853, 391.894 367.285 C 391.952 367.717, 392.937 367.569, 394.083 366.955 C 397.504 365.125, 400.251 368.374, 399.824 373.744 C 399.545 377.251, 399.757 377.915, 400.992 377.401 C 405.570 375.496, 406 375.660, 406 379.318 C 406 384.294, 407.608 388, 409.768 388 C 411.075 388, 411.921 389.256, 412.783 392.479 C 413.666 395.778, 414.581 397.108, 416.263 397.530 C 418.449 398.078, 421 403.450, 421 407.503 C 421 408.621, 421.648 408.876, 423.382 408.440 C 425.407 407.932, 426.120 408.489, 428.148 412.166 C 429.460 414.543, 431.768 417.081, 433.278 417.805 C 434.788 418.528, 436.670 420.667, 437.460 422.558 C 438.250 424.449, 440.042 426.518, 441.442 427.156 C 442.843 427.794, 444.842 429.761, 445.884 431.528 C 446.926 433.295, 449.017 435.586, 450.529 436.620 C 452.042 437.654, 454.651 439.965, 456.328 441.755 C 459.734 445.391, 460.959 444.747, 460.985 439.309 C 460.993 437.554, 461.450 435.840, 462 435.500 C 462.550 435.160, 463 433.110, 463 430.944 C 463 427.848, 462.252 426.177, 459.500 423.132 C 457.575 421.001, 456 418.565, 456 417.718 C 456 415.906, 450.476 411, 448.437 411 C 447.661 411, 446.368 409.423, 445.562 407.495 C 444.715 405.468, 442.602 403.108, 440.549 401.896 C 438.597 400.745, 437 399.025, 437 398.076 C 437 395.522, 432.462 391.717, 429.277 391.601 C 427.107 391.522, 426.425 390.953, 426.159 389 C 425.732 385.874, 423.535 383.351, 420.598 382.614 C 419.358 382.303, 417.840 380.943, 417.224 379.593 C 416.609 378.243, 414.732 376.122, 413.053 374.881 C 411.374 373.640, 410 372.173, 410 371.622 C 410 371.072, 407.863 368.510, 405.250 365.930 C 396.381 357.172, 393 353.381, 393 352.195 C 393 350.872, 385.320 345, 383.590 345 C 382.159 345, 377 340.231, 377 338.909 C 377 338.353, 375.462 337.256, 373.583 336.470 C 371.704 335.685, 369.222 333.716, 368.067 332.093 C 366.911 330.471, 364.420 328.634, 362.531 328.010 C 360.641 327.387, 358.838 326.064, 358.522 325.070 C 358.207 324.077, 357.060 322.460, 355.974 321.477 C 353.399 319.146, 353.483 317.850, 356.500 313.405 C 359.865 308.446, 359.745 303.289, 355.933 289.071 L 352.869 277.641 355.969 270.917 C 361.345 259.253, 362.010 243.762, 358.438 213.397 C 356.281 195.056, 353.148 188.215, 342.066 177.644 C 338.820 174.549, 336.466 171.840, 336.833 171.626 C 337.200 171.411, 338.868 170.942, 340.540 170.584 C 342.213 170.226, 345.025 169.055, 346.790 167.981 C 349.932 166.071, 350 165.876, 349.985 158.765 C 349.934 133.575, 337.507 112.845, 296.701 69.882 C 286.453 59.092, 274.790 47.761, 270.784 44.701 C 257.129 34.273, 238.520 24.206, 217 15.606 C 209.575 12.638, 200.581 8.977, 197.012 7.469 C 191.228 5.026, 189.114 4.700, 177.512 4.466 C 170.356 4.322, 162.700 4.397, 160.500 4.634" fill="none" stroke="#000" stroke-width="2px" fill-rule="evenodd"/>
</svg>
