<svg xmlns="http://www.w3.org/2000/svg" width="472" height="500" viewBox="0 0 472 500" version="1.1">
	<path d="M 339.632 6.517 C 339.311 7.352, 337.679 17.590, 336.004 29.267 C 326.832 93.231, 316.037 137.175, 299.101 179.500 C 296.014 187.214, 295.141 188.542, 292.985 188.794 C 290.248 189.113, 285.651 185.611, 286.248 183.661 C 286.444 183.022, 288.033 181.825, 289.780 181 C 291.527 180.175, 292.966 179.212, 292.978 178.861 C 293.038 177.092, 289.109 173.930, 286.136 173.355 L 282.772 172.704 283.461 177.720 C 284.098 182.349, 283.948 182.896, 281.505 184.817 C 276.927 188.418, 271.130 188.597, 261.241 185.440 C 254.767 183.374, 249.796 182.535, 242.074 182.205 C 230.108 181.694, 229.004 182.305, 228.994 189.441 C 228.991 191.674, 228.520 195.187, 227.948 197.249 C 227.375 199.310, 226.590 206.047, 226.203 212.218 L 225.500 223.438 220.500 225.346 C 209.709 229.463, 208.060 230.344, 204.837 233.712 C 203.002 235.630, 199.025 238.792, 196 240.738 C 192.975 242.685, 186.352 247.842, 181.282 252.198 L 172.064 260.118 157.782 250.684 C 149.927 245.495, 138.955 238.905, 133.401 236.040 L 123.302 230.830 113.901 233.977 C 108.730 235.708, 95.698 241.776, 84.940 247.461 C 66.284 257.320, 65.152 257.775, 60.440 257.322 C 53.446 256.649, 50.451 255.281, 47.498 251.408 C 42.806 245.257, 37.514 243.855, 33.077 247.589 C 31.384 249.013, 30 250.903, 30 251.789 C 30 253.042, 30.267 253.133, 31.200 252.200 C 33.200 250.200, 40.409 250.747, 43.436 253.129 C 45.361 254.642, 45.833 255.567, 45.071 256.329 C 43.236 258.164, 43.817 258.669, 50.250 260.821 C 56.388 262.875, 67.351 263.982, 68.654 262.680 C 69.018 262.315, 69.948 262.542, 70.719 263.182 C 71.831 264.104, 72.631 263.799, 74.561 261.718 C 75.901 260.272, 80.036 257.331, 83.749 255.181 C 93.434 249.574, 116.331 238, 117.738 238 C 118.393 238, 119.392 238.864, 119.958 239.921 C 120.523 240.977, 126.726 244.871, 133.743 248.574 C 148.067 256.132, 158.768 262.766, 160.980 265.458 C 162.334 267.105, 162.062 267.620, 157.815 271.466 C 155.260 273.779, 150.045 277.806, 146.227 280.415 C 140.128 284.582, 138.354 285.274, 131.615 286.111 C 119.777 287.580, 107.928 292.180, 96.423 299.773 C 93.165 301.923, 81.962 308.559, 71.527 314.521 C 52.781 325.231, 52.459 325.368, 44.527 326.028 C 36.133 326.725, 30.432 328.566, 28.152 331.316 C 27.196 332.468, 26.986 334.482, 27.429 338.221 C 27.773 341.124, 28.067 345.067, 28.082 346.982 C 28.117 351.337, 30.257 353.770, 34.802 354.623 L 38.330 355.284 35.415 357.392 C 28.652 362.283, 18.350 372.593, 16.424 376.399 C 15.282 378.654, 12.677 383.200, 10.634 386.500 C 4.618 396.219, 4.583 399.092, 10.454 401.545 C 14.468 403.222, 26.832 403.482, 32.006 401.998 C 34.201 401.369, 35.617 401.351, 35.817 401.950 C 36.725 404.675, 41.017 409.792, 44.839 412.708 C 48.025 415.138, 50.183 416, 53.078 416 C 55.235 416, 57 416.243, 57 416.540 C 57 416.838, 56.022 418.404, 54.827 420.020 C 52.787 422.780, 52.756 423.073, 54.327 424.809 C 55.247 425.825, 56 427.647, 56 428.857 C 56 430.067, 57.353 432.507, 59.007 434.278 C 60.661 436.050, 63.059 438.806, 64.336 440.401 C 67.508 444.366, 69.238 443.764, 83.011 433.904 C 99.143 422.356, 114.472 413.353, 137.454 401.927 C 150.619 395.382, 157.744 392.344, 158.397 392.997 C 159.050 393.650, 158.497 394.925, 156.772 396.743 C 155.334 398.260, 152.945 402.469, 151.464 406.097 C 149.476 410.966, 148.080 412.972, 146.135 413.752 C 143.519 414.801, 143.516 414.814, 145.739 415.518 C 146.970 415.908, 147.719 416.646, 147.403 417.157 C 146.398 418.783, 149.139 421, 152.154 421 C 155.809 421, 156.746 418.787, 154.525 415.397 C 152.914 412.939, 152.926 412.703, 154.779 410.655 C 155.852 409.470, 157.949 406.378, 159.440 403.784 C 160.931 401.190, 164.856 396.724, 168.163 393.859 C 173.380 389.339, 174.119 388.267, 173.751 385.758 C 173.393 383.318, 174.015 382.302, 177.732 379.256 C 183.472 374.553, 196.396 359.120, 199.112 353.725 C 200.283 351.401, 204.024 346.575, 207.426 343 C 210.829 339.425, 215.771 333.012, 218.410 328.750 C 221.048 324.487, 223.745 321, 224.404 321 C 226.251 321, 228 323.178, 228 325.477 C 228 326.620, 228.745 328.619, 229.656 329.920 C 231.732 332.883, 231.678 337.971, 229.438 350.631 C 227.851 359.593, 227.651 364.349, 227.926 386.456 C 227.974 390.282, 227.510 396.132, 226.894 399.456 C 226.279 402.780, 225.416 409.100, 224.978 413.500 C 224.080 422.515, 221.589 433.030, 217.042 447 C 215.323 452.283, 213.743 459.607, 213.483 463.500 C 213.227 467.350, 212.745 471.474, 212.414 472.664 C 211.982 474.217, 212.391 475.139, 213.862 475.926 C 214.990 476.530, 216.380 478.706, 216.951 480.762 C 217.839 483.959, 217.696 484.898, 215.965 487.250 C 214.293 489.521, 214.209 490, 215.484 490 C 216.333 490, 217.884 490.535, 218.932 491.190 C 220.427 492.123, 221.179 492.097, 222.419 491.067 C 224.677 489.193, 224.393 486.533, 220.998 477.807 C 218.805 472.168, 218.234 469.499, 218.861 467.807 C 219.331 466.538, 220.025 463.098, 220.404 460.163 C 220.782 457.227, 221.516 454.077, 222.034 453.163 C 222.552 452.248, 224.075 446.325, 225.418 440 C 228.876 423.716, 228.816 424.060, 231.075 407.500 C 234.410 383.056, 234.789 380.656, 235.875 377.159 C 237.576 371.681, 239.205 350.708, 239.415 331.601 L 239.610 313.702 242.805 310.550 C 244.562 308.817, 246 306.703, 246 305.854 C 246 305.005, 246.867 303.525, 247.927 302.566 C 248.987 301.607, 250.169 298.957, 250.554 296.678 C 251.505 291.051, 253.293 289.875, 259.761 290.624 C 262.655 290.959, 266.255 290.775, 267.761 290.215 C 269.268 289.655, 274.550 288.659, 279.500 288.001 C 284.450 287.344, 295.181 285.725, 303.346 284.403 C 311.512 283.081, 320.062 282.026, 322.346 282.058 C 326.699 282.118, 334.411 284.071, 347 288.301 C 360.683 292.898, 365.355 293.929, 369.750 293.323 C 373.433 292.815, 374 292.410, 374 290.289 C 374 288.107, 374.326 287.904, 377 288.421 C 378.650 288.739, 381.349 289.261, 382.999 289.579 C 384.648 289.898, 386.651 291.092, 387.450 292.233 C 388.897 294.298, 388.908 294.295, 390.078 291.727 C 391.472 288.670, 390.641 284.460, 388.482 283.631 C 387.637 283.307, 382.571 283.905, 377.223 284.960 C 371.153 286.158, 367.143 286.526, 366.550 285.939 C 366.027 285.423, 363.722 285, 361.427 285 C 359.132 285, 355.285 284.134, 352.877 283.075 C 350.470 282.016, 342.426 279.970, 335.003 278.528 C 327.580 277.086, 321.077 275.477, 320.553 274.953 C 318.953 273.353, 305.963 273.903, 297.500 275.930 C 293.100 276.984, 285.526 278.590, 280.669 279.499 C 272.601 281.009, 271.551 281.015, 268.513 279.573 C 263.758 277.317, 264.790 275.149, 273.856 268.351 C 278.060 265.199, 282.074 261.917, 282.776 261.060 C 284.765 258.629, 290.583 246.937, 292.012 242.500 C 292.744 240.227, 295.127 236.773, 297.533 234.500 C 302.002 230.278, 304 224.568, 304 216.018 C 304 213.002, 304.451 211.992, 306.017 211.495 C 307.126 211.143, 308.907 209.142, 309.975 207.049 C 312.046 202.989, 318.884 196.440, 323.610 193.989 C 325.189 193.170, 328.961 190.877, 331.991 188.893 C 335.021 186.909, 346.950 180.517, 358.500 174.688 C 386.463 160.577, 408.675 148.195, 430.500 134.553 C 440.400 128.364, 451.738 121.397, 455.695 119.069 C 463.116 114.705, 465.754 112.420, 464.649 111.316 C 463.337 110.004, 455.955 113.202, 445.401 119.653 C 409.177 141.796, 395.029 150.072, 374 161.419 C 361.075 168.393, 345.358 176.587, 339.073 179.628 C 328.668 184.661, 323.726 187.937, 312.750 197.073 C 309.893 199.451, 309 199.806, 309 198.564 C 309 197.667, 307.425 195.358, 305.500 193.433 C 303.575 191.508, 302 189.345, 302 188.626 C 302 187.908, 303.311 184.660, 304.914 181.410 C 311.144 168.774, 326 117.891, 332.474 87.018 C 337.653 62.318, 343.641 11.815, 341.925 7.302 C 340.900 4.606, 340.427 4.444, 339.632 6.517 M 240.614 193.685 C 240.251 196.883, 239.295 201.975, 238.489 205 C 236.779 211.418, 236.596 215.632, 237.989 216.493 C 241.240 218.503, 256.713 205.697, 259.993 198.282 C 261.088 195.807, 261.775 193.444, 261.519 193.031 C 260.972 192.145, 251.267 189.426, 245.387 188.511 L 241.273 187.870 240.614 193.685" fill="none" stroke="#000" stroke-width="2px" fill-rule="evenodd"/>
</svg>
