<svg xmlns="http://www.w3.org/2000/svg" width="285" height="209" viewBox="0 0 285 209" version="1.1">
	<path d="M 171.113 4.483 C 168.336 8.861, 166 16.440, 166 21.069 C 166 22.412, 163.763 24.487, 158.981 27.581 L 151.963 32.121 149.086 29.811 C 147.505 28.540, 145.999 26.478, 145.740 25.230 C 145.309 23.150, 145.542 23.011, 148.530 23.572 C 153.381 24.482, 156.188 22.597, 155.808 18.685 C 155.558 16.101, 154.776 15.163, 151.649 13.696 C 147.987 11.978, 147.827 11.708, 148.383 8.195 C 148.819 5.439, 148.735 5.047, 148.052 6.654 C 147.299 8.424, 146.136 8.869, 141.523 9.154 C 136.397 9.470, 135.861 9.305, 135.347 7.250 C 135.037 6.012, 134.393 5, 133.916 5 C 133.440 5, 133.476 6.121, 133.997 7.491 C 135.289 10.891, 134.515 12.384, 130.456 14.320 C 127.691 15.638, 127 16.546, 127 18.861 C 127 22.892, 129.169 24.388, 133.911 23.630 C 137.508 23.055, 137.769 23.169, 137.264 25.100 C 136.963 26.251, 135.654 28.255, 134.356 29.553 L 131.997 31.913 125.986 28.332 C 122.244 26.103, 119.827 23.950, 119.580 22.626 C 117.340 10.581, 116.725 8.983, 111.287 1.083 C 111.129 0.854, 110.787 0.880, 110.526 1.140 C 110.266 1.401, 111.120 3.184, 112.424 5.103 C 113.838 7.184, 115.428 11.947, 116.363 16.902 C 118.142 26.335, 118.466 26.863, 125.137 31.185 C 127.811 32.919, 129.993 34.599, 129.985 34.918 C 129.937 36.726, 127.608 38.465, 122.397 40.583 C 115.329 43.456, 115.323 43.452, 111.546 32.500 C 110.028 28.100, 108.304 23.908, 107.716 23.184 C 106.148 21.256, 101 18.776, 101 19.949 C 101 20.499, 102.286 21.614, 103.859 22.427 C 106.191 23.633, 107.203 25.417, 109.358 32.119 C 110.811 36.637, 111.829 40.504, 111.621 40.712 C 111.141 41.192, 66.508 32.143, 63.259 30.908 C 59.682 29.548, 37.990 24.155, 33.439 23.494 C 18.610 21.340, 9.766 21.465, 5 23.896 C 0.624 26.128, -0.150 29.894, 3.083 33.223 C 4.299 34.475, 4.933 34.868, 4.493 34.095 C 3.938 33.124, 4.068 32.924, 4.914 33.447 C 5.586 33.862, 5.876 34.882, 5.557 35.712 C 5.170 36.720, 5.439 37.045, 6.364 36.690 C 7.228 36.359, 7.704 36.789, 7.626 37.829 C 7.550 38.833, 8.183 39.447, 9.211 39.368 C 10.152 39.295, 10.827 39.640, 10.711 40.136 C 10.595 40.631, 12.277 42.040, 14.448 43.268 C 16.620 44.496, 19.207 46.288, 20.198 47.250 C 21.189 48.213, 22.450 49.056, 23 49.125 C 23.550 49.194, 24.466 49.306, 25.036 49.375 C 25.607 49.444, 26.394 49.999, 26.786 50.608 C 27.179 51.218, 28.288 51.595, 29.250 51.447 C 30.212 51.298, 31 51.598, 31 52.113 C 31 52.628, 32.126 53.478, 33.503 54.001 C 34.880 54.525, 37.917 55.817, 40.253 56.873 C 44.693 58.880, 56.740 62.816, 60.950 63.635 C 62.298 63.897, 66.489 64.762, 70.265 65.556 C 79.096 67.413, 95.446 67.545, 94.367 65.750 C 93.832 64.859, 94.089 64.883, 95.264 65.836 C 96.171 66.571, 97.270 66.951, 97.708 66.680 C 98.146 66.410, 100.528 66.067, 103.002 65.918 C 105.476 65.769, 108.063 65.222, 108.750 64.701 C 109.587 64.067, 110 64.166, 110 65 C 110 65.993, 110.303 65.993, 111.500 65 C 112.508 64.163, 113 64.117, 113 64.859 C 113 65.465, 111.987 66.173, 110.750 66.431 C 109.513 66.689, 101.300 68.467, 92.500 70.380 C 80.199 73.056, 73.263 73.984, 62.500 74.394 C 46.371 75.010, 26.545 77.410, 19.973 79.543 C 17.483 80.352, 13.770 82.151, 11.723 83.542 C 6.843 86.858, 6.778 89.982, 11.496 94.432 C 14.705 97.458, 24.701 102, 28.153 102 C 28.949 102, 30.027 102.403, 30.550 102.894 C 31.072 103.386, 33.975 104.102, 37 104.485 C 40.025 104.867, 43.850 105.358, 45.500 105.576 C 55.824 106.938, 79.050 107.473, 90.500 106.613 C 101.935 105.754, 103.433 105.464, 114 102.066 C 119.225 100.386, 124.089 99.009, 124.809 99.006 C 125.529 99.003, 125.871 98.601, 125.570 98.113 C 125.268 97.625, 125.579 97.246, 126.261 97.270 C 130.802 97.434, 132.212 96.918, 131.784 95.250 C 131.537 94.287, 131.953 92.150, 132.710 90.500 C 133.965 87.761, 134.030 88.196, 133.455 95.500 C 131.991 114.096, 132.030 135.413, 133.550 146.905 C 134.393 153.282, 135.697 163.225, 136.449 169 C 138.265 182.963, 139.974 193.750, 141.020 197.850 C 141.527 199.837, 141.481 202.234, 140.909 203.739 C 139.816 206.613, 140.624 208.209, 142.039 205.971 C 142.551 205.162, 142.976 204.967, 142.985 205.537 C 142.993 206.108, 143.888 206.641, 144.972 206.723 C 146.624 206.847, 146.926 206.273, 146.828 203.186 C 146.763 201.159, 147.466 195.675, 148.390 191 C 150.388 180.887, 151.597 173.440, 152.431 166.117 C 152.768 163.157, 153.531 156.632, 154.126 151.617 C 155.698 138.373, 156.021 122.016, 154.946 110 C 153.556 94.449, 152.108 80.895, 151.473 77.500 C 151.092 75.460, 151.204 74.980, 151.822 76 C 152.833 77.669, 154.212 86.350, 154.443 92.500 C 154.559 95.604, 154.975 96.469, 156.297 96.361 C 157.233 96.285, 158 96.622, 158 97.111 C 158 97.600, 158.338 97.927, 158.750 97.839 C 159.162 97.750, 160.775 98.203, 162.334 98.846 C 163.893 99.488, 165.549 99.779, 166.015 99.491 C 166.481 99.203, 167.144 99.425, 167.490 99.984 C 167.835 100.543, 168.879 101.003, 169.809 101.006 C 170.739 101.010, 172.789 101.685, 174.364 102.506 C 175.940 103.328, 178.107 104, 179.180 104 C 180.253 104, 182.002 104.466, 183.066 105.035 C 184.352 105.724, 185 105.732, 185 105.060 C 185 104.443, 185.876 104.359, 187.250 104.846 C 193.017 106.888, 226.774 106.750, 240.500 104.630 C 242.700 104.290, 245.850 103.808, 247.500 103.559 C 253.650 102.631, 256.508 101.859, 256.798 101.047 C 256.962 100.588, 257.932 100.431, 258.953 100.698 C 259.975 100.965, 262.316 100.503, 264.155 99.671 C 265.995 98.840, 268.515 97.867, 269.755 97.510 C 272.966 96.587, 278.007 92.112, 279.113 89.204 C 281.229 83.637, 272.102 77.722, 258.794 76.036 C 254.556 75.500, 249.944 74.773, 248.544 74.422 C 246.757 73.973, 245.995 74.187, 245.985 75.142 C 245.972 76.267, 245.824 76.271, 245.124 75.166 C 244.497 74.177, 239.139 73.615, 224.389 72.990 C 207.713 72.284, 201.780 71.583, 187.663 68.653 C 178.402 66.731, 170.664 64.997, 170.467 64.800 C 170.270 64.603, 170.527 63.780, 171.039 62.971 C 171.806 61.758, 171.972 61.829, 171.985 63.372 C 171.997 64.923, 172.258 65.031, 173.500 64 C 174.639 63.055, 175 63.043, 175 63.953 C 175 64.650, 176.151 65.053, 177.750 64.917 C 180.643 64.671, 191.181 65.794, 194.375 66.689 C 195.407 66.978, 196.013 66.829, 195.724 66.357 C 195.434 65.886, 198.415 65.449, 202.349 65.386 C 210.903 65.250, 218.373 64.115, 218.835 62.881 C 219.020 62.390, 219.506 62.194, 219.915 62.447 C 220.324 62.700, 222.873 62.223, 225.579 61.386 C 228.286 60.550, 231.175 59.683, 232 59.461 C 236.814 58.163, 243.548 55.521, 243.833 54.819 C 244.017 54.369, 244.627 54, 245.190 54 C 247.672 54, 258.994 47.800, 258.367 46.784 C 257.978 46.156, 258.150 45.975, 258.770 46.358 C 260.090 47.174, 271.480 40.643, 275.205 36.936 C 276.693 35.455, 278.211 34.526, 278.579 34.872 C 278.947 35.217, 278.972 34.375, 278.633 33 C 278.295 31.625, 278.277 31.063, 278.593 31.750 C 279.428 33.568, 281.324 33.286, 280.618 31.448 C 280.291 30.594, 280.417 30.140, 280.898 30.437 C 282.275 31.288, 284.250 28.263, 284.250 25.303 C 284.250 23.624, 283.242 21.744, 281.569 20.306 C 276.557 15.995, 258.490 17.466, 234.699 24.123 C 228.758 25.785, 222.397 27.772, 220.563 28.538 C 218.730 29.304, 210.090 31.524, 201.365 33.470 C 192.639 35.416, 183.046 37.665, 180.047 38.467 C 177.047 39.270, 174.520 39.830, 174.431 39.713 C 174.342 39.596, 175.446 35.764, 176.884 31.198 C 179.076 24.241, 180.034 22.559, 182.792 20.823 C 186.457 18.516, 186.490 17.155, 182.836 19.047 C 178.339 21.376, 177.103 23.265, 174.312 32.073 C 172.598 37.483, 170.914 41.072, 170 41.263 C 167.740 41.734, 154.912 37.475, 153.962 35.938 C 153.368 34.977, 154.462 33.828, 157.816 31.893 C 160.392 30.407, 163.491 28.251, 164.701 27.102 C 166.905 25.010, 168.984 19.344, 168.994 15.399 C 169.003 12.354, 171.037 6.920, 173.351 3.762 C 174.455 2.257, 175.075 0.742, 174.730 0.397 C 174.385 0.052, 172.757 1.890, 171.113 4.483 M 275.079 20.583 C 275.127 21.748, 275.364 21.985, 275.683 21.188 C 275.972 20.466, 275.936 19.603, 275.604 19.271 C 275.272 18.939, 275.036 19.529, 275.079 20.583 M 279.500 22 C 279.160 22.550, 279.359 23, 279.941 23 C 280.523 23, 281 22.550, 281 22 C 281 21.450, 280.802 21, 280.559 21 C 280.316 21, 279.840 21.450, 279.500 22 M 250 23 C 250 23.550, 250.477 24, 251.059 24 C 251.641 24, 251.840 23.550, 251.500 23 C 251.160 22.450, 250.684 22, 250.441 22 C 250.198 22, 250 22.450, 250 23 M 245.500 24 C 245.840 24.550, 246.568 25, 247.118 25 C 247.668 25, 247.840 24.550, 247.500 24 C 247.160 23.450, 246.432 23, 245.882 23 C 245.332 23, 245.160 23.450, 245.500 24 M 237 25.393 C 237 25.609, 237.675 26.045, 238.500 26.362 C 239.325 26.678, 240 26.501, 240 25.969 C 240 25.436, 239.325 25, 238.500 25 C 237.675 25, 237 25.177, 237 25.393 M 233 26.393 C 233 26.609, 233.675 27.045, 234.500 27.362 C 235.325 27.678, 236 27.501, 236 26.969 C 236 26.436, 235.325 26, 234.500 26 C 233.675 26, 233 26.177, 233 26.393 M 42.344 29.509 C 41.707 30.880, 41.593 31.752, 42.088 31.446 C 43.407 30.630, 45.205 26.999, 44.285 27.008 C 43.853 27.012, 42.980 28.138, 42.344 29.509 M 230 27.941 C 230 28.459, 230.375 29.114, 230.833 29.397 C 231.292 29.680, 231.667 29.257, 231.667 28.456 C 231.667 27.655, 231.292 27, 230.833 27 C 230.375 27, 230 27.423, 230 27.941 M 46.700 29.341 C 46.417 30.078, 46.587 31.316, 47.077 32.091 C 47.625 32.955, 47.975 33.049, 47.985 32.332 C 47.993 31.689, 48.273 30.452, 48.607 29.582 C 48.941 28.712, 48.764 28, 48.214 28 C 47.664 28, 46.982 28.603, 46.700 29.341 M 223.832 29.355 C 221.814 29.985, 219.827 30.837, 219.415 31.250 C 219.003 31.663, 217.643 32, 216.392 32 C 213.323 32, 212.393 33.826, 214.436 35.846 C 215.992 37.385, 216.062 37.379, 215.447 35.750 C 215.083 34.788, 215.122 34, 215.533 34 C 215.943 34, 216.915 34.788, 217.692 35.750 C 219.001 37.374, 219.062 37.346, 218.522 35.368 C 217.969 33.342, 220.317 31.154, 221.271 32.806 C 221.492 33.188, 221.535 32.938, 221.367 32.250 C 221.200 31.563, 221.611 30.994, 222.281 30.986 C 222.952 30.979, 224.583 30.683, 225.906 30.329 C 227.795 29.823, 228.137 29.988, 227.496 31.092 C 227.047 31.867, 227.064 32.150, 227.535 31.721 C 228.587 30.764, 229.073 27.960, 228.162 28.105 C 227.798 28.163, 225.849 28.725, 223.832 29.355 M 240 28.393 C 240 28.609, 240.698 29.054, 241.552 29.382 C 242.442 29.723, 242.843 29.555, 242.493 28.989 C 241.906 28.038, 240 27.583, 240 28.393 M 50.638 30.500 C 50.955 31.325, 51.391 32, 51.607 32 C 51.823 32, 52 31.325, 52 30.500 C 52 29.675, 51.564 29, 51.031 29 C 50.499 29, 50.322 29.675, 50.638 30.500 M 236.564 30.707 C 236.022 32.132, 236.136 32.247, 237.124 31.267 C 237.808 30.588, 238.115 29.781, 237.807 29.474 C 237.499 29.166, 236.940 29.721, 236.564 30.707 M 14.507 30.989 C 14.157 31.555, 14.558 31.723, 15.448 31.382 C 17.180 30.717, 17.497 30, 16.059 30 C 15.541 30, 14.843 30.445, 14.507 30.989 M 54 31.559 C 54 32.416, 54.457 32.835, 55.016 32.490 C 55.575 32.144, 55.774 31.443, 55.457 30.931 C 54.600 29.544, 54 29.802, 54 31.559 M 269.656 32.545 C 269.960 33.339, 270.612 33.740, 271.105 33.435 C 272.345 32.669, 272.231 32.303, 270.551 31.658 C 269.584 31.287, 269.286 31.582, 269.656 32.545 M 57.813 32.683 C 58.534 32.972, 59.397 32.936, 59.729 32.604 C 60.061 32.272, 59.471 32.036, 58.417 32.079 C 57.252 32.127, 57.015 32.364, 57.813 32.683 M 61 32.997 C 61 33.687, 68.119 37, 69.604 37 C 69.913 37, 69.993 36.480, 69.782 35.845 C 69.338 34.515, 61 31.811, 61 32.997 M 240 34.941 C 240 35.459, 240.445 36.157, 240.989 36.493 C 241.555 36.843, 241.723 36.442, 241.382 35.552 C 240.717 33.820, 240 33.503, 240 34.941 M 60 35.941 C 60 36.459, 60.375 37.114, 60.833 37.397 C 61.292 37.680, 61.667 37.257, 61.667 36.456 C 61.667 35.655, 61.292 35, 60.833 35 C 60.375 35, 60 35.423, 60 35.941 M 246 36 C 246 36.550, 246.477 37, 247.059 37 C 247.641 37, 247.840 36.550, 247.500 36 C 247.160 35.450, 246.684 35, 246.441 35 C 246.198 35, 246 35.450, 246 36 M 196.750 36.662 C 197.438 36.940, 198.563 36.940, 199.250 36.662 C 199.938 36.385, 199.375 36.158, 198 36.158 C 196.625 36.158, 196.063 36.385, 196.750 36.662 M 207 37.500 C 207 38.325, 207.661 39, 208.469 39 C 209.363 39, 209.712 38.414, 209.362 37.500 C 209.045 36.675, 208.384 36, 207.893 36 C 207.402 36, 207 36.675, 207 37.500 M 210.500 37 C 210.840 37.550, 211.879 37.993, 212.809 37.985 C 214.266 37.971, 214.293 37.835, 213 37 C 211.042 35.734, 209.718 35.734, 210.500 37 M 226 37.500 C 226 38.325, 226.177 39, 226.393 39 C 226.609 39, 227.045 38.325, 227.362 37.500 C 227.678 36.675, 227.501 36, 226.969 36 C 226.436 36, 226 36.675, 226 37.500 M 70.020 38.476 C 69.231 39.426, 69.155 40, 69.819 40 C 71.027 40, 72.436 38.103, 71.743 37.409 C 71.491 37.158, 70.716 37.638, 70.020 38.476 M 204 38.500 C 204 39.325, 204.436 40, 204.969 40 C 205.501 40, 205.678 39.325, 205.362 38.500 C 205.045 37.675, 204.609 37, 204.393 37 C 204.177 37, 204 37.675, 204 38.500 M 73 38.918 C 73 39.423, 72.706 40.603, 72.346 41.540 C 71.755 43.082, 71.892 43.073, 73.795 41.443 C 74.951 40.453, 75.669 39.274, 75.390 38.822 C 74.702 37.709, 73 37.778, 73 38.918 M 87 39.059 C 87 39.641, 87.450 39.840, 88 39.500 C 88.550 39.160, 89 38.684, 89 38.441 C 89 38.198, 88.550 38, 88 38 C 87.450 38, 87 38.477, 87 39.059 M 216.195 40.500 C 216.215 42.150, 216.439 42.704, 216.693 41.731 C 216.947 40.758, 216.930 39.408, 216.656 38.731 C 216.382 38.054, 216.175 38.850, 216.195 40.500 M 77 40.559 C 77 41.416, 77.457 41.835, 78.016 41.490 C 78.575 41.144, 78.774 40.443, 78.457 39.931 C 77.600 38.544, 77 38.802, 77 40.559 M 90 40.418 C 90 41.198, 89.727 42.548, 89.393 43.418 C 89.059 44.288, 89.233 45, 89.780 45 C 90.326 45, 90.971 43.650, 91.213 42 C 91.455 40.350, 91.282 39, 90.827 39 C 90.372 39, 90 39.638, 90 40.418 M 185.638 40.500 C 185.955 41.325, 186.391 42, 186.607 42 C 186.823 42, 187 41.325, 187 40.500 C 187 39.675, 186.564 39, 186.031 39 C 185.499 39, 185.322 39.675, 185.638 40.500 M 194.418 40.332 C 194.738 41.339, 195 42.577, 195 43.082 C 195 43.587, 195.450 44, 196 44 C 197.448 44, 197.230 42.664, 195.418 40.441 C 193.971 38.665, 193.886 38.656, 194.418 40.332 M 200.636 40.494 C 200.952 41.316, 201.620 41.735, 202.121 41.425 C 203.170 40.777, 202.328 39, 200.972 39 C 200.472 39, 200.321 39.672, 200.636 40.494 M 80 41.559 C 80 42.416, 80.450 42.840, 81 42.500 C 81.550 42.160, 82 41.459, 82 40.941 C 82 40.423, 81.550 40, 81 40 C 80.450 40, 80 40.702, 80 41.559 M 96.079 41.583 C 96.127 42.748, 96.364 42.985, 96.683 42.188 C 96.972 41.466, 96.936 40.603, 96.604 40.271 C 96.272 39.939, 96.036 40.529, 96.079 41.583 M 181.015 40.750 C 181.024 41.163, 181.516 42.175, 182.110 43 C 183.032 44.282, 183.110 44.255, 182.651 42.815 C 182.355 41.888, 182.650 40.911, 183.306 40.644 C 183.963 40.376, 183.713 40.122, 182.750 40.079 C 181.787 40.036, 181.007 40.337, 181.015 40.750 M 198 41.441 C 198 42.298, 198.450 43, 199 43 C 199.550 43, 200 42.577, 200 42.059 C 200 41.541, 199.550 40.840, 199 40.500 C 198.450 40.160, 198 40.584, 198 41.441 M 219.079 41.583 C 219.127 42.748, 219.364 42.985, 219.683 42.188 C 219.972 41.466, 219.936 40.603, 219.604 40.271 C 219.272 39.939, 219.036 40.529, 219.079 41.583 M 222.158 42 C 222.158 43.375, 222.385 43.938, 222.662 43.250 C 222.940 42.563, 222.940 41.438, 222.662 40.750 C 222.385 40.063, 222.158 40.625, 222.158 42 M 236.089 42.167 C 236.629 43.175, 237.183 44, 237.321 44 C 237.459 44, 237.571 43.175, 237.571 42.167 C 237.571 41.158, 237.017 40.333, 236.340 40.333 C 235.455 40.333, 235.385 40.850, 236.089 42.167 M 83.015 43.250 C 83.028 45.069, 83.216 45.213, 84 44 C 85.253 42.061, 85.253 41, 84 41 C 83.450 41, 83.007 42.013, 83.015 43.250 M 86.531 42.293 C 86.103 43.279, 86.034 44.367, 86.376 44.710 C 87.392 45.725, 88.211 44.299, 87.743 42.328 C 87.329 40.581, 87.275 40.580, 86.531 42.293 M 99 42 C 99 42.550, 99.450 43, 100 43 C 100.550 43, 101 42.550, 101 42 C 101 41.450, 100.550 41, 100 41 C 99.450 41, 99 41.450, 99 42 M 154.664 43.178 C 153.872 46.207, 154.278 46.391, 158.435 44.887 C 162.032 43.587, 161.828 42.953, 157.374 41.593 C 155.726 41.090, 155.116 41.447, 154.664 43.178 M 175 41.882 C 175 42.432, 175.450 43.160, 176 43.500 C 176.550 43.840, 177 43.668, 177 43.118 C 177 42.568, 176.550 41.840, 176 41.500 C 175.450 41.160, 175 41.332, 175 41.882 M 178.638 42.500 C 178.955 43.325, 179.391 44, 179.607 44 C 179.823 44, 180 43.325, 180 42.500 C 180 41.675, 179.564 41, 179.031 41 C 178.499 41, 178.322 41.675, 178.638 42.500 M 191.638 42.500 C 191.955 43.325, 192.602 44, 193.076 44 C 193.549 44, 193.678 43.325, 193.362 42.500 C 193.045 41.675, 192.398 41, 191.924 41 C 191.451 41, 191.322 41.675, 191.638 42.500 M 103.079 43.583 C 103.127 44.748, 103.364 44.985, 103.683 44.188 C 103.972 43.466, 103.936 42.603, 103.604 42.271 C 103.272 41.939, 103.036 42.529, 103.079 43.583 M 106.158 44 C 106.158 45.375, 106.385 45.938, 106.662 45.250 C 106.940 44.563, 106.940 43.438, 106.662 42.750 C 106.385 42.063, 106.158 42.625, 106.158 44 M 125 43.174 L 122.500 44.222 126 45.478 C 127.925 46.169, 129.595 46.662, 129.710 46.573 C 130.187 46.209, 128.717 42.005, 128.133 42.063 C 127.785 42.098, 126.375 42.598, 125 43.174 M 188.525 42.960 C 187.677 44.332, 188.428 45.362, 189.905 44.854 C 190.511 44.646, 190.588 43.940, 190.093 43.143 C 189.468 42.137, 189.063 42.090, 188.525 42.960 M 109 44.500 C 109 45.325, 109.177 46, 109.393 46 C 109.609 46, 110.045 45.325, 110.362 44.500 C 110.678 43.675, 110.501 43, 109.969 43 C 109.436 43, 109 43.675, 109 44.500 M 185 44 C 185 44.550, 185.477 45, 186.059 45 C 186.641 45, 186.840 44.550, 186.500 44 C 186.160 43.450, 185.684 43, 185.441 43 C 185.198 43, 185 43.450, 185 44 M 92 45 C 92 45.550, 92.450 46, 93 46 C 93.550 46, 94 45.550, 94 45 C 94 44.450, 93.550 44, 93 44 C 92.450 44, 92 44.450, 92 45 M 99 45.322 C 99 46.127, 99.675 47.045, 100.500 47.362 C 101.325 47.678, 102 47.694, 102 47.397 C 102 47.100, 101.325 46.182, 100.500 45.357 C 99.199 44.056, 99 44.051, 99 45.322 M 112 45.441 C 112 46.298, 112.450 47, 113 47 C 113.550 47, 114 46.577, 114 46.059 C 114 45.541, 113.550 44.840, 113 44.500 C 112.450 44.160, 112 44.584, 112 45.441 M 215.500 45 C 215.160 45.550, 215.359 46, 215.941 46 C 216.523 46, 217 45.550, 217 45 C 217 44.450, 216.802 44, 216.559 44 C 216.316 44, 215.840 44.450, 215.500 45 M 36.549 46.734 C 36.147 47.782, 36.494 47.813, 38.273 46.888 C 41.407 45.257, 41.498 45.087, 39.139 45.264 C 37.991 45.351, 36.826 46.012, 36.549 46.734 M 181 45.969 C 181 46.501, 181.675 46.678, 182.500 46.362 C 183.325 46.045, 184 45.609, 184 45.393 C 184 45.177, 183.325 45, 182.500 45 C 181.675 45, 181 45.436, 181 45.969 M 115.500 47 C 115.160 47.550, 115.359 48, 115.941 48 C 116.523 48, 117 47.550, 117 47 C 117 46.450, 116.802 46, 116.559 46 C 116.316 46, 115.840 46.450, 115.500 47 M 157.750 47.299 C 155.232 48.295, 153.960 50.008, 155.750 49.994 C 158.006 49.978, 164 47.768, 164 46.953 C 164 45.747, 161.301 45.896, 157.750 47.299 M 177.500 47 C 177.840 47.550, 178.316 48, 178.559 48 C 178.802 48, 179 47.550, 179 47 C 179 46.450, 178.523 46, 177.941 46 C 177.359 46, 177.160 46.450, 177.500 47 M 249.333 47.500 C 249.333 48.220, 249.933 48.579, 250.667 48.298 C 251.400 48.016, 252 47.657, 252 47.500 C 252 47.343, 251.400 46.984, 250.667 46.702 C 249.933 46.421, 249.333 46.780, 249.333 47.500 M 31.166 47.876 C 30.068 48.572, 30.083 48.818, 31.249 49.265 C 32.058 49.576, 32.667 49.206, 32.667 48.405 C 32.667 47.632, 32.629 47.007, 32.583 47.015 C 32.538 47.024, 31.900 47.411, 31.166 47.876 M 88.500 49 C 89.495 50.100, 90.469 51, 90.663 51 C 90.858 51, 90.455 50.100, 89.768 49 C 89.081 47.900, 88.107 47, 87.604 47 C 87.102 47, 87.505 47.900, 88.500 49 M 103.500 48 C 103.840 48.550, 104.316 49, 104.559 49 C 104.802 49, 105 48.550, 105 48 C 105 47.450, 104.523 47, 103.941 47 C 103.359 47, 103.160 47.450, 103.500 48 M 119 47.953 C 119 48.768, 124.994 50.978, 127.250 50.994 C 129.246 51.009, 127.640 49.070, 124.851 48.098 C 120.978 46.748, 119 46.699, 119 47.953 M 185 47.941 C 185 48.459, 185.450 49.160, 186 49.500 C 186.550 49.840, 187 49.416, 187 48.559 C 187 47.702, 186.550 47, 186 47 C 185.450 47, 185 47.423, 185 47.941 M 188.638 48.500 C 188.955 49.325, 189.391 50, 189.607 50 C 189.823 50, 190 49.325, 190 48.500 C 190 47.675, 189.564 47, 189.031 47 C 188.499 47, 188.322 47.675, 188.638 48.500 M 42 49 C 41.175 49.533, 40.950 49.969, 41.500 49.969 C 42.050 49.969, 43.175 49.533, 44 49 C 44.825 48.467, 45.050 48.031, 44.500 48.031 C 43.950 48.031, 42.825 48.467, 42 49 M 93.079 49.583 C 93.127 50.748, 93.364 50.985, 93.683 50.188 C 93.972 49.466, 93.936 48.603, 93.604 48.271 C 93.272 47.939, 93.036 48.529, 93.079 49.583 M 107 49.059 C 107 49.641, 107.450 49.840, 108 49.500 C 108.550 49.160, 109 48.684, 109 48.441 C 109 48.198, 108.550 48, 108 48 C 107.450 48, 107 48.477, 107 49.059 M 167.793 49.550 C 166.304 50.358, 162.704 51.662, 159.793 52.448 L 154.500 53.877 162.500 53.301 C 171.443 52.657, 174.201 51.688, 173.356 49.485 C 172.649 47.644, 171.274 47.660, 167.793 49.550 M 70.813 49.683 C 71.534 49.972, 72.397 49.936, 72.729 49.604 C 73.061 49.272, 72.471 49.036, 71.417 49.079 C 70.252 49.127, 70.015 49.364, 70.813 49.683 M 96 50.059 C 96 50.641, 96.450 50.840, 97 50.500 C 97.550 50.160, 98 49.684, 98 49.441 C 98 49.198, 97.550 49, 97 49 C 96.450 49, 96 49.477, 96 50.059 M 109.606 50.586 C 108.641 53.099, 109.407 53.412, 117.304 53.733 L 124.500 54.025 119 52.139 C 115.975 51.102, 112.771 49.945, 111.879 49.569 C 110.828 49.125, 110.029 49.483, 109.606 50.586 M 243 50.430 C 243 50.705, 243.900 51.411, 245 52 C 246.100 52.589, 247 52.845, 247 52.570 C 247 52.295, 246.100 51.589, 245 51 C 243.900 50.411, 243 50.155, 243 50.430 M 83 52.383 C 83 52.594, 83.900 53.002, 85 53.290 C 86.100 53.577, 87 53.405, 87 52.906 C 87 52.408, 86.100 52, 85 52 C 83.900 52, 83 52.173, 83 52.383 M 182 52.969 C 182 53.501, 182.675 53.678, 183.500 53.362 C 184.325 53.045, 185 52.609, 185 52.393 C 185 52.177, 184.325 52, 183.500 52 C 182.675 52, 182 52.436, 182 52.969 M 186 53.500 C 185.315 54.325, 185.067 55, 185.449 55 C 185.831 55, 186.818 54.325, 187.643 53.500 C 188.468 52.675, 188.716 52, 188.194 52 C 187.672 52, 186.685 52.675, 186 53.500 M 37.507 53.989 C 37.157 54.555, 37.558 54.723, 38.448 54.382 C 40.180 53.717, 40.497 53, 39.059 53 C 38.541 53, 37.843 53.445, 37.507 53.989 M 98.733 54.124 C 99.412 54.808, 100.219 55.115, 100.526 54.807 C 100.834 54.499, 100.279 53.940, 99.293 53.564 C 97.868 53.022, 97.753 53.136, 98.733 54.124 M 177.716 55.021 C 178.131 56.609, 178.540 56.797, 179.622 55.899 C 181.566 54.285, 181.332 53, 179.094 53 C 177.673 53, 177.322 53.515, 177.716 55.021 M 102 54.878 C 102 55.360, 102.620 56.270, 103.378 56.899 C 104.460 57.797, 104.869 57.609, 105.284 56.021 C 105.678 54.515, 105.327 54, 103.906 54 C 102.858 54, 102 54.395, 102 54.878 M 170 55.535 C 170 56.760, 170.404 56.854, 172 56 C 173.100 55.411, 174 54.720, 174 54.465 C 174 54.209, 173.100 54, 172 54 C 170.869 54, 170 54.667, 170 55.535 M 195.031 54.500 C 195.031 55.050, 195.467 56.175, 196 57 C 196.533 57.825, 196.969 58.050, 196.969 57.500 C 196.969 56.950, 196.533 55.825, 196 55 C 195.467 54.175, 195.031 53.950, 195.031 54.500 M 110.427 56.521 C 112.482 58.076, 113.630 57.829, 112.541 56.067 C 112.179 55.480, 111.121 55.014, 110.191 55.032 C 108.706 55.060, 108.735 55.241, 110.427 56.521 M 157.500 55.496 C 160.080 56.369, 168 56.656, 168 55.877 C 168 55.395, 165.412 55.036, 162.250 55.079 C 159.088 55.122, 156.950 55.310, 157.500 55.496 M 204 56 C 204 56.550, 204.477 57, 205.059 57 C 205.641 57, 205.840 56.550, 205.500 56 C 205.160 55.450, 204.684 55, 204.441 55 C 204.198 55, 204 55.450, 204 56 M 211 55.383 C 211 55.594, 211.900 56.002, 213 56.290 C 214.100 56.577, 215 56.405, 215 55.906 C 215 55.408, 214.100 55, 213 55 C 211.900 55, 211 55.173, 211 55.383 M 115 56.814 C 115 57.261, 117.813 57.460, 121.250 57.256 C 130.764 56.690, 131.350 56.245, 122.750 56.116 C 118.487 56.052, 115 56.366, 115 56.814 M 180.500 57 C 180.160 57.550, 180.359 58, 180.941 58 C 181.523 58, 182 57.550, 182 57 C 182 56.450, 181.802 56, 181.559 56 C 181.316 56, 180.840 56.450, 180.500 57 M 201.500 57 C 201.160 57.550, 201.359 58, 201.941 58 C 202.523 58, 203 57.550, 203 57 C 203 56.450, 202.802 56, 202.559 56 C 202.316 56, 201.840 56.450, 201.500 57 M 69.813 57.683 C 70.534 57.972, 71.397 57.936, 71.729 57.604 C 72.061 57.272, 71.471 57.036, 70.417 57.079 C 69.252 57.127, 69.015 57.364, 69.813 57.683 M 80 58 C 80 58.550, 80.477 59, 81.059 59 C 81.641 59, 81.840 58.550, 81.500 58 C 81.160 57.450, 80.684 57, 80.441 57 C 80.198 57, 80 57.450, 80 58 M 101.500 59 C 101.840 59.550, 102.316 60, 102.559 60 C 102.802 60, 103 59.550, 103 59 C 103 58.450, 102.523 58, 101.941 58 C 101.359 58, 101.160 58.450, 101.500 59 M 108 59 C 108 59.550, 108.477 60, 109.059 60 C 109.641 60, 109.840 59.550, 109.500 59 C 109.160 58.450, 108.684 58, 108.441 58 C 108.198 58, 108 58.450, 108 59 M 123.813 66.683 C 124.534 66.972, 125.397 66.936, 125.729 66.604 C 126.061 66.272, 125.471 66.036, 124.417 66.079 C 123.252 66.127, 123.015 66.364, 123.813 66.683 M 163 66.393 C 163 66.609, 163.675 67.045, 164.500 67.362 C 165.325 67.678, 166 67.501, 166 66.969 C 166 66.436, 165.325 66, 164.500 66 C 163.675 66, 163 66.177, 163 66.393 M 118.813 67.683 C 119.534 67.972, 120.397 67.936, 120.729 67.604 C 121.061 67.272, 120.471 67.036, 119.417 67.079 C 118.252 67.127, 118.015 67.364, 118.813 67.683 M 111 69 C 109.718 69.828, 109.754 69.972, 111.250 69.985 C 112.213 69.993, 113 69.550, 113 69 C 113 67.780, 112.887 67.780, 111 69 M 124.750 69.751 C 121.416 70.609, 119 71.783, 119 72.545 C 119 73.502, 120.702 73.171, 125.250 71.330 C 134.550 67.565, 134.452 67.254, 124.750 69.751 M 155.677 68.990 C 156.130 69.395, 157.850 70.192, 159.500 70.761 C 161.150 71.330, 163.349 72.138, 164.386 72.557 C 165.745 73.106, 166.147 72.942, 165.824 71.971 C 165.576 71.229, 163.007 70.090, 160.114 69.438 C 157.221 68.787, 155.224 68.585, 155.677 68.990 M 171.813 68.683 C 172.534 68.972, 173.397 68.936, 173.729 68.604 C 174.061 68.272, 173.471 68.036, 172.417 68.079 C 171.252 68.127, 171.015 68.364, 171.813 68.683 M 176 69 C 176 69.550, 176.477 70, 177.059 70 C 177.641 70, 177.840 69.550, 177.500 69 C 177.160 68.450, 176.684 68, 176.441 68 C 176.198 68, 176 68.450, 176 69 M 179.500 70 C 179.840 70.550, 180.568 71, 181.118 71 C 181.668 71, 181.840 70.550, 181.500 70 C 181.160 69.450, 180.432 69, 179.882 69 C 179.332 69, 179.160 69.450, 179.500 70 M 130 71 C 129.175 71.533, 128.950 71.969, 129.500 71.969 C 130.050 71.969, 131.175 71.533, 132 71 C 132.825 70.467, 133.050 70.031, 132.500 70.031 C 131.950 70.031, 130.825 70.467, 130 71 M 158.344 73.116 C 160.459 74.232, 162.420 74.913, 162.702 74.631 C 163.191 74.143, 156.450 70.951, 155.128 71.044 C 154.783 71.069, 156.230 72.001, 158.344 73.116 M 124.750 73.299 C 123.237 73.897, 122 74.761, 122 75.219 C 122 75.677, 123.350 75.353, 125 74.500 C 126.650 73.647, 128 72.735, 128 72.474 C 128 72.213, 127.888 72.048, 127.750 72.106 C 127.612 72.165, 126.263 72.702, 124.750 73.299 M 183 74 C 183 74.550, 183.477 75, 184.059 75 C 184.641 75, 184.840 74.550, 184.500 74 C 184.160 73.450, 183.684 73, 183.441 73 C 183.198 73, 183 73.450, 183 74 M 85 75.059 C 85 75.641, 85.450 75.840, 86 75.500 C 86.550 75.160, 87 74.684, 87 74.441 C 87 74.198, 86.550 74, 86 74 C 85.450 74, 85 74.477, 85 75.059 M 100.500 75 C 100.160 75.550, 100.359 76, 100.941 76 C 101.523 76, 102 75.550, 102 75 C 102 74.450, 101.802 74, 101.559 74 C 101.316 74, 100.840 74.450, 100.500 75 M 114.500 75.551 L 111.500 76.918 114.500 76.318 C 117.717 75.675, 118.579 75.240, 117.917 74.592 C 117.688 74.368, 116.150 74.800, 114.500 75.551 M 168.500 75 C 169.600 75.473, 171.175 75.859, 172 75.859 C 172.945 75.859, 172.761 75.542, 171.500 75 C 170.400 74.527, 168.825 74.141, 168 74.141 C 167.055 74.141, 167.239 74.458, 168.500 75 M 186 75 C 186 75.550, 186.477 76, 187.059 76 C 187.641 76, 187.840 75.550, 187.500 75 C 187.160 74.450, 186.684 74, 186.441 74 C 186.198 74, 186 74.450, 186 75 M 189 74.882 C 189 75.432, 189.450 76.160, 190 76.500 C 190.550 76.840, 191 76.668, 191 76.118 C 191 75.568, 190.550 74.840, 190 74.500 C 189.450 74.160, 189 74.332, 189 74.882 M 158.015 75.691 C 158.024 76.136, 158.467 77.175, 159 78 C 159.835 79.293, 159.971 79.266, 159.985 77.809 C 159.993 76.879, 159.550 75.840, 159 75.500 C 158.450 75.160, 158.007 75.246, 158.015 75.691 M 164 76 C 164 76.550, 164.450 77, 165 77 C 165.550 77, 166 76.550, 166 76 C 166 75.450, 165.550 75, 165 75 C 164.450 75, 164 75.450, 164 76 M 177.500 76 C 177.840 76.550, 178.316 77, 178.559 77 C 178.802 77, 179 76.550, 179 76 C 179 75.450, 178.523 75, 177.941 75 C 177.359 75, 177.160 75.450, 177.500 76 M 208 76 C 208 76.550, 208.675 77, 209.500 77 C 210.325 77, 211 76.550, 211 76 C 211 75.450, 210.325 75, 209.500 75 C 208.675 75, 208 75.450, 208 76 M 212.399 75.836 C 212.996 76.803, 216.633 76.700, 217.646 75.687 C 218.024 75.309, 216.882 75, 215.108 75 C 213.334 75, 212.114 75.376, 212.399 75.836 M 71 77 C 71 77.550, 71.450 78, 72 78 C 72.550 78, 73 77.550, 73 77 C 73 76.450, 72.550 76, 72 76 C 71.450 76, 71 76.450, 71 77 M 74.667 76.667 C 73.711 77.622, 73.845 79, 74.893 79 C 75.384 79, 76.045 78.325, 76.362 77.500 C 76.947 75.976, 75.881 75.452, 74.667 76.667 M 105.500 77 C 105.160 77.550, 105.359 78, 105.941 78 C 106.523 78, 107 77.550, 107 77 C 107 76.450, 106.802 76, 106.559 76 C 106.316 76, 105.840 76.450, 105.500 77 M 119.500 77 C 119.840 77.550, 120.316 78, 120.559 78 C 120.802 78, 121 77.550, 121 77 C 121 76.450, 120.523 76, 119.941 76 C 119.359 76, 119.160 76.450, 119.500 77 M 125.015 78.250 C 125.028 80.069, 125.216 80.213, 126 79 C 127.253 77.061, 127.253 76, 126 76 C 125.450 76, 125.007 77.013, 125.015 78.250 M 45.710 79 C 45.998 80.100, 46.406 81, 46.617 81 C 46.827 81, 47 80.100, 47 79 C 47 77.900, 46.592 77, 46.094 77 C 45.595 77, 45.423 77.900, 45.710 79 M 85.500 78 C 85.160 78.550, 85.359 79, 85.941 79 C 86.523 79, 87 78.550, 87 78 C 87 77.450, 86.802 77, 86.559 77 C 86.316 77, 85.840 77.450, 85.500 78 M 169 79.031 C 169 80.115, 169.675 81, 170.500 81 C 171.325 81, 172 80.373, 172 79.607 C 172 78.841, 171.325 77.955, 170.500 77.638 C 169.480 77.247, 169 77.692, 169 79.031 M 96.500 79 C 96.160 79.550, 96.359 80, 96.941 80 C 97.523 80, 98 79.550, 98 79 C 98 78.450, 97.802 78, 97.559 78 C 97.316 78, 96.840 78.450, 96.500 79 M 113 79.393 C 113 80.159, 113.675 81.045, 114.500 81.362 C 115.520 81.753, 116 81.308, 116 79.969 C 116 78.885, 115.325 78, 114.500 78 C 113.675 78, 113 78.627, 113 79.393 M 128.158 80 C 128.158 81.375, 128.385 81.938, 128.662 81.250 C 128.940 80.563, 128.940 79.438, 128.662 78.750 C 128.385 78.063, 128.158 78.625, 128.158 80 M 156.079 79.583 C 156.127 80.748, 156.364 80.985, 156.683 80.188 C 156.972 79.466, 156.936 78.603, 156.604 78.271 C 156.272 77.939, 156.036 78.529, 156.079 79.583 M 174 78.969 C 174 79.501, 174.675 79.678, 175.500 79.362 C 176.325 79.045, 177 78.609, 177 78.393 C 177 78.177, 176.325 78, 175.500 78 C 174.675 78, 174 78.436, 174 78.969 M 108 79.393 C 108 79.609, 108.675 80.045, 109.500 80.362 C 110.325 80.678, 111 80.501, 111 79.969 C 111 79.436, 110.325 79, 109.500 79 C 108.675 79, 108 79.177, 108 79.393 M 130.953 80.191 C 130.927 80.911, 130.709 83.720, 130.469 86.434 C 130.222 89.226, 130.407 90.962, 130.894 90.434 C 132.123 89.102, 132.931 80.075, 131.879 79.425 C 131.396 79.126, 130.979 79.471, 130.953 80.191 M 181.543 79.931 C 181.226 80.443, 181.425 81.144, 181.984 81.490 C 182.543 81.835, 183 81.416, 183 80.559 C 183 78.802, 182.400 78.544, 181.543 79.931 M 185.158 81 C 185.158 82.375, 185.385 82.938, 185.662 82.250 C 185.940 81.563, 185.940 80.438, 185.662 79.750 C 185.385 79.063, 185.158 79.625, 185.158 81 M 40.158 82 C 40.158 83.375, 40.385 83.938, 40.662 83.250 C 40.940 82.563, 40.940 81.438, 40.662 80.750 C 40.385 80.063, 40.158 80.625, 40.158 82 M 43.158 82 C 43.158 83.375, 43.385 83.938, 43.662 83.250 C 43.940 82.563, 43.940 81.438, 43.662 80.750 C 43.385 80.063, 43.158 80.625, 43.158 82 M 99.158 82 C 99.158 83.375, 99.385 83.938, 99.662 83.250 C 99.940 82.563, 99.940 81.438, 99.662 80.750 C 99.385 80.063, 99.158 80.625, 99.158 82 M 102.079 81.583 C 102.127 82.748, 102.364 82.985, 102.683 82.188 C 102.972 81.466, 102.936 80.603, 102.604 80.271 C 102.272 79.939, 102.036 80.529, 102.079 81.583 M 165 81 C 165 81.550, 165.477 82, 166.059 82 C 166.641 82, 166.840 81.550, 166.500 81 C 166.160 80.450, 165.684 80, 165.441 80 C 165.198 80, 165 80.450, 165 81 M 188 81.319 C 188 82.109, 187.325 83.315, 186.500 84 C 184.786 85.423, 184.523 87, 186 87 C 186.550 87, 187 86.473, 187 85.829 C 187 85.185, 187.704 83.879, 188.565 82.928 C 189.603 81.781, 189.771 80.977, 189.065 80.540 C 188.479 80.178, 188 80.528, 188 81.319 M 217 81.500 C 217 82.325, 217.177 83, 217.393 83 C 217.609 83, 218.045 82.325, 218.362 81.500 C 218.678 80.675, 218.501 80, 217.969 80 C 217.436 80, 217 80.675, 217 81.500 M 95.543 81.931 C 95.226 82.443, 95.425 83.144, 95.984 83.490 C 96.543 83.835, 97 83.416, 97 82.559 C 97 80.802, 96.400 80.544, 95.543 81.931 M 118.500 82 C 118.160 82.550, 118.359 83, 118.941 83 C 119.523 83, 120 82.550, 120 82 C 120 81.450, 119.802 81, 119.559 81 C 119.316 81, 118.840 81.450, 118.500 82 M 173.500 81.916 L 170.500 82.595 173.200 83.149 C 174.964 83.511, 176.080 83.235, 176.419 82.352 C 176.704 81.608, 176.839 81.053, 176.719 81.118 C 176.598 81.183, 175.150 81.542, 173.500 81.916 M 219.543 81.931 C 219.226 82.443, 219.425 83.144, 219.984 83.490 C 220.543 83.835, 221 83.416, 221 82.559 C 221 80.802, 220.400 80.544, 219.543 81.931 M 222.564 82.707 C 222.022 84.132, 222.136 84.247, 223.124 83.267 C 223.808 82.588, 224.115 81.781, 223.807 81.474 C 223.499 81.166, 222.940 81.721, 222.564 82.707 M 225.079 82.583 C 225.127 83.748, 225.364 83.985, 225.683 83.188 C 225.972 82.466, 225.936 81.603, 225.604 81.271 C 225.272 80.939, 225.036 81.529, 225.079 82.583 M 227.752 82.205 C 227.277 83.441, 227.694 83.748, 229.568 83.542 C 230.906 83.395, 232 83.738, 232 84.304 C 232 84.870, 232.236 85.098, 232.524 84.810 C 232.811 84.522, 232.759 83.535, 232.407 82.618 C 231.934 81.387, 231.429 81.229, 230.480 82.016 C 229.554 82.785, 229.079 82.736, 228.781 81.842 C 228.498 80.994, 228.172 81.109, 227.752 82.205 M 53.754 83.833 C 53.482 84.875, 53.804 85.667, 54.500 85.667 C 55.196 85.667, 55.518 84.875, 55.246 83.833 C 54.982 82.825, 54.647 82, 54.500 82 C 54.353 82, 54.018 82.825, 53.754 83.833 M 57.079 83.583 C 57.127 84.748, 57.364 84.985, 57.683 84.188 C 57.972 83.466, 57.936 82.603, 57.604 82.271 C 57.272 81.939, 57.036 82.529, 57.079 83.583 M 61 82.941 C 61 83.459, 61.445 84.157, 61.989 84.493 C 62.555 84.843, 62.723 84.442, 62.382 83.552 C 61.717 81.820, 61 81.503, 61 82.941 M 64 83.500 C 64 84.325, 64.436 85, 64.969 85 C 65.501 85, 65.678 84.325, 65.362 83.500 C 65.045 82.675, 64.609 82, 64.393 82 C 64.177 82, 64 82.675, 64 83.500 M 67 83 C 67 83.550, 67.477 84, 68.059 84 C 68.641 84, 68.840 83.550, 68.500 83 C 68.160 82.450, 67.684 82, 67.441 82 C 67.198 82, 67 82.450, 67 83 M 92.500 83 C 92.160 83.550, 92.359 84, 92.941 84 C 93.523 84, 94 83.550, 94 83 C 94 82.450, 93.802 82, 93.559 82 C 93.316 82, 92.840 82.450, 92.500 83 M 108.654 83.540 C 108.900 84.181, 110.201 84.493, 111.550 84.235 C 114.735 83.626, 114.640 83.321, 111.104 82.802 C 109.178 82.519, 108.357 82.767, 108.654 83.540 M 205 83 C 205.825 83.533, 206.950 83.969, 207.500 83.969 C 208.050 83.969, 207.825 83.533, 207 83 C 206.175 82.467, 205.050 82.031, 204.500 82.031 C 203.950 82.031, 204.175 82.467, 205 83 M 90.086 83.500 C 90.190 85.394, 91.856 88.584, 91.914 87 C 91.945 86.175, 91.533 84.825, 91 84 C 90.467 83.175, 90.055 82.950, 90.086 83.500 M 160 83.455 C 160 84.227, 162.976 84.847, 163.399 84.164 C 163.653 83.752, 162.993 83.350, 161.931 83.270 C 160.869 83.190, 160 83.273, 160 83.455 M 168.500 84 C 168.840 84.550, 169.568 85, 170.118 85 C 170.668 85, 170.840 84.550, 170.500 84 C 170.160 83.450, 169.432 83, 168.882 83 C 168.332 83, 168.160 83.450, 168.500 84 M 22 84.378 C 22 84.585, 22.788 85.373, 23.750 86.128 C 25.336 87.371, 25.371 87.336, 24.128 85.750 C 22.821 84.084, 22 83.555, 22 84.378 M 77.813 84.683 C 78.534 84.972, 79.397 84.936, 79.729 84.604 C 80.061 84.272, 79.471 84.036, 78.417 84.079 C 77.252 84.127, 77.015 84.364, 77.813 84.683 M 101.079 85.583 C 101.127 86.748, 101.364 86.985, 101.683 86.188 C 101.972 85.466, 101.936 84.603, 101.604 84.271 C 101.272 83.939, 101.036 84.529, 101.079 85.583 M 114.500 85 C 114.160 85.550, 114.332 86, 114.882 86 C 115.432 86, 116.160 85.550, 116.500 85 C 116.840 84.450, 116.668 84, 116.118 84 C 115.568 84, 114.840 84.450, 114.500 85 M 165 85.059 C 165 85.641, 165.450 85.840, 166 85.500 C 166.550 85.160, 167 84.684, 167 84.441 C 167 84.198, 166.550 84, 166 84 C 165.450 84, 165 84.477, 165 85.059 M 188.607 85.582 C 187.668 88.029, 187.872 88.271, 189.500 86.643 C 191.200 84.943, 191.417 84, 190.107 84 C 189.616 84, 188.941 84.712, 188.607 85.582 M 193.079 85.583 C 193.127 86.748, 193.364 86.985, 193.683 86.188 C 193.972 85.466, 193.936 84.603, 193.604 84.271 C 193.272 83.939, 193.036 84.529, 193.079 85.583 M 252.100 86.295 C 250.835 88.402, 250.857 88.423, 252.579 86.774 C 253.570 85.824, 254.166 84.832, 253.903 84.569 C 253.640 84.306, 252.829 85.083, 252.100 86.295 M 71 86 C 71 86.550, 71.477 87, 72.059 87 C 72.641 87, 72.840 86.550, 72.500 86 C 72.160 85.450, 71.684 85, 71.441 85 C 71.198 85, 71 85.450, 71 86 M 98 85.882 C 98 86.432, 98.450 87.160, 99 87.500 C 99.550 87.840, 100 87.668, 100 87.118 C 100 86.568, 99.550 85.840, 99 85.500 C 98.450 85.160, 98 85.332, 98 85.882 M 218.079 86.583 C 218.127 87.748, 218.364 87.985, 218.683 87.188 C 218.972 86.466, 218.936 85.603, 218.604 85.271 C 218.272 84.939, 218.036 85.529, 218.079 86.583 M 32 87 C 32 87.550, 32.477 88, 33.059 88 C 33.641 88, 33.840 87.550, 33.500 87 C 33.160 86.450, 32.684 86, 32.441 86 C 32.198 86, 32 86.450, 32 87 M 168.500 87 C 168.840 87.550, 169.316 88, 169.559 88 C 169.802 88, 170 87.550, 170 87 C 170 86.450, 169.523 86, 168.941 86 C 168.359 86, 168.160 86.450, 168.500 87 M 175.015 87.750 C 175.024 88.749, 175.351 89.071, 175.777 88.500 C 176.187 87.950, 176.931 87.162, 177.428 86.750 C 177.926 86.338, 177.583 86, 176.667 86 C 175.740 86, 175.007 86.777, 175.015 87.750 M 178.247 87.977 C 176.530 90.725, 176.685 91.458, 178.580 89.563 C 179.450 88.693, 180.011 87.532, 179.827 86.981 C 179.644 86.431, 178.932 86.879, 178.247 87.977 M 59 87.902 C 59 88.940, 60.902 90.443, 61.466 89.850 C 61.649 89.658, 61.169 88.920, 60.399 88.211 C 59.630 87.501, 59 87.362, 59 87.902 M 63.667 87.667 C 62.743 88.591, 62.829 91, 63.786 91 C 64.218 91, 64.571 90.100, 64.571 89 C 64.571 86.745, 64.578 86.755, 63.667 87.667 M 105 87.941 C 105 88.459, 105.445 89.157, 105.989 89.493 C 106.555 89.843, 106.723 89.442, 106.382 88.552 C 105.717 86.820, 105 86.503, 105 87.941 M 108.439 87.794 C 108.842 88.505, 108.628 89.743, 107.964 90.544 C 107.251 91.403, 107.172 92, 107.771 92 C 109.375 92, 110.189 88.778, 108.886 87.583 C 108.019 86.787, 107.901 86.843, 108.439 87.794 M 115 88.059 C 115 88.641, 115.450 88.840, 116 88.500 C 116.550 88.160, 117 87.684, 117 87.441 C 117 87.198, 116.550 87, 116 87 C 115.450 87, 115 87.477, 115 88.059 M 180.647 89.417 C 178.845 92.166, 179.069 92.458, 183.750 93.462 C 185.793 93.900, 187 93.770, 187 93.111 C 187 92.534, 186.325 92.322, 185.500 92.638 C 184.675 92.955, 184 92.730, 184 92.138 C 184 91.547, 183.325 91.322, 182.500 91.638 C 180.710 92.325, 180.521 90.879, 182.183 89.217 C 182.834 88.566, 183.120 87.787, 182.819 87.485 C 182.517 87.184, 181.540 88.053, 180.647 89.417 M 221 88.500 C 221 89.325, 221.177 90, 221.393 90 C 221.609 90, 222.045 89.325, 222.362 88.500 C 222.678 87.675, 222.501 87, 221.969 87 C 221.436 87, 221 87.675, 221 88.500 M 118 89.059 C 118 89.641, 118.450 89.840, 119 89.500 C 119.550 89.160, 120 88.684, 120 88.441 C 120 88.198, 119.550 88, 119 88 C 118.450 88, 118 88.477, 118 89.059 M 192.500 89 C 192.160 89.550, 192.359 90, 192.941 90 C 193.523 90, 194 89.550, 194 89 C 194 88.450, 193.802 88, 193.559 88 C 193.316 88, 192.840 88.450, 192.500 89 M 91 90 C 91 90.550, 91.477 91, 92.059 91 C 92.641 91, 92.840 90.550, 92.500 90 C 92.160 89.450, 91.684 89, 91.441 89 C 91.198 89, 91 89.450, 91 90 M 186.500 90 C 186.840 90.550, 187.316 91, 187.559 91 C 187.802 91, 188 90.550, 188 90 C 188 89.450, 187.523 89, 186.941 89 C 186.359 89, 186.160 89.450, 186.500 90 M 202.079 90.583 C 202.127 91.748, 202.364 91.985, 202.683 91.188 C 202.972 90.466, 202.936 89.603, 202.604 89.271 C 202.272 88.939, 202.036 89.529, 202.079 90.583 M 83.020 91.476 C 82.231 92.426, 82.155 93, 82.819 93 C 84.027 93, 85.436 91.103, 84.743 90.409 C 84.491 90.158, 83.716 90.638, 83.020 91.476 M 211.733 91.124 C 212.412 91.808, 213.219 92.115, 213.526 91.807 C 213.834 91.499, 213.279 90.940, 212.293 90.564 C 210.868 90.022, 210.753 90.136, 211.733 91.124 M 271.564 91.707 C 271.022 93.132, 271.136 93.247, 272.124 92.267 C 272.808 91.588, 273.115 90.781, 272.807 90.474 C 272.499 90.166, 271.940 90.721, 271.564 91.707 M 34 92 C 33.099 92.582, 32.975 92.975, 33.691 92.985 C 34.346 92.993, 35.160 92.550, 35.500 92 C 36.267 90.758, 35.921 90.758, 34 92 M 72.500 92 C 72.160 92.550, 72.359 93, 72.941 93 C 73.523 93, 74 92.550, 74 92 C 74 91.450, 73.802 91, 73.559 91 C 73.316 91, 72.840 91.450, 72.500 92 M 99.079 93.583 C 99.127 94.748, 99.364 94.985, 99.683 94.188 C 99.972 93.466, 99.936 92.603, 99.604 92.271 C 99.272 91.939, 99.036 92.529, 99.079 93.583 M 101.667 92.667 C 101.300 93.033, 101 93.798, 101 94.367 C 101 94.993, 101.466 94.934, 102.183 94.217 C 102.834 93.566, 103.134 92.801, 102.850 92.517 C 102.566 92.233, 102.033 92.300, 101.667 92.667 M 227.500 93 C 227.840 93.550, 228.316 94, 228.559 94 C 228.802 94, 229 93.550, 229 93 C 229 92.450, 228.523 92, 227.941 92 C 227.359 92, 227.160 92.450, 227.500 93 M 30.507 94.989 C 30.157 95.555, 30.558 95.723, 31.448 95.382 C 33.180 94.717, 33.497 94, 32.059 94 C 31.541 94, 30.843 94.445, 30.507 94.989 M 41.507 95.989 C 41.157 96.555, 41.558 96.723, 42.448 96.382 C 44.180 95.717, 44.497 95, 43.059 95 C 42.541 95, 41.843 95.445, 41.507 95.989 M 64.143 95.890 C 63.397 96.363, 63.172 96.984, 63.643 97.270 C 64.114 97.556, 65.080 97.162, 65.789 96.395 C 67.218 94.849, 66.253 94.553, 64.143 95.890 M 93 96.059 C 93 96.641, 93.450 96.840, 94 96.500 C 94.550 96.160, 95 95.684, 95 95.441 C 95 95.198, 94.550 95, 94 95 C 93.450 95, 93 95.477, 93 96.059 M 70.931 96.250 C 70.435 98.049, 70.255 102.078, 70.690 101.643 C 71.375 100.959, 72.009 96, 71.412 96 C 71.185 96, 70.969 96.112, 70.931 96.250 M 246 96.393 C 246 96.609, 246.698 97.054, 247.552 97.382 C 248.442 97.723, 248.843 97.555, 248.493 96.989 C 247.906 96.038, 246 95.583, 246 96.393 M 206.079 99.583 C 206.127 100.748, 206.364 100.985, 206.683 100.188 C 206.972 99.466, 206.936 98.603, 206.604 98.271 C 206.272 97.939, 206.036 98.529, 206.079 99.583 M 74 100 C 73.099 100.582, 72.975 100.975, 73.691 100.985 C 74.346 100.993, 75.160 100.550, 75.500 100 C 76.267 98.758, 75.921 98.758, 74 100 M 78.667 99.667 C 77.513 100.820, 77.942 102.667, 79.363 102.667 C 80.192 102.667, 80.538 101.949, 80.246 100.833 C 79.712 98.789, 79.615 98.718, 78.667 99.667 M 219 100 C 218.099 100.582, 217.975 100.975, 218.691 100.985 C 219.346 100.993, 220.160 100.550, 220.500 100 C 221.267 98.758, 220.921 98.758, 219 100 M 222.583 100.643 C 221.665 103.037, 222.381 103.221, 223.796 100.955 C 224.468 99.880, 224.611 99, 224.115 99 C 223.620 99, 222.930 99.739, 222.583 100.643 M 83.507 100.989 C 83.157 101.555, 83.558 101.723, 84.448 101.382 C 86.180 100.717, 86.497 100, 85.059 100 C 84.541 100, 83.843 100.445, 83.507 100.989 M 225.459 101.067 C 224.433 102.727, 225.354 102.957, 226.789 101.399 C 227.499 100.630, 227.638 100, 227.098 100 C 226.559 100, 225.821 100.480, 225.459 101.067 M 59.211 102.399 C 59.920 103.169, 60.658 103.649, 60.850 103.466 C 61.443 102.902, 59.940 101, 58.902 101 C 58.362 101, 58.501 101.630, 59.211 102.399 M 239.079 102.583 C 239.127 103.748, 239.364 103.985, 239.683 103.188 C 239.972 102.466, 239.936 101.603, 239.604 101.271 C 239.272 100.939, 239.036 101.529, 239.079 102.583" fill="none" stroke="#000" stroke-width="2px" fill-rule="evenodd"/>
</svg>
