<svg xmlns="http://www.w3.org/2000/svg" width="237" height="234" viewBox="0 0 237 234" version="1.1">
	<path d="M 190 1.670 C 187.165 2.243, 183 5.743, 183 7.552 C 183 8.214, 182.328 9.313, 181.507 9.994 C 180.456 10.867, 180.183 12.309, 180.587 14.867 C 181.079 17.988, 180.831 18.650, 178.830 19.565 C 175.939 20.885, 171 18.501, 171 15.784 C 171 14.468, 170.213 14, 168 14 C 165.771 14, 165 14.465, 165 15.811 C 165 16.808, 164.213 18.495, 163.250 19.561 C 162.287 20.628, 161.404 22.823, 161.286 24.440 C 161.168 26.057, 160.371 27.773, 159.515 28.252 C 158.658 28.731, 158.211 29.532, 158.520 30.032 C 158.829 30.532, 157.896 31.239, 156.446 31.603 C 154.743 32.030, 154.235 32.527, 155.012 33.007 C 155.945 33.584, 155.941 33.919, 154.995 34.503 C 154.315 34.924, 153.391 34.648, 152.904 33.878 C 152.383 33.056, 152.024 32.961, 152.015 33.642 C 152.007 34.269, 150.762 35.112, 149.250 35.515 C 147.738 35.917, 147.063 36.454, 147.750 36.707 C 148.438 36.960, 149 37.654, 149 38.250 C 149 38.846, 148.730 39.064, 148.401 38.734 C 147.703 38.036, 142 43.619, 142 44.999 C 142 46.224, 138.364 48.129, 134.257 49.055 C 130.556 49.890, 126.020 48.283, 126.008 46.133 C 126.003 45.260, 125.278 44.956, 124 45.290 C 122.610 45.653, 121.976 45.307, 121.921 44.156 C 121.878 43.245, 121.638 42.994, 121.388 43.598 C 121.091 44.318, 118.374 44.531, 113.478 44.217 C 101.726 43.463, 99.999 46.413, 107.609 54.240 C 111.617 58.362, 111.975 59.060, 110.359 59.598 C 102.341 62.264, 74.593 74.724, 67 79.067 C 65.075 80.168, 58.775 83.539, 53 86.558 C 47.225 89.577, 39.211 94.110, 35.192 96.632 C 25.607 102.645, 7.766 120.043, 5.076 126 C 2.461 131.791, 2.434 136.178, 5 138.500 C 6.100 139.495, 7 139.945, 7 139.500 C 7 139.055, 7.924 139.526, 9.054 140.549 C 11.028 142.335, 23.435 144.452, 25.286 143.319 C 25.719 143.054, 31.344 142.730, 37.786 142.600 C 49.562 142.362, 58.566 140.450, 61.202 137.629 C 61.991 136.784, 64.030 136.489, 67.063 136.780 C 69.621 137.026, 74.112 136.713, 77.042 136.084 C 81.252 135.181, 82.638 135.210, 83.648 136.221 C 84.350 136.924, 85.626 142.170, 86.483 147.878 C 87.339 153.586, 88.264 158.618, 88.537 159.059 C 88.809 159.501, 88.575 160.144, 88.016 160.490 C 86.304 161.548, 86.889 162.979, 88.750 162.281 C 90.144 161.759, 90.282 161.918, 89.426 163.063 C 88.836 163.853, 88.246 166.309, 88.116 168.519 C 87.928 171.720, 88.402 173.029, 90.440 174.944 C 91.848 176.266, 93 177.890, 93 178.552 C 93 179.214, 93.697 180.333, 94.548 181.040 C 96.784 182.895, 102.381 180.019, 104.103 176.130 C 105.112 173.849, 105.748 173.376, 106.718 174.181 C 107.423 174.766, 108 174.852, 108 174.372 C 108.001 173.893, 109.529 173.416, 111.396 173.314 C 114.461 173.146, 114.835 173.422, 115.234 176.142 C 115.647 178.956, 115.185 182.680, 113.206 192.500 C 112.210 197.438, 113.655 213.758, 115.684 220.500 C 116.512 223.250, 118.046 226.305, 119.095 227.289 C 120.143 228.273, 121 229.510, 121 230.039 C 121 232.106, 125.922 230.824, 131.709 227.250 C 138.549 223.025, 148.917 211.649, 154.120 202.660 C 155.979 199.448, 158.353 195.398, 159.395 193.660 C 160.437 191.922, 163.266 186, 165.681 180.500 C 170.440 169.661, 174.467 164.990, 180.874 162.878 C 193.599 158.684, 210.730 147.808, 213.420 142.216 C 215.589 137.708, 215.498 137.192, 211.345 130.441 C 209.335 127.174, 205.283 120.070, 202.340 114.655 L 196.990 104.811 199.149 100.155 L 201.308 95.500 202.036 98.500 C 202.711 101.284, 202.772 101.194, 202.882 97.250 C 203.007 92.748, 204.565 91.464, 205.309 95.250 C 205.553 96.488, 205.638 95.588, 205.499 93.250 C 205.360 90.912, 205.667 89, 206.182 89 C 206.697 89, 206.840 88.550, 206.500 88 C 206.160 87.450, 206.286 87, 206.780 87 C 207.275 87, 208.192 85.875, 208.818 84.500 C 209.445 83.125, 210.529 81.998, 211.229 81.995 C 211.928 81.993, 213.912 80.667, 215.638 79.050 C 217.363 77.432, 218.982 76.316, 219.235 76.568 C 219.488 76.821, 219.733 75.672, 219.781 74.014 C 219.853 71.454, 219.495 71, 217.402 71 C 216.046 71, 214.676 70.319, 214.357 69.487 C 213.688 67.745, 215.792 64.753, 217.112 65.569 C 217.599 65.870, 217.885 65.078, 217.749 63.808 C 217.601 62.434, 217.991 61.596, 218.714 61.738 C 219.416 61.876, 219.687 61.348, 219.357 60.488 C 219.043 59.670, 219.284 59, 219.893 59 C 220.502 59, 221 58.298, 221 57.441 C 221 56.584, 221.450 56.160, 222 56.500 C 222.550 56.840, 223 56.593, 223 55.952 C 223 55.311, 223.644 55.033, 224.432 55.335 C 225.219 55.637, 227.645 55.024, 229.824 53.971 C 236.679 50.659, 237.993 41.991, 233.061 32.616 C 231.445 29.543, 230.119 26.235, 230.115 25.265 C 230.103 22.537, 228.789 17.558, 227.931 16.991 C 227.507 16.710, 227.012 15.862, 226.830 15.106 C 226.285 12.835, 222.666 9.330, 220.004 8.493 C 218.631 8.062, 216.910 6.987, 216.180 6.104 C 215.449 5.222, 215.137 5.063, 215.485 5.750 C 216.636 8.022, 210.164 7.137, 206.136 4.472 C 202.275 1.916, 195.016 0.656, 190 1.670 M 186.036 122.750 C 185.331 125.912, 182.363 135.588, 179.441 144.250 C 176.520 152.912, 174.489 160, 174.930 160 C 175.370 160, 176.874 159.100, 178.273 158 C 179.671 156.900, 181.054 156, 181.345 156 C 183.169 156, 207.187 143.675, 207.635 142.510 C 207.958 141.667, 205.369 137.652, 201.342 132.750 C 197.579 128.169, 193.375 122.755, 192 120.717 C 190.625 118.680, 189.009 117.011, 188.409 117.007 C 187.809 117.003, 186.741 119.588, 186.036 122.750" fill="none" stroke="#000" stroke-width="2px" fill-rule="evenodd"/>
</svg>
