<svg xmlns="http://www.w3.org/2000/svg" width="280" height="110" viewBox="0 0 280 110" version="1.1">
	<path d="M 8.388 3.980 C 7.227 4.449, 5.270 6.108, 4.041 7.667 C 2.241 9.948, 1.916 11.314, 2.374 14.682 C 2.687 16.983, 2.459 20.253, 1.868 21.949 C -1.225 30.821, 11.964 35.866, 48 39.594 C 66.670 41.525, 113.141 42.064, 137 40.626 L 151.500 39.752 147.500 43.943 C 145.300 46.248, 140.912 49.711, 137.750 51.639 C 134.588 53.567, 132 55.738, 132 56.464 C 132 57.190, 130.960 58.044, 129.688 58.363 C 122.568 60.150, 97.803 64, 93.426 64 C 90.608 64, 84.818 64.295, 80.559 64.654 C 73.663 65.237, 72.696 65.572, 71.719 67.716 C 70.759 69.824, 70.989 70.433, 73.561 72.603 C 76.320 74.930, 77.021 75.050, 85 74.555 C 89.675 74.265, 98.225 73.767, 104 73.448 C 109.775 73.129, 115.086 72.678, 115.802 72.446 C 116.518 72.213, 116.842 72.446, 116.522 72.964 C 115.627 74.412, 86.383 83.646, 78.500 84.969 C 74.650 85.616, 70.825 86.738, 70 87.463 C 69.175 88.189, 62.875 90.471, 56 92.535 C 43.148 96.394, 34.379 100.212, 29.997 103.856 L 27.500 105.933 31 105.903 C 32.925 105.887, 43.050 103.267, 53.500 100.082 C 64.870 96.617, 72.944 94.635, 73.607 95.149 C 74.750 96.035, 99.687 93.056, 111.790 90.587 C 115.481 89.834, 120.750 88.919, 123.500 88.553 C 126.250 88.188, 133 87.049, 138.500 86.023 C 144 84.997, 151.200 83.893, 154.500 83.570 C 157.800 83.247, 161.625 82.785, 163 82.544 C 164.375 82.302, 168.425 81.823, 172 81.479 C 175.575 81.135, 179.850 80.631, 181.500 80.359 C 183.150 80.088, 187.503 79.636, 191.173 79.356 C 196.994 78.912, 198.112 79.112, 199.923 80.923 C 201.066 82.066, 202.983 83, 204.186 83 C 205.388 83, 207.300 83.848, 208.436 84.885 C 210.857 87.096, 215 88.551, 215 87.190 C 215 86.670, 214.320 85.681, 213.489 84.991 C 212.151 83.880, 212.180 83.589, 213.737 82.450 C 215.901 80.868, 214.805 79.450, 212.441 80.773 C 210.557 81.827, 204.120 78.450, 204.042 76.367 C 204.019 75.743, 203.044 74.983, 201.876 74.678 C 200.240 74.250, 199.884 73.591, 200.327 71.811 C 201.165 68.443, 198.222 65.188, 194 64.812 L 190.500 64.500 194.500 62.054 C 203.561 56.513, 204.989 56.208, 205.010 59.809 C 205.038 64.697, 212.914 76.567, 214.464 74.058 C 214.829 73.468, 214.423 72.716, 213.563 72.386 C 212.704 72.056, 212 71.254, 212 70.604 C 212 69.955, 211.100 67.658, 210 65.500 C 207.998 61.574, 207.267 55, 208.831 55 C 209.288 55, 210.257 56.111, 210.984 57.470 C 212.622 60.531, 218.937 65.011, 221.554 64.968 C 223.176 64.942, 223.001 64.569, 220.500 62.725 C 216.974 60.125, 212 54.889, 212 53.777 C 212 53.350, 212.533 53, 213.186 53 C 213.838 53, 215.413 52.022, 216.686 50.826 C 218.712 48.922, 219 48.867, 219 50.385 C 219 52.838, 220.807 51.417, 222.447 47.673 C 223.809 44.564, 223.838 44.552, 223.918 47.095 C 223.963 48.522, 223.100 50.505, 222 51.500 C 220.900 52.495, 220 53.994, 220 54.829 C 220 56.001, 220.528 55.853, 222.307 54.181 C 223.985 52.605, 224.914 52.314, 225.714 53.114 C 227.419 54.819, 229.546 50.362, 227.947 48.436 C 226.983 47.274, 227.113 47.007, 228.628 47.035 C 229.657 47.055, 231.625 47.714, 233 48.500 L 235.500 49.929 233.191 49.965 C 229.139 50.027, 231.817 51.787, 237.060 52.508 C 241.009 53.051, 242.505 52.853, 243.887 51.602 C 245.252 50.367, 247.857 50, 255.270 50 C 260.556 50, 265.144 50.424, 265.464 50.941 C 265.972 51.764, 261.466 54.252, 238.500 65.827 C 235.750 67.213, 232.056 69.589, 230.291 71.107 C 225.277 75.419, 216.614 78.802, 215.442 76.906 C 215.134 76.408, 214.346 76.016, 213.691 76.036 C 213.036 76.056, 213.791 77.128, 215.368 78.418 C 217.733 80.352, 219.137 80.700, 223.368 80.400 C 229.827 79.944, 234.014 78.086, 250.996 68.144 C 256.769 64.764, 263.934 61.289, 266.917 60.422 C 273.731 58.441, 277.800 54.383, 277.800 49.570 C 277.800 45.543, 277.277 45.263, 268.237 44.440 C 260.864 43.768, 252.129 41.414, 250.403 39.632 C 248.890 38.070, 251.582 29, 253.558 29 C 255.710 29, 255.340 24.287, 252.921 20.889 C 250.002 16.790, 246.484 15.250, 237.395 14.096 C 233.053 13.544, 226.800 12.125, 223.500 10.943 C 217.635 8.842, 216.083 8.787, 154.500 8.523 C 119.850 8.375, 88.462 7.919, 84.750 7.510 C 80.655 7.059, 78 7.139, 78 7.712 C 78 8.286, 75.743 8.351, 72.250 7.878 C 43.366 3.964, 13.013 2.111, 8.388 3.980 M 259.998 58.546 C 258.550 59.348, 258.130 59.938, 259 59.949 C 260.786 59.973, 263.642 58.309, 262.970 57.636 C 262.710 57.376, 261.373 57.786, 259.998 58.546 M 253.204 62.022 C 251.442 63.094, 250 64.160, 250 64.392 C 250 65.146, 253.452 63.909, 255.427 62.447 C 258.470 60.195, 256.749 59.866, 253.204 62.022 M 106 67.382 C 84.445 69.850, 87.799 70.840, 111.286 68.942 C 120.830 68.172, 127.751 67.152, 128.786 66.365 C 130.310 65.208, 130.167 65.075, 127.500 65.164 C 125.850 65.219, 116.175 66.217, 106 67.382 M 245.250 66.220 C 242.155 67.713, 242.393 69.234, 245.500 67.818 C 246.875 67.192, 248 66.301, 248 65.839 C 248 64.854, 248.118 64.837, 245.250 66.220 M 174.256 69.975 C 172.472 70.398, 170.447 71.202, 169.756 71.761 C 168.572 72.719, 164.239 73.347, 150.736 74.519 C 147.565 74.795, 143.065 75.739, 140.736 76.618 C 138.406 77.496, 132.900 78.802, 128.500 79.519 C 119.116 81.048, 108.330 83.469, 102 85.469 C 99.525 86.250, 95.542 87.394, 93.149 88.011 C 83.020 90.620, 91.482 89.661, 119.658 85.007 C 136.171 82.280, 155.941 79.334, 163.591 78.461 C 183.030 76.243, 195.426 73.670, 195.798 71.775 C 195.972 70.892, 195.138 70.002, 193.798 69.643 C 190.692 68.811, 178.270 69.022, 174.256 69.975 M 237.250 70.584 C 232.566 72.633, 233.237 74.139, 238 72.268 C 240.200 71.404, 242 70.315, 242 69.848 C 242 68.740, 241.175 68.868, 237.250 70.584" fill="none" stroke="#000" stroke-width="2px" fill-rule="evenodd"/>
</svg>
