<svg xmlns="http://www.w3.org/2000/svg" width="500" height="338" viewBox="0 0 500 338" version="1.1">
	<path d="M 236.904 5.096 C 235.195 6.805, 234.919 7.958, 235.412 11.346 C 236.554 19.210, 237.238 39.951, 236.564 46.250 L 235.888 52.561 227.545 57.797 C 217.818 63.902, 213.212 68.657, 209.066 76.869 L 206.074 82.797 199.861 80.288 C 196.444 78.908, 191.061 77.544, 187.899 77.257 C 182.670 76.783, 181.934 76.968, 179.770 79.303 C 178.462 80.714, 176.213 85.386, 174.772 89.685 C 171.738 98.733, 171.385 100.232, 170.017 109.878 C 169.459 113.816, 167.426 121.070, 165.501 125.998 C 163.575 130.925, 162 136.156, 162 137.622 L 162 140.287 149.250 139.756 C 139.739 139.360, 134.976 138.676, 130.500 137.066 C 120.814 133.581, 121 133.613, 121 135.442 C 121 136.368, 121.474 136.825, 122.060 136.463 C 123.321 135.683, 129 137.859, 129 139.121 C 129 139.605, 130.098 140, 131.441 140 C 132.784 140, 134.179 140.481, 134.542 141.068 C 134.905 141.656, 135.897 141.870, 136.746 141.544 C 137.595 141.218, 139.133 141.715, 140.163 142.648 C 141.659 144.001, 144.139 144.359, 152.440 144.422 L 162.842 144.500 162.260 149.500 C 161.067 159.736, 161.389 159.399, 151.931 160.325 C 147.294 160.779, 142.825 161.731, 142 162.442 C 141.175 163.153, 137.812 164.035, 134.527 164.402 C 130.683 164.832, 127.809 165.770, 126.463 167.035 C 125.312 168.116, 123.050 169.011, 121.436 169.024 C 116.958 169.062, 109.791 170.920, 107 172.766 C 105.625 173.676, 100.697 175.414, 96.048 176.627 C 91.399 177.840, 87.075 179.545, 86.438 180.416 C 85.801 181.287, 84.373 182, 83.265 182 C 82.158 182, 79.338 182.675, 77 183.500 C 74.662 184.325, 71.680 185, 70.374 185 C 69.068 185, 67.100 185.900, 66 187 C 64.900 188.100, 63.334 189, 62.521 189 C 59.970 189, 47.548 193.254, 46.500 194.487 C 45.950 195.134, 43.981 195.964, 42.125 196.331 C 38.076 197.133, 18.275 206.483, 15.642 208.836 C 10.323 213.590, 6.112 218.373, 6.580 219.130 C 6.870 219.599, 9.747 217.850, 12.973 215.242 C 19.214 210.196, 29.453 204, 31.550 204 C 32.245 204, 35.893 202.576, 39.657 200.836 C 43.421 199.096, 46.868 197.757, 47.319 197.859 C 47.769 197.962, 52.044 196.512, 56.819 194.637 C 61.593 192.762, 67.094 190.995, 69.043 190.711 C 70.992 190.426, 75.623 188.758, 79.334 187.005 C 83.045 185.252, 86.724 184.064, 87.510 184.365 C 88.296 184.667, 92.440 183.277, 96.720 181.275 C 100.999 179.274, 106.300 177.547, 108.500 177.436 C 110.700 177.325, 115.200 175.998, 118.500 174.487 C 121.800 172.975, 125.676 171.800, 127.113 171.875 C 128.550 171.950, 132.284 170.880, 135.409 169.498 C 138.916 167.947, 141.992 167.211, 143.445 167.575 C 144.834 167.924, 148.768 167.095, 153.053 165.549 L 160.309 162.932 159.633 174.716 C 159.261 181.197, 158.363 189.743, 157.636 193.707 C 156.506 199.869, 156.519 200.956, 157.729 201.207 C 158.540 201.375, 156.448 203.650, 152.822 206.541 C 148.474 210.009, 146.571 212.194, 146.726 213.541 C 146.877 214.845, 145.603 216.431, 142.919 218.281 C 139.943 220.333, 139.038 221.545, 139.468 222.899 C 139.903 224.271, 139.285 225.054, 137.026 225.989 C 135.361 226.679, 134 227.805, 134 228.491 C 134 229.716, 129.076 231.331, 121.856 232.474 C 117.081 233.230, 110.978 238.378, 112.753 240.153 C 113.749 241.149, 114 241.079, 114 239.807 C 114 238.214, 116.822 236.488, 117.810 237.476 C 118.098 237.764, 117.808 238, 117.167 238 C 116.525 238, 116 238.450, 116 239 C 116 239.550, 116.640 240, 117.422 240 C 118.205 240, 119.366 241.578, 120.003 243.508 C 121.369 247.647, 124.206 249.563, 126.763 248.073 C 128.246 247.209, 128.107 247.056, 125.809 247.030 C 122.771 246.996, 122.485 246.688, 121.605 242.500 C 121.051 239.867, 121.374 239.272, 124.237 237.636 C 129.100 234.859, 132.993 234.440, 133.029 236.690 C 133.053 238.123, 133.675 237.823, 136.015 235.250 C 139.491 231.429, 139.608 231.395, 140.290 234 C 140.577 235.100, 141.520 236, 142.383 236 C 144.540 236, 147.179 231.701, 146.441 229.391 C 145.879 227.632, 145.951 227.640, 147.479 229.500 C 149.100 231.473, 149.161 231.456, 152.061 228.234 C 153.677 226.438, 155 224.049, 155 222.925 C 155 221.798, 155.455 221.163, 156.015 221.509 C 157.387 222.357, 161.978 212.274, 161.990 208.385 C 162.001 205.027, 165.299 200, 167.491 200 C 168.260 200, 169.815 202.891, 171.120 206.750 C 173.775 214.599, 174.834 212.804, 172.628 204.195 C 171.357 199.231, 171.328 197.714, 172.439 194.410 C 173.849 190.221, 173.256 182.137, 170.614 169.536 L 169.266 163.103 172.195 162.082 C 174.315 161.343, 175.661 161.396, 177.068 162.275 C 178.936 163.441, 182.403 162.623, 193.250 158.458 C 195.845 157.462, 195.400 159.374, 191.873 164.378 C 189.267 168.075, 188.659 170.031, 188.223 176.122 C 187.798 182.074, 187.171 184.162, 184.850 187.365 C 183.283 189.530, 182 192.301, 182 193.524 C 182 194.748, 181.316 197.686, 180.481 200.054 C 179.645 202.423, 179.027 205.742, 179.107 207.430 C 179.186 209.119, 178.520 212.173, 177.626 214.218 C 175.281 219.580, 175.522 222.825, 178.361 224.119 C 180.194 224.954, 181.437 224.825, 183.913 223.545 C 188.397 221.226, 188.766 219.326, 185.773 213.966 C 184.033 210.849, 183.475 208.860, 184.075 207.912 C 184.567 207.135, 184.976 204.207, 184.985 201.405 C 184.996 197.593, 185.504 195.854, 187 194.500 C 188.100 193.505, 189 191.860, 189 190.845 C 189 188.275, 190.471 188.544, 192.385 191.465 C 194.596 194.839, 194.493 195.337, 190.500 200.568 C 188.479 203.215, 187 206.304, 187 207.877 C 187 213.033, 191.338 214.662, 195.088 210.912 C 196.922 209.078, 197.092 208.105, 196.490 202.912 C 196.112 199.660, 196.061 197, 196.375 197 C 198.099 197, 205.817 201.486, 205.362 202.224 C 205.065 202.704, 204.114 202.513, 203.248 201.799 C 201.932 200.713, 201.753 200.746, 202.155 202 C 202.419 202.825, 204.225 204.368, 206.169 205.428 C 209.683 207.346, 209.726 207.345, 213.753 205.246 L 217.802 203.135 218.387 205.318 C 219.287 208.672, 219.228 208.770, 215.562 209.979 C 210.715 211.579, 206.999 214.767, 207.004 217.323 C 207.010 220.686, 210.682 226, 213 226 C 215.498 226, 218.471 221.343, 220.147 214.805 C 221.522 209.439, 223 208.461, 223 212.917 C 223 214.521, 223.460 215.987, 224.022 216.174 C 224.669 216.390, 224.458 218.233, 223.448 221.200 C 222.042 225.326, 221.473 225.921, 218.676 226.192 C 215.929 226.458, 215.459 226.923, 215.196 229.631 C 214.982 231.822, 215.629 233.620, 217.351 235.622 C 219.771 238.435, 219.844 238.451, 221.880 236.609 C 223.018 235.579, 224.239 233.783, 224.593 232.618 C 224.947 231.453, 225.855 229.793, 226.611 228.930 C 227.578 227.824, 228.055 223.831, 228.224 215.430 C 228.419 205.688, 228.138 202.840, 226.690 199.903 C 224.926 196.323, 224.930 196.286, 227.643 192.142 C 229.142 189.853, 230.648 188.431, 230.990 188.983 C 231.331 189.536, 231.431 193.253, 231.212 197.244 C 230.993 201.235, 230.841 206.300, 230.875 208.500 C 230.909 210.700, 230.887 213.850, 230.828 215.500 C 230.575 222.506, 231.767 240.866, 232.613 243 C 232.940 243.825, 233.382 247.823, 233.594 251.885 C 233.806 255.947, 234.379 259.772, 234.866 260.385 C 235.354 260.998, 235.827 264.860, 235.918 268.967 C 236.027 273.908, 236.577 276.980, 237.542 278.046 C 238.551 279.161, 239 282.003, 239 287.270 C 239 291.456, 239.386 295.121, 239.859 295.413 C 240.331 295.704, 240.965 298.673, 241.267 302.009 C 241.570 305.345, 242.246 308.620, 242.771 309.287 C 243.295 309.954, 244.041 311.850, 244.427 313.500 C 245.471 317.955, 250.517 328.075, 253.401 331.500 C 256.878 335.628, 256.672 332.758, 253.164 328.191 C 250.195 324.327, 246.832 314.672, 244.911 304.500 C 244.288 301.200, 243.507 298.050, 243.176 297.501 C 242.845 296.951, 242.684 295.376, 242.820 294.001 C 242.955 292.625, 242.585 289.250, 241.998 286.500 C 241.410 283.750, 240.795 278.347, 240.631 274.494 C 240.466 270.641, 239.811 266.516, 239.175 265.326 C 238.531 264.125, 238.297 261.765, 238.647 260.016 C 239.028 258.111, 238.570 254.535, 237.490 250.965 C 236.121 246.447, 235.973 244.737, 236.858 243.671 C 237.738 242.611, 237.635 240.447, 236.424 234.592 C 235.343 229.365, 235.157 226.516, 235.842 225.691 C 236.521 224.873, 236.494 223.144, 235.759 220.391 C 235.159 218.145, 235.022 215.450, 235.454 214.403 C 235.886 213.356, 236.418 207.775, 236.637 202 C 237.181 187.644, 237.244 187.273, 239.402 185.695 C 240.952 184.562, 241.184 183.554, 240.656 180.249 C 240.046 176.437, 240.181 176.132, 242.898 175.186 C 245.414 174.308, 245.878 173.525, 246.482 169.128 C 246.998 165.380, 247.676 163.920, 249.115 163.463 C 252.384 162.426, 254.186 158.566, 253.858 153.305 L 253.557 148.500 258.529 145.773 C 265.948 141.704, 269.712 142.050, 274.586 147.250 C 276.778 149.588, 280.242 153.810, 282.284 156.633 C 289.237 166.242, 294.885 170.226, 311.500 177.244 C 315.350 178.870, 319.631 180.157, 321.013 180.103 C 322.410 180.048, 324.712 181.104, 326.198 182.483 C 329.379 185.432, 329.704 187.493, 330.440 209.340 C 330.938 224.132, 332.097 231.840, 334.254 234.697 C 334.751 235.356, 334.864 238.281, 334.506 241.197 C 334.145 244.135, 334.305 247.615, 334.864 249 C 335.791 251.297, 335.878 251.166, 335.937 247.399 C 335.971 245.144, 336.490 241.893, 337.089 240.174 L 338.178 237.050 342.046 239.023 C 344.573 240.312, 346.852 242.644, 348.620 245.748 C 351.793 251.318, 355.878 256, 357.565 256 C 358.219 256, 359.322 256.683, 360.015 257.518 C 360.708 258.354, 362.901 259.749, 364.888 260.620 C 366.874 261.491, 369.483 262.668, 370.684 263.236 C 371.886 263.803, 373.798 264.025, 374.933 263.728 C 376.069 263.431, 377.264 263.617, 377.588 264.142 C 378.351 265.377, 381 263.230, 381 261.378 C 381 259.779, 382.596 259.538, 383.500 261 C 383.840 261.550, 385.722 262, 387.681 262 C 390.595 262, 391.036 261.749, 390.101 260.622 C 388.566 258.772, 391.444 258.031, 400.231 258.014 C 406.593 258.001, 406.997 258.138, 407.593 260.516 C 407.941 261.900, 407.985 263.951, 407.691 265.073 C 407.353 266.367, 407.586 266.973, 408.329 266.727 C 409.026 266.497, 409.620 263.640, 409.796 259.670 C 410.032 254.349, 409.796 253, 408.629 253 C 407.825 253, 406.987 252.460, 406.766 251.799 C 406.471 250.912, 404.162 251.168, 397.933 252.779 C 388.481 255.224, 382 256.106, 382 254.948 C 382 254.523, 380.212 253.874, 378.028 253.505 C 375.843 253.136, 374.155 252.335, 374.278 251.727 C 374.400 251.118, 372.215 249.686, 369.422 248.544 C 366.597 247.390, 364.518 245.945, 364.737 245.288 C 365.159 244.024, 359.900 241.047, 353.704 239.043 C 350.887 238.131, 350.171 237.499, 350.926 236.589 C 351.628 235.743, 351.528 234.765, 350.603 233.432 C 348.558 230.484, 344.476 217.606, 339.906 199.686 C 337.635 190.784, 334.703 180.926, 333.389 177.780 C 332.075 174.634, 331 171.587, 331 171.009 C 331 169.127, 325.745 161.625, 320.564 156.108 C 317.472 152.816, 316.279 150.996, 317.500 151.436 C 332.903 156.985, 352.652 160.731, 360.691 159.629 C 363.049 159.306, 366.025 159.439, 367.305 159.926 C 369.931 160.924, 377.313 171.654, 387.842 189.775 C 396.220 204.197, 404.713 217, 405.901 217 C 406.362 217, 407.315 219.137, 408.017 221.750 C 409.461 227.118, 411.535 230.279, 410.478 225.500 C 410.113 223.850, 409.621 221.776, 409.384 220.891 C 408.785 218.646, 409.954 216, 411.545 216 C 413.257 216, 427.444 226.723, 431.976 231.442 C 434.861 234.446, 435.552 234.777, 436.040 233.386 C 436.507 232.054, 437.410 232.664, 440.434 236.355 C 444.121 240.854, 446.966 242.318, 447.032 239.750 C 447.049 239.063, 449.285 240.975, 452 244 C 455.327 247.706, 456.947 248.929, 456.968 247.750 C 457.015 245.174, 458.209 245.589, 462 249.500 C 465.852 253.474, 467.046 253.892, 466.290 251 C 465.645 248.534, 466.851 248.473, 474.068 250.603 C 479.782 252.290, 484.999 254.818, 486.235 256.500 C 486.639 257.050, 486.976 259.214, 486.985 261.309 C 486.995 263.849, 487.371 264.889, 488.113 264.430 C 488.803 264.004, 489.057 261.700, 488.781 258.371 C 488.447 254.341, 488.668 253, 489.668 253 C 491.681 253, 495.168 256.904, 494.390 258.286 C 493.911 259.136, 494.119 259.117, 495.081 258.222 C 496.859 256.570, 495.383 254.062, 491.418 252 C 489.831 251.175, 488.060 249.908, 487.483 249.185 C 486.905 248.462, 481.722 247.059, 475.966 246.067 C 465.631 244.287, 460.034 242.637, 459.020 241.072 C 458.734 240.630, 456.588 239.299, 454.250 238.114 C 451.913 236.929, 450 235.526, 450 234.997 C 450 234.467, 447.776 232.907, 445.058 231.529 C 442.340 230.152, 439.057 227.966, 437.764 226.673 C 436.470 225.379, 431.381 221.944, 426.456 219.040 C 416.866 213.385, 416.039 212.625, 416.015 209.436 C 416.007 208.261, 411.996 202.873, 406.711 196.936 C 401.603 191.196, 392.732 180.425, 386.999 173 C 377.505 160.705, 371.351 153.545, 363.739 145.937 C 356.745 138.946, 335.548 133.474, 311.213 132.378 C 302.805 131.999, 295.739 131.386, 295.509 131.015 C 294.832 129.918, 297.882 120.788, 299.537 118.959 C 300.449 117.951, 304.173 116.755, 308.782 115.990 C 318.089 114.443, 318.624 114.191, 316.310 112.436 C 315.314 111.681, 314.725 111.023, 315 110.974 C 315.275 110.925, 317.446 110.684, 319.825 110.438 C 322.203 110.192, 324.913 109.581, 325.847 109.082 C 326.876 108.531, 329.505 108.559, 332.522 109.153 C 343.578 111.330, 360.772 107.898, 389.608 97.759 L 407.716 91.393 408.379 103.786 C 408.782 111.321, 409.600 117.260, 410.467 118.936 C 411.264 120.477, 411.619 122.754, 411.273 124.097 C 410.763 126.074, 410.906 126.302, 412.077 125.384 C 413.086 124.593, 415.824 124.541, 421.500 125.206 C 431.324 126.357, 448.681 125.719, 450.250 124.150 C 450.883 123.517, 453.200 123, 455.400 123 C 458.356 123, 459.107 122.707, 458.278 121.878 C 456.378 119.978, 458.008 118.025, 464.033 114.984 L 469.813 112.065 472.407 114.105 C 473.833 115.227, 475 115.700, 475 115.156 C 475 114.612, 473.762 113.229, 472.250 112.083 C 469.582 110.062, 469.557 109.956, 471.418 108.517 C 472.843 107.415, 473.678 107.318, 474.668 108.139 C 475.646 108.951, 476 108.939, 476 108.091 C 476 104.232, 466.341 106.411, 460.833 111.513 C 453.811 118.016, 450.766 118.756, 428.393 119.398 L 417.286 119.717 416.305 105.609 C 415.185 89.511, 413.029 82.722, 408.489 80.996 C 399.743 77.671, 380.050 82.017, 360.835 91.514 C 353.861 94.960, 340.744 99.004, 336.562 98.996 C 333.361 98.990, 338.779 96.039, 350 91.675 C 362.635 86.761, 373.259 81.263, 378.166 77.097 C 381.487 74.279, 382.073 73.249, 381.582 71.097 C 381.255 69.669, 380.743 66.250, 380.444 63.500 C 379.506 54.892, 377.063 45.890, 374.229 40.596 C 372.728 37.793, 367.450 31.400, 362.500 26.388 C 347.616 11.318, 334.094 6.051, 310.208 6.017 C 289.947 5.989, 276.711 9.710, 261.816 19.622 C 257.391 22.567, 253.434 24.768, 253.023 24.514 C 252.611 24.260, 251.685 21.902, 250.965 19.276 C 246.950 4.639, 242.176 -0.176, 236.904 5.096 M 180.525 93.250 C 180.135 94.487, 179.575 102.208, 179.280 110.406 C 178.765 124.706, 178.820 125.281, 180.622 124.536 C 187.088 121.863, 192.318 120.934, 199.935 121.105 L 208.370 121.294 209.654 117.585 C 210.883 114.037, 210.784 113.644, 207.385 108.525 C 205.292 105.373, 202.577 102.653, 200.780 101.909 C 199.101 101.214, 194.117 98.475, 189.704 95.822 C 185.291 93.170, 181.580 91, 181.457 91 C 181.334 91, 180.914 92.013, 180.525 93.250 M 280 134.878 C 280 136.226, 282.220 137.766, 285.267 138.531 C 288.856 139.432, 288.141 137.049, 284.283 135.250 C 281.120 133.775, 280 133.678, 280 134.878 M 170.731 146.766 C 169.320 148.345, 168.618 151.916, 168.894 156.111 C 169.026 158.114, 172.678 157.643, 178.656 154.853 C 180.941 153.786, 185.666 152.331, 189.156 151.619 C 193.399 150.754, 195.601 149.807, 195.805 148.760 C 196.058 147.459, 194.453 147.086, 186.305 146.549 C 180.912 146.194, 175.551 145.707, 174.390 145.468 C 173.187 145.219, 171.615 145.777, 170.731 146.766 M 206.192 186.713 C 202.733 187.374, 204.165 189.500, 208.070 189.500 C 210.516 189.500, 211.567 189.008, 211.810 187.750 C 212.153 185.965, 211.115 185.773, 206.192 186.713 M 204.800 192.200 C 206.866 194.266, 206.121 195.245, 202.847 194.764 L 199.694 194.301 203.097 197.124 C 206.917 200.292, 208.210 200.712, 207.365 198.508 C 207.040 197.661, 207.477 196.754, 208.378 196.408 C 209.549 195.959, 209.716 195.338, 209.017 194.032 C 208.496 193.059, 208.355 191.979, 208.702 191.631 C 209.049 191.284, 208.043 191, 206.467 191 C 204.237 191, 203.867 191.267, 204.800 192.200" fill="none" stroke="#000" stroke-width="2px" fill-rule="evenodd"/>
</svg>
