<svg xmlns="http://www.w3.org/2000/svg" width="500" height="392" viewBox="0 0 500 392" version="1.1">
	<path d="M 330.500 6.936 C 321.054 8.556, 315.734 13.786, 316.121 21.072 C 316.334 25.093, 315.890 26.304, 312.806 30.108 C 310.847 32.523, 307.031 37.875, 304.325 42 C 301.619 46.125, 298.752 50.452, 297.953 51.615 C 297.154 52.778, 293.708 57.792, 290.296 62.758 C 286.884 67.724, 280.958 78.247, 277.127 86.143 C 271.660 97.412, 268.746 102.094, 263.578 107.908 C 256.145 116.272, 251.546 123.656, 253.349 124.329 C 254.694 124.832, 248.208 130.831, 231.500 144.535 C 213.998 158.890, 206.102 165.921, 191 180.595 C 183.575 187.809, 169.625 200.834, 160 209.539 C 142.496 225.371, 116.706 249.479, 76.066 288 C 64.171 299.275, 43.876 318.222, 30.966 330.104 C 18.056 341.987, 6.841 352.929, 6.043 354.420 C 4.962 356.439, 4.870 357.560, 5.680 358.815 C 6.585 360.217, 8.222 360.457, 15.427 360.245 C 20.243 360.104, 25.667 359.330, 27.647 358.503 C 31.909 356.722, 44.886 348.240, 47 345.853 C 47.825 344.922, 55.624 339.849, 64.330 334.580 C 77.014 326.905, 80.921 325, 83.984 325 C 86.086 325, 92.238 324.077, 97.653 322.949 C 103.069 321.821, 109.750 320.533, 112.500 320.088 C 117.482 319.282, 120.701 318.122, 124.500 315.763 C 125.600 315.080, 128.490 313.279, 130.921 311.761 C 133.353 310.242, 136.285 309, 137.436 309 C 139.279 309, 141.641 307.935, 149.500 303.562 C 150.600 302.950, 153.404 301.223, 155.730 299.724 C 158.057 298.226, 160.307 297.001, 160.730 297.002 C 161.154 297.003, 161.480 308.815, 161.456 323.252 C 161.417 347.004, 161.150 353.706, 159.395 374.929 C 158.936 380.482, 159.063 381.193, 160.321 380.149 C 162.973 377.947, 164.244 369.704, 164.583 352.500 C 164.969 332.883, 167.017 297.283, 167.900 294.836 C 168.230 293.921, 172.478 290.208, 177.340 286.586 C 184.585 281.189, 186.864 280, 189.965 280 C 192.047 280, 195.168 279.716, 196.901 279.370 L 200.052 278.740 199.942 301.149 C 199.836 322.887, 199.911 323.782, 202.448 331.029 C 206.270 341.947, 209 353.603, 209 359.007 C 209 361.610, 208.094 366.575, 206.987 370.041 C 204.450 377.981, 205.580 382.114, 209.500 379.235 C 210.931 378.184, 213.163 372.023, 213.390 368.500 C 213.497 366.850, 214.055 364.674, 214.630 363.664 C 215.868 361.491, 215.144 358.106, 210.212 343 C 206.082 330.350, 205.373 322.201, 205.798 292.250 L 206 278 209.596 278 C 211.677 278, 214.469 277.090, 216.225 275.840 C 218.590 274.155, 219.640 273.919, 220.995 274.765 C 222.429 275.660, 223.427 275.122, 226.719 271.675 C 230.478 267.738, 230.808 266.889, 232.481 256.808 C 233.458 250.928, 234.208 244.628, 234.149 242.808 C 234.090 240.989, 233.960 237.250, 233.861 234.500 C 233.704 230.137, 234.083 229.073, 236.840 226.144 C 238.578 224.299, 240 221.738, 240 220.453 C 240 219.169, 240.415 217.861, 240.923 217.548 C 241.431 217.234, 242.140 215.520, 242.499 213.739 C 243.390 209.323, 246.131 202, 246.893 202 C 247.235 202, 247.355 207.062, 247.161 213.250 C 246.836 223.575, 246.986 224.726, 248.976 227.250 C 250.291 228.917, 252.114 230, 253.606 230 C 257.833 230, 265.268 225.464, 272.014 218.769 C 283.798 207.075, 292.901 199, 294.299 199 C 295.276 199, 296.020 201.549, 296.852 207.750 C 297.497 212.563, 298.448 218.750, 298.964 221.500 C 301.700 236.080, 305.921 261.252, 306.509 266.500 C 306.878 269.800, 308.466 275.200, 310.037 278.500 C 311.607 281.800, 313.390 285.888, 313.999 287.585 C 314.608 289.282, 316.432 292.122, 318.053 293.897 C 319.674 295.672, 321 297.716, 321 298.439 C 321 300.102, 338.152 301.138, 342.295 299.726 C 348.475 297.619, 342.299 295.243, 330.205 295.074 C 323.824 294.985, 321.622 293.155, 317.092 284.182 C 313.956 277.970, 312.288 268.832, 307.478 231.500 C 306.557 224.350, 304.965 214, 303.941 208.500 C 302.917 203, 301.949 196.168, 301.790 193.318 C 301.544 188.886, 301.107 187.904, 298.770 186.523 C 296.619 185.253, 295.588 185.150, 293.923 186.041 C 292.311 186.904, 292.773 185.785, 295.863 181.337 C 301.816 172.767, 303.787 170.453, 304.512 171.178 C 304.868 171.535, 306.050 175.353, 307.138 179.663 C 308.225 183.973, 311.083 193.575, 313.487 201 C 318.611 216.823, 322 229.437, 322 232.688 C 322 235.265, 323.713 235.662, 326.389 233.705 C 328.077 232.471, 328.064 232.127, 326.117 226.347 C 324.993 223.012, 322.237 212.769, 319.991 203.584 C 317.745 194.399, 314.578 182.976, 312.954 178.200 C 311.329 173.423, 310 169.404, 310 169.267 C 310 169.130, 312.187 170.364, 314.861 172.009 C 318.944 174.522, 320.743 174.996, 326.111 174.978 C 330.445 174.963, 333.947 174.285, 337 172.870 C 343.361 169.921, 359.292 169.491, 363.154 172.163 C 366.553 174.515, 367.287 174.479, 366.500 172 C 365.453 168.703, 367.649 169.740, 369.942 173.626 C 372.458 177.890, 373.709 177.473, 372.116 172.902 C 370.651 168.700, 370.706 168, 372.500 168 C 373.325 168, 374 168.587, 374 169.304 C 374 170.994, 380.767 177.566, 381.624 176.709 C 381.984 176.349, 381.172 174.580, 379.819 172.777 C 376.047 167.753, 375.970 167.439, 378.473 167.232 C 379.829 167.119, 381.060 167.713, 381.421 168.656 C 381.990 170.137, 382.195 170.134, 383.876 168.612 C 385.009 167.587, 386.406 167.219, 387.529 167.649 C 388.982 168.207, 389.209 167.988, 388.661 166.558 C 388.082 165.049, 388.406 164.843, 390.737 165.243 C 392.257 165.504, 394.339 166.074, 395.365 166.510 C 396.942 167.180, 397.125 166.970, 396.548 165.151 C 395.517 161.903, 397.433 162.568, 400.432 166.500 C 403.683 170.762, 405.624 171.107, 403.526 167.050 C 400.857 161.889, 401.857 161.719, 407.233 166.422 C 410.111 168.940, 413.036 171, 413.733 171 C 414.430 171, 415 171.450, 415 172 C 415 172.550, 415.465 173, 416.034 173 C 416.602 173, 414.799 170.003, 412.026 166.341 C 406.930 159.610, 406.072 156.841, 410.318 160.829 C 413.502 163.821, 415.357 163.650, 414.740 160.423 C 414.303 158.132, 414.509 157.911, 416.597 158.435 C 418.478 158.907, 418.822 158.700, 418.322 157.396 C 417.793 156.018, 418.018 155.939, 419.783 156.884 C 420.930 157.498, 422.348 158, 422.934 158 C 424.400 158, 424.277 154.696, 422.750 153.064 C 421.725 151.969, 421.906 151.826, 423.750 152.270 C 424.988 152.569, 426 152.356, 426 151.798 C 426 151.202, 427.084 151.055, 428.626 151.442 C 430.738 151.972, 431.136 151.798, 430.658 150.551 C 429.898 148.572, 431.373 148.540, 433 150.500 C 433.685 151.325, 433.808 152, 433.275 152 C 432.741 152, 432.219 153.238, 432.115 154.750 C 431.909 157.740, 431.287 162.201, 430.965 163 C 430.854 163.275, 430.819 163.846, 430.888 164.268 C 430.956 164.690, 430.369 166.575, 429.582 168.457 C 428.278 171.578, 428.300 171.835, 429.826 171.383 C 430.899 171.065, 430.692 171.490, 429.250 172.566 C 426.577 174.560, 426.277 176.201, 428.750 175.299 C 430.417 174.691, 430.417 174.756, 428.750 176.659 C 426.789 178.898, 426.420 180.476, 428.100 179.438 C 428.895 178.947, 428.894 179.330, 428.094 180.824 C 427.487 181.959, 426.542 183.165, 425.995 183.503 C 424.416 184.479, 424.841 186.275, 426.500 185.638 C 428.346 184.930, 428.346 184.928, 426.475 189.405 C 425.624 191.443, 423.218 194.256, 421.025 195.777 C 415.875 199.350, 415.095 201.120, 419.188 199.946 C 420.870 199.464, 423.299 198.379, 424.588 197.535 C 425.876 196.691, 427.210 196, 427.553 196 C 428.036 196, 427.294 216.621, 426.635 221.500 C 426.561 222.050, 427.714 222.640, 429.197 222.811 C 431.732 223.104, 431.863 222.923, 431.374 219.811 C 431.088 217.990, 431.285 210.875, 431.813 204 C 432.717 192.220, 432.988 191.125, 436.503 185 C 438.555 181.425, 440.653 177.150, 441.164 175.500 C 443.128 169.167, 444.997 156.181, 444.999 148.857 C 445 142.646, 445.312 141.094, 446.667 140.574 C 447.882 140.108, 448.035 139.635, 447.232 138.832 C 446.036 137.636, 447.891 135, 449.929 135 C 450.518 135, 451 134.564, 451 134.031 C 451 133.499, 451.753 133.352, 452.674 133.705 C 453.951 134.195, 454.192 133.943, 453.693 132.642 C 452.828 130.388, 456.802 128.838, 460.655 129.926 C 462.852 130.546, 463.995 130.281, 465.676 128.760 C 469.071 125.687, 470.160 127.362, 469.959 135.352 C 469.861 139.283, 470.099 144.750, 470.490 147.500 C 470.880 150.250, 471.267 154.975, 471.350 158 C 471.432 161.025, 471.921 163.803, 472.436 164.174 C 472.986 164.570, 472.806 165.528, 472 166.500 C 471.008 167.695, 470.942 168.346, 471.762 168.853 C 472.500 169.309, 472.570 170.066, 471.963 171.026 C 470.730 172.975, 470.750 174.273, 472 173.500 C 473.331 172.677, 473.272 173.105, 471.452 177.460 C 469.946 181.066, 469.959 181.148, 471.952 180.515 C 474.509 179.704, 474.501 179.978, 471.819 185.123 C 470.409 187.829, 467.897 190.390, 464.714 192.369 C 462.005 194.052, 460.320 195.607, 460.968 195.823 C 462.762 196.421, 470.725 193.103, 473.894 190.436 L 476.709 188.067 477.348 196.284 C 477.700 200.803, 477.991 207.511, 477.994 211.191 C 477.997 214.871, 478.450 218.160, 479 218.500 C 479.550 218.840, 480 220.640, 480 222.500 C 480 224.360, 480.492 226.186, 481.094 226.558 C 481.696 226.930, 481.977 228.342, 481.718 229.696 C 481.426 231.220, 481.771 232.359, 482.624 232.686 C 483.381 232.976, 484 233.910, 484 234.761 C 484 236.688, 491.843 244.063, 492.596 242.845 C 492.899 242.355, 491.532 239.067, 489.559 235.539 C 486.360 229.819, 485.075 225.636, 483.404 215.500 C 482.185 208.104, 481.022 189.128, 481.565 185.500 C 481.895 183.300, 483.028 178.526, 484.083 174.892 C 488.315 160.307, 485.052 138.401, 476.055 121 C 471.874 112.915, 454.798 108.916, 439.553 112.451 C 435.767 113.329, 427.007 116.237, 420.085 118.914 C 413.163 121.590, 403.450 124.998, 398.500 126.487 C 393.550 127.976, 386.350 130.545, 382.500 132.196 C 374.030 135.827, 357.875 141.782, 354.759 142.421 C 353.516 142.676, 351.076 143.318, 349.337 143.847 L 346.173 144.811 344.138 139.155 C 339.916 127.420, 337.679 109.638, 339.969 106.015 C 340.635 104.963, 340.299 103.883, 338.814 102.302 C 336.996 100.367, 336.789 99.218, 337.241 93.584 C 337.679 88.126, 337.469 86.829, 335.917 85.425 C 334.902 84.506, 333.310 81.760, 332.379 79.322 C 331.298 76.491, 329.675 74.366, 327.889 73.443 C 323.911 71.385, 321.435 61.965, 324.158 59.242 C 325.023 58.377, 325.028 57.739, 324.180 56.717 C 323.291 55.645, 323.795 54.622, 326.507 51.993 C 328.412 50.147, 330.176 48.843, 330.428 49.094 C 332.587 51.253, 336.338 58.036, 336.722 60.475 C 337.417 64.887, 338.614 66.661, 342.054 68.377 C 344.273 69.484, 345.806 69.644, 347.612 68.957 C 352.232 67.201, 357.919 61.779, 359.519 57.604 C 361.144 53.366, 367.630 46.030, 374.987 40.109 C 380.634 35.565, 382.992 31.450, 382.996 26.132 C 382.999 22.360, 382.449 21.214, 378.959 17.724 L 374.919 13.683 390.709 14.319 C 405.487 14.914, 422.611 16.798, 433 18.971 C 438.732 20.171, 441.415 20.117, 437.500 18.881 C 429.527 16.365, 407.253 13.820, 389 13.339 C 373.370 12.927, 368.469 12.453, 364.305 10.947 C 351.913 6.467, 340.873 5.157, 330.500 6.936 M 442.038 21.546 C 442.743 22.396, 443.895 22.871, 444.596 22.601 C 445.852 22.120, 450.821 25.352, 452.210 27.554 C 452.601 28.173, 453.860 29.765, 455.010 31.090 L 457.099 33.500 455.644 30.500 C 453.903 26.907, 450.650 23.815, 446.300 21.617 C 442.113 19.502, 440.317 19.472, 442.038 21.546 M 303.199 85.352 C 298.015 92.219, 288.903 110.252, 285.504 120.370 C 284.050 124.698, 281.811 130.548, 280.528 133.370 C 277.299 140.468, 275.912 145.049, 276.637 146.221 C 277.291 147.279, 275.207 154.862, 273.826 156.450 C 273.372 156.972, 273 159.178, 273 161.350 C 273 166.899, 269.964 181.356, 268.619 182.212 C 267.751 182.764, 265.730 207.578, 266.460 208.716 C 266.712 209.109, 284.418 183.717, 288.894 176.542 C 295.140 166.534, 301.213 159, 303.037 159 C 303.897 159, 305.140 159.540, 305.800 160.200 C 307.257 161.657, 307.362 160.544, 306.006 158.011 C 303.906 154.086, 301.804 133.704, 302.424 123.259 C 303.013 113.320, 306.048 93.105, 308.018 86 C 310.164 78.261, 308.702 78.064, 303.199 85.352" fill="none" stroke="#000" stroke-width="2px" fill-rule="evenodd"/>
</svg>
