<svg xmlns="http://www.w3.org/2000/svg" width="500" height="286" viewBox="0 0 500 286" version="1.1">
	<path d="M 471.354 6.692 C 470.174 6.923, 468.482 7.915, 467.594 8.896 C 466.102 10.545, 466.164 11.243, 468.416 18.090 C 469.757 22.166, 471.588 27.236, 472.485 29.358 C 473.383 31.480, 473.911 33.423, 473.658 33.675 C 472.912 34.421, 450.636 24.408, 450.212 23.136 C 449.830 21.989, 454.594 19.523, 458.500 18.846 C 459.906 18.603, 460.459 19.020, 460.361 20.250 C 460.159 22.797, 461.863 22.395, 462.530 19.738 C 463.237 16.920, 460.629 10.455, 458.447 9.618 C 456.640 8.925, 454.713 9.727, 455.424 10.876 C 455.674 11.282, 452.161 13.509, 447.616 15.825 L 439.352 20.035 435.023 18.508 C 422.543 14.105, 409.957 11.870, 398.964 12.105 C 392.953 12.234, 385.665 12.767, 382.768 13.289 C 360.649 17.279, 347.132 20.435, 342.194 22.762 C 331.625 27.743, 323.765 37.851, 320.909 50.133 L 319.600 55.763 314.550 51.972 C 311.773 49.886, 305.900 46.503, 301.500 44.453 C 297.100 42.403, 291.475 38.935, 289 36.747 C 286.525 34.559, 281.825 31.467, 278.556 29.876 C 275.286 28.285, 271.686 26.170, 270.556 25.176 C 266.530 21.638, 262.912 19.893, 260.913 20.528 C 259.531 20.966, 259.096 21.727, 259.500 22.999 C 260.606 26.485, 256.767 25.672, 252.987 21.621 C 249.800 18.204, 249.104 17.874, 247.219 18.883 C 244.689 20.237, 245.226 22.576, 248.697 25.323 C 251.478 27.523, 251.646 29.584, 249.153 30.918 C 247.869 31.605, 246.934 31.540, 246.086 30.703 C 245.133 29.764, 244.554 29.922, 243.445 31.425 C 242.663 32.483, 240.339 33.929, 238.280 34.637 C 235.037 35.752, 234.420 35.714, 233.659 34.355 C 231.675 30.810, 227.265 26.718, 226.163 27.399 C 224.708 28.298, 224.642 31.661, 226.062 32.538 C 227.542 33.453, 229.028 37.612, 229.979 43.500 C 230.926 49.368, 229.825 52.101, 223.734 59 C 221.549 61.475, 219.057 64.963, 218.195 66.750 C 216.586 70.091, 215 71.036, 215 68.655 C 215 67.915, 214.119 66.512, 213.041 65.537 C 211.964 64.562, 210.353 61.568, 209.461 58.882 C 208.569 56.197, 207.377 54, 206.813 54 C 206.219 54, 206.099 54.738, 206.527 55.750 C 206.935 56.713, 207.572 59.316, 207.943 61.537 C 208.314 63.757, 208.978 66.156, 209.418 66.867 C 212.041 71.112, 213.157 84.167, 211.010 85.494 C 210.592 85.752, 208.506 84.715, 206.375 83.189 C 194.603 74.759, 179.787 72.613, 164.639 77.146 C 155.951 79.746, 124.980 94.877, 119.758 99.074 C 117.682 100.743, 115.537 101.832, 114.991 101.494 C 114.023 100.896, 99.011 110.634, 98.989 111.875 C 98.982 112.219, 96.170 115.511, 92.739 119.191 C 89.307 122.872, 84.694 127.822, 82.488 130.191 C 78.027 134.981, 68 147.653, 68 148.500 C 68 150.138, 62.569 156.875, 60.482 157.826 C 58.904 158.545, 58.246 159.476, 58.622 160.457 C 59.006 161.458, 58.148 162.577, 56.108 163.738 C 53.765 165.071, 52.644 166.756, 51.505 170.654 C 50.677 173.489, 50 176.249, 50 176.789 C 50 177.328, 48.805 178.553, 47.345 179.509 C 44.823 181.162, 44.544 181.162, 41.742 179.506 C 34.441 175.194, 16.898 173.450, 11.080 176.459 C 9.446 177.304, 7.363 179.823, 6.130 182.448 C 3.495 188.052, 3.407 190.329, 5.954 187.015 C 7.004 185.648, 8.061 184.748, 8.302 185.015 C 8.543 185.282, 9.196 187.750, 9.752 190.500 L 10.764 195.500 10.882 191.405 C 11.031 186.241, 13.444 183.930, 19.384 183.260 C 22.938 182.860, 24.493 183.215, 27.002 185.001 C 29.254 186.605, 29.846 187.554, 29.077 188.323 C 28.485 188.915, 28 190.214, 28 191.209 C 28 192.815, 28.622 192.944, 33.550 192.365 C 37.127 191.945, 40.593 192.183, 43.300 193.037 C 49.701 195.054, 50.083 195.557, 48.356 199.691 C 47.392 201.996, 47.207 203.607, 47.832 204.232 C 48.458 204.858, 49.042 204.443, 49.480 203.063 C 50.225 200.717, 56.989 196, 59.609 196 C 61.018 196, 61.157 196.757, 60.566 201.215 L 59.874 206.430 61.937 203.807 C 63.072 202.365, 64 200.671, 64 200.043 C 64 198.295, 66.991 192.896, 70.118 189 C 71.663 187.075, 73.813 182.724, 74.896 179.331 C 75.979 175.937, 77.618 171.705, 78.539 169.925 C 82.691 161.895, 112.482 117.982, 114.132 117.458 C 115.146 117.136, 117.327 117.671, 118.978 118.646 C 121.661 120.231, 122.488 120.278, 126.740 119.090 C 138.949 115.677, 143.579 115.597, 140.637 118.849 C 138.130 121.620, 135.213 129.451, 134.468 135.406 C 133.566 142.628, 131.847 143.993, 125.019 142.914 C 122.287 142.482, 119.348 141.735, 118.488 141.253 C 116.147 139.943, 106.492 142.194, 103.813 144.674 C 102.541 145.851, 99.588 147.802, 97.250 149.008 C 93.985 150.694, 93 151.776, 93 153.678 C 93 156.201, 97.874 162, 99.995 162 C 100.669 162, 100.480 161.337, 99.537 160.394 C 98.209 159.066, 98.153 158.504, 99.215 157.144 C 103.465 151.705, 110.461 148.853, 117.791 149.572 C 124.241 150.205, 131 153.538, 131 156.086 C 131 157.438, 132.256 157.949, 136.906 158.489 C 141.767 159.053, 142.910 159.548, 143.364 161.285 C 143.965 163.583, 142.497 166, 140.499 166 C 139.808 166, 136.665 169.835, 133.514 174.522 C 130.363 179.209, 125.358 185.570, 122.392 188.656 C 119.427 191.743, 117 194.791, 117 195.431 C 117 196.070, 115.468 199.460, 113.596 202.964 C 110.760 208.271, 110.415 209.557, 111.525 210.667 C 112.257 211.400, 113.897 212, 115.168 212 L 117.480 212 114.990 214.261 C 111.832 217.128, 98.181 225, 96.368 225 C 95.589 225, 95 226.039, 95 227.413 C 95 229.041, 93.531 231.077, 90.492 233.663 C 86.433 237.118, 86.153 237.625, 87.683 238.750 C 89.960 240.425, 90.198 242.800, 88.156 243.461 C 86.394 244.031, 83.862 248.529, 84.784 249.451 C 85.822 250.489, 92.068 249.998, 95.369 248.619 C 97.675 247.656, 99.211 247.538, 100.450 248.232 C 103.316 249.836, 108.750 248.367, 114.056 244.556 C 118.320 241.492, 119 241.263, 119 242.895 C 119 245.504, 121.129 246.078, 124.589 244.402 C 128.728 242.398, 132.439 238.985, 134.270 235.500 C 135.729 232.723, 135.904 232.649, 136.622 234.500 C 137.769 237.451, 139.288 238.788, 140.463 237.877 C 144.669 234.616, 149 230.334, 149 229.437 C 149 228.844, 150.527 227.142, 152.394 225.654 C 156.957 222.015, 157.409 217.760, 154.258 208.077 C 151.297 198.976, 151.769 195.288, 156.419 191.205 C 159.169 188.791, 161.020 188.134, 166.639 187.577 C 170.412 187.203, 176.517 186.189, 180.205 185.324 C 190.314 182.953, 192.189 184.579, 187.641 191.770 C 185.508 195.142, 175.445 206.845, 170.885 211.257 C 169.238 212.850, 169.253 216.579, 170.903 215.560 C 171.284 215.325, 172.182 215.494, 172.898 215.937 C 173.615 216.380, 176.068 216.294, 178.350 215.746 C 180.633 215.199, 183.233 214.669, 184.129 214.570 C 185.025 214.470, 186.937 213.616, 188.379 212.671 C 189.820 211.727, 191.007 211.302, 191.015 211.727 C 191.024 212.152, 191.361 211.988, 191.765 211.363 C 192.169 210.738, 194.020 209.380, 195.877 208.346 C 198.059 207.131, 199.828 205.036, 200.877 202.424 C 201.770 200.201, 204.321 196.501, 206.546 194.202 C 209.944 190.691, 211.707 189.767, 217.546 188.434 C 221.371 187.561, 227.088 186.059, 230.250 185.096 C 234.816 183.706, 236 183.619, 236 184.673 C 236 186.319, 243.562 186.517, 244.564 184.897 C 245.557 183.290, 255.119 179.021, 257.750 179.010 C 258.988 179.004, 260 178.550, 260 178 C 260 176.643, 262.334 176.734, 263.746 178.146 C 264.607 179.007, 264.408 180.239, 262.946 183.106 C 261.876 185.204, 261 187.445, 261 188.085 C 261 189.877, 267.024 188.326, 269.651 185.858 C 272.662 183.030, 274.994 184.055, 275.022 188.219 C 275.066 194.645, 277.363 195.943, 291.665 197.626 C 296.541 198.200, 296.849 198.101, 297.165 195.867 C 297.349 194.565, 298.175 193.500, 299 193.500 C 300.093 193.500, 300.436 194.450, 300.263 197 C 299.732 204.870, 290.275 235.957, 288.167 236.766 C 286.352 237.463, 284 234.383, 284 231.309 C 284 228.013, 281.287 228.418, 280.538 231.826 C 279.825 235.072, 281.058 238.974, 283.416 240.930 C 285.722 242.844, 291.120 241.119, 292.684 237.968 C 293.357 236.611, 295.096 232.125, 296.546 228 C 297.997 223.875, 300.198 217.800, 301.438 214.500 C 302.677 211.200, 304.537 204.563, 305.571 199.750 C 307.498 190.782, 308.844 189.176, 311.232 193 C 311.919 194.100, 313.385 195.004, 314.491 195.009 C 317.534 195.023, 325.341 199.150, 328.205 202.260 C 329.604 203.778, 331.037 206.703, 331.391 208.760 C 332.933 217.727, 344.891 227.995, 354.742 228.812 C 357.639 229.052, 360 228.829, 360 228.315 C 360 227.802, 358.413 224.748, 356.474 221.527 C 351.453 213.189, 349 207.252, 349 203.440 C 349 198.691, 351.587 198.260, 358.299 201.891 C 364.019 204.986, 372.401 207, 379.561 207 C 382.003 207, 384.257 207.605, 384.958 208.449 C 385.619 209.246, 387.702 210.407, 389.588 211.029 C 393.626 212.362, 395 214.521, 395 219.537 C 395 222.488, 394.102 224.205, 390.413 228.308 C 387.890 231.114, 384.823 235.455, 383.598 237.955 C 381.675 241.877, 381.479 243.322, 382.165 248.500 C 382.602 251.800, 383.712 256.188, 384.631 258.250 C 386.011 261.343, 386.814 262, 389.218 262 C 392.505 262, 396.106 260.376, 397.300 258.354 C 398.566 256.210, 399.904 256.767, 400.650 259.750 C 401.899 264.743, 404.973 270.776, 406.581 271.393 C 409.245 272.415, 411.693 272.074, 413 270.500 C 415.114 267.952, 416.737 268.794, 420.690 274.488 C 424.562 280.065, 428.128 281.715, 429.362 278.500 C 430.134 276.487, 437.177 276.523, 441.117 278.561 C 442.777 279.419, 445.117 279.982, 446.318 279.811 C 448.284 279.531, 448.469 278.994, 448.191 274.382 C 447.916 269.827, 448.123 269.201, 450.073 268.691 C 451.662 268.276, 452.122 267.574, 451.747 266.141 C 451.288 264.385, 451.638 264.213, 454.865 264.605 C 458.863 265.092, 458.067 264.518, 450.500 261.463 L 446.500 259.848 450.250 257.900 C 454.928 255.470, 454.973 254.968, 450.445 255.703 C 446.753 256.302, 446.118 256.112, 436.957 251.663 C 431.339 248.935, 428 245.018, 428 241.155 C 428 238.700, 428.811 238.122, 432.668 237.829 C 435.424 237.618, 435.600 237.355, 435.421 233.683 C 435.317 231.526, 434.811 229.477, 434.297 229.130 C 433.783 228.784, 432.580 226.475, 431.625 224 C 429.731 219.096, 425.272 212.220, 420.925 207.500 C 419.405 205.850, 417.939 203.035, 417.667 201.244 C 417.395 199.452, 416.009 195.652, 414.586 192.797 C 413.164 189.943, 412 187.246, 412 186.804 C 412 186.362, 411.072 185.072, 409.938 183.938 C 408.803 182.803, 408.032 181.405, 408.223 180.830 C 408.415 180.255, 407.206 178.337, 405.536 176.568 C 401.237 172.013, 387.179 160, 386.149 160 C 385.675 160, 383.310 158.516, 380.894 156.702 C 378.477 154.889, 374.587 152.792, 372.250 152.042 C 369.913 151.293, 368 150.287, 368 149.808 C 368 148.337, 363.613 147.139, 362.250 148.238 C 361.410 148.914, 361 148.913, 361 148.234 C 361 147.678, 358.413 147.191, 355.250 147.152 C 338.124 146.941, 337.801 146.796, 342.352 141.327 C 346.519 136.320, 349.463 125.580, 349.159 116.500 C 349.012 112.100, 348.466 106.878, 347.946 104.897 C 347.303 102.442, 347.369 100.239, 348.155 97.985 C 351.678 87.880, 369.928 56.936, 375.698 51.287 C 378.064 48.970, 380 46.608, 380 46.037 C 380 44.375, 381.658 44.798, 388.279 48.148 C 398.205 53.170, 412.993 58.142, 419.500 58.643 C 426.731 59.201, 433.662 57.153, 433.198 54.596 C 432.997 53.486, 433.996 52.538, 436.198 51.748 C 438.014 51.097, 439.837 50.663, 440.250 50.782 C 440.663 50.902, 441 50.353, 441 49.562 C 441 48.614, 440.063 48.188, 438.250 48.312 C 435.832 48.477, 435.481 48.127, 435.343 45.408 C 435.060 39.814, 436.168 39.292, 442.688 41.951 C 453.344 46.295, 460.438 49.882, 467.267 54.375 C 474.379 59.055, 486.257 63.729, 486.811 62.067 C 487.017 61.450, 488.037 61.444, 489.632 62.050 C 493.609 63.562, 494.696 63.097, 492.149 60.974 C 490.164 59.321, 490.045 58.920, 491.384 58.406 C 492.737 57.887, 492.646 57.534, 490.768 56.013 C 489.016 54.594, 488.807 53.938, 489.745 52.807 C 491.275 50.964, 490.954 39, 489.376 39 C 488.351 39, 486.920 36.172, 486.587 33.490 C 486.321 31.343, 479.857 20.882, 478.466 20.349 C 476.712 19.675, 476.486 16, 478.200 16 C 479.133 16, 479.133 15.733, 478.200 14.800 C 475.171 11.771, 477.357 8, 482.141 8 C 483.228 8, 483.840 7.550, 483.500 7 C 482.899 6.028, 475.684 5.845, 471.354 6.692 M 398.459 27.067 C 397.445 28.708, 398.779 29.460, 402.886 29.563 C 404.949 29.615, 407.168 29.986, 407.818 30.388 C 408.468 30.789, 409 30.850, 409 30.523 C 409 30.196, 410.650 31.049, 412.667 32.420 C 414.684 33.790, 416.821 34.634, 417.417 34.295 C 418.013 33.957, 418.184 34.030, 417.798 34.459 C 416.644 35.739, 419.741 38.084, 423.363 38.671 C 426.757 39.222, 428.462 38.232, 427.184 36.452 C 426.256 35.160, 420.469 32, 419.032 32 C 418.394 32, 415.361 30.852, 412.293 29.448 C 409.224 28.044, 406.103 27.130, 405.357 27.417 C 404.611 27.703, 404 27.501, 404 26.969 C 404 25.651, 399.282 25.735, 398.459 27.067 M 159.556 127.716 C 157.431 136.176, 152.282 149.292, 150.134 151.716 C 148.385 153.689, 145 159.418, 145 160.404 C 145 162.063, 147.325 160.525, 151.195 156.307 C 158.743 148.078, 165.050 142, 166.040 142 C 166.568 142, 167 141.339, 167 140.531 C 167 139.684, 167.592 139.290, 168.398 139.599 C 169.167 139.894, 170.707 139.157, 171.821 137.961 C 172.935 136.766, 174.331 136.087, 174.923 136.453 C 175.516 136.819, 176 136.641, 176 136.059 C 176 135.477, 176.948 135, 178.107 135 C 179.650 135, 180.045 134.560, 179.584 133.359 C 179.059 131.991, 179.207 131.926, 180.465 132.971 C 181.699 133.995, 182.089 133.931, 182.593 132.618 C 182.937 131.721, 183.715 131.328, 184.355 131.728 C 186.385 132.997, 188 132.860, 188 131.417 C 188 129.809, 182.787 127.235, 172.076 123.552 C 161.460 119.903, 161.524 119.882, 159.556 127.716" fill="none" stroke="#000" stroke-width="2px" fill-rule="evenodd"/>
</svg>
