<svg xmlns="http://www.w3.org/2000/svg" width="264" height="198" viewBox="0 0 264 198" version="1.1">
	<path d="M 70.250 2.491 C 61.829 6.151, 69.343 11.205, 101.500 23.508 C 107 25.613, 111.630 27.426, 111.788 27.539 C 111.947 27.651, 109.423 31.750, 106.179 36.648 C 102.936 41.546, 99.571 46.892, 98.703 48.527 C 97.834 50.162, 95.187 53.075, 92.821 55 C 90.455 56.925, 86.143 60.851, 83.240 63.725 C 69.301 77.526, 50.259 86.010, 33.263 85.992 C 28.993 85.987, 20.550 85.321, 14.500 84.511 C 1.405 82.759, -0.738 82.669, 0.550 83.930 C 2.245 85.591, 15.280 88.165, 16.010 86.984 C 16.471 86.237, 17.998 86.222, 21.085 86.933 C 35.256 90.200, 55.381 85.857, 69.200 76.551 C 75.274 72.461, 76 72.288, 76 74.933 C 76 76.048, 76.951 77.182, 78.250 77.614 C 81.027 78.538, 86.172 78.148, 87.450 76.916 C 87.973 76.412, 89.175 76, 90.123 76 C 91.071 76, 93.212 74.851, 94.881 73.447 C 96.550 72.042, 98.515 71.030, 99.247 71.197 C 99.978 71.363, 102.673 70.389, 105.235 69.030 C 107.797 67.672, 110.139 66.805, 110.439 67.105 C 111.080 67.747, 104.462 84.502, 102.409 87.433 C 101.634 88.540, 101 90.144, 101 90.999 C 101 92.374, 96.217 98.942, 87.109 110.072 C 84.783 112.914, 74.009 128.396, 68.500 136.811 C 67.950 137.651, 59.099 146.770, 48.832 157.076 C 29.907 176.073, 22.313 182.203, 13.760 185.391 C 9.227 187.080, 7.258 188.591, 8.270 189.603 C 9.467 190.801, 30.264 181.236, 29.423 179.875 C 29.117 179.380, 31.448 176.618, 34.603 173.737 C 51.907 157.939, 71.096 137.873, 75.949 130.500 C 84.529 117.467, 98.552 99.013, 101.047 97.471 C 102.014 96.873, 105.625 89.283, 107.930 83 C 108.636 81.075, 109.824 78.150, 110.570 76.500 C 111.316 74.850, 112.797 71.408, 113.862 68.852 C 115.470 64.990, 116.365 64.079, 119.149 63.468 C 120.992 63.063, 124.833 61.588, 127.685 60.190 C 133.716 57.232, 135.380 57.879, 136.453 63.600 C 136.977 66.396, 136.560 68.075, 134.442 71.689 C 130.621 78.209, 125.375 83.706, 120.084 86.733 C 117.563 88.176, 115.323 89.490, 115.107 89.654 C 114.523 90.098, 117.111 93, 118.091 93 C 118.556 93, 118.693 92.364, 118.394 91.586 C 118.042 90.667, 119.447 89.236, 122.402 87.505 C 126.289 85.227, 133.714 76.871, 136.960 71.121 C 137.693 69.823, 138.127 69.749, 139.138 70.750 C 139.832 71.438, 141.660 72, 143.200 72 C 146.517 72, 146.474 71.497, 143.998 81.322 C 141.867 89.780, 141.624 96.976, 141.965 141.500 C 142.143 164.619, 141.554 175.386, 139.998 177.500 C 139.593 178.050, 139.006 180.525, 138.695 183 C 138.383 185.475, 137.815 188.625, 137.433 190 C 136.790 192.312, 136.864 192.381, 138.419 190.914 C 139.344 190.041, 140.709 186.666, 141.452 183.414 C 144.437 170.353, 145.207 156.394, 144.551 127.232 C 143.989 102.279, 144.133 97.274, 145.648 89.181 C 147.345 80.118, 147.486 79.824, 150.818 78.431 C 155.100 76.643, 154.802 76.587, 155.180 79.240 C 155.717 83, 158.473 82.334, 164.257 77.048 C 170.273 71.550, 171.833 71.053, 174.349 73.833 C 176.500 76.210, 175.561 84.689, 172.859 87.289 C 170.649 89.415, 170.531 90.870, 172.351 93.527 C 173.094 94.612, 173.995 97.750, 174.354 100.500 C 175.659 110.501, 185.307 132.540, 192.186 141.232 C 193.811 143.285, 194.866 145.407, 194.532 145.949 C 193.776 147.172, 207.745 156.597, 208.762 155.550 C 209.168 155.132, 207.933 153.600, 206.017 152.145 C 194.917 143.715, 191.129 138.126, 182.182 116.983 C 177.483 105.879, 176.354 102, 177.818 102 C 178.388 102, 178.999 101.326, 179.177 100.503 C 179.420 99.378, 180.726 99.938, 184.426 102.753 C 188.842 106.113, 189.858 107.688, 194.252 118 C 199.735 130.866, 201.640 133.747, 200.535 127.500 C 199.794 123.310, 197.499 117.092, 193.424 108.228 C 190.354 101.551, 190.376 100.805, 193.613 101.618 L 196.225 102.273 194.498 99.637 C 192.774 97.007, 192.777 97, 195.541 97 C 197.064 97, 199.704 98.048, 201.406 99.329 C 205.227 102.204, 227.139 113.299, 232.250 114.946 C 234.422 115.646, 236 116.799, 236 117.685 C 236 118.668, 236.564 118.997, 237.582 118.607 C 238.452 118.273, 240.102 118, 241.248 118 C 244.492 118, 242.769 117.013, 234.307 114.022 C 225.391 110.871, 211.337 103.601, 202.404 97.520 C 199.052 95.238, 194.889 92.782, 193.154 92.064 C 189.349 90.488, 189.288 90.018, 192.497 87.003 C 194.987 84.664, 195.025 84.661, 207.247 85.815 C 213.986 86.452, 225.328 87.884, 232.452 88.997 C 245.552 91.046, 254.649 91.377, 255.599 89.840 C 256.242 88.800, 257.208 88.942, 246 88.425 C 240.775 88.184, 233.575 87.561, 230 87.039 C 216.416 85.058, 206.275 83.901, 200 83.615 C 196.425 83.453, 193.613 83.023, 193.750 82.660 C 193.887 82.297, 194 81.660, 194 81.243 C 194 80.412, 201.062 78, 203.498 78 C 204.339 78, 205.809 77.594, 206.764 77.097 C 207.719 76.601, 211.650 75.657, 215.500 74.999 C 224.163 73.519, 231.164 71.564, 234.759 69.620 C 236.267 68.805, 242.675 65.588, 249 62.471 C 261.133 56.491, 263 55.336, 263 53.809 C 263 53.289, 261.762 53.738, 260.250 54.805 C 257.080 57.044, 242.201 64.655, 233.688 68.393 C 228.268 70.773, 219.669 72.900, 209 74.502 C 206.525 74.873, 202.025 75.914, 199 76.814 C 195.975 77.714, 193.087 78.461, 192.583 78.475 C 191.390 78.508, 191.016 75.982, 190.070 61.500 C 189.589 54.138, 188.651 48.063, 187.643 45.782 C 186.653 43.541, 185.995 39.370, 185.986 35.282 C 185.979 31.552, 185.701 27.488, 185.370 26.250 C 184.469 22.887, 181.463 23.514, 178.944 27.590 C 176.512 31.525, 176.615 31.519, 167.263 28.302 C 161.374 26.275, 161.442 26.479, 163.086 15.886 C 163.683 12.037, 163.898 8.178, 163.565 7.308 C 163.016 5.879, 162.783 5.886, 161.134 7.378 C 160.131 8.286, 158.809 10.710, 158.197 12.764 C 157.584 14.819, 156.589 18.158, 155.985 20.184 L 154.888 23.868 148.194 21.322 C 144.512 19.921, 140.375 18.370, 139 17.876 C 137.052 17.176, 136.108 15.646, 134.725 10.948 C 132.409 3.079, 130.674 2.446, 126.069 7.793 L 122.499 11.938 117.999 10.342 C 115.525 9.465, 108.775 7.410, 103 5.776 C 86.122 1, 76.013 -0.014, 70.250 2.491 M 126.980 10.524 C 125.520 12.283, 125.655 12.491, 128.901 13.491 C 130.897 14.106, 131.193 13.944, 130.651 12.534 C 130.293 11.600, 130 10.423, 130 9.918 C 130 8.505, 128.387 8.829, 126.980 10.524 M 158 20 C 157.302 21.685, 156.956 23.289, 157.231 23.564 C 157.506 23.839, 158.302 22.685, 159 21 C 159.698 19.315, 160.044 17.711, 159.769 17.436 C 159.494 17.161, 158.698 18.315, 158 20 M 113.116 30.889 C 107.490 38.948, 104.150 43.923, 102.050 47.366 L 99.693 51.232 102.020 50.494 C 103.299 50.088, 105.178 48.980, 106.196 48.032 C 107.213 47.085, 110.588 45.452, 113.696 44.405 C 116.954 43.307, 121.055 40.912, 123.379 38.750 C 125.597 36.688, 127.512 35, 127.634 35 C 127.757 35, 128.566 35.709, 129.433 36.576 C 130.765 37.908, 131.573 37.966, 134.654 36.949 C 139.817 35.245, 139.195 34.939, 119.719 29.590 C 115.038 28.304, 114.901 28.331, 113.116 30.889 M 181.040 31.452 C 179.564 33.231, 180.602 37, 182.567 37 C 183.538 37, 184 35.871, 184 33.500 C 184 29.775, 183.004 29.086, 181.040 31.452 M 145.692 56.750 C 144.409 58.813, 143.046 61.031, 142.663 61.681 C 142.281 62.330, 142.423 63.143, 142.979 63.487 C 143.536 63.831, 144.551 62.850, 145.234 61.306 C 145.918 59.763, 147.044 57.905, 147.738 57.179 C 148.962 55.897, 149.499 53, 148.513 53 C 148.244 53, 146.975 54.688, 145.692 56.750 M 140.980 55.524 C 140.284 56.362, 139.993 57.327, 140.333 57.667 C 141.060 58.393, 144 56.156, 144 54.878 C 144 53.500, 142.370 53.849, 140.980 55.524 M 179.732 93.601 C 179.379 93.954, 180.440 95.594, 182.090 97.244 C 185.636 100.790, 187.232 100.128, 184.372 96.297 C 182.231 93.429, 180.759 92.574, 179.732 93.601" fill="none" stroke="#000" stroke-width="2px" fill-rule="evenodd"/>
</svg>
