<svg xmlns="http://www.w3.org/2000/svg" width="500" height="482" viewBox="0 0 500 482" version="1.1">
	<path d="M 334.965 5.694 C 335.540 6.901, 336.465 8.169, 337.020 8.512 C 337.575 8.855, 338.969 11.018, 340.118 13.318 C 341.268 15.618, 345.874 21.142, 350.354 25.593 C 358.601 33.785, 367.698 44.565, 372.536 51.875 C 375.143 55.815, 384.004 79.810, 383.996 82.911 C 383.992 84.680, 376.887 88, 373.106 88 C 371.800 88, 369.012 87.485, 366.909 86.855 C 363.494 85.832, 363.201 85.493, 364.164 83.693 C 364.757 82.585, 365.349 76.913, 365.479 71.089 C 365.610 65.265, 366.054 59.263, 366.466 57.750 C 367.100 55.427, 366.911 55, 365.248 55 C 363.605 55, 363.157 55.950, 362.535 60.750 C 362.125 63.913, 361.851 68.075, 361.926 70 C 362.001 71.925, 361.093 76.537, 359.907 80.248 C 357.754 86.984, 357.741 87, 352.732 88.487 C 349.972 89.306, 344.291 90.257, 340.107 90.599 C 330.312 91.400, 328.899 90.337, 321.558 76.652 C 315.627 65.594, 312.482 55.577, 313.321 50.412 C 313.616 48.592, 313.309 46.437, 312.621 45.496 C 311.520 43.991, 311.263 43.978, 310.114 45.362 C 307.511 48.500, 314.101 71.241, 321.532 84.760 C 323.564 88.457, 324.741 91.659, 324.248 92.152 C 323.755 92.645, 317.772 92.387, 310.439 91.556 C 267.455 86.685, 167.613 85.862, 126.500 90.040 C 113.318 91.379, 82.002 96.570, 72.606 98.973 C 54.149 103.693, 33.658 115.085, 21.481 127.394 C 14.489 134.461, 5 146.862, 5 148.932 C 5 150.419, 11.628 157, 13.126 157 C 14.831 157, 42.538 170.411, 45 172.428 C 45.825 173.104, 48.813 174.165, 51.640 174.786 C 54.467 175.406, 61.217 178.474, 66.640 181.602 C 78.169 188.253, 81.878 190.855, 88 196.587 C 90.475 198.904, 95.200 202.494, 98.500 204.564 C 101.800 206.634, 106.975 210.208, 110 212.505 C 115.755 216.876, 118.587 217.816, 128.500 218.647 C 133.187 219.039, 137.128 220.446, 146.513 225.075 C 153.120 228.334, 159.478 231, 160.641 231 C 165.618 231, 169.851 228.126, 171.988 223.294 C 174.941 216.619, 176.681 214.909, 179.346 216.062 C 180.531 216.575, 187.928 218.345, 195.785 219.997 C 211.127 223.222, 220.314 223.696, 234.926 222.016 C 240.576 221.367, 243.756 221.382, 244.578 222.064 C 247.142 224.192, 232.254 247.287, 217.427 264.181 C 210.213 272.401, 209.187 277.015, 208.563 304.061 C 208.264 317.020, 207.572 329.984, 207.025 332.870 C 205.899 338.804, 207.374 351.762, 209.508 354.679 C 210.702 356.313, 211.334 356.225, 219.641 353.269 C 233.526 348.329, 240.961 345.041, 245.217 341.958 C 247.378 340.392, 251.701 338.583, 254.823 337.938 C 257.945 337.293, 261.693 335.919, 263.150 334.885 C 264.608 333.852, 268.658 331.708, 272.150 330.121 C 279.311 326.868, 282.577 323.386, 291.587 309.393 C 298.748 298.272, 307.305 286.505, 311.333 282.240 L 314.411 278.981 316.130 286.267 C 319.613 301.025, 329.650 320.840, 340.140 333.667 C 343.410 337.666, 345.766 341.446, 345.469 342.220 C 345.177 342.982, 343.601 344.395, 341.969 345.359 C 338.480 347.420, 338.312 349.168, 340.937 356.078 C 342.852 361.117, 346.906 365.848, 352.250 369.280 C 353.763 370.251, 355 371.674, 355 372.442 C 355 373.209, 356.537 375.287, 358.415 377.059 C 360.293 378.830, 362.097 381.679, 362.424 383.390 C 363.458 388.808, 368.828 397.044, 372.062 398.172 C 373.678 398.735, 375 399.547, 375 399.976 C 375 401.360, 385.231 408.645, 395.320 414.445 C 408.470 422.005, 417.887 429.838, 433.731 446.394 C 435.254 447.986, 439.200 451.524, 442.500 454.258 C 445.800 456.991, 450.912 461.989, 453.860 465.364 C 456.809 468.739, 460.300 472.738, 461.618 474.250 C 465.811 479.060, 468.582 477.829, 474.525 468.517 C 485.669 451.054, 492.007 429.686, 491.994 409.619 C 491.982 390.980, 484.096 351.238, 473.516 316.500 C 468.732 300.792, 458.918 272.694, 456.698 268.348 C 454.731 264.498, 439.985 225.758, 436.110 214.262 C 431.523 200.653, 423.643 181.130, 417.234 167.500 C 413.014 158.525, 411.580 154.342, 411.546 150.905 C 411.521 148.378, 410.973 145.674, 410.329 144.897 C 409.684 144.120, 409.009 140.788, 408.829 137.492 L 408.500 131.500 414.420 131.774 C 419.497 132.009, 420.708 131.707, 422.920 129.654 C 424.339 128.337, 427.144 127.012, 429.153 126.708 C 431.163 126.405, 435.965 124.771, 439.825 123.077 C 443.686 121.382, 450.362 119.323, 454.661 118.500 L 462.479 117.005 466.989 120.156 C 469.470 121.890, 473.075 124.742, 475 126.494 C 476.925 128.247, 480.750 130.952, 483.500 132.506 C 486.250 134.061, 489.975 136.445, 491.777 137.806 C 493.580 139.166, 495.271 140.063, 495.535 139.798 C 495.965 139.368, 488.117 132.712, 472.410 120.186 C 469.434 117.813, 467 115.459, 467 114.955 C 467 114.451, 468.107 113.760, 469.459 113.421 C 472.982 112.537, 474.387 110.566, 472.569 109.057 C 471.401 108.088, 470.233 108.365, 466.661 110.458 L 462.209 113.068 451.354 107.092 C 440.264 100.986, 440.645 101.101, 417.940 97.003 C 414.882 96.452, 410.053 96, 407.209 96 C 402.382 96, 401.998 95.817, 401.429 93.250 C 401.094 91.737, 400.367 89.011, 399.813 87.190 L 398.805 83.880 393.415 84.554 C 389.281 85.070, 387.934 84.909, 387.637 83.864 C 384.798 73.874, 379.348 58.376, 377.213 54.220 C 373.881 47.734, 362.053 33.065, 352.001 22.954 C 347.876 18.803, 342.119 12.728, 339.210 9.454 C 336.300 6.179, 334.390 4.487, 334.965 5.694 M 405.927 99.691 C 403.236 100.117, 403.253 100.056, 403.095 110.375 C 403.071 111.956, 403.939 114.379, 405.025 115.759 C 406.111 117.140, 407 119.123, 407 120.166 C 407 122.594, 409.264 123.464, 411.904 122.051 C 413.038 121.445, 417.684 120.924, 422.230 120.894 C 428.135 120.856, 432.351 120.192, 436.997 118.570 C 440.574 117.321, 445.695 115.971, 448.378 115.569 C 456.606 114.338, 456.589 114.044, 447.986 108.873 C 438.279 103.038, 436.851 102.679, 411 99.582 C 409.625 99.417, 407.342 99.466, 405.927 99.691" fill="none" stroke="#000" stroke-width="2px" fill-rule="evenodd"/>
</svg>
