<svg xmlns="http://www.w3.org/2000/svg" width="500" height="427" viewBox="0 0 500 427" version="1.1">
	<path d="M 151.063 11.938 C 149.230 13.770, 148.995 15.253, 148.956 25.250 C 148.932 31.438, 148.526 38.508, 148.052 40.961 C 147.562 43.503, 147.605 56.195, 148.153 70.461 C 148.968 91.678, 149.488 96.950, 151.559 105 C 152.903 110.225, 154.888 118.396, 155.971 123.158 C 158.103 132.538, 161.370 142.730, 163.774 147.500 C 164.605 149.150, 165.687 151.306, 166.177 152.291 C 167.314 154.576, 166.430 156, 163.875 156 C 160.166 156, 158.030 157.997, 156.888 162.532 C 156.269 164.989, 155.538 167, 155.264 167 C 154.990 167, 153.042 165.224, 150.935 163.053 C 148.612 160.659, 145.502 158.674, 143.033 158.009 C 140.794 157.406, 136.833 155.992, 134.231 154.867 C 131.629 153.742, 125.759 151.731, 121.187 150.397 C 116.614 149.063, 110.089 146.774, 106.687 145.311 C 100.072 142.465, 95.804 141.658, 78.500 139.981 C 72.450 139.395, 65.503 138.528, 63.063 138.054 C 60.379 137.532, 57.620 137.574, 56.080 138.160 C 54.592 138.725, 49.487 138.840, 43.792 138.437 C 32.322 137.623, 9.335 139.551, 6.593 141.556 C 5.529 142.334, 5 143.559, 5.343 144.452 C 6.055 146.308, 15.636 146.439, 37.500 144.892 C 53.597 143.754, 51.099 143.792, 70.500 144.388 C 81.792 144.734, 86.983 145.337, 91.500 146.827 C 94.800 147.915, 99.075 149.109, 101 149.479 C 105.379 150.323, 127.973 157.688, 133.984 160.232 C 136.477 161.287, 140.852 164.611, 143.839 167.720 C 148.589 172.664, 149.151 173.685, 148.687 176.543 C 148.308 178.878, 148.793 180.708, 150.434 183.137 C 152.206 185.761, 152.822 188.399, 153.235 195.138 L 153.765 203.776 150.299 204.339 C 148.393 204.648, 144.318 204.436, 141.244 203.868 C 135.848 202.871, 128.921 203.110, 122.344 204.522 C 119.926 205.041, 118.483 204.678, 116.171 202.968 C 113.917 201.302, 112.438 200.913, 110.327 201.429 C 103.558 203.086, 101.596 203.187, 98.152 202.058 C 96.144 201.399, 88.875 200.779, 82 200.680 C 75.125 200.581, 68.836 200.275, 68.024 200 C 66.286 199.411, 65.280 203.680, 66.798 205.198 C 67.331 205.731, 71.981 206.556, 77.133 207.033 C 82.285 207.510, 90.325 208.410, 95 209.033 C 99.675 209.655, 108.450 210.509, 114.500 210.929 C 121.566 211.419, 126.573 212.282, 128.500 213.340 C 130.150 214.246, 132.316 214.990, 133.314 214.994 C 134.311 214.997, 141.496 216.575, 149.280 218.500 C 157.064 220.425, 164.616 222, 166.062 222 C 168.958 222, 172.575 225.260, 171.539 226.937 C 171.130 227.598, 166.041 228, 158.076 228 C 143.746 228, 140.831 229.094, 139.668 234.910 C 138.738 239.561, 145.253 250.200, 154.969 259.895 C 172.055 276.944, 183.047 291.183, 182.958 296.151 C 182.934 297.443, 180.979 301.650, 178.614 305.500 C 175.450 310.649, 172.408 313.954, 167.108 318 C 156.604 326.018, 152.700 333.018, 158.750 332.985 C 162.316 332.965, 162.730 332.633, 168.280 325.347 C 171.350 321.318, 174.483 318.460, 177.359 317.068 C 180.959 315.326, 182.074 314.092, 183.545 310.221 C 184.531 307.625, 186.378 303.631, 187.648 301.347 C 189.120 298.698, 190.024 295.275, 190.144 291.898 C 190.324 286.796, 190.166 286.455, 185.822 282.551 C 183.343 280.323, 177.531 274.231, 172.907 269.014 C 168.283 263.797, 160.563 255.257, 155.750 250.035 C 150.938 244.814, 147 239.971, 147 239.271 C 147 237.555, 152.406 237.639, 159.669 239.468 C 162.876 240.276, 169.877 241.576, 175.226 242.359 C 182.023 243.353, 186.303 244.573, 189.439 246.411 C 193.004 248.501, 201.179 256.938, 208.903 266.500 C 209.348 267.050, 212.765 270.282, 216.497 273.682 C 223.230 279.815, 223.277 279.894, 222.438 283.682 C 220.878 290.726, 221.513 300.144, 223.857 304.729 C 225.781 308.492, 230.138 312, 232.888 312 C 234.624 312, 257.747 324.839, 267.794 331.383 C 279.566 339.048, 285.597 342.595, 302.500 351.789 C 311.515 356.693, 317.339 360.644, 321.500 364.680 C 327.438 370.440, 327.806 371.106, 333.018 385.500 C 334.254 388.916, 335.011 394.725, 335.406 403.832 C 335.973 416.918, 336.317 419, 337.914 419 C 339.144 419, 340.458 406.646, 340.468 395 C 340.477 384.719, 340.398 384.357, 336.693 377.633 C 334.612 373.857, 332.255 370.112, 331.455 369.312 C 330.075 367.932, 329.593 366.499, 329.901 364.692 C 329.977 364.247, 328.436 361.927, 326.476 359.536 C 323.701 356.149, 319.995 353.703, 309.707 348.468 C 302.443 344.772, 295.020 340.644, 293.212 339.294 C 291.403 337.944, 287.128 335.538, 283.712 333.947 C 280.295 332.357, 274.350 329.026, 270.500 326.546 C 266.650 324.066, 262.216 321.241, 260.647 320.269 C 250.821 314.178, 238.095 305.475, 235.750 303.243 C 233.740 301.331, 233 299.653, 233 297.013 C 233 290.863, 237.208 288.998, 241.298 293.336 C 242.509 294.620, 246.650 297.396, 250.500 299.503 C 254.350 301.610, 259.525 304.777, 262 306.541 C 264.475 308.305, 269.200 311.229, 272.500 313.038 C 275.800 314.848, 279.400 317.124, 280.500 318.096 C 283.189 320.474, 302.801 329.243, 311.500 331.957 C 320.193 334.670, 335.061 335.726, 341.553 334.091 C 344.156 333.436, 348.134 331.633, 350.393 330.087 C 352.652 328.540, 355.531 326.951, 356.790 326.557 C 359.798 325.615, 366.634 316.897, 368.045 312.203 C 368.657 310.167, 369.407 303.012, 369.712 296.305 L 370.266 284.110 366.266 276.305 C 359.781 263.647, 355.882 256.665, 353.874 254.113 C 352.459 252.314, 352.265 251.386, 353.095 250.385 C 354.015 249.276, 354.646 249.283, 356.851 250.427 C 359.473 251.787, 373.660 266.627, 375.405 269.836 C 375.903 270.751, 377.541 272.850, 379.044 274.500 C 387.440 283.713, 397.854 296.343, 405.500 306.584 C 415.069 319.400, 441.403 340, 448.219 340 C 449.760 340, 455.179 339.068, 460.261 337.928 C 465.342 336.788, 474.853 335.551, 481.395 335.178 C 491.160 334.621, 493.486 334.187, 494.389 332.750 C 497.848 327.250, 486.157 324.811, 469.500 327.558 C 449.300 330.890, 441.207 328.887, 432.430 318.385 C 427.074 311.976, 415.361 300.136, 398.906 284.496 C 391.031 277.013, 387.010 272.238, 382.940 265.543 C 373.577 250.140, 358.087 236, 350.576 236 C 346.705 236, 340.858 232.124, 338.172 227.779 C 337.055 225.970, 333.398 222.243, 330.047 219.495 C 326.696 216.748, 323.682 213.453, 323.349 212.173 C 322.436 208.660, 324.913 205.041, 330.820 201.257 C 335.431 198.303, 336.995 197.845, 342.570 197.812 C 346.106 197.792, 349 197.488, 349 197.136 C 349 196.784, 346.983 195.427, 344.519 194.119 C 339.416 191.412, 338.943 191.510, 326.741 197.782 C 317.757 202.401, 313.922 202.439, 306.952 197.978 C 297.846 192.150, 295.047 189.055, 290.310 179.580 C 285.181 169.324, 279.449 159.474, 276.878 156.500 C 275.926 155.400, 274.849 153.295, 274.484 151.822 C 273.726 148.769, 268.118 146, 262.690 146 C 259.674 146, 259.133 146.534, 255.694 152.899 C 250.911 161.756, 247.840 163.029, 241.126 158.936 C 238.023 157.044, 237.795 156.568, 238.274 152.991 C 238.590 150.636, 238.296 148.419, 237.528 147.368 C 235.984 145.258, 227.563 143.764, 216.500 143.637 C 209.051 143.551, 208 143.811, 201.228 147.408 C 194.437 151.015, 193.837 151.163, 192.150 149.635 C 189.621 147.347, 183.794 147.599, 179.411 150.185 L 175.707 152.370 173.359 149.435 C 172.067 147.821, 171.008 146.176, 171.005 145.779 C 171.002 145.383, 169.607 143.082, 167.903 140.665 C 163.840 134.900, 160.230 122.405, 156.010 99.500 C 154.704 92.411, 151.958 55.876, 152.648 54.761 C 154.603 51.598, 155.998 10.833, 154.173 10.224 C 153.597 10.032, 152.197 10.803, 151.063 11.938 M 266.142 156.750 C 262.693 163.247, 261.908 173, 264.833 173 C 265.326 173, 268.378 174.799, 271.615 176.998 C 274.852 179.196, 278.302 180.996, 279.281 180.998 C 280.261 180.999, 281.322 181.675, 281.638 182.500 C 281.955 183.325, 282.616 184, 283.107 184 C 284.702 184, 284.054 181.046, 281.612 177.177 C 280.298 175.096, 277.548 170.042, 275.501 165.947 C 271.736 158.416, 269.358 155, 267.880 155 C 267.435 155, 266.652 155.787, 266.142 156.750" fill="none" stroke="#000" stroke-width="2px" fill-rule="evenodd"/>
</svg>
