<svg xmlns="http://www.w3.org/2000/svg" width="196" height="280" viewBox="0 0 196 280" version="1.1">
	<path d="M 67.229 3.392 C 63.280 7.889, 61.571 15.245, 61.628 27.500 C 61.678 38.465, 63.311 46.163, 67.910 57.107 C 71.175 64.877, 70.711 65.424, 63.829 61.913 C 61.317 60.631, 56.907 59.612, 52.399 59.271 L 45.059 58.716 43.530 53.454 C 41.533 46.587, 41.590 41.615, 43.734 35.634 C 45.420 30.930, 48.795 28.137, 51.084 29.552 C 51.588 29.863, 52 29.641, 52 29.059 C 52 27.472, 47.754 27.784, 45.223 29.557 C 44 30.413, 43 30.693, 43 30.179 C 43 29.665, 44.013 28.538, 45.250 27.674 C 46.897 26.525, 47.082 26.091, 45.941 26.052 C 43.553 25.972, 41.318 28.181, 40.427 31.500 C 39.137 36.306, 39.399 52.799, 40.788 54.188 C 41.455 54.855, 41.998 56.097, 41.996 56.950 C 41.994 57.802, 41.045 56.925, 39.888 55 C 38.730 53.075, 36.507 50.234, 34.947 48.686 C 33.364 47.114, 32.355 45.238, 32.663 44.436 C 32.966 43.646, 32.727 43, 32.132 43 C 31.411 43, 31.346 42.220, 31.937 40.667 C 33.164 37.437, 31.721 35.157, 29.576 36.937 C 26.588 39.416, 28.324 45.192, 33.502 50 C 34.983 51.375, 37.052 54.172, 38.101 56.217 C 39.149 58.261, 40.905 60.414, 42.003 61.002 C 43.101 61.589, 44 62.678, 44 63.421 C 44 64.164, 44.652 66.028, 45.449 67.564 C 46.246 69.100, 46.657 70.746, 46.363 71.222 C 46.069 71.698, 46.381 72.754, 47.056 73.568 C 47.732 74.382, 48.026 75.308, 47.709 75.624 C 46.801 76.533, 45 75.037, 45 73.374 C 45 72.271, 44.395 72.051, 42.750 72.557 C 39.629 73.516, 39.548 73.691, 41.381 75.524 C 43.425 77.568, 43.460 79.886, 41.457 80.655 C 40.103 81.175, 40.092 81.446, 41.370 82.874 C 42.495 84.131, 42.846 87.852, 42.916 99.290 C 42.976 109.168, 43.450 115.146, 44.342 117.290 C 45.077 119.055, 45.501 121.021, 45.286 121.658 C 44.859 122.921, 54.681 126.980, 58.288 127.032 C 60.361 127.062, 60.388 127.149, 58.716 128.417 C 57.077 129.660, 57.300 129.986, 61.466 132.427 C 64.241 134.053, 66 135.799, 66 136.926 C 66 139.180, 68.641 139.968, 76.250 139.986 C 85.944 140.009, 82.875 142.416, 72.101 143.240 C 70.231 143.383, 68.373 144.175, 67.972 145 C 67.571 145.825, 66.520 148.188, 65.638 150.250 C 64.255 153.481, 63.580 154.003, 60.766 154.022 C 55.349 154.058, 42.239 160.959, 43.551 163.083 C 43.868 163.595, 43.249 165.248, 42.177 166.757 C 40.469 169.160, 37.266 175.747, 32.454 186.750 C 31.672 188.537, 30.545 190, 29.949 190 C 29.308 190, 29.134 190.846, 29.522 192.070 C 30.020 193.638, 29.672 194.273, 28.090 194.687 C 25.850 195.272, 25.376 196.496, 27 197.500 C 28.519 198.439, 28.195 200, 26.480 200 C 25.644 200, 23.178 201.125, 21 202.500 C 18.822 203.875, 16.561 205, 15.976 205 C 14.328 205, 7.017 212.077, 4.374 216.230 C 1.751 220.351, 1.399 222.510, 3.170 223.605 C 3.952 224.088, 4.132 223.787, 3.714 222.696 C 3.369 221.798, 3.518 220.798, 4.044 220.473 C 4.570 220.148, 5 220.753, 5 221.819 C 5 222.884, 5.675 224.315, 6.500 225 C 8.296 226.490, 8.438 225.674, 6.831 223.101 C 4.441 219.274, 10.238 210.385, 17.360 206.957 C 19.637 205.861, 22.175 204.575, 23 204.098 C 23.825 203.622, 25.850 202.637, 27.500 201.909 C 29.150 201.182, 31.175 200.051, 32 199.396 C 32.825 198.742, 34.363 198.048, 35.418 197.853 C 36.472 197.659, 37.411 196.600, 37.504 195.500 C 37.872 191.133, 44.344 169.813, 45.387 169.529 C 45.999 169.363, 48.914 168.500, 51.865 167.613 C 61.309 164.773, 60.865 164.184, 60.252 178.750 C 59.957 185.762, 59.313 191.656, 58.821 191.846 C 54.661 193.452, 46.754 203.593, 46.348 207.841 C 46.208 209.303, 45.442 212.300, 44.644 214.500 C 43.846 216.700, 42.404 222.325, 41.438 227 C 40.472 231.675, 39.100 235.984, 38.389 236.575 C 37.669 237.174, 37.346 238.609, 37.661 239.813 C 38.039 241.258, 37.692 242.181, 36.613 242.595 C 34.531 243.394, 34.555 244.615, 36.670 245.427 C 37.589 245.779, 38.689 245.503, 39.116 244.813 C 39.542 244.123, 40.154 243.821, 40.475 244.142 C 40.796 244.463, 39.808 246.065, 38.279 247.703 C 27.743 258.988, 22.680 268.195, 23.191 275.141 C 23.368 277.549, 24.075 279.534, 24.847 279.788 C 25.951 280.151, 25.971 279.803, 24.961 277.866 L 23.729 275.500 26.179 277.750 C 27.526 278.987, 29.263 280, 30.037 280 C 30.871 280, 30.495 279.334, 29.114 278.368 C 27.018 276.899, 26.823 276.121, 27.175 270.618 C 27.584 264.224, 28.907 261.659, 35.708 254.076 C 41.660 247.440, 42 247.002, 42 245.975 C 42 245.412, 43.152 244.512, 44.560 243.977 C 45.968 243.442, 46.850 242.567, 46.520 242.033 C 46.190 241.499, 46.427 235.085, 47.047 227.781 C 47.896 217.775, 48.557 214.253, 49.727 213.500 C 50.582 212.950, 53.313 210.775, 55.798 208.666 L 60.316 204.832 63.694 215.166 C 68.654 230.339, 73.485 237.099, 82.391 241.333 C 89.749 244.831, 96.268 245.762, 104 244.420 C 119.475 241.735, 130.183 229.660, 134.299 210.250 C 134.912 207.363, 135.743 205, 136.146 205 C 136.549 205, 138.868 206.687, 141.299 208.750 C 143.730 210.813, 146.443 212.950, 147.328 213.500 C 148.556 214.263, 149.178 217.340, 149.958 226.500 C 150.520 233.100, 150.984 239.738, 150.990 241.250 C 150.996 242.956, 151.540 244, 152.422 244 C 153.204 244, 155.116 246.009, 156.672 248.463 C 158.227 250.918, 160.063 252.943, 160.750 252.963 C 161.438 252.984, 162 253.575, 162 254.278 C 162 254.981, 162.787 256.299, 163.750 257.207 C 168.385 261.582, 169.696 264.515, 170.123 271.462 C 170.367 275.423, 170.031 276.557, 168.165 278.068 L 165.912 279.892 169.706 279.654 C 173.404 279.423, 173.508 279.310, 173.807 275.211 C 174.124 270.882, 170.163 260.243, 167.002 256.930 C 161.297 250.951, 156.050 244.617, 156.462 244.204 C 156.731 243.935, 157.540 244.203, 158.259 244.800 C 159.116 245.511, 160.073 245.554, 161.034 244.925 C 162.285 244.104, 162.231 243.805, 160.666 242.885 C 159.360 242.117, 159.005 241.115, 159.435 239.403 C 159.767 238.081, 159.610 237, 159.086 237 C 158.019 237, 157.112 234.609, 156.564 230.354 C 156.006 226.013, 152.967 214.804, 151.731 212.523 C 151.128 211.411, 150.715 209.374, 150.814 207.998 C 151.044 204.794, 142.823 194.137, 139.011 192.698 L 136.257 191.658 135.752 179.079 C 135.474 172.161, 135.400 166.329, 135.588 166.119 C 135.775 165.910, 137.857 166.278, 140.214 166.938 C 142.571 167.597, 145.811 168.454, 147.412 168.842 C 150.685 169.633, 151.792 172.194, 156.015 188.750 C 157.865 196.003, 158.754 198, 160.128 198 C 161.093 198, 162.153 198.438, 162.483 198.973 C 162.814 199.509, 164.753 200.671, 166.792 201.556 C 168.832 202.442, 171.175 203.571, 172 204.066 C 172.825 204.560, 175.363 205.861, 177.640 206.957 C 184.762 210.385, 190.559 219.274, 188.169 223.101 C 186.127 226.370, 186.978 226.612, 189.569 223.500 C 191.103 221.656, 191.794 221.238, 191.363 222.414 C 190.875 223.744, 191.017 224.107, 191.830 223.605 C 193.390 222.641, 193.305 220.918, 191.518 217.336 C 189.863 214.019, 180.750 205, 179.052 205 C 178.452 205, 176.178 203.875, 174 202.500 C 171.822 201.125, 169.356 200, 168.520 200 C 166.805 200, 166.481 198.439, 168 197.500 C 169.624 196.496, 169.150 195.272, 166.910 194.687 C 165.328 194.273, 164.980 193.638, 165.478 192.070 C 165.866 190.846, 165.692 190, 165.051 190 C 164.455 190, 163.236 188.313, 162.343 186.250 C 157.790 175.743, 153.046 166.146, 152.123 165.576 C 151.554 165.224, 151.321 164.326, 151.607 163.581 C 152.564 161.087, 140.195 154.066, 134.767 154.022 C 132.500 154.004, 131.601 153.147, 129.500 149 C 127.106 144.276, 126.749 144, 123.030 144 C 118.915 144, 114 142.280, 114 140.839 C 114 140.378, 116.138 139.995, 118.750 139.989 C 126.954 139.970, 131 138.953, 131 136.911 C 131 135.794, 132.812 134.022, 135.669 132.348 C 138.236 130.844, 139.811 129.437, 139.169 129.223 C 137.155 128.552, 137.895 127.002, 140.250 126.956 C 141.488 126.932, 144.690 126.145, 147.368 125.206 C 154.346 122.760, 155.264 119.843, 155.396 99.714 C 155.481 86.863, 155.778 83.756, 156.995 83.003 C 158.279 82.210, 158.216 81.878, 156.551 80.661 C 154.705 79.311, 154.693 79.117, 156.306 76.656 C 158.383 73.487, 158.386 73.362, 156.412 72.605 C 155.447 72.234, 154.056 72.878, 152.864 74.248 L 150.904 76.500 151.510 73 C 152.134 69.398, 153.145 66.591, 155.593 61.669 C 156.367 60.112, 157 57.990, 157 56.954 C 157 55.917, 158.270 53.591, 159.821 51.785 C 164.492 46.346, 166 43.690, 166 40.900 C 166 37.661, 163.872 35.528, 162.254 37.146 C 161.068 38.332, 161.694 41.048, 163.427 42.235 C 164.084 42.685, 163.858 42.975, 162.844 42.985 C 161.737 42.995, 161.345 43.604, 161.663 44.820 C 161.925 45.821, 161.358 47.283, 160.404 48.070 C 158.788 49.402, 158.714 49.174, 159.319 44.726 C 160.468 36.279, 157.189 26, 153.345 26 C 151.268 26, 151.755 27.703, 154 28.290 C 155.100 28.577, 156 29.330, 156 29.963 C 156 30.708, 155.217 30.565, 153.777 29.557 C 151.314 27.831, 147 27.457, 147 28.969 C 147 29.501, 147.575 29.716, 148.279 29.447 C 150.456 28.611, 153.181 31.448, 155.131 36.583 C 157.145 41.887, 157.620 49.498, 156 50.500 C 155.450 50.840, 155 51.905, 155 52.868 C 155 56.903, 152.658 58.182, 143.591 59.101 C 138.760 59.591, 132.778 60.889, 130.296 61.987 C 127.813 63.085, 125.410 63.754, 124.955 63.472 C 124.501 63.191, 125.232 60.550, 126.581 57.603 C 131.365 47.155, 133.278 36.835, 132.800 24.070 C 132.313 11.099, 130.198 4.486, 125.562 1.449 C 122.452 -0.589, 121.401 0.012, 122.965 2.935 C 123.585 4.093, 123.808 5.502, 123.460 6.064 C 123.112 6.627, 123.372 7.743, 124.036 8.544 C 124.962 9.659, 124.966 10, 124.055 10 C 123.320 10, 123.108 10.765, 123.500 12 C 123.856 13.121, 123.680 14, 123.099 14 C 122.529 14, 122.322 14.675, 122.638 15.500 C 123.003 16.450, 122.625 17, 121.607 17 C 119.097 17, 119.720 18.333, 123.138 20.279 C 126.102 21.966, 126.232 22.293, 125.643 26.587 C 124.681 33.603, 122.128 41.517, 119.645 45.175 C 117.317 48.606, 114.545 49.237, 109.332 47.523 C 107.294 46.852, 107.198 47.054, 107.714 50.905 C 108.208 54.589, 108.050 55, 106.132 55 C 103.653 55, 103.510 55.769, 105.503 58.401 C 106.799 60.114, 106.649 60.635, 103.985 63.670 C 102.359 65.521, 100.742 68.178, 100.392 69.573 C 99.884 71.600, 99.228 72.048, 97.128 71.805 C 95.290 71.592, 94.405 70.830, 94.183 69.272 C 94.009 68.046, 92.547 65.798, 90.933 64.275 C 87.534 61.066, 87.393 60.329, 89.694 57.786 C 91.295 56.016, 91.274 55.884, 89.293 55.366 C 86.971 54.759, 85.705 50.695, 87.332 49.068 C 89.113 47.287, 87.282 46.752, 83.583 47.973 C 78.671 49.594, 76.467 48.600, 74.110 43.704 C 71.579 38.447, 69 28.637, 69 24.265 C 69 21.685, 69.533 20.748, 71.403 20.037 C 74.335 18.922, 75.699 17, 73.559 17 C 72.702 17, 72 16.363, 72 15.583 C 72 14.804, 71.438 13.938, 70.750 13.659 C 69.806 13.277, 69.867 12.870, 71 12 C 72.094 11.160, 72.172 10.714, 71.289 10.354 C 69.984 9.821, 70.587 4.242, 72.132 2.550 C 73.421 1.139, 73.185 -0, 71.604 0 C 70.836 0, 68.867 1.526, 67.229 3.392 M 45.617 61.810 C 45.284 62.349, 45.684 63.048, 46.506 63.364 C 47.377 63.698, 48 65.202, 48 66.969 C 48 68.636, 48.450 70, 49 70 C 49.550 70, 50 71.350, 50 73 C 50 74.945, 50.507 76, 51.441 76 C 53.498 76, 54.226 77.626, 53.101 79.709 C 51.913 81.909, 47.439 113.772, 48.209 114.543 C 49.298 115.632, 63 116.315, 63 115.280 C 63 114.724, 62.134 113.169, 61.076 111.824 L 59.152 109.378 63.003 104.496 L 66.854 99.615 64.427 96.731 C 61.593 93.363, 61.350 91.463, 63.640 90.585 C 64.994 90.065, 65.181 88.955, 64.712 84.228 C 64.400 81.077, 64.470 75.489, 64.868 71.810 L 65.591 65.120 62.046 63.611 C 57.559 61.702, 46.438 60.483, 45.617 61.810 M 140 61.683 C 138.625 61.871, 135.868 62.471, 133.873 63.016 C 130.255 64.004, 130.248 64.018, 130.708 68.753 C 130.962 71.364, 131.609 74.940, 132.146 76.701 C 132.805 78.861, 132.778 80.547, 132.061 81.885 C 130.311 85.155, 130.785 89.612, 133.043 91.128 C 135.067 92.487, 135.059 92.534, 132.198 95.946 L 129.309 99.393 132.294 102.673 C 137.878 108.810, 138.177 109.530, 135.968 111.529 C 132.600 114.577, 133.489 116.001, 138.750 115.989 C 141.363 115.983, 145.092 115.715, 147.038 115.393 C 150.422 114.833, 150.561 114.648, 150.223 111.154 C 149.682 105.549, 146.078 81.786, 145.386 79.260 C 144.942 77.641, 145.288 76.809, 146.636 76.260 C 147.661 75.842, 148.578 74.600, 148.673 73.500 C 149.019 69.513, 150.919 63.527, 151.947 63.184 C 155.904 61.865, 146.920 60.737, 140 61.683 M 171.667 276.667 C 171.300 277.033, 171 277.798, 171 278.367 C 171 278.993, 171.466 278.934, 172.183 278.217 C 172.834 277.566, 173.134 276.801, 172.850 276.517 C 172.566 276.233, 172.033 276.300, 171.667 276.667" fill="none" stroke="#000" stroke-width="2px" fill-rule="evenodd"/>
</svg>
