<svg xmlns="http://www.w3.org/2000/svg" width="500" height="342" viewBox="0 0 500 342" version="1.1">
	<path d="M 132.500 3.112 C 94.397 6.676, 61.312 16.952, 38.500 32.309 C 30.139 37.938, 18.009 50.343, 13.811 57.559 C 6.649 69.871, 2.298 87.079, 3.332 99 C 5.157 120.035, 16.156 142.508, 34.901 163.500 C 39.321 168.450, 42.952 173.123, 42.969 173.884 C 43.074 178.559, 59.077 218.419, 67.114 234.022 C 83.445 265.728, 113.111 293.705, 148.083 310.380 C 192.760 331.683, 197.401 333.212, 230.301 337.472 C 248.801 339.867, 261.847 339.557, 295 335.931 C 306.941 334.625, 325.594 329.951, 337.419 325.301 C 362.115 315.590, 374.689 306.988, 409.500 275.994 C 421.162 265.610, 423.309 264.126, 430.362 261.567 C 474.228 245.655, 499.989 214.239, 497.655 179.500 C 495.178 142.636, 466.917 105.713, 415.325 71.937 C 403.093 63.929, 370.785 47.732, 351.916 40.147 C 302.031 20.096, 247.077 7.039, 195.605 3.010 C 180.618 1.836, 145.532 1.893, 132.500 3.112" fill="none" stroke="#000" stroke-width="2px" fill-rule="evenodd"/>
</svg>
