<svg xmlns="http://www.w3.org/2000/svg" width="500" height="306" viewBox="0 0 500 306" version="1.1">
	<path d="M 262 4.072 C 235.076 5.463, 223.295 9.003, 205.500 21.052 C 195.731 27.667, 193.597 28.683, 186.428 30.133 C 166.546 34.156, 137.318 51.414, 132.200 62.154 C 128.676 69.550, 128.502 72.987, 131.433 77.307 C 132.845 79.387, 134 81.438, 134 81.866 C 134 82.293, 128.676 86.296, 122.169 90.761 C 105.566 102.153, 92.822 112.957, 89.255 118.663 C 87.593 121.323, 82.106 128, 77.063 133.500 C 72.020 139, 66.123 146.055, 63.959 149.178 C 59.722 155.291, 50.257 164.994, 28.575 185.449 C 14.952 198.301, 3.585 211.821, 2.386 216.598 C 1.502 220.121, 3.723 225.061, 9.470 232.352 C 17.338 242.335, 25.306 246.819, 45.238 252.482 C 55.460 255.386, 55.111 255.261, 86.961 267.450 C 99.315 272.179, 110.467 276.731, 111.742 277.567 C 113.018 278.403, 118.956 280.371, 124.938 281.940 C 135.331 284.667, 143.917 288.611, 159 297.587 C 168.920 303.491, 171.283 303.732, 182.630 299.990 C 193.997 296.243, 197.372 293.402, 207.273 279.250 C 210.448 274.712, 213.379 271, 213.786 271 C 214.194 271, 215.640 269.200, 217 267 C 218.360 264.800, 219.769 263, 220.132 263 C 220.495 263, 224.327 264.684, 228.646 266.743 C 235.115 269.826, 237.823 270.546, 244 270.824 C 251.306 271.153, 251.655 271.059, 257.500 267.193 C 263.848 262.995, 271.807 255.761, 273.532 252.623 C 274.520 250.824, 274.790 250.860, 279.979 253.490 C 284.818 255.941, 286.201 256.187, 292.948 255.789 C 301.542 255.283, 304.014 254.221, 310.721 248.146 L 315.500 243.818 324 243.642 C 335.169 243.410, 342.301 240.049, 348.627 232.036 C 352.697 226.880, 353.166 226.587, 356.933 226.859 C 361.841 227.214, 367.731 223.487, 373.888 216.134 L 378.026 211.192 383.954 211.730 C 391.017 212.370, 398.114 210.791, 403.229 207.442 C 406.327 205.413, 408.199 205, 414.300 205 C 418.490 205, 423.760 204.288, 426.572 203.342 C 431.450 201.701, 441.649 194.403, 453.249 184.253 C 459.800 178.521, 466.853 174.239, 474.299 171.473 C 479.626 169.495, 483 165.963, 483 162.365 C 483 160.781, 483.578 159.998, 484.750 159.994 C 485.712 159.991, 488.136 159.534, 490.135 158.979 C 494.772 157.691, 495.624 155.558, 497.073 141.625 C 498.465 128.236, 497.931 127.206, 486.779 121.765 L 479.124 118.031 478.437 111.057 C 477.975 106.367, 477.179 103.567, 476.005 102.504 C 475.045 101.636, 470.040 99.796, 464.883 98.416 C 459.726 97.036, 455.196 95.590, 454.816 95.203 C 454.437 94.816, 453.190 89.892, 452.046 84.260 C 450.902 78.628, 449.486 72.967, 448.900 71.679 C 447.364 68.309, 440.910 64.468, 433.338 62.419 C 427.212 60.761, 426.659 60.372, 425.026 56.571 C 421.537 48.454, 410.081 32.082, 406 29.381 C 401.083 26.127, 388.095 21.701, 377.500 19.668 C 373.100 18.824, 367.250 17.701, 364.500 17.174 C 361.750 16.646, 354.325 15.066, 348 13.661 C 341.675 12.257, 332 10.904, 326.500 10.653 C 319.938 10.354, 314.494 9.484, 310.664 8.123 C 304.988 6.105, 284.153 2.837, 279.042 3.162 C 277.644 3.251, 269.975 3.660, 262 4.072" fill="none" stroke="#000" stroke-width="2px" fill-rule="evenodd"/>
</svg>
