<svg xmlns="http://www.w3.org/2000/svg" width="500" height="343" viewBox="0 0 500 343" version="1.1">
	<path d="M 199.500 5.056 C 174.403 7.514, 141.227 16.204, 117.268 26.596 C 93.390 36.952, 63.207 57.496, 47.663 73.974 C 25.772 97.180, 11.882 122.710, 6.302 150 C 3.971 161.400, 3.794 163.952, 4.296 179 C 4.985 199.626, 7.307 209.222, 16.033 227.500 C 23.774 243.716, 31.153 254.051, 46.340 269.946 C 61.535 285.849, 71.153 293.640, 88.215 303.863 C 105.603 314.282, 125.040 322.465, 147.694 328.902 C 180.986 338.363, 195.898 340.561, 220.825 339.680 C 256.122 338.432, 281.759 333.797, 310.641 323.442 C 352.483 308.439, 382.541 288.386, 405.126 260.405 C 420.545 241.302, 427.193 230.908, 433.258 216.424 C 439.904 200.551, 443.082 187.271, 443.891 172 L 444.500 160.500 453.410 160.868 C 458.310 161.070, 463.800 161.854, 465.610 162.611 C 468.028 163.621, 470.497 163.767, 474.917 163.163 C 478.225 162.710, 481.510 162.707, 482.216 163.155 C 482.922 163.603, 484.962 163.976, 486.750 163.985 C 490.401 164.002, 491.120 161.895, 488.465 158.961 C 487.059 157.407, 487.174 157.215, 489.837 156.683 C 493.347 155.981, 499.606 147.435, 498.015 145.518 C 497.382 144.756, 497.443 143.957, 498.191 143.209 C 500.001 141.399, 496.581 140.609, 491.986 141.776 L 488.019 142.783 490.151 139.788 C 491.909 137.319, 492.039 136.638, 490.892 135.912 C 488.919 134.663, 483.548 134.793, 480.543 136.162 C 477.691 137.462, 475.996 136.604, 477.817 134.783 C 480.390 132.210, 479.191 130.714, 475.083 131.371 C 472.401 131.800, 471.037 131.610, 470.757 130.770 C 470.337 129.511, 469.040 130.201, 462.843 134.982 L 460.186 137.031 460.725 133.016 C 461.070 130.443, 460.869 129, 460.168 129 C 459.565 129, 455.569 132.150, 451.289 136 C 447.008 139.850, 442.942 143, 442.253 143 C 439.867 143, 441.015 139.377, 444.461 136.038 C 448.116 132.495, 448.322 130.842, 444.999 131.711 C 441.980 132.500, 442.603 130.257, 445.873 128.566 C 448.365 127.277, 448.731 126.536, 448.638 122.973 C 448.531 118.892, 448.509 118.869, 445.265 119.478 C 442.723 119.955, 442 119.749, 442 118.545 C 442 117.695, 441.269 117, 440.375 117 C 439.102 117, 438.880 116.349, 439.352 113.992 L 439.953 110.984 435.999 111.616 C 432.365 112.197, 431.962 112.029, 431.015 109.540 C 430.449 108.051, 430.209 106.471, 430.481 106.030 C 430.754 105.589, 434.245 105.851, 438.239 106.613 C 447.456 108.371, 447.806 108.357, 447.639 106.250 C 447.526 104.823, 448.219 104.544, 451.399 104.737 C 456.938 105.075, 458.418 102.826, 455.601 98.354 C 454.089 95.954, 452.940 95.144, 451.500 95.462 C 450.400 95.705, 447.579 96.210, 445.231 96.583 C 441.495 97.177, 441.043 97.052, 441.607 95.583 C 442.003 94.549, 441.568 93.405, 440.473 92.604 C 438.792 91.375, 438.819 91.181, 440.966 89.034 C 442.215 87.785, 444.420 86.438, 445.868 86.040 C 447.422 85.612, 448.395 84.703, 448.243 83.819 C 448.102 82.996, 448.889 81.505, 449.993 80.506 C 452.974 77.809, 452.652 75.802, 449.435 77.025 C 448.024 77.561, 445.969 78, 444.868 78 C 443.767 78, 441.392 79.125, 439.589 80.500 C 435.627 83.522, 435 83.590, 435 81 C 435 78.454, 434.184 78.478, 431.388 81.105 C 428.814 83.524, 426.767 82.818, 427.202 79.661 C 427.431 78.003, 427.051 77.578, 425.569 77.835 C 424.440 78.031, 422.879 77.200, 421.813 75.835 L 419.989 73.500 417.094 76.966 L 414.199 80.431 403.697 70.706 C 381.546 50.194, 375.613 45.750, 353.799 33.331 C 318.895 13.461, 276.921 3.790, 227.092 4.136 C 216.316 4.211, 203.900 4.625, 199.500 5.056 M 485.607 340.582 C 484.788 342.716, 484.834 343, 486 343 C 486.550 343, 487 342.325, 487 341.500 C 487 340.675, 487.675 340, 488.500 340 C 489.325 340, 490 340.675, 490 341.500 C 490 342.418, 490.934 343, 492.406 343 C 494.320 343, 494.706 342.591, 494.290 341 C 493.883 339.445, 492.926 339, 489.990 339 C 487.469 339, 486.012 339.526, 485.607 340.582" fill="none" stroke="#000" stroke-width="2px" fill-rule="evenodd"/>
</svg>
