<svg xmlns="http://www.w3.org/2000/svg" width="500" height="329" viewBox="0 0 500 329" version="1.1">
	<path d="M 276.245 1.109 C 272.918 1.664, 268.260 3.643, 263.545 6.505 C 253.226 12.769, 253.160 12.784, 253.345 8.821 C 253.469 6.168, 253.086 5.441, 251.441 5.206 C 248.159 4.736, 244.192 8.669, 240.448 16.104 C 237.513 21.932, 236.578 23, 234.415 23 C 229.216 23, 195.199 26.145, 186.114 27.465 L 176.727 28.829 174.340 25.992 C 173.027 24.432, 169.601 21.980, 166.727 20.543 L 161.500 17.930 161.165 20.215 C 160.620 23.940, 159.252 24.423, 158.532 21.144 C 157.829 17.947, 155.261 16.426, 151.322 16.876 C 149.607 17.071, 149.076 16.531, 148.822 14.330 C 148.408 10.739, 144.343 9.067, 140.397 10.865 C 137.751 12.071, 137.722 12.188, 138.331 19.385 C 138.895 26.056, 138.740 26.964, 136.526 29.964 C 135.194 31.770, 133.837 34.465, 133.510 35.954 C 133.021 38.182, 131.963 38.962, 127.535 40.357 C 115.714 44.084, 84.290 57.226, 77.042 61.475 C 46.622 79.309, 20.936 105.081, 9.426 129.317 C 2.050 144.850, -1.560 168.032, 0.963 183.670 C 4.773 207.291, 20.301 234.649, 42.156 256.249 C 64.809 278.638, 102.962 299.601, 144.542 312.506 C 199.991 329.715, 265.401 333.698, 325.467 323.522 C 348.017 319.702, 366.694 314.419, 390 305.267 C 439.510 285.825, 477.489 253.151, 492.069 217.455 C 498.037 202.844, 499.913 193.575, 500.358 176.500 C 500.573 168.250, 500.525 163.975, 500.251 167 L 499.753 172.500 497.934 162.572 C 496.933 157.112, 495.378 150.362, 494.479 147.572 C 487.604 126.238, 469.898 104.270, 441.018 81.242 C 424.932 68.416, 409.111 59.746, 381.141 48.430 L 365.782 42.216 363.467 36.521 C 362.194 33.389, 360.517 30.078, 359.741 29.163 C 358.965 28.248, 357.757 26.052, 357.057 24.283 C 356.357 22.514, 354.821 20.774, 353.642 20.417 C 352.464 20.060, 349.249 18.052, 346.498 15.953 C 340.844 11.642, 339.490 11.056, 325.805 6.990 C 316.519 4.231, 312.238 3.958, 313.631 6.212 C 313.999 6.808, 313.490 6.987, 312.375 6.655 C 311.344 6.347, 309.311 5.812, 307.858 5.466 C 306.405 5.120, 303.066 3.749, 300.439 2.419 C 295.257 -0.205, 286.859 -0.659, 276.245 1.109 M 0.365 171.500 C 0.368 177, 0.536 179.122, 0.738 176.216 C 0.941 173.311, 0.939 168.811, 0.734 166.216 C 0.528 163.622, 0.363 166, 0.365 171.500 M 42 315 L 36.500 315.674 42.250 315.837 C 45.525 315.930, 48 315.570, 48 315 C 48 314.450, 47.888 314.073, 47.750 314.163 C 47.612 314.253, 45.025 314.629, 42 315 M 31.250 315.689 C 32.212 315.941, 33.788 315.941, 34.750 315.689 C 35.712 315.438, 34.925 315.232, 33 315.232 C 31.075 315.232, 30.288 315.438, 31.250 315.689 M 49.813 315.683 C 50.534 315.972, 51.397 315.936, 51.729 315.604 C 52.061 315.272, 51.471 315.036, 50.417 315.079 C 49.252 315.127, 49.015 315.364, 49.813 315.683" fill="none" stroke="#000" stroke-width="2px" fill-rule="evenodd"/>
</svg>
