<svg xmlns="http://www.w3.org/2000/svg" width="500" height="323" viewBox="0 0 500 323" version="1.1">
	<path d="M 302.500 4.668 C 250.776 8.957, 197.663 23.872, 145.500 48.757 C 127.999 57.106, 117.273 64.115, 92.375 83.474 C 64.195 105.385, 46.476 126.463, 33.437 153.586 C 26.844 167.302, 25.392 172.561, 23.384 190 C 21.304 208.066, 21.270 208.207, 19.217 207.639 C 18.273 207.378, 14.912 206.870, 11.749 206.510 C 6.562 205.920, 6.022 206.034, 6.240 207.678 C 6.567 210.145, 3.824 220, 2.811 220 C 2.365 220, 2 220.450, 2 221 C 2 221.550, 3.125 222, 4.500 222 C 6.308 222, 7 222.537, 7 223.941 C 7 225.009, 6.550 226.160, 6 226.500 C 5.450 226.840, 5 227.943, 5 228.951 C 5 231.294, 8.441 232.175, 14.402 231.358 C 18.628 230.779, 19 230.901, 19 232.864 C 19 234.039, 19.562 234.888, 20.250 234.750 C 21.058 234.588, 21.609 236.010, 21.809 238.773 C 21.978 241.123, 22.504 242.806, 22.977 242.514 C 23.808 242, 24.229 243.407, 25.554 251.128 C 26.181 254.779, 29.726 257.905, 31.791 256.629 C 32.331 256.295, 33.381 256.754, 34.123 257.648 C 34.865 258.542, 37.278 260.057, 39.486 261.016 C 42.007 262.110, 45.360 265.046, 48.500 268.910 C 62.274 285.856, 97.529 305.202, 128.856 313.005 C 147.530 317.657, 165.054 319.271, 198 319.374 C 228.370 319.469, 239.130 318.616, 261.500 314.338 C 298.225 307.315, 367.549 277.510, 403.707 253.197 C 426.667 237.759, 453.168 212.128, 469.397 189.663 C 474.948 181.979, 482.513 167.420, 486.498 156.750 C 487.473 154.137, 488.886 152, 489.636 152 C 491.223 152, 491.484 150.328, 489.975 149.825 C 488.507 149.336, 491.056 141.450, 494.387 136.176 C 496.568 132.724, 497.042 130.944, 496.741 127.347 C 496.533 124.870, 495.922 122.540, 495.383 122.171 C 494.843 121.802, 493.882 116.775, 493.246 111 C 492.611 105.225, 491.160 97.800, 490.023 94.500 C 486.946 85.571, 478.908 69.616, 472.669 60.053 C 468.162 53.146, 467.412 51.413, 468.554 50.553 C 469.699 49.690, 469.760 48.239, 468.891 42.500 C 468.308 38.650, 467.714 32.613, 467.571 29.085 C 467.352 23.667, 466.937 22.379, 464.906 20.794 C 463.583 19.763, 461.317 17.974, 459.870 16.819 C 458.424 15.665, 455.878 14.147, 454.213 13.447 C 451.430 12.277, 450.995 12.380, 448.842 14.719 C 447.554 16.118, 443.800 18.553, 440.500 20.131 C 432.609 23.902, 427.258 23.876, 417.551 20.020 C 399.758 12.952, 374.008 7.104, 351.500 5.020 C 341.412 4.086, 312.061 3.875, 302.500 4.668" fill="none" stroke="#000" stroke-width="2px" fill-rule="evenodd"/>
</svg>
