<svg xmlns="http://www.w3.org/2000/svg" width="500" height="503" viewBox="0 0 500 503" version="1.1">
	<path d="M 234 6.603 C 198.458 10.896, 167.472 19.251, 144.607 30.708 C 97.574 54.274, 55.711 96.566, 31.474 145 C 14.030 179.862, 6.087 218.910, 7.290 263.907 C 8.066 292.951, 11.741 314.320, 20.183 338.876 C 26.914 358.453, 32.975 369.952, 46.711 389.203 C 90.858 451.075, 135.105 479.145, 207 490.891 C 229.203 494.519, 245.304 495.490, 260.673 494.130 C 286.767 491.820, 316.264 485.534, 338.586 477.527 C 351.858 472.765, 374.531 461.506, 385 454.477 C 401.049 443.701, 419.026 427.543, 432.626 411.670 C 464.366 374.626, 485.225 326.535, 491.460 276.030 C 495.840 240.554, 489.750 189.077, 477.497 158 C 453.909 98.175, 406.741 48.937, 349.468 24.351 C 312.183 8.346, 271.434 2.082, 234 6.603" fill="none" stroke="#000" stroke-width="2px" fill-rule="evenodd"/>
</svg>
