<svg xmlns="http://www.w3.org/2000/svg" width="281" height="253" viewBox="0 0 281 253" version="1.1">
	<path d="M 114.500 1.776 C 100.018 3.110, 66.184 17.200, 50 28.637 C 44.513 32.515, 32.282 44.768, 25.682 53 C 17.138 63.656, 7.207 85.776, 3.445 102.527 C 1.058 113.158, 1.051 130.134, 3.430 139.500 C 4.992 145.650, 10.601 158.348, 15.824 167.558 C 21.110 176.878, 36.544 190.618, 54.026 201.566 C 80.621 218.222, 101.943 225.433, 129 226.923 C 143.928 227.745, 148 227.155, 148 224.168 C 148 223.337, 147.322 221.908, 146.492 220.992 C 144.520 218.812, 143.417 204.382, 143.877 186.781 C 143.982 182.737, 144.250 182.154, 145.750 182.701 C 147.323 183.275, 147.308 183.121, 145.599 181.174 C 143.825 179.154, 143.741 177.787, 144.344 160.754 C 144.987 142.602, 145.459 138.565, 147.200 136.331 C 147.799 135.562, 147.492 134.814, 146.305 134.148 C 144.567 133.172, 144.567 133.109, 146.315 132.435 C 147.621 131.932, 148.059 130.861, 147.874 128.618 C 147.713 126.654, 148.522 124.117, 150.059 121.762 C 152.796 117.571, 153.233 117.371, 155 119.500 C 155.685 120.325, 156.622 121, 157.082 121 C 157.543 121, 165.925 126.485, 175.710 133.189 C 206.285 154.139, 225.887 167, 227.241 167 C 227.958 167, 230.198 168.363, 232.219 170.029 C 234.239 171.694, 237.461 173.713, 239.378 174.513 C 241.295 175.314, 243.146 176.427, 243.491 176.985 C 245.634 180.454, 252.472 173.986, 261.708 159.755 C 269.329 148.010, 275.366 135.780, 277.384 128 C 279.497 119.851, 278.688 95.440, 276.020 86.799 C 273.503 78.652, 261.579 55.172, 258.601 52.500 C 257.375 51.400, 254.754 48.250, 252.778 45.500 C 241.917 30.389, 219.280 14.530, 204.240 11.495 C 202.447 11.133, 199.613 10.155, 197.942 9.321 C 196.271 8.487, 193.238 7.689, 191.202 7.546 C 189.166 7.404, 186.825 7.031, 186 6.718 C 185.175 6.405, 182.250 5.860, 179.500 5.506 C 176.750 5.153, 170.900 3.979, 166.500 2.898 C 159.616 1.207, 155.641 0.972, 138 1.216 C 126.725 1.372, 116.150 1.624, 114.500 1.776 M 158.502 130.250 C 158.263 130.938, 157.621 136.900, 157.076 143.500 C 156.531 150.100, 155.804 157.750, 155.461 160.500 C 155.117 163.250, 154.921 166.400, 155.024 167.500 C 155.660 174.260, 155.700 198.419, 155.084 203.186 C 154.679 206.313, 154.617 209.463, 154.945 210.186 C 155.273 210.909, 155.294 219.150, 154.990 228.500 C 154.687 237.850, 154.779 246.512, 155.195 247.750 C 155.738 249.368, 156.737 250, 158.751 250 C 165.256 250, 190.342 244.815, 200.027 241.470 C 224.184 233.124, 254.309 214.326, 261.077 203.375 C 262.831 200.537, 262.977 199.677, 261.919 198.402 C 261.208 197.545, 259.775 197.087, 258.693 197.370 C 256.453 197.956, 252 195.382, 252 193.502 C 252 192.804, 251.098 191.997, 249.996 191.709 C 248.846 191.408, 248.207 190.613, 248.496 189.843 C 248.785 189.073, 247.933 188.006, 246.500 187.344 C 245.125 186.708, 244 186.596, 244 187.094 C 244 187.592, 243.550 188, 243 188 C 242.450 188, 242 187.355, 242 186.567 C 242 185.779, 240.987 184.853, 239.750 184.509 C 236.837 183.700, 229.788 180.739, 228.500 179.785 C 227.950 179.377, 224.578 176.558, 221.007 173.522 C 217.436 170.485, 214.136 168, 213.674 168 C 213.212 168, 211.304 166.425, 209.434 164.500 C 207.565 162.575, 205.378 161, 204.575 161 C 203.771 161, 200.276 158.608, 196.807 155.685 C 193.338 152.762, 188.311 149.321, 185.636 148.040 C 178.718 144.728, 171.323 139.584, 165.310 133.903 C 159.732 128.634, 159.170 128.332, 158.502 130.250" fill="none" stroke="#000" stroke-width="2px" fill-rule="evenodd"/>
</svg>
