<svg xmlns="http://www.w3.org/2000/svg" width="500" height="316" viewBox="0 0 500 316" version="1.1">
	<path d="M 274.557 1.582 C 272.187 3.315, 268.815 3.415, 267.200 1.800 C 266.267 0.867, 265.733 0.867, 264.800 1.800 C 264.010 2.590, 259.788 3, 252.445 3 C 194.485 3, 132.956 20.020, 87.221 48.704 L 76.942 55.151 74.915 52.825 C 72.973 50.599, 72.932 50.593, 73.944 52.684 C 74.525 53.886, 75 55.081, 75 55.340 C 75 55.600, 68.568 55.967, 60.706 56.156 L 46.413 56.500 36.535 62.822 C 30.190 66.883, 25.975 68.965, 24.750 68.645 C 23.394 68.290, 23.001 68.559, 23.390 69.573 C 23.789 70.615, 23.068 71.031, 20.719 71.116 C 18.948 71.180, 18.258 71.432, 19.184 71.677 C 20.506 72.026, 19.837 73.129, 16.072 76.811 C 11.436 81.344, 11.220 81.817, 9.580 91 C 8.647 96.225, 6.102 105.875, 3.926 112.444 L -0.032 124.388 1.603 129.444 C 2.502 132.225, 4.695 137.875, 6.476 142 C 9.537 149.087, 9.746 150.354, 10.275 165 C 10.705 176.906, 11.409 182.703, 13.312 190 C 29.403 251.725, 102.456 299.424, 200.081 311.948 C 253.860 318.847, 292.513 316.681, 341.500 304.023 C 368.544 297.036, 395.734 286.506, 415.500 275.367 C 421 272.267, 427.685 268.554, 430.356 267.116 C 433.026 265.677, 436.428 263.375, 437.915 262 C 439.403 260.625, 445.037 255.920, 450.437 251.543 C 476.140 230.712, 493.503 202.545, 498.474 173.619 C 504.994 135.678, 487.603 96.321, 450.598 65.270 C 424.687 43.529, 384.730 24.354, 343.565 13.906 C 322.595 8.584, 294.238 4.283, 278.628 4.056 C 275.274 4.008, 274.925 3.796, 276.020 2.476 C 277.759 0.380, 276.911 -0.139, 274.557 1.582" fill="none" stroke="#000" stroke-width="2px" fill-rule="evenodd"/>
</svg>
