<svg xmlns="http://www.w3.org/2000/svg" width="280" height="256" viewBox="0 0 280 256" version="1.1">
	<path d="M 110.609 3.104 C 93.640 5.580, 71.505 13.831, 58.222 22.631 C 46.469 30.418, 30.867 46.108, 23.207 57.843 C 16.118 68.704, 8.966 85.005, 5.238 98.799 C 2.837 107.685, 2.618 110.096, 2.636 127.500 C 2.655 145.598, 2.806 147.068, 5.815 158.469 C 16.776 200.004, 48.206 233.519, 88.789 246.946 C 135.450 262.385, 189.865 247.431, 220.795 210.668 C 224.574 206.176, 229.165 200.250, 230.996 197.500 C 232.826 194.750, 234.438 192.351, 234.576 192.169 C 235.039 191.562, 239.428 194.280, 246.500 199.553 C 250.350 202.424, 254.625 205.102, 256 205.505 L 258.500 206.238 255.736 203.299 C 254.216 201.683, 253.252 200.081, 253.594 199.739 C 253.936 199.397, 252.553 198.422, 250.520 197.573 C 247.496 196.309, 242.391 192.888, 237.730 189.002 C 236.914 188.322, 244.735 170.721, 246.091 170.185 C 246.529 170.012, 246.618 169.169, 246.289 168.311 C 245.779 166.981, 246.082 167.008, 248.345 168.491 C 250.056 169.612, 251 169.813, 251 169.056 C 251 168.410, 251.450 168.160, 252 168.500 C 252.550 168.840, 253 168.456, 253 167.646 C 253 166.413, 253.609 166.470, 256.750 168 C 258.813 169.004, 260.579 169.749, 260.676 169.654 C 260.773 169.559, 260.339 167.840, 259.711 165.834 C 258.763 162.807, 257.885 161.980, 254.535 160.963 C 250.553 159.754, 250.533 159.724, 253 158.672 C 254.375 158.086, 255.645 157.513, 255.822 157.398 C 255.999 157.283, 254.978 155.342, 253.553 153.084 C 250.994 149.031, 250.976 148.862, 252.084 139.750 C 252.701 134.673, 252.945 128.491, 252.625 126.010 C 252.175 122.517, 252.287 121.914, 253.119 123.334 C 254.143 125.082, 254.264 125.068, 255.694 123.026 C 257.062 121.073, 257.301 121.030, 258.401 122.533 C 259.422 123.930, 260.211 124.016, 263.553 123.092 C 268.567 121.706, 269.573 121.006, 270.409 118.324 C 270.879 116.817, 270.574 115.861, 269.415 115.213 C 268.278 114.576, 268.104 114.054, 268.872 113.579 C 270.607 112.507, 270.210 111, 268.191 111 C 267.196 111, 265.515 110.366, 264.456 109.591 C 262.732 108.331, 262.978 108.265, 266.786 108.961 C 269.127 109.389, 271.242 109.417, 271.486 109.023 C 272.160 107.933, 266.303 102.695, 265.184 103.386 C 263.618 104.354, 258 102.873, 258 101.492 C 258 99.721, 261.936 98.896, 264.313 100.168 C 265.949 101.043, 266.197 100.957, 265.709 99.683 C 265.214 98.394, 265.984 98.165, 270.293 98.317 C 274.406 98.462, 275.537 98.160, 275.790 96.847 C 276.028 95.614, 275.096 95.023, 272.116 94.520 C 269.232 94.032, 268.274 93.450, 268.668 92.422 C 269.001 91.556, 268.586 91, 267.607 91 C 266.723 91, 266 90.599, 266 90.108 C 266 89.618, 264.827 88.922, 263.392 88.562 C 261.275 88.031, 260.873 87.446, 261.254 85.454 C 261.512 84.104, 261.287 83, 260.754 83 C 260.222 83, 260.045 82.325, 260.362 81.500 C 260.777 80.416, 260.252 80, 258.469 80 C 255.188 80, 255.309 78.211, 258.647 77.374 L 261.293 76.710 258.548 75.271 C 257.031 74.476, 254.728 74.102, 253.401 74.435 C 252.043 74.776, 251 74.596, 251 74.019 C 251 73.459, 250.100 73, 249 73 C 247.900 73, 246.100 72.100, 245 71 C 243.900 69.900, 241.908 69, 240.573 69 C 238.680 69, 237.455 67.792, 235.003 63.505 C 231.548 57.466, 225.462 49.621, 217.305 40.693 C 214.387 37.499, 212 34.498, 212 34.025 C 212 33.021, 222.158 29.539, 229.750 27.940 C 232.637 27.332, 235 26.347, 235 25.750 C 235 25.154, 234.704 24.963, 234.342 25.325 C 233.980 25.687, 233.112 25.508, 232.413 24.928 C 231.114 23.849, 215.706 25.063, 211.500 26.575 C 210.170 27.053, 209.835 26.960, 210.500 26.298 C 212.702 24.102, 220.916 21.766, 228.222 21.257 C 232.469 20.960, 235.705 20.332, 235.413 19.859 C 233.976 17.535, 217.987 20.720, 209.500 25.022 C 204.655 27.477, 203.981 27.641, 206 25.876 C 207.375 24.673, 213.225 21.439, 219 18.690 C 224.775 15.941, 229.017 13.525, 228.428 13.322 C 227.024 12.838, 212.831 19.298, 206.689 23.217 L 201.879 26.286 199.189 24.298 C 197.710 23.205, 195.037 21.554, 193.250 20.629 C 191.463 19.705, 190 18.285, 190 17.474 C 190 16.663, 189.162 16, 188.138 16 C 187.114 16, 183.402 14.697, 179.888 13.105 C 159.365 3.804, 132.444 -0.083, 110.609 3.104 M 226.813 26.683 C 227.534 26.972, 228.397 26.936, 228.729 26.604 C 229.061 26.272, 228.471 26.036, 227.417 26.079 C 226.252 26.127, 226.015 26.364, 226.813 26.683 M 214.500 28.654 C 211.750 29.487, 209.050 30.647, 208.500 31.231 C 207.819 31.954, 207.884 32.077, 208.702 31.617 C 209.364 31.245, 213.189 30.093, 217.202 29.056 C 221.216 28.019, 223.375 27.164, 222 27.155 C 220.625 27.147, 217.250 27.821, 214.500 28.654 M 214 34 C 212.718 34.828, 212.754 34.972, 214.250 34.985 C 215.213 34.993, 216 34.550, 216 34 C 216 32.780, 215.887 32.780, 214 34 M 240 71.902 C 240 72.296, 240.605 73.445, 241.345 74.457 C 242.636 76.223, 242.711 76.214, 243.229 74.234 C 243.610 72.777, 243.215 72.028, 241.884 71.680 C 240.848 71.409, 240 71.509, 240 71.902" fill="none" stroke="#000" stroke-width="2px" fill-rule="evenodd"/>
</svg>
