<svg xmlns="http://www.w3.org/2000/svg" width="500" height="440" viewBox="0 0 500 440" version="1.1">
	<path d="M 220.500 4.469 C 203.104 6.290, 183.913 9.481, 171.597 12.600 C 134.530 21.990, 99.586 43.409, 64.944 77.974 C 45.544 97.330, 31.967 114.697, 25.445 128.500 C 14.757 151.118, 7.412 175.468, 4.402 198.255 C 2.030 216.222, 2.943 245.161, 6.400 261.573 C 15.933 306.826, 41.860 349.646, 76.500 377.349 C 113.412 406.868, 154.830 425.910, 199 433.669 C 225.686 438.357, 261.759 438.064, 291.645 432.917 C 323.853 427.370, 365.900 412.302, 387.503 398.564 C 410.009 384.252, 437.767 359.480, 453 340.111 C 476.415 310.339, 489.437 281.439, 495.649 245.457 C 498.299 230.105, 498.035 200.347, 495.099 183.596 C 491.104 160.804, 485.257 143.754, 474.320 123 C 439.034 56.042, 380.406 16.846, 298.500 5.456 C 282.177 3.186, 238.093 2.628, 220.500 4.469" fill="none" stroke="#000" stroke-width="2px" fill-rule="evenodd"/>
</svg>
