<svg xmlns="http://www.w3.org/2000/svg" width="289" height="186" viewBox="0 0 289 186" version="1.1">
	<path d="M 58 1.819 C 58 2.404, 58.450 3.160, 59 3.500 C 62.604 5.728, 57.087 7.352, 52.469 5.423 C 48.385 3.716, 38.189 3.564, 32.957 5.131 C 28.191 6.559, 23.821 5.630, 24.687 3.373 C 25.202 2.030, 24.970 1.945, 23.269 2.856 C 19.045 5.117, 19.783 10.405, 24.488 11.586 C 28.212 12.521, 29.549 14.636, 27.208 15.889 C 25.659 16.718, 24.306 16.231, 20.229 13.377 C 15.976 10.400, 14.303 9.830, 9.702 9.788 C 6.693 9.761, 3.729 10.049, 3.116 10.429 C 1.230 11.594, 1.871 15.142, 4.616 18.741 C 8.733 24.139, 12.590 25.992, 19.719 25.996 C 24.835 25.999, 25.835 26.266, 25.362 27.500 C 25.045 28.325, 25.226 29, 25.764 29 C 26.302 29, 27.053 31.813, 27.433 35.250 C 27.813 38.688, 28.821 44.598, 29.673 48.385 C 30.920 53.927, 31.005 56.350, 30.111 60.802 C 28.545 68.601, 28.678 69.532, 31.547 70.839 C 35.166 72.488, 45.095 72.276, 49.448 70.457 C 52.845 69.038, 53.087 68.671, 52.471 65.869 C 51.868 63.122, 51.983 62.925, 53.651 63.852 C 56.654 65.522, 62.469 72.085, 66.365 78.198 C 68.361 81.332, 72.134 85.598, 74.748 87.677 C 77.361 89.756, 83.325 95.362, 88 100.136 C 96.537 108.853, 98.454 110.061, 103.998 110.219 C 107.404 110.316, 107.278 109.807, 107.541 124.500 C 107.645 130.335, 108.275 134.791, 109.332 137.171 C 110.672 140.192, 110.779 141.829, 109.933 146.407 C 108.090 156.374, 103.690 166.788, 97.757 175.222 C 95.832 177.959, 98.276 179.525, 104.185 179.344 C 110.161 179.161, 113.781 176.299, 114.894 170.877 C 115.365 168.583, 116.154 167.497, 117.352 167.492 C 118.944 167.485, 119.147 166.058, 119.417 152.992 C 119.646 141.850, 120.122 137.575, 121.473 134.500 C 122.439 132.300, 123.173 128.475, 123.105 126 C 123.036 123.525, 123.356 120.150, 123.817 118.500 C 124.564 115.822, 124.725 116.175, 125.316 121.796 C 126.020 128.481, 127.047 131.177, 130.216 134.661 C 131.968 136.587, 132.145 138.003, 131.841 147.665 L 131.500 158.508 127.210 164.928 C 124.850 168.459, 123.126 171.887, 123.379 172.545 C 124.109 174.447, 128.732 175.149, 132.984 174.004 C 137.378 172.821, 141 168.918, 141 165.365 C 141 164.064, 141.940 162.060, 143.090 160.910 L 145.179 158.821 142.949 150.160 C 140.974 142.492, 140.294 133.069, 141.097 124.500 C 141.200 123.400, 140.727 117.631, 140.046 111.679 C 139.365 105.728, 138.993 100.673, 139.220 100.447 C 139.755 99.911, 151.359 103.257, 156.500 105.429 C 158.700 106.359, 164.618 108.217, 169.650 109.560 C 188.667 114.631, 208.348 111.971, 223.299 102.309 C 226.066 100.521, 226.121 100.529, 228.112 103 C 232.096 107.948, 233.993 111.547, 233.996 114.168 C 234.005 120.233, 237.566 122.419, 238.646 117.022 C 238.973 115.385, 239.816 113.568, 240.518 112.985 C 242.276 111.526, 246 116.344, 246 120.076 C 246 124.120, 247.745 124.606, 249.746 121.119 C 251.756 117.617, 254.713 116.430, 255.393 118.853 C 255.648 119.759, 256.623 124.493, 257.560 129.374 C 260.842 146.464, 257.673 159.681, 247.660 170.664 C 246.073 172.404, 245.067 174.299, 245.424 174.877 C 246.049 175.888, 252.263 177.983, 254.673 177.994 C 256.968 178.005, 262 172.838, 262 170.470 C 262 167.916, 263.410 166.517, 264.996 167.498 C 266.131 168.199, 264.074 172.749, 260.408 177.649 C 258.285 180.487, 258.208 180.928, 259.635 182.112 C 260.531 182.855, 263.198 183.339, 265.779 183.227 C 271.269 182.988, 274.753 180.176, 275.196 175.627 C 275.434 173.182, 275.961 172.514, 277.612 172.565 C 279.688 172.628, 279.734 172.231, 280.253 149.565 C 280.756 127.617, 280.914 126.139, 283.509 119.051 L 286.237 111.601 284.245 99.051 C 282.084 85.433, 282.268 78.785, 285.297 61 C 286.187 55.775, 287.091 46.367, 287.306 40.094 C 287.775 26.408, 286.139 21.158, 280.040 16.774 C 275.804 13.730, 264.011 11.690, 259.846 13.281 C 258.556 13.774, 255.104 13.942, 252.175 13.653 C 249.247 13.365, 244.297 13.566, 241.175 14.099 C 238.054 14.633, 229.200 14.950, 221.500 14.805 C 213.800 14.659, 197.150 14.440, 184.500 14.317 C 153.809 14.020, 138.606 13.608, 119.823 12.566 C 109.053 11.968, 102.324 12.042, 98.323 12.803 C 86.640 15.024, 85 15.054, 85 13.044 C 85 10.704, 83.084 10, 76.710 10 C 72.188 10, 71.156 10.418, 67.949 13.550 C 64.572 16.847, 64.118 17.011, 61.566 15.848 L 58.819 14.596 62.159 11.847 C 65.377 9.199, 65.445 8.998, 64 6.407 C 62.340 3.430, 58 0.111, 58 1.819" fill="none" stroke="#000" stroke-width="2px" fill-rule="evenodd"/>
</svg>
