<svg xmlns="http://www.w3.org/2000/svg" width="223" height="278" viewBox="0 0 223 278" version="1.1">
	<path d="M 159.233 4.250 C 158.677 4.938, 157.904 8.739, 157.515 12.698 C 156.941 18.541, 156.402 20.147, 154.654 21.229 C 152.065 22.831, 148.088 22.393, 147.332 20.422 C 147.032 19.640, 146.389 19, 145.903 19 C 145.417 19, 142.062 16.975, 138.447 14.500 C 134.831 12.025, 131.565 9.963, 131.187 9.917 C 126.410 9.337, 125.707 9.517, 124.288 11.684 C 122.888 13.820, 122.896 14.687, 124.373 20.772 C 125.271 24.473, 126.004 28.422, 126.003 29.550 C 126.001 30.677, 126.474 32.074, 127.052 32.652 C 127.631 33.231, 128.228 34.855, 128.377 36.261 C 128.527 37.667, 129.404 39.967, 130.325 41.373 C 131.246 42.779, 132 44.819, 132 45.906 C 132 46.993, 132.400 48.129, 132.890 48.432 C 134.216 49.251, 134.833 56.153, 133.825 58.887 C 133.341 60.200, 132.741 63.125, 132.490 65.387 C 132.240 67.649, 131.555 72.200, 130.968 75.500 C 129.224 85.298, 129.715 92.185, 132.304 94.262 C 134.794 96.260, 135.143 95.880, 126.500 100.581 C 124.300 101.777, 122.612 103.261, 122.750 103.878 C 122.887 104.495, 122.550 105, 122 105 C 121.450 105, 121 105.587, 121 106.304 C 121 107.875, 116.454 112.179, 109 117.666 C 105.975 119.893, 101.700 123.470, 99.500 125.616 C 95.344 129.669, 87 141.246, 87 142.958 C 87 143.498, 86.100 145.542, 85 147.500 C 83.900 149.458, 83 151.488, 83 152.011 C 83 153.263, 76.667 163.130, 73.219 167.251 C 68.821 172.507, 66.446 176.198, 64.213 181.250 C 62.210 185.778, 60.726 187.434, 61.075 184.750 C 61.404 182.212, 60.967 181, 59.722 181 C 59.019 181, 57.703 180.133, 56.796 179.074 C 55.746 177.848, 54.394 177.346, 53.073 177.691 C 51.810 178.021, 51 177.755, 51 177.010 C 51 176.337, 50.339 176.040, 49.532 176.349 C 48.725 176.659, 47.787 176.464, 47.448 175.916 C 47.109 175.367, 45.952 175.198, 44.878 175.539 C 43.803 175.880, 39.987 176.305, 36.398 176.483 C 31.969 176.702, 29.256 177.363, 27.957 178.539 C 26.293 180.045, 25.966 180.074, 25.462 178.761 C 24.429 176.071, 20.502 176.969, 19.060 180.226 C 18.075 182.453, 17.527 182.862, 16.887 181.851 C 16.366 181.030, 16.025 180.947, 16.015 181.639 C 16.007 182.265, 15.219 182.715, 14.266 182.639 C 13.049 182.541, 12.250 183.619, 11.589 186.250 C 10.855 189.172, 10.158 190, 8.431 190 C 6.205 190, 4.546 192.213, 5.819 193.486 C 6.194 193.860, 6.516 194.467, 6.535 194.833 C 6.555 195.200, 7.133 196.512, 7.821 197.750 C 8.508 198.988, 8.774 200, 8.413 200 C 8.051 200, 8.315 200.675, 9 201.500 C 9.928 202.618, 9.944 203, 9.063 203 C 8.414 203, 8.181 203.483, 8.546 204.074 C 8.911 204.665, 8.205 206.217, 6.978 207.523 L 4.747 209.898 7.623 210.587 C 11.966 211.628, 12.237 211.989, 10.580 214.518 C 9.431 216.272, 9.355 216.961, 10.276 217.295 C 11.236 217.643, 11.228 218.199, 10.242 219.869 C 9.185 221.658, 9.225 222, 10.492 222 C 11.321 222, 12 222.675, 12 223.500 C 12 224.325, 12.418 225, 12.929 225 C 13.439 225, 14.552 225.695, 15.402 226.545 C 16.796 227.939, 17.242 227.767, 19.944 224.795 C 21.593 222.983, 22.955 222.063, 22.971 222.750 C 23.009 224.379, 27.700 224.379, 28.273 222.750 C 28.586 221.863, 29.626 222.162, 31.857 223.780 C 33.586 225.034, 35 225.596, 35 225.030 C 35 224.463, 35.450 224, 36 224 C 36.550 224, 37 225.029, 37 226.287 C 37 227.858, 37.627 228.622, 39 228.725 C 40.100 228.808, 41 228.454, 41 227.938 C 41 227.422, 41.450 227, 42 227 C 42.550 227, 43 228.125, 43 229.500 C 43 232.286, 43.309 232.440, 46.005 230.997 C 48.461 229.683, 49.458 231.276, 47.946 234.100 C 47.015 235.840, 47.053 236.084, 48.150 235.402 C 51.326 233.426, 59.787 234.918, 58.373 237.205 C 57.975 237.849, 58.146 238.028, 58.784 237.633 C 59.385 237.262, 60.341 237.755, 60.908 238.729 C 61.864 240.371, 61.943 240.355, 61.992 238.500 C 62.040 236.661, 62.201 236.701, 64 239 C 65.076 240.375, 65.966 240.905, 65.978 240.179 C 65.990 239.452, 66.675 238.182, 67.500 237.357 C 68.325 236.532, 69 236.339, 69 236.929 C 69 237.518, 69.675 238, 70.500 238 C 71.325 238, 72 238.420, 72 238.933 C 72 239.446, 73.285 239.830, 74.856 239.785 C 76.427 239.740, 78.245 240.033, 78.896 240.436 C 79.753 240.965, 79.891 240.415, 79.397 238.446 C 78.724 235.764, 78.769 235.734, 82.480 236.430 C 87.247 237.325, 89.580 238.782, 90.907 241.696 C 91.485 242.963, 92.812 244, 93.856 244 C 94.901 244, 96.349 244.716, 97.075 245.590 C 98.275 247.036, 98.513 247.019, 99.696 245.401 C 100.931 243.712, 101.148 243.734, 103.983 245.829 C 106.521 247.706, 107.271 247.848, 108.984 246.778 C 110.093 246.085, 111 244.721, 111 243.746 C 111 242.771, 111.563 241.065, 112.250 239.956 C 113.189 238.441, 113.211 237.759, 112.341 237.217 C 111.696 236.815, 111.410 235.307, 111.696 233.812 C 112.152 231.427, 112.482 231.233, 114.669 232.064 C 118.046 233.348, 118.218 233.276, 117.035 231.066 C 115.387 227.987, 115.746 227.694, 120.250 228.446 C 125.082 229.252, 125.185 229.252, 134 228.426 C 137.575 228.092, 141.471 227.201, 142.657 226.446 C 144.504 225.273, 144.896 225.286, 145.376 226.538 C 145.685 227.342, 146.964 228.003, 148.219 228.007 C 150.175 228.013, 150.821 229.046, 152.751 235.257 C 153.988 239.241, 155.001 243.187, 155.001 244.027 C 155 244.868, 155.606 246.443, 156.347 247.527 C 158.732 251.021, 160.773 258.554, 160.357 262.329 C 160.122 264.463, 160.388 266, 160.993 266 C 161.564 266, 162.774 267.556, 163.681 269.457 C 164.588 271.359, 165.725 272.670, 166.209 272.371 C 166.692 272.072, 167.630 272.272, 168.294 272.815 C 168.957 273.358, 171.691 273.724, 174.369 273.629 C 177.521 273.518, 179.410 273.906, 179.726 274.729 C 180.631 277.086, 183.916 276.063, 185.543 272.917 C 186.805 270.477, 186.913 269.190, 186.064 266.755 C 185.474 265.061, 185.229 263.438, 185.520 263.147 C 185.811 262.856, 184.081 260.566, 181.676 258.059 C 178.237 254.473, 176.833 251.899, 175.096 246 C 173.882 241.875, 172.477 237.496, 171.974 236.268 C 170.590 232.891, 169.568 221, 170.662 221 C 172.465 221, 174 223.423, 174 226.267 C 174 228.723, 174.301 229.039, 176.095 228.470 C 178.009 227.862, 178.148 228.116, 177.704 231.411 C 177.436 233.394, 177.619 235.264, 178.109 235.567 C 178.599 235.870, 179 237.216, 179 238.559 C 179 240.043, 179.578 241, 180.474 241 C 182.185 241, 185 245.952, 185 248.960 C 185 250.093, 185.891 251.783, 186.981 252.716 C 188.955 254.406, 188.954 254.420, 186.948 256.556 C 185.200 258.416, 185.128 258.861, 186.400 259.917 C 187.206 260.586, 189.962 261.274, 192.523 261.445 C 195.247 261.627, 198.340 262.615, 199.977 263.825 C 201.515 264.962, 203.612 265.857, 204.637 265.813 C 205.662 265.769, 207.287 266.066, 208.250 266.473 C 209.524 267.013, 210 266.748, 210 265.499 C 210 263.796, 211.139 263.807, 217.109 265.570 C 217.994 265.831, 219.276 265.373, 219.958 264.551 C 220.964 263.338, 220.808 262.426, 219.131 259.712 C 216.184 254.944, 214.052 253.352, 209.518 252.538 C 207.329 252.144, 204.797 251.427, 203.893 250.943 C 201.661 249.748, 198.037 241.787, 197.400 236.676 C 197.114 234.379, 196.642 231.825, 196.352 231 C 196.062 230.175, 195.002 221.628, 193.997 212.007 C 192.690 199.495, 192.482 194.320, 193.265 193.837 C 194.551 193.041, 194.994 191.057, 195.180 185.250 C 195.255 182.913, 195.695 181, 196.158 181 C 196.621 181, 197 180.357, 197 179.571 C 197 178.785, 198.575 176.472, 200.500 174.431 C 202.425 172.390, 204 170.301, 204 169.789 C 204 169.276, 204.668 168.189, 205.484 167.373 C 206.611 166.246, 206.851 164.279, 206.480 159.195 C 205.691 148.377, 205.565 147.615, 204.146 145.123 C 203.103 143.290, 203.070 142.575, 204 142 C 204.847 141.476, 204.912 140.695, 204.218 139.377 C 203.367 137.760, 201.658 128.865, 201.520 125.330 C 201.494 124.687, 200.242 123.192, 198.737 122.008 C 197.232 120.824, 196 119.495, 196 119.056 C 196 118.617, 198.250 117.959, 201 117.594 C 205.340 117.019, 206 116.631, 206 114.657 C 206 110.394, 203.633 108.579, 197.345 108.020 C 192.120 107.555, 191.464 107.247, 191.162 105.109 C 190.894 103.211, 191.173 102.852, 192.517 103.368 C 193.448 103.725, 195.991 103.484, 198.169 102.831 C 201.609 101.800, 202.051 101.341, 201.545 99.323 C 201.191 97.914, 201.409 97, 202.098 97 C 202.764 97, 203.003 96.120, 202.676 94.869 C 202.360 93.662, 202.743 92.114, 203.559 91.298 C 204.924 89.934, 205.591 86.305, 205.086 83 C 204.960 82.175, 204.702 80.172, 204.514 78.549 C 204.326 76.926, 203.458 75.077, 202.586 74.439 C 200.321 72.783, 200.596 71.691, 204.055 68.609 C 206.673 66.276, 207.066 65.297, 206.805 61.761 L 206.500 57.636 201.588 57.356 C 195.631 57.016, 193.795 55.622, 196.554 53.536 C 197.624 52.726, 199.270 52.049, 200.211 52.032 C 203.995 51.961, 208.380 45.092, 209.344 37.726 C 209.940 33.170, 209.825 32.864, 206.832 31.044 C 204.152 29.414, 202.394 29.214, 194.766 29.669 C 186.604 30.157, 185.669 30.022, 183.880 28.101 C 182.803 26.946, 180.995 26, 179.862 26 C 177.610 26, 172 20.603, 172 18.437 C 172 16.489, 162.713 3, 161.372 3 C 160.752 3, 159.790 3.563, 159.233 4.250" fill="none" stroke="#000" stroke-width="2px" fill-rule="evenodd"/>
</svg>
