<svg xmlns="http://www.w3.org/2000/svg" width="274" height="239" viewBox="0 0 274 239" version="1.1">
	<path d="M 17 3.025 C 17 4.090, 22.401 13.222, 25.225 16.934 C 27.206 19.537, 26.944 23.670, 24.557 27.500 C 23.871 28.600, 23.049 31.483, 22.729 33.906 C 22.219 37.776, 21.120 39.355, 13.680 46.906 C 3.362 57.377, 0.428 63.044, 2.389 68.711 C 4.553 74.961, 7.772 76.561, 17.326 76.138 C 38.249 75.210, 49.013 76.292, 53.431 79.767 C 54.992 80.995, 56.710 82, 57.249 82 C 58.602 82, 65.909 90.205, 65.959 91.781 C 65.982 92.486, 66.675 93.322, 67.500 93.638 C 68.325 93.955, 69 94.553, 69 94.967 C 69 96.210, 75.776 103, 77.016 103 C 77.649 103, 77.979 103.562, 77.749 104.250 C 77.322 105.531, 79.542 111.040, 85.575 123.672 C 87.459 127.616, 89 131.319, 89 131.899 C 89 132.479, 90.072 133.656, 91.383 134.515 C 92.693 135.374, 94.014 137.297, 94.318 138.788 C 94.623 140.280, 97.873 146.163, 101.542 151.862 C 107.562 161.214, 108.358 163.065, 109.713 170.862 C 111.778 182.737, 111.106 199.256, 108.342 204.595 C 107.230 206.743, 106.052 210.186, 105.724 212.247 C 105.193 215.581, 105.386 216.059, 107.475 216.583 C 109.779 217.161, 116.963 214.556, 121.820 211.379 C 124.050 209.921, 124.075 209.763, 122.469 207.313 C 120.879 204.886, 120.905 204.620, 122.999 201.787 C 124.656 199.546, 125.042 198.032, 124.562 195.656 C 124.211 193.920, 123.455 190.250, 122.882 187.500 C 121.590 181.297, 120.606 161.704, 121.424 158.446 C 122.100 155.755, 127.071 152.706, 129.355 153.583 C 132.213 154.679, 133.354 163.255, 131.982 173.320 C 130.896 181.291, 130.949 183.548, 132.386 190.456 C 134.949 202.778, 133.878 214.369, 128.576 231.685 L 127.294 235.871 132.012 235.312 C 134.997 234.959, 136.985 235.166, 137.424 235.877 C 137.806 236.495, 139.239 237, 140.610 237 C 142.479 237, 143.443 236.183, 144.468 233.730 C 145.220 231.931, 146.779 229.605, 147.934 228.560 C 149.786 226.883, 149.980 225.830, 149.580 219.580 C 149.332 215.686, 148.399 210.475, 147.508 208 C 145.504 202.436, 143.974 187.135, 145.183 184.750 C 145.671 183.788, 146.774 183, 147.633 183 C 148.957 183, 149.088 182.068, 148.491 176.919 C 147.866 171.538, 148.012 170.680, 149.761 169.455 C 151.158 168.476, 151.591 167.312, 151.240 165.476 C 150.859 163.481, 151.208 162.758, 152.748 162.356 C 155.131 161.733, 157.497 157.737, 156.705 155.674 C 156.271 154.543, 157.429 154.047, 161.822 153.483 C 170.866 152.322, 195.197 152.223, 198.676 153.334 C 201.417 154.209, 202.784 153.895, 208.676 151.031 C 212.429 149.207, 217.376 146.204, 219.668 144.357 C 224.526 140.445, 225.316 140.316, 228 143 C 229.732 144.732, 229.995 146.305, 229.964 154.750 C 229.945 160.112, 229.525 169, 229.032 174.500 C 228.193 183.854, 228.267 184.640, 230.171 186.674 L 232.207 188.849 228.103 197.288 C 225.846 201.929, 224 206.013, 224 206.363 C 224 206.713, 226.924 207, 230.498 207 L 236.996 207 239.979 202.250 C 241.668 199.561, 242.970 196.099, 242.981 194.271 C 242.991 192.495, 243.855 188.220, 244.900 184.771 C 247.220 177.110, 249.011 169.336, 249.487 164.855 C 250.807 152.438, 251.848 148.453, 254.173 146.927 C 254.653 146.612, 254.386 144.775, 253.580 142.845 C 252.300 139.781, 252.297 138.982, 253.557 136.553 C 254.350 135.023, 255 133.180, 255 132.457 C 255 131.734, 255.744 130.399, 256.653 129.490 C 257.729 128.414, 258.339 126.036, 258.403 122.669 C 258.456 119.826, 258.805 117.268, 259.179 116.985 C 259.552 116.702, 259.410 114.369, 258.862 111.802 C 258.038 107.938, 258.158 106.688, 259.562 104.546 C 260.769 102.704, 261.216 100.073, 261.115 95.412 C 261.024 91.211, 261.336 89.090, 261.987 89.492 C 262.546 89.837, 263 89.195, 263 88.059 C 263 86.927, 263.450 86, 264 86 C 264.550 86, 265 85.362, 265 84.583 C 265 83.804, 265.562 82.963, 266.250 82.714 C 267.250 82.352, 267.250 81.838, 266.250 80.144 C 264.621 77.385, 264.671 77, 266.655 77 C 268.180 77, 268.176 76.852, 266.612 75.124 C 265.014 73.358, 265.015 73.208, 266.634 72.587 C 268.201 71.986, 268.214 71.785, 266.780 70.351 C 265.622 69.194, 265.421 68.020, 266.020 65.931 C 266.468 64.367, 266.595 62.167, 266.301 61.043 C 266.007 59.920, 266.159 59, 266.639 59 C 267.118 59, 267.552 56.728, 267.603 53.951 C 267.668 50.415, 268.359 48.006, 269.910 45.908 C 271.242 44.106, 272 41.835, 271.812 40.206 C 271.546 37.901, 271.093 37.548, 268.750 37.822 C 266.714 38.060, 266 37.707, 266 36.465 C 266 35.383, 265.466 34.991, 264.500 35.362 C 263.558 35.723, 263 35.351, 263 34.362 C 263 33.372, 262.442 33, 261.500 33.362 C 260.558 33.723, 260 33.351, 260 32.362 C 260 30.502, 258.722 30.888, 253.076 34.452 C 250.607 36.011, 249 37.785, 249 38.954 C 249 41.883, 247.102 42.438, 244.676 40.218 C 243.479 39.122, 240.475 37.170, 238 35.880 C 233.917 33.751, 232.110 33.519, 218.500 33.369 C 210.250 33.278, 202.825 33.138, 202 33.058 C 201.175 32.977, 198.250 33.437, 195.500 34.080 C 192.750 34.722, 189.475 35.340, 188.222 35.452 C 186.970 35.564, 185.417 36.183, 184.772 36.828 C 184.128 37.472, 183.140 38, 182.578 38 C 181.213 38, 168.856 41.750, 162 44.245 C 156.517 46.240, 150.192 47.205, 144.500 46.915 C 137.907 46.580, 133.832 46.830, 117.864 48.554 L 101.229 50.349 97.364 47.308 C 95.239 45.635, 91.475 43.259, 89 42.027 C 82.054 38.571, 77.329 33.455, 75.391 27.292 C 73.509 21.310, 71.262 19.498, 66.828 20.384 C 64.854 20.779, 64.119 20.616, 64.572 19.883 C 65.874 17.777, 72.003 16, 77.968 16 C 81.286 16, 84 15.620, 84 15.155 C 84 12.096, 74.481 7.797, 67.824 7.848 C 64.927 7.871, 62.732 7.373, 62.268 6.589 C 61.143 4.688, 57.507 3, 54.539 3 C 52.790 3, 50.443 4.504, 47.322 7.625 C 44.402 10.546, 41.816 12.250, 40.307 12.250 C 38.992 12.250, 33.210 9.962, 27.458 7.165 C 21.706 4.369, 17 2.506, 17 3.025 M 55.441 10.468 C 54.374 11.276, 54.007 11.951, 54.628 11.968 C 55.248 11.986, 56.315 11.325, 57 10.500 C 58.581 8.595, 57.935 8.582, 55.441 10.468 M 262 92 C 262 92.550, 262.450 93, 263 93 C 263.550 93, 264 92.550, 264 92 C 264 91.450, 263.550 91, 263 91 C 262.450 91, 262 91.450, 262 92" fill="none" stroke="#000" stroke-width="2px" fill-rule="evenodd"/>
</svg>
