<svg xmlns="http://www.w3.org/2000/svg" width="233" height="269" viewBox="0 0 233 269" version="1.1">
	<path d="M 206.500 9.449 C 191.672 16.763, 188.764 18.600, 183.737 23.835 L 177.975 29.837 170.450 27.516 C 166.311 26.239, 161.929 24.470, 160.712 23.586 C 145.762 12.723, 135.988 8.944, 117.962 7.062 C 97.990 4.976, 73.192 10.864, 60.208 20.775 C 56.148 23.873, 55.699 23.990, 52.047 22.896 C 47.731 21.603, 43 22.354, 43 24.332 C 43 25.044, 44.353 26.923, 46.008 28.507 L 49.015 31.389 46.151 34.444 C 42.064 38.804, 35.670 51.159, 32.666 60.500 C 31.251 64.900, 28.287 74.125, 26.079 81 C 19.592 101.198, 18.988 109.276, 22.118 134 C 22.998 140.954, 22.906 144.008, 21.610 150.791 C 20.739 155.351, 19.623 159.851, 19.131 160.791 C 18.638 161.731, 17.686 165.875, 17.016 170 C 15.186 181.256, 13.468 188.195, 11.629 191.751 C 7.996 198.775, 5.017 209.023, 4.002 217.982 C 2.383 232.273, 4.005 236.103, 11.568 235.849 C 13.731 235.776, 16.432 236.037, 17.571 236.428 C 20.423 237.408, 24.385 231.300, 25.999 223.437 C 26.670 220.172, 27.817 216.375, 28.550 215 C 30.422 211.487, 32.718 203.400, 33.519 197.500 C 33.892 194.750, 34.616 191.718, 35.128 190.761 C 35.640 189.805, 37.176 185.167, 38.541 180.454 C 39.907 175.741, 42.188 169.589, 43.610 166.782 C 45.033 163.975, 46.608 158.768, 47.112 155.211 C 48.338 146.556, 50.362 142.641, 56.731 136.604 C 63.626 130.069, 64.007 129.887, 68.332 131.081 C 75.639 133.099, 75.405 139.235, 67.622 149.674 C 60.493 159.236, 60.681 158.211, 62.995 174.963 C 64.132 183.192, 65.658 191.628, 66.387 193.712 C 67.115 195.795, 68.267 202, 68.946 207.500 C 70.158 217.322, 74.296 229.492, 77.605 232.964 C 78.819 234.238, 79 234.133, 79 232.155 C 79 229.016, 80.433 230.198, 82.964 235.425 C 86.094 241.891, 86.990 242.332, 97.570 242.605 C 105.330 242.806, 107 242.588, 107 241.373 C 107 240.560, 105.278 236.432, 103.173 232.198 C 96.448 218.672, 90.926 200.360, 88.958 185.058 L 88 177.616 92.015 170.858 C 96.584 163.168, 97.653 162.210, 99.522 164.132 C 101.694 166.366, 110.338 181.996, 113.275 189 C 117.712 199.582, 125.561 224.815, 127.429 234.500 C 131.203 254.073, 132.983 262.316, 133.560 262.893 C 133.892 263.225, 134.769 262.669, 135.509 261.657 C 136.774 259.927, 136.948 259.998, 138.420 262.845 C 139.281 264.511, 140.551 266.225, 141.243 266.656 C 143.351 267.969, 162.392 267.984, 163.202 266.673 C 163.736 265.809, 164.230 265.830, 165.158 266.758 C 166.771 268.371, 173.709 268.373, 174.246 266.762 C 174.560 265.821, 175.240 265.788, 177.079 266.626 C 180.935 268.383, 183.564 266.727, 185.380 261.399 C 186.643 257.691, 187.009 252.442, 187.043 237.572 C 187.067 227.082, 187.482 211.300, 187.966 202.500 C 188.926 185.035, 190.601 178.187, 197.607 163.101 C 201.611 154.477, 207 138.400, 207 135.078 C 207 133.859, 208.181 128.281, 209.624 122.681 C 212.775 110.458, 213.172 96.166, 210.645 86 C 208.405 76.986, 208.370 77.106, 213.022 77.730 C 217.846 78.377, 220.346 76.558, 222.093 71.129 C 222.735 69.133, 223.608 67.050, 224.033 66.500 C 224.458 65.950, 225.837 62.125, 227.096 58 C 229.640 49.672, 230.274 33.786, 228.605 20.235 C 227.843 14.050, 227.983 12.364, 229.546 8.899 C 230.898 5.900, 231.107 4.390, 230.340 3.164 C 228.193 -0.267, 223.909 0.863, 206.500 9.449 M 138 170.083 C 138 170.797, 140.009 175.458, 142.464 180.440 C 144.949 185.483, 147.377 192.161, 147.940 195.500 C 148.496 198.800, 149.454 204.650, 150.068 208.500 C 150.683 212.350, 152.471 219.100, 154.041 223.500 C 155.611 227.900, 157.319 233.750, 157.836 236.500 C 158.353 239.250, 158.833 240.825, 158.903 240 C 159.767 229.727, 160.172 217.657, 160.096 204.500 C 160.044 195.700, 160.397 185.125, 160.880 181 C 161.500 175.700, 161.427 173.153, 160.629 172.318 C 160.004 171.664, 155.484 170.921, 150.500 170.652 C 145.550 170.386, 140.713 169.857, 139.750 169.477 C 138.628 169.034, 138 169.251, 138 170.083" fill="none" stroke="#000" stroke-width="2px" fill-rule="evenodd"/>
</svg>
