<svg xmlns="http://www.w3.org/2000/svg" width="208" height="253" viewBox="0 0 208 253" version="1.1">
	<path d="M 152.185 2.989 C 150.361 3.421, 147.886 4.669, 146.685 5.763 C 145.483 6.857, 142.025 8.317, 139 9.008 C 135.975 9.699, 132.618 10.721, 131.540 11.280 C 130.462 11.838, 125.962 12.370, 121.540 12.461 C 113.414 12.630, 108 14.275, 108 16.576 C 108 17.892, 113.810 22.824, 117.872 24.956 C 119.176 25.640, 122.326 26.499, 124.872 26.865 L 129.500 27.529 129.170 36.014 C 128.979 40.946, 128.155 46.093, 127.204 48.304 C 125.762 51.655, 125.265 52.027, 123.034 51.430 C 121.640 51.057, 119.600 50.596, 118.500 50.407 C 117.400 50.217, 111.100 48.767, 104.500 47.184 C 85.841 42.710, 68.340 39.961, 58.643 39.982 C 48.241 40.003, 36.920 42.429, 32.018 45.686 C 30.103 46.959, 28.199 48, 27.787 48 C 25.981 48, 16.098 55.236, 11.866 59.658 C 5.569 66.237, 5.148 67.312, 4.440 78.631 C 4.100 84.059, 3.411 89.858, 2.910 91.519 C 1.954 94.683, 3.494 107.542, 6.324 120.034 C 7.139 123.628, 7.572 127.790, 7.286 129.284 C 6.972 130.927, 7.208 132, 7.883 132 C 8.498 132, 9 132.873, 9 133.941 C 9 135.009, 9.452 136.161, 10.004 136.502 C 10.556 136.843, 10.732 138.220, 10.395 139.561 C 10.022 141.048, 10.216 142, 10.892 142 C 11.501 142, 12 143.173, 12 144.606 C 12 146.039, 12.710 149.950, 13.577 153.297 C 14.835 158.151, 14.946 160.610, 14.128 165.442 C 11.864 178.816, 11.848 179.817, 13.891 180.465 C 14.974 180.809, 15.805 182.015, 15.833 183.283 C 15.893 186.003, 19.410 205.926, 20.197 208 C 20.510 208.825, 21.309 212.650, 21.973 216.500 C 23.540 225.582, 28.730 236.876, 31.682 237.627 C 35.040 238.482, 46.730 238.590, 47.553 237.774 C 47.956 237.375, 47.717 236.364, 47.022 235.527 C 45.909 234.185, 46.336 234.094, 50.630 234.753 C 56.959 235.724, 67.623 235.713, 68.600 234.735 C 69.020 234.314, 68.007 232.514, 66.349 230.735 C 59.431 223.310, 55.775 217.834, 54.493 212.975 C 51.934 203.273, 50.824 188.328, 52.262 182.934 C 53.156 179.579, 56.307 176, 58.367 176 C 59.405 176, 60 175.161, 60 173.697 C 60 172.430, 61.363 169.541, 63.029 167.275 C 66.336 162.778, 65.227 162.893, 75.250 166.011 C 77.037 166.567, 82.008 166.963, 86.295 166.889 C 90.582 166.816, 94.317 166.984, 94.596 167.263 C 94.874 167.541, 95.192 168.833, 95.301 170.134 C 95.410 171.435, 96.571 174.223, 97.881 176.329 C 99.934 179.632, 100.191 181.031, 99.752 186.501 C 99.359 191.393, 99.535 192.732, 100.520 192.354 C 102.714 191.512, 103.250 193.970, 101.465 196.693 C 100.527 198.126, 99.598 201.819, 99.401 204.899 C 98.887 212.956, 98.180 216.339, 95.963 221.350 C 94.884 223.789, 93.529 228.646, 92.951 232.142 C 92.373 235.639, 91.648 239.966, 91.340 241.757 C 90.558 246.299, 93.110 250, 97.023 250 C 98.672 250, 100 249.465, 100 248.800 C 100 247.867, 100.267 247.867, 101.200 248.800 C 101.860 249.460, 103.594 250, 105.054 250 L 107.708 250 107.860 237.608 C 107.959 229.535, 108.533 223.740, 109.506 220.982 C 110.328 218.654, 111.014 215.568, 111.032 214.124 C 111.049 212.681, 111.724 210.626, 112.532 209.559 C 113.339 208.491, 114 206.141, 114 204.336 C 114 201.514, 115.789 196.433, 119.130 189.764 C 119.609 188.809, 120 186.509, 120 184.653 C 120 182.797, 120.280 179.238, 120.622 176.744 C 121.226 172.335, 121.321 172.232, 124.046 173.013 C 125.588 173.455, 127.010 173.657, 127.205 173.461 C 127.401 173.266, 130.022 172.907, 133.031 172.664 C 138.592 172.215, 142.532 173.330, 141.469 175.050 C 141.146 175.573, 141.260 176, 141.722 176 C 143.462 176, 144.808 181.906, 143.945 185.749 C 143.474 187.847, 142.903 196.299, 142.677 204.531 C 142.404 214.458, 141.663 221.819, 140.478 226.383 C 139.020 231.996, 138.890 234.118, 139.773 237.883 C 140.369 240.422, 141.115 243.706, 141.430 245.180 C 142.429 249.855, 144.491 251, 151.905 251 C 155.624 251, 158.949 250.718, 159.293 250.373 C 159.638 250.028, 159.263 248.476, 158.460 246.923 C 157.657 245.370, 157 242.934, 157 241.510 C 157 240.086, 156.089 237.135, 154.976 234.954 C 152.306 229.718, 151.775 213.369, 154.218 211.582 C 155.425 210.700, 155.681 208.974, 155.378 203.778 C 154.984 197.034, 157.131 188.855, 160.765 183.257 C 161.594 181.980, 161.965 179.996, 161.627 178.649 C 161.171 176.832, 161.898 175.363, 164.767 172.305 C 177.019 159.247, 182.761 149.394, 183.595 140 C 183.864 136.975, 184.788 132.558, 185.649 130.185 C 186.510 127.812, 187.319 124.212, 187.446 122.185 C 187.573 120.158, 188.276 114.403, 189.009 109.396 C 190.430 99.685, 189.470 89.143, 186.566 82.568 C 184.158 77.115, 180 62.295, 180 59.163 C 180 57.488, 179.572 55.853, 179.048 55.530 C 178.486 55.182, 178.829 53.215, 179.887 50.721 C 181.073 47.924, 181.429 45.594, 180.942 43.813 C 180.538 42.336, 180.462 40.871, 180.774 40.560 C 181.085 40.248, 181.601 37.043, 181.920 33.438 L 182.500 26.883 189.934 24.384 C 197.419 21.868, 205.016 17.509, 205.734 15.318 C 206.727 12.288, 196.033 10.703, 186.716 12.498 C 183.562 13.105, 182.626 12.874, 181.098 11.113 C 180.090 9.951, 178.897 9, 178.447 9 C 177.997 9, 176.623 8.055, 175.394 6.901 C 174.166 5.746, 171.437 4.596, 169.330 4.346 C 167.224 4.095, 164.195 3.464, 162.601 2.945 C 159.287 1.865, 156.892 1.875, 152.185 2.989 M 38.219 149 C 38.367 153.178, 37.224 157.665, 35.227 160.750 C 34.288 162.200, 34.166 163, 34.885 163 C 35.498 163, 36 162.507, 36 161.904 C 36 161.302, 36.832 159.614, 37.848 158.154 C 40.467 154.393, 40.856 151.943, 39.381 148.500 L 38.096 145.500 38.219 149 M 30.082 185.143 C 29.989 189.277, 32.817 203.983, 33.997 205.500 C 34.424 206.050, 35.097 208.456, 35.491 210.846 C 35.885 213.236, 36.581 214.811, 37.037 214.346 C 37.740 213.628, 35.886 202.815, 34.234 198 C 33.951 197.175, 33.582 194.644, 33.414 192.376 C 33.246 190.108, 32.446 186.733, 31.636 184.876 L 30.163 181.500 30.082 185.143" fill="none" stroke="#000" stroke-width="2px" fill-rule="evenodd"/>
</svg>
