<?xml version="1.0" encoding="UTF-8" standalone="no"?>
<svg
   xmlns:dc="http://purl.org/dc/elements/1.1/"
   xmlns:cc="http://creativecommons.org/ns#"
   xmlns:rdf="http://www.w3.org/1999/02/22-rdf-syntax-ns#"
   xmlns:svg="http://www.w3.org/2000/svg"
   xmlns="http://www.w3.org/2000/svg"
   xmlns:sodipodi="http://sodipodi.sourceforge.net/DTD/sodipodi-0.dtd"
   xmlns:inkscape="http://www.inkscape.org/namespaces/inkscape"
   inkscape:version="1.0 (4035a4fb49, 2020-05-01)"
   sodipodi:docname="items.svg"
   id="svg1128"
   xml:space="preserve"
   enable-background="new 0 0 800 400"
   viewBox="0 0 400 400"
   height="400"
   width="400"
   y="0px"
   x="0px"
   version="1.1"><metadata
   id="metadata1134"><rdf:RDF><cc:Work
       rdf:about=""><dc:format>image/svg+xml</dc:format><dc:type
         rdf:resource="http://purl.org/dc/dcmitype/StillImage" /><dc:title></dc:title></cc:Work></rdf:RDF></metadata><defs
   id="defs1132" /><sodipodi:namedview
   inkscape:current-layer="svg1128"
   inkscape:window-maximized="1"
   inkscape:window-y="-8"
   inkscape:window-x="-8"
   inkscape:cy="200"
   inkscape:cx="400"
   inkscape:zoom="1.4375"
   fit-margin-bottom="0"
   fit-margin-right="0"
   fit-margin-left="0"
   fit-margin-top="0"
   showgrid="false"
   id="namedview1130"
   inkscape:window-height="1017"
   inkscape:window-width="1920"
   inkscape:pageshadow="2"
   inkscape:pageopacity="0"
   guidetolerance="10"
   gridtolerance="10"
   objecttolerance="10"
   borderopacity="1"
   bordercolor="#666666"
   pagecolor="#ffffff" />
<g
   id="Слой_1">
	<g
   id="g59">
		<g
   id="g25">
			<rect
   x="0"
   id="rect2"
   height="400"
   width="400"
   fill="#ffffff"
   y="0" />
			
				<radialGradient
   gradientUnits="userSpaceOnUse"
   gradientTransform="translate(0,-3.5389)"
   r="214.0002"
   cy="212.53889"
   cx="205"
   id="SVGID_1_">
				<stop
   id="stop4"
   style="stop-color:#68A6AC"
   offset="0" />
				<stop
   id="stop6"
   style="stop-color:#6DA8AE"
   offset="0.1453" />
				<stop
   id="stop8"
   style="stop-color:#7BAEB4"
   offset="0.2873" />
				<stop
   id="stop10"
   style="stop-color:#90B9BE"
   offset="0.4279" />
				<stop
   id="stop12"
   style="stop-color:#ACC8CD"
   offset="0.5678" />
				<stop
   id="stop14"
   style="stop-color:#CDDCE0"
   offset="0.7071" />
				<stop
   id="stop16"
   style="stop-color:#F2F6F7"
   offset="0.8442" />
				<stop
   id="stop18"
   style="stop-color:#FFFFFF"
   offset="0.89" />
				<stop
   id="stop20"
   style="stop-color:#FFFFFF"
   offset="1" />
			</radialGradient>
			<path
   style="fill:url(#SVGID_1_)"
   id="path23"
   d="M 400,297.278 V 120.723 C 372.529,60.136 317.652,14.622 251.189,0 H 158.81 C 82.91,16.698 22.119,73.688 0,147.405 V 270.596 C 16.951,327.091 56.617,373.761 108.392,400 H 301.609 C 344.982,378.019 379.857,341.7 400,297.278 Z"
   fill="url(#SVGID_1_)"
   opacity="0.6" />
		</g>
		<polygon
   id="polygon27"
   points="253.198,41.006 250.6,43.539 251.213,47.117 248,45.428 244.787,47.117 245.401,43.539 242.803,41.006 246.394,40.484 248,37.229 249.606,40.484 "
   fill="#f6b7ce"
   opacity="0.3" />
		<polygon
   id="polygon29"
   points="347.6,73.8 345,76.334 345.614,79.91 342.402,78.221 339.189,79.91 339.803,76.334 337.203,73.8 340.795,73.277 342.402,70.023 344.008,73.277 "
   fill="#f6b7ce"
   opacity="0.3" />
		<polygon
   id="polygon31"
   points="30.13,157.8 27.531,160.334 28.145,163.91 24.933,162.222 21.72,163.91 22.334,160.334 19.734,157.8 23.326,157.277 24.933,154.023 26.539,157.277 "
   fill="#83cde0"
   opacity="0.3" />
		<polygon
   id="polygon33"
   points="139.599,49.8 137,52.334 137.614,55.91 134.402,54.221 131.189,55.91 131.803,52.334 129.203,49.8 132.795,49.277 134.402,46.023 136.008,49.277 "
   fill="#f6b7ce"
   opacity="0.3" />
		<polygon
   id="polygon35"
   points="81.65,92.904 80.025,94.488 80.41,96.722 78.402,95.668 76.393,96.722 76.777,94.488 75.152,92.904 77.398,92.578 78.402,90.544 79.405,92.578 "
   fill="#83cde0"
   opacity="0.3" />
		<polygon
   id="polygon37"
   points="297.873,76.416 296.249,78 296.633,80.235 294.625,79.179 292.617,80.235 293,78 291.376,76.416 293.621,76.09 294.625,74.056 295.629,76.09 "
   fill="#ffffff" />
		<polygon
   id="polygon39"
   points="126.924,25.181 125.299,26.765 125.683,29.001 123.676,27.945 121.667,29.001 122.051,26.765 120.426,25.181 122.672,24.855 123.676,22.822 124.679,24.855 "
   fill="#83cde0"
   opacity="0.3" />
		<polygon
   id="polygon41"
   points="273.873,26.75 272.249,28.334 272.633,30.57 270.625,29.513 268.617,30.57 269,28.334 267.376,26.75 269.621,26.424 270.625,24.39 271.629,26.424 "
   fill="#83cde0"
   opacity="0.3" />
		<polygon
   id="polygon43"
   points="81.084,46.918 70.062,50.349 66.642,61.374 59.972,51.953 48.43,52.105 55.33,42.851 51.617,31.922 62.55,35.623 71.798,28.716 71.656,40.258 "
   fill="#83cde0"
   opacity="0.3" />
		<polygon
   id="polygon45"
   points="215.501,43.25 204.48,46.682 201.058,57.706 194.39,48.284 182.848,48.438 189.746,39.184 186.034,28.254 196.969,31.956 206.215,25.048 206.074,36.589 "
   fill="#ffffff"
   opacity="0.7" />
		<polygon
   id="polygon47"
   points="369.471,173.779 358.541,170.064 349.285,176.962 349.441,165.42 340.021,158.748 351.047,155.33 354.48,144.31 361.14,153.739 372.682,153.6 365.771,162.846 "
   fill="#ffffff" />
		<polygon
   id="polygon49"
   points="57.535,200.822 52.033,198.951 47.374,202.424 47.452,196.613 42.709,193.254 48.26,191.533 49.989,185.985 53.341,190.732 59.152,190.662 55.673,195.316 "
   fill="#ffffff" />
		<polygon
   id="polygon51"
   points="354.121,47.512 348.619,45.641 343.96,49.114 344.038,43.303 339.296,39.944 344.847,38.223 346.575,32.675 349.928,37.422 355.738,37.352 352.26,42.006 "
   fill="#ffecac"
   opacity="0.3" />
		<polygon
   id="polygon53"
   points="314.202,32.822 308.7,30.951 304.041,34.424 304.119,28.613 299.377,25.254 304.928,23.533 306.656,17.985 310.008,22.732 315.818,22.662 312.34,27.316 "
   fill="#f6b7ce"
   opacity="0.3" />
		<polygon
   id="polygon55"
   points="341,120.964 329.158,116.936 319.128,124.411 319.297,111.904 309.089,104.673 321.037,100.969 324.758,89.027 331.972,99.245 344.479,99.094 336.992,109.112 "
   fill="#f6b7ce"
   opacity="0.3" />
		<polygon
   id="polygon57"
   points="67.084,126.918 56.063,130.35 52.642,141.374 45.972,131.953 34.431,132.105 41.33,122.852 37.617,111.922 48.551,115.623 57.798,108.716 57.657,120.258 "
   fill="#ffecac"
   opacity="0.7" />
	</g>
	<g
   id="g541">
		<path
   id="path61"
   d="m 115.761,192.186 c -1.237,3.65 -2.198,8.335 2.106,10.398 2.808,1.345 3.994,-0.308 6.278,-1.39 l 3.112,-28.573 c -5.388,5.256 -9.111,12.524 -11.496,19.565 z"
   fill="#d1c8a3" />
		<polygon
   id="polygon63"
   points="300.369,193.883 208.182,217.222 116.441,193.883 208,170 "
   fill="#946543" />
		<polygon
   id="polygon65"
   points="300.369,193.883 208.052,170.025 208.208,217.208 "
   fill="#a8714d" />
		<g
   id="g107">
			<path
   id="path67"
   d="m 316.113,167.463 c -1.412,-1.849 -3.318,-3.394 -5.673,-4.573 -0.199,-0.099 -0.394,-0.189 -0.588,-0.28 -1.279,1.127 -2.384,2.426 -3.298,3.845 1.742,0.725 3.418,2.045 4.804,3.706 1.439,-1.126 3.043,-2.038 4.755,-2.698 z"
   fill="#e52629" />
			<path
   id="path69"
   d="m 307.133,169.496 c 1.164,0.582 2.053,1.254 2.717,1.98 0.478,-0.467 0.982,-0.903 1.507,-1.314 -1.386,-1.661 -3.063,-2.981 -4.804,-3.706 -0.462,0.716 -0.879,1.462 -1.239,2.234 0.599,0.218 1.208,0.5 1.819,0.806 z"
   fill="#d31122" />
			<path
   id="path71"
   d="m 306.553,166.455 c 0.915,-1.42 2.02,-2.719 3.298,-3.845 -2.866,-1.344 -5.516,-1.912 -8.001,-1.704 -1.03,1.99 -1.673,4.131 -1.929,6.311 1.989,-1.644 4.364,-1.707 6.632,-0.762 z"
   fill="#ffffff" />
			<path
   id="path73"
   d="m 305.313,168.69 c 0.36,-0.773 0.777,-1.518 1.239,-2.234 -2.268,-0.945 -4.643,-0.882 -6.632,0.762 -0.082,0.713 -0.126,1.43 -0.126,2.148 1.894,-1.441 3.693,-1.34 5.519,-0.676 z"
   fill="#dcdcdc" />
			<path
   id="path75"
   d="m 312.015,186.451 c 1.777,0.747 3.852,-0.003 4.724,-1.751 1.282,-2.554 2.007,-5.117 2.169,-7.585 -1.396,-0.147 -2.804,-0.13 -4.201,0.039 0.032,0.192 0.065,0.385 0.088,0.579 0.303,2.818 -0.568,6.429 -2.78,8.718 z"
   fill="#e52629" />
			<path
   id="path77"
   d="m 310.133,181.395 c -0.912,1.825 -0.173,4.042 1.652,4.955 0.076,0.038 0.153,0.068 0.23,0.101 2.211,-2.289 3.083,-5.899 2.779,-8.718 -0.023,-0.194 -0.056,-0.387 -0.088,-0.579 -1.12,0.137 -2.232,0.37 -3.32,0.712 -0.265,1.323 -0.764,2.553 -1.253,3.529 z"
   fill="#d31122" />
			<path
   id="path79"
   d="m 314.706,177.154 c 1.397,-0.169 2.806,-0.186 4.201,-0.039 0.105,-1.604 -0.02,-3.17 -0.397,-4.666 -0.464,-1.836 -1.271,-3.508 -2.398,-4.987 -1.712,0.66 -3.315,1.572 -4.756,2.698 1.665,1.995 2.912,4.471 3.35,6.994 z"
   fill="#ffffff" />
			<path
   id="path81"
   d="m 311.386,177.867 c 1.088,-0.343 2.2,-0.575 3.32,-0.712 -0.438,-2.523 -1.685,-5 -3.349,-6.993 -0.525,0.411 -1.029,0.847 -1.507,1.314 1.773,1.942 1.953,4.287 1.536,6.391 z"
   fill="#dcdcdc" />
			<path
   id="path83"
   d="m 287.726,174.295 -4.175,8.348 c -0.25,1.722 -0.256,3.472 -0.019,5.197 1.359,-2.678 2.836,-5.273 4.477,-7.746 -0.398,-1.909 -0.493,-3.868 -0.283,-5.799 z"
   fill="#9b1915" />
			<path
   id="path85"
   d="m 285.844,194.569 4.392,-8.78 c -1.071,-1.787 -1.812,-3.715 -2.227,-5.694 -1.64,2.473 -3.117,5.067 -4.477,7.746 0.323,2.336 1.09,4.625 2.312,6.728 z"
   fill="#d31122" />
			<path
   id="path87"
   d="m 299.921,167.218 c 0.256,-2.18 0.899,-4.321 1.929,-6.311 -1.243,0.103 -2.442,0.397 -3.608,0.884 -1.083,0.454 -2.236,0.956 -3.106,1.86 -1.27,2.91 -1.752,6.083 -1.446,9.198 1.872,-2.009 3.917,-3.886 6.185,-5.595 0.016,-0.014 0.031,-0.024 0.046,-0.036 z"
   fill="#e52629" />
			<path
   id="path89"
   d="m 295.484,175.306 c 1.515,-3.041 2.939,-4.893 4.31,-5.94 0,-0.718 0.044,-1.435 0.126,-2.148 -0.015,0.013 -0.03,0.022 -0.046,0.036 -2.269,1.708 -4.313,3.586 -6.185,5.595 0.141,1.422 0.446,2.834 0.917,4.202 z"
   fill="#d31122" />
			<path
   id="path91"
   d="m 274.397,210.089 c -0.931,-1.564 -1.631,-3.255 -2.068,-5.014 l -2.561,5.118 c -0.915,1.826 -0.174,4.041 1.651,4.956 0.311,0.156 0.635,0.26 0.96,0.322 0.683,-1.784 1.352,-3.579 2.018,-5.382 z"
   fill="#ffffff" />
			<path
   id="path93"
   d="m 276.375,213.498 0.218,-0.437 c -0.838,-0.919 -1.568,-1.917 -2.195,-2.973 -0.667,1.803 -1.335,3.598 -2.017,5.381 1.582,0.304 3.238,-0.458 3.994,-1.971 z"
   fill="#dcdcdc" />
			<path
   id="path95"
   d="m 278.585,198.999 c -0.514,-1.441 -0.846,-2.937 -0.99,-4.452 l -5.265,10.527 c 0.437,1.759 1.137,3.45 2.068,5.014 1.37,-3.699 2.732,-7.421 4.187,-11.089 z"
   fill="#9b1915" />
			<path
   id="path97"
   d="m 281.193,203.866 c -1.126,-1.503 -1.997,-3.145 -2.608,-4.867 -1.455,3.668 -2.817,7.389 -4.188,11.09 0.627,1.055 1.357,2.053 2.195,2.973 z"
   fill="#8c1812" />
			<path
   id="path99"
   d="m 295.136,163.65 c -2.315,1.838 -4.383,4.598 -6.262,8.352 l -1.148,2.294 c -0.211,1.931 -0.116,3.889 0.283,5.8 1.701,-2.561 3.578,-4.989 5.681,-7.247 -0.306,-3.116 0.177,-6.289 1.446,-9.199 z"
   fill="#ffffff" />
			<path
   id="path101"
   d="m 290.236,185.789 4.372,-8.74 c -0.472,-1.367 -0.777,-2.779 -0.917,-4.202 -2.103,2.259 -3.98,4.686 -5.681,7.247 0.414,1.98 1.155,3.908 2.226,5.695 z"
   fill="#dcdcdc" />
			<path
   id="path103"
   d="m 283.551,182.643 -5.957,11.904 c 0.144,1.515 0.476,3.011 0.99,4.452 1.511,-3.811 3.123,-7.56 4.948,-11.159 -0.237,-1.724 -0.231,-3.475 0.019,-5.197 z"
   fill="#ffffff" />
			<path
   id="path105"
   d="m 281.193,203.866 4.65,-9.297 c -1.222,-2.103 -1.989,-4.392 -2.311,-6.729 -1.825,3.599 -3.436,7.348 -4.948,11.159 0.612,1.722 1.483,3.364 2.609,4.867 z"
   fill="#dcdcdc" />
		</g>
		<g
   id="g159">
			<g
   id="g155">
				<path
   id="path109"
   d="m 243.416,197.37 c -5.384,3.454 -18.544,27.411 -1.205,28.988 5.712,0.52 9.85,-16.662 11.872,-21.607 z"
   fill="#592c16" />
				<path
   id="path111"
   d="m 237.599,167.304 c -3.198,-1.914 -7.654,-7.032 -12.003,-4.813 -13.344,6.811 12.616,21.525 17.883,22.29 l 5.271,-13.954 c -3.878,-0.147 -7.872,-1.561 -11.151,-3.523 z"
   fill="#592c16" />
				<path
   id="path113"
   d="m 285.302,171.252 c 3.571,-1.067 9.15,-4.931 12.819,-1.708 11.256,9.886 -17.527,17.756 -22.82,17.2 l -1.674,-14.822 c 3.796,0.813 8.014,0.425 11.675,-0.67 z"
   fill="#592c16" />
				<path
   id="path115"
   d="m 275.665,165.123 -25.985,-1.737 c 0,0 -30.566,43.066 9.735,47.072 39.32,3.908 16.25,-45.335 16.25,-45.335 z"
   fill="#854825" />
				<circle
   id="circle117"
   r="11"
   cy="128.718"
   cx="234.36301"
   fill="#592c16" />
				<circle
   id="circle119"
   r="11"
   cy="132.936"
   cx="292.28799"
   fill="#592c16" />
				<circle
   id="circle121"
   r="6.75"
   cy="128.996"
   cx="234.58"
   fill="#f39fa1" />
				<circle
   id="circle123"
   r="6.75"
   cy="132.936"
   cx="292.28699"
   fill="#f39fa1" />
				
					<ellipse
   id="ellipse125"
   ry="24.75"
   rx="33"
   cy="148.87399"
   cx="262.58099"
   fill="#854825"
   transform="matrix(0.9923,0.1241,-0.1241,0.9923,20.4992,-31.4276)" />
				<path
   id="path127"
   d="m 248.624,159.977 c -3.973,-2.2 -7.122,-5.305 -8.61,-9.31 -1.27,-3.417 -0.896,-8.829 1.09,-11.993 3.301,-5.263 10.466,-7.297 16.353,-8.447 10.792,-2.108 28.244,2.629 29.73,15.045 0.783,6.542 -3.038,12.646 -8.796,15.784 -7.777,4.238 -20.849,3.86 -29.767,-1.079 z"
   fill="#f39fa1"
   opacity="0.3" />
				<g
   id="g141">
					<path
   id="path129"
   d="m 250.694,144.524 c -0.802,-0.181 -1.619,0.336 -1.8,1.136 -0.026,0.116 -0.053,0.23 -0.079,0.346 -0.182,0.8 0.336,1.62 1.134,1.801 0.802,0.182 1.619,-0.336 1.802,-1.136 0.026,-0.115 0.052,-0.231 0.078,-0.346 0.183,-0.8 -0.337,-1.62 -1.135,-1.801 z"
   fill="#3e1e11" />
					<path
   id="path131"
   d="m 275.968,146.151 c -1.642,1.036 -0.037,3.582 1.605,2.547 1.643,-1.036 0.037,-3.583 -1.605,-2.547 z"
   fill="#3e1e11" />
					<g
   id="g135">
						<path
   id="path133"
   d="m 260.492,160.438 c -2.246,-0.91 -3.743,-2.521 -3.829,-2.613 -0.281,-0.307 -0.26,-0.781 0.047,-1.062 0.304,-0.282 0.778,-0.264 1.063,0.043 0.024,0.027 2.547,2.725 5.696,2.74 1.715,0.009 3.337,-0.79 4.822,-2.369 0.285,-0.303 0.761,-0.318 1.064,-0.032 0.302,0.284 0.317,0.761 0.032,1.063 -1.785,1.901 -3.784,2.858 -5.938,2.844 -1.075,-0.007 -2.074,-0.256 -2.957,-0.614 z"
   fill="#3e1e11" />
					</g>
					
						<ellipse
   id="ellipse137"
   ry="2.5079999"
   rx="3.888"
   cy="153.15601"
   cx="263.92499"
   fill="#3e1e11"
   transform="matrix(0.9999,0.0166,-0.0166,0.9999,2.5852,-4.3708)" />
					<path
   id="path139"
   d="m 265.645,151.399 c -0.82,-0.364 -1.632,-0.418 -2.483,-0.122 -0.918,0.318 -0.397,1.73 0.52,1.412 0.475,-0.166 0.876,-0.128 1.333,0.076 0.887,0.395 1.519,-0.971 0.63,-1.366 z"
   fill="#fef0f0" />
				</g>
				<path
   id="path143"
   d="M 257.838,204.725 C 246,203 245.056,188.899 248.5,183.25 c 5.274,-8.65 11.206,1.371 12,6.25 1.768,-2.181 5.016,-7.821 8.75,-7.25 8.257,1.263 2.973,18.652 0.25,21.5 -3.073,3.211 -8.955,1.369 -11.662,0.975 z"
   fill="#f39fa1"
   opacity="0.3" />
				<g
   id="g153">
					<g
   id="g149">
						<path
   id="path145"
   d="m 250.286,165.783 c -4.444,3.111 -4.939,10.997 -1.636,15.009 3.453,4.195 8.065,1.228 11.325,-2.357 l 1.034,-5.233 c -0.453,-5.276 -7.085,-9.966 -10.723,-7.419 z"
   fill="#d31122" />
						<path
   id="path147"
   d="m 276.695,169.065 c 3.61,4.128 2.138,11.913 -2.119,14.989 -4.451,3.216 -8.264,-0.814 -10.588,-5.107 l 0.281,-5.341 c 1.76,-5.014 9.47,-7.921 12.426,-4.541 z"
   fill="#d31122" />
					</g>
					<path
   id="path151"
   d="m 265.765,178.306 c -0.246,1.963 -2.036,3.355 -3.999,3.11 v 0 c -1.962,-0.246 -3.355,-2.036 -3.109,-3.999 l 0.667,-5.331 c 0.246,-1.963 2.035,-3.354 3.998,-3.109 v 0 c 1.963,0.245 3.355,2.035 3.109,3.998 z"
   fill="#e52629" />
				</g>
			</g>
			<path
   id="path157"
   d="m 262.541,173.973 c 1.594,0.631 3.706,-1.896 2.112,-3.51 -1.59,-1.61 -3.966,0.96 -3,2.672 0.248,0.44 0.557,0.707 0.888,0.838 z"
   fill="#ffffff" />
		</g>
		<g
   id="g247">
			<g
   id="g197">
				<path
   id="path161"
   d="m 184.106,133.927 2.454,7.69 c 0.572,-0.648 1.155,-1.287 1.736,-1.928 -0.669,-2.463 -1.324,-5.332 -2.161,-7.914 -0.679,0.713 -1.361,1.428 -2.029,2.152 z"
   fill="#056938" />
				<path
   id="path163"
   d="m 189.613,128.067 c -1.098,1.226 -2.285,2.46 -3.477,3.708 0.837,2.582 1.492,5.451 2.161,7.914 1.232,-1.362 2.474,-2.715 3.732,-4.054 z"
   fill="#48ae4d" />
				<path
   id="path165"
   d="m 181.451,124.723 -0.255,0.082 2.911,9.122 c 0.668,-0.724 1.35,-1.439 2.03,-2.152 -1.098,-3.379 -2.513,-6.249 -4.686,-7.052 z"
   fill="#dcdcdc" />
				<path
   id="path167"
   d="m 187.891,122.668 -6.439,2.055 c 2.173,0.802 3.588,3.673 4.685,7.051 1.191,-1.248 2.378,-2.481 3.477,-3.708 z"
   fill="#ffffff" />
				<path
   id="path169"
   d="m 207.273,183.42 -2.683,-8.413 c -1.362,1.116 -2.671,2.273 -3.913,3.467 0.915,2.913 1.864,5.809 2.829,8.7 z"
   fill="#e52629" />
				<path
   id="path171"
   d="m 201.675,188.996 1.831,-1.822 c -0.964,-2.891 -1.914,-5.787 -2.829,-8.7 -0.612,0.589 -1.213,1.184 -1.788,1.794 z"
   fill="#d31122" />
				<path
   id="path173"
   d="m 198.89,180.268 c 0.574,-0.61 1.176,-1.205 1.788,-1.794 -0.783,-2.494 -1.542,-5 -2.259,-7.521 -0.597,0.743 -1.205,1.454 -1.851,2.036 z"
   fill="#dcdcdc" />
				<path
   id="path175"
   d="m 204.59,175.007 -2.613,-8.186 c -1.281,1.096 -2.4,2.682 -3.559,4.131 0.717,2.522 1.476,5.028 2.259,7.521 1.242,-1.193 2.551,-2.35 3.913,-3.466 z"
   fill="#ffffff" />
				<path
   id="path177"
   d="m 201.977,166.821 -2.596,-8.137 c -1.145,1.025 -2.161,2.433 -3.198,3.76 0.687,2.861 1.435,5.697 2.235,8.508 1.159,-1.449 2.278,-3.035 3.559,-4.131 z"
   fill="#e52629" />
				<path
   id="path179"
   d="m 196.567,172.989 c 0.646,-0.583 1.254,-1.293 1.851,-2.036 -0.8,-2.811 -1.548,-5.646 -2.235,-8.508 -0.708,0.908 -1.422,1.78 -2.189,2.471 z"
   fill="#d31122" />
				<path
   id="path181"
   d="m 209.733,191.134 -2.46,-7.713 -3.768,3.753 c 0.597,1.791 1.202,3.581 1.808,5.371 z"
   fill="#ffffff" />
				<path
   id="path183"
   d="m 203.039,193.272 2.274,-0.727 c -0.606,-1.79 -1.211,-3.58 -1.808,-5.371 l -1.831,1.822 z"
   fill="#dcdcdc" />
				<path
   id="path185"
   d="m 194.147,154.122 c -0.892,0.972 -1.773,1.963 -2.654,2.963 l 2.501,7.83 c 0.768,-0.691 1.481,-1.563 2.189,-2.471 -0.433,-1.802 -1.728,-7.395 -2.036,-8.322 z"
   fill="#dcdcdc" />
				<path
   id="path187"
   d="m 196.183,162.444 c 1.037,-1.327 2.053,-2.735 3.198,-3.76 l -2.406,-7.543 c -0.955,0.968 -1.897,1.963 -2.828,2.98 0.308,0.928 1.603,6.521 2.036,8.323 z"
   fill="#ffffff" />
				<path
   id="path189"
   d="m 188.297,139.689 c -0.581,0.641 -1.164,1.279 -1.736,1.928 l 2.268,7.112 c 0.735,-0.665 1.468,-1.34 2.196,-2.016 -0.499,-1.059 -2.33,-5.553 -2.728,-7.024 z"
   fill="#dcdcdc" />
				<path
   id="path191"
   d="m 192.029,135.635 c -1.258,1.34 -2.501,2.693 -3.732,4.054 0.399,1.471 2.229,5.965 2.728,7.024 1.176,-1.088 2.342,-2.186 3.483,-3.306 z"
   fill="#ffffff" />
				<path
   id="path193"
   d="m 188.828,148.729 2.665,8.356 c 0.881,-1 1.762,-1.991 2.654,-2.963 -0.87,-2.625 -1.997,-5.015 -3.123,-7.409 -0.728,0.676 -1.46,1.351 -2.196,2.016 z"
   fill="#056938" />
				<path
   id="path195"
   d="m 194.147,154.122 c 0.931,-1.017 1.873,-2.012 2.828,-2.98 l -2.467,-7.734 c -1.141,1.12 -2.307,2.218 -3.483,3.306 1.126,2.393 2.252,4.784 3.122,7.408 z"
   fill="#48ae4d" />
			</g>
			<path
   id="path199"
   d="m 153.866,108.991 c 1.2,5.125 3,8.754 5.094,11.271 0.386,-1.496 1.895,-2.47 3.961,-3.171 -1.21,-2.343 -2.257,-4.771 -3.12,-7.247 -0.764,0.067 -1.53,0.104 -2.294,0.105 -1.388,0.064 -2.598,-0.303 -3.641,-0.958 z"
   fill="#854825" />
			<path
   id="path201"
   d="m 177.359,114.299 c -0.667,-2.482 -1.445,-5.332 -2.061,-8.264 -5.004,1.473 -10.249,3.351 -15.498,3.81 0.863,2.476 1.909,4.904 3.12,7.247 4.072,-1.382 10.311,-1.692 14.439,-2.793 z"
   fill="#592c16" />
			<path
   id="path203"
   d="m 163.394,123.901 c 6.844,3.553 14.464,-0.216 15.24,-1.813 0.505,-1.039 -0.253,-3.981 -1.275,-7.789 -4.128,1.101 -10.368,1.412 -14.439,2.792 0.019,0.038 0.038,0.074 0.057,0.113 1.03,1.922 0.952,4.282 0.417,6.697 z"
   fill="#854825" />
			<path
   id="path205"
   d="m 158.959,120.262 c 1.379,1.661 2.888,2.835 4.435,3.639 0.535,-2.415 0.613,-4.775 -0.417,-6.697 -0.018,-0.039 -0.038,-0.075 -0.057,-0.113 -2.066,0.701 -3.575,1.675 -3.961,3.171 z"
   fill="#a15a35" />
			<path
   id="path207"
   d="m 175.298,106.035 c -0.589,-2.803 -1.027,-5.681 -1.075,-8.383 -5.649,-1.983 -11,-5.014 -17.213,-4.712 -0.158,5.571 0.853,11.354 2.79,16.905 5.25,-0.459 10.494,-2.337 15.498,-3.81 z"
   fill="#854825" />
			<path
   id="path209"
   d="m 152.516,94.188 c -0.138,2.433 -0.085,4.998 0.191,7.696 0.271,2.64 0.665,4.998 1.159,7.107 1.043,0.656 2.254,1.023 3.641,0.959 0.764,-0.001 1.53,-0.038 2.294,-0.105 -1.937,-5.551 -2.948,-11.334 -2.79,-16.905 -0.117,0.005 -0.233,0.004 -0.352,0.013 -1.55,0.071 -2.964,0.52 -4.143,1.235 z"
   fill="#a15a35" />
			<path
   id="path211"
   d="m 157.011,92.939 c 6.213,-0.301 11.564,2.729 17.213,4.712 -0.028,-1.523 0.069,-2.989 0.332,-4.355 0.263,-1.359 0.638,-2.593 1.09,-3.727 -4.657,-0.75 -8.517,-4.986 -13.222,-6.947 -1.211,-0.439 -2.125,-1.2 -2.778,-2.147 -1.671,3.881 -2.511,8.107 -2.635,12.464 z"
   fill="#592c16" />
			<path
   id="path213"
   d="m 158.42,75.309 c -3.211,5.011 -5.48,11.303 -5.904,18.878 1.18,-0.715 2.594,-1.163 4.143,-1.235 0.119,-0.01 0.236,-0.008 0.352,-0.013 0.124,-4.357 0.965,-8.584 2.635,-12.463 -0.996,-1.445 -1.376,-3.324 -1.226,-5.167 z"
   fill="#854825" />
			<path
   id="path215"
   d="m 159.646,80.476 c 0.653,0.946 1.567,1.708 2.778,2.147 4.705,1.961 8.565,6.197 13.222,6.947 1.93,-4.84 5.346,-7.722 8.309,-9.396 -2.184,-5.776 -4.319,-12.598 -10.141,-14.522 -0.551,0.296 -1.074,0.605 -1.564,0.92 -6.129,3.511 -10.215,8.355 -12.604,13.904 z"
   fill="#854825" />
			<path
   id="path217"
   d="m 170.501,65.119 c -0.86,-0.005 -1.687,0.081 -2.481,0.243 -3.505,2.397 -6.888,5.713 -9.6,9.948 -0.15,1.843 0.23,3.721 1.226,5.167 2.389,-5.549 6.475,-10.393 12.604,-13.905 0.489,-0.314 1.013,-0.624 1.564,-0.92 -0.993,-0.328 -2.089,-0.519 -3.313,-0.533 z"
   fill="#a15a35" />
			<path
   id="path219"
   d="m 173.813,65.651 c 5.822,1.924 7.957,8.746 10.141,14.522 3.014,-1.706 5.556,-2.166 5.556,-2.166 0,0 3.764,-8.417 -1.236,-14.095 -4.206,-2.193 -10.17,-0.579 -14.461,1.739 z"
   fill="#592c16" />
			<path
   id="path221"
   d="m 168.02,65.362 c 0.795,-0.162 1.622,-0.247 2.481,-0.243 1.224,0.014 2.319,0.205 3.312,0.532 4.291,-2.318 10.255,-3.933 14.461,-1.739 -0.658,-0.749 -1.463,-1.45 -2.455,-2.077 -3.68,-2.328 -10.969,-1.146 -17.799,3.527 z"
   fill="#854825" />
			<g
   id="g245">
				<path
   id="path223"
   d="m 174.875,101.952 c -2.319,0.808 4.409,4.445 7.298,5.65 2.107,0.827 5.043,-0.455 6.773,1.152 4.965,3.924 4.061,11.418 4.868,17.578 4.746,-2.452 8.227,-5.354 9.873,-6.857 -1.879,-5.758 -7.507,-10.73 -6.272,-16.27 0.353,-2.724 6.58,-1.641 9.488,-4.864 -3.057,-2.057 -5.657,-3.165 -5.657,-3.165 -7.239,4.602 -18.491,3.643 -26.371,6.776 z"
   fill="#f6a02b" />
				<path
   id="path225"
   d="m 171.505,89.042 c 0.817,-2.104 -6.171,-5.304 -5.961,-9.582 -0.269,-1.799 2.173,-0.607 3.599,-0.538 2.816,0.853 6.206,4.592 7.292,4.288 10.568,-5.971 25.897,-8.842 35.304,-2.475 -8.75,-13.522 -33.536,0.045 -33.536,0.045 -10.95,-5.446 -15.905,-3.363 -15.905,-3.363 0.575,6.501 7.211,14.109 7.211,14.109 -4.743,18.117 1.291,38.177 1.291,38.177 0.857,0.204 1.702,0.355 2.542,0.479 -1.908,-13.59 -6.994,-26.767 -1.837,-41.14 z"
   fill="#f6a02b" />
				<path
   id="path227"
   d="m 193.814,126.332 c -0.808,-6.161 0.097,-13.654 -4.868,-17.578 -1.73,-1.607 -4.666,-0.325 -6.773,-1.152 -2.889,-1.205 -9.617,-4.842 -7.298,-5.65 7.88,-3.133 19.132,-2.174 26.371,-6.775 0,0 2.6,1.107 5.657,3.165 -2.909,3.223 -9.136,2.14 -9.488,4.864 -1.235,5.541 4.393,10.513 6.272,16.27 0.691,-0.633 1.058,-1.019 1.058,-1.019 l -7.188,-14.826 c 0,0 22.848,-4.649 15.176,-21.102 -0.301,-0.646 -0.635,-1.241 -0.993,-1.794 -9.407,-6.366 -24.736,-3.496 -35.304,2.475 -1.086,0.304 -4.476,-3.435 -7.292,-4.288 -1.426,-0.069 -3.868,-1.26 -3.599,0.538 -0.21,4.278 6.778,7.478 5.961,9.582 -5.157,14.373 -0.071,27.55 1.838,41.139 7.913,1.172 15.025,-1.035 20.47,-3.849 z"
   fill="#f8af48" />
				<path
   id="path229"
   d="m 196.424,94.613 c 3.968,5.146 11.416,6.054 16.639,2.027 2.895,-2.232 4.495,-5.511 4.671,-8.868 -3.439,-7.198 -10.211,-10.25 -17.799,-10.601 -0.423,0.251 -0.839,0.527 -1.24,0.836 -5.222,4.026 -6.239,11.461 -2.271,16.606 z"
   fill="#f2ebc9" />
				<path
   id="path231"
   d="m 217.733,87.772 c 0.144,-2.698 -0.633,-5.445 -2.401,-7.738 -3.662,-4.751 -10.292,-5.884 -15.398,-2.863 7.588,0.352 14.361,3.403 17.799,10.601 z"
   fill="#d1c8a3" />
				<circle
   id="circle233"
   r="1.375"
   cy="83.290001"
   cx="203.48199"
   fill="#854825" />
				<path
   id="path235"
   d="m 184,104 c 0,0 7.472,6.644 12.36,-1.09 0,0 -6.819,2.706 -12.36,1.09 z"
   fill="#f4942b" />
				<g
   id="g243">
					<path
   id="path237"
   d="m 187.635,85.494 c 0.884,0.974 0.811,2.48 -0.163,3.363 v 0 c -0.974,0.882 -2.483,0.81 -3.365,-0.165 v 0 c -0.883,-0.974 -0.806,-2.482 0.167,-3.365 v 0 c 0.973,-0.881 2.479,-0.808 3.361,0.167 z"
   fill="#3e1e11" />
					<circle
   id="circle239"
   r="1.235"
   cy="87.061996"
   cx="185.905"
   fill="#030505" />
					<circle
   id="circle241"
   r="0.71700001"
   cy="87.232002"
   cx="184.506"
   fill="#ffffff" />
				</g>
			</g>
		</g>
		<g
   id="g354">
			
				<ellipse
   id="ellipse249"
   ry="5.1100001"
   rx="32.375"
   cy="176.778"
   cx="182.159"
   fill="#fdfdfc"
   clip-rule="evenodd"
   fill-rule="evenodd"
   transform="matrix(0.9435,0.3314,-0.3314,0.9435,68.8741,-50.3758)" />
			<path
   id="path251"
   d="m 156.845,176.166 -10.355,26.471 7.172,2.787 8.595,-26.633 c -1.383,-0.407 -4.906,-2.325 -5.412,-2.625 z"
   fill="#48ae4d"
   clip-rule="evenodd"
   fill-rule="evenodd" />
			<path
   id="path253"
   d="m 162.257,178.792 2.168,-6.717 -5.034,-2.418 -2.546,6.509 c 0.506,0.3 3.52,2.092 5.412,2.626 z"
   fill="#d31122"
   clip-rule="evenodd"
   fill-rule="evenodd" />
			<path
   id="path255"
   d="m 211.858,182.505 c 1.374,0.754 2.554,1.736 3.52,2.973 0.23,0.294 0.287,0.583 0.15,0.957 -0.837,2.304 -1.652,4.617 -2.474,6.926 -0.825,0.066 -1.65,0.133 -2.476,0.199 -0.225,-0.042 -0.45,-0.104 -0.677,-0.124 -2.81,-0.254 -5.584,-0.73 -8.326,-1.389 -1.088,-0.261 -1.082,-0.28 -0.927,0.808 0.718,5.067 1.4,10.14 2.172,15.2 0.243,1.585 0.292,3.207 0.783,4.751 -0.004,0.11 -0.009,0.22 -0.013,0.33 0.009,0.084 0.017,0.167 0.027,0.25 0.239,1.599 0.476,3.198 0.715,4.796 -0.131,0.409 -0.257,0.821 -0.397,1.228 -0.37,1.07 -0.585,1.188 -1.834,1.028 -0.318,-2.218 -0.634,-4.438 -0.953,-6.656 -0.88,-6.121 -1.76,-12.241 -2.643,-18.363 -0.031,-0.218 0.021,-0.51 -0.232,-0.608 -0.271,-0.104 -0.397,0.172 -0.546,0.329 -2.339,2.461 -4.674,4.925 -7.01,7.389 -3.958,4.182 -7.918,8.365 -11.876,12.547 -0.485,-0.146 -0.97,-0.291 -1.453,-0.437 -0.597,-0.208 -1.181,-0.475 -1.795,-0.613 -0.711,-0.157 -0.945,-0.537 -1.016,-1.247 -0.734,-7.159 -1.501,-14.317 -2.264,-21.474 -0.17,-1.589 -0.365,-3.175 -0.574,-4.985 -6.445,6.51 -12.735,12.862 -19.025,19.215 -1.229,-0.567 -2.461,-1.126 -3.685,-1.704 -0.265,-0.125 -0.65,-0.173 -0.591,-0.624 -0.086,-1.774 -0.152,-3.55 -0.262,-5.322 -0.328,-5.297 -0.673,-10.593 -1.014,-15.89 -0.164,-2.549 -0.231,-5.106 -0.521,-7.646 0.309,-1.652 0.893,-3.208 1.629,-4.712 0.443,0.52 0.928,0.991 1.594,1.39 0.266,-0.757 0.513,-1.457 0.758,-2.158 0.683,-1.955 0.683,-1.955 -1.088,-3.137 0.116,-0.357 0.227,-0.715 0.35,-1.068 0.688,-1.963 0.735,-2.002 2.875,-2.037 3.126,-0.052 6.199,0.391 9.251,1.024 10.706,2.223 20.985,5.817 31.176,9.696 0.159,0.062 0.307,0.153 0.46,0.23 -0.415,1.13 -0.848,2.255 -1.233,3.395 -0.167,0.496 -0.399,0.617 -0.889,0.425 -0.693,-0.271 -1.408,-0.483 -2.114,-0.719 -11.541,-4.127 -23.082,-8.251 -35.229,-10.414 -0.012,0.336 0.283,0.374 0.374,0.56 -0.814,2.262 -1.627,4.525 -2.44,6.788 -1.177,-0.598 -2.226,-1.404 -3.382,-2.185 0.007,0.283 0,0.455 0.016,0.626 0.499,5.572 0.989,11.145 1.51,16.715 0.216,2.309 0.27,4.635 0.69,6.923 -0.006,0.086 -0.024,0.172 -0.017,0.256 0.201,2.246 0.404,4.492 0.624,6.93 0.742,-0.751 1.388,-1.404 2.035,-2.058 0.196,-0.164 0.407,-0.315 0.587,-0.495 2.742,-2.75 5.481,-5.501 8.218,-8.255 3.098,-3.12 6.194,-6.244 9.29,-9.367 1.008,-0.089 1.815,0.542 2.737,0.763 0.01,0.455 -0.016,0.913 0.034,1.364 0.747,6.688 1.505,13.375 2.256,20.063 0.284,2.54 0.556,5.084 0.843,7.716 0.26,-0.231 0.46,-0.387 0.634,-0.567 2.476,-2.565 4.951,-5.133 7.423,-7.703 2.472,-2.57 4.939,-5.145 7.409,-7.718 1.577,-1.605 3.14,-3.226 4.739,-4.81 0.518,-0.513 0.306,-0.673 -0.248,-0.809 -0.834,-0.205 -1.663,-0.429 -2.493,-0.645 -0.101,-0.033 -7.912,-1.609 -15.035,-4.751 0.82,-1.374 1.176,-3.112 1.756,-4.579 0.231,-0.584 0.51,-1.168 0.437,-1.829 0.039,-0.024 0.077,-0.024 0.115,-0.003 0.721,0.269 8.52,2.77 10.457,3.33 5.756,1.665 11.513,3.34 17.504,3.97 0.276,0.029 0.555,0.041 0.899,0.064 -0.216,-0.201 -0.383,-0.355 -0.549,-0.509 0.503,-1.15 0.914,-2.335 1.254,-3.544 z m -13.393,5.448 c -0.019,0.054 -0.039,0.107 -0.057,0.163 -0.658,1.897 -0.658,1.898 1.299,2.35 1.719,0.397 1.719,0.397 2.299,-1.257 0.057,-0.162 0.113,-0.326 0.169,-0.489 0.549,-1.581 0.549,-1.581 -1.036,-2.093 -1.988,-0.644 -1.988,-0.644 -2.674,1.326 z m -16.043,-16.128 c -0.095,0.27 -0.165,0.554 -0.291,0.809 -0.283,0.572 -0.135,0.841 0.487,1.056 2.1,0.726 2.092,0.751 2.817,-1.324 0.076,-0.216 0.147,-0.436 0.225,-0.651 0.109,-0.296 0.029,-0.497 -0.278,-0.602 -0.272,-0.093 -0.539,-0.196 -0.81,-0.291 -1.604,-0.563 -1.604,-0.563 -2.15,1.003 z m -18.973,-5.899 c -0.492,1.408 -0.492,1.408 0.914,1.874 0.136,0.045 0.271,0.092 0.408,0.135 1.064,0.34 1.081,0.331 1.458,-0.739 0.038,-0.108 0.076,-0.217 0.114,-0.324 0.56,-1.591 0.56,-1.591 -1.102,-1.955 -1.336,-0.294 -1.336,-0.294 -1.792,1.009 z"
   fill="#e52629"
   clip-rule="evenodd"
   fill-rule="evenodd" />
			<path
   id="path257"
   d="m 152.713,205.537 c 6.29,-6.353 12.58,-12.705 19.025,-19.215 0.209,1.81 0.404,3.396 0.574,4.985 0.763,7.157 1.53,14.315 2.264,21.474 0.072,0.71 0.306,1.09 1.016,1.247 0.614,0.138 1.198,0.405 1.795,0.613 -1.956,-0.389 -3.757,-1.249 -5.61,-1.925 -3.247,-1.182 -6.496,-2.362 -9.763,-3.485 -3.161,-1.086 -6.189,-2.492 -9.301,-3.694 z"
   fill="#f59d48"
   clip-rule="evenodd"
   fill-rule="evenodd" />
			<path
   id="path259"
   d="m 190.717,202.53 c 2.336,-2.464 4.67,-4.928 7.01,-7.389 0.149,-0.157 0.275,-0.434 0.546,-0.329 0.253,0.098 0.201,0.39 0.232,0.608 0.884,6.121 1.764,12.242 2.643,18.363 0.319,2.218 0.635,4.438 0.953,6.656 -2.942,-0.033 -5.806,-0.588 -8.651,-1.277 -2.008,-0.486 -4.022,-0.948 -6.027,-1.445 -0.556,-0.138 -1.09,-0.362 -1.634,-0.547 1.62,-4.607 3.24,-9.213 4.859,-13.822 0.094,-0.264 0.26,-0.527 0.069,-0.818 z"
   fill="#35a8c2"
   clip-rule="evenodd"
   fill-rule="evenodd" />
			<path
   id="path261"
   d="m 146.641,174.351 c 0.291,2.541 0.357,5.097 0.521,7.646 0.341,5.297 0.686,10.593 1.014,15.89 0.11,1.772 0.176,3.548 0.262,5.322 -0.189,0.141 -0.282,0.345 -0.636,0.141 -1.157,-0.667 -2.369,-1.235 -3.55,-1.862 -1.908,-1.012 -3.777,-2.079 -5.346,-3.602 -0.391,-0.379 -0.468,-0.733 -0.294,-1.225 2.547,-7.225 5.086,-14.451 7.629,-21.676 0.084,-0.238 0.122,-0.514 0.4,-0.634 z"
   fill="#fac90b"
   clip-rule="evenodd"
   fill-rule="evenodd" />
			<path
   id="path263"
   d="m 171.686,182.702 c -3.096,3.123 -6.192,6.247 -9.29,9.367 -2.737,2.755 -5.476,5.506 -8.218,8.255 -0.18,0.18 -0.391,0.331 -0.587,0.495 0.436,-1.309 0.856,-2.622 1.311,-3.923 2.082,-5.949 4.172,-11.894 6.263,-17.84 0.095,-0.27 0.105,-0.267 0.213,-0.533 0.232,0.162 0.485,0.153 0.786,0.245 2.95,0.907 5.648,2.452 8.58,3.407 0.337,0.11 0.761,0.119 0.942,0.527 z"
   fill="#009245"
   clip-rule="evenodd"
   fill-rule="evenodd" />
			<path
   id="path265"
   d="m 171.686,182.702 c -0.182,-0.408 -0.605,-0.418 -0.942,-0.527 -2.932,-0.955 -9.134,-3.491 -9.365,-3.653 0.67,-1.928 1.464,-4.119 2.111,-6.055 0.183,-0.548 0.411,-0.64 0.935,-0.392 4.398,2.071 8.926,3.825 13.493,5.482 1.431,0.519 2.841,1.091 4.26,1.639 0.073,0.662 -0.206,1.246 -0.437,1.83 -0.58,1.467 -0.936,3.205 -1.755,4.579 -1.874,-0.659 -3.689,-1.481 -5.563,-2.141 -0.922,-0.219 -1.729,-0.851 -2.737,-0.762 z m 4.586,-2.171 c 0.191,-0.544 0.366,-1.094 0.579,-1.63 0.166,-0.42 0.042,-0.634 -0.379,-0.769 -0.769,-0.247 -1.531,-0.515 -2.285,-0.802 -0.416,-0.159 -0.634,-0.061 -0.774,0.366 -0.288,0.876 -0.625,1.736 -0.915,2.612 -0.458,1.38 -0.591,1.144 0.802,1.642 2.208,0.791 2.21,0.785 2.972,-1.419 z"
   fill="#e52629"
   clip-rule="evenodd"
   fill-rule="evenodd" />
			<path
   id="path267"
   d="m 150.949,195.691 c -0.419,-2.289 -0.474,-4.614 -0.69,-6.923 -0.521,-5.57 -1.01,-11.142 -1.51,-16.715 -0.016,-0.17 -0.009,-0.342 -0.016,-0.626 1.155,0.781 2.204,1.587 3.381,2.185 1.758,1.16 3.601,2.159 5.569,2.923 -2.244,6.385 -4.489,12.77 -6.734,19.156 z"
   fill="#48ae4d"
   clip-rule="evenodd"
   fill-rule="evenodd" />
			<path
   id="path269"
   d="m 190.717,202.53 c 0.191,0.291 0.025,0.554 -0.068,0.818 -1.619,4.608 -3.239,9.214 -4.859,13.822 -2.361,-0.551 -4.695,-1.191 -6.949,-2.092 3.958,-4.182 7.917,-8.366 11.876,-12.548 z"
   fill="#2e96a7"
   clip-rule="evenodd"
   fill-rule="evenodd" />
			<path
   id="path271"
   d="m 203.591,213.136 c 0.004,-0.109 0.009,-0.219 0.014,-0.329 0.292,-0.035 0.336,-0.28 0.411,-0.493 2.189,-6.251 4.375,-12.502 6.562,-18.754 0.826,-0.067 1.65,-0.134 2.476,-0.199 -2.907,8.274 -5.814,16.547 -8.721,24.821 -0.239,-1.598 -0.476,-3.197 -0.715,-4.796 -0.009,-0.083 -0.018,-0.167 -0.027,-0.25 z"
   fill="#fac90b"
   clip-rule="evenodd"
   fill-rule="evenodd" />
			<path
   id="path273"
   d="m 157.684,176.535 c -1.968,-0.763 -3.811,-1.762 -5.569,-2.923 0.813,-2.263 1.627,-4.526 2.441,-6.788 1.609,0.951 3.199,1.935 4.835,2.833 0.511,0.281 0.547,0.523 0.37,1.008 -0.71,1.95 -1.388,3.912 -2.077,5.87 z"
   fill="#d31122"
   clip-rule="evenodd"
   fill-rule="evenodd" />
			<path
   id="path275"
   d="m 211.858,182.505 c -0.868,-0.753 -7.707,-5.042 -18.211,-8.927 -0.415,1.13 -0.848,2.255 -1.233,3.395 -0.167,0.496 -0.399,0.617 -0.889,0.425 -0.693,-0.271 -0.425,-0.004 0.438,0.301 2.414,0.854 9.742,3.99 11.045,4.572 0.097,0.043 6.601,3.186 7.597,3.779 0.502,-1.151 0.913,-2.336 1.253,-3.545 z"
   fill="#ec8007"
   clip-rule="evenodd"
   fill-rule="evenodd" />
			<path
   id="path277"
   d="m 150.622,168.87 c 0.683,-1.955 0.683,-1.955 -1.088,-3.137 -0.119,0.351 -0.271,0.695 -0.342,1.057 -0.002,0.012 -0.008,0.033 -0.017,0.062 0.358,0.033 0.636,0.528 0.953,0.376 -0.066,0.71 0.194,1.535 -0.41,1.691 -0.446,0.056 -0.89,0.111 -1.248,0.02 -0.097,0.302 -0.172,0.558 -0.2,0.701 0.443,0.52 0.928,0.991 1.594,1.39 0.266,-0.759 0.513,-1.458 0.758,-2.16 z"
   fill="#fac90b"
   clip-rule="evenodd"
   fill-rule="evenodd" />
			<path
   id="path279"
   d="m 150.128,167.228 c -0.38,-0.632 -0.811,-0.541 -0.953,-0.376 -0.087,0.287 -0.463,1.332 -0.706,2.087 0.152,0.328 0.551,0.461 0.997,0.405 0.605,-0.156 0.962,-1.396 0.662,-2.116 z"
   fill="#fdfdfc"
   clip-rule="evenodd"
   fill-rule="evenodd" />
			<path
   id="path281"
   d="m 174.423,183.465 c 12.301,4.594 18.423,6.481 19.801,6.63 0.097,0.034 0.195,0.069 0.293,0.103 0.038,0.118 0.106,0.135 0.2,0.057 0.101,0.034 0.202,0.068 0.303,0.102 0.105,0.356 -0.042,0.673 -0.156,0.997 -0.616,1.755 -1.228,3.511 -1.842,5.267 -2.469,2.572 -4.937,5.148 -7.409,7.718 -2.472,2.57 -4.947,5.138 -7.423,7.703 -0.174,0.18 -0.374,0.335 -0.634,0.567 -0.287,-2.632 -0.559,-5.176 -0.843,-7.716 -0.751,-6.688 -1.51,-13.374 -2.256,-20.063 -0.05,-0.452 -0.024,-0.91 -0.034,-1.365 z"
   fill="#fac90b"
   clip-rule="evenodd"
   fill-rule="evenodd" />
			<path
   id="path283"
   d="m 210.578,193.56 c -2.188,6.251 -4.374,12.503 -6.562,18.754 -0.075,0.212 -0.119,0.458 -0.411,0.493 -0.492,-1.545 -0.542,-3.167 -0.784,-4.752 -0.772,-5.06 -1.455,-10.132 -2.172,-15.2 -0.155,-1.087 -0.161,-1.069 0.927,-0.808 2.741,0.659 5.516,1.135 8.326,1.389 0.226,0.02 0.451,0.082 0.676,0.124 z"
   fill="#056938"
   clip-rule="evenodd"
   fill-rule="evenodd" />
			<path
   id="path285"
   d="m 198.464,187.952 c 0.687,-1.97 0.687,-1.97 2.675,-1.326 1.585,0.512 1.585,0.512 1.036,2.093 -0.056,0.162 -0.113,0.326 -0.169,0.489 -0.58,1.654 -0.58,1.654 -2.299,1.257 -1.957,-0.451 -1.957,-0.452 -1.299,-2.35 0.018,-0.055 0.038,-0.108 0.056,-0.163 z m 2.931,1.034 c 0.246,-0.64 -0.056,-1.19 -0.819,-1.493 -0.624,-0.248 -1.195,0.021 -1.486,0.701 -0.189,0.439 0.186,1.423 0.592,1.551 0.626,0.198 1.493,-0.187 1.713,-0.759 z"
   fill="#e52629"
   clip-rule="evenodd"
   fill-rule="evenodd" />
			<path
   id="path287"
   d="m 193.023,196.621 c 0.613,-1.756 1.225,-3.512 1.842,-5.267 0.114,-0.324 0.261,-0.641 0.156,-0.997 0.831,0.216 1.66,0.44 2.493,0.645 0.554,0.136 0.766,0.296 0.248,0.809 -1.599,1.584 -3.162,3.204 -4.739,4.81 z"
   fill="#f9bc11"
   clip-rule="evenodd"
   fill-rule="evenodd" />
			<path
   id="path289"
   d="m 182.422,171.825 c 0.546,-1.566 0.546,-1.566 2.15,-1.003 0.271,0.095 0.538,0.197 0.81,0.291 0.307,0.105 0.387,0.306 0.278,0.602 -0.079,0.215 -0.149,0.435 -0.225,0.651 -0.725,2.075 -0.717,2.05 -2.817,1.324 -0.622,-0.215 -0.77,-0.484 -0.487,-1.056 0.127,-0.255 0.196,-0.539 0.291,-0.809 z m 2.015,0.976 c 0.478,-0.751 -0.126,-1.023 -0.45,-1.264 -0.424,-0.312 -0.678,0.301 -0.794,0.489 -0.203,0.33 -0.182,0.83 0.307,1.094 0.529,0.286 0.792,-0.01 0.937,-0.319 z"
   fill="#e52629"
   clip-rule="evenodd"
   fill-rule="evenodd" />
			<path
   id="path291"
   d="m 163.449,165.926 c 0.456,-1.303 0.456,-1.303 1.792,-1.01 1.662,0.365 1.662,0.365 1.102,1.955 -0.038,0.108 -0.076,0.217 -0.114,0.324 -0.377,1.071 -0.394,1.079 -1.458,0.739 -0.137,-0.043 -0.272,-0.091 -0.408,-0.135 -1.406,-0.466 -1.406,-0.466 -0.914,-1.873 z m 0.456,0.219 c -0.197,0.566 0.17,1.273 0.807,1.408 0.638,0.135 0.925,-0.393 1.178,-0.832 0.212,-0.368 -0.225,-1.338 -0.589,-1.456 -0.394,-0.127 -1.229,0.399 -1.396,0.88 z"
   fill="#e52629"
   clip-rule="evenodd"
   fill-rule="evenodd" />
			<path
   id="path293"
   d="m 194.718,190.255 c -0.095,0.077 -0.162,0.06 -0.2,-0.057 0.066,0.02 0.133,0.038 0.2,0.057 z"
   fill="#ec8007"
   clip-rule="evenodd"
   fill-rule="evenodd" />
			<path
   id="path295"
   d="m 203.591,213.136 c 0.009,0.083 0.018,0.167 0.027,0.25 -0.01,-0.083 -0.019,-0.166 -0.027,-0.25 z"
   fill="#ec8007"
   clip-rule="evenodd"
   fill-rule="evenodd" />
			<path
   id="path297"
   d="m 176.272,180.531 c -0.761,2.204 -0.764,2.21 -2.972,1.419 -1.394,-0.499 -1.261,-0.262 -0.802,-1.642 0.29,-0.875 0.627,-1.735 0.915,-2.612 0.14,-0.427 0.359,-0.525 0.774,-0.366 0.754,0.288 1.516,0.556 2.285,0.802 0.422,0.135 0.545,0.348 0.379,0.769 -0.214,0.536 -0.388,1.086 -0.579,1.63 z m -2.08,0.651 c 0.821,0.273 1.338,-0.019 1.634,-0.924 0.229,-0.704 -0.193,-1.495 -0.922,-1.729 -0.425,-0.137 -1.513,0.419 -1.667,0.852 -0.255,0.712 0.187,1.544 0.955,1.801 z"
   fill="#e52629"
   clip-rule="evenodd"
   fill-rule="evenodd" />
			<path
   id="path299"
   d="m 203.992,180.494 c -0.456,1.292 -0.456,1.292 -1.668,0.688 -1.58,-0.789 -1.58,-0.789 -0.989,-2.45 0.415,-1.169 0.529,-1.207 1.614,-0.542 0.098,0.06 0.195,0.122 0.293,0.181 1.238,0.739 1.238,0.739 0.75,2.123 z m -2.173,-1.177 c -0.261,0.712 -0.201,1.208 0.459,1.448 0.679,0.247 1.035,-0.213 1.251,-0.719 0.236,-0.552 -0.023,-1.009 -0.564,-1.229 -0.607,-0.248 -0.968,0.082 -1.146,0.5 z"
   fill="#fac90b"
   clip-rule="evenodd"
   fill-rule="evenodd" />
			<path
   id="path301"
   d="m 201.395,188.986 c -0.221,0.573 -1.088,0.957 -1.713,0.759 -0.405,-0.128 -0.78,-1.112 -0.592,-1.551 0.292,-0.68 0.862,-0.949 1.486,-0.701 0.763,0.302 1.065,0.853 0.819,1.493 z"
   fill="#fac90b"
   clip-rule="evenodd"
   fill-rule="evenodd" />
			<path
   id="path303"
   d="m 184.437,172.801 c -0.146,0.309 -0.408,0.605 -0.937,0.319 -0.489,-0.264 -0.51,-0.764 -0.307,-1.094 0.115,-0.188 0.37,-0.801 0.794,-0.489 0.324,0.241 0.928,0.513 0.45,1.264 z"
   fill="#fdfdfc"
   clip-rule="evenodd"
   fill-rule="evenodd" />
			<path
   id="path305"
   d="m 163.905,166.145 c 0.167,-0.48 1.002,-1.007 1.396,-0.879 0.364,0.117 0.801,1.087 0.589,1.456 -0.253,0.439 -0.54,0.967 -1.178,0.832 -0.637,-0.137 -1.005,-0.844 -0.807,-1.409 z"
   fill="#fac90b"
   clip-rule="evenodd"
   fill-rule="evenodd" />
			<g
   id="g311">
				<path
   id="path307"
   d="m 212.107,190.854 c 0.686,-1.955 0.686,-1.955 1.789,-2.104 0.803,-0.109 0.803,-0.109 0.308,1.307 -0.201,0.571 -0.424,1.138 -0.597,1.715 -0.19,0.639 -0.423,0.859 -0.737,0.826 -0.117,-0.012 -0.243,0.012 -0.367,0.024 -1.053,0.102 -1.053,0.102 -0.396,-1.768 z m 1.545,0.048 c 0.264,-0.755 0.207,-1.328 -0.143,-1.461 -0.335,-0.127 -0.753,0.325 -1.019,1.099 -0.199,0.58 -0.139,1.336 0.112,1.415 0.315,0.101 0.829,-0.414 1.05,-1.053 z"
   fill="#fac90b"
   clip-rule="evenodd"
   fill-rule="evenodd" />
				<path
   id="path309"
   d="m 213.652,190.902 c -0.222,0.639 -0.735,1.153 -1.05,1.053 -0.251,-0.079 -0.311,-0.835 -0.112,-1.415 0.266,-0.773 0.684,-1.225 1.019,-1.099 0.351,0.134 0.407,0.706 0.143,1.461 z"
   fill="#fdfdfc"
   clip-rule="evenodd"
   fill-rule="evenodd" />
			</g>
			<path
   id="path313"
   d="m 174.192,181.182 c -0.768,-0.257 -1.21,-1.089 -0.956,-1.801 0.154,-0.433 1.242,-0.989 1.667,-0.852 0.73,0.234 1.152,1.025 0.922,1.729 -0.296,0.904 -0.812,1.197 -1.633,0.924 z"
   fill="#fac90b"
   clip-rule="evenodd"
   fill-rule="evenodd" />
			<path
   id="path315"
   d="m 201.819,179.317 c 0.178,-0.419 0.539,-0.748 1.146,-0.5 0.54,0.22 0.8,0.677 0.564,1.229 -0.216,0.505 -0.572,0.966 -1.251,0.719 -0.66,-0.239 -0.72,-0.735 -0.459,-1.448 z"
   fill="#fdfdfc"
   clip-rule="evenodd"
   fill-rule="evenodd" />
			<path
   id="path317"
   d="m 138.727,196.335 c 0,0 25.159,19.466 65.209,23.075 l -1.199,3.251 c 0,0 -33.789,0.299 -65.447,-22.52 z"
   fill="#bf1540"
   clip-rule="evenodd"
   fill-rule="evenodd" />
			<g
   id="g323">
				<path
   id="path319"
   d="m 174.734,215.57 c 0.686,-1.97 0.686,-1.97 2.675,-1.326 1.585,0.512 1.585,0.512 1.035,2.094 -0.056,0.163 -0.112,0.325 -0.169,0.488 -0.58,1.654 -0.58,1.654 -2.299,1.256 -1.956,-0.451 -1.956,-0.451 -1.298,-2.35 0.019,-0.054 0.038,-0.108 0.056,-0.162 z m 2.932,1.033 c 0.245,-0.639 -0.057,-1.19 -0.819,-1.494 -0.625,-0.249 -1.196,0.021 -1.488,0.702 -0.187,0.439 0.187,1.421 0.592,1.55 0.628,0.199 1.494,-0.185 1.715,-0.758 z"
   fill="#fac90b"
   clip-rule="evenodd"
   fill-rule="evenodd" />
				<path
   id="path321"
   d="m 177.666,216.603 c -0.221,0.573 -1.088,0.957 -1.715,0.759 -0.405,-0.129 -0.779,-1.111 -0.592,-1.55 0.292,-0.681 0.863,-0.951 1.488,-0.702 0.762,0.303 1.064,0.854 0.819,1.493 z"
   fill="#fdfdfc"
   clip-rule="evenodd"
   fill-rule="evenodd" />
			</g>
			<g
   id="g329">
				<path
   id="path325"
   d="m 148.743,204.42 c 0.627,-1.763 0.627,-1.763 2.226,-0.706 1.405,0.929 1.405,0.93 0.863,2.47 -0.054,0.152 -0.108,0.303 -0.162,0.454 -0.522,1.469 -0.522,1.469 -1.9,0.712 -1.73,-0.949 -1.73,-0.949 -1.081,-2.78 0.018,-0.049 0.036,-0.1 0.054,-0.15 z m 1.8,-0.228 c -0.351,-0.194 -1.167,0.218 -1.287,0.65 -0.186,0.671 0.053,1.253 0.622,1.521 0.695,0.325 1.216,0.158 1.41,-0.452 0.174,-0.547 -0.203,-1.416 -0.745,-1.719 z"
   fill="#fac90b"
   clip-rule="evenodd"
   fill-rule="evenodd" />
				<path
   id="path327"
   d="m 151.287,205.912 c 0.174,-0.548 -0.202,-1.417 -0.744,-1.719 -0.351,-0.194 -1.167,0.218 -1.287,0.65 -0.186,0.671 0.053,1.253 0.622,1.521 0.695,0.324 1.215,0.157 1.409,-0.452 z"
   fill="#fdfdfc"
   clip-rule="evenodd"
   fill-rule="evenodd" />
			</g>
			<g
   id="g335">
				<path
   id="path331"
   d="m 138.245,198.027 c 0.538,-1.523 0.538,-1.523 1.328,-0.817 0.694,0.619 0.693,0.62 0.227,1.95 -0.046,0.131 -0.093,0.26 -0.139,0.391 -0.449,1.269 -0.449,1.269 -1.146,0.789 -0.875,-0.603 -0.875,-0.603 -0.316,-2.182 0.016,-0.044 0.031,-0.088 0.046,-0.131 z"
   fill="#fac90b"
   clip-rule="evenodd"
   fill-rule="evenodd" />
				<path
   id="path333"
   d="m 139.195,198.877 c 0.156,-0.471 0.035,-1.149 -0.239,-1.342 -0.178,-0.123 -0.68,0.304 -0.794,0.673 -0.176,0.573 -0.103,1.031 0.191,1.19 0.357,0.196 0.668,0.002 0.842,-0.521 z"
   fill="#fdfdfc"
   clip-rule="evenodd"
   fill-rule="evenodd" />
			</g>
			<g
   id="g341">
				<path
   id="path337"
   d="m 200.823,220.819 c 0.571,-1.628 0.571,-1.628 2.034,-1.561 1.066,0.048 1.066,0.048 0.654,1.227 -0.167,0.477 -0.366,0.945 -0.493,1.43 -0.142,0.539 -0.415,0.694 -0.847,0.606 -0.16,-0.032 -0.327,-0.034 -0.49,-0.046 -1.405,-0.099 -1.405,-0.099 -0.858,-1.656 z m 2.098,0.326 c 0.218,-0.63 0.038,-1.153 -0.461,-1.336 -0.475,-0.175 -0.958,0.154 -1.176,0.8 -0.164,0.483 0.055,1.172 0.409,1.29 0.443,0.146 1.043,-0.222 1.228,-0.754 z"
   fill="#fac90b"
   clip-rule="evenodd"
   fill-rule="evenodd" />
				<path
   id="path339"
   d="m 202.921,221.145 c -0.185,0.532 -0.785,0.9 -1.228,0.753 -0.354,-0.117 -0.573,-0.807 -0.409,-1.29 0.218,-0.646 0.702,-0.975 1.176,-0.8 0.499,0.183 0.68,0.706 0.461,1.337 z"
   fill="#fdfdfc"
   clip-rule="evenodd"
   fill-rule="evenodd" />
			</g>
			<path
   id="path343"
   d="m 147.834,170.12 c 0,0 27.011,18.171 65.361,22.957 l -0.347,0.869 c 0,0 -35.409,-3.732 -65.324,-22.944 z"
   fill="#feeb18"
   clip-rule="evenodd"
   fill-rule="evenodd" />
			<linearGradient
   y2="193.9911"
   x2="180.2908"
   y1="203.991"
   x1="203.7905"
   gradientUnits="userSpaceOnUse"
   id="SVGID_2_">
				<stop
   id="stop345"
   style="stop-color:#010202;stop-opacity:0.8"
   offset="0" />
				<stop
   id="stop347"
   style="stop-color:#010202;stop-opacity:0.011"
   offset="0.9862" />
				<stop
   id="stop349"
   style="stop-color:#010202;stop-opacity:0"
   offset="1" />
			</linearGradient>
			<path
   style="fill:url(#SVGID_2_)"
   id="path352"
   d="m 215.377,185.478 c -0.966,-1.237 -2.146,-2.219 -3.52,-2.973 -0.709,-0.616 -12.935,-7.818 -20.358,-11.005 -9.187,12.398 -16,23 -20.819,40.82 0.145,0.052 0.29,0.104 0.434,0.156 -0.149,-0.05 -0.29,-0.102 -0.437,-0.153 -0.952,1.207 -1.904,2.415 -2.854,3.624 19.635,6.849 34.913,6.714 34.913,6.714 l 0.156,-0.423 c 0.05,-0.087 0.092,-0.193 0.126,-0.323 0.013,-0.049 0.033,-0.096 0.047,-0.145 l 0.871,-2.36 c 0.14,-0.407 0.266,-0.819 0.397,-1.228 2.839,-8.079 5.677,-16.157 8.516,-24.236 l 0.347,-0.869 c -0.013,-0.002 -0.026,-0.003 -0.039,-0.005 0.788,-2.213 1.569,-4.429 2.372,-6.638 0.135,-0.373 0.078,-0.663 -0.152,-0.956 z m -12.32,24.466 c 0.028,0.241 0.059,0.482 0.092,0.723 -0.033,-0.241 -0.063,-0.482 -0.092,-0.723 z m 0.534,3.192 c 0.004,-0.109 0.009,-0.219 0.013,-0.33 -0.22,-0.692 -0.351,-1.401 -0.451,-2.114 0.1,0.713 0.231,1.422 0.452,2.115 -0.006,0.11 -0.01,0.219 -0.014,0.329 z"
   fill="url(#SVGID_2_)"
   clip-rule="evenodd"
   fill-rule="evenodd"
   opacity="0.4" />
		</g>
		<polygon
   id="polygon356"
   points="62.212,334.042 132.293,296.766 300.207,310.186 209.827,341.497 "
   fill="#020304"
   opacity="0.1" />
		<g
   id="g426">
			<g
   id="g418">
				<path
   id="path358"
   d="m 219.511,220.845 -10.567,0.834 c 0,0 1.574,9.219 1.128,14.509 -0.445,5.29 -1.318,10.072 2.234,10.685 3.552,0.613 8.15,-9.34 7.205,-26.028 z"
   fill="#e5ba94" />
				<path
   id="path360"
   d="m 223.589,219.106 10.392,-2.09 c 0,0 1.009,9.298 2.885,14.263 1.875,4.966 4.023,9.328 0.775,10.89 -3.25,1.56 -10.395,-6.754 -14.052,-23.063 z"
   fill="#e5ba94" />
				<path
   id="path362"
   d="m 208.535,183.73 c 0,0 -1.709,4.478 -9.037,6.838 -7.327,2.36 -8.893,6.066 -7.578,8.135 1.314,2.07 8.193,1.317 16.177,-4.2 z"
   fill="#fbcda0" />
				<path
   id="path364"
   d="m 221.412,181.118 c 0,0 3.585,3.18 11.173,1.885 7.588,-1.293 10.69,1.27 10.482,3.712 -0.21,2.442 -6.657,4.955 -16.288,3.754 z"
   fill="#fbcda0" />
				<polygon
   id="polygon366"
   points="243.345,216.898 221.831,182.108 208.535,183.73 201.681,224.201 "
   fill="#ef7e81" />
				<path
   id="path368"
   d="M 215.594,183.619 C 209.188,184.738 211.5,221 211.5,221 l 19.5,-4.5 c 0,0 -9,-34 -15.406,-32.881 z"
   fill="#f4a7aa" />
				<g
   id="g372">
					<path
   id="path370"
   d="m 239.819,217.467 -0.072,0.013 c 0.03,0.063 0.062,0.126 0.091,0.188 -0.003,-0.06 -0.01,-0.128 -0.019,-0.201 z"
   fill="#f6b6b9" />
				</g>
				<path
   id="path374"
   d="m 221.49,180.59 -13.144,3.516 c 0,0 -0.535,4.499 3.899,3.932 3.344,-0.427 3.349,-4.418 3.349,-4.418 0,0 0.934,5.04 5.202,3.336 4.054,-1.617 0.694,-6.366 0.694,-6.366 z"
   fill="#ffffff" />
				<path
   id="path376"
   d="m 176.656,158.222 c -5.711,12.193 11.519,8.718 11.519,8.718 l 3.14,-7.652 c 0.265,-3.536 -8.756,-13.672 -14.659,-1.066 z"
   fill="#ffedd2" />
				<path
   id="path378"
   d="m 246.102,155.036 c 4.466,12.702 -12.333,7.526 -12.333,7.526 l -2.361,-7.928 c 0.09,-3.543 10.076,-12.729 14.694,0.402 z"
   fill="#ffedd2" />
				
					<ellipse
   id="ellipse380"
   ry="18.110001"
   rx="24.354"
   cy="165.961"
   cx="212.119"
   fill="#fbcda0"
   transform="matrix(0.9959,-0.0904,0.0904,0.9959,-14.1411,19.8654)" />
				<path
   id="path382"
   d="m 188.919,167.351 c 0,0 11.926,2.257 20.05,-17.321 0,0 8.582,12.211 24.558,8.542 0,0 -6.891,-14.87 -25.558,-11.551 -19.935,3.544 -19.05,20.33 -19.05,20.33 z"
   fill="#ffedd2" />
				<g
   id="g390">
					<path
   id="path384"
   d="m 185.505,162.435 c 0,0 -10.29,6.263 -6.815,8.812 3.474,2.548 10.823,5.825 10.711,-7.905 z"
   fill="#ef7e81" />
					<path
   id="path386"
   d="m 189.831,161.235 c 0,0 9.019,-7.585 5.119,-9.626 -3.899,-2.042 -11.308,-4.913 -8.685,8.623 z"
   fill="#ef7e81" />
					<path
   id="path388"
   d="m 186.246,159.686 c -0.651,-0.44 -0.801,2.596 -0.809,2.612 -0.41,0.813 3.357,2.936 4.48,0.5 1.331,-2.887 -1.619,-1.721 -3.671,-3.112 z"
   fill="#f39fa1" />
				</g>
				<g
   id="g398">
					<path
   id="path392"
   d="m 234.726,157.66 c 0,0 1.858,-10.908 -2.679,-10.578 -4.536,0.331 -12.361,2.549 -0.774,12.351 z"
   fill="#ef7e81" />
					<path
   id="path394"
   d="m 232.741,161.214 c 0,0 0.127,11.068 4.533,10.11 4.406,-0.96 11.933,-3.506 -1.228,-11.608 z"
   fill="#ef7e81" />
					<path
   id="path396"
   d="m 236.517,160.097 c 0.819,-0.088 -1.623,-2.365 -1.631,-2.381 -0.397,-0.84 -4.779,-0.022 -3.514,2.428 1.5,2.905 2.563,0.23 5.145,-0.047 z"
   fill="#f39fa1" />
				</g>
				<circle
   id="circle400"
   r="3.0969999"
   cy="174.953"
   cx="200.13499"
   fill="#f29395"
   opacity="0.4" />
				<circle
   id="circle402"
   r="3.096"
   cy="169.646"
   cx="227.20399"
   fill="#f29395"
   opacity="0.4" />
				<g
   id="g406">
					<path
   id="path404"
   d="m 213.045,179.227 c -2.009,-0.091 -3.625,-0.936 -3.717,-0.986 -0.305,-0.162 -0.419,-0.539 -0.258,-0.844 0.162,-0.305 0.537,-0.421 0.844,-0.259 0.027,0.014 2.746,1.427 5.214,0.57 1.345,-0.468 2.394,-1.54 3.119,-3.187 0.139,-0.316 0.507,-0.459 0.823,-0.319 0.315,0.138 0.458,0.507 0.319,0.823 -0.872,1.981 -2.17,3.282 -3.86,3.866 -0.844,0.292 -1.694,0.373 -2.484,0.336 z"
   fill="#3e1e11" />
				</g>
				<g
   id="g410">
					<path
   id="path408"
   d="m 201.135,171.188 c -0.366,-0.016 -0.65,-0.326 -0.633,-0.691 0.004,-0.095 0.122,-2.313 1.642,-3.193 0.933,-0.54 2.119,-0.446 3.525,0.278 0.325,0.168 0.455,0.569 0.287,0.894 -0.169,0.326 -0.57,0.452 -0.894,0.286 -0.98,-0.506 -1.738,-0.608 -2.253,-0.31 -0.743,0.43 -0.963,1.695 -0.982,2.104 -0.017,0.365 -0.327,0.649 -0.692,0.632 z"
   fill="#3e1e11" />
				</g>
				<g
   id="g414">
					<path
   id="path412"
   d="m 218.851,166.004 c -0.361,-0.057 -0.609,-0.395 -0.553,-0.757 0.015,-0.092 0.373,-2.285 1.979,-2.994 0.986,-0.436 2.155,-0.214 3.474,0.66 0.306,0.203 0.39,0.615 0.188,0.919 -0.204,0.306 -0.616,0.387 -0.919,0.187 -0.919,-0.609 -1.661,-0.794 -2.207,-0.553 -0.785,0.347 -1.142,1.581 -1.204,1.984 -0.056,0.362 -0.395,0.611 -0.758,0.554 z"
   fill="#3e1e11" />
				</g>
				<path
   id="path416"
   d="m 215.309,168.741 c -0.083,-1.374 -0.619,-2.689 -1.578,-3.026 -1.145,-0.401 -2.563,0.329 -2.637,1.539 -0.034,0.548 0.284,1.179 0.313,1.743 0.031,0.602 -0.136,1.188 -0.012,1.793 0.24,1.168 1.012,1.769 2.226,1.534 1.241,-0.238 1.786,-1.95 1.688,-3.583 z"
   fill="#ef7e81" />
			</g>
			<circle
   id="circle420"
   r="1.75"
   cy="190.25"
   cx="216.5"
   fill="#ffffff" />
			<circle
   id="circle422"
   r="1.75"
   cy="197"
   cx="217.5"
   fill="#ffffff" />
			<circle
   id="circle424"
   r="1.75"
   cy="203.25"
   cx="219"
   fill="#ffffff" />
		</g>
		<g
   id="g470">
			<g
   id="g468">
				<path
   id="path428"
   d="m 121.072,95.874 c -15.396,0.145 -6.511,46.445 -6.511,46.445 l 9.896,-5.915 c -1.577,-7.873 12.012,-40.675 -3.385,-40.53 z"
   fill="#f2ebc9" />
				<path
   id="path430"
   d="m 136.704,94.41 c 15.297,-1.763 12.211,45.281 12.211,45.281 l -10.552,-4.644 c 0.59,-8.007 -16.954,-38.874 -1.659,-40.637 z"
   fill="#f2ebc9" />
				<path
   id="path432"
   d="m 146.379,170.937 8.911,28.834 c 4.604,1.294 7.437,-2.869 7.261,-7.031 -0.419,-9.883 -10.446,-15.336 -16.172,-21.803 z"
   fill="#d1c8a3" />
				<path
   id="path434"
   d="m 126.328,175.445 c 0,0 -17.965,41.028 14.242,36.672 34.321,-4.643 4.689,-40.417 4.689,-40.417 z"
   fill="#f2ebc9" />
				<path
   id="path436"
   d="m 125.163,171.325 c -1.996,7.533 6.898,6.86 12.064,6.182 6.274,-0.821 10.005,-4.298 7.986,-10.691 z"
   fill="#056938" />
				
					<ellipse
   id="ellipse438"
   ry="20.183001"
   rx="25.360001"
   cy="151.825"
   cx="132.02"
   fill="#f2ebc9"
   transform="matrix(0.9317,-0.3632,0.3632,0.9317,-46.1228,58.3088)" />
				<path
   id="path440"
   d="m 127.619,161.991 c -15.249,1.158 -18.956,-7.956 -9.452,-17.253 10.376,-10.151 34.788,-10.198 32.228,4.715 -1.213,7.066 -12.625,11.766 -22.776,12.538 z"
   fill="#fffbeb"
   opacity="0.7" />
				<path
   id="path442"
   d="m 116.21,137.984 c 0,0 -2.807,-38.845 4.708,-38.541 7.514,0.305 -0.415,35.683 -0.415,35.683 z"
   fill="#f7bfc0" />
				<path
   id="path444"
   d="m 141.875,131.545 c 0,0 -11.938,-31.435 -5.189,-32.626 6.75,-1.19 9.334,34.089 9.334,34.089 z"
   fill="#f7bfc0" />
				<path
   id="path446"
   d="m 116.884,149.716 c -0.87,0.009 -1.586,0.74 -1.578,1.608 0.002,0.126 0.002,0.251 0.002,0.376 0.008,0.868 0.741,1.587 1.608,1.578 0.87,-0.008 1.586,-0.74 1.579,-1.608 -0.001,-0.125 -0.002,-0.251 -0.004,-0.376 -0.005,-0.868 -0.74,-1.586 -1.607,-1.578 z"
   fill="#3e1e11" />
				<path
   id="path448"
   d="m 143.319,145.24 c -1.439,1.467 0.834,3.698 2.273,2.233 1.44,-1.467 -0.834,-3.7 -2.273,-2.233 z"
   fill="#3e1e11" />
				<g
   id="g452">
					<path
   id="path450"
   d="m 130.853,163.726 c -2.536,-0.391 -4.47,-1.685 -4.582,-1.76 -0.363,-0.248 -0.457,-0.742 -0.21,-1.105 0.245,-0.365 0.737,-0.462 1.106,-0.214 0.032,0.022 3.288,2.187 6.535,1.435 1.77,-0.408 3.246,-1.625 4.392,-3.615 0.219,-0.382 0.706,-0.513 1.088,-0.292 0.38,0.219 0.512,0.707 0.292,1.087 -1.376,2.394 -3.202,3.866 -5.425,4.376 -1.109,0.256 -2.199,0.241 -3.196,0.088 z"
   fill="#3e1e11" />
				</g>
				
					<ellipse
   id="ellipse454"
   ry="2.655"
   rx="4.1160002"
   cy="155.388"
   cx="132.617"
   fill="#3e1e11"
   transform="matrix(0.9769,-0.2137,0.2137,0.9769,-30.1473,31.9357)" />
				<path
   id="path456"
   d="m 133.961,153.159 c -0.933,-0.177 -1.784,-0.034 -2.588,0.478 -0.868,0.552 0.013,1.88 0.88,1.329 0.449,-0.286 0.871,-0.345 1.391,-0.246 1.01,0.191 1.329,-1.37 0.317,-1.561 z"
   fill="#fef0f0" />
				<g
   id="g464">
					<path
   id="path458"
   d="m 134.287,177.581 c 2.526,7.103 11.258,2.066 10.238,-3.997 l -1.741,-5.429 c -7.702,-3.537 -11.091,2.139 -8.497,9.426 z"
   fill="#009245" />
					<path
   id="path460"
   d="m 155.939,164.854 c -3.072,-6.883 -11.384,-1.18 -9.896,4.785 l 2.16,5.276 c 7.955,2.927 10.89,-2.998 7.736,-10.061 z"
   fill="#009245" />
					<path
   id="path462"
   d="m 146.713,168.512 c -4.141,-4.151 -5.27,4.269 -2.041,6.745 4.201,3.223 4.097,-4.681 2.041,-6.745 z"
   fill="#48ae4d" />
				</g>
				<path
   id="path466"
   d="m 140.768,206.304 c -0.84,0.186 -1.741,0.192 -2.705,-0.022 -6.998,-1.556 -11.399,-12.194 -10.385,-18.711 1.516,-9.73 7.797,-1.15 10.325,2.935 0.775,-2.616 0.752,-8.515 4.32,-9.389 4.398,-1.077 5.328,5.437 6.012,8.321 1.212,5.107 -1.59,15.545 -7.567,16.866 z"
   fill="#f4d5be" />
			</g>
		</g>
		<g
   id="g537">
			<g
   id="g535">
				<g
   id="g479">
					<linearGradient
   y2="316.16931"
   x2="162.17081"
   y1="217.7397"
   x1="162.17081"
   gradientUnits="userSpaceOnUse"
   id="SVGID_3_">
						<stop
   id="stop472"
   style="stop-color:#DEC08C"
   offset="0" />
						<stop
   id="stop474"
   style="stop-color:#BA9A6B"
   offset="1" />
					</linearGradient>
					<polygon
   style="fill:url(#SVGID_3_)"
   id="polygon477"
   points="116.32,194.38 208.021,217.739 208.021,333.545 116.32,310.186 "
   fill="url(#SVGID_3_)" />
				</g>
				<polygon
   id="polygon481"
   points="192.432,257.998 207.342,218.236 148.197,202.828 117.879,235.135 "
   fill="#010202"
   opacity="0.1" />
				<g
   id="g490">
					<linearGradient
   y2="315.6698"
   x2="292.89471"
   y1="212.255"
   x1="215.33369"
   gradientUnits="userSpaceOnUse"
   id="SVGID_4_">
						<stop
   id="stop483"
   style="stop-color:#F4DFBE"
   offset="0" />
						<stop
   id="stop485"
   style="stop-color:#DEC08C"
   offset="1" />
					</linearGradient>
					<polygon
   style="fill:url(#SVGID_4_)"
   id="polygon488"
   points="300.207,194.38 208.021,217.739 208.021,333.545 300.207,310.186 "
   fill="url(#SVGID_4_)" />
				</g>
				<path
   id="path492"
   d="m 208.728,219.893 c 0,0 27.918,59.809 28.889,59.809 l 62.59,-17.23 -0.162,-67.263 z"
   fill="#010202"
   opacity="0.2" />
				<g
   id="g520">
					<linearGradient
   y2="238.8985"
   x2="126.9219"
   y1="204.5307"
   x1="158.04739"
   gradientUnits="userSpaceOnUse"
   id="SVGID_5_">
						<stop
   id="stop494"
   style="stop-color:#DEC08C"
   offset="0" />
						<stop
   id="stop496"
   style="stop-color:#BA9A6B"
   offset="1" />
					</linearGradient>
					<polygon
   style="fill:url(#SVGID_5_)"
   id="polygon499"
   points="167.871,255.016 72.774,230.662 116.441,193.883 208.142,217.242 "
   fill="url(#SVGID_5_)" />
					<polygon
   id="polygon501"
   points="208.142,219.975 208.142,217.242 167.871,255.016 167.871,257.998 "
   fill="#f5d49d" />
					<polygon
   id="polygon503"
   points="167.871,257.998 72.774,233.146 72.774,230.662 167.871,255.016 "
   fill="#83653b" />
					<linearGradient
   y2="198.9855"
   x2="166.6019"
   y1="234.5182"
   x1="119.2249"
   gradientUnits="userSpaceOnUse"
   id="SVGID_6_">
						<stop
   id="stop505"
   style="stop-color:#010202;stop-opacity:0"
   offset="0.0051" />
						<stop
   id="stop507"
   style="stop-color:#050607;stop-opacity:0.0607"
   offset="0.2053" />
						<stop
   id="stop509"
   style="stop-color:#16181B;stop-opacity:0.1641"
   offset="0.5466" />
						<stop
   id="stop511"
   style="stop-color:#333333;stop-opacity:0.2971"
   offset="0.9854" />
						<stop
   id="stop513"
   style="stop-color:#343434;stop-opacity:0.3"
   offset="0.9949" />
						<stop
   id="stop515"
   style="stop-color:#343435;stop-opacity:0.3"
   offset="1" />
					</linearGradient>
					<polygon
   style="fill:url(#SVGID_6_)"
   id="polygon518"
   points="73.767,230.662 116.441,193.883 201.875,215.254 108.931,240.105 "
   fill="url(#SVGID_6_)" />
				</g>
				<g
   id="g533">
					<linearGradient
   y2="235.4232"
   x2="282.30469"
   y1="196.5101"
   x1="253.1199"
   gradientUnits="userSpaceOnUse"
   id="SVGID_7_">
						<stop
   id="stop522"
   style="stop-color:#F4DFBE"
   offset="0" />
						<stop
   id="stop524"
   style="stop-color:#DEC08C"
   offset="1" />
					</linearGradient>
					<polygon
   style="fill:url(#SVGID_7_)"
   id="polygon527"
   points="241.66,256.041 337.728,228.674 300.369,193.883 208.182,217.241 "
   fill="url(#SVGID_7_)" />
					<polygon
   id="polygon529"
   points="337.303,230.973 337.789,228.652 241.65,256.01 241.641,258.588 "
   fill="#f5d49d" />
					<polygon
   id="polygon531"
   points="241.66,258.599 241.66,255.999 208.182,217.222 208.243,219.893 "
   fill="#83653b" />
				</g>
			</g>
		</g>
		<path
   id="path539"
   d="m 145.014,170.075 c 0.388,-1.471 2.745,-0.651 2.383,1.349 -0.34,1.879 -2.094,1.145 -2.382,-0.365 -0.076,-0.402 -0.068,-0.727 -10e-4,-0.984 z"
   fill="#ffffff" />
	</g>
	<path
   id="path543"
   d="M 271.981,64.949"
   fill="#1e8aa5" />
	<g
   id="g593">
		<g
   id="g591">
			<g
   id="g581">
				<path
   id="path545"
   d="m 139.422,305.248 c 5.664,-8.398 15.222,-17.799 15.751,-29.262 -0.478,-1.544 -1.158,-3.003 -2.089,-4.336 -7.987,-11.406 -30.006,-9.769 -49.185,3.658 -19.179,13.427 -28.254,33.556 -20.268,44.963 5.484,7.833 17.586,9.515 30.843,5.45 2.508,-0.769 7.149,-1.065 11.724,-1.15 3.989,-2.003 7.629,-4.536 10.977,-7.435 -0.414,-4.113 0.015,-8.118 2.247,-11.888 z"
   fill="#fbba13" />
				<path
   id="path547"
   d="m 147.164,303.13 c 7.282,-9.365 10.398,-19.428 8.009,-27.145 -0.529,11.463 -10.087,20.864 -15.751,29.262 -2.232,3.77 -2.662,7.775 -2.248,11.888 2.148,-1.857 4.179,-3.863 6.099,-5.987 1.24,-3.307 2.607,-6.365 3.891,-8.018 z"
   fill="#fecb41" />
				<path
   id="path549"
   d="m 126.198,324.571 c 5.619,-0.102 11.132,0.115 12.466,0.173 -0.672,-2.56 -1.237,-5.104 -1.489,-7.607 -3.349,2.898 -6.989,5.431 -10.977,7.434 z"
   fill="#00a0c4" />
				<path
   id="path551"
   d="m 143.274,311.149 c -1.92,2.124 -3.951,4.13 -6.099,5.987 0.253,2.504 0.817,5.048 1.489,7.607 0.198,0.008 0.308,0.013 0.308,0.013 0,0 1.921,-7.26 4.302,-13.607 z"
   fill="#40b7ab" />
				
					<ellipse
   id="ellipse553"
   ry="18.809"
   rx="36.271999"
   cy="293.09399"
   cx="116.25"
   fill="#d12c2a"
   transform="matrix(0.8192,-0.5735,0.5735,0.8192,-147.0707,119.6576)" />
				<g
   id="g577">
					<path
   id="path555"
   d="m 103.058,310.807 c 2.673,-6.612 5.375,-13.285 8.546,-19.658 -11.204,5.751 -13.692,9.172 -21.273,17.117 2.275,2.989 6.966,3.731 12.727,2.541 z"
   fill="#00a0c4" />
					<path
   id="path557"
   d="m 112.043,290.793 c -0.147,0.118 -0.292,0.238 -0.44,0.356 -3.171,6.373 -5.873,13.046 -8.546,19.658 5.37,-1.109 11.671,-3.895 17.846,-8.164 -3.864,-3.133 -6.586,-7.306 -8.86,-11.85 z"
   fill="#40b7ab" />
					<path
   id="path559"
   d="m 138.76,272.128 c -0.167,-0.225 -0.352,-0.434 -0.546,-0.634 -8.983,5.736 -17.354,12.202 -25.525,18.781 7.963,-1.195 15.925,-2.166 23.828,-3.309 3.71,-5.931 4.771,-11.441 2.243,-14.838 z"
   fill="#40b7ab" />
					<path
   id="path561"
   d="m 112.043,290.793 c 2.274,4.544 4.995,8.717 8.86,11.85 0.633,-0.438 1.266,-0.886 1.896,-1.353 5.984,-4.456 10.717,-9.526 13.717,-14.323 -7.903,1.143 -15.865,2.113 -23.828,3.309 -0.213,0.173 -0.43,0.344 -0.645,0.517 z"
   fill="#00a0c4" />
					<path
   id="path563"
   d="m 111.604,291.149 c 0.148,-0.118 0.293,-0.238 0.44,-0.356 -0.044,-0.089 -0.084,-0.182 -0.128,-0.271 -0.106,0.208 -0.207,0.419 -0.312,0.627 z"
   fill="#40b7ab" />
					<path
   id="path565"
   d="m 90.284,308.209 c 0.014,0.019 0.032,0.036 0.047,0.057 7.956,-9.216 10.851,-10.673 21.273,-17.117 0.105,-0.208 0.206,-0.419 0.312,-0.627 -0.02,-0.04 -0.038,-0.081 -0.058,-0.121 -6.622,1.008 -13.244,2.196 -19.831,3.785 -3.304,5.62 -4.156,10.784 -1.743,14.023 z"
   fill="#40b7ab" />
					<path
   id="path567"
   d="m 106.244,279.047 c -6.326,4.708 -11.256,10.106 -14.218,15.139 6.587,-1.589 13.209,-2.777 19.831,-3.785 -1.868,-3.792 -3.464,-7.807 -5.178,-11.664 -0.144,0.107 -0.289,0.202 -0.435,0.31 z"
   fill="#00a0c4" />
					<path
   id="path569"
   d="m 111.915,290.522 c 0.024,-0.047 0.049,-0.094 0.074,-0.14 -0.044,0.006 -0.088,0.013 -0.132,0.02 0.021,0.039 0.039,0.08 0.058,0.12 z"
   fill="#40b7ab" />
					<path
   id="path571"
   d="m 106.68,278.737 c 1.714,3.857 3.31,7.872 5.178,11.664 0.044,-0.006 0.088,-0.013 0.132,-0.02 3.875,-7.664 8.465,-14.863 14.552,-20.954 -5.909,1.105 -13.016,4.301 -19.862,9.31 z"
   fill="#40b7ab" />
					<path
   id="path573"
   d="m 111.915,290.522 c 0.044,0.089 0.084,0.182 0.128,0.271 0.214,-0.173 0.431,-0.344 0.645,-0.518 -0.234,0.035 -0.467,0.071 -0.699,0.106 -0.024,0.047 -0.05,0.094 -0.074,0.141 z"
   fill="#40b7ab" />
					<path
   id="path575"
   d="m 126.541,269.428 c -6.087,6.091 -10.676,13.29 -14.552,20.954 0.232,-0.036 0.466,-0.072 0.699,-0.106 8.171,-6.579 16.542,-13.045 25.525,-18.781 -2.336,-2.417 -6.557,-3.025 -11.672,-2.067 z"
   fill="#00a0c4" />
				</g>
				<path
   id="path579"
   d="m 125.553,276.3 c 2.774,3.56 -1.268,11.346 -9.028,17.391 -7.759,6.046 -16.298,8.06 -19.071,4.501 -2.774,-3.561 0.553,-9.79 8.313,-15.835 7.759,-6.046 17.012,-9.618 19.786,-6.057 z"
   fill="#ef7c16" />
			</g>
			<path
   id="path583"
   d="m 97.499,262.037 c -0.071,0.076 -0.129,0.152 -0.202,0.227 -2.475,2.382 -6.371,3.515 -9.56,2.914 0.009,0.016 0.016,0.032 0.026,0.047 l 16.137,20.898 c 1.858,2.871 4.226,4.639 7.562,2.48 1.37,-0.887 2.061,-1.897 2.28,-2.978 -7.062,-6.888 -11.195,-13.341 -16.243,-23.588 z"
   fill="#c41718" />
			<path
   id="path585"
   d="m 113.742,285.625 c 0.315,-1.55 -0.35,-3.246 -1.445,-4.938 l -12.16,-22.737 c -0.502,1.381 -1.388,2.756 -2.638,4.086 3.634,9.266 9.976,19.048 16.243,23.589 z"
   fill="#e01e1c" />
			<path
   id="path587"
   d="m 90.442,256.117 c -3.319,2.146 -4.521,6.191 -2.705,9.06 2.171,2.824 7.878,0.798 10.353,-1.583 0.003,-0.003 0.006,-0.006 0.009,-0.01 -1.146,-2.977 -2.33,-5.951 -3.793,-8.757 -1.3,0.077 -2.64,0.499 -3.864,1.29 z"
   fill="#b31918" />
			<path
   id="path589"
   d="m 100.137,257.951 -0.292,-0.545 c -1.176,-1.817 -3.296,-2.713 -5.539,-2.579 1.463,2.806 2.646,5.78 3.793,8.757 1.367,-1.397 3.455,-2.985 2.038,-5.633 z"
   fill="#c01818" />
		</g>
	</g>
</g>

</svg>
