<?xml version="1.0" encoding="UTF-8" standalone="no"?>
<!-- Generator: Adobe Illustrator 17.0.0, SVG Export Plug-In . SVG Version: 6.00 Build 0)  -->

<svg
   xmlns:dc="http://purl.org/dc/elements/1.1/"
   xmlns:cc="http://creativecommons.org/ns#"
   xmlns:rdf="http://www.w3.org/1999/02/22-rdf-syntax-ns#"
   xmlns:svg="http://www.w3.org/2000/svg"
   xmlns="http://www.w3.org/2000/svg"
   xmlns:sodipodi="http://sodipodi.sourceforge.net/DTD/sodipodi-0.dtd"
   xmlns:inkscape="http://www.inkscape.org/namespaces/inkscape"
   version="1.1"
   x="0px"
   y="0px"
   width="97.210999"
   height="145.31897"
   viewBox="0 0 97.210999 145.31897"
   enable-background="new 0 0 1200 150"
   xml:space="preserve"
   id="svg1263"
   sodipodi:docname="0.svg"
   inkscape:version="0.92.4 (5da689c313, 2019-01-14)"><metadata
   id="metadata1269"><rdf:RDF><cc:Work
       rdf:about=""><dc:format>image/svg+xml</dc:format><dc:type
         rdf:resource="http://purl.org/dc/dcmitype/StillImage" /><dc:title></dc:title></cc:Work></rdf:RDF></metadata><defs
   id="defs1267" /><sodipodi:namedview
   pagecolor="#ffffff"
   bordercolor="#666666"
   borderopacity="1"
   objecttolerance="10"
   gridtolerance="10"
   guidetolerance="10"
   inkscape:pageopacity="0"
   inkscape:pageshadow="2"
   inkscape:window-width="1920"
   inkscape:window-height="1017"
   id="namedview1265"
   showgrid="false"
   fit-margin-top="0"
   fit-margin-left="0"
   fit-margin-right="0"
   fit-margin-bottom="0"
   inkscape:zoom="0.66939442"
   inkscape:cx="984.20592"
   inkscape:cy="-74.724216"
   inkscape:window-x="-8"
   inkscape:window-y="-8"
   inkscape:window-maximized="1"
   inkscape:current-layer="svg1263" />
<g
   id="Слой_9"
   transform="translate(-25.166,-3.0150357)">
</g>
<g
   id="Слой_2"
   transform="translate(-25.166,-3.0150357)">
	<path
   d="m 64.95,4.44 c 4.151,-2.184 15.066,-1.875 18.734,1.048 2.807,2.237 6.157,12.97 6.157,12.97 L 56.826,17.803 c 10e-4,0 4.664,-11.542 8.124,-13.363 z"
   id="path3"
   inkscape:connector-curvature="0"
   style="fill:#ca9e67" />
	<polygon
   points="60.43,10.237 86.711,10.237 87.835,12.86 59.061,12.86 "
   id="polygon5"
   style="fill:#009640" />
	<ellipse
   cx="73.065002"
   cy="25.032"
   rx="34.855999"
   ry="10.939"
   id="ellipse7"
   style="fill:#b17f4a" />
	<polygon
   points="61.53,24.218 60.43,23.082 48.981,32.35 51.849,35.019 "
   id="polygon9"
   style="fill:#f39200" />
	<polygon
   points="59.939,29.553 58.593,28.723 51.514,37.726 54.117,39.188 "
   id="polygon11"
   style="fill:#f39200" />
	<polygon
   points="60.75,33.269 59.225,32.85 55.929,39.942 58.828,40.652 "
   id="polygon13"
   style="fill:#f39200" />
	<polygon
   points="85.664,24.218 86.763,23.082 98.213,32.35 95.345,35.019 "
   id="polygon15"
   style="fill:#f39200" />
	<polygon
   points="87.254,29.553 88.6,28.723 95.68,37.726 93.077,39.188 "
   id="polygon17"
   style="fill:#f39200" />
	<polygon
   points="86.443,33.269 87.968,32.85 91.264,39.942 88.366,40.652 "
   id="polygon19"
   style="fill:#f39200" />
	<path
   d="m 88.588,29.217 c 0,8.353 -6.771,15.124 -15.124,15.124 -8.353,0 -15.124,-6.771 -15.124,-15.124 0,-3.132 2.583,-8.456 2.583,-8.456 l 25.018,-0.094 c 0,0 2.647,5.377 2.647,8.55 z"
   id="path21"
   inkscape:connector-curvature="0"
   style="fill:#f7d7ba" />
	<path
   stroke-miterlimit="10"
   d="m 66.293,34.474 c 0,0 3.111,3.898 7.828,3.898 4.454,0 7.402,-3.177 7.402,-3.177"
   id="path23"
   inkscape:connector-curvature="0"
   style="fill:none;stroke:#683c11;stroke-miterlimit:10" />
	<ellipse
   cx="65.473999"
   cy="32.856998"
   rx="2.6199999"
   ry="2.1619999"
   id="ellipse25"
   style="fill:#e6007e" />
	<ellipse
   cx="82.157997"
   cy="33.442001"
   rx="2.6199999"
   ry="2.1619999"
   id="ellipse27"
   style="fill:#e6007e" />
	<circle
   stroke-miterlimit="10"
   cx="73.720001"
   cy="31.698"
   r="2.4809999"
   id="circle29"
   style="fill:#936037;stroke:#432918;stroke-miterlimit:10" />
	<circle
   stroke-miterlimit="10"
   cx="67.045998"
   cy="28.284"
   r="1.572"
   id="circle31"
   style="fill:#ffffff;stroke:#000000;stroke-miterlimit:10" />
	<circle
   stroke-miterlimit="10"
   cx="81.719002"
   cy="28.284"
   r="1.572"
   id="circle33"
   style="fill:#ffffff;stroke:#000000;stroke-miterlimit:10" />
	<path
   d="m 25.167,50.862 1.834,2.315 c 0,0 4.734,-1.671 6.376,-1.965 1.55,-0.278 6.288,-0.349 6.288,-0.349 0,0 -5.992,1.475 -7.861,2.315 -1.785,0.802 -6.638,4.149 -6.638,4.149 l 2.795,2.62 c 0,0 3.687,-3.775 5.415,-4.804 1.666,-0.991 8.123,-3.275 8.123,-3.275 0,0 -6.276,4.232 -8.166,5.895 -1.618,1.423 -5.895,6.288 -5.895,6.288 l 3.494,1.179 c 0,0 3.564,-4.835 4.978,-6.245 1.657,-1.651 7.337,-5.808 7.337,-5.808 l 0.524,-3.93 c 0,0 -8.149,-0.536 -10.119,-0.415 -2.745,0.166 -8.485,2.03 -8.485,2.03 z"
   id="path35"
   inkscape:connector-curvature="0"
   style="fill:#f39200" />
	<path
   d="m 122.376,50.862 -1.834,2.315 c 0,0 -4.734,-1.671 -6.376,-1.965 -1.55,-0.278 -6.288,-0.349 -6.288,-0.349 0,0 5.992,1.475 7.861,2.315 1.785,0.802 6.638,4.149 6.638,4.149 l -2.795,2.62 c 0,0 -3.687,-3.775 -5.415,-4.804 -1.666,-0.991 -8.123,-3.275 -8.123,-3.275 0,0 6.276,4.232 8.166,5.895 1.618,1.423 5.895,6.288 5.895,6.288 l -3.494,1.179 c 0,0 -3.564,-4.835 -4.978,-6.245 -1.657,-1.651 -7.337,-5.808 -7.337,-5.808 l -0.524,-3.93 c 0,0 8.149,-0.536 10.119,-0.415 2.745,0.166 8.485,2.03 8.485,2.03 z"
   id="path37"
   inkscape:connector-curvature="0"
   style="fill:#f39200" />
	<polygon
   points="86.96,78.592 58.924,78.592 58.924,60.644 42.154,60.382 42.154,45.578 104.515,45.578 104.515,60.382 86.829,60.513 "
   id="polygon39"
   style="fill:#e30613" />
	<circle
   cx="48.966999"
   cy="50.469002"
   r="1.965"
   id="circle41"
   style="fill:#ffffff" />
	<circle
   cx="45.735001"
   cy="57.019001"
   r="1.965"
   id="circle43"
   style="fill:#ffffff" />
	<circle
   cx="56.695999"
   cy="49.245998"
   r="1.965"
   id="circle45"
   style="fill:#ffffff" />
	<circle
   cx="53.813999"
   cy="55.796001"
   r="1.965"
   id="circle47"
   style="fill:#ffffff" />
	<circle
   cx="62.395"
   cy="53.175999"
   r="1.965"
   id="circle49"
   style="fill:#ffffff" />
	<circle
   cx="61.588001"
   cy="58.984001"
   r="1.965"
   id="circle51"
   style="fill:#ffffff" />
	<circle
   cx="62.395"
   cy="69.028"
   r="1.965"
   id="circle53"
   style="fill:#ffffff" />
	<circle
   cx="65.911003"
   cy="74.968002"
   r="1.965"
   id="circle55"
   style="fill:#ffffff" />
	<circle
   cx="74.906998"
   cy="76.102997"
   r="1.965"
   id="circle57"
   style="fill:#ffffff" />
	<circle
   cx="70.846001"
   cy="69.815002"
   r="1.965"
   id="circle59"
   style="fill:#ffffff" />
	<circle
   cx="79.538002"
   cy="69.815002"
   r="1.965"
   id="circle61"
   style="fill:#ffffff" />
	<circle
   cx="67.817001"
   cy="63.264"
   r="1.965"
   id="circle63"
   style="fill:#ffffff" />
	<circle
   cx="75.161003"
   cy="62.915001"
   r="1.965"
   id="circle65"
   style="fill:#ffffff" />
	<circle
   cx="80.193001"
   cy="53.831001"
   r="1.965"
   id="circle67"
   style="fill:#ffffff" />
	<circle
   cx="83.074997"
   cy="64.050003"
   r="1.965"
   id="circle69"
   style="fill:#ffffff" />
	<circle
   cx="83.598999"
   cy="75.528"
   r="1.965"
   id="circle71"
   style="fill:#ffffff" />
	<circle
   cx="85.870003"
   cy="49.245998"
   r="1.965"
   id="circle73"
   style="fill:#ffffff" />
	<circle
   cx="85.564003"
   cy="57.762001"
   r="1.965"
   id="circle75"
   style="fill:#ffffff" />
	<circle
   cx="91.591003"
   cy="53.175999"
   r="1.965"
   id="circle77"
   style="fill:#ffffff" />
	<circle
   cx="95.084"
   cy="57.762001"
   r="1.965"
   id="circle79"
   style="fill:#ffffff" />
	<circle
   cx="98.140999"
   cy="49.639"
   r="1.965"
   id="circle81"
   style="fill:#ffffff" />
	<circle
   cx="100.936"
   cy="55.796001"
   r="1.965"
   id="circle83"
   style="fill:#ffffff" />
	<circle
   cx="68.879997"
   cy="57.019001"
   r="1.965"
   id="circle85"
   style="fill:#ffffff" />
	<circle
   cx="73.720001"
   cy="52.433998"
   r="1.965"
   id="circle87"
   style="fill:#ffffff" />
	<path
   d="m 46.871,109.642 c 0,0 2.83,-1.32 5.197,-3.188 1.834,-1.447 4.76,-4.28 4.76,-4.28 l 1.572,0.786 c 0,0 -2.751,3.843 -4.585,5.459 -1.363,1.2 -5.633,4.367 -5.633,4.367 z"
   id="path89"
   inkscape:connector-curvature="0"
   style="fill:#f39200" />
	<path
   d="m 51.019,116.542 c 0,0 2.739,-4.196 4.323,-6.638 1.572,-2.424 3.674,-6.933 3.674,-6.933 l 1.722,0.351 c 0,0 -2.204,6.602 -3.344,9.116 -0.891,1.965 -3.581,6.114 -3.581,6.114 z"
   id="path91"
   inkscape:connector-curvature="0"
   style="fill:#f39200" />
	<path
   d="m 56.871,121.258 c 0,0 2.446,-6.245 3.342,-9.503 0.767,-2.785 1.592,-8.14 1.592,-8.14 l 1.935,0.393 c 0,0 -0.437,6.947 -0.894,9.668 -0.357,2.127 -2.541,8.193 -2.541,8.193 z"
   id="path93"
   inkscape:connector-curvature="0"
   style="fill:#f39200" />
	<path
   d="m 64.688,123.136 c 0,0 0.316,-5.573 0.355,-8.952 0.044,-3.86 0.198,-9.302 0.198,-9.302 l 1.935,0.393 c 0,0 0.712,7.202 0.874,9.957 0.131,2.227 0.306,7.904 0.306,7.904 z"
   id="path95"
   inkscape:connector-curvature="0"
   style="fill:#f39200" />
	<path
   d="m 99.406,108.921 c 0,0 -2.83,-1.32 -5.197,-3.188 -1.834,-1.447 -4.76,-4.28 -4.76,-4.28 l -1.572,0.786 c 0,0 2.751,3.843 4.585,5.459 1.363,1.2 5.633,4.367 5.633,4.367 z"
   id="path97"
   inkscape:connector-curvature="0"
   style="fill:#f39200" />
	<path
   d="m 99.406,124.315 c 0,0 -5.758,-8.977 -7.075,-11.573 -1.449,-2.857 -4.679,-10.951 -4.679,-10.951 l -1.722,0.351 c 0,0 2.117,8.087 3.257,10.6 0.891,1.965 7.664,13.931 7.664,13.931 z"
   id="path99"
   inkscape:connector-curvature="0"
   style="fill:#f39200" />
	<path
   d="m 90.191,125.69 c 0,0 -2.338,-7.411 -2.904,-10.743 -0.778,-4.578 -1.638,-12.511 -1.638,-12.511 h -1.9 c 0,0 0.537,10.155 0.994,12.877 0.357,2.127 2.412,12.146 2.412,12.146 z"
   id="path101"
   inkscape:connector-curvature="0"
   style="fill:#f39200" />
	<path
   d="m 81.13,123.725 c 0,0 0.466,-6.354 0.558,-9.717 0.106,-3.859 1.014,-11.038 1.014,-11.038 l -1.801,0.645 c 0,0 -1.702,7.145 -2.216,10.437 -0.344,2.204 -0.895,8.756 -0.895,8.756 z"
   id="path103"
   inkscape:connector-curvature="0"
   style="fill:#f39200" />
	<path
   d="m 74.252,84.75 h -2.62 v 62.492 c 0,0 0.295,1.092 1.31,1.092 1.081,0 1.31,-1.092 1.31,-1.092 z"
   id="path105"
   inkscape:connector-curvature="0"
   style="fill:#7d4e24" />
	<polygon
   points="73.335,88.418 77.396,104.925 92.331,101.65 86.96,78.592 58.924,78.592 53.814,102.436 68.487,106.235 "
   id="polygon107"
   style="fill:#009fe3" />
	<polygon
   points="73.554,46.233 77.25,49.639 83.206,49.639 78.575,42.826 69.666,42.826 63.902,49.639 70.715,49.639 "
   id="polygon109"
   style="fill:#009fe3" />
	<path
   d="m 66.621,94.69 c -0.078,0.516 -0.578,0.869 -1.116,0.788 L 60.51,94.722 c -0.538,-0.081 -0.911,-0.566 -0.833,-1.083 l 1.185,-7.832 c 0.078,-0.516 0.578,-0.869 1.116,-0.788 l 4.995,0.756 c 0.538,0.081 0.911,0.566 0.833,1.083 z"
   id="path111"
   inkscape:connector-curvature="0"
   style="fill:#95c11f" />
	<g
   id="g117">
		<line
   x1="62.395"
   y1="86.714996"
   x2="62.787998"
   y2="83.898003"
   id="line113"
   style="fill:#dedc00" />
		<path
   d="m 62.395,86.715 c 0,0 -0.072,-0.055 -0.176,-0.148 -0.051,-0.046 -0.113,-0.103 -0.172,-0.166 -0.031,-0.032 -0.063,-0.065 -0.098,-0.101 -0.032,-0.035 0.021,-0.06 0.011,-0.095 0.037,-0.264 0.086,-0.616 0.135,-0.968 0.049,-0.352 0.098,-0.704 0.135,-0.968 0.021,-0.031 -0.028,-0.07 0.022,-0.094 0.043,-0.025 0.083,-0.048 0.122,-0.07 0.081,-0.043 0.151,-0.081 0.209,-0.112 0.13,-0.06 0.204,-0.095 0.204,-0.095 0,0 0.062,0.054 0.17,0.147 0.047,0.046 0.104,0.102 0.17,0.165 0.031,0.032 0.063,0.065 0.098,0.101 0.041,0.036 -0.016,0.061 -0.005,0.096 -0.037,0.264 -0.086,0.616 -0.135,0.968 -0.049,0.352 -0.098,0.704 -0.135,0.968 -0.019,0.031 0.025,0.069 -0.015,0.094 -0.043,0.025 -0.083,0.048 -0.122,0.07 -0.073,0.044 -0.149,0.082 -0.21,0.112 -0.123,0.063 -0.208,0.096 -0.208,0.096 z"
   id="path115"
   inkscape:connector-curvature="0"
   style="fill:#683c11" />
	</g>
	<g
   id="g123">
		<line
   x1="64.382004"
   y1="86.540001"
   x2="65.517998"
   y2="84.313004"
   id="line119"
   style="fill:#dedc00" />
		<path
   d="m 64.382,86.54 c 0,0 -0.045,-0.067 -0.124,-0.184 -0.035,-0.056 -0.078,-0.125 -0.116,-0.197 -0.02,-0.037 -0.042,-0.076 -0.064,-0.118 -0.021,-0.04 0.036,-0.043 0.036,-0.076 0.106,-0.209 0.248,-0.487 0.39,-0.766 0.142,-0.278 0.284,-0.557 0.39,-0.766 0.028,-0.019 -0.007,-0.068 0.046,-0.071 0.047,-0.006 0.091,-0.012 0.133,-0.017 0.087,-0.009 0.164,-0.017 0.227,-0.023 0.138,-0.006 0.217,-0.01 0.217,-0.01 0,0 0.044,0.066 0.12,0.182 0.032,0.055 0.07,0.121 0.115,0.197 0.02,0.037 0.042,0.076 0.064,0.118 0.029,0.045 -0.032,0.045 -0.03,0.079 -0.106,0.209 -0.248,0.487 -0.39,0.766 -0.142,0.278 -0.284,0.557 -0.39,0.766 -0.026,0.02 0.005,0.067 -0.04,0.074 -0.047,0.006 -0.091,0.012 -0.133,0.017 -0.081,0.012 -0.162,0.018 -0.228,0.022 -0.142,0.004 -0.223,0.007 -0.223,0.007 z"
   id="path121"
   inkscape:connector-curvature="0"
   style="fill:#683c11" />
	</g>
	<g
   id="g129">
		<line
   x1="65.911003"
   y1="87.457001"
   x2="68.879997"
   y2="85.306"
   id="line125"
   style="fill:#dedc00" />
		<path
   d="m 65.911,87.457 c 0,0 0,-0.098 0.014,-0.25 0.007,-0.076 0.016,-0.168 0.033,-0.262 0.008,-0.049 0.016,-0.1 0.025,-0.155 0.01,-0.053 0.072,-0.037 0.099,-0.074 0.278,-0.202 0.65,-0.47 1.021,-0.739 0.371,-0.269 0.742,-0.538 1.021,-0.739 0.044,-0.012 0.046,-0.079 0.105,-0.065 0.055,0.009 0.106,0.017 0.155,0.024 0.096,0.013 0.186,0.033 0.259,0.049 0.148,0.033 0.239,0.061 0.239,0.061 0,0 -0.002,0.095 -0.017,0.246 -0.008,0.074 -0.017,0.166 -0.034,0.261 -0.008,0.049 -0.016,0.1 -0.025,0.155 -0.005,0.06 -0.069,0.041 -0.095,0.079 -0.278,0.202 -0.65,0.47 -1.021,0.739 -0.371,0.269 -0.742,0.538 -1.021,0.739 -0.043,0.014 -0.048,0.077 -0.101,0.071 -0.055,-0.009 -0.106,-0.017 -0.155,-0.024 -0.095,-0.013 -0.186,-0.033 -0.26,-0.05 -0.149,-0.035 -0.242,-0.066 -0.242,-0.066 z"
   id="path127"
   inkscape:connector-curvature="0"
   style="fill:#683c11" />
	</g>
	<g
   id="g135">
		<line
   x1="65.517998"
   y1="89.945999"
   x2="68.530998"
   y2="89.945999"
   id="line131"
   style="fill:#dedc00" />
		<path
   d="m 65.518,89.946 c 0,0 0.047,-0.079 0.129,-0.194 0.041,-0.057 0.091,-0.126 0.149,-0.193 0.029,-0.035 0.059,-0.072 0.091,-0.111 0.032,-0.037 0.066,0.012 0.101,-0.002 0.282,0 0.659,0 1.036,0 0.377,0 0.753,0 1.036,0 0.035,0.016 0.069,-0.037 0.101,0.009 0.032,0.039 0.063,0.076 0.091,0.111 0.057,0.074 0.107,0.138 0.149,0.191 0.082,0.12 0.129,0.189 0.129,0.189 0,0 -0.047,0.069 -0.129,0.189 -0.041,0.053 -0.091,0.118 -0.149,0.191 -0.029,0.035 -0.059,0.072 -0.091,0.111 -0.032,0.046 -0.066,-0.007 -0.101,0.009 -0.282,0 -0.659,0 -1.036,0 -0.377,0 -0.753,0 -1.036,0 -0.035,-0.014 -0.069,0.035 -0.101,-0.002 -0.032,-0.039 -0.063,-0.076 -0.091,-0.111 -0.057,-0.066 -0.107,-0.136 -0.149,-0.193 -0.082,-0.114 -0.129,-0.194 -0.129,-0.194 z"
   id="path133"
   inkscape:connector-curvature="0"
   style="fill:#683c11" />
	</g>
	<g
   id="g141">
		<line
   x1="65.517998"
   y1="91.867996"
   x2="68.530998"
   y2="93.484001"
   id="line137"
   style="fill:#dedc00" />
		<path
   d="m 65.518,91.868 c 0,0 0.084,-0.044 0.221,-0.102 0.068,-0.028 0.151,-0.063 0.24,-0.09 0.045,-0.015 0.093,-0.031 0.144,-0.049 0.05,-0.015 0.06,0.046 0.102,0.052 0.282,0.151 0.659,0.353 1.036,0.555 0.377,0.202 0.753,0.404 1.036,0.555 0.028,0.033 0.087,0.004 0.097,0.062 0.014,0.052 0.027,0.101 0.039,0.147 0.026,0.09 0.043,0.177 0.058,0.248 0.029,0.144 0.04,0.236 0.04,0.236 0,0 -0.083,0.041 -0.219,0.097 -0.067,0.027 -0.15,0.061 -0.239,0.089 -0.045,0.015 -0.093,0.031 -0.144,0.049 -0.054,0.023 -0.062,-0.042 -0.105,-0.047 -0.282,-0.151 -0.659,-0.353 -1.036,-0.555 -0.377,-0.202 -0.753,-0.404 -1.036,-0.555 -0.029,-0.032 -0.086,-0.007 -0.1,-0.056 -0.014,-0.052 -0.027,-0.101 -0.039,-0.147 -0.026,-0.089 -0.043,-0.177 -0.057,-0.25 -0.028,-0.144 -0.038,-0.239 -0.038,-0.239 z"
   id="path139"
   inkscape:connector-curvature="0"
   style="fill:#683c11" />
	</g>
	<g
   id="g147">
		<line
   x1="64.949997"
   y1="93.746002"
   x2="65.517998"
   y2="96.889999"
   id="line143"
   style="fill:#dedc00" />
		<path
   d="m 64.95,93.746 c 0,0 0.087,0.035 0.216,0.101 0.064,0.033 0.142,0.073 0.218,0.121 0.04,0.024 0.082,0.049 0.126,0.076 0.042,0.027 0,0.071 0.021,0.105 0.053,0.295 0.124,0.688 0.195,1.081 0.071,0.393 0.142,0.786 0.195,1.081 -0.009,0.04 0.049,0.066 0.011,0.107 -0.032,0.041 -0.063,0.079 -0.092,0.115 -0.062,0.073 -0.116,0.137 -0.16,0.189 -0.096,0.106 -0.162,0.169 -0.162,0.169 0,0 -0.083,-0.036 -0.211,-0.102 -0.06,-0.034 -0.133,-0.074 -0.216,-0.121 -0.04,-0.024 -0.082,-0.049 -0.126,-0.076 C 64.914,96.567 64.96,96.522 64.937,96.488 64.884,96.193 64.813,95.8 64.742,95.407 64.671,95.014 64.6,94.621 64.547,94.326 64.554,94.287 64.5,94.26 64.53,94.22 c 0.032,-0.041 0.063,-0.079 0.092,-0.115 0.055,-0.072 0.114,-0.136 0.162,-0.189 0.097,-0.107 0.166,-0.17 0.166,-0.17 z"
   id="path145"
   inkscape:connector-curvature="0"
   style="fill:#683c11" />
	</g>
	<g
   id="g153">
		<line
   x1="62.068001"
   y1="93.484001"
   x2="61.849998"
   y2="96.235001"
   id="line149"
   style="fill:#dedc00" />
		<path
   d="m 62.068,93.484 c 0,0 0.075,0.049 0.184,0.134 0.054,0.042 0.119,0.093 0.181,0.151 0.033,0.029 0.067,0.06 0.104,0.092 0.034,0.032 -0.017,0.059 -0.005,0.093 -0.02,0.258 -0.048,0.602 -0.075,0.946 -0.027,0.344 -0.055,0.688 -0.075,0.946 -0.019,0.031 0.032,0.066 -0.016,0.092 -0.041,0.026 -0.08,0.051 -0.117,0.075 -0.078,0.047 -0.146,0.087 -0.202,0.121 -0.126,0.066 -0.198,0.103 -0.198,0.103 0,0 -0.065,-0.048 -0.179,-0.133 -0.05,-0.042 -0.111,-0.093 -0.18,-0.151 -0.033,-0.029 -0.067,-0.06 -0.104,-0.092 -0.043,-0.033 0.012,-0.06 -0.001,-0.093 0.02,-0.258 0.048,-0.602 0.075,-0.946 0.027,-0.344 0.055,-0.688 0.075,-0.946 0.017,-0.031 -0.029,-0.066 0.009,-0.092 0.041,-0.026 0.08,-0.051 0.117,-0.075 0.07,-0.047 0.143,-0.087 0.203,-0.12 0.122,-0.069 0.204,-0.105 0.204,-0.105 z"
   id="path151"
   inkscape:connector-curvature="0"
   style="fill:#683c11" />
	</g>
	<g
   id="g159">
		<line
   x1="60.738998"
   y1="93.178001"
   x2="58.400002"
   y2="95.710999"
   id="line155"
   style="fill:#dedc00" />
		<path
   d="m 60.739,93.178 c 0,0 0.022,0.093 0.042,0.241 0.01,0.073 0.022,0.162 0.026,0.256 0.003,0.048 0.007,0.098 0.01,0.152 0.002,0.052 -0.06,0.047 -0.077,0.087 -0.219,0.237 -0.512,0.554 -0.804,0.871 -0.292,0.317 -0.585,0.633 -0.804,0.871 -0.039,0.019 -0.027,0.083 -0.085,0.079 -0.054,0.001 -0.105,0.001 -0.152,0.002 -0.094,0.003 -0.183,-0.002 -0.256,-0.005 -0.147,-0.008 -0.239,-0.019 -0.239,-0.019 0,0 -0.019,-0.091 -0.038,-0.237 -0.009,-0.072 -0.021,-0.161 -0.025,-0.255 -0.003,-0.048 -0.007,-0.098 -0.01,-0.152 -0.009,-0.058 0.057,-0.05 0.072,-0.091 0.219,-0.237 0.512,-0.554 0.804,-0.871 0.292,-0.317 0.585,-0.633 0.804,-0.871 0.038,-0.02 0.028,-0.082 0.08,-0.084 0.054,-0.001 0.105,-0.001 0.152,-0.002 0.093,-0.003 0.183,0.002 0.257,0.006 0.149,0.008 0.243,0.022 0.243,0.022 z"
   id="path157"
   inkscape:connector-curvature="0"
   style="fill:#683c11" />
	</g>
	<g
   id="g165">
		<line
   x1="61.849998"
   y1="91.518997"
   x2="58.400002"
   y2="91.300003"
   id="line161"
   style="fill:#dedc00" />
		<path
   d="m 61.85,91.519 c 0,0 -0.059,0.076 -0.161,0.184 -0.051,0.054 -0.112,0.12 -0.182,0.182 -0.035,0.033 -0.072,0.067 -0.112,0.104 -0.039,0.034 -0.075,-0.017 -0.116,-0.005 -0.323,-0.02 -0.755,-0.048 -1.186,-0.075 -0.431,-0.027 -0.862,-0.055 -1.186,-0.075 -0.039,-0.019 -0.082,0.032 -0.115,-0.016 -0.034,-0.041 -0.067,-0.08 -0.098,-0.117 C 58.633,91.63 58.58,91.558 58.536,91.499 58.449,91.379 58.4,91.3 58.4,91.3 c 0,0 0.059,-0.072 0.16,-0.179 0.051,-0.052 0.112,-0.118 0.182,-0.18 0.035,-0.033 0.072,-0.067 0.112,-0.104 0.04,-0.043 0.075,0.012 0.117,-0.001 0.323,0.02 0.755,0.048 1.186,0.075 0.431,0.027 0.862,0.055 1.186,0.075 0.04,0.017 0.081,-0.03 0.116,0.009 0.034,0.041 0.067,0.08 0.098,0.117 0.062,0.07 0.114,0.143 0.158,0.203 0.086,0.121 0.135,0.204 0.135,0.204 z"
   id="path163"
   inkscape:connector-curvature="0"
   style="fill:#683c11" />
	</g>
	<g
   id="g171">
		<line
   x1="61.588001"
   y1="89.640999"
   x2="58.661999"
   y2="86.932999"
   id="line167"
   style="fill:#dedc00" />
		<path
   d="m 61.588,89.641 c 0,0 -0.099,0.016 -0.258,0.026 -0.079,0.005 -0.174,0.011 -0.275,0.008 -0.051,0 -0.106,-10e-4 -0.164,-10e-4 -0.056,-0.002 -0.056,-0.068 -0.1,-0.09 -0.274,-0.254 -0.64,-0.592 -1.006,-0.931 -0.366,-0.338 -0.731,-0.677 -1.006,-0.931 -0.023,-0.044 -0.092,-0.035 -0.092,-0.097 -0.005,-0.058 -0.009,-0.112 -0.014,-0.163 -0.01,-0.101 -0.012,-0.196 -0.014,-0.274 -0.003,-0.157 0.003,-0.255 0.003,-0.255 0,0 0.097,-0.013 0.254,-0.022 0.078,-0.004 0.173,-0.01 0.274,-0.007 0.051,0 0.106,0.001 0.164,0.001 0.062,-0.005 0.059,0.065 0.104,0.085 0.274,0.254 0.64,0.592 1.006,0.931 0.366,0.338 0.731,0.677 1.006,0.931 0.025,0.042 0.091,0.037 0.097,0.093 0.005,0.058 0.009,0.112 0.014,0.163 0.011,0.1 0.012,0.196 0.013,0.275 0.002,0.157 -0.006,0.258 -0.006,0.258 z"
   id="path169"
   inkscape:connector-curvature="0"
   style="fill:#683c11" />
	</g>
</g>







</svg>