<?xml version="1.0" encoding="UTF-8" standalone="no"?>
<!-- Generator: Adobe Illustrator 17.0.0, SVG Export Plug-In . SVG Version: 6.00 Build 0)  -->

<svg
   xmlns:dc="http://purl.org/dc/elements/1.1/"
   xmlns:cc="http://creativecommons.org/ns#"
   xmlns:rdf="http://www.w3.org/1999/02/22-rdf-syntax-ns#"
   xmlns:svg="http://www.w3.org/2000/svg"
   xmlns="http://www.w3.org/2000/svg"
   xmlns:sodipodi="http://sodipodi.sourceforge.net/DTD/sodipodi-0.dtd"
   xmlns:inkscape="http://www.inkscape.org/namespaces/inkscape"
   version="1.1"
   x="0px"
   y="0px"
   width="97.210999"
   height="145.31796"
   viewBox="0 0 97.210999 145.31796"
   enable-background="new 0 0 1200 150"
   xml:space="preserve"
   id="svg1263"
   sodipodi:docname="1.svg"
   inkscape:version="0.92.4 (5da689c313, 2019-01-14)"><metadata
   id="metadata1269"><rdf:RDF><cc:Work
       rdf:about=""><dc:format>image/svg+xml</dc:format><dc:type
         rdf:resource="http://purl.org/dc/dcmitype/StillImage" /><dc:title></dc:title></cc:Work></rdf:RDF></metadata><defs
   id="defs1267" /><sodipodi:namedview
   pagecolor="#ffffff"
   bordercolor="#666666"
   borderopacity="1"
   objecttolerance="10"
   gridtolerance="10"
   guidetolerance="10"
   inkscape:pageopacity="0"
   inkscape:pageshadow="2"
   inkscape:window-width="1920"
   inkscape:window-height="1017"
   id="namedview1265"
   showgrid="false"
   inkscape:zoom="0.66939442"
   inkscape:cx="808.35092"
   inkscape:cy="-77.097216"
   inkscape:window-x="-8"
   inkscape:window-y="-8"
   inkscape:window-maximized="1"
   inkscape:current-layer="svg1263"
   fit-margin-top="0"
   fit-margin-left="0"
   fit-margin-right="0"
   fit-margin-bottom="0" />
<g
   id="Слой_9"
   transform="translate(-175.855,-2.3090357)">
</g>

<g
   id="Слой_2__x28_копия_x29_"
   transform="translate(-175.855,-2.3090357)">
	<path
   d="m 215.639,3.734 c 4.151,-2.184 15.066,-1.875 18.734,1.048 2.807,2.237 6.157,12.97 6.157,12.97 l -33.015,-0.655 c 0.002,0 4.665,-11.543 8.124,-13.363 z"
   id="path174"
   inkscape:connector-curvature="0"
   style="fill:#ca9e67" />
	<polygon
   points="211.12,9.53 237.4,9.53 238.524,12.154 209.75,12.154 "
   id="polygon176"
   style="fill:#009640" />
	<ellipse
   cx="223.754"
   cy="24.325001"
   rx="34.855999"
   ry="10.939"
   id="ellipse178"
   style="fill:#b17f4a" />
	<polygon
   points="212.219,23.512 211.12,22.375 199.67,31.644 202.538,34.312 "
   id="polygon180"
   style="fill:#f39200" />
	<polygon
   points="210.629,28.847 209.283,28.017 202.203,37.019 204.806,38.482 "
   id="polygon182"
   style="fill:#f39200" />
	<polygon
   points="211.44,32.562 209.915,32.143 206.618,39.235 209.517,39.945 "
   id="polygon184"
   style="fill:#f39200" />
	<polygon
   points="236.353,23.512 237.453,22.375 248.902,31.644 246.034,34.312 "
   id="polygon186"
   style="fill:#f39200" />
	<polygon
   points="237.943,28.847 239.289,28.017 246.369,37.019 243.766,38.482 "
   id="polygon188"
   style="fill:#f39200" />
	<polygon
   points="237.132,32.562 238.657,32.143 241.954,39.235 239.055,39.945 "
   id="polygon190"
   style="fill:#f39200" />
	<path
   d="m 239.278,28.51 c 0,8.353 -6.771,15.124 -15.124,15.124 -8.353,0 -15.124,-6.771 -15.124,-15.124 0,-3.132 2.583,-8.456 2.583,-8.456 l 25.018,-0.094 c -0.001,0 2.647,5.377 2.647,8.55 z"
   id="path192"
   inkscape:connector-curvature="0"
   style="fill:#f7d7ba" />
	<path
   stroke-miterlimit="10"
   d="m 216.982,33.768 c 0,0 3.111,3.898 7.828,3.898 4.454,0 7.402,-3.177 7.402,-3.177"
   id="path194"
   inkscape:connector-curvature="0"
   style="fill:none;stroke:#683c11;stroke-miterlimit:10" />
	<ellipse
   cx="216.16299"
   cy="32.151001"
   rx="2.6199999"
   ry="2.1619999"
   id="ellipse196"
   style="fill:#e6007e" />
	<ellipse
   cx="232.847"
   cy="32.735001"
   rx="2.6199999"
   ry="2.1619999"
   id="ellipse198"
   style="fill:#e6007e" />
	<circle
   stroke-miterlimit="10"
   cx="224.409"
   cy="30.992001"
   r="2.4809999"
   id="circle200"
   style="fill:#936037;stroke:#432918;stroke-miterlimit:10" />
	<circle
   stroke-miterlimit="10"
   cx="217.73599"
   cy="27.577999"
   r="1.572"
   id="circle202"
   style="fill:#ffffff;stroke:#000000;stroke-miterlimit:10" />
	<circle
   stroke-miterlimit="10"
   cx="232.409"
   cy="27.577999"
   r="1.572"
   id="circle204"
   style="fill:#ffffff;stroke:#000000;stroke-miterlimit:10" />
	<path
   d="m 175.856,50.155 1.834,2.315 c 0,0 4.734,-1.671 6.376,-1.965 1.55,-0.278 6.288,-0.349 6.288,-0.349 0,0 -5.992,1.475 -7.861,2.315 -1.785,0.802 -6.638,4.149 -6.638,4.149 l 2.795,2.62 c 0,0 3.687,-3.775 5.415,-4.804 1.666,-0.991 8.123,-3.275 8.123,-3.275 0,0 -6.276,4.232 -8.166,5.895 -1.618,1.423 -5.895,6.288 -5.895,6.288 l 3.494,1.179 c 0,0 3.564,-4.835 4.978,-6.245 1.657,-1.651 7.337,-5.808 7.337,-5.808 l 0.524,-3.93 c 0,0 -8.149,-0.536 -10.119,-0.415 -2.745,0.166 -8.485,2.03 -8.485,2.03 z"
   id="path206"
   inkscape:connector-curvature="0"
   style="fill:#f39200" />
	<path
   d="m 273.066,50.155 -1.834,2.315 c 0,0 -4.734,-1.671 -6.376,-1.965 -1.55,-0.278 -6.289,-0.349 -6.289,-0.349 0,0 5.992,1.475 7.861,2.315 1.785,0.802 6.638,4.149 6.638,4.149 l -2.795,2.62 c 0,0 -3.687,-3.775 -5.415,-4.804 -1.666,-0.991 -8.123,-3.275 -8.123,-3.275 0,0 6.276,4.232 8.166,5.895 1.618,1.423 5.895,6.288 5.895,6.288 l -3.494,1.179 c 0,0 -3.564,-4.835 -4.978,-6.245 -1.657,-1.651 -7.337,-5.808 -7.337,-5.808 l -0.524,-3.93 c 0,0 8.149,-0.536 10.119,-0.415 2.746,0.166 8.486,2.03 8.486,2.03 z"
   id="path208"
   inkscape:connector-curvature="0"
   style="fill:#f39200" />
	<polygon
   points="237.649,77.886 209.613,77.886 209.613,59.937 192.844,59.675 192.844,44.871 255.204,44.871 255.204,59.675 237.518,59.806 "
   id="polygon210"
   style="fill:#e30613" />
	<circle
   cx="199.65601"
   cy="49.762001"
   r="1.965"
   id="circle212"
   style="fill:#ffffff" />
	<circle
   cx="196.425"
   cy="56.313"
   r="1.965"
   id="circle214"
   style="fill:#ffffff" />
	<circle
   cx="207.386"
   cy="48.539001"
   r="1.965"
   id="circle216"
   style="fill:#ffffff" />
	<circle
   cx="204.504"
   cy="55.09"
   r="1.965"
   id="circle218"
   style="fill:#ffffff" />
	<circle
   cx="213.08501"
   cy="52.470001"
   r="1.965"
   id="circle220"
   style="fill:#ffffff" />
	<circle
   cx="212.27699"
   cy="58.278"
   r="1.965"
   id="circle222"
   style="fill:#ffffff" />
	<circle
   cx="213.08501"
   cy="68.321999"
   r="1.965"
   id="circle224"
   style="fill:#ffffff" />
	<circle
   cx="216.60001"
   cy="74.261002"
   r="1.965"
   id="circle226"
   style="fill:#ffffff" />
	<circle
   cx="225.59599"
   cy="75.396004"
   r="1.965"
   id="circle228"
   style="fill:#ffffff" />
	<circle
   cx="221.535"
   cy="69.108002"
   r="1.965"
   id="circle230"
   style="fill:#ffffff" />
	<circle
   cx="230.22701"
   cy="69.108002"
   r="1.965"
   id="circle232"
   style="fill:#ffffff" />
	<circle
   cx="218.506"
   cy="62.556999"
   r="1.965"
   id="circle234"
   style="fill:#ffffff" />
	<circle
   cx="225.85001"
   cy="62.208"
   r="1.965"
   id="circle236"
   style="fill:#ffffff" />
	<circle
   cx="230.882"
   cy="53.125"
   r="1.965"
   id="circle238"
   style="fill:#ffffff" />
	<circle
   cx="233.76401"
   cy="63.342999"
   r="1.965"
   id="circle240"
   style="fill:#ffffff" />
	<circle
   cx="234.28799"
   cy="74.821999"
   r="1.965"
   id="circle242"
   style="fill:#ffffff" />
	<circle
   cx="236.55901"
   cy="48.539001"
   r="1.965"
   id="circle244"
   style="fill:#ffffff" />
	<circle
   cx="236.25301"
   cy="57.055"
   r="1.965"
   id="circle246"
   style="fill:#ffffff" />
	<circle
   cx="242.28"
   cy="52.470001"
   r="1.965"
   id="circle248"
   style="fill:#ffffff" />
	<circle
   cx="245.77299"
   cy="57.055"
   r="1.965"
   id="circle250"
   style="fill:#ffffff" />
	<circle
   cx="248.83"
   cy="48.931999"
   r="1.965"
   id="circle252"
   style="fill:#ffffff" />
	<circle
   cx="251.625"
   cy="55.09"
   r="1.965"
   id="circle254"
   style="fill:#ffffff" />
	<circle
   cx="219.57001"
   cy="56.313"
   r="1.965"
   id="circle256"
   style="fill:#ffffff" />
	<circle
   cx="224.409"
   cy="51.727001"
   r="1.965"
   id="circle258"
   style="fill:#ffffff" />
	<path
   d="m 197.56,108.935 c 0,0 2.83,-1.32 5.197,-3.188 1.834,-1.447 4.76,-4.28 4.76,-4.28 l 1.572,0.786 c 0,0 -2.751,3.843 -4.585,5.459 -1.363,1.2 -5.633,4.367 -5.633,4.367 z"
   id="path260"
   inkscape:connector-curvature="0"
   style="fill:#f39200" />
	<path
   d="m 201.709,115.835 c 0,0 2.739,-4.196 4.323,-6.638 1.572,-2.424 3.674,-6.933 3.674,-6.933 l 1.722,0.351 c 0,0 -2.204,6.602 -3.344,9.116 -0.891,1.965 -3.581,6.114 -3.581,6.114 z"
   id="path262"
   inkscape:connector-curvature="0"
   style="fill:#f39200" />
	<path
   d="m 207.56,120.551 c 0,0 2.446,-6.245 3.342,-9.503 0.767,-2.785 1.592,-8.14 1.592,-8.14 l 1.935,0.393 c 0,0 -0.437,6.947 -0.894,9.668 -0.357,2.127 -2.541,8.193 -2.541,8.193 z"
   id="path264"
   inkscape:connector-curvature="0"
   style="fill:#f39200" />
	<path
   d="m 215.377,122.429 c 0,0 0.316,-5.573 0.355,-8.952 0.044,-3.86 0.198,-9.302 0.198,-9.302 l 1.935,0.393 c 0,0 0.712,7.202 0.874,9.957 0.131,2.227 0.306,7.904 0.306,7.904 z"
   id="path266"
   inkscape:connector-curvature="0"
   style="fill:#f39200" />
	<path
   d="m 250.095,108.214 c 0,0 -2.83,-1.32 -5.197,-3.188 -1.834,-1.447 -4.76,-4.28 -4.76,-4.28 l -1.572,0.786 c 0,0 2.751,3.843 4.585,5.459 1.363,1.2 5.633,4.367 5.633,4.367 z"
   id="path268"
   inkscape:connector-curvature="0"
   style="fill:#f39200" />
	<path
   d="m 250.095,123.608 c 0,0 -5.758,-8.977 -7.075,-11.573 -1.449,-2.857 -4.679,-10.951 -4.679,-10.951 l -1.722,0.351 c 0,0 2.117,8.087 3.257,10.6 0.891,1.965 7.664,13.931 7.664,13.931 z"
   id="path270"
   inkscape:connector-curvature="0"
   style="fill:#f39200" />
	<path
   d="m 240.881,124.984 c 0,0 -2.338,-7.411 -2.904,-10.743 -0.778,-4.578 -1.638,-12.511 -1.638,-12.511 h -1.9 c 0,0 0.537,10.155 0.994,12.877 0.357,2.127 2.412,12.146 2.412,12.146 z"
   id="path272"
   inkscape:connector-curvature="0"
   style="fill:#f39200" />
	<path
   d="m 231.819,123.019 c 0,0 0.466,-6.354 0.558,-9.717 0.106,-3.859 1.014,-11.038 1.014,-11.038 l -1.801,0.645 c 0,0 -1.702,7.145 -2.216,10.437 -0.344,2.204 -0.895,8.756 -0.895,8.756 z"
   id="path274"
   inkscape:connector-curvature="0"
   style="fill:#f39200" />
	<path
   d="m 224.941,84.043 h -2.62 v 62.492 c 0,0 0.295,1.092 1.31,1.092 1.081,0 1.31,-1.092 1.31,-1.092 z"
   id="path276"
   inkscape:connector-curvature="0"
   style="fill:#7d4e24" />
	<polygon
   points="224.024,87.711 228.085,104.219 243.021,100.943 237.649,77.886 209.613,77.886 204.504,101.729 219.177,105.529 "
   id="polygon278"
   style="fill:#312783" />
	<polygon
   points="224.243,45.526 227.939,48.932 233.895,48.932 229.264,42.12 220.356,42.12 214.591,48.932 221.404,48.932 "
   id="polygon280"
   style="fill:#009fe3" />
	<path
   d="m 217.31,93.984 c -0.078,0.516 -0.578,0.869 -1.116,0.788 l -4.995,-0.756 c -0.538,-0.081 -0.911,-0.566 -0.833,-1.083 l 1.185,-7.832 c 0.078,-0.516 0.578,-0.869 1.116,-0.788 l 4.995,0.756 c 0.538,0.081 0.911,0.566 0.833,1.083 z"
   id="path282"
   inkscape:connector-curvature="0"
   style="fill:#95c11f" />
	<g
   id="g288">
		<line
   x1="213.08501"
   y1="86.008003"
   x2="213.478"
   y2="83.191002"
   id="line284"
   style="fill:#dedc00" />
		<path
   d="m 213.085,86.008 c 0,0 -0.072,-0.055 -0.176,-0.148 -0.051,-0.046 -0.113,-0.103 -0.172,-0.166 -0.031,-0.032 -0.063,-0.065 -0.098,-0.101 -0.032,-0.035 0.021,-0.06 0.011,-0.095 0.037,-0.264 0.086,-0.616 0.135,-0.968 0.049,-0.352 0.098,-0.704 0.135,-0.968 0.021,-0.031 -0.028,-0.07 0.022,-0.094 0.043,-0.025 0.083,-0.048 0.122,-0.07 0.081,-0.043 0.151,-0.081 0.209,-0.112 0.13,-0.06 0.204,-0.095 0.204,-0.095 0,0 0.062,0.054 0.17,0.147 0.047,0.046 0.104,0.102 0.17,0.165 0.031,0.032 0.063,0.065 0.098,0.101 0.041,0.036 -0.016,0.061 -0.005,0.096 -0.037,0.264 -0.086,0.616 -0.135,0.968 -0.049,0.352 -0.098,0.704 -0.135,0.968 -0.019,0.031 0.025,0.069 -0.015,0.094 -0.043,0.025 -0.083,0.048 -0.122,0.07 -0.073,0.044 -0.149,0.082 -0.21,0.112 -0.124,0.063 -0.208,0.096 -0.208,0.096 z"
   id="path286"
   inkscape:connector-curvature="0"
   style="fill:#683c11" />
	</g>
	<g
   id="g294">
		<line
   x1="215.07201"
   y1="85.833"
   x2="216.207"
   y2="83.606003"
   id="line290"
   style="fill:#dedc00" />
		<path
   d="m 215.072,85.833 c 0,0 -0.045,-0.067 -0.124,-0.184 -0.035,-0.056 -0.078,-0.125 -0.116,-0.197 -0.02,-0.037 -0.042,-0.076 -0.064,-0.118 -0.021,-0.04 0.036,-0.043 0.036,-0.076 0.106,-0.209 0.248,-0.487 0.39,-0.766 0.142,-0.278 0.284,-0.557 0.39,-0.766 0.028,-0.019 -0.007,-0.068 0.046,-0.071 0.047,-0.006 0.091,-0.012 0.133,-0.017 0.087,-0.009 0.164,-0.017 0.227,-0.023 0.138,-0.006 0.217,-0.01 0.217,-0.01 0,0 0.044,0.066 0.12,0.182 0.032,0.055 0.07,0.121 0.115,0.197 0.02,0.037 0.042,0.076 0.064,0.118 0.029,0.045 -0.032,0.045 -0.03,0.079 -0.106,0.209 -0.248,0.487 -0.39,0.766 -0.142,0.278 -0.284,0.557 -0.39,0.766 -0.026,0.02 0.005,0.067 -0.04,0.074 -0.047,0.006 -0.091,0.012 -0.133,0.017 -0.081,0.012 -0.162,0.018 -0.228,0.022 -0.143,0.005 -0.223,0.007 -0.223,0.007 z"
   id="path292"
   inkscape:connector-curvature="0"
   style="fill:#683c11" />
	</g>
	<g
   id="g300">
		<line
   x1="216.60001"
   y1="86.750999"
   x2="219.57001"
   y2="84.599998"
   id="line296"
   style="fill:#dedc00" />
		<path
   d="m 216.6,86.751 c 0,0 0,-0.098 0.014,-0.25 0.007,-0.076 0.016,-0.168 0.033,-0.262 0.008,-0.049 0.016,-0.1 0.025,-0.155 0.01,-0.053 0.072,-0.037 0.099,-0.074 0.278,-0.202 0.65,-0.47 1.021,-0.739 0.371,-0.269 0.742,-0.538 1.021,-0.739 0.044,-0.012 0.046,-0.079 0.105,-0.065 0.055,0.009 0.106,0.017 0.155,0.024 0.096,0.013 0.186,0.033 0.259,0.049 0.148,0.033 0.239,0.061 0.239,0.061 0,0 -0.002,0.095 -0.017,0.246 -0.008,0.074 -0.017,0.166 -0.034,0.261 -0.008,0.049 -0.016,0.1 -0.025,0.155 -0.005,0.06 -0.069,0.041 -0.095,0.079 -0.278,0.202 -0.65,0.47 -1.021,0.739 -0.371,0.269 -0.742,0.538 -1.021,0.739 -0.043,0.014 -0.048,0.077 -0.101,0.071 -0.055,-0.009 -0.106,-0.017 -0.155,-0.024 -0.095,-0.013 -0.186,-0.033 -0.26,-0.05 -0.149,-0.036 -0.242,-0.066 -0.242,-0.066 z"
   id="path298"
   inkscape:connector-curvature="0"
   style="fill:#683c11" />
	</g>
	<g
   id="g306">
		<line
   x1="216.207"
   y1="89.239998"
   x2="219.22"
   y2="89.239998"
   id="line302"
   style="fill:#dedc00" />
		<path
   d="m 216.207,89.24 c 0,0 0.047,-0.079 0.129,-0.194 0.041,-0.057 0.091,-0.126 0.149,-0.193 0.029,-0.035 0.059,-0.072 0.091,-0.111 0.032,-0.037 0.066,0.012 0.101,-0.002 0.282,0 0.659,0 1.036,0 0.377,0 0.753,0 1.036,0 0.035,0.016 0.069,-0.037 0.101,0.009 0.032,0.039 0.063,0.076 0.091,0.111 0.057,0.074 0.107,0.138 0.149,0.191 0.082,0.12 0.129,0.189 0.129,0.189 0,0 -0.047,0.069 -0.129,0.189 -0.041,0.053 -0.091,0.118 -0.149,0.191 -0.029,0.035 -0.059,0.072 -0.091,0.111 -0.032,0.046 -0.066,-0.007 -0.101,0.009 -0.282,0 -0.659,0 -1.036,0 -0.377,0 -0.753,0 -1.036,0 -0.035,-0.014 -0.069,0.035 -0.101,-0.002 -0.032,-0.039 -0.063,-0.076 -0.091,-0.111 -0.057,-0.066 -0.107,-0.136 -0.149,-0.193 -0.082,-0.115 -0.129,-0.194 -0.129,-0.194 z"
   id="path304"
   inkscape:connector-curvature="0"
   style="fill:#683c11" />
	</g>
	<g
   id="g312">
		<line
   x1="216.207"
   y1="91.161003"
   x2="219.22"
   y2="92.777"
   id="line308"
   style="fill:#dedc00" />
		<path
   d="m 216.207,91.161 c 0,0 0.084,-0.044 0.221,-0.102 0.068,-0.028 0.151,-0.063 0.24,-0.09 0.045,-0.015 0.093,-0.031 0.144,-0.049 0.05,-0.015 0.06,0.046 0.102,0.052 0.283,0.151 0.659,0.353 1.036,0.555 0.377,0.202 0.753,0.404 1.036,0.555 0.028,0.033 0.087,0.004 0.097,0.062 0.014,0.052 0.027,0.101 0.039,0.147 0.026,0.09 0.043,0.177 0.058,0.248 0.029,0.144 0.04,0.236 0.04,0.236 0,0 -0.083,0.041 -0.219,0.097 -0.067,0.027 -0.15,0.061 -0.239,0.089 -0.045,0.015 -0.093,0.031 -0.144,0.049 -0.054,0.023 -0.062,-0.042 -0.105,-0.047 -0.282,-0.151 -0.659,-0.353 -1.036,-0.555 -0.377,-0.202 -0.753,-0.404 -1.036,-0.555 -0.029,-0.032 -0.086,-0.007 -0.1,-0.056 -0.014,-0.052 -0.027,-0.101 -0.039,-0.147 -0.026,-0.089 -0.043,-0.177 -0.057,-0.25 -0.028,-0.144 -0.038,-0.239 -0.038,-0.239 z"
   id="path310"
   inkscape:connector-curvature="0"
   style="fill:#683c11" />
	</g>
	<g
   id="g318">
		<line
   x1="215.63901"
   y1="93.039001"
   x2="216.207"
   y2="96.182999"
   id="line314"
   style="fill:#dedc00" />
		<path
   d="m 215.639,93.039 c 0,0 0.087,0.035 0.216,0.101 0.064,0.033 0.142,0.073 0.218,0.121 0.04,0.024 0.082,0.049 0.126,0.076 0.042,0.027 0,0.071 0.021,0.105 0.053,0.295 0.124,0.688 0.195,1.081 0.071,0.393 0.142,0.786 0.195,1.081 -0.009,0.04 0.049,0.066 0.011,0.107 -0.032,0.041 -0.063,0.079 -0.092,0.115 -0.062,0.073 -0.116,0.137 -0.16,0.189 -0.096,0.106 -0.162,0.169 -0.162,0.169 0,0 -0.083,-0.036 -0.211,-0.102 -0.06,-0.034 -0.133,-0.074 -0.216,-0.121 -0.04,-0.024 -0.082,-0.049 -0.126,-0.076 -0.051,-0.025 -0.005,-0.07 -0.028,-0.104 -0.053,-0.295 -0.124,-0.688 -0.195,-1.081 -0.071,-0.393 -0.142,-0.786 -0.195,-1.081 0.007,-0.039 -0.047,-0.066 -0.017,-0.106 0.032,-0.041 0.063,-0.079 0.092,-0.115 0.055,-0.072 0.114,-0.136 0.162,-0.189 0.097,-0.107 0.166,-0.17 0.166,-0.17 z"
   id="path316"
   inkscape:connector-curvature="0"
   style="fill:#683c11" />
	</g>
	<g
   id="g324">
		<line
   x1="212.757"
   y1="92.777"
   x2="212.539"
   y2="95.528"
   id="line320"
   style="fill:#dedc00" />
		<path
   d="m 212.757,92.777 c 0,0 0.075,0.049 0.184,0.134 0.054,0.042 0.119,0.093 0.181,0.151 0.033,0.029 0.067,0.06 0.104,0.092 0.034,0.032 -0.017,0.059 -0.005,0.093 -0.02,0.258 -0.048,0.602 -0.075,0.946 -0.027,0.344 -0.055,0.688 -0.075,0.946 -0.019,0.031 0.032,0.066 -0.016,0.092 -0.041,0.026 -0.08,0.051 -0.117,0.075 -0.078,0.047 -0.146,0.087 -0.202,0.121 -0.126,0.066 -0.198,0.103 -0.198,0.103 0,0 -0.065,-0.048 -0.179,-0.133 -0.05,-0.042 -0.111,-0.093 -0.18,-0.151 -0.033,-0.029 -0.067,-0.06 -0.104,-0.092 -0.043,-0.033 0.012,-0.06 -10e-4,-0.093 0.02,-0.258 0.048,-0.602 0.075,-0.946 0.027,-0.344 0.055,-0.688 0.075,-0.946 0.017,-0.031 -0.029,-0.066 0.009,-0.092 0.041,-0.026 0.08,-0.051 0.117,-0.075 0.07,-0.047 0.143,-0.087 0.203,-0.12 0.122,-0.068 0.204,-0.105 0.204,-0.105 z"
   id="path322"
   inkscape:connector-curvature="0"
   style="fill:#683c11" />
	</g>
	<g
   id="g330">
		<line
   x1="211.429"
   y1="92.471001"
   x2="209.089"
   y2="95.003998"
   id="line326"
   style="fill:#dedc00" />
		<path
   d="m 211.429,92.471 c 0,0 0.022,0.093 0.042,0.241 0.01,0.073 0.022,0.162 0.026,0.256 0.003,0.048 0.007,0.098 0.01,0.152 0.002,0.052 -0.06,0.047 -0.077,0.087 -0.219,0.237 -0.512,0.554 -0.804,0.871 -0.292,0.317 -0.585,0.633 -0.804,0.871 -0.039,0.019 -0.027,0.083 -0.085,0.079 -0.054,10e-4 -0.105,10e-4 -0.152,0.002 -0.094,0.003 -0.183,-0.002 -0.256,-0.005 -0.147,-0.008 -0.239,-0.02 -0.239,-0.02 0,0 -0.019,-0.091 -0.038,-0.237 -0.009,-0.072 -0.021,-0.161 -0.025,-0.255 -0.003,-0.048 -0.007,-0.098 -0.01,-0.152 -0.009,-0.058 0.057,-0.05 0.072,-0.091 0.219,-0.237 0.512,-0.554 0.804,-0.871 0.292,-0.317 0.585,-0.633 0.804,-0.871 0.038,-0.02 0.028,-0.082 0.08,-0.084 0.054,-0.001 0.105,-0.001 0.152,-0.002 0.093,-0.003 0.183,0.002 0.257,0.006 0.148,0.009 0.243,0.023 0.243,0.023 z"
   id="path328"
   inkscape:connector-curvature="0"
   style="fill:#683c11" />
	</g>
	<g
   id="g336">
		<line
   x1="212.539"
   y1="90.811996"
   x2="209.089"
   y2="90.594002"
   id="line332"
   style="fill:#dedc00" />
		<path
   d="m 212.539,90.812 c 0,0 -0.059,0.076 -0.161,0.185 -0.051,0.054 -0.112,0.12 -0.182,0.182 -0.035,0.033 -0.072,0.067 -0.112,0.104 -0.039,0.034 -0.075,-0.017 -0.116,-0.005 -0.323,-0.02 -0.755,-0.048 -1.186,-0.075 -0.431,-0.027 -0.862,-0.055 -1.186,-0.075 -0.039,-0.019 -0.082,0.032 -0.115,-0.016 -0.034,-0.041 -0.067,-0.08 -0.098,-0.117 -0.061,-0.071 -0.114,-0.143 -0.158,-0.202 -0.087,-0.119 -0.136,-0.198 -0.136,-0.198 0,0 0.059,-0.072 0.16,-0.179 0.051,-0.052 0.112,-0.118 0.182,-0.18 0.035,-0.033 0.072,-0.067 0.112,-0.104 0.04,-0.043 0.075,0.012 0.117,-0.001 0.323,0.02 0.755,0.048 1.186,0.075 0.431,0.027 0.862,0.055 1.186,0.075 0.04,0.017 0.081,-0.03 0.116,0.009 0.034,0.041 0.067,0.08 0.098,0.117 0.062,0.07 0.114,0.143 0.158,0.203 0.086,0.12 0.135,0.202 0.135,0.202 z"
   id="path334"
   inkscape:connector-curvature="0"
   style="fill:#683c11" />
	</g>
	<g
   id="g342">
		<line
   x1="212.27699"
   y1="88.933998"
   x2="209.351"
   y2="86.226997"
   id="line338"
   style="fill:#dedc00" />
		<path
   d="m 212.277,88.934 c 0,0 -0.099,0.016 -0.258,0.026 -0.079,0.005 -0.174,0.011 -0.275,0.008 -0.051,0 -0.106,-0.001 -0.164,-0.001 -0.056,-0.002 -0.056,-0.068 -0.1,-0.09 -0.274,-0.254 -0.64,-0.592 -1.006,-0.931 -0.366,-0.338 -0.731,-0.677 -1.006,-0.931 -0.023,-0.044 -0.092,-0.035 -0.092,-0.097 -0.005,-0.058 -0.009,-0.112 -0.014,-0.163 -0.01,-0.101 -0.012,-0.196 -0.014,-0.274 -0.003,-0.157 0.003,-0.255 0.003,-0.255 0,0 0.097,-0.013 0.254,-0.022 0.078,-0.004 0.173,-0.01 0.274,-0.007 0.051,0 0.106,10e-4 0.164,10e-4 0.062,-0.005 0.059,0.065 0.104,0.085 0.274,0.254 0.64,0.592 1.006,0.931 0.366,0.338 0.731,0.677 1.006,0.931 0.025,0.042 0.091,0.037 0.097,0.093 0.005,0.058 0.009,0.112 0.014,0.163 0.011,0.1 0.012,0.196 0.013,0.275 0.002,0.158 -0.006,0.258 -0.006,0.258 z"
   id="path340"
   inkscape:connector-curvature="0"
   style="fill:#683c11" />
	</g>
</g>






</svg>