<?xml version="1.0" encoding="UTF-8" standalone="no"?>
<!-- Generator: Adobe Illustrator 17.0.0, SVG Export Plug-In . SVG Version: 6.00 Build 0)  -->

<svg
   xmlns:dc="http://purl.org/dc/elements/1.1/"
   xmlns:cc="http://creativecommons.org/ns#"
   xmlns:rdf="http://www.w3.org/1999/02/22-rdf-syntax-ns#"
   xmlns:svg="http://www.w3.org/2000/svg"
   xmlns="http://www.w3.org/2000/svg"
   xmlns:sodipodi="http://sodipodi.sourceforge.net/DTD/sodipodi-0.dtd"
   xmlns:inkscape="http://www.inkscape.org/namespaces/inkscape"
   version="1.1"
   x="0px"
   y="0px"
   width="97.209999"
   height="145.31796"
   viewBox="0 0 97.209999 145.31796"
   enable-background="new 0 0 1200 150"
   xml:space="preserve"
   id="svg1263"
   sodipodi:docname="4.svg"
   inkscape:version="0.92.4 (5da689c313, 2019-01-14)"><metadata
   id="metadata1269"><rdf:RDF><cc:Work
       rdf:about=""><dc:format>image/svg+xml</dc:format><dc:type
         rdf:resource="http://purl.org/dc/dcmitype/StillImage" /><dc:title></dc:title></cc:Work></rdf:RDF></metadata><defs
   id="defs1267" /><sodipodi:namedview
   pagecolor="#ffffff"
   bordercolor="#666666"
   borderopacity="1"
   objecttolerance="10"
   gridtolerance="10"
   guidetolerance="10"
   inkscape:pageopacity="0"
   inkscape:pageshadow="2"
   inkscape:window-width="1920"
   inkscape:window-height="1017"
   id="namedview1265"
   showgrid="false"
   inkscape:zoom="0.66939442"
   inkscape:cx="340.07073"
   inkscape:cy="-51.78869"
   inkscape:window-x="-8"
   inkscape:window-y="-8"
   inkscape:window-maximized="1"
   inkscape:current-layer="svg1263"
   fit-margin-top="0"
   fit-margin-left="0"
   fit-margin-right="0"
   fit-margin-bottom="0" />
<g
   id="Слой_9"
   transform="translate(-625.786,-2.1630357)">
</g>




<g
   id="Слой_2__x28_копия4_x29_"
   transform="translate(-625.786,-2.1630357)">
	<path
   d="m 665.57,3.588 c 4.151,-2.184 15.066,-1.875 18.734,1.048 2.807,2.237 6.157,12.97 6.157,12.97 l -33.015,-0.655 c 10e-4,0 4.664,-11.543 8.124,-13.363 z"
   id="path689"
   inkscape:connector-curvature="0"
   style="fill:#ca9e67" />
	<polygon
   points="661.05,9.384 687.331,9.384 688.455,12.008 659.68,12.008 "
   id="polygon691"
   style="fill:#ffed00" />
	<ellipse
   cx="673.685"
   cy="24.179001"
   rx="34.855999"
   ry="10.939"
   id="ellipse693"
   style="fill:#b17f4a" />
	<polygon
   points="662.149,23.366 661.05,22.229 649.6,31.498 652.469,34.167 "
   id="polygon695"
   style="fill:#f39200" />
	<polygon
   points="660.559,28.701 659.213,27.871 652.133,36.873 654.736,38.336 "
   id="polygon697"
   style="fill:#f39200" />
	<polygon
   points="661.37,32.416 659.845,31.997 656.549,39.089 659.447,39.8 "
   id="polygon699"
   style="fill:#f39200" />
	<polygon
   points="686.283,23.366 687.383,22.229 698.832,31.498 695.964,34.167 "
   id="polygon701"
   style="fill:#f39200" />
	<polygon
   points="687.874,28.701 689.22,27.871 696.299,36.873 693.696,38.336 "
   id="polygon703"
   style="fill:#f39200" />
	<polygon
   points="687.063,32.416 688.588,31.997 691.884,39.089 688.985,39.8 "
   id="polygon705"
   style="fill:#f39200" />
	<path
   d="m 689.208,28.364 c 0,8.353 -6.771,15.124 -15.124,15.124 -8.353,0 -15.124,-6.771 -15.124,-15.124 0,-3.132 2.583,-8.456 2.583,-8.456 l 25.018,-0.094 c 0,0 2.647,5.377 2.647,8.55 z"
   id="path707"
   inkscape:connector-curvature="0"
   style="fill:#f7d7ba" />
	<path
   stroke-miterlimit="10"
   d="m 666.913,33.622 c 0,0 3.112,3.898 7.828,3.898 4.454,0 7.402,-3.177 7.402,-3.177"
   id="path709"
   inkscape:connector-curvature="0"
   style="fill:none;stroke:#683c11;stroke-miterlimit:10" />
	<ellipse
   cx="666.09399"
   cy="32.005001"
   rx="2.6199999"
   ry="2.1619999"
   id="ellipse711"
   style="fill:#e6007e" />
	<ellipse
   cx="682.77698"
   cy="32.589001"
   rx="2.6199999"
   ry="2.1619999"
   id="ellipse713"
   style="fill:#e6007e" />
	<circle
   stroke-miterlimit="10"
   cx="674.34003"
   cy="30.846001"
   r="2.4809999"
   id="circle715"
   style="fill:#936037;stroke:#432918;stroke-miterlimit:10" />
	<circle
   stroke-miterlimit="10"
   cx="667.66602"
   cy="27.431999"
   r="1.572"
   id="circle717"
   style="fill:#ffffff;stroke:#000000;stroke-miterlimit:10" />
	<circle
   stroke-miterlimit="10"
   cx="682.33899"
   cy="27.431999"
   r="1.572"
   id="circle719"
   style="fill:#ffffff;stroke:#000000;stroke-miterlimit:10" />
	<path
   d="m 625.786,50.009 1.834,2.315 c 0,0 4.734,-1.671 6.376,-1.965 1.55,-0.278 6.289,-0.349 6.289,-0.349 0,0 -5.992,1.475 -7.861,2.315 -1.785,0.802 -6.638,4.149 -6.638,4.149 l 2.795,2.62 c 0,0 3.687,-3.775 5.415,-4.804 1.666,-0.991 8.123,-3.275 8.123,-3.275 0,0 -6.276,4.232 -8.166,5.895 -1.618,1.423 -5.895,6.288 -5.895,6.288 l 3.494,1.179 c 0,0 3.564,-4.835 4.978,-6.245 1.657,-1.651 7.337,-5.808 7.337,-5.808 l 0.524,-3.93 c 0,0 -8.149,-0.536 -10.119,-0.415 -2.746,0.167 -8.486,2.03 -8.486,2.03 z"
   id="path721"
   inkscape:connector-curvature="0"
   style="fill:#f39200" />
	<path
   d="m 722.996,50.009 -1.834,2.315 c 0,0 -4.734,-1.671 -6.376,-1.965 -1.55,-0.278 -6.289,-0.349 -6.289,-0.349 0,0 5.992,1.475 7.861,2.315 1.785,0.802 6.638,4.149 6.638,4.149 l -2.795,2.62 c 0,0 -3.687,-3.775 -5.415,-4.804 -1.666,-0.991 -8.123,-3.275 -8.123,-3.275 0,0 6.276,4.232 8.166,5.895 1.618,1.423 5.896,6.288 5.896,6.288 l -3.494,1.179 c 0,0 -3.564,-4.835 -4.978,-6.245 -1.657,-1.651 -7.337,-5.808 -7.337,-5.808 l -0.524,-3.93 c 0,0 8.149,-0.536 10.119,-0.415 2.745,0.167 8.485,2.03 8.485,2.03 z"
   id="path723"
   inkscape:connector-curvature="0"
   style="fill:#f39200" />
	<polygon
   points="687.579,77.74 659.543,77.74 659.543,59.791 642.774,59.529 642.774,44.725 705.135,44.725 705.135,59.529 687.448,59.66 "
   id="polygon725"
   style="fill:#009640" />
	<circle
   cx="649.586"
   cy="49.616001"
   r="1.965"
   id="circle727"
   style="fill:#ffffff" />
	<circle
   cx="646.35498"
   cy="56.167"
   r="1.965"
   id="circle729"
   style="fill:#ffffff" />
	<circle
   cx="657.31598"
   cy="48.393002"
   r="1.965"
   id="circle731"
   style="fill:#ffffff" />
	<circle
   cx="654.43402"
   cy="54.944"
   r="1.965"
   id="circle733"
   style="fill:#ffffff" />
	<circle
   cx="663.01501"
   cy="52.324001"
   r="1.965"
   id="circle735"
   style="fill:#ffffff" />
	<circle
   cx="662.20697"
   cy="58.132"
   r="1.965"
   id="circle737"
   style="fill:#ffffff" />
	<circle
   cx="663.01501"
   cy="68.176003"
   r="1.965"
   id="circle739"
   style="fill:#ffffff" />
	<circle
   cx="666.53003"
   cy="74.114998"
   r="1.965"
   id="circle741"
   style="fill:#ffffff" />
	<circle
   cx="675.526"
   cy="75.25"
   r="1.965"
   id="circle743"
   style="fill:#ffffff" />
	<circle
   cx="671.46503"
   cy="68.961998"
   r="1.965"
   id="circle745"
   style="fill:#ffffff" />
	<circle
   cx="680.15698"
   cy="68.961998"
   r="1.965"
   id="circle747"
   style="fill:#ffffff" />
	<circle
   cx="668.43597"
   cy="62.410999"
   r="1.965"
   id="circle749"
   style="fill:#ffffff" />
	<circle
   cx="675.78101"
   cy="62.062"
   r="1.965"
   id="circle751"
   style="fill:#ffffff" />
	<circle
   cx="680.81201"
   cy="52.979"
   r="1.965"
   id="circle753"
   style="fill:#ffffff" />
	<circle
   cx="683.69501"
   cy="63.198002"
   r="1.965"
   id="circle755"
   style="fill:#ffffff" />
	<circle
   cx="684.21899"
   cy="74.676003"
   r="1.965"
   id="circle757"
   style="fill:#ffffff" />
	<circle
   cx="686.48901"
   cy="48.393002"
   r="1.965"
   id="circle759"
   style="fill:#ffffff" />
	<circle
   cx="686.18402"
   cy="56.909"
   r="1.965"
   id="circle761"
   style="fill:#ffffff" />
	<circle
   cx="692.21002"
   cy="52.324001"
   r="1.965"
   id="circle763"
   style="fill:#ffffff" />
	<circle
   cx="695.70398"
   cy="56.909"
   r="1.965"
   id="circle765"
   style="fill:#ffffff" />
	<circle
   cx="698.76099"
   cy="48.785999"
   r="1.965"
   id="circle767"
   style="fill:#ffffff" />
	<circle
   cx="701.55603"
   cy="54.944"
   r="1.965"
   id="circle769"
   style="fill:#ffffff" />
	<circle
   cx="669.5"
   cy="56.167"
   r="1.965"
   id="circle771"
   style="fill:#ffffff" />
	<circle
   cx="674.34003"
   cy="51.581001"
   r="1.965"
   id="circle773"
   style="fill:#ffffff" />
	<path
   d="m 647.49,108.789 c 0,0 2.83,-1.32 5.197,-3.188 1.834,-1.447 4.76,-4.28 4.76,-4.28 l 1.572,0.786 c 0,0 -2.751,3.843 -4.585,5.459 -1.363,1.2 -5.633,4.367 -5.633,4.367 z"
   id="path775"
   inkscape:connector-curvature="0"
   style="fill:#f39200" />
	<path
   d="m 651.639,115.689 c 0,0 2.739,-4.196 4.323,-6.638 1.572,-2.424 3.674,-6.933 3.674,-6.933 l 1.722,0.351 c 0,0 -2.204,6.602 -3.344,9.116 -0.891,1.965 -3.581,6.114 -3.581,6.114 z"
   id="path777"
   inkscape:connector-curvature="0"
   style="fill:#f39200" />
	<path
   d="m 657.491,120.405 c 0,0 2.445,-6.245 3.342,-9.503 0.767,-2.785 1.592,-8.14 1.592,-8.14 l 1.935,0.393 c 0,0 -0.437,6.947 -0.894,9.668 -0.357,2.127 -2.541,8.193 -2.541,8.193 z"
   id="path779"
   inkscape:connector-curvature="0"
   style="fill:#f39200" />
	<path
   d="m 665.308,122.283 c 0,0 0.316,-5.573 0.355,-8.952 0.044,-3.86 0.198,-9.302 0.198,-9.302 l 1.935,0.393 c 0,0 0.712,7.202 0.874,9.957 0.131,2.227 0.306,7.904 0.306,7.904 z"
   id="path781"
   inkscape:connector-curvature="0"
   style="fill:#f39200" />
	<path
   d="m 700.025,108.069 c 0,0 -2.83,-1.32 -5.197,-3.188 -1.834,-1.447 -4.76,-4.28 -4.76,-4.28 l -1.572,0.786 c 0,0 2.751,3.843 4.585,5.459 1.363,1.2 5.633,4.367 5.633,4.367 z"
   id="path783"
   inkscape:connector-curvature="0"
   style="fill:#f39200" />
	<path
   d="m 700.025,123.462 c 0,0 -5.758,-8.977 -7.075,-11.573 -1.449,-2.857 -4.679,-10.951 -4.679,-10.951 l -1.722,0.351 c 0,0 2.117,8.087 3.257,10.6 0.891,1.965 7.664,13.931 7.664,13.931 z"
   id="path785"
   inkscape:connector-curvature="0"
   style="fill:#f39200" />
	<path
   d="m 690.811,124.838 c 0,0 -2.338,-7.411 -2.904,-10.743 -0.778,-4.578 -1.638,-12.511 -1.638,-12.511 h -1.9 c 0,0 0.537,10.155 0.994,12.877 0.357,2.127 2.412,12.146 2.412,12.146 z"
   id="path787"
   inkscape:connector-curvature="0"
   style="fill:#f39200" />
	<path
   d="m 681.749,122.873 c 0,0 0.466,-6.354 0.558,-9.717 0.106,-3.859 1.014,-11.038 1.014,-11.038 l -1.801,0.645 c 0,0 -1.702,7.145 -2.216,10.437 -0.344,2.204 -0.895,8.756 -0.895,8.756 z"
   id="path789"
   inkscape:connector-curvature="0"
   style="fill:#f39200" />
	<path
   d="m 674.871,83.897 h -2.62 v 62.492 c 0,0 0.295,1.092 1.31,1.092 1.081,0 1.31,-1.092 1.31,-1.092 z"
   id="path791"
   inkscape:connector-curvature="0"
   style="fill:#7d4e24" />
	<polygon
   points="673.954,87.565 678.016,104.073 692.951,100.798 687.579,77.74 659.543,77.74 654.434,101.584 669.107,105.383 "
   id="polygon793"
   style="fill:#312783" />
	<polygon
   points="674.174,45.38 677.869,48.786 683.826,48.786 679.195,41.974 670.286,41.974 664.522,48.786 671.334,48.786 "
   id="polygon795"
   style="fill:#009fe3" />
	<g
   id="g859">
		<path
   d="m 685.241,93.838 c -0.078,0.516 -0.578,0.869 -1.116,0.788 L 679.13,93.87 c -0.538,-0.081 -0.911,-0.566 -0.833,-1.083 l 1.185,-7.832 c 0.078,-0.516 0.578,-0.869 1.116,-0.788 l 4.995,0.756 c 0.538,0.081 0.911,0.566 0.833,1.083 z"
   id="path797"
   inkscape:connector-curvature="0"
   style="fill:#95c11f" />
		<g
   id="g803">
			<line
   x1="681.01501"
   y1="85.862"
   x2="681.40802"
   y2="83.045998"
   id="line799"
   style="fill:#dedc00" />
			<path
   d="m 681.015,85.862 c 0,0 -0.072,-0.055 -0.176,-0.148 -0.051,-0.046 -0.113,-0.103 -0.172,-0.166 -0.031,-0.032 -0.063,-0.065 -0.098,-0.101 -0.032,-0.035 0.021,-0.06 0.011,-0.095 0.037,-0.264 0.086,-0.616 0.135,-0.968 0.049,-0.352 0.098,-0.704 0.135,-0.968 0.021,-0.031 -0.028,-0.07 0.022,-0.094 0.043,-0.025 0.083,-0.048 0.122,-0.07 0.081,-0.043 0.151,-0.081 0.209,-0.112 0.13,-0.06 0.204,-0.095 0.204,-0.095 0,0 0.062,0.054 0.17,0.147 0.047,0.046 0.104,0.102 0.17,0.165 0.031,0.032 0.063,0.065 0.098,0.101 0.041,0.036 -0.016,0.061 -0.005,0.096 -0.037,0.264 -0.086,0.616 -0.135,0.968 -0.049,0.352 -0.098,0.704 -0.135,0.968 -0.019,0.031 0.025,0.069 -0.015,0.094 -0.043,0.025 -0.083,0.048 -0.122,0.07 -0.073,0.044 -0.149,0.082 -0.21,0.112 -0.124,0.063 -0.208,0.096 -0.208,0.096 z"
   id="path801"
   inkscape:connector-curvature="0"
   style="fill:#683c11" />
		</g>
		<g
   id="g809">
			<line
   x1="683.00201"
   y1="85.688004"
   x2="684.13702"
   y2="83.459999"
   id="line805"
   style="fill:#dedc00" />
			<path
   d="m 683.002,85.688 c 0,0 -0.045,-0.067 -0.124,-0.184 -0.035,-0.056 -0.078,-0.125 -0.116,-0.197 -0.02,-0.037 -0.042,-0.076 -0.064,-0.118 -0.021,-0.04 0.036,-0.043 0.036,-0.076 0.106,-0.209 0.248,-0.487 0.39,-0.766 0.142,-0.278 0.284,-0.557 0.39,-0.766 0.028,-0.019 -0.007,-0.068 0.046,-0.071 0.047,-0.006 0.091,-0.012 0.133,-0.017 0.087,-0.009 0.164,-0.017 0.227,-0.023 0.138,-0.006 0.217,-0.01 0.217,-0.01 0,0 0.044,0.066 0.12,0.182 0.032,0.055 0.07,0.121 0.115,0.197 0.02,0.037 0.042,0.076 0.064,0.118 0.029,0.045 -0.032,0.045 -0.03,0.079 -0.106,0.209 -0.248,0.487 -0.39,0.766 -0.142,0.279 -0.284,0.557 -0.39,0.766 -0.026,0.02 0.005,0.067 -0.04,0.074 -0.047,0.006 -0.091,0.012 -0.133,0.017 -0.081,0.012 -0.162,0.018 -0.228,0.022 -0.142,0.004 -0.223,0.007 -0.223,0.007 z"
   id="path807"
   inkscape:connector-curvature="0"
   style="fill:#683c11" />
		</g>
		<g
   id="g815">
			<line
   x1="684.53003"
   y1="86.605003"
   x2="687.5"
   y2="84.454002"
   id="line811"
   style="fill:#dedc00" />
			<path
   d="m 684.53,86.605 c 0,0 0,-0.098 0.014,-0.25 0.007,-0.076 0.016,-0.168 0.033,-0.262 0.008,-0.049 0.016,-0.1 0.025,-0.155 0.01,-0.053 0.072,-0.037 0.099,-0.074 0.278,-0.202 0.65,-0.47 1.021,-0.739 0.371,-0.269 0.742,-0.538 1.021,-0.739 0.044,-0.012 0.046,-0.079 0.105,-0.065 0.055,0.009 0.106,0.017 0.155,0.024 0.096,0.013 0.186,0.033 0.259,0.049 0.148,0.033 0.239,0.061 0.239,0.061 0,0 -0.002,0.095 -0.017,0.246 -0.008,0.074 -0.017,0.166 -0.034,0.261 -0.008,0.049 -0.016,0.1 -0.025,0.155 -0.005,0.06 -0.069,0.041 -0.095,0.079 -0.278,0.202 -0.65,0.47 -1.021,0.739 -0.371,0.269 -0.742,0.538 -1.021,0.739 -0.043,0.014 -0.048,0.077 -0.101,0.071 -0.055,-0.009 -0.106,-0.017 -0.155,-0.024 -0.096,-0.013 -0.186,-0.033 -0.26,-0.05 -0.149,-0.036 -0.242,-0.066 -0.242,-0.066 z"
   id="path813"
   inkscape:connector-curvature="0"
   style="fill:#683c11" />
		</g>
		<g
   id="g821">
			<line
   x1="684.13702"
   y1="89.094002"
   x2="687.151"
   y2="89.094002"
   id="line817"
   style="fill:#dedc00" />
			<path
   d="m 684.137,89.094 c 0,0 0.047,-0.079 0.129,-0.194 0.041,-0.057 0.091,-0.126 0.149,-0.193 0.029,-0.035 0.059,-0.072 0.091,-0.111 0.032,-0.037 0.066,0.012 0.101,-0.002 0.282,0 0.659,0 1.036,0 0.377,0 0.753,0 1.036,0 0.035,0.016 0.069,-0.037 0.101,0.009 0.032,0.039 0.063,0.076 0.091,0.111 0.057,0.074 0.107,0.138 0.149,0.191 0.082,0.12 0.129,0.189 0.129,0.189 0,0 -0.047,0.069 -0.129,0.189 -0.041,0.053 -0.091,0.118 -0.149,0.191 -0.029,0.035 -0.059,0.072 -0.091,0.111 -0.032,0.046 -0.066,-0.007 -0.101,0.009 -0.282,0 -0.659,0 -1.036,0 -0.377,0 -0.753,0 -1.036,0 -0.035,-0.014 -0.069,0.035 -0.101,-0.002 -0.032,-0.039 -0.063,-0.076 -0.091,-0.111 -0.057,-0.066 -0.107,-0.136 -0.149,-0.193 -0.081,-0.115 -0.129,-0.194 -0.129,-0.194 z"
   id="path819"
   inkscape:connector-curvature="0"
   style="fill:#683c11" />
		</g>
		<g
   id="g827">
			<line
   x1="684.13702"
   y1="91.014999"
   x2="687.151"
   y2="92.630997"
   id="line823"
   style="fill:#dedc00" />
			<path
   d="m 684.137,91.015 c 0,0 0.084,-0.044 0.221,-0.102 0.068,-0.028 0.151,-0.063 0.24,-0.09 0.045,-0.015 0.093,-0.031 0.144,-0.049 0.049,-0.015 0.06,0.046 0.102,0.052 0.283,0.151 0.659,0.353 1.036,0.555 0.377,0.202 0.753,0.404 1.036,0.555 0.028,0.033 0.087,0.004 0.097,0.062 0.014,0.052 0.027,0.101 0.039,0.147 0.026,0.09 0.043,0.177 0.058,0.248 0.029,0.144 0.04,0.236 0.04,0.236 0,0 -0.083,0.041 -0.219,0.097 -0.067,0.027 -0.15,0.061 -0.239,0.089 -0.045,0.015 -0.093,0.031 -0.144,0.049 -0.054,0.023 -0.062,-0.042 -0.105,-0.047 -0.283,-0.151 -0.659,-0.353 -1.036,-0.555 -0.377,-0.202 -0.753,-0.404 -1.036,-0.555 -0.029,-0.032 -0.086,-0.007 -0.1,-0.056 -0.014,-0.052 -0.027,-0.101 -0.039,-0.147 -0.026,-0.089 -0.043,-0.177 -0.057,-0.25 -0.028,-0.144 -0.038,-0.239 -0.038,-0.239 z"
   id="path825"
   inkscape:connector-curvature="0"
   style="fill:#683c11" />
		</g>
		<g
   id="g833">
			<line
   x1="683.57001"
   y1="92.892998"
   x2="684.13702"
   y2="96.037003"
   id="line829"
   style="fill:#dedc00" />
			<path
   d="m 683.57,92.893 c 0,0 0.087,0.035 0.216,0.101 0.064,0.033 0.142,0.073 0.218,0.121 0.04,0.024 0.082,0.049 0.126,0.076 0.042,0.027 0,0.071 0.021,0.105 0.053,0.295 0.124,0.688 0.195,1.081 0.071,0.393 0.142,0.786 0.195,1.081 -0.009,0.04 0.049,0.066 0.011,0.107 -0.032,0.041 -0.063,0.079 -0.092,0.115 -0.062,0.073 -0.116,0.137 -0.16,0.189 -0.096,0.106 -0.162,0.169 -0.162,0.169 0,0 -0.083,-0.036 -0.211,-0.102 -0.06,-0.034 -0.133,-0.074 -0.216,-0.121 -0.04,-0.024 -0.082,-0.049 -0.126,-0.076 -0.051,-0.025 -0.005,-0.07 -0.028,-0.104 -0.053,-0.295 -0.124,-0.688 -0.195,-1.081 -0.071,-0.393 -0.142,-0.786 -0.195,-1.081 0.007,-0.039 -0.047,-0.066 -0.017,-0.106 0.032,-0.041 0.063,-0.079 0.092,-0.115 0.055,-0.072 0.114,-0.136 0.162,-0.189 0.097,-0.107 0.166,-0.17 0.166,-0.17 z"
   id="path831"
   inkscape:connector-curvature="0"
   style="fill:#683c11" />
		</g>
		<g
   id="g839">
			<line
   x1="680.68701"
   y1="92.630997"
   x2="680.46899"
   y2="95.382004"
   id="line835"
   style="fill:#dedc00" />
			<path
   d="m 680.687,92.631 c 0,0 0.076,0.049 0.184,0.134 0.054,0.042 0.119,0.093 0.181,0.151 0.033,0.029 0.067,0.06 0.104,0.092 0.034,0.032 -0.017,0.059 -0.005,0.093 -0.021,0.258 -0.048,0.602 -0.075,0.946 -0.027,0.344 -0.055,0.688 -0.075,0.946 -0.019,0.031 0.032,0.066 -0.016,0.092 -0.041,0.026 -0.08,0.051 -0.117,0.075 -0.078,0.047 -0.146,0.087 -0.202,0.121 -0.126,0.066 -0.198,0.103 -0.198,0.103 0,0 -0.065,-0.048 -0.179,-0.133 -0.05,-0.042 -0.111,-0.093 -0.18,-0.151 -0.033,-0.029 -0.067,-0.06 -0.104,-0.092 -0.043,-0.033 0.012,-0.06 -10e-4,-0.093 0.02,-0.258 0.048,-0.602 0.075,-0.946 0.027,-0.344 0.055,-0.688 0.075,-0.946 0.017,-0.031 -0.029,-0.066 0.009,-0.092 0.041,-0.026 0.08,-0.051 0.117,-0.075 0.07,-0.047 0.143,-0.087 0.203,-0.12 0.122,-0.068 0.204,-0.105 0.204,-0.105 z"
   id="path837"
   inkscape:connector-curvature="0"
   style="fill:#683c11" />
		</g>
		<g
   id="g845">
			<line
   x1="679.35901"
   y1="92.325996"
   x2="677.01898"
   y2="94.858002"
   id="line841"
   style="fill:#dedc00" />
			<path
   d="m 679.359,92.326 c 0,0 0.022,0.093 0.042,0.241 0.01,0.073 0.022,0.162 0.026,0.256 0.003,0.048 0.007,0.098 0.01,0.152 0.002,0.052 -0.06,0.047 -0.077,0.087 -0.219,0.237 -0.512,0.554 -0.804,0.871 -0.292,0.317 -0.585,0.633 -0.804,0.871 -0.039,0.019 -0.026,0.083 -0.085,0.079 -0.054,0.001 -0.105,0.001 -0.152,0.002 -0.094,0.003 -0.183,-0.002 -0.256,-0.005 -0.147,-0.008 -0.239,-0.019 -0.239,-0.019 0,0 -0.019,-0.091 -0.038,-0.237 -0.009,-0.072 -0.021,-0.161 -0.025,-0.255 -0.003,-0.048 -0.007,-0.098 -0.01,-0.152 -0.009,-0.058 0.057,-0.05 0.072,-0.091 0.219,-0.237 0.512,-0.554 0.804,-0.871 0.292,-0.317 0.585,-0.633 0.804,-0.871 0.038,-0.02 0.028,-0.082 0.08,-0.084 0.054,-10e-4 0.105,-10e-4 0.152,-0.002 0.093,-0.003 0.183,0.002 0.257,0.006 0.148,0.007 0.243,0.022 0.243,0.022 z"
   id="path843"
   inkscape:connector-curvature="0"
   style="fill:#683c11" />
		</g>
		<g
   id="g851">
			<line
   x1="680.46899"
   y1="90.666"
   x2="677.01898"
   y2="90.447998"
   id="line847"
   style="fill:#dedc00" />
			<path
   d="m 680.469,90.666 c 0,0 -0.059,0.076 -0.161,0.184 -0.051,0.054 -0.112,0.12 -0.182,0.182 -0.035,0.033 -0.072,0.067 -0.112,0.104 -0.039,0.034 -0.075,-0.017 -0.116,-0.005 -0.323,-0.02 -0.755,-0.048 -1.186,-0.075 -0.431,-0.027 -0.862,-0.055 -1.186,-0.075 -0.039,-0.019 -0.082,0.032 -0.115,-0.016 -0.034,-0.041 -0.067,-0.08 -0.098,-0.117 -0.062,-0.071 -0.114,-0.143 -0.158,-0.202 -0.087,-0.119 -0.136,-0.198 -0.136,-0.198 0,0 0.059,-0.072 0.16,-0.179 0.051,-0.052 0.112,-0.118 0.182,-0.18 0.035,-0.033 0.072,-0.067 0.112,-0.104 0.04,-0.043 0.075,0.012 0.117,-0.001 0.323,0.02 0.755,0.048 1.186,0.075 0.431,0.027 0.862,0.055 1.186,0.075 0.039,0.017 0.081,-0.03 0.116,0.009 0.034,0.041 0.067,0.08 0.098,0.117 0.062,0.07 0.114,0.143 0.158,0.203 0.086,0.121 0.135,0.203 0.135,0.203 z"
   id="path849"
   inkscape:connector-curvature="0"
   style="fill:#683c11" />
		</g>
		<g
   id="g857">
			<line
   x1="680.20697"
   y1="88.788002"
   x2="677.28101"
   y2="86.081001"
   id="line853"
   style="fill:#dedc00" />
			<path
   d="m 680.207,88.788 c 0,0 -0.099,0.016 -0.258,0.026 -0.079,0.005 -0.174,0.011 -0.275,0.008 -0.051,0 -0.106,-0.001 -0.164,-0.001 -0.056,-0.002 -0.056,-0.068 -0.1,-0.09 -0.274,-0.254 -0.64,-0.592 -1.006,-0.931 -0.366,-0.338 -0.731,-0.677 -1.006,-0.931 -0.023,-0.044 -0.092,-0.035 -0.092,-0.097 -0.005,-0.058 -0.009,-0.112 -0.014,-0.163 -0.01,-0.101 -0.012,-0.196 -0.014,-0.274 -0.003,-0.157 0.003,-0.255 0.003,-0.255 0,0 0.097,-0.013 0.254,-0.022 0.078,-0.004 0.173,-0.01 0.274,-0.007 0.051,0 0.106,0.001 0.164,0.001 0.062,-0.005 0.059,0.065 0.104,0.085 0.274,0.254 0.64,0.592 1.006,0.931 0.366,0.338 0.731,0.677 1.006,0.931 0.025,0.042 0.091,0.037 0.097,0.093 0.005,0.058 0.009,0.112 0.014,0.163 0.011,0.1 0.012,0.196 0.013,0.275 0.002,0.158 -0.006,0.258 -0.006,0.258 z"
   id="path855"
   inkscape:connector-curvature="0"
   style="fill:#683c11" />
		</g>
	</g>
</g>



</svg>