<?xml version="1.0" encoding="UTF-8" standalone="no"?>
<!-- Generator: Adobe Illustrator 17.0.0, SVG Export Plug-In . SVG Version: 6.00 Build 0)  -->

<svg
   xmlns:dc="http://purl.org/dc/elements/1.1/"
   xmlns:cc="http://creativecommons.org/ns#"
   xmlns:rdf="http://www.w3.org/1999/02/22-rdf-syntax-ns#"
   xmlns:svg="http://www.w3.org/2000/svg"
   xmlns="http://www.w3.org/2000/svg"
   xmlns:sodipodi="http://sodipodi.sourceforge.net/DTD/sodipodi-0.dtd"
   xmlns:inkscape="http://www.inkscape.org/namespaces/inkscape"
   version="1.1"
   x="0px"
   y="0px"
   width="97.210999"
   height="145.31796"
   viewBox="0 0 97.210999 145.31796"
   enable-background="new 0 0 1200 150"
   xml:space="preserve"
   id="svg1263"
   sodipodi:docname="7.svg"
   inkscape:version="0.92.4 (5da689c313, 2019-01-14)"><metadata
   id="metadata1269"><rdf:RDF><cc:Work
       rdf:about=""><dc:format>image/svg+xml</dc:format><dc:type
         rdf:resource="http://purl.org/dc/dcmitype/StillImage" /><dc:title></dc:title></cc:Work></rdf:RDF></metadata><defs
   id="defs1267" /><sodipodi:namedview
   pagecolor="#ffffff"
   bordercolor="#666666"
   borderopacity="1"
   objecttolerance="10"
   gridtolerance="10"
   guidetolerance="10"
   inkscape:pageopacity="0"
   inkscape:pageshadow="2"
   inkscape:window-width="1920"
   inkscape:window-height="1017"
   id="namedview1265"
   showgrid="false"
   inkscape:zoom="0.66939442"
   inkscape:cx="-262.14308"
   inkscape:cy="-63.827352"
   inkscape:window-x="-8"
   inkscape:window-y="-8"
   inkscape:window-maximized="1"
   inkscape:current-layer="svg1263"
   fit-margin-top="0"
   fit-margin-left="0"
   fit-margin-right="0"
   fit-margin-bottom="0" />
<g
   id="Слой_9"
   transform="translate(-1076.728,-2.1630357)">
</g>







<g
   id="Слой_2__x28_копия7_x29_"
   transform="translate(-1076.728,-2.1630357)">
	<path
   d="m 1116.512,3.588 c 4.151,-2.184 15.066,-1.875 18.734,1.048 2.807,2.237 6.157,12.97 6.157,12.97 l -33.015,-0.655 c 10e-4,0 4.664,-11.543 8.124,-13.363 z"
   id="path1144"
   inkscape:connector-curvature="0"
   style="fill:#ca9e67" />
	<ellipse
   cx="1124.627"
   cy="24.179001"
   rx="34.855999"
   ry="10.939"
   id="ellipse1146"
   style="fill:#b17f4a" />
	<polygon
   points="1113.092,23.366 1111.992,22.229 1100.543,31.498 1103.411,34.167 "
   id="polygon1148"
   style="fill:#f39200" />
	<polygon
   points="1111.501,28.701 1110.155,27.871 1103.075,36.873 1105.678,38.336 "
   id="polygon1150"
   style="fill:#f39200" />
	<polygon
   points="1112.312,32.416 1110.787,31.997 1107.491,39.089 1110.39,39.8 "
   id="polygon1152"
   style="fill:#f39200" />
	<polygon
   points="1137.225,23.366 1138.325,22.229 1149.775,31.498 1146.906,34.167 "
   id="polygon1154"
   style="fill:#f39200" />
	<polygon
   points="1138.816,28.701 1140.162,27.871 1147.242,36.873 1144.639,38.336 "
   id="polygon1156"
   style="fill:#f39200" />
	<polygon
   points="1138.005,32.416 1139.53,31.997 1142.826,39.089 1139.927,39.8 "
   id="polygon1158"
   style="fill:#f39200" />
	<path
   d="m 1140.15,28.364 c 0,8.353 -6.771,15.124 -15.124,15.124 -8.353,0 -15.124,-6.771 -15.124,-15.124 0,-3.132 2.583,-8.456 2.583,-8.456 l 25.018,-0.094 c 0,0 2.647,5.377 2.647,8.55 z"
   id="path1160"
   inkscape:connector-curvature="0"
   style="fill:#f7d7ba" />
	<path
   stroke-miterlimit="10"
   d="m 1117.855,33.622 c 0,0 3.111,3.898 7.828,3.898 4.454,0 7.402,-3.177 7.402,-3.177"
   id="path1162"
   inkscape:connector-curvature="0"
   style="fill:none;stroke:#683c11;stroke-miterlimit:10" />
	<ellipse
   cx="1117.036"
   cy="32.005001"
   rx="2.6199999"
   ry="2.1619999"
   id="ellipse1164"
   style="fill:#e6007e" />
	<ellipse
   cx="1133.72"
   cy="32.589001"
   rx="2.6199999"
   ry="2.1619999"
   id="ellipse1166"
   style="fill:#e6007e" />
	<circle
   stroke-miterlimit="10"
   cx="1125.282"
   cy="30.846001"
   r="2.4809999"
   id="circle1168"
   style="fill:#936037;stroke:#432918;stroke-miterlimit:10" />
	<circle
   stroke-miterlimit="10"
   cx="1118.608"
   cy="27.431999"
   r="1.572"
   id="circle1170"
   style="fill:#ffffff;stroke:#000000;stroke-miterlimit:10" />
	<circle
   stroke-miterlimit="10"
   cx="1133.281"
   cy="27.431999"
   r="1.572"
   id="circle1172"
   style="fill:#ffffff;stroke:#000000;stroke-miterlimit:10" />
	<path
   d="m 1076.728,50.009 1.834,2.315 c 0,0 4.734,-1.671 6.376,-1.965 1.55,-0.278 6.289,-0.349 6.289,-0.349 0,0 -5.992,1.475 -7.861,2.315 -1.785,0.802 -6.638,4.149 -6.638,4.149 l 2.795,2.62 c 0,0 3.687,-3.775 5.415,-4.804 1.666,-0.991 8.123,-3.275 8.123,-3.275 0,0 -6.276,4.232 -8.166,5.895 -1.618,1.423 -5.895,6.288 -5.895,6.288 l 3.494,1.179 c 0,0 3.564,-4.835 4.978,-6.245 1.657,-1.651 7.337,-5.808 7.337,-5.808 l 0.524,-3.93 c 0,0 -8.149,-0.536 -10.119,-0.415 -2.746,0.167 -8.486,2.03 -8.486,2.03 z"
   id="path1174"
   inkscape:connector-curvature="0"
   style="fill:#f39200" />
	<path
   d="m 1173.938,50.009 -1.834,2.315 c 0,0 -4.734,-1.671 -6.376,-1.965 -1.55,-0.278 -6.288,-0.349 -6.288,-0.349 0,0 5.992,1.475 7.861,2.315 1.785,0.802 6.638,4.149 6.638,4.149 l -2.795,2.62 c 0,0 -3.687,-3.775 -5.415,-4.804 -1.666,-0.991 -8.123,-3.275 -8.123,-3.275 0,0 6.276,4.232 8.166,5.895 1.618,1.423 5.896,6.288 5.896,6.288 l -3.494,1.179 c 0,0 -3.564,-4.835 -4.978,-6.245 -1.657,-1.651 -7.337,-5.808 -7.337,-5.808 l -0.524,-3.93 c 0,0 8.149,-0.536 10.119,-0.415 2.744,0.167 8.484,2.03 8.484,2.03 z"
   id="path1176"
   inkscape:connector-curvature="0"
   style="fill:#f39200" />
	<polygon
   points="1138.522,77.74 1110.485,77.74 1110.485,59.791 1093.716,59.529 1093.716,44.725 1156.077,44.725 1156.077,59.529 1138.391,59.66 "
   id="polygon1178"
   style="fill:#009640" />
	<circle
   cx="1100.5291"
   cy="49.616001"
   r="1.965"
   id="circle1180"
   style="fill:#ffffff" />
	<circle
   cx="1097.297"
   cy="56.167"
   r="1.965"
   id="circle1182"
   style="fill:#ffffff" />
	<circle
   cx="1108.2581"
   cy="48.393002"
   r="1.965"
   id="circle1184"
   style="fill:#ffffff" />
	<circle
   cx="1105.376"
   cy="54.944"
   r="1.965"
   id="circle1186"
   style="fill:#ffffff" />
	<circle
   cx="1113.957"
   cy="52.324001"
   r="1.965"
   id="circle1188"
   style="fill:#ffffff" />
	<circle
   cx="1113.149"
   cy="58.132"
   r="1.965"
   id="circle1190"
   style="fill:#ffffff" />
	<circle
   cx="1113.957"
   cy="68.176003"
   r="1.965"
   id="circle1192"
   style="fill:#ffffff" />
	<circle
   cx="1117.473"
   cy="74.114998"
   r="1.965"
   id="circle1194"
   style="fill:#ffffff" />
	<circle
   cx="1126.469"
   cy="75.25"
   r="1.965"
   id="circle1196"
   style="fill:#ffffff" />
	<circle
   cx="1122.407"
   cy="68.961998"
   r="1.965"
   id="circle1198"
   style="fill:#ffffff" />
	<circle
   cx="1131.099"
   cy="68.961998"
   r="1.965"
   id="circle1200"
   style="fill:#ffffff" />
	<circle
   cx="1119.3781"
   cy="62.410999"
   r="1.965"
   id="circle1202"
   style="fill:#ffffff" />
	<circle
   cx="1126.723"
   cy="62.062"
   r="1.965"
   id="circle1204"
   style="fill:#ffffff" />
	<circle
   cx="1131.754"
   cy="52.979"
   r="1.965"
   id="circle1206"
   style="fill:#ffffff" />
	<circle
   cx="1134.637"
   cy="63.198002"
   r="1.965"
   id="circle1208"
   style="fill:#ffffff" />
	<circle
   cx="1135.161"
   cy="74.676003"
   r="1.965"
   id="circle1210"
   style="fill:#ffffff" />
	<circle
   cx="1137.432"
   cy="48.393002"
   r="1.965"
   id="circle1212"
   style="fill:#ffffff" />
	<circle
   cx="1137.126"
   cy="56.909"
   r="1.965"
   id="circle1214"
   style="fill:#ffffff" />
	<circle
   cx="1143.152"
   cy="52.324001"
   r="1.965"
   id="circle1216"
   style="fill:#ffffff" />
	<circle
   cx="1146.646"
   cy="56.909"
   r="1.965"
   id="circle1218"
   style="fill:#ffffff" />
	<circle
   cx="1149.703"
   cy="48.785999"
   r="1.965"
   id="circle1220"
   style="fill:#ffffff" />
	<circle
   cx="1152.498"
   cy="54.944"
   r="1.965"
   id="circle1222"
   style="fill:#ffffff" />
	<circle
   cx="1120.442"
   cy="56.167"
   r="1.965"
   id="circle1224"
   style="fill:#ffffff" />
	<circle
   cx="1125.282"
   cy="51.581001"
   r="1.965"
   id="circle1226"
   style="fill:#ffffff" />
	<path
   d="m 1098.432,108.789 c 0,0 2.83,-1.32 5.197,-3.188 1.834,-1.447 4.76,-4.28 4.76,-4.28 l 1.572,0.786 c 0,0 -2.751,3.843 -4.585,5.459 -1.363,1.2 -5.633,4.367 -5.633,4.367 z"
   id="path1228"
   inkscape:connector-curvature="0"
   style="fill:#f39200" />
	<path
   d="m 1102.581,115.689 c 0,0 2.74,-4.196 4.323,-6.638 1.572,-2.424 3.674,-6.933 3.674,-6.933 l 1.722,0.351 c 0,0 -2.204,6.602 -3.344,9.116 -0.891,1.965 -3.581,6.114 -3.581,6.114 z"
   id="path1230"
   inkscape:connector-curvature="0"
   style="fill:#f39200" />
	<path
   d="m 1108.433,120.405 c 0,0 2.446,-6.245 3.343,-9.503 0.767,-2.785 1.592,-8.14 1.592,-8.14 l 1.935,0.393 c 0,0 -0.437,6.947 -0.894,9.668 -0.357,2.127 -2.541,8.193 -2.541,8.193 z"
   id="path1232"
   inkscape:connector-curvature="0"
   style="fill:#f39200" />
	<path
   d="m 1116.25,122.283 c 0,0 0.316,-5.573 0.355,-8.952 0.044,-3.86 0.198,-9.302 0.198,-9.302 l 1.935,0.393 c 0,0 0.712,7.202 0.874,9.957 0.131,2.227 0.306,7.904 0.306,7.904 z"
   id="path1234"
   inkscape:connector-curvature="0"
   style="fill:#f39200" />
	<path
   d="m 1150.968,108.069 c 0,0 -2.83,-1.32 -5.197,-3.188 -1.834,-1.447 -4.76,-4.28 -4.76,-4.28 l -1.572,0.786 c 0,0 2.751,3.843 4.585,5.459 1.363,1.2 5.633,4.367 5.633,4.367 z"
   id="path1236"
   inkscape:connector-curvature="0"
   style="fill:#f39200" />
	<path
   d="m 1150.968,123.462 c 0,0 -5.758,-8.977 -7.075,-11.573 -1.449,-2.857 -4.679,-10.951 -4.679,-10.951 l -1.722,0.351 c 0,0 2.117,8.087 3.257,10.6 0.891,1.965 7.664,13.931 7.664,13.931 z"
   id="path1238"
   inkscape:connector-curvature="0"
   style="fill:#f39200" />
	<path
   d="m 1141.753,124.838 c 0,0 -2.338,-7.411 -2.904,-10.743 -0.778,-4.578 -1.638,-12.511 -1.638,-12.511 h -1.9 c 0,0 0.537,10.155 0.994,12.877 0.357,2.127 2.412,12.146 2.412,12.146 z"
   id="path1240"
   inkscape:connector-curvature="0"
   style="fill:#f39200" />
	<path
   d="m 1132.692,122.873 c 0,0 0.466,-6.354 0.558,-9.717 0.106,-3.859 1.014,-11.038 1.014,-11.038 l -1.802,0.645 c 0,0 -1.702,7.145 -2.216,10.437 -0.344,2.204 -0.895,8.756 -0.895,8.756 z"
   id="path1242"
   inkscape:connector-curvature="0"
   style="fill:#f39200" />
	<path
   d="m 1125.814,83.897 h -2.62 v 62.492 c 0,0 0.295,1.092 1.31,1.092 1.081,0 1.31,-1.092 1.31,-1.092 z"
   id="path1244"
   inkscape:connector-curvature="0"
   style="fill:#7d4e24" />
	<polygon
   points="1124.896,87.565 1128.958,104.073 1143.893,100.798 1138.522,77.74 1110.485,77.74 1105.376,101.584 1120.049,105.383 "
   id="polygon1246"
   style="fill:#009fe3" />
	<polygon
   points="1125.116,45.38 1128.811,48.786 1134.768,48.786 1130.137,41.974 1121.228,41.974 1115.464,48.786 1122.276,48.786 "
   id="polygon1248"
   style="fill:#e30613" />
	<g
   id="g1250">
	</g>
	<g
   id="g1252">
	</g>
	<g
   id="g1254">
	</g>
	<g
   id="g1256">
	</g>
	<g
   id="g1258">
	</g>
	<g
   id="g1260">
	</g>
</g>
</svg>