<svg xmlns="http://www.w3.org/2000/svg" width="290" height="169" viewBox="0 0 290 169" version="1.1">
	<path d="M 185.500 3.051 C 167.796 4.176, 158.239 6.456, 135.500 14.982 C 129.450 17.251, 124.050 19.222, 123.500 19.363 C 122.950 19.504, 120.125 20.844, 117.223 22.340 L 111.947 25.061 112.614 22.280 C 112.981 20.751, 113.904 18.262, 114.666 16.750 C 118.462 9.214, 106.905 18.003, 101.804 26.531 C 99.102 31.048, 97.146 32.789, 89.938 37.092 C 78.589 43.867, 52.408 62.622, 34.782 76.604 C 29.119 81.097, 16.658 93.484, 11.498 99.750 C 10.026 101.537, 8.444 103, 7.982 103 C 6.379 103, 4.777 91.554, 5.189 83.049 C 5.885 68.668, 10.658 61.826, 31.196 45.772 C 42.547 36.899, 53.401 23.554, 55.412 16 C 55.778 14.625, 54.928 15.805, 53.523 18.623 C 50.192 25.302, 41.108 35.110, 31.872 42 C 20.878 50.202, 8.611 63.015, 5.543 69.501 C 2.010 76.970, 1.156 88.053, 3.341 98.090 C 5.687 108.865, 5.598 115.684, 3.008 123.840 C 1.922 127.260, 1.877 128.837, 2.800 131.280 C 3.819 133.981, 3.714 134.618, 1.985 136.229 C -0.781 138.806, -0.501 140.729, 3.132 144.124 C 6.028 146.829, 6.219 147.407, 5.655 151.775 C 4.743 158.836, 6.869 154.504, 8.116 146.761 C 8.666 143.345, 9.234 140.433, 9.379 140.288 C 9.523 140.144, 13.434 141.976, 18.071 144.359 C 22.707 146.743, 28.862 149.297, 31.750 150.036 C 39.188 151.938, 38.638 153.732, 28.920 159.273 C 26.401 160.710, 23.701 162.681, 22.920 163.653 C 21.790 165.060, 22.113 164.996, 24.500 163.339 C 26.150 162.194, 29.792 160.102, 32.594 158.690 C 35.396 157.279, 38.444 154.971, 39.367 153.562 C 40.439 151.926, 41.964 151, 43.585 151 C 44.982 151, 48.384 150.261, 51.145 149.358 L 56.166 147.715 64.333 151.897 C 73.744 156.715, 81.581 159.023, 88 158.866 C 92.375 158.759, 92.334 158.732, 86.500 157.885 C 78.310 156.695, 73.356 154.884, 65.755 150.299 L 59.299 146.406 66.399 142.676 L 73.500 138.947 84.353 140.150 C 92.690 141.075, 98.023 141.086, 107.353 140.196 C 125.181 138.497, 137.336 134.609, 152.284 125.824 C 154.915 124.277, 159.640 122.105, 162.784 120.997 C 167.866 119.205, 168.057 119.047, 164.500 119.565 C 162.300 119.886, 156.675 121.977, 152 124.211 C 132.268 133.639, 126.960 135.403, 114.426 136.691 C 105.945 137.562, 87.183 137.521, 82.605 136.621 L 78.710 135.855 81.605 134.072 C 83.197 133.091, 86.239 130.682, 88.365 128.718 C 90.491 126.754, 93.641 124.627, 95.365 123.991 C 102.801 121.248, 105.103 119.867, 106.178 117.508 C 107.686 114.200, 108.389 114.332, 111.707 118.547 C 116.605 124.768, 120.422 126.472, 129.500 126.487 C 136.423 126.498, 138.399 126.074, 144.180 123.335 C 150.663 120.264, 159.127 113.499, 161.100 109.813 C 161.731 108.634, 161.722 107.349, 161.073 106.137 C 160.170 104.449, 158.564 103.581, 152.500 101.502 C 151.400 101.125, 147.006 100.825, 142.736 100.836 C 134.548 100.857, 133.607 99.915, 139.372 97.469 C 141.092 96.739, 146.325 93.594, 151 90.479 C 159.423 84.869, 159.541 84.827, 164 85.856 C 172.605 87.843, 176.534 88.006, 182.340 86.618 C 185.551 85.849, 188.589 84.811, 189.089 84.311 C 190.321 83.079, 185.576 75.902, 181.904 73.441 C 179.025 71.513, 178.155 70, 179.923 70 C 180.431 70, 182.119 71.058, 183.673 72.351 C 188.037 75.982, 190.386 76.944, 197.134 77.867 C 204.030 78.810, 211.861 77.341, 214.980 74.518 C 216.628 73.026, 217.295 73.169, 224.072 76.468 C 232.455 80.547, 236.709 81.868, 246.419 83.405 C 253.004 84.447, 253.496 84.717, 256.603 89 C 261.142 95.257, 261.165 99.891, 256.679 103.974 C 250.737 109.381, 243.675 113.975, 234.498 118.402 C 223.647 123.638, 216.306 125.427, 208.965 124.625 C 205.959 124.297, 198.078 123.746, 191.450 123.400 C 180.455 122.827, 178.955 122.964, 174.299 124.967 C 163.633 129.555, 161.742 136.385, 168.585 145.613 C 169.854 147.326, 171.214 150.026, 171.607 151.613 C 173.028 157.365, 176.269 162.214, 179.631 163.619 C 186.947 166.676, 195.964 164.843, 204.500 158.565 C 209.753 154.701, 210.516 154.425, 208.673 157.057 C 207.753 158.370, 207 160.464, 207 161.709 C 207 164.889, 212.982 167.303, 219 166.551 C 221.475 166.242, 225.300 165.916, 227.500 165.826 C 229.700 165.737, 231.930 165.431, 232.455 165.146 C 232.980 164.862, 234.720 164.485, 236.321 164.310 C 240.432 163.860, 251.457 158.416, 255.569 154.805 C 263.190 148.114, 276.449 127.015, 281.551 113.461 C 284.481 105.677, 288.007 85.140, 287.982 76 C 287.931 56.613, 278.712 37.976, 263.262 26.030 C 256.263 20.617, 240.524 12.521, 230.340 9.095 C 224.737 7.209, 213.518 4.820, 204 3.485 C 201.525 3.138, 198.825 2.741, 198 2.603 C 197.175 2.465, 191.550 2.666, 185.500 3.051" fill="none" stroke="#000" stroke-width="2px" fill-rule="evenodd"/>
</svg>
