<svg xmlns="http://www.w3.org/2000/svg" width="291" height="135" viewBox="0 0 291 135" version="1.1">
	<path d="M 22 4.927 C 22 5.517, 21.129 6, 20.065 6 C 17.523 6, 7 16.563, 7 19.115 C 7 20.206, 6.326 22.402, 5.502 23.995 C 4.679 25.588, 3.904 29.201, 3.782 32.023 C 3.659 34.846, 3.200 37.377, 2.761 37.648 C 2.323 37.919, 2.875 39.421, 3.989 40.985 C 5.666 43.340, 5.832 44.313, 4.949 46.635 C 4.097 48.876, 4.188 49.664, 5.403 50.552 C 6.761 51.546, 6.757 51.902, 5.359 53.897 C 3.920 55.952, 3.943 56.238, 5.648 57.484 C 7.434 58.790, 7.420 58.924, 5.270 61.212 L 3.041 63.586 5.270 66.737 C 6.497 68.470, 8.288 70.096, 9.250 70.350 C 11.318 70.897, 11.614 73, 9.622 73 C 8.865 73, 7.723 73.629, 7.085 74.398 C 6.160 75.512, 6.584 76.312, 9.172 78.337 C 12.205 80.711, 12.313 80.999, 10.803 82.690 C 9.445 84.210, 9.405 84.699, 10.547 85.746 C 11.466 86.588, 11.807 88.807, 11.597 92.583 C 11.375 96.592, 11.671 98.320, 12.644 98.693 C 13.390 98.980, 14 100.003, 14 100.967 C 14 101.931, 15.097 103.543, 16.437 104.550 C 18.297 105.947, 18.747 107.013, 18.339 109.053 C 17.905 111.225, 18.401 112.149, 20.989 113.992 C 23.722 115.939, 24.093 116.702, 23.603 119.380 C 22.875 123.362, 23.706 124.531, 27.834 125.335 C 29.668 125.692, 32.368 126.819, 33.834 127.840 C 39.287 131.636, 54.286 133.464, 60.195 131.051 C 61.463 130.534, 64.750 127.934, 67.500 125.273 C 72.504 120.433, 73.605 119.181, 79.837 111.243 C 84.391 105.442, 115.714 78.076, 118.365 77.582 C 122.686 76.777, 145.683 74.984, 151.500 74.999 C 157.558 75.014, 171.410 77.863, 176.331 80.105 C 179.830 81.699, 179.774 83.412, 176.250 82.597 C 168.997 80.919, 159.069 80.041, 156.872 80.884 L 154.500 81.794 157.315 82.897 C 158.863 83.504, 161.169 84, 162.439 84 C 163.709 84, 166.662 84.675, 169 85.500 C 171.338 86.325, 174.545 87, 176.126 87 C 179.339 87, 179.919 88.350, 177.250 89.616 C 176.077 90.172, 177.973 90.619, 183 90.973 L 190.500 91.500 187.006 93.402 C 185.085 94.447, 182.385 95.646, 181.006 96.066 C 178.961 96.688, 178.869 96.844, 180.503 96.914 C 181.604 96.961, 187.149 95.230, 192.824 93.067 C 202.751 89.284, 203.378 89.173, 209.321 90.156 C 216.522 91.347, 228.151 90.550, 234.240 88.448 C 236.583 87.639, 241.650 85.423, 245.500 83.524 C 249.350 81.625, 255.109 78.945, 258.298 77.569 C 268.246 73.276, 288 57.702, 288 54.152 C 288 52.495, 283.771 49.523, 281.160 49.345 C 279.697 49.246, 267.475 47.348, 254 45.128 C 240.525 42.907, 225.900 40.625, 221.500 40.055 C 204.035 37.795, 192.242 36.050, 187 34.951 C 183.975 34.317, 179.831 33.457, 177.791 33.041 C 175.751 32.624, 173.051 31.637, 171.791 30.846 C 168.971 29.077, 157.614 24.853, 149.325 22.489 C 142.616 20.577, 140 20.930, 140 23.748 C 140 24.744, 139.100 26.207, 138 27 C 136.900 27.793, 136 29.205, 136 30.139 C 136 32.913, 134.881 35, 133.393 35 C 131.661 35, 131.556 36.675, 133.250 37.280 C 136.069 38.287, 132.777 39.102, 125.370 39.231 C 117.183 39.374, 114.817 38.589, 107.341 33.250 C 105.609 32.012, 103.853 31, 103.440 31 C 103.027 31, 101.143 29.821, 99.253 28.379 C 95.693 25.664, 80.658 19.050, 77.973 19.018 C 77.132 19.008, 75.490 18.331, 74.323 17.513 C 73.155 16.696, 69.792 15.387, 66.850 14.604 C 63.907 13.822, 58.125 11.750, 54 9.999 C 49.875 8.248, 44.700 6.350, 42.500 5.779 C 36.522 4.229, 22 3.625, 22 4.927" fill="none" stroke="#000" stroke-width="2px" fill-rule="evenodd"/>
</svg>
