<svg xmlns="http://www.w3.org/2000/svg" width="280" height="111" viewBox="0 0 280 111" version="1.1">
	<path d="M 197.500 4.066 C 195.300 5.278, 191.025 8.169, 188 10.489 C 178.246 17.972, 178.102 18.009, 162.797 16.879 C 155.351 16.329, 130.413 16.036, 107.379 16.228 L 65.500 16.576 48.500 20.786 C 39.150 23.102, 29.700 25.867, 27.500 26.930 C 23.117 29.049, 11.440 31.981, 7.188 32.032 C 5.710 32.049, 3.625 32.725, 2.556 33.534 C 0.633 34.988, 0.633 35.033, 2.602 37.752 C 4.860 40.870, 12.443 44.915, 22 48.100 C 25.575 49.291, 31.425 51.623, 35 53.283 C 38.575 54.943, 46.900 58.202, 53.500 60.526 L 65.500 64.751 69.400 72.375 C 71.545 76.569, 73.887 80, 74.605 80 C 75.323 80, 77.782 83.150, 80.069 87 C 82.357 90.850, 84.826 94, 85.557 94 C 89.964 94, 91.516 81.935, 88.082 74.372 L 86.207 70.244 106.854 69.762 C 118.209 69.497, 128.212 68.973, 129.082 68.597 C 130.368 68.043, 131.078 69.464, 132.887 76.208 C 136.195 88.543, 137.082 91.067, 137.927 90.545 C 138.829 89.988, 142 100.841, 142 104.485 C 142 108.316, 143.074 107.732, 147.483 101.500 C 150.305 97.511, 151.960 88.398, 150.968 82.304 C 150.201 77.593, 149.322 75.885, 145.834 72.331 C 143.519 69.972, 141.853 67.813, 142.133 67.534 C 142.769 66.897, 156.640 64.367, 164.116 63.523 C 173.231 62.495, 180.286 60.262, 182.255 57.782 L 184.067 55.500 192.283 64.192 C 206.757 79.503, 209.448 80.819, 215.143 75.363 C 219.339 71.343, 221.330 64.437, 220.002 58.510 C 218.502 51.815, 217.480 50.285, 212.967 47.983 C 210.785 46.870, 209 45.577, 209 45.110 C 209 43.954, 217.613 43.063, 221.968 43.768 C 223.911 44.083, 232.925 48.076, 242 52.642 C 264.858 64.143, 274.041 67.065, 276.816 63.721 C 278.757 61.383, 274.702 54.863, 267.146 48.174 C 263.216 44.695, 260 41.222, 260 40.455 C 260 39.689, 262.411 37.519, 265.359 35.634 C 270.989 32.032, 273.304 29.334, 276.955 22.122 C 278.944 18.192, 279.015 17.586, 277.642 16.214 C 276.270 14.842, 275.448 14.849, 269.631 16.284 C 266.066 17.164, 256.526 20.385, 248.431 23.442 C 233.254 29.173, 227.120 30.116, 218.500 28.041 L 215.500 27.319 218.070 26.253 C 221.183 24.961, 231 13.864, 231 11.637 C 231 9.434, 227.700 7.541, 219.516 5.048 C 208.550 1.707, 202.288 1.428, 197.500 4.066" fill="none" stroke="#000" stroke-width="2px" fill-rule="evenodd"/>
</svg>
