<?xml version="1.0" encoding="utf-8"?>
<!-- Generator: Adobe Illustrator 17.0.0, SVG Export Plug-In . SVG Version: 6.00 Build 0)  -->
<!DOCTYPE svg PUBLIC "-//W3C//DTD SVG 1.1//EN" "http://www.w3.org/Graphics/SVG/1.1/DTD/svg11.dtd">
<svg version="1.1" id="Слой_1" xmlns="http://www.w3.org/2000/svg" xmlns:xlink="http://www.w3.org/1999/xlink" x="0px" y="0px"
	 width="1200px" height="150px" viewBox="0 0 1200 150" enable-background="new 0 0 1200 150" xml:space="preserve">
<g>
	<path fill="#059839" d="M118.556,121.039c-5.443-7.446-8.597-15.993-11.524-24.662c-3.316-9.821-6.597-19.654-9.896-29.48
		c-6.647-19.801-13.293-39.602-19.94-59.404C76.97,6.82,76.545,6.378,76.04,6.127c-0.348-0.572-0.696-1.144-1.045-1.715
		c-0.091-0.149-0.206-0.273-0.334-0.378c-0.117-0.185-0.239-0.367-0.354-0.553c-0.852-1.377-3.074-0.833-3.077,0.833
		c-0.001,0.3-0.009,0.589-0.011,0.87c-0.282,0.17-0.525,0.445-0.675,0.843C63.477,24.807,58.506,44.44,52.38,63.55
		c-6.136,19.142-12.594,38.18-19.346,57.113c-0.624,1.748,1.24,3.156,2.815,2.815c25.91-5.603,54.314-10.314,79.478,0.79
		C117.208,125.099,120.12,123.178,118.556,121.039z"/>
	<path fill="#3DAA35" d="M72.206,48.393c-0.284-1.173-1.92-0.828-2.004,0.271c0.02,0.37-0.029,0.707-0.132,1.018
		c-0.124-0.959-0.393-1.899-0.815-2.878c-0.435-1.01-1.836-0.558-2.134,0.279c-0.604,1.697-1.378,3.276-2.314,4.76
		c0.137-1.421,0.211-2.848,0.209-4.29c-0.001-1.354-2.037-1.664-2.382-0.322c-0.824,3.202-2.299,5.595-4.507,8.041
		c-0.649,0.719,0.307,1.602,1.036,1.036c1.228-0.953,2.289-2.111,3.198-3.385c-0.098,0.922-0.216,1.843-0.382,2.764
		c-0.185,1.028,1.065,2.006,1.893,1.102c1.598-1.743,2.917-3.627,3.989-5.67c-0.008,0.312-0.029,0.626-0.076,0.951
		c-0.11,0.76,0.501,1.784,1.421,1.421C71.367,52.639,72.781,50.768,72.206,48.393z"/>
	<path fill="#3DAA35" d="M94.531,71.094c-1.916-1.3-3.719-2.151-5.312-3.916c-0.955-1.059-2.463,0.085-2.225,1.295
		c0.16,0.813,0.32,1.626,0.48,2.439c-1.491-1.121-2.626-2.65-3.733-4.221c-0.784-1.114-2.416-0.69-2.522,0.683
		c-0.192,2.492-0.107,4.924,0.255,7.334c-2.601-3.103-4.304-6.929-6.11-10.538c-0.344-0.688-1.518-0.208-1.255,0.529
		c1.972,5.517,4.42,10.666,8.628,14.829c0.93,0.92,2.529-0.009,2.189-1.274c-0.644-2.393-0.995-4.714-1.081-7.086
		c1.399,1.532,2.997,2.785,5.127,3.545c1.034,0.369,1.831-0.728,1.647-1.647c-0.091-0.455-0.182-0.91-0.273-1.366
		c1.089,0.697,2.291,1.186,3.654,1.347C95.126,73.18,95.297,71.614,94.531,71.094z"/>
	<path fill="#3DAA35" d="M66.994,93.132c-0.316-1.434-2.539-1.096-2.533,0.343c0.108,0.679,0.042,1.279-0.18,1.809
		c-0.123-1.239-0.351-2.461-0.704-3.725c-0.275-0.984-1.849-1.334-2.331-0.305c-0.95,2.029-2.156,3.679-3.735,5.064
		c0.092-1.666,0.081-3.329-0.054-5.02c-0.083-1.041-1.518-1.972-2.328-0.964c-1.864,2.32-3.909,4.314-6.199,6.045
		c1.342-2.656,2.419-5.564,2.033-8.007c-0.054-0.345-0.46-0.486-0.755-0.429c-0.082,0.016-0.165,0.032-0.247,0.048
		c-0.143,0.028-0.276,0.169-0.308,0.308c-0.017,0.076-0.035,0.151-0.052,0.227c-0.053,0.229,0.137,0.388,0.354,0.354
		c-0.945,0.151-2.371,5.063-2.959,6.165c-0.867,1.626-1.864,3.151-2.934,4.648c-0.819,1.146,0.727,2.328,1.789,1.789
		c3.422-1.736,6.45-4.009,9.064-6.754c0.007,1.439-0.072,2.874-0.254,4.339c-0.125,1,1.193,1.602,1.962,1.126
		c2.056-1.272,3.731-2.804,5.073-4.659c0.064,0.888,0.066,1.783-0.005,2.717c-0.085,1.12,1.173,1.519,2.011,1.154
		C66.3,98.274,67.603,95.894,66.994,93.132z"/>
	<path fill="#3DAA35" d="M101.408,97.373c-1.291-1.122-2.845,0.536-1.837,1.837c0.945,1.218,1.032,0.825-0.175,0.305
		c-0.517-0.223-0.838-0.431-1.411-0.634c-0.935-0.329-2.099,0.741-1.707,1.707c0.072,0.179,0.144,0.358,0.217,0.537
		c-1.219-0.84-2.208-1.954-2.998-3.377c-0.295-0.531-1.023-0.843-1.61-0.655c-3.183,1.018-2.251,5.389-1.283,8.719
		c-3.388-2.007-5.808-5.056-7.43-8.793c-0.372-0.858-1.741-0.243-1.492,0.629c1.541,5.39,5.396,9.558,10.416,11.941
		c1.127,0.535,2.24-0.34,2.023-1.555c-0.069-0.383-0.888-4.052-1.293-6.348c1.55,1.699,3.498,2.869,5.897,3.523
		c0.933,0.254,2.147-0.697,1.723-1.724c-0.064-0.156-0.128-0.312-0.192-0.468c0.761,0.212,1.52,0.105,2.276-0.78
		C103.943,100.585,102.754,98.543,101.408,97.373z"/>
	<path fill="#936138" d="M76.289,25.17c0.009-0.985-0.703-1.5-1.463-1.556c-0.001-0.01-0.001-0.021-0.002-0.031
		c-0.071-1.182-1.76-1.181-1.837,0c-1.31,20.083-1.157,40.245-1.805,60.359c-0.648,20.114-1.579,40.219-2.848,60.304
		c-0.066,1.042,0.888,1.729,1.814,1.814c3.839,0.351,7.606,0.294,11.432-0.173c0.898-0.11,1.984-0.764,1.852-1.852
		C78.649,104.576,75.945,64.933,76.289,25.17z M76.211,142.128c0.185-0.103,0.355-0.223,0.518-0.351
		c0.078,0.26,0.162,0.518,0.243,0.777c-0.337,0.014-0.674,0.03-1.011,0.038C76.066,142.456,76.155,142.305,76.211,142.128z"/>
</g>
<g>
	<path fill="#059839" d="M273.68,65.318c1.706-4.427-0.482-9.33-4.565-11.272c5.318-5.155,7.219-13.648,4.544-20.683
		c-3.53-9.283-13.523-14.296-23.077-14.192c-2.459-9.879-14.037-14.277-22.169-8.034c-5.99-7.605-17.03-10.83-26.031-6.671
		c-9.084,4.197-13.773,14.947-11.588,24.487c-8.004,0.762-12.066,9.884-7.453,16.309c-12.419,4.334-20.976,16.509-19.817,29.966
		c0.603,6.998,4.645,15.384,10.631,19.919c0.701,1.169,2,2.056,3.224,1.954c2.741,1.273,5.77,1.737,8.986,1.001
		c-0.004,5.588,3.086,11.064,8.529,13.193c5.201,2.035,10.95,0.455,14.797-3.274c3.249,6.246,9.494,11.078,16.809,10.841
		c6.652-0.216,12.306-4.662,14.224-10.709c5.874,6.472,16.227,2.784,17.557-5.104c9.291,4.962,21.586,0.142,25.639-9.955
		C287.477,84.235,284.388,67.164,273.68,65.318z"/>
	<path fill="#936138" d="M261.997,66.794c-0.649-1.614-3.424-2.145-3.834,0c-0.684,3.572-0.371,6.95-1.837,10.429
		c-1.407,3.34-3.647,6.223-6.388,8.579c-5.922,5.09-13.899,7.676-21.639,7.968c-0.092-2.336-0.194-4.671-0.276-7.007
		c-0.241-6.821-0.439-13.642-0.609-20.465c0.579-0.034,1.157-0.08,1.733-0.149c6.327-0.762,12.371-3.412,16.844-8.019
		c3.669-3.78,7.776-10.601,5.911-16.056c-0.619-1.81-3.304-1.983-3.852,0c-0.602,2.18-0.505,4.439-1.323,6.593
		c-0.946,2.492-2.541,4.73-4.438,6.585c-4.011,3.921-9.434,6.04-14.989,6.425c-0.016-0.722-0.039-1.444-0.054-2.166
		c-0.119-5.852-0.075-11.763-0.284-17.648c0.092-0.012,0.185-0.02,0.276-0.034c7.439-1.15,15.181-11.524,10.643-18.795
		c-0.815-1.305-2.92-1.117-3.332,0.435c-0.659,2.479-0.068,5.022-0.941,7.506c-1.095,3.118-3.622,5.585-6.881,6.193
		c-0.139-2.166-0.321-4.327-0.581-6.476c-0.123-1.017-0.91-1.478-1.638-1.388c-0.612-0.637-1.933-0.443-2.163,0.532
		c-0.517,2.184-0.775,4.452-0.919,6.743c-3.55-1.528-6.075-5.159-8.102-8.503c-0.651-1.073-2.252-0.591-2.305,0.624
		c-0.262,5.995,4.61,10.953,10.234,12.645c-0.03,1.719-0.045,3.429-0.097,5.104c-0.152,4.937-0.276,9.875-0.416,14.812
		c-8.202-1.638-14.762-7.387-19.372-14.633c-0.875-1.375-3.225-0.522-2.713,1.144c3.047,9.909,12.069,16.455,21.949,18.147
		c-0.276,9.078-0.571,18.154-0.9,27.23c-4.693-0.869-9.208-2.594-13.299-5.143c-5.966-3.717-10.073-9.087-14.522-14.391
		c-0.952-1.135-2.907,0.078-2.465,1.435c4.077,12.529,17.109,20.494,30.121,22.75c-0.027,0.702-0.048,1.403-0.075,2.105
		c-0.462,11.876-0.993,23.749-1.59,35.619c-0.134,2.671-1.716,8.596,1.651,10.02c0.237,0.1,0.472,0.159,0.704,0.193
		c2.133,0.89,5.269,0.155,7.401-0.042c0.578-0.054,1.229-0.261,1.606-0.738c0.967-0.178,1.777-0.904,1.689-2.19
		c-1.011-14.768-1.818-29.549-2.441-44.337c0.672-0.025,1.341-0.06,2-0.119c8.466-0.761,16.857-3.866,23.224-9.607
		C258.949,83.977,264.944,74.118,261.997,66.794z M223.766,103.371c0.038-0.99,0.081-1.981,0.118-2.971
		c0.045,1.028,0.097,2.056,0.144,3.083C223.942,103.441,223.856,103.4,223.766,103.371z"/>
	<path fill="#3DAA35" d="M201.36,62.593c-0.511-3.67-2.589-7.37-6.999-6.017c-2.826,0.867-4.436,3.369-4.937,6.112
		c-5.655-2.355-12.756-0.751-14.918,5.884c-1.094,3.357-0.568,7.417,1.893,10.062c1.56,1.678,3.786,2.587,5.904,2.402
		c0.933,4.231,4.308,7.657,9.306,6.837c3.896-0.64,6.943-4.77,6.224-8.446c0.272,0.025,0.545,0.037,0.819,0.041
		c4.815,4.495,12.494,0.814,12.514-5.843C211.177,69.319,206.207,62.942,201.36,62.593z M192.127,83.023
		c0.096-0.163,0.188-0.331,0.274-0.507c0.24-0.06,0.475-0.145,0.707-0.246C192.866,82.561,192.544,82.816,192.127,83.023z"/>
	<path fill="#3DAA35" d="M235.722,22.412c-0.394-2.223-1.716-4.214-4.046-5.231c-3.154-1.376-6.529-0.112-8.464,2.383
		c-1.946-1.231-4.432-1.151-6.305,0.103c-3.433-6.44-11.463-10.239-17.83-4.554c-3.721,3.322-3.795,7.957-1.926,12.307
		c1.11,2.585,2.884,5.303,5.308,6.059c-0.361,3.684,1.683,7.525,5.583,8.545c3.782,0.99,7.118-1.307,8.444-4.51
		c1.59,2.466,4.191,4.168,7.437,4.13c3.605-0.043,6.283-2.212,7.729-5.135c3.054,2.212,6.665,3.635,10.518,2.785
		c4.057-0.895,7.263-4.172,7.236-8.459C249.355,22.978,241.854,20.224,235.722,22.412z M244.888,29.257
		c-0.464-0.919-1.177-1.825-2.03-2.563c-0.055-0.06-0.109-0.121-0.167-0.179C243.749,27.042,244.553,27.945,244.888,29.257z"/>
	<path fill="#3DAA35" d="M266.821,65.888c1.584-1.654,2.436-4.118,2.002-6.4c-0.685-3.607-5.021-4.324-7.611-2.21
		c-0.917,0.748-1.727,2.162-2.212,3.727c-2.228-2.521-7.197-3.748-10.066-2.044c-5.071,3.012-4.107,9.053-0.22,11.809
		c-0.049,0.123-0.089,0.248-0.113,0.375c-1.256,1.795-1.507,4.057,0.424,6.036c2.241,2.297,4.746,1.496,6.735-0.205
		c0.135-0.052,0.27-0.104,0.396-0.172c2.286,3.652,7.519,5.019,11.266,1.634C271.634,74.632,270.496,69.068,266.821,65.888z"/>
</g>
<g>
	<path fill="#059839" d="M427.256,109.632c-1.61-5.724-7.35-10.838-11.26-15.051c-3.449-3.717-7.134-8.091-11.193-11.646
		c0.217-0.57,0.362-1.162,0.412-1.769c3.671,0.582,7.557,0.368,10.249-2.497c3.38-3.596,2.85-9.373,1.171-13.608
		c-1.97-4.968-5.717-8.963-9.375-12.749c-4.35-4.503-8.667-9.084-13.132-13.488c0.017-0.006,0.034-0.011,0.051-0.017
		c4.042-1.536,4.728-6.254,3.615-9.971c-1.59-5.311-6.019-9.329-9.831-13.103c-3.834-3.796-8.325-9.614-13.903-10.718
		c-5.27-1.043-10.19,1.947-13.756,5.535c-4.073,4.098-8.055,8.892-10.994,13.883c-2.11,3.583-4.765,8.889-1.9,12.768
		c0.934,1.264,2.367,2.256,3.95,2.466c-3.075,3.396-5.561,7.841-7.971,11.311c-3.435,4.947-7.02,9.94-9.146,15.62
		c-1.368,3.655-3.017,9.532-0.38,13.046c1.86,2.478,4.598,2.511,7.191,1.681c0.1,2.364,1.123,4.596,3.174,6.033
		c-0.02,0.036-0.041,0.071-0.06,0.108c-4.184,3.838-7.407,9.349-10.009,14.061c-2.643,4.787-8.034,13.279-5.935,19.01
		c1.546,4.224,6.685,5.618,10.705,4.444c3.307-0.966,6.285-3.912,8.068-7.232c0.591,1.132,1.504,2.101,2.761,2.72
		c2.109,1.038,4.304,0.759,6.09-0.305c1.34,1.823,3.658,2.963,6.113,2.588c3.388-0.518,5.387-2.731,6.62-5.48
		c0.785,0.85,1.811,1.442,3.164,1.581c1.451,0.149,2.922-0.353,4.004-1.247c1.674,1.626,3.748,2.743,6.208,2.23
		c1.278-0.267,2.364-0.924,3.152-1.81c2.552,2.827,5.749,5.113,9.721,4.49c2.183-0.342,4.152-1.552,5.389-3.227
		c3.461,4.229,8.658,7.82,13.76,5.348c2.269-1.099,3.43-3.452,3.358-5.876c1.576,0.601,3.246,0.841,4.889,0.553
		C426.777,118.515,428.412,113.742,427.256,109.632z M344.428,98.933c0.249-0.324,0.502-0.645,0.757-0.963
		c0.085,0.088,0.179,0.168,0.285,0.24C345.116,98.443,344.765,98.679,344.428,98.933z M369.044,108.184
		c-0.034-0.018-0.07-0.031-0.105-0.048c0.091-0.963,0.092-1.936,0.002-2.91c0.179,0.019,0.368,0.096,0.565,0.223
		C369.24,106.339,369.085,107.253,369.044,108.184z M388.84,33.579c0.001-0.137,0.007-0.276,0.005-0.412
		c0.143,0.131,0.277,0.268,0.422,0.398c0.167,0.15,0.346,0.27,0.532,0.367c0.328,0.381,0.68,0.748,1.079,1.089
		C390.115,34.781,389.435,34.233,388.84,33.579z M390.754,65.325c-0.348-0.729-0.69-1.461-1.027-2.195
		c0.459,0.541,0.915,1.085,1.373,1.626C390.957,64.925,390.836,65.115,390.754,65.325z"/>
	<path fill="#936138" d="M387.598,140.429c-1.956-8.332-3.913-16.663-5.869-24.995c-0.592-2.521-0.676-6.815-2.785-8.673
		c-1.79-1.577-4.905-0.931-7.048-0.907c-0.726,0.008-1.275,0.286-1.66,0.697c-0.398,0.08-0.746,0.351-0.859,0.852
		c-2.572,11.412-3.765,23.132-5.292,34.716c-0.171,1.295,1.229,2.355,2.379,2.379c6.303,0.13,12.556-0.199,18.809-1.015
		C386.844,143.277,387.993,142.11,387.598,140.429z M369.243,138.951c0.313,0.336,0.698,0.602,1.122,0.759
		c-0.407,0.006-0.813,0.02-1.22,0.022C369.178,139.472,369.21,139.211,369.243,138.951z"/>
</g>
<g>
	<path fill="#059839" d="M575.14,102.244c-0.239-0.563-0.74-1.008-1.575-1.141c-8.949-1.421-17.262-4.823-24.475-10.103
		c7.506-1.028,14.46-4.826,19.357-10.804c1.019-1.244,0.906-3.706-1.065-4.033c-10.894-1.805-20.602-7.342-27.546-15.676
		c5.168,0.781,10.463-0.207,15.191-3.018c1.61-0.957,1.505-3.184,0-4.164c-15.812-10.289-23.714-28.429-26.49-46.519
		c-0.357-2.324-4.246-2.277-4.647,0c-3.635,20.652-16.321,38.774-34.574,49.131c-1.801,1.022-1.413,3.867,0.575,4.401
		c5.392,1.448,10.801,1.349,15.947-0.228c-5.217,11.61-16.026,20.043-28.735,22.275c-2.297,0.403-2.011,3.29-0.575,4.397
		c5.999,4.627,13.478,6.64,20.853,5.88c-5.856,6.965-14.417,11.633-23.499,12.694c-1.908,0.223-2.027,3.067,0,3.068
		c0.207,0,0.409-0.017,0.615-0.02c29.278,21.114,76.162,25.799,102.839-2.325C579.047,104.255,577.072,101.744,575.14,102.244z"/>
	<path fill="#936138" d="M532.226,141.583c-4.295-37.303-6.496-74.654-5.549-112.212c0.033-1.311-0.869-2.023-1.875-2.149
		c-0.469-0.796-1.826-0.611-1.939,0.52c-0.002,0.019-0.003,0.038-0.005,0.058c-0.398,0.362-0.671,0.882-0.688,1.572
		c-0.074,2.952-0.127,5.906-0.169,8.861c-1.37,20.344-1.076,40.91-1.485,61.25c-0.238,11.822-0.475,23.645-0.713,35.467
		c-0.064,3.18-0.847,7.294,2.421,9.191c2.762,1.603,6.229,0.488,8.922-0.675C531.77,143.196,532.303,142.254,532.226,141.583z
		 M524.742,113.728c-0.132,0.026-0.26,0.067-0.384,0.12c0.021-1.215,0.043-2.429,0.064-3.644
		C524.522,111.38,524.636,112.554,524.742,113.728z"/>
</g>
<g>
	<path fill="#3DAA35" d="M667.877,17.816c0.266-4.364-1.988-8.775-6.129-10.685c-4.075-1.88-8.705-0.723-11.835,2.172
		c-3.634-5.767-11.907-5.798-16.761-0.448c-4.724,5.206-6.219,12.909-3.245,19.104c-0.266,0.142-0.519,0.298-0.76,0.467
		c-10.216,2.649-8.657,21.234,0.285,26.036c3.142,1.688,5.943-0.118,9.073,0.535c2.816,0.587,4.346,4.953,7.211,6.443
		c4.994,2.597,10.917,0.656,13.872-3.838c7.145,2.099,13.405-5.133,10.023-11.614c0.365-0.783,0.705-1.572,0.985-2.37
		c0.299-0.853,0.585-1.788,0.571-2.703c-0.009-0.628-0.526-1.544-0.465-2.096c0.178-1.593,3.015-3.117,4.005-4.393
		c1.241-1.6,2.127-3.458,2.477-5.457C678.242,22.92,673.438,17.72,667.877,17.816z M668.681,27.793
		c-0.234-0.426-0.186-0.717,0.138-0.878c-0.049,0.408-0.113,0.811,0.056,1.176C668.823,28.463,668.759,28.364,668.681,27.793z"/>
	<path fill="#3DAA35" d="M728.077,50.408c-3.864-1.573-7.821-1.035-11.359,0.661c-0.496-4.194-3.039-8.058-7.177-9.695
		c-5.485-2.17-12.078,0.476-14.687,5.699c-0.37,0.74-0.288,1.44,0.031,1.992c-0.144,0.239-0.278,0.484-0.402,0.735
		c-5.977,0.637-12.403,3.256-12.796,10.242c-0.211,3.743,2.073,6.715,5.128,7.784c-3.202,4.632-4.638,10.467-0.947,15.459
		c2.759,3.732,7.717,4.526,11.386,2.428c3.119,6.249,11.154,9.859,17.779,6.753c5.577-2.614,8.286-9.126,7.256-14.958
		c6.937,0.506,13.09-8.839,13.276-15.712C735.703,56.722,732.767,52.317,728.077,50.408z"/>
	<path fill="#059839" d="M667.09,56.734c-3.131-7.918-12.152-10.469-19.254-7.235c-0.565-3.2-2.732-6.088-6.024-7.053
		c-4.016-1.178-8.137,0.954-10.063,4.409c-4.968-3.701-12.26-3.015-16.171,2.492c-4.415,6.216-2.324,13.913,3.017,18.446
		c-3.226,2.409-4.948,6.662-3.437,10.691c1.455,3.879,5.519,6.1,9.488,5.87c-0.491,5.015,0.305,10.773,6.046,12.022
		c4.074,0.887,6.837-1.847,8.693-5.115c2.369,2.782,6.438,3.912,10.135,1.999c5.704-2.951,6.411-9.425,4.411-14.843
		c4.578-1.85,9.313-4.203,12.057-8.47C668.493,66.05,668.777,60.999,667.09,56.734z"/>
	<path fill="#059839" d="M715.218,17.896c-3.489-8.416-13.687-10.287-20.252-5.328c-0.947-3.431-3.02-6.499-6.362-8.116
		c-3.876-1.875-9.016-1.199-12.042,1.968c-0.731,0.765-1.043,1.851-1.713,2.597c-1.238,1.379-2.069,0.591-3.741-0.01
		c-2.388-0.859-5.102-1.288-7.525-0.303c-2.951,1.199-4.425,4.21-3.835,6.992c-4.294,0.181-7.95,4.528-6.789,9.043
		c1.035,4.028,4.762,6.003,8.56,6.073c-2.142,4.305-3.101,9.344,0.353,13.314c3.529,4.056,8.85,3.222,13.222,1.09
		c1.401,9.775,11.762,16.943,21.508,12.881c7.665-3.194,13.276-14.461,8.396-21.325C713.111,34.876,718.848,26.652,715.218,17.896z
		 M712.203,23.975c-0.107-0.414-0.227-0.811-0.353-1.184c0.15-0.646,0.162-1.319,0.053-1.989
		C712.192,21.882,712.285,22.948,712.203,23.975z M701.867,33.198c0.058-0.103,0.107-0.209,0.147-0.32
		c0.055-0.033,0.11-0.069,0.166-0.103c0.4,0.146,0.805,0.246,1.211,0.297C702.892,33.15,702.384,33.194,701.867,33.198z
		 M678.033,12.394c-0.279,0.037-0.529,0.15-0.743,0.316c-0.019-0.003-0.039-0.007-0.058-0.01c0.271-0.284,0.526-0.609,0.767-0.973
		C677.997,11.941,678.01,12.165,678.033,12.394z"/>
	<path fill="#936138" d="M701.656,79.079c-1.756,1.166-3.622,1.98-5.722,2.276c-0.748,0.106-1.489,0.089-2.226,0.051
		c4.12-6.157,6.999-13.272,6.605-20.773c-0.144-2.735-4.21-2.767-4.275,0c-0.148,6.279-2.113,12.338-5.872,17.399
		c-3.547,4.778-8.519,7.938-13.613,10.829c-0.017-0.524-0.034-1.048-0.051-1.572c-0.374-11.738-0.748-23.476-1.122-35.214
		c0.27,0.137,0.583,0.193,0.919,0.111c3.376-0.819,6.313-2.638,8.596-5.079c0.453,0.182,0.958,0.279,1.469,0.278
		c0.715-0.001,1.435-0.075,2.153-0.182c3.469,0.346,7.214-1.646,9.299-4.359c1.291-1.68-1.219-4.053-2.894-2.894
		c-1.37,0.948-2.805,1.768-4.39,2.298c-0.654,0.219-1.327,0.401-2.002,0.54c-0.227,0.05-0.456,0.091-0.686,0.127
		c0.932-1.807,1.589-3.77,1.9-5.824c0.403-2.662-3.207-3.784-4.104-1.131c-1.005,2.973-2.629,5.568-4.942,7.704
		c-1.089,1.005-2.295,1.849-3.597,2.555c-0.6,0.325-1.245,0.567-1.883,0.819c-0.196-6.142-0.391-12.285-0.587-18.427
		c-0.036-1.131-0.87-1.712-1.745-1.691c-0.362-0.723-1.618-0.956-1.755,0.057c-0.059,0.434-0.099,0.871-0.15,1.306
		c-0.774,1.298-0.861,2.566-0.491,4.138c0.02,0.087,0.052,0.16,0.081,0.237c-0.129,1.889-0.204,3.787-0.254,5.687
		c-0.08,0.004-0.157-0.001-0.24,0.012c-5.201,0.765-10.262-0.17-14.903-2.603c-2.061-1.08-4.516,1.688-2.602,3.372
		c1.143,1.005,2.394,1.871,3.714,2.592c-0.006,0.008-0.011,0.017-0.017,0.025c-1.249,1.844-3.313,3.092-5.539,3.273
		c-2.717,0.103-2.69,4.411,0,4.211c2.47-0.183,4.714-0.992,6.666-2.533c0.947-0.748,2.282-1.975,2.942-3.319
		c3.232,0.914,6.661,0.96,9.898-0.106c-0.023,2.87-0.023,5.736-0.07,8.576c-0.142,8.688-0.27,17.377-0.396,26.066
		c-0.002,0.122-0.003,0.244-0.005,0.366c-13.073,1.499-25.844-5.592-31.39-17.573c-1.016-2.195-4.799-0.632-3.941,1.661
		c1.045,2.795,2.532,5.491,4.356,7.982c-2.273,0.813-4.683,0.952-6.988,0.092c-0.485-0.224-0.964-0.454-1.433-0.674
		c-2.409-1.129-4.534,2.339-2.118,3.623c2.999,1.524,6.217,2.976,9.663,2.572c1.443-0.169,3.106-0.67,4.265-1.619
		c7.184,7.329,17.495,11.725,27.511,9.202c-0.221,15.5-0.433,31-0.694,46.499c-0.069,4.12-0.44,8.364-0.184,12.475
		c0.123,1.971,0.687,4.186,2.636,5.115c1.759,0.839,3.867,0.16,5.136-1.232c1.869-2.05,1.6-5.036,1.531-7.59
		c-0.392-14.563-0.887-29.124-1.362-43.685c5.661-1.105,10.417-5.311,14.034-9.757c2.066,0.907,4.699,0.72,7.193,0.02
		c2.241-0.313,4.418-1.323,6.245-2.977C705.997,80.81,703.675,77.738,701.656,79.079z"/>
</g>
<g>
	<path fill="#3DAA35" d="M874.313,48.295c2.251-2.472,2.913-6.207,1.522-9.543c-1.847-4.428-6.369-6.133-10.85-6.307
		c1.626-4.696,0.683-10.42-3.96-13.051c-3.922-2.222-8.852-1.159-11.591,2.067c-1.813-1.484-4.176-2.133-6.681-1.873
		c-3.485,0.362-6.24,2.507-8.618,4.951c-2.3-5.024-7.769-7.739-12.886-6.656c-0.49-0.028-0.921,0.109-1.276,0.354
		c-0.529,0.182-1.054,0.392-1.564,0.664c0.998-6.753-0.465-15.838-8.997-15.717c-6.752,0.095-11.679,6.052-12.586,12.341
		c-4.272-0.534-7.866,2.049-9.144,5.889c-2.165-1.204-4.769-1.529-7.344-0.847c-4.75,1.259-7.61,5.761-8.409,10.378
		c-1.428,8.255,3.061,16.713,10.537,19.049c-3.545,2.289-6.005,7.284-6.661,10.902c-0.853,4.707,0.818,10.365,5.18,12.1
		c-0.93,6.529,3.9,14.612,8.984,17.507c6.153,3.503,13.953,2.284,18.912-2.419c1.996,2.319,4.908,3.622,8.213,3.676
		c4.262,0.069,7.913-2.055,11.111-4.695c1.276,5.049,5.155,9.352,10.454,10.481c5.355,1.141,12.667-1.719,14.579-7.211
		c2.67,1.538,6.255,1.849,8.289-0.152c1.817-1.788,2.105-4.625,1.373-7.171c8.109,2.114,16.981-4.537,19.338-12.886
		C884.54,61.968,881.331,52.763,874.313,48.295z"/>
	<path fill="#059839" d="M849.81,28.583c2.718-5.13,2.66-11.563-0.996-16.39c-2.03-2.681-4.922-4.486-8.383-3.786
		c-2.604,0.526-4.479,2.192-5.96,4.22c-3.097-4.665-9.39-7.168-14.768-4.721c-5.086,2.314-7.44,8.236-6.379,13.465
		c-4.597-0.61-9.227,0.871-11.823,5.329c-1.56,2.678-1.606,5.864-0.464,8.491c-0.33,0.141-0.654,0.298-0.968,0.474
		c-1.079-3.238-3.814-5.769-7.588-6.229c-5.41-0.659-10.232,2.799-11.879,7.729c-6.647-1.086-13.375,2.887-14.775,9.868
		c-1.02,5.084,1.199,10.577,5.513,12.621c-2.078,3.342-2.243,7.821,0.47,11.05c2.902,3.453,7.959,3.956,11.744,1.962
		c1.477,4.295,4.678,7.584,10.008,6.096c2.499-0.697,4.239-2.231,5.466-4.174c3.726,4.2,10.464,5.522,15.566,2.107
		c5.724-3.831,6.306-11.717,2.034-16.372c1.569-1.354,2.537-3.396,2.563-5.688c0.023-1.994-0.689-3.718-1.81-5.183
		c2.104-0.65,3.781-2.212,5.016-4.12c2.244,3.666,6.204,6.306,10.588,6.77c3.807,0.402,7.728-1.725,9.04-5.009
		c4.883,2.155,10.981,0.467,13.43-4.958C858.036,36.421,854.993,30.716,849.81,28.583z M808.502,41.749
		c-0.225-0.454-0.499-0.855-0.8-1.224c0.025-0.013,0.05-0.028,0.074-0.044c0.312,0.337,0.586,0.709,0.784,1.131
		C808.538,41.654,808.52,41.701,808.502,41.749z"/>
	<path fill="#059839" d="M874.55,69.332c2.608-4.602-0.581-10.683-5.631-12.719c-5.867-2.366-11.973,0.22-14.878,5.286
		c-4.512-3.38-12.373-0.342-15.391,4.172c-3.561,5.325-1.393,12.745,3.987,15.068c-1.976,3.288-1.467,7.854,2.331,10.281
		c2.824,1.805,5.773,1.741,8.265,0.531c-0.841,6.057,4.741,12.022,11.578,11.378c7.387-0.696,12.065-9.03,9.689-15.55
		c3.444-0.784,6.353-3.771,6.872-7.459C882.063,75.406,878.691,71.424,874.55,69.332z"/>
	<path fill="#936138" d="M864.997,74.521c-0.463-2.026-2.595-4.595-4.839-2.93c-1.246,0.924-1.068,2.424-1.172,3.818
		c-0.192,2.554-0.686,4.999-1.649,7.378c-1.976,4.883-5.62,8.947-10.238,11.477c-2.417,1.325-5.073,2.252-7.8,2.679
		c-2.112,0.33-4.235,0.075-6.321,0.323c-0.147-3.252-0.285-6.501-0.386-9.739c-0.579-18.594-1.174-37.188-1.765-55.782
		c-0.092-2.898-4.61-2.911-4.515,0c0.037,1.138,0.075,2.276,0.112,3.414c-0.835,9.019-1.193,18.102-1.453,27.18
		c-4.4,0.588-8.382,2.19-12.966,1.986c-4.567-0.203-9.037-1.617-12.748-4.314c-3.404-2.474-5.239-5.671-7.142-9.299
		c-0.934-1.78-2.11-3.222-3.976-3.346c-0.337-0.252-0.781-0.359-1.293-0.206c-0.198,0.06-0.396,0.119-0.594,0.178
		c-0.608,0.182-1.158,0.667-1.305,1.305c-0.824,3.561,2.357,7.705,4.381,10.382c2.738,3.621,6.184,6.76,10.135,9.012
		c7.428,4.233,17.104,5.763,25.279,2.814c-0.087,3.372-0.175,6.742-0.285,10.103c-0.543,16.567-0.949,33.143-1.634,49.705
		c-0.166,4.012-2.254,13.032,3.285,14.729c5.425,1.662,7.917-4.373,8.005-8.606c0.226-10.849-0.294-21.793-0.818-32.705
		c7.718,1.489,15.343-2.313,21.242-7.284C860.503,91.767,866.902,82.863,864.997,74.521z M827.817,87.767
		c0.047-1.941,0.097-3.883,0.144-5.824c0.063,1.928,0.127,3.856,0.19,5.784C828.038,87.731,827.927,87.744,827.817,87.767z"/>
</g>
<g>
	<path fill="#059839" d="M1033.355,85.326c-0.849-6.178-4.251-11.501-9.366-14.748c4.287-4.931,5.908-12.039,3.642-18.303
		c-2.197-6.072-7.629-10.308-13.78-11.567c4.634-7.458,4.178-17.883-2.198-24.356c-6.569-6.67-17.415-7.077-24.976-2.112
		c-2.687-6.703-9.618-11.567-17.023-10.913c-7.323,0.646-13.091,6.22-14.86,13.071c-6.453-2.639-14.379-1.49-19.369,3.651
		c-4.959,5.11-6.042,12.932-3.32,19.318c-7.521,1.619-14.069,7.337-15.68,15.109c-1.576,7.603,1.651,15.428,7.68,20.055
		c-8.053,8.637-6.063,22.728,2.727,30.569c10.34,9.224,24.303,9.603,37.386,7.563c11.904,0.631,23.831,0.348,35.683-0.963
		c8.508-0.941,17.636-2.287,24.78-7.382C1030.869,99.909,1034.404,92.958,1033.355,85.326z"/>
	<path fill="#936138" d="M1008.192,89.388c-1.32,1.224-2.118,2.543-4.024,2.953c-1.921,0.413-3.726-0.366-5.054-1.746
		c4.194-3.118,9.12-8.294,8.903-13.428c-0.082-1.943-2.345-2.327-3.414-0.925c-1.682,2.205-2.387,4.956-4.213,7.15
		c-0.991,1.191-2.113,2.257-3.321,3.217c-0.566-2.889,0.245-6.101,1.239-8.82c0.437-1.195-1.396-1.904-2.016-0.85
		c-2.038,3.468-3.019,7.812-2.03,11.6c-0.156,0.093-0.304,0.198-0.462,0.288c-5.504,3.13-12.001,4.319-18.285,4.448
		c-0.036-0.533-0.081-1.066-0.116-1.599c-0.494-7.411-0.897-14.828-1.221-22.248c1.123-0.078,2.23-0.18,3.301-0.327
		c5.632-0.775,11.281-2.55,16.163-5.507c0.522-0.316,1.057-0.661,1.595-1.031c3.555,2.149,9.438,2.236,11.63-1.619
		c0.723-1.271-0.681-2.428-1.877-1.877c-1.591,0.732-2.854,1.689-4.692,1.723c-0.787,0.015-1.584-0.095-2.332-0.343
		c2.902-2.543,5.337-5.808,5.462-9.499c0.067-1.967-2.643-2.572-3.609-0.977c-1.363,2.253-2.101,4.443-4.006,6.38
		c-0.388,0.395-0.8,0.761-1.218,1.12c-1.114-2.327-0.645-5.244,0.731-7.436c0.585-0.932-0.706-1.831-1.473-1.136
		c-2.865,2.591-3.307,6.998-1.633,10.346c-0.895,0.587-1.818,1.134-2.771,1.623c-4.572,2.344-9.718,3.72-14.83,4.139
		c-0.208,0.017-0.417,0.024-0.626,0.039c-0.228-5.814-0.399-11.629-0.525-17.446c1.763,0.141,3.545,0.104,5.313-0.146
		c2.907-0.411,8.126-2.218,11.909-4.947c3.702,0.835,9.436-0.976,9.654-5.193c0.051-0.974-1.039-1.404-1.803-1.035
		c-1.674,0.809-2.878,2.272-4.485,2.914c1.238-1.843,1.627-3.914,0.524-6.137c-0.888-1.791-3.271-0.715-3.43,0.929
		c-0.154,1.587-0.881,2.964-1.967,4.14c-1.334-1.404-1.833-3.634-1.082-5.44c0.426-1.025-1.125-1.496-1.682-0.709
		c-1.797,2.537-1.386,5.808,0.425,8.075c-3.555,2.292-8.512,3.396-11.756,3.409c-0.575,0.003-1.141-0.027-1.703-0.071
		c-0.026-1.464-0.053-2.927-0.072-4.391c0.226-2.872,0.107-5.703-0.316-8.555c-0.163-1.099-1.794-1.196-2.326-0.374
		c-0.654-0.371-1.54-0.269-1.68,0.678c-0.322,2.185-0.193,4.47,0.084,6.699c-0.042,0.176-0.07,0.362-0.068,0.569
		c0.02,1.532,0.054,3.063,0.082,4.594c-2.205-0.635-4.294-1.601-6.286-2.777c0.17-0.488,0.295-0.991,0.357-1.504
		c0.187-1.535,0.064-3.862-1.727-4.328c-0.476-0.124-1.018,0.081-1.265,0.515c-0.536,0.941-0.164,1.614-0.109,2.628
		c0.015,0.286-0.001,0.579-0.038,0.872c-0.725-0.519-1.44-1.057-2.138-1.619c-1.062-0.855-3.071,0.296-2.087,1.61
		c0.793,1.058,1.675,2.034,2.624,2.934c-1.564,1.211-3.791,1.091-5.491,0.038c-0.931-0.577-1.993,0.77-1.179,1.527
		c2.423,2.252,6.402,2.517,8.989,0.352c2.517,1.846,5.368,3.217,8.385,4.01c-0.452,6.051-0.783,12.12-1.023,18.199
		c-2.811-0.171-5.606-0.595-8.337-1.294c-1.207-0.309-2.372-0.68-3.514-1.087c0.826-3.638-0.317-7.899-3.672-9.687
		c-1.675-0.893-3.117,1.149-1.957,2.537c1.41,1.688,2.505,3.771,2.365,5.863c-2.556-1.091-5.049-2.312-7.65-3.472
		c-1.282-0.572-2.62,0.894-1.557,2.018c2.054,2.173,4.519,3.921,7.226,5.308c-2.3,1.995-5.644,1.647-8.265,0.291
		c-1.015-0.525-1.976,0.715-1.21,1.568c3.245,3.62,9.523,2.924,12.672-0.429c4.328,1.674,9.081,2.559,13.737,2.8
		c-0.25,7.771-0.357,15.555-0.368,23.338c-5.105-0.695-10.024-2.14-14.762-4.117c1.889-3.355,2.357-7.72,0.152-10.845
		c-0.888-1.259-2.847-0.513-2.508,1.057c0.65,3.008,0.944,6.02-0.463,8.543c-3.179-1.487-6.273-3.201-9.282-5.081
		c-1.191-0.744-2.493,0.959-1.494,1.937c2.387,2.338,5.046,4.361,7.897,6.078c-1.424,0.871-3.091,1.325-4.763,1.346
		c-0.985,0.012-1.937-0.125-2.875-0.418c-0.562-0.151-1.099-0.369-1.611-0.655c-0.148-0.131-0.238-0.187-0.3-0.207
		c-0.199-0.21-0.345-0.248-0.71-0.243c-0.24,0.003-0.512,0.132-0.622,0.357c-0.038,0.077-0.075,0.153-0.113,0.23
		c-0.206,0.42-0.164,0.872,0.157,1.22c3.334,3.614,10.08,2.824,13.644,0.1c0.045-0.034,0.086-0.075,0.13-0.11
		c5.44,2.765,11.436,4.508,17.525,5.243c0.035,12,0.273,23.99,0.541,35.912c0.089,3.952-0.976,11.809,4.301,13.148
		c4.943,1.253,7.365-4.133,7.166-8.16c-0.383-7.769-1.656-15.573-2.36-23.326c-0.52-5.728-0.972-11.461-1.39-17.197
		c0.631-0.017,1.263-0.033,1.891-0.072c6.396-0.396,12.946-1.82,18.528-5.071c0.515,0.627,1.121,1.211,1.826,1.74
		c3.702,2.779,12.501,2.192,12.399-3.896C1010.455,89.15,1009.04,88.603,1008.192,89.388z"/>
</g>
<g>
	<path fill="#3DAA35" d="M1163.099,107.377c1.783,0.67,3.599-1.725,2.519-3.277c-9.205-13.23-18.724-26.234-28.504-39.044
		c5.753,3.778,12.243,6.54,18.894,8.415c1.764,0.497,3.726-1.661,2.542-3.307c-6.543-9.102-12.818-18.413-19.02-27.76
		c1.971,1.155,3.949,2.295,5.894,3.465c1.664,1.001,3.89-0.661,3.318-2.55c-2.391-7.902-5.612-15.538-9.733-22.697
		c-3.367-5.85-7.5-13.981-14.217-16.429c-1.134-0.413-2.493,0.469-2.778,1.577c-3.525,13.697-9.221,26.573-16.895,38.45
		c-0.995,1.54,0.682,3.945,2.501,3.254c3.216-1.222,6.452-2.451,9.614-3.826c-5.866,9.378-11.796,18.72-18.222,27.727
		c-1.417,1.985,1.253,3.99,3.081,3.081c4.784-2.379,9.564-4.765,14.344-7.149c-8.25,12.259-16.405,24.684-23.106,37.833
		c-0.784,1.539,0.573,4.12,2.539,3.303c5.478-2.276,10.733-4.943,15.748-7.994c-2.69,3.742-5.165,7.661-7.614,11.245
		c-5.372,7.863-10.462,15.909-15.041,24.261c-0.878,1.601,0.606,4.029,2.551,3.318c11.516-4.21,22.609-9.497,33.034-15.964
		c1.25-0.775,2.656-2.074,4.025-2.573c1.847-0.673,2.953-0.234,4.781,0.548c3.166,1.355,6.204,3.337,9.243,4.971l18.486,9.943
		c2.051,1.103,4.092-1.081,3.09-3.09c-6.019-12.069-13.398-23.66-22.155-33.989c0.116,0.035,0.232,0.07,0.348,0.104
		C1149.182,102.17,1156.121,104.756,1163.099,107.377z"/>
	<path fill="#059839" d="M1159.7,131.378c-5.468-13.604-12.781-26.292-21.771-37.761c5.615,4.697,11.592,8.951,17.902,12.723
		c1.544,0.923,4.083-0.655,3.308-2.543c-4.277-10.42-9.178-20.559-14.824-30.309c-1.168-2.018-2.373-4.014-3.599-5.998
		c2.41,1.54,4.932,2.909,7.539,4.101c2.064,0.943,4.097-0.975,3.079-3.079c-4.261-8.808-8.845-17.452-13.795-25.893
		c-1.442-2.459-2.871-4.986-4.377-7.453c2.668,2.167,5.355,4.31,8.083,6.404c1.56,1.197,3.932-0.791,3.318-2.551
		c-2.312-6.623-4.997-13.109-8.155-19.375c-2.552-5.064-5.07-10.991-10.045-14.122c-1.213-0.764-2.847-0.013-3.222,1.311
		c-3.145,11.09-7.03,22.406-8.816,33.809c-0.196,1.249,1.49,2.37,2.28,1.371c0.469,0.318,1.048,0.453,1.659,0.264
		c0.093-0.029,0.187-0.058,0.28-0.087c0.349-0.108,0.642-0.304,0.878-0.548c-4.651,7.843-9.487,15.598-12.416,24.287
		c-0.661,1.961,1.663,3.378,3.293,2.531c3.574-1.856,7.027-3.91,10.326-6.22c-8.619,13.771-15.902,28.582-23.701,42.743
		c-1.01,1.833,1.14,4.432,3.068,3.068c7.562-5.345,14.759-11.148,21.57-17.394c-8.22,15.009-19.512,28.299-25.737,44.36
		c-0.716,1.846,1.737,3.546,3.306,2.542c11.048-7.071,20.699-15.843,28.843-26.083c9.317,7.366,18.634,14.733,27.951,22.099
		C1157.45,134.782,1160.647,133.735,1159.7,131.378z M1128.829,50.718c0.057,0.216,0.119,0.43,0.182,0.644
		c-0.185-0.091-0.374-0.174-0.567-0.241C1128.572,50.987,1128.701,50.853,1128.829,50.718z"/>
	<path fill="#936138" d="M1137.32,76.518c-0.167,0.297-0.288,0.612-0.361,0.934c-0.144-0.128-0.501,0.684-0.606,0.851
		c-0.353,0.558-0.703,1.117-1.052,1.677c-0.736,1.179-1.461,2.365-2.186,3.551c-0.181,0.296-0.365,0.589-0.548,0.884
		c-0.011-0.647-0.022-1.293-0.033-1.939c-0.122-7.285-0.245-14.571-0.367-21.856c1.118-1.232,2.222-2.476,3.293-3.752
		c1.328-1.582,3.41-3.172,3.424-5.348c0.007-1.054-1.086-1.963-2.13-1.623c-2.087,0.679-2.961,3.033-4.188,4.738
		c-0.161,0.223-0.326,0.442-0.488,0.665c-0.011-0.686-0.023-1.372-0.035-2.057c-0.165-9.819,0.044-19.8-1.377-29.538
		c-0.141-0.964-1.11-0.998-1.73-0.538c-0.641-0.493-1.743-0.22-1.82,0.854c-1.088,15.071-0.935,30.254-1.047,45.397
		c-0.111-0.093-0.225-0.187-0.334-0.28c-1.441-1.236-3.049-3.206-5.031-3.336c-0.5-0.033-1.086,0.496-1.019,1.019
		c0.271,2.084,2.385,3.614,3.791,5.065c0.841,0.868,1.673,1.801,2.541,2.692c-0.036,2.806-0.084,5.61-0.16,8.412
		c-0.117,4.354-0.257,8.707-0.407,13.06c-0.259-0.256-0.513-0.509-0.756-0.762c-1.642-1.708-3.77-4.833-6.149-5.466
		c-0.996-0.265-1.761,0.476-1.857,1.415c-0.222,2.163,3.081,4.892,4.349,6.371c1.259,1.469,2.618,3.428,4.167,4.948
		c-0.122,3.177-0.239,6.355-0.379,9.532c-0.435,9.861-1.721,19.963-1.425,29.821c0.008,0.253,0.067,0.485,0.161,0.694
		c-0.312,0.765-0.143,1.73,0.688,2.144c1.915,0.953,4.44,0.907,6.534,0.759c0.878-0.062,1.577-0.54,1.89-1.283
		c0.524-0.356,0.891-0.942,0.877-1.775c-0.292-17.06-0.581-34.12-0.869-51.181c1.607-2.022,3.012-4.214,4.456-6.35
		c0.922-1.363,1.833-2.733,2.758-4.094c0.667-0.981,1.596-1.926,1.548-3.183C1141.365,75.505,1138.434,74.539,1137.32,76.518z
		 M1128.608,122.573c0.042-1.634,0.08-3.266,0.125-4.89c0.021,1.696,0.042,3.393,0.062,5.089
		C1128.738,122.7,1128.673,122.636,1128.608,122.573z"/>
</g>
<g>
</g>
<g>
</g>
<g>
</g>
<g>
</g>
<g>
</g>
<g>
</g>
</svg>
