<?xml version="1.0" encoding="utf-8"?>
<!DOCTYPE svg PUBLIC "-//W3C//DTD SVG 1.1//EN" "http://www.w3.org/Graphics/SVG/1.1/DTD/svg11.dtd">
<svg version="1.1" id="Слой_1" xmlns="http://www.w3.org/2000/svg" xmlns:xlink="http://www.w3.org/1999/xlink" x="0px" y="0px"
	 width="150px" height="150px" viewBox="0 0 150 150" enable-background="new 0 0 150 150" xml:space="preserve">
<path fill-rule="evenodd" clip-rule="evenodd" fill="#514B4E" d="M103.462,111.588c2.452,3.378,2.991,4.419,4.926,7.505
	c0.751,1.197,2.419,0.615,3.173-0.073c0.291-1.323-0.972-7.188-2.368-11.896c-0.182-0.615-1.183-0.771-1.367-1.333
	c-0.16-0.49,0.496-1.397,0.34-1.829c-0.277-0.766-0.545-1.429-0.793-1.941c-0.897-0.142-2.77,0.27-3.338,0.661
	C101.283,104.577,103.245,111.29,103.462,111.588z"/>
<path fill-rule="evenodd" clip-rule="evenodd" fill="#604A33" d="M69.981,98.987l1.892-41.563c0-4.662,10.738-6.099,12.432,0.171
	c2.118,7.837,0.31,17.404-0.564,25.288c-0.507,4.571,0.213,16.566-6.981,16.566C74.065,99.45,71.544,98.987,69.981,98.987z"/>
<path fill-rule="evenodd" clip-rule="evenodd" fill="#3B3438" d="M46.482,91.096L45.787,90.5c0.39-1.596,2.642-2.095,4.277-1.157
	c4.876,2.796,3.527,7.651,0.942,11.591c-0.987,1.505-1.72,2.901-2.857,4.374c-0.635,0.822-3.222,5.285-3.081,6.454
	c0.466,3.867,2.497,1.5,2.353,3c-0.084,0.878-3.293,0.829-3.467-0.608c-0.765-0.309-0.271-4.342,0.623-5.559
	c1.49-2.031,5.384-9.985,6.717-12.977c0.806-1.809-1.18-4.504-2.476-4.975C47.305,90.095,46.53,90.644,46.482,91.096z"/>
<path fill-rule="evenodd" clip-rule="evenodd" fill="#8A6B3A" d="M78.075,100.562l1.892-41.564c0-4.662,10.738-6.099,12.432,0.171
	c2.117,7.837,0.31,17.404-0.564,25.288c-0.507,4.571,0.212,16.566-6.981,16.566C82.16,101.023,79.638,100.562,78.075,100.562z"/>
<path fill-rule="evenodd" clip-rule="evenodd" fill="#725536" d="M90.695,56.488c-2.501,0.079-6.006,1.012-2.827,3.871
	c3.185,2.864,4.246,2.685,5.509,6.275c0.045,1.973-0.041,3.983-0.199,5.988c-1.446-0.261-3.691-1.17-5.134,1.658
	c-0.975,1.911-1.804,12.958-1.779,15.392c0.028,2.913,0.426,6.323,3.598,7.503c0.001,0.001,0.029,0.065,0.076,0.168
	c-0.968,2.162-2.525,3.681-5.084,3.681c-2.695,0-5.216-0.462-6.779-0.462l1.53-33.604l0.767-9.446
	C81.935,54.808,87.656,53.949,90.695,56.488z"/>
<path fill-rule="evenodd" clip-rule="evenodd" fill="#282223" d="M67.666,58.065c3.071,9.872,0.522,21.78-7.957,27.121
	c-3.412,2.15-12.401,5.15-11.691-0.608c0.421-3.427,0.628-5.468,4.117-4.961c3.604,0.523,11.593-8.741,10.435-19.254
	C75.731,52.129,63.059,55.648,67.666,58.065z"/>
<path fill-rule="evenodd" clip-rule="evenodd" fill="#F5C22F" d="M62.329,68.487c-0.053-0.173,0.049-2.737-0.006-2.91
	c3.102,0.503,5.996,0.608,6.955,0.297c-0.053,0.25,0.049,3.193-0.096,3.402C64.913,69.416,62.615,68.49,62.329,68.487z"/>
<path fill-rule="evenodd" clip-rule="evenodd" fill="#3B3438" d="M62.334,67.574c-0.051-0.07,0.063-0.863,0.012-0.932
	c2.792,0.595,5.995,0.601,6.958,0.465c-0.057,0.101,0.051,1.085-0.096,1.17C64.937,68.383,62.62,67.571,62.334,67.574z"/>
<g>
	<defs>
		<path id="SVGID_1_" d="M82.647,108.386c-0.652-1.667-1.027-3.148-1.242-4.066c-2.115-9.012-3.681-11.114-4.032-17.943
			c-0.272-1.132-9.493-1.012-9.462,0.189c0.029,1.1,4.636,18.885,5.577,22.291c0.959,3.469,3.555,7.557,4.195,8.025
			c0.071,0.053,0.153,0.09,0.246,0.117c0.008,0.112,0.014,0.225,0.016,0.341c15.662-1.779,17.262-4.482,25.624-4.34
			c1.148-0.194,1.691-10.407,0.491-10.457C103.02,102.498,87.254,107.28,82.647,108.386z"/>
	</defs>
	<use xlink:href="#SVGID_1_"  overflow="visible" fill-rule="evenodd" clip-rule="evenodd" fill="#3B3438"/>
	<clipPath id="SVGID_2_">
		<use xlink:href="#SVGID_1_"  overflow="visible"/>
	</clipPath>
</g>
<path fill-rule="evenodd" clip-rule="evenodd" fill="#1A1414" stroke="#3E353A" stroke-width="0.6768" stroke-miterlimit="22.9256" d="
	M74.231,110.979c2.134-0.296,6.087,1.26,6.937,1.647c2.791,1.27,11.005-1.963,12.992-3.543c2.851-2.267,6.932,0.058,7.478,3.225
	c0.043,0.254,0.083,0.484,0.117,0.708c0.572-0.021,1.172-0.026,1.814-0.016c1.148-0.194,1.691-10.407,0.491-10.457
	c-1.041-0.044-16.807,4.738-21.413,5.844c-0.652-1.667-1.027-3.148-1.242-4.066c-0.617-2.628-1.187-4.668-1.693-6.41l-9.268-0.726
	c1.249,4.908,2.585,10.008,3.045,11.672C73.68,109.551,73.937,110.27,74.231,110.979z"/>
<path fill-rule="evenodd" clip-rule="evenodd" fill="#514B4E" d="M68.569,59.835l-3.822-1.461c-1.039-0.383-2.006,0.968-3.186,5.171
	c-5.812,20.701,3.41,26.349,3.626,25.06c0.006-0.037,0.931-4.113,1.021-4.375c-1.012-1.819-3.485-3.256-3.485-10.513
	C62.723,69.79,64.077,61.389,68.569,59.835z"/>
<path fill-rule="evenodd" clip-rule="evenodd" fill="#666264" d="M59.793,66.521c-0.334,1.069-1.195,3.219,0.12,3.853
	c0.69,0.333,3.471,1.07,3.885-0.004c0.399-1.035,0.705-1.948,0.682-3.115C64.462,66.336,60.085,65.586,59.793,66.521L59.793,66.521z
	 M60.129,67.982c0.049-0.309,0.039-0.647,0.145-0.928c0.131-0.488,3.253-0.394,3.361,1.073c0.054,0.717-0.004,1.012-0.086,1.681
	c-0.083,0.678-0.947,0.335-1.476,0.348c-0.312,0.008-1.631-0.248-1.944-0.389c-0.324-0.146-0.258-1.235,0.126-1.235
	c0.052,0,0.775,0.046,0.48-0.171C60.488,68.181,60.129,68.341,60.129,67.982z"/>
<path fill-rule="evenodd" clip-rule="evenodd" fill="#666264" d="M59.068,75.084c0.005,0.941-0.135,2.882,1.079,3.053
	c0.637,0.09,3.051-0.029,3.108-0.995c0.056-0.93,0.068-1.74-0.249-2.668C62.758,73.744,59.064,74.261,59.068,75.084L59.068,75.084z
	 M59.71,76.168c-0.04-0.26-0.134-0.528-0.121-0.78c-0.019-0.424,2.504-1.145,2.965,0c0.225,0.561,0.255,0.812,0.359,1.369
	c0.107,0.563-0.672,0.509-1.092,0.655c-0.247,0.086-1.369,0.218-1.655,0.185c-0.297-0.034-0.522-0.923-0.215-1.021
	c0.042-0.013,0.633-0.161,0.341-0.259C60.048,76.235,59.802,76.455,59.71,76.168z"/>
<g>
	<defs>
		<path id="SVGID_3_" d="M59.277,118.059c3.769-12.653,9.96-16.811,16.815-21.602c0.817-0.831-4.172-8.587-5.174-7.924
			c-0.917,0.608-11.636,11.268-14.701,16.569c-2.087,3.52-3.457,6.455-3.585,7.636C52.357,115.282,57.091,115.175,59.277,118.059z"
			/>
	</defs>
	<use xlink:href="#SVGID_3_"  overflow="visible" fill-rule="evenodd" clip-rule="evenodd" fill="#1A1414"/>
	<clipPath id="SVGID_4_">
		<use xlink:href="#SVGID_3_"  overflow="visible"/>
	</clipPath>
</g>
<path fill-rule="evenodd" clip-rule="evenodd" fill="#514B4E" d="M46.262,135.275c-4.101,0.775-5.274,0.817-8.89,1.248
	c-1.404,0.168-1.59,1.925-1.29,2.899c1.071,0.829,6.914,2.192,11.768,2.941c0.633,0.098,1.202-0.74,1.789-0.666
	c0.512,0.065,1.05,1.045,1.509,1.089c0.811,0.076,1.524,0.117,2.094,0.112c0.512-0.75,0.939-2.62,0.827-3.301
	C53.533,136.3,46.624,135.207,46.262,135.275z"/>
<path fill-rule="evenodd" clip-rule="evenodd" fill="#1A1414" d="M38.88,136.322c-0.485,0.055-1.012,0.115-1.605,0.186
	c-1.414,0.168-1.601,1.94-1.299,2.922c1.08,0.835,6.969,2.209,11.86,2.964c0.359,0.056,0.697-0.186,1.029-0.397
	c-0.377-0.299-0.886-0.427-1.383-0.462c-1.407-0.098-9.497-1.896-9.184-3.223C38.641,136.868,39.072,137.743,38.88,136.322z"/>
<path fill-rule="evenodd" clip-rule="evenodd" fill="#F5C22F" d="M46.358,22.71c1.234-2.682,12.81-1.462,15.539-1.462
	c11.061,0,20.827,0.233,31.854,0c4.142-0.087,10.251,13.09,8.235,14.868c-5.71,5.038-16.781,3.943-23.213,3.803
	c-0.824-0.018-17.777-0.922-22.933-2.291C51.38,36.444,44.328,27.127,46.358,22.71z"/>
<path fill-rule="evenodd" clip-rule="evenodd" fill="#A9843D" d="M50.114,23.774c1.056-2.079,10.972-1.133,13.31-1.133
	c9.473,0,17.836,0.181,27.281,0c3.548-0.067,8.78,10.146,7.054,11.525c-4.891,3.905-14.373,3.057-19.883,2.948
	c-0.705-0.014-15.224-0.715-19.641-1.777C54.415,34.42,48.375,27.198,50.114,23.774z"/>
<path fill-rule="evenodd" clip-rule="evenodd" fill="#1A1414" d="M77.404,85.996c-0.695,0.686-2.386,13.089-7.208,10.693
	c-1.195-0.594-2.647-0.317-4.036-0.419c-1.958-0.143-0.564-7.677-0.769-9.484c-0.181-1.591-0.469-4.026-0.143-5.617
	c0.054-0.26,1.84,0.542,2.17,0.652C68.524,82.192,77.34,83.512,77.404,85.996z"/>
<g>
	<defs>
		<path id="SVGID_5_" d="M53.28,110.593c-5.082,14.92-3.746,17.135-7.446,24.635c-0.315,1.122,9.141,5.628,9.7,4.565
			c0.511-0.974,3.059-19.202,3.898-22.635C61.87,107.204,58.121,112.752,53.28,110.593z"/>
	</defs>
	<use xlink:href="#SVGID_5_"  overflow="visible" fill-rule="evenodd" clip-rule="evenodd" fill="#1A1414"/>
	<clipPath id="SVGID_6_">
		<use xlink:href="#SVGID_5_"  overflow="visible"/>
	</clipPath>
</g>
<path fill-rule="evenodd" clip-rule="evenodd" fill="#B18E64" d="M64.808,53.274c0.708,2.371,3.009,4.809,5.717,5.778
	c0.748,0.267,0.973,4.944,1.758,4.956c0.611,0.009,3.531-3.068,4.134-3.239c2.511-0.717,3.025-4.362,3.411-6.394
	C79.944,53.767,67.751,54.541,64.808,53.274z"/>
<path fill-rule="evenodd" clip-rule="evenodd" fill="#818081" d="M79.498,54.373c1.694,2.286,7.571,6.828,8.182,8.588
	c1.726,4.988-4.226,14.477-4.631,20.56c-0.009,4.913-0.293,17.715,0.867,20.601c0.449,1.121-8.736,1.586-14.51,0.932
	c-0.288-0.032-0.547-1.826-0.833-1.86c-0.329-0.039-0.687,1.679-1.011,1.638c-5.058-0.647-9.467-1.509-9.294-1.948
	c0.394-1.001,4.029-18.695,4.032-21.001c0.008-6.301-0.881-13.277,0.2-19.157c0.177-0.963,0.676-1.818,1.318-2.598
	c0.036-1.212-0.38-0.683-0.431-1.333c-0.102-1.276,1.953-2.365,3.495-2.252l0.647,0.049l0.083-0.085
	C68.091,56.013,78.675,54.322,79.498,54.373z"/>
<path fill-rule="evenodd" clip-rule="evenodd" fill="#666264" d="M67.632,56.49c6.282,4.86,4.041,19.46,2.126,25.497
	c-1.547,4.88-4.868,11.338-9.837,13.423c-0.781,3.827-1.49,7.063-1.653,7.474c-0.173,0.438,4.235,1.301,9.294,1.948
	c0.324,0.041,0.682-1.677,1.011-1.638c0.286,0.034,0.544,1.828,0.833,1.86c0.332,0.038,0.677,0.071,1.029,0.102l11.306-46.542
	l-2.861-4.196C76.457,54.683,68.234,56.037,67.632,56.49z"/>
<path fill-rule="evenodd" clip-rule="evenodd" fill="#512F22" d="M86.777,25.555l1.447-7.366c3.273,3.392,3.478,7.416,1.484,11.777
	C89.719,28.161,88.266,26.616,86.777,25.555z"/>
<path fill-rule="evenodd" clip-rule="evenodd" fill="#422419" d="M57.632,24.982l1.201-7.411
	c-4.246,2.045-5.562,10.609-3.152,16.348c0.382-1.053,3.922-0.086,4.274-2.328C60.169,30.221,56.964,25.164,57.632,24.982z"/>
<path fill-rule="evenodd" clip-rule="evenodd" fill="#6D412F" d="M87.57,28.245l-2.271-6.037c2.803,0.845,5.639,4.413,5.358,9.197
	C90.105,29.712,89.118,28.712,87.57,28.245z"/>
<path fill-rule="evenodd" clip-rule="evenodd" fill="#6D412F" d="M80.968,24.079L76.45,14.024c3.554,0.683,5.357,1.166,6.097,1.248
	c9.892,1.093,10.827,24.798,3.665,29.003L80.968,24.079z"/>
<path fill-rule="evenodd" clip-rule="evenodd" fill="#E8CAAA" d="M60.102,32.176c-0.258-0.852-3.066-2.432-4.523-0.78
	c-1.968,4.624,3.177,6.9,3.7,5.409l0.049-0.142c0.458-1.304,0.847-1.605,1.02-2.982C60.459,32.8,60.37,33.06,60.102,32.176z"/>
<path fill-rule="evenodd" clip-rule="evenodd" fill="#E8CAAA" d="M90.105,32.51c0.008,3.087-2.904,4.266-3.646,3.286l-0.334-0.441
	c-0.294-1.221-0.334-1.478-0.388-2.748c-0.078-1.9,1.9-2.976,3.258-2.468C90.003,30.516,90.104,31.546,90.105,32.51z"/>
<path fill-rule="evenodd" clip-rule="evenodd" fill="#B68E5C" d="M88.217,32.409c0.644,2.111-1.215,2.986-1.636,2.43l-0.161-0.214
	c-0.143-0.592-0.163-0.717-0.189-1.334C86.183,32.147,87.673,31.618,88.217,32.409z"/>
<path fill-rule="evenodd" clip-rule="evenodd" fill="#6D412F" d="M65.273,19.976l3.717-6.989
	c-10.035-1.948-11.905,7.634-12.167,14.385c-0.1,2.574,0.263,10.284,1.999,14.011L65.273,19.976z"/>
<g>
	<defs>
		<path id="SVGID_7_" d="M85.083,52.83c-3.646,1.514-6.807,2.867-11.432,2.992c-6.298,0.17-11.048-1.444-13.557-3.471
			c-2.7-2.838-2.033-7.953-1.781-13.536c0.433-9.568,2.303-20.245,3.103-21.259c1.909-4.793,16.02-4.199,22.295-0.442
			c1.251,0.749,1.331,3.109,1.719,6.005c0.458,3.428,0.553,9.124,1.377,14.216C87.936,44.307,89.356,50.628,85.083,52.83z"/>
	</defs>
	<use xlink:href="#SVGID_7_"  overflow="visible" fill-rule="evenodd" clip-rule="evenodd" fill="#E8CAAA"/>
	<clipPath id="SVGID_8_">
		<use xlink:href="#SVGID_7_"  overflow="visible"/>
	</clipPath>
	<g clip-path="url(#SVGID_8_)">
		<path fill-rule="evenodd" clip-rule="evenodd" fill="#CDA97D" d="M68.489,38.822c0.009,0.089,0.312,3.102-0.876,2.556
			c-2.878-1.325-5.792,1.695-4.569,5.199c1.451,4.155,11.4,3.103,14.429,2.002c3.268-1.188,7.529-4.583,4.072-8.045
			c-0.212-0.211-1.938-0.349-3.372-0.311c-0.406,0.011-0.798-2.156-0.138-2.264c3.03-0.496,5.357,0.665,6.668,3.846
			c1.389,3.375,2.076,5.675,0.438,9.398c-1.562,3.551-7.963,4.609-11.52,5.237c-2.966,0.524-7.822-0.538-10.272-2.349
			c-4.11-3.035-4.236-7.894-2.142-11.968C63.166,38.307,66.744,38.427,68.489,38.822z"/>
		<path fill-rule="evenodd" clip-rule="evenodd" fill="#CDA97D" d="M70.183,49.89c0.526-0.645,1.262-0.781,0.704-1.748
			c-0.346-0.601-0.313-0.671,2.059-0.383c0.793,0.096,1.575-0.334,2.371-0.334c0.385,0.182-0.757,0.907-0.194,1.951
			C75.488,50.054,70.12,49.966,70.183,49.89z"/>
		<path fill-rule="evenodd" clip-rule="evenodd" fill="#DBB486" d="M56.943,36.925l1.095,2.19c0-3.382,1.322-17.079,7.942-16.84
			c1.43,0.051,9.246,0.466,11.387-0.456c3.317-1.213,4.464-4.822,8.364,1.653c0.536,0.89,0.423,0.262,0.923,1.404l-3.422-9.995
			l-24.509,1.506L56.943,36.925z"/>
	</g>
</g>
<path fill-rule="evenodd" clip-rule="evenodd" fill="#FFFFFF" d="M67.911,32.841c0.03,2.497-1.838,3.41-4.346,3.418
	c-2.507,0.009-3.991-1.211-3.857-3.35C59.814,29.009,67.296,28.187,67.911,32.841z"/>
<path fill-rule="evenodd" clip-rule="evenodd" fill="#6D412F" d="M80.772,12.227c-2.644-3.737-8.85-4.79-14.655-3.509
	c-3.454,0.762-8.271,8.517-6.307,12.433c3.632-3.077,11.829-0.28,15.427-0.737C77.559,20.118,83.755,16.444,80.772,12.227z"/>
<path fill-rule="evenodd" clip-rule="evenodd" fill="#6D412F" d="M59.108,13.927l6.226,0.357
	c-1.477,4.455-7.427,11.237-14.769,9.461c-0.492-0.579,0.783-0.893,1.524-1.354C54.281,21.028,58.372,16.582,59.108,13.927z"/>
<path fill-rule="evenodd" clip-rule="evenodd" fill="#422419" d="M61.99,17.834c2.176-5.191,9.342-5.167,13.054-1.262
	C75.515,17.113,68.595,14.127,61.99,17.834z"/>
<ellipse transform="matrix(-0.0034 -1 1 -0.0034 29.7157 94.3412)" fill-rule="evenodd" clip-rule="evenodd" fill="#1A1414" stroke="#1A1414" stroke-width="0.6768" stroke-miterlimit="22.9256" cx="61.869" cy="32.363" rx="1.958" ry="2.058"/>
<circle fill-rule="evenodd" clip-rule="evenodd" fill="#FFFFFF" cx="62.662" cy="31.276" r="0.435"/>
<path fill-rule="evenodd" clip-rule="evenodd" fill="#FFFFFF" d="M77.127,31.87c-0.012,2.497,1.863,3.397,4.369,3.388
	c2.508-0.009,3.983-1.239,3.835-3.376C85.197,27.982,77.71,27.212,77.127,31.87z"/>
<path fill-rule="evenodd" clip-rule="evenodd" fill="#6D412F" d="M83.1,24.137c0.722,0.532,0.819,1.401,0.676,1.749
	c-3.882-0.188-6.978,1.509-8.509,2.055c-0.167,0.034-0.46-0.018-0.321-0.744C75.198,25.785,81.469,24.059,83.1,24.137z"/>
<ellipse transform="matrix(-0.0037 -1 1 -0.0037 48.0029 110.6925)" fill-rule="evenodd" clip-rule="evenodd" fill="#1A1414" stroke="#1A1414" stroke-width="0.6768" stroke-miterlimit="22.9256" cx="79.144" cy="31.433" rx="1.95" ry="2.05"/>
<circle fill-rule="evenodd" clip-rule="evenodd" fill="#FFFFFF" cx="78.383" cy="30.391" r="0.468"/>
<path fill-rule="evenodd" clip-rule="evenodd" fill="#6D412F" d="M80.227,13.818l0.222-0.117c2.181-1.141,6.219-0.332,8.685,1.704
	c1.199,0.989,2.221,4.102,1.517,5.967c-0.157,0.417-4.611,2.997-4.958,3.251c-1.08-7.2-3.948-8.982-5.319-7.311
	C79.83,17.976,78.041,14.962,80.227,13.818z"/>
<path fill-rule="evenodd" clip-rule="evenodd" fill="#6D412F" d="M85.368,16.332l-4.046-1.953c2.45-1.1,6.26-1.543,8.243,1.159
	C88.495,14.945,86.723,15.725,85.368,16.332z"/>
<path fill-rule="evenodd" clip-rule="evenodd" fill="#6D412F" d="M90.711,21.172l-2.557-2.924c-0.354,2.295,0.498,5.663,3.119,6.401
	C90.531,23.893,90.516,22.44,90.711,21.172z"/>
<path fill-rule="evenodd" clip-rule="evenodd" fill="#422419" d="M88.878,20.779c0.23-3.018-3.207-4.762-5.94-3.801
	C82.579,17.121,86.623,17.387,88.878,20.779z"/>
<path fill-rule="evenodd" clip-rule="evenodd" fill="#422419" d="M85.365,13.746c-1.442-0.819-3.109,0.475-3.273,2.053
	C82.08,16.011,83.157,14.07,85.365,13.746z"/>
<path fill-rule="evenodd" clip-rule="evenodd" fill="#422419" d="M88.631,15.986c-0.721-1.764-3.148-1.778-4.417-0.466
	C84.053,15.701,86.406,14.711,88.631,15.986z"/>
<path fill-rule="evenodd" clip-rule="evenodd" fill="#B18E64" d="M68.775,27.135c0-0.256,0.208-0.464,0.464-0.464
	c0.256,0,0.463,0.208,0.463,0.464c-0.001,1.332,0.026,5.403,0.171,8.643c0.082,1.848,0.201,3.405,0.368,3.968
	c0.28,0.514,0.749,0.76,1.288,0.825c0.771,0.093,1.681-0.156,2.452-0.535c0.23-0.112,0.508-0.017,0.62,0.213
	c0.113,0.23,0.018,0.508-0.213,0.62c-0.913,0.449-2.01,0.741-2.968,0.626c-0.838-0.102-1.57-0.499-2.013-1.337
	c-0.016-0.028-0.03-0.058-0.041-0.091c-0.201-0.617-0.334-2.287-0.421-4.25C68.801,32.578,68.774,28.478,68.775,27.135z"/>
<path fill-rule="evenodd" clip-rule="evenodd" fill="#B18E64" d="M70.913,45.556c0.015-0.078,0.963,0.264,1.864,0.238
	c0.843-0.024,1.642-0.419,1.646-0.368c-0.18,0.771-0.942,1.19-1.642,1.201C71.539,46.647,70.939,45.952,70.913,45.556z"/>
<path fill-rule="evenodd" clip-rule="evenodd" fill="#B18E64" d="M70.168,52.427c0.026,0.091,1.702-0.308,3.293-0.278
	c1.49,0.028,2.904,0.49,2.909,0.43c-0.319-0.9-1.665-1.39-2.902-1.403C71.274,51.153,70.214,51.964,70.168,52.427z"/>
<ellipse fill-rule="evenodd" clip-rule="evenodd" fill="#B18E64" cx="72.992" cy="53.271" rx="0.606" ry="0.52"/>
<path fill-rule="evenodd" clip-rule="evenodd" fill="#E8CAAA" d="M58.868,36.463c-0.685-3.223,8.024-5.263,9.584-1.861
	c0.088,1.415-3.147,1.464-5.428,1.897C61.488,36.791,60.711,37.542,58.868,36.463z"/>
<path fill-rule="evenodd" clip-rule="evenodd" fill="#E8CAAA" d="M76.378,35.579c-0.666-3.138,7.812-5.124,9.33-1.813
	c0.086,1.378-3.064,1.426-5.284,1.847C78.928,35.898,78.172,36.628,76.378,35.579z"/>
<path fill-rule="evenodd" clip-rule="evenodd" fill="#6D412F" d="M87.85,28.505c0.014,0.056-0.426,1.139-0.65,3.713
	c-0.018,0.206,0.196,3.693,0.111,4.947c-0.031,0.454-0.395,0.011-0.397,0.022c-0.448,0.155-1.294-8.9-1.214-11.858
	c0.009-0.326,1.525,2.911,1.902,2.953L87.85,28.505z"/>
<path fill-rule="evenodd" clip-rule="evenodd" fill="#1A1414" d="M77.696,54.568l-0.807,2.569c-0.116,0.004-3.666,1.291-0.9,2.248
	c2.138,0.74,2.074,4.652,1.902,6.437c-0.389,4.036-3.586,13.344-3.475,17.049c0.154,5.114-4.818,14.327-5.954,20.372
	c0.038-0.035,0.076-0.053,0.113-0.049c0.286,0.034,0.544,1.828,0.833,1.86c5.774,0.655,14.959,0.189,14.51-0.932
	c-1.16-2.886-0.877-15.688-0.867-20.601c0.406-6.083,6.358-15.572,4.631-20.56c-0.611-1.761-6.488-6.302-8.182-8.588
	C79.314,54.361,78.638,54.438,77.696,54.568z"/>
<path fill-rule="evenodd" clip-rule="evenodd" fill="#F5C22F" d="M62.147,79.467c-0.01-0.72-0.038-2.739-0.047-3.459
	c1.597,0.383,20.983,0.966,22.681,0.785c-0.249,0.827-0.867,2.726-1.115,3.553C79.326,80.394,66.135,80.143,62.147,79.467z"/>
<path fill-rule="evenodd" clip-rule="evenodd" fill="#666264" d="M62.095,78.253c-0.046-0.224-0.017-1.094-0.063-1.318
	c0.751,0.093,5.257,0.815,10.092,1.026c5.532,0.241,11.477-0.031,12.376-0.015c-0.206,0.244-0.324,1.085-0.53,1.329
	c-2.221-0.133-7.129-0.046-11.811-0.231C67.978,78.879,63.986,78.447,62.095,78.253z"/>
<path fill-rule="evenodd" clip-rule="evenodd" fill="#6D412F" d="M59.19,13.151l-5.991,7.619c6.707,2.865,20.732,2.914,26.221-7.466
	c-0.169-1.17-1.847-0.007-3.146,0.381C72.429,14.837,63.039,15.028,59.19,13.151z"/>
<path fill-rule="evenodd" clip-rule="evenodd" fill="#E8CAAA" d="M59.333,31.709c-0.786-3.504,7.152-5.469,8.747-1.73
	C66.763,29.738,61.712,29.922,59.333,31.709z"/>
<path fill-rule="evenodd" clip-rule="evenodd" fill="#E8CAAA" d="M76.675,30.746c-0.786-3.504,7.152-5.469,8.748-1.73
	C84.105,28.775,79.054,28.959,76.675,30.746z"/>
<path fill-rule="evenodd" clip-rule="evenodd" fill="#B68E5C" d="M59.876,30.712c1.383-0.746,3.294-1.3,5.456-1.108
	c-0.449-0.569-1.656-1.095-2.698-0.938C60.567,29.045,60.174,29.948,59.876,30.712z"/>
<path fill-rule="evenodd" clip-rule="evenodd" fill="#B68E5C" d="M82.476,28.504c-1.428-0.289-3.214-0.25-5.08,0.502
	c0.245-0.626,1.333-1.283,2.113-1.358C81.446,27.428,82.006,27.906,82.476,28.504z"/>
<path fill-rule="evenodd" clip-rule="evenodd" fill="#F5C22F" d="M58.921,100.422c-0.01-0.721,0.364-1.301,0.355-2.021
	c0.725,0.174,5.34,0.96,10.359,1.261c6.038,0.362,12.646,0.221,13.574,0.123c-0.248,0.826-0.086,1.317-0.334,2.144
	c-2.338,0.026-7.973,0.12-13.276-0.216C65.055,101.426,60.761,100.734,58.921,100.422z"/>
<path fill-rule="evenodd" clip-rule="evenodd" fill="#F5C22F" d="M53.182,20.857c0.18-8.456,4.787-12.953,11.601-15.138
	c2.206-0.707-0.017-3.736,7.059-3.597c7.542,0.149,5.609,3.262,7.433,3.732c10.781,2.774,13.544,16.914,11.888,16.914
	c-9.173,0-20.089-0.468-29.005-0.777C60.532,21.935,53.165,21.638,53.182,20.857z"/>
<path fill-rule="evenodd" clip-rule="evenodd" fill="#E2B132" d="M66.128,4.218c2.485-0.65,7.119-0.651,8.953,0.434
	c3.432,2.031,6.866,1.891,10.343,6.54c2.009,2.686,4.093,8.292-1.192,8.656c-4.06,0.28-6.704,2.342-9.077-4.609
	c-2.024-5.932,1.485-1.025-3.607,2.033c-5.092,3.059-12.913,4.528-18.158,1.003c-0.118,0.817-0.189,1.677-0.208,2.582
	c-0.017,0.781,7.351,1.078,8.975,1.134c8.916,0.31,19.832,0.777,29.005,0.777c1.656,0-1.106-14.139-11.888-16.914
	c-1.824-0.469,0.109-3.583-7.433-3.732C67.442,2.036,66.637,3.175,66.128,4.218z"/>
<path fill-rule="evenodd" clip-rule="evenodd" fill="#E2B132" d="M66.332,7.079c0.377-0.219-0.547,2.664-1.255,4.437
	c-1.047,2.616-1.34,5.893-3.301,7.08c-0.903,0.546-2.552,0.547-4.227,0.46c-1.207-0.062-0.597-3.127,0.52-4.066
	c2.023-1.7,5.402-3.944,6.76-5.841C65.073,8.809,66.03,7.254,66.332,7.079z"/>
<path fill-rule="evenodd" clip-rule="evenodd" fill="#E2B132" d="M78.423,8.204c-0.377-0.219,0.546,2.664,1.255,4.437
	c1.047,2.616,1.339,5.893,3.301,7.08c0.904,0.546,2.553,0.547,4.226,0.461c1.207-0.062,0.597-3.128-0.52-4.066
	c-2.024-1.7-5.402-3.943-6.76-5.841C79.681,9.933,78.724,8.378,78.423,8.204z"/>
<path fill-rule="evenodd" clip-rule="evenodd" fill="#666264" d="M59.051,99.608c-0.056-0.081,0.109-0.313,0.053-0.394
	c0.753,0.068,4.858,0.871,9.685,1.175c5.524,0.349,13.401,0.258,14.297,0.307c-0.04,0.101,0.055,0.528-0.138,0.604
	c-2.22-0.152-9.397-0.242-14.071-0.53C64.702,100.512,60.943,99.765,59.051,99.608z"/>
<path fill-rule="evenodd" clip-rule="evenodd" fill="#514B4E" d="M74.094,59.146c0.854,0.306,3.376,0.258,3.372,1.914
	c-0.021,8.029-3.159,22.022-5.965,32.896c-0.721,2.797-2.049,5.342-2.556,7.58c-0.052,0.225,0.311,0.419,0.623,0.369
	c0.29-0.045,0.4-0.372,0.534-0.692c2.933-6.967,6.343-27.099,7.743-35.724c0.678-4.175,1.362-6.829-3.02-6.722
	C74.785,58.768,74.048,59.129,74.094,59.146z"/>
<path fill-rule="evenodd" clip-rule="evenodd" fill="#932E30" d="M75.244,22.216c-0.472,0.284-8.212,0.709-8.649,0
	c0.222-0.667,0.348-1.895,0.171-3.23c-0.394-2.962-1.589-6.595-1.624-6.803c-0.057-0.334,1.708-0.019,2.557-0.544
	c1.6-0.992,3.002-2.806,3.363-2.828c0.333-0.021,0.793,2.185,3.559,2.775c1.277,0.272,3.276-0.098,3.147,0.238
	c-0.872,2.271-1.903,4.483-2.36,6.767C75.171,19.771,75.244,20.948,75.244,22.216z"/>
<path fill-rule="evenodd" clip-rule="evenodd" fill="#C22E35" d="M74.66,21.702c-0.4,0.24-6.944,0.599-7.313,0
	c0.188-0.564,0.294-1.602,0.144-2.731c-0.333-2.504-1.343-5.576-1.373-5.752c-0.048-0.282,1.445-0.016,2.162-0.46
	c1.353-0.839,2.538-2.373,2.843-2.391c0.282-0.018,0.671,1.848,3.009,2.347c1.08,0.23,2.77-0.083,2.661,0.201
	c-0.737,1.92-1.609,3.791-1.995,5.722C74.598,19.635,74.66,20.63,74.66,21.702z"/>
<path fill-rule="evenodd" clip-rule="evenodd" fill="#F5C22F" d="M46.577,134.652c-0.023-0.262,0.895-3.863,0.872-4.125
	c4.22,1.658,8.265,2.686,9.712,2.538c-0.153,0.339-0.899,4.54-1.166,4.79C49.936,136.755,46.979,134.743,46.577,134.652z"/>
<path fill-rule="evenodd" clip-rule="evenodd" fill="#3B3438" d="M46.858,133.359c-0.051-0.113,0.349-1.204,0.298-1.317
	c3.754,1.693,8.266,2.676,9.665,2.777c-0.111,0.126-0.257,1.553-0.49,1.629C50.282,135.299,47.263,133.444,46.858,133.359z"/>
<path fill-rule="evenodd" clip-rule="evenodd" fill="#514B4E" d="M72.881,61.025c0.625-0.255,3.863-0.022,4.206,0.294
	c-0.045,0.617-0.091,1.233-0.135,1.85c-0.06-0.328-4.258-0.157-4.204-0.308C72.791,62.249,72.836,61.637,72.881,61.025z"/>
<circle fill-rule="evenodd" clip-rule="evenodd" fill="#1A1414" cx="74.959" cy="61.974" r="0.808"/>
<path fill-rule="evenodd" clip-rule="evenodd" fill="#514B4E" d="M73.298,65.096c0.498-0.203,3.08-0.017,3.353,0.234
	c-0.036,0.492-0.072,0.984-0.108,1.476c-0.048-0.262-3.395-0.126-3.353-0.246C73.226,66.071,73.262,65.584,73.298,65.096z"/>
<circle fill-rule="evenodd" clip-rule="evenodd" fill="#1A1414" cx="74.955" cy="65.852" r="0.645"/>
<path fill-rule="evenodd" clip-rule="evenodd" fill="#514B4E" d="M72.803,69.146c0.498-0.203,3.08-0.018,3.354,0.234
	c-0.036,0.492-0.071,0.984-0.108,1.475c-0.048-0.262-3.395-0.126-3.353-0.246C72.732,70.122,72.769,69.634,72.803,69.146z"/>
<circle fill-rule="evenodd" clip-rule="evenodd" fill="#1A1414" cx="74.461" cy="69.902" r="0.644"/>
<path fill-rule="evenodd" clip-rule="evenodd" fill="#514B4E" d="M72.201,73.526c0.498-0.203,3.08-0.017,3.353,0.234
	c-0.036,0.492-0.072,0.984-0.108,1.475c-0.048-0.262-3.396-0.125-3.353-0.246C72.129,74.502,72.165,74.014,72.201,73.526z"/>
<circle fill-rule="evenodd" clip-rule="evenodd" fill="#1A1414" cx="73.859" cy="74.282" r="0.644"/>
<path fill-rule="evenodd" clip-rule="evenodd" fill="#514B4E" d="M70.154,81.604c0.507-0.182,3.079,0.112,3.341,0.375
	c-0.056,0.49-0.113,0.98-0.169,1.47c-0.038-0.264-3.388-0.268-3.34-0.387C70.041,82.576,70.098,82.09,70.154,81.604z"/>
<circle fill-rule="evenodd" clip-rule="evenodd" fill="#1A1414" cx="71.778" cy="82.429" r="0.645"/>
<path fill-rule="evenodd" clip-rule="evenodd" fill="#514B4E" d="M69.006,87.229c0.506-0.182,3.079,0.111,3.341,0.375
	c-0.057,0.49-0.113,0.98-0.17,1.469c-0.037-0.263-3.387-0.268-3.339-0.386C68.894,88.201,68.95,87.715,69.006,87.229z"/>
<circle fill-rule="evenodd" clip-rule="evenodd" fill="#1A1414" cx="70.631" cy="88.054" r="0.645"/>
<path fill-rule="evenodd" clip-rule="evenodd" fill="#514B4E" d="M67.703,92.105c0.507-0.182,3.078,0.112,3.34,0.376
	c-0.056,0.49-0.113,0.98-0.169,1.469c-0.038-0.264-3.388-0.268-3.34-0.387C67.59,93.078,67.647,92.591,67.703,92.105z"/>
<circle fill-rule="evenodd" clip-rule="evenodd" fill="#1A1414" cx="69.327" cy="92.931" r="0.644"/>
<path fill-rule="evenodd" clip-rule="evenodd" fill="#514B4E" d="M66.519,96.725c0.507-0.182,3.079,0.112,3.341,0.375
	c-0.056,0.49-0.113,0.98-0.17,1.469c-0.038-0.264-3.387-0.267-3.34-0.386C66.406,97.697,66.462,97.211,66.519,96.725z"/>
<circle fill-rule="evenodd" clip-rule="evenodd" fill="#1A1414" cx="68.144" cy="97.55" r="0.645"/>
<path fill-rule="evenodd" clip-rule="evenodd" fill="#1A1414" d="M107.562,117.814c0.257,0.416,0.537,0.866,0.853,1.372
	c0.757,1.206,2.439,0.62,3.197-0.074c0.294-1.334-0.98-7.245-2.386-11.99c-0.104-0.348-0.467-0.55-0.799-0.761
	c-0.11,0.469-0.008,0.983,0.173,1.446c0.512,1.314,2.343,9.398,1.009,9.682C108.157,117.799,108.764,117.034,107.562,117.814z"/>
<path fill-rule="evenodd" clip-rule="evenodd" fill="#F5C22F" d="M102.68,112.812c-0.218,0.131-3.721,0.83-3.94,0.961
	c-0.302-4.511-1.076-8.6-1.801-9.843c0.356-0.006,4.309-1.114,4.636-0.98C103.119,108.887,102.593,112.409,102.68,112.812z"/>
<path fill-rule="evenodd" clip-rule="evenodd" fill="#3B3438" d="M101.442,113.127c-0.077,0.091-1.189,0.189-1.267,0.28
	c-0.079-3.97-1.085-8.309-1.575-9.571c0.156,0.046,1.454-0.413,1.615-0.241C101.713,109.345,101.348,112.74,101.442,113.127z"/>
<path fill-rule="evenodd" clip-rule="evenodd" fill="#282223" d="M82.648,57.865c10.089,2.253,19.147,10.392,19.558,20.405
	c0.166,4.03-1.708,13.318-6.349,9.836c-2.761-2.071-4.429-3.267-2.252-6.041c2.249-2.864,1.174-14.556-8.265-17.309
	C80.561,64.132,78.04,61.428,82.648,57.865z"/>
<path fill-rule="evenodd" clip-rule="evenodd" fill="#F5C22F" d="M93.377,82.451c-0.026-0.225,0.666-3.347,0.64-3.572
	c3.693,1.306,7.219,2.075,8.465,1.906c-0.122,0.296-0.649,3.929-0.872,4.151C96.34,84.163,93.729,82.518,93.377,82.451z"/>
<path fill-rule="evenodd" clip-rule="evenodd" fill="#3B3438" d="M93.586,81.332c-0.048-0.096,0.267-1.045,0.22-1.141
	c3.293,1.348,7.221,2.066,8.433,2.113c-0.093,0.112-0.177,1.343-0.377,1.415C96.599,82.902,93.936,81.393,93.586,81.332z"/>
<path fill-rule="evenodd" clip-rule="evenodd" fill="#F5C22F" d="M52.778,79.615c0.124-0.2,2.714-2.276,2.838-2.475
	c2.141,3.458,4.494,6.373,5.612,7.046c-0.291,0.159-3.079,2.757-3.404,2.792C54.064,82.926,53.019,79.896,52.778,79.615z"/>
<path fill-rule="evenodd" clip-rule="evenodd" fill="#3B3438" d="M53.674,78.844c0.024-0.108,0.896-0.671,0.92-0.779
	c1.788,3.232,4.501,6.366,5.45,7.192c-0.147,0.029-1.016,0.971-1.223,0.899C55.093,82.074,53.919,79.122,53.674,78.844z"/>
<path fill-rule="evenodd" clip-rule="evenodd" fill="#F5C22F" d="M92.049,70.355c-0.155-0.094-1.791-2.07-1.945-2.164
	c2.645-1.696,4.87-3.549,5.378-4.421c0.127,0.223,2.167,2.346,2.198,2.597C94.594,69.322,92.265,70.165,92.049,70.355z"/>
<path fill-rule="evenodd" clip-rule="evenodd" fill="#3B3438" d="M91.443,69.672c-0.083-0.017-0.53-0.684-0.613-0.702
	c2.476-1.42,4.866-3.554,5.492-4.297c0.025,0.113,0.762,0.773,0.71,0.934C93.922,68.537,91.656,69.479,91.443,69.672z"/>
<path fill-rule="evenodd" clip-rule="evenodd" fill="#666264" d="M87.119,58.935l-3.823-1.462c-1.039-0.382-2.006,0.968-3.186,5.171
	c-5.811,20.701,3.409,26.349,3.627,25.06c0.006-0.038,0.931-4.112,1.021-4.375c-1.012-1.82-3.485-3.256-3.485-10.513
	C81.273,68.891,82.626,60.49,87.119,58.935z"/>
<path fill-rule="evenodd" clip-rule="evenodd" fill="#818081" d="M78.342,65.621c-0.334,1.069-1.196,3.22,0.12,3.853
	c0.69,0.333,3.471,1.07,3.886-0.004c0.399-1.035,0.704-1.949,0.682-3.115C83.011,65.437,78.634,64.686,78.342,65.621L78.342,65.621z
	 M78.679,67.083c0.048-0.309,0.039-0.647,0.145-0.928c0.131-0.488,3.253-0.394,3.362,1.073c0.053,0.717-0.006,1.013-0.087,1.681
	c-0.083,0.678-0.946,0.335-1.476,0.348c-0.312,0.008-1.631-0.248-1.943-0.389c-0.324-0.146-0.259-1.235,0.125-1.235
	c0.052,0,0.776,0.046,0.48-0.172C79.038,67.282,78.679,67.441,78.679,67.083z"/>
<path fill-rule="evenodd" clip-rule="evenodd" fill="#666264" d="M77.618,74.184c0.005,0.941-0.135,2.882,1.08,3.054
	c0.636,0.09,3.051-0.029,3.109-0.995c0.056-0.93,0.067-1.74-0.249-2.668C81.307,72.845,77.613,73.362,77.618,74.184L77.618,74.184z
	 M78.26,75.268c-0.041-0.26-0.135-0.528-0.122-0.78c-0.019-0.424,2.504-1.145,2.965,0.001c0.226,0.56,0.255,0.812,0.36,1.368
	c0.106,0.564-0.673,0.509-1.093,0.656c-0.247,0.086-1.368,0.218-1.655,0.185c-0.296-0.034-0.522-0.923-0.215-1.021
	c0.042-0.013,0.633-0.161,0.341-0.259C78.597,75.336,78.351,75.556,78.26,75.268z"/>
<path fill-rule="evenodd" clip-rule="evenodd" fill="#D6934F" d="M107.155,99.44c2.538-0.374,8.749-3.492,7.729-4.757
	c-9.08,0.086-34.07-11.406-42.791-18.401c-0.095-0.076-3.639,2.127-2.267,3.784C72.531,83.333,102.413,99.571,107.155,99.44z"/>
<path fill-rule="evenodd" clip-rule="evenodd" fill="#B1743D" d="M69.517,79.351c1.219-0.516,2.523-0.362,3.848-0.021
	c0.139,0.671,1.954,1.078,0.235,3.575c2.259,1.464,5.301,3.266,8.645,5.138c1.367-1.761,5.696-0.771,5.857,1.067
	c0.113,1.308,0.654,2.174,1.45,2.875c2.567,1.335,5.113,2.606,7.453,3.708c3.908-0.285,12.855-1.594,16.381,1.069
	c1.177-0.793,1.9-1.58,1.499-2.079c-9.08,0.086-34.07-11.406-42.791-18.401C72.011,76.217,69.373,77.84,69.517,79.351z"/>
<path fill-rule="evenodd" clip-rule="evenodd" fill="#D0404E" d="M77.732,72.688c-0.083,1.501,0.277,2.913-0.575,5.352
	c-1.628,5.191-10.943,10.701-10.727,11.303c2.685,7.497,14.1,8.518,15.61,7.998c0.262-0.341-0.136-1.158-0.68-3.329
	c-1.181-4.707,0.048-9.105,1.733-12.279c0.828-1.558,3.127-3.045,4.747-3.253C89.346,75.078,78.532,71.263,77.732,72.688z"/>
<path fill-rule="evenodd" clip-rule="evenodd" fill="#B2B2B2" d="M82.342,96.987c-3.547-0.211-5.41,0.011-8.71-1.612
	c-1.617-0.795-6.797-4.669-6.938-6.74c-0.433,0.34-2.152,1.239-2.047,1.657c1.466,5.894,9.743,12.337,16.33,10.337
	c0.662-0.202,2.294-1.186,1.978-1.936C82.906,98.582,82.338,97.035,82.342,96.987z"/>
<path fill-rule="evenodd" clip-rule="evenodd" fill="#E8CAAA" d="M94.155,95.211c1.809-1.782,5.316-6.794,2.972-8.457
	c-0.038-1.449-2.109,0.655-2.107-0.787c0.002-0.883-0.936-1.166-1.866-0.034c-0.448-0.136-1.39-4.304-4.647,1.693
	c-0.947,1.743-1.386,6.061,0.673,4.965c-0.134,0.437-0.75,2.875,2.259,1.844c0.94-0.322-1.518-0.046,0.224,1.304
	C92.583,96.451,93.319,96.034,94.155,95.211z"/>
<path fill-rule="evenodd" clip-rule="evenodd" fill="#6D412F" d="M59.76,27.961c-0.533,0.551-0.491,1.296-0.321,1.569
	c3.244-0.709,6.093,0.281,7.46,0.524c0.145,0.005,0.385-0.08,0.165-0.673C66.651,28.228,61.123,27.664,59.76,27.961z"/>
<g>
	<path fill-rule="evenodd" clip-rule="evenodd" fill="#B18E64" d="M67.182,44.996c-0.238-0.004-0.427-0.2-0.423-0.437
		c0.003-0.237,0.199-0.427,0.436-0.423c1.454,0.027,3.325-0.145,5.2-0.44c1.921-0.303,3.845-0.737,5.325-1.221l0.022-0.007
		l0.109-0.035l0.021-0.006c0.309-0.099,0.639-0.207,0.726-0.399c0.098-0.217,0.353-0.313,0.57-0.216
		c0.217,0.098,0.314,0.353,0.216,0.57c-0.242,0.536-0.764,0.709-1.251,0.864l-0.02,0.007l-0.11,0.035l-0.018,0.006
		c-1.515,0.496-3.488,0.941-5.46,1.252C70.607,44.849,68.685,45.024,67.182,44.996L67.182,44.996z M77.873,42.427l0.52,0.285
		C78.323,42.492,78.092,42.368,77.873,42.427z"/>
</g>
<path fill-rule="evenodd" clip-rule="evenodd" fill="#B18E64" d="M79.726,43.245c-0.373-1.099-0.95-1.518-2.048-1.632
	C78.864,40.583,80.544,41.908,79.726,43.245z"/>
<path fill-rule="evenodd" clip-rule="evenodd" fill="#B18E64" d="M67.549,43.326c-0.797,0.844-0.898,1.549-0.484,2.574
	C65.6,45.334,65.986,43.228,67.549,43.326z"/>
<path fill-rule="evenodd" clip-rule="evenodd" fill="#C22E35" d="M46.371,88.76c2.924,1.004,4.495,4.218,3.49,7.142
	c-3.237,9.428-6.476,18.855-9.713,28.282c-1.078,1.294-10.228-1.254-10.633-3.652l9.714-28.282
	C40.233,89.327,43.447,87.756,46.371,88.76z"/>
<path fill-rule="evenodd" clip-rule="evenodd" fill="#A02F33" d="M39.494,91.611c1.766,0.053,3.982,1.006,5.063,4.419
	c1.724,5.437,1.071,8.6-1.217,13.596c-2.681,5.853-4.265,7.025-11.149,5.563c-0.222-0.047-0.519-0.027-0.85,0.028l-0.752,2.188
	l5.903,4.529l4.311,0.34l9.058-26.373c1.004-2.924-0.567-6.138-3.49-7.142C43.668,87.832,40.719,89.104,39.494,91.611z"/>
<path fill-rule="evenodd" clip-rule="evenodd" fill="#1A1414" d="M27.249,125.898c1.162-2.848,2.436-6.876,3.598-9.724
	c1.73,1.777,8.103,3.771,10.961,3.654c-0.506,2.679-1.855,6.82-2.923,10.117C36.861,130.788,27.362,127.753,27.249,125.898z"/>
<path fill-rule="evenodd" clip-rule="evenodd" fill="#3B3438" d="M34.361,111.05c0.883-2.717,1.767-5.313,2.65-8.03
	c0.964,0.682,2.691,1.124,3.975,1.445c-0.924,2.704-1.847,5.408-2.771,8.111C37.173,112.509,35.004,111.96,34.361,111.05z"/>
<path fill-rule="evenodd" clip-rule="evenodd" fill="#666264" d="M42.594,88.523c0.736-0.418,1.224-2.16,1.098-3.325
	c-3.82-2.087-7.639-4.176-11.459-6.263c-2.325-0.472-4.854,7.997-2.071,8.537C34.306,87.823,38.451,88.173,42.594,88.523z"/>
<ellipse transform="matrix(0.2965 -0.955 0.955 0.2965 -57.5685 87.9176)" fill-rule="evenodd" clip-rule="evenodd" fill="#1A1414" cx="30.895" cy="83.037" rx="3.852" ry="0.998"/>
<path fill-rule="evenodd" clip-rule="evenodd" fill="#282223" d="M41.831,87.673l0.45-2.08c2.296-0.875,2.216-3.852,6.333,1.124
	c1.475,1.783,2.314,2.931,0.132,4.722c-0.713,0.585-3.314,0.316-4.306-0.753c-1.006-1.085-2.608-0.683-2.608-2.165
	C41.831,88.238,41.831,87.956,41.831,87.673z"/>
<path fill-rule="evenodd" clip-rule="evenodd" fill="#514B4E" d="M42.97,85.327c-0.667-2.881,0.933-5.523,4.201-5.523
	c3.885,0,9.274,8.757,5.79,10.404c-0.451,0.213-1,0.278-1.293,0.278c-0.815,0.002-1.28-0.739-1.223-0.738
	c1.392,0.027,2.086-1.337,1.111-1.999c-1.059-0.719-4.281-4.375-6.461-4.71c-0.445-0.068-0.455,1.913-0.786,2.175
	C43.541,85.823,43.008,85.491,42.97,85.327z"/>
<path fill-rule="evenodd" clip-rule="evenodd" fill="#B18E64" d="M50.009,80.323l-2.979,0.618c0.511-0.546,4.111-3.383,5.278-2.83
	c1.376,0.652,2.156,1.31,3.004,2.6c0.821,1.248-1.448,1.714-2.155,1.129L50.009,80.323z"/>
<path fill-rule="evenodd" clip-rule="evenodd" fill="#E8CAAA" d="M50.938,78.653c-1.344,0.466-1.714,0.558-3.192,1.93
	c-1.164,1.081-1.9,2.19-1.469,2.927c0.436,1.363,2.467,0.744,1.874,2.079c-0.363,0.817,0.389,1.503,1.713,0.874
	c0.327,0.299-0.334,3.868,3.652,1.447c0.398-0.242-0.168,0.129,0.329-0.242c1.59-1.187,2.978-4.427,0.624-4.341
	c0.276-0.315-0.278-2.246-1.242-2.315c-0.472-0.034-0.428,0.166-0.075-0.136c0.306-0.262,0.38-0.518-0.119-1.478
	C52.473,78.325,52.048,78.268,50.938,78.653z"/>
<path fill-rule="evenodd" clip-rule="evenodd" fill="#B02F34" d="M80.602,72.681c3.249,2.279,3.78,5.771,0.379,8.98
	c-2.752,2.597-3.47,10.849-5.798,10.709c-3.182-0.191-3.839-0.199-6.09-3.064c-0.2-0.255-0.488-0.954-0.736-1.698
	c-1.192,0.928-1.991,1.555-1.926,1.736c2.685,7.497,14.1,8.518,15.61,7.998c0.262-0.341-0.136-1.158-0.68-3.329
	c-1.181-4.707,0.048-9.105,1.733-12.279c0.828-1.558,3.127-3.045,4.747-3.253C88.89,76.11,83.96,73.54,80.602,72.681z"/>
</svg>
