<?xml version="1.0" encoding="utf-8"?>
<!-- Generator: Adobe Illustrator 17.0.0, SVG Export Plug-In . SVG Version: 6.00 Build 0)  -->
<!DOCTYPE svg PUBLIC "-//W3C//DTD SVG 1.1//EN" "http://www.w3.org/Graphics/SVG/1.1/DTD/svg11.dtd">
<svg version="1.1" id="Слой_1" xmlns="http://www.w3.org/2000/svg" xmlns:xlink="http://www.w3.org/1999/xlink" x="0px" y="0px"
	 width="3200px" height="400px" viewBox="0 0 3200 400" enable-background="new 0 0 3200 400" xml:space="preserve">
<g>
	<g transform="translate(0.000000,150.000000) scale(0.100000,-0.100000)">
		<path fill="none" stroke="#000000" stroke-width="20" stroke-miterlimit="10" d="M3689.104,171.93l75.89-80.786l-58.754-26.929
			c-31.825-17.136-61.202-19.585-66.098-7.344c-4.896,9.792-100.371,0-215.43-26.929c-115.059-24.481-252.151-51.409-306.008-58.754
			s-195.845-34.273-318.249-58.754c-119.955-26.929-308.456-68.546-413.723-90.578c-154.228-34.273-212.982-36.721-283.976-14.688
			c-51.409,14.688-141.988,26.929-205.638,26.929c-95.475,0-127.3-14.688-210.534-90.578
			c-93.026-80.786-115.059-88.13-283.976-100.371c-171.365-9.792-181.157-14.688-144.436-53.857
			c36.721-39.169,34.273-44.065-29.377-66.098c-36.721-12.24-181.157-14.688-320.697-7.344l-252.151,12.24l-61.202-80.786
			c-34.273-41.617-112.611-102.819-176.261-134.644c-134.644-63.65-151.78-124.851-36.721-134.644
			c105.267-9.792,102.819-44.065-2.448-63.65c-46.513-9.792-110.163-39.169-141.988-66.098c0,0-65.245-42.589-56.306-58.961
			c7.332-13.429,58.754,27.136,58.754,27.136c39.169,9.792,51.409,7.344,41.617-12.24c-24.481-36.721,17.136-34.273,53.857,2.448
			c24.481,24.481,29.377,17.136,24.481-29.377c-7.344-53.857,2.448-61.202,83.234-68.546
			c58.754-4.896,146.884,17.136,244.807,58.754c198.293,83.234,705.043,159.124,705.043,102.819c0-9.792-34.273-41.617-75.89-66.098
			c-46.513-29.377-63.65-48.961-41.617-56.306c24.481-9.792,24.481-19.584-4.896-58.754c-36.721-44.065-34.273-44.065,31.825,0
			c70.994,41.617,70.994,41.617,53.857-7.344c-19.584-63.65,7.344-66.098,53.858-7.344c24.481,29.377,39.169,34.273,46.513,12.24
			c19.585-44.065,66.098-39.169,48.961,4.896c-7.344,19.585-4.896,36.721,7.344,36.721c9.792,0,14.688,26.929,7.344,61.202
			c-7.344,46.513,0,61.202,34.273,61.202c26.929,0,83.234,22.033,127.299,48.961c100.371,61.202,536.127,244.807,582.64,244.807
			c17.136,0,44.065-44.065,61.202-95.475c26.929-93.027,26.929-107.715-39.169-283.976c-17.136-41.617-14.688-44.065,14.688-17.136
			c26.929,24.481,39.169,19.585,63.65-24.481c0,0,13.884-59.777,29.377-56.306c14.942,3.348,2.448,61.202,2.448,61.202
			c2.448,58.754,4.896,58.754,24.481,9.792c31.825-78.338,68.546-90.578,53.857-22.033c-12.24,66.098,17.136,78.338,63.65,31.825
			c22.033-22.033,29.377-22.033,29.377-2.448c0,17.136-9.792,34.273-22.033,41.617c-9.792,7.344-26.929,68.546-34.273,137.092
			c-9.792,68.546-31.825,159.124-51.409,200.741c-44.065,85.682-34.273,117.507,41.617,117.507
			c112.611,0,771.141,220.326,1057.565,352.522c293.768,139.54,362.314,281.528,186.053,399.035
			C3625.454,274.748,3598.525,262.508,3689.104,171.93z"/>
	</g>
</g>
<g>
	<g transform="translate(0.000000,150.000000) scale(0.100000,-0.100000)">
		<path fill="none" stroke="#000000" stroke-width="20" stroke-miterlimit="10" d="M4838.954,597.448
			c-135.267-108.696-272.949-282.611-335.751-420.293c-26.57-57.971-74.88-128.02-106.281-159.421
			c-77.295-72.464-188.407-299.519-171.499-347.828c7.247-19.324,70.049-62.802,137.682-96.619
			c111.112-55.556,118.358-62.802,62.802-74.88c-50.725-14.493-57.971-26.57-55.556-142.513c0-125.605,2.416-128.02,70.049-128.02
			c55.556,0,72.464,12.077,79.71,57.971c14.493,101.45,50.725,123.189,214.978,123.189c142.513,0,157.006,4.831,207.731,72.464
			c70.048,96.619,101.45,101.45,297.103,60.387c94.204-19.324,224.639-36.232,292.272-36.232
			c108.697,0,130.436-9.662,166.668-62.802c50.725-77.295,60.387-246.378,16.908-280.195c-21.739-19.324-21.739-33.817-2.416-57.971
			c33.817-41.063,99.035-43.479,140.098-4.831c24.155,26.57,33.817,24.155,53.141-12.077c31.401-53.141,161.837-53.141,229.47,2.415
			c36.232,28.986,55.556,77.295,65.218,157.006c4.831,62.802,14.493,120.774,19.324,125.605
			c12.077,12.077,198.069-28.986,347.828-79.711c67.633-19.324,202.9-41.063,301.935-43.479
			c99.035-4.831,219.808-14.493,265.702-21.739c152.175-28.986,386.476-198.069,386.476-282.611
			c0-21.739,21.739-53.141,48.31-67.633c38.647-19.324,48.31-50.725,48.31-140.098c0-62.802-12.078-130.436-24.155-149.759
			c-16.908-26.57-24.155-19.324-24.155,38.648c0,176.33-219.808,246.378-342.998,106.281
			c-164.252-181.161,0-461.356,251.209-427.539c258.456,33.817,413.046,338.167,323.674,630.439
			c-24.155,82.126-28.986,130.436-12.078,149.759c16.909,19.324,14.493,33.817-2.416,45.894
			c-14.493,9.662-19.324,36.232-12.077,57.971c24.155,77.295-74.88,166.668-198.069,185.992
			c-86.957,12.077-183.576,65.218-405.8,212.562c-415.462,280.195-466.187,306.765-876.817,458.94
			c-693.242,256.04-910.634,292.272-1142.52,181.161c-65.218-28.986-125.604-45.894-135.267-38.648
			c-9.662,9.662-2.416,113.527,12.078,229.47c26.57,188.407,24.155,212.562-12.078,241.548
			C4964.559,698.898,4966.974,701.313,4838.954,597.448z"/>
	</g>
</g>
<g>
	<g transform="translate(0.000000,150.000000) scale(0.100000,-0.100000)">
		<path fill="none" stroke="#000000" stroke-width="20" stroke-miterlimit="10" d="M9364.061,903.1
			c-186.155-52.124-220.904-163.817-81.908-258.136c111.693-74.462,253.171-89.355,635.41-69.498l327.634,17.375l-74.462-64.534
			c-62.052-52.124-74.462-81.908-74.462-171.263c0-148.924,76.944-307.777,176.227-369.829
			c47.16-27.303,166.3-76.944,268.064-106.729c166.299-52.124,493.933-213.458,521.235-258.136
			c4.964-9.928-106.729-12.41-250.689-9.928c-595.697,19.857-925.813-138.996-925.813-446.773
			c0-158.853,64.534-357.419,136.515-412.024c34.749-27.303,62.052-54.606,62.052-59.57c0-7.446-104.247-19.857-230.833-27.303
			c-250.689-14.892-357.419-49.641-523.718-166.299c-106.729-76.944-106.729-76.944-402.096-71.98
			c-317.706,4.964-342.526,0-575.841-156.371c-69.498-47.159-96.802-81.908-89.355-106.729
			c12.411-27.303-2.481-37.231-52.123-37.231c-39.713,0-59.57-9.928-47.16-27.303c7.446-14.892,42.196-19.857,76.945-9.928
			c34.749,7.446,76.944,2.482,94.318-12.41c49.642-39.713,553.502-19.857,804.191,34.749
			c114.176,22.339,277.993,76.944,359.901,121.622c218.422,109.211,503.86,121.622,948.152,34.749
			c578.322-114.175,920.849-109.211,1171.538,12.41c161.335,76.944,210.977,168.781,193.602,372.311
			c-4.964,89.355-29.784,198.566-49.641,238.279c-47.16,94.319-153.889,178.709-243.244,196.084
			c-79.426,14.892-119.139,57.088-57.087,57.088c24.82,0,79.426,37.231,121.621,81.908c146.442,143.96,143.96,503.861-2.481,642.857
			c-89.355,84.391-682.57,382.239-831.495,419.47c-124.104,29.785-148.925,59.57-74.462,84.391
			c84.391,24.821,136.514,245.725,89.354,372.311c-57.088,143.96-431.881,161.335-948.152,39.713
			c-223.387-54.606-357.419-74.462-416.988-62.052c-188.638,34.749,9.929,129.068,282.956,131.55
			c171.264,2.482,206.013,37.231,62.052,62.052C9614.75,937.849,9468.308,932.885,9364.061,903.1z"/>
	</g>
</g>
<g>
	<g transform="translate(0.000000,150.000000) scale(0.100000,-0.100000)">
		<path fill="none" stroke="#000000" stroke-width="20" stroke-miterlimit="10" d="M14453.629,1019.467
			c-87.398-16.994-267.052-72.832-400.577-121.387c-271.907-99.537-842.426-373.872-934.68-449.132
			c-33.989-26.705,65.549,14.566,218.496,92.254c344.739,172.37,740.461,330.173,985.663,393.294
			c347.166,89.826,784.16,48.555,1090.055-99.537c138.382-67.977,172.37-97.11,213.642-186.936l53.41-104.393l-48.555-87.399
			c-48.555-87.399-116.531-140.809-429.71-332.6c-82.543-53.41-257.341-162.659-383.583-247.63
			c-327.745-213.641-352.022-220.924-667.629-211.213c-145.664,4.855-313.179,7.283-371.444,7.283
			c-75.26-2.428-116.531,12.139-157.803,53.41c-29.133,31.561-87.398,82.543-126.243,116.532
			c-41.271,31.561-12.139-2.428,60.694-80.115c106.82-111.676,121.387-138.381,84.971-140.809c-29.133,0-36.416-7.283-16.994-14.566
			c24.277-9.711,24.277-19.422,0-50.983c-26.705-31.561-24.277-36.416,24.277-24.277c29.133,9.711,53.41,4.855,53.41-4.855
			c0-12.139,33.988-9.711,77.688,4.855c58.266,19.422,114.104,19.422,223.353-2.428c82.543-16.994,155.375-36.416,165.086-41.272
			c19.422-12.139-157.803-111.676-538.958-303.468c-138.382-67.977-235.491-104.393-240.347-89.826
			c-4.855,14.566,7.283,38.844,29.133,55.838c21.85,14.566,43.699,55.838,50.982,92.254c4.855,36.416,16.994,75.26,26.705,89.826
			c7.283,12.139,2.428,24.277-9.711,24.277c-14.566,0-26.705-9.711-26.705-24.277c0-55.838-46.127-16.994-80.115,67.977
			c-43.699,99.537-55.838,70.404-16.994-33.988c33.988-87.399,16.994-97.11-67.977-36.416
			c-99.537,70.404-118.959,63.121-36.416-12.139c53.41-48.555,55.838-55.838,14.566-36.416
			c-75.26,38.844-128.67,31.561-55.838-4.855c48.555-24.277,58.266-46.127,53.41-101.965
			c-16.994-138.381-46.127-179.653-152.947-206.358c-104.394-29.133-155.376-26.705-480.693,21.85
			c-143.236,21.85-191.791,19.422-254.912-7.283c-41.271-19.422-106.821-43.699-148.093-55.838
			c-97.109-31.561-94.682-99.537,4.855-167.514c43.699-29.133,179.653-92.254,303.468-143.237
			c237.919-94.682,206.358-92.254,577.803-46.127c75.26,9.711,143.236,0,223.352-31.561l111.676-43.699l-60.693-104.393
			c-55.838-92.254-70.404-104.393-126.242-92.254c-60.693,14.566-60.693,14.566-16.994-21.85
			c58.266-46.127,48.555-55.838-67.977-70.404c-126.243-14.566-140.81-38.844-24.277-41.272c0,0,89.691,23.138,94.682,0
			c5.898-27.349-101.965-46.127-101.965-46.127c-58.267-26.705-104.394-58.266-104.394-75.26c0-19.422,9.711-19.422,31.561-4.855
			c46.128,38.844,235.491,106.821,235.491,84.971c0-9.711-21.85-53.41-50.982-99.537c-26.705-43.699-43.699-84.971-38.844-92.254
			c7.283-4.855,46.127,48.555,89.826,118.959l77.688,126.242l43.699-53.41c55.838-67.977,87.399-70.404,38.844-2.428
			c-41.271,60.693-31.561,92.254,67.978,240.346c41.271,63.121,72.832,138.381,72.832,182.081
			c0,72.832,12.139,82.543,262.195,203.93c267.052,128.67,602.08,356.878,691.906,473.409c60.693,75.26,65.549,77.688,223.353,9.711
			l126.242-50.983l70.404,50.983c58.266,43.699,99.537,53.41,242.774,46.127c92.254-2.428,169.941,2.428,169.941,14.566
			c0,9.711-12.139,16.994-29.133,16.994c-72.832,0,29.133,50.983,111.676,55.838c48.556,2.428,87.399,14.566,87.399,26.705
			c0,16.994-63.121,12.139-247.63-24.277c-89.826-16.994-87.398,24.277,4.855,63.121c41.271,16.994,72.832,38.844,72.832,50.983
			c0,12.139-41.271,0-94.682-26.705c-65.549-36.416-109.248-43.699-148.092-29.133c-53.41,19.422-53.41,21.85,26.705,72.832
			c111.676,70.404,67.977,67.977-58.266-4.855c-162.659-92.254-218.497-97.11-286.474-24.277l-58.266,63.121l60.693,41.272
			c33.988,21.85,135.953,104.393,228.207,184.508c92.255,80.115,233.063,194.219,315.606,252.485
			c386.011,271.907,470.981,432.138,354.45,667.629c-84.971,174.797-354.45,308.323-704.045,352.022
			C14781.374,1063.166,14655.131,1060.738,14453.629,1019.467z"/>
	</g>
</g>
<g>
	<g transform="translate(0.000000,150.000000) scale(0.100000,-0.100000)">
		<path fill="none" stroke="#000000" stroke-width="20" stroke-miterlimit="10" d="M17223.639,672.402
			c-111.977-12.442-171.697-34.837-216.488-74.651c-74.65-69.674-77.139-97.046-12.441-223.952
			c27.371-54.744,42.301-99.534,32.348-99.534c-12.441,0,0-12.442,24.885-27.372c22.395-12.442,42.301-39.814,42.301-59.721
			c0-17.419,14.932-37.325,32.35-42.302c14.93-7.465,32.348-39.814,34.838-72.162c2.488-32.349,9.953-99.534,14.93-146.813
			c7.465-47.279,2.488-204.046-9.953-348.37c-19.908-223.952-17.42-266.255,14.93-288.65c34.836-24.884,32.348-39.814-9.953-139.348
			l-47.279-111.976l-169.209-14.93c-94.557-9.953-320.998-17.419-502.648-17.419c-213.999,0-325.976-9.953-316.021-24.884
			c9.953-14.93,194.092-24.884,475.277-24.884c251.324,0,457.857-4.977,457.857-9.953c0-44.791-69.674-184.139-109.488-218.976
			c-49.768-44.79-49.768-44.79-2.488-29.86c47.279,14.93,47.279,12.442-4.977-42.302c-49.768-52.256-64.697-54.744-136.859-29.86
			c-129.395,44.79-266.254,34.837-296.115-22.395c-29.859-54.744-7.465-99.534,24.885-47.279c17.418,24.884,39.813,24.884,129.395,0
			c59.721-17.419,119.441-39.814,131.883-49.767c9.953-9.953,52.256-7.465,94.557,2.488
			c39.814,12.442,109.488,17.419,156.768,12.442c47.279-7.465,92.068,0,99.533,14.93c9.955,12.442,39.814,17.418,69.676,7.465
			c52.254-17.418,52.254-14.93,7.465,49.767c-24.885,37.325-37.326,84.604-29.861,104.511
			c19.908,49.767,139.348,44.79,179.162-7.465c32.35-42.302,32.35-42.302,34.838,0c0,62.209,199.068,62.209,199.068,0
			c0-27.372,7.465-34.837,19.906-17.419c27.373,42.302,726.602,2.488,726.602-44.791c0-12.442-9.953-17.418-22.395-9.953
			c-29.861,19.907-176.674-34.837-176.674-64.697c0-14.93,17.418-19.907,37.324-9.953c19.908,7.465,37.326,4.977,37.326-4.977
			c0-24.884,27.371-27.372,343.395-34.837c139.348-4.977,253.813,0,253.813,12.442c0,9.953,12.441,12.442,24.883,4.977
			c14.93-7.465,24.883-4.977,24.883,9.953c0,42.302-57.23,64.697-171.695,64.697c-64.697,0-114.465,12.442-119.441,32.349
			c-7.465,17.419,12.441,29.86,52.256,29.86c77.139,0,238.881,62.209,238.881,92.069c0,9.953,9.955,34.837,19.908,49.767
			c14.93,22.395,52.256,2.488,136.859-77.139c107-97.046,129.395-109.488,238.883-107c64.697,0,131.883-7.465,146.813-17.418
			c17.42-9.953,29.861-2.488,29.861,19.907c0,74.651,306.068,52.255,368.277-27.372c34.836-49.767,39.813-9.953,4.977,77.139
			c-19.908,57.232-37.326,64.697-149.303,64.697c-166.719,0-350.857,52.255-403.113,111.976
			c-24.885,27.372-42.303,79.627-44.791,119.441c0,82.116-79.627,166.72-154.277,166.72c-32.35,0-89.582,22.395-131.885,49.767
			c-39.813,27.372-94.557,42.302-116.951,34.837c-27.373-7.465-44.791,0-44.791,17.419s-7.465,22.395-14.93,14.93
			c-34.838-32.349-169.209,74.651-258.791,209.022c-52.254,74.651-146.813,196.58-209.021,271.231s-114.465,144.325-114.465,154.278
			c0,32.349-176.674,303.58-201.557,313.533c-32.35,12.442-27.373,74.651,9.953,87.093c14.93,7.465,2.488,14.93-32.348,17.419
			c-57.232,2.488-59.721,4.977-17.42,34.837c34.838,27.372,37.326,37.325,12.441,49.767c-17.418,7.465-7.465,9.953,24.885,4.977
			c82.115-14.93,39.814,29.86-52.256,57.232c0,0-80.236,1.725-79.627,22.395c0.598,20.369,79.627,17.419,79.627,17.419
			c89.58,19.907,87.092,67.186,0,52.256c-29.859-2.488-39.814-2.488-22.395,2.488c67.186,22.395,27.371,59.721-49.768,47.279
			c-44.791-7.465-64.697-7.465-44.791,2.488c37.326,14.93-320.998,109.488-398.137,102.023
			C17397.822,692.309,17310.73,682.356,17223.639,672.402z"/>
	</g>
</g>
<g>
	<g transform="translate(0.000000,150.000000) scale(0.100000,-0.100000)">
		<path fill="none" stroke="#000000" stroke-width="20" stroke-miterlimit="10" d="M21688.93,838.504
			c-28.553-7.787-77.867-36.338-111.609-67.484c-72.676-67.484-57.102-127.181,67.484-256.958
			c67.484-70.08,101.227-90.844,124.586-70.08c59.697,49.315,67.484-54.506,23.359-241.385
			c-15.572-57.102-10.383-70.08,41.529-77.866c57.102-7.787,64.889-23.36,77.865-176.497
			c7.787-93.439,23.361-199.856,33.742-236.194c18.17-67.484,15.574-70.08-184.283-111.608
			c-417.881-90.844-622.93-189.474-794.234-376.353c-64.889-72.675-137.564-132.372-166.115-132.372
			c-83.057-2.596-420.477-98.63-498.344-145.35c-106.416-62.293-168.709-176.497-132.371-243.981
			c46.719-88.248,308.869-199.857,825.381-350.398c472.389-134.968,861.719-205.048,861.719-153.137
			c0,15.573,75.271,18.169,186.879,7.787c103.822-7.787,241.385-12.978,306.273-7.787c64.889,5.191,275.127,12.978,469.793,20.764
			c407.5,15.573,612.547,70.079,809.809,212.834c145.35,103.822,212.834,233.599,184.283,352.993
			c-7.787,44.124-77.867,142.755-155.732,223.216c-75.271,77.866-134.969,150.541-132.373,158.328s-10.383,38.933-25.955,67.484
			c-15.574,28.551-41.529,127.181-57.102,220.621c-90.844,552.85-150.541,713.773-334.824,934.394
			c-246.576,290.7-355.59,347.802-638.504,334.825c-90.844-5.191-184.283,5.191-218.025,23.36
			c-31.146,18.169-129.777,44.124-220.621,57.102c-88.248,12.978-189.473,28.551-225.811,36.338
			C21769.391,846.291,21717.48,846.291,21688.93,838.504z"/>
	</g>
</g>
<g>
	<g transform="translate(0.000000,150.000000) scale(0.100000,-0.100000)">
		<path fill="none" stroke="#000000" stroke-width="20" stroke-miterlimit="10" d="M25541.074,669.915
			c-75.551-5.037-148.582-20.147-161.174-35.257c-15.109-12.592-67.996-22.665-118.363-22.665
			c-67.994,0-125.916-22.665-203.984-83.105c-125.918-95.697-362.643-415.527-392.863-531.371
			c-20.146-67.995-30.221-78.069-100.734-70.514c-95.695,10.073-282.055-37.775-282.055-73.032c0-12.592-37.773-45.33-80.586-73.032
			c-62.959-37.775-70.514-50.367-35.258-50.367c45.33,0,45.33-5.037-10.072-62.959c-47.85-52.885-52.887-62.959-17.629-62.959
			c50.367,0,57.922-47.849,12.592-52.885c-17.629-2.518,7.555-12.592,55.404-20.147c47.848-10.073,231.688-12.592,407.971-7.555
			l319.83,12.592l234.207-151.101c216.578-141.027,327.385-188.876,876.385-377.752c75.551-25.183,158.656-32.738,251.834-25.183
			c178.803,20.147,322.348-40.294,400.418-166.211c30.219-47.849,70.514-95.697,90.66-103.252s37.775-27.702,37.775-45.33
			c0-20.147,35.256-62.959,75.551-100.734c42.811-35.257,75.549-55.404,75.549-42.812c0,37.775,120.881-32.739,146.064-88.142
			c25.184-50.367,27.701-50.367,27.701,17.628c2.52,78.069,37.775,88.142,78.07,25.183c25.184-37.775,27.701-35.257,17.627,22.665
			c-5.035,42.812,0,62.959,15.111,52.885c42.811-25.183-5.037,118.362-55.404,173.766c-37.775,40.294-57.922,45.33-98.215,22.665
			c-42.813-22.665-62.959-7.555-151.102,110.807c-178.803,239.243-178.803,229.169,0,309.757
			c88.143,40.294,203.986,113.326,259.391,161.174c83.105,75.55,95.697,95.697,67.994,125.917
			c-40.293,50.367,17.629,103.252,100.734,90.66c42.813-5.037,62.959-30.22,78.068-103.252
			c17.629-70.514,42.813-103.252,88.143-120.881c37.775-15.11,75.551-40.294,85.623-55.404
			c12.592-20.147,20.148-17.628,20.148,10.073c0,20.147,40.293,55.404,88.141,73.032c135.992,52.885,151.102,178.803,27.703,226.651
			c-47.85,17.628-55.404,35.257-45.33,110.807c5.035,50.367-2.52,105.771-17.629,125.917
			c-20.146,25.183-17.629,60.44,12.592,143.546c55.402,148.582,20.146,249.316-85.625,249.316
			c-67.994,0-249.316-62.959-365.16-128.436c-37.775-20.147-70.514-2.518-173.766,90.66
			c-161.174,143.546-576.701,380.27-740.393,415.527c-67.996,17.628-163.693,40.294-211.541,55.404
			C26049.781,672.433,25757.652,685.025,25541.074,669.915z"/>
	</g>
</g>
<g>
	<g transform="translate(0.000000,150.000000) scale(0.100000,-0.100000)">
		<path fill="none" stroke="#000000" stroke-width="20" stroke-miterlimit="10" d="M31158.717,269.424
			c-65.537-51.884-73.729-70.999-60.074-180.228c10.922-111.96,35.498-144.729,245.766-349.533
			c264.881-256.689,346.803-390.494,346.803-567.992c0-152.921-84.654-262.15-262.15-330.418
			c-177.498-68.268-278.535-46.422-677.221,147.459c-188.422,92.845-349.533,166.575-357.727,166.575
			c-10.922,0-68.268,35.5-133.805,79.191c-111.961,76.46-166.576,161.113-283.996,439.647
			c-27.309,68.268-84.652,163.844-125.613,210.266c-98.307,117.421-387.764,253.958-532.494,253.958
			c-262.148,0-524.299-166.574-628.066-395.956c-87.383-193.882-202.074-232.112-234.844-76.46
			c-8.191,40.961-30.037,125.614-46.422,185.69c-43.691,166.574-294.918,376.841-294.918,245.766
			c0-65.538,60.076-185.69,133.805-267.612c43.691-49.153,73.73-120.152,84.652-204.805
			c10.924-114.691,24.576-133.806,114.691-177.497c87.383-43.692,117.422-46.422,199.344-19.115
			c81.922,27.307,111.959,60.076,180.227,207.535c65.539,136.536,109.23,188.42,199.344,243.035
			c141.998,84.653,335.881,90.114,496.994,16.384c117.42-54.615,283.994-232.112,283.994-303.111
			c0-90.114,150.191-346.803,267.611-456.032c65.539-65.537,163.844-131.075,212.998-150.19
			c51.883-19.115,92.844-40.961,92.844-49.153c0-10.923,16.385-19.115,38.23-19.115c19.115,0,144.729-54.615,278.535-122.883
			c502.453-259.419,871.104-232.112,1073.176,81.922c182.959,286.727,46.424,660.837-330.418,914.794
			c-253.957,169.305-338.609,316.765-243.035,431.455c49.154,60.076,111.961,70.999,234.844,43.692
			c76.461-19.115,79.191-16.384,30.037,21.846C31385.369,348.615,31246.102,340.423,31158.717,269.424z"/>
	</g>
</g>
</svg>
