<svg xmlns="http://www.w3.org/2000/svg" width="226" height="272" viewBox="0 0 226 272" version="1.1">
	<path d="M 127 3.893 C 127 4.384, 124.638 4.651, 121.750 4.486 C 118.862 4.321, 114.475 4.617, 112 5.142 C 109.525 5.667, 106.375 6.259, 105 6.457 C 99.738 7.213, 96.880 8.350, 80 16.402 C 66.614 22.788, 56.473 30.339, 53.411 36.200 C 52.635 37.686, 52 41.092, 52 43.770 C 52 47.767, 52.537 49.242, 55 52 C 56.650 53.848, 58 55.708, 58 56.132 C 58 56.557, 59.913 58.189, 62.250 59.759 C 67.617 63.366, 98.533 72.621, 110.024 74.062 C 114.612 74.638, 118.691 75.309, 119.088 75.554 C 119.711 75.939, 119.177 83.952, 118.471 84.808 C 118.332 84.977, 115.982 83.740, 113.248 82.058 C 110.515 80.376, 107.835 79, 107.293 79 C 106.751 79, 104.921 78.308, 103.227 77.463 C 98.334 75.022, 82.382 72.759, 74.500 73.387 C 57.884 74.711, 51.490 76.480, 34.863 84.353 C 22.101 90.397, 12.489 99.209, 7.379 109.548 C 3.973 116.438, 3.760 117.408, 4.225 123.902 C 4.554 128.495, 5.451 132.100, 6.862 134.490 C 9.481 138.929, 9.482 138.790, 6.828 139.180 C 5.634 139.356, 4.485 140.023, 4.274 140.662 C 4.008 141.472, 5.106 141.661, 7.896 141.287 C 11.575 140.794, 11.953 140.963, 12.558 143.375 C 13.314 146.387, 13.740 146.541, 15.921 144.585 C 17.283 143.364, 18.050 143.366, 21.500 144.596 C 24.489 145.662, 28.043 145.862, 35.564 145.387 L 45.627 144.752 45.244 148.126 C 44.918 151, 45.464 152.086, 48.930 155.453 L 53 159.406 52.989 167.453 C 52.972 179.869, 52.256 182.726, 48.717 184.491 C 44.992 186.350, 44.928 186.350, 45.638 184.500 C 45.955 183.675, 45.716 183, 45.107 183 C 44.498 183, 43.996 182.438, 43.992 181.750 C 43.988 181.063, 42.863 179.980, 41.492 179.344 C 40.121 178.708, 39 178.316, 39 178.472 C 39 178.628, 39.675 180.371, 40.500 182.346 C 41.325 184.320, 42 187.580, 42 189.590 C 42 192.677, 41.774 193.057, 40.544 192.036 C 39.743 191.372, 38.618 191.118, 38.044 191.473 C 37.470 191.828, 37 191.386, 37 190.492 C 37 189.356, 36.434 189.045, 35.124 189.461 C 33.788 189.885, 33.095 189.472, 32.718 188.028 C 32.426 186.913, 31.646 186, 30.985 186 C 30.222 186, 29.999 186.860, 30.375 188.357 L 30.967 190.715 26.447 189.227 C 23.961 188.409, 21.664 188.003, 21.341 188.326 C 21.018 188.648, 22.835 190.993, 25.377 193.535 C 27.920 196.078, 30 198.572, 30 199.079 C 30 200.596, 24.113 200.120, 21.473 198.390 C 20.121 197.505, 18.276 197.064, 17.372 197.411 C 14.967 198.334, 15.999 210.767, 18.650 212.798 C 20.344 214.095, 20.225 214.178, 17.250 213.781 C 15.093 213.492, 14 213.765, 14 214.590 C 14 215.274, 14.515 216.005, 15.143 216.214 C 15.999 216.500, 15.995 217.141, 15.128 218.761 C 14.428 220.068, 13.382 220.700, 12.485 220.356 C 11.668 220.042, 11 220.284, 11 220.893 C 11 221.502, 11.724 222, 12.608 222 C 13.841 222, 14.064 222.607, 13.565 224.598 C 13.090 226.490, 13.264 227.070, 14.206 226.733 C 15.788 226.167, 19 227.710, 19 229.035 C 19 229.566, 18.325 230, 17.500 230 C 16.659 230, 16 230.892, 16 232.031 C 16 233.149, 15.325 234.322, 14.500 234.638 C 12.596 235.369, 12.543 237, 14.424 237 C 15.367 237, 16.134 238.773, 16.697 242.250 L 17.546 247.500 19.864 242.747 C 22.357 237.634, 23.383 237.407, 24.469 241.731 C 24.848 243.243, 25.656 244.788, 26.265 245.164 C 27.061 245.656, 27.032 246.256, 26.160 247.307 C 24.590 249.198, 27.024 250.283, 30.744 249.349 C 32.876 248.814, 33.217 248.992, 32.691 250.363 C 32.163 251.740, 32.506 251.911, 34.691 251.363 C 36.862 250.818, 37.218 250.990, 36.701 252.336 C 36.036 254.071, 35.840 254.123, 42.500 250.779 C 45.039 249.505, 45.961 249.476, 48.500 250.592 C 50.150 251.317, 51.072 251.930, 50.550 251.955 C 50.027 251.980, 50.140 252.540, 50.800 253.200 C 52.476 254.876, 52.300 255.688, 50.141 256.253 C 48.007 256.811, 46.402 261.802, 47.880 263.280 C 48.535 263.935, 49.426 263.716, 50.507 262.636 C 53.181 259.962, 57.145 260.916, 54.850 263.681 C 53.964 264.748, 54.047 264.919, 55.230 264.465 C 56.061 264.146, 57.488 264.631, 58.399 265.542 C 59.766 266.909, 60.326 266.974, 61.604 265.914 C 62.606 265.082, 63.390 264.984, 63.826 265.637 C 64.197 266.192, 65.329 266.952, 66.343 267.327 C 67.680 267.822, 68.329 267.459, 68.709 266.004 C 69.302 263.736, 70.548 263.389, 71.417 265.250 C 71.883 266.250, 72.117 266.250, 72.583 265.250 C 73.393 263.516, 75 263.682, 75 265.500 C 75 266.422, 75.937 267, 77.429 267 C 78.764 267, 80.532 266.325, 81.357 265.500 C 82.182 264.675, 83.495 264, 84.274 264 C 85.053 264, 86.495 263.110, 87.480 262.022 C 88.464 260.935, 90.221 260.075, 91.385 260.112 C 96.413 260.271, 104.193 258.170, 106.082 256.143 C 107.180 254.964, 108.315 254, 108.605 254 C 110.343 254, 113 256.342, 113 257.875 C 113 260.369, 117.132 262.015, 121.579 261.293 C 125.193 260.707, 125.278 260.764, 124.768 263.434 C 124.265 266.066, 124.377 266.152, 127.553 265.556 C 130.199 265.060, 131.291 265.393, 133.001 267.218 C 135.008 269.359, 135.220 269.392, 136.430 267.750 C 137.339 266.517, 139.101 266, 142.392 266 C 145.621 266, 147.240 265.537, 147.638 264.500 C 148.497 262.263, 151 262.688, 151 265.071 C 151 266.881, 151.183 266.960, 152.451 265.692 C 153.248 264.894, 154.197 263.062, 154.559 261.621 C 154.921 260.179, 155.843 259, 156.608 259 C 157.374 259, 158 258.550, 158 258 C 158 257.450, 159.350 257, 161 257 C 162.650 257, 164 257.450, 164 258 C 164 258.550, 164.450 259, 165 259 C 165.550 259, 166 258.325, 166 257.500 C 166 256.675, 166.689 256, 167.531 256 C 169.495 256, 170.668 253.031, 169.090 252.055 C 167.749 251.227, 166.547 244.021, 167.740 243.964 C 168.158 243.944, 169.784 242.877, 171.354 241.593 C 173.815 239.581, 174.051 238.964, 173.069 237.129 C 172.442 235.958, 172.283 234.998, 172.715 234.996 C 173.147 234.993, 173.583 233.388, 173.684 231.428 C 173.785 229.468, 174.282 227.333, 174.789 226.682 C 176.456 224.544, 176.721 221.463, 175.349 220.181 C 174.579 219.462, 173.914 216.472, 173.800 213.211 C 173.482 204.108, 173.701 202.150, 175.450 198.465 C 177.037 195.119, 177.251 195.015, 181.299 195.633 C 183.609 195.986, 186.324 196.698, 187.330 197.215 C 191.222 199.216, 204.588 190.158, 211.256 181 C 217.941 171.817, 221.833 160.098, 219.306 156.757 C 218.783 156.065, 218.424 153.138, 218.509 150.250 C 218.593 147.363, 218.288 145, 217.831 145 C 217.374 145, 217 144.188, 217 143.196 C 217 141.075, 211.380 131.859, 209.380 130.700 C 208.621 130.260, 208 129.248, 208 128.450 C 208 127.653, 207.325 127, 206.500 127 C 205.675 127, 205 126.431, 205 125.736 C 205 124.417, 197.424 120.479, 195.250 120.669 C 194.563 120.729, 193.994 120.265, 193.988 119.639 C 193.962 117.267, 181.929 114.370, 172.824 114.543 L 164.148 114.709 163.484 109.880 C 162.926 105.830, 162.286 104.722, 159.509 103.006 C 157.688 101.880, 155.929 100.257, 155.599 99.398 C 155.270 98.539, 155 92.932, 155 86.937 C 155 76.435, 155.082 76.022, 157.250 75.585 C 158.488 75.335, 164.450 74, 170.500 72.617 C 176.550 71.234, 183.750 69.841, 186.500 69.521 C 193.571 68.698, 201.283 66.910, 202.737 65.757 C 203.418 65.218, 204.637 65.030, 205.446 65.341 C 206.256 65.652, 209.074 64.441, 211.709 62.650 C 220.670 56.559, 223.376 46.461, 218.524 37.217 C 215.814 32.054, 213.630 29, 212.647 29 C 212.300 29, 210.914 28.043, 209.568 26.873 C 206.875 24.530, 204.943 23.381, 197.500 19.693 C 190.707 16.327, 188.799 15.656, 186.750 15.909 C 185.787 16.028, 185 15.595, 185 14.946 C 185 14.259, 184.165 13.985, 183.001 14.289 C 181.902 14.577, 180.734 14.378, 180.405 13.847 C 180.077 13.316, 178.839 12.975, 177.654 13.090 C 176.470 13.204, 174.825 13.054, 174 12.756 C 171.818 11.968, 162.143 10.099, 157.500 9.569 C 151.460 8.879, 135.593 4.701, 134.826 3.598 C 134.412 3.002, 133.529 3.146, 132.534 3.972 C 131.308 4.989, 130.634 5.034, 129.758 4.158 C 128.379 2.779, 127 2.647, 127 3.893 M 221.100 57.295 C 219.835 59.402, 219.857 59.423, 221.579 57.774 C 222.570 56.824, 223.166 55.832, 222.903 55.569 C 222.640 55.306, 221.829 56.083, 221.100 57.295 M 101.287 134.383 L 95.075 137.500 96.968 139.983 L 98.860 142.466 93.770 147.026 L 88.679 151.585 90.853 158.742 C 92.049 162.678, 93.515 166.200, 94.112 166.569 C 94.709 166.938, 97.066 165.931, 99.349 164.332 C 102.876 161.860, 103.969 160.171, 106.620 153.089 C 108.335 148.506, 110.312 142.367, 111.012 139.449 C 112.120 134.829, 112.082 133.939, 110.714 132.571 C 108.759 130.616, 108.816 130.605, 101.287 134.383 M 34.454 148.410 C 32.642 149.735, 32.747 149.862, 36.198 150.509 C 39.901 151.204, 42 150.648, 42 148.972 C 42 148.472, 41.371 148.304, 40.601 148.600 C 39.832 148.895, 38.905 148.656, 38.542 148.068 C 37.663 146.646, 36.763 146.721, 34.454 148.410 M 11.500 202 C 11.840 202.550, 12.316 203, 12.559 203 C 12.802 203, 13 202.550, 13 202 C 13 201.450, 12.523 201, 11.941 201 C 11.359 201, 11.160 201.450, 11.500 202 M 10.500 238 C 10.840 238.550, 11.316 239, 11.559 239 C 11.802 239, 12 238.550, 12 238 C 12 237.450, 11.523 237, 10.941 237 C 10.359 237, 10.160 237.450, 10.500 238 M 13.500 247 C 13.160 247.550, 13.359 248, 13.941 248 C 14.523 248, 15 247.550, 15 247 C 15 246.450, 14.802 246, 14.559 246 C 14.316 246, 13.840 246.450, 13.500 247" fill="none" stroke="#000" stroke-width="2px" fill-rule="evenodd"/>
</svg>
