<svg xmlns="http://www.w3.org/2000/svg" width="219" height="280" viewBox="0 0 219 280" version="1.1">
	<path d="M 62.792 5.961 C 61.948 7.313, 60.456 8, 58.366 8 C 56.633 8, 54.981 8.608, 54.696 9.350 C 54.405 10.109, 51.981 10.961, 49.159 11.295 C 43.074 12.015, 22.038 18.890, 16.500 21.967 C 11.052 24.995, 6.070 30.055, 6.032 32.601 C 6.014 33.756, 5.523 36.069, 4.941 37.739 C 4 40.439, 4.271 41.384, 7.375 46.237 C 10.218 50.681, 11.856 52.114, 16.184 53.939 C 19.108 55.172, 21.950 56.709, 22.500 57.354 C 24.188 59.335, 28.837 62, 30.605 62 C 31.526 62, 32.832 62.755, 33.507 63.678 C 34.248 64.692, 36.327 65.433, 38.757 65.551 C 40.970 65.659, 43.168 65.971, 43.640 66.245 C 44.113 66.519, 47.875 66.857, 52 66.997 C 56.125 67.137, 60.850 67.384, 62.500 67.545 C 64.150 67.706, 67.588 67.874, 70.139 67.919 C 76.704 68.034, 78.918 70.159, 79.573 76.976 C 79.862 79.987, 80.751 83.173, 81.549 84.055 C 84.835 87.685, 82.882 92, 77.953 92 C 76.918 92, 75.589 92.900, 75 94 C 74.411 95.100, 73.262 96, 72.446 96 C 71.361 96, 71.131 96.675, 71.591 98.507 C 71.977 100.045, 71.625 101.924, 70.680 103.366 C 69.378 105.353, 69.334 106.285, 70.395 109.371 C 71.085 111.380, 72.517 113.666, 73.575 114.451 C 75.225 115.674, 75.318 116.176, 74.227 117.962 C 73.159 119.711, 73.204 120.141, 74.511 120.643 C 75.558 121.044, 76.029 122.428, 75.950 124.870 C 75.886 126.866, 76.152 131.443, 76.541 135.040 C 77.141 140.571, 76.927 142.248, 75.156 145.913 C 73.760 148.802, 73.352 150.790, 73.933 151.875 C 75.090 154.037, 75.629 160.704, 74.720 161.613 C 73.652 162.681, 73.847 166.788, 75 167.500 C 76.232 168.261, 76.333 172, 75.121 172 C 74.638 172, 73.690 173.335, 73.014 174.967 C 70.665 180.637, 69.776 180.512, 62.382 173.471 C 53.978 165.467, 49.772 163.155, 42.177 162.361 C 32.151 161.313, 24.804 166.985, 24.798 175.780 C 24.795 179.976, 23.204 185, 21.879 185 C 21.395 185, 21 188.323, 21 192.384 C 21 199.694, 21.039 199.802, 24.889 203.281 C 27.029 205.214, 29.841 207.082, 31.139 207.433 C 39.150 209.596, 41 210.441, 41 211.938 C 41 214.179, 43.934 218.159, 45.068 217.458 C 46.425 216.619, 46.149 220.231, 44.718 222.042 C 44.048 222.890, 41.797 224.623, 39.715 225.895 C 36.845 227.648, 36.076 228.664, 36.533 230.103 C 36.867 231.157, 36.660 232, 36.067 232 C 35.480 232, 35 232.468, 35 233.040 C 35 234.953, 30.645 240, 28.995 240 C 27.665 240, 27.394 241.028, 27.520 245.596 C 27.661 250.715, 27.943 251.361, 30.837 253.194 C 34.649 255.607, 34.848 257.293, 31.500 258.818 C 30.125 259.445, 29 260.417, 29 260.979 C 29 262.350, 29.570 262.274, 33.141 260.427 C 35.844 259.029, 36.366 259.021, 37.841 260.352 C 39.148 261.532, 41.228 261.731, 47.646 261.289 C 54.723 260.802, 56.058 260.976, 57.815 262.614 C 61.009 265.592, 61.607 269.604, 59.092 271.175 C 56.179 272.994, 56.478 274.348, 59.618 273.560 C 61.408 273.110, 62.830 273.441, 64.118 274.606 C 65.870 276.193, 66.126 276.196, 67.829 274.655 C 69.988 272.701, 72.137 272.537, 73.800 274.200 C 74.733 275.133, 75 275.118, 75 274.133 C 75 273.320, 75.718 273.093, 77 273.500 C 78.560 273.995, 79 273.680, 79 272.067 C 79 270.930, 79.450 270, 80 270 C 80.550 270, 81 270.599, 81 271.331 C 81 273.558, 85.881 275.437, 91.457 275.357 C 97.799 275.265, 99 274.642, 99 271.441 C 99 269.938, 99.576 269, 100.500 269 C 101.325 269, 102 268.352, 102 267.559 C 102 265.134, 103.951 264.738, 106.778 266.590 C 108.257 267.559, 111.157 268.386, 113.222 268.426 C 116.307 268.487, 116.881 268.199, 116.441 266.813 C 115.904 265.123, 117.621 261.159, 119.500 259.750 C 120.128 259.279, 119.953 258.649, 119.029 258.054 C 116.023 256.122, 121.464 254.792, 125.390 256.499 C 129.048 258.090, 125.668 254.175, 120.620 250.974 C 116.301 248.235, 115.873 247.640, 116.481 245.210 C 116.854 243.719, 117.808 242.135, 118.601 241.689 C 119.393 241.242, 119.777 240.447, 119.452 239.922 C 119.127 239.397, 118.443 239.226, 117.931 239.543 C 117.419 239.859, 116.997 239.529, 116.994 238.809 C 116.990 238.089, 116.343 236.265, 115.556 234.755 C 114.768 233.246, 113.816 229.871, 113.440 227.255 C 113.063 224.640, 112.189 221.825, 111.496 221 C 108.972 217.994, 108.789 215.105, 110.932 212.095 C 112.070 210.498, 113 208.923, 113 208.596 C 113 208.268, 111.255 208, 109.122 208 C 106.990 208, 104.798 207.437, 104.253 206.750 C 102.440 204.466, 101.589 198.137, 100.586 179.500 C 100.260 173.433, 100.528 170.922, 101.694 169.108 C 103.654 166.060, 103.583 160.028, 101.541 156.079 C 100.309 153.697, 99.995 150.252, 100.134 140.664 C 100.233 133.873, 100.014 127.832, 99.648 127.239 C 99.281 126.646, 99.661 125.482, 100.491 124.652 C 101.321 123.822, 102 121.719, 102 119.978 C 102 117.654, 102.531 116.674, 104 116.290 C 105.322 115.944, 106 114.926, 106 113.288 C 106 111.924, 106.739 109.557, 107.642 108.028 C 109.231 105.338, 109.178 105.057, 106.015 99.374 C 99.634 87.910, 98.641 85.438, 98.236 80 C 97.688 72.659, 99.137 69, 102.592 69 C 104.968 69, 105.166 69.276, 104.566 71.750 C 102.589 79.895, 102.882 84.411, 105.716 89.500 C 107.487 92.681, 109.675 95.046, 111.728 96 C 113.504 96.825, 114.966 98.063, 114.978 98.750 C 114.990 99.438, 115.852 100, 116.893 100 C 117.934 100, 119.013 100.563, 119.291 101.250 C 120.458 104.143, 136.556 110, 143.338 110 C 145.368 110, 147 110.498, 147 111.117 C 147 111.731, 145.274 113.909, 143.164 115.957 L 139.328 119.680 141.771 122.521 C 143.732 124.800, 144.114 126.116, 143.703 129.181 C 143.264 132.449, 143.465 133, 145.095 133 C 146.808 133, 147 133.799, 147 140.929 C 147 146.196, 146.553 149.304, 145.669 150.188 C 144.304 151.554, 143.270 156.929, 142.339 167.500 C 142.048 170.800, 141.207 174.625, 140.471 176 C 139.734 177.375, 138.868 179.738, 138.547 181.250 C 138.225 182.763, 137.295 184, 136.481 184 C 134.469 184, 134.620 185.248, 137 188.273 C 139.122 190.970, 139.669 195.469, 138 196.500 C 137.450 196.840, 137 198.216, 137 199.559 C 137 200.979, 136.417 202, 135.607 202 C 133.911 202, 132.713 204.704, 134.044 205.527 C 135.721 206.563, 135.078 209.013, 132.435 211.656 C 129.872 214.219, 129.871 214.222, 131.935 215.667 C 134.080 217.170, 134.743 221.423, 133 222.500 C 132.450 222.840, 132 223.782, 132 224.593 C 132 225.404, 130.704 227.335, 129.119 228.883 C 127.093 230.864, 126.121 232.930, 125.843 235.850 C 125.625 238.132, 125.797 240, 126.224 240 C 126.651 240, 127 240.875, 127 241.943 C 127 243.016, 128.267 244.635, 129.826 245.556 C 132.441 247.101, 132.637 247.645, 132.456 252.846 C 132.336 256.276, 132.802 259.295, 133.652 260.592 C 134.419 261.762, 134.762 263.457, 134.416 264.359 C 133.929 265.628, 134.434 266.034, 136.643 266.148 C 138.214 266.229, 140.400 266.342, 141.500 266.398 C 142.758 266.462, 143.448 267.149, 143.361 268.250 C 143.194 270.354, 143.357 270.373, 146.800 268.643 C 150.940 266.562, 155.768 265.883, 156.430 267.289 C 156.871 268.225, 157.132 268.216, 157.583 267.250 C 157.904 266.562, 158.804 266, 159.583 266 C 160.363 266, 161 265.467, 161 264.816 C 161 261.884, 165.225 255.160, 167.412 254.611 C 169.214 254.159, 169.887 253.107, 170.392 249.953 C 170.750 247.712, 170.770 245.437, 170.436 244.897 C 169.897 244.024, 171.541 237.956, 174.177 231.091 C 174.729 229.654, 174.736 228.443, 174.196 228.091 C 173.697 227.766, 173.046 225.287, 172.748 222.583 C 172.366 219.103, 171.564 217.180, 170.005 216.004 C 167.942 214.448, 167.824 213.695, 168.151 204.181 C 168.517 193.538, 168.313 193, 163.918 193 C 161.838 193, 161.367 191.033, 163.046 189.354 C 163.774 188.626, 163.525 186.817, 162.226 183.404 C 160.597 179.123, 160.386 175.915, 160.564 158.166 C 160.699 144.797, 161.151 137.449, 161.884 136.716 C 162.498 136.102, 163 134.868, 163 133.974 C 163 132.130, 167.019 128, 168.814 128 C 170.631 128, 170.224 124.874, 168.108 122.564 C 167.067 121.429, 165.915 119.076, 165.548 117.337 C 165.010 114.791, 165.233 114.075, 166.690 113.668 C 169.669 112.838, 180.285 111.634, 183.464 111.766 C 185.095 111.834, 187.001 111.414, 187.702 110.833 C 188.402 110.252, 189.661 110.040, 190.499 110.361 C 191.338 110.683, 193.256 110.452, 194.762 109.849 C 196.268 109.245, 198.625 108.294, 200 107.735 C 206.082 105.264, 209.051 103.414, 209.573 101.769 C 209.882 100.796, 210.503 100, 210.953 100 C 212.828 100, 215.109 92.651, 215.228 86.225 C 215.375 78.283, 214.176 75.843, 206.599 68.677 C 201.336 63.698, 193.927 59.325, 188.250 57.847 C 186.463 57.381, 183.313 56.532, 181.250 55.959 C 179.188 55.386, 174.635 54.523, 171.132 54.041 C 162.943 52.914, 161.839 51.837, 165.205 48.257 C 168.674 44.566, 171.992 38.918, 171.996 36.695 C 172.001 34.308, 164.913 23.946, 161.054 20.699 C 159.374 19.285, 158 17.488, 158 16.704 C 158 15.706, 156.285 15.103, 152.266 14.688 C 149.112 14.363, 146.375 13.625, 146.183 13.048 C 145.991 12.472, 144.746 12, 143.417 12 C 142.088 12, 141 11.660, 141 11.244 C 141 10.828, 139.612 9.874, 137.915 9.122 C 135.541 8.072, 134.259 8.017, 132.357 8.883 C 130.530 9.716, 129.340 9.717, 127.790 8.888 C 125.597 7.714, 108.535 6.440, 81.523 5.433 C 72.735 5.105, 65.212 4.631, 64.805 4.380 C 64.398 4.128, 63.492 4.840, 62.792 5.961 M 68.500 96 C 68.840 96.550, 69.316 97, 69.559 97 C 69.802 97, 70 96.550, 70 96 C 70 95.450, 69.523 95, 68.941 95 C 68.359 95, 68.160 95.450, 68.500 96" fill="none" stroke="#000" stroke-width="2px" fill-rule="evenodd"/>
</svg>
