<svg xmlns="http://www.w3.org/2000/svg" width="252" height="200" viewBox="0 0 252 200" version="1.1">
	<path d="M 35 6.539 C 30.875 7.898, 26.375 9.505, 25 10.111 C 19.339 12.605, 14 15.497, 14 16.069 C 14 16.404, 12.897 17.182, 11.548 17.796 C 8.660 19.112, 6.340 23.253, 4.508 30.363 C 1.749 41.067, 2.842 98.694, 5.873 102.346 C 6.527 103.135, 9.411 104.786, 12.281 106.015 C 15.152 107.243, 18.625 109.033, 20 109.992 C 21.375 110.952, 25.086 112.053, 28.247 112.440 C 33.700 113.107, 34.372 112.935, 41.370 109.072 C 45.427 106.832, 49.712 105, 50.891 105 C 52.748 105, 64.485 102.081, 70.500 100.124 C 73.672 99.091, 80.803 95.128, 81.491 94.014 C 81.836 93.456, 83.431 93, 85.036 93 C 89.394 93, 91.044 96.197, 89.997 102.618 C 89.192 107.551, 84.018 119.253, 82.123 120.424 C 81.616 120.737, 80.683 123.155, 80.049 125.796 C 78.656 131.604, 79.682 135.006, 84.258 139.750 C 86.878 142.467, 88.127 143, 91.875 143 C 100.522 143, 108.239 139.546, 115.559 132.400 C 119.560 128.493, 121.774 127.132, 124.952 126.624 C 129.274 125.933, 135.375 127.928, 136.298 130.335 C 136.879 131.847, 135.189 143.873, 134.027 146.500 C 130.945 153.470, 126 175.461, 126 182.201 C 126 185.317, 126.773 187.085, 129.555 190.335 C 131.510 192.620, 134.098 195.038, 135.305 195.709 C 137.957 197.183, 148.633 197.402, 149.500 196 C 149.840 195.450, 151.160 195, 152.435 195 C 153.709 195, 157.395 193.763, 160.626 192.250 C 166.274 189.606, 167.061 189.508, 181.053 189.699 C 194.938 189.890, 195.897 190.036, 201.941 192.895 C 209.973 196.693, 217.633 197.772, 221.611 195.665 C 223.200 194.824, 227.894 190.617, 232.042 186.318 C 242.912 175.049, 246.832 166.233, 248.478 149.347 C 249.242 141.506, 247.835 135.961, 242.183 124.541 C 235.403 110.841, 230.840 105.574, 221.325 100.458 C 217.571 98.440, 213.898 96.298, 213.162 95.699 C 211.011 93.947, 202.059 91.074, 196.567 90.374 C 191.024 89.667, 186 87.544, 186 85.909 C 186 85.337, 186.407 84.108, 186.904 83.179 C 187.776 81.550, 187.454 78.715, 184.812 64.743 C 184.085 60.897, 182.275 56.780, 179.362 52.344 C 176.963 48.692, 175 45.405, 175 45.041 C 175 44.231, 167.754 37.733, 161.633 33.055 C 155.769 28.573, 150.618 27.046, 139 26.345 C 121.800 25.307, 110.566 28.362, 102.711 36.212 C 99.635 39.287, 95.728 38.489, 92.167 34.059 C 90.425 31.891, 89 29.875, 89 29.578 C 89 29.281, 87.429 26.583, 85.509 23.582 C 81.811 17.801, 71.943 9, 69.158 8.999 C 68.246 8.999, 65.250 8.159, 62.500 7.131 C 59.750 6.104, 54.125 4.995, 50 4.667 C 43.668 4.162, 41.332 4.454, 35 6.539" fill="none" stroke="#000" stroke-width="2px" fill-rule="evenodd"/>
</svg>
