<svg xmlns="http://www.w3.org/2000/svg" width="251" height="274" viewBox="0 0 251 274" version="1.1">
	<path d="M 92.748 3.427 C 84.139 6.499, 74.658 16.387, 62.958 34.497 C 61.893 36.145, 61.235 38.170, 61.495 38.997 C 61.788 39.930, 60.551 41.448, 58.234 43 C 56.180 44.375, 52.414 47.426, 49.864 49.780 L 45.229 54.060 40.167 50.913 C 37.232 49.089, 33.187 47.550, 30.543 47.252 L 25.982 46.738 18.007 55.119 C 8.803 64.793, 4.161 73.042, 3.316 81.225 C 2.771 86.508, 2.884 86.878, 5.581 88.643 C 7.649 89.995, 10.273 90.499, 15.237 90.495 L 22.055 90.489 22.652 94.224 C 23.630 100.339, 25.069 101.527, 31.248 101.315 L 36.652 101.130 40.430 111.815 C 46.889 130.082, 55.731 149.451, 77.161 192.277 C 77.650 193.254, 78.923 196.269, 79.991 198.976 L 81.931 203.900 78.713 203.488 C 76.944 203.261, 74.822 203.502, 73.998 204.023 C 72.902 204.716, 73.523 204.973, 76.316 204.985 C 80.200 205, 84 206.426, 84 207.867 C 84 208.306, 81.412 208.544, 78.250 208.396 C 75.088 208.249, 73.625 208.335, 75 208.588 C 84.748 210.379, 85.697 210.965, 88.348 216.824 C 89.746 219.915, 90.797 222.536, 90.684 222.649 C 90.570 222.763, 86.208 223.583, 80.989 224.473 C 65.417 227.127, 40.776 233.084, 36.624 235.197 C 31.996 237.552, 28 241.633, 28 244.004 C 28 245.968, 37.624 252.251, 44.173 254.561 C 60.479 260.314, 79.473 263.014, 108.500 263.704 C 142.890 264.521, 175.353 261.699, 197.500 255.965 C 210.191 252.679, 218 249.484, 218 247.576 C 218 246.844, 218.675 245.685, 219.500 245 C 223.456 241.716, 218.561 237.995, 203.865 233.113 C 194.760 230.088, 190.143 227.196, 191.336 225.265 C 192.555 223.294, 190.372 221.908, 187.667 222.936 C 185.089 223.917, 183.718 222.684, 186.250 221.662 C 187.020 221.352, 186.850 221.128, 185.809 221.079 C 184.879 221.036, 183.840 221.450, 183.500 222 C 183.160 222.550, 181.939 223, 180.786 223 C 178.717 223, 178.714 222.972, 180.595 220.828 C 181.643 219.634, 181.881 219.020, 181.124 219.465 C 179.425 220.464, 179.953 219.543, 185.792 211.330 C 190.067 205.317, 190.162 205.256, 199.500 202.458 C 200.050 202.293, 198.925 202.115, 197 202.064 C 194.679 202.001, 193.950 201.684, 194.835 201.123 C 195.570 200.657, 196.162 199.877, 196.151 199.388 C 196.140 198.900, 197.114 197.906, 198.316 197.181 C 200.362 195.945, 199.166 196.122, 195.540 197.592 C 194.397 198.055, 194.146 197.435, 194.388 194.742 C 194.558 192.848, 195.044 190.737, 195.469 190.050 C 196.075 189.070, 195.782 189.047, 194.112 189.940 C 192.595 190.752, 192.135 191.716, 192.513 193.290 C 193.046 195.509, 189.426 202.760, 188.332 201.665 C 188.024 201.357, 188.775 199.483, 190 197.500 C 191.225 195.517, 191.975 193.642, 191.665 193.332 C 191.045 192.712, 185 201.808, 185 203.362 C 185 203.896, 184.770 204.104, 184.489 203.823 C 184.208 203.542, 184.658 201.385, 185.489 199.030 C 186.320 196.675, 187 194.321, 187 193.798 C 187 192.695, 182.614 197.775, 181.644 200 C 181.285 200.825, 181.155 200.262, 181.357 198.750 C 181.558 197.238, 181.265 196, 180.706 196 C 180.147 196, 180.505 195.100, 181.500 194 C 182.495 192.900, 182.817 192, 182.214 192 C 181.611 192, 180.810 192.498, 180.434 193.107 C 179.956 193.881, 179.458 193.805, 178.781 192.857 C 178.015 191.785, 177.917 191.834, 178.313 193.091 C 178.589 193.966, 178.469 195.241, 178.046 195.925 C 177.506 196.800, 177.116 196.550, 176.732 195.083 C 176.318 193.501, 177.313 191.998, 180.843 188.867 L 185.500 184.739 181.693 186.869 C 176.954 189.521, 176.853 189.516, 177.930 186.685 C 178.414 185.412, 179.064 181.699, 179.375 178.435 L 179.939 172.500 178.547 176.500 C 177.781 178.700, 177.119 181.317, 177.077 182.316 C 177.035 183.314, 176.519 185.031, 175.930 186.130 C 175.114 187.656, 174.544 187.867, 173.526 187.021 C 172.425 186.108, 172.365 186.602, 173.188 189.841 C 173.987 192.990, 173.858 194.338, 172.535 196.635 C 170.881 199.507, 170.894 197.648, 172.556 193.586 C 173.109 192.237, 172.994 191.885, 172.170 192.395 C 171.526 192.793, 171 193.815, 171 194.666 C 171 195.532, 170.422 195.992, 169.688 195.711 C 168.748 195.350, 168.492 195.993, 168.785 197.985 C 169.421 202.320, 167.430 202.378, 166.137 198.063 C 165.330 195.368, 165.284 193.384, 165.985 191.538 C 166.650 189.792, 166.653 189.096, 165.997 189.502 C 164.586 190.374, 164.585 190.376, 168.898 178.886 C 172.560 169.130, 174.674 162.470, 178.467 148.750 C 179.836 143.797, 180.387 143, 182.446 143 C 186.108 143, 188 141.969, 188 139.975 C 188 136.142, 189.147 135, 192.996 135 C 195.212 135, 197.743 134.219, 199.108 133.114 L 201.437 131.228 199.723 125.789 C 198.369 121.494, 196.590 118.945, 191.267 113.675 C 187.560 110.004, 183.762 107, 182.828 107 C 180.164 107, 175.702 108.944, 173.384 111.115 C 171.272 113.094, 171.264 113.093, 168.384 110.755 C 166.798 109.468, 164.262 107.636, 162.750 106.684 C 161.238 105.732, 160 104.397, 160 103.715 C 160 103.034, 156.626 98.810, 152.503 94.329 C 142.049 82.968, 134.401 79.574, 128.885 83.848 C 127.573 84.864, 125.150 86.014, 123.500 86.405 C 118.846 87.506, 110.313 93.586, 106.998 98.162 C 105.349 100.438, 104 102.701, 104 103.192 C 104 106.947, 113.812 110.614, 126.426 111.573 C 130.235 111.863, 133.723 112.329, 134.176 112.609 C 134.629 112.889, 135 114.557, 135 116.316 C 135 118.074, 135.459 121.085, 136.020 123.007 C 138.149 130.295, 140.057 154.908, 139.916 173.278 C 139.788 190.114, 139.613 191.924, 138.223 190.778 C 136.858 189.653, 136.813 189.764, 137.849 191.708 C 138.858 193.602, 138.725 194.077, 136.919 195.043 C 134.881 196.134, 134.832 196.014, 135.404 191.335 L 135.995 186.500 133.020 189.935 C 131.384 191.825, 129.247 195.311, 128.272 197.682 C 125.720 203.890, 124.763 203.002, 127 196.500 C 128.041 193.475, 128.467 191, 127.946 191 C 127.426 191, 127 191.648, 127 192.441 C 127 193.234, 126.555 194.157, 126.011 194.493 C 125.418 194.860, 125.293 194.384, 125.699 193.302 C 126.284 191.742, 126.156 191.678, 124.747 192.823 C 123.851 193.551, 123.355 194.761, 123.643 195.512 C 123.931 196.264, 123.652 197.693, 123.023 198.689 C 122.029 200.262, 121.934 200.138, 122.300 197.750 C 122.533 196.238, 122.325 195, 121.838 195 C 121.352 195, 121.734 193.762, 122.688 192.250 L 124.422 189.500 122.232 191.386 C 120.202 193.134, 119.994 193.147, 119.388 191.570 C 118.934 190.386, 119.767 188.985, 122.117 186.974 C 125.948 183.698, 125.227 182.990, 121.073 185.948 L 118.337 187.896 118.590 179.698 C 118.729 175.189, 118.637 172.850, 118.385 174.500 C 116.593 186.230, 115.006 190.408, 113.731 186.750 C 113.492 186.063, 113.342 186.918, 113.398 188.652 C 113.454 190.385, 113.838 191.596, 114.250 191.343 C 115.438 190.613, 115.041 193.227, 113.467 196.500 L 112.025 199.500 112.628 196 L 113.231 192.500 111.233 194.768 L 109.234 197.036 107.060 185.768 C 105.864 179.571, 103.530 160.775, 101.871 144 C 99.127 116.239, 98.901 111.210, 99.358 88 C 99.849 63.073, 100.594 48.073, 101.381 47.285 C 101.597 47.069, 102.837 46.867, 104.137 46.836 C 107.665 46.750, 122.993 44.050, 127 42.808 C 135.406 40.202, 142.944 36.693, 142.974 35.372 C 142.988 34.752, 143.629 33.723, 144.397 33.086 C 150.476 28.041, 128.298 9.124, 114.244 7.367 C 111.635 7.041, 107.822 5.700, 105.771 4.387 C 101.587 1.708, 98.252 1.463, 92.748 3.427 M 85 75.840 C 81.975 76.577, 79.358 77.319, 79.184 77.489 C 78.867 77.800, 90.742 132.074, 91.236 132.570 C 91.536 132.872, 91.075 83.358, 90.727 78 L 90.500 74.500 85 75.840 M 69 85.945 C 64.476 90.524, 57.039 94.736, 49.158 97.182 C 45.361 98.361, 44.974 98.764, 45.490 101 C 47.790 110.956, 56.858 131.482, 73.563 164.545 L 92.786 202.591 93.275 197.045 C 93.693 192.311, 93.416 191.035, 91.382 188.317 C 88.448 184.395, 88.298 183.055, 91.075 185.568 C 93.126 187.424, 93.144 187.417, 92.634 184.973 C 91.872 181.325, 90.192 170.607, 88.954 161.500 C 86.989 147.051, 74.514 81.726, 73.665 81.445 C 73.574 81.415, 71.475 83.440, 69 85.945 M 142.989 130.205 C 142.970 132.324, 145.067 156.133, 145.701 161 C 146.179 164.666, 146.702 162.257, 148.528 148 C 149.761 138.375, 150.708 130.447, 150.634 130.383 C 150.561 130.318, 148.813 129.960, 146.750 129.587 C 144 129.090, 142.997 129.255, 142.989 130.205 M 153.999 134.250 C 153.998 134.938, 153.099 144.050, 152 154.500 C 149.306 180.121, 149.352 183.043, 152.500 186 C 154.239 187.634, 155.005 187.915, 155.015 186.924 C 155.028 185.726, 155.179 185.734, 155.963 186.974 C 156.547 187.898, 156.529 188.673, 155.913 189.054 C 155.374 189.387, 155.226 190.426, 155.586 191.363 C 156.089 192.675, 156.775 192.006, 158.577 188.446 C 163.866 177.999, 171.833 155.295, 173.536 145.815 C 174.194 142.152, 174.173 142.124, 169.855 140.961 C 164.511 139.522, 158.802 136.672, 157.061 134.573 C 155.493 132.684, 154 132.527, 153.999 134.250 M 136 185.378 C 136 185.585, 136.685 186.324, 137.523 187.019 C 138.796 188.076, 138.943 188.014, 138.416 186.641 C 137.878 185.240, 136 184.257, 136 185.378 M 149 192.918 C 149 196.723, 148.727 200.548, 148.393 201.418 C 147.989 202.471, 148.344 203, 149.452 203 C 150.368 203, 150.859 203.419, 150.543 203.931 C 150.226 204.443, 150.338 205.091, 150.790 205.370 C 151.242 205.650, 151.688 203.181, 151.781 199.884 C 151.874 196.587, 152.230 193.438, 152.571 192.885 C 153.326 191.664, 151.110 186, 149.879 186 C 149.395 186, 149 189.113, 149 192.918 M 131.679 194.546 C 129.738 198.617, 129.673 199, 130.922 199 C 131.903 199, 134.491 192.157, 133.779 191.446 C 133.548 191.214, 132.603 192.610, 131.679 194.546 M 117.728 194.066 C 118.080 195.414, 118.608 195.792, 119.247 195.153 C 120.282 194.118, 119.468 192, 118.035 192 C 117.569 192, 117.430 192.930, 117.728 194.066 M 153.671 196.148 C 153.338 197.423, 153.441 198.841, 153.899 199.299 C 154.985 200.385, 155.979 196.584, 155.016 195.026 C 154.530 194.239, 154.070 194.623, 153.671 196.148 M 182.500 195 C 182.160 195.550, 182.332 196, 182.882 196 C 183.432 196, 184.160 195.550, 184.500 195 C 184.840 194.450, 184.668 194, 184.118 194 C 183.568 194, 182.840 194.450, 182.500 195 M 137.875 195.500 C 137.806 195.775, 137.694 196.466, 137.625 197.036 C 137.556 197.607, 136.825 198.500, 136 199.021 C 134.781 199.792, 134.899 199.972, 136.633 199.985 C 138.121 199.995, 138.912 199.243, 139.245 197.500 C 139.508 196.125, 139.335 195, 138.861 195 C 138.388 195, 137.944 195.225, 137.875 195.500 M 95.100 198.691 C 95.045 200.446, 95.450 202.160, 96 202.500 C 97.150 203.211, 97.150 201.591, 96 198 C 95.235 195.613, 95.195 195.644, 95.100 198.691 M 115.624 199.539 C 114.659 202.053, 114.943 202.702, 116.122 200.675 C 116.706 199.671, 116.973 198.639, 116.715 198.382 C 116.458 198.124, 115.966 198.645, 115.624 199.539 M 118.933 199.750 C 118.665 202.720, 117.938 207.910, 117.497 210 C 116.990 212.401, 117.029 212.423, 118.485 210.559 C 119.318 209.491, 120.031 207.691, 120.069 206.559 C 120.107 205.426, 120.301 203.262, 120.501 201.750 C 120.700 200.238, 120.444 199, 119.932 199 C 119.419 199, 118.970 199.338, 118.933 199.750 M 173.731 200.920 C 173.296 202.583, 173.426 202.974, 174.168 202.232 C 174.750 201.650, 175.028 200.585, 174.788 199.863 C 174.538 199.114, 174.085 199.568, 173.731 200.920 M 177.790 201 C 176.572 203.984, 174.922 212.256, 175.442 212.775 C 176.472 213.806, 179.107 205.758, 178.757 202.649 C 178.536 200.683, 178.172 200.063, 177.790 201 M 132.173 203.872 C 131.269 204.445, 132.049 204.909, 134.620 205.326 C 138.712 205.990, 139.561 205.717, 138.541 204.067 C 137.758 202.799, 134.044 202.685, 132.173 203.872 M 165 206 C 165 206.550, 165.450 207, 166 207 C 166.550 207, 167 206.550, 167 206 C 167 205.450, 166.550 205, 166 205 C 165.450 205, 165 205.450, 165 206 M 127.465 210.469 C 123.811 216.705, 124.648 218.783, 130.749 218.618 C 134.687 218.512, 135.649 218.088, 136.708 215.996 C 137.402 214.623, 137.977 212.090, 137.985 210.367 C 137.997 207.956, 137.481 207.094, 135.750 206.630 C 131.321 205.443, 130.071 206.022, 127.465 210.469 M 147.134 210.391 C 147.483 210.782, 146.902 213.385, 145.842 216.175 C 143.698 221.815, 143.985 223.479, 146.451 219.714 C 148.509 216.574, 149.208 211.230, 147.676 210.353 C 147.029 209.982, 146.786 210, 147.134 210.391" fill="none" stroke="#000" stroke-width="2px" fill-rule="evenodd"/>
</svg>
