<svg xmlns="http://www.w3.org/2000/svg" width="265" height="226" viewBox="0 0 265 226" version="1.1">
	<path d="M 128.808 3.428 C 126.778 4.141, 123.628 5.945, 121.808 7.437 C 118.517 10.135, 117.609 11.273, 113.177 18.253 C 110.415 22.605, 108.452 23.412, 100.500 23.470 C 96.926 23.496, 93.085 24.210, 91 25.236 C 86.885 27.261, 72.196 31.998, 70.012 32.004 C 67.600 32.011, 55.664 36.421, 52.992 38.293 C 51.652 39.232, 49.634 40, 48.509 40 C 47.384 40, 43.573 42.683, 40.040 45.963 C 36.507 49.242, 32.357 52.202, 30.817 52.540 C 27.357 53.300, 22.282 59.274, 20.968 64.134 C 20.428 66.132, 19.310 68.328, 18.484 69.013 C 17.658 69.699, 16.698 72.114, 16.351 74.380 C 15.847 77.663, 14.537 79.675, 9.898 84.285 C 3.317 90.825, 1.850 94.875, 4.326 99.663 C 5.152 101.261, 6.152 104.292, 6.547 106.397 C 7.575 111.876, 11.825 118, 14.601 118 C 15.836 118, 18.259 119.189, 19.985 120.641 C 22.594 122.836, 23.071 123.882, 22.812 126.835 C 22.513 130.236, 22.755 130.530, 28.500 133.757 C 31.800 135.610, 36.300 138.845, 38.500 140.946 C 44.663 146.832, 46.383 147.413, 58 147.533 C 69.822 147.655, 72.535 148.263, 74.073 151.137 C 75.621 154.030, 74.171 165.888, 71.870 169.154 C 70.842 170.614, 69.970 172.189, 69.934 172.654 C 69.897 173.119, 68.332 175.525, 66.455 178 C 62.189 183.627, 60.118 187.995, 58.422 194.937 L 57.093 200.374 61.104 208.082 C 63.309 212.322, 66.819 217.638, 68.903 219.895 C 73.720 225.112, 78.650 225.597, 82.672 221.250 C 85.309 218.399, 93.615 205.301, 99.952 194 C 101.956 190.425, 105.262 185.087, 107.298 182.138 C 109.334 179.189, 111 176.351, 111 175.833 C 111 174.909, 112.898 170.479, 117.571 160.495 C 118.859 157.743, 121.734 153.713, 123.960 151.539 L 128.007 147.587 139.366 146.967 C 149.693 146.403, 151.238 146.056, 156.376 143.157 C 159.484 141.403, 164.609 139.303, 167.764 138.491 C 172.781 137.200, 174.382 136.105, 180.533 129.758 C 184.401 125.766, 188.226 121.470, 189.033 120.211 C 190.712 117.591, 197.934 115.639, 210 114.546 C 221.837 113.473, 231.692 110.300, 238 105.532 C 241.025 103.245, 245.211 100.339, 247.303 99.073 C 249.395 97.807, 253.332 93.831, 256.053 90.237 C 261.575 82.943, 262.441 78.678, 259 75.732 C 257.857 74.753, 257 72.782, 257 71.132 C 257 69.544, 256.325 66.629, 255.500 64.654 C 254.675 62.680, 254 58.617, 254 55.626 C 254 50.253, 253.938 50.141, 248.894 46.344 C 242.361 41.426, 226.902 32.101, 225.187 32.044 C 224.465 32.020, 221.090 30.670, 217.687 29.045 C 214.284 27.420, 207.450 24.966, 202.500 23.593 C 181.224 17.689, 173.318 15.275, 170.500 13.820 C 168.850 12.969, 164.670 12.027, 161.212 11.727 C 155.891 11.266, 154.122 10.579, 149.712 7.255 C 145.437 4.033, 143.422 3.220, 138.500 2.730 C 134.662 2.347, 131.169 2.599, 128.808 3.428" fill="none" stroke="#000" stroke-width="2px" fill-rule="evenodd"/>
</svg>
