<svg xmlns="http://www.w3.org/2000/svg" width="234" height="298" viewBox="0 0 234 298" version="1.1">
	<path d="M 119.407 7.103 C 117.727 8.959, 116.856 9.120, 112.002 8.471 C 100.579 6.945, 94.895 7.443, 88.500 10.531 C 85.200 12.125, 81.686 13.299, 80.690 13.141 C 79.695 12.983, 78.345 13.278, 77.690 13.796 C 77.036 14.314, 74.352 14.968, 71.727 15.249 C 65.867 15.876, 60.174 19.632, 55.562 25.915 C 51.709 31.164, 45.943 36.025, 41.380 37.872 C 38.179 39.168, 36 42.516, 36 46.139 C 36 48.218, 33.121 52.604, 29.500 56.043 C 28.400 57.088, 25.627 59.663, 23.338 61.766 C 20.117 64.725, 18.806 66.936, 17.545 71.545 C 16.648 74.820, 15.475 78.175, 14.937 79 C 12.291 83.061, 10.934 87.424, 11.506 90.030 C 11.958 92.087, 11.452 93.888, 9.638 96.676 C 6.198 101.962, 4.609 108.440, 5.868 112.050 C 6.927 115.088, 6.072 119.866, 3.436 125.651 C 1.600 129.680, 1.630 131.222, 3.633 135.782 C 4.614 138.016, 5.203 141.785, 5.108 145.225 C 4.979 149.857, 5.354 151.354, 7.070 153.070 C 9.005 155.005, 9.873 155.131, 16.941 154.505 C 24.469 153.839, 24.896 153.922, 31.842 157.421 C 35.775 159.401, 40.232 161.099, 41.747 161.192 C 43.261 161.286, 45.046 161.773, 45.714 162.274 C 46.381 162.775, 51.781 163.203, 57.714 163.225 C 63.646 163.247, 69.251 163.651, 70.169 164.124 C 71.087 164.597, 72.149 166.450, 72.531 168.242 C 72.912 170.034, 74.098 174.059, 75.168 177.186 C 76.868 182.161, 76.971 183.661, 75.989 189.186 C 73.698 202.082, 67.762 223.403, 65.900 225.426 C 65.389 225.982, 64.237 225.620, 63.024 224.521 C 61.038 222.724, 61 222.742, 61 225.507 C 61 227.057, 61.716 230.614, 62.590 233.412 L 64.181 238.500 60.090 250.651 C 55.290 264.910, 54.952 270.208, 58.374 277.556 C 64.793 291.342, 81.546 296.451, 107.691 292.598 C 133.307 288.822, 148.826 282.887, 153.353 275.135 C 158.009 267.162, 156.352 247.996, 149.911 235.326 C 147.760 231.094, 146 227.081, 146 226.408 C 146 225.735, 144.850 222.969, 143.445 220.260 C 139.885 213.397, 139.479 206.751, 141.473 187.969 C 143.115 172.501, 143.359 171.479, 146.416 167.266 C 149.424 163.120, 149.984 162.805, 155.066 162.390 C 158.055 162.145, 161.850 161.758, 163.500 161.528 C 174.680 159.970, 185.901 159.071, 188.158 159.552 C 189.620 159.864, 194.570 159.239, 199.158 158.164 C 203.746 157.089, 209.525 155.884, 212 155.486 C 221.218 154.006, 225.781 149.828, 226.886 141.860 C 227.294 138.912, 228.247 135.525, 229.002 134.334 C 230.153 132.519, 230.161 131.519, 229.050 128.152 C 228.097 125.264, 227.875 120.536, 228.258 111.318 C 228.758 99.297, 228.650 98.251, 226.517 94.500 C 223.770 89.669, 222.734 85.305, 222.601 78 C 222.516 73.390, 221.934 71.718, 219 67.665 C 211.827 57.756, 210 54.525, 210 51.749 C 210 47.522, 207.518 43.483, 203.328 40.894 C 198.071 37.644, 193 33.025, 193 31.485 C 193 30.007, 187.418 25, 185.770 25 C 185.177 25, 182.975 23.139, 180.875 20.865 C 177.364 17.062, 176.740 16.772, 173.117 17.257 C 169.129 17.792, 163 15.243, 163 13.050 C 163 11.146, 159.137 9.857, 156.945 11.030 C 155.218 11.954, 154.568 11.720, 152.872 9.565 C 150.621 6.703, 147.487 6.317, 144.549 8.539 C 142.203 10.313, 137.002 9.582, 132.520 6.849 C 128.321 4.289, 121.840 4.414, 119.407 7.103" fill="none" stroke="#000" stroke-width="2px" fill-rule="evenodd"/>
</svg>
