<?xml version="1.0" encoding="utf-8"?>
<!-- Generator: Adobe Illustrator 17.0.0, SVG Export Plug-In . SVG Version: 6.00 Build 0)  -->
<!DOCTYPE svg PUBLIC "-//W3C//DTD SVG 1.1//EN" "http://www.w3.org/Graphics/SVG/1.1/DTD/svg11.dtd">
<svg version="1.1" id="Слой_1" xmlns="http://www.w3.org/2000/svg" xmlns:xlink="http://www.w3.org/1999/xlink" x="0px" y="0px"
	 width="150px" height="150px" viewBox="0 0 150 150" enable-background="new 0 0 150 150" xml:space="preserve">
<g>
	<g>
		<polygon fill="#663312" points="123.839,45.753 76.684,54.339 76.411,54.395 76.411,97.403 101.137,122.473 101.641,122.368 
			147.38,113.305 148.93,69.046 149,68.032 		"/>
		<g>
			<polygon fill="#E73331" points="103.026,77.955 147.414,70.71 146.057,112.156 102.982,120.654 			"/>
			<polygon fill="#E0AB4D" points="108.785,82.684 141.347,77.37 141.347,107.915 109.845,113.799 			"/>
			<polygon fill="#F5D467" points="111.624,85.015 138.356,80.652 138.739,105.649 112.489,110.419 			"/>
			<g>
				<path fill="#E73331" d="M132.856,92.563l2.262,4.957c0.216,0.456,0.404,0.742,0.563,0.861c0.16,0.118,0.413,0.162,0.762,0.127
					c0.679-0.073,0.996,0.179,0.951,0.756c-0.053,0.678-0.512,1.273-1.375,1.785c-0.864,0.512-2.25,1.012-4.16,1.499
					c-2.157,0.549-3.749,0.869-4.776,0.958c-0.471,0.039-0.837-0.035-1.099-0.219c-0.261-0.184-0.378-0.457-0.35-0.818
					c0.022-0.279,0.113-0.515,0.273-0.706c0.161-0.191,0.445-0.403,0.857-0.636c0.461-0.263,0.705-0.571,0.733-0.925
					c0.049-0.622-0.309-0.891-1.074-0.806c-0.821,0.101-1.987,0.343-3.495,0.728c-1.27,0.324-2.035,0.592-2.294,0.803
					c-0.16,0.133-0.307,0.334-0.441,0.605c-0.133,0.271-0.21,0.518-0.227,0.741c-0.016,0.205,0.014,0.326,0.09,0.366
					c0.076,0.04,0.333,0.072,0.771,0.097c0.569,0.019,0.834,0.28,0.794,0.782c-0.087,1.107-1.491,2.006-4.212,2.7
					c-1.547,0.395-2.674,0.582-3.384,0.562c-0.653-0.026-0.954-0.367-0.902-1.028c0.023-0.289,0.115-0.53,0.275-0.726
					c0.161-0.195,0.437-0.408,0.829-0.635c0.637-0.372,1.131-0.792,1.481-1.26c0.35-0.467,0.871-1.408,1.562-2.824l2.359-4.824
					c0.869-1.77,1.461-3.08,1.776-3.93c0.315-0.85,0.507-1.653,0.575-2.408c0.073-0.802,0.167-1.371,0.283-1.704
					c0.115-0.335,0.341-0.691,0.68-1.069c0.71-0.818,1.576-1.359,2.597-1.618c0.964-0.247,1.857-0.114,2.677,0.396
					C129.363,85.842,130.908,88.313,132.856,92.563z M122.751,96.862l2.807-0.716c0.516-0.131,0.781-0.308,0.8-0.531
					c0.024-0.307-0.275-0.969-0.896-1.986c-0.281-0.466-0.5-0.77-0.658-0.912c-0.158-0.142-0.331-0.19-0.522-0.14
					c-0.344,0.087-0.655,0.472-0.933,1.153c-0.045,0.093-0.209,0.459-0.494,1.097c-0.476,1.05-0.721,1.669-0.736,1.854
					C122.101,96.914,122.312,96.974,122.751,96.862z"/>
				<path fill="#E84142" d="M116.497,104.74c0.199-0.197,0.378-0.402,0.538-0.615c0.342-0.457,0.768-1.189,1.319-2.274
					c-0.017,0.099-0.03,0.197-0.037,0.295c-0.078,0.984,0.362,1.523,0.714,1.794c-0.447,0.203-1.096,0.437-2.029,0.676
					C116.824,104.66,116.656,104.701,116.497,104.74z M128.699,101.582c0.308-0.444,0.419-0.889,0.448-1.249
					c0.073-0.925-0.282-1.52-0.593-1.856c-0.317-0.343-0.898-0.751-1.872-0.751c-0.137,0-0.285,0.008-0.442,0.025
					c-0.204,0.025-0.422,0.057-0.656,0.096l0.382-0.098c1.666-0.421,1.994-1.434,2.04-1.999c0.057-0.733-0.251-1.54-1.134-2.984
					c-0.38-0.628-0.668-1.012-0.96-1.276c-0.426-0.384-0.94-0.587-1.489-0.587c-0.187,0-0.375,0.024-0.56,0.072
					c-0.224,0.057-0.425,0.143-0.606,0.249c0.192-0.664,0.317-1.31,0.373-1.93c0.087-0.957,0.18-1.262,0.198-1.313
					c0.016-0.046,0.085-0.212,0.349-0.507c0.506-0.582,1.08-0.942,1.772-1.118c0.181-0.046,0.352-0.069,0.511-0.069
					c0.311,0,0.592,0.085,0.885,0.267c0.316,0.191,1.491,1.211,4.005,6.698l2.26,4.954c0.363,0.764,0.683,1.206,1.082,1.502
					c0.047,0.034,0.094,0.067,0.143,0.098c-0.589,0.291-1.615,0.685-3.387,1.137C130.386,101.215,129.467,101.427,128.699,101.582z
					 M120.568,97.336c0.082,0.232,0.21,0.447,0.381,0.632c0.345,0.373,0.831,0.586,1.375,0.603c-1.724,0.45-2.344,0.757-2.734,1.073
					c-0.098,0.081-0.19,0.168-0.278,0.262L120.568,97.336z"/>
			</g>
			<path fill="#E94547" d="M147.344,71.777l-42.729,6.972l-0.081,41.571l-1.55,0.331l0.042-42.696l44.39-7.243L147.344,71.777z"/>
		</g>
		<g>
			<polygon fill="#4F70B5" points="79.655,55.134 123.412,47.275 146.889,67.962 102.024,75.285 			"/>
			<polygon fill="#7D99CF" points="122.846,48.465 145.332,68.216 146.889,67.962 123.412,47.275 79.655,55.134 80.615,55.998 			
				"/>
			<polygon fill="#E0AB4D" points="91.543,58.312 121.707,51.862 136.313,65.343 105.258,71.58 			"/>
			<polygon fill="#F5D467" points="97.18,59.928 120.815,54.873 130.567,63.486 106.18,68.635 			"/>
			<g>
				<path fill="#4F70B5" d="M101.665,63.951l-0.681-0.958c-0.488-0.671-0.861-1.155-1.12-1.455
					c-0.246-0.264-0.409-0.456-0.492-0.576c-0.202-0.293-0.194-0.567,0.024-0.826c0.221-0.254,0.567-0.441,1.034-0.56
					c0.304-0.08,0.564-0.108,0.783-0.092c0.215,0.02,0.591,0.1,1.127,0.245c0.313,0.082,0.72,0.091,1.218,0.026
					c0.5-0.066,1.532-0.261,3.098-0.59c2.435-0.516,5.388-1.217,8.858-2.107c1.273-0.325,2.093-0.578,2.46-0.761
					c0.368-0.18,0.595-0.442,0.678-0.785c0.086-0.395,0.425-0.667,1.012-0.817c0.478-0.123,0.935-0.128,1.371-0.018
					c0.435,0.112,0.755,0.315,0.96,0.614c0.111,0.161,0.239,0.374,0.38,0.638c0.249,0.433,0.541,0.892,0.879,1.381
					c0.247,0.36,0.768,1.058,1.558,2.096c0.249,0.324,0.468,0.62,0.653,0.89c0.44,0.636,0.678,1.18,0.713,1.63
					c0.036,0.449-0.125,0.889-0.481,1.319c-0.58,0.701-1.625,1.244-3.139,1.631c-0.749,0.193-1.529,0.311-2.338,0.354
					c-0.807,0.044-1.505,0.002-2.091-0.123c-0.42-0.09-0.755-0.102-1.006-0.039c-0.272,0.07-0.431,0.228-0.476,0.477
					c-0.088,0.484-0.446,0.996-1.073,1.534c-0.653,0.556-1.644,1.005-2.972,1.344c-1.566,0.4-3.17,0.516-4.813,0.346
					c-2.166-0.231-3.7-0.997-4.6-2.298c-0.122-0.178-0.395-0.623-0.822-1.33C101.989,64.492,101.752,64.097,101.665,63.951z
					 M119.714,59.915l-3.363,0.86c-0.532,0.136-0.888,0.262-1.065,0.378c-0.176,0.115-0.213,0.247-0.11,0.395
					c0.246,0.354,0.672,0.553,1.283,0.593c0.611,0.041,1.442-0.073,2.498-0.344c1.024-0.26,1.756-0.551,2.196-0.866
					c0.443-0.315,0.553-0.631,0.335-0.947c-0.115-0.167-0.301-0.256-0.558-0.267C120.674,59.707,120.268,59.772,119.714,59.915z
					 M110.313,62.319l-1.548,0.398c-1.427,0.365-2.343,0.653-2.748,0.864c-0.405,0.212-0.511,0.455-0.32,0.733
					c0.503,0.728,1.722,0.845,3.66,0.349c2.414-0.619,3.342-1.334,2.78-2.149c-0.146-0.211-0.35-0.33-0.614-0.359
					C111.261,62.125,110.857,62.181,110.313,62.319z"/>
				<path fill="#859DD1" d="M109.246,67.189c-0.423,0-0.856-0.023-1.285-0.067c-1.674-0.179-2.792-0.7-3.41-1.594v0
					c0.487,0.548,1.338,1.09,2.806,1.09h0c0.695,0,1.483-0.115,2.41-0.353c2.406-0.618,3.613-1.366,4.038-2.502
					c0.137-0.367,0.178-0.746,0.125-1.119c0.368,0.461,1.008,0.965,2.09,1.116c-0.528,0.331-0.885,0.853-1.001,1.488
					c0,0,0-0.001,0-0.001c-0.003,0-0.091,0.204-0.522,0.574c-0.31,0.264-0.966,0.655-2.304,0.997
					C111.231,67.064,110.239,67.189,109.246,67.189z M103.785,64.284c-0.333-0.567-0.56-0.949-0.667-1.128l-0.065-0.11l-0.72-1.013
					c-0.201-0.277-0.383-0.523-0.548-0.74c0.039,0.01,0.08,0.021,0.123,0.033c0.327,0.086,0.674,0.127,1.047,0.127
					c0.255,0,0.531-0.019,0.82-0.057c0.566-0.075,1.619-0.275,3.223-0.611c2.469-0.523,5.472-1.238,8.929-2.123
					c1.843-0.471,2.457-0.719,2.786-0.883c0.669-0.327,1.166-0.85,1.426-1.494c0.093-0.02,0.18-0.03,0.262-0.03
					c0.08,0,0.155,0.009,0.23,0.028c0.019,0.005,0.034,0.009,0.046,0.014c0.056,0.087,0.136,0.22,0.24,0.414
					c0.296,0.516,0.617,1.02,0.978,1.541c0.003,0.004,0.006,0.009,0.009,0.013c-0.274-0.119-0.578-0.187-0.903-0.201l-0.126-0.002
					c-0.409,0-0.909,0.08-1.574,0.251l-3.36,0.86c-0.746,0.19-1.213,0.369-1.561,0.597c-0.469,0.308-0.782,0.759-0.881,1.271
					c-0.032,0.164-0.041,0.329-0.028,0.493c-0.421-0.584-1.047-0.946-1.77-1.024c-0.094-0.011-0.206-0.018-0.327-0.018
					c-0.402,0-0.868,0.071-1.467,0.223l-1.553,0.399c-2.06,0.527-2.739,0.81-3.1,0.998c-0.837,0.438-1.139,1.039-1.245,1.467
					c-0.099,0.4-0.072,0.813,0.076,1.2C103.966,64.583,103.853,64.397,103.785,64.284z M119.624,63.591
					c-0.305,0-0.585-0.017-0.835-0.05c0.188-0.042,0.381-0.088,0.582-0.14c1.23-0.313,2.131-0.681,2.749-1.125
					c0.907-0.645,1.199-1.474,1.115-2.214c0.084,0.11,0.171,0.225,0.263,0.346c0.234,0.304,0.435,0.575,0.604,0.822
					c0.357,0.515,0.418,0.767,0.427,0.815c-0.006,0.003-0.032,0.056-0.105,0.145c-0.196,0.237-0.753,0.693-2.273,1.082
					c-0.645,0.166-1.322,0.268-2.016,0.305C119.957,63.586,119.787,63.591,119.624,63.591z"/>
			</g>
		</g>
		<g>
			<polygon fill="#F28D29" points="77.81,96.805 77.81,57.236 100.209,77.415 100.147,119.591 			"/>
			<polygon fill="#F8AF65" points="78.842,59.619 100.26,78.913 100.209,77.415 77.81,57.236 77.81,96.805 78.842,97.792 			"/>
			<polygon fill="#E0AB4D" points="82.006,95.012 82.006,66.663 96.076,79.339 97.102,109.443 			"/>
			<polygon fill="#F5D467" points="84.764,93.833 84.764,72.861 93.359,80.604 94.114,102.772 			"/>
			<g>
				<path fill="#F28D29" d="M89.68,78.619c0.905,0.561,1.777,1.384,2.616,2.469c0.396,0.51,0.671,0.813,0.826,0.908
					c0.111,0.069,0.291,0.141,0.539,0.216c0.081,0.024,0.17,0.066,0.27,0.128c0.322,0.199,0.603,0.586,0.843,1.157
					c0.591,1.39,0.884,2.84,0.879,4.353c-0.003,1.064-0.263,1.684-0.779,1.857c-0.279,0.092-0.593,0.029-0.94-0.186
					c-0.316-0.195-0.573-0.452-0.769-0.768c-0.198-0.316-0.389-0.778-0.573-1.387c-0.264-0.86-0.479-1.493-0.646-1.901
					c-0.166-0.407-0.37-0.808-0.61-1.203c-0.599-0.971-1.226-1.66-1.882-2.066c-0.638-0.397-1.145-0.383-1.522,0.04
					c-0.377,0.423-0.567,1.185-0.57,2.283c-0.005,1.513,0.26,3.065,0.794,4.656c0.725,2.134,1.769,3.623,3.131,4.467
					c0.501,0.31,0.999,0.5,1.492,0.568c0.492,0.068,0.876-0.004,1.15-0.212c0.237-0.171,0.429-0.21,0.577-0.117
					c0.217,0.134,0.402,0.393,0.556,0.774c0.153,0.382,0.23,0.774,0.228,1.179c-0.001,0.511-0.112,1.015-0.33,1.514
					c-0.219,0.499-0.481,0.835-0.785,1.007c-0.131,0.069-0.401,0.035-0.81-0.105c-0.236-0.084-0.548-0.116-0.939-0.094
					c-0.92,0.056-1.873-0.223-2.864-0.838c-1.034-0.64-2.063-1.61-3.089-2.907c-1.193-1.506-2.133-3.267-2.822-5.279
					c-0.676-1.962-1.011-3.782-1.005-5.461c0.006-1.952,0.439-3.469,1.299-4.549c0.747-0.937,1.72-1.405,2.918-1.402
					C87.776,77.72,88.715,78.02,89.68,78.619z"/>
				<path fill="#F59B41" d="M93.492,96.57c-0.251-0.051-0.529-0.077-0.832-0.077c-0.105,0-0.214,0.003-0.328,0.01
					c-0.049,0.003-0.092,0.004-0.136,0.004c-0.53,0-1.123-0.201-1.76-0.596c-0.865-0.536-1.761-1.386-2.663-2.527
					c-1.07-1.352-1.93-2.962-2.554-4.789c-0.613-1.78-0.921-3.434-0.916-4.92c0.005-1.562,0.321-2.747,0.939-3.523
					c0.429-0.538,0.926-0.778,1.611-0.778c0.606,0.001,1.261,0.22,1.956,0.652c0.146,0.09,0.292,0.19,0.437,0.3
					c-0.209-0.049-0.417-0.073-0.623-0.073c-0.734,0-1.417,0.313-1.924,0.881c-0.661,0.743-0.985,1.848-0.99,3.38
					c-0.006,1.685,0.29,3.431,0.88,5.188c0.85,2.501,2.137,4.299,3.828,5.347c0.699,0.433,1.418,0.702,2.139,0.801
					c0.194,0.027,0.385,0.04,0.567,0.04c0.177,0,0.349-0.012,0.515-0.037C93.633,96.091,93.585,96.326,93.492,96.57z M93.657,85.303
					c-0.063-0.174-0.122-0.328-0.178-0.464c-0.155-0.378-0.337-0.754-0.544-1.123c0.036,0.012,0.072,0.025,0.11,0.037
					c0.04,0.055,0.113,0.171,0.203,0.385C93.411,84.52,93.547,84.908,93.657,85.303z"/>
			</g>
		</g>
	</g>
	<g>
		<polygon fill="#663312" points="48.93,26.092 1.775,34.603 1.502,34.659 1.502,77.667 26.978,102.737 27.481,102.633 
			73.969,93.57 74.022,49.31 74.091,48.296 		"/>
		<g>
			<polygon fill="#F28D29" points="2.901,77.069 2.901,37.5 25.3,57.678 25.987,99.856 			"/>
			<polygon fill="#E0AB4D" points="7.097,75.276 7.097,46.928 21.168,59.603 22.192,89.707 			"/>
			<polygon fill="#F5D467" points="9.303,74.333 9.303,51.885 18.994,60.615 19.803,84.37 			"/>
			<g>
				<path fill="#F28D29" d="M11.168,76.377l-0.598-0.505c-0.349-0.294-0.739-0.593-1.172-0.897c-0.272-0.188-0.46-0.326-0.565-0.415
					c-0.37-0.313-0.67-0.726-0.896-1.236c-0.227-0.51-0.336-1.02-0.327-1.527c0.006-0.355,0.062-0.589,0.168-0.699
					c0.106-0.113,0.276-0.13,0.51-0.057c0.223,0.086,0.375,0.047,0.457-0.116c0.082-0.162,0.15-0.555,0.206-1.178
					c0.058-0.723,0.124-2.171,0.198-4.344c0.074-2.171,0.13-4.345,0.168-6.516c0.015-0.852-0.011-1.452-0.078-1.797
					c-0.067-0.345-0.232-0.716-0.494-1.113c-0.378-0.586-0.56-1.199-0.549-1.839c0.009-0.497,0.147-0.775,0.414-0.831
					c0.268-0.057,0.636,0.113,1.107,0.511c0.154,0.131,0.337,0.289,0.547,0.477c0.464,0.423,0.802,0.723,1.011,0.901
					c0.791,0.668,1.686,1.377,2.683,2.128c0.21,0.156,0.473,0.368,0.788,0.635c1.266,1.069,2.264,2.18,2.99,3.33
					c1.082,1.716,1.883,3.743,2.403,6.076c0.464,2.061,0.676,4.228,0.636,6.502c-0.02,1.146-0.132,2.219-0.334,3.216
					c-0.202,0.998-0.466,1.788-0.791,2.367c-0.671,1.164-1.577,1.614-2.718,1.351c-0.671-0.155-1.382-0.55-2.134-1.186l-1.004-0.908
					l-0.862-0.775C12.265,77.325,11.677,76.807,11.168,76.377z M13.198,61.347l-0.206,11.782c-0.011,0.641,0.056,1.157,0.2,1.553
					c0.145,0.396,0.392,0.74,0.74,1.033c1.616,1.366,2.463-0.205,2.541-4.711c0.043-2.488-0.111-4.574-0.463-6.262
					c-0.389-1.862-1.078-3.213-2.068-4.05c-0.265-0.224-0.453-0.285-0.565-0.184C13.266,60.61,13.206,60.889,13.198,61.347z"/>
				<path fill="#F59B41" d="M17.541,79.219c-0.069,0-0.148-0.01-0.235-0.03c-0.277-0.064-0.749-0.259-1.417-0.82l-0.601-0.543
					c2.728-0.34,2.803-4.668,2.84-6.792c0.04-2.269-0.084-4.259-0.366-5.928c0.302,0.82,0.557,1.695,0.763,2.62
					c0.433,1.925,0.634,3.981,0.597,6.114c-0.019,1.041-0.12,2.022-0.301,2.915c-0.209,1.029-0.448,1.594-0.613,1.887
					C17.875,79.219,17.641,79.219,17.541,79.219z M11.426,74.431c-0.33-0.269-0.691-0.541-1.075-0.811
					c-0.218-0.15-0.363-0.252-0.443-0.32c-0.183-0.154-0.334-0.37-0.457-0.647c-0.02-0.046-0.039-0.091-0.056-0.136
					c0.351-0.185,0.644-0.48,0.831-0.854c0.189-0.376,0.294-0.873,0.374-1.771c0.061-0.761,0.127-2.207,0.203-4.433
					c0.075-2.191,0.132-4.393,0.169-6.544c0.015-0.817-0.006-1.424-0.066-1.876c0.629,0.512,1.317,1.05,2.058,1.607
					c0.074,0.055,0.154,0.117,0.24,0.185c-0.348,0.057-0.672,0.212-0.936,0.45c-0.621,0.57-0.712,1.388-0.723,2.037L11.338,73.1
					C11.329,73.591,11.358,74.033,11.426,74.431z"/>
			</g>
			<polygon fill="#F8AF65" points="4.282,40.403 25.358,59.389 25.3,57.678 2.901,37.5 2.901,77.069 4.282,78.389 			"/>
		</g>
		<g>
			<polygon fill="#4F70B5" points="28.867,58.219 72.505,50.974 71.897,92.42 28.823,100.919 			"/>
			<polygon fill="#E0AB4D" points="33.876,62.948 66.439,57.634 66.439,88.582 34.936,94.063 			"/>
			<polygon fill="#F5D467" points="36.148,64.813 64.046,60.26 64.352,86.769 37.052,91.359 			"/>
			<g>
				<path fill="#4F70B5" d="M42.731,67.506l7.644-1.672c1.546-0.338,2.674-0.615,3.382-0.831c0.709-0.216,1.399-0.491,2.072-0.825
					c0.207-0.102,0.37-0.165,0.49-0.191c0.516-0.113,0.974,0.049,1.374,0.484c0.662,0.706,0.998,1.661,1.008,2.864
					c0.005,0.606-0.127,1.114-0.396,1.523c-0.27,0.409-0.643,0.666-1.119,0.77c-0.327,0.071-0.583,0.065-0.768-0.021
					c-0.184-0.085-0.432-0.314-0.743-0.685c-0.442-0.53-0.998-0.826-1.669-0.89c-0.671-0.064-1.77,0.072-3.297,0.406
					c-1.14,0.249-1.832,0.593-2.077,1.029c-0.128,0.233-0.202,0.526-0.224,0.876c-0.021,0.351-0.027,1.235-0.014,2.653
					c0.005,0.559,0.107,0.885,0.306,0.977c0.2,0.091,0.721,0.046,1.564-0.139c0.416-0.091,0.717-0.238,0.905-0.443
					c0.187-0.205,0.304-0.523,0.349-0.952c0.065-0.556,0.135-0.943,0.207-1.159c0.073-0.217,0.208-0.422,0.404-0.615
					c0.206-0.213,0.448-0.351,0.727-0.411c0.406-0.089,0.754,0.017,1.045,0.318c0.211,0.225,0.391,0.665,0.54,1.319
					c0.15,0.653,0.228,1.354,0.233,2.101c0.013,1.473-0.219,2.735-0.697,3.783c-0.263,0.572-0.668,0.917-1.213,1.037
					c-0.337,0.073-0.57,0.042-0.701-0.093c-0.131-0.135-0.232-0.451-0.307-0.949c-0.157-1.021-0.816-1.405-1.976-1.151
					c-0.447,0.097-0.75,0.297-0.912,0.599c-0.161,0.302-0.239,0.811-0.232,1.529c0.004,0.438,0.04,0.998,0.111,1.678
					c0.07,0.681,0.141,1.126,0.213,1.335c0.082,0.262,0.328,0.402,0.74,0.419c0.413,0.017,1.1-0.08,2.062-0.289
					c1.487-0.326,2.606-0.75,3.357-1.274c0.75-0.524,1.359-1.31,1.826-2.355c0.273-0.602,0.52-1.02,0.742-1.256
					c0.222-0.235,0.511-0.391,0.867-0.47c0.417-0.09,0.762,0.004,1.038,0.285c0.276,0.281,0.416,0.678,0.42,1.19
					c0.005,0.56-0.143,1.293-0.443,2.2c-0.3,0.907-0.671,1.735-1.111,2.486c-0.225,0.367-0.412,0.62-0.56,0.759
					c-0.148,0.14-0.335,0.235-0.563,0.285c-0.188,0.041-0.462,0.073-0.819,0.095c-0.635,0.027-1.484,0.142-2.545,0.347l-12.61,2.758
					c-0.505,0.11-0.899,0.091-1.178-0.058c-0.28-0.149-0.421-0.415-0.424-0.797c-0.002-0.27,0.056-0.479,0.173-0.626
					c0.118-0.147,0.389-0.361,0.814-0.641c0.296-0.187,0.515-0.384,0.658-0.592c0.142-0.209,0.251-0.495,0.328-0.857
					c0.315-1.48,0.462-3.414,0.442-5.802c-0.031-3.601-0.288-5.82-0.772-6.657c-0.101-0.165-0.211-0.272-0.331-0.321
					c-0.12-0.048-0.368-0.082-0.746-0.102c-0.566-0.035-0.852-0.328-0.857-0.878c-0.002-0.298,0.089-0.585,0.275-0.859
					c0.187-0.274,0.433-0.482,0.74-0.624C40.873,67.955,41.62,67.749,42.731,67.506z"/>
				<path fill="#859DD1" d="M42.93,84.902c0.187-0.339,0.327-0.732,0.424-1.193c0.343-1.612,0.499-3.627,0.477-6.158
					c-0.044-5.144-0.527-6.663-0.994-7.471c-0.193-0.315-0.41-0.562-0.655-0.748c0.243-0.06,0.541-0.13,0.902-0.209l4.485-0.981
					c-0.145,0.154-0.274,0.326-0.381,0.517c-0.252,0.46-0.395,0.987-0.431,1.581c-0.024,0.405-0.03,1.31-0.018,2.77
					c0.01,1.251,0.436,2.08,1.266,2.465c0.057,0.026,0.116,0.05,0.175,0.071c-0.38,0.281-0.62,0.609-0.771,0.892
					c-0.301,0.565-0.436,1.303-0.427,2.324c0.004,0.495,0.045,1.112,0.12,1.835c0.109,1.061,0.209,1.454,0.293,1.698
					c0.194,0.625,0.659,1.1,1.297,1.349L42.93,84.902z M55.644,82.243c0.149-0.087,0.29-0.178,0.424-0.271
					c0.707-0.494,1.317-1.151,1.822-1.962c-0.241,0.667-0.528,1.287-0.856,1.846c-0.081,0.132-0.144,0.225-0.189,0.289
					c-0.09,0.011-0.226,0.025-0.425,0.037C56.185,82.192,55.926,82.212,55.644,82.243z M52.819,76.051
					c-0.309-0.43-0.721-0.752-1.214-0.948c0.306-0.159,0.569-0.358,0.785-0.594c0.271-0.296,0.474-0.658,0.608-1.08
					c0.013,0.188,0.021,0.379,0.022,0.575C53.027,74.76,52.959,75.445,52.819,76.051z M56.945,67.86
					c-0.61-0.733-1.4-1.212-2.303-1.403c0.646-0.217,1.284-0.481,1.903-0.787c0.331,0.392,0.495,0.942,0.501,1.678
					c0.001,0.16-0.014,0.372-0.086,0.53C56.956,67.872,56.951,67.866,56.945,67.86z"/>
			</g>
			<polygon fill="#7D99CF" points="29.704,59.787 72.378,52.822 72.505,50.974 28.867,58.219 28.823,100.919 30.344,100.596 			"/>
		</g>
		<g>
			<polygon fill="#E73331" points="4.747,35.398 48.503,27.614 71.981,48.226 27.115,55.548 			"/>
			<polygon fill="#E94547" points="47.937,28.831 70.399,48.484 71.981,48.226 48.503,27.614 4.747,35.398 5.73,36.284 			"/>
			<polygon fill="#E0AB4D" points="16.634,38.577 46.798,32.126 62.313,45.753 30.349,51.844 			"/>
			<polygon fill="#F5D467" points="21.143,39.869 46.084,34.535 57.716,44.267 31.087,49.488 			"/>
			<g>
				<path fill="#E73331" d="M47.038,41.35c-0.349-0.408-0.72-0.611-1.112-0.608c-0.294,0.003-0.807,0.079-1.539,0.231
					c-0.733,0.152-1.376,0.316-1.93,0.49c-0.33,0.104-0.497,0.247-0.501,0.428c-0.004,0.182,0.16,0.468,0.492,0.859
					c0.223,0.26,0.458,0.43,0.708,0.51c0.248,0.079,0.563,0.089,0.943,0.029c1.089-0.171,1.815-0.045,2.174,0.375
					c0.616,0.723-0.382,1.495-2.993,2.318c-1.654,0.521-3.004,0.746-4.048,0.678c-0.636-0.041-1.095-0.227-1.377-0.558
					c-0.298-0.35-0.116-0.662,0.545-0.939c0.431-0.172,0.721-0.31,0.871-0.415c0.149-0.103,0.256-0.245,0.32-0.422
					c0.111-0.282,0.007-0.61-0.31-0.984c-0.227-0.266-0.452-0.424-0.677-0.474c-0.222-0.051-0.531-0.005-0.924,0.134
					c-0.071,0.022-0.49,0.151-1.255,0.384c-1.546,0.487-2.398,0.891-2.557,1.211c-0.072,0.113-0.098,0.213-0.076,0.3
					c0.023,0.087,0.132,0.298,0.329,0.635c0.094,0.165,0.085,0.334-0.03,0.505c-0.114,0.171-0.306,0.3-0.574,0.383
					c-0.689,0.217-1.359,0.089-2.009-0.381c-0.934-0.683-1.993-1.719-3.179-3.112c-1.039-1.219-1.648-2.094-1.827-2.624
					c-0.08-0.238-0.044-0.464,0.104-0.676c0.148-0.211,0.38-0.368,0.693-0.465c0.393-0.123,0.791-0.129,1.195-0.015
					c0.092,0.031,0.343,0.157,0.751,0.383c0.479,0.27,1.104,0.325,1.875,0.165c1.19-0.24,3.744-0.976,7.659-2.209
					c1.69-0.532,2.753-0.915,3.188-1.15c0.436-0.235,0.625-0.531,0.57-0.889c-0.056-0.357-0.049-0.606,0.021-0.745
					c0.069-0.138,0.244-0.25,0.52-0.337c0.393-0.124,0.83-0.1,1.31,0.071c0.481,0.172,0.88,0.445,1.197,0.817
					c0.203,0.237,0.472,0.592,0.807,1.065c0.706,1.003,1.632,2.175,2.777,3.52c1.833,2.15,3.155,3.569,3.97,4.259
					c0.103,0.096,0.178,0.17,0.225,0.223c0.176,0.207,0.165,0.462-0.031,0.764c-0.558,0.837-1.445,1.446-2.661,1.829
					c-0.554,0.175-1.07,0.227-1.546,0.161c-0.478-0.068-0.834-0.24-1.073-0.519c-0.175-0.207-0.246-0.384-0.213-0.53
					c0.034-0.145,0.241-0.556,0.619-1.231c0.237-0.412,0.267-0.829,0.09-1.251C48.369,43.118,47.867,42.388,47.038,41.35z"/>
				<path fill="#E84142" d="M50.016,45.376c0.271-0.568,0.359-1.182,0.257-1.789c0.419,0.451,0.792,0.835,1.122,1.155
					c-0.318,0.235-0.725,0.431-1.224,0.589C50.118,45.349,50.067,45.363,50.016,45.376z M41.166,44.832
					c0.076-0.213,0.146-0.523,0.118-0.9c0.257,0.279,0.534,0.502,0.829,0.669C41.78,44.694,41.464,44.771,41.166,44.832z
					 M32.164,44.458c-0.75-0.602-1.618-1.478-2.578-2.605c-0.187-0.219-0.351-0.417-0.495-0.595c0.377,0.119,0.788,0.18,1.225,0.18
					c0.358,0,0.742-0.042,1.138-0.125c1.253-0.253,3.814-0.989,7.819-2.251c2.383-0.75,3.11-1.074,3.477-1.273
					c0.724-0.39,1.202-0.974,1.374-1.646c0.073,0.052,0.138,0.111,0.197,0.181c0.118,0.138,0.337,0.414,0.717,0.948
					c0.403,0.572,0.868,1.189,1.402,1.862c-0.183-0.035-0.354-0.048-0.507-0.048c-0.284,0.003-0.759,0.033-1.883,0.265
					c-0.781,0.162-1.485,0.341-2.093,0.532c-1.509,0.476-1.651,1.628-1.659,1.97c-0.001,0.055,0,0.109,0.003,0.162
					c-0.408-0.401-0.859-0.657-1.345-0.764c-0.168-0.039-0.357-0.059-0.552-0.059c-0.38,0-0.789,0.077-1.248,0.237
					c-0.12,0.037-0.527,0.162-1.218,0.372c-2.145,0.676-3.084,1.2-3.513,1.973C32.298,43.994,32.21,44.224,32.164,44.458z"/>
			</g>
		</g>
	</g>
</g>
<g>
</g>
<g>
</g>
<g>
</g>
<g>
</g>
<g>
</g>
<g>
</g>
</svg>
