<svg xmlns="http://www.w3.org/2000/svg" width="500" height="498" viewBox="0 0 500 498" version="1.1">
	<path d="M 202.500 6.927 C 200.850 7.983, 197.605 11.019, 195.290 13.674 C 192.974 16.328, 189.262 20.575, 187.040 23.111 C 184.111 26.455, 182.735 29.123, 182.034 32.819 C 181.503 35.622, 179.541 40.972, 177.674 44.708 C 173.866 52.329, 170 63.020, 170 65.928 C 170 67.650, 168.490 72.232, 160.392 95.096 C 159.107 98.724, 157.987 103.224, 157.904 105.096 C 157.681 110.108, 156.177 114.530, 154.037 116.467 C 152.999 117.406, 151.003 120.518, 149.602 123.381 C 147.343 127.997, 147.154 129.204, 147.925 134.043 C 149.205 142.078, 148.094 153.938, 145.765 157.096 C 144.712 158.525, 143.618 161.675, 143.333 164.096 C 143.048 166.518, 142.182 169.918, 141.408 171.651 C 140.633 173.384, 140 175.155, 140 175.587 C 140 176.018, 139.043 177.389, 137.874 178.634 C 134.185 182.561, 132.548 197.553, 132.920 224 C 133.041 232.546, 134.512 242.968, 136.731 251 C 137.567 254.025, 139.049 259.425, 140.025 263 C 141 266.575, 142.242 270.625, 142.784 272 C 145.080 277.818, 147 285.965, 147 289.888 C 147 292.204, 147.622 295.314, 148.383 296.800 C 150.189 300.328, 154 314.339, 154 317.452 C 154 318.789, 154.460 320.166, 155.022 320.514 C 157.031 321.755, 163.156 335.582, 163.655 340 C 164.132 344.233, 163.975 344.604, 161 346.250 C 159.261 347.212, 156.926 348, 155.812 348 C 154.655 348, 150.637 344.946, 146.443 340.879 L 139.098 333.757 133.299 334.481 C 128.291 335.106, 126.986 335.744, 123.736 339.159 L 119.972 343.114 106.794 341.436 C 97.116 340.204, 93.153 340.048, 91.873 340.847 C 89.320 342.442, 78.246 344.027, 75.850 343.140 C 72.524 341.910, 68.209 343.033, 66.553 345.560 C 65.658 346.925, 63.581 348.176, 61.587 348.550 C 59.652 348.913, 57.032 350.458, 55.572 352.096 C 54.149 353.693, 52.329 355, 51.527 355 C 49.370 355, 43.424 360.563, 42.059 363.856 C 41.213 365.899, 39.676 367.117, 36.703 368.098 C 34.410 368.855, 28.982 372.180, 24.640 375.487 C 20.298 378.794, 15.118 382.429, 13.129 383.564 C 10.384 385.130, 9.376 386.455, 8.942 389.064 C 8.627 390.954, 7.899 393.400, 7.322 394.500 C 6.746 395.600, 5.997 398.319, 5.659 400.542 C 5.087 404.293, 5.375 404.963, 9.670 409.873 C 12.215 412.782, 16.030 416.257, 18.149 417.594 C 22.665 420.445, 23.022 422.743, 19.660 427.317 C 14.919 433.766, 13.224 442.021, 15.482 447.659 C 16.668 450.617, 18.255 452.166, 22.389 454.399 C 27.324 457.065, 28.110 457.210, 32.129 456.198 C 34.977 455.481, 37.719 455.418, 40 456.018 C 54.897 459.934, 58.276 460.984, 59.647 462.122 C 61.392 463.570, 68.624 464.806, 80.312 465.652 C 87.339 466.161, 88.731 465.945, 94.158 463.510 C 101.200 460.349, 105.661 460.582, 114.359 464.564 C 119.611 466.969, 119.902 466.989, 137.090 466.163 L 154.500 465.326 165.310 460.163 C 171.255 457.323, 176.701 455, 177.411 455 C 178.122 455, 180.079 456.238, 181.760 457.750 C 183.441 459.263, 185.778 461.175, 186.951 462 C 188.278 462.932, 189.674 465.771, 190.638 469.496 C 191.492 472.793, 193.506 478.306, 195.115 481.746 L 198.039 488 205.269 487.900 C 209.246 487.845, 213.528 487.508, 214.785 487.150 C 217.044 486.508, 228.701 487.184, 238.611 488.532 C 244.164 489.288, 247.365 487.944, 251.583 483.085 C 253.187 481.238, 255.133 480.499, 259.862 479.942 C 263.263 479.541, 268.397 478.071, 271.272 476.675 C 275.054 474.839, 278.713 474.002, 284.500 473.650 C 288.900 473.383, 294.239 472.847, 296.365 472.459 C 301.006 471.613, 301.963 472.674, 301.985 478.691 C 301.993 480.996, 302.363 483.106, 302.807 483.381 C 303.554 483.842, 305.884 483.540, 320.250 481.113 C 323.137 480.626, 327.715 479.045, 330.423 477.601 C 334.044 475.669, 336.188 475.132, 338.530 475.572 C 340.966 476.029, 343.346 475.347, 348.656 472.673 C 355.831 469.060, 357.293 467.285, 358.532 460.682 C 359.135 457.467, 359.521 457.146, 363.344 456.684 C 378.681 454.830, 391.373 454.116, 403.743 454.410 C 417.293 454.733, 418.211 454.630, 422.611 452.288 C 427.184 449.853, 432.308 448.164, 443 445.566 C 458.421 441.820, 460.399 441.025, 464.623 436.879 C 468.856 432.725, 473.701 424.552, 475.884 417.883 C 477.002 414.466, 477.917 408.403, 479.942 390.992 C 480.423 386.863, 481.809 380.563, 483.023 376.992 C 484.274 373.311, 485.610 365.954, 486.109 360 C 488.215 334.833, 491.744 315.046, 494.712 311.766 C 496.077 310.258, 496.117 309.264, 495.023 304.110 C 494.332 300.852, 494.062 297.708, 494.424 297.123 C 495.443 295.475, 492.669 290.946, 486.656 284.439 C 476.988 273.976, 474 269.386, 474 264.993 C 474 263.942, 472.813 261.981, 471.363 260.636 C 469.912 259.291, 467.550 256.033, 466.113 253.397 C 464.226 249.936, 461.767 247.478, 457.265 244.552 C 452.940 241.741, 450.839 239.680, 450.404 237.820 C 450.060 236.346, 448.703 234.130, 447.389 232.896 C 446.075 231.661, 445 229.613, 445 228.345 C 445 226.702, 444.261 225.853, 442.434 225.394 C 439.644 224.694, 435.291 218.639, 433.865 213.474 C 433.388 211.745, 431.382 208.715, 429.407 206.741 C 425.057 202.390, 425.320 199, 430.008 199 C 431.589 199, 433.168 198.537, 433.518 197.970 C 433.868 197.404, 432.443 194.366, 430.351 191.220 C 427.032 186.227, 426.583 184.861, 426.819 180.471 C 427.090 175.451, 427.083 175.439, 422.795 173.356 C 420.432 172.208, 417.081 170.957, 415.347 170.576 C 411.093 169.642, 408.897 164.876, 411.431 162.077 C 412.610 160.773, 413.030 158.882, 412.812 155.852 C 412.518 151.756, 412.218 151.360, 407.708 149.124 C 403.104 146.841, 402.996 146.691, 404.961 145.314 C 408.151 143.080, 406.049 140.765, 398.838 138.572 C 391.472 136.331, 388.491 134.019, 386.951 129.353 C 385.666 125.459, 384.480 125.063, 383.641 128.250 C 383.066 130.432, 382.937 130.388, 379.352 126.811 C 375.679 123.146, 374.999 120.549, 376.127 114.500 C 376.390 113.091, 375.894 112.414, 374.445 112.206 C 371.821 111.830, 368.954 114.988, 368.092 119.203 C 367.219 123.475, 364.273 124.238, 363.822 120.309 C 363.552 117.954, 362.941 117.419, 360.047 117 C 356.838 116.535, 356.423 116.040, 354.175 110 C 350.519 100.173, 348.991 94.166, 348.325 87 C 347.993 83.425, 347.145 79.355, 346.441 77.956 C 345.738 76.557, 344.841 72.057, 344.449 67.956 C 344.057 63.855, 343.184 59.375, 342.507 58 C 341.831 56.625, 340.983 52.125, 340.622 48 C 339.508 35.245, 332.460 24.293, 322.246 19.446 C 317.884 17.376, 304.887 17.858, 298 20.346 C 294.400 21.646, 289.374 21.974, 272.860 21.985 L 252.221 22 239.360 15.483 C 232.287 11.898, 224.121 8.073, 221.212 6.983 C 214.366 4.415, 206.461 4.392, 202.500 6.927" fill="none" stroke="#000" stroke-width="2px" fill-rule="evenodd"/>
</svg>
