<svg xmlns="http://www.w3.org/2000/svg" width="1438" height="1108" viewBox="0 0 1438 1108" version="1.1">
	<path d="M 1398.500 11.625 C 1394.443 12.242, 1380.378 14.657, 1370.011 16.516 C 1365.342 17.354, 1351.392 18.493, 1339.011 19.049 C 1277.574 21.807, 1279.238 21.672, 1266.708 24.925 C 1245.762 30.363, 1218.715 42.441, 1201.127 54.208 C 1191.170 60.870, 1178.515 71.575, 1173.339 77.713 C 1164.759 87.889, 1152.625 109.578, 1145.487 127.500 C 1137.577 147.360, 1129.191 176.452, 1125.020 198.500 C 1119.305 228.711, 1106.890 264.572, 1095.306 284.331 C 1084.728 302.373, 1073.178 315.693, 1054.500 331.389 C 1040.234 343.377, 1028.146 354.231, 1006.488 374.500 C 942.919 433.991, 912.812 458.331, 883 474.330 C 857.931 487.783, 784.666 516.269, 723.500 536.344 C 714.150 539.413, 691.650 547.279, 673.500 553.824 C 633.903 568.102, 594.899 581.053, 559 591.840 C 532.245 599.880, 525.102 601.874, 490.330 611.003 C 443.978 623.173, 416.081 635.899, 354.500 672.965 C 320.873 693.205, 300.124 704.948, 281.415 714.327 C 266.824 721.641, 266.149 721.871, 260.821 721.321 C 257.792 721.008, 250.855 721.244, 245.407 721.845 C 239.958 722.446, 231.751 723.237, 227.170 723.605 C 219.375 724.229, 218.354 724.589, 211.295 729.198 C 203.854 734.055, 190 746.649, 190 748.556 C 190 749.191, 192.761 749.209, 197.855 748.605 C 202.175 748.093, 206.563 748.005, 207.605 748.409 C 209.446 749.122, 209.443 749.186, 207.500 750.653 C 203.759 753.478, 192.535 758.750, 178.059 764.481 C 170.117 767.625, 161.342 771.466, 158.559 773.015 C 151.839 776.757, 137.835 781.575, 131 782.496 C 127.975 782.904, 123.700 783.934, 121.500 784.785 C 118.154 786.079, 101.999 794.822, 102.001 795.338 C 102.001 795.427, 105.939 795.512, 110.751 795.527 C 115.563 795.542, 120.400 796.075, 121.500 796.713 C 123.285 797.748, 122.374 798.410, 113 802.891 C 86.196 815.704, 59.125 821.906, 22.302 823.672 L 9.080 824.306 15.790 830.951 C 19.480 834.606, 23.020 838.298, 23.657 839.156 C 25.839 842.099, 42.018 844.508, 59 844.418 C 72.064 844.348, 77.801 843.764, 95.500 840.697 C 143.164 832.439, 205.481 823.447, 249 818.546 C 291.848 813.721, 319.669 811.967, 369 810.980 C 425.449 809.850, 446.755 808.807, 481.500 805.470 C 545.603 799.314, 580.412 799.950, 702.500 809.504 C 824.681 819.065, 875.913 820.136, 938.500 814.437 C 981.941 810.481, 1039.318 801.254, 1072.167 792.940 C 1083.214 790.144, 1083.714 790.234, 1085.082 795.250 C 1086.002 798.626, 1085.908 802.277, 1084.624 813 C 1083.734 820.425, 1082.478 834.885, 1081.832 845.133 L 1080.658 863.766 1084.209 868.633 C 1086.161 871.310, 1088.963 876.875, 1090.435 881 C 1093.675 890.085, 1101.492 899, 1106.216 899 C 1108.726 899, 1109 899.341, 1109 902.465 C 1109 904.884, 1109.899 906.955, 1111.977 909.321 C 1113.615 911.186, 1114.679 912.988, 1114.342 913.325 C 1113.126 914.541, 1117.015 918.870, 1119.604 919.181 C 1121.629 919.425, 1122.515 920.322, 1123.375 923 C 1124.369 926.092, 1124.943 926.537, 1128.299 926.813 C 1133.065 927.206, 1134.658 930.364, 1133.130 936.385 C 1132.160 940.209, 1132.247 940.418, 1136.567 944.617 L 1141 948.925 1141 956.916 C 1141 961.310, 1141.488 965.978, 1142.085 967.288 C 1143.325 970.008, 1147.872 973, 1150.766 973 C 1152.475 973, 1152.810 973.952, 1153.403 980.490 C 1153.776 984.609, 1154.814 989.897, 1155.710 992.240 C 1156.883 995.309, 1157.361 1000.035, 1157.419 1009.143 C 1157.509 1023.259, 1158.284 1025.207, 1164.285 1026.407 C 1169.239 1027.398, 1174.742 1031.589, 1177.210 1036.251 C 1179.192 1039.994, 1179.454 1041.929, 1179.413 1052.500 C 1179.387 1059.100, 1178.816 1067.022, 1178.142 1070.104 C 1177.044 1075.136, 1177.129 1076.271, 1178.983 1081.225 C 1181.204 1087.162, 1186.181 1093.008, 1191.243 1095.626 C 1195.123 1097.632, 1205.021 1097.835, 1210.500 1096.021 C 1216.043 1094.186, 1220.267 1090.749, 1225.442 1083.866 C 1234.415 1071.928, 1239.197 1058.296, 1243.510 1032.355 C 1244.960 1023.635, 1246.986 1013.125, 1248.013 1009 C 1250.656 998.374, 1252.695 983.459, 1254.507 961.500 C 1255.368 951.050, 1256.728 936.875, 1257.528 930 C 1259.349 914.344, 1259.345 908.969, 1257.500 891.500 C 1256.441 881.475, 1254.753 872.957, 1251.558 861.500 C 1249.103 852.700, 1244.347 832.225, 1240.989 816 L 1234.883 786.500 1236.458 748.664 C 1238.879 690.467, 1242.805 666.486, 1256.553 625.904 C 1258.492 620.182, 1261.198 609.425, 1262.566 602 C 1263.935 594.575, 1266.376 584.450, 1267.991 579.500 C 1269.816 573.904, 1271.338 566.340, 1272.015 559.500 C 1273.981 539.615, 1276.228 531.498, 1293.333 482.500 C 1300.050 463.258, 1306.720 420.218, 1308.985 381.500 C 1310.479 355.957, 1311.601 343.338, 1313.963 325.500 C 1316.934 303.059, 1318.324 269.493, 1317.543 238.988 C 1316.917 214.516, 1317.025 211.692, 1318.939 202.299 C 1321.406 190.194, 1326.056 176.498, 1330.151 169.281 C 1337.727 155.926, 1355.193 137.168, 1383.208 112.300 C 1394.598 102.190, 1405.981 91.574, 1408.505 88.709 C 1414.602 81.788, 1419.897 70.969, 1420.599 64 C 1420.904 60.975, 1422.036 56.833, 1423.114 54.796 C 1426.695 48.035, 1427.426 23.401, 1424.222 17.416 C 1421.780 12.852, 1419.532 11.897, 1410.357 11.526 C 1405.486 11.329, 1400.150 11.374, 1398.500 11.625" fill="none" stroke="#000" stroke-width="2px" fill-rule="evenodd"/>
</svg>
