<svg xmlns="http://www.w3.org/2000/svg" width="465" height="500" viewBox="0 0 465 500" version="1.1">
	<path d="M 221.622 4.037 C 212.075 6.686, 206.844 9.433, 204.500 13.028 C 202.059 16.770, 196.492 20.422, 194.810 19.383 C 193.019 18.275, 184 18.037, 184 19.097 C 184 19.594, 183.170 20, 182.155 20 C 179.584 20, 177.419 22.690, 175.544 28.218 C 174.314 31.842, 174.205 33.356, 175.077 34.752 C 176.327 36.753, 182.383 41, 183.986 41 C 184.544 41, 185 41.466, 185 42.036 C 185 42.605, 186.912 43.904, 189.250 44.921 C 191.588 45.939, 195.225 48.286, 197.334 50.136 C 200.755 53.138, 201.389 54.468, 203.222 62.500 C 205.963 74.510, 206.125 98.976, 203.463 98.993 C 202.458 99, 195 108.320, 195 109.570 C 195 109.912, 194.161 111.386, 193.135 112.846 C 192.109 114.306, 190.032 119.100, 188.521 123.500 C 187.009 127.900, 183.190 136.675, 180.034 143 C 176.879 149.325, 173.529 156.525, 172.590 159 C 171.651 161.475, 169.672 165.260, 168.191 167.412 C 165.681 171.061, 164.929 171.448, 157 173.184 C 150.948 174.509, 140.964 175.331, 122.334 176.037 C 107.943 176.583, 94.218 177.432, 91.834 177.924 C 89.450 178.416, 81.609 179.985, 74.409 181.411 C 60.749 184.117, 50.958 186.971, 45.007 189.982 C 43.078 190.958, 39.940 192.093, 38.033 192.505 C 33.883 193.402, 31 195.072, 31 196.580 C 31 197.184, 29.988 198.162, 28.750 198.753 C 27.512 199.344, 23.514 202.556, 19.863 205.891 C 14.785 210.531, 12.377 213.720, 9.608 219.477 C 7.617 223.615, 5.598 227, 5.121 227 C 4.644 227, 4.410 229.585, 4.601 232.744 C 5.182 242.362, 8.425 242.939, 26.653 236.667 C 32.095 234.795, 39.761 232.532, 43.690 231.639 C 47.618 230.745, 52.034 229.557, 53.503 228.999 C 54.972 228.440, 61.873 227.536, 68.837 226.989 C 75.802 226.441, 85.231 225.574, 89.792 225.060 C 96.680 224.285, 99.982 224.471, 109.292 226.160 C 125.522 229.104, 130.488 229.351, 140 227.688 C 144.675 226.870, 148.808 226.389, 149.185 226.619 C 149.562 226.850, 148.969 229.076, 147.868 231.566 C 146.766 234.057, 145.469 238.211, 144.986 240.797 C 144.503 243.384, 143.575 247.750, 142.924 250.500 C 142.209 253.521, 141.848 261.436, 142.013 270.500 C 142.290 285.766, 142.305 303.693, 142.052 319 C 141.974 323.675, 142.421 329.750, 143.045 332.500 C 143.668 335.250, 144.534 347.400, 144.970 359.500 C 145.484 373.777, 146.339 383.957, 147.406 388.500 C 149.090 395.671, 153.367 405.714, 155.498 407.500 C 156.154 408.050, 157.292 410.075, 158.027 412 C 158.762 413.925, 160.856 417.871, 162.681 420.769 C 164.507 423.668, 166 426.321, 166 426.667 C 166 428.831, 170.431 438.883, 171.309 438.710 C 171.897 438.595, 173.588 440.692, 175.066 443.370 C 176.702 446.335, 177.952 447.705, 178.262 446.870 C 179.742 442.884, 185 458.177, 185 466.467 C 185 469.570, 184.123 471.067, 179.425 475.994 C 174.586 481.066, 173.745 482.544, 173.062 487.169 C 172.628 490.101, 171.939 493.288, 171.530 494.250 C 170.939 495.640, 171.285 496, 173.212 496 C 177.726 496, 185.939 492.983, 187.044 490.918 C 187.637 489.811, 189.276 488.465, 190.687 487.929 C 192.824 487.116, 194.068 487.477, 198.140 490.090 C 200.828 491.815, 203.386 493.867, 203.824 494.651 C 205.083 496.899, 208.790 494.935, 210.768 490.971 C 212.455 487.590, 212.656 487.500, 218.500 487.487 C 221.800 487.480, 225.566 486.873, 226.869 486.138 C 228.939 484.971, 229.176 484.252, 228.746 480.442 C 228.186 475.468, 229.970 472, 233.088 472 C 234.174 472, 235.349 471.213, 235.698 470.250 C 236.048 469.288, 237.833 466.811, 239.667 464.747 C 241.500 462.683, 243 460.351, 243 459.565 C 243 457.752, 248.080 454.137, 249.784 454.737 C 250.490 454.986, 251.727 454.641, 252.534 453.972 C 253.550 453.129, 254.384 453.070, 255.250 453.782 C 255.938 454.347, 257.944 454.638, 259.709 454.429 C 262.268 454.126, 262.799 454.359, 262.331 455.580 C 261.995 456.456, 262.654 457.961, 263.872 459.095 C 267.140 462.140, 266.690 466.488, 262.877 468.693 C 261.160 469.687, 258.915 472.300, 257.890 474.500 C 256.864 476.700, 255.473 479.266, 254.798 480.202 C 252.971 482.736, 254.248 483.212, 258.314 481.513 C 260.306 480.681, 263.953 480, 266.419 480 C 270.621 480, 273.723 480.471, 286.751 483.089 C 291.471 484.037, 292.268 483.934, 294.636 482.072 C 297.396 479.901, 302.443 479.290, 303.500 481 C 304.317 482.322, 309.704 482.288, 310.527 480.956 C 310.882 480.382, 310.448 478.807, 309.563 477.456 C 308.303 475.533, 307.095 475, 303.997 475 C 299.087 475, 292.262 472.358, 290.979 469.961 C 289.607 467.397, 290.901 459.351, 293.626 453.500 C 297.494 445.194, 299.745 441.778, 300.520 443.033 C 300.944 443.719, 302.641 441.630, 304.738 437.840 C 306.668 434.353, 309.541 430.022, 311.123 428.215 C 312.706 426.409, 314 424.466, 314 423.898 C 314 423.331, 315.076 421.434, 316.390 419.683 C 319.574 415.443, 323.982 406.827, 324.539 403.758 C 324.785 402.400, 325.698 399.312, 326.566 396.895 C 327.435 394.478, 328.539 390.475, 329.019 388 C 329.499 385.525, 330.353 381.361, 330.916 378.748 C 331.480 376.134, 331.934 369.159, 331.925 363.248 C 331.917 357.336, 332.577 349.407, 333.393 345.626 C 334.209 341.845, 334.676 336.670, 334.430 334.126 C 333.198 321.348, 333.471 306.083, 335.163 293.259 C 337.079 278.730, 339.224 251.171, 338.527 250.043 C 338.300 249.676, 338.030 244.229, 337.927 237.938 L 337.740 226.500 342.120 226.240 C 344.529 226.098, 352.210 224.590, 359.189 222.889 L 371.878 219.798 392.189 220.791 C 412.763 221.797, 417.299 222.563, 433 227.677 C 453.373 234.313, 458.529 233.446, 459.357 223.242 C 459.592 220.351, 459.383 217.736, 458.892 217.433 C 458.401 217.130, 458 215.874, 458 214.641 C 458 213.408, 457.622 211.972, 457.160 211.450 C 456.698 210.928, 455.702 208.925, 454.947 207 C 453.064 202.205, 449.835 197.586, 445.848 193.987 C 441.843 190.371, 429.358 182, 427.971 182 C 427.432 182, 424.658 180.875, 421.808 179.500 C 418.958 178.125, 415.954 177, 415.134 177 C 414.313 177, 412.260 176.581, 410.571 176.070 C 403.117 173.812, 400.257 173.428, 396.636 174.196 C 394.126 174.729, 391.325 174.578, 388.636 173.765 C 385.777 172.900, 376.162 172.505, 357.500 172.484 C 342.650 172.467, 329.201 172.063, 327.614 171.584 C 325.134 170.837, 323.813 168.804, 318.210 157.108 C 314.625 149.623, 310.425 141.639, 308.877 139.365 C 306.040 135.198, 304.070 128.848, 304.024 123.729 C 303.992 120.027, 298.763 109.486, 293.944 103.410 C 286.428 93.931, 286.811 94.922, 288.538 89.420 C 291.996 78.411, 292.129 66.583, 289.022 46.512 C 287.824 38.767, 281.649 24.865, 277.838 21.332 C 274.354 18.102, 253.028 5.446, 249 4.218 C 241.966 2.073, 229.009 1.987, 221.622 4.037 M 208.704 451.683 C 208.219 452.482, 207.615 461.248, 207.871 463.775 C 207.997 465.021, 212.886 467.447, 213.678 466.656 C 214.100 466.233, 210.350 452.017, 209.624 451.291 C 209.391 451.058, 208.977 451.234, 208.704 451.683" fill="none" stroke="#000" stroke-width="2px" fill-rule="evenodd"/>
</svg>
