<svg xmlns="http://www.w3.org/2000/svg" width="500" height="332" viewBox="0 0 500 332" version="1.1">
	<path d="M 164.739 3.595 C 164.412 3.922, 162.874 4.349, 161.322 4.544 C 159.770 4.739, 157.150 5.175, 155.500 5.512 C 153.850 5.850, 151.825 6.259, 151 6.421 C 150.175 6.584, 148.150 7.266, 146.500 7.936 C 143.827 9.022, 123.329 15.662, 115.500 17.977 C 113.850 18.465, 108.935 19.387, 104.577 20.027 C 100.219 20.666, 93.469 22.020, 89.577 23.036 C 85.685 24.052, 81.375 25.111, 80 25.390 C 74.852 26.435, 72.781 26.936, 70.670 27.649 C 69.477 28.052, 68.050 28.434, 67.500 28.498 C 66.950 28.562, 65.600 28.968, 64.500 29.401 C 63.400 29.834, 61.150 30.669, 59.500 31.258 C 57.850 31.847, 55.825 32.895, 55 33.587 C 54.175 34.278, 52.258 35.154, 50.741 35.533 C 49.223 35.912, 47.734 36.622, 47.432 37.111 C 47.129 37.600, 45.723 38, 44.307 38 C 37.173 38, 31.014 42.031, 22.284 52.413 C 19.190 56.092, 18.896 56.211, 14.520 55.555 C 10.367 54.932, 9.714 55.132, 6.986 57.860 C 4.321 60.525, 4 61.505, 4 66.973 C 4 72.939, 5.514 77.526, 8.677 81.141 C 10.137 82.809, 10.757 91.966, 9.544 93.929 C 9.188 94.505, 8.237 97.509, 7.431 100.604 C 5.987 106.148, 6.008 106.324, 8.849 112.366 C 10.435 115.740, 12.041 119.489, 12.417 120.699 C 13.333 123.637, 16.669 124.610, 18.900 122.590 C 21.157 120.548, 22.622 120.574, 23.427 122.670 C 24.230 124.763, 22.012 126.255, 20.259 124.800 C 18.392 123.251, 17.789 124.315, 18.891 127.214 C 19.412 128.584, 19.815 132.296, 19.787 135.462 C 19.752 139.314, 20.192 141.512, 21.117 142.105 C 23.083 143.367, 29.085 144.988, 31.816 144.994 C 35.456 145.003, 37.685 146.677, 38.327 149.884 C 38.656 151.530, 39.742 153.101, 40.779 153.430 C 41.802 153.755, 43.388 155.591, 44.303 157.510 C 45.751 160.545, 46.438 161, 49.580 161 C 51.566 161, 54.386 160.338, 55.846 159.529 C 57.306 158.720, 60.360 157.592, 62.634 157.022 C 64.907 156.452, 67.325 155.314, 68.006 154.493 C 69.892 152.220, 72.841 152.704, 80.370 156.519 C 84.149 158.433, 88.087 160, 89.120 160 C 90.154 160, 91 160.482, 91 161.071 C 91 161.661, 91.711 161.432, 92.581 160.562 C 93.450 159.693, 94.544 159.218, 95.012 159.507 C 95.479 159.796, 96.165 159.541, 96.536 158.941 C 97.390 157.559, 101.974 161.691, 102.063 163.924 C 102.104 164.925, 102.457 164.679, 103.031 163.250 C 104.086 160.626, 105.274 160.417, 107.348 162.491 C 108.478 163.621, 108.961 163.682, 109.341 162.741 C 109.616 162.058, 109.878 162.738, 109.921 164.250 C 109.964 165.762, 110.350 167, 110.777 167 C 111.205 167, 113.030 168.348, 114.833 169.995 C 116.637 171.642, 119.016 173.473, 120.120 174.064 C 121.706 174.913, 122.010 175.808, 121.567 178.320 C 121.149 180.687, 121.233 180.989, 121.895 179.500 C 122.714 177.661, 122.843 177.641, 123.500 179.250 C 123.893 180.213, 124.773 181, 125.456 181 C 126.140 181, 127.538 183.036, 128.564 185.524 C 129.627 188.102, 130.941 189.853, 131.617 189.594 C 133.412 188.905, 133.908 192.380, 132.402 195.098 C 130.817 197.957, 130.597 200.367, 132 199.500 C 133.483 198.584, 133.212 200.930, 131.656 202.487 C 130.788 203.355, 130.455 205.419, 130.714 208.320 C 130.940 210.843, 130.652 213.097, 130.058 213.464 C 129.476 213.824, 129 214.597, 129 215.181 C 129 215.811, 129.690 215.685, 130.692 214.872 C 131.842 213.940, 132.143 213.901, 131.633 214.750 C 131.149 215.556, 131.491 216, 132.596 216 C 134.212 216, 134.212 216.108, 132.590 217.901 C 130.754 219.930, 131.955 221.729, 134.250 220.387 C 134.938 219.985, 134.600 220.704, 133.500 221.985 L 131.500 224.314 133.749 223.751 C 136.317 223.108, 137.652 224.505, 136.179 226.294 C 134.955 227.781, 134.294 234.628, 135.280 235.613 C 135.899 236.233, 136.376 234.794, 136.174 232.917 C 136.139 232.596, 136.795 232.333, 137.632 232.333 C 138.818 232.333, 139.080 233.339, 138.826 236.917 C 138.647 239.438, 138.050 241.831, 137.500 242.235 C 136.935 242.650, 137.262 242.976, 138.250 242.985 C 140.268 243.002, 140.462 244.268, 138.897 247.193 C 138.072 248.734, 138.099 249.443, 139.004 250.002 C 139.669 250.414, 139.969 251.594, 139.670 252.625 C 139.175 254.329, 138.324 262.011, 137.468 272.500 C 136.517 284.155, 131.405 295.861, 125.563 299.764 C 122.794 301.614, 121.898 301.710, 116.217 300.762 C 110.494 299.807, 109.736 299.892, 107.717 301.719 C 106.498 302.822, 103.256 304.269, 100.513 304.936 C 97.771 305.603, 94.910 306.660, 94.157 307.285 C 93.403 307.910, 91.885 308.889, 90.782 309.461 C 87.814 311, 87.270 319.527, 90.030 321.251 C 91.113 321.927, 92 323, 92 323.634 C 92 325.533, 94.633 325.983, 103.282 325.561 C 109.604 325.253, 112.761 325.603, 116.965 327.080 C 123.548 329.392, 129.273 329.521, 135.041 327.486 C 137.402 326.653, 140.158 326.233, 141.167 326.553 C 142.282 326.907, 143 326.642, 143 325.876 C 143 325.088, 143.467 325.245, 144.250 326.295 C 145.905 328.516, 162.165 329.938, 164.429 328.059 C 165.245 327.382, 166.382 327.118, 166.956 327.473 C 167.530 327.828, 168 327.416, 168 326.559 C 168 325.702, 168.408 325, 168.906 325 C 169.405 325, 169.577 324.100, 169.290 323 C 168.997 321.882, 169.259 321, 169.883 321 C 170.498 321, 171 321.498, 171 322.107 C 171 322.716, 171.642 322.968, 172.427 322.666 C 173.212 322.365, 174.348 322.714, 174.952 323.442 C 175.556 324.170, 177.839 324.790, 180.025 324.820 C 183.390 324.866, 184 324.558, 184 322.815 C 184 321.175, 184.282 320.989, 185.383 321.903 C 186.458 322.795, 186.911 322.673, 187.416 321.358 C 187.773 320.427, 187.601 319.201, 187.033 318.633 C 185.406 317.006, 185.829 315.613, 187.523 317.019 C 188.816 318.092, 188.939 317.997, 188.336 316.391 C 187.718 314.747, 187.838 314.673, 189.249 315.819 C 190.500 316.836, 191.361 316.877, 193.001 316 C 194.808 315.032, 194.931 314.621, 193.815 313.276 C 192.667 311.892, 192.912 311.904, 195.750 313.371 C 197.537 314.295, 199 314.616, 199 314.085 C 199 312.990, 201.601 314.261, 207.505 318.241 C 210.191 320.052, 212.249 320.748, 213.755 320.354 C 216.370 319.670, 216.327 319.812, 214.873 316.622 C 213.930 314.550, 214.173 313.293, 216.373 308.878 C 220.270 301.058, 219.887 297.323, 215.250 297.925 C 214.488 298.024, 214 296.899, 214 295.044 C 214 293.370, 213.602 292, 213.117 292 C 212.631 292, 211.983 291.042, 211.676 289.870 C 211.323 288.518, 210.586 287.945, 209.658 288.301 C 207.972 288.948, 206.601 285.217, 207.913 283.552 C 208.370 282.973, 208.608 281.662, 208.444 280.638 C 208.256 279.473, 208.876 278.584, 210.100 278.264 C 211.333 277.941, 211.878 277.151, 211.576 276.126 C 211.311 275.232, 210.774 273.150, 210.382 271.500 C 209.712 268.685, 209.781 268.592, 211.497 270 C 212.897 271.149, 213.424 271.206, 213.748 270.244 C 213.981 269.553, 214.659 269.289, 215.255 269.658 C 215.950 270.087, 216.099 269.730, 215.670 268.664 C 215.301 267.749, 214.727 266.325, 214.393 265.500 C 214.001 264.532, 214.364 264, 215.416 264 C 216.888 264, 216.874 263.736, 215.273 261.289 C 214.298 259.797, 214.011 258.892, 214.636 259.277 C 215.307 259.691, 215.996 259.122, 216.319 257.888 C 216.620 256.739, 217.295 256.064, 217.819 256.388 C 218.344 256.713, 219.325 256.313, 220 255.500 C 220.675 254.687, 221.695 254.312, 222.268 254.666 C 222.872 255.039, 223.010 254.825, 222.595 254.155 C 222.164 253.457, 222.547 253, 223.563 253 C 224.944 253, 225.022 252.732, 224.001 251.501 C 222.922 250.202, 223.207 250.090, 226.128 250.669 C 229.228 251.283, 229.386 251.199, 228.088 249.621 C 227.152 248.484, 226.449 248.273, 226.003 248.996 C 225.557 249.717, 224.511 249.394, 222.914 248.041 C 221.011 246.429, 220.905 246.138, 222.414 246.668 C 223.872 247.180, 224.125 247.012, 223.478 245.965 C 223.011 245.209, 222.483 243.259, 222.305 241.632 L 221.981 238.673 224.162 240.586 C 225.362 241.639, 226.037 241.973, 225.662 241.329 C 224.559 239.436, 224.183 234, 225.154 234 C 225.645 234, 225.280 232.831, 224.344 231.402 C 222.990 229.336, 222.880 228.422, 223.805 226.941 C 225.055 224.939, 224.372 221.652, 222.895 222.565 C 222.403 222.869, 222 222.368, 222 221.451 C 222 220.157, 222.579 219.929, 224.584 220.432 C 226.465 220.904, 226.964 220.751, 226.420 219.870 C 225.908 219.043, 226.188 218.858, 227.304 219.286 C 229.710 220.210, 230.512 218.067, 228.476 216.154 C 226.842 214.618, 226.757 214.618, 227.289 216.151 C 228.004 218.214, 224.379 219.429, 223.596 217.389 C 223.303 216.625, 223.525 216, 224.090 216 C 224.656 216, 224.879 215.612, 224.586 215.139 C 224.293 214.665, 223.856 212.682, 223.614 210.733 C 223.258 207.867, 223.541 207.092, 225.091 206.686 C 226.501 206.318, 227.170 206.829, 227.619 208.619 C 227.955 209.958, 229.112 211.525, 230.191 212.102 C 231.949 213.043, 232.040 212.943, 231.070 211.131 C 230.476 210.020, 229.561 208.847, 229.038 208.524 C 228.515 208.200, 228.362 207.220, 228.698 206.344 C 229.059 205.403, 228.633 204.374, 227.654 203.827 C 226.745 203.317, 226 202.213, 226 201.374 C 226 200.389, 226.889 200.903, 228.500 202.818 C 229.875 204.452, 231 206.736, 231 207.894 C 231 209.369, 231.631 210, 233.108 210 C 234.858 210, 235.110 209.575, 234.589 207.500 C 233.761 204.200, 234.426 204.346, 238.020 208.250 C 240.747 211.212, 241.106 211.343, 242.067 209.729 C 242.648 208.755, 243.549 208.221, 244.070 208.543 C 244.591 208.865, 245.418 208.087, 245.908 206.814 C 246.695 204.772, 246.883 204.706, 247.507 206.250 C 247.896 207.213, 248.841 208, 249.607 208 C 250.373 208, 251 208.422, 251 208.938 C 251 209.454, 251.787 209.861, 252.750 209.844 C 255.525 209.794, 259.078 210.820, 260.653 212.127 C 261.829 213.103, 262.205 212.931, 262.655 211.210 C 263.177 209.216, 263.351 209.184, 265.605 210.661 C 266.922 211.524, 268 211.867, 268 211.424 C 268 210.981, 268.643 211.491, 269.429 212.559 C 270.760 214.368, 270.903 214.381, 271.536 212.750 C 271.909 211.788, 272.855 211, 273.638 211 C 275.644 211, 276.575 214.023, 274.896 215.086 C 273.846 215.750, 274.059 215.973, 275.750 215.985 C 277.342 215.996, 278 215.412, 278 213.992 C 278 212.233, 278.249 212.139, 280 213.232 C 281.100 213.919, 282 215.048, 282 215.741 C 282 216.433, 282.398 217, 282.883 217 C 284.069 217, 285.230 220.874, 285.029 224.163 C 284.938 225.666, 285.541 227.204, 286.414 227.692 C 287.693 228.408, 287.779 229.218, 286.908 232.373 C 285.718 236.680, 286.512 238.388, 288.463 235.719 C 289.613 234.147, 289.834 234.124, 290.369 235.518 C 290.702 236.386, 290.740 238.565, 290.455 240.362 C 288.776 250.923, 289.860 260.119, 292.180 255 C 293.612 251.839, 292.964 258.841, 291.500 262.346 C 289.588 266.922, 289.572 268.948, 291.468 266.441 C 293.696 263.496, 293.284 266.405, 290.901 270.443 C 289.688 272.499, 289.277 274, 289.927 274 C 290.696 274, 290.614 274.868, 289.666 276.750 C 288.904 278.262, 287.996 280.688, 287.649 282.139 C 287.226 283.907, 286.131 285.001, 284.333 285.453 C 282.856 285.823, 279.920 287.961, 277.808 290.204 C 271.067 297.361, 271.408 301.950, 279.089 307.469 C 282.903 310.209, 286.079 311.494, 291.683 312.566 C 306.539 315.409, 324.468 313.719, 333.012 308.672 C 335.480 307.213, 338.963 305.257, 340.750 304.325 C 342.538 303.392, 344 302.099, 344 301.450 C 344 300.802, 345.364 298.748, 347.031 296.886 C 348.698 295.023, 350.332 292.246, 350.663 290.714 C 350.994 289.182, 352.102 287.342, 353.126 286.624 C 354.150 285.907, 354.690 285.023, 354.327 284.660 C 353.964 284.297, 354.395 284, 355.286 284 C 356.741 284, 356.766 283.540, 355.534 279.445 C 354.290 275.312, 354.309 275.011, 355.745 276.195 C 357.161 277.362, 357.194 277.249, 356.060 275.123 C 355.031 273.191, 355.038 272.594, 356.099 271.939 C 356.817 271.495, 357.808 271.382, 358.302 271.687 C 358.796 271.992, 358.705 271.317, 358.100 270.186 C 356.577 267.340, 356.726 266.527, 358.500 268 C 359.446 268.785, 360 268.852, 360 268.181 C 360 267.597, 359.550 266.840, 359 266.500 C 357.454 265.544, 357.819 263.717, 359.432 264.336 C 360.462 264.731, 360.287 263.906, 358.808 261.400 C 356.388 257.298, 357.319 255.448, 360.086 258.861 C 362.289 261.578, 362.305 261.552, 361.091 257.319 C 360.059 253.720, 360.678 252.487, 362.681 254.150 C 363.775 255.059, 363.911 254.908, 363.368 253.391 C 362.995 252.351, 362.246 250.927, 361.703 250.227 C 360.956 249.263, 361.175 249.117, 362.609 249.624 C 364.158 250.173, 364.274 250.051, 363.250 248.947 C 361.138 246.671, 361.867 245.572, 364.146 247.595 C 366.275 249.486, 366.283 249.484, 365.146 247.316 C 363.615 244.397, 363.702 243.672, 365.500 244.362 C 367.492 245.126, 367.396 244.102, 365.250 241.696 C 363.555 239.796, 363.578 239.756, 366 240.419 C 368.124 241.001, 368.274 240.908, 366.999 239.802 C 365.330 238.355, 364.765 230, 366.336 230 C 366.872 230, 366.453 229.023, 365.405 227.828 C 364.357 226.634, 364.063 225.985, 364.750 226.387 C 366.126 227.192, 366.563 224.466, 365.194 223.620 C 364.165 222.984, 364.929 216.162, 366.110 215.432 C 366.600 215.129, 367 213.538, 367 211.896 C 367 210.043, 367.949 207.960, 369.500 206.409 C 370.875 205.034, 372 203.494, 372 202.986 C 372 202.478, 372.717 202.338, 373.593 202.674 C 374.730 203.111, 375.074 204.236, 374.797 206.614 C 374.323 210.674, 376.666 212.180, 377.609 208.421 C 378.406 205.245, 380.400 205.808, 380.816 209.327 C 380.990 210.797, 381.558 212, 382.078 212 C 382.621 212, 382.751 213.703, 382.384 216 C 381.639 220.661, 383.080 221.334, 385.592 217.500 C 388.001 213.824, 388.834 214.443, 387.948 219.250 C 387.516 221.588, 387.413 224.762, 387.718 226.304 L 388.272 229.109 390.087 225.054 C 392.309 220.092, 393.249 219.886, 392.856 224.446 C 392.693 226.342, 392.884 228.217, 393.280 228.613 C 393.676 229.009, 394.032 228.471, 394.070 227.417 C 394.138 225.574, 394.170 225.577, 394.913 227.478 C 395.669 229.413, 395.711 229.409, 396.836 227.306 C 399.635 222.076, 403.621 220.678, 402.452 225.335 C 402.147 226.552, 402.342 228.661, 402.885 230.024 C 403.429 231.386, 403.902 231.911, 403.937 231.191 C 403.971 230.471, 404.390 230.123, 404.866 230.417 C 405.342 230.711, 405.501 232.158, 405.220 233.631 C 404.771 235.976, 404.975 236.240, 406.854 235.748 C 408.701 235.265, 409.014 235.627, 409.100 238.344 C 409.195 241.372, 409.232 241.399, 410 239 C 410.534 237.333, 410.834 237.083, 410.900 238.250 C 411.042 240.741, 414 240.446, 414 237.941 C 414 236.809, 414.450 236.160, 415 236.500 C 415.550 236.840, 416 238.265, 416 239.666 C 416 241.560, 416.399 242.061, 417.555 241.617 C 418.648 241.198, 419.523 242.007, 420.498 244.340 C 421.994 247.921, 424.045 250.037, 426.349 250.375 C 429.196 250.793, 431 253.268, 431 256.754 C 431 258.685, 431.945 261.792, 433.099 263.660 C 434.787 266.391, 434.959 267.345, 433.977 268.528 C 433.305 269.338, 432.045 270, 431.176 270 C 428.465 270, 419.532 276.010, 417.213 279.394 C 415.524 281.860, 415.009 284.029, 415.039 288.562 C 415.078 294.465, 415.106 294.521, 419.789 297.981 C 422.380 299.895, 426.525 302.202, 429 303.106 C 437.988 306.392, 440.016 307.474, 440.593 309.293 C 441.112 310.927, 441.377 310.975, 442.841 309.704 C 443.753 308.910, 445.062 308.465, 445.749 308.714 C 446.437 308.963, 447.287 308.416, 447.639 307.499 C 448.106 306.281, 448.481 306.160, 449.032 307.052 C 449.583 307.943, 450.261 307.719, 451.540 306.224 C 452.505 305.097, 453.842 304.386, 454.511 304.642 C 455.180 304.899, 457.025 303.735, 458.610 302.055 C 460.196 300.375, 462.069 299, 462.772 299 C 463.474 299, 464.494 297.831, 465.037 296.403 C 465.580 294.975, 466.919 293.573, 468.012 293.287 C 469.105 293.001, 470 292.369, 470 291.883 C 470 291.398, 471.377 291, 473.059 291 C 474.825 291, 475.859 290.581, 475.506 290.009 C 475.169 289.464, 476.605 288.227, 478.697 287.259 C 483.033 285.253, 485.144 283.069, 484.503 281.250 C 484.261 280.563, 484.499 280, 485.031 280 C 485.564 280, 486 279.578, 486 279.062 C 486 278.546, 487.350 276.645, 489 274.839 C 490.650 273.032, 492 271.017, 492 270.360 C 492 269.704, 492.518 268.994, 493.152 268.783 C 496.624 267.625, 498.533 242.908, 495.526 238.043 C 495.070 237.305, 495.319 236.412, 496.122 235.904 C 497.120 235.271, 497.155 235.026, 496.250 235.015 C 494.177 234.990, 494.844 232.998, 497.250 232.031 L 499.500 231.127 497.191 231.063 C 495.921 231.029, 495.148 230.570, 495.473 230.044 C 495.798 229.518, 496.837 229.348, 497.782 229.667 C 498.727 229.985, 498.375 229.429, 497 228.431 C 493.476 225.872, 493.054 224.988, 494.077 222.298 C 494.754 220.518, 494.607 219.787, 493.489 219.357 C 492.670 219.043, 492 217.972, 492 216.976 C 492 215.981, 491.437 214.977, 490.750 214.746 C 489.755 214.411, 489.753 214.019, 490.739 212.824 C 491.776 211.566, 491.250 210.800, 487.489 208.099 C 485.020 206.326, 483 204.624, 483 204.315 C 483 204.007, 483.675 204.315, 484.500 205 C 485.325 205.685, 486.038 206.077, 486.083 205.872 C 486.567 203.709, 486.534 201, 486.024 201 C 485.671 201, 484.509 200.292, 483.441 199.426 C 481.549 197.891, 481.556 197.864, 483.750 198.332 C 486.605 198.942, 486.573 198.440, 483.500 194.411 C 482.125 192.608, 481 190.293, 481 189.267 C 481 188.240, 480.460 186.860, 479.800 186.200 C 478.867 185.267, 479.097 185, 480.835 185 C 482.735 185, 482.915 184.710, 482.035 183.066 C 480.625 180.430, 480.720 180.013, 482.750 179.921 C 483.853 179.871, 483.483 179.471, 481.750 178.838 C 478.764 177.747, 478.006 174.595, 480.500 173.638 C 482.876 172.727, 482.244 171, 479.535 171 C 478.094 171, 476.626 170.170, 476 169 C 475.077 167.276, 475.245 166.991, 477.215 166.932 L 479.500 166.865 477.250 165.780 C 476.012 165.183, 475 164.088, 475 163.347 C 475 162.606, 474.550 162, 474 162 C 473.450 162, 473 161.498, 473 160.883 C 473 160.223, 474.052 159.968, 475.576 160.259 C 478.131 160.748, 478.124 160.724, 474.826 157.320 C 472.997 155.433, 471.594 153.697, 471.709 153.463 C 471.824 153.228, 471.068 151.136, 470.027 148.812 C 467.857 143.964, 468.097 142.967, 471.251 143.737 C 473.400 144.261, 473.378 144.155, 470.750 141.338 C 469.237 139.717, 468 137.558, 468 136.540 C 468 134.753, 468.068 134.752, 470 136.500 C 471.293 137.670, 472 137.870, 472 137.065 C 472 136.381, 470.988 134.954, 469.750 133.895 L 467.500 131.969 470.229 132.588 C 472.911 133.196, 472.890 133.132, 469.018 128.897 C 466.852 126.527, 465.294 124.373, 465.556 124.110 C 465.819 123.848, 466.566 124.166, 467.217 124.817 C 467.868 125.468, 468.746 126, 469.169 126 C 470.425 126, 468.909 122.813, 465.222 117.703 C 463.318 115.065, 462.041 112.626, 462.384 112.283 C 462.727 111.940, 462.294 110.572, 461.424 109.243 C 460.553 107.914, 460.102 106.565, 460.422 106.244 C 460.742 105.924, 460.241 104.819, 459.308 103.788 C 457.702 102.013, 457.715 101.949, 459.556 102.578 C 460.998 103.070, 460.779 102.590, 458.708 100.718 C 457.172 99.330, 456.397 98.034, 456.986 97.838 C 457.574 97.642, 456.279 95.518, 454.106 93.118 C 451.934 90.718, 450.396 88.132, 450.688 87.371 C 450.985 86.596, 449.411 84.126, 447.109 81.754 C 444.849 79.426, 443 77.014, 443 76.395 C 443 75.776, 442.115 74.144, 441.033 72.769 C 439.951 71.393, 439.351 69.983, 439.699 69.634 C 440.048 69.285, 439.696 68.988, 438.917 68.972 C 436.977 68.934, 432.353 64.059, 431.080 60.711 C 430.506 59.200, 429.006 57.572, 427.747 57.094 C 426.488 56.615, 424.829 55.048, 424.060 53.612 C 423.291 52.175, 422.232 51, 421.707 51 C 421.182 51, 417.995 49.136, 414.626 46.857 C 411.257 44.578, 409.512 42.961, 410.750 43.263 C 414.780 44.248, 412.586 41.389, 407.158 38.582 C 405.373 37.659, 403.408 35.795, 402.790 34.439 C 402.173 33.083, 399.717 31, 397.334 29.810 C 394.950 28.619, 393 27.014, 393 26.242 C 393 25.471, 391.200 24.132, 389 23.268 C 386.800 22.404, 385 21.138, 385 20.455 C 385 19.155, 382.839 18, 380.407 18 C 379.621 18, 376.846 17.063, 374.239 15.919 C 363.978 11.413, 362.866 11, 360.986 11 C 359.916 11, 357.344 10.338, 355.270 9.529 C 353.197 8.720, 347.900 7.584, 343.500 7.005 C 339.100 6.425, 333.025 5.482, 330 4.911 C 322.291 3.453, 299.397 2.921, 294 4.074 C 291.525 4.603, 284.775 5.473, 279 6.007 C 264.880 7.314, 261.638 7.782, 255.088 9.463 C 252.015 10.252, 248.243 11.119, 246.707 11.390 C 245.170 11.661, 241.404 12.613, 238.337 13.504 C 235.270 14.396, 231.577 15.020, 230.130 14.891 C 227.252 14.634, 219.083 15.882, 217.518 16.818 C 216.483 17.437, 216.156 17.500, 209 18.463 C 205.163 18.979, 203.489 18.559, 197.636 15.609 C 193.860 13.707, 190.152 12.388, 189.394 12.679 C 188.637 12.970, 187.740 12.486, 187.401 11.604 C 187.063 10.722, 185.871 10, 184.753 10 C 183.635 10, 182.164 9.238, 181.483 8.308 C 180.605 7.107, 178.787 6.615, 175.228 6.615 C 171.792 6.615, 170.353 6.244, 170.662 5.439 C 171.244 3.921, 166.035 2.298, 164.739 3.595 M 470.638 157.500 C 470.955 158.325, 471.671 159, 472.229 159 C 472.815 159, 472.718 158.365, 472 157.500 C 471.315 156.675, 470.599 156, 470.409 156 C 470.219 156, 470.322 156.675, 470.638 157.500 M 478 180.819 C 478 182.027, 479.897 183.436, 480.591 182.743 C 480.842 182.491, 480.362 181.716, 479.524 181.020 C 478.574 180.231, 478 180.155, 478 180.819 M 133.667 205.667 C 133.300 206.033, 133 206.798, 133 207.367 C 133 207.993, 133.466 207.934, 134.183 207.217 C 134.834 206.566, 135.134 205.801, 134.850 205.517 C 134.566 205.232, 134.033 205.300, 133.667 205.667 M 487.500 211 C 487.840 211.550, 488.879 211.993, 489.809 211.985 C 491.266 211.971, 491.293 211.835, 490 211 C 488.042 209.734, 486.718 209.734, 487.500 211 M 137.079 229.583 C 137.127 230.748, 137.364 230.985, 137.683 230.188 C 137.972 229.466, 137.936 228.603, 137.604 228.271 C 137.272 227.939, 137.036 228.529, 137.079 229.583 M 220.500 233 C 220.840 233.550, 221.568 234, 222.118 234 C 222.668 234, 222.840 233.550, 222.500 233 C 222.160 232.450, 221.432 232, 220.882 232 C 220.332 232, 220.160 232.450, 220.500 233 M 207.636 275.506 C 207.321 276.328, 207.472 277, 207.972 277 C 209.328 277, 210.170 275.223, 209.121 274.575 C 208.620 274.265, 207.952 274.684, 207.636 275.506" fill="none" stroke="#000" stroke-width="2px" fill-rule="evenodd"/>
</svg>
