<svg xmlns="http://www.w3.org/2000/svg" width="919" height="440" viewBox="0 0 919 440" version="1.1">
	<path d="M 83 11.527 C 59.199 15.259, 33.410 28.801, 20.823 44.175 C 10.542 56.733, 3.988 78.837, 4.011 100.881 C 4.034 124.142, 9.586 161.416, 16.567 185.180 C 25.225 214.652, 30.700 244.135, 31.964 268.092 C 32.760 283.178, 32.953 284.180, 37.901 298.996 C 45.239 320.965, 60.334 358.350, 67.983 373.500 C 77.171 391.696, 84.950 402.960, 95.991 414.053 C 106.583 424.694, 112.810 428.516, 125.535 432.184 C 133.446 434.464, 133.852 434.478, 185 434.198 C 262.823 433.772, 289.798 432.746, 374 427.008 C 430.500 423.158, 427.643 423.445, 448.500 419.522 C 465.153 416.390, 487.423 413.310, 521 409.496 C 583.026 402.449, 620.432 397.530, 647 392.926 C 680.511 387.119, 721.622 377.195, 735.175 371.641 C 739.754 369.764, 744.625 367.926, 746 367.555 C 747.375 367.185, 752.775 365.378, 758 363.540 C 763.225 361.701, 770.200 359.651, 773.500 358.984 C 776.800 358.317, 781.975 357.109, 785 356.301 C 788.025 355.493, 793.650 354.388, 797.500 353.846 C 814.414 351.464, 823.256 349.684, 834.227 346.454 C 844.463 343.439, 847.347 343, 856.911 343 C 872.161 343, 882.211 340.634, 904.150 331.879 C 912.522 328.539, 915 326.258, 915 321.894 C 915 318.365, 908.856 312.831, 902.404 310.547 C 899.707 309.593, 896.306 308.179, 894.846 307.406 C 893.386 306.633, 890.619 306, 888.696 306 C 886.362 306, 883.482 304.843, 880.027 302.518 C 877.181 300.603, 872.973 298.544, 870.676 297.942 C 868.379 297.339, 864.250 295.924, 861.500 294.797 C 858.750 293.669, 853.350 291.787, 849.500 290.614 C 845.650 289.441, 840.475 287.105, 838 285.424 C 835.525 283.742, 828.775 280.076, 823 277.276 C 817.225 274.476, 809.106 269.964, 804.957 267.248 C 795.504 261.060, 776.869 244.019, 762.826 228.719 C 752.189 217.130, 738.566 204.656, 730.145 198.792 C 727.749 197.124, 721.817 194.036, 716.961 191.930 C 701.789 185.350, 698.106 183.128, 684.111 172.112 C 638.069 135.872, 626.359 128.380, 603 120.217 C 589.171 115.384, 577.283 113.207, 544 109.411 C 501.674 104.584, 477.319 103.955, 446 106.878 C 433.625 108.033, 415.850 109.262, 406.500 109.610 L 389.500 110.241 375.475 106.749 C 367.761 104.828, 358.732 101.884, 355.409 100.207 C 347.093 96.008, 330.228 90.254, 322.725 89.054 C 319.301 88.507, 304.800 86.414, 290.500 84.403 C 260.998 80.254, 239.146 79.427, 223.922 81.884 C 211.288 83.923, 209.739 83.199, 200.426 70.902 C 196.293 65.444, 189.218 56.595, 184.705 51.236 C 180.192 45.877, 175.150 39.505, 173.500 37.076 C 160.588 18.062, 117.997 6.039, 83 11.527" fill="none" stroke="#000" stroke-width="2px" fill-rule="evenodd"/>
</svg>
