<svg xmlns="http://www.w3.org/2000/svg" width="500" height="358" viewBox="0 0 500 358" version="1.1">
	<path d="M 283.462 5.281 C 282.445 5.850, 279.788 6.423, 277.557 6.554 C 271.854 6.888, 264.599 8.703, 264.202 9.894 C 263.983 10.551, 263.050 10.524, 261.493 9.815 C 259.587 8.946, 258.459 9.122, 255.779 10.703 C 251.099 13.464, 248.923 13.875, 235.418 14.546 C 228.422 14.893, 222.674 15.668, 221.500 16.421 C 220.400 17.126, 216.575 18.717, 213 19.955 C 209.425 21.194, 204.925 23.252, 203 24.530 C 201.075 25.808, 197.700 27.600, 195.500 28.512 C 191.013 30.372, 183.222 34.247, 171.812 40.295 C 166.430 43.147, 163.950 45.064, 163.543 46.685 C 163.223 47.958, 162.527 49, 161.996 49 C 160.416 49, 144.391 65.247, 142.763 68.500 C 138.502 77.012, 137.634 88.816, 140.836 94.722 C 142.158 97.161, 142.581 103.803, 141.713 108.500 C 141.408 110.150, 140.859 113.975, 140.492 117 C 140.126 120.025, 138.515 126.757, 136.913 131.960 C 135.311 137.163, 134 142.045, 134 142.809 C 134 143.573, 133.387 145.616, 132.638 147.349 C 131.888 149.082, 130.744 152.975, 130.096 156 C 128.547 163.224, 127.110 168.586, 125.397 173.533 C 124.628 175.752, 124 178.345, 124 179.297 C 124 180.249, 123.568 181.809, 123.040 182.764 C 122.513 183.719, 121.640 186.525, 121.101 189 C 117.812 204.113, 115.715 211.601, 114.128 213.894 C 113.136 215.328, 111.738 218.658, 111.020 221.295 C 110.105 224.657, 108.644 226.972, 106.130 229.045 C 104.158 230.670, 102.084 232.005, 101.522 232.011 C 100.960 232.016, 98.250 233.812, 95.500 236 C 92.265 238.574, 89.469 239.982, 87.579 239.989 C 85.972 239.995, 83.786 240.788, 82.720 241.750 C 80.003 244.205, 59.994 244.143, 55.500 241.666 C 53.850 240.756, 50.561 240.010, 48.191 240.006 C 45.821 240.003, 44.130 239.599, 44.432 239.110 C 45.718 237.030, 36.186 236.766, 31 238.737 C 30.175 239.051, 28.375 239.484, 27 239.699 C 25.625 239.914, 24 240.745, 23.390 241.545 C 22.779 242.345, 21.821 243, 21.260 243 C 19.452 243, 12 250.937, 12 252.864 C 12 253.890, 11.057 255.929, 9.904 257.395 C 8.752 258.860, 8.048 260.683, 8.341 261.447 C 8.634 262.210, 8.253 263.073, 7.495 263.364 C 6.737 263.655, 6.080 264.704, 6.036 265.696 C 5.746 272.254, 5.986 276.386, 6.687 276.902 C 7.436 277.453, 7.632 278.268, 8.219 283.250 C 8.333 284.212, 8.940 285, 9.568 285 C 10.196 285, 11.980 287.009, 13.531 289.464 C 15.083 291.919, 17.511 294.412, 18.926 295.003 C 20.342 295.595, 23.750 297.240, 26.500 298.658 C 33.559 302.299, 35.339 302.523, 55.500 302.308 C 72.092 302.130, 74.439 301.871, 85.500 298.989 C 92.100 297.269, 97.892 295.478, 98.372 295.009 C 98.851 294.540, 99.804 294.371, 100.488 294.634 C 101.981 295.207, 113.099 291.586, 118 288.931 C 119.925 287.888, 122.625 286.566, 124 285.994 C 125.375 285.421, 128.300 283.854, 130.500 282.512 C 132.700 281.169, 135.850 279.398, 137.500 278.575 C 139.150 277.753, 143.129 273.912, 146.342 270.040 C 153.263 261.699, 156.351 260.727, 157.443 266.547 C 157.809 268.498, 157.809 272.090, 157.443 274.529 C 156.922 278.005, 157.234 279.837, 158.889 283.012 C 160.050 285.239, 161 288.160, 161 289.503 C 161 291.617, 161.770 292.165, 166.750 293.593 C 169.912 294.500, 172.950 295.578, 173.500 295.990 C 174.383 296.651, 183.851 299.210, 186.500 299.503 C 187.050 299.564, 188.175 299.891, 189 300.229 C 196.804 303.426, 219.235 309.224, 219.915 308.219 C 221.589 305.745, 228.097 306.479, 230.149 309.375 C 230.506 309.878, 232.306 309.966, 234.149 309.570 C 235.992 309.173, 241.550 308.651, 246.500 308.410 C 259.936 307.756, 261.865 307.030, 258.694 303.821 C 257.976 303.095, 257.100 301.739, 256.748 300.808 C 256.396 299.878, 254.846 298.327, 253.304 297.363 C 247.958 294.020, 240.306 285.549, 238.975 281.500 C 237.146 275.940, 237.307 266.044, 239.390 256 C 240.359 251.325, 241.547 245.475, 242.030 243 C 242.514 240.525, 243.188 237.375, 243.529 236 C 243.870 234.625, 244.784 230.060, 245.559 225.856 C 247.274 216.557, 248.668 212.677, 249.998 213.499 C 250.981 214.106, 251.409 210.478, 251.030 204.741 C 250.929 203.224, 251.850 200.361, 253.075 198.378 C 255.173 194.985, 255.542 194.806, 259.401 195.315 C 265.138 196.073, 267.538 196.683, 270.028 198.015 C 271.215 198.650, 273.218 198.911, 274.479 198.595 C 277.229 197.905, 278.517 199.291, 279.500 204 C 279.902 205.925, 280.680 208.058, 281.229 208.739 C 281.778 209.421, 282.590 214.885, 283.034 220.881 C 283.478 226.878, 284.533 233.970, 285.379 236.642 C 286.224 239.314, 287.875 244.425, 289.047 248 C 290.220 251.575, 291.527 256.179, 291.952 258.232 C 292.377 260.284, 293.236 262.580, 293.861 263.333 C 294.486 264.086, 295.285 266.906, 295.637 269.601 C 295.989 272.295, 296.682 275.289, 297.176 276.254 C 298.584 279.002, 296.323 285.536, 292.875 288.685 C 285.574 295.352, 285.239 295.938, 284.750 302.873 C 284.492 306.518, 284.614 309.873, 285.020 310.329 C 285.426 310.785, 287.612 311.407, 289.879 311.711 C 292.146 312.015, 294 312.614, 294 313.042 C 294 313.470, 297.938 314.128, 302.750 314.503 C 308.524 314.954, 315.071 316.365, 322 318.653 C 329.050 320.981, 334.526 322.152, 338.666 322.216 C 344.884 322.312, 345.149 322.192, 349.205 317.440 C 351.734 314.477, 353.943 304.777, 354.611 293.703 C 355.212 283.748, 354.995 282.549, 350.951 273.500 C 349.967 271.300, 348.968 267.652, 348.729 265.394 C 348.491 263.135, 347.992 260.796, 347.620 260.195 C 346.538 258.443, 346.125 234.674, 347.144 232.750 C 348.427 230.326, 352.673 230.520, 354.035 233.065 C 354.903 234.687, 355.437 234.882, 356.531 233.974 C 358.291 232.513, 363.983 234.219, 366.453 236.948 C 367.385 237.978, 369.233 239.093, 370.561 239.426 C 372.283 239.858, 372.931 240.672, 372.822 242.266 C 372.667 244.542, 375.966 256.091, 377.032 257 C 377.847 257.695, 381.491 270.900, 383.516 280.500 C 384.445 284.900, 385.608 289.805, 386.102 291.399 C 387.382 295.532, 387.196 300.675, 385.542 306.891 C 384.320 311.480, 384.310 312.870, 385.470 316.239 C 386.640 319.634, 386.621 320.914, 385.334 325.248 C 384.478 328.129, 384.099 331.715, 384.452 333.594 C 384.974 336.379, 385.905 337.283, 390.477 339.446 C 393.451 340.853, 396.162 342.453, 396.501 343.002 C 396.840 343.551, 398.014 344, 399.109 344 C 400.204 344, 402.509 344.729, 404.232 345.620 C 408.678 347.919, 426.393 352.095, 433.500 352.519 C 441.773 353.013, 446.235 351.635, 449.909 347.451 C 452.379 344.637, 453 343.031, 453 339.452 C 453 335.667, 452.420 334.346, 449.250 330.911 C 444.999 326.304, 442.595 325.009, 435.021 323.239 C 429.456 321.939, 429.197 318.173, 432.157 281.500 C 432.734 274.350, 433.312 266.475, 433.441 264 C 433.783 257.456, 437.007 243.178, 439.263 238.216 C 440.375 235.772, 441.317 231.246, 441.457 227.677 C 441.593 224.237, 442.311 220.315, 443.054 218.961 C 443.796 217.608, 444.493 216.050, 444.603 215.500 C 444.712 214.950, 445.328 213.150, 445.971 211.500 C 446.614 209.850, 447.147 208.398, 447.155 208.272 C 447.163 208.147, 447.830 205.672, 448.637 202.772 C 449.444 199.873, 450.084 194.800, 450.059 191.500 C 450.021 186.441, 451.344 167.251, 452.473 156.500 C 452.646 154.850, 452.836 152.784, 452.894 151.908 C 453 150.314, 460.641 147.307, 461.755 148.422 C 462.063 148.730, 463.753 147.502, 465.511 145.692 C 467.268 143.882, 469.222 142.574, 469.853 142.784 C 470.484 142.995, 471 142.679, 471 142.083 C 471 141.488, 471.718 140.213, 472.596 139.250 C 473.473 138.287, 475.798 135.025, 477.761 132 C 480.925 127.124, 481.335 125.745, 481.371 119.851 C 481.396 115.717, 480.906 112.592, 480.075 111.591 C 478.943 110.226, 479.163 108.802, 481.522 102.240 C 483.052 97.983, 485.150 92.803, 486.183 90.729 C 488.405 86.270, 488.818 80.691, 487.081 78.598 C 485.932 77.213, 485.082 73.042, 484.718 67 C 484.635 65.625, 484.102 64.169, 483.533 63.765 C 482.932 63.338, 483.231 63.024, 484.250 63.015 C 486.731 62.994, 486.435 61.764, 483.015 57.886 C 478.970 53.297, 478.440 49.453, 480.500 39.639 C 482.081 32.102, 482.098 31.090, 480.685 28.357 C 478.071 23.304, 476.632 22.619, 472.822 24.615 C 470.995 25.572, 468.046 26.334, 466.270 26.308 C 463.776 26.271, 462.479 26.995, 460.583 29.481 C 456.331 35.055, 445.320 37.094, 434.660 34.280 C 433.472 33.967, 430.537 33.594, 428.139 33.452 C 425.740 33.310, 421.690 32.863, 419.139 32.458 C 416.587 32.054, 412.393 31.817, 409.817 31.932 C 405.098 32.143, 394.204 29.637, 390.500 27.489 C 388.523 26.342, 383.907 26.251, 381 27.302 C 380.175 27.600, 377.925 28.107, 376 28.427 C 374.075 28.748, 371.211 29.683, 369.636 30.505 C 365.661 32.580, 365.366 32.505, 359.612 27.971 C 351.646 21.693, 342.770 15.544, 339.750 14.213 C 338.238 13.546, 335.988 12.580, 334.750 12.068 C 333.512 11.555, 330.852 10.397, 328.837 9.495 C 323.984 7.322, 311.604 5.743, 300.620 5.898 C 295.736 5.966, 290.293 5.623, 288.525 5.135 C 286.487 4.572, 284.634 4.626, 283.462 5.281" fill="none" stroke="#000" stroke-width="2px" fill-rule="evenodd"/>
</svg>
