<svg xmlns="http://www.w3.org/2000/svg" width="500" height="143" viewBox="0 0 500 143" version="1.1">
	<path d="M 158 5.715 C 150.418 6.571, 131.763 11.219, 126.772 13.495 C 123.872 14.818, 116.180 17.509, 109.677 19.475 C 97.758 23.080, 86.292 28.316, 78 33.939 C 72.841 37.438, 69.003 37.787, 63.372 35.268 C 60.268 33.880, 56.821 33.558, 45.993 33.648 C 25.422 33.818, 15.107 37.265, 9.275 45.920 C 5.907 50.918, 4.821 55.427, 4.273 66.691 C 3.839 75.615, 4.104 78.020, 6.399 86.023 C 10.942 101.858, 20.303 118.543, 29.314 126.866 C 32.717 130.009, 38.662 130.556, 48 128.585 C 58.057 126.462, 64.722 126.564, 69.327 128.912 C 73.020 130.795, 73.276 130.794, 86.156 128.903 C 93.349 127.847, 102.818 126.068, 107.198 124.950 C 111.577 123.831, 116.015 123.187, 117.058 123.518 C 118.101 123.850, 120.860 125.712, 123.188 127.657 C 126.754 130.636, 127.959 131.106, 130.841 130.638 C 132.945 130.297, 135.379 130.662, 137.168 131.587 C 139.942 133.022, 140.292 132.944, 144.788 129.901 C 147.555 128.028, 151.260 126.510, 153.764 126.224 C 158.985 125.627, 171.528 128.458, 175.188 131.058 C 177.828 132.934, 177.886 132.934, 178.479 131.065 C 179.030 129.331, 179.323 129.287, 181.792 130.575 C 183.281 131.352, 185.216 131.990, 186.091 131.994 C 186.967 131.997, 191.467 133.913, 196.091 136.250 L 204.500 140.500 219 140.312 C 231.635 140.147, 234.400 139.802, 240.500 137.625 L 247.500 135.127 241.731 135.063 C 236.159 135.002, 235.982 134.918, 236.562 132.609 C 236.892 131.294, 236.676 129.918, 236.081 129.550 C 234.102 128.327, 234.965 127, 237.750 126.985 C 239.262 126.976, 241.118 126.578, 241.873 126.099 C 242.662 125.600, 244.708 125.633, 246.676 126.176 C 248.561 126.697, 251.318 126.983, 252.802 126.811 C 255.380 126.514, 255.256 126.321, 250.029 122.500 L 244.558 118.500 253.529 117.242 C 258.463 116.550, 267.450 114.637, 273.500 112.989 C 279.550 111.342, 286.148 109.995, 288.162 109.997 C 293.645 110.002, 305.779 107.465, 312 105.013 L 317.500 102.845 314.500 106.023 C 312.850 107.771, 310.460 109.605, 309.190 110.099 C 302.698 112.621, 313.367 114.287, 327.466 112.953 C 336.133 112.133, 337.565 111.711, 340.542 109.097 C 345.330 104.893, 356.648 102.488, 366.870 103.504 C 371.066 103.921, 375.572 104.203, 376.882 104.131 C 378.191 104.059, 381.536 104.675, 384.313 105.500 C 391.403 107.606, 396.619 107.408, 400.142 104.899 C 403.947 102.189, 409.070 101.540, 416.216 102.862 C 420.012 103.564, 422.876 103.590, 424.742 102.940 C 426.754 102.239, 428.889 102.363, 432.264 103.379 C 436.607 104.686, 437.270 104.643, 440.738 102.825 C 446.009 100.063, 456.502 100.710, 464.294 104.277 L 469.978 106.879 474.949 103.534 C 477.683 101.695, 481.850 99.879, 484.210 99.499 C 489.958 98.573, 492.563 96.758, 496.063 91.240 C 499.829 85.302, 499.759 84.619, 495.637 87.052 L 492.274 89.036 482.887 82.858 C 477.724 79.461, 472.150 76.322, 470.500 75.885 C 459.201 72.887, 450.168 70.892, 441.500 69.482 C 436 68.586, 425.735 66.518, 418.689 64.884 C 411.643 63.251, 403.993 62.008, 401.689 62.123 C 399.336 62.240, 396.098 61.601, 394.300 60.666 C 392.539 59.749, 390.709 59, 390.232 59 C 388.609 59, 347.523 36.432, 342.427 32.741 C 337.560 29.216, 328.346 26, 323.115 26 C 321.759 26, 317.285 27.161, 313.173 28.581 L 305.695 31.162 298.098 29.458 C 283.978 26.290, 279.511 25.080, 261.483 19.535 C 239.204 12.682, 216.496 7.349, 204 6.034 C 194.949 5.082, 165.424 4.877, 158 5.715" fill="none" stroke="#000" stroke-width="2px" fill-rule="evenodd"/>
</svg>
