<?xml version="1.0" encoding="utf-8"?>
<!-- Generator: Adobe Illustrator 17.0.0, SVG Export Plug-In . SVG Version: 6.00 Build 0)  -->
<!DOCTYPE svg PUBLIC "-//W3C//DTD SVG 1.1//EN" "http://www.w3.org/Graphics/SVG/1.1/DTD/svg11.dtd">
<svg version="1.1" id="Слой_1" xmlns="http://www.w3.org/2000/svg" xmlns:xlink="http://www.w3.org/1999/xlink" x="0px" y="0px"
	 width="500px" height="500px" viewBox="0 0 500 500" enable-background="new 0 0 500 500" xml:space="preserve">
<g>
	<defs>
		<rect id="SVGID_1_" x="-0.187" y="-0.947" width="502.659" height="502.659"/>
	</defs>
	<use xlink:href="#SVGID_1_"  overflow="visible" fill="#D4E9F5"/>
	<clipPath id="SVGID_2_">
		<use xlink:href="#SVGID_1_"  overflow="visible"/>
	</clipPath>
	<g clip-path="url(#SVGID_2_)">
		<g>
			<path fill="#FFFFFF" d="M30.068,127.115c-7.056-20.579-2.94-38.807,21.167-39.983c19.992-0.588,18.816,15.876,15.288,31.163
				c0-18.228,47.627,0,21.168,22.932c8.231-14.112,28.224,6.467,15.876,17.639c-5.88,5.292-20.579,2.94-27.635,2.353
				c-14.7,0-30.576-2.353-45.275-1.176c-13.524,1.176-42.106,8.341-41.747-12.936c0.14-8.314,5.941-17.758,25.872-12.936
				c-6.774-14.246,14.7-15.876,14.7-7.056"/>
		</g>
		<g>
			<path fill="#FFFFFF" d="M362.457,289.023c-7.055-20.58-2.939-38.806,21.168-39.983c19.991-0.588,18.815,15.876,15.287,31.163
				c0-18.228,47.627,0,21.168,22.931c8.232-14.112,28.223,6.469,15.875,17.64c-5.879,5.292-20.579,2.94-27.635,2.353
				c-14.699,0-30.574-2.353-45.275-1.177c-13.524,1.177-42.106,8.341-41.747-12.936c0.14-8.314,5.941-17.756,25.872-12.935
				c-6.774-14.246,14.699-15.876,14.699-7.056"/>
		</g>
		<g>
			<path fill="#FFFFFF" d="M308.884,63.194c6.934-20.224,2.889-38.136-20.801-39.292c-19.646-0.578-18.491,15.601-15.023,30.625
				c0-17.912-46.805,0-20.803,22.536c-8.089-13.868-27.735,6.356-15.6,17.335c5.778,5.2,20.223,2.889,27.158,2.311
				c14.445,0,30.046-2.311,44.493-1.156c13.289,1.156,41.378,8.196,41.025-12.712c-0.139-8.171-5.839-17.451-25.425-12.712
				c6.656-14-14.445-15.601-14.445-6.934"/>
		</g>
	</g>
</g>
<g>
	<g>
		<g>
			<path fill="#B9D054" d="M438.613,453.581c-3.788-13.348-25.004-10.678-30.309,0c-2.823-14.921-20.762-13.622-28.106-4.024
				c-4.53-29.007-47.224-32.354-53.814,4.024c-3.788-13.348-25.005-10.678-30.309,0c-3.005-15.882-23.136-13.387-29.385-2.066
				c-2.867-30.801-47.326-35.116-54.062,2.066c-3.788-13.348-25.004-10.678-30.308,0c-2.824-14.921-20.763-13.622-28.108-4.024
				c-4.529-29.007-47.223-32.354-53.814,4.024c-3.788-13.348-25.004-10.678-30.308,0c-3.031-16.018-23.489-13.348-29.551-1.78
				c-4.546-17.797-15.912-24.027-31.066-20.467v26.787v5.833v37.759h482.343V463.49C500.807,422.31,446.143,412.016,438.613,453.581
				z"/>
			<path fill="#E94A51" d="M40.798,463.663c-6.078,0-6.078,9.425,0,9.425C46.876,473.088,46.876,463.663,40.798,463.663z"/>
			<path fill="#E94A51" d="M82.367,478.055c-6.078,0-6.078,9.425,0,9.425C88.445,487.48,88.445,478.055,82.367,478.055z"/>
			<path fill="#E94A51" d="M120.115,458.95c-6.078,0-6.078,9.425,0,9.425C126.193,468.375,126.193,458.95,120.115,458.95z"/>
			<path fill="#E94A51" d="M157.293,476.229c-6.078,0-6.078,9.425,0,9.425C163.371,485.654,163.371,476.229,157.293,476.229z"/>
			<path fill="#E94A51" d="M344.989,476.229c-6.078,0-6.078,9.425,0,9.425C351.067,485.654,351.067,476.229,344.989,476.229z"/>
			<path fill="#E94A51" d="M244.055,446.07c-6.078,0-6.078,9.425,0,9.425C250.132,455.495,250.132,446.07,244.055,446.07z"/>
			<path fill="#E94A51" d="M385.811,464.38c-6.078,0-6.078,9.425,0,9.425C391.889,473.804,391.889,464.38,385.811,464.38z"/>
			<path fill="#E94A51" d="M427.908,479.042c-6.078,0-6.078,9.425,0,9.425C433.986,488.467,433.986,479.042,427.908,479.042z"/>
			<path fill="#E94A51" d="M472.764,453.61c-6.078,0-6.078,9.425,0,9.425C478.842,463.035,478.842,453.61,472.764,453.61z"/>
		</g>
		<g>
			<g>
				<g>
					<g>
						<path fill="#B9D054" d="M120.036,385.95c-8.939,4.48-5.832,12.595-3.105,19.908c3.782-4.988,5.768-14.287,2.513-20.119"/>
						<g>
							<path fill="#B9D054" d="M119.784,385.518c-3.466,1.841-5.757,4.496-6.145,8.479c-0.397,4.071,1.423,8.272,2.81,11.993
								c0.158,0.423,0.652,0.48,0.914,0.119c4.105-5.65,5.836-14.228,2.513-20.624c-0.297-0.572-1.16-0.067-0.863,0.505
								c3.16,6.083,1.372,14.267-2.513,19.615c0.305,0.04,0.609,0.08,0.914,0.119c-1.212-3.25-2.486-6.539-2.776-10.024
								c-0.356-4.288,1.986-7.372,5.652-9.319C120.858,386.079,120.353,385.215,119.784,385.518L119.784,385.518z"/>
						</g>
					</g>
					<g>
						<path fill="#B9D054" d="M114.677,386.378c-3.415,7.48-8.137,13.083-15.558,16.622c-0.169-8.245,8.323-14.475,15.261-16.521"/>
						<g>
							<path fill="#B9D054" d="M114.245,386.126c-3.334,7.159-8.217,12.925-15.379,16.443c0.251,0.144,0.502,0.288,0.752,0.432
								c0.069-8.148,7.761-13.83,14.894-16.038c0.614-0.19,0.352-1.156-0.266-0.964c-7.57,2.344-15.555,8.39-15.628,17.003
								c-0.003,0.401,0.422,0.594,0.752,0.432c7.301-3.587,12.337-9.499,15.738-16.802
								C115.379,386.05,114.517,385.542,114.245,386.126L114.245,386.126z"/>
						</g>
					</g>
				</g>
				<g>
					<g>
						<g>
							<path fill="#B9D054" d="M314.505,375.801c-3.896,6.82-0.418,22.772,8.171,25.218c4.051-9.625-4.351-17.971-8.007-25.631"/>
							<g>
								<path fill="#B9D054" d="M314.073,375.548c-4.248,7.885-0.754,23.033,8.469,25.953c0.28,0.089,0.519-0.103,0.615-0.349
									c3.818-9.806-4.017-17.797-8.057-26.016c-0.284-0.579-1.147-0.072-0.863,0.505c3.91,7.956,11.657,15.742,7.956,25.246
									c0.205-0.116,0.41-0.233,0.615-0.349c-8.562-2.711-11.802-17.189-7.872-24.484
									C315.242,375.485,314.379,374.981,314.073,375.548L314.073,375.548z"/>
							</g>
						</g>
						<g>
							<path fill="#B9D054" d="M316.673,374.406c1.474,6.446,12.722,14.348,19.438,10.967c-2.977-8.272-12.941-8.654-19.572-11.317"
								/>
							<g>
								<path fill="#B9D054" d="M316.191,374.539c1.949,7.411,12.689,14.683,20.173,11.266c0.186-0.085,0.304-0.374,0.23-0.565
									c-3.266-8.358-12.629-8.835-19.921-11.666c-0.602-0.234-0.86,0.734-0.266,0.964c6.541,2.539,15.123,2.937,18.761,9.875
									c0.896,1.708-4.23,1.158-4.876,1.041c-2.003-0.363-3.878-1.28-5.613-2.311c-3.27-1.945-6.53-5.092-7.524-8.87
									C316.991,373.65,316.027,373.915,316.191,374.539L316.191,374.539z"/>
							</g>
						</g>
					</g>
					<g>
						<g>
							<path fill="#B9D054" d="M312.271,369.98c-2.011-10.053,0.335-15.415,8.042-21.781c-0.335,7.707,0.671,17.76-7.372,22.787"/>
							<g>
								<path fill="#B9D054" d="M312.753,369.847c-0.753-3.94-1.035-7.894,0.279-11.745c1.34-3.927,4.538-6.956,7.634-9.55
									c-0.285-0.118-0.569-0.236-0.854-0.354c-0.311,7.977,0.441,17.364-7.124,22.355c-0.536,0.353-0.035,1.22,0.505,0.863
									c7.922-5.226,7.292-14.818,7.619-23.218c0.018-0.471-0.542-0.615-0.854-0.354c-3.102,2.599-6.213,5.605-7.691,9.469
									c-1.59,4.154-1.3,8.505-0.479,12.799C311.909,370.746,312.873,370.477,312.753,369.847L312.753,369.847z"/>
							</g>
						</g>
						<g>
							<path fill="#B9D054" d="M319.311,369.783c3.005-9.802,7.616-13.406,17.423-15.348c-3.956,6.623-7.845,15.947-17.31,16.551"/>
							<g>
								<path fill="#B9D054" d="M319.793,369.915c1.235-3.918,2.915-7.625,6.032-10.401c3.026-2.694,7.169-3.806,11.041-4.599
									c-0.188-0.245-0.376-0.49-0.565-0.734c-4.055,6.857-7.864,15.512-16.878,16.304c-0.637,0.056-0.643,1.056,0,1
									c9.464-0.832,13.457-9.555,17.741-16.799c0.236-0.398-0.148-0.82-0.565-0.734c-4.15,0.85-8.179,2.111-11.482,4.856
									c-3.289,2.733-5.036,6.867-6.289,10.842C318.634,370.266,319.6,370.528,319.793,369.915L319.793,369.915z"/>
							</g>
						</g>
					</g>
				</g>
				<g>
					<g>
						<path fill="#B9D054" d="M255.29,341.458c-6.71-2.548-13.039-8.657-12.946-15.991c7.801,1.418,12.813,8.439,13.616,16.201"/>
						<g>
							<path fill="#B9D054" d="M255.423,340.976c-6.485-2.582-12.458-8.111-12.579-15.509c-0.211,0.161-0.422,0.321-0.633,0.482
								c7.651,1.568,12.353,8.232,13.249,15.719c0.076,0.632,1.077,0.639,1,0c-0.948-7.914-5.872-15.022-13.983-16.684
								c-0.311-0.064-0.639,0.14-0.633,0.482c0.129,7.873,6.403,13.722,13.313,16.473
								C255.757,342.179,256.015,341.211,255.423,340.976L255.423,340.976z"/>
						</g>
					</g>
					<g>
						<path fill="#B9D054" d="M258.238,340.105c-1.871-6.93-0.633-15.639,5.362-19.864c3.426,7.151,0.677,15.328-5.14,20.53"/>
						<g>
							<path fill="#B9D054" d="M258.72,339.972c-1.709-6.731-0.791-14.878,5.132-19.299c-0.228-0.06-0.456-0.12-0.684-0.179
								c3.211,7.145,0.458,14.81-5.062,19.924c-0.474,0.439,0.235,1.145,0.707,0.707c5.881-5.448,8.612-13.583,5.218-21.136
								c-0.103-0.23-0.482-0.331-0.684-0.179c-6.303,4.704-7.425,13.208-5.592,20.429
								C257.914,340.863,258.879,340.598,258.72,339.972L258.72,339.972z"/>
						</g>
					</g>
				</g>
				<path fill="#91714F" d="M18.645,345.581c-0.128-0.385-0.676,0.352-0.317,0.542c0.049,0.026,0.099,0.05,0.148,0.076
					l-1.454,48.689c-0.094,0.15-0.197,0.293-0.289,0.444c-0.212,0.347,2.91,3.699,2.975,3.3c3.49-21.363,17.94-22.403,31.559-26.439
					c9.149-2.711,18.583-4.28,28.06-5.516c4.619,1.601,8.888,4.174,13.035,6.714c5.133,3.143,10.161,6.457,15.449,9.341
					c8.994,4.905,20.117,9.053,29.588,2.976c0.259-0.166,0.162-0.583-0.159-0.585c-16.4-0.114-28.124-12.255-41.482-20.408
					c0.537-0.063,1.075-0.126,1.611-0.19c38.493-4.616,77.273-17.084,116.284-10.398c18.896,3.239,35.9,12.376,54.326,17.217
					c6.793,1.785,13.864,2.876,20.851,3.585c7.132,0.723,14.337,0.99,21.499,0.641c6.019-0.294,12.639-0.865,18.079-3.683
					c0.302-0.156,0.128-0.558-0.158-0.585c-10.321-0.968-20.709-1.226-30.975-2.75c-9.992-1.484-19.656-4.655-29.178-7.942
					c-9.589-3.311-19.066-6.935-28.684-10.159c-0.455-0.152-0.914-0.289-1.371-0.436c9.257-2.165,18.116-6.097,26.591-10.324
					c0.326-0.163,0.094-0.663-0.242-0.574c-15.374,4.027-31.797,2.233-47.152,5.947c-2.22-0.37-4.445-0.703-6.673-0.996
					c-19.603-2.577-39.453-1.897-59.136-0.77c-10.08,0.577-20.146,1.41-30.222,2.056c-10.145,0.65-19.718,3.899-29.835,4.901
					c0,0-41.118,6.744-56.863-0.829c0,0-12.725-3.577-15.944-20.538c-3.22-16.961,0,0,0,0L18.645,345.581"/>
			</g>
			<g>
				<g>
					<g>
						<path fill="#B9D054" d="M248.767,208.753c-6.283,4.712-9.425,20.735-2.513,26.39c7.54-7.226,3.142-18.221,2.827-26.704"/>
						<g>
							<path fill="#B9D054" d="M248.413,208.399c-6.974,5.517-9.755,20.797-2.513,27.097c0.205,0.178,0.506,0.204,0.707,0
								c7.419-7.494,3.417-17.889,2.974-27.057c-0.031-0.642-1.031-0.645-1,0c0.224,4.638,1.292,9.185,1.532,13.823
								c0.129,2.501-0.118,4.982-0.882,7.369c-0.477,1.49-1.319,2.832-2.287,4.046c-1.026,1.288-1.5,0.052-2.229-1.075
								c-4.243-6.557-1.568-18.77,4.406-23.496C249.626,208.706,248.913,208.004,248.413,208.399L248.413,208.399z"/>
						</g>
					</g>
					<g>
						<path fill="#B9D054" d="M245.984,207.483c-3.755-5.432-17.114-8.59-22.089-2.967c5.826,6.569,15.207,3.23,22.343,3.24"/>
						<g>
							<path fill="#B9D054" d="M246.415,207.231c-4.514-6.116-17.201-9.03-22.875-3.068c-0.192,0.202-0.19,0.505,0,0.707
								c6.095,6.469,14.939,3.475,22.697,3.387c0.644-0.007,0.645-1.007,0-1c-3.79,0.043-7.534,0.741-11.323,0.836
								c-1.963,0.049-3.903-0.174-5.787-0.731c-1.026-0.304-1.958-0.822-2.853-1.393c-1.537-0.981-2.077-1.308-0.577-2.341
								c5.479-3.775,16.066-1.024,19.854,4.108C245.93,208.248,246.799,207.75,246.415,207.231L246.415,207.231z"/>
						</g>
					</g>
					<g>
						<path fill="#B9D054" d="M251.311,208.334c-1.206,6.502,5.98,18.22,13.486,17.783c0.553-8.775-8.44-13.081-13.47-18.157"/>
						<g>
							<path fill="#B9D054" d="M250.829,208.201c-1.147,7.534,5.714,18.582,13.968,18.416c0.28-0.006,0.49-0.223,0.5-0.5
								c0.313-8.895-8.092-13.066-13.616-18.51c-0.459-0.453-1.167,0.254-0.707,0.707c5.12,5.047,13.174,8.975,13.347,17.12
								c0.018,0.863-4.093-1.043-4.47-1.269c-1.864-1.12-3.373-2.848-4.633-4.59c-2.217-3.066-4.012-7.257-3.425-11.108
								C251.889,207.836,250.926,207.565,250.829,208.201L250.829,208.201z"/>
						</g>
					</g>
					<g>
						<path fill="#B9D054" d="M248.584,204.999c0.308-6.605-8.411-17.232-15.787-15.776c0.65,8.769,10.147,11.806,15.822,16.149"/>
						<g>
							<path fill="#B9D054" d="M249.084,204.999c0.109-7.666-8.292-17.544-16.42-16.258c-0.201,0.032-0.387,0.281-0.367,0.482
								c0.905,8.93,9.802,11.898,16.07,16.58c0.517,0.386,1.015-0.482,0.505-0.863c-5.624-4.201-13.779-6.882-15.424-14.545
								c-0.407-1.895,4.463,0.062,4.983,0.313c1.833,0.887,3.393,2.274,4.788,3.734c2.628,2.748,4.921,6.656,4.865,10.558
								C248.074,205.644,249.074,205.644,249.084,204.999L249.084,204.999z"/>
						</g>
					</g>
				</g>
				<g>
					<g>
						<path fill="#91714F" d="M310.396,195.167l1.776-1.506c21.022,8.406,38.084,12.36,60.812,13.273
							c15.359,0.441,30.769-0.974,46.016-3.69c24.829-1.227,46.902-11.818,65.341,12.537l3.737-32.648l0,0
							c2.678-1.032,5.341-2.079,7.982-3.142c0,0,2.873-2.229,1.272-5.486c0,0-0.963-3.482-4.954-2.821
							c-38.965,6.443-78.246,26.407-118.806,25.245c-22.727-0.912-39.791-4.868-60.812-13.274
							c-24.359-9.024-48.695-18.469-74.117-23.757c0,0-23.337-4.907-41.092,2.909c0,0,11.485-1.508,40.673,4.234
							c18.471,3.634,39.275,13.684,62.711,22.364l-5.204,4.057c-6.156,4.279-17.873,5.94-25.224,5.691
							c-10.104-0.344-21.315,4.127-28.966,12.287c9.601-3.823,14.566-5.373,27.96-5.389
							C269.502,206.05,296.312,208.474,310.396,195.167z"/>
					</g>
				</g>
			</g>
			<g>
				<g>
					<g>
						<path fill="#F9AF20" d="M412.718,194.179c-2.843,2.07-6.742,4.19-10.143,5.489c-8.634,3.378-19.146,0.977-27.522,5.662
							c-3.404,2.084-2.886,4.437-3.417,8.095c-0.531,3.397-2.631,7.574-5.494,2.34c-2.343-4.187,0.553-12.806,3.958-15.935
							c6.549-6.258,16.735-3.359,24.584-6.477c0,0,11.658-4.676,13.425-8.566l12.665,0.042
							C420.774,184.828,416.64,191.325,412.718,194.179z"/>
						<g>
							<path fill="#F9AF20" d="M412.465,193.747c-6.127,4.353-12.623,6.749-20.083,7.452c-6.09,0.574-12.932,0.594-18.212,4.12
								c-1.664,1.112-2.362,2.809-2.651,4.712c-0.244,1.604-1.16,10.811-4.476,6.269c-3.472-4.756,0.132-13.154,3.964-16.617
								c4.856-4.388,12.288-3.602,18.296-4.494c3.713-0.551,6.89-1.848,10.225-3.483c2-0.981,3.949-2.074,5.776-3.352
								c0.579-0.405,3.245-3.066,2.906-3.067c3.331,0.011,6.663,0.022,9.994,0.033c0.856,0.003,1.713,0.006,2.569,0.008
								c-0.144-0.251-0.288-0.502-0.432-0.752C418.193,187.929,415.649,191.316,412.465,193.747
								c-0.505,0.386-0.008,1.255,0.505,0.863c3.323-2.538,5.989-6.025,8.235-9.531c0.208-0.324-0.065-0.751-0.432-0.752
								c-4.222-0.014-8.443-0.028-12.665-0.042c-0.169-0.001-0.352,0.094-0.432,0.248c-1.831,3.542-7.009,5.564-10.436,7.16
								c-3.999,1.862-8.018,2.587-12.423,2.959c-5.173,0.437-10.336,0.947-14.518,4.323c-3.645,2.943-5.412,8.448-5.508,12.973
								c-0.048,2.281,1.971,8.6,5.223,6.315c1.369-0.962,1.83-3.194,2.102-4.705c0.567-3.149,0.2-5.802,3.187-7.796
								c5.654-3.776,13.849-3.095,20.305-3.916c6.342-0.806,12.179-3.554,17.361-7.235
								C413.491,194.241,412.992,193.373,412.465,193.747z"/>
						</g>
					</g>
				</g>
				<g>
					<g>
						<path fill="#F9AF20" d="M376.599,190.384c-2.843,2.069-6.742,4.19-10.143,5.489c-8.634,3.378-19.146,0.977-27.522,5.662
							c-3.404,2.083-2.886,4.437-3.417,8.095c-0.531,3.396-2.631,7.574-5.494,2.339c-2.343-4.187,0.553-12.806,3.958-15.935
							c6.549-6.257,16.735-3.358,24.584-6.477c0,0,11.658-4.676,13.425-8.566l12.665,0.042
							C384.655,181.033,380.522,187.529,376.599,190.384z"/>
						<g>
							<path fill="#F9AF20" d="M376.346,189.952c-6.128,4.353-12.623,6.749-20.083,7.452c-6.091,0.574-12.931,0.594-18.212,4.12
								c-1.665,1.111-2.362,2.809-2.651,4.712c-0.244,1.604-1.16,10.811-4.476,6.268c-3.472-4.756,0.132-13.154,3.964-16.617
								c4.856-4.387,12.288-3.602,18.296-4.493c3.713-0.551,6.89-1.848,10.225-3.483c2-0.981,3.949-2.074,5.776-3.352
								c0.579-0.405,3.245-3.066,2.906-3.067c3.331,0.011,6.663,0.022,9.994,0.033c0.856,0.003,1.713,0.006,2.569,0.008
								c-0.144-0.251-0.288-0.502-0.432-0.752C382.074,184.134,379.53,187.521,376.346,189.952
								c-0.505,0.386-0.008,1.255,0.505,0.863c3.323-2.538,5.989-6.025,8.235-9.531c0.208-0.324-0.065-0.751-0.432-0.752
								c-4.222-0.014-8.443-0.028-12.665-0.042c-0.169-0.001-0.352,0.094-0.432,0.248c-1.831,3.542-7.009,5.564-10.436,7.16
								c-3.999,1.862-8.018,2.587-12.423,2.959c-5.173,0.437-10.336,0.947-14.518,4.322c-3.645,2.942-5.412,8.448-5.508,12.973
								c-0.048,2.281,1.971,8.6,5.223,6.315c1.369-0.962,1.83-3.193,2.102-4.705c0.567-3.149,0.2-5.802,3.187-7.796
								c5.655-3.776,13.848-3.095,20.305-3.916c6.342-0.806,12.179-3.555,17.36-7.235
								C377.372,190.446,376.874,189.578,376.346,189.952z"/>
						</g>
					</g>
				</g>
				<g>
					<g>
						<path fill="#41B6A0" d="M313.282,168.039c7.431,15.053,29.583,41.249,91.523,27.925
							c-16.625-4.052-31.582-16.048-46.312-23.651C341.775,163.385,329.083,162.337,313.282,168.039z"/>
					</g>
					<g>
						<path fill="#97CFC0" d="M462.698,176.014c-9.262-15.216-31.366-14.394-38.396-27.042c-6.65-11.174-5.405-33.183-9.486-46.589
							c-1.789-5.806-4.019-11.109-6.807-15.778c-15.655-7.744-34.211,8.941-48.472,12.177c-11.426,2.689-16.801-4.442-25.34-11.071
							c-3.298-2.978-6.381-4.912-9.633-6.351c-25.948,31.336-14.76,77.114-14.76,77.114s0.744,4.029,3.478,9.565
							c15.801-5.702,28.493-4.653,45.212,4.275c14.73,7.602,29.687,19.598,46.312,23.651c1.565-0.337,3.147-0.691,4.763-1.079
							c5.372-2.327,20.088-9.26,25.362-4.647c0,0,4.04,2.259-1.217,10.529c0,0-3.062,7.497,3.566,7.706c0,0,5.2,0.093,7.199-4.35
							c-3.331,9.03,6.271,9.7,9.695,3.475c4.225,12.741,12.885-4.89,13.363-10.357C468.73,188.447,467.401,183.289,462.698,176.014z
							"/>
						<g>
							<path fill="#97CFC0" d="M463.129,175.762c-5.54-8.834-15.271-12.426-24.365-16.474c-4.344-1.934-8.704-4.128-11.967-7.672
								c-3.634-3.947-5.076-9.641-6.128-14.75c-2.415-11.721-2.047-24.002-5.643-35.482c-0.975-3.114-2.161-6.157-3.5-9.132
								c-1.08-2.399-2.052-5.69-4.642-6.697c-5.003-1.945-10.225-1.713-15.363-0.436c-11.582,2.88-21.272,10.824-32.942,13.36
								c-6.877,1.494-12.513-1.687-17.661-5.877c-5.169-4.208-9.969-8.881-16.102-11.674c-0.191-0.087-0.455-0.106-0.606,0.078
								c-12.808,15.653-17.542,35.851-17.292,55.748c0.134,10.675,1.243,21.812,5.932,31.537c0.091,0.189,0.368,0.3,0.565,0.23
								c6.54-2.318,13.261-3.736,20.226-3.464c7.397,0.289,14.515,2.767,21.137,5.925c12.864,6.135,24.294,14.861,37.212,20.902
								c2.824,1.321,5.73,2.462,8.691,3.434c1.208,0.397,2.846,1.147,4.123,1.147c1.384,0,3.749-0.596,5.016-1.147
								c4.429-1.926,8.849-3.85,13.518-5.131c3.532-0.969,8.603-2.081,11.616,0.707c3.03,2.804-1.011,7.561-1.909,10.264
								c-0.961,2.892-0.822,6.367,2.437,7.546c3.573,1.292,7.843-1.202,9.427-4.328c-0.305-0.128-0.609-0.257-0.914-0.385
								c-1.016,2.977-1.196,6.739,2.308,7.981c3.274,1.16,6.739-1.477,8.301-4.121c-0.305-0.04-0.609-0.08-0.914-0.119
								c0.865,2.462,2.507,5.789,5.655,4.63c3.151-1.16,5.153-5.336,6.472-8.13c1.81-3.834,2.491-7.646,2.624-11.876
								C468.635,186.229,466.366,180.842,463.129,175.762c-0.345-0.542-1.211-0.041-0.863,0.505
								c4.794,7.525,6.808,16.253,3.75,24.892c-1.082,3.056-2.656,6.137-4.818,8.572c-0.811,0.914-1.875,1.831-3.149,1.894
								c-1.924,0.095-2.911-2.789-3.393-4.16c-0.14-0.398-0.682-0.511-0.914-0.119c-1.326,2.245-3.517,3.88-6.203,3.834
								c-3.806-0.065-3.438-4.407-2.579-6.924c0.183-0.536-0.658-0.89-0.914-0.385c-1.217,2.401-3.369,3.726-5.996,4.056
								c-2.004,0.252-3.953-0.52-4.456-2.604c-0.897-3.72,2.479-6.923,3.182-10.344c1.525-7.425-7.783-7.119-12.484-6.063
								c-4.664,1.048-9.121,2.973-13.484,4.885c-1.377,0.603-2.782,0.937-4.249,1.268c-2.047,0.462-3.68-0.11-5.612-0.715
								c-3.701-1.161-7.265-2.729-10.746-4.429c-12.875-6.287-24.355-15.091-37.447-20.977c-12.075-5.429-24.523-6.21-37.136-2.234
								c-0.486,0.153-1.931,1.022-2.321,0.213c-0.478-0.991-0.896-2.009-1.302-3.031c-0.468-1.177-0.863-2.384-1.222-3.599
								c-0.204-0.69-0.357-1.39-0.521-2.09c-0.34-1.455-0.602-2.93-0.847-4.403c-3.115-18.739-1.864-38.975,5.87-56.469
								c1.176-2.661,2.549-5.231,4.042-7.726c0.766-1.281,1.595-2.523,2.443-3.75c0.901-1.302,2.18-4.262,3.935-3.417
								c6.076,2.928,10.892,8.057,16.155,12.18c4.07,3.188,8.499,5.354,13.759,5.227c5.266-0.127,10.41-2.567,15.09-4.763
								c10.485-4.921,22.607-12.763,34.647-9.033c3.6,1.115,4.937,5.729,6.292,8.945c1.356,3.215,2.502,6.551,3.352,9.935
								c1.496,5.952,2.026,12.137,2.713,18.22c1.329,11.767,2.211,25.809,12.958,33.013c10.537,7.064,24.37,8.568,31.603,20.102
								C462.607,176.811,463.473,176.31,463.129,175.762z"/>
						</g>
					</g>
				</g>
				<g>
					<path fill="#41B6A0" d="M359.537,98.783c14.261-3.236,32.816-19.921,48.472-12.177c-6.162-10.321-15.047-17.541-27.925-20.223
						c-26.404-5.498-44.24,3.996-55.519,14.978c3.252,1.439,6.335,3.373,9.633,6.351C342.736,94.34,348.111,101.471,359.537,98.783z
						"/>
					<g>
						<path fill="#41B6A0" d="M359.67,99.265c7.826-1.866,14.895-6.213,22.159-9.518c8.068-3.671,17.405-6.739,25.927-2.71
							c0.429,0.203,0.962-0.225,0.684-0.684c-4.058-6.697-9.425-12.331-16.304-16.149c-8.01-4.446-17.678-5.834-26.723-5.929
							c-15.522-0.162-30.096,6.008-41.204,16.732c-0.215,0.208-0.193,0.651,0.101,0.785c6.934,3.158,12.202,8.753,18.186,13.323
							C347.665,99.061,353.254,100.659,359.67,99.265c0.63-0.137,0.363-1.101-0.266-0.964c-7.329,1.593-12.916-1.163-18.486-5.698
							c-5.169-4.208-9.969-8.881-16.102-11.674c0.034,0.262,0.067,0.524,0.101,0.785c10.601-10.236,24.137-16.031,38.898-16.426
							c8.953-0.24,18.461,1.184,26.562,5.127c7.322,3.564,13.021,9.547,17.199,16.443c0.228-0.228,0.456-0.456,0.684-0.684
							c-16.89-7.986-33.176,8.389-48.857,12.127C358.777,98.45,359.043,99.414,359.67,99.265z"/>
					</g>
				</g>
				<g>
					<g>
						<path fill="#F9AF20" d="M370.222,124.7c-0.239,0.021-0.477,0.053-0.716,0.078c1.588-0.659,3.023-1.474,4.215-2.448
							l-0.229-0.38c-7.709-5.468-24.71-10.002-33.69-5.105c3.054,7.208,12.161,10.261,20.653,9.859
							c-5.977,2.008-11.333,5.505-14.815,11.006c11.361,3.784,24.752-4.552,28.386-15.303L370.222,124.7z"/>
						<g>
							<path fill="#F9AF20" d="M370.222,124.2c-0.239,0.026-0.477,0.052-0.716,0.078c0.084,0.311,0.168,0.621,0.252,0.932
								c1.516-0.665,2.902-1.438,4.215-2.448c0.214-0.164,0.333-0.428,0.179-0.684c-1.092-1.816-4.28-2.884-6.129-3.713
								c-3.218-1.443-6.619-2.463-10.063-3.197c-5.978-1.274-12.832-1.641-18.411,1.246c-0.26,0.134-0.287,0.447-0.179,0.684
								c3.608,7.932,13.062,10.393,21.085,10.106c-0.044-0.327-0.089-0.655-0.133-0.982c-6.164,2.141-11.5,5.727-15.114,11.236
								c-0.183,0.279,0.004,0.643,0.299,0.734c11.826,3.685,24.969-4.354,29.001-15.652c0.151-0.422-0.377-0.78-0.735-0.565
								c-1.268,0.765-2.537,1.529-3.805,2.294c-0.551,0.332-0.049,1.197,0.505,0.863c1.268-0.765,2.537-1.529,3.805-2.294
								c-0.245-0.188-0.49-0.376-0.734-0.565c-3.856,10.802-16.489,18.47-27.771,14.954c0.1,0.245,0.199,0.49,0.299,0.734
								c3.467-5.285,8.606-8.723,14.516-10.776c0.512-0.178,0.457-1.003-0.133-0.982c-7.695,0.275-16.753-1.985-20.221-9.611
								c-0.06,0.228-0.12,0.456-0.179,0.684c5.373-2.78,11.895-2.282,17.64-1.145c2.983,0.59,5.899,1.512,8.723,2.632
								c1.85,0.734,5.786,2.015,6.871,3.819c0.06-0.228,0.12-0.456,0.179-0.684c-1.314,1.01-2.699,1.783-4.215,2.448
								c-0.448,0.196-0.232,0.984,0.252,0.932c0.239-0.026,0.477-0.052,0.716-0.078C370.856,125.131,370.862,124.131,370.222,124.2z
								"/>
						</g>
					</g>
					<g>
						<g>
							<path fill="#FFFFFF" d="M389.484,98.232c1.284,0.051,2.482,0.398,3.549,0.959c-0.805,0.17-1.578,0.412-2.24,0.746
								c-1.511,1.042-2.127,2.67-3.637,3.712c-2.094,1.473-4.292,1.685-6.038,0.674C382.135,100.682,385.54,98.075,389.484,98.232z"
								/>
							<path fill="#010202" d="M380.44,106.229c-0.191,4.803,3.559,8.867,8.364,9.059c4.803,0.191,8.867-3.561,9.059-8.364
								c0.12-3.016-1.37-5.888-3.847-7.564l0.089-0.018l-0.901-0.474l-0.117-0.061l-0.011,0.002
								c-1.128-0.571-2.33-0.893-3.577-0.942c-3.894-0.155-7.357,2.259-8.59,5.914l-0.018-0.01l-0.127,0.455v0.001l-0.077,0.273
								l0.014,0.009C380.558,105.087,380.463,105.665,380.44,106.229z M391.927,99.096c-0.034,0.01-0.064,0.023-0.097,0.034
								c-0.149,0.047-0.289,0.097-0.429,0.149c-0.067,0.025-0.138,0.05-0.203,0.076c-0.199,0.08-0.391,0.164-0.57,0.254
								c-0.844,0.577-1.401,1.278-1.941,1.955c-0.529,0.665-1.03,1.293-1.74,1.783c-0.236,0.166-0.474,0.315-0.715,0.447
								c-0.063,0.036-0.128,0.061-0.193,0.094c-0.177,0.09-0.352,0.18-0.53,0.252c-0.076,0.031-0.152,0.052-0.228,0.08
								c-0.164,0.061-0.332,0.121-0.497,0.166c-0.078,0.021-0.157,0.033-0.236,0.05c-0.161,0.036-0.322,0.071-0.482,0.091
								c-0.08,0.01-0.158,0.012-0.236,0.018c-0.158,0.012-0.313,0.023-0.466,0.02c-0.081-0.001-0.161-0.01-0.24-0.016
								c-0.15-0.011-0.296-0.025-0.442-0.05c-0.083-0.015-0.164-0.036-0.247-0.055c-0.135-0.032-0.269-0.068-0.401-0.113
								c-0.09-0.031-0.176-0.068-0.263-0.105c-0.071-0.03-0.141-0.065-0.211-0.1c1.094-3.412,4.302-5.673,7.91-5.529
								C390.314,98.633,391.137,98.799,391.927,99.096z"/>
						</g>
						<g>
							<path fill="#FFFFFF" d="M327.412,94.751c1.284,0.052,2.483,0.399,3.549,0.96c-0.804,0.17-1.578,0.412-2.239,0.746
								c-1.511,1.042-2.127,2.67-3.639,3.712c-2.094,1.473-4.291,1.685-6.038,0.674C320.063,97.201,323.47,94.594,327.412,94.751z"
								/>
							<path fill="#010202" d="M318.368,102.748c-0.191,4.803,3.561,8.866,8.364,9.058c4.804,0.191,8.866-3.56,9.058-8.364
								c0.12-3.016-1.368-5.887-3.846-7.564l0.09-0.018l-0.901-0.474l-0.117-0.061l-0.012,0.002
								c-1.127-0.571-2.329-0.892-3.577-0.942c-3.893-0.155-7.356,2.259-8.589,5.914l-0.017-0.01l-0.128,0.456
								c0,0,0,0.001-0.001,0.001l-0.076,0.273l0.015,0.009C318.486,101.605,318.391,102.184,318.368,102.748z M329.856,95.615
								c-0.034,0.01-0.064,0.023-0.098,0.034c-0.148,0.047-0.29,0.098-0.428,0.15c-0.067,0.025-0.138,0.049-0.204,0.076
								c-0.199,0.08-0.391,0.164-0.569,0.254c-0.844,0.577-1.402,1.278-1.941,1.955c-0.53,0.665-1.029,1.293-1.74,1.783
								c-0.236,0.166-0.476,0.315-0.715,0.448c-0.064,0.035-0.129,0.061-0.193,0.094c-0.177,0.09-0.353,0.179-0.53,0.252
								c-0.076,0.031-0.152,0.052-0.228,0.08c-0.166,0.061-0.331,0.121-0.496,0.165c-0.078,0.021-0.157,0.033-0.237,0.051
								c-0.161,0.036-0.322,0.071-0.481,0.091c-0.08,0.01-0.158,0.012-0.238,0.018c-0.156,0.012-0.311,0.022-0.466,0.02
								c-0.081-0.001-0.16-0.01-0.241-0.016c-0.148-0.011-0.295-0.025-0.44-0.05c-0.083-0.015-0.166-0.036-0.247-0.055
								c-0.135-0.032-0.27-0.068-0.401-0.113c-0.09-0.031-0.177-0.068-0.264-0.105c-0.071-0.031-0.141-0.066-0.212-0.1
								c1.095-3.413,4.303-5.673,7.91-5.53C328.244,95.151,329.066,95.318,329.856,95.615z"/>
						</g>
					</g>
				</g>
				<g>
					<path fill="#41B6A0" d="M401.955,153.007c3.975,2.663,6.656,6.553,10.988,8.298c4.006,2.046,7.521,0.614,11.627,0.149
						c-1.393,3.403-3.703,6.14-6.315,8.552c3.126,0.439,6.316-0.692,9.129-0.265c-6.427,11.377-26.354,14.356-37.116,8.268
						c-12.306-6.779-10.501-28.402,5.797-27.123C396.066,150.886,398.795,150.89,401.955,153.007z"/>
					<g>
						<path fill="#41B6A0" d="M401.703,153.438c3.576,2.497,6.354,5.987,10.281,7.988c4.239,2.16,8.111,1.107,12.587,0.527
							c-0.144-0.251-0.288-0.502-0.432-0.752c-1.441,3.302-3.628,5.993-6.236,8.451c-0.345,0.325-0.052,0.814,0.354,0.854
							c3.064,0.298,6.071-0.58,9.129-0.265c-0.144-0.251-0.288-0.502-0.432-0.752c-4.089,6.95-12.254,10.121-19.941,10.941
							c-6.974,0.744-15.274-0.486-20.262-5.849c-4.149-4.462-5.194-11.658-2.544-17.113
							C387.412,150.868,395.909,149.824,401.703,153.438c0.549,0.342,1.05-0.523,0.505-0.863
							c-5.836-3.641-13.784-2.861-17.973,2.896c-3.845,5.284-2.955,13.023,0.535,18.207c4.481,6.656,13.527,8.253,20.984,7.852
							c8.407-0.452,17.623-3.991,22.062-11.537c0.208-0.353-0.067-0.715-0.432-0.752c-3.057-0.315-6.064,0.563-9.129,0.265
							c0.118,0.285,0.236,0.569,0.354,0.854c2.672-2.517,4.916-5.268,6.393-8.653c0.13-0.298-0.01-0.807-0.432-0.752
							c-1.956,0.253-3.889,0.659-5.851,0.867c-2.75,0.292-5.223-0.628-7.566-1.984c-3.317-1.92-5.807-5.071-8.946-7.263
							C401.677,152.205,401.178,153.072,401.703,153.438z"/>
					</g>
				</g>
				<g>
					<path fill="#41B6A0" d="M446.569,197.438c1.012,0.13,2.005,0.052,2.806-0.639c0.776-0.669,1.061-1.741,1.223-2.71
						c0.12-0.724,1.215-0.408,1.096,0.309c-0.45,2.711-2.281,4.546-5.133,4.179C445.842,198.484,445.842,197.343,446.569,197.438
						L446.569,197.438z"/>
					<path fill="#41B6A0" d="M441.464,192.262c1.012,0.129,2.005,0.053,2.806-0.639c0.776-0.669,1.063-1.741,1.224-2.711
						c0.12-0.723,1.214-0.407,1.095,0.311c-0.45,2.711-2.28,4.544-5.132,4.177C440.738,193.308,440.736,192.168,441.464,192.262
						L441.464,192.262z"/>
					<path fill="#41B6A0" d="M437.577,185.27c1.012,0.13,2.006,0.053,2.806-0.638c0.776-0.669,1.063-1.741,1.223-2.712
						c0.12-0.722,1.214-0.406,1.096,0.31c-0.45,2.713-2.281,4.546-5.133,4.179C436.85,186.316,436.85,185.176,437.577,185.27
						L437.577,185.27z"/>
					<path fill="#41B6A0" d="M455.698,194.692c1.875-0.011,3.612-0.56,4.024-2.591c0.146-0.719,1.242-0.406,1.096,0.31
						c-0.514,2.532-2.766,3.406-5.128,3.419C454.955,195.836,454.964,194.697,455.698,194.692L455.698,194.692z"/>
					<path fill="#41B6A0" d="M448.677,177.905c1.875-0.011,3.612-0.561,4.025-2.591c0.146-0.719,1.241-0.406,1.095,0.309
						c-0.514,2.532-2.766,3.407-5.128,3.42C447.934,179.047,447.943,177.909,448.677,177.905L448.677,177.905z"/>
					<path fill="#41B6A0" d="M440.891,176.181c1.879-0.044,3.596-0.633,3.972-2.669c0.134-0.721,1.23-0.406,1.096,0.311
						c-0.472,2.542-2.719,3.442-5.077,3.496C440.148,177.336,440.159,176.198,440.891,176.181L440.891,176.181z"/>
					<path fill="#41B6A0" d="M455.744,187.93c1.875-0.01,3.612-0.561,4.024-2.59c0.146-0.719,1.242-0.406,1.096,0.309
						c-0.514,2.533-2.765,3.407-5.128,3.42C455.002,189.073,455.01,187.935,455.744,187.93L455.744,187.93z"/>
					<path fill="#41B6A0" d="M449.012,184.468c1.875-0.011,3.612-0.561,4.024-2.591c0.146-0.72,1.241-0.406,1.096,0.309
						c-0.514,2.532-2.766,3.406-5.128,3.42C448.269,185.611,448.278,184.472,449.012,184.468L449.012,184.468z"/>
				</g>
				<path fill="#41B6A0" d="M413.676,77.894c-3.317,0.163-7.621,0.125-10.211-2.28c1.243-0.541,2.467-1.111,3.534-1.963
					c1.196-0.954,1.981-2.357,2.691-3.68c0.116-0.216-0.05-0.574-0.336-0.476c-1.811,0.626-3.756,0.833-5.661,0.891
					c-1.67,0.052-3.701,0.002-5.184-0.905c2.161-1.6,4.223-3.848,5.351-6.264c0.124-0.266-0.226-0.485-0.447-0.372
					c-5.756,2.932-13.012,2.126-19.212,1.528c-7.666-0.739-15.277-1.562-22.989-0.896c-7.714,0.666-14.998,2.892-21.91,6.326
					c-2.456,1.22-4.92,2.478-7.129,4.115c-2.418,1.792-4.55,3.982-6.665,6.111c-0.285,0.287,0.14,0.749,0.426,0.461
					c0.073-0.073,0.147-0.146,0.22-0.219l76.822,2.01c0.009,0.145,0.099,0.293,0.28,0.322c3.945,0.61,8.409-0.727,10.672-4.226
					C414.049,78.19,413.92,77.882,413.676,77.894z"/>
			</g>
			<g>
				<g>
					<g>
						<path fill="#F9AF20" d="M191.524,346.952c-2.229-4.585-6.77-6.916-11.577-7.947c-0.328-0.071-0.511,0.247-0.448,0.493
							l-10.71,3.628c-0.314-0.023-0.628-0.047-0.94-0.069c-0.493-0.033-0.466,0.734,0.021,0.766c3.316,0.227,6.611,0.49,9.819,1.412
							c2.894,0.831,7.671,2.243,7.657,5.874c-0.004,1.2-0.29,2.34-0.172,3.546c0.099,1.023,0.812,1.841,1.439,2.597
							c0.95,1.147,2.385,1.677,3.629,0.705C193.066,355.751,192.91,349.806,191.524,346.952z"/>
						<path fill="#F9AF20" d="M147.233,345.87c-13.691-2.542-27.383-5.081-41.075-7.622c-0.329-0.062-0.593,0.274-0.416,0.574
							c3.381,5.727,9.917,8.5,16.092,10.087c4.284,1.101,8.79,1.711,13.216,1.778c4.577,0.069,9.33,0.851,13.528,2.711
							c1.192,0.528,2.303,1.227,3.274,2.097c1.129,1.008,0.766,2.738,0.641,4.033c-0.203,2.094,0.271,3.417,1.74,4.934
							c2.103,2.172,4.019-0.05,4.786-2.115c1.357-3.655,0.753-7.593-1.515-10.705C155.109,348.356,151.079,346.695,147.233,345.87z"
							/>
					</g>
					<g>
						<path fill="#EE767F" d="M185.038,222.589c3.086-0.333,6.114-1.006,9.104-1.911c0.182-0.056,0.479-0.528,0.206-0.65
							c-3.248-1.443-6.529-2.561-10.056-3.08c-1.344-0.198-4.177,0.671-1.213-0.466c2.702-1.039,5.504-1.792,8.324-2.429
							c0.198-0.044,0.607-0.519,0.283-0.669c-19.352-8.881-43.315-0.993-60.082,10.108c-0.115,0.075-0.176,0.21-0.191,0.336
							c-12.491,9.139-20.825,23.873-19.696,24.261c6.577-3.291,11.716-5.843,19.906-4.953c9.348,1.178,16.235,5.862,24.413,9.648
							c20.41,8.771,26.025-12.142,39.523-22.58C192.073,227.052,188.532,224.556,185.038,222.589z"/>
						<g>
							<path fill="#F9CACA" d="M60.49,299.059c-8.454-2.174-4.746-13.103,1.693-8.144c-6.014-5.775,1.194-10.402,6.964-6.912
								c4.637,2.579,14.653,12.352,23.251,8.616c2.154-1.266,4.128-3.942,6.126-9.1c4.587-12.425,8.068-24.446,13.047-35.117
								c0,0-0.229-0.096-0.619-0.229c6.576-3.291,12.479-5.927,20.668-5.038c9.348,1.178,16.235,5.862,24.413,9.648
								c20.41,8.771,26.025-12.142,39.523-22.58c9.309,8.956,15.922,20.816,18.464,32.643c3.704,16.53,2.982,31.759-2.344,44.603
								c-44.17-19.03-53.963,31.559-94.308,35.527c-12.906-3.095-25.105-8.634-35.138-16.639c-9.812-6.3-14.482-9.364-19.197-13.164
								c-2.785-2.013-7.457-4.852-8.347-8.351C53.516,301.093,56.771,297.918,60.49,299.059z"/>
						</g>
						<g>
							<path fill="#EE767F" d="M211.677,307.449c-6.002,14.475-17.85,25.923-35.816,32.799c-17.699,6.498-38.905,7.424-58.492,2.727
								C157.714,339.008,167.507,288.42,211.677,307.449z"/>
						</g>
						<g>
							<path fill="#EE767F" d="M62.398,306.519c-0.236-1.003-0.261-2.009,0.35-2.884c0.592-0.849,1.638-1.247,2.595-1.51
								c0.714-0.196,0.282-1.262-0.425-1.067c-2.677,0.734-4.326,2.762-3.662,5.587C61.424,307.358,62.567,307.24,62.398,306.519
								L62.398,306.519z"/>
							<path fill="#EE767F" d="M68.125,311.105c-0.236-1.001-0.261-2.006,0.349-2.883c0.592-0.85,1.639-1.248,2.596-1.509
								c0.712-0.197,0.282-1.263-0.426-1.068c-2.676,0.733-4.326,2.763-3.661,5.586C67.151,311.945,68.295,311.827,68.125,311.105
								L68.125,311.105z"/>
							<path fill="#EE767F" d="M75.549,314.281c-0.236-1.001-0.262-2.008,0.349-2.883c0.592-0.849,1.639-1.247,2.595-1.509
								c0.712-0.196,0.282-1.263-0.426-1.068c-2.676,0.735-4.326,2.762-3.661,5.587C74.574,315.12,75.718,315.002,75.549,314.281
								L75.549,314.281z"/>
							<path fill="#EE767F" d="M64.205,297.069c-0.184-1.884,0.188-3.684,2.183-4.309c0.707-0.223,0.278-1.289-0.425-1.069
								c-2.489,0.78-3.132,3.132-2.9,5.503C63.135,297.932,64.277,297.805,64.205,297.069L64.205,297.069z"/>
							<path fill="#EE767F" d="M81.789,302.371c-0.184-1.883,0.187-3.683,2.183-4.307c0.706-0.222,0.279-1.289-0.425-1.069
								c-2.489,0.779-3.132,3.131-2.9,5.503C80.719,303.235,81.861,303.108,81.789,302.371L81.789,302.371z"/>
							<path fill="#EE767F" d="M84.329,310.009c-0.152-1.89,0.262-3.675,2.266-4.265c0.71-0.21,0.28-1.277-0.425-1.069
								c-2.503,0.738-3.174,3.088-2.984,5.459C83.246,310.875,84.388,310.745,84.329,310.009L84.329,310.009z"/>
							<path fill="#EE767F" d="M70.988,296.319c-0.184-1.884,0.188-3.683,2.183-4.309c0.707-0.222,0.279-1.289-0.426-1.068
								c-2.488,0.779-3.131,3.132-2.899,5.504C69.918,297.183,71.06,297.056,70.988,296.319L70.988,296.319z"/>
							<path fill="#EE767F" d="M75.165,302.717c-0.185-1.883,0.186-3.683,2.182-4.309c0.707-0.221,0.279-1.289-0.425-1.068
								c-2.488,0.78-3.132,3.131-2.899,5.504C74.094,303.582,75.236,303.454,75.165,302.717L75.165,302.717z"/>
						</g>
						<g>
							<path fill="#F9AF20" d="M179.056,288.277c0.201-0.033,0.368-0.212,0.338-0.424c-0.671-4.914-3.825-7.736-7.81-9.257
								c5.74-0.568,11.633-5.361,14.222-10.221c0.104-0.193-0.02-0.415-0.193-0.507c-9.938-5.221-21.99-0.882-26.339,9.456
								c-0.05,0.12-0.03,0.234,0.023,0.328c-0.025,0.096-0.009,0.202,0.079,0.301C164.085,283.34,171.368,289.449,179.056,288.277z
								 M166.196,278.06l-4.954-0.254C162.845,277.777,164.53,277.847,166.196,278.06z"/>
							<g>
								<g>
									<path fill="#FFFFFF" d="M134.565,254.036c-1.276,0.141-2.448,0.572-3.472,1.206c0.814,0.113,1.601,0.3,2.286,0.587
										c1.58,0.933,2.309,2.515,3.89,3.448c2.192,1.322,4.399,1.379,6.071,0.249C142.068,255.964,138.488,253.602,134.565,254.036
										z"/>
									<path fill="#010202" d="M143.767,259.679l0.014-0.009l-0.096-0.268c-0.001,0.001-0.001-0.001-0.001-0.001l-0.16-0.445
										l-0.017,0.01c-1.487-3.559-5.111-5.724-8.984-5.296c-1.241,0.137-2.417,0.542-3.502,1.19l-0.012-0.001l-0.113,0.07
										l-0.865,0.536l0.09,0.012c-2.354,1.846-3.638,4.815-3.305,7.815c0.528,4.778,4.844,8.235,9.622,7.707
										c4.778-0.528,8.236-4.845,7.708-9.622C144.086,260.817,143.951,260.247,143.767,259.679z M134.605,254.401
										c3.588-0.396,6.948,1.633,8.279,4.961c-0.067,0.039-0.134,0.079-0.204,0.115c-0.085,0.042-0.168,0.086-0.255,0.123
										c-0.128,0.055-0.26,0.099-0.393,0.141c-0.08,0.025-0.16,0.052-0.242,0.072c-0.144,0.036-0.289,0.06-0.437,0.08
										c-0.079,0.011-0.157,0.026-0.238,0.032c-0.153,0.014-0.309,0.015-0.466,0.014c-0.08-0.001-0.158,0.002-0.239-0.002
										c-0.16-0.009-0.323-0.033-0.487-0.057c-0.08-0.012-0.159-0.018-0.239-0.034c-0.168-0.032-0.338-0.08-0.507-0.129
										c-0.078-0.023-0.155-0.038-0.233-0.064c-0.182-0.06-0.364-0.136-0.547-0.214c-0.066-0.029-0.133-0.05-0.199-0.08
										c-0.249-0.115-0.498-0.247-0.745-0.396c-0.742-0.439-1.285-1.03-1.86-1.656c-0.586-0.638-1.192-1.297-2.074-1.814
										c-0.184-0.077-0.381-0.148-0.585-0.214c-0.067-0.021-0.139-0.041-0.209-0.062c-0.142-0.042-0.288-0.082-0.438-0.118
										c-0.034-0.009-0.065-0.019-0.099-0.028C132.955,254.718,133.765,254.494,134.605,254.401z"/>
								</g>
								<g>
									<path fill="#FFFFFF" d="M194.551,246.393c-1.277,0.141-2.449,0.572-3.473,1.206c0.814,0.113,1.602,0.3,2.286,0.587
										c1.58,0.933,2.309,2.515,3.89,3.448c2.192,1.322,4.398,1.379,6.071,0.249C202.053,248.321,198.474,245.959,194.551,246.393
										z"/>
									<path fill="#010202" d="M203.753,252.036l0.014-0.01l-0.096-0.266c0-0.001-0.001-0.001-0.001-0.002l-0.159-0.445
										l-0.017,0.011c-1.487-3.56-5.111-5.725-8.984-5.297c-1.241,0.137-2.418,0.542-3.502,1.191l-0.012-0.002l-0.113,0.07
										l-0.865,0.536l0.09,0.012c-2.354,1.846-3.638,4.815-3.306,7.815c0.528,4.778,4.845,8.236,9.623,7.707
										c4.778-0.528,8.236-4.846,7.707-9.624C204.071,253.173,203.935,252.604,203.753,252.036z M194.591,246.758
										c3.588-0.397,6.947,1.633,8.279,4.96c-0.068,0.039-0.135,0.08-0.204,0.115c-0.085,0.043-0.169,0.086-0.256,0.123
										c-0.128,0.055-0.26,0.1-0.393,0.141c-0.08,0.025-0.16,0.052-0.242,0.072c-0.143,0.036-0.289,0.059-0.436,0.08
										c-0.079,0.012-0.158,0.026-0.238,0.033c-0.153,0.014-0.309,0.015-0.466,0.014c-0.079-0.001-0.158,0.003-0.238-0.002
										c-0.161-0.009-0.323-0.033-0.487-0.057c-0.08-0.012-0.16-0.018-0.24-0.034c-0.168-0.033-0.338-0.081-0.507-0.13
										c-0.077-0.023-0.155-0.038-0.233-0.064c-0.181-0.06-0.363-0.136-0.545-0.214c-0.067-0.029-0.133-0.05-0.199-0.08
										c-0.249-0.115-0.498-0.247-0.745-0.396c-0.743-0.439-1.286-1.03-1.861-1.657c-0.586-0.637-1.192-1.297-2.073-1.813
										c-0.185-0.078-0.382-0.148-0.585-0.214c-0.068-0.022-0.14-0.042-0.209-0.062c-0.142-0.042-0.287-0.082-0.438-0.118
										c-0.034-0.009-0.066-0.019-0.1-0.028C192.941,247.074,193.751,246.85,194.591,246.758z"/>
								</g>
							</g>
						</g>
						<g>
							<path fill="#EE767F" d="M137.854,320.131c-12.244,16.003-36.822,0.489-44.979-12.306c3.146-0.137,6.592,0.536,9.645-0.434
								c-1.919-2.106-4.461-4.142-5.617-6.964c4.741,0.952,9.112,2.364,14.131,2.021c3.747-0.414,7.263-1.014,11.01-1.428
								c7.078-0.782,16.607-0.361,18.429,8.499C140.474,309.517,141.905,314.837,137.854,320.131z"/>
							<g>
								<path fill="#EE767F" d="M137.501,319.777c-12.454,15.737-35.902,0.541-44.194-12.205c-0.144,0.251-0.288,0.502-0.432,0.752
									c3.289-0.073,6.556,0.412,9.778-0.452c0.373-0.1,0.474-0.565,0.221-0.836c-2.031-2.172-4.275-4.11-5.539-6.863
									c-0.188,0.245-0.376,0.49-0.565,0.734c5.819,1.205,11.061,2.473,17.038,1.699c4.979-0.645,9.954-1.607,14.994-1.272
									c4.477,0.298,8.836,2.09,10.654,6.461c1.688,4.061,0.432,8.644-2.033,12.083c-0.377,0.525,0.491,1.024,0.863,0.505
									c4.867-6.787,3.561-16.33-4.923-19.214c-4.481-1.523-9.512-0.905-14.093-0.312c-3.653,0.473-7.302,1.226-10.997,1.111
									c-3.799-0.118-7.536-1.259-11.237-2.025c-0.452-0.094-0.75,0.331-0.565,0.734c1.301,2.833,3.602,4.827,5.695,7.066
									c0.074-0.279,0.147-0.557,0.221-0.836c-3.134,0.841-6.317,0.346-9.512,0.417c-0.362,0.008-0.645,0.424-0.432,0.752
									c8.611,13.237,32.866,28.706,45.764,12.408C138.604,319.985,137.901,319.272,137.501,319.777z"/>
							</g>
						</g>
					</g>
				</g>
				<g>
					<path fill="#EA555A" d="M186.319,176.704c0.117-1.661-0.09-3.718-1.5-4.846c-2.704-2.161-5.347,0.211-7.104,2.729
						c-0.185-2.901-1.187-5.89-4.414-5.589c-1.798,0.168-3.099,1.775-3.914,3.227c-1.155,2.059-1.244,4.667-1.154,6.965
						c0.209,5.273,2.079,10.286,2.862,15.47c0.095,0.631,0.981,0.568,1.088,0.041c0.136,0.001,0.274-0.052,0.391-0.183
						c3.499-3.903,7.815-7.067,10.885-11.36C184.796,181.288,186.154,179.06,186.319,176.704z"/>
					<path fill="#EA555A" d="M160.922,178.72c-0.688-1.05-1.751-2.191-3.112-2.224c-2.61-0.063-3.113,2.567-3.019,4.881
						c-1.436-1.657-3.401-2.994-5.201-1.34c-1.002,0.922-1.05,2.479-0.877,3.724c0.247,1.764,1.384,3.37,2.488,4.708
						c2.532,3.07,5.943,5.227,8.779,7.981c0.345,0.336,0.848-0.107,0.671-0.472c0.082-0.061,0.141-0.156,0.152-0.288
						c0.32-3.941,1.466-7.81,1.35-11.788C162.101,182.167,161.899,180.21,160.922,178.72z"/>
				</g>
			</g>
			<g>
				<g>
					<g>
						<path fill="#B9D054" d="M64.094,198.785c1.533,7.442-0.423,16.5-7.21,20.452c-3.201-7.802,0.353-16.177,7.016-21.17"/>
						<g>
							<path fill="#B9D054" d="M63.612,198.918c1.389,7.272-0.289,15.758-6.98,19.888c0.245,0.1,0.49,0.199,0.734,0.299
								c-3.01-7.852,0.511-15.737,6.888-20.684c0.509-0.395-0.204-1.097-0.707-0.707c-6.634,5.146-10.268,13.513-7.145,21.657
								c0.112,0.291,0.438,0.482,0.735,0.299c7.091-4.376,8.916-13.29,7.44-21.017C64.455,198.019,63.491,198.288,63.612,198.918
								L63.612,198.918z"/>
						</g>
					</g>
				</g>
				<g>
					<g>
						<path fill="#B9D054" d="M45.533,198.37c5.621,5.112,9.373,13.585,6.216,20.776c-7.182-4.422-9.241-13.284-6.795-21.243"/>
						<g>
							<path fill="#B9D054" d="M45.18,198.724c5.461,5.127,9.075,12.931,6.087,20.29c0.245-0.1,0.49-0.199,0.734-0.299
								c-7.001-4.525-8.793-13.003-6.565-20.678c0.18-0.621-0.785-0.884-0.964-0.266c-2.357,8.122-0.35,17.041,7.025,21.807
								c0.297,0.192,0.62-0.016,0.735-0.299c3.113-7.668-0.648-15.915-6.344-21.263C45.417,197.576,44.709,198.281,45.18,198.724
								L45.18,198.724z"/>
						</g>
					</g>
				</g>
				<g>
					<path fill="#91714F" d="M24.141,241.865c5.908-16.455,25.842-18.875,42.694-21.945c-18.536-4.714-31.698,2.206-42.694,8.803"/>
					<g>
						<path fill="#91714F" d="M24.624,241.998c6.281-16.797,27.123-18.836,42.345-21.596c0.495-0.09,0.461-0.851,0-0.964
							c-7.88-1.931-15.867-2.056-23.739-0.032c-6.916,1.779-13.255,5.244-19.34,8.885c-0.553,0.331-0.05,1.195,0.505,0.863
							c5.634-3.371,11.4-6.467,17.705-8.392c8.049-2.457,16.473-2.354,24.604-0.361c0-0.321,0-0.643,0-0.964
							c-15.673,2.842-36.595,5.052-43.043,22.295C23.433,242.337,24.4,242.596,24.624,241.998L24.624,241.998z"/>
					</g>
				</g>
			</g>
			<g>
				<g>
					<g>
						<path fill="#B9D054" d="M441.054,364.207c6.035-1.983,11.791-7.168,11.836-13.734c-6.99,0.923-11.587,6.983-12.438,13.892"/>
						<g>
							<path fill="#B9D054" d="M441.186,364.69c6.283-2.191,11.929-7.193,12.203-14.216c0.014-0.354-0.328-0.53-0.633-0.482
								c-7.234,1.144-11.797,7.255-12.787,14.241c-0.089,0.63,0.874,0.902,0.964,0.266c0.946-6.673,5.153-12.446,12.088-13.543
								c-0.211-0.161-0.422-0.321-0.633-0.482c-0.256,6.56-5.627,11.214-11.469,13.251
								C440.316,363.936,440.576,364.902,441.186,364.69L441.186,364.69z"/>
						</g>
					</g>
					<g>
						<path fill="#B9D054" d="M457.014,368.911c3.717-5.152,5.324-12.73,1.501-18.067c-5.112,4.855-5.267,12.461-1.895,18.549"/>
						<g>
							<path fill="#B9D054" d="M457.446,369.163c3.759-5.424,5.367-12.776,1.501-18.572c-0.177-0.265-0.547-0.34-0.785-0.101
								c-5.229,5.246-5.307,12.848-1.973,19.155c0.301,0.57,1.165,0.065,0.863-0.505c-3.123-5.908-3.092-13.018,1.817-17.943
								c-0.262-0.034-0.524-0.067-0.785-0.101c3.681,5.52,2.063,12.421-1.501,17.563
								C456.214,369.19,457.081,369.689,457.446,369.163L457.446,369.163z"/>
						</g>
					</g>
				</g>
				<path fill="#91714F" d="M482.369,369.579c-5.908-16.455-25.842-18.875-42.694-21.946c18.536-4.714,31.698,2.206,42.694,8.804"/>
			</g>
		</g>
	</g>
	<g>
		<defs>
			<rect id="SVGID_3_" x="-0.187" y="-0.947" width="502.659" height="502.659"/>
		</defs>
		<clipPath id="SVGID_4_">
			<use xlink:href="#SVGID_3_"  overflow="visible"/>
		</clipPath>
		<g clip-path="url(#SVGID_4_)">
			<g>
				<path fill="#91714F" d="M484.5-10.058c0,41.016-0.141,81.743,0.836,122.759c0.977,39.063-7.812,73.243-11.719,111.329
					c-3.906,45.899,5.859,88.868,6.836,133.79c0.977,28.321,0,56.641,0,84.962c0,22.46,0,46.146,0,68.607h23.246V-9.371
					L484.5-10.058z"/>
			</g>
			<g>
				<g>
					<path fill="#AE8966" d="M491.102-9.394c-0.013,64.536-2.297,129.043-5.323,193.501c-0.665,14.194-1.865,28.208-3.563,42.314
						c-1.73,14.374-2.662,28.744-1.881,43.224c0.845,15.647,4.301,31.041,6.84,46.465c2.725,16.545,3.24,33.124,3.408,49.864
						c0.483,48.083-3.166,96.091-3.192,144.169c-0.001,0.839,1.301,0.839,1.302,0c0.018-33.797,1.803-67.553,2.723-101.329
						c0.462-17.014,0.671-34.037,0.352-51.057c-0.156-8.302-0.307-16.642-1.054-24.916c-0.69-7.637-1.938-15.219-3.245-22.771
						c-2.766-15.974-5.723-31.789-6.095-48.041c-0.323-14.048,1.217-27.933,2.904-41.852c1.73-14.269,2.459-28.535,3.123-42.885
						c0.691-14.966,1.339-29.934,1.927-44.904c1.852-47.237,3.07-94.506,3.078-141.781C492.404-10.234,491.102-10.234,491.102-9.394
						L491.102-9.394z"/>
					<path fill="#AE8966" d="M496.011-9.394c0.018,67.355,3.89,134.848-0.174,202.156c-0.958,15.869-2.802,31.672-3.69,47.547
						c-0.922,16.475-0.377,32.935,1.052,49.364c1.438,16.524,3.538,32.992,4.309,49.569c0.793,17.074,0.871,34.177,0.627,51.264
						c-0.57,39.892-3.089,79.734-3.11,119.637c-0.001,0.839,1.301,0.839,1.301,0c0.018-33.797,1.804-67.553,2.723-101.329
						c0.462-17.014,0.672-34.037,0.352-51.057c-0.314-16.792-1.486-33.458-3.164-50.165c-1.662-16.53-3.218-33.043-3.285-49.673
						c-0.064-16.033,1.498-32.006,2.876-47.962c2.866-33.156,3.222-66.497,3.022-99.759c-0.24-39.867-1.525-79.723-1.536-119.592
						C497.314-10.234,496.011-10.234,496.011-9.394L496.011-9.394z"/>
				</g>
			</g>
		</g>
		<g clip-path="url(#SVGID_4_)">
			<path fill="#91714F" d="M20.262-4.084c5.236,33.51,0,72.257-1.047,105.768c-2.094,36.652,3.142,68.068,6.283,103.673
				c2.094,29.322-2.094,54.455-5.236,82.729c-3.142,26.18-1.047,54.455-1.047,81.682c0,46.077,5.8,97.39,6.847,142.42H-3.824V-4.084
				H20.262z"/>
			<g>
				<path fill="#91714F" d="M19.78-3.951c4.768,31.099,1.088,62.783-0.565,93.982c-0.846,15.963-1.284,31.884-0.45,47.858
					c0.822,15.747,2.587,31.427,4.233,47.104c1.702,16.215,3.009,32.242,2.272,48.561c-0.707,15.67-2.781,31.24-4.62,46.806
					c-1.917,16.226-2.74,32.331-2.584,48.671c0.156,16.342,0.492,32.687,0.709,49.029c0.423,31.831,3.114,63.582,5.038,95.343
					c0.471,7.781,0.893,15.566,1.231,23.354c0.158,3.645,0.289,7.291,0.4,10.938c0.02,0.661-0.271,3.993,0.573,3.993
					c-0.282,0-0.564,0-0.847,0c-7.233,0-14.466,0-21.698,0c-2.397,0-4.793,0-7.19,0c0.326,0,0.396,0.887,0.396,0.14
					c0-1.063,0-2.126,0-3.189c0-5.156,0-10.312,0-15.469c0-20.292,0-40.584,0-60.876c0-29.519,0-59.039,0-88.558
					c0-33.851,0-67.703,0-101.554c0-33.288,0-66.577,0-99.865c0-27.831,0-55.661,0-83.492c0-17.478,0-34.955,0-52.433
					c0-3.301,0-6.603,0-9.904c0-0.185,0-0.37,0-0.554c0,0.631-0.843,0.483,0.372,0.483c1.444,0,2.887,0,4.331,0
					c6.295,0,12.589,0,18.884,0c0.645,0,0.645-1,0-1c-8.029,0-16.057,0-24.086,0c-0.273,0-0.5,0.227-0.5,0.5
					c0,8.362,0,16.725,0,25.087c0,21.824,0,43.647,0,65.471c0,30.39,0,60.78,0,91.17c0,34.061,0,68.122,0,102.184
					c0,32.837,0,65.675,0,98.512c0,26.719,0,53.437,0,80.156c0,15.705,0,31.41,0,47.115c0,2.193,0,4.385,0,6.578
					c0,0.273,0.227,0.5,0.5,0.5c9.962,0,19.924,0,29.886,0c0.268,0,0.507-0.227,0.5-0.5c-0.754-31.508-3.492-62.927-5.269-94.385
					c-0.886-15.691-1.539-31.401-1.577-47.119c-0.041-16.531-0.716-33.055-0.682-49.586c0.033-16.25,1.592-32.222,3.523-48.338
					c1.864-15.553,3.645-31.123,3.963-46.798c0.331-16.279-1.619-32.403-3.323-48.562c-1.653-15.68-3.214-31.375-3.766-47.14
					c-1.566-44.754,8.146-89.908,1.313-134.476C20.646-4.853,19.683-4.582,19.78-3.951z"/>
			</g>
		</g>
		<path clip-path="url(#SVGID_4_)" fill="#AE8966" d="M12.675-3.917c4.766,31.087,1.082,62.762-0.57,93.948
			c-0.846,15.963-1.284,31.884-0.45,47.859c0.822,15.747,2.587,31.427,4.233,47.104c1.703,16.215,3.01,32.241,2.273,48.561
			c-0.707,15.67-2.781,31.24-4.62,46.806c-1.917,16.226-2.74,32.332-2.584,48.671c0.155,16.342,0.492,32.688,0.709,49.029
			c0.595,44.784,5.716,89.363,6.788,134.128c0.02,0.809,1.276,0.811,1.257,0c-0.754-31.508-3.492-62.927-5.269-94.385
			c-0.886-15.691-1.538-31.401-1.578-47.119c-0.041-16.531-0.715-33.054-0.682-49.587c0.032-16.25,1.591-32.222,3.523-48.338
			c1.864-15.552,3.645-31.123,3.963-46.798c0.331-16.279-1.619-32.403-3.323-48.562c-1.654-15.68-3.215-31.376-3.766-47.14
			c-1.567-44.766,8.143-89.929,1.309-134.51C13.764-5.05,12.553-4.71,12.675-3.917L12.675-3.917z"/>
		<path clip-path="url(#SVGID_4_)" fill="#AE8966" d="M5.664-4.621c4.766,31.087,1.082,62.762-0.57,93.948
			c-0.846,15.963-1.284,31.884-0.45,47.858c0.822,15.747,2.587,31.427,4.233,47.104c1.703,16.216,3.01,32.242,2.273,48.561
			c-0.707,15.671-2.781,31.24-4.62,46.806c-1.918,16.226-2.74,32.332-2.584,48.672c0.155,16.342,0.492,32.687,0.709,49.028
			c0.595,44.785,5.716,89.363,6.788,134.129c0.02,0.809,1.276,0.811,1.257,0c-0.754-31.508-3.492-62.927-5.269-94.385
			c-0.886-15.691-1.538-31.401-1.578-47.119c-0.04-16.531-0.715-33.054-0.682-49.586c0.032-16.25,1.591-32.222,3.523-48.339
			c1.864-15.552,3.645-31.123,3.963-46.798c0.331-16.279-1.619-32.403-3.323-48.563c-1.654-15.68-3.215-31.375-3.766-47.14
			C4,84.788,13.71,39.626,6.875-4.955C6.753-5.754,5.542-5.414,5.664-4.621L5.664-4.621z"/>
	</g>
</g>
</svg>
