<svg xmlns="http://www.w3.org/2000/svg" width="500" height="341" viewBox="0 0 500 341" version="1.1">
	<path d="M 279.111 2.083 C 277.797 2.608, 275.261 2.764, 273.475 2.429 C 271.498 2.059, 269.954 2.265, 269.526 2.958 C 269.066 3.702, 267.295 3.867, 264.411 3.434 C 261.233 2.958, 260 3.116, 260 4 C 260 4.888, 258.755 5.040, 255.500 4.552 C 251.732 3.987, 251 4.143, 251 5.506 C 251 6.747, 250.465 6.959, 248.750 6.396 C 245.736 5.406, 242.609 5.672, 242.182 6.954 C 241.971 7.587, 240.302 7.752, 237.934 7.373 C 234.930 6.893, 233.896 7.106, 233.439 8.299 C 232.999 9.444, 231.955 9.705, 229.440 9.297 C 226.922 8.888, 225.880 9.148, 225.440 10.297 C 224.993 11.461, 223.957 11.705, 221.296 11.273 C 218.664 10.846, 217.520 11.107, 216.861 12.284 C 216.208 13.451, 215.057 13.721, 212.504 13.307 C 209.922 12.888, 208.883 13.141, 208.440 14.297 C 207.998 15.447, 206.957 15.705, 204.422 15.294 C 201.745 14.859, 201 15.080, 201 16.306 C 201 17.538, 200.254 17.753, 197.518 17.309 C 194.920 16.888, 193.884 17.139, 193.438 18.300 C 192.908 19.682, 192.389 19.696, 188.795 18.428 C 183.691 16.627, 182 16.625, 182 18.421 C 182 19.214, 180.565 20.148, 178.750 20.536 C 176.963 20.918, 174.927 21.693, 174.226 22.258 C 172.558 23.602, 172.112 23.047, 171.824 19.267 C 171.531 15.433, 170 16.015, 170 19.960 C 170 22.690, 169.833 22.788, 165.750 22.460 C 163.412 22.272, 154.750 21.857, 146.500 21.536 C 133.779 21.042, 129.905 21.267, 121 23.017 C 115.225 24.152, 109.600 25.256, 108.500 25.471 C 103.238 26.499, 95.654 28.098, 87 30.003 C 81.775 31.153, 70.075 33.665, 61 35.584 C 43.508 39.285, 42.741 39.452, 22.520 44.002 C 9.546 46.920, 9.538 46.924, 4.770 51.949 C 2.147 54.714, -0.001 57.769, -0.003 58.738 C -0.004 59.707, 1.121 63.200, 2.498 66.500 C 3.875 69.800, 13.738 102.200, 24.416 138.500 C 42.425 199.726, 66.312 280.188, 75.922 312 C 78.165 319.425, 80 326.487, 80 327.694 C 80 328.901, 81.040 331.097, 82.311 332.575 C 84.215 334.789, 85.401 335.240, 89.061 335.142 C 91.502 335.076, 115.325 331.256, 142 326.653 L 190.500 318.284 199.479 322.767 C 204.418 325.233, 213.868 329.051, 220.479 331.252 C 230.543 334.601, 234.210 335.330, 243 335.730 C 251.808 336.130, 254.196 336.606, 257.817 338.685 L 262.134 341.163 283.317 331.672 C 300.320 324.053, 305.142 322.284, 307.752 322.704 C 310.746 323.186, 311.054 322.981, 311.626 320.121 C 312.208 317.209, 312.818 316.833, 321.374 314.106 C 333.731 310.168, 344.368 308.602, 354.188 309.275 C 360.167 309.685, 362.563 310.255, 363.217 311.423 C 363.861 312.574, 364.588 312.756, 365.848 312.082 C 366.970 311.481, 371.124 311.678, 377.544 312.638 C 383.868 313.583, 392.638 314.012, 401.584 313.813 C 415.254 313.509, 415.812 313.411, 420.584 310.475 C 423.454 308.709, 426.748 305.506, 428.500 302.780 C 430.744 299.286, 432.320 297.941, 434.756 297.442 C 438.308 296.715, 443 291.925, 443 289.027 C 443 286.813, 437.592 281.902, 433.109 280.045 C 430.547 278.984, 429.934 278.226, 430.315 276.593 C 430.584 275.442, 433.818 261.900, 437.502 246.500 C 441.187 231.100, 444.332 216.703, 444.491 214.506 C 444.710 211.486, 445.206 210.511, 446.528 210.506 C 449.802 210.494, 450.502 207.597, 448.037 204.263 C 446.186 201.760, 445.993 200.880, 446.959 199.357 C 448.043 197.648, 448.100 197.680, 447.662 199.750 C 447.086 202.480, 448.561 202.788, 449.268 200.084 C 449.543 199.031, 449.281 197.681, 448.684 197.084 C 447.905 196.305, 448.330 196, 450.193 196 C 451.635 196, 453.055 195.298, 453.393 194.418 C 454.191 192.339, 454.287 192.637, 451.952 189.945 C 449.044 186.591, 449.606 181.500, 452.885 181.500 C 456.734 181.500, 457.670 178.826, 455.059 175.293 C 453.716 173.477, 452.990 171.321, 453.239 169.886 L 453.653 167.500 454.853 170 C 456.009 172.408, 456.035 172.379, 455.542 169.200 C 455.213 167.081, 455.398 166.128, 456.059 166.536 C 457.472 167.410, 460 165.142, 460 163 C 460 162.035, 459.325 160.685, 458.500 160 C 456.357 158.221, 456.474 153.584, 458.641 154.416 C 460.014 154.943, 460.076 154.796, 459.019 153.523 C 457.959 152.245, 458.077 152, 459.755 152 C 460.855 152, 462.331 151.306, 463.035 150.458 C 464.096 149.180, 463.946 148.418, 462.157 145.999 C 458.965 141.681, 459.329 138.656, 463.250 136.930 C 467.110 135.232, 467.905 132.129, 465.125 129.613 C 463.486 128.130, 463.330 127.353, 464.178 124.918 C 464.812 123.099, 465.899 122, 467.063 122 C 470.297 122, 471.258 118.598, 468.878 115.572 C 467.499 113.819, 466.999 112.139, 467.392 110.575 C 467.839 108.793, 467.385 107.827, 465.527 106.609 C 464.176 105.724, 462.649 105, 462.133 105 C 460.472 105, 458.931 111.002, 460.053 113.099 C 461.289 115.409, 459.800 115.657, 457.643 113.500 C 456.818 112.675, 455.677 112, 455.107 112 C 453.245 112, 451.845 116.015, 452.558 119.309 C 453.242 122.466, 453.228 122.480, 451.207 120.669 L 449.164 118.838 451.347 114.669 C 452.548 112.376, 454.198 110.500, 455.015 110.500 C 455.832 110.500, 457.254 108.848, 458.175 106.829 C 459.259 104.455, 460.644 103.042, 462.097 102.829 C 463.563 102.614, 464.683 101.457, 465.322 99.500 C 466.459 96.012, 467.640 95.036, 470.750 95.015 C 471.988 95.007, 473.056 94.550, 473.125 94 C 473.194 93.450, 473.333 92.662, 473.435 92.250 C 473.536 91.838, 474.228 88.800, 474.972 85.500 C 475.716 82.200, 476.853 78.825, 477.498 78 C 478.143 77.175, 479.204 75.150, 479.856 73.500 C 480.508 71.850, 482.390 69.729, 484.039 68.786 C 485.998 67.666, 487.252 65.989, 487.661 63.944 C 488.229 61.107, 488.577 60.858, 491.393 61.272 C 494.790 61.771, 498.959 60.314, 499.070 58.589 C 499.109 57.990, 499.527 58.400, 500 59.500 C 500.837 61.448, 500.861 61.444, 500.930 59.364 C 501.012 56.850, 498.691 52.054, 496.816 50.865 C 496.092 50.406, 494.530 50.024, 493.345 50.015 C 491.868 50.005, 490.389 48.634, 488.645 45.656 C 483.219 36.398, 476.016 33.031, 450.771 27.954 C 440.389 25.866, 431.356 23.714, 430.697 23.173 C 430.039 22.632, 426.800 21.438, 423.500 20.519 C 413.339 17.692, 411.043 16.886, 411.142 16.180 C 411.492 13.672, 410.828 12.129, 409.601 12.600 C 408.832 12.895, 407.905 12.656, 407.542 12.068 C 406.554 10.469, 403.881 10.780, 402.512 12.653 C 401.408 14.162, 399.661 13.859, 382.371 9.153 C 363.008 3.883, 359.564 3.278, 358.524 4.962 C 358.158 5.553, 357.021 5.578, 355.572 5.027 C 354.275 4.534, 352.296 4.371, 351.173 4.665 C 350.051 4.959, 347.611 4.697, 345.752 4.083 C 343.893 3.470, 338.351 2.699, 333.436 2.372 C 319.152 1.419, 287.962 1.252, 287.423 2.125 C 287.151 2.564, 285.791 2.491, 284.399 1.962 C 283.008 1.433, 281.787 1.029, 281.685 1.063 C 281.583 1.098, 280.425 1.557, 279.111 2.083 M 146.537 12.354 C 142.511 14.071, 144.688 15.179, 150.139 14.188 C 154.993 13.306, 166.774 13.441, 167.723 14.390 C 168.657 15.324, 171 15.115, 171 14.098 C 171 11.386, 153.792 9.659, 152.583 12.250 C 152.117 13.250, 151.883 13.250, 151.417 12.250 C 150.710 10.735, 150.314 10.743, 146.537 12.354 M 110.750 15.068 C 108.688 16.157, 107 17.499, 107 18.050 C 107 18.623, 108.177 18.453, 109.750 17.653 C 111.263 16.884, 115.080 15.941, 118.234 15.557 C 125.676 14.652, 126.719 12.987, 119.809 13.044 C 116.522 13.072, 113.072 13.843, 110.750 15.068 M 129 13.927 C 129 14.436, 128.213 15.082, 127.250 15.361 C 126.287 15.641, 127.075 15.812, 129 15.741 C 133.384 15.580, 134.602 14.996, 132.857 13.890 C 131.058 12.751, 129 12.770, 129 13.927 M 134 17.500 C 134 18.325, 134.375 19, 134.833 19 C 135.292 19, 135.667 18.325, 135.667 17.500 C 135.667 16.675, 135.292 16, 134.833 16 C 134.375 16, 134 16.675, 134 17.500 M 139.835 16.673 C 138.919 16.915, 137.951 17.685, 137.683 18.384 C 137.322 19.325, 138.118 19.503, 140.766 19.073 C 142.729 18.754, 144.523 17.932, 144.751 17.246 C 145.161 16.016, 143.186 15.785, 139.835 16.673 M 419.550 16.853 C 420.072 17.321, 422.750 18.286, 425.500 18.997 C 428.250 19.707, 431.850 21.053, 433.500 21.988 C 435.150 22.923, 438.746 23.799, 441.492 23.934 C 444.237 24.070, 446.937 24.431, 447.492 24.737 C 448.164 25.108, 448.167 24.959, 447.500 24.290 C 446.950 23.738, 444.700 22.374, 442.500 21.258 C 436.174 18.050, 416.724 14.317, 419.550 16.853 M 107 22.441 C 107 23.942, 108.795 25.538, 109.590 24.743 C 110.288 24.046, 108.907 21, 107.893 21 C 107.402 21, 107 21.648, 107 22.441 M 0.195 59.500 C 0.215 61.150, 0.439 61.704, 0.693 60.731 C 0.947 59.758, 0.930 58.408, 0.656 57.731 C 0.382 57.054, 0.175 57.850, 0.195 59.500 M 468.200 99.200 C 466.525 100.875, 466.704 105.237, 468.587 108.636 L 470.174 111.500 469.547 108.666 C 469.124 106.755, 469.273 106.051, 470.004 106.502 C 471.337 107.326, 474 105.252, 474 103.389 C 474 101.992, 471.020 98, 469.978 98 C 469.660 98, 468.860 98.540, 468.200 99.200 M 465.729 123.604 C 465.328 124.005, 465 125.023, 465 125.867 C 465 126.992, 465.296 127.104, 466.113 126.287 C 466.724 125.676, 467.053 124.657, 466.842 124.025 C 466.631 123.392, 466.130 123.203, 465.729 123.604 M 462.079 139.583 C 462.127 140.748, 462.364 140.985, 462.683 140.188 C 462.972 139.466, 462.936 138.603, 462.604 138.271 C 462.272 137.939, 462.036 138.529, 462.079 139.583" fill="none" stroke="#000" stroke-width="2px" fill-rule="evenodd"/>
</svg>
