<svg xmlns="http://www.w3.org/2000/svg" width="416" height="500" viewBox="0 0 416 500" version="1.1">
	<path d="M 378.179 5.588 C 373.719 10.593, 372.976 11.057, 371.066 10.035 C 369.162 9.016, 368.819 9.222, 367.869 11.947 C 367.283 13.626, 366.398 15, 365.902 15 C 365.406 15, 365 15.942, 365 17.094 C 365 18.346, 364.197 19.397, 363 19.710 C 361.900 19.998, 361 20.824, 361 21.545 C 361 22.267, 360.212 23.645, 359.250 24.607 C 358.288 25.570, 357.444 26.727, 357.375 27.179 C 357.306 27.630, 357.194 28.450, 357.125 29 C 357.056 29.550, 356.314 30, 355.475 30 C 354.637 30, 353.487 31.012, 352.921 32.250 C 352.354 33.487, 351.037 36.075, 349.994 38 C 347.844 41.964, 347.519 44, 349.035 44 C 349.749 44, 349.749 44.601, 349.035 45.934 C 348.466 46.998, 348 48.846, 348 50.040 C 348 51.235, 346.727 53.852, 345.171 55.856 C 343.616 57.860, 324.626 82, 302.973 109.500 C 281.319 137, 258.029 166.585, 251.216 175.244 C 244.403 183.903, 238.436 191.231, 237.956 191.527 C 237.476 191.824, 234.027 190.534, 230.291 188.662 C 217.101 182.047, 208.747 179.826, 194.939 179.262 C 184.901 178.851, 181.196 179.092, 176.491 180.460 C 165.837 183.557, 158.997 187.742, 150.485 196.373 C 141.100 205.890, 137.589 212.127, 130.033 232.703 C 121.655 255.516, 118.550 258.266, 88.500 269.484 C 48.159 284.544, 28.564 297.419, 14.669 317.996 C -5.569 347.966, -4.881 383.181, 16.580 415.748 C 23.393 426.086, 49.060 452.305, 61.675 461.814 C 84.336 478.894, 108.100 491.873, 125.504 496.674 C 134.104 499.047, 137.385 499.434, 149 499.451 C 164.497 499.473, 169.991 498.388, 181.619 493.009 C 192.621 487.919, 200.242 482.546, 208.061 474.365 C 226.952 454.601, 233.380 435.655, 238.043 386 C 241.760 346.412, 242.762 344.311, 265.581 328.247 C 293.675 308.471, 304.728 284.805, 298.055 258.713 C 294.494 244.792, 287.040 232.677, 274.804 220.926 C 271.612 217.860, 269 215.050, 269 214.683 C 269 214.316, 284.435 192.524, 303.301 166.257 C 322.166 139.991, 340.596 114.225, 344.256 109 C 364.866 79.577, 372.682 69.493, 375.259 69 C 376.698 68.725, 379.031 67.487, 380.445 66.250 C 383.415 63.650, 384.153 63.437, 383.400 65.399 C 382.675 67.289, 385.018 68.614, 386.018 66.878 C 387.120 64.965, 390.117 61.165, 392.500 58.660 C 393.600 57.503, 396.678 53.844, 399.340 50.528 C 402.003 47.213, 404.815 44.140, 405.590 43.700 C 406.366 43.260, 407 42.273, 407 41.507 C 407 40.741, 407.982 39.426, 409.181 38.586 C 411.216 37.160, 411.252 36.936, 409.722 35.245 C 408.191 33.553, 408.243 33.233, 410.504 30.466 C 411.837 28.835, 412.944 26.993, 412.964 26.372 C 412.984 25.752, 413.675 24.685, 414.500 24 C 416.708 22.168, 416.328 20.075, 413.601 19.038 C 411.071 18.076, 408 14.398, 408 12.329 C 408 8.542, 399.045 3.046, 394.065 3.777 C 391.784 4.112, 389.985 3.625, 387.956 2.126 C 386.375 0.957, 384.649 0, 384.120 0 C 383.592 0, 380.919 2.515, 378.179 5.588 M 370.653 26.407 C 369.329 28.427, 369.300 28.901, 370.473 29.351 C 371.242 29.646, 372.051 29.575, 372.271 29.194 C 372.492 28.812, 372.548 29.030, 372.396 29.677 C 372.243 30.324, 372.765 31.390, 373.554 32.045 C 374.704 32.999, 375.380 32.766, 376.961 30.868 C 378.046 29.565, 378.948 28.193, 378.967 27.817 C 379.016 26.806, 375.176 25.773, 374.020 26.487 C 373.444 26.844, 373.274 26.449, 373.618 25.552 C 374.553 23.117, 372.402 23.737, 370.653 26.407 M 386.141 36.350 C 384.192 38.424, 384.112 38.848, 385.454 39.962 C 386.290 40.656, 387.679 40.954, 388.539 40.623 C 389.400 40.293, 389.848 40.437, 389.536 40.942 C 388.417 42.753, 391.164 43.162, 393.039 41.464 C 395.339 39.384, 394.544 37.338, 392.161 39.201 C 390.669 40.368, 390.642 40.319, 391.898 38.719 C 393.120 37.163, 393.057 36.756, 391.398 35.501 C 388.879 33.594, 388.704 33.622, 386.141 36.350 M 363.101 36.299 C 361.726 37.674, 361.642 40.339, 363 39.500 C 363.550 39.160, 364 39.531, 364 40.324 C 364 42.861, 368.089 43.109, 370.066 40.692 C 372.121 38.179, 371.603 37.320, 367.284 36.081 C 365.245 35.497, 363.830 35.570, 363.101 36.299 M 367.624 38.539 C 366.659 41.053, 366.943 41.702, 368.122 39.675 C 368.706 38.671, 368.973 37.639, 368.715 37.382 C 368.458 37.124, 367.966 37.645, 367.624 38.539 M 379.201 45.846 C 376.455 47.920, 376.998 50.016, 380.733 51.757 C 383.056 52.841, 383.679 52.765, 385.233 51.212 C 386.970 49.474, 386.935 49.312, 384.268 46.759 C 381.590 44.196, 381.425 44.167, 379.201 45.846 M 357 48.167 C 357 49.358, 357.296 50.037, 357.658 49.675 C 358.020 49.313, 358.920 49.519, 359.658 50.131 C 360.651 50.955, 361.387 50.923, 362.489 50.009 C 364.394 48.428, 363.351 46.675, 360.887 47.319 C 359.849 47.591, 359 47.405, 359 46.906 C 359 46.408, 358.550 46, 358 46 C 357.450 46, 357 46.975, 357 48.167 M 371.175 56.662 C 371.416 58.766, 372.112 59.587, 373.865 59.835 C 376.890 60.263, 379.106 58.301, 377.039 57.024 C 376.245 56.534, 375.225 56.361, 374.773 56.640 C 374.321 56.920, 374.074 56.579, 374.225 55.884 C 374.376 55.188, 373.679 54.440, 372.675 54.222 C 371.191 53.899, 370.911 54.355, 371.175 56.662" fill="none" stroke="#000" stroke-width="2px" fill-rule="evenodd"/>
</svg>
