<svg xmlns="http://www.w3.org/2000/svg" width="405" height="500" viewBox="0 0 405 500" version="1.1">
	<path d="M 176.004 3.670 C 170.814 4.402, 170 5.548, 170 12.122 C 170 17.690, 168.667 19.902, 167.362 16.500 C 166.974 15.490, 165.387 15, 162.501 15 C 158.812 15, 158.133 15.334, 157.614 17.402 C 157.282 18.724, 157.290 21.199, 157.630 22.902 C 158.207 25.785, 158.546 26, 162.518 26 C 165.389 26, 166.974 25.509, 167.362 24.500 C 168.231 22.235, 170.708 22.702, 171.348 25.250 C 171.658 26.488, 172.225 31.259, 172.608 35.854 C 173.299 44.137, 173.287 44.196, 171.226 42.909 C 169.710 41.962, 168.140 41.867, 165.422 42.556 C 160.685 43.756, 159.202 45.952, 160.783 49.422 C 161.757 51.561, 162.632 52, 165.920 52 C 168.099 52, 170.160 51.550, 170.500 51 C 171.743 48.990, 175.173 50.089, 179.077 53.750 L 183.077 57.500 181.521 137.500 C 180.666 181.500, 179.697 224.882, 179.370 233.904 L 178.774 250.308 166.768 263.404 C 142.380 290.008, 137.274 295.707, 129.500 305 C 125.129 310.225, 118.616 317.925, 115.026 322.110 C 100.388 339.180, 84.715 359.643, 64.177 388.500 C 57.522 397.850, 51.273 406.625, 50.289 408 C 49.305 409.375, 48.473 410.950, 48.441 411.500 C 48.300 413.873, 46.597 417.728, 44.384 420.683 C 43.073 422.434, 42 424.338, 42 424.914 C 42 425.490, 40.462 428.366, 38.581 431.306 C 36.701 434.245, 34.226 438.304, 33.081 440.325 C 31.937 442.346, 30.041 445.688, 28.870 447.750 C 27.698 449.813, 23.355 458.025, 19.219 466 C 15.083 473.975, 10.510 482.300, 9.056 484.500 C 5.724 489.543, 4 493.515, 4 496.147 L 4 498.200 79.250 497.350 C 149.827 496.553, 181.767 496.432, 190 496.932 C 191.925 497.049, 197.438 496.831, 202.250 496.447 C 208.480 495.950, 211 496.073, 211 496.875 C 211 498.549, 215.337 498.240, 221.782 496.108 C 227.300 494.282, 240.688 493.435, 280.500 492.391 C 285.450 492.262, 298.275 491.469, 309 490.630 C 319.725 489.791, 336.150 488.593, 345.500 487.967 C 354.850 487.341, 363.850 486.694, 365.500 486.529 C 367.150 486.363, 375.086 485.735, 383.135 485.133 C 397.443 484.063, 403 482.951, 403 481.160 C 403 480.670, 402.160 479.197, 401.134 477.885 C 400.108 476.573, 393.921 467.137, 387.384 456.916 C 380.848 446.695, 375.050 437.648, 374.500 436.813 C 373.950 435.978, 371.700 432.505, 369.500 429.095 C 365.977 423.636, 336.139 383.218, 325.441 369.415 C 310.982 350.759, 292.740 329.303, 274.928 310 C 264.480 298.678, 260.544 294.594, 234.392 267.938 C 224.983 258.347, 216.819 249.600, 216.249 248.500 C 214.815 245.731, 214.148 233.080, 212.450 176.500 C 211.642 149.550, 210.320 114.675, 209.513 99 C 208.706 83.325, 208.035 66.943, 208.023 62.596 L 208 54.693 212 51 C 215.672 47.610, 216 46.884, 216 42.154 L 216 37 220.929 37 C 225.911 37, 229.492 34.993, 228.717 32.634 C 228.512 32.010, 225.717 31.275, 222.506 31 L 216.668 30.500 216.859 22.500 C 216.964 18.100, 217.302 12.674, 217.610 10.443 C 218.480 4.135, 217.677 3.861, 197.286 3.496 C 187.503 3.321, 177.927 3.399, 176.004 3.670" fill="none" stroke="#000" stroke-width="2px" fill-rule="evenodd"/>
</svg>
