<svg xmlns="http://www.w3.org/2000/svg" width="476" height="414" viewBox="0 0 476 414" version="1.1">
	<path d="M 294.500 5.015 C 291.750 6, 285.450 8.010, 280.500 9.483 C 275.550 10.955, 266.550 13.675, 260.500 15.527 C 254.450 17.379, 244.100 20.513, 237.500 22.492 C 230.900 24.472, 220.550 27.624, 214.500 29.497 C 208.450 31.370, 201.250 33.569, 198.500 34.382 C 195.750 35.196, 192.150 36.337, 190.500 36.918 C 188.850 37.499, 182.100 39.603, 175.500 41.594 C 168.900 43.584, 161.700 45.784, 159.500 46.483 C 157.300 47.182, 152.125 48.757, 148 49.983 C 143.875 51.209, 135.550 53.768, 129.500 55.669 C 111.338 61.378, 89.696 68.020, 74.752 72.472 C 71.590 73.414, 68.751 74.593, 68.443 75.092 C 68.134 75.592, 67.015 76, 65.956 76 C 62.930 76, 46.805 80.898, 44.190 82.611 C 39.434 85.728, 39.071 88.530, 40.060 114.540 C 40.561 127.718, 41.406 146.375, 41.938 156 C 42.469 165.625, 43.039 178.900, 43.202 185.500 L 43.500 197.500 40 197.217 C 26.473 196.126, 21.502 196.499, 17.500 198.907 C 10.353 203.208, 7.177 206.957, 4.909 213.774 C 2.973 219.590, 2.886 220.788, 3.989 226.351 C 4.660 229.733, 5.837 233.918, 6.605 235.651 C 7.372 237.384, 8 239.205, 8 239.698 C 8 241.718, 15.852 248.001, 20.787 249.932 C 31.779 254.232, 41.924 251.946, 50.324 243.278 C 52.605 240.925, 54.976 239, 55.594 239 C 56.211 239, 58.350 241.363, 60.346 244.250 C 62.342 247.138, 64.837 250.625, 65.891 252 C 66.945 253.375, 71.472 259.675, 75.952 266 C 80.431 272.325, 85.638 279.525, 87.523 282 C 89.408 284.475, 91.658 287.962, 92.522 289.750 C 93.387 291.537, 94.479 293, 94.950 293 C 95.420 293, 97.439 295.363, 99.436 298.250 C 101.432 301.137, 104.880 305.975, 107.096 309 C 109.313 312.025, 113.576 318.212, 116.569 322.750 C 119.563 327.287, 122.376 331, 122.821 331 C 123.266 331, 124.393 332.462, 125.326 334.250 C 126.774 337.025, 129.384 340.609, 135.338 348 C 136.003 348.825, 140.970 355.800, 146.376 363.500 C 151.783 371.200, 157.064 378.625, 158.112 380 C 159.160 381.375, 162.592 386.082, 165.739 390.460 C 168.886 394.838, 174.010 401.025, 177.126 404.210 C 183.282 410.501, 186.497 411.453, 191.846 408.569 C 193.306 407.781, 196.525 406.237, 199 405.137 C 201.475 404.038, 207.895 401.082, 213.267 398.569 C 218.639 396.056, 223.279 394, 223.578 394 C 223.877 394, 227.807 392.266, 232.311 390.146 C 236.815 388.027, 241.625 385.939, 243 385.507 C 244.375 385.076, 250 382.597, 255.500 379.999 C 268.532 373.844, 279.620 369, 280.676 369 C 281.139 369, 285.385 367.026, 290.113 364.614 C 294.840 362.201, 299.786 359.891, 301.104 359.479 C 302.422 359.068, 307.668 356.777, 312.762 354.388 C 317.856 352, 324.381 349.089, 327.262 347.920 C 330.143 346.750, 337.100 343.590, 342.722 340.897 C 348.344 338.204, 353.168 336, 353.442 336 C 353.716 336, 356.400 334.875, 359.406 333.500 C 362.412 332.125, 365.154 331, 365.498 331 C 366.112 331, 367.543 330.357, 385.309 322.096 C 390.154 319.843, 394.326 318, 394.579 318 C 394.833 318, 398.744 316.255, 403.270 314.122 C 414.264 308.942, 420.231 306.241, 434.500 299.984 C 441.100 297.089, 446.650 294.334, 446.833 293.861 C 447.017 293.387, 448.142 293, 449.333 293.001 C 452.564 293.002, 465.720 285.918, 466.879 283.554 C 467.943 281.383, 469.320 255.386, 471.039 205 C 471.611 188.225, 472.473 168.650, 472.955 161.500 C 474.101 144.477, 473.149 142.161, 461 132.412 C 456.325 128.661, 447.722 121.521, 441.881 116.546 C 436.041 111.571, 429.780 106.375, 427.968 105 C 426.156 103.625, 421.896 100.025, 418.502 97 C 415.107 93.975, 408.543 88.502, 403.915 84.837 C 399.287 81.172, 392.081 75.322, 387.903 71.837 C 383.724 68.352, 369.371 56.500, 356.008 45.500 C 342.644 34.500, 328.513 22.777, 324.605 19.450 C 303.711 1.658, 303.779 1.691, 294.500 5.015" fill="none" stroke="#000" stroke-width="2px" fill-rule="evenodd"/>
</svg>
