<svg xmlns="http://www.w3.org/2000/svg" width="500" height="339" viewBox="0 0 500 339" version="1.1">
	<path d="M 228.161 6.547 C 227.522 7.948, 227 10.198, 227 11.547 C 227 14.911, 226.026 14.655, 220.580 9.861 C 215.480 5.373, 214.325 5.554, 213.821 10.923 C 213.645 12.806, 212.999 14.510, 212.387 14.711 C 211.775 14.911, 209.011 13.285, 206.243 11.098 C 203.476 8.911, 200.939 7.394, 200.606 7.727 C 200.273 8.061, 200 10.032, 200 12.108 C 200 14.184, 199.530 16.172, 198.955 16.528 C 198.381 16.883, 195.424 15.295, 192.384 13 C 187.193 9.081, 186.825 8.954, 186.312 10.914 C 186.012 12.061, 185.482 13.034, 185.133 13.075 C 183.673 13.247, 164.256 14.274, 161.500 14.325 C 159.850 14.356, 157.713 14.022, 156.750 13.583 C 155.506 13.016, 155 13.221, 155 14.289 C 155 16.473, 138.771 18.885, 136.539 17.033 C 135.566 16.225, 135 16.151, 135 16.831 C 135 19.480, 125.018 22.246, 106.521 24.721 C 104.333 25.014, 101.633 25.827, 100.521 26.529 C 99.410 27.230, 96.925 28.099, 95 28.460 C 93.075 28.821, 90.600 29.536, 89.500 30.050 C 87.315 31.069, 80.500 32.752, 51.057 39.545 C 40.363 42.012, 29.338 45.082, 26.557 46.367 C 19.462 49.646, 11.333 58.046, 7.596 65.962 C 4.756 71.976, 4.516 73.302, 4.602 82.500 C 4.701 93.014, 6.041 98.837, 24.499 169 C 27.465 180.275, 32.193 198.500, 35.004 209.500 C 37.816 220.500, 41.417 234.450, 43.006 240.500 C 44.595 246.550, 47.060 256, 48.482 261.500 C 53.054 279.177, 54.902 284.509, 58.160 289.428 C 64.428 298.891, 77.740 306.713, 90.500 308.430 C 93.423 308.824, 100.693 308.439, 108 307.505 C 114.875 306.626, 124.775 305.465, 130 304.926 C 135.225 304.386, 140.101 303.731, 140.837 303.471 C 141.572 303.210, 144.497 305.043, 147.337 307.545 C 154.367 313.737, 168.037 320.468, 176.748 322.024 C 182.387 323.032, 185.065 323.026, 190.545 321.992 C 197.161 320.743, 197.395 320.770, 199.185 322.980 L 201.025 325.252 215.262 321.026 C 223.093 318.702, 233.456 315.480, 238.291 313.866 C 243.126 312.253, 247.486 311.182, 247.979 311.487 C 248.473 311.792, 249.293 311.299, 249.802 310.390 C 250.378 309.359, 253.316 308.237, 257.613 307.406 C 266.735 305.641, 270.705 305.682, 279.253 307.626 C 284.678 308.860, 287.009 309.945, 288.923 312.126 C 290.310 313.707, 291.832 315, 292.304 315 C 292.777 315, 295.939 316.643, 299.332 318.650 C 328.522 335.923, 333.209 337.869, 341.081 335.980 C 343.906 335.303, 347.631 333.550, 349.358 332.085 C 351.086 330.620, 353.588 328.734, 354.919 327.893 C 356.969 326.597, 357.351 325.538, 357.426 320.932 C 357.511 315.723, 357.946 314.874, 368.007 300.263 C 373.778 291.882, 381.915 280.029, 386.088 273.922 C 390.262 267.815, 394.098 262.522, 394.614 262.159 C 397.001 260.481, 415 234.837, 415 233.113 C 415 232.579, 415.700 231.443, 416.556 230.587 C 419.270 227.873, 431 211.785, 431 210.776 C 431 210.244, 432.012 208.413, 433.250 206.707 C 434.487 205.001, 436.400 201.934, 437.500 199.891 C 440.976 193.437, 448.142 183, 449.098 183 C 450.175 183, 466.675 157.984, 468.140 154.132 C 468.688 152.689, 470.231 150.074, 471.569 148.321 C 472.906 146.568, 474.029 144.766, 474.064 144.317 C 474.272 141.633, 484.109 131.420, 488.991 128.818 C 494.435 125.916, 496.582 123.751, 495.597 122.157 C 495.316 121.702, 495.570 119.754, 496.161 117.827 C 497.008 115.068, 496.882 113.105, 495.568 108.586 C 493.450 101.301, 489.020 96.780, 475 87.598 C 469.225 83.815, 463.433 79.406, 462.130 77.799 C 460.763 76.115, 459.159 75.109, 458.342 75.422 C 457.562 75.721, 456.676 75.319, 456.372 74.528 C 456.069 73.737, 453.386 71.716, 450.410 70.036 C 447.435 68.357, 445 66.326, 445 65.523 C 445 64.679, 444.406 64.291, 443.593 64.603 C 442.159 65.153, 439.749 63.798, 425.346 54.350 C 420.861 51.407, 416.231 49, 415.056 49 C 413.882 49, 410.582 47.425, 407.724 45.500 C 404.865 43.575, 401.708 42, 400.708 42 C 399.708 42, 396.201 40.174, 392.915 37.942 C 389.294 35.483, 386.260 34.100, 385.214 34.432 C 384.171 34.763, 381.182 33.415, 377.667 31.029 C 372.854 27.763, 371.532 27.275, 370.032 28.212 C 368.533 29.148, 367.332 28.708, 363.107 25.672 C 358.070 22.054, 355 21.042, 355 23 C 355 24.858, 352.841 24.016, 346.872 19.830 L 340.927 15.659 339.407 17.830 C 338.571 19.023, 337.543 20, 337.124 20 C 336.704 20, 333.949 18.200, 331 16 C 328.051 13.800, 325.355 12, 325.008 12 C 324.661 12, 323.382 12.927, 322.166 14.060 C 319.498 16.545, 317.787 16.099, 312.601 11.565 C 309.197 8.589, 308.518 8.339, 307.254 9.603 C 305.734 11.123, 306.202 14, 307.969 14 C 308.536 14, 309 14.675, 309 15.500 C 309 18.085, 306.940 17.177, 299.892 11.483 C 293.279 6.139, 292.999 6.020, 291.032 7.705 C 289.914 8.662, 289 10.019, 289 10.722 C 289 13.105, 285.646 12.015, 281.048 8.137 C 276.480 4.286, 275.788 4.247, 273.664 7.721 C 273.216 8.454, 273.934 9.825, 275.459 11.151 C 276.857 12.366, 278 13.730, 278 14.180 C 278 16.171, 274.692 14.602, 268.020 9.447 C 262.250 4.989, 260.553 4.126, 259.416 5.069 C 257.788 6.421, 257.518 10.584, 259 11.500 C 260.344 12.331, 260.273 14, 258.894 14 C 257.849 14, 251.793 9.598, 247.581 5.777 C 246.143 4.472, 245.328 4.313, 244.331 5.140 C 242.767 6.438, 242.547 11.602, 244.016 12.510 C 245.057 13.153, 244.440 15, 243.184 15 C 242.800 15, 239.647 12.525, 236.179 9.500 C 232.710 6.475, 229.748 4, 229.597 4 C 229.445 4, 228.799 5.146, 228.161 6.547 M 116.250 15.944 C 115.013 16.976, 114.016 18.423, 114.036 19.160 C 114.056 19.916, 115.036 19.359, 116.286 17.881 C 117.504 16.440, 119.175 15.013, 120 14.710 C 121.333 14.219, 121.333 14.153, 120 14.112 C 119.175 14.087, 117.487 14.911, 116.250 15.944" fill="none" stroke="#000" stroke-width="2px" fill-rule="evenodd"/>
</svg>
