<svg xmlns="http://www.w3.org/2000/svg" width="408" height="500" viewBox="0 0 408 500" version="1.1">
	<path d="M 183.500 3.977 C 171.430 5.392, 159.981 9.883, 150.641 16.867 C 142.251 23.141, 126.046 46.305, 126.010 52.076 C 126.004 52.942, 124.911 54.674, 123.581 55.924 C 120.491 58.827, 117.707 65.435, 115.422 75.287 C 113.833 82.143, 113.223 83.317, 110.325 85.108 C 103.685 89.212, 97.490 97.586, 92.216 109.587 C 89.440 115.903, 84.133 125.915, 80.421 131.838 C 74.177 141.801, 73.466 142.575, 70.912 142.200 C 68.523 141.850, 67.703 142.475, 64.825 146.844 C 62.996 149.621, 60.570 152.130, 59.433 152.420 C 56.268 153.226, 54.532 157.218, 55.784 160.810 C 56.494 162.847, 56.496 164.104, 55.790 164.810 C 54.171 166.429, 53.072 174.143, 54.202 175.952 C 54.955 177.158, 54.292 179.101, 51.504 183.858 C 38.847 205.454, 25.422 240.639, 15.012 279.500 C 6.976 309.499, 5.433 324.710, 3.758 390.500 C 2.137 454.177, 1.924 449.277, 6.746 459.326 C 9.004 464.033, 12.767 469.961, 15.106 472.500 C 25.163 483.410, 39.200 492.042, 52.500 495.494 C 58.780 497.125, 79.096 497.377, 82 495.860 C 82.825 495.429, 87.079 493.472, 91.453 491.510 C 95.827 489.548, 100.121 487.296, 100.995 486.505 C 101.868 485.714, 113.886 479.461, 127.700 472.609 C 141.515 465.757, 159.046 456.581, 166.659 452.218 C 174.271 447.855, 184.550 442.188, 189.500 439.626 C 202.862 432.709, 218.525 420.246, 247.864 393.183 C 260.057 381.935, 279.412 360.571, 290.956 345.618 C 297.047 337.727, 299.728 335, 301.392 335 C 303.525 335, 310 328.909, 310 326.904 C 310 326.407, 311.350 326, 313 326 C 317.491 326, 320.367 322.648, 319.653 318.247 C 319.219 315.573, 319.686 313.686, 321.582 310.450 C 323.237 307.626, 323.882 305.378, 323.488 303.807 C 322.798 301.061, 332.645 284.994, 344.812 269.012 C 351.945 259.641, 355.393 252.651, 356.598 245.112 C 357.109 241.917, 358.849 239.619, 366.608 231.892 C 371.774 226.748, 376 222.133, 376 221.636 C 376 221.139, 378.860 217.941, 382.357 214.530 C 386.669 210.322, 389.787 206.105, 392.055 201.414 C 393.892 197.611, 396.627 192.663, 398.131 190.417 C 405.927 178.780, 407.461 161.141, 402.076 145.067 C 394.329 121.943, 380.657 102.480, 353.899 76.481 C 340.024 62.999, 333.961 57.999, 320.714 49.113 C 282.882 23.736, 240.272 7.157, 204.813 4.019 C 192.571 2.935, 192.393 2.935, 183.500 3.977 M 122.665 66.750 C 121.937 67.956, 117.129 84, 117.496 84 C 118.618 84, 123.194 73.861, 123.684 70.288 C 124.223 66.358, 123.796 64.877, 122.665 66.750" fill="none" stroke="#000" stroke-width="2px" fill-rule="evenodd"/>
</svg>
