<svg xmlns="http://www.w3.org/2000/svg" width="500" height="194" viewBox="0 0 500 194" version="1.1">
	<path d="M 16.823 2.735 C 10.338 7.117, 4.784 18.395, 2.410 32 C 1.070 39.684, 0.874 45.133, 1.388 60.500 C 2.593 96.559, 9.419 128.263, 20.713 150.258 C 32.943 174.075, 47.369 172.453, 54.139 146.500 C 55.144 142.650, 55.973 138.297, 55.983 136.827 C 56.007 133.102, 59.858 128.909, 68.662 123.020 C 77.944 116.812, 88.169 111.836, 99.705 107.912 C 108.548 104.905, 163.321 92.362, 172.325 91.282 L 177.151 90.704 175.453 94.602 C 167.075 113.846, 164.320 131.632, 167.029 149 C 170.164 169.104, 188.128 187.647, 208.169 191.466 C 215.541 192.871, 217.183 192.817, 250.500 190.081 C 257.100 189.539, 267.900 188.825, 274.500 188.494 C 288.427 187.797, 299.039 186.517, 307.500 184.512 C 310.800 183.731, 322.275 182.125, 333 180.943 C 365.017 177.417, 375.365 173.674, 388.051 161.027 C 396.892 152.214, 401.786 143.228, 404.952 130 C 409.831 109.612, 405.532 76.369, 396.001 60.774 C 394.307 58.003, 393.523 55.795, 394.105 55.435 C 394.650 55.098, 401.037 54.724, 408.298 54.604 C 415.559 54.484, 422.402 53.892, 423.505 53.289 C 426.082 51.879, 471.593 50.712, 473.989 51.994 C 474.942 52.504, 477.314 54.514, 479.261 56.461 C 483.413 60.613, 486.781 61.004, 491.212 57.849 C 495.627 54.705, 497.952 48.791, 497.978 40.636 C 498.013 29.787, 493.070 23, 485.134 23 C 482.948 23, 481.161 24.082, 478.334 27.117 C 473.386 32.429, 469.566 34, 461.597 34 C 458.040 34, 453.863 34.491, 452.315 35.092 C 450.767 35.692, 441.400 36.345, 431.500 36.542 C 421.600 36.739, 411.368 37.358, 408.762 37.918 C 406.157 38.477, 397.550 39.395, 389.636 39.957 C 377.622 40.810, 374.443 40.733, 370.374 39.491 C 359.851 36.278, 343.394 34.868, 329 35.947 C 293.907 38.576, 268.838 40.118, 238.500 41.512 C 220.350 42.346, 203.700 43.245, 201.500 43.510 C 199.300 43.775, 179.275 44.722, 157 45.615 C 85.648 48.473, 70.459 46.573, 49.185 32.126 C 44.173 28.722, 42.740 27.041, 40.175 21.560 C 32.463 5.080, 23.749 -1.944, 16.823 2.735 M 344.500 78.492 C 338.450 79.249, 327.875 79.894, 321 79.926 C 314.125 79.957, 302.650 80.638, 295.500 81.439 C 288.350 82.240, 278 83.402, 272.500 84.021 C 267 84.640, 257.949 85.523, 252.386 85.983 C 242.022 86.840, 230.740 89.456, 221 93.262 C 213.738 96.099, 200.870 109, 197.322 117 C 193.992 124.510, 192.387 141.596, 194.530 146.725 C 195.338 148.661, 196 151.549, 196 153.144 C 196 156.636, 202.882 164.615, 207.606 166.601 C 216.325 170.266, 235.575 169.160, 271 162.959 C 274.025 162.430, 281.225 161.532, 287 160.963 C 292.775 160.395, 304.475 158.637, 313 157.056 C 321.525 155.475, 332.550 153.885, 337.500 153.522 C 342.503 153.156, 348.276 152.080, 350.500 151.101 C 352.700 150.131, 355.671 149.045, 357.101 148.687 C 358.532 148.329, 362.460 145.441, 365.829 142.268 C 370.451 137.916, 372.810 134.634, 375.439 128.899 C 380.144 118.634, 380.947 114.528, 380.976 100.588 C 380.998 89.623, 380.799 88.332, 378.469 84.356 C 377.076 81.981, 374.980 79.524, 373.809 78.898 C 370.550 77.153, 356.728 76.962, 344.500 78.492" fill="none" stroke="#000" stroke-width="2px" fill-rule="evenodd"/>
</svg>
