<svg xmlns="http://www.w3.org/2000/svg" width="350" height="350" viewBox="0 0 350 350" version="1.1">
	<path d="M 197 20.709 C 191.573 21.658, 178.337 25.232, 175.500 26.514 C 173.850 27.261, 169.377 29.261, 165.560 30.959 C 142.306 41.306, 116.161 66.133, 101.278 92 C 89.737 112.059, 81.290 138.272, 78.532 162.588 C 77.581 170.971, 79.606 193.369, 82.458 206.011 C 83.759 211.780, 84.648 216.678, 84.434 216.895 C 84.219 217.112, 80.657 216.711, 76.518 216.003 C 59.040 213.013, 44.633 218.304, 37.741 230.243 C 34.548 235.774, 33.816 239.019, 33.890 247.325 C 33.952 254.311, 32.746 255.761, 30.500 251.400 C 29.950 250.332, 28.540 248.118, 27.367 246.479 C 26.194 244.841, 23.228 239.450, 20.775 234.500 C 18.323 229.550, 15.347 223.925, 14.162 222 C 12.977 220.075, 12.006 217.739, 12.004 216.809 C 11.998 214.156, 10.431 213.827, 6.569 215.669 C 2.529 217.595, 2.225 218.716, 4.821 222.115 C 5.823 223.427, 9.031 229.225, 11.949 235 C 18.989 248.930, 23.742 256.850, 27.253 260.500 C 29.526 262.862, 30.018 264.111, 29.569 266.375 C 29.256 267.956, 29 270.028, 29 270.979 C 29 271.930, 27.875 273.922, 26.500 275.405 C 23.361 278.793, 23.356 280.447, 26.479 283.570 C 28.239 285.330, 29.626 285.881, 31.264 285.470 C 33.260 284.969, 34.205 285.878, 38.298 292.238 C 40.899 296.278, 44.371 301.055, 46.014 302.854 C 47.656 304.652, 49 306.508, 49 306.978 C 49 307.448, 50.817 309.271, 53.038 311.030 C 59.250 315.950, 66.944 324.247, 67.614 326.750 C 68.492 330.028, 73.855 329.822, 76.337 326.415 L 78.174 323.893 73.365 318.697 C 70.721 315.838, 67.419 312.343, 66.028 310.928 C 55.142 299.854, 43.410 283.980, 44.333 281.574 C 44.711 280.590, 46.525 280.857, 52.162 282.727 C 58.588 284.858, 60.805 285.105, 70 284.709 C 78.769 284.331, 81.462 283.805, 86.332 281.518 C 93.194 278.295, 104.315 268.264, 107.118 262.768 C 108.203 260.642, 109.740 258.653, 110.534 258.349 C 111.350 258.036, 114.048 259.507, 116.739 261.732 C 138.919 280.075, 165.414 289.395, 204.362 292.556 C 249.720 296.238, 290.676 287.184, 319.500 267.104 C 328.884 260.567, 339.513 247.589, 342.902 238.531 C 345.370 231.935, 346.955 219.868, 347.183 205.927 C 347.380 193.919, 345.805 187.822, 340.225 179 C 335.411 171.390, 322.717 159.274, 314.656 154.598 C 310.957 152.451, 307.702 150.327, 307.423 149.876 C 307.145 149.425, 307.457 145.194, 308.118 140.472 C 310.843 120.991, 305.672 95.072, 294.814 73.795 C 285.658 55.853, 277.307 47.935, 249.500 30.830 C 239.128 24.450, 221.868 19.951, 208.500 20.143 C 203.550 20.214, 198.375 20.469, 197 20.709 M 59.083 225.541 C 50.105 227.726, 44.680 233.281, 43.439 241.560 C 42.471 248.013, 43.373 250.402, 47.204 251.533 C 51.920 252.926, 53.147 256.946, 50.348 261.835 C 49.195 263.851, 47.950 266.886, 47.583 268.579 C 46.967 271.425, 47.204 271.782, 50.708 273.287 C 61.816 278.059, 73.603 278.241, 83.218 273.788 C 90.639 270.351, 98.104 263.300, 101.567 256.455 C 104.675 250.313, 104.881 251.223, 97.740 239.598 C 92.550 231.150, 90.428 229.519, 81.500 227.115 C 71.632 224.458, 65.343 224.017, 59.083 225.541" fill="none" stroke="#000" stroke-width="2px" fill-rule="evenodd"/>
</svg>
