<svg xmlns="http://www.w3.org/2000/svg" width="500" height="322" viewBox="0 0 500 322" version="1.1">
	<path d="M 5.323 5.250 C 0.189 10.953, 1.996 14.402, 15.088 23.893 C 23.541 30.021, 23.899 30.436, 23.703 33.893 C 23.520 37.146, 23.771 37.531, 26.256 37.817 C 28.049 38.023, 29.221 37.589, 29.611 36.572 C 30.146 35.177, 30.522 35.195, 33.145 36.745 C 34.986 37.832, 36.024 39.228, 35.930 40.489 C 35.847 41.595, 35.828 43.032, 35.889 43.683 C 36.058 45.490, 39.643 46.240, 41.768 44.913 C 43.394 43.897, 45.273 44.754, 55.081 50.983 C 61.361 54.972, 69.521 60.462, 73.213 63.185 C 76.904 65.907, 85.454 70.947, 92.213 74.384 C 107.668 82.247, 113 85.619, 113 87.534 C 113 88.364, 114.237 89.558, 115.750 90.187 C 121.050 92.391, 135.978 102.511, 135.571 103.624 C 135.154 104.763, 136.851 105.801, 142.791 108.037 C 147.707 109.889, 153.950 114.739, 155.013 117.533 C 155.528 118.890, 156.582 120, 157.353 120 C 158.124 120, 159.299 120.656, 159.965 121.458 C 160.696 122.338, 162.228 122.730, 163.837 122.448 C 166.941 121.903, 173.928 126.277, 175.464 129.727 C 176.427 131.890, 180.059 133.496, 183.128 133.117 C 184.024 133.006, 186.540 134.682, 188.721 136.840 C 190.901 138.999, 193.656 141.073, 194.842 141.450 C 196.029 141.827, 197 142.563, 197 143.086 C 197 143.610, 198.060 143.772, 199.356 143.447 C 202.180 142.738, 203.962 144.320, 207.661 150.821 C 209.125 153.394, 211.671 156.944, 213.318 158.709 C 215.789 161.357, 216.096 162.180, 215.070 163.415 C 213.425 165.398, 214.537 167, 217.559 167 C 218.902 167, 220 167.434, 220 167.965 C 220 169.540, 224.330 171.511, 224.786 170.143 C 225.355 168.435, 226.418 168.709, 232 172 C 237.275 175.110, 239.478 175.653, 240.450 174.081 C 241.198 172.870, 238.091 169.798, 236.634 170.307 C 234.083 171.199, 217.155 157.177, 218.383 155.189 C 219.469 153.432, 220.523 153.719, 223.145 156.483 C 224.440 157.848, 226.199 158.973, 227.054 158.983 C 227.909 158.992, 230.737 160.350, 233.339 162 C 235.941 163.650, 238.616 165.014, 239.285 165.032 C 239.953 165.049, 241.400 165.747, 242.500 166.582 C 243.600 167.417, 247.088 169.265, 250.250 170.687 C 253.412 172.109, 256 173.725, 256 174.276 C 256 175.674, 259.160 177.930, 261.172 177.968 C 262.091 177.986, 265.863 180.025, 269.554 182.500 C 273.245 184.975, 276.460 187, 276.699 187 C 276.938 187, 278.608 188.125, 280.411 189.500 C 282.214 190.875, 284.597 192, 285.708 192 C 286.819 192, 288.801 193.021, 290.114 194.269 C 295.010 198.925, 295.870 199.353, 297.542 197.965 C 298.647 197.048, 299.391 196.991, 300.165 197.765 C 300.939 198.539, 300.627 199.715, 299.063 201.912 C 295.949 206.284, 295.830 210.403, 298.805 210.826 C 300.073 211.006, 301.755 210.619, 302.542 209.965 C 305.053 207.881, 306.952 209.518, 306.348 213.244 C 305.145 220.657, 311.637 220.527, 316.592 213.040 C 318.063 210.818, 319.415 209, 319.598 209 C 319.781 209, 322.084 210.361, 324.715 212.025 C 328.386 214.345, 329.616 215.779, 330 218.181 C 330.668 222.367, 336.831 225.854, 340.559 224.155 C 342.716 223.172, 344.253 223.812, 354.244 229.848 C 379.341 245.010, 381.437 246.484, 380.369 248.211 C 378.312 251.539, 386.396 256.688, 390.642 254.753 C 392.539 253.889, 394.803 255.095, 407.170 263.559 C 434.643 282.360, 448.625 293.689, 456.267 303.337 C 458.613 306.299, 459.619 308.762, 459.991 312.448 C 460.492 317.424, 460.549 317.498, 463.775 317.350 C 468.164 317.149, 473.161 313.156, 479.033 305.160 C 488.643 292.073, 496 275.434, 496 266.787 C 496 262.073, 494.739 261.475, 489.040 263.486 C 481.787 266.045, 470.234 263.098, 448.124 253.049 C 422.961 241.613, 378.011 217.349, 377.087 214.703 C 376.039 211.705, 371.023 208, 368.011 208 C 365.058 208, 361.029 205.884, 342.712 194.714 C 339.528 192.773, 334.926 189.343, 332.484 187.092 C 329.671 184.499, 327.096 183, 325.455 183 C 323.320 183, 322.977 182.649, 323.500 181 C 324.022 179.355, 323.680 179, 321.567 179 C 320.155 179, 319 178.614, 319 178.143 C 319 177.671, 315.288 175.116, 310.750 172.464 C 306.213 169.812, 300.557 166.330, 298.181 164.726 C 294.050 161.936, 293.937 161.728, 295.569 159.923 C 296.930 158.420, 297.030 157.741, 296.065 156.578 C 295.399 155.776, 294.212 155.365, 293.427 155.666 C 292.477 156.031, 292 155.529, 292 154.166 C 292 151.009, 290.266 150.664, 288.437 153.456 L 286.786 155.975 283.840 153.738 C 282.220 152.507, 279.231 150.113, 277.197 148.417 C 275.164 146.721, 272.733 145.055, 271.795 144.715 C 270.858 144.376, 269.190 142.332, 268.089 140.175 C 266.988 138.017, 264.627 135.023, 262.843 133.521 C 260.183 131.283, 258.913 130.882, 255.799 131.300 L 252 131.810 252 128.012 C 252 120.329, 245.377 122.771, 244.293 130.853 C 243.987 133.134, 243.458 134.993, 243.118 134.985 C 242.030 134.958, 240.531 133.557, 239.392 131.500 C 238.761 130.360, 237.173 129.457, 235.700 129.400 C 231.587 129.241, 219.709 121.540, 218.166 118.032 C 217.170 115.769, 216.169 115, 214.216 115 C 212.181 115, 211.867 115.267, 212.800 116.200 C 214.447 117.847, 214.304 119, 212.453 119 C 211.603 119, 210.140 117.653, 209.203 116.006 C 208.267 114.360, 207.095 113.010, 206.600 113.006 C 206.105 113.003, 202.414 111.088, 198.397 108.750 C 192.232 105.162, 191.178 104.166, 191.629 102.355 C 192.051 100.665, 191.244 99.579, 187.832 97.245 C 181.463 92.888, 177.137 90.849, 173.622 90.550 C 171.905 90.404, 169.764 90.221, 168.864 90.142 C 166.253 89.915, 108.045 54.745, 101.278 49.305 C 98.955 47.439, 93.556 44.317, 89.279 42.367 C 85.001 40.418, 77.451 36.442, 72.501 33.530 C 67.550 30.619, 58.325 25.556, 52 22.278 C 45.675 19, 39.150 15.609, 37.500 14.742 C 28.531 10.031, 11.953 3, 9.815 3 C 8.459 3, 6.437 4.012, 5.323 5.250" fill="none" stroke="#000" stroke-width="2px" fill-rule="evenodd"/>
</svg>
