<svg xmlns="http://www.w3.org/2000/svg" width="189" height="500" viewBox="0 0 189 500" version="1.1">
	<path d="M 59.284 4.236 C 55.519 8.311, 53.926 14.003, 53.334 25.491 C 52.836 35.153, 53.025 37.173, 54.883 42 C 57.482 48.754, 57.486 49.134, 55 52 C 52.715 54.635, 52.597 55.378, 54.035 58.066 C 55.690 61.157, 56.702 60.335, 57.253 55.451 C 58.089 48.027, 59.203 47.990, 61.163 55.319 C 62.634 60.819, 61.545 63.650, 58.109 63.262 C 56.404 63.069, 56 63.566, 56 65.857 C 56 67.420, 56.896 69.501, 58 70.500 C 59.958 72.272, 60 72.247, 60 69.277 C 60 67.610, 60.675 65.685, 61.500 65 C 62.779 63.939, 63 64.215, 63 66.878 C 63 68.697, 63.522 70.009, 64.250 70.022 C 64.938 70.034, 66.175 71.496, 67 73.272 C 68.173 75.795, 69.209 76.568, 71.750 76.813 C 73.537 76.986, 75 77.462, 75 77.873 C 75 78.283, 76.797 93.902, 78.994 112.582 C 83.663 152.275, 84.126 161.156, 81.761 165.591 C 80.854 167.292, 77.642 170.667, 74.623 173.091 C 71.274 175.780, 68.881 178.573, 68.487 180.250 C 68.132 181.763, 67.532 183, 67.155 183 C 66.778 183, 65.634 185.362, 64.613 188.250 C 61.157 198.021, 55.657 204.409, 42.658 213.746 C 36.097 218.458, 28.319 224.725, 25.372 227.672 C 12.730 240.314, 8.331 258.707, 12.586 281.140 C 14.263 289.985, 15.319 292.198, 17.468 291.374 C 18.195 291.095, 20.644 291.366, 22.909 291.975 C 29.331 293.705, 31.869 298.373, 33.239 310.983 C 35.313 330.063, 31.349 347.905, 23.828 353.342 C 22.358 354.405, 18.796 355.647, 15.912 356.103 C 13.028 356.559, 10.335 357.285, 9.928 357.716 C 8.596 359.127, 3.061 394.564, 2.439 405.662 C 1.628 420.144, 3.473 429.497, 9.583 441.873 C 14.943 452.733, 23.407 462.031, 31.689 466.158 C 34.504 467.561, 38.777 470.323, 41.185 472.295 C 53.931 482.740, 62.544 485.568, 84.854 486.633 L 99 487.308 99 489.954 C 99 493.055, 100.669 495.064, 102.622 494.315 C 103.461 493.993, 104 492.287, 104 489.952 C 104 485.157, 104.209 485.016, 113.500 483.569 C 114.600 483.397, 116.175 483.021, 117 482.732 C 117.825 482.443, 123.225 480.763, 129 478.999 C 134.775 477.235, 142.718 474.228, 146.651 472.317 C 164.899 463.450, 178.707 446.196, 183.946 425.711 C 189.190 405.209, 187.128 387.605, 175.310 351.960 L 173.500 346.500 167.683 346.842 C 162.034 347.174, 161.756 347.069, 158.111 343.238 C 151.462 336.248, 147.559 325.155, 146.394 309.932 C 145.217 294.548, 148.861 285.178, 156.745 283.313 C 160.092 282.521, 160.550 282.021, 161.181 278.465 C 161.568 276.284, 161.904 269.325, 161.928 263 C 162.026 236.575, 155.462 225.391, 127.500 204.341 C 108.934 190.365, 107.789 188.753, 104.533 172 C 99.457 145.884, 84.536 59.480, 83.552 50.500 C 83.136 46.703, 77.781 37.649, 72.898 32.486 C 67.496 26.774, 66.959 25.297, 70.111 24.820 C 71.298 24.640, 73.158 22.872, 74.361 20.781 C 76.100 17.757, 76.280 16.707, 75.324 15.163 C 74.677 14.119, 73.665 11.518, 73.074 9.382 C 71.506 3.711, 70.880 3.112, 65.896 2.514 C 62.078 2.055, 61.051 2.323, 59.284 4.236" fill="none" stroke="#000" stroke-width="2px" fill-rule="evenodd"/>
</svg>
