<svg xmlns="http://www.w3.org/2000/svg" width="500" height="467" viewBox="0 0 500 467" version="1.1">
	<path d="M 384 2 C 384 3.111, 383.333 4, 382.500 4 C 381.417 4, 381 5.111, 381 8 C 381 10.200, 380.805 12, 380.567 12 C 378.512 12, 350.774 17.527, 344.500 19.187 C 330.597 22.864, 321.600 27.925, 323.499 30.999 C 324.402 32.459, 328.265 33.904, 334.500 35.114 C 339.973 36.175, 375.919 36.434, 382.436 35.459 L 386.500 34.850 386.518 41.340 C 386.531 45.955, 387.014 48.360, 388.192 49.665 C 390.145 51.829, 390.688 58.575, 391.964 96.500 C 392.661 117.236, 392.578 122.804, 391.553 124 C 390.846 124.825, 390.007 127.840, 389.687 130.699 C 389.191 135.138, 389.371 135.983, 390.913 136.472 C 392.293 136.910, 392.871 138.494, 393.360 143.170 C 394.249 151.679, 394.164 177.493, 393.250 176.607 C 392.837 176.207, 391.807 173.545, 390.960 170.690 C 389.519 165.833, 389.198 165.483, 385.960 165.230 C 380.162 164.778, 378 164.031, 378 162.481 C 378 160.122, 373.256 160.618, 372.482 163.058 C 371.999 164.577, 371.133 165.036, 369.173 164.808 C 366.279 164.472, 364.687 161, 367.427 161 C 369.495 161, 369.412 160.412, 367 158 C 365.900 156.900, 363.805 156, 362.345 156 C 359.836 156, 359.781 156.101, 361.345 157.829 C 363.813 160.556, 363.393 161.153, 359.250 160.810 L 355.500 160.500 355.398 152.356 C 355.341 147.876, 355.041 143.549, 354.731 142.740 C 353.960 140.732, 342.458 132.089, 338.173 130.299 C 332.883 128.088, 321.715 126.208, 309.500 125.470 C 290.435 124.319, 271.728 128.554, 264.949 135.557 C 262.048 138.553, 261.489 139.865, 261.433 143.810 C 261.265 155.665, 261.069 156.749, 259 157.290 C 257.565 157.665, 257 158.654, 257 160.790 C 257 162.926, 257.565 163.914, 259 164.290 C 260.850 164.774, 261.014 165.738, 261.192 177.156 C 261.298 183.945, 261.328 190.625, 261.260 192 C 261.192 193.375, 261.645 197.348, 262.267 200.829 C 263.150 205.767, 264.024 207.684, 266.247 209.554 C 269.096 211.951, 277.535 214.986, 281.432 215.015 C 283.658 215.032, 287.415 216.958, 285.273 216.985 C 282.638 217.018, 280.827 221.665, 281.556 226.525 C 282.122 230.298, 282.849 231.547, 285.377 233.087 C 287.451 234.351, 289.508 234.804, 291.500 234.436 C 293.208 234.120, 296.101 234.553, 298.218 235.441 C 303.117 237.495, 304.267 237.418, 303.526 235.083 C 303.038 233.543, 303.308 233.268, 304.903 233.685 C 306.249 234.037, 306.987 235.208, 307.194 237.321 C 307.523 240.672, 307.024 240.432, 319 242.994 C 322.025 243.641, 325.289 244.388, 326.253 244.654 C 327.217 244.919, 329.162 247.581, 330.576 250.568 C 331.989 253.556, 333.490 256, 333.912 256 C 335.199 256, 337.162 261.248, 337.619 265.909 C 337.857 268.333, 338.720 270.808, 339.538 271.409 C 340.355 272.009, 341.368 274.525, 341.789 277 C 342.636 281.976, 345.287 283.298, 345.797 279 C 346.358 274.262, 348.173 271, 350.246 271 C 351.957 271, 352.159 271.457, 351.625 274.125 C 351.281 275.844, 351 282.594, 351 289.125 C 351 300.213, 350.871 301, 349.059 301 C 347.991 301, 346.809 301.500, 346.432 302.110 C 346.030 302.760, 344.347 302.994, 342.371 302.673 C 339.377 302.187, 339.103 302.325, 339.944 303.895 C 341.392 306.601, 343.659 308.155, 345.655 307.811 C 347.411 307.508, 347.765 308.457, 349.084 317 C 349.211 317.825, 349.244 324.006, 349.158 330.737 L 349 342.973 345.262 344.535 C 343.206 345.394, 340.506 345.842, 339.262 345.530 C 338.018 345.217, 337 345.396, 337 345.926 C 337 346.456, 333.146 348.891, 328.435 351.337 C 323.723 353.783, 320.088 355.270, 320.355 354.642 C 324.439 345.040, 326.044 340.405, 327.162 334.987 C 327.898 331.420, 329.288 327.713, 330.250 326.751 C 332.323 324.677, 332.552 319.695, 330.662 317.805 C 329.926 317.069, 329.023 313.529, 328.655 309.939 C 327.799 301.578, 324.757 290.625, 320.975 282.285 C 319.339 278.676, 318 274.148, 318 272.222 C 318 268.673, 315.969 266.140, 313 265.985 C 312.175 265.943, 310.150 264.129, 308.500 261.956 C 304.313 256.442, 292.687 246.540, 285.269 242.170 C 281.842 240.152, 279.030 237.989, 279.019 237.365 C 278.985 235.315, 274.200 233.033, 270.313 233.212 C 268.216 233.308, 262.701 232.567, 258.058 231.564 C 251.497 230.147, 246.932 229.852, 237.564 230.238 C 230.332 230.535, 224.610 230.324, 223.258 229.708 C 221.522 228.917, 220.204 229.114, 217.503 230.568 C 215.576 231.606, 214 232.802, 214 233.227 C 214 233.652, 212.912 234, 211.582 234 C 208.235 234, 206 234.982, 206 236.452 C 206 237.133, 202.287 239.963, 197.750 242.740 C 193.213 245.516, 187.362 249.675, 184.748 251.981 C 182.134 254.287, 177.926 257.222, 175.397 258.502 L 170.797 260.831 171.422 245.165 C 172.515 217.761, 173.077 211.816, 174.524 212.371 C 175.239 212.645, 180.477 213.911, 186.162 215.183 C 200.235 218.331, 224.719 218.532, 232.715 215.565 C 237.113 213.933, 238.172 213.029, 239.465 209.795 C 240.309 207.687, 241.170 203.607, 241.379 200.731 C 241.588 197.854, 242.325 192.013, 243.017 187.750 C 244.052 181.369, 244.597 180, 246.102 180 C 249.712 180, 251.360 173.566, 248.022 172.507 C 246.236 171.940, 246.105 171.277, 246.675 165.689 C 247.022 162.285, 247.687 159.350, 248.153 159.167 C 248.619 158.983, 249 157.997, 249 156.976 C 249 155.954, 249.459 154.834, 250.021 154.487 C 251.868 153.345, 250.006 140.848, 247.489 137.500 C 242.577 130.965, 228.492 124.773, 208.500 120.361 C 195.036 117.390, 175.284 116.192, 168.341 117.925 C 163.097 119.235, 155.299 122.745, 153.179 124.750 C 152.452 125.438, 151.474 126, 151.005 126 C 150.537 126, 148.769 127.165, 147.077 128.589 C 144.844 130.467, 143.997 132.045, 143.988 134.339 C 143.971 138.952, 141.446 147.697, 139.597 149.546 C 138.719 150.424, 138 151.561, 138 152.071 C 138 152.582, 136.875 153, 135.500 153 C 132.691 153, 132.174 150.931, 134.500 149 C 136.413 147.412, 136.442 145, 134.547 145 C 133.748 145, 131.951 145.521, 130.555 146.157 C 128.550 147.071, 128.256 147.604, 129.159 148.691 C 130.022 149.732, 129.973 150.681, 128.958 152.578 C 127.234 155.801, 123.810 155.471, 122.997 152.005 C 122.246 148.803, 119.468 148.258, 117.988 151.023 C 116.973 152.920, 116.289 153.090, 112.032 152.504 C 107.750 151.916, 107.047 152.095, 105.612 154.144 C 104.725 155.410, 104 157.150, 104 158.011 C 104 158.872, 103.100 161.342, 102 163.500 C 100.900 165.658, 100 168.186, 100 169.119 C 100 170.467, 98.870 170.885, 94.499 171.157 L 88.997 171.500 88.999 155.750 C 88.999 147.088, 89.213 140, 89.474 140 C 90.310 140, 93.139 146.104, 94.631 151.128 C 95.652 154.566, 96.596 156, 97.839 156 C 102.097 156, 101.793 154.026, 95.362 139.926 C 88.885 125.723, 88.230 123.594, 90 122.500 C 90.550 122.160, 91 120.304, 91 118.375 C 91 112.395, 94.124 108.664, 95.500 113 C 97.149 118.197, 99.257 112.336, 98.301 105.210 C 97.660 100.429, 96.404 99.806, 94.977 103.560 C 93.990 106.157, 92 106.078, 92 103.441 C 92 102.337, 90.511 102, 85.639 102 L 79.278 102 75.458 93.750 C 73.357 89.213, 71.570 84.037, 71.489 82.250 C 71.407 80.462, 71.391 79, 71.453 79 C 71.516 79, 76.277 80.604, 82.033 82.565 C 105.920 90.701, 126.571 94.342, 136.736 92.210 C 142.697 90.959, 147 87.847, 147 84.786 C 147 67.996, 87.747 34.575, 39 23.869 C 25.492 20.903, 9.112 20.619, 4.264 23.268 C -2.473 26.950, -1.082 32.719, 8.839 42.229 C 19.504 52.451, 40.654 66.159, 54.314 71.702 C 61.846 74.759, 62.833 76.030, 58.942 77.667 C 57.324 78.347, 56 79.349, 56 79.893 C 56 81.628, 57.892 82.128, 60.063 80.967 C 61.737 80.070, 62.538 80.176, 63.984 81.486 C 66.256 83.542, 75.412 104.525, 74.606 105.829 C 73.836 107.074, 76.587 113.652, 78.313 114.695 C 79.046 115.138, 80.851 118.542, 82.323 122.261 C 85.277 129.721, 85.622 136.110, 84.350 159.780 L 83.699 171.875 79.600 172.549 C 73.440 173.563, 69 175.674, 69 177.589 C 69 178.519, 68.213 179.856, 67.250 180.560 C 66.017 181.462, 65.485 183.268, 65.448 186.670 C 65.313 199.347, 64.994 202, 63.607 202 C 62.841 202, 61.941 202.712, 61.607 203.582 C 60.772 205.757, 60.748 205.688, 63.076 207.856 C 65.105 209.746, 65.135 210.322, 64.432 233.316 C 63.739 255.966, 63.635 256.862, 61.642 257.383 C 60.503 257.681, 59.263 257.426, 58.887 256.817 C 57.737 254.956, 55 256.782, 55 259.410 C 55 262.387, 56.583 263.591, 58.455 262.038 C 60.044 260.719, 61.548 262.304, 60.428 264.117 C 60.048 264.731, 59.584 267.422, 59.397 270.097 C 59.114 274.127, 59.395 275.141, 61.037 276.020 C 62.372 276.734, 62.871 277.800, 62.568 279.290 C 62.320 280.506, 61.574 292.913, 60.909 306.861 L 59.699 332.222 52.888 340.273 C 47.749 346.348, 45.615 349.818, 44.193 354.412 C 42.531 359.784, 42.485 360.643, 43.802 361.718 C 46.005 363.516, 47 362.362, 47 358.006 C 47 352.433, 48.475 349.279, 54.250 342.500 C 57.061 339.200, 59.973 335.770, 60.720 334.878 C 61.684 333.727, 62.498 326.173, 63.523 308.878 C 64.318 295.470, 64.975 284.145, 64.984 283.711 C 64.993 283.277, 65.984 283.839, 67.186 284.959 C 69.400 287.021, 78.852 291, 81.538 291 C 82.783 291, 83 294.847, 83 316.960 L 83 342.920 78.750 344.035 C 72.867 345.580, 72.159 346.026, 54.853 359.088 C 31.269 376.889, 30.011 378.322, 33.831 383.040 C 36.215 385.984, 40.922 385.142, 41.148 381.731 C 41.229 380.504, 41.342 378.661, 41.398 377.636 C 41.459 376.523, 45.553 372.626, 51.556 367.968 L 61.611 360.163 66.352 364.515 L 71.092 368.868 67.849 374.684 C 66.065 377.883, 64.020 380.860, 63.303 381.300 C 62.586 381.740, 62 382.761, 62 383.569 C 62 384.378, 57.105 393.558, 51.121 403.969 C 45.138 414.380, 39.968 423.992, 39.632 425.329 C 39.296 426.667, 38.137 427.992, 37.056 428.275 C 35.933 428.569, 34.800 430.013, 34.411 431.644 C 34.037 433.215, 33.023 435.314, 32.158 436.309 C 30.187 438.573, 31.482 440.994, 35.354 442.285 C 39.386 443.629, 41 442.572, 41 438.590 C 41 436.681, 41.452 434.839, 42.004 434.498 C 42.556 434.157, 42.756 432.875, 42.448 431.650 C 42.141 430.424, 42.395 428.089, 43.013 426.461 C 44.372 422.879, 63.904 389.177, 65.021 388.487 C 66.165 387.780, 79.278 393.796, 80.715 395.688 C 81.828 397.153, 82.501 397.149, 88.715 395.641 C 92.447 394.736, 96.475 393.996, 97.667 393.997 C 98.858 393.999, 99.983 393.606, 100.167 393.125 C 100.723 391.664, 117.492 382, 119.470 382 C 120.045 382, 115.849 396.430, 115.109 397 C 114.751 397.275, 113.891 398.791, 113.197 400.368 C 112.080 402.907, 111.569 403.164, 108.754 402.601 L 105.573 401.965 109.037 405.543 C 112.936 409.572, 113.060 411.951, 109.586 416.080 C 108.369 417.526, 106.334 421.560, 105.064 425.045 L 102.753 431.382 104.987 433.191 C 106.216 434.186, 108.533 435, 110.136 435 C 113.960 435, 115.032 432.164, 115.536 420.717 C 115.947 411.376, 116.324 410, 118.476 410 C 119.798 410, 122.073 402.195, 121.683 399 C 121.445 397.047, 125.114 383.997, 125.898 384.010 C 126.828 384.026, 130.394 392.310, 130.199 394 C 129.815 397.321, 131.198 400.131, 133.778 401.274 C 135.275 401.937, 140.550 406.600, 145.500 411.635 C 150.658 416.881, 157.915 422.963, 162.500 425.882 C 166.900 428.682, 171.868 432.350, 173.541 434.032 C 175.841 436.346, 177.424 437.064, 180.041 436.980 C 181.943 436.919, 186.650 437.873, 190.500 439.101 C 196.328 440.959, 200.054 441.362, 212.758 441.508 C 221.150 441.604, 228.312 441.979, 228.675 442.341 C 230.207 443.874, 235.202 442.885, 237.298 440.635 C 238.509 439.334, 242.303 437.140, 245.730 435.759 C 254.977 432.033, 266.296 425.271, 272.412 419.821 C 275.386 417.169, 278.565 415, 279.476 415 C 282.393 415, 285.065 412.966, 287.817 408.651 C 295.250 396.995, 304.470 385, 305.996 385 C 308.838 385, 311.629 397.901, 312.481 414.978 C 312.768 420.731, 313.359 423.789, 314.319 424.491 C 315.454 425.321, 315.635 427.923, 315.234 437.656 C 314.752 449.368, 314.810 449.828, 316.926 450.960 C 319.427 452.299, 324.322 451.522, 325.981 449.523 C 327.647 447.516, 323.069 430, 320.879 430 C 318.995 430, 320.030 424.462, 322.163 423.130 C 324.094 421.924, 324.514 422.030, 326.094 424.125 C 328.647 427.509, 329.457 425.832, 328.412 419.329 C 327.434 413.240, 325.471 411.277, 324.445 415.362 C 324.079 416.822, 323.288 417.664, 322.551 417.381 C 320.957 416.769, 318.539 408.931, 319.691 408.110 C 321.099 407.106, 323.639 402.672, 324.337 400 C 324.854 398.018, 328.454 395.601, 341.719 388.331 L 358.449 379.162 359.948 382.331 C 360.790 384.109, 361.459 388.353, 361.474 392 L 361.500 398.500 364.500 398.500 C 366.877 398.500, 367.568 398.018, 367.829 396.180 C 368.112 394.180, 368.664 393.894, 371.829 394.103 C 374.806 394.299, 376.681 395.488, 381.750 400.394 C 385.187 403.720, 388 407.216, 388 408.162 C 388 409.108, 388.398 410.128, 388.883 410.428 C 389.924 411.071, 382.003 450.063, 380.418 452.106 C 379.823 452.873, 378.730 456.124, 377.989 459.330 C 376.509 465.736, 377.107 466.953, 381.750 466.985 C 383.742 466.998, 384.023 466.455, 384.202 462.250 C 384.313 459.637, 384.353 456.150, 384.291 454.500 C 384.161 451.044, 390.651 416.497, 391.994 413.500 C 392.877 411.529, 392.899 411.531, 393.529 413.625 C 393.951 415.029, 394.988 415.750, 396.584 415.750 C 397.913 415.750, 399 415.441, 399 415.064 C 399 414.687, 401.363 413.779, 404.250 413.046 C 407.137 412.314, 409.725 411.401, 410 411.017 C 410.275 410.633, 414.766 407.245, 419.980 403.488 C 426.765 398.597, 430.744 396.430, 433.980 395.861 C 448.839 393.249, 450 392.846, 450 390.305 L 450 387.883 456.946 391.681 C 461.038 393.919, 464.114 396.306, 464.433 397.490 C 465.191 400.313, 465.129 404.538, 464.316 405.351 C 463.940 405.727, 463.548 408.035, 463.445 410.479 C 463.311 413.648, 463.769 415.386, 465.040 416.536 C 467.293 418.575, 472.686 418.165, 472.081 416 C 471.850 415.175, 471.464 412.700, 471.222 410.500 C 470.981 408.300, 470.123 405.752, 469.317 404.838 C 468.510 403.925, 467.996 402.048, 468.175 400.668 C 468.498 398.177, 468.561 398.199, 476.783 403.583 C 481.338 406.566, 485.324 409.793, 485.640 410.753 C 488.252 418.696, 491.511 421.402, 495.739 419.140 C 500.316 416.690, 500.291 415.470, 495.568 410.867 C 489.173 404.636, 485.681 402.051, 475.500 396.012 C 470.550 393.076, 466.344 390.553, 466.153 390.407 C 465.807 390.140, 455.027 340.171, 455.009 338.750 C 454.949 333.944, 462.989 353.642, 466.437 366.747 C 467.235 369.781, 467.434 372.232, 466.909 372.556 C 466.409 372.865, 466 374.906, 466 377.091 C 466 380.297, 466.435 381.226, 468.250 381.902 C 469.488 382.363, 471.400 382.399, 472.500 381.984 C 474.191 381.344, 474.450 380.476, 474.175 376.364 C 473.997 373.689, 473.271 370.825, 472.563 370 C 471.854 369.175, 471.003 367.058, 470.671 365.296 C 470.340 363.533, 467.867 356.333, 465.176 349.296 C 462.485 342.258, 459.258 333.350, 458.004 329.500 C 455.817 322.787, 450.084 306.611, 447.781 300.659 C 447.177 299.096, 445.818 297.498, 444.763 297.108 C 442.952 296.438, 442.849 295.229, 442.926 275.449 C 443.016 252.202, 444.347 241.342, 447.217 240.431 C 449.832 239.601, 449.661 233.986, 447 233.290 C 445.900 233.002, 445 232.182, 445 231.467 C 445 230.752, 444.564 230.017, 444.032 229.833 C 443.034 229.490, 444.364 166.009, 445.561 156.809 C 446.010 153.361, 446.811 151.698, 448.586 150.536 C 449.914 149.666, 451 148.064, 451 146.977 C 451 145.109, 451.730 144.998, 464.250 144.965 C 484.218 144.913, 498 141.863, 498 137.497 C 498 133.850, 483.736 129.809, 464.142 127.903 C 447.263 126.262, 447.569 126.346, 446.306 123 C 445.645 121.249, 445.555 119.775, 446.088 119.445 C 447.331 118.677, 447.250 111, 446 111 C 445.382 111, 444.942 104.982, 444.848 95.250 C 444.727 82.763, 444.544 80.847, 443.964 86 C 443.563 89.575, 443.181 96.123, 443.117 100.551 C 443.053 104.978, 442.438 109.812, 441.750 111.293 C 440.392 114.217, 439 114.858, 439 112.559 C 439 109.902, 437.007 109.852, 436.006 112.484 C 433.849 118.157, 433.706 120, 435.423 120 C 436.325 120, 437.322 119.325, 437.638 118.500 C 437.955 117.675, 438.900 117, 439.739 117 C 440.945 117, 441.149 117.851, 440.716 121.083 C 440.415 123.328, 440.018 125.291, 439.834 125.444 C 439.650 125.598, 432.413 126.016, 423.750 126.375 C 409.962 126.945, 408 126.835, 408 125.488 C 408 123.794, 404.168 122, 400.548 122 C 397.305 122, 397.025 119.261, 396.535 82.709 C 396.189 56.849, 396.364 51.373, 397.636 48.329 C 398.495 46.273, 398.756 44.448, 398.239 44.105 C 397.447 43.578, 394.770 34.772, 395.301 34.440 C 395.410 34.371, 400.900 33.565, 407.500 32.647 C 438.095 28.394, 458.914 20.843, 455.400 15.272 C 452.766 11.097, 433.531 8.729, 410.071 9.692 L 395 10.311 395 8.090 C 395 4.535, 393.137 2, 390.524 2 C 389.201 2, 387.840 1.550, 387.500 1 C 386.413 -0.760, 384 -0.070, 384 2 M 147.821 133.873 C 146.249 135.427, 146.290 135.677, 148.455 137.761 L 150.769 139.988 151.313 137.244 C 152.046 133.538, 150.079 131.639, 147.821 133.873 M 405.241 143.986 C 404.384 145.358, 404.003 151.009, 404.011 162.236 C 404.023 180.309, 404.632 186, 406.552 186 C 408.926 186, 408.900 202.543, 406.517 208.250 C 405.932 209.649, 406.295 210, 408.328 210 C 413.630 210, 415.758 211.607, 416.524 216.188 C 416.921 218.560, 417.705 220.792, 418.268 221.149 C 418.831 221.506, 417.876 222.530, 416.146 223.425 C 414.416 224.319, 413 225.432, 413 225.898 C 413 226.363, 411.200 227.032, 409 227.384 L 405 228.024 405 233.183 C 405 236.606, 405.564 238.966, 406.676 240.194 C 408.184 241.861, 408.223 242.816, 407.060 249.773 C 406.049 255.820, 403.770 328.445, 404.549 329.771 C 404.637 329.920, 407.462 325.870, 410.828 320.771 C 414.194 315.672, 418.935 309.430, 421.364 306.901 C 424.912 303.206, 425.681 301.781, 425.274 299.651 C 424.904 297.715, 425.181 297, 426.300 297 C 427.143 297, 427.983 297.445, 428.167 297.990 C 428.386 298.640, 429.745 298.635, 432.139 297.973 L 435.777 296.968 436.430 273.734 C 437.160 247.714, 436.903 240.801, 435.180 240.227 C 434.510 240.003, 434 237.917, 434 235.395 C 434 231.688, 434.393 230.778, 436.387 229.870 L 438.774 228.782 439.441 196.141 C 439.808 178.188, 440.344 162.262, 440.633 160.750 C 441.097 158.325, 440.854 158, 438.579 158 C 435.946 158, 435.173 156.227, 437.008 154.392 C 437.685 153.715, 437.439 152.027, 436.258 149.248 C 434.507 145.128, 434.475 145.109, 428 144.475 C 424.425 144.124, 418.800 143.427, 415.500 142.926 C 407.229 141.670, 406.650 141.730, 405.241 143.986 M 264 154.441 C 264 155.848, 264.450 157, 265 157 C 265.550 157, 266 156.127, 266 155.059 C 266 153.991, 265.550 152.840, 265 152.500 C 264.433 152.149, 264 152.990, 264 154.441 M 345 161.559 C 345 162.966, 345.408 163.866, 345.906 163.558 C 346.404 163.250, 346.577 162.098, 346.289 160.999 C 345.570 158.247, 345 158.495, 345 161.559 M 114.655 161.678 C 114.352 161.981, 114.793 163.281, 115.635 164.566 C 116.522 165.919, 116.892 167.764, 116.516 168.951 C 115.906 170.871, 116.269 171, 122.293 171 C 125.828 171, 130.921 171.283, 133.610 171.630 C 137.654 172.150, 138.284 172.029, 137.250 170.930 C 136.563 170.198, 136 168.838, 136 167.907 C 136 166.038, 134.051 165, 130.540 165 C 129.271 165, 127.578 163.998, 126.756 162.759 C 125.427 160.757, 125.010 160.657, 122.846 161.815 C 121.105 162.746, 119.689 162.832, 117.814 162.120 C 116.380 161.574, 114.958 161.376, 114.655 161.678 M 263.802 177.750 C 263.424 191.088, 263.545 192.399, 265.069 191.457 C 266.279 190.709, 266.292 165, 265.082 165 C 264.576 165, 264 170.738, 263.802 177.750 M 366.725 173.944 C 366.317 175.503, 365.178 175.949, 360.971 176.194 C 356.185 176.473, 355.571 176.790, 353.952 179.818 C 352.331 182.850, 352.122 182.958, 351.522 181.068 C 350.500 177.851, 349 178.633, 349 182.383 C 349 186.400, 350.278 186.940, 360 187.038 C 363.575 187.073, 369.538 187.440, 373.250 187.853 C 376.962 188.266, 379.986 188.355, 379.968 188.052 C 379.951 187.748, 379.276 186.626, 378.468 185.559 C 376.616 183.110, 376.641 180.059, 378.532 177.559 C 380.768 174.603, 380.349 174, 376.059 174 C 373.891 174, 371.840 173.550, 371.500 173 C 370.437 171.280, 367.257 171.908, 366.725 173.944 M 345.310 180.500 C 345.315 183.800, 345.502 185.029, 345.725 183.232 C 345.947 181.435, 345.943 178.735, 345.715 177.232 C 345.486 175.729, 345.304 177.200, 345.310 180.500 M 393.772 180.500 C 393.473 182.150, 392.635 184.945, 391.910 186.712 C 390.349 190.510, 390.623 190.902, 395.376 191.674 L 399 192.262 399 186.131 C 399 180.756, 398.764 180, 397.083 180 C 396.029 180, 394.975 179.438, 394.741 178.750 C 394.508 178.063, 394.071 178.850, 393.772 180.500 M 67.791 188.250 C 67.380 189.467, 68.481 202.996, 68.910 202 C 69.743 200.069, 69.981 187, 69.184 187 C 68.650 187, 68.024 187.563, 67.791 188.250 M 345 190.500 C 345 191.325, 345.450 192, 346 192 C 346.550 192, 347 191.325, 347 190.500 C 347 189.675, 346.550 189, 346 189 C 345.450 189, 345 189.675, 345 190.500 M 67.777 211 C 66.815 215.821, 66.163 262, 67.057 262 C 67.895 262, 69.338 222.381, 68.823 213.500 C 68.511 208.123, 68.403 207.863, 67.777 211 M 283 227.441 C 283 228.298, 283.450 229, 284 229 C 284.550 229, 285 228.577, 285 228.059 C 285 227.541, 284.550 226.840, 284 226.500 C 283.450 226.160, 283 226.584, 283 227.441 M 293 230.094 C 293 230.627, 293.788 231.306, 294.750 231.604 C 295.712 231.902, 297.247 232.542, 298.161 233.026 C 299.338 233.649, 300.001 233.441, 300.435 232.310 C 301.192 230.335, 301.291 230.405, 296.750 229.704 C 294.600 229.373, 293 229.539, 293 230.094 M 395 231.500 C 393.625 232.286, 391.712 232.945, 390.750 232.965 C 389.788 232.984, 389 233.480, 389 234.067 C 389 234.654, 389.788 234.901, 390.750 234.615 C 391.712 234.329, 393.738 233.800, 395.250 233.439 C 396.762 233.078, 398 232.157, 398 231.392 C 398 229.723, 398.115 229.719, 395 231.500 M 311.700 236.341 C 310.486 239.503, 312.665 240.232, 323.917 240.423 C 333.466 240.585, 335.030 240.392, 334.777 239.080 C 334.509 237.689, 329.620 236.794, 312.857 235.066 C 312.503 235.030, 311.982 235.603, 311.700 236.341 M 371.813 236.683 C 372.534 236.972, 373.397 236.936, 373.729 236.604 C 374.061 236.272, 373.471 236.036, 372.417 236.079 C 371.252 236.127, 371.015 236.364, 371.813 236.683 M 392.754 236.689 C 391.366 237.052, 391.219 237.541, 392.039 239.073 C 393.006 240.880, 393.224 240.899, 395.535 239.385 C 399.669 236.676, 398.210 235.262, 392.754 236.689 M 337.221 238.922 C 337.374 240.254, 338.063 241.529, 338.750 241.755 C 340.451 242.315, 340.323 240.792, 338.471 238.441 C 336.990 236.561, 336.950 236.577, 337.221 238.922 M 343.148 238.577 C 345.647 241.076, 351.782 241.269, 361.500 239.157 L 370.500 237.200 356.036 237.100 C 342.866 237.009, 341.713 237.141, 343.148 238.577 M 381.500 239.579 C 380.950 239.721, 378.907 240.101, 376.959 240.424 C 373.867 240.938, 372.461 242.308, 365.846 251.256 L 358.273 261.500 357.637 281.390 C 357.060 299.439, 357.159 301.396, 358.709 302.529 C 360.262 303.665, 360.296 304.355, 359.076 310.139 C 358.338 313.638, 357.682 322.784, 357.617 330.465 L 357.500 344.430 362.304 345.788 C 364.946 346.535, 370.997 349.589, 375.751 352.573 C 380.505 355.558, 384.673 358, 385.013 358 C 385.354 358, 387.921 354.723, 390.718 350.717 L 395.803 343.434 396.151 296.967 C 396.434 259.332, 396.240 249.885, 395.134 247.263 C 393.700 243.865, 392 243.755, 392 247.059 C 392 248.127, 391.340 249, 390.534 249 C 389.541 249, 388.865 247.468, 388.437 244.250 C 387.867 239.968, 387.543 239.491, 385.152 239.411 C 383.694 239.362, 382.050 239.438, 381.500 239.579 M 364.199 242.986 C 360.098 243.958, 360.357 243.622, 359.571 249 L 358.914 253.500 362.496 249.500 C 365.614 246.017, 368.631 241.799, 367.785 242.102 C 367.628 242.159, 366.015 242.556, 364.199 242.986 M 332 246.050 C 332 247.178, 334.833 253, 335.382 253 C 336.196 253, 335.394 246.422, 334.500 245.765 C 333.066 244.712, 332 244.833, 332 246.050 M 337 249.878 C 337 252.224, 337.637 254.283, 338.612 255.093 C 339.498 255.829, 340.595 257.346, 341.048 258.465 C 341.609 259.849, 341.894 258.374, 341.937 253.857 C 341.986 248.682, 341.651 247.080, 340.418 246.607 C 337.508 245.490, 337 245.977, 337 249.878 M 347 260.500 C 347 264.346, 347.391 266, 348.300 266 C 350.732 266, 352 263.609, 351.985 259.050 C 351.973 255.564, 351.721 254.851, 350.909 256 C 350.110 257.129, 349.722 257.191, 349.341 256.250 C 348.149 253.314, 347 255.401, 347 260.500 M 91.352 296.009 C 91.708 297.791, 92 308.819, 92 320.514 L 92 341.777 95.750 342.442 C 101.921 343.536, 102.932 344.013, 102.342 345.551 C 101.951 346.569, 102.502 347, 104.196 347 L 106.605 347 108.363 324.250 C 109.330 311.738, 110.361 300.082, 110.653 298.350 C 111.265 294.727, 110.930 294.596, 98.102 293.436 L 90.703 292.767 91.352 296.009 M 113.626 297.750 C 113.334 299.262, 112.088 311.019, 110.857 323.875 C 108.671 346.724, 108.663 347.280, 110.501 348.625 C 113.271 350.650, 115 350.303, 115 347.723 C 115 346.470, 115.613 344.557, 116.362 343.473 C 117.111 342.388, 118.044 339.250, 118.433 336.500 C 120.217 323.925, 125.779 306.948, 130.118 300.841 C 133.427 296.183, 131.879 295, 122.472 295 C 114.199 295, 114.156 295.013, 113.626 297.750 M 430.260 306.115 C 429.989 307.152, 429.232 308, 428.580 308 C 427.927 308, 426.027 309.462, 424.359 311.250 C 421.275 314.554, 405.643 338.005, 406.197 338.497 C 406.364 338.645, 412.684 339.089, 420.242 339.485 C 431.384 340.068, 434.066 339.948, 434.417 338.852 C 434.655 338.108, 435.141 330.246, 435.497 321.380 L 436.144 305.261 433.448 304.745 C 431.389 304.352, 430.636 304.675, 430.260 306.115 M 441.989 320.528 C 441.983 326.563, 441.699 333.188, 441.358 335.250 C 440.807 338.582, 440.971 339, 442.822 339 C 444.453 339, 448.491 337.703, 450.766 336.449 C 450.912 336.368, 449.931 331.216, 448.587 325 C 446.917 317.277, 445.487 313.042, 444.071 311.627 L 442 309.556 441.989 320.528 M 453.070 330.691 C 453.032 331.896, 453.450 333.160, 454 333.500 C 455.183 334.231, 455.183 333.252, 454 330.500 C 453.171 328.572, 453.138 328.579, 453.070 330.691 M 450 344.500 C 450 346.425, 450.188 348, 450.418 348 C 450.648 348, 451.553 348.275, 452.430 348.611 C 453.487 349.017, 453.879 348.765, 453.595 347.861 C 453.360 347.113, 452.896 345.262, 452.564 343.750 C 451.708 339.842, 450 340.341, 450 344.500 M 404.209 350.675 L 404.500 358.243 413.987 361.051 C 419.205 362.596, 423.643 363.691, 423.848 363.485 C 424.636 362.698, 425.659 345.459, 424.965 344.668 C 424.564 344.210, 419.664 343.671, 414.076 343.472 L 403.918 343.108 404.209 350.675 M 75.500 350.915 C 73.300 351.944, 70.010 354.071, 68.188 355.643 L 64.877 358.500 68.940 362.108 L 73.003 365.716 75.834 361.108 C 78.019 357.550, 80.779 348.894, 79.687 349.022 C 79.584 349.034, 77.700 349.886, 75.500 350.915 M 430.750 349.689 C 429.470 350.024, 429 351.169, 429 353.948 C 429 356.039, 428.719 359.156, 428.375 360.875 C 427.803 363.735, 427.971 364, 430.356 364 C 432.393 364, 433.088 363.399, 433.538 361.250 C 433.854 359.738, 434.481 356.846, 434.931 354.825 C 435.676 351.479, 434.777 348.752, 433.050 349.116 C 432.748 349.180, 431.712 349.438, 430.750 349.689 M 440.943 349.750 C 440.640 353.708, 439.946 360.285, 439.466 363.750 C 438.931 367.612, 439.073 368, 441.022 368 C 444.092 368, 442.927 370.431, 439.673 370.816 C 438.203 370.990, 437 371.444, 437 371.824 C 437 372.471, 445.541 378, 446.541 378 C 446.793 378, 447 372.202, 447 365.115 C 447 352.524, 446.944 352.193, 444.535 350.615 C 441.800 348.823, 441.028 348.637, 440.943 349.750 M 93.200 352.200 C 91.862 353.538, 91.470 383.670, 92.765 385.588 C 93.169 386.186, 94.518 386.933, 95.763 387.248 C 99.133 388.099, 99.222 387.850, 103.452 365.819 C 104.263 361.595, 105.202 357.044, 105.537 355.707 C 106.091 353.502, 105.726 353.168, 101.631 352.137 C 95.931 350.702, 94.689 350.711, 93.200 352.200 M 341.669 351.664 C 341.301 352.032, 341 353.158, 341 354.167 C 341 356.613, 339.296 356.509, 338.505 354.015 C 337.891 352.081, 337.744 352.096, 332.775 354.614 L 327.676 357.198 333.884 360.515 C 337.299 362.339, 340.634 364.259, 341.296 364.782 C 341.958 365.304, 343.738 365.955, 345.250 366.227 L 348 366.723 348 360.361 C 348 356.167, 347.601 354, 346.829 354 C 346.185 354, 344.911 353.324, 343.998 352.498 C 343.085 351.672, 342.037 351.297, 341.669 351.664 M 357.604 352.590 C 357.268 353.465, 357.300 354.676, 357.674 355.282 C 358.049 355.888, 358.848 358.843, 359.450 361.849 L 360.545 367.314 365.852 362.145 C 368.770 359.302, 370.986 356.459, 370.776 355.828 C 370.194 354.082, 363.871 351, 360.873 351 C 359.365 351, 357.950 351.688, 357.604 352.590 M 450.020 366.750 L 450.039 380.500 455.654 383.782 C 458.742 385.588, 461.442 386.892, 461.653 386.680 C 462.506 385.827, 455.659 356.376, 454.229 354.750 C 450.605 350.629, 449.999 352.355, 450.020 366.750 M 107.997 354.250 C 107.995 354.387, 107.095 359.128, 105.997 364.785 C 104.115 374.479, 103.378 384, 104.510 384 C 105.933 384, 122 374.682, 122 373.857 C 122 373.328, 121.302 369.828, 120.450 366.079 C 118.949 359.483, 118.744 359.178, 114.064 356.632 C 109.639 354.223, 108.005 353.582, 107.997 354.250 M 81.486 357.494 C 81.032 359.140, 79.368 362.681, 77.787 365.362 L 74.913 370.236 79.206 377.368 L 83.500 384.500 83.784 374.316 C 83.941 368.715, 83.673 361.965, 83.190 359.316 C 82.331 354.609, 82.292 354.568, 81.486 357.494 M 369.920 363.746 L 364.500 369.296 371.743 365.398 C 375.727 363.254, 378.990 361.271, 378.993 360.991 C 378.997 360.710, 378.177 359.967, 377.170 359.338 C 375.600 358.358, 374.571 358.984, 369.920 363.746 M 319.787 362.052 L 316.073 364.010 317.934 367.255 C 318.957 369.040, 320.118 371.581, 320.513 372.901 C 321.255 375.383, 321.350 375.368, 316.750 373.490 C 315.450 372.959, 315.420 373.441, 315.814 388.750 C 316.025 396.973, 316.655 397.447, 322.056 393.451 C 323.950 392.050, 331.260 387.672, 338.300 383.724 C 349.778 377.287, 350.914 376.410, 349.300 375.230 C 348.310 374.506, 346.503 373.663, 345.284 373.357 C 344.065 373.051, 341.368 371.197, 339.290 369.237 C 337.212 367.278, 333.034 364.524, 330.006 363.117 C 326.978 361.711, 324.275 360.455, 324 360.327 C 323.725 360.199, 321.829 360.975, 319.787 362.052 M 406.500 367 C 406.840 367.550, 409.004 367.968, 411.309 367.930 C 414.567 367.875, 415.055 367.668, 413.500 367 C 410.672 365.785, 405.749 365.785, 406.500 367 M 370.250 372.232 C 366.262 374.530, 363.006 376.656, 363.012 376.955 C 363.037 378.027, 370.097 382.058, 370.986 381.509 C 372.182 380.770, 378.957 367.992, 378.135 368.027 C 377.786 368.041, 374.238 369.934, 370.250 372.232 M 381.624 374.896 C 379.104 379.692, 378 383.091, 378 386.056 C 378 389.848, 378.596 390.944, 383.394 395.974 C 388.076 400.882, 389.014 401.463, 390.506 400.372 C 392.817 398.682, 394.922 388.335, 394.965 378.451 L 395 370.402 391.510 370.809 C 388.963 371.106, 387.854 370.782, 387.403 369.608 C 386.351 366.868, 385.372 367.764, 381.624 374.896 M 302.794 374.635 C 302.431 377.747, 302.612 378, 305.201 378 C 308.636 378, 308.771 376.444, 305.594 373.499 L 303.187 371.269 302.794 374.635 M 419 372.839 C 419 373.301, 420.125 374.192, 421.500 374.818 C 423.708 375.824, 424 375.726, 424 373.979 C 424 372.535, 423.324 372, 421.500 372 C 420.125 372, 419 372.378, 419 372.839 M 404.417 373.866 C 405.078 374.935, 421.614 387, 422.419 387 C 422.738 387, 423 384.794, 423 382.099 C 423 377.542, 422.750 377.050, 419.443 375.099 C 416.895 373.595, 414.183 373, 409.884 373 C 406.583 373, 404.123 373.390, 404.417 373.866 M 427 375.925 C 427 377.236, 428.797 378.823, 432.634 380.901 C 437.851 383.727, 440 384.072, 440 382.083 C 440 381.305, 428.793 374, 427.599 374 C 427.270 374, 427 374.866, 427 375.925 M 69.939 379.119 C 68.784 381.384, 68.212 383.561, 68.669 383.956 C 70.198 385.276, 80.187 389.146, 80.712 388.621 C 81.438 387.896, 74.109 375, 72.971 375 C 72.459 375, 71.095 376.854, 69.939 379.119 M 403.511 381.236 C 403.162 384.131, 403.016 390.775, 403.188 396 C 403.480 404.905, 403.637 405.520, 405.693 405.812 C 407.768 406.107, 424 395.773, 424 394.157 C 424 393.785, 423.062 392.896, 421.916 392.180 C 420.770 391.464, 420.068 390.265, 420.356 389.515 C 420.789 388.387, 411.183 380.184, 405.324 376.677 C 404.508 376.189, 403.952 377.586, 403.511 381.236 M 427 382.918 C 427 384.523, 426.727 386.548, 426.393 387.418 C 425.510 389.720, 432.117 389.535, 435.029 387.177 L 437.281 385.354 432.712 382.677 C 430.200 381.205, 427.886 380, 427.572 380 C 427.257 380, 427 381.313, 427 382.918 M 296.358 389.534 C 294.079 393.640, 292.375 397, 292.570 397 C 293.087 397, 300.943 385.312, 301.631 383.520 C 301.952 382.684, 301.828 382.015, 301.357 382.034 C 300.886 382.053, 298.636 385.428, 296.358 389.534 M 365.369 385.855 C 366.313 386.899, 366.772 388.431, 366.417 389.355 C 366.070 390.260, 366.236 391, 366.786 391 C 367.336 391, 368.059 390.288, 368.393 389.418 C 369.205 387.301, 369.221 387.364, 367.429 385.571 C 365.207 383.350, 363.336 383.608, 365.369 385.855 M 440.343 388.549 C 439.517 390.700, 440.173 391.048, 443.417 390.181 L 446.233 389.427 443.583 388.220 C 441.367 387.210, 440.836 387.264, 440.343 388.549" fill="none" stroke="#000" stroke-width="2px" fill-rule="evenodd"/>
</svg>
