<svg xmlns="http://www.w3.org/2000/svg" width="500" height="483" viewBox="0 0 500 483" version="1.1">
	<path d="M 465.575 4.918 C 463.285 7.448, 463.912 11.158, 466.880 12.632 L 469.260 13.814 466.180 15.407 C 461.892 17.624, 461.283 17.431, 461.785 14.009 C 462.142 11.582, 461.786 10.857, 459.899 10.159 C 456.723 8.983, 454.167 9.816, 452.326 12.626 C 450.503 15.408, 451.213 17.981, 454.005 18.712 C 457.389 19.597, 456.560 20.575, 449.668 23.828 C 449.211 24.044, 448.960 23.384, 449.110 22.361 C 449.980 16.435, 445.048 13.886, 441.039 18.189 C 438.360 21.065, 438.467 22.435, 441.562 24.870 L 444.123 26.885 441.111 28.442 C 437.149 30.491, 436.855 30.426, 437.553 27.644 C 438.221 24.984, 435.893 22, 433.151 22 C 432.213 22, 430.419 22.719, 429.165 23.597 C 426.226 25.655, 426.555 30.085, 429.750 31.487 C 432.781 32.817, 432.605 33.341, 428.466 35.315 C 423.989 37.450, 423.729 37.429, 424.500 35 C 425.615 31.486, 424.153 29, 420.972 29 C 418.041 29, 414 32.256, 414 34.617 C 414 36.067, 416.724 39, 418.071 39 C 419.916 39, 418.944 40.704, 416.453 41.839 C 412.936 43.442, 411.674 43.292, 412.416 41.359 C 412.762 40.457, 412.324 38.617, 411.442 37.271 C 410.168 35.326, 409.303 34.958, 407.231 35.478 C 401.794 36.843, 400.163 42.974, 404.616 45.307 L 407.233 46.678 401.699 49.801 C 398.655 51.519, 395.872 53.398, 395.514 53.977 C 395.156 54.556, 395.409 57.466, 396.075 60.444 C 397.168 65.327, 397.096 66.159, 395.343 68.928 C 394.274 70.616, 383.657 81.336, 371.749 92.749 C 359.842 104.162, 337.814 125.416, 322.800 139.980 C 307.785 154.544, 283.874 177.719, 269.665 191.480 C 255.456 205.241, 239.076 221.113, 233.265 226.750 C 222.015 237.665, 220.845 238.216, 214.510 235.569 C 210.106 233.729, 208.475 229.830, 207.766 219.452 C 207.464 215.026, 206.416 208.551, 205.438 205.063 C 203.778 199.149, 203.771 198.641, 205.329 197.501 C 207.581 195.855, 207.432 193.701, 204.910 191.418 C 203.045 189.730, 202.694 189.693, 201.660 191.075 C 199.758 193.614, 197.265 194.009, 193.380 192.385 C 186.482 189.503, 175.855 192.254, 165.339 199.645 C 154.601 207.191, 147.837 216.346, 137.002 238 C 128.184 255.622, 119.356 266.966, 109 273.982 C 101.402 279.129, 95.914 281.381, 83.589 284.409 C 53.072 291.907, 34.794 301.168, 19.730 316.766 C 7.924 328.991, 3.033 341.010, 3.012 357.856 C 2.985 379.321, 11.607 395.685, 36.149 420.743 C 43.088 427.827, 44.828 430.129, 43.601 430.600 C 41.458 431.422, 41.573 434.303, 43.829 436.345 C 46.213 438.502, 49 438.464, 49 436.273 C 49 435.139, 51.658 437.137, 56.750 442.098 C 74.179 459.081, 85.090 467.536, 96.593 472.970 C 104.004 476.472, 117.521 479.991, 123.500 479.976 C 130.300 479.958, 140.980 477.202, 149.204 473.343 C 156.034 470.138, 158.475 468.192, 167.784 458.533 C 177.888 448.048, 186.420 435.904, 188.527 429.009 C 188.945 427.639, 190.505 423.814, 191.993 420.509 C 194.853 414.154, 197.443 407.835, 197.528 407 C 197.597 406.323, 201.829 394.996, 202.946 392.500 C 212.214 371.777, 216.925 366.351, 232.249 358.750 C 237.515 356.137, 242.116 354, 242.471 354 C 242.827 354, 246.862 352.188, 251.438 349.973 C 266.862 342.507, 278.660 330.286, 283.071 317.204 C 285.499 310.003, 285.093 306.762, 281.465 304.385 C 278.024 302.130, 273.324 303.064, 266.254 307.407 C 253.797 315.058, 244.993 315.998, 234.965 310.750 C 226.515 306.327, 222.624 300.936, 222.552 293.550 L 222.500 288.153 230.953 279.326 C 235.603 274.472, 245.074 264.650, 252.001 257.500 C 258.928 250.350, 277.821 230.775, 293.985 214 C 383.462 121.140, 418.696 85.267, 422.278 83.382 C 423.806 82.577, 428.081 81.656, 431.778 81.333 C 438.314 80.763, 438.641 80.600, 443.614 75.427 C 446.426 72.501, 453.234 64.120, 458.742 56.803 C 471.294 40.129, 473.279 38.283, 482.687 34.540 C 492.009 30.830, 494.500 27.971, 494.500 20.982 C 494.500 16.797, 494.021 15.617, 491.099 12.602 C 486.910 8.280, 483.380 7.396, 478.481 9.443 C 473.549 11.504, 473.195 11.433, 473.756 8.494 C 474.712 3.493, 469.089 1.034, 465.575 4.918" fill="none" stroke="#000" stroke-width="2px" fill-rule="evenodd"/>
</svg>
