<svg xmlns="http://www.w3.org/2000/svg" width="500" height="194" viewBox="0 0 500 194" version="1.1">
	<path d="M 4.336 6.573 C 2.225 8.685, 1.865 9.779, 2.333 12.663 C 3.109 17.449, 4.400 18.723, 9.308 19.549 C 11.613 19.937, 15.750 21.246, 18.500 22.458 C 21.250 23.671, 24.708 24.965, 26.184 25.334 C 27.660 25.703, 29.803 27.320, 30.948 28.927 C 32.332 30.870, 34.782 32.402, 38.264 33.501 C 41.144 34.410, 45.888 36.081, 48.806 37.215 C 53.266 38.949, 54.484 39.079, 56.445 38.030 C 58.462 36.950, 60.040 37.254, 68.139 40.286 C 73.287 42.214, 79.495 44.328, 81.933 44.984 C 84.372 45.639, 89.097 47.452, 92.433 49.013 C 95.770 50.573, 100.975 52.625, 104 53.574 C 107.025 54.523, 110.175 55.852, 111 56.529 C 111.825 57.205, 117 59.188, 122.500 60.936 C 128 62.684, 133.719 64.988, 135.210 66.057 C 136.700 67.126, 138.950 68.007, 140.210 68.015 C 141.469 68.023, 145.200 68.871, 148.500 69.900 C 154.494 71.768, 156.806 74.370, 153.574 75.610 C 152.708 75.942, 152 76.579, 152 77.025 C 152 78.415, 158.611 82, 161.174 82 C 162.514 82, 165.136 83.125, 167 84.500 C 168.864 85.875, 171.172 87, 172.131 87 C 173.089 87, 177.389 88.359, 181.686 90.020 C 185.984 91.681, 193.775 94.356, 199 95.965 C 204.225 97.574, 216.150 101.674, 225.500 105.076 C 234.850 108.479, 250.150 113.860, 259.500 117.033 C 268.850 120.207, 279.425 124.136, 283 125.764 C 286.575 127.392, 295.800 130.862, 303.500 133.475 C 311.200 136.088, 321.014 139.752, 325.308 141.617 C 331.391 144.259, 333.540 144.781, 335.037 143.980 C 336.094 143.414, 338 143.213, 339.273 143.532 C 340.866 143.932, 342.168 143.472, 343.449 142.057 C 346.477 138.711, 348 139.454, 348 144.277 C 348 149.338, 350.240 153, 353.334 153 C 354.556 153, 356.304 153.875, 357.220 154.944 C 359.326 157.404, 365.679 158.681, 368.146 157.141 C 369.151 156.514, 371.748 156, 373.917 156 C 377.115 156, 377.921 155.614, 378.180 153.960 C 378.740 150.386, 380.248 151.353, 381.658 156.191 C 383.363 162.037, 387.154 165, 392.929 165 C 396.356 165, 397.203 164.597, 397.960 162.605 C 399.087 159.640, 400.704 159.033, 404.237 160.246 C 406.238 160.934, 407.246 162.201, 407.990 164.963 C 410.781 175.327, 421.549 179.473, 425.150 171.570 C 426.536 168.529, 428.781 167.573, 430.733 169.194 C 431.547 169.869, 433.178 170.901, 434.357 171.487 C 435.580 172.095, 436.715 173.830, 437 175.526 C 437.654 179.416, 438.825 181.157, 442.667 183.951 C 446.817 186.968, 452.597 186.189, 454.030 182.421 C 455.289 179.110, 457.320 178.499, 460.698 180.414 C 462.239 181.287, 467.775 183.519, 473 185.374 C 478.225 187.228, 483.974 189.356, 485.775 190.102 C 489.513 191.649, 491.183 190.975, 494.450 186.599 C 495.970 184.564, 496.500 182.341, 496.500 178.010 C 496.500 171.638, 496.276 171.131, 493.194 170.537 C 488.311 169.597, 475.910 165.785, 468.500 162.946 C 464.100 161.261, 455.325 158.071, 449 155.858 C 442.675 153.645, 436.741 151.153, 435.813 150.319 C 434.885 149.486, 433.668 149.087, 433.108 149.433 C 432.547 149.780, 429.257 148.860, 425.795 147.390 C 422.333 145.921, 418.150 144.362, 416.500 143.927 C 412.198 142.793, 388.828 134.214, 386.764 133.012 C 385.809 132.455, 384.346 132, 383.514 132 C 381.804 132, 381.483 130.437, 383 129.500 C 385.105 128.199, 383.850 125.835, 380.257 124.334 C 377.514 123.188, 375.044 122.957, 371.007 123.470 C 364.135 124.343, 363.675 124.331, 357.208 123.108 C 354.153 122.530, 350.633 121.028, 348.881 119.554 C 347.147 118.095, 344.598 117, 342.934 117 C 339.202 117, 330.896 113.850, 327.423 111.118 C 325.771 109.818, 323.286 109, 320.991 109 C 316.422 109, 309.758 106.742, 306.300 104.021 C 304.606 102.689, 302.232 102, 299.333 102 C 294.163 102, 289.259 100.128, 286.595 97.138 C 285.271 95.652, 283.512 95, 280.830 95 C 277.625 95, 276.665 94.498, 275.170 92.039 C 274.180 90.411, 272.161 88.128, 270.685 86.967 C 268.814 85.495, 268 83.925, 268 81.788 C 268 76.154, 261.551 74.034, 257.550 78.352 C 256.043 79.978, 253.313 81.092, 248.704 81.962 C 242.471 83.138, 241.804 83.082, 238.461 81.110 C 236.495 79.949, 233.713 79, 232.281 79 C 230.848 79, 227.781 77.889, 225.465 76.532 C 223.148 75.175, 219.284 73.778, 216.877 73.427 C 210.895 72.557, 153.436 53.029, 148.500 50.189 C 147.400 49.556, 141.587 47.431, 135.583 45.468 C 129.578 43.505, 123.466 41.044, 121.999 39.999 C 120.532 38.955, 118.448 38.332, 117.366 38.614 C 113.339 39.668, 67.372 25.255, 55 19.059 C 50.875 16.994, 45.700 14.984, 43.500 14.593 C 37.300 13.492, 26.188 10.024, 18.741 6.866 C 10.408 3.332, 7.633 3.276, 4.336 6.573" fill="none" stroke="#000" stroke-width="2px" fill-rule="evenodd"/>
</svg>
