<svg xmlns="http://www.w3.org/2000/svg" width="500" height="352" viewBox="0 0 500 352" version="1.1">
	<path d="M 228.052 2.367 C 228.010 4.707, 227.641 5.139, 226.048 4.723 C 224.974 4.442, 223.962 4.546, 223.798 4.954 C 223.634 5.362, 221.654 5.984, 219.398 6.336 C 215.806 6.897, 215.161 6.698, 214.215 4.738 C 213.168 2.568, 213.133 2.587, 213.068 5.358 C 213.008 7.871, 212.708 8.143, 210.583 7.610 C 209.253 7.276, 208.016 7.384, 207.833 7.850 C 207.650 8.315, 205.588 8.994, 203.250 9.360 C 199.831 9.894, 199 9.728, 199 8.512 C 199 7.680, 198.502 7, 197.893 7 C 197.284 7, 197.052 7.692, 197.376 8.538 C 197.728 9.455, 197.291 10.335, 196.293 10.718 C 195.345 11.082, 194.442 10.826, 194.209 10.127 C 193.901 9.204, 193.509 9.254, 192.649 10.326 C 192.017 11.113, 189.856 12.001, 187.846 12.300 C 184.734 12.763, 184.083 12.521, 183.455 10.672 C 182.762 8.630, 182.692 8.665, 182.292 11.250 C 181.842 14.162, 180.188 14.788, 178.200 12.800 C 177.267 11.867, 177 11.953, 177 13.191 C 177 14.276, 175.809 14.934, 173.250 15.264 C 170.292 15.644, 169.112 15.298, 167.665 13.623 L 165.830 11.500 166.337 13.811 C 166.872 16.245, 163.982 18.445, 163.227 16.180 C 162.662 14.485, 161 14.724, 161 16.500 C 161 17.420, 160.065 18, 158.582 18 C 157.252 18, 155.492 18.258, 154.672 18.572 C 153.705 18.944, 152.911 18.329, 152.414 16.822 L 151.647 14.500 151.024 17 C 150.641 18.539, 149.651 19.541, 148.451 19.606 C 147.378 19.665, 145.825 19.963, 145 20.270 C 144.175 20.576, 142.085 21.070, 140.355 21.368 C 137.749 21.815, 137.081 21.530, 136.464 19.704 C 135.755 17.610, 135.697 17.637, 135.292 20.250 C 134.868 22.994, 132.704 23.949, 131.463 21.940 C 131.032 21.243, 130.414 21.377, 129.654 22.334 C 127.892 24.554, 121.776 25.062, 120.291 23.112 C 119.206 21.687, 119.060 21.762, 119.032 23.750 C 119.010 25.323, 118.398 26, 117 26 C 115.900 26, 115 25.550, 115 25 C 115 24.450, 114.550 24, 114 24 C 113.450 24, 113 24.625, 113 25.389 C 113 26.577, 106.297 28.758, 105.545 27.814 C 105.408 27.642, 104.792 26.600, 104.178 25.500 C 103.140 23.641, 103.059 23.694, 103.030 26.250 C 102.997 29.228, 100.446 30.046, 98.200 27.800 C 97.267 26.867, 97 26.954, 97 28.193 C 97 31.098, 89.415 32.245, 88.362 29.500 C 87.522 27.312, 85.757 27.661, 86.461 29.876 C 86.885 31.212, 86.473 31.905, 85.029 32.282 C 83.914 32.574, 82.720 32.356, 82.376 31.799 C 81.971 31.145, 81.492 31.203, 81.021 31.966 C 80.620 32.614, 78.600 33.526, 76.532 33.993 C 73.267 34.729, 72.705 34.588, 72.269 32.920 C 71.993 31.864, 71.317 31, 70.767 31 C 70.217 31, 69.994 31.871, 70.273 32.935 C 70.962 35.572, 67.948 36.649, 66.276 34.363 C 65.574 33.403, 64.944 32.929, 64.875 33.309 C 64.806 33.689, 64.694 34.413, 64.625 34.917 C 64.430 36.347, 63.764 36.676, 59.846 37.280 C 56.725 37.761, 56.085 37.527, 55.455 35.672 C 54.762 33.630, 54.692 33.665, 54.292 36.250 C 53.837 39.193, 51.350 39.950, 49.200 37.800 C 48.267 36.867, 48 36.950, 48 38.175 C 48 39.139, 46.788 39.992, 44.875 40.375 C 40.159 41.318, 39 41.145, 39 39.500 C 39 38.675, 38.530 38, 37.956 38 C 37.382 38, 37.045 38.788, 37.206 39.750 C 37.434 41.106, 36.825 41.482, 34.500 41.420 C 32.850 41.377, 31.219 41.762, 30.875 42.277 C 30.532 42.792, 28.732 43.347, 26.875 43.511 C 24.408 43.729, 23.006 43.229, 21.665 41.655 L 19.830 39.500 20.325 41.763 C 20.964 44.686, 17.348 47.072, 16.324 44.403 C 15.762 42.939, 15.536 42.912, 14.589 44.199 C 13.990 45.012, 11.884 46.443, 9.909 47.377 C 7.934 48.312, 4.912 50.527, 3.195 52.299 L 0.073 55.520 3.286 67.872 L 6.500 80.224 33.500 95.918 C 48.350 104.550, 67.475 115.672, 76 120.635 C 84.525 125.597, 102.300 135.895, 115.500 143.519 C 128.700 151.142, 153.450 165.451, 170.500 175.316 C 220.721 204.374, 292.538 245.502, 369.500 289.282 C 409.100 311.808, 449.910 335.165, 460.190 341.187 C 481.152 353.466, 479.555 353.221, 487.128 345.325 C 490.890 341.403, 492.549 338.377, 495.991 329.158 C 499.508 319.741, 500.112 317.111, 499.552 313.658 C 499.181 311.371, 495.294 286.550, 490.914 258.500 C 471.484 134.063, 467.570 109.175, 466.491 103.214 C 465.987 100.429, 465.104 99.571, 460.698 97.582 C 443.395 89.769, 403.532 71.908, 392.382 66.974 C 374.776 59.181, 368.975 56.219, 366 53.501 C 364.625 52.245, 361.925 50.993, 360 50.719 C 356.028 50.154, 342.510 44.527, 303 26.994 C 253.084 4.842, 246.276 2, 243.123 2 C 241.308 2, 239.987 1.476, 239.968 0.750 C 239.947 -0.079, 239.526 0.033, 238.718 1.081 C 238.048 1.951, 236.079 2.944, 234.343 3.288 C 231.801 3.791, 230.886 3.483, 229.645 1.706 L 228.105 -0.500 228.052 2.367" fill="none" stroke="#000" stroke-width="2px" fill-rule="evenodd"/>
</svg>
