<svg xmlns="http://www.w3.org/2000/svg" width="500" height="363" viewBox="0 0 500 363" version="1.1">
	<path d="M 88.962 1.287 C 81.893 5.115, 13.177 56.215, 12.713 57.989 C 12.398 59.196, 11.350 60, 10.094 60 C 8.221 60, 7.529 61.017, 7.882 63.250 C 7.947 63.663, 6.715 64, 5.145 64 C 2.318 64, 2.278 64.085, 1.042 72.750 C -0.078 80.610, 0.002 82.654, 1.836 92.853 C 3.111 99.943, 4.542 104.941, 5.647 106.162 C 8.388 109.191, 26.782 120.194, 152.500 194.010 C 216.850 231.794, 285.700 272.386, 305.500 284.216 C 378.302 327.712, 394.611 336.938, 401.528 338.543 C 405.067 339.363, 409.208 339.941, 410.731 339.827 C 412.254 339.712, 414.674 340.389, 416.109 341.332 C 418.436 342.860, 418.854 342.881, 419.981 341.523 C 420.761 340.583, 422.922 340, 425.622 340 C 429.590 340, 430 340.227, 430 342.427 C 430 343.971, 431.242 345.882, 433.413 347.677 C 435.706 349.574, 437.053 351.719, 437.518 354.217 C 438.931 361.805, 445.193 365.020, 451.852 361.577 C 459.717 357.509, 468.070 343.897, 468.802 333.952 C 469.162 329.066, 468.890 328.023, 466.517 325.202 C 464.317 322.588, 463.092 322, 459.845 322 C 457.658 322, 455.047 322.439, 454.044 322.977 C 452.773 323.657, 450.839 323.483, 447.677 322.405 C 444.127 321.196, 442.664 321.110, 440.982 322.010 C 434.866 325.283, 440.515 319.995, 467.693 297.005 C 484.087 283.138, 497.661 271.051, 497.858 270.146 C 498.054 269.241, 498.639 267.977, 499.158 267.337 C 499.725 266.637, 499.831 259.475, 499.424 249.337 C 498.857 235.212, 498.460 232.178, 496.961 230.500 C 495.979 229.400, 495.023 227.440, 494.838 226.144 C 494.563 224.231, 490.644 221.619, 473.995 212.254 L 453.490 200.720 453.324 196.433 C 453.164 192.294, 450.914 186.477, 447.257 180.749 C 443.446 174.781, 310.695 97.025, 230.500 53.789 C 146.123 8.298, 136.880 3.714, 128.436 3.177 C 122.466 2.797, 122.100 2.915, 118.130 6.502 L 114.013 10.221 105.757 5.523 C 96.485 0.247, 92.663 -0.717, 88.962 1.287" fill="none" stroke="#000" stroke-width="2px" fill-rule="evenodd"/>
</svg>
