<svg xmlns="http://www.w3.org/2000/svg" width="238" height="500" viewBox="0 0 238 500" version="1.1">
	<path d="M 19.717 0.799 C 18.165 1.113, 18.262 1.418, 20.467 3.152 C 22.506 4.757, 23 6.021, 23 9.638 C 23 12.110, 23.536 15.114, 24.192 16.316 C 24.847 17.517, 25.510 20.779, 25.665 23.564 C 25.980 29.238, 28.429 36, 30.168 36 C 30.837 36, 30.624 36.758, 29.655 37.829 C 27.488 40.223, 27.567 41.185, 30.108 43.361 C 31.803 44.812, 32.074 45.787, 31.486 48.333 C 30.274 53.587, 30.018 86.893, 31.184 87.613 C 31.783 87.984, 31.069 89.167, 29.484 90.431 C 26.997 92.414, 26.893 92.751, 28.328 94.186 C 29.195 95.053, 29.602 96.065, 29.231 96.435 C 28.861 96.806, 29.105 97.447, 29.773 97.860 C 31.587 98.981, 33.560 109.874, 32.311 111.874 C 31.178 113.690, 31.199 116.895, 32.356 118.768 C 32.775 119.445, 32.828 120.470, 32.473 121.044 C 32.118 121.618, 32.210 122.630, 32.676 123.294 C 33.143 123.957, 33.294 175.125, 33.012 237 C 32.730 298.875, 32.853 350.288, 33.285 351.250 C 33.735 352.252, 33.657 353, 33.103 353 C 31.596 353, 30.672 357.072, 31.901 358.301 C 33.567 359.967, 33.213 364.138, 31.113 367.583 C 30.016 369.382, 29.548 371.255, 29.991 372.083 C 31.364 374.653, 32.267 415.632, 31.002 417.996 C 30.247 419.406, 30.194 420.529, 30.844 421.314 C 31.861 422.541, 30.228 432.105, 28.749 433.584 C 28.337 433.996, 28 435.084, 28 436.001 C 28 439.782, 18.255 445.610, 10.146 446.679 C 5.083 447.347, 0 450.297, 0 452.568 C 0 453.356, 0.450 454, 1 454 C 1.550 454, 2 454.675, 2 455.500 C 2 456.325, 2.346 457, 2.769 457 C 4.155 457, 2.893 472.379, 1.303 474.876 C 0.039 476.859, 0.013 477.409, 1.145 478.203 C 4.139 480.304, 14.987 484.909, 23.207 487.568 C 30.775 490.016, 32.232 490.214, 34.345 489.083 C 36.063 488.163, 38.349 488.008, 42.138 488.553 C 45.087 488.978, 50.313 489.237, 53.750 489.128 L 60 488.931 60 492.001 C 60 496.800, 62.627 500, 66.565 500 C 68.400 500, 70.260 499.438, 70.700 498.750 C 71.140 498.063, 72.400 496.956, 73.500 496.290 C 81.272 491.589, 84.523 489.999, 86.376 489.989 C 87.544 489.984, 93.900 488.868, 100.500 487.510 C 114.625 484.604, 117.108 484.487, 121.079 486.541 C 122.718 487.388, 124.565 487.769, 125.185 487.386 C 125.804 487.003, 127.907 486.514, 129.858 486.299 C 134.421 485.796, 136.176 484.288, 135.801 481.192 C 135.543 479.069, 134.532 478.425, 128.750 476.708 C 118.999 473.810, 120.134 472.606, 132 473.260 C 140.092 473.706, 142 473.549, 142 472.434 C 142 471.677, 140.537 470.596, 138.750 470.033 L 135.500 469.008 139.232 469.438 C 141.284 469.675, 143.192 469.499, 143.471 469.047 C 144.500 467.382, 140.898 465.792, 135.278 465.430 C 132.100 465.226, 127.337 464.775, 124.693 464.428 C 120.214 463.840, 119.908 463.617, 120.193 461.148 C 120.460 458.843, 121.083 458.412, 125 457.824 C 127.475 457.452, 132.313 457.115, 135.750 457.074 C 139.188 457.033, 142 456.566, 142 456.035 C 142 453.788, 137.853 453, 129.431 453.647 L 120.766 454.313 121.508 451.907 C 121.916 450.583, 128.087 434.650, 135.222 416.500 C 148.969 381.532, 157.200 360.128, 171.566 322 C 176.435 309.075, 181.700 296.301, 183.264 293.613 C 184.829 290.926, 185.855 288.064, 185.544 287.254 C 185.233 286.444, 188.776 275.593, 193.418 263.140 C 233.187 156.444, 238.002 142.680, 237.994 135.700 C 237.983 124.943, 234.231 118.467, 225.477 114.096 C 221.677 112.198, 219.754 111.849, 215.512 112.287 C 208.450 113.016, 204.372 115.316, 192.133 125.477 C 175.353 139.409, 168.950 141.691, 163.304 135.750 C 158.882 131.096, 156.697 126.206, 151.995 110.438 C 138.112 63.883, 130.502 47.407, 115.255 30.891 C 104.679 19.435, 90.609 12.702, 74.374 11.330 C 67.115 10.716, 67 10.663, 67 7.910 C 67 6.173, 67.823 4.537, 69.173 3.592 C 70.814 2.442, 70.997 1.961, 69.923 1.624 C 65.983 0.389, 63.575 0.211, 61.496 1.002 C 60.236 1.481, 58.897 1.564, 58.519 1.186 C 57.821 0.488, 22.975 0.140, 19.717 0.799 M 70.360 72.785 C 69.530 73.306, 68.851 106.085, 67.860 193.500 C 67.112 259.500, 66.348 308.775, 66.162 303 C 65.976 297.225, 66.355 243.529, 67.003 183.675 C 67.652 123.821, 67.915 74.582, 67.587 74.254 C 66.785 73.452, 62.126 77.893, 60.506 81.005 C 58.627 84.614, 58.335 89.494, 59.886 91.362 C 60.626 92.254, 60.921 93.762, 60.547 94.737 C 60.175 95.707, 59.868 96.725, 59.864 97 C 59.861 97.275, 59.102 98.336, 58.179 99.358 C 56.904 100.769, 56.471 103.296, 56.380 109.858 C 56.315 114.611, 56.165 118.725, 56.047 119 C 55.930 119.275, 55.673 120.400, 55.478 121.500 C 55.282 122.600, 54.637 125.525, 54.043 128 C 53.291 131.133, 53.091 164.993, 53.382 239.500 C 53.612 298.350, 53.964 347.901, 54.164 349.613 C 54.364 351.325, 55.146 353.471, 55.902 354.381 C 57.078 355.799, 57.034 356.305, 55.589 357.901 C 53.757 359.926, 54.188 363.878, 56.630 367.445 C 57.489 368.700, 57.754 370.829, 57.377 373.445 L 56.793 377.500 60.864 372 L 64.935 366.500 65.192 340 L 65.448 313.500 65.974 339 C 66.409 360.083, 66.717 364.122, 67.750 362.316 C 68.654 360.736, 69.065 352.163, 69.234 331.316 L 69.468 302.500 69.750 330.919 C 69.999 356.019, 70.201 359.115, 71.484 357.419 C 72.683 355.834, 72.982 348.878, 73.200 317.500 L 73.463 279.500 74 316.500 C 74.295 336.850, 74.727 353.275, 74.960 353 C 75.192 352.725, 75.655 344.400, 75.987 334.500 L 76.591 316.500 76.795 332.941 C 76.978 347.638, 77.156 349.176, 78.468 347.441 C 79.642 345.890, 79.987 340.882, 80.189 322.500 L 80.441 299.500 80.970 321.500 C 81.410 339.781, 81.711 343.131, 82.750 341.316 C 83.662 339.721, 84.062 330.674, 84.228 307.816 L 84.456 276.500 84.978 307.500 C 85.459 336.074, 86.574 344.731, 87.297 325.500 L 87.598 317.500 87.799 325.941 C 87.981 333.600, 88.136 334.202, 89.468 332.441 C 90.566 330.989, 90.996 326.972, 91.172 316.500 L 91.408 302.500 91.954 315.500 C 92.419 326.567, 92.686 328.175, 93.750 326.316 C 94.601 324.830, 95.068 318.278, 95.214 305.816 L 95.428 287.500 95.964 305 L 96.500 322.500 99.250 318.518 C 101.493 315.270, 102.030 313.335, 102.163 308.018 L 102.326 301.500 102.943 307 C 103.520 312.148, 103.635 312.340, 104.744 310 C 105.556 308.285, 106.223 293.057, 106.868 261.500 L 107.807 215.500 107.363 261.500 C 107.057 293.108, 107.239 307.031, 107.944 306 C 108.508 305.175, 109.057 300.675, 109.165 296 L 109.360 287.500 109.941 295 C 110.461 301.714, 110.645 302.238, 111.699 300 C 113.409 296.371, 117.150 120.682, 115.607 116.500 C 114.687 114.007, 114.409 116.119, 113.960 129 L 113.421 144.500 113.210 127.832 C 112.995 110.776, 112.259 105.106, 110.896 110 C 110.287 112.187, 110.187 112.048, 110.100 108.899 C 110.045 106.919, 109.438 103.769, 108.750 101.899 C 107.633 98.861, 107.443 100.197, 106.961 114.500 L 106.423 130.500 106.211 113.832 C 105.991 96.479, 105.004 89.717, 103.900 98 L 103.300 102.500 103.150 97.184 C 103.068 94.261, 102.438 90.886, 101.750 89.684 C 100.703 87.855, 100.413 90.424, 99.965 105.500 L 99.430 123.500 99.215 104.328 L 99 85.156 94.250 81.084 L 89.500 77.012 89.067 80.256 L 88.633 83.500 88.067 79.578 C 87.755 77.421, 86.938 75.471, 86.250 75.245 C 85.299 74.932, 84.951 78.019, 84.793 88.167 L 84.586 101.500 84.043 87.581 C 83.669 77.994, 83.123 73.537, 82.290 73.261 C 81.420 72.973, 80.986 75.341, 80.746 81.680 L 80.411 90.500 80.206 81.250 C 80.041 73.846, 79.705 72, 78.521 72 C 77.276 72, 76.996 75.119, 76.749 91.750 L 76.455 111.500 76.228 91.750 C 76.034 74.962, 75.775 72, 74.500 72 C 73.225 72, 72.967 74.958, 72.782 91.750 L 72.564 111.500 72.032 91.785 C 71.644 77.388, 71.193 72.263, 70.360 72.785 M 91.441 109 C 91.441 124.675, 91.579 131.087, 91.748 123.250 C 91.917 115.412, 91.917 102.587, 91.748 94.750 C 91.579 86.912, 91.441 93.325, 91.441 109 M 87.445 116.500 C 87.444 133.550, 87.581 140.666, 87.748 132.312 C 87.915 123.959, 87.915 110.009, 87.748 101.312 C 87.582 92.616, 87.445 99.450, 87.445 116.500 M 95.432 111 C 95.432 124.475, 95.574 129.988, 95.747 123.250 C 95.920 116.513, 95.920 105.487, 95.747 98.750 C 95.574 92.013, 95.432 97.525, 95.432 111 M 83.446 135.500 C 83.447 153.100, 83.583 160.159, 83.749 151.187 C 83.914 142.215, 83.914 127.815, 83.748 119.187 C 83.581 110.559, 83.446 117.900, 83.446 135.500 M 79.442 136 C 79.442 152.225, 79.580 158.862, 79.748 150.750 C 79.916 142.637, 79.916 129.362, 79.748 121.250 C 79.580 113.137, 79.442 119.775, 79.442 136 M 102.431 131.500 C 102.432 144.700, 102.574 149.962, 102.747 143.193 C 102.921 136.424, 102.920 125.624, 102.746 119.193 C 102.572 112.762, 102.431 118.300, 102.431 131.500 M 71.461 160 C 71.461 185.025, 71.590 195.263, 71.749 182.750 C 71.908 170.238, 71.908 149.763, 71.749 137.250 C 71.590 124.738, 71.461 134.975, 71.461 160 M 75.456 154.500 C 75.456 176.500, 75.588 185.358, 75.749 174.183 C 75.910 163.009, 75.910 145.009, 75.749 134.183 C 75.587 123.358, 75.455 132.500, 75.456 154.500 M 109.429 140.500 C 109.429 153.150, 109.573 158.187, 109.747 151.694 C 109.922 145.200, 109.921 134.850, 109.746 128.694 C 109.571 122.537, 109.428 127.850, 109.429 140.500 M 117.627 133.109 C 117.116 141.382, 113.891 284.968, 114.013 294 C 114.057 297.187, 114.170 297.321, 115.280 295.500 C 116.137 294.095, 116.842 280.857, 117.650 251 L 118.799 208.500 118.366 250 C 118.067 278.717, 118.251 290.990, 118.964 289.844 C 119.597 288.826, 120.778 258.996, 122.030 212.380 C 123.699 150.205, 123.834 136.025, 122.783 133.536 C 121.646 130.845, 121.439 132.376, 120.962 147 L 120.425 163.500 120.197 145 C 119.944 124.450, 118.559 118.039, 117.627 133.109 M 98.429 155.500 C 98.429 168.150, 98.573 173.187, 98.747 166.694 C 98.922 160.200, 98.921 149.850, 98.746 143.694 C 98.571 137.537, 98.428 142.850, 98.429 155.500 M 216 137.500 C 216 138.325, 215.550 139, 215 139 C 214.450 139, 214 139.886, 214 140.969 C 214 142.198, 213.499 142.745, 212.667 142.426 C 211.683 142.048, 211.451 142.711, 211.780 144.957 C 212.026 146.631, 212.368 148, 212.540 148 C 212.713 148, 213.525 146.655, 214.345 145.010 C 216.055 141.582, 217.439 136, 216.579 136 C 216.261 136, 216 136.675, 216 137.500 M 124.643 155.500 C 124.284 164.850, 123.548 192.075, 123.008 216 C 122.469 239.925, 121.770 265.575, 121.456 273 C 120.937 285.240, 121.026 286.313, 122.410 284.500 C 123.535 283.026, 124 279.474, 124.179 271 L 124.422 259.500 124.747 269.891 C 125.038 279.159, 125.228 280.078, 126.505 278.391 C 127.551 277.008, 127.999 272.871, 128.171 263 L 128.405 249.500 128.953 262 C 130.019 286.343, 131.306 270.742, 132.996 213 C 134.379 165.736, 134.448 155.159, 133.379 153.584 C 132.261 151.936, 132.033 152.982, 131.747 161.084 L 131.415 170.500 131.208 160.184 C 131.086 154.145, 130.482 148.963, 129.750 147.684 C 128.721 145.885, 128.310 152.117, 127.424 183 C 126.831 203.625, 126.323 213.300, 126.293 204.500 C 126.264 195.700, 126.523 178.428, 126.870 166.117 C 127.303 150.725, 127.156 142.916, 126.399 141.117 C 125.510 139.006, 125.171 141.784, 124.643 155.500 M 90.439 167 C 90.439 182.125, 90.578 188.313, 90.748 180.750 C 90.917 173.188, 90.917 160.813, 90.748 153.250 C 90.578 145.688, 90.439 151.875, 90.439 167 M 94.434 165.500 C 94.433 179.250, 94.574 185.014, 94.747 178.308 C 94.919 171.603, 94.920 160.353, 94.748 153.308 C 94.576 146.264, 94.434 151.750, 94.434 165.500 M 105.425 164 C 105.425 175.825, 105.569 180.662, 105.746 174.750 C 105.923 168.838, 105.923 159.162, 105.746 153.250 C 105.569 147.338, 105.425 152.175, 105.425 164 M 209.750 144.571 C 209.338 144.990, 209.014 147.171, 209.030 149.417 C 209.055 152.708, 209.261 153.156, 210.092 151.728 C 211.239 149.758, 210.934 143.368, 209.750 144.571 M 205.750 148.973 C 204.636 150.546, 204.006 153.272, 204.015 156.473 C 204.035 162.845, 205.899 160.650, 206.116 154 C 206.260 149.598, 206.277 149.576, 206.888 153 C 207.729 157.713, 208.732 155.546, 208.045 150.500 L 207.500 146.500 205.750 148.973 M 112.426 169.500 C 112.427 181.600, 112.571 186.413, 112.747 180.195 C 112.923 173.977, 112.922 164.077, 112.746 158.195 C 112.569 152.313, 112.425 157.400, 112.426 169.500 M 86.445 180.500 C 86.444 197.550, 86.581 204.666, 86.748 196.312 C 86.915 187.959, 86.915 174.009, 86.748 165.312 C 86.582 156.616, 86.445 163.450, 86.445 180.500 M 201.750 153.575 C 201.338 153.992, 201 156.823, 201 159.867 C 201 163.755, 201.314 165.086, 202.057 164.343 C 202.639 163.761, 202.976 160.930, 202.807 158.051 C 202.638 155.172, 202.162 153.157, 201.750 153.575 M 199.032 161.500 L 198.686 167.500 198.041 162.500 C 197.173 155.769, 195.793 158.821, 196.196 166.581 L 196.500 172.438 198.299 169.680 C 199.642 167.620, 200.006 165.476, 199.738 161.211 L 199.378 155.500 199.032 161.500 M 135.611 161.222 C 135.100 164.643, 132.945 246.563, 132.999 260.500 C 133.035 269.661, 134.857 269.235, 135.135 260 L 135.300 254.500 135.944 259 C 136.564 263.339, 136.629 263.411, 137.763 261 C 138.530 259.367, 139.446 243.061, 140.402 214 C 141.370 184.584, 141.715 178.483, 141.418 196 C 141.172 210.575, 140.695 230.375, 140.359 240 C 139.841 254.835, 139.957 257.302, 141.124 256.202 C 142.141 255.242, 142.647 250.419, 143.065 237.702 L 143.630 220.500 143.815 235.809 C 143.935 245.715, 144.353 250.900, 145 250.500 C 145.550 250.160, 146.078 246.421, 146.173 242.191 L 146.345 234.500 146.923 240.973 C 147.473 247.141, 147.559 247.316, 148.750 244.676 C 149.482 243.053, 150.089 236.853, 150.214 229.703 L 150.428 217.500 150.747 228.789 C 151.125 242.164, 152.911 243.193, 153.180 230.191 L 153.360 221.500 153.930 229 C 154.572 237.447, 155.903 236.352, 156.157 227.168 L 156.314 221.500 156.907 226.500 C 157.543 231.864, 158.909 230.723, 159.100 224.668 C 159.193 221.692, 159.242 221.652, 159.911 224 C 160.595 226.404, 160.663 226.423, 161.684 224.500 C 162.986 222.045, 164.497 174.588, 163.330 172.784 C 162.841 172.028, 162.270 175.405, 161.941 181 L 161.383 190.500 161.191 181.250 C 161.085 176.114, 160.571 172, 160.036 172 C 159.506 172, 158.925 176.387, 158.746 181.750 L 158.419 191.500 158.209 181.750 C 158.093 176.336, 157.573 172, 157.040 172 C 156.513 172, 155.929 175.713, 155.744 180.250 L 155.407 188.500 155.204 179.750 C 154.964 169.433, 153.245 168.037, 152.742 177.750 L 152.392 184.500 152.196 177.250 C 152.008 170.308, 150.618 167.515, 149.706 172.250 C 149.381 173.935, 149.238 173.711, 149.136 171.357 C 149.059 169.586, 148.345 167.963, 147.500 167.638 C 146.238 167.154, 145.967 168.607, 145.792 176.781 L 145.585 186.500 145.276 177 C 144.928 166.318, 144.170 163.041, 142.962 167 C 142.233 169.391, 142.195 169.363, 142.100 166.372 C 142.045 164.652, 141.340 162.697, 140.534 162.028 C 139.263 160.973, 139.025 162.322, 138.747 172.155 L 138.428 183.500 138.214 171.309 C 138.009 159.625, 136.642 154.327, 135.611 161.222 M 193.750 161.577 C 193.338 161.993, 193.014 165.746, 193.030 169.917 C 193.053 175.538, 193.324 177.049, 194.076 175.757 C 195.222 173.791, 194.914 160.403, 193.750 161.577 M 101.431 185.500 C 101.432 198.700, 101.574 203.962, 101.747 197.193 C 101.921 190.424, 101.920 179.624, 101.746 173.193 C 101.572 166.762, 101.431 172.300, 101.431 185.500 M 191.102 166 C 190.821 169.259, 190.748 169.328, 190.038 167 C 189.480 165.170, 189.119 164.902, 188.693 166 C 187.799 168.302, 187.399 184.872, 188.250 184.346 C 188.662 184.091, 189.064 181.546, 189.142 178.691 L 189.284 173.500 189.960 177.500 C 191.034 183.851, 192.139 179.463, 191.746 170.412 C 191.557 166.060, 191.267 164.075, 191.102 166 M 108.431 190.500 C 108.432 203.700, 108.574 208.962, 108.747 202.193 C 108.921 195.424, 108.920 184.624, 108.746 178.193 C 108.572 171.762, 108.431 177.300, 108.431 190.500 M 119.423 187.500 C 119.424 199.050, 119.570 203.638, 119.747 197.696 C 119.924 191.753, 119.923 182.303, 119.745 176.696 C 119.567 171.088, 119.422 175.950, 119.423 187.500 M 185.753 168 C 185.362 168.825, 184.897 172.875, 184.720 177 L 184.397 184.500 184.199 176.643 C 184.029 169.936, 183.768 168.875, 182.418 169.393 C 181.548 169.727, 180.648 170, 180.418 170 C 180.188 170, 179.933 171.463, 179.850 173.250 C 179.711 176.275, 179.671 176.310, 179.284 173.750 C 179.055 172.238, 178.447 171, 177.934 171 C 177.420 171, 176.939 172.238, 176.864 173.750 C 176.747 176.108, 176.666 176.179, 176.294 174.250 C 175.497 170.113, 174.002 171.939, 173.837 177.250 L 173.674 182.500 173.041 177 C 172.265 170.253, 171.168 172.141, 170.716 181 L 170.385 187.500 170.193 180.250 C 170.087 176.262, 169.568 173, 169.039 173 C 168.510 173, 167.928 176.938, 167.745 181.750 L 167.411 190.500 167.206 181.750 C 167.093 176.938, 166.621 173, 166.157 173 C 165.356 173, 164 198.349, 164 213.326 C 164 225.084, 165.362 219.773, 166.080 205.215 L 166.757 191.500 166.628 204.272 C 166.523 214.715, 166.728 216.732, 167.750 215.331 C 168.556 214.226, 169.070 209.333, 169.198 201.559 L 169.395 189.500 169.948 200.500 C 170.651 214.510, 171.936 211.754, 172.199 195.668 L 172.399 183.500 173 195 C 173.331 201.325, 173.691 205.413, 173.801 204.083 C 173.910 202.754, 174.303 201.969, 174.672 202.339 C 175.042 202.709, 176.615 201.096, 178.168 198.756 C 180.834 194.738, 181.003 193.829, 181.193 182.500 L 181.395 170.500 182 181.500 C 182.333 187.550, 182.694 191.488, 182.802 190.250 C 182.911 189.013, 183.536 188.113, 184.191 188.250 C 184.924 188.404, 185.707 186.383, 186.226 183 C 187.187 176.741, 186.839 165.710, 185.753 168 M 82.446 200.500 C 82.447 218.100, 82.583 225.159, 82.749 216.187 C 82.914 207.215, 82.914 192.815, 82.748 184.187 C 82.581 175.559, 82.446 182.900, 82.446 200.500 M 130.409 191.500 C 130.408 200.850, 130.558 204.810, 130.743 200.299 C 130.928 195.789, 130.929 188.139, 130.745 183.299 C 130.562 178.460, 130.410 182.150, 130.409 191.500 M 78.445 208 C 78.445 225.325, 78.582 232.412, 78.748 223.750 C 78.915 215.087, 78.915 200.912, 78.748 192.250 C 78.582 183.587, 78.445 190.675, 78.445 208 M 148.392 191 C 148.392 198.425, 148.549 201.463, 148.742 197.750 C 148.934 194.037, 148.934 187.963, 148.742 184.250 C 148.549 180.537, 148.392 183.575, 148.392 191 M 175.374 189.500 C 175.376 195.550, 175.541 197.896, 175.740 194.713 C 175.939 191.531, 175.937 186.581, 175.736 183.713 C 175.535 180.846, 175.372 183.450, 175.374 189.500 M 178.360 188 C 178.360 193.225, 178.529 195.363, 178.735 192.750 C 178.941 190.137, 178.941 185.863, 178.735 183.250 C 178.529 180.637, 178.360 182.775, 178.360 188 M 97.434 208.500 C 97.433 222.250, 97.574 228.014, 97.747 221.308 C 97.919 214.603, 97.920 203.353, 97.748 196.308 C 97.576 189.264, 97.434 194.750, 97.434 208.500 M 137.411 201 C 137.411 210.625, 137.561 214.563, 137.745 209.750 C 137.928 204.937, 137.928 197.062, 137.745 192.250 C 137.561 187.438, 137.411 191.375, 137.411 201 M 151.400 200.500 C 151.401 208.750, 151.556 211.992, 151.744 207.704 C 151.932 203.417, 151.931 196.667, 151.742 192.704 C 151.552 188.742, 151.399 192.250, 151.400 200.500 M 144.397 205 C 144.397 212.975, 144.553 216.238, 144.743 212.250 C 144.932 208.262, 144.932 201.738, 144.743 197.750 C 144.553 193.762, 144.397 197.025, 144.397 205 M 154.400 205.500 C 154.401 213.750, 154.556 216.992, 154.744 212.704 C 154.932 208.417, 154.931 201.667, 154.742 197.704 C 154.552 193.742, 154.399 197.250, 154.400 205.500 M 157.397 207 C 157.397 214.975, 157.553 218.238, 157.743 214.250 C 157.932 210.262, 157.932 203.738, 157.743 199.750 C 157.553 195.762, 157.397 199.025, 157.397 207 M 111.428 216 C 111.428 228.375, 111.571 233.438, 111.747 227.250 C 111.922 221.063, 111.922 210.938, 111.747 204.750 C 111.571 198.563, 111.428 203.625, 111.428 216 M 160.385 206 C 160.385 212.875, 160.545 215.688, 160.740 212.250 C 160.936 208.813, 160.936 203.188, 160.740 199.750 C 160.545 196.313, 160.385 199.125, 160.385 206 M 93.435 220 C 93.435 234.025, 93.575 239.763, 93.747 232.750 C 93.919 225.738, 93.919 214.263, 93.747 207.250 C 93.575 200.238, 93.435 205.975, 93.435 220 M 104.428 218 C 104.428 230.375, 104.571 235.438, 104.747 229.250 C 104.922 223.063, 104.922 212.938, 104.747 206.750 C 104.571 200.563, 104.428 205.625, 104.428 218 M 74.456 237.500 C 74.456 259.500, 74.588 268.358, 74.749 257.183 C 74.910 246.009, 74.910 228.009, 74.749 217.183 C 74.587 206.358, 74.455 215.500, 74.456 237.500 M 89.439 226 C 89.439 241.125, 89.578 247.313, 89.748 239.750 C 89.917 232.188, 89.917 219.813, 89.748 212.250 C 89.578 204.688, 89.439 210.875, 89.439 226 M 147.392 220 C 147.392 227.425, 147.549 230.463, 147.742 226.750 C 147.934 223.037, 147.934 216.963, 147.742 213.250 C 147.549 209.537, 147.392 212.575, 147.392 220 M 70.461 254 C 70.461 279.025, 70.590 289.263, 70.749 276.750 C 70.908 264.238, 70.908 243.763, 70.749 231.250 C 70.590 218.738, 70.461 228.975, 70.461 254 M 85.445 243.500 C 85.444 260.550, 85.581 267.666, 85.748 259.312 C 85.915 250.959, 85.915 237.009, 85.748 228.312 C 85.582 219.616, 85.445 226.450, 85.445 243.500 M 129.407 229 C 129.407 238.075, 129.559 241.787, 129.744 237.250 C 129.929 232.713, 129.929 225.287, 129.744 220.750 C 129.559 216.213, 129.407 219.925, 129.407 229 M 100.430 239 C 100.430 251.925, 100.573 257.212, 100.747 250.750 C 100.921 244.287, 100.921 233.712, 100.747 227.250 C 100.573 220.787, 100.430 226.075, 100.430 239 M 136.411 236 C 136.411 245.625, 136.561 249.563, 136.745 244.750 C 136.928 239.937, 136.928 232.062, 136.745 227.250 C 136.561 222.438, 136.411 226.375, 136.411 236 M 125.415 240 C 125.415 250.175, 125.564 254.338, 125.745 249.250 C 125.927 244.162, 125.927 235.837, 125.745 230.750 C 125.564 225.662, 125.415 229.825, 125.415 240 M 81.445 266 C 81.445 283.325, 81.582 290.413, 81.748 281.750 C 81.915 273.087, 81.915 258.913, 81.748 250.250 C 81.582 241.588, 81.445 248.675, 81.445 266 M 96.436 261.500 C 96.436 275.800, 96.577 281.511, 96.748 274.191 C 96.919 266.871, 96.918 255.171, 96.747 248.191 C 96.575 241.211, 96.435 247.200, 96.436 261.500 M 110.428 263 C 110.428 275.375, 110.571 280.438, 110.747 274.250 C 110.922 268.063, 110.922 257.938, 110.747 251.750 C 110.571 245.563, 110.428 250.625, 110.428 263 M 77.448 279.500 C 77.447 297.650, 77.582 305.216, 77.748 296.314 C 77.913 287.411, 77.914 272.561, 77.749 263.314 C 77.583 254.066, 77.448 261.350, 77.448 279.500 M 92.436 274.500 C 92.436 288.800, 92.577 294.511, 92.748 287.191 C 92.919 279.871, 92.918 268.171, 92.747 261.191 C 92.575 254.211, 92.435 260.200, 92.436 274.500 M 103.429 271.500 C 103.429 284.150, 103.573 289.187, 103.747 282.694 C 103.922 276.200, 103.921 265.850, 103.746 259.694 C 103.571 253.537, 103.428 258.850, 103.429 271.500 M 88.436 284.500 C 88.436 298.800, 88.577 304.511, 88.748 297.191 C 88.919 289.871, 88.918 278.171, 88.747 271.191 C 88.575 264.211, 88.435 270.200, 88.436 284.500 M 99.430 293 C 99.430 305.925, 99.573 311.212, 99.747 304.750 C 99.921 298.288, 99.921 287.712, 99.747 281.250 C 99.573 274.788, 99.430 280.075, 99.430 293 M 128.750 469.662 C 129.438 469.940, 130.563 469.940, 131.250 469.662 C 131.938 469.385, 131.375 469.158, 130 469.158 C 128.625 469.158, 128.063 469.385, 128.750 469.662" fill="none" stroke="#000" stroke-width="2px" fill-rule="evenodd"/>
</svg>
