<svg xmlns="http://www.w3.org/2000/svg" width="337" height="500" viewBox="0 0 337 500" version="1.1">
	<path d="M 299.049 5.947 C 293.363 7.910, 291 10.065, 291 13.287 C 291 15.822, 287.882 21, 286.356 21 C 285.025 21, 284.188 21.793, 279 27.971 C 274.394 33.456, 267.926 40, 267.111 40 C 266.755 40, 265.772 41.139, 264.928 42.530 C 263.222 45.342, 250.916 59.022, 244.100 65.682 C 241.681 68.047, 238.016 72.722, 235.956 76.071 C 232.891 81.056, 232.302 82.832, 232.708 85.863 C 233.135 89.040, 232.680 90.194, 229.506 93.993 C 227.471 96.429, 225.101 98.937, 224.240 99.566 C 222.636 100.739, 214.628 113.777, 208.925 124.500 C 207.170 127.800, 204.444 132.381, 202.867 134.680 C 201.290 136.979, 200 139.130, 200 139.460 C 200 139.789, 196.400 146.053, 192 153.379 C 187.600 160.705, 184 166.950, 184 167.256 C 184 168.301, 157.775 213.452, 153.153 220.365 C 151.731 222.491, 147.259 226.463, 143.215 229.192 C 118.287 246.014, 88.510 273.369, 64.179 301.799 C 34.450 336.537, 20.145 360.270, 10.986 390.048 C 9.218 395.796, 7.129 401.957, 6.345 403.737 C 4.261 408.465, 3.131 424.796, 3.973 438 C 4.906 452.647, 8.427 461.864, 16.576 470.997 C 19.559 474.340, 22 477.509, 22 478.038 C 22 478.567, 22.472 479, 23.048 479 C 23.624 479, 25.087 480.090, 26.298 481.423 C 27.509 482.755, 31.200 485.254, 34.500 486.975 C 37.800 488.696, 41.175 490.461, 42 490.897 C 42.825 491.333, 44.494 492.201, 45.709 492.828 C 46.925 493.454, 49.284 493.693, 50.952 493.360 C 52.620 493.026, 57.476 493.249, 61.742 493.856 C 74.792 495.710, 106.971 496.184, 112.628 494.605 C 115.308 493.857, 120.780 492.696, 124.788 492.025 C 139.025 489.642, 159.236 477.682, 169.321 465.673 C 191.696 439.030, 206.309 397.774, 210.027 350.750 C 211.254 335.227, 210.290 318.386, 207.034 298.492 C 205.058 286.415, 195.200 250.825, 190.633 239.280 C 186.140 227.922, 185.900 229.246, 196.441 207.174 C 201.699 196.166, 206 186.900, 206 186.582 C 206 184.544, 241.865 114.682, 244.685 111.226 C 248.749 106.247, 252.483 104.166, 264.062 100.426 C 274.482 97.061, 275.843 96.185, 280.975 89.533 C 286.414 82.483, 289.506 81.186, 294.231 83.974 C 297.171 85.708, 298.194 85.869, 300.275 84.920 C 303.796 83.316, 305.707 79.556, 304.028 77.534 C 302.272 75.417, 298.760 75.614, 295.727 78 C 292.726 80.360, 288.502 80.741, 289.332 78.576 C 289.633 77.793, 291.031 75.326, 292.440 73.095 C 295.723 67.894, 299.065 66.933, 303.208 69.996 C 306.127 72.154, 306.398 72.181, 309.646 70.632 C 313.209 68.933, 315.643 65.119, 314.712 62.692 C 313.619 59.843, 309.047 59.727, 305.468 62.456 C 299.252 67.198, 297.882 64.417, 303.250 57.951 C 307.225 53.163, 310.069 52.915, 314.154 57 C 315.804 58.650, 317.742 60, 318.462 60 C 320.301 60, 323.250 55.178, 323.250 52.172 C 323.250 47.557, 316.998 45.698, 314.700 49.631 C 313.779 51.208, 309.413 51.478, 308.509 50.014 C 308.173 49.472, 309.082 47.011, 310.527 44.545 C 312.607 40.995, 313.875 39.927, 316.617 39.412 C 319.035 38.958, 320.596 39.217, 321.790 40.270 C 327.002 44.865, 333.869 42.232, 332.533 36.151 C 331.493 31.414, 327.930 31.267, 322.787 35.750 C 320.834 37.453, 318 36.777, 318 34.608 C 318 32.334, 322.648 27.371, 328.063 23.862 C 330.778 22.103, 333 20.046, 333 19.292 C 333 17.075, 329.388 10.674, 326.847 8.389 C 321.595 3.664, 308.894 2.549, 299.049 5.947" fill="none" stroke="#000" stroke-width="2px" fill-rule="evenodd"/>
</svg>
