<svg xmlns="http://www.w3.org/2000/svg" width="336" height="341" viewBox="0 0 336 341" version="1.1">
	<path d="M 179 2.642 C 170.765 3.631, 160.708 6.108, 156.756 8.120 C 134.209 19.599, 120.165 37.639, 113.253 64 C 110.612 74.073, 110.500 75.496, 110.488 99 L 110.476 123.500 107.131 134 C 99.746 157.186, 89.682 172.995, 63.500 202.537 C 42.678 226.032, 38.764 231.011, 24.228 252.500 C 14.754 266.504, 6.205 285.612, 4.421 296.768 C 3.926 299.862, 4.181 301.628, 5.389 303.471 C 7.155 306.167, 13.793 309.997, 16.710 310.004 C 19.836 310.012, 34.530 299.228, 41.642 291.708 C 48.990 283.938, 60.514 269.175, 68.735 257 C 73.641 249.734, 89.810 222.017, 96.612 209.212 C 98.449 205.754, 101.988 199.778, 104.476 195.931 C 106.964 192.085, 109 188.695, 109 188.399 C 109 186.702, 116.667 177.205, 124.957 168.633 C 139.863 153.221, 148.685 147.627, 167.016 141.966 C 178.097 138.543, 189.391 133.310, 199.565 126.885 C 209.621 120.534, 211.572 122.076, 205.497 131.572 C 198.051 143.212, 191.942 157.110, 187.443 172.643 C 182.206 190.726, 182.055 191.056, 174.119 201.759 C 158.763 222.469, 150.699 229.690, 129.904 241.351 C 101.643 257.197, 72.072 275.246, 62.027 282.779 C 46.715 294.262, 28.909 313.562, 25.065 322.844 C 23.924 325.597, 23.980 326.659, 25.470 330.560 C 27.849 336.790, 30.617 338.405, 37.782 337.744 C 44.650 337.110, 63.974 329.522, 72.270 324.201 C 81.079 318.552, 99.834 305.378, 104.415 301.621 C 106.662 299.779, 119.975 288.070, 134 275.601 C 157.535 254.678, 167.748 246.584, 175.500 242.714 C 178.798 241.068, 198.873 233.151, 206 230.687 C 209.329 229.536, 216.225 229.004, 232.500 228.646 C 256.869 228.109, 264.505 226.953, 279.474 221.535 C 300.884 213.785, 314.447 202.430, 324.309 184 C 331.656 170.269, 333.304 164.206, 332.736 153 C 331.995 138.374, 327.731 128.763, 315.805 114.840 C 309.985 108.044, 298.246 98.873, 291.902 96.164 C 276.225 89.472, 256.159 92.089, 235.216 103.558 C 228.785 107.080, 225 107.918, 225 105.820 C 225 105.171, 226.757 101.908, 228.905 98.570 C 233.807 90.948, 239.590 75.376, 240.441 67.500 C 241.424 58.415, 238.837 45.872, 233.806 35.325 C 223.726 14.193, 200.105 0.107, 179 2.642" fill="none" stroke="#000" stroke-width="2px" fill-rule="evenodd"/>
</svg>
