<svg xmlns="http://www.w3.org/2000/svg" width="359" height="500" viewBox="0 0 359 500" version="1.1">
	<path d="M 8.050 7.606 C 1.131 15.002, 1.107 13.763, 8.314 21.645 L 11.189 24.790 10.685 119.645 C 10.408 171.815, 10.140 214.613, 10.090 214.750 C 10.041 214.887, 8.650 215, 7 215 C -0.136 215, 6.048 221.804, 16.762 225.742 C 23.992 228.398, 24.358 228.690, 26.662 233.651 C 27.979 236.483, 29.718 239.351, 30.528 240.023 C 31.503 240.833, 32.002 243.144, 32.006 246.872 C 32.010 250.028, 32.701 253.818, 33.580 255.500 C 34.981 258.183, 35.075 266.803, 34.464 337 C 33.923 399.290, 33.515 415.714, 32.490 416.537 C 31.780 417.108, 30.952 420.258, 30.650 423.537 C 30.348 426.817, 29.828 431.300, 29.494 433.500 C 28.956 437.044, 29.478 438.526, 34.070 446.500 C 36.920 451.450, 40.602 457.211, 42.251 459.301 C 44.967 462.745, 45.637 463.074, 49.366 462.801 C 52.567 462.567, 53.562 462.055, 53.838 460.500 C 54.367 457.529, 54.953 457.194, 61.500 456.117 C 67.330 455.157, 67.564 455.205, 69.745 457.814 C 72.501 461.111, 72.753 467.526, 70.294 471.810 L 68.589 474.781 76.391 486.496 C 83.955 497.855, 84.285 498.193, 87.221 497.606 C 88.887 497.273, 90.615 497, 91.062 497 C 91.508 497, 92.014 495.538, 92.187 493.750 L 92.500 490.500 100 489.861 C 104.125 489.509, 113.800 488.736, 121.500 488.144 C 129.200 487.551, 143.375 486.357, 153 485.491 C 181.830 482.895, 240.669 478.456, 285 475.531 C 296.825 474.751, 314.082 473.593, 323.350 472.957 L 340.199 471.801 343.397 474.900 C 348.024 479.385, 355 479.065, 355 474.368 C 355 472.709, 354.215 471.652, 352.500 471 L 350 470.050 350 421.632 C 350 368.195, 350.490 372.037, 343.668 371.968 C 339.377 371.925, 337 369.901, 337 366.290 L 337 363.300 344.250 363.686 C 350.779 364.033, 351.788 363.829, 354.394 361.633 C 356.322 360.009, 357.076 358.641, 356.653 357.537 C 356.080 356.044, 354.332 355.949, 339.140 356.581 C 329.858 356.967, 321.099 356.991, 319.677 356.634 C 314.959 355.450, 314.749 352.934, 314.260 291.647 L 313.807 234.795 317.035 231.464 C 318.811 229.632, 322.454 227.191, 325.132 226.039 C 327.809 224.887, 330 223.507, 330 222.972 C 330 222.437, 332.166 222, 334.813 222 C 338.833 222, 340.090 221.516, 342.442 219.060 L 345.259 216.120 340.380 215.810 L 335.500 215.500 335.227 120.428 L 334.954 25.356 340.977 20.679 C 350.384 13.374, 349.882 13.011, 330.250 12.935 C 321.038 12.899, 302.250 12.508, 288.500 12.066 C 268.975 11.437, 262.734 11.543, 260 12.548 C 258.075 13.255, 251.325 15.729, 245 18.045 C 238.675 20.361, 233.128 22.593, 232.673 23.005 C 232.218 23.417, 233.641 25.641, 235.835 27.947 L 239.824 32.140 239.260 49.595 L 238.696 67.050 223.598 66.775 L 208.500 66.500 208.221 52.667 L 207.942 38.833 210.721 36.667 C 214.968 33.356, 219.363 29.027, 218.908 28.604 C 218.683 28.396, 204.325 27.783, 187 27.242 L 155.500 26.257 144.265 31.379 C 138.086 34.195, 133.023 36.774, 133.015 37.109 C 133.007 37.444, 134.800 39.763, 137 42.263 L 141 46.807 141 55.424 L 141 64.041 120.250 63.770 L 99.500 63.500 99.231 40.096 L 98.962 16.692 104.699 11.096 L 110.435 5.500 94.967 4.802 C 86.460 4.418, 68.475 3.622, 55 3.034 C 41.525 2.445, 26.838 1.748, 22.362 1.485 L 14.224 1.006 8.050 7.606 M 315.709 363.624 C 315.319 364.014, 315 366.235, 315 368.560 C 315 371.582, 315.475 372.968, 316.667 373.426 C 319.135 374.373, 320.311 372.602, 320.411 367.789 C 320.485 364.198, 320.168 363.452, 318.459 363.208 C 317.336 363.047, 316.099 363.235, 315.709 363.624 M 316.250 393.651 C 315.358 394.019, 315 397.292, 315 405.083 L 315 416 318.033 416 L 321.066 416 320.783 404.762 C 320.493 393.247, 320.023 392.094, 316.250 393.651 M 316.026 432.942 C 314.781 433.747, 314.924 434.290, 316.951 436.447 C 320.335 440.050, 322.202 439.782, 321.813 435.750 C 321.480 432.292, 318.939 431.058, 316.026 432.942" fill="none" stroke="#000" stroke-width="2px" fill-rule="evenodd"/>
</svg>
