<svg xmlns="http://www.w3.org/2000/svg" width="500" height="590" viewBox="0 0 500 590" version="1.1">
	<path d="M 452.905 8.137 C 430.465 22.630, 418.876 34.406, 410.232 51.500 C 408.563 54.800, 405.652 58.858, 403.763 60.519 C 401.324 62.663, 400.143 64.707, 399.684 67.575 C 399.177 70.748, 395.571 76.204, 382.846 93.056 C 353.750 131.587, 347.672 138.266, 328.500 152.771 C 320.400 158.899, 314.408 164.656, 310.930 169.652 C 308.626 172.960, 302.624 187.093, 299.740 196 C 299.194 197.686, 264.550 241.603, 238.603 273.500 C 161.859 367.844, 91.982 452.911, 73.495 474.500 C 51.393 500.311, 28.415 524.587, 15 536.298 C 8.125 542.300, 2.355 547.598, 2.178 548.072 C 1.601 549.612, 9.120 562.836, 12.352 565.968 C 21.295 574.631, 30.193 580.868, 37.315 583.465 C 41.399 584.955, 45.777 586.022, 47.044 585.837 C 48.767 585.585, 50.719 583.109, 54.799 576 C 70.039 549.442, 88.999 524.383, 141.432 461.500 C 235.869 348.239, 337.404 230, 340.226 230 C 342.159 230, 361.030 216.812, 365.516 212.326 C 368.230 209.612, 372.423 202.881, 377.434 193.191 C 381.687 184.969, 387.305 174.925, 389.919 170.871 C 399.506 156.005, 440.961 110.120, 448.995 105.483 C 450.917 104.373, 453.065 102.265, 453.768 100.799 C 454.471 99.332, 456.948 96.677, 459.273 94.899 C 475.488 82.498, 487.146 66.321, 494.375 46.190 C 499.022 33.250, 497.670 27.635, 487.443 17.407 C 480.365 10.327, 468.838 4, 463.021 4 C 460.370 4, 457.480 5.182, 452.905 8.137 M 290.352 242.048 C 287.014 243.310, 286.711 244.765, 289.419 246.539 C 292.417 248.503, 296 247.647, 296 244.968 C 296 242.515, 293.093 241.012, 290.352 242.048" fill="none" stroke="#000" stroke-width="2px" fill-rule="evenodd"/>
</svg>
