<svg xmlns="http://www.w3.org/2000/svg" width="500" height="491" viewBox="0 0 500 491" version="1.1">
	<path d="M 151.500 7.097 C 149.300 7.634, 145.475 8.478, 143 8.975 C 140.525 9.471, 136.075 10.616, 133.111 11.519 C 130.146 12.422, 126.788 12.916, 125.647 12.618 C 124.507 12.320, 122.859 12.723, 121.985 13.514 C 121.111 14.305, 117.316 15.388, 113.553 15.921 C 105.821 17.016, 104.016 18.110, 106 20.500 C 108.003 22.913, 106.023 24.219, 97.210 26.298 C 87.521 28.584, 79.268 29.199, 75.890 27.887 C 73.991 27.149, 71.673 27.282, 67.390 28.372 C 64.150 29.196, 60.230 29.616, 58.678 29.305 C 57.126 28.994, 54.876 29.200, 53.678 29.764 C 48.501 32.199, 42.169 34, 38.782 34 C 34.122 34, 30 35.558, 30 37.320 C 30 39.118, 27.615 41.128, 21.500 44.486 C 18.750 45.995, 15.375 47.985, 14 48.907 C 12.625 49.829, 9.821 51.450, 7.768 52.510 C 5.217 53.826, 4.360 54.760, 5.062 55.462 C 6.272 56.672, 11.757 56.695, 25.694 55.547 L 35.888 54.707 36.553 57.353 C 36.918 58.809, 37.731 59.968, 38.358 59.930 C 40.948 59.770, 43.167 58.297, 44.323 55.970 C 45.820 52.957, 49.895 52.136, 51.624 54.500 C 52.303 55.429, 54.353 56.260, 56.180 56.345 C 59.020 56.478, 59.468 56.189, 59.279 54.348 C 59.158 53.165, 59.779 51.599, 60.659 50.868 C 62.426 49.402, 72.512 46.038, 75.211 46.015 C 76.152 46.007, 77.727 45.152, 78.711 44.116 C 79.695 43.081, 82.075 41.904, 84 41.501 C 85.925 41.098, 87.950 40.415, 88.500 39.982 C 90.320 38.550, 98.091 36.878, 104.341 36.574 C 107.729 36.409, 117.025 35.467, 125 34.480 C 143.954 32.133, 153.027 32.199, 156.712 34.709 C 158.245 35.753, 161.475 37.468, 163.888 38.518 C 166.842 39.804, 168.683 41.395, 169.520 43.385 C 170.613 45.984, 170.477 46.877, 168.397 50.791 C 165.683 55.894, 165.969 57, 170 57 C 173.251 57, 174.783 58.617, 173.113 60.287 C 171.141 62.259, 171.851 67.669, 174.494 70.811 C 177.363 74.220, 183 84.594, 183 86.464 C 183 87.158, 184.350 89.424, 186 91.500 C 187.650 93.576, 189 96.154, 189 97.227 C 189 98.301, 189.971 99.965, 191.157 100.926 C 192.579 102.077, 193.284 103.728, 193.226 105.771 C 193.177 107.475, 193.755 109.382, 194.509 110.008 C 195.264 110.634, 195.650 111.748, 195.368 112.483 C 194.497 114.754, 198.886 115.413, 201.162 113.353 C 203.120 111.581, 203.224 111.586, 204.631 113.510 C 205.429 114.601, 208.562 120.342, 211.593 126.269 L 217.104 137.044 215.545 143.129 C 214.174 148.482, 214.158 149.794, 215.416 154.029 C 217.565 161.266, 218.876 163.348, 220.458 162.035 C 221.482 161.185, 222.377 161.967, 224.471 165.541 C 227.035 169.915, 227.363 170.127, 231.171 169.852 C 236.047 169.500, 238.225 171.989, 235.590 174.901 C 233.020 177.740, 233.736 182.403, 237.975 190.453 C 241.033 196.258, 241.812 198.692, 241.350 201 C 240.930 203.099, 241.139 204, 242.046 204 C 242.759 204, 245.283 206.025, 247.655 208.500 C 250.026 210.975, 251.663 213, 251.292 213 C 250.921 213, 251.452 213.610, 252.471 214.355 C 253.668 215.231, 254.087 216.331, 253.653 217.462 C 252.635 220.115, 254.660 226.297, 257.868 230.334 C 259.443 232.315, 261.326 235.413, 262.054 237.218 C 262.782 239.023, 264.456 242.239, 265.774 244.365 C 267.497 247.144, 267.865 248.535, 267.085 249.315 C 265.358 251.042, 265.825 253, 267.965 253 C 270.325 253, 272.216 256.215, 272.584 260.855 C 272.949 265.444, 274.216 266.440, 279.733 266.472 C 283.948 266.497, 284.655 266.848, 286.745 269.950 C 289.636 274.239, 289.346 275.927, 285.277 278.487 C 281.794 280.678, 281.022 283.943, 283.500 286 C 284.325 286.685, 285 287.670, 285 288.189 C 285 288.709, 286.121 290.603, 287.492 292.400 C 290.556 296.418, 291.704 301.446, 290.021 303.475 C 289.016 304.686, 289.510 306.097, 292.737 311.228 C 294.907 314.677, 296.998 318.781, 297.384 320.346 C 297.770 321.911, 299.470 324.455, 301.161 326 C 302.852 327.545, 303.936 329.294, 303.570 329.887 C 303.204 330.480, 304.050 332.652, 305.452 334.714 C 306.853 336.777, 308 339.496, 308 340.757 C 308 342.270, 308.833 343.366, 310.450 343.981 C 312.215 344.652, 313.199 346.111, 313.972 349.206 C 314.562 351.568, 315.485 354.175, 316.024 355 C 316.564 355.825, 317.407 357.418, 317.898 358.541 C 318.390 359.664, 319.489 361.161, 320.341 361.868 C 322.188 363.401, 335 389.181, 335 391.364 C 335 392.199, 335.478 393.177, 336.062 393.538 C 336.646 393.899, 337.534 395.276, 338.037 396.597 C 339.075 399.328, 341.167 399.709, 343 397.500 C 343.685 396.675, 344.810 396, 345.500 396 C 346.190 396, 347.315 395.325, 348 394.500 C 349.815 392.314, 350.914 392.648, 352.109 395.750 C 353.097 398.312, 352.821 398.814, 348.085 403.079 C 342.724 407.907, 341.831 410.304, 344.800 411.893 C 345.790 412.423, 347.911 415.476, 349.513 418.678 C 351.115 421.880, 353.846 426.975, 355.581 430 C 357.316 433.025, 359.311 437.281, 360.013 439.457 L 361.292 443.413 357.146 446.984 C 354.866 448.948, 353 451.026, 353 451.602 C 353 452.179, 355.503 454.416, 358.562 456.575 C 364.909 461.054, 378 473.331, 378 474.804 C 378 476.219, 387.167 486, 388.493 486 C 389.106 486, 391.135 484.425, 393.001 482.499 C 395.362 480.063, 397.179 479.058, 398.976 479.195 C 402.270 479.446, 404 478.368, 404 476.063 C 404 471.947, 406.399 471.726, 415.673 474.989 C 420.528 476.697, 425.175 478.228, 426 478.391 C 426.825 478.554, 429.525 479.259, 432 479.957 C 441.312 482.586, 453.138 479.643, 462.827 472.286 C 465.206 470.478, 467.821 469, 468.638 469 C 469.455 469, 473.291 465.738, 477.163 461.750 C 487.476 451.129, 494 436.526, 494 424.064 C 494 422.049, 494.444 419.956, 494.986 419.414 C 495.634 418.766, 495.450 415.184, 494.449 408.964 C 492.361 395.985, 491.418 392.825, 486.909 383.695 C 484.759 379.341, 482.982 375.041, 482.961 374.139 C 482.940 373.238, 481.365 370.025, 479.462 367 C 477.559 363.975, 475.320 360.038, 474.487 358.250 C 473.655 356.463, 472.513 355, 471.951 355 C 471.389 355, 470.088 353.038, 469.060 350.641 C 468.032 348.243, 466.023 343.812, 464.596 340.794 C 463.168 337.776, 462 334.589, 462 333.713 C 462 332.836, 461.609 331.876, 461.131 331.581 C 460.654 331.286, 459.962 329.166, 459.595 326.871 C 459.228 324.575, 457.612 321.035, 456.004 319.005 C 452.908 315.096, 445.456 299.857, 441.331 289 C 439.973 285.425, 438.286 281.600, 437.582 280.500 C 436.879 279.400, 435.754 276.700, 435.082 274.500 C 434.410 272.300, 433.474 269.600, 433.002 268.500 C 429.700 260.812, 426.327 240.342, 427.489 235.050 C 428.228 231.687, 432.079 223.499, 434.330 220.507 C 435.349 219.152, 437.836 218.190, 442.090 217.507 C 453.437 215.682, 450.599 212.700, 435.894 210.994 C 430.727 210.395, 424.925 209.468, 423 208.934 C 421.075 208.400, 416.350 207.797, 412.500 207.594 C 408.650 207.390, 399.425 206.636, 392 205.918 C 370.738 203.862, 342 205.157, 342 208.171 C 342 209.296, 345.015 210.649, 349.209 211.406 C 354.567 212.373, 356.485 215.726, 358.410 227.500 C 359.309 233, 360.679 241.325, 361.453 246 C 364.150 262.288, 364.890 270.427, 363.795 271.748 C 363.223 272.436, 361.531 273, 360.035 273 C 356.968 273, 355.863 271.387, 337.156 239.586 C 328.578 225.005, 327.276 222.506, 327.685 221.410 C 327.908 220.811, 327.396 219.743, 326.546 219.038 C 324.386 217.246, 324.618 215.501, 327.250 213.731 C 330.191 211.754, 329.053 210.649, 325.476 212.009 C 321.047 213.693, 319.815 211.521, 323.521 208.560 C 326.965 205.808, 326.242 204.113, 322.375 205.875 C 320.172 206.879, 319.435 206.798, 317.870 205.383 C 316.842 204.452, 316 202.915, 316 201.967 C 316 201.020, 315.372 199.724, 314.605 199.087 C 313.837 198.450, 312.909 196.327, 312.541 194.369 C 311.603 189.369, 306.657 184.697, 303.123 185.473 C 301.032 185.932, 299.844 185.445, 297.775 183.282 C 296.312 181.752, 294.667 179.375, 294.121 178 C 293.172 175.615, 293.124 175.602, 293.063 177.715 C 292.990 180.271, 289.890 182.267, 286.698 181.813 C 283.711 181.388, 283.913 178.753, 287 177.895 C 288.375 177.512, 288.889 177.155, 288.142 177.100 C 287.188 177.030, 286.978 176.226, 287.436 174.399 C 287.795 172.969, 287.569 170.223, 286.933 168.297 C 285.890 165.136, 285.496 164.851, 282.888 165.372 C 278.655 166.219, 275.100 164.465, 273.535 160.758 C 272.334 157.914, 272.360 157.277, 273.735 155.750 C 274.601 154.787, 275.648 154, 276.062 154 C 276.879 154, 281.335 157.795, 289.270 165.250 C 293.992 169.686, 297 171.188, 297 169.110 C 297 168.621, 295.005 165.510, 292.567 162.199 C 288.828 157.119, 286.825 155.500, 283 154.463 C 281.663 154.100, 278.332 152.766, 276.930 152.031 C 276.067 151.579, 274.155 151.439, 272.680 151.721 C 270.810 152.078, 270 151.812, 270 150.839 C 270 149.309, 274.050 145.397, 275.250 145.768 C 275.663 145.896, 276 145.451, 276 144.779 C 276 143.242, 264.955 132, 263.445 132 C 262.830 132, 260.566 129.755, 258.414 127.011 C 256.261 124.267, 253.526 121.753, 252.336 121.424 C 249.397 120.612, 243.047 113.494, 240.361 108 C 239.151 105.525, 237 102.409, 235.581 101.076 C 234.161 99.742, 233 98.227, 233 97.708 C 233 97.189, 231.650 95.226, 230 93.347 C 228.350 91.468, 227 89.280, 227 88.485 C 227 87.691, 225.202 84.669, 223.004 81.770 C 220.807 78.872, 219.007 75.503, 219.004 74.285 C 218.999 71.468, 213.383 65, 210.942 65 C 208.785 65, 202 56.571, 202 53.891 C 202 52.890, 202.900 51.589, 204 51 C 205.100 50.411, 206 49.097, 206 48.080 C 206 45.887, 201.700 42.794, 199.713 43.557 C 198.947 43.851, 197.743 43.396, 197.038 42.546 C 196.332 41.695, 195.195 41, 194.510 41 C 192.629 41, 187.849 33.257, 185.546 26.480 C 182.932 18.788, 177.842 12.639, 171.500 9.512 C 165.784 6.693, 157.341 5.674, 151.500 7.097 M 296 174.453 C 296 175.904, 298.480 179.970, 299.635 180.414 C 301.677 181.197, 301.326 177.605, 299.171 175.655 C 297.401 174.053, 296 173.522, 296 174.453 M 321.090 240.808 C 318.114 242.289, 315.729 243.950, 315.790 244.500 C 315.851 245.050, 317.309 245.788, 319.031 246.140 C 322.840 246.919, 327.508 251.186, 330.131 256.288 C 331.986 259.895, 332.256 260.044, 335.790 259.407 C 337.830 259.038, 339.836 258.546, 340.246 258.312 C 341.795 257.429, 329.792 237.964, 327.757 238.058 C 327.065 238.090, 324.065 239.328, 321.090 240.808 M 362.667 280.667 C 361.420 281.913, 361.995 283.750, 365.404 289.411 C 370.947 298.615, 371.860 299.285, 375.368 296.720 C 377.025 295.508, 377.008 295.185, 375.045 290.605 C 371.778 282.984, 369.261 280, 366.099 280 C 364.578 280, 363.033 280.300, 362.667 280.667 M 374.123 300.352 C 373.267 301.383, 373.543 302.510, 375.285 305.095 C 379.603 311.503, 384.353 309.573, 380.904 302.813 C 378.879 298.842, 376.186 297.865, 374.123 300.352 M 381.046 311.444 C 379.422 313.401, 379.787 314.272, 387.628 327.137 C 394.402 338.250, 396.351 340.078, 398.810 337.619 C 400.082 336.346, 399.813 335.373, 396.655 329.832 C 385.067 309.500, 383.850 308.066, 381.046 311.444 M 398.438 343.100 C 397.605 344.448, 401.138 349.387, 403.230 349.799 C 405.507 350.248, 406.255 347.039, 404.500 344.359 C 402.884 341.894, 399.605 341.212, 398.438 343.100 M 404.599 353.840 C 404.286 354.347, 405.373 356.452, 407.015 358.518 C 408.657 360.585, 410 363.088, 410 364.082 C 410 366.872, 414.387 371.449, 416.342 370.699 C 418.608 369.830, 418.430 368.664, 415.500 365.182 C 414.125 363.548, 413 361.314, 413 360.216 C 413 356.447, 406.184 351.275, 404.599 353.840 M 420.036 394.457 C 419.331 395.306, 417.980 396, 417.033 396 C 414.676 396, 412.396 398.853, 411.670 402.711 C 411.023 406.151, 412.426 407.974, 414.287 406.113 C 416.230 404.170, 417.568 404.887, 419.966 409.153 L 422.300 413.306 419.141 415.903 C 414.922 419.371, 414.943 422.933, 419.205 426.519 C 421.967 428.843, 423.077 429.151, 427.244 428.751 C 433.142 428.184, 438.862 423.956, 440.871 418.677 C 442.418 414.614, 441.714 410.886, 439.767 412.833 C 437.325 415.275, 434.166 414.163, 432.427 410.250 C 428.337 401.050, 424.028 393.476, 422.729 393.207 C 421.952 393.046, 420.740 393.609, 420.036 394.457" fill="none" stroke="#000" stroke-width="2px" fill-rule="evenodd"/>
</svg>
