<svg xmlns="http://www.w3.org/2000/svg" width="446" height="262" viewBox="0 0 446 262" version="1.1">
	<path d="M 402.557 4.223 C 401.701 5.445, 401 7.437, 401 8.650 C 401 10.905, 405.234 15, 407.567 15 C 408.280 15, 409.790 16.301, 410.922 17.891 L 412.981 20.782 410.741 22.237 C 409.508 23.037, 407.375 23.930, 406 24.221 C 404.625 24.513, 401.776 25.504, 399.669 26.423 C 395.947 28.047, 395.822 28.036, 395.302 26.047 C 395.008 24.921, 394.441 24, 394.044 24 C 392.505 24, 391.132 18.959, 391.707 15.417 C 392.419 11.032, 390.458 8.991, 385.559 9.015 C 381.648 9.035, 380.376 9.881, 379.062 13.336 C 377.647 17.059, 379.210 19.892, 383.111 20.672 C 385.810 21.212, 391 26.852, 391 29.245 C 391 30.117, 384.511 33.136, 378.702 34.967 C 374.417 36.318, 372.865 35.573, 370.522 31.042 C 369.592 29.245, 369.478 27.898, 370.152 26.694 C 373.051 21.513, 367.960 15.573, 362.320 17.556 C 360.772 18.101, 358.923 19.761, 358.212 21.244 C 356.500 24.815, 358.725 29.360, 362.896 30.814 C 366.362 32.022, 369.791 36.609, 368.325 38.075 C 367.791 38.609, 366.407 39.229, 365.251 39.452 C 364.095 39.674, 361.997 40.611, 360.589 41.533 C 358.114 43.155, 358.001 43.133, 357.130 40.855 C 356.635 39.560, 355.250 37.618, 354.054 36.540 C 352.199 34.869, 351.741 34.795, 350.954 36.040 C 349.731 37.974, 349.754 40.730, 351 41.500 C 353.091 42.793, 351.859 45.093, 348.250 46.630 C 346.188 47.509, 342.700 49.016, 340.500 49.980 C 338.299 50.943, 335.062 52.047, 333.304 52.433 C 330.335 53.085, 329.970 52.861, 328.130 49.255 C 326.813 46.673, 326.455 44.893, 327.060 43.937 C 329.636 39.867, 326.094 35, 320.557 35 C 314.808 35, 311.706 42.056, 315.894 45.606 C 321.590 50.434, 324 52.988, 324 54.196 C 324 55.451, 321.905 56.719, 313.735 60.406 C 311.956 61.209, 309.071 62.566, 307.324 63.421 C 304.165 64.967, 304.137 64.957, 302.074 61.619 C 300.632 59.287, 300 56.584, 300 52.754 C 300 46.731, 299.215 45.597, 294.315 44.550 C 288.484 43.304, 284.935 49.607, 288.557 54.777 C 289.458 56.064, 291.164 57, 292.608 57 C 294.509 57, 295.447 57.825, 296.551 60.468 C 298.561 65.278, 298.491 65.475, 294.087 67.461 C 289.304 69.618, 288.188 69.027, 287.369 63.906 C 286.525 58.626, 283.429 56.752, 280.837 59.953 C 279.073 62.131, 279.104 62.232, 282.520 65.454 C 287.426 70.081, 287.101 71.234, 280.106 74.013 C 276.943 75.270, 276.585 75.206, 274.856 73.070 C 273.835 71.810, 273 69.533, 273 68.012 C 273 64.470, 270.483 62.207, 268.166 63.665 C 265.410 65.401, 265.669 67.888, 268.922 70.927 C 270.615 72.508, 272 74.288, 272 74.881 C 272 75.474, 270.213 76.871, 268.029 77.985 L 264.057 80.011 262.279 76.756 C 261.301 74.965, 260.275 72.423, 260 71.107 C 259.309 67.800, 256.633 66.230, 254.584 67.930 C 252.591 69.584, 252.528 72.882, 254.475 73.629 C 256.347 74.347, 259.284 80.130, 258.265 81.092 C 257.844 81.489, 255.841 82.496, 253.814 83.329 C 250.246 84.796, 250.078 84.768, 248.564 82.457 C 247.704 81.145, 247 78.735, 247 77.103 C 247 74.102, 244.247 72.111, 242.009 73.494 C 240.123 74.660, 240.967 79.240, 243.500 81.588 C 244.875 82.862, 246 84.540, 246 85.317 C 246 87.143, 231.254 93.654, 229.987 92.387 C 229.480 91.880, 228.702 89.715, 228.257 87.576 C 227.293 82.936, 224.919 80.992, 222.584 82.930 C 220.294 84.830, 220.611 86.372, 224.046 90.049 C 225.721 91.842, 226.733 93.646, 226.296 94.059 C 225.858 94.471, 222.478 96.166, 218.784 97.826 L 212.068 100.844 210.534 97.768 C 209.690 96.077, 209 93.412, 209 91.846 C 209 89.772, 208.512 89, 207.200 89 C 203.591 89, 201.441 93.920, 204.271 95.700 C 204.970 96.140, 206.060 97.681, 206.693 99.125 C 207.719 101.466, 207.590 101.866, 205.506 102.815 C 203.010 103.953, 202 102.862, 202 99.029 C 202 98.035, 201.153 96.175, 200.117 94.897 C 198.456 92.845, 197.928 92.712, 195.617 93.765 C 192.245 95.301, 192.320 96.271, 196.188 101.085 C 198.951 104.522, 199.184 105.238, 197.938 106.447 C 197.147 107.215, 195.600 107.991, 194.500 108.171 C 192.903 108.434, 192.189 107.564, 190.956 103.851 C 188.519 96.510, 185 93.372, 185 98.540 C 185 99.937, 185.900 102.844, 187 105 C 188.100 107.156, 189 109.152, 189 109.434 C 189 109.717, 187.667 110.638, 186.038 111.480 C 183.275 112.909, 183.007 112.882, 182.035 111.066 C 181.462 109.995, 180.638 107.407, 180.203 105.315 C 179.330 101.111, 177.490 100.178, 174.481 102.413 C 172.809 103.653, 172.697 104.165, 173.764 105.691 C 174.460 106.686, 175.928 108.850, 177.026 110.500 L 179.024 113.500 176.901 115.250 C 175.734 116.213, 174.208 117, 173.511 117 C 172.038 117, 170.209 112.820, 169.790 108.500 C 169.557 106.084, 169.034 105.500, 167.109 105.500 C 165.794 105.500, 164.232 106.271, 163.637 107.214 C 162.774 108.582, 163.098 109.493, 165.250 111.739 C 166.732 113.286, 168.069 115.658, 168.222 117.010 C 168.461 119.123, 167.876 119.669, 164.079 120.883 C 159.868 122.230, 159.574 122.192, 157.879 120.099 C 156.901 118.891, 156.337 117.284, 156.627 116.529 C 157.435 114.424, 155.167 111, 152.965 111 C 150.205 111, 150.339 116.187, 153.199 120.056 C 155.133 122.672, 155.221 123.207, 153.929 124.499 C 152.081 126.347, 140.158 131.077, 139.628 130.172 C 139.412 129.802, 138.924 127.925, 138.543 126 C 137.280 119.614, 136.925 119, 134.500 119 C 131.560 119, 130.218 122.420, 132.217 124.822 C 132.985 125.745, 134.125 127.703, 134.751 129.174 C 136.180 132.535, 135.836 132.827, 125.500 137.011 C 111.863 142.530, 107.750 144.080, 100.072 146.594 L 92.643 149.025 88.770 146.262 C 83.146 142.252, 79.832 140.173, 77 138.878 C 75.625 138.250, 71.800 136.481, 68.500 134.946 C 54.152 128.276, 43.907 126.572, 33.117 129.059 C 27.098 130.447, 18.856 136.143, 16.256 140.710 C 15.070 142.795, 12.277 146.686, 10.050 149.359 C 7.822 152.031, 6 154.775, 6 155.455 C 6 156.136, 5.217 158.224, 4.261 160.096 C 2.771 163.012, 2.533 166.368, 2.600 183.500 C 2.662 199.446, 2.991 204.108, 4.221 206.500 C 5.069 208.150, 6.079 211.401, 6.465 213.724 C 7.542 220.207, 14.124 229.450, 25.898 241.015 C 40.485 255.342, 46.389 258.356, 60.818 258.840 C 73.932 259.280, 78.971 257.726, 87.947 250.473 C 97.782 242.527, 115.627 222.682, 119.070 215.862 C 121.584 210.882, 122 208.918, 122 202.039 C 122 196.443, 121.396 192.433, 120.001 188.761 C 118.901 185.867, 118.001 182.988, 118.001 182.362 C 118 181.407, 130.184 173, 131.567 173 C 132.128 173, 146.511 167.010, 167.500 158.035 C 176.300 154.272, 185.975 150.203, 189 148.992 C 195.926 146.222, 200.668 144.231, 204.500 142.486 C 206.150 141.734, 209.975 140.147, 213 138.958 C 216.025 137.769, 227.500 132.966, 238.500 128.283 C 249.500 123.601, 262.100 118.273, 266.500 116.443 C 293.295 105.304, 301.828 101.733, 304.500 100.544 C 318.904 94.133, 337.233 86.451, 340.500 85.456 C 342.700 84.786, 347.425 82.874, 351 81.208 C 354.575 79.541, 362 76.498, 367.500 74.445 C 377.844 70.584, 394.623 63.679, 399 61.483 C 404.609 58.668, 415.004 54, 415.663 54 C 416.051 54, 418.198 53.162, 420.434 52.138 C 422.670 51.114, 428.550 48.554, 433.500 46.450 C 438.450 44.347, 442.919 42.269, 443.430 41.832 C 444.420 40.989, 440.513 31.671, 438.454 29.962 C 437.808 29.426, 437.493 27.873, 437.753 26.512 C 438.013 25.151, 437.953 22.949, 437.619 21.618 C 436.585 17.497, 428.006 15.707, 420.997 18.151 C 417.867 19.242, 417.551 19.126, 414.935 15.921 C 412.894 13.420, 412.413 12.096, 413.088 10.836 C 414.367 8.445, 414.223 4.623, 412.800 3.200 C 410.688 1.088, 404.306 1.725, 402.557 4.223" fill="none" stroke="#000" stroke-width="2px" fill-rule="evenodd"/>
</svg>
