<svg xmlns="http://www.w3.org/2000/svg" width="500" height="358" viewBox="0 0 500 358" version="1.1">
	<path d="M 339.500 16.578 C 277.176 41.640, 139.934 95.670, 37.234 135.575 C 21.138 141.829, 7.144 147.388, 6.136 147.927 C 4.985 148.543, 3.471 151.834, 2.061 156.786 C -0.012 164.066, -0.102 165.461, 0.874 175.157 C 1.730 183.669, 2.802 187.902, 6.548 197.575 L 11.166 209.500 41.333 239.825 C 57.925 256.504, 89.950 288.233, 112.500 310.334 C 156.708 353.661, 157.731 354.480, 170.819 357.048 C 177.085 358.277, 177.174 358.263, 181.319 355.339 C 184.864 352.839, 220.212 324.116, 236.500 310.500 C 252.513 297.114, 385.274 188.047, 439 144.140 C 496.125 97.456, 497.858 95.959, 499.083 92.250 C 500.450 88.108, 499.510 83.796, 496.698 81.301 C 495.489 80.229, 486.175 73.574, 476 66.513 C 465.825 59.452, 440.553 41.598, 419.840 26.838 C 399.127 12.077, 381.802 0.021, 381.340 0.046 C 380.878 0.071, 362.050 7.511, 339.500 16.578" fill="none" stroke="#000" stroke-width="2px" fill-rule="evenodd"/>
</svg>
