<svg xmlns="http://www.w3.org/2000/svg" width="499" height="274" viewBox="0 0 499 274" version="1.1">
	<path d="M 473.766 6.053 C 468.963 7.604, 463.563 9.979, 461.766 11.330 C 459.970 12.681, 455.350 15.024, 451.500 16.536 C 440.698 20.777, 431.997 25.358, 413.224 36.689 C 403.723 42.424, 393.692 48.161, 390.935 49.439 C 388.177 50.716, 385.151 52.431, 384.210 53.248 C 383.270 54.065, 368.550 62.065, 351.500 71.024 C 334.450 79.984, 313.866 91.069, 305.757 95.657 C 297.648 100.246, 290.552 104, 289.987 104 C 289.422 104, 287.282 105.049, 285.230 106.332 C 283.179 107.615, 275.650 111.732, 268.500 115.481 C 261.350 119.229, 254.600 123.072, 253.500 124.021 C 250.528 126.582, 232.986 136, 231.186 136 C 230.330 136, 228.556 137.008, 227.244 138.240 C 225.933 139.472, 222.471 141.835, 219.552 143.490 C 216.633 145.146, 211.073 148.412, 207.198 150.750 C 203.322 153.088, 199.497 155, 198.698 155 C 197.899 155, 196.708 155.646, 196.053 156.436 C 195.062 157.631, 173.166 170.352, 163.859 175.141 C 162.407 175.889, 157.907 178.510, 153.859 180.967 C 149.812 183.424, 143.160 187.123, 139.077 189.188 C 134.994 191.252, 131.394 193.332, 131.077 193.809 C 130.055 195.345, 107.890 208, 106.221 208 C 105.335 208, 103.460 209.073, 102.055 210.385 C 100.650 211.696, 97.475 213.848, 95 215.167 C 92.525 216.485, 88.637 218.761, 86.359 220.225 C 80.522 223.978, 69.340 230.110, 56.500 236.601 C 50.450 239.659, 43.700 243.440, 41.500 245.003 C 39.300 246.566, 36.307 248.084, 34.848 248.378 C 33.389 248.671, 30.031 250.956, 27.385 253.455 C 24.739 255.955, 22.077 258, 21.470 258 C 20.330 258, 11.221 262.514, 7.250 265.046 C 6.004 265.841, 5 267.489, 5 268.741 C 5 272.694, 11.602 271.806, 21.661 266.500 C 26.353 264.025, 30.867 262, 31.692 262 C 33.246 262, 35.681 260.909, 42.500 257.156 C 44.700 255.946, 50.325 252.996, 55 250.602 C 59.675 248.208, 65.750 244.998, 68.500 243.469 C 71.250 241.940, 79.575 237.555, 87 233.724 C 94.425 229.893, 101.388 226.138, 102.473 225.379 C 103.557 224.621, 105.097 224, 105.894 224 C 106.691 224, 108.053 223.378, 108.921 222.618 C 111.245 220.584, 131.084 210, 132.572 210 C 133.273 210, 135.119 208.933, 136.673 207.628 C 138.228 206.323, 145.575 202.214, 153 198.496 C 160.425 194.778, 170.550 189.452, 175.500 186.659 C 180.450 183.867, 187.722 180.179, 191.661 178.465 C 195.600 176.751, 202.156 172.795, 206.230 169.674 C 211.417 165.701, 214.532 164, 216.619 164 C 218.259 164, 220.135 163.465, 220.790 162.810 C 222.155 161.445, 234.913 154.725, 253 145.844 C 259.875 142.469, 270.497 136.848, 276.605 133.353 C 282.712 129.859, 288.758 127, 290.040 127 C 291.322 127, 293.300 126.164, 294.436 125.142 C 297.671 122.229, 323.635 109, 326.116 109 C 327.341 109, 329.053 108.359, 329.921 107.575 C 330.790 106.792, 338.025 103.139, 346 99.458 C 353.975 95.777, 361.175 92.194, 362 91.495 C 364.165 89.661, 375.022 84.403, 378.250 83.625 C 379.762 83.260, 381 82.560, 381 82.069 C 381 81.578, 382.913 80.870, 385.250 80.496 C 387.587 80.122, 391.075 78.757, 393 77.463 C 397.258 74.601, 411.062 69, 413.858 69 C 414.971 69, 416.139 68.585, 416.452 68.077 C 416.766 67.569, 418.474 66.835, 420.247 66.446 C 422.020 66.056, 424.377 65.155, 425.485 64.444 C 428.079 62.777, 439.382 59, 441.774 59 C 442.785 59, 445.136 57.875, 447 56.500 C 448.864 55.125, 451.019 54, 451.789 54 C 452.560 54, 455.650 52.650, 458.657 51 C 461.663 49.350, 464.905 48, 465.862 48 C 466.818 48, 468.092 47.508, 468.693 46.907 C 469.483 46.117, 470.350 46.117, 471.827 46.907 C 474.923 48.564, 475.711 48.267, 476.845 45.014 C 477.616 42.803, 479.292 41.363, 483.301 39.464 C 490.752 35.936, 491.543 34.139, 490.071 24.074 C 488.542 13.617, 486.465 6.719, 484.260 4.780 C 482.660 3.373, 481.705 3.489, 473.766 6.053" fill="none" stroke="#000" stroke-width="2px" fill-rule="evenodd"/>
</svg>
