<svg xmlns="http://www.w3.org/2000/svg" width="500" height="541" viewBox="0 0 500 541" version="1.1">
	<path d="M 264.885 5.403 C 251.654 10.044, 248.643 18.266, 247.455 53 C 246.856 70.500, 246.463 74.085, 244.773 77.500 C 242.512 82.069, 239.366 84.945, 236.596 84.978 C 229.196 85.064, 209.463 102.236, 198.649 118 C 195.443 122.675, 191.081 128.730, 188.957 131.455 C 186.833 134.179, 184.286 138.004, 183.297 139.955 C 182.309 141.905, 179.212 146.875, 176.415 151 C 165.526 167.061, 132.447 216.584, 131.500 218.244 C 130.950 219.208, 125.268 227.760, 118.874 237.248 C 112.480 246.737, 92.196 277.225, 73.799 305 C 12.005 398.292, 15.136 393.314, 10.329 405.935 C 4.910 420.162, 5.299 429.362, 11.719 438.852 C 20.502 451.834, 30.401 456.640, 56.500 460.594 C 59.250 461.010, 149.925 461.262, 258 461.153 L 454.500 460.954 456.731 458.444 C 458.516 456.435, 458.892 454.992, 458.614 451.217 C 458.140 444.794, 457.158 442.678, 455.121 443.693 C 453.243 444.628, 175.032 444.789, 99.500 443.898 C 45.360 443.260, 42.931 443.050, 32.748 438.120 C 26.612 435.150, 25.238 433.449, 26.868 430.840 C 27.837 429.289, 27.848 428.522, 26.920 427.404 C 26.128 426.450, 25.916 423.867, 26.290 419.743 C 26.910 412.900, 32.338 401, 40.314 389 C 44.586 382.571, 57.567 362.872, 59.500 359.884 C 60.050 359.034, 62.267 355.674, 64.427 352.419 C 66.587 349.164, 73.822 338.175, 80.506 328 C 161.392 204.855, 211.625 129.579, 218.833 120.712 C 224.033 114.316, 237.190 103, 239.428 103 C 240.537 103, 243.033 104.820, 244.973 107.045 C 249.683 112.446, 254.296 113.304, 258.700 109.599 C 260.399 108.170, 262.702 107, 263.818 107 C 266.575 107, 271.128 111.007, 276.732 118.363 C 279.303 121.738, 281.684 124.725, 282.023 125 C 282.733 125.576, 291.006 136.709, 292.500 139.100 C 293.050 139.980, 298 147.321, 303.500 155.413 C 309 163.505, 314.228 171.443, 315.118 173.051 C 316.007 174.660, 317.340 176.705, 318.079 177.595 C 318.817 178.485, 319.889 180.029, 320.461 181.025 C 321.812 183.380, 329.264 194.647, 332.020 198.500 C 333.200 200.150, 337.350 206.450, 341.241 212.500 C 348.204 223.326, 354.389 232.806, 372.552 260.500 C 377.603 268.200, 384.944 279.450, 388.867 285.500 C 392.789 291.550, 397.297 298.300, 398.884 300.500 C 400.470 302.700, 402.781 306.525, 404.019 309 C 405.256 311.475, 406.565 313.725, 406.927 314 C 408.026 314.835, 419.581 332.263, 421.481 335.951 C 422.459 337.849, 423.876 340.019, 424.630 340.773 C 425.383 341.526, 426 342.529, 426 343 C 426 343.471, 426.563 344.452, 427.250 345.179 C 429.406 347.457, 438.577 361.537, 444.409 371.520 C 446.009 374.259, 448.412 377.850, 449.750 379.500 C 451.087 381.150, 454.152 385.650, 456.560 389.500 C 458.968 393.350, 461.866 397.850, 463.001 399.500 C 464.135 401.150, 466.286 404.336, 467.782 406.581 C 474.386 416.496, 476.628 417.741, 482.854 414.954 C 487.196 413.010, 489.500 409.310, 488.738 405.503 C 488.300 403.317, 477.288 386.541, 376.157 234 C 357.743 206.225, 333.460 169.550, 322.195 152.500 C 293.558 109.155, 285.691 98.818, 274.870 90.317 C 271.642 87.780, 269 85.076, 269 84.307 C 269 82.936, 274.906 73.887, 282.906 63 C 291.590 51.184, 293.983 42.997, 292.223 31.134 C 290.928 22.415, 289.140 18.654, 283.473 12.740 C 276.486 5.449, 270.966 3.270, 264.885 5.403 M 264.285 13.931 C 262.457 15.066, 259.891 18.208, 258.336 21.214 C 255.659 26.390, 255.594 26.940, 255.190 47.703 C 254.795 68.061, 254.864 69.044, 256.939 72.401 C 260.366 77.947, 262.741 78.058, 267.278 72.886 C 273.804 65.445, 282.597 51.410, 284.478 45.430 C 286.802 38.043, 285.543 27.309, 281.556 20.505 C 277.095 12.893, 270.189 10.264, 264.285 13.931 M 37.792 514.876 C 32.505 515.670, 26.320 520.009, 24.141 524.454 C 22.385 528.038, 23.613 530.841, 28.607 534.647 L 32.351 537.500 96.426 537.377 C 165.552 537.244, 178.820 536.616, 183.570 533.250 C 186.480 531.187, 187.239 531.169, 295.500 530.586 C 355.450 530.263, 423.954 529.706, 447.730 529.350 C 487.254 528.757, 491.097 528.550, 492.555 526.939 C 493.458 525.942, 494.009 523.945, 493.825 522.338 C 493.519 519.670, 493.141 519.456, 487.500 518.760 C 478.853 517.695, 410.181 516.694, 408.181 517.605 C 406.616 518.318, 349.255 518.698, 231.500 518.777 L 182.500 518.810 180.807 516.655 L 179.115 514.500 110.807 514.335 C 73.238 514.244, 40.381 514.488, 37.792 514.876" fill="none" stroke="#000" stroke-width="2px" fill-rule="evenodd"/>
</svg>
