<svg xmlns="http://www.w3.org/2000/svg" width="300" height="182" viewBox="0 0 300 182" version="1.1">
	<path d="M 247.500 12.529 C 215.348 23.503, 185.527 32.567, 170.127 36.045 L 164.753 37.259 162.191 33.879 C 157.648 27.887, 150.887 22.092, 145.182 19.301 C 137.851 15.714, 127.576 15.449, 121.455 18.690 C 108.145 25.737, 101.464 43.505, 105.427 61.318 C 108.618 75.659, 117.578 88.863, 128.258 94.962 L 133.173 97.770 123.837 102.767 C 113.400 108.353, 36.649 148.130, 16.500 158.395 C -0.766 167.191, -2.635 169.543, 2.850 175.565 C 5.551 178.531, 5.934 178.634, 14.571 178.726 C 25.699 178.844, 25.041 178.728, 24.381 180.449 C 23.952 181.567, 24.588 181.831, 27.163 181.604 C 31.775 181.199, 34.210 179.990, 33.603 178.407 C 33.321 177.673, 34.350 176.175, 35.889 175.079 C 41.367 171.178, 198.281 88.055, 199.151 88.593 C 199.638 88.894, 202.780 87.309, 206.132 85.070 C 209.485 82.832, 213.077 81, 214.114 81 C 215.151 81, 217.008 79.988, 218.241 78.750 C 223.683 73.286, 249.546 59.592, 266 53.464 C 272.875 50.903, 280.958 47.913, 283.963 46.820 C 296.310 42.328, 299.462 37.377, 299.444 22.500 C 299.433 14.054, 299.067 11.755, 297.086 7.709 C 294.551 2.530, 290.848 -0.076, 286.300 0.121 C 284.760 0.188, 267.300 5.771, 247.500 12.529 M 285.701 7.632 C 285.316 8.018, 285 10.185, 285 12.447 C 285 16.080, 285.344 16.691, 287.934 17.669 C 290.153 18.507, 291.025 19.617, 291.515 22.226 C 292.208 25.920, 289.931 33, 288.051 33 C 287.473 33, 287 34.163, 287 35.583 C 287 39.066, 289.045 38.275, 291.248 33.940 C 295.001 26.556, 292.725 8.105, 287.951 7.218 C 287.099 7.060, 286.087 7.246, 285.701 7.632 M 274.177 11.686 C 271.800 12.527, 269.637 13.782, 269.371 14.475 C 268.818 15.917, 271.434 42.767, 272.203 43.536 C 272.482 43.815, 275.283 43.058, 278.428 41.855 C 283.316 39.984, 284.065 39.364, 283.587 37.583 C 283.279 36.437, 283.021 34.938, 283.014 34.250 C 283.006 33.563, 282.351 33, 281.557 33 C 279.263 33, 277 28.893, 277 24.730 C 277 21.933, 277.673 20.281, 279.502 18.586 C 281.522 16.713, 281.883 15.665, 281.377 13.134 C 280.674 9.619, 280.259 9.536, 274.177 11.686 M 242.500 24.344 C 215.577 35.454, 217.924 33.793, 218.589 41.276 C 220.072 57.979, 221.125 66.525, 221.780 67.174 C 222.176 67.567, 228.658 64.601, 236.184 60.583 C 243.710 56.566, 253.385 51.855, 257.684 50.116 C 269.293 45.419, 268.395 47.073, 267.047 32.873 C 265.674 18.403, 265.184 15.984, 263.642 16.046 C 263.014 16.071, 253.500 19.805, 242.500 24.344 M 195.870 44.341 C 187.309 48.379, 178.409 52.766, 176.094 54.091 L 171.883 56.500 171.651 66.250 C 171.516 71.922, 171.818 76, 172.372 76 C 172.896 76, 175.376 74.798, 177.883 73.329 C 180.390 71.859, 183.761 70.387, 185.375 70.057 C 186.989 69.727, 188.801 68.567, 189.402 67.479 C 192.715 61.481, 195.195 59, 197.877 59 C 203.482 59, 207.633 66.858, 204.530 71.595 C 203.004 73.923, 202.317 74.143, 197.513 73.838 C 194.583 73.652, 192.357 73.775, 192.566 74.111 C 192.775 74.447, 195.996 74.969, 199.723 75.270 C 205.850 75.766, 206.903 75.563, 210.701 73.159 C 213.012 71.697, 215.136 69.937, 215.421 69.248 C 215.706 68.559, 215.286 61.584, 214.489 53.748 C 213.692 45.912, 213.031 38.938, 213.020 38.250 C 213.009 37.563, 212.648 37, 212.218 37 C 211.788 37, 204.431 40.304, 195.870 44.341 M 180.541 80.537 L 176.730 82.837 181.615 83.594 C 189.787 84.861, 193.105 84.577, 194.638 82.480 C 196.279 80.236, 195.310 79.656, 188.426 78.765 C 185.298 78.360, 183.465 78.772, 180.541 80.537 M 163.321 90.502 C 157.795 95.899, 151.982 98.946, 147.154 98.978 C 144.722 98.994, 125.737 108.468, 77.654 133.660 C 41.269 152.724, 10.662 168.889, 9.639 169.583 C 7.984 170.704, 8.316 170.925, 12.639 171.578 C 21.214 172.872, 29.912 170.643, 42.840 163.838 C 79.371 144.608, 180.775 90.548, 182.300 89.490 C 183.927 88.362, 183.782 88.186, 180.800 87.671 C 168.036 85.466, 168.566 85.380, 163.321 90.502" fill="none" stroke="#000" stroke-width="2px" fill-rule="evenodd"/>
</svg>
