<svg xmlns="http://www.w3.org/2000/svg" width="500" height="425" viewBox="0 0 500 425" version="1.1">
	<path d="M 34.435 2.598 C 34.911 4.493, 34.441 6.050, 32.699 8.348 C 29.616 12.417, 29.069 14.107, 30.150 16.212 C 30.634 17.154, 36.311 22.136, 42.765 27.283 C 55.303 37.282, 86.633 64.645, 99 76.397 C 103.125 80.317, 119.008 95.161, 134.295 109.384 C 149.582 123.607, 161.857 135.477, 161.572 135.761 C 161.288 136.046, 154.855 135.096, 147.277 133.651 C 132.549 130.843, 101.781 125.328, 96 124.460 C 94.075 124.171, 90.359 123.413, 87.741 122.776 C 84.089 121.887, 82.706 121.894, 81.791 122.809 C 81.136 123.464, 79.579 124, 78.331 124 C 75.737 124, 76.012 122.354, 79.382 117.735 C 81.224 115.208, 81.261 114.833, 79.810 113.381 C 78.358 111.930, 77.672 112.223, 71.861 116.775 L 65.500 121.758 57.280 121.461 C 50.306 121.209, 48.678 121.466, 46.530 123.155 C 45.139 124.249, 44 125.958, 44 126.952 C 44 129.467, 35.756 136, 32.582 136 C 29.309 136, 29.344 135.511, 32.910 131.450 C 35.513 128.485, 35.729 127.733, 34.961 124.318 C 33.851 119.380, 26.771 112.554, 21.206 111.056 C 15.028 109.392, 10.192 110.916, 4.692 116.261 C 0.625 120.214, 0 121.361, 0 124.873 C -0 133.764, 7.603 147.838, 14.479 151.678 C 18.048 153.671, 18.428 154.253, 18.164 157.314 C 17.742 162.214, 19.952 164, 26.437 164 C 31.975 164, 37 161.358, 37 158.446 C 37 157.672, 38.202 156.736, 39.671 156.368 C 41.801 155.833, 42.807 156.237, 44.632 158.358 C 48.904 163.325, 54.204 163.804, 58.802 159.639 C 60.435 158.160, 61.016 156.674, 60.802 154.527 C 60.461 151.112, 59.808 151.210, 73.771 152.566 C 82.461 153.409, 85 151.974, 85 146.216 L 85 142.742 90.209 143.433 C 93.074 143.813, 109.531 147.658, 126.780 151.976 C 168.098 162.321, 169.089 162.973, 168.899 179.699 C 168.639 202.576, 169.458 215.414, 171.428 219.386 C 174.511 225.598, 183.746 234.843, 190.045 238.023 C 199.515 242.803, 216.758 247.126, 233.891 249.016 C 241.849 249.893, 244.141 250.581, 248.911 253.526 C 252.007 255.437, 255.084 257, 255.749 257 C 256.415 257, 257.848 255.258, 258.934 253.128 C 261.124 248.836, 263.023 248.006, 270.500 248.071 C 280.326 248.158, 282.237 249.017, 291.126 257.344 C 309.094 274.176, 320 285.209, 320 286.555 C 320 287.329, 321.081 288.233, 322.402 288.565 C 323.759 288.905, 341.487 305.887, 363.136 327.584 C 384.218 348.713, 401.968 366, 402.581 366 C 403.195 366, 416.815 379.275, 432.848 395.500 C 448.882 411.725, 462.642 425, 463.428 425 C 464.818 425, 469 420.481, 469 418.978 C 469 418.565, 464.878 413.871, 459.840 408.548 L 450.680 398.869 457.980 391.520 C 462.465 387.005, 465.069 383.623, 464.734 382.749 C 464.044 380.951, 445.716 364.091, 422.469 343.870 C 412.586 335.273, 403.600 327.235, 402.500 326.007 L 400.500 323.774 415 324.473 C 423.833 324.898, 431.964 324.765, 435.805 324.132 C 440.433 323.370, 442.790 323.403, 444.665 324.257 C 446.760 325.212, 447.425 325.140, 448.363 323.857 C 448.992 322.996, 451.530 321.272, 454.003 320.026 C 456.477 318.779, 460.376 316.238, 462.668 314.379 C 464.961 312.521, 467.479 311, 468.263 311 C 469.872 311, 472.381 308.388, 473.324 305.730 C 473.670 304.757, 475.671 301.382, 477.772 298.230 C 481.104 293.232, 486.415 282.426, 488.411 276.583 C 488.910 275.122, 489.343 274.943, 490.233 275.833 C 492.187 277.787, 493.933 277.158, 496.011 273.750 C 498.422 269.796, 498.578 264.721, 496.357 262.500 C 494.953 261.096, 494.872 260.105, 495.796 255.679 C 496.391 252.830, 497.646 246.823, 498.585 242.328 C 501.070 230.428, 500.199 219.160, 496.120 210.443 C 487.671 192.389, 461.685 178.051, 428.250 172.998 C 424.538 172.437, 415.550 171.568, 408.279 171.067 C 396.864 170.281, 394.389 169.792, 390.161 167.491 C 384.313 164.308, 380.823 164.471, 380.004 167.966 C 378.976 172.352, 373.661 174.500, 363.836 174.500 C 355.917 174.500, 351.558 173.418, 354.811 172.259 C 357.449 171.320, 352.929 168, 349.012 168 C 345.217 168, 342.675 167.605, 322.795 163.925 C 314.573 162.403, 310.580 161.194, 309.375 159.862 C 307.742 158.057, 307.788 157.831, 310.327 155.180 C 313.486 151.883, 312.452 150, 307.482 150 C 302.745 150, 294.927 147.387, 285.242 142.567 C 267.902 133.937, 252.184 130.524, 233.174 131.258 C 222.395 131.674, 219.196 132.204, 211.777 134.801 C 206.980 136.481, 201.741 138.631, 200.135 139.579 L 197.215 141.304 178.858 124.910 C 144.294 94.042, 110.501 63.763, 101.500 55.596 C 92.378 47.318, 59.054 17.490, 51.578 10.911 C 39.489 0.272, 33.070 -2.841, 34.435 2.598 M 43.127 14.023 C 37.790 17.889, 38.151 18.604, 50.240 28.117 C 73.195 46.181, 102.716 71.519, 137.936 103.388 C 151.376 115.550, 165.668 128.477, 169.697 132.115 C 176.764 138.497, 177.288 138.772, 184.592 139.950 C 188.755 140.622, 192.369 140.964, 192.623 140.710 C 192.877 140.456, 191.603 139.012, 189.792 137.501 C 187.982 135.990, 181.550 130.156, 175.500 124.538 C 169.450 118.920, 160.225 110.491, 155 105.807 C 149.775 101.124, 138.045 90.589, 128.933 82.396 C 119.821 74.203, 106.572 62.325, 99.492 56 C 92.411 49.675, 78.266 36.968, 68.059 27.762 C 57.851 18.556, 49.005 11.019, 48.400 11.012 C 47.795 11.006, 45.422 12.360, 43.127 14.023 M 318 165.343 C 321.465 167.343, 341.167 171.198, 345.741 170.771 C 347.815 170.577, 348.828 170.157, 348 169.835 C 346.749 169.347, 329.760 166.209, 318.500 164.386 L 315.500 163.900 318 165.343 M 383 331.902 C 406.051 354.655, 415.121 362.995, 416.817 362.997 C 418.091 362.999, 420.608 364.125, 422.411 365.500 C 424.214 366.875, 426.397 368, 427.263 368 C 433.364 368, 433.706 363.152, 427.952 358.227 C 424.810 355.537, 423.971 354.165, 424.202 352.096 C 424.459 349.793, 422.459 347.571, 409.519 335.783 C 394.756 322.335, 394.392 322.082, 384.519 318.427 C 374.025 314.542, 367.505 311.234, 357.500 304.718 C 352.821 301.671, 358.433 307.654, 383 331.902" fill="none" stroke="#000" stroke-width="2px" fill-rule="evenodd"/>
</svg>
