<svg xmlns="http://www.w3.org/2000/svg" width="500" height="225" viewBox="0 0 500 225" version="1.1">
	<path d="M 408.182 5.136 C 405.943 5.782, 404.464 7.044, 403.633 9.021 L 402.402 11.950 400.667 9.014 C 398.484 5.318, 394.188 4.401, 385.901 5.861 C 378.734 7.123, 377.005 8.289, 376.985 11.872 C 376.971 14.442, 376.896 14.412, 373.583 10.500 C 370.310 6.636, 369.996 6.504, 364.304 6.604 C 356.858 6.736, 351.279 8.544, 350.472 11.087 C 349.878 12.960, 349.704 12.929, 346.701 10.402 C 343.816 7.975, 343.033 7.801, 337.351 8.332 C 328.787 9.131, 324 11.247, 324 14.232 C 324 15.515, 325.605 19.588, 327.567 23.283 C 329.529 26.977, 330.919 30, 330.657 30 C 330.395 30, 328.389 26.735, 326.199 22.745 C 319.646 10.805, 319.357 10.569, 311.371 10.657 C 307.523 10.700, 302.850 11.429, 300.750 12.316 C 295.889 14.367, 295.857 16.779, 300.564 26.127 C 306.184 37.287, 303.801 35.290, 297.516 23.573 L 291.845 13 284.172 13.076 C 274.859 13.168, 269.625 14.822, 269.183 17.811 C 269.009 18.989, 270.472 23.508, 272.433 27.853 C 278.106 40.415, 276.470 39.633, 269.880 26.631 L 263.864 14.762 255.182 15.228 C 245.183 15.764, 241 17.314, 241 20.484 C 241 21.674, 242.575 26.282, 244.500 30.724 C 247.862 38.482, 248.962 42.497, 247.166 40.450 C 246.708 39.928, 244.173 34.431, 241.533 28.236 C 236.109 15.508, 235.853 15.312, 225.910 16.352 C 218.043 17.174, 213 19.334, 213 21.881 C 213 23.507, 216.024 32.496, 219.516 41.250 C 219.975 42.401, 219.749 42.998, 218.857 42.995 C 218.056 42.992, 215.606 38.179, 212.874 31.245 L 208.249 19.500 202.051 19.200 C 198.462 19.027, 193.569 19.565, 190.427 20.478 C 183.788 22.408, 183.677 23.163, 188.038 36.776 C 189.708 41.991, 190.822 46.511, 190.514 46.820 C 189.220 48.114, 187.020 43.835, 183.536 33.248 C 179.335 20.481, 179.098 20.285, 169.154 21.329 C 161.937 22.087, 157.206 23.747, 156.037 25.930 C 155.401 27.119, 156.020 30.717, 158.041 37.575 C 161.356 48.825, 161.513 50, 159.707 50 C 158.916 50, 156.910 44.954, 154.531 36.975 C 150.055 21.966, 150.086 21.993, 139.079 23.746 C 129.749 25.232, 126.996 26.482, 127.018 29.225 C 127.028 30.476, 128.132 36.208, 129.472 41.962 C 130.812 47.717, 131.724 52.610, 131.497 52.836 C 129.960 54.373, 128.174 50.921, 126.086 42.377 C 124.759 36.945, 123.094 31.037, 122.387 29.250 C 121.141 26.098, 120.924 26, 115.233 26 C 108.716 26, 99.147 28.452, 98.437 30.304 C 98.185 30.962, 98.883 36.424, 99.989 42.443 C 102.472 55.954, 102.499 57.243, 100.293 56.818 C 98.958 56.561, 98.020 53.653, 95.982 43.454 C 94.549 36.284, 93.003 29.814, 92.547 29.075 C 91.431 27.270, 79.041 28.194, 73.250 30.514 C 68.306 32.495, 68.390 31.966, 70.601 47.085 C 71.481 53.107, 71.945 58.701, 71.632 59.517 C 70.548 62.341, 67.110 61.198, 65.564 57.500 C 64.760 55.575, 63.517 54.002, 62.801 54.005 C 61.087 54.010, 31.452 57.600, 17.500 59.492 C 11.450 60.312, 5.938 60.987, 5.250 60.992 C 3.540 61.003, 3.608 73.235, 5.490 104.500 C 8.388 152.634, 8.850 157.809, 10.538 161.074 C 12.308 164.497, 11.412 164.439, 23.742 161.924 C 27.175 161.223, 30.232 160.898, 30.535 161.202 C 30.839 161.505, 33.050 168.671, 35.450 177.127 C 37.850 185.582, 41.028 196.325, 42.512 201 C 43.996 205.675, 46.134 212.537, 47.262 216.250 C 48.391 219.963, 49.733 223, 50.246 223 C 51.313 223, 97.194 210.997, 97.982 210.512 C 98.267 210.337, 109.300 207.414, 122.500 204.017 C 135.700 200.620, 163.600 193.373, 184.500 187.912 C 225.279 177.257, 229.026 176.286, 277 163.945 C 294.325 159.488, 330.500 150.007, 357.390 142.876 C 413.427 128.015, 418.991 126.714, 419.496 128.357 C 419.690 128.986, 420.367 131.188, 421.002 133.250 C 421.636 135.312, 422.749 137, 423.475 137 C 424.200 137, 432.488 134.975, 441.891 132.500 C 451.294 130.025, 459.236 128, 459.539 128 C 459.842 128, 459.816 126.537, 459.481 124.748 C 459.002 122.194, 461.001 115.485, 468.791 93.498 L 478.712 65.500 484.606 64.101 C 487.848 63.332, 492.160 62.309, 494.190 61.829 C 498.988 60.693, 499.790 58.166, 496.800 53.598 C 495.535 51.666, 487.805 41.031, 479.622 29.966 C 467.030 12.940, 464.417 9.924, 462.622 10.348 C 461.455 10.623, 454.547 11.403, 447.270 12.080 C 434.139 13.304, 434.045 13.331, 434.629 15.657 C 434.952 16.945, 435.016 18, 434.772 18 C 434.527 18, 432.155 14.850, 429.500 11 L 424.674 4 418.087 4.090 C 414.464 4.140, 410.007 4.611, 408.182 5.136 M 432.015 207.750 C 432.007 208.988, 432.450 210, 433 210 C 434.253 210, 434.253 208.939, 433 207 C 432.216 205.787, 432.028 205.931, 432.015 207.750" fill="none" stroke="#000" stroke-width="2px" fill-rule="evenodd"/>
</svg>
