<?xml version="1.0" encoding="utf-8"?><!DOCTYPE svg PUBLIC "-//W3C//DTD SVG 1.1//EN" "http://www.w3.org/Graphics/SVG/1.1/DTD/svg11.dtd"><svg version="1.1" xmlns="http://www.w3.org/2000/svg" xmlns:xlink="http://www.w3.org/1999/xlink" x="0px" y="0px" width="150px" height="150px" viewBox="0 0 150 150" enable-background="new 0 0 150 150" xml:space="preserve"><g id="Слой_2"><g><path fill="#FFFFFF" stroke="#3F7FC1" stroke-miterlimit="10" d="M73,59.066C73,66.762,66.732,73,59,73H17C9.268,73,3,66.762,3,59.066V17.265C3,9.569,9.268,3.331,17,3.331h42c7.732,0,14,6.238,14,13.934V59.066z"/><g><path fill="#3F7FC2" stroke="#3F7FC1" stroke-miterlimit="10" d="M34.954,49.038l-0.14-1.812c-0.42-3.762,0.84-7.873,4.34-12.053c3.15-3.693,4.901-6.41,4.901-9.545c0-3.553-2.24-5.922-6.651-5.992c-2.52,0-5.321,0.836-7.071,2.16l-1.68-4.389c2.31-1.672,6.301-2.787,10.011-2.787c8.051,0,11.691,4.947,11.691,10.242c0,4.738-2.66,8.152-6.021,12.123c-3.08,3.623-4.2,6.688-3.99,10.242l0.07,1.812H34.954z M33.414,58.792c0-2.578,1.75-4.389,4.2-4.389s4.13,1.811,4.13,4.389c0,2.438-1.61,4.32-4.2,4.32C35.094,63.112,33.414,61.23,33.414,58.792z"/></g></g></g><g id="Слой_2__x28_копия_x29_"><g><path fill="#FFFFFF" stroke="#3F7FC1" stroke-miterlimit="10" d="M146.796,132.735c0,7.695-6.268,13.934-14,13.934h-42c-7.732,0-14-6.238-14-13.934V90.934c0-7.695,6.268-13.934,14-13.934h42c7.732,0,14,6.238,14,13.934V132.735z"/><g><path fill="#3F7FC2" stroke="#3F7FC1" stroke-miterlimit="10" d="M108.751,122.707l-0.141-1.812c-0.42-3.762,0.841-7.873,4.341-12.053c3.15-3.693,4.9-6.41,4.9-9.545c0-3.554-2.24-5.923-6.65-5.992c-2.521,0-5.321,0.836-7.071,2.16l-1.68-4.39c2.31-1.672,6.301-2.787,10.011-2.787c8.051,0,11.691,4.947,11.691,10.242c0,4.737-2.66,8.151-6.021,12.123c-3.08,3.622-4.2,6.688-3.99,10.241l0.069,1.812H108.751z M107.211,132.461c0-2.578,1.75-4.389,4.2-4.389s4.13,1.811,4.13,4.389c0,2.438-1.609,4.32-4.2,4.32C108.891,136.781,107.211,134.899,107.211,132.461z"/></g></g></g><g id="Слой_2__x28_копия2_x29_"><g><path fill="#FFFFFF" stroke="#3F7FC1" stroke-miterlimit="10" d="M147.087,59.066c0,7.695-6.268,13.934-14,13.934h-42c-7.732,0-14-6.238-14-13.934V17.265c0-7.695,6.268-13.934,14-13.934h42c7.732,0,14,6.238,14,13.934V59.066z"/><g><path fill="#FFFBEB" d="M122.571,28.885c-0.229-1.934-0.792-3.679-1.411-5.512c-1.093-3.242-2.747-7.016-4.765-9.297c-0.453-0.698-0.956-1.227-1.474-1.882c-1.051-1.329-2.417-2.622-4.181-2.769c-0.026-0.002-0.051,0.001-0.077,0c-0.992-0.453-2.066-0.598-3.082-0.118c-0.886,0.419-1.217,1.536-1.129,2.434c0.147,1.491,1.038,2.916,1.598,4.284c1.197,2.929,2.097,6.084,2.747,9.18c0.432,2.057,0.261,4.145,0.613,6.179c-0.144,0.138,0.161,2.579,0.105,2.794c-0.382,1.445-0.087,2.529-0.416,3.114c-0.058,0.262-0.56-0.394-0.527-0.114c0.043,0.37,0.201,0.655,0.417,0.853c-0.767,1.156,0.855,2.681,1.883,1.568c1.125-1.217,2.846-1.99,4.44-2.322c1.559-0.325,3.642-0.439,4.755-1.743c0.022-0.026,0.238-0.085,0.258-0.112c0.389-0.169,0.491-0.498,0.491-1.051C122.815,32.538,122.787,30.708,122.571,28.885z"/><path fill="#FFEC92" d="M129.345,31.806c-1.831-1.23-3.8-1.989-6.022-2.02c-0.385-0.005-0.723,0.401-0.595,0.781c0.442,1.31,0.239,2.821-0.041,4.129c-0.075,0.351-0.025,0.507,0.235,0.614c-0.369,0.01-0.736,0.038-1.088,0.07c-1.62,0.147-3.224,0.399-4.847,0.54c-1.097,0.095-2.123,0.311-3.105,0.685c-0.72,0.092-1.407,0.452-1.932,1.006c-0.472,0.498-0.578,1.896,0.03,1.51c0.396-0.252,1.511-0.998,1.912-1.171c0.445,0.744,1.002,1.415,1.511,2.116c0.724,0.998,1.286,2.753,1.34,3.982c0.1,2.3,0.546,4.357,0.365,6.826c-0.131,1.79,0.032,3.436-0.365,5.175c-0.295,1.294-1.013,2.877-0.658,4.196c0.253,0.939,0.89,1.108,1.73,0.847c0.979-0.304,1.935-1.162,2.591-1.908c1.291-1.468,2.396-3.019,3.364-4.736c0.483,0.107,0.989-0.56,0.578-1.05c0.181-0.336,0.358-0.672,0.533-1.008c0.847-1.625,1.456-3.251,1.978-5.009c0.083-0.278,0.164-0.56,0.243-0.844c0.006-0.019,0.012-0.039,0.017-0.059c0.677-2.432,1.183-5.064,0.659-7.539c-0.248-1.172-0.55-2.072-1.511-2.783c-0.725-0.536-1.933-0.822-2.826-0.848c0.134-0.066-0.307-0.044-0.264-0.241c0.038-0.179,0.626-0.508,0.665-0.69c0.147-0.004,0.291-0.05,0.403-0.153c1.357-1.24,2.813-1.752,4.626-1.293C129.567,33.11,129.918,32.192,129.345,31.806z"/><path fill="#ECCC00" d="M117.129,48.115c-0.084-1.568-0.166-3.575-0.602-5.082c-0.336-1.159-0.55-2.403-1.309-3.361c-0.348-0.439-0.822-0.843-1.335-0.55c-0.793,0.454-0.856,1.863-0.944,2.648c-0.176,1.57-0.745,3.015-1.476,4.415c-0.804,1.54-1.662,3.067-2.597,4.532c-0.92,1.442-1.935,2.852-3.07,4.131c-1.225,1.381-2.688,2.539-4.106,3.711c-1.142,0.943-2.199,1.942-3.263,2.97c-0.582,0.563-1.254,1.237-2.004,1.72c-0.261,0.133-0.522,0.267-0.779,0.408c-0.282,0.112-0.572,0.19-0.872,0.217c-0.077,0.007-0.138,0.036-0.185,0.078c-0.284-0.249-0.7,0.175-0.421,0.449c0.156,0.153,0.291,0.32,0.414,0.495c0.013,0.028,0.026,0.056,0.045,0.082c0.027,0.037,0.055,0.074,0.082,0.111c0.314,0.49,0.56,1.027,0.898,1.505c0.475,0.67,1.665,0.283,2.456,0.396c1.857,0.265,2.929,0.455,4.73-0.016c2.018-0.527,5.109-1.753,6.642-3.166c1.777-1.639,3.122-2.21,4.649-4.073c0.854-1.041,1.749-1.449,2.479-2.59c0.233-0.036,0.252-1.962,0.342-2.188c0.161-0.407-0.069-0.736,0.007-1.174C117.173,52.075,117.236,50.13,117.129,48.115z"/><path fill="#ECCC00" d="M131.762,35.63c-0.133-1.952-2.826-4.339-4.723-3.073c-0.049,0.032-0.082,0.072-0.105,0.115c-0.137-0.032-0.276-0.054-0.417-0.06c-0.398-0.016-0.321,0.382,0.076,0.398c1.409,0.056,2.575,2.261,2.313,3.701c-0.092,0.069-0.315,0.235-0.289,0.373c0.003,0.017-0.024,0.241-0.021,0.258c-0.164,0.377-0.221,0.549-0.708,0.702c-0.27,0.084-0.28,0.438-0.079,0.562c0.229,1.031,0.608,2.26,0.185,3.258c-0.116,0.274,0.128,0.58,0.422,0.422C130.607,41.105,131.926,38.044,131.762,35.63z"/><path fill="#F7DF2A" d="M113.908,38.303c-0.236-0.578-1.43-0.773-2.029,0.484c-0.28,0.587-0.418-0.275-0.51,0.31c-0.599-2.44-0.837-4.817-2.465-6.808c-0.004-0.13-0.047-0.264-0.148-0.386c-0.687-0.84-2.255-1.579-3.464-1.38c-1.589-0.263-3.584,0.049-4.764,1.089c-0.1,0.088-0.603,0.152-0.629,0.251c-3,1.27-5.047,3.623-5.359,6.96c-0.004,0.043-0.003,0.084,0.002,0.122c-0.467,0.958-0.423,1.947-0.215,3.157c0.054,0.311,0.025,0.522,0.262,0.523c0.028,0.003,0.054,0.008,0.084,0.008c0.356,0,0.379-0.237,0.416-0.51c0.018-0.08,0.195-0.177,0.179-0.271c-0.048-0.278-0.064-0.547-0.053-0.807c0.163-0.055,0.298-0.185,0.344-0.414c0.131-0.656,0.517-1.249,0.74-1.873c0.538-0.636,0.64-1.296,1.304-1.856c0.259-0.218,0.562-0.563,0.42-0.776c1.249-0.86,2.492-1.728,3.978-2.13c0.119-0.032,0.211-0.085,0.281-0.15c1.145-0.202,2.278-0.218,3.401,0.115c1.917,1.145,3.211,2.862,3.616,5.133c0.497,2.785-1.314,5.275-2.153,7.79c-0.015,0.045-0.024,0.089-0.03,0.131c-2.425,3.406-5.432,6.339-8.367,9.322c-1.23,1.25-2.554,2.774-3.55,4.324c-0.452,0.703-1.782,2.357-1.541,2.378c0.057,0.005,0.053,0.095,0.084,0.133c-0.146,0.37,0.034,0.871,0.545,0.85c0.198-0.008,0.392-0.032,0.583-0.068c0.057-0.007,0.114-0.02,0.171-0.036c1.846-0.427,3.399-2.05,4.709-3.289c2.091-1.977,4.395-3.684,6.258-5.9c1.844-2.193,3.84-4.37,5.073-6.983c0.646-1.37,1.044-2.87,1.489-4.313c0.238-0.772,0.466-1.559,0.777-2.304c0.211-0.504,0.411-1.271,0.9-1.582C114.831,39.177,114.468,38.227,113.908,38.303z"/><path fill="#926037" d="M130.988,33.33c-0.116-0.138-0.238-0.259-0.364-0.371c0.007-0.049-0.006-0.102-0.053-0.148c-2.051-2.027-4.658-3.787-7.651-3.033c-0.33-2.249-0.988-4.477-1.661-6.566c-1.192-3.699-2.886-7.326-5.407-10.314c-1.797-2.131-5.431-5.328-8.459-3.81c-1.263,0.633-1.369,2.143-1.109,3.363c0.225,1.056,0.753,2.092,1.183,3.079c0.555,1.277,1.145,2.537,1.656,3.833c1.207,3.064,1.776,6.53,2,9.801c0.078,1.14,0.092,2.291,0.12,3.433c0.023,0.97,0.163,3.408-0.088,4.546c-0.171-1.536-1.19-4.029-2.124-5.107c-1.802-2.079-4.575-2.106-7.023-1.332c-2.855,0.903-5.926,2.935-7.088,5.804c-0.454,1.12-0.695,2.307-0.81,3.508c-0.091,0.946-0.161,2.36,0.658,3.038c0.182,0.151,0.446-0.109,0.262-0.262c-0.011-0.009-0.02-0.02-0.031-0.03c0.682-2.218,1.479-4.402,3.061-6.15c1.314-1.453,3.135-2.458,5.095-2.644c1.947-0.185,3.726,0.702,4.833,2.291c1.125,1.615,1.323,3.623,0.94,5.51c-0.773,3.813-3.57,7.115-6.097,9.928c-1.336,1.487-2.738,2.904-4.16,4.307c-0.756,0.746-1.497,1.516-2.144,2.36c-0.713,0.931-1.304,1.948-1.982,2.905c-0.445,0.629-0.95,1.202-1.532,1.707c-0.072,0.062-0.073,0.14-0.038,0.203c-0.014,0.054-0.006,0.115,0.038,0.169c0.913,1.128,1.927,2.176,2.604,3.473c0.024,0.046,0.058,0.072,0.096,0.085c0.016,0.051,0.055,0.094,0.125,0.11c4.032,0.92,8.096,0.696,12.201-1.902c2.165-1.37,3.681-2.518,5.18-4.029c1.468-1.48,1.86-1.86,2.944-3.099c-0.039,0.302-0.257,1.051-0.31,1.35c-0.034,0.193-0.179,0.674,0.106,1.225c0.772,1.494,2.425,0.574,3.345-0.222c3.135-2.712,5.634-6.408,7-10.313c0.8-2.287,1.473-4.656,1.78-7.064c0.008-0.066,0.016-0.135,0.024-0.202c0.004-0.002,0.008-0.002,0.012-0.004C131.124,41.297,133.407,36.204,130.988,33.33z M122.971,30.147c2.495-0.648,4.7,0.567,6.52,2.163c-2.226-0.719-5.135,1.004-6.543,2.686C123.214,33.401,123.182,31.77,122.971,30.147z M126.162,33.127c2.326,0.181,3.35,3.195,1.645,4.728c-0.183-0.482-0.431-0.937-0.766-1.348c-0.625-0.768-1.604-1.19-2.572-1.295c-0.391-0.042-0.784-0.057-1.177-0.051c0.671-0.77,1.671-1.563,2.761-2.081C126.082,33.105,126.116,33.124,126.162,33.127z M111.474,36.666c0.102-0.765,0.16-3.609,0.113-4.933c-0.074-2.117-0.19-4.204-0.537-6.297c-0.415-2.498-1.04-4.948-2.024-7.283c-0.437-1.036-0.911-2.055-1.359-3.086c-0.515-1.185-1.137-2.453-1.148-3.769c-0.019-2.154,2.277-2.448,3.89-1.965c1.97,0.589,3.685,2.142,5.022,3.643c2.778,3.119,4.47,7.128,5.704,11.068c1.101,3.515,2.104,7.454,1.406,11.149c-1.632,0.114-3.269,0.497-4.87,0.674c-2.082,0.229-5.48-0.122-6.265,2.507c-0.035-0.17-0.068-0.421-0.114-0.694C111.349,37.463,111.429,37.007,111.474,36.666z M112.975,60.797c-1.323,1.341-3.077,2.568-4.406,3.542c-3.336,2.447-8.152,3.265-12.33,2.385c0-0.009,0.002-0.017,0.001-0.026c-0.08-1.629-1.575-2.468-2.365-3.737c-0.045-0.072-0.104-0.113-0.168-0.132c1.446-1.451,2.343-3.359,3.667-4.918c1.418-1.669,3.088-3.125,4.586-4.722c2.531-2.699,5.053-5.585,6.562-9.002c1.337-3.029,1.437-6.685-1.081-9.145c-2.306-2.253-6.035-1.643-8.392,0.179c-2.352,1.819-3.465,4.446-4.329,7.196c-0.421-0.727-0.292-1.846-0.219-2.6c0.111-1.156,0.383-2.324,0.857-3.386c1.229-2.755,4.223-4.571,6.994-5.447c2.364-0.748,4.844-0.503,6.529,1.442c1.547,1.785,2.05,4.382,2.288,6.658c0.014,0.133,0.138,0.189,0.24,0.171c0.078,0.019,0.17-0.009,0.214-0.083c0.068,0.115,0.288,0.13,0.349-0.039c0.184-0.508,0.507-1.336,1.191-1.211c0.558,0.102,1.01,0.714,1.325,1.136c0.736,0.985,1.296,2.155,1.687,3.317c0.254,0.755,0.32,1.576,0.422,2.36c0.172,1.328,0.261,2.666,0.302,4.004c0.063,2.037-0.068,6.349-0.58,8.648C114.923,58.893,114.613,59.136,112.975,60.797z M126.613,47.872c-1.092,3.685-2.812,7.009-5.336,9.932c-0.606,0.701-1.259,1.361-1.937,1.992c-0.608,0.566-1.293,1.192-2.173,1.212c-1.833,0.041-0.598-3.409-0.412-4.292c0.397-1.882,0.469-3.888,0.519-5.804c0.056-2.165-0.069-4.333-0.347-6.48c-0.27-2.085-0.935-3.974-2.207-5.676c-0.41-0.548-0.959-1.16-1.685-1.219c-0.741-0.061-1.15,0.784-1.376,1.379c0.162-1.893,2.045-2.353,3.686-2.516c0.879-0.088,1.762-0.101,2.641-0.197c1.367-0.15,2.717-0.423,4.084-0.573c0.133-0.015,0.267-0.028,0.402-0.04c0.111-0.008,0.138-0.014,0.232-0.024c0.022-0.002,0.095,0,0.141-0.006c1.311-0.089,2.675,0.014,3.682,0.941c0.892,0.82,1.195,2.108,1.304,3.267C128.086,42.479,127.378,45.29,126.613,47.872z M128.158,42.317c0.138-1.337,0.168-2.792-0.224-4.086c0.001-0.001,0.003-0.002,0.004-0.003c2.031-1.607,1.034-4.832-1.299-5.396c1.356-0.499,2.784-0.513,3.855,0.499c1.334,1.26,1.214,3.451,0.725,5.049C130.728,39.985,129.644,41.505,128.158,42.317z"/><path fill="#926037" d="M107.383,53.105c-2.888,3.626-6.567,6.466-10.092,9.434c-0.183,0.154,0.08,0.414,0.262,0.262c3.525-2.968,7.204-5.807,10.092-9.434C107.792,53.182,107.532,52.918,107.383,53.105z"/><path fill="#926037" d="M113.497,41.734c-1.599,3.539-2.934,7.204-5.156,10.421c-0.136,0.197,0.185,0.382,0.32,0.187c2.221-3.216,3.556-6.882,5.156-10.421C113.914,41.705,113.595,41.517,113.497,41.734z"/></g></g></g><g id="Слой_2__x28_копия3_x29_"><g><path fill="#FFFFFF" stroke="#3F7FC1" stroke-miterlimit="10" d="M73,132.735c0,7.695-6.268,13.934-14,13.934H17c-7.732,0-14-6.238-14-13.934V90.934C3,83.238,9.268,77,17,77h42c7.732,0,14,6.238,14,13.934V132.735z"/><g><path fill="#FFFBEB" d="M48.484,102.554c-0.229-1.934-0.792-3.679-1.411-5.512c-1.093-3.242-2.747-7.016-4.765-9.297c-0.453-0.698-0.956-1.227-1.474-1.882c-1.051-1.329-2.417-2.622-4.181-2.769c-0.026-0.002-0.051,0.001-0.077,0c-0.992-0.453-2.066-0.598-3.082-0.118c-0.886,0.419-1.217,1.536-1.129,2.434c0.147,1.491,1.038,2.916,1.598,4.284c1.197,2.929,2.097,6.084,2.747,9.18c0.432,2.057,0.261,4.145,0.613,6.179c-0.144,0.138,0.161,2.579,0.105,2.794c-0.382,1.445-0.087,2.529-0.416,3.114c-0.058,0.262-0.56-0.395-0.527-0.114c0.043,0.37,0.201,0.655,0.417,0.853c-0.767,1.156,0.855,2.681,1.883,1.568c1.125-1.217,2.846-1.99,4.44-2.322c1.559-0.325,3.642-0.439,4.755-1.743c0.022-0.026,0.238-0.085,0.258-0.112c0.389-0.169,0.491-0.498,0.491-1.051C48.728,106.207,48.7,104.377,48.484,102.554z"/><path fill="#FFEC92" d="M55.258,105.475c-1.831-1.23-3.8-1.989-6.022-2.02c-0.385-0.005-0.723,0.401-0.595,0.781c0.442,1.31,0.239,2.821-0.041,4.13c-0.075,0.351-0.025,0.507,0.235,0.614c-0.369,0.01-0.736,0.038-1.088,0.07c-1.62,0.147-3.224,0.399-4.847,0.54c-1.097,0.095-2.123,0.311-3.105,0.685c-0.72,0.092-1.407,0.452-1.932,1.006c-0.472,0.498-0.578,1.896,0.03,1.51c0.396-0.252,1.511-0.998,1.912-1.171c0.445,0.744,1.002,1.415,1.511,2.116c0.724,0.998,1.286,2.753,1.34,3.982c0.1,2.3,0.546,4.357,0.365,6.826c-0.131,1.79,0.032,3.436-0.365,5.175c-0.295,1.294-1.013,2.877-0.658,4.196c0.253,0.939,0.89,1.108,1.73,0.847c0.979-0.304,1.935-1.162,2.591-1.908c1.291-1.468,2.396-3.019,3.364-4.736c0.483,0.107,0.989-0.56,0.578-1.05c0.181-0.336,0.358-0.672,0.533-1.008c0.847-1.625,1.456-3.251,1.978-5.009c0.083-0.278,0.164-0.56,0.243-0.844c0.006-0.019,0.012-0.039,0.017-0.059c0.677-2.432,1.183-5.064,0.659-7.539c-0.248-1.172-0.55-2.072-1.511-2.783c-0.725-0.536-1.933-0.822-2.826-0.848c0.134-0.066-0.306-0.044-0.264-0.241c0.038-0.179,0.626-0.508,0.665-0.69c0.147-0.004,0.291-0.05,0.403-0.153c1.357-1.24,2.813-1.752,4.626-1.293C55.481,106.78,55.832,105.861,55.258,105.475z"/><path fill="#ECCC00" d="M43.042,121.785c-0.084-1.568-0.166-3.575-0.602-5.082c-0.336-1.159-0.55-2.403-1.309-3.361c-0.348-0.439-0.822-0.843-1.335-0.55c-0.793,0.454-0.856,1.863-0.944,2.648c-0.176,1.57-0.745,3.015-1.476,4.415c-0.804,1.54-1.662,3.067-2.597,4.532c-0.92,1.442-1.935,2.852-3.07,4.131c-1.225,1.381-2.688,2.539-4.106,3.711c-1.142,0.943-2.199,1.942-3.263,2.97c-0.582,0.563-1.254,1.237-2.004,1.72c-0.261,0.133-0.522,0.267-0.778,0.408c-0.282,0.112-0.572,0.19-0.872,0.217c-0.077,0.007-0.138,0.036-0.185,0.078c-0.284-0.249-0.7,0.175-0.42,0.449c0.156,0.153,0.291,0.32,0.414,0.495c0.013,0.028,0.026,0.056,0.045,0.082c0.027,0.037,0.055,0.074,0.082,0.111c0.314,0.49,0.56,1.027,0.898,1.505c0.475,0.67,1.665,0.283,2.456,0.396c1.857,0.265,2.929,0.455,4.73-0.016c2.018-0.527,5.109-1.753,6.642-3.166c1.777-1.639,3.122-2.21,4.649-4.073c0.854-1.041,1.749-1.449,2.48-2.59c0.233-0.036,0.252-1.962,0.342-2.188c0.161-0.407-0.069-0.736,0.007-1.174C43.086,125.744,43.15,123.799,43.042,121.785z"/><path fill="#ECCC00" d="M57.675,109.299c-0.133-1.952-2.826-4.339-4.723-3.073c-0.049,0.032-0.082,0.072-0.105,0.115c-0.137-0.032-0.276-0.054-0.417-0.06c-0.398-0.016-0.321,0.382,0.076,0.398c1.409,0.056,2.575,2.261,2.313,3.701c-0.093,0.069-0.315,0.235-0.289,0.373c0.003,0.017-0.024,0.241-0.021,0.258c-0.164,0.378-0.221,0.549-0.708,0.702c-0.27,0.084-0.28,0.438-0.079,0.562c0.229,1.031,0.608,2.26,0.185,3.258c-0.116,0.274,0.128,0.58,0.422,0.422C56.52,114.775,57.839,111.713,57.675,109.299z"/><path fill="#F7DF2A" d="M39.822,111.972c-0.236-0.578-1.43-0.773-2.029,0.484c-0.28,0.587-0.418-0.275-0.51,0.31c-0.599-2.44-0.837-4.817-2.465-6.808c-0.004-0.13-0.047-0.264-0.148-0.386c-0.687-0.84-2.255-1.579-3.464-1.38c-1.589-0.263-3.584,0.049-4.764,1.089c-0.1,0.088-0.603,0.152-0.629,0.251c-3,1.27-5.047,3.623-5.359,6.96c-0.004,0.043-0.003,0.084,0.002,0.122c-0.467,0.958-0.423,1.947-0.215,3.157c0.054,0.311,0.025,0.522,0.262,0.523c0.028,0.003,0.054,0.008,0.084,0.008c0.356,0,0.379-0.237,0.416-0.51c0.018-0.08,0.195-0.177,0.179-0.271c-0.048-0.278-0.064-0.547-0.053-0.807c0.163-0.055,0.298-0.185,0.344-0.414c0.131-0.656,0.517-1.249,0.74-1.873c0.538-0.636,0.64-1.296,1.304-1.856c0.259-0.218,0.562-0.563,0.42-0.776c1.249-0.86,2.492-1.728,3.978-2.13c0.119-0.032,0.211-0.085,0.281-0.15c1.145-0.202,2.278-0.218,3.401,0.115c1.917,1.145,3.211,2.862,3.616,5.133c0.497,2.785-1.314,5.275-2.153,7.79c-0.015,0.045-0.024,0.089-0.03,0.131c-2.425,3.406-5.432,6.339-8.367,9.322c-1.23,1.25-2.554,2.774-3.55,4.324c-0.452,0.703-1.782,2.357-1.541,2.378c0.057,0.005,0.053,0.095,0.084,0.133c-0.146,0.37,0.034,0.871,0.545,0.85c0.198-0.008,0.392-0.032,0.583-0.068c0.057-0.007,0.114-0.02,0.171-0.036c1.846-0.427,3.399-2.05,4.709-3.289c2.091-1.977,4.395-3.684,6.258-5.9c1.844-2.193,3.84-4.37,5.073-6.983c0.646-1.37,1.044-2.87,1.489-4.313c0.238-0.772,0.466-1.559,0.777-2.304c0.211-0.504,0.411-1.271,0.9-1.582C40.744,112.847,40.382,111.896,39.822,111.972z"/><path fill="#926037" d="M56.901,106.999c-0.116-0.138-0.238-0.259-0.364-0.371c0.007-0.049-0.006-0.102-0.053-0.148c-2.051-2.027-4.658-3.787-7.651-3.033c-0.33-2.249-0.988-4.477-1.661-6.566c-1.192-3.699-2.886-7.326-5.407-10.314c-1.797-2.131-5.431-5.328-8.459-3.81c-1.263,0.633-1.369,2.143-1.109,3.363c0.225,1.056,0.753,2.092,1.183,3.079c0.555,1.277,1.145,2.537,1.656,3.833c1.207,3.064,1.776,6.53,2,9.801c0.078,1.14,0.092,2.291,0.12,3.433c0.023,0.97,0.163,3.408-0.088,4.546c-0.171-1.536-1.19-4.029-2.124-5.107c-1.802-2.079-4.575-2.106-7.023-1.332c-2.855,0.903-5.926,2.935-7.088,5.804c-0.454,1.12-0.695,2.307-0.81,3.508c-0.091,0.946-0.161,2.36,0.658,3.038c0.182,0.151,0.446-0.109,0.262-0.262c-0.011-0.009-0.02-0.02-0.031-0.03c0.682-2.218,1.479-4.402,3.061-6.15c1.314-1.453,3.135-2.458,5.095-2.644c1.947-0.185,3.726,0.702,4.833,2.291c1.125,1.615,1.323,3.623,0.94,5.51c-0.773,3.813-3.57,7.115-6.097,9.928c-1.336,1.487-2.738,2.904-4.16,4.307c-0.756,0.746-1.497,1.516-2.144,2.36c-0.713,0.931-1.304,1.948-1.982,2.905c-0.445,0.629-0.95,1.202-1.532,1.707c-0.072,0.062-0.073,0.14-0.038,0.203c-0.014,0.054-0.006,0.115,0.038,0.169c0.913,1.128,1.927,2.176,2.604,3.473c0.024,0.046,0.058,0.072,0.096,0.085c0.016,0.051,0.055,0.094,0.125,0.11c4.032,0.92,8.096,0.696,12.201-1.902c2.165-1.37,3.681-2.518,5.18-4.029c1.468-1.48,1.86-1.86,2.944-3.099c-0.039,0.302-0.257,1.051-0.31,1.35c-0.034,0.193-0.179,0.674,0.106,1.225c0.772,1.494,2.425,0.574,3.345-0.222c3.135-2.712,5.634-6.408,7-10.313c0.8-2.287,1.473-4.656,1.78-7.064c0.008-0.066,0.016-0.135,0.024-0.202c0.004-0.002,0.008-0.002,0.012-0.004C57.037,114.966,59.321,109.873,56.901,106.999z M48.884,103.816c2.495-0.648,4.7,0.567,6.52,2.163c-2.226-0.719-5.135,1.004-6.543,2.686C49.127,107.07,49.096,105.439,48.884,103.816z M52.076,106.797c2.326,0.181,3.35,3.195,1.645,4.728c-0.183-0.482-0.431-0.937-0.766-1.348c-0.625-0.768-1.604-1.19-2.572-1.295c-0.391-0.042-0.784-0.057-1.177-0.051c0.671-0.77,1.671-1.563,2.761-2.081C51.996,106.774,52.03,106.793,52.076,106.797z M37.388,110.335c0.102-0.765,0.16-3.609,0.113-4.933c-0.074-2.117-0.19-4.204-0.537-6.297c-0.415-2.498-1.04-4.948-2.024-7.283c-0.437-1.036-0.911-2.055-1.359-3.086c-0.515-1.185-1.137-2.453-1.148-3.769c-0.019-2.154,2.277-2.448,3.89-1.965c1.97,0.589,3.685,2.142,5.022,3.643c2.778,3.119,4.47,7.128,5.704,11.068c1.101,3.515,2.104,7.454,1.406,11.149c-1.632,0.114-3.269,0.497-4.87,0.674c-2.082,0.229-5.48-0.122-6.265,2.507c-0.035-0.17-0.068-0.421-0.114-0.694C37.262,111.132,37.342,110.677,37.388,110.335z M38.889,134.466c-1.323,1.341-3.077,2.568-4.406,3.542c-3.336,2.447-8.152,3.265-12.33,2.385c0-0.009,0.002-0.017,0.001-0.026c-0.08-1.629-1.575-2.468-2.365-3.737c-0.045-0.072-0.104-0.113-0.168-0.132c1.446-1.451,2.343-3.359,3.667-4.918c1.418-1.669,3.088-3.125,4.586-4.722c2.531-2.699,5.053-5.585,6.562-9.002c1.337-3.029,1.437-6.685-1.081-9.145c-2.306-2.253-6.035-1.643-8.392,0.179c-2.352,1.819-3.465,4.446-4.329,7.196c-0.421-0.727-0.292-1.846-0.219-2.6c0.111-1.156,0.383-2.324,0.857-3.386c1.228-2.755,4.223-4.571,6.994-5.447c2.364-0.748,4.844-0.503,6.529,1.442c1.547,1.785,2.05,4.382,2.288,6.658c0.014,0.133,0.138,0.189,0.24,0.171c0.078,0.019,0.17-0.009,0.214-0.083c0.068,0.115,0.288,0.13,0.349-0.039c0.184-0.508,0.507-1.336,1.191-1.211c0.558,0.102,1.01,0.714,1.325,1.136c0.736,0.985,1.296,2.155,1.687,3.317c0.254,0.755,0.32,1.576,0.422,2.36c0.172,1.328,0.261,2.666,0.302,4.004c0.063,2.037-0.068,6.349-0.58,8.648C40.837,132.562,40.527,132.806,38.889,134.466z M52.526,121.541c-1.092,3.685-2.812,7.009-5.336,9.932c-0.606,0.701-1.259,1.361-1.937,1.992c-0.608,0.566-1.293,1.192-2.173,1.212c-1.833,0.041-0.598-3.409-0.412-4.292c0.397-1.882,0.469-3.888,0.519-5.804c0.056-2.165-0.069-4.333-0.347-6.48c-0.27-2.085-0.935-3.974-2.207-5.676c-0.41-0.548-0.959-1.16-1.685-1.219c-0.741-0.061-1.15,0.784-1.376,1.379c0.162-1.893,2.045-2.353,3.686-2.516c0.879-0.088,1.762-0.101,2.641-0.197c1.367-0.15,2.717-0.423,4.084-0.573c0.133-0.015,0.267-0.028,0.402-0.04c0.111-0.008,0.138-0.014,0.232-0.024c0.022-0.002,0.095,0,0.141-0.006c1.311-0.089,2.675,0.014,3.682,0.941c0.892,0.82,1.195,2.108,1.304,3.267C54,116.148,53.292,118.96,52.526,121.541z M54.071,115.987c0.138-1.337,0.168-2.792-0.224-4.086c0.001-0.001,0.003-0.002,0.004-0.003c2.031-1.607,1.034-4.832-1.299-5.396c1.356-0.499,2.784-0.513,3.855,0.499c1.334,1.26,1.214,3.451,0.725,5.049C56.642,113.654,55.557,115.174,54.071,115.987z"/><path fill="#926037" d="M33.297,126.774c-2.888,3.626-6.567,6.466-10.092,9.434c-0.183,0.154,0.08,0.414,0.262,0.262c3.525-2.968,7.204-5.807,10.092-9.434C33.706,126.851,33.446,126.587,33.297,126.774z"/><path fill="#926037" d="M39.411,115.403c-1.599,3.539-2.934,7.204-5.156,10.421c-0.136,0.197,0.185,0.382,0.32,0.187c2.221-3.216,3.556-6.882,5.156-10.421C39.828,115.374,39.509,115.186,39.411,115.403z"/></g></g><g></g><g></g><g></g><g></g><g></g><g></g></g></svg>