<?xml version="1.0" encoding="UTF-8" standalone="no"?>
<svg
   xmlns:dc="http://purl.org/dc/elements/1.1/"
   xmlns:cc="http://creativecommons.org/ns#"
   xmlns:rdf="http://www.w3.org/1999/02/22-rdf-syntax-ns#"
   xmlns:svg="http://www.w3.org/2000/svg"
   xmlns="http://www.w3.org/2000/svg"
   xmlns:sodipodi="http://sodipodi.sourceforge.net/DTD/sodipodi-0.dtd"
   xmlns:inkscape="http://www.inkscape.org/namespaces/inkscape"
   inkscape:version="1.0 (4035a4fb49, 2020-05-01)"
   sodipodi:docname="1.svg"
   id="svg650"
   xml:space="preserve"
   enable-background="new 0 0 800 400"
   viewBox="0 0 374.15799 251.06999"
   height="251.06999"
   width="374.15799"
   y="0px"
   x="0px"
   version="1.1"><metadata
   id="metadata656"><rdf:RDF><cc:Work
       rdf:about=""><dc:format>image/svg+xml</dc:format><dc:type
         rdf:resource="http://purl.org/dc/dcmitype/StillImage" /><dc:title></dc:title></cc:Work></rdf:RDF></metadata><defs
   id="defs654">
	
		<radialGradient
   id="SVGID_1_"
   cx="199.1962"
   cy="199.18089"
   r="280.8353"
   gradientTransform="matrix(1.0032,0,0,1.0032,0.1692,0.1845)"
   gradientUnits="userSpaceOnUse">
		<stop
   offset="0"
   style="stop-color:#FFFFFF"
   id="stop2" />
		<stop
   offset="0.3592"
   style="stop-color:#FCFCFC"
   id="stop4" />
		<stop
   offset="0.7277"
   style="stop-color:#F3F3F3"
   id="stop6" />
		<stop
   offset="1"
   style="stop-color:#E9E9E9"
   id="stop8" />
	</radialGradient>
	
	

	
		<radialGradient
   id="SVGID_2_"
   cx="600.38641"
   cy="200.4113"
   r="280.8353"
   gradientTransform="matrix(1.0032,0,0,1.0001,-2.2989,0.1839)"
   gradientUnits="userSpaceOnUse">
		<stop
   offset="0"
   style="stop-color:#FFFFFF"
   id="stop326" />
		<stop
   offset="0.3592"
   style="stop-color:#FCFCFC"
   id="stop328" />
		<stop
   offset="0.7277"
   style="stop-color:#F3F3F3"
   id="stop330" />
		<stop
   offset="1"
   style="stop-color:#E9E9E9"
   id="stop332" />
	</radialGradient>
	
	

		
		
		
		
		
		
		
		
		
		
		
		
		
		
		
		
	
			
			
		
				
				
				
			
					
					
					
					
				</defs><sodipodi:namedview
   fit-margin-bottom="0"
   fit-margin-right="0"
   fit-margin-left="0"
   fit-margin-top="0"
   inkscape:current-layer="layer1"
   inkscape:window-maximized="1"
   inkscape:window-y="-8"
   inkscape:window-x="-8"
   inkscape:cy="181.69183"
   inkscape:cx="142.64646"
   inkscape:zoom="1.9690846"
   showgrid="false"
   id="namedview652"
   inkscape:window-height="1017"
   inkscape:window-width="1920"
   inkscape:pageshadow="2"
   inkscape:pageopacity="0"
   guidetolerance="10"
   gridtolerance="10"
   objecttolerance="10"
   borderopacity="1"
   bordercolor="#666666"
   pagecolor="#ffffff"
   inkscape:document-rotation="0"
   inkscape:pagecheckerboard="true"
   inkscape:showpageshadow="false" />


<g
   inkscape:groupmode="layer"
   id="layer2"
   inkscape:label="Layer 2"><rect
     style="fill:#f0ffff;stroke-width:4;stroke-linecap:round;stroke-linejoin:round"
     id="rect1153"
     width="373.56522"
     height="250.43478"
     x="-2.4414061e-07"
     y="-1.6894531e-07" /></g><g
   inkscape:groupmode="layer"
   id="layer1"
   inkscape:label="Layer 1"><rect
     id="rect337"
     height="8.1040001"
     width="277.79501"
     fill="#4e4e4e"
     y="242.96599"
     x="86.509003" /><rect
     id="rect339"
     height="7.934"
     width="297.50299"
     fill="#27537c"
     y="148.414"
     x="76.654999" /><rect
     id="rect341"
     height="7.934"
     width="374.15799"
     fill="#27537c"
     y="-1.6894531e-07"
     x="-2.4414061e-07" /><g
     transform="translate(-413.306,-75.080002)"
     id="g413">
			<rect
   id="rect343"
   height="86.619003"
   width="63.777"
   fill="#b7d273"
   y="231.427"
   x="494.151" />
			<g
   id="g361">
				<rect
   id="rect345"
   height="7.9330001"
   width="56.622002"
   fill="#f0e08a"
   y="234.53799"
   x="497.729" />
				<g
   id="g359">
					<rect
   id="rect347"
   height="4.1999998"
   width="9.6450005"
   fill="#4e4e4e"
   y="236.405"
   x="501.86499" />
					<circle
   id="circle349"
   r="1.684"
   cy="238.505"
   cx="521.98297"
   fill="#f19234" />
					<circle
   id="circle351"
   r="1.684"
   cy="238.505"
   cx="528.62"
   fill="#f19234" />
					<circle
   id="circle353"
   r="1.684"
   cy="238.505"
   cx="535.25702"
   fill="#f19234" />
					<circle
   id="circle355"
   r="1.684"
   cy="238.505"
   cx="541.89398"
   fill="#f19234" />
					<circle
   id="circle357"
   r="1.6849999"
   cy="238.505"
   cx="548.53101"
   fill="#f19234" />
				</g>
			</g>
			<path
   id="path363"
   d="m 554.351,305.117 c 0,0.839 -0.681,1.519 -1.52,1.519 h -53.582 c -0.839,0 -1.52,-0.68 -1.52,-1.519 v -52.545 c 0,-0.84 0.681,-1.52 1.52,-1.52 h 53.582 c 0.839,0 1.52,0.68 1.52,1.52 z"
   fill="#4ebcbe" />
			<path
   id="path365"
   d="m 554.351,305.117 c 0,0.839 -0.681,1.519 -1.52,1.519 h -53.582 c -0.839,0 -1.52,-0.68 -1.52,-1.519 l 56.622,-52.545 z"
   fill="#4ebcbe"
   opacity="0.3" />
			<rect
   id="rect367"
   height="2.5510001"
   width="48.349998"
   fill="#4e4e4e"
   y="254.299"
   x="501.86499" />
			<g
   id="g373">
				<rect
   id="rect369"
   height="2.5510001"
   width="2.8329999"
   fill="#b4b4b4"
   y="254.299"
   x="504.88699" />
				<rect
   id="rect371"
   height="2.5510001"
   width="2.8329999"
   fill="#b4b4b4"
   y="254.299"
   x="544.36102" />
			</g>
			<rect
   id="rect375"
   height="4.7649999"
   width="59.143002"
   fill="#343434"
   y="218.729"
   x="496.46799" />
			<g
   id="g381">
				<path
   id="path377"
   d="m 503.346,218.729 c 0,0.002 -10e-4,0.004 -10e-4,0.007 0,1.312 3.387,2.375 7.565,2.375 4.178,0 7.565,-1.064 7.565,-2.375 0,-0.002 -10e-4,-0.004 -10e-4,-0.007 z"
   fill="#f19234" />
				<path
   id="path379"
   d="m 533.606,218.729 c 0,0.002 -10e-4,0.004 -10e-4,0.007 0,1.312 3.387,2.375 7.565,2.375 4.178,0 7.565,-1.064 7.565,-2.375 0,-0.002 -10e-4,-0.004 -10e-4,-0.007 z"
   fill="#f19234" />
			</g>
			<g
   id="g395">
				<path
   id="path383"
   d="m 544.056,183.008 v -1.485 c 0,-0.977 -1.19,-1.773 -2.652,-1.773 -1.462,0 -2.652,0.795 -2.652,1.773 v 1.485 z"
   fill="none" />
				<path
   id="path385"
   d="m 524.726,199.18 c -0.978,0 -1.773,0.795 -1.773,1.773 0,0.977 0.795,1.773 1.773,1.773 h 1.251 v -3.546 z"
   fill="none" />
				<path
   id="path387"
   d="m 557.613,199.18 h -1.252 v 3.546 h 1.252 c 0.977,0 1.773,-0.795 1.773,-1.773 0,-0.977 -0.795,-1.773 -1.773,-1.773 z"
   fill="none" />
				<path
   id="path389"
   d="m 547.087,184.189 v -1.653 c 0,-2.098 -2.545,-3.799 -5.683,-3.799 -3.139,0 -5.684,1.701 -5.684,3.799 v 1.582 c -5.148,0.647 -9.193,4.8 -9.68,9.996 h 30.259 c -0.472,-5.036 -4.289,-9.092 -9.212,-9.925 z m -5.683,-3.426 c 1.462,0 2.652,0.795 2.652,1.773 v 1.485 h -5.305 v -1.485 c 0,-0.977 1.191,-1.773 2.653,-1.773 z"
   fill="#27537c" />
				<path
   id="path391"
   d="m 525.376,195.803 h 31.587 c 0.466,0 0.845,-0.378 0.845,-0.845 0,-0.466 -0.378,-0.844 -0.845,-0.844 h -0.664 -30.259 -0.664 c -0.466,0 -0.844,0.378 -0.844,0.844 0,0.467 0.378,0.845 0.844,0.845 z"
   fill="#4ebcbe" />
				<path
   id="path393"
   d="m 557.613,197.154 h -1.252 v -1.351 h -30.384 v 1.351 h -1.251 c -2.098,0 -3.799,1.701 -3.799,3.799 0,2.098 1.701,3.799 3.799,3.799 h 1.251 v 2.833 c 0,6.155 4.989,11.144 11.144,11.144 h 8.097 c 6.154,0 11.143,-4.989 11.143,-11.144 v -2.833 h 1.252 c 2.098,0 3.799,-1.701 3.799,-3.799 0,-2.098 -1.701,-3.799 -3.799,-3.799 z m -32.887,5.572 c -0.978,0 -1.773,-0.795 -1.773,-1.773 0,-0.977 0.795,-1.773 1.773,-1.773 h 1.251 v 3.546 z m 32.887,0 h -1.252 v -3.546 h 1.252 c 0.977,0 1.773,0.795 1.773,1.773 0,0.978 -0.795,1.773 -1.773,1.773 z"
   fill="#27537c" />
			</g>
			<path
   id="path397"
   d="m 557.868,148.82 c 0,-2.12 -1.718,-3.838 -3.838,-3.838 h -55.98 c -2.12,0 -3.838,1.718 -3.838,3.838 v 0 c 0,2.12 1.718,3.839 3.838,3.839 h 55.98 c 2.119,-0.001 3.838,-1.719 3.838,-3.839 z"
   fill="#4ebcbe" />
			<polygon
   id="polygon399"
   points="552.374,144.982 499.706,144.982 514.902,133.162 537.178,133.162 "
   fill="#27537c" />
			<rect
   id="rect401"
   height="58.082001"
   width="21.926001"
   fill="#27537c"
   y="75.080002"
   x="515.07703" />
			<rect
   id="rect403"
   height="3.589"
   width="2.905"
   fill="#27537c"
   y="147.519"
   x="547.763" />
			<rect
   id="rect405"
   height="3.589"
   width="2.905"
   fill="#27537c"
   y="147.519"
   x="543.021" />
			<rect
   id="rect407"
   height="3.589"
   width="2.905"
   fill="#27537c"
   y="147.519"
   x="538.28003" />
			<rect
   id="rect409"
   height="3.589"
   width="2.905"
   fill="#f19234"
   y="147.519"
   x="533.53802" />
			<rect
   id="rect411"
   height="3.589"
   width="2.905"
   fill="#27537c"
   y="147.519"
   x="528.79602" />
		</g><g
     transform="translate(-413.306,-75.080002)"
     id="g451">
			<g
   id="g419">
				<rect
   id="rect415"
   height="14.42"
   width="55.759998"
   fill="#f19234"
   y="303.62601"
   x="557.80701" />
				<circle
   id="circle417"
   r="2.355"
   cy="307.78601"
   cx="585.68701"
   fill="#4e4e4e" />
			</g>
			<g
   id="g425">
				<rect
   id="rect421"
   height="14.42"
   width="55.759998"
   fill="#f0e08a"
   y="289.17401"
   x="557.80701" />
				<circle
   id="circle423"
   r="2.355"
   cy="293.25601"
   cx="585.68701"
   fill="#4e4e4e" />
			</g>
			<g
   id="g431">
				<rect
   id="rect427"
   height="14.42"
   width="55.759998"
   fill="#f19234"
   y="274.754"
   x="557.80701" />
				<circle
   id="circle429"
   r="2.355"
   cy="278.72699"
   cx="585.68701"
   fill="#4e4e4e" />
			</g>
			<g
   id="g437">
				<rect
   id="rect433"
   height="14.42"
   width="55.759998"
   fill="#f0e08a"
   y="260.29999"
   x="557.80701" />
				<circle
   id="circle435"
   r="2.355"
   cy="264.19601"
   cx="585.68701"
   fill="#4e4e4e" />
			</g>
			<g
   id="g443">
				<rect
   id="rect439"
   height="14.42"
   width="55.759998"
   fill="#f19234"
   y="245.88"
   x="557.80701" />
				<circle
   id="circle441"
   r="2.355"
   cy="249.66701"
   cx="585.68701"
   fill="#4e4e4e" />
			</g>
			<g
   id="g449">
				<rect
   id="rect445"
   height="14.42"
   width="55.759998"
   fill="#f0e08a"
   y="231.427"
   x="557.80701" />
				<circle
   id="circle447"
   r="2.355"
   cy="235.13699"
   cx="585.68701"
   fill="#4e4e4e" />
			</g>
		</g><g
     transform="translate(-413.306,-75.080002)"
     id="g477">
			<g
   id="g463">
				<rect
   id="rect453"
   height="43.292999"
   width="46.914001"
   fill="#b7d273"
   y="231.427"
   x="613.56702" />
				<g
   id="g459">
					<rect
   id="rect455"
   height="32.185001"
   width="38.303001"
   fill="#4ebcbe"
   y="238.50101"
   x="617.87201" />
					<polygon
   id="polygon457"
   points="656.176,238.501 656.176,270.686 617.872,270.686 "
   fill="#4ebcbe"
   opacity="0.3" />
				</g>
				<path
   id="path461"
   d="m 645.032,235.137 c 0,0.7 -0.567,1.268 -1.267,1.268 h -13.481 c -0.7,0 -1.268,-0.568 -1.268,-1.268 v 0 c 0,-0.7 0.568,-1.267 1.268,-1.267 h 13.481 c 0.7,0 1.267,0.567 1.267,1.267 z"
   fill="#4e4e4e" />
			</g>
			<g
   id="g475">
				<rect
   id="rect465"
   height="43.292999"
   width="46.914001"
   fill="#b7d273"
   y="274.737"
   x="613.56702" />
				<g
   id="g471">
					<rect
   id="rect467"
   height="32.183998"
   width="38.303001"
   fill="#4ebcbe"
   y="281.96399"
   x="617.87201" />
					<polygon
   id="polygon469"
   points="656.176,281.964 656.176,314.148 617.872,314.148 "
   fill="#4ebcbe"
   opacity="0.3" />
				</g>
				<path
   id="path473"
   d="m 645.032,278.22 c 0,0.7 -0.567,1.268 -1.267,1.268 h -13.481 c -0.7,0 -1.268,-0.568 -1.268,-1.268 v 0 c 0,-0.7 0.568,-1.267 1.268,-1.267 h 13.481 c 0.7,0 1.267,0.567 1.267,1.267 z"
   fill="#4e4e4e" />
			</g>
		</g><g
     transform="translate(-413.306,-75.080002)"
     id="g535">
				<g
   id="g489">
					<rect
   x="660.48102"
   y="83.013"
   fill="#4ebcbe"
   width="60.544998"
   height="69.644997"
   id="rect479" />
					<g
   id="g485">
						<rect
   x="666.99597"
   y="90.178001"
   fill="#f0e08a"
   width="47.514999"
   height="53.018002"
   id="rect481" />
						<polygon
   opacity="0.2"
   fill="#f0e08a"
   points="666.996,143.196 714.511,143.196 714.511,90.178 "
   id="polygon483" />
					</g>
					<path
   fill="#4e4e4e"
   d="m 700.524,147.641 c 0,0.744 -0.589,1.347 -1.317,1.347 H 682.3 c -0.728,0 -1.317,-0.603 -1.317,-1.347 v 0 c 0,-0.744 0.589,-1.347 1.317,-1.347 h 16.908 c 0.727,0 1.316,0.603 1.316,1.347 z"
   id="path487" />
				</g>
				<g
   id="g501">
					<rect
   x="721.026"
   y="83.013"
   fill="#4ebcbe"
   width="60.544998"
   height="69.644997"
   id="rect491" />
					<g
   id="g497">
						<rect
   x="727.54102"
   y="90.178001"
   fill="#f0e08a"
   width="47.514999"
   height="53.018002"
   id="rect493" />
						<polygon
   opacity="0.2"
   fill="#f0e08a"
   points="727.541,143.196 775.056,143.196 775.056,90.178 "
   id="polygon495" />
					</g>
					<path
   fill="#4e4e4e"
   d="m 761.07,147.641 c 0,0.744 -0.589,1.347 -1.317,1.347 h -16.908 c -0.727,0 -1.317,-0.603 -1.317,-1.347 v 0 c 0,-0.744 0.59,-1.347 1.317,-1.347 h 16.908 c 0.727,0 1.317,0.603 1.317,1.347 z"
   id="path499" />
				</g>
				<g
   id="g533">
					<g
   id="g517">
						<g
   id="g513">
							<rect
   x="660.48102"
   y="231.427"
   fill="#4ebcbe"
   width="60.544998"
   height="86.619003"
   id="rect503" />
							<rect
   x="666.99597"
   y="283.97299"
   fill="#f0e08a"
   width="47.514999"
   height="24.822001"
   id="rect505" />
							<rect
   x="666.99597"
   y="240.679"
   fill="#f0e08a"
   width="47.514999"
   height="24.822001"
   id="rect507" />
							<polygon
   opacity="0.2"
   fill="#f0e08a"
   points="666.996,265.501 714.511,265.501 714.511,240.679 "
   id="polygon509" />
							<polygon
   opacity="0.2"
   fill="#f0e08a"
   points="666.996,308.795 714.511,308.795 714.511,283.973 "
   id="polygon511" />
						</g>
						<circle
   fill="#4e4e4e"
   cx="710.53802"
   cy="274.754"
   r="3.973"
   id="circle515" />
					</g>
					<g
   id="g531">
						<rect
   x="721.026"
   y="231.427"
   fill="#4ebcbe"
   width="60.544998"
   height="86.619003"
   id="rect519" />
						<rect
   x="727.54102"
   y="283.97299"
   fill="#f0e08a"
   width="47.514999"
   height="24.822001"
   id="rect521" />
						<rect
   x="727.54102"
   y="240.679"
   fill="#f0e08a"
   width="47.514999"
   height="24.822001"
   id="rect523" />
						<polygon
   opacity="0.2"
   fill="#f0e08a"
   points="727.541,265.501 775.056,265.501 775.056,240.679 "
   id="polygon525" />
						<polygon
   opacity="0.2"
   fill="#f0e08a"
   points="727.541,308.795 775.056,308.795 775.056,283.973 "
   id="polygon527" />
						<circle
   fill="#4e4e4e"
   cx="731.51398"
   cy="274.754"
   r="3.973"
   id="circle529" />
					</g>
				</g>
			</g><path
     fill="#f0e08a"
     d="m 318.2,148.414 c -0.045,-3.232 -2.675,-5.838 -5.918,-5.838 h -52.674 c -3.242,0 -5.873,2.607 -5.917,5.838 z"
     id="path537" /><rect
     x="283.64999"
     y="125.269"
     fill="#f19234"
     width="4.5890002"
     height="17.306"
     id="rect539" /><polygon
     transform="translate(-413.306,-75.080002)"
     fill="#f19234"
     points="696.956,200.363 701.545,200.363 703.571,205.09 694.93,205.09 "
     id="polygon541" /><path
     fill="#f19234"
     d="m 279.931,142.575 v -3.398 c 0,-1.371 -1.112,-2.483 -2.483,-2.483 -1.372,0 -2.484,1.112 -2.484,2.483 v 3.398 z"
     id="path543" /><g
     transform="translate(-413.306,-75.080002)"
     id="g553">
					<path
   id="path547"
   d="m 770.302,194.33 h -3.116 -1.441 -7.142 -3.036 -4.5 c 0,0 4.5,1.425 4.5,10.761 -3.502,2.014 -5.862,5.79 -5.862,10.121 0,3.205 1.293,6.108 3.385,8.217 h 2.477 11.618 2.478 c 2.092,-2.109 3.384,-5.012 3.384,-8.217 0,-0.764 -0.075,-1.51 -0.216,-2.234 1.804,-0.922 3.042,-2.795 3.042,-4.96 v -8.117 c 10e-4,-3.077 -2.494,-5.571 -5.571,-5.571 z m 3.039,13.688 c 0,1.023 -0.511,1.929 -1.288,2.48 -1.008,-2.279 -2.723,-4.173 -4.868,-5.407 v -8.229 h 3.116 c 1.676,0 3.039,1.363 3.039,3.039 v 8.117 z"
   fill="#f19234" />
					<g
   id="g551">
						<path
   id="path549"
   d="m 769.605,219.986 c -0.07,0 -0.14,-0.009 -0.21,-0.029 -0.404,-0.115 -0.637,-0.535 -0.521,-0.939 2.307,-8.077 -2.981,-11.248 -3.206,-11.379 -0.363,-0.21 -0.488,-0.674 -0.28,-1.036 0.209,-0.363 0.671,-0.49 1.034,-0.283 0.066,0.037 6.559,3.857 3.914,13.116 -0.097,0.333 -0.401,0.55 -0.731,0.55 z"
   fill="#f0e08a" />
					</g>
				</g><path
     id="path555"
     d="m 319.705,140.218 c 0,1.916 1.553,3.468 3.468,3.468 h 0.688 c 0.269,0 0.529,-0.034 0.779,-0.091 0.556,1.506 1.74,2.703 3.238,3.275 h -0.293 c -0.426,0 -0.772,0.346 -0.772,0.772 0,0.426 0.346,0.772 0.772,0.772 h 7.112 c 0.426,0 0.773,-0.346 0.773,-0.772 0,-0.426 -0.347,-0.772 -0.773,-0.772 h -0.292 c 2.096,-0.801 3.587,-2.824 3.587,-5.202 v -7.27 h -13.701 v 2.38 c -0.142,-0.018 -0.284,-0.03 -0.43,-0.03 h -0.688 c -1.915,0.001 -3.468,1.554 -3.468,3.47 z m 1.52,0 c 0,-1.075 0.874,-1.949 1.949,-1.949 h 0.688 c 0.148,0 0.292,0.02 0.43,0.052 v 3.348 c 0,0.148 0.011,0.295 0.022,0.44 -0.146,0.035 -0.296,0.058 -0.453,0.058 h -0.688 c -1.074,0 -1.948,-0.875 -1.948,-1.949 z"
     fill="#4ebbbd" /><g
     transform="matrix(-1,0,0,1,796.57803,-75.080002)"
     id="g595">
			<circle
   id="circle561"
   r="20.545"
   cy="121.442"
   cx="604.94202"
   fill="#f19234" />
			<circle
   id="circle563"
   r="17.843"
   cy="121.442"
   cx="604.94202"
   fill="#f0e08a" />
			<path
   id="path565"
   d="m 605.576,108.583 c 0,0.35 -0.283,0.633 -0.633,0.633 v 0 c -0.349,0 -0.633,-0.284 -0.633,-0.633 v -2.279 c 0,-0.35 0.284,-0.633 0.633,-0.633 v 0 c 0.35,0 0.633,0.283 0.633,0.633 z"
   fill="#f19234" />
			<path
   id="path567"
   d="m 599.061,109.989 c 0.175,0.303 0.071,0.69 -0.232,0.865 v 0 c -0.303,0.175 -0.69,0.071 -0.865,-0.232 l -1.14,-1.974 c -0.175,-0.303 -0.072,-0.69 0.232,-0.865 v 0 c 0.303,-0.175 0.69,-0.071 0.865,0.232 z"
   fill="#f19234" />
			<path
   id="path569"
   d="m 594.123,114.464 c 0.304,0.175 0.407,0.562 0.233,0.865 v 0 c -0.175,0.303 -0.563,0.407 -0.865,0.232 l -1.974,-1.14 c -0.303,-0.175 -0.406,-0.562 -0.232,-0.865 v 0 c 0.175,-0.303 0.562,-0.406 0.865,-0.232 z"
   fill="#f19234" />
			<path
   id="path571"
   d="m 592.084,120.809 c 0.35,-10e-4 0.633,0.283 0.633,0.632 v 0 c 0,0.35 -0.284,0.634 -0.633,0.634 h -2.28 c -0.35,0 -0.633,-0.283 -0.633,-0.633 v 0 c 0,-0.35 0.284,-0.633 0.633,-0.633 z"
   fill="#f19234" />
			<path
   id="path573"
   d="m 593.49,127.323 c 0.302,-0.176 0.69,-0.072 0.865,0.231 v 0 c 0.175,0.304 0.07,0.691 -0.232,0.866 l -1.974,1.139 c -0.303,0.175 -0.69,0.072 -0.865,-0.232 v 0 c -0.175,-0.303 -0.071,-0.69 0.232,-0.865 z"
   fill="#f19234" />
			<path
   id="path575"
   d="m 597.965,132.261 c 0.174,-0.304 0.561,-0.407 0.865,-0.233 v 0 c 0.303,0.176 0.407,0.564 0.232,0.866 l -1.14,1.974 c -0.175,0.303 -0.562,0.407 -0.865,0.232 v 0 c -0.303,-0.174 -0.406,-0.562 -0.232,-0.865 z"
   fill="#f19234" />
			<path
   id="path577"
   d="m 604.309,134.301 c -10e-4,-0.35 0.283,-0.633 0.633,-0.634 v 0 c 0.35,0.001 0.634,0.285 0.633,0.634 v 2.279 c 0,0.35 -0.283,0.633 -0.633,0.633 v 0 c -0.349,0 -0.633,-0.284 -0.633,-0.633 z"
   fill="#f19234" />
			<path
   id="path579"
   d="m 610.823,132.894 c -0.175,-0.303 -0.072,-0.69 0.231,-0.865 v 0 c 0.303,-0.174 0.691,-0.07 0.865,0.233 l 1.14,1.974 c 0.175,0.303 0.071,0.69 -0.232,0.865 v 0 c -0.303,0.175 -0.69,0.071 -0.865,-0.232 z"
   fill="#f19234" />
			<path
   id="path581"
   d="m 615.761,128.42 c -0.303,-0.175 -0.406,-0.562 -0.232,-0.865 v 0 c 0.175,-0.302 0.563,-0.406 0.865,-0.231 l 1.974,1.14 c 0.302,0.175 0.406,0.562 0.231,0.865 v 0 c -0.175,0.303 -0.562,0.406 -0.865,0.231 z"
   fill="#f19234" />
			<path
   id="path583"
   d="m 617.801,122.075 c -0.349,0 -0.633,-0.284 -0.634,-0.634 v 0 c 0,-0.349 0.285,-0.633 0.634,-0.633 h 2.279 c 0.349,0 0.633,0.284 0.633,0.634 v 0 c 0,0.35 -0.283,0.633 -0.633,0.633 z"
   fill="#f19234" />
			<path
   id="path585"
   d="m 616.395,115.561 c -0.302,0.175 -0.69,0.071 -0.865,-0.232 v 0 c -0.174,-0.303 -0.071,-0.691 0.232,-0.865 l 1.974,-1.139 c 0.303,-0.175 0.69,-0.071 0.865,0.232 v 0 c 0.175,0.303 0.071,0.69 -0.232,0.865 z"
   fill="#f19234" />
			<path
   id="path587"
   d="m 611.92,110.623 c -0.174,0.303 -0.561,0.406 -0.865,0.231 v 0 c -0.302,-0.175 -0.406,-0.563 -0.231,-0.865 l 1.14,-1.974 c 0.175,-0.303 0.562,-0.406 0.865,-0.231 v 0 c 0.303,0.175 0.406,0.562 0.232,0.865 z"
   fill="#f19234" />
			<polygon
   id="polygon589"
   points="603.626,120.682 611.942,109.319 606.258,122.202 "
   fill="#4ebcbe" />
			<polygon
   id="polygon591"
   points="606.302,120.762 608.442,128.441 603.583,122.121 "
   fill="#4ebcbe" />
			<circle
   id="circle593"
   r="2.3380001"
   cy="121.442"
   cx="604.94202"
   fill="#27537c" />
		</g><rect
     id="rect597"
     height="1.896"
     width="98.707001"
     fill="#4ebcbe"
     y="89.572998"
     x="146.54501" /><circle
     id="circle599"
     r="2.6800001"
     cy="90.481003"
     cx="147.24802"
     fill="#27537c" /><circle
     id="circle601"
     r="2.6800001"
     cy="90.481003"
     cx="244.49503"
     fill="#27537c" /><path
     id="path603"
     d="m 219.27,115.548 h 8.054 V 88.786998 c 0,-0.493 0.399,-0.891 0.891,-0.891 0.492,0 0.89,0.399 0.89,0.891 V 115.853 c 0.025,0.2 0.043,0.401 0.043,0.607 0,2.752 -2.231,4.983 -4.983,4.983 -2.752,0 -4.983,-2.231 -4.983,-4.983 0.001,-0.312 0.033,-0.616 0.088,-0.912 z"
     fill="#b7d273" /><path
     id="path605"
     d="m 237.389,115.048 v 2.053 c 0,2.398 1.944,4.343 4.343,4.343 2.398,0 4.343,-1.944 4.343,-4.343 v -2.053 c 0,-2.132 -1.538,-3.902 -3.565,-4.269 V 88.674998 c 0,-0.43 -0.349,-0.779 -0.778,-0.779 -0.43,0 -0.778,0.349 -0.778,0.779 V 110.779 c -2.027,0.367 -3.565,2.137 -3.565,4.269 z m 5.558,-2.217 c 0,-0.321 0.26,-0.582 0.582,-0.582 0.321,0 0.582,0.261 0.582,0.582 v 6.487 c 0,0.321 -0.26,0.582 -0.582,0.582 -0.321,0 -0.582,-0.261 -0.582,-0.582 z m -1.797,0 c 0,-0.321 0.26,-0.582 0.582,-0.582 0.322,0 0.582,0.261 0.582,0.582 v 6.487 c 0,0.321 -0.26,0.582 -0.582,0.582 -0.322,0 -0.582,-0.261 -0.582,-0.582 z m -1.798,0 c 0,-0.321 0.26,-0.582 0.582,-0.582 0.322,0 0.582,0.261 0.582,0.582 v 6.487 c 0,0.321 -0.26,0.582 -0.582,0.582 -0.321,0 -0.582,-0.261 -0.582,-0.582 z"
     fill="#f19234" /><g
     transform="translate(-413.306,-75.080002)"
     id="g613">
			<g
   id="g609">
				<path
   id="path607"
   d="m 570.541,163.855 c 0.249,-0.328 0.731,-0.695 1.609,-0.577 0.751,0.098 1.329,0.473 1.672,1.082 1.12,1.987 -0.558,5.946 -0.754,6.392 l -0.693,-0.304 c 0.058,0.146 0.116,0.286 0.174,0.422 l -0.932,0.398 c -0.402,-0.944 -2.347,-5.737 -1.076,-7.413 z m 0.808,0.612 c -0.599,0.79 0.097,3.544 0.893,5.637 0.506,-1.242 1.391,-4.02 0.698,-5.247 -0.188,-0.334 -0.481,-0.517 -0.922,-0.575 -0.07,-0.009 -0.132,-0.013 -0.188,-0.013 -0.33,-0.001 -0.438,0.14 -0.481,0.198 z"
   fill="#f19234" />
			</g>
			<path
   id="path611"
   d="m 572.692,169.843 -7.81,4.87 c 0,0 1.215,2.863 0.781,4.686 -0.434,1.823 -0.348,6.334 1.041,6.334 1.388,0 2.082,-3.702 2.082,-3.702 0,0 5.64,15.32 13.537,7.689 7.897,-7.631 -6.594,-17.981 -9.631,-19.877 z"
   fill="#f0e08a" />
		</g><g
     transform="translate(-413.306,-75.080002)"
     id="g625">
			<path
   id="path615"
   d="m 603.004,193.946 c 0,-2.461 -1.236,-4.454 -2.761,-4.454 -1.525,0 -2.761,1.994 -2.761,4.454 0,2.113 0.913,3.878 2.136,4.335 v 9.652 c 0,0.344 0.28,0.624 0.625,0.624 0.345,0 0.625,-0.28 0.625,-0.624 v -9.652 c 1.224,-0.457 2.136,-2.222 2.136,-4.335 z"
   fill="#4ebcbe" />
			<path
   id="path617"
   d="m 596.099,194.696 c -0.535,-2.401 -2.175,-4.079 -3.663,-3.748 -1.489,0.332 -2.262,2.547 -1.727,4.949 0.46,2.062 1.734,3.587 3.028,3.767 l 2.099,9.421 c 0.075,0.337 0.408,0.548 0.745,0.474 0.336,-0.075 0.549,-0.408 0.474,-0.745 l -2.098,-9.421 c 1.094,-0.713 1.601,-2.635 1.142,-4.697 z"
   fill="#f0e08a" />
			<path
   id="path619"
   d="m 599.812,195.029 c -0.112,-0.926 -0.393,-1.764 -0.781,-2.438 l -0.18,0.021 c 0.003,0.012 0.009,0.02 0.011,0.032 l 0.481,3.981 c 0.021,0.181 -0.107,0.344 -0.287,0.366 -0.181,0.022 -0.344,-0.107 -0.366,-0.288 l -0.481,-3.98 c -10e-4,-0.012 0.003,-0.023 0.003,-0.034 l -0.535,0.065 c 0.002,0.011 0.009,0.02 0.01,0.032 l 0.481,3.98 c 0.022,0.181 -0.106,0.345 -0.287,0.366 -0.181,0.022 -0.344,-0.107 -0.366,-0.287 l -0.481,-3.981 c -10e-4,-0.012 0.003,-0.022 0.002,-0.034 l -0.535,0.065 c 0.002,0.011 0.009,0.02 0.01,0.032 l 0.481,3.981 c 0.022,0.18 -0.106,0.344 -0.287,0.366 -0.18,0.022 -0.344,-0.107 -0.366,-0.287 l -0.481,-3.981 c -10e-4,-0.012 0.003,-0.022 0.002,-0.034 l -0.535,0.064 c 0.002,0.011 0.009,0.02 0.01,0.032 l 0.481,3.981 c 0.022,0.181 -0.106,0.344 -0.287,0.366 -0.18,0.021 -0.344,-0.107 -0.366,-0.287 l -0.481,-3.981 c -0.002,-0.012 0.002,-0.022 0.002,-0.034 l -0.18,0.022 c -0.216,0.747 -0.29,1.628 -0.178,2.554 0.254,2.098 1.372,3.741 2.642,4.048 l 0.961,7.951 c 0.041,0.341 0.353,0.586 0.695,0.544 0.342,-0.042 0.586,-0.352 0.545,-0.695 l -0.961,-7.95 c 1.163,-0.598 1.857,-2.46 1.604,-4.558 z"
   fill="#b7d273" />
			<path
   id="path621"
   d="m 617.648,195.323 c 0.24,-0.902 0.291,-1.784 0.181,-2.554 l -0.175,-0.047 c -0.002,0.011 10e-4,0.022 -0.002,0.034 l -1.033,3.875 c -0.047,0.175 -0.226,0.28 -0.403,0.233 -0.175,-0.047 -0.279,-0.227 -0.232,-0.403 l 1.032,-3.874 c 0.003,-0.012 0.011,-0.02 0.015,-0.03 l -0.521,-0.139 c -10e-4,0.011 10e-4,0.022 -0.002,0.034 l -1.033,3.875 c -0.047,0.175 -0.226,0.28 -0.403,0.233 -0.175,-0.047 -0.279,-0.227 -0.233,-0.403 l 1.033,-3.874 c 0.003,-0.011 0.011,-0.019 0.015,-0.03 l -0.521,-0.14 c -10e-4,0.012 10e-4,0.023 -0.002,0.034 l -1.033,3.875 c -0.047,0.175 -0.226,0.28 -0.402,0.233 -0.176,-0.047 -0.28,-0.227 -0.233,-0.403 l 1.033,-3.874 c 0.003,-0.011 0.011,-0.019 0.015,-0.03 l -0.521,-0.14 c -0.002,0.012 0.001,0.023 -0.002,0.034 l -1.033,3.874 c -0.047,0.176 -0.226,0.28 -0.403,0.233 -0.175,-0.047 -0.279,-0.227 -0.233,-0.403 l 1.033,-3.874 c 0.003,-0.012 0.011,-0.02 0.015,-0.03 l -0.175,-0.047 c -0.479,0.613 -0.874,1.404 -1.115,2.306 -0.544,2.041 -0.116,3.982 0.948,4.739 l -2.062,7.738 c -0.089,0.333 0.109,0.675 0.442,0.764 0.333,0.089 0.676,-0.11 0.764,-0.442 l 2.063,-7.738 c 1.302,-0.126 2.639,-1.597 3.183,-3.639 z"
   fill="#27537c" />
			<path
   id="path623"
   d="m 600.048,223.494 h 8.505 c 4.028,-1.67 6.863,-5.639 6.863,-10.271 v -9.104 h -22.231 v 9.104 c 0,4.632 2.834,8.601 6.863,10.271 z"
   fill="#f19234" />
		</g><g
     transform="translate(-413.306,-75.080002)"
     id="g645">
			<rect
   id="rect627"
   height="8.1040001"
   width="71.265999"
   fill="#4e4e4e"
   y="318.04599"
   x="416" />
			<g
   id="g643">
				<g
   id="g633">
					<rect
   id="rect629"
   height="208.315"
   width="76.654999"
   fill="#4ebcbe"
   y="112.77"
   x="413.306" />
					<rect
   id="rect631"
   height="29.718"
   width="4.2719998"
   fill="#4e4e4e"
   y="220.265"
   x="419.49701" />
				</g>
				<rect
   id="rect635"
   height="12.088"
   width="12.619"
   fill="#27537c"
   y="123.189"
   x="445.32401" />
				<g
   id="g641">
					<rect
   id="rect637"
   height="7.6339998"
   width="2.8629999"
   fill="#b7d273"
   y="125.416"
   x="447.33899" />
					<rect
   id="rect639"
   height="7.6339998"
   width="2.8629999"
   fill="#b7d273"
   y="125.416"
   x="453.065" />
				</g>
			</g>
		</g><path
     id="path1207"
     d="m 296.97328,142.575 v -3.398 c 0,-1.371 -1.112,-2.483 -2.483,-2.483 -1.372,0 -2.484,1.112 -2.484,2.483 v 3.398 z"
     fill="#f19234" /></g></svg>
