<?xml version="1.0" encoding="utf-8"?>
<!-- Generator: Adobe Illustrator 17.0.0, SVG Export Plug-In . SVG Version: 6.00 Build 0)  -->
<!DOCTYPE svg PUBLIC "-//W3C//DTD SVG 1.1//EN" "http://www.w3.org/Graphics/SVG/1.1/DTD/svg11.dtd">
<svg version="1.1" id="Слой_1" xmlns="http://www.w3.org/2000/svg" xmlns:xlink="http://www.w3.org/1999/xlink" x="0px" y="0px"
	 width="150px" height="150px" viewBox="0 0 150 150" enable-background="new 0 0 150 150" xml:space="preserve">
<g>
	<g>
		<rect x="0.574" y="0.635" fill="#E2F2F8" width="71.126" height="71.126"/>
		<path fill="#D2EBF4" d="M0.574,44.481c18.824,7.211,49.741,11.951,71.126,4.381V0.635H0.574V44.481z"/>
		<path fill="#C2E5F1" d="M0.574,28.623c20.041,7.637,52.018,3.954,71.126-7.88V0.635H0.574V28.623z"/>
		<path fill="#B0DEEC" d="M0.574,6.637C19.072,15.812,51.319,18.94,71.7,8.299V0.635H0.574V6.637z"/>
	</g>
	<path fill="#FFFFFF" d="M64.273,56.391c-0.256,0-0.506,0.029-0.746,0.081c-0.793-1.25-2.187-2.08-3.776-2.08
		c-2.04,0-3.759,1.366-4.295,3.233c-1.404,0.185-2.489,1.386-2.489,2.841c0,1.583,1.283,2.866,2.866,2.866c0.647,0,7.649,0,8.44,0
		c1.917,0,3.471-1.554,3.471-3.471S66.19,56.391,64.273,56.391z"/>
	<path fill="#FFFFFF" d="M15.141,17.566c-0.256,0-0.506,0.029-0.746,0.081c-0.793-1.25-2.187-2.08-3.776-2.08
		c-2.04,0-3.759,1.366-4.295,3.233c-1.404,0.185-2.489,1.386-2.489,2.841c0,1.583,1.283,2.866,2.866,2.866c0.647,0,7.649,0,8.44,0
		c1.917,0,3.471-1.554,3.471-3.471S17.058,17.566,15.141,17.566z"/>
</g>
<g>
	<path fill="#BB9266" d="M52.097,29.211c-1.035-0.315-1.53,2.521-2.431,3.646c-0.795,0.994-1.872,0.899-3.322,0.864
		c-0.096-2.722-0.19-5.001-0.277-6.499c-0.079-1.365-0.449-1.889-1.494-1.889l0,0c-1.046,0-1.415,0.525-1.494,1.889
		c-0.191,3.297-0.421,10.492-0.625,17.844c-2.359-0.084-5.14-1.076-6.787-3.106c-1.724-2.124-2.362-8.291-3.356-8.075
		s-0.731,7.3,1.641,10.298c1.896,2.395,4.757,4.172,8.409,4.299c-0.252,9.422-0.446,18.14-0.446,18.14h5.317
		c0,0-0.397-17.921-0.795-30.16c2.347-0.074,3.633-0.555,4.58-1.625C52.085,33.63,53.133,29.526,52.097,29.211z"/>
	<path fill="#C8D400" d="M40.953,38.431c0,2.635-2.534,3.864-2.534,3.864s-2.534-1.229-2.534-3.864s2.534-3.864,2.534-3.864
		S40.953,35.796,40.953,38.431z"/>
	<path fill="#C8D400" d="M41.723,22.619c0,2.635-2.534,3.864-2.534,3.864s-2.534-1.229-2.534-3.864s2.534-3.864,2.534-3.864
		S41.723,19.984,41.723,22.619z"/>
	<path fill="#C8D400" d="M35.635,24.275c0,2.635-2.534,3.864-2.534,3.864s-2.534-1.229-2.534-3.864s2.534-3.864,2.534-3.864
		C33.102,20.411,35.635,21.64,35.635,24.275z"/>
	<path fill="#95C11F" d="M37.993,16.222c0,2.635-2.534,3.864-2.534,3.864s-2.534-1.229-2.534-3.864s2.534-3.864,2.534-3.864
		S37.993,13.587,37.993,16.222z"/>
	<path fill="#95C11F" d="M43.659,13.495c0,2.635-2.534,3.864-2.534,3.864s-2.534-1.229-2.534-3.864s2.534-3.864,2.534-3.864
		C41.125,9.632,43.659,10.86,43.659,13.495z"/>
	<path fill="#C8D400" d="M56.675,16.341c0,2.635-2.534,3.864-2.534,3.864s-2.534-1.229-2.534-3.864s2.534-3.864,2.534-3.864
		C54.141,12.478,56.675,13.706,56.675,16.341z"/>
	<path fill="#95C11F" d="M54.141,24.069c0,2.635-2.534,3.864-2.534,3.864s-2.534-1.229-2.534-3.864s2.534-3.864,2.534-3.864
		S54.141,21.434,54.141,24.069z"/>
	<path fill="#95C11F" d="M26.399,38.526c-2.635,0-3.864-2.534-3.864-2.534s1.229-2.534,3.864-2.534s3.864,2.534,3.864,2.534
		S29.034,38.526,26.399,38.526z"/>
	<path fill="#C8D400" d="M63.19,34.937c-2.635,0-3.864-2.534-3.864-2.534s1.229-2.534,3.864-2.534s3.864,2.534,3.864,2.534
		S65.825,34.937,63.19,34.937z"/>
	<path fill="#C8D400" d="M55.941,38.355c-2.635,0-3.864-2.534-3.864-2.534s1.229-2.534,3.864-2.534s3.864,2.534,3.864,2.534
		C59.804,35.821,58.576,38.355,55.941,38.355z"/>
	<path fill="#95C11F" d="M38.803,32.514c-1.863,1.863-4.524,0.94-4.524,0.94s-0.923-2.661,0.94-4.524s4.524-0.94,4.524-0.94
		C39.743,27.991,40.666,30.651,38.803,32.514z"/>
	<path fill="#C8D400" d="M60.002,23.761c-1.863,1.863-4.524,0.94-4.524,0.94s-0.923-2.661,0.94-4.524s4.524-0.94,4.524-0.94
		C60.943,19.237,61.866,21.898,60.002,23.761z"/>
	<path fill="#95C11F" d="M58.468,30.893c-1.863,1.863-4.524,0.94-4.524,0.94s-0.923-2.661,0.94-4.524s4.524-0.94,4.524-0.94
		C59.408,26.369,60.331,29.03,58.468,30.893z"/>
	<path fill="#C8D400" d="M29.825,44.211c-1.863,1.863-4.524,0.94-4.524,0.94s-0.923-2.661,0.94-4.524s4.524-0.94,4.524-0.94
		C30.766,39.687,31.689,42.348,29.825,44.211z"/>
	<path fill="#95C11F" d="M62.963,16.105c-1.863,1.863-4.524,0.94-4.524,0.94s-0.923-2.661,0.94-4.524s4.524-0.94,4.524-0.94
		S64.826,14.242,62.963,16.105z"/>
	<path fill="#95C11F" d="M65.386,27.201c-1.863,1.863-4.524,0.94-4.524,0.94s-0.923-2.661,0.94-4.524s4.524-0.94,4.524-0.94
		S67.249,25.338,65.386,27.201z"/>
	<path fill="#95C11F" d="M49.219,42.445c-1.863-1.863-0.94-4.524-0.94-4.524s2.661-0.923,4.524,0.94s0.94,4.524,0.94,4.524
		C53.743,43.385,51.082,44.308,49.219,42.445z"/>
	<path fill="#95C11F" d="M27.525,31.661c-1.863-1.863-0.94-4.524-0.94-4.524s2.661-0.923,4.524,0.94s0.94,4.524,0.94,4.524
		C32.049,32.601,29.388,33.524,27.525,31.661z"/>
	<path fill="#C8D400" d="M20.743,31.234c-1.863-1.863-0.94-4.524-0.94-4.524s2.661-0.923,4.524,0.94s0.94,4.524,0.94,4.524
		C25.267,32.175,22.606,33.097,20.743,31.234z"/>
	<path fill="#95C11F" d="M24.948,24.582c-1.863-1.863-0.94-4.524-0.94-4.524s2.661-0.923,4.524,0.94s0.94,4.524,0.94,4.524
		C29.472,25.522,26.812,26.445,24.948,24.582z"/>
	<path fill="#C8D400" d="M56.419,44.211c-1.863-1.863-0.94-4.524-0.94-4.524s2.661-0.923,4.524,0.94s0.94,4.524,0.94,4.524
		C60.943,45.151,58.282,46.074,56.419,44.211z"/>
	<path fill="#C8D400" d="M43.635,22.85c-1.863-1.863-0.94-4.524-0.94-4.524s2.661-0.923,4.524,0.94
		c1.863,1.863,0.94,4.524,0.94,4.524C48.159,23.791,45.498,24.713,43.635,22.85z"/>
	<path fill="#C8D400" d="M45.742,17.23c-1.863-1.863-0.94-4.524-0.94-4.524s2.661-0.923,4.524,0.94
		c1.863,1.863,0.94,4.524,0.94,4.524C50.266,18.17,47.606,19.093,45.742,17.23z"/>
	<path fill="#95C11F" d="M34.307,48.149c0,2.635-2.534,3.864-2.534,3.864s-2.534-1.229-2.534-3.864s2.534-3.864,2.534-3.864
		C31.772,44.285,34.307,45.514,34.307,48.149z"/>
</g>
<g>
	<g>
		<g>
			<g>
				<path fill="#CFD72E" d="M36.137,65.401c-17.782,0-35.563,1.724-35.563,1.724v4.636H71.7v-4.636
					C71.7,67.125,53.919,65.401,36.137,65.401z"/>
			</g>
		</g>
	</g>
</g>
<g>
	<g>
		<rect x="78.813" y="0.635" fill="#D4EDFC" width="71.126" height="71.126"/>
		<path fill="#C3E6FB" d="M78.813,44.481c18.824,7.211,49.741,11.951,71.126,4.381V0.635H78.813V44.481z"/>
		<path fill="#AFDFF9" d="M78.813,28.623c20.041,7.637,52.018,3.954,71.126-7.88V0.635H78.813V28.623z"/>
		<path fill="#93D5F6" d="M78.813,6.637c18.497,9.175,50.745,12.303,71.126,1.662V0.635H78.813V6.637z"/>
	</g>
	<path fill="#FFFFFF" d="M103.26,8.357c-0.256,0-0.506,0.029-0.746,0.081c-0.793-1.25-2.187-2.08-3.776-2.08
		c-2.04,0-3.759,1.366-4.295,3.233c-1.404,0.185-2.489,1.386-2.489,2.841c0,1.583,1.283,2.866,2.866,2.866c0.647,0,7.649,0,8.44,0
		c1.917,0,3.471-1.554,3.471-3.471C106.731,9.911,105.178,8.357,103.26,8.357z"/>
</g>
<g>
	<g>
		<path fill="#BB9266" d="M130.336,29.211c-1.035-0.315-1.53,2.521-2.431,3.646c-0.795,0.994-1.872,0.899-3.322,0.864
			c-0.096-2.722-0.19-5.001-0.277-6.499c-0.079-1.365-0.449-1.889-1.494-1.889l0,0c-1.046,0-1.415,0.525-1.494,1.889
			c-0.191,3.297-0.421,10.492-0.625,17.844c-2.359-0.084-5.14-1.076-6.787-3.106c-1.724-2.124-2.362-8.291-3.356-8.075
			s-0.731,7.3,1.641,10.298c1.896,2.395,4.757,4.172,8.409,4.299c-0.252,9.422-0.446,18.14-0.446,18.14h5.317
			c0,0-0.397-17.921-0.795-30.16c2.347-0.074,3.633-0.555,4.58-1.625C130.324,33.63,131.371,29.526,130.336,29.211z"/>
		<path fill="#5BB246" d="M119.192,38.431c0,2.635-2.534,3.864-2.534,3.864s-2.534-1.229-2.534-3.864s2.534-3.864,2.534-3.864
			C116.658,34.567,119.192,35.796,119.192,38.431z"/>
		<path fill="#5BB246" d="M119.961,22.619c0,2.635-2.534,3.864-2.534,3.864s-2.534-1.229-2.534-3.864s2.534-3.864,2.534-3.864
			S119.961,19.984,119.961,22.619z"/>
		<path fill="#5BB246" d="M113.874,24.275c0,2.635-2.534,3.864-2.534,3.864s-2.534-1.229-2.534-3.864s2.534-3.864,2.534-3.864
			C111.34,20.411,113.874,21.64,113.874,24.275z"/>
		<path fill="#5BB246" d="M116.231,16.222c0,2.635-2.534,3.864-2.534,3.864s-2.534-1.229-2.534-3.864s2.534-3.864,2.534-3.864
			C113.697,12.358,116.231,13.587,116.231,16.222z"/>
		<path fill="#5BB246" d="M121.898,13.495c0,2.635-2.534,3.864-2.534,3.864s-2.534-1.229-2.534-3.864s2.534-3.864,2.534-3.864
			C119.364,9.632,121.898,10.86,121.898,13.495z"/>
		<path fill="#5BB246" d="M134.914,16.341c0,2.635-2.534,3.864-2.534,3.864s-2.534-1.229-2.534-3.864s2.534-3.864,2.534-3.864
			C132.38,12.478,134.914,13.706,134.914,16.341z"/>
		<path fill="#5BB246" d="M132.38,24.069c0,2.635-2.534,3.864-2.534,3.864s-2.534-1.229-2.534-3.864s2.534-3.864,2.534-3.864
			C129.846,20.205,132.38,21.434,132.38,24.069z"/>
		<path fill="#5BB246" d="M104.638,38.526c-2.635,0-3.864-2.534-3.864-2.534s1.229-2.534,3.864-2.534s3.864,2.534,3.864,2.534
			C108.501,35.992,107.273,38.526,104.638,38.526z"/>
		<path fill="#5BB246" d="M141.429,34.937c-2.635,0-3.864-2.534-3.864-2.534s1.229-2.534,3.864-2.534s3.864,2.534,3.864,2.534
			S144.064,34.937,141.429,34.937z"/>
		<path fill="#5BB246" d="M134.179,38.355c-2.635,0-3.864-2.534-3.864-2.534s1.229-2.534,3.864-2.534s3.864,2.534,3.864,2.534
			S136.814,38.355,134.179,38.355z"/>
		<path fill="#5BB246" d="M117.042,32.514c-1.863,1.863-4.524,0.94-4.524,0.94s-0.923-2.661,0.94-4.524s4.524-0.94,4.524-0.94
			S118.905,30.651,117.042,32.514z"/>
		<path fill="#5BB246" d="M138.241,23.761c-1.863,1.863-4.524,0.94-4.524,0.94s-0.923-2.661,0.94-4.524s4.524-0.94,4.524-0.94
			S140.104,21.898,138.241,23.761z"/>
		<path fill="#5BB246" d="M136.707,30.893c-1.863,1.863-4.524,0.94-4.524,0.94s-0.923-2.661,0.94-4.524s4.524-0.94,4.524-0.94
			S138.57,29.03,136.707,30.893z"/>
		<path fill="#5BB246" d="M108.064,44.211c-1.863,1.863-4.524,0.94-4.524,0.94s-0.923-2.661,0.94-4.524s4.524-0.94,4.524-0.94
			C109.004,39.687,109.927,42.348,108.064,44.211z"/>
		<path fill="#5BB246" d="M141.202,16.105c-1.863,1.863-4.524,0.94-4.524,0.94s-0.923-2.661,0.94-4.524s4.524-0.94,4.524-0.94
			S143.065,14.242,141.202,16.105z"/>
		<path fill="#5BB246" d="M143.624,27.201c-1.863,1.863-4.524,0.94-4.524,0.94s-0.923-2.661,0.94-4.524s4.524-0.94,4.524-0.94
			C144.565,22.677,145.488,25.338,143.624,27.201z"/>
		<path fill="#5BB246" d="M127.458,42.445c-1.863-1.863-0.94-4.524-0.94-4.524s2.661-0.923,4.524,0.94
			c1.863,1.863,0.94,4.524,0.94,4.524C131.982,43.385,129.321,44.308,127.458,42.445z"/>
		<path fill="#5BB246" d="M105.763,31.661c-1.863-1.863-0.94-4.524-0.94-4.524s2.661-0.923,4.524,0.94s0.94,4.524,0.94,4.524
			C110.287,32.601,107.627,33.524,105.763,31.661z"/>
		<path fill="#5BB246" d="M98.982,31.234c-1.863-1.863-0.94-4.524-0.94-4.524s2.661-0.923,4.524,0.94s0.94,4.524,0.94,4.524
			S100.845,33.097,98.982,31.234z"/>
		<path fill="#5BB246" d="M103.187,24.582c-1.863-1.863-0.94-4.524-0.94-4.524s2.661-0.923,4.524,0.94s0.94,4.524,0.94,4.524
			C107.711,25.522,105.05,26.445,103.187,24.582z"/>
		<path fill="#5BB246" d="M134.657,44.211c-1.863-1.863-0.94-4.524-0.94-4.524s2.661-0.923,4.524,0.94s0.94,4.524,0.94,4.524
			C139.181,45.151,136.521,46.074,134.657,44.211z"/>
		<path fill="#5BB246" d="M121.874,22.85c-1.863-1.863-0.94-4.524-0.94-4.524s2.661-0.923,4.524,0.94s0.94,4.524,0.94,4.524
			C126.398,23.791,123.737,24.713,121.874,22.85z"/>
		<path fill="#5BB246" d="M123.981,17.23c-1.863-1.863-0.94-4.524-0.94-4.524s2.661-0.923,4.524,0.94
			c1.863,1.863,0.94,4.524,0.94,4.524C128.505,18.17,125.844,19.093,123.981,17.23z"/>
		<path fill="#5BB246" d="M112.545,48.149c0,2.635-2.534,3.864-2.534,3.864s-2.534-1.229-2.534-3.864s2.534-3.864,2.534-3.864
			S112.545,45.514,112.545,48.149z"/>
	</g>
	<g>
		<path fill="#E30613" d="M113.697,24.752c-1.648,0-2.984-0.937-2.984-2.984c0-1.572,1.102-2.737,2.984-2.144
			c1.882-0.593,2.984,0.572,2.984,2.144C116.681,23.815,115.345,24.752,113.697,24.752z"/>
		<path fill="#A07843" d="M113.84,18.427c-0.022-0.015-0.265-0.015-0.286,0c-0.015,0.01,0.029,1.579,0.044,1.589
			c0.041,0.028,0.158,0.028,0.199,0C113.811,20.006,113.855,18.437,113.84,18.427z"/>
	</g>
	<g>
		<path fill="#E30613" d="M104.491,36.205c-1.648,0-2.984-0.937-2.984-2.984c0-1.572,1.102-2.737,2.984-2.144
			c1.882-0.593,2.984,0.572,2.984,2.144C107.475,35.268,106.139,36.205,104.491,36.205z"/>
		<path fill="#A07843" d="M104.634,29.88c-0.022-0.015-0.265-0.015-0.286,0c-0.015,0.01,0.029,1.58,0.044,1.589
			c0.041,0.028,0.158,0.028,0.199,0C104.605,31.46,104.648,29.89,104.634,29.88z"/>
	</g>
	<g>
		<path fill="#E30613" d="M116.574,45.463c-1.648,0-2.984-0.937-2.984-2.984c0-1.572,1.102-2.737,2.984-2.144
			c1.882-0.593,2.984,0.572,2.984,2.144C119.558,44.526,118.222,45.463,116.574,45.463z"/>
		<path fill="#A07843" d="M116.717,39.138c-0.022-0.015-0.265-0.015-0.286,0c-0.015,0.01,0.029,1.579,0.044,1.589
			c0.041,0.028,0.158,0.028,0.199,0C116.688,40.717,116.731,39.147,116.717,39.138z"/>
	</g>
	<g>
		<path fill="#E30613" d="M129.25,21.923c-1.648,0-2.984-0.937-2.984-2.984c0-1.572,1.102-2.737,2.984-2.144
			c1.882-0.593,2.984,0.572,2.984,2.144C132.234,20.986,130.898,21.923,129.25,21.923z"/>
		<path fill="#A07843" d="M129.393,15.598c-0.022-0.015-0.265-0.015-0.286,0c-0.015,0.01,0.029,1.579,0.044,1.589
			c0.041,0.028,0.158,0.028,0.199,0C129.364,17.178,129.407,15.608,129.393,15.598z"/>
	</g>
	<g>
		<path fill="#E30613" d="M138.043,30.93c-1.648,0-2.984-0.937-2.984-2.984c0-1.572,1.102-2.737,2.984-2.144
			c1.882-0.593,2.984,0.572,2.984,2.144C141.027,29.993,139.691,30.93,138.043,30.93z"/>
		<path fill="#A07843" d="M138.186,24.605c-0.022-0.015-0.265-0.015-0.286,0c-0.015,0.01,0.029,1.58,0.044,1.589
			c0.041,0.028,0.158,0.028,0.199,0C138.157,26.184,138.201,24.615,138.186,24.605z"/>
	</g>
	<g>
		<path fill="#E30613" d="M131.954,42.627c-1.648,0-2.984-0.937-2.984-2.984c0-1.572,1.102-2.737,2.984-2.144
			c1.882-0.593,2.984,0.572,2.984,2.144C134.938,41.69,133.602,42.627,131.954,42.627z"/>
		<path fill="#A07843" d="M132.098,36.302c-0.022-0.015-0.265-0.015-0.286,0c-0.015,0.01,0.029,1.58,0.044,1.589
			c0.041,0.028,0.158,0.028,0.199,0C132.068,37.881,132.112,36.311,132.098,36.302z"/>
	</g>
</g>
<g>
	<g>
		<g>
			<g>
				<path fill="#95C11F" d="M114.376,65.401c-17.782,0-35.563,1.724-35.563,1.724v4.636h71.126v-4.636
					C149.939,67.125,132.158,65.401,114.376,65.401z"/>
			</g>
		</g>
	</g>
</g>
<g>
	<g>
		<rect x="0.574" y="78.874" fill="#FFF1D7" width="71.126" height="71.126"/>
		<path fill="#FFEAC0" d="M0.574,122.72c18.824,7.21,49.741,11.95,71.126,4.38V78.874H0.574V122.72z"/>
		<path fill="#FFE3AB" d="M0.574,106.861c20.041,7.637,52.018,3.954,71.126-7.88V78.874H0.574V106.861z"/>
		<path fill="#FFDC93" d="M0.574,84.876c18.497,9.175,50.745,12.303,71.126,1.662v-7.664H0.574V84.876z"/>
	</g>
	<g>
		<path fill="#BB9266" d="M52.097,107.449c-1.035-0.315-1.53,2.521-2.431,3.646c-0.795,0.994-1.872,0.899-3.322,0.864
			c-0.096-2.722-0.19-5.001-0.277-6.499c-0.079-1.365-0.449-1.889-1.494-1.889l0,0c-1.046,0-1.415,0.525-1.494,1.889
			c-0.191,3.297-0.421,10.492-0.625,17.844c-2.359-0.084-5.14-1.076-6.787-3.106c-1.724-2.124-2.362-8.291-3.356-8.075
			s-0.731,7.3,1.641,10.298c1.896,2.395,4.757,4.172,8.409,4.299c-0.252,9.422-0.446,18.14-0.446,18.14h5.317
			c0,0-0.397-17.921-0.795-30.16c2.347-0.074,3.633-0.555,4.58-1.625C52.085,111.869,53.133,107.765,52.097,107.449z"/>
		<path fill="#F7A941" d="M40.953,116.67c0,2.635-2.534,3.864-2.534,3.864s-2.534-1.229-2.534-3.864s2.534-3.864,2.534-3.864
			S40.953,114.035,40.953,116.67z"/>
		<path fill="#F7A941" d="M41.723,100.858c0,2.635-2.534,3.864-2.534,3.864s-2.534-1.229-2.534-3.864s2.534-3.864,2.534-3.864
			S41.723,98.223,41.723,100.858z"/>
		<path fill="#F7A941" d="M35.635,102.514c0,2.635-2.534,3.864-2.534,3.864s-2.534-1.229-2.534-3.864s2.534-3.864,2.534-3.864
			S35.635,99.879,35.635,102.514z"/>
		<path fill="#F07F3C" d="M37.993,94.461c0,2.635-2.534,3.864-2.534,3.864s-2.534-1.229-2.534-3.864s2.534-3.864,2.534-3.864
			S37.993,91.826,37.993,94.461z"/>
		<path fill="#F07F3C" d="M43.659,91.734c0,2.635-2.534,3.864-2.534,3.864s-2.534-1.229-2.534-3.864s2.534-3.864,2.534-3.864
			S43.659,89.099,43.659,91.734z"/>
		<path fill="#F7A941" d="M56.675,94.58c0,2.635-2.534,3.864-2.534,3.864s-2.534-1.229-2.534-3.864s2.534-3.864,2.534-3.864
			S56.675,91.945,56.675,94.58z"/>
		<path fill="#F07F3C" d="M54.141,102.308c0,2.635-2.534,3.864-2.534,3.864s-2.534-1.229-2.534-3.864s2.534-3.864,2.534-3.864
			S54.141,99.673,54.141,102.308z"/>
		<path fill="#F07F3C" d="M26.399,116.764c-2.635,0-3.864-2.534-3.864-2.534s1.229-2.534,3.864-2.534s3.864,2.534,3.864,2.534
			S29.034,116.764,26.399,116.764z"/>
		<path fill="#F7A941" d="M55.941,116.594c-2.635,0-3.864-2.534-3.864-2.534s1.229-2.534,3.864-2.534s3.864,2.534,3.864,2.534
			C59.804,114.06,58.576,116.594,55.941,116.594z"/>
		<path fill="#F07F3C" d="M38.803,110.753c-1.863,1.863-4.524,0.94-4.524,0.94s-0.923-2.661,0.94-4.524s4.524-0.94,4.524-0.94
			C39.743,106.229,40.666,108.89,38.803,110.753z"/>
		<path fill="#F7A941" d="M60.002,102c-1.863,1.863-4.524,0.94-4.524,0.94s-0.923-2.661,0.94-4.524s4.524-0.94,4.524-0.94
			C60.943,97.476,61.866,100.137,60.002,102z"/>
		<path fill="#F07F3C" d="M58.468,109.132c-1.863,1.863-4.524,0.94-4.524,0.94s-0.923-2.661,0.94-4.524s4.524-0.94,4.524-0.94
			C59.408,104.608,60.331,107.268,58.468,109.132z"/>
		<path fill="#F7A941" d="M29.825,122.45c-1.863,1.863-4.524,0.94-4.524,0.94s-0.923-2.661,0.94-4.524s4.524-0.94,4.524-0.94
			C30.766,117.926,31.689,120.587,29.825,122.45z"/>
		<path fill="#F07F3C" d="M49.219,120.684c-1.863-1.863-0.94-4.524-0.94-4.524s2.661-0.923,4.524,0.94s0.94,4.524,0.94,4.524
			S51.082,122.547,49.219,120.684z"/>
		<path fill="#F07F3C" d="M27.525,109.9c-1.863-1.863-0.94-4.524-0.94-4.524s2.661-0.923,4.524,0.94s0.94,4.524,0.94,4.524
			C32.049,110.84,29.388,111.763,27.525,109.9z"/>
		<path fill="#F7A941" d="M43.635,101.089c-1.863-1.863-0.94-4.524-0.94-4.524s2.661-0.923,4.524,0.94
			c1.863,1.863,0.94,4.524,0.94,4.524S45.498,102.952,43.635,101.089z"/>
		<path fill="#F7A941" d="M45.742,95.469c-1.863-1.863-0.94-4.524-0.94-4.524s2.661-0.923,4.524,0.94
			c1.863,1.863,0.94,4.524,0.94,4.524C50.266,96.409,47.606,97.332,45.742,95.469z"/>
	</g>
	<g>
		<g>
			<g>
				<g>
					<path fill="#FBBA00" d="M36.137,143.64c-17.782,0-35.563,1.724-35.563,1.724V150H71.7v-4.636
						C71.7,145.364,53.919,143.64,36.137,143.64z"/>
				</g>
			</g>
		</g>
	</g>
</g>
<g>
	<g>
		<linearGradient id="SVGID_1_" gradientUnits="userSpaceOnUse" x1="114.376" y1="150" x2="114.376" y2="78.874">
			<stop  offset="0" style="stop-color:#FFFFFF"/>
			<stop  offset="1" style="stop-color:#91BFE7"/>
		</linearGradient>
		<rect x="78.813" y="78.874" fill="url(#SVGID_1_)" width="71.126" height="71.126"/>
		<path fill="#F9FAFB" d="M94.115,114.712c-0.818,0-1.48,0.663-1.48,1.48s0.663,1.48,1.48,1.48c0.818,0,1.48-0.663,1.48-1.48
			S94.932,114.712,94.115,114.712z M90.46,96.816c-0.818,0-1.48,0.663-1.48,1.48c0,0.818,0.663,1.48,1.48,1.48
			c0.818,0,1.48-0.663,1.48-1.48C91.941,97.479,91.278,96.816,90.46,96.816z M99.652,86.968c-0.818,0-1.48,0.663-1.48,1.48
			s0.663,1.48,1.48,1.48c0.818,0,1.48-0.663,1.48-1.48S100.47,86.968,99.652,86.968z M102.354,104.897
			c-0.818,0-1.48,0.663-1.48,1.48s0.663,1.48,1.48,1.48c0.818,0,1.48-0.663,1.48-1.48S103.171,104.897,102.354,104.897z
			 M83.908,81.884c-0.818,0-1.48,0.663-1.48,1.48c0,0.818,0.663,1.48,1.48,1.48c0.818,0,1.48-0.663,1.48-1.48
			C85.389,82.546,84.726,81.884,83.908,81.884z M107.477,80.403c-0.818,0-1.48,0.663-1.48,1.48s0.663,1.48,1.48,1.48
			c0.818,0,1.48-0.663,1.48-1.48S108.295,80.403,107.477,80.403z M134.199,83.364c0.818,0,1.48-0.663,1.48-1.48
			s-0.663-1.48-1.48-1.48c-0.818,0-1.48,0.663-1.48,1.48S133.381,83.364,134.199,83.364z M144.793,97.247
			c0,0.818,0.663,1.48,1.48,1.48c0.818,0,1.48-0.663,1.48-1.48c0-0.818-0.663-1.48-1.48-1.48S144.793,96.43,144.793,97.247z
			 M82.981,118.317c-0.818,0-1.48,0.663-1.48,1.48c0,0.818,0.663,1.48,1.48,1.48c0.818,0,1.48-0.663,1.48-1.48
			C84.461,118.98,83.798,118.317,82.981,118.317z M120.383,84.579c-0.818,0-1.48,0.663-1.48,1.48s0.663,1.48,1.48,1.48
			c0.818,0,1.48-0.663,1.48-1.48S121.2,84.579,120.383,84.579z M146.449,85.166c0-0.818-0.663-1.48-1.48-1.48
			c-0.818,0-1.48,0.663-1.48,1.48s0.663,1.48,1.48,1.48C145.786,86.646,146.449,85.984,146.449,85.166z M134.199,113.232
			c-0.818,0-1.48,0.663-1.48,1.48c0,0.818,0.663,1.48,1.48,1.48c0.818,0,1.48-0.663,1.48-1.48
			C135.679,113.894,135.016,113.232,134.199,113.232z M141.832,119.797c-0.818,0-1.48,0.663-1.48,1.48s0.663,1.48,1.48,1.48
			c0.818,0,1.48-0.663,1.48-1.48S142.65,119.797,141.832,119.797z M146.274,106.666c-0.818,0-1.48,0.663-1.48,1.48
			c0,0.818,0.663,1.48,1.48,1.48c0.818,0,1.48-0.663,1.48-1.48S147.091,106.666,146.274,106.666z M116.72,115.189
			c-0.818,0-1.48,0.663-1.48,1.48c0,0.818,0.663,1.48,1.48,1.48c0.818,0,1.48-0.663,1.48-1.48
			C118.2,115.852,117.537,115.189,116.72,115.189z M113.59,95.767c-0.818,0-1.48,0.663-1.48,1.48c0,0.818,0.663,1.48,1.48,1.48
			c0.818,0,1.48-0.663,1.48-1.48C115.071,96.43,114.408,95.767,113.59,95.767z M133.435,96.337c0-0.818-0.663-1.48-1.48-1.48
			c-0.818,0-1.48,0.663-1.48,1.48s0.663,1.48,1.48,1.48S133.435,97.154,133.435,96.337z M130.316,125.954
			c-0.818,0-1.48,0.663-1.48,1.48s0.663,1.48,1.48,1.48c0.818,0,1.48-0.663,1.48-1.48S131.133,125.954,130.316,125.954z"/>
	</g>
	<g>
		<path fill="#BB9266" d="M130.336,107.449c-1.035-0.315-1.53,2.521-2.431,3.646c-0.795,0.994-1.872,0.899-3.322,0.864
			c-0.096-2.722-0.19-5.001-0.277-6.499c-0.079-1.365-0.449-1.889-1.494-1.889l0,0c-1.046,0-1.415,0.525-1.494,1.889
			c-0.191,3.297-0.421,10.492-0.625,17.844c-2.359-0.084-5.14-1.076-6.787-3.106c-1.724-2.124-2.362-8.291-3.356-8.075
			s-0.731,7.3,1.641,10.298c1.896,2.395,4.757,4.172,8.409,4.299c-0.252,9.422-0.446,18.14-0.446,18.14h5.317
			c0,0-0.397-17.921-0.795-30.16c2.347-0.074,3.633-0.555,4.58-1.625C130.324,111.869,131.371,107.765,130.336,107.449z"/>
	</g>
</g>
</svg>
