<?xml version="1.0" encoding="utf-8"?>
<!DOCTYPE svg PUBLIC "-//W3C//DTD SVG 1.1//EN" "http://www.w3.org/Graphics/SVG/1.1/DTD/svg11.dtd">
<svg version="1.1" id="Слой_1" xmlns="http://www.w3.org/2000/svg" xmlns:xlink="http://www.w3.org/1999/xlink" x="0px" y="0px"
	 width="150px" height="150px" viewBox="0 0 150 150" enable-background="new 0 0 150 150" xml:space="preserve">
<g>
	<radialGradient id="SVGID_1_" cx="90.8536" cy="32.9405" r="32.0752" gradientUnits="userSpaceOnUse">
		<stop  offset="0.2303" style="stop-color:#913B1C"/>
		<stop  offset="0.339" style="stop-color:#95401D"/>
		<stop  offset="0.4961" style="stop-color:#A0501F"/>
		<stop  offset="0.6826" style="stop-color:#B36B21"/>
		<stop  offset="0.8899" style="stop-color:#D09321"/>
		<stop  offset="1" style="stop-color:#E3AD20"/>
	</radialGradient>
	<path fill="url(#SVGID_1_)" d="M88.883,24.891c0,0-10.619,4.205-10.418,8.018c0,0-1.401,12.014,23.244,15.026
		c0,0,14.627-4.211,16.025-7.614c0,0,0.361-1.35-0.449-2.263c-1.717-1.954-5.358-4.752-5.358-8.161L88.883,24.891z"/>
	<linearGradient id="SVGID_2_" gradientUnits="userSpaceOnUse" x1="21.9526" y1="107.6171" x2="60.5698" y2="39.8226">
		<stop  offset="0" style="stop-color:#F9C600"/>
		<stop  offset="0.1562" style="stop-color:#FACA00"/>
		<stop  offset="0.5847" style="stop-color:#FCD300"/>
		<stop  offset="1" style="stop-color:#FCD500"/>
	</linearGradient>
	<path fill="url(#SVGID_2_)" d="M80.757,34.815c0,0-1.419-0.204-6.293,7.312c0,0-9.956,5.684-14.217,9.546
		c0,0-20.107,18.477-33.104,22.947c0,0-15.23,4.466-19.897,10.151c0,0-1.967,2.664-3.594,3.885c0,0-4.65,15.904,16.854,12.804
		c0,0,53.734-5.947,57.592-50.889c0,0,0.169-6.03,6.873-10.559c0,0,2.183-2.182-1.004-4.525
		C83.967,35.487,81.91,34.145,80.757,34.815z"/>
	<linearGradient id="SVGID_3_" gradientUnits="userSpaceOnUse" x1="12.3766" y1="119.829" x2="59.1094" y2="33.5531">
		<stop  offset="0" style="stop-color:#A87824"/>
		<stop  offset="0.2204" style="stop-color:#B17D24"/>
		<stop  offset="0.5815" style="stop-color:#CA8A21"/>
		<stop  offset="1" style="stop-color:#F3A019"/>
	</linearGradient>
	<path opacity="0.4" fill="url(#SVGID_3_)" d="M73.797,45.931C49.976,89.13,16.015,91.776,2.711,90.962
		c-0.02,0.202-0.03,0.391-0.033,0.599c10.212,1.198,46.486,1.833,71.334-43.864c0,0,3.881-9.043,9.376-12.256
		c-0.078-0.045-0.849-0.529-1.693-0.74C76.986,38.621,73.797,45.931,73.797,45.931z"/>
	<linearGradient id="SVGID_4_" gradientUnits="userSpaceOnUse" x1="22.1434" y1="108.0427" x2="60.7063" y2="40.3431">
		<stop  offset="0" style="stop-color:#F8B700"/>
		<stop  offset="0.3812" style="stop-color:#F4B200"/>
		<stop  offset="0.8671" style="stop-color:#E9A41D"/>
		<stop  offset="1" style="stop-color:#E59E22"/>
	</linearGradient>
	<path fill="url(#SVGID_4_)" d="M84.105,36.026c-5.819,2.865-9.985,12.587-9.985,12.587C49.268,94.31,12.99,93.667,2.78,92.469
		c0.125,4.499,2.67,11.151,17.266,9.042c0,0,53.737-5.95,57.592-50.892c0,0,0.17-6.037,6.877-10.556
		C84.515,40.063,86.386,38.182,84.105,36.026z"/>
	<g>
		<path opacity="0.42" fill="#913B1C" d="M15.945,101.908c0,0,57.422-6.274,61.544-53.604c0,0,0.019-0.598,0.246-1.55
			c-3.192,2.696-7.934,6.89-10.394,9.918c0,0-0.27,0.331-0.75,0.93c-5.524,7.793-11.378,13.907-17.268,18.669
			c-4.533,4.275-9.312,8.199-13.569,10.469c0,0-15.644,7.461-19.656,14.272c0,0-0.198,0.383-0.517,0.938
			C15.699,101.928,15.82,101.925,15.945,101.908z"/>
	</g>
	<linearGradient id="SVGID_5_" gradientUnits="userSpaceOnUse" x1="33.1938" y1="120.9835" x2="74.3861" y2="48.6681">
		<stop  offset="0" style="stop-color:#F9C600"/>
		<stop  offset="0.1562" style="stop-color:#FACA00"/>
		<stop  offset="0.5847" style="stop-color:#FCD300"/>
		<stop  offset="1" style="stop-color:#FCD500"/>
	</linearGradient>
	<path fill="url(#SVGID_5_)" d="M86.005,38.259c0,0-1.472,0.042-5.117,8.364c0,0-9.093,7.374-12.746,11.94
		c0,0-17.175,21.857-29.557,28.548c0,0-14.637,7.082-18.391,13.544c0,0-1.531,2.987-2.965,4.477c0,0-1.984,16.612,19.229,9.797
		c0,0,53.317-15.25,49.547-60.556c0,0-0.857-6.034,5.149-11.691c0,0,1.829-2.538-1.791-4.316
		C89.363,38.366,87.057,37.401,86.005,38.259z"/>
	<linearGradient id="SVGID_6_" gradientUnits="userSpaceOnUse" x1="19.8757" y1="134.8072" x2="70.7867" y2="40.8174">
		<stop  offset="0" style="stop-color:#A87824"/>
		<stop  offset="0.2204" style="stop-color:#B17D24"/>
		<stop  offset="0.5815" style="stop-color:#CA8A21"/>
		<stop  offset="1" style="stop-color:#F3A019"/>
	</linearGradient>
	<path opacity="0.4" fill="url(#SVGID_6_)" d="M80.724,50.279c-16.714,47.051-50.603,55.577-64.196,57.08
		c0.019,0.193,0.039,0.392,0.07,0.6c10.526-0.592,47.319-6.254,64.648-55.958c0,0,2.375-9.666,7.388-13.798
		c-0.092-0.046-0.951-0.39-1.84-0.448C82.701,42.464,80.724,50.279,80.724,50.279z"/>
	<linearGradient id="SVGID_7_" gradientUnits="userSpaceOnUse" x1="33.6412" y1="121.6275" x2="74.8284" y2="49.3211">
		<stop  offset="0" style="stop-color:#F8B700"/>
		<stop  offset="0.3812" style="stop-color:#F4B200"/>
		<stop  offset="0.8671" style="stop-color:#E9A41D"/>
		<stop  offset="1" style="stop-color:#E59E22"/>
	</linearGradient>
	<path fill="url(#SVGID_7_)" d="M89.594,38.885c-5.394,3.861-7.948,14.23-7.948,14.23c-17.327,49.714-54.12,55.376-64.651,55.964
		c0.9,4.436,4.602,10.606,19.003,5.977c0,0,53.315-15.246,49.549-60.553c0,0-0.863-6.031,5.15-11.684
		C90.697,42.819,92.267,40.621,89.594,38.885z"/>
	<radialGradient id="SVGID_8_" cx="17.4319" cy="107.6952" r="6.8451" gradientUnits="userSpaceOnUse">
		<stop  offset="0.2303" style="stop-color:#AC5724"/>
		<stop  offset="0.3615" style="stop-color:#AF5D24"/>
		<stop  offset="0.5509" style="stop-color:#B96E24"/>
		<stop  offset="0.7754" style="stop-color:#CB8924"/>
		<stop  offset="1" style="stop-color:#E3AD20"/>
	</radialGradient>
	<path fill="url(#SVGID_8_)" d="M16.704,104.556c0,0,3.567,0.73,3.753,7.136c0,0-0.824,3.29-2.56,1.096
		C17.897,112.788,14.691,109.861,16.704,104.556z"/>
	<linearGradient id="SVGID_9_" gradientUnits="userSpaceOnUse" x1="98.0623" y1="24.8275" x2="96.1432" y2="40.8199">
		<stop  offset="0" style="stop-color:#008E3B"/>
		<stop  offset="0.1163" style="stop-color:#409437"/>
		<stop  offset="0.355" style="stop-color:#939E2E"/>
		<stop  offset="0.5714" style="stop-color:#C1A224"/>
		<stop  offset="0.7578" style="stop-color:#DDA31D"/>
		<stop  offset="0.9069" style="stop-color:#EDA219"/>
		<stop  offset="1" style="stop-color:#F3A217"/>
	</linearGradient>
	<path fill="url(#SVGID_9_)" d="M82.64,30.881c2.159-2.758,6.643-4.588,6.643-4.588l19.839,4.015
		c4.605,2.797,1.403,7.007,1.403,7.007c-14.023,6.056-25.049-2.541-27.789-4.986C82.669,31.886,82.643,31.403,82.64,30.881"/>
	<path opacity="0.54" fill="#5B2815" d="M86.817,26.724c0,0,6.179,5.813,27.452,8.536c0,0-2.099-1.974-2.473-4.076L86.94,24.872
		L86.817,26.724z"/>
	<path opacity="0.42" fill="#913B1C" d="M85.053,66.72c0,0-9.736,22.473-29.756,32.301c0,0-11.468,5.553-10.918,12.923
		c0,0,18.377-9.004,27.57-19.748C71.948,92.196,87.6,73.996,85.053,66.72z"/>
	<linearGradient id="SVGID_10_" gradientUnits="userSpaceOnUse" x1="59.8267" y1="124.2911" x2="96.6665" y2="59.6168">
		<stop  offset="0" style="stop-color:#F9C600"/>
		<stop  offset="0.1562" style="stop-color:#FACA00"/>
		<stop  offset="0.5847" style="stop-color:#FCD300"/>
		<stop  offset="1" style="stop-color:#FCD500"/>
	</linearGradient>
	<path fill="url(#SVGID_10_)" d="M90.469,45.444c0,0,0.202,14.903-4.63,20.752c0,0-6.653,23.372-29.018,34.058
		c0,0-7.056,2.82-8.664,8.062l-1.211,1.206l-0.203,6.449l2.621,3.016c0,0,19.146,13.909,40.706-11.28c0,0,21.768-28.814,8.06-47.761
		c0,0-3.023-6.848,0.199-12.286c0,0,1.411-4.037-3.223-5.643C95.108,42.016,89.829,40.583,90.469,45.444z"/>
	<linearGradient id="SVGID_11_" gradientUnits="userSpaceOnUse" x1="51.6521" y1="133.3323" x2="90.3211" y2="61.9431">
		<stop  offset="0" style="stop-color:#A87824"/>
		<stop  offset="0.2204" style="stop-color:#B17D24"/>
		<stop  offset="0.5815" style="stop-color:#CA8A21"/>
		<stop  offset="1" style="stop-color:#F3A019"/>
	</linearGradient>
	<path opacity="0.4" fill="url(#SVGID_11_)" d="M96.824,58.589c-0.445-1.057-0.951-2.118-1.349-3.182
		c3.442,41.609-29.771,53.1-46.893,56.259c0.302,0.384,0.554,0.811,0.702,1.34C65.51,110.335,99.922,99.793,96.824,58.589z"/>
	<linearGradient id="SVGID_12_" gradientUnits="userSpaceOnUse" x1="60.6247" y1="125.0489" x2="91.6218" y2="70.6316">
		<stop  offset="0" style="stop-color:#F8B700"/>
		<stop  offset="0.3812" style="stop-color:#F4B200"/>
		<stop  offset="0.8671" style="stop-color:#E9A41D"/>
		<stop  offset="1" style="stop-color:#E59E22"/>
	</linearGradient>
	<path fill="url(#SVGID_12_)" d="M90.071,107.891c0,0,21.742-28.789,8.076-47.726c2.541,43.656-37.644,52.116-51.334,53.727
		l-0.07,2.262l2.621,3.023C49.364,119.177,68.51,133.081,90.071,107.891z"/>
	<path opacity="0.3" fill="#FFFFFF" d="M109.461,30.095c-5.034,8.625-16.538,1.725-24.593,3.506
		c4.655,3.257,13.978,7.841,25.235,2.977C110.103,36.578,112.923,32.872,109.461,30.095z"/>
	<radialGradient id="SVGID_13_" cx="47.317" cy="113.1651" r="9.1566" gradientUnits="userSpaceOnUse">
		<stop  offset="0.2303" style="stop-color:#AC5724"/>
		<stop  offset="0.3615" style="stop-color:#AF5D24"/>
		<stop  offset="0.5509" style="stop-color:#B96E24"/>
		<stop  offset="0.7754" style="stop-color:#CB8924"/>
		<stop  offset="1" style="stop-color:#E3AD20"/>
	</radialGradient>
	<path fill="url(#SVGID_13_)" d="M46.395,109.574c0,0,3.436-1.888,5.479,3.948c0,0,1.055,3.218,0,5.175c0,0-1.759,3.167-3.481,0.855
		C48.392,119.552,42.361,114.307,46.395,109.574z"/>
	<path opacity="0.42" fill="#913B1C" d="M101.195,66.516c0,0-2.535,28.744-21.305,46.837c0,0-1.695,1.18-1.695,4.903
		c0,0,24.857-14.548,24.518-45.82C102.714,72.435,102.204,68.199,101.195,66.516z"/>
	<linearGradient id="SVGID_14_" gradientUnits="userSpaceOnUse" x1="77.6456" y1="133.0863" x2="115.4262" y2="66.7603">
		<stop  offset="0" style="stop-color:#F9C600"/>
		<stop  offset="0.1562" style="stop-color:#FACA00"/>
		<stop  offset="0.5847" style="stop-color:#FCD300"/>
		<stop  offset="1" style="stop-color:#FCD500"/>
	</linearGradient>
	<path fill="url(#SVGID_14_)" d="M98.778,46.43c0,0,4.45,6.36,4.659,14.202c0,0-1.016,1.41-1.233,5.127
		c0,0-0.948,25.289-16.681,43.894c0,0-8.289,8.177-7.863,16.047c0,0-0.634,2.016-2.021,3.185l4.075,6.111h1.064
		c0,0,5.883,3.64,13.958,0.028c0,0,6.095-2.372,11.529-7.934c13.576-13.895,32.301-43.048,6.384-69.103l-1.25-0.833
		c0,0-5.21-7.72-4.169-12.302C107.231,44.851,101.374,40.503,98.778,46.43z"/>
	<linearGradient id="SVGID_15_" gradientUnits="userSpaceOnUse" x1="79.9767" y1="134.6175" x2="117.7568" y2="68.2924">
		<stop  offset="0" style="stop-color:#F8B700"/>
		<stop  offset="0.3812" style="stop-color:#F4B200"/>
		<stop  offset="0.8671" style="stop-color:#E9A41D"/>
		<stop  offset="1" style="stop-color:#E59E22"/>
	</linearGradient>
	<path fill="url(#SVGID_15_)" d="M112.65,58.184l-1.25-0.837c0,0-5.21-7.706-4.169-12.291c0,0-0.411-0.307-1.065-0.644
		c0.201,0.893,0.128,2.192-1.587,3.043l5.239,11.69c0,0,20.415,41.731-32.016,73.178l1.915,2.877h1.064
		c0,0,5.883,3.637,13.958,0.025c0,0,6.098-2.375,11.529-7.928C119.846,113.393,138.567,84.245,112.65,58.184z"/>
	<linearGradient id="SVGID_16_" gradientUnits="userSpaceOnUse" x1="65.0977" y1="148.5463" x2="111.5115" y2="62.8592">
		<stop  offset="0" style="stop-color:#A87824"/>
		<stop  offset="0.2182" style="stop-color:#B17F23"/>
		<stop  offset="0.5755" style="stop-color:#CB921C"/>
		<stop  offset="1" style="stop-color:#F7B300"/>
	</linearGradient>
	<path opacity="0.4" fill="url(#SVGID_16_)" d="M108.552,58.642l-5.364-11.487c-0.28,0.343-0.517,0.726-0.766,1.089l4.374,9.745
		c0,0,21.214,40.763-31.218,72.205l0.846,1.629C130.742,100.011,108.552,58.642,108.552,58.642z"/>
	<radialGradient id="SVGID_17_" cx="77.14" cy="130.6004" r="7.8373" gradientUnits="userSpaceOnUse">
		<stop  offset="0.2303" style="stop-color:#913B1C"/>
		<stop  offset="0.339" style="stop-color:#95401D"/>
		<stop  offset="0.4961" style="stop-color:#A0501F"/>
		<stop  offset="0.6826" style="stop-color:#B36B21"/>
		<stop  offset="0.8899" style="stop-color:#D09321"/>
		<stop  offset="1" style="stop-color:#E3AD20"/>
	</radialGradient>
	<path fill="url(#SVGID_17_)" d="M75.12,128.919c0.079-0.176,3.045-2.718,6.096,0.205c0,0,3.05,3.955-0.453,6.671
		c0,0-2.723,1.233-5.191-3.179C75.572,132.616,73.956,131.645,75.12,128.919z"/>
	<path opacity="0.42" fill="#913B1C" d="M119.017,66.147c0,0,6.919,22.603-4.47,45.639c-0.266,1.859-0.346,3.662,0.058,5.352
		C119.67,110.034,133.261,87.405,119.017,66.147z"/>
	<linearGradient id="SVGID_18_" gradientUnits="userSpaceOnUse" x1="103.5855" y1="117.7719" x2="133.8696" y2="64.6064">
		<stop  offset="0" style="stop-color:#F9C600"/>
		<stop  offset="0.1562" style="stop-color:#FACA00"/>
		<stop  offset="0.5847" style="stop-color:#FCD300"/>
		<stop  offset="1" style="stop-color:#FCD500"/>
	</linearGradient>
	<path fill="url(#SVGID_18_)" d="M110.019,45.636c0,0,9.291,11.539,9.123,19.044c0,0,9.173,22.316-1.621,44.253
		c0,0-3.731,6.488-1.772,11.562l-0.196,1.68l3.795,5.16l3.88,0.773c0,0,23.357-0.752,24.633-33.547c0,0-0.791-35.751-23.019-42.237
		c0,0-6.54-3.521-7.377-9.731c0,0-1.378-4.009-5.957-2.451C111.509,40.144,106.543,42.217,110.019,45.636z"/>
	<linearGradient id="SVGID_19_" gradientUnits="userSpaceOnUse" x1="98.0748" y1="128.7601" x2="132.4638" y2="65.2726">
		<stop  offset="0" style="stop-color:#A87824"/>
		<stop  offset="0.2182" style="stop-color:#B17F23"/>
		<stop  offset="0.5755" style="stop-color:#CB921C"/>
		<stop  offset="1" style="stop-color:#F7B300"/>
	</linearGradient>
	<path opacity="0.4" fill="url(#SVGID_19_)" d="M122.775,51.776c-0.993-0.566-2.037-1.082-2.989-1.666
		c28.156,30.436,9.458,59.599-1.871,72.461c0.464,0.121,0.92,0.295,1.362,0.624C130.217,111.255,150.421,82.109,122.775,51.776z"/>
	<linearGradient id="SVGID_20_" gradientUnits="userSpaceOnUse" x1="111.8335" y1="122.59" x2="139.9766" y2="73.1833">
		<stop  offset="0" style="stop-color:#F8B700"/>
		<stop  offset="0.3812" style="stop-color:#F4B200"/>
		<stop  offset="0.8671" style="stop-color:#E9A41D"/>
		<stop  offset="1" style="stop-color:#E59E22"/>
	</linearGradient>
	<path fill="url(#SVGID_20_)" d="M147.972,94.708c0,0-0.785-35.712-22.986-42.225c28.717,32.589,2.765,63.616-6.857,73.191
		l1.337,1.809l3.876,0.769C123.342,128.251,146.7,127.504,147.972,94.708z"/>
	<radialGradient id="SVGID_21_" cx="118.2662" cy="123.8129" r="9.0314" gradientUnits="userSpaceOnUse">
		<stop  offset="0.2303" style="stop-color:#913B1C"/>
		<stop  offset="0.339" style="stop-color:#95401D"/>
		<stop  offset="0.4961" style="stop-color:#A0501F"/>
		<stop  offset="0.6826" style="stop-color:#B36B21"/>
		<stop  offset="0.8899" style="stop-color:#D09321"/>
		<stop  offset="1" style="stop-color:#E3AD20"/>
	</radialGradient>
	<path fill="url(#SVGID_21_)" d="M115.153,122.552c0,0,1.519-3.566,6.672-0.236c0,0,2.788,1.864,3.166,4.035
		c0,0,0.579,3.551-2.171,2.788C122.82,129.14,114.931,128.698,115.153,122.552z"/>
	<path opacity="0.42" fill="#913B1C" d="M94.766,42.335c0,0,3.436,0.73,3.333,4.886c0,0-2.811,3.654-0.884,10.62l-0.417-0.205
		C96.798,57.636,94.458,55.34,94.766,42.335z"/>
	<path opacity="0.42" fill="#913B1C" d="M110.768,41.231c0,0,3.499-2.154,6.196,1.291c0,0,0.898,5.406,4.246,7.603
		c0,0-5.646-2.602-7.796-7.344C113.413,42.781,112.463,41.426,110.768,41.231z"/>
	<path opacity="0.18" fill="#913B1C" d="M3.962,88.245c0,0,5.543,0.392,4.095,8.45c0,0-1.718,5.285-4.888-0.266L3.962,88.245z"/>
	<radialGradient id="SVGID_22_" cx="3.5832" cy="91.3102" r="7.2261" gradientUnits="userSpaceOnUse">
		<stop  offset="0.2303" style="stop-color:#AC5724"/>
		<stop  offset="0.3615" style="stop-color:#AF5D24"/>
		<stop  offset="0.5509" style="stop-color:#B96E24"/>
		<stop  offset="0.7754" style="stop-color:#CB8924"/>
		<stop  offset="1" style="stop-color:#E3AD20"/>
	</radialGradient>
	<path fill="url(#SVGID_22_)" d="M3.344,88.089c0,0,5.127,0.454,3.387,6.95c0,0-2.102,3.477-3.656,1.826
		C3.075,96.865,0.417,92.115,3.344,88.089z"/>
	<linearGradient id="SVGID_23_" gradientUnits="userSpaceOnUse" x1="22.1005" y1="97.6983" x2="45.6678" y2="56.3244">
		<stop  offset="0" style="stop-color:#FFFFFF"/>
		<stop  offset="0.0909" style="stop-color:#FFF5DF"/>
		<stop  offset="0.2223" style="stop-color:#FEE7B2"/>
		<stop  offset="0.3554" style="stop-color:#FCDC88"/>
		<stop  offset="0.4877" style="stop-color:#FBD262"/>
		<stop  offset="0.6188" style="stop-color:#FACB41"/>
		<stop  offset="0.7486" style="stop-color:#F8C624"/>
		<stop  offset="0.8764" style="stop-color:#F8C304"/>
		<stop  offset="1" style="stop-color:#F8C200"/>
	</linearGradient>
	<path opacity="0.58" fill="url(#SVGID_23_)" d="M6.806,88.611c0,0,1.074,1.201,1.609,1.747c0,0,34.701,0.401,57.346-33.372
		c0,0-10.226,15.022-47.608,25.209C18.153,82.195,9.756,84.992,6.806,88.611z"/>
	
		<linearGradient id="SVGID_24_" gradientUnits="userSpaceOnUse" x1="64.1485" y1="128.0913" x2="87.7099" y2="86.7278" gradientTransform="matrix(1.0043 -0.1309 0.1378 1.0576 -45.921 -15.796)">
		<stop  offset="0" style="stop-color:#FFFFFF"/>
		<stop  offset="0.0909" style="stop-color:#FFF5DF"/>
		<stop  offset="0.2223" style="stop-color:#FEE7B2"/>
		<stop  offset="0.3554" style="stop-color:#FCDC88"/>
		<stop  offset="0.4877" style="stop-color:#FBD262"/>
		<stop  offset="0.6188" style="stop-color:#FACB41"/>
		<stop  offset="0.7486" style="stop-color:#F8C624"/>
		<stop  offset="0.8764" style="stop-color:#F8C304"/>
		<stop  offset="1" style="stop-color:#F8C200"/>
	</linearGradient>
	<path opacity="0.58" fill="url(#SVGID_24_)" d="M19.54,103.668c0,0,1.241,1.14,1.855,1.635c0,0,34.903-4.117,52.994-42.785
		c0,0-8.201,17.218-44.343,32.88C30.046,95.398,22.003,99.454,19.54,103.668z"/>
	<linearGradient id="SVGID_25_" gradientUnits="userSpaceOnUse" x1="99.922" y1="12.4746" x2="97.4881" y2="32.7559">
		<stop  offset="0" style="stop-color:#7B8C2B"/>
		<stop  offset="0.0844" style="stop-color:#8B9029"/>
		<stop  offset="0.3897" style="stop-color:#B99922"/>
		<stop  offset="0.655" style="stop-color:#D99F1C"/>
		<stop  offset="0.8673" style="stop-color:#ECA118"/>
		<stop  offset="1" style="stop-color:#F3A217"/>
	</linearGradient>
	<path fill="url(#SVGID_25_)" d="M74.89,12.836c0,0-5.689,1.227-4.871,5.896c0,0,0,2.433,4.669,3.858
		c0,0,27.823,10.157,47.519,10.561c0,0,5.753,0.211,5.144-6.29c0,0,0.342-5.695-8.799-5.492c0,0-29.647-2.233-40.006-7.512
		C78.548,13.857,76.515,12.432,74.89,12.836z"/>
	<path opacity="0.42" fill="#FFFFFF" d="M71.111,16.201c0,0,24.703,10.979,48.86,10.616c0,0-1.099,2.385,0.186,4.569
		c0,0-35.136-5.112-49.409-13.904C70.747,17.482,70.561,16.758,71.111,16.201z"/>
	<linearGradient id="SVGID_26_" gradientUnits="userSpaceOnUse" x1="122.4551" y1="37.397" x2="128.27" y2="-1.9085">
		<stop  offset="0" style="stop-color:#93501C"/>
		<stop  offset="0.1663" style="stop-color:#906721"/>
		<stop  offset="0.4441" style="stop-color:#858629"/>
		<stop  offset="0.6858" style="stop-color:#75992E"/>
		<stop  offset="0.8792" style="stop-color:#66A431"/>
		<stop  offset="1" style="stop-color:#5FA832"/>
	</linearGradient>
	<path fill="url(#SVGID_26_)" d="M127.352,27.463c0,2.993-1.526,5.413-3.404,5.413c-1.108,0-2.454-0.16-3.073-1.459
		c-0.437-0.907-0.333-2.717-0.333-3.954c0-2.984,0.942-5.294,2.825-5.294C125.249,22.169,127.352,24.478,127.352,27.463z"/>
	<linearGradient id="SVGID_27_" gradientUnits="userSpaceOnUse" x1="111.1624" y1="114.7108" x2="133.2725" y2="75.8952">
		<stop  offset="0" style="stop-color:#FFFFFF"/>
		<stop  offset="0.0615" style="stop-color:#FFFAF0"/>
		<stop  offset="0.3262" style="stop-color:#FEE6AF"/>
		<stop  offset="0.5617" style="stop-color:#FCD674"/>
		<stop  offset="0.7594" style="stop-color:#FACB42"/>
		<stop  offset="0.9116" style="stop-color:#F8C418"/>
		<stop  offset="1" style="stop-color:#F8C200"/>
	</linearGradient>
	<path opacity="0.7" fill="url(#SVGID_27_)" d="M119.677,119.298c0,0,25.289-28.707,8.69-56.314c0,0,2.945,21.252-4.189,34.283
		c0,0-6.05,11.636-6.05,15.361C118.127,112.627,117.034,120.998,119.677,119.298z"/>
	<linearGradient id="SVGID_28_" gradientUnits="userSpaceOnUse" x1="62.5589" y1="112.5619" x2="85.9521" y2="71.4939">
		<stop  offset="0" style="stop-color:#FFFFFF"/>
		<stop  offset="0.0615" style="stop-color:#FFFAF0"/>
		<stop  offset="0.3262" style="stop-color:#FEE6AF"/>
		<stop  offset="0.5617" style="stop-color:#FCD674"/>
		<stop  offset="0.7594" style="stop-color:#FACB42"/>
		<stop  offset="0.9116" style="stop-color:#F8C418"/>
		<stop  offset="1" style="stop-color:#F8C200"/>
	</linearGradient>
	<path opacity="0.53" fill="url(#SVGID_28_)" d="M55.677,108.945c0,0,35.954-6.973,38.82-43.288c0,0-1.249,18.069-27.192,33.278
		C67.305,98.935,50.305,107.879,55.677,108.945z"/>
	<linearGradient id="SVGID_29_" gradientUnits="userSpaceOnUse" x1="83.387" y1="124.4865" x2="109.4525" y2="78.7271">
		<stop  offset="0" style="stop-color:#FFFFFF"/>
		<stop  offset="0.0615" style="stop-color:#FFFAF0"/>
		<stop  offset="0.3262" style="stop-color:#FEE6AF"/>
		<stop  offset="0.5617" style="stop-color:#FCD674"/>
		<stop  offset="0.7594" style="stop-color:#FACB42"/>
		<stop  offset="0.9116" style="stop-color:#F8C418"/>
		<stop  offset="1" style="stop-color:#F8C200"/>
	</linearGradient>
	<path opacity="0.7" fill="url(#SVGID_29_)" d="M109.311,66.72c0,0,7.024,34.347-26.327,57.423c0,0-6.521,1.5,6.771-10.788
		C89.755,113.355,110.314,96.304,109.311,66.72z"/>
</g>
</svg>
