<?xml version="1.0" encoding="utf-8"?>
<!-- Generator: Adobe Illustrator 17.0.0, SVG Export Plug-In . SVG Version: 6.00 Build 0)  -->
<!DOCTYPE svg PUBLIC "-//W3C//DTD SVG 1.1//EN" "http://www.w3.org/Graphics/SVG/1.1/DTD/svg11.dtd">
<svg version="1.1" id="Слой_1" xmlns="http://www.w3.org/2000/svg" xmlns:xlink="http://www.w3.org/1999/xlink" x="0px" y="0px"
	 width="3200px" height="400px" viewBox="0 0 3200 400" enable-background="new 0 0 3200 400" xml:space="preserve">
<g>
	<g transform="translate(0.000000,150.000000) scale(0.100000,-0.100000)">
		<path fill="none" stroke="#000000" stroke-width="20" stroke-miterlimit="10" d="M1638.391,1243.037
			c-52.733-4.794-105.467-19.176-117.451-31.161c-38.351-38.351,11.985-237.3,93.482-359.545
			c43.145-64.718,86.291-148.612,93.482-184.567c9.588-38.352,47.939-364.339,86.291-726.281s86.291-767.03,107.864-898.863
			c45.542-304.415,45.542-330.782-7.191-388.309c-35.954-40.748-62.321-47.939-153.406-38.351
			c-59.924,7.191-115.054,2.397-122.245-7.191c-14.382-26.367,64.718-474.6,100.673-570.478
			c71.909-186.964,263.667-349.957,412.279-349.957c76.703,0,103.07,16.779,182.169,105.467
			c95.879,110.26,151.009,239.697,151.009,364.339c0,38.351-16.779,174.979-40.749,302.018l-38.351,234.903h-79.1
			c-43.145,0-86.291-9.588-93.482-23.97c-23.97-38.352-95.879-28.764-136.627,19.176c-26.367,28.764-45.542,141.421-64.718,388.309
			c-14.382,191.757-40.748,467.409-59.924,611.227c-19.176,146.215-52.733,441.042-71.909,654.372
			c-38.352,385.912-35.955,395.5,11.985,505.76c33.558,83.894,45.542,153.406,40.749,256.476l-7.191,141.421l-95.879,2.397
			C1777.415,1252.625,1691.124,1247.831,1638.391,1243.037z"/>
	</g>
</g>
<g>
	<g transform="translate(0.000000,150.000000) scale(0.100000,-0.100000)">
		<path fill="none" stroke="#000000" stroke-width="20" stroke-miterlimit="10" d="M4351.434,1170.719
			c-36.126-39.136-66.231-99.346-66.231-132.461c0-63.22,343.196-538.877,529.846-731.549
			c57.199-60.21,102.356-129.451,102.356-156.545c0-69.241,132.461-216.755,258.902-298.038
			c99.346-60.21,102.356-66.231,54.189-120.42c-57.199-63.22-186.65-102.357-439.531-132.461
			c-96.336-9.031-174.608-30.105-174.608-39.136c0-54.189,918.199-948.304,1153.017-1122.912
			c541.888-406.416,1089.796-659.297,1420.95-659.297c222.776,0,331.154,42.147,445.552,180.629
			c105.367,123.43,126.44,264.923,84.293,514.793c-99.346,538.877-430.5,975.398-1216.237,1589.538
			c-364.269,279.975-304.06,279.975-587.045,27.094C5781.416-30.466,5736.258-54.55,5636.912-54.55
			c-78.272,0-114.398,12.042-102.356,30.105c51.178,81.283-213.745,481.678-319.112,481.678c-30.104,0-57.199,18.063-57.199,42.147
			c0,51.178-240.839,358.248-457.594,584.035C4532.063,1258.023,4450.78,1279.097,4351.434,1170.719z"/>
	</g>
</g>
<g>
	<g transform="translate(0.000000,150.000000) scale(0.100000,-0.100000)">
		<path fill="none" stroke="#000000" stroke-width="20" stroke-miterlimit="10" d="M10600.784,802.996
			c-140.6-120.867-167.733-157.867-150.467-219.533c9.867-34.533-24.666-78.933-123.333-157.867
			c-74-61.667-209.667-197.333-300.934-303.4c-160.333-187.467-254.066-266.4-1043.399-890.467
			c-407-320.667-833.734-705.467-833.734-752.333c0-66.6,115.933-160.333,226.933-187.467
			c175.134-41.933,182.534-37,268.867,113.467c106.066,187.467,180.066,256.533,712.866,673.4
			c473.601,370,693.134,557.467,1142.067,969.4c199.8,185,273.8,239.267,296,217.067c14.8-14.8,51.8-27.133,83.866-27.133
			c69.066,0,96.2-49.333,226.934-448.933c59.2-175.133,118.399-315.733,135.666-315.733c49.334,0,251.601,138.133,357.667,244.2
			c86.333,86.333,249.134,330.533,249.134,374.933c0,7.4-74,46.867-162.801,83.867c-236.8,101.133-429.199,234.333-670.933,463.733
			C10701.918,936.196,10738.918,923.863,10600.784,802.996z"/>
	</g>
</g>
<g>
	<g transform="translate(0.000000,150.000000) scale(0.100000,-0.100000)">
		<path fill="none" stroke="#000000" stroke-width="20" stroke-miterlimit="10" d="M14727.488,271.407
			c-540.62-533.599-999.328-980.605-1018.051-992.307c-21.063-11.702-105.315-25.744-187.228-35.105
			c-84.253-9.361-201.271-35.105-259.779-60.849c-60.849-23.403-212.971-60.849-339.35-79.572
			c-355.733-53.828-554.662-107.656-610.831-159.144c-107.655-95.954-35.104-362.754,142.762-531.259
			c44.467-44.467,77.231-86.593,70.21-98.295c-7.021-9.361,4.681-18.723,23.403-18.723s39.786-21.063,49.147-46.807
			c7.021-23.403,65.53-79.572,131.06-119.358c63.189-42.126,114.677-84.252,114.677-95.954c0-9.361,7.021-16.382,18.723-14.042
			c9.361,4.681,131.06-51.488,271.48-121.698l252.758-128.719l299.564-7.021c273.82-7.021,301.904-4.681,311.266,35.105
			c32.765,114.677,39.786,241.056,16.383,358.073c-14.042,70.21-39.786,266.8-60.85,432.964
			c-18.723,168.505-53.828,360.413-77.231,430.624c-32.765,93.614-39.785,142.761-23.403,184.887
			c14.042,32.765,231.694,271.48,484.452,528.918c486.792,496.154,898.692,922.097,1216.979,1259.106
			c175.526,187.228,222.333,255.098,175.526,252.758C15717.454,1242.651,15268.108,805.006,14727.488,271.407z"/>
	</g>
</g>
<g>
	<g transform="translate(0.000000,150.000000) scale(0.100000,-0.100000)">
		<path fill="none" stroke="#000000" stroke-width="20" stroke-miterlimit="10" d="M16750.721,1310.156
			c0-14.73-19.641-34.37-41.736-41.735c-95.746-34.37-203.766-179.216-135.025-179.216c31.916,0-63.83-392.803-120.297-498.369
			c-49.1-90.836-49.1-98.201-7.363-142.391c58.92-66.285,245.5-66.285,262.686,0c4.91,24.55,0,63.83-12.275,85.926
			c-36.824,66.285,39.281,162.031,127.662,162.031c39.279,0,78.561-12.275,88.381-27.005c7.365-14.73,39.279-19.64,68.74-12.275
			c31.914,7.365,76.105-2.455,100.656-19.64c27.004-19.64,61.375-29.46,78.561-22.095c17.184,7.365,49.1,0,68.74-17.185
			c22.094-17.185,112.93-36.825,203.766-41.735c127.66-4.91,203.768-27.005,343.703-95.746
			c95.746-46.645,176.762-93.291,176.762-103.111s-63.832-19.64-139.938-24.55c-211.131-9.82-527.828-71.195-726.686-142.391
			c-601.479-213.587-908.355-591.659-765.965-935.362c29.461-71.195,31.915-105.566,9.82-171.851
			c-39.28-120.296-31.915-395.258,12.275-518.009c125.205-348.612,491.004-630.939,942.727-731.595
			c105.566-22.095,255.322-63.83,336.338-90.836c213.586-71.196,837.16-88.381,1065.477-29.46
			c667.766,174.306,1109.668,680.04,1045.838,1195.594c-9.82,85.926-19.641,270.052-22.096,412.443
			c-2.455,196.401-12.273,279.872-49.1,348.612c-76.105,157.121-225.861,301.967-400.168,395.258
			c-164.486,83.471-611.299,216.042-854.346,252.867c-95.746,12.275-154.666,44.19-267.598,135.026
			c-93.291,73.651-240.592,157.121-395.258,220.952c-135.025,56.465-265.141,122.751-289.691,147.301
			c-31.916,34.37-78.561,44.19-184.127,44.19c-169.396,0-284.781,29.46-294.602,78.561
			c-14.73,78.561,103.111,206.221,228.316,245.502c122.75,39.28,164.486,78.561,103.111,103.111
			c-44.191,17.185-220.953-22.095-314.242-68.74c-90.836-49.1-88.381-49.1-132.572,36.825
			C16824.371,1329.796,16750.721,1364.166,16750.721,1310.156z"/>
	</g>
</g>
<g>
	<g transform="translate(0.000000,150.000000) scale(0.100000,-0.100000)">
		<path fill="none" stroke="#000000" stroke-width="20" stroke-miterlimit="10" d="M20182.717,1069.961
			c-26.385-43.176-47.973-86.352-47.973-95.947s131.926-93.548,295.035-189.495c160.711-93.548,422.166-251.86,580.479-352.604
			c402.977-254.259,909.094-556.491,1084.197-650.039c100.744-55.169,151.115-95.947,155.912-131.927
			c4.799-35.98,21.59-47.973,62.367-45.575c40.777,4.797,62.365-14.392,93.547-79.156c38.379-76.757,38.379-91.149,4.797-148.717
			c-21.588-40.777-59.967-67.163-100.744-71.96c-43.176-4.797-64.764-21.588-64.764-50.372c0-33.581-86.352-86.352-316.623-203.887
			c-175.104-86.352-501.322-261.455-726.797-386.185c-223.076-127.129-546.896-299.833-719.6-388.584
			c-172.703-86.352-321.422-165.508-333.414-177.501c-28.785-26.385,45.574-189.495,83.953-189.495
			c14.391,0,158.313,74.359,319.021,165.508c158.313,91.149,434.16,237.468,611.66,323.82
			c695.613,350.205,1252.105,678.823,1384.031,822.743c91.15,95.947,127.129,98.345,335.813,19.189
			c316.625-119.933,825.143-235.069,825.143-189.495c0,26.385-343.01,223.076-544.498,314.225
			c-81.555,35.98-148.717,71.96-148.717,79.156c-2.398,7.196,136.725,79.156,307.029,160.711
			c167.906,81.555,333.414,170.305,364.598,196.691l57.568,47.973l-83.953,2.399c-115.137,0-328.619-52.771-669.229-167.907
			c-158.313-52.771-299.834-95.947-314.227-95.947c-11.992,0-86.352,52.771-160.709,119.933
			c-76.758,64.764-158.313,136.724-182.299,158.312c-74.359,64.764-417.369,278.245-976.258,609.261
			c-297.436,177.501-662.033,400.577-813.148,496.524s-283.043,175.103-295.035,175.103
			C20240.285,1146.719,20209.104,1110.739,20182.717,1069.961z"/>
	</g>
</g>
<g>
	<g transform="translate(0.000000,150.000000) scale(0.100000,-0.100000)">
		<path fill="none" stroke="#000000" stroke-width="20" stroke-miterlimit="10" d="M27301.438,1172.98
			c-7.227-12.043,7.225-57.806,31.311-98.751l48.172-77.074h-91.525c-89.117,0-132.471,19.269-250.49,103.568
			c-52.99,36.129-77.074,38.537-185.461,14.451c-118.02-24.086-192.686-89.117-161.373-139.697
			c19.268-31.311-52.988-115.611-209.547-245.674c-293.844-240.857-691.258-628.636-691.258-671.99
			c0-21.677-16.859-55.397-36.129-72.257c-21.678-16.86-33.719-57.806-31.311-93.934c7.225-62.623,7.225-62.623-149.332-55.397
			c-185.459,9.634-173.416,14.451-809.277-443.176l-411.865-298.662l-77.074-187.868c-74.666-187.868-93.936-293.845-55.398-293.845
			c45.764,0,96.344,91.526,144.516,255.308l52.988,171.008l445.584,322.748c243.266,178.234,479.305,342.017,522.66,366.102
			c81.891,43.354,245.674,57.806,231.223,19.269c-2.41-12.043-190.277-192.685-416.684-402.231
			c-611.775-570.83-604.551-561.196-679.215-802.053c-55.398-183.051-74.666-351.651-38.537-387.779
			c28.902-28.903,103.568,108.385,127.654,236.04c55.396,289.028,67.439,305.888,575.646,794.827
			c264.943,255.308,486.531,462.445,493.756,462.445c7.227,0,14.453-26.494,14.453-60.214c0-36.129-130.064-255.308-337.201-563.605
			c-339.607-508.208-356.467-544.336-407.047-845.407c-21.678-142.105-9.635-289.028,24.086-289.028
			c43.354,0,93.934,178.234,93.934,327.565c0,81.891,12.043,180.642,26.494,219.18c14.451,36.129,173.418,293.845,354.059,570.83
			c313.115,479.305,329.975,510.616,329.975,626.227s4.816,122.837,62.623,125.245c149.33,2.409,279.395,101.16,611.775,460.036
			c476.896,520.25,520.252,553.97,737.021,585.282c199.912,28.903,334.791,67.44,334.791,96.343
			c0,9.634,67.439,43.354,149.332,74.666c81.891,28.903,134.879,60.214,120.428,65.031c-16.859,4.817-74.666-9.634-130.063-28.903
			c-142.105-52.989-233.631-26.494-298.662,91.526C27337.566,1153.712,27308.662,1185.023,27301.438,1172.98z"/>
	</g>
</g>
<g>
	<g transform="translate(0.000000,150.000000) scale(0.100000,-0.100000)">
		<path fill="none" stroke="#000000" stroke-width="20" stroke-miterlimit="10" d="M29605.492,1326.006
			c-7.449-12.418,2.484-161.43,22.352-330.311c59.605-481.806,136.596-1296.407,183.783-1949.577l42.219-603.5l-62.088-14.901
			c-101.824-22.352-124.176-57.121-124.176-178.815c0-146.529,69.539-553.829,101.824-586.115
			c29.803-29.802,29.803-2.483-14.9,228.486c-19.869,106.792-37.254,258.288-37.254,337.761c0,124.177,4.967,144.045,44.703,136.594
			c34.77-7.451,44.705-44.704,59.605-206.134c19.869-240.903,62.088-461.938,94.375-494.224
			c32.285-32.286,32.285-32.286-12.418,198.683c-19.869,109.276-39.736,268.222-42.221,357.63
			c-7.451,129.144,0,161.43,32.287,168.881c32.285,4.967,44.703-22.352,57.121-149.012
			c22.352-223.518,91.891-541.411,119.209-541.411c22.352,0,19.869,12.418-29.803,240.903
			c-17.385,72.023-32.285,206.134-32.285,298.025c-4.967,136.595,2.482,168.881,32.285,168.881
			c27.32,0,42.221-44.704,52.154-178.815c17.385-191.232,64.572-417.234,99.342-479.323c32.287-59.605,27.318,39.737-14.9,211.101
			c-19.869,81.957-37.254,213.584-37.254,290.574c0,161.43-47.188,230.969-136.594,208.617
			c-74.506-19.868-86.924,27.319-86.924,382.465c0,156.463-27.32,548.862-59.605,869.238
			c-34.77,320.376-79.473,762.446-101.824,980.997c-22.354,218.551-47.188,452.004-57.123,519.059
			C29679.998,1330.974,29640.262,1380.644,29605.492,1326.006z"/>
	</g>
</g>
</svg>
