<?xml version="1.0" encoding="UTF-8" standalone="no"?>
<!-- Generator: Adobe Illustrator 17.0.0, SVG Export Plug-In . SVG Version: 6.00 Build 0)  -->

<svg
   xmlns:dc="http://purl.org/dc/elements/1.1/"
   xmlns:cc="http://creativecommons.org/ns#"
   xmlns:rdf="http://www.w3.org/1999/02/22-rdf-syntax-ns#"
   xmlns:svg="http://www.w3.org/2000/svg"
   xmlns="http://www.w3.org/2000/svg"
   xmlns:sodipodi="http://sodipodi.sourceforge.net/DTD/sodipodi-0.dtd"
   xmlns:inkscape="http://www.inkscape.org/namespaces/inkscape"
   version="1.1"
   id="Слой_1"
   x="0px"
   y="0px"
   width="142.617"
   height="137.36369"
   viewBox="0 0 142.617 137.36369"
   enable-background="new 0 0 1200 150"
   xml:space="preserve"
   sodipodi:docname="0.svg"
   inkscape:version="0.92.4 (5da689c313, 2019-01-14)"><metadata
   id="metadata2341"><rdf:RDF><cc:Work
       rdf:about=""><dc:format>image/svg+xml</dc:format><dc:type
         rdf:resource="http://purl.org/dc/dcmitype/StillImage" /><dc:title></dc:title></cc:Work></rdf:RDF></metadata><defs
   id="defs2339" /><sodipodi:namedview
   pagecolor="#ffffff"
   bordercolor="#666666"
   borderopacity="1"
   objecttolerance="10"
   gridtolerance="10"
   guidetolerance="10"
   inkscape:pageopacity="0"
   inkscape:pageshadow="2"
   inkscape:window-width="1920"
   inkscape:window-height="1017"
   id="namedview2337"
   showgrid="false"
   fit-margin-top="0"
   fit-margin-left="0"
   fit-margin-right="0"
   fit-margin-bottom="0"
   inkscape:zoom="0.66939442"
   inkscape:cx="573.64446"
   inkscape:cy="-98.900268"
   inkscape:window-x="-8"
   inkscape:window-y="-8"
   inkscape:window-maximized="1"
   inkscape:current-layer="Слой_1" />
<g
   id="g294"
   transform="translate(-4.228,-8.1999543)">
	<path
   d="m 115.029,90.665 c 0.302,-0.43 0.613,-0.855 0.934,-1.272 -0.321,0.418 -0.632,0.842 -0.934,1.272 z"
   id="path2"
   inkscape:connector-curvature="0"
   style="fill:#565f6b" />
	<path
   d="m 94.875,123.484 c -0.21,-0.122 -0.417,-0.245 -0.621,-0.369 0.205,0.124 0.412,0.247 0.621,0.369 z"
   id="path4"
   inkscape:connector-curvature="0"
   style="fill:#565f6b" />
	<path
   d="m 110.302,98.893 c 0.226,-0.456 0.457,-0.914 0.692,-1.373 -1.971,3.848 -3.612,7.629 -5.408,10.523 4.602,6.967 1.667,15.704 0.158,19.824 4.43,0.964 9.234,0.953 14.093,-0.875 1.501,-10.205 -5.049,-21.658 -9.535,-28.099 z"
   id="path6"
   inkscape:connector-curvature="0"
   style="fill:#565f6b" />
	<path
   d="m 114.139,91.987 c 0.284,-0.439 0.576,-0.874 0.876,-1.303 -0.3,0.429 -0.592,0.863 -0.876,1.303 z"
   id="path8"
   inkscape:connector-curvature="0"
   style="fill:#565f6b" />
	<path
   d="m 129.279,121.019 c 0.771,-0.687 1.509,-1.399 2.214,-2.13 -0.705,0.732 -1.444,1.443 -2.214,2.13 z"
   id="path10"
   inkscape:connector-curvature="0"
   style="fill:#565f6b" />
	<path
   d="m 94.169,123.065 c -0.21,-0.128 -0.418,-0.256 -0.623,-0.384 0.205,0.128 0.413,0.256 0.623,0.384 z"
   id="path12"
   inkscape:connector-curvature="0"
   style="fill:#565f6b" />
	<path
   d="m 113.299,93.336 c 0.267,-0.445 0.542,-0.887 0.824,-1.324 -0.283,0.437 -0.557,0.879 -0.824,1.324 z"
   id="path14"
   inkscape:connector-curvature="0"
   style="fill:#565f6b" />
	<path
   d="m 101.367,112.345 c 0.033,-0.018 0.066,-0.035 0.1,-0.054 -0.034,0.019 -0.067,0.036 -0.1,0.054 z"
   id="path16"
   inkscape:connector-curvature="0"
   style="fill:#565f6b" />
	<path
   d="m 99.08,113.169 c 0.025,-0.005 0.05,-0.01 0.076,-0.015 -0.026,0.005 -0.051,0.011 -0.076,0.015 z"
   id="path18"
   inkscape:connector-curvature="0"
   style="fill:#565f6b" />
	<path
   d="m 99.533,113.068 c 0.024,-0.006 0.047,-0.012 0.071,-0.018 -0.024,0.007 -0.048,0.012 -0.071,0.018 z"
   id="path20"
   inkscape:connector-curvature="0"
   style="fill:#565f6b" />
	<path
   d="m 122.515,125.797 c -0.136,0.07 -0.272,0.137 -0.408,0.204 0.136,-0.067 0.272,-0.133 0.408,-0.204 z"
   id="path22"
   inkscape:connector-curvature="0"
   style="fill:#565f6b" />
	<path
   d="m 100.922,112.571 c 0.036,-0.017 0.071,-0.034 0.107,-0.051 -0.036,0.017 -0.071,0.034 -0.107,0.051 z"
   id="path24"
   inkscape:connector-curvature="0"
   style="fill:#565f6b" />
	<path
   d="m 98.646,113.241 c 0.006,-0.001 0.011,-0.002 0.017,-0.002 -0.006,0 -0.012,10e-4 -0.017,0.002 z"
   id="path26"
   inkscape:connector-curvature="0"
   style="fill:#565f6b" />
	<path
   d="m 121.734,126.184 c -0.161,0.076 -0.321,0.151 -0.482,0.223 0.16,-0.072 0.321,-0.147 0.482,-0.223 z"
   id="path28"
   inkscape:connector-curvature="0"
   style="fill:#565f6b" />
	<path
   d="m 115.971,89.382 c 0.323,-0.419 0.655,-0.831 0.998,-1.233 -0.343,0.403 -0.675,0.814 -0.998,1.233 z"
   id="path30"
   inkscape:connector-curvature="0"
   style="fill:#565f6b" />
	<path
   d="m 96.379,124.324 c -0.232,-0.124 -0.462,-0.249 -0.689,-0.375 0.227,0.126 0.456,0.251 0.689,0.375 z"
   id="path32"
   inkscape:connector-curvature="0"
   style="fill:#565f6b" />
	<path
   d="m 105.743,127.866 c -3.37,-0.733 -6.523,-2.029 -9.316,-3.516 2.794,1.488 5.946,2.783 9.316,3.516 z"
   id="path34"
   inkscape:connector-curvature="0"
   style="fill:#565f6b" />
	<path
   d="m 123.549,125.229 c -0.096,0.055 -0.192,0.112 -0.288,0.166 0.097,-0.054 0.192,-0.11 0.288,-0.166 z"
   id="path36"
   inkscape:connector-curvature="0"
   style="fill:#565f6b" />
	<path
   d="m 121.003,126.516 c -0.385,0.168 -0.77,0.326 -1.154,0.471 0.384,-0.145 0.769,-0.303 1.154,-0.471 z"
   id="path38"
   inkscape:connector-curvature="0"
   style="fill:#565f6b" />
	<path
   d="m 95.611,123.904 c -0.217,-0.121 -0.432,-0.244 -0.644,-0.367 0.212,0.124 0.427,0.246 0.644,0.367 z"
   id="path40"
   inkscape:connector-curvature="0"
   style="fill:#565f6b" />
	<path
   d="m 100.493,112.757 c 0.02,-0.008 0.041,-0.017 0.061,-0.026 -0.02,0.009 -0.041,0.018 -0.061,0.026 z"
   id="path42"
   inkscape:connector-curvature="0"
   style="fill:#565f6b" />
	<path
   d="m 129.078,121.196 c -0.375,0.33 -0.757,0.657 -1.148,0.975 0.392,-0.318 0.773,-0.645 1.148,-0.975 z"
   id="path44"
   inkscape:connector-curvature="0"
   style="fill:#565f6b" />
	<path
   d="m 112.5,94.708 c 0.253,-0.449 0.512,-0.896 0.779,-1.34 -0.267,0.445 -0.526,0.892 -0.779,1.34 z"
   id="path46"
   inkscape:connector-curvature="0"
   style="fill:#565f6b" />
	<path
   d="m 104.092,110.101 c 0.039,-0.045 0.077,-0.091 0.116,-0.137 -0.038,0.045 -0.077,0.092 -0.116,0.137 z"
   id="path48"
   inkscape:connector-curvature="0"
   style="fill:#565f6b" />
	<path
   d="m 111.738,96.097 c 0.241,-0.452 0.488,-0.903 0.741,-1.352 -0.253,0.449 -0.5,0.901 -0.741,1.352 z"
   id="path50"
   inkscape:connector-curvature="0"
   style="fill:#565f6b" />
	<path
   d="m 134.677,115.191 c -0.322,0.418 -0.652,0.833 -0.992,1.243 11.928,-14.42 13.16,-34.375 13.16,-34.375 v 0 c 0,0 -0.328,5.236 -2.242,12.275 -3.166,-5.647 -7.538,-10.866 -10.763,-14.353 -7.766,0.222 -12.993,3.618 -16.87,8.167 9.568,5.6 15.045,18.023 17.707,27.043 z"
   id="path52"
   inkscape:connector-curvature="0"
   style="fill:#565f6b" />
	<path
   d="m 103.691,110.541 c -0.003,0.003 -0.006,0.006 -0.009,0.009 0.003,-0.003 0.006,-0.006 0.009,-0.009 z"
   id="path54"
   inkscape:connector-curvature="0"
   style="fill:#565f6b" />
	<path
   d="m 102.321,111.742 c 0.033,-0.024 0.065,-0.049 0.097,-0.073 -0.032,0.024 -0.065,0.049 -0.097,0.073 z"
   id="path56"
   inkscape:connector-curvature="0"
   style="fill:#565f6b" />
	<path
   d="m 124.394,124.723 c -0.088,0.055 -0.176,0.109 -0.264,0.162 0.088,-0.054 0.175,-0.107 0.264,-0.162 z"
   id="path58"
   inkscape:connector-curvature="0"
   style="fill:#565f6b" />
	<path
   d="m 126.455,123.31 c -0.405,0.298 -0.815,0.592 -1.236,0.877 0.421,-0.284 0.831,-0.579 1.236,-0.877 z"
   id="path60"
   inkscape:connector-curvature="0"
   style="fill:#565f6b" />
	<path
   d="m 102.739,111.419 c 0.042,-0.034 0.085,-0.07 0.127,-0.105 -0.043,0.035 -0.085,0.07 -0.127,0.105 z"
   id="path62"
   inkscape:connector-curvature="0"
   style="fill:#565f6b" />
	<path
   d="m 103.167,111.049 c 0.039,-0.036 0.079,-0.071 0.118,-0.108 -0.04,0.037 -0.079,0.072 -0.118,0.108 z"
   id="path64"
   inkscape:connector-curvature="0"
   style="fill:#565f6b" />
	<path
   d="m 104.49,109.62 c 0.045,-0.056 0.089,-0.114 0.133,-0.171 -0.044,0.057 -0.088,0.114 -0.133,0.171 z"
   id="path66"
   inkscape:connector-curvature="0"
   style="fill:#565f6b" />
	<path
   d="m 138.37,80.193 c 0.44,0.051 0.889,0.111 1.343,0.18 -0.455,-0.069 -0.903,-0.129 -1.343,-0.18 z"
   id="path68"
   inkscape:connector-curvature="0"
   style="fill:#565f6b" />
	<path
   d="m 111.01,97.489 c 0.232,-0.452 0.468,-0.905 0.71,-1.358 -0.242,0.452 -0.478,0.905 -0.71,1.358 z"
   id="path70"
   inkscape:connector-curvature="0"
   style="fill:#565f6b" />
	<path
   d="m 127.922,122.178 c -0.386,0.314 -0.783,0.62 -1.185,0.922 0.403,-0.302 0.799,-0.608 1.185,-0.922 z"
   id="path72"
   inkscape:connector-curvature="0"
   style="fill:#565f6b" />
	<path
   d="m 135.269,79.976 c 0.943,0.019 1.923,0.085 2.939,0.197 -1.017,-0.112 -1.996,-0.177 -2.939,-0.197 z"
   id="path74"
   inkscape:connector-curvature="0"
   style="fill:#565f6b" />
	<path
   d="m 133.842,79.982 c 0.458,-0.013 0.925,-0.015 1.401,-0.005 -0.476,-0.01 -0.943,-0.009 -1.401,0.005 z"
   id="path76"
   inkscape:connector-curvature="0"
   style="fill:#565f6b" />
	<path
   d="m 104.897,109.08 c 0.04,-0.055 0.079,-0.109 0.119,-0.166 -0.04,0.057 -0.079,0.11 -0.119,0.166 z"
   id="path78"
   inkscape:connector-curvature="0"
   style="fill:#565f6b" />
	<path
   d="m 143.485,81.125 c 0.405,0.099 0.816,0.205 1.232,0.317 -0.416,-0.112 -0.827,-0.218 -1.232,-0.317 z"
   id="path80"
   inkscape:connector-curvature="0"
   style="fill:#565f6b" />
	<path
   d="m 139.949,80.409 c 1.006,0.159 2.048,0.365 3.125,0.617 -1.077,-0.253 -2.118,-0.458 -3.125,-0.617 z"
   id="path82"
   inkscape:connector-curvature="0"
   style="fill:#565f6b" />
	<path
   d="m 145.18,81.568 c 0.546,0.153 1.099,0.314 1.663,0.491 -0.564,-0.177 -1.117,-0.338 -1.663,-0.491 z"
   id="path84"
   inkscape:connector-curvature="0"
   style="fill:#565f6b" />
	<path
   d="m 133.685,116.435 c -0.666,0.805 -1.366,1.593 -2.1,2.359 0.734,-0.766 1.434,-1.554 2.1,-2.359 z"
   id="path86"
   inkscape:connector-curvature="0"
   style="fill:#565f6b" />
	<path
   d="m 98.187,113.29 c -2.466,0.189 -4.847,-0.75 -6.706,-1.826 0.347,3.468 0.311,6.762 -0.285,9.65 0.719,0.508 1.484,1.021 2.293,1.53 -0.222,-0.14 -0.441,-0.28 -0.657,-0.42 3.102,-2.403 4.579,-5.884 5.355,-8.934 z"
   id="path88"
   inkscape:connector-curvature="0"
   style="fill:#565f6b" />
	<path
   d="m 146.845,82.059 v 0 c 0,0 -0.002,0 -0.002,-10e-4 -0.564,-0.177 -1.117,-0.338 -1.663,-0.491 -0.156,-0.044 -0.309,-0.084 -0.463,-0.126 -0.416,-0.112 -0.826,-0.218 -1.232,-0.317 -0.137,-0.033 -0.275,-0.068 -0.41,-0.1 -1.077,-0.252 -2.119,-0.458 -3.125,-0.617 -0.079,-0.013 -0.158,-0.024 -0.237,-0.036 -0.455,-0.069 -0.903,-0.13 -1.343,-0.18 -0.054,-0.006 -0.109,-0.013 -0.162,-0.019 -1.016,-0.112 -1.996,-0.178 -2.939,-0.197 -0.009,0 -0.017,0 -0.026,0 -0.476,-0.009 -0.943,-0.008 -1.401,0.005 -0.001,0 -0.001,0 -0.002,0 v 0 c 3.225,3.487 7.597,8.706 10.763,14.353 1.914,-7.038 2.242,-12.273 2.242,-12.274 z"
   id="path90"
   inkscape:connector-curvature="0"
   style="fill:#2b2f35" />
	<path
   d="m 105.586,108.043 v 0 c -0.063,0.102 -0.126,0.205 -0.189,0.304 -0.126,0.197 -0.253,0.385 -0.381,0.567 -0.04,0.056 -0.079,0.11 -0.119,0.166 -0.091,0.126 -0.181,0.249 -0.273,0.369 -0.044,0.058 -0.089,0.115 -0.133,0.171 -0.094,0.118 -0.188,0.232 -0.282,0.344 -0.039,0.046 -0.077,0.093 -0.116,0.137 -0.133,0.153 -0.267,0.301 -0.401,0.441 -0.003,0.003 -0.006,0.006 -0.009,0.009 -0.132,0.137 -0.264,0.266 -0.398,0.391 -0.039,0.037 -0.079,0.072 -0.118,0.108 -0.1,0.091 -0.2,0.18 -0.301,0.264 -0.042,0.036 -0.084,0.071 -0.127,0.105 -0.106,0.087 -0.213,0.17 -0.32,0.25 -0.033,0.024 -0.065,0.05 -0.097,0.073 -0.283,0.205 -0.568,0.388 -0.855,0.549 -0.033,0.019 -0.066,0.036 -0.1,0.054 -0.112,0.061 -0.225,0.12 -0.338,0.174 -0.036,0.017 -0.071,0.034 -0.107,0.051 -0.123,0.057 -0.245,0.111 -0.368,0.161 -0.02,0.008 -0.041,0.017 -0.061,0.026 -0.296,0.118 -0.592,0.215 -0.889,0.293 -0.024,0.006 -0.047,0.012 -0.071,0.018 -0.126,0.032 -0.252,0.061 -0.377,0.086 -0.025,0.005 -0.05,0.01 -0.076,0.015 -0.139,0.027 -0.279,0.05 -0.418,0.069 -0.005,0.001 -0.011,0.002 -0.017,0.002 -0.153,0.021 -0.306,0.037 -0.459,0.049 v 0 c -0.776,3.05 -2.253,6.531 -5.354,8.935 0.216,0.14 0.435,0.28 0.657,0.42 0.019,0.012 0.038,0.023 0.056,0.035 0.205,0.129 0.413,0.257 0.623,0.384 0.028,0.017 0.057,0.034 0.085,0.051 0.205,0.124 0.412,0.247 0.621,0.369 0.031,0.018 0.061,0.036 0.092,0.053 0.212,0.123 0.427,0.245 0.644,0.367 0.026,0.015 0.053,0.029 0.079,0.044 0.227,0.126 0.457,0.252 0.689,0.375 0.016,0.009 0.032,0.017 0.049,0.026 2.793,1.487 5.946,2.783 9.316,3.516 v 0 0 c 1.51,-4.117 4.445,-12.854 -0.157,-19.821 z"
   id="path92"
   inkscape:connector-curvature="0"
   style="fill:#2b2f35" />
	<path
   d="m 133.685,116.435 v 0 c 0.339,-0.41 0.67,-0.825 0.992,-1.243 -2.662,-9.02 -8.139,-21.443 -17.707,-27.043 v 0 c 0,0 0,0 -0.001,0.001 -0.343,0.403 -0.675,0.814 -0.998,1.233 -0.003,0.004 -0.006,0.008 -0.009,0.011 -0.321,0.417 -0.631,0.841 -0.934,1.272 -0.004,0.006 -0.009,0.012 -0.013,0.019 -0.301,0.429 -0.592,0.863 -0.876,1.303 -0.005,0.008 -0.011,0.017 -0.016,0.025 -0.282,0.437 -0.557,0.879 -0.824,1.324 -0.007,0.011 -0.013,0.022 -0.02,0.033 -0.266,0.444 -0.525,0.891 -0.779,1.34 -0.007,0.012 -0.014,0.024 -0.021,0.037 -0.253,0.449 -0.5,0.901 -0.741,1.352 -0.006,0.011 -0.012,0.022 -0.018,0.033 -0.242,0.453 -0.478,0.906 -0.71,1.358 -0.005,0.01 -0.011,0.021 -0.016,0.031 -0.235,0.459 -0.465,0.917 -0.692,1.373 4.486,6.441 11.036,17.894 9.535,28.099 v 0 c 0.004,-10e-4 0.008,-0.003 0.012,-0.005 0.384,-0.145 0.769,-0.303 1.154,-0.471 0.083,-0.036 0.166,-0.072 0.249,-0.109 0.161,-0.072 0.321,-0.147 0.482,-0.223 0.125,-0.059 0.249,-0.121 0.374,-0.182 0.136,-0.067 0.272,-0.133 0.408,-0.204 0.249,-0.129 0.497,-0.263 0.746,-0.403 0.096,-0.054 0.192,-0.111 0.288,-0.166 0.194,-0.111 0.387,-0.226 0.58,-0.344 0.088,-0.054 0.176,-0.107 0.264,-0.162 0.275,-0.172 0.551,-0.349 0.826,-0.535 0.421,-0.285 0.831,-0.579 1.236,-0.877 0.095,-0.07 0.189,-0.14 0.283,-0.21 0.402,-0.302 0.799,-0.608 1.185,-0.922 0.003,-0.002 0.005,-0.004 0.008,-0.007 0.391,-0.319 0.773,-0.645 1.148,-0.975 0.067,-0.059 0.134,-0.118 0.2,-0.177 0.771,-0.688 1.509,-1.399 2.214,-2.13 0.031,-0.032 0.062,-0.063 0.092,-0.095 0.733,-0.769 1.433,-1.556 2.099,-2.361 z"
   id="path94"
   inkscape:connector-curvature="0"
   style="fill:#2b2f35" />
	<path
   d="m 30.799,131.939 c -0.159,4.998 0.069,13.299 3.322,13.604 4.17,0.392 6.853,-4.874 8.33,-9.133 -5.499,-0.873 -9.801,-2.395 -11.652,-4.471 z"
   id="path96"
   inkscape:connector-curvature="0"
   style="fill:#565f6b" />
	<path
   d="m 80.88,132.583 c 2.778,4.147 6.676,7.913 10.024,8.205 4.951,0.433 0.959,-12.182 -0.606,-16.651 -0.178,0.439 -0.371,0.865 -0.587,1.273 -1.579,2.984 -4.745,5.357 -8.831,7.173 z"
   id="path98"
   inkscape:connector-curvature="0"
   style="fill:#565f6b" />
	<path
   d="M 91.481,111.464 C 90.76,104.256 88.395,96.309 86.014,89.753 82.908,88.93 78.645,86.698 78.878,84.412 c 0.147,-1.445 1.648,-2.506 3.742,-3.22 -1.229,-2.861 -2.15,-4.778 -2.374,-5.238 0.511,-0.673 1.039,-1.375 1.589,-2.107 -0.081,0.108 -0.167,0.222 -0.248,0.33 C 73.818,84.513 70.457,88.71 55.547,91.889 45.186,94.098 36.889,89.851 30.041,85.457 v 0 C 30.04,85.456 30.039,85.456 30.038,85.455 27.784,84.009 25.685,82.546 23.724,81.293 23.723,81.292 23.722,81.292 23.72,81.291 23.457,81.123 23.198,80.96 22.94,80.801 22.939,80.8 22.937,80.799 22.936,80.799 c 3.384,2.097 7.178,4.931 11.499,7.285 -0.955,1.416 -1.823,3.014 -2.596,4.753 2.205,0.165 3.923,0.814 4.429,2.175 1.022,2.75 -5.07,7.262 -7.601,7.839 -2.364,10.959 -1.939,23.167 1.741,28.599 0.113,0.167 0.247,0.33 0.391,0.491 1.851,2.075 6.152,3.598 11.652,4.471 11.404,1.811 27.947,0.828 38.429,-3.828 4.087,-1.816 7.253,-4.189 8.831,-7.173 0.216,-0.408 0.409,-0.834 0.587,-1.273 0.383,-0.944 0.679,-1.955 0.898,-3.022 0.595,-2.889 0.632,-6.184 0.285,-9.652 z m -15.345,16.048 c -6.532,9.067 -30.496,8.359 -33.328,1.29 -2.831,-7.069 -3.966,-32.227 16.475,-33.149 17.328,-0.781 23.385,22.793 16.853,31.859 z"
   id="path100"
   inkscape:connector-curvature="0"
   style="fill:#677686" />
	<path
   d="m 59.284,95.653 c -20.441,0.922 -19.307,26.08 -16.475,33.149 2.831,7.069 26.795,7.777 33.328,-1.29 6.531,-9.066 0.474,-32.64 -16.853,-31.859 z"
   id="path102"
   inkscape:connector-curvature="0"
   style="fill:#ffe3a2" />
	<path
   d="M 36.269,95.01 C 35.763,93.649 34.045,93 31.84,92.835 c -5.656,-0.423 -14.515,2.34 -14.324,4.454 0.264,2.939 8.554,5.93 10.918,5.603 0.074,-0.01 0.153,-0.025 0.234,-0.044 2.531,-0.576 8.623,-5.088 7.601,-7.838 z"
   id="path104"
   inkscape:connector-curvature="0"
   style="fill:#565f6b" />
	<path
   d="m 78.878,84.412 c -0.233,2.286 4.03,4.518 7.136,5.341 0.988,0.262 1.86,0.382 2.432,0.315 2.369,-0.279 9.639,-5.261 9.155,-8.171 -0.348,-2.094 -9.613,-2.538 -14.981,-0.705 -2.094,0.715 -3.595,1.776 -3.742,3.22 z"
   id="path106"
   inkscape:connector-curvature="0"
   style="fill:#565f6b" />
	<path
   d="m 12.229,29.689 c 3.233,-1.123 9.047,4.84 10.377,6.266 0.995,-0.901 2.044,-1.777 3.15,-2.624 -3.778,-3.43 -12.516,-10.758 -17.227,-9.753 -6.121,1.305 4.405,24.183 4.405,24.183 l 0.003,-0.002 c 0.749,-1.238 1.563,-2.474 2.445,-3.7 -1.481,-3.003 -6.279,-13.283 -3.153,-14.37 z"
   id="path108"
   inkscape:connector-curvature="0"
   style="fill:#565f6b" />
	<path
   d="m 76.423,14.782 c 3.293,0.028 1.762,12.166 1.253,15.66 1.27,0.743 2.511,1.523 3.723,2.331 0.004,-0.024 4.097,-24.98 -2.605,-24.568 -5.446,0.335 -10.768,12.468 -12.575,17.013 1.084,0.351 2.156,0.741 3.216,1.164 0.806,-2.697 3.721,-11.629 6.988,-11.6 z"
   id="path110"
   inkscape:connector-curvature="0"
   style="fill:#565f6b" />
	<path
   d="m 19.541,78.923 c -0.001,-0.001 -0.002,-0.001 -0.003,-0.001 0.001,0 0.002,0.001 0.003,0.001 0.239,0.11 0.481,0.229 0.724,0.352 l -0.001,-0.001 c -0.243,-0.122 -0.485,-0.241 -0.723,-0.351 z"
   id="path112"
   inkscape:connector-curvature="0"
   style="fill:#677686" />
	<path
   d="m 4.228,74.272 v 0 c 0,0 6.724,0.739 15.106,4.558 v 0 C 10.953,75.011 4.229,74.272 4.228,74.272 Z"
   id="path114"
   inkscape:connector-curvature="0"
   style="fill:#677686" />
	<path
   d="m 89.745,64.77 c -0.001,0 -0.001,0 0,0 0.079,-0.07 0.158,-0.138 0.237,-0.208 0,0 -0.001,0.001 -0.001,0.001 -0.079,0.069 -0.158,0.137 -0.236,0.207 z"
   id="path116"
   inkscape:connector-curvature="0"
   style="fill:#677686" />
	<path
   d="m 90.919,63.765 c 0,0 -10e-4,10e-4 -10e-4,10e-4 0.062,-0.051 0.124,-0.103 0.185,-0.153 0,0 -10e-4,0 -10e-4,0 -0.061,0.05 -0.122,0.101 -0.183,0.152 z"
   id="path118"
   inkscape:connector-curvature="0"
   style="fill:#677686" />
	<path
   d="m 87.277,67.148 c -0.001,0.001 -0.001,0.001 -0.002,0.002 0.076,-0.079 0.152,-0.162 0.229,-0.24 0,0 0,0 0,0 -0.076,0.078 -0.151,0.16 -0.227,0.238 z"
   id="path120"
   inkscape:connector-curvature="0"
   style="fill:#677686" />
	<path
   d="m 43.681,41.176 c 10.682,11.033 1.97,31.689 1.97,31.689 0.38,0.453 0.778,0.863 1.185,1.239 -0.197,-0.271 -0.346,-0.503 -0.441,-0.676 -0.754,-1.382 9.247,-6.5 16.068,-4.213 0,0 -12.805,-28.971 0.543,-34.705 6.393,-2.746 14.407,-1.719 21.027,0.095 -0.861,-0.624 -1.739,-1.236 -2.634,-1.832 -1.212,-0.808 -2.454,-1.589 -3.723,-2.331 0.509,-3.494 2.04,-15.632 -1.253,-15.66 -3.266,-0.028 -6.182,8.903 -6.988,11.601 -1.06,-0.423 -2.132,-0.813 -3.216,-1.164 -7.016,-2.273 -14.502,-2.947 -22.082,-0.863 -7.419,2.039 -13.457,5.207 -18.381,8.977 -1.105,0.846 -2.154,1.722 -3.15,2.624 -1.33,-1.426 -7.144,-7.39 -10.377,-6.266 -3.127,1.086 1.672,11.366 3.153,14.37 -0.882,1.225 -1.696,2.461 -2.445,3.7 -1.338,2.213 -2.473,4.429 -3.434,6.585 C 19.909,43.09 35.471,32.697 43.681,41.176 Z"
   id="path122"
   inkscape:connector-curvature="0"
   style="fill:#677686" />
	<path
   d="m 62.463,69.215 c 0,0 -0.183,0.917 -0.633,2.189 0.574,-1.291 0.633,-2.189 0.633,-2.189 z"
   id="path124"
   inkscape:connector-curvature="0"
   style="fill:#677686" />
	<path
   d="m 88.624,65.799 c 0,10e-4 -10e-4,10e-4 0,0 0.033,-0.031 0.066,-0.061 0.099,-0.092 -0.001,0.001 -0.001,0.001 -0.002,0.002 -0.033,0.031 -0.065,0.06 -0.097,0.09 z"
   id="path126"
   inkscape:connector-curvature="0"
   style="fill:#677686" />
	<path
   d="m 20.472,79.382 c 0,0 -0.001,-0.001 -0.002,-0.001 0.191,0.099 0.383,0.201 0.577,0.307 -0.001,-0.001 -0.002,-0.001 -0.003,-0.002 -0.192,-0.104 -0.382,-0.205 -0.572,-0.304 z"
   id="path128"
   inkscape:connector-curvature="0"
   style="fill:#677686" />
	<path
   d="m 4.498,71.749 c 0.014,-0.101 0.029,-0.206 0.044,-0.312 -0.015,0.107 -0.03,0.211 -0.044,0.312 z"
   id="path130"
   inkscape:connector-curvature="0"
   style="fill:#677686" />
	<path
   d="M 4.281,73.601 C 4.284,73.566 4.288,73.525 4.292,73.487 4.288,73.525 4.284,73.566 4.281,73.601 Z"
   id="path132"
   inkscape:connector-curvature="0"
   style="fill:#677686" />
	<path
   d="M 4.309,73.32 C 4.314,73.27 4.32,73.214 4.326,73.161 4.32,73.214 4.314,73.27 4.309,73.32 Z"
   id="path134"
   inkscape:connector-curvature="0"
   style="fill:#677686" />
	<path
   d="m 4.245,74.019 c 0,-0.001 0,-0.002 0,-0.002 0,0 0,0.001 0,0.002 z"
   id="path136"
   inkscape:connector-curvature="0"
   style="fill:#677686" />
	<path
   d="M 4.26,73.835 C 4.262,73.814 4.264,73.789 4.266,73.767 4.264,73.79 4.262,73.814 4.26,73.835 Z"
   id="path138"
   inkscape:connector-curvature="0"
   style="fill:#677686" />
	<path
   d="M 4.437,72.206 C 4.449,72.115 4.461,72.02 4.474,71.924 4.461,72.021 4.449,72.116 4.437,72.206 Z"
   id="path140"
   inkscape:connector-curvature="0"
   style="fill:#677686" />
	<path
   d="M 4.343,72.993 C 4.35,72.929 4.358,72.86 4.366,72.792 4.358,72.86 4.35,72.929 4.343,72.993 Z"
   id="path142"
   inkscape:connector-curvature="0"
   style="fill:#677686" />
	<path
   d="m 4.386,72.62 c 0.009,-0.077 0.019,-0.159 0.029,-0.24 -0.01,0.082 -0.02,0.163 -0.029,0.24 z"
   id="path144"
   inkscape:connector-curvature="0"
   style="fill:#677686" />
	<path
   d="M 4.65,70.714 C 4.669,70.591 4.69,70.465 4.711,70.336 4.69,70.465 4.67,70.591 4.65,70.714 Z"
   id="path146"
   inkscape:connector-curvature="0"
   style="fill:#677686" />
	<path
   d="M 4.849,69.529 C 4.874,69.386 4.901,69.241 4.928,69.092 4.901,69.241 4.874,69.386 4.849,69.529 Z"
   id="path148"
   inkscape:connector-curvature="0"
   style="fill:#677686" />
	<path
   d="m 82.281,73.255 c -0.013,0.018 -0.026,0.035 -0.039,0.052 0.184,-0.244 0.373,-0.496 0.562,-0.747 -0.004,0.005 -0.007,0.009 -0.011,0.014 -0.173,0.229 -0.345,0.458 -0.512,0.681 z"
   id="path150"
   inkscape:connector-curvature="0"
   style="fill:#677686" />
	<path
   d="m 22.067,80.27 c -0.002,-10e-4 -0.005,-0.003 -0.007,-0.004 0.239,0.141 0.479,0.287 0.722,0.436 C 22.781,80.701 22.78,80.701 22.779,80.7 22.54,80.552 22.302,80.409 22.067,80.27 Z"
   id="path152"
   inkscape:connector-curvature="0"
   style="fill:#677686" />
	<path
   d="m 4.743,70.141 c 0.022,-0.133 0.046,-0.269 0.07,-0.408 -0.024,0.139 -0.047,0.275 -0.07,0.408 z"
   id="path154"
   inkscape:connector-curvature="0"
   style="fill:#677686" />
	<path
   d="M 4.569,71.25 C 4.585,71.138 4.603,71.021 4.621,70.903 4.603,71.022 4.585,71.138 4.569,71.25 Z"
   id="path156"
   inkscape:connector-curvature="0"
   style="fill:#677686" />
	<path
   d="m 83.891,71.119 c 0.012,-0.016 0.024,-0.032 0.036,-0.048 10e-4,-0.002 0.003,-0.003 0.004,-0.005 -10e-4,0.002 -0.003,0.003 -0.004,0.005 -0.012,0.016 -0.024,0.032 -0.036,0.048 z"
   id="path158"
   inkscape:connector-curvature="0"
   style="fill:#677686" />
	<path
   d="m 93.384,61.877 v 0 c 0,0 -0.001,0 0,0 6.6,-4.667 12.205,-5.729 12.205,-5.729 -0.077,-0.112 -0.16,-0.23 -0.244,-0.349 0.084,0.119 0.166,0.237 0.244,0.349 -0.001,0 -5.605,1.062 -12.205,5.729 z"
   id="path160"
   inkscape:connector-curvature="0"
   style="fill:#677686" />
	<path
   d="m 84.983,69.735 v 0 c 0.107,-0.131 0.216,-0.258 0.324,-0.387 -0.001,0.001 -0.001,0.001 -0.002,0.002 -0.107,0.128 -0.215,0.254 -0.322,0.385 z"
   id="path162"
   inkscape:connector-curvature="0"
   style="fill:#677686" />
	<path
   d="M 5.581,65.999 C 5.626,65.809 5.672,65.617 5.72,65.422 5.672,65.617 5.626,65.809 5.581,65.999 Z"
   id="path164"
   inkscape:connector-curvature="0"
   style="fill:#677686" />
	<path
   d="M 6.448,62.707 C 6.516,62.474 6.585,62.239 6.657,62.001 6.585,62.24 6.516,62.474 6.448,62.707 Z"
   id="path166"
   inkscape:connector-curvature="0"
   style="fill:#677686" />
	<path
   d="m 5.982,64.395 c 0.055,-0.21 0.111,-0.421 0.17,-0.635 -0.059,0.214 -0.115,0.425 -0.17,0.635 z"
   id="path168"
   inkscape:connector-curvature="0"
   style="fill:#677686" />
	<path
   d="m 4.967,68.888 c 0.029,-0.154 0.059,-0.31 0.09,-0.468 -0.031,0.158 -0.061,0.314 -0.09,0.468 z"
   id="path170"
   inkscape:connector-curvature="0"
   style="fill:#677686" />
	<path
   d="M 6.207,63.559 C 6.268,63.338 6.33,63.117 6.395,62.892 6.33,63.117 6.268,63.339 6.207,63.559 Z"
   id="path172"
   inkscape:connector-curvature="0"
   style="fill:#677686" />
	<path
   d="m 5.773,65.208 c 0.05,-0.2 0.1,-0.401 0.153,-0.605 -0.052,0.205 -0.103,0.405 -0.153,0.605 z"
   id="path174"
   inkscape:connector-curvature="0"
   style="fill:#677686" />
	<path
   d="m 5.099,68.209 c 0.032,-0.161 0.065,-0.325 0.1,-0.491 -0.035,0.166 -0.068,0.33 -0.1,0.491 z"
   id="path176"
   inkscape:connector-curvature="0"
   style="fill:#677686" />
	<path
   d="m 5.245,67.497 c 0.036,-0.169 0.073,-0.34 0.111,-0.515 -0.038,0.175 -0.075,0.346 -0.111,0.515 z"
   id="path178"
   inkscape:connector-curvature="0"
   style="fill:#677686" />
	<path
   d="M 5.406,66.761 C 5.446,66.581 5.487,66.4 5.53,66.216 5.487,66.4 5.446,66.581 5.406,66.761 Z"
   id="path180"
   inkscape:connector-curvature="0"
   style="fill:#677686" />
	<path
   d="m 86.078,68.451 -0.001,0.001 c 0.115,-0.13 0.229,-0.259 0.344,-0.386 0,0 -0.001,10e-4 -0.001,10e-4 -0.114,0.127 -0.228,0.255 -0.342,0.384 z"
   id="path182"
   inkscape:connector-curvature="0"
   style="fill:#677686" />
	<path
   d="m 98.452,47.466 c 0.179,0.193 0.356,0.384 0.53,0.574 -0.174,-0.19 -0.351,-0.382 -0.53,-0.574 z"
   id="path184"
   inkscape:connector-curvature="0"
   style="fill:#677686" />
	<path
   d="m 88.844,38.351 c 0.276,0.23 0.55,0.461 0.821,0.692 -0.271,-0.231 -0.545,-0.462 -0.821,-0.692 z"
   id="path186"
   inkscape:connector-curvature="0"
   style="fill:#677686" />
	<path
   d="m 86.01,36.082 c 0.301,0.231 0.599,0.464 0.894,0.697 -0.295,-0.233 -0.593,-0.465 -0.894,-0.697 z"
   id="path188"
   inkscape:connector-curvature="0"
   style="fill:#677686" />
	<path
   d="m 87.916,37.588 c 0.284,0.23 0.564,0.461 0.843,0.693 C 88.481,38.05 88.2,37.819 87.916,37.588 Z"
   id="path190"
   inkscape:connector-curvature="0"
   style="fill:#677686" />
	<path
   d="m 100.366,49.581 c 0.154,0.175 0.306,0.348 0.455,0.52 -0.149,-0.171 -0.301,-0.345 -0.455,-0.52 z"
   id="path192"
   inkscape:connector-curvature="0"
   style="fill:#677686" />
	<path
   d="m 97.056,45.993 c 0.198,0.205 0.395,0.41 0.588,0.613 -0.194,-0.203 -0.39,-0.408 -0.588,-0.613 z"
   id="path194"
   inkscape:connector-curvature="0"
   style="fill:#677686" />
	<path
   d="m 99.754,48.891 c 0.162,0.18 0.322,0.36 0.479,0.537 -0.158,-0.177 -0.318,-0.356 -0.479,-0.537 z"
   id="path196"
   inkscape:connector-curvature="0"
   style="fill:#677686" />
	<path
   d="m 86.972,36.832 c 0.292,0.231 0.582,0.463 0.869,0.696 -0.287,-0.233 -0.576,-0.465 -0.869,-0.696 z"
   id="path198"
   inkscape:connector-curvature="0"
   style="fill:#677686" />
	<path
   d="m 99.114,48.185 c 0.17,0.187 0.339,0.372 0.504,0.556 -0.165,-0.184 -0.333,-0.37 -0.504,-0.556 z"
   id="path200"
   inkscape:connector-curvature="0"
   style="fill:#677686" />
	<path
   d="m 97.763,46.732 c 0.189,0.2 0.376,0.398 0.56,0.596 -0.184,-0.198 -0.371,-0.396 -0.56,-0.596 z"
   id="path202"
   inkscape:connector-curvature="0"
   style="fill:#677686" />
	<path
   d="m 96.329,45.248 c 0.206,0.209 0.409,0.417 0.61,0.624 -0.201,-0.207 -0.404,-0.415 -0.61,-0.624 z"
   id="path204"
   inkscape:connector-curvature="0"
   style="fill:#677686" />
	<path
   d="m 92.366,41.427 c 0.246,0.225 0.489,0.449 0.729,0.674 -0.24,-0.224 -0.483,-0.449 -0.729,-0.674 z"
   id="path206"
   inkscape:connector-curvature="0"
   style="fill:#677686" />
	<path
   d="m 91.514,40.656 c 0.253,0.227 0.504,0.453 0.752,0.68 -0.248,-0.226 -0.499,-0.453 -0.752,-0.68 z"
   id="path208"
   inkscape:connector-curvature="0"
   style="fill:#677686" />
	<path
   d="m 94.013,42.967 c 0.229,0.219 0.455,0.437 0.679,0.655 -0.224,-0.218 -0.45,-0.436 -0.679,-0.655 z"
   id="path210"
   inkscape:connector-curvature="0"
   style="fill:#677686" />
	<path
   d="m 93.199,42.198 c 0.238,0.222 0.473,0.444 0.705,0.666 -0.232,-0.222 -0.467,-0.444 -0.705,-0.666 z"
   id="path212"
   inkscape:connector-curvature="0"
   style="fill:#677686" />
	<path
   d="m 90.642,39.885 c 0.261,0.228 0.519,0.456 0.775,0.685 -0.256,-0.228 -0.514,-0.456 -0.775,-0.685 z"
   id="path214"
   inkscape:connector-curvature="0"
   style="fill:#677686" />
	<path
   d="m 89.751,39.116 c 0.269,0.23 0.535,0.46 0.799,0.69 -0.264,-0.231 -0.53,-0.461 -0.799,-0.69 z"
   id="path216"
   inkscape:connector-curvature="0"
   style="fill:#677686" />
	<path
   d="m 94.807,43.734 c 0.221,0.216 0.44,0.431 0.657,0.646 -0.216,-0.215 -0.435,-0.43 -0.657,-0.646 z"
   id="path218"
   inkscape:connector-curvature="0"
   style="fill:#677686" />
	<path
   d="m 95.577,44.492 c 0.214,0.213 0.425,0.425 0.634,0.636 -0.209,-0.211 -0.421,-0.423 -0.634,-0.636 z"
   id="path220"
   inkscape:connector-curvature="0"
   style="fill:#677686" />
	<path
   d="m 101.527,50.925 c 0.134,0.158 0.267,0.316 0.397,0.47 -0.129,-0.154 -0.263,-0.312 -0.397,-0.47 z"
   id="path222"
   inkscape:connector-curvature="0"
   style="fill:#677686" />
	<path
   d="m 104.384,54.484 c 0.078,0.103 0.157,0.208 0.231,0.307 -0.074,-0.099 -0.153,-0.204 -0.231,-0.307 z"
   id="path224"
   inkscape:connector-curvature="0"
   style="fill:#677686" />
	<path
   d="m 103.981,53.955 c 0.085,0.111 0.171,0.222 0.253,0.329 -0.082,-0.107 -0.168,-0.219 -0.253,-0.329 z"
   id="path226"
   inkscape:connector-curvature="0"
   style="fill:#677686" />
	<path
   d="m 103.546,53.395 c 0.094,0.119 0.188,0.239 0.278,0.355 -0.09,-0.116 -0.185,-0.236 -0.278,-0.355 z"
   id="path228"
   inkscape:connector-curvature="0"
   style="fill:#677686" />
	<path
   d="m 105.083,55.432 c 0.072,0.1 0.145,0.201 0.212,0.296 -0.068,-0.095 -0.141,-0.196 -0.212,-0.296 z"
   id="path230"
   inkscape:connector-curvature="0"
   style="fill:#677686" />
	<path
   d="M 6.975,60.982 C 7.062,60.71 7.151,60.436 7.244,60.159 7.151,60.437 7.062,60.71 6.975,60.982 Z"
   id="path232"
   inkscape:connector-curvature="0"
   style="fill:#677686" />
	<path
   d="m 85.032,35.341 c 0.31,0.232 0.618,0.465 0.923,0.699 -0.305,-0.234 -0.612,-0.467 -0.923,-0.699 z"
   id="path234"
   inkscape:connector-curvature="0"
   style="fill:#677686" />
	<path
   d="m 7.247,60.148 c 0.614,-1.834 1.351,-3.77 2.235,-5.757 -0.884,1.987 -1.621,3.923 -2.235,5.757 z"
   id="path236"
   inkscape:connector-curvature="0"
   style="fill:#677686" />
	<path
   d="m 84.038,34.609 c 0.32,0.232 0.637,0.466 0.953,0.701 -0.316,-0.235 -0.633,-0.469 -0.953,-0.701 z"
   id="path238"
   inkscape:connector-curvature="0"
   style="fill:#677686" />
	<path
   d="m 21.226,79.786 c 0,0 -10e-4,-0.001 -0.002,-0.001 0.251,0.14 0.504,0.284 0.76,0.434 0,0 -0.001,-10e-4 -0.002,-10e-4 -0.254,-0.149 -0.506,-0.292 -0.756,-0.432 z"
   id="path240"
   inkscape:connector-curvature="0"
   style="fill:#677686" />
	<path
   d="m 103.08,52.808 c 0.104,0.13 0.208,0.259 0.308,0.385 -0.1,-0.126 -0.204,-0.255 -0.308,-0.385 z"
   id="path242"
   inkscape:connector-curvature="0"
   style="fill:#677686" />
	<path
   d="m 104.758,54.987 c 0.071,0.097 0.144,0.195 0.211,0.288 -0.067,-0.094 -0.14,-0.192 -0.211,-0.288 z"
   id="path244"
   inkscape:connector-curvature="0"
   style="fill:#677686" />
	<path
   d="m 102.59,52.202 c 0.113,0.139 0.226,0.277 0.335,0.412 -0.109,-0.135 -0.221,-0.273 -0.335,-0.412 z"
   id="path246"
   inkscape:connector-curvature="0"
   style="fill:#677686" />
	<path
   d="m 6.705,61.845 c 0.076,-0.249 0.154,-0.5 0.234,-0.754 -0.08,0.254 -0.158,0.505 -0.234,0.754 z"
   id="path248"
   inkscape:connector-curvature="0"
   style="fill:#677686" />
	<path
   d="m 100.958,50.26 c 0.144,0.167 0.287,0.332 0.426,0.496 -0.139,-0.163 -0.282,-0.329 -0.426,-0.496 z"
   id="path250"
   inkscape:connector-curvature="0"
   style="fill:#677686" />
	<path
   d="m 102.069,51.57 c 0.124,0.149 0.248,0.298 0.368,0.444 -0.12,-0.146 -0.244,-0.295 -0.368,-0.444 z"
   id="path252"
   inkscape:connector-curvature="0"
   style="fill:#677686" />
	<path
   d="m 87.277,67.148 c 0.075,-0.079 0.151,-0.16 0.226,-0.238 -0.075,0.078 -0.15,0.16 -0.226,0.238 z"
   id="path254"
   inkscape:connector-curvature="0"
   style="fill:#ffe3a2" />
	<path
   d="m 86.078,68.451 c 0.114,-0.129 0.228,-0.257 0.342,-0.383 -0.114,0.126 -0.228,0.254 -0.342,0.383 z"
   id="path256"
   inkscape:connector-curvature="0"
   style="fill:#ffe3a2" />
	<path
   d="m 89.745,64.77 c 0.079,-0.07 0.157,-0.138 0.236,-0.207 -0.079,0.069 -0.158,0.137 -0.236,0.207 z"
   id="path258"
   inkscape:connector-curvature="0"
   style="fill:#ffe3a2" />
	<path
   d="M 21.634,59.718 C 26.339,46.454 44.579,42.18 43.804,60.451 43.282,72.74 35.25,81.217 30.042,85.456 c 6.849,4.395 15.146,8.641 25.506,6.432 14.909,-3.179 18.27,-7.376 26.04,-17.712 -0.024,0.032 -0.051,0.067 -0.075,0.099 -3.748,-1.34 -8.771,-3.9 -13.205,-8.736 -8.381,-9.141 -6.334,-28.48 9.475,-20.824 10.129,4.905 14.071,12.403 15.6,17.161 6.6,-4.667 12.204,-5.729 12.204,-5.729 -0.077,-0.112 -0.16,-0.23 -0.244,-0.349 -0.017,-0.024 -0.032,-0.046 -0.05,-0.071 -0.068,-0.096 -0.141,-0.196 -0.212,-0.296 -0.038,-0.053 -0.074,-0.103 -0.113,-0.158 -0.068,-0.093 -0.14,-0.191 -0.211,-0.288 -0.048,-0.065 -0.094,-0.128 -0.143,-0.195 -0.074,-0.1 -0.153,-0.204 -0.231,-0.307 -0.05,-0.067 -0.099,-0.132 -0.15,-0.2 -0.082,-0.107 -0.168,-0.219 -0.253,-0.329 -0.053,-0.068 -0.103,-0.135 -0.157,-0.205 -0.09,-0.116 -0.184,-0.236 -0.278,-0.355 -0.053,-0.067 -0.104,-0.133 -0.158,-0.201 -0.1,-0.126 -0.204,-0.256 -0.308,-0.385 -0.052,-0.065 -0.102,-0.128 -0.155,-0.193 -0.109,-0.135 -0.222,-0.274 -0.335,-0.412 -0.051,-0.063 -0.101,-0.125 -0.154,-0.188 -0.12,-0.146 -0.244,-0.295 -0.368,-0.444 -0.048,-0.058 -0.096,-0.115 -0.145,-0.174 -0.129,-0.155 -0.263,-0.312 -0.397,-0.47 -0.048,-0.056 -0.095,-0.112 -0.143,-0.169 -0.139,-0.163 -0.282,-0.329 -0.426,-0.496 -0.046,-0.053 -0.091,-0.105 -0.137,-0.159 -0.149,-0.172 -0.301,-0.345 -0.455,-0.52 -0.045,-0.051 -0.089,-0.101 -0.134,-0.153 -0.157,-0.177 -0.317,-0.357 -0.479,-0.537 -0.045,-0.05 -0.089,-0.1 -0.135,-0.151 -0.165,-0.184 -0.334,-0.37 -0.504,-0.556 -0.044,-0.048 -0.088,-0.096 -0.132,-0.145 -0.174,-0.19 -0.351,-0.381 -0.53,-0.574 -0.043,-0.046 -0.085,-0.092 -0.129,-0.138 -0.184,-0.197 -0.371,-0.396 -0.56,-0.596 -0.04,-0.042 -0.08,-0.084 -0.12,-0.126 -0.193,-0.203 -0.389,-0.408 -0.588,-0.613 -0.039,-0.04 -0.078,-0.081 -0.117,-0.121 -0.201,-0.207 -0.404,-0.415 -0.61,-0.624 -0.039,-0.04 -0.079,-0.08 -0.118,-0.12 -0.209,-0.211 -0.42,-0.423 -0.634,-0.636 -0.037,-0.037 -0.075,-0.075 -0.113,-0.112 -0.216,-0.215 -0.435,-0.43 -0.657,-0.646 -0.038,-0.037 -0.077,-0.075 -0.115,-0.112 -0.224,-0.218 -0.45,-0.436 -0.679,-0.655 -0.036,-0.034 -0.072,-0.069 -0.108,-0.103 -0.233,-0.222 -0.468,-0.443 -0.705,-0.666 -0.035,-0.032 -0.069,-0.065 -0.104,-0.097 -0.241,-0.224 -0.484,-0.449 -0.729,-0.674 -0.033,-0.03 -0.066,-0.061 -0.1,-0.091 -0.248,-0.227 -0.499,-0.453 -0.752,-0.68 -0.032,-0.029 -0.065,-0.057 -0.097,-0.086 -0.256,-0.228 -0.514,-0.457 -0.775,-0.685 -0.031,-0.027 -0.061,-0.053 -0.092,-0.08 -0.264,-0.23 -0.53,-0.46 -0.799,-0.69 -0.029,-0.024 -0.057,-0.049 -0.086,-0.073 -0.271,-0.231 -0.545,-0.462 -0.821,-0.692 -0.028,-0.023 -0.056,-0.047 -0.085,-0.07 -0.279,-0.232 -0.56,-0.462 -0.843,-0.693 -0.025,-0.02 -0.05,-0.04 -0.075,-0.06 C 87.552,37.295 87.262,37.063 86.97,36.832 86.948,36.814 86.925,36.797 86.903,36.779 86.607,36.546 86.309,36.313 86.009,36.082 85.991,36.068 85.972,36.054 85.954,36.04 85.649,35.806 85.341,35.572 85.031,35.341 85.017,35.331 85.003,35.32 84.989,35.31 84.674,35.075 84.356,34.841 84.036,34.609 84.034,34.608 84.033,34.607 84.031,34.606 v 0 c -6.62,-1.814 -14.634,-2.842 -21.027,-0.095 -13.348,5.734 -0.543,34.705 -0.543,34.705 0,0 -0.059,0.898 -0.633,2.189 -0.886,2.501 -2.812,6.38 -6.447,7.394 -3.495,0.975 -7.175,-2.806 -8.547,-4.693 -0.407,-0.376 -0.805,-0.787 -1.185,-1.239 0,0 8.712,-20.656 -1.97,-31.689 C 35.47,32.699 19.907,43.092 9.501,54.346 v 0 C 9.494,54.362 9.488,54.377 9.481,54.393 8.597,56.38 7.86,58.316 7.246,60.15 7.245,60.154 7.243,60.158 7.242,60.162 7.149,60.439 7.061,60.712 6.973,60.985 6.961,61.021 6.949,61.058 6.938,61.094 6.857,61.348 6.78,61.599 6.704,61.848 6.688,61.9 6.671,61.953 6.656,62.004 6.584,62.242 6.515,62.476 6.447,62.71 6.429,62.771 6.411,62.833 6.393,62.894 6.328,63.119 6.266,63.341 6.205,63.561 6.187,63.628 6.168,63.695 6.149,63.761 6.09,63.975 6.034,64.187 5.979,64.396 5.961,64.465 5.942,64.536 5.924,64.604 5.871,64.808 5.82,65.009 5.771,65.209 5.753,65.28 5.735,65.352 5.718,65.423 5.67,65.618 5.624,65.81 5.579,66 5.562,66.072 5.545,66.145 5.528,66.216 5.485,66.4 5.444,66.582 5.404,66.761 5.387,66.835 5.371,66.909 5.355,66.982 5.317,67.156 5.28,67.327 5.244,67.497 5.228,67.571 5.213,67.645 5.197,67.718 5.162,67.884 5.129,68.048 5.097,68.209 5.083,68.28 5.069,68.35 5.055,68.419 5.024,68.578 4.994,68.734 4.965,68.887 4.952,68.956 4.939,69.024 4.927,69.091 4.9,69.239 4.873,69.385 4.848,69.528 4.836,69.597 4.824,69.665 4.812,69.732 4.788,69.87 4.765,70.007 4.742,70.14 4.731,70.206 4.72,70.271 4.71,70.335 c -0.02,0.13 -0.04,0.256 -0.06,0.379 -0.01,0.064 -0.02,0.127 -0.029,0.19 -0.018,0.118 -0.036,0.234 -0.052,0.347 -0.009,0.064 -0.018,0.125 -0.027,0.187 -0.015,0.106 -0.03,0.211 -0.044,0.312 -0.008,0.06 -0.016,0.117 -0.024,0.176 -0.013,0.096 -0.026,0.191 -0.037,0.282 -0.008,0.06 -0.015,0.116 -0.022,0.174 -0.01,0.082 -0.02,0.163 -0.029,0.24 -0.007,0.06 -0.013,0.115 -0.02,0.171 C 4.358,72.861 4.35,72.93 4.343,72.994 4.336,73.053 4.331,73.107 4.325,73.162 4.32,73.214 4.314,73.27 4.309,73.32 4.303,73.38 4.298,73.433 4.293,73.487 4.289,73.525 4.285,73.566 4.282,73.601 4.276,73.662 4.272,73.715 4.267,73.768 4.265,73.79 4.263,73.815 4.261,73.836 4.255,73.904 4.25,73.964 4.246,74.017 c 0,0.001 0,0.002 0,0.002 -0.013,0.165 -0.018,0.253 -0.018,0.253 v 0 c 0.002,0 6.725,0.739 15.106,4.558 -0.453,-4.516 -0.413,-11.463 2.3,-19.112 z m 23.351,23.608 c 0.266,-0.399 0.735,-0.58 1.179,-0.5 1.102,-0.319 3.674,-0.965 6.146,1.013 0.917,0.734 1.672,1.045 2.295,0.983 0.779,-0.09 1.632,-0.792 2.853,-2.346 0.52,-0.662 0.839,-1.212 1.096,-1.655 1.202,-2.074 2.196,-2.029 4.779,-0.814 1.245,0.587 2.574,0.537 3.558,-0.131 0.817,-0.556 1.251,-1.441 1.189,-2.43 -0.04,-0.642 0.448,-1.195 1.089,-1.235 0.662,-0.035 1.195,0.447 1.235,1.089 0.113,1.804 -0.711,3.487 -2.205,4.502 -1.672,1.136 -3.862,1.252 -5.858,0.312 -0.848,-0.4 -1.272,-0.556 -1.481,-0.609 -0.083,0.124 -0.196,0.318 -0.292,0.484 -0.277,0.479 -0.657,1.135 -1.279,1.926 -1.217,1.548 -2.593,3.01 -4.417,3.22 -0.149,0.017 -0.299,0.026 -0.448,0.026 -1.136,0 -2.309,-0.495 -3.571,-1.504 -1.631,-1.305 -3.345,-0.8 -4.168,-0.557 -0.415,0.121 -1.186,0.349 -1.698,-0.347 -0.242,-0.328 -0.369,-0.876 -0.002,-1.427 z"
   id="path260"
   inkscape:connector-curvature="0"
   style="fill:#ffe3a2" />
	<path
   d="m 84.983,69.735 c 0.107,-0.131 0.215,-0.257 0.322,-0.385 -0.107,0.128 -0.215,0.254 -0.322,0.385 z"
   id="path262"
   inkscape:connector-curvature="0"
   style="fill:#ffe3a2" />
	<path
   d="m 90.919,63.765 c 0.061,-0.05 0.122,-0.102 0.183,-0.152 -0.061,0.05 -0.122,0.101 -0.183,0.152 z"
   id="path264"
   inkscape:connector-curvature="0"
   style="fill:#ffe3a2" />
	<path
   d="m 88.624,65.799 c 0.032,-0.031 0.065,-0.06 0.097,-0.09 -0.033,0.031 -0.065,0.06 -0.097,0.09 z"
   id="path266"
   inkscape:connector-curvature="0"
   style="fill:#ffe3a2" />
	<path
   d="m 20.472,79.382 c 0.19,0.098 0.38,0.2 0.572,0.305 -0.192,-0.105 -0.382,-0.207 -0.572,-0.305 z"
   id="path268"
   inkscape:connector-curvature="0"
   style="fill:#ffe3a2" />
	<path
   d="m 23.721,81.29 c -0.263,-0.168 -0.522,-0.331 -0.78,-0.49 0.258,0.159 0.518,0.322 0.78,0.49 z"
   id="path270"
   inkscape:connector-curvature="0"
   style="fill:#ffe3a2" />
	<path
   d="m 30.039,85.454 c -2.254,-1.447 -4.352,-2.908 -6.314,-4.162 1.961,1.254 4.06,2.716 6.314,4.162 z"
   id="path272"
   inkscape:connector-curvature="0"
   style="fill:#ffe3a2" />
	<path
   d="m 19.541,78.923 c 0.239,0.11 0.48,0.229 0.723,0.351 -0.243,-0.122 -0.485,-0.241 -0.723,-0.351 z"
   id="path274"
   inkscape:connector-curvature="0"
   style="fill:#ffe3a2" />
	<path
   d="m 21.226,79.786 c 0.25,0.139 0.502,0.283 0.756,0.432 -0.254,-0.149 -0.506,-0.293 -0.756,-0.432 z"
   id="path276"
   inkscape:connector-curvature="0"
   style="fill:#ffe3a2" />
	<path
   d="m 82.281,73.255 c 0.168,-0.223 0.34,-0.452 0.512,-0.68 -0.175,0.231 -0.343,0.454 -0.512,0.68 z"
   id="path278"
   inkscape:connector-curvature="0"
   style="fill:#ffe3a2" />
	<path
   d="m 22.067,80.27 c 0.235,0.139 0.473,0.283 0.712,0.43 -0.239,-0.148 -0.477,-0.291 -0.712,-0.43 z"
   id="path280"
   inkscape:connector-curvature="0"
   style="fill:#ffe3a2" />
	<path
   d="M 93.384,61.877 C 91.855,57.119 87.912,49.621 77.784,44.716 61.974,37.06 59.928,56.399 68.309,65.54 c 4.434,4.836 9.456,7.396 13.205,8.736 0.024,-0.032 0.05,-0.067 0.075,-0.099 0.081,-0.107 0.166,-0.221 0.248,-0.33 0.133,-0.178 0.27,-0.359 0.406,-0.54 0.013,-0.018 0.026,-0.035 0.039,-0.052 0.17,-0.226 0.337,-0.449 0.512,-0.68 0.003,-0.005 0.007,-0.01 0.011,-0.014 0.353,-0.469 0.714,-0.948 1.088,-1.441 0.013,-0.017 0.024,-0.032 0.036,-0.048 0.001,-0.002 0.003,-0.003 0.004,-0.005 0.347,-0.458 0.698,-0.899 1.051,-1.33 l 0.001,-10e-4 c 0.107,-0.131 0.215,-0.257 0.322,-0.385 0.001,-0.001 0.001,-0.001 0.002,-0.002 0.256,-0.305 0.512,-0.604 0.77,-0.896 l 0.001,-0.001 c 0.114,-0.129 0.228,-0.257 0.342,-0.383 0,0 0.001,-0.001 0.001,-0.001 0.284,-0.314 0.569,-0.619 0.855,-0.917 10e-4,-10e-4 10e-4,-10e-4 0.002,-0.002 0.075,-0.079 0.151,-0.16 0.226,-0.238 0,0 0,0 0,0 0.373,-0.383 0.746,-0.753 1.12,-1.11 0,0 0,0 0,0 0.032,-0.031 0.065,-0.06 0.097,-0.09 0.001,-0.001 0.001,-0.001 0.002,-0.002 0.34,-0.323 0.681,-0.635 1.021,-0.937 0,0 0,0 0.001,-0.001 0.079,-0.07 0.157,-0.138 0.236,-0.207 0,0 10e-4,-10e-4 10e-4,-10e-4 0.313,-0.274 0.625,-0.54 0.936,-0.797 0,0 0.001,-10e-4 0.001,-10e-4 0.061,-0.05 0.122,-0.102 0.183,-0.152 0,0 0.001,0 0.001,-10e-4 0.766,-0.626 1.529,-1.205 2.279,-1.735 -0.001,0 0,0 0,0 z M 70.356,55.105 c 0.578,1.898 1.874,2.661 2.811,2.564 0.841,-0.084 1.406,-0.812 1.515,-1.948 0.05,-0.525 0.014,-0.815 -0.019,-0.959 -0.291,0.061 -0.829,0.336 -1.214,0.632 -0.511,0.392 -1.241,0.297 -1.632,-0.21 -0.393,-0.507 -0.302,-1.236 0.205,-1.63 0.525,-0.409 2.352,-1.68 3.818,-0.873 0.928,0.51 1.319,1.607 1.161,3.261 -0.215,2.258 -1.628,3.845 -3.599,4.044 -0.122,0.012 -0.246,0.018 -0.372,0.018 -1.807,0 -4.002,-1.271 -4.9,-4.222 -0.819,-2.688 -0.072,-5.362 1.901,-6.813 1.887,-1.387 4.377,-1.284 6.661,0.272 0.531,0.362 0.669,1.086 0.306,1.618 -0.362,0.532 -1.086,0.669 -1.618,0.306 -1.452,-0.99 -2.899,-1.107 -3.97,-0.32 -1.167,0.858 -1.58,2.53 -1.054,4.26 z"
   id="path282"
   inkscape:connector-curvature="0"
   style="fill:#565f6b" />
	<path
   d="m 23.721,81.29 c 0.001,10e-4 0.002,10e-4 0.004,0.002 1.962,1.254 4.06,2.715 6.314,4.162 10e-4,0.001 0.002,0.001 0.003,0.002 v 0 C 35.25,81.217 43.282,72.74 43.804,60.451 44.579,42.179 26.339,46.454 21.634,59.718 c -2.713,7.649 -2.753,14.596 -2.3,19.111 v 0 c 0,0.001 0,0.001 0,0.002 0.068,0.031 0.135,0.059 0.204,0.09 0.001,0 0.002,10e-4 0.003,10e-4 0.239,0.11 0.48,0.229 0.723,0.351 h 0.001 c 0.069,0.035 0.138,0.071 0.206,0.106 0.001,0 0.001,10e-4 0.001,10e-4 0.19,0.098 0.381,0.2 0.573,0.305 10e-4,0.001 0.002,0.001 0.003,0.002 0.059,0.032 0.118,0.064 0.177,0.097 10e-4,0 10e-4,10e-4 10e-4,10e-4 0.25,0.139 0.502,0.283 0.757,0.433 0.001,0 0.001,10e-4 0.001,10e-4 0.026,0.015 0.051,0.031 0.076,0.046 0.002,0.001 0.005,0.003 0.007,0.004 0.235,0.139 0.473,0.283 0.712,0.43 0.001,0.001 0.002,0.001 0.003,0.002 0.052,0.032 0.103,0.064 0.155,0.096 10e-4,0.001 0.003,0.002 0.004,0.002 0.258,0.16 0.518,0.323 0.78,0.491 z m 7.106,-27.275 c 1.886,-1.388 4.377,-1.284 6.661,0.272 0.531,0.362 0.669,1.086 0.306,1.618 -0.362,0.531 -1.086,0.669 -1.618,0.306 -1.452,-0.99 -2.9,-1.107 -3.97,-0.32 -1.166,0.857 -1.579,2.529 -1.053,4.259 0.578,1.898 1.872,2.664 2.811,2.564 0.841,-0.084 1.406,-0.812 1.515,-1.948 0.05,-0.525 0.014,-0.815 -0.019,-0.959 -0.291,0.061 -0.829,0.336 -1.214,0.632 -0.511,0.392 -1.24,0.297 -1.632,-0.21 -0.393,-0.507 -0.302,-1.237 0.205,-1.63 0.525,-0.409 2.352,-1.678 3.818,-0.873 0.928,0.51 1.319,1.607 1.161,3.261 -0.215,2.258 -1.628,3.845 -3.599,4.044 -0.122,0.012 -0.246,0.018 -0.372,0.018 -1.807,0 -4.002,-1.271 -4.9,-4.222 -0.82,-2.687 -0.073,-5.361 1.9,-6.812 z"
   id="path284"
   inkscape:connector-curvature="0"
   style="fill:#565f6b" />
	<path
   d="m 46.395,73.428 c 0.095,0.173 0.244,0.405 0.441,0.676 1.372,1.888 5.052,5.668 8.547,4.693 3.635,-1.014 5.561,-4.893 6.447,-7.394 0.451,-1.272 0.633,-2.189 0.633,-2.189 -6.821,-2.286 -16.822,2.832 -16.068,4.214 z"
   id="path286"
   inkscape:connector-curvature="0"
   style="fill:#2b2f35" />
	<path
   d="m 71.409,50.846 c 1.071,-0.787 2.518,-0.67 3.97,0.32 0.531,0.362 1.255,0.226 1.618,-0.306 0.362,-0.531 0.225,-1.255 -0.306,-1.618 -2.284,-1.556 -4.774,-1.66 -6.661,-0.272 -1.973,1.451 -2.72,4.125 -1.901,6.813 0.898,2.951 3.093,4.222 4.9,4.222 0.127,0 0.25,-0.006 0.372,-0.018 1.972,-0.199 3.384,-1.785 3.599,-4.044 0.158,-1.653 -0.234,-2.75 -1.161,-3.261 -1.466,-0.807 -3.293,0.464 -3.818,0.873 -0.506,0.393 -0.597,1.123 -0.205,1.63 0.391,0.507 1.121,0.602 1.632,0.21 0.385,-0.296 0.923,-0.571 1.214,-0.632 0.033,0.144 0.069,0.434 0.019,0.959 -0.108,1.136 -0.674,1.863 -1.515,1.948 -0.937,0.097 -2.233,-0.666 -2.811,-2.564 -0.525,-1.731 -0.112,-3.403 1.054,-4.26 z"
   id="path288"
   inkscape:connector-curvature="0"
   style="fill:#2b2f35" />
	<path
   d="m 33.825,65.05 c 0.127,0 0.25,-0.006 0.372,-0.018 1.972,-0.199 3.384,-1.785 3.599,-4.044 0.158,-1.653 -0.234,-2.75 -1.161,-3.261 -1.465,-0.806 -3.292,0.464 -3.818,0.873 -0.506,0.393 -0.597,1.123 -0.205,1.63 0.392,0.507 1.121,0.602 1.632,0.21 0.385,-0.296 0.923,-0.571 1.214,-0.632 0.033,0.144 0.069,0.434 0.019,0.959 -0.108,1.136 -0.674,1.863 -1.515,1.948 -0.939,0.1 -2.233,-0.666 -2.811,-2.564 -0.526,-1.73 -0.113,-3.402 1.053,-4.259 1.07,-0.787 2.518,-0.67 3.97,0.32 0.531,0.362 1.255,0.225 1.618,-0.306 0.362,-0.531 0.225,-1.255 -0.306,-1.618 -2.283,-1.556 -4.775,-1.66 -6.661,-0.272 -1.973,1.451 -2.72,4.125 -1.901,6.813 0.899,2.95 3.095,4.221 4.901,4.221 z"
   id="path290"
   inkscape:connector-curvature="0"
   style="fill:#2b2f35" />
	<path
   d="m 44.988,84.753 c 0.512,0.696 1.283,0.469 1.698,0.347 0.823,-0.243 2.537,-0.747 4.168,0.557 1.261,1.009 2.434,1.504 3.571,1.504 0.149,0 0.299,-0.008 0.448,-0.026 1.824,-0.211 3.201,-1.672 4.417,-3.22 0.622,-0.791 1.002,-1.446 1.279,-1.926 0.096,-0.165 0.209,-0.359 0.292,-0.484 0.209,0.052 0.633,0.209 1.481,0.609 1.995,0.939 4.185,0.823 5.858,-0.312 1.493,-1.014 2.318,-2.697 2.205,-4.502 -0.04,-0.642 -0.573,-1.124 -1.235,-1.089 -0.641,0.04 -1.13,0.593 -1.089,1.235 0.062,0.989 -0.371,1.874 -1.189,2.43 -0.984,0.668 -2.313,0.718 -3.558,0.131 -2.583,-1.215 -3.578,-1.26 -4.779,0.814 -0.257,0.443 -0.576,0.993 -1.096,1.655 -1.221,1.554 -2.074,2.256 -2.853,2.346 -0.624,0.062 -1.378,-0.249 -2.295,-0.983 -2.472,-1.978 -5.044,-1.332 -6.146,-1.013 -0.444,-0.08 -0.913,0.101 -1.179,0.5 -0.368,0.551 -0.241,1.099 0.002,1.427 z"
   id="path292"
   inkscape:connector-curvature="0"
   style="fill:#2b2f35" />
</g>







<g
   id="g2324"
   transform="translate(-4.228,-8.1999543)">
</g>
<g
   id="g2326"
   transform="translate(-4.228,-8.1999543)">
</g>
<g
   id="g2328"
   transform="translate(-4.228,-8.1999543)">
</g>
<g
   id="g2330"
   transform="translate(-4.228,-8.1999543)">
</g>
<g
   id="g2332"
   transform="translate(-4.228,-8.1999543)">
</g>
<g
   id="g2334"
   transform="translate(-4.228,-8.1999543)">
</g>
</svg>