<?xml version="1.0" encoding="UTF-8" standalone="no"?>
<!-- Generator: Adobe Illustrator 17.0.0, SVG Export Plug-In . SVG Version: 6.00 Build 0)  -->

<svg
   xmlns:dc="http://purl.org/dc/elements/1.1/"
   xmlns:cc="http://creativecommons.org/ns#"
   xmlns:rdf="http://www.w3.org/1999/02/22-rdf-syntax-ns#"
   xmlns:svg="http://www.w3.org/2000/svg"
   xmlns="http://www.w3.org/2000/svg"
   xmlns:sodipodi="http://sodipodi.sourceforge.net/DTD/sodipodi-0.dtd"
   xmlns:inkscape="http://www.inkscape.org/namespaces/inkscape"
   version="1.1"
   id="Слой_1"
   x="0px"
   y="0px"
   width="140.84599"
   height="123.07819"
   viewBox="0 0 140.84599 123.07819"
   enable-background="new 0 0 1200 150"
   xml:space="preserve"
   sodipodi:docname="6.svg"
   inkscape:version="0.92.4 (5da689c313, 2019-01-14)"><metadata
   id="metadata2341"><rdf:RDF><cc:Work
       rdf:about=""><dc:format>image/svg+xml</dc:format><dc:type
         rdf:resource="http://purl.org/dc/dcmitype/StillImage" /><dc:title></dc:title></cc:Work></rdf:RDF></metadata><defs
   id="defs2339" /><sodipodi:namedview
   pagecolor="#ffffff"
   bordercolor="#666666"
   borderopacity="1"
   objecttolerance="10"
   gridtolerance="10"
   guidetolerance="10"
   inkscape:pageopacity="0"
   inkscape:pageshadow="2"
   inkscape:window-width="1920"
   inkscape:window-height="1017"
   id="namedview2337"
   showgrid="false"
   inkscape:zoom="0.66939442"
   inkscape:cx="-40.047344"
   inkscape:cy="-57.576444"
   inkscape:window-x="-8"
   inkscape:window-y="-8"
   inkscape:window-maximized="1"
   inkscape:current-layer="Слой_1"
   fit-margin-top="0"
   fit-margin-left="0"
   fit-margin-right="0"
   fit-margin-bottom="0" />





<g
   id="g1732"
   transform="translate(-904.511,-13.709398)">
	<path
   d="m 1004.529,131.592 c -0.448,0.015 -0.891,0.023 -1.327,0.016 0.436,0.007 0.879,0 1.327,-0.016 z"
   id="path1446"
   inkscape:connector-curvature="0"
   style="fill:#565f6b" />
	<path
   d="m 1003.156,131.608 c -0.486,-0.009 -0.965,-0.032 -1.437,-0.068 0.472,0.036 0.95,0.06 1.437,0.068 z"
   id="path1448"
   inkscape:connector-curvature="0"
   style="fill:#565f6b" />
	<path
   d="m 994.412,109.038 c 0.055,-0.021 0.111,-0.044 0.167,-0.066 -0.055,0.022 -0.111,0.045 -0.167,0.066 z"
   id="path1450"
   inkscape:connector-curvature="0"
   style="fill:#565f6b" />
	<path
   d="m 1009.628,130.997 c -0.488,0.093 -0.982,0.173 -1.479,0.247 0.497,-0.074 0.991,-0.155 1.479,-0.247 z"
   id="path1452"
   inkscape:connector-curvature="0"
   style="fill:#565f6b" />
	<path
   d="m 1001.601,131.531 c -0.464,-0.037 -0.922,-0.085 -1.372,-0.146 0.45,0.061 0.908,0.109 1.372,0.146 z"
   id="path1454"
   inkscape:connector-curvature="0"
   style="fill:#565f6b" />
	<path
   d="m 989.982,109.662 c 0.022,0.003 0.045,0.004 0.067,0.007 -0.022,-0.003 -0.045,-0.004 -0.067,-0.007 z"
   id="path1456"
   inkscape:connector-curvature="0"
   style="fill:#565f6b" />
	<path
   d="m 994.991,108.804 c 0.066,-0.028 0.132,-0.058 0.199,-0.087 -0.067,0.029 -0.133,0.059 -0.199,0.087 z"
   id="path1458"
   inkscape:connector-curvature="0"
   style="fill:#565f6b" />
	<path
   d="m 993.836,109.238 c 0.005,-0.002 0.009,-0.003 0.014,-0.004 -0.005,0.002 -0.01,0.003 -0.014,0.004 z"
   id="path1460"
   inkscape:connector-curvature="0"
   style="fill:#565f6b" />
	<path
   d="m 1007.798,131.294 c -0.498,0.07 -0.998,0.133 -1.503,0.184 0.506,-0.05 1.006,-0.114 1.503,-0.184 z"
   id="path1462"
   inkscape:connector-curvature="0"
   style="fill:#565f6b" />
	<path
   d="m 1006.295,131.478 c -0.484,0.048 -0.96,0.079 -1.431,0.101 0.471,-0.023 0.947,-0.053 1.431,-0.101 z"
   id="path1464"
   inkscape:connector-curvature="0"
   style="fill:#565f6b" />
	<path
   d="m 992.073,109.639 c 0.04,-0.005 0.081,-0.012 0.122,-0.018 -0.041,0.005 -0.082,0.012 -0.122,0.018 z"
   id="path1466"
   inkscape:connector-curvature="0"
   style="fill:#565f6b" />
	<path
   d="m 988.99,109.479 c 0.024,0.006 0.047,0.012 0.071,0.018 -0.024,-0.006 -0.048,-0.012 -0.071,-0.018 z"
   id="path1468"
   inkscape:connector-curvature="0"
   style="fill:#565f6b" />
	<path
   d="m 992.593,109.554 c 0.055,-0.01 0.109,-0.022 0.164,-0.033 -0.055,0.011 -0.11,0.022 -0.164,0.033 z"
   id="path1470"
   inkscape:connector-curvature="0"
   style="fill:#565f6b" />
	<path
   d="m 993.147,109.431 c 0.051,-0.013 0.103,-0.025 0.154,-0.038 -0.051,0.014 -0.103,0.026 -0.154,0.038 z"
   id="path1472"
   inkscape:connector-curvature="0"
   style="fill:#565f6b" />
	<path
   d="m 995.605,108.522 c 0.061,-0.03 0.122,-0.058 0.184,-0.089 -0.062,0.031 -0.123,0.059 -0.184,0.089 z"
   id="path1474"
   inkscape:connector-curvature="0"
   style="fill:#565f6b" />
	<path
   d="m 1014.332,129.802 c -0.968,0.308 -1.954,0.582 -2.959,0.82 1.005,-0.238 1.992,-0.512 2.959,-0.82 z"
   id="path1476"
   inkscape:connector-curvature="0"
   style="fill:#565f6b" />
	<path
   d="m 1040.128,100.015 c 0.13,0.1 0.26,0.201 0.391,0.304 -0.131,-0.103 -0.261,-0.204 -0.391,-0.304 z"
   id="path1478"
   inkscape:connector-curvature="0"
   style="fill:#565f6b" />
	<path
   d="m 1038.972,99.163 c 0.229,0.162 0.459,0.329 0.69,0.501 -0.231,-0.172 -0.461,-0.338 -0.69,-0.501 z"
   id="path1480"
   inkscape:connector-curvature="0"
   style="fill:#565f6b" />
	<path
   d="m 1038.124,98.578 c 0.166,0.111 0.333,0.224 0.5,0.34 -0.167,-0.116 -0.334,-0.229 -0.5,-0.34 z"
   id="path1482"
   inkscape:connector-curvature="0"
   style="fill:#565f6b" />
	<path
   d="m 1041.115,100.798 c 0.122,0.1 0.244,0.2 0.367,0.302 -0.122,-0.102 -0.244,-0.203 -0.367,-0.302 z"
   id="path1484"
   inkscape:connector-curvature="0"
   style="fill:#565f6b" />
	<path
   d="m 1036.88,97.789 c 0.335,0.202 0.671,0.414 1.009,0.636 -0.338,-0.222 -0.674,-0.434 -1.009,-0.636 z"
   id="path1486"
   inkscape:connector-curvature="0"
   style="fill:#565f6b" />
	<path
   d="m 1014.716,96.464 c 0.483,-0.215 0.971,-0.419 1.465,-0.61 -0.494,0.191 -0.982,0.395 -1.465,0.61 z"
   id="path1488"
   inkscape:connector-curvature="0"
   style="fill:#565f6b" />
	<path
   d="m 1034.914,96.698 c 0.398,0.201 0.799,0.416 1.202,0.643 -0.403,-0.227 -0.804,-0.442 -1.202,-0.643 z"
   id="path1490"
   inkscape:connector-curvature="0"
   style="fill:#565f6b" />
	<path
   d="m 1042.16,101.678 c 0.099,0.086 0.198,0.172 0.297,0.26 -0.099,-0.088 -0.198,-0.174 -0.297,-0.26 z"
   id="path1492"
   inkscape:connector-curvature="0"
   style="fill:#565f6b" />
	<path
   d="m 1036.17,97.372 c 0.196,0.111 0.392,0.226 0.588,0.343 -0.196,-0.117 -0.393,-0.232 -0.588,-0.343 z"
   id="path1494"
   inkscape:connector-curvature="0"
   style="fill:#565f6b" />
	<path
   d="m 1007.799,100.356 c 0.428,-0.283 0.86,-0.562 1.296,-0.837 -0.437,0.275 -0.869,0.555 -1.296,0.837 z"
   id="path1496"
   inkscape:connector-curvature="0"
   style="fill:#565f6b" />
	<path
   d="m 1010.482,98.671 c 0.448,-0.265 0.9,-0.524 1.357,-0.774 -0.456,0.251 -0.909,0.509 -1.357,0.774 z"
   id="path1498"
   inkscape:connector-curvature="0"
   style="fill:#565f6b" />
	<path
   d="m 1009.127,99.499 c 0.437,-0.275 0.879,-0.546 1.326,-0.81 -0.447,0.264 -0.889,0.535 -1.326,0.81 z"
   id="path1500"
   inkscape:connector-curvature="0"
   style="fill:#565f6b" />
	<path
   d="m 1011.865,97.883 c 0.459,-0.251 0.923,-0.495 1.392,-0.729 -0.469,0.234 -0.933,0.478 -1.392,0.729 z"
   id="path1502"
   inkscape:connector-curvature="0"
   style="fill:#565f6b" />
	<path
   d="m 1006.492,101.237 c 0.42,-0.289 0.845,-0.576 1.275,-0.86 -0.43,0.285 -0.855,0.572 -1.275,0.86 z"
   id="path1504"
   inkscape:connector-curvature="0"
   style="fill:#565f6b" />
	<path
   d="m 1044.214,103.568 c 0.078,0.076 0.157,0.153 0.235,0.23 -0.078,-0.078 -0.157,-0.154 -0.235,-0.23 z"
   id="path1506"
   inkscape:connector-curvature="0"
   style="fill:#565f6b" />
	<path
   d="m 1013.276,97.144 c 0.471,-0.235 0.947,-0.461 1.427,-0.675 -0.48,0.215 -0.956,0.44 -1.427,0.675 z"
   id="path1508"
   inkscape:connector-curvature="0"
   style="fill:#565f6b" />
	<path
   d="m 1043.264,102.666 c 0.033,0.03 0.065,0.06 0.098,0.091 -0.032,-0.031 -0.065,-0.061 -0.098,-0.091 z"
   id="path1510"
   inkscape:connector-curvature="0"
   style="fill:#565f6b" />
	<path
   d="m 1017.428,128.686 c -0.968,0.391 -1.958,0.751 -2.967,1.075 1.01,-0.324 1.999,-0.684 2.967,-1.075 z"
   id="path1512"
   inkscape:connector-curvature="0"
   style="fill:#565f6b" />
	<path
   d="m 1011.112,130.683 c -0.486,0.112 -0.976,0.217 -1.471,0.311 0.495,-0.094 0.984,-0.2 1.471,-0.311 z"
   id="path1514"
   inkscape:connector-curvature="0"
   style="fill:#565f6b" />
	<path
   d="m 990.449,109.702 c 0.039,0.002 0.079,0.004 0.118,0.006 -0.04,-0.002 -0.079,-0.004 -0.118,-0.006 z"
   id="path1516"
   inkscape:connector-curvature="0"
   style="fill:#565f6b" />
	<path
   d="m 996.419,108.1 c -0.008,0.005 -0.017,0.01 -0.025,0.015 v 0 0 c 0.008,-0.005 0.016,-0.01 0.025,-0.015 z"
   id="path1518"
   inkscape:connector-curvature="0"
   style="fill:#565f6b" />
	<path
   d="m 991.06,109.715 c -0.038,10e-4 -0.075,0 -0.113,0 0.038,0 0.075,10e-4 0.113,0 z"
   id="path1520"
   inkscape:connector-curvature="0"
   style="fill:#565f6b" />
	<path
   d="m 1018.893,128.063 c -0.482,0.215 -0.97,0.422 -1.463,0.621 17.351,-7.011 27.926,-23.977 27.926,-23.977 v 0 c 0,0 -2.779,4.45 -7.811,9.731 -0.099,-6.473 -1.462,-13.144 -2.641,-17.745 -6.937,-3.499 -13.15,-2.998 -18.724,-0.84 5.754,9.477 4.662,23.01 2.713,32.21 z"
   id="path1522"
   inkscape:connector-curvature="0"
   style="fill:#565f6b" />
	<path
   d="m 987.772,125.132 c -0.063,0.155 -0.122,0.315 -0.189,0.464 3.407,2.885 7.585,5.097 12.645,5.788 6.175,-8.262 5.86,-21.452 4.979,-29.252 0.417,-0.294 0.838,-0.588 1.264,-0.88 -3.565,2.448 -6.808,4.994 -9.765,6.685 0.707,8.027 -5.542,14.164 -8.934,17.195 z"
   id="path1524"
   inkscape:connector-curvature="0"
   style="fill:#565f6b" />
	<path
   d="m 1045.357,104.708 v 0 c -0.304,-0.313 -0.606,-0.614 -0.908,-0.91 -0.078,-0.077 -0.157,-0.154 -0.235,-0.23 -0.285,-0.277 -0.569,-0.549 -0.852,-0.811 -0.033,-0.03 -0.065,-0.06 -0.098,-0.091 -0.27,-0.25 -0.539,-0.491 -0.807,-0.728 -0.099,-0.087 -0.198,-0.174 -0.297,-0.26 -0.227,-0.197 -0.453,-0.39 -0.678,-0.578 -0.122,-0.102 -0.245,-0.203 -0.367,-0.302 -0.199,-0.163 -0.398,-0.323 -0.597,-0.479 -0.131,-0.103 -0.261,-0.204 -0.391,-0.304 -0.156,-0.119 -0.311,-0.235 -0.466,-0.351 -0.23,-0.171 -0.46,-0.339 -0.69,-0.501 -0.116,-0.082 -0.232,-0.165 -0.348,-0.245 -0.167,-0.116 -0.334,-0.229 -0.5,-0.34 -0.078,-0.052 -0.156,-0.103 -0.235,-0.154 -0.338,-0.221 -0.675,-0.434 -1.009,-0.636 -0.041,-0.024 -0.081,-0.05 -0.122,-0.074 -0.197,-0.118 -0.393,-0.232 -0.588,-0.343 -0.018,-0.01 -0.036,-0.02 -0.054,-0.03 -0.403,-0.228 -0.804,-0.442 -1.202,-0.643 0,-10e-4 -0.01,-0.003 -0.01,-0.004 v 0 c 1.179,4.601 2.542,11.272 2.641,17.745 5.032,-5.281 7.811,-9.731 7.811,-9.731 z"
   id="path1526"
   inkscape:connector-curvature="0"
   style="fill:#2b2f35" />
	<path
   d="m 987.772,125.132 c 3.392,-3.031 9.641,-9.168 8.933,-17.194 v 0 c -0.095,0.055 -0.191,0.11 -0.286,0.163 -0.008,0.005 -0.017,0.01 -0.025,0.015 v 0 c -0.204,0.113 -0.405,0.218 -0.604,0.318 -0.062,0.031 -0.123,0.06 -0.184,0.089 -0.14,0.068 -0.278,0.133 -0.415,0.194 -0.067,0.03 -0.133,0.059 -0.199,0.087 -0.138,0.059 -0.275,0.115 -0.411,0.168 -0.056,0.022 -0.112,0.045 -0.167,0.066 -0.19,0.071 -0.378,0.137 -0.563,0.197 -0.005,0.002 -0.009,0.003 -0.014,0.004 -0.18,0.057 -0.358,0.108 -0.534,0.155 -0.052,0.014 -0.103,0.026 -0.154,0.038 -0.131,0.033 -0.261,0.063 -0.39,0.089 -0.055,0.011 -0.11,0.022 -0.164,0.033 -0.134,0.025 -0.266,0.048 -0.398,0.067 -0.041,0.006 -0.082,0.013 -0.122,0.018 -0.346,0.046 -0.684,0.071 -1.013,0.076 -0.038,10e-4 -0.075,0 -0.113,0 -0.128,0 -0.255,-0.002 -0.38,-0.007 -0.039,-0.002 -0.079,-0.003 -0.118,-0.006 -0.135,-0.008 -0.268,-0.019 -0.4,-0.033 -0.022,-0.002 -0.045,-0.004 -0.067,-0.007 -0.316,-0.037 -0.623,-0.093 -0.921,-0.165 -0.024,-0.006 -0.047,-0.012 -0.071,-0.018 -0.027,-0.007 -0.053,-0.015 -0.079,-0.022 0.704,6.173 0.393,11.892 -1.141,15.675 z"
   id="path1528"
   inkscape:connector-curvature="0"
   style="fill:#2b2f35" />
	<path
   d="m 1000.227,131.384 v 0 c 10e-4,0 0,0 0,0 0.451,0.062 0.909,0.109 1.373,0.146 0.039,0.003 0.078,0.007 0.118,0.01 0.472,0.035 0.95,0.059 1.437,0.068 0.015,0 0.031,0 0.046,0 0.436,0.007 0.879,0 1.327,-0.016 0.111,-0.004 0.223,-0.008 0.335,-0.013 0.471,-0.022 0.947,-0.053 1.431,-0.101 0.505,-0.05 1.006,-0.114 1.503,-0.184 0.117,-0.016 0.234,-0.033 0.351,-0.051 0.496,-0.074 0.99,-0.155 1.479,-0.247 0,-0.001 0.01,-0.002 0.013,-0.003 0.495,-0.094 0.984,-0.199 1.471,-0.311 0.087,-0.02 0.175,-0.04 0.262,-0.061 1.004,-0.238 1.991,-0.512 2.959,-0.82 0.043,-0.014 0.086,-0.027 0.129,-0.041 1.009,-0.325 1.999,-0.684 2.967,-1.075 0,0 0,-0.001 0,-0.001 0.493,-0.199 0.981,-0.407 1.463,-0.621 1.949,-9.2 3.041,-22.733 -2.712,-32.21 v 0 c 0,0 -10e-4,0 -10e-4,0 -0.493,0.191 -0.981,0.395 -1.465,0.61 0,0.002 -0.01,0.004 -0.013,0.005 -0.481,0.214 -0.956,0.44 -1.427,0.675 -0.01,0.003 -0.013,0.006 -0.02,0.01 -0.469,0.234 -0.932,0.478 -1.392,0.729 -0.01,0.005 -0.017,0.009 -0.025,0.014 -0.457,0.251 -0.909,0.509 -1.357,0.774 -0.01,0.006 -0.02,0.012 -0.03,0.017 -0.446,0.264 -0.888,0.535 -1.326,0.81 -0.011,0.007 -0.021,0.013 -0.032,0.02 -0.437,0.275 -0.869,0.555 -1.296,0.837 -0.011,0.007 -0.021,0.014 -0.032,0.021 -0.429,0.284 -0.854,0.571 -1.275,0.86 -0.01,0.005 -0.015,0.01 -0.022,0.015 -0.426,0.292 -0.847,0.586 -1.264,0.88 0.881,7.802 1.195,20.992 -4.979,29.254 z"
   id="path1530"
   inkscape:connector-curvature="0"
   style="fill:#2b2f35" />
	<path
   d="m 972.821,133.025 c 3.946,1.697 13.351,5.157 17.459,1.609 3.28,-2.834 -0.295,-5.825 -3.46,-7.678 -1.935,2.595 -7.256,4.727 -13.999,6.069 z"
   id="path1532"
   inkscape:connector-curvature="0"
   style="fill:#565f6b" />
	<path
   d="m 926.201,135.134 c 3.896,3.06 13.824,1.434 19.108,-1.322 -6.336,-0.938 -11.907,-2.783 -15.408,-5.745 -2.925,1.632 -6.905,4.55 -3.7,7.067 z"
   id="path1534"
   inkscape:connector-curvature="0"
   style="fill:#565f6b" />
	<path
   d="m 990.349,20.959 c 3.284,0.414 0.723,11.466 -0.103,14.712 1.117,1.016 2.17,2.056 3.159,3.112 l 0.003,0.002 c 0,0 5.551,-24.564 -0.707,-24.571 -4.817,-0.005 -11.845,8.976 -14.829,13.115 1.257,0.599 2.465,1.238 3.625,1.913 1.006,-1.672 5.457,-8.711 8.852,-8.283 z"
   id="path1536"
   inkscape:connector-curvature="0"
   style="fill:#565f6b" />
	<path
   d="m 926.483,35.272 c -1.223,-3.313 -5.238,-14.868 -2.023,-15.579 3.189,-0.705 7.894,7.427 9.242,9.899 0.949,-0.634 1.917,-1.238 2.904,-1.806 -2.711,-4.072 -10.434,-14.837 -15.831,-14.034 -6.642,0.987 2.54,24.552 2.549,24.574 1.018,-1.043 2.071,-2.064 3.159,-3.054 z"
   id="path1538"
   inkscape:connector-curvature="0"
   style="fill:#565f6b" />
	<path
   d="m 907.11,60.799 c 0.093,-0.175 0.189,-0.354 0.286,-0.534 -0.097,0.18 -0.193,0.359 -0.286,0.534 z"
   id="path1540"
   inkscape:connector-curvature="0"
   style="fill:#677686" />
	<path
   d="m 907.922,59.302 c 0.109,-0.196 0.22,-0.395 0.332,-0.595 -0.112,0.2 -0.224,0.399 -0.332,0.595 z"
   id="path1542"
   inkscape:connector-curvature="0"
   style="fill:#677686" />
	<path
   d="m 906.383,62.199 c 0.076,-0.15 0.155,-0.304 0.235,-0.458 -0.079,0.154 -0.158,0.308 -0.235,0.458 z"
   id="path1544"
   inkscape:connector-curvature="0"
   style="fill:#677686" />
	<path
   d="m 907.506,60.06 c 0.1,-0.185 0.203,-0.372 0.307,-0.561 -0.104,0.189 -0.207,0.377 -0.307,0.561 z"
   id="path1546"
   inkscape:connector-curvature="0"
   style="fill:#677686" />
	<path
   d="m 906.738,61.508 c 0.085,-0.163 0.173,-0.33 0.261,-0.497 -0.088,0.167 -0.176,0.334 -0.261,0.497 z"
   id="path1548"
   inkscape:connector-curvature="0"
   style="fill:#677686" />
	<path
   d="m 906.051,62.862 c 0.07,-0.141 0.143,-0.286 0.216,-0.432 -0.073,0.145 -0.146,0.291 -0.216,0.432 z"
   id="path1550"
   inkscape:connector-curvature="0"
   style="fill:#677686" />
	<path
   d="m 983.356,80.315 c -0.589,0.563 -1.194,1.123 -1.815,1.676 0.622,-0.552 1.226,-1.113 1.815,-1.676 z"
   id="path1552"
   inkscape:connector-curvature="0"
   style="fill:#677686" />
	<path
   d="m 904.712,65.735 c 0.033,-0.077 0.07,-0.16 0.105,-0.24 -0.035,0.08 -0.072,0.163 -0.105,0.24 z"
   id="path1554"
   inkscape:connector-curvature="0"
   style="fill:#677686" />
	<path
   d="m 1007.2,62.156 c 0.012,0.037 0.024,0.076 0.035,0.111 -0.011,-0.035 -0.023,-0.074 -0.035,-0.111 z"
   id="path1556"
   inkscape:connector-curvature="0"
   style="fill:#677686" />
	<path
   d="m 1007.286,62.433 c 0.01,0.018 0.012,0.039 0.017,0.056 0,-0.017 -0.011,-0.038 -0.017,-0.056 z"
   id="path1558"
   inkscape:connector-curvature="0"
   style="fill:#677686" />
	<path
   d="m 905.184,64.677 c 0.045,-0.098 0.094,-0.201 0.141,-0.303 -0.048,0.101 -0.096,0.204 -0.141,0.303 z"
   id="path1560"
   inkscape:connector-curvature="0"
   style="fill:#677686" />
	<path
   d="m 905.741,63.496 c 0.062,-0.128 0.127,-0.261 0.192,-0.393 -0.065,0.132 -0.13,0.264 -0.192,0.393 z"
   id="path1562"
   inkscape:connector-curvature="0"
   style="fill:#677686" />
	<path
   d="m 905.451,64.102 c 0.054,-0.114 0.111,-0.233 0.167,-0.351 -0.056,0.118 -0.113,0.237 -0.167,0.351 z"
   id="path1564"
   inkscape:connector-curvature="0"
   style="fill:#677686" />
	<path
   d="m 908.357,58.525 c 0.117,-0.207 0.237,-0.416 0.358,-0.627 -0.121,0.211 -0.241,0.42 -0.358,0.627 z"
   id="path1566"
   inkscape:connector-curvature="0"
   style="fill:#677686" />
	<path
   d="m 904.936,65.224 c 0.038,-0.086 0.08,-0.178 0.12,-0.267 -0.039,0.089 -0.081,0.18 -0.12,0.267 z"
   id="path1568"
   inkscape:connector-curvature="0"
   style="fill:#677686" />
	<path
   d="m 1007.426,62.911 v 0 c 0,0 -2.793,0.92 -6.816,3.115 4.024,-2.195 6.816,-3.115 6.816,-3.115 z"
   id="path1570"
   inkscape:connector-curvature="0"
   style="fill:#677686" />
	<path
   d="m 914.473,48.952 c 0.195,-0.271 0.391,-0.543 0.591,-0.816 -0.199,0.273 -0.396,0.545 -0.591,0.816 z"
   id="path1572"
   inkscape:connector-curvature="0"
   style="fill:#677686" />
	<path
   d="m 908.813,57.726 c 0.124,-0.215 0.251,-0.432 0.379,-0.651 -0.128,0.219 -0.255,0.436 -0.379,0.651 z"
   id="path1574"
   inkscape:connector-curvature="0"
   style="fill:#677686" />
	<path
   d="m 913.184,50.792 c 0.182,-0.265 0.365,-0.531 0.552,-0.797 -0.187,0.266 -0.371,0.532 -0.552,0.797 z"
   id="path1576"
   inkscape:connector-curvature="0"
   style="fill:#677686" />
	<path
   d="m 916.54,46.172 c 0.217,-0.282 0.437,-0.564 0.66,-0.847 -0.223,0.283 -0.443,0.565 -0.66,0.847 z"
   id="path1578"
   inkscape:connector-curvature="0"
   style="fill:#677686" />
	<path
   d="m 912.57,51.698 c 0.174,-0.26 0.351,-0.522 0.531,-0.785 -0.18,0.263 -0.356,0.524 -0.531,0.785 z"
   id="path1580"
   inkscape:connector-curvature="0"
   style="fill:#677686" />
	<path
   d="m 915.832,47.102 c 0.21,-0.279 0.422,-0.559 0.637,-0.838 -0.215,0.279 -0.427,0.558 -0.637,0.838 z"
   id="path1582"
   inkscape:connector-curvature="0"
   style="fill:#677686" />
	<path
   d="m 915.144,48.029 c 0.202,-0.275 0.407,-0.551 0.614,-0.828 -0.208,0.276 -0.412,0.552 -0.614,0.828 z"
   id="path1584"
   inkscape:connector-curvature="0"
   style="fill:#677686" />
	<path
   d="m 913.819,49.875 c 0.188,-0.268 0.378,-0.536 0.57,-0.806 -0.192,0.27 -0.382,0.538 -0.57,0.806 z"
   id="path1586"
   inkscape:connector-curvature="0"
   style="fill:#677686" />
	<path
   d="m 911.974,52.597 c 0.167,-0.255 0.337,-0.512 0.509,-0.77 -0.172,0.258 -0.342,0.515 -0.509,0.77 z"
   id="path1588"
   inkscape:connector-curvature="0"
   style="fill:#677686" />
	<path
   d="m 909.291,56.908 c 0.13,-0.221 0.263,-0.443 0.397,-0.668 -0.135,0.225 -0.267,0.448 -0.397,0.668 z"
   id="path1590"
   inkscape:connector-curvature="0"
   style="fill:#677686" />
	<path
   d="m 910.305,55.225 c 0.146,-0.237 0.295,-0.477 0.445,-0.717 -0.151,0.24 -0.299,0.479 -0.445,0.717 z"
   id="path1592"
   inkscape:connector-curvature="0"
   style="fill:#677686" />
	<path
   d="m 909.79,56.07 c 0.138,-0.228 0.278,-0.459 0.419,-0.69 -0.141,0.232 -0.282,0.462 -0.419,0.69 z"
   id="path1594"
   inkscape:connector-curvature="0"
   style="fill:#677686" />
	<path
   d="m 911.4,53.481 c 0.16,-0.249 0.322,-0.499 0.486,-0.75 -0.164,0.251 -0.326,0.501 -0.486,0.75 z"
   id="path1596"
   inkscape:connector-curvature="0"
   style="fill:#677686" />
	<path
   d="m 910.841,54.362 c 0.153,-0.243 0.307,-0.487 0.465,-0.733 -0.158,0.246 -0.313,0.49 -0.465,0.733 z"
   id="path1598"
   inkscape:connector-curvature="0"
   style="fill:#677686" />
	<path
   d="m 920.231,70.507 c -10e-4,0 -10e-4,0 0,0 0.07,0.036 0.141,0.074 0.212,0.111 0,0 -10e-4,0 -10e-4,0 -0.071,-0.037 -0.141,-0.075 -0.211,-0.111 z"
   id="path1600"
   inkscape:connector-curvature="0"
   style="fill:#677686" />
	<path
   d="m 917.266,45.242 c 0.225,-0.284 0.451,-0.568 0.681,-0.852 -0.23,0.283 -0.457,0.568 -0.681,0.852 z"
   id="path1602"
   inkscape:connector-curvature="0"
   style="fill:#677686" />
	<path
   d="m 1001.548,49.731 c 0.15,0.254 0.295,0.506 0.438,0.757 -0.143,-0.251 -0.289,-0.503 -0.438,-0.757 z"
   id="path1604"
   inkscape:connector-curvature="0"
   style="fill:#677686" />
	<path
   d="m 1002.038,50.579 c 0.134,0.235 0.263,0.467 0.391,0.699 -0.128,-0.232 -0.257,-0.465 -0.391,-0.699 z"
   id="path1606"
   inkscape:connector-curvature="0"
   style="fill:#677686" />
	<path
   d="m 984.229,79.47 c 0.089,-0.088 0.176,-0.175 0.265,-0.263 v 0 c -0.089,0.088 -0.176,0.176 -0.265,0.263 z"
   id="path1608"
   inkscape:connector-curvature="0"
   style="fill:#677686" />
	<path
   d="m 918.012,44.31 c 0.232,-0.286 0.466,-0.572 0.703,-0.857 -0.237,0.285 -0.471,0.57 -0.703,0.857 z"
   id="path1610"
   inkscape:connector-curvature="0"
   style="fill:#677686" />
	<path
   d="m 990.613,73.046 c -0.001,10e-4 -0.002,0.002 -0.003,0.003 0.206,-0.196 0.411,-0.388 0.615,-0.575 -10e-4,10e-4 -0.002,0.002 -0.003,0.003 -0.202,0.185 -0.405,0.375 -0.609,0.569 z"
   id="path1612"
   inkscape:connector-curvature="0"
   style="fill:#677686" />
	<path
   d="m 991.291,72.413 c 0,0 -0.001,0 0,0 0.218,-0.199 0.435,-0.393 0.651,-0.581 v 0 c -0.216,0.188 -0.433,0.381 -0.651,0.581 z"
   id="path1614"
   inkscape:connector-curvature="0"
   style="fill:#677686" />
	<path
   d="m 919.55,42.461 c 0.248,-0.291 0.499,-0.581 0.753,-0.87 -0.254,0.289 -0.505,0.579 -0.753,0.87 z"
   id="path1616"
   inkscape:connector-curvature="0"
   style="fill:#677686" />
	<path
   d="m 989.81,73.823 c 0.223,-0.22 0.445,-0.434 0.665,-0.645 -10e-4,0.001 -0.002,0.002 -0.003,0.003 -0.219,0.21 -0.439,0.423 -0.662,0.642 z"
   id="path1618"
   inkscape:connector-curvature="0"
   style="fill:#677686" />
	<path
   d="m 984.5,79.202 c -10e-4,0.001 -0.002,0.002 -0.002,0.002 1.905,-1.882 3.654,-3.748 5.313,-5.381 -1.658,1.632 -3.407,3.497 -5.311,5.379 z"
   id="path1620"
   inkscape:connector-curvature="0"
   style="fill:#677686" />
	<path
   d="m 918.77,43.386 c 0.24,-0.289 0.483,-0.577 0.728,-0.865 -0.245,0.288 -0.488,0.576 -0.728,0.865 z"
   id="path1622"
   inkscape:connector-curvature="0"
   style="fill:#677686" />
	<path
   d="m 998.148,44.535 c 1.285,1.77 2.413,3.52 3.399,5.195 -0.985,-1.676 -2.114,-3.425 -3.399,-5.195 z"
   id="path1624"
   inkscape:connector-curvature="0"
   style="fill:#677686" />
	<path
   d="m 922.995,72.064 c -10e-4,0 -10e-4,-10e-4 -10e-4,-10e-4 0.038,0.023 0.076,0.045 0.115,0.069 v 0 c -0.038,-0.024 -0.076,-0.045 -0.114,-0.068 z"
   id="path1626"
   inkscape:connector-curvature="0"
   style="fill:#677686" />
	<path
   d="m 920.338,41.551 c 0.259,-0.295 0.521,-0.589 0.785,-0.882 -0.264,0.293 -0.525,0.587 -0.785,0.882 z"
   id="path1628"
   inkscape:connector-curvature="0"
   style="fill:#677686" />
	<path
   d="m 904.511,66.21 c 0.021,-0.051 0.045,-0.107 0.067,-0.159 -0.022,0.052 -0.046,0.108 -0.067,0.159 0,0 5.703,-0.124 13.129,3.073 0,0 0,0 -10e-4,0 -7.425,-3.197 -13.128,-3.073 -13.128,-3.073 z"
   id="path1630"
   inkscape:connector-curvature="0"
   style="fill:#677686" />
	<path
   d="m 921.524,71.203 c -10e-4,0 -10e-4,0 0,0 0.091,0.051 0.184,0.102 0.276,0.155 h -10e-4 c -0.092,-0.053 -0.184,-0.104 -0.275,-0.155 z"
   id="path1632"
   inkscape:connector-curvature="0"
   style="fill:#677686" />
	<path
   d="m 925.951,74.052 c 0.066,0.048 0.132,0.096 0.198,0.145 v 0 c -0.066,-0.048 -0.132,-0.096 -0.198,-0.145 z"
   id="path1634"
   inkscape:connector-curvature="0"
   style="fill:#677686" />
	<path
   d="m 930.016,77.373 c 0.407,0.355 0.803,0.7 1.191,1.039 -0.386,-0.337 -0.78,-0.681 -1.185,-1.033 -0.002,-0.002 -0.004,-0.004 -0.006,-0.006 z"
   id="path1636"
   inkscape:connector-curvature="0"
   style="fill:#677686" />
	<path
   d="m 927.091,74.916 c -10e-4,0 -10e-4,0 0,0 0.132,0.103 0.264,0.205 0.396,0.311 v 0 c -0.132,-0.106 -0.264,-0.207 -0.396,-0.311 z"
   id="path1638"
   inkscape:connector-curvature="0"
   style="fill:#677686" />
	<path
   d="m 928.796,76.314 c 0,0 -0.001,-10e-4 -0.001,-10e-4 0.001,0 0.001,10e-4 0.001,10e-4 0.354,0.306 0.699,0.606 1.039,0.902 -0.001,-10e-4 -0.002,-0.002 -0.003,-0.003 -0.339,-0.295 -0.683,-0.594 -1.036,-0.899 z"
   id="path1640"
   inkscape:connector-curvature="0"
   style="fill:#677686" />
	<path
   d="m 949.409,70.046 c 0,0 0.244,0.866 1.073,2.01 -0.704,-1.152 -1.073,-2.01 -1.073,-2.01 z"
   id="path1642"
   inkscape:connector-curvature="0"
   style="fill:#677686" />
	<path
   d="m 1006.699,60.668 c 0.032,0.091 0.064,0.181 0.094,0.266 -0.03,-0.086 -0.062,-0.175 -0.094,-0.266 z"
   id="path1644"
   inkscape:connector-curvature="0"
   style="fill:#677686" />
	<path
   d="m 1006.137,59.163 c 0.047,0.121 0.093,0.24 0.137,0.356 -0.043,-0.116 -0.089,-0.235 -0.137,-0.356 z"
   id="path1646"
   inkscape:connector-curvature="0"
   style="fill:#677686" />
	<path
   d="m 1004.809,56.013 c 0.075,0.164 0.147,0.326 0.218,0.486 -0.071,-0.161 -0.144,-0.322 -0.218,-0.486 z"
   id="path1648"
   inkscape:connector-curvature="0"
   style="fill:#677686" />
	<path
   d="m 1005.666,57.99 c 0.058,0.14 0.114,0.277 0.169,0.412 -0.055,-0.135 -0.111,-0.272 -0.169,-0.412 z"
   id="path1650"
   inkscape:connector-curvature="0"
   style="fill:#677686" />
	<path
   d="m 1005.401,57.359 c 0.063,0.148 0.125,0.294 0.185,0.438 -0.06,-0.144 -0.121,-0.289 -0.185,-0.438 z"
   id="path1652"
   inkscape:connector-curvature="0"
   style="fill:#677686" />
	<path
   d="m 1005.116,56.7 c 0.068,0.156 0.135,0.309 0.2,0.46 -0.065,-0.152 -0.132,-0.304 -0.2,-0.46 z"
   id="path1654"
   inkscape:connector-curvature="0"
   style="fill:#677686" />
	<path
   d="m 1005.911,58.592 c 0.052,0.13 0.103,0.259 0.153,0.384 -0.049,-0.126 -0.1,-0.254 -0.153,-0.384 z"
   id="path1656"
   inkscape:connector-curvature="0"
   style="fill:#677686" />
	<path
   d="m 1006.85,61.098 c 0.027,0.078 0.054,0.157 0.079,0.23 -0.025,-0.073 -0.052,-0.152 -0.079,-0.23 z"
   id="path1658"
   inkscape:connector-curvature="0"
   style="fill:#677686" />
	<path
   d="m 1006.984,61.493 c 0.022,0.065 0.044,0.131 0.064,0.192 -0.02,-0.062 -0.042,-0.127 -0.064,-0.192 z"
   id="path1660"
   inkscape:connector-curvature="0"
   style="fill:#677686" />
	<path
   d="m 1007.099,61.842 c 0.017,0.052 0.035,0.106 0.05,0.155 -0.015,-0.049 -0.033,-0.103 -0.05,-0.155 z"
   id="path1662"
   inkscape:connector-curvature="0"
   style="fill:#677686" />
	<path
   d="m 1006.343,59.698 c 0.042,0.112 0.084,0.222 0.123,0.329 -0.04,-0.107 -0.081,-0.217 -0.123,-0.329 z"
   id="path1664"
   inkscape:connector-curvature="0"
   style="fill:#677686" />
	<path
   d="m 992.777,71.132 c 0,0 0,10e-4 0,0 0.212,-0.17 0.423,-0.337 0.634,-0.494 0.001,-0.001 0.002,-0.001 0.003,-0.002 -10e-4,0.001 -0.002,0.001 -0.003,0.002 -0.21,0.157 -0.422,0.324 -0.634,0.494 z"
   id="path1666"
   inkscape:connector-curvature="0"
   style="fill:#677686" />
	<path
   d="m 1004.481,55.301 c 0.08,0.172 0.159,0.341 0.235,0.509 -0.077,-0.168 -0.155,-0.337 -0.235,-0.509 z"
   id="path1668"
   inkscape:connector-curvature="0"
   style="fill:#677686" />
	<path
   d="m 1002.503,51.41 c 0.121,0.221 0.239,0.439 0.355,0.656 -0.116,-0.217 -0.233,-0.435 -0.355,-0.656 z"
   id="path1670"
   inkscape:connector-curvature="0"
   style="fill:#677686" />
	<path
   d="m 1003.363,53.025 c 0.103,0.2 0.203,0.397 0.301,0.592 -0.099,-0.196 -0.198,-0.392 -0.301,-0.592 z"
   id="path1672"
   inkscape:connector-curvature="0"
   style="fill:#677686" />
	<path
   d="m 992.098,71.698 v 0 c 0.166,-0.143 0.333,-0.282 0.498,-0.418 0,0 -10e-4,0 -10e-4,0.001 -0.165,0.135 -0.331,0.274 -0.497,0.417 z"
   id="path1674"
   inkscape:connector-curvature="0"
   style="fill:#677686" />
	<path
   d="m 1002.945,52.226 c 0.111,0.209 0.219,0.415 0.325,0.621 -0.106,-0.205 -0.214,-0.412 -0.325,-0.621 z"
   id="path1676"
   inkscape:connector-curvature="0"
   style="fill:#677686" />
	<path
   d="m 1004.13,54.563 c 0.087,0.18 0.172,0.358 0.255,0.535 -0.083,-0.177 -0.168,-0.354 -0.255,-0.535 z"
   id="path1678"
   inkscape:connector-curvature="0"
   style="fill:#677686" />
	<path
   d="m 993.595,70.504 c 2.481,-1.834 4.851,-3.292 6.907,-4.419 -2.056,1.127 -4.426,2.585 -6.907,4.419 z"
   id="path1680"
   inkscape:connector-curvature="0"
   style="fill:#677686" />
	<path
   d="m 941.678,36.208 c 14.247,2.84 7.731,33.837 7.731,33.837 6.198,-3.652 17.044,-0.72 16.593,0.788 -0.057,0.189 -0.155,0.447 -0.291,0.753 0.32,-0.452 0.624,-0.937 0.902,-1.458 0,0 -12.807,-18.399 -4.647,-31.408 6.272,-9.998 23.652,-3.06 36.166,5.791 -1.388,-1.91 -2.958,-3.842 -4.726,-5.729 -0.989,-1.056 -2.043,-2.096 -3.159,-3.112 0.826,-3.246 3.387,-14.298 0.103,-14.712 -3.396,-0.428 -7.846,6.612 -8.852,8.283 -1.16,-0.675 -2.369,-1.315 -3.625,-1.913 -5.598,-2.666 -12.163,-4.512 -19.843,-4.968 -7.848,-0.466 -15.031,1.746 -21.423,5.425 -0.987,0.568 -1.955,1.172 -2.904,1.806 -1.348,-2.472 -6.053,-10.604 -9.242,-9.899 -3.216,0.711 0.8,12.267 2.023,15.579 -1.088,0.99 -2.141,2.011 -3.159,3.053 -0.751,0.769 -1.484,1.55 -2.196,2.339 6.098,-3.147 13.725,-5.815 20.549,-4.455 z"
   id="path1682"
   inkscape:connector-curvature="0"
   style="fill:#677686" />
	<path
   d="m 1003.757,53.803 c 0.095,0.191 0.187,0.378 0.278,0.565 -0.091,-0.186 -0.183,-0.374 -0.278,-0.565 z"
   id="path1684"
   inkscape:connector-curvature="0"
   style="fill:#677686" />
	<path
   d="m 1006.53,60.202 c 0.037,0.101 0.073,0.2 0.108,0.296 -0.034,-0.095 -0.071,-0.195 -0.108,-0.296 z"
   id="path1686"
   inkscape:connector-curvature="0"
   style="fill:#677686" />
	<path
   d="m 977.593,85.163 c -0.348,0.249 -0.702,0.492 -1.061,0.73 -4.309,2.857 -9.396,4.905 -15.655,4.898 -15.324,-0.016 -19.447,-3.461 -29.301,-12.058 -0.787,2.262 -1.847,5.487 -2.903,9.234 0.008,-0.001 0.016,-0.003 0.025,-0.004 5.165,-0.324 8.332,17.108 5.539,18.061 -2.181,0.744 -6.382,-2.973 -8.432,-5.728 -1.668,9.431 -2.021,19.285 1.752,25.154 0.615,0.956 1.408,1.825 2.344,2.617 3.501,2.962 9.072,4.806 15.408,5.745 8.883,1.316 19.258,0.855 27.512,-0.787 6.743,-1.342 12.064,-3.474 13.999,-6.07 0.125,-0.168 0.241,-0.338 0.337,-0.509 0.151,-0.269 0.292,-0.554 0.425,-0.851 0.067,-0.148 0.126,-0.309 0.189,-0.464 1.534,-3.783 1.845,-9.502 1.139,-15.675 -0.393,-3.431 -2.084,-10.444 -2.084,-10.444 l -4.161,-10.533 c 0,0 -1.993,-3.395 -3.116,-4.803 0.024,-0.02 0.05,-0.039 0.074,-0.058 -0.657,0.531 -1.333,1.048 -2.03,1.545 z m -36.333,41.234 c -7.276,-8.481 -3.238,-32.483 14.094,-33.172 20.446,-0.813 21.446,24.352 19.224,31.635 -2.223,7.283 -26.041,10.018 -33.318,1.537 z"
   id="path1688"
   inkscape:connector-curvature="0"
   style="fill:#677686" />
	<path
   d="m 924.435,72.986 c 0.09,0.06 0.181,0.125 0.271,0.186 -0.09,-0.061 -0.181,-0.126 -0.271,-0.186 z"
   id="path1690"
   inkscape:connector-curvature="0"
   style="fill:#ffe3a2" />
	<path
   d="m 925.735,73.893 c 0.072,0.052 0.144,0.106 0.217,0.159 0.066,0.048 0.132,0.096 0.198,0.145 -0.139,-0.102 -0.277,-0.204 -0.415,-0.304 z"
   id="path1692"
   inkscape:connector-curvature="0"
   style="fill:#ffe3a2" />
	<path
   d="m 961.965,38.72 c -8.161,13.009 4.647,31.408 4.647,31.408 -0.278,0.521 -0.582,1.006 -0.902,1.458 -0.857,1.921 -3.23,5.733 -6.342,6.299 l 0.095,3.907 c 2.471,-0.227 4.937,-1.434 7.364,-3.605 0.321,-0.286 0.81,-0.259 1.096,0.061 0.286,0.32 0.258,0.81 -0.061,1.096 -3.002,2.686 -6.112,4.044 -9.253,4.044 -0.235,0 -0.47,-0.008 -0.705,-0.023 -4.979,-0.322 -8.153,-3.939 -8.286,-4.093 -0.28,-0.324 -0.244,-0.813 0.08,-1.093 0.324,-0.28 0.813,-0.246 1.095,0.078 0.029,0.032 2.858,3.227 7.117,3.547 l -0.095,-3.907 c -3.501,-0.493 -6.01,-3.683 -7.333,-5.843 -0.83,-1.143 -1.073,-2.01 -1.073,-2.01 0,0 6.517,-30.998 -7.731,-33.837 -6.824,-1.36 -14.451,1.308 -20.55,4.456 v 0 c -0.001,0.001 -0.003,0.003 -0.004,0.005 -0.264,0.293 -0.526,0.587 -0.785,0.882 -0.012,0.014 -0.024,0.027 -0.036,0.041 -0.254,0.289 -0.504,0.579 -0.753,0.87 -0.017,0.02 -0.034,0.04 -0.052,0.06 -0.246,0.288 -0.488,0.576 -0.728,0.865 -0.018,0.022 -0.037,0.044 -0.055,0.066 -0.237,0.285 -0.471,0.571 -0.703,0.857 -0.021,0.027 -0.043,0.053 -0.065,0.08 -0.23,0.284 -0.456,0.568 -0.681,0.852 -0.022,0.028 -0.044,0.056 -0.066,0.084 -0.222,0.282 -0.442,0.565 -0.66,0.847 -0.023,0.03 -0.047,0.061 -0.07,0.091 -0.215,0.28 -0.427,0.559 -0.637,0.838 -0.025,0.033 -0.05,0.066 -0.075,0.099 -0.207,0.276 -0.412,0.552 -0.614,0.828 -0.026,0.036 -0.053,0.072 -0.079,0.108 -0.199,0.272 -0.396,0.544 -0.591,0.816 -0.028,0.039 -0.056,0.078 -0.084,0.117 -0.193,0.269 -0.383,0.538 -0.57,0.806 -0.028,0.04 -0.056,0.08 -0.083,0.119 -0.186,0.267 -0.37,0.532 -0.552,0.797 -0.028,0.04 -0.055,0.081 -0.083,0.121 -0.179,0.263 -0.356,0.524 -0.531,0.785 -0.029,0.043 -0.058,0.087 -0.087,0.13 -0.172,0.258 -0.342,0.514 -0.509,0.77 -0.029,0.045 -0.058,0.089 -0.088,0.134 -0.164,0.251 -0.326,0.501 -0.486,0.75 -0.032,0.049 -0.063,0.099 -0.095,0.148 -0.157,0.246 -0.312,0.49 -0.465,0.733 -0.03,0.049 -0.061,0.097 -0.091,0.145 -0.151,0.241 -0.299,0.48 -0.445,0.717 -0.032,0.052 -0.064,0.104 -0.095,0.156 -0.142,0.232 -0.282,0.462 -0.419,0.69 -0.034,0.057 -0.068,0.114 -0.102,0.17 -0.134,0.224 -0.267,0.447 -0.397,0.668 -0.033,0.056 -0.065,0.111 -0.098,0.167 -0.128,0.219 -0.255,0.436 -0.379,0.651 -0.033,0.058 -0.066,0.114 -0.099,0.172 -0.121,0.211 -0.241,0.42 -0.358,0.627 -0.035,0.061 -0.068,0.122 -0.103,0.183 -0.113,0.2 -0.224,0.399 -0.332,0.595 -0.037,0.066 -0.072,0.132 -0.109,0.198 -0.104,0.189 -0.207,0.376 -0.307,0.561 -0.037,0.069 -0.073,0.137 -0.11,0.205 -0.097,0.18 -0.193,0.358 -0.286,0.534 -0.038,0.071 -0.074,0.141 -0.111,0.211 -0.088,0.167 -0.176,0.334 -0.261,0.497 -0.041,0.079 -0.08,0.155 -0.12,0.233 -0.079,0.154 -0.159,0.308 -0.235,0.458 -0.04,0.078 -0.077,0.154 -0.116,0.231 -0.073,0.145 -0.146,0.29 -0.216,0.432 -0.041,0.082 -0.079,0.161 -0.118,0.241 -0.065,0.132 -0.13,0.265 -0.192,0.393 -0.042,0.087 -0.081,0.17 -0.122,0.255 -0.056,0.118 -0.114,0.237 -0.167,0.351 -0.044,0.093 -0.085,0.181 -0.127,0.272 -0.047,0.101 -0.096,0.204 -0.141,0.303 -0.044,0.096 -0.085,0.187 -0.127,0.28 -0.04,0.089 -0.082,0.18 -0.12,0.267 -0.042,0.093 -0.08,0.181 -0.119,0.271 -0.035,0.08 -0.072,0.163 -0.105,0.24 -0.047,0.109 -0.09,0.212 -0.134,0.316 -0.022,0.052 -0.046,0.108 -0.067,0.159 0,0 5.703,-0.124 13.128,3.072 v 0 c 0.508,-4.972 2.81,-13.125 11.701,-20.024 13.877,-10.769 19.891,7.724 13.589,18.405 -3.334,5.651 -7.716,9.197 -11.105,11.285 -0.579,-0.505 -1.18,-1.029 -1.801,-1.57 0.405,0.353 0.799,0.696 1.185,1.033 0.124,0.108 0.246,0.215 0.368,0.321 9.854,8.597 13.977,12.042 29.301,12.058 6.259,0.007 11.346,-2.041 15.655,-4.898 0.359,-0.238 0.713,-0.482 1.061,-0.73 0.697,-0.497 1.373,-1.014 2.031,-1.545 0.657,-0.531 1.296,-1.075 1.917,-1.627 0.622,-0.552 1.226,-1.113 1.815,-1.676 0.295,-0.281 0.585,-0.563 0.872,-0.845 0.089,-0.088 0.176,-0.175 0.265,-0.263 -5.974,-3.066 -15.59,-9.693 -18.65,-21.606 -4.549,-17.713 14.181,-17.316 21.535,-5.317 4.241,6.92 5.721,13.707 6.215,18.218 2.481,-1.834 4.851,-3.292 6.907,-4.419 0.036,-0.02 0.072,-0.04 0.108,-0.059 4.023,-2.194 6.815,-3.114 6.816,-3.115 v 0 c 0,0 -0.04,-0.148 -0.123,-0.422 0,-0.017 -0.012,-0.038 -0.017,-0.056 -0.016,-0.053 -0.032,-0.106 -0.051,-0.167 -0.011,-0.034 -0.023,-0.074 -0.035,-0.111 -0.016,-0.052 -0.032,-0.102 -0.05,-0.159 -0.016,-0.049 -0.033,-0.103 -0.05,-0.155 -0.017,-0.052 -0.033,-0.102 -0.051,-0.157 -0.02,-0.061 -0.042,-0.127 -0.064,-0.192 -0.018,-0.054 -0.036,-0.107 -0.055,-0.164 -0.025,-0.074 -0.052,-0.152 -0.079,-0.23 -0.019,-0.054 -0.037,-0.107 -0.057,-0.164 -0.03,-0.086 -0.062,-0.176 -0.094,-0.266 -0.02,-0.056 -0.04,-0.112 -0.06,-0.17 -0.034,-0.096 -0.071,-0.195 -0.108,-0.296 -0.021,-0.058 -0.042,-0.116 -0.065,-0.176 -0.04,-0.107 -0.081,-0.217 -0.123,-0.329 -0.022,-0.059 -0.045,-0.118 -0.068,-0.179 -0.044,-0.116 -0.09,-0.235 -0.137,-0.356 -0.024,-0.062 -0.048,-0.124 -0.073,-0.187 -0.049,-0.125 -0.1,-0.254 -0.153,-0.384 -0.025,-0.063 -0.051,-0.126 -0.076,-0.19 -0.055,-0.135 -0.111,-0.272 -0.169,-0.412 -0.026,-0.064 -0.053,-0.128 -0.08,-0.193 -0.06,-0.144 -0.122,-0.29 -0.185,-0.438 -0.028,-0.066 -0.057,-0.133 -0.086,-0.199 -0.065,-0.151 -0.132,-0.304 -0.2,-0.46 -0.029,-0.067 -0.059,-0.134 -0.089,-0.202 -0.071,-0.16 -0.143,-0.321 -0.218,-0.486 -0.03,-0.067 -0.062,-0.135 -0.093,-0.203 -0.077,-0.168 -0.155,-0.337 -0.235,-0.509 -0.032,-0.067 -0.064,-0.135 -0.096,-0.203 -0.083,-0.176 -0.168,-0.354 -0.255,-0.535 -0.031,-0.064 -0.063,-0.13 -0.095,-0.195 -0.091,-0.187 -0.183,-0.374 -0.278,-0.565 -0.031,-0.062 -0.062,-0.124 -0.094,-0.186 -0.098,-0.196 -0.198,-0.393 -0.301,-0.592 -0.03,-0.059 -0.062,-0.119 -0.093,-0.178 -0.107,-0.205 -0.214,-0.412 -0.325,-0.621 -0.028,-0.053 -0.058,-0.107 -0.086,-0.161 -0.116,-0.217 -0.234,-0.435 -0.355,-0.656 -0.024,-0.044 -0.05,-0.089 -0.074,-0.133 -0.128,-0.231 -0.257,-0.464 -0.391,-0.699 -0.017,-0.03 -0.035,-0.061 -0.052,-0.091 -0.143,-0.251 -0.288,-0.503 -0.438,-0.757 0,0 0,-0.001 0,-0.001 -0.986,-1.676 -2.114,-3.425 -3.399,-5.195 -0.006,-0.008 -0.011,-0.015 -0.017,-0.023 v 0 C 985.617,35.66 968.237,28.722 961.965,38.72 Z"
   id="path1694"
   inkscape:connector-curvature="0"
   style="fill:#ffe3a2" />
	<path
   d="m 928.796,76.314 c 0.353,0.305 0.697,0.604 1.036,0.899 -0.339,-0.295 -0.682,-0.593 -1.036,-0.899 z"
   id="path1696"
   inkscape:connector-curvature="0"
   style="fill:#ffe3a2" />
	<path
   d="m 927.091,74.916 c 0.132,0.103 0.264,0.205 0.396,0.311 -0.133,-0.106 -0.264,-0.207 -0.396,-0.311 z"
   id="path1698"
   inkscape:connector-curvature="0"
   style="fill:#ffe3a2" />
	<path
   d="m 984.5,79.202 c 1.904,-1.882 3.653,-3.746 5.311,-5.379 0.222,-0.219 0.443,-0.432 0.662,-0.642 -1.856,1.776 -3.814,3.886 -5.973,6.021 z"
   id="path1700"
   inkscape:connector-curvature="0"
   style="fill:#ffe3a2" />
	<path
   d="m 990.613,73.046 c 0.204,-0.194 0.407,-0.384 0.609,-0.569 -0.202,0.185 -0.405,0.375 -0.609,0.569 z"
   id="path1702"
   inkscape:connector-curvature="0"
   style="fill:#ffe3a2" />
	<path
   d="m 921.524,71.203 c 0.092,0.051 0.183,0.102 0.275,0.154 -0.092,-0.052 -0.183,-0.103 -0.275,-0.154 z"
   id="path1704"
   inkscape:connector-curvature="0"
   style="fill:#ffe3a2" />
	<path
   d="m 991.291,72.413 c 0.218,-0.2 0.435,-0.393 0.651,-0.581 -0.216,0.188 -0.433,0.381 -0.651,0.581 z"
   id="path1706"
   inkscape:connector-curvature="0"
   style="fill:#ffe3a2" />
	<path
   d="m 920.231,70.507 c 0.07,0.036 0.141,0.074 0.211,0.11 -0.071,-0.036 -0.141,-0.074 -0.211,-0.11 z"
   id="path1708"
   inkscape:connector-curvature="0"
   style="fill:#ffe3a2" />
	<path
   d="m 922.995,72.064 c 0.038,0.023 0.075,0.045 0.113,0.068 -0.038,-0.024 -0.075,-0.045 -0.113,-0.068 z"
   id="path1710"
   inkscape:connector-curvature="0"
   style="fill:#ffe3a2" />
	<path
   d="m 992.777,71.132 c 0.212,-0.171 0.424,-0.337 0.634,-0.494 -0.21,0.157 -0.422,0.324 -0.634,0.494 z"
   id="path1712"
   inkscape:connector-curvature="0"
   style="fill:#ffe3a2" />
	<path
   d="m 992.098,71.698 c 0.166,-0.143 0.332,-0.282 0.497,-0.417 -0.165,0.135 -0.331,0.274 -0.497,0.417 z"
   id="path1714"
   inkscape:connector-curvature="0"
   style="fill:#ffe3a2" />
	<path
   d="m 931.823,78.949 c 3.389,-2.088 7.771,-5.635 11.105,-11.285 6.302,-10.681 0.288,-29.175 -13.589,-18.405 -8.891,6.9 -11.192,15.052 -11.701,20.024 h 10e-4 c 0,0 0,0 0,0 0.843,0.363 1.709,0.771 2.59,1.224 0,0 10e-4,0 10e-4,10e-4 0.07,0.036 0.141,0.074 0.211,0.11 0,0 10e-4,0 10e-4,0.001 0.358,0.186 0.718,0.382 1.08,0.584 0,0 0,0 10e-4,0 0.092,0.051 0.183,0.102 0.275,0.154 l 10e-4,0.001 c 0.396,0.225 0.793,0.46 1.194,0.705 0,0 10e-4,10e-4 0.002,10e-4 0.038,0.023 0.075,0.045 0.113,0.068 v 0 c 0.44,0.271 0.882,0.557 1.326,0.854 0.09,0.06 0.181,0.125 0.271,0.186 0.342,0.233 0.685,0.473 1.029,0.721 0.138,0.1 0.276,0.202 0.414,0.304 v 0 c 0.313,0.232 0.627,0.472 0.941,0.718 0,0 0,0 10e-4,0 0.132,0.103 0.264,0.205 0.396,0.311 v 0 c 0.436,0.35 0.872,0.709 1.308,1.086 0,0 10e-4,0.001 10e-4,0.001 0.354,0.306 0.697,0.604 1.036,0.899 10e-4,10e-4 0.002,0.002 0.003,0.003 0.061,0.053 0.121,0.105 0.181,0.158 0.002,0.002 0.004,0.003 0.006,0.005 0.622,0.541 1.223,1.066 1.802,1.571 z"
   id="path1716"
   inkscape:connector-curvature="0"
   style="fill:#565f6b" />
	<path
   d="m 987.379,52.285 c -7.355,-11.999 -26.085,-12.396 -21.535,5.317 3.06,11.913 12.676,18.539 18.65,21.606 v 0 0 c 10e-4,-0.001 0.003,-0.002 0.004,-0.004 10e-4,-10e-4 0.002,-0.002 0.002,-0.002 2.159,-2.134 4.117,-4.245 5.973,-6.021 0.001,-10e-4 0.002,-0.002 0.003,-0.003 0.045,-0.043 0.09,-0.086 0.135,-0.129 10e-4,-0.001 0.002,-0.002 0.003,-0.003 0.204,-0.194 0.407,-0.384 0.609,-0.569 0.001,-0.001 0.002,-0.002 0.003,-0.003 0.022,-0.02 0.044,-0.041 0.065,-0.06 0,0 10e-4,0 10e-4,0 0.219,-0.2 0.436,-0.393 0.652,-0.581 v 0 c 0.052,-0.045 0.104,-0.089 0.156,-0.134 v 0 c 0.166,-0.143 0.332,-0.282 0.497,-0.417 0,0 10e-4,-10e-4 10e-4,-10e-4 0.06,-0.05 0.121,-0.099 0.18,-0.147 0,0 10e-4,0 10e-4,0 0.212,-0.171 0.424,-0.337 0.635,-0.494 10e-4,-0.001 0.002,-0.001 0.003,-0.002 0.061,-0.045 0.12,-0.086 0.181,-0.131 0,-0.001 0,-0.001 0,-0.001 v -0.001 c -0.498,-4.512 -1.977,-11.3 -6.219,-18.22 z"
   id="path1718"
   inkscape:connector-curvature="0"
   style="fill:#565f6b" />
	<path
   d="m 957.815,77.898 0.095,3.907 c -4.259,-0.32 -7.088,-3.515 -7.117,-3.547 -0.282,-0.324 -0.771,-0.358 -1.095,-0.078 -0.324,0.28 -0.359,0.769 -0.08,1.093 0.133,0.154 3.308,3.771 8.286,4.093 0.235,0.015 0.47,0.023 0.705,0.023 3.141,0 6.251,-1.359 9.253,-4.044 0.319,-0.286 0.346,-0.776 0.061,-1.096 -0.286,-0.319 -0.776,-0.347 -1.096,-0.061 -2.427,2.171 -4.893,3.378 -7.364,3.605 l -0.095,-3.907 c 3.112,-0.566 5.485,-4.378 6.342,-6.299 0.136,-0.306 0.234,-0.563 0.291,-0.753 0.451,-1.508 -10.394,-4.44 -16.593,-0.788 0,0 0.369,0.859 1.073,2.01 1.324,2.159 3.833,5.349 7.334,5.842 z"
   id="path1720"
   inkscape:connector-curvature="0"
   style="fill:#2b2f35" />
	<path
   d="m 974.577,124.86 c 2.222,-7.283 1.222,-32.447 -19.224,-31.635 -17.331,0.689 -21.37,24.691 -14.094,33.172 7.278,8.481 31.096,5.746 33.318,-1.537 z"
   id="path1722"
   inkscape:connector-curvature="0"
   style="fill:#ffe3a2" />
	<path
   d="m 934.237,106.026 c 2.792,-0.953 -0.374,-18.385 -5.539,-18.061 -0.008,0 -0.016,0.003 -0.025,0.004 -3.007,0.231 -4.653,8.074 -3.993,10.36 0.145,0.502 0.55,1.198 1.125,1.97 2.05,2.754 6.251,6.471 8.432,5.727 z"
   id="path1724"
   inkscape:connector-curvature="0"
   style="fill:#565f6b" />
	<path
   d="m 992.951,86.113 c -2.157,-1.912 -9.918,1.393 -11.67,3.279 -0.042,0.045 -0.083,0.089 -0.118,0.132 -1.496,1.859 -3.01,9.769 -0.295,11.111 0.061,0.03 0.123,0.055 0.185,0.08 4.705,1.825 14.077,-12.67 11.898,-14.602 z"
   id="path1726"
   inkscape:connector-curvature="0"
   style="fill:#565f6b" />
	<path
   d="m 935.872,56.388 c 1.419,-0.227 2.635,-1.365 3.614,-3.383 0.201,-0.415 0.616,-0.657 1.049,-0.657 0.171,0 0.343,0.037 0.507,0.117 0.578,0.28 0.82,0.977 0.54,1.556 -1.33,2.743 -3.128,4.313 -5.342,4.666 -4.043,0.657 -7.772,-3.167 -7.929,-3.33 -0.446,-0.462 -0.434,-1.2 0.029,-1.647 0.463,-0.447 1.201,-0.434 1.647,0.029 0.029,0.031 3.069,3.095 5.885,2.649 z"
   id="path1728"
   inkscape:connector-curvature="0"
   style="fill:#2b2f35" />
	<path
   d="m 976.936,58.467 c -3.878,0.428 -7.105,-3.01 -7.241,-3.156 -0.437,-0.472 -0.409,-1.209 0.063,-1.646 0.472,-0.437 1.208,-0.408 1.646,0.063 0.026,0.028 2.608,2.736 5.276,2.424 1.491,-0.165 2.834,-1.259 3.991,-3.252 0.216,-0.372 0.607,-0.58 1.008,-0.58 0.199,0 0.4,0.051 0.584,0.158 0.557,0.323 0.745,1.036 0.422,1.591 -1.549,2.667 -3.483,4.146 -5.749,4.398 z"
   id="path1730"
   inkscape:connector-curvature="0"
   style="fill:#2b2f35" />
</g>


<g
   id="g2324"
   transform="translate(-904.511,-13.709398)">
</g>
<g
   id="g2326"
   transform="translate(-904.511,-13.709398)">
</g>
<g
   id="g2328"
   transform="translate(-904.511,-13.709398)">
</g>
<g
   id="g2330"
   transform="translate(-904.511,-13.709398)">
</g>
<g
   id="g2332"
   transform="translate(-904.511,-13.709398)">
</g>
<g
   id="g2334"
   transform="translate(-904.511,-13.709398)">
</g>
</svg>