<?xml version="1.0" encoding="UTF-8" standalone="no"?>
<!-- Generator: Adobe Illustrator 17.0.0, SVG Export Plug-In . SVG Version: 6.00 Build 0)  -->

<svg
   xmlns:dc="http://purl.org/dc/elements/1.1/"
   xmlns:cc="http://creativecommons.org/ns#"
   xmlns:rdf="http://www.w3.org/1999/02/22-rdf-syntax-ns#"
   xmlns:svg="http://www.w3.org/2000/svg"
   xmlns="http://www.w3.org/2000/svg"
   xmlns:sodipodi="http://sodipodi.sourceforge.net/DTD/sodipodi-0.dtd"
   xmlns:inkscape="http://www.inkscape.org/namespaces/inkscape"
   version="1.1"
   id="Слой_1"
   x="0px"
   y="0px"
   width="142.618"
   height="137.36369"
   viewBox="0 0 142.618 137.36369"
   enable-background="new 0 0 1200 150"
   xml:space="preserve"
   sodipodi:docname="7.svg"
   inkscape:version="0.92.4 (5da689c313, 2019-01-14)"><metadata
   id="metadata2341"><rdf:RDF><cc:Work
       rdf:about=""><dc:format>image/svg+xml</dc:format><dc:type
         rdf:resource="http://purl.org/dc/dcmitype/StillImage" /><dc:title></dc:title></cc:Work></rdf:RDF></metadata><defs
   id="defs2339" /><sodipodi:namedview
   pagecolor="#ffffff"
   bordercolor="#666666"
   borderopacity="1"
   objecttolerance="10"
   gridtolerance="10"
   guidetolerance="10"
   inkscape:pageopacity="0"
   inkscape:pageshadow="2"
   inkscape:window-width="1920"
   inkscape:window-height="1017"
   id="namedview2337"
   showgrid="false"
   inkscape:zoom="0.66939442"
   inkscape:cx="-205.41124"
   inkscape:cy="-54.543351"
   inkscape:window-x="-8"
   inkscape:window-y="-8"
   inkscape:window-maximized="1"
   inkscape:current-layer="Слой_1"
   fit-margin-top="0"
   fit-margin-left="0"
   fit-margin-right="0"
   fit-margin-bottom="0" />

<g
   id="g588"
   transform="translate(-1054.227,-8.1999543)">
	<path
   d="m 1165.029,90.665 c 0.302,-0.43 0.613,-0.855 0.934,-1.272 -0.321,0.418 -0.632,0.842 -0.934,1.272 z"
   id="path296"
   inkscape:connector-curvature="0"
   style="fill:#565f6b" />
	<path
   d="m 1144.875,123.484 c -0.21,-0.122 -0.417,-0.245 -0.621,-0.369 0.205,0.124 0.412,0.247 0.621,0.369 z"
   id="path298"
   inkscape:connector-curvature="0"
   style="fill:#565f6b" />
	<path
   d="m 1160.302,98.893 c 0.226,-0.456 0.457,-0.914 0.692,-1.373 -1.971,3.848 -3.612,7.629 -5.408,10.523 4.602,6.967 1.667,15.704 0.158,19.824 4.43,0.964 9.234,0.953 14.093,-0.875 1.501,-10.205 -5.05,-21.658 -9.535,-28.099 z"
   id="path300"
   inkscape:connector-curvature="0"
   style="fill:#565f6b" />
	<path
   d="m 1164.139,91.987 c 0.284,-0.439 0.576,-0.874 0.876,-1.303 -0.3,0.429 -0.592,0.863 -0.876,1.303 z"
   id="path302"
   inkscape:connector-curvature="0"
   style="fill:#565f6b" />
	<path
   d="m 1179.279,121.019 c 0.771,-0.687 1.509,-1.399 2.214,-2.13 -0.705,0.732 -1.444,1.443 -2.214,2.13 z"
   id="path304"
   inkscape:connector-curvature="0"
   style="fill:#565f6b" />
	<path
   d="m 1144.169,123.065 c -0.21,-0.128 -0.418,-0.256 -0.623,-0.384 0.205,0.128 0.413,0.256 0.623,0.384 z"
   id="path306"
   inkscape:connector-curvature="0"
   style="fill:#565f6b" />
	<path
   d="m 1163.299,93.336 c 0.267,-0.445 0.542,-0.887 0.824,-1.324 -0.283,0.437 -0.557,0.879 -0.824,1.324 z"
   id="path308"
   inkscape:connector-curvature="0"
   style="fill:#565f6b" />
	<path
   d="m 1151.367,112.345 c 0.033,-0.018 0.067,-0.035 0.1,-0.054 -0.034,0.019 -0.067,0.036 -0.1,0.054 z"
   id="path310"
   inkscape:connector-curvature="0"
   style="fill:#565f6b" />
	<path
   d="m 1149.08,113.169 c 0.025,-0.005 0.05,-0.01 0.076,-0.015 -0.026,0.005 -0.051,0.011 -0.076,0.015 z"
   id="path312"
   inkscape:connector-curvature="0"
   style="fill:#565f6b" />
	<path
   d="m 1149.533,113.068 c 0.024,-0.006 0.047,-0.012 0.071,-0.018 -0.024,0.007 -0.048,0.012 -0.071,0.018 z"
   id="path314"
   inkscape:connector-curvature="0"
   style="fill:#565f6b" />
	<path
   d="m 1172.515,125.797 c -0.136,0.07 -0.272,0.137 -0.408,0.204 0.136,-0.067 0.272,-0.133 0.408,-0.204 z"
   id="path316"
   inkscape:connector-curvature="0"
   style="fill:#565f6b" />
	<path
   d="m 1150.922,112.571 c 0.036,-0.017 0.071,-0.034 0.107,-0.051 -0.036,0.017 -0.071,0.034 -0.107,0.051 z"
   id="path318"
   inkscape:connector-curvature="0"
   style="fill:#565f6b" />
	<path
   d="m 1148.646,113.241 c 0.01,-0.001 0.011,-0.002 0.017,-0.002 -0.01,0 -0.012,10e-4 -0.017,0.002 z"
   id="path320"
   inkscape:connector-curvature="0"
   style="fill:#565f6b" />
	<path
   d="m 1171.734,126.184 c -0.161,0.076 -0.321,0.151 -0.482,0.223 0.16,-0.072 0.321,-0.147 0.482,-0.223 z"
   id="path322"
   inkscape:connector-curvature="0"
   style="fill:#565f6b" />
	<path
   d="m 1165.972,89.382 c 0.323,-0.419 0.655,-0.831 0.998,-1.233 -0.344,0.403 -0.676,0.814 -0.998,1.233 z"
   id="path324"
   inkscape:connector-curvature="0"
   style="fill:#565f6b" />
	<path
   d="m 1146.379,124.324 c -0.232,-0.124 -0.462,-0.249 -0.689,-0.375 0.227,0.126 0.456,0.251 0.689,0.375 z"
   id="path326"
   inkscape:connector-curvature="0"
   style="fill:#565f6b" />
	<path
   d="m 1155.743,127.866 c -3.37,-0.733 -6.523,-2.029 -9.316,-3.516 2.794,1.488 5.946,2.783 9.316,3.516 z"
   id="path328"
   inkscape:connector-curvature="0"
   style="fill:#565f6b" />
	<path
   d="m 1173.549,125.229 c -0.096,0.055 -0.192,0.112 -0.288,0.166 0.097,-0.054 0.192,-0.11 0.288,-0.166 z"
   id="path330"
   inkscape:connector-curvature="0"
   style="fill:#565f6b" />
	<path
   d="m 1171.003,126.516 c -0.385,0.168 -0.77,0.326 -1.154,0.471 0.384,-0.145 0.769,-0.303 1.154,-0.471 z"
   id="path332"
   inkscape:connector-curvature="0"
   style="fill:#565f6b" />
	<path
   d="m 1145.611,123.904 c -0.217,-0.121 -0.432,-0.244 -0.644,-0.367 0.212,0.124 0.427,0.246 0.644,0.367 z"
   id="path334"
   inkscape:connector-curvature="0"
   style="fill:#565f6b" />
	<path
   d="m 1150.493,112.757 c 0.02,-0.008 0.041,-0.017 0.061,-0.026 -0.02,0.009 -0.041,0.018 -0.061,0.026 z"
   id="path336"
   inkscape:connector-curvature="0"
   style="fill:#565f6b" />
	<path
   d="m 1179.078,121.196 c -0.375,0.33 -0.757,0.657 -1.148,0.975 0.392,-0.318 0.773,-0.645 1.148,-0.975 z"
   id="path338"
   inkscape:connector-curvature="0"
   style="fill:#565f6b" />
	<path
   d="m 1162.5,94.708 c 0.253,-0.449 0.512,-0.896 0.779,-1.34 -0.267,0.445 -0.526,0.892 -0.779,1.34 z"
   id="path340"
   inkscape:connector-curvature="0"
   style="fill:#565f6b" />
	<path
   d="m 1154.092,110.101 c 0.039,-0.045 0.077,-0.091 0.116,-0.137 -0.038,0.045 -0.077,0.092 -0.116,0.137 z"
   id="path342"
   inkscape:connector-curvature="0"
   style="fill:#565f6b" />
	<path
   d="m 1161.738,96.097 c 0.241,-0.452 0.488,-0.903 0.741,-1.352 -0.253,0.449 -0.5,0.901 -0.741,1.352 z"
   id="path344"
   inkscape:connector-curvature="0"
   style="fill:#565f6b" />
	<path
   d="m 1184.677,115.191 c -0.322,0.418 -0.652,0.833 -0.992,1.243 11.928,-14.42 13.16,-34.375 13.16,-34.375 v 0 c 0,0 -0.328,5.236 -2.242,12.275 -3.166,-5.647 -7.538,-10.866 -10.763,-14.353 -7.766,0.222 -12.993,3.618 -16.87,8.167 9.568,5.6 15.045,18.023 17.707,27.043 z"
   id="path346"
   inkscape:connector-curvature="0"
   style="fill:#565f6b" />
	<path
   d="m 1153.691,110.541 c 0,0.003 -0.01,0.006 -0.01,0.009 0,-0.003 0.01,-0.006 0.01,-0.009 z"
   id="path348"
   inkscape:connector-curvature="0"
   style="fill:#565f6b" />
	<path
   d="m 1152.321,111.742 c 0.032,-0.024 0.065,-0.049 0.097,-0.073 -0.032,0.024 -0.065,0.049 -0.097,0.073 z"
   id="path350"
   inkscape:connector-curvature="0"
   style="fill:#565f6b" />
	<path
   d="m 1174.394,124.723 c -0.088,0.055 -0.176,0.109 -0.264,0.162 0.088,-0.054 0.176,-0.107 0.264,-0.162 z"
   id="path352"
   inkscape:connector-curvature="0"
   style="fill:#565f6b" />
	<path
   d="m 1176.455,123.31 c -0.405,0.298 -0.815,0.592 -1.236,0.877 0.421,-0.284 0.831,-0.579 1.236,-0.877 z"
   id="path354"
   inkscape:connector-curvature="0"
   style="fill:#565f6b" />
	<path
   d="m 1152.739,111.419 c 0.042,-0.034 0.085,-0.07 0.127,-0.105 -0.043,0.035 -0.085,0.07 -0.127,0.105 z"
   id="path356"
   inkscape:connector-curvature="0"
   style="fill:#565f6b" />
	<path
   d="m 1153.167,111.049 c 0.039,-0.036 0.079,-0.071 0.118,-0.108 -0.04,0.037 -0.079,0.072 -0.118,0.108 z"
   id="path358"
   inkscape:connector-curvature="0"
   style="fill:#565f6b" />
	<path
   d="m 1154.49,109.62 c 0.045,-0.056 0.089,-0.114 0.133,-0.171 -0.044,0.057 -0.088,0.114 -0.133,0.171 z"
   id="path360"
   inkscape:connector-curvature="0"
   style="fill:#565f6b" />
	<path
   d="m 1188.37,80.193 c 0.44,0.051 0.889,0.111 1.343,0.18 -0.455,-0.069 -0.903,-0.129 -1.343,-0.18 z"
   id="path362"
   inkscape:connector-curvature="0"
   style="fill:#565f6b" />
	<path
   d="m 1161.01,97.489 c 0.232,-0.452 0.468,-0.905 0.71,-1.358 -0.242,0.452 -0.478,0.905 -0.71,1.358 z"
   id="path364"
   inkscape:connector-curvature="0"
   style="fill:#565f6b" />
	<path
   d="m 1177.922,122.178 c -0.386,0.314 -0.783,0.62 -1.185,0.922 0.403,-0.302 0.799,-0.608 1.185,-0.922 z"
   id="path366"
   inkscape:connector-curvature="0"
   style="fill:#565f6b" />
	<path
   d="m 1185.269,79.976 c 0.943,0.019 1.923,0.085 2.939,0.197 -1.017,-0.112 -1.996,-0.177 -2.939,-0.197 z"
   id="path368"
   inkscape:connector-curvature="0"
   style="fill:#565f6b" />
	<path
   d="m 1183.842,79.982 c 0.458,-0.013 0.925,-0.015 1.401,-0.005 -0.476,-0.01 -0.943,-0.009 -1.401,0.005 z"
   id="path370"
   inkscape:connector-curvature="0"
   style="fill:#565f6b" />
	<path
   d="m 1154.897,109.08 c 0.04,-0.055 0.079,-0.109 0.119,-0.166 -0.04,0.057 -0.079,0.11 -0.119,0.166 z"
   id="path372"
   inkscape:connector-curvature="0"
   style="fill:#565f6b" />
	<path
   d="m 1193.485,81.125 c 0.405,0.099 0.816,0.205 1.232,0.317 -0.416,-0.112 -0.827,-0.218 -1.232,-0.317 z"
   id="path374"
   inkscape:connector-curvature="0"
   style="fill:#565f6b" />
	<path
   d="m 1189.949,80.409 c 1.006,0.159 2.048,0.365 3.125,0.617 -1.077,-0.253 -2.118,-0.458 -3.125,-0.617 z"
   id="path376"
   inkscape:connector-curvature="0"
   style="fill:#565f6b" />
	<path
   d="m 1195.18,81.568 c 0.546,0.153 1.099,0.314 1.663,0.491 -0.564,-0.177 -1.117,-0.338 -1.663,-0.491 z"
   id="path378"
   inkscape:connector-curvature="0"
   style="fill:#565f6b" />
	<path
   d="m 1183.685,116.435 c -0.666,0.805 -1.366,1.593 -2.1,2.359 0.734,-0.766 1.434,-1.554 2.1,-2.359 z"
   id="path380"
   inkscape:connector-curvature="0"
   style="fill:#565f6b" />
	<path
   d="m 1148.187,113.29 c -2.466,0.189 -4.847,-0.75 -6.706,-1.826 0.347,3.468 0.311,6.762 -0.285,9.65 0.719,0.508 1.484,1.021 2.293,1.53 -0.222,-0.14 -0.441,-0.28 -0.657,-0.42 3.102,-2.403 4.579,-5.884 5.355,-8.934 z"
   id="path382"
   inkscape:connector-curvature="0"
   style="fill:#565f6b" />
	<path
   d="m 1196.845,82.059 v 0 c 0,0 0,0 0,-10e-4 -0.564,-0.177 -1.117,-0.338 -1.663,-0.491 -0.156,-0.044 -0.309,-0.084 -0.463,-0.126 -0.416,-0.112 -0.826,-0.218 -1.232,-0.317 -0.137,-0.033 -0.275,-0.068 -0.41,-0.1 -1.077,-0.252 -2.119,-0.458 -3.125,-0.617 -0.079,-0.013 -0.158,-0.024 -0.236,-0.036 -0.455,-0.069 -0.903,-0.13 -1.343,-0.18 -0.054,-0.006 -0.109,-0.013 -0.162,-0.019 -1.016,-0.112 -1.996,-0.178 -2.939,-0.197 -0.01,0 -0.017,0 -0.026,0 -0.476,-0.009 -0.943,-0.008 -1.401,0.005 -10e-4,0 -10e-4,0 0,0 v 0 c 3.225,3.487 7.597,8.706 10.763,14.353 1.913,-7.038 2.241,-12.273 2.241,-12.274 z"
   id="path384"
   inkscape:connector-curvature="0"
   style="fill:#2b2f35" />
	<path
   d="m 1155.586,108.043 v 0 c -0.063,0.102 -0.126,0.205 -0.189,0.304 -0.126,0.197 -0.253,0.385 -0.38,0.567 -0.04,0.056 -0.079,0.11 -0.119,0.166 -0.091,0.126 -0.182,0.249 -0.273,0.369 -0.044,0.058 -0.089,0.115 -0.133,0.171 -0.094,0.118 -0.188,0.232 -0.282,0.344 -0.039,0.046 -0.077,0.093 -0.116,0.137 -0.133,0.153 -0.267,0.301 -0.401,0.441 0,0.003 -0.01,0.006 -0.01,0.009 -0.132,0.137 -0.264,0.266 -0.398,0.391 -0.039,0.037 -0.079,0.072 -0.118,0.108 -0.1,0.091 -0.2,0.18 -0.301,0.264 -0.042,0.036 -0.084,0.071 -0.127,0.105 -0.106,0.087 -0.213,0.17 -0.32,0.25 -0.032,0.024 -0.065,0.05 -0.097,0.073 -0.283,0.205 -0.568,0.388 -0.854,0.549 -0.033,0.019 -0.066,0.036 -0.1,0.054 -0.112,0.061 -0.225,0.12 -0.338,0.174 -0.036,0.017 -0.071,0.034 -0.107,0.051 -0.123,0.057 -0.245,0.111 -0.368,0.161 -0.02,0.008 -0.041,0.017 -0.061,0.026 -0.296,0.118 -0.592,0.215 -0.889,0.293 -0.024,0.006 -0.047,0.012 -0.071,0.018 -0.126,0.032 -0.252,0.061 -0.377,0.086 -0.025,0.005 -0.05,0.01 -0.076,0.015 -0.139,0.027 -0.279,0.05 -0.418,0.069 0,0.001 -0.011,0.002 -0.017,0.002 -0.153,0.021 -0.306,0.037 -0.459,0.049 v 0 c -0.776,3.05 -2.253,6.531 -5.354,8.935 0.216,0.14 0.435,0.28 0.657,0.42 0.019,0.012 0.038,0.023 0.057,0.035 0.205,0.129 0.413,0.257 0.623,0.384 0.028,0.017 0.057,0.034 0.085,0.051 0.205,0.124 0.412,0.247 0.621,0.369 0.031,0.018 0.061,0.036 0.092,0.053 0.212,0.123 0.427,0.245 0.644,0.367 0.026,0.015 0.053,0.029 0.079,0.044 0.227,0.126 0.457,0.252 0.689,0.375 0.016,0.009 0.032,0.017 0.049,0.026 2.793,1.487 5.946,2.783 9.316,3.516 v 0 0 c 1.507,-4.117 4.442,-12.854 -0.16,-19.821 z"
   id="path386"
   inkscape:connector-curvature="0"
   style="fill:#2b2f35" />
	<path
   d="m 1183.685,116.435 v 0 c 0.339,-0.41 0.67,-0.825 0.992,-1.243 -2.662,-9.02 -8.139,-21.443 -17.707,-27.043 v 0 c 0,0 0,0 -10e-4,0.001 -0.343,0.403 -0.675,0.814 -0.998,1.233 0,0.004 -0.01,0.008 -0.01,0.011 -0.321,0.417 -0.632,0.841 -0.934,1.272 0,0.006 -0.01,0.012 -0.013,0.019 -0.301,0.429 -0.592,0.863 -0.876,1.303 0,0.008 -0.011,0.017 -0.016,0.025 -0.282,0.437 -0.557,0.879 -0.824,1.324 -0.01,0.011 -0.013,0.022 -0.02,0.033 -0.266,0.444 -0.525,0.891 -0.779,1.34 -0.01,0.012 -0.014,0.024 -0.021,0.037 -0.253,0.449 -0.5,0.901 -0.741,1.352 -0.01,0.011 -0.012,0.022 -0.018,0.033 -0.242,0.453 -0.478,0.906 -0.71,1.358 0,0.01 -0.011,0.021 -0.016,0.031 -0.235,0.459 -0.465,0.917 -0.692,1.373 4.485,6.441 11.036,17.894 9.535,28.099 v 0 c 0,-10e-4 0.01,-0.003 0.012,-0.005 0.384,-0.145 0.769,-0.303 1.154,-0.471 0.083,-0.036 0.166,-0.072 0.249,-0.109 0.161,-0.072 0.321,-0.147 0.482,-0.223 0.125,-0.059 0.249,-0.121 0.374,-0.182 0.136,-0.067 0.272,-0.133 0.408,-0.204 0.249,-0.129 0.497,-0.263 0.746,-0.403 0.096,-0.054 0.192,-0.111 0.288,-0.166 0.193,-0.111 0.387,-0.226 0.58,-0.344 0.088,-0.054 0.176,-0.107 0.264,-0.162 0.275,-0.172 0.551,-0.349 0.826,-0.535 0.421,-0.285 0.831,-0.579 1.236,-0.877 0.095,-0.07 0.189,-0.14 0.283,-0.21 0.402,-0.302 0.799,-0.608 1.185,-0.922 0,-0.002 0.01,-0.004 0.01,-0.007 0.391,-0.319 0.773,-0.645 1.148,-0.975 0.067,-0.059 0.134,-0.118 0.2,-0.177 0.771,-0.688 1.509,-1.399 2.214,-2.13 0.031,-0.032 0.062,-0.063 0.092,-0.095 0.733,-0.769 1.433,-1.556 2.099,-2.361 z"
   id="path388"
   inkscape:connector-curvature="0"
   style="fill:#2b2f35" />
	<path
   d="m 1080.799,131.939 c -0.159,4.998 0.069,13.299 3.322,13.604 4.17,0.392 6.853,-4.874 8.33,-9.133 -5.499,-0.873 -9.801,-2.395 -11.652,-4.471 z"
   id="path390"
   inkscape:connector-curvature="0"
   style="fill:#565f6b" />
	<path
   d="m 1130.88,132.583 c 2.778,4.147 6.676,7.913 10.024,8.205 4.951,0.433 0.959,-12.182 -0.606,-16.651 -0.178,0.439 -0.371,0.865 -0.587,1.273 -1.579,2.984 -4.745,5.357 -8.831,7.173 z"
   id="path392"
   inkscape:connector-curvature="0"
   style="fill:#565f6b" />
	<path
   d="m 1141.481,111.464 c -0.722,-7.208 -3.086,-15.155 -5.467,-21.711 -3.106,-0.823 -7.369,-3.055 -7.136,-5.341 0.147,-1.445 1.648,-2.506 3.742,-3.22 -1.229,-2.861 -2.15,-4.778 -2.374,-5.238 0.511,-0.673 1.039,-1.375 1.589,-2.107 -0.081,0.108 -0.167,0.222 -0.248,0.33 -7.769,10.336 -11.13,14.533 -26.039,17.712 -10.361,2.209 -18.658,-2.038 -25.506,-6.432 v 0 c -10e-4,-10e-4 0,-10e-4 0,-0.002 -2.254,-1.446 -4.353,-2.909 -6.314,-4.162 -10e-4,-0.001 0,-0.001 0,-0.002 -0.263,-0.168 -0.522,-0.331 -0.78,-0.49 -0,-0.001 0,-0.002 0,-0.002 3.384,2.097 7.178,4.931 11.499,7.285 -0.955,1.416 -1.823,3.014 -2.596,4.753 2.205,0.165 3.923,0.814 4.429,2.175 1.022,2.75 -5.07,7.262 -7.601,7.839 -2.364,10.959 -1.939,23.167 1.741,28.599 0.113,0.167 0.247,0.33 0.391,0.491 1.851,2.075 6.152,3.598 11.652,4.471 11.404,1.811 27.947,0.828 38.429,-3.828 4.087,-1.816 7.253,-4.189 8.831,-7.173 0.216,-0.408 0.409,-0.834 0.587,-1.273 0.383,-0.944 0.679,-1.955 0.899,-3.022 0.593,-2.889 0.63,-6.184 0.283,-9.652 z m -15.345,16.048 c -6.532,9.067 -30.496,8.359 -33.328,1.29 -2.831,-7.069 -3.966,-32.227 16.475,-33.149 17.328,-0.781 23.385,22.793 16.853,31.859 z"
   id="path394"
   inkscape:connector-curvature="0"
   style="fill:#677686" />
	<path
   d="m 1109.284,95.653 c -20.441,0.922 -19.307,26.08 -16.475,33.149 2.831,7.069 26.795,7.777 33.328,-1.29 6.531,-9.066 0.474,-32.64 -16.853,-31.859 z"
   id="path396"
   inkscape:connector-curvature="0"
   style="fill:#ffe3a2" />
	<path
   d="m 1086.269,95.01 c -0.506,-1.361 -2.224,-2.01 -4.429,-2.175 -5.656,-0.423 -14.515,2.34 -14.324,4.454 0.264,2.939 8.554,5.93 10.917,5.603 0.074,-0.01 0.152,-0.025 0.234,-0.044 2.532,-0.576 8.624,-5.088 7.602,-7.838 z"
   id="path398"
   inkscape:connector-curvature="0"
   style="fill:#565f6b" />
	<path
   d="m 1128.878,84.412 c -0.233,2.286 4.03,4.518 7.136,5.341 0.988,0.262 1.86,0.382 2.432,0.315 2.369,-0.279 9.639,-5.261 9.155,-8.171 -0.348,-2.094 -9.613,-2.538 -14.981,-0.705 -2.094,0.715 -3.595,1.776 -3.742,3.22 z"
   id="path400"
   inkscape:connector-curvature="0"
   style="fill:#565f6b" />
	<path
   d="m 1062.229,29.689 c 3.233,-1.123 9.047,4.84 10.377,6.266 0.995,-0.901 2.044,-1.777 3.15,-2.624 -3.778,-3.43 -12.516,-10.758 -17.227,-9.753 -6.121,1.305 4.406,24.183 4.406,24.183 v -0.002 c 0.749,-1.238 1.563,-2.474 2.445,-3.7 -1.482,-3.003 -6.28,-13.283 -3.154,-14.37 z"
   id="path402"
   inkscape:connector-curvature="0"
   style="fill:#565f6b" />
	<path
   d="m 1126.423,14.782 c 3.293,0.028 1.762,12.166 1.253,15.66 1.27,0.743 2.511,1.523 3.723,2.331 0,-0.024 4.097,-24.98 -2.605,-24.568 -5.446,0.335 -10.768,12.468 -12.575,17.013 1.084,0.351 2.156,0.741 3.216,1.164 0.806,-2.697 3.721,-11.629 6.988,-11.6 z"
   id="path404"
   inkscape:connector-curvature="0"
   style="fill:#565f6b" />
	<path
   d="m 1069.541,78.923 c -10e-4,-0.001 0,-0.001 0,-0.001 10e-4,0 0,0.001 0,0.001 0.239,0.11 0.481,0.229 0.724,0.352 v -0.001 c -0.243,-0.122 -0.485,-0.241 -0.723,-0.351 z"
   id="path406"
   inkscape:connector-curvature="0"
   style="fill:#677686" />
	<path
   d="m 1054.228,74.272 v 0 c 0,0 6.724,0.739 15.106,4.558 v 0 c -8.381,-3.819 -15.105,-4.558 -15.106,-4.558 z"
   id="path408"
   inkscape:connector-curvature="0"
   style="fill:#677686" />
	<path
   d="m 1139.745,64.77 c -10e-4,0 -10e-4,0 0,0 0.078,-0.07 0.158,-0.138 0.237,-0.208 0,0 -10e-4,0.001 -10e-4,0.001 -0.079,0.069 -0.158,0.137 -0.236,0.207 z"
   id="path410"
   inkscape:connector-curvature="0"
   style="fill:#677686" />
	<path
   d="m 1140.919,63.765 c 0,0 0,10e-4 0,10e-4 0.062,-0.051 0.124,-0.103 0.186,-0.153 0,0 -10e-4,0 -10e-4,0 -0.062,0.05 -0.123,0.101 -0.184,0.152 z"
   id="path412"
   inkscape:connector-curvature="0"
   style="fill:#677686" />
	<path
   d="m 1137.277,67.148 c -10e-4,0.001 -10e-4,0.001 0,0.002 0.076,-0.079 0.152,-0.162 0.229,-0.24 0,0 0,0 0,0 -0.076,0.078 -0.151,0.16 -0.227,0.238 z"
   id="path414"
   inkscape:connector-curvature="0"
   style="fill:#677686" />
	<path
   d="m 1093.681,41.176 c 10.682,11.033 1.97,31.689 1.97,31.689 0.38,0.453 0.778,0.863 1.185,1.239 -0.197,-0.271 -0.346,-0.503 -0.441,-0.676 -0.754,-1.382 9.247,-6.5 16.068,-4.213 0,0 -12.805,-28.971 0.543,-34.705 6.393,-2.746 14.407,-1.719 21.027,0.095 -0.861,-0.624 -1.739,-1.236 -2.634,-1.832 -1.212,-0.808 -2.454,-1.589 -3.723,-2.331 0.509,-3.494 2.04,-15.632 -1.253,-15.66 -3.266,-0.028 -6.182,8.903 -6.988,11.601 -1.06,-0.423 -2.132,-0.813 -3.216,-1.164 -7.016,-2.273 -14.502,-2.947 -22.082,-0.863 -7.419,2.039 -13.457,5.207 -18.381,8.977 -1.105,0.846 -2.154,1.722 -3.15,2.624 -1.33,-1.426 -7.144,-7.39 -10.377,-6.266 -3.127,1.086 1.672,11.366 3.153,14.37 -0.882,1.225 -1.696,2.461 -2.445,3.7 -1.338,2.213 -2.473,4.429 -3.434,6.585 10.406,-11.256 25.968,-21.649 34.178,-13.17 z"
   id="path416"
   inkscape:connector-curvature="0"
   style="fill:#677686" />
	<path
   d="m 1112.463,69.215 c 0,0 -0.182,0.917 -0.633,2.189 0.574,-1.291 0.633,-2.189 0.633,-2.189 z"
   id="path418"
   inkscape:connector-curvature="0"
   style="fill:#677686" />
	<path
   d="m 1138.624,65.799 c 0,10e-4 -10e-4,10e-4 0,0 0.033,-0.031 0.066,-0.061 0.099,-0.092 -10e-4,0.001 -10e-4,0.001 0,0.002 -0.033,0.031 -0.065,0.06 -0.097,0.09 z"
   id="path420"
   inkscape:connector-curvature="0"
   style="fill:#677686" />
	<path
   d="m 1070.472,79.382 c 0,0 -10e-4,-0.001 0,-0.001 0.191,0.099 0.383,0.201 0.577,0.307 -10e-4,-0.001 0,-0.001 0,-0.002 -0.192,-0.104 -0.382,-0.205 -0.572,-0.304 z"
   id="path422"
   inkscape:connector-curvature="0"
   style="fill:#677686" />
	<path
   d="m 1054.498,71.749 c 0.014,-0.101 0.029,-0.206 0.044,-0.312 -0.015,0.107 -0.03,0.211 -0.044,0.312 z"
   id="path424"
   inkscape:connector-curvature="0"
   style="fill:#677686" />
	<path
   d="m 1054.281,73.601 c 0,-0.035 0.01,-0.076 0.011,-0.114 0,0.038 -0.01,0.079 -0.011,0.114 z"
   id="path426"
   inkscape:connector-curvature="0"
   style="fill:#677686" />
	<path
   d="m 1054.309,73.32 c 0.01,-0.05 0.011,-0.106 0.017,-0.159 -0.01,0.053 -0.012,0.109 -0.017,0.159 z"
   id="path428"
   inkscape:connector-curvature="0"
   style="fill:#677686" />
	<path
   d="m 1054.245,74.019 c 0,-0.001 0,-0.002 0,-0.002 0,0 0,0.001 0,0.002 z"
   id="path430"
   inkscape:connector-curvature="0"
   style="fill:#677686" />
	<path
   d="m 1054.26,73.835 c 0,-0.021 0,-0.046 0.01,-0.068 0,0.023 0,0.047 -0.01,0.068 z"
   id="path432"
   inkscape:connector-curvature="0"
   style="fill:#677686" />
	<path
   d="m 1054.437,72.206 c 0.012,-0.091 0.024,-0.186 0.037,-0.282 -0.013,0.097 -0.025,0.192 -0.037,0.282 z"
   id="path434"
   inkscape:connector-curvature="0"
   style="fill:#677686" />
	<path
   d="m 1054.343,72.993 c 0.01,-0.064 0.015,-0.133 0.023,-0.201 -0.01,0.068 -0.016,0.137 -0.023,0.201 z"
   id="path436"
   inkscape:connector-curvature="0"
   style="fill:#677686" />
	<path
   d="m 1054.386,72.62 c 0.01,-0.077 0.019,-0.159 0.029,-0.24 -0.01,0.082 -0.02,0.163 -0.029,0.24 z"
   id="path438"
   inkscape:connector-curvature="0"
   style="fill:#677686" />
	<path
   d="m 1054.65,70.714 c 0.019,-0.123 0.04,-0.249 0.061,-0.378 -0.021,0.129 -0.041,0.255 -0.061,0.378 z"
   id="path440"
   inkscape:connector-curvature="0"
   style="fill:#677686" />
	<path
   d="m 1054.849,69.529 c 0.026,-0.143 0.052,-0.288 0.079,-0.437 -0.027,0.149 -0.053,0.294 -0.079,0.437 z"
   id="path442"
   inkscape:connector-curvature="0"
   style="fill:#677686" />
	<path
   d="m 1132.281,73.255 c -0.013,0.018 -0.026,0.035 -0.039,0.052 0.183,-0.244 0.373,-0.496 0.562,-0.747 0,0.005 -0.01,0.009 -0.011,0.014 -0.173,0.229 -0.345,0.458 -0.512,0.681 z"
   id="path444"
   inkscape:connector-curvature="0"
   style="fill:#677686" />
	<path
   d="m 1072.067,80.27 c 0,-10e-4 -0.01,-0.003 -0.01,-0.004 0.239,0.141 0.479,0.287 0.722,0.436 -10e-4,-0.001 0,-0.001 0,-0.002 -0.239,-0.148 -0.477,-0.291 -0.712,-0.43 z"
   id="path446"
   inkscape:connector-curvature="0"
   style="fill:#677686" />
	<path
   d="m 1054.743,70.141 c 0.022,-0.133 0.046,-0.269 0.07,-0.408 -0.024,0.139 -0.047,0.275 -0.07,0.408 z"
   id="path448"
   inkscape:connector-curvature="0"
   style="fill:#677686" />
	<path
   d="m 1054.569,71.25 c 0.016,-0.112 0.034,-0.229 0.052,-0.347 -0.018,0.119 -0.036,0.235 -0.052,0.347 z"
   id="path450"
   inkscape:connector-curvature="0"
   style="fill:#677686" />
	<path
   d="m 1133.891,71.119 c 0.012,-0.016 0.024,-0.032 0.036,-0.048 0,-0.002 0,-0.003 0,-0.005 -10e-4,0.002 0,0.003 0,0.005 -0.012,0.016 -0.024,0.032 -0.036,0.048 z"
   id="path452"
   inkscape:connector-curvature="0"
   style="fill:#677686" />
	<path
   d="m 1143.384,61.877 v 0 c 0,0 -10e-4,0 0,0 6.599,-4.667 12.205,-5.729 12.205,-5.729 -0.077,-0.112 -0.16,-0.23 -0.244,-0.349 0.084,0.119 0.167,0.237 0.244,0.349 -10e-4,0 -5.605,1.062 -12.205,5.729 z"
   id="path454"
   inkscape:connector-curvature="0"
   style="fill:#677686" />
	<path
   d="m 1134.983,69.735 v 0 c 0.107,-0.131 0.216,-0.258 0.324,-0.387 -10e-4,0.001 -10e-4,0.001 0,0.002 -0.107,0.128 -0.215,0.254 -0.322,0.385 z"
   id="path456"
   inkscape:connector-curvature="0"
   style="fill:#677686" />
	<path
   d="m 1055.581,65.999 c 0.045,-0.19 0.091,-0.382 0.139,-0.577 -0.048,0.195 -0.094,0.387 -0.139,0.577 z"
   id="path458"
   inkscape:connector-curvature="0"
   style="fill:#677686" />
	<path
   d="m 1056.448,62.707 c 0.068,-0.233 0.137,-0.468 0.209,-0.706 -0.072,0.239 -0.141,0.473 -0.209,0.706 z"
   id="path460"
   inkscape:connector-curvature="0"
   style="fill:#677686" />
	<path
   d="m 1055.982,64.395 c 0.055,-0.21 0.111,-0.421 0.17,-0.635 -0.059,0.214 -0.115,0.425 -0.17,0.635 z"
   id="path462"
   inkscape:connector-curvature="0"
   style="fill:#677686" />
	<path
   d="m 1054.967,68.888 c 0.029,-0.154 0.059,-0.31 0.09,-0.468 -0.031,0.158 -0.061,0.314 -0.09,0.468 z"
   id="path464"
   inkscape:connector-curvature="0"
   style="fill:#677686" />
	<path
   d="m 1056.207,63.559 c 0.061,-0.221 0.123,-0.442 0.188,-0.667 -0.065,0.225 -0.127,0.447 -0.188,0.667 z"
   id="path466"
   inkscape:connector-curvature="0"
   style="fill:#677686" />
	<path
   d="m 1055.773,65.208 c 0.05,-0.2 0.1,-0.401 0.153,-0.605 -0.052,0.205 -0.103,0.405 -0.153,0.605 z"
   id="path468"
   inkscape:connector-curvature="0"
   style="fill:#677686" />
	<path
   d="m 1055.099,68.209 c 0.032,-0.161 0.065,-0.325 0.1,-0.491 -0.035,0.166 -0.068,0.33 -0.1,0.491 z"
   id="path470"
   inkscape:connector-curvature="0"
   style="fill:#677686" />
	<path
   d="m 1055.245,67.497 c 0.036,-0.169 0.073,-0.34 0.111,-0.515 -0.038,0.175 -0.075,0.346 -0.111,0.515 z"
   id="path472"
   inkscape:connector-curvature="0"
   style="fill:#677686" />
	<path
   d="m 1055.406,66.761 c 0.04,-0.18 0.081,-0.361 0.124,-0.545 -0.043,0.184 -0.084,0.365 -0.124,0.545 z"
   id="path474"
   inkscape:connector-curvature="0"
   style="fill:#677686" />
	<path
   d="m 1136.078,68.451 -10e-4,0.001 c 0.115,-0.13 0.229,-0.259 0.344,-0.386 0,0 -10e-4,10e-4 -10e-4,10e-4 -0.114,0.127 -0.228,0.255 -0.342,0.384 z"
   id="path476"
   inkscape:connector-curvature="0"
   style="fill:#677686" />
	<path
   d="m 1148.452,47.466 c 0.179,0.193 0.356,0.384 0.53,0.574 -0.174,-0.19 -0.351,-0.382 -0.53,-0.574 z"
   id="path478"
   inkscape:connector-curvature="0"
   style="fill:#677686" />
	<path
   d="m 1138.844,38.351 c 0.276,0.23 0.55,0.461 0.821,0.692 -0.271,-0.231 -0.545,-0.462 -0.821,-0.692 z"
   id="path480"
   inkscape:connector-curvature="0"
   style="fill:#677686" />
	<path
   d="m 1136.01,36.082 c 0.301,0.231 0.599,0.464 0.894,0.697 -0.295,-0.233 -0.593,-0.465 -0.894,-0.697 z"
   id="path482"
   inkscape:connector-curvature="0"
   style="fill:#677686" />
	<path
   d="m 1137.916,37.588 c 0.284,0.23 0.564,0.461 0.843,0.693 -0.278,-0.231 -0.559,-0.462 -0.843,-0.693 z"
   id="path484"
   inkscape:connector-curvature="0"
   style="fill:#677686" />
	<path
   d="m 1150.366,49.581 c 0.154,0.175 0.306,0.348 0.455,0.52 -0.149,-0.171 -0.301,-0.345 -0.455,-0.52 z"
   id="path486"
   inkscape:connector-curvature="0"
   style="fill:#677686" />
	<path
   d="m 1147.056,45.993 c 0.198,0.205 0.395,0.41 0.588,0.613 -0.194,-0.203 -0.39,-0.408 -0.588,-0.613 z"
   id="path488"
   inkscape:connector-curvature="0"
   style="fill:#677686" />
	<path
   d="m 1149.754,48.891 c 0.162,0.18 0.322,0.36 0.479,0.537 -0.158,-0.177 -0.318,-0.356 -0.479,-0.537 z"
   id="path490"
   inkscape:connector-curvature="0"
   style="fill:#677686" />
	<path
   d="m 1136.972,36.832 c 0.292,0.231 0.582,0.463 0.869,0.696 -0.287,-0.233 -0.576,-0.465 -0.869,-0.696 z"
   id="path492"
   inkscape:connector-curvature="0"
   style="fill:#677686" />
	<path
   d="m 1149.114,48.185 c 0.17,0.187 0.339,0.372 0.504,0.556 -0.165,-0.184 -0.333,-0.37 -0.504,-0.556 z"
   id="path494"
   inkscape:connector-curvature="0"
   style="fill:#677686" />
	<path
   d="m 1147.763,46.732 c 0.189,0.2 0.376,0.398 0.56,0.596 -0.184,-0.198 -0.371,-0.396 -0.56,-0.596 z"
   id="path496"
   inkscape:connector-curvature="0"
   style="fill:#677686" />
	<path
   d="m 1146.329,45.248 c 0.206,0.209 0.409,0.417 0.61,0.624 -0.201,-0.207 -0.404,-0.415 -0.61,-0.624 z"
   id="path498"
   inkscape:connector-curvature="0"
   style="fill:#677686" />
	<path
   d="m 1142.366,41.427 c 0.246,0.225 0.489,0.449 0.729,0.674 -0.24,-0.224 -0.483,-0.449 -0.729,-0.674 z"
   id="path500"
   inkscape:connector-curvature="0"
   style="fill:#677686" />
	<path
   d="m 1141.514,40.656 c 0.253,0.227 0.504,0.453 0.752,0.68 -0.248,-0.226 -0.499,-0.453 -0.752,-0.68 z"
   id="path502"
   inkscape:connector-curvature="0"
   style="fill:#677686" />
	<path
   d="m 1144.013,42.967 c 0.229,0.219 0.455,0.437 0.679,0.655 -0.224,-0.218 -0.45,-0.436 -0.679,-0.655 z"
   id="path504"
   inkscape:connector-curvature="0"
   style="fill:#677686" />
	<path
   d="m 1143.199,42.198 c 0.238,0.222 0.473,0.444 0.705,0.666 -0.232,-0.222 -0.467,-0.444 -0.705,-0.666 z"
   id="path506"
   inkscape:connector-curvature="0"
   style="fill:#677686" />
	<path
   d="m 1140.642,39.885 c 0.261,0.228 0.519,0.456 0.775,0.685 -0.256,-0.228 -0.514,-0.456 -0.775,-0.685 z"
   id="path508"
   inkscape:connector-curvature="0"
   style="fill:#677686" />
	<path
   d="m 1139.751,39.116 c 0.269,0.23 0.535,0.46 0.799,0.69 -0.264,-0.231 -0.53,-0.461 -0.799,-0.69 z"
   id="path510"
   inkscape:connector-curvature="0"
   style="fill:#677686" />
	<path
   d="m 1144.807,43.734 c 0.221,0.216 0.44,0.431 0.656,0.646 -0.215,-0.215 -0.434,-0.43 -0.656,-0.646 z"
   id="path512"
   inkscape:connector-curvature="0"
   style="fill:#677686" />
	<path
   d="m 1145.577,44.492 c 0.214,0.213 0.425,0.425 0.634,0.636 -0.209,-0.211 -0.42,-0.423 -0.634,-0.636 z"
   id="path514"
   inkscape:connector-curvature="0"
   style="fill:#677686" />
	<path
   d="m 1151.527,50.925 c 0.134,0.158 0.267,0.316 0.397,0.47 -0.129,-0.154 -0.263,-0.312 -0.397,-0.47 z"
   id="path516"
   inkscape:connector-curvature="0"
   style="fill:#677686" />
	<path
   d="m 1154.384,54.484 c 0.078,0.103 0.156,0.208 0.231,0.307 -0.074,-0.099 -0.153,-0.204 -0.231,-0.307 z"
   id="path518"
   inkscape:connector-curvature="0"
   style="fill:#677686" />
	<path
   d="m 1153.981,53.955 c 0.085,0.111 0.171,0.222 0.253,0.329 -0.082,-0.107 -0.168,-0.219 -0.253,-0.329 z"
   id="path520"
   inkscape:connector-curvature="0"
   style="fill:#677686" />
	<path
   d="m 1153.546,53.395 c 0.094,0.119 0.188,0.239 0.278,0.355 -0.09,-0.116 -0.184,-0.236 -0.278,-0.355 z"
   id="path522"
   inkscape:connector-curvature="0"
   style="fill:#677686" />
	<path
   d="m 1155.083,55.432 c 0.072,0.1 0.145,0.201 0.212,0.296 -0.068,-0.095 -0.14,-0.196 -0.212,-0.296 z"
   id="path524"
   inkscape:connector-curvature="0"
   style="fill:#677686" />
	<path
   d="m 1056.975,60.982 c 0.087,-0.272 0.176,-0.546 0.268,-0.823 -0.092,0.278 -0.181,0.551 -0.268,0.823 z"
   id="path526"
   inkscape:connector-curvature="0"
   style="fill:#677686" />
	<path
   d="m 1135.032,35.341 c 0.31,0.232 0.618,0.465 0.923,0.699 -0.305,-0.234 -0.612,-0.467 -0.923,-0.699 z"
   id="path528"
   inkscape:connector-curvature="0"
   style="fill:#677686" />
	<path
   d="m 1057.247,60.148 c 0.614,-1.834 1.351,-3.77 2.235,-5.757 -0.883,1.987 -1.621,3.923 -2.235,5.757 z"
   id="path530"
   inkscape:connector-curvature="0"
   style="fill:#677686" />
	<path
   d="m 1134.038,34.609 c 0.32,0.232 0.637,0.466 0.953,0.701 -0.316,-0.235 -0.633,-0.469 -0.953,-0.701 z"
   id="path532"
   inkscape:connector-curvature="0"
   style="fill:#677686" />
	<path
   d="m 1071.226,79.786 c 0,0 0,-0.001 0,-0.001 0.251,0.14 0.504,0.284 0.76,0.434 0,0 -0,-10e-4 0,-10e-4 -0.254,-0.149 -0.506,-0.292 -0.756,-0.432 z"
   id="path534"
   inkscape:connector-curvature="0"
   style="fill:#677686" />
	<path
   d="m 1153.08,52.808 c 0.104,0.13 0.208,0.259 0.308,0.385 -0.1,-0.126 -0.204,-0.255 -0.308,-0.385 z"
   id="path536"
   inkscape:connector-curvature="0"
   style="fill:#677686" />
	<path
   d="m 1154.758,54.987 c 0.071,0.097 0.144,0.195 0.212,0.288 -0.068,-0.094 -0.141,-0.192 -0.212,-0.288 z"
   id="path538"
   inkscape:connector-curvature="0"
   style="fill:#677686" />
	<path
   d="m 1152.59,52.202 c 0.113,0.139 0.226,0.277 0.335,0.412 -0.108,-0.135 -0.222,-0.273 -0.335,-0.412 z"
   id="path540"
   inkscape:connector-curvature="0"
   style="fill:#677686" />
	<path
   d="m 1056.705,61.845 c 0.076,-0.249 0.154,-0.5 0.234,-0.754 -0.08,0.254 -0.158,0.505 -0.234,0.754 z"
   id="path542"
   inkscape:connector-curvature="0"
   style="fill:#677686" />
	<path
   d="m 1150.958,50.26 c 0.144,0.167 0.286,0.332 0.426,0.496 -0.139,-0.163 -0.282,-0.329 -0.426,-0.496 z"
   id="path544"
   inkscape:connector-curvature="0"
   style="fill:#677686" />
	<path
   d="m 1152.069,51.57 c 0.124,0.149 0.248,0.298 0.368,0.444 -0.12,-0.146 -0.244,-0.295 -0.368,-0.444 z"
   id="path546"
   inkscape:connector-curvature="0"
   style="fill:#677686" />
	<path
   d="m 1137.277,67.148 c 0.075,-0.079 0.151,-0.16 0.226,-0.238 -0.075,0.078 -0.15,0.16 -0.226,0.238 z"
   id="path548"
   inkscape:connector-curvature="0"
   style="fill:#ffe3a2" />
	<path
   d="m 1136.078,68.451 c 0.114,-0.129 0.228,-0.257 0.342,-0.383 -0.114,0.126 -0.228,0.254 -0.342,0.383 z"
   id="path550"
   inkscape:connector-curvature="0"
   style="fill:#ffe3a2" />
	<path
   d="m 1139.745,64.77 c 0.079,-0.07 0.157,-0.138 0.236,-0.207 -0.079,0.069 -0.158,0.137 -0.236,0.207 z"
   id="path552"
   inkscape:connector-curvature="0"
   style="fill:#ffe3a2" />
	<path
   d="m 1071.634,59.718 c 4.705,-13.264 22.945,-17.538 22.17,0.733 -0.521,12.288 -8.554,20.766 -13.762,25.005 6.849,4.395 15.146,8.641 25.506,6.432 14.909,-3.179 18.27,-7.376 26.039,-17.712 -0.024,0.032 -0.051,0.067 -0.075,0.099 -3.748,-1.34 -8.771,-3.9 -13.205,-8.736 -8.381,-9.141 -6.334,-28.48 9.475,-20.824 10.129,4.905 14.071,12.403 15.6,17.161 6.6,-4.667 12.204,-5.729 12.204,-5.729 -0.077,-0.112 -0.16,-0.23 -0.244,-0.349 -0.017,-0.024 -0.032,-0.046 -0.049,-0.071 -0.068,-0.096 -0.141,-0.196 -0.212,-0.296 -0.038,-0.053 -0.074,-0.103 -0.113,-0.158 -0.068,-0.093 -0.14,-0.191 -0.212,-0.288 -0.048,-0.065 -0.094,-0.128 -0.143,-0.195 -0.074,-0.1 -0.153,-0.204 -0.231,-0.307 -0.05,-0.067 -0.099,-0.132 -0.15,-0.2 -0.082,-0.107 -0.168,-0.219 -0.253,-0.329 -0.053,-0.068 -0.103,-0.135 -0.157,-0.205 -0.09,-0.116 -0.184,-0.236 -0.278,-0.355 -0.053,-0.067 -0.104,-0.133 -0.158,-0.201 -0.1,-0.126 -0.204,-0.256 -0.308,-0.385 -0.052,-0.065 -0.102,-0.128 -0.155,-0.193 -0.109,-0.135 -0.222,-0.274 -0.335,-0.412 -0.051,-0.063 -0.101,-0.125 -0.154,-0.188 -0.12,-0.146 -0.244,-0.295 -0.368,-0.444 -0.048,-0.058 -0.096,-0.115 -0.145,-0.174 -0.129,-0.155 -0.263,-0.312 -0.397,-0.47 -0.048,-0.056 -0.095,-0.112 -0.143,-0.169 -0.139,-0.163 -0.282,-0.329 -0.426,-0.496 -0.046,-0.053 -0.091,-0.105 -0.137,-0.159 -0.149,-0.172 -0.301,-0.345 -0.455,-0.52 -0.045,-0.051 -0.089,-0.101 -0.134,-0.153 -0.157,-0.177 -0.317,-0.357 -0.479,-0.537 -0.045,-0.05 -0.089,-0.1 -0.135,-0.151 -0.165,-0.184 -0.334,-0.37 -0.504,-0.556 -0.044,-0.048 -0.088,-0.096 -0.132,-0.145 -0.174,-0.19 -0.351,-0.381 -0.53,-0.574 -0.043,-0.046 -0.085,-0.092 -0.129,-0.138 -0.184,-0.197 -0.371,-0.396 -0.56,-0.596 -0.04,-0.042 -0.079,-0.084 -0.12,-0.126 -0.193,-0.203 -0.389,-0.408 -0.588,-0.613 -0.039,-0.04 -0.078,-0.081 -0.117,-0.121 -0.201,-0.207 -0.404,-0.415 -0.61,-0.624 -0.039,-0.04 -0.079,-0.08 -0.118,-0.12 -0.209,-0.211 -0.42,-0.423 -0.634,-0.636 -0.037,-0.037 -0.075,-0.075 -0.113,-0.112 -0.216,-0.215 -0.435,-0.43 -0.656,-0.646 -0.038,-0.037 -0.077,-0.075 -0.115,-0.112 -0.224,-0.218 -0.45,-0.436 -0.679,-0.655 -0.036,-0.034 -0.072,-0.069 -0.108,-0.103 -0.233,-0.222 -0.468,-0.443 -0.705,-0.666 -0.035,-0.032 -0.069,-0.065 -0.104,-0.097 -0.241,-0.224 -0.484,-0.449 -0.729,-0.674 -0.033,-0.03 -0.066,-0.061 -0.1,-0.091 -0.248,-0.227 -0.499,-0.453 -0.752,-0.68 -0.032,-0.029 -0.065,-0.057 -0.097,-0.086 -0.256,-0.228 -0.514,-0.457 -0.775,-0.685 -0.031,-0.027 -0.061,-0.053 -0.092,-0.08 -0.264,-0.23 -0.53,-0.46 -0.799,-0.69 -0.029,-0.024 -0.057,-0.049 -0.086,-0.073 -0.271,-0.231 -0.545,-0.462 -0.821,-0.692 -0.028,-0.023 -0.057,-0.047 -0.085,-0.07 -0.279,-0.232 -0.559,-0.462 -0.843,-0.693 -0.025,-0.02 -0.05,-0.04 -0.075,-0.06 -0.287,-0.233 -0.577,-0.465 -0.869,-0.696 -0.022,-0.018 -0.045,-0.035 -0.067,-0.053 -0.296,-0.233 -0.594,-0.466 -0.894,-0.697 -0.018,-0.014 -0.037,-0.028 -0.055,-0.042 -0.305,-0.234 -0.613,-0.468 -0.923,-0.699 -0.014,-0.01 -0.028,-0.021 -0.042,-0.031 -0.315,-0.235 -0.633,-0.469 -0.953,-0.701 0,-0.001 0,-0.002 -0.01,-0.003 v 0 c -6.62,-1.814 -14.634,-2.842 -21.027,-0.095 -13.348,5.734 -0.543,34.705 -0.543,34.705 0,0 -0.059,0.898 -0.633,2.189 -0.886,2.501 -2.812,6.38 -6.447,7.394 -3.495,0.975 -7.175,-2.806 -8.547,-4.693 -0.407,-0.376 -0.805,-0.787 -1.185,-1.239 0,0 8.712,-20.656 -1.97,-31.689 -8.209,-8.479 -23.772,1.914 -34.178,13.168 v 0 c -0.01,0.016 -0.013,0.031 -0.02,0.047 -0.884,1.987 -1.621,3.923 -2.235,5.757 0,0.004 0,0.008 0,0.012 -0.093,0.277 -0.181,0.55 -0.268,0.823 -0.012,0.036 -0.024,0.073 -0.035,0.109 -0.081,0.254 -0.158,0.505 -0.234,0.754 -0.016,0.052 -0.032,0.105 -0.048,0.156 -0.072,0.238 -0.141,0.472 -0.209,0.706 -0.018,0.061 -0.036,0.123 -0.054,0.184 -0.065,0.225 -0.127,0.447 -0.188,0.667 -0.018,0.067 -0.037,0.134 -0.056,0.2 -0.059,0.214 -0.115,0.426 -0.17,0.635 -0.018,0.069 -0.037,0.14 -0.055,0.208 -0.053,0.204 -0.104,0.405 -0.153,0.605 -0.018,0.071 -0.036,0.143 -0.053,0.214 -0.048,0.195 -0.094,0.387 -0.139,0.577 -0.017,0.072 -0.034,0.145 -0.051,0.216 -0.043,0.184 -0.084,0.366 -0.124,0.545 -0.016,0.074 -0.033,0.148 -0.049,0.221 -0.038,0.174 -0.075,0.345 -0.111,0.515 -0.016,0.074 -0.031,0.148 -0.047,0.221 -0.035,0.166 -0.068,0.33 -0.1,0.491 -0.014,0.071 -0.028,0.141 -0.042,0.21 -0.031,0.159 -0.061,0.315 -0.09,0.468 -0.013,0.069 -0.026,0.137 -0.038,0.204 -0.027,0.148 -0.054,0.294 -0.079,0.437 -0.012,0.069 -0.024,0.137 -0.036,0.204 -0.024,0.138 -0.047,0.275 -0.07,0.408 -0.011,0.066 -0.022,0.131 -0.032,0.195 -0.021,0.128 -0.041,0.255 -0.061,0.378 -0.01,0.064 -0.02,0.127 -0.029,0.19 -0.018,0.118 -0.036,0.234 -0.052,0.347 -0.01,0.064 -0.018,0.125 -0.027,0.187 -0.015,0.106 -0.03,0.211 -0.044,0.312 -0.01,0.06 -0.016,0.117 -0.024,0.176 -0.013,0.096 -0.026,0.191 -0.037,0.282 -0.01,0.06 -0.015,0.116 -0.022,0.174 -0.01,0.082 -0.02,0.163 -0.029,0.24 -0.01,0.06 -0.013,0.115 -0.02,0.171 -0.01,0.068 -0.016,0.137 -0.023,0.201 -0.01,0.059 -0.012,0.113 -0.018,0.168 -0.01,0.054 -0.012,0.109 -0.017,0.159 -0.01,0.06 -0.011,0.113 -0.016,0.167 0,0.038 -0.01,0.079 -0.011,0.114 -0.01,0.061 -0.01,0.114 -0.015,0.167 0,0.022 0,0.047 -0.01,0.068 -0.01,0.068 -0.011,0.128 -0.015,0.181 0,0.001 0,0.002 0,0.002 -0.013,0.165 -0.018,0.253 -0.018,0.253 v 0 c 0,0 6.725,0.739 15.106,4.558 -0.452,-4.516 -0.412,-11.463 2.301,-19.112 z"
   id="path554"
   inkscape:connector-curvature="0"
   style="fill:#ffe3a2" />
	<path
   d="m 1134.983,69.735 c 0.107,-0.131 0.215,-0.257 0.322,-0.385 -0.107,0.128 -0.215,0.254 -0.322,0.385 z"
   id="path556"
   inkscape:connector-curvature="0"
   style="fill:#ffe3a2" />
	<path
   d="m 1140.919,63.765 c 0.061,-0.05 0.122,-0.102 0.183,-0.152 -0.061,0.05 -0.122,0.101 -0.183,0.152 z"
   id="path558"
   inkscape:connector-curvature="0"
   style="fill:#ffe3a2" />
	<path
   d="m 1138.624,65.799 c 0.032,-0.031 0.065,-0.06 0.097,-0.09 -0.033,0.031 -0.065,0.06 -0.097,0.09 z"
   id="path560"
   inkscape:connector-curvature="0"
   style="fill:#ffe3a2" />
	<path
   d="m 1070.472,79.382 c 0.19,0.098 0.38,0.2 0.573,0.305 -0.192,-0.105 -0.383,-0.207 -0.573,-0.305 z"
   id="path562"
   inkscape:connector-curvature="0"
   style="fill:#ffe3a2" />
	<path
   d="m 1073.721,81.29 c -0.263,-0.168 -0.522,-0.331 -0.78,-0.49 0.258,0.159 0.518,0.322 0.78,0.49 z"
   id="path564"
   inkscape:connector-curvature="0"
   style="fill:#ffe3a2" />
	<path
   d="m 1080.039,85.454 c -2.254,-1.447 -4.352,-2.908 -6.314,-4.162 1.961,1.254 4.06,2.716 6.314,4.162 z"
   id="path566"
   inkscape:connector-curvature="0"
   style="fill:#ffe3a2" />
	<path
   d="m 1069.541,78.923 c 0.239,0.11 0.48,0.229 0.723,0.351 -0.243,-0.122 -0.485,-0.241 -0.723,-0.351 z"
   id="path568"
   inkscape:connector-curvature="0"
   style="fill:#ffe3a2" />
	<path
   d="m 1071.226,79.786 c 0.25,0.139 0.502,0.283 0.756,0.432 -0.254,-0.149 -0.506,-0.293 -0.756,-0.432 z"
   id="path570"
   inkscape:connector-curvature="0"
   style="fill:#ffe3a2" />
	<path
   d="m 1132.281,73.255 c 0.167,-0.223 0.34,-0.452 0.512,-0.68 -0.175,0.231 -0.343,0.454 -0.512,0.68 z"
   id="path572"
   inkscape:connector-curvature="0"
   style="fill:#ffe3a2" />
	<path
   d="m 1072.067,80.27 c 0.235,0.139 0.473,0.283 0.712,0.43 -0.239,-0.148 -0.477,-0.291 -0.712,-0.43 z"
   id="path574"
   inkscape:connector-curvature="0"
   style="fill:#ffe3a2" />
	<path
   d="m 1143.384,61.877 c -1.529,-4.758 -5.472,-12.256 -15.6,-17.161 -15.809,-7.656 -17.856,11.683 -9.475,20.824 4.434,4.836 9.456,7.396 13.205,8.736 0.024,-0.032 0.05,-0.067 0.075,-0.099 0.081,-0.107 0.166,-0.221 0.248,-0.33 0.133,-0.178 0.27,-0.359 0.406,-0.54 0.013,-0.018 0.026,-0.035 0.039,-0.052 0.17,-0.226 0.337,-0.449 0.512,-0.68 0,-0.005 0.01,-0.01 0.011,-0.014 0.353,-0.469 0.714,-0.948 1.088,-1.441 0.013,-0.017 0.024,-0.032 0.036,-0.048 10e-4,-0.002 0,-0.003 0,-0.005 0.347,-0.458 0.698,-0.899 1.051,-1.33 l 10e-4,-10e-4 c 0.107,-0.131 0.215,-0.257 0.322,-0.385 10e-4,-0.001 10e-4,-0.001 0,-0.002 0.255,-0.305 0.512,-0.604 0.77,-0.896 l 10e-4,-0.001 c 0.114,-0.129 0.228,-0.257 0.342,-0.383 0,0 10e-4,-0.001 10e-4,-0.001 0.284,-0.314 0.569,-0.619 0.854,-0.917 10e-4,-10e-4 10e-4,-10e-4 0,-0.002 0.075,-0.079 0.151,-0.16 0.226,-0.238 0,0 0,0 0,0 0.373,-0.383 0.746,-0.753 1.12,-1.11 0,0 0,0 0,0 0.032,-0.031 0.065,-0.06 0.097,-0.09 10e-4,-0.001 10e-4,-0.001 0,-0.002 0.34,-0.323 0.681,-0.635 1.021,-0.937 0,0 0,0 0,-0.001 0.079,-0.07 0.157,-0.138 0.236,-0.207 0,0 10e-4,-10e-4 10e-4,-10e-4 0.313,-0.274 0.625,-0.54 0.936,-0.797 0,0 0,-10e-4 0,-10e-4 0.061,-0.05 0.122,-0.102 0.183,-0.152 0,0 10e-4,0 10e-4,-10e-4 0.767,-0.626 1.53,-1.205 2.28,-1.735 -10e-4,0 0,0 0,0 z"
   id="path576"
   inkscape:connector-curvature="0"
   style="fill:#565f6b" />
	<path
   d="m 1073.721,81.29 c 10e-4,10e-4 0,10e-4 0,0.002 1.962,1.254 4.06,2.715 6.314,4.162 10e-4,0.001 0,0.001 0,0.002 v 0 c 5.208,-4.239 13.24,-12.716 13.762,-25.005 0.776,-18.272 -17.465,-13.997 -22.17,-0.733 -2.713,7.649 -2.753,14.596 -2.3,19.111 v 0 c 0,0.001 0,0.001 0,0.002 0.068,0.031 0.135,0.059 0.204,0.09 10e-4,0 0,10e-4 0,10e-4 0.238,0.11 0.48,0.229 0.723,0.351 v 0 c 0.069,0.035 0.138,0.071 0.206,0.106 0,0 10e-4,10e-4 10e-4,10e-4 0.19,0.098 0.381,0.2 0.573,0.305 10e-4,0.001 0,0.001 0,0.002 0.059,0.032 0.118,0.064 0.177,0.097 0,0 0,10e-4 0,10e-4 0.25,0.139 0.502,0.283 0.757,0.433 10e-4,0 10e-4,10e-4 10e-4,10e-4 0.026,0.015 0.051,0.031 0.076,0.046 0,0.001 0.01,0.003 0.01,0.004 0.235,0.139 0.473,0.283 0.712,0.43 10e-4,0.001 0,0.001 0,0.002 0.052,0.032 0.103,0.064 0.155,0.096 0,0.001 0,0.002 0,0.002 0.258,0.16 0.518,0.323 0.78,0.491 z"
   id="path578"
   inkscape:connector-curvature="0"
   style="fill:#565f6b" />
	<path
   d="m 1096.395,73.428 c 0.094,0.173 0.244,0.405 0.441,0.676 1.372,1.888 5.052,5.668 8.547,4.693 3.635,-1.014 5.561,-4.893 6.447,-7.394 0.451,-1.272 0.633,-2.189 0.633,-2.189 -6.821,-2.286 -16.822,2.832 -16.068,4.214 z"
   id="path580"
   inkscape:connector-curvature="0"
   style="fill:#2b2f35" />
	<path
   d="m 1123.591,50.846 c -1.071,-0.787 -2.518,-0.67 -3.97,0.32 -0.531,0.362 -1.255,0.226 -1.618,-0.306 -0.362,-0.531 -0.225,-1.255 0.306,-1.618 2.284,-1.556 4.774,-1.66 6.661,-0.272 1.973,1.451 2.72,4.125 1.901,6.813 -0.898,2.951 -3.093,4.222 -4.9,4.222 -0.127,0 -0.25,-0.006 -0.372,-0.018 -1.972,-0.199 -3.384,-1.785 -3.599,-4.044 -0.158,-1.653 0.234,-2.75 1.161,-3.261 1.466,-0.807 3.293,0.464 3.818,0.873 0.506,0.393 0.597,1.123 0.205,1.63 -0.391,0.507 -1.121,0.602 -1.632,0.21 -0.385,-0.296 -0.923,-0.571 -1.214,-0.632 -0.033,0.144 -0.069,0.434 -0.019,0.959 0.108,1.136 0.674,1.863 1.515,1.948 0.937,0.097 2.233,-0.666 2.811,-2.564 0.526,-1.731 0.112,-3.403 -1.054,-4.26 z"
   id="path582"
   inkscape:connector-curvature="0"
   style="fill:#2b2f35" />
	<path
   d="m 1082.769,65.05 c -0.127,0 -0.25,-0.006 -0.372,-0.018 -1.972,-0.199 -3.384,-1.785 -3.599,-4.044 -0.158,-1.653 0.234,-2.75 1.161,-3.261 1.465,-0.806 3.292,0.464 3.818,0.873 0.506,0.393 0.597,1.123 0.205,1.63 -0.392,0.507 -1.121,0.602 -1.632,0.21 -0.385,-0.296 -0.923,-0.571 -1.214,-0.632 -0.033,0.144 -0.069,0.434 -0.019,0.959 0.108,1.136 0.674,1.863 1.515,1.948 0.939,0.1 2.233,-0.666 2.811,-2.564 0.526,-1.73 0.113,-3.402 -1.053,-4.259 -1.071,-0.787 -2.519,-0.67 -3.97,0.32 -0.531,0.362 -1.255,0.225 -1.618,-0.306 -0.362,-0.531 -0.225,-1.255 0.306,-1.618 2.283,-1.556 4.775,-1.66 6.661,-0.272 1.973,1.451 2.72,4.125 1.901,6.813 -0.899,2.95 -3.094,4.221 -4.901,4.221 z"
   id="path584"
   inkscape:connector-curvature="0"
   style="fill:#2b2f35" />
	<path
   d="m 1120.445,80.039 c -0.229,0.833 -1.031,0.897 -1.461,0.932 -0.856,0.068 -2.637,0.211 -3.692,2.013 -0.817,1.394 -1.734,2.276 -2.795,2.683 -0.139,0.053 -0.282,0.099 -0.427,0.136 -1.778,0.456 -3.587,-0.415 -5.278,-1.425 -0.864,-0.516 -1.453,-0.992 -1.884,-1.34 -0.149,-0.12 -0.323,-0.261 -0.446,-0.347 -0.177,0.124 -0.516,0.422 -1.165,1.099 -1.527,1.591 -3.613,2.267 -5.581,1.806 -1.758,-0.412 -3.13,-1.689 -3.67,-3.414 -0.193,-0.614 0.132,-1.255 0.763,-1.459 0.613,-0.192 1.267,0.149 1.459,0.763 0.296,0.945 1.018,1.617 1.98,1.843 1.158,0.271 2.417,-0.158 3.369,-1.151 1.976,-2.059 2.889,-2.457 4.754,-0.951 0.398,0.321 0.894,0.721 1.616,1.153 1.697,1.014 2.745,1.364 3.504,1.169 0.605,-0.165 1.198,-0.726 1.791,-1.74 1.6,-2.732 4.233,-3.05 5.376,-3.146 0.386,-0.234 0.888,-0.233 1.28,0.044 0.539,0.382 0.616,0.939 0.507,1.332 z"
   id="path586"
   inkscape:connector-curvature="0"
   style="fill:#2b2f35" />
</g>






<g
   id="g2324"
   transform="translate(-1054.227,-8.1999543)">
</g>
<g
   id="g2326"
   transform="translate(-1054.227,-8.1999543)">
</g>
<g
   id="g2328"
   transform="translate(-1054.227,-8.1999543)">
</g>
<g
   id="g2330"
   transform="translate(-1054.227,-8.1999543)">
</g>
<g
   id="g2332"
   transform="translate(-1054.227,-8.1999543)">
</g>
<g
   id="g2334"
   transform="translate(-1054.227,-8.1999543)">
</g>
</svg>