<?xml version="1.0" encoding="UTF-8" standalone="no"?>
<!-- Generator: Adobe Illustrator 17.0.0, SVG Export Plug-In . SVG Version: 6.00 Build 0)  -->

<svg
   xmlns:dc="http://purl.org/dc/elements/1.1/"
   xmlns:cc="http://creativecommons.org/ns#"
   xmlns:rdf="http://www.w3.org/1999/02/22-rdf-syntax-ns#"
   xmlns:svg="http://www.w3.org/2000/svg"
   xmlns="http://www.w3.org/2000/svg"
   xmlns:sodipodi="http://sodipodi.sourceforge.net/DTD/sodipodi-0.dtd"
   xmlns:inkscape="http://www.inkscape.org/namespaces/inkscape"
   version="1.1"
   id="Слой_1"
   x="0px"
   y="0px"
   width="145.51601"
   height="135.03192"
   viewBox="0 0 145.51601 135.03192"
   enable-background="new 0 0 1200 150"
   xml:space="preserve"
   sodipodi:docname="4.svg"
   inkscape:version="0.92.4 (5da689c313, 2019-01-14)"><metadata
   id="metadata2341"><rdf:RDF><cc:Work
       rdf:about=""><dc:format>image/svg+xml</dc:format><dc:type
         rdf:resource="http://purl.org/dc/dcmitype/StillImage" /><dc:title></dc:title></cc:Work></rdf:RDF></metadata><defs
   id="defs2339" /><sodipodi:namedview
   pagecolor="#ffffff"
   bordercolor="#666666"
   borderopacity="1"
   objecttolerance="10"
   gridtolerance="10"
   guidetolerance="10"
   inkscape:pageopacity="0"
   inkscape:pageshadow="2"
   inkscape:window-width="1920"
   inkscape:window-height="1017"
   id="namedview2337"
   showgrid="false"
   inkscape:zoom="0.66939442"
   inkscape:cx="-1.3949048"
   inkscape:cy="-120.28925"
   inkscape:window-x="-8"
   inkscape:window-y="-8"
   inkscape:window-maximized="1"
   inkscape:current-layer="Слой_1"
   fit-margin-top="0"
   fit-margin-left="0"
   fit-margin-right="0"
   fit-margin-bottom="0" />






<g
   id="g2024"
   transform="translate(-601.639,-8.0489545)">
	<path
   d="m 637.048,98.979 c 0.385,0.346 0.764,0.698 1.137,1.052 -0.374,-0.355 -0.753,-0.706 -1.137,-1.052 z"
   id="path1734"
   inkscape:connector-curvature="0"
   style="fill:#565f6b" />
	<path
   d="m 650.587,112.184 c 0.05,0.032 0.1,0.065 0.15,0.096 -0.05,-0.03 -0.1,-0.064 -0.15,-0.096 z"
   id="path1736"
   inkscape:connector-curvature="0"
   style="fill:#565f6b" />
	<path
   d="m 638.215,100.06 c 0.374,0.356 0.743,0.715 1.107,1.077 -0.364,-0.362 -0.732,-0.721 -1.107,-1.077 z"
   id="path1738"
   inkscape:connector-curvature="0"
   style="fill:#565f6b" />
	<path
   d="m 633.316,95.966 c 0.429,0.304 0.85,0.619 1.265,0.942 -0.415,-0.323 -0.836,-0.638 -1.265,-0.942 z"
   id="path1740"
   inkscape:connector-curvature="0"
   style="fill:#565f6b" />
	<path
   d="m 635.843,97.93 c 0.398,0.335 0.789,0.677 1.176,1.024 -0.386,-0.347 -0.778,-0.689 -1.176,-1.024 z"
   id="path1742"
   inkscape:connector-curvature="0"
   style="fill:#565f6b" />
	<path
   d="m 650.038,111.813 c 0.059,0.042 0.118,0.084 0.177,0.124 -0.059,-0.04 -0.118,-0.082 -0.177,-0.124 z"
   id="path1744"
   inkscape:connector-curvature="0"
   style="fill:#565f6b" />
	<path
   d="m 639.347,101.161 c 0.365,0.363 0.725,0.728 1.081,1.094 -0.356,-0.365 -0.716,-0.73 -1.081,-1.094 z"
   id="path1746"
   inkscape:connector-curvature="0"
   style="fill:#565f6b" />
	<path
   d="m 649.506,111.417 c 0.055,0.043 0.109,0.082 0.163,0.124 -0.054,-0.042 -0.108,-0.082 -0.163,-0.124 z"
   id="path1748"
   inkscape:connector-curvature="0"
   style="fill:#565f6b" />
	<path
   d="m 634.6,96.922 c 0.413,0.321 0.818,0.651 1.218,0.987 -0.4,-0.336 -0.805,-0.666 -1.218,-0.987 z"
   id="path1750"
   inkscape:connector-curvature="0"
   style="fill:#565f6b" />
	<path
   d="m 654.376,113.695 c 0.039,0.006 0.078,0.012 0.117,0.018 -0.04,-0.006 -0.078,-0.012 -0.117,-0.018 z"
   id="path1752"
   inkscape:connector-curvature="0"
   style="fill:#565f6b" />
	<path
   d="m 656.353,113.752 c 0.026,-0.003 0.051,-0.005 0.077,-0.008 -0.026,0.003 -0.052,0.006 -0.077,0.008 z"
   id="path1754"
   inkscape:connector-curvature="0"
   style="fill:#565f6b" />
	<path
   d="m 653.891,113.605 c 0.036,0.008 0.073,0.015 0.109,0.022 -0.036,-0.008 -0.073,-0.014 -0.109,-0.022 z"
   id="path1756"
   inkscape:connector-curvature="0"
   style="fill:#565f6b" />
	<path
   d="m 654.892,113.758 c 0.022,0.002 0.044,0.005 0.066,0.007 -0.022,-0.002 -0.044,-0.005 -0.066,-0.007 z"
   id="path1758"
   inkscape:connector-curvature="0"
   style="fill:#565f6b" />
	<path
   d="m 651.25,112.584 c 0.004,0.002 0.008,0.004 0.012,0.007 -0.004,-0.003 -0.008,-0.005 -0.012,-0.007 z"
   id="path1760"
   inkscape:connector-curvature="0"
   style="fill:#565f6b" />
	<path
   d="m 655.895,113.784 c 0.024,-0.001 0.047,-0.003 0.071,-0.004 -0.024,0.002 -0.048,0.003 -0.071,0.004 z"
   id="path1762"
   inkscape:connector-curvature="0"
   style="fill:#565f6b" />
	<path
   d="m 631.488,130.812 c -0.468,-0.19 -0.928,-0.39 -1.384,-0.596 0.456,0.206 0.916,0.406 1.384,0.596 z"
   id="path1764"
   inkscape:connector-curvature="0"
   style="fill:#565f6b" />
	<path
   d="m 651.757,112.848 c 0.048,0.023 0.095,0.045 0.142,0.067 -0.047,-0.022 -0.095,-0.044 -0.142,-0.067 z"
   id="path1766"
   inkscape:connector-curvature="0"
   style="fill:#565f6b" />
	<path
   d="m 652.798,113.289 c 0.038,0.014 0.076,0.028 0.114,0.041 -0.038,-0.013 -0.076,-0.027 -0.114,-0.041 z"
   id="path1768"
   inkscape:connector-curvature="0"
   style="fill:#565f6b" />
	<path
   d="m 656.851,113.688 c 0.005,-0.001 0.009,-0.001 0.014,-0.002 -0.005,0 -0.009,10e-4 -0.014,0.002 z"
   id="path1770"
   inkscape:connector-curvature="0"
   style="fill:#565f6b" />
	<path
   d="m 652.266,113.081 c 0.051,0.022 0.101,0.043 0.152,0.063 -0.051,-0.02 -0.101,-0.042 -0.152,-0.063 z"
   id="path1772"
   inkscape:connector-curvature="0"
   style="fill:#565f6b" />
	<path
   d="m 610.198,93.321 c 0.374,-0.15 0.746,-0.292 1.113,-0.424 -0.367,0.132 -0.738,0.273 -1.113,0.424 z"
   id="path1774"
   inkscape:connector-curvature="0"
   style="fill:#565f6b" />
	<path
   d="m 606.151,95.235 c 0.139,-0.075 0.277,-0.149 0.415,-0.222 -0.138,0.073 -0.276,0.147 -0.415,0.222 z"
   id="path1776"
   inkscape:connector-curvature="0"
   style="fill:#565f6b" />
	<path
   d="m 602.708,97.298 c 0.093,-0.061 0.185,-0.121 0.278,-0.18 -0.092,0.06 -0.185,0.12 -0.278,0.18 z"
   id="path1778"
   inkscape:connector-curvature="0"
   style="fill:#565f6b" />
	<path
   d="m 631.989,95.072 c 0.446,0.284 0.884,0.58 1.315,0.886 -0.431,-0.306 -0.869,-0.602 -1.315,-0.886 z"
   id="path1780"
   inkscape:connector-curvature="0"
   style="fill:#565f6b" />
	<path
   d="m 603.976,96.493 c 0.04,-0.025 0.081,-0.049 0.121,-0.074 -0.04,0.025 -0.08,0.049 -0.121,0.074 z"
   id="path1782"
   inkscape:connector-curvature="0"
   style="fill:#565f6b" />
	<path
   d="m 605.029,95.866 c 0.114,-0.066 0.227,-0.131 0.34,-0.195 -0.113,0.064 -0.226,0.129 -0.34,0.195 z"
   id="path1784"
   inkscape:connector-curvature="0"
   style="fill:#565f6b" />
	<path
   d="m 607.248,94.66 c 0.148,-0.075 0.296,-0.149 0.444,-0.221 -0.148,0.072 -0.296,0.146 -0.444,0.221 z"
   id="path1786"
   inkscape:connector-curvature="0"
   style="fill:#565f6b" />
	<path
   d="m 609.381,93.66 c 0.187,-0.08 0.373,-0.159 0.558,-0.235 -0.186,0.076 -0.371,0.154 -0.558,0.235 z"
   id="path1788"
   inkscape:connector-curvature="0"
   style="fill:#565f6b" />
	<path
   d="m 611.447,92.847 c 0.216,-0.076 0.43,-0.15 0.644,-0.22 -0.213,0.07 -0.428,0.144 -0.644,0.22 z"
   id="path1790"
   inkscape:connector-curvature="0"
   style="fill:#565f6b" />
	<path
   d="m 659.789,112.635 c -0.765,0.427 -1.59,0.765 -2.471,0.963 0.657,1.079 1.445,2.19 2.388,3.226 -0.052,-1.35 -0.02,-2.751 0.083,-4.189 z"
   id="path1792"
   inkscape:connector-curvature="0"
   style="fill:#565f6b" />
	<path
   d="m 631.988,95.071 c -5.04,-3.212 -11.034,-4.926 -18.523,-2.86 -2.061,4.279 -4.71,10.551 -6.081,16.878 -3.895,-6.168 -5.744,-11.077 -5.744,-11.077 v 0 c 0,0 7.03,18.715 22.662,29.003 -0.444,-0.292 -0.881,-0.592 -1.312,-0.897 -0.1,-9.404 1.493,-22.887 8.998,-31.047 z"
   id="path1794"
   inkscape:connector-curvature="0"
   style="fill:#565f6b" />
	<path
   d="m 648.706,110.751 c -2.566,-2.24 -5.245,-5.374 -8.258,-8.476 0.36,0.37 0.715,0.741 1.066,1.111 -2.399,7.474 -5.302,20.344 -0.874,29.66 5.182,0.323 9.778,-1.076 13.73,-3.297 -2.652,-3.495 -8.02,-10.988 -5.664,-18.998 z"
   id="path1796"
   inkscape:connector-curvature="0"
   style="fill:#565f6b" />
	<path
   d="m 608.213,94.188 c 0.261,-0.123 0.521,-0.243 0.779,-0.357 -0.258,0.115 -0.517,0.234 -0.779,0.357 z"
   id="path1798"
   inkscape:connector-curvature="0"
   style="fill:#565f6b" />
	<path
   d="m 634.671,131.944 c -0.486,-0.149 -0.964,-0.31 -1.438,-0.476 0.475,0.167 0.952,0.328 1.438,0.476 z"
   id="path1800"
   inkscape:connector-curvature="0"
   style="fill:#565f6b" />
	<path
   d="m 635.918,132.292 c -0.1,-0.026 -0.201,-0.051 -0.301,-0.078 0.101,0.027 0.201,0.052 0.301,0.078 z"
   id="path1802"
   inkscape:connector-curvature="0"
   style="fill:#565f6b" />
	<path
   d="m 632.9,131.35 c -0.472,-0.171 -0.941,-0.347 -1.402,-0.534 0.461,0.187 0.929,0.363 1.402,0.534 z"
   id="path1804"
   inkscape:connector-curvature="0"
   style="fill:#565f6b" />
	<path
   d="m 627.003,128.654 c -0.926,-0.517 -1.826,-1.064 -2.698,-1.638 0.872,0.574 1.772,1.122 2.698,1.638 z"
   id="path1806"
   inkscape:connector-curvature="0"
   style="fill:#565f6b" />
	<path
   d="m 612.151,92.608 c 0.441,-0.144 0.877,-0.276 1.308,-0.395 -0.432,0.118 -0.867,0.25 -1.308,0.395 z"
   id="path1808"
   inkscape:connector-curvature="0"
   style="fill:#565f6b" />
	<path
   d="m 636.898,132.525 c -0.109,-0.023 -0.218,-0.05 -0.327,-0.075 0.109,0.025 0.218,0.051 0.327,0.075 z"
   id="path1810"
   inkscape:connector-curvature="0"
   style="fill:#565f6b" />
	<path
   d="m 629.861,130.106 c -0.938,-0.431 -1.852,-0.894 -2.741,-1.387 0.889,0.493 1.802,0.956 2.741,1.387 z"
   id="path1812"
   inkscape:connector-curvature="0"
   style="fill:#565f6b" />
	<path
   d="m 639.114,132.902 c -0.174,-0.022 -0.349,-0.046 -0.525,-0.072 0.176,0.026 0.351,0.05 0.525,0.072 z"
   id="path1814"
   inkscape:connector-curvature="0"
   style="fill:#565f6b" />
	<path
   d="m 640.624,133.045 c -0.409,-0.026 -0.822,-0.064 -1.238,-0.111 0.416,0.047 0.829,0.086 1.238,0.111 z"
   id="path1816"
   inkscape:connector-curvature="0"
   style="fill:#565f6b" />
	<path
   d="m 638.178,132.766 c -0.15,-0.025 -0.299,-0.048 -0.45,-0.075 0.151,0.027 0.3,0.05 0.45,0.075 z"
   id="path1818"
   inkscape:connector-curvature="0"
   style="fill:#565f6b" />
	<path
   d="m 613.465,92.211 v 0 c -0.002,0.001 -0.004,0.001 -0.006,0.002 -0.431,0.119 -0.867,0.251 -1.308,0.395 -0.02,0.007 -0.04,0.013 -0.06,0.019 -0.213,0.07 -0.428,0.144 -0.644,0.22 -0.045,0.016 -0.091,0.033 -0.136,0.049 -0.367,0.132 -0.739,0.274 -1.113,0.424 -0.087,0.035 -0.173,0.069 -0.26,0.104 -0.185,0.076 -0.371,0.154 -0.558,0.235 -0.129,0.055 -0.259,0.114 -0.388,0.171 -0.258,0.115 -0.518,0.234 -0.779,0.357 -0.173,0.082 -0.347,0.165 -0.522,0.25 -0.147,0.072 -0.295,0.146 -0.444,0.221 -0.226,0.114 -0.453,0.232 -0.682,0.353 -0.138,0.073 -0.276,0.147 -0.415,0.222 -0.259,0.141 -0.52,0.286 -0.782,0.435 -0.113,0.064 -0.226,0.129 -0.34,0.195 -0.309,0.179 -0.619,0.362 -0.932,0.553 -0.04,0.025 -0.081,0.049 -0.121,0.074 -0.327,0.201 -0.658,0.41 -0.99,0.625 -0.092,0.06 -0.185,0.12 -0.278,0.18 -0.354,0.231 -0.709,0.467 -1.068,0.713 v 0 c 0,0 1.849,4.91 5.744,11.077 1.372,-6.323 4.021,-12.595 6.082,-16.874 z"
   id="path1820"
   inkscape:connector-curvature="0"
   style="fill:#2b2f35" />
	<path
   d="m 661.085,123.985 c -0.85,-2.097 -1.276,-4.527 -1.378,-7.162 -0.942,-1.035 -1.73,-2.146 -2.388,-3.226 v 0 c -0.15,0.033 -0.301,0.063 -0.454,0.088 -0.005,0.001 -0.009,0.001 -0.014,0.002 -0.139,0.023 -0.28,0.041 -0.422,0.057 -0.026,0.003 -0.051,0.005 -0.077,0.008 -0.128,0.013 -0.257,0.022 -0.388,0.028 -0.023,0.001 -0.047,0.003 -0.071,0.004 -0.307,0.012 -0.619,0.006 -0.937,-0.019 -0.022,-0.002 -0.044,-0.005 -0.066,-0.007 -0.132,-0.012 -0.266,-0.027 -0.4,-0.046 -0.039,-0.005 -0.078,-0.011 -0.117,-0.018 -0.125,-0.019 -0.25,-0.042 -0.376,-0.068 -0.036,-0.007 -0.072,-0.014 -0.109,-0.022 -0.322,-0.07 -0.648,-0.161 -0.979,-0.274 -0.038,-0.013 -0.076,-0.028 -0.114,-0.041 -0.126,-0.045 -0.253,-0.093 -0.38,-0.145 -0.051,-0.02 -0.101,-0.042 -0.152,-0.063 -0.122,-0.052 -0.244,-0.107 -0.367,-0.165 -0.047,-0.022 -0.095,-0.044 -0.142,-0.067 -0.164,-0.08 -0.329,-0.165 -0.494,-0.257 -0.004,-0.002 -0.008,-0.004 -0.012,-0.007 -0.17,-0.095 -0.341,-0.197 -0.513,-0.304 -0.05,-0.031 -0.1,-0.064 -0.15,-0.096 -0.123,-0.079 -0.247,-0.161 -0.372,-0.247 -0.059,-0.041 -0.118,-0.082 -0.177,-0.124 -0.122,-0.087 -0.246,-0.178 -0.369,-0.272 -0.054,-0.041 -0.108,-0.081 -0.163,-0.124 -0.176,-0.137 -0.352,-0.28 -0.53,-0.431 -0.09,-0.076 -0.18,-0.156 -0.27,-0.235 v 0 c -2.356,8.01 3.012,15.502 5.663,18.998 v 0 0 c 2.341,-1.316 4.449,-2.921 6.325,-4.624 0.143,-0.421 0.275,-0.804 0.393,-1.141 z"
   id="path1822"
   inkscape:connector-curvature="0"
   style="fill:#2b2f35" />
	<path
   d="m 641.513,103.387 c -0.351,-0.37 -0.706,-0.741 -1.066,-1.111 -0.007,-0.007 -0.013,-0.013 -0.02,-0.02 -0.355,-0.366 -0.716,-0.731 -1.081,-1.094 -0.008,-0.008 -0.017,-0.016 -0.025,-0.025 -0.364,-0.361 -0.733,-0.721 -1.107,-1.077 -0.01,-0.01 -0.02,-0.019 -0.03,-0.029 -0.374,-0.355 -0.753,-0.706 -1.137,-1.052 -0.009,-0.009 -0.019,-0.017 -0.029,-0.025 -0.386,-0.347 -0.778,-0.689 -1.176,-1.024 -0.008,-0.007 -0.017,-0.014 -0.025,-0.021 -0.4,-0.336 -0.806,-0.666 -1.218,-0.987 -0.006,-0.005 -0.013,-0.009 -0.019,-0.014 -0.415,-0.323 -0.837,-0.637 -1.265,-0.942 -0.004,-0.003 -0.008,-0.006 -0.012,-0.008 -0.431,-0.306 -0.869,-0.602 -1.315,-0.886 0,0 -0.001,-0.001 -0.001,-0.001 v 0 c -7.505,8.16 -9.097,21.643 -8.997,31.047 0.43,0.305 0.867,0.604 1.312,0.897 0,0 0.002,0.001 0.002,0.002 0.872,0.574 1.772,1.121 2.698,1.638 0.039,0.022 0.078,0.043 0.117,0.065 0.889,0.493 1.802,0.956 2.741,1.387 0.081,0.037 0.162,0.074 0.243,0.11 0.456,0.206 0.916,0.406 1.384,0.596 0.003,0.001 0.006,0.003 0.01,0.004 0.461,0.187 0.93,0.363 1.402,0.534 0.111,0.04 0.222,0.079 0.334,0.119 0.474,0.166 0.952,0.327 1.438,0.476 0.317,0.097 0.632,0.186 0.946,0.27 0.101,0.027 0.201,0.053 0.301,0.078 0.218,0.056 0.436,0.108 0.652,0.158 0.109,0.025 0.219,0.051 0.327,0.075 0.278,0.06 0.555,0.116 0.83,0.166 0.151,0.027 0.3,0.051 0.45,0.075 0.137,0.022 0.275,0.045 0.411,0.065 0.176,0.026 0.351,0.05 0.525,0.072 0.091,0.011 0.182,0.021 0.272,0.031 0.416,0.047 0.829,0.086 1.238,0.111 0.005,0 0.01,0.001 0.015,0.001 v 0 c -4.427,-9.317 -1.524,-22.188 0.875,-29.661 z"
   id="path1824"
   inkscape:connector-curvature="0"
   style="fill:#2b2f35" />
	<path
   d="m 706.729,136.566 c 2.215,1.963 10.841,9.085 15.725,5.541 4.003,-2.905 0.506,-7.763 -1.856,-10.336 -2.082,2.354 -7.312,3.999 -13.869,4.795 z"
   id="path1826"
   inkscape:connector-curvature="0"
   style="fill:#565f6b" />
	<path
   d="m 661.672,125.258 c -0.216,-0.408 -0.409,-0.834 -0.587,-1.273 -0.118,0.337 -0.249,0.719 -0.39,1.14 -1.877,1.703 -3.984,3.309 -6.325,4.624 2.336,-1.313 4.447,-2.91 6.32,-4.61 -1.726,5.162 -4.784,15.896 -0.211,15.497 3.347,-0.292 7.246,-4.058 10.024,-8.205 -4.087,-1.816 -7.253,-4.189 -8.831,-7.173 z"
   id="path1828"
   inkscape:connector-curvature="0"
   style="fill:#565f6b" />
	<path
   d="m 708.574,128.651 c 2.831,-7.069 3.966,-32.227 -16.475,-33.149 -17.327,-0.781 -23.384,22.792 -16.852,31.859 6.532,9.066 30.496,8.359 33.327,1.29 z"
   id="path1830"
   inkscape:connector-curvature="0"
   style="fill:#ffe3a2" />
	<path
   d="m 668.394,91.566 c 2.866,-0.98 2.386,-9.02 1.143,-11.056 -0.086,-0.141 -0.205,-0.294 -0.347,-0.456 -1.919,-2.177 -8.628,-5.99 -10.901,-4.449 -1.924,1.304 2.417,11.497 6.74,14.946 1.163,0.929 2.326,1.371 3.365,1.015 z"
   id="path1832"
   inkscape:connector-curvature="0"
   style="fill:#565f6b" />
	<path
   d="m 718.155,102.847 c 0.498,1.319 3.004,3.902 5.529,5.552 1.747,1.142 3.504,1.838 4.611,1.359 2.707,-1.173 -1.84,-18.296 -6.963,-17.562 -0.595,0.085 -1.111,0.472 -1.551,1.048 -1.778,2.33 -2.302,7.814 -1.626,9.603 z"
   id="path1834"
   inkscape:connector-curvature="0"
   style="fill:#565f6b" />
	<path
   d="m 739.153,29.538 c 3.127,1.086 -1.672,11.366 -3.153,14.371 0.882,1.225 1.696,2.461 2.445,3.699 l 0.003,0.002 c 0,0 10.527,-22.878 4.406,-24.183 -4.711,-1.004 -13.45,6.323 -17.227,9.753 1.105,0.846 2.154,1.722 3.15,2.624 1.329,-1.426 7.143,-7.39 10.376,-6.266 z"
   id="path1836"
   inkscape:connector-curvature="0"
   style="fill:#565f6b" />
	<path
   d="m 674.96,14.63 c 3.266,-0.028 6.182,8.903 6.988,11.601 1.06,-0.423 2.132,-0.813 3.216,-1.164 -1.807,-4.545 -7.129,-16.679 -12.575,-17.013 -6.702,-0.412 -2.609,24.545 -2.605,24.568 1.212,-0.808 2.454,-1.589 3.723,-2.331 -0.51,-3.496 -2.04,-15.633 1.253,-15.661 z"
   id="path1838"
   inkscape:connector-curvature="0"
   style="fill:#565f6b" />
	<path
   d="m 741.892,54.222 c 0.887,1.993 1.627,3.935 2.243,5.775 -0.616,-1.841 -1.355,-3.782 -2.243,-5.775 z"
   id="path1840"
   inkscape:connector-curvature="0"
   style="fill:#677686" />
	<path
   d="m 655.919,44.228 c 0.216,-0.215 0.435,-0.43 0.657,-0.646 -0.222,0.216 -0.441,0.431 -0.657,0.646 z"
   id="path1842"
   inkscape:connector-curvature="0"
   style="fill:#677686" />
	<path
   d="m 655.174,44.974 c 0.208,-0.21 0.419,-0.422 0.632,-0.634 -0.213,0.212 -0.424,0.423 -0.632,0.634 z"
   id="path1844"
   inkscape:connector-curvature="0"
   style="fill:#677686" />
	<path
   d="m 654.446,45.717 c 0.199,-0.205 0.4,-0.411 0.604,-0.618 -0.203,0.207 -0.405,0.413 -0.604,0.618 z"
   id="path1846"
   inkscape:connector-curvature="0"
   style="fill:#677686" />
	<path
   d="m 663.879,66.758 v 0 c 0.076,0.078 0.152,0.161 0.228,0.24 l -10e-4,-0.001 c -0.076,-0.079 -0.151,-0.161 -0.227,-0.239 z"
   id="path1848"
   inkscape:connector-curvature="0"
   style="fill:#677686" />
	<path
   d="m 662.663,65.559 c -10e-4,-10e-4 -10e-4,-10e-4 -10e-4,-10e-4 0.032,0.03 0.065,0.059 0.097,0.091 v 0 c -0.032,-0.032 -0.064,-0.06 -0.096,-0.09 z"
   id="path1850"
   inkscape:connector-curvature="0"
   style="fill:#677686" />
	<path
   d="m 747.137,73.865 c 0,0 0,0.002 0,0.002 0,-0.001 0,-0.002 0,-0.002 z"
   id="path1852"
   inkscape:connector-curvature="0"
   style="fill:#677686" />
	<path
   d="m 660.28,63.461 v 0 c 0.061,0.05 0.123,0.102 0.185,0.153 0,0 -10e-4,-10e-4 -10e-4,-10e-4 -0.061,-0.051 -0.123,-0.102 -0.184,-0.152 z"
   id="path1854"
   inkscape:connector-curvature="0"
   style="fill:#677686" />
	<path
   d="m 661.402,64.411 c -0.001,-0.001 -0.001,-0.001 0,0 0.078,0.069 0.158,0.137 0.237,0.208 l -10e-4,-0.001 c -0.079,-0.07 -0.157,-0.138 -0.236,-0.207 z"
   id="path1856"
   inkscape:connector-curvature="0"
   style="fill:#677686" />
	<path
   d="m 653.741,46.452 c 0.191,-0.201 0.385,-0.403 0.582,-0.607 -0.196,0.203 -0.39,0.405 -0.582,0.607 z"
   id="path1858"
   inkscape:connector-curvature="0"
   style="fill:#677686" />
	<path
   d="m 656.69,43.47 c 0.224,-0.218 0.45,-0.436 0.679,-0.655 -0.228,0.219 -0.455,0.437 -0.679,0.655 z"
   id="path1860"
   inkscape:connector-curvature="0"
   style="fill:#677686" />
	<path
   d="m 658.29,41.947 c 0.24,-0.224 0.482,-0.447 0.727,-0.671 -0.245,0.224 -0.488,0.447 -0.727,0.671 z"
   id="path1862"
   inkscape:connector-curvature="0"
   style="fill:#677686" />
	<path
   d="m 657.478,42.712 c 0.232,-0.221 0.466,-0.442 0.703,-0.663 -0.237,0.221 -0.471,0.442 -0.703,0.663 z"
   id="path1864"
   inkscape:connector-curvature="0"
   style="fill:#677686" />
	<path
   d="m 668.59,72.423 c -0.003,-0.005 -0.007,-0.01 -0.011,-0.014 0.192,0.255 0.384,0.511 0.571,0.759 -0.013,-0.018 -0.027,-0.035 -0.04,-0.053 -0.17,-0.227 -0.345,-0.46 -0.52,-0.692 z"
   id="path1866"
   inkscape:connector-curvature="0"
   style="fill:#677686" />
	<path
   d="m 659.117,41.184 c 0.248,-0.226 0.497,-0.452 0.75,-0.678 -0.253,0.226 -0.503,0.452 -0.75,0.678 z"
   id="path1868"
   inkscape:connector-curvature="0"
   style="fill:#677686" />
	<path
   d="m 653.061,47.173 c 0.182,-0.195 0.367,-0.392 0.554,-0.589 -0.187,0.198 -0.372,0.394 -0.554,0.589 z"
   id="path1870"
   inkscape:connector-curvature="0"
   style="fill:#677686" />
	<path
   d="m 664.962,67.916 c 0,0 -10e-4,-10e-4 -10e-4,-10e-4 0.115,0.127 0.229,0.256 0.344,0.386 0,0 -10e-4,-0.001 -10e-4,-0.001 -0.114,-0.13 -0.227,-0.258 -0.342,-0.384 z"
   id="path1872"
   inkscape:connector-curvature="0"
   style="fill:#677686" />
	<path
   d="m 666.078,69.199 c -10e-4,-0.001 -10e-4,-0.001 -0.002,-0.002 0.108,0.129 0.216,0.255 0.323,0.386 0,0 0,-0.001 0,-0.001 -0.107,-0.129 -0.214,-0.255 -0.321,-0.383 z"
   id="path1874"
   inkscape:connector-curvature="0"
   style="fill:#677686" />
	<path
   d="m 667.451,70.914 c 10e-4,0.002 0.003,0.003 0.004,0.005 0.012,0.016 0.024,0.032 0.036,0.048 -0.013,-0.017 -0.024,-0.032 -0.036,-0.048 -0.001,-0.002 -0.003,-0.003 -0.004,-0.005 z"
   id="path1876"
   inkscape:connector-curvature="0"
   style="fill:#677686" />
	<path
   d="m 646.413,55.123 c 0.068,-0.093 0.14,-0.191 0.211,-0.288 -0.071,0.096 -0.144,0.195 -0.211,0.288 z"
   id="path1878"
   inkscape:connector-curvature="0"
   style="fill:#677686" />
	<path
   d="m 646.768,54.64 c 0.071,-0.096 0.147,-0.196 0.222,-0.295 -0.075,0.099 -0.151,0.199 -0.222,0.295 z"
   id="path1880"
   inkscape:connector-curvature="0"
   style="fill:#677686" />
	<path
   d="m 652.402,47.886 c 0.172,-0.188 0.347,-0.377 0.524,-0.567 -0.177,0.19 -0.352,0.379 -0.524,0.567 z"
   id="path1882"
   inkscape:connector-curvature="0"
   style="fill:#677686" />
	<path
   d="m 647.15,54.131 c 0.08,-0.105 0.164,-0.214 0.247,-0.322 -0.083,0.108 -0.167,0.217 -0.247,0.322 z"
   id="path1884"
   inkscape:connector-curvature="0"
   style="fill:#677686" />
	<path
   d="m 646.087,55.577 c 0.068,-0.096 0.141,-0.197 0.212,-0.296 -0.071,0.099 -0.144,0.2 -0.212,0.296 z"
   id="path1886"
   inkscape:connector-curvature="0"
   style="fill:#677686" />
	<path
   d="m 688.377,34.358 c 13.348,5.734 0.543,34.705 0.543,34.705 6.821,-2.287 16.822,2.832 16.068,4.213 -0.095,0.173 -0.244,0.405 -0.441,0.676 0.407,-0.376 0.805,-0.787 1.185,-1.239 0,0 -8.712,-20.656 1.97,-31.689 8.209,-8.479 23.772,1.914 34.178,13.168 -0.961,-2.156 -2.096,-4.372 -3.434,-6.585 -0.749,-1.238 -1.563,-2.474 -2.445,-3.699 1.481,-3.004 6.28,-13.284 3.153,-14.371 -3.233,-1.123 -9.047,4.84 -10.377,6.266 -0.995,-0.901 -2.044,-1.777 -3.15,-2.624 -4.923,-3.769 -10.962,-6.937 -18.381,-8.977 -7.581,-2.084 -15.066,-1.41 -22.082,0.863 -1.084,0.351 -2.156,0.741 -3.216,1.164 -0.806,-2.698 -3.721,-11.629 -6.988,-11.601 -3.293,0.028 -1.762,12.166 -1.253,15.66 -1.27,0.743 -2.511,1.523 -3.723,2.331 -0.895,0.597 -1.773,1.208 -2.634,1.832 6.619,-1.812 14.633,-2.839 21.027,-0.093 z"
   id="path1888"
   inkscape:connector-curvature="0"
   style="fill:#677686" />
	<path
   d="m 647.559,53.598 c 0.088,-0.113 0.18,-0.23 0.271,-0.346 -0.091,0.116 -0.183,0.233 -0.271,0.346 z"
   id="path1890"
   inkscape:connector-curvature="0"
   style="fill:#677686" />
	<path
   d="m 689.553,71.252 c -0.451,-1.272 -0.633,-2.189 -0.633,-2.189 0,0 0.058,0.898 0.633,2.189 z"
   id="path1892"
   inkscape:connector-curvature="0"
   style="fill:#677686" />
	<path
   d="m 657.999,61.725 c -6.6,-4.667 -12.204,-5.729 -12.204,-5.729 0.077,-0.112 0.16,-0.23 0.244,-0.349 -0.084,0.119 -0.167,0.237 -0.244,0.349 0,0 5.605,1.062 12.206,5.73 -10e-4,0 -0.002,0 -0.002,-10e-4 z"
   id="path1894"
   inkscape:connector-curvature="0"
   style="fill:#677686" />
	<path
   d="m 659.968,40.416 c 0.255,-0.227 0.512,-0.455 0.772,-0.682 -0.26,0.227 -0.517,0.454 -0.772,0.682 z"
   id="path1896"
   inkscape:connector-curvature="0"
   style="fill:#677686" />
	<path
   d="m 650.563,49.947 c 0.146,-0.169 0.296,-0.34 0.448,-0.512 -0.152,0.173 -0.301,0.344 -0.448,0.512 z"
   id="path1898"
   inkscape:connector-curvature="0"
   style="fill:#677686" />
	<path
   d="m 650,50.602 c 0.137,-0.16 0.277,-0.323 0.418,-0.487 -0.141,0.164 -0.281,0.327 -0.418,0.487 z"
   id="path1900"
   inkscape:connector-curvature="0"
   style="fill:#677686" />
	<path
   d="m 647.996,53.04 c 0.096,-0.122 0.197,-0.247 0.297,-0.372 -0.1,0.124 -0.2,0.25 -0.297,0.372 z"
   id="path1902"
   inkscape:connector-curvature="0"
   style="fill:#677686" />
	<path
   d="m 651.764,48.589 c 0.164,-0.182 0.332,-0.367 0.501,-0.552 -0.17,0.185 -0.337,0.369 -0.501,0.552 z"
   id="path1904"
   inkscape:connector-curvature="0"
   style="fill:#677686" />
	<path
   d="m 651.152,49.275 c 0.156,-0.176 0.315,-0.355 0.476,-0.534 -0.161,0.179 -0.32,0.357 -0.476,0.534 z"
   id="path1906"
   inkscape:connector-curvature="0"
   style="fill:#677686" />
	<path
   d="m 649.46,51.242 c 0.127,-0.152 0.257,-0.306 0.389,-0.461 -0.131,0.155 -0.262,0.309 -0.389,0.461 z"
   id="path1908"
   inkscape:connector-curvature="0"
   style="fill:#677686" />
	<path
   d="m 648.459,52.461 c 0.106,-0.131 0.216,-0.266 0.325,-0.4 -0.11,0.134 -0.219,0.268 -0.325,0.4 z"
   id="path1910"
   inkscape:connector-curvature="0"
   style="fill:#677686" />
	<path
   d="m 648.947,51.86 c 0.117,-0.142 0.238,-0.288 0.359,-0.433 -0.121,0.145 -0.242,0.291 -0.359,0.433 z"
   id="path1912"
   inkscape:connector-curvature="0"
   style="fill:#677686" />
	<path
   d="m 746.454,68.941 c 0.027,0.148 0.054,0.294 0.079,0.437 -0.025,-0.144 -0.051,-0.289 -0.079,-0.437 z"
   id="path1914"
   inkscape:connector-curvature="0"
   style="fill:#677686" />
	<path
   d="m 745.662,65.27 c 0.048,0.195 0.094,0.387 0.139,0.577 -0.045,-0.19 -0.091,-0.382 -0.139,-0.577 z"
   id="path1916"
   inkscape:connector-curvature="0"
   style="fill:#677686" />
	<path
   d="m 746.326,68.268 c 0.031,0.159 0.061,0.315 0.09,0.468 -0.029,-0.154 -0.059,-0.309 -0.09,-0.468 z"
   id="path1918"
   inkscape:connector-curvature="0"
   style="fill:#677686" />
	<path
   d="m 746.671,70.185 c 0.021,0.128 0.041,0.255 0.061,0.378 -0.019,-0.124 -0.04,-0.25 -0.061,-0.378 z"
   id="path1920"
   inkscape:connector-curvature="0"
   style="fill:#677686" />
	<path
   d="m 746.761,70.752 c 0.018,0.118 0.036,0.234 0.052,0.347 -0.016,-0.113 -0.034,-0.229 -0.052,-0.347 z"
   id="path1922"
   inkscape:connector-curvature="0"
   style="fill:#677686" />
	<path
   d="m 746.183,67.563 c 0.035,0.168 0.069,0.333 0.101,0.495 -0.033,-0.163 -0.066,-0.327 -0.101,-0.495 z"
   id="path1924"
   inkscape:connector-curvature="0"
   style="fill:#677686" />
	<path
   d="m 745.852,66.064 c 0.043,0.184 0.084,0.366 0.124,0.545 -0.04,-0.18 -0.081,-0.361 -0.124,-0.545 z"
   id="path1926"
   inkscape:connector-curvature="0"
   style="fill:#677686" />
	<path
   d="m 746.026,66.83 c 0.039,0.176 0.076,0.349 0.112,0.52 -0.036,-0.171 -0.073,-0.344 -0.112,-0.52 z"
   id="path1928"
   inkscape:connector-curvature="0"
   style="fill:#677686" />
	<path
   d="m 746.841,71.286 c 0.015,0.106 0.03,0.211 0.044,0.312 -0.014,-0.102 -0.029,-0.206 -0.044,-0.312 z"
   id="path1930"
   inkscape:connector-curvature="0"
   style="fill:#677686" />
	<path
   d="m 746.569,69.582 c 0.024,0.138 0.047,0.275 0.07,0.408 -0.022,-0.134 -0.045,-0.27 -0.07,-0.408 z"
   id="path1932"
   inkscape:connector-curvature="0"
   style="fill:#677686" />
	<path
   d="m 660.832,39.654 c 0.264,-0.23 0.53,-0.46 0.799,-0.69 -0.269,0.23 -0.535,0.46 -0.799,0.69 z"
   id="path1934"
   inkscape:connector-curvature="0"
   style="fill:#677686" />
	<path
   d="m 747.09,73.335 c 0.004,0.038 0.008,0.078 0.011,0.114 -0.003,-0.035 -0.007,-0.075 -0.011,-0.114 z"
   id="path1936"
   inkscape:connector-curvature="0"
   style="fill:#677686" />
	<path
   d="m 747.016,72.64 c 0.008,0.068 0.016,0.137 0.023,0.201 -0.007,-0.064 -0.015,-0.133 -0.023,-0.201 z"
   id="path1938"
   inkscape:connector-curvature="0"
   style="fill:#677686" />
	<path
   d="m 747.116,73.616 c 0.002,0.022 0.004,0.047 0.006,0.068 -0.002,-0.021 -0.004,-0.046 -0.006,-0.068 z"
   id="path1940"
   inkscape:connector-curvature="0"
   style="fill:#677686" />
	<path
   d="m 731.119,79.123 c -10e-4,0 -10e-4,10e-4 0,0 0.242,-0.123 0.484,-0.242 0.723,-0.352 10e-4,-0.001 0.002,-0.001 0.003,-0.002 -10e-4,10e-4 -0.002,10e-4 -0.003,10e-4 -0.239,0.111 -0.48,0.23 -0.723,0.353 z"
   id="path1942"
   inkscape:connector-curvature="0"
   style="fill:#677686" />
	<path
   d="m 730.337,79.536 c -10e-4,0.001 -0.002,0.001 -0.003,0.002 0.194,-0.106 0.387,-0.209 0.578,-0.308 l -0.002,10e-4 c -0.189,0.098 -0.38,0.199 -0.573,0.305 z"
   id="path1944"
   inkscape:connector-curvature="0"
   style="fill:#677686" />
	<path
   d="m 746.908,71.773 c 0.013,0.096 0.026,0.191 0.037,0.282 -0.011,-0.091 -0.024,-0.186 -0.037,-0.282 z"
   id="path1946"
   inkscape:connector-curvature="0"
   style="fill:#677686" />
	<path
   d="m 746.967,72.228 c 0.01,0.082 0.02,0.163 0.029,0.24 -0.009,-0.076 -0.019,-0.158 -0.029,-0.24 z"
   id="path1948"
   inkscape:connector-curvature="0"
   style="fill:#677686" />
	<path
   d="m 747.057,73.009 c 0.006,0.054 0.012,0.109 0.017,0.159 -0.005,-0.05 -0.011,-0.105 -0.017,-0.159 z"
   id="path1950"
   inkscape:connector-curvature="0"
   style="fill:#677686" />
	<path
   d="m 664.478,36.628 c 0.296,-0.233 0.594,-0.466 0.894,-0.697 -0.301,0.231 -0.599,0.463 -0.894,0.697 z"
   id="path1952"
   inkscape:connector-curvature="0"
   style="fill:#677686" />
	<path
   d="m 728.603,80.548 c -10e-4,0.001 -0.002,0.001 -0.003,0.002 0.243,-0.149 0.484,-0.295 0.722,-0.436 -0.002,10e-4 -0.005,0.003 -0.007,0.004 -0.235,0.139 -0.472,0.282 -0.712,0.43 z"
   id="path1954"
   inkscape:connector-curvature="0"
   style="fill:#677686" />
	<path
   d="m 665.427,35.888 c 0.305,-0.234 0.613,-0.468 0.923,-0.699 -0.31,0.232 -0.618,0.465 -0.923,0.699 z"
   id="path1956"
   inkscape:connector-curvature="0"
   style="fill:#677686" />
	<path
   d="m 663.541,37.376 c 0.287,-0.233 0.577,-0.465 0.869,-0.696 -0.292,0.231 -0.582,0.463 -0.869,0.696 z"
   id="path1958"
   inkscape:connector-curvature="0"
   style="fill:#677686" />
	<path
   d="m 666.392,35.158 c 0.315,-0.235 0.633,-0.469 0.953,-0.701 -0.32,0.232 -0.638,0.466 -0.953,0.701 z"
   id="path1960"
   inkscape:connector-curvature="0"
   style="fill:#677686" />
	<path
   d="m 662.626,38.127 c 0.278,-0.231 0.557,-0.461 0.84,-0.69 -0.282,0.229 -0.562,0.459 -0.84,0.69 z"
   id="path1962"
   inkscape:connector-curvature="0"
   style="fill:#677686" />
	<path
   d="m 745.456,64.451 c 0.053,0.204 0.104,0.405 0.153,0.605 -0.05,-0.199 -0.1,-0.4 -0.153,-0.605 z"
   id="path1964"
   inkscape:connector-curvature="0"
   style="fill:#677686" />
	<path
   d="m 722.034,84.857 c 2.294,-1.495 4.423,-2.98 6.411,-4.212 -0.001,0.001 -0.003,0.002 -0.004,0.002 -1.987,1.232 -4.114,2.717 -6.407,4.21 z"
   id="path1966"
   inkscape:connector-curvature="0"
   style="fill:#677686" />
	<path
   d="m 661.718,38.891 c 0.271,-0.231 0.544,-0.461 0.819,-0.69 -0.276,0.229 -0.549,0.459 -0.819,0.69 z"
   id="path1968"
   inkscape:connector-curvature="0"
   style="fill:#677686" />
	<path
   d="m 744.987,62.738 c 0.066,0.229 0.129,0.454 0.191,0.678 -0.062,-0.225 -0.125,-0.45 -0.191,-0.678 z"
   id="path1970"
   inkscape:connector-curvature="0"
   style="fill:#677686" />
	<path
   d="m 729.4,80.067 c -10e-4,0 -10e-4,0.001 -0.002,0.001 0.256,-0.151 0.509,-0.295 0.76,-0.435 -10e-4,0 -10e-4,0.001 -10e-4,0.001 -0.25,0.14 -0.502,0.283 -0.757,0.433 z"
   id="path1972"
   inkscape:connector-curvature="0"
   style="fill:#677686" />
	<path
   d="m 744.442,60.937 c 0.082,0.258 0.161,0.513 0.238,0.767 -0.077,-0.254 -0.156,-0.508 -0.238,-0.767 z"
   id="path1974"
   inkscape:connector-curvature="0"
   style="fill:#677686" />
	<path
   d="m 745.23,63.605 c 0.059,0.216 0.115,0.428 0.171,0.639 -0.055,-0.211 -0.112,-0.423 -0.171,-0.639 z"
   id="path1976"
   inkscape:connector-curvature="0"
   style="fill:#677686" />
	<path
   d="m 744.725,61.848 c 0.073,0.242 0.143,0.48 0.212,0.717 -0.069,-0.238 -0.139,-0.476 -0.212,-0.717 z"
   id="path1978"
   inkscape:connector-curvature="0"
   style="fill:#677686" />
	<path
   d="m 732.049,78.678 c 8.382,-3.82 15.106,-4.558 15.106,-4.558 v 0 c -0.002,0 -6.725,0.739 -15.106,4.558 z"
   id="path1980"
   inkscape:connector-curvature="0"
   style="fill:#677686" />
	<path
   d="m 744.139,60.008 c 0.094,0.281 0.184,0.558 0.272,0.834 -0.088,-0.276 -0.178,-0.553 -0.272,-0.834 z"
   id="path1982"
   inkscape:connector-curvature="0"
   style="fill:#677686" />
	<path
   d="m 695.834,91.737 c -15.013,-3.201 -18.318,-7.435 -26.203,-17.93 -0.08,-0.107 -0.164,-0.219 -0.246,-0.327 0.609,0.81 1.19,1.583 1.751,2.322 -0.197,0.405 -0.934,1.938 -1.947,4.252 0.142,0.162 0.261,0.315 0.347,0.456 1.243,2.036 1.723,10.076 -1.143,11.056 -1.039,0.355 -2.202,-0.086 -3.366,-1.015 -2.408,6.777 -4.718,14.876 -5.238,22.083 -0.104,1.438 -0.135,2.84 -0.083,4.189 0.102,2.635 0.528,5.065 1.378,7.162 0.178,0.438 0.371,0.865 0.587,1.273 1.578,2.984 4.744,5.357 8.831,7.173 9.825,4.365 24.974,5.502 36.226,4.136 6.557,-0.796 11.787,-2.441 13.869,-4.795 0.138,-0.156 0.266,-0.314 0.376,-0.475 3.049,-4.502 3.864,-13.657 2.71,-22.897 -2.525,-1.651 -5.031,-4.233 -5.529,-5.552 -0.676,-1.789 -0.151,-7.273 1.627,-9.602 -0.833,-1.954 -1.779,-3.749 -2.835,-5.315 1.047,-0.571 2.065,-1.168 3.051,-1.778 -6.583,4.068 -14.471,7.65 -24.163,5.584 z m -20.588,35.624 c -6.532,-9.067 -0.475,-32.641 16.852,-31.859 20.441,0.922 19.307,26.08 16.475,33.149 -2.83,7.069 -26.794,7.776 -33.327,-1.29 z"
   id="path1984"
   inkscape:connector-curvature="0"
   style="fill:#677686" />
	<path
   d="m 747.137,73.867 c 0,-0.001 0,-0.002 0,-0.002 -0.004,-0.053 -0.009,-0.113 -0.015,-0.182 -0.002,-0.021 -0.004,-0.046 -0.006,-0.068 -0.005,-0.053 -0.009,-0.106 -0.015,-0.167 -0.003,-0.035 -0.007,-0.076 -0.011,-0.114 -0.005,-0.054 -0.01,-0.108 -0.016,-0.167 -0.005,-0.05 -0.011,-0.106 -0.017,-0.159 -0.006,-0.055 -0.011,-0.109 -0.018,-0.168 -0.007,-0.064 -0.015,-0.133 -0.023,-0.201 -0.006,-0.057 -0.013,-0.112 -0.02,-0.171 -0.009,-0.077 -0.019,-0.159 -0.029,-0.24 -0.007,-0.058 -0.014,-0.114 -0.022,-0.174 -0.011,-0.09 -0.024,-0.186 -0.037,-0.282 -0.008,-0.058 -0.015,-0.116 -0.024,-0.176 -0.014,-0.101 -0.029,-0.206 -0.044,-0.312 -0.009,-0.062 -0.018,-0.123 -0.027,-0.187 -0.017,-0.112 -0.034,-0.229 -0.052,-0.347 -0.01,-0.063 -0.019,-0.125 -0.029,-0.19 -0.019,-0.123 -0.04,-0.249 -0.061,-0.378 -0.011,-0.065 -0.021,-0.129 -0.032,-0.195 -0.022,-0.133 -0.046,-0.269 -0.07,-0.408 -0.012,-0.068 -0.024,-0.135 -0.036,-0.204 -0.025,-0.143 -0.052,-0.288 -0.079,-0.437 -0.013,-0.068 -0.025,-0.136 -0.038,-0.205 -0.029,-0.153 -0.059,-0.31 -0.09,-0.468 -0.014,-0.069 -0.028,-0.139 -0.042,-0.21 -0.033,-0.163 -0.066,-0.328 -0.101,-0.495 -0.015,-0.07 -0.03,-0.142 -0.045,-0.213 -0.036,-0.171 -0.073,-0.344 -0.112,-0.52 -0.016,-0.073 -0.033,-0.147 -0.049,-0.221 -0.04,-0.18 -0.081,-0.361 -0.124,-0.545 -0.017,-0.072 -0.034,-0.144 -0.051,-0.216 -0.045,-0.19 -0.091,-0.382 -0.139,-0.577 -0.017,-0.071 -0.036,-0.143 -0.053,-0.214 -0.05,-0.2 -0.1,-0.401 -0.153,-0.605 -0.018,-0.068 -0.036,-0.138 -0.055,-0.207 -0.055,-0.211 -0.112,-0.423 -0.171,-0.639 -0.017,-0.063 -0.035,-0.127 -0.053,-0.19 -0.062,-0.224 -0.125,-0.449 -0.191,-0.678 -0.016,-0.057 -0.034,-0.116 -0.051,-0.173 -0.069,-0.237 -0.139,-0.475 -0.212,-0.717 -0.014,-0.048 -0.03,-0.096 -0.044,-0.144 -0.077,-0.253 -0.156,-0.508 -0.238,-0.767 -0.01,-0.032 -0.021,-0.064 -0.031,-0.095 -0.088,-0.276 -0.178,-0.553 -0.272,-0.834 -10e-4,-0.004 -0.003,-0.008 -0.004,-0.012 -0.616,-1.84 -1.355,-3.781 -2.243,-5.775 -0.004,-0.01 -0.008,-0.02 -0.013,-0.029 v 0 C 731.473,42.934 715.911,32.542 707.701,41.021 c -10.682,11.033 -1.97,31.689 -1.97,31.689 -0.38,0.453 -0.778,0.863 -1.185,1.239 -1.372,1.888 -5.052,5.668 -8.547,4.694 -3.635,-1.014 -5.561,-4.893 -6.447,-7.394 -0.575,-1.291 -0.633,-2.189 -0.633,-2.189 0,0 12.806,-28.971 -0.543,-34.705 -6.393,-2.746 -14.407,-1.719 -21.027,0.095 v 0 c -0.002,10e-4 -0.003,0.002 -0.005,0.003 -0.32,0.232 -0.637,0.466 -0.953,0.701 -0.014,0.01 -0.028,0.021 -0.042,0.031 -0.31,0.232 -0.618,0.465 -0.923,0.699 -0.018,0.014 -0.037,0.028 -0.055,0.042 -0.301,0.231 -0.599,0.464 -0.894,0.697 -0.022,0.018 -0.045,0.035 -0.067,0.053 -0.292,0.231 -0.582,0.463 -0.869,0.696 -0.025,0.02 -0.05,0.04 -0.075,0.06 -0.283,0.229 -0.562,0.459 -0.84,0.69 -0.03,0.025 -0.06,0.049 -0.089,0.074 -0.276,0.23 -0.549,0.46 -0.819,0.69 -0.029,0.024 -0.057,0.049 -0.086,0.073 -0.269,0.23 -0.535,0.46 -0.799,0.69 -0.031,0.027 -0.061,0.053 -0.092,0.08 -0.26,0.227 -0.517,0.455 -0.772,0.682 -0.034,0.03 -0.068,0.06 -0.102,0.09 -0.253,0.226 -0.503,0.452 -0.75,0.678 -0.033,0.03 -0.067,0.061 -0.1,0.091 -0.245,0.224 -0.487,0.448 -0.727,0.671 -0.036,0.034 -0.073,0.068 -0.109,0.102 -0.237,0.222 -0.471,0.443 -0.703,0.663 -0.036,0.034 -0.072,0.069 -0.108,0.103 -0.229,0.219 -0.455,0.437 -0.679,0.655 -0.038,0.037 -0.077,0.075 -0.115,0.112 -0.221,0.216 -0.44,0.431 -0.657,0.646 -0.038,0.037 -0.075,0.075 -0.113,0.112 -0.213,0.212 -0.424,0.423 -0.632,0.634 -0.041,0.042 -0.082,0.084 -0.124,0.125 -0.204,0.207 -0.405,0.413 -0.604,0.618 -0.041,0.043 -0.082,0.085 -0.123,0.127 -0.196,0.203 -0.391,0.406 -0.582,0.607 -0.042,0.044 -0.084,0.088 -0.126,0.133 -0.187,0.198 -0.372,0.394 -0.554,0.589 -0.045,0.049 -0.09,0.097 -0.135,0.145 -0.177,0.19 -0.352,0.379 -0.524,0.567 -0.047,0.051 -0.092,0.101 -0.138,0.151 -0.169,0.185 -0.336,0.369 -0.501,0.552 -0.046,0.051 -0.09,0.101 -0.136,0.152 -0.161,0.179 -0.32,0.358 -0.476,0.534 -0.048,0.054 -0.094,0.107 -0.141,0.161 -0.151,0.172 -0.301,0.343 -0.448,0.512 -0.049,0.056 -0.096,0.112 -0.145,0.168 -0.141,0.164 -0.281,0.326 -0.418,0.487 -0.051,0.06 -0.101,0.119 -0.152,0.179 -0.131,0.155 -0.262,0.309 -0.389,0.461 -0.052,0.062 -0.102,0.123 -0.154,0.185 -0.121,0.146 -0.242,0.291 -0.359,0.433 -0.056,0.068 -0.109,0.133 -0.163,0.2 -0.11,0.135 -0.219,0.269 -0.325,0.4 -0.056,0.07 -0.11,0.138 -0.166,0.207 -0.1,0.125 -0.2,0.25 -0.297,0.372 -0.057,0.072 -0.111,0.141 -0.166,0.212 -0.091,0.116 -0.183,0.233 -0.271,0.346 -0.055,0.072 -0.108,0.14 -0.162,0.21 -0.083,0.108 -0.167,0.217 -0.247,0.322 -0.055,0.073 -0.107,0.143 -0.161,0.214 -0.074,0.099 -0.15,0.199 -0.222,0.295 -0.049,0.067 -0.095,0.13 -0.143,0.195 -0.071,0.097 -0.144,0.195 -0.211,0.288 -0.039,0.054 -0.075,0.105 -0.113,0.157 -0.072,0.1 -0.145,0.201 -0.212,0.296 -0.017,0.024 -0.033,0.047 -0.05,0.071 -0.084,0.119 -0.166,0.237 -0.244,0.349 0,0 5.604,1.061 12.204,5.729 1.529,-4.758 5.472,-12.256 15.6,-17.161 15.809,-7.656 17.856,11.683 9.475,20.824 -4.434,4.836 -9.456,7.396 -13.205,8.736 -0.077,-0.103 -0.16,-0.213 -0.238,-0.317 7.885,10.494 11.19,14.729 26.203,17.93 9.692,2.066 17.58,-1.516 24.164,-5.585 0.454,-0.281 0.9,-0.564 1.342,-0.848 -5.208,-4.239 -13.24,-12.716 -13.762,-25.005 -0.775,-18.272 17.465,-13.997 22.17,-0.733 2.713,7.649 2.753,14.596 2.3,19.112 8.381,-3.819 15.104,-4.558 15.106,-4.558 v 0 c 0.004,0.008 -10e-4,-0.08 -0.014,-0.245 z M 692.308,87.12 c -4.852,-1.359 -1.941,-8.539 -1.941,-8.539 0,0 2.717,3.493 8.733,2.911 10e-4,0 -1.94,6.987 -6.792,5.628 z"
   id="path1986"
   inkscape:connector-curvature="0"
   style="fill:#ffe3a2" />
	<path
   d="m 729.4,80.067 c 0.255,-0.15 0.507,-0.294 0.757,-0.433 -0.25,0.14 -0.502,0.283 -0.757,0.433 z"
   id="path1988"
   inkscape:connector-curvature="0"
   style="fill:#ffe3a2" />
	<path
   d="m 731.119,79.123 c 0.243,-0.123 0.485,-0.242 0.723,-0.352 -0.239,0.11 -0.48,0.229 -0.723,0.352 z"
   id="path1990"
   inkscape:connector-curvature="0"
   style="fill:#ffe3a2" />
	<path
   d="m 666.078,69.199 c 0.107,0.128 0.214,0.254 0.321,0.384 -0.107,-0.131 -0.214,-0.256 -0.321,-0.384 z"
   id="path1992"
   inkscape:connector-curvature="0"
   style="fill:#ffe3a2" />
	<path
   d="m 668.59,72.423 c 0.175,0.232 0.35,0.465 0.52,0.691 -0.172,-0.229 -0.343,-0.456 -0.52,-0.691 z"
   id="path1994"
   inkscape:connector-curvature="0"
   style="fill:#ffe3a2" />
	<path
   d="m 664.962,67.916 c 0.114,0.126 0.228,0.254 0.342,0.383 -0.114,-0.129 -0.227,-0.257 -0.342,-0.383 z"
   id="path1996"
   inkscape:connector-curvature="0"
   style="fill:#ffe3a2" />
	<path
   d="m 728.603,80.548 c 0.239,-0.147 0.477,-0.291 0.712,-0.43 -0.235,0.139 -0.472,0.282 -0.712,0.43 z"
   id="path1998"
   inkscape:connector-curvature="0"
   style="fill:#ffe3a2" />
	<path
   d="m 730.337,79.536 c 0.192,-0.105 0.384,-0.207 0.573,-0.306 -0.189,0.099 -0.38,0.2 -0.573,0.306 z"
   id="path2000"
   inkscape:connector-curvature="0"
   style="fill:#ffe3a2" />
	<path
   d="m 660.28,63.461 c 0.061,0.05 0.122,0.101 0.183,0.152 -0.061,-0.051 -0.122,-0.102 -0.183,-0.152 z"
   id="path2002"
   inkscape:connector-curvature="0"
   style="fill:#ffe3a2" />
	<path
   d="m 721.344,85.302 c 0.231,-0.148 0.463,-0.297 0.691,-0.445 2.293,-1.494 4.42,-2.978 6.407,-4.21 -2.186,1.354 -4.541,3.014 -7.098,4.655 z"
   id="path2004"
   inkscape:connector-curvature="0"
   style="fill:#ffe3a2" />
	<path
   d="m 662.663,65.559 c 0.032,0.03 0.064,0.058 0.095,0.089 -0.031,-0.031 -0.063,-0.059 -0.095,-0.089 z"
   id="path2006"
   inkscape:connector-curvature="0"
   style="fill:#ffe3a2" />
	<path
   d="m 661.402,64.411 c 0.079,0.069 0.158,0.137 0.236,0.207 -0.079,-0.07 -0.157,-0.138 -0.236,-0.207 z"
   id="path2008"
   inkscape:connector-curvature="0"
   style="fill:#ffe3a2" />
	<path
   d="m 663.879,66.758 c 0.076,0.078 0.152,0.16 0.228,0.239 -0.077,-0.079 -0.152,-0.161 -0.228,-0.239 z"
   id="path2010"
   inkscape:connector-curvature="0"
   style="fill:#ffe3a2" />
	<path
   d="m 669.869,74.124 c 3.748,-1.34 8.771,-3.9 13.205,-8.736 8.381,-9.141 6.334,-28.48 -9.475,-20.824 -10.128,4.905 -14.071,12.403 -15.6,17.161 v 0 c 0,0 10e-4,10e-4 10e-4,10e-4 0.75,0.53 1.512,1.109 2.28,1.735 l 10e-4,0.001 c 0.061,0.05 0.122,0.101 0.183,0.152 0,0 10e-4,0.001 10e-4,0.001 0.311,0.257 0.623,0.522 0.936,0.796 0,0 0.001,0.001 0.001,0.001 0.079,0.069 0.158,0.137 0.236,0.207 l 10e-4,0.001 c 0.34,0.302 0.681,0.615 1.022,0.938 0,0 0.001,10e-4 0.002,0.002 0.032,0.03 0.064,0.058 0.095,0.089 v 0 c 0.374,0.357 0.747,0.728 1.12,1.11 v 0 c 0.076,0.078 0.152,0.16 0.228,0.239 l 10e-4,10e-4 c 0.286,0.298 0.57,0.603 0.854,0.916 0,0 10e-4,10e-4 10e-4,10e-4 0.115,0.127 0.228,0.255 0.342,0.383 0,0 10e-4,10e-4 10e-4,10e-4 0.259,0.292 0.515,0.592 0.771,0.897 0,10e-4 10e-4,10e-4 0.002,0.002 0.107,0.128 0.214,0.253 0.321,0.384 0,0 0,0.001 10e-4,0.001 0.353,0.431 0.704,0.872 1.052,1.33 10e-4,0.002 0.003,0.003 0.004,0.005 0.013,0.017 0.024,0.032 0.036,0.048 0.374,0.494 0.734,0.972 1.088,1.441 0.003,0.005 0.007,0.01 0.011,0.014 0.177,0.235 0.347,0.462 0.52,0.691 0.014,0.018 0.027,0.035 0.04,0.053 0.079,0.105 0.157,0.209 0.235,0.313 0.081,0.108 0.165,0.22 0.246,0.327 0.077,0.105 0.16,0.216 0.237,0.318 z m 6.336,-22.08 c 0.516,-1.485 2.138,-2.27 3.623,-1.755 1.485,0.516 2.27,2.138 1.755,3.623 -0.516,1.485 -2.138,2.27 -3.623,1.755 -1.486,-0.516 -2.271,-2.138 -1.755,-3.623 z"
   id="path2012"
   inkscape:connector-curvature="0"
   style="fill:#565f6b" />
	<path
   d="m 729.748,59.567 c -4.705,-13.264 -22.945,-17.538 -22.17,0.733 0.522,12.288 8.554,20.766 13.762,25.005 v 0 c 10e-4,-0.001 0.002,-0.001 0.003,-0.002 2.557,-1.641 4.912,-3.301 7.098,-4.655 10e-4,-10e-4 0.003,-0.002 0.004,-0.002 0.052,-0.032 0.103,-0.064 0.155,-0.096 10e-4,-10e-4 0.002,-10e-4 0.003,-0.002 0.239,-0.147 0.477,-0.291 0.712,-0.43 0.002,-10e-4 0.005,-0.003 0.007,-0.004 0.025,-0.015 0.051,-0.031 0.076,-0.045 10e-4,0 10e-4,-0.001 0.002,-0.001 0.255,-0.15 0.507,-0.294 0.757,-0.433 0,0 10e-4,-0.001 0.002,-0.001 0.059,-0.033 0.117,-0.064 0.176,-0.096 10e-4,0 0.002,-10e-4 0.003,-0.002 0.192,-0.105 0.384,-0.207 0.573,-0.306 l 0.002,-0.001 c 0.069,-0.035 0.137,-0.071 0.205,-0.106 0,0 10e-4,0 10e-4,0 0.243,-0.123 0.485,-0.242 0.723,-0.352 10e-4,0 0.002,-0.001 0.003,-0.001 0.069,-0.032 0.135,-0.059 0.204,-0.09 0,-0.001 0,-0.001 0,-0.002 v 0 c 0.452,-4.515 0.413,-11.462 -2.301,-19.111 z m -9.303,1.548 c -0.516,1.485 -2.138,2.27 -3.623,1.755 -1.485,-0.516 -2.27,-2.138 -1.755,-3.623 0.516,-1.485 2.138,-2.27 3.623,-1.755 1.485,0.515 2.271,2.138 1.755,3.623 z"
   id="path2014"
   inkscape:connector-curvature="0"
   style="fill:#565f6b" />
	<circle
   cx="717.75598"
   cy="60.181"
   r="2.846"
   id="circle2016"
   style="fill:#2b2f35" />
	<circle
   cx="678.89398"
   cy="52.978001"
   r="2.846"
   id="circle2018"
   style="fill:#2b2f35" />
	<path
   d="m 688.919,69.063 c 0,0 0.183,0.917 0.633,2.189 0.886,2.501 2.812,6.38 6.447,7.394 3.495,0.975 7.175,-2.806 8.547,-4.694 0.197,-0.271 0.346,-0.503 0.441,-0.676 0.755,-1.381 -9.246,-6.5 -16.068,-4.213 z"
   id="path2020"
   inkscape:connector-curvature="0"
   style="fill:#2b2f35" />
	<path
   d="m 699.101,81.492 c -6.016,0.582 -8.733,-2.911 -8.733,-2.911 0,0 -2.911,7.181 1.941,8.539 4.851,1.359 6.792,-5.628 6.792,-5.628 z"
   id="path2022"
   inkscape:connector-curvature="0"
   style="fill:#2b2f35" />
</g>

<g
   id="g2324"
   transform="translate(-601.639,-8.0489545)">
</g>
<g
   id="g2326"
   transform="translate(-601.639,-8.0489545)">
</g>
<g
   id="g2328"
   transform="translate(-601.639,-8.0489545)">
</g>
<g
   id="g2330"
   transform="translate(-601.639,-8.0489545)">
</g>
<g
   id="g2332"
   transform="translate(-601.639,-8.0489545)">
</g>
<g
   id="g2334"
   transform="translate(-601.639,-8.0489545)">
</g>
</svg>