<?xml version="1.0" encoding="UTF-8" standalone="no"?>
<svg
   xmlns:dc="http://purl.org/dc/elements/1.1/"
   xmlns:cc="http://creativecommons.org/ns#"
   xmlns:rdf="http://www.w3.org/1999/02/22-rdf-syntax-ns#"
   xmlns:svg="http://www.w3.org/2000/svg"
   xmlns="http://www.w3.org/2000/svg"
   xmlns:sodipodi="http://sodipodi.sourceforge.net/DTD/sodipodi-0.dtd"
   xmlns:inkscape="http://www.inkscape.org/namespaces/inkscape"
   width="150"
   height="150"
   viewBox="0 0 39.687499 39.687501"
   version="1.1"
   id="svg6542"
   inkscape:export-filename="C:\Users\olevch\OneDrive - SoftServe, Inc\Desktop\razvivator\transport\land_transport\bg.png"
   inkscape:export-xdpi="300"
   inkscape:export-ydpi="300"
   inkscape:version="1.0.2-2 (e86c870879, 2021-01-15)"
   sodipodi:docname="icon.svg">
  <defs
     id="defs6536" />
  <sodipodi:namedview
     id="base"
     pagecolor="#ffffff"
     bordercolor="#666666"
     borderopacity="1.0"
     inkscape:pageopacity="0.0"
     inkscape:pageshadow="2"
     inkscape:zoom="3.959798"
     inkscape:cx="104.85257"
     inkscape:cy="93.730932"
     inkscape:document-units="mm"
     inkscape:current-layer="layer1"
     inkscape:document-rotation="0"
     showgrid="false"
     units="px"
     inkscape:window-width="1920"
     inkscape:window-height="1001"
     inkscape:window-x="-9"
     inkscape:window-y="-9"
     inkscape:window-maximized="1" />
  <metadata
     id="metadata6539">
    <rdf:RDF>
      <cc:Work
         rdf:about="">
        <dc:format>image/svg+xml</dc:format>
        <dc:type
           rdf:resource="http://purl.org/dc/dcmitype/StillImage" />
        <dc:title />
      </cc:Work>
    </rdf:RDF>
  </metadata>
  <g
     inkscape:label="Layer 1"
     inkscape:groupmode="layer"
     id="layer1">
    <g
       id="g6482"
       transform="matrix(0.25491477,0,0,0.25032348,-200.70852,-172.7579)">
      <path
         id="path1890"
         style="fill:#f25d19;fill-opacity:1;fill-rule:nonzero;stroke:none;stroke-width:0.133333"
         d="m 940.93998,785.51331 -10.39467,0.176 c -0.20133,-6.99466 -5.93733,-12.60666 -12.98133,-12.60666 -7.17067,0 -12.98534,5.816 -12.98534,12.98666 0,0.66 0.0493,1.308 0.144,1.94267 l -1.07333,0.0973 -70.87066,0.74267 -0.0613,-0.005 c 0.356,-1.244 0.53334,-2.56267 0.50267,-3.928 -0.152,-7.06 -5.93467,-12.816 -12.99733,-12.93734 -7.41467,-0.12666 -13.46667,5.84667 -13.46667,13.23067 0,0.476 0.0267,0.944 0.0747,1.40667 l -2.06667,-0.17867 h -15.39867 l 1.856,-7.42 -2.04,-0.74267 0.184,-5.38 c 4.632,-4.77866 10.52,-8.21866 17.25467,-10.76 l 19.29467,-4.82533 0.66933,0.47467 c 9.24933,-5.73467 18.71333,-10.51067 28.45733,-14.01734 l 0.47334,-1.27333 c 22.08133,-2.00667 43.73866,-2.1 64.83333,0.34533 l 1.85466,1.11334 -1.29866,1.67066 10.924,9.30134 0.94933,0.80933 c 0,0 5.75067,0.26 5.75067,3.988 l 0.18666,12.70933 0.236,0.0613 2.268,0.588 -0.27866,12.43066" />
      <path
         id="path1892"
         style="fill:#ee2c21;fill-opacity:1;fill-rule:nonzero;stroke:none;stroke-width:0.133333"
         d="m 937.41598,769.27865 -0.0933,-7.60534 c -0.24666,-2.25733 -1.36,-3.40266 -3.34,-3.43333 l -9.276,0.0933 c 0,0 3.804,9.55467 12.70934,10.94534" />
      <path
         id="path1894"
         style="fill:#88d8e8;fill-opacity:1;fill-rule:nonzero;stroke:none;stroke-width:0.133333"
         d="m 864.65865,745.62131 c -13.04534,2.144 -23.84534,9.25067 -32.06667,16.052 -0.70533,0.484 -0.81733,1.22667 0,1.34267 l 72.07733,-3.10533 c 2.84667,-0.80267 4.63867,-2.224 5.38,-4.268 l 1.67067,-6.864 c 0.40933,-6.53867 -41.41467,-4.08534 -47.06133,-3.15734" />
      <path
         id="path1896"
         style="fill:#cd3722;fill-opacity:1;fill-rule:nonzero;stroke:none;stroke-width:0.133333"
         d="m 829.89331,771.21198 c 0.44667,0.472 3.204,3.45333 4.29467,6.32667 1.33733,3.528 1.34133,7.652 1.32267,8.61066 l 49.49066,-0.55466 c 0.0973,-10e-4 9.90133,-0.22934 14.15467,-4.12267 4.232,-3.87067 9.84133,-10.524 11.76933,-13.95733 1.81067,-3.228 1.84533,-11.844 1.84533,-11.93067 l 1.248,-7.95467 c 0.0253,-0.472 -0.15866,-0.91333 -0.57066,-1.33333 -3.852,-3.93467 -24.80534,-3.588 -33.632,-3.25467 -7.59734,0.28534 -15.768,1.18667 -15.96667,1.20934 -15.87466,2.27333 -32.78,16.604 -33.96133,17.62133 -0.009,0.49733 -0.003,2.17067 0.005,3.93333 0.009,2.20934 0.02,4.69867 0,5.40667 z m 5.21067,15.33333 0.009,-0.20666 c 0.003,-0.0467 0.19467,-4.73734 -1.29333,-8.66 -1.132,-2.99067 -4.236,-6.22267 -4.26667,-6.256 l -0.0587,-0.06 0.004,-0.0827 c 0.024,-0.56133 0.012,-3.17067 0.003,-5.472 -0.008,-1.96933 -0.016,-3.66933 -0.003,-4.03467 l 0.003,-0.0827 0.064,-0.056 c 0.176,-0.156 17.73734,-15.412 34.232,-17.772 l 0.007,-10e-4 c 0.0813,-0.008 8.33066,-0.92266 15.99733,-1.21066 8.884,-0.33467 29.96667,-0.67467 33.92533,3.372 0.48667,0.496 0.716,1.05066 0.68134,1.648 l -1.248,7.94533 c 0.001,0.32667 -0.0333,8.77333 -1.89334,12.088 -1.944,3.464 -7.58933,10.16267 -11.84533,14.056 -4.364,3.99333 -14.00533,4.21867 -14.41333,4.22667 l -49.904,0.55866" />
      <path
         id="path1898"
         style="fill:#252d33;fill-opacity:1;fill-rule:nonzero;stroke:none;stroke-width:0.133333"
         d="m 875.18531,761.23731 2.23333,-16.55866 3.844,-0.192 -1.256,16.46666 -4.82133,0.284" />
      <path
         id="path1900"
         style="fill:#cd3722;fill-opacity:1;fill-rule:nonzero;stroke:none;stroke-width:0.133333"
         d="m 874.53198,785.92665 -0.388,-0.028 c 0.005,-0.0853 0.656,-8.556 1.48266,-15.52934 0.828,-6.99066 1.37867,-8.604 1.40134,-8.66933 l 2.58666,-18.88 0.388,0.052 -2.596,18.92 c -0.0147,0.0547 -0.57333,1.70533 -1.392,8.624 -0.82533,6.964 -1.47466,15.428 -1.48266,15.51067" />
      <path
         id="path1902"
         style="fill:#88d8e8;fill-opacity:1;fill-rule:nonzero;stroke:none;stroke-width:0.133333"
         d="m 932.57198,755.55998 c 0,0 -6.38,1.752 -8.88534,-1.772 -2.504,-3.52533 -1.94,-7.44667 -1.94,-7.44667 l 10.82534,9.21867" />
      <path
         id="path1904"
         style="fill:#252d33;fill-opacity:1;fill-rule:nonzero;stroke:none;stroke-width:0.133333"
         d="m 899.58398,775.36931 -61.172,2.508 0.06,1.48267 61.172,-2.50667 -0.06,-1.484" />
      <path
         id="path1906"
         style="fill:#cd3722;fill-opacity:1;fill-rule:nonzero;stroke:none;stroke-width:0.133333"
         d="m 926.53198,776.53198 -0.384,-0.0693 c 0.42533,-2.32 1.61466,-3.60934 3.63733,-3.94667 l 8.92267,-0.27733 0.0133,0.39066 -8.89867,0.27467 c -1.83866,0.308 -2.892,1.46133 -3.29066,3.628" />
      <path
         id="path1908"
         style="fill:#252d33;fill-opacity:1;fill-rule:nonzero;stroke:none;stroke-width:0.133333"
         d="m 901.39864,760.05065 3.21467,-14.77067 1.34133,0.228 -3.10266,14.48 -1.45334,0.0627" />
      <path
         id="path1910"
         style="fill:#252d33;fill-opacity:1;fill-rule:nonzero;stroke:none;stroke-width:0.133333"
         d="m 819.68798,773.95865 c 6.58933,0 11.932,5.34266 11.932,11.932 0,6.59066 -5.34267,11.93333 -11.932,11.93333 -6.59067,0 -11.93333,-5.34267 -11.93333,-11.93333 0,-6.58934 5.34266,-11.932 11.93333,-11.932" />
      <path
         id="path1912"
         style="fill:#fbe7e8;fill-opacity:1;fill-rule:nonzero;stroke:none;stroke-width:0.133333"
         d="m 819.68798,777.50398 c -4.624,0 -8.38667,3.76267 -8.38667,8.38667 0,4.62533 3.76267,8.388 8.38667,8.388 4.624,0 8.38667,-3.76267 8.38667,-8.388 0,-4.624 -3.76267,-8.38667 -8.38667,-8.38667 z m 0,16.968 c -4.732,0 -8.58133,-3.848 -8.58133,-8.58133 0,-4.732 3.84933,-8.58134 8.58133,-8.58134 4.73067,0 8.58133,3.84934 8.58133,8.58134 0,4.73333 -3.85066,8.58133 -8.58133,8.58133" />
      <path
         id="path1914"
         style="fill:#fbe7e8;fill-opacity:1;fill-rule:nonzero;stroke:none;stroke-width:0.133333"
         d="m 819.68798,776.68798 c -5.076,0 -9.20533,4.128 -9.20533,9.20267 0,5.076 4.12933,9.204 9.20533,9.204 5.07333,0 9.204,-4.128 9.204,-9.204 0,-5.07467 -4.13067,-9.20267 -9.204,-9.20267 z m 0,18.60133 c -5.18267,0 -9.39867,-4.216 -9.39867,-9.39866 0,-5.18267 4.216,-9.39734 9.39867,-9.39734 5.18267,0 9.39867,4.21467 9.39867,9.39734 0,5.18266 -4.216,9.39866 -9.39867,9.39866" />
      <path
         id="path1916"
         style="fill:#fbe7e8;fill-opacity:1;fill-rule:nonzero;stroke:none;stroke-width:0.133333"
         d="m 820.75731,777.57331 v 16.636 c 0.248,-0.0307 0.49067,-0.0733 0.72667,-0.12533 v -16.38667 c -0.236,-0.0507 -0.47867,-0.0933 -0.72667,-0.124 z m -0.19333,16.856 v -17.07466 l 0.108,0.0107 c 0.31733,0.0373 0.63067,0.0907 0.93067,0.16 l 0.076,0.016 v 16.7 l -0.076,0.0173 c -0.3,0.068 -0.61334,0.12133 -0.93067,0.15866 l -0.108,0.012" />
      <path
         id="path1918"
         style="fill:#fbe7e8;fill-opacity:1;fill-rule:nonzero;stroke:none;stroke-width:0.133333"
         d="m 817.81731,794.06798 c 0.24134,0.056 0.48534,0.1 0.72534,0.13067 v -16.616 c -0.24667,0.0347 -0.49067,0.0787 -0.72534,0.13066 z m 0.92,0.35333 -0.10933,-0.012 c -0.30933,-0.0387 -0.62267,-0.0947 -0.93067,-0.168 l -0.0747,-0.0173 v -16.66533 l 0.0747,-0.0173 c 0.29867,-0.0707 0.612,-0.12666 0.93067,-0.168 l 0.10933,-0.012 v 17.06" />
      <path
         id="path1920"
         style="fill:#fbe7e8;fill-opacity:1;fill-rule:nonzero;stroke:none;stroke-width:0.133333"
         d="m 811.45731,787.72398 h 16.38667 c 0.0507,-0.236 0.0933,-0.47733 0.124,-0.72533 h -16.636 c 0.0307,0.248 0.0733,0.48933 0.12533,0.72533 z m 16.54267,0.19333 h -16.69867 l -0.0173,-0.0747 c -0.0707,-0.29867 -0.12267,-0.612 -0.15867,-0.92934 l -0.012,-0.10933 h 17.076 l -0.0133,0.10933 c -0.0373,0.31734 -0.0907,0.63067 -0.15733,0.92934 l -0.0187,0.0747" />
      <path
         id="path1922"
         style="fill:#fbe7e8;fill-opacity:1;fill-rule:nonzero;stroke:none;stroke-width:0.133333"
         d="m 811.34131,784.78531 h 16.61734 c -0.032,-0.24266 -0.0773,-0.48533 -0.132,-0.72533 h -16.35467 c -0.0533,0.23733 -0.0973,0.47867 -0.13067,0.72533 z m 16.84,0.19334 h -17.06133 l 0.0133,-0.108 c 0.04,-0.316 0.096,-0.62934 0.16667,-0.93067 l 0.0173,-0.076 h 16.66534 l 0.0173,0.076 c 0.0733,0.308 0.12933,0.62 0.168,0.93067 l 0.0133,0.108" />
      <path
         id="path1924"
         style="fill:#fbe7e8;fill-opacity:1;fill-rule:nonzero;stroke:none;stroke-width:0.133333"
         d="m 814.55198,792.55598 c 0.19733,0.15067 0.39867,0.29333 0.60133,0.424 l 11.588,-11.58667 c -0.12933,-0.2 -0.27066,-0.40266 -0.42666,-0.6 z m 0.63067,0.67333 -0.0667,-0.0413 c -0.26133,-0.164 -0.52267,-0.34933 -0.77067,-0.54667 l -0.0867,-0.068 12.07466,-12.07466 0.068,0.0853 c 0.20134,0.25467 0.38667,0.51333 0.54667,0.77067 l 0.0413,0.0653 -11.80666,11.80933" />
      <path
         id="path1926"
         style="fill:#fbe7e8;fill-opacity:1;fill-rule:nonzero;stroke:none;stroke-width:0.133333"
         d="m 812.57465,790.37731 c 0.128,0.20667 0.26933,0.40934 0.41866,0.60534 l 11.75067,-11.74934 c -0.19867,-0.14933 -0.40133,-0.29066 -0.60533,-0.42 z m 0.39866,0.90134 -0.0667,-0.0867 c -0.196,-0.252 -0.37734,-0.512 -0.54,-0.776 l -0.0413,-0.0667 11.784,-11.784 0.0667,0.0413 c 0.26267,0.16266 0.524,0.344 0.776,0.53866 l 0.0853,0.0693 -0.076,0.0787 -11.988,11.98534" />
      <path
         id="path1928"
         style="fill:#fbe7e8;fill-opacity:1;fill-rule:nonzero;stroke:none;stroke-width:0.133333"
         d="m 812.57598,781.39331 11.58533,11.58667 c 0.204,-0.13067 0.40667,-0.27333 0.60134,-0.424 l -11.764,-11.76267 c -0.15334,0.2 -0.29734,0.40134 -0.42267,0.6 z m 11.55867,11.836 -11.808,-11.80933 0.0413,-0.0653 c 0.16,-0.25467 0.34267,-0.51334 0.54533,-0.77067 l 0.068,-0.0853 12.076,12.07466 -0.0853,0.068 c -0.25067,0.19734 -0.50933,0.38267 -0.772,0.54667 l -0.0653,0.0413" />
      <path
         id="path1930"
         style="fill:#fbe7e8;fill-opacity:1;fill-rule:nonzero;stroke:none;stroke-width:0.133333"
         d="m 814.57198,779.23331 11.74933,11.74934 c 0.14934,-0.196 0.28934,-0.39867 0.42,-0.60534 l -11.564,-11.564 c -0.20533,0.12934 -0.40933,0.27067 -0.60533,0.42 z m 11.768,12.04534 -0.0787,-0.0787 -11.98533,-11.98533 0.0867,-0.0693 c 0.252,-0.19466 0.512,-0.376 0.776,-0.53866 l 0.0667,-0.0413 11.784,11.784 -0.0413,0.0667 c -0.16267,0.264 -0.344,0.524 -0.53867,0.776 l -0.0693,0.0867" />
      <path
         id="path1932"
         style="fill:#fbe7e8;fill-opacity:1;fill-rule:nonzero;stroke:none;stroke-width:0.133333"
         d="m 819.68798,782.21065 c 2.032,0 3.68,1.648 3.68,3.68 0,2.03333 -1.648,3.68133 -3.68,3.68133 -2.03333,0 -3.68,-1.648 -3.68,-3.68133 0,-2.032 1.64667,-3.68 3.68,-3.68" />
      <path
         id="path1934"
         style="fill:#fbe7e8;fill-opacity:1;fill-rule:nonzero;stroke:none;stroke-width:0.133333"
         d="m 819.68798,784.64798 c -0.68533,0 -1.244,0.55733 -1.244,1.24267 0,0.68666 0.55867,1.244 1.244,1.244 0.684,0 1.24133,-0.55734 1.24133,-1.244 0,-0.68534 -0.55733,-1.24267 -1.24133,-1.24267 z m 0,2.68 c -0.79333,0 -1.43733,-0.644 -1.43733,-1.43733 0,-0.792 0.644,-1.436 1.43733,-1.436 0.792,0 1.43733,0.644 1.43733,1.436 0,0.79333 -0.64533,1.43733 -1.43733,1.43733" />
      <path
         id="path1936"
         style="fill:#252d33;fill-opacity:1;fill-rule:nonzero;stroke:none;stroke-width:0.133333"
         d="m 917.46531,773.95865 c 6.58933,0 11.932,5.34266 11.932,11.932 0,6.59066 -5.34267,11.93333 -11.932,11.93333 -6.59067,0 -11.93333,-5.34267 -11.93333,-11.93333 0,-6.58934 5.34266,-11.932 11.93333,-11.932" />
      <path
         id="path1938"
         style="fill:#fbe7e8;fill-opacity:1;fill-rule:nonzero;stroke:none;stroke-width:0.133333"
         d="m 917.46531,777.50398 c -4.62533,0 -8.38667,3.76267 -8.38667,8.38667 0,4.62533 3.76134,8.388 8.38667,8.388 4.62267,0 8.38667,-3.76267 8.38667,-8.388 0,-4.624 -3.764,-8.38667 -8.38667,-8.38667 z m 0,16.968 c -4.732,0 -8.58267,-3.848 -8.58267,-8.58133 0,-4.732 3.85067,-8.58134 8.58267,-8.58134 4.73067,0 8.58,3.84934 8.58,8.58134 0,4.73333 -3.84933,8.58133 -8.58,8.58133" />
      <path
         id="path1940"
         style="fill:#fbe7e8;fill-opacity:1;fill-rule:nonzero;stroke:none;stroke-width:0.133333"
         d="m 917.46531,776.68798 c -5.07467,0 -9.20533,4.128 -9.20533,9.20267 0,5.076 4.13066,9.204 9.20533,9.204 5.07333,0 9.204,-4.128 9.204,-9.204 0,-5.07467 -4.13067,-9.20267 -9.204,-9.20267 z m 0,18.60133 c -5.184,0 -9.4,-4.216 -9.4,-9.39866 0,-5.18267 4.216,-9.39734 9.4,-9.39734 5.18133,0 9.39733,4.21467 9.39733,9.39734 0,5.18266 -4.216,9.39866 -9.39733,9.39866" />
      <path
         id="path1942"
         style="fill:#fbe7e8;fill-opacity:1;fill-rule:nonzero;stroke:none;stroke-width:0.133333"
         d="m 918.53464,777.57331 v 16.636 c 0.24934,-0.0307 0.492,-0.0733 0.72534,-0.12533 v -16.38667 c -0.23334,-0.0507 -0.47734,-0.0933 -0.72534,-0.124 z m -0.19466,16.856 v -17.07466 l 0.10933,0.0107 c 0.31867,0.0373 0.632,0.0907 0.92933,0.16 l 0.076,0.016 v 16.7 l -0.076,0.0173 c -0.29733,0.068 -0.61066,0.12133 -0.92933,0.15866 l -0.10933,0.012" />
      <path
         id="path1944"
         style="fill:#fbe7e8;fill-opacity:1;fill-rule:nonzero;stroke:none;stroke-width:0.133333"
         d="m 915.59464,794.06798 c 0.24267,0.056 0.48534,0.1 0.72534,0.13067 v -16.616 c -0.24534,0.0347 -0.48934,0.0773 -0.72534,0.13066 z m 0.92,0.35333 -0.108,-0.012 c -0.30933,-0.0387 -0.62266,-0.0947 -0.932,-0.168 l -0.0733,-0.0173 v -16.66533 l 0.0733,-0.0173 c 0.30134,-0.0707 0.61334,-0.12666 0.93067,-0.168 l 0.10933,-0.012 v 17.06" />
      <path
         id="path1946"
         style="fill:#fbe7e8;fill-opacity:1;fill-rule:nonzero;stroke:none;stroke-width:0.133333"
         d="m 909.23464,787.72398 h 16.38534 c 0.052,-0.236 0.0947,-0.47733 0.12666,-0.72533 h -16.63733 c 0.0307,0.248 0.0747,0.48933 0.12533,0.72533 z m 16.54134,0.19333 h -16.69734 l -0.0187,-0.0747 c -0.068,-0.29867 -0.12134,-0.612 -0.15734,-0.92934 l -0.0133,-0.10933 h 17.076 l -0.012,0.10933 c -0.036,0.31734 -0.0907,0.63067 -0.15867,0.92934 l -0.0187,0.0747" />
      <path
         id="path1948"
         style="fill:#fbe7e8;fill-opacity:1;fill-rule:nonzero;stroke:none;stroke-width:0.133333"
         d="m 909.11864,784.78531 h 16.61734 c -0.0347,-0.24666 -0.0773,-0.488 -0.13067,-0.72533 h -16.35467 c -0.056,0.24 -0.1,0.48267 -0.132,0.72533 z m 16.84,0.19334 h -17.06133 l 0.0133,-0.108 c 0.0373,-0.31067 0.0933,-0.62267 0.168,-0.93067 l 0.016,-0.076 h 16.66534 l 0.0173,0.076 c 0.072,0.30133 0.128,0.61467 0.16667,0.93067 l 0.0147,0.108" />
      <path
         id="path1950"
         style="fill:#fbe7e8;fill-opacity:1;fill-rule:nonzero;stroke:none;stroke-width:0.133333"
         d="m 912.33064,792.55598 c 0.19467,0.15067 0.39467,0.29333 0.59867,0.424 l 11.58933,-11.58667 c -0.132,-0.204 -0.27466,-0.40533 -0.42666,-0.6 z m 0.628,0.67333 -0.0667,-0.0413 c -0.264,-0.16533 -0.52267,-0.34933 -0.76934,-0.54667 l -0.0867,-0.068 12.07466,-12.07466 0.068,0.0853 c 0.196,0.24933 0.38134,0.50667 0.54667,0.77067 l 0.0413,0.064 -0.0547,0.056 -11.75334,11.75466" />
      <path
         id="path1952"
         style="fill:#fbe7e8;fill-opacity:1;fill-rule:nonzero;stroke:none;stroke-width:0.133333"
         d="m 910.35198,790.37731 c 0.128,0.20667 0.26933,0.40934 0.41866,0.60534 l 11.74934,-11.74934 c -0.19334,-0.148 -0.396,-0.288 -0.604,-0.42 z m 0.4,0.90134 -0.068,-0.0867 c -0.196,-0.252 -0.37734,-0.512 -0.54,-0.776 l -0.0413,-0.0667 11.784,-11.784 0.0667,0.0413 c 0.26933,0.16666 0.52933,0.348 0.77467,0.54 l 0.0867,0.068 -0.0773,0.0787 -11.98533,11.98534" />
      <path
         id="path1954"
         style="fill:#fbe7e8;fill-opacity:1;fill-rule:nonzero;stroke:none;stroke-width:0.133333"
         d="m 910.35198,781.39331 11.58666,11.58667 c 0.20267,-0.13067 0.40534,-0.27333 0.6,-0.424 l -11.76133,-11.76267 c -0.15067,0.19467 -0.29467,0.396 -0.42533,0.6 z m 11.55866,11.836 -11.808,-11.81066 0.0413,-0.064 c 0.16533,-0.264 0.35066,-0.52134 0.548,-0.77067 l 0.0667,-0.0853 12.07467,12.07466 -0.0853,0.068 c -0.24934,0.19734 -0.50934,0.38267 -0.772,0.54667 l -0.0653,0.0413" />
      <path
         id="path1956"
         style="fill:#fbe7e8;fill-opacity:1;fill-rule:nonzero;stroke:none;stroke-width:0.133333"
         d="m 912.34931,779.23331 11.74933,11.74934 c 0.15067,-0.196 0.29067,-0.39867 0.42,-0.60534 l -11.564,-11.564 c -0.20533,0.12934 -0.408,0.27067 -0.60533,0.42 z m 11.768,12.04534 -0.0787,-0.0787 -11.98533,-11.98533 0.0867,-0.0693 c 0.252,-0.19466 0.512,-0.376 0.77733,-0.53866 l 0.0653,-0.0413 11.784,11.784 -0.0413,0.0667 c -0.16267,0.264 -0.344,0.524 -0.53867,0.776 l -0.0693,0.0867" />
      <path
         id="path1958"
         style="fill:#fbe7e8;fill-opacity:1;fill-rule:nonzero;stroke:none;stroke-width:0.133333"
         d="m 917.46531,782.21065 c 2.032,0 3.67867,1.648 3.67867,3.68 0,2.03333 -1.64667,3.68133 -3.67867,3.68133 -2.03333,0 -3.68133,-1.648 -3.68133,-3.68133 0,-2.032 1.648,-3.68 3.68133,-3.68" />
      <path
         id="path1960"
         style="fill:#fbe7e8;fill-opacity:1;fill-rule:nonzero;stroke:none;stroke-width:0.133333"
         d="m 917.46531,784.64798 c -0.68533,0 -1.24267,0.55733 -1.24267,1.24267 0,0.68666 0.55734,1.244 1.24267,1.244 0.684,0 1.24267,-0.55734 1.24267,-1.244 0,-0.68534 -0.55867,-1.24267 -1.24267,-1.24267 z m 0,2.68 c -0.79333,0 -1.43733,-0.644 -1.43733,-1.43733 0,-0.792 0.644,-1.436 1.43733,-1.436 0.792,0 1.43733,0.644 1.43733,1.436 0,0.79333 -0.64533,1.43733 -1.43733,1.43733" />
      <path
         id="path1962"
         style="fill:#252d33;fill-opacity:1;fill-rule:nonzero;stroke:none;stroke-width:0.133333"
         d="m 904.34531,762.97731 c 2.15067,0 3.896,0.45734 3.896,1.02134 0,0.56266 -1.74533,1.02 -3.896,1.02 -2.152,0 -3.896,-0.45734 -3.896,-1.02 0,-0.564 1.744,-1.02134 3.896,-1.02134" />
      <path
         id="path1964"
         style="fill:#252d33;fill-opacity:1;fill-rule:nonzero;stroke:none;stroke-width:0.133333"
         d="m 869.64798,764.30131 c 2.15333,0 3.896,0.456 3.896,1.02 0,0.56267 -1.74267,1.02 -3.896,1.02 -2.15067,0 -3.896,-0.45733 -3.896,-1.02 0,-0.564 1.74533,-1.02 3.896,-1.02" />
      <path
         id="path3794"
         style="fill:#88d8e8;fill-opacity:1;fill-rule:nonzero;stroke:none;stroke-width:0.133333"
         d="m 857.22131,744.05465 -2.18,-0.28534 c -9.74533,3.508 -19.208,8.284 -28.45866,14.01734 l 3.644,1.48 c 9.78533,-7.168 18.69333,-12.00267 26.99466,-15.212" />
      <path
         id="path3796"
         style="fill:#ee2c21;fill-opacity:1;fill-rule:nonzero;stroke:none;stroke-width:0.133333"
         d="m 804.92265,762.80531 c -5.71467,2.34 -10.76534,5.38534 -14.88534,9.42 0.21067,0.0253 7.66534,0.92534 10.31867,-1.17866 2.68933,-2.132 7.328,-5.37867 8.256,-6.67867 0.48933,-0.684 -1.60267,-1.21467 -3.68933,-1.56267" />
      <path
         id="path3798"
         style="fill:#252d33;fill-opacity:1;fill-rule:nonzero;stroke:none;stroke-width:0.133333"
         d="m 794.97731,777.08398 h -5.75466 l -0.0413,1.20133 2.04,0.74267 -1.856,7.42133 h 5.948 l 0.0333,-0.076 c 0,0 0.58533,-2.18666 1.58266,-5.91066 0.99734,-3.72267 -1.952,-3.37867 -1.952,-3.37867" />
    </g>
  </g>
</svg>
