<svg xmlns="http://www.w3.org/2000/svg" width="500" height="468" viewBox="0 0 500 468" version="1.1">
	<path d="M 3.626 3.533 C 1.901 8.027, 1.837 15.927, 3.478 21.574 C 5.723 29.293, 9.133 34.979, 15.987 42.424 C 19.063 45.766, 22.287 49.625, 23.150 51 C 24.965 53.891, 52.908 69.477, 63.267 73.376 C 66.988 74.777, 71.547 77.078, 73.399 78.490 C 75.428 80.038, 79.584 81.646, 83.857 82.537 C 91.727 84.178, 108.495 91.006, 120 97.254 C 139.239 107.702, 154.097 120.861, 164.912 137.030 C 168.261 142.035, 171 146.521, 171 146.998 C 171 147.972, 169.326 148.526, 163.500 149.481 C 152.960 151.208, 141.480 154.736, 130.656 159.573 C 114.514 166.788, 111.750 168.767, 108.475 175.462 C 105.706 181.120, 99.821 187.184, 89.145 195.377 C 82.315 200.618, 79.307 202.199, 71.534 204.632 C 67.836 205.790, 64.319 207.748, 62.284 209.783 C 59.390 212.677, 59 213.702, 59 218.423 C 59 222.141, 59.565 224.476, 60.847 226.059 L 62.694 228.340 66.597 225.227 C 68.824 223.451, 73.505 221.257, 77.500 220.117 C 81.350 219.019, 89 216.712, 94.500 214.991 C 110.968 209.836, 111.809 209.702, 119.336 211.018 C 124.057 211.843, 129.780 214.046, 137.836 218.139 C 159.720 229.259, 177.673 234.990, 202 238.624 C 217.830 240.989, 243.028 240.984, 264.946 238.612 L 282.392 236.724 289.568 244.208 C 297.993 252.996, 312.852 274.976, 319.383 288.313 C 321.913 293.479, 325.369 301.989, 327.063 307.224 C 329.713 315.410, 331.061 317.844, 336.696 324.621 C 348.879 339.273, 365.560 361.452, 371.045 370.291 C 378.243 381.892, 383.033 387.234, 396.382 398.548 C 402.497 403.730, 410.650 410.724, 414.500 414.089 C 422.672 421.232, 444.222 436.756, 457.893 445.349 C 467.891 451.633, 491.937 465, 493.243 465 C 493.659 465, 494 464.100, 494 463 C 494 461.889, 494.667 461, 495.500 461 C 497.424 461, 497.393 460.535, 495.058 454.392 C 492.687 448.155, 489.346 441.507, 486.574 437.508 C 485.433 435.863, 483.021 432.069, 481.214 429.077 C 479.406 426.086, 477.041 423.017, 475.958 422.258 C 474.875 421.499, 473.307 419.561, 472.474 417.950 C 471.641 416.339, 468.944 412.752, 466.480 409.977 C 464.016 407.203, 462 404.516, 462 404.006 C 462 403.495, 459.975 400.592, 457.500 397.553 C 455.025 394.514, 453 391.765, 453 391.444 C 453 391.123, 451.650 388.898, 450 386.500 C 448.350 384.102, 447 381.435, 447 380.573 C 447 378.511, 439.400 364.280, 436.373 360.673 C 435.068 359.119, 434 357.276, 434 356.578 C 434 355.881, 433.100 354.495, 432 353.500 C 430.900 352.505, 430 350.894, 430 349.922 C 430 348.949, 428.884 346.827, 427.520 345.206 C 426.156 343.585, 424.103 340.288, 422.959 337.879 C 421.814 335.471, 419.988 331.925, 418.900 330 C 417.653 327.793, 417.115 325.469, 417.444 323.710 C 418.028 320.590, 412.238 302.078, 409.788 299.236 C 407.393 296.456, 404.945 290.856, 404.003 286 C 402.852 280.068, 398.810 271.583, 394.475 266 C 383.767 252.210, 375.153 242.833, 371.500 240.992 C 369.300 239.883, 365.938 237.674, 364.028 236.082 L 360.556 233.189 365.528 232.557 C 368.263 232.209, 373.200 231.294, 376.500 230.523 C 379.800 229.753, 387.900 228.910, 394.500 228.651 C 401.100 228.393, 409.596 227.396, 413.379 226.436 C 419.162 224.970, 420.811 224.892, 423.722 225.944 C 426.942 227.108, 427.378 227.012, 429.918 224.579 C 433.308 221.331, 438.222 219.852, 443.057 220.625 C 447.192 221.286, 448.928 219.848, 446.453 217.810 C 445.577 217.089, 443.903 215.478, 442.731 214.228 C 437.188 208.316, 427.514 205, 404.500 201.125 C 388.591 198.446, 375.633 194.624, 369.500 190.802 C 366.060 188.658, 362.810 187.536, 359.084 187.205 C 354.047 186.758, 349.133 184.989, 327 175.657 C 322.325 173.685, 314.225 171.105, 309 169.922 C 303.775 168.740, 295.585 166.474, 290.801 164.887 C 286.016 163.299, 279.777 161.502, 276.935 160.893 C 272.693 159.983, 270.754 158.775, 266.105 154.142 C 262.990 151.039, 258.517 145.951, 256.165 142.836 C 253.813 139.720, 251.239 136.922, 250.445 136.617 C 249.650 136.312, 249 135.452, 249 134.706 C 249 133.959, 247.875 132.292, 246.500 131 C 245.125 129.708, 244 128.275, 244 127.814 C 244 125.901, 235.730 115.049, 233.807 114.439 C 232.660 114.075, 228.296 111.311, 224.111 108.297 C 214.222 101.177, 210.485 99.315, 202.271 97.414 C 198.547 96.553, 189.650 93.875, 182.500 91.463 C 175.350 89.052, 163.425 85.447, 156 83.452 C 148.575 81.457, 141.825 79.232, 141 78.508 C 138.833 76.607, 122.980 69.636, 112.500 65.978 C 101.408 62.105, 85.561 54.512, 81.385 51.068 C 79.672 49.656, 76.072 47.245, 73.385 45.710 C 70.698 44.176, 66.250 41.329, 63.500 39.384 C 60.750 37.440, 56.590 34.894, 54.255 33.728 C 51.920 32.561, 49.752 30.795, 49.438 29.803 C 49.123 28.811, 48.332 28, 47.679 28 C 46.555 28, 39.428 23.276, 34 18.932 C 20.108 7.816, 13.697 3.871, 7.377 2.550 C 4.998 2.052, 4.104 2.287, 3.626 3.533" fill="none" stroke="#000" stroke-width="2px" fill-rule="evenodd"/>
</svg>
