<svg xmlns="http://www.w3.org/2000/svg" width="500" height="237" viewBox="0 0 500 237" version="1.1">
	<path d="M 460.173 3.746 C 457.841 7.972, 435.511 27.145, 423.606 35.142 C 412.280 42.751, 392.637 53.090, 386.753 54.539 C 384.113 55.189, 384.031 55.093, 384.637 52.063 C 385.110 49.698, 384.928 48.984, 383.908 49.205 C 383.139 49.372, 382.396 48.508, 382.200 47.219 C 381.866 45.022, 381.676 45.085, 377.106 48.911 C 374.495 51.097, 370.584 54.599, 368.416 56.693 C 363.500 61.439, 353.240 68.133, 346 71.317 C 340.106 73.909, 310.990 84.392, 299.570 88.033 C 292.232 90.373, 287.608 90.375, 272.664 88.048 C 264.266 86.741, 256.139 87.883, 249.345 91.325 C 246.662 92.685, 242.538 94.316, 240.182 94.951 C 237.825 95.586, 235.640 96.775, 235.325 97.595 C 233.956 101.162, 216.088 107.148, 213.419 104.933 C 212.336 104.034, 211.266 104.118, 208.757 105.298 C 205.211 106.967, 174.338 110, 160.898 110 C 145.149 110, 114.777 104.520, 110.367 100.884 C 108.212 99.106, 107.973 102.973, 110.106 105.106 C 111.239 106.239, 111.908 107.425, 111.592 107.741 C 111.276 108.057, 111.576 108.993, 112.259 109.820 C 113.357 111.151, 111.945 111.253, 100 110.709 C 72.304 109.448, 56.256 103.088, 42.688 87.998 C 40.110 85.130, 38 83.246, 38 83.811 C 38 85.468, 47.712 95.619, 53.037 99.527 C 55.732 101.505, 60.744 104.224, 64.175 105.569 C 73.182 109.098, 73.289 110.003, 64.505 108.345 C 51.524 105.893, 36.650 97.893, 28.856 89.169 C 25.199 85.076, 24.920 84.917, 26.592 87.879 C 32.179 97.775, 42.491 105.492, 56.455 110.229 C 64.069 112.811, 64.278 112.959, 60.360 112.979 C 54.622 113.008, 41.275 110.367, 32.976 107.559 C 25.731 105.108, 19.866 101.907, 14.085 97.251 C 8.698 92.912, 11.704 97.484, 18.406 103.822 C 27.675 112.589, 39.374 116.757, 60 118.643 L 68.500 119.420 63.500 120.191 C 60.750 120.616, 46.125 121.258, 31 121.619 C 15.875 121.980, 2.600 122.634, 1.500 123.074 C -0.025 123.683, 0.450 123.894, 3.500 123.960 C 5.700 124.008, 10.875 124.981, 15 126.123 C 21.213 127.843, 25.160 128.182, 38 128.095 C 46.525 128.037, 56.048 127.492, 59.162 126.882 C 62.276 126.273, 65.426 125.987, 66.162 126.246 C 68.347 127.017, 60.607 128.837, 41.648 132.010 C 23.236 135.092, 12.613 137.481, 10 139.128 C 8.796 139.887, 8.895 140.013, 10.500 139.764 C 11.707 139.578, 12.900 140.241, 13.509 141.436 C 14.064 142.526, 16.464 144.786, 18.842 146.459 C 22.834 149.267, 23.926 149.526, 33.070 149.843 C 41.993 150.153, 51.080 149.009, 60.906 146.339 C 62.488 145.909, 63.088 146.049, 62.656 146.748 C 61.511 148.601, 45.505 153.846, 35.823 155.542 C 30.695 156.441, 25.150 157.525, 23.500 157.952 L 20.500 158.727 24.500 160.601 C 30.867 163.584, 49.073 163.120, 59 159.723 C 63.125 158.311, 67.400 156.861, 68.500 156.501 C 72.476 155.198, 62.856 162.828, 55.941 166.462 C 48.998 170.110, 47.292 172, 50.941 172 C 52.009 172, 53.174 172.472, 53.530 173.049 C 53.933 173.701, 54.616 173.749, 55.339 173.175 C 55.978 172.667, 58.585 171.951, 61.134 171.582 C 63.683 171.214, 68.071 170.071, 70.884 169.042 C 75.908 167.206, 76 167.207, 76 169.086 C 76 171.175, 78.452 171.695, 79.594 169.849 C 80.092 169.042, 80.683 169.214, 81.565 170.420 C 82.614 171.854, 83.425 171.977, 86.412 171.152 C 88.457 170.587, 90 170.547, 90 171.058 C 90 172.594, 94.840 175.217, 96.164 174.399 C 98.389 173.024, 101.848 173.112, 103.062 174.575 C 103.717 175.364, 105.991 176, 108.158 176 C 110.310 176, 113.149 176.707, 114.468 177.571 C 116.319 178.784, 117.333 178.892, 118.912 178.047 C 120.038 177.444, 122.006 177.215, 123.287 177.536 C 124.567 177.857, 128.064 178.217, 131.057 178.335 C 134.981 178.489, 137.390 179.211, 139.691 180.919 C 142.630 183.102, 143.558 183.247, 151.412 182.757 C 157.953 182.349, 160.209 182.547, 161.087 183.605 C 161.717 184.364, 164.076 185.482, 166.330 186.089 C 170.072 187.097, 170.583 186.998, 172.246 184.945 C 173.887 182.918, 174.871 182.713, 182.255 182.853 C 186.759 182.939, 191.964 182.507, 193.823 181.893 C 196.335 181.065, 199.651 181.087, 206.747 181.980 C 212.884 182.752, 217.044 182.846, 218.396 182.241 C 220.854 181.143, 233.305 177.280, 237.141 176.426 C 238.593 176.103, 240.005 176.212, 240.278 176.669 C 240.551 177.126, 237.254 181.700, 232.951 186.834 C 228.589 192.038, 225.357 196.767, 225.647 197.523 C 225.933 198.269, 228.905 199.729, 232.250 200.769 C 236.427 202.068, 238.415 203.217, 238.594 204.438 C 238.993 207.161, 242.912 210.822, 246.200 211.544 C 247.822 211.900, 250.578 213.738, 252.324 215.627 C 254.920 218.436, 256.459 219.174, 260.756 219.671 C 265.290 220.196, 265.841 220.487, 264.764 221.784 C 263.698 223.069, 263.843 223.185, 265.759 222.577 C 267.839 221.916, 267.929 222.056, 267.001 224.497 C 265.711 227.891, 265.710 233, 267 233 C 267.550 233, 268 231.875, 268 230.500 C 268 229.125, 268.401 228, 268.892 228 C 269.382 228, 270.038 226.988, 270.349 225.750 C 270.831 223.831, 271.546 223.515, 275.207 223.605 C 277.568 223.662, 280.850 224.270, 282.500 224.955 C 287.200 226.906, 290.732 227.214, 293.206 225.890 C 294.458 225.220, 297.012 224.503, 298.880 224.297 C 300.748 224.091, 304.166 222.815, 306.476 221.461 C 308.786 220.108, 310.939 219, 311.260 219 C 311.582 219, 312.375 220.605, 313.022 222.567 C 313.670 224.529, 314.392 225.941, 314.628 225.706 C 314.863 225.470, 314.658 224.202, 314.172 222.889 C 313.122 220.053, 313.664 218, 315.463 218 C 316.176 218, 318.369 216.036, 320.336 213.635 C 323.214 210.123, 324.752 209.136, 328.207 208.584 C 334.165 207.633, 336.717 205.675, 338.125 200.977 C 339.118 197.663, 340.085 196.614, 343.565 195.074 C 346.842 193.625, 347.949 192.508, 348.472 190.126 C 348.844 188.433, 348.886 186.624, 348.565 186.104 C 348.243 185.585, 349.279 184.111, 350.866 182.830 C 356.892 177.965, 357.025 173.958, 351.209 172.532 C 349.719 172.166, 339.200 167.340, 327.833 161.806 C 313.806 154.978, 307.010 151.146, 306.678 149.878 C 306.042 147.446, 309.090 139.466, 311.620 136.936 C 313.589 134.966, 313.603 134.974, 315.304 138.827 C 316.338 141.171, 319.384 144.600, 323.031 147.524 C 326.342 150.180, 329.298 153.341, 329.601 154.548 C 329.904 155.755, 331.829 158.380, 333.878 160.381 L 337.603 164.018 339.802 161.970 C 341.011 160.844, 342 160.140, 342 160.407 C 342 160.955, 351.660 157.747, 354.588 156.226 C 360.166 153.330, 362.400 152.667, 366.582 152.667 C 370.256 152.667, 371.470 152.212, 372.665 150.388 C 373.809 148.642, 374.666 148.288, 376.329 148.874 C 378.878 149.771, 382 149.250, 382 147.927 C 382 147.417, 382.874 147, 383.943 147 C 385.012 147, 386.475 146.171, 387.193 145.159 C 388.919 142.726, 392.290 141, 395.312 141 C 396.656 141, 398.315 140.325, 399 139.500 C 399.685 138.675, 401.329 138, 402.654 138 C 403.979 138, 405.322 137.325, 405.638 136.500 C 405.955 135.675, 407.247 135, 408.509 135 C 410.160 135, 411.098 134.158, 411.850 132 C 412.689 129.595, 413.472 129, 415.802 129 C 417.516 129, 419.815 127.974, 421.405 126.500 C 422.889 125.125, 424.867 123.998, 425.802 123.995 C 426.736 123.992, 429.650 121.761, 432.278 119.037 C 435.272 115.934, 437.609 114.297, 438.536 114.652 C 440.954 115.580, 445.203 112.216, 444.482 109.944 C 443.952 108.272, 444.354 108, 447.351 108 C 452.104 108, 454 107.128, 454 104.942 C 454 103.253, 454.695 103.145, 462.250 103.661 C 466.788 103.972, 472.055 103.814, 473.956 103.310 C 477.369 102.407, 477.238 102.321, 463.705 96.533 C 456.165 93.308, 450.158 90.509, 450.354 90.312 C 450.551 90.116, 456.289 90.865, 463.106 91.977 C 475.627 94.020, 495.226 94.761, 493.450 93.125 C 492.206 91.978, 473.526 85.943, 459 81.995 C 440.586 76.990, 441.713 75.755, 462.069 78.633 C 473.614 80.266, 489 79.897, 489 77.987 C 489 75.146, 461.438 67.850, 441.648 65.453 C 430.196 64.066, 438.482 63.031, 461.161 63.015 C 482.083 63.001, 484.264 62.831, 489.574 60.799 C 495.305 58.606, 495.316 58.594, 492.413 57.655 C 490.811 57.137, 476.675 56.501, 461 56.243 C 445.325 55.984, 433.437 55.416, 434.581 54.981 C 435.726 54.545, 442.510 53.010, 449.657 51.569 C 470.156 47.436, 479.785 44.452, 490 39.069 C 495.225 36.316, 499.050 34.050, 498.500 34.035 C 494.929 33.933, 432.664 47.272, 426.198 49.524 C 425.482 49.773, 425.137 49.588, 425.431 49.112 C 425.725 48.636, 428.561 47.221, 431.733 45.968 C 455.859 36.439, 474.931 23.021, 483.568 9.500 L 485.484 6.500 481.992 9.080 C 472.265 16.268, 461.406 23.388, 451.500 29.073 C 440.291 35.505, 419.131 45.464, 418.344 44.677 C 418.105 44.438, 421.617 42.069, 426.148 39.413 C 436.314 33.453, 443.769 27.466, 451.565 19 C 458.645 11.312, 462.292 5.693, 461.782 3.260 C 461.461 1.730, 461.251 1.793, 460.173 3.746" fill="none" stroke="#000" stroke-width="2px" fill-rule="evenodd"/>
</svg>
