<svg xmlns="http://www.w3.org/2000/svg" width="457" height="500" viewBox="0 0 457 500" version="1.1">
	<path d="M 315.136 4.574 C 289.551 11.457, 264.918 38.564, 249.629 76.662 C 246.360 84.807, 242.417 91.910, 235.035 102.947 C 229.472 111.266, 222.182 123.118, 218.835 129.286 C 209.933 145.690, 199.074 163.639, 176.962 198.500 C 153.263 235.862, 143.256 252.211, 130.751 274 C 118.239 295.801, 116.241 299.868, 114.613 306.844 C 113.543 311.433, 111.901 314.414, 107.149 320.393 C 93.795 337.198, 60.168 387.107, 53.849 399.500 C 48.416 410.158, 47.336 413.808, 49.385 414.594 C 51.291 415.326, 55.472 413.076, 63.493 407.005 C 67.130 404.252, 70.295 402, 70.527 402 C 71.109 402, 65.751 410.995, 60.773 418.376 C 46.521 439.508, 30.923 459.358, 20.237 469.963 C 10.051 480.071, 3 488.757, 3 491.196 C 3 492.414, 10.830 492.158, 13.316 490.858 C 14.517 490.230, 19.202 486.180, 23.727 481.858 C 31.583 474.353, 34.892 472.233, 33.635 475.510 C 33.316 476.341, 32.564 479.837, 31.965 483.280 C 30.234 493.221, 32.827 497.023, 41.315 496.986 C 47.559 496.960, 48.331 496.256, 52.350 486.934 C 59.056 471.383, 74.862 449.804, 109 409.596 L 121.500 394.873 136 387.893 C 143.975 384.053, 155 378.279, 160.500 375.062 C 173.485 367.466, 176.638 366.474, 182.958 367.990 C 187.865 369.167, 194.951 368.776, 221 365.892 C 231.663 364.712, 236.229 365.600, 244.542 370.472 C 249.654 373.467, 250.588 375.234, 251.548 383.721 C 252.201 389.495, 252.136 389.714, 248.657 393.402 C 246.700 395.477, 244.340 399.161, 243.413 401.588 C 241.825 405.746, 241.829 406.264, 243.481 410.589 C 244.502 413.262, 247.681 417.718, 251.097 421.263 C 259.677 430.170, 260.646 435.111, 255.921 445.877 C 253.352 451.731, 253.484 453.164, 256.926 456.765 C 259.017 458.953, 260.022 461.205, 260.451 464.663 C 261.478 472.941, 263.033 479.667, 264.292 481.279 C 265.378 482.669, 270.099 482.690, 311 481.486 C 336.025 480.749, 356.555 480.113, 356.621 480.073 C 356.688 480.033, 357.043 477.735, 357.410 474.967 C 358.224 468.828, 357.487 467.249, 354.901 469.590 C 353.075 471.242, 353 471.196, 352.994 468.405 C 352.991 466.807, 352.520 463.813, 351.947 461.750 C 351.031 458.448, 350.536 458, 347.810 458 L 344.714 458 345.258 450.068 C 345.557 445.705, 346.600 439.035, 347.576 435.246 C 349.548 427.591, 349.124 425, 345.897 425 C 343.826 425, 343.760 424.704, 344.375 418.250 C 344.729 414.538, 345.294 409.765, 345.631 407.644 C 346.208 404.013, 346.115 403.829, 344.036 404.489 C 342.062 405.115, 341.943 404.974, 342.914 403.160 C 344.410 400.366, 344.274 399, 342.500 399 C 340.500 399, 340.583 398.588, 343.466 394.229 C 347.945 387.456, 348.495 384.504, 346.049 380.359 C 344.265 377.335, 344.079 376.211, 344.951 373.711 C 347.391 366.711, 346.313 363.127, 338.500 352.277 C 334.265 346.395, 332.044 345.681, 321.925 346.950 C 317.300 347.530, 311.387 347.722, 308.786 347.377 C 304.454 346.803, 303.893 346.404, 302.100 342.625 C 298.239 334.487, 298.226 334.515, 312.540 319.848 C 333.793 298.071, 346.560 280.107, 356.779 257.600 C 369.816 228.886, 375 204.024, 375 170.213 C 375 155.601, 374.607 150.974, 372.500 140.806 C 368.467 121.340, 369.104 116.900, 377.428 106.455 C 380.396 102.731, 384.722 95.790, 387.040 91.030 L 391.256 82.377 403.536 81.269 C 412.748 80.438, 418.024 79.372, 424.658 77 C 429.521 75.261, 434.543 73.591, 435.819 73.289 C 439.274 72.472, 444.705 78.176, 446.566 84.579 C 447.383 87.389, 448.682 90.545, 449.454 91.594 C 450.797 93.418, 450.887 93.422, 451.561 91.683 C 452.967 88.055, 451.269 78.477, 448.112 72.223 C 446.401 68.832, 445 64.725, 445 63.098 C 445 60.791, 444.504 60.069, 442.750 59.820 C 441.300 59.614, 440.386 58.696, 440.179 57.238 C 439.464 52.202, 418.635 38.882, 402.250 32.982 C 398.813 31.745, 396 30.406, 396 30.007 C 396 28.231, 388.904 20.582, 383.463 16.493 C 376.227 11.054, 366.130 6.709, 355.792 4.584 C 345.894 2.550, 322.683 2.544, 315.136 4.574" fill="none" stroke="#000" stroke-width="2px" fill-rule="evenodd"/>
</svg>
