<svg xmlns="http://www.w3.org/2000/svg" width="191" height="232" viewBox="0 0 191 232" version="1.1">
	<path d="M 8.351 2.526 C 7.985 3.483, 8.252 5.174, 8.946 6.285 C 9.670 7.445, 10.297 12.180, 10.417 17.403 C 10.533 22.406, 11.251 28.188, 12.014 30.250 C 13.127 33.259, 13.164 34.657, 12.201 37.321 C 11.540 39.148, 10.999 41.960, 10.998 43.571 C 10.998 45.182, 10.120 48.075, 9.049 50 C 1.939 62.774, 1.714 63.650, 2.362 76 C 3.151 91.020, 4.524 98.145, 8.073 105.621 C 10.895 111.565, 16.285 118, 18.443 118 C 19.755 118, 24.015 122.474, 26.536 126.500 C 28.099 128.997, 37.940 139.940, 41.500 143.140 C 45.830 147.033, 49.038 149.403, 52.250 151.081 C 58.529 154.362, 57.923 154.767, 41.028 158.562 L 33.556 160.240 31.052 156.870 C 28.247 153.095, 21.145 145.901, 16.150 141.775 C 14.336 140.276, 13.089 138.664, 13.381 138.193 C 13.672 137.722, 17.193 136.712, 21.205 135.949 C 25.657 135.102, 27.503 134.433, 25.941 134.233 C 23.633 133.936, 19.064 134.764, 13.462 136.493 C 10.814 137.311, 5.953 132.994, 6.554 130.358 C 6.802 129.272, 5.737 127.062, 3.989 125.038 L 1 121.576 1 138.769 L 1 155.963 13.055 168.232 C 22.846 178.197, 25.332 181.323, 26.297 184.882 C 27.072 187.741, 28.270 189.622, 29.743 190.293 C 30.984 190.858, 32 191.839, 32 192.472 C 32 193.105, 32.822 194.505, 33.826 195.583 C 35.716 197.611, 35.759 204.413, 33.890 205.568 C 30.491 207.669, 40.029 208.713, 46.267 206.923 C 48.728 206.218, 50.070 206.625, 54.359 209.378 C 57.186 211.193, 61.865 215, 64.755 217.839 C 67.645 220.677, 70.648 223, 71.427 223 C 72.206 223, 74.385 224.800, 76.268 227 L 79.692 231 96.542 231 L 113.392 231 110.376 227.750 C 108.717 225.963, 106.507 223.150, 105.465 221.500 C 103.256 218.004, 102.528 212.016, 104.307 211.968 C 105.025 211.949, 104.865 211.451, 103.906 210.718 C 103.030 210.048, 102.005 207.858, 101.630 205.851 C 101.255 203.845, 100.059 201.074, 98.974 199.694 C 96.467 196.507, 96.500 195.501, 99.297 189.990 C 102.921 182.849, 103.002 182.757, 104.545 184.038 C 106.966 186.047, 108.280 184.062, 107.637 179.368 C 107.288 176.823, 107.440 175, 108 175 C 108.529 175, 109.247 173.863, 109.596 172.474 C 110.509 168.834, 112.818 167.969, 118.033 169.314 C 120.490 169.947, 122.777 170.851, 123.115 171.323 C 123.453 171.795, 124.803 172.715, 126.115 173.368 C 128.368 174.490, 128.511 175.109, 128.694 184.528 C 128.964 198.387, 131.431 209.203, 135.816 215.750 C 142.330 225.476, 143.516 222.671, 142.746 199.361 C 142.449 190.362, 142.381 183, 142.595 183 C 143.850 183, 151.318 190.145, 155 194.869 C 159.823 201.056, 172.212 206, 182.896 206 C 187.330 206, 187.736 205.776, 189.315 202.466 C 190.242 200.522, 191 198.721, 191 198.463 C 191 198.205, 188.187 195.124, 184.750 191.617 C 181.313 188.110, 176.913 183.499, 174.974 181.371 C 173.034 179.242, 166.707 173.625, 160.914 168.890 C 149.174 159.294, 141.384 149.877, 140.487 144.198 C 139.328 136.853, 135.872 122.375, 133.884 116.534 C 129.661 104.127, 121.522 87.609, 110.623 69.326 C 106.321 62.110, 100.208 56.190, 93.568 52.808 C 84.120 47.997, 80.133 45.119, 69.662 35.551 C 59.685 26.434, 57 22.895, 57 18.862 C 57 15.151, 52.926 10.380, 47.343 7.553 C 42.370 5.035, 41.398 4.902, 30.151 5.192 C 20.127 5.451, 17.932 5.234, 16.365 3.828 C 13.371 1.144, 9.146 0.457, 8.351 2.526 M 56.162 161.588 C 48.930 163.171, 44.458 165.075, 44.593 166.513 C 44.644 167.056, 46.311 168.356, 48.298 169.402 C 51.950 171.326, 54 175.004, 54 179.633 C 54 181.465, 55.239 182.608, 59.750 184.936 C 62.913 186.568, 64.657 187.925, 63.628 187.952 C 61.999 187.994, 61.934 188.217, 63.128 189.662 C 63.882 190.577, 68.325 194.412, 73 198.186 L 81.500 205.048 86.081 200.189 C 88.600 197.517, 91.670 193.118, 92.902 190.415 C 94.135 187.712, 95.561 184.719, 96.072 183.764 C 97.389 181.300, 97.352 181.231, 93.750 179.391 C 89.650 177.295, 71.433 165.355, 67.673 162.298 C 64.474 159.697, 64.730 159.713, 56.162 161.588" fill="none" stroke="#000" stroke-width="2px" fill-rule="evenodd"/>
</svg>
