<svg xmlns="http://www.w3.org/2000/svg" width="500" height="429" viewBox="0 0 500 429" version="1.1">
	<path d="M 80.392 5.646 C 73.570 7.027, 58.836 13.861, 55.011 17.419 C 53.630 18.704, 51.487 20.276, 50.250 20.913 C 49.012 21.550, 48 22.653, 48 23.366 C 48 24.079, 46.875 25.264, 45.500 26 C 44.125 26.736, 43 27.751, 43 28.256 C 43 28.760, 41.660 31.047, 40.022 33.337 C 36.876 37.736, 31.850 49.128, 31.567 52.500 C 31.475 53.600, 31.020 57.371, 30.556 60.879 C 29.805 66.555, 29.381 67.437, 26.706 68.879 C 23.149 70.796, 11.277 81.615, 9.894 84.198 C 8.260 87.252, 10.552 89.622, 17.515 92.080 C 26.067 95.099, 26.780 96.013, 24.112 100.535 C 22.722 102.890, 21.619 107.400, 20.867 113.802 C 19.729 123.475, 18.990 125.517, 13.564 133.973 C 5.690 146.244, 2.894 156.244, 3.492 170 C 3.836 177.913, 7.605 192.645, 10.802 198.575 C 11.373 199.634, 12.862 203.200, 14.110 206.500 C 15.358 209.800, 18.015 214.750, 20.013 217.500 C 22.011 220.250, 26.860 227.822, 30.789 234.326 C 34.718 240.831, 39.923 248.931, 42.355 252.326 C 49.115 261.764, 62.377 273.803, 73.065 280.205 C 77.809 283.047, 100.074 292.593, 107 294.754 C 112.178 296.370, 124.558 298.584, 125.749 298.107 C 125.885 298.052, 128.360 298.905, 131.249 300.003 C 134.137 301.101, 137.711 301.999, 139.191 301.999 C 142.471 302, 143.496 303.343, 141.489 305.009 C 140.670 305.689, 140 306.842, 140 307.573 C 140 308.303, 139.433 309.260, 138.740 309.700 C 138.047 310.140, 136.585 312.300, 135.490 314.500 C 133.290 318.922, 128.679 325.410, 125.536 328.505 C 124.416 329.608, 121.642 332.703, 119.372 335.383 L 115.243 340.257 108.872 338.970 C 97.288 336.632, 89.705 336.600, 85.254 338.871 C 81.814 340.625, 80.598 342.276, 76.169 351.198 C 73.357 356.864, 70.319 364.650, 69.418 368.500 C 67.424 377.021, 66.489 405.517, 68.066 409.691 C 70.551 416.268, 78.186 421.329, 92.500 425.886 L 100.500 428.434 152.675 428.734 L 204.850 429.035 216.073 416.550 C 230.048 401.007, 233.609 398.378, 240.075 398.835 C 249.775 399.521, 252.534 395.253, 251.543 381.093 C 250.694 368.966, 250.609 368.702, 246.526 365.588 C 243.788 363.499, 241.087 362.732, 232.566 361.622 C 222.081 360.256, 219 359.057, 219 356.344 C 219 355.568, 217.393 353.326, 215.429 351.362 C 210.744 346.678, 205.895 345.939, 199.080 348.870 C 195.455 350.430, 192.069 351, 186.434 351 L 178.738 351 179.314 347.452 C 180.085 342.704, 187.545 331.762, 202.635 313.250 C 204.541 310.913, 206.963 309, 208.018 309 C 209.252 309, 209.745 308.500, 209.400 307.601 C 208.529 305.329, 210.623 304.790, 220.634 304.708 C 225.846 304.665, 230.337 304.263, 230.614 303.815 C 230.891 303.367, 232.018 303, 233.118 303 C 234.218 303, 234.840 302.550, 234.500 302 C 234.160 301.450, 234.696 300.993, 235.691 300.985 C 238.011 300.966, 244.361 298.759, 246.134 297.357 C 246.885 296.762, 251.869 295.793, 257.209 295.204 C 266.359 294.194, 268.347 293.643, 277 289.716 C 279.926 288.389, 280.126 288.117, 278.219 288.064 C 276.964 288.029, 275.678 287.325, 275.362 286.500 C 275.045 285.675, 273.989 285, 273.015 285 C 272.042 285, 270.734 284.385, 270.110 283.633 C 268.510 281.704, 270.297 280.461, 278.162 278.032 C 284.548 276.059, 289 273.269, 289 271.240 C 289 270.676, 289.611 269.979, 290.358 269.693 C 291.783 269.146, 293.220 263.277, 293.589 256.500 C 294.187 245.494, 298.885 233.392, 303.763 230.288 C 305.268 229.330, 306.726 228.240, 307.002 227.865 C 307.279 227.490, 310.879 226.938, 315.002 226.637 C 319.126 226.336, 323.400 225.911, 324.500 225.693 C 330.491 224.501, 332.916 223.674, 332.482 222.972 C 332.216 222.540, 332.785 222.367, 333.749 222.587 C 334.712 222.807, 341.800 223.166, 349.500 223.384 C 363.400 223.779, 380.124 225.429, 383 226.688 C 383.825 227.049, 385.407 227.457, 386.516 227.595 C 387.625 227.732, 388.975 227.953, 389.516 228.086 C 390.057 228.219, 391.686 227.993, 393.136 227.584 C 395.021 227.052, 395.638 226.330, 395.302 225.047 C 394.546 222.158, 399.508 220.979, 406.517 222.383 C 409.725 223.026, 412.534 224.103, 412.759 224.776 C 412.983 225.449, 413.789 226, 414.549 226 C 415.310 226, 417.410 226.649, 419.216 227.442 C 422.089 228.704, 431.553 231.904, 437.500 233.625 C 438.600 233.944, 442.076 234.319, 445.225 234.459 C 448.374 234.599, 451.524 235.154, 452.225 235.692 C 453.445 236.627, 462.110 238.757, 468.485 239.689 C 470.143 239.932, 473.166 240.562, 475.203 241.091 C 477.239 241.619, 482.724 241.945, 487.391 241.814 C 494.514 241.615, 495.951 241.296, 496.335 239.825 C 496.587 238.862, 496.145 237.535, 495.352 236.877 C 494.407 236.092, 494.121 234.727, 494.521 232.906 C 495.507 228.415, 492.618 226.426, 484.072 225.709 C 480.088 225.375, 476.304 224.688, 475.664 224.182 C 475.024 223.676, 472.025 222.702, 469 222.018 C 465.975 221.334, 462.600 220.218, 461.500 219.538 C 460.400 218.858, 457.700 217.977, 455.500 217.580 C 453.300 217.183, 449.100 215.734, 446.167 214.360 C 443.233 212.987, 438.621 211.337, 435.917 210.695 C 433.212 210.052, 431 209.183, 431 208.763 C 431 208.344, 430.121 208, 429.047 208 C 427.973 208, 426.060 207.588, 424.797 207.085 C 423.534 206.582, 419.125 205.147, 415 203.896 C 405.940 201.149, 397.587 197.906, 389.377 193.950 C 386.010 192.328, 382.025 191, 380.522 191 C 379.019 191, 376.469 189.890, 374.856 188.533 C 372.630 186.659, 371.214 186.207, 368.973 186.655 C 366.927 187.065, 364.408 186.469, 360.761 184.714 C 357.867 183.322, 352.800 181.623, 349.500 180.938 C 346.200 180.253, 341.700 178.766, 339.500 177.634 C 332.275 173.915, 322.002 166.871, 320.957 164.920 C 320.394 163.868, 318.261 162.136, 316.217 161.072 C 314.172 160.009, 308.929 156.211, 304.565 152.634 C 300.201 149.057, 294.576 145.366, 292.065 144.432 C 287.359 142.680, 282.932 139.378, 283.294 137.889 C 283.407 137.423, 281.187 135.571, 278.360 133.771 C 275.532 131.972, 270.806 128.889, 267.856 126.920 C 264.907 124.952, 261.370 123.054, 259.997 122.703 C 256.878 121.906, 247.747 114.437, 246.782 111.893 C 246.387 110.852, 245.538 110, 244.894 110 C 244.250 110, 241.804 108.313, 239.459 106.250 C 237.113 104.188, 233.237 101.054, 230.847 99.286 C 228.456 97.518, 223.800 94.072, 220.500 91.627 C 217.200 89.183, 212.513 85.341, 210.084 83.091 C 207.655 80.841, 204.921 79, 204.009 79 C 201.192 79, 187.912 74.149, 180.700 70.484 C 176.927 68.568, 173.231 67, 172.485 67 C 171.740 67, 167.927 63.962, 164.013 60.250 C 158.799 55.305, 155.640 51.171, 152.198 44.791 C 147.558 36.190, 132.575 17.166, 130.355 17.056 C 129.725 17.025, 128.150 15.883, 126.855 14.517 C 125.560 13.152, 123.993 12.027, 123.372 12.017 C 122.752 12.008, 121.739 11.390, 121.120 10.645 C 117.375 6.133, 92.857 3.123, 80.392 5.646 M 157.951 303.798 C 155.062 304.041, 154.053 304.747, 152.519 307.594 C 151.483 309.518, 149.658 312.083, 148.463 313.296 C 144.587 317.227, 135.397 332.388, 134.323 336.622 C 132.907 342.204, 133.991 343.649, 140.624 345.026 C 146.771 346.302, 150.823 346.009, 158.700 343.719 C 165.718 341.679, 168.772 339.318, 177.268 329.368 C 191.940 312.183, 192.256 311.233, 184.739 306.928 C 181.336 304.979, 178.627 304.401, 171 304 C 165.775 303.725, 159.903 303.634, 157.951 303.798" fill="none" stroke="#000" stroke-width="2px" fill-rule="evenodd"/>
</svg>
