<svg xmlns="http://www.w3.org/2000/svg" width="500" height="389" viewBox="0 0 500 389" version="1.1">
	<path d="M 88 34.014 C 84.975 34.498, 81.425 34.712, 80.111 34.488 C 78.796 34.265, 76.784 34.738, 75.638 35.541 C 74.492 36.343, 73.013 37, 72.351 37 C 71.688 37, 67.769 38.560, 63.641 40.467 C 55.487 44.233, 43.810 54.636, 42.679 59.142 C 42.087 61.500, 37.717 65.108, 27.500 71.673 C 14.091 80.289, 1 91.396, 1 94.157 C 1 95.299, 2.745 95.421, 10.748 94.836 C 16.109 94.443, 28.369 94.217, 37.992 94.333 L 55.487 94.544 57.484 97.590 C 58.582 99.266, 61.622 102.326, 64.240 104.391 C 66.858 106.456, 69 108.550, 69 109.043 C 69 109.537, 70.082 112.317, 71.405 115.220 C 72.864 118.424, 74.258 124.236, 74.951 130 C 75.579 135.225, 76.522 139.650, 77.046 139.833 C 77.571 140.017, 78.038 142.717, 78.084 145.833 C 78.235 155.943, 79.408 162.268, 83.395 174.472 C 84.828 178.857, 86.018 183.132, 86.040 183.972 C 86.094 186.033, 90.535 196.221, 91.204 195.819 C 92.065 195.302, 98.705 204.485, 101.601 210.199 C 111.767 230.261, 130.603 250.630, 150.314 262.878 C 154.062 265.207, 157.889 267.424, 158.820 267.806 C 160.498 268.495, 183.019 281.109, 190.289 285.434 L 194.078 287.687 179.289 293.950 C 171.155 297.395, 162.700 301.003, 160.500 301.968 C 154.851 304.446, 146.559 306.062, 143.070 305.364 C 140.998 304.950, 139.070 305.412, 136.660 306.901 C 134.201 308.421, 131.176 309.126, 126.104 309.363 C 120.907 309.606, 118.439 310.197, 116.932 311.561 C 115.131 313.192, 112.383 313.517, 95.185 314.136 C 76.053 314.825, 67.781 316.009, 58.124 319.444 C 55.718 320.300, 51.635 321, 49.052 321 C 44.243 321, 39.065 322.392, 28.500 326.526 C 25.200 327.817, 19.476 330.036, 15.780 331.456 C 12.084 332.877, 7.036 335.268, 4.562 336.770 L 0.063 339.500 0.032 357.309 C 0.007 371.273, 0.270 374.966, 1.250 374.411 C 1.937 374.023, 3.850 372.731, 5.500 371.540 C 10.063 368.246, 24.875 360.535, 30.500 358.524 C 33.250 357.540, 38.425 355.600, 42 354.210 C 46.598 352.424, 50.754 351.621, 56.204 351.468 C 61.930 351.307, 64.815 350.717, 67.442 349.167 C 72.844 345.979, 85.543 344, 100.590 344 L 113.959 344 115.882 347.750 C 118.198 352.266, 121.512 355.493, 125.315 356.933 C 129.856 358.654, 130.542 358.167, 126.984 355.750 C 125.126 354.488, 122.887 351.641, 121.884 349.267 L 120.096 345.034 127.798 345.560 C 141.238 346.479, 150.834 348.126, 151.405 349.612 C 151.698 350.376, 152.626 351, 153.469 351 C 155.854 351, 155.289 353.194, 151.821 357.401 C 148.393 361.560, 142.137 364.943, 137.809 364.978 C 134.176 365.008, 133.290 366.784, 136.506 367.591 C 140.419 368.573, 146.647 367.248, 150.982 364.512 C 154.521 362.277, 162 353.759, 162 351.962 C 162 350.455, 174.110 354.020, 194.750 361.604 C 197.726 362.697, 199 363.739, 199 365.080 C 199 366.133, 200.378 369.911, 202.062 373.476 C 204.757 379.179, 205.586 380.095, 208.966 381.108 C 213.502 382.467, 220 381.528, 220 379.514 C 220 377.579, 221.646 376.753, 224.009 377.503 C 226.870 378.411, 226.470 380.458, 222.750 383.945 C 219.884 386.631, 219.742 386.991, 221.554 386.995 C 222.684 386.998, 225.719 385.662, 228.298 384.026 L 232.988 381.052 239.244 383.712 C 242.685 385.174, 246.388 386.963, 247.473 387.686 C 248.977 388.688, 255.700 389, 275.831 389 L 302.217 389 296.403 384.250 C 293.206 381.637, 289.288 378.150, 287.697 376.500 C 284.734 373.427, 279.453 369.926, 268 363.444 C 264.425 361.420, 259.925 358.756, 258 357.524 C 244.145 348.653, 239.218 345.202, 237.282 343.010 C 234.419 339.771, 234.287 334.128, 237 331 C 238.100 329.732, 239 328.088, 239 327.347 C 239 326.606, 239.420 326, 239.933 326 C 240.446 326, 241.178 324.988, 241.560 323.750 C 241.942 322.512, 244.560 318.753, 247.377 315.395 C 250.195 312.037, 254.928 306.322, 257.896 302.696 C 263.489 295.862, 264.646 295.016, 269.228 294.407 C 271.756 294.071, 276 290.883, 276 289.321 C 276 288.036, 283.335 281.924, 283.917 282.724 C 284.238 283.164, 285.770 285.474, 287.322 287.857 C 290.974 293.463, 291.990 292.553, 288.451 286.844 C 286.970 284.455, 286.297 283.007, 286.956 283.627 C 287.819 284.439, 289.316 284.463, 292.327 283.714 C 294.622 283.142, 299.752 282.781, 303.727 282.910 C 308.985 283.082, 311.565 282.717, 313.199 281.573 C 316.357 279.361, 321.276 279.611, 331.051 282.479 C 335.698 283.842, 341.839 284.967, 344.699 284.979 C 349.392 284.998, 368.118 287.109, 377 288.621 C 378.925 288.949, 383.425 289.362, 387 289.540 C 390.575 289.718, 394.929 290.303, 396.675 290.840 C 398.421 291.378, 400.066 291.601, 400.330 291.337 C 401.044 290.622, 450.168 313.369, 460 318.967 C 471.359 325.435, 490.698 334.147, 494.822 334.654 L 498.145 335.063 494.822 330.782 C 492.995 328.427, 490.938 326.140, 490.250 325.700 C 488.534 324.602, 488.670 321, 490.427 321 C 491.213 321, 492.737 322.121, 493.815 323.492 L 495.775 325.984 496.234 322.858 C 496.590 320.433, 496.281 319.625, 494.858 319.253 C 493.848 318.989, 493.250 318.405, 493.528 317.955 C 493.805 317.506, 493.606 316.875, 493.085 316.553 C 492.564 316.231, 491.873 316.396, 491.550 316.920 C 491.003 317.804, 472.634 308.857, 467 304.962 C 463.734 302.705, 458.438 299.693, 448 294.157 C 436.009 287.798, 430.173 284.042, 432.250 284.019 C 435.720 283.981, 433.887 280.903, 428.250 277.302 C 425.087 275.282, 421.904 273.036, 421.175 272.311 C 418.895 270.042, 411.718 265.379, 406.286 262.636 C 403.418 261.188, 399.593 258.660, 397.786 257.018 C 395.979 255.377, 393.690 253.329, 392.700 252.467 C 391.709 251.604, 388.109 249.699, 384.700 248.233 C 381.290 246.767, 377.888 244.972, 377.139 244.244 C 376.391 243.517, 373.565 241.800, 370.860 240.429 C 368.155 239.058, 361.117 233.303, 355.221 227.639 C 349.324 221.975, 342.025 215.410, 339 213.049 C 333.773 208.970, 329.389 205.114, 312.623 189.852 C 308.606 186.195, 303.375 182.212, 300.999 181 C 298.623 179.787, 292.814 176.199, 288.089 173.025 C 283.365 169.851, 276.350 165.228, 272.500 162.751 C 268.365 160.091, 262.873 155.231, 259.080 150.874 C 249.475 139.841, 243.975 134.784, 233.754 127.589 C 228.664 124.005, 222.475 119.269, 220 117.063 C 217.525 114.857, 214.934 112.569, 214.242 111.979 C 211.693 109.805, 190.690 95.892, 186.169 93.382 C 183.601 91.957, 179.700 89.330, 177.500 87.543 C 175.300 85.757, 172.023 83.535, 170.217 82.605 C 168.412 81.675, 167.164 80.544, 167.444 80.091 C 167.724 79.638, 167.063 78.462, 165.976 77.479 C 164.889 76.495, 164 75.012, 164 74.183 C 164 65.244, 135.759 42.170, 117.921 36.535 C 109.267 33.801, 96.200 32.700, 88 34.014 M 212.388 291.819 C 212.667 292.270, 211.681 292.470, 210.197 292.264 C 206.693 291.778, 193.687 297.055, 178.500 305.124 C 167.031 311.218, 166.496 311.644, 166.400 314.750 C 166.309 317.700, 166.996 318.492, 169.305 318.100 C 169.748 318.025, 171.085 318.647, 172.277 319.482 C 173.470 320.317, 175.713 321, 177.262 321 C 178.812 321, 181.749 321.851, 183.790 322.892 C 185.830 323.933, 191.083 325.986, 195.462 327.456 C 201.782 329.577, 203.905 329.909, 205.759 329.064 C 207.043 328.479, 210.516 328, 213.476 328 C 216.492 328, 219.438 327.438, 220.179 326.721 C 220.905 326.017, 223.581 324.138, 226.125 322.545 C 228.669 320.952, 232.944 316.958, 235.625 313.670 C 238.306 310.382, 242.188 305.709, 244.250 303.285 C 248.658 298.106, 248.991 296.535, 245.496 297.412 C 244.036 297.778, 242.054 297.460, 240.746 296.649 C 239.511 295.883, 235.575 295.172, 232 295.069 C 228.425 294.965, 222.640 294.007, 219.145 292.940 C 211.924 290.736, 211.695 290.698, 212.388 291.819" fill="none" stroke="#000" stroke-width="2px" fill-rule="evenodd"/>
</svg>
