<svg xmlns="http://www.w3.org/2000/svg" width="500" height="327" viewBox="0 0 500 327" version="1.1">
	<path d="M 261.500 5.462 C 254.122 7.107, 244.254 10.794, 236.413 14.836 C 233.161 16.513, 229.278 18.181, 227.785 18.542 C 223.928 19.476, 211.939 29.839, 209.276 34.540 C 207.868 37.025, 207.027 40.204, 207.016 43.075 C 207.001 47.257, 207.545 48.289, 213.340 55.075 C 226.707 70.727, 239.348 92.093, 244.377 107.533 C 245.720 111.655, 247.883 130.920, 247.977 139.592 C 247.999 141.618, 247.407 141.705, 229.250 142.348 C 200.985 143.349, 168.281 147.624, 154.650 152.098 C 146.608 154.738, 140.714 159.563, 138.523 165.300 C 136.884 169.592, 137.184 171.777, 139.993 176 C 140.542 176.825, 141.947 180.146, 143.116 183.381 C 146.065 191.541, 150.624 196.233, 159.001 199.730 C 165.190 202.314, 166.429 203.329, 170.928 209.500 C 173.689 213.287, 175.793 216.540, 175.604 216.729 C 175.415 216.919, 173.064 216.209, 170.380 215.153 C 163.610 212.489, 147.013 209.236, 133.688 207.962 C 127.535 207.374, 118 206.240, 112.500 205.443 C 90.859 202.306, 83.760 204.109, 63 218.013 C 59.524 220.341, 52.164 223.460, 43 226.487 C 21.957 233.439, 3 241.153, 3 242.765 C 3 243.534, 22.072 242.094, 32 240.575 C 37.089 239.796, 41.184 239.625, 42.205 240.148 C 43.143 240.629, 49.893 240.980, 57.205 240.928 C 77.939 240.782, 81.619 240.559, 83.110 239.355 C 83.875 238.738, 88.550 237.960, 93.500 237.626 C 106.543 236.747, 113.973 235.565, 118.372 233.669 C 127.845 229.586, 146.008 232.511, 154.549 239.494 C 156.776 241.315, 161.421 244.285, 164.872 246.093 C 170.430 249.007, 172.078 249.389, 179.323 249.441 C 183.820 249.473, 189.417 249.104, 191.760 248.621 L 196.020 247.741 202.883 262.121 C 206.657 270.029, 210.287 278.188, 210.950 280.250 C 212.741 285.824, 214.393 285.018, 213.589 278.963 C 213.029 274.740, 206.144 252.635, 203.556 246.750 C 203.086 245.683, 203.211 245, 203.877 245 C 205.673 245, 221.930 270.570, 228.845 284.271 C 232.390 291.295, 235.488 296.845, 235.729 296.604 C 235.970 296.363, 235.230 294.047, 234.084 291.456 C 232.938 288.865, 232 285.695, 232 284.410 C 232 281.425, 228.326 272.038, 226.260 269.744 C 225.391 268.778, 224.958 267.708, 225.300 267.367 C 225.641 267.026, 225.236 265.341, 224.400 263.623 L 222.880 260.500 224.922 263 C 226.045 264.375, 226.753 266.086, 226.494 266.802 C 226.235 267.518, 226.432 267.851, 226.933 267.542 C 228.694 266.453, 240.606 288.539, 245.289 301.574 C 246.687 305.465, 248.375 311.419, 249.042 314.806 C 249.708 318.193, 250.857 321.760, 251.595 322.732 C 252.827 324.355, 252.939 324.286, 252.968 321.886 C 253.028 316.999, 251.009 308.524, 247.398 298.500 C 239.911 277.718, 238.874 275.254, 233.598 265.714 C 223.952 248.272, 225.288 248.672, 237.309 266.825 C 246.904 281.315, 253.433 293.023, 258.041 304 C 261.591 312.455, 264.627 316.668, 263.447 311.500 C 262.606 307.819, 249.728 277.200, 246.414 271 L 244.007 266.500 246.532 269.500 C 252.514 276.609, 265.454 296.957, 269.792 306.075 C 274.255 315.454, 276 317.833, 276 314.538 C 276 310.659, 266.352 286.749, 261.358 278.250 C 259.015 274.262, 257.413 271.015, 257.799 271.033 C 258.739 271.077, 268.725 284.797, 274.143 293.488 C 278.018 299.704, 278.534 300.186, 278.805 297.854 C 279.166 294.757, 275.216 284.605, 271.122 278.105 C 269.526 275.572, 266.078 269.675, 263.459 265 C 260.840 260.325, 258.045 255.375, 257.249 254 C 256.452 252.625, 261.182 257.012, 267.761 263.750 C 274.339 270.488, 280.234 276, 280.861 276 C 284.161 276, 280.062 265.674, 271.830 253.250 C 269.188 249.262, 267.278 246, 267.586 246 C 267.894 246, 271.309 248.475, 275.175 251.500 C 283.165 257.752, 286.631 258.672, 285.535 254.250 C 284.632 250.604, 279.578 240.700, 275.874 235.317 C 274.241 232.943, 273.208 231, 273.580 231 C 273.952 231, 276.674 232.383, 279.628 234.073 C 282.583 235.764, 285.787 236.995, 286.750 236.810 C 288.953 236.386, 289.220 232.785, 287.436 227.539 C 286.695 225.361, 286.206 223.461, 286.350 223.317 C 287.007 222.659, 303.127 221.290, 305.659 221.676 L 308.500 222.110 306 220.590 C 303.504 219.073, 303.507 219.071, 307.685 219.035 C 309.987 219.016, 313.077 218.541, 314.551 217.980 C 316.026 217.420, 321.343 216.528, 326.366 215.998 C 335.416 215.045, 361.256 208.540, 365.924 206.041 C 369.782 203.976, 388.939 203.404, 392.545 205.246 C 394.170 206.077, 396.857 206.551, 398.516 206.299 C 401.028 205.918, 404.047 207.486, 416.569 215.671 C 424.839 221.077, 434.052 227.064, 437.042 228.976 C 440.031 230.888, 444.920 234.442, 447.905 236.873 C 450.890 239.305, 455.395 242.076, 457.916 243.031 C 468.500 247.042, 481.741 254.128, 488.914 259.620 C 493.865 263.411, 496 263.877, 496 261.168 C 496 259.395, 493.267 257.111, 484.163 251.279 C 481.778 249.750, 477.577 247.037, 474.826 245.250 C 472.076 243.462, 469.190 242, 468.413 242 C 467.636 242, 467 241.546, 467 240.991 C 467 239.819, 475.991 240.651, 483.232 242.494 C 487.438 243.564, 488.143 243.499, 489.580 241.912 C 491.575 239.707, 490.881 238.434, 487.271 237.678 C 485.461 237.300, 482.812 234.991, 479.631 231.021 C 476.952 227.678, 473.915 224.490, 472.881 223.936 C 471.846 223.383, 471 222.547, 471 222.078 C 471 221.037, 476.350 219.857, 480.717 219.935 C 482.889 219.975, 484.262 219.380, 484.946 218.102 C 486.587 215.035, 483.996 213.928, 474.847 213.788 C 470.256 213.718, 465.971 213.259, 465.323 212.769 C 463.806 211.619, 465.363 206.886, 468.064 204.442 C 469.129 203.478, 470 202.085, 470 201.345 C 470 200.605, 470.477 200, 471.059 200 C 471.641 200, 471.856 199.577, 471.536 199.059 C 471.201 198.516, 469.168 198.916, 466.727 200.006 C 463.200 201.582, 462.297 202.590, 461.271 206.093 C 460.596 208.401, 459.851 210.482, 459.617 210.716 C 458.281 212.052, 414.693 187.807, 409.315 182.736 C 406.244 179.841, 406.187 179.644, 407.744 177.268 C 409.048 175.278, 409.127 174.432, 408.152 172.871 C 407.098 171.184, 407.329 170.721, 409.975 169.219 C 411.642 168.274, 413.259 166.712, 413.570 165.749 C 413.881 164.786, 414.964 163.554, 415.978 163.012 C 417.061 162.432, 418.099 160.372, 418.498 158.013 C 419.034 154.836, 419.626 153.973, 421.338 153.872 C 426.146 153.589, 427.734 153.220, 431.169 151.590 C 433.142 150.654, 435.804 148.773, 437.083 147.411 L 439.409 144.935 433.955 144.863 C 430.955 144.824, 419.440 144.726, 408.367 144.646 C 390.095 144.513, 388.038 144.324, 386.117 142.595 C 384.953 141.547, 384.004 140.422, 384.009 140.095 C 384.014 139.768, 387.010 139.413, 390.667 139.307 C 399.108 139.061, 400.524 137.845, 398.101 132.921 L 396.340 129.342 398.621 129.778 C 400.790 130.193, 400.885 129.962, 400.553 125.080 C 400.224 120.248, 400.378 119.856, 403.179 118.408 C 405.900 117, 406.099 116.548, 405.518 113.109 L 404.883 109.349 411.692 109.532 C 420.589 109.771, 421.346 109.458, 419.327 106.376 C 417.498 103.584, 418.210 102.099, 420.476 103.980 C 422.593 105.737, 422.379 104.349, 419.918 100.368 L 417.837 97 420.418 97 C 423.250 97, 423.607 95.727, 421.979 91.443 C 421.233 89.484, 421.292 88.353, 422.196 87.264 C 423.211 86.040, 423.035 85.447, 421.218 83.975 C 418.120 81.467, 418.411 81, 423.071 81 C 427.902 81, 430.570 78.919, 429.130 76.274 C 427.842 73.908, 422.513 68.970, 417.100 65.125 L 412.700 62 415.600 61.872 C 423.349 61.531, 425.470 60.667, 424.534 58.229 C 424.203 57.366, 424.439 56.347, 425.059 55.964 C 426.580 55.023, 422.375 52.130, 411.400 46.565 L 402.500 42.053 408 42.539 C 413.717 43.044, 423.018 40.601, 423.713 38.412 C 424.179 36.944, 402.254 27.126, 388.500 22.644 C 379.841 19.822, 345.456 12.059, 334.249 10.395 C 328.337 9.518, 322.794 8.422, 321.930 7.961 C 316.699 5.167, 271.256 3.288, 261.500 5.462 M 370.236 186.654 C 368.441 187.539, 365.120 190.115, 362.856 192.379 L 358.741 196.494 361.975 197.422 C 364.883 198.256, 372.581 197.691, 391.272 195.274 C 398.078 194.393, 401.505 195.734, 408.382 201.967 C 421.633 213.975, 451.877 232.809, 455.872 231.541 C 456.835 231.235, 459.079 229.482, 460.860 227.645 L 464.098 224.304 455.799 218.280 C 441.375 207.809, 410.979 192.047, 401.145 189.938 C 398.425 189.354, 395.409 188.005, 394.444 186.938 C 392.938 185.274, 391.336 185.003, 383.095 185.023 C 376.335 185.039, 372.536 185.521, 370.236 186.654 M 158.500 215.688 C 165.856 222.399, 172.401 226, 177.243 226 C 180.952 226, 178.688 223.946, 170.750 220.108 C 162.372 216.057, 156.636 213.987, 158.500 215.688 M 311.269 215.693 C 312.242 215.947, 313.592 215.930, 314.269 215.656 C 314.946 215.382, 314.150 215.175, 312.500 215.195 C 310.850 215.215, 310.296 215.439, 311.269 215.693 M 170.083 217.394 C 170.313 217.611, 172.877 219.182, 175.781 220.886 C 179.965 223.341, 180.854 223.596, 180.060 222.113 C 179.509 221.083, 177.236 219.511, 175.009 218.620 C 171.078 217.047, 169.230 216.587, 170.083 217.394 M 464.494 231.006 C 463.496 232.110, 462.955 233.289, 463.293 233.627 C 464.223 234.557, 473.249 236.085, 473.909 235.424 C 474.464 234.869, 468.128 229.082, 466.905 229.027 C 466.578 229.012, 465.493 229.903, 464.494 231.006" fill="none" stroke="#000" stroke-width="2px" fill-rule="evenodd"/>
</svg>
