<svg xmlns="http://www.w3.org/2000/svg" width="500" height="475" viewBox="0 0 500 475" version="1.1">
	<path d="M 451.380 6.750 C 447.660 18.432, 436.517 41.437, 435.025 40.515 C 434.559 40.228, 431.257 43.482, 427.686 47.746 C 420.595 56.215, 415 61.855, 415 60.534 C 415 60.071, 416.161 57.238, 417.580 54.238 C 421.096 46.808, 421.739 42.497, 419.462 41.624 C 418.411 41.220, 416.963 41.629, 415.838 42.646 C 414.214 44.117, 407.106 57.720, 405.726 62 C 403.636 68.484, 381.361 91.304, 377.623 90.791 C 376.070 90.578, 375.500 91.037, 375.500 92.500 C 375.500 94.353, 373.001 97.580, 367.757 102.500 C 366.584 103.600, 362.240 107.987, 358.102 112.250 C 353.131 117.370, 349.818 120, 348.339 120 C 347.107 120, 345.740 120.563, 345.300 121.250 C 343.577 123.942, 332.056 133.001, 330.329 133.021 C 326.998 133.059, 316.699 140.626, 300.888 154.651 C 292.302 162.268, 281.739 170.975, 277.416 174 C 273.092 177.025, 267.068 181.793, 264.028 184.595 C 260.987 187.397, 256.925 190.547, 255 191.595 C 253.075 192.643, 250.427 194.287, 249.115 195.250 C 247.630 196.340, 244.927 197, 241.950 197 C 237.530 197, 236.868 196.657, 233.164 192.449 C 227.344 185.837, 226.648 179.261, 230.752 169.647 L 232.396 165.795 237.176 166.429 C 240.903 166.923, 242.833 166.616, 245.938 165.032 C 250.557 162.675, 252.644 162.524, 256.729 164.250 C 260.105 165.676, 275 165.388, 275 163.896 C 275 163.376, 273.875 162.523, 272.500 162 C 269.793 160.971, 269.406 159.994, 271.055 158.345 C 271.636 157.764, 272.873 155.762, 273.805 153.895 C 275.189 151.122, 276.150 150.445, 279.044 150.202 C 280.993 150.038, 283.918 148.802, 285.544 147.456 C 288.297 145.177, 288.380 144.915, 286.749 143.643 C 285.786 142.892, 283.946 142.479, 282.661 142.724 C 281.008 143.040, 279.422 142.269, 277.239 140.086 C 275.542 138.388, 273.444 137, 272.577 137 C 269.920 137, 270.712 132.589, 273.775 130.324 C 275.301 129.196, 279.239 127.496, 282.525 126.547 C 290.642 124.202, 294.682 120.243, 290.568 118.664 C 289.780 118.362, 288.992 116.626, 288.818 114.807 C 288.531 111.825, 288.205 111.516, 285.500 111.667 C 274.525 112.280, 244.695 111.095, 243.603 110.003 C 242.821 109.221, 242.832 108.718, 243.643 108.208 C 244.262 107.819, 244.939 106.600, 245.146 105.500 C 245.354 104.400, 247.205 102.600, 249.259 101.500 C 251.314 100.400, 252.996 98.931, 252.997 98.236 C 252.999 97.541, 253.402 96.191, 253.892 95.236 C 254.383 94.281, 255.251 92.312, 255.821 90.860 C 256.762 88.461, 260.166 86.627, 267.817 84.395 C 268.604 84.166, 269.006 82.902, 268.817 81.256 C 268.509 78.580, 268.320 78.500, 262.336 78.500 C 258.945 78.500, 255.847 78.177, 255.451 77.782 C 254.453 76.788, 256.870 71.264, 258.592 70.603 C 260.143 70.008, 260.538 64.450, 259.092 63.557 C 258.593 63.248, 256.006 64.714, 253.342 66.814 C 246.594 72.135, 225.441 83.774, 224.404 82.738 C 224.172 82.505, 223.905 79.555, 223.812 76.183 C 223.688 71.668, 224.086 69.563, 225.322 68.197 C 227.684 65.586, 227.409 63.314, 224.500 61.408 C 221.663 59.549, 221.265 56.855, 223.548 54.960 C 226.124 52.823, 224.953 49.542, 221.500 49.221 C 219.044 48.992, 218.183 49.505, 216.750 52.052 C 215.788 53.762, 215 55.778, 215 56.531 C 215 58.339, 209.112 67.020, 207.454 67.656 C 206.740 67.930, 205.209 67.647, 204.050 67.027 C 202.198 66.035, 202.022 65.317, 202.587 61.054 C 203.172 56.643, 203.030 56.144, 201.004 55.501 C 197.041 54.243, 193.200 61.262, 196.399 63.916 C 197.910 65.170, 197.643 66.076, 194.355 70.864 C 194.218 71.064, 192.896 70.277, 191.418 69.114 C 188.165 66.555, 187.214 66.497, 184.773 68.706 C 183.234 70.098, 182.534 70.190, 180.958 69.206 C 178.032 67.379, 176.439 67.742, 175.172 70.523 C 174.464 72.076, 172.909 73.268, 171.125 73.625 C 166.188 74.612, 165.665 77.015, 165.665 98.747 C 165.665 119.180, 166.918 129.371, 169.553 130.382 C 170.349 130.687, 171 131.917, 171 133.114 C 171 135.531, 172.024 135.537, 147.500 132.988 C 134.319 131.619, 100.031 132.653, 98.142 134.477 C 97.145 135.439, 96.971 137.151, 97.486 140.899 C 98.324 146.991, 100.172 147.912, 106.840 145.558 C 111.070 144.064, 115 144.708, 115 146.896 C 115 147.350, 116.194 149.471, 117.653 151.610 C 119.113 153.750, 121.310 159.100, 122.535 163.500 C 125.534 174.264, 129.217 182.267, 133.440 187.201 C 135.365 189.450, 137.439 192.801, 138.048 194.645 C 139.312 198.475, 142.674 199.525, 141.583 195.750 C 140.932 193.497, 139.488 185.223, 136.479 166.500 C 135.596 161, 133.753 154.116, 132.384 151.202 C 128.264 142.430, 130.947 139.558, 142.269 140.618 C 149.084 141.257, 159.680 145.063, 167.500 149.683 C 172.204 152.462, 172.536 152.931, 173.113 157.591 C 173.450 160.315, 174.863 166.584, 176.253 171.522 C 178.618 179.921, 181.713 198.641, 181.293 202 C 181.190 202.825, 180.884 210.396, 180.614 218.823 C 180.320 228.012, 179.671 234.692, 178.994 235.507 C 178.373 236.255, 175.083 237.523, 171.683 238.325 C 168.282 239.126, 161 241.004, 155.500 242.498 C 150 243.992, 143.700 245.598, 141.500 246.067 C 133.401 247.794, 120.492 253.803, 118.718 256.671 C 117.493 258.653, 99.630 266.990, 96.401 267.087 C 94.805 267.135, 90.608 268.148, 87.074 269.337 C 81.741 271.132, 80.621 271.898, 80.485 273.842 C 80.285 276.697, 79.432 277.250, 70.525 280.308 C 58.111 284.569, 56.286 285.047, 54.730 284.450 C 53.890 284.127, 52.905 284.344, 52.542 284.932 C 52.179 285.519, 49.798 286, 47.251 286 C 44.704 286, 40.016 286.538, 36.833 287.195 C 31.421 288.313, 30.897 288.252, 28.772 286.258 C 25.269 282.971, 13.479 277.814, 10.299 278.179 C 5.944 278.679, 6.052 283.223, 10.565 289.329 C 16.219 296.979, 25.260 299.985, 32.050 296.474 C 33.672 295.635, 35 294.285, 35 293.474 C 35 292.663, 35.671 292, 36.492 292 C 37.312 292, 38.545 291.100, 39.232 290 C 40.832 287.438, 45.142 287.397, 46.723 289.928 C 47.795 291.644, 47.594 291.930, 44.908 292.520 C 40.451 293.499, 41.541 296.099, 46.961 297.416 C 50.465 298.267, 51.551 299.037, 52.017 301 C 52.506 303.057, 53.222 303.507, 56.056 303.539 C 59.123 303.574, 62.270 304.043, 69.750 305.577 C 72.569 306.155, 72.692 309.064, 70 311.500 C 67.533 313.733, 67.406 316.006, 69.750 315.983 C 73.178 315.948, 89.222 313.049, 92.457 311.879 C 97.752 309.965, 99.350 311.179, 98.551 316.512 C 98.180 318.980, 98.243 320.991, 98.689 320.979 C 99.135 320.967, 103.325 319.791, 108 318.364 C 112.675 316.937, 117.737 315.545, 119.250 315.271 C 120.762 314.997, 122 314.197, 122 313.493 C 122 312.790, 122.712 311.941, 123.582 311.607 C 125.826 310.746, 126 310.814, 126 312.567 C 126 313.428, 127.205 315.713, 128.678 317.644 C 131.354 321.152, 131.360 321.155, 137.428 320.481 C 141.980 319.976, 144.074 319.205, 145.795 317.399 C 147.760 315.336, 148.679 315.085, 152.197 315.647 C 154.456 316.009, 157.124 317.124, 158.127 318.127 C 160.573 320.573, 164.668 321.493, 167.327 320.194 C 168.522 319.610, 172.087 318.845, 175.250 318.494 C 179.710 317.999, 181.342 318.199, 182.528 319.386 C 183.370 320.227, 184.674 320.678, 185.428 320.389 C 186.181 320.100, 187.095 320.344, 187.458 320.932 C 188.248 322.210, 197.197 322.369, 198.550 321.129 C 200.700 319.158, 204.770 319.031, 207.129 320.862 C 212.427 324.972, 219.451 325.040, 226.901 321.053 C 229.806 319.498, 235.179 320.435, 237.393 322.882 C 239.647 325.372, 241.251 331.149, 240.029 332.371 C 239.505 332.895, 235.347 334.713, 230.788 336.412 C 222.555 339.480, 222.480 339.540, 219.401 345.500 C 217.696 348.800, 216.064 353.637, 215.773 356.250 C 214.950 363.658, 217.360 362.263, 220.525 353.500 C 221.518 350.750, 222.725 348.054, 223.207 347.508 C 224.741 345.772, 225.762 348.933, 225.220 353.743 C 224.608 359.174, 226.544 358.945, 227.573 353.465 C 228.501 348.517, 230.977 349.013, 234 354.753 C 235.809 358.187, 237.191 359.593, 239 359.838 C 240.375 360.023, 242.611 361.148, 243.970 362.338 C 246.187 364.279, 246.292 364.296, 244.998 362.500 C 244.205 361.400, 241.895 358.639, 239.863 356.364 C 235.067 350.994, 232.804 346.525, 233.190 343.184 C 233.460 340.844, 234.314 340.241, 239.843 338.483 C 247.704 335.984, 249.300 334.055, 248.726 327.750 C 248.264 322.675, 249.133 321.931, 253.066 324.035 C 254.566 324.838, 255 326.148, 255 329.876 C 255 332.519, 255.670 336.891, 256.489 339.591 C 257.308 342.291, 258.012 346.300, 258.053 348.500 C 258.111 351.671, 258.300 352.071, 258.965 350.430 C 259.994 347.887, 264.944 344.501, 265.942 345.657 C 268.615 348.754, 270.090 356.290, 273.153 382.500 C 274.542 394.387, 274.931 451.891, 273.658 457.224 C 272.313 462.865, 273.455 465.742, 277.768 467.572 C 280.788 468.854, 282.453 468.957, 286.500 468.116 C 295.150 466.316, 300.986 465.974, 302.877 467.155 C 304.331 468.063, 305.970 467.648, 311.319 465.015 C 315.425 462.993, 319.775 461.651, 322.728 461.496 C 325.353 461.358, 327.803 461.190, 328.173 461.122 C 328.544 461.055, 330.828 459.488, 333.249 457.640 C 336.175 455.406, 339.303 454.037, 342.576 453.557 C 347.788 452.792, 353 449.015, 353 446.002 C 353 444.397, 357.082 443.016, 366.250 441.521 C 369.368 441.013, 370 440.506, 370 438.518 C 370 436.350, 370.323 436.178, 373.445 436.685 C 376.353 437.157, 377.327 436.781, 379.695 434.273 C 381.238 432.639, 383.257 431.035, 384.182 430.708 C 385.180 430.356, 385.994 428.801, 386.182 426.884 C 386.471 423.949, 387.002 423.482, 392 421.767 C 396.512 420.220, 398.160 418.970, 401.170 414.812 C 404.292 410.501, 404.683 409.398, 403.789 407.435 C 402.513 404.635, 403.360 402, 405.535 402 C 408.342 402, 414 396.947, 414 394.440 C 414 393.163, 414.450 391.840, 415 391.500 C 415.550 391.160, 416 390.309, 416 389.609 C 416 387.936, 405.255 380, 402.989 380 C 402.022 380, 400.535 378.939, 399.685 377.641 C 398.388 375.662, 380.924 364, 379.257 364 C 377.333 364, 369.922 359.330, 369.441 357.814 C 369.119 356.800, 365.778 353.514, 362.016 350.512 C 358.253 347.511, 351.648 342.052, 347.338 338.381 C 343.027 334.710, 338.091 331.114, 336.370 330.390 C 334.648 329.666, 332.154 327.783, 330.828 326.207 C 329.501 324.630, 325.285 320.513, 321.458 317.056 C 317.631 313.599, 314.318 310.278, 314.096 309.674 C 313.874 309.071, 311.398 305.860, 308.594 302.539 C 296.445 288.151, 293.736 282.825, 298 281.710 C 299.100 281.423, 300.014 280.358, 300.032 279.344 C 300.094 275.726, 302.255 274.420, 308.500 274.222 C 313.818 274.054, 314.293 274.191, 312.679 275.429 C 311.022 276.699, 311.352 276.935, 316.332 278.050 L 321.807 279.275 325.885 275.888 C 328.129 274.024, 329.972 271.767, 329.982 270.871 C 330.002 269.106, 332.311 268.017, 341.361 265.506 C 348.945 263.401, 353.373 258.992, 352.530 254.385 C 351.634 249.491, 354.232 247.248, 363.276 245.105 C 371.936 243.053, 374.509 241.261, 376.719 235.741 C 377.701 233.290, 379.055 231.773, 380.612 231.382 C 381.926 231.053, 383 230.412, 383 229.958 C 383 229.504, 384.238 228.990, 385.750 228.816 C 387.454 228.620, 388.877 227.640, 389.491 226.241 C 390.036 224.998, 391.313 223.718, 392.329 223.395 C 395.308 222.450, 396.863 217.528, 395.636 212.930 C 394.373 208.200, 394.557 208.003, 403 205.051 C 412.471 201.740, 418 195.716, 418 188.706 C 418 187.410, 419.184 185.258, 420.632 183.924 C 423.894 180.919, 426.944 174.484, 426.993 170.500 C 427.043 166.531, 427.616 165.826, 433.500 162.502 C 436.250 160.948, 439.962 158.311, 441.750 156.642 C 444.924 153.678, 446.012 149.743, 444 148.500 C 443.450 148.160, 443 146.851, 443 145.590 C 443 143.923, 444.357 142.456, 447.983 140.201 C 454.741 136, 457.266 131.814, 456.462 126.142 C 455.871 121.965, 456.030 121.612, 460.288 117.642 C 462.732 115.364, 465.679 111.940, 466.836 110.033 L 468.942 106.567 466.875 104.367 C 464.285 101.610, 464.805 100.681, 472.500 94.302 C 483.341 85.316, 483.617 83.244, 473.503 86.774 C 460.353 91.364, 457.186 88.684, 466.680 81 C 472.143 76.580, 486.084 63.122, 491 57.524 L 493.500 54.677 488 57.691 C 477.626 63.376, 469.728 68.462, 468.688 70.129 C 467.854 71.464, 467.184 71.585, 465.323 70.737 C 464.045 70.155, 463 69.068, 463 68.320 C 463 67.573, 465.633 64.383, 468.852 61.231 C 476.799 53.448, 491.823 34.490, 490.831 33.497 C 490.440 33.106, 469.772 49.069, 464.840 53.572 C 463.377 54.907, 461.564 56, 460.812 56 C 460.060 56, 458.444 56.701, 457.221 57.558 C 455.997 58.415, 454.549 58.839, 454.002 58.501 C 452.513 57.581, 455.181 53.066, 461.482 45.842 C 464.517 42.362, 467 39.204, 467 38.824 C 467 38.444, 468.341 35.965, 469.980 33.316 C 472.612 29.061, 477 18.140, 477 15.843 C 477 13.570, 474.793 15.661, 470.238 22.250 C 461.580 34.774, 449.926 46.736, 439.027 54.287 C 433.749 57.944, 433.527 54.789, 438.569 47.771 C 440.532 45.038, 441.896 42.172, 441.601 41.401 C 441.305 40.631, 441.462 40, 441.950 40 C 444.840 40, 451.524 22.103, 452.617 11.438 C 453.241 5.348, 452.600 2.919, 451.380 6.750 M 423.722 17.683 C 422.879 19.125, 418 36.820, 418 38.438 C 418 40.818, 420.937 40.300, 421.895 37.750 C 423.043 34.694, 425.349 18.016, 424.711 17.378 C 424.430 17.097, 423.985 17.234, 423.722 17.683" fill="none" stroke="#000" stroke-width="2px" fill-rule="evenodd"/>
</svg>
