<svg xmlns="http://www.w3.org/2000/svg" width="500" height="387" viewBox="0 0 500 387" version="1.1">
	<path d="M 434 5.603 C 433.175 5.921, 429.203 7.771, 425.172 9.715 C 419.102 12.643, 417.445 13.068, 415.515 12.189 C 413.475 11.259, 413.110 11.424, 412.587 13.510 C 412.258 14.821, 410.701 16.654, 409.127 17.584 C 405.449 19.757, 402.111 26.647, 400.448 35.500 C 399.724 39.350, 397.689 46.550, 395.926 51.500 C 393.812 57.431, 392.625 62.775, 392.445 67.172 C 392.198 73.182, 391.719 74.537, 387.617 80.821 C 384.897 84.987, 381.538 88.722, 379.281 90.091 C 377.201 91.352, 373.823 93.794, 371.772 95.518 C 369.722 97.243, 365.447 99.922, 362.272 101.473 C 359.098 103.024, 353.350 106.412, 349.500 109.003 C 345.650 111.594, 340.679 114.640, 338.453 115.773 C 332.983 118.558, 319.737 129.398, 313 136.603 C 309.975 139.838, 305.801 143.638, 303.725 145.047 C 301.649 146.455, 298.774 149.384, 297.336 151.554 C 292.269 159.199, 289.936 160.955, 281.374 163.567 C 276.872 164.940, 272.032 166.974, 270.618 168.086 C 267.348 170.658, 253.682 177, 251.410 177 C 248.925 177, 243.757 181.191, 233.340 191.655 C 228.301 196.715, 222.724 201.609, 220.945 202.529 C 213.770 206.239, 192.090 223.380, 185.851 230.275 C 180.509 236.180, 177.661 238.373, 171.351 241.442 C 151.911 250.897, 146.462 254.025, 141.216 258.735 C 138.622 261.064, 134.368 263.686, 131.762 264.561 C 126.005 266.495, 125.487 267.219, 127.158 270.995 C 128.026 272.955, 129.447 274.159, 131.399 274.588 C 133.877 275.132, 134.072 275.380, 132.647 276.178 C 130.188 277.554, 131.665 279.250, 134.160 277.915 C 137.157 276.310, 135.402 278.998, 131.114 282.579 C 129.252 284.134, 127.124 286.853, 126.385 288.622 C 125.360 291.074, 122.654 293.279, 114.974 297.918 C 109.437 301.263, 104.684 304, 104.412 304 C 102.434 304, 90.249 310.685, 88.748 312.593 C 86.704 315.192, 69.799 327.033, 63.640 330.180 C 61.518 331.265, 58.314 333.620, 56.521 335.413 C 54.727 337.206, 48.589 341.827, 42.880 345.682 C 37.171 349.537, 29.396 355.709, 25.603 359.396 C 21.809 363.084, 17.461 366.744, 15.941 367.531 C 14.421 368.317, 12.349 370.011, 11.338 371.295 C 10.327 372.579, 8.262 374.439, 6.750 375.430 C 5.237 376.420, 4 377.853, 4 378.615 C 4 380.171, 8.544 380.546, 9.459 379.066 C 9.777 378.552, 12.616 377.383, 15.768 376.469 C 24.531 373.928, 32.878 370.231, 39.505 365.957 C 42.808 363.827, 47.425 361.408, 49.765 360.583 C 52.105 359.757, 57.377 357.488, 61.481 355.541 C 65.585 353.593, 69.207 352, 69.530 352 C 69.853 352, 71.778 350.678, 73.809 349.062 C 75.839 347.446, 80.425 344.735, 84 343.037 C 87.575 341.339, 91.175 339.569, 92 339.104 C 92.825 338.639, 95.525 337.318, 98 336.168 C 100.475 335.018, 105.425 332.438, 109 330.435 C 112.575 328.432, 120.900 324.107, 127.500 320.824 C 134.100 317.542, 141.075 314.047, 143 313.059 C 168.002 300.220, 183.225 293.043, 186.500 292.552 C 188.700 292.222, 195.225 291.532, 201 291.020 C 206.775 290.507, 216.225 289.369, 222 288.490 C 227.775 287.611, 234.440 286.630, 236.810 286.309 C 241.217 285.713, 244.580 286.799, 248.500 290.085 C 249.600 291.007, 252.532 292.052, 255.017 292.407 C 261.081 293.274, 264.394 296.336, 266.477 303 C 268.436 309.268, 273.089 315.563, 284.370 327.206 C 288.698 331.673, 292.854 336.799, 293.604 338.596 C 294.355 340.393, 295.414 342.138, 295.958 342.474 C 296.501 342.810, 297.425 344.865, 298.011 347.042 C 298.995 350.695, 299.347 351, 302.573 351 C 304.496 351, 309.569 352.156, 313.845 353.570 C 321.082 355.962, 326.031 359.004, 339.191 369.153 C 341.222 370.719, 343.278 372, 343.761 372 C 345.074 372, 351.479 377.952, 351.635 379.316 C 351.709 379.967, 351.821 381.962, 351.885 383.750 L 352 387 399 387 C 424.850 387, 446 386.712, 446 386.360 C 446 386.007, 445.007 383.730, 443.793 381.300 C 441.379 376.467, 442.059 373.500, 445.579 373.500 C 448.065 373.500, 449.967 377.520, 449.985 382.809 C 449.995 385.716, 450.362 386.894, 451.113 386.430 C 453.006 385.260, 451.624 375.283, 449.143 372.209 C 447.941 370.719, 446.512 368.374, 445.967 366.999 C 445.423 365.623, 442.981 363.148, 440.542 361.499 C 437.176 359.224, 435.656 357.293, 434.241 353.500 C 432.629 349.179, 431.694 348.161, 427.354 346 C 422.308 343.488, 411 332.381, 411 329.937 C 411 329.225, 410.572 327.260, 410.050 325.571 C 409.527 323.882, 408.125 319.125, 406.933 315 C 405.456 309.883, 403.891 306.706, 402.008 305 C 400.491 303.625, 398.052 300.120, 396.588 297.212 C 393.433 290.940, 390.590 289.250, 385.929 290.875 C 381.045 292.578, 363.759 292.289, 358.010 290.409 C 352.279 288.534, 349.251 285.817, 351.225 284.318 C 353.432 282.642, 360.541 281, 365.616 280.994 C 368.302 280.990, 371.625 280.392, 373 279.664 C 394.177 268.451, 394.267 268.394, 404.782 259.299 C 408.787 255.834, 412.503 253, 413.041 253 C 413.578 253, 415.867 251.660, 418.127 250.023 C 420.387 248.386, 423.701 246.772, 425.491 246.436 C 427.281 246.100, 430.058 244.627, 431.662 243.163 C 433.266 241.698, 436.586 238.932, 439.039 237.015 C 441.493 235.099, 443.950 232.974, 444.500 232.293 C 446.291 230.075, 456.326 223, 457.681 223 C 458.406 223, 459 222.540, 459 221.977 C 459 221.414, 462.337 216.998, 466.416 212.164 C 470.494 207.330, 474.657 202.011, 475.666 200.344 C 476.675 198.678, 479.863 193.835, 482.750 189.584 C 485.637 185.332, 488 181.359, 488 180.755 C 488 180.152, 488.618 178.947, 489.374 178.079 C 493.045 173.861, 495.611 142.264, 493.278 130 C 492.160 124.122, 492.383 119.448, 493.867 117.661 C 495.368 115.852, 493.766 107.922, 491.128 104.102 C 489.124 101.199, 485.284 87.051, 483.500 76 C 483.278 74.625, 482.370 69.225, 481.481 64 C 479.480 52.238, 479.930 49.143, 484.438 43.641 C 488.765 38.361, 489.075 34.431, 485.500 30.182 C 484.125 28.548, 483 26.338, 483 25.270 C 483 20.355, 471.504 9.652, 463.500 7.114 C 459.289 5.779, 436.568 4.615, 434 5.603" fill="none" stroke="#000" stroke-width="2px" fill-rule="evenodd"/>
</svg>
