<svg xmlns="http://www.w3.org/2000/svg" width="225" height="182" viewBox="0 0 225 182" version="1.1">
	<path d="M 35.500 2.610 C 30.977 3.746, 27.309 5.529, 24.022 8.187 C 21.421 10.291, 19.405 11.022, 16.022 11.088 C 13.535 11.136, 9.250 11.481, 6.500 11.854 L 1.500 12.533 7 15.236 C 15.040 19.188, 15.239 19.392, 15.713 24.132 C 15.952 26.519, 16.518 28.704, 16.971 28.987 C 17.424 29.269, 17.937 30.850, 18.110 32.500 C 18.283 34.150, 18.758 35.970, 19.165 36.545 C 19.868 37.538, 18.373 43.114, 16.708 45.709 C 15.833 47.073, 17.676 50.851, 20.119 52.703 C 21.023 53.388, 21.990 56.045, 22.307 58.715 C 23.648 70.008, 25.250 78.585, 26.460 80.955 C 27.175 82.355, 28.062 85.075, 28.433 87 C 31.234 101.546, 47.350 123.428, 60.500 130.542 C 63.250 132.030, 65.917 133.631, 66.426 134.100 C 67.687 135.261, 64.701 138.399, 59.353 141.533 C 56.959 142.936, 55 144.735, 55 145.530 C 55 147.802, 60.016 146.866, 64 143.852 C 65.925 142.395, 71.176 140.051, 75.670 138.643 C 83.201 136.283, 84.530 136.156, 92.670 137.011 C 111.364 138.975, 129.081 138.780, 123.584 136.671 C 121.824 135.995, 121.394 133, 123.056 133 C 123.637 133, 126.899 131.569, 130.306 129.821 C 135.372 127.220, 137.684 126.638, 143 126.623 C 148.858 126.607, 150.120 126.995, 155.774 130.553 C 159.225 132.724, 163.519 135.400, 165.315 136.500 C 167.111 137.600, 171.938 141.193, 176.040 144.483 C 180.143 147.774, 184.625 151.370, 186 152.473 C 187.375 153.577, 194.125 160.231, 201 167.260 C 207.875 174.290, 214.111 180.032, 214.858 180.021 C 216.205 180, 216.188 179.764, 214.329 173 L 213.642 170.500 217.254 173.250 C 219.241 174.762, 221.137 176, 221.468 176 C 222.831 176, 219.252 171.039, 212.585 163.685 C 208.688 159.387, 205.500 155.451, 205.500 154.938 C 205.500 154.426, 204.337 152.768, 202.916 151.253 C 198.850 146.920, 193.436 138.965, 190.778 133.419 C 186.456 124.399, 186.458 124.647, 190.730 125.365 C 192.803 125.714, 199.877 126.475, 206.449 127.058 C 218.743 128.147, 224.718 127.713, 221.948 125.931 C 220.774 125.176, 220.748 124.840, 221.810 124.154 C 223.348 123.160, 221.520 121.809, 213 117.643 C 205.429 113.942, 198.785 109.882, 199.359 109.307 C 199.622 109.045, 203.586 109.738, 208.168 110.848 C 212.751 111.958, 218.075 113.127, 220 113.446 C 223.101 113.959, 222.886 113.738, 218.122 111.512 C 215.164 110.131, 212.374 109, 211.921 109 C 211.469 109, 210.740 108.438, 210.300 107.750 C 209.860 107.063, 207.308 105.467, 204.629 104.204 C 201.950 102.942, 200.014 101.653, 200.326 101.340 C 200.926 100.741, 190.038 91.024, 188.750 91.009 C 188.338 91.004, 188 90.364, 188 89.586 C 188 88.808, 184.963 86.487, 181.250 84.428 C 177.537 82.368, 172.693 79.517, 170.484 78.092 C 163.559 73.624, 162.553 73.019, 160.500 72.094 C 146.704 65.875, 130.446 57.125, 124.500 52.718 C 121.750 50.680, 117.700 47.702, 115.500 46.100 C 113.300 44.497, 107.492 41.341, 102.594 39.086 C 97.695 36.830, 91.770 33.413, 89.425 31.492 C 87.081 29.572, 84.789 27.993, 84.332 27.984 C 83.874 27.976, 79.225 23.446, 74 17.918 C 64.796 8.181, 62.692 6.669, 54.774 4.098 C 50.639 2.755, 38.614 1.827, 35.500 2.610" fill="none" stroke="#000" stroke-width="2px" fill-rule="evenodd"/>
</svg>
