<svg xmlns="http://www.w3.org/2000/svg" width="259" height="234" viewBox="0 0 259 234" version="1.1">
	<path d="M 50.904 2.231 C 49.755 2.656, 48.407 2.751, 47.908 2.443 C 47.408 2.134, 47 2.287, 47 2.782 C 47 3.277, 44.562 4.227, 41.583 4.894 C 38.379 5.611, 35.156 7.117, 33.691 8.582 C 32.329 9.943, 25.654 13.549, 18.858 16.595 C 12.061 19.640, 6.084 22.540, 5.577 23.039 C 5.023 23.584, 6.640 23.712, 9.617 23.359 C 15.593 22.651, 25.199 24.487, 30 27.256 C 33.866 29.485, 42.331 40.155, 44.665 45.741 C 45.935 48.780, 45.977 50.550, 44.942 57.501 C 44.039 63.575, 44.006 66.950, 44.816 70.592 C 45.416 73.292, 46.209 77.508, 46.577 79.962 C 46.946 82.415, 47.602 85.115, 48.035 85.962 C 48.468 86.808, 49.611 89.750, 50.575 92.500 C 51.538 95.250, 53.378 99.179, 54.663 101.230 C 55.949 103.282, 57 105.228, 57 105.556 C 57 106.713, 65.916 117.719, 70.677 122.441 C 78.809 130.504, 96.692 143.383, 101.397 144.563 C 102.784 144.911, 104.442 145.827, 105.081 146.598 C 105.721 147.369, 107.108 148, 108.163 148 C 109.952 148, 109.927 148.164, 107.790 150.441 C 105.619 152.756, 104.724 152.914, 90.500 153.494 C 71.139 154.282, 68.845 154.570, 61.737 157.093 L 55.806 159.199 50.153 155.382 C 47.044 153.283, 41.998 149.678, 38.941 147.371 C 35.883 145.064, 29.351 140.453, 24.423 137.124 C 19.496 133.795, 13.520 129.030, 11.142 126.535 C 8.765 124.041, 6.222 122, 5.492 122 C 4.761 122, 3.452 121.727, 2.582 121.393 C 1.226 120.873, 1.004 121.838, 1.029 128.143 L 1.058 135.500 9.233 140.500 C 13.729 143.250, 19.316 147.075, 21.648 149 C 23.980 150.925, 28.664 154.276, 32.055 156.447 C 35.447 158.618, 39.597 162.105, 41.278 164.197 C 43.095 166.457, 45.200 168, 46.467 168 C 49.364 168, 51 169.853, 51 173.133 C 51 174.912, 51.645 176.070, 52.848 176.452 C 53.865 176.774, 55.176 178.091, 55.762 179.377 C 56.960 182.006, 60.427 183, 68.403 183 C 72.340 183, 76.031 184.085, 84.028 187.592 C 104.200 196.437, 106.804 197.807, 107.476 199.926 C 107.945 201.404, 108.978 202, 111.067 202 C 112.857 202, 114 202.524, 114 203.345 C 114 205.296, 117.322 208, 119.720 208 C 121.093 208, 121.996 208.846, 122.418 210.531 C 122.768 211.923, 124.504 213.946, 126.277 215.027 C 130.172 217.402, 133.183 217.640, 132.365 215.508 C 132.038 214.657, 132.481 213.753, 133.396 213.401 C 134.278 213.063, 135 211.934, 135 210.893 C 135 207.832, 140.971 209.032, 145.159 212.933 C 146.558 214.237, 148.146 214.732, 149.883 214.407 C 151.322 214.137, 157.675 215.330, 164 217.057 C 170.325 218.785, 177.820 220.721, 180.657 221.360 C 183.493 221.998, 186.723 223.344, 187.835 224.351 C 189.129 225.522, 190.591 225.947, 191.897 225.533 C 193.968 224.875, 209.839 227.454, 213.500 229.043 C 222.219 232.826, 223.386 233, 239.872 232.978 L 256.500 232.956 252.141 230.978 C 249.743 229.890, 247.152 229, 246.383 229 C 245.614 229, 239.998 226.750, 233.903 224 C 227.808 221.250, 222.186 219, 221.410 219 C 220.635 219, 219.996 218.662, 219.992 218.250 C 219.979 217.018, 214.816 215, 211.679 215 C 208.052 215, 184.930 209.825, 175.500 206.902 C 171.650 205.709, 166.813 204.680, 164.750 204.616 C 162.688 204.552, 161 204.162, 161 203.750 C 161 203.338, 160.283 203, 159.406 203 C 156.543 203, 138 196.869, 138 195.922 C 138 195.415, 136.650 195, 135 195 C 133.350 195, 132 194.745, 132 194.433 C 132 193.024, 137.384 187, 138.643 187 C 139.417 187, 140.441 185.969, 140.921 184.709 C 142.029 181.795, 144.601 179.636, 145.963 180.477 C 146.933 181.077, 152.732 177.702, 154.092 175.745 C 154.417 175.277, 155.092 175.007, 155.592 175.145 C 157.729 175.736, 161.136 173.637, 162.584 170.838 C 163.636 168.803, 163.938 166.592, 163.509 164.056 L 162.874 160.294 168.112 159.673 C 170.992 159.332, 173.608 158.679, 173.925 158.222 C 175.413 156.074, 183.133 153.259, 189 152.726 C 196.030 152.087, 195.028 151.709, 210.266 160.750 C 213.279 162.538, 216.624 164, 217.700 164 C 218.777 164, 221.763 165.395, 224.336 167.099 C 226.910 168.804, 231.824 171.181, 235.258 172.382 C 238.691 173.584, 241.973 174.860, 242.552 175.220 C 244.873 176.661, 252.664 178.972, 255.250 178.985 C 257.609 178.998, 258 178.596, 258 176.153 C 258 174.587, 257.109 172.279, 256.021 171.024 C 254.932 169.769, 254.261 168.386, 254.530 167.951 C 255.358 166.612, 250.542 163.476, 232.808 153.804 C 223.425 148.687, 214.564 143.337, 213.117 141.916 C 211.669 140.494, 208.604 138.144, 206.304 136.692 C 201.001 133.345, 196 128.481, 196 126.673 C 196 125.590, 198.622 126.019, 207.750 128.598 C 214.213 130.424, 222.161 132.838, 225.414 133.962 C 231.144 135.942, 233.365 135.965, 231.425 134.025 C 230.907 133.507, 225.677 130.630, 219.803 127.632 C 208.369 121.796, 201.657 117.518, 198.595 114.116 C 197.547 112.952, 196.260 112, 195.735 112 C 195.209 112, 191.300 108.727, 187.047 104.726 C 182.794 100.725, 176.700 95.888, 173.503 93.976 C 170.298 92.059, 161.819 84.656, 154.596 77.470 C 147.393 70.303, 138.808 62.653, 135.517 60.470 C 132.227 58.286, 128.852 55.767, 128.017 54.870 C 127.183 53.974, 122 50.908, 116.500 48.057 C 104.526 41.851, 101.127 38.350, 93.344 24.205 C 87.427 13.453, 82.254 7.217, 76.995 4.497 C 73.472 2.675, 54.223 1.004, 50.904 2.231 M 118 156.842 C 117.175 157.338, 109.075 157.992, 100 158.294 C 79.383 158.981, 73.260 160.186, 71.876 163.826 C 71.325 165.274, 70.341 166.799, 69.687 167.214 C 68.930 167.696, 69.244 167.975, 70.554 167.985 C 71.684 167.993, 74.714 169.335, 77.288 170.967 C 79.861 172.600, 84.112 174.903, 86.733 176.086 C 89.355 177.269, 93.272 179.083, 95.438 180.118 C 97.604 181.153, 99.771 182, 100.255 182 C 100.738 182, 102.608 183.125, 104.411 184.500 C 106.214 185.875, 108.382 187, 109.230 187 C 110.078 187, 112.060 187.672, 113.636 188.494 C 117.272 190.390, 123.918 190.377, 126.441 188.468 C 127.509 187.661, 129.421 187, 130.691 187 C 132.077 187, 133 186.400, 133 185.500 C 133 184.675, 133.598 184, 134.329 184 C 135.059 184, 137.872 182.581, 140.579 180.848 C 153.639 172.482, 153.493 172.624, 150 171.710 C 148.366 171.283, 148 170.346, 148 166.594 C 148 162.713, 147.699 162, 146.059 162 C 144.991 162, 143.866 161.592, 143.558 161.094 C 143.250 160.595, 140.636 159.870, 137.749 159.482 C 134.862 159.094, 132.020 158.390, 131.434 157.918 C 129.824 156.623, 119.710 155.812, 118 156.842" fill="none" stroke="#000" stroke-width="2px" fill-rule="evenodd"/>
</svg>
