<svg xmlns="http://www.w3.org/2000/svg" width="154" height="252" viewBox="0 0 154 252" version="1.1">
	<path d="M 82.500 1.656 C 71.843 2.509, 55.649 8.303, 51.849 12.623 C 50.941 13.655, 47.408 20.038, 43.997 26.807 C 37.827 39.052, 35.810 45.286, 34.472 56.248 C 33.931 60.679, 32.861 63.265, 29.802 67.537 C 25.295 73.831, 18.583 87.614, 17.142 93.532 C 16.611 95.714, 15.695 98.850, 15.107 100.500 C 7.667 121.369, 5.785 131.104, 1.867 169 C 0.842 178.909, 0.902 181.588, 2.297 188.362 C 4.286 198.018, 6.285 201.468, 9.335 200.507 C 14.532 198.870, 15.175 199.268, 17.566 205.613 C 18.834 208.975, 21.250 213.901, 22.935 216.559 C 26.758 222.587, 26.772 224.476, 23.023 227.978 L 20.046 230.759 23.125 231.375 C 24.819 231.714, 27.899 231.720, 29.969 231.389 C 32.171 231.037, 34.670 231.288, 35.989 231.994 C 37.893 233.013, 38.546 232.898, 40.187 231.257 C 41.894 229.551, 42.733 229.433, 47.065 230.289 C 49.779 230.826, 51.998 231.543, 51.996 231.883 C 51.981 234.344, 47.635 239.007, 44.566 239.854 C 40.504 240.976, 30.505 239.905, 28.762 238.162 C 27.338 236.738, 23.344 236.634, 22.500 238 C 22.160 238.550, 22.820 239, 23.966 239 C 25.271 239, 26.406 239.939, 27.005 241.512 C 27.530 242.894, 29.094 244.541, 30.480 245.173 C 31.866 245.804, 33.014 247.036, 33.032 247.911 C 33.059 249.286, 33.242 249.265, 34.392 247.750 C 36.020 245.605, 37.367 245.532, 39 247.500 C 40.597 249.425, 47.031 249.444, 49.559 247.532 C 52.309 245.452, 54.789 245.648, 61.808 248.500 C 65.192 249.875, 68.321 251, 68.761 251 C 69.201 251, 70.056 249.689, 70.661 248.087 C 71.634 245.508, 72.377 245.099, 77.130 244.522 C 80.900 244.064, 83.804 244.336, 86.876 245.435 C 89.282 246.296, 92.909 247, 94.935 247 C 96.960 247, 99.491 247.661, 100.559 248.468 C 102.862 250.210, 106.607 250.445, 107.558 248.906 C 107.930 248.304, 109.393 248.033, 110.808 248.304 C 112.224 248.574, 114.310 248.188, 115.443 247.445 C 117.126 246.343, 118.777 246.313, 124.425 247.280 C 129.919 248.221, 131.431 248.208, 131.762 247.215 C 132.688 244.437, 135.294 242.857, 137.894 243.498 C 139.897 243.993, 140.230 243.867, 139.335 242.956 C 138.568 242.175, 132.930 241.656, 122.835 241.436 C 104.435 241.036, 100.019 239.880, 98.411 235.039 C 97.811 233.235, 96.574 231.341, 95.661 230.830 C 94.474 230.166, 94.007 228.558, 94.023 225.200 L 94.046 220.500 114.093 199.582 C 140.206 172.333, 144.907 165.806, 146.951 153.958 C 147.564 150.406, 149.007 143.251, 150.159 138.057 C 152.124 129.190, 152.188 127.442, 151.196 109.404 C 150.303 93.165, 149.812 89.552, 148.025 86.049 L 145.911 81.905 148.102 75.417 C 150.031 69.707, 150.226 67.554, 149.728 57.449 C 149.319 49.134, 148.626 44.800, 147.217 41.734 C 146.146 39.405, 144.473 35.250, 143.498 32.500 C 142.524 29.750, 141.144 26.824, 140.433 25.998 C 139.721 25.172, 138.702 23.346, 138.168 21.941 C 136.850 18.476, 123.197 9.189, 115.054 6.219 C 111.449 4.904, 105.198 3.192, 101.162 2.414 C 94.130 1.059, 91.368 0.947, 82.500 1.656 M 77.503 231.066 C 75.854 231.557, 72.075 231.674, 69.105 231.325 L 63.705 230.690 64.419 233.534 C 65.337 237.189, 69.081 242.471, 69.884 241.242 C 71.180 239.259, 74.854 238.102, 78.156 238.638 C 82.574 239.355, 84.026 237.680, 82.824 233.250 C 81.870 229.731, 81.916 229.750, 77.503 231.066" fill="none" stroke="#000" stroke-width="2px" fill-rule="evenodd"/>
</svg>
