<svg xmlns="http://www.w3.org/2000/svg" width="500" height="350" viewBox="0 0 500 350" version="1.1">
	<path d="M 134.500 4.063 C 113.641 6.140, 104.315 7.309, 89.755 9.674 L 74.009 12.230 62.430 9.023 C 56.061 7.259, 50.620 6.046, 50.339 6.328 C 49.088 7.579, 61.571 13, 65.702 13 C 73.394 13, 40.441 20.953, 32 21.133 C 28.425 21.210, 26.556 21.473, 27.847 21.718 L 30.194 22.165 27.923 24.582 C 25.001 27.692, 26.837 27.814, 34.239 25.001 C 37.133 23.901, 39.725 23.017, 40 23.036 C 41.280 23.125, 35.067 26.079, 31.500 27.077 C 22.336 29.640, 13.859 34.028, 12.509 36.906 C 11.964 38.068, 10.767 39.257, 9.848 39.548 C 7.871 40.176, 4.473 45, 6.008 45 C 6.588 45, 12.893 42.747, 20.018 39.993 C 34.512 34.391, 68.622 24.288, 69.631 25.298 C 69.991 25.658, 69.707 26.648, 69 27.500 C 68.293 28.352, 67.892 29.171, 68.107 29.322 C 69.459 30.263, 74.630 32.319, 75.269 32.168 C 75.691 32.069, 76.551 33.115, 77.179 34.494 C 77.807 35.872, 78.867 37, 79.535 37 C 81.320 37, 90.227 45.824, 89.549 46.921 C 89.231 47.435, 89.902 48.152, 91.041 48.513 C 92.179 48.874, 92.931 49.694, 92.712 50.335 C 92.492 50.976, 93.215 52.290, 94.317 53.256 C 95.419 54.222, 96.061 55.272, 95.744 55.590 C 95.426 55.907, 96.029 57.029, 97.083 58.083 C 98.137 59.137, 99 60.900, 99 62 C 99 63.265, 99.667 64, 100.814 64 C 102.632 64, 107 70.775, 107 73.595 C 107 74.368, 107.384 75, 107.854 75 C 109.108 75, 114 79.731, 114 80.944 C 114 81.515, 114.900 82.545, 116 83.232 C 117.100 83.919, 118 85.048, 118 85.741 C 118 86.433, 118.914 87, 120.031 87 C 121.149 87, 122.315 87.658, 122.624 88.462 C 122.932 89.266, 123.931 90.165, 124.842 90.459 C 125.754 90.754, 127.267 92.346, 128.203 93.997 C 129.201 95.756, 130.731 97, 131.894 97 C 132.988 97, 134.160 97.450, 134.500 98 C 134.840 98.550, 136.329 99.014, 137.809 99.030 C 140.332 99.059, 140.375 99.132, 138.500 100.208 C 136.496 101.357, 134.091 103.984, 134.032 105.089 C 133.983 105.995, 138.847 108, 141.092 108 C 142.809 108, 143.004 108.462, 142.475 111.281 C 141.912 114.282, 142.156 114.704, 145.325 116.215 C 147.231 117.124, 149.744 117.618, 150.910 117.313 C 152.656 116.857, 152.906 117.089, 152.327 118.629 C 151.940 119.658, 150.993 120.974, 150.222 121.553 C 149.053 122.430, 149.043 122.787, 150.160 123.695 C 150.897 124.294, 152.400 125.006, 153.500 125.276 C 155.400 125.743, 155.393 125.774, 153.372 125.884 C 152.202 125.948, 150.685 126.675, 150 127.500 C 148.471 129.342, 145 129.481, 145 127.700 C 145 126.985, 145.540 125.860, 146.200 125.200 C 147.034 124.366, 147.060 124, 146.283 124 C 144.530 124, 136.288 127.724, 135.609 128.823 C 135.273 129.367, 133.986 129.590, 132.749 129.319 C 130.942 128.923, 130.795 129.037, 132 129.898 C 133.235 130.780, 133.079 130.972, 131.116 130.985 C 127.883 131.005, 120.655 133.176, 119.835 134.372 C 119.408 134.996, 114.589 134.931, 106.335 134.190 C 74.042 131.292, 69.459 131.451, 64.619 135.637 L 61.739 138.129 63.940 139.671 C 66.131 141.205, 66.132 141.220, 64.134 142.619 C 63.030 143.392, 62.158 144.807, 62.197 145.763 C 62.235 146.718, 61.961 148.215, 61.588 149.090 C 61.189 150.023, 61.557 151.218, 62.480 151.983 C 63.901 153.163, 63.883 153.472, 62.289 155.234 C 60.602 157.098, 60.611 157.243, 62.513 158.638 C 63.606 159.439, 64.363 160.954, 64.194 162.004 C 64.022 163.084, 64.766 164.462, 65.909 165.175 C 67.310 166.050, 67.760 167.110, 67.376 168.636 C 66.972 170.248, 67.449 171.179, 69.162 172.122 C 70.448 172.829, 71.950 173.472, 72.500 173.551 C 73.050 173.631, 73.893 173.764, 74.372 173.848 C 74.852 173.931, 74.680 174.681, 73.990 175.512 C 73.035 176.663, 72.407 176.753, 71.367 175.890 C 70.546 175.208, 70 175.154, 70 175.755 C 70 177.471, 72.896 179.254, 74.614 178.595 C 75.516 178.249, 76.849 178.460, 77.577 179.064 C 79.031 180.270, 84.665 180.082, 109 178.014 C 123.031 176.822, 125.258 176.861, 132.500 178.419 C 176.691 187.929, 178.977 188.133, 223.772 186.552 C 250.960 185.593, 247.745 184.919, 255.733 193.250 C 257.927 195.539, 260.261 197, 261.723 197 C 263.040 197, 263.882 197.381, 263.595 197.847 C 262.397 199.785, 274.005 208, 277.941 208 L 280.145 208 278.013 210.711 L 275.880 213.422 279.984 217.211 C 282.240 219.295, 284.539 221, 285.091 221 C 286.256 221, 290.922 226.072, 290.968 227.390 C 291.018 228.789, 294.298 230.930, 296.500 231 C 297.600 231.035, 299.374 231.724, 300.441 232.532 C 301.509 233.339, 302.971 234, 303.691 234 C 304.411 234, 305.844 234.844, 306.875 235.875 C 307.906 236.906, 309.369 237.958, 310.125 238.212 C 311.265 238.596, 311.276 238.947, 310.185 240.268 C 309.067 241.623, 309.197 242.035, 311.058 243.031 C 312.260 243.674, 314.522 243.946, 316.083 243.633 C 317.645 243.321, 319.191 243.501, 319.520 244.033 C 319.849 244.565, 321.272 245, 322.681 245 C 324.743 245, 325.021 245.269, 324.104 246.374 C 322.585 248.205, 326.230 257, 328.508 257 C 329.377 257, 329.969 257.563, 329.825 258.250 C 329.550 259.555, 334.730 269.035, 336.315 270.129 C 336.816 270.475, 336.637 270.954, 335.918 271.194 C 334.286 271.738, 340.419 279.681, 343.136 280.543 C 344.283 280.907, 344.898 281.962, 344.782 283.367 C 344.564 285.997, 350.707 295, 352.719 295 C 353.478 295, 355.402 294.326, 356.995 293.503 L 359.890 292.005 357.945 297.659 C 356.875 300.769, 356 304.206, 356 305.297 C 356 307.790, 359.815 315.523, 362.038 317.534 C 364.632 319.882, 366.716 318.341, 370.688 311.138 C 376.275 301.007, 383.324 289.254, 382.466 291.500 C 373.143 315.906, 371.088 327.882, 374.910 335.535 C 376.124 337.966, 377.570 340.234, 378.122 340.575 C 381.051 342.385, 386.947 332.138, 393.701 313.500 C 396.092 306.900, 397.836 303.075, 397.576 305 C 397.316 306.925, 396.554 313.925, 395.883 320.555 L 394.663 332.611 397.500 337.823 C 402.995 347.918, 404.724 347.126, 409.661 332.252 C 411.442 326.888, 412.921 323.558, 412.949 324.850 C 413.007 327.538, 419.332 334.367, 421.238 333.798 C 421.932 333.591, 423.814 330.809, 425.421 327.616 C 427.687 323.112, 428.444 320.037, 428.799 313.905 C 429.051 309.557, 429.649 306, 430.128 306 C 430.608 306, 431 306.940, 431 308.090 C 431 310.444, 434.640 313.916, 437.161 313.967 C 439.839 314.020, 444 308.280, 444 304.533 C 444 302.710, 442.920 297.007, 441.600 291.859 C 440.280 286.712, 438.888 280.475, 438.508 278 C 437.277 269.989, 434.309 259.724, 430.267 249.500 C 424.947 236.042, 424.763 235.034, 425.994 226.047 C 426.958 219.003, 426.858 217.696, 424.969 212.646 C 423.818 209.569, 421.441 205.664, 419.688 203.968 C 417.934 202.272, 406.822 194.478, 394.992 186.648 C 372.866 172.002, 360.113 162.966, 360.041 161.883 C 360.018 161.543, 361.721 160.127, 363.824 158.735 C 368.001 155.971, 376.398 144.436, 378.336 138.800 L 379.555 135.254 390.867 142.587 C 416.837 159.423, 452.462 174.842, 476.252 179.545 C 482.696 180.818, 485.729 181.949, 487.752 183.832 C 489.263 185.238, 490.388 186.751, 490.250 187.194 C 489.692 188.993, 491.877 187.836, 493.385 185.535 C 495.234 182.713, 495.472 178.751, 493.962 175.930 C 493.392 174.863, 490.354 172.689, 487.212 171.098 C 484.071 169.507, 476.387 164.784, 470.137 160.602 C 463.888 156.421, 458.354 153, 457.840 153 C 457.325 153, 455.801 151.809, 454.452 150.354 C 453.104 148.899, 452 148.099, 452 148.576 C 452 149.054, 451.278 148.415, 450.396 147.155 C 449.447 145.800, 448.185 145.099, 447.304 145.437 C 446.406 145.782, 445.615 145.312, 445.311 144.254 C 445.034 143.289, 442.038 140.505, 438.654 138.066 C 418.730 123.710, 396.896 106.641, 386 96.902 C 370.932 83.435, 360.832 76.559, 353.949 75.082 C 346.209 73.423, 338.730 73.758, 333.500 76 C 330.934 77.100, 327.634 78.003, 326.167 78.006 C 321.631 78.015, 316 79.994, 316 81.579 C 316 82.396, 314.988 83.471, 313.750 83.969 C 312.512 84.466, 311.950 84.955, 312.500 85.055 C 313.050 85.155, 312.187 85.521, 310.582 85.868 C 307.108 86.621, 305.987 88.922, 308.745 89.643 C 310.181 90.019, 310.654 90.931, 310.525 93.077 C 310.429 94.685, 310.271 98.963, 310.175 102.585 L 310 109.170 305.250 105.691 C 298.609 100.826, 285.449 94.308, 279.500 92.937 C 276.750 92.303, 272.968 91.049, 271.095 90.151 C 262.600 86.076, 233.268 53.986, 224.341 39.001 C 220.600 32.721, 216 20.301, 216 16.481 C 216 13.148, 211.696 8.496, 206.801 6.537 C 199.556 3.638, 154.312 2.090, 134.500 4.063 M 153.543 120.931 C 152.860 122.036, 154.437 123.230, 155.361 122.306 C 156.311 121.355, 156.134 120, 155.059 120 C 154.541 120, 153.859 120.419, 153.543 120.931" fill="none" stroke="#000" stroke-width="2px" fill-rule="evenodd"/>
</svg>
