<svg xmlns="http://www.w3.org/2000/svg" width="299" height="500" viewBox="0 0 299 500" version="1.1">
	<path d="M 72.710 5 C 72.420 6.110, 71.346 7, 70.297 7 C 68.664 7, 68.383 7.850, 68.230 13.250 C 68.133 16.688, 67.929 22.629, 67.776 26.453 L 67.500 33.406 62.500 33.145 C 56.505 32.832, 49.051 35.759, 44.250 40.311 C 41.486 42.932, 41 44.092, 41 48.068 C 41 52.701, 40.965 52.750, 37.250 53.331 C 35.188 53.653, 29.225 54.200, 24 54.546 C 14.233 55.193, 8.472 56.428, 7.441 58.096 C 6.666 59.350, 16.301 63.558, 22 64.453 C 28.900 65.538, 40.360 69.685, 45.799 73.066 C 51.756 76.769, 54.862 81.946, 56.013 90.092 C 56.661 94.677, 56.505 97.134, 55.365 100.314 C 54.531 102.639, 54.100 106.015, 54.395 107.909 C 54.878 111.012, 54.469 111.730, 49.836 115.909 C 43.843 121.314, 40.944 125.649, 38.739 132.500 C 34.761 144.857, 35.742 153.794, 42.616 167.854 C 46.569 175.938, 51.341 181.150, 59.289 186.063 C 62.155 187.834, 66.300 190.499, 68.500 191.984 C 72.090 194.407, 74.827 195.801, 87 201.403 C 97.008 206.010, 98.309 207.203, 100.184 213.500 C 101.168 216.800, 102.900 223.755, 104.034 228.956 C 105.169 234.157, 106.513 238.913, 107.022 239.527 C 107.531 240.140, 109.800 245.092, 112.064 250.531 C 118.063 264.947, 120.610 269.678, 126.618 277.569 C 129.578 281.457, 132 285.393, 132 286.315 C 132 289.197, 136.166 300.403, 138.017 302.500 C 140.359 305.154, 142.273 326.156, 142.403 350.635 C 142.489 366.687, 142.296 368.996, 140.723 370.743 C 138.486 373.228, 138.662 377.718, 141.295 385.306 C 143.246 390.929, 143.258 391.433, 141.686 401.306 C 140.793 406.913, 139.781 416, 139.437 421.500 C 139.093 427, 138.191 434.593, 137.434 438.373 C 136.676 442.154, 135.793 449.804, 135.471 455.373 C 134.637 469.824, 133.020 476, 130.070 476 C 127.711 476, 102.190 469.803, 93 466.999 C 85.616 464.746, 81.989 464.389, 83.682 466.082 C 84.277 466.677, 88.530 468.249, 93.132 469.574 C 97.734 470.900, 102.400 472.375, 103.500 472.852 C 104.600 473.329, 109.453 474.993, 114.285 476.550 C 119.117 478.106, 123.526 479.929, 124.083 480.600 C 125.147 481.882, 120.180 484.125, 108.883 487.463 C 91.530 492.591, 87.848 493.946, 88.481 494.969 C 88.945 495.720, 96.606 494.063, 98.589 492.784 C 99.624 492.116, 107.195 490.156, 111.500 489.441 C 112.600 489.258, 117.100 488.347, 121.500 487.416 C 136.486 484.246, 167.800 484.872, 178.785 488.561 C 181.142 489.352, 184.452 490, 186.142 490 C 188.476 490, 189.068 490.360, 188.607 491.500 C 188.273 492.325, 187.718 493.698, 187.374 494.551 C 186.862 495.818, 187.274 495.979, 189.624 495.432 C 191.206 495.063, 193.613 494.065, 194.973 493.212 C 196.333 492.359, 199.933 491.552, 202.973 491.417 C 208.580 491.169, 226.105 489.787, 247 487.945 C 259.412 486.851, 265.300 485.307, 262.671 483.835 C 261.832 483.366, 260.100 483.392, 258.783 483.892 C 257.477 484.389, 247.609 485.124, 236.854 485.525 C 207.223 486.630, 206.719 486.283, 207.505 465.323 C 207.769 458.270, 208.212 443.950, 208.489 433.500 C 209.101 410.421, 210.662 390.938, 212.006 389.594 C 212.553 389.047, 213 388.970, 213 389.422 C 213 389.875, 213.606 389.742, 214.347 389.127 C 215.434 388.225, 216.414 390.114, 219.441 398.957 C 221.502 404.978, 224.590 412.064, 226.304 414.702 C 228.017 417.341, 230.187 421.151, 231.125 423.169 C 233.540 428.367, 234.883 428.931, 251.285 431.646 C 255.043 432.268, 257.440 431.570, 267.610 426.891 C 269.870 425.851, 272.345 424.997, 273.110 424.993 C 276.845 424.976, 280.435 420.988, 282.736 414.300 C 284.023 410.560, 285.804 405.475, 286.693 403 C 288.656 397.533, 289.577 359.442, 288.002 348.849 C 287.049 342.445, 287.133 341.943, 290.256 335.349 C 293.939 327.572, 294.239 322.381, 292.237 301 C 291.135 289.226, 289.209 283.077, 284.911 277.614 C 282.402 274.424, 281.018 269.667, 280.369 262 C 280.112 258.975, 279.250 254.507, 278.451 252.072 C 277.653 249.636, 276.995 245.811, 276.989 243.572 C 276.978 239.237, 274.673 230.516, 273.010 228.512 C 272.459 227.848, 270.242 222.624, 268.083 216.903 C 254.322 180.429, 246.273 165.164, 232 148.465 C 224.661 139.879, 221.278 136.011, 204 116.450 C 194.718 105.941, 190.099 102.871, 183.691 102.951 C 161.728 103.222, 147.334 103.890, 141.367 104.916 C 137.444 105.590, 133.619 106.019, 132.867 105.870 C 130.425 105.386, 123.579 107.101, 120.279 109.023 C 118.507 110.054, 115.357 111.207, 113.279 111.584 C 107.539 112.626, 102.967 115.341, 97.974 120.669 C 92.356 126.665, 89.875 130.233, 87.314 136 C 84.442 142.469, 80.425 146.788, 76.186 147.965 C 69.919 149.706, 69.243 149.389, 66.404 143.389 C 64.050 138.412, 63.877 137.354, 64.875 134.025 C 66.470 128.700, 69.097 125.747, 77.306 120.050 C 86.591 113.606, 92.474 106.702, 94.729 99.602 C 96.785 93.132, 99.173 92.188, 100.907 97.162 C 101.513 98.901, 102.284 100.049, 102.620 99.713 C 102.956 99.377, 102.729 97.662, 102.116 95.902 C 101.502 94.142, 101 92.094, 101 91.351 C 101 89.501, 103.508 89.651, 105.476 91.619 C 106.367 92.510, 107.378 92.955, 107.723 92.610 C 108.069 92.264, 109.359 92.928, 110.590 94.085 L 112.829 96.188 114 94 C 114.781 92.540, 115.809 91.978, 117.086 92.312 C 118.139 92.587, 119 92.462, 119 92.033 C 119 91.604, 121.077 91.212, 123.615 91.161 C 129.846 91.036, 132.090 88.366, 128.161 85.754 L 125.500 83.985 128.906 84.649 C 132.290 85.308, 132.308 85.292, 131.681 82.156 C 131.334 80.420, 131.434 79, 131.904 79 C 133.184 79, 135.297 73.290, 134.496 71.994 C 134.113 71.374, 134.632 70.222, 135.650 69.433 C 137.355 68.112, 137.371 67.900, 135.855 66.717 C 134.427 65.603, 134.394 65.181, 135.605 63.525 C 137.484 60.956, 137.370 58, 135.393 58 C 134.338 58, 133.995 57.456, 134.393 56.418 C 134.727 55.548, 135 54.412, 135 53.893 C 135 53.375, 136.162 52.509, 137.581 51.969 C 141.331 50.544, 140.074 48.741, 134.430 47.449 L 129.500 46.321 132.500 45.003 C 135.118 43.853, 135.246 43.626, 133.500 43.222 C 132.400 42.967, 130.375 42.331, 129 41.809 C 126.689 40.931, 126.638 40.782, 128.334 39.833 C 130.087 38.852, 130.077 38.742, 128.102 37.359 C 126.537 36.262, 125.545 36.173, 124.017 36.991 C 121.593 38.288, 121.434 37.254, 123.585 34.182 C 125.138 31.965, 125.112 31.933, 122.335 32.609 C 119.626 33.269, 119.572 33.215, 121.132 31.400 C 123.191 29.002, 124.692 24.454, 123.099 25.439 C 121.456 26.454, 118.766 23.312, 119.446 21.170 C 119.862 19.860, 119.308 19.006, 117.514 18.188 C 116.131 17.558, 115 16.505, 115 15.847 C 115 15.189, 113.922 15.664, 112.605 16.901 C 109.914 19.429, 108.436 18.378, 109.568 14.741 C 110.241 12.579, 110.197 12.562, 108.304 14.250 C 105.247 16.978, 104.035 16.408, 104.280 12.359 C 104.588 7.265, 102.572 7.114, 100.583 12.083 C 98.818 16.494, 98.208 16.676, 97.500 13 C 96.977 10.284, 96.018 9.094, 95.955 11.083 C 95.930 11.863, 95.300 13.850, 94.556 15.500 L 93.202 18.500 93.351 14.023 C 93.463 10.665, 93.127 9.540, 92.010 9.523 C 91.190 9.510, 90.290 8.375, 90.010 7 C 89.588 4.931, 88.930 4.506, 86.193 4.533 C 84.374 4.552, 82.574 5.057, 82.193 5.656 C 81.218 7.189, 75 6.092, 75 4.387 C 75 2.278, 73.303 2.732, 72.710 5 M 151.943 301.106 C 151.307 302.295, 150.566 305.795, 150.297 308.884 C 149.673 316.041, 153.422 357.226, 155.557 366.660 C 157.157 373.733, 157.146 373.919, 154.635 382.160 C 151.637 391.995, 149.568 403.336, 148.005 418.500 C 147.381 424.550, 146.225 434.829, 145.435 441.342 C 143.942 453.664, 143.542 468.642, 144.631 471.480 C 145.171 472.889, 145.671 472.731, 148.131 470.375 C 149.709 468.863, 151 466.633, 151 465.420 C 151 464.207, 151.712 462.941, 152.582 462.607 C 154.911 461.713, 156.200 461.868, 155.525 462.959 C 155.199 463.487, 155.496 464.822, 156.186 465.926 C 157.272 467.665, 157.076 468.311, 154.719 470.771 C 151.413 474.223, 151.063 478, 154.050 478 C 155.177 478, 157.539 478.752, 159.300 479.670 C 165.947 483.139, 188.006 486.968, 193.460 485.599 C 195.933 484.979, 199.316 479.517, 200.360 474.460 C 201.258 470.108, 202.974 428.282, 203.107 407.500 C 203.206 392.125, 202.937 388.625, 201.264 383.500 C 197.708 372.610, 194.810 367.532, 190.667 364.933 C 188.533 363.595, 185.679 361.480, 184.325 360.234 C 182.970 358.987, 181.373 358.269, 180.776 358.638 C 180.140 359.032, 179.978 358.845, 180.384 358.187 C 180.766 357.570, 180.160 356.492, 179.039 355.792 C 177.917 355.092, 176.992 354.065, 176.983 353.509 C 176.974 352.954, 175.342 349.350, 173.357 345.500 C 164.285 327.909, 163.042 325.197, 161.901 320.500 C 160.353 314.133, 158.722 310, 157.756 310 C 157.340 310, 157 309.100, 157 308 C 157 306.900, 156.550 306, 156 306 C 155.450 306, 155 304.677, 155 303.059 C 155 299.308, 153.439 298.311, 151.943 301.106" fill="none" stroke="#000" stroke-width="2px" fill-rule="evenodd"/>
</svg>
