<svg xmlns="http://www.w3.org/2000/svg" width="489" height="500" viewBox="0 0 489 500" version="1.1">
	<path d="M 376.500 1.555 C 372.100 2.278, 367.089 2.899, 365.364 2.935 C 363.640 2.971, 360.940 3.672, 359.364 4.494 C 357.789 5.315, 355.488 5.990, 354.250 5.994 C 353.012 5.997, 352 6.450, 352 7 C 352 7.550, 351.403 8, 350.674 8 C 349.945 8, 348.258 9.170, 346.924 10.600 C 345.591 12.029, 342.137 14.773, 339.250 16.697 C 336.363 18.621, 334 20.894, 334 21.750 C 334 22.605, 331.300 25.939, 328 29.158 C 323.363 33.681, 322 35.677, 322 37.941 C 322 40.319, 321.245 41.296, 318 43.120 C 315.800 44.357, 314 46.027, 314 46.831 C 314 47.636, 312.489 50.140, 310.643 52.397 C 308.797 54.654, 306.970 57.503, 306.582 58.729 C 306.195 59.956, 304.569 61.732, 302.968 62.678 C 301.367 63.624, 299.469 65.612, 298.750 67.097 C 297.049 70.609, 290.591 77.579, 283.306 83.763 C 280.113 86.474, 274.800 91.361, 271.500 94.623 C 268.200 97.885, 263.925 101.342, 262 102.305 C 256.616 104.998, 254.827 106.269, 252.223 109.250 C 250.903 110.762, 249.187 112, 248.411 112 C 247.635 112, 247 112.601, 247 113.335 C 247 114.069, 245.702 115.826, 244.115 117.240 C 242.528 118.654, 241.066 120.191, 240.865 120.655 C 240.664 121.120, 237.490 123.750, 233.811 126.500 C 230.132 129.250, 226.664 132.491, 226.104 133.702 C 225.545 134.913, 223.731 136.605, 222.073 137.462 C 220.415 138.319, 218.583 139.911, 218.001 140.998 C 216.926 143.006, 209.348 147, 206.614 147 C 205.791 147, 204.866 147.407, 204.559 147.905 C 204.077 148.685, 201.873 150.082, 190.872 156.582 C 189.865 157.177, 187.928 158.752, 186.567 160.082 C 185.207 161.412, 182.438 163.850, 180.415 165.500 C 178.391 167.150, 168.519 176.653, 158.476 186.618 C 145.567 199.428, 140.025 205.611, 139.562 207.719 C 139.133 209.670, 135.118 214.580, 127.953 221.913 C 121.929 228.079, 117 233.750, 117 234.515 C 117 235.280, 117.551 237.115, 118.224 238.592 C 119.372 241.111, 119.191 241.504, 115.325 244.889 C 106.573 252.555, 97.473 260.656, 93.571 264.257 C 91.332 266.323, 87.025 270.306, 84 273.109 C 80.975 275.912, 77.263 278.845, 75.750 279.628 C 74.237 280.411, 73 281.382, 73 281.786 C 73 282.190, 71.846 283.765, 70.436 285.286 C 67.208 288.767, 67.366 293.339, 70.731 293.817 C 73.284 294.180, 89.644 289.195, 91.361 287.532 C 91.987 286.924, 94.294 285.094, 96.486 283.464 C 104.268 277.678, 112.865 270.034, 122.596 260.250 C 126.842 255.982, 130.645 253, 131.845 253 C 132.965 253, 134.160 252.550, 134.500 252 C 134.840 251.450, 135.991 251, 137.059 251 C 138.127 251, 139 250.602, 139 250.117 C 139 249.161, 142.768 247.699, 144.671 247.917 C 145.315 247.991, 147.073 246.910, 148.578 245.516 C 150.082 244.121, 151.539 243.206, 151.815 243.481 C 152.090 243.757, 152.920 243.481, 153.658 242.869 C 154.651 242.045, 155 242.060, 155 242.926 C 155 244.418, 149.919 248.927, 148.191 248.968 C 147.471 248.986, 147.159 249.448, 147.497 249.995 C 147.835 250.542, 146.700 252.454, 144.976 254.245 C 143.251 256.035, 140.692 259.186, 139.289 261.247 C 136.903 264.751, 136.818 265.279, 137.972 269.400 C 139.188 273.743, 139.147 273.894, 135.103 279.848 C 132.846 283.171, 131 286.404, 131 287.033 C 131 287.661, 129.369 291.091, 127.376 294.655 C 124.191 300.351, 123.048 301.477, 117.930 303.956 C 114.729 305.507, 111.900 306.567, 111.646 306.312 C 111.391 306.058, 110.904 306.727, 110.564 307.799 C 110.223 308.871, 107.257 311.634, 103.972 313.938 C 100.688 316.242, 98 318.441, 98 318.824 C 98 319.207, 96.847 320.764, 95.438 322.283 C 92.185 325.791, 92.344 330.993, 95.750 332.487 C 96.987 333.030, 98 333.785, 98 334.166 C 98 334.546, 98.765 335.622, 99.700 336.557 C 101.300 338.157, 101.283 338.353, 99.402 339.879 C 98.303 340.770, 96.526 343.066, 95.452 344.980 C 94.378 346.894, 91.813 350.647, 89.750 353.320 C 87.688 355.993, 86 358.801, 86 359.560 C 86 360.319, 84.616 361.964, 82.924 363.214 C 80.382 365.094, 79.946 365.982, 80.415 368.326 C 81.330 372.901, 78.025 377.390, 68.500 384.510 C 63.112 388.537, 62.714 388.943, 59.657 393.522 C 54.483 401.273, 49.894 407.357, 47.952 409.042 C 46.869 409.981, 43.730 413.843, 40.974 417.624 C 38.219 421.406, 35.185 425.555, 34.233 426.845 C 31.538 430.492, 28.031 436.319, 27.368 438.250 C 27.037 439.212, 25.934 440, 24.917 440 C 23.004 440, 16 445.798, 16 447.381 C 16 447.874, 14.172 450.352, 11.937 452.888 C 5.859 459.788, 3 464.653, 3 468.095 C 3 469.078, 2.550 470.160, 2 470.500 C 0.727 471.287, 0.703 476.576, 1.962 478.929 C 2.491 479.917, 4.403 481.290, 6.212 481.980 C 14.842 485.272, 18.998 487.796, 23.293 492.349 C 26.203 495.435, 27.337 496.028, 29.197 495.441 C 30.464 495.040, 32.100 493.861, 32.833 492.819 C 33.566 491.777, 35.254 489.837, 36.583 488.508 C 37.912 487.179, 39 485.197, 39 484.104 C 39 483.012, 39.498 481.810, 40.107 481.434 C 40.898 480.945, 40.869 480.537, 40.004 480.002 C 38.016 478.774, 40.555 475.290, 44.469 473.875 C 47.863 472.648, 50 469.227, 50 465.022 C 50 463.986, 51.906 462.449, 54.967 461.015 C 58.488 459.366, 60.970 457.206, 63.493 453.594 C 67.317 448.120, 75.694 438.792, 91.291 422.640 C 110.998 402.230, 116.268 397, 117.125 397 C 117.606 397, 118 396.325, 118 395.500 C 118 394.675, 118.338 393.998, 118.750 393.995 C 119.162 393.993, 121.099 392.530, 123.053 390.745 C 128.178 386.064, 133.699 382, 134.933 382 C 135.520 382, 136 381.626, 136 381.170 C 136 380.713, 138.025 378.885, 140.500 377.107 C 142.975 375.330, 145 374.167, 145 374.522 C 145 374.877, 146.752 373.780, 148.894 372.084 C 151.036 370.388, 153.116 369, 153.517 369 C 153.918 369, 157.003 367.087, 160.373 364.750 C 163.743 362.412, 167.166 360.353, 167.979 360.174 C 168.792 359.994, 170.642 358.522, 172.088 356.901 C 173.613 355.193, 175.327 354.188, 176.165 354.510 C 177.008 354.833, 178.739 353.800, 180.313 352.032 C 181.800 350.365, 183.503 349, 184.100 349 C 184.696 349, 186.329 348.100, 187.727 347 C 189.126 345.900, 191.286 345, 192.528 345 C 193.770 345, 195.002 344.438, 195.267 343.750 C 195.869 342.186, 203.602 338, 205.888 338 C 206.823 338, 209.311 339.819, 211.418 342.042 C 213.525 344.265, 215.755 345.903, 216.374 345.682 C 217.558 345.259, 226.433 349.336, 229 351.482 C 229.825 352.171, 233.816 352.998, 237.868 353.319 C 241.967 353.644, 245.960 354.529, 246.868 355.313 C 250.758 358.673, 257.917 362, 261.255 362 C 263.223 362, 264.983 362.442, 265.167 362.983 C 265.350 363.523, 267.075 364.020, 269 364.088 C 273.969 364.261, 292.423 362.475, 293.678 361.699 C 294.790 361.012, 304.988 372.389, 305.017 374.349 C 305.026 374.982, 306.878 377.300, 309.133 379.500 C 311.388 381.700, 314.379 385.300, 315.780 387.500 C 318.658 392.019, 320.090 393.311, 324.814 395.648 L 328.128 397.289 327.431 403.894 C 327.047 407.527, 326.123 412.525, 325.377 415 C 322.839 423.425, 323.361 425.337, 330.046 432.127 L 336.092 438.268 340.992 437.687 C 347.138 436.959, 351.757 434.691, 355.094 430.761 L 357.689 427.706 362.594 430.401 C 366.303 432.439, 368.598 434.796, 372 440.056 C 374.475 443.884, 377.270 447.262, 378.212 447.563 C 380.278 448.224, 392 460.831, 392.001 462.395 C 392.003 464.267, 406.542 477.936, 408.576 477.978 C 410.001 478.007, 414 482.310, 414 483.814 C 414 484.467, 414.601 485, 415.335 485 C 416.069 485, 417.820 486.238, 419.227 487.750 C 420.634 489.262, 424.051 492.637, 426.821 495.250 L 431.857 500 451.178 499.966 L 470.500 499.933 466.546 496.716 C 464.371 494.947, 460.836 491.783, 458.689 489.684 C 456.542 487.586, 453.701 485.457, 452.375 484.952 C 451.049 484.448, 449.538 482.916, 449.018 481.546 C 448.476 480.121, 446.560 478.425, 444.535 477.579 C 442.118 476.569, 441 475.454, 441 474.051 C 441 472.702, 440.349 472, 439.099 472 C 438.020 472, 434.951 469.406, 432 466 C 429.141 462.700, 426.204 460, 425.474 460 C 424.044 460, 421.900 457.423, 418.110 451.150 C 416.796 448.974, 414.736 446.745, 413.533 446.197 C 412.331 445.649, 408.165 442.456, 404.276 439.100 C 400.388 435.745, 396.710 433, 396.103 433 C 395.496 433, 395 432.354, 395 431.565 C 395 430.775, 392.075 427.545, 388.500 424.387 C 384.925 421.229, 382 418.086, 382 417.403 C 382 416.721, 379.754 413.538, 377.009 410.331 C 374.264 407.124, 372.014 403.804, 372.009 402.953 C 372.004 402.102, 370.200 399.648, 368 397.500 C 365.800 395.352, 364 392.804, 364 391.838 C 364 389.700, 359.134 385, 356.921 385 C 356.041 385, 354.781 383.815, 354.121 382.366 C 352.953 379.804, 352.745 379.750, 346.460 380.394 C 342.907 380.758, 340 380.678, 340 380.216 C 340 379.755, 339.166 378.481, 338.146 377.387 C 337.126 376.292, 334.815 372.303, 333.011 368.523 C 329.142 360.416, 329.244 360.109, 337.687 354.500 C 340.999 352.300, 345.370 349.033, 347.401 347.240 C 350.529 344.477, 351.410 344.149, 353.166 345.089 C 355.207 346.181, 356.184 345.733, 362.500 340.810 C 363.050 340.381, 364.850 338.982, 366.500 337.700 C 373.456 332.298, 385.555 324.839, 388.227 324.305 C 392.981 323.354, 405.514 309.204, 408.434 301.491 C 411.124 294.386, 412.952 291.918, 416.680 290.360 C 418.544 289.581, 420.670 287.596, 421.621 285.747 C 423.778 281.548, 438.145 267.377, 441.890 265.752 C 443.478 265.063, 446.290 263.257, 448.139 261.738 C 449.987 260.218, 453.075 257.956, 455 256.710 C 457.035 255.392, 459.546 252.364, 461 249.472 C 462.916 245.662, 464.483 244.043, 467.708 242.545 C 471.348 240.853, 472.332 239.660, 474.998 233.695 C 478.254 226.414, 479.457 219.432, 480.964 199.070 C 481.962 185.574, 482.832 179.872, 484.093 178.550 C 485.199 177.391, 485.168 168.262, 484.049 165.500 C 483.504 164.155, 483.753 162.915, 484.809 161.712 C 486.248 160.073, 486.154 159.465, 483.690 154.440 C 482.210 151.423, 481 147.841, 481 146.478 C 481 145.115, 480.550 144, 480 144 C 478.515 144, 478.812 145.988, 481.022 150.859 C 483.254 155.779, 483.513 157.435, 481.893 156.434 C 481.123 155.958, 480.995 156.702, 481.473 158.875 C 481.853 160.607, 481.749 162, 481.239 162 C 480.733 162, 479.755 159.412, 479.064 156.250 C 478.374 153.088, 477.402 149.466, 476.905 148.203 C 476.407 146.940, 476 144.592, 476 142.987 C 476 140.792, 474.242 138.077, 468.909 132.034 C 463.297 125.676, 462.237 124, 463.826 124 C 464.955 124, 467.415 125.860, 469.447 128.250 C 472.966 132.389, 473.042 132.423, 472.366 129.528 C 471.984 127.894, 469.124 123.351, 466.010 119.432 L 460.348 112.306 460.628 105.943 C 460.829 101.360, 460.371 98.367, 458.991 95.248 C 457.094 90.957, 457.094 90.900, 459.063 89.208 C 460.963 87.575, 468.830 82.913, 475.750 79.318 C 479.222 77.514, 479.946 75.577, 477.500 74.638 C 475.234 73.769, 475.679 71.683, 478 72.290 C 484.436 73.973, 473.167 59.443, 464 54.238 C 458.285 50.993, 457 49.381, 457 45.457 C 457 43.708, 455.914 40.777, 454.570 38.898 C 453.234 37.029, 450.571 33.250, 448.654 30.500 C 445.208 25.558, 438.495 18.709, 434.376 15.932 C 433.208 15.144, 429.585 12.632, 426.325 10.348 C 420.719 6.420, 410.833 2.501, 409.612 3.721 C 409.303 4.030, 406.002 3.577, 402.275 2.713 C 392.251 0.392, 385.437 0.085, 376.500 1.555 M 336.535 413.570 C 335.133 416.926, 335.176 417.318, 337.248 420.122 C 339.020 422.518, 339.948 422.980, 341.976 422.474 C 345.149 421.682, 348 419.163, 348 417.150 C 348 414.761, 342.890 410, 340.326 410 C 338.635 410, 337.632 410.944, 336.535 413.570 M 340.500 429 C 340.160 429.550, 338.810 430, 337.500 430 C 334.101 430, 333.449 431.792, 336.364 433.120 C 338.440 434.066, 339.341 433.893, 341.921 432.056 C 343.614 430.850, 345 429.444, 345 428.932 C 345 427.681, 341.280 427.738, 340.500 429" fill="none" stroke="#000" stroke-width="2px" fill-rule="evenodd"/>
</svg>
