<svg xmlns="http://www.w3.org/2000/svg" width="422" height="500" viewBox="0 0 422 500" version="1.1">
	<path d="M 106.105 8.546 C 97.042 10.512, 87.837 13.675, 78 18.203 C 70.279 21.757, 67.576 22.386, 48.500 25.069 C 19.058 29.210, 9.847 30.891, 7.218 32.602 C 4.037 34.673, 5.328 36, 10.525 36 C 17.623 36, 36.395 38.900, 46.838 41.610 C 73.688 48.577, 89.977 62.367, 97.640 84.617 C 100.915 94.127, 101.357 107.741, 98.707 117.500 C 93.801 135.562, 89.361 180.151, 90.392 201 C 92.060 234.745, 102.415 262.977, 123.035 290 C 141.053 313.612, 158.089 328.202, 181.413 339.997 C 188.772 343.717, 190.557 345.058, 190.799 347.046 C 190.963 348.396, 191.832 351.617, 192.730 354.205 C 195.284 361.564, 193.882 363.565, 185.549 364.458 C 181.915 364.847, 168.693 365.032, 156.167 364.869 L 133.393 364.572 126.946 367.819 C 119.427 371.607, 117.678 372.996, 113.136 378.786 C 110.338 382.354, 109.712 384.084, 109.404 389.109 C 109.167 392.969, 109.569 396.427, 110.520 398.703 C 111.927 402.070, 112.205 402.228, 115.696 401.662 C 119.126 401.105, 119.788 401.448, 125.112 406.526 C 131.310 412.437, 134.306 414, 139.443 414 C 143.548 414, 144.654 412.712, 146.021 406.339 C 146.887 402.298, 146.798 400.451, 145.564 396.907 C 143.707 391.575, 143.525 381.023, 145.250 378.695 C 148.067 374.894, 159.234 374.413, 193.163 376.631 C 201.870 377.201, 203.403 377.029, 208.663 374.894 C 218.506 370.897, 220.856 369.180, 221.971 365.165 C 222.531 363.149, 222.991 360.703, 222.994 359.729 C 222.997 358.754, 224.137 357.439, 225.526 356.806 C 227.571 355.875, 228.752 355.988, 231.712 357.400 C 233.724 358.359, 239.887 359.970, 245.408 360.980 C 254.239 362.595, 255.780 363.190, 258.223 365.924 C 260.046 367.964, 261 370.143, 261 372.266 C 261 374.045, 261.705 379.100, 262.567 383.500 C 264.795 394.884, 263.146 406.538, 258.534 412 C 257.838 412.825, 256.455 416.140, 255.461 419.366 C 254.467 422.592, 252.706 426.642, 251.548 428.366 C 250.390 430.090, 248.255 433.525, 246.804 436 C 243.423 441.765, 237.486 447.492, 232.920 449.394 C 228.035 451.428, 222.842 457.015, 219.111 464.249 C 215.598 471.061, 215.949 472.393, 221.536 473.441 C 225.123 474.114, 225.444 474.809, 225.051 481.051 C 224.948 482.700, 226.349 485.433, 229.015 488.781 C 235.284 496.655, 242.799 497.974, 248.319 492.169 C 251.237 489.101, 253.232 483.164, 250.896 484.500 C 250.128 484.938, 248.593 486.110, 247.485 487.103 C 246.174 488.276, 244.982 488.607, 244.077 488.048 C 242.917 487.331, 242.861 485.250, 243.742 475.573 C 244.666 465.412, 245.264 462.990, 248.520 456.229 C 250.567 451.978, 253.050 445.902, 254.037 442.727 C 255.689 437.410, 269.561 412.077, 276.142 402.358 C 277.685 400.080, 279.868 395.754, 280.994 392.744 C 283.265 386.675, 285.200 384.480, 289.148 383.495 C 291.368 382.941, 292.676 383.631, 297.247 387.771 C 300.245 390.486, 303.927 393.016, 305.428 393.393 C 306.930 393.770, 312.736 397.943, 318.329 402.666 C 323.923 407.389, 330.935 412.883, 333.911 414.875 C 337.891 417.539, 341.876 421.934, 348.984 431.498 C 364.073 451.800, 371.041 459.800, 375.559 462.009 C 378.020 463.212, 382.743 464.225, 387.559 464.582 C 391.926 464.907, 397.279 465.841, 399.453 466.659 C 403.535 468.195, 410 467.746, 410 465.926 C 410 465.385, 405.317 458.318, 399.593 450.221 C 389.021 435.266, 369.697 405.656, 360.120 389.735 C 354.654 380.648, 349.488 369.178, 350.436 368.231 C 350.735 367.932, 352.773 368.496, 354.965 369.484 C 359.177 371.384, 362.736 375.978, 369.309 388 C 372.618 394.052, 384 406.737, 384 404.373 C 384 403.790, 376.554 392.149, 367.453 378.504 C 357.774 363.993, 351.275 353.325, 351.796 352.804 C 352.937 351.663, 371.932 359.012, 386.898 366.385 C 393.167 369.473, 399.059 372, 399.991 372 C 400.924 372, 404.303 372.900, 407.500 374 C 414.604 376.444, 416.411 376.556, 415.250 374.482 C 413.954 372.166, 396.667 356.608, 386 348.158 C 380.775 344.018, 372.450 336.742, 367.500 331.989 C 362.550 327.235, 355.046 320.567, 350.825 317.170 C 340.664 308.993, 334.408 301.691, 331.954 295.142 C 328.875 286.921, 324.908 281.842, 308.021 264.500 C 290.048 246.042, 280.352 234.439, 262.483 210 C 247.911 190.071, 238.234 177.828, 223.083 160.154 C 209.286 144.059, 201.789 134.015, 197.590 126 C 193.756 118.680, 189.167 99.428, 186.507 79.500 C 184.598 65.195, 182.934 58.932, 178.475 49.258 C 163.400 16.550, 137.187 1.804, 106.105 8.546" fill="none" stroke="#000" stroke-width="2px" fill-rule="evenodd"/>
</svg>
