<svg xmlns="http://www.w3.org/2000/svg" width="383" height="500" viewBox="0 0 383 500" version="1.1">
	<path d="M 188.982 4.521 C 187.158 6.720, 188.416 16.602, 191.480 24.144 C 192.864 27.550, 193.856 30.477, 193.684 30.649 C 193.512 30.821, 189.628 26.257, 185.052 20.506 C 174.831 7.660, 171 5.777, 171 13.599 C 171 17.988, 173.819 23.554, 180.641 32.632 C 183.588 36.555, 186 40.063, 186 40.427 C 186 40.791, 182.970 38.103, 179.266 34.453 C 172.268 27.558, 162.162 19.513, 158.223 17.701 C 156.611 16.960, 155.625 16.975, 154.846 17.754 C 152.573 20.027, 155.335 24.622, 164.823 34.355 C 170.145 39.814, 173.825 43.879, 173 43.389 C 172.175 42.898, 167.456 39.838, 162.512 36.589 C 150.651 28.793, 139 24.679, 139 28.288 C 139 30.153, 147.566 38.111, 154.252 42.457 C 157.415 44.514, 160.254 46.603, 160.561 47.098 C 161.299 48.293, 159.660 48.259, 158.450 47.054 C 157.051 45.662, 138.085 38.294, 133.861 37.502 C 131.490 37.057, 129.978 37.227, 129.505 37.991 C 128.649 39.378, 133.292 44.547, 137.250 46.615 C 141.289 48.724, 140.599 49.939, 136.023 48.778 C 133.836 48.223, 131.361 48.031, 130.523 48.353 C 128.362 49.182, 128.637 52.984, 131.042 55.545 C 132.804 57.421, 132.920 58.082, 131.882 60.360 C 130.949 62.407, 130.947 63.587, 131.871 65.617 C 132.874 67.817, 132.795 68.429, 131.377 69.467 C 130.080 70.415, 129.834 71.588, 130.312 74.537 C 130.655 76.647, 130.529 78.863, 130.032 79.461 C 129.536 80.059, 128.904 85.038, 128.629 90.524 C 128.195 99.177, 127.855 100.682, 126.064 101.872 C 124.615 102.835, 123.996 104.326, 123.987 106.872 C 123.980 108.974, 122.656 113.023, 120.839 116.500 C 117.732 122.445, 117.287 124.349, 116.511 135 C 116.291 138.025, 115.655 142.525, 115.099 145 C 114.542 147.475, 114.057 153.100, 114.020 157.500 C 113.983 161.900, 113.453 167.300, 112.844 169.500 C 112.234 171.700, 111.595 178.900, 111.424 185.500 C 111.253 192.100, 110.827 198.647, 110.478 200.050 C 110.041 201.807, 110.651 204.118, 112.439 207.482 C 113.911 210.250, 114.659 212.741, 114.166 213.234 C 113.672 213.728, 109.226 212.542, 103.898 210.497 C 93.393 206.465, 83.933 204.980, 81.518 206.985 C 80.683 207.678, 80 209.234, 80 210.442 C 80 211.651, 78.875 213.618, 77.500 214.813 C 76.125 216.009, 75 217.874, 75 218.959 C 75 220.043, 73.650 222.468, 72 224.347 C 70.350 226.226, 69 228.553, 69 229.517 C 69 230.482, 67.875 232.313, 66.500 233.588 C 65.074 234.909, 64 237.016, 64 238.493 C 64 239.917, 62.588 243.795, 60.863 247.110 C 57.922 252.761, 57.801 253.399, 58.939 257.319 C 59.607 259.619, 61.020 263.300, 62.079 265.500 C 63.139 267.700, 64.004 269.865, 64.003 270.311 C 63.998 271.817, 43.202 281.072, 37.828 281.960 C 34.898 282.444, 31.825 283.057, 31 283.321 C 30.175 283.585, 26.249 284.799, 22.275 286.018 C 14.456 288.417, 11.597 290.514, 14.064 292.040 C 15.168 292.723, 14.763 293.186, 12.316 294.039 C 9.613 294.982, 6 298.658, 6 300.465 C 6 300.759, 7.392 301, 9.094 301 C 11.346 301, 12.329 301.544, 12.710 303 C 13.340 305.407, 12.738 305.400, 27.053 303.167 C 36.868 301.636, 39.502 300.813, 44.553 297.698 C 47.824 295.682, 56.108 291.719, 62.962 288.892 C 74.659 284.067, 75.636 283.828, 78.894 285.006 C 82.743 286.398, 82.803 286.438, 88.621 291.450 C 95.037 296.977, 101.756 296.060, 113.500 288.058 C 117.523 285.316, 118.828 285.448, 118.238 288.535 C 117.943 290.078, 118.404 291.789, 119.416 292.908 C 120.331 293.918, 121.198 296.787, 121.343 299.283 C 121.488 301.779, 122.036 304.424, 122.561 305.161 C 124.938 308.495, 127.162 313.929, 126.554 314.913 C 126.185 315.509, 126.585 316.997, 127.442 318.221 C 128.299 319.444, 129.014 321.582, 129.032 322.973 C 129.049 324.363, 129.692 326.329, 130.459 327.342 C 131.227 328.355, 132.162 331.055, 132.537 333.342 C 132.911 335.629, 133.736 338.175, 134.370 339 C 136.260 341.460, 139 346.729, 139 347.902 C 139 348.503, 140.587 351.204, 142.526 353.903 C 144.465 356.602, 146.738 361.123, 147.578 363.950 C 148.697 367.719, 149.757 369.337, 151.552 370.020 C 153.768 370.862, 154 371.511, 154 376.853 C 154 381.022, 154.466 383.142, 155.586 384.072 C 156.644 384.950, 156.988 386.310, 156.619 388.156 C 156.213 390.185, 156.724 391.707, 158.533 393.856 C 160.122 395.746, 161 398.028, 161 400.272 C 161 402.246, 161.694 404.331, 162.601 405.084 C 163.855 406.125, 164.062 407.473, 163.555 411.296 C 163.044 415.148, 163.316 416.870, 164.843 419.459 C 166.004 421.427, 166.455 423.264, 165.969 424.051 C 165.523 424.772, 164.629 428.166, 163.982 431.593 C 163.030 436.641, 163.064 438.363, 164.163 440.662 C 166.056 444.625, 169.052 444.774, 171.812 441.041 C 174.926 436.828, 176.370 437.232, 174.348 441.750 C 170.722 449.852, 167.042 461.689, 167.021 465.316 C 166.997 469.712, 168.460 473, 170.441 473 C 172.195 473, 177.233 465.967, 186.230 450.958 C 190.159 444.403, 193.512 439.179, 193.680 439.347 C 193.849 439.515, 191.704 445.244, 188.913 452.077 C 183.542 465.229, 180.041 477.325, 180.015 482.816 C 179.999 486.394, 181.498 490, 183.003 490 C 184.969 490, 192.202 478.862, 198.938 465.463 C 202.799 457.784, 205.967 452.302, 205.979 453.282 C 205.990 454.262, 205.367 456.580, 204.593 458.432 C 202.942 462.383, 199.491 475.624, 198.491 481.844 C 197.707 486.721, 199.564 495, 201.442 495 C 204.318 495, 211.133 482.453, 217.465 465.500 C 221.112 455.736, 222.955 451.985, 221.640 457 C 217.475 472.887, 216.566 487.888, 219.371 494.443 L 221.059 498.385 223.092 496.352 C 225.272 494.172, 230.730 480.009, 233.575 469.146 C 235.860 460.424, 237.122 459.172, 236.717 466.030 C 236.539 469.038, 236.729 473.644, 237.139 476.264 C 237.866 480.915, 241.219 487, 243.055 487 C 245.738 487, 251.897 460.450, 251.986 448.500 C 252.018 444.249, 252.313 442.937, 253 444 C 253.533 444.825, 253.976 446.431, 253.985 447.568 C 254.038 454.703, 261.147 467.263, 264.100 465.438 C 265.905 464.323, 264.536 441.234, 262 430 C 260.820 424.775, 259.231 415.775, 258.468 410 C 257.705 404.225, 256.382 395.943, 255.528 391.596 C 253.887 383.243, 254.121 381.416, 256.429 384.571 C 257.203 385.630, 258.167 386.167, 258.570 385.763 C 259.871 384.462, 258.955 371.433, 257.030 363.859 C 252.977 347.915, 249.910 337.350, 248.418 334.197 C 242.855 322.437, 237.237 298.647, 235.405 279.096 C 234.612 270.637, 233.476 271.060, 245.500 275.344 C 257.965 279.786, 276.313 281.078, 290.500 278.515 C 300.732 276.666, 307.712 276.634, 312.753 278.413 C 314.956 279.190, 319.400 280.132, 322.629 280.506 C 332.457 281.645, 345.795 285.703, 360.297 291.967 C 382.728 301.656, 387.317 301.216, 371.920 290.852 C 367.289 287.735, 356.892 280.903, 348.814 275.668 C 338.243 268.818, 333.388 265.033, 331.484 262.156 C 330.030 259.958, 326.964 256.889, 324.670 255.336 C 320.947 252.814, 319.475 252.475, 310.928 252.168 L 301.357 251.824 291.572 256.912 C 282.877 261.433, 281.103 261.998, 275.644 261.978 C 271.853 261.964, 267.968 261.254, 265.500 260.125 C 260.741 257.945, 253.841 250.578, 249 242.505 C 247.075 239.295, 243.168 233.798, 240.318 230.290 C 231.272 219.155, 229.454 213.167, 226.991 186.390 C 225.212 167.049, 226.107 127.952, 228.466 122 C 229.872 118.452, 230.275 114.327, 230.373 102.500 C 230.488 88.527, 230.318 87.055, 227.898 81 C 225.369 74.674, 224.659 70.948, 221.421 47 C 219.287 31.214, 213.121 8.175, 210.433 5.945 C 207.885 3.830, 206.766 8.639, 207.156 20.035 L 207.525 30.804 201.305 18.778 C 195.367 7.296, 192.552 3, 190.967 3 C 190.570 3, 189.677 3.685, 188.982 4.521 M 61.947 277.958 C 48.420 284.727, 41 289.078, 41 290.241 C 41 292.112, 46.958 290.614, 58.266 285.899 C 74.371 279.183, 73.543 279.778, 70.214 277.317 L 67.395 275.232 61.947 277.958" fill="none" stroke="#000" stroke-width="2px" fill-rule="evenodd"/>
</svg>
