<svg xmlns="http://www.w3.org/2000/svg" width="500" height="342" viewBox="0 0 500 342" version="1.1">
	<path d="M 52.707 3.570 C 46.922 5.399, 41.271 10.765, 38.161 17.381 C 36.028 21.918, 35.915 23.297, 36.074 42.839 C 36.248 64.356, 35.719 69.243, 31.421 85.859 C 28.296 97.939, 28.328 100.473, 31.646 103.548 C 36.057 107.635, 39.879 106.906, 45.491 100.906 L 50.256 95.812 49.724 130.656 C 49.249 161.698, 48.960 166.427, 47.072 174 C 41.279 197.241, 35.281 210.429, 20.360 232.733 C 5.446 255.026, 0.408 270.133, 2.884 285.127 C 3.531 289.047, 5.263 295.909, 6.733 300.377 C 8.870 306.877, 10.413 309.580, 14.452 313.904 C 23.805 323.918, 33.228 328.616, 51.862 332.554 C 55.513 333.326, 79.425 335.133, 105 336.568 C 156.735 339.473, 184.631 339.545, 189.028 336.785 C 190.567 335.820, 195.147 334.996, 201.159 334.603 L 210.819 333.972 213.832 336.986 C 216.505 339.659, 217.516 340, 222.764 340 C 226.019 340, 230.781 339.368, 233.347 338.596 C 235.913 337.824, 239.697 337.416, 241.756 337.691 C 244.861 338.104, 246.164 337.661, 249.388 335.095 C 251.932 333.069, 254.396 332, 256.521 332 C 262.545 332, 289.426 328.012, 299.500 325.623 C 319.231 320.945, 323.677 319.773, 336 316 C 342.875 313.895, 351.875 311.395, 356 310.445 C 366.585 308.007, 376.822 304.206, 381.500 300.976 C 388.292 296.287, 395.696 287.429, 398.015 281.218 C 401.778 271.134, 408.895 260.959, 422.670 245.966 C 426.063 242.272, 430.007 236.945, 431.435 234.129 C 432.862 231.312, 436.577 226.644, 439.690 223.754 C 442.804 220.864, 446.960 216.914, 448.926 214.976 C 450.891 213.038, 456.170 208.663, 460.656 205.253 C 465.142 201.843, 471.217 196.282, 474.156 192.895 C 477.095 189.508, 482.577 183.772, 486.338 180.149 C 495.027 171.777, 498.854 164.959, 494 166.500 C 492.420 167.001, 492 166.680, 492 164.969 L 492 162.802 488.250 165.055 C 486.188 166.294, 478.503 170.393, 471.174 174.166 C 463.845 177.938, 453.541 183.559, 448.277 186.657 C 435.542 194.152, 403.921 209.357, 396.881 211.372 C 393.790 212.256, 390.749 213.598, 390.122 214.353 C 389.406 215.216, 385.736 215.968, 380.241 216.378 C 375.433 216.736, 366.775 217.751, 361 218.633 L 350.500 220.237 340 217.165 C 313.559 209.430, 275.023 200.832, 249 196.863 C 237.249 195.070, 230.044 194.643, 211 194.606 C 184.742 194.556, 174.276 195.867, 148.905 202.388 C 127.734 207.829, 97.997 219.033, 93.183 223.382 C 89.524 226.686, 78.861 240.529, 74.792 247.254 C 72.027 251.825, 70.923 252.964, 70.451 251.732 C 69.189 248.445, 71.984 239.706, 75.946 234.551 C 82.643 225.836, 89.090 211.811, 92.058 199.500 C 94.768 188.257, 94.737 167.632, 91.993 156.187 C 90.281 149.046, 90 144.391, 89.997 123.187 C 89.994 97.252, 88.775 66.996, 86.584 38.500 C 85.162 20.010, 83.368 13.642, 78.177 8.671 C 72.473 3.206, 61.073 0.923, 52.707 3.570" fill="none" stroke="#000" stroke-width="2px" fill-rule="evenodd"/>
</svg>
