<svg xmlns="http://www.w3.org/2000/svg" width="275" height="157" viewBox="0 0 275 157" version="1.1">
	<path d="M 215.820 2.494 C 213.796 3.238, 209.249 6.091, 205.715 8.833 C 197.493 15.214, 191.873 18.025, 174.229 24.584 C 166.348 27.513, 157.560 31.247, 154.700 32.881 C 151.840 34.516, 145.900 37.056, 141.500 38.527 C 137.100 39.998, 132.375 41.817, 131 42.569 C 129.625 43.322, 126.700 44.647, 124.500 45.515 C 122.300 46.382, 114.875 50.202, 108 54.004 C 94.687 61.365, 83.070 66.521, 76.438 68.011 C 74.205 68.513, 62.730 69.635, 50.938 70.504 C 16.891 73.013, 8.717 73.826, 5.250 75.049 C 1.538 76.359, 1.650 76.137, 3.100 79.321 C 4.032 81.366, 5.142 81.836, 10.350 82.386 C 13.733 82.744, 24.600 82.744, 34.500 82.388 C 54.938 81.651, 61.893 82.425, 76.709 87.085 C 100.531 94.578, 110.673 98.150, 113.031 99.879 C 114.423 100.900, 117.459 102.704, 119.779 103.887 C 122.099 105.071, 126.385 108.505, 129.305 111.519 C 132.798 115.126, 135.449 117.018, 137.057 117.052 C 138.400 117.080, 143.456 118.121, 148.290 119.365 C 156.573 121.496, 157.344 121.927, 161.638 126.837 C 166.120 131.960, 166.812 135, 163.496 135 C 162.635 135, 160.839 134.285, 159.506 133.412 C 157.173 131.883, 157.058 131.922, 156.424 134.447 C 156.062 135.889, 154.529 137.709, 153.018 138.491 C 150.917 139.577, 150.111 140.903, 149.597 144.118 C 149.197 146.620, 149.345 148.745, 149.962 149.362 C 150.679 150.079, 151 149.418, 151 147.223 C 151 140.772, 159.584 139.113, 163.988 144.712 C 165.319 146.404, 166.016 148.832, 166.048 151.885 L 166.096 156.500 167.798 153.043 C 168.916 150.772, 171.485 148.411, 175.288 146.159 L 181.076 142.731 185.288 144.446 C 187.605 145.389, 191.447 147.106, 193.827 148.260 C 202.302 152.372, 207.851 153.829, 209.749 152.441 C 211.324 151.290, 211.163 150.889, 207.870 147.784 C 205.889 145.916, 199.902 142.191, 194.566 139.507 C 185.724 135.060, 177.835 129.564, 170.408 122.678 C 167.351 119.842, 167.132 120.084, 175 117.592 C 185.389 114.301, 192.743 111.262, 196.482 108.714 C 198.672 107.221, 201.010 106, 201.678 106 C 203.590 106, 220.304 89.528, 224.345 83.660 C 226.354 80.743, 229.063 75.239, 230.365 71.428 C 231.666 67.618, 234.142 61.400, 235.866 57.612 C 237.590 53.823, 239 50.099, 239 49.337 C 239 45.568, 243.297 36.580, 247.897 30.726 C 253.492 23.607, 256.432 22.002, 263.899 21.996 C 269.841 21.991, 276.015 18.580, 273.892 16.475 C 272.437 15.030, 262.061 12.003, 258.540 11.996 C 257.418 11.993, 254.198 10.246, 251.385 8.113 C 242.942 1.712, 225.460 -1.050, 215.820 2.494" fill="none" stroke="#000" stroke-width="2px" fill-rule="evenodd"/>
</svg>
