<svg xmlns="http://www.w3.org/2000/svg" width="406" height="500" viewBox="0 0 406 500" version="1.1">
	<path d="M 268 4.668 C 264.975 5.486, 261.068 7.245, 259.317 8.577 C 257.566 9.910, 255.686 11, 255.138 11 C 254.591 11, 253.529 11.563, 252.779 12.250 C 252.029 12.938, 250.726 13.950, 249.884 14.500 C 249.041 15.050, 245.480 17.427, 241.971 19.782 C 238.461 22.138, 234.444 24.336, 233.045 24.668 C 230.525 25.264, 223 32.319, 223 34.084 C 223 34.588, 222.373 35, 221.607 35 C 220.841 35, 219.955 35.675, 219.638 36.500 C 219.322 37.325, 218.249 38, 217.254 38 C 216.259 38, 214.674 38.900, 213.732 40 C 212.790 41.100, 211.419 42, 210.684 42 C 209.950 42, 208.259 43.160, 206.927 44.578 C 205.595 45.996, 202.029 48.668, 199.002 50.516 C 195.976 52.365, 192.934 54.804, 192.242 55.938 C 191.550 57.072, 189.300 59.237, 187.242 60.750 C 179.024 66.790, 163.355 85.663, 159.745 93.870 C 158.624 96.416, 154.693 102.775, 151.009 108 C 147.324 113.225, 144.032 118.625, 143.692 120 C 142.974 122.903, 133.519 133, 131.518 133 C 130.773 133, 129.190 134.575, 128 136.500 C 126.810 138.425, 125.199 140, 124.418 140 C 123.638 140, 123 140.694, 123 141.542 C 123 144.425, 115.680 152, 112.894 152 C 110.771 152, 110.509 153.214, 112.023 156.043 C 112.820 157.532, 112.599 158.401, 111.023 159.977 C 109.910 161.090, 109 162.916, 109 164.035 C 109 167.502, 106.126 170.754, 102.452 171.443 C 98.479 172.188, 98.215 172.883, 101 175.268 C 103.380 177.306, 103.557 178.849, 101.500 179.638 C 100.675 179.955, 100 180.996, 100 181.952 C 100 183.855, 97.556 186.320, 94.637 187.360 C 93.170 187.883, 93.021 188.321, 93.936 189.423 C 94.731 190.381, 94.766 191.026, 94.049 191.470 C 93.472 191.826, 93 192.811, 93 193.658 C 93 195.209, 90.623 201.218, 88.910 204 C 87.942 205.571, 87.169 207.193, 83.365 215.633 C 82.093 218.456, 80.365 221.030, 79.526 221.352 C 78.519 221.738, 78 223.263, 78 225.834 C 78 228.345, 77.211 230.734, 75.780 232.552 C 74.393 234.316, 73.672 236.437, 73.858 238.211 C 74.022 239.771, 73.186 243.049, 72.002 245.496 C 70.817 247.943, 70.093 250.342, 70.393 250.826 C 71.017 251.836, 69.736 256.107, 66.442 264 C 61.166 276.640, 58.879 287.673, 59.184 299.014 C 59.310 303.681, 59.024 309.933, 58.548 312.907 C 58.003 316.316, 58.037 318.095, 58.640 317.723 C 60.932 316.306, 61.963 319.222, 62.989 330.028 C 63.588 336.338, 64.449 342.400, 64.902 343.500 C 66.765 348.019, 68.867 355.768, 69.336 359.848 C 69.619 362.309, 70.740 365.159, 71.918 366.413 C 73.894 368.516, 74.853 374, 73.245 374 C 72.830 374, 69.200 376.475, 65.179 379.500 C 57.394 385.357, 55.159 385.929, 49.425 383.533 C 47.494 382.726, 43.571 382.103, 40.707 382.148 C 35.386 382.232, 21.973 380.702, 12.829 378.968 C 10.023 378.435, 5.988 378, 3.864 378 L 0 378 0 403.395 L 0 428.790 4.250 429.423 C 6.588 429.771, 12.100 430.311, 16.500 430.623 C 20.900 430.934, 24.859 431.529, 25.298 431.943 C 25.737 432.357, 24.435 434.677, 22.406 437.098 C 17.179 443.334, 11.003 451.772, 10.982 452.707 C 10.972 453.143, 9.622 455.480, 7.982 457.900 C 4.403 463.182, 3.869 470.382, 6.789 473.987 C 9.131 476.880, 18.877 477.695, 28 475.761 L 34.500 474.383 38.713 478.692 C 43.907 484.004, 46.452 484.186, 58.779 480.130 C 73.484 475.292, 73.277 475.295, 78.198 479.808 C 83.573 484.736, 98.710 494.638, 102.211 495.517 C 106.130 496.500, 111.084 493.655, 115.312 487.992 C 117.604 484.922, 120.856 482.093, 123.819 480.592 C 127.451 478.751, 129.488 476.744, 132.202 472.330 C 136.749 464.935, 138.691 460.241, 139.537 454.599 C 140.624 447.354, 142.152 446.612, 154.223 447.464 C 159.875 447.863, 166.017 448.822, 167.872 449.595 C 169.727 450.368, 172.450 451, 173.923 451 C 175.396 451, 180.629 451.890, 185.551 452.978 C 190.473 454.066, 196.217 454.966, 198.316 454.978 C 200.414 454.990, 203.099 455.518, 204.281 456.150 C 205.463 456.783, 211.621 457.447, 217.965 457.625 C 224.309 457.804, 232.200 458.525, 235.500 459.228 C 240.993 460.397, 241.482 460.717, 241.287 463.003 C 241.170 464.376, 241.327 468.087, 241.636 471.250 C 242.137 476.393, 242.435 477, 244.462 477 C 245.968 477, 247.637 475.689, 249.438 473.090 C 252.063 469.301, 256.481 467.050, 258.065 468.695 C 258.492 469.138, 260.014 473.145, 261.447 477.601 C 264.568 487.300, 267.346 490.448, 272.189 489.769 C 274.010 489.514, 276.252 488.977, 277.170 488.576 C 278.427 488.028, 278.923 488.424, 279.170 490.174 C 279.817 494.738, 286.112 492.920, 292.758 486.250 C 295.376 483.623, 298.220 483.355, 300.053 485.564 C 301.727 487.581, 305.115 486.761, 310.894 482.941 C 316.486 479.244, 320.442 478.527, 328.247 479.793 C 338.433 481.446, 344.707 483.613, 348.604 486.825 C 351.626 489.316, 352.698 489.685, 354.700 488.924 C 356.037 488.416, 359.110 488, 361.530 488 C 365.051 488, 366.687 488.649, 369.715 491.248 C 371.797 493.035, 373.738 494.813, 374.029 495.200 C 374.320 495.587, 376.751 495.689, 379.432 495.427 C 383.379 495.040, 384.651 495.322, 386.131 496.910 C 387.913 498.823, 387.891 498.881, 385.229 499.286 C 383.728 499.514, 387.788 499.768, 394.250 499.850 L 406 500 406 472.207 L 406 444.415 401.486 443.207 C 399.003 442.543, 395.944 442, 394.688 442 C 393.432 442, 388.601 440.659, 383.952 439.020 C 379.303 437.381, 374.566 436.031, 373.425 436.020 C 370.500 435.992, 356.981 431.282, 355.081 429.629 C 354.211 428.872, 351.792 427.704, 349.705 427.034 C 345.134 425.566, 341.575 421.976, 339.014 416.250 C 337.505 412.878, 336.592 412, 334.593 412 L 332.073 412 332.657 400.750 C 333.225 389.823, 333.173 389.439, 330.871 387.380 C 327.747 384.586, 320.687 383.467, 319.002 385.498 C 318.324 386.314, 317.475 390.783, 317.113 395.429 C 316.752 400.076, 316.150 404.184, 315.775 404.559 C 314.253 406.081, 309.792 403.762, 307.824 400.426 C 305.568 396.602, 303.687 396.382, 303.173 399.882 C 302.994 401.106, 301.869 402.490, 300.673 402.957 C 297.858 404.057, 292.632 409.672, 290.861 413.500 C 289.863 415.657, 288.774 416.500, 286.987 416.500 C 284.904 416.500, 284.490 416.012, 284.438 413.500 C 284.404 411.850, 283.796 408.780, 283.086 406.677 C 281.821 402.925, 281.870 402.767, 285.752 398.177 C 287.928 395.605, 290.626 393.362, 291.749 393.194 C 292.872 393.026, 294.583 392.013, 295.551 390.944 C 296.518 389.875, 298.129 389, 299.129 389 C 300.152 389, 301.650 387.644, 302.550 385.903 C 303.431 384.199, 305.678 381.465, 307.544 379.827 C 309.410 378.189, 313.852 372.442, 317.415 367.055 C 320.978 361.668, 324.779 357.030, 325.861 356.747 C 326.943 356.464, 328.593 354.717, 329.526 352.866 C 330.460 351.015, 332.477 348.150, 334.009 346.500 C 335.540 344.850, 337.990 340.141, 339.453 336.035 C 340.915 331.929, 342.507 328.094, 342.989 327.513 C 343.472 326.932, 345.293 320.391, 347.037 312.978 C 348.780 305.565, 351.520 294.775, 353.124 289 C 362.265 256.102, 361.649 258.972, 362.987 243 C 364.141 229.214, 363.614 212.276, 361.835 206 C 361.290 204.075, 360.461 196.875, 359.994 190 C 359.112 177.025, 359.928 170.135, 362.611 167.908 C 363.375 167.274, 364 165.321, 364 163.569 C 364 161.816, 364.630 159.520, 365.401 158.467 C 366.257 157.295, 366.596 155.282, 366.271 153.284 C 365.980 151.487, 366.223 149.436, 366.813 148.725 C 367.403 148.015, 368.183 144.298, 368.546 140.467 C 368.910 136.635, 369.381 133.214, 369.593 132.863 C 370.137 131.963, 376.059 130.942, 386.385 129.968 C 391.271 129.508, 395.749 128.651, 396.335 128.065 C 396.921 127.479, 398.210 127, 399.200 127 C 401.496 127, 401.568 123.796, 399.348 120.408 C 397.642 117.805, 391.126 112.918, 385 109.649 C 378.458 106.159, 378.470 106.187, 378.168 92.579 C 377.781 75.099, 373.646 61.273, 365.493 50.200 C 350.713 30.126, 340.300 20.095, 327.609 13.707 C 317.605 8.671, 309.190 5.892, 302.500 5.416 C 300.300 5.259, 296.928 4.652, 295.007 4.065 C 290.067 2.559, 274.520 2.906, 268 4.668" fill="none" stroke="#000" stroke-width="2px" fill-rule="evenodd"/>
</svg>
