<svg xmlns="http://www.w3.org/2000/svg" width="160" height="282" viewBox="0 0 160 282" version="1.1">
	<path d="M 55.124 2.935 C 47.196 4.963, 40.354 8.398, 37.967 11.549 C 36.610 13.339, 35.163 14.597, 34.750 14.343 C 34.337 14.089, 34 14.359, 34 14.941 C 34 15.523, 33.362 16, 32.583 16 C 31.804 16, 31.017 16.348, 30.833 16.773 C 30.650 17.198, 24.746 19.298, 17.713 21.440 C 4.719 25.397, 0.864 27.198, 2.305 28.638 C 2.746 29.079, 8.820 29.682, 15.803 29.978 C 27.855 30.488, 33 31.702, 33 34.035 C 33 34.566, 33.673 35, 34.495 35 C 36.432 35, 46 44.357, 46 46.252 C 46 48.465, 43.901 54, 43.061 54 C 42.652 54, 40.784 57.038, 38.909 60.750 C 35.592 67.318, 35.495 67.850, 35.330 80.500 C 35.165 93.214, 35.249 93.764, 39.166 105.500 C 43.291 117.862, 44.334 120.222, 52.404 135.452 C 57.482 145.036, 57.560 145.721, 54.723 155.849 L 53.505 160.198 46.826 159.820 C 39.233 159.391, 36.695 157.770, 34.315 151.827 C 32.767 147.961, 30.992 146.682, 28.500 147.638 C 26.523 148.397, 26.608 149.631, 28.858 152.846 C 29.880 154.306, 31.243 156.506, 31.886 157.736 C 33.008 159.881, 32.942 159.929, 30.278 158.924 C 28.750 158.348, 25.620 156.779, 23.322 155.438 C 18.600 152.683, 14.813 152.315, 13.049 154.441 C 12.058 155.635, 12.682 156.255, 16.676 158.048 C 19.329 159.239, 23.525 161.214, 26 162.437 C 28.475 163.660, 33.016 165.451, 36.090 166.417 C 41.310 168.057, 47.829 172.506, 59.780 182.582 C 66.042 187.863, 70.175 185.084, 64.500 179.409 C 61.631 176.540, 61.372 175.822, 63.500 176.638 C 64.435 176.997, 65 176.631, 65 175.666 C 65 173.404, 66.439 172.842, 72.810 172.617 C 75.950 172.506, 79.083 172.067, 79.772 171.641 C 80.461 171.215, 82.439 171.571, 84.166 172.433 C 85.894 173.295, 88.265 174, 89.435 174 C 90.605 174, 94.064 175.565, 97.121 177.477 C 102.159 180.628, 103.105 181.821, 107.234 190.227 C 114.845 205.723, 115.132 206.653, 115.099 215.632 C 115.082 220.298, 115.521 224.204, 116.102 224.563 C 116.671 224.915, 116.900 225.817, 116.612 226.569 C 116.323 227.321, 116.518 228.202, 117.044 228.527 C 117.570 228.852, 118 230.374, 118 231.910 C 118 233.445, 118.413 236.006, 118.918 237.601 C 119.423 239.195, 121.310 245.225, 123.110 251 C 124.911 256.775, 126.691 261.725, 127.067 262 C 127.442 262.275, 128.782 264.975, 130.045 268 C 133.075 275.257, 133.934 276.246, 136.740 275.709 C 138.677 275.339, 139.202 275.758, 139.658 278.040 C 140.361 281.556, 143.593 282.642, 144.400 279.634 C 144.715 278.460, 145.024 274.575, 145.086 271 C 145.148 267.425, 145.541 263.375, 145.959 262 L 146.719 259.500 147.929 262.500 C 150.719 269.420, 155.080 277.821, 156.488 278.990 C 157.817 280.093, 157.997 279.233, 157.976 271.872 C 157.962 267.268, 157.488 261.492, 156.923 259.038 C 156.357 256.584, 155.028 246.992, 153.968 237.723 C 152.909 228.453, 151.546 219.029, 150.941 216.780 C 149.850 212.731, 149.879 212.659, 153.910 209.230 C 158.237 205.549, 158.456 203.980, 155.472 198 C 154.786 196.625, 153.735 191, 153.137 185.500 C 149.870 155.458, 148.690 147.378, 145.911 136 C 144.232 129.125, 141.733 120.575, 140.357 117 C 128.371 85.842, 123.560 77.613, 107.821 61.354 L 98 51.208 98 43.653 C 98 30.316, 94.963 19.604, 88.816 11.265 C 86.694 8.385, 83.538 5.295, 81.803 4.398 C 78.158 2.513, 60.548 1.548, 55.124 2.935" fill="none" stroke="#000" stroke-width="2px" fill-rule="evenodd"/>
</svg>
