<svg xmlns="http://www.w3.org/2000/svg" width="267" height="67" viewBox="0 0 267 67" version="1.1">
	<path d="M 65.112 3.230 C 48.597 4.203, 24.244 10.752, 15.797 16.492 C 11.380 19.493, 4.112 29.977, 2.321 35.930 C 1.005 40.300, 1.035 40.439, 3.823 42.986 C 5.388 44.415, 7.152 46.450, 7.744 47.508 C 8.575 48.992, 9.804 49.393, 13.118 49.261 C 15.481 49.167, 19.282 49.916, 21.565 50.926 C 23.848 51.936, 28.781 53.530, 32.527 54.470 C 36.274 55.410, 40.492 56.617, 41.902 57.153 C 46.880 59.046, 62.600 62.815, 70.500 64.010 C 75.535 64.772, 83.132 64.996, 91 64.614 C 97.875 64.280, 116.775 63.777, 133 63.496 C 178.093 62.715, 189.235 61.762, 203.500 57.469 C 220.663 52.304, 230.917 49.985, 241 48.991 C 250.463 48.057, 266.035 44.335, 265.977 43.020 C 265.931 41.979, 252.944 32.416, 247.297 29.266 C 229.359 19.260, 193.133 7.641, 171.890 5.079 C 156.516 3.226, 85.937 2.003, 65.112 3.230" fill="none" stroke="#000" stroke-width="2px" fill-rule="evenodd"/>
</svg>
