<svg xmlns="http://www.w3.org/2000/svg" width="289" height="178" viewBox="0 0 289 178" version="1.1">
	<path d="M 192.361 8.460 C 187.347 15.123, 184.606 17.006, 182.699 15.099 C 181.171 13.571, 178.472 13.727, 177.063 15.424 C 176.041 16.656, 175.411 16.652, 172.403 15.395 C 170.092 14.430, 168.369 14.254, 167.266 14.871 C 166.251 15.439, 164.665 15.443, 163.187 14.881 C 160.507 13.862, 151.261 14.768, 150.419 16.132 C 150.123 16.609, 148.446 17.014, 146.691 17.032 C 144.936 17.049, 142.626 17.724, 141.559 18.532 C 140.491 19.339, 138.743 20, 137.674 20 C 136.604 20, 134.676 21.137, 133.388 22.526 C 131.626 24.428, 130.115 25.024, 127.274 24.939 C 122.609 24.799, 115.575 26.318, 107.860 29.131 C 103.345 30.778, 100.762 31.130, 96.702 30.653 C 91.501 30.041, 91.357 30.097, 87.274 34.266 C 81.633 40.027, 80.782 40.614, 78.679 40.192 C 77.678 39.991, 75.117 41.033, 72.988 42.508 C 70.859 43.984, 68.602 44.872, 67.972 44.483 C 66.615 43.644, 57.989 47.865, 57.279 49.716 C 57.008 50.422, 55.485 51, 53.894 51 C 51.874 51, 49.760 52.206, 46.881 55 C 44.386 57.421, 41.807 59, 40.348 59 C 39.022 59, 37.662 59.718, 37.325 60.596 C 36.988 61.474, 33.642 65.275, 29.889 69.043 C 26.136 72.811, 22.763 77.155, 22.395 78.697 C 22.026 80.239, 21.388 81.950, 20.978 82.500 C 20.567 83.050, 19.917 84.967, 19.534 86.760 C 18.669 90.802, 16.564 93, 13.556 93 C 11.248 93, 4.436 99.449, 2.065 103.878 C 0.789 106.262, 1.561 117.144, 3.236 120.379 C 3.771 121.413, 4.309 126.138, 4.432 130.879 C 4.725 142.174, 6.904 146.598, 14.604 151.524 C 17.679 153.491, 21.389 156.247, 22.848 157.649 C 24.306 159.051, 27.075 160.881, 29 161.715 C 30.925 162.550, 34.140 164.530, 36.144 166.116 C 40.500 169.564, 45 170.013, 45 167 C 45 164.406, 45.637 164.476, 50.082 167.557 C 56.130 171.748, 74.577 173.679, 118.500 174.719 C 174.602 176.048, 198.780 174.502, 214.832 168.561 C 220.564 166.439, 232.340 163.128, 234 163.172 C 234.825 163.194, 239.158 162.879, 243.629 162.472 C 252.063 161.705, 253.658 162.082, 260.213 166.396 C 262.885 168.155, 262.964 168.142, 265.328 165.591 C 268.112 162.588, 270.747 162.272, 272.543 164.727 C 273.567 166.128, 274.343 166.266, 276.653 165.457 C 279.396 164.495, 279.511 164.186, 279.814 156.979 C 280.131 149.443, 278.206 139.475, 275.328 133.746 C 274.567 132.231, 272.147 129.802, 269.951 128.349 C 264.979 125.059, 265.073 124.670, 275.421 105.500 C 285.349 87.109, 285.437 86.904, 284.181 85.159 C 281.775 81.816, 281.818 80.931, 284.483 78.835 C 287.028 76.833, 287.152 76.369, 286.510 71.234 C 285.828 65.777, 279.744 52, 278.016 52 C 277.519 52, 276.316 50.650, 275.341 49 C 274.366 47.350, 273.067 46, 272.453 46 C 271.840 46, 270.777 44.988, 270.091 43.750 C 269.405 42.513, 265.616 38.965, 261.672 35.867 L 254.500 30.234 254.500 24.683 C 254.500 19.989, 254.075 18.688, 251.750 16.261 C 250.238 14.682, 248.990 12.740, 248.978 11.945 C 248.966 11.150, 248.139 9.438, 247.141 8.140 C 245.382 5.854, 245.227 5.831, 242.163 7.416 C 240.398 8.328, 239 8.598, 239 8.026 C 239 6.272, 237.403 6.883, 233.886 9.984 C 232.023 11.625, 230.141 12.975, 229.702 12.984 C 229.263 12.993, 227.884 14.186, 226.638 15.635 C 224.673 17.919, 224.079 18.112, 222.171 17.092 C 220.961 16.444, 218.853 14.143, 217.486 11.977 C 214.404 7.096, 205.942 2.022, 200.861 2.009 C 197.548 2.001, 196.785 2.580, 192.361 8.460" fill="none" stroke="#000" stroke-width="2px" fill-rule="evenodd"/>
</svg>
