<svg xmlns="http://www.w3.org/2000/svg" width="193" height="285" viewBox="0 0 193 285" version="1.1">
	<path d="M 79 1.950 C 77.075 2.430, 71.286 3.327, 66.136 3.945 C 60.985 4.562, 55.435 5.758, 53.801 6.603 C 49.551 8.800, 45.859 8.630, 40.334 5.982 C 37.675 4.708, 32.963 3.465, 29.862 3.221 C 25.100 2.845, 23.896 3.104, 22.112 4.888 C 19.237 7.763, 18.977 14.116, 21.532 19.061 C 23.341 22.561, 28.929 27.988, 32.172 29.395 L 34.843 30.554 32.344 34.527 C 22.377 50.374, 12.749 68.416, 13.734 69.400 C 14.037 69.704, 13.775 70.566, 13.151 71.318 C 12.528 72.069, 12.313 72.980, 12.675 73.342 C 13.037 73.704, 12.583 74, 11.667 74 C 9.806 74, 9.433 75.531, 11.049 76.531 C 11.683 76.922, 11.061 78.141, 9.479 79.607 C 6.777 82.112, 6.509 85.704, 9.059 85.236 C 9.865 85.088, 9.475 85.846, 8.174 86.958 C 6.890 88.054, 6.163 89.455, 6.552 90.084 C 6.939 90.711, 6.665 91.589, 5.942 92.036 C 4.907 92.675, 4.886 93.157, 5.840 94.307 C 6.806 95.471, 6.742 95.885, 5.526 96.352 C 3.277 97.215, 3.671 99, 6.111 99 C 8.174 99, 8.168 99.045, 5.861 100.967 C 3.754 102.722, 3.702 102.937, 5.372 102.967 C 6.935 102.994, 7.036 103.252, 5.981 104.523 C 4.911 105.812, 5.008 105.953, 6.609 105.439 C 8.094 104.963, 7.963 105.316, 6 107.082 C 4.344 108.573, 4.091 109.118, 5.250 108.697 C 7.267 107.966, 7.550 109.050, 5.800 110.800 C 4.874 111.726, 4.872 112, 5.794 112 C 7.015 112, 6.941 115.393, 5.692 116.641 C 4.320 118.013, 5.035 119.216, 6.500 118 C 7.739 116.971, 8.030 117.081, 8.171 118.628 C 8.391 121.032, 8.737 123.363, 8.970 124 C 9.831 126.355, 10.098 129.586, 9.961 136 C 9.696 148.446, 9.790 152.207, 10.538 159 C 10.932 162.575, 11.244 166.512, 11.233 167.750 C 11.221 168.988, 11.501 170, 11.856 170.001 C 12.210 170.001, 12.592 171.688, 12.705 173.751 C 13.105 181.047, 13.258 182, 14.031 182 C 14.461 182, 14.577 182.900, 14.290 184 C 13.975 185.205, 14.259 186, 15.006 186 C 15.989 186, 15.987 186.310, 15 187.500 C 14.022 188.678, 14.019 189, 14.985 189 C 15.667 189, 15.958 189.668, 15.638 190.500 C 15.265 191.472, 15.667 192.005, 16.781 192.015 C 18.257 192.028, 18.288 192.168, 17 193 C 16.051 193.613, 15.948 193.975, 16.719 193.985 C 17.389 193.993, 17.678 194.675, 17.362 195.500 C 16.982 196.490, 17.418 197.027, 18.643 197.079 C 19.767 197.127, 19.990 197.362, 19.208 197.676 C 18.260 198.057, 18.206 198.544, 19.007 199.508 C 19.800 200.464, 19.774 201.022, 18.913 201.554 C 18.092 202.061, 18.462 202.850, 20.114 204.121 C 21.426 205.130, 21.927 205.966, 21.227 205.978 C 20.291 205.994, 20.387 206.662, 21.592 208.500 C 22.493 209.875, 22.841 211.014, 22.365 211.032 C 21.889 211.049, 22.367 211.720, 23.427 212.521 C 24.487 213.323, 25.056 214.277, 24.693 214.641 C 24.329 215.005, 24.812 215.895, 25.766 216.619 C 27.385 217.849, 27.367 217.941, 25.500 218.004 C 23.713 218.064, 23.766 218.223, 26 219.500 C 27.375 220.286, 28.093 220.945, 27.595 220.965 C 27.097 220.984, 27.436 221.824, 28.347 222.831 C 29.259 223.838, 29.703 224.963, 29.336 225.331 C 28.968 225.699, 29.182 226, 29.812 226 C 30.672 226, 30.671 226.627, 29.810 228.517 C 28.866 230.589, 28.954 231.252, 30.306 232.267 C 31.484 233.151, 31.843 234.633, 31.576 237.500 C 31.371 239.700, 31.123 241.500, 31.024 241.500 C 30.926 241.500, 30.768 242.963, 30.673 244.750 C 30.578 246.538, 30.762 248, 31.083 248 C 31.720 248, 31.979 249.720, 32.109 254.821 C 32.172 257.281, 31.190 259.354, 28.318 262.821 C 19.641 273.295, 19.266 276.156, 26.310 278.128 C 30.345 279.257, 34.850 279.324, 51 278.495 C 55.125 278.284, 60.199 278.086, 62.276 278.055 L 66.051 278 64.656 275.250 C 61.555 269.140, 60.821 247.298, 63.570 242.904 C 64.053 242.132, 64.352 239.475, 64.234 237 C 64.116 234.525, 64.427 231.150, 64.924 229.500 C 65.435 227.804, 65.865 227.286, 65.914 228.309 C 65.961 229.304, 66.403 229.869, 66.896 229.564 C 67.418 229.242, 67.428 227.443, 66.920 225.255 C 65.704 220.019, 65.836 219.199, 67.532 221.441 C 68.621 222.882, 69.033 223.011, 69.128 221.941 C 69.198 221.149, 69.443 219.375, 69.673 218 C 70.337 214.023, 70.315 212.762, 69.506 208.250 C 69.005 205.455, 69.105 204, 69.799 204 C 70.379 204, 71.094 204.787, 71.388 205.750 C 71.682 206.713, 71.694 205.813, 71.416 203.750 C 71.119 201.549, 71.328 200, 71.923 200 C 72.481 200, 72.678 199.325, 72.362 198.500 C 72.045 197.675, 72.270 197, 72.862 197 C 73.453 197, 73.691 196.358, 73.390 195.573 C 72.990 194.533, 73.402 194.292, 74.910 194.687 C 76.047 194.984, 76.691 195.691, 76.340 196.259 C 75.936 196.913, 76.699 197.100, 78.427 196.769 C 80.372 196.397, 80.844 196.556, 80.076 197.324 C 78.623 198.777, 78.708 202, 80.200 202 C 81.133 202, 81.133 202.267, 80.200 203.200 C 78.385 205.015, 78.762 206.442, 80.644 204.880 C 82.112 203.662, 82.208 203.770, 81.537 205.883 C 81.025 207.496, 81.134 208.035, 81.878 207.576 C 82.625 207.114, 82.778 207.943, 82.363 210.200 C 81.783 213.355, 81.827 213.412, 83.346 211.500 C 84.598 209.926, 84.943 209.830, 84.968 211.050 C 84.986 211.903, 84.460 213.140, 83.800 213.800 C 82.867 214.733, 82.877 215, 83.845 215 C 85.242 215, 84.764 219.120, 82.402 227.432 C 80.730 233.312, 80.733 233.283, 82 232.500 C 83.820 231.375, 82.985 233.446, 80.059 237.311 C 77.611 240.546, 77.308 241.587, 78.056 244.197 C 79.439 249.019, 77.548 248.563, 97.750 248.949 C 110.237 249.188, 108.967 248.372, 109.515 256.500 C 109.849 261.438, 107.078 265.580, 99.823 270.992 C 96.045 273.810, 93.218 276.544, 93.541 277.067 C 93.864 277.589, 93.087 278.435, 91.814 278.945 C 90.541 279.456, 90.149 279.902, 90.941 279.937 C 91.991 279.983, 91.855 280.399, 90.441 281.468 C 88.013 283.304, 87.954 283.297, 102.500 282.885 C 103.050 282.870, 106.200 283.048, 109.500 283.282 C 112.800 283.516, 116.034 283.292, 116.686 282.784 C 117.421 282.212, 118.627 282.265, 119.857 282.924 C 122.028 284.085, 132.417 283.451, 137.750 281.832 C 141.228 280.776, 141.271 280.677, 141.022 274.321 C 140.910 271.472, 141.437 269.536, 142.679 268.237 C 145.989 264.773, 146.987 262.388, 145.678 261.069 C 144.771 260.155, 144.903 260.035, 146.250 260.548 C 147.467 261.011, 148 260.725, 148 259.607 C 148 258.723, 147.256 258, 146.347 258 C 144.988 258, 145.077 257.668, 146.847 256.133 C 149.411 253.909, 149.586 252.439, 147.387 251.595 C 146.087 251.096, 146.012 250.690, 147 249.500 C 147.988 248.310, 147.913 247.904, 146.613 247.405 C 145.726 247.064, 145 246.358, 145 245.834 C 145 245.310, 145.445 245.157, 145.989 245.493 C 146.532 245.829, 146.737 245.478, 146.443 244.712 C 145.469 242.175, 148.660 240.961, 157.291 240.585 C 161.985 240.380, 167.476 239.668, 169.495 239.002 C 172.817 237.905, 173.095 237.540, 172.436 235.145 C 172.036 233.690, 171.564 228.675, 171.387 224 C 171.211 219.325, 170.771 212.565, 170.410 208.977 C 169.846 203.375, 170.052 201.963, 171.872 198.977 C 173.406 196.459, 173.823 194.600, 173.382 192.239 C 173.014 190.269, 173.258 188.393, 173.999 187.502 C 174.672 186.690, 174.963 185.345, 174.643 184.513 C 174.324 183.681, 174.430 183, 174.878 183 C 175.798 183, 175.583 177.927, 174.482 173.689 C 173.878 171.363, 174.106 170.785, 175.800 170.342 C 177.178 169.982, 177.725 169.168, 177.472 167.855 C 177.265 166.782, 177.937 165.063, 178.965 164.035 C 179.992 163.008, 180.559 161.893, 180.224 161.558 C 179.163 160.496, 178.972 157, 179.975 157 C 180.504 157, 180.678 156.325, 180.362 155.500 C 180.003 154.564, 180.369 154, 181.336 154 C 182.351 154, 182.751 153.305, 182.497 151.985 C 182.005 149.430, 184.354 143.712, 185.476 144.733 C 185.939 145.155, 186.041 144.726, 185.702 143.779 C 185.359 142.822, 185.760 141.382, 186.606 140.537 C 187.443 139.700, 187.871 138.600, 187.558 138.093 C 187.244 137.586, 187.553 136.943, 188.244 136.664 C 189.179 136.287, 189.149 136.138, 188.128 136.079 C 187.022 136.015, 186.997 135.709, 188 134.500 C 189.027 133.262, 188.934 133, 187.467 133 C 185.827 133, 185.814 132.863, 187.300 131.221 C 189.292 129.020, 189.124 125.011, 187.037 124.968 C 185.756 124.942, 185.792 124.715, 187.250 123.608 C 188.212 122.877, 189 121.767, 189 121.140 C 189 120.513, 189.498 120, 190.107 120 C 190.716 120, 190.955 119.325, 190.638 118.500 C 190.322 117.675, 190.514 117, 191.067 117 C 191.696 117, 191.646 116.207, 190.932 114.873 C 190.062 113.248, 190.085 112.565, 191.029 111.982 C 191.891 111.449, 191.604 111.009, 190.079 110.525 C 188.401 109.992, 188.150 109.524, 188.996 108.505 C 189.799 107.538, 189.794 106.991, 188.980 106.488 C 188.366 106.108, 188.084 105.223, 188.354 104.521 C 188.623 103.818, 188.387 102.787, 187.829 102.229 C 187.143 101.543, 187.183 100.526, 187.954 99.087 C 188.580 97.916, 188.839 96.549, 188.530 96.048 C 188.221 95.548, 188.452 94.839, 189.044 94.473 C 189.766 94.026, 189.647 93.429, 188.680 92.654 C 187.888 92.019, 186.953 90.265, 186.602 88.756 C 186.252 87.247, 185.635 86.062, 185.232 86.124 C 183.320 86.418, 182.858 85.876, 183.925 84.590 C 184.849 83.477, 184.670 82.883, 183.078 81.767 C 180.905 80.245, 177.058 72.611, 177.022 69.750 C 177.010 68.787, 176.550 68, 176 68 C 175.450 68, 175 66.903, 175 65.563 C 175 64.223, 172.975 60.169, 170.500 56.553 C 168.025 52.938, 165.996 49.647, 165.991 49.240 C 165.986 48.833, 164.557 47.375, 162.815 46 C 161.073 44.625, 159.165 43.018, 158.574 42.429 C 156.628 40.487, 138.577 32.195, 134.730 31.475 L 130.959 30.770 134.730 28.749 C 141.243 25.259, 144.746 19.940, 145.670 12.138 C 146.156 8.035, 145.886 6.979, 143.701 4.441 C 141.421 1.793, 140.588 1.506, 135.335 1.562 C 129.383 1.626, 122.767 4.167, 120.061 7.427 C 118.405 9.422, 115.074 9.441, 112.262 7.471 C 105.925 3.032, 87.159 -0.082, 79 1.950 M 78.500 194 C 78.160 194.550, 78.359 195, 78.941 195 C 79.523 195, 80 194.550, 80 194 C 80 193.450, 79.802 193, 79.559 193 C 79.316 193, 78.840 193.450, 78.500 194" fill="none" stroke="#000" stroke-width="2px" fill-rule="evenodd"/>
</svg>
