<svg xmlns="http://www.w3.org/2000/svg" width="500" height="459" viewBox="0 0 500 459" version="1.1">
	<path d="M 197 5.345 C 197 7.339, 191.671 7.592, 185.535 5.888 C 182.643 5.085, 181.471 5.087, 181.202 5.894 C 180.999 6.502, 180.337 7, 179.731 7 C 179.125 7, 177.572 7.993, 176.280 9.206 C 174.242 11.122, 173.541 11.265, 170.966 10.293 C 168.549 9.381, 168 9.435, 168 10.587 C 168 11.441, 166.974 12, 165.406 12 C 163.654 12, 162.643 12.649, 162.290 14 C 161.869 15.609, 160.926 16, 157.467 16 C 154.918 16, 152.995 16.509, 152.746 17.250 C 152.418 18.225, 151.959 18.198, 150.663 17.128 C 149.412 16.095, 149 16.062, 149 16.994 C 149 17.722, 148.211 18.027, 147.086 17.733 C 145.797 17.396, 145.014 17.838, 144.687 19.090 C 144.322 20.483, 143.338 20.914, 140.740 20.817 C 136.354 20.652, 128.784 24.280, 125.588 28.078 C 124.175 29.757, 122.145 31, 120.815 31 C 119.361 31, 117.445 32.323, 115.664 34.555 C 114.104 36.510, 112.337 37.946, 111.738 37.746 C 111.139 37.546, 109.100 39.097, 107.208 41.191 C 105.316 43.286, 102.920 45, 101.884 45 C 100.848 45, 100 45.659, 100 46.465 C 100 48.552, 96.779 50, 92.133 50 C 89.095 50, 87.991 50.453, 87.537 51.884 C 87.208 52.920, 86.165 53.707, 85.219 53.634 C 83.989 53.538, 83.587 54.131, 83.807 55.717 C 84.037 57.378, 83.483 58.092, 81.593 58.566 C 80.206 58.914, 78.836 59.942, 78.548 60.850 C 78.259 61.758, 76.781 63.052, 75.262 63.726 C 73.743 64.400, 71.900 66.312, 71.166 67.975 C 70.363 69.797, 69.084 71, 67.951 71 C 65.658 71, 63.367 74.620, 65.258 75.257 C 66.961 75.830, 64.391 78.901, 61.189 80.118 C 59.549 80.742, 58.991 81.535, 59.416 82.641 C 59.756 83.528, 59.526 84.866, 58.905 85.614 C 58.284 86.362, 58.029 87.632, 58.337 88.436 C 58.676 89.320, 58.148 90.136, 57 90.500 C 55.956 90.831, 54.799 92.059, 54.428 93.228 C 54.057 94.397, 52.190 96.961, 50.280 98.927 C 47.251 102.043, 46.871 102.983, 47.311 106.273 C 47.650 108.806, 47.436 109.986, 46.658 109.865 C 42.352 109.194, 41.080 114.485, 45.352 115.295 C 47.249 115.655, 47.121 115.862, 44.250 117.070 C 42.463 117.823, 41 118.790, 41 119.219 C 41 119.649, 40.100 120, 39 120 C 37.667 120, 37 120.667, 37 122 C 37 123.100, 36.550 124, 36 124 C 35.450 124, 35 124.900, 35 126 C 35 127.100, 35.450 128, 36 128 C 37.843 128, 37.025 129.649, 34.517 130.991 C 33.151 131.722, 31.766 133.161, 31.440 134.188 C 31.115 135.215, 29.281 137.730, 27.366 139.777 C 24.399 142.948, 23.950 144.042, 24.334 147.158 C 24.582 149.169, 24.308 151.292, 23.725 151.875 C 22.979 152.621, 23.145 153.118, 24.286 153.556 C 25.633 154.073, 25.703 154.542, 24.703 156.339 C 24.041 157.528, 22.904 158.879, 22.175 159.342 C 21.447 159.804, 20 162.167, 18.961 164.592 C 17.921 167.016, 16.605 169, 16.036 169 C 15.466 169, 15 169.527, 15 170.171 C 15 170.815, 14.361 172.053, 13.580 172.921 C 11.806 174.893, 11.035 180.751, 12.148 183.799 C 13 186.132, 12.418 187.331, 8.750 190.793 C 7.787 191.701, 7 192.964, 7 193.600 C 7 194.235, 6.325 195.315, 5.500 196 C 4.675 196.685, 4 197.640, 4 198.122 C 4 198.605, 4.675 199, 5.500 199 C 7.504 199, 7.393 201.944, 5.168 207.800 C 3.590 211.952, 3.526 212.907, 4.705 214.682 C 5.813 216.350, 5.839 217.259, 4.844 219.444 C 3.829 221.672, 3.866 222.299, 5.057 223.035 C 6.039 223.642, 6.439 225.457, 6.309 228.714 C 6.204 231.346, 6.697 234.400, 7.404 235.500 C 8.111 236.600, 9.011 240.875, 9.405 245 C 10.616 257.674, 10.783 258.725, 11.909 260.829 C 12.509 261.951, 13 264.643, 13 266.812 C 13 269.097, 13.631 271.279, 14.500 272 C 15.325 272.685, 16 274.053, 16 275.042 C 16 277.854, 18.984 288.796, 21.091 293.712 C 22.141 296.162, 23 299.423, 23 300.960 C 23 302.498, 23.736 304.366, 24.637 305.113 C 26.744 306.863, 30 314.451, 30 317.614 C 30 318.961, 30.663 320.317, 31.473 320.628 C 32.283 320.939, 33.233 322.837, 33.585 324.847 C 33.937 326.856, 34.849 329.497, 35.612 330.715 C 36.376 331.933, 37 334.520, 37 336.465 C 37 338.409, 37.450 340, 38 340 C 38.550 340, 38.988 341.688, 38.974 343.750 C 38.942 348.474, 45.046 360.603, 50.343 366.339 C 52.456 368.627, 54.779 371.625, 55.504 373 C 56.228 374.375, 58.239 376.850, 59.971 378.500 C 62.825 381.218, 64.079 381.601, 73.311 382.579 C 79.329 383.216, 85.415 384.510, 88.179 385.741 C 95.004 388.780, 96.259 391.804, 97.003 407 C 97.642 420.043, 98.492 423.334, 102.620 428.746 C 104.859 431.681, 105.611 432, 110.301 432.004 C 113.731 432.006, 116.614 432.687, 118.774 434.004 C 120.575 435.102, 122.879 436, 123.894 436 C 124.909 436, 128.532 436.892, 131.945 437.983 C 135.359 439.073, 139.130 439.927, 140.326 439.880 C 144.889 439.700, 158.584 441.318, 160.395 442.250 C 161.741 442.943, 163.817 442.707, 167.553 441.437 C 172.491 439.759, 172.972 439.752, 175.372 441.324 C 178.911 443.643, 182.230 443.424, 188.021 440.489 C 191.642 438.655, 194.140 438.076, 197.302 438.339 C 202.082 438.738, 209.514 436.909, 215.198 433.935 C 219.597 431.633, 224.870 431.434, 227.559 433.468 C 228.626 434.276, 230.188 434.951, 231.028 434.968 C 231.869 434.986, 235.843 436.575, 239.860 438.500 C 243.876 440.425, 248.040 442, 249.112 442 C 250.183 442, 253.733 443.125, 257 444.500 C 260.303 445.890, 264.896 447, 267.348 447 C 269.772 447, 273.412 447.692, 275.437 448.538 C 278.679 449.893, 287.230 451.164, 302 452.488 C 304.475 452.709, 314.375 453.134, 324 453.431 C 340.991 453.955, 341.718 453.895, 349 451.356 C 359.381 447.738, 361.951 444.881, 362.158 436.734 C 362.246 433.305, 362.260 429.766, 362.191 428.869 C 361.854 424.489, 350.507 411.214, 342.917 406.319 C 335.616 401.610, 317 383.869, 317 381.620 C 317 379.828, 326.513 378.732, 334.366 379.621 C 340.328 380.295, 342.036 381.200, 352.418 389.186 C 354.023 390.421, 357.398 392.387, 359.918 393.556 C 362.438 394.725, 365.118 396.428, 365.872 397.341 C 366.627 398.253, 367.693 399, 368.240 399 C 368.788 399, 370.707 400.292, 372.506 401.871 C 374.872 403.949, 377.281 404.930, 381.227 405.423 C 387.719 406.234, 390.853 405.064, 393.215 400.948 C 395.220 397.454, 398.166 397.134, 402.431 399.945 C 404.384 401.233, 406.306 401.689, 408.190 401.312 C 410.231 400.904, 412.115 401.472, 414.957 403.353 C 421.040 407.378, 425.659 407.713, 431.845 404.579 C 436.582 402.178, 437.685 402.010, 444.814 402.605 C 451.078 403.127, 453.244 402.925, 455.853 401.576 C 457.904 400.516, 459.911 400.167, 461.300 400.630 C 464.260 401.616, 468.755 401.119, 473 399.337 C 475.854 398.140, 477.176 398.089, 480.161 399.065 C 484.647 400.531, 488.401 399.690, 491.586 396.505 C 495.361 392.730, 494.706 389.885, 488.750 384.175 C 481.131 376.871, 478.894 375.297, 471.313 371.909 C 467.566 370.234, 457.750 365.523, 449.500 361.439 C 437.445 355.471, 431.751 353.311, 420.500 350.439 C 412.800 348.473, 406.005 346.333, 405.401 345.682 C 404.796 345.032, 403.247 341.828, 401.958 338.561 C 399.301 331.828, 398.638 318.160, 400.782 314.316 C 402.111 311.932, 402.351 297.093, 401.166 290.500 C 400.483 286.699, 401.616 282.025, 403.225 282.008 C 403.624 282.004, 403.681 280.655, 403.352 279.012 C 402.964 277.070, 403.323 275.156, 404.377 273.547 C 406.477 270.342, 406.398 267.474, 404.069 262.343 C 402.381 258.627, 402.338 257.963, 403.660 256.075 C 405.316 253.711, 404.766 244.330, 402.730 240.185 C 401.863 238.420, 401.882 237.691, 402.810 237.117 C 403.636 236.607, 403.824 234.940, 403.394 231.932 C 402.522 225.835, 402.536 221.109, 403.437 217.159 C 404.080 214.338, 403.794 213.394, 401.600 211.104 C 398.584 207.956, 398.346 206.465, 400.654 205.173 C 401.799 204.533, 402.069 203.670, 401.531 202.374 C 401.104 201.343, 400.630 197.969, 400.480 194.876 C 400.329 191.783, 399.689 188.287, 399.057 187.106 C 398.425 185.925, 398.182 184.515, 398.517 183.972 C 398.852 183.430, 398.423 182.716, 397.562 182.385 C 396.451 181.959, 396.042 180.582, 396.152 177.642 C 396.469 169.183, 395.222 157.902, 393.782 156.208 C 392.984 155.269, 391.734 151.912, 391.005 148.750 C 390.277 145.588, 389.302 143, 388.840 143 C 388.378 143, 388 142.155, 388 141.122 C 388 140.090, 387.330 138.689, 386.511 138.009 C 385.692 137.329, 385.269 136.374, 385.570 135.887 C 385.871 135.399, 385.290 135, 384.277 135 C 382.365 135, 380.205 129.564, 379.759 123.631 C 379.641 122.053, 378.972 120.543, 378.272 120.274 C 377.572 120.006, 377 119.372, 377 118.866 C 377 118.361, 375.551 116.355, 373.780 114.409 C 372.010 112.463, 370.547 109.895, 370.530 108.703 C 370.511 107.342, 369.756 106.396, 368.500 106.160 C 365.077 105.518, 363.864 103.896, 364.532 100.854 C 365.052 98.486, 364.735 97.836, 362.577 96.853 C 361.159 96.207, 360 95.128, 360 94.454 C 360 91.813, 357.056 87.777, 353.859 86.034 C 351.509 84.753, 350.570 83.580, 350.734 82.128 C 350.871 80.910, 350.148 79.614, 348.984 78.991 C 347.893 78.407, 347 77.270, 347 76.465 C 347 75.659, 346.550 75, 346 75 C 345.450 75, 345 74.354, 345 73.563 C 345 72.673, 343.763 72.007, 341.750 71.813 C 339.131 71.561, 338.443 71.014, 338.206 69 C 337.924 66.598, 334.336 64, 331.301 64 C 330.585 64, 330 63.568, 330 63.040 C 330 62.513, 328.767 60.938, 327.260 59.540 C 325.753 58.143, 324.516 56.213, 324.510 55.250 C 324.503 53.961, 323.808 53.571, 321.872 53.769 C 319.943 53.966, 319.102 53.499, 318.714 52.015 C 318.374 50.713, 317.646 50.199, 316.672 50.572 C 315.630 50.972, 315.056 50.429, 314.829 48.826 C 314.568 46.992, 313.928 46.538, 311.804 46.681 C 309.574 46.830, 308.921 46.291, 308.017 43.552 C 306.418 38.706, 303.417 36.259, 300.958 37.794 C 298.316 39.444, 298.177 39.377, 297.816 36.286 C 297.362 32.386, 291.816 31.283, 287.635 34.260 L 284.694 36.354 285.351 33.738 C 285.712 32.300, 285.556 30.843, 285.004 30.502 C 284.452 30.161, 284 28.559, 284 26.941 C 284 24.495, 283.592 24, 281.576 24 C 277.198 24, 269 21.682, 269 20.443 C 269 19.776, 267.845 18.473, 266.433 17.548 C 264.480 16.268, 263.539 16.138, 262.497 17.002 C 261.524 17.810, 260.562 17.836, 259.171 17.092 C 257.585 16.243, 256.919 16.466, 255.651 18.272 C 254.313 20.179, 253.940 20.284, 253.060 19 C 252.495 18.175, 251.873 17.050, 251.679 16.500 C 251.472 15.914, 250.616 16.086, 249.612 16.914 C 248.101 18.162, 247.837 18.091, 247.371 16.313 C 247.081 15.203, 245.290 13.555, 243.390 12.649 C 241.491 11.743, 239.575 10.027, 239.135 8.835 L 238.333 6.667 236.166 8.834 C 233.930 11.070, 232 11.664, 232 10.117 C 232 9.631, 231.147 9.010, 230.104 8.738 C 228.819 8.401, 227.799 9.007, 226.935 10.621 C 225.319 13.641, 224.243 13.628, 222.851 10.571 C 221.910 8.506, 221.463 8.318, 219.869 9.314 C 218.425 10.216, 217.591 10.202, 216.247 9.253 C 215.286 8.575, 212.915 7.160, 210.979 6.107 C 207.905 4.436, 207.213 4.371, 205.537 5.596 C 203.013 7.442, 201.065 7.369, 198.829 5.345 C 197.127 3.805, 197 3.805, 197 5.345" fill="none" stroke="#000" stroke-width="2px" fill-rule="evenodd"/>
</svg>
