<svg xmlns="http://www.w3.org/2000/svg" width="500" height="330" viewBox="0 0 500 330" version="1.1">
	<path d="M 145.329 8.322 C 143.144 10.296, 138.049 13.240, 134.008 14.863 C 127.353 17.537, 126.109 18.507, 120.830 25.130 C 117.623 29.153, 115 32.773, 115 33.174 C 115 33.576, 112.933 35.326, 110.407 37.064 C 107.881 38.802, 104.586 42.160, 103.085 44.527 C 101.585 46.893, 98.957 50.007, 97.245 51.447 C 95.534 52.887, 93.595 55.738, 92.936 57.783 C 92.278 59.827, 91.381 61.956, 90.944 62.513 C 90.506 63.071, 89.601 65.771, 88.932 68.513 C 87.225 75.514, 85.525 78.049, 80.171 81.577 C 71.959 86.988, 70.390 87.375, 56 87.536 C 41.276 87.700, 29.142 89.777, 25 92.840 C 23.625 93.858, 20.558 97.062, 18.185 99.962 L 13.871 105.233 14.073 113.867 C 14.258 121.771, 14.020 122.977, 11.245 128.147 C 9.444 131.504, 7.732 136.774, 7.022 141.147 C 6.366 145.191, 5.272 150.525, 4.591 153 C 3.340 157.546, 3.255 174.985, 4.474 176.958 C 4.837 177.545, 5.482 182.527, 5.909 188.029 C 6.556 196.385, 7.204 199.042, 9.842 204.157 C 11.579 207.525, 13 211.276, 13 212.491 C 13 221.153, 18.485 224.502, 34.515 225.628 C 39.745 225.996, 44.766 226.840, 45.673 227.503 C 46.727 228.274, 47.601 231.019, 48.093 235.108 C 49.126 243.692, 52.506 250.083, 56.715 251.413 C 59.165 252.187, 65 248.614, 65 246.339 C 65 244.103, 69.424 235.556, 71.308 234.153 C 72.591 233.197, 72.947 232.034, 72.533 230.151 C 72.047 227.938, 72.701 226.791, 76.465 223.249 C 78.948 220.912, 81.583 219, 82.321 219 C 83.059 219, 84.264 217.875, 85 216.500 C 85.736 215.125, 86.800 214, 87.364 214 C 87.929 214, 89.652 212.792, 91.194 211.314 C 93.524 209.081, 94.966 208.608, 99.748 208.505 C 105.404 208.382, 107.733 209.077, 111.296 211.947 C 112.284 212.743, 114.984 213.439, 117.296 213.495 C 120.650 213.576, 121.562 213.991, 121.809 215.548 C 122.324 218.805, 126.416 221.172, 129.502 219.999 C 133.276 218.564, 133.744 218.701, 135.195 221.658 C 135.913 223.120, 137.175 224.625, 138 225.002 C 138.825 225.380, 140.506 226.209, 141.736 226.845 C 142.966 227.480, 145.329 228, 146.986 228 C 148.824 228, 150 228.518, 150 229.327 C 150 230.231, 150.952 230.514, 152.988 230.215 C 155.101 229.905, 156.158 230.249, 156.595 231.388 C 156.936 232.275, 157.852 233, 158.632 233 C 159.412 233, 160.503 234.192, 161.056 235.648 C 162.012 238.161, 162.132 238.201, 163.423 236.436 C 164.518 234.939, 165.069 234.813, 166.248 235.790 C 167.053 236.459, 169.121 237.170, 170.844 237.370 C 174.628 237.811, 177 239.612, 177 242.046 C 177 243.036, 178.030 245.119, 179.289 246.673 C 182.203 250.272, 184.204 254.862, 183.415 256.138 C 183.079 256.681, 183.545 257.945, 184.450 258.945 C 186.004 260.662, 186.633 264.693, 187.345 277.500 C 187.564 281.435, 187.017 283.627, 184.779 287.793 C 183.215 290.704, 182.218 293.545, 182.565 294.106 C 182.912 294.667, 182.551 295.885, 181.763 296.813 C 180.974 297.741, 179.760 299.941, 179.064 301.701 C 178.367 303.462, 176.724 305.606, 175.412 306.466 C 174.099 307.326, 172.111 309.823, 170.993 312.015 C 169.447 315.044, 168.364 316, 166.480 316 C 164.429 316, 164 316.486, 164 318.809 C 164 320.354, 164.563 322.374, 165.250 323.298 C 167.796 326.720, 182.570 327.614, 191.572 324.892 C 194.566 323.986, 202.378 317, 200.397 317 C 199.850 317, 199.582 315.459, 199.801 313.576 C 200.146 310.620, 200.550 310.175, 202.744 310.326 C 204.584 310.452, 205.381 309.947, 205.625 308.500 C 207.443 297.720, 207.518 297.517, 210.157 296.253 C 211.619 295.553, 213.741 293.409, 214.873 291.490 C 216.006 289.570, 217.522 288, 218.243 288 C 219.176 288, 219.439 286.806, 219.157 283.847 C 218.832 280.438, 219.034 279.799, 220.289 280.281 C 222.021 280.945, 223.400 277.206, 222.392 274.579 C 221.995 273.544, 222.339 273, 223.393 273 C 224.277 273, 225 273.675, 225 274.500 C 225 275.325, 225.648 276, 226.441 276 C 229.137 276, 228.929 274.324, 225.961 272.129 C 224.332 270.925, 223 269.025, 223 267.906 C 223 266.214, 223.546 265.925, 226.250 266.186 C 229.420 266.492, 229.512 266.389, 230 262 C 230.388 258.507, 230.890 257.531, 232.241 257.637 C 233.633 257.747, 233.854 257.247, 233.344 255.137 C 232.297 250.804, 231.187 248.234, 230.062 247.538 C 228.336 246.472, 228.848 245, 230.943 245 C 232.012 245, 233.540 245.933, 234.339 247.073 C 235.998 249.442, 237.483 248.099, 236.529 245.092 C 235.938 243.230, 237.645 230.022, 238.600 229.067 C 238.870 228.797, 239.970 229.125, 241.045 229.796 C 242.738 230.853, 243 230.751, 243 229.038 C 243 227.950, 244.138 224.571, 245.529 221.530 L 248.059 216 253.376 216 C 257.259 216, 259.316 216.540, 261 218 C 262.520 219.319, 264.741 220, 267.520 220 C 269.837 220, 273.931 220.845, 276.617 221.878 C 279.302 222.911, 285.931 224.462, 291.346 225.326 C 296.761 226.189, 302.386 227.695, 303.846 228.672 C 305.743 229.942, 308.488 230.456, 313.472 230.474 C 319.733 230.497, 320.455 230.704, 320.551 232.500 C 320.610 233.600, 320.735 235.460, 320.829 236.633 C 321.050 239.385, 324.904 240.513, 326.523 238.299 C 327.169 237.417, 328.215 237.015, 328.848 237.406 C 329.533 237.829, 330 237.473, 330 236.528 C 330 235.653, 330.634 234.694, 331.410 234.396 C 332.185 234.099, 333.094 232.763, 333.429 231.428 C 333.862 229.702, 334.731 229, 336.436 229 C 337.754 229, 339.070 229.562, 339.359 230.250 C 339.704 231.068, 340.880 230.377, 342.765 228.250 C 344.350 226.463, 346.599 225, 347.764 225 C 348.929 225, 350.159 224.551, 350.498 224.003 C 350.837 223.454, 353.676 221.768, 356.807 220.255 C 360.060 218.684, 365.104 214.888, 368.576 211.399 C 373.564 206.387, 374.513 204.915, 373.873 203.185 C 373.235 201.460, 373.926 200.364, 377.670 197.164 C 384.533 191.298, 388.126 193.280, 389.405 203.638 C 389.953 208.080, 393.907 217.499, 395.853 219 C 396.209 219.275, 398.202 222.944, 400.282 227.153 C 402.361 231.363, 404.723 235.355, 405.531 236.026 C 406.339 236.696, 407 237.649, 407 238.144 C 407 238.638, 408.168 240.807, 409.595 242.964 C 411.022 245.120, 411.912 247.333, 411.573 247.881 C 411.235 248.429, 411.867 252.272, 412.979 256.421 C 414.090 260.569, 415 265.115, 415 266.523 C 415 268.926, 411.894 280.076, 409.992 284.500 C 409.520 285.600, 408.848 289.200, 408.499 292.500 C 407.452 302.420, 406.154 305.926, 402.267 309.334 C 400.281 311.075, 397.384 314.255, 395.828 316.400 C 394.273 318.545, 393 319.783, 393 319.150 C 393 318.518, 392.564 318, 392.031 318 C 390.273 318, 392.012 320.576, 394.936 322.303 C 396.516 323.236, 399.088 324, 400.652 324 C 404.285 324, 424.595 317.263, 426.398 315.459 C 427.148 314.709, 428.040 314.374, 428.381 314.714 C 428.721 315.055, 429.026 314.471, 429.058 313.417 C 429.090 312.363, 429.245 306.989, 429.402 301.476 C 429.559 295.963, 430.208 290.480, 430.844 289.292 C 431.480 288.104, 432 286.402, 432 285.511 C 432 284.620, 432.859 282.002, 433.909 279.695 C 434.959 277.388, 436.120 273.700, 436.488 271.500 C 436.857 269.300, 438.247 264.234, 439.579 260.241 C 440.911 256.249, 442 252.113, 442 251.050 C 442 249.987, 442.450 248.840, 443 248.500 C 443.550 248.160, 444 247.064, 444 246.063 C 444 245.063, 444.722 243.646, 445.604 242.914 C 446.486 242.181, 447.600 240.551, 448.079 239.291 C 449.221 236.288, 450.815 236.383, 452.010 239.526 C 452.538 240.915, 453.652 242.313, 454.485 242.633 C 455.318 242.952, 456 244.075, 456 245.128 C 456 246.200, 457.101 247.544, 458.500 248.182 C 459.875 248.808, 461 249.723, 461 250.214 C 461 250.704, 462.137 252.770, 463.526 254.803 C 469.231 263.152, 472.987 279.747, 472.251 293.362 C 471.704 303.490, 471.700 303.506, 467.352 309.062 C 464.958 312.121, 463 315.159, 463 315.812 C 463 316.466, 462.288 317, 461.417 317 C 457.704 317, 461.202 319.680, 467.811 321.901 L 474.958 324.301 478.729 321.811 C 480.803 320.441, 483.738 318.563, 485.250 317.637 C 486.762 316.711, 487.996 315.177, 487.991 314.227 C 487.986 313.277, 489.421 311.317, 491.180 309.872 L 494.378 307.243 493.153 301.872 C 492.479 298.917, 491.741 293.350, 491.512 289.500 C 491.283 285.650, 490.653 278.450, 490.113 273.500 C 489.572 268.550, 488.873 258.425, 488.559 251 C 487.937 236.295, 486.499 222.937, 485.115 219 C 484.632 217.625, 483.410 213.800, 482.400 210.500 C 481.391 207.200, 479.988 203.612, 479.282 202.527 C 478.577 201.443, 478 199.287, 478 197.738 C 478 196.188, 477.138 193.230, 476.083 191.164 C 473.122 185.359, 472.611 180.867, 474.419 176.540 C 475.289 174.458, 476 171.875, 476 170.799 C 476 167.806, 483.611 161, 486.959 161 C 488.497 161, 490.200 160.437, 490.743 159.750 C 491.286 159.063, 492.034 154.700, 492.405 150.055 C 492.776 145.410, 493.532 141.063, 494.086 140.396 C 495.132 139.136, 494.354 129.659, 492.994 127.096 C 492.582 126.321, 493.071 123.833, 494.085 121.542 C 495.094 119.259, 496.220 113.796, 496.587 109.402 C 497.213 101.898, 497.063 100.979, 494.127 94.288 C 492.407 90.370, 491 86.765, 491 86.277 C 491 84.492, 486.009 78.691, 482.304 76.168 C 477.925 73.187, 468.782 69.675, 458 66.833 C 453.875 65.746, 448.475 63.962, 446 62.870 C 443.525 61.777, 437.450 60.256, 432.500 59.489 C 427.550 58.722, 419.577 56.535, 414.783 54.628 C 403.496 50.139, 396.988 48.359, 389.123 47.611 C 382.631 46.993, 380.618 46.541, 366.500 42.531 C 362.100 41.281, 355.125 39.582, 351 38.754 C 346.875 37.927, 335.625 35.217, 326 32.732 C 316.375 30.248, 305.575 27.895, 302 27.502 C 298.425 27.110, 292.384 25.712, 288.576 24.395 C 284.767 23.078, 280.593 22, 279.299 22 C 278.005 22, 269.421 20.242, 260.223 18.094 C 251.026 15.946, 239.900 13.896, 235.500 13.539 C 231.100 13.183, 221.425 11.996, 214 10.903 C 205.334 9.628, 195.150 8.907, 185.559 8.892 C 174.757 8.874, 169.648 8.462, 167.118 7.405 C 165.192 6.600, 160.396 5.670, 156.460 5.337 C 149.314 4.733, 149.296 4.738, 145.329 8.322" fill="none" stroke="#000" stroke-width="2px" fill-rule="evenodd"/>
</svg>
