<svg xmlns="http://www.w3.org/2000/svg" width="245" height="500" viewBox="0 0 245 500" version="1.1">
	<path d="M 93.625 6.534 C 93.289 7.410, 92.541 7.835, 91.963 7.477 C 91.385 7.120, 90.277 7.355, 89.500 8 C 88.723 8.645, 87.665 8.911, 87.149 8.592 C 86.632 8.273, 85.941 8.712, 85.612 9.569 C 85.283 10.426, 84.533 10.829, 83.944 10.465 C 83.356 10.102, 82.002 10.593, 80.937 11.557 C 79.872 12.521, 79 13.059, 79 12.753 C 79 12.446, 76.964 12.808, 74.476 13.557 C 71.988 14.306, 69.305 14.670, 68.513 14.367 C 65.517 13.217, 57.064 17.047, 54.236 20.835 C 52.731 22.851, 51.163 24.650, 50.750 24.833 C 49.709 25.296, 49.854 33.674, 50.987 38.500 C 51.821 42.051, 51.677 42.694, 49.713 44.228 C 48.100 45.487, 47.914 45.962, 49.026 45.978 C 50.216 45.995, 50.465 46.939, 50.155 50.250 C 49.936 52.587, 49.249 54.831, 48.628 55.235 C 47.936 55.686, 47.901 55.975, 48.537 55.985 C 49.108 55.993, 49.681 57.393, 49.811 59.096 C 49.940 60.799, 50.936 64.034, 52.023 66.284 C 53.110 68.535, 54 70.929, 54 71.604 C 54 72.280, 54.519 73.006, 55.152 73.217 C 55.786 73.429, 56.382 74.479, 56.477 75.551 C 56.571 76.623, 57.626 79.075, 58.821 81 C 60.015 82.925, 61.027 85.175, 61.070 86 C 61.557 95.446, 62.093 99.408, 63.038 100.546 C 63.658 101.293, 63.873 102.826, 63.515 103.952 C 63.049 105.421, 63.308 106, 64.433 106 C 65.295 106, 66.037 106.563, 66.083 107.250 C 66.129 107.938, 66.282 109.554, 66.423 110.843 C 66.564 112.131, 66.077 113.417, 65.340 113.700 C 64.603 113.983, 64 114.841, 64 115.607 C 64 116.445, 62.904 117.025, 61.250 117.063 C 58.607 117.124, 58.587 117.162, 60.750 118.031 C 63.569 119.164, 63.636 121.714, 60.908 124.080 C 59.758 125.077, 59.116 126.379, 59.483 126.973 C 59.871 127.601, 58.814 128.518, 56.951 129.167 C 54.313 130.087, 54.037 130.441, 55.376 131.191 C 57.855 132.578, 57.322 135.601, 54 139 C 52.350 140.688, 51 142.735, 51 143.548 C 51 145.180, 49.190 148.672, 47.250 150.783 C 46.562 151.531, 46 152.698, 46 153.376 C 46 154.054, 44.727 156.616, 43.171 159.069 C 41.616 161.522, 40.518 164.054, 40.732 164.697 C 40.946 165.339, 40.391 167.277, 39.498 169.004 C 38.257 171.404, 38.145 172.470, 39.024 173.529 C 39.903 174.588, 39.817 175.423, 38.662 177.072 C 37.831 178.259, 37.386 179.843, 37.674 180.592 C 37.961 181.341, 37.059 183.990, 35.669 186.477 C 34.278 188.965, 33.548 191, 34.046 191 C 34.584 191, 34.581 191.972, 34.039 193.397 C 33.538 194.716, 33.343 196.009, 33.606 196.272 C 34.437 197.103, 30.908 204.821, 29.439 205.385 C 28.666 205.682, 28.278 206.561, 28.576 207.339 C 28.886 208.144, 26.861 211.466, 23.875 215.054 C 20.991 218.520, 19.375 221.070, 20.284 220.721 C 22.602 219.832, 23.440 221.703, 21.564 223.579 C 19.567 225.576, 19.583 226.097, 21.616 225.317 C 23.014 224.781, 23.068 225.005, 22.017 226.969 C 21.224 228.451, 21.183 229.005, 21.900 228.562 C 23.636 227.489, 23.181 230.135, 21.250 232.343 C 20.210 233.532, 20.071 234.008, 20.908 233.516 C 21.991 232.878, 22.185 233.184, 21.751 234.844 C 21.368 236.307, 21.645 237, 22.613 237 C 24.129 237, 23.875 239.053, 21.497 246 C 20.838 247.925, 20.493 250.059, 20.730 250.741 C 21.460 252.846, 18.894 259.356, 16.192 262.250 C 14.781 263.762, 14.099 265, 14.676 265 C 15.551 265, 15.821 268.940, 15.003 269.750 C 14.864 269.887, 14.692 270.337, 14.622 270.750 C 14.551 271.163, 13.322 273.075, 11.890 275 C 9.923 277.643, 9.274 279.725, 9.239 283.500 C 9.146 293.442, 8.298 301.575, 7.126 303.765 C 6.394 305.133, 6.319 306, 6.933 306 C 7.486 306, 7.729 306.563, 7.474 307.250 C 6.561 309.715, 5.345 321, 5.992 321 C 6.356 321, 6.455 322.350, 6.213 324 C 5.891 326.196, 6.175 327, 7.273 327 C 9.043 327, 9.836 331.174, 9.505 338.750 C 9.379 341.637, 9.631 344, 10.066 344 C 12.296 344, 14 347.483, 14 352.040 C 14 355.982, 14.293 356.825, 15.500 356.362 C 16.325 356.045, 17.056 356.284, 17.125 356.893 C 17.417 359.477, 17.537 359.870, 18.250 360.583 C 18.663 360.996, 19 362.158, 19 363.167 C 19 364.175, 19.450 365, 20 365 C 21.454 365, 21.225 369.110, 19.500 374 C 17.718 379.051, 17.691 379.309, 19.040 378.475 C 19.726 378.051, 19.834 378.796, 19.357 380.666 C 18.960 382.225, 18.697 384.397, 18.773 385.492 C 18.850 386.588, 18.247 388.501, 17.433 389.742 C 16.446 391.249, 16.336 392, 17.102 392 C 17.888 392, 18.008 393.025, 17.482 395.250 C 15.927 401.835, 16.194 411.344, 18.038 415.018 C 19.010 416.954, 19.822 420.783, 19.843 423.528 C 19.864 426.273, 20.347 430.539, 20.916 433.009 C 22.338 439.179, 22.267 440.316, 20.500 439.638 C 19.675 439.322, 19 439.499, 19 440.031 C 19 440.564, 19.482 441, 20.071 441 C 20.661 441, 21.782 441.639, 22.563 442.420 C 23.653 443.510, 23.695 443.959, 22.741 444.357 C 21.805 444.747, 21.869 445.197, 23 446.187 C 23.825 446.909, 25.280 449.188, 26.234 451.250 C 27.187 453.313, 28.425 455, 28.984 455 C 29.543 455, 30 455.592, 30 456.314 C 30 457.736, 37.250 462, 39.666 462 C 40.676 462, 41.041 462.832, 40.822 464.629 C 40.527 467.038, 40.994 467.414, 46.409 469.132 C 49.659 470.163, 56.531 471.394, 61.680 471.868 C 67.753 472.426, 71.650 473.278, 72.771 474.293 C 73.998 475.403, 76.398 475.829, 81.026 475.759 C 85.429 475.692, 88.357 476.177, 90.026 477.250 C 91.662 478.301, 94.625 478.812, 98.774 478.758 L 105.048 478.677 104.476 474.838 C 103.953 471.332, 104.102 471.001, 106.202 471.015 C 107.466 471.023, 111.200 471.653, 114.500 472.415 C 117.800 473.177, 126.125 474.103, 133 474.472 C 139.875 474.842, 149.100 475.818, 153.500 476.640 C 157.900 477.463, 163.750 478.384, 166.500 478.687 C 169.250 478.991, 172.400 480.032, 173.500 481 C 174.600 481.969, 177.750 483.084, 180.500 483.479 C 183.250 483.873, 185.795 484.672, 186.155 485.253 C 186.515 485.835, 188.083 486.446, 189.640 486.612 C 193.649 487.039, 196.603 488.834, 197.868 491.610 C 198.660 493.347, 199.766 494, 201.920 494 C 203.549 494, 205.160 494.450, 205.500 495 C 206.682 496.912, 208.869 495.984, 209.184 493.438 L 209.500 490.876 213.365 494.428 C 216.349 497.171, 217.783 497.842, 219.655 497.372 C 221.279 496.964, 222.758 497.376, 224.131 498.618 C 226.130 500.428, 226.217 500.424, 227.638 498.487 C 228.439 497.394, 229.959 496.638, 231.014 496.807 C 233.381 497.186, 234.249 494.303, 233.812 487.512 L 233.500 482.657 227.193 479.442 C 220.707 476.135, 218.087 473.693, 218.032 470.904 C 217.987 468.671, 221.043 462.797, 223.182 461 C 224.165 460.175, 226.095 457.475, 227.472 455 C 232.508 445.946, 232.511 445.937, 230.943 444.928 C 229.859 444.231, 229.798 443.807, 230.698 443.223 C 231.489 442.710, 231.935 438.893, 232.012 431.973 C 232.208 414.362, 232.473 408.543, 233.125 407.500 C 233.468 406.950, 233.436 404.137, 233.054 401.250 C 232.672 398.363, 232.722 396, 233.167 396 C 233.611 396, 232.855 393.469, 231.487 390.376 C 229.097 384.970, 228.185 378.999, 229.750 379.001 C 230.162 379.001, 230.342 376.721, 230.149 373.935 C 229.882 370.079, 230.195 368.578, 231.460 367.653 C 232.524 366.875, 233.219 364.711, 233.392 361.632 C 233.542 358.989, 234.089 356.528, 234.609 356.163 C 235.830 355.307, 235.613 352.426, 233.544 342 C 231.322 330.799, 231.124 326.286, 232.656 321.732 C 233.353 319.660, 233.639 317.224, 233.292 316.318 C 232.836 315.131, 233.027 314.899, 233.976 315.485 C 235.007 316.123, 235.123 315.672, 234.510 313.399 C 233.427 309.387, 233.849 303.713, 235.296 302.811 C 235.958 302.399, 236.500 301.036, 236.500 299.781 C 236.500 298.468, 237.039 297.609, 237.771 297.757 C 239.102 298.026, 238.604 294.222, 236.862 290.816 C 236.388 289.889, 236 288.003, 236 286.623 C 236 284.652, 236.429 284.197, 238.004 284.501 C 239.106 284.713, 240.544 285.218, 241.200 285.624 C 241.857 286.029, 241.470 285.042, 240.342 283.431 C 239.215 281.819, 237.995 279.274, 237.633 277.777 C 237.083 275.498, 237.251 275.159, 238.661 275.700 C 240.026 276.224, 240.187 275.981, 239.505 274.424 C 239.041 273.366, 238.548 271.150, 238.408 269.500 C 238.268 267.850, 238.051 266.275, 237.925 266 C 237.799 265.725, 237.643 265.044, 237.579 264.487 C 237.515 263.929, 236.289 261.904, 234.855 259.987 C 233.421 258.069, 231.929 254.715, 231.538 252.534 C 231.148 250.352, 229.967 247.358, 228.914 245.879 C 227.861 244.401, 227 242.753, 227 242.218 C 227 241.683, 226.325 240.685, 225.500 240 C 223.690 238.498, 223.487 236.574, 225.250 237.633 C 226.203 238.205, 226.235 238.041, 225.388 236.942 C 224.335 235.576, 222.690 230.696, 222.535 228.475 C 222.496 227.912, 220.416 224.762, 217.914 221.475 C 212.359 214.179, 207.023 201.268, 207.860 197.147 C 208.011 196.403, 207.439 194.054, 206.587 191.927 C 205.736 189.800, 205.266 187.471, 205.542 186.751 C 205.818 186.031, 205.134 182.797, 204.022 179.564 C 201.749 172.958, 201.554 171.606, 203 172.500 C 203.550 172.840, 204 172.641, 204 172.059 C 204 171.477, 203.550 171, 203 171 C 202.450 171, 202 169.857, 202 168.460 C 202 167.063, 201.138 164.230, 200.083 162.164 C 198.409 158.882, 197.484 155.591, 196.664 150 C 196.543 149.175, 196.117 147.978, 195.719 147.340 C 195.320 146.702, 195.264 145.474, 195.596 144.611 C 195.936 143.725, 194.849 140.850, 193.099 138.006 C 191.394 135.236, 189.980 132.414, 189.956 131.735 C 189.932 131.056, 189.276 128.715, 188.499 126.532 C 187.525 123.797, 187.417 122.361, 188.150 121.907 C 188.893 121.448, 188.880 121.044, 188.107 120.566 C 186.550 119.604, 186.729 118, 188.393 118 C 189.159 118, 190.045 117.325, 190.362 116.500 C 190.678 115.675, 190.446 115, 189.846 115 C 189.125 115, 189.175 114.494, 189.996 113.505 C 190.678 112.683, 191 111.109, 190.712 110.006 C 190.424 108.904, 190.569 107.767, 191.034 107.479 C 191.500 107.191, 191.397 105.567, 190.805 103.871 C 190.019 101.615, 190.035 100.596, 190.865 100.084 C 191.682 99.579, 191.589 98.838, 190.532 97.441 C 188.534 94.799, 188.642 94, 191 94 C 193.515 94, 193.508 93.462, 190.956 90.723 C 189.832 89.516, 189.343 88.386, 189.869 88.210 C 190.415 88.028, 190.224 86.735, 189.425 85.196 C 188.585 83.578, 188.420 82.367, 189.012 82.167 C 190.590 81.634, 190.153 80, 188.433 80 C 187.342 80, 187.051 79.416, 187.474 78.081 C 187.926 76.657, 187.298 75.698, 185.040 74.365 C 183.367 73.376, 181.743 71.765, 181.431 70.784 C 181.120 69.803, 180.490 69, 180.031 69 C 179.572 69, 178.875 66.187, 178.481 62.750 C 178.088 59.313, 177.174 55.375, 176.449 54 C 174.421 50.152, 170.116 46, 168.155 46 C 166.343 46, 159.643 40.432, 158.910 38.317 C 158.395 36.831, 147.935 26.005, 145.106 24.029 C 143.948 23.220, 143 21.758, 143 20.779 C 143 19.801, 142.365 19, 141.588 19 C 140.809 19, 140.296 18.216, 140.444 17.250 C 140.816 14.807, 136.655 11.214, 132.566 10.446 C 130.681 10.093, 128.923 9.242, 128.660 8.556 C 128.034 6.925, 120.371 7.307, 112.500 9.362 C 105.014 11.317, 103 11.372, 103 9.622 C 103 8.865, 102.325 7.685, 101.500 7 C 100.299 6.003, 99.680 6.021, 98.392 7.090 C 97.031 8.219, 96.588 8.157, 95.510 6.683 C 94.370 5.124, 94.172 5.108, 93.625 6.534" fill="none" stroke="#000" stroke-width="2px" fill-rule="evenodd"/>
</svg>
