<svg xmlns="http://www.w3.org/2000/svg" width="265" height="184" viewBox="0 0 265 184" version="1.1">
	<path d="M 116.434 2.250 C 115.300 3.769, 114.946 3.931, 115.346 2.750 C 115.671 1.788, 115.532 1, 115.036 1 C 114.540 1, 113.872 1.788, 113.551 2.750 C 113.230 3.712, 112.055 5.625, 110.941 7 L 108.914 9.500 110.470 5.596 C 112.333 0.924, 111.781 -0.330, 109.618 3.662 C 108.772 5.223, 108.062 5.842, 108.040 5.038 C 108.017 4.179, 106.778 5.005, 105.041 7.038 C 101.856 10.764, 100.921 10.032, 103.681 5.973 L 105.362 3.500 103.048 5.500 L 100.734 7.500 101.434 5.250 C 102.256 2.609, 100.553 2.169, 99.500 4.750 C 98.844 6.356, 98.718 6.336, 97.963 4.500 C 97.235 2.730, 97.132 2.810, 97.070 5.191 C 97.032 6.671, 96.502 8.190, 95.893 8.566 C 95.133 9.036, 95.015 8.505, 95.517 6.875 L 96.248 4.500 93.624 6.924 C 91.007 9.343, 91 9.343, 91 7.174 C 91 5.978, 90.550 5, 90 5 C 89.450 5, 89 6.098, 89 7.441 C 89 8.784, 88.539 10.167, 87.976 10.515 C 87.307 10.928, 87.152 9.651, 87.528 6.824 L 88.103 2.500 86.063 6.405 C 83.354 11.591, 82.708 12.112, 83.468 8.498 L 84.099 5.500 82.079 9 L 80.058 12.500 80.540 9 L 81.022 5.500 79.131 9.359 C 77.942 11.785, 77.038 12.713, 76.696 11.859 C 76.251 10.748, 75.959 10.773, 75.091 12 C 74.508 12.825, 73.992 13.050, 73.945 12.500 C 73.898 11.950, 73.473 12.400, 73 13.500 C 72.256 15.231, 72.131 15.104, 72.070 12.554 C 72 9.628, 71.981 9.638, 69.193 14.054 C 67.649 16.499, 65.995 19.400, 65.517 20.500 C 64.678 22.431, 64.635 22.423, 64.255 20.250 C 63.721 17.198, 62 17.388, 62 20.500 C 62 23.116, 60.532 23.900, 59.659 21.750 C 59.266 20.780, 58.939 20.805, 58.197 21.863 C 57.391 23.014, 57.158 23.014, 56.700 21.863 C 56.402 21.113, 56.108 21.625, 56.047 23 C 55.940 25.416, 55.887 25.435, 54.468 23.559 C 53.096 21.744, 52.996 21.874, 52.937 25.559 C 52.882 28.929, 52.742 29.174, 51.969 27.250 C 50.869 24.513, 49.622 24.235, 50.473 26.916 C 50.808 27.970, 50.613 29.121, 50.041 29.475 C 49.443 29.844, 48.951 29.134, 48.884 27.809 C 48.799 26.115, 48.646 25.966, 48.311 27.250 C 48.059 28.212, 47.436 29, 46.927 29 C 46.417 29, 45.990 30.913, 45.978 33.250 L 45.956 37.500 43.952 35 L 41.949 32.500 42.620 35.399 C 43.096 37.455, 42.958 38.092, 42.146 37.590 C 41.516 37.201, 41 36.309, 41 35.608 C 41 34.907, 40.365 34.333, 39.590 34.333 C 38.550 34.333, 38.322 35.209, 38.721 37.667 C 39.067 39.798, 38.854 41, 38.131 41 C 37.509 41, 37 40.636, 37 40.191 C 37 39.746, 36.324 38.509, 35.498 37.441 C 34.041 35.559, 34.016 35.558, 34.667 37.414 C 35.143 38.767, 34.985 39.109, 34.130 38.580 C 33.249 38.036, 33.073 38.604, 33.483 40.666 C 33.987 43.204, 33.943 43.265, 33.055 41.250 C 31.875 38.569, 30.803 38.302, 31.052 40.750 C 31.428 44.447, 30.990 46.112, 29.830 45.395 C 29.045 44.910, 28.869 45.216, 29.294 46.324 C 29.643 47.233, 29.607 47.928, 29.214 47.870 C 26.261 47.429, 25.225 48.145, 25.767 50.250 C 26.284 52.254, 26.164 52.350, 24.673 51.128 C 23.208 49.926, 23 50.006, 23 51.771 C 23 54.039, 20.392 55.533, 19.644 53.694 C 19.153 52.489, 18.605 57.348, 18.948 59.850 C 19.061 60.668, 18.659 60.907, 17.928 60.456 C 17.026 59.898, 16.896 60.690, 17.410 63.605 L 18.097 67.500 16.063 64.250 C 13.630 60.362, 12.734 60.090, 13.589 63.500 C 14.318 66.405, 13.284 66.764, 11.430 64.250 C 10.301 62.719, 10.180 62.937, 10.455 66 C 10.628 67.925, 11.107 70.400, 11.519 71.500 C 12.038 72.884, 11.321 72.499, 9.191 70.250 C 5.686 66.549, 4.428 66.063, 6.011 69.021 C 6.606 70.132, 6.831 71.464, 6.512 71.981 C 6.192 72.498, 7.296 74.807, 8.965 77.111 C 13.012 82.697, 12.796 83.802, 8.371 80.154 C 6.374 78.508, 4.089 77.412, 3.293 77.718 C 2.231 78.125, 3.133 79.609, 6.672 83.280 C 9.346 86.053, 10.659 87.991, 9.615 87.623 C 8.344 87.175, 8.914 88.269, 11.365 90.983 C 13.364 93.195, 15 95.624, 15 96.380 C 15 97.137, 15.675 98.315, 16.500 99 C 18.613 100.753, 18.379 102.535, 16.250 100.905 C 15.287 100.169, 14.834 99.960, 15.241 100.441 C 15.649 100.922, 15.481 101.920, 14.869 102.658 C 14.045 103.651, 14.076 104.387, 14.989 105.487 C 15.668 106.305, 15.975 107.622, 15.671 108.414 C 15.367 109.206, 15.737 110.367, 16.492 110.994 C 17.248 111.620, 17.877 112.891, 17.890 113.817 C 17.904 114.743, 18.184 116.850, 18.513 118.500 C 18.842 120.150, 19.081 124.563, 19.044 128.307 C 18.977 135.011, 18.157 137.318, 12.265 147.389 C 10.445 150.499, 10.725 155.441, 12.829 157.345 C 15.697 159.941, 23.918 159.545, 28.255 156.602 C 32.385 153.799, 42.566 150.614, 44.189 151.617 C 44.919 152.068, 45.026 151.852, 44.498 150.997 C 43.894 150.020, 44.238 149.829, 45.845 150.249 C 47.032 150.560, 47.783 150.458, 47.514 150.023 C 47.245 149.588, 48.293 148.707, 49.842 148.065 C 52.371 147.018, 53.442 147.321, 60.329 151.036 C 64.548 153.312, 68 154.932, 68 154.636 C 68 154.340, 64.963 152.397, 61.250 150.317 C 56.219 147.499, 55.009 146.441, 56.500 146.161 C 57.600 145.954, 58.950 145.440, 59.500 145.019 C 60.050 144.597, 62.627 143.945, 65.227 143.568 C 67.826 143.192, 70.215 142.460, 70.536 141.942 C 70.856 141.424, 71.793 141, 72.618 141 C 73.443 141, 73.840 141.450, 73.500 142 C 72.685 143.319, 73.636 143.264, 76.316 141.836 C 78.290 140.784, 78.368 140.832, 77.128 142.336 C 75.528 144.275, 76.249 144.453, 79.316 142.878 C 81.116 141.952, 81.280 141.988, 80.250 143.078 C 78.219 145.226, 78.815 146.041, 81.517 144.810 C 83.643 143.842, 84.275 143.961, 85.591 145.582 C 86.448 146.637, 86.863 146.938, 86.515 146.250 C 86.167 145.562, 86.368 145, 86.962 145 C 87.557 145, 88.573 146.164, 89.221 147.587 C 90.320 149.997, 90.489 150.052, 91.700 148.396 C 92.932 146.711, 93.004 146.720, 93.079 148.559 C 93.122 149.626, 93.385 149.938, 93.662 149.250 C 93.940 148.563, 95.281 148, 96.642 148 C 98.357 148, 98.887 148.384, 98.367 149.250 C 97.857 150.099, 98.158 150.060, 99.308 149.128 C 100.580 148.096, 101 148.062, 101 148.993 C 101 149.850, 101.816 149.696, 103.655 148.491 C 106.211 146.816, 106.283 146.821, 105.595 148.626 C 105.023 150.129, 105.131 150.253, 106.141 149.250 C 107.872 147.532, 109.337 147.679, 108.638 149.500 C 107.865 151.516, 109.665 151.421, 110.804 149.386 C 111.420 148.285, 112.388 147.989, 113.853 148.453 C 115.615 149.013, 115.814 149.479, 114.964 151.067 C 113.674 153.478, 114.829 153.610, 116.572 151.250 C 118.824 148.202, 120.359 151.056, 120.118 157.844 C 120.032 160.288, 119.462 161.328, 118 161.710 C 115.534 162.355, 115.432 164.192, 117.750 166.227 C 120.365 168.523, 123.069 169.038, 127.346 168.053 L 131.191 167.167 128.921 169.584 C 127.673 170.913, 126.055 172, 125.326 172 C 124.597 172, 124 172.450, 124 173 C 124 173.550, 123.395 174, 122.655 174 C 121.273 174, 118 177.085, 118 178.388 C 118 178.789, 118.526 178.793, 119.170 178.395 C 119.971 177.900, 120.125 178.231, 119.659 179.447 C 119.135 180.811, 119.358 181.077, 120.615 180.594 C 121.516 180.248, 122.925 180.523, 123.745 181.203 C 124.678 181.978, 127.718 182.347, 131.868 182.189 C 137.734 181.967, 138.818 181.601, 141.250 179.023 C 142.762 177.420, 144 175.409, 144 174.554 C 144 172.824, 147.443 169, 149 169 C 149.550 169, 150 168.199, 150 167.221 C 150 166.242, 150.876 164.810, 151.946 164.039 C 153.017 163.267, 153.665 162.268, 153.387 161.818 C 153.109 161.368, 153.263 161, 153.728 161 C 154.194 161, 154.637 160.169, 154.714 159.153 C 154.790 158.137, 156.045 155.550, 157.501 153.403 C 158.958 151.256, 160.397 148.262, 160.700 146.750 C 161.363 143.437, 162.954 143.108, 163.116 146.250 C 163.199 147.853, 163.360 148.013, 163.679 146.806 C 163.924 145.875, 163.683 143.512, 163.143 141.556 C 161.970 137.307, 162.361 137.145, 165.365 140.638 L 167.634 143.275 167.421 140.209 C 167.267 137.983, 167.581 137.286, 168.566 137.664 C 170.342 138.345, 171.299 141.482, 170.500 144 C 169.720 146.456, 171.517 146.684, 172.474 144.250 C 173.037 142.820, 173.518 143.186, 175.105 146.250 C 176.174 148.312, 177.231 150, 177.456 150 C 178.094 150, 177.459 145.552, 176.628 144.208 C 176.218 143.543, 176.373 143, 176.972 143 C 177.572 143, 178.321 143.672, 178.636 144.494 C 178.952 145.316, 179.610 145.741, 180.100 145.438 C 180.590 145.135, 182.142 146.129, 183.548 147.646 L 186.104 150.405 185.045 147.618 C 183.932 144.691, 184.478 142.559, 186.085 143.553 C 186.606 143.875, 186.805 144.506, 186.527 144.956 C 186.249 145.405, 186.805 146.387, 187.761 147.137 C 189.335 148.370, 189.370 148.334, 188.128 146.750 C 187.034 145.355, 187.018 145, 188.052 145 C 188.834 145, 188.416 144.007, 187 142.500 C 184.444 139.779, 184.899 139.327, 188.316 141.194 C 189.517 141.850, 192.075 142.413, 194 142.444 C 196.762 142.488, 197.438 142.869, 197.206 144.250 C 196.753 146.948, 199.872 146.357, 200.561 143.614 C 201.017 141.795, 201.652 141.358, 203.236 141.772 C 204.584 142.124, 205.076 141.932, 204.638 141.224 C 204.204 140.520, 204.892 140.232, 206.577 140.411 C 208.014 140.564, 209.591 141.322, 210.080 142.095 C 210.784 143.208, 210.973 143.112, 210.985 141.635 C 210.999 139.859, 211.123 139.851, 213.587 141.465 C 216.456 143.345, 217.920 143.009, 215.524 141.020 C 212.655 138.639, 213.997 138.065, 217.542 140.157 C 221.671 142.593, 221.578 144.116, 217.224 145.365 C 215.100 145.974, 213.582 147.361, 212.467 149.711 C 210.668 153.503, 211.381 155.567, 213.492 152.679 C 214.765 150.939, 214.848 150.947, 215.459 152.871 C 216.255 155.379, 220.598 155.925, 227.500 154.384 C 230.748 153.659, 232.391 152.806, 232.188 151.949 C 231.515 149.101, 232.962 146.177, 234.805 146.659 C 236.051 146.985, 236.992 146.313, 237.813 144.510 C 238.471 143.068, 239.415 142.138, 239.911 142.445 C 240.407 142.752, 240.560 142.032, 240.249 140.845 C 239.891 139.475, 240.069 138.925, 240.738 139.338 C 241.317 139.696, 242.066 139.269, 242.404 138.391 C 242.753 137.479, 243.658 137.039, 244.508 137.365 C 245.413 137.712, 246 137.360, 246 136.469 C 246 134.717, 246.096 134.706, 249.637 136.052 L 252.404 137.104 250.452 134.841 L 248.500 132.578 251.373 134.393 C 252.953 135.391, 253.963 135.749, 253.617 135.189 C 253.271 134.629, 253.553 133.943, 254.244 133.664 C 255.242 133.262, 255.243 133.142, 254.250 133.079 C 253.563 133.036, 253 132.564, 253 132.031 C 253 131.499, 253.787 131.301, 254.750 131.593 C 255.713 131.884, 254.925 131.180, 253 130.027 C 250.320 128.422, 250.084 128.090, 251.992 128.610 C 254.249 129.225, 254.351 129.128, 253.074 127.589 C 251.774 126.023, 251.873 125.985, 254.336 127.107 C 257.929 128.744, 258.855 127.526, 255.892 125.058 C 254.576 123.963, 253.870 123.052, 254.321 123.033 C 254.773 123.015, 254.375 122.233, 253.437 121.295 C 251.399 119.257, 253.254 118.136, 255.534 120.028 C 257.655 121.789, 257.504 119.214, 255.345 116.829 C 254.435 115.823, 254.183 115, 254.786 115 C 255.389 115, 256.160 115.450, 256.500 116 C 256.840 116.550, 257.820 117, 258.678 117 C 259.870 117, 259.590 116.152, 257.487 113.395 C 255.145 110.324, 255.044 109.953, 256.803 110.895 C 259.818 112.508, 260.816 112.187, 258.500 110.349 C 256.566 108.815, 256.591 108.784, 259.243 109.398 L 261.985 110.034 259.993 106.487 C 257.409 101.886, 257.474 101.609, 260.649 103.690 L 263.298 105.425 262.033 103.061 C 260.905 100.955, 260.958 100.770, 262.510 101.365 C 264.141 101.991, 264.148 101.875, 262.626 99.552 C 260.679 96.581, 260.555 95.614, 262.250 96.633 C 263.197 97.202, 263.235 97.035, 262.405 95.942 C 261.803 95.149, 261.011 93.662, 260.644 92.639 C 260.144 91.244, 260.356 90.923, 261.489 91.357 C 263.163 92, 263.582 90.478, 262 89.500 C 261.450 89.160, 261 88.207, 261 87.382 C 261 86.557, 261.450 86.160, 262 86.500 C 264.024 87.751, 262.926 85.058, 260.750 83.434 C 259.441 82.457, 259.191 81.986, 260.152 82.308 C 262.810 83.199, 263.095 81.911, 260.707 79.800 C 259.493 78.726, 259.175 78.141, 260 78.500 C 260.825 78.859, 260.474 78.248, 259.220 77.142 L 256.940 75.131 260.220 74.740 L 263.500 74.348 260.250 72.955 C 256.673 71.421, 255.647 68.413, 259 69.290 C 261.466 69.935, 261.569 69.152, 259.250 67.392 C 257.826 66.311, 257.779 66.050, 259 65.993 C 259.825 65.954, 259.038 65.286, 257.250 64.509 C 254.302 63.228, 253.494 61.746, 253.899 58.365 C 253.974 57.740, 252.452 56.932, 250.518 56.569 C 248.583 56.206, 247 55.511, 247 55.024 C 247 54.517, 248.279 54.506, 250 55 C 251.650 55.473, 253 55.532, 253 55.130 C 253 53.738, 250.590 52, 248.550 51.921 C 247.422 51.878, 247.063 51.615, 247.750 51.338 C 249.684 50.557, 249.232 49.303, 246.750 48.558 C 244.555 47.900, 244.549 47.860, 246.500 46.923 C 248.056 46.175, 247.723 46.075, 245 46.473 L 241.500 46.985 244 45.014 L 246.500 43.044 243.095 43.022 C 239.754 43, 239.724 42.963, 241.500 41 C 243.278 39.035, 243.247 39, 239.714 39 C 237.736 39, 235.840 38.550, 235.500 38 C 235.160 37.450, 235.835 37, 237 37 C 238.165 37, 238.840 36.550, 238.500 36 C 238.160 35.450, 236.671 34.993, 235.191 34.985 C 233.711 34.976, 231.877 34.575, 231.115 34.092 C 230.022 33.400, 230.233 32.942, 232.115 31.919 L 234.500 30.623 232 29.973 C 230.625 29.615, 229.622 28.770, 229.772 28.095 C 229.922 27.419, 229.247 26.949, 228.272 27.049 C 227.297 27.149, 225.600 27.172, 224.500 27.100 C 222.871 26.994, 222.772 26.798, 223.966 26.042 C 225.140 25.300, 224.878 24.904, 222.651 24.057 C 221.121 23.476, 219.112 22.971, 218.185 22.937 C 216.972 22.891, 217.130 22.620, 218.750 21.969 C 221.798 20.744, 221.601 19.652, 218.442 20.256 C 216.784 20.573, 216.037 20.345, 216.320 19.608 C 216.614 18.842, 215.488 18.591, 212.878 18.840 C 210.491 19.068, 209 18.785, 209 18.105 C 209 17.497, 209.563 16.992, 210.250 16.983 C 210.938 16.974, 210.004 16.009, 208.176 14.838 C 205.700 13.253, 205.190 12.493, 206.176 11.862 C 206.930 11.379, 205.389 11.294, 202.594 11.664 C 198.774 12.171, 197.860 12.035, 198.469 11.050 C 199.067 10.082, 198.495 9.952, 196.026 10.494 C 193.097 11.138, 192.860 11.015, 193.450 9.157 C 194.051 7.263, 193.855 7.181, 190.806 8.056 C 186.619 9.256, 185.731 9.245, 186.500 8 C 186.870 7.401, 185.590 6.994, 183.309 6.985 C 180.583 6.974, 179.916 6.706, 180.963 6.044 C 181.995 5.391, 181.259 5.141, 178.463 5.195 C 176.283 5.237, 173.626 5.210, 172.559 5.136 C 170.637 5.001, 170.637 4.985, 172.559 3.532 C 174.474 2.083, 174.473 2.064, 172.500 2.064 C 171.400 2.064, 169.626 2.724, 168.559 3.532 C 166.337 5.213, 164.585 5.481, 165.500 4 C 165.840 3.450, 165.668 3, 165.118 3 C 164.568 3, 163.840 3.450, 163.500 4 C 162.318 5.912, 160.891 5.073, 161.952 3.090 C 162.754 1.591, 162.652 1.228, 161.477 1.401 C 160.653 1.521, 159.444 2.156, 158.790 2.810 C 157.347 4.253, 155.638 4.395, 156.500 3 C 156.840 2.450, 156.615 2, 156 2 C 155.385 2, 155.157 1.555, 155.493 1.011 C 156.480 -0.586, 152.737 1.084, 150.194 3.375 C 147.968 5.382, 147.914 5.385, 148.614 3.476 C 149.336 1.509, 149.329 1.509, 147.096 3.472 C 145.862 4.557, 144.939 5.007, 145.044 4.472 C 145.516 2.092, 144.845 1.826, 142.828 3.595 C 141.634 4.643, 140.985 4.937, 141.387 4.250 C 141.789 3.562, 141.731 3, 141.259 3 C 140.787 3, 139.794 3.563, 139.053 4.250 C 137.976 5.250, 137.848 5.250, 138.412 4.250 C 139.312 2.657, 137.778 2.622, 136.200 4.200 C 135.267 5.133, 135 5.086, 135 3.988 C 135 3.211, 133.668 4.134, 132.041 6.038 C 129.147 9.424, 127.977 8.780, 130.035 4.934 C 131.185 2.786, 130.063 2.337, 128.200 4.200 C 127.267 5.133, 127 4.988, 127 3.545 C 127 1.754, 126.925 1.755, 124.830 3.595 C 122.883 5.305, 122.726 5.321, 123.299 3.750 C 124.193 1.299, 123.610 1.544, 120.032 5.122 C 116.232 8.922, 115.481 8.487, 117.500 3.654 C 119.243 -0.518, 118.868 -1.011, 116.434 2.250 M 4 78.378 C 4 78.585, 4.787 79.373, 5.750 80.128 C 7.336 81.371, 7.371 81.336, 6.128 79.750 C 4.821 78.084, 4 77.555, 4 78.378 M 13.500 107 C 13.840 107.550, 14.316 108, 14.559 108 C 14.802 108, 15 107.550, 15 107 C 15 106.450, 14.523 106, 13.941 106 C 13.359 106, 13.160 106.450, 13.500 107 M 195 140.031 C 195 140.564, 195.675 141, 196.500 141 C 197.325 141, 198 140.823, 198 140.607 C 198 140.391, 197.325 139.955, 196.500 139.638 C 195.675 139.322, 195 139.499, 195 140.031 M 206.500 143 C 206.840 143.550, 207.541 144, 208.059 144 C 208.577 144, 209 143.550, 209 143 C 209 142.450, 208.298 142, 207.441 142 C 206.584 142, 206.160 142.450, 206.500 143 M 89.733 166.124 C 90.412 166.808, 91.219 167.115, 91.526 166.807 C 91.834 166.499, 91.279 165.940, 90.293 165.564 C 88.868 165.022, 88.753 165.136, 89.733 166.124" fill="none" stroke="#000" stroke-width="2px" fill-rule="evenodd"/>
</svg>
