<svg xmlns="http://www.w3.org/2000/svg" width="241" height="191" viewBox="0 0 241 191" version="1.1">
	<path d="M 157 2.686 C 155.625 3.398, 153.872 3.748, 153.105 3.466 C 152.338 3.183, 150.904 3.682, 149.918 4.574 C 148.933 5.466, 147.628 5.888, 147.019 5.512 C 146.410 5.136, 145.277 5.355, 144.500 6 C 143.723 6.645, 142.598 6.870, 142 6.500 C 141.402 6.130, 140.246 6.381, 139.432 7.056 C 138.618 7.732, 137.666 8, 137.318 7.651 C 136.969 7.303, 136.127 7.479, 135.447 8.044 C 134.767 8.608, 133.826 8.959, 133.355 8.823 C 132.885 8.686, 131.488 9.137, 130.250 9.823 C 129.012 10.509, 128 10.774, 128 10.413 C 128 10.051, 127.325 10.315, 126.500 11 C 125.675 11.685, 125 11.895, 125 11.467 C 125 11.040, 124.100 11.505, 123 12.500 C 121.900 13.495, 121 13.965, 121 13.544 C 121 13.123, 120.076 13.841, 118.947 15.139 L 116.894 17.500 117.500 15 L 118.106 12.500 116.132 14.763 C 115.046 16.008, 113.932 17.583, 113.655 18.263 C 113.271 19.207, 112.923 19.172, 112.184 18.115 C 111.402 16.997, 110.982 17.166, 110.008 18.985 C 108.114 22.524, 103.807 26.999, 102.859 26.413 C 102.387 26.121, 102 26.561, 102 27.391 C 102 28.221, 101.438 29.260, 100.750 29.700 C 100.063 30.140, 98.584 32.300, 97.464 34.500 C 95.914 37.546, 94.900 38.443, 93.214 38.262 C 91.746 38.104, 91 38.567, 91 39.634 C 91 40.953, 90.728 41.019, 89.500 40 C 88.382 39.072, 88 39.056, 88 39.937 C 88 40.586, 87.550 40.840, 87 40.500 C 86.450 40.160, 86 38.440, 86 36.678 C 86 32.551, 79.590 22.746, 77.183 23.190 C 73.040 23.954, 68.923 40.287, 70.963 47.864 C 71.563 50.093, 72.450 52.160, 72.933 52.459 C 74.356 53.338, 72.902 57.176, 71.369 56.588 C 70.579 56.285, 70 56.709, 70 57.590 C 70 58.431, 69.645 58.898, 69.210 58.630 C 68.776 58.362, 67.539 59.459, 66.460 61.068 C 65.382 62.678, 64.162 63.996, 63.750 63.997 C 63.337 63.999, 63 65.125, 63 66.500 C 63 67.875, 62.550 69, 62 69 C 61.450 69, 61 69.595, 61 70.321 C 61 71.048, 60.132 73.411, 59.071 75.571 L 57.142 79.500 55.571 75.782 C 54.707 73.737, 54 71.812, 54 71.504 C 54 70.083, 43.615 49, 42.915 49 C 42.479 49, 44.342 53.647, 47.055 59.326 C 52.722 71.189, 56.234 80.812, 55.393 82.174 C 55.073 82.690, 52.480 80.907, 49.630 78.211 C 44.319 73.188, 40.216 70.451, 39.329 71.338 C 39.054 71.613, 39.880 72.394, 41.164 73.074 C 42.449 73.754, 45.853 76.312, 48.728 78.758 C 53.909 83.165, 53.952 83.250, 53.495 88.049 C 53.242 90.713, 52.524 94.829, 51.900 97.196 C 51.277 99.563, 50.551 103.638, 50.287 106.250 C 50.023 108.862, 49.715 111, 49.603 111 C 49.491 111, 46.855 108.536, 43.745 105.524 C 37.837 99.801, 17.171 84.009, 15.583 84.003 C 14.383 83.999, 14.036 83.702, 25.106 92.160 C 35.949 100.445, 48.568 111.765, 47.809 112.525 C 47.532 112.802, 42.174 110.598, 35.902 107.628 C 25.083 102.503, 17.111 99.994, 7 98.532 C 3.736 98.061, 2.912 98.169, 4 98.926 C 4.825 99.500, 6.507 99.976, 7.738 99.985 C 14.359 100.030, 45.154 112.353, 46.335 115.430 C 46.670 116.305, 46.420 117, 45.769 117 C 44.895 117, 44.902 117.302, 45.800 118.200 C 47.500 119.900, 47.288 120.995, 45.250 121.030 C 43.583 121.059, 43.583 121.109, 45.250 122.080 C 48.325 123.871, 47.248 125.215, 43.250 124.577 C 41.188 124.248, 38.825 124.454, 38 125.034 C 36.746 125.916, 36.828 126.063, 38.500 125.930 C 39.600 125.842, 41.789 125.822, 43.365 125.885 L 46.230 126 45.542 131.513 C 44.898 136.667, 45.055 137.282, 47.960 140.950 C 49.952 143.464, 52.044 144.986, 53.784 145.187 C 55.804 145.420, 56.455 146.013, 56.324 147.500 C 56.161 149.349, 56.243 149.370, 57.415 147.777 C 58.490 146.314, 59.198 146.221, 62.091 147.161 C 63.966 147.770, 66.255 148.642, 67.179 149.098 C 68.251 149.628, 69.021 149.489, 69.309 148.714 C 69.899 147.132, 72 152.432, 72 155.499 C 72 157.330, 72.615 157.939, 74.710 158.184 C 77.804 158.545, 78.743 160.788, 78.900 168.191 C 78.955 170.771, 79.477 173.177, 80.061 173.537 C 80.792 173.990, 80.903 172.262, 80.417 167.965 C 79.878 163.203, 80.004 161.835, 80.955 162.152 C 81.661 162.387, 82.377 164.868, 82.614 167.899 C 82.843 170.832, 83.499 173.967, 84.073 174.866 C 85.086 176.454, 84.883 173.832, 83.386 166 C 83.053 164.258, 83.690 164.865, 85.485 168 C 88.090 172.550, 88 169.965, 85.373 164.800 C 83.052 160.234, 83.915 159.261, 86.526 163.500 C 88.366 166.488, 89.003 166.994, 89.041 165.500 C 89.075 164.188, 89.944 165.134, 91.566 168.250 C 94.963 174.777, 95.517 174.226, 92.474 167.346 C 89.132 159.788, 90.099 159.311, 93.885 166.650 C 97.371 173.406, 97.916 173.302, 94.975 166.441 C 93.861 163.843, 93.151 161.515, 93.398 161.269 C 94.262 160.405, 102.850 176.227, 102.298 177.666 C 101.948 178.579, 102.515 179.322, 103.825 179.664 C 105.796 180.180, 105.822 180.342, 104.306 182.656 C 102.076 186.059, 103.734 187.637, 107.981 186.156 C 110.865 185.151, 111.065 185.220, 110.494 187.020 C 109.939 188.767, 110.227 188.908, 113.187 188.347 C 115.009 188.001, 117.345 187.285, 118.377 186.756 C 119.714 186.070, 120.527 186.183, 121.203 187.147 C 121.942 188.200, 122.265 188.223, 122.659 187.250 C 122.938 186.562, 124.220 186, 125.507 186 C 130.036 186, 133.524 181.654, 136.923 171.773 C 138.678 166.673, 140.969 161.768, 142.014 160.874 C 143.060 159.980, 143.610 158.944, 143.238 158.571 C 142.866 158.199, 143.335 158.191, 144.280 158.554 C 145.515 159.028, 146.022 158.690, 146.079 157.357 C 146.124 156.304, 146.376 156.041, 146.662 156.750 C 146.940 157.437, 147.606 158, 148.142 158 C 148.679 158, 148.852 157.570, 148.527 157.044 C 147.739 155.768, 153.288 156.212, 154.235 157.500 C 154.693 158.124, 154.975 158.042, 154.985 157.281 C 154.994 156.557, 155.675 156.322, 156.664 156.701 C 157.872 157.165, 158.104 156.977, 157.510 156.015 C 156.965 155.134, 157.077 154.930, 157.845 155.405 C 158.480 155.797, 159.563 155.766, 160.250 155.335 C 160.938 154.905, 162.175 154.541, 163 154.526 C 163.864 154.511, 164.376 153.762, 164.208 152.759 C 163.968 151.324, 164.324 151.173, 166.236 151.900 C 168.848 152.893, 175.663 150.053, 174.288 148.544 C 173.855 148.069, 174.061 148.002, 174.746 148.396 C 175.486 148.822, 177.041 147.980, 178.580 146.320 C 180.003 144.783, 181.693 143.477, 182.334 143.416 C 185.567 143.108, 185.981 142.906, 185.750 141.750 C 185.612 141.063, 186.118 140.631, 186.873 140.791 C 187.789 140.985, 188.031 140.523, 187.600 139.399 C 187.034 137.925, 187.165 137.889, 188.664 139.109 C 190.181 140.342, 190.295 140.289, 189.676 138.639 C 189.149 137.236, 189.350 136.920, 190.489 137.357 C 191.405 137.709, 192 137.371, 192 136.500 C 192 135.633, 192.595 135.291, 193.500 135.638 C 194.362 135.969, 195 135.658, 195 134.907 C 195 133.941, 195.293 133.893, 196.122 134.722 C 196.739 135.339, 197.818 135.623, 198.521 135.354 C 201.597 134.173, 200.593 136.993, 196.872 139.983 C 194.140 142.178, 191.849 145.378, 189.902 149.719 C 186.631 157.008, 186.330 159, 188.500 159 C 189.359 159, 190 159.901, 190 161.107 C 190 162.527, 190.468 163.034, 191.435 162.663 C 192.225 162.360, 193.042 162.625, 193.251 163.252 C 193.647 164.440, 201 160.509, 201 159.110 C 201 158.710, 201.678 157.509, 202.506 156.441 C 203.910 154.631, 203.944 154.689, 203.006 157.315 C 201.790 160.719, 201.698 164, 202.820 164 C 204.505 164, 211.912 156.848, 214.902 152.335 C 217.033 149.118, 218 146.443, 218 143.770 C 218 141.432, 218.399 140.128, 219 140.500 C 219.550 140.840, 220 140.165, 220 139 C 220 137.835, 220.450 137.160, 221 137.500 C 221.550 137.840, 222 137.626, 222 137.025 C 222 136.424, 223.359 134.605, 225.019 132.981 C 228.353 129.722, 230.376 125.418, 229.353 123.762 C 228.945 123.102, 229.167 122.985, 229.932 123.458 C 230.806 123.998, 231.095 123.527, 230.909 121.862 C 230.532 118.476, 232.014 111, 233.063 111 C 233.557 111, 233.520 109.867, 232.978 108.443 C 232.444 107.036, 232.408 106.134, 232.898 106.437 C 234.457 107.401, 234.944 104.198, 233.429 102.941 C 232.170 101.896, 232.198 101.576, 233.642 100.520 C 234.672 99.767, 234.998 98.806, 234.498 97.997 C 233.965 97.134, 234.082 96.933, 234.845 97.405 C 236.386 98.357, 236.321 96.745, 234.750 95.053 C 233.750 93.976, 233.750 93.848, 234.750 94.412 C 235.574 94.877, 236 94.416, 236 93.059 C 236 91.927, 236.450 91, 237 91 C 238.745 91, 238.087 89.244, 235.250 86.326 C 230.205 81.138, 229.853 80.437, 232.210 80.259 C 233.370 80.172, 235.147 80.544, 236.159 81.085 C 237.301 81.696, 238 81.709, 238 81.119 C 238 80.595, 236.088 79.490, 233.750 78.662 L 229.500 77.158 233.244 77.079 C 237.101 76.998, 237.752 75.601, 235.567 72.095 C 234.967 71.134, 235.055 70.916, 235.845 71.405 C 236.480 71.797, 237 71.641, 237 71.059 C 237 70.477, 236.636 70, 236.191 70 C 235.746 70, 234.509 69.318, 233.441 68.485 C 231.604 67.051, 231.654 67.004, 234.358 67.620 C 237.030 68.229, 237.141 68.133, 236.072 66.135 C 235.261 64.619, 235.247 64, 236.024 64 C 236.649 64, 236.783 63.464, 236.337 62.750 C 235.104 60.776, 235.077 59, 236.280 59 C 236.886 59, 236.509 58.288, 235.441 57.418 C 233.784 56.068, 233.756 55.917, 235.250 56.387 C 236.213 56.690, 237 56.501, 237 55.969 C 237 55.436, 236.550 55, 236 55 C 235.450 55, 235 54.564, 235 54.031 C 235 53.499, 235.787 53.350, 236.750 53.701 C 238.415 54.308, 238.415 54.242, 236.748 52.338 C 235.784 51.238, 235.298 50.035, 235.668 49.665 C 236.576 48.757, 232.583 44.612, 226.510 40.159 C 223.766 38.147, 220.841 35.899, 220.010 35.164 C 219.180 34.430, 216.950 32.742, 215.056 31.414 C 213.161 30.086, 212.261 28.998, 213.056 28.996 C 213.850 28.994, 212.962 28.055, 211.082 26.909 C 208.410 25.280, 207.974 24.630, 209.082 23.928 C 209.862 23.434, 210.050 23.021, 209.500 23.009 C 208.950 22.997, 206.045 20.726, 203.045 17.962 C 200.045 15.197, 196.561 12.677, 195.302 12.361 C 194.044 12.045, 193.262 11.385, 193.566 10.893 C 193.870 10.402, 193.416 10, 192.559 10 C 191.702 10, 191 9.550, 191 9 C 191 8.450, 190.073 8, 188.941 8 C 187.809 8, 187.157 7.555, 187.493 7.011 C 187.843 6.445, 187.442 6.277, 186.552 6.618 C 185.698 6.946, 185 6.727, 185 6.132 C 185 5.472, 183.871 5.276, 182.104 5.629 C 180.002 6.050, 178.664 5.664, 177.222 4.222 C 175.909 2.909, 174.773 2.530, 173.868 3.103 C 172.108 4.218, 169.725 4.255, 170.403 3.156 C 171.015 2.167, 164.795 2.391, 163.134 3.417 C 162.510 3.803, 162 3.615, 162 3 C 162 2.385, 161.588 2.136, 161.085 2.447 C 160.582 2.758, 160.020 2.648, 159.835 2.202 C 159.651 1.757, 158.375 1.974, 157 2.686 M 33.992 111.996 C 37.562 113.016, 40.624 113.709, 40.796 113.537 C 41.355 112.978, 31.703 109.998, 29.572 110.071 C 28.432 110.110, 30.421 110.977, 33.992 111.996 M 26.750 112.662 C 27.438 112.940, 28.563 112.940, 29.250 112.662 C 29.938 112.385, 29.375 112.158, 28 112.158 C 26.625 112.158, 26.063 112.385, 26.750 112.662 M 33 114 C 36.419 115.095, 39.048 115.095, 36.500 114 C 35.400 113.527, 33.600 113.154, 32.500 113.170 C 30.892 113.194, 30.990 113.356, 33 114 M 36.750 117.662 C 37.438 117.940, 38.563 117.940, 39.250 117.662 C 39.938 117.385, 39.375 117.158, 38 117.158 C 36.625 117.158, 36.063 117.385, 36.750 117.662 M 31 120 C 29.707 120.835, 29.734 120.971, 31.191 120.985 C 32.121 120.993, 33.160 120.550, 33.500 120 C 34.282 118.734, 32.958 118.734, 31 120 M 97.510 146.625 L 95.790 149.250 104.395 157.895 C 109.128 162.649, 113 166.972, 113 167.500 C 113 168.028, 108.725 164.203, 103.500 159 C 92.549 148.094, 90.985 148.866, 99.750 160.852 C 102.912 165.176, 105.970 169.520, 106.544 170.504 C 107.507 172.154, 108.027 172.002, 113.224 168.552 C 120.023 164.038, 124.754 157.613, 122.912 155.394 C 122.245 154.591, 121.276 154.075, 120.757 154.248 C 120.239 154.420, 118.269 153.104, 116.381 151.323 C 114.387 149.443, 112.328 148.321, 111.473 148.649 C 110.663 148.960, 110 148.668, 110 148 C 110 147.332, 109.362 147.031, 108.583 147.330 C 107.803 147.629, 106.931 147.262, 106.644 146.514 C 106.345 145.734, 105.292 145.372, 104.174 145.665 C 103.102 145.945, 101.923 145.685, 101.554 145.087 C 100.492 143.368, 99.363 143.798, 97.510 146.625 M 72 150.122 C 72 151.896, 72.247 152.040, 73.500 151 C 74.325 150.315, 75 149.360, 75 148.878 C 75 148.395, 74.325 148, 73.500 148 C 72.638 148, 72 148.902, 72 150.122 M 54.162 152.543 C 52.487 156.220, 52.807 157.005, 54.618 153.662 C 55.464 152.100, 55.969 150.636, 55.741 150.407 C 55.512 150.179, 54.802 151.140, 54.162 152.543 M 67.195 157.500 C 67.215 159.150, 67.439 159.704, 67.693 158.731 C 67.947 157.758, 67.930 156.408, 67.656 155.731 C 67.382 155.054, 67.175 155.850, 67.195 157.500 M 94.177 157.250 C 94.863 158.488, 95.318 159.871, 95.188 160.324 C 95.057 160.778, 95.338 160.909, 95.811 160.617 C 96.284 160.324, 98.357 163.494, 100.417 167.661 C 103.112 173.111, 104.468 174.932, 105.249 174.151 C 106.602 172.798, 105.950 171.442, 99.500 162.186 C 94.788 155.424, 91.446 152.325, 94.177 157.250" fill="none" stroke="#000" stroke-width="2px" fill-rule="evenodd"/>
</svg>
