<svg xmlns="http://www.w3.org/2000/svg" width="500" height="430" viewBox="0 0 500 430" version="1.1">
	<path d="M 294.562 4.250 C 294.929 5.236, 294.744 6, 294.138 6 C 293.544 6, 293.350 6.748, 293.705 7.674 C 294.203 8.972, 293.947 9.193, 292.562 8.662 C 291.227 8.150, 290.931 8.358, 291.389 9.489 C 291.725 10.320, 292.315 11.784, 292.700 12.742 C 293.181 13.940, 292.166 13.524, 289.450 11.410 C 287.278 9.719, 284.825 7.949, 284 7.476 C 282.680 6.720, 282.674 6.850, 283.946 8.558 C 284.741 9.626, 286.991 12.247, 288.946 14.382 L 292.500 18.265 289 17.632 L 285.500 16.999 289.416 20.327 C 293.207 23.549, 293.650 26, 290.441 26 C 289.648 26, 289 26.639, 289 27.421 C 289 28.202, 287.650 29.138, 286 29.500 C 282.465 30.276, 282.269 31.845, 285 37.500 C 287.985 43.680, 287.424 43.837, 281.750 38.408 C 274.083 31.072, 273.256 30.542, 271.606 31.912 C 270.091 33.170, 267.962 31.665, 265.958 27.922 C 265.377 26.836, 263.873 26, 262.500 26 C 261.061 26, 259.615 25.150, 258.954 23.914 C 258.340 22.767, 257.585 22.081, 257.276 22.390 C 256.968 22.699, 257.266 23.616, 257.940 24.428 C 258.925 25.614, 258.805 26.399, 257.333 28.421 C 254.791 31.911, 253 31.632, 247.641 26.915 C 242.352 22.260, 241.573 22.610, 246 27.653 C 249.428 31.557, 249.746 32.949, 247.250 33.118 C 244.935 33.275, 244.766 33.252, 242.881 32.517 C 241.630 32.030, 241.322 32.431, 241.526 34.289 C 241.671 35.610, 242.400 37.674, 243.145 38.876 C 244.276 40.699, 244.278 41.199, 243.161 41.894 C 242.126 42.539, 242.545 43.552, 245.015 46.364 C 249.319 51.267, 246.917 50.978, 241.153 45.900 C 234.048 39.639, 231.560 38.587, 228.539 40.566 C 226.147 42.133, 225.924 42.055, 221.032 37.930 C 216.025 33.708, 212.976 33.106, 216.538 37.042 C 217.560 38.172, 218.499 39.789, 218.623 40.636 C 218.747 41.483, 219.558 42.959, 220.424 43.916 C 222.683 46.412, 222.372 47.310, 219.500 46.589 C 216.824 45.918, 216.259 46.859, 218.183 48.783 C 219.937 50.537, 218.335 51.500, 215.748 50.248 C 211.838 48.355, 206.221 47.982, 205.609 49.576 C 204.962 51.263, 199.744 51.468, 196.851 49.920 C 195.307 49.094, 194.442 49.190, 193.167 50.330 C 190.989 52.276, 189.343 52.504, 184.500 51.529 C 181.012 50.826, 175.504 47.899, 174 45.948 C 173.354 45.110, 169.867 43.280, 166.418 41.969 C 164.034 41.062, 163.857 41.123, 164.972 42.467 C 166.108 43.835, 165.820 43.848, 162.235 42.583 C 160.031 41.805, 156.939 40.513, 155.364 39.711 C 153.789 38.909, 151.375 37.953, 150 37.585 L 147.500 36.917 150 38.423 C 151.375 39.251, 152.107 39.945, 151.628 39.965 C 151.148 39.984, 151.373 40.750, 152.128 41.666 C 153.377 43.183, 153.163 43.278, 149.750 42.729 C 145.631 42.066, 145.082 42.582, 147.750 44.608 C 149.391 45.854, 149.376 45.940, 147.500 45.990 C 145.629 46.041, 145.654 46.163, 147.877 47.872 L 150.254 49.700 148.084 50.268 C 146.890 50.580, 144.473 50.422, 142.713 49.918 C 139.261 48.928, 133.439 48.758, 136 49.723 C 136.825 50.033, 138.625 50.706, 140 51.218 C 142.312 52.080, 142.369 52.246, 140.750 53.435 C 138.715 54.930, 138.493 57.093, 140.200 58.800 C 141.956 60.556, 135.864 60.388, 131.490 58.560 C 129.447 57.707, 127.807 57.503, 127.463 58.060 C 126.473 59.662, 127.921 60.902, 132.094 62.025 C 134.299 62.619, 136.353 63.756, 136.658 64.552 C 136.964 65.349, 137.826 66, 138.573 66 C 141.579 66, 147 69.411, 147 71.302 C 147 73.463, 147.088 73.477, 137 69.693 C 125.633 65.429, 125.223 65.788, 135.500 71.008 L 145.500 76.086 140.115 75.677 C 136.490 75.401, 134.430 74.734, 133.815 73.634 C 132.642 71.537, 129.365 71.526, 128.196 73.614 C 127.412 75.016, 126.595 75.079, 122 74.094 C 119.090 73.469, 116.474 73.193, 116.187 73.479 C 115.901 73.766, 116.192 74, 116.833 74 C 117.475 74, 118 74.506, 118 75.125 C 118 75.834, 116.924 76.035, 115.090 75.668 C 113.004 75.251, 112.014 75.522, 111.590 76.625 C 110.728 78.873, 110.804 79, 113.019 79 C 114.715 79, 114.933 79.440, 114.378 81.750 C 114.016 83.263, 113.560 84.685, 113.365 84.911 C 113.171 85.137, 113.986 85.812, 115.177 86.411 C 120.646 89.162, 116.777 90.858, 104.500 91.092 L 98.500 91.207 102.500 92.236 C 104.700 92.802, 106.671 93.414, 106.881 93.597 C 107.780 94.380, 103.767 101, 102.394 101 C 101.562 101, 101.123 101.389, 101.417 101.865 C 101.711 102.341, 99.375 103.021, 96.226 103.377 C 87.800 104.328, 79.998 106.187, 80.567 107.108 C 80.840 107.550, 81.837 107.673, 82.782 107.381 C 84.278 106.918, 84.267 106.998, 82.695 108.005 C 81.277 108.913, 81.140 109.464, 82.057 110.569 C 82.980 111.680, 82.834 112.134, 81.363 112.727 C 79.171 113.611, 69.164 113.557, 67 112.650 C 66.175 112.304, 64.825 112.501, 64 113.087 C 62.667 114.034, 62.667 114.222, 64 114.782 C 64.923 115.170, 63.576 115.873, 60.500 116.610 C 57.076 117.430, 56.348 117.838, 58.191 117.904 C 62.178 118.046, 62.749 119.997, 58.809 120.015 C 56.989 120.024, 54.825 120.467, 54 121 C 52.810 121.769, 53.017 121.976, 55 122 C 56.983 122.024, 57.190 122.231, 56 123 C 54.718 123.828, 54.754 123.972, 56.250 123.985 C 57.212 123.993, 58 124.413, 58 124.918 C 58 125.423, 58.273 126.548, 58.607 127.418 C 59.039 128.543, 58.623 129, 57.166 129 C 56.040 129, 54.840 129.450, 54.500 130 C 54.160 130.550, 52.671 131.036, 51.191 131.079 C 49.711 131.122, 49.063 131.385, 49.750 131.662 C 51.785 132.483, 51.187 133.958, 48.288 135.271 L 45.576 136.500 49.038 137.076 L 52.500 137.653 50 138.896 C 48.625 139.579, 46.011 140.964, 44.192 141.972 L 40.883 143.804 44.961 144.493 C 49.998 145.344, 52.306 147.446, 51.399 150.355 C 51.031 151.535, 50.242 152.813, 49.644 153.196 C 47.632 154.484, 49.544 154.920, 61.365 155.865 C 67.840 156.382, 73.348 157.014, 73.603 157.270 C 73.858 157.525, 71.457 158.029, 68.265 158.390 C 65.074 158.751, 61.249 159.677, 59.764 160.447 C 58.279 161.218, 54.462 162.168, 51.282 162.558 C 42.288 163.662, 41 164.393, 41 168.392 C 41 170.285, 40.438 172.060, 39.750 172.338 C 39.063 172.615, 41.650 172.912, 45.500 172.998 C 49.350 173.084, 54.300 173.696, 56.500 174.359 L 60.500 175.564 54 177.790 C 50.425 179.014, 48.929 179.805, 50.676 179.547 C 54.061 179.049, 60.323 181.532, 59.781 183.158 C 59.486 184.043, 50.914 188.005, 45 189.989 C 42.898 190.695, 42.818 190.847, 44.500 190.946 C 45.600 191.011, 47.398 191.742, 48.495 192.571 C 51.284 194.679, 49.294 195.726, 41.032 196.497 C 31.103 197.424, 30.040 197.706, 35.500 197.963 C 39.600 198.157, 40.050 198.343, 38 199 C 35.681 199.743, 35.754 199.814, 39 199.982 L 42.500 200.162 39.500 201.536 L 36.500 202.910 40.750 202.955 C 43.087 202.980, 45 203.413, 45 203.918 C 45 206.773, 43.549 208.002, 40.143 208.036 C 37.831 208.059, 35.438 208.940, 33.594 210.448 L 30.688 212.824 35.387 211.822 C 37.972 211.271, 40.855 211.117, 41.794 211.481 C 43.358 212.088, 43.339 212.262, 41.559 213.571 C 40.491 214.357, 38.241 215.018, 36.559 215.039 L 33.500 215.078 36.907 216.557 C 38.780 217.370, 41.030 217.809, 41.907 217.532 C 43.125 217.147, 43.530 217.791, 43.627 220.264 C 43.697 222.044, 43.247 223.867, 42.627 224.316 C 41.990 224.776, 42.442 224.867, 43.666 224.525 C 44.857 224.191, 46.105 224.361, 46.439 224.902 C 46.773 225.442, 49.061 226.187, 51.523 226.556 C 53.985 226.925, 56 227.653, 56 228.173 C 56 228.693, 56.480 228.821, 57.067 228.458 C 57.655 228.095, 58.381 228.743, 58.684 229.899 C 58.986 231.055, 59.727 232, 60.331 232 C 62.604 232, 58.339 234.718, 54.250 235.877 C 51.912 236.539, 50 237.512, 50 238.040 C 50 239.274, 50.120 239.262, 54.128 237.611 C 58.659 235.745, 69.084 234.446, 67 236.007 C 65.751 236.943, 65.834 237.047, 67.500 236.628 C 69.610 236.097, 78.622 235.666, 83.225 235.876 C 85.674 235.987, 85.858 236.243, 85.039 238.397 C 83.851 241.523, 84.463 242, 89.667 242 C 92.891 242, 94 242.392, 94 243.531 C 94 245.180, 93.685 245.342, 87.250 246.989 C 81.260 248.523, 81.973 249.987, 88.750 250.070 C 92.887 250.121, 93.939 250.382, 92.500 251 C 91.400 251.473, 89.262 251.891, 87.750 251.930 C 86.208 251.969, 85.110 252.512, 85.250 253.166 C 85.387 253.807, 83.936 254.671, 82.024 255.086 C 80.112 255.500, 77.862 256.663, 77.024 257.670 C 76.186 258.676, 74.862 259.500, 74.083 259.500 C 73.304 259.500, 72.479 260.063, 72.250 260.750 C 71.973 261.580, 72.954 262.011, 75.167 262.032 C 78.314 262.062, 78.392 262.145, 76.559 263.532 C 75.491 264.339, 72.990 265, 71 265 C 69.010 265, 66.554 265.605, 65.542 266.345 C 63.841 267.589, 63.951 267.740, 67.002 268.350 C 70.227 268.995, 70.260 269.055, 68.495 271.005 C 67.502 272.102, 65.972 273.007, 65.095 273.015 C 64.218 273.024, 62.827 273.456, 62.005 273.976 C 60.723 274.786, 60.794 275.130, 62.505 276.389 C 64.831 278.101, 64.224 278.488, 57 279.901 C 54.263 280.436, 53.480 280.830, 55 280.906 C 56.375 280.974, 58.120 281.423, 58.878 281.903 C 59.798 282.486, 57.803 283.167, 52.878 283.953 C 44.004 285.368, 41.684 286.114, 44.250 286.728 C 46.899 287.362, 46.289 289.268, 42.711 291.535 C 40.501 292.937, 39.590 294.219, 39.790 295.652 C 40.004 297.188, 39.157 298.172, 36.559 299.405 C 33.946 300.645, 33.097 301.637, 33.269 303.250 C 33.447 304.930, 32.365 306.042, 28.500 308.147 C 25.750 309.644, 22.825 312.032, 22 313.452 C 21.175 314.873, 18.925 316.860, 17 317.867 C 15.075 318.875, 12.795 321.156, 11.934 322.937 C 11.072 324.717, 10.049 326.101, 9.659 326.012 C 9.269 325.923, 8.399 326.073, 7.725 326.346 C 7.051 326.619, 7.512 326.878, 8.750 326.921 C 11.819 327.029, 11.580 328.377, 8.250 329.739 L 5.500 330.864 8.250 330.324 C 11.191 329.746, 11.780 330.770, 9.750 332.929 C 8.720 334.025, 9.027 334.126, 11.500 333.505 C 13.150 333.090, 15.510 332.622, 16.745 332.464 C 18.842 332.196, 18.892 332.316, 17.503 334.299 C 16.686 335.466, 15.001 337.027, 13.759 337.769 C 11.722 338.985, 12.021 339.067, 16.797 338.600 C 20.883 338.201, 22.224 338.419, 22.659 339.554 C 23.421 341.539, 21.368 343.819, 17.285 345.525 C 13.956 346.916, 13.933 346.968, 15.571 349.468 C 16.555 350.970, 18.171 352, 19.544 352 C 22.260 352, 25.311 354.688, 24.353 356.238 C 23.917 356.944, 24.476 357.109, 25.974 356.717 C 28.215 356.131, 28.208 356.173, 25.630 358.864 C 22.660 361.964, 22.268 363.218, 24.541 362.346 C 25.388 362.021, 25.951 362.189, 25.791 362.721 C 25.631 363.252, 26.535 365.050, 27.801 366.715 C 29.923 369.507, 30.468 369.703, 34.801 369.225 C 37.385 368.940, 41.067 367.873, 42.982 366.855 C 44.897 365.837, 48.047 364.757, 49.982 364.455 C 51.917 364.154, 54.850 363.285, 56.500 362.524 C 58.150 361.763, 64.510 359.560, 70.633 357.627 C 76.756 355.694, 83.281 353.189, 85.133 352.060 C 88.806 349.821, 91.081 349.319, 89.247 351.153 C 88.490 351.910, 88.412 352.901, 89.019 354.036 C 90.567 356.928, 93.108 357.247, 95.641 354.868 C 97.032 353.560, 99.378 352.630, 101.467 352.558 C 103.390 352.491, 105.512 351.888, 106.182 351.218 C 107.961 349.439, 109.317 349.730, 108.551 351.726 C 108.078 352.961, 108.631 352.755, 110.497 351.003 C 112.439 349.178, 113.304 348.874, 113.883 349.810 C 114.310 350.502, 115.379 350.792, 116.257 350.455 C 117.466 349.991, 117.730 350.317, 117.342 351.799 C 116.912 353.445, 117.238 353.677, 119.399 353.264 C 120.811 352.994, 122.669 353.043, 123.526 353.372 C 124.820 353.868, 124.880 354.357, 123.879 356.235 C 122.804 358.253, 122.846 358.357, 124.258 357.193 C 125.559 356.120, 126.216 356.118, 127.922 357.183 C 129.065 357.897, 130 358.866, 130 359.336 C 130 361.419, 134.314 366.094, 135.734 365.549 C 136.855 365.119, 137.106 365.487, 136.714 366.985 C 136.362 368.332, 136.676 369, 137.661 369 C 138.680 369, 138.939 369.618, 138.500 371 C 138.111 372.225, 138.320 373, 139.040 373 C 139.686 373, 139.948 373.692, 139.624 374.538 C 139.294 375.397, 139.661 376.317, 140.456 376.621 C 141.238 376.922, 142.167 378.483, 142.520 380.092 C 142.874 381.701, 143.503 382.807, 143.919 382.550 C 144.832 381.986, 151.303 388.602, 152.917 391.750 C 153.551 392.988, 154.928 394, 155.976 394 C 157.024 394, 158.129 394.400, 158.432 394.889 C 158.734 395.378, 160.223 396.088, 161.741 396.467 C 163.258 396.846, 165.175 397.751, 166 398.478 C 168.519 400.699, 191.628 402.404, 200.246 401.006 C 211.881 399.117, 223 396.626, 223 395.907 C 223 394.889, 238.423 395.859, 248.500 397.511 C 257.288 398.952, 282.496 399.048, 284.760 397.649 C 286.310 396.691, 286.952 391.656, 285.715 390.161 C 284.874 389.144, 284.955 388.881, 286.054 389.069 C 286.849 389.204, 288.289 388.971, 289.252 388.550 C 292.137 387.290, 295.715 388.790, 299.895 393.012 C 302.067 395.206, 304.307 397, 304.874 397 C 305.440 397, 307.221 398.912, 308.830 401.250 C 312.117 406.023, 320.801 415, 322.132 415 C 322.609 415, 323 415.627, 323 416.393 C 323 417.996, 325.127 419, 328.523 419 C 329.820 419, 331.184 419.489, 331.554 420.087 C 331.923 420.685, 333.011 420.969, 333.971 420.718 C 334.931 420.467, 336.567 420.738, 337.608 421.321 C 339.968 422.643, 348.395 423.248, 361.937 423.069 C 370.398 422.958, 372.976 422.560, 375.549 420.970 C 378.023 419.440, 379.361 419.209, 381.612 419.919 C 387.195 421.682, 391.733 421.851, 394.530 420.400 C 396.969 419.135, 397.586 419.154, 399.729 420.558 C 405.299 424.208, 406.977 418.321, 401.987 412.638 C 400.330 410.751, 397.203 408.498, 395.038 407.632 C 392.872 406.765, 390.678 405.256, 390.161 404.278 C 389.196 402.452, 389.842 396.571, 391.785 389.500 C 393.611 382.852, 395.885 371.911, 396.980 364.500 C 397.549 360.650, 398.660 354.575, 399.450 351 C 400.240 347.425, 401.141 342.895, 401.454 340.934 C 402.132 336.674, 407.867 330, 410.848 330 C 413.647 330, 430.371 325.786, 431 324.923 C 431.895 323.693, 442.263 322.656, 453.290 322.692 C 461.923 322.720, 464.322 323.043, 465.290 324.309 C 465.955 325.179, 467.676 326.174, 469.114 326.520 C 471.208 327.023, 471.836 326.736, 472.270 325.074 C 472.588 323.860, 473.630 323, 474.784 323 C 475.868 323, 477.315 322.325, 478 321.500 C 478.685 320.675, 479.724 320, 480.310 320 C 482.216 320, 488.909 311.615, 490.688 307 C 491.642 304.525, 493 301.375, 493.705 300 C 495.960 295.605, 495.328 284.391, 492.311 275.250 C 490.813 270.713, 489.077 267, 488.454 267 C 487.830 267, 486.731 265.215, 486.011 263.033 C 485.291 260.851, 484.319 259.303, 483.851 259.592 C 483.383 259.881, 483 259.416, 483 258.559 C 483 257.702, 482.334 257, 481.519 257 C 480.705 257, 479.757 255.878, 479.412 254.507 C 479.068 253.136, 478.385 252.262, 477.893 252.566 C 477.402 252.870, 477 252.401, 477 251.526 C 477 250.650, 475.425 248.358, 473.500 246.433 C 469.862 242.795, 469.151 240.249, 471.200 238.200 C 472.133 237.267, 472.022 237, 470.700 237 C 469.359 237, 469 236.076, 469 232.625 C 469 228.520, 468.806 228.211, 465.857 227.621 C 464.050 227.260, 462.137 227.472, 461.357 228.119 C 460.289 229.005, 460 228.805, 460 227.181 C 460 226.047, 459.507 224.813, 458.904 224.441 C 458.301 224.068, 457.986 222.546, 458.205 221.057 C 458.654 217.995, 457.033 216, 454.094 216 C 452.999 216, 450.895 214.881, 449.419 213.512 C 447.200 211.456, 446.951 210.764, 447.982 209.522 C 448.668 208.695, 449.031 206.664, 448.788 205.009 C 448.348 202.011, 448.364 202, 453.423 201.904 L 458.500 201.808 453.500 200.628 C 449.758 199.745, 448.961 199.266, 450.332 198.724 C 451.339 198.326, 453.031 198, 454.092 198 C 456.519 198, 459.347 194.785, 460.002 191.280 C 460.342 189.458, 461.708 187.962, 464.252 186.622 C 466.313 185.536, 468 184.075, 468 183.374 C 468 182.673, 468.784 181.661, 469.742 181.125 C 472.516 179.572, 470.727 178.960, 466.680 180.078 C 462.362 181.270, 460.316 180.529, 462.074 178.411 C 462.718 177.635, 463.871 177, 464.637 177 C 466.375 177, 469.991 171.213, 469.996 168.424 C 469.998 167.283, 471.125 165.292, 472.500 164 C 473.875 162.708, 475 160.835, 475 159.838 C 475 158.389, 473.355 159.138, 466.832 163.554 C 462.339 166.596, 458.076 168.860, 457.359 168.584 C 456.642 168.309, 454.131 169.185, 451.778 170.530 C 449.425 171.875, 447.185 172.981, 446.799 172.988 C 445.708 173.007, 449.314 165.543, 451.407 163.450 C 452.436 162.421, 453.904 160.211, 454.668 158.540 C 455.433 156.868, 456.967 153.984, 458.076 152.130 C 460.069 148.801, 459.962 146.638, 457.906 148.694 C 457.159 149.441, 456.127 149.036, 454.413 147.322 L 451.980 144.890 454.490 140.607 C 457.497 135.476, 457.691 134.064, 455.063 136.443 C 453.418 137.932, 452.604 138.024, 449.668 137.055 C 447.510 136.343, 445.989 135.085, 445.619 133.707 C 444.747 130.455, 444.875 126, 445.839 126 C 447.269 126, 449.138 120.876, 448.160 119.638 C 447.665 119.012, 446.965 116.857, 446.603 114.848 C 446.156 112.363, 444.905 110.402, 442.687 108.711 C 440.895 107.344, 439.349 105.387, 439.251 104.363 C 437.271 83.639, 437.249 83.600, 428.321 84.556 C 424.449 84.971, 421.504 84.837, 420.744 84.213 C 420.060 83.651, 418.402 83.036, 417.059 82.846 C 415.266 82.592, 414.395 81.634, 413.778 79.239 C 413.055 76.435, 412.602 76.062, 410.549 76.577 C 408.709 77.039, 407.773 76.583, 406.466 74.588 C 405.455 73.045, 403.841 72, 402.468 72 C 401.202 72, 399.997 71.490, 399.789 70.866 C 399.544 70.132, 398.813 70.330, 397.713 71.430 C 395.725 73.418, 394 72.710, 394 69.906 C 394 67.033, 391.060 63, 388.967 63 C 387.113 63, 383 57.378, 383 54.844 C 383 54.064, 380.756 51.215, 378.013 48.513 C 375.240 45.781, 373.480 43.322, 374.047 42.971 C 375.371 42.152, 374.165 39, 372.528 39 C 371.836 39, 370.126 39.900, 368.727 41 C 367.329 42.100, 365.916 43, 365.588 43 C 365.260 43, 360.870 38.948, 355.833 33.996 C 346.504 24.826, 342.906 22.316, 349.811 29.795 C 353.851 34.172, 358.797 43.536, 357.666 44.668 C 356.496 45.838, 352.058 40.817, 349.326 35.234 C 346.490 29.437, 331.281 12.771, 325.967 9.637 C 322.825 7.784, 322.814 7.785, 323.904 9.821 C 325.511 12.824, 325.403 12.910, 320.600 12.460 C 316.617 12.087, 316.249 12.235, 316.716 14.024 C 317.382 16.568, 315.948 16.534, 312.635 13.927 C 311.112 12.730, 310 12.353, 310 13.036 C 310 14.849, 305.488 13.354, 302.285 10.481 C 300.753 9.106, 298.242 6.748, 296.705 5.241 C 294.860 3.431, 294.132 3.094, 294.562 4.250 M 177 33.971 C 179.418 35.999, 186.360 40, 187.460 40 C 187.757 40, 188 39.569, 188 39.042 C 188 37.897, 180.530 33.482, 177 32.541 L 174.500 31.875 177 33.971 M 141 35 C 142.925 36.054, 145.175 36.916, 146 36.916 C 146.825 36.916, 145.925 36.054, 144 35 C 142.075 33.946, 139.825 33.084, 139 33.084 C 138.175 33.084, 139.075 33.946, 141 35 M 208 43 C 208 43.550, 208.477 44, 209.059 44 C 209.641 44, 209.840 43.550, 209.500 43 C 209.160 42.450, 208.684 42, 208.441 42 C 208.198 42, 208 42.450, 208 43 M 86.813 107.683 C 87.534 107.972, 88.397 107.936, 88.729 107.604 C 89.061 107.272, 88.471 107.036, 87.417 107.079 C 86.252 107.127, 86.015 107.364, 86.813 107.683 M 466.500 169 C 466.160 169.550, 466.359 170, 466.941 170 C 467.523 170, 468 169.550, 468 169 C 468 168.450, 467.802 168, 467.559 168 C 467.316 168, 466.840 168.450, 466.500 169 M 467.750 324.662 C 468.438 324.940, 469.563 324.940, 470.250 324.662 C 470.938 324.385, 470.375 324.158, 469 324.158 C 467.625 324.158, 467.063 324.385, 467.750 324.662" fill="none" stroke="#000" stroke-width="2px" fill-rule="evenodd"/>
</svg>
