<svg xmlns="http://www.w3.org/2000/svg" width="494" height="500" viewBox="0 0 494 500" version="1.1">
	<path d="M 270.500 10 C 270.160 10.550, 268.559 11, 266.941 11 C 265.323 11, 264 11.482, 264 12.071 C 264 12.661, 263.312 12.455, 262.471 11.614 C 260.946 10.089, 258 10.414, 258 12.107 C 258 13.636, 255.147 13.085, 254.188 11.372 C 253.536 10.206, 253.070 10.077, 252.549 10.920 C 251.993 11.820, 251.489 11.821, 250.411 10.926 C 249.283 9.990, 248.986 10.131, 248.930 11.628 C 248.864 13.366, 248.801 13.357, 248.037 11.500 L 247.215 9.500 246.419 11.500 C 245.982 12.600, 244.921 14.029, 244.062 14.676 C 242.815 15.614, 242.363 15.513, 241.820 14.176 C 241.200 12.646, 241.134 12.652, 241.070 14.250 C 240.989 16.268, 239.407 16.596, 238.662 14.750 C 238.370 14.025, 238.125 14.260, 238.079 15.309 C 238.036 16.304, 237.598 16.870, 237.107 16.566 C 236.615 16.262, 235.885 17.248, 235.483 18.757 C 235.082 20.266, 234.546 20.938, 234.293 20.250 C 233.575 18.299, 232.291 18.777, 231.649 21.235 C 231.070 23.450, 231.050 23.452, 229.458 21.485 C 227.871 19.525, 227.857 19.527, 228.315 21.686 C 228.694 23.472, 228.056 24.160, 224.824 25.454 C 222.648 26.324, 220.453 26.780, 219.946 26.466 C 219.438 26.153, 219.275 26.554, 219.584 27.358 C 219.935 28.274, 219.345 29.073, 218 29.500 C 216.589 29.948, 216.059 30.711, 216.451 31.732 C 216.948 33.029, 216.792 33.073, 215.500 32 C 214.198 30.920, 214.054 30.976, 214.584 32.359 C 215.089 33.674, 214.565 34, 211.940 34 C 210.140 34, 208.932 34.265, 209.256 34.590 C 210.012 35.345, 204.646 41, 203.173 41 C 202.562 41, 202.322 41.675, 202.638 42.500 C 203.003 43.450, 202.625 44, 201.607 44 C 200.723 44, 200 44.351, 200 44.781 C 200 45.210, 198.567 46.102, 196.816 46.763 C 195.065 47.424, 193.937 48.270, 194.310 48.643 C 194.683 49.016, 193.978 49.848, 192.744 50.492 C 191.510 51.137, 190.597 52.144, 190.717 52.732 C 190.836 53.319, 189.782 54.089, 188.376 54.442 C 186.629 54.880, 186.002 55.562, 186.398 56.594 C 186.716 57.424, 186.583 57.860, 186.102 57.563 C 185.620 57.265, 184.613 57.778, 183.863 58.703 C 182.926 59.859, 182.890 60.149, 183.750 59.633 C 184.438 59.220, 185 59.359, 185 59.941 C 185 60.523, 184.325 61, 183.500 61 C 182.675 61, 182.113 61.346, 182.250 61.769 C 182.388 62.192, 181.503 63.611, 180.285 64.921 C 179.066 66.231, 178.348 67.754, 178.689 68.306 C 179.030 68.858, 178.885 69.047, 178.366 68.726 C 177.236 68.028, 170.416 74.749, 171.328 75.662 C 171.678 76.011, 170.959 77.168, 169.732 78.233 C 168.504 79.297, 167.468 80.468, 167.429 80.834 C 167.389 81.200, 166.765 82.850, 166.040 84.500 C 162.488 92.594, 160.533 95.712, 159.076 95.610 C 158.209 95.549, 157.603 96.035, 157.730 96.689 C 157.856 97.343, 157.036 98.171, 155.907 98.529 C 154.677 98.920, 154.072 99.745, 154.396 100.590 C 154.726 101.449, 154.298 102, 153.302 102 C 152.403 102, 151.918 102.251, 152.224 102.558 C 152.531 102.864, 151.369 104.559, 149.641 106.323 C 144.267 111.812, 140.405 116.492, 142.500 114.979 C 144.475 113.553, 144.476 113.563, 142.616 115.744 C 141.580 116.959, 140.343 117.712, 139.866 117.417 C 139.390 117.123, 139 117.359, 139 117.941 C 139 118.523, 138.250 119, 137.333 119 C 136.417 119, 135.963 119.296, 136.325 119.658 C 136.687 120.020, 136.473 120.930, 135.850 121.681 C 134.941 122.776, 135.091 122.910, 136.609 122.357 C 137.687 121.965, 136.844 123.257, 134.650 125.362 C 131.481 128.401, 131.016 129.315, 132.022 130.527 C 133.034 131.746, 132.878 132, 131.122 132 C 129.955 132, 129.074 132.338, 129.164 132.750 C 129.555 134.539, 127.640 139.102, 126.146 139.938 C 125.249 140.440, 124.512 141.672, 124.508 142.675 C 124.503 143.679, 123.904 144.376, 123.176 144.225 C 122.447 144.074, 122.136 144.412, 122.485 144.975 C 122.833 145.539, 122.656 146, 122.090 146 C 121.525 146, 121.350 146.749, 121.701 147.664 C 122.131 148.783, 121.957 149.091, 121.170 148.605 C 120.460 148.166, 120 148.521, 120 149.508 C 120 150.402, 118.859 152.630, 117.464 154.458 C 116.069 156.287, 114.997 158.170, 115.082 158.642 C 115.466 160.774, 114.845 161.807, 112.870 162.324 C 111.414 162.705, 110.936 163.390, 111.359 164.492 C 111.699 165.379, 111.583 165.860, 111.102 165.563 C 109.664 164.674, 107.722 167.829, 108.314 170.094 C 108.759 171.795, 108.495 172.101, 106.932 171.693 C 104.712 171.112, 104.606 171.396, 106.043 174.081 C 106.851 175.589, 106.738 176.163, 105.543 176.622 C 104.694 176.948, 104 177.860, 104 178.649 C 104 179.438, 103.089 181.062, 101.975 182.257 C 100.862 183.452, 100.180 185.026, 100.459 185.754 C 101.035 187.254, 99.246 190.845, 97 192.698 C 95.860 193.639, 95.817 193.944, 96.821 193.968 C 97.816 193.992, 97.754 194.389, 96.571 195.571 C 95.707 196.436, 95 198.011, 95 199.071 C 95 200.400, 94.300 201.005, 92.750 201.015 C 91.513 201.024, 90.965 201.361, 91.533 201.765 C 92.790 202.659, 92.784 204.006, 91.514 206 C 90.369 207.799, 90.004 212.116, 91.052 211.468 C 91.458 211.217, 92.068 211.734, 92.407 212.617 C 92.833 213.729, 92.588 214.056, 91.609 213.680 C 89.612 212.914, 88.906 213.957, 90.018 216.033 C 90.820 217.533, 90.624 217.718, 88.733 217.245 C 86.520 216.691, 86.517 216.705, 88.405 218.843 C 89.504 220.087, 89.811 221, 89.132 221 C 88.354 221, 88.518 221.861, 89.612 223.531 C 91.571 226.521, 90.711 227.925, 87.968 226.212 C 84.654 224.142, 84.502 224.867, 87.563 228.155 C 89.178 229.890, 89.825 230.951, 89 230.514 C 87.865 229.912, 87.907 230.151, 89.173 231.496 C 90.463 232.868, 90.625 233.855, 89.882 235.810 C 89.352 237.204, 89.157 238.966, 89.448 239.724 C 89.739 240.483, 89.598 240.870, 89.135 240.583 C 87.794 239.754, 86.086 244.529, 86.514 247.912 C 86.794 250.125, 86.493 251, 85.452 251 C 83.669 251, 83.588 252.165, 85.250 253.922 C 86.283 255.015, 86.096 255.037, 84.174 254.047 C 82.016 252.935, 81.926 252.994, 82.927 254.864 C 84.136 257.123, 82.835 258.619, 80.750 257.367 C 80.023 256.930, 80.127 257.402, 81 258.495 C 82.373 260.215, 82.340 260.314, 80.609 259.664 C 79.050 259.079, 78.926 259.206, 79.906 260.387 C 80.855 261.530, 80.683 262.109, 79.054 263.250 C 77.931 264.036, 77.347 265.074, 77.756 265.557 C 78.165 266.039, 77.772 265.881, 76.883 265.205 C 75.586 264.219, 75.031 264.257, 74.084 265.399 C 73.174 266.495, 73.179 266.993, 74.106 267.565 C 74.919 268.068, 75.047 267.885, 74.500 267 C 73.968 266.139, 74.082 265.933, 74.834 266.397 C 76.329 267.321, 70.612 278.835, 68.212 279.731 C 65.838 280.618, 56.486 290.682, 54.349 294.651 C 52.132 298.767, 53.326 302.910, 57.273 304.802 C 58.773 305.521, 60 306.535, 60 307.055 C 60 307.575, 60.628 308, 61.395 308 C 62.988 308, 67.347 316.126, 66.199 316.956 C 65.375 317.551, 65.411 320.987, 66.283 325.174 C 66.670 327.032, 66.372 328.027, 65.307 328.436 C 64.121 328.891, 64.035 329.338, 64.929 330.415 C 65.564 331.180, 65.685 331.962, 65.197 332.153 C 64.125 332.573, 62.831 340, 63.830 340 C 64.217 340, 64.577 341.688, 64.631 343.750 C 64.902 354.113, 66.250 359.896, 70.052 367 C 71.083 368.925, 73.034 372.699, 74.389 375.388 C 75.744 378.076, 79.226 382.412, 82.126 385.023 C 88.398 390.670, 88.834 393.422, 84.814 402 C 83.397 405.025, 81.208 410.581, 79.951 414.346 C 78.694 418.111, 76.953 421.453, 76.083 421.773 C 75.212 422.092, 74.275 422.612, 74 422.927 C 73.725 423.242, 70.125 425.060, 66 426.967 C 59.029 430.189, 54.893 432.961, 47.598 439.302 C 43.979 442.448, 42.557 443.089, 31.920 446.368 C 24.476 448.663, 22.646 449.707, 18.090 454.257 C 12.976 459.363, 7.284 467.617, 8.226 468.559 C 8.484 468.817, 9.776 468.205, 11.097 467.198 C 12.419 466.192, 15.300 464.312, 17.500 463.021 L 21.500 460.673 18.409 464.086 C 11.162 472.089, 8.657 477.859, 14.250 473.665 C 18.413 470.544, 25.596 466.929, 26.278 467.612 C 26.567 467.901, 24.967 470.800, 22.721 474.054 C 20.475 477.309, 18.884 480.218, 19.185 480.518 C 19.486 480.819, 21.674 479.444, 24.047 477.461 C 26.420 475.479, 29.967 473.044, 31.931 472.050 L 35.500 470.244 38.139 472.945 C 40.120 474.974, 40.544 476.064, 39.839 477.323 C 38.495 479.724, 39.165 479.440, 44.109 475.510 C 46.524 473.590, 48.950 472.012, 49.500 472.004 C 50.050 471.995, 51.841 471.288, 53.480 470.434 C 55.372 469.447, 56.587 469.262, 56.809 469.927 C 57.001 470.502, 57.998 471.992, 59.025 473.237 C 60.853 475.451, 60.961 475.462, 64.028 473.750 C 65.752 472.788, 67.991 472, 69.004 472 C 70.018 472, 72.184 470.875, 73.818 469.500 C 75.452 468.125, 77.541 467, 78.461 467 C 79.381 467, 81.608 465.875, 83.411 464.500 C 85.214 463.125, 86.980 462, 87.337 462 C 87.693 462, 88.775 463.648, 89.742 465.662 C 92.063 470.498, 95.778 473.108, 101.210 473.720 C 106.118 474.273, 111.934 471.945, 115.500 468 C 116.600 466.783, 119.175 464.932, 121.222 463.887 C 126.039 461.429, 131.740 456.401, 133.451 453.102 C 134.193 451.671, 136.445 448.810, 138.454 446.744 C 141.391 443.725, 142.636 443.092, 144.804 443.517 C 147.297 444.006, 147.330 443.971, 145.250 443.055 C 141.580 441.439, 142.604 441, 150.040 441 L 157.081 441 154.540 443.740 C 153.143 445.247, 152 446.884, 152 447.379 C 152 447.873, 149.300 448.033, 146 447.734 C 142.701 447.435, 139.749 447.597, 139.441 448.095 C 139.134 448.593, 141.159 449, 143.941 449 C 147.771 449, 149 449.364, 149 450.500 C 149 451.325, 149.241 452, 149.535 452 C 150.626 452, 155.704 448.406, 162.794 442.615 C 169.189 437.392, 181 431.070, 181 432.869 C 181 433.224, 178.533 436.343, 175.518 439.800 C 168.044 448.370, 165 452.458, 165 453.926 C 165 454.607, 161.850 459.234, 158 464.208 C 154.150 469.183, 151 473.672, 151 474.183 C 151 475.812, 156.921 471.709, 164.325 464.948 C 168.271 461.344, 173.148 457.395, 175.162 456.171 C 177.176 454.947, 181.564 450.943, 184.912 447.274 C 188.260 443.604, 191 441.159, 191 441.839 C 191 443.205, 179.613 460.503, 178.097 461.440 C 177.574 461.763, 176.606 463.709, 175.947 465.764 C 175.288 467.819, 172.555 473.162, 169.874 477.639 C 162.026 490.744, 163.052 490.428, 179.267 474.745 C 186.236 468.005, 193.325 460.303, 195.020 457.629 C 199.980 449.808, 199.665 453.151, 194.616 461.903 C 191.881 466.646, 190 471.152, 190 472.963 C 190 474.697, 188.002 479.714, 185.383 484.559 C 182.843 489.256, 181.075 493.408, 181.454 493.787 C 182.407 494.740, 195.318 480.607, 205.011 468 L 206.933 465.500 206.967 468.268 C 206.985 469.791, 204.746 475.528, 201.991 481.018 C 199.236 486.508, 197.382 491, 197.870 491 C 199.022 491, 204.878 483.839, 208.858 477.563 C 210.574 474.857, 213.559 471.340, 215.489 469.748 C 217.420 468.157, 219 466.014, 219 464.986 C 219 463.959, 219.408 462.866, 219.908 462.557 C 220.407 462.249, 221.593 459.522, 222.544 456.498 C 223.496 453.474, 224.737 451, 225.304 451 C 225.870 451, 226.049 450.716, 225.702 450.369 C 225.355 450.021, 225.610 448.784, 226.269 447.619 C 227.964 444.623, 231.025 432.157, 231.271 427.250 C 231.305 426.563, 231.708 426, 232.167 426 C 232.625 426, 233 425.325, 233 424.500 C 233 423.675, 233.360 423, 233.799 423 C 234.582 423, 237.549 416.066, 237.259 414.917 C 236.990 413.855, 240.486 414.281, 241.235 415.401 C 241.660 416.037, 241.976 415.576, 241.985 414.309 C 241.993 413.104, 242.450 411.840, 243 411.500 C 243.550 411.160, 244.045 409.896, 244.100 408.691 C 244.192 406.671, 244.256 406.695, 244.923 409 C 245.626 411.427, 245.668 411.438, 246.353 409.369 C 246.742 408.197, 247.946 406.215, 249.030 404.966 L 251 402.694 251 405.547 C 251 409.160, 252.255 407.766, 253.997 402.217 C 254.902 399.334, 255.608 398.354, 256.156 399.217 C 256.708 400.088, 256.974 399.742, 256.985 398.143 C 256.996 396.462, 257.430 395.951, 258.500 396.362 C 259.469 396.734, 260.012 396.329, 260.034 395.219 C 260.053 394.273, 260.937 391.700, 262 389.500 C 263.063 387.300, 263.947 384.514, 263.966 383.309 C 264.013 380.285, 265.769 379.458, 266.244 382.235 C 266.533 383.922, 266.824 383.480, 267.388 380.500 C 268.341 375.457, 269.982 372.036, 271.322 372.298 C 271.916 372.414, 272.317 370.691, 272.263 368.257 C 272.212 365.923, 272.576 363.762, 273.073 363.455 C 273.570 363.147, 273.727 363.549, 273.420 364.347 C 273.114 365.145, 273.355 366.102, 273.957 366.473 C 274.558 366.845, 274.985 366.778, 274.906 366.324 C 274.828 365.871, 274.823 364.600, 274.897 363.500 C 274.998 361.994, 275.241 361.832, 275.883 362.845 C 276.505 363.826, 276.929 363.421, 277.449 361.346 C 278.123 358.662, 278.240 358.608, 279.532 360.374 C 280.831 362.151, 280.934 362.113, 281.559 359.623 C 281.921 358.180, 282.618 357, 283.108 357 C 283.599 357, 284.032 356.212, 284.070 355.250 C 284.130 353.765, 284.262 353.803, 284.940 355.500 C 285.517 356.941, 285.738 356.243, 285.730 353 C 285.708 343.165, 286.183 337, 286.963 337 C 287.738 337, 288.851 333.939, 289.684 329.521 C 290.440 325.513, 291.999 325.531, 292.079 329.550 C 292.122 331.723, 292.386 332.935, 292.664 332.244 C 292.943 331.553, 293.582 331.242, 294.085 331.553 C 294.588 331.864, 295 331.443, 295 330.618 C 295 328.473, 296.681 327.725, 297.384 329.558 C 297.710 330.408, 297.645 330.899, 297.239 330.648 C 296.832 330.397, 296.459 332.098, 296.408 334.429 C 296.345 337.353, 296.732 338.667, 297.658 338.667 C 298.396 338.667, 299 338.067, 299 337.333 C 299 336.600, 299.420 336, 299.934 336 C 300.447 336, 300.673 334.929, 300.436 333.621 C 300.168 332.140, 300.665 330.723, 301.752 329.871 C 303.283 328.671, 303.352 328.691, 302.307 330.034 C 301.651 330.878, 301.243 332.448, 301.401 333.524 C 301.558 334.599, 300.868 337.284, 299.866 339.490 C 298.864 341.695, 298.048 344.400, 298.054 345.500 C 298.063 347.375, 298.147 347.390, 299.392 345.750 C 301.375 343.138, 301.674 343.552, 301.455 348.603 C 301.330 351.477, 301.577 352.697, 302.112 351.853 C 302.675 350.965, 302.990 351.875, 303.030 354.500 L 303.090 358.500 304.455 355.500 L 305.819 352.500 305.480 355.765 C 305.274 357.756, 305.531 358.790, 306.139 358.414 C 306.688 358.075, 306.922 357.240, 306.661 356.558 C 306.399 355.876, 306.587 354.684, 307.077 353.909 C 307.812 352.748, 307.972 352.786, 307.985 354.128 C 307.993 355.023, 308.675 356.315, 309.500 357 C 310.325 357.685, 311 359.116, 311 360.181 C 311 361.247, 311.385 361.880, 311.856 361.589 C 313.227 360.742, 311.884 366.333, 310.271 368.187 C 308.788 369.893, 309.386 372.498, 311.028 371.483 C 311.517 371.181, 311.713 372.523, 311.465 374.467 C 311.213 376.431, 311.451 378, 312 378 C 313.241 378, 312.777 381.359, 311.288 383.152 C 310.673 383.894, 310.227 384.725, 310.296 385 C 310.535 385.951, 304.197 391.863, 303.589 391.256 C 303.253 390.920, 302.066 391.625, 300.950 392.823 C 299.835 394.020, 298.287 395, 297.511 395 C 296.734 395, 295.641 395.788, 295.080 396.750 C 294.519 397.712, 294.047 398.147, 294.030 397.716 C 294.014 397.284, 292.725 398.184, 291.167 399.716 C 289.609 401.247, 287.371 403.273, 286.194 404.217 C 285.018 405.161, 283.763 407.095, 283.407 408.513 C 283.051 409.932, 280.789 414.033, 278.380 417.625 C 275.835 421.420, 274.019 425.276, 274.045 426.828 C 274.088 429.350, 274.389 429.176, 279.411 423.736 C 283.850 418.927, 284.929 418.209, 285.921 419.405 C 286.867 420.544, 286.473 422.101, 283.999 427.001 C 280.242 434.445, 280.527 436.776, 284.561 431.583 C 286.177 429.503, 288.236 426.847, 289.135 425.683 C 290.527 423.880, 291.009 423.763, 292.373 424.894 C 293.254 425.626, 294.705 425.943, 295.599 425.601 C 296.793 425.142, 297.060 425.400, 296.609 426.576 C 296.272 427.455, 295.725 430.048, 295.394 432.337 L 294.793 436.500 297.536 432.500 C 301.613 426.557, 301.754 426.467, 303.920 428.428 C 305.829 430.156, 306.006 430.080, 309.889 425.875 L 313.890 421.542 313.370 429.771 C 312.797 438.855, 313.727 440.149, 316.466 434.076 C 317.549 431.674, 318.741 430.347, 319.540 430.654 C 320.849 431.156, 323.413 428.990, 325.747 425.412 C 326.803 423.794, 326.901 424.229, 326.384 428.250 C 325.687 433.669, 327.086 434.622, 328.990 430.024 C 330.042 427.485, 330.509 427.202, 332.178 428.095 C 333.645 428.881, 334.680 428.758, 336.317 427.605 C 341.501 423.955, 341.741 423.560, 345.512 412.500 C 347.829 405.705, 349.504 399.536, 349.246 398.750 C 349.111 398.338, 349.367 398, 349.816 398 C 350.265 398, 351.701 395.412, 353.008 392.250 C 354.314 389.087, 355.972 385.905, 356.692 385.179 C 357.411 384.452, 358.007 382.877, 358.015 381.679 C 358.027 380.075, 358.258 379.858, 358.890 380.857 C 360.034 382.662, 361.191 380.761, 360.422 378.340 C 359.895 376.684, 360.008 376.700, 361.543 378.500 C 363.235 380.482, 363.245 380.480, 362.719 378.251 C 362.427 377.014, 362.596 375.750, 363.094 375.442 C 363.592 375.134, 364 375.594, 364 376.464 C 364 377.878, 364.275 377.866, 366.585 376.352 C 368.641 375.005, 369.334 374.923, 369.969 375.949 C 370.587 376.950, 370.982 376.855, 371.726 375.524 C 372.510 374.125, 372.927 374.667, 373.992 378.472 C 374.737 381.132, 375.604 382.640, 376.011 381.983 C 376.905 380.536, 378.146 380.842, 379.732 382.901 C 380.756 384.230, 380.869 383.909, 380.396 381 C 380.083 379.075, 379.655 376.938, 379.445 376.250 C 378.714 373.858, 380.056 375.018, 381.053 377.639 C 381.605 379.090, 382.357 379.976, 382.726 379.607 C 383.095 379.239, 383.966 379.964, 384.663 381.219 L 385.929 383.500 385.965 381.250 C 385.986 379.865, 386.618 379, 387.607 379 C 388.639 379, 388.997 378.463, 388.607 377.500 C 386.920 373.331, 386.916 372.721, 388.592 375 C 389.603 376.375, 391.201 378.337, 392.143 379.361 C 393.813 381.176, 393.847 381.176, 393.504 379.361 C 393.311 378.337, 393.119 377.136, 393.077 376.691 C 393.034 376.246, 392.480 376.203, 391.845 376.595 C 391.099 377.057, 390.964 376.868, 391.463 376.060 C 392.016 375.165, 393.089 375.747, 395.251 378.113 C 398.361 381.518, 398.476 381.147, 396.193 375.086 C 395.854 374.187, 396.086 373.935, 396.830 374.395 C 397.474 374.793, 398 374.609, 398 373.988 C 398 373.334, 398.663 373.520, 399.571 374.429 C 401.627 376.484, 401.920 376.411, 401.290 374 C 400.986 372.838, 401.259 372, 401.942 372 C 402.589 372, 402.869 372.403, 402.565 372.895 C 402.260 373.388, 402.661 374.040, 403.455 374.344 C 404.453 374.727, 404.713 374.416, 404.297 373.333 C 403.790 372.012, 404.033 371.947, 405.848 372.919 C 407.032 373.552, 408 374.456, 408 374.928 C 408 375.400, 408.739 376.069, 409.641 376.416 C 410.955 376.920, 411.051 376.767, 410.124 375.650 C 409.487 374.882, 409.246 373.522, 409.589 372.628 C 410.118 371.249, 410.512 371.382, 412.179 373.501 C 413.261 374.875, 414.675 375.964, 415.323 375.921 C 416.143 375.866, 416.119 375.688, 415.244 375.336 C 414.553 375.057, 414.242 374.418, 414.553 373.915 C 414.864 373.412, 414.566 373, 413.892 373 C 413.218 373, 412.956 372.711, 413.309 372.357 C 413.663 372.004, 414.675 372.315, 415.559 373.049 C 417.816 374.922, 421.072 375.014, 420.756 373.197 C 420.479 371.606, 423.652 370.629, 424.523 372.037 C 424.815 372.509, 424.129 372.717, 423 372.500 C 421.871 372.283, 421.185 372.491, 421.477 372.963 C 421.769 373.435, 422.794 373.671, 423.754 373.487 C 424.714 373.304, 425.886 373.119, 426.357 373.077 C 426.828 373.034, 426.968 372.359, 426.668 371.576 C 426.203 370.365, 426.596 370.345, 429.311 371.446 C 433.134 372.997, 435.120 372.491, 434.257 370.185 C 433.687 368.664, 433.808 368.646, 435.505 370 C 436.538 370.825, 437.065 370.969, 436.676 370.319 C 436.286 369.670, 436.455 368.837, 437.052 368.468 C 437.648 368.099, 437.884 367.139, 437.574 366.333 C 437.162 365.258, 437.520 365.030, 438.922 365.475 C 439.972 365.809, 441.110 365.630, 441.451 365.079 C 441.857 364.423, 442.945 364.409, 444.601 365.038 C 448.052 366.351, 448.222 366.283, 447.036 364.067 C 446.184 362.475, 446.387 362.012, 448.188 361.440 C 450.331 360.760, 450.336 360.718, 448.437 359.270 C 446.283 357.628, 446 357.612, 453 359.524 C 455.420 360.185, 455.436 360.158, 453.500 358.677 L 451.500 357.148 453.500 357.324 C 454.634 357.424, 455.392 356.958, 455.250 356.250 C 455.113 355.563, 455.914 355, 457.031 355 C 458.149 355, 459.315 354.342, 459.624 353.538 C 459.932 352.734, 460.964 351.829, 461.916 351.527 C 462.868 351.224, 464.655 350.038, 465.887 348.891 C 467.863 347.050, 469.472 346.345, 472.309 346.077 C 472.754 346.034, 472.840 345.550, 472.500 345 C 472.160 344.450, 472.407 344, 473.048 344 C 473.689 344, 473.955 343.325, 473.638 342.500 C 473.322 341.675, 473.386 340.966, 473.781 340.923 C 476.840 340.598, 478.478 339.864, 480.147 338.073 C 481.209 336.933, 481.766 336, 481.384 336 C 481.002 336, 481.436 335.176, 482.347 334.169 C 483.259 333.162, 483.706 332.040, 483.342 331.675 C 482.977 331.311, 483.720 330.110, 484.993 329.006 C 486.734 327.496, 486.917 327, 485.734 327 C 484.402 327, 484.318 326.431, 485.187 323.285 C 485.922 320.622, 485.898 319.466, 485.100 319.200 C 484.488 318.996, 484.242 318.418, 484.553 317.915 C 484.864 317.412, 484.641 317, 484.059 317 C 483.477 317, 483 316.325, 483 315.500 C 483 314.675, 482.564 314, 482.031 314 C 481.499 314, 481.358 313.212, 481.719 312.250 C 482.269 310.783, 482.128 310.700, 480.845 311.741 C 479.017 313.226, 477.901 312.423, 478.743 310.229 C 479.195 309.049, 478.913 308.819, 477.622 309.315 C 476.595 309.709, 476.144 309.577, 476.507 308.989 C 476.843 308.445, 476.447 308, 475.626 308 C 474.806 308, 473.849 307.100, 473.500 306 C 472.765 303.685, 471.935 303.504, 470.053 305.250 C 468.953 306.270, 468.819 306.179, 469.321 304.750 C 469.727 303.598, 469.435 303, 468.469 303 C 467.661 303, 467 302.602, 467 302.117 C 467 300.685, 463.276 300.133, 461.938 301.366 C 460.996 302.234, 460.897 302.167, 461.517 301.080 C 462.139 299.992, 461.881 299.820, 460.414 300.343 C 458.991 300.851, 459.141 300.503, 461 298.987 L 463.500 296.949 460.500 297.640 C 457.785 298.266, 457.631 298.173, 458.872 296.666 C 459.682 295.683, 459.809 295, 459.181 295 C 458.597 295, 457.840 295.450, 457.500 296 C 456.483 297.646, 454.736 297.129, 455.407 295.381 C 455.905 294.085, 455.519 293.859, 453.479 294.249 C 450.765 294.768, 447.570 291.697, 448.628 289.587 C 448.928 288.989, 448.204 289.625, 447.020 291 C 445.042 293.296, 444.956 293.316, 445.968 291.250 C 446.602 289.957, 446.670 289, 446.129 289 C 445.611 289, 445.431 287.988, 445.730 286.750 C 446.174 284.906, 446.031 284.725, 444.936 285.750 C 442.461 288.065, 439.988 286.542, 440.033 282.730 C 440.048 281.473, 437.563 279.172, 436.734 279.674 C 436.312 279.929, 436.269 280.627, 436.638 281.224 C 437.055 281.899, 436.840 282.019, 436.067 281.542 C 435.173 280.989, 435.130 280.470, 435.913 279.687 C 437.224 278.376, 437.376 275.650, 436.093 276.442 C 435.595 276.751, 435.422 276.102, 435.710 275.001 C 436.003 273.882, 435.741 273, 435.117 273 C 434.502 273, 434.053 272.663, 434.118 272.250 C 434.541 269.572, 433.962 268.786, 432.476 270.020 C 431.638 270.716, 430.663 270.996, 430.309 270.643 C 429.956 270.289, 430.144 270, 430.726 270 C 432.790 270, 432.929 266.929, 430.955 264.955 C 429.233 263.233, 429.170 262.872, 430.507 262.359 C 431.864 261.838, 431.835 261.594, 430.279 260.414 C 427.838 258.562, 426.958 258.673, 427.626 260.750 C 428.085 262.177, 427.999 262.232, 427.160 261.048 C 426.595 260.249, 426.378 259.198, 426.678 258.711 C 426.979 258.225, 425.736 256.291, 423.916 254.414 C 421.837 252.269, 421.145 250.992, 422.054 250.978 C 422.968 250.964, 422.581 250.237, 421 249 C 419.625 247.924, 418.993 247.034, 419.595 247.022 C 420.901 246.996, 424.210 250.456, 423.530 251.137 C 423.269 251.398, 424.689 253.153, 426.686 255.037 C 429.337 257.537, 429.995 257.860, 429.124 256.231 C 428.467 255.004, 427.476 254, 426.921 254 C 426.366 254, 425.985 253.437, 426.075 252.750 C 426.485 249.587, 425.947 247.914, 424.750 248.633 C 423.901 249.143, 423.940 248.842, 424.872 247.692 C 425.973 246.335, 425.998 245.703, 425 244.500 C 423.988 243.280, 424.035 243, 425.255 243 C 426.080 243, 427.311 243.670, 427.991 244.489 C 428.671 245.308, 429.665 245.707, 430.202 245.375 C 430.738 245.044, 430.125 244.248, 428.838 243.607 C 427.552 242.966, 426.493 242.004, 426.485 241.470 C 426.455 239.594, 424.849 237.975, 423.681 238.644 C 423.031 239.016, 422.838 238.948, 423.252 238.491 C 423.666 238.035, 423.216 236.773, 422.252 235.686 C 420.541 233.756, 420.559 233.739, 423 234.977 C 424.947 235.964, 425.241 235.969, 424.328 235.001 C 422.905 233.490, 423.750 230.748, 425.355 231.667 C 425.985 232.028, 425.488 231.208, 424.250 229.847 C 423.012 228.485, 422 226.993, 422 226.531 C 422 226.068, 423.012 226.547, 424.250 227.595 L 426.500 229.500 424.552 227.202 C 423.480 225.938, 422.515 224.363, 422.407 223.702 C 422.299 223.041, 422.050 221.830, 421.855 221.011 C 421.591 219.903, 422.268 219.591, 424.500 219.792 C 427.278 220.041, 427.365 219.954, 425.674 218.615 C 423.706 217.056, 422.049 208.294, 423.944 209.465 C 425.581 210.477, 425.189 207.862, 423.516 206.610 C 421.201 204.879, 422.696 200.693, 425.388 201.369 C 427.336 201.858, 427.306 201.726, 425 199.666 C 422.487 197.422, 421.168 193, 423.012 193 C 423.555 193, 424 192.114, 424 191.031 C 424 189.797, 424.500 189.255, 425.340 189.577 C 426.357 189.967, 426.658 188.877, 426.590 185.047 C 426.540 182.273, 426.136 180.003, 425.691 180.002 C 425.246 180.001, 425.136 179.588, 425.447 179.085 C 425.758 178.582, 425.447 177.969, 424.756 177.722 C 424.065 177.476, 423.855 176.895, 424.288 176.432 C 424.722 175.969, 426.442 176.106, 428.111 176.736 C 430.776 177.742, 430.994 177.698, 429.896 176.375 C 429.208 175.546, 427.371 174.209, 425.812 173.403 C 423.491 172.202, 423.207 171.692, 424.240 170.574 C 424.933 169.824, 425.837 169.414, 426.250 169.664 C 427.850 170.633, 426.895 168.215, 425 166.500 C 422.368 164.118, 422.465 162.242, 425.250 161.706 L 427.500 161.272 425.250 161.136 C 424.012 161.061, 423 160.502, 423 159.893 C 423 159.251, 423.734 159.067, 424.750 159.455 C 426.045 159.950, 425.916 159.578, 424.250 158.023 C 423.012 156.867, 422 155.723, 422 155.480 C 422 155.237, 423.913 155.201, 426.250 155.400 C 428.587 155.598, 429.600 155.547, 428.500 155.285 C 427.400 155.023, 425.957 154.363, 425.294 153.818 C 424.630 153.273, 423.548 153.161, 422.889 153.568 C 422.131 154.037, 421.953 153.885, 422.405 153.155 C 422.797 152.520, 424.190 152, 425.500 152 C 426.810 152, 428.201 151.484, 428.590 150.854 C 429.091 150.044, 428.498 149.909, 426.565 150.394 C 424.966 150.796, 424.070 150.696, 424.405 150.154 C 424.720 149.644, 424.037 148.982, 422.888 148.681 C 421.739 148.380, 421.072 147.693, 421.406 147.153 C 421.739 146.613, 421.447 145.943, 420.756 145.664 C 420.054 145.381, 420.382 145.087, 421.500 144.998 C 423.120 144.868, 422.930 144.577, 420.500 143.464 C 418.116 142.372, 417.910 142.068, 419.500 141.982 C 421.346 141.882, 421.327 141.804, 419.250 140.969 C 416.489 139.859, 416.296 138, 418.941 138 C 420.009 138, 421.129 137.601, 421.430 137.113 C 421.732 136.625, 421.244 136.288, 420.347 136.363 C 419.449 136.438, 418.529 135.973, 418.301 135.329 C 418.035 134.580, 418.628 134.351, 419.943 134.695 C 422.713 135.420, 422.568 134.164, 419.750 133.031 C 418.026 132.338, 417.909 132.112, 419.250 132.063 C 421.280 131.990, 421.376 131.571, 419.965 128.934 C 419.395 127.870, 418.233 127, 417.381 127 C 416.530 127, 416.039 126.437, 416.289 125.750 C 416.540 125.063, 415.864 123.530, 414.787 122.344 C 413.189 120.586, 413.037 119.800, 413.957 118.080 C 414.578 116.920, 414.729 116.090, 414.293 116.236 C 413.538 116.487, 413 115.718, 413 114.385 C 413 114.047, 414.238 114.562, 415.750 115.529 L 418.500 117.288 416.250 114.830 C 415.012 113.477, 414 111.898, 414 111.320 C 414 110.743, 413.025 109.030, 411.833 107.514 L 409.665 104.759 411.834 105.447 C 413.791 106.069, 413.913 105.900, 413.081 103.714 C 412.253 101.536, 412.404 101.319, 414.585 101.559 C 415.919 101.705, 416.752 101.407, 416.436 100.896 C 416.120 100.385, 415.398 100.254, 414.831 100.604 C 414.245 100.967, 414.318 100.275, 415 99 C 415.794 97.516, 415.828 96.988, 415.100 97.438 C 414.495 97.812, 414 97.471, 414 96.681 C 414 95.891, 412.988 94.489, 411.750 93.566 C 409.740 92.066, 409.713 91.951, 411.500 92.479 C 412.621 92.810, 411.081 90.844, 408 88.006 C 404.975 85.221, 402.612 82.505, 402.750 81.971 C 402.887 81.437, 402.523 81, 401.941 81 C 401.359 81, 401.160 80.550, 401.500 80 C 401.840 79.450, 401.641 79, 401.059 79 C 400.477 79, 400 78.592, 400 78.094 C 400 77.595, 401.012 77.398, 402.250 77.656 L 404.500 78.125 402.219 76.761 C 400.964 76.010, 400.289 75.044, 400.719 74.615 C 401.148 74.185, 401.050 73.960, 400.500 74.115 C 399.950 74.270, 398.461 74.043, 397.191 73.612 C 395.040 72.881, 394.985 72.672, 396.378 70.546 C 397.710 68.512, 397.703 68.020, 396.306 66.026 C 395.444 64.796, 393.335 63.134, 391.619 62.334 C 386.129 59.775, 383.995 58.339, 384.673 57.661 C 385.036 57.297, 384.471 56.968, 383.417 56.930 C 381.585 56.863, 381.589 56.821, 383.500 56 C 385.190 55.274, 385.009 55.130, 382.332 55.070 C 377.486 54.963, 375.712 54.052, 377.097 52.383 C 377.994 51.302, 377.890 51, 376.622 51 C 375.730 51, 375.113 50.662, 375.250 50.250 C 375.552 49.344, 371.794 45.466, 369.875 44.704 C 369.119 44.404, 369.850 44.078, 371.500 43.981 C 374.199 43.821, 374.048 43.681, 370 42.587 C 367.179 41.824, 366.060 41.144, 367 40.764 C 368.162 40.294, 368.082 40.140, 366.643 40.079 C 365.469 40.029, 364.986 39.480, 365.329 38.585 C 365.735 37.527, 364.585 36.993, 360.769 36.468 C 356.757 35.916, 356.035 35.560, 357.394 34.800 C 358.344 34.268, 359.793 34.090, 360.613 34.405 C 361.433 34.720, 361.853 34.571, 361.546 34.074 C 361.239 33.577, 361.553 32.903, 362.244 32.576 C 362.935 32.249, 361.886 32.171, 359.914 32.401 C 357.942 32.632, 355.692 32.418, 354.914 31.926 C 353.837 31.244, 354.037 31.027, 355.750 31.015 C 357.760 31.002, 359.104 29.123, 357.250 28.917 C 356.138 28.793, 352.741 28.188, 350.779 27.763 C 348.629 27.298, 347.240 26, 348.892 26 C 349.566 26, 349.822 25.521, 349.460 24.935 C 349.098 24.349, 347.609 23.978, 346.151 24.109 C 343.742 24.327, 339.344 23.651, 334.750 22.358 C 333.788 22.087, 333 21.419, 333 20.874 C 333 20.328, 333.359 20.104, 333.798 20.375 C 334.237 20.646, 335.249 20.426, 336.048 19.886 C 337.099 19.174, 336.396 18.955, 333.500 19.091 C 327.663 19.366, 326.077 19.033, 328.500 18.040 C 329.841 17.491, 328.773 17.291, 325.261 17.433 C 322.379 17.550, 319.717 17.950, 319.344 18.322 C 318.972 18.695, 318.179 18.993, 317.583 18.985 C 316.987 18.976, 317.175 18.533, 318 18 C 319.521 17.017, 318.461 16.834, 310.775 16.756 C 309.276 16.741, 308.290 16.340, 308.584 15.864 C 308.878 15.389, 308.206 15, 307.090 15 C 305.576 15, 305.229 14.557, 305.719 13.250 C 306.293 11.718, 306.165 11.671, 304.687 12.872 C 303.107 14.158, 302.529 13.731, 302.938 11.581 C 303.034 11.075, 302.484 11.184, 301.714 11.822 C 300.945 12.460, 300.020 12.687, 299.658 12.325 C 299.296 11.963, 299 12.199, 299 12.849 C 299 14.401, 293.202 13.969, 292.589 12.372 C 292.282 11.570, 290.409 11.300, 287.014 11.566 C 283.830 11.816, 282.131 11.598, 282.508 10.987 C 282.900 10.353, 282.190 10.357, 280.500 11 C 278.763 11.660, 278.093 11.659, 278.502 10.997 C 278.841 10.449, 278.668 10, 278.118 10 C 277.568 10, 276.838 10.453, 276.495 11.008 C 276.109 11.632, 275.299 11.442, 274.365 10.508 C 272.613 8.756, 271.370 8.592, 270.500 10 M 344.813 26.683 C 345.534 26.972, 346.397 26.936, 346.729 26.604 C 347.061 26.272, 346.471 26.036, 345.417 26.079 C 344.252 26.127, 344.015 26.364, 344.813 26.683 M 391 67 C 391 67.550, 391.477 68, 392.059 68 C 392.641 68, 392.840 67.550, 392.500 67 C 392.160 66.450, 391.684 66, 391.441 66 C 391.198 66, 391 66.450, 391 67 M 423.813 147.683 C 424.534 147.972, 425.397 147.936, 425.729 147.604 C 426.061 147.272, 425.471 147.036, 424.417 147.079 C 423.252 147.127, 423.015 147.364, 423.813 147.683 M 425.500 192 C 425.840 192.550, 426.316 193, 426.559 193 C 426.802 193, 427 192.550, 427 192 C 427 191.450, 426.523 191, 425.941 191 C 425.359 191, 425.160 191.450, 425.500 192 M 422.143 230.890 C 421.309 231.419, 421.172 231.988, 421.788 232.369 C 422.340 232.710, 423.048 232.316, 423.364 231.494 C 424.026 229.767, 423.964 229.737, 422.143 230.890 M 417.226 241.574 C 418.176 242.568, 419.227 243.107, 419.562 242.771 C 419.897 242.436, 419.120 241.623, 417.836 240.964 C 415.603 239.819, 415.576 239.846, 417.226 241.574 M 427 249.601 C 427 250.680, 431.836 258, 432.549 258 C 432.811 258, 431.834 256.087, 430.378 253.750 C 427.202 248.651, 427 248.403, 427 249.601 M 422.379 264.379 C 422.506 265.239, 422.888 266.221, 423.229 266.563 C 423.571 266.904, 423.747 266.480, 423.621 265.621 C 423.494 264.761, 423.112 263.779, 422.771 263.437 C 422.429 263.096, 422.253 263.520, 422.379 264.379 M 429 265.378 C 429 265.585, 429.788 266.373, 430.750 267.128 C 432.336 268.371, 432.371 268.336, 431.128 266.750 C 429.821 265.084, 429 264.555, 429 265.378 M 432.500 278 C 432.840 278.550, 433.316 279, 433.559 279 C 433.802 279, 434 278.550, 434 278 C 434 277.450, 433.523 277, 432.941 277 C 432.359 277, 432.160 277.450, 432.500 278 M 450 291.882 C 450 292.432, 450.450 293.160, 451 293.500 C 451.550 293.840, 452 293.668, 452 293.118 C 452 292.568, 451.550 291.840, 451 291.500 C 450.450 291.160, 450 291.332, 450 291.882 M 213.682 319.082 C 214.459 319.859, 214.380 320.935, 213.406 322.889 C 212.658 324.387, 211.890 326.637, 211.699 327.889 C 211.508 329.140, 210.723 330.553, 209.955 331.028 C 209.187 331.503, 208.855 332.189, 209.219 332.552 C 209.582 332.916, 209.036 334.118, 208.005 335.225 C 206.489 336.852, 206.353 337.592, 207.294 339.099 C 208.393 340.859, 208.578 340.812, 210.692 338.230 C 211.922 336.729, 212.944 334.993, 212.964 334.372 C 212.984 333.752, 213.681 332.679, 214.514 331.988 C 215.640 331.054, 215.902 329.421, 215.537 325.616 C 215.202 322.126, 215.351 320.977, 216.007 322 C 216.570 322.877, 216.976 323.011, 216.985 322.321 C 217.001 321.089, 214.316 318, 213.229 318 C 212.883 318, 213.087 318.487, 213.682 319.082 M 303.564 332.707 C 303.022 334.132, 303.136 334.247, 304.124 333.267 C 304.808 332.588, 305.115 331.781, 304.807 331.474 C 304.499 331.166, 303.940 331.721, 303.564 332.707 M 289.079 335.583 C 289.127 336.748, 289.364 336.985, 289.683 336.188 C 289.972 335.466, 289.936 334.603, 289.604 334.271 C 289.272 333.939, 289.036 334.529, 289.079 335.583 M 191.018 364 C 185.323 375.529, 184 376.829, 184 370.892 C 184 363.831, 178.550 367.466, 172.871 378.314 C 170.514 382.816, 168.484 387.130, 168.360 387.900 C 168.235 388.670, 167.714 389.570, 167.201 389.900 C 166.689 390.230, 165.918 391.625, 165.489 393 C 165.059 394.375, 163.649 397.179, 162.354 399.230 C 161.059 401.282, 160 403.476, 160 404.107 C 160 404.738, 158.681 408.010, 157.070 411.377 C 152.686 420.536, 148.099 431.432, 148.470 431.804 C 148.651 431.984, 150.689 431.622, 153 431 C 155.311 430.378, 157.382 430.049, 157.603 430.270 C 157.824 430.490, 155.270 431.431, 151.927 432.361 C 148.128 433.417, 146.002 434.506, 146.255 435.266 C 146.478 435.935, 145.979 437.161, 145.145 437.991 C 143.793 439.337, 144.369 439.532, 150.472 439.799 C 157.124 440.090, 157.416 440, 160.938 436.560 C 162.969 434.578, 164.656 431.889, 164.775 430.445 C 164.893 429.028, 165.645 427.212, 166.448 426.410 C 167.250 425.607, 169.538 422.960, 171.531 420.527 C 173.744 417.826, 176.586 415.638, 178.828 414.909 C 183.736 413.312, 188.706 408.921, 193.208 402.204 C 196.950 396.620, 197.297 394.565, 194.304 395.714 C 193.272 396.110, 192.918 395.941, 193.342 395.255 C 193.711 394.659, 193.540 394.013, 192.963 393.821 C 192.383 393.628, 192.828 392.488, 193.956 391.277 C 196.694 388.339, 196.676 386.568, 193.924 388.041 C 192.103 389.015, 191.950 388.928, 192.678 387.326 C 193.135 386.322, 193.488 384.375, 193.464 383 C 193.440 381.625, 194.113 379.952, 194.960 379.282 C 195.807 378.612, 196.050 378.042, 195.500 378.016 C 194.950 377.991, 195.125 377.573, 195.890 377.089 C 197.060 376.348, 196.960 374.890, 195.260 367.855 L 193.241 359.500 191.018 364 M 407.500 372 C 407.840 372.550, 408.316 373, 408.559 373 C 408.802 373, 409 372.550, 409 372 C 409 371.450, 408.523 371, 407.941 371 C 407.359 371, 407.160 371.450, 407.500 372 M 367 373.559 C 367 374.416, 367.457 374.835, 368.016 374.490 C 368.575 374.144, 368.774 373.443, 368.457 372.931 C 367.600 371.544, 367 371.802, 367 373.559" fill="none" stroke="#000" stroke-width="2px" fill-rule="evenodd"/>
</svg>
