<svg xmlns="http://www.w3.org/2000/svg" width="228" height="262" viewBox="0 0 228 262" version="1.1">
	<path d="M 99.154 8.449 C 97.624 12.680, 96.013 13.085, 95.968 9.250 C 95.939 6.762, 95.811 6.665, 94.619 8.234 C 93.895 9.188, 93.009 9.676, 92.651 9.318 C 92.293 8.960, 91.984 9.754, 91.965 11.083 L 91.929 13.500 90.500 11 C 89.502 9.255, 89.060 8.996, 89.035 10.143 C 89.006 11.512, 86.137 13.662, 85.525 12.774 C 85.422 12.623, 84.544 11.375, 83.576 10 L 81.815 7.500 82.545 10 C 82.946 11.375, 83.514 13.175, 83.807 14 C 84.222 15.169, 83.899 15.114, 82.341 13.750 C 81.242 12.787, 80.055 12, 79.703 12 C 79.351 12, 79.361 12.787, 79.725 13.750 C 80.217 15.050, 79.438 14.780, 76.694 12.699 C 72.649 9.632, 72.174 9.810, 74.585 13.490 C 76.170 15.908, 76.169 15.909, 73.085 15.024 C 70.587 14.308, 70 14.434, 70 15.686 C 70 16.806, 69.294 17.098, 67.442 16.744 C 65.550 16.382, 65.022 16.615, 65.415 17.640 C 65.822 18.699, 65.307 18.869, 63.223 18.363 C 60.531 17.708, 60.521 17.724, 62.342 19.781 C 64.152 21.824, 64.143 21.852, 61.842 21.345 L 59.500 20.830 62 22.893 C 63.375 24.027, 63.911 24.966, 63.191 24.978 C 62.471 24.990, 62.140 25.418, 62.456 25.928 C 62.771 26.438, 62.048 27.167, 60.848 27.548 L 58.667 28.240 61.084 30.207 C 62.413 31.289, 63.039 31.946, 62.475 31.667 C 61.912 31.388, 59.887 31.533, 57.975 31.988 C 54.781 32.749, 54.685 32.874, 56.791 33.535 L 59.082 34.255 56.974 35.731 C 55.814 36.543, 55.107 37.836, 55.401 38.604 C 55.710 39.408, 55.315 40, 54.469 40 C 52.412 40, 52.630 42.917, 54.750 43.754 C 56.123 44.296, 55.854 44.560, 53.500 44.979 C 51.359 45.360, 50.409 46.155, 50.180 47.756 C 50.005 48.990, 49.330 50.007, 48.680 50.015 C 47.930 50.025, 48.009 50.353, 48.896 50.914 C 50.821 52.133, 49.512 55, 47.031 55 C 44.844 55, 44.241 56.580, 46.182 57.227 C 47.630 57.710, 48.195 66, 46.779 66 C 46.222 66, 45.991 67.174, 46.266 68.609 C 46.750 71.143, 46.651 71.200, 42.809 70.585 C 39.813 70.106, 39.038 70.252, 39.614 71.184 C 40.516 72.644, 41.080 77, 40.366 77 C 40.092 77, 38.998 76.534, 37.934 75.965 C 36.428 75.159, 36 75.256, 36 76.406 C 36 77.218, 36.450 78.160, 37 78.500 C 37.550 78.840, 38 80.040, 38 81.167 C 38 82.848, 37.555 83.105, 35.527 82.596 C 33.499 82.087, 33.169 82.277, 33.697 83.652 C 34.101 84.705, 33.944 85.084, 33.275 84.670 C 32.689 84.308, 31.932 84.735, 31.593 85.618 C 31.094 86.919, 30.693 86.990, 29.488 85.990 C 28.544 85.207, 28 85.144, 28 85.819 C 28 86.403, 28.450 87.160, 29 87.500 C 29.550 87.840, 30 88.568, 30 89.118 C 30 89.668, 29.502 89.810, 28.893 89.434 C 28.159 88.980, 27.999 89.421, 28.418 90.741 C 28.962 92.456, 28.684 92.662, 26.416 92.229 C 24.014 91.769, 23.880 91.907, 24.891 93.797 C 26.349 96.520, 26.304 97.704, 24.800 96.200 C 23.349 94.749, 21.635 94.600, 22.500 96 C 22.840 96.550, 22.631 97, 22.036 97 C 21.430 97, 21.734 98.192, 22.727 99.711 C 23.702 101.203, 23.938 102.076, 23.250 101.652 C 21.636 100.657, 21.636 102.177, 23.250 104.050 C 24.299 105.267, 24.267 105.299, 23.050 104.250 C 21.220 102.673, 19.648 102.621, 20.605 104.170 C 21.091 104.957, 20.783 105.131, 19.664 104.701 C 18.749 104.350, 18 104.485, 18 105 C 18 105.515, 17.432 105.719, 16.739 105.453 C 15.815 105.099, 15.490 106.427, 15.525 110.406 C 15.569 115.323, 15.403 115.751, 13.787 114.886 C 11.728 113.784, 11.413 114.979, 13.250 116.922 C 14.283 118.015, 14.098 118.038, 12.191 117.056 C 10.341 116.103, 9.917 116.128, 10.059 117.183 C 10.448 120.067, 9.954 120.921, 8.250 120.308 C 6.944 119.839, 7.128 120.369, 8.976 122.395 C 10.760 124.351, 10.970 124.926, 9.726 124.449 C 7.897 123.747, 7.295 125.446, 9 126.500 C 10.587 127.481, 10.162 129, 8.300 129 C 7.044 129, 6.893 129.293, 7.722 130.122 C 8.928 131.328, 8.319 134.039, 6.573 135.235 C 5.932 135.673, 6.229 135.976, 7.309 135.985 C 8.511 135.995, 8.852 136.419, 8.324 137.250 C 7.211 139.004, 7.260 140.377, 8.467 141.235 C 9.058 141.655, 8.699 141.976, 7.628 141.985 C 6.077 141.997, 5.969 142.258, 7 143.500 C 7.737 144.388, 7.825 145, 7.216 145 C 6.650 145, 6.423 145.900, 6.710 147 C 6.998 148.100, 7.578 149, 8 149 C 9.289 149, 9.864 152.875, 8.644 153.339 C 8.015 153.578, 8.941 154.405, 10.702 155.176 C 13.795 156.531, 13.834 156.622, 11.858 157.857 C 9.974 159.033, 9.938 159.274, 11.406 160.896 C 12.283 161.865, 13 163.410, 13 164.329 C 13 165.434, 13.827 166, 15.441 166 C 16.784 166, 18.160 166.450, 18.500 167 C 18.840 167.550, 18.593 168, 17.952 168 C 17.311 168, 17.045 168.675, 17.362 169.500 C 17.678 170.325, 17.423 171, 16.794 171 C 16.166 171, 16.687 172.102, 17.952 173.449 C 19.615 175.219, 20.107 176.660, 19.727 178.650 C 19.363 180.550, 19.943 182.494, 21.600 184.933 C 22.920 186.875, 24 189.458, 24 190.673 C 24 191.888, 24.481 193.179, 25.068 193.542 C 25.656 193.905, 25.911 194.790, 25.636 195.507 C 25.360 196.225, 26.019 197.612, 27.099 198.590 C 28.180 199.567, 28.937 201.136, 28.782 202.076 C 28.627 203.016, 29.357 204.733, 30.405 205.892 C 31.453 207.051, 31.954 208, 31.519 208 C 29.718 208, 35.809 212.914, 38.423 213.570 C 39.984 213.962, 41.480 215.119, 41.747 216.141 C 42.015 217.164, 43.081 218, 44.117 218 C 45.152 218, 46 218.392, 46 218.872 C 46 219.352, 47.762 220.026, 49.916 220.371 C 52.070 220.715, 54.013 221.538, 54.233 222.199 C 54.454 222.861, 55.954 223.424, 57.567 223.451 C 59.484 223.483, 60.501 224.019, 60.503 225 C 60.504 225.825, 61.179 226.548, 62.003 226.608 C 66.228 226.911, 72.273 228.410, 73.317 229.413 C 73.968 230.038, 75.400 230.527, 76.500 230.499 C 77.600 230.472, 79.400 230.889, 80.500 231.427 C 83.309 232.799, 84.904 232.965, 85.531 231.949 C 85.839 231.452, 87.060 231.453, 88.369 231.950 C 89.633 232.431, 91.224 232.479, 91.906 232.058 C 93.221 231.246, 101.895 231.443, 105.874 232.376 C 107.180 232.683, 109.379 233.674, 110.760 234.579 C 112.142 235.484, 114.673 236.370, 116.386 236.547 C 118.099 236.725, 122.650 237.340, 126.500 237.915 C 130.350 238.490, 133.838 238.969, 134.250 238.980 C 134.662 238.991, 135 239.683, 135 240.519 C 135 243.570, 140.017 256.293, 141.734 257.596 C 142.705 258.333, 143.725 258.951, 144 258.968 C 144.753 259.017, 144.428 248.827, 143.593 246.250 C 142.242 242.074, 144.775 243.935, 146.651 248.496 C 147.668 250.969, 149.040 252.994, 149.700 252.996 C 150.360 252.998, 151.399 253.787, 152.008 254.750 C 152.831 256.049, 153.255 256.167, 153.655 255.208 C 154.074 254.205, 154.514 254.181, 155.621 255.101 C 158.475 257.469, 158.239 254.881, 155.024 248.548 C 153.217 244.986, 150.897 241.311, 149.869 240.381 C 147.950 238.645, 147.411 237, 148.760 237 C 149.178 237, 150.740 238.131, 152.231 239.514 C 155.200 242.267, 159.447 244.220, 160.397 243.269 C 161.372 242.295, 161.088 238.172, 160 237.500 C 158.214 236.396, 158.944 235.173, 161.059 235.726 C 162.551 236.116, 163.265 235.704, 163.651 234.228 C 164.025 232.797, 165.568 231.846, 168.842 231.030 C 178.369 228.656, 180.431 225.078, 174.750 220.777 C 170.027 217.202, 166.955 216.729, 162.667 218.915 C 160.650 219.943, 159 220.483, 159 220.115 C 159 219.268, 161.878 215.100, 164.215 212.561 C 165.197 211.495, 166 210.015, 166 209.272 C 166 208.528, 166.900 206.156, 168 204 C 169.100 201.844, 170 199.162, 170 198.040 C 170 196.918, 170.451 196, 171.003 196 C 171.555 196, 172.786 194.200, 173.739 192 C 174.692 189.800, 175.816 188, 176.236 188 C 176.656 188, 177 186.350, 177 184.333 C 177 182.317, 177.279 180.945, 177.619 181.286 C 178.306 181.973, 180.999 179.614, 181.002 178.321 C 181.004 177.870, 182.341 177.453, 183.975 177.395 C 185.806 177.330, 187.684 176.377, 188.872 174.910 L 190.799 172.530 192.866 175.015 C 194.003 176.382, 194.948 177.740, 194.967 178.034 C 195.045 179.295, 201.160 182.057, 204.676 182.419 C 206.779 182.636, 209.287 183.128, 210.250 183.513 C 211.746 184.112, 212 183.619, 212 180.107 C 212 176.475, 212.269 176, 214.326 176 C 216.740 176, 220.101 172.964, 221.523 169.500 C 223.428 164.856, 222.127 158, 219.339 158 C 218.603 158, 218 157.116, 218 156.035 C 218 154.209, 214.121 151.141, 213 152.081 C 212.725 152.311, 212.356 151.488, 212.180 150.250 C 211.932 148.501, 211.208 148, 208.930 148 C 207.215 148, 206 147.469, 206 146.719 C 206 145.296, 209.964 143.432, 217.475 141.323 C 226.856 138.689, 227.598 136.873, 224.562 124 C 223.719 120.425, 223.023 113.752, 223.015 109.172 L 223 100.843 216.270 93.353 L 209.539 85.862 209.852 79.096 C 210.207 71.414, 208.413 65.826, 205.007 64.003 C 201.672 62.219, 200.223 63.425, 198.473 69.444 C 196.426 76.485, 194.295 78, 186.436 78 L 180.317 78 179.068 73.833 C 178.381 71.541, 176.454 68.300, 174.785 66.631 L 171.750 63.596 168.937 66.745 C 165.941 70.097, 164.015 75.516, 164.006 80.615 C 163.998 84.666, 160.868 88.559, 156.443 90.019 C 151.702 91.583, 149.509 90.758, 151.202 88.048 C 152.192 86.463, 152.195 85.795, 151.215 84.815 C 150.236 83.836, 150.448 83.321, 152.240 82.326 C 153.997 81.350, 154.121 81.063, 152.798 81.035 C 151.381 81.006, 151.511 80.552, 153.574 78.325 C 155.113 76.666, 155.652 75.403, 154.997 74.998 C 154.316 74.577, 154.622 73.479, 155.859 71.907 C 156.942 70.530, 157.622 68.388, 157.423 66.984 C 156.724 62.083, 155.806 57.493, 155.449 57.126 C 155.249 56.921, 155.966 55.026, 157.043 52.916 C 159.501 48.098, 159.614 46.248, 157.336 48.128 C 155.832 49.368, 155.784 49.290, 156.836 47.316 C 158.669 43.875, 158.347 42.744, 155.905 44.051 C 154.044 45.047, 153.883 44.944, 154.458 43.133 C 154.986 41.469, 154.727 41.167, 153.047 41.491 C 151.259 41.835, 151.132 41.622, 152.074 39.862 C 152.943 38.239, 152.794 37.560, 151.329 36.450 C 150.323 35.687, 149.870 35.049, 150.321 35.032 C 150.773 35.014, 150.436 34.293, 149.571 33.429 C 148.707 32.564, 148 30.764, 148 29.429 C 148 26.741, 147.056 26.353, 145.133 28.250 C 144.117 29.252, 143.588 29.103, 142.467 27.500 C 141.698 26.400, 140.681 25.040, 140.208 24.479 C 139.735 23.917, 139.553 21.667, 139.802 19.479 C 140.252 15.536, 140.238 15.517, 138.219 17.323 C 136.240 19.094, 136.162 19.086, 135.523 17.071 C 135.012 15.461, 134.319 15.133, 132.432 15.606 C 131.094 15.942, 130 15.795, 130 15.278 C 130 14.762, 128.375 14.394, 126.388 14.460 C 124.231 14.531, 122.573 14.050, 122.271 13.264 C 121.559 11.408, 119 13.644, 119 16.122 C 119 17.155, 118.598 18, 118.107 18 C 116.641 18, 115.925 14.969, 116.481 11.116 C 116.768 9.127, 116.721 8.119, 116.377 8.875 C 116.032 9.631, 114.896 11.104, 113.851 12.149 C 111.987 14.013, 111.938 14.007, 111.118 11.790 L 110.283 9.533 109.423 12.016 C 108.622 14.327, 108.525 14.226, 108.031 10.562 C 107.532 6.859, 107.399 6.726, 105.807 8.326 C 104.214 9.928, 104.055 9.925, 103.088 8.264 C 102.523 7.294, 102.016 6.950, 101.960 7.500 C 101.905 8.050, 101.540 7.690, 101.149 6.699 C 100.568 5.228, 100.203 5.549, 99.154 8.449" fill="none" stroke="#000" stroke-width="2px" fill-rule="evenodd"/>
</svg>
