<svg xmlns="http://www.w3.org/2000/svg" width="281" height="211" viewBox="0 0 281 211" version="1.1">
	<path d="M 80.553 4.337 C 76.211 6.607, 73 7.191, 73 5.710 C 73 5.185, 72.369 5.279, 71.597 5.919 C 70.520 6.813, 70.070 6.784, 69.658 5.792 C 69.287 4.899, 68.396 5.349, 66.773 7.250 C 63.922 10.589, 63.001 10.711, 62.996 7.750 C 62.993 5.728, 62.798 5.819, 61.071 8.651 C 60.014 10.385, 58.384 12.696, 57.449 13.788 C 55.778 15.740, 55.678 15.699, 51.546 11.387 C 45.786 5.375, 43.585 5.547, 40.464 12.250 C 39.119 15.137, 38.015 18.302, 38.010 19.282 C 37.995 21.938, 34.543 22.731, 27.247 21.754 C 22.187 21.076, 19.371 19.983, 14.716 16.890 C 11.413 14.697, 7.843 11.799, 6.783 10.451 C 5.722 9.103, 4.202 8, 3.403 8 C 2.215 8, 2.057 9.313, 2.534 15.250 C 2.853 19.238, 3.118 23.279, 3.121 24.230 C 3.125 25.182, 3.556 26.226, 4.080 26.549 C 4.604 26.873, 4.774 27.557, 4.457 28.069 C 4.141 28.581, 4.359 29, 4.941 29 C 6.304 29, 6.328 31.724, 4.969 32.177 C 4.263 32.412, 4.271 33.480, 4.994 35.553 C 6.047 38.574, 5.979 40.101, 4.566 45.175 C 4.035 47.083, 4.875 51.170, 7.493 59.411 C 11.737 72.772, 11.760 72.460, 5.389 88.662 C 2.975 94.801, 1 100.206, 1 100.672 C 1 103.472, 15.649 108.139, 20.429 106.861 C 23.067 106.155, 27.371 102.447, 37.993 91.730 C 41.483 88.209, 42.051 87.988, 46.615 88.382 C 49.302 88.614, 51.950 88.922, 52.500 89.066 C 53.798 89.406, 59.017 88.140, 61.217 86.952 C 62.196 86.423, 63.915 86.387, 65.217 86.869 C 66.473 87.333, 67.970 87.546, 68.544 87.342 C 69.118 87.138, 70.549 88.951, 71.725 91.370 C 73.215 94.439, 75.017 96.334, 77.681 97.635 C 80.145 98.838, 81.613 100.298, 81.820 101.750 C 81.995 102.988, 82.540 104, 83.031 104 C 83.522 104, 84.421 105.849, 85.029 108.109 C 86.452 113.391, 84.400 127.245, 78.898 149.500 C 76.723 158.300, 74.297 168.573, 73.509 172.328 C 71.993 179.547, 67.989 189.250, 65.298 192.223 C 64.414 193.200, 62.661 194, 61.404 194 C 60.147 194, 58.840 194.450, 58.500 195 C 58.160 195.550, 57.186 196, 56.335 196 C 53.977 196, 47.298 201.697, 45.552 205.197 C 44.698 206.907, 44 208.384, 44 208.479 C 44 208.573, 45.463 208.726, 47.250 208.819 C 49.038 208.912, 53.650 209.235, 57.500 209.539 C 63.846 210.038, 65.013 209.821, 69.996 207.215 C 74.688 204.761, 75.575 203.840, 76.057 200.920 C 76.930 195.633, 83.191 184.892, 85 185.577 C 85.825 185.889, 89.500 186.399, 93.167 186.710 C 99.025 187.208, 100.174 187.009, 102.639 185.069 C 107.078 181.578, 109.913 173.795, 109.960 164.972 C 109.993 158.829, 110.352 157.143, 111.912 155.807 C 113.699 154.277, 113.728 153.888, 112.345 149.874 C 111.089 146.230, 111.032 143.145, 111.966 129.539 C 114.352 94.795, 114.226 95.943, 115.523 97.019 C 116.196 97.578, 117.366 97.811, 118.123 97.539 C 121.066 96.479, 130.941 96.341, 131.946 97.346 C 132.685 98.085, 133 98.050, 133 97.229 C 133 95.538, 139.105 94.092, 141.371 95.246 C 142.681 95.914, 143.038 95.870, 142.562 95.100 C 142.183 94.487, 142.546 94, 143.382 94 C 144.207 94, 145.160 94.450, 145.500 95 C 146.413 96.478, 147.667 96.214, 147.667 94.544 C 147.667 93.743, 147.222 93.363, 146.679 93.698 C 146.107 94.052, 146.009 93.795, 146.447 93.086 C 146.867 92.406, 147.933 92.165, 148.851 92.544 C 149.758 92.917, 151.705 93.291, 153.178 93.373 C 154.650 93.455, 156.157 93.823, 156.525 94.192 C 157.773 95.440, 159.887 93.870, 159.250 92.167 C 158.730 90.778, 158.880 90.707, 160.155 91.741 C 160.996 92.424, 161.914 92.753, 162.195 92.472 C 162.476 92.191, 165.134 91.715, 168.103 91.414 C 171.071 91.114, 175.186 90.430, 177.246 89.896 C 180.833 88.966, 185 85.639, 185 83.704 C 185 83.199, 185.646 83.034, 186.435 83.337 C 187.359 83.691, 188.222 82.927, 188.856 81.194 C 189.643 79.043, 189.859 78.903, 189.926 80.500 C 190.001 82.285, 190.252 82.199, 192.255 79.703 C 193.490 78.165, 195.485 76.834, 196.688 76.745 C 197.927 76.654, 199.148 75.699, 199.505 74.542 C 199.903 73.252, 200.325 72.961, 200.651 73.750 C 201.468 75.731, 203 75.203, 203 72.941 C 203 71.809, 203.454 71.162, 204.008 71.505 C 204.563 71.848, 205.435 71.087, 205.945 69.814 L 206.873 67.500 206.968 70 C 207.060 72.416, 207.113 72.435, 208.532 70.559 C 209.967 68.661, 210 68.666, 210 70.798 C 210 71.997, 210.871 75.272, 211.936 78.074 C 213.219 81.452, 213.598 83.900, 213.060 85.335 C 212.491 86.849, 212.920 88.854, 214.485 92 C 215.716 94.475, 217.533 98.975, 218.522 102 C 220.030 106.613, 222.890 111.907, 225.005 114 C 225.283 114.275, 228.208 118.029, 231.505 122.342 C 243.540 138.084, 247.628 147.967, 246.698 159.065 C 245.743 170.449, 239.439 182, 234.180 182 C 232.269 182, 225 188.123, 225 189.733 C 225 191.718, 232.653 194.166, 238.096 193.922 C 244.415 193.639, 248.600 191.836, 249.497 189.011 C 249.848 187.905, 250.554 187, 251.067 187 C 251.580 187, 252.003 185.988, 252.006 184.750 C 252.009 183.512, 252.480 180.813, 253.053 178.750 C 254.080 175.049, 254.160 175, 259.146 175 C 261.924 175, 265.705 174.285, 267.546 173.411 C 270.423 172.046, 271.041 171.094, 271.927 166.661 C 273.473 158.930, 275.279 147.700, 275.249 146 C 274.858 123.511, 275.058 124.827, 271.552 121.547 C 268.060 118.280, 266.491 114.392, 268.356 113.627 C 269.144 113.304, 269.111 113.133, 268.250 113.079 C 267.563 113.036, 267 112.298, 267 111.441 C 267 110.556, 267.478 110.178, 268.107 110.566 C 268.861 111.032, 268.987 110.533, 268.500 109 C 267.948 107.260, 268.094 106.935, 269.143 107.567 C 270.285 108.255, 270.285 108.119, 269.145 106.713 C 268.120 105.449, 268.040 104.323, 268.819 102.089 C 269.385 100.465, 269.605 98.206, 269.308 97.068 C 268.920 95.585, 269.241 95, 270.442 95 C 271.364 95, 271.900 94.648, 271.634 94.217 C 270.842 92.935, 273.075 84, 274.188 84 C 274.752 84, 274.966 83.354, 274.663 82.565 C 274.360 81.775, 274.545 80.985, 275.074 80.809 C 275.604 80.632, 276.316 78.128, 276.658 75.244 C 276.999 72.360, 277.715 70, 278.249 70 C 279.314 70, 278.393 50.725, 276.954 42.899 C 275.863 36.964, 271.642 30.238, 266.299 25.921 C 259.859 20.717, 245.570 13.263, 235.513 9.861 C 224.386 6.097, 219.551 5.980, 183 8.587 C 168.425 9.626, 154.025 10.430, 151 10.372 C 112.560 9.642, 104.249 9.292, 102.500 8.333 C 101.400 7.730, 99.034 6.922, 97.241 6.537 C 95.449 6.152, 94.194 5.495, 94.453 5.076 C 94.711 4.658, 92.854 4.284, 90.325 4.246 C 87.796 4.208, 85.451 3.749, 85.114 3.226 C 84.758 2.674, 82.842 3.141, 80.553 4.337 M 262.190 143.524 C 262.478 143.811, 261.882 147.524, 260.865 151.774 C 258.612 161.187, 258.557 163, 260.525 163 C 262.459 163, 263.779 159.554, 264.007 153.909 C 264.330 145.921, 264.016 143, 262.833 143 C 262.192 143, 261.902 143.236, 262.190 143.524 M 94.423 152.664 C 93.370 155.324, 92.461 157.950, 92.403 158.500 C 92.346 159.050, 91.553 161.181, 90.642 163.235 C 89.731 165.290, 88.764 168.735, 88.493 170.890 L 88 174.810 92.250 174.288 C 94.588 174.001, 97.063 173.057, 97.750 172.192 C 99.449 170.052, 99.360 153.277, 97.633 150.164 C 96.365 147.877, 96.297 147.930, 94.423 152.664" fill="none" stroke="#000" stroke-width="2px" fill-rule="evenodd"/>
</svg>
