<svg xmlns="http://www.w3.org/2000/svg" width="500" height="460" viewBox="0 0 500 460" version="1.1">
	<path d="M 150 5.010 C 137.117 7.440, 134.966 8.238, 132.811 11.389 C 131.640 13.100, 129.477 15.850, 128.003 17.500 C 125.294 20.532, 119.248 30.674, 112.501 43.500 C 110.476 47.350, 107.472 52.975, 105.826 56 C 102.557 62.009, 98.430 72.151, 96.625 78.610 C 95.993 80.871, 94.967 83.346, 94.343 84.110 C 93.720 84.875, 91.802 90.675, 90.081 97 C 88.360 103.325, 86.568 109.400, 86.100 110.500 C 85.632 111.600, 83.957 116.550, 82.379 121.500 C 80.800 126.450, 79.057 130.864, 78.504 131.309 C 77.291 132.286, 62.685 131.386, 56.213 129.936 C 44.104 127.222, 31.241 117.873, 28.909 110.092 C 26.651 102.554, 28.356 96.586, 38.490 76.546 C 48.878 56.004, 52.463 47.568, 53.486 41.252 C 54.427 35.449, 52.112 34.509, 48.269 39.133 C 46.746 40.966, 41.450 47.130, 36.500 52.830 C 2.951 91.466, -3.207 105.913, 6.038 124.294 C 10.523 133.211, 18.434 140.820, 29.029 146.406 C 33.895 148.972, 40.154 151.748, 42.938 152.574 C 47.649 153.973, 49.809 156, 46.589 156 C 44.512 156, 40 161.790, 40 164.455 C 40 167.260, 42.652 173.884, 44.698 176.187 C 45.522 177.115, 45.929 178.305, 45.604 178.832 C 45.278 179.359, 45.684 180.048, 46.506 180.364 C 47.328 180.679, 48 181.428, 48 182.027 C 48 183.575, 54.117 190.995, 55.417 191.025 C 57.618 191.075, 66.094 198.157, 69.391 202.700 L 72.794 207.388 72.269 219.444 C 71.980 226.096, 71.130 233.011, 70.372 234.872 C 69.618 236.727, 69 239.506, 69 241.048 C 69 242.589, 67.200 251.288, 65 260.378 C 62.800 269.468, 61 277.821, 61 278.942 C 61 280.062, 60.101 283.346, 59.001 286.238 C 57.902 289.131, 56.759 293.749, 56.461 296.499 C 56.164 299.250, 55.195 305.649, 54.309 310.720 C 52.803 319.333, 52.814 320.650, 54.464 330.720 C 56.680 344.241, 58.794 348.916, 63.767 351.294 C 65.831 352.281, 68.559 353.166, 69.828 353.262 C 71.429 353.383, 72.294 354.212, 72.649 355.968 C 73.502 360.193, 76.525 363.157, 79.277 362.467 C 81.151 361.996, 82.824 362.842, 86.907 366.328 C 91.720 370.436, 92.469 370.748, 96.318 370.246 C 98.618 369.946, 100.792 369.252, 101.149 368.704 C 103.067 365.762, 108.420 373.617, 109.869 381.500 C 110.927 387.251, 110.288 396.532, 108.526 401 C 107.551 403.475, 106.535 407.525, 106.270 410 C 105.904 413.411, 104.741 415.777, 101.467 419.775 C 99.092 422.676, 96.861 426.501, 96.511 428.275 C 95.347 434.176, 93.879 436.762, 89.865 439.988 C 87.062 442.241, 85.976 443.824, 86.193 445.343 C 86.467 447.268, 87.335 447.576, 94.248 448.203 C 98.510 448.589, 103.685 449.374, 105.748 449.947 C 114.440 452.361, 131.842 450.306, 135.007 446.491 C 135.693 445.665, 136.310 443.052, 136.377 440.685 C 136.465 437.593, 137.257 435.482, 139.189 433.186 C 142.015 429.829, 143.609 423.091, 142.724 418.250 C 142.447 416.738, 141.225 412.125, 140.007 408 C 137.144 398.298, 137.570 383.724, 140.909 377.179 C 142.072 374.899, 143.644 370.074, 144.402 366.457 C 145.921 359.210, 148.186 356.494, 151.314 358.168 C 152.327 358.710, 153.909 358.821, 154.828 358.413 C 155.748 358.006, 156.950 357.634, 157.500 357.586 C 158.050 357.539, 158.747 355.025, 159.049 352 L 159.599 346.500 161.378 350.407 C 162.944 353.845, 163.089 356.361, 162.583 371.376 C 162.267 380.760, 161.756 390.027, 161.447 391.969 C 161.065 394.371, 161.183 395.020, 161.818 394 C 162.331 393.175, 163.054 390.250, 163.425 387.500 C 165.523 371.924, 168 365.730, 168 376.059 C 168 379.177, 168.384 380.881, 169 380.500 C 169.559 380.154, 170 380.926, 170 382.250 C 170 383.552, 170.621 385.467, 171.379 386.504 C 172.623 388.205, 172.829 387.782, 173.477 382.195 C 173.873 378.788, 174.541 376, 174.962 376 C 176.244 376, 176.974 384.412, 176.455 393.193 C 176.122 398.832, 176.269 400.858, 176.912 399.500 C 177.674 397.892, 177.873 398.366, 177.930 401.917 C 178.024 407.830, 178.882 406.619, 181.587 396.755 L 183.851 388.500 183.926 397.750 C 183.969 403.136, 184.413 407, 184.990 407 C 185.534 407, 187.623 404.525, 189.631 401.500 C 191.640 398.475, 193.402 396, 193.548 396 C 193.694 396, 193.577 396.900, 193.290 398 C 192.644 400.468, 194.630 400.645, 197.171 398.345 C 198.882 396.797, 199.001 396.813, 199.022 398.595 C 199.042 400.278, 199.265 400.213, 200.935 398.039 L 202.826 395.579 203.163 398.531 C 203.606 402.409, 205.977 402.751, 209.311 399.416 L 211.973 396.754 212.833 399.076 C 214.550 403.718, 208.206 426.856, 201.783 439.382 C 199.726 443.393, 198.101 449.101, 198.627 450.469 C 199.601 453.010, 205.171 453.961, 220.658 454.234 C 239.415 454.563, 239.854 454.338, 244.705 441.924 C 247.516 434.730, 247.995 432.259, 247.983 425 C 247.975 420.325, 247.337 413.812, 246.564 410.528 C 245.260 404.983, 245.311 404.071, 247.277 397.778 C 248.441 394.050, 249.755 391, 250.197 391 C 250.639 391, 251.044 392.913, 251.098 395.250 L 251.196 399.500 252.500 395 L 253.804 390.500 253.999 394 L 254.194 397.500 255.733 393.750 C 257.451 389.561, 258.940 388.822, 258.755 392.250 C 258.688 393.488, 258.736 395.850, 258.862 397.500 L 259.090 400.500 261.550 396 L 264.009 391.500 263.443 395.500 C 262.933 399.100, 263.020 399.322, 264.320 397.721 C 265.664 396.064, 265.808 396.058, 266.415 397.638 C 267.099 399.421, 268.448 398.648, 269.274 396 C 269.531 395.175, 269.555 395.850, 269.328 397.500 C 267.918 407.707, 267.739 413.279, 268.841 412.598 C 269.478 412.204, 270 411.167, 270 410.294 C 270 407.674, 274.357 396.553, 274.784 398.084 C 275.726 401.459, 278.171 406, 279.047 406 C 279.571 406, 280.007 404.988, 280.015 403.750 C 280.024 402.512, 280.411 400.899, 280.877 400.165 C 281.976 398.431, 282.930 401.815, 283.086 408 C 283.148 410.475, 283.519 413.625, 283.910 415 C 284.596 417.413, 284.644 417.383, 285.310 414.125 C 285.690 412.269, 286.029 408.444, 286.063 405.625 C 286.119 401.110, 286.251 400.798, 287.168 403 C 287.970 404.923, 288.359 405.154, 288.855 404 C 289.210 403.175, 290.478 402.365, 291.674 402.200 C 293.269 401.980, 293.965 402.512, 294.288 404.200 C 294.534 405.489, 294.818 404.521, 294.934 402 C 295.048 399.525, 295.527 396.600, 296 395.500 C 296.684 393.909, 296.888 394.318, 297 397.500 C 297.077 399.700, 297.527 402.400, 298 403.500 C 298.740 405.223, 298.871 405.084, 298.941 402.500 C 299.077 397.480, 300.210 392.012, 301.012 392.508 C 301.429 392.765, 302.059 394.893, 302.414 397.238 C 302.768 399.582, 303.488 402.175, 304.014 403 C 304.912 404.409, 305.379 401.524, 305.349 394.750 C 305.336 391.913, 306.786 392.749, 307.497 395.989 C 308.264 399.479, 309.877 400.817, 311.043 398.930 C 311.632 397.978, 312.053 398.365, 312.540 400.302 C 312.912 401.786, 313.570 403, 314.001 403 C 314.973 403, 316 400.443, 316 398.025 C 316 396.190, 318.305 394.639, 319.402 395.736 C 319.731 396.064, 320.007 397.046, 320.015 397.917 C 320.024 398.788, 320.456 400.173, 320.976 400.995 C 321.787 402.278, 322.135 402.207, 323.429 400.495 C 324.258 399.398, 324.965 397.600, 325 396.500 C 325.062 394.561, 325.106 394.557, 326.480 396.370 C 327.817 398.136, 327.976 398.052, 329.325 394.870 L 330.754 391.500 331.877 394.315 C 332.495 395.863, 333 397.945, 333 398.940 C 333 402.900, 334.306 406.903, 335.782 407.470 C 338.021 408.329, 338.967 406.230, 338.985 400.364 C 339 395.330, 341.062 389.395, 342.348 390.682 C 342.707 391.040, 343.007 394.071, 343.015 397.417 C 343.033 404.485, 344.345 407.748, 345.430 403.424 C 345.812 401.903, 346.996 399.549, 348.062 398.194 L 350 395.730 350 398.532 C 350 403.036, 351.379 400.407, 353.037 392.742 L 354.574 385.637 356.162 388.916 L 357.750 392.195 359.331 389.938 C 360.654 388.049, 361.163 387.890, 362.456 388.963 C 363.305 389.668, 364.029 389.852, 364.063 389.372 C 364.098 388.893, 364.534 389.512, 365.031 390.750 C 365.529 391.988, 366.332 393, 366.816 393 C 367.611 393, 369.971 388.224, 371.377 383.767 C 371.713 382.704, 372.519 382.262, 373.462 382.624 C 374.308 382.948, 375 382.716, 375 382.107 C 375 379.968, 376.790 381.028, 377.421 383.541 C 377.846 385.234, 378.466 385.818, 379.279 385.291 C 379.951 384.856, 381.400 384.500, 382.500 384.500 C 384.183 384.500, 384.730 383.351, 385.948 377.250 C 386.744 373.263, 387.713 370, 388.100 370 C 388.487 370, 389.280 371.365, 389.862 373.034 C 390.818 375.775, 391.116 375.945, 392.960 374.793 C 394.082 374.092, 395 372.701, 395 371.700 C 395 370.700, 395.450 370.160, 396 370.500 C 396.550 370.840, 397 370.159, 397 368.988 C 397 366.524, 399.496 363.700, 402.013 363.316 C 403.269 363.124, 404.484 364.686, 406.403 368.964 C 408.832 374.376, 409.002 375.582, 408.410 383.189 C 407.552 394.210, 406.111 400.259, 401.102 413.856 C 396.340 426.783, 391.377 437.046, 386.367 444.329 C 384.471 447.086, 383.050 450.020, 383.210 450.849 C 383.679 453.284, 388.839 454.158, 399.213 453.557 C 413.422 452.735, 418.381 451.421, 423.382 447.157 C 425.742 445.146, 429.781 442.039, 432.359 440.254 C 437.987 436.357, 439.289 433.552, 437.770 428.601 C 436.528 424.554, 437.207 423.097, 439.463 424.969 C 440.294 425.659, 441.625 425.974, 442.421 425.669 C 444.193 424.989, 443.717 418.161, 440.900 403.843 C 439.855 398.532, 439 391.828, 439 388.946 C 439 382.689, 442.551 372.311, 445.171 370.908 C 447.951 369.421, 449.212 370.741, 448.453 374.345 C 448.030 376.358, 448.134 377.138, 448.743 376.500 C 449.267 375.950, 450.239 372.125, 450.904 368 C 452.776 356.381, 453.101 355, 453.963 355 C 454.405 355, 455.119 356.012, 455.550 357.250 C 456.183 359.068, 456.397 358.636, 456.664 355 C 457.304 346.296, 458.138 341.967, 459.064 342.540 C 459.579 342.858, 460.019 344.554, 460.042 346.309 C 460.066 348.064, 460.729 351.975, 461.517 355 C 462.880 360.233, 462.921 359.741, 462.360 344.890 C 461.840 331.107, 461.975 328.968, 463.512 326.622 C 464.816 324.632, 465.575 324.233, 466.537 325.030 C 467.521 325.847, 467.981 325.362, 468.512 322.946 C 468.892 321.214, 469.945 319.047, 470.852 318.132 C 471.758 317.216, 473.298 315.237, 474.273 313.733 C 476.712 309.973, 477.981 310.310, 478.102 314.750 C 478.168 317.201, 478.691 315.556, 479.610 310 C 480.383 305.325, 481.291 300.825, 481.628 300 C 482.703 297.365, 484.895 304.005, 485.094 310.500 L 485.278 316.500 486.153 310 C 486.633 306.425, 488.135 295.850, 489.490 286.500 C 490.845 277.150, 492.219 267.025, 492.543 264 C 492.868 260.975, 493.884 254, 494.801 248.500 C 497.628 231.556, 496.852 213.594, 492.428 193.579 C 491.587 189.772, 490.710 181.672, 490.481 175.579 C 490.004 162.922, 486.837 147.776, 480.886 129.690 C 478.749 123.195, 477 117.384, 477 116.776 C 477 116.168, 475.623 112.220, 473.941 108.004 C 470.850 100.258, 464.593 92.218, 458.799 88.546 C 456.100 86.836, 452 79.756, 452 76.807 C 452 75.948, 451.383 74.733, 450.628 74.106 C 449.874 73.480, 448.984 71.289, 448.651 69.237 C 448.199 66.451, 446.837 64.424, 443.273 61.229 C 438.926 57.333, 435.526 55.756, 425.500 52.987 C 423.850 52.531, 418.435 51.032, 413.467 49.656 C 408.499 48.281, 400.803 46.658, 396.365 46.050 C 385.103 44.508, 382.432 43.586, 378.850 40.004 C 375.876 37.030, 375.339 36.876, 368.110 36.935 C 363.924 36.968, 359.150 36.874, 357.500 36.725 C 353.589 36.373, 342.064 39.434, 336.157 42.394 C 331.008 44.974, 326.752 45.932, 317.609 46.570 C 314.249 46.805, 309.475 47.428, 307 47.955 C 304.525 48.482, 299.125 49.166, 295 49.475 C 290.875 49.784, 285.475 50.320, 283 50.666 C 279.103 51.211, 262.979 51.452, 249.225 51.171 C 243.238 51.048, 240.610 49.129, 231.646 38.332 C 227.327 33.129, 222.655 28.439, 221.266 27.911 C 219.876 27.382, 217.530 26.090, 216.053 25.038 C 214.576 23.986, 209.912 21.753, 205.689 20.075 C 201.466 18.398, 195.871 15.920, 193.256 14.569 C 190.640 13.218, 187.258 11.813, 185.741 11.446 C 184.223 11.079, 182.734 10.378, 182.432 9.889 C 182.129 9.400, 180.671 8.980, 179.191 8.956 C 177.711 8.932, 174.700 8.239, 172.500 7.417 C 164.877 4.566, 156.883 3.711, 150 5.010 M 467.079 316.583 C 467.127 317.748, 467.364 317.985, 467.683 317.188 C 467.972 316.466, 467.936 315.603, 467.604 315.271 C 467.272 314.939, 467.036 315.529, 467.079 316.583 M 159.398 386.405 C 159.102 387.177, 159.016 389.315, 159.209 391.155 C 159.515 394.088, 159.617 393.915, 160.036 389.750 C 160.527 384.879, 160.346 383.934, 159.398 386.405" fill="none" stroke="#000" stroke-width="2px" fill-rule="evenodd"/>
</svg>
