<svg xmlns="http://www.w3.org/2000/svg" width="252" height="288" viewBox="0 0 252 288" version="1.1">
	<path d="M 120.500 3 C 120.160 3.550, 118.810 4, 117.500 4 C 116.190 4, 114.840 4.450, 114.500 5 C 114.160 5.550, 112.810 6, 111.500 6 C 110.190 6, 108.840 6.450, 108.500 7 C 108.160 7.550, 106.874 8, 105.641 8 C 104.408 8, 102.972 8.417, 102.450 8.927 C 101.927 9.437, 97.900 11.739, 93.500 14.042 C 89.100 16.345, 84.600 18.965, 83.500 19.864 C 80.352 22.439, 77.192 24, 75.130 24 C 74.087 24, 73.021 24.788, 72.761 25.750 C 72.050 28.382, 51.125 39, 46.648 39 C 44.100 39, 42.644 39.596, 41.768 41 C 41.071 42.115, 39.409 43.015, 38.009 43.033 C 35.157 43.071, 27.385 48.163, 27.722 49.773 C 27.845 50.357, 28.432 56.934, 29.027 64.388 C 29.813 74.230, 29.804 81.304, 28.994 90.221 C 27.812 103.248, 27.238 105.241, 17.689 129.500 C 6.281 158.482, 5.018 163.025, 4.311 177.621 C 3.928 185.516, 4.169 187.399, 6.099 191.621 C 7.326 194.305, 8.870 197.175, 9.530 198 C 10.189 198.825, 10.994 201.228, 11.316 203.339 C 12.035 208.040, 13.233 209.562, 17.888 211.683 C 19.874 212.589, 22.531 214.252, 23.792 215.378 C 25.729 217.110, 27.290 217.402, 33.869 217.261 C 40.718 217.115, 42.486 216.657, 48.577 213.452 C 52.385 211.448, 56.650 208.726, 58.055 207.404 C 59.460 206.082, 61.078 205, 61.650 205 C 63.318 205, 65.789 201.713, 66.159 199 C 66.404 197.206, 67.121 196.492, 68.701 196.470 C 71.618 196.431, 76 192.215, 76 189.448 C 76 187.017, 78.385 184.502, 79.839 185.400 C 80.348 185.715, 81.943 185.046, 83.382 183.914 C 85.296 182.408, 86 180.933, 86 178.427 C 86 175.499, 86.341 175, 88.345 175 C 91.707 175, 94.390 171.691, 93.595 168.524 C 93.059 166.389, 93.397 165.800, 95.645 164.945 C 98.949 163.689, 100.926 161.218, 100.968 158.290 C 101.002 155.921, 105.823 150.776, 107.492 151.328 C 108.059 151.515, 108.802 157.751, 109.190 165.581 C 109.832 178.531, 111.251 198.394, 112.541 212.500 C 112.843 215.800, 113.491 219.400, 113.983 220.500 C 114.474 221.600, 115.074 224.075, 115.315 226 C 116.345 234.215, 119.619 243.812, 123.214 249.154 C 124.196 250.614, 125 253.436, 125 255.424 C 125 261.484, 130.886 269.012, 139.500 273.970 C 151.954 281.137, 152.634 281.482, 157.071 282.877 C 161.499 284.269, 175.660 284.359, 176.500 283 C 176.840 282.450, 178.221 282, 179.570 282 C 182.516 282, 189.939 278.692, 195.680 274.819 C 197.979 273.269, 200.280 272, 200.793 272 C 202.231 272, 216.449 257.540, 221.263 251.180 C 227.900 242.413, 230 238.543, 230 235.082 C 230 232.795, 230.991 230.881, 233.526 228.270 C 235.466 226.273, 237.328 223.483, 237.664 222.070 C 238.001 220.656, 238.719 218.938, 239.260 218.250 C 239.921 217.411, 239.840 216.513, 239.016 215.519 C 238.013 214.311, 238.359 213.173, 240.893 209.347 C 243.382 205.589, 244 203.610, 244 199.388 C 244 196.489, 244.433 193.850, 244.963 193.523 C 246.869 192.345, 247.884 186.152, 246.689 182.988 C 245.813 180.667, 245.833 179.497, 246.773 177.992 C 248.271 175.594, 248.367 170.554, 246.965 167.934 C 246.279 166.652, 246.261 165.381, 246.912 164.165 C 248.240 161.683, 243.569 143.160, 238.801 132 C 238.213 130.625, 237.395 128.600, 236.983 127.500 C 236.571 126.400, 233.095 119.200, 229.258 111.500 C 220.034 92.987, 216.420 83.404, 217.961 81.547 C 218.857 80.467, 218.653 79.185, 217.060 75.888 C 215.927 73.543, 215 70.791, 215 69.772 C 215 68.754, 214.177 66.251, 213.172 64.210 C 212.166 62.170, 210.110 56.631, 208.603 51.901 C 205.142 41.044, 203.027 37.581, 198.561 35.462 C 196.344 34.410, 195 33.063, 195 31.895 C 195 30.862, 194.100 29.455, 193 28.768 C 191.900 28.081, 191 26.946, 191 26.246 C 191 24.468, 188.985 21.125, 185.755 17.543 C 184.245 15.870, 183.007 13.938, 183.005 13.250 C 182.999 11.729, 174.425 11.504, 173.500 13 C 173.160 13.550, 170.910 14, 168.500 14 C 166.090 14, 163.840 14.450, 163.500 15 C 163.160 15.550, 161.135 16, 159 16 C 156.865 16, 154.840 16.450, 154.500 17 C 154.160 17.550, 152.810 18, 151.500 18 C 150.190 18, 148.840 18.450, 148.500 19 C 147.823 20.095, 141.105 20.361, 138.582 19.393 C 137.654 19.037, 137 17.614, 137 15.952 C 137 14.393, 136.550 12.840, 136 12.500 C 135.450 12.160, 135 10.403, 135 8.596 C 135 3.929, 132.435 2, 126.230 2 C 123.419 2, 120.840 2.450, 120.500 3" fill="none" stroke="#000" stroke-width="2px" fill-rule="evenodd"/>
</svg>
