<svg xmlns="http://www.w3.org/2000/svg" width="288" height="272" viewBox="0 0 288 272" version="1.1">
	<path d="M 233 3.166 C 227.644 5.742, 205.174 28.092, 197.476 38.500 C 181.328 60.331, 168.367 81.227, 158.774 100.893 C 146.005 127.072, 140.345 135.734, 127.182 149.241 C 116.490 160.213, 106.626 167.918, 95.648 173.871 C 88.633 177.675, 81.868 182.249, 80.092 184.390 C 78.897 185.829, 73.915 188.684, 55.500 198.482 C 21.708 216.462, 7.693 226.113, 3.313 234.419 C 0.517 239.721, 3.726 250.308, 10.416 257.849 C 14.475 262.424, 25.520 266.650, 38.500 268.594 C 45.414 269.629, 86.200 270.980, 94.500 270.449 C 107.181 269.637, 126.353 266.196, 133.869 263.383 C 146.701 258.582, 156.835 250.752, 163.490 240.500 C 168.428 232.893, 176.215 216.861, 181.461 203.500 C 193.313 173.318, 209.137 149.777, 228.289 133.839 C 231.556 131.120, 234.360 129.032, 234.521 129.198 C 234.682 129.364, 236.451 140.300, 238.454 153.500 C 242.747 181.798, 243.729 187.079, 245.754 192.750 C 247.137 196.622, 247.575 197, 250.681 197 C 255.265 197, 258.576 193.570, 259.456 187.910 C 259.833 185.485, 265.960 160.066, 273.071 131.424 C 280.182 102.782, 285.997 78.032, 285.994 76.424 C 285.977 67.454, 280.779 60.318, 272.594 58.026 C 261.533 54.929, 241.221 63.531, 222.007 79.449 C 218.986 81.952, 216.233 84, 215.889 84 C 215.545 84, 217.005 79.281, 219.132 73.513 C 221.259 67.745, 223 62.427, 223 61.695 C 223 60.164, 236.320 43.373, 239.614 40.752 C 243.288 37.828, 253.017 22.680, 253.599 18.977 C 254.074 15.949, 253.587 14.839, 249.823 10.384 C 245.576 5.359, 240.287 0.999, 238.438 1.001 C 237.922 1.001, 235.475 1.976, 233 3.166 M 217.958 38.108 C 211.148 45.703, 196.372 66.633, 192.179 74.623 C 190.069 78.646, 188.904 86.380, 189.586 91.841 L 190.267 97.293 192.634 91.397 C 193.936 88.154, 195.422 84.600, 195.938 83.500 C 196.453 82.400, 198.495 77.225, 200.474 72 C 205.074 59.857, 208.747 52, 209.825 52 C 210.830 52, 225.323 33.280, 226.277 30.750 C 226.640 29.788, 226.754 29, 226.530 29 C 226.307 29, 222.449 33.098, 217.958 38.108" fill="none" stroke="#000" stroke-width="2px" fill-rule="evenodd"/>
</svg>
