<svg xmlns="http://www.w3.org/2000/svg" width="292" height="153" viewBox="0 0 292 153" version="1.1">
	<path d="M 244.563 4.536 C 241.297 5.363, 234.828 7.670, 230.188 9.663 L 221.750 13.287 216.125 11.494 C 213.031 10.509, 207.250 9.486, 203.278 9.221 L 196.056 8.741 194.278 11.958 C 193.300 13.727, 191.072 17.223, 189.327 19.726 C 185.731 24.883, 186.001 27.271, 190.742 32.241 L 193.356 34.981 186.377 42.241 C 182.539 46.233, 178.404 50.926, 177.189 52.669 C 175.197 55.525, 174.561 55.801, 170.740 55.463 C 168.408 55.257, 162.675 53.907, 158 52.461 C 142.252 47.593, 141.342 47.915, 145.388 56.929 L 147.984 62.713 145.063 68.607 C 143.457 71.848, 141.827 76.238, 141.440 78.361 L 140.736 82.222 145.118 81.781 C 147.528 81.539, 150.283 80.992, 151.239 80.567 C 152.492 80.010, 152.001 81.417, 149.478 85.606 C 144.177 94.410, 142.670 101.669, 145.179 106.316 C 145.828 107.517, 146.264 109.957, 146.149 111.739 C 145.464 122.298, 161.815 129.236, 187.500 129.284 C 199.398 129.307, 201.687 128.992, 214.500 125.567 C 238.190 119.237, 246.722 114.041, 256.617 99.920 C 263.188 90.542, 267.306 86, 269.237 86 C 271.919 86, 283.767 72.585, 286.456 66.504 C 288.766 61.280, 288.962 59.883, 288.408 52.603 C 287.423 39.651, 280.397 14.814, 276.362 10.019 C 275.076 8.490, 272.441 6.488, 270.507 5.570 C 265.516 3.202, 251.967 2.662, 244.563 4.536 M 35.132 18.145 C 29.355 19.191, 22.989 22.346, 19.792 25.747 C 16.168 29.603, 13 35.944, 13 39.342 C 13 41.508, 12.624 42.070, 11.471 41.627 C 10.371 41.205, 9.775 41.877, 9.346 44.020 C 9.018 45.659, 8.216 47, 7.564 47 C 6.911 47, 5.394 47.916, 4.193 49.035 C 2.191 50.900, 2.030 51.905, 2.255 61.123 C 2.479 70.308, 2.702 71.341, 4.843 73.074 C 6.329 74.278, 7.383 76.440, 7.725 78.986 C 8.082 81.647, 8.769 83, 9.763 83 C 10.917 83, 11.131 82.196, 10.694 79.500 C 10.381 77.575, 10.282 76, 10.474 76 C 11.283 76, 14.915 85.324, 18.459 96.500 C 20.552 103.100, 23.041 110.300, 23.991 112.500 C 24.941 114.700, 26.511 119.188, 27.480 122.473 C 30.918 134.122, 43.251 142.687, 64.163 147.946 C 75.269 150.740, 94.927 150.814, 104.980 148.100 C 121.435 143.659, 127.763 138.021, 128.101 127.500 C 128.537 113.958, 128.299 111.404, 126.204 107.126 C 124.642 103.938, 124.325 102.262, 125.031 100.942 C 126.768 97.696, 126.103 93.276, 123.394 90.056 L 120.788 86.959 125.076 81.401 C 128.578 76.863, 129.101 75.666, 127.932 74.878 C 126.533 73.935, 118.741 74.283, 112.250 75.578 C 109.485 76.130, 109 75.940, 109 74.303 C 109 73.245, 107.825 69.481, 106.388 65.940 C 104.638 61.623, 103.682 57.192, 103.489 52.500 C 103.146 44.156, 100.894 34.013, 98.610 30.528 C 97.705 29.146, 94.738 26.888, 92.018 25.509 C 86.999 22.966, 74.351 20.544, 71.599 21.600 C 70.771 21.918, 67.484 21.201, 64.296 20.007 C 57.967 17.635, 43.164 16.691, 35.132 18.145 M 201 24.035 C 201 25.468, 203.118 26.282, 204.153 25.247 C 204.792 24.608, 204.414 24.080, 203.066 23.728 C 201.930 23.430, 201 23.569, 201 24.035" fill="none" stroke="#000" stroke-width="2px" fill-rule="evenodd"/>
</svg>
