<svg xmlns="http://www.w3.org/2000/svg" width="280" height="199" viewBox="0 0 280 199" version="1.1">
	<path d="M 125 3.640 C 121.730 4.993, 120 7.420, 120 10.655 C 120 13.194, 119.572 14, 118.222 14 C 115.230 14, 102.219 20.723, 101.075 22.859 C 100.484 23.964, 100 25.971, 100 27.318 C 100 28.792, 99.303 29.967, 98.250 30.270 C 97.287 30.547, 95.713 31.097, 94.750 31.494 C 93.456 32.026, 92.994 31.730, 92.978 30.357 C 92.936 26.764, 89.124 20.122, 84.135 14.946 L 79.092 9.714 72.716 10.368 C 59.514 11.720, 40.935 18.589, 35.842 24.001 C 33.687 26.291, 31.736 27.058, 25.518 28.062 C 16.422 29.529, 15.522 30.515, 14.618 40 C 14.277 43.575, 13.113 48.975, 12.032 52 C 10.950 55.025, 10.051 58.936, 10.033 60.691 C 10.015 62.446, 9.550 64.160, 9 64.500 C 8.450 64.840, 8 67.592, 8 70.616 C 8 75.976, 6.970 84.331, 4.809 96.500 C 2.572 109.099, 1.851 121.540, 3.121 125.657 C 4.035 128.622, 10.113 134.984, 16.346 139.500 L 19.107 141.500 16.553 147.730 C 13.483 155.222, 13.382 157.868, 15.972 162.945 C 18.100 167.116, 20.557 169.379, 26.321 172.477 C 28.345 173.565, 30 175.085, 30 175.856 C 30 176.626, 27.016 180.140, 23.369 183.663 C 19.721 187.187, 17.010 190.344, 17.344 190.678 C 17.678 191.012, 20.489 189.196, 23.591 186.642 C 26.692 184.089, 29.783 182, 30.460 182 C 33.672 182, 37.585 173.797, 35.851 170.699 C 35.349 169.801, 31.914 168.163, 28.219 167.060 C 18.630 164.196, 17 162.821, 17 157.593 C 17 154.431, 17.773 152.233, 19.934 149.250 C 21.548 147.022, 23.282 144.943, 23.789 144.630 C 24.853 143.973, 42.161 151.358, 46.248 154.213 C 47.759 155.269, 49.177 157.115, 49.399 158.316 C 49.621 159.517, 50.572 164.034, 51.511 168.353 C 52.798 174.269, 53.047 178.278, 52.520 184.603 C 52.079 189.898, 52.183 193, 52.801 193 C 54.200 193, 54.975 187.245, 55.399 173.699 C 55.603 167.208, 55.957 161.709, 56.188 161.479 C 56.418 161.248, 60.289 163.525, 64.789 166.538 C 88.263 182.254, 104.430 186.286, 144.500 186.420 C 164.724 186.487, 169.523 186.216, 175 184.697 C 190.231 180.474, 198.150 176.317, 201.500 170.789 C 202.367 169.359, 203.300 169.274, 208.500 170.150 C 211.800 170.707, 222.150 170.957, 231.500 170.707 C 249.655 170.220, 257.953 168.593, 267.839 163.580 C 275.895 159.494, 276.353 158.537, 275.527 147.513 C 275.114 142.015, 274.268 137.411, 273.535 136.677 C 272.833 135.976, 271.561 134.051, 270.706 132.399 C 268.606 128.337, 261.977 122.375, 253.369 116.807 C 249.447 114.270, 245.941 111.714, 245.578 111.126 C 244.906 110.039, 236.415 105.970, 235.178 106.143 C 231.790 106.614, 229.170 105.686, 228.067 103.625 C 227.368 102.318, 224.189 99.411, 221.003 97.164 C 214.095 92.293, 206 81.395, 206 76.966 C 206 74.672, 205.167 73.477, 202.197 71.511 C 199.346 69.625, 197.931 67.680, 196.548 63.747 C 195.534 60.861, 194.258 57.929, 193.714 57.231 C 193.027 56.351, 193.253 55.378, 194.452 54.053 C 196.572 51.710, 195.777 48.555, 192.531 46.428 C 190.894 45.356, 190.006 43.528, 189.508 40.205 C 188.675 34.647, 188.196 33.629, 182.167 24.601 C 178.178 18.629, 173.214 14.016, 170.763 14.004 C 170.358 14.002, 169.366 15.581, 168.559 17.514 C 166.927 21.419, 164.235 23.057, 163.001 20.896 C 158.549 13.099, 154.521 9.301, 146.187 5.044 C 143.628 3.737, 127.370 2.660, 125 3.640" fill="none" stroke="#000" stroke-width="2px" fill-rule="evenodd"/>
</svg>
