<svg xmlns="http://www.w3.org/2000/svg" width="288" height="232" viewBox="0 0 288 232" version="1.1">
	<path d="M 51.500 1.638 C 50.400 1.858, 46.800 2.535, 43.500 3.143 C 36.585 4.415, 25 9.442, 25 11.170 C 25 11.815, 24.304 13.111, 23.454 14.051 C 22.134 15.509, 22.060 16.975, 22.946 24.043 C 23.527 28.673, 24.650 33.060, 25.492 33.992 C 27.361 36.057, 27.680 55.920, 25.873 57.727 C 25.037 58.563, 25.083 60.616, 26.051 65.677 C 26.768 69.430, 27.322 77.225, 27.282 83 C 27.242 88.775, 27.206 100.174, 27.202 108.332 C 27.196 121.845, 27.015 123.356, 25.167 125.332 C 23.543 127.069, 23.288 128.195, 23.885 131 C 24.414 133.483, 25.139 134.456, 26.384 134.350 C 27.654 134.241, 27.942 134.654, 27.429 135.850 C 27.040 136.757, 25.527 141.775, 24.067 147 C 22.606 152.225, 18.653 162.125, 15.282 169 C 4.836 190.300, 1.432 206.786, 5.645 215.664 C 10.541 225.982, 25.486 230.901, 48.304 229.705 C 54.462 229.382, 61.905 228.386, 64.845 227.492 C 71.343 225.515, 77.982 219.701, 81.200 213.169 C 83.337 208.831, 83.510 207.152, 83.639 189.500 C 83.748 174.462, 84.113 169.725, 85.389 166.782 C 86.489 164.243, 87 160.111, 87 153.750 C 87 148.285, 87.648 142.176, 88.567 138.968 C 89.429 135.961, 90.231 132.600, 90.349 131.500 C 90.467 130.400, 91.554 126.914, 92.766 123.754 C 94.035 120.444, 94.966 115.781, 94.961 112.754 C 94.922 85.214, 96.258 73.080, 100.185 65.284 C 101.003 63.661, 101.005 62.711, 100.192 61.732 C 99.412 60.792, 99.336 57.236, 99.934 49.759 C 100.697 40.233, 101.056 38.853, 103.383 36.527 C 104.811 35.098, 106.240 32.708, 106.559 31.215 C 106.878 29.722, 107.512 27.566, 107.968 26.425 C 109.462 22.689, 105.148 9.584, 102.128 8.685 C 101.233 8.418, 97.395 7.045, 93.599 5.634 C 89.803 4.223, 86.380 3.265, 85.991 3.505 C 85.603 3.746, 83.921 3.551, 82.255 3.073 C 80.028 2.434, 78.843 2.586, 77.784 3.645 C 76.593 4.836, 75.491 4.886, 71.422 3.932 C 68.715 3.298, 64.925 2.632, 63 2.453 C 61.075 2.274, 58.150 1.927, 56.500 1.683 C 54.850 1.438, 52.600 1.418, 51.500 1.638 M 139 9.950 C 139 10.592, 138.597 10.869, 138.105 10.565 C 137.612 10.260, 136.952 10.684, 136.636 11.506 C 136.246 12.522, 134.638 13, 131.614 13 C 126.613 13, 119.788 15.684, 115.919 19.173 C 112.942 21.857, 110.436 27, 112.105 27 C 112.689 27, 112.963 27.563, 112.714 28.250 C 112.465 28.938, 112.939 30.279, 113.768 31.231 C 114.998 32.643, 115.042 33.245, 114.006 34.493 C 112.937 35.780, 113.035 35.982, 114.618 35.762 C 115.653 35.618, 116.645 35.950, 116.821 36.500 C 116.998 37.050, 117.811 38.238, 118.628 39.141 C 120.922 41.676, 124.226 61.361, 123.646 69.039 C 123.295 73.689, 123.704 77.571, 125.064 82.474 C 126.684 88.317, 126.768 89.608, 125.616 90.935 C 122.938 94.019, 121.649 97.601, 120.916 104 C 119.695 114.658, 117.177 122.715, 115.201 122.286 C 114.040 122.034, 114.107 127.232, 115.276 128.083 C 115.717 128.404, 115.557 129.979, 114.921 131.583 C 114.286 133.187, 113.617 139.225, 113.436 145 C 113.254 150.775, 112.837 158.650, 112.507 162.500 C 111.929 169.261, 112.015 169.628, 115.027 173.250 C 116.742 175.313, 118.829 177, 119.665 177 C 120.501 177, 122.329 177.900, 123.727 179 C 125.126 180.100, 127.089 181, 128.090 181 C 129.092 181, 131.592 182.140, 133.645 183.534 C 135.699 184.928, 137.994 185.833, 138.744 185.545 C 139.495 185.257, 141.460 186.020, 143.111 187.240 L 146.113 189.459 151.568 186.509 C 156.959 183.592, 157.061 183.578, 160.262 185.309 C 164.910 187.824, 178.010 198.839, 178.711 200.822 C 179.699 203.619, 182.203 206, 184.155 206 C 185.170 206, 186 206.441, 186 206.981 C 186 207.520, 187.238 208.258, 188.750 208.619 C 190.262 208.980, 192.071 209.726, 192.768 210.276 C 195.711 212.595, 224.195 217.495, 229.732 216.634 C 231.509 216.358, 233.230 216.562, 233.555 217.089 C 234.094 217.961, 238.601 218.262, 248 218.055 C 249.925 218.012, 253.300 217.991, 255.500 218.008 C 262.019 218.059, 273.127 215.180, 278.686 211.999 C 283.452 209.273, 283.928 208.664, 284.553 204.496 C 285.267 199.731, 283.180 189.183, 280.496 183.991 C 278.296 179.738, 269.438 172.329, 264.222 170.379 C 258.470 168.230, 253.856 165.457, 243.818 158.117 C 236.965 153.107, 234.936 150.573, 234.582 146.583 C 234.457 145.182, 232 144.664, 232 146.039 C 232 146.937, 231.597 146.911, 230.424 145.937 C 229.299 145.003, 229.023 143.691, 229.461 141.358 C 229.984 138.568, 229.545 137.502, 226.471 134.100 C 223.114 130.383, 220.581 129.081, 213.795 127.582 C 211.948 127.174, 209.624 124.930, 206.469 120.508 L 201.847 114.032 202.557 104.957 C 203.035 98.855, 203.961 94.509, 205.384 91.691 C 208.734 85.057, 210.650 85.902, 216.287 96.500 C 222.285 107.776, 225.603 115.290, 226.994 120.750 C 227.590 123.088, 228.559 125, 229.147 125 C 229.818 125, 229.955 123.974, 229.514 122.250 C 229.128 120.737, 228.151 116.353, 227.342 112.507 C 226.503 108.518, 224.176 102.442, 221.923 98.360 L 217.974 91.206 221.986 92.224 C 229.581 94.152, 234.991 89.687, 231.505 84.368 C 229.319 81.030, 223.923 78.868, 217.403 78.715 C 213.231 78.618, 212.028 78.216, 211.657 76.796 C 211.399 75.808, 210.470 75, 209.594 75 C 207.615 75, 207.611 75.081, 209.840 69.833 C 212.252 64.155, 213.175 59.226, 211.967 58.480 C 209.516 56.965, 212.704 43.537, 215.997 41.502 C 216.549 41.161, 217 40.432, 217 39.882 C 217 39.332, 216.571 39.147, 216.046 39.472 C 214.048 40.706, 210.001 38.821, 209.970 36.642 C 209.930 33.877, 200.469 23.715, 196.250 21.906 C 194.463 21.139, 193 20.172, 193 19.756 C 193 19.340, 192.662 19.079, 192.250 19.175 C 191.542 19.339, 189.519 18.574, 182.500 15.487 C 179.148 14.012, 175.987 13.238, 170.329 12.506 C 168.223 12.234, 165.375 11.754, 164 11.440 C 162.625 11.126, 158.125 10.670, 154 10.425 C 149.875 10.180, 144.813 9.710, 142.750 9.381 C 140.214 8.975, 139 9.160, 139 9.950 M 214.112 81.917 C 213.052 82.583, 213.642 83.393, 216.612 85.347 C 221.011 88.241, 225.796 89.372, 227.960 88.028 C 230.196 86.641, 226.583 83.183, 222.113 82.432 C 220.126 82.098, 217.825 81.650, 217 81.436 C 216.175 81.221, 214.875 81.438, 214.112 81.917" fill="none" stroke="#000" stroke-width="2px" fill-rule="evenodd"/>
</svg>
