<?xml version="1.0" encoding="UTF-8" standalone="no"?>
<!-- Generator: Adobe Illustrator 17.0.0, SVG Export Plug-In . SVG Version: 6.00 Build 0)  -->

<svg
   xmlns:dc="http://purl.org/dc/elements/1.1/"
   xmlns:cc="http://creativecommons.org/ns#"
   xmlns:rdf="http://www.w3.org/1999/02/22-rdf-syntax-ns#"
   xmlns:svg="http://www.w3.org/2000/svg"
   xmlns="http://www.w3.org/2000/svg"
   xmlns:sodipodi="http://sodipodi.sourceforge.net/DTD/sodipodi-0.dtd"
   xmlns:inkscape="http://www.inkscape.org/namespaces/inkscape"
   version="1.1"
   id="Слой_1"
   x="0px"
   y="0px"
   width="47.226135"
   height="140.38443"
   viewBox="0 0 47.226135 140.38443"
   enable-background="new 0 0 1200 150"
   xml:space="preserve"
   sodipodi:docname="2.svg"
   inkscape:version="0.92.4 (5da689c313, 2019-01-14)"><metadata
   id="metadata1165"><rdf:RDF><cc:Work
       rdf:about=""><dc:format>image/svg+xml</dc:format><dc:type
         rdf:resource="http://purl.org/dc/dcmitype/StillImage" /><dc:title></dc:title></cc:Work></rdf:RDF></metadata><defs
   id="defs1163" /><sodipodi:namedview
   pagecolor="#ffffff"
   bordercolor="#666666"
   borderopacity="1"
   objecttolerance="10"
   gridtolerance="10"
   guidetolerance="10"
   inkscape:pageopacity="0"
   inkscape:pageshadow="2"
   inkscape:window-width="1920"
   inkscape:window-height="1017"
   id="namedview1161"
   showgrid="false"
   inkscape:zoom="0.66939442"
   inkscape:cx="644.61191"
   inkscape:cy="-120.16722"
   inkscape:window-x="-8"
   inkscape:window-y="-8"
   inkscape:window-maximized="1"
   inkscape:current-layer="Слой_1"
   fit-margin-top="0"
   fit-margin-left="0"
   fit-margin-right="0"
   fit-margin-bottom="0" />


<g
   id="g392"
   transform="translate(-353.74436,-4.7466012)">
	<g
   id="g356">
		<path
   d="m 377.745,8.774 c 0.764,-0.799 2.63,-3.762 7.591,-3.997 4.962,-0.232 8.859,0.833 10.523,4.264 1.666,3.43 1.766,5.694 2.264,8.658 0.5,2.964 1.333,7.193 1.599,10.256 0.266,3.064 0.499,6.859 0.666,9.723 0.166,2.865 0.465,7.194 0.533,9.326 0.066,2.13 0.066,6.593 0,9.191 -0.068,2.598 -1.031,7.526 -1.998,10.391 -0.966,2.863 -4.795,8.525 -5.861,10.523 -1.066,1.998 -2.864,5.561 -3.597,8.126 -0.732,2.563 -1.331,7.16 -1.466,9.591 -0.133,2.43 -0.1,6.16 -0.266,7.726 -0.166,1.564 0,3.064 0,3.73 0,0.666 0.166,1.266 0.266,1.466 0.1,0.199 0.267,0.832 0.267,1.465 0,0.633 0.166,4.829 0.133,6.127 -0.033,1.299 0.133,2.93 0.133,2.93 0,0 0.267,3.463 0.134,5.062 -0.134,1.598 -0.3,7.227 -0.533,8.658 -0.234,1.433 -0.867,4.962 -3.198,7.859 -2.332,2.897 -5.327,5.828 -13.987,5.195 -8.658,-0.632 -11.288,-4.829 -12.655,-7.991 -2.131,-4.53 -1.863,-12.588 -1.863,-14.653 0,-2.065 0.133,-7.459 0.133,-8.125 0,-0.666 0,-6.261 0,-6.261 l 0.799,-1.331 c 0.066,-2.031 -0.399,-10.291 -0.667,-13.188 -0.265,-2.897 -1.464,-10.656 -1.864,-13.72 -0.4,-3.064 -1.231,-10.59 -1.065,-13.32 0.166,-2.731 1.663,-9.124 2.664,-11.855 0.998,-2.732 3.995,-10.391 5.06,-12.788 1.066,-2.398 6.095,-13.287 6.927,-15.186 0.832,-1.898 5.028,-10.556 5.995,-12.388 0.968,-1.834 2.566,-4.665 3.333,-5.464 z"
   id="path354"
   inkscape:connector-curvature="0"
   style="clip-rule:evenodd;fill:#976a28;fill-rule:evenodd" />
	</g>
	<g
   id="g390">
		<g
   id="g360">
			<path
   d="m 372.018,78.574 c 0,0 0.532,1.731 1.331,0.533 0.798,-1.199 6.838,-7.727 9.457,-8.259 1.054,-0.966 1.398,-1.931 1.732,-2.531 0.331,-0.598 3.196,-7.093 3.597,-10.256 0.398,-3.164 0.931,-10.456 0.931,-12.522 0,-2.064 -0.233,-8.358 -0.666,-11.056 -0.433,-2.698 -1.266,-6.161 -1.866,-7.593 -0.598,-1.431 -1.997,-1.698 -2.93,-0.4 -0.932,1.3 -3.962,5.595 -4.928,7.46 -0.966,1.865 -3.564,8.059 -4.262,9.857 -0.701,1.798 -1.865,5.128 -2.531,7.194 -0.665,2.064 -1.898,6.127 -2.264,7.992 -0.367,1.864 -0.367,5.994 -0.267,8.258 0.1,2.264 0.866,6.161 1.332,7.86 0.466,1.698 1.334,3.463 1.334,3.463 z"
   id="path358"
   inkscape:connector-curvature="0"
   style="clip-rule:evenodd;fill:#ffffff;fill-rule:evenodd" />
		</g>
		<g
   id="g364">
			<path
   d="m 366.688,75.91 2.398,0.134 1.864,5.063 -5.994,-0.134 c 0,0 -0.906,-2.451 -1.066,-3.462 -0.16,-1.013 -0.799,-2.133 0,-1.998 0.798,0.133 1.864,0.133 1.864,0.133 l -0.398,-1.731 -1.998,-0.266 c 0,0 -0.373,0.052 -0.533,-0.799 -0.159,-0.852 -0.666,-3.996 -0.666,-3.996 0,0 -0.108,-0.559 0.666,-0.4 0.773,0.16 1.864,0.266 1.864,0.266 l -0.133,-1.864 -2.664,-0.4 0.533,-5.994 2.531,0.133 0.4,-1.598 -2.398,-0.534 1.598,-5.46 h 2.131 l 0.666,-1.466 -2.13,-0.4 c 0,0 1.572,-4.58 1.73,-4.928 0.161,-0.346 0.427,-0.48 0.934,-0.399 0.506,0.08 1.199,0.266 1.199,0.266 l 0.798,-1.598 -1.865,-0.4 c 0,0 -0.106,-0.106 0.134,-0.799 0.239,-0.693 1.412,-3.569 1.597,-3.862 0.187,-0.294 0.48,-0.534 1.067,-0.4 0.585,0.133 1.199,0.133 1.199,0.133 l 0.665,-1.466 -1.464,-0.266 c 0,0 -0.615,-0.027 -0.134,-1.066 0.48,-1.038 1.732,-3.729 1.732,-3.729 0,0 0.053,-0.427 0.666,-0.399 0.612,0.026 1.731,0.266 1.731,0.266 l 0.799,-1.598 -1.733,-0.267 c 0,0 -0.398,-0.052 -0.133,-0.665 0.267,-0.613 3.863,-7.86 4.263,-8.659 0.399,-0.799 1.999,-4.53 5.727,-5.062 2.85,-0.347 6.101,0.054 7.061,1.466 0.959,1.412 1.091,2.53 1.198,3.73 0.107,1.199 0.48,2.558 0.534,3.33 0.053,0.773 0.159,1.252 -0.666,1.466 -0.826,0.212 -1.199,0.16 -1.199,0.533 0,0.373 0.266,1.598 0.266,1.598 l 1.333,-0.267 c 0,0 0.453,-0.319 0.533,0.4 0.08,0.72 0.214,2.797 0.267,3.33 0.053,0.532 0,0.826 -0.4,0.932 -0.4,0.107 -1.066,0.133 -1.066,0.133 l 0.134,1.599 h 1.066 c 0,0 0.639,-0.241 0.666,0.533 0.027,0.773 0.134,3.198 0.134,3.198 0,0 0.213,0.719 -0.401,0.798 -0.611,0.08 -1.065,0.133 -1.065,0.133 0,0 -0.052,0.32 0,0.666 0.054,0.347 0,1.199 0,1.199 l 1.065,-0.267 c 0,0 0.694,-0.053 0.667,0.534 -0.027,0.585 0.134,3.596 0.134,3.596 0,0 0.159,0.719 -0.4,0.8 -0.559,0.08 -1.199,0.133 -1.199,0.133 v 1.731 c 0,0 0.587,0.054 0.933,0 0.347,-0.053 0.613,-0.186 0.666,0.533 0.054,0.72 0.133,3.863 0.133,3.863 0,0 -0.026,0.587 -0.533,0.667 -0.506,0.08 -1.466,0.133 -1.466,0.133 v 1.598 h 1.332 c 0,0 0.614,-0.106 0.534,0.533 -0.08,0.639 -0.32,3.65 -0.4,4.662 -0.08,1.011 -0.187,0.959 -0.667,1.066 -0.48,0.106 -1.731,0.266 -1.731,0.266 0,0 -0.24,1.172 -0.398,1.598 -0.161,0.427 0.798,0.267 0.798,0.267 0,0 1.545,-0.559 1.332,0.266 -0.212,0.826 -1.598,4.262 -1.598,4.262 0,0 -0.401,0.666 -1.334,0.932 -0.931,0.267 -3.835,1.12 -4.528,1.199 -0.693,0.08 -1.145,0.347 -0.666,-0.532 0.479,-0.879 2.159,-4.423 2.398,-4.795 0.238,-0.374 0.745,-0.773 1.198,-0.799 0.453,-0.027 1.465,-0.266 1.465,-0.266 l 0.666,-1.998 -1.998,0.4 c 0,0 -0.292,-0.054 -0.133,-0.666 0.161,-0.612 0.426,-2.877 0.666,-4.262 0.241,-1.385 0.347,-1.358 0.666,-1.466 0.322,-0.106 1.599,-0.267 1.599,-0.267 l 0.134,-1.997 -1.733,0.4 c 0,0 -0.159,0.398 -0.134,-0.8 0.028,-1.199 0.134,-3.73 0.134,-3.73 0,0 -0.078,-0.398 0.4,-0.533 0.48,-0.133 1.465,-0.533 1.465,-0.533 l 0.134,-1.731 c 0,0 -1.333,0.212 -1.598,0.266 -0.266,0.053 -0.427,-0.054 -0.4,-1.066 0.028,-1.013 -0.266,-2.503 -0.134,-2.796 0.134,-0.293 -0.132,-0.534 0.399,-0.667 0.534,-0.133 1.599,-0.399 1.599,-0.399 l -0.132,-1.865 c 0,0 -0.294,0.027 -0.666,0.134 -0.375,0.107 -1.28,0.586 -1.333,-0.534 -0.053,-1.118 -0.134,-2.637 -0.134,-2.93 0,-0.292 -0.294,-0.506 0.134,-0.666 0.425,-0.16 1.598,-0.532 1.598,-0.532 l -0.4,-1.732 c 0,0 -0.692,0.292 -0.933,0.266 -0.239,-0.026 -0.852,0.32 -0.931,-0.933 -0.08,-1.252 -0.4,-2.663 -0.4,-2.663 0,0 -0.267,-0.612 0.133,-0.666 0.399,-0.053 1.598,-0.398 1.598,-0.398 l -0.134,-1.866 c 0,0 -0.904,0.133 -1.197,0.266 -0.294,0.134 -0.986,0.4 -1.333,-0.534 -0.347,-0.931 -0.986,-3.062 -2.531,-3.062 -1.066,-0.027 -1.864,1.012 -2.53,1.864 -0.666,0.853 -1.998,2.584 -2.664,3.73 -0.666,1.146 -0.772,1.359 -1.465,1.466 -0.693,0.107 -1.866,0.133 -1.866,0.133 l -0.798,1.865 h 1.332 c 0,0 0.932,-0.026 0.666,0.399 -0.266,0.427 -1.838,3.89 -1.998,4.263 -0.16,0.373 -0.347,0.613 -0.799,0.532 -0.452,-0.078 -1.731,0 -1.731,0 l -0.8,1.599 1.465,0.134 c 0,0 0.747,0 0.533,0.533 -0.212,0.533 -1.864,4.395 -1.864,4.395 0,0 -0.161,0.32 -0.798,0.266 -0.641,-0.053 -1.467,-0.133 -1.467,-0.133 l -0.666,1.731 1.733,0.133 c 0,0 0.425,0.054 0.131,0.799 -0.291,0.746 -1.463,4.13 -1.463,4.13 0,0 0.105,0.453 -0.801,0.4 -0.905,-0.053 -1.465,0 -1.465,0 l -0.533,1.466 1.599,0.266 c 0,0 0.612,0.105 0.398,0.932 -0.212,0.826 -0.931,3.916 -1.065,4.262 -0.133,0.346 -0.08,0.533 -0.799,0.533 -0.72,0 -1.598,-0.133 -1.598,-0.133 l -0.268,1.731 1.598,0.266 c 0,0 0.534,0 0.534,0.666 -0.026,0.959 -0.133,3.597 -0.133,4.262 0,0.667 0.133,1.332 -0.534,1.332 -0.666,0 -1.864,-0.267 -1.864,-0.267 l 0.134,1.866 1.73,0.134 c 0,0 0.666,0 0.666,0.798 0,0.799 0.24,2.131 0.4,3.064 0.159,0.933 0.32,1.386 -0.133,1.331 -0.454,-0.053 -1.999,-0.133 -1.999,-0.133 z"
   id="path362"
   inkscape:connector-curvature="0"
   style="clip-rule:evenodd;fill:#ffffff;fill-rule:evenodd" />
		</g>
		<g
   id="g368">
			<path
   d="m 356.432,121.199 c 0,0 6.126,3.73 11.855,3.73 4.973,-0.133 9.546,-0.755 14.253,-3.33 4.261,-2.264 5.86,-3.463 5.86,-3.463 l 0.133,0.4 c 0,0 -4.884,3.462 -8.123,4.929 -3.242,1.465 -8.482,2.975 -13.189,2.664 -4.44,-0.356 -8.169,-1.688 -9.325,-2.264 -1.153,-0.578 -1.463,-0.799 -1.463,-0.799 v -1.867 z"
   id="path366"
   inkscape:connector-curvature="0"
   style="clip-rule:evenodd;fill:#ffffff;fill-rule:evenodd" />
		</g>
		<g
   id="g372">
			<path
   d="m 369.885,131.323 c 0,0 0.223,-3.773 0.266,-4.795 1.334,-0.133 4.175,-0.577 4.663,-0.799 -0.044,1.687 0,4.307 0.133,4.662 -0.976,0.31 -5.062,0.932 -5.062,0.932 z"
   id="path370"
   inkscape:connector-curvature="0"
   style="clip-rule:evenodd;fill:#ffffff;fill-rule:evenodd" />
		</g>
		<g
   id="g376">
			<path
   d="m 375.214,131.057 c 0,0 0.355,2.93 0.799,3.595 -0.977,0.4 -5.817,2.088 -7.593,1.733 0.488,-0.888 1.376,-3.375 1.331,-4.397 1.199,-0.132 4.929,-0.71 5.463,-0.931 z"
   id="path374"
   inkscape:connector-curvature="0"
   style="clip-rule:evenodd;fill:#ffffff;fill-rule:evenodd" />
		</g>
		<g
   id="g380">
			<path
   d="m 368.154,137.051 c 0,0 -1.556,3.952 -2.931,4.662 2.309,0.044 9.502,-0.533 12.92,-2.666 -0.888,-1.198 -1.82,-3.284 -1.865,-3.729 -1.154,0.445 -7.326,1.955 -8.124,1.733 z"
   id="path378"
   inkscape:connector-curvature="0"
   style="clip-rule:evenodd;fill:#ffffff;fill-rule:evenodd" />
		</g>
		<g
   id="g384">
			<path
   d="m 363.758,143.045 1.064,-0.931 c 0,0 5.018,0.711 13.321,-2.398 0,0 0.932,0.089 3.331,3.063 l -0.666,0.4 c 0,0 -2.309,1.91 -7.193,1.864 -4.884,-0.044 -8.082,-0.888 -9.857,-1.998 z"
   id="path382"
   inkscape:connector-curvature="0"
   style="clip-rule:evenodd;fill:#ffffff;fill-rule:evenodd" />
		</g>
		<g
   id="g388">
			<path
   d="m 369.485,104.416 c 0,0 -0.499,1.998 1.466,1.998 1.966,0 3.863,0 3.863,0 0,0 0.601,-0.099 0.667,-1.066 0.065,-0.966 0.198,-1.764 -1.066,-1.998 -1.266,-0.233 -3.131,-0.1 -3.596,-0.133 -0.469,-0.033 -1.334,0.032 -1.334,1.199 z"
   id="path386"
   inkscape:connector-curvature="0"
   style="clip-rule:evenodd;fill:#ffffff;fill-rule:evenodd" />
		</g>
	</g>
</g>





<g
   id="g1148"
   transform="translate(-353.74436,-4.7466012)">
</g>
<g
   id="g1150"
   transform="translate(-353.74436,-4.7466012)">
</g>
<g
   id="g1152"
   transform="translate(-353.74436,-4.7466012)">
</g>
<g
   id="g1154"
   transform="translate(-353.74436,-4.7466012)">
</g>
<g
   id="g1156"
   transform="translate(-353.74436,-4.7466012)">
</g>
<g
   id="g1158"
   transform="translate(-353.74436,-4.7466012)">
</g>
</svg>