<?xml version="1.0" encoding="UTF-8" standalone="no"?>
<!-- Generator: Adobe Illustrator 17.0.0, SVG Export Plug-In . SVG Version: 6.00 Build 0)  -->

<svg
   xmlns:dc="http://purl.org/dc/elements/1.1/"
   xmlns:cc="http://creativecommons.org/ns#"
   xmlns:rdf="http://www.w3.org/1999/02/22-rdf-syntax-ns#"
   xmlns:svg="http://www.w3.org/2000/svg"
   xmlns="http://www.w3.org/2000/svg"
   xmlns:sodipodi="http://sodipodi.sourceforge.net/DTD/sodipodi-0.dtd"
   xmlns:inkscape="http://www.inkscape.org/namespaces/inkscape"
   version="1.1"
   id="Слой_1"
   x="0px"
   y="0px"
   width="54.101467"
   height="140.38416"
   viewBox="0 0 54.101467 140.38416"
   enable-background="new 0 0 1200 150"
   xml:space="preserve"
   sodipodi:docname="3.svg"
   inkscape:version="0.92.4 (5da689c313, 2019-01-14)"><metadata
   id="metadata1165"><rdf:RDF><cc:Work
       rdf:about=""><dc:format>image/svg+xml</dc:format><dc:type
         rdf:resource="http://purl.org/dc/dcmitype/StillImage" /><dc:title></dc:title></cc:Work></rdf:RDF></metadata><defs
   id="defs1163" /><sodipodi:namedview
   pagecolor="#ffffff"
   bordercolor="#666666"
   borderopacity="1"
   objecttolerance="10"
   gridtolerance="10"
   guidetolerance="10"
   inkscape:pageopacity="0"
   inkscape:pageshadow="2"
   inkscape:window-width="1920"
   inkscape:window-height="1017"
   id="namedview1161"
   showgrid="false"
   inkscape:zoom="0.66939442"
   inkscape:cx="588.55312"
   inkscape:cy="-110.81252"
   inkscape:window-x="-8"
   inkscape:window-y="-8"
   inkscape:window-maximized="1"
   inkscape:current-layer="Слой_1"
   fit-margin-top="0"
   fit-margin-left="0"
   fit-margin-right="0"
   fit-margin-bottom="0" />



<g
   id="g500"
   transform="translate(-501.23728,-5.5255564)">
	<g
   id="g396">
		<path
   d="m 504.308,77.996 c 0,0 1.752,11.297 1.949,12.855 0.194,1.558 0.518,4.091 0.68,5.648 0.162,1.558 0.358,6.038 0.291,7.304 -0.064,1.266 -0.389,2.272 -0.389,3.311 0,1.039 -0.098,1.851 0.098,2.63 0.195,0.779 0.259,2.5 0.291,2.727 -0.291,0.617 -0.454,1.233 -0.389,2.63 0.065,1.395 0.584,2.856 1.072,3.018 0.063,0.682 0.096,1.169 0.096,1.169 0,0 -1.006,1.168 -0.973,2.921 0.034,1.753 0.488,2.467 1.364,2.824 0.161,0.26 0.584,1.624 0.486,2.045 -0.357,0.616 -0.844,1.136 -0.584,2.63 0.259,1.493 0.78,2.402 1.559,2.532 0.488,0.13 0.488,0.228 0.583,0.682 0.099,0.454 0.423,0.876 0.099,1.266 -0.327,0.389 -0.359,0.811 -0.099,1.558 0.26,0.747 1.04,1.98 1.462,2.435 0.422,0.454 0.584,0.746 1.169,0.779 0.584,0.032 0.552,-0.13 0.78,0.195 0.227,0.324 0.42,0.649 0.388,1.071 -0.032,0.422 0.683,1.136 1.267,1.656 0.583,0.519 1.363,1.096 1.947,1.46 0.584,0.365 1.559,0.876 1.948,0.682 0.39,-0.195 1.047,-0.292 1.46,0 0.414,0.291 0.633,0.559 0.681,0.681 0.05,0.122 1.998,1.436 6.623,1.169 4.626,-0.268 5.866,-1.145 7.109,-1.85 0.147,-0.195 0.341,-0.268 0.487,-0.488 0.147,-0.219 0.973,-0.876 1.362,-0.779 0.389,0.097 0.853,0.414 1.656,-0.195 0.803,-0.609 2.167,-1.705 2.63,-2.338 0.462,-0.633 0.877,-1.631 0.877,-1.948 0,-0.316 0.122,-0.998 0.488,-1.168 0.366,-0.171 1.142,-0.122 1.654,-1.266 0.512,-1.145 0.537,-1.729 0.194,-2.338 -0.341,-0.608 -0.291,-0.949 -0.096,-1.363 0.195,-0.414 0.34,-0.901 0.68,-0.974 0.341,-0.073 0.925,-0.194 1.072,-1.655 0.146,-1.461 0.267,-2.24 0.291,-2.727 0.027,-0.487 -0.12,-0.998 -0.388,-1.266 -0.269,-0.268 -0.219,-1.218 -0.195,-1.558 0.025,-0.341 0.025,-0.462 0.292,-0.584 0.267,-0.122 0.486,-0.706 0.486,-1.558 0,-0.852 -0.097,-1.947 -0.097,-1.947 0,0 -0.072,-0.268 -0.389,-0.682 -0.316,-0.414 -0.34,-1.412 -0.39,-1.85 -0.049,-0.439 -0.195,-0.561 0.098,-0.682 0.292,-0.122 0.488,-0.463 0.488,-1.655 0,-1.193 -0.049,-2.168 -0.195,-2.63 -0.147,-0.463 -0.366,-0.755 -0.486,-1.266 -0.122,-0.512 -0.196,-1.582 -0.099,-1.851 0.099,-0.268 0.293,-0.852 0.293,-1.947 0,-1.096 -0.048,-1.997 -0.293,-2.63 -0.241,-0.632 -0.998,-1.826 -0.973,-2.435 0.024,-0.609 -0.147,-3.92 -0.195,-4.869 -0.05,-0.949 0,-7.815 0.096,-9.738 0.099,-1.923 0.83,-5.649 1.17,-7.207 0.339,-1.558 0.584,-2.775 0.875,-3.311 0.294,-0.536 1.023,-1.022 1.072,-2.63 0.17,-0.973 0.339,-2.264 0.584,-2.434 0.242,-0.171 1.144,-0.877 1.168,-2.629 0.123,-1.218 0.463,-2.386 0.78,-2.532 0.316,-0.146 1.387,-1.339 1.461,-3.409 0.122,-1.144 0.291,-1.728 0.584,-2.045 0.291,-0.316 1.046,-1.266 1.169,-2.337 0.121,-1.071 0.023,-1.242 -0.098,-1.655 -0.121,-0.414 0.048,-0.925 0.194,-1.754 0.147,-0.828 0.317,-0.511 0.585,-1.072 0.268,-0.56 0.778,-1.777 0.683,-2.532 -0.099,-0.755 -0.366,-2.386 -0.099,-3.018 0.268,-0.634 0.559,-1.388 0.586,-2.63 0.023,-1.242 -0.487,-1.607 -0.683,-1.655 0,-0.584 0.196,-2.143 0,-2.338 0.196,-0.779 0.683,-1.777 0.683,-2.727 0,-0.95 -0.195,-1.996 -0.487,-2.337 -0.27,-0.511 -0.537,-1.923 -0.293,-2.24 0.243,-0.317 0.388,-0.974 0.293,-2.143 -0.099,-1.169 -0.464,-2.483 -0.78,-2.629 -0.316,-0.146 -0.414,-0.439 -0.488,-0.779 -0.073,-0.341 -0.292,-1.704 -0.194,-1.948 0.439,-0.755 0.681,-1.509 0.292,-2.727 -0.391,-1.218 -1.048,-3.287 -1.17,-3.798 -0.12,-0.511 -0.169,-0.876 -0.486,-1.168 -0.316,-0.292 -0.754,-0.877 -0.877,-1.461 -0.12,-0.584 -0.242,-1.193 -0.292,-1.558 -0.048,-0.365 0.099,-0.949 -0.583,-1.948 -0.682,-0.998 -1.145,-1.802 -1.462,-2.143 -0.316,-0.341 -0.852,-0.559 -1.362,-0.973 -0.511,-0.414 -1.436,-1.266 -1.655,-1.656 -0.22,-0.389 -1.438,-1.607 -2.435,-2.143 C 542.36,7.535 541.046,6.878 540.632,7 c -0.414,0.121 -1.242,0.048 -1.85,-0.195 -0.609,-0.243 -2.703,-1.217 -3.702,-1.266 -0.997,-0.049 -5.087,0.048 -5.842,0.098 -0.755,0.048 -2.411,0.462 -2.921,0.779 -0.512,0.317 -2.557,1.558 -3.409,1.558 -0.852,0 -2.093,0.877 -2.63,1.169 -0.535,0.292 -1.388,1.193 -1.655,1.557 -0.267,0.366 -1.046,1.486 -1.656,1.851 -0.609,0.366 -2.216,2.118 -2.824,2.922 -0.609,0.803 -1.68,2.337 -1.85,2.921 -0.171,0.584 -0.511,1.948 -1.072,2.337 -0.559,0.389 -0.998,1.023 -1.459,1.948 -0.464,0.925 -0.975,2.386 -1.364,3.214 -0.391,0.828 -0.536,1.339 -0.391,1.753 0.147,0.414 0.318,0.584 0.098,0.682 -0.219,0.097 -0.269,0.633 -0.391,0.877 -0.122,0.243 -0.241,0.925 -0.681,1.071 -0.437,0.146 -0.681,0.585 -0.877,1.169 -0.194,0.584 -0.413,0.998 -0.584,1.947 -0.17,0.95 -0.195,1.168 -0.195,1.559 0,0.389 -0.146,1.023 -0.291,1.461 -0.146,0.438 -0.633,1.63 -0.974,2.434 -0.341,0.803 -0.584,1.583 -0.584,2.045 0,0.463 0.073,0.755 0.291,0.974 0.22,0.219 -0.217,1.558 -0.291,2.045 -0.075,0.487 -0.706,0.316 -0.975,0.584 -0.267,0.268 -0.388,0.852 -0.487,1.656 -0.097,0.804 0.073,1.509 0.099,2.045 0.023,0.536 -0.245,1.704 -0.391,2.143 -0.145,0.438 -0.462,1.607 -0.486,2.629 -0.025,1.023 0.267,1.145 0.292,1.559 0.025,0.413 -0.098,2.191 -0.194,2.922 -0.098,0.73 -0.219,1.923 -0.098,2.921 0.122,0.998 0.317,1.85 0.292,2.63 -0.025,0.779 -0.073,1.947 0.194,2.532 0.269,0.584 0.391,1.12 0.391,1.655 0,0.535 0.193,1.339 0.193,2.143 0,0.803 0.244,1.534 0.391,1.85 0.145,0.316 0.388,0.901 0.388,1.266 0,0.365 0.219,1.046 0.195,1.752 -0.024,0.706 0.072,2.192 0.389,2.629 0.32,0.44 0.587,1.17 0.587,1.17 z"
   id="path394"
   inkscape:connector-curvature="0"
   style="clip-rule:evenodd;fill:#684020;fill-rule:evenodd" />
	</g>
	<g
   id="g498">
		<g
   id="g400">
			<path
   d="m 514.631,88.903 c 0.049,-0.925 0.147,-3.969 6.719,-5.259 4.334,-0.803 9.764,-0.438 12.466,1.753 0.973,0.827 2.556,3.067 0.488,5.551 -1.827,1.972 -6.891,2.776 -9.35,2.824 -2.459,0.049 -6.231,-0.584 -7.985,-1.753 -1.753,-1.168 -2.338,-3.116 -2.338,-3.116 z"
   id="path398"
   inkscape:connector-curvature="0"
   style="clip-rule:evenodd;fill:#ffffff;fill-rule:evenodd" />
		</g>
		<g
   id="g404">
			<path
   d="m 522.325,113.542 c 0.877,-2.483 1.946,-4.139 3.993,-4.188 2.045,-0.048 3.7,1.12 4.674,4.091 0.973,2.97 2.872,8.813 3.506,11.297 0.631,2.483 1.898,6.378 0.388,9.349 -1.509,2.97 -4.771,4.091 -5.453,4.188 -0.68,0.098 -0.779,-0.487 -0.779,-1.363 0,-0.876 0.341,-1.266 1.169,-1.656 0.827,-0.389 3.359,-3.262 3.506,-4.48 0.145,-1.217 -0.147,-1.168 -0.585,-0.487 -0.438,0.682 -2.337,2.191 -2.824,2.338 -0.487,0.146 -2.338,-0.487 -1.461,-1.851 0.877,-1.363 3.359,-2.142 3.117,-4.479 -0.244,-2.338 -1.706,-7.207 -2.532,-9.934 -0.829,-2.727 -1.216,-4.042 -2.338,-4.09 -1.119,-0.049 -1.459,2.386 -1.655,3.214 -0.195,0.828 -1.12,5.064 -1.46,7.304 -0.341,2.239 -0.828,4.382 0.098,5.453 0.926,1.072 2.143,1.607 2.53,1.851 0.392,0.244 1.17,1.022 0.975,1.948 -0.195,0.925 -0.925,1.753 -2.338,1.071 -1.412,-0.682 -3.261,-2.824 -2.921,-1.558 0.341,1.266 1.461,2.824 3.214,3.505 1.754,0.682 2.288,1.413 1.948,2.436 -0.341,1.022 -1.997,0.827 -3.604,0.292 -1.606,-0.535 -5.502,-3.165 -4.87,-8.375 0.633,-5.21 2.192,-11.832 2.825,-13.634 0.633,-1.804 0.877,-2.242 0.877,-2.242 z"
   id="path402"
   inkscape:connector-curvature="0"
   style="clip-rule:evenodd;fill:#ffffff;fill-rule:evenodd" />
		</g>
		<g
   id="g408">
			<path
   d="m 531.381,63.973 c 0,0 0.973,1.266 2.045,1.169 1.072,-0.097 1.314,1.461 0.681,2.63 -0.633,1.168 -2.044,4.139 -2.63,5.453 -0.584,1.315 -3.116,1.461 -4.576,1.461 -1.462,0 -7.743,0.828 -8.473,0.877 -0.73,0.049 -2.385,-0.341 -1.461,-2.24 0.925,-1.899 3.116,-6.866 3.798,-7.986 0.683,-1.12 1.022,-1.51 2.045,-1.461 1.023,0.048 8.571,0.097 8.571,0.097 z"
   id="path406"
   inkscape:connector-curvature="0"
   style="clip-rule:evenodd;fill:#ffffff;fill-rule:evenodd" />
		</g>
		<g
   id="g412">
			<path
   d="m 530.115,61.148 c 0,0 2.532,-0.195 2.63,0.487 0.098,0.682 2.873,2.435 3.604,0.486 0.73,-1.947 1.898,-5.843 2.141,-6.622 0.243,-0.779 0.147,-1.461 -1.265,-1.851 -1.413,-0.389 -2.144,-1.266 -2.046,-2.337 0.098,-1.071 -0.34,-1.753 -1.557,-1.753 -1.217,0 -6.866,0.487 -7.597,0.584 -0.731,0.098 -1.266,0.925 -1.362,2.045 -0.098,1.12 -0.634,3.944 -0.974,5.454 -0.341,1.51 -1.218,3.36 0.681,3.506 1.899,0.148 5.745,0.001 5.745,0.001 z"
   id="path410"
   inkscape:connector-curvature="0"
   style="clip-rule:evenodd;fill:#ffffff;fill-rule:evenodd" />
		</g>
		<g
   id="g416">
			<path
   d="m 533.816,47.612 c 0,0 3.02,-0.39 2.824,0.682 -0.195,1.071 0.049,3.165 1.559,3.214 1.509,0.049 1.898,-0.146 2.337,-2.338 0.438,-2.191 1.023,-7.352 1.267,-9.446 0.243,-2.093 -0.196,-4.918 -1.072,-4.967 -0.876,-0.048 -1.607,0 -2.241,0.682 -0.632,0.682 -3.066,2.532 -3.991,0.975 -0.927,-1.559 -2.24,-1.559 -3.02,-1.169 -0.778,0.389 -4.967,2.532 -5.745,3.018 -0.78,0.487 -1.607,0.049 -1.363,2.435 0.245,2.386 0.245,4.286 0.486,5.551 0.245,1.266 0.877,2.386 3.313,2.045 2.432,-0.341 5.646,-0.682 5.646,-0.682 z"
   id="path414"
   inkscape:connector-curvature="0"
   style="clip-rule:evenodd;fill:#ffffff;fill-rule:evenodd" />
		</g>
		<g
   id="g420">
			<path
   d="m 532.744,29.401 c 0,0 -0.827,-1.413 0.585,-2.338 1.411,-0.925 5.794,-4.43 6.719,-4.967 0.925,-0.535 1.803,-0.925 2.338,0.195 0.534,1.12 2.191,4.383 2.531,5.259 0.341,0.876 0.779,2.581 -0.78,3.116 -1.557,0.536 -5.452,2.484 -6.425,2.922 -0.975,0.438 -1.608,0.438 -2.534,-1.072 -0.923,-1.508 -2.434,-3.115 -2.434,-3.115 z"
   id="path418"
   inkscape:connector-curvature="0"
   style="clip-rule:evenodd;fill:#ffffff;fill-rule:evenodd" />
		</g>
		<g
   id="g424">
			<path
   d="m 525.148,20.928 c 0,0 -1.46,-0.438 0.099,-1.753 1.558,-1.315 3.944,-2.824 5.939,-3.116 1.997,-0.293 5.211,0.39 6.818,1.558 1.605,1.169 1.704,1.996 0.486,2.824 -1.216,0.828 -5.696,3.896 -6.33,4.48 -0.633,0.584 -1.705,1.266 -2.92,0 -1.219,-1.266 -4.092,-3.993 -4.092,-3.993 z"
   id="path422"
   inkscape:connector-curvature="0"
   style="clip-rule:evenodd;fill:#ffffff;fill-rule:evenodd" />
		</g>
		<g
   id="g428">
			<path
   d="m 518.527,26.284 c 0,0 -1.656,1.023 -0.584,2.532 1.072,1.51 2.921,2.824 3.798,4.577 0.876,1.753 1.364,2.435 1.364,2.435 0,0 0.487,0.633 1.46,0.195 0.974,-0.438 4.723,-2.581 5.454,-2.922 0.731,-0.341 2.288,-1.412 0.974,-2.726 -1.315,-1.315 -5.892,-5.941 -6.721,-6.623 -0.827,-0.681 -2.337,-2.288 -3.018,-1.168 -0.682,1.119 -2.727,3.7 -2.727,3.7 z"
   id="path426"
   inkscape:connector-curvature="0"
   style="clip-rule:evenodd;fill:#ffffff;fill-rule:evenodd" />
		</g>
		<g
   id="g432">
			<path
   d="m 530.018,104.193 c 0,0 -1.168,-0.292 -1.266,1.169 -0.098,1.461 0.193,1.996 1.266,2.532 1.071,0.536 2.191,1.704 2.921,3.798 0.73,2.094 1.169,2.483 1.559,4.09 0.388,1.607 0.827,1.85 2.823,1.753 1.997,-0.097 7.109,-0.682 7.888,-0.779 0.78,-0.097 1.072,-0.828 0.975,-2.24 -0.098,-1.412 -0.389,-3.116 -1.364,-3.018 -0.974,0.097 -3.651,0.195 -4.285,0.195 -0.633,0 -1.021,-0.195 -1.071,-0.876 -0.048,-0.682 0.391,-0.926 1.266,-0.974 0.876,-0.048 3.944,-0.292 4.09,-0.292 0.147,0 0.926,-0.487 0.876,-2.045 -0.048,-1.559 -0.291,-3.116 -1.559,-3.116 -1.264,0 -7.645,0 -8.861,0.097 -1.217,0.096 -5.258,-0.294 -5.258,-0.294 z"
   id="path430"
   inkscape:connector-curvature="0"
   style="clip-rule:evenodd;fill:#ffffff;fill-rule:evenodd" />
		</g>
		<g
   id="g436">
			<path
   d="m 508.495,101.661 c 0,0 14.12,-0.341 17.043,-0.293 2.921,0.049 16.944,-0.876 16.944,-0.876 h 1.948 c 0,0 -0.146,2.191 0.293,2.921 0.438,0.73 -0.39,0.584 -1.266,0.584 -0.877,0 -12.466,-0.195 -13.05,-0.195 -0.584,0 -3.652,-0.049 -4.285,0 -0.634,0.048 -3.117,0.097 -3.312,0.195 -0.195,0.097 -3.652,0.633 -5.356,0.584 -1.705,-0.049 -7.401,-0.098 -8.472,-0.194 -1.071,-0.098 -1.608,-0.244 -1.559,-1.266 0.051,-1.021 0.489,-1.557 1.072,-1.46 z"
   id="path434"
   inkscape:connector-curvature="0"
   style="clip-rule:evenodd;fill:#ffffff;fill-rule:evenodd" />
		</g>
		<g
   id="g440">
			<path
   d="m 522.945,104.743 c 0,0 1.159,-0.316 1.289,1.138 0.127,1.454 -0.154,1.994 -1.211,2.55 -1.059,0.556 -2.15,1.745 -2.835,3.847 -0.684,2.102 -1.113,2.5 -1.466,4.11 -0.356,1.609 -0.787,1.861 -2.781,1.807 -1.994,-0.055 -7.108,-0.529 -7.886,-0.609 -0.78,-0.081 -1.087,-0.802 -1.02,-2.212 0.069,-1.409 0.322,-3.114 1.298,-3.038 0.973,0.076 3.646,0.117 4.277,0.103 0.633,-0.013 1.018,-0.216 1.052,-0.896 0.034,-0.68 -0.408,-0.914 -1.283,-0.944 -0.877,-0.03 -3.942,-0.207 -4.087,-0.204 -0.145,0.004 -0.934,-0.466 -0.919,-2.02 0.016,-1.554 0.227,-3.112 1.488,-3.139 1.264,-0.027 7.628,-0.162 8.845,-0.091 1.214,0.071 5.239,-0.402 5.239,-0.402 z"
   id="path438"
   inkscape:connector-curvature="0"
   style="clip-rule:evenodd;fill:#ffffff;fill-rule:evenodd" />
		</g>
		<g
   id="g444">
			<path
   d="m 545.696,119.482 c 0,0 -7.158,0.292 -7.888,0.39 -0.73,0.097 -2.191,-0.098 -1.559,1.461 0.633,1.558 1.948,5.356 2.045,7.498 0.097,2.143 0.487,3.117 1.657,3.02 1.167,-0.098 4.478,-0.488 4.478,-0.488 0,0 1.461,-0.097 1.655,-1.363 0.195,-1.266 0.195,-3.506 0.195,-3.506 0,0 -0.147,-0.73 -1.169,-0.584 -1.022,0.146 -2.581,0.195 -2.922,0 -0.339,-0.195 -0.243,0.049 -0.291,-0.487 -0.048,-0.536 -0.341,-1.12 0.779,-1.266 1.12,-0.146 3.506,-0.681 3.701,-1.461 0.193,-0.78 -0.098,-2.338 -0.098,-2.63 0,-0.292 -0.583,-0.584 -0.583,-0.584 z"
   id="path442"
   inkscape:connector-curvature="0"
   style="clip-rule:evenodd;fill:#ffffff;fill-rule:evenodd" />
		</g>
		<g
   id="g448">
			<path
   d="m 538.295,134.188 c 0,0 -1.362,0.243 -1.85,1.168 -0.487,0.925 -3.458,4.382 -6.817,4.967 -3.359,0.584 -6.768,0 -9.155,-2.435 -2.384,-2.435 -2.189,-3.409 -3.7,-3.409 -1.51,0 -4.821,-0.146 -5.161,-0.195 -0.341,-0.048 -1.023,0.487 -0.683,1.655 0.342,1.169 1.072,2.386 1.947,2.435 0.878,0.048 1.948,0.438 2.047,1.169 0.097,0.73 -0.098,1.12 0.973,2.143 1.072,1.022 2.143,1.266 2.533,1.461 0.388,0.194 1.996,0.146 2.533,0.389 0.534,0.244 1.313,0.974 2.142,1.363 0.827,0.39 5.211,1.169 7.985,0.39 2.775,-0.779 4.431,-1.364 4.09,-1.85 -0.34,-0.487 -1.12,-1.364 -0.486,-1.753 0.632,-0.39 2.045,-0.974 2.337,-0.39 0.291,0.584 1.703,0.828 2.338,0.098 0.632,-0.73 1.85,-1.85 1.85,-1.85 0,0 0.195,-0.293 -0.487,-0.779 -0.682,-0.487 -1.413,-1.168 -0.876,-1.753 0.534,-0.585 1.849,-0.974 2.336,-0.877 0.487,0.097 1.364,1.022 1.852,-0.097 0.487,-1.12 0.583,-2.582 0,-2.532 -0.584,0.049 -3.166,0.195 -3.8,0.292 -0.634,0.098 -1.948,0.39 -1.948,0.39 z"
   id="path446"
   inkscape:connector-curvature="0"
   style="clip-rule:evenodd;fill:#ffffff;fill-rule:evenodd" />
		</g>
		<g
   id="g452">
			<path
   d="m 517.844,122.794 c 0,0 -1.167,4.528 -1.07,6.914 0.097,2.386 0.244,3.019 -1.07,2.921 -1.316,-0.098 -5.261,-0.292 -5.261,-0.292 0,0 -1.8,-0.487 -1.751,-2.143 0.047,-1.656 0,-2.824 0.876,-2.824 0.875,0 3.116,-0.195 3.116,-0.195 0,0 0.535,-0.098 0.585,-0.585 0.047,-0.487 -0.196,-1.412 -1.755,-1.266 -1.558,0.146 -2.872,0.244 -3.31,-0.682 -0.438,-0.925 -1.121,-1.899 -0.877,-2.727 0.244,-0.828 0.148,-2.143 1.169,-1.947 1.022,0.195 3.702,0.292 5.941,0.389 2.24,0.099 3.847,0.538 3.407,2.437 z"
   id="path450"
   inkscape:connector-curvature="0"
   style="clip-rule:evenodd;fill:#ffffff;fill-rule:evenodd" />
		</g>
		<g
   id="g456">
			<path
   d="m 503.627,68.452 c 0,0 6.33,-0.243 8.862,-0.779 2.532,-0.535 3.992,-1.022 4.382,-0.584 0.39,0.439 0.877,1.363 0,2.824 -0.876,1.461 -1.947,3.944 -2.434,4.87 -0.488,0.925 -1.461,1.412 -3.214,1.753 -1.753,0.341 -6.428,0.39 -6.428,0.39 0,0 -0.923,0 -1.07,-1.363 -0.145,-1.364 -0.534,-1.948 1.169,-1.948 1.705,0 4.188,-0.049 4.87,-0.292 0.68,-0.244 1.264,-0.292 1.264,-1.072 0,-0.779 -0.485,-1.412 -1.947,-1.266 -1.459,0.146 -5.063,0.779 -5.063,0.779 0,0 -0.926,0.341 -1.072,-1.266 -0.148,-1.607 0.681,-2.046 0.681,-2.046 z"
   id="path454"
   inkscape:connector-curvature="0"
   style="clip-rule:evenodd;fill:#ffffff;fill-rule:evenodd" />
		</g>
		<g
   id="g460">
			<path
   d="m 536.153,67.089 c 0,0 0.633,-1.753 2.435,-1.364 1.801,0.39 4.723,1.413 6.427,1.85 1.704,0.438 4.188,1.169 4.188,1.169 0,0 0.291,0.877 0,1.558 -0.292,0.682 -0.731,1.705 -1.559,1.364 -0.827,-0.341 -3.798,-1.071 -3.798,-1.071 0,0 -1.411,-0.682 -1.85,0.584 -0.438,1.266 0,1.656 1.168,2.045 1.169,0.39 3.701,0.877 3.701,0.877 0,0 0.78,0.244 0.292,1.558 -0.487,1.315 -1.461,1.168 -2.337,0.974 -0.876,-0.195 -6.816,-1.071 -8.472,-1.558 -1.655,-0.487 -3.652,-0.634 -2.825,-2.435 0.829,-1.801 2.63,-5.551 2.63,-5.551 z"
   id="path458"
   inkscape:connector-curvature="0"
   style="clip-rule:evenodd;fill:#ffffff;fill-rule:evenodd" />
		</g>
		<g
   id="g464">
			<path
   d="m 540.048,56.766 c 0,0 -0.731,2.483 -1.363,3.895 -0.634,1.412 -1.265,2.727 0.974,3.214 2.24,0.487 7.305,1.898 8.57,2.337 1.266,0.438 1.997,0.779 2.532,-0.292 0.534,-1.072 1.412,-2.532 0.389,-2.824 -1.022,-0.293 -3.652,-1.218 -4.673,-1.656 -1.022,-0.438 -1.462,-0.73 -1.267,-1.364 0.195,-0.633 0.537,-0.779 1.755,-0.389 1.217,0.389 3.944,1.217 4.284,1.363 0.34,0.146 1.509,0.195 1.85,-1.071 0.341,-1.266 0.486,-2.532 -0.586,-2.921 -1.07,-0.39 -7.108,-2.289 -8.275,-2.727 -1.17,-0.438 -2.727,-0.925 -3.118,-0.292 -0.39,0.633 -1.072,2.727 -1.072,2.727 z"
   id="path462"
   inkscape:connector-curvature="0"
   style="clip-rule:evenodd;fill:#ffffff;fill-rule:evenodd" />
		</g>
		<g
   id="g468">
			<path
   d="m 543.555,43.619 c 0,0 -1.073,3.846 -1.364,5.454 -0.291,1.607 -0.827,2.094 1.461,2.921 2.29,0.828 8.569,2.922 9.058,2.922 0.487,0 1.411,-0.293 1.752,-1.655 0.341,-1.363 0.195,-2.532 -0.973,-2.922 -1.169,-0.39 -3.457,-0.877 -3.798,-1.071 -0.341,-0.195 -0.73,-0.292 -0.682,-0.974 0.048,-0.682 0.391,-0.584 1.266,-0.389 0.876,0.194 3.701,0.779 3.701,0.779 0,0 1.072,-0.146 1.169,-1.266 0.097,-1.12 0.195,-2.386 -1.559,-2.921 -1.752,-0.536 -6.573,-1.412 -7.4,-1.656 -0.831,-0.245 -2.194,-0.586 -2.631,0.778 z"
   id="path466"
   inkscape:connector-curvature="0"
   style="clip-rule:evenodd;fill:#ffffff;fill-rule:evenodd" />
		</g>
		<g
   id="g472">
			<path
   d="m 546.67,32.225 c 0,0 -2.726,0.194 -2.726,1.948 0,1.753 0.098,3.116 0.098,4.285 0,1.168 0.487,1.753 2.434,2.239 1.947,0.488 5.453,1.412 6.622,1.461 1.168,0.048 1.899,-0.828 1.948,-2.045 0.047,-1.218 -0.146,-2.824 -1.17,-2.824 -1.022,0 -3.067,-0.146 -3.602,-0.389 -0.535,-0.243 -1.121,-0.292 -0.976,-1.071 0.147,-0.779 0.391,-1.12 1.364,-0.974 0.975,0.146 3.214,0.195 3.214,0.195 0,0 0.683,-0.293 0.78,-1.169 0.097,-0.877 -0.049,-1.996 -0.292,-2.532 -0.244,-0.536 -0.925,-1.364 -1.655,-1.072 -0.73,0.292 -3.411,1.217 -3.994,1.461 -0.584,0.244 -2.045,0.487 -2.045,0.487 z"
   id="path470"
   inkscape:connector-curvature="0"
   style="clip-rule:evenodd;fill:#ffffff;fill-rule:evenodd" />
		</g>
		<g
   id="g476">
			<path
   d="m 546.572,25.895 c 0,0 0,3.311 2.631,2.63 2.63,-0.682 3.602,-0.877 3.602,-0.877 0,0 1.071,-0.73 0.779,-2.045 -0.292,-1.314 -1.072,-3.7 -1.364,-4.382 -0.291,-0.682 -0.68,-1.85 -1.558,-1.364 -0.877,0.487 -2.141,0.779 -2.434,0.098 -0.293,-0.682 0.098,-1.461 0.682,-1.753 0.583,-0.293 2.092,-1.169 1.559,-2.24 -0.537,-1.072 -1.266,-2.338 -1.754,-2.727 -0.487,-0.39 -0.973,-0.974 -1.752,-0.39 -0.78,0.584 -2.922,2.532 -3.604,3.117 -0.682,0.584 -2.045,1.071 -0.974,2.629 1.072,1.559 2.045,2.386 2.727,3.798 0.683,1.412 1.46,3.506 1.46,3.506 z"
   id="path474"
   inkscape:connector-curvature="0"
   style="clip-rule:evenodd;fill:#ffffff;fill-rule:evenodd" />
		</g>
		<g
   id="g480">
			<path
   d="m 544.43,11.287 c 0,0 -2.873,2.824 -3.504,3.506 -0.634,0.682 -1.511,1.509 -2.826,0.682 -1.315,-0.829 -3.895,-1.656 -5.746,-1.656 -1.85,0 -5.064,0.779 -7.499,2.824 -1.265,1.071 -1.217,0.682 -1.947,-0.39 -0.731,-1.071 -2.727,-3.408 -3.798,-4.09 -1.071,-0.682 -0.487,-1.558 0.487,-2.143 0.974,-0.584 2.385,-1.314 2.823,-1.558 0.439,-0.243 1.121,-0.487 1.559,0.292 0.438,0.78 1.314,1.802 2.045,1.461 0.73,-0.341 0.827,-1.753 0.586,-2.532 -0.245,-0.779 0.68,-1.704 2.53,-1.753 1.852,-0.049 4.919,-0.146 5.941,0 1.023,0.146 2.678,0.195 2.434,1.363 -0.242,1.168 0,1.948 0.683,2.142 0.681,0.195 1.266,-0.584 1.558,-1.266 0.292,-0.682 1.509,-1.12 2.726,-0.195 1.218,0.925 1.997,1.266 2.338,1.656 0.341,0.391 0.292,0.975 -0.39,1.657 z"
   id="path478"
   inkscape:connector-curvature="0"
   style="clip-rule:evenodd;fill:#ffffff;fill-rule:evenodd" />
		</g>
		<g
   id="g484">
			<path
   d="m 519.11,15.28 c 0.196,0.097 1.267,1.217 1.947,1.947 0.683,0.731 1.754,1.315 0.781,2.63 -0.974,1.315 -3.7,4.237 -4.577,5.551 -0.877,1.315 -3.066,2.775 -4.674,2.63 -1.608,-0.146 -3.798,0 -3.798,0 0,0 -0.973,-0.146 -0.096,-2.046 0.876,-1.898 1.751,-3.7 2.043,-4.188 0.292,-0.487 0.342,-1.363 1.463,-0.973 1.119,0.389 2.094,0.487 2.336,-0.098 0.245,-0.584 -0.584,-1.217 -1.363,-1.461 -0.779,-0.243 -0.634,-1.266 0,-1.947 0.634,-0.682 1.704,-2.581 2.434,-3.214 0.731,-0.633 1.509,-1.413 1.851,-0.877 0.34,0.537 1.459,1.948 1.653,2.046 z"
   id="path482"
   inkscape:connector-curvature="0"
   style="clip-rule:evenodd;fill:#ffffff;fill-rule:evenodd" />
		</g>
		<g
   id="g488">
			<path
   d="m 507.912,29.887 c 0,0 2.581,-0.097 4.382,0 1.8,0.098 3.602,-0.146 5.161,2.24 1.559,2.386 3.214,5.113 3.895,6.817 0.683,1.704 0.633,3.214 -1.656,3.117 -2.288,-0.098 -11.101,-0.098 -13.05,-0.293 -1.947,-0.194 -3.115,-0.243 -2.824,-1.364 0.293,-1.12 1.267,-3.116 1.267,-3.116 0,0 1.023,-0.097 1.85,0 0.828,0.097 4.627,0.73 4.869,-0.585 0.244,-1.314 -0.923,-1.509 -2.337,-1.752 -1.412,-0.244 -4.09,-0.146 -3.797,-1.364 0.292,-1.218 1.07,-2.288 1.461,-2.922 0.389,-0.631 0.779,-0.778 0.779,-0.778 z"
   id="path486"
   inkscape:connector-curvature="0"
   style="clip-rule:evenodd;fill:#ffffff;fill-rule:evenodd" />
		</g>
		<g
   id="g492">
			<path
   d="m 522.716,47.904 c 0,0 -0.05,1.655 0,2.337 0.047,0.681 -0.05,2.094 -1.462,2.532 -1.412,0.438 -9.252,1.461 -11.686,1.655 -2.434,0.195 -5.551,0.292 -6.525,0.098 -0.975,-0.195 -1.559,-0.244 -1.363,-1.655 0.195,-1.412 -0.049,-2.679 0.779,-2.63 0.827,0.049 3.944,0.293 5.064,0.194 1.12,-0.097 2.045,-0.097 2.142,-0.876 0.098,-0.779 -0.487,-1.169 -1.752,-1.169 -1.267,0 -5.065,-0.487 -5.065,-0.487 0,0 -0.73,-0.439 -0.488,-1.656 0.244,-1.217 0.83,-1.802 1.851,-1.85 1.023,-0.048 7.304,0.487 10.421,0.389 3.116,-0.097 5.696,0 6.426,-0.097 0.729,-0.097 1.753,0.099 1.658,3.215 z"
   id="path490"
   inkscape:connector-curvature="0"
   style="clip-rule:evenodd;fill:#ffffff;fill-rule:evenodd" />
		</g>
		<g
   id="g496">
			<path
   d="m 521.156,58.032 c 0,0 -0.488,2.094 -0.975,3.701 -0.487,1.607 -1.022,3.068 -3.408,3.213 -2.387,0.146 -10.177,0.877 -11.686,0.974 -1.509,0.097 -2.971,0.438 -3.02,-0.974 -0.047,-1.412 -0.388,-2.094 0.684,-2.24 1.07,-0.146 2.97,-0.195 4.382,-0.292 1.412,-0.097 2.63,-0.195 2.531,-1.071 -0.097,-0.877 -1.169,-1.071 -2.435,-1.071 -1.265,0 -5.162,0.487 -5.162,0.487 0,0 -0.584,-0.292 -0.486,-1.655 0.098,-1.363 0.194,-1.851 2.239,-1.948 2.045,-0.097 9.398,0.048 12.174,-0.389 2.776,-0.439 5.65,-1.608 5.162,1.265 z"
   id="path494"
   inkscape:connector-curvature="0"
   style="clip-rule:evenodd;fill:#ffffff;fill-rule:evenodd" />
		</g>
	</g>
</g>




<g
   id="g1148"
   transform="translate(-501.23728,-5.5255564)">
</g>
<g
   id="g1150"
   transform="translate(-501.23728,-5.5255564)">
</g>
<g
   id="g1152"
   transform="translate(-501.23728,-5.5255564)">
</g>
<g
   id="g1154"
   transform="translate(-501.23728,-5.5255564)">
</g>
<g
   id="g1156"
   transform="translate(-501.23728,-5.5255564)">
</g>
<g
   id="g1158"
   transform="translate(-501.23728,-5.5255564)">
</g>
</svg>