<?xml version="1.0" encoding="UTF-8" standalone="no"?>
<!-- Generator: Adobe Illustrator 17.0.0, SVG Export Plug-In . SVG Version: 6.00 Build 0)  -->

<svg
   xmlns:dc="http://purl.org/dc/elements/1.1/"
   xmlns:cc="http://creativecommons.org/ns#"
   xmlns:rdf="http://www.w3.org/1999/02/22-rdf-syntax-ns#"
   xmlns:svg="http://www.w3.org/2000/svg"
   xmlns="http://www.w3.org/2000/svg"
   xmlns:sodipodi="http://sodipodi.sourceforge.net/DTD/sodipodi-0.dtd"
   xmlns:inkscape="http://www.inkscape.org/namespaces/inkscape"
   version="1.1"
   id="Слой_1"
   x="0px"
   y="0px"
   width="57.924339"
   height="140.38269"
   viewBox="0 0 57.924339 140.38269"
   enable-background="new 0 0 1200 150"
   xml:space="preserve"
   sodipodi:docname="4.svg"
   inkscape:version="0.92.4 (5da689c313, 2019-01-14)"><metadata
   id="metadata1165"><rdf:RDF><cc:Work
       rdf:about=""><dc:format>image/svg+xml</dc:format><dc:type
         rdf:resource="http://purl.org/dc/dcmitype/StillImage" /><dc:title></dc:title></cc:Work></rdf:RDF></metadata><defs
   id="defs1163" /><sodipodi:namedview
   pagecolor="#ffffff"
   bordercolor="#666666"
   borderopacity="1"
   objecttolerance="10"
   gridtolerance="10"
   guidetolerance="10"
   inkscape:pageopacity="0"
   inkscape:pageshadow="2"
   inkscape:window-width="1920"
   inkscape:window-height="1017"
   id="namedview1161"
   showgrid="false"
   inkscape:zoom="0.66939442"
   inkscape:cx="510.2975"
   inkscape:cy="-105.08901"
   inkscape:window-x="-8"
   inkscape:window-y="-8"
   inkscape:window-maximized="1"
   inkscape:current-layer="Слой_1"
   fit-margin-top="0"
   fit-margin-left="0"
   fit-margin-right="0"
   fit-margin-bottom="0" />




<g
   id="g892"
   transform="translate(-648.92067,-4.8835984)">
	<g
   id="g504">
		<path
   d="m 704.104,55.979 c 0,0 -5.061,11.989 -6.024,14.218 -0.964,2.229 -3.555,8.373 -4.097,10.362 -0.542,1.988 -2.289,5.784 -1.205,13.013 1.085,7.228 2.289,12.952 2.651,18.554 0.361,5.603 0.723,13.012 0.723,16.145 0,3.132 -1.988,10.542 -10.844,14.217 -5.362,2.048 -15.181,5.181 -23.374,-0.241 -5.422,-3.795 -9.097,-7.771 -8.916,-16.868 0.18,-9.097 0.241,-22.109 0.241,-25.302 0,-3.193 -0.481,-16.566 -1.446,-20.482 -0.964,-3.916 -2.951,-16.145 -2.891,-23.856 0.06,-7.711 -0.482,-14.218 2.891,-22.651 3.373,-8.434 8.314,-15.904 14.458,-21.687 6.145,-5.784 14.88,-6.627 19.518,-6.507 4.639,0.12 12.772,2.892 16.145,9.398 3.374,6.506 3.976,12.952 4.579,20 0.603,7.049 0.301,8.856 -0.241,13.254 -0.542,4.398 -2.168,8.433 -2.168,8.433 z"
   id="path502"
   inkscape:connector-curvature="0"
   style="clip-rule:evenodd;fill:#976a28;fill-rule:evenodd" />
	</g>
	<g
   id="g890">
		<g
   id="g508">
			<path
   d="m 664.585,106.824 c 0,0 0.53,5.543 -5.301,6.506 0.434,-2.987 2.217,-5.735 5.301,-6.506 z"
   id="path506"
   inkscape:connector-curvature="0"
   style="clip-rule:evenodd;fill:#ffffff;fill-rule:evenodd" />
		</g>
		<g
   id="g512">
			<path
   d="m 666.272,106.824 c 0,0 5.591,-0.096 6.506,5.543 -2.843,0.337 -7.132,-2.314 -6.506,-5.543 z"
   id="path510"
   inkscape:connector-curvature="0"
   style="clip-rule:evenodd;fill:#ffffff;fill-rule:evenodd" />
		</g>
		<g
   id="g516">
			<path
   d="m 673.019,113.572 c 0,0 0.675,6.94 -6.024,7.229 -0.145,-2.843 1.639,-6.121 6.024,-7.229 z"
   id="path514"
   inkscape:connector-curvature="0"
   style="clip-rule:evenodd;fill:#ffffff;fill-rule:evenodd" />
		</g>
		<g
   id="g520">
			<path
   d="m 665.308,108.994 c 0,0 -0.819,3.614 -3.856,4.578 1.398,1.301 3.904,2.651 4.338,4.337 1.687,-1.783 3.036,-4.096 4.338,-4.337 -0.675,-0.819 -3.519,-2.169 -4.82,-4.578 z"
   id="path518"
   inkscape:connector-curvature="0"
   style="clip-rule:evenodd;fill:#ffffff;fill-rule:evenodd" />
		</g>
		<g
   id="g524">
			<path
   d="m 673.743,116.223 c 0,0 0.385,2.746 -4.579,5.059 0.964,0.386 2.506,1.35 3.132,1.928 0.627,0.578 1.736,1.832 1.928,2.651 0.819,-0.819 1.639,-4.193 5.06,-4.82 -1.687,-0.819 -4.771,-2.072 -5.541,-4.818 z"
   id="path522"
   inkscape:connector-curvature="0"
   style="clip-rule:evenodd;fill:#ffffff;fill-rule:evenodd" />
		</g>
		<g
   id="g528">
			<path
   d="m 674.224,113.572 c 0,0 4.867,-0.096 6.506,6.506 -2.121,-0.29 -6.651,-2.506 -6.506,-6.506 z"
   id="path526"
   inkscape:connector-curvature="0"
   style="clip-rule:evenodd;fill:#ffffff;fill-rule:evenodd" />
		</g>
		<g
   id="g532">
			<path
   d="m 680.73,121.282 c 0,0 0.241,4.82 -5.302,6.748 -0.096,-1.976 0.676,-5.301 5.302,-6.748 z"
   id="path530"
   inkscape:connector-curvature="0"
   style="clip-rule:evenodd;fill:#ffffff;fill-rule:evenodd" />
		</g>
		<g
   id="g536">
			<path
   d="m 667.236,122.006 c 0,0 5.253,0.096 6.747,6.024 -2.988,-0.434 -6.747,-2.361 -6.747,-6.024 z"
   id="path534"
   inkscape:connector-curvature="0"
   style="clip-rule:evenodd;fill:#ffffff;fill-rule:evenodd" />
		</g>
		<g
   id="g540">
			<path
   d="m 665.549,122.247 c 0,0 0.578,5.543 -5.06,6.506 -0.482,-1.543 1.252,-5.976 5.06,-6.506 z"
   id="path538"
   inkscape:connector-curvature="0"
   style="clip-rule:evenodd;fill:#ffffff;fill-rule:evenodd" />
		</g>
		<g
   id="g544">
			<path
   d="m 660.248,130.198 c 0,0 0.82,6.121 6.265,6.265 0.53,-1.637 -2.024,-6.794 -6.265,-6.265 z"
   id="path542"
   inkscape:connector-curvature="0"
   style="clip-rule:evenodd;fill:#ffffff;fill-rule:evenodd" />
		</g>
		<g
   id="g548">
			<path
   d="m 673.743,129.235 c 0,0 0.867,6.121 -5.784,7.229 -0.193,-2.506 2.216,-7.47 5.784,-7.229 z"
   id="path546"
   inkscape:connector-curvature="0"
   style="clip-rule:evenodd;fill:#ffffff;fill-rule:evenodd" />
		</g>
		<g
   id="g552">
			<path
   d="m 666.513,123.693 c 0,0 1.35,4.53 5.783,4.819 -2.265,0.916 -5.109,3.422 -5.06,6.024 -0.964,-2.073 -2.844,-5.302 -5.784,-5.061 1.543,-0.915 4.627,-1.831 5.061,-5.782 z"
   id="path550"
   inkscape:connector-curvature="0"
   style="clip-rule:evenodd;fill:#ffffff;fill-rule:evenodd" />
		</g>
		<g
   id="g556">
			<path
   d="m 675.188,129.235 c 0,0 5.446,-0.723 6.506,6.265 -3.374,-0.434 -5.928,-2.651 -6.506,-6.265 z"
   id="path554"
   inkscape:connector-curvature="0"
   style="clip-rule:evenodd;fill:#ffffff;fill-rule:evenodd" />
		</g>
		<g
   id="g560">
			<path
   d="m 674.947,131.162 c 0,0 -1.302,4.964 -5.301,5.543 2.505,0.338 4.097,2.072 5.06,3.132 1.06,-0.048 1.446,0 1.446,0 0,0 1.253,-3.18 4.338,-3.374 -1.881,-0.818 -5.061,-2.409 -5.543,-5.301 z"
   id="path558"
   inkscape:connector-curvature="0"
   style="clip-rule:evenodd;fill:#ffffff;fill-rule:evenodd" />
		</g>
		<g
   id="g564">
			<path
   d="m 681.453,122.729 c 0,0 1.349,4.53 5.783,4.819 -2.265,0.916 -5.108,3.422 -5.06,6.025 -0.964,-2.073 -2.843,-5.302 -5.783,-5.061 1.541,-0.916 4.626,-1.831 5.06,-5.783 z"
   id="path562"
   inkscape:connector-curvature="0"
   style="clip-rule:evenodd;fill:#ffffff;fill-rule:evenodd" />
		</g>
		<g
   id="g568">
			<path
   d="m 680.248,107.788 c 0,0 0.386,2.747 -4.578,5.061 0.964,0.386 2.506,1.349 3.132,1.927 0.627,0.578 1.735,1.831 1.928,2.65 0.819,-0.819 1.638,-4.192 5.06,-4.819 -1.686,-0.819 -4.771,-2.072 -5.542,-4.819 z"
   id="path566"
   inkscape:connector-curvature="0"
   style="clip-rule:evenodd;fill:#ffffff;fill-rule:evenodd" />
		</g>
		<g
   id="g572">
			<path
   d="m 672.778,101.042 c 0,0 -0.819,3.614 -3.855,4.578 1.397,1.301 3.903,2.651 4.337,4.338 1.687,-1.784 3.036,-4.096 4.337,-4.338 -0.674,-0.82 -3.518,-2.169 -4.819,-4.578 z"
   id="path570"
   inkscape:connector-curvature="0"
   style="clip-rule:evenodd;fill:#ffffff;fill-rule:evenodd" />
		</g>
		<g
   id="g576">
			<path
   d="m 681.212,105.62 c 0,0 4.868,-0.096 6.507,6.506 -2.121,-0.289 -6.651,-2.506 -6.507,-6.506 z"
   id="path574"
   inkscape:connector-curvature="0"
   style="clip-rule:evenodd;fill:#ffffff;fill-rule:evenodd" />
		</g>
		<g
   id="g580">
			<path
   d="m 688.031,112.964 c 0,0 0.675,4.822 -5.686,7.234 0.035,-2.139 1.697,-6.901 5.686,-7.234 z"
   id="path578"
   inkscape:connector-curvature="0"
   style="clip-rule:evenodd;fill:#ffffff;fill-rule:evenodd" />
		</g>
		<g
   id="g584">
			<path
   d="m 679.525,105.861 c 0,0 -5.205,1.302 -5.301,6.747 2.024,-0.434 5.783,-3.181 5.301,-6.747 z"
   id="path582"
   inkscape:connector-curvature="0"
   style="clip-rule:evenodd;fill:#ffffff;fill-rule:evenodd" />
		</g>
		<g
   id="g588">
			<path
   d="m 682.176,121.282 c 0,0 5.253,-0.626 6.506,5.784 -1.494,0.096 -6.699,-1.397 -6.506,-5.784 z"
   id="path586"
   inkscape:connector-curvature="0"
   style="clip-rule:evenodd;fill:#ffffff;fill-rule:evenodd" />
		</g>
		<g
   id="g592">
			<path
   d="m 689.164,128.271 c 0,0 0.627,6.024 -6.265,7.229 -0.049,-2.506 0.963,-6.506 6.265,-7.229 z"
   id="path590"
   inkscape:connector-curvature="0"
   style="clip-rule:evenodd;fill:#ffffff;fill-rule:evenodd" />
		</g>
		<g
   id="g596">
			<path
   d="m 659.766,114.776 c 0,0 4.867,-0.434 5.783,6.506 -2.361,-0.626 -6.699,-3.083 -5.783,-6.506 z"
   id="path594"
   inkscape:connector-curvature="0"
   style="clip-rule:evenodd;fill:#ffffff;fill-rule:evenodd" />
		</g>
		<g
   id="g600">
			<path
   d="m 685.79,11.401 c 0,0 -0.241,3.554 -5.06,5.542 2.47,0.482 4.578,2.169 5.301,4.819 0.663,-1.987 2.59,-4.759 5.061,-5.06 -1.205,-0.662 -4.519,-2.47 -5.302,-5.301 z"
   id="path598"
   inkscape:connector-curvature="0"
   style="clip-rule:evenodd;fill:#ffffff;fill-rule:evenodd" />
		</g>
		<g
   id="g604">
			<path
   d="m 678.802,19.594 c 0,0 -0.241,3.554 -5.06,5.543 2.47,0.482 4.578,2.168 5.301,4.819 0.663,-1.988 2.59,-4.759 5.06,-5.06 -1.204,-0.663 -4.517,-2.47 -5.301,-5.302 z"
   id="path602"
   inkscape:connector-curvature="0"
   style="clip-rule:evenodd;fill:#ffffff;fill-rule:evenodd" />
		</g>
		<g
   id="g608">
			<path
   d="m 671.091,27.063 c 0,0 -0.241,3.555 -5.061,5.543 2.47,0.482 4.579,2.169 5.301,4.819 0.663,-1.988 2.591,-4.759 5.061,-5.06 -1.204,-0.663 -4.517,-2.47 -5.301,-5.302 z"
   id="path606"
   inkscape:connector-curvature="0"
   style="clip-rule:evenodd;fill:#ffffff;fill-rule:evenodd" />
		</g>
		<g
   id="g612">
			<path
   d="m 664.103,35.497 c 0,0 -0.241,3.554 -5.06,5.543 2.47,0.482 4.578,2.169 5.301,4.82 0.663,-1.988 2.591,-4.759 5.061,-5.061 -1.205,-0.663 -4.519,-2.47 -5.302,-5.302 z"
   id="path610"
   inkscape:connector-curvature="0"
   style="clip-rule:evenodd;fill:#ffffff;fill-rule:evenodd" />
		</g>
		<g
   id="g616">
			<path
   d="m 679.043,35.015 c 0,0 -0.241,3.555 -5.061,5.542 2.47,0.482 4.578,2.169 5.301,4.82 0.663,-1.988 2.591,-4.759 5.061,-5.06 -1.204,-0.662 -4.518,-2.47 -5.301,-5.302 z"
   id="path614"
   inkscape:connector-curvature="0"
   style="clip-rule:evenodd;fill:#ffffff;fill-rule:evenodd" />
		</g>
		<g
   id="g620">
			<path
   d="m 686.273,42.245 c 0,0 -0.241,3.554 -5.061,5.543 2.47,0.482 4.578,2.168 5.302,4.819 0.663,-1.988 2.59,-4.759 5.06,-5.06 -1.205,-0.663 -4.519,-2.471 -5.301,-5.302 z"
   id="path618"
   inkscape:connector-curvature="0"
   style="clip-rule:evenodd;fill:#ffffff;fill-rule:evenodd" />
		</g>
		<g
   id="g624">
			<path
   d="m 693.984,34.292 c 0,0 -0.241,3.555 -5.06,5.543 2.47,0.482 4.578,2.169 5.302,4.82 0.662,-1.988 2.59,-4.759 5.06,-5.06 -1.206,-0.664 -4.52,-2.471 -5.302,-5.303 z"
   id="path622"
   inkscape:connector-curvature="0"
   style="clip-rule:evenodd;fill:#ffffff;fill-rule:evenodd" />
		</g>
		<g
   id="g628">
			<path
   d="m 686.031,26.823 c 0,0 -0.241,3.554 -5.06,5.542 2.47,0.482 4.578,2.169 5.301,4.819 0.662,-1.988 2.591,-4.759 5.06,-5.061 -1.204,-0.662 -4.518,-2.469 -5.301,-5.3 z"
   id="path626"
   inkscape:connector-curvature="0"
   style="clip-rule:evenodd;fill:#ffffff;fill-rule:evenodd" />
		</g>
		<g
   id="g632">
			<path
   d="m 693.984,19.111 c 0,0 -0.241,3.554 -5.06,5.543 2.47,0.482 4.578,2.169 5.302,4.82 0.662,-1.988 2.59,-4.759 5.06,-5.061 -1.206,-0.662 -4.52,-2.47 -5.302,-5.302 z"
   id="path630"
   inkscape:connector-curvature="0"
   style="clip-rule:evenodd;fill:#ffffff;fill-rule:evenodd" />
		</g>
		<g
   id="g636">
			<path
   d="m 671.332,42.486 c 0,0 -0.241,3.554 -5.06,5.542 2.47,0.482 4.578,2.169 5.302,4.82 0.662,-1.988 2.59,-4.759 5.06,-5.06 -1.205,-0.664 -4.518,-2.471 -5.302,-5.302 z"
   id="path634"
   inkscape:connector-curvature="0"
   style="clip-rule:evenodd;fill:#ffffff;fill-rule:evenodd" />
		</g>
		<g
   id="g640">
			<path
   d="m 686.513,57.426 c 0,0 -0.241,3.554 -5.06,5.542 2.47,0.482 4.578,2.169 5.301,4.819 0.663,-1.988 2.59,-4.759 5.061,-5.06 -1.205,-0.662 -4.518,-2.469 -5.302,-5.301 z"
   id="path638"
   inkscape:connector-curvature="0"
   style="clip-rule:evenodd;fill:#ffffff;fill-rule:evenodd" />
		</g>
		<g
   id="g644">
			<path
   d="m 671.814,72.848 c 0,0 -0.241,3.554 -5.06,5.543 2.47,0.482 4.578,2.168 5.301,4.819 0.663,-1.988 2.591,-4.759 5.061,-5.061 -1.205,-0.662 -4.519,-2.47 -5.302,-5.301 z"
   id="path642"
   inkscape:connector-curvature="0"
   style="clip-rule:evenodd;fill:#ffffff;fill-rule:evenodd" />
		</g>
		<g
   id="g648">
			<path
   d="m 670.85,83.45 c 0,0 -2.12,-4.578 -5.542,-4.337 -0.289,1.349 0.627,2.602 1.446,4.096 0.482,0.29 2.892,0.435 4.096,0.241 z"
   id="path646"
   inkscape:connector-curvature="0"
   style="clip-rule:evenodd;fill:#ffffff;fill-rule:evenodd" />
		</g>
		<g
   id="g652">
			<path
   d="m 670.85,71.643 c 0,0 0.048,5.109 -5.302,6.265 -0.288,-2.602 2.073,-5.976 5.302,-6.265 z"
   id="path650"
   inkscape:connector-curvature="0"
   style="clip-rule:evenodd;fill:#ffffff;fill-rule:evenodd" />
		</g>
		<g
   id="g656">
			<path
   d="m 672.537,71.643 c 0,0 4.675,-0.675 6.506,6.024 -2.265,-0.144 -6.554,-2.795 -6.506,-6.024 z"
   id="path654"
   inkscape:connector-curvature="0"
   style="clip-rule:evenodd;fill:#ffffff;fill-rule:evenodd" />
		</g>
		<g
   id="g660">
			<path
   d="m 679.043,78.872 c 0,0 0.433,2.169 -1.687,4.338 -1.253,0.964 -3.663,0.241 -4.097,0.241 1.11,-1.976 2.314,-4.724 5.784,-4.579 z"
   id="path658"
   inkscape:connector-curvature="0"
   style="clip-rule:evenodd;fill:#ffffff;fill-rule:evenodd" />
		</g>
		<g
   id="g664">
			<path
   d="m 680.489,78.631 c 0,0 2.602,0.579 3.615,1.928 -0.819,0.868 -1.976,1.687 -2.651,1.687 -1.012,-1.542 -1.156,-3.181 -0.964,-3.615 z"
   id="path662"
   inkscape:connector-curvature="0"
   style="clip-rule:evenodd;fill:#ffffff;fill-rule:evenodd" />
		</g>
		<g
   id="g668">
			<path
   d="m 686.995,72.607 c 0,0 -1.157,4.048 -5.301,5.301 1.349,0.578 2.939,0.819 3.615,1.928 1.976,-1.591 3.133,-3.084 3.373,-3.856 -0.915,-1.06 -1.832,-1.783 -1.687,-3.373 z"
   id="path666"
   inkscape:connector-curvature="0"
   style="clip-rule:evenodd;fill:#ffffff;fill-rule:evenodd" />
		</g>
		<g
   id="g672">
			<path
   d="m 686.273,71.161 c 0,0 -0.386,5.301 -5.784,6.506 0.434,-2.939 2.361,-5.976 5.784,-6.506 z"
   id="path670"
   inkscape:connector-curvature="0"
   style="clip-rule:evenodd;fill:#ffffff;fill-rule:evenodd" />
		</g>
		<g
   id="g676">
			<path
   d="m 687.236,71.161 c 0,0 1.205,-0.675 3.614,0.964 -0.578,1.59 -1.446,2.891 -1.446,2.891 -0.915,-0.963 -2.168,-3.277 -2.168,-3.855 z"
   id="path674"
   inkscape:connector-curvature="0"
   style="clip-rule:evenodd;fill:#ffffff;fill-rule:evenodd" />
		</g>
		<g
   id="g680">
			<path
   d="m 684.826,70.438 c 0,0 -4.578,1.783 -4.819,5.302 -0.82,-1.301 -2.603,-4.772 -4.819,-4.578 0.867,-0.771 3.662,-1.253 4.578,-5.302 0.627,1.349 2.555,4.916 5.06,4.578 z"
   id="path678"
   inkscape:connector-curvature="0"
   style="clip-rule:evenodd;fill:#ffffff;fill-rule:evenodd" />
		</g>
		<g
   id="g684">
			<path
   d="m 657.597,71.884 c 0,0 5.398,-0.579 6.506,6.024 -2.506,0.048 -6.458,-2.313 -6.506,-6.024 z"
   id="path682"
   inkscape:connector-curvature="0"
   style="clip-rule:evenodd;fill:#ffffff;fill-rule:evenodd" />
		</g>
		<g
   id="g688">
			<path
   d="m 664.103,79.113 c 0,0 -0.096,1.832 -0.723,3.374 -1.398,-0.53 -2.506,-1.88 -2.891,-2.169 1.397,-0.771 3.181,-1.494 3.614,-1.205 z"
   id="path686"
   inkscape:connector-curvature="0"
   style="clip-rule:evenodd;fill:#ffffff;fill-rule:evenodd" />
		</g>
		<g
   id="g692">
			<path
   d="m 664.344,67.064 c 0,0 2.072,3.133 4.096,4.097 -1.348,1.253 -3.759,3.084 -3.855,4.578 -1.301,-2.362 -3.422,-4.675 -4.578,-4.578 1.108,-0.53 4.048,-2.747 4.337,-4.097 z"
   id="path690"
   inkscape:connector-curvature="0"
   style="clip-rule:evenodd;fill:#ffffff;fill-rule:evenodd" />
		</g>
		<g
   id="g696">
			<path
   d="m 663.621,63.45 c 0,0 -0.289,6.988 -6.025,6.988 0.049,-2.987 1.977,-5.205 6.025,-6.988 z"
   id="path694"
   inkscape:connector-curvature="0"
   style="clip-rule:evenodd;fill:#ffffff;fill-rule:evenodd" />
		</g>
		<g
   id="g700">
			<path
   d="m 657.356,56.462 c 0,0 6.169,0.53 6.265,6.265 -1.783,0 -6.458,-2.41 -6.265,-6.265 z"
   id="path698"
   inkscape:connector-curvature="0"
   style="clip-rule:evenodd;fill:#ffffff;fill-rule:evenodd" />
		</g>
		<g
   id="g704">
			<path
   d="m 655.91,56.462 c 0,0 0.241,1.88 -1.928,5.06 -0.385,-1.157 -1.012,-3.277 -0.963,-3.855 1.253,-0.868 2.891,-1.205 2.891,-1.205 z"
   id="path702"
   inkscape:connector-curvature="0"
   style="clip-rule:evenodd;fill:#ffffff;fill-rule:evenodd" />
		</g>
		<g
   id="g708">
			<path
   d="m 656.633,58.631 c 0,0 1.639,3.952 5.302,4.82 -1.832,0.868 -3.374,0.482 -5.061,4.82 -0.434,-0.964 -1.205,-2.844 -2.41,-3.373 -0.867,-0.82 -0.723,-2.121 -0.482,-2.41 1.013,-0.773 2.41,-2.171 2.651,-3.857 z"
   id="path706"
   inkscape:connector-curvature="0"
   style="clip-rule:evenodd;fill:#ffffff;fill-rule:evenodd" />
		</g>
		<g
   id="g712">
			<path
   d="m 680.489,63.45 c 0,0 5.205,0.53 5.784,6.747 -2.266,-0.916 -6.169,-2.554 -5.784,-6.747 z"
   id="path710"
   inkscape:connector-curvature="0"
   style="clip-rule:evenodd;fill:#ffffff;fill-rule:evenodd" />
		</g>
		<g
   id="g716">
			<path
   d="m 694.225,62.727 c 0,0 -0.241,6.603 -6.748,7.229 0.434,-2.361 0.675,-5.976 6.748,-7.229 z"
   id="path714"
   inkscape:connector-curvature="0"
   style="clip-rule:evenodd;fill:#ffffff;fill-rule:evenodd" />
		</g>
		<g
   id="g720">
			<path
   d="m 687.477,55.739 c 0,0 5.495,0.048 6.507,6.265 -3.037,-0.289 -6.748,-2.554 -6.507,-6.265 z"
   id="path718"
   inkscape:connector-curvature="0"
   style="clip-rule:evenodd;fill:#ffffff;fill-rule:evenodd" />
		</g>
		<g
   id="g724">
			<path
   d="m 686.031,55.979 c 0,0 -0.723,5.928 -5.783,6.025 0.771,-3.373 2.024,-5.831 5.783,-6.025 z"
   id="path722"
   inkscape:connector-curvature="0"
   style="clip-rule:evenodd;fill:#ffffff;fill-rule:evenodd" />
		</g>
		<g
   id="g728">
			<path
   d="m 678.561,48.028 c 0,0 0.723,5.735 -6.024,6.747 -0.626,-2.699 1.735,-6.121 6.024,-6.747 z"
   id="path726"
   inkscape:connector-curvature="0"
   style="clip-rule:evenodd;fill:#ffffff;fill-rule:evenodd" />
		</g>
		<g
   id="g732">
			<path
   d="m 680.007,48.028 c 0,0 5.494,0.096 6.024,6.747 -2.843,-0.722 -6.506,-3.518 -6.024,-6.747 z"
   id="path730"
   inkscape:connector-curvature="0"
   style="clip-rule:evenodd;fill:#ffffff;fill-rule:evenodd" />
		</g>
		<g
   id="g736">
			<path
   d="m 679.284,50.197 c 0,0 1.832,4.723 5.302,4.82 -1.638,1.109 -4.289,2.265 -4.82,4.82 -1.398,-2.025 -2.072,-4.048 -5.06,-4.338 1.783,-1.158 4.674,-2.748 4.578,-5.302 z"
   id="path734"
   inkscape:connector-curvature="0"
   style="clip-rule:evenodd;fill:#ffffff;fill-rule:evenodd" />
		</g>
		<g
   id="g740">
			<path
   d="m 663.621,48.51 c 0,0 0.289,6.073 -6.506,6.988 0.241,-2.41 2.024,-6.554 6.506,-6.988 z"
   id="path738"
   inkscape:connector-curvature="0"
   style="clip-rule:evenodd;fill:#ffffff;fill-rule:evenodd" />
		</g>
		<g
   id="g744">
			<path
   d="m 664.826,48.51 c 0,0 5.784,0.867 5.784,6.506 -1.639,-0.337 -5.928,-2.458 -5.784,-6.506 z"
   id="path742"
   inkscape:connector-curvature="0"
   style="clip-rule:evenodd;fill:#ffffff;fill-rule:evenodd" />
		</g>
		<g
   id="g748">
			<path
   d="m 664.103,51.161 c 0,0 1.398,3.47 4.337,4.578 -1.445,0.674 -3.711,2.072 -4.096,4.337 -1.012,-1.494 -2.795,-4.097 -4.82,-4.097 1.977,-1.252 4.29,-2.698 4.579,-4.818 z"
   id="path746"
   inkscape:connector-curvature="0"
   style="clip-rule:evenodd;fill:#ffffff;fill-rule:evenodd" />
		</g>
		<g
   id="g752">
			<path
   d="m 653.982,50.92 c 0,0 2.025,1.639 1.928,4.578 -1.012,-0.289 -1.783,-0.241 -2.169,-0.723 -0.289,-1.542 -0.482,-3.133 0.241,-3.855 z"
   id="path750"
   inkscape:connector-curvature="0"
   style="clip-rule:evenodd;fill:#ffffff;fill-rule:evenodd" />
		</g>
		<g
   id="g756">
			<path
   d="m 657.115,41.281 c 0,0 6.169,0.337 6.506,6.266 -2.506,-0.194 -5.735,-1.929 -6.506,-6.266 z"
   id="path754"
   inkscape:connector-curvature="0"
   style="clip-rule:evenodd;fill:#ffffff;fill-rule:evenodd" />
		</g>
		<g
   id="g760">
			<path
   d="m 656.392,43.69 c 0,0 1.398,3.277 4.578,4.338 -1.543,0.867 -3.759,2.555 -4.338,4.578 -0.867,-1.253 -2.506,-2.554 -2.651,-2.892 -0.674,-1.108 -0.241,-2.891 -0.241,-2.891 0,0 2.556,-1.349 2.652,-3.133 z"
   id="path758"
   inkscape:connector-curvature="0"
   style="clip-rule:evenodd;fill:#ffffff;fill-rule:evenodd" />
		</g>
		<g
   id="g764">
			<path
   d="m 693.742,47.546 c 0,0 -0.06,6.506 -6.747,7.229 0.361,-1.928 1.567,-6.928 6.747,-7.229 z"
   id="path762"
   inkscape:connector-curvature="0"
   style="clip-rule:evenodd;fill:#ffffff;fill-rule:evenodd" />
		</g>
		<g
   id="g768">
			<path
   d="m 694.707,47.546 c 0,0 4.096,-0.061 5.06,3.855 0.06,1.205 -0.061,1.807 -0.482,2.169 -1.567,-0.903 -4.398,-2.65 -4.578,-6.024 z"
   id="path766"
   inkscape:connector-curvature="0"
   style="clip-rule:evenodd;fill:#ffffff;fill-rule:evenodd" />
		</g>
		<g
   id="g772">
			<path
   d="m 693.984,49.714 c 0,0 1.627,4.579 4.578,5.061 -1.385,1.084 -3.554,2.711 -4.096,4.819 -1.205,-1.747 -2.531,-4.217 -4.82,-4.096 1.446,-0.964 4.157,-3.072 4.338,-5.784 z"
   id="path770"
   inkscape:connector-curvature="0"
   style="clip-rule:evenodd;fill:#ffffff;fill-rule:evenodd" />
		</g>
		<g
   id="g776">
			<path
   d="m 698.562,55.979 c 0,0 -3.253,2.169 -3.615,6.025 0.783,-0.362 1.687,-0.482 1.687,-0.482 0,0 1.566,-1.928 1.928,-5.543 z"
   id="path774"
   inkscape:connector-curvature="0"
   style="clip-rule:evenodd;fill:#ffffff;fill-rule:evenodd" />
		</g>
		<g
   id="g780">
			<path
   d="m 670.609,41.04 c 0,0 -0.482,4.88 -5.543,6.506 0.483,-2.651 0.543,-5.422 5.543,-6.506 z"
   id="path778"
   inkscape:connector-curvature="0"
   style="clip-rule:evenodd;fill:#ffffff;fill-rule:evenodd" />
		</g>
		<g
   id="g784">
			<path
   d="m 672.055,41.04 c -0.04,-0.298 6.024,-0.542 6.506,6.024 -3.855,-1.144 -6.024,-2.409 -6.506,-6.024 z"
   id="path782"
   inkscape:connector-curvature="0"
   style="clip-rule:evenodd;fill:#ffffff;fill-rule:evenodd" />
		</g>
		<g
   id="g788">
			<path
   d="m 664.826,33.329 c 0,0 5.121,-0.121 6.025,6.746 -1.326,-0.481 -5.904,-1.927 -6.025,-6.746 z"
   id="path786"
   inkscape:connector-curvature="0"
   style="clip-rule:evenodd;fill:#ffffff;fill-rule:evenodd" />
		</g>
		<g
   id="g792">
			<path
   d="m 663.621,33.329 c 0,0 -1.145,6.988 -6.747,6.988 -0.181,-3.735 3.133,-6.687 6.747,-6.988 z"
   id="path790"
   inkscape:connector-curvature="0"
   style="clip-rule:evenodd;fill:#ffffff;fill-rule:evenodd" />
		</g>
		<g
   id="g796">
			<path
   d="m 678.32,32.847 c 0,0 0.602,6.205 -6.506,7.229 -0.361,-1.627 1.988,-7.47 6.506,-7.229 z"
   id="path794"
   inkscape:connector-curvature="0"
   style="clip-rule:evenodd;fill:#ffffff;fill-rule:evenodd" />
		</g>
		<g
   id="g800">
			<path
   d="m 680.007,32.847 c 0,0 5.542,0.784 5.783,6.507 -2.349,-0.182 -6.385,-2.712 -5.783,-6.507 z"
   id="path798"
   inkscape:connector-curvature="0"
   style="clip-rule:evenodd;fill:#ffffff;fill-rule:evenodd" />
		</g>
		<g
   id="g804">
			<path
   d="m 686.754,40.558 c 0,0 6.506,-0.783 6.988,6.266 -2.529,-0.483 -6.687,-2.35 -6.988,-6.266 z"
   id="path802"
   inkscape:connector-curvature="0"
   style="clip-rule:evenodd;fill:#ffffff;fill-rule:evenodd" />
		</g>
		<g
   id="g808">
			<path
   d="m 685.79,40.317 c 0,0 -0.542,5.723 -5.783,6.747 0.121,-1.446 0.241,-5.362 5.783,-6.747 z"
   id="path806"
   inkscape:connector-curvature="0"
   style="clip-rule:evenodd;fill:#ffffff;fill-rule:evenodd" />
		</g>
		<g
   id="g812">
			<path
   d="m 700.49,40.076 c 0,0 -0.362,5.542 -5.783,6.506 -0.182,-1.626 1.325,-6.205 5.783,-6.506 z"
   id="path810"
   inkscape:connector-curvature="0"
   style="clip-rule:evenodd;fill:#ffffff;fill-rule:evenodd" />
		</g>
		<g
   id="g816">
			<path
   d="m 694.225,32.124 c 0,0 5.301,0.422 6.265,6.988 -3.434,-1.144 -5.844,-3.012 -6.265,-6.988 z"
   id="path814"
   inkscape:connector-curvature="0"
   style="clip-rule:evenodd;fill:#ffffff;fill-rule:evenodd" />
		</g>
		<g
   id="g820">
			<path
   d="m 693.501,32.365 c 0,0 0.061,5.723 -6.506,6.988 -0.241,-1.988 1.868,-6.988 6.506,-6.988 z"
   id="path818"
   inkscape:connector-curvature="0"
   style="clip-rule:evenodd;fill:#ffffff;fill-rule:evenodd" />
		</g>
		<g
   id="g824">
			<path
   d="m 685.309,25.136 c 0,0 0.482,5.181 -5.543,6.506 0.663,-2.711 1.808,-5.301 5.543,-6.506 z"
   id="path822"
   inkscape:connector-curvature="0"
   style="clip-rule:evenodd;fill:#ffffff;fill-rule:evenodd" />
		</g>
		<g
   id="g828">
			<path
   d="m 672.296,25.618 c 0,0 5.181,-0.121 5.783,6.265 -2.349,-0.602 -6.385,-2.711 -5.783,-6.265 z"
   id="path826"
   inkscape:connector-curvature="0"
   style="clip-rule:evenodd;fill:#ffffff;fill-rule:evenodd" />
		</g>
		<g
   id="g832">
			<path
   d="m 670.609,25.618 c 0,0 -0.121,5.12 -6.024,6.747 -0.422,-1.687 1.747,-6.145 6.024,-6.747 z"
   id="path830"
   inkscape:connector-curvature="0"
   style="clip-rule:evenodd;fill:#ffffff;fill-rule:evenodd" />
		</g>
		<g
   id="g836">
			<path
   d="m 663.862,20.798 c 0,0 2.108,4.097 4.578,4.338 -2.771,1.988 -4.337,3.253 -4.578,4.819 -1.084,-1.627 -2.591,-3.976 -3.615,-3.855 -0.241,-1.024 1.506,-1.747 2.169,-2.891 0.663,-1.146 1.446,-2.411 1.446,-2.411 z"
   id="path834"
   inkscape:connector-curvature="0"
   style="clip-rule:evenodd;fill:#ffffff;fill-rule:evenodd" />
		</g>
		<g
   id="g840">
			<path
   d="m 665.79,18.388 c 0,0 4.94,0.964 4.82,6.266 -2.349,-0.723 -5.18,-1.868 -6.024,-5.061 0.18,-0.361 1.204,-1.205 1.204,-1.205 z"
   id="path838"
   inkscape:connector-curvature="0"
   style="clip-rule:evenodd;fill:#ffffff;fill-rule:evenodd" />
		</g>
		<g
   id="g844">
			<path
   d="m 671.573,13.328 c 0,0 2.109,3.253 4.096,3.374 -1.627,1.084 -4.338,2.891 -4.579,5.06 -1.928,-2.891 -3.132,-4.518 -4.337,-4.337 1.145,-1.326 3.013,-3.796 4.82,-4.097 z"
   id="path842"
   inkscape:connector-curvature="0"
   style="clip-rule:evenodd;fill:#ffffff;fill-rule:evenodd" />
		</g>
		<g
   id="g848">
			<path
   d="m 675.67,11.401 c 0,0 2.289,1.687 2.409,5.06 -2.35,-0.602 -5,-1.808 -5.783,-3.133 1.085,-1.686 2.29,-1.807 3.374,-1.927 z"
   id="path846"
   inkscape:connector-curvature="0"
   style="clip-rule:evenodd;fill:#ffffff;fill-rule:evenodd" />
		</g>
		<g
   id="g852">
			<path
   d="m 676.875,11.16 1.687,2.892 c 0,0 1.626,-3.012 3.133,-3.614 -1.508,-0.182 -2.893,-0.121 -4.82,0.722 z"
   id="path850"
   inkscape:connector-curvature="0"
   style="clip-rule:evenodd;fill:#ffffff;fill-rule:evenodd" />
		</g>
		<g
   id="g856">
			<path
   d="m 685.068,10.195 c 0,0 0.12,5.061 -5.784,5.784 0.723,-2.048 2.772,-5.603 3.615,-5.784 0.843,-0.18 2.169,0 2.169,0 z"
   id="path854"
   inkscape:connector-curvature="0"
   style="clip-rule:evenodd;fill:#ffffff;fill-rule:evenodd" />
		</g>
		<g
   id="g860">
			<path
   d="m 678.079,17.425 c 0,0 0.482,5.904 -6.265,7.229 -0.12,-1.989 1.446,-6.928 6.265,-7.229 z"
   id="path858"
   inkscape:connector-curvature="0"
   style="clip-rule:evenodd;fill:#ffffff;fill-rule:evenodd" />
		</g>
		<g
   id="g864">
			<path
   d="m 679.284,17.425 c 0,0 5.121,-0.181 6.265,6.747 -2.47,-0.12 -5.963,-2.59 -6.265,-6.747 z"
   id="path862"
   inkscape:connector-curvature="0"
   style="clip-rule:evenodd;fill:#ffffff;fill-rule:evenodd" />
		</g>
		<g
   id="g868">
			<path
   d="m 686.754,10.437 c 0,0 0.964,5.18 6.506,5.542 0.301,-1.687 -0.723,-3.855 -1.928,-4.578 -1.204,-0.783 -3.192,-1.266 -4.578,-0.964 z"
   id="path866"
   inkscape:connector-curvature="0"
   style="clip-rule:evenodd;fill:#ffffff;fill-rule:evenodd" />
		</g>
		<g
   id="g872">
			<path
   d="m 693.02,17.184 c 0,0 0.723,5.662 -6.024,6.988 -0.182,-2.952 1.384,-6.084 6.024,-6.988 z"
   id="path870"
   inkscape:connector-curvature="0"
   style="clip-rule:evenodd;fill:#ffffff;fill-rule:evenodd" />
		</g>
		<g
   id="g876">
			<path
   d="m 686.995,25.136 c 0,0 6.988,0.241 6.506,6.506 -3.433,-0.964 -6.385,-3.554 -6.506,-6.506 z"
   id="path874"
   inkscape:connector-curvature="0"
   style="clip-rule:evenodd;fill:#ffffff;fill-rule:evenodd" />
		</g>
		<g
   id="g880">
			<path
   d="m 700.49,24.413 c 0,0 0.362,4.94 -5.783,6.747 -0.362,-2.048 1.204,-5.964 5.783,-6.747 z"
   id="path878"
   inkscape:connector-curvature="0"
   style="clip-rule:evenodd;fill:#ffffff;fill-rule:evenodd" />
		</g>
		<g
   id="g884">
			<path
   d="m 694.707,17.184 c 0,0 3.313,1.144 4.096,1.927 0.784,0.783 2.049,2.229 1.446,4.338 -1.024,0.422 -6.808,-3.373 -5.542,-6.265 z"
   id="path882"
   inkscape:connector-curvature="0"
   style="clip-rule:evenodd;fill:#ffffff;fill-rule:evenodd" />
		</g>
		<g
   id="g888">
			<path
   d="m 659.766,26.823 c 0,0 3.735,2.168 3.614,5.542 -1.326,-0.181 -3.555,-0.783 -5.06,-2.651 -0.663,-1.024 0.904,-2.951 1.446,-2.891 z"
   id="path886"
   inkscape:connector-curvature="0"
   style="clip-rule:evenodd;fill:#ffffff;fill-rule:evenodd" />
		</g>
	</g>
</g>



<g
   id="g1148"
   transform="translate(-648.92067,-4.8835984)">
</g>
<g
   id="g1150"
   transform="translate(-648.92067,-4.8835984)">
</g>
<g
   id="g1152"
   transform="translate(-648.92067,-4.8835984)">
</g>
<g
   id="g1154"
   transform="translate(-648.92067,-4.8835984)">
</g>
<g
   id="g1156"
   transform="translate(-648.92067,-4.8835984)">
</g>
<g
   id="g1158"
   transform="translate(-648.92067,-4.8835984)">
</g>
</svg>