<?xml version="1.0" encoding="UTF-8" standalone="no"?>
<!-- Generator: Adobe Illustrator 17.0.0, SVG Export Plug-In . SVG Version: 6.00 Build 0)  -->

<svg
   xmlns:dc="http://purl.org/dc/elements/1.1/"
   xmlns:cc="http://creativecommons.org/ns#"
   xmlns:rdf="http://www.w3.org/1999/02/22-rdf-syntax-ns#"
   xmlns:svg="http://www.w3.org/2000/svg"
   xmlns="http://www.w3.org/2000/svg"
   xmlns:sodipodi="http://sodipodi.sourceforge.net/DTD/sodipodi-0.dtd"
   xmlns:inkscape="http://www.inkscape.org/namespaces/inkscape"
   version="1.1"
   id="Слой_1"
   x="0px"
   y="0px"
   width="53.24086"
   height="140.38286"
   viewBox="0 0 53.24086 140.38286"
   enable-background="new 0 0 1200 150"
   xml:space="preserve"
   sodipodi:docname="5.svg"
   inkscape:version="0.92.4 (5da689c313, 2019-01-14)"><metadata
   id="metadata1165"><rdf:RDF><cc:Work
       rdf:about=""><dc:format>image/svg+xml</dc:format><dc:type
         rdf:resource="http://purl.org/dc/dcmitype/StillImage" /><dc:title></dc:title></cc:Work></rdf:RDF></metadata><defs
   id="defs1163" /><sodipodi:namedview
   pagecolor="#ffffff"
   bordercolor="#666666"
   borderopacity="1"
   objecttolerance="10"
   gridtolerance="10"
   guidetolerance="10"
   inkscape:pageopacity="0"
   inkscape:pageshadow="2"
   inkscape:window-width="1920"
   inkscape:window-height="1017"
   id="namedview1161"
   showgrid="false"
   inkscape:zoom="0.66939442"
   inkscape:cx="335.12216"
   inkscape:cy="-102.48198"
   inkscape:window-x="-8"
   inkscape:window-y="-8"
   inkscape:window-maximized="1"
   inkscape:current-layer="Слой_1"
   fit-margin-top="0"
   fit-margin-left="0"
   fit-margin-right="0"
   fit-margin-bottom="0" />





<g
   id="g1004"
   transform="translate(-799.62034,-4.7547359)">
	<g
   id="g896">
		<path
   d="m 809.242,16.999 c 0,0 5.264,-11.544 16.623,-12.191 11.359,-0.646 15.331,4.71 18.101,9.236 2.771,4.525 5.541,11.451 7.388,20.317 1.847,8.866 2.124,15.793 0,24.751 -2.124,8.958 -3.417,18.194 -1.847,31.769 1.57,13.576 3.14,23.089 3.325,26.228 0.185,3.14 -0.185,17.455 -11.082,24.011 -10.897,6.558 -21.98,3.602 -24.381,1.478 -2.401,-2.123 -6.28,-5.91 -7.758,-11.821 0,0 0.518,-2.734 -0.369,-3.325 -0.887,-0.591 -1.33,-2.881 -1.478,-4.802 -0.148,-1.921 0.591,-3.768 -0.369,-4.802 -0.96,-1.034 -0.813,-1.773 -0.739,-4.064 0.074,-2.29 0,-3.694 0,-3.694 0,0 0.739,-0.591 0,-1.477 -0.739,-0.887 -1.33,-2.955 -1.109,-4.802 0.221,-1.847 -0.295,-4.064 0.739,-4.433 1.034,-0.369 2.364,-1.108 1.846,-2.955 -0.517,-1.847 -3.398,-15.959 -4.432,-19.948 -1.034,-3.989 -2.438,-7.314 -2.216,-8.866 0.222,-1.552 0.37,-1.847 -0.37,-3.325 -0.739,-1.478 -1.478,-4.433 -1.108,-5.911 0.37,-1.478 0.37,-3.177 0.37,-4.433 0,-1.256 -0.887,-3.768 -0.739,-6.28 0.148,-2.512 0,-4.728 0.739,-5.172 0.739,-0.443 0.739,-0.37 0.739,-1.477 0,-1.109 0.221,-3.768 0.739,-5.541 0.517,-1.774 0.443,-2.291 1.108,-2.956 0.665,-0.665 0.591,-0.443 0.739,-1.846 0.148,-1.404 0.961,-4.138 2.955,-8.497 1.995,-4.359 2.586,-5.172 2.586,-5.172 z"
   id="path894"
   inkscape:connector-curvature="0"
   style="clip-rule:evenodd;fill:#684020;fill-rule:evenodd" />
	</g>
	<g
   id="g1002">
		<g
   id="g900">
			<path
   d="m 813.306,24.757 c 0,0 6.502,-4.211 14.407,-4.432 4.581,-0.222 7.758,0.443 10.344,1.477 -0.739,-2.143 -3.399,-7.831 -5.911,-9.605 -2.511,-1.773 -7.905,-2.068 -11.082,0.37 -3.177,2.437 -6.503,8.126 -7.758,12.19 z"
   id="path898"
   inkscape:connector-curvature="0"
   style="clip-rule:evenodd;fill:#ffffff;fill-rule:evenodd" />
		</g>
		<g
   id="g904">
			<path
   d="m 810.351,33.992 c 0,0 8.275,-6.723 15.885,-7.019 7.462,-0.295 11.747,0.813 14.407,2.217 -0.148,-2.217 -1.109,-5.172 -1.109,-5.172 0,0 -1.847,-1.034 -5.171,-1.478 -3.325,-0.443 -8.422,-0.074 -11.821,0.739 -3.398,0.812 -8.053,2.512 -9.235,3.325 -1.183,0.812 -2.809,4.58 -2.956,7.388 z"
   id="path902"
   inkscape:connector-curvature="0"
   style="clip-rule:evenodd;fill:#ffffff;fill-rule:evenodd" />
		</g>
		<g
   id="g908">
			<path
   d="m 807.765,43.596 c 0,-0.296 10.122,-9.087 18.471,-9.236 8.348,-0.148 14.333,1.256 16.993,3.695 -0.443,-3.029 -1.108,-5.542 -1.108,-5.542 0,0 0.443,-0.812 -2.586,-1.477 -3.029,-0.664 -10.195,-2.069 -12.56,-1.847 -2.364,0.222 -5.984,0.443 -13.668,4.802 -4.359,2.734 -5.468,3.62 -5.541,5.91 -0.075,2.292 -10e-4,3.991 -10e-4,3.695 z"
   id="path906"
   inkscape:connector-curvature="0"
   style="clip-rule:evenodd;fill:#ffffff;fill-rule:evenodd" />
		</g>
		<g
   id="g912">
			<path
   d="m 807.765,58.003 c 0,0 7.241,-7.093 11.452,-9.974 4.211,-2.881 8.053,-5.32 12.191,-4.063 4.138,1.256 10.048,4.802 10.712,5.172 0.665,0.37 0.961,-0.813 1.108,-2.217 0.148,-1.404 0.813,-3.62 -0.739,-4.433 -1.551,-0.813 -9.605,-4.876 -15.515,-4.064 -5.911,0.813 -12.19,4.803 -14.776,7.388 -2.586,2.586 -5.32,4.138 -5.172,6.28 0.148,2.144 0.739,5.911 0.739,5.911 z"
   id="path910"
   inkscape:connector-curvature="0"
   style="clip-rule:evenodd;fill:#ffffff;fill-rule:evenodd" />
		</g>
		<g
   id="g916">
			<path
   d="m 807.765,61.698 0.369,3.325 c 0,0 0.591,1.847 2.217,0 1.626,-1.847 8.275,-8.866 11.082,-10.713 2.807,-1.847 6.649,-3.62 10.713,-1.109 4.064,2.512 8.127,4.802 8.127,4.802 0,0 0.813,0.517 1.477,-1.847 0.665,-2.364 1.035,-4.211 -0.739,-5.171 -1.773,-0.961 -10.417,-5.467 -12.929,-5.172 -2.512,0.296 -7.166,2.512 -11.082,5.911 -3.916,3.399 -9.235,9.974 -9.235,9.974 z"
   id="path914"
   inkscape:connector-curvature="0"
   style="clip-rule:evenodd;fill:#ffffff;fill-rule:evenodd" />
		</g>
		<g
   id="g920">
			<path
   d="m 816.631,62.437 22.534,-2.586 c 0,0 -7.61,-5.763 -11.822,-5.541 -4.211,0.221 -9.678,6.353 -10.712,8.127 z"
   id="path918"
   inkscape:connector-curvature="0"
   style="clip-rule:evenodd;fill:#ffffff;fill-rule:evenodd" />
		</g>
		<g
   id="g924">
			<path
   d="m 815.892,105.657 c 0,0 10.566,-5.32 22.534,-3.325 -0.518,-3.399 -0.739,-5.172 -0.739,-5.172 0,0 -3.325,-1.404 -12.19,0.37 -8.866,1.773 -10.344,2.586 -10.344,2.586 z"
   id="path922"
   inkscape:connector-curvature="0"
   style="clip-rule:evenodd;fill:#ffffff;fill-rule:evenodd" />
		</g>
		<g
   id="g928">
			<path
   d="m 816.631,114.893 c 0,0 8.349,-6.132 22.903,-2.955 -0.443,-4.359 -0.739,-5.911 -0.739,-5.911 0,0 -6.723,-0.886 -11.452,-0.369 -4.728,0.517 -10.048,2.216 -11.082,3.694 -0.148,2.881 0.37,5.541 0.37,5.541 z"
   id="path926"
   inkscape:connector-curvature="0"
   style="clip-rule:evenodd;fill:#ffffff;fill-rule:evenodd" />
		</g>
		<g
   id="g932">
			<path
   d="m 817.739,124.497 c 0,0 8.275,-6.944 21.795,-3.324 0.665,-3.916 0.37,-6.28 0.37,-6.28 0,0 -7.462,-1.478 -11.452,-0.739 -3.989,0.739 -11.156,2.734 -11.821,3.694 -0.665,0.96 -0.221,1.699 0,2.955 0.221,1.256 1.108,3.694 1.108,3.694 z"
   id="path930"
   inkscape:connector-curvature="0"
   style="clip-rule:evenodd;fill:#ffffff;fill-rule:evenodd" />
		</g>
		<g
   id="g936">
			<path
   d="m 820.325,125.975 c 0,0 -2.956,1.33 -0.739,5.172 2.216,3.842 8.423,6.649 14.777,4.063 6.354,-2.586 5.985,-8.866 5.911,-11.082 -2.586,-0.591 -5.024,-0.665 -7.388,-1.108 -2.364,-0.443 -6.871,0.148 -8.865,1.108 -1.997,0.96 -3.696,1.847 -3.696,1.847 z"
   id="path934"
   inkscape:connector-curvature="0"
   style="clip-rule:evenodd;fill:#ffffff;fill-rule:evenodd" />
		</g>
		<g
   id="g940">
			<path
   d="m 842.12,24.018 0.739,4.063 c 0,0 -0.296,1.625 2.586,2.586 2.881,0.96 4.802,1.846 4.802,1.846 0,0 -1.034,-5.762 -1.847,-7.019 -0.813,-1.255 -6.28,-1.476 -6.28,-1.476 z"
   id="path938"
   inkscape:connector-curvature="0"
   style="clip-rule:evenodd;fill:#ffffff;fill-rule:evenodd" />
		</g>
		<g
   id="g944">
			<path
   d="m 838.426,16.999 c 0,0 1.034,1.773 1.847,3.325 0.813,1.551 1.552,1.551 3.325,1.846 1.773,0.295 3.694,0.739 3.694,0.739 0,0 -1.404,-3.694 -3.694,-7.757 -2.29,-4.063 -7.166,-10.27 -16.254,-9.974 -9.087,0.296 -14.333,6.132 -15.884,8.496 -1.552,2.364 -5.171,10.491 -5.911,12.191 -0.739,1.699 -1.552,3.103 0.37,2.585 1.921,-0.517 4.211,-0.664 5.171,-2.955 0.961,-2.29 3.695,-9.752 6.65,-12.559 2.955,-2.808 6.206,-4.064 9.235,-4.064 3.029,0 9.53,2.881 11.451,8.127 z"
   id="path942"
   inkscape:connector-curvature="0"
   style="clip-rule:evenodd;fill:#ffffff;fill-rule:evenodd" />
		</g>
		<g
   id="g948">
			<path
   d="m 808.873,30.298 c 0,0 -0.96,3.177 -1.108,4.433 -0.148,1.256 -1.182,1.552 -2.216,2.216 -1.034,0.666 -4.063,2.217 -4.063,2.217 0,0 -0.148,-1.921 0.739,-3.694 0.887,-1.774 0.813,-2.956 2.586,-4.064 1.772,-1.108 4.727,-3.03 4.062,-1.108 z"
   id="path946"
   inkscape:connector-curvature="0"
   style="clip-rule:evenodd;fill:#ffffff;fill-rule:evenodd" />
		</g>
		<g
   id="g952">
			<path
   d="m 805.918,40.641 c 0,0 -0.443,3.177 -0.37,3.694 0.074,0.517 0,1.552 -1.108,2.216 -1.108,0.665 -3.472,2.882 -3.694,3.325 -0.221,0.443 -0.961,-1.625 -0.369,-4.064 0.591,-2.438 -0.074,-3.251 1.478,-4.433 1.551,-1.181 4.285,-3.176 4.063,-0.738 z"
   id="path950"
   inkscape:connector-curvature="0"
   style="clip-rule:evenodd;fill:#ffffff;fill-rule:evenodd" />
		</g>
		<g
   id="g956">
			<path
   d="m 805.548,53.201 c 0,0 -0.221,4.95 0,5.911 0.221,0.961 -0.37,1.182 -1.477,2.216 -1.109,1.034 -3.177,2.955 -3.325,0 -0.148,-2.955 -0.443,-5.024 0.739,-6.28 1.182,-1.255 4.063,-2.955 4.063,-1.847 z"
   id="path954"
   inkscape:connector-curvature="0"
   style="clip-rule:evenodd;fill:#ffffff;fill-rule:evenodd" />
		</g>
		<g
   id="g960">
			<path
   d="m 806.657,63.175 0.739,4.063 c 0,0 -0.074,1.995 -1.478,2.955 -1.404,0.96 -4.138,2.216 -4.063,-1.478 0.073,-3.694 0.665,-3.842 1.477,-4.433 0.812,-0.59 3.177,-2.511 3.325,-1.107 z"
   id="path958"
   inkscape:connector-curvature="0"
   style="clip-rule:evenodd;fill:#ffffff;fill-rule:evenodd" />
		</g>
		<g
   id="g964">
			<path
   d="m 844.336,53.94 c 0,0 -0.444,2.29 -0.739,3.694 -0.295,1.404 0.148,2.29 1.478,2.955 1.33,0.665 3.842,2.143 4.433,0.37 0.591,-1.773 1.699,-3.768 0,-5.172 -1.699,-1.404 -2.956,-2.216 -2.956,-2.216 0,0 -1.625,-1.774 -2.216,0.369 z"
   id="path962"
   inkscape:connector-curvature="0"
   style="clip-rule:evenodd;fill:#ffffff;fill-rule:evenodd" />
		</g>
		<g
   id="g968">
			<path
   d="m 845.075,45.813 c 0,0 -0.222,1.995 -0.37,3.325 -0.148,1.33 0.591,1.773 1.847,2.586 1.256,0.812 3.325,1.847 3.325,1.847 0,0 0.296,0.222 1.108,-1.847 0.812,-2.069 1.477,-3.842 0,-4.803 -1.478,-0.961 -2.808,-1.847 -3.694,-2.216 -0.886,-0.369 -1.847,-1.33 -2.216,1.108 z"
   id="path966"
   inkscape:connector-curvature="0"
   style="clip-rule:evenodd;fill:#ffffff;fill-rule:evenodd" />
		</g>
		<g
   id="g972">
			<path
   d="m 844.706,35.1 c 0,0 -0.591,2.586 1.478,3.695 2.069,1.108 5.172,2.586 5.172,2.586 0,0 0.665,-0.96 0.37,-2.955 -0.296,-1.995 -0.296,-4.432 -1.847,-4.802 -1.552,-0.369 -4.063,-1.478 -4.063,-1.478 0,0 -1.404,-0.96 -1.478,0.739 -0.076,1.698 0.368,2.215 0.368,2.215 z"
   id="path970"
   inkscape:connector-curvature="0"
   style="clip-rule:evenodd;fill:#ffffff;fill-rule:evenodd" />
		</g>
		<g
   id="g976">
			<path
   d="m 842.12,95.314 c 0,0 -2.068,0 -1.847,1.847 0.222,1.847 0.739,4.064 0.739,4.064 0,0 0.443,1.182 2.586,0.739 2.143,-0.443 4.655,0.444 4.433,-1.847 -0.221,-2.29 -0.739,-4.802 -0.739,-4.802 0,0 0.295,-0.591 -1.847,-0.369 -2.143,0.22 -3.325,0.368 -3.325,0.368 z"
   id="path974"
   inkscape:connector-curvature="0"
   style="clip-rule:evenodd;fill:#ffffff;fill-rule:evenodd" />
		</g>
		<g
   id="g980">
			<path
   d="m 843.228,104.18 c 0,0 -2.068,0 -1.847,1.847 0.221,1.847 0.739,4.064 0.739,4.064 0,0 0.443,1.182 2.586,0.739 2.142,-0.443 4.655,0.443 4.433,-1.847 -0.222,-2.29 -0.739,-4.802 -0.739,-4.802 0,0 0.296,-0.591 -1.847,-0.369 -2.143,0.22 -3.325,0.368 -3.325,0.368 z"
   id="path978"
   inkscape:connector-curvature="0"
   style="clip-rule:evenodd;fill:#ffffff;fill-rule:evenodd" />
		</g>
		<g
   id="g984">
			<path
   d="m 843.966,113.784 c 0,0 -2.069,0 -1.847,1.847 0.221,1.847 0.739,4.064 0.739,4.064 0,0 0.443,1.182 2.586,0.738 2.143,-0.443 4.655,0.444 4.433,-1.846 -0.221,-2.291 -0.739,-4.802 -0.739,-4.802 0,0 0.296,-0.591 -1.847,-0.37 -2.142,0.222 -3.325,0.369 -3.325,0.369 z"
   id="path982"
   inkscape:connector-curvature="0"
   style="clip-rule:evenodd;fill:#ffffff;fill-rule:evenodd" />
		</g>
		<g
   id="g988">
			<path
   d="m 807.67,101.25 c 0,0 -2.068,0 -1.847,1.847 0.222,1.847 0.739,4.063 0.739,4.063 0,0 0.443,1.182 2.586,0.739 2.143,-0.443 4.654,0.443 4.432,-1.847 -0.221,-2.29 -0.739,-4.802 -0.739,-4.802 0,0 0.296,-0.591 -1.846,-0.37 -2.143,0.222 -3.325,0.37 -3.325,0.37 z"
   id="path986"
   inkscape:connector-curvature="0"
   style="clip-rule:evenodd;fill:#ffffff;fill-rule:evenodd" />
		</g>
		<g
   id="g992">
			<path
   d="m 808.71,110.388 c 0,0 -2.068,0 -1.846,1.847 0.222,1.848 0.739,4.064 0.739,4.064 0,0 0.443,1.182 2.586,0.739 2.143,-0.444 4.655,0.443 4.433,-1.847 -0.222,-2.29 -0.739,-4.802 -0.739,-4.802 0,0 0.296,-0.591 -1.847,-0.369 -2.143,0.22 -3.326,0.368 -3.326,0.368 z"
   id="path990"
   inkscape:connector-curvature="0"
   style="clip-rule:evenodd;fill:#ffffff;fill-rule:evenodd" />
		</g>
		<g
   id="g996">
			<path
   d="m 808.503,119.695 c 0,0 2.956,-0.222 3.695,-0.37 0.739,-0.148 2.807,-1.182 2.955,0.739 0.148,1.921 0.295,3.251 0.739,4.432 0.444,1.182 -0.591,1.552 -1.478,1.848 -0.886,0.295 -4.433,0.739 -4.433,0.739 0,0 -1.182,0.591 -1.478,-2.587 -0.295,-3.175 0,-4.801 0,-4.801 z"
   id="path994"
   inkscape:connector-curvature="0"
   style="clip-rule:evenodd;fill:#ffffff;fill-rule:evenodd" />
		</g>
		<g
   id="g1000">
			<path
   d="m 816.261,130.038 c 0,0 2.881,10.565 15.146,8.496 11.6,-1.92 11.895,-10.564 11.821,-13.299 -0.073,-2.659 0.887,-2.437 2.216,-2.585 1.33,-0.148 4.581,-0.739 4.064,1.846 -0.517,2.587 -1.478,12.93 -10.713,17.363 -9.088,4.359 -16.032,3.029 -20.318,0 -4.285,-3.029 -7.905,-8.054 -8.127,-10.343 -0.221,-2.291 -0.221,-2.291 1.109,-2.217 1.329,0.074 4.137,-1.477 4.802,0.739 z"
   id="path998"
   inkscape:connector-curvature="0"
   style="clip-rule:evenodd;fill:#ffffff;fill-rule:evenodd" />
		</g>
	</g>
</g>


<g
   id="g1148"
   transform="translate(-799.62034,-4.7547359)">
</g>
<g
   id="g1150"
   transform="translate(-799.62034,-4.7547359)">
</g>
<g
   id="g1152"
   transform="translate(-799.62034,-4.7547359)">
</g>
<g
   id="g1154"
   transform="translate(-799.62034,-4.7547359)">
</g>
<g
   id="g1156"
   transform="translate(-799.62034,-4.7547359)">
</g>
<g
   id="g1158"
   transform="translate(-799.62034,-4.7547359)">
</g>
</svg>