<?xml version="1.0" encoding="UTF-8" standalone="no"?>
<!-- Generator: Adobe Illustrator 17.0.0, SVG Export Plug-In . SVG Version: 6.00 Build 0)  -->

<svg
   xmlns:dc="http://purl.org/dc/elements/1.1/"
   xmlns:cc="http://creativecommons.org/ns#"
   xmlns:rdf="http://www.w3.org/1999/02/22-rdf-syntax-ns#"
   xmlns:svg="http://www.w3.org/2000/svg"
   xmlns="http://www.w3.org/2000/svg"
   xmlns:sodipodi="http://sodipodi.sourceforge.net/DTD/sodipodi-0.dtd"
   xmlns:inkscape="http://www.inkscape.org/namespaces/inkscape"
   version="1.1"
   id="Слой_1"
   x="0px"
   y="0px"
   width="53.240883"
   height="140.38211"
   viewBox="0 0 53.240883 140.38211"
   enable-background="new 0 0 1200 150"
   xml:space="preserve"
   sodipodi:docname="7.svg"
   inkscape:version="0.92.4 (5da689c313, 2019-01-14)"><metadata
   id="metadata1165"><rdf:RDF><cc:Work
       rdf:about=""><dc:format>image/svg+xml</dc:format><dc:type
         rdf:resource="http://purl.org/dc/dcmitype/StillImage" /><dc:title></dc:title></cc:Work></rdf:RDF></metadata><defs
   id="defs1163" /><sodipodi:namedview
   pagecolor="#ffffff"
   bordercolor="#666666"
   borderopacity="1"
   objecttolerance="10"
   gridtolerance="10"
   guidetolerance="10"
   inkscape:pageopacity="0"
   inkscape:pageshadow="2"
   inkscape:window-width="1920"
   inkscape:window-height="1017"
   id="namedview1161"
   showgrid="false"
   inkscape:zoom="0.66939442"
   inkscape:cx="235.05445"
   inkscape:cy="-109.1209"
   inkscape:window-x="-8"
   inkscape:window-y="-8"
   inkscape:window-maximized="1"
   inkscape:current-layer="Слой_1"
   fit-margin-top="0"
   fit-margin-left="0"
   fit-margin-right="0"
   fit-margin-bottom="0" />







<g
   id="g1146"
   transform="translate(-1100.8183,-4.899578)">
	<g
   id="g1064">
		<path
   d="m 1110.44,17.143 c 0,0 5.264,-11.545 16.623,-12.19 11.359,-0.647 15.33,4.709 18.101,9.234 2.77,4.527 5.541,11.452 7.388,20.317 1.847,8.866 2.124,15.792 0,24.752 -2.124,8.958 -3.417,18.192 -1.847,31.769 1.57,13.577 3.14,23.089 3.325,26.228 0.185,3.141 -0.184,17.456 -11.082,24.012 -10.898,6.556 -21.98,3.602 -24.381,1.477 -2.401,-2.123 -6.28,-5.909 -7.758,-11.82 0,0 0.517,-2.734 -0.369,-3.325 -0.887,-0.591 -1.33,-2.881 -1.477,-4.802 -0.148,-1.921 0.591,-3.768 -0.37,-4.802 -0.961,-1.034 -0.813,-1.773 -0.739,-4.064 0.074,-2.289 0,-3.694 0,-3.694 0,0 0.739,-0.591 0,-1.478 -0.739,-0.886 -1.33,-2.955 -1.109,-4.802 0.222,-1.848 -0.295,-4.063 0.74,-4.433 1.034,-0.37 2.364,-1.108 1.847,-2.955 -0.517,-1.847 -3.398,-15.959 -4.433,-19.948 -1.034,-3.99 -2.438,-7.313 -2.216,-8.865 0.221,-1.553 0.369,-1.848 -0.37,-3.326 -0.739,-1.477 -1.477,-4.432 -1.108,-5.91 0.369,-1.478 0.369,-3.177 0.369,-4.433 0,-1.256 -0.887,-3.768 -0.739,-6.28 0.148,-2.512 0,-4.73 0.739,-5.172 0.739,-0.444 0.739,-0.37 0.739,-1.478 0,-1.108 0.222,-3.767 0.739,-5.541 0.518,-1.773 0.444,-2.291 1.109,-2.956 0.665,-0.665 0.591,-0.444 0.739,-1.847 0.148,-1.404 0.961,-4.137 2.955,-8.497 1.994,-4.359 2.585,-5.171 2.585,-5.171 z"
   id="path1062"
   inkscape:connector-curvature="0"
   style="clip-rule:evenodd;fill:#976a28;fill-rule:evenodd" />
	</g>
	<g
   id="g1144">
		<path
   d="m 1114.503,24.901 c 0,0 4.714,-3.055 10.996,-4.098 0.422,-3.637 0.916,-6.931 1.412,-9.798 -1.689,0.17 -3.354,0.709 -4.65,1.704 -3.177,2.439 -6.501,8.128 -7.758,12.192 z m 18.412,-4.39 c 2.556,0.2 4.584,0.733 6.339,1.434 -0.676,-1.961 -2.962,-6.893 -5.27,-9.075 -0.479,2.305 -0.827,4.878 -1.069,7.641 z"
   id="path1066"
   inkscape:connector-curvature="0"
   style="clip-rule:evenodd;fill:#ffffff;fill-rule:evenodd" />
		<path
   d="m 1111.548,34.136 c 0,0 6.519,-5.296 13.306,-6.693 0.117,-1.487 0.249,-2.931 0.393,-4.333 -0.529,0.096 -1.035,0.199 -1.508,0.313 -3.399,0.812 -8.054,2.511 -9.236,3.324 -1.181,0.813 -2.807,4.582 -2.955,7.389 z m 20.99,-6.989 c 4.432,0.258 7.318,1.141 9.302,2.187 -0.148,-2.216 -1.108,-5.173 -1.108,-5.173 0,0 -1.848,-1.033 -5.172,-1.477 -0.838,-0.111 -1.789,-0.172 -2.797,-0.187 -0.102,1.507 -0.177,3.057 -0.225,4.65 z"
   id="path1068"
   inkscape:connector-curvature="0"
   style="clip-rule:evenodd;fill:#ffffff;fill-rule:evenodd" />
		<path
   d="m 1108.963,43.741 c 0,-0.262 7.879,-7.135 15.467,-8.852 0.061,-1.725 0.146,-3.412 0.252,-5.054 -2.301,0.516 -5.48,1.635 -10.178,4.3 -4.359,2.734 -5.467,3.62 -5.541,5.911 -0.075,2.29 0,3.99 0,3.695 z m 23.525,-9.12 c 5.717,0.388 9.851,1.665 11.938,3.579 -0.443,-3.03 -1.108,-5.541 -1.108,-5.541 0,0 0.443,-0.813 -2.586,-1.477 -1.872,-0.411 -5.324,-1.105 -8.246,-1.522 -0.022,1.626 -0.021,3.282 0,4.961 z"
   id="path1070"
   inkscape:connector-curvature="0"
   style="clip-rule:evenodd;fill:#ffffff;fill-rule:evenodd" />
		<path
   d="m 1108.963,58.147 c 0,0 7.24,-7.093 11.451,-9.974 1.36,-0.93 2.68,-1.814 3.985,-2.541 -0.064,-2.084 -0.084,-4.132 -0.07,-6.137 -4.609,1.545 -8.908,4.435 -10.934,6.462 -2.586,2.586 -5.32,4.137 -5.172,6.28 0.149,2.142 0.74,5.91 0.74,5.91 z m 23.852,-13.972 c 4.125,1.309 9.848,4.743 10.502,5.107 0.665,0.369 0.96,-0.814 1.108,-2.218 0.148,-1.403 0.813,-3.62 -0.739,-4.432 -1.186,-0.622 -6.178,-3.146 -11.105,-3.934 0.06,1.819 0.138,3.647 0.234,5.477 z"
   id="path1072"
   inkscape:connector-curvature="0"
   style="clip-rule:evenodd;fill:#ffffff;fill-rule:evenodd" />
		<path
   d="m 1108.963,61.842 0.369,3.325 c 0,0 0.591,1.846 2.216,0 1.625,-1.848 8.275,-8.867 11.082,-10.714 0.673,-0.442 1.407,-0.882 2.189,-1.258 -0.152,-1.872 -0.267,-3.726 -0.346,-5.553 -2.024,1.023 -4.249,2.466 -6.276,4.225 -3.915,3.4 -9.234,9.975 -9.234,9.975 z m 24.472,-8.44 c 4.032,2.49 8.035,4.745 8.035,4.745 0,0 0.813,0.518 1.478,-1.848 0.665,-2.364 1.034,-4.211 -0.739,-5.171 -1.227,-0.665 -5.745,-3.027 -9.245,-4.322 0.137,2.219 0.296,4.424 0.471,6.596 z"
   id="path1074"
   inkscape:connector-curvature="0"
   style="clip-rule:evenodd;fill:#ffffff;fill-rule:evenodd" />
		<path
   d="m 1117.828,62.581 7.936,-0.911 c -0.288,-2.012 -0.527,-4.009 -0.722,-5.99 -3.293,1.934 -6.453,5.596 -7.214,6.901 z m 16.265,-1.868 6.27,-0.718 c 0,0 -3.277,-2.483 -6.72,-4.126 0.143,1.645 0.293,3.263 0.45,4.844 z"
   id="path1076"
   inkscape:connector-curvature="0"
   style="clip-rule:evenodd;fill:#ffffff;fill-rule:evenodd" />
		<path
   d="m 1117.089,105.801 c 0,0 6.563,-3.303 15.202,-3.727 1.983,-1.562 4.193,-2.989 6.659,-4.266 -0.045,-0.334 -0.066,-0.504 -0.066,-0.504 0,0 -3.324,-1.404 -12.19,0.37 -8.866,1.773 -10.343,2.586 -10.343,2.586 z"
   id="path1078"
   inkscape:connector-curvature="0"
   style="clip-rule:evenodd;fill:#ffffff;fill-rule:evenodd" />
		<path
   d="m 1117.828,115.037 c 0,0 1.801,-1.323 5.188,-2.422 1.458,-2.406 3.155,-4.673 5.139,-6.769 -4.628,0.564 -9.69,2.211 -10.696,3.649 -0.147,2.881 0.369,5.542 0.369,5.542 z m 14.774,-3.869 c 2.439,0.003 5.155,0.263 8.13,0.912 -0.443,-4.358 -0.74,-5.91 -0.74,-5.91 0,0 -0.868,-0.114 -2.202,-0.237 -1.88,1.581 -3.603,3.33 -5.188,5.235 z"
   id="path1080"
   inkscape:connector-curvature="0"
   style="clip-rule:evenodd;fill:#ffffff;fill-rule:evenodd" />
		<path
   d="m 1126.113,121.204 c 3.668,-1.021 8.627,-1.491 14.619,0.113 0.665,-3.916 0.369,-6.28 0.369,-6.28 0,0 -6.722,-1.331 -10.817,-0.835 -1.528,2.174 -2.91,4.512 -4.171,7.002 z m -5.23,-4.632 c -1.605,0.539 -2.802,1.055 -3.055,1.42 -0.665,0.96 -0.221,1.699 0,2.956 0.092,0.52 0.298,1.244 0.508,1.913 0.735,-2.164 1.575,-4.266 2.547,-6.289 z"
   id="path1082"
   inkscape:connector-curvature="0"
   style="clip-rule:evenodd;fill:#ffffff;fill-rule:evenodd" />
		<path
   d="m 1121.524,132.358 c 2.662,3.262 8.289,5.336 14.036,2.997 6.354,-2.586 5.984,-8.867 5.911,-11.083 -2.586,-0.591 -5.024,-0.664 -7.388,-1.108 -2.364,-0.444 -6.871,0.148 -8.866,1.108 -0.245,0.119 -0.485,0.234 -0.718,0.349 -1.086,2.457 -2.071,5.041 -2.975,7.737 z"
   id="path1084"
   inkscape:connector-curvature="0"
   style="clip-rule:evenodd;fill:#ffffff;fill-rule:evenodd" />
		<g
   id="g1088">
			<path
   d="m 1143.317,24.161 0.739,4.064 c 0,0 -0.296,1.625 2.586,2.587 2.882,0.96 4.803,1.847 4.803,1.847 0,0 -1.034,-5.763 -1.848,-7.02 -0.812,-1.256 -6.28,-1.478 -6.28,-1.478 z"
   id="path1086"
   inkscape:connector-curvature="0"
   style="clip-rule:evenodd;fill:#ffffff;fill-rule:evenodd" />
		</g>
		<path
   d="m 1139.623,17.143 c 0,0 1.034,1.773 1.847,3.326 0.813,1.55 1.552,1.55 3.324,1.846 1.773,0.296 3.694,0.738 3.694,0.738 0,0 -1.404,-3.694 -3.694,-7.758 -1.573,-2.789 -4.365,-6.589 -8.903,-8.602 -0.59,1.291 -1.091,2.79 -1.512,4.461 2.22,1.376 4.294,3.393 5.244,5.989 z M 1127.992,5.347 c -8.75,0.508 -13.815,6.155 -15.335,8.472 -1.552,2.364 -5.172,10.491 -5.911,12.19 -0.738,1.699 -1.551,3.104 0.37,2.586 1.922,-0.518 4.211,-0.665 5.172,-2.956 0.961,-2.291 3.694,-9.752 6.65,-12.559 2.661,-2.528 5.562,-3.798 8.325,-4.025 0.248,-1.357 0.495,-2.597 0.729,-3.708 z"
   id="path1090"
   inkscape:connector-curvature="0"
   style="clip-rule:evenodd;fill:#ffffff;fill-rule:evenodd" />
		<g
   id="g1094">
			<path
   d="m 1110.071,30.442 c 0,0 -0.96,3.177 -1.108,4.433 -0.148,1.256 -1.182,1.552 -2.217,2.216 -1.034,0.666 -4.063,2.217 -4.063,2.217 0,0 -0.148,-1.92 0.739,-3.694 0.887,-1.773 0.813,-2.956 2.586,-4.064 1.773,-1.108 4.728,-3.03 4.063,-1.108 z"
   id="path1092"
   inkscape:connector-curvature="0"
   style="clip-rule:evenodd;fill:#ffffff;fill-rule:evenodd" />
		</g>
		<g
   id="g1098">
			<path
   d="m 1107.115,40.786 c 0,0 -0.443,3.177 -0.37,3.693 0.074,0.518 0,1.553 -1.108,2.216 -1.108,0.666 -3.472,2.883 -3.694,3.326 -0.222,0.443 -0.961,-1.626 -0.37,-4.064 0.591,-2.438 -0.074,-3.251 1.477,-4.434 1.553,-1.181 4.287,-3.176 4.065,-0.737 z"
   id="path1096"
   inkscape:connector-curvature="0"
   style="clip-rule:evenodd;fill:#ffffff;fill-rule:evenodd" />
		</g>
		<g
   id="g1102">
			<path
   d="m 1106.745,53.345 c 0,0 -0.222,4.95 0,5.911 0.222,0.96 -0.369,1.182 -1.478,2.216 -1.108,1.035 -3.177,2.956 -3.324,0 -0.148,-2.955 -0.443,-5.023 0.739,-6.28 1.183,-1.256 4.063,-2.955 4.063,-1.847 z"
   id="path1100"
   inkscape:connector-curvature="0"
   style="clip-rule:evenodd;fill:#ffffff;fill-rule:evenodd" />
		</g>
		<g
   id="g1106">
			<path
   d="m 1107.854,63.318 0.739,4.064 c 0,0 -0.074,1.995 -1.478,2.955 -1.404,0.96 -4.137,2.216 -4.064,-1.477 0.074,-3.694 0.666,-3.842 1.478,-4.434 0.813,-0.59 3.177,-2.51 3.325,-1.108 z"
   id="path1104"
   inkscape:connector-curvature="0"
   style="clip-rule:evenodd;fill:#ffffff;fill-rule:evenodd" />
		</g>
		<g
   id="g1110">
			<path
   d="m 1145.534,54.084 c 0,0 -0.444,2.291 -0.739,3.694 -0.295,1.404 0.148,2.29 1.478,2.956 1.33,0.665 3.842,2.143 4.433,0.37 0.591,-1.773 1.699,-3.769 0,-5.172 -1.7,-1.405 -2.955,-2.217 -2.955,-2.217 0,0 -1.626,-1.773 -2.217,0.369 z"
   id="path1108"
   inkscape:connector-curvature="0"
   style="clip-rule:evenodd;fill:#ffffff;fill-rule:evenodd" />
		</g>
		<g
   id="g1114">
			<path
   d="m 1146.273,45.957 c 0,0 -0.222,1.995 -0.37,3.326 -0.148,1.329 0.591,1.772 1.847,2.584 1.256,0.814 3.324,1.847 3.324,1.847 0,0 0.296,0.222 1.109,-1.847 0.812,-2.069 1.477,-3.842 0,-4.802 -1.478,-0.96 -2.808,-1.846 -3.695,-2.215 -0.885,-0.371 -1.846,-1.332 -2.215,1.107 z"
   id="path1112"
   inkscape:connector-curvature="0"
   style="clip-rule:evenodd;fill:#ffffff;fill-rule:evenodd" />
		</g>
		<g
   id="g1118">
			<path
   d="m 1145.903,35.245 c 0,0 -0.591,2.584 1.478,3.692 2.069,1.109 5.172,2.586 5.172,2.586 0,0 0.664,-0.959 0.369,-2.955 -0.295,-1.995 -0.295,-4.433 -1.847,-4.802 -1.551,-0.371 -4.063,-1.478 -4.063,-1.478 0,0 -1.404,-0.96 -1.478,0.739 -0.074,1.7 0.369,2.218 0.369,2.218 z"
   id="path1116"
   inkscape:connector-curvature="0"
   style="clip-rule:evenodd;fill:#ffffff;fill-rule:evenodd" />
		</g>
		<path
   d="m 1143.317,95.458 c 0,0 -1.483,0 -1.803,1.121 1.011,-0.448 2.057,-0.876 3.147,-1.277 -0.877,0.097 -1.344,0.156 -1.344,0.156 z m -0.108,6.665 c 0.38,0.1 0.895,0.127 1.586,-0.016 2.143,-0.443 4.655,0.444 4.433,-1.846 -0.031,-0.317 -0.067,-0.639 -0.106,-0.958 -2.103,0.805 -4.071,1.747 -5.913,2.82 z"
   id="path1120"
   inkscape:connector-curvature="0"
   style="clip-rule:evenodd;fill:#ffffff;fill-rule:evenodd" />
		<g
   id="g1124">
			<path
   d="m 1144.426,104.323 c 0,0 -2.068,0 -1.847,1.848 0.222,1.848 0.739,4.063 0.739,4.063 0,0 0.443,1.182 2.586,0.74 2.143,-0.445 4.654,0.442 4.433,-1.848 -0.222,-2.291 -0.739,-4.803 -0.739,-4.803 0,0 0.296,-0.591 -1.847,-0.369 -2.143,0.221 -3.325,0.369 -3.325,0.369 z"
   id="path1122"
   inkscape:connector-curvature="0"
   style="clip-rule:evenodd;fill:#ffffff;fill-rule:evenodd" />
		</g>
		<g
   id="g1128">
			<path
   d="m 1145.165,113.928 c 0,0 -2.069,0 -1.847,1.848 0.222,1.848 0.739,4.063 0.739,4.063 0,0 0.443,1.183 2.586,0.738 2.143,-0.443 4.655,0.444 4.433,-1.846 -0.221,-2.291 -0.739,-4.803 -0.739,-4.803 0,0 0.295,-0.591 -1.847,-0.369 -2.143,0.221 -3.325,0.369 -3.325,0.369 z"
   id="path1126"
   inkscape:connector-curvature="0"
   style="clip-rule:evenodd;fill:#ffffff;fill-rule:evenodd" />
		</g>
		<g
   id="g1132">
			<path
   d="m 1108.593,101.368 c 0,0 -2.069,0 -1.848,1.847 0.222,1.847 0.74,4.064 0.74,4.064 0,0 0.443,1.181 2.586,0.739 2.143,-0.444 4.655,0.442 4.433,-1.848 -0.221,-2.29 -0.738,-4.802 -0.738,-4.802 0,0 0.295,-0.591 -1.847,-0.369 -2.144,0.222 -3.326,0.369 -3.326,0.369 z"
   id="path1130"
   inkscape:connector-curvature="0"
   style="clip-rule:evenodd;fill:#ffffff;fill-rule:evenodd" />
		</g>
		<g
   id="g1136">
			<path
   d="m 1109.332,110.603 c 0,0 -2.069,0 -1.847,1.848 0.221,1.847 0.739,4.064 0.739,4.064 0,0 0.443,1.182 2.586,0.738 2.143,-0.442 4.655,0.444 4.433,-1.847 -0.221,-2.291 -0.739,-4.803 -0.739,-4.803 0,0 0.296,-0.591 -1.847,-0.369 -2.144,0.222 -3.325,0.369 -3.325,0.369 z"
   id="path1134"
   inkscape:connector-curvature="0"
   style="clip-rule:evenodd;fill:#ffffff;fill-rule:evenodd" />
		</g>
		<g
   id="g1140">
			<path
   d="m 1109.701,119.839 c 0,0 2.956,-0.222 3.695,-0.369 0.739,-0.148 2.807,-1.183 2.955,0.739 0.148,1.92 0.295,3.25 0.739,4.432 0.443,1.182 -0.591,1.552 -1.477,1.846 -0.887,0.295 -4.433,0.741 -4.433,0.741 0,0 -1.182,0.591 -1.478,-2.587 -0.296,-3.177 -10e-4,-4.802 -10e-4,-4.802 z"
   id="path1138"
   inkscape:connector-curvature="0"
   style="clip-rule:evenodd;fill:#ffffff;fill-rule:evenodd" />
		</g>
		<path
   d="m 1120.567,135.345 c 2.268,2.326 6.025,4.348 12.037,3.334 11.599,-1.922 11.895,-10.566 11.821,-13.299 -0.073,-2.66 0.887,-2.438 2.216,-2.586 1.33,-0.148 4.581,-0.739 4.064,1.847 -0.517,2.587 -1.478,12.93 -10.713,17.363 -9.087,4.359 -16.032,3.03 -20.317,0 -0.271,-0.192 -0.541,-0.391 -0.806,-0.599 0.533,-2.071 1.098,-4.092 1.698,-6.06 z m -5.771,2.095 c -1.863,-2.231 -3.12,-4.46 -3.248,-5.78 -0.222,-2.291 -0.222,-2.291 1.108,-2.216 0.97,0.055 2.727,-0.756 3.864,-0.339 -0.674,2.721 -1.234,5.508 -1.724,8.335 z"
   id="path1142"
   inkscape:connector-curvature="0"
   style="clip-rule:evenodd;fill:#ffffff;fill-rule:evenodd" />
	</g>
</g>
<g
   id="g1148"
   transform="translate(-1100.8183,-4.899578)">
</g>
<g
   id="g1150"
   transform="translate(-1100.8183,-4.899578)">
</g>
<g
   id="g1152"
   transform="translate(-1100.8183,-4.899578)">
</g>
<g
   id="g1154"
   transform="translate(-1100.8183,-4.899578)">
</g>
<g
   id="g1156"
   transform="translate(-1100.8183,-4.899578)">
</g>
<g
   id="g1158"
   transform="translate(-1100.8183,-4.899578)">
</g>
</svg>