<?xml version="1.0" encoding="UTF-8" standalone="no"?>
<!-- Generator: Adobe Illustrator 17.0.0, SVG Export Plug-In . SVG Version: 6.00 Build 0)  -->

<svg
   xmlns:dc="http://purl.org/dc/elements/1.1/"
   xmlns:cc="http://creativecommons.org/ns#"
   xmlns:rdf="http://www.w3.org/1999/02/22-rdf-syntax-ns#"
   xmlns:svg="http://www.w3.org/2000/svg"
   xmlns="http://www.w3.org/2000/svg"
   xmlns:sodipodi="http://sodipodi.sourceforge.net/DTD/sodipodi-0.dtd"
   xmlns:inkscape="http://www.inkscape.org/namespaces/inkscape"
   version="1.1"
   id="Слой_1"
   x="0px"
   y="0px"
   width="53.173763"
   height="140.38387"
   viewBox="0 0 53.173763 140.38387"
   enable-background="new 0 0 1200 150"
   xml:space="preserve"
   sodipodi:docname="0.svg"
   inkscape:version="0.92.4 (5da689c313, 2019-01-14)"><metadata
   id="metadata1165"><rdf:RDF><cc:Work
       rdf:about=""><dc:format>image/svg+xml</dc:format><dc:type
         rdf:resource="http://purl.org/dc/dcmitype/StillImage" /><dc:title></dc:title></cc:Work></rdf:RDF></metadata><defs
   id="defs1163" /><sodipodi:namedview
   pagecolor="#ffffff"
   bordercolor="#666666"
   borderopacity="1"
   objecttolerance="10"
   gridtolerance="10"
   guidetolerance="10"
   inkscape:pageopacity="0"
   inkscape:pageshadow="2"
   inkscape:window-width="1920"
   inkscape:window-height="1017"
   id="namedview1161"
   showgrid="false"
   fit-margin-top="0"
   fit-margin-left="0"
   fit-margin-right="0"
   fit-margin-bottom="0"
   inkscape:zoom="0.66939442"
   inkscape:cx="912.64851"
   inkscape:cy="-92.700793"
   inkscape:window-x="-8"
   inkscape:window-y="-8"
   inkscape:window-maximized="1"
   inkscape:current-layer="Слой_1" />
<g
   id="g56"
   transform="translate(-48.808795,-4.8244751)">
	<g
   id="g4">
		<path
   d="m 62.331,14.408 c 0,0 1.923,-3.459 3.133,-4.711 1.212,-1.25 2.281,-3.826 9.405,-4.416 7.123,-0.589 11.255,-0.515 12.539,-0.294 1.281,0.221 5.77,0.515 8.264,8.538 2.492,8.021 3.775,13.395 4.558,19.134 0.784,5.741 1.995,13.91 1.71,18.547 -0.285,4.634 -1.78,9.494 -4.276,14.719 -2.491,5.225 -5.769,10.817 -5.983,16.484 -0.213,5.667 0.214,10.672 0.284,12.07 0.072,1.398 0.713,1.62 1.425,1.472 0.712,-0.148 1.069,1.177 1.425,3.533 0.358,2.355 2.208,9.125 3.42,16.19 1.212,7.066 0.07,18.399 -5.985,23.846 -6.055,5.446 -19.019,7.875 -25.645,3.238 -6.625,-4.638 -10.9,-9.568 -11.113,-18.547 -0.214,-8.979 -0.284,-16.043 -0.284,-20.016 0,-3.976 0.284,-4.711 0.284,-4.711 0,0 1.067,0.514 0.855,-1.473 -0.57,-6.623 -2.565,-14.057 -4.275,-20.605 -1.709,-6.551 -4.273,-15.603 -2.848,-23.846 1.423,-8.242 3.419,-16.116 5.984,-22.078 2.564,-5.961 7.123,-17.074 7.123,-17.074 z"
   id="path2"
   inkscape:connector-curvature="0"
   style="clip-rule:evenodd;fill:#684020;fill-rule:evenodd" />
	</g>
	<g
   id="g54">
		<g
   id="g8">
			<path
   d="m 67.173,22.65 c 0,0 -1.709,-1.987 -2.278,-2.649 -0.57,-0.662 -1.281,-1.398 0,-4.416 1.283,-3.018 4.205,-6.771 6.839,-7.655 2.635,-0.883 8.121,-1.252 10.829,-1.177 2.706,0.073 3.632,0.073 2.849,1.47 -0.784,1.4 -2.423,5.962 -3.705,12.07 -1.282,6.109 -1.709,11.114 -1.425,15.898 -1.924,-0.662 -6.27,-1.693 -7.409,-1.766 -1.636,-3.237 -3.918,-9.199 -5.7,-11.775 z"
   id="path6"
   inkscape:connector-curvature="0"
   style="clip-rule:evenodd;fill:#ffffff;fill-rule:evenodd" />
		</g>
		<g
   id="g12">
			<path
   d="m 86.837,8.52 c 0,0 -3.918,13.174 -4.273,18.84 -0.357,5.667 -0.073,9.2 0,10.893 0.07,1.693 0.641,1.766 2.564,0.588 1.923,-1.177 7.622,-5.519 9.973,-8.83 C 95.6,28.833 95.814,27.95 95.386,26.478 94.959,25.006 92.394,14.334 91.111,11.466 89.828,8.593 87.691,5.65 86.837,8.52 Z"
   id="path10"
   inkscape:connector-curvature="0"
   style="clip-rule:evenodd;fill:#ffffff;fill-rule:evenodd" />
		</g>
		<g
   id="g16">
			<path
   d="m 60.905,24.417 c 0,0 0.784,-3.385 2.28,-1.473 1.495,1.914 5.628,8.17 6.838,12.953 1.213,4.784 0.784,4.268 -0.57,4.711 -1.354,0.44 -12.041,2.575 -16.242,10.598 -1.711,2.281 -1.426,-0.369 -0.855,-2.355 0.571,-1.987 4.202,-13.247 5.129,-15.309 1.212,-3.164 3.42,-9.125 3.42,-9.125 z"
   id="path14"
   inkscape:connector-curvature="0"
   style="clip-rule:evenodd;fill:#ffffff;fill-rule:evenodd" />
		</g>
		<g
   id="g20">
			<path
   d="m 72.589,36.781 c 0,0 -0.712,-1.251 0.57,-1.177 1.282,0.073 4.702,0.735 5.414,0.883 0.712,0.148 2.136,0.662 1.995,2.943 -0.143,2.283 0.07,11.039 1.708,17.369 1.641,6.33 2.566,8.98 3.136,10.893 0.569,1.913 0.783,2.796 -0.855,2.649 -1.639,-0.147 -7.553,-0.883 -8.549,-1.178 -0.998,-0.294 -1.709,-0.736 -1.709,-3.238 0,-2.502 0.284,-8.978 0.284,-13.542 0,-4.562 0,-8.758 -0.57,-11.186 -0.568,-2.429 -1.424,-4.416 -1.424,-4.416 z"
   id="path18"
   inkscape:connector-curvature="0"
   style="clip-rule:evenodd;fill:#ffffff;fill-rule:evenodd" />
		</g>
		<g
   id="g24">
			<path
   d="m 82.563,43.257 c 0,0 -0.357,-1.399 1.423,-2.061 1.783,-0.661 8.408,-3.385 10.545,-6.477 1.283,-1.987 2.636,-3.311 2.85,-1.472 0.213,1.839 1.352,11.259 1.139,15.307 -0.215,4.048 -2.28,9.937 -3.705,12.952 -1.425,3.019 -3.847,4.637 -5.129,5.888 -1.283,1.252 -2.209,0.662 -2.563,-0.883 -0.358,-1.546 -3.206,-10.966 -3.706,-15.307 -0.498,-4.34 -0.854,-7.947 -0.854,-7.947 z"
   id="path22"
   inkscape:connector-curvature="0"
   style="clip-rule:evenodd;fill:#ffffff;fill-rule:evenodd" />
		</g>
		<g
   id="g28">
			<path
   d="m 68.314,42.962 c 0,0 3.064,-1.325 3.136,0.883 0.072,2.208 0.284,19.578 0.284,21.197 0,1.619 -0.213,3.973 -1.139,5.592 -0.927,1.619 -4.631,5.667 -5.7,6.477 -1.069,0.809 -5.555,1.914 -7.123,-1.177 -1.568,-3.091 -4.987,-10.966 -5.415,-13.247 -0.427,-2.28 -0.996,-7.58 1.14,-9.715 2.138,-2.134 5.843,-5.077 7.409,-6.181 1.567,-1.105 7.408,-3.829 7.408,-3.829 z"
   id="path26"
   inkscape:connector-curvature="0"
   style="clip-rule:evenodd;fill:#ffffff;fill-rule:evenodd" />
		</g>
		<g
   id="g32">
			<path
   d="m 58.626,105.959 c 0,0 -1.141,2.283 1.994,2.65 3.135,0.369 15.673,1.545 20.233,3.533 1.423,0.516 3.133,1.031 4.274,-0.588 1.141,-1.62 4.63,-4.563 5.128,-5.005 0.499,-0.441 0.785,-1.325 0.571,-2.649 -0.213,-1.325 -0.571,-3.239 -0.571,-3.239 0,0 -0.141,-1.544 -1.424,-0.588 -1.281,0.956 -7.766,3.164 -11.113,3.238 -3.349,0.074 -12.681,0.295 -15.673,-0.295 -2.565,-0.368 -3.491,-0.662 -3.42,0 0.072,0.662 10e-4,2.943 10e-4,2.943 z"
   id="path30"
   inkscape:connector-curvature="0"
   style="clip-rule:evenodd;fill:#ffffff;fill-rule:evenodd" />
		</g>
		<g
   id="g36">
			<path
   d="m 58.056,114.792 c 0,0 -0.57,1.988 1.14,2.355 1.709,0.368 8.263,1.177 8.263,1.177 0,0 1.355,0.442 1.71,-0.881 0.357,-1.325 1.14,-3.828 1.14,-3.828 0,0 0.498,-0.956 -1.425,-1.177 -1.922,-0.223 -9.119,-1.473 -9.119,-1.473 0,0 -1.283,-0.81 -1.424,0.589 -0.143,1.397 -0.285,3.238 -0.285,3.238 z"
   id="path34"
   inkscape:connector-curvature="0"
   style="clip-rule:evenodd;fill:#ffffff;fill-rule:evenodd" />
		</g>
		<g
   id="g40">
			<path
   d="m 70.595,116.557 c 0,0 -1.495,2.282 0.855,2.944 2.35,0.663 15.886,3.754 18.805,4.71 2.923,0.957 3.991,1.398 3.705,-1.177 -0.284,-2.577 -1.71,-12.953 -1.71,-12.953 0,0 -0.71,-1.545 -1.709,-0.294 -0.995,1.25 -3.133,3.9 -3.704,4.416 -0.569,0.515 -1.852,1.766 -5.984,0.883 -4.132,-0.883 -7.408,-1.766 -7.408,-1.766 0,0 -0.714,-0.956 -1.427,0.587 -0.71,1.547 -1.423,2.65 -1.423,2.65 z"
   id="path38"
   inkscape:connector-curvature="0"
   style="clip-rule:evenodd;fill:#ffffff;fill-rule:evenodd" />
		</g>
		<g
   id="g44">
			<path
   d="m 58.341,120.678 c 0,0 -0.214,-1.545 1.424,-1.177 1.639,0.369 10.044,1.767 13.394,2.356 3.348,0.588 6.554,1.47 6.554,1.47 0,0 1.282,-0.073 0.57,1.768 -0.711,1.84 -1.138,3.237 -1.138,3.237 0,0 -0.285,1.546 -2.566,1.177 -2.28,-0.368 -11.756,-2.429 -14.248,-2.943 -2.494,-0.515 -3.848,-1.104 -3.99,-2.65 -0.143,-1.545 0,-3.238 0,-3.238 z"
   id="path42"
   inkscape:connector-curvature="0"
   style="clip-rule:evenodd;fill:#ffffff;fill-rule:evenodd" />
		</g>
		<g
   id="g48">
			<path
   d="m 80.569,127.743 c 0,0 -1.069,2.356 0.568,2.944 1.64,0.589 9.119,3.534 9.119,3.534 0,0 2.067,0.735 2.566,-1.177 0.498,-1.913 1.495,-5.005 0,-5.594 -1.495,-0.589 -8.836,-2.943 -8.836,-2.943 0,0 -1.922,-1.179 -2.278,0.294 -0.357,1.47 -1.139,2.942 -1.139,2.942 z"
   id="path46"
   inkscape:connector-curvature="0"
   style="clip-rule:evenodd;fill:#ffffff;fill-rule:evenodd" />
		</g>
		<g
   id="g52">
			<path
   d="m 61.476,128.332 c 0,0 -2.709,-1.03 -1.711,1.473 0.998,2.502 2.352,8.759 11.969,11.774 7.48,1.914 14.675,-1.618 18.237,-4.416 0.997,-0.956 0.142,-0.883 -2.281,-1.766 -2.421,-0.883 -15.102,-4.858 -17.666,-5.593 -2.565,-0.736 -8.548,-1.472 -8.548,-1.472 z"
   id="path50"
   inkscape:connector-curvature="0"
   style="clip-rule:evenodd;fill:#ffffff;fill-rule:evenodd" />
		</g>
	</g>
</g>







<g
   id="g1148"
   transform="translate(-48.808795,-4.8244751)">
</g>
<g
   id="g1150"
   transform="translate(-48.808795,-4.8244751)">
</g>
<g
   id="g1152"
   transform="translate(-48.808795,-4.8244751)">
</g>
<g
   id="g1154"
   transform="translate(-48.808795,-4.8244751)">
</g>
<g
   id="g1156"
   transform="translate(-48.808795,-4.8244751)">
</g>
<g
   id="g1158"
   transform="translate(-48.808795,-4.8244751)">
</g>
</svg>