<svg xmlns="http://www.w3.org/2000/svg" width="459" height="500" viewBox="0 0 459 500" version="1.1">
	<path d="M 61.799 5.013 C 57.564 5.499, 50.920 7.002, 47.035 8.353 C 40.219 10.723, 30 16.461, 30 17.917 C 30 20.307, 38.227 25.182, 58.500 34.802 L 81.500 45.718 81.827 51.609 C 82.138 57.226, 81.791 58.232, 74.352 73.250 C 67.602 86.875, 66.234 89, 64.209 89 C 61.487 89, 58.355 87.527, 55.433 84.872 C 52.322 82.047, 8.632 62.071, 7.631 63.016 C 6.486 64.099, 9.472 77.388, 13.152 87.586 C 18.494 102.387, 30.467 120.460, 40.014 128.132 C 42.206 129.893, 44 131.947, 44 132.696 C 44 133.445, 42.650 136.731, 41 140 C 37.372 147.188, 37.341 147.809, 40.447 151.159 C 42.190 153.039, 44.346 153.997, 47.947 154.493 C 51.142 154.932, 53 155.678, 53 156.520 C 53 158.055, 61.682 163.182, 67.342 164.989 C 72.238 166.552, 73.912 165.298, 72.135 161.398 C 71.470 159.937, 71.054 158.621, 71.213 158.474 C 71.918 157.817, 95.273 162.958, 100.591 164.941 C 114.996 170.312, 124.079 176.082, 134.532 186.500 C 140.050 192, 173.124 230.025, 208.030 271 C 242.936 311.975, 299.035 377.471, 332.695 416.546 L 393.895 487.592 401.698 491.031 C 416.448 497.532, 428.309 496.062, 440.542 486.217 C 452.331 476.730, 456.862 461.330, 452.049 447.114 C 450.860 443.601, 448.900 439.278, 447.693 437.506 C 446.487 435.734, 426.375 414.312, 403 389.901 C 361.372 346.429, 223.156 202.504, 197.757 176.182 C 171.144 148.601, 159.420 130.626, 151.099 104.652 C 149.388 99.309, 146.363 84.826, 144.119 71.228 C 141.410 54.810, 139.465 45.854, 137.961 42.867 C 135.025 37.033, 120.567 17.655, 116.764 14.455 C 112.196 10.611, 107.294 8.428, 99 6.541 C 90.058 4.508, 72.492 3.786, 61.799 5.013 M 122.641 115.692 C 122.261 116.073, 123.158 117.348, 124.636 118.527 C 127.942 121.163, 127.064 123, 122.500 123 C 117.966 123, 117.259 124.584, 120.466 127.556 C 123.771 130.619, 123.005 132, 118 132 C 112.965 132, 111.973 133.720, 115.340 136.616 C 119.167 139.908, 118.749 141.282, 114.056 140.834 C 110.711 140.515, 109.952 140.810, 109.056 142.776 C 108.475 144.051, 108 145.474, 108 145.938 C 108 146.792, 115.166 150, 117.072 150 C 118.030 150, 132 121.842, 132 119.911 C 132 119.432, 130.218 118.132, 128.040 117.020 C 123.573 114.741, 123.588 114.745, 122.641 115.692 M 407.585 434.760 C 400.910 436.983, 396.701 441.468, 394.122 449.106 C 390.253 460.563, 392.012 469.292, 399.520 475.884 C 404.644 480.382, 409.430 482.257, 415.669 482.207 C 427.956 482.109, 438.908 472.250, 440.622 459.743 C 441.912 450.327, 436.331 440.450, 427.064 435.750 C 420.768 432.557, 415.071 432.267, 407.585 434.760" fill="none" stroke="#000" stroke-width="2px" fill-rule="evenodd"/>
</svg>
