<svg xmlns="http://www.w3.org/2000/svg" width="496" height="500" viewBox="0 0 496 500" version="1.1">
	<path d="M 452.500 20.976 L 434.500 36.837 428.315 30.762 L 422.130 24.686 406.377 38.593 C 212.435 209.811, 176.496 241.049, 174.028 240.546 C 171.898 240.112, 168.743 242.385, 154 254.975 C 144.375 263.194, 136.007 269.937, 135.405 269.960 C 134.803 269.982, 133.529 269.137, 132.575 268.083 C 131.168 266.529, 131.058 265.760, 131.991 264.016 C 133.523 261.153, 130.940 257, 127.627 257 C 123.860 257, 113.193 265.857, 110.234 271.442 C 108.624 274.482, 111.427 278, 115.460 278 C 117.475 278, 119.406 278.792, 120.595 280.107 C 122.780 282.524, 124.370 280.883, 95.788 305.717 C 85.894 314.314, 81.191 319.048, 81.425 320.174 C 81.761 321.792, 75.216 328, 73.174 328 C 71.921 328, 68.497 322.808, 68.798 321.365 C 69.027 320.267, 52.112 300.547, 51.489 301.185 C 51.320 301.358, 52.476 308.925, 54.059 318 C 55.642 327.075, 56.951 334.803, 56.968 335.173 C 56.986 335.544, 58.194 337.266, 59.654 339 L 62.307 342.154 59.233 345.228 C 56.447 348.015, 56.013 348.156, 54.597 346.740 C 53.738 345.881, 44.590 342.372, 34.268 338.942 C 23.945 335.512, 14.938 332.499, 14.250 332.246 C 11.288 331.156, 13.513 334.772, 20.623 342.604 C 24.815 347.222, 29.050 351, 30.034 351 C 32.059 351, 37.252 356.675, 36.798 358.390 C 36.634 359.008, 29.975 365.735, 22 373.337 C 14.025 380.940, 7.401 387.912, 7.281 388.830 C 7.160 389.749, 13.010 397.673, 20.281 406.441 L 33.500 422.382 77.870 456.570 C 106.103 478.325, 123.741 491.257, 126.370 492.129 C 132.867 494.286, 140.672 493.711, 146.750 490.629 C 149.638 489.164, 152 487.608, 152 487.171 C 152 486.733, 133.755 465.061, 111.456 439.010 C 72.755 393.798, 70.993 391.566, 72.706 389.928 C 78.280 384.595, 108.462 358.001, 108.936 358.004 C 109.246 358.006, 127.913 379.163, 150.419 405.020 L 191.337 452.032 193.618 449.889 C 199.194 444.650, 201.654 433.044, 198.877 425.077 C 198.259 423.305, 188.809 405.450, 177.877 385.399 C 166.945 365.347, 158 348.666, 158 348.329 C 158 347.992, 156.270 344.967, 154.156 341.608 C 147.511 331.049, 147.606 331.417, 150.924 329.054 C 153.411 327.283, 154.234 327.150, 156.446 328.158 C 158.666 329.169, 159.464 329.033, 161.907 327.227 C 165.057 324.898, 164.349 324.588, 169.954 330.750 C 172.583 333.641, 176.073 333.616, 178.826 330.686 C 181.799 327.520, 181.553 324.585, 178.082 321.822 C 176.476 320.545, 175.014 318.791, 174.832 317.925 C 174.631 316.973, 178.971 312.064, 185.811 305.507 C 192.032 299.544, 197.825 293.277, 198.683 291.582 C 199.541 289.887, 202.326 286.627, 204.872 284.338 C 208.972 280.651, 209.362 279.948, 208.295 278.173 C 207.338 276.583, 207.364 275.943, 208.418 275.068 C 209.438 274.222, 210.145 274.573, 211.458 276.576 C 213.981 280.426, 221.175 283.315, 226.148 282.475 C 231.365 281.594, 236.417 277.094, 238.597 271.386 C 240.222 267.130, 240.224 266.553, 238.636 261.514 C 237.543 258.045, 235.770 255.127, 233.597 253.219 L 230.245 250.276 263.872 220.407 C 282.368 203.980, 331.813 160.221, 373.750 123.166 C 415.688 86.111, 450 55.349, 450 54.808 C 450 54.266, 447.975 51.508, 445.500 48.679 C 443.025 45.849, 441 43.228, 441 42.853 C 441 42.478, 446.625 37.145, 453.500 31 C 462.299 23.136, 466 19.179, 466 17.637 C 466 15.222, 468.374 11.372, 471.378 8.912 C 473.111 7.494, 472.985 4.909, 471.191 5.057 C 470.811 5.088, 462.400 12.252, 452.500 20.976" fill="none" stroke="#000" stroke-width="2px" fill-rule="evenodd"/>
</svg>
