<svg xmlns="http://www.w3.org/2000/svg" width="500" height="497" viewBox="0 0 500 497" version="1.1">
	<path d="M 25.189 9.064 C 14.224 14.543, 6.993 25.766, 7.006 37.288 C 7.014 44.709, 8.522 49.213, 12.841 54.703 C 14.915 57.342, 18.673 62.650, 21.190 66.500 C 25.645 73.313, 58.397 106.549, 98.112 144.559 C 107.566 153.607, 115.038 161.669, 117.055 165 C 124.385 177.100, 130.755 182.918, 139.578 185.573 C 143.045 186.617, 146.194 188.790, 151.097 193.523 C 159.123 201.271, 162.811 203, 171.319 203 L 177.702 203 198.601 218.448 C 210.095 226.944, 221.598 235.721, 224.163 237.952 C 230.442 243.414, 233.429 249.655, 232.555 255.485 C 232.097 258.534, 232.347 260.758, 233.363 262.697 C 235.357 266.499, 458.763 487.420, 461.004 487.805 C 462.226 488.015, 467.261 483.085, 477.140 472.005 C 485.038 463.147, 491.889 454.898, 492.364 453.674 C 493.523 450.689, 485.819 437.705, 478.104 429.643 C 475.022 426.421, 451.350 403.704, 425.500 379.160 C 399.650 354.617, 369.037 325.528, 357.472 314.518 C 274.983 235.992, 271.322 232.676, 264.705 230.521 C 261.292 229.409, 256.250 227.193, 253.500 225.595 C 247.724 222.239, 234.863 209.289, 221.626 193.500 C 204.415 172.972, 204.001 172.353, 203.990 167.160 C 203.977 160.794, 200.348 153.584, 194.116 147.538 C 191.302 144.808, 188.996 142.108, 188.990 141.538 C 188.985 140.967, 187.883 138.143, 186.542 135.263 C 183.211 128.109, 176.141 120.843, 167.270 115.457 C 161.158 111.746, 152.238 103.265, 116.729 67.400 C 79.521 29.819, 72.262 22.951, 63.773 17.300 C 45.641 5.229, 36.687 3.318, 25.189 9.064" fill="none" stroke="#000" stroke-width="2px" fill-rule="evenodd"/>
</svg>
