<svg xmlns="http://www.w3.org/2000/svg" width="497" height="500" viewBox="0 0 497 500" version="1.1">
	<path d="M 136.585 6.107 C 107.303 10.377, 80.077 28.089, 58.404 56.966 C 51.921 65.604, 37.220 91.657, 30.170 107 C 21.809 125.196, 10.720 163.834, 7.385 186.391 C 5.034 202.300, 6.545 229.235, 11.090 252.409 C 12.159 257.859, 12.825 263.034, 12.570 263.909 C 12.316 264.784, 12.646 266.711, 13.304 268.191 C 14.779 271.508, 21.807 277.183, 23.935 276.775 C 26.190 276.343, 48.126 243.386, 54.404 231 C 60.385 219.199, 64.671 207.963, 64.875 203.547 C 65.090 198.891, 69.971 179.337, 73.248 170 C 78.503 155.030, 94.680 126.506, 102.956 117.622 C 112.338 107.549, 122.647 101.057, 136.819 96.297 C 143.549 94.037, 145.504 93.813, 154.444 94.273 C 169.183 95.033, 174.802 97.402, 206.938 116.410 C 222.313 125.505, 243.805 138.073, 254.697 144.340 C 340.737 193.846, 352.684 202.115, 359.823 217.113 C 364.869 227.713, 366.305 234.914, 365.780 246.988 C 365.180 260.786, 363.015 266.088, 345.463 296.740 C 330.168 323.452, 325.564 332.629, 314.389 358.676 C 307.395 374.977, 306.402 376.750, 304.758 375.870 C 303.749 375.331, 302.075 375.159, 301.037 375.488 C 299.608 375.942, 299.072 375.531, 298.825 373.794 C 298.558 371.912, 297.926 371.525, 295.305 371.641 C 292.747 371.755, 292.050 371.356, 291.805 369.641 C 291.561 367.927, 290.863 367.528, 288.305 367.641 C 285.747 367.755, 285.050 367.356, 284.805 365.641 C 284.561 363.927, 283.863 363.528, 281.305 363.641 C 278.747 363.755, 278.050 363.356, 277.805 361.641 C 277.561 359.927, 276.863 359.528, 274.305 359.641 C 271.747 359.755, 271.050 359.356, 270.805 357.641 C 270.561 355.927, 269.863 355.528, 267.305 355.641 C 264.747 355.755, 264.050 355.356, 263.805 353.641 C 263.556 351.902, 262.901 351.546, 260.318 351.744 C 257.693 351.946, 257.082 351.597, 256.819 349.744 C 256.558 347.907, 255.911 347.527, 253.250 347.647 C 250.739 347.761, 250 347.388, 250 346.004 C 250 343.840, 247.216 342.575, 245.531 343.974 C 244.078 345.181, 243 344.315, 243 341.940 C 243 339.829, 240.194 338.594, 238.531 339.974 C 237.078 341.181, 236 340.315, 236 337.940 C 236 335.829, 233.194 334.594, 231.531 335.974 C 230.078 337.181, 229 336.315, 229 333.940 C 229 331.849, 226.640 330.760, 225.209 332.191 C 223.834 333.566, 222 332.340, 222 330.048 C 222 327.868, 219.672 326.728, 218.209 328.191 C 216.822 329.578, 215 328.333, 215 326 C 215 323.523, 213.268 322.533, 211.500 324 C 209.745 325.456, 208 324.483, 208 322.048 C 208 319.868, 205.672 318.728, 204.209 320.191 C 202.822 321.578, 201 320.333, 201 318 C 201 315.523, 199.268 314.533, 197.500 316 C 195.732 317.467, 194 316.477, 194 314 C 194 311.523, 192.268 310.533, 190.500 312 C 188.787 313.422, 186.658 312.335, 187.395 310.414 C 188.099 308.577, 184.679 306.721, 183.240 308.160 C 181.812 309.588, 180 308.346, 180 305.937 C 180 304.358, 179.390 304.040, 176.751 304.246 C 174.051 304.457, 173.447 304.120, 173.182 302.256 C 172.918 300.403, 172.307 300.054, 169.682 300.256 C 167.057 300.457, 166.445 300.108, 166.182 298.256 C 165.918 296.403, 165.307 296.054, 162.682 296.256 C 160.057 296.457, 159.445 296.108, 159.182 294.256 C 158.918 292.403, 158.307 292.054, 155.682 292.256 C 153.057 292.457, 152.445 292.108, 152.182 290.256 C 151.918 288.403, 151.307 288.054, 148.682 288.256 C 146.057 288.457, 145.445 288.108, 145.182 286.256 C 144.918 284.403, 144.307 284.054, 141.682 284.256 C 139.055 284.457, 138.445 284.108, 138.181 282.250 C 137.850 279.926, 135.612 279.201, 134.470 281.049 C 133.541 282.552, 131 280.228, 131 277.874 C 131 276.366, 130.355 276.043, 127.751 276.246 C 125.049 276.457, 124.447 276.121, 124.181 274.250 C 123.846 271.894, 122.554 271.294, 121.498 273.003 C 120.641 274.390, 117 272.353, 117 270.485 C 117 269.480, 115.651 269.992, 112.557 272.173 C 108.211 275.236, 108.057 275.267, 105.479 273.578 C 103.626 272.364, 103.053 271.353, 103.550 270.176 C 105.678 265.133, 105.321 263.889, 100.247 258.666 C 93.829 252.059, 93 250.334, 93 243.589 C 93 238.807, 92.663 237.825, 90.544 236.437 C 89.193 235.552, 87.604 235.127, 87.013 235.492 C 85.492 236.432, 68.474 262.466, 61.145 275.063 C 54.376 286.698, 53.736 289.467, 57.426 291.148 C 59.437 292.065, 60.750 291.805, 65.122 289.627 C 71.445 286.476, 74.306 286.364, 81.239 288.999 C 88.203 291.646, 89.367 291.541, 92.351 287.994 C 94.626 285.291, 95.138 285.106, 97.440 286.155 C 99.513 287.099, 100 288.023, 100 291.007 C 100 294.814, 102.485 301, 104.014 301 C 104.491 301, 105.165 300.543, 105.510 299.984 C 106.434 298.489, 108 299.814, 108 302.090 C 108 304.472, 110.517 305.646, 112.355 304.121 C 113.941 302.804, 115 303.635, 115 306.198 C 115 308.489, 117.553 309.616, 119.355 308.121 C 120.912 306.828, 122 307.626, 122 310.060 C 122 312.130, 124.034 313.066, 126.904 312.315 C 128.552 311.884, 129 312.226, 129 313.915 C 129 316.445, 131.462 317.692, 133.355 316.121 C 134.922 314.820, 136 315.629, 136 318.108 C 136 320.533, 137.773 321.434, 139.586 319.928 C 141.283 318.521, 142.606 319.465, 143.192 322.500 C 143.493 324.062, 144.265 324.446, 146.720 324.256 C 149.305 324.054, 149.919 324.409, 150.182 326.256 C 150.445 328.108, 151.057 328.457, 153.682 328.256 C 156.307 328.054, 156.918 328.403, 157.181 330.256 C 157.448 332.135, 158.028 332.449, 160.750 332.186 C 163.416 331.928, 164 332.223, 164 333.829 C 164 335.925, 166.564 337.515, 167.500 336 C 168.436 334.486, 170.862 336.020, 171.192 338.335 C 171.484 340.380, 172.574 340.733, 175.941 339.869 C 176.760 339.659, 177.557 340.363, 177.788 341.500 C 178.406 344.544, 179.721 345.476, 181.414 344.072 C 183.244 342.552, 185 343.473, 185 345.952 C 185 348.132, 187.328 349.272, 188.791 347.809 C 190.166 346.434, 192 347.660, 192 349.952 C 192 352.014, 194.666 353.503, 195.245 351.764 C 195.859 349.922, 199 351.769, 199 353.972 C 199 355.654, 199.565 355.963, 202.249 355.754 C 204.987 355.540, 205.551 355.870, 205.831 357.845 C 206.086 359.643, 206.634 360.067, 208.178 359.664 C 211.091 358.902, 213 359.916, 213 362.224 C 213 363.772, 213.481 364.107, 215.096 363.685 C 217.966 362.934, 220 363.870, 220 365.940 C 220 368.374, 221.088 369.172, 222.645 367.879 C 224.503 366.338, 227 367.538, 227 369.972 C 227 371.654, 227.565 371.963, 230.249 371.754 C 232.949 371.543, 233.553 371.880, 233.818 373.744 C 234.082 375.597, 234.693 375.946, 237.318 375.744 C 239.943 375.543, 240.555 375.892, 240.818 377.744 C 241.082 379.597, 241.693 379.946, 244.318 379.744 C 246.978 379.540, 247.553 379.883, 247.830 381.838 C 248.092 383.684, 248.621 384.061, 250.339 383.630 C 252.997 382.963, 255.213 384.185, 254.803 386.092 C 254.588 387.092, 255.513 387.500, 258 387.500 C 260.830 387.500, 261.502 387.883, 261.509 389.500 C 261.517 391.116, 262.189 391.500, 265.009 391.500 C 267.825 391.500, 268.500 391.884, 268.502 393.487 C 268.503 394.582, 269.288 395.624, 270.252 395.810 C 271.213 395.995, 272 395.648, 272 395.038 C 272 394.228, 272.559 394.229, 274.078 395.042 C 275.300 395.695, 275.924 396.755, 275.594 397.615 C 274.868 399.508, 277.941 400.713, 279.025 398.960 C 279.709 397.853, 280.121 397.855, 281.469 398.975 C 282.361 399.715, 282.853 400.940, 282.562 401.698 C 281.860 403.529, 284.972 404.664, 286.025 402.960 C 286.701 401.866, 287.127 401.860, 288.413 402.928 C 289.274 403.642, 289.719 404.645, 289.403 405.157 C 289.087 405.669, 289.291 406.646, 289.857 407.328 C 290.514 408.119, 290.573 409.958, 290.021 412.406 C 289.545 414.516, 289.359 416.751, 289.608 417.371 C 289.856 417.992, 295.691 421.623, 302.575 425.440 C 309.459 429.257, 318.404 434.769, 322.454 437.690 C 326.504 440.610, 330.233 443, 330.741 443 C 331.249 443, 333.136 441.169, 334.934 438.932 C 336.842 436.558, 338.773 435.082, 339.570 435.388 C 340.321 435.677, 341.190 435.502, 341.500 435 C 342.408 433.530, 345 435.047, 345 437.048 C 345 439.340, 346.834 440.566, 348.209 439.191 C 349.557 437.843, 352.016 438.795, 351.391 440.423 C 350.658 442.334, 353.703 444.491, 355.284 443.180 C 356.773 441.944, 359.568 443.273, 358.639 444.775 C 358.300 445.324, 358.726 446.358, 359.587 447.072 C 360.808 448.085, 361.318 448.103, 361.906 447.152 C 362.321 446.481, 363.409 446.220, 364.324 446.571 C 365.240 446.922, 365.727 447.632, 365.408 448.149 C 364.481 449.649, 367.116 452.098, 369.009 451.497 C 370.140 451.138, 371.306 451.818, 372.387 453.468 C 373.295 454.854, 374.367 455.884, 374.769 455.758 C 375.639 455.486, 382 460.100, 382 461.003 C 382 461.348, 380.400 462.393, 378.445 463.325 C 373.786 465.546, 371.433 470.751, 372.974 475.421 C 375.440 482.892, 383.609 486.805, 389.924 483.539 C 393.629 481.623, 396.460 475.967, 395.542 472.312 C 394.558 468.392, 395.759 468.006, 400.570 470.695 L 405.117 473.236 409.308 468.860 C 414.899 463.024, 421.071 451.160, 421.312 445.784 C 421.490 441.821, 421.270 441.469, 417.209 439.201 L 412.919 436.805 415.798 431.653 C 417.382 428.819, 432.542 400.718, 449.487 369.206 C 468.741 333.399, 481.084 311.492, 482.398 310.793 C 485.326 309.233, 486.792 307.124, 488.045 302.667 C 488.926 299.532, 488.828 298.386, 487.506 296.370 C 485.348 293.076, 480.149 290.008, 476.715 290.004 C 470.975 289.996, 465.184 296.612, 466.464 301.714 C 466.967 303.715, 462.063 313.513, 441.869 350.856 C 427.997 376.510, 413.014 404.352, 408.574 412.728 C 400.079 428.749, 398.988 429.818, 394.559 426.468 C 393.491 425.661, 391.859 425, 390.931 425 C 390.004 425, 388.685 424.325, 388 423.500 C 387.315 422.675, 385.793 422, 384.618 422 C 383.443 422, 381.919 421.100, 381.232 420 C 380.526 418.869, 378.900 418, 377.492 418 C 376.029 418, 375 417.425, 375 416.607 C 375 415.078, 372.899 414, 369.918 414 C 368.863 414, 368 413.334, 368 412.519 C 368 410.895, 363.743 409.423, 362.057 410.465 C 361.446 410.842, 361 410.257, 361 409.078 C 361 407.735, 360.144 406.823, 358.497 406.410 L 355.994 405.782 358.520 401.141 C 359.909 398.588, 370.919 382.325, 382.986 365 C 428.432 299.751, 433.125 292.137, 443.054 267.558 C 446.844 258.177, 448.316 253.010, 449.058 246.481 C 450.280 235.724, 448.757 205.901, 446.570 197.752 C 440.580 175.443, 426.520 154.304, 409 141.268 C 399.493 134.194, 324.693 89.863, 214.172 25.801 C 183.384 7.956, 161.680 2.447, 136.585 6.107" fill="none" stroke="#000" stroke-width="2px" fill-rule="evenodd"/>
</svg>
