<svg xmlns="http://www.w3.org/2000/svg" width="447" height="500" viewBox="0 0 447 500" version="1.1">
	<path d="M 413.286 5.395 C 404.263 8.334, 395.841 15.103, 381.739 30.750 C 378.640 34.188, 375.713 37, 375.233 37 C 374.754 37, 370.258 41.672, 365.244 47.383 C 358.753 54.774, 356.269 58.312, 356.621 59.660 C 356.962 60.964, 353.872 65.911, 346.710 75.528 C 333.040 93.881, 328.053 98.288, 316.861 101.905 C 312.055 103.459, 306.478 108.994, 304.968 113.710 C 304.300 115.794, 302.931 118.406, 301.925 119.514 C 299.580 122.094, 297 128.260, 297 131.281 C 297 132.601, 295.650 134.909, 293.911 136.563 C 290.467 139.837, 288 144.025, 288 146.597 C 288 147.531, 286.423 150.218, 284.496 152.570 L 280.993 156.845 273.246 156.275 C 268.187 155.902, 263.024 154.719, 258.363 152.864 C 247.588 148.576, 238.596 146.795, 227.500 146.752 C 215.839 146.707, 207.784 148.502, 197.178 153.512 C 189.367 157.201, 176 165.747, 176 167.051 C 176 167.483, 174.425 168.810, 172.500 170 C 170.575 171.190, 169 172.713, 169 173.385 C 169 174.058, 167.425 176.134, 165.500 178 C 163.575 179.866, 162 182.173, 162 183.128 C 162 184.083, 160.613 185.852, 158.917 187.059 C 156.628 188.689, 155.975 189.798, 156.385 191.363 C 156.773 192.849, 156.001 194.435, 153.770 196.737 C 151.433 199.148, 150.897 200.297, 151.724 201.124 C 153.100 202.500, 152.412 204.453, 149.410 207.691 C 147.475 209.780, 147.290 210.542, 148.224 212.592 C 149.152 214.628, 148.981 215.392, 147.165 217.324 C 144.746 219.899, 144.443 222.135, 146.144 224.859 C 147.073 226.346, 146.844 227.293, 144.925 229.887 C 142.972 232.529, 142.775 233.379, 143.788 234.791 C 146.152 238.089, 146.077 238.762, 142.685 244.607 C 137.729 253.146, 136.656 257.220, 137.344 264.891 C 137.669 268.526, 138.192 272.625, 138.506 274 C 138.979 276.072, 137.804 277.915, 131.645 284.764 C 120.915 296.698, 121 296.429, 121 318.508 L 121 337.213 114.120 344.357 C 106.086 352.699, 105.255 354.627, 107.579 359.525 C 109.271 363.090, 109.267 363.112, 106.388 366.234 C 104.800 367.957, 102.600 370.346, 101.500 371.544 C 100.400 372.741, 95.110 378.685, 89.745 384.753 L 79.989 395.784 71.454 391.392 C 66.759 388.976, 62.228 387, 61.385 387 C 60.542 387, 57.257 389.475, 54.085 392.500 C 50.914 395.525, 47.839 398, 47.253 398 C 46.015 398, 39.162 406.062, 36.530 410.614 C 35.539 412.327, 33.552 414.430, 32.114 415.287 C 25.669 419.130, 22.958 423.537, 14.442 444.022 C 9.799 455.191, 6 465.182, 6 466.224 C 6 468.786, 14.743 477.888, 24.500 485.484 C 33.329 492.358, 36.039 494, 38.555 494 C 40.493 494, 72.543 475.097, 77.086 471.274 C 78.748 469.876, 81.845 466.204, 83.967 463.116 C 86.090 460.027, 90.331 454.923, 93.390 451.773 C 96.450 448.623, 99.631 444.573, 100.458 442.773 C 101.285 440.973, 103.542 437.317, 105.474 434.650 C 108.201 430.885, 108.845 429.206, 108.348 427.150 C 107.553 423.859, 104.756 419.631, 100.147 414.757 C 96.658 411.067, 96.636 410.988, 98.554 409.194 C 100.241 407.616, 105.586 401.722, 115.509 390.500 C 116.968 388.850, 119.995 385.116, 122.236 382.203 C 125.188 378.366, 126.751 377.095, 127.906 377.594 C 128.783 377.973, 130.711 378.491, 132.191 378.746 C 135.165 379.258, 135.287 379.155, 146.182 366.853 L 152.863 359.309 167.828 358.734 C 185.271 358.063, 186.659 357.560, 193.020 349.588 C 197.868 343.512, 200.114 342.754, 204.115 345.839 C 207.017 348.077, 213.386 349.926, 221.792 350.969 C 225.252 351.399, 228.257 351.924, 228.468 352.135 C 228.680 352.347, 225.490 357.009, 221.379 362.495 C 214.284 371.963, 213.935 372.675, 214.522 376.485 C 216.091 386.679, 220.545 392.402, 227.729 393.454 C 234.006 394.373, 244.543 397.013, 264.397 402.642 C 274.790 405.589, 284.690 407.990, 286.397 407.978 C 293.866 407.925, 302.560 401.287, 306.642 392.521 C 308.400 388.747, 308.983 385.730, 308.990 380.376 C 309.007 367.970, 304.300 358.823, 295.691 354.533 C 289.965 351.680, 285.698 351.411, 273.099 353.106 C 268.578 353.715, 264.620 353.954, 264.304 353.637 C 262.932 352.265, 267.367 348.056, 274.644 343.827 C 290.352 334.698, 300.122 324.579, 308.418 308.849 C 325.450 276.552, 325.068 236.994, 307.383 201.770 C 303.859 194.752, 303.001 192.007, 303.005 187.770 C 303.009 183.003, 303.446 181.962, 307.584 176.865 C 311.284 172.307, 312.881 171.115, 315.942 170.625 C 318.701 170.184, 320.820 168.834, 323.760 165.644 C 325.979 163.238, 328.943 160.980, 330.347 160.628 C 333.621 159.806, 348.673 149.697, 352.197 145.953 C 353.680 144.377, 355.398 141.155, 356.014 138.794 C 358.019 131.113, 362.374 123.643, 368.846 116.782 C 375.870 109.335, 391.192 96, 392.725 96 C 394.519 96, 409.849 82.051, 410.575 79.758 C 410.968 78.516, 415.651 73, 420.981 67.500 C 437.927 50.014, 444 39.737, 444 28.550 C 444 20.812, 439.088 11.561, 432.987 7.812 C 427.473 4.422, 419.338 3.424, 413.286 5.395" fill="none" stroke="#000" stroke-width="2px" fill-rule="evenodd"/>
</svg>
