<svg xmlns="http://www.w3.org/2000/svg" width="484" height="500" viewBox="0 0 484 500" version="1.1">
	<path d="M 301.500 1.560 C 297.307 2.507, 291.885 2.741, 283.500 2.337 C 269.050 1.642, 243.602 3.494, 237.737 5.669 C 231.341 8.040, 212.129 8.102, 197.633 5.798 C 178.853 2.814, 167.357 5.845, 154.439 17.188 C 149.272 21.724, 140.495 32.927, 137.862 38.346 L 135.659 42.882 129.579 42.844 C 126.236 42.823, 121.167 42.151, 118.316 41.351 C 115.256 40.493, 106.957 39.731, 98.063 39.494 C 84.731 39.138, 82.160 38.780, 75.748 36.390 C 69.150 33.932, 67.043 33.663, 52.268 33.396 C 37.338 33.126, 35.333 32.865, 27.268 30.137 C 18.168 27.060, 7.577 25.365, 4.182 26.442 C 1.276 27.365, -0.369 34.743, 1.253 39.579 C 2.357 42.869, 3.132 43.502, 8 45.082 C 15.319 47.458, 17.441 47.388, 24.368 44.540 L 30.236 42.128 33.929 44.572 C 36.243 46.103, 42.084 47.994, 49.561 49.634 C 67.242 53.510, 68.702 53.565, 74.327 50.556 L 79.155 47.974 81.947 49.962 C 83.482 51.056, 86.035 52.450, 87.619 53.060 C 91.113 54.406, 105.620 56.991, 112.500 57.494 C 115.250 57.695, 121.137 58.651, 125.583 59.619 L 133.666 61.378 134.732 66.439 C 135.319 69.222, 137.940 76, 140.558 81.500 C 144.449 89.676, 146.638 92.824, 152.553 98.757 C 161.744 107.975, 168.541 110.905, 184.500 112.526 C 188.350 112.917, 194.875 114.303, 199 115.606 C 203.636 117.070, 208.974 117.979, 212.978 117.987 C 219.196 117.999, 219.598 118.154, 222.978 121.817 C 225.813 124.889, 228.787 126.477, 238.230 129.961 C 246.019 132.835, 250.446 135.031, 251.406 136.497 C 252.202 137.711, 257.161 141.986, 262.426 145.996 C 267.692 150.006, 272 153.368, 272 153.468 C 272 154.794, 266.182 169.891, 262.547 178 C 255.857 192.922, 255.719 193.530, 258.009 198.018 L 259.944 201.810 253.445 218.155 C 244.961 239.489, 233.001 263.615, 228.258 268.960 C 224.490 273.205, 224.490 273.205, 214.995 274.124 C 190.498 276.493, 171.962 282.153, 145.635 295.304 C 128.242 303.991, 127.508 304.485, 117.844 314.008 C 108.119 323.592, 107.829 324.013, 103.459 334.883 C 101.007 340.985, 99 346.588, 99 347.335 C 99 348.082, 98.362 349.999, 97.581 351.596 C 93.639 359.666, 78.722 399.941, 77.856 404.853 C 77.308 407.959, 75.935 414.426, 74.804 419.224 C 71.957 431.305, 72.563 437.400, 77.292 444.248 C 81.961 451.006, 98.499 469.343, 113.145 484 C 128.387 499.254, 133.808 501.847, 144.336 498.924 C 146.445 498.338, 159.945 492.890, 174.336 486.818 C 188.726 480.745, 202.762 475.235, 205.526 474.572 C 212.882 472.808, 241.477 457.544, 243.961 454.054 C 245.077 452.487, 251.175 448.195, 257.511 444.515 C 264.012 440.740, 270.064 436.447, 271.401 434.662 C 272.704 432.923, 279.537 421.600, 286.585 409.500 C 293.917 396.912, 301.560 385.119, 304.449 381.934 C 310.734 375.008, 324.450 348.068, 323.430 344.653 C 323.077 343.469, 320.874 340.475, 318.534 338 C 316.195 335.525, 312.557 330.651, 310.449 327.169 C 304.052 316.603, 304.654 305.020, 312.036 296.611 C 313.571 294.863, 326.587 268.023, 340.960 236.967 C 355.333 205.910, 368.219 178.788, 369.596 176.697 C 373.239 171.161, 379.519 167.659, 395.139 162.454 C 403.110 159.797, 409.534 157.076, 410.252 156.053 C 411.089 154.859, 417.257 152.743, 429 149.622 C 449.263 144.237, 454.377 141.987, 462.192 135.019 C 478.249 120.701, 486.992 97.093, 482.538 80.080 C 480.809 73.476, 475.837 62.635, 474.022 61.514 C 473.460 61.166, 473 59.769, 473 58.409 C 473 55.131, 469.334 44.321, 466.851 40.279 C 461.940 32.284, 444.469 21.496, 432.325 18.961 C 429.121 18.292, 423.691 16.664, 420.258 15.344 C 407.109 10.286, 392.827 7.819, 372 7.005 C 361.275 6.587, 350.928 5.739, 349.007 5.122 C 347.085 4.505, 343.710 3.994, 341.507 3.987 C 339.303 3.980, 333.225 3.086, 328 2 C 317.136 -0.257, 310.066 -0.375, 301.500 1.560" fill="none" stroke="#000" stroke-width="2px" fill-rule="evenodd"/>
</svg>
