<svg xmlns="http://www.w3.org/2000/svg" width="500" height="421" viewBox="0 0 500 421" version="1.1">
	<path d="M 396 1.571 C 381.278 5.035, 368.519 14.031, 356.750 29.245 C 351.256 36.346, 349.894 37.471, 342.536 40.983 C 333.732 45.185, 326.821 51.510, 323.131 58.743 C 320.568 63.767, 314.094 68.621, 307.329 70.590 C 299.896 72.755, 295.427 76.147, 284.394 88 C 279.018 93.775, 268.435 104.926, 260.876 112.780 C 253.316 120.634, 246.989 127.924, 246.816 128.981 C 246.642 130.038, 235.700 142.214, 222.500 156.039 C 209.300 169.864, 191.750 188.292, 183.500 196.990 C 175.250 205.687, 151.400 230.689, 130.500 252.548 C 109.600 274.408, 86.458 298.640, 79.074 306.397 C 71.689 314.154, 52.517 334.225, 36.468 351 C 1.704 387.338, 1.159 387.953, 0.407 391.713 C -0.120 394.349, 0.884 395.882, 9.982 406.333 C 15.572 412.754, 20.983 418.456, 22.007 419.004 C 24.658 420.422, 26 420.238, 26 418.456 C 26 417.607, 26.563 416.985, 27.250 417.075 C 30.046 417.438, 30.915 416.942, 30.299 415.336 C 29.894 414.281, 30.055 413.916, 30.740 414.339 C 32.537 415.450, 34.927 413.988, 34.290 412.167 C 33.832 410.861, 33.980 410.754, 34.975 411.672 C 36.549 413.126, 39.051 412.297, 38.379 410.545 C 38.023 409.617, 38.648 409.401, 40.606 409.775 C 42.819 410.199, 43.211 409.992, 42.702 408.666 C 42.228 407.431, 42.612 407.093, 44.289 407.269 C 45.762 407.423, 46.464 406.978, 46.392 405.936 C 46.325 404.960, 47.076 404.396, 48.392 404.436 C 49.893 404.482, 50.411 403.977, 50.191 402.683 C 49.931 401.155, 50.199 401.036, 51.880 401.936 C 54.061 403.103, 55.638 401.841, 54.434 399.893 C 53.973 399.147, 54.446 399.007, 55.881 399.462 C 57.519 399.982, 58.205 399.619, 58.842 397.898 C 59.363 396.491, 59.930 396.077, 60.367 396.785 C 61.370 398.407, 63.984 397.121, 63.301 395.342 C 62.950 394.426, 63.263 393.925, 64.114 394.043 C 67.073 394.457, 67.927 393.973, 67.281 392.250 C 66.742 390.810, 66.886 390.711, 68.096 391.693 C 70.115 393.330, 72.253 391.834, 71.347 389.420 C 70.716 387.740, 70.831 387.667, 72.269 388.836 C 74.166 390.378, 76.385 389.447, 75.613 387.433 C 75.210 386.385, 75.814 386.213, 78.212 386.692 C 80.870 387.224, 81.238 387.064, 80.684 385.618 C 80.277 384.559, 80.497 383.979, 81.266 384.078 C 84.101 384.443, 85.187 383.930, 84.634 382.488 C 84.179 381.302, 84.587 381.109, 86.527 381.596 C 88.623 382.122, 89 381.865, 89 379.908 C 89 378.202, 89.293 377.893, 90.122 378.722 C 91.637 380.237, 94.016 379.205, 93.301 377.342 C 92.950 376.426, 93.263 375.925, 94.114 376.043 C 96.929 376.437, 97.923 375.962, 97.359 374.492 C 96.930 373.376, 97.393 373.051, 99.140 373.242 C 100.846 373.429, 101.463 373.023, 101.366 371.777 C 101.265 370.492, 101.647 370.267, 102.866 370.892 C 105.106 372.041, 107.011 371.193, 106.308 369.360 C 105.949 368.426, 106.257 367.924, 107.114 368.043 C 109.951 368.440, 110.922 367.960, 110.342 366.449 C 109.858 365.187, 110.266 365.029, 112.529 365.597 C 115.018 366.221, 115.251 366.069, 114.749 364.147 C 114.125 361.762, 114.971 361.371, 116.800 363.200 C 117.733 364.133, 118 364.120, 118 363.141 C 118 362.449, 118.445 362.157, 118.989 362.493 C 119.565 362.849, 119.717 362.426, 119.353 361.477 C 118.948 360.423, 119.217 359.918, 120.114 360.043 C 122.926 360.436, 123.923 359.962, 123.362 358.500 C 122.720 356.828, 124.525 356.422, 125.510 358.016 C 126.513 359.639, 128.223 357.962, 127.681 355.887 C 127.118 353.736, 128.038 353.438, 129.800 355.200 C 130.733 356.133, 131 356.120, 131 355.141 C 131 354.449, 131.498 354.190, 132.107 354.566 C 132.869 355.037, 132.980 354.512, 132.463 352.883 C 131.800 350.794, 131.900 350.672, 133.312 351.844 C 135.053 353.289, 137 352.638, 137 350.612 C 137 349.913, 138.013 349.377, 139.250 349.421 C 140.838 349.477, 141.416 348.998, 141.216 347.793 C 140.990 346.432, 141.546 346.164, 143.962 346.470 C 146.687 346.815, 146.888 346.660, 145.961 344.927 C 144.909 342.962, 146.305 342.066, 147.473 343.956 C 148.627 345.824, 151.092 343.864, 150.386 341.639 C 149.810 339.826, 149.933 339.700, 151.229 340.775 C 153.021 342.262, 156.085 341.385, 155.394 339.583 C 155.091 338.794, 155.759 338.363, 157.207 338.416 C 158.771 338.473, 159.459 337.964, 159.372 336.813 C 159.272 335.510, 159.909 335.210, 162.168 335.496 C 164.714 335.818, 165.009 335.605, 164.452 333.847 C 163.909 332.137, 164.093 331.974, 165.655 332.779 C 168.325 334.155, 169.877 333.251, 169.220 330.702 C 168.716 328.744, 168.838 328.652, 170.327 329.872 C 171.506 330.840, 172 330.896, 172 330.063 C 172 329.414, 172.498 329.190, 173.107 329.566 C 173.859 330.031, 173.989 329.540, 173.513 328.039 C 172.906 326.130, 173.062 325.958, 174.655 326.779 C 177.325 328.155, 178.877 327.251, 178.220 324.702 C 177.733 322.812, 177.872 322.679, 179.200 323.767 C 181.148 325.364, 184.071 324.348, 183.301 322.342 C 182.950 321.426, 183.263 320.925, 184.114 321.043 C 187.061 321.455, 188.198 320.957, 187.638 319.500 C 186.947 317.699, 188.134 317.534, 189.800 319.200 C 190.733 320.133, 191 320.120, 191 319.141 C 191 318.449, 191.498 318.190, 192.107 318.566 C 192.859 319.031, 192.989 318.540, 192.513 317.039 C 191.879 315.043, 192.014 314.937, 193.905 315.949 C 195.406 316.752, 196 316.760, 196 315.976 C 196 315.374, 196.498 315.190, 197.107 315.566 C 197.859 316.031, 197.989 315.540, 197.513 314.039 C 196.878 312.039, 197.012 311.936, 198.920 312.957 C 200.605 313.859, 201.145 313.785, 201.603 312.591 C 201.919 311.769, 201.886 310.624, 201.530 310.048 C 200.641 308.611, 202.323 308.723, 203.800 310.200 C 204.733 311.133, 205 311.120, 205 310.141 C 205 309.434, 205.513 309.199, 206.170 309.605 C 206.972 310.101, 207.125 309.768, 206.655 308.544 C 206.107 307.116, 206.373 306.864, 207.985 307.286 C 209.093 307.576, 210 307.378, 210 306.847 C 210 306.316, 210.498 306.190, 211.107 306.566 C 211.869 307.037, 211.980 306.512, 211.463 304.883 C 210.767 302.692, 210.846 302.627, 212.518 304.008 C 213.904 305.152, 214.424 305.207, 214.748 304.244 C 214.981 303.553, 215.631 303.272, 216.193 303.619 C 216.852 304.027, 216.948 303.411, 216.463 301.883 C 215.767 299.692, 215.846 299.627, 217.518 301.008 C 218.904 302.152, 219.424 302.207, 219.748 301.244 C 219.981 300.553, 220.540 300.216, 220.992 300.495 C 221.444 300.774, 221.552 299.990, 221.233 298.751 C 220.734 296.815, 220.870 296.678, 222.200 297.767 C 224.212 299.416, 227.070 298.345, 226.263 296.244 C 225.810 295.062, 226.084 294.818, 227.326 295.295 C 230.220 296.405, 232.120 295.093, 230.906 292.824 C 229.950 291.038, 230.047 290.955, 231.924 291.959 C 233.242 292.665, 234 292.704, 234 292.067 C 234 291.514, 234.680 291.324, 235.511 291.643 C 236.613 292.065, 236.847 291.765, 236.376 290.536 C 235.948 289.422, 236.199 288.916, 237.114 289.043 C 240.328 289.492, 241.130 288.984, 240.473 286.914 C 239.880 285.047, 240.032 284.947, 241.926 285.960 C 244.548 287.364, 246.334 286.387, 245.685 283.904 C 245.275 282.335, 245.501 282.198, 247.098 283.053 C 248.429 283.765, 249 283.742, 249 282.976 C 249 282.374, 249.521 282.204, 250.158 282.597 C 250.949 283.087, 251.138 282.637, 250.756 281.174 C 250.272 279.326, 250.455 279.173, 252.098 280.053 C 253.429 280.765, 254 280.742, 254 279.976 C 254 279.374, 254.521 279.204, 255.158 279.597 C 255.951 280.088, 256.138 279.634, 255.751 278.156 C 255.125 275.763, 255.969 275.369, 257.800 277.200 C 258.733 278.133, 259 278.120, 259 277.141 C 259 276.442, 259.515 276.200, 260.158 276.597 C 260.951 277.088, 261.138 276.634, 260.751 275.156 C 260.146 272.844, 260.959 272.359, 262.633 274.033 C 264.364 275.764, 266.848 274.137, 266.216 271.685 C 265.716 269.743, 265.839 269.653, 267.327 270.872 C 268.573 271.895, 269 271.931, 269 271.015 C 269 270.325, 269.668 270.042, 270.523 270.371 C 271.766 270.847, 271.851 270.591, 270.988 268.977 C 269.905 266.954, 271.298 266.054, 272.500 268 C 272.840 268.550, 273.568 269, 274.118 269 C 274.668 269, 274.793 268.474, 274.395 267.830 C 273.903 267.035, 274.225 266.873, 275.401 267.324 C 276.800 267.860, 277.005 267.590, 276.471 265.908 C 275.882 264.053, 276.037 263.949, 277.905 264.949 C 279.406 265.752, 280 265.760, 280 264.976 C 280 264.374, 280.498 264.190, 281.107 264.566 C 281.852 265.027, 281.994 264.555, 281.540 263.125 C 280.855 260.969, 282.341 260.124, 283.505 262.008 C 283.891 262.633, 284.697 262.446, 285.628 261.515 C 286.453 260.690, 286.817 259.514, 286.439 258.901 C 285.972 258.146, 286.437 258.004, 287.875 258.460 C 289.183 258.876, 290 258.702, 290 258.008 C 290 257.389, 290.498 257.190, 291.107 257.566 C 291.859 258.031, 291.989 257.540, 291.513 256.039 C 290.879 254.043, 291.014 253.937, 292.905 254.949 C 294.406 255.752, 295 255.760, 295 254.976 C 295 254.374, 295.521 254.204, 296.158 254.597 C 296.951 255.088, 297.138 254.634, 296.751 253.156 C 296.193 251.022, 297.362 250.158, 298.442 251.906 C 298.750 252.404, 299.849 252.591, 300.885 252.320 C 302.203 251.975, 302.609 251.220, 302.238 249.800 C 301.766 247.998, 301.946 247.901, 303.854 248.922 C 305.375 249.736, 306 249.752, 306 248.976 C 306 248.374, 306.498 248.190, 307.107 248.566 C 307.852 249.027, 307.994 248.555, 307.540 247.125 C 306.855 244.969, 308.341 244.124, 309.505 246.008 C 309.891 246.633, 310.697 246.446, 311.628 245.515 C 312.453 244.690, 312.817 243.514, 312.439 242.901 C 311.972 242.146, 312.437 242.004, 313.875 242.460 C 315.183 242.876, 316 242.702, 316 242.008 C 316 241.389, 316.450 241.160, 317 241.500 C 317.550 241.840, 318 241.386, 318 240.492 C 318 239.288, 318.553 239.041, 320.125 239.540 C 321.700 240.040, 322.046 239.883, 321.461 238.937 C 320.894 238.020, 321.159 237.847, 322.401 238.324 C 323.800 238.860, 324.005 238.590, 323.471 236.908 C 322.882 235.053, 323.037 234.949, 324.905 235.949 C 326.406 236.752, 327 236.760, 327 235.976 C 327 235.374, 327.521 235.204, 328.158 235.597 C 328.951 236.088, 329.138 235.634, 328.751 234.156 C 328.125 231.763, 328.969 231.369, 330.800 233.200 C 331.733 234.133, 332 234.133, 332 233.200 C 332 232.540, 332.691 232, 333.535 232 C 334.810 232, 334.869 231.624, 333.886 229.787 C 332.710 227.590, 332.720 227.587, 335.351 229.310 C 337.702 230.851, 338 230.868, 338 229.464 C 338 228.562, 338.476 228.176, 339.107 228.566 C 339.869 229.037, 339.980 228.512, 339.463 226.883 C 338.767 224.692, 338.846 224.627, 340.518 226.008 C 341.832 227.093, 342.435 227.174, 342.727 226.306 C 342.948 225.650, 343.827 225.380, 344.681 225.708 C 345.987 226.209, 346.050 225.963, 345.081 224.152 C 343.943 222.025, 345.244 220.969, 346.500 223 C 347.461 224.555, 349.282 224.176, 348.658 222.551 C 348.296 221.608, 348.582 221.286, 349.478 221.630 C 350.492 222.019, 350.700 221.544, 350.270 219.829 C 349.690 217.516, 349.701 217.513, 351.843 219.405 C 353.806 221.138, 354 221.156, 354 219.596 C 354 218.552, 354.453 218.162, 355.158 218.597 C 355.951 219.088, 356.138 218.634, 355.751 217.156 C 355.178 214.965, 356.372 214.176, 357.500 216 C 357.840 216.550, 358.568 217, 359.118 217 C 359.668 217, 359.793 216.474, 359.395 215.830 C 358.903 215.035, 359.225 214.873, 360.401 215.324 C 361.783 215.854, 362.004 215.587, 361.498 213.994 C 360.792 211.770, 361.965 211.365, 363.800 213.200 C 364.733 214.133, 365 214.110, 365 213.093 C 365 212.318, 365.637 212.030, 366.565 212.387 C 367.784 212.854, 367.984 212.524, 367.467 210.895 C 366.902 209.116, 367.117 208.902, 368.901 209.469 C 370.185 209.876, 371 209.697, 371 209.008 C 371 208.389, 371.498 208.190, 372.107 208.566 C 372.852 209.027, 372.994 208.555, 372.540 207.125 C 371.798 204.788, 372.926 204.326, 374.800 206.200 C 375.733 207.133, 376 206.995, 376 205.578 C 376 204, 376.221 203.938, 377.644 205.120 C 379.106 206.333, 379.209 206.235, 378.577 204.242 C 377.791 201.767, 378.865 201.318, 380.947 203.250 C 382.050 204.274, 382.175 204.163, 381.636 202.639 C 381.127 201.201, 381.349 200.920, 382.609 201.404 C 383.868 201.887, 384.121 201.569, 383.714 200.015 C 383.170 197.935, 384.407 197.232, 385.500 199 C 385.840 199.550, 386.568 200, 387.118 200 C 387.668 200, 387.793 199.474, 387.395 198.830 C 386.903 198.035, 387.225 197.873, 388.401 198.324 C 389.783 198.854, 390.004 198.587, 389.498 196.994 C 388.792 194.770, 389.965 194.365, 391.800 196.200 C 392.733 197.133, 393 197.029, 393 195.731 C 393 194.697, 393.542 194.271, 394.427 194.610 C 395.501 195.023, 395.706 194.582, 395.254 192.829 C 394.698 190.673, 394.790 190.612, 396.489 192 C 397.823 193.090, 398.435 193.173, 398.727 192.306 C 398.948 191.650, 399.742 191.348, 400.492 191.635 C 401.492 192.019, 401.695 191.540, 401.254 189.829 C 400.717 187.749, 400.832 187.647, 402.327 188.872 C 403.875 190.142, 404 189.336, 404 178.122 L 404 166 406.869 166 C 414.889 166, 427.870 162.801, 436 158.822 C 444.583 154.620, 450.042 149.839, 464.500 133.855 C 468.474 129.462, 471.703 127.241, 480.233 123.036 C 490.938 117.757, 500 110.226, 500 106.608 C 500 103.888, 497.898 99.526, 495.249 96.750 C 493.009 94.402, 491.823 94, 487.129 94 C 479.521 94, 474.119 91.164, 469.122 84.546 C 455.747 66.830, 434.596 51.618, 412.223 43.624 C 402.341 40.093, 399.497 38.510, 397.203 35.265 C 393.314 29.763, 393.449 26.760, 397.995 17.625 C 402.079 9.420, 404.070 1.738, 402.364 0.768 C 401.889 0.498, 399.025 0.859, 396 1.571 M 346.484 67.148 C 341.607 71.431, 340 74.926, 340 81.255 C 340 85.433, 340.625 87.584, 342.849 91.054 C 346.279 96.408, 347.379 97.353, 357 103.211 C 378.973 116.589, 417.600 132, 429.159 132 C 438.372 132, 444 126.890, 444 118.526 C 444 111.468, 440.582 106.923, 432.500 103.237 C 408.967 92.502, 394.590 84.208, 372.186 68.443 C 366.004 64.093, 365.706 64, 357.971 64 C 350.535 64, 349.858 64.185, 346.484 67.148 M 35.742 374.763 C 32.205 376.956, 31.433 379.486, 33.390 382.473 C 35.646 385.916, 38.621 386.519, 42.649 384.351 C 47.378 381.805, 48.121 378.361, 44.596 375.329 C 41.394 372.575, 39.470 372.452, 35.742 374.763" fill="none" stroke="#000" stroke-width="2px" fill-rule="evenodd"/>
</svg>
