<svg xmlns="http://www.w3.org/2000/svg" width="478" height="500" viewBox="0 0 478 500" version="1.1">
	<path d="M 127.914 1.066 C 121.133 2.063, 102.783 8.836, 94.444 13.420 C 84.221 19.039, 69.959 28.097, 66.363 31.254 C 64.490 32.899, 61.370 37.545, 59.430 41.578 C 54.322 52.198, 48.084 60.125, 40.674 65.413 C 34.204 70.030, 24.800 74, 20.335 74 C 18.804 74, 14.845 76.813, 8.991 82.062 C 0.682 89.512, 0 90.410, 0 93.897 C 0 97.150, 1.107 98.997, 8.007 107.265 C 18.819 120.217, 25.663 126, 30.183 126 C 35.061 126, 48.468 114.622, 49.985 109.196 C 52.953 98.576, 66.803 87.400, 82.932 82.612 C 92.497 79.773, 93.278 80.041, 102.944 89.500 C 111.373 97.748, 113.551 99.049, 115.563 97.037 C 116.180 96.420, 118.496 99.383, 122.013 105.287 C 126.026 112.026, 130.880 117.992, 140.086 127.500 C 164.875 153.103, 175.160 165.987, 205.403 209.320 C 241.946 261.681, 277.333 307.534, 334.040 376 C 369.131 418.367, 385.051 439.411, 406.287 471.500 C 419.517 491.492, 421.336 493.797, 426.222 496.750 C 429.178 498.537, 432.330 500, 433.226 500 C 438.715 500, 459.032 486.046, 468.819 475.554 C 477.650 466.087, 478.614 463.807, 476.624 457.104 C 475.245 452.463, 473.095 449.770, 458.708 434.665 C 431.454 406.050, 409.622 379.892, 374.276 333.500 C 328.155 272.965, 287.713 223.540, 253.996 186.500 C 210.650 138.883, 194.207 118.348, 179.215 93.108 C 175.657 87.117, 170.401 80.262, 165.254 74.898 C 160.207 69.638, 157 65.471, 157 64.172 C 157 63.004, 154.019 57.440, 150.376 51.808 C 143.458 41.114, 141.593 35.400, 144.053 32.436 C 144.775 31.566, 147.196 29.874, 149.433 28.677 C 153.184 26.669, 154.822 26.509, 170.500 26.621 C 189.009 26.752, 199.053 28.051, 221.368 33.200 C 234.798 36.298, 235.278 36.340, 236.601 34.532 C 237.551 33.232, 237.654 32.288, 236.941 31.429 C 236.226 30.568, 236.291 30.070, 237.157 29.781 C 238.040 29.487, 237.791 28.515, 236.295 26.414 C 232.963 21.735, 203.258 9.918, 182.136 4.870 C 164.075 0.553, 141.952 -0.999, 127.914 1.066" fill="none" stroke="#000" stroke-width="2px" fill-rule="evenodd"/>
</svg>
