<svg xmlns="http://www.w3.org/2000/svg" width="456" height="411" viewBox="0 0 456 411" version="1.1">
	<path d="M 137.366 10.186 C 117.818 12.472, 103.095 15.291, 94.059 18.479 C 91.827 19.267, 90 19.616, 90 19.256 C 90 18.895, 89.460 19.140, 88.800 19.800 C 88.140 20.460, 85.345 21, 82.588 21 C 78.654 21, 75.632 21.968, 68.538 25.498 C 60.345 29.576, 46.177 38.991, 39.567 44.750 C 38.147 45.987, 36.565 47, 36.051 47 C 35.538 47, 34.797 47.520, 34.405 48.155 C 33.927 48.927, 34.156 49.046, 35.095 48.514 C 35.868 48.077, 34.700 49.484, 32.500 51.641 C 24.499 59.486, 18.829 66.320, 18.607 68.387 C 18.482 69.549, 17.652 71.625, 16.762 73 C 15.873 74.375, 14.590 76.737, 13.912 78.250 C 13.234 79.762, 12.275 81, 11.780 81 C 11.286 81, 11.131 81.402, 11.434 81.894 C 11.738 82.385, 11.280 84.479, 10.416 86.547 C 7.191 94.265, 5.655 112.674, 7.999 115.499 C 9.002 116.708, 9.007 117.903, 8.024 121.413 C 7.347 123.833, 7.057 127.542, 7.380 129.656 C 7.704 131.770, 8.076 136.504, 8.208 140.175 C 8.347 144.062, 8.876 146.778, 9.474 146.675 C 10.051 146.577, 10.341 147.814, 10.138 149.500 C 9.482 154.929, 9.486 175, 10.143 175 C 11.240 175, 11.890 177.706, 11.318 179.892 C 11.018 181.039, 10.437 181.770, 10.027 181.517 C 8.749 180.727, 4.310 186.512, 4.625 188.558 C 4.788 189.626, 5.083 197.925, 5.279 207 C 5.621 222.817, 5.745 223.672, 8.277 227.666 C 9.730 229.957, 11.396 232.127, 11.978 232.487 C 12.561 232.847, 14.198 235.430, 15.615 238.227 C 17.814 242.567, 18.222 244.792, 18.400 253.406 C 18.627 264.436, 19.253 266.269, 24.924 272.500 C 28.307 276.217, 28.582 276.996, 28.802 283.501 L 29.039 290.503 17.269 294.501 L 5.500 298.500 5.563 303.250 C 5.635 308.703, 7.493 311.127, 17.500 318.823 C 20.800 321.361, 24.095 324.014, 24.821 324.719 C 27.981 327.782, 46 325.273, 46 321.770 C 46 321.038, 47.350 319.929, 49 319.306 C 50.650 318.683, 52 317.532, 52 316.747 C 52 315.193, 56.640 312.660, 57.976 313.485 C 59.091 314.174, 58.873 321.340, 57.713 322.124 C 57.193 322.475, 57.542 323.897, 58.510 325.374 C 59.456 326.818, 60.066 328.042, 59.865 328.093 C 56.921 328.845, 49.990 328.681, 48.284 327.819 C 45.076 326.197, 43 328.291, 43 333.148 C 43 336.854, 43.315 337.247, 49.250 340.937 C 59.288 347.180, 59.329 347.223, 59.419 351.821 C 59.463 354.120, 59.098 356.134, 58.607 356.298 C 58.115 356.462, 58.228 357.557, 58.857 358.732 C 60.307 361.442, 60.329 363.322, 58.900 362.438 C 58.175 361.990, 58.210 362.523, 59.003 364.006 C 59.954 365.782, 59.939 366.420, 58.932 367.042 C 57.934 367.659, 58.042 368.416, 59.435 370.540 C 60.768 372.575, 60.909 373.438, 60.002 373.999 C 59.099 374.557, 59.072 375.266, 59.897 376.807 C 61.403 379.621, 61.291 380.049, 59.253 379.267 C 57.636 378.646, 57.643 378.807, 59.358 381.424 C 60.743 383.538, 60.906 384.440, 60.002 384.999 C 59.099 385.557, 59.072 386.266, 59.897 387.807 C 61.385 390.588, 61.290 391.048, 59.376 390.314 C 57.953 389.768, 57.974 390.031, 59.546 392.431 C 60.954 394.579, 61.066 395.341, 60.065 395.960 C 59.067 396.576, 59.193 397.367, 60.645 399.586 C 61.885 401.482, 62.029 402.133, 61.080 401.547 C 59.997 400.880, 59.819 401.087, 60.330 402.418 C 60.699 403.378, 61 404.427, 61 404.748 C 61 405.070, 62.556 403.571, 64.458 401.417 C 66.849 398.709, 67.930 396.497, 67.958 394.250 C 67.983 392.347, 68.518 390.994, 69.250 390.985 C 70.122 390.974, 70.165 390.747, 69.392 390.235 C 68.782 389.831, 68.462 388.600, 68.682 387.500 C 68.901 386.400, 69.040 377.512, 68.992 367.750 C 68.920 353.225, 69.157 350, 70.294 350 C 71.518 350, 213.455 302.864, 239.500 293.808 C 250.846 289.863, 254 286.843, 254 279.925 C 254 276.322, 253.741 276.023, 248.452 273.521 C 241.950 270.444, 239.617 270.849, 238.356 275.274 L 237.437 278.500 227.278 279.382 L 217.120 280.263 213.310 277.296 C 211.214 275.664, 206.685 272.939, 203.244 271.241 L 196.989 268.154 199.500 266.179 C 200.881 265.092, 202.623 262.748, 203.371 260.969 C 204.555 258.153, 204.508 257.127, 203.011 253.029 C 201.644 249.291, 201.538 247.985, 202.494 246.677 C 203.156 245.772, 204.063 245.362, 204.509 245.766 C 204.955 246.169, 205.034 245.998, 204.684 245.384 C 203.693 243.647, 206.940 241.524, 213.500 239.619 C 216.800 238.660, 222.893 236.779, 227.040 235.438 C 231.186 234.097, 235.874 233, 237.456 233 C 239.039 233, 240.017 232.684, 239.630 232.297 C 238.980 231.646, 244.480 229.771, 261 225.011 C 264.575 223.981, 269.442 222.424, 271.816 221.551 C 274.190 220.678, 276.622 220.267, 277.221 220.637 C 277.921 221.069, 278.017 220.837, 277.490 219.985 C 276.896 219.023, 277.128 218.835, 278.336 219.299 C 279.251 219.650, 280 219.501, 280 218.969 C 280 218.436, 280.866 218, 281.923 218 C 282.981 218, 290.294 215.516, 298.173 212.481 C 313.827 206.451, 316.990 205.024, 316.737 204.107 C 316.646 203.773, 317.877 201.475, 319.474 199 C 321.071 196.525, 322.507 192.926, 322.666 191.003 C 322.825 189.080, 323.711 186.953, 324.635 186.277 C 326.877 184.638, 326.929 173.554, 324.703 171.912 C 324.264 171.588, 324.602 170.746, 325.453 170.039 C 326.737 168.973, 327 169.021, 327 170.319 C 327 171.178, 327.427 172.146, 327.949 172.469 C 328.471 172.791, 334.401 171.666, 341.126 169.968 C 351.750 167.286, 353.465 167.079, 354.197 168.388 C 354.661 169.216, 356.230 171.309, 357.685 173.037 C 360.935 176.900, 360.169 176.980, 386.500 170.021 C 397.500 167.113, 408.525 164.208, 411 163.564 C 414.587 162.631, 415.900 161.658, 417.470 158.768 C 419.399 155.218, 419.400 155.100, 417.559 153.065 C 415.200 150.458, 416.202 149.334, 419.770 150.586 C 422.124 151.413, 423.416 153.744, 429.152 167.522 C 436.075 184.152, 437.308 185.689, 441.350 182.733 C 443.093 181.459, 442.897 180.664, 437.445 166.946 C 434.288 159.001, 430.619 150.778, 429.292 148.674 C 426.071 143.567, 421.022 141.429, 415.283 142.742 C 410.659 143.801, 410 143.567, 410 140.872 C 410 139.600, 411.237 138.757, 414.250 137.977 C 416.587 137.371, 421.650 136.024, 425.500 134.983 C 429.350 133.942, 436.100 132.147, 440.500 130.995 C 457.887 126.441, 456 127.466, 456 122.576 L 456 118.229 448.750 120.139 C 413.905 129.319, 405.762 131.162, 404.711 130.111 C 403.384 128.784, 399.343 128.636, 398.570 129.887 C 398.269 130.374, 396.330 131.084, 394.261 131.463 C 392.192 131.842, 381.500 134.330, 370.500 136.992 C 328.997 147.036, 323.881 148.214, 323.485 147.818 C 323.262 147.595, 322.948 145.563, 322.789 143.303 C 322.630 141.043, 322.230 139.360, 321.901 139.563 C 320.578 140.378, 316.981 134.816, 317.156 132.226 C 317.258 130.727, 315.970 126.267, 314.295 122.315 C 312.619 118.363, 309.129 108.463, 306.538 100.315 C 296.529 68.833, 290.833 55.572, 283.209 46 C 279.818 41.743, 273 34.799, 273 35.603 C 273 35.808, 270.637 34.486, 267.750 32.665 C 264.863 30.845, 260.025 28.388, 257 27.206 C 253.975 26.024, 250.150 24.533, 248.500 23.893 C 246.850 23.254, 244.600 22.589, 243.500 22.417 C 242.400 22.244, 237 20.934, 231.500 19.506 C 222.412 17.146, 213.560 15.455, 192 11.960 C 182.769 10.464, 145.375 9.249, 137.366 10.186 M 193.296 76.985 C 180.169 77.621, 178.786 77.876, 175.050 80.348 C 172.827 81.820, 171.059 83.356, 171.122 83.762 C 171.185 84.168, 171.184 86.605, 171.118 89.179 C 170.978 94.738, 169.113 97, 164.671 97 C 162.918 97, 159.463 98.072, 156.992 99.382 C 153.217 101.384, 151.345 101.714, 145.262 101.449 C 141.282 101.275, 137.559 100.845, 136.989 100.493 C 135.521 99.586, 129.889 102.267, 130.410 103.625 C 130.647 104.244, 130.090 104.695, 129.171 104.626 C 127.661 104.512, 127.536 105.996, 127.875 120 C 128.082 128.525, 128.613 136.460, 129.056 137.634 C 129.787 139.570, 130.283 139.689, 134.409 138.918 C 136.910 138.451, 141.377 137.365, 144.335 136.505 C 147.294 135.645, 151.016 134.767, 152.607 134.553 C 156.550 134.025, 164.952 132.140, 168 131.101 C 169.375 130.632, 172.975 129.692, 176 129.011 C 179.025 128.331, 184.200 126.983, 187.500 126.015 C 190.800 125.047, 197.775 123.283, 203 122.094 C 216.717 118.973, 224 116.805, 224 115.842 C 224 115.379, 224.338 115.053, 224.750 115.118 C 226.735 115.432, 228.057 114.901, 227.507 114.011 C 227.165 113.458, 227.539 113.270, 228.358 113.584 C 229.265 113.932, 230.069 113.359, 230.477 112.072 C 230.839 110.933, 231.667 109.997, 232.317 109.994 C 236.300 109.972, 244.872 86.960, 242.128 83.654 C 241.578 82.992, 240.950 81.111, 240.731 79.475 L 240.334 76.500 223.917 76.398 C 214.888 76.342, 201.108 76.606, 193.296 76.985 M 83.500 311.449 C 81.300 312.103, 78.150 313.202, 76.500 313.891 C 74.850 314.581, 72.263 314.899, 70.750 314.598 L 68 314.050 68 320.525 C 68 325.004, 68.385 327.020, 69.250 327.064 C 69.938 327.099, 71.984 327.273, 73.799 327.451 C 75.613 327.629, 79.888 326.767, 83.299 325.534 C 89.230 323.390, 89.500 323.146, 89.500 319.923 C 89.500 316.505, 89.869 316.223, 96.750 314.395 C 100.392 313.427, 94.977 309.900, 90.203 310.131 C 88.716 310.202, 85.700 310.796, 83.500 311.449" fill="none" stroke="#000" stroke-width="2px" fill-rule="evenodd"/>
</svg>
