<svg xmlns="http://www.w3.org/2000/svg" width="500" height="465" viewBox="0 0 500 465" version="1.1">
	<path d="M 381.994 0.934 C 375.181 3.007, 369.797 7.379, 360.047 18.759 C 357.098 22.201, 354.501 24.835, 354.277 24.611 C 354.053 24.387, 353.220 21.345, 352.425 17.852 C 350.417 9.026, 349.237 7.133, 345.077 6.070 C 339.953 4.762, 303.995 2.533, 300.829 3.328 C 299.036 3.778, 293.317 9.612, 283.261 21.248 C 275.060 30.736, 267.577 39.688, 266.632 41.140 C 265.687 42.592, 257.580 65.767, 248.616 92.640 C 239.653 119.513, 231.495 143.075, 230.489 145 C 229.483 146.925, 226.110 155.651, 222.995 164.392 L 217.330 180.284 211.415 182.437 C 198.627 187.092, 182.449 200.391, 170.156 216.355 C 165.859 221.935, 162.041 227.175, 161.672 228 C 161.302 228.825, 159.538 231.384, 157.750 233.687 C 155.963 235.989, 151.920 241.389, 148.768 245.687 C 145.615 249.984, 141.914 254.750, 140.543 256.277 L 138.050 259.054 132.775 255.556 C 124.697 250.199, 117.176 248, 106.933 248 C 92.165 248, 81.700 252.337, 72.180 262.403 C 58.849 276.499, 56.063 299.498, 65.402 318.367 C 67.301 322.206, 67.631 323.740, 66.777 324.769 C 66.160 325.513, 56.845 332.940, 46.077 341.273 C 13.952 366.136, 5.434 375.556, 1.531 390.542 C -0.588 398.677, -0.426 409.466, 1.892 414.569 C 4.483 420.273, 18.071 433.833, 27.005 439.630 C 37.101 446.181, 55.430 454.349, 67.021 457.462 C 79.163 460.724, 100.051 463.774, 116.033 464.619 L 128.566 465.282 149.533 447.909 C 176.514 425.554, 250.257 363.202, 302 318.994 C 324.275 299.963, 368.825 261.951, 401 234.523 C 433.175 207.095, 468.613 176.764, 479.750 167.121 L 500 149.588 500 144.841 C 500 136.223, 497.155 133.110, 491.421 135.454 C 488.961 136.459, 487.094 136.220, 479.013 133.866 C 461.408 128.738, 442.964 126.147, 423.393 126.053 L 412.286 126 410.639 115.351 C 408.122 99.082, 404.270 82.989, 399.692 69.615 C 395.829 58.332, 395.549 56.779, 395.605 47 C 395.667 36.245, 396.331 33.327, 403.054 14.304 C 405.658 6.936, 405.138 3.640, 401.035 1.518 C 397.921 -0.092, 386.518 -0.442, 381.994 0.934 M 308.898 38.262 C 305.714 40.381, 304.953 42.131, 296.824 66.012 C 292.051 80.030, 288.114 91.785, 288.074 92.133 C 287.937 93.311, 292.981 93.729, 293.816 92.610 C 294.272 92, 298.387 83.175, 302.961 73 C 307.535 62.825, 312.110 53.576, 313.128 52.448 C 314.145 51.319, 316.081 47.719, 317.429 44.448 C 319.671 39.008, 319.741 38.393, 318.249 37.250 C 315.822 35.390, 312.705 35.728, 308.898 38.262 M 343.106 104.750 C 329.620 147.178, 327.227 155.089, 327.968 154.801 C 328.396 154.636, 336.240 150.929, 345.400 146.565 C 358.830 140.166, 362.170 138.170, 362.652 136.252 C 363.576 132.570, 360.340 118.027, 354.863 101.250 C 352.126 92.862, 349.701 86, 349.476 86 C 349.250 86, 346.384 94.438, 343.106 104.750" fill="none" stroke="#000" stroke-width="2px" fill-rule="evenodd"/>
</svg>
