<svg xmlns="http://www.w3.org/2000/svg" width="500" height="298" viewBox="0 0 500 298" version="1.1">
	<path d="M 49.207 5.961 C 46.281 9.276, 41.176 17.735, 32.586 33.500 C 27.608 42.636, 27.003 44.450, 25.590 54.500 C 23.148 71.860, 21.932 79.901, 20.448 88.500 C 19.688 92.900, 17 110.225, 14.474 127 C 8.021 169.866, 6.224 181.521, 4.876 189.270 C 4.033 194.113, 4 196.705, 4.760 198.373 C 6.051 201.207, 28.061 212.373, 41.500 217.012 C 55.912 221.987, 75.739 227, 81.002 227 C 86.568 227, 88.345 225.677, 90.988 219.563 C 91.954 217.328, 95.459 209.875, 98.776 203 C 103.251 193.724, 105.501 187.469, 107.501 178.748 C 108.984 172.285, 110.490 166.821, 110.848 166.606 C 111.207 166.391, 114.200 167.020, 117.500 168.004 C 120.800 168.987, 132.500 172.305, 143.500 175.375 C 173.697 183.806, 259.565 212.726, 321.820 235.434 C 368.908 252.609, 399.277 264.360, 430.500 277.486 C 462.017 290.736, 470.418 294, 473.003 294 C 479.273 294, 491.050 274.077, 494.501 257.632 C 496.546 247.889, 496.047 244.587, 492.236 242.637 C 490.731 241.867, 475.100 236.875, 457.500 231.545 C 376.551 207.028, 232.169 156.331, 175.500 132.527 C 171.100 130.679, 157.850 125.292, 146.057 120.557 C 134.263 115.821, 124.463 111.796, 124.278 111.612 C 123.859 111.192, 127.630 94.428, 133.978 68.500 C 136.671 57.500, 139.178 46.194, 139.549 43.375 L 140.224 38.250 135.569 35.048 C 129.800 31.078, 109.949 21.151, 99.410 16.964 C 90.824 13.554, 61.797 4.657, 55.707 3.570 C 52.318 2.965, 51.624 3.220, 49.207 5.961" fill="none" stroke="#000" stroke-width="2px" fill-rule="evenodd"/>
</svg>
