<svg xmlns="http://www.w3.org/2000/svg" width="500" height="418" viewBox="0 0 500 418" version="1.1">
	<path d="M 58 8.828 C 50.490 11.326, 47.265 13.119, 40.777 18.404 C 21.834 33.835, 11.920 60.808, 13.932 91.446 L 14.651 102.392 20.487 107.696 C 24.656 111.484, 27.135 113, 29.162 113 C 30.832 113, 32 113.538, 32 114.307 C 32 115.026, 35.593 117.529, 39.985 119.869 C 44.377 122.209, 48.314 124.694, 48.735 125.390 C 49.804 127.160, 58.119 132.647, 83 148 C 159.658 195.303, 207.705 226.375, 252.500 257.616 C 270.650 270.274, 302.600 292.487, 323.500 306.978 C 370.601 339.637, 385.021 350.155, 409.942 370.028 C 451.424 403.107, 454.407 405, 465.047 405 C 472.754 405, 476.856 403.801, 482.675 399.845 C 492.276 393.319, 495.542 376.760, 489.617 364.649 C 485.624 356.489, 484.434 355.611, 436.500 325.463 C 418.497 314.141, 373.967 284.300, 352 268.837 C 313.524 241.754, 290.909 224.731, 253.500 194.691 C 227.941 174.166, 220 167.268, 220 165.590 C 220 164.886, 219.100 163.495, 218 162.500 C 215.221 159.985, 215.448 157.339, 218.494 156.756 C 221.187 156.242, 222.566 157.347, 223.164 160.500 C 223.422 161.860, 224.337 162.500, 226.022 162.500 C 229.298 162.500, 231 163.695, 231 165.996 C 231 167.378, 231.848 167.956, 234.211 168.187 C 236.690 168.429, 237.553 169.069, 238 171 C 238.471 173.033, 239.273 173.558, 242.289 173.810 C 245.145 174.049, 246 174.554, 246 176.001 C 246 178.298, 247.699 179.500, 250.947 179.500 C 252.732 179.500, 253.554 180.176, 253.986 182 C 254.439 183.913, 255.317 184.572, 257.723 184.808 C 260.298 185.061, 260.986 185.658, 261.524 188.110 C 262.105 190.756, 262.548 191.069, 265.340 190.802 C 267.856 190.561, 268.702 190.976, 269.499 192.842 C 270.410 194.974, 270.995 195.148, 276 194.779 C 284.190 194.175, 288.728 191.640, 290.157 186.869 C 290.802 184.719, 292.859 181.506, 294.730 179.730 C 299.217 175.468, 300.174 172.793, 299.373 166.753 C 298.882 163.052, 298.221 161.609, 296.854 161.251 C 295.834 160.985, 295 159.946, 295 158.942 C 295 156.733, 293.385 155.621, 290.075 155.552 C 288.280 155.514, 287.437 154.812, 287.008 153 C 286.554 151.083, 285.619 150.383, 283 150 C 280.383 149.617, 279.445 148.916, 278.989 147 C 278.555 145.177, 277.731 144.500, 275.947 144.500 C 272.700 144.500, 271 143.298, 271 141.004 C 271 139.622, 270.152 139.044, 267.789 138.813 C 265.313 138.572, 264.444 137.928, 263.989 136 C 263.574 134.238, 262.677 133.455, 260.950 133.349 C 259.603 133.265, 257.938 133.153, 257.250 133.099 C 256.563 133.044, 256 131.875, 256 130.500 C 256 127.999, 255.674 127.811, 251 127.608 C 249.063 127.524, 248.430 126.894, 248.189 124.807 C 247.923 122.500, 247.355 122.069, 244.229 121.807 C 241.285 121.559, 240.462 121.016, 239.973 119 C 239.485 116.989, 238.835 116.557, 236.650 116.793 C 234.357 117.040, 233.697 116.518, 232.411 113.441 C 231.172 110.475, 230.489 109.900, 228.746 110.356 C 226.122 111.042, 224 109.435, 224 106.761 C 224 105.174, 223.490 104.864, 221.506 105.244 C 218.812 105.759, 217.430 104.650, 216.841 101.500 C 216.552 99.954, 215.675 99.500, 212.983 99.500 C 209.931 99.500, 209.461 99.162, 209.185 96.762 C 209.011 95.256, 209.574 93.019, 210.435 91.790 C 211.296 90.561, 212 89.008, 212 88.340 C 212 86.617, 204.814 80.019, 202.924 80.009 C 202.058 80.004, 200.258 78.832, 198.924 77.405 C 197.591 75.977, 194.588 73.685, 192.250 72.310 C 189.912 70.935, 188 69.330, 188 68.743 C 188 68.156, 189.143 65.726, 190.540 63.342 C 192.849 59.402, 192.977 58.622, 191.947 54.754 C 189.948 47.242, 183.722 36.721, 177.857 30.943 C 171.067 24.252, 160.234 18.533, 150.500 16.498 C 136.673 13.608, 130.021 14.897, 121.576 22.103 L 115.757 27.069 112.629 24.495 C 106.143 19.159, 94.710 12.032, 89.207 9.894 C 81.225 6.793, 65.713 6.263, 58 8.828 M 70.263 59.772 L 68.025 61.500 72.555 63.367 C 76.957 65.181, 77.142 65.181, 79.122 63.390 L 81.158 61.547 78.968 59.773 C 76.217 57.546, 73.146 57.545, 70.263 59.772 M 180.086 135.098 C 178.400 137.377, 178.090 138.490, 178.911 139.311 C 180.501 140.901, 185.319 135.994, 184.433 133.687 C 183.518 131.300, 182.696 131.567, 180.086 135.098 M 436.763 351.565 C 430.779 354.812, 429.165 363.666, 433.597 368.933 C 436.935 372.900, 455.971 387.658, 459.462 388.985 C 468.703 392.499, 479.287 384.671, 477.581 375.583 C 476.689 370.825, 474.104 367.933, 465.234 361.770 C 447.721 349.601, 443.302 348.017, 436.763 351.565" fill="none" stroke="#000" stroke-width="2px" fill-rule="evenodd"/>
</svg>
