<svg xmlns="http://www.w3.org/2000/svg" width="500" height="356" viewBox="0 0 500 356" version="1.1">
	<path d="M 454.500 1.463 C 450.650 2.168, 439.850 5.083, 430.500 7.941 C 411.738 13.675, 402.586 18.428, 383.750 32.222 C 374.809 38.770, 374 39.638, 374 42.681 C 374 44.507, 373.574 46, 373.053 46 C 372.532 46, 369.157 48.232, 365.553 50.960 C 358.825 56.052, 358.289 55.965, 359.984 50.055 C 360.774 47.300, 360.645 46.265, 359.329 44.811 C 358.428 43.815, 356.940 43, 356.023 43 C 353.493 43, 344.704 46.101, 342.950 47.612 C 342.098 48.346, 339.481 49.625, 337.134 50.453 C 334.788 51.281, 330.377 54.178, 327.332 56.892 C 315.554 67.389, 303.631 70.995, 279.148 71.463 C 195.686 73.058, 151.692 82.082, 67.087 114.956 C 56.960 118.891, 42.110 123.916, 34.087 126.123 C 26.064 128.330, 16.575 131.117, 13 132.318 C 6.634 134.455, 6.433 134.632, 3.250 140.905 C -1.178 149.632, -1.018 151.203, 4.701 155.138 C 12.098 160.227, 15.205 160.940, 25.500 159.906 C 38.553 158.595, 52.427 154.861, 79 145.508 C 135.980 125.452, 139.193 124.683, 229.577 109.491 C 264.185 103.674, 293.859 98.287, 295.519 97.520 C 297.180 96.753, 302.044 95.808, 306.330 95.419 C 313.415 94.777, 314.391 94.913, 317.107 96.921 C 319.945 99.019, 320.329 99.057, 324.797 97.684 C 340.468 92.868, 348.093 90.871, 349.663 91.174 C 351.435 91.515, 355.952 98.359, 355.984 100.750 C 355.993 101.438, 355.325 102, 354.500 102 C 353.675 102, 353 102.360, 353 102.801 C 353 103.241, 350.938 104.905, 348.417 106.498 C 341.795 110.684, 340 113.378, 340 119.130 C 340 123.885, 339.820 124.172, 331.750 132.246 C 322.672 141.328, 306.597 159.480, 273.961 197.500 C 239.717 237.393, 226.400 249.922, 185.500 280.724 C 159.311 300.448, 139.739 318.668, 130.644 331.793 C 127.776 335.930, 125.371 346.360, 126.369 350.332 C 127.393 354.416, 138.376 357.475, 143.043 354.977 C 144.332 354.287, 152.612 347.363, 161.443 339.590 C 179.872 323.369, 185.262 319.148, 200.500 309.003 C 231.134 288.608, 262.883 261.852, 284.162 238.500 C 295.552 226, 345.150 161.053, 348.975 153.629 C 353.502 144.844, 366.809 135.220, 377 133.361 C 378.925 133.010, 381.694 131.885, 383.154 130.861 C 384.614 129.838, 386.278 129, 386.852 129 C 387.426 129, 390.573 126.773, 393.844 124.050 C 399.614 119.249, 399.813 118.920, 400.490 113.088 C 401.284 106.249, 403.287 104.648, 407.554 107.443 C 409.773 108.897, 410.563 108.909, 415.755 107.561 C 424.973 105.168, 432.522 102.440, 448.399 95.764 C 463.063 89.599, 463.472 89.341, 474.399 79.402 C 496.716 59.101, 495.448 60.668, 497.979 50.247 C 500.082 41.584, 500.121 40.834, 498.590 38.497 C 496.720 35.643, 496.908 35.704, 493.732 36.912 C 492.413 37.413, 489.782 38.070, 487.885 38.372 C 485.988 38.673, 481.638 39.791, 478.218 40.855 C 474.798 41.919, 472 42.557, 472 42.273 C 472 41.988, 471.325 42.315, 470.500 43 C 469.675 43.685, 469 44.028, 469 43.764 C 469 43.499, 466.188 44.048, 462.750 44.984 L 456.500 46.686 455.591 52.326 C 454.989 56.059, 454.143 58.125, 453.091 58.435 C 432.101 64.616, 421.391 67.101, 419.858 66.143 C 418.601 65.359, 417.998 65.397, 417.603 66.286 C 417.307 66.954, 417.162 66.170, 417.282 64.544 C 417.463 62.096, 419.118 60.335, 426.918 54.294 C 432.097 50.282, 436.669 47, 437.077 47 C 437.485 47, 440.942 44.413, 444.759 41.250 C 448.577 38.088, 453.324 34.227, 455.309 32.672 C 463.901 25.939, 466.949 22.507, 467.447 19 C 467.720 17.075, 468.633 13.025, 469.474 10 C 471.002 4.505, 471.001 4.498, 468.446 2.250 C 465.570 -0.280, 464.381 -0.347, 454.500 1.463" fill="none" stroke="#000" stroke-width="2px" fill-rule="evenodd"/>
</svg>
