<svg xmlns="http://www.w3.org/2000/svg" width="478" height="500" viewBox="0 0 478 500" version="1.1">
	<path d="M 361.750 94.250 C 320.812 137.838, 260.897 201.625, 228.604 236 C 196.311 270.375, 169.577 298.399, 169.195 298.276 C 168.813 298.153, 166.600 297.372, 164.277 296.541 C 161.104 295.404, 159.365 295.286, 157.277 296.063 C 155.750 296.632, 147.731 303.840, 139.457 312.080 L 124.414 327.062 117.741 324.037 C 107.444 319.368, 94.452 315.976, 84.500 315.358 C 68.240 314.348, 53.877 319.089, 39.076 330.351 C 34.568 333.781, 30.639 336.009, 29.076 336.022 C 24.172 336.064, 18.035 339.671, 16.462 343.436 C 13.484 350.563, 15.022 358.113, 22.587 373.500 C 31.677 391.989, 46.836 411.002, 71.475 434.819 C 97.645 460.115, 123.185 477.639, 144 484.582 C 151.848 487.199, 162.024 487.112, 165.673 484.395 C 169.560 481.502, 171.871 477.224, 172.661 471.457 C 173.112 468.164, 174.430 465.144, 176.730 462.131 C 180.991 456.548, 184.050 450.470, 187.111 441.500 C 189.139 435.557, 189.495 432.613, 189.468 422 C 189.430 406.935, 187.178 397.712, 180.085 383.570 L 175.428 374.285 189.714 358.626 C 198.572 348.917, 204.042 342.119, 204.111 340.734 C 204.320 336.514, 203.790 333.495, 202.350 330.711 C 200.937 327.978, 201.027 327.797, 206.781 321.711 C 210.011 318.295, 236.239 290.075, 265.064 259 C 293.890 227.925, 342.006 176.175, 371.987 143.999 C 477.453 30.818, 466 43.609, 466 39.002 C 466 27.257, 453.184 15.036, 440.840 15.010 L 436.181 15 361.750 94.250" fill="none" stroke="#000" stroke-width="2px" fill-rule="evenodd"/>
</svg>
