<svg xmlns="http://www.w3.org/2000/svg" width="479" height="500" viewBox="0 0 479 500" version="1.1">
	<path d="M 287.802 18.700 C 270.656 41.753, 267.484 46.384, 257.677 62.683 C 238.279 94.921, 227.477 115.673, 213.003 148.500 C 196.856 185.124, 189.957 204.336, 182.487 233.481 C 180.559 241.002, 178.421 248.134, 177.735 249.328 C 177.049 250.523, 153.765 273.992, 125.994 301.483 C 8.809 417.481, 9.091 417.196, 7.370 421.701 C 6.177 424.825, 5.866 428.045, 6.207 433.733 C 6.735 442.542, 8.694 447.161, 17.647 460.708 C 32.895 483.782, 68.357 499.083, 85.762 490.099 C 90.166 487.826, 95.414 482.457, 100.034 475.500 C 101.860 472.750, 109.504 461.950, 117.021 451.500 C 124.539 441.050, 150.189 404.825, 174.021 371 C 197.854 337.175, 220.233 305.564, 223.754 300.754 L 230.154 292.008 259.827 277.024 C 301.533 255.963, 328.189 239.579, 363.531 213.279 C 397.762 187.806, 435.916 152.785, 464.813 120.312 L 472.099 112.125 466.800 108.726 C 463.885 106.856, 435.850 88.757, 404.500 68.504 C 324.166 16.608, 302.676 2.813, 301.406 2.325 C 300.796 2.092, 294.675 9.460, 287.802 18.700 M 52.023 438.634 C 47.701 442.271, 48.150 445.841, 53.244 448.330 C 58.293 450.797, 63.027 449.311, 66.133 444.285 L 68.350 440.698 65.619 438.349 C 61.788 435.054, 56.137 435.172, 52.023 438.634" fill="none" stroke="#000" stroke-width="2px" fill-rule="evenodd"/>
</svg>
