<svg xmlns="http://www.w3.org/2000/svg" width="463" height="500" viewBox="0 0 463 500" version="1.1">
	<path d="M 432.233 8.498 C 426.176 11.130, 413.410 26.431, 414.138 30.187 C 414.710 33.140, 412.581 36.081, 406.120 41.265 C 398.939 47.026, 399.198 46.946, 383.408 48.288 C 378.637 48.694, 369.646 54.337, 354.921 66.169 C 337.469 80.192, 327.922 90.527, 309.811 115 C 295.824 133.900, 289.842 143.287, 290.407 145.447 C 291.094 148.076, 280.350 168.709, 273.709 177.513 C 269.714 182.810, 266.169 185.991, 258.500 191.159 C 253 194.865, 247.262 199.278, 245.750 200.965 C 241.459 205.750, 242.136 211.166, 247.781 217.220 C 249.911 219.505, 250.066 220.037, 248.749 220.543 C 247.886 220.874, 245.812 220.437, 244.140 219.572 C 242.468 218.708, 240.895 218, 240.646 218 C 239.561 218, 160.378 303.812, 116.072 353.002 C 69.062 405.196, 13.327 468.904, 10.950 473.164 C 10.217 474.477, 11.718 476.688, 18.077 483.664 C 22.508 488.524, 26.679 492.627, 27.348 492.781 C 29.634 493.310, 106.670 414.424, 156.500 360.527 C 169.700 346.250, 192.200 321.943, 206.500 306.511 C 262.420 246.167, 265.498 242.736, 265.169 241.123 C 264.063 235.707, 263.887 233.005, 264.641 233.041 C 265.113 233.063, 267.058 234.413, 268.962 236.041 C 273.425 239.855, 276.605 239.787, 282.600 235.750 C 287.369 232.539, 289.685 229.074, 294.372 218.141 C 296.817 212.438, 307.300 201.417, 314.481 197 C 317.610 195.075, 323.170 191.597, 326.835 189.271 C 330.501 186.946, 334.314 185.033, 335.309 185.021 C 340.349 184.962, 386.560 145.358, 399.647 129.883 C 407.893 120.132, 415.363 109.197, 420.061 100 C 423.239 93.778, 423.390 92.974, 423.575 81.221 L 423.768 68.942 429.736 61.721 C 433.225 57.499, 437.599 53.462, 440.267 52 C 445.172 49.313, 452.681 41.498, 455.354 36.300 C 460.261 26.757, 454.626 14.344, 443 9.081 C 437.693 6.679, 436.561 6.617, 432.233 8.498 M 428.440 16.145 C 425.448 18.975, 423 21.629, 423 22.044 C 423 22.459, 424.913 23.785, 427.250 24.992 C 432.592 27.749, 435.082 30.026, 440.704 37.295 C 445.732 43.796, 445.950 43.781, 451.167 36.600 C 458.624 26.334, 450.064 11, 436.875 11 C 434.642 11, 432.497 12.308, 428.440 16.145" fill="none" stroke="#000" stroke-width="2px" fill-rule="evenodd"/>
</svg>
