<svg xmlns="http://www.w3.org/2000/svg" width="426" height="500" viewBox="0 0 426 500" version="1.1">
	<path d="M 234.937 4.650 C 229.142 9.187, 213.185 27.947, 206.144 38.500 C 198.760 49.567, 196.001 56.173, 197.649 58.838 C 198.635 60.434, 201.401 62.919, 225.612 83.964 C 231.601 89.169, 245.275 101.360, 256 111.057 C 300.145 150.967, 329.055 176.742, 338.927 184.993 C 342.542 188.014, 351.013 196.002, 357.751 202.743 C 364.488 209.484, 370.416 215, 370.924 215 C 372.556 215, 368.969 220.889, 366.189 222.774 C 361.206 226.153, 358.143 226.919, 319.270 234.508 C 216.330 254.605, 215.801 254.717, 209.254 257.730 C 207.285 258.636, 200.515 265.648, 192.041 275.557 C 184.359 284.541, 177.218 292.348, 176.173 292.908 C 174.633 293.732, 173.505 293.268, 170.227 290.462 C 168.002 288.558, 165.531 287, 164.735 287 C 163.925 287, 161.461 290.631, 159.135 295.250 C 152.690 308.054, 148.883 313.678, 141.926 320.670 C 136.711 325.911, 122.555 336, 120.416 336 C 119.325 336, 109.348 342.929, 106.500 345.666 C 104.850 347.251, 92.250 361.134, 78.500 376.517 C 64.750 391.900, 51.218 406.964, 48.429 409.993 C 41.627 417.378, 8.988 454.612, 6.620 457.687 C 3.406 461.861, 3.344 468.139, 6.455 474.497 C 13.265 488.416, 29.183 497.933, 39.942 494.519 C 40.992 494.185, 45.323 489.994, 49.566 485.206 C 53.808 480.418, 61.604 471.982, 66.890 466.460 C 72.175 460.938, 79.185 453.288, 82.467 449.460 C 85.749 445.632, 90.924 439.795, 93.967 436.488 C 97.010 433.181, 104.675 424.447, 111 417.078 C 117.325 409.708, 125.900 399.814, 130.056 395.090 C 140.335 383.404, 143.828 378.039, 147.079 368.944 C 151.444 356.731, 156.304 347.019, 161.447 340.232 C 166.473 333.600, 177.678 324.506, 186.314 320.052 C 189.651 318.331, 191.351 316.864, 191.081 315.939 C 190.850 315.147, 190.465 312.808, 190.225 310.739 C 189.938 308.272, 188.931 306.304, 187.298 305.019 L 184.807 303.060 198.827 286.780 C 206.538 277.826, 214.119 269.754, 215.673 268.842 C 220.754 265.861, 224.044 265.177, 337.500 243.530 C 366.400 238.016, 372.934 235.407, 380.900 226.205 C 383.617 223.067, 388.365 217.575, 391.451 214 C 394.537 210.425, 398.212 205.167, 399.616 202.316 C 401.021 199.465, 405.169 193.837, 408.835 189.810 C 417.858 179.897, 422.365 172.751, 421.461 169.788 C 420.268 165.877, 431.881 176.625, 311.528 68.039 C 302.713 60.085, 284.250 43.472, 270.500 31.120 C 256.750 18.768, 243.897 7.154, 241.937 5.311 L 238.374 1.959 234.937 4.650" fill="none" stroke="#000" stroke-width="2px" fill-rule="evenodd"/>
</svg>
