<svg xmlns="http://www.w3.org/2000/svg" width="414" height="500" viewBox="0 0 414 500" version="1.1">
	<path d="M 355 4.696 C 348.394 5.405, 330.862 9.154, 324.715 11.172 C 309.738 16.089, 297.780 24.002, 289.022 34.792 C 277.419 49.088, 272.812 61.415, 272.692 78.489 C 272.626 87.852, 275.328 105.973, 278.081 114.632 C 279.527 119.178, 279.594 129.806, 278.186 131.214 C 277.534 131.866, 277 133.210, 277 134.200 C 277 135.574, 277.790 136, 280.342 136 C 283.580 136, 283.739 136.193, 285.501 142.250 C 286.500 145.688, 289.786 155.003, 292.803 162.950 L 298.287 177.401 291.894 183.398 C 284.830 190.024, 264.756 209.265, 174.414 296 C 106.382 361.316, 66.141 399.551, 46 418.014 C 13.819 447.514, 8.760 452.680, 9.601 455.180 C 10.030 456.456, 10.408 457.951, 10.441 458.503 C 10.566 460.631, 45.009 496.113, 46.221 495.363 C 46.720 495.055, 44.512 492, 41.314 488.574 C 31.004 477.528, 27.998 474.042, 28.113 473.263 C 28.176 472.843, 37.613 463.500, 49.084 452.500 C 60.556 441.500, 102.468 400.540, 142.221 361.477 C 212.299 292.617, 258.792 247.213, 308.500 199.094 L 332.500 175.860 334.635 180.712 C 337.652 187.568, 339.260 188.708, 342.745 186.458 C 347.290 183.524, 396.845 129.250, 401.588 122.012 C 405.071 116.695, 408 104.711, 408 95.774 C 408 79.895, 399.456 49.804, 389.182 29.500 C 382.233 15.765, 374.187 7.018, 366.807 5.173 C 364.226 4.528, 361.301 4.072, 360.307 4.160 C 359.313 4.248, 356.925 4.489, 355 4.696" fill="none" stroke="#000" stroke-width="2px" fill-rule="evenodd"/>
</svg>
