<svg xmlns="http://www.w3.org/2000/svg" width="500" height="328" viewBox="0 0 500 328" version="1.1">
	<path d="M 393.500 1.143 C 378.921 2.998, 356.975 9.342, 338.500 17.042 C 334.100 18.876, 315.787 27.694, 297.805 36.637 C 265.368 52.769, 265.105 52.925, 264.453 56.398 C 263.847 59.629, 263.235 60.132, 256.502 62.935 C 240.971 69.400, 235.842 69.832, 225.329 65.555 C 220.183 63.461, 219.625 63.438, 204.271 64.676 C 190.358 65.798, 188.338 66.187, 187.128 67.974 C 185.150 70.894, 182 70.633, 182 67.549 C 182 65.562, 180.721 64.382, 175.250 61.323 C 171.537 59.246, 139.700 46.589, 104.500 33.196 C 69.300 19.802, 38.460 8.059, 35.966 7.100 C 30.653 5.057, 29 5.353, 29 8.347 C 29 10, 30.271 11.122, 34.250 12.980 C 37.138 14.328, 39.725 15.704, 40 16.038 C 40.474 16.613, 55.744 26.202, 75.500 38.330 C 92.090 48.515, 128.374 69.644, 141.229 76.606 C 153.721 83.371, 153.959 83.564, 153.979 86.946 C 153.992 89.038, 152.998 91.838, 151.452 94.070 L 148.904 97.747 134.702 98.264 L 120.500 98.781 118.344 96.243 L 116.189 93.704 69.344 94.444 C 24.449 95.153, 3.941 95.582, 1.250 95.867 C -0.403 96.043, -0.354 99.462, 1.321 100.852 C 2.048 101.455, 12.061 103.329, 23.571 105.015 C 61.215 110.532, 95.095 115.983, 118 120.207 C 136.947 123.702, 142.632 124.368, 154 124.422 C 161.425 124.457, 168.539 124.093, 169.809 123.611 C 171.728 122.884, 172.216 123.108, 172.695 124.942 C 173.057 126.324, 178.511 130.854, 187.301 137.074 C 199.227 145.512, 201.911 147, 205.198 147 C 213.273 147, 218.859 151.233, 229.579 165.475 C 235.263 173.028, 235.331 173.196, 234.080 176.655 C 232.833 180.103, 232.945 180.392, 240.142 192.334 C 261.957 228.530, 286.059 260.426, 305.502 278.830 C 322.814 295.217, 351.881 311.876, 378 320.381 C 402.991 328.518, 420.420 329.983, 430.821 324.822 L 435.500 322.500 435.483 317 C 435.448 306.040, 429.029 299.574, 413.663 295.019 C 377.608 284.330, 362.881 277.820, 345.873 265.050 C 326.890 250.796, 314.848 236.317, 271.607 175.750 C 252.524 149.021, 249.142 145.269, 247.720 149.250 C 247.475 149.938, 247.082 150.275, 246.847 150 C 246.612 149.725, 244.488 146.883, 242.128 143.684 C 237.742 137.742, 224.407 127.043, 211.891 119.427 C 207.723 116.891, 206.091 115.422, 207.198 115.206 C 208.131 115.023, 209.791 115.353, 210.887 115.939 C 212.238 116.662, 213.082 116.676, 213.511 115.982 C 213.859 115.419, 212.567 114.299, 210.640 113.494 C 208.713 112.689, 206.854 111.573, 206.509 111.015 C 205.716 109.731, 209.082 109.700, 212.399 110.962 C 213.993 111.568, 215.146 111.572, 215.516 110.974 C 215.839 110.452, 214.280 109.295, 212.051 108.404 C 206.607 106.225, 206.846 104.704, 212.500 105.552 C 217.503 106.303, 219.011 104.479, 214.250 103.436 C 209.753 102.450, 209 102.112, 209 101.078 C 209 100.479, 211.054 100.336, 214.250 100.712 C 219.066 101.278, 219.386 101.191, 218.128 99.664 C 217.350 98.722, 215.316 98, 213.437 98 C 211.611 98, 209.840 97.550, 209.500 97 C 208.784 95.841, 209.996 95.628, 215.395 95.960 C 218.572 96.156, 219.180 95.912, 218.691 94.637 C 217.964 92.742, 218.708 92.605, 240.710 90.583 C 250.664 89.668, 258.074 88.496, 259.910 87.546 C 263.615 85.631, 264 85.626, 264 87.500 C 264 91.339, 267.979 89.756, 327.764 62.132 C 377.131 39.323, 389.618 35.782, 420.542 35.827 C 436.106 35.850, 445.588 36.888, 463.615 40.543 C 477.664 43.392, 483.611 43.607, 488.768 41.452 C 495.098 38.808, 500 32.890, 500 27.895 C 500 22.292, 483.734 12.378, 466.500 7.476 C 444.359 1.179, 413.954 -1.458, 393.500 1.143 M 203.510 99.250 C 203.137 102.138, 201.996 106.150, 200.976 108.166 C 199.352 111.373, 199.310 111.905, 200.642 112.416 C 203.371 113.463, 204.962 113.066, 204.357 111.487 C 204.037 110.655, 204.341 109.294, 205.031 108.463 C 205.721 107.632, 206 106.666, 205.651 106.318 C 205.303 105.969, 205.421 105.193, 205.915 104.592 C 206.409 103.991, 207.131 101.362, 207.520 98.750 C 208.165 94.418, 208.049 94, 206.207 94 C 204.524 94, 204.075 94.873, 203.510 99.250" fill="none" stroke="#000" stroke-width="2px" fill-rule="evenodd"/>
</svg>
