<svg xmlns="http://www.w3.org/2000/svg" width="500" height="493" viewBox="0 0 500 493" version="1.1">
	<path d="M 440.699 7.426 C 434.761 9.023, 422.732 17.099, 421.163 20.542 C 420.523 21.946, 420 24.400, 420 25.995 C 420 28.788, 419.887 28.857, 416.982 27.844 C 410.661 25.640, 414.879 21.857, 326.257 109.200 C 291.103 143.846, 291.003 143.957, 287.075 152.459 C 282.124 163.175, 274.066 175.541, 266.413 184.163 C 263.161 187.828, 259.600 192.300, 258.500 194.101 C 255.594 198.858, 244.460 204.611, 236.509 205.462 C 230.857 206.067, 229.786 206.577, 225.135 210.876 C 222.311 213.485, 220 216.494, 220 217.561 C 220 221.121, 222.720 232.558, 224.288 235.590 C 225.140 237.237, 227.674 240.808, 229.920 243.526 L 234.004 248.468 221.752 260.803 C 205.622 277.044, 169.688 312.512, 138 343.471 C 123.975 357.173, 106.200 374.716, 98.500 382.457 C 81.314 399.734, 70.389 409.338, 53.500 422.018 C 41.923 430.709, 38.639 433.928, 23.500 451.421 C 14.150 462.224, 6.376 471.612, 6.225 472.282 C 6.073 472.952, 9.319 476.847, 13.438 480.938 C 20.354 487.808, 21.063 488.260, 22.713 486.852 C 61.297 453.921, 67.292 448.463, 72.553 441.472 C 82.093 428.797, 103.300 406.859, 156.102 355.045 C 183.821 327.845, 215.950 296.251, 227.500 284.835 L 248.500 264.080 256.500 269.649 C 273.080 281.191, 279.100 281.806, 287.696 272.835 C 290.299 270.119, 291.284 267.739, 293 260.019 C 294.159 254.805, 295.758 249.820, 296.554 248.941 C 297.349 248.062, 298 247.019, 298 246.624 C 298 246.228, 299.125 244.862, 300.500 243.588 C 301.875 242.313, 303 240.760, 303 240.135 C 303 239.511, 303.649 239, 304.442 239 C 305.235 239, 308.497 236.687, 311.692 233.861 C 319.566 226.893, 331.284 219.345, 344.500 212.729 L 355.500 207.222 413.250 149.140 L 471 91.058 471 85.912 C 471 81.104, 471.144 80.804, 473.199 81.342 C 478.097 82.623, 487.444 73.714, 490.997 64.381 C 495.841 51.655, 494.649 40.924, 487.103 29.313 C 479.232 17.204, 470.638 10.835, 458.128 7.841 C 449.276 5.723, 447.216 5.673, 440.699 7.426" fill="none" stroke="#000" stroke-width="2px" fill-rule="evenodd"/>
</svg>
