<svg xmlns="http://www.w3.org/2000/svg" width="500" height="335" viewBox="0 0 500 335" version="1.1">
	<path d="M 483 10.940 C 481.625 11.363, 476.900 13.524, 472.500 15.744 C 457.351 23.385, 435.835 39.867, 362.635 99.904 C 343.460 115.632, 320.060 134.716, 310.635 142.314 C 301.211 149.912, 285.505 163.083, 275.733 171.583 C 259.082 186.066, 257.911 186.896, 257.111 184.769 C 256.641 183.521, 255.121 179.350, 253.733 175.500 C 250.279 165.916, 246.459 157.453, 244.079 154.112 C 242.986 152.576, 241.114 148.660, 239.918 145.410 C 235.499 133.391, 223.203 125.080, 211.613 126.277 C 203.581 127.106, 188.104 133.692, 184.236 137.927 C 182.441 139.892, 180.641 141.835, 180.236 142.244 C 176.944 145.572, 156.206 159.860, 149.213 163.618 C 130.972 173.421, 113.292 184.787, 99.218 195.760 C 87.012 205.275, 69.213 221.901, 63.500 229.123 C 54.663 240.295, 40.299 253.730, 18 271.683 C 6.849 280.660, 3.570 286.464, 4.383 295.785 C 5.133 304.382, 9.679 313.666, 15.768 319.034 C 22.719 325.161, 27.436 327.247, 35.544 327.776 C 41.978 328.197, 43.145 327.956, 49.008 324.996 C 52.539 323.213, 58.144 319.187, 61.464 316.049 C 70.309 307.688, 90.523 292.693, 97.935 288.995 C 113.901 281.029, 133.685 267.176, 152.500 250.786 C 166.216 238.838, 174.354 230.504, 185.797 216.689 C 191.630 209.647, 198.846 202.502, 206.502 196.189 C 212.966 190.860, 218.760 186.206, 219.377 185.847 C 223.020 183.728, 234.211 178.878, 234.588 179.255 C 234.835 179.502, 236.821 185.015, 239.003 191.508 L 242.968 203.312 239.047 211.146 C 233.955 221.320, 233.177 226.351, 235.785 232.246 C 241.051 244.152, 258.727 248.288, 279.500 242.474 C 284.450 241.089, 292.100 239.248, 296.500 238.383 C 310.065 235.715, 322.715 230.945, 342.520 221.026 C 376.911 203.802, 395.424 191.305, 415.871 171.509 C 434.560 153.416, 447.367 134.914, 461.562 105.500 C 477.666 72.131, 488.201 46.919, 492.921 30.456 C 497.646 13.973, 497.011 9.937, 489.715 10.086 C 487.397 10.133, 484.375 10.518, 483 10.940" fill="none" stroke="#000" stroke-width="2px" fill-rule="evenodd"/>
</svg>
