<svg xmlns="http://www.w3.org/2000/svg" width="500" height="498" viewBox="0 0 500 498" version="1.1">
	<path d="M 434.108 4.082 C 427.952 5.291, 418.118 10.080, 413.532 14.103 C 407.530 19.368, 403.341 26.843, 398.897 40.220 C 394.271 54.142, 389.022 64.807, 382.580 73.371 C 375.865 82.298, 362.724 96.319, 314.511 146 C 290.225 171.025, 239.884 223.225, 202.641 262 C 165.399 300.775, 131.988 334.975, 128.395 338 C 113.119 350.862, 95.652 359.377, 73.273 364.873 C 52.525 369.968, 47.239 372.712, 35.500 384.479 C 21.595 398.417, 10.771 419.010, 10.590 431.872 C 10.490 438.958, 11.790 440.771, 16.181 439.670 C 17.550 439.326, 26.594 433.858, 36.277 427.520 C 45.961 421.181, 55.064 415.546, 56.507 414.997 C 60.430 413.506, 63.214 413.767, 69.655 416.232 C 82.745 421.241, 89.473 432.625, 87.210 445.933 C 86.609 449.472, 85.269 453.522, 84.233 454.933 C 83.197 456.345, 73.488 463.350, 62.658 470.500 C 48.375 479.929, 42.793 484.161, 42.336 485.906 C 41.042 490.841, 47.439 492.940, 66 493.672 C 77.187 494.112, 81.190 493.853, 89.365 492.158 C 113.037 487.250, 130.806 473.520, 135.993 456.129 C 137.080 452.483, 139.083 442.975, 140.444 435 C 143.428 417.511, 145.620 410.567, 152.232 397.665 C 162.281 378.058, 163.669 376.417, 247.511 285 C 345.387 178.282, 411.355 107.685, 418.554 101.957 C 427.247 95.040, 440.958 88.005, 445.791 87.983 C 452.084 87.953, 463.200 85.160, 469.672 81.982 C 484.094 74.901, 493.049 57.910, 491.772 40.054 C 491.148 31.330, 488.278 25.191, 481.504 18.089 C 470.298 6.341, 451.257 0.714, 434.108 4.082 M 437 29.857 C 436.175 30.358, 433.166 31.259, 430.313 31.860 C 426.345 32.695, 424.111 33.956, 420.804 37.226 L 416.482 41.500 418.096 46.338 C 419.416 50.295, 420.510 51.628, 424.105 53.662 C 426.522 55.030, 429.443 57.029, 430.596 58.104 C 432.109 59.515, 435.208 60.357, 441.736 61.129 C 449.824 62.085, 451.661 61.975, 459.110 60.092 C 466.144 58.313, 468.097 57.340, 471.667 53.836 C 475.583 49.992, 475.788 49.535, 474.447 47.621 C 473.651 46.485, 473 44.636, 473 43.512 C 473 40.143, 458.852 31.414, 452 30.556 C 439.997 29.052, 438.446 28.979, 437 29.857" fill="none" stroke="#000" stroke-width="2px" fill-rule="evenodd"/>
</svg>
