<?xml version="1.0" encoding="utf-8"?>
<!-- Generator: Adobe Illustrator 17.0.0, SVG Export Plug-In . SVG Version: 6.00 Build 0)  -->
<!DOCTYPE svg PUBLIC "-//W3C//DTD SVG 1.1//EN" "http://www.w3.org/Graphics/SVG/1.1/DTD/svg11.dtd">
<svg version="1.1" id="Слой_1" xmlns="http://www.w3.org/2000/svg" xmlns:xlink="http://www.w3.org/1999/xlink" x="0px" y="0px"
	 width="150px" height="150px" viewBox="0 0 150 150" enable-background="new 0 0 150 150" xml:space="preserve">
<g>
	
		<radialGradient id="SVGID_1_" cx="94.265" cy="96.2232" r="62.8923" gradientTransform="matrix(-0.9121 -0.41 -0.41 0.9121 189.4575 39.8498)" gradientUnits="userSpaceOnUse">
		<stop  offset="0.118" style="stop-color:#DE3514"/>
		<stop  offset="0.394" style="stop-color:#DB3414"/>
		<stop  offset="0.6136" style="stop-color:#D03016"/>
		<stop  offset="0.8132" style="stop-color:#BE2917"/>
		<stop  offset="0.9326" style="stop-color:#AF2418"/>
	</radialGradient>
	<path fill="url(#SVGID_1_)" d="M61.472,89.405c-5.156,19.613,5.967,39.545,24.839,44.498c18.879,4.953,38.349-6.929,43.499-26.555
		c5.154-19.611-6.369-34.446-25.242-39.413C85.698,62.99,66.622,69.782,61.472,89.405z"/>
	
		<radialGradient id="SVGID_2_" cx="79.6287" cy="58.2632" r="57.8636" fx="133.6582" fy="78.9759" gradientTransform="matrix(-0.8138 -0.3813 -0.3893 0.9007 202.1599 47.0749)" gradientUnits="userSpaceOnUse">
		<stop  offset="0.118" style="stop-color:#DE3514"/>
		<stop  offset="0.197" style="stop-color:#DF3A18"/>
		<stop  offset="0.2981" style="stop-color:#E14923"/>
		<stop  offset="0.4112" style="stop-color:#E56136"/>
		<stop  offset="0.5331" style="stop-color:#EB8056"/>
		<stop  offset="0.6621" style="stop-color:#F1A683"/>
		<stop  offset="0.797" style="stop-color:#F9D2BD"/>
		<stop  offset="0.9326" style="stop-color:#FFFFFF"/>
	</radialGradient>
	<path opacity="0.32" fill="url(#SVGID_2_)" d="M109.285,100.939c-4.899,18.649-35.728,27.589-19.382,31.88
		c16.34,4.298,33.562-7.345,38.462-25.987c4.899-18.662-4.84-32.435-21.182-36.727C90.835,65.804,114.184,82.288,109.285,100.939z"
		/>
	<path opacity="0.59" fill="#823713" d="M86.428,73.288c-0.063,1.974,2.695,3.675,6.164,3.783c3.473,0.108,6.341-1.41,6.406-3.391
		c0.063-1.984-2.698-3.67-6.17-3.778C89.355,69.791,86.491,71.299,86.428,73.288z"/>
	<path opacity="0.35" fill="#FFFFFF" d="M85.921,73.238c-0.082,2.188,2.916,4.027,6.694,4.121c3.768,0.111,6.896-1.595,6.978-3.77
		c0.028-0.825-0.368-1.59-1.081-2.242c1.582,0.88,2.554,2.121,2.502,3.471c-0.099,2.498-3.64,4.435-7.914,4.337
		c-4.273-0.108-7.669-2.229-7.572-4.729c0.024-0.488,0.167-0.947,0.418-1.356C85.934,73.117,85.919,73.179,85.921,73.238z"/>
	<path opacity="0.54" fill="#FFFFFF" d="M79.457,92.732c0.392,4.366,3.625,4.64,7.904,4.259c4.285-0.383,8.012-1.265,7.633-5.633
		c-0.399-4.368-4.19-7.609-8.482-7.225C82.228,84.506,79.069,88.364,79.457,92.732z"/>
	<path opacity="0.34" fill="#823713" d="M92.233,75.614c0,0-8.339-6.617-12.388-6.918c0,0,2.389-1.155,4.272-1.38
		c0,0,8.116,6.328,9.119,7.659C94.232,76.323,92.233,75.614,92.233,75.614z"/>
	
		<linearGradient id="SVGID_3_" gradientUnits="userSpaceOnUse" x1="94.5047" y1="72.5286" x2="94.0254" y2="35.6647" gradientTransform="matrix(-0.9348 -0.4192 -0.4144 0.9199 187.9319 38.4688)">
		<stop  offset="0" style="stop-color:#94BE20"/>
		<stop  offset="1" style="stop-color:#AFC80E"/>
	</linearGradient>
	<path fill="url(#SVGID_3_)" d="M64.07,16.988c1.935-0.846,4.285-0.176,4.721,0.812c0.019,0.022,0.013,0.054,0.03,0.078
		c24.95,17.859,25.816,57.454,25.816,57.454c-0.414,2.251-2.403,0.282-2.403,0.282c-3.702-37.418-21.29-49.7-27.623-53.409
		c-1.506,0.366-2.897-1.139-3.249-1.933C60.92,19.274,62.127,17.805,64.07,16.988z"/>
	<path opacity="0.54" fill="#007F36" d="M93.617,76.143c0,0-1.302-40.479-27.545-58.983c-0.013-0.018-0.006-0.061-0.022-0.091
		c-0.084-0.18-0.254-0.348-0.457-0.506c1.452-0.06,2.775,0.46,3.096,1.193c0.011,0.019,0.009,0.048,0.017,0.072
		c24.952,17.861,25.827,57.46,25.827,57.46c-0.158,0.854-0.552,1.096-0.975,1.077C93.58,76.289,93.604,76.228,93.617,76.143z"/>
	<path fill="#95B522" d="M60.125,21.723c0.672,1.168,4.08,0.433,5.897-0.615c1.822-1.07,2.736-2.862,2.06-4.039
		c-0.672-1.151-2.697-1.252-4.511-0.186C61.75,17.925,59.445,20.559,60.125,21.723z"/>
	
		<radialGradient id="SVGID_4_" cx="121.6596" cy="296.9784" r="57.6015" gradientTransform="matrix(-0.9305 -0.103 0.1067 -0.9772 94.4298 385.9308)" gradientUnits="userSpaceOnUse">
		<stop  offset="0.118" style="stop-color:#DE3514"/>
		<stop  offset="0.3882" style="stop-color:#D23115"/>
		<stop  offset="0.8543" style="stop-color:#B52618"/>
		<stop  offset="0.9326" style="stop-color:#AF2418"/>
	</radialGradient>
	<path fill="url(#SVGID_4_)" d="M2.732,84.705c1.924-17.586,15.627-27.552,32.275-25.71c16.643,1.844,29.948,14.798,28.03,32.381
		c-1.931,17.583-16.47,28.928-33.124,27.09C13.263,116.622,0.818,102.289,2.732,84.705z"/>
	
		<radialGradient id="SVGID_5_" cx="157.2275" cy="250.0396" r="58.791" gradientTransform="matrix(-0.7785 -0.5579 0.5542 -0.8465 42.9064 380.5185)" gradientUnits="userSpaceOnUse">
		<stop  offset="0.118" style="stop-color:#DE3514"/>
		<stop  offset="0.197" style="stop-color:#DF3A18"/>
		<stop  offset="0.2981" style="stop-color:#E14923"/>
		<stop  offset="0.4112" style="stop-color:#E56136"/>
		<stop  offset="0.5331" style="stop-color:#EB8056"/>
		<stop  offset="0.6621" style="stop-color:#F1A683"/>
		<stop  offset="0.797" style="stop-color:#F9D2BD"/>
		<stop  offset="0.9326" style="stop-color:#FFFFFF"/>
	</radialGradient>
	<path opacity="0.32" fill="url(#SVGID_5_)" d="M40.494,94.907c9.366-14.31-6.983-41.329,6.097-31.948
		c13.077,9.377,18.457,26.791,9.101,41.088c-9.361,14.312-26.514,17.324-39.598,7.947C3.011,102.62,31.132,109.211,40.494,94.907z"
		/>
	<path opacity="0.34" fill="#823713" d="M38.371,66.324c-0.643,1.668,1.259,4.01,4.251,5.241c2.988,1.241,5.923,0.891,6.564-0.773
		c0.633-1.662-1.267-4.017-4.249-5.254C41.947,64.308,39.014,64.659,38.371,66.324z"/>
	<path opacity="0.35" fill="#FFFFFF" d="M36.126,66.021c0.501-1.512,2.132-2.258,4.16-2.14c-0.793,0.307-1.38,0.862-1.634,1.627
		c-0.689,2.065,1.22,4.911,4.261,6.376c2.076,0.994,4.129,1.079,5.447,0.403c-0.966,2.024-4.195,2.459-7.448,0.892
		C37.498,71.541,35.357,68.335,36.126,66.021z"/>
	
		<linearGradient id="SVGID_6_" gradientUnits="userSpaceOnUse" x1="120.5854" y1="86.0024" x2="119.995" y2="40.584" gradientTransform="matrix(-0.9121 -0.41 -0.41 0.9121 189.4575 39.8498)">
		<stop  offset="0" style="stop-color:#94BE20"/>
		<stop  offset="1" style="stop-color:#AFC80E"/>
	</linearGradient>
	<path fill="url(#SVGID_6_)" d="M45.152,68.643c0,0-1.776-0.007-2.559-1.345c0,0,18.208-23.658,19.65-42.154
		c0.102-1.308-1.488-2.519-1.567-3.772l7.416,0.18C68.091,21.553,65.056,47.608,45.152,68.643z"/>
	<path opacity="0.54" fill="#007F36" d="M44.495,68.346c0,0,23.619-30.609,20.833-45.475L67.382,24c0,0-2.726,23.632-22.229,44.643
		L44.495,68.346z"/>
	<path opacity="0.27" fill="#823713" d="M66.99,95.328c0,0,0.123,4.864-4.821,13.196c0,0,1.584,5.334,4.548,10.267
		C66.717,118.791,73.507,101.409,66.99,95.328z"/>
	<path opacity="0.47" fill="#FFFFFF" d="M33.006,77.252c0,0-5.713,1.723-9.058,6.809c0,0-5.733-6.864-6.259-10.401
		c0,0,6.697-3.915,10.711-3.434L33.006,77.252z"/>
	<path fill="#EE765E" d="M10.964,66.912c-2.626,3.869-4.387,8.521-4.979,13.894c-1.993,18.173,11.897,33.094,30.361,35.119
		c3.139,0.336,6.205,0.282,9.149-0.134c-4.47,1.789-9.465,2.502-14.665,1.926C14.181,115.875,1.733,101.541,3.648,83.96
		C4.41,76.986,7.049,71.232,10.964,66.912z"/>
	
		<radialGradient id="SVGID_7_" cx="327.6092" cy="39.7483" r="44.1826" gradientTransform="matrix(-0.7757 0.6097 0.5832 0.742 315.797 -102.0486)" gradientUnits="userSpaceOnUse">
		<stop  offset="0" style="stop-color:#C52018"/>
		<stop  offset="0.5673" style="stop-color:#B92218"/>
		<stop  offset="0.9326" style="stop-color:#AF2418"/>
	</radialGradient>
	<path fill="url(#SVGID_7_)" d="M63.847,113.707c2.323,4.422,5.86,8.38,10.703,11.543c16.405,10.715,38.09,4.398,49.808-12.581
		c1.991-2.881,3.562-5.893,4.723-8.954c-0.65,5.206-2.611,10.414-5.919,15.192c-10.585,15.296-30.94,20.478-46.818,10.139
		C70.045,124.942,65.914,119.599,63.847,113.707z"/>
	
		<radialGradient id="SVGID_8_" cx="226.1906" cy="56.5129" r="46.2935" gradientTransform="matrix(-0.9577 0.2877 0.2877 0.9577 300.5222 -61.1205)" gradientUnits="userSpaceOnUse">
		<stop  offset="0.118" style="stop-color:#DE3514"/>
		<stop  offset="0.394" style="stop-color:#DB3414"/>
		<stop  offset="0.6136" style="stop-color:#D03016"/>
		<stop  offset="0.8132" style="stop-color:#BE2917"/>
		<stop  offset="0.9326" style="stop-color:#AF2418"/>
	</radialGradient>
	<path fill="url(#SVGID_8_)" d="M98.947,59.55c6.59,13.4,22.384,19.118,35.275,12.772c12.888-6.343,17.984-22.343,11.387-35.743
		c-6.591-13.387-20.153-16.086-33.04-9.747C99.69,33.181,92.352,46.156,98.947,59.55z"/>
	
		<radialGradient id="SVGID_9_" cx="236.2294" cy="31.8505" r="42.596" fx="276.0029" fy="47.0981" gradientTransform="matrix(-0.8647 0.2449 0.2958 0.9355 313.6416 -64.9925)" gradientUnits="userSpaceOnUse">
		<stop  offset="0.118" style="stop-color:#DE3514"/>
		<stop  offset="0.197" style="stop-color:#DF3A18"/>
		<stop  offset="0.2981" style="stop-color:#E14923"/>
		<stop  offset="0.4112" style="stop-color:#E56136"/>
		<stop  offset="0.5331" style="stop-color:#EB8056"/>
		<stop  offset="0.6621" style="stop-color:#F1A683"/>
		<stop  offset="0.797" style="stop-color:#F9D2BD"/>
		<stop  offset="0.9326" style="stop-color:#FFFFFF"/>
	</radialGradient>
	<path opacity="0.32" fill="url(#SVGID_9_)" d="M131.104,42.915c6.268,12.73-6.571,32.571,4.589,27.077
		c11.16-5.49,15.129-20.27,8.865-33c-6.272-12.739-18.329-15.703-29.491-10.215C103.902,32.265,124.837,30.176,131.104,42.915z"/>
	<path opacity="0.59" fill="#823713" d="M105.056,38.558c0.921,1.125,3.271,0.741,5.258-0.869c1.982-1.62,2.842-3.843,1.926-4.976
		c-0.921-1.135-3.271-0.736-5.254,0.873C105,35.196,104.138,37.417,105.056,38.558z"/>
	<path opacity="0.35" fill="#FFFFFF" d="M104.755,38.773c1.005,1.254,3.557,0.832,5.711-0.938c2.145-1.762,3.061-4.207,2.058-5.458
		c-0.379-0.472-0.97-0.708-1.679-0.726c1.302-0.275,2.44-0.052,3.066,0.726c1.146,1.432,0.111,4.216-2.309,6.227
		c-2.435,2.002-5.345,2.459-6.497,1.014c-0.223-0.279-0.364-0.602-0.423-0.953C104.703,38.703,104.727,38.738,104.755,38.773z"/>
	<path opacity="0.54" fill="#FFFFFF" d="M110.557,52.73c2.322,2.24,4.253,0.838,6.454-1.441c2.191-2.284,3.841-4.567,1.529-6.814
		c-2.331-2.236-6.003-2.218-8.204,0.072C108.133,46.817,108.232,50.487,110.557,52.73z"/>
	<path opacity="0.34" fill="#823713" d="M109.406,37.051c0,0-7.825,0.336-10.219,2.119c0,0,0.769-1.796,1.705-2.819
		c0,0,7.568-0.397,8.77-0.137C110.865,36.485,109.406,37.051,109.406,37.051z"/>
	
		<linearGradient id="SVGID_10_" gradientUnits="userSpaceOnUse" x1="221.3025" y1="39.4232" x2="220.9497" y2="12.2834" gradientTransform="matrix(-0.9809 0.2956 0.2894 0.9665 297.6073 -61.1096)">
		<stop  offset="0" style="stop-color:#94BE20"/>
		<stop  offset="1" style="stop-color:#AFC80E"/>
	</linearGradient>
	<path fill="url(#SVGID_10_)" d="M65.478,18.014c0.67-1.397,2.297-2.162,3.018-1.823c0.022,0.01,0.035,0.03,0.054,0.035
		c22.486-2.097,42.058,19.509,42.058,19.509c0.86,1.445-1.202,1.315-1.202,1.315c-20.097-19.029-35.8-17.378-41.11-16.39
		c-0.663,0.929-2.164,0.765-2.74,0.494C64.828,20.812,64.793,19.408,65.478,18.014z"/>
	<path opacity="0.54" fill="#007F36" d="M110.431,36.678c0,0-20.237-21.891-43.757-19.523c-0.017-0.013-0.03-0.037-0.052-0.043
		c-0.141-0.065-0.314-0.072-0.5-0.059c0.774-0.735,1.766-1.084,2.294-0.831c0.017,0.006,0.032,0.023,0.046,0.031
		c22.491-2.097,42.065,19.509,42.065,19.509c0.329,0.548,0.228,0.875-0.019,1.073C110.485,36.773,110.466,36.726,110.431,36.678z"/>
	
		<radialGradient id="SVGID_11_" cx="351.4424" cy="-114.4425" r="32.522" gradientTransform="matrix(-0.1868 0.9688 0.9267 0.1787 301.8736 -250.733)" gradientUnits="userSpaceOnUse">
		<stop  offset="0" style="stop-color:#C52018"/>
		<stop  offset="0.5673" style="stop-color:#B92218"/>
		<stop  offset="0.9326" style="stop-color:#AF2418"/>
	</radialGradient>
	<path fill="url(#SVGID_11_)" d="M111.987,71.927c3.428,1.337,7.301,1.831,11.52,1.259c14.288-1.959,23.307-15.926,21.639-31.014
		c-0.284-2.567-0.865-5-1.694-7.26c2.152,3.211,3.566,7.048,4.034,11.303c1.49,13.61-7.336,26.313-21.148,28.217
		C120.852,75.181,115.982,74.204,111.987,71.927z"/>
</g>
<g>
</g>
<g>
</g>
<g>
</g>
<g>
</g>
<g>
</g>
<g>
</g>
</svg>
