<svg xmlns="http://www.w3.org/2000/svg" width="356" height="500" viewBox="0 0 356 500" version="1.1">
	<path d="M 226.500 15.567 C 224.850 16.422, 222.039 18.531, 220.254 20.253 C 216.823 23.563, 208.976 34.765, 206.907 39.305 C 205.821 41.688, 205.122 42, 200.864 42 L 196.050 42 197.083 39.282 C 198.570 35.371, 204.489 28.450, 210.226 23.916 C 216.696 18.802, 213.928 18.865, 206.227 24.007 C 199.839 28.273, 195.800 32.842, 193.455 38.454 C 192.271 41.287, 191.338 42.020, 188.256 42.535 C 160.334 47.205, 136.499 68.686, 121.903 102.334 C 115.005 118.237, 113.664 125.270, 114.341 142 C 114.997 158.227, 116.975 166.002, 124.019 180.038 C 126.759 185.497, 129 190.371, 129 190.870 C 129 191.368, 126.062 191.792, 122.470 191.813 C 113.999 191.862, 110.288 193.949, 107.036 200.491 C 104.981 204.626, 104.579 206.865, 104.616 213.974 C 104.679 226.218, 108.215 233.432, 115.718 236.629 C 119.540 238.257, 125.799 238.407, 129.602 236.961 C 133.053 235.649, 133.596 236.465, 133.876 243.393 L 134.091 248.717 125.296 249.230 C 94.467 251.026, 64.686 280.813, 59.616 314.923 C 58.039 325.532, 58.888 333.073, 62.499 340.533 C 64.835 345.359, 64.874 345.768, 63.456 350.479 C 62.643 353.182, 61.693 358.449, 61.346 362.185 L 60.715 368.978 57.008 368.385 C 52.449 367.656, 48.494 369.534, 44.137 374.497 C 40.056 379.145, 34.388 390.430, 32.459 397.751 C 30.314 405.887, 31.252 409.952, 36.664 415.971 L 41.156 420.967 39.078 426.521 C 36.255 434.066, 36.273 443.867, 39.121 449.750 C 42.354 456.428, 46.543 458.597, 62.571 461.894 C 70.232 463.469, 79.853 465.784, 83.950 467.037 C 90.811 469.136, 92.166 470.041, 101.064 478.463 C 111.998 488.813, 122.285 494.744, 135 498.028 C 153.184 502.726, 180.187 499.167, 220.500 486.761 C 230.010 483.835, 231.382 483.679, 248.500 483.581 C 268.522 483.467, 273.026 482.422, 280.675 476.116 C 282.831 474.339, 285.610 473, 287.142 473 C 291.394 473, 305.608 467.144, 312.323 462.626 C 327.088 452.692, 328.686 440.997, 316.926 428.924 C 307.767 419.521, 295.373 416.300, 280 419.326 C 275.875 420.138, 272.456 420.734, 272.402 420.651 C 272.348 420.568, 272.647 414.425, 273.067 407 C 274.235 386.361, 275.852 375.749, 280.079 361 C 286.124 339.903, 288.807 328.851, 290.985 316.086 C 293.419 301.821, 293.517 295.104, 291.395 287.960 C 289.702 282.257, 284.773 274.234, 282.405 273.325 C 279.676 272.278, 281.058 271.272, 286.036 270.682 C 303.644 268.597, 319.799 245.616, 317.561 225.837 C 317.195 222.602, 316.244 218.109, 315.448 215.852 C 314.652 213.595, 314 211.638, 314 211.502 C 314 211.367, 315.887 210.954, 318.193 210.585 C 324.270 209.613, 331.697 205.222, 334.275 201.077 C 337.650 195.651, 337.360 185.301, 333.619 177.654 C 329.944 170.142, 327.580 168.645, 320.226 169.177 L 314.466 169.594 314.483 148.047 C 314.496 131.001, 314.124 124.755, 312.699 118.147 C 308.800 100.069, 300.542 84.574, 288.260 72.292 C 273.563 57.596, 257.336 47.601, 242.863 44.333 L 235.841 42.747 239.591 38.906 C 244.819 33.553, 249.201 31.669, 255.107 32.236 C 261.152 32.817, 260.562 31.357, 254.377 30.429 C 247.850 29.450, 242.958 31.272, 236.664 37.024 L 231.220 42 221.110 42 C 213.683 42, 211.003 41.668, 211.010 40.750 C 211.059 34.474, 224.451 17.966, 231.500 15.492 C 235.341 14.144, 235.381 14.086, 232.500 14.050 C 230.850 14.029, 228.150 14.712, 226.500 15.567 M 138.989 379.915 C 138.983 382.437, 138.741 386.075, 138.450 388 C 137.950 391.322, 138.141 391.602, 142.211 393.500 C 145.526 395.046, 147.015 396.578, 148.769 400.250 C 151.363 405.680, 152.296 405.902, 163.526 403.772 L 170 402.544 170 391.666 C 170 381.243, 169.895 380.705, 167.490 378.814 C 166.110 377.728, 165.199 376.487, 165.466 376.055 C 165.733 375.623, 159.887 375.283, 152.476 375.300 L 139 375.331 138.989 379.915 M 227 378.485 C 223.779 379.577, 223.452 380.063, 222.893 384.586 C 222.304 389.351, 222.789 406.122, 223.538 406.871 C 223.742 407.075, 226.395 406.931, 229.434 406.551 C 234.853 405.874, 234.981 405.783, 236.036 401.868 C 236.627 399.672, 237.387 397.154, 237.725 396.273 C 238.169 395.117, 237.945 394.877, 236.920 395.410 C 236.139 395.816, 236.342 395.463, 237.371 394.625 C 238.838 393.431, 239.099 392.343, 238.582 389.583 C 238.219 387.648, 237.286 385.428, 236.508 384.651 C 235.731 383.874, 235.333 383.001, 235.623 382.710 C 235.913 382.420, 235.188 381.877, 234.011 381.503 C 232.834 381.130, 231.562 380.031, 231.185 379.061 C 230.583 377.511, 230.076 377.441, 227 378.485 M 237.079 391.583 C 237.127 392.748, 237.364 392.985, 237.683 392.188 C 237.972 391.466, 237.936 390.603, 237.604 390.271 C 237.272 389.939, 237.036 390.529, 237.079 391.583" fill="none" stroke="#000" stroke-width="2px" fill-rule="evenodd"/>
</svg>
