<svg xmlns="http://www.w3.org/2000/svg" width="257" height="500" viewBox="0 0 257 500" version="1.1">
	<path d="M 116.333 1.524 C 103.240 5.052, 91.104 11.984, 82.834 20.656 C 76.679 27.111, 69.179 38.913, 66.010 47.131 C 64.218 51.778, 62.400 59.294, 61.516 65.716 C 59.371 81.289, 57.980 88.861, 56.275 94.247 C 53.578 102.764, 56.294 111.032, 62.910 114.454 C 67.721 116.941, 69.755 129.161, 66.140 133.860 C 64.551 135.926, 64.068 136.060, 62.262 134.932 C 60.063 133.558, 60.287 131, 62.607 131 C 64.385 131, 64.396 129.574, 62.629 128.107 C 60.246 126.130, 56.600 130.013, 56.600 134.528 C 56.600 137.780, 57.277 138.927, 61.397 142.657 C 66.499 147.276, 69.109 147.904, 74.868 145.896 C 77.381 145.020, 78.498 145.096, 80.282 146.265 C 84.282 148.886, 88.210 149.193, 92.132 147.190 C 95.676 145.381, 95.854 145.382, 99.454 147.229 C 102.698 148.893, 102.984 149.326, 101.822 150.811 C 101.095 151.740, 100.050 152.825, 99.500 153.223 C 97.990 154.314, 87.857 152.936, 84.898 151.237 C 82.704 149.978, 81.212 149.927, 75.398 150.915 C 71.604 151.559, 66.112 153.279, 63.192 154.736 C 57.526 157.564, 45.236 167.041, 33 178.016 C 28.875 181.716, 22.350 187.320, 18.500 190.470 C 0.087 205.536, -2.274 209.390, 1.727 217.849 C 4.006 222.668, 17.945 237.138, 25.500 242.526 C 38.681 251.927, 62.367 262.933, 75.158 265.600 C 81.644 266.953, 82.390 266.921, 86.447 265.126 C 88.836 264.069, 92.234 262.888, 93.998 262.501 C 97.118 261.815, 97.042 261.958, 91.174 267.826 C 80.571 278.429, 75.608 292.041, 75.796 310 C 75.929 322.760, 78.616 332.633, 86.135 348 C 91.415 358.789, 93.193 361.404, 99.126 367.107 C 105.968 373.684, 107.712 377.406, 104.526 378.628 C 101.647 379.733, 98.001 389.283, 96.922 398.546 C 96.348 403.471, 95.455 408.882, 94.939 410.571 C 94.423 412.260, 94 415.119, 94 416.923 C 94 420.956, 98.578 434.807, 103.404 445.375 C 105.382 449.706, 107 453.799, 107 454.470 C 107 455.141, 106.034 456.547, 104.854 457.595 C 100.627 461.349, 82.759 482.585, 80.276 486.807 C 78.182 490.367, 77.901 491.665, 78.655 494.294 C 79.915 498.688, 83.219 500.188, 90.519 499.684 C 98.972 499.099, 105.379 495.568, 112.307 487.677 C 115.438 484.111, 118 480.954, 118 480.663 C 118 479.862, 124.377 469.586, 125.290 468.914 C 126.032 468.369, 127.110 462.332, 128.557 450.629 C 129.218 445.283, 129.738 445.431, 132.463 451.739 L 134.294 455.979 131.769 458.504 C 125.734 464.539, 127.034 481.027, 133.645 482.286 C 135.215 482.585, 141.675 484.478, 148 486.493 C 155.393 488.848, 164.111 490.735, 172.412 491.776 L 185.325 493.396 186.784 491.198 C 187.587 489.989, 188.848 489, 189.587 489 C 192.004 489, 192.923 485.723, 191.473 482.274 C 189.806 478.310, 176.960 468.634, 162.446 460.412 L 152.011 454.500 152.010 447.500 C 152.008 443.650, 152.630 436.668, 153.390 431.985 C 154.851 422.982, 160.364 402.056, 162.158 398.706 C 162.748 397.602, 163.360 389.121, 163.536 379.610 C 163.763 367.275, 164.430 359.665, 165.926 352.343 C 167.067 346.757, 168 340.897, 168 339.322 C 168 337.747, 170.226 327.349, 172.947 316.216 C 180.818 284.012, 181.895 270.420, 177.182 262.794 C 175.969 260.831, 175.312 258.522, 175.626 257.321 C 175.954 256.066, 174.936 252.874, 173.055 249.259 C 170.322 244.008, 168.023 235.113, 168.006 229.721 C 168.003 228.743, 170.813 232.095, 174.250 237.171 C 184.289 251.994, 190.377 255.349, 199.500 251.088 C 207.654 247.279, 222.851 232.062, 236.413 214.127 C 246.151 201.247, 248.303 197.319, 248.640 191.806 C 248.976 186.311, 250.888 181.325, 254.449 176.656 C 255.852 174.816, 257 172.960, 257 172.532 C 257 172.103, 254.478 171.961, 251.396 172.217 L 245.792 172.682 246.347 166.091 C 246.652 162.466, 247.210 157.966, 247.588 156.090 C 248.191 153.093, 248.058 152.764, 246.490 153.365 C 244.855 153.993, 244.757 153.506, 245.315 147.525 C 245.762 142.742, 245.601 141.003, 244.712 141.012 C 243.280 141.027, 239 147.331, 239 149.427 C 239 150.227, 238.605 151.126, 238.122 151.425 C 237.034 152.097, 236 147.197, 236 141.375 C 236 138.288, 235.587 137, 234.598 137 C 232.561 137, 230.930 142.390, 230.280 151.277 L 229.711 159.053 227.758 155.777 C 225.256 151.580, 218.945 145, 217.422 145 C 216.777 145, 215.985 146.327, 215.660 147.950 C 215.204 150.231, 216.319 153.496, 220.581 162.361 C 224.066 169.607, 226.674 176.706, 227.673 181.662 C 228.542 185.973, 229.928 190.826, 230.754 192.448 C 232.249 195.381, 232.232 195.415, 227.385 199.448 C 224.707 201.676, 218.284 207.295, 213.113 211.933 L 203.712 220.366 201.304 217.433 C 199.980 215.820, 197.771 213.150, 196.396 211.500 C 191.687 205.851, 188.212 198.487, 182.006 181 C 174.822 160.761, 173.723 158.619, 169.033 155.715 C 165.720 153.664, 160.291 153.080, 143.885 153.011 C 142.447 153.005, 140.049 152.040, 138.557 150.866 L 135.845 148.733 139.672 147.020 C 142.833 145.606, 143.640 145.544, 144.304 146.661 C 144.746 147.405, 146.967 148.963, 149.241 150.123 C 154.859 152.989, 162.144 152.136, 171.620 147.502 C 185.197 140.861, 196.066 126.113, 201.143 107.442 C 204.141 96.417, 204.438 66.501, 201.668 54.688 C 199.011 43.360, 192.355 30.726, 185.365 23.748 C 177.661 16.055, 171.674 13.711, 159.022 13.432 C 150.968 13.255, 149.390 12.946, 148.522 11.375 C 146.256 7.275, 140.257 2.165, 136.477 1.115 C 131.173 -0.357, 122.674 -0.185, 116.333 1.524 M 61.875 193.750 C 58.889 196.912, 54.685 201.750, 52.532 204.500 C 50.379 207.250, 46.591 211.629, 44.116 214.230 L 39.614 218.960 41.912 221.406 C 43.188 222.764, 43.889 224.371, 43.488 225.019 C 42.636 226.397, 48.665 232.810, 58.094 240.555 C 64.654 245.944, 70.318 249.004, 73.718 248.996 C 74.698 248.993, 78.875 245.778, 83 241.850 C 87.125 237.922, 92.599 233.409, 95.164 231.821 L 99.829 228.934 95.292 220.717 C 92.797 216.198, 89.144 210.025, 87.173 207 C 83.082 200.719, 70.688 188, 68.659 188 C 67.914 188, 64.861 190.588, 61.875 193.750" fill="none" stroke="#000" stroke-width="2px" fill-rule="evenodd"/>
</svg>
