<svg xmlns="http://www.w3.org/2000/svg" width="427" height="500" viewBox="0 0 427 500" version="1.1">
	<path d="M 237.530 1.250 C 237.306 1.938, 236.187 6.020, 235.044 10.323 C 230.019 29.240, 222.367 37.156, 207.300 39.025 C 203.156 39.539, 198.409 41.002, 194.726 42.902 C 189.106 45.801, 188.662 45.877, 185.851 44.423 C 171.554 37.030, 147.301 48.003, 121.756 73.425 C 96.227 98.830, 82.808 125.425, 82.616 151 C 82.529 162.580, 83.977 168.917, 89.244 180 C 92.456 186.758, 94.842 190.042, 100.892 196.025 C 108.948 203.993, 115.484 207.803, 124.861 209.998 C 131.435 211.537, 142.419 210.869, 146.667 208.672 L 149.819 207.042 152.864 211.771 C 156.964 218.136, 167.168 227.965, 174.450 232.561 C 177.722 234.627, 184.022 237.782, 188.450 239.572 C 197.620 243.280, 197.160 241.877, 193.877 256.132 C 190.749 269.714, 178.879 287.171, 167.405 295.065 C 165.045 296.689, 155.776 300.768, 146.807 304.129 C 104.073 320.146, 81.613 336.787, 69.143 361.671 C 65.482 368.977, 62.346 379.770, 61.396 388.336 C 61.020 391.726, 60.214 394.831, 59.606 395.235 C 56.683 397.176, 50.916 395.799, 40.908 390.768 C 31.577 386.078, 29.827 385.535, 24 385.518 C 15.413 385.494, 11.518 387.767, 7.688 395.037 C 5.090 399.969, 4.850 401.231, 5.226 408.020 C 5.971 421.464, 13.805 433.712, 27.535 442.895 C 44.179 454.027, 64.658 455.797, 82.472 447.642 L 87.787 445.208 98.342 450.354 C 105.127 453.662, 108.915 456.076, 108.948 457.114 C 109.037 459.881, 114.057 463.940, 119.329 465.505 C 129.551 468.541, 154.201 470.346, 186.500 470.425 C 215.079 470.494, 218.216 470.329, 226.668 468.312 C 242.676 464.492, 248.348 460.200, 247.860 452.274 C 247.678 449.308, 248.117 447.455, 249.274 446.297 C 251.276 444.296, 250.945 443.931, 254.451 452 C 259.447 463.494, 261.877 466.905, 266.871 469.427 C 274.704 473.383, 286.102 475.443, 300 475.413 C 311.375 475.389, 313.289 475.108, 321.273 472.294 C 326.098 470.594, 331.498 468.097, 333.273 466.745 C 335.936 464.717, 338.442 464.085, 347.602 463.128 C 367.481 461.051, 378.952 456.666, 382.273 449.875 C 385.712 442.841, 381.711 437.448, 363.407 424.452 C 346.254 412.273, 336.881 403.500, 333.382 396.348 C 330.814 391.099, 330.734 390.438, 331.304 379.194 C 331.631 372.762, 333.532 358.050, 335.530 346.500 C 338.984 326.528, 339.141 324.643, 338.726 308 C 338.352 292.970, 337.935 289.324, 335.772 282.170 C 334.068 276.534, 333.617 273.729, 334.377 273.496 C 334.995 273.307, 337.215 272.624, 339.310 271.978 C 347.364 269.498, 352.980 261.262, 352.994 251.910 C 353 248.198, 350.335 236.806, 347.655 229.090 C 346.202 224.906, 346.236 224.464, 348.312 220.435 C 349.674 217.791, 352.854 214.427, 356.737 211.520 C 374.766 198.022, 387.597 175.333, 388.769 154.881 C 389.728 138.130, 386.096 130.780, 371.551 120.038 C 366.298 116.158, 362.002 112.650, 362.005 112.242 C 362.007 111.834, 363.121 108.800, 364.481 105.500 C 366.398 100.846, 366.958 97.690, 366.976 91.432 C 367.025 75.006, 360.598 61.895, 344.042 44.640 C 322.185 21.861, 298.159 15.431, 274.313 25.980 L 270 27.888 270 21.960 C 270 16.905, 269.595 15.578, 267.250 12.954 C 265.315 10.789, 263.288 9.714, 260.409 9.328 C 256.866 8.853, 256.049 9.122, 254.303 11.342 L 252.288 13.904 251.052 9.702 C 249.321 3.819, 245.475 -0, 241.282 -0 C 239.442 -0, 237.754 0.563, 237.530 1.250 M 286.361 398.501 C 286.044 399.327, 286.409 402.561, 287.173 405.687 C 288.380 410.636, 288.938 411.473, 291.480 412.153 C 293.086 412.582, 294.494 412.836, 294.608 412.717 C 295.097 412.210, 288.429 397, 287.719 397 C 287.289 397, 286.678 397.676, 286.361 398.501" fill="none" stroke="#000" stroke-width="2px" fill-rule="evenodd"/>
</svg>
