<?xml version="1.0" encoding="utf-8"?>
<!-- Generator: Adobe Illustrator 17.0.0, SVG Export Plug-In . SVG Version: 6.00 Build 0)  -->
<!DOCTYPE svg PUBLIC "-//W3C//DTD SVG 1.1//EN" "http://www.w3.org/Graphics/SVG/1.1/DTD/svg11.dtd">
<svg version="1.1" id="Слой_1" xmlns="http://www.w3.org/2000/svg" xmlns:xlink="http://www.w3.org/1999/xlink" x="0px" y="0px"
	 width="800px" height="400px" viewBox="0 0 800 400" enable-background="new 0 0 800 400" xml:space="preserve">
<g>
	<g>
		<defs>
			<rect id="SVGID_1_" x="0" width="800" height="400"/>
		</defs>
		<clipPath id="SVGID_2_">
			<use xlink:href="#SVGID_1_"  overflow="visible"/>
		</clipPath>
		<g clip-path="url(#SVGID_2_)">
			<polygon fill="#78EA80" points="383.866,-344.054 344.898,-383.017 383.866,-421.985 422.838,-383.017 			"/>
			<polygon fill="#A0EFB9" points="422.842,-305.076 383.866,-344.054 422.838,-383.017 461.81,-344.045 			"/>
			
				<rect x="434.252" y="-332.642" transform="matrix(-0.7071 -0.7071 0.7071 -0.7071 1004.0823 -194.2713)" fill="#78EA80" width="55.108" height="55.108"/>
			<polygon fill="#A0EFB9" points="344.898,-305.085 305.927,-344.054 344.898,-383.017 383.866,-344.054 			"/>
			
				<rect x="356.306" y="-332.646" transform="matrix(-0.7071 -0.7071 0.7071 -0.7071 871.0334 -249.3889)" fill="#C9F4D3" width="55.121" height="55.108"/>
			<polygon fill="#A0EFB9" points="422.842,-227.135 383.875,-266.107 422.842,-305.076 461.81,-266.107 			"/>
			<polygon fill="#A0EFB9" points="500.898,-227.013 461.927,-265.988 500.894,-304.957 539.875,-265.982 			"/>
			<polygon fill="#78EA80" points="539.875,-188.045 500.898,-227.013 539.875,-265.982 578.844,-227.013 			"/>
			<polygon fill="#C9F4D3" points="461.936,-188.045 422.955,-227.02 461.927,-265.988 500.898,-227.013 			"/>
			<polygon fill="#A0EFB9" points="500.898,-149.076 461.936,-188.045 500.898,-227.013 539.875,-188.045 			"/>
			<polygon fill="#A0EFB9" points="578.964,-148.951 539.988,-187.929 578.959,-226.898 617.933,-187.926 			"/>
			<polygon fill="#78EA80" points="617.933,-109.976 578.964,-148.951 617.933,-187.926 656.903,-148.951 			"/>
			<polygon fill="#C9F4D3" points="540,-109.976 501.016,-148.963 539.988,-187.929 578.964,-148.951 			"/>
			<polygon fill="#A0EFB9" points="578.964,-71.013 540,-109.976 578.964,-148.951 617.933,-109.976 			"/>
			
				<rect x="629.436" y="-137.392" transform="matrix(-0.7071 -0.7071 0.7071 -0.7071 1199.225 277.0659)" fill="#A0EFB9" width="55.117" height="55.114"/>
			
				<rect x="668.436" y="-98.451" transform="matrix(-0.7071 -0.7071 0.7071 -0.7071 1238.2651 371.1161)" fill="#78EA80" width="55.114" height="55.111"/>
			
				<rect x="590.492" y="-98.449" transform="matrix(-0.7071 -0.7071 0.7071 -0.7071 1105.2069 316.0002)" fill="#C9F4D3" width="55.114" height="55.107"/>
			<polygon fill="#A0EFB9" points="657.025,7.047 618.058,-31.92 657.025,-70.892 695.997,-31.92 			"/>
			<polygon fill="#A0EFB9" points="735.086,7.175 696.11,-31.804 735.081,-70.77 774.06,-31.795 			"/>
			<polygon fill="#78EA80" points="774.06,46.141 735.086,7.175 774.06,-31.795 813.027,7.175 			"/>
			<polygon fill="#C9F4D3" points="696.114,46.141 657.147,7.169 696.11,-31.804 735.086,7.175 			"/>
			<polygon fill="#A0EFB9" points="735.086,85.109 696.114,46.141 735.086,7.175 774.06,46.141 			"/>
			
				<rect x="785.585" y="18.7" transform="matrix(-0.7071 -0.7071 0.7071 -0.7071 1355.4117 653.9439)" fill="#A0EFB9" width="55.114" height="55.114"/>
			
				<rect x="824.532" y="57.695" transform="matrix(-0.7071 -0.7071 0.7071 -0.7071 1394.3236 748.0482)" fill="#78EA80" width="55.111" height="55.11"/>
			<polygon fill="#C9F4D3" points="774.175,124.203 735.202,85.225 774.175,46.262 813.147,85.234 			"/>
			
				<rect x="785.586" y="96.642" transform="matrix(-0.7071 -0.7071 0.7071 -0.7071 1300.3007 786.9985)" fill="#A0EFB9" width="55.114" height="55.111"/>
			
				<rect x="863.63" y="96.77" transform="matrix(-0.7071 -0.7071 0.7071 -0.7071 1433.4393 842.4062)" fill="#A0EFB9" width="55.115" height="55.115"/>
			<polygon fill="#78EA80" points="930.18,202.262 891.208,163.295 930.18,124.323 969.153,163.295 			"/>
			<polygon fill="#C9F4D3" points="852.241,202.262 813.263,163.291 852.235,124.323 891.208,163.295 			"/>
			<polygon fill="#A0EFB9" points="891.208,241.236 852.241,202.262 891.208,163.295 930.18,202.262 			"/>
			<polygon fill="#A0EFB9" points="969.275,241.356 930.297,202.384 969.269,163.413 1008.247,202.391 			"/>
			<polygon fill="#78EA80" points="1008.247,280.328 969.275,241.356 1008.247,202.391 1047.213,241.356 			"/>
			<polygon fill="#C9F4D3" points="930.308,280.328 891.33,241.347 930.297,202.384 969.275,241.356 			"/>
			
				<rect x="941.74" y="252.83" transform="matrix(-0.7071 -0.7072 0.7072 -0.7071 1456.3671 1164.0814)" fill="#A0EFB9" width="55.114" height="55.114"/>
			<polygon fill="#A0EFB9" points="1047.331,319.422 1008.358,280.445 1047.325,241.473 1086.308,280.45 			"/>
			<polygon fill="#78EA80" points="1086.308,358.384 1047.331,319.422 1086.308,280.45 1125.278,319.422 			"/>
			<polygon fill="#C9F4D3" points="1008.374,358.384 969.388,319.413 1008.358,280.445 1047.331,319.422 			"/>
			<polygon fill="#A0EFB9" points="1047.331,397.356 1008.374,358.384 1047.331,319.422 1086.308,358.384 			"/>
			
				<rect x="279.312" y="-333.593" transform="matrix(-0.7071 -0.7071 0.7071 -0.7071 740.2546 -305.4532)" fill="#78EA80" width="55.108" height="55.108"/>
			
				<rect x="318.28" y="-294.613" transform="matrix(-0.7071 -0.7071 0.7071 -0.7071 779.2223 -211.3496)" fill="#A0EFB9" width="55.118" height="55.111"/>
			<polygon fill="#78EA80" points="384.814,-189.11 345.845,-228.085 384.814,-267.051 423.786,-228.085 			"/>
			
				<rect x="240.344" y="-294.629" transform="matrix(-0.7071 -0.7071 0.7071 -0.7071 646.1831 -266.4898)" fill="#A0EFB9" width="55.111" height="55.109"/>
			<polygon fill="#C9F4D3" points="306.878,-189.11 267.903,-228.088 306.87,-267.06 345.845,-228.085 			"/>
			<polygon fill="#A0EFB9" points="345.845,-150.145 306.878,-189.11 345.845,-228.085 384.814,-189.11 			"/>
			<polygon fill="#A0EFB9" points="423.906,-150.023 384.936,-188.995 423.903,-227.966 462.88,-188.988 			"/>
			<polygon fill="#78EA80" points="462.88,-111.048 423.906,-150.023 462.88,-188.988 501.852,-150.023 			"/>
			<polygon fill="#C9F4D3" points="384.939,-111.048 345.969,-150.029 384.936,-188.995 423.906,-150.023 			"/>
			<polygon fill="#A0EFB9" points="423.906,-72.079 384.939,-111.048 423.906,-150.023 462.88,-111.048 			"/>
			
				<rect x="474.414" y="-138.505" transform="matrix(-0.7071 -0.7071 0.7071 -0.7071 935.3773 165.5452)" fill="#A0EFB9" width="55.12" height="55.108"/>
			<polygon fill="#78EA80" points="540.941,-32.992 501.972,-71.957 540.941,-110.926 579.913,-71.957 			"/>
			<polygon fill="#C9F4D3" points="463.005,-32.992 424.023,-71.966 462.997,-110.935 501.972,-71.957 			"/>
			<polygon fill="#A0EFB9" points="501.972,5.981 463.005,-32.992 501.972,-71.957 540.941,-32.992 			"/>
			<polygon fill="#A0EFB9" points="580.03,6.103 541.056,-32.866 580.025,-71.841 619.006,-32.863 			"/>
			<polygon fill="#78EA80" points="619.006,45.076 580.03,6.103 619.006,-32.863 657.974,6.103 			"/>
			<polygon fill="#C9F4D3" points="541.066,45.076 502.094,6.1 541.056,-32.866 580.03,6.103 			"/>
			<polygon fill="#A0EFB9" points="580.03,84.044 541.066,45.076 580.03,6.103 619.006,45.076 			"/>
			<polygon fill="#A0EFB9" points="658.096,84.169 619.117,45.187 658.091,6.219 697.063,45.197 			"/>
			
				<rect x="669.515" y="56.598" transform="matrix(-0.7071 -0.7071 0.7071 -0.7071 1130.4668 636.5607)" fill="#78EA80" width="55.108" height="55.11"/>
			
				<rect x="591.585" y="56.63" transform="matrix(-0.7072 -0.7071 0.7071 -0.7072 997.4598 581.4985)" fill="#C9F4D3" width="55.13" height="55.118"/>
			
				<rect x="630.538" y="95.577" transform="matrix(-0.7071 -0.7071 0.7071 -0.7071 1036.3665 675.5402)" fill="#A0EFB9" width="55.108" height="55.108"/>
			
				<rect x="708.587" y="95.694" transform="matrix(-0.7071 -0.7071 0.7071 -0.7071 1169.5308 730.9387)" fill="#A0EFB9" width="55.122" height="55.114"/>
			<polygon fill="#78EA80" points="775.128,201.197 736.156,162.231 775.128,123.259 814.094,162.231 			"/>
			<polygon fill="#C9F4D3" points="697.189,201.197 658.217,162.22 697.178,123.253 736.156,162.231 			"/>
			<polygon fill="#A0EFB9" points="736.156,240.17 697.189,201.197 736.156,162.231 775.128,201.197 			"/>
			
				<rect x="786.637" y="173.76" transform="matrix(-0.7071 -0.7071 0.7071 -0.7071 1247.568 919.3955)" fill="#A0EFB9" width="55.119" height="55.115"/>
			<polygon fill="#78EA80" points="853.185,279.253 814.217,240.291 853.185,201.319 892.16,240.291 			"/>
			<polygon fill="#C9F4D3" points="775.245,279.253 736.269,240.287 775.241,201.316 814.217,240.291 			"/>
			<polygon fill="#A0EFB9" points="814.217,318.225 775.245,279.253 814.217,240.291 853.185,279.253 			"/>
			
				<rect x="864.68" y="251.832" transform="matrix(-0.7071 -0.7071 0.7071 -0.7071 1325.5896 1107.8555)" fill="#A0EFB9" width="55.118" height="55.114"/>
			<polygon fill="#78EA80" points="931.252,357.32 892.278,318.353 931.252,279.38 970.222,318.353 			"/>
			
				<rect x="825.759" y="290.849" transform="matrix(-0.7071 -0.7072 0.7072 -0.7071 1231.5034 1146.9646)" fill="#C9F4D3" width="55.121" height="55.109"/>
			<polygon fill="#A0EFB9" points="892.278,396.292 853.306,357.32 892.278,318.353 931.252,357.32 			"/>
			<polygon fill="#A0EFB9" points="970.339,396.413 931.367,357.438 970.339,318.464 1009.311,357.447 			"/>
			<polygon fill="#78EA80" points="1009.311,435.386 970.339,396.413 1009.311,357.447 1048.285,396.413 			"/>
			<polygon fill="#C9F4D3" points="931.372,435.386 892.396,396.403 931.367,357.438 970.339,396.413 			"/>
			<polygon fill="#A0EFB9" points="970.339,474.353 931.372,435.386 970.339,396.413 1009.311,435.386 			"/>
			
				<rect x="202.346" y="-256.588" transform="matrix(-0.7072 -0.7071 0.7071 -0.7072 554.4183 -228.4369)" fill="#78EA80" width="55.113" height="55.115"/>
			<polygon fill="#A0EFB9" points="268.855,-151.088 229.883,-190.066 268.85,-229.032 307.819,-190.06 			"/>
			<polygon fill="#78EA80" points="307.819,-112.12 268.855,-151.088 307.819,-190.06 346.795,-151.088 			"/>
			<polygon fill="#A0EFB9" points="190.911,-151.088 151.934,-190.066 190.911,-229.032 229.883,-190.066 			"/>
			<polygon fill="#C9F4D3" points="229.883,-112.12 190.911,-151.088 229.883,-190.066 268.855,-151.088 			"/>
			<polygon fill="#A0EFB9" points="268.855,-73.148 229.883,-112.12 268.855,-151.088 307.819,-112.12 			"/>
			
				<rect x="319.351" y="-139.562" transform="matrix(-0.7071 -0.7071 0.7071 -0.7071 671.4127 54.0952)" fill="#A0EFB9" width="55.117" height="55.11"/>
			
				<rect x="358.328" y="-100.589" transform="matrix(-0.7071 -0.7071 0.7071 -0.7071 710.3885 148.186)" fill="#78EA80" width="55.113" height="55.11"/>
			<polygon fill="#C9F4D3" points="307.944,-34.054 268.967,-73.038 307.939,-112.001 346.913,-73.026 			"/>
			
				<rect x="319.356" y="-61.615" transform="matrix(-0.7071 -0.7071 0.7071 -0.7071 616.2988 187.1604)" fill="#A0EFB9" width="55.11" height="55.111"/>
			<polygon fill="#A0EFB9" points="424.977,5.037 386,-33.945 424.967,-72.913 463.945,-33.935 			"/>
			
				<rect x="436.388" y="-22.525" transform="matrix(-0.7071 -0.7071 0.7071 -0.7071 788.442 336.6462)" fill="#78EA80" width="55.109" height="55.112"/>
			<polygon fill="#C9F4D3" points="386.01,44.006 347.033,5.028 386,-33.945 424.977,5.037 			"/>
			
				<rect x="397.421" y="16.448" transform="matrix(-0.7071 -0.7071 0.7071 -0.7071 694.3619 375.6192)" fill="#A0EFB9" width="55.107" height="55.108"/>
			<polygon fill="#A0EFB9" points="503.033,83.094 464.066,44.122 503.033,5.15 542.01,44.128 			"/>
			<polygon fill="#78EA80" points="542.01,122.066 503.033,83.094 542.01,44.128 580.977,83.094 			"/>
			<polygon fill="#C9F4D3" points="464.066,122.066 425.1,83.091 464.066,44.122 503.033,83.094 			"/>
			<polygon fill="#A0EFB9" points="503.033,161.034 464.066,122.066 503.033,83.094 542.01,122.066 			"/>
			<polygon fill="#A0EFB9" points="581.097,161.161 542.128,122.178 581.097,83.211 620.072,122.187 			"/>
			<polygon fill="#78EA80" points="620.072,200.128 581.097,161.161 620.072,122.187 659.038,161.161 			"/>
			<polygon fill="#C9F4D3" points="542.128,200.128 503.156,161.15 542.128,122.178 581.097,161.161 			"/>
			<polygon fill="#A0EFB9" points="581.097,239.095 542.128,200.128 581.097,161.161 620.072,200.128 			"/>
			
				<rect x="631.627" y="172.727" transform="matrix(-0.7071 -0.7072 0.7072 -0.7071 983.639 808.0444)" fill="#A0EFB9" width="55.122" height="55.112"/>
			
				<rect x="670.601" y="211.647" transform="matrix(-0.7071 -0.7071 0.7071 -0.7071 1022.6869 902.0154)" fill="#78EA80" width="55.111" height="55.111"/>
			<polygon fill="#C9F4D3" points="620.197,278.194 581.217,239.213 620.192,200.244 659.164,239.222 			"/>
			<polygon fill="#A0EFB9" points="659.164,317.156 620.197,278.194 659.164,239.222 698.133,278.194 			"/>
			
				<rect x="709.634" y="250.758" transform="matrix(-0.7071 -0.7071 0.7071 -0.7071 1061.6675 996.3874)" fill="#A0EFB9" width="55.116" height="55.114"/>
			
				<rect x="748.637" y="289.716" transform="matrix(-0.7071 -0.7071 0.7071 -0.7071 1100.6963 1090.4669)" fill="#78EA80" width="55.109" height="55.111"/>
			<polygon fill="#C9F4D3" points="698.255,356.25 659.277,317.278 698.25,278.309 737.225,317.281 			"/>
			
				<rect x="709.682" y="328.683" transform="matrix(-0.7071 -0.7071 0.7071 -0.7071 1006.6464 1129.4425)" fill="#A0EFB9" width="55.112" height="55.11"/>
			<polygon fill="#A0EFB9" points="815.288,395.344 776.316,356.366 815.278,317.4 854.258,356.375 			"/>
			
				<rect x="826.716" y="367.775" transform="matrix(-0.7071 -0.7071 0.7071 -0.7071 1178.7938 1278.9323)" fill="#78EA80" width="55.112" height="55.11"/>
			<polygon fill="#C9F4D3" points="776.319,434.316 737.347,395.337 776.316,356.366 815.288,395.344 			"/>
			
				<rect x="787.713" y="406.754" transform="matrix(-0.7071 -0.7071 0.7071 -0.7071 1084.6443 1317.8943)" fill="#A0EFB9" width="55.108" height="55.111"/>
			<polygon fill="#A0EFB9" points="893.349,473.406 854.37,434.433 893.344,395.459 932.316,434.438 			"/>
			
				<rect x="904.797" y="445.831" transform="matrix(-0.7071 -0.7071 0.7071 -0.7071 1256.8893 1467.3911)" fill="#78EA80" width="55.109" height="55.108"/>
			<polygon fill="#C9F4D3" points="854.377,512.377 815.399,473.4 854.37,434.433 893.349,473.406 			"/>
			
				<rect x="865.732" y="484.825" transform="matrix(-0.7071 -0.7071 0.7071 -0.7071 1162.6287 1506.3386)" fill="#A0EFB9" width="55.11" height="55.112"/>
			<polygon fill="#78EA80" points="152.891,-113.076 113.919,-152.045 152.891,-191.01 191.859,-152.045 			"/>
			<polygon fill="#A0EFB9" points="191.859,-74.098 152.891,-113.076 191.859,-152.045 230.831,-113.07 			"/>
			<polygon fill="#78EA80" points="230.831,-35.132 191.859,-74.098 230.831,-113.07 269.798,-74.098 			"/>
			<polygon fill="#A0EFB9" points="113.919,-74.104 74.953,-113.076 113.919,-152.045 152.891,-113.076 			"/>
			<polygon fill="#C9F4D3" points="152.891,-35.132 113.919,-74.104 152.891,-113.076 191.859,-74.098 			"/>
			<polygon fill="#A0EFB9" points="191.859,3.844 152.891,-35.132 191.859,-74.098 230.831,-35.132 			"/>
			<polygon fill="#A0EFB9" points="269.919,3.962 230.953,-35.007 269.916,-73.982 308.892,-35.007 			"/>
			<polygon fill="#78EA80" points="308.892,42.931 269.919,3.962 308.892,-35.007 347.864,3.962 			"/>
			<polygon fill="#C9F4D3" points="230.953,42.931 191.981,3.956 230.953,-35.007 269.919,3.962 			"/>
			<polygon fill="#A0EFB9" points="269.919,81.903 230.953,42.931 269.919,3.962 308.892,42.931 			"/>
			
				<rect x="320.409" y="15.502" transform="matrix(-0.7071 -0.7071 0.7071 -0.7071 563.573 319.5614)" fill="#A0EFB9" width="55.122" height="55.117"/>
			<polygon fill="#78EA80" points="386.959,120.991 347.986,82.03 386.959,43.056 425.925,82.03 			"/>
			<polygon fill="#C9F4D3" points="309.019,120.991 270.042,82.019 309.006,43.053 347.986,82.03 			"/>
			<polygon fill="#A0EFB9" points="347.986,159.964 309.019,120.991 347.986,82.03 386.959,120.991 			"/>
			
				<rect x="398.47" y="93.566" transform="matrix(-0.7071 -0.7071 0.7071 -0.7071 641.6323 508.0132)" fill="#A0EFB9" width="55.118" height="55.107"/>
			<polygon fill="#78EA80" points="465.014,199.058 426.052,160.086 465.014,121.119 503.992,160.086 			"/>
			
				<rect x="359.518" y="132.527" transform="matrix(-0.7071 -0.7071 0.7071 -0.7071 547.59 546.9816)" fill="#C9F4D3" width="55.12" height="55.108"/>
			<polygon fill="#A0EFB9" points="426.052,238.025 387.084,199.058 426.052,160.086 465.014,199.058 			"/>
			
				<rect x="476.525" y="171.623" transform="matrix(-0.7071 -0.7071 0.7071 -0.7071 719.683 696.465)" fill="#A0EFB9" width="55.118" height="55.117"/>
			
				<rect x="515.521" y="210.588" transform="matrix(-0.7071 -0.7071 0.7071 -0.7071 758.6974 790.5551)" fill="#78EA80" width="55.114" height="55.115"/>
			<polygon fill="#C9F4D3" points="465.141,277.123 426.164,238.144 465.131,199.178 504.108,238.152 			"/>
			<polygon fill="#A0EFB9" points="504.108,316.086 465.141,277.123 504.108,238.152 543.08,277.123 			"/>
			<polygon fill="#A0EFB9" points="582.169,316.213 543.197,277.234 582.166,238.269 621.141,277.241 			"/>
			
				<rect x="593.581" y="288.649" transform="matrix(-0.7071 -0.7071 0.7071 -0.7071 836.7585 979.0087)" fill="#78EA80" width="55.114" height="55.114"/>
			<polygon fill="#C9F4D3" points="543.206,355.184 504.228,316.208 543.197,277.234 582.169,316.213 			"/>
			<polygon fill="#A0EFB9" points="582.169,394.152 543.206,355.184 582.169,316.213 621.141,355.184 			"/>
			<polygon fill="#A0EFB9" points="660.231,394.273 621.258,355.301 660.231,316.328 699.202,355.306 			"/>
			<polygon fill="#78EA80" points="699.202,433.241 660.231,394.273 699.202,355.306 738.174,394.273 			"/>
			
				<rect x="593.659" y="366.72" transform="matrix(-0.7071 -0.7071 0.7071 -0.7071 781.6919 1112.3354)" fill="#C9F4D3" width="55.117" height="55.107"/>
			<polygon fill="#A0EFB9" points="660.231,472.213 621.267,433.241 660.231,394.273 699.202,433.241 			"/>
			<polygon fill="#A0EFB9" points="738.292,472.339 699.319,433.362 738.286,394.391 777.267,433.366 			"/>
			<polygon fill="#78EA80" points="777.267,511.305 738.292,472.339 777.267,433.366 816.239,472.339 			"/>
			<polygon fill="#C9F4D3" points="699.328,511.305 660.356,472.33 699.319,433.362 738.292,472.339 			"/>
			<polygon fill="#A0EFB9" points="738.292,550.275 699.328,511.305 738.292,472.339 777.267,511.305 			"/>
			
				<rect x="788.789" y="483.859" transform="matrix(-0.7071 -0.7071 0.7071 -0.7071 1031.9713 1450.2855)" fill="#A0EFB9" width="55.12" height="55.11"/>
			
				<rect x="827.772" y="522.904" transform="matrix(-0.7071 -0.7072 0.7072 -0.7071 1070.8344 1544.5187)" fill="#78EA80" width="55.114" height="55.111"/>
			
				<rect x="749.805" y="522.829" transform="matrix(-0.7071 -0.7071 0.7071 -0.7071 937.8597 1489.248)" fill="#C9F4D3" width="55.117" height="55.115"/>
			
				<rect x="788.776" y="561.803" transform="matrix(-0.7071 -0.7071 0.7071 -0.7071 976.8259 1583.3356)" fill="#A0EFB9" width="55.112" height="55.114"/>
			<polygon fill="#78EA80" points="75.897,-36.079 36.923,-75.051 75.897,-114.013 114.869,-75.051 			"/>
			
				<rect x="87.315" y="-63.632" transform="matrix(-0.7071 -0.7072 0.7072 -0.7071 221.6086 19.6575)" fill="#A0EFB9" width="55.122" height="55.118"/>
			<polygon fill="#78EA80" points="153.842,41.861 114.869,2.898 153.842,-36.076 192.803,2.898 			"/>
			<polygon fill="#A0EFB9" points="36.923,2.887 -2.044,-36.079 36.923,-75.051 75.897,-36.079 			"/>
			<polygon fill="#C9F4D3" points="75.897,41.861 36.923,2.887 75.897,-36.079 114.869,2.898 			"/>
			<polygon fill="#A0EFB9" points="114.869,80.833 75.897,41.861 114.869,2.898 153.842,41.861 			"/>
			<polygon fill="#A0EFB9" points="192.934,80.959 153.953,41.978 192.925,3.02 231.897,41.987 			"/>
			<polygon fill="#78EA80" points="231.897,119.931 192.934,80.959 231.897,41.987 270.869,80.959 			"/>
			
				<rect x="126.393" y="53.397" transform="matrix(-0.7071 -0.7071 0.7071 -0.7071 205.5721 247.0598)" fill="#C9F4D3" width="55.121" height="55.115"/>
			<polygon fill="#A0EFB9" points="192.934,158.894 153.963,119.931 192.934,80.959 231.897,119.931 			"/>
			
				<rect x="243.432" y="92.506" transform="matrix(-0.7071 -0.7072 0.7072 -0.7071 377.696 396.5891)" fill="#A0EFB9" width="55.121" height="55.114"/>
			<polygon fill="#78EA80" points="309.963,197.983 270.991,159.02 309.963,120.053 348.93,159.02 			"/>
			<polygon fill="#C9F4D3" points="232.019,197.983 193.045,159.016 232.019,120.044 270.991,159.02 			"/>
			<polygon fill="#A0EFB9" points="270.991,236.959 232.019,197.983 270.991,159.02 309.963,197.983 			"/>
			
				<rect x="321.507" y="170.545" transform="matrix(-0.7071 -0.7071 0.7071 -0.7071 455.8141 585.0065)" fill="#A0EFB9" width="55.118" height="55.111"/>
			
				<rect x="360.449" y="209.522" transform="matrix(-0.7071 -0.7071 0.7071 -0.7071 494.7256 679.0804)" fill="#78EA80" width="55.111" height="55.114"/>
			
				<rect x="282.521" y="209.52" transform="matrix(-0.7071 -0.7071 0.7071 -0.7071 361.7078 623.971)" fill="#C9F4D3" width="55.122" height="55.107"/>
			<polygon fill="#A0EFB9" points="349.052,315.016 310.089,276.05 349.052,237.081 388.023,276.05 			"/>
			
				<rect x="399.535" y="248.613" transform="matrix(-0.7071 -0.7071 0.7071 -0.7071 533.8129 773.4535)" fill="#A0EFB9" width="55.118" height="55.114"/>
			
				<rect x="438.566" y="287.574" transform="matrix(-0.7072 -0.707 0.707 -0.7072 572.9654 867.5431)" fill="#78EA80" width="55.109" height="55.111"/>
			
				<rect x="360.587" y="287.582" transform="matrix(-0.7071 -0.7071 0.7071 -0.7071 439.7689 812.4283)" fill="#C9F4D3" width="55.114" height="55.105"/>
			<polygon fill="#A0EFB9" points="427.117,393.087 388.149,354.109 427.117,315.144 466.089,354.109 			"/>
			
				<rect x="477.615" y="326.674" transform="matrix(-0.7071 -0.7071 0.7071 -0.7071 611.9103 961.9203)" fill="#A0EFB9" width="55.12" height="55.11"/>
			
				<rect x="516.605" y="365.686" transform="matrix(-0.7072 -0.7071 0.7071 -0.7072 650.9238 1056.0851)" fill="#78EA80" width="55.114" height="55.118"/>
			
				<rect x="438.622" y="365.646" transform="matrix(-0.7071 -0.7071 0.7071 -0.7071 517.7885 1000.874)" fill="#C9F4D3" width="55.12" height="55.106"/>
			<polygon fill="#A0EFB9" points="505.178,471.144 466.216,432.175 505.178,393.208 544.15,432.175 			"/>
			<polygon fill="#A0EFB9" points="583.239,471.266 544.263,432.297 583.233,393.325 622.211,432.302 			"/>
			<polygon fill="#78EA80" points="622.211,510.238 583.239,471.266 622.211,432.302 661.178,471.266 			"/>
			<polygon fill="#C9F4D3" points="544.272,510.238 505.297,471.262 544.263,432.297 583.239,471.266 			"/>
			
				<rect x="555.73" y="482.672" transform="matrix(-0.7071 -0.7071 0.7071 -0.7071 634.9445 1283.4572)" fill="#A0EFB9" width="55.11" height="55.11"/>
			<polygon fill="#A0EFB9" points="661.3,549.331 622.328,510.348 661.297,471.384 700.272,510.359 			"/>
			<polygon fill="#78EA80" points="700.272,588.295 661.3,549.331 700.272,510.359 739.244,549.331 			"/>
			<polygon fill="#C9F4D3" points="622.338,588.295 583.356,549.322 622.328,510.348 661.3,549.331 			"/>
			<polygon fill="#A0EFB9" points="661.3,627.269 622.338,588.295 661.3,549.331 700.272,588.295 			"/>
			
				<rect x="711.802" y="560.851" transform="matrix(-0.7071 -0.7071 0.7071 -0.7071 846.1015 1527.2804)" fill="#A0EFB9" width="55.118" height="55.111"/>
			<polygon fill="#78EA80" points="778.335,666.362 739.366,627.391 778.335,588.422 817.3,627.391 			"/>
			
				<rect x="672.852" y="599.824" transform="matrix(-0.7071 -0.7071 0.7071 -0.7071 752.0561 1566.2689)" fill="#C9F4D3" width="55.121" height="55.109"/>
			
				<rect x="711.811" y="638.796" transform="matrix(-0.7071 -0.7071 0.7071 -0.7071 790.994 1660.3424)" fill="#A0EFB9" width="55.108" height="55.11"/>
			<polygon fill="#78EA80" points="-1.1,40.916 -40.063,1.945 -1.1,-37.026 37.878,1.945 			"/>
			<polygon fill="#A0EFB9" points="37.878,79.884 -1.1,40.916 37.878,1.945 76.845,40.922 			"/>
			<polygon fill="#78EA80" points="76.845,118.856 37.878,79.884 76.845,40.922 115.813,79.884 			"/>
			<polygon fill="#A0EFB9" points="-40.063,79.884 -79.039,40.916 -40.063,1.945 -1.1,40.916 			"/>
			<polygon fill="#C9F4D3" points="-1.095,118.856 -40.063,79.884 -1.1,40.916 37.878,79.884 			"/>
			<polygon fill="#A0EFB9" points="37.878,157.828 -1.095,118.856 37.878,79.884 76.845,118.856 			"/>
			
				<rect x="88.369" y="91.42" transform="matrix(-0.7071 -0.7071 0.7071 -0.7071 113.7749 285.0791)" fill="#A0EFB9" width="55.12" height="55.111"/>
			
				<rect x="127.352" y="130.39" transform="matrix(-0.7071 -0.7071 0.7071 -0.7071 152.7572 379.1645)" fill="#78EA80" width="55.107" height="55.11"/>
			<polygon fill="#C9F4D3" points="76.966,196.917 37.989,157.947 76.961,118.975 115.939,157.95 			"/>
			<polygon fill="#A0EFB9" points="115.939,235.891 76.966,196.917 115.939,157.95 154.906,196.917 			"/>
			<polygon fill="#A0EFB9" points="193.998,236.011 155.022,197.041 193.989,158.069 232.972,197.044 			"/>
			<polygon fill="#78EA80" points="232.972,274.983 193.998,236.011 232.972,197.044 271.939,236.011 			"/>
			<polygon fill="#C9F4D3" points="155.031,274.983 116.052,236.006 155.022,197.041 193.998,236.011 			"/>
			<polygon fill="#A0EFB9" points="193.998,313.952 155.031,274.983 193.998,236.011 232.972,274.983 			"/>
			<polygon fill="#A0EFB9" points="272.059,314.078 233.088,275.1 272.055,236.134 311.028,275.106 			"/>
			
				<rect x="283.465" y="286.516" transform="matrix(-0.7071 -0.7071 0.7071 -0.7071 308.8607 756.078)" fill="#78EA80" width="55.108" height="55.111"/>
			
				<rect x="205.52" y="286.539" transform="matrix(-0.7071 -0.7072 0.7072 -0.7071 175.7664 701.0048)" fill="#C9F4D3" width="55.121" height="55.115"/>
			<polygon fill="#A0EFB9" points="272.059,392.012 233.088,353.045 272.059,314.078 311.028,353.045 			"/>
			<polygon fill="#A0EFB9" points="350.12,392.138 311.153,353.161 350.116,314.189 389.094,353.17 			"/>
			<polygon fill="#78EA80" points="389.094,431.109 350.12,392.138 389.094,353.17 428.061,392.138 			"/>
			<polygon fill="#C9F4D3" points="311.153,431.109 272.183,392.125 311.153,353.161 350.12,392.138 			"/>
			<polygon fill="#A0EFB9" points="350.12,470.075 311.153,431.109 350.12,392.138 389.094,431.109 			"/>
			<polygon fill="#A0EFB9" points="428.188,470.2 389.211,431.222 428.181,392.25 467.153,431.228 			"/>
			<polygon fill="#78EA80" points="467.153,509.166 428.188,470.2 467.153,431.228 506.127,470.2 			"/>
			<polygon fill="#C9F4D3" points="389.22,509.166 350.244,470.194 389.211,431.222 428.188,470.2 			"/>
			<polygon fill="#A0EFB9" points="428.188,548.139 389.22,509.166 428.188,470.2 467.153,509.166 			"/>
			<polygon fill="#A0EFB9" points="506.249,548.255 467.272,509.284 506.244,470.316 545.22,509.291 			"/>
			<polygon fill="#78EA80" points="545.22,587.228 506.249,548.255 545.22,509.291 584.188,548.255 			"/>
			<polygon fill="#C9F4D3" points="467.281,587.228 428.31,548.25 467.272,509.284 506.249,548.255 			"/>
			
				<rect x="478.711" y="559.664" transform="matrix(-0.7071 -0.7071 0.7071 -0.7071 449.0211 1360.4298)" fill="#A0EFB9" width="55.108" height="55.111"/>
			
				<rect x="556.753" y="559.842" transform="matrix(-0.7072 -0.7071 0.7071 -0.7072 582.1902 1415.9286)" fill="#A0EFB9" width="55.121" height="55.118"/>
			<polygon fill="#78EA80" points="623.277,665.294 584.31,626.322 623.277,587.353 662.255,626.322 			"/>
			<polygon fill="#C9F4D3" points="545.347,665.294 506.369,626.316 545.333,587.35 584.31,626.322 			"/>
			<polygon fill="#A0EFB9" points="584.31,704.261 545.347,665.294 584.31,626.322 623.277,665.294 			"/>
			
				<rect x="634.81" y="637.845" transform="matrix(-0.7071 -0.7071 0.7071 -0.7071 660.2267 1604.2772)" fill="#A0EFB9" width="55.12" height="55.112"/>
			
				<rect x="673.846" y="676.816" transform="matrix(-0.7072 -0.707 0.707 -0.7072 699.4406 1698.4045)" fill="#78EA80" width="55.109" height="55.113"/>
			<polygon fill="#C9F4D3" points="623.397,743.35 584.422,704.377 623.394,665.408 662.37,704.384 			"/>
			<polygon fill="#A0EFB9" points="662.37,782.322 623.397,743.35 662.37,704.384 701.342,743.35 			"/>
			<polygon fill="#78EA80" points="-78.091,117.909 -117.063,78.931 -78.091,39.959 -39.119,78.931 			"/>
			<polygon fill="#A0EFB9" points="-39.114,156.88 -78.091,117.909 -39.119,78.931 -0.145,117.912 			"/>
			
				<rect x="-27.699" y="129.325" transform="matrix(-0.7071 -0.7071 0.7071 -0.7071 -111.1768 267.708)" fill="#78EA80" width="55.109" height="55.108"/>
			<polygon fill="#A0EFB9" points="-117.063,156.872 -156.031,117.909 -117.063,78.931 -78.091,117.909 			"/>
			<polygon fill="#C9F4D3" points="-78.086,195.848 -117.063,156.872 -78.091,117.909 -39.114,156.88 			"/>
			
				<rect x="-66.671" y="168.289" transform="matrix(-0.7071 -0.7071 0.7071 -0.7071 -205.256 306.6695)" fill="#A0EFB9" width="55.112" height="55.111"/>
			
				<rect x="11.397" y="168.421" transform="matrix(-0.7071 -0.7071 0.7071 -0.7071 -72.0735 362.0956)" fill="#A0EFB9" width="55.117" height="55.108"/>
			
				<rect x="50.362" y="207.386" transform="matrix(-0.7071 -0.7071 0.7071 -0.7071 -33.1119 456.1677)" fill="#78EA80" width="55.114" height="55.111"/>
			
				<rect x="-27.572" y="207.392" transform="matrix(-0.7071 -0.7071 0.7071 -0.7071 -166.1566 401.0722)" fill="#C9F4D3" width="55.117" height="55.113"/>
			
				<rect x="11.38" y="246.342" transform="matrix(-0.7071 -0.7071 0.7071 -0.7071 -127.2097 495.1064)" fill="#A0EFB9" width="55.11" height="55.114"/>
			
				<rect x="89.452" y="246.476" transform="matrix(-0.7072 -0.707 0.707 -0.7072 6.0219 550.556)" fill="#A0EFB9" width="55.12" height="55.11"/>
			
				<rect x="128.445" y="285.454" transform="matrix(-0.7071 -0.7071 0.7071 -0.7071 44.9795 644.6467)" fill="#78EA80" width="55.11" height="55.108"/>
			<polygon fill="#C9F4D3" points="78.042,351.975 39.058,312.994 78.031,274.031 117.013,313.003 			"/>
			
				<rect x="89.446" y="324.406" transform="matrix(-0.7071 -0.7071 0.7071 -0.7071 -49.1417 683.5701)" fill="#A0EFB9" width="55.109" height="55.112"/>
			<polygon fill="#A0EFB9" points="195.07,391.069 156.094,352.091 195.064,313.119 234.036,352.095 			"/>
			<polygon fill="#78EA80" points="234.036,430.031 195.07,391.069 234.036,352.095 273.009,391.069 			"/>
			<polygon fill="#C9F4D3" points="156.098,430.031 117.125,391.059 156.094,352.091 195.07,391.069 			"/>
			<polygon fill="#A0EFB9" points="195.07,469.003 156.098,430.031 195.07,391.069 234.036,430.031 			"/>
			
				<rect x="245.559" y="402.593" transform="matrix(-0.7071 -0.7071 0.7071 -0.7071 162.0827 927.4368)" fill="#A0EFB9" width="55.121" height="55.113"/>
			<polygon fill="#78EA80" points="312.103,508.097 273.131,469.13 312.103,430.156 351.075,469.13 			"/>
			
				<rect x="206.599" y="441.567" transform="matrix(-0.7071 -0.7071 0.7071 -0.7071 68.0176 966.4148)" fill="#C9F4D3" width="55.122" height="55.106"/>
			
				<rect x="245.59" y="480.542" transform="matrix(-0.7071 -0.7071 0.7071 -0.7071 107.0079 1060.5165)" fill="#A0EFB9" width="55.108" height="55.107"/>
			
				<rect x="323.608" y="480.652" transform="matrix(-0.7071 -0.7071 0.7071 -0.7071 240.1287 1115.8782)" fill="#A0EFB9" width="55.125" height="55.109"/>
			<polygon fill="#78EA80" points="390.164,586.158 351.2,547.191 390.164,508.219 429.136,547.191 			"/>
			<polygon fill="#C9F4D3" points="312.23,586.158 273.244,547.186 312.219,508.213 351.2,547.191 			"/>
			<polygon fill="#A0EFB9" points="351.2,625.128 312.23,586.158 351.2,547.191 390.164,586.158 			"/>
			
				<rect x="401.709" y="558.719" transform="matrix(-0.7072 -0.707 0.707 -0.7072 318.3539 1304.3866)" fill="#A0EFB9" width="55.122" height="55.109"/>
			<polygon fill="#78EA80" points="468.225,664.219 429.263,625.25 468.225,586.281 507.192,625.25 			"/>
			<polygon fill="#C9F4D3" points="390.28,664.219 351.308,625.247 390.28,586.277 429.263,625.25 			"/>
			<polygon fill="#A0EFB9" points="429.263,703.191 390.28,664.219 429.263,625.25 468.225,664.219 			"/>
			
				<rect x="479.724" y="636.771" transform="matrix(-0.7071 -0.7071 0.7071 -0.7071 396.2387 1492.7819)" fill="#A0EFB9" width="55.12" height="55.112"/>
			
				<rect x="518.767" y="675.755" transform="matrix(-0.7071 -0.7071 0.7071 -0.7071 435.3142 1586.9316)" fill="#78EA80" width="55.109" height="55.108"/>
			
				<rect x="440.785" y="675.748" transform="matrix(-0.7071 -0.7071 0.7071 -0.7071 302.2055 1531.7819)" fill="#C9F4D3" width="55.12" height="55.108"/>
			
				<rect x="479.767" y="714.719" transform="matrix(-0.7071 -0.7071 0.7071 -0.7071 341.1858 1625.8726)" fill="#A0EFB9" width="55.109" height="55.11"/>
			
				<rect x="557.816" y="714.836" transform="matrix(-0.7071 -0.7071 0.7071 -0.7071 474.3492 1681.2682)" fill="#A0EFB9" width="55.12" height="55.114"/>
			<polygon fill="#78EA80" points="624.352,820.345 585.378,781.377 624.352,742.406 663.319,781.377 			"/>
			<polygon fill="#C9F4D3" points="546.411,820.345 507.439,781.369 546.402,742.4 585.378,781.377 			"/>
			<polygon fill="#A0EFB9" points="585.378,859.314 546.411,820.345 585.378,781.377 624.352,820.345 			"/>
			<polygon fill="#78EA80" points="-155.081,194.9 -194.048,155.928 -155.081,116.959 -116.119,155.928 			"/>
			
				<rect x="-143.671" y="167.337" transform="matrix(-0.7071 -0.7071 0.7071 -0.7071 -336.0252 250.5947)" fill="#A0EFB9" width="55.116" height="55.107"/>
			<polygon fill="#78EA80" points="-77.142,272.841 -116.106,233.872 -77.142,194.905 -38.166,233.872 			"/>
			<polygon fill="#A0EFB9" points="-194.048,233.867 -233.025,194.9 -194.048,155.928 -155.081,194.9 			"/>
			
				<rect x="-182.635" y="206.305" transform="matrix(-0.7071 -0.7071 0.7071 -0.7071 -430.0939 289.566)" fill="#C9F4D3" width="55.118" height="55.107"/>
			<polygon fill="#A0EFB9" points="-116.106,311.816 -155.072,272.841 -116.106,233.872 -77.142,272.841 			"/>
			<polygon fill="#A0EFB9" points="-38.047,311.938 -77.02,272.959 -38.053,233.987 0.919,272.966 			"/>
			<polygon fill="#78EA80" points="0.919,350.9 -38.047,311.938 0.919,272.966 39.891,311.938 			"/>
			<polygon fill="#C9F4D3" points="-77.016,350.9 -115.992,311.928 -77.02,272.959 -38.047,311.938 			"/>
			<polygon fill="#A0EFB9" points="-38.047,389.872 -77.016,350.9 -38.047,311.938 0.919,350.9 			"/>
			<polygon fill="#A0EFB9" points="40.017,389.997 1.041,351.022 40.002,312.05 78.986,351.027 			"/>
			
				<rect x="51.433" y="362.438" transform="matrix(-0.7071 -0.7071 0.7071 -0.7071 -140.9263 721.6129)" fill="#78EA80" width="55.109" height="55.11"/>
			
				<rect x="-26.509" y="362.442" transform="matrix(-0.7071 -0.7071 0.7071 -0.7071 -273.9748 666.5101)" fill="#C9F4D3" width="55.121" height="55.109"/>
			<polygon fill="#A0EFB9" points="40.017,467.941 1.045,428.966 40.017,389.997 78.986,428.966 			"/>
			<polygon fill="#A0EFB9" points="118.075,468.058 79.106,429.078 118.075,390.111 157.05,429.087 			"/>
			<polygon fill="#78EA80" points="157.05,507.027 118.075,468.058 157.05,429.087 196.014,468.058 			"/>
			<polygon fill="#C9F4D3" points="79.106,507.027 40.134,468.055 79.106,429.078 118.075,468.058 			"/>
			<polygon fill="#A0EFB9" points="118.075,545.994 79.106,507.027 118.075,468.058 157.05,507.027 			"/>
			<polygon fill="#A0EFB9" points="196.144,546.12 157.163,507.147 196.139,468.175 235.108,507.148 			"/>
			<polygon fill="#78EA80" points="235.108,585.092 196.144,546.12 235.108,507.148 274.078,546.12 			"/>
			<polygon fill="#C9F4D3" points="157.172,585.092 118.191,546.116 157.163,507.147 196.144,546.12 			"/>
			<polygon fill="#A0EFB9" points="196.144,624.059 157.172,585.092 196.144,546.12 235.108,585.092 			"/>
			<polygon fill="#A0EFB9" points="274.205,624.183 235.223,585.209 274.195,546.238 313.169,585.216 			"/>
			<polygon fill="#78EA80" points="313.169,663.153 274.205,624.183 313.169,585.216 352.141,624.183 			"/>
			
				<rect x="207.647" y="596.611" transform="matrix(-0.7071 -0.7071 0.7071 -0.7071 -39.8245 1231.8329)" fill="#C9F4D3" width="55.122" height="55.107"/>
			<polygon fill="#A0EFB9" points="274.205,702.122 235.236,663.153 274.205,624.183 313.169,663.153 			"/>
			<polygon fill="#A0EFB9" points="352.261,702.245 313.289,663.269 352.256,624.297 391.234,663.275 			"/>
			
				<rect x="363.67" y="674.735" transform="matrix(-0.7072 -0.7071 0.7071 -0.7072 171.3262 1475.546)" fill="#78EA80" width="55.116" height="55.118"/>
			<polygon fill="#C9F4D3" points="313.294,741.214 274.322,702.238 313.289,663.269 352.261,702.245 			"/>
			<polygon fill="#A0EFB9" points="352.261,780.184 313.294,741.214 352.261,702.245 391.234,741.214 			"/>
			
				<rect x="402.749" y="713.767" transform="matrix(-0.7071 -0.7071 0.7071 -0.7071 210.3889 1569.7897)" fill="#A0EFB9" width="55.119" height="55.109"/>
			<polygon fill="#78EA80" points="469.294,819.275 430.327,780.306 469.294,741.338 508.267,780.306 			"/>
			<polygon fill="#C9F4D3" points="391.359,819.275 352.377,780.3 391.35,741.331 430.327,780.306 			"/>
			<polygon fill="#A0EFB9" points="430.327,858.247 391.359,819.275 430.327,780.306 469.294,819.275 			"/>
			
				<rect x="480.816" y="791.899" transform="matrix(-0.7071 -0.7072 0.7072 -0.7071 288.3454 1758.3578)" fill="#A0EFB9" width="55.122" height="55.111"/>
			
				<rect x="519.802" y="830.805" transform="matrix(-0.7071 -0.7071 0.7071 -0.7071 327.445 1852.3523)" fill="#78EA80" width="55.111" height="55.11"/>
			<polygon fill="#C9F4D3" points="469.417,897.339 430.439,858.359 469.413,819.391 508.384,858.369 			"/>
			
				<rect x="480.852" y="869.779" transform="matrix(-0.7071 -0.7071 0.7071 -0.7071 233.3923 1891.3414)" fill="#A0EFB9" width="55.108" height="55.109"/>
		</g>
	</g>
</g>
</svg>
