<svg xmlns="http://www.w3.org/2000/svg" width="224" height="297" viewBox="0 0 224 297" version="1.1">
	<path d="M 113.210 7.247 C 112.380 8.247, 112.463 9.665, 113.532 12.769 C 114.592 15.844, 114.703 17.678, 113.956 19.723 C 113.398 21.250, 112.729 23.100, 112.470 23.834 C 112.132 24.788, 110.842 24.251, 107.927 21.942 C 104.135 18.939, 103.741 18.831, 102.197 20.375 C 100.794 21.777, 100.739 22.353, 101.839 24.114 C 103.685 27.069, 102.625 27.524, 98.478 25.557 C 95.651 24.215, 94.576 24.107, 93.442 25.048 C 91.459 26.693, 91.627 27.700, 94.250 29.904 C 95.487 30.944, 97.850 32.996, 99.500 34.465 L 102.500 37.134 98.764 36.524 C 96.642 36.178, 94.103 36.410, 92.887 37.061 C 91.216 37.955, 90.564 37.913, 89.921 36.872 C 88.774 35.017, 83.436 39.091, 83.673 41.641 C 83.826 43.277, 83.626 43.230, 82.011 41.248 C 80.884 39.865, 79.563 39.231, 78.588 39.605 C 77.214 40.132, 77 39.064, 77 31.666 C 77 23.204, 76.017 20.583, 73.709 22.891 C 73.095 23.505, 72.347 28.009, 72.046 32.900 C 71.647 39.394, 71.028 42.314, 69.750 43.725 C 66.906 46.866, 67.675 48.818, 73.060 52.132 C 76.453 54.220, 77.935 55.726, 77.560 56.704 C 77.252 57.507, 77 58.352, 77 58.582 C 77 58.812, 75.687 59, 74.082 59 C 69.029 59, 67.893 59.888, 68.498 63.366 C 69.295 67.955, 68.098 69.241, 64.346 67.824 C 58.905 65.771, 54.639 69.670, 58.716 72.971 C 60.733 74.605, 60.705 74.656, 56.905 76.302 C 52.759 78.098, 50.543 82.482, 53.010 84.006 C 53.715 84.442, 54.031 85.476, 53.713 86.305 C 53.395 87.134, 54.004 88.599, 55.067 89.561 C 57.782 92.018, 57.489 92.826, 53.750 93.187 C 51.038 93.448, 50.447 93.957, 50.182 96.262 C 49.908 98.653, 50.409 99.259, 53.906 100.762 C 58.364 102.679, 58.314 102.945, 52.576 107.874 C 48.881 111.048, 48.575 111.139, 47.326 109.431 C 46.597 108.434, 46 106.129, 46 104.309 C 46 102.489, 45.712 101, 45.360 101 C 44.260 101, 42.065 104.420, 42.032 106.187 C 42.006 107.552, 41.334 107.766, 38.518 107.309 C 35.974 106.896, 34.882 107.145, 34.465 108.231 C 34.151 109.050, 35.043 114.251, 36.447 119.791 C 37.851 125.330, 39.014 130.906, 39.032 132.181 C 39.049 133.457, 39.715 135.360, 40.510 136.412 C 41.314 137.474, 41.707 139.319, 41.394 140.565 C 41.015 142.077, 41.397 143.123, 42.570 143.779 C 43.722 144.424, 44.076 145.359, 43.620 146.549 C 42.984 148.204, 42.807 148.170, 41.369 146.117 C 40.208 144.458, 39 143.966, 36.654 144.194 C 33.870 144.464, 33.534 144.823, 33.788 147.250 C 34.100 150.234, 32.926 150.784, 30.794 148.651 C 28.955 146.812, 22.252 144.689, 20.459 145.377 C 17.994 146.323, 18.830 149.443, 22.502 153.002 C 26.173 156.560, 25.976 158.173, 21.846 158.383 C 20.495 158.452, 19.060 159.499, 18.343 160.939 C 17.674 162.280, 15.925 164.007, 14.456 164.777 C 12.251 165.932, 11.883 166.667, 12.348 168.988 C 12.657 170.535, 14.055 173.036, 15.455 174.546 C 19.206 178.593, 18.769 179.913, 13.750 179.689 L 9.500 179.500 9.408 183.759 C 9.357 186.102, 9.023 188.310, 8.666 188.667 C 7.107 190.226, 10.374 192.021, 13.651 191.406 C 16.454 190.880, 16.922 191.039, 16.421 192.345 C 15.646 194.365, 17.814 201, 19.249 201 C 19.850 201, 21.165 200.255, 22.171 199.345 C 23.183 198.429, 24 198.186, 24 198.800 C 24 200.466, 19.476 204.659, 18.153 204.218 C 17.519 204.006, 17 204.249, 17 204.756 C 17 205.264, 15.875 206.192, 14.500 206.818 C 10.271 208.745, 11.191 212.215, 16.750 215.298 L 21.500 217.933 15.312 217.561 C 8.082 217.126, 5.725 218.323, 7.060 221.750 C 7.608 223.158, 8.790 224.008, 10.218 224.022 C 11.473 224.034, 13.625 224.924, 15 226 C 16.375 227.076, 18.738 227.966, 20.250 227.978 C 21.908 227.991, 23 228.547, 23 229.378 C 23 230.135, 23.704 231.340, 24.565 232.054 C 25.875 233.141, 27.021 232.916, 31.587 230.676 C 37.962 227.550, 38 227.543, 38 229.500 C 38 230.325, 38.675 231, 39.500 231 C 41.332 231, 41.340 230.647, 39.385 236.385 C 38.122 240.091, 37.413 240.978, 36.135 240.449 C 31.983 238.732, 30.649 238.759, 29.312 240.588 C 28.063 242.296, 28.245 242.751, 31.112 245.092 C 34.772 248.078, 33.734 249.612, 29.530 247.431 C 27.975 246.624, 26.482 246.185, 26.211 246.455 C 25.941 246.725, 24.996 245.497, 24.110 243.726 C 22.098 239.702, 19.328 239.006, 18.107 242.218 C 16.821 245.602, 14.157 247.495, 11.125 247.179 C 7.851 246.839, 4.690 249.028, 5.480 251.088 C 5.804 251.932, 7.636 253.190, 9.550 253.882 C 11.465 254.574, 12.778 255.550, 12.469 256.050 C 11.664 257.353, 13.824 261, 15.400 261 C 16.132 261, 17.929 260.057, 19.395 258.904 C 22.121 256.760, 25.036 256.925, 24.955 259.219 C 24.930 259.923, 22.293 262.133, 19.095 264.129 C 14.976 266.698, 13.134 268.520, 12.780 270.372 C 12.006 274.420, 14.174 275.548, 19.009 273.613 C 24.465 271.430, 24.818 271.516, 25.781 275.250 C 26.833 279.334, 30.105 280.116, 32.403 276.834 C 33.550 275.197, 34 274.996, 34 276.123 C 34 276.985, 34.849 278.458, 35.886 279.397 C 37.688 281.028, 37.872 280.943, 40.001 277.498 C 41.941 274.359, 42.597 273.972, 45.056 274.512 C 48.311 275.227, 52 273.608, 52 271.465 C 52 270.659, 52.685 270, 53.523 270 C 54.882 270, 54.881 270.253, 53.506 272.350 C 52.660 273.642, 51.754 276.798, 51.495 279.362 C 50.894 285.298, 53.182 288, 58.809 288 C 60.904 288, 63.491 288.661, 64.559 289.468 C 67.097 291.388, 69.483 291.375, 71.427 289.431 C 72.611 288.246, 72.743 287.388, 71.963 285.931 C 71.395 284.869, 71.240 284, 71.620 284 C 71.999 284, 71.525 283.132, 70.565 282.072 C 69.388 280.771, 69.050 279.417, 69.527 277.914 C 70.206 275.775, 70.368 275.842, 73.495 279.567 C 76.333 282.947, 76.964 283.275, 78.377 282.102 C 79.270 281.361, 80 280.135, 80 279.378 C 80 276.894, 81.948 277.936, 82.564 280.750 C 82.896 282.262, 83.315 283.997, 83.497 284.605 C 83.885 285.908, 89.583 286.974, 96.250 286.989 C 100.846 287, 101 287.096, 101 289.965 C 101 293.709, 103.285 295, 109.911 295 C 114.160 295, 115.207 294.614, 116.561 292.548 C 117.444 291.199, 118.064 288.612, 117.938 286.798 C 117.434 279.534, 118.518 278.341, 122.436 281.848 C 125.531 284.618, 132.092 286.815, 135.661 286.276 C 138.224 285.889, 139.134 286.275, 140.470 288.313 C 142.448 291.333, 148.183 294.251, 150.439 293.385 C 152.245 292.692, 151.742 289.618, 149.382 286.921 C 147.506 284.778, 147.593 279.093, 149.513 278.357 C 151.434 277.619, 154.043 279.725, 153.372 281.472 C 153.093 282.201, 153.352 283.099, 153.948 283.468 C 154.545 283.837, 154.772 284.560, 154.453 285.076 C 153.666 286.349, 157.795 292, 159.511 292 C 161.150 292, 164.138 288.032, 163.399 286.837 C 162.620 285.576, 164.432 285.832, 165.773 287.173 C 166.662 288.062, 167.557 288.067, 169.470 287.196 C 171.652 286.201, 171.930 285.552, 171.526 282.392 C 171.268 280.382, 170.370 277.687, 169.529 276.404 C 168.688 275.120, 168 273.341, 168 272.449 C 168 271.186, 168.929 271.510, 172.197 273.913 C 176.808 277.305, 180.412 277.800, 183.702 275.496 C 185.351 274.341, 186.478 274.231, 188.557 275.022 C 190.046 275.588, 192.105 275.784, 193.132 275.458 C 195.250 274.786, 195.649 271.049, 193.800 269.200 C 191.865 267.265, 194.273 267.867, 197 270 C 200.411 272.668, 202.862 272.493, 204 269.500 C 204.959 266.977, 206.432 266.272, 207.417 267.866 C 208.425 269.496, 212.764 267.814, 213.882 265.359 C 215.481 261.849, 215.261 256.462, 213.458 254.965 C 212.388 254.077, 212.234 253.366, 212.958 252.642 C 214.512 251.088, 214.217 248.020, 212.448 247.342 C 211.325 246.911, 211.069 245.964, 211.519 243.911 C 211.862 242.352, 211.724 240.330, 211.214 239.417 C 210.427 238.012, 209.346 238.715, 204.143 244.016 L 198 250.274 198 247.187 C 198 245.318, 197.327 243.723, 196.296 243.146 C 194.847 242.335, 194.772 241.796, 195.796 239.549 C 196.458 238.095, 197 235.802, 197 234.453 C 197 232.697, 197.548 232, 198.929 232 C 201.385 232, 204.274 229.155, 203.600 227.400 C 203.317 226.662, 203.773 225.370, 204.614 224.529 C 206.305 222.838, 211 222.435, 211 223.981 C 211 225.956, 216.011 226.300, 218.040 224.464 C 220.150 222.554, 220.705 219, 218.893 219 C 218.284 219, 218.009 218.419, 218.282 217.708 C 219.045 215.718, 216.908 213.474, 212.186 211.309 C 207.676 209.242, 207.816 208.068, 212.750 206.555 C 215.425 205.735, 215.800 201.943, 213.440 199.583 C 212.040 198.183, 211.510 198.178, 208.267 199.533 C 206.279 200.363, 204.056 201.538, 203.327 202.144 C 202.262 203.028, 202 202.448, 202 199.204 C 202 196.982, 201.699 194.379, 201.331 193.421 C 200.767 191.949, 201.039 191.801, 203.081 192.468 C 204.412 192.902, 207.075 193.312, 209 193.379 C 212.069 193.485, 212.537 193.178, 212.804 190.880 C 213.064 188.641, 212.515 188.023, 209.034 186.630 C 206.793 185.734, 204.219 185, 203.313 185 C 202.408 185, 201.975 184.692, 202.352 184.315 C 203.436 183.231, 210.286 181.032, 212.629 181.015 C 214.874 180.999, 217.739 176.005, 216.580 174.129 C 216.243 173.584, 216.425 172.856, 216.984 172.510 C 218.415 171.626, 218.250 168.256, 216.750 167.722 C 216.063 167.478, 213.830 168.115, 211.790 169.139 C 209.749 170.162, 207.612 171, 207.040 171 C 206.389 171, 205.994 167.169, 205.985 160.750 C 205.968 149.764, 205.157 146.795, 202.725 148.813 C 201.620 149.730, 200.424 149.696, 197.436 148.661 L 193.575 147.325 196.287 145.547 C 199.271 143.592, 199.800 140.405, 197.750 136.736 C 195.267 132.294, 193.988 131.280, 191.475 131.760 C 189.248 132.186, 189 131.904, 189 128.945 C 189 127.137, 189.655 124.934, 190.455 124.050 C 191.709 122.664, 191.727 121.302, 190.588 114.188 C 189.861 109.648, 188.942 105.611, 188.546 105.217 C 188.150 104.822, 186.403 104.500, 184.663 104.500 C 181.655 104.500, 181.499 104.308, 181.471 100.576 C 181.447 97.282, 181.900 96.400, 184.296 95.076 C 190.518 91.639, 190.767 91.224, 188.011 88.895 C 185.994 87.191, 184.548 86.873, 180.391 87.217 C 175.301 87.640, 175.262 87.621, 175.480 84.855 C 175.601 83.322, 176.272 81.378, 176.971 80.535 C 177.991 79.306, 177.997 78.407, 177 76.001 C 175.536 72.465, 174.918 72.328, 172.500 75 C 170.490 77.221, 166.122 77.696, 165.605 75.750 C 163.572 68.099, 161.644 66.439, 159.506 70.500 C 156.150 76.875, 155.971 77.055, 154.018 76.009 C 152.338 75.111, 152.026 75.466, 151.310 79.087 C 150.864 81.338, 150.050 83.137, 149.500 83.084 C 148.058 82.945, 148.267 76.025, 149.750 74.793 C 150.438 74.222, 151 72.785, 151 71.600 C 151 69.452, 153.763 66.401, 157.429 64.500 C 160.271 63.027, 162.233 57.699, 160.702 55.615 C 159.676 54.219, 159.029 54.157, 156.288 55.194 C 154.522 55.863, 152.779 56.113, 152.417 55.750 C 152.054 55.387, 152.946 53.061, 154.399 50.582 L 157.041 46.073 154.656 44.510 C 152.436 43.056, 152.305 42.475, 152.758 36.137 C 153.314 28.373, 151.878 24.026, 149.430 26.058 C 148.644 26.711, 148 28.484, 148 29.997 C 148 31.511, 147.717 34.163, 147.372 35.891 C 146.886 38.319, 146.449 38.788, 145.448 37.957 C 144.012 36.765, 137.335 37.649, 136.405 39.154 C 136.090 39.664, 135.007 39.820, 134 39.500 C 132.993 39.180, 131.879 39.387, 131.525 39.959 C 130.561 41.519, 127.295 41.212, 126.638 39.500 C 126.266 38.530, 126.670 37.990, 127.781 37.971 C 128.727 37.955, 131.004 36.574, 132.843 34.902 C 135.962 32.066, 136.104 31.666, 134.971 28.931 C 133.593 25.603, 133.252 25.495, 130.559 27.532 C 127.639 29.741, 126.305 29.296, 128.821 26.952 C 130.577 25.316, 130.809 24.512, 129.974 22.952 C 128.728 20.623, 127.072 20.478, 124.441 22.468 C 121.240 24.889, 120.869 24.284, 121.548 17.750 C 122.789 5.801, 122.988 6.536, 118.414 6.200 C 115.883 6.015, 113.902 6.414, 113.210 7.247 M 104.242 52.250 C 104.621 53.412, 111.094 56.166, 111.831 55.479 C 112.013 55.310, 111.660 54.233, 111.046 53.086 C 109.794 50.747, 103.498 49.974, 104.242 52.250 M 77 65.855 C 77 66.413, 77.450 68.054, 78 69.501 C 78.798 71.599, 79.557 72.069, 81.742 71.816 C 84.501 71.498, 86.063 68.605, 84.344 66.999 C 82.918 65.667, 77 64.745, 77 65.855 M 150 101 C 150 101.550, 150.900 102, 152 102 C 153.100 102, 154 101.550, 154 101 C 154 100.450, 153.100 100, 152 100 C 150.900 100, 150 100.450, 150 101 M 57.543 112.405 C 54.004 114.548, 53.576 115.234, 53.496 118.900 C 53.447 121.155, 53.652 122.998, 53.953 122.995 C 54.254 122.993, 56.188 121.441, 58.250 119.546 C 61.011 117.010, 62 115.298, 62 113.051 C 62 111.373, 61.888 110.002, 61.750 110.005 C 61.612 110.008, 59.719 111.088, 57.543 112.405 M 171.250 142.662 C 169.671 143.299, 169.588 147.304, 171.164 146.779 C 171.805 146.565, 172.985 145.403, 173.786 144.195 C 175.295 141.922, 174.410 141.387, 171.250 142.662 M 47 150.500 C 46.123 151.557, 46.018 152.418, 46.685 153.085 C 47.351 153.751, 48.123 153.557, 49 152.500 C 49.877 151.443, 49.982 150.582, 49.315 149.915 C 48.649 149.249, 47.877 149.443, 47 150.500 M 40.327 186.871 C 38.893 188.692, 38.447 190.105, 39.016 191.026 C 40.244 193.012, 44 189.485, 44 186.345 C 44 183.314, 43.017 183.454, 40.327 186.871 M 61.459 235.250 C 62.833 238.526, 66 240.302, 66 237.796 C 66 235.759, 63.076 232, 61.492 232 C 60.305 232, 60.300 232.485, 61.459 235.250 M 137.012 259.978 C 135.497 262.808, 136.559 263.870, 138.731 261.698 C 139.968 260.460, 140.119 259.719, 139.300 258.900 C 138.480 258.080, 137.874 258.366, 137.012 259.978" fill="none" stroke="#000" stroke-width="2px" fill-rule="evenodd"/>
</svg>
