<svg xmlns="http://www.w3.org/2000/svg" width="263" height="279" viewBox="0 0 263 279" version="1.1">
	<path d="M 62 4.441 C 62 4.759, 63.748 9.177, 65.885 14.259 C 69.855 23.701, 71.497 29, 70.452 29 C 70.130 29, 68.392 27.875, 66.589 26.500 C 64.786 25.125, 62.624 24, 61.783 24 C 60.242 24, 36.430 41.572, 33.994 44.507 C 32.871 45.861, 33.213 46.633, 36.361 49.858 C 38.385 51.930, 39.732 53.935, 39.354 54.313 C 38.976 54.691, 36.978 55, 34.915 55 C 29.663 55, 28 55.852, 28 58.542 C 28 59.822, 27.511 62.137, 26.914 63.685 C 25.917 66.267, 23.061 81.922, 21.540 93.135 C 20.816 98.476, 22.468 101, 26.688 101 C 29.856 101, 29.643 102.246, 24.500 113.818 C 22.467 118.393, 21.097 122.430, 21.456 122.789 C 21.815 123.148, 22.564 122.780, 23.120 121.971 C 24.378 120.141, 25.350 116.298, 12.922 162.297 L 2.711 200.093 13.054 235.685 L 23.397 271.276 28.448 273.628 L 33.500 275.980 134.800 275.990 C 243.991 276.001, 238.648 276.253, 243.683 270.845 C 246.896 267.395, 247.457 265.379, 251.949 241.153 C 254.205 228.989, 257.125 214.281, 258.439 208.470 L 260.827 197.904 237.967 115.271 C 214.459 30.297, 214.894 31.604, 209.500 29.850 C 208.400 29.492, 184.581 29.155, 156.570 29.100 L 105.639 29 99.290 24.863 C 95.798 22.588, 92.807 20.900, 92.644 21.113 C 92.481 21.326, 91.332 23.188, 90.092 25.250 C 88.852 27.312, 87.258 29, 86.551 29 C 85.844 29, 84.005 27.087, 82.463 24.750 C 77.864 17.777, 62 2.032, 62 4.441" fill="none" stroke="#000" stroke-width="2px" fill-rule="evenodd"/>
</svg>
