<svg xmlns="http://www.w3.org/2000/svg" width="262" height="284" viewBox="0 0 262 284" version="1.1">
	<path d="M 102.800 6.420 C 92.443 10.153, 73.996 23.525, 67.647 31.903 C 63.276 37.672, 60.021 46.956, 59.956 53.839 C 59.932 56.403, 59.539 60.433, 59.083 62.795 C 58.219 67.264, 60.052 76.328, 63.415 84.218 C 65.590 89.319, 65.406 91.716, 62.643 94.298 C 61.347 95.509, 59.544 97.946, 58.637 99.713 C 57.019 102.864, 56.024 103.346, 46.985 105.360 C 45.602 105.668, 42.083 108.076, 39.166 110.710 C 33.515 115.813, 32.071 119.268, 32.024 127.803 C 31.993 133.339, 34.737 145.499, 37.032 150 C 39.230 154.310, 43.669 158.537, 47 159.492 C 51.423 160.759, 53.809 162.856, 54.522 166.100 C 54.905 167.842, 56.059 171.120, 57.087 173.384 C 58.115 175.648, 58.966 179.549, 58.978 182.054 C 58.997 185.973, 59.505 187.088, 62.622 190.054 C 66.834 194.061, 69.947 200.198, 69.978 204.556 C 69.990 206.276, 71.141 209.117, 72.611 211.056 C 76.546 216.245, 80 224.585, 80 228.894 C 80 231.101, 80.786 233.743, 81.851 235.115 C 84.387 238.383, 84.888 240.192, 83.830 242.250 C 82.703 244.441, 80.140 244.487, 77.117 242.369 C 75.379 241.152, 71.577 240.608, 62.144 240.226 C 34.504 239.108, 35.765 238.974, 22.711 244.402 C 9.395 249.939, 6.881 252.163, 4.439 260.563 C 2.249 268.094, 2.763 269.872, 8.346 274.084 C 16.569 280.290, 17.406 280.390, 59 280.184 C 106.805 279.948, 176.357 278.235, 190.120 276.955 C 198.934 276.136, 201.909 276.244, 207.620 277.591 C 218.629 280.187, 229.986 279.092, 243.405 274.141 C 249.402 271.928, 254.679 269.529, 255.132 268.809 C 256.989 265.854, 253.086 259.128, 243.637 249 C 235.785 240.584, 233.346 239.045, 223.874 236.530 C 218.630 235.137, 214.980 234.891, 206.374 235.351 C 191.332 236.155, 190.379 236.357, 182.741 240.377 C 174.937 244.484, 164.430 247.362, 151.209 249.015 C 140.123 250.401, 139 249.880, 139 243.353 C 139 239.547, 139.348 238.818, 141.565 237.975 C 146.263 236.189, 148.623 236.817, 151.528 240.625 L 154.293 244.250 160.733 243.733 C 166.517 243.269, 167.464 242.874, 170.020 239.858 C 171.585 238.011, 173.398 235.375, 174.049 234 C 174.701 232.625, 175.711 230.600, 176.295 229.500 C 176.879 228.400, 177.714 225.250, 178.149 222.500 C 179.096 216.525, 181.685 214, 186.867 214 C 188.873 214, 192.085 213.544, 194.007 212.987 C 195.928 212.430, 201.775 211.510, 207 210.943 C 224.491 209.046, 235.133 204.657, 243.641 195.832 C 247.951 191.362, 249.540 188.564, 253.475 178.520 C 257.597 167.997, 258.268 165.199, 258.996 155.520 C 259.451 149.459, 259.600 143.150, 259.326 141.500 C 258.022 133.638, 254.257 125.060, 247.781 115.193 C 237.735 99.886, 234.705 96.492, 227.482 92.453 C 223.951 90.478, 219.875 87.452, 218.424 85.728 C 215.665 82.449, 215.588 80.893, 217.590 68.836 C 218.139 65.529, 217.779 64.716, 213.901 60.509 C 211.538 57.944, 208.374 55.210, 206.870 54.433 C 201.409 51.609, 190 55.318, 190 59.918 C 190 62.053, 186.513 65.435, 185.168 64.604 C 184.568 64.233, 184.551 62.493, 185.124 59.943 C 185.864 56.651, 185.653 55.004, 184.019 51.310 C 182.909 48.800, 182 45.890, 182 44.844 C 182 41.528, 175.870 30.625, 172.116 27.262 C 166.628 22.346, 152.238 12.986, 145.500 9.947 C 137.754 6.455, 130.767 5.006, 119 4.453 C 110.771 4.066, 108.604 4.329, 102.800 6.420 M 183.425 69.443 C 183.088 70.787, 183.120 72.386, 183.497 72.996 C 184.726 74.983, 186.443 73.426, 186.606 70.176 C 186.799 66.336, 184.347 65.771, 183.425 69.443" fill="none" stroke="#000" stroke-width="2px" fill-rule="evenodd"/>
</svg>
