<svg xmlns="http://www.w3.org/2000/svg" width="276" height="292" viewBox="0 0 276 292" version="1.1">
	<path d="M 144.689 5.803 L 141.900 8.714 143.926 14.048 C 145.041 16.981, 145.807 19.526, 145.629 19.704 C 145.451 19.882, 144.143 19.114, 142.723 17.996 C 141.136 16.749, 139.896 16.358, 139.509 16.985 C 139.085 17.671, 138.265 17.677, 137.005 17.003 C 134.476 15.649, 134.227 15.706, 133.048 17.911 C 132.169 19.553, 132.937 20.562, 138.512 25.086 C 145.380 30.657, 145.446 30.748, 144.119 32.842 C 143.407 33.965, 142.909 33.965, 141.073 32.842 C 139.150 31.666, 138.703 31.737, 137.460 33.412 C 136.172 35.150, 136.383 35.626, 139.771 38.621 C 145.983 44.111, 142.630 42.397, 134.461 35.905 C 128.961 31.535, 126.484 30.116, 125.709 30.891 C 124.933 31.667, 124.160 31.550, 122.976 30.478 C 121.501 29.143, 121.130 29.199, 119.502 30.998 C 118.499 32.106, 117.864 33.161, 118.089 33.342 C 118.315 33.524, 123.787 37.829, 130.250 42.910 C 140.910 51.292, 143.574 54, 141.155 54 C 140.690 54, 139.486 53.089, 138.479 51.976 C 137.287 50.659, 136.306 50.294, 135.670 50.930 C 135.035 51.565, 134.026 51.549, 132.783 50.884 C 130.521 49.673, 127.606 51.530, 128.423 53.660 C 128.709 54.405, 128.285 55, 127.469 55 C 126.562 55, 125.955 56.052, 125.882 57.750 L 125.763 60.500 125.118 57.500 C 124.642 55.289, 123.895 54.492, 122.280 54.470 C 121.074 54.454, 118.736 53.441, 117.084 52.220 C 115.432 50.999, 113.372 50, 112.505 50 C 111.639 50, 109.840 49.286, 108.509 48.414 C 107.177 47.541, 105.627 47.112, 105.065 47.460 C 104.502 47.808, 103.179 47.631, 102.126 47.067 C 100.707 46.308, 99.906 46.409, 99.038 47.454 C 98.115 48.566, 98.306 49.306, 99.933 50.933 C 101.070 52.070, 102 53.867, 102 54.927 C 102 57.666, 108.604 62.757, 113.152 63.526 C 117.754 64.303, 118.127 65.594, 114.011 66.497 C 110.564 67.255, 109.812 68.078, 110.923 69.876 C 111.432 70.698, 114.326 71.217, 119.025 71.328 C 126.546 71.505, 129.622 73.304, 124.571 74.572 C 119.266 75.903, 122.173 77.704, 130.736 78.392 C 136.099 78.823, 138.021 80.422, 137.921 84.372 L 137.842 87.500 136.838 84.750 C 135.617 81.409, 131.449 80.688, 132.500 84 C 133.436 86.950, 132.115 86.434, 130.961 83.398 C 130.337 81.757, 129.447 80.998, 128.550 81.342 C 127.768 81.643, 125.930 80.946, 124.465 79.794 C 122.462 78.219, 121.613 78.008, 121.036 78.942 C 120.428 79.925, 119.828 79.910, 118.159 78.867 C 116.484 77.821, 115.795 77.805, 114.813 78.787 C 113.831 79.769, 115.009 81.486, 120.538 87.133 L 127.500 94.243 121.250 93.637 C 115.135 93.044, 115 93.083, 115 95.456 C 115 98.533, 113.418 99.570, 112.158 97.318 C 111.344 95.864, 110.944 95.802, 109.597 96.920 C 108.164 98.109, 108 97.610, 108 92.053 C 108 86.209, 107.874 85.879, 105.756 86.180 C 104.186 86.404, 103.321 87.400, 102.875 89.500 L 102.237 92.500 102.118 89.250 C 102.026 86.706, 101.565 86, 100 86 C 98.900 86, 98 86.659, 98 87.465 C 98 88.745, 95.171 91, 93.566 91 C 91.619 91, 93.681 86.878, 97.637 82.861 C 100.756 79.694, 102.070 77.624, 101.651 76.534 C 101.165 75.265, 100.606 75.141, 99.076 75.960 C 96.688 77.237, 95.502 75.812, 96.838 73.271 C 98.864 69.414, 99.242 63.019, 97.593 60.502 C 96.717 59.165, 96 56.930, 96 55.535 C 96 53.667, 95.474 53, 94 53 C 92.667 53, 92 53.667, 92 55 C 92 56.100, 91.522 57, 90.937 57 C 90.353 57, 90.015 55.999, 90.187 54.775 C 90.681 51.262, 87.236 51.179, 86.398 54.684 C 86.027 56.233, 85.266 58.081, 84.706 58.790 C 83.106 60.819, 81.950 70.039, 83.041 72.077 C 84.268 74.369, 82.722 75.457, 80.174 74.093 C 78.086 72.976, 75.842 74.425, 76.600 76.400 C 76.905 77.196, 75.769 77.435, 72.963 77.168 L 68.882 76.779 69.566 69.139 C 70.796 55.414, 71.154 56.579, 65.500 55.895 C 62.750 55.562, 60.388 55.374, 60.251 55.477 C 60.115 55.580, 59.711 59.114, 59.355 63.332 C 58.673 71.397, 58.609 71.472, 53.333 70.417 C 50.426 69.835, 50.417 69.810, 50.816 63.546 L 51.216 57.260 46.468 56.547 C 41.255 55.766, 40.092 56.560, 39.951 61 C 39.875 63.421, 39.823 63.401, 38.311 60.369 C 37.006 57.751, 36.009 57.136, 32.235 56.619 C 24.367 55.540, 23.249 55.807, 20.491 59.422 C 18.133 62.514, 17.983 63.221, 18.931 66.744 C 19.954 70.542, 20.140 70.673, 26.086 71.779 C 29.444 72.403, 32.854 73.464, 33.663 74.136 C 34.888 75.152, 34.160 75.720, 29.318 77.527 C 23.547 79.679, 22.196 81.248, 23.874 83.853 C 24.541 84.888, 25.227 84.949, 26.792 84.111 C 28.333 83.287, 28.945 83.323, 29.269 84.258 C 29.590 85.186, 31.316 84.931, 36.099 83.250 C 43.335 80.706, 44 80.601, 44 82 C 44 82.550, 43.127 83, 42.059 83 C 39.613 83, 38.690 84.448, 39.503 87.011 C 39.979 88.508, 40.714 88.859, 42.459 88.421 C 43.737 88.100, 45.083 88.326, 45.452 88.922 C 45.928 89.693, 46.696 89.698, 48.113 88.939 C 49.209 88.353, 50.845 88.016, 51.749 88.190 C 52.653 88.364, 48.917 90.271, 43.447 92.426 C 25.556 99.476, 26.898 98.683, 28.165 101.463 C 29.104 103.523, 29.604 103.747, 31.269 102.856 C 32.751 102.063, 33.459 102.124, 34.061 103.098 C 34.688 104.113, 37.492 103.369, 46.684 99.747 C 61.007 94.104, 60.425 94.280, 60.828 95.455 C 61.008 95.980, 58.758 97.296, 55.828 98.380 C 52.897 99.465, 50.405 100.405, 50.290 100.470 C 50.174 100.534, 50.350 101.624, 50.682 102.890 C 51.179 104.794, 51.767 105.097, 54.072 104.636 C 55.605 104.329, 57.010 104.530, 57.194 105.083 C 57.393 105.679, 60.037 105.186, 63.682 103.875 C 69.531 101.770, 69.961 101.744, 72.417 103.354 C 75.353 105.277, 75.882 107.377, 73.250 106.655 C 65.314 104.478, 60.571 105.493, 64.650 108.495 C 66.383 109.771, 66.390 109.900, 64.764 110.530 C 63.809 110.901, 60.434 110.745, 57.264 110.186 C 52.687 109.378, 51.209 109.449, 50.088 110.532 C 48.880 111.699, 49.060 112.070, 51.338 113.108 C 54.857 114.712, 54.716 116, 51.020 116 C 47.180 116, 39.928 118.803, 38 121.031 C 37.175 121.985, 35.460 123.299, 34.190 123.950 C 31.879 125.135, 31.513 128.725, 33.750 128.270 C 34.372 128.143, 38.141 128.449, 42.126 128.950 C 47.743 129.655, 49.969 129.550, 52.032 128.483 C 53.496 127.726, 55.654 127.358, 56.829 127.666 C 58.473 128.095, 59.193 127.623, 59.957 125.612 C 61.229 122.268, 61.928 122.280, 61.688 125.641 C 61.390 129.821, 63.699 129.510, 65.967 125.065 C 67.107 122.829, 68.692 121, 69.488 121 C 70.285 121, 71.607 119.762, 72.428 118.250 L 73.920 115.500 73.960 118.769 C 73.997 121.820, 74.184 121.995, 76.750 121.390 C 80.939 120.403, 78.324 122.431, 72.717 124.517 C 67.335 126.520, 66.724 127.117, 67.632 129.484 C 68.074 130.634, 68.976 130.972, 70.553 130.576 C 71.808 130.261, 72.984 130.443, 73.167 130.981 C 73.370 131.578, 75.415 131.382, 78.409 130.480 C 85.268 128.412, 85.576 128.556, 82.619 132.433 C 79.515 136.502, 79.500 136.590, 81.750 137.472 C 86.848 139.472, 91.564 139.024, 98.066 135.923 L 104.632 132.792 109.816 135.982 C 114.450 138.833, 115 139.539, 115 142.637 C 115 145.662, 114.549 146.291, 111.447 147.587 C 103.855 150.759, 102.592 150.592, 96.477 145.611 C 91.052 141.191, 88.479 140.314, 82.562 140.863 C 79.643 141.134, 79.491 141.709, 81.321 145.546 C 82.244 147.483, 83 149.311, 83 149.607 C 83 149.904, 80.566 148.754, 77.591 147.052 C 74.117 145.065, 72.043 144.371, 71.795 145.115 C 71.515 145.954, 70.795 145.891, 69.174 144.886 C 67.247 143.691, 66.808 143.706, 65.985 145 C 64.601 147.175, 64.581 147.146, 70.279 151.366 C 74.528 154.512, 74.988 155.113, 72.750 154.597 C 70.310 154.033, 70 154.246, 70 156.481 C 70 157.866, 69.550 159, 69 159 C 68.450 159, 68 158.170, 68 157.155 C 68 156.140, 67.145 154.536, 66.099 153.590 C 65.053 152.643, 63.908 150.324, 63.554 148.435 C 63.081 145.913, 62.390 145, 60.955 145 C 59.518 145, 58.969 145.728, 58.882 147.750 L 58.763 150.500 58.125 147.500 C 57.654 145.282, 56.837 144.411, 54.994 144.159 C 53.622 143.971, 51.756 143.153, 50.846 142.341 C 48.908 140.611, 38.289 137.952, 36.325 138.705 C 35.582 138.991, 34.358 138.712, 33.604 138.086 C 32.549 137.211, 32.091 137.321, 31.614 138.563 C 30.443 141.614, 39.353 151.324, 44.966 153.115 C 50.028 154.729, 50.643 155.700, 47.099 156.478 C 44.037 157.151, 42.989 159.257, 45.075 160.546 C 45.666 160.912, 48.822 161.236, 52.087 161.267 C 55.874 161.303, 58.440 161.826, 59.176 162.712 C 60.091 163.815, 59.874 164.220, 58.124 164.678 C 54.369 165.660, 56.382 167.418, 62.578 168.569 L 68.500 169.669 65.043 171.231 C 61.619 172.779, 61.532 172.756, 55.871 168.912 C 52.062 166.326, 50.005 165.443, 49.703 166.266 C 49.345 167.241, 48.972 167.238, 47.925 166.250 C 46.064 164.494, 44.673 164.692, 43.288 166.911 C 42.226 168.611, 42.708 169.244, 47.675 172.661 C 51.407 175.228, 52.711 176.608, 51.612 176.826 C 50.708 177.006, 45.234 173.702, 39.446 169.484 C 32.648 164.530, 28.361 162.031, 27.335 162.425 C 26.461 162.760, 25.080 162.481, 24.265 161.805 C 23.063 160.807, 22.521 160.934, 21.392 162.479 C 20.626 163.526, 20.019 164.634, 20.043 164.941 C 20.066 165.249, 24.791 168.843, 30.543 172.930 C 36.294 177.016, 41 180.759, 41 181.248 C 41 181.736, 39.682 181.197, 38.070 180.050 C 36.262 178.762, 34.899 178.354, 34.510 178.985 C 34.086 179.669, 33.184 179.633, 31.768 178.876 C 30.035 177.948, 29.413 178.082, 28.282 179.623 C 27.056 181.294, 27.211 181.746, 29.702 183.745 C 34.141 187.307, 30.512 186.361, 24.549 182.401 C 21.568 180.422, 18.630 179.111, 18.021 179.487 C 17.411 179.864, 16.208 179.588, 15.348 178.874 C 14.038 177.787, 13.557 177.885, 12.392 179.479 C 11.626 180.526, 11.001 181.634, 11.002 181.941 C 11.003 182.249, 13.241 184.025, 15.975 185.888 C 18.710 187.752, 20.707 189.665, 20.414 190.138 C 20.122 190.612, 16.617 191, 12.626 191 L 5.370 191 3.652 194.603 C 2.021 198.023, 2.025 198.392, 3.717 201.853 C 5.350 205.193, 6.029 205.605, 11.772 206.741 L 18.044 207.982 20.961 204.741 L 23.878 201.500 22.994 205.472 C 22.508 207.656, 22.222 209.556, 22.359 209.692 C 22.496 209.829, 24.901 210.220, 27.704 210.562 C 33.390 211.254, 32.603 212.235, 34.579 202 C 35.086 199.377, 35.581 199, 38.520 199 C 40.369 199, 42.146 199.427, 42.468 199.949 C 42.791 200.471, 42.575 203.903, 41.988 207.576 C 41.401 211.249, 41.159 214.493, 41.451 214.784 C 42.346 215.679, 51.044 216.737, 51.496 216.006 C 51.730 215.628, 52.470 211.197, 53.141 206.159 C 54.341 197.141, 54.402 197, 57.098 197 C 60.995 197, 62.957 197.948, 62.348 199.535 C 61.486 201.783, 62.946 203.290, 64.631 201.891 C 66.585 200.270, 68.846 202.270, 67.251 204.208 C 64.224 207.885, 65.022 224.188, 68.261 224.812 C 69.448 225.040, 70 224.508, 70 223.132 C 70 219.979, 71.827 219.645, 72.182 222.733 C 72.552 225.952, 75.287 226.527, 75.834 223.500 C 76.032 222.400, 77.250 220.375, 78.540 219 C 80.947 216.436, 82.029 209.369, 80.555 205.851 C 79.531 203.410, 81.836 202.542, 84.042 204.538 C 85.796 206.126, 86.011 206.134, 86.585 204.639 C 86.959 203.663, 85.961 201.055, 84.106 198.165 C 81.351 193.872, 80.001 189, 81.566 189 C 83.687 189, 85.757 191.214, 85.293 192.987 C 84.800 194.872, 85.129 195.145, 88.205 195.400 C 88.868 195.455, 89.723 194.375, 90.105 193 L 90.801 190.500 90.900 193.250 C 90.974 195.277, 91.513 196, 92.953 196 C 94.358 196, 95.198 194.948, 95.947 192.250 C 96.520 190.188, 96.991 187.713, 96.994 186.750 C 96.997 185.787, 97.450 185, 98 185 C 98.550 185, 99 185.675, 99 186.500 C 99 188.324, 100.170 188.430, 101.842 186.758 C 102.830 185.770, 103.260 185.802, 103.949 186.918 C 104.425 187.688, 104.594 188.894, 104.324 189.598 C 103.998 190.446, 105.126 191.087, 107.666 191.497 C 117.161 193.029, 117.139 192.770, 108.220 197.827 C 99.902 202.543, 97.781 205.632, 103.031 205.383 C 104.389 205.319, 105.789 205.717, 106.143 206.268 C 106.568 206.932, 107.844 206.901, 109.921 206.177 C 111.645 205.576, 113.672 205.321, 114.424 205.609 C 115.177 205.898, 116.556 205.092, 117.489 203.817 C 119.095 201.623, 119.152 201.613, 118.563 203.632 C 118.125 205.130, 118.463 205.964, 119.701 206.439 C 120.670 206.810, 121.599 206.703, 121.767 206.199 C 121.935 205.696, 122.768 204.432, 123.618 203.392 C 125.069 201.616, 125.128 201.612, 124.582 203.332 C 124.262 204.339, 124 205.730, 124 206.421 C 124 208.834, 119.346 210.014, 113.902 208.981 C 107.608 207.788, 106.189 208.507, 108.979 211.478 C 110.807 213.424, 110.887 213.829, 109.546 214.344 C 108.686 214.674, 106.974 214.568, 105.741 214.108 C 104.509 213.649, 101.418 212.967, 98.873 212.594 C 95.200 212.054, 94.125 212.231, 93.657 213.451 C 93.250 214.511, 94.220 215.595, 96.784 216.949 C 100.481 218.901, 100.011 219.378, 94.735 219.029 C 89.952 218.713, 83.292 221.880, 81.956 225.106 C 81.297 226.698, 80.474 228.007, 80.129 228.015 C 78.390 228.058, 77.005 229.849, 77.570 231.323 C 78.012 232.473, 78.914 232.809, 80.495 232.412 C 81.753 232.096, 83.056 232.282, 83.392 232.825 C 83.764 233.427, 85.268 233.491, 87.251 232.989 C 96.087 230.752, 100.750 229.967, 102.110 230.489 C 103.110 230.872, 104.154 229.973, 105.252 227.782 L 106.896 224.500 106.323 227.750 C 105.942 229.909, 106.147 231, 106.934 231 C 107.585 231, 107.837 231.454, 107.494 232.009 C 107.152 232.564, 107.164 233.941, 107.522 235.069 C 108.052 236.740, 108.714 237.002, 111.087 236.481 C 112.933 236.075, 114 236.246, 114 236.946 C 114 237.647, 115.133 237.465, 117.093 236.452 C 118.794 235.572, 120.345 235.011, 120.539 235.205 C 121.527 236.193, 118.732 238.069, 111.500 241.271 C 90.610 250.520, 91.826 249.807, 93.048 252.090 C 93.870 253.625, 94.781 254.021, 96.499 253.590 C 97.930 253.231, 98.998 253.487, 99.256 254.252 C 99.552 255.126, 102.470 254.229, 109.008 251.252 C 118.388 246.982, 122.740 246.051, 115.097 249.951 C 110.954 252.064, 110.288 253.327, 111.939 255.936 C 112.711 257.156, 113.096 257.165, 114.500 256 C 115.904 254.835, 116.289 254.844, 117.061 256.064 C 118.647 258.570, 118.158 259.057, 110.500 262.595 C 103.166 265.984, 102.146 267.104, 103.888 269.853 C 104.541 270.883, 105.230 270.947, 106.773 270.122 C 108.367 269.268, 108.924 269.361, 109.382 270.553 C 109.900 271.904, 110.295 271.899, 112.982 270.509 C 114.642 269.651, 116 269.217, 116 269.544 C 116 269.872, 114.572 272.215, 112.827 274.751 L 109.654 279.363 111.717 282.932 C 113.646 286.268, 114.215 286.557, 120.491 287.380 C 127.099 288.246, 127.248 288.214, 130.162 285.300 L 133.121 282.340 131.084 276.980 C 129.964 274.031, 129.193 271.474, 129.371 271.296 C 129.549 271.118, 130.857 271.886, 132.277 273.004 C 133.864 274.251, 135.104 274.642, 135.491 274.015 C 135.915 273.329, 136.794 273.355, 138.177 274.095 C 139.801 274.964, 140.577 274.846, 141.867 273.535 C 143.677 271.694, 144.027 272.125, 134.018 263.844 C 130.165 260.656, 129.771 259.981, 130.943 258.569 C 132.152 257.112, 132.457 257.103, 133.981 258.483 C 135.513 259.869, 135.850 259.823, 137.498 258.002 C 139.280 256.034, 139.233 255.909, 135.410 252.426 C 130.015 247.510, 133.106 249.269, 141.338 255.800 C 146.306 259.742, 148.476 260.924, 149.274 260.126 C 150.072 259.328, 150.824 259.436, 152.024 260.522 C 153.499 261.857, 153.870 261.801, 155.498 260.002 C 156.501 258.894, 157.136 257.839, 156.911 257.658 C 156.685 257.476, 151.213 253.171, 144.750 248.090 C 134.090 239.708, 131.426 237, 133.845 237 C 134.310 237, 135.514 237.911, 136.521 239.024 C 137.713 240.341, 138.694 240.706, 139.330 240.070 C 139.965 239.435, 140.974 239.451, 142.217 240.116 C 144.479 241.327, 147.394 239.470, 146.577 237.340 C 146.291 236.595, 146.715 236, 147.531 236 C 148.438 236, 149.045 234.948, 149.118 233.250 L 149.237 230.500 149.882 233.500 C 150.345 235.648, 151.119 236.510, 152.609 236.534 C 153.754 236.552, 155.998 237.444, 157.595 238.514 C 161.193 240.926, 166.671 243.074, 170.068 243.406 C 171.480 243.544, 173.117 243.954, 173.705 244.317 C 174.292 244.681, 175.304 244.338, 175.954 243.556 C 176.887 242.431, 176.702 241.702, 175.067 240.067 C 173.930 238.930, 173 237.133, 173 236.073 C 173 233.305, 166.492 228.334, 161.910 227.602 C 157.997 226.976, 156.401 225, 159.809 225 C 162.517 225, 165.109 222.731, 164.144 221.205 C 163.618 220.371, 160.714 219.836, 155.995 219.705 C 148.545 219.497, 145.567 217.827, 150.456 216.600 C 155.858 215.245, 152.837 213.297, 144.264 212.608 C 138.901 212.177, 136.979 210.578, 137.079 206.628 L 137.158 203.500 138.162 206.250 C 139.383 209.591, 143.551 210.312, 142.500 207 C 141.564 204.050, 142.885 204.566, 144.039 207.602 C 144.663 209.243, 145.553 210.002, 146.450 209.658 C 147.232 209.357, 149.070 210.054, 150.535 211.206 C 152.687 212.899, 153.358 213.039, 154.037 211.940 C 154.726 210.825, 155.224 210.892, 156.796 212.315 C 158.537 213.891, 158.834 213.905, 160.025 212.470 C 161.157 211.106, 160.389 209.923, 154.418 203.831 L 147.500 196.772 153.750 197.436 C 159.921 198.091, 160 198.068, 160 195.609 C 160 192.476, 161.571 191.411, 162.842 193.682 C 163.656 195.136, 164.056 195.198, 165.403 194.080 C 166.836 192.891, 167 193.390, 167 198.947 C 167 204.791, 167.126 205.121, 169.244 204.820 C 170.814 204.596, 171.679 203.600, 172.125 201.500 L 172.763 198.500 172.882 201.750 C 172.974 204.294, 173.435 205, 175 205 C 176.100 205, 177 204.341, 177 203.535 C 177 202.255, 179.829 200, 181.434 200 C 181.745 200, 182 200.939, 182 202.088 C 182 203.303, 180.047 205.943, 177.324 208.408 C 173.954 211.460, 172.833 213.123, 173.309 214.364 C 173.851 215.776, 174.349 215.884, 176.071 214.962 C 178.854 213.473, 179.508 214.329, 178.175 217.718 C 175.979 223.303, 175.696 227.887, 177.388 230.469 C 178.275 231.822, 179 234.070, 179 235.465 C 179 237.333, 179.526 238, 181 238 C 182.333 238, 183 237.333, 183 236 C 183 234.900, 183.478 234, 184.063 234 C 184.647 234, 184.985 235.012, 184.813 236.250 C 184.578 237.938, 185 238.500, 186.500 238.500 C 187.856 238.500, 188.610 237.719, 188.843 236.073 C 189.031 234.739, 189.766 232.714, 190.475 231.573 C 192.314 228.615, 193.216 221.271, 192.014 219.027 C 190.737 216.640, 192.227 215.516, 194.826 216.907 C 196.914 218.024, 199.158 216.575, 198.400 214.600 C 198.094 213.804, 199.235 213.565, 202.058 213.834 L 206.161 214.225 205.455 222.699 C 205.067 227.359, 204.693 231.904, 204.625 232.799 C 204.532 234.013, 205.763 234.614, 209.468 235.162 C 212.201 235.566, 214.563 235.771, 214.717 235.616 C 214.871 235.462, 215.289 231.886, 215.645 227.668 C 216.327 219.603, 216.391 219.528, 221.667 220.583 C 224.574 221.165, 224.583 221.190, 224.184 227.454 L 223.784 233.740 228.389 234.431 C 234.045 235.279, 234.983 234.754, 235.064 230.691 L 235.128 227.500 236.689 230.631 C 237.994 233.249, 238.991 233.864, 242.765 234.381 C 250.633 235.460, 251.751 235.193, 254.509 231.578 C 256.867 228.486, 257.017 227.779, 256.069 224.256 C 255.046 220.458, 254.860 220.327, 248.914 219.221 C 245.556 218.597, 242.141 217.532, 241.326 216.856 C 240.088 215.828, 240.800 215.286, 245.658 213.563 C 251.381 211.533, 252.845 209.815, 251.126 207.147 C 250.459 206.112, 249.773 206.051, 248.208 206.889 C 246.669 207.712, 246.059 207.677, 245.749 206.748 C 245.444 205.833, 243.591 206.127, 238.626 207.880 C 234.936 209.183, 231.637 209.970, 231.296 209.629 C 230.955 209.288, 232.073 208.522, 233.781 207.927 C 236.619 206.937, 236.791 206.635, 235.776 204.408 C 234.977 202.655, 234.138 202.139, 232.785 202.568 C 231.750 202.897, 230.348 202.704, 229.668 202.140 C 228.891 201.495, 227.889 201.459, 226.966 202.042 C 225.098 203.224, 222.252 203.312, 223.550 202.148 C 224.331 201.448, 233.506 197.632, 245.741 192.919 C 247.713 192.160, 247.846 191.757, 246.849 189.569 C 245.897 187.479, 245.399 187.251, 243.731 188.144 C 242.249 188.937, 241.541 188.876, 240.939 187.902 C 240.313 186.889, 237.375 187.705, 227.816 191.548 C 214.669 196.834, 213.934 197.046, 214.121 195.500 C 214.188 194.950, 216.551 193.652, 219.371 192.616 C 222.192 191.580, 224.595 190.660, 224.710 190.572 C 224.826 190.484, 224.652 189.384, 224.323 188.126 C 223.874 186.411, 223.209 185.974, 221.664 186.378 C 220.531 186.674, 219.090 186.490, 218.461 185.968 C 217.718 185.351, 215.217 185.785, 211.295 187.214 C 205.503 189.323, 205.168 189.340, 202.604 187.660 C 198.833 185.189, 200.156 184.100, 205.675 185.132 C 210.890 186.106, 213.996 184.720, 210.729 182.876 C 209.755 182.327, 209.246 181.412, 209.597 180.843 C 210.188 179.886, 214.841 180.163, 222.123 181.589 C 225.806 182.311, 226.868 179.353, 223.480 177.809 C 219.992 176.219, 220.398 175, 224.417 175 C 228.396 175, 236.437 171.794, 237.658 169.721 C 238.121 168.935, 239.540 167.746, 240.810 167.079 C 243.105 165.873, 243.489 162.278, 241.276 162.722 C 240.668 162.843, 237.095 162.561, 233.335 162.094 C 228.336 161.472, 225.644 161.593, 223.313 162.545 C 221.560 163.260, 219.197 163.603, 218.063 163.306 C 216.928 163.009, 216 163.183, 216 163.692 C 216 164.201, 215.347 165.491, 214.549 166.559 C 213.173 168.399, 213.108 168.349, 213.299 165.609 C 213.605 161.209, 211.356 161.381, 209.033 165.935 C 207.893 168.171, 206.308 170, 205.512 170 C 204.715 170, 203.393 171.237, 202.572 172.750 L 201.080 175.500 201.040 172.231 C 201.003 169.180, 200.816 169.005, 198.250 169.610 C 194.061 170.597, 196.676 168.569, 202.283 166.483 C 207.645 164.488, 208.275 163.880, 207.385 161.560 C 206.966 160.470, 206.107 160.149, 204.757 160.577 C 203.653 160.927, 202.452 160.731, 202.087 160.141 C 201.626 159.394, 199.943 159.514, 196.553 160.534 C 189.810 162.563, 189.557 162.448, 192.449 158.656 C 195.477 154.686, 195.519 154.417, 193.250 153.528 C 188.158 151.530, 183.435 151.976, 176.958 155.066 L 170.415 158.186 165.458 155.273 C 160.715 152.486, 160.500 152.171, 160.500 147.990 L 160.500 143.619 166.373 141.876 L 172.246 140.132 178.175 145.066 C 183.908 149.837, 186.344 150.703, 192.438 150.137 C 195.357 149.866, 195.509 149.291, 193.679 145.454 C 192.756 143.517, 192 141.689, 192 141.393 C 192 141.096, 194.434 142.246, 197.409 143.948 C 200.883 145.935, 202.957 146.629, 203.205 145.885 C 203.485 145.046, 204.205 145.109, 205.826 146.114 C 207.753 147.309, 208.192 147.294, 209.015 146 C 210.399 143.825, 210.419 143.854, 204.721 139.634 C 200.472 136.488, 200.012 135.887, 202.250 136.403 C 204.690 136.967, 205 136.754, 205 134.519 C 205 133.134, 205.450 132, 206 132 C 206.550 132, 207 132.830, 207 133.845 C 207 134.860, 207.855 136.464, 208.901 137.410 C 209.947 138.357, 211.092 140.676, 211.446 142.565 C 211.919 145.087, 212.610 146, 214.045 146 C 215.482 146, 216.031 145.272, 216.118 143.250 L 216.237 140.500 216.875 143.500 C 217.346 145.718, 218.163 146.589, 220.006 146.841 C 221.378 147.029, 223.244 147.847, 224.154 148.659 C 225.923 150.238, 236.943 153.153, 238.203 152.374 C 238.619 152.118, 239.875 152.398, 240.994 152.997 C 242.598 153.855, 243.153 153.764, 243.612 152.569 C 244.751 149.601, 235.540 139.642, 230.034 137.885 C 224.972 136.271, 224.357 135.300, 227.901 134.522 C 230.938 133.855, 232.015 131.745, 229.965 130.478 C 229.396 130.126, 226.281 129.851, 223.044 129.867 C 219.264 129.885, 216.753 129.407, 216.026 128.532 C 215.143 127.467, 215.357 127.022, 217.002 126.499 C 220.610 125.354, 218.599 123.578, 212.422 122.453 L 206.500 121.375 210 119.830 C 213.465 118.301, 213.555 118.324, 218.945 122.103 C 222.814 124.817, 224.741 125.630, 225.606 124.912 C 226.427 124.230, 227.032 124.243, 227.470 124.951 C 228.498 126.614, 230.837 126.173, 231.943 124.107 C 232.813 122.481, 232.163 121.668, 227.351 118.357 C 223.605 115.779, 222.290 114.392, 223.388 114.174 C 224.292 113.994, 229.766 117.298, 235.554 121.516 C 242.352 126.470, 246.639 128.969, 247.665 128.575 C 248.539 128.240, 249.871 128.478, 250.627 129.105 C 252.150 130.369, 255.042 128.712, 254.951 126.628 C 254.924 126.007, 250.195 122.167, 244.441 118.093 C 238.688 114.019, 234.196 110.471, 234.459 110.208 C 234.722 109.944, 236.053 110.460, 237.417 111.353 C 238.940 112.351, 240.132 112.595, 240.509 111.986 C 240.906 111.343, 241.863 111.392, 243.232 112.124 C 244.965 113.052, 245.587 112.918, 246.717 111.377 C 247.925 109.728, 247.826 109.285, 245.904 107.725 C 241.702 104.315, 244.858 104.885, 250.342 108.526 C 253.383 110.545, 256.370 111.889, 256.979 111.513 C 257.589 111.136, 258.743 111.372, 259.544 112.036 C 260.684 112.983, 261.325 112.975, 262.500 112 C 264.935 109.979, 264.280 108.694, 258.972 105.075 C 252.950 100.971, 253.700 100.037, 263.034 100.015 C 269.238 100.001, 269.659 99.847, 271.354 96.977 C 272.859 94.431, 272.959 93.405, 271.990 90.469 C 270.668 86.463, 268.909 85.301, 262.264 84.042 C 257.744 83.186, 257.336 83.298, 254.286 86.231 L 251.072 89.322 252.109 85.567 C 252.679 83.502, 253 81.681, 252.823 81.519 C 252.645 81.358, 250.194 80.916, 247.376 80.537 L 242.251 79.847 241.591 83.673 C 239.961 93.129, 240.328 92.584, 235.874 92.159 L 231.807 91.772 232.454 87.136 C 232.810 84.586, 233.345 81.081, 233.644 79.347 C 234.240 75.881, 233.510 75.383, 227 74.809 L 223.500 74.500 222.087 84.300 L 220.674 94.099 216.587 93.800 C 212.921 93.531, 212.534 93.255, 212.835 91.120 C 213.130 89.025, 212.868 88.816, 210.646 89.374 C 207.788 90.091, 206.284 88.568, 207.913 86.605 C 210.877 83.033, 209.945 66.806, 206.739 66.188 C 205.552 65.960, 205 66.492, 205 67.868 C 205 68.976, 204.485 70.200, 203.855 70.590 C 203.067 71.077, 202.865 70.487, 203.207 68.699 C 203.541 66.951, 203.205 65.909, 202.182 65.516 C 200.713 64.953, 199.047 66.494, 199.015 68.445 C 199.007 68.965, 197.901 70.540, 196.557 71.945 C 194.053 74.563, 192.936 81.548, 194.445 85.149 C 195.446 87.537, 193.184 88.476, 191.061 86.555 C 189.378 85.032, 189.201 85.035, 188.604 86.589 C 188.211 87.613, 189.135 90.094, 190.981 92.970 C 193.665 97.153, 194.982 102, 193.434 102 C 191.410 102, 189.244 99.785, 189.671 98.151 C 190.008 96.863, 189.525 96.109, 188.129 95.744 C 186.595 95.343, 185.858 95.862, 185.127 97.856 L 184.158 100.500 184.079 97.750 C 184.021 95.728, 183.489 95, 182.072 95 C 180.546 95, 179.882 96.170, 178.888 100.609 C 177.783 105.549, 177.480 106.009, 176.348 104.461 C 175.260 102.973, 174.816 102.908, 173.455 104.037 C 172.114 105.150, 171.710 105.148, 171.016 104.026 C 170.559 103.287, 170.393 102.139, 170.647 101.477 C 171.137 100.201, 166.884 99, 161.875 99 C 160.294 99, 159.011 98.662, 159.024 98.250 C 159.037 97.838, 162.645 95.475, 167.042 93 C 175.130 88.447, 177.183 85.370, 171.969 85.617 C 170.611 85.681, 169.204 85.272, 168.842 84.707 C 168.402 84.020, 167.184 84.095, 165.153 84.937 C 163.485 85.627, 161.582 85.860, 160.923 85.452 C 160.215 85.015, 158.939 85.691, 157.800 87.106 C 155.995 89.350, 155.912 89.367, 156.467 87.368 C 156.879 85.886, 156.523 85.031, 155.299 84.561 C 154.330 84.190, 153.401 84.297, 153.233 84.801 C 153.065 85.304, 152.232 86.568, 151.382 87.608 C 149.931 89.384, 149.872 89.388, 150.418 87.668 C 150.738 86.661, 151 85.270, 151 84.579 C 151 82.166, 155.654 80.986, 161.098 82.019 C 167.392 83.212, 168.811 82.493, 166.021 79.522 C 164.193 77.576, 164.113 77.171, 165.454 76.656 C 166.314 76.326, 168.026 76.432, 169.259 76.892 C 170.491 77.351, 173.582 78.033, 176.127 78.406 C 179.799 78.945, 180.875 78.769, 181.342 77.551 C 181.739 76.516, 180.883 75.454, 178.716 74.292 L 175.500 72.569 181 71.913 C 187.652 71.119, 191.762 69.325, 192.540 66.874 C 192.858 65.872, 194.268 64.148, 195.673 63.043 C 198.866 60.531, 198.200 57.661, 194.631 58.556 C 193.298 58.891, 191.915 58.671, 191.540 58.065 C 191.167 57.461, 190.449 57.222, 189.945 57.534 C 188.816 58.232, 178.583 60.174, 174.500 60.466 C 172.562 60.604, 171.110 61.451, 170.399 62.858 C 168.591 66.434, 167.940 66.550, 168.615 63.177 C 169 61.251, 168.844 60, 168.219 60 C 167.651 60, 167.376 59.212, 167.607 58.250 C 168.306 55.333, 166.585 53.616, 164.227 54.878 C 162.633 55.732, 162.076 55.639, 161.618 54.447 C 161.102 53.101, 160.685 53.112, 157.925 54.539 C 156.214 55.424, 154.655 55.989, 154.461 55.795 C 153.579 54.912, 155.979 53.209, 161.632 50.707 C 183.022 41.241, 183.158 41.163, 181.957 38.920 C 181.131 37.376, 180.221 36.979, 178.501 37.410 C 177.079 37.767, 176.005 37.514, 175.754 36.763 C 175.470 35.909, 172.470 36.837, 166.017 39.777 C 156.619 44.057, 151.868 44.982, 160.287 40.891 C 164.435 38.876, 164.728 38.497, 163.766 36.386 C 162.892 34.468, 162.383 34.260, 160.731 35.144 C 159.237 35.944, 158.534 35.872, 157.888 34.853 C 156.380 32.473, 156.861 32.013, 164.500 28.532 C 171.784 25.212, 172.899 23.967, 171.112 21.147 C 170.459 20.117, 169.770 20.053, 168.227 20.878 C 166.633 21.732, 166.076 21.639, 165.618 20.447 C 165.100 19.096, 164.705 19.101, 162.018 20.491 C 158.245 22.442, 158.250 21.950, 162.061 16.411 C 165.256 11.768, 165.284 10.129, 162.233 6.356 C 160.919 4.730, 158.927 4.053, 153.989 3.552 C 147.718 2.916, 147.375 3, 144.689 5.803 M 130.669 59.200 C 131.021 61.015, 131.939 62.874, 132.710 63.331 C 133.480 63.788, 134.623 65.363, 135.248 66.831 L 136.386 69.500 136.759 66.750 C 137.167 63.751, 137.951 63.351, 139.800 65.200 C 140.460 65.860, 141 65.955, 141 65.412 C 141 64.868, 139.088 62.838, 136.750 60.901 C 130.232 55.499, 129.936 55.416, 130.669 59.200 M 158.750 63.064 C 155.588 64.696, 153 66.298, 153 66.623 C 153 66.948, 153.675 66.955, 154.500 66.638 C 155.584 66.223, 156 66.748, 156 68.531 C 156 69.889, 156.450 71, 157 71 C 157.550 71, 158 70.334, 158 69.519 C 158 68.705, 159.057 67.773, 160.348 67.449 C 162.464 66.918, 167.079 59.927, 165.234 60.048 C 164.830 60.075, 161.912 61.432, 158.750 63.064 M 78 83.965 C 78 86.906, 78.516 88.206, 80 89 C 81.813 89.970, 81.997 89.764, 81.968 86.785 C 81.939 83.729, 80.110 80, 78.640 80 C 78.288 80, 78 81.784, 78 83.965 M 77 93.200 C 77 93.926, 77.927 95.098, 79.060 95.805 C 80.951 96.987, 81.032 96.929, 80.054 95.101 C 78.688 92.549, 77 91.498, 77 93.200 M 95.336 95.567 C 95.005 96.429, 95.244 97.644, 95.867 98.267 C 96.711 99.111, 97 98.711, 97 96.700 C 97 93.691, 96.251 93.182, 95.336 95.567 M 207.174 97.314 C 205.110 99.512, 204.148 104.017, 205.750 103.985 C 207.702 103.945, 209.123 102.016, 209.666 98.669 C 210.364 94.370, 210.084 94.217, 207.174 97.314 M 92.044 102.628 C 92.020 104.348, 92.686 106.324, 93.524 107.020 C 96.018 109.090, 96.282 107.450, 94.116 103.344 L 92.088 99.500 92.044 102.628 M 119.330 103.250 C 119.329 103.938, 118.744 107.584, 118.031 111.354 L 116.734 118.208 121.315 122.788 C 125.529 127.003, 126.099 127.276, 128.448 126.206 C 130.792 125.138, 130.999 124.531, 130.986 118.771 C 130.967 109.948, 130.503 108.907, 124.954 105.250 C 119.357 101.561, 119.334 101.553, 119.330 103.250 M 188.609 106.576 C 187.764 108.779, 188.692 109.708, 190.217 108.183 C 191.055 107.345, 191.089 106.689, 190.333 105.933 C 189.576 105.176, 189.074 105.364, 188.609 106.576 M 158.500 109.592 L 152.500 111.726 150.909 119.613 C 148.785 130.139, 149.767 131.135, 157.812 126.614 L 163.500 123.417 164.274 116.458 C 164.700 112.631, 164.925 109.041, 164.774 108.479 C 164.610 107.868, 162.095 108.314, 158.500 109.592 M 205.427 109.479 C 204.367 110.280, 203.950 110.944, 204.500 110.953 C 205.986 110.977, 208.526 109.192, 207.898 108.565 C 207.599 108.265, 206.487 108.677, 205.427 109.479 M 81.223 113.557 C 77.741 115.996, 78.406 117.981, 82.750 118.118 C 90.570 118.366, 91.410 117.719, 87.461 114.492 C 83.909 111.589, 84.010 111.604, 81.223 113.557 M 189.059 114.653 C 186.635 117.734, 186.955 118.630, 189.914 117.046 C 191.061 116.432, 192 115.045, 192 113.965 C 192 111.377, 191.553 111.482, 189.059 114.653 M 135.667 120.667 C 134.620 121.714, 134.888 126, 136 126 C 136.550 126, 137 124.650, 137 123 C 137 119.893, 136.796 119.537, 135.667 120.667 M 108.500 124.691 C 110.464 126.626, 122 135.107, 122 134.617 C 122 134.342, 119.412 132.145, 116.250 129.735 C 110.451 125.316, 106.568 122.789, 108.500 124.691 M 193.174 126.886 C 189.145 128.999, 190.270 130.386, 196.823 131.387 C 200.848 132.002, 201.123 131.899, 200.823 129.888 C 200.645 128.701, 199.600 127.147, 198.500 126.436 C 196.822 125.351, 195.964 125.423, 193.174 126.886 M 133.120 134.085 C 129.881 135.522, 128.396 135.744, 127.422 134.935 C 126.552 134.214, 125.523 134.168, 124.392 134.800 C 122.832 135.674, 122.871 135.861, 124.840 136.914 C 126.391 137.745, 127 139.011, 127 141.410 C 127 147.277, 125.796 151.241, 123.860 151.747 C 121.269 152.424, 122.595 154, 125.755 154 C 127.206 154, 130.103 155.185, 132.194 156.634 L 135.995 159.269 141.140 157.130 C 144.922 155.559, 146.631 155.279, 147.590 156.075 C 148.450 156.788, 149.480 156.831, 150.608 156.200 C 152.168 155.326, 152.129 155.139, 150.160 154.086 C 147.873 152.862, 147.525 150.506, 148.637 143.777 C 149.038 141.357, 149.913 139.845, 151.141 139.455 C 153.773 138.620, 152.450 137, 149.135 137 C 147.625 137, 144.864 135.875, 143 134.500 C 139.020 131.564, 138.820 131.555, 133.120 134.085 M 153 156.383 C 153 156.931, 163.588 165.147, 166 166.470 C 168.428 167.803, 166.078 165.760, 159.250 160.603 C 155.813 158.007, 153 156.108, 153 156.383 M 74 161.186 C 74 162.121, 74.953 163.554, 76.119 164.371 C 78 165.688, 78.613 165.675, 81.596 164.253 C 85.926 162.188, 84.604 160.329, 78.458 159.840 C 74.789 159.548, 74 159.787, 74 161.186 M 116.250 164.542 C 111.636 167.565, 111 168.390, 111 171.351 C 111 173.205, 110.713 176.811, 110.363 179.366 L 109.727 184.011 116.113 181.612 L 122.500 179.212 124.626 171.576 L 126.752 163.940 124.654 162.470 C 121.990 160.604, 122.420 160.498, 116.250 164.542 M 146 164.937 C 144.813 165.631, 144.567 167.554, 144.819 174.157 L 145.138 182.500 150.165 185.821 C 152.929 187.648, 155.308 188.998, 155.450 188.821 C 155.592 188.644, 156.266 184.959, 156.946 180.631 L 158.184 172.763 153.884 168.381 C 149.435 163.849, 148.536 163.456, 146 164.937 M 139.079 166.583 C 139.127 167.748, 139.364 167.985, 139.683 167.188 C 139.972 166.466, 139.936 165.603, 139.604 165.271 C 139.272 164.939, 139.036 165.529, 139.079 166.583 M 186.750 172.790 C 184.249 173.300, 184.571 174.307, 188.061 176.887 C 190.960 179.030, 191.254 179.063, 193.623 177.511 C 194.999 176.610, 195.947 175.340, 195.730 174.690 C 195.305 173.415, 189.605 172.209, 186.750 172.790 M 84.750 174.080 C 83.787 174.641, 83 176.055, 83 177.224 C 83 179.330, 83.021 179.329, 85.500 177 C 89.165 173.557, 88.708 171.775, 84.750 174.080 M 68.128 180.900 C 67.374 181.378, 66.935 182.305, 67.154 182.961 C 67.410 183.731, 68.216 183.418, 69.431 182.077 C 71.340 179.967, 70.623 179.319, 68.128 180.900 M 85.093 182.943 C 84.327 183.416, 84.075 184.313, 84.510 185.017 C 85.084 185.945, 85.517 185.828, 86.230 184.553 C 87.387 182.486, 86.914 181.817, 85.093 182.943 M 179.042 183.750 C 179.065 184.162, 179.899 186.031, 180.896 187.902 L 182.709 191.304 183.211 188.677 C 183.536 186.974, 183.121 185.514, 182.028 184.525 C 180.204 182.875, 178.975 182.556, 179.042 183.750 M 67.215 187.846 C 66.508 188.295, 65.656 190.425, 65.323 192.581 L 64.716 196.500 67.358 194.076 C 68.811 192.742, 70 190.605, 70 189.326 C 70 186.870, 69.321 186.510, 67.215 187.846 M 178 194.500 C 178 195.991, 178.431 196.852, 179 196.500 C 179.550 196.160, 180 195.260, 180 194.500 C 180 193.740, 179.550 192.840, 179 192.500 C 178.431 192.148, 178 193.009, 178 194.500 M 194.946 195.899 C 196.312 198.451, 198 199.502, 198 197.800 C 198 197.074, 197.073 195.902, 195.940 195.195 C 194.049 194.013, 193.968 194.071, 194.946 195.899 M 193 204.050 C 193 205.177, 193.787 207.539, 194.750 209.300 L 196.500 212.500 196.817 208.645 C 196.991 206.524, 196.892 204.162, 196.598 203.395 C 195.766 201.227, 193 201.730, 193 204.050 M 117 221.339 C 117 222.076, 115.987 223.149, 114.750 223.722 C 112.695 224.676, 108.108 231, 109.472 231 C 110.588 231, 122 224.968, 122 224.379 C 122 224.053, 121.325 224.045, 120.500 224.362 C 119.416 224.777, 119 224.252, 119 222.469 C 119 221.111, 118.550 220, 118 220 C 117.450 220, 117 220.603, 117 221.339 M 138 224.508 C 138 226.755, 137.675 227.042, 135.750 226.494 C 134.029 226.004, 134.441 226.697, 137.500 229.439 C 139.700 231.411, 142.332 233.509, 143.349 234.101 C 145.040 235.085, 145.135 234.892, 144.464 231.838 C 144.061 230.002, 142.892 227.912, 141.866 227.193 C 140.840 226.475, 140 225.264, 140 224.502 C 140 223.741, 139.550 222.840, 139 222.500 C 138.430 222.148, 138 223.012, 138 224.508" fill="none" stroke="#000" stroke-width="2px" fill-rule="evenodd"/>
</svg>
