<?xml version="1.0" encoding="utf-8"?>
<!-- Generator: Adobe Illustrator 17.0.0, SVG Export Plug-In . SVG Version: 6.00 Build 0)  -->
<!DOCTYPE svg PUBLIC "-//W3C//DTD SVG 1.1//EN" "http://www.w3.org/Graphics/SVG/1.1/DTD/svg11.dtd">
<svg version="1.1" xmlns="http://www.w3.org/2000/svg" xmlns:xlink="http://www.w3.org/1999/xlink" x="0px" y="0px" width="1200px"
	 height="150px" viewBox="0 0 1200 150" enable-background="new 0 0 1200 150" xml:space="preserve">
<g id="Слой_11">
</g>
<g id="Слой_1">
	<path fill="#FCCB02" d="M73.788,147.647h-0.003c-0.433,0-0.788-0.354-0.788-0.788v-20.26c0-0.433,0.354-0.788,0.788-0.788h0.003
		c0.433,0,0.788,0.354,0.788,0.788v20.26C74.576,147.292,74.221,147.647,73.788,147.647z"/>
	<path fill="#FCCB02" d="M81.27,147.647h-0.003c-0.433,0-0.788-0.354-0.788-0.788v-20.26c0-0.433,0.354-0.788,0.788-0.788h0.003
		c0.433,0,0.788,0.354,0.788,0.788v20.26C82.058,147.292,81.703,147.647,81.27,147.647z"/>
	<path fill="#9AC320" d="M79.457,126.335c0,0,11.749-1.397,31.39-4.716c19.641-3.319,34.02-11.18,31.39-16.77
		c-2.63-5.59-14.38-7.337-14.38-7.337S144.516,84.76,143.639,76.9c-0.959-8.594-20.868-6.638-20.868-6.638
		s15.987-18.889,12.801-26.028c-2.806-6.289-26.304-0.524-26.304-0.524s5.436-23.757,0-27.95
		c-5.436-4.192-21.394,8.734-21.394,8.734S86.296,14.013,81.736,7.2c-3.076-4.596-5.962-4.891-5.962-4.891v125.249L79.457,126.335z"
		/>
	<g>
		<path fill="#A0D5DA" d="M128.959,102.923c-3.627,0.456-6.33,2.702-6.037,5.015s3.471,3.82,7.099,3.363
			c3.627-0.456,6.33-2.702,6.037-5.015C135.765,103.972,132.587,102.466,128.959,102.923z"/>
		
			<ellipse transform="matrix(-0.1257 -0.9921 0.9921 -0.1257 37.2508 247.7157)" fill="#3558A4" cx="127.777" cy="107.444" rx="2.223" ry="3.484"/>
	</g>
	<g>
		<path fill="#A0D5DA" d="M125.255,77.982c-3.442,1.228-5.592,4.003-4.803,6.199c0.789,2.196,4.22,2.98,7.661,1.752
			c3.442-1.228,5.592-4.003,4.803-6.199C132.127,77.538,128.697,76.754,125.255,77.982z"/>
		<path fill="#3558A4" d="M124.331,80.559c-1.812,0.646-2.943,2.107-2.528,3.263c0.415,1.156,2.221,1.568,4.032,0.922
			c1.812-0.646,2.943-2.107,2.528-3.263C127.948,80.326,126.143,79.913,124.331,80.559z"/>
	</g>
	<g>
		<path fill="#A0D5DA" d="M119.534,49.778c-3.278,1.613-5.095,4.615-4.058,6.706c1.037,2.091,4.535,2.478,7.812,0.865
			c3.278-1.613,5.095-4.615,4.058-6.706C126.31,48.553,122.812,48.165,119.534,49.778z"/>
		<path fill="#3558A4" d="M118.913,52.444c-1.725,0.849-2.681,2.429-2.136,3.53c0.546,1.1,2.387,1.304,4.112,0.455
			c1.725-0.849,2.681-2.429,2.136-3.53C122.479,51.799,120.638,51.595,118.913,52.444z"/>
	</g>
	<g>
		<path fill="#A0D5DA" d="M96.772,24.933c-2.108,2.976-2.266,6.478-0.353,7.822c1.913,1.345,5.172,0.022,7.28-2.953
			s2.266-6.478,0.353-7.822S98.879,21.957,96.772,24.933z"/>
		<path fill="#3558A4" d="M97.503,27.571c-1.109,1.566-1.193,3.409-0.186,4.117c1.007,0.708,2.722,0.012,3.832-1.554
			c1.109-1.566,1.193-3.409,0.186-4.117C100.328,25.309,98.612,26.005,97.503,27.571z"/>
	</g>
	<path fill="#9AC320" d="M72.296,126.335c0,0-11.749-1.397-31.39-4.716c-19.641-3.319-34.02-11.18-31.39-16.77
		c2.63-5.59,14.38-7.337,14.38-7.337S7.237,84.76,8.113,76.9c0.959-8.594,20.868-6.638,20.868-6.638S12.995,51.372,16.18,44.234
		c2.806-6.289,26.304-0.524,26.304-0.524s-5.436-23.757,0-27.95s21.394,8.734,21.394,8.734S65.457,14.013,70.016,7.2
		c3.076-4.596,5.962-4.891,5.962-4.891v125.249L72.296,126.335z"/>
	<path fill="#3558A4" d="M74.926,104.936c0,0,0.526-7.599-3.77-6.987c-4.296,0.611-6.138,11.442-6.664,16.944
		c-0.526,5.503,2.017,10.481,6.225,11.267C74.926,126.947,74.926,104.936,74.926,104.936z"/>
	<path fill="#3558A4" d="M79.526,104.936c0,0-0.526-7.599,3.77-6.987c4.296,0.611,6.138,11.442,6.664,16.944
		c0.526,5.503-2.017,10.481-6.225,11.267C79.526,126.947,79.526,104.936,79.526,104.936z"/>
	<g>
		<g>
			<g>
				<g>
					<path fill="#3558A4" d="M73,41.782c-2.125-1.522-6.053-2.015-8.163-0.358c-1.167,0.916-0.291,2.517,0.779,2.95
						c0.987,0.399,2.004,0.175,3.043,0.166c1.186-0.011,2.365,0.21,3.55,0.165C73.845,44.642,74.248,42.675,73,41.782L73,41.782z"/>
				</g>
			</g>
			<ellipse fill="#3558A4" cx="65.749" cy="43.185" rx="2.017" ry="2.009"/>
		</g>
		<g>
			<g>
				<g>
					<path fill="#3558A4" d="M75.03,41.642c-0.287-1.428-1.561-2.503-2.68-3.328c-1.221-0.9-2.959-2.007-4.511-1.411
						c-1.015,0.39-1.564,1.446-1.002,2.462c0.673,1.217,2.027,1.559,3.162,2.217c1.066,0.617,2.042,1.527,3.251,1.839
						C74.372,43.71,75.246,42.713,75.03,41.642L75.03,41.642z"/>
				</g>
			</g>
			<path fill="#3558A4" d="M69.634,39.824c0.54-0.97,0.188-2.193-0.786-2.731c-0.974-0.538-2.202-0.187-2.742,0.783
				c-0.54,0.97-0.188,2.193,0.786,2.731C67.867,41.145,69.094,40.795,69.634,39.824z"/>
		</g>
		<g>
			<g>
				<g>
					<path fill="#3558A4" d="M76.405,41.729c0.382-1.471,0.046-3.003-0.501-4.392c-0.577-1.467-1.223-2.976-2.841-3.462
						c-1.125-0.338-2.117,0.574-2.181,1.661c-0.075,1.283,0.775,2.265,1.321,3.361c0.522,1.048,0.8,2.205,1.435,3.193
						C74.326,43.163,76.063,43.045,76.405,41.729L76.405,41.729z"/>
				</g>
			</g>
			<path fill="#3558A4" d="M72.924,37.317c0.999-0.491,1.408-1.696,0.915-2.691c-0.493-0.995-1.702-1.403-2.701-0.912
				c-0.999,0.491-1.408,1.696-0.915,2.691C70.716,37.4,71.926,37.808,72.924,37.317z"/>
		</g>
	</g>
	<path fill="#5D7ABC" d="M86.5,43.535c0,0-4.91-4.542-9.703-3.61c-4.793,0.932-8.184,5.357-7.599,14.091
		c0.585,8.734,4.91,29.929,5.378,35.403c0.468,5.473-2.578,17.206-4.793,21.195c-2.134,3.843-3.157,11.296,0.935,16.187
		c4.092,4.891,9.703,3.028,11.925,1.397c2.221-1.63,5.953-6.232,4.209-15.139c-1.403-7.162-7.248-10.248-8.067-22.709
		c-0.818-12.461-2.806-33.307-1.871-36.334c0.935-3.028,2.806-5.59,5.495-5.823C85.097,47.96,86.5,43.535,86.5,43.535z"/>
	<path fill="#FFFFFF" d="M86.15,45.02c-0.263,0.087-4.998-2.533-8.067-2.358c-3.069,0.175-5.086,0.611-5.436,2.882
		c-0.351,2.271,0.789,4.192,3.507,3.843c2.718-0.349,5.261-2.184,8.33-2.096C87.552,47.378,86.15,45.02,86.15,45.02z"/>
	<path fill="#FCCB02" d="M86.588,43.185c0,0-1.754,0.524-2.543,2.184c-0.789,1.66-1.052,2.97-1.052,2.97l9.645-0.349
		C92.638,47.989,89.92,43.884,86.588,43.185z"/>
	<circle fill="#010202" cx="76.592" cy="45.631" r="1.228"/>
	<g>
		<path fill="#A0D5DA" d="M22.793,102.923c3.627,0.456,6.33,2.702,6.037,5.015s-3.471,3.82-7.099,3.363
			c-3.627-0.456-6.33-2.702-6.037-5.015C15.988,103.972,19.166,102.466,22.793,102.923z"/>
		
			<ellipse transform="matrix(0.1257 -0.9921 0.9921 0.1257 -85.6299 117.7206)" fill="#3558A4" cx="23.976" cy="107.444" rx="2.223" ry="3.484"/>
	</g>
	<g>
		<path fill="#A0D5DA" d="M26.497,77.982c3.442,1.228,5.592,4.003,4.803,6.199c-0.789,2.196-4.22,2.98-7.661,1.752
			c-3.442-1.228-5.592-4.003-4.803-6.199C19.625,77.538,23.055,76.754,26.497,77.982z"/>
		<path fill="#3558A4" d="M27.421,80.559c1.812,0.646,2.943,2.107,2.528,3.263c-0.415,1.156-2.221,1.568-4.032,0.922
			c-1.812-0.646-2.943-2.107-2.528-3.263C23.804,80.326,25.61,79.913,27.421,80.559z"/>
	</g>
	<g>
		<path fill="#A0D5DA" d="M32.218,49.778c3.278,1.613,5.095,4.615,4.058,6.706c-1.037,2.091-4.535,2.478-7.813,0.865
			c-3.278-1.613-5.095-4.615-4.058-6.706C25.443,48.553,28.94,48.165,32.218,49.778z"/>
		<path fill="#3558A4" d="M32.839,52.444c1.725,0.849,2.681,2.429,2.136,3.53s-2.387,1.304-4.112,0.455
			c-1.725-0.849-2.681-2.429-2.136-3.53C29.273,51.799,31.114,51.595,32.839,52.444z"/>
	</g>
	<g>
		<path fill="#A0D5DA" d="M54.981,24.933c2.108,2.976,2.266,6.478,0.353,7.822c-1.913,1.345-5.172,0.022-7.28-2.953
			c-2.108-2.976-2.266-6.478-0.353-7.822S52.873,21.957,54.981,24.933z"/>
		<path fill="#3558A4" d="M54.25,27.571c1.109,1.566,1.193,3.409,0.186,4.117c-1.007,0.708-2.722,0.012-3.832-1.554
			c-1.109-1.566-1.193-3.409-0.186-4.117C51.425,25.309,53.14,26.005,54.25,27.571z"/>
	</g>
	<g>
		<ellipse transform="matrix(1 -0.0069 0.0069 1 -0.1179 0.5236)" fill="#A0D5DA" cx="76.068" cy="17.411" rx="4.239" ry="6.594"/>
		<ellipse transform="matrix(1 -0.0069 0.0069 1 -0.1298 0.5227)" fill="#3558A4" cx="75.964" cy="19.147" rx="2.231" ry="3.471"/>
	</g>
	<g id="Слой_9__x28_копия_x29_">
		<path fill="#FFFFFF" d="M77.187,105.196c0,0-6.582,13.475-4.716,16.05c1.356,1.872,8.643,1.439,9.676-0.63
			C83.62,117.666,77.187,105.196,77.187,105.196z"/>
	</g>
</g>
<g id="Слой_1__x28_копия_x29_">
	<path fill="#FCCB02" d="M223.788,147.647h-0.003c-0.433,0-0.788-0.354-0.788-0.788v-20.26c0-0.433,0.354-0.788,0.788-0.788h0.003
		c0.433,0,0.788,0.354,0.788,0.788v20.26C224.576,147.292,224.221,147.647,223.788,147.647z"/>
	<path fill="#FCCB02" d="M231.27,147.647h-0.003c-0.433,0-0.788-0.354-0.788-0.788v-20.26c0-0.433,0.354-0.788,0.788-0.788h0.003
		c0.433,0,0.788,0.354,0.788,0.788v20.26C232.058,147.292,231.703,147.647,231.27,147.647z"/>
	<path fill="#E94E1B" d="M229.457,126.335c0,0,11.749-1.397,31.39-4.716s34.02-11.18,31.39-16.77
		c-2.63-5.59-14.38-7.337-14.38-7.337S294.516,84.76,293.639,76.9c-0.959-8.594-20.868-6.638-20.868-6.638
		s15.987-18.889,12.801-26.028c-2.806-6.289-26.304-0.524-26.304-0.524s5.436-23.757,0-27.95
		c-5.436-4.192-21.394,8.734-21.394,8.734s-1.578-10.481-6.138-17.294c-3.076-4.596-5.962-4.891-5.962-4.891v125.249
		L229.457,126.335z"/>
	<g>
		<path fill="#A0D5DA" d="M278.96,102.923c-3.627,0.456-6.33,2.702-6.037,5.015s3.471,3.82,7.099,3.363
			c3.627-0.456,6.33-2.702,6.037-5.015S282.587,102.466,278.96,102.923z"/>
		
			<ellipse transform="matrix(-0.1257 -0.9921 0.9921 -0.1257 206.1105 396.5254)" fill="#3558A4" cx="277.777" cy="107.444" rx="2.223" ry="3.484"/>
	</g>
	<g>
		<path fill="#A0D5DA" d="M275.255,77.982c-3.442,1.228-5.592,4.003-4.803,6.199c0.789,2.196,4.22,2.98,7.661,1.752
			c3.442-1.228,5.592-4.003,4.803-6.199C282.127,77.538,278.697,76.754,275.255,77.982z"/>
		<path fill="#3558A4" d="M274.332,80.559c-1.812,0.646-2.943,2.107-2.528,3.263s2.221,1.568,4.032,0.922
			c1.812-0.646,2.943-2.107,2.528-3.263C277.948,80.326,276.143,79.913,274.332,80.559z"/>
	</g>
	<g>
		<path fill="#A0D5DA" d="M269.534,49.778c-3.278,1.613-5.095,4.615-4.058,6.706c1.037,2.091,4.535,2.478,7.812,0.865
			c3.278-1.613,5.095-4.615,4.058-6.706C276.31,48.553,272.812,48.165,269.534,49.778z"/>
		<path fill="#3558A4" d="M268.913,52.444c-1.725,0.849-2.681,2.429-2.136,3.53c0.546,1.1,2.387,1.304,4.112,0.455
			c1.725-0.849,2.681-2.429,2.136-3.53C272.479,51.799,270.638,51.595,268.913,52.444z"/>
	</g>
	<g>
		<path fill="#A0D5DA" d="M246.772,24.933c-2.108,2.976-2.266,6.478-0.353,7.822c1.913,1.345,5.172,0.022,7.28-2.953
			c2.108-2.976,2.266-6.478,0.353-7.822S248.88,21.957,246.772,24.933z"/>
		<path fill="#3558A4" d="M247.503,27.571c-1.109,1.566-1.193,3.409-0.186,4.117c1.007,0.708,2.722,0.012,3.832-1.554
			c1.109-1.566,1.193-3.409,0.186-4.117C250.328,25.309,248.612,26.005,247.503,27.571z"/>
	</g>
	<path fill="#E94E1B" d="M222.296,126.335c0,0-11.749-1.397-31.39-4.716c-19.641-3.319-34.02-11.18-31.39-16.77
		c2.63-5.59,14.38-7.337,14.38-7.337S157.237,84.76,158.113,76.9c0.959-8.594,20.868-6.638,20.868-6.638
		s-15.987-18.889-12.801-26.028c2.806-6.289,26.304-0.524,26.304-0.524s-5.436-23.757,0-27.95s21.394,8.734,21.394,8.734
		s1.578-10.481,6.138-17.294c3.076-4.596,5.962-4.891,5.962-4.891v125.249L222.296,126.335z"/>
	<path fill="#3558A4" d="M224.926,104.936c0,0,0.526-7.599-3.77-6.987c-4.296,0.611-6.138,11.442-6.664,16.944
		c-0.526,5.503,2.017,10.481,6.225,11.267C224.926,126.947,224.926,104.936,224.926,104.936z"/>
	<path fill="#3558A4" d="M229.526,104.936c0,0-0.526-7.599,3.77-6.987c4.296,0.611,6.138,11.442,6.664,16.944
		c0.526,5.503-2.017,10.481-6.225,11.267C229.526,126.947,229.526,104.936,229.526,104.936z"/>
	<g>
		<g>
			<g>
				<g>
					<path fill="#3558A4" d="M223,41.782c-2.125-1.522-6.053-2.015-8.163-0.358c-1.167,0.916-0.291,2.517,0.779,2.95
						c0.987,0.399,2.004,0.175,3.043,0.166c1.186-0.011,2.365,0.21,3.55,0.165C223.845,44.642,224.248,42.675,223,41.782L223,41.782
						z"/>
				</g>
			</g>
			<ellipse fill="#3558A4" cx="215.749" cy="43.185" rx="2.017" ry="2.009"/>
		</g>
		<g>
			<g>
				<g>
					<path fill="#3558A4" d="M225.031,41.642c-0.287-1.428-1.561-2.503-2.68-3.328c-1.221-0.9-2.959-2.007-4.511-1.411
						c-1.015,0.39-1.564,1.446-1.002,2.462c0.673,1.217,2.027,1.559,3.162,2.217c1.066,0.617,2.042,1.527,3.251,1.839
						C224.372,43.71,225.246,42.713,225.031,41.642L225.031,41.642z"/>
				</g>
			</g>
			<path fill="#3558A4" d="M219.634,39.824c0.54-0.97,0.188-2.193-0.786-2.731c-0.974-0.538-2.202-0.187-2.742,0.783
				c-0.54,0.97-0.188,2.193,0.786,2.731C217.867,41.145,219.094,40.795,219.634,39.824z"/>
		</g>
		<g>
			<g>
				<g>
					<path fill="#3558A4" d="M226.405,41.729c0.382-1.471,0.046-3.003-0.501-4.392c-0.577-1.467-1.223-2.976-2.841-3.462
						c-1.125-0.338-2.117,0.574-2.181,1.661c-0.075,1.283,0.775,2.265,1.321,3.361c0.522,1.048,0.8,2.205,1.435,3.193
						C224.326,43.163,226.063,43.045,226.405,41.729L226.405,41.729z"/>
				</g>
			</g>
			<path fill="#3558A4" d="M222.924,37.317c0.999-0.491,1.408-1.696,0.915-2.691c-0.493-0.995-1.702-1.403-2.701-0.912
				c-0.999,0.491-1.408,1.696-0.915,2.691C220.716,37.4,221.926,37.808,222.924,37.317z"/>
		</g>
	</g>
	<path fill="#5D7ABC" d="M236.5,43.535c0,0-4.91-4.542-9.703-3.61c-4.793,0.932-8.184,5.357-7.599,14.091
		c0.585,8.734,4.91,29.929,5.378,35.403c0.468,5.473-2.578,17.206-4.793,21.195c-2.134,3.843-3.157,11.296,0.935,16.187
		s9.703,3.028,11.925,1.397s5.953-6.232,4.209-15.139c-1.403-7.162-7.248-10.248-8.067-22.709
		c-0.818-12.461-2.806-33.307-1.871-36.334c0.935-3.028,2.806-5.59,5.495-5.823S236.5,43.535,236.5,43.535z"/>
	<path fill="#FFFFFF" d="M236.15,45.02c-0.263,0.087-4.998-2.533-8.067-2.358c-3.069,0.175-5.086,0.611-5.436,2.882
		c-0.351,2.271,0.789,4.192,3.507,3.843c2.718-0.349,5.261-2.184,8.33-2.096C237.552,47.378,236.15,45.02,236.15,45.02z"/>
	<path fill="#FCCB02" d="M236.588,43.185c0,0-1.754,0.524-2.543,2.184c-0.789,1.66-1.052,2.97-1.052,2.97l9.645-0.349
		C242.638,47.989,239.92,43.884,236.588,43.185z"/>
	<circle fill="#010202" cx="226.592" cy="45.631" r="1.228"/>
	<g>
		<path fill="#A0D5DA" d="M172.793,102.923c3.627,0.456,6.33,2.702,6.037,5.015s-3.471,3.82-7.099,3.363
			c-3.627-0.456-6.33-2.702-6.037-5.015S169.166,102.466,172.793,102.923z"/>
		
			<ellipse transform="matrix(0.1257 -0.9921 0.9921 0.1257 45.5104 266.5303)" fill="#3558A4" cx="173.976" cy="107.444" rx="2.223" ry="3.484"/>
	</g>
	<g>
		<path fill="#A0D5DA" d="M176.497,77.982c3.442,1.228,5.592,4.003,4.803,6.199c-0.789,2.196-4.219,2.98-7.661,1.752
			c-3.442-1.228-5.592-4.003-4.803-6.199C169.625,77.538,173.055,76.754,176.497,77.982z"/>
		<path fill="#3558A4" d="M177.421,80.559c1.812,0.646,2.943,2.107,2.528,3.263s-2.221,1.568-4.032,0.922
			c-1.812-0.646-2.943-2.107-2.528-3.263C173.804,80.326,175.61,79.913,177.421,80.559z"/>
	</g>
	<g>
		<path fill="#A0D5DA" d="M182.218,49.778c3.278,1.613,5.095,4.615,4.058,6.706c-1.037,2.091-4.535,2.478-7.813,0.865
			c-3.278-1.613-5.095-4.615-4.058-6.706C175.443,48.553,178.94,48.165,182.218,49.778z"/>
		<path fill="#3558A4" d="M182.839,52.444c1.725,0.849,2.681,2.429,2.136,3.53s-2.387,1.304-4.112,0.455
			c-1.725-0.849-2.681-2.429-2.136-3.53C179.273,51.799,181.114,51.595,182.839,52.444z"/>
	</g>
	<g>
		<path fill="#A0D5DA" d="M204.981,24.933c2.108,2.976,2.266,6.478,0.353,7.822c-1.913,1.345-5.172,0.022-7.28-2.953
			c-2.108-2.976-2.266-6.478-0.353-7.822C199.614,20.635,202.873,21.957,204.981,24.933z"/>
		<path fill="#3558A4" d="M204.25,27.571c1.109,1.566,1.193,3.409,0.186,4.117c-1.007,0.708-2.722,0.012-3.832-1.554
			c-1.109-1.566-1.193-3.409-0.186-4.117C201.425,25.309,203.14,26.005,204.25,27.571z"/>
	</g>
	<g>
		<ellipse transform="matrix(1 -0.0069 0.0069 1 -0.1144 1.5553)" fill="#A0D5DA" cx="226.068" cy="17.411" rx="4.239" ry="6.594"/>
		<ellipse transform="matrix(1 -0.0069 0.0069 1 -0.1263 1.5538)" fill="#3558A4" cx="225.964" cy="19.147" rx="2.231" ry="3.471"/>
	</g>
</g>
<g id="Слой_1__x28_копия2_x29_">
	<path fill="#FCCB02" d="M373.788,147.647h-0.003c-0.433,0-0.788-0.354-0.788-0.788v-20.26c0-0.433,0.354-0.788,0.788-0.788h0.003
		c0.433,0,0.788,0.354,0.788,0.788v20.26C374.576,147.292,374.221,147.647,373.788,147.647z"/>
	<path fill="#FCCB02" d="M381.27,147.647h-0.003c-0.433,0-0.788-0.354-0.788-0.788v-20.26c0-0.433,0.354-0.788,0.788-0.788h0.003
		c0.433,0,0.788,0.354,0.788,0.788v20.26C382.058,147.292,381.703,147.647,381.27,147.647z"/>
	<path fill="#E94E1B" d="M379.457,126.335c0,0,11.749-1.397,31.39-4.716c19.641-3.319,34.02-11.18,31.39-16.77
		c-2.63-5.59-14.38-7.337-14.38-7.337S444.516,84.76,443.639,76.9c-0.959-8.594-20.868-6.638-20.868-6.638
		s15.987-18.889,12.801-26.028c-2.806-6.289-26.304-0.524-26.304-0.524s5.436-23.757,0-27.95
		c-5.436-4.192-21.394,8.734-21.394,8.734s-1.578-10.481-6.138-17.294c-3.076-4.596-5.962-4.891-5.962-4.891v125.249
		L379.457,126.335z"/>
	<g>
		<path fill="#A0D5DA" d="M428.96,102.923c-3.627,0.456-6.33,2.702-6.037,5.015c0.293,2.314,3.471,3.82,7.099,3.363
			c3.627-0.456,6.33-2.702,6.037-5.015C435.765,103.972,432.587,102.466,428.96,102.923z"/>
		
			<ellipse transform="matrix(-0.1257 -0.9921 0.9921 -0.1257 374.9702 545.3351)" fill="#3558A4" cx="427.777" cy="107.444" rx="2.223" ry="3.484"/>
	</g>
	<g>
		<path fill="#A0D5DA" d="M425.255,77.982c-3.442,1.228-5.592,4.003-4.803,6.199c0.789,2.196,4.22,2.98,7.661,1.752
			c3.442-1.228,5.592-4.003,4.803-6.199C432.127,77.538,428.697,76.754,425.255,77.982z"/>
		<path fill="#3558A4" d="M424.332,80.559c-1.812,0.646-2.943,2.107-2.528,3.263s2.221,1.568,4.032,0.922
			c1.812-0.646,2.943-2.107,2.528-3.263C427.948,80.326,426.143,79.913,424.332,80.559z"/>
	</g>
	<g>
		<path fill="#A0D5DA" d="M419.534,49.778c-3.278,1.613-5.095,4.615-4.058,6.706c1.037,2.091,4.535,2.478,7.813,0.865
			c3.278-1.613,5.095-4.615,4.058-6.706C426.31,48.553,422.812,48.165,419.534,49.778z"/>
		<path fill="#3558A4" d="M418.913,52.444c-1.725,0.849-2.681,2.429-2.136,3.53c0.546,1.1,2.387,1.304,4.112,0.455
			c1.725-0.849,2.681-2.429,2.136-3.53C422.479,51.799,420.638,51.595,418.913,52.444z"/>
	</g>
	<g>
		<path fill="#A0D5DA" d="M396.772,24.933c-2.108,2.976-2.266,6.478-0.353,7.822c1.913,1.345,5.172,0.022,7.28-2.953
			s2.266-6.478,0.353-7.822S398.88,21.957,396.772,24.933z"/>
		<path fill="#3558A4" d="M397.503,27.571c-1.109,1.566-1.193,3.409-0.186,4.117c1.007,0.708,2.722,0.012,3.832-1.554
			c1.109-1.566,1.193-3.409,0.186-4.117C400.328,25.309,398.612,26.005,397.503,27.571z"/>
	</g>
	<path fill="#E94E1B" d="M372.296,126.335c0,0-11.749-1.397-31.39-4.716s-34.02-11.18-31.39-16.77
		c2.63-5.59,14.38-7.337,14.38-7.337S307.237,84.76,308.113,76.9c0.959-8.594,20.868-6.638,20.868-6.638
		s-15.987-18.889-12.801-26.028c2.806-6.289,26.304-0.524,26.304-0.524s-5.436-23.757,0-27.95
		c5.436-4.192,21.394,8.734,21.394,8.734s1.578-10.481,6.138-17.294c3.076-4.596,5.962-4.891,5.962-4.891v125.249L372.296,126.335z"
		/>
	<path fill="#3558A4" d="M374.926,104.936c0,0,0.526-7.599-3.77-6.987c-4.296,0.611-6.138,11.442-6.664,16.944
		c-0.526,5.503,2.017,10.481,6.225,11.267C374.926,126.947,374.926,104.936,374.926,104.936z"/>
	<path fill="#3558A4" d="M379.526,104.936c0,0-0.526-7.599,3.77-6.987c4.296,0.611,6.138,11.442,6.664,16.944
		c0.526,5.503-2.017,10.481-6.225,11.267C379.526,126.947,379.526,104.936,379.526,104.936z"/>
	<g>
		<g>
			<g>
				<g>
					<path fill="#3558A4" d="M373,41.782c-2.125-1.522-6.053-2.015-8.163-0.358c-1.167,0.916-0.291,2.517,0.779,2.95
						c0.987,0.399,2.004,0.175,3.043,0.166c1.186-0.011,2.365,0.21,3.55,0.165C373.845,44.642,374.248,42.675,373,41.782L373,41.782
						z"/>
				</g>
			</g>
			<ellipse fill="#3558A4" cx="365.749" cy="43.185" rx="2.017" ry="2.009"/>
		</g>
		<g>
			<g>
				<g>
					<path fill="#3558A4" d="M375.031,41.642c-0.287-1.428-1.561-2.503-2.68-3.328c-1.221-0.9-2.959-2.007-4.511-1.411
						c-1.015,0.39-1.564,1.446-1.002,2.462c0.673,1.217,2.027,1.559,3.162,2.217c1.066,0.617,2.042,1.527,3.251,1.839
						C374.372,43.71,375.246,42.713,375.031,41.642L375.031,41.642z"/>
				</g>
			</g>
			<path fill="#3558A4" d="M369.634,39.824c0.54-0.97,0.188-2.193-0.786-2.731c-0.974-0.538-2.202-0.187-2.741,0.783
				c-0.54,0.97-0.188,2.193,0.786,2.731C367.867,41.145,369.094,40.795,369.634,39.824z"/>
		</g>
		<g>
			<g>
				<g>
					<path fill="#3558A4" d="M376.405,41.729c0.382-1.471,0.046-3.003-0.501-4.392c-0.577-1.467-1.223-2.976-2.841-3.462
						c-1.125-0.338-2.117,0.574-2.181,1.661c-0.075,1.283,0.775,2.265,1.321,3.361c0.522,1.048,0.8,2.205,1.435,3.193
						C374.326,43.163,376.063,43.045,376.405,41.729L376.405,41.729z"/>
				</g>
			</g>
			<path fill="#3558A4" d="M372.924,37.317c0.999-0.491,1.408-1.696,0.915-2.691c-0.493-0.995-1.702-1.403-2.701-0.912
				c-0.999,0.491-1.408,1.696-0.915,2.691C370.716,37.4,371.926,37.808,372.924,37.317z"/>
		</g>
	</g>
	<path fill="#FCEA10" d="M386.5,43.535c0,0-4.91-4.542-9.703-3.61c-4.793,0.932-8.184,5.357-7.599,14.091
		c0.585,8.734,4.91,29.929,5.378,35.403s-2.578,17.206-4.793,21.195c-2.134,3.843-3.157,11.296,0.935,16.187
		c4.092,4.891,9.703,3.028,11.925,1.397s5.953-6.232,4.209-15.139c-1.403-7.162-7.248-10.248-8.067-22.709
		c-0.818-12.461-2.806-33.307-1.871-36.334c0.935-3.028,2.806-5.59,5.495-5.823S386.5,43.535,386.5,43.535z"/>
	<path fill="#FFFFFF" d="M386.15,45.02c-0.263,0.087-4.998-2.533-8.067-2.358c-3.069,0.175-5.086,0.611-5.436,2.882
		c-0.351,2.271,0.789,4.192,3.507,3.843c2.718-0.349,5.261-2.184,8.33-2.096S386.15,45.02,386.15,45.02z"/>
	<path fill="#FCCB02" d="M386.588,43.185c0,0-1.754,0.524-2.543,2.184c-0.789,1.66-1.052,2.97-1.052,2.97l9.645-0.349
		C392.638,47.989,389.92,43.884,386.588,43.185z"/>
	<circle fill="#010202" cx="376.592" cy="45.631" r="1.228"/>
	<g>
		<path fill="#A0D5DA" d="M322.793,102.923c3.627,0.456,6.33,2.702,6.037,5.015c-0.293,2.314-3.471,3.82-7.099,3.363
			c-3.627-0.456-6.33-2.702-6.037-5.015C315.988,103.972,319.166,102.466,322.793,102.923z"/>
		
			<ellipse transform="matrix(0.1257 -0.9921 0.9921 0.1257 176.6507 415.34)" fill="#3558A4" cx="323.976" cy="107.444" rx="2.223" ry="3.484"/>
	</g>
	<g>
		<path fill="#A0D5DA" d="M326.497,77.982c3.442,1.228,5.592,4.003,4.803,6.199c-0.789,2.196-4.22,2.98-7.661,1.752
			c-3.442-1.228-5.592-4.003-4.803-6.199C319.625,77.538,323.055,76.754,326.497,77.982z"/>
		<path fill="#3558A4" d="M327.421,80.559c1.812,0.646,2.943,2.107,2.528,3.263s-2.221,1.568-4.032,0.922
			c-1.812-0.646-2.943-2.107-2.528-3.263C323.804,80.326,325.61,79.913,327.421,80.559z"/>
	</g>
	<g>
		<path fill="#A0D5DA" d="M332.218,49.778c3.278,1.613,5.095,4.615,4.058,6.706c-1.037,2.091-4.535,2.478-7.813,0.865
			c-3.278-1.613-5.095-4.615-4.058-6.706C325.443,48.553,328.94,48.165,332.218,49.778z"/>
		<path fill="#3558A4" d="M332.839,52.444c1.725,0.849,2.681,2.429,2.136,3.53s-2.387,1.304-4.112,0.455
			c-1.725-0.849-2.681-2.429-2.136-3.53C329.273,51.799,331.114,51.595,332.839,52.444z"/>
	</g>
	<g>
		<path fill="#A0D5DA" d="M354.981,24.933c2.108,2.976,2.266,6.478,0.353,7.822c-1.913,1.345-5.172,0.022-7.28-2.953
			c-2.108-2.976-2.266-6.478-0.353-7.822S352.873,21.957,354.981,24.933z"/>
		<path fill="#3558A4" d="M354.25,27.571c1.109,1.566,1.193,3.409,0.186,4.117c-1.007,0.708-2.722,0.012-3.832-1.554
			c-1.109-1.566-1.193-3.409-0.186-4.117C351.425,25.309,353.14,26.005,354.25,27.571z"/>
	</g>
	<g>
		<ellipse transform="matrix(1 -0.0069 0.0069 1 -0.1109 2.5869)" fill="#A0D5DA" cx="376.068" cy="17.411" rx="4.239" ry="6.594"/>
		<ellipse transform="matrix(1 -0.0069 0.0069 1 -0.1227 2.585)" fill="#3558A4" cx="375.964" cy="19.147" rx="2.231" ry="3.471"/>
	</g>
</g>
<g id="Слой_1__x28_копия3_x29_">
	<path fill="#FCCB02" d="M523.788,147.647h-0.003c-0.433,0-0.788-0.354-0.788-0.788v-20.26c0-0.433,0.354-0.788,0.788-0.788h0.003
		c0.433,0,0.788,0.354,0.788,0.788v20.26C524.576,147.292,524.221,147.647,523.788,147.647z"/>
	<path fill="#FCCB02" d="M531.27,147.647h-0.003c-0.433,0-0.788-0.354-0.788-0.788v-20.26c0-0.433,0.354-0.788,0.788-0.788h0.003
		c0.433,0,0.788,0.354,0.788,0.788v20.26C532.058,147.292,531.703,147.647,531.27,147.647z"/>
	<path fill="#E94E1B" d="M529.457,126.335c0,0,11.749-1.397,31.39-4.716c19.641-3.319,34.02-11.18,31.39-16.77
		c-2.63-5.59-14.38-7.337-14.38-7.337S594.516,84.76,593.639,76.9c-0.959-8.594-20.868-6.638-20.868-6.638
		s15.987-18.889,12.801-26.028c-2.806-6.289-26.304-0.524-26.304-0.524s5.436-23.757,0-27.95s-21.394,8.734-21.394,8.734
		s-1.578-10.481-6.138-17.294c-3.076-4.596-5.962-4.891-5.962-4.891v125.249L529.457,126.335z"/>
	<g>
		<path fill="#A0D5DA" d="M578.96,102.923c-3.627,0.456-6.33,2.702-6.037,5.015s3.471,3.82,7.099,3.363
			c3.627-0.456,6.33-2.702,6.037-5.015C585.765,103.972,582.587,102.466,578.96,102.923z"/>
		
			<ellipse transform="matrix(-0.1257 -0.9921 0.9921 -0.1257 543.83 694.1448)" fill="#3558A4" cx="577.777" cy="107.444" rx="2.223" ry="3.484"/>
	</g>
	<g>
		<path fill="#A0D5DA" d="M575.255,77.982c-3.442,1.228-5.592,4.003-4.803,6.199c0.789,2.196,4.22,2.98,7.661,1.752
			c3.442-1.228,5.592-4.003,4.803-6.199C582.127,77.538,578.697,76.754,575.255,77.982z"/>
		<path fill="#3558A4" d="M574.332,80.559c-1.812,0.646-2.943,2.107-2.528,3.263s2.221,1.568,4.032,0.922
			c1.812-0.646,2.943-2.107,2.528-3.263C577.948,80.326,576.143,79.913,574.332,80.559z"/>
	</g>
	<g>
		<path fill="#A0D5DA" d="M569.534,49.778c-3.278,1.613-5.095,4.615-4.058,6.706c1.037,2.091,4.535,2.478,7.812,0.865
			c3.278-1.613,5.095-4.615,4.058-6.706C576.31,48.553,572.812,48.165,569.534,49.778z"/>
		<path fill="#3558A4" d="M568.913,52.444c-1.725,0.849-2.681,2.429-2.136,3.53s2.387,1.304,4.112,0.455
			c1.725-0.849,2.681-2.429,2.136-3.53C572.479,51.799,570.638,51.595,568.913,52.444z"/>
	</g>
	<g>
		<path fill="#A0D5DA" d="M546.772,24.933c-2.108,2.976-2.266,6.478-0.353,7.822c1.913,1.345,5.172,0.022,7.28-2.953
			s2.266-6.478,0.353-7.822C552.139,20.635,548.88,21.957,546.772,24.933z"/>
		<path fill="#3558A4" d="M547.503,27.571c-1.109,1.566-1.193,3.409-0.186,4.117c1.007,0.708,2.722,0.012,3.832-1.554
			c1.109-1.566,1.193-3.409,0.186-4.117C550.328,25.309,548.612,26.005,547.503,27.571z"/>
	</g>
	<path fill="#E94E1B" d="M522.296,126.335c0,0-11.749-1.397-31.39-4.716s-34.02-11.18-31.39-16.77
		c2.63-5.59,14.38-7.337,14.38-7.337S457.237,84.76,458.113,76.9c0.959-8.594,20.868-6.638,20.868-6.638
		s-15.987-18.889-12.801-26.028c2.806-6.289,26.304-0.524,26.304-0.524s-5.436-23.757,0-27.95
		c5.436-4.192,21.394,8.734,21.394,8.734s1.578-10.481,6.138-17.294c3.076-4.596,5.962-4.891,5.962-4.891v125.249L522.296,126.335z"
		/>
	<path fill="#E30613" d="M524.926,104.936c0,0,0.526-7.599-3.77-6.987s-6.138,11.442-6.664,16.944
		c-0.526,5.503,2.017,10.481,6.225,11.267S524.926,104.936,524.926,104.936z"/>
	<path fill="#E30613" d="M529.526,104.936c0,0-0.526-7.599,3.77-6.987s6.138,11.442,6.664,16.944
		c0.526,5.503-2.017,10.481-6.225,11.267S529.526,104.936,529.526,104.936z"/>
	<g>
		<g>
			<g>
				<g>
					<path fill="#3558A4" d="M523,41.782c-2.125-1.522-6.053-2.015-8.163-0.358c-1.167,0.916-0.291,2.517,0.779,2.95
						c0.987,0.399,2.004,0.175,3.043,0.166c1.186-0.011,2.365,0.21,3.55,0.165C523.845,44.642,524.248,42.675,523,41.782L523,41.782
						z"/>
				</g>
			</g>
			<ellipse fill="#3558A4" cx="515.749" cy="43.185" rx="2.017" ry="2.009"/>
		</g>
		<g>
			<g>
				<g>
					<path fill="#3558A4" d="M525.031,41.642c-0.287-1.428-1.561-2.503-2.68-3.328c-1.221-0.9-2.959-2.007-4.511-1.411
						c-1.015,0.39-1.564,1.446-1.002,2.462c0.673,1.217,2.027,1.559,3.162,2.217c1.066,0.617,2.042,1.527,3.251,1.839
						C524.372,43.71,525.246,42.713,525.031,41.642L525.031,41.642z"/>
				</g>
			</g>
			<path fill="#3558A4" d="M519.634,39.824c0.54-0.97,0.188-2.193-0.786-2.731c-0.974-0.538-2.202-0.187-2.742,0.783
				c-0.54,0.97-0.188,2.193,0.786,2.731C517.867,41.145,519.094,40.795,519.634,39.824z"/>
		</g>
		<g>
			<g>
				<g>
					<path fill="#3558A4" d="M526.405,41.729c0.382-1.471,0.046-3.003-0.501-4.392c-0.577-1.467-1.223-2.976-2.841-3.462
						c-1.125-0.338-2.117,0.574-2.181,1.661c-0.075,1.283,0.775,2.265,1.321,3.361c0.522,1.048,0.8,2.205,1.435,3.193
						C524.326,43.163,526.063,43.045,526.405,41.729L526.405,41.729z"/>
				</g>
			</g>
			<path fill="#3558A4" d="M522.924,37.317c0.999-0.491,1.409-1.696,0.915-2.691c-0.493-0.995-1.702-1.403-2.701-0.912
				c-0.999,0.491-1.409,1.696-0.915,2.691C520.716,37.4,521.926,37.808,522.924,37.317z"/>
		</g>
	</g>
	<path fill="#FCEA10" d="M536.5,43.535c0,0-4.91-4.542-9.703-3.61c-4.793,0.932-8.184,5.357-7.599,14.091
		c0.584,8.734,4.91,29.929,5.378,35.403s-2.578,17.206-4.793,21.195c-2.134,3.843-3.156,11.296,0.935,16.187
		c4.092,4.891,9.703,3.028,11.925,1.397s5.953-6.232,4.209-15.139c-1.403-7.162-7.248-10.248-8.067-22.709
		c-0.818-12.461-2.806-33.307-1.871-36.334c0.935-3.028,2.806-5.59,5.495-5.823C535.097,47.96,536.5,43.535,536.5,43.535z"/>
	<path fill="#FFFFFF" d="M536.15,45.02c-0.263,0.087-4.998-2.533-8.067-2.358c-3.069,0.175-5.086,0.611-5.436,2.882
		s0.789,4.192,3.507,3.843c2.718-0.349,5.261-2.184,8.33-2.096S536.15,45.02,536.15,45.02z"/>
	<path fill="#FCCB02" d="M536.588,43.185c0,0-1.754,0.524-2.543,2.184c-0.789,1.66-1.052,2.97-1.052,2.97l9.645-0.349
		C542.638,47.989,539.92,43.884,536.588,43.185z"/>
	<circle fill="#010202" cx="526.592" cy="45.631" r="1.228"/>
	<g>
		<path fill="#A0D5DA" d="M472.793,102.923c3.627,0.456,6.33,2.702,6.037,5.015c-0.293,2.314-3.471,3.82-7.099,3.363
			c-3.627-0.456-6.33-2.702-6.037-5.015C465.988,103.972,469.166,102.466,472.793,102.923z"/>
		
			<ellipse transform="matrix(0.1257 -0.9921 0.9921 0.1257 307.791 564.1497)" fill="#3558A4" cx="473.976" cy="107.444" rx="2.223" ry="3.484"/>
	</g>
	<g>
		<path fill="#A0D5DA" d="M476.497,77.982c3.442,1.228,5.592,4.003,4.803,6.199c-0.789,2.196-4.22,2.98-7.661,1.752
			c-3.442-1.228-5.592-4.003-4.803-6.199C469.625,77.538,473.055,76.754,476.497,77.982z"/>
		<path fill="#3558A4" d="M477.421,80.559c1.812,0.646,2.943,2.107,2.528,3.263s-2.221,1.568-4.032,0.922
			c-1.812-0.646-2.943-2.107-2.528-3.263C473.804,80.326,475.61,79.913,477.421,80.559z"/>
	</g>
	<g>
		<path fill="#A0D5DA" d="M482.218,49.778c3.278,1.613,5.095,4.615,4.058,6.706c-1.037,2.091-4.535,2.478-7.813,0.865
			c-3.278-1.613-5.095-4.615-4.058-6.706C475.443,48.553,478.94,48.165,482.218,49.778z"/>
		<path fill="#3558A4" d="M482.839,52.444c1.725,0.849,2.681,2.429,2.136,3.53s-2.387,1.304-4.112,0.455
			c-1.725-0.849-2.681-2.429-2.136-3.53C479.273,51.799,481.114,51.595,482.839,52.444z"/>
	</g>
	<g>
		<path fill="#A0D5DA" d="M504.981,24.933c2.108,2.976,2.266,6.478,0.353,7.822c-1.913,1.345-5.172,0.022-7.28-2.953
			c-2.108-2.976-2.266-6.478-0.353-7.822S502.873,21.957,504.981,24.933z"/>
		<path fill="#3558A4" d="M504.25,27.571c1.109,1.566,1.193,3.409,0.186,4.117c-1.007,0.708-2.722,0.012-3.832-1.554
			c-1.109-1.566-1.193-3.409-0.186-4.117C501.425,25.309,503.14,26.005,504.25,27.571z"/>
	</g>
	<g>
		<ellipse transform="matrix(1 -0.0069 0.0069 1 -0.1073 3.6186)" fill="#A0D5DA" cx="526.068" cy="17.411" rx="4.239" ry="6.594"/>
		<ellipse transform="matrix(1 -0.0069 0.0069 1 -0.1192 3.6162)" fill="#3558A4" cx="525.964" cy="19.147" rx="2.231" ry="3.471"/>
	</g>
</g>
<g id="Слой_1__x28_копия4_x29_">
	<path fill="#FCCB02" d="M673.788,147.647h-0.003c-0.433,0-0.788-0.354-0.788-0.788v-20.26c0-0.433,0.354-0.788,0.788-0.788h0.003
		c0.433,0,0.788,0.354,0.788,0.788v20.26C674.576,147.292,674.221,147.647,673.788,147.647z"/>
	<path fill="#FCCB02" d="M681.27,147.647h-0.003c-0.433,0-0.788-0.354-0.788-0.788v-20.26c0-0.433,0.354-0.788,0.788-0.788h0.003
		c0.433,0,0.788,0.354,0.788,0.788v20.26C682.058,147.292,681.703,147.647,681.27,147.647z"/>
	<path fill="#E94E1B" d="M679.457,126.335c0,0,11.749-1.397,31.39-4.716s34.02-11.18,31.39-16.77
		c-2.63-5.59-14.38-7.337-14.38-7.337S744.516,84.76,743.639,76.9c-0.959-8.594-20.868-6.638-20.868-6.638
		s15.987-18.889,12.801-26.028c-2.806-6.289-26.304-0.524-26.304-0.524s5.436-23.757,0-27.95
		c-5.436-4.192-21.394,8.734-21.394,8.734s-1.578-10.481-6.138-17.294c-3.076-4.596-5.962-4.891-5.962-4.891v125.249
		L679.457,126.335z"/>
	<g>
		<path fill="#A0D5DA" d="M728.96,102.923c-3.627,0.456-6.33,2.702-6.037,5.015s3.471,3.82,7.099,3.363
			c3.627-0.456,6.33-2.702,6.037-5.015C735.765,103.972,732.587,102.466,728.96,102.923z"/>
		
			<ellipse transform="matrix(-0.1257 -0.9921 0.9921 -0.1257 712.6897 842.9544)" fill="#3558A4" cx="727.777" cy="107.444" rx="2.223" ry="3.484"/>
	</g>
	<g>
		<path fill="#A0D5DA" d="M725.255,77.982c-3.442,1.228-5.592,4.003-4.803,6.199c0.789,2.196,4.22,2.98,7.661,1.752
			c3.442-1.228,5.592-4.003,4.803-6.199C732.127,77.538,728.697,76.754,725.255,77.982z"/>
		<path fill="#3558A4" d="M724.332,80.559c-1.812,0.646-2.943,2.107-2.528,3.263s2.221,1.568,4.032,0.922
			c1.812-0.646,2.943-2.107,2.528-3.263C727.948,80.326,726.143,79.913,724.332,80.559z"/>
	</g>
	<g>
		<path fill="#A0D5DA" d="M719.534,49.778c-3.278,1.613-5.095,4.615-4.058,6.706c1.037,2.091,4.535,2.478,7.813,0.865
			c3.278-1.613,5.095-4.615,4.058-6.706C726.31,48.553,722.812,48.165,719.534,49.778z"/>
		<path fill="#3558A4" d="M718.913,52.444c-1.725,0.849-2.681,2.429-2.136,3.53c0.546,1.1,2.387,1.304,4.112,0.455
			c1.725-0.849,2.681-2.429,2.136-3.53C722.479,51.799,720.638,51.595,718.913,52.444z"/>
	</g>
	<g>
		<path fill="#A0D5DA" d="M696.772,24.933c-2.108,2.976-2.266,6.478-0.353,7.822c1.913,1.345,5.172,0.022,7.28-2.953
			c2.108-2.976,2.266-6.478,0.353-7.822S698.88,21.957,696.772,24.933z"/>
		<path fill="#3558A4" d="M697.503,27.571c-1.109,1.566-1.193,3.409-0.186,4.117c1.007,0.708,2.722,0.012,3.832-1.554
			c1.109-1.566,1.193-3.409,0.186-4.117C700.328,25.309,698.612,26.005,697.503,27.571z"/>
	</g>
	<path fill="#E94E1B" d="M672.296,126.335c0,0-11.749-1.397-31.39-4.716s-34.02-11.18-31.39-16.77
		c2.63-5.59,14.38-7.337,14.38-7.337S607.237,84.76,608.113,76.9c0.959-8.594,20.868-6.638,20.868-6.638
		s-15.987-18.889-12.801-26.028c2.806-6.289,26.304-0.524,26.304-0.524s-5.436-23.757,0-27.95s21.394,8.734,21.394,8.734
		s1.578-10.481,6.138-17.294c3.076-4.596,5.962-4.891,5.962-4.891v125.249L672.296,126.335z"/>
	<path fill="#E30613" d="M674.927,104.936c0,0,0.526-7.599-3.77-6.987s-6.138,11.442-6.664,16.944
		c-0.526,5.503,2.017,10.481,6.225,11.267C674.927,126.947,674.927,104.936,674.927,104.936z"/>
	<path fill="#E30613" d="M679.526,104.936c0,0-0.526-7.599,3.77-6.987s6.138,11.442,6.664,16.944
		c0.526,5.503-2.017,10.481-6.225,11.267C679.526,126.947,679.526,104.936,679.526,104.936z"/>
	<g>
		<g>
			<g>
				<path fill="#FFED00" d="M672.697,43.305c-2.261-0.832-4.757-1.021-7.119-0.54"/>
				<g>
					<path fill="#FFED00" d="M673,41.782c-2.125-1.522-6.053-2.015-8.163-0.358c-1.167,0.916-0.291,2.517,0.779,2.95
						c0.987,0.399,2.004,0.175,3.043,0.166c1.186-0.011,2.365,0.21,3.55,0.165C673.845,44.642,674.248,42.675,673,41.782L673,41.782
						z"/>
				</g>
			</g>
			<ellipse fill="#FFED00" stroke="#FFED00" stroke-miterlimit="10" cx="665.749" cy="43.185" rx="2.017" ry="2.009"/>
		</g>
		<g>
			<g>
				<path fill="#FFED00" d="M673.889,42.31c-1.573-1.82-3.664-3.191-5.964-3.91"/>
				<g>
					<path fill="#FFED00" d="M675.031,41.642c-0.287-1.428-1.561-2.503-2.68-3.328c-1.221-0.9-2.958-2.007-4.511-1.411
						c-1.015,0.39-1.564,1.446-1.002,2.462c0.673,1.217,2.027,1.559,3.162,2.217c1.066,0.617,2.042,1.527,3.251,1.839
						C674.372,43.71,675.246,42.713,675.031,41.642L675.031,41.642z"/>
				</g>
			</g>
			<path fill="#FFED00" stroke="#FFED00" stroke-miterlimit="10" d="M669.634,39.824c0.54-0.97,0.188-2.193-0.786-2.731
				c-0.974-0.538-2.202-0.187-2.742,0.783c-0.54,0.97-0.188,2.193,0.786,2.731C667.867,41.145,669.094,40.795,669.634,39.824z"/>
		</g>
		<g>
			<g>
				<path fill="#FFED00" d="M675,41.773c-0.252-2.388-1.187-4.702-2.666-6.598"/>
				<g>
					<path fill="#FFED00" d="M676.405,41.729c0.382-1.471,0.046-3.003-0.501-4.392c-0.577-1.467-1.223-2.976-2.841-3.462
						c-1.125-0.338-2.117,0.574-2.181,1.661c-0.075,1.283,0.775,2.265,1.321,3.361c0.522,1.048,0.8,2.205,1.435,3.193
						C674.326,43.163,676.063,43.045,676.405,41.729L676.405,41.729z"/>
				</g>
			</g>
			<path fill="#FFED00" stroke="#FFED00" stroke-miterlimit="10" d="M672.924,37.317c0.999-0.491,1.409-1.696,0.915-2.691
				c-0.493-0.995-1.702-1.403-2.701-0.912c-0.999,0.491-1.409,1.696-0.915,2.691C670.716,37.4,671.926,37.808,672.924,37.317z"/>
		</g>
	</g>
	<path fill="#FCEA10" d="M686.5,43.535c0,0-4.91-4.542-9.703-3.61c-4.793,0.932-8.184,5.357-7.599,14.091s4.91,29.929,5.378,35.403
		c0.468,5.473-2.578,17.206-4.793,21.195c-2.134,3.843-3.156,11.296,0.935,16.187c4.092,4.891,9.703,3.028,11.925,1.397
		s5.953-6.232,4.209-15.139c-1.403-7.162-7.248-10.248-8.067-22.709c-0.818-12.461-2.806-33.307-1.87-36.334
		c0.935-3.028,2.806-5.59,5.495-5.823S686.5,43.535,686.5,43.535z"/>
	<path fill="#FFFFFF" d="M686.15,45.02c-0.263,0.087-4.998-2.533-8.067-2.358c-3.069,0.175-5.086,0.611-5.436,2.882
		s0.789,4.192,3.507,3.843c2.718-0.349,5.261-2.184,8.33-2.096C687.553,47.378,686.15,45.02,686.15,45.02z"/>
	<path fill="#FCCB02" d="M686.588,43.185c0,0-1.754,0.524-2.543,2.184s-1.052,2.97-1.052,2.97l9.645-0.349
		C692.638,47.989,689.92,43.884,686.588,43.185z"/>
	<circle fill="#010202" cx="676.592" cy="45.631" r="1.228"/>
	<g>
		<path fill="#A0D5DA" d="M622.793,102.923c3.627,0.456,6.33,2.702,6.037,5.015s-3.471,3.82-7.099,3.363
			c-3.627-0.456-6.33-2.702-6.037-5.015S619.166,102.466,622.793,102.923z"/>
		
			<ellipse transform="matrix(0.1257 -0.9921 0.9921 0.1257 438.9314 712.9594)" fill="#3558A4" cx="623.976" cy="107.444" rx="2.223" ry="3.484"/>
	</g>
	<g>
		<path fill="#A0D5DA" d="M626.497,77.982c3.442,1.228,5.592,4.003,4.803,6.199c-0.789,2.196-4.22,2.98-7.661,1.752
			c-3.442-1.228-5.592-4.003-4.803-6.199C619.625,77.538,623.055,76.754,626.497,77.982z"/>
		<path fill="#3558A4" d="M627.421,80.559c1.812,0.646,2.943,2.107,2.528,3.263s-2.221,1.568-4.032,0.922
			c-1.812-0.646-2.943-2.107-2.528-3.263C623.804,80.326,625.61,79.913,627.421,80.559z"/>
	</g>
	<g>
		<path fill="#A0D5DA" d="M632.218,49.778c3.278,1.613,5.095,4.615,4.058,6.706c-1.037,2.091-4.535,2.478-7.813,0.865
			c-3.278-1.613-5.095-4.615-4.058-6.706C625.443,48.553,628.94,48.165,632.218,49.778z"/>
		<path fill="#3558A4" d="M632.84,52.444c1.725,0.849,2.681,2.429,2.136,3.53s-2.387,1.304-4.112,0.455
			c-1.725-0.849-2.681-2.429-2.136-3.53C629.273,51.799,631.114,51.595,632.84,52.444z"/>
	</g>
	<g>
		<path fill="#A0D5DA" d="M654.981,24.933c2.108,2.976,2.266,6.478,0.353,7.822c-1.913,1.345-5.172,0.022-7.28-2.953
			s-2.266-6.478-0.353-7.822C649.614,20.635,652.873,21.957,654.981,24.933z"/>
		<path fill="#3558A4" d="M654.25,27.571c1.109,1.566,1.193,3.409,0.186,4.117c-1.007,0.708-2.722,0.012-3.832-1.554
			c-1.109-1.566-1.193-3.409-0.186-4.117C651.425,25.309,653.141,26.005,654.25,27.571z"/>
	</g>
	<g>
		<ellipse transform="matrix(1 -0.0069 0.0069 1 -0.1038 4.6503)" fill="#A0D5DA" cx="676.068" cy="17.411" rx="4.239" ry="6.594"/>
		<ellipse transform="matrix(1 -0.0069 0.0069 1 -0.1157 4.6474)" fill="#3558A4" cx="675.964" cy="19.147" rx="2.231" ry="3.471"/>
	</g>
</g>
<g id="Слой_1__x28_копия5_x29_">
	<path fill="#FCCB02" d="M823.788,147.647h-0.003c-0.433,0-0.788-0.354-0.788-0.788v-20.26c0-0.433,0.354-0.788,0.788-0.788h0.003
		c0.433,0,0.788,0.354,0.788,0.788v20.26C824.576,147.292,824.221,147.647,823.788,147.647z"/>
	<path fill="#FCCB02" d="M831.27,147.647h-0.003c-0.433,0-0.788-0.354-0.788-0.788v-20.26c0-0.433,0.354-0.788,0.788-0.788h0.003
		c0.433,0,0.788,0.354,0.788,0.788v20.26C832.058,147.292,831.703,147.647,831.27,147.647z"/>
	<path fill="#9AC320" d="M829.457,126.335c0,0,11.749-1.397,31.39-4.716c19.641-3.319,34.02-11.18,31.39-16.77
		c-2.63-5.59-14.38-7.337-14.38-7.337S894.516,84.76,893.639,76.9c-0.959-8.594-20.868-6.638-20.868-6.638
		s15.987-18.889,12.801-26.028c-2.806-6.289-26.304-0.524-26.304-0.524s5.436-23.757,0-27.95s-21.394,8.734-21.394,8.734
		s-1.578-10.481-6.138-17.294c-3.076-4.596-5.962-4.891-5.962-4.891v125.249L829.457,126.335z"/>
	<g>
		<path fill="#E30613" d="M878.96,102.923c-3.627,0.456-6.33,2.702-6.037,5.015s3.471,3.82,7.099,3.363
			c3.627-0.456,6.33-2.702,6.037-5.015C885.765,103.972,882.587,102.466,878.96,102.923z"/>
		
			<ellipse transform="matrix(-0.1257 -0.9921 0.9921 -0.1257 881.5494 991.7642)" fill="#3558A4" cx="877.777" cy="107.444" rx="2.223" ry="3.484"/>
	</g>
	<g>
		<path fill="#E30613" d="M875.255,77.982c-3.442,1.228-5.592,4.003-4.803,6.199c0.789,2.196,4.22,2.98,7.661,1.752
			c3.442-1.228,5.592-4.003,4.803-6.199C882.127,77.538,878.697,76.754,875.255,77.982z"/>
		<path fill="#3558A4" d="M874.332,80.559c-1.812,0.646-2.943,2.107-2.528,3.263s2.221,1.568,4.032,0.922
			c1.812-0.646,2.943-2.107,2.528-3.263C877.948,80.326,876.143,79.913,874.332,80.559z"/>
	</g>
	<g>
		<path fill="#E30613" d="M869.534,49.778c-3.278,1.613-5.095,4.615-4.058,6.706c1.037,2.091,4.535,2.478,7.812,0.865
			c3.278-1.613,5.095-4.615,4.058-6.706C876.31,48.553,872.812,48.165,869.534,49.778z"/>
		<path fill="#3558A4" d="M868.913,52.444c-1.725,0.849-2.681,2.429-2.136,3.53s2.387,1.304,4.112,0.455
			c1.725-0.849,2.681-2.429,2.136-3.53C872.479,51.799,870.638,51.595,868.913,52.444z"/>
	</g>
	<g>
		<path fill="#E30613" d="M846.772,24.933c-2.108,2.976-2.266,6.478-0.353,7.822c1.913,1.345,5.172,0.022,7.28-2.953
			s2.266-6.478,0.353-7.822C852.139,20.635,848.88,21.957,846.772,24.933z"/>
		<path fill="#3558A4" d="M847.503,27.571c-1.109,1.566-1.193,3.409-0.186,4.117c1.007,0.708,2.722,0.012,3.832-1.554
			c1.109-1.566,1.193-3.409,0.186-4.117C850.328,25.309,848.612,26.005,847.503,27.571z"/>
	</g>
	<path fill="#9AC320" d="M822.296,126.335c0,0-11.749-1.397-31.39-4.716c-19.641-3.319-34.02-11.18-31.39-16.77
		c2.63-5.59,14.38-7.337,14.38-7.337S757.237,84.76,758.113,76.9c0.958-8.594,20.868-6.638,20.868-6.638
		s-15.987-18.889-12.801-26.028c2.806-6.289,26.304-0.524,26.304-0.524s-5.436-23.757,0-27.95s21.394,8.734,21.394,8.734
		s1.578-10.481,6.138-17.294c3.076-4.596,5.962-4.891,5.962-4.891v125.249L822.296,126.335z"/>
	<path fill="#E30613" d="M824.927,104.936c0,0,0.526-7.599-3.77-6.987s-6.138,11.442-6.664,16.944
		c-0.526,5.503,2.017,10.481,6.225,11.267S824.927,104.936,824.927,104.936z"/>
	<path fill="#E30613" d="M829.526,104.936c0,0-0.526-7.599,3.77-6.987s6.138,11.442,6.664,16.944
		c0.526,5.503-2.017,10.481-6.225,11.267S829.526,104.936,829.526,104.936z"/>
	<g>
		<g>
			<g>
				<path fill="#FFED00" d="M822.697,43.305c-2.262-0.832-4.758-1.021-7.119-0.54"/>
				<g>
					<path fill="#FFED00" d="M823,41.782c-2.125-1.522-6.053-2.015-8.163-0.358c-1.167,0.916-0.291,2.517,0.779,2.95
						c0.987,0.399,2.004,0.175,3.043,0.166c1.186-0.011,2.365,0.21,3.55,0.165C823.845,44.642,824.248,42.675,823,41.782L823,41.782
						z"/>
				</g>
			</g>
			<ellipse fill="#FFED00" stroke="#FFED00" stroke-miterlimit="10" cx="815.749" cy="43.185" rx="2.017" ry="2.009"/>
		</g>
		<g>
			<g>
				<path fill="#FFED00" d="M823.889,42.31c-1.573-1.82-3.664-3.191-5.964-3.91"/>
				<g>
					<path fill="#FFED00" d="M825.031,41.642c-0.287-1.428-1.561-2.503-2.68-3.328c-1.221-0.9-2.959-2.007-4.511-1.411
						c-1.015,0.39-1.564,1.446-1.002,2.462c0.673,1.217,2.027,1.559,3.162,2.217c1.066,0.617,2.042,1.527,3.251,1.839
						C824.372,43.71,825.246,42.713,825.031,41.642L825.031,41.642z"/>
				</g>
			</g>
			<path fill="#FFED00" stroke="#FFED00" stroke-miterlimit="10" d="M819.634,39.824c0.54-0.97,0.188-2.193-0.786-2.731
				c-0.974-0.538-2.202-0.187-2.742,0.783c-0.54,0.97-0.188,2.193,0.786,2.731C817.867,41.145,819.094,40.795,819.634,39.824z"/>
		</g>
		<g>
			<g>
				<path fill="#FFED00" d="M825,41.773c-0.252-2.388-1.187-4.702-2.666-6.598"/>
				<g>
					<path fill="#FFED00" d="M826.405,41.729c0.382-1.471,0.046-3.003-0.501-4.392c-0.577-1.467-1.223-2.976-2.841-3.462
						c-1.125-0.338-2.117,0.574-2.181,1.661c-0.075,1.283,0.775,2.265,1.321,3.361c0.522,1.048,0.8,2.205,1.435,3.193
						C824.326,43.163,826.063,43.045,826.405,41.729L826.405,41.729z"/>
				</g>
			</g>
			<path fill="#FFED00" stroke="#FFED00" stroke-miterlimit="10" d="M822.924,37.317c0.999-0.491,1.409-1.696,0.915-2.691
				c-0.493-0.995-1.702-1.403-2.701-0.912c-0.999,0.491-1.409,1.696-0.915,2.691C820.716,37.4,821.926,37.808,822.924,37.317z"/>
		</g>
	</g>
	<path fill="#FCEA10" d="M836.5,43.535c0,0-4.91-4.542-9.703-3.61c-4.793,0.932-8.184,5.357-7.599,14.091
		c0.584,8.734,4.91,29.929,5.378,35.403s-2.578,17.206-4.793,21.195c-2.134,3.843-3.156,11.296,0.935,16.187
		c4.092,4.891,9.703,3.028,11.925,1.397s5.953-6.232,4.209-15.139c-1.403-7.162-7.248-10.248-8.067-22.709
		c-0.818-12.461-2.806-33.307-1.871-36.334c0.935-3.028,2.806-5.59,5.495-5.823C835.098,47.96,836.5,43.535,836.5,43.535z"/>
	<path fill="#FFFFFF" d="M836.15,45.02c-0.263,0.087-4.998-2.533-8.067-2.358c-3.069,0.175-5.086,0.611-5.436,2.882
		s0.789,4.192,3.507,3.843c2.718-0.349,5.261-2.184,8.33-2.096S836.15,45.02,836.15,45.02z"/>
	<path fill="#FCCB02" d="M836.588,43.185c0,0-1.754,0.524-2.543,2.184c-0.789,1.66-1.052,2.97-1.052,2.97l9.645-0.349
		C842.638,47.989,839.92,43.884,836.588,43.185z"/>
	<circle fill="#010202" cx="826.592" cy="45.631" r="1.228"/>
	<g>
		<path fill="#E30613" d="M772.793,102.923c3.627,0.456,6.33,2.702,6.037,5.015s-3.471,3.82-7.099,3.363
			c-3.627-0.456-6.33-2.702-6.037-5.015C765.988,103.972,769.166,102.466,772.793,102.923z"/>
		
			<ellipse transform="matrix(0.1257 -0.9921 0.9921 0.1257 570.0717 861.769)" fill="#3558A4" cx="773.976" cy="107.444" rx="2.223" ry="3.484"/>
	</g>
	<g>
		<path fill="#E30613" d="M776.497,77.982c3.442,1.228,5.592,4.003,4.803,6.199c-0.789,2.196-4.219,2.98-7.661,1.752
			c-3.442-1.228-5.592-4.003-4.803-6.199C769.625,77.538,773.056,76.754,776.497,77.982z"/>
		<path fill="#3558A4" d="M777.421,80.559c1.812,0.646,2.943,2.107,2.528,3.263c-0.416,1.156-2.221,1.568-4.032,0.922
			c-1.812-0.646-2.943-2.107-2.528-3.263C773.804,80.326,775.61,79.913,777.421,80.559z"/>
	</g>
	<g>
		<path fill="#E30613" d="M782.218,49.778c3.278,1.613,5.095,4.615,4.058,6.706c-1.037,2.091-4.535,2.478-7.813,0.865
			c-3.278-1.613-5.095-4.615-4.058-6.706C775.443,48.553,778.94,48.165,782.218,49.778z"/>
		<path fill="#3558A4" d="M782.84,52.444c1.725,0.849,2.681,2.429,2.136,3.53s-2.387,1.304-4.112,0.455
			c-1.725-0.849-2.681-2.429-2.136-3.53C779.273,51.799,781.114,51.595,782.84,52.444z"/>
	</g>
	<g>
		<path fill="#E30613" d="M804.981,24.933c2.108,2.976,2.266,6.478,0.353,7.822c-1.913,1.345-5.172,0.022-7.28-2.953
			s-2.266-6.478-0.353-7.822S802.873,21.957,804.981,24.933z"/>
		<path fill="#3558A4" d="M804.25,27.571c1.109,1.566,1.193,3.409,0.186,4.117c-1.007,0.708-2.722,0.012-3.832-1.554
			c-1.109-1.566-1.193-3.409-0.186-4.117C801.425,25.309,803.141,26.005,804.25,27.571z"/>
	</g>
	<g>
		<ellipse transform="matrix(1 -0.0069 0.0069 1 -0.1002 5.682)" fill="#E30613" cx="826.068" cy="17.411" rx="4.239" ry="6.594"/>
		<ellipse transform="matrix(1 -0.0069 0.0069 1 -0.1121 5.6786)" fill="#3558A4" cx="825.964" cy="19.147" rx="2.231" ry="3.471"/>
	</g>
</g>
<g id="Слой_1__x28_копия6_x29_">
	<path fill="#FCCB02" d="M973.788,147.647h-0.003c-0.433,0-0.788-0.354-0.788-0.788v-20.26c0-0.433,0.354-0.788,0.788-0.788h0.003
		c0.433,0,0.788,0.354,0.788,0.788v20.26C974.576,147.292,974.221,147.647,973.788,147.647z"/>
	<path fill="#FCCB02" d="M981.27,147.647h-0.003c-0.433,0-0.788-0.354-0.788-0.788v-20.26c0-0.433,0.354-0.788,0.788-0.788h0.003
		c0.433,0,0.788,0.354,0.788,0.788v20.26C982.058,147.292,981.703,147.647,981.27,147.647z"/>
	<path fill="#9AC320" d="M979.457,126.335c0,0,11.749-1.397,31.39-4.716c19.641-3.319,34.02-11.18,31.39-16.77
		c-2.63-5.59-14.38-7.337-14.38-7.337s16.659-12.752,15.783-20.613c-0.958-8.594-20.868-6.638-20.868-6.638
		s15.987-18.889,12.801-26.028c-2.806-6.289-26.304-0.524-26.304-0.524s5.436-23.757,0-27.95
		c-5.436-4.192-21.394,8.734-21.394,8.734s-1.578-10.481-6.138-17.294c-3.076-4.596-5.962-4.891-5.962-4.891v125.249
		L979.457,126.335z"/>
	<g>
		<path fill="#E30613" d="M1028.96,102.923c-3.627,0.456-6.33,2.702-6.037,5.015c0.293,2.314,3.471,3.82,7.099,3.363
			c3.627-0.456,6.33-2.702,6.037-5.015S1032.587,102.466,1028.96,102.923z"/>
		
			<ellipse transform="matrix(-0.1257 -0.9921 0.9921 -0.1257 1050.4091 1140.5737)" fill="#FFED00" cx="1027.777" cy="107.444" rx="2.223" ry="3.484"/>
	</g>
	<g>
		<path fill="#E30613" d="M1025.255,77.982c-3.442,1.228-5.592,4.003-4.803,6.199c0.789,2.196,4.22,2.98,7.661,1.752
			c3.442-1.228,5.592-4.003,4.803-6.199C1032.127,77.538,1028.697,76.754,1025.255,77.982z"/>
		<path fill="#FFED00" d="M1024.332,80.559c-1.812,0.646-2.943,2.107-2.528,3.263s2.221,1.568,4.032,0.922
			c1.812-0.646,2.943-2.107,2.528-3.263C1027.948,80.326,1026.143,79.913,1024.332,80.559z"/>
	</g>
	<g>
		<path fill="#E30613" d="M1019.534,49.778c-3.278,1.613-5.095,4.615-4.058,6.706c1.037,2.091,4.535,2.478,7.813,0.865
			c3.278-1.613,5.095-4.615,4.058-6.706C1026.31,48.553,1022.812,48.165,1019.534,49.778z"/>
		<path fill="#FFED00" d="M1018.913,52.444c-1.725,0.849-2.681,2.429-2.136,3.53s2.387,1.304,4.112,0.455
			c1.725-0.849,2.681-2.429,2.136-3.53C1022.479,51.799,1020.639,51.595,1018.913,52.444z"/>
	</g>
	<g>
		<path fill="#E30613" d="M996.772,24.933c-2.108,2.976-2.266,6.478-0.353,7.822c1.913,1.345,5.172,0.022,7.28-2.953
			s2.266-6.478,0.353-7.822C1002.139,20.635,998.88,21.957,996.772,24.933z"/>
		<path fill="#FFED00" d="M997.503,27.571c-1.109,1.566-1.193,3.409-0.186,4.117c1.007,0.708,2.722,0.012,3.832-1.554
			c1.109-1.566,1.193-3.409,0.186-4.117C1000.328,25.309,998.612,26.005,997.503,27.571z"/>
	</g>
	<path fill="#9AC320" d="M972.296,126.335c0,0-11.749-1.397-31.39-4.716c-19.641-3.319-34.02-11.18-31.39-16.77
		c2.63-5.59,14.38-7.337,14.38-7.337S907.237,84.76,908.113,76.9c0.959-8.594,20.868-6.638,20.868-6.638
		s-15.987-18.889-12.801-26.028c2.806-6.289,26.304-0.524,26.304-0.524s-5.436-23.757,0-27.95s21.394,8.734,21.394,8.734
		s1.578-10.481,6.138-17.294c3.076-4.596,5.962-4.891,5.962-4.891v125.249L972.296,126.335z"/>
	<path fill="#E30613" d="M974.927,104.936c0,0,0.526-7.599-3.77-6.987s-6.138,11.442-6.664,16.944
		c-0.526,5.503,2.017,10.481,6.225,11.267C974.927,126.947,974.927,104.936,974.927,104.936z"/>
	<path fill="#E30613" d="M979.526,104.936c0,0-0.526-7.599,3.77-6.987s6.138,11.442,6.664,16.944
		c0.526,5.503-2.017,10.481-6.225,11.267S979.526,104.936,979.526,104.936z"/>
	<g>
		<g>
			<g>
				<path fill="#FFED00" d="M972.697,43.305c-2.261-0.832-4.757-1.021-7.119-0.54"/>
				<g>
					<path fill="#FFED00" d="M973,41.782c-2.125-1.522-6.053-2.015-8.163-0.358c-1.167,0.916-0.291,2.517,0.779,2.95
						c0.987,0.399,2.004,0.175,3.043,0.166c1.186-0.011,2.365,0.21,3.55,0.165C973.845,44.642,974.248,42.675,973,41.782L973,41.782
						z"/>
				</g>
			</g>
			<ellipse fill="#FFED00" stroke="#FFED00" stroke-miterlimit="10" cx="965.749" cy="43.185" rx="2.017" ry="2.009"/>
		</g>
		<g>
			<g>
				<path fill="#FFED00" d="M973.889,42.31c-1.573-1.82-3.664-3.191-5.964-3.91"/>
				<g>
					<path fill="#FFED00" d="M975.031,41.642c-0.287-1.428-1.561-2.503-2.68-3.328c-1.221-0.9-2.958-2.007-4.511-1.411
						c-1.015,0.39-1.564,1.446-1.002,2.462c0.673,1.217,2.027,1.559,3.162,2.217c1.066,0.617,2.042,1.527,3.251,1.839
						C974.372,43.71,975.246,42.713,975.031,41.642L975.031,41.642z"/>
				</g>
			</g>
			<path fill="#FFED00" stroke="#FFED00" stroke-miterlimit="10" d="M969.634,39.824c0.54-0.97,0.188-2.193-0.786-2.731
				c-0.974-0.538-2.202-0.187-2.741,0.783c-0.54,0.97-0.188,2.193,0.786,2.731C967.867,41.145,969.094,40.795,969.634,39.824z"/>
		</g>
		<g>
			<g>
				<path fill="#FFED00" d="M975,41.773c-0.252-2.388-1.187-4.702-2.666-6.598"/>
				<g>
					<path fill="#FFED00" d="M976.405,41.729c0.382-1.471,0.046-3.003-0.501-4.392c-0.577-1.467-1.223-2.976-2.841-3.462
						c-1.125-0.338-2.117,0.574-2.181,1.661c-0.075,1.283,0.775,2.265,1.321,3.361c0.522,1.048,0.8,2.205,1.435,3.193
						C974.326,43.163,976.063,43.045,976.405,41.729L976.405,41.729z"/>
				</g>
			</g>
			<path fill="#FFED00" stroke="#FFED00" stroke-miterlimit="10" d="M972.924,37.317c0.999-0.491,1.409-1.696,0.915-2.691
				c-0.493-0.995-1.702-1.403-2.701-0.912c-0.999,0.491-1.408,1.696-0.915,2.691C970.716,37.4,971.926,37.808,972.924,37.317z"/>
		</g>
	</g>
	<path fill="#5D7ABC" d="M986.5,43.535c0,0-4.91-4.542-9.703-3.61c-4.793,0.932-8.184,5.357-7.599,14.091
		c0.585,8.734,4.91,29.929,5.378,35.403c0.468,5.473-2.578,17.206-4.793,21.195c-2.134,3.843-3.157,11.296,0.935,16.187
		s9.703,3.028,11.925,1.397s5.953-6.232,4.209-15.139c-1.403-7.162-7.248-10.248-8.067-22.709
		c-0.818-12.461-2.806-33.307-1.87-36.334c0.935-3.028,2.806-5.59,5.495-5.823C985.098,47.96,986.5,43.535,986.5,43.535z"/>
	<path fill="#FFFFFF" d="M986.15,45.02c-0.263,0.087-4.998-2.533-8.067-2.358c-3.069,0.175-5.086,0.611-5.436,2.882
		c-0.351,2.271,0.789,4.192,3.507,3.843c2.718-0.349,5.261-2.184,8.33-2.096S986.15,45.02,986.15,45.02z"/>
	<path fill="#FCCB02" d="M986.588,43.185c0,0-1.754,0.524-2.543,2.184c-0.789,1.66-1.052,2.97-1.052,2.97l9.645-0.349
		C992.638,47.989,989.92,43.884,986.588,43.185z"/>
	<circle fill="#010202" cx="976.592" cy="45.631" r="1.228"/>
	<g>
		<path fill="#E30613" d="M922.793,102.923c3.627,0.456,6.33,2.702,6.037,5.015s-3.471,3.82-7.099,3.363
			c-3.627-0.456-6.33-2.702-6.037-5.015C915.988,103.972,919.166,102.466,922.793,102.923z"/>
		
			<ellipse transform="matrix(0.1257 -0.9921 0.9921 0.1257 701.212 1010.5787)" fill="#FFED00" cx="923.976" cy="107.444" rx="2.223" ry="3.484"/>
	</g>
	<g>
		<path fill="#E30613" d="M926.497,77.982c3.442,1.228,5.592,4.003,4.803,6.199c-0.789,2.196-4.22,2.98-7.661,1.752
			c-3.442-1.228-5.592-4.003-4.803-6.199C919.625,77.538,923.056,76.754,926.497,77.982z"/>
		<path fill="#FFED00" d="M927.421,80.559c1.812,0.646,2.943,2.107,2.528,3.263s-2.221,1.568-4.032,0.922
			c-1.812-0.646-2.943-2.107-2.528-3.263C923.804,80.326,925.61,79.913,927.421,80.559z"/>
	</g>
	<g>
		<path fill="#E30613" d="M932.218,49.778c3.278,1.613,5.095,4.615,4.058,6.706c-1.037,2.091-4.535,2.478-7.813,0.865
			c-3.278-1.613-5.095-4.615-4.058-6.706C925.443,48.553,928.941,48.165,932.218,49.778z"/>
		<path fill="#FFED00" d="M932.84,52.444c1.725,0.849,2.681,2.429,2.136,3.53s-2.387,1.304-4.112,0.455
			c-1.725-0.849-2.681-2.429-2.136-3.53C929.273,51.799,931.114,51.595,932.84,52.444z"/>
	</g>
	<g>
		<path fill="#E30613" d="M954.981,24.933c2.108,2.976,2.266,6.478,0.353,7.822c-1.913,1.345-5.172,0.022-7.28-2.953
			s-2.266-6.478-0.353-7.822C949.614,20.635,952.873,21.957,954.981,24.933z"/>
		<path fill="#FFED00" d="M954.25,27.571c1.109,1.566,1.193,3.409,0.186,4.117c-1.007,0.708-2.722,0.012-3.832-1.554
			c-1.109-1.566-1.193-3.409-0.186-4.117C951.425,25.309,953.141,26.005,954.25,27.571z"/>
	</g>
	<g>
		<ellipse transform="matrix(1 -0.0069 0.0069 1 -0.0967 6.7136)" fill="#E30613" cx="976.068" cy="17.411" rx="4.239" ry="6.594"/>
		<ellipse transform="matrix(1 -0.0069 0.0069 1 -0.1086 6.7097)" fill="#FFED00" cx="975.964" cy="19.147" rx="2.231" ry="3.471"/>
	</g>
</g>
<g id="Слой_1__x28_копия7_x29_">
	<path fill="#FCCB02" d="M1123.788,147.647h-0.003c-0.433,0-0.788-0.354-0.788-0.788v-20.26c0-0.433,0.354-0.788,0.788-0.788h0.003
		c0.433,0,0.788,0.354,0.788,0.788v20.26C1124.576,147.292,1124.221,147.647,1123.788,147.647z"/>
	<path fill="#FCCB02" d="M1131.27,147.647h-0.003c-0.433,0-0.788-0.354-0.788-0.788v-20.26c0-0.433,0.354-0.788,0.788-0.788h0.003
		c0.433,0,0.788,0.354,0.788,0.788v20.26C1132.058,147.292,1131.703,147.647,1131.27,147.647z"/>
	<path fill="#9AC320" d="M1129.457,126.335c0,0,11.749-1.397,31.39-4.716s34.02-11.18,31.39-16.77
		c-2.63-5.59-14.38-7.337-14.38-7.337s16.659-12.752,15.783-20.613c-0.958-8.594-20.868-6.638-20.868-6.638
		s15.987-18.889,12.801-26.028c-2.806-6.289-26.304-0.524-26.304-0.524s5.436-23.757,0-27.95s-21.394,8.734-21.394,8.734
		s-1.578-10.481-6.138-17.294c-3.076-4.596-5.962-4.891-5.962-4.891v125.249L1129.457,126.335z"/>
	<g>
		<path fill="#E30613" d="M1178.96,102.923c-3.627,0.456-6.33,2.702-6.037,5.015s3.471,3.82,7.099,3.363
			c3.627-0.456,6.33-2.702,6.037-5.015S1182.587,102.466,1178.96,102.923z"/>
		
			<ellipse transform="matrix(-0.1257 -0.9921 0.9921 -0.1257 1219.2689 1289.3835)" fill="#FFED00" cx="1177.777" cy="107.444" rx="2.223" ry="3.484"/>
	</g>
	<g>
		<path fill="#E30613" d="M1175.255,77.982c-3.442,1.228-5.592,4.003-4.803,6.199c0.789,2.196,4.22,2.98,7.661,1.752
			c3.442-1.228,5.592-4.003,4.803-6.199C1182.127,77.538,1178.697,76.754,1175.255,77.982z"/>
		<path fill="#FFED00" d="M1174.332,80.559c-1.812,0.646-2.943,2.107-2.528,3.263c0.416,1.156,2.221,1.568,4.032,0.922
			c1.812-0.646,2.943-2.107,2.528-3.263C1177.948,80.326,1176.143,79.913,1174.332,80.559z"/>
	</g>
	<g>
		<path fill="#E30613" d="M1169.535,49.778c-3.278,1.613-5.095,4.615-4.058,6.706c1.037,2.091,4.535,2.478,7.813,0.865
			c3.278-1.613,5.095-4.615,4.058-6.706C1176.31,48.553,1172.812,48.165,1169.535,49.778z"/>
		<path fill="#FFED00" d="M1168.913,52.444c-1.725,0.849-2.681,2.429-2.136,3.53c0.546,1.1,2.387,1.304,4.112,0.455
			c1.725-0.849,2.681-2.429,2.136-3.53C1172.479,51.799,1170.639,51.595,1168.913,52.444z"/>
	</g>
	<g>
		<path fill="#E30613" d="M1146.772,24.933c-2.108,2.976-2.266,6.478-0.353,7.822c1.913,1.345,5.172,0.022,7.28-2.953
			s2.266-6.478,0.353-7.822S1148.88,21.957,1146.772,24.933z"/>
		<path fill="#FFED00" d="M1147.503,27.571c-1.109,1.566-1.193,3.409-0.186,4.117c1.007,0.708,2.722,0.012,3.832-1.554
			c1.109-1.566,1.193-3.409,0.186-4.117C1150.328,25.309,1148.612,26.005,1147.503,27.571z"/>
	</g>
	<path fill="#9AC320" d="M1122.296,126.335c0,0-11.749-1.397-31.39-4.716s-34.02-11.18-31.39-16.77
		c2.63-5.59,14.38-7.337,14.38-7.337s-16.659-12.752-15.783-20.613c0.958-8.594,20.868-6.638,20.868-6.638
		s-15.987-18.889-12.801-26.028c2.806-6.289,26.304-0.524,26.304-0.524s-5.436-23.757,0-27.95
		c5.436-4.192,21.394,8.734,21.394,8.734s1.578-10.481,6.138-17.294c3.076-4.596,5.962-4.891,5.962-4.891v125.249L1122.296,126.335z
		"/>
	<path fill="#3558A4" d="M1124.927,104.936c0,0,0.526-7.599-3.77-6.987s-6.138,11.442-6.664,16.944
		c-0.526,5.503,2.017,10.481,6.225,11.267S1124.927,104.936,1124.927,104.936z"/>
	<path fill="#3558A4" d="M1129.526,104.936c0,0-0.526-7.599,3.77-6.987s6.138,11.442,6.664,16.944
		c0.526,5.503-2.017,10.481-6.225,11.267C1129.526,126.947,1129.526,104.936,1129.526,104.936z"/>
	<g>
		<g>
			<g>
				<path fill="#FFED00" d="M1122.697,43.305c-2.261-0.832-4.757-1.021-7.119-0.54"/>
				<g>
					<path fill="#FFED00" d="M1123,41.782c-2.125-1.522-6.053-2.015-8.163-0.358c-1.167,0.916-0.291,2.517,0.779,2.95
						c0.987,0.399,2.004,0.175,3.043,0.166c1.186-0.011,2.365,0.21,3.55,0.165C1123.845,44.642,1124.248,42.675,1123,41.782
						L1123,41.782z"/>
				</g>
			</g>
			<ellipse fill="#FFED00" stroke="#FFED00" stroke-miterlimit="10" cx="1115.749" cy="43.185" rx="2.017" ry="2.009"/>
		</g>
		<g>
			<g>
				<path fill="#FFED00" d="M1123.889,42.31c-1.573-1.82-3.664-3.191-5.964-3.91"/>
				<g>
					<path fill="#FFED00" d="M1125.031,41.642c-0.287-1.428-1.561-2.503-2.679-3.328c-1.221-0.9-2.958-2.007-4.511-1.411
						c-1.015,0.39-1.564,1.446-1.002,2.462c0.673,1.217,2.027,1.559,3.162,2.217c1.066,0.617,2.042,1.527,3.251,1.839
						C1124.372,43.71,1125.246,42.713,1125.031,41.642L1125.031,41.642z"/>
				</g>
			</g>
			<path fill="#FFED00" stroke="#FFED00" stroke-miterlimit="10" d="M1119.634,39.824c0.54-0.97,0.188-2.193-0.786-2.731
				c-0.974-0.538-2.202-0.187-2.741,0.783c-0.54,0.97-0.188,2.193,0.786,2.731C1117.867,41.145,1119.094,40.795,1119.634,39.824z"/>
		</g>
		<g>
			<g>
				<path fill="#FFED00" d="M1125,41.773c-0.252-2.388-1.187-4.702-2.666-6.598"/>
				<g>
					<path fill="#FFED00" d="M1126.405,41.729c0.382-1.471,0.046-3.003-0.501-4.392c-0.577-1.467-1.223-2.976-2.841-3.462
						c-1.125-0.338-2.117,0.574-2.181,1.661c-0.075,1.283,0.775,2.265,1.321,3.361c0.522,1.048,0.8,2.205,1.435,3.193
						C1124.326,43.163,1126.063,43.045,1126.405,41.729L1126.405,41.729z"/>
				</g>
			</g>
			<path fill="#FFED00" stroke="#FFED00" stroke-miterlimit="10" d="M1122.924,37.317c0.999-0.491,1.409-1.696,0.915-2.691
				c-0.493-0.995-1.703-1.403-2.701-0.912c-0.999,0.491-1.408,1.696-0.915,2.691C1120.717,37.4,1121.926,37.808,1122.924,37.317z"/>
		</g>
	</g>
	<path fill="#5D7ABC" d="M1136.5,43.535c0,0-4.91-4.542-9.703-3.61c-4.793,0.932-8.184,5.357-7.599,14.091
		c0.584,8.734,4.91,29.929,5.378,35.403c0.468,5.473-2.578,17.206-4.793,21.195c-2.134,3.843-3.156,11.296,0.935,16.187
		s9.703,3.028,11.925,1.397c2.221-1.63,5.953-6.232,4.209-15.139c-1.403-7.162-7.248-10.248-8.067-22.709
		c-0.818-12.461-2.806-33.307-1.87-36.334c0.935-3.028,2.806-5.59,5.495-5.823S1136.5,43.535,1136.5,43.535z"/>
	<path fill="#FFFFFF" d="M1136.15,45.02c-0.263,0.087-4.998-2.533-8.067-2.358c-3.069,0.175-5.086,0.611-5.436,2.882
		s0.789,4.192,3.507,3.843c2.718-0.349,5.261-2.184,8.33-2.096S1136.15,45.02,1136.15,45.02z"/>
	<path fill="#FCCB02" d="M1136.588,43.185c0,0-1.754,0.524-2.543,2.184s-1.052,2.97-1.052,2.97l9.645-0.349
		C1142.638,47.989,1139.92,43.884,1136.588,43.185z"/>
	<circle fill="#010202" cx="1126.593" cy="45.631" r="1.228"/>
	<g>
		<path fill="#E30613" d="M1072.793,102.923c3.627,0.456,6.33,2.702,6.037,5.015s-3.471,3.82-7.099,3.363
			c-3.627-0.456-6.33-2.702-6.037-5.015S1069.166,102.466,1072.793,102.923z"/>
		
			<ellipse transform="matrix(0.1257 -0.9921 0.9921 0.1257 832.3524 1159.3884)" fill="#FFED00" cx="1073.976" cy="107.444" rx="2.223" ry="3.484"/>
	</g>
	<g>
		<path fill="#E30613" d="M1076.497,77.982c3.442,1.228,5.592,4.003,4.803,6.199c-0.789,2.196-4.22,2.98-7.661,1.752
			c-3.442-1.228-5.592-4.003-4.803-6.199C1069.625,77.538,1073.056,76.754,1076.497,77.982z"/>
		<path fill="#FFED00" d="M1077.421,80.559c1.812,0.646,2.943,2.107,2.528,3.263c-0.416,1.156-2.221,1.568-4.032,0.922
			c-1.812-0.646-2.943-2.107-2.528-3.263C1073.804,80.326,1075.61,79.913,1077.421,80.559z"/>
	</g>
	<g>
		<path fill="#E30613" d="M1082.219,49.778c3.278,1.613,5.095,4.615,4.058,6.706c-1.037,2.091-4.535,2.478-7.813,0.865
			c-3.278-1.613-5.095-4.615-4.058-6.706C1075.443,48.553,1078.941,48.165,1082.219,49.778z"/>
		<path fill="#FFED00" d="M1082.84,52.444c1.725,0.849,2.681,2.429,2.136,3.53c-0.546,1.1-2.387,1.304-4.112,0.455
			c-1.725-0.849-2.681-2.429-2.136-3.53C1079.273,51.799,1081.114,51.595,1082.84,52.444z"/>
	</g>
	<g>
		<path fill="#E30613" d="M1104.981,24.933c2.108,2.976,2.266,6.478,0.353,7.822c-1.913,1.345-5.172,0.022-7.28-2.953
			s-2.266-6.478-0.353-7.822S1102.873,21.957,1104.981,24.933z"/>
		<path fill="#FFED00" d="M1104.25,27.571c1.109,1.566,1.193,3.409,0.186,4.117c-1.007,0.708-2.722,0.012-3.832-1.554
			c-1.109-1.566-1.193-3.409-0.186-4.117C1101.425,25.309,1103.141,26.005,1104.25,27.571z"/>
	</g>
	<g>
		
			<ellipse transform="matrix(1 -0.0069 0.0069 1 -0.0931 7.7453)" fill="#E30613" cx="1126.068" cy="17.411" rx="4.239" ry="6.594"/>
		<ellipse transform="matrix(1 -0.0069 0.0069 1 -0.105 7.7409)" fill="#FFED00" cx="1125.964" cy="19.147" rx="2.231" ry="3.471"/>
	</g>
	<g id="Слой_9">
		<path fill="#FFFFFF" d="M1127.688,105.196c0,0-6.582,13.475-4.716,16.05c1.356,1.872,8.643,1.439,9.676-0.63
			C1134.12,117.666,1127.688,105.196,1127.688,105.196z"/>
	</g>
	<g>
	</g>
	<g>
	</g>
	<g>
	</g>
	<g>
	</g>
	<g>
	</g>
	<g>
	</g>
</g>
</svg>
