<?xml version="1.0" encoding="UTF-8" standalone="no"?>
<!-- Generator: Adobe Illustrator 17.0.0, SVG Export Plug-In . SVG Version: 6.00 Build 0)  -->

<svg
   xmlns:dc="http://purl.org/dc/elements/1.1/"
   xmlns:cc="http://creativecommons.org/ns#"
   xmlns:rdf="http://www.w3.org/1999/02/22-rdf-syntax-ns#"
   xmlns:svg="http://www.w3.org/2000/svg"
   xmlns="http://www.w3.org/2000/svg"
   xmlns:xlink="http://www.w3.org/1999/xlink"
   xmlns:sodipodi="http://sodipodi.sourceforge.net/DTD/sodipodi-0.dtd"
   xmlns:inkscape="http://www.inkscape.org/namespaces/inkscape"
   version="1.1"
   id="Слой_1"
   x="0px"
   y="0px"
   width="97.333435"
   height="144"
   viewBox="0 0 97.333435 144"
   enable-background="new 0 0 1200 150"
   xml:space="preserve"
   sodipodi:docname="0.svg"
   inkscape:version="0.92.4 (5da689c313, 2019-01-14)"><metadata
   id="metadata1955"><rdf:RDF><cc:Work
       rdf:about=""><dc:format>image/svg+xml</dc:format><dc:type
         rdf:resource="http://purl.org/dc/dcmitype/StillImage" /><dc:title></dc:title></cc:Work></rdf:RDF></metadata><defs
   id="defs1953" /><sodipodi:namedview
   pagecolor="#ffffff"
   bordercolor="#666666"
   borderopacity="1"
   objecttolerance="10"
   gridtolerance="10"
   guidetolerance="10"
   inkscape:pageopacity="0"
   inkscape:pageshadow="2"
   inkscape:window-width="1920"
   inkscape:window-height="1017"
   id="namedview1951"
   showgrid="false"
   fit-margin-top="0"
   fit-margin-left="0"
   fit-margin-right="0"
   fit-margin-bottom="0"
   inkscape:zoom="0.94666667"
   inkscape:cx="703.15914"
   inkscape:cy="8.9101772"
   inkscape:window-x="-8"
   inkscape:window-y="-8"
   inkscape:window-maximized="1"
   inkscape:current-layer="Слой_1" />
<g
   id="g127"
   transform="translate(-25.506565,-2.926)">
	<path
   stroke-miterlimit="10"
   d="m 68.948,13.346 c 0,0 0,20.712 -17.859,20.712 0,0 0.51,-15.792 17.859,-20.712 z"
   id="path2"
   inkscape:connector-curvature="0"
   style="fill:none;stroke:#795649;stroke-miterlimit:10" />
	<g
   id="g125">
		<g
   id="XMLID_35_">
			<path
   d="m 74.172,145.926 c -0.746,0 -1.499,-0.018 -2.252,-0.052 -24.3,-1.119 -44.225,-21.03 -45.361,-45.329 -0.541,-11.562 3.108,-22.895 10.274,-31.911 5.894,-7.416 8.111,-16.607 6.082,-25.217 -0.567,-2.403 -0.854,-4.887 -0.854,-7.381 0,-17.706 14.405,-32.111 32.111,-32.111 0.77,0 1.553,0.027 2.325,0.082 15.939,1.123 28.717,14.002 29.721,29.958 0.193,3.077 -0.046,6.14 -0.71,9.104 -2.003,8.948 0.169,18.246 5.96,25.511 6.784,8.51 10.37,18.773 10.37,29.678 0,12.732 -4.958,24.703 -13.961,33.706 -9.002,9.003 -20.972,13.961 -33.703,13.961 -0.001,10e-4 -0.001,10e-4 -0.002,10e-4 z"
   id="path4"
   inkscape:connector-curvature="0"
   style="fill:#fcc00e" />
			<path
   d="m 74.172,4.926 c 0.745,0 1.498,0.026 2.255,0.08 15.406,1.086 27.824,13.61 28.793,29.024 0.192,3.047 -0.057,6.007 -0.687,8.822 -2.079,9.286 0.222,18.912 6.153,26.353 6.354,7.971 10.152,18.068 10.152,29.055 0,25.774 -20.893,46.667 -46.667,46.667 -0.731,0 -1.468,-0.017 -2.206,-0.051 -23.893,-1.1 -43.291,-20.484 -44.408,-44.377 -0.553,-11.827 3.301,-22.74 10.058,-31.242 5.853,-7.364 8.43,-16.912 6.272,-26.069 -0.541,-2.296 -0.827,-4.69 -0.827,-7.151 0,-17.183 13.929,-31.111 31.112,-31.111 m 0,-2 c -18.258,0 -33.111,14.854 -33.111,33.111 0,2.57 0.296,5.13 0.881,7.61 1.959,8.31 -0.189,17.191 -5.891,24.365 -7.317,9.205 -11.042,20.776 -10.491,32.58 0.564,12.054 5.623,23.439 14.247,32.057 8.624,8.618 20.012,13.669 32.067,14.224 0.764,0.035 1.537,0.053 2.299,0.053 26.835,0 48.667,-21.832 48.667,-48.667 0,-11.134 -3.661,-21.612 -10.588,-30.301 -5.601,-7.026 -7.703,-16.018 -5.766,-24.669 0.685,-3.058 0.931,-6.215 0.731,-9.385 C 106.181,17.45 93.005,4.168 76.567,3.01 75.771,2.954 74.965,2.926 74.172,2.926 Z"
   id="path6"
   inkscape:connector-curvature="0"
   style="fill:#795649" />
		</g>
		<g
   id="g53">
			<defs
   id="defs10">
				<path
   id="XMLID_34_"
   d="m 104.533,42.851 c 0.63,-2.815 0.879,-5.775 0.687,-8.822 C 104.25,18.615 91.833,6.091 76.426,5.005 58.225,3.723 43.061,18.109 43.061,36.037 c 0,2.461 0.286,4.855 0.827,7.151 2.158,9.156 -0.419,18.704 -6.272,26.069 -6.758,8.502 -10.611,19.415 -10.058,31.242 1.117,23.893 20.514,43.276 44.408,44.377 26.777,1.233 48.873,-20.111 48.873,-46.616 0,-10.987 -3.798,-21.084 -10.152,-29.055 -5.933,-7.441 -8.233,-17.068 -6.154,-26.354 z"
   inkscape:connector-curvature="0" />
			</defs>
			<use
   xlink:href="#XMLID_34_"
   overflow="visible"
   id="use12"
   style="overflow:visible;fill:#4153a0"
   x="0"
   y="0"
   width="100%"
   height="100%" />
			<clipPath
   id="XMLID_33_">
				<use
   xlink:href="#XMLID_34_"
   overflow="visible"
   id="use14"
   style="overflow:visible"
   x="0"
   y="0"
   width="100%"
   height="100%" />
			</clipPath>
			<g
   clip-path="url(#XMLID_33_)"
   id="g21">
				<path
   stroke-miterlimit="10"
   d="m 71.465,126.574 c 0,0 -6.816,0.17 -8.795,-5.87 -0.459,-1.402 -0.907,-4.486 0.271,-5.422 1.28,-1.017 4.265,0.206 5.568,1.14 5.166,3.702 2.956,10.152 2.956,10.152 z"
   id="path17"
   inkscape:connector-curvature="0"
   style="fill:#4daf50;stroke:#795649;stroke-linecap:round;stroke-linejoin:round;stroke-miterlimit:10" />
				<path
   stroke-miterlimit="10"
   d="m 71.318,126.244 c 0,0 4.254,3.45 -0.984,11.749"
   id="path19"
   inkscape:connector-curvature="0"
   style="fill:none;stroke:#795649;stroke-linecap:round;stroke-linejoin:round;stroke-miterlimit:10" />
			</g>
			
				<path
   clip-path="url(#XMLID_33_)"
   stroke-miterlimit="10"
   d="m 58.638,147.504 c 27.667,-18.977 31.4,-42.544 31.4,-42.544"
   id="path23"
   inkscape:connector-curvature="0"
   style="fill:none;stroke:#795649;stroke-linecap:round;stroke-linejoin:round;stroke-miterlimit:10" />
			<path
   clip-path="url(#XMLID_33_)"
   stroke-miterlimit="10"
   d="m 86.849,90.433 c 1.109,-0.407 2.281,-0.323 3.282,0.139 0.518,-0.679 1.329,-1.117 2.244,-1.117 0.916,0.001 1.734,0.44 2.264,1.12 0.993,-0.461 2.163,-0.543 3.279,-0.135 v 0 c 1.116,0.408 1.968,1.229 2.445,2.227 0.834,-0.181 1.74,0.01 2.447,0.602 0.707,0.592 1.058,1.455 1.033,2.314 1.061,0.291 2.017,0.986 2.619,2.017 v 0 c 0.601,1.032 0.734,2.206 0.465,3.273 0.76,0.401 1.338,1.132 1.505,2.039 0.167,0.907 -0.113,1.789 -0.682,2.426 0.633,0.907 0.928,2.053 0.733,3.225 -0.195,1.173 -0.843,2.15 -1.733,2.787 0.33,0.796 0.309,1.725 -0.141,2.522 -0.451,0.797 -1.231,1.286 -2.078,1.402 -0.091,1.099 -0.596,2.16 -1.496,2.924 -0.9,0.765 -2.026,1.089 -3.12,0.997 -0.254,0.819 -0.864,1.511 -1.722,1.825 -0.858,0.314 -1.773,0.182 -2.501,-0.277 -0.773,0.776 -1.841,1.256 -3.025,1.255 -1.184,-0.001 -2.261,-0.482 -3.047,-1.259 -0.719,0.458 -1.633,0.589 -2.496,0.274 -0.863,-0.316 -1.486,-1.008 -1.754,-1.827 -1.093,0.09 -2.224,-0.236 -3.138,-1.002 -0.914,-0.766 -1.438,-1.827 -1.549,-2.926 -0.848,-0.117 -1.638,-0.608 -2.103,-1.405 -0.465,-0.798 -0.503,-1.726 -0.187,-2.522 -0.902,-0.638 -1.567,-1.617 -1.783,-2.79 -0.216,-1.173 0.058,-2.318 0.675,-3.224 -0.58,-0.637 -0.876,-1.52 -0.726,-2.427 0.151,-0.907 0.715,-1.637 1.468,-2.037 -0.289,-1.068 -0.177,-2.241 0.406,-3.272 0.583,-1.031 1.526,-1.724 2.583,-2.014 -0.041,-0.859 0.295,-1.722 0.991,-2.313 0.696,-0.591 1.599,-0.781 2.436,-0.599 0.46,-0.996 1.296,-1.816 2.406,-2.222 z"
   id="path25"
   inkscape:connector-curvature="0"
   style="fill:#fcc00e;stroke:#795649;stroke-width:2;stroke-miterlimit:10" />
			
				<circle
   clip-path="url(#XMLID_33_)"
   stroke-miterlimit="10"
   cx="91.526001"
   cy="129.255"
   r="2.915"
   id="circle27"
   style="fill:#fcc00e;stroke:#795649;stroke-miterlimit:10" />
			
				<circle
   clip-path="url(#XMLID_33_)"
   stroke-miterlimit="10"
   cx="53.894001"
   cy="126.255"
   r="1.143"
   id="circle29"
   style="fill:#fcc00e;stroke:#795649;stroke-miterlimit:10" />
			
				<circle
   clip-path="url(#XMLID_33_)"
   stroke-miterlimit="10"
   cx="47.616001"
   cy="122.464"
   r="1.714"
   id="circle31"
   style="fill:#fcc00e;stroke:#795649;stroke-miterlimit:10" />
			
				<circle
   clip-path="url(#XMLID_33_)"
   stroke-miterlimit="10"
   cx="88.733002"
   cy="141.711"
   r="1.143"
   id="circle33"
   style="fill:#fcc00e;stroke:#795649;stroke-miterlimit:10" />
			
				<circle
   clip-path="url(#XMLID_33_)"
   stroke-miterlimit="10"
   cx="80.230003"
   cy="136.009"
   r="1.714"
   id="circle35"
   style="fill:#fcc00e;stroke:#795649;stroke-miterlimit:10" />
			
				<circle
   clip-path="url(#XMLID_33_)"
   stroke-miterlimit="10"
   cx="69.360001"
   cy="108.673"
   r="1.143"
   id="circle37"
   style="fill:#fcc00e;stroke:#795649;stroke-miterlimit:10" />
			
				<circle
   clip-path="url(#XMLID_33_)"
   stroke-miterlimit="10"
   cx="101.211"
   cy="128.411"
   r="1.143"
   id="circle39"
   style="fill:#fcc00e;stroke:#795649;stroke-miterlimit:10" />
			
				<circle
   clip-path="url(#XMLID_33_)"
   stroke-miterlimit="10"
   cx="62.048"
   cy="108.111"
   r="1.714"
   id="circle41"
   style="fill:#fcc00e;stroke:#795649;stroke-miterlimit:10" />
			
				<circle
   clip-path="url(#XMLID_33_)"
   stroke-miterlimit="10"
   cx="112.994"
   cy="95.136002"
   r="1.143"
   id="circle43"
   style="fill:#fcc00e;stroke:#795649;stroke-miterlimit:10" />
			
				<circle
   clip-path="url(#XMLID_33_)"
   stroke-miterlimit="10"
   cx="37.981998"
   cy="99.973999"
   r="1.714"
   id="circle45"
   style="fill:#fcc00e;stroke:#795649;stroke-miterlimit:10" />
			
				<path
   clip-path="url(#XMLID_33_)"
   stroke-miterlimit="10"
   d="m 47.989,113.698 c 0.307,0.039 0.594,-0.087 0.773,-0.341 2.129,-3.031 2.89,-8.094 0.622,-9.405 -2.284,-1.32 -2.57,2.685 -3.825,3.19 -1.22,0.586 -4.37,-1.903 -4.935,0.674 -0.561,2.559 3.691,5.41 7.365,5.882 z"
   id="path47"
   inkscape:connector-curvature="0"
   style="fill:#e9453a;stroke:#795649;stroke-linecap:round;stroke-linejoin:round;stroke-miterlimit:10" />
			
				<path
   clip-path="url(#XMLID_33_)"
   stroke-miterlimit="10"
   d="m 67.835,97.848 c 0.397,0.142 0.815,0.058 1.125,-0.227 3.712,-3.403 6.203,-9.903 3.574,-12.306 -2.647,-2.42 -4.197,2.814 -6.011,3.119 -1.791,0.422 -5.247,-3.804 -6.75,-0.547 -1.492,3.232 3.321,8.261 8.062,9.961 z"
   id="path49"
   inkscape:connector-curvature="0"
   style="fill:#e9453a;stroke:#795649;stroke-linecap:round;stroke-linejoin:round;stroke-miterlimit:10" />
			
				<use
   xlink:href="#XMLID_34_"
   overflow="visible"
   stroke-miterlimit="10"
   id="use51"
   style="overflow:visible;fill:none;stroke:#795649;stroke-linecap:round;stroke-linejoin:round;stroke-miterlimit:10"
   x="0"
   y="0"
   width="100%"
   height="100%" />
		</g>
		<path
   stroke-miterlimit="10"
   d="m 74.173,59.37 c 0,0 -0.793,32.389 44.191,23.885 0,0 -4.359,-9.889 -7.677,-14.051 -5.932,-7.441 -8.232,-17.067 -6.153,-26.353 0.63,-2.815 0.879,-5.775 0.687,-8.822 C 104.252,18.615 91.834,6.091 76.428,5.005 58.226,3.723 43.062,18.109 43.062,36.037 c 0,2.461 0.286,4.855 0.827,7.151 2.158,9.156 -0.419,18.704 -6.272,26.069 -3.298,4.149 -5.898,8.875 -7.638,13.999 C 73.472,91.759 74.173,59.37 74.173,59.37 Z"
   id="path55"
   inkscape:connector-curvature="0"
   style="fill:#263239;stroke:#795649;stroke-width:2;stroke-miterlimit:10" />
		<g
   id="g63">
			
				<path
   stroke-miterlimit="10"
   d="m 74.172,63.959 c 0,0 -15.944,-6.417 -21,9.917 0,0 15.361,3.888 21,-9.917 z"
   id="path57"
   inkscape:connector-curvature="0"
   style="fill:#ec6392;stroke:#795649;stroke-width:2;stroke-linecap:round;stroke-linejoin:round;stroke-miterlimit:10" />
			
				<path
   stroke-miterlimit="10"
   d="m 74.172,63.959 c 0,0 15.944,-6.417 21,9.917 0,0 -15.361,3.888 -21,-9.917 z"
   id="path59"
   inkscape:connector-curvature="0"
   style="fill:#ec6392;stroke:#795649;stroke-width:2;stroke-linecap:round;stroke-linejoin:round;stroke-miterlimit:10" />
			
				<circle
   stroke-miterlimit="10"
   cx="74.171997"
   cy="63.959"
   r="2.9170001"
   id="circle61"
   style="fill:#ec6392;stroke:#795649;stroke-width:2;stroke-linecap:round;stroke-linejoin:round;stroke-miterlimit:10" />
		</g>
		<g
   id="g67"
   style="opacity:0.1">
			<path
   d="m 110.907,69.204 c -5.932,-7.441 -8.232,-17.067 -6.153,-26.353 0.63,-2.815 0.879,-5.775 0.687,-8.822 C 104.471,18.615 92.053,6.091 76.647,5.005 72.411,4.707 68.344,5.266 64.59,6.512 c 11.746,3.921 20.446,14.72 21.251,27.517 0.192,3.047 -0.057,6.007 -0.687,8.822 -2.079,9.286 0.222,18.912 6.153,26.353 6.354,7.971 10.152,18.068 10.152,29.055 0,22.399 -15.781,41.109 -36.831,45.626 2.457,0.527 4.979,0.871 7.558,0.99 26.777,1.233 48.873,-20.111 48.873,-46.616 0,-10.987 -3.798,-21.084 -10.152,-29.055 z"
   id="path65"
   inkscape:connector-curvature="0"
   style="fill:#263239" />
		</g>
		<g
   id="g123">
			<g
   id="g85">
				<defs
   id="defs70">
					<circle
   id="XMLID_4_"
   cx="74.446999"
   cy="36.036999"
   r="23.333" />
				</defs>
				<use
   xlink:href="#XMLID_4_"
   overflow="visible"
   id="use72"
   style="overflow:visible;fill:#facbbd"
   x="0"
   y="0"
   width="100%"
   height="100%" />
				<clipPath
   id="XMLID_37_">
					<use
   xlink:href="#XMLID_4_"
   overflow="visible"
   id="use74"
   style="overflow:visible"
   x="0"
   y="0"
   width="100%"
   height="100%" />
				</clipPath>
				<g
   clip-path="url(#XMLID_37_)"
   id="g81">
					<circle
   cx="55.382"
   cy="49.744999"
   r="4.6669998"
   id="circle77"
   style="fill:#f5a992" />
					<circle
   cx="93.512001"
   cy="49.744999"
   r="4.6669998"
   id="circle79"
   style="fill:#f5a992" />
				</g>
				<use
   xlink:href="#XMLID_4_"
   overflow="visible"
   stroke-miterlimit="10"
   id="use83"
   style="overflow:visible;fill:none;stroke:#795649;stroke-width:2;stroke-miterlimit:10"
   x="0"
   y="0"
   width="100%"
   height="100%" />
			</g>
			<g
   id="g99">
				<g
   id="g91">
					
						<circle
   stroke-miterlimit="10"
   cx="61.490002"
   cy="40.231998"
   r="4.638"
   id="circle87"
   style="fill:#37a3dc;stroke:#795649;stroke-linecap:round;stroke-linejoin:round;stroke-miterlimit:10" />
					<path
   d="m 66.046,39.362 c 0,0 -1.392,-6.887 -9.851,-2.181 -10e-4,0 7.023,-1.214 9.851,2.181 z"
   id="path89"
   inkscape:connector-curvature="0"
   style="fill:#795649" />
				</g>
				<g
   id="g97">
					
						<circle
   stroke-miterlimit="10"
   cx="87.403999"
   cy="40.231998"
   r="4.638"
   id="circle93"
   style="fill:#37a3dc;stroke:#795649;stroke-linecap:round;stroke-linejoin:round;stroke-miterlimit:10" />
					<path
   d="m 82.848,39.362 c 0,0 1.392,-6.887 9.851,-2.181 0.001,0 -7.023,-1.214 -9.851,2.181 z"
   id="path95"
   inkscape:connector-curvature="0"
   style="fill:#795649" />
				</g>
			</g>
			<path
   stroke-miterlimit="10"
   d="m 69.003,44.514 c 0,4.296 2.438,7.778 5.444,7.778 3.006,0 5.444,-3.482 5.444,-7.778 z"
   id="path101"
   inkscape:connector-curvature="0"
   style="fill:#fce9e7;stroke:#795649;stroke-miterlimit:10" />
			<path
   stroke-miterlimit="10"
   d="m 61.49,16.698 c 0,0 10.193,19.339 36.206,17.36 C 96.365,19.509 79.157,5.898 61.49,16.698 Z"
   id="path103"
   inkscape:connector-curvature="0"
   style="fill:#fcc00e;stroke:#795649;stroke-width:2;stroke-miterlimit:10" />
			<path
   stroke-miterlimit="10"
   d="m 69.003,13.346 c 0,0 0,20.712 -17.859,20.712 0,0 0.51,-15.792 17.859,-20.712 z"
   id="path105"
   inkscape:connector-curvature="0"
   style="fill:#fcc00e;stroke:#795649;stroke-width:2;stroke-miterlimit:10" />
			<path
   stroke-miterlimit="10"
   d="m 51.569,31.164 c 0,0 12.079,-0.273 14.049,-16.731"
   id="path107"
   inkscape:connector-curvature="0"
   style="fill:none;stroke:#795649;stroke-miterlimit:10" />
			<path
   stroke-miterlimit="10"
   d="m 52.803,27.227 c 0,0 6.898,-1.236 8.317,-10.283"
   id="path109"
   inkscape:connector-curvature="0"
   style="fill:none;stroke:#795649;stroke-miterlimit:10" />
			<path
   stroke-miterlimit="10"
   d="m 68.112,19.165 c 0,0 12.658,12.915 28.799,10.835"
   id="path111"
   inkscape:connector-curvature="0"
   style="fill:none;stroke:#795649;stroke-miterlimit:10" />
			<path
   stroke-miterlimit="10"
   d="m 69.003,14.432 c 0,0 13.332,12.794 26.495,11.947"
   id="path113"
   inkscape:connector-curvature="0"
   style="fill:none;stroke:#795649;stroke-miterlimit:10" />
			<path
   stroke-miterlimit="10"
   d="m 73.7,12.823 c 0,0 8.473,8.113 19.111,9.262"
   id="path115"
   inkscape:connector-curvature="0"
   style="fill:none;stroke:#795649;stroke-miterlimit:10" />
			<circle
   cx="59.535999"
   cy="16.962999"
   r="4.1999998"
   id="circle117"
   style="opacity:0.8;fill:#ffffff" />
			<circle
   cx="53.362999"
   cy="23.545"
   r="2.8"
   id="circle119"
   style="opacity:0.8;fill:#ffffff" />
			<circle
   cx="59.962002"
   cy="25.167"
   r="1.4"
   id="circle121"
   style="opacity:0.8;fill:#ffffff" />
		</g>
	</g>
</g>







<g
   id="g1938"
   transform="translate(-25.506565,-2.926)">
</g>
<g
   id="g1940"
   transform="translate(-25.506565,-2.926)">
</g>
<g
   id="g1942"
   transform="translate(-25.506565,-2.926)">
</g>
<g
   id="g1944"
   transform="translate(-25.506565,-2.926)">
</g>
<g
   id="g1946"
   transform="translate(-25.506565,-2.926)">
</g>
<g
   id="g1948"
   transform="translate(-25.506565,-2.926)">
</g>
</svg>