<?xml version="1.0" encoding="UTF-8" standalone="no"?>
<!-- Generator: Adobe Illustrator 17.0.0, SVG Export Plug-In . SVG Version: 6.00 Build 0)  -->

<svg
   xmlns:dc="http://purl.org/dc/elements/1.1/"
   xmlns:cc="http://creativecommons.org/ns#"
   xmlns:rdf="http://www.w3.org/1999/02/22-rdf-syntax-ns#"
   xmlns:svg="http://www.w3.org/2000/svg"
   xmlns="http://www.w3.org/2000/svg"
   xmlns:xlink="http://www.w3.org/1999/xlink"
   xmlns:sodipodi="http://sodipodi.sourceforge.net/DTD/sodipodi-0.dtd"
   xmlns:inkscape="http://www.inkscape.org/namespaces/inkscape"
   version="1.1"
   id="Слой_1"
   x="0px"
   y="0px"
   width="97.333603"
   height="144"
   viewBox="0 0 97.333603 144"
   enable-background="new 0 0 1200 150"
   xml:space="preserve"
   sodipodi:docname="1.svg"
   inkscape:version="0.92.4 (5da689c313, 2019-01-14)"><metadata
   id="metadata1955"><rdf:RDF><cc:Work
       rdf:about=""><dc:format>image/svg+xml</dc:format><dc:type
         rdf:resource="http://purl.org/dc/dcmitype/StillImage" /><dc:title></dc:title></cc:Work></rdf:RDF></metadata><defs
   id="defs1953" /><sodipodi:namedview
   pagecolor="#ffffff"
   bordercolor="#666666"
   borderopacity="1"
   objecttolerance="10"
   gridtolerance="10"
   guidetolerance="10"
   inkscape:pageopacity="0"
   inkscape:pageshadow="2"
   inkscape:window-width="1920"
   inkscape:window-height="1017"
   id="namedview1951"
   showgrid="false"
   inkscape:zoom="0.94666667"
   inkscape:cx="529.11874"
   inkscape:cy="5.2911772"
   inkscape:window-x="-8"
   inkscape:window-y="-8"
   inkscape:window-maximized="1"
   inkscape:current-layer="Слой_1"
   fit-margin-top="0"
   fit-margin-left="0"
   fit-margin-right="0"
   fit-margin-bottom="0" />

<g
   id="g318"
   transform="translate(-174.04039,-2.381)">
	<g
   id="XMLID_26_">
		<path
   d="m 222.706,145.38 c -0.746,0 -1.499,-0.018 -2.252,-0.052 -24.3,-1.119 -44.225,-21.03 -45.361,-45.329 -0.541,-11.562 3.108,-22.895 10.275,-31.91 5.894,-7.416 8.11,-16.607 6.082,-25.217 -0.567,-2.405 -0.854,-4.888 -0.854,-7.38 0,-17.706 14.405,-32.111 32.111,-32.111 0.77,0 1.552,0.028 2.325,0.082 15.94,1.124 28.718,14.003 29.721,29.959 0.193,3.076 -0.045,6.139 -0.709,9.104 -2.004,8.948 0.168,18.247 5.959,25.512 6.785,8.511 10.371,18.772 10.371,29.678 0,12.732 -4.958,24.703 -13.961,33.706 -9.002,9.002 -20.972,13.96 -33.704,13.96 -0.002,-0.002 -0.002,-0.002 -0.003,-0.002 z"
   id="path129"
   inkscape:connector-curvature="0"
   style="fill:#fcc00e" />
		<path
   d="m 222.706,4.381 c 0.745,0 1.498,0.026 2.255,0.08 15.406,1.086 27.824,13.61 28.793,29.024 0.192,3.047 -0.057,6.007 -0.687,8.822 -2.079,9.286 0.222,18.912 6.153,26.353 6.354,7.971 10.152,18.068 10.152,29.055 0,25.774 -20.893,46.667 -46.667,46.667 -0.731,0 -1.468,-0.017 -2.207,-0.051 -23.893,-1.1 -43.291,-20.484 -44.408,-44.377 -0.553,-11.827 3.301,-22.74 10.058,-31.242 5.853,-7.364 8.43,-16.912 6.272,-26.069 -0.541,-2.296 -0.827,-4.69 -0.827,-7.151 0.002,-17.183 13.93,-31.111 31.113,-31.111 m 0,-2 c -18.258,0 -33.111,14.854 -33.111,33.111 0,2.57 0.296,5.13 0.881,7.61 1.959,8.31 -0.189,17.191 -5.891,24.365 -7.317,9.205 -11.043,20.776 -10.491,32.58 0.564,12.054 5.623,23.439 14.247,32.057 8.624,8.618 20.012,13.669 32.067,14.224 0.764,0.035 1.537,0.053 2.299,0.053 26.835,0 48.667,-21.832 48.667,-48.667 0,-11.134 -3.661,-21.612 -10.588,-30.301 -5.601,-7.026 -7.703,-16.018 -5.766,-24.669 0.685,-3.057 0.931,-6.215 0.731,-9.384 C 254.716,16.906 241.54,3.625 225.102,2.466 224.306,2.409 223.5,2.381 222.706,2.381 Z"
   id="path131"
   inkscape:connector-curvature="0"
   style="fill:#795649" />
	</g>
	<g
   id="g246">
		<defs
   id="defs135">
			<path
   id="XMLID_25_"
   d="m 253.067,42.306 c 0.63,-2.815 0.879,-5.775 0.687,-8.822 C 252.785,18.07 240.367,5.546 224.961,4.46 206.759,3.177 191.595,17.564 191.595,35.492 c 0,2.461 0.286,4.855 0.827,7.151 2.158,9.156 -0.419,18.704 -6.272,26.069 -6.758,8.502 -10.611,19.415 -10.058,31.242 1.117,23.893 20.514,43.276 44.408,44.377 26.777,1.233 48.873,-20.111 48.873,-46.616 0,-10.987 -3.798,-21.084 -10.152,-29.055 -5.932,-7.441 -8.233,-17.068 -6.154,-26.354 z"
   inkscape:connector-curvature="0" />
		</defs>
		<use
   xlink:href="#XMLID_25_"
   overflow="visible"
   id="use137"
   style="overflow:visible;fill:#4daf50"
   x="0"
   y="0"
   width="100%"
   height="100%" />
		<clipPath
   id="XMLID_38_">
			<use
   xlink:href="#XMLID_25_"
   overflow="visible"
   id="use139"
   style="overflow:visible"
   x="0"
   y="0"
   width="100%"
   height="100%" />
		</clipPath>
		<g
   clip-path="url(#XMLID_38_)"
   id="g174">
			<g
   id="g148">
				<path
   stroke-miterlimit="10"
   d="m 184.451,88.031 c 1.425,2.423 0.184,8.611 -0.579,9.059 -0.762,0.449 -6.771,-1.478 -8.196,-3.9 -1.424,-2.423 -0.615,-5.542 1.808,-6.967 2.423,-1.424 5.542,-0.615 6.967,1.808 z"
   id="path142"
   inkscape:connector-curvature="0"
   style="fill:#fcc00e;stroke:#795649;stroke-miterlimit:10" />
				<path
   stroke-miterlimit="10"
   d="m 178.377,93.131 c 2.263,0.465 5.593,3.487 5.496,3.959 -0.096,0.473 -4.348,1.937 -6.61,1.471 -2.265,-0.465 -3.851,-2.057 -3.543,-3.556 0.308,-1.5 2.393,-2.339 4.657,-1.874 z"
   id="path144"
   inkscape:connector-curvature="0"
   style="fill:#ec6392;stroke:#795649;stroke-linecap:round;stroke-linejoin:round;stroke-miterlimit:10" />
				<path
   stroke-miterlimit="10"
   d="m 183.087,90.362 c -0.695,2.204 0.327,6.583 0.785,6.728 0.459,0.145 3.807,-2.857 4.502,-5.061 0.694,-2.203 0.074,-4.363 -1.386,-4.825 -1.459,-0.46 -3.205,0.953 -3.901,3.158 z"
   id="path146"
   inkscape:connector-curvature="0"
   style="fill:#ec6392;stroke:#795649;stroke-linecap:round;stroke-linejoin:round;stroke-miterlimit:10" />
			</g>
			<g
   id="g156">
				<path
   stroke-miterlimit="10"
   d="m 212.065,88.031 c 1.425,2.423 0.184,8.611 -0.579,9.059 -0.762,0.449 -6.771,-1.478 -8.196,-3.9 -1.424,-2.423 -0.615,-5.542 1.808,-6.967 2.423,-1.424 5.542,-0.615 6.967,1.808 z"
   id="path150"
   inkscape:connector-curvature="0"
   style="fill:#fcc00e;stroke:#795649;stroke-miterlimit:10" />
				<path
   stroke-miterlimit="10"
   d="m 205.991,93.131 c 2.263,0.465 5.593,3.487 5.496,3.959 -0.096,0.473 -4.348,1.937 -6.61,1.471 -2.265,-0.465 -3.851,-2.057 -3.543,-3.556 0.308,-1.5 2.393,-2.339 4.657,-1.874 z"
   id="path152"
   inkscape:connector-curvature="0"
   style="fill:#ec6392;stroke:#795649;stroke-linecap:round;stroke-linejoin:round;stroke-miterlimit:10" />
				<path
   stroke-miterlimit="10"
   d="m 210.701,90.362 c -0.695,2.204 0.327,6.583 0.785,6.728 0.459,0.145 3.807,-2.857 4.502,-5.061 0.694,-2.203 0.074,-4.363 -1.386,-4.825 -1.459,-0.46 -3.205,0.953 -3.901,3.158 z"
   id="path154"
   inkscape:connector-curvature="0"
   style="fill:#ec6392;stroke:#795649;stroke-linecap:round;stroke-linejoin:round;stroke-miterlimit:10" />
			</g>
			<g
   id="g164">
				<path
   stroke-miterlimit="10"
   d="m 239.679,88.031 c 1.425,2.423 0.184,8.611 -0.579,9.059 -0.762,0.449 -6.771,-1.478 -8.196,-3.9 -1.424,-2.423 -0.615,-5.542 1.808,-6.967 2.423,-1.424 5.542,-0.615 6.967,1.808 z"
   id="path158"
   inkscape:connector-curvature="0"
   style="fill:#fcc00e;stroke:#795649;stroke-miterlimit:10" />
				<path
   stroke-miterlimit="10"
   d="m 233.605,93.131 c 2.263,0.465 5.593,3.487 5.496,3.959 -0.096,0.473 -4.348,1.937 -6.61,1.471 -2.265,-0.465 -3.851,-2.057 -3.543,-3.556 0.308,-1.5 2.393,-2.339 4.657,-1.874 z"
   id="path160"
   inkscape:connector-curvature="0"
   style="fill:#ec6392;stroke:#795649;stroke-linecap:round;stroke-linejoin:round;stroke-miterlimit:10" />
				<path
   stroke-miterlimit="10"
   d="m 238.315,90.362 c -0.695,2.204 0.327,6.583 0.785,6.728 0.459,0.145 3.807,-2.857 4.502,-5.061 0.694,-2.203 0.074,-4.363 -1.386,-4.825 -1.46,-0.46 -3.205,0.953 -3.901,3.158 z"
   id="path162"
   inkscape:connector-curvature="0"
   style="fill:#ec6392;stroke:#795649;stroke-linecap:round;stroke-linejoin:round;stroke-miterlimit:10" />
			</g>
			<g
   id="g172">
				<path
   stroke-miterlimit="10"
   d="m 267.293,88.031 c 1.425,2.423 0.184,8.611 -0.579,9.059 -0.762,0.449 -6.771,-1.478 -8.196,-3.9 -1.424,-2.423 -0.615,-5.542 1.808,-6.967 2.423,-1.424 5.542,-0.615 6.967,1.808 z"
   id="path166"
   inkscape:connector-curvature="0"
   style="fill:#fcc00e;stroke:#795649;stroke-miterlimit:10" />
				<path
   stroke-miterlimit="10"
   d="m 261.219,93.131 c 2.263,0.465 5.593,3.487 5.496,3.959 -0.096,0.473 -4.348,1.937 -6.61,1.471 -2.265,-0.465 -3.851,-2.057 -3.543,-3.556 0.308,-1.5 2.392,-2.339 4.657,-1.874 z"
   id="path168"
   inkscape:connector-curvature="0"
   style="fill:#ec6392;stroke:#795649;stroke-linecap:round;stroke-linejoin:round;stroke-miterlimit:10" />
				<path
   stroke-miterlimit="10"
   d="m 265.929,90.362 c -0.695,2.204 0.327,6.583 0.785,6.728 0.459,0.145 3.807,-2.857 4.502,-5.061 0.694,-2.203 0.074,-4.363 -1.386,-4.825 -1.46,-0.46 -3.205,0.953 -3.901,3.158 z"
   id="path170"
   inkscape:connector-curvature="0"
   style="fill:#ec6392;stroke:#795649;stroke-linecap:round;stroke-linejoin:round;stroke-miterlimit:10" />
			</g>
		</g>
		<g
   clip-path="url(#XMLID_38_)"
   id="g208">
			<g
   id="g182">
				<path
   stroke-miterlimit="10"
   d="m 246.764,108.066 c -1.425,2.423 -0.184,8.611 0.579,9.059 0.762,0.449 6.771,-1.478 8.196,-3.9 1.424,-2.423 0.615,-5.542 -1.808,-6.967 -2.423,-1.425 -5.542,-0.615 -6.967,1.808 z"
   id="path176"
   inkscape:connector-curvature="0"
   style="fill:#fcc00e;stroke:#795649;stroke-miterlimit:10" />
				<path
   stroke-miterlimit="10"
   d="m 252.838,113.165 c -2.263,0.465 -5.593,3.487 -5.496,3.959 0.096,0.473 4.348,1.937 6.61,1.471 2.265,-0.465 3.851,-2.057 3.543,-3.556 -0.308,-1.499 -2.392,-2.339 -4.657,-1.874 z"
   id="path178"
   inkscape:connector-curvature="0"
   style="fill:#ec6392;stroke:#795649;stroke-linecap:round;stroke-linejoin:round;stroke-miterlimit:10" />
				<path
   stroke-miterlimit="10"
   d="m 248.128,110.396 c 0.695,2.204 -0.327,6.583 -0.785,6.728 -0.459,0.145 -3.807,-2.857 -4.502,-5.061 -0.694,-2.203 -0.074,-4.363 1.386,-4.825 1.46,-0.46 3.205,0.954 3.901,3.158 z"
   id="path180"
   inkscape:connector-curvature="0"
   style="fill:#ec6392;stroke:#795649;stroke-linecap:round;stroke-linejoin:round;stroke-miterlimit:10" />
			</g>
			<g
   id="g190">
				<path
   stroke-miterlimit="10"
   d="m 219.15,108.066 c -1.425,2.423 -0.184,8.611 0.579,9.059 0.762,0.449 6.771,-1.478 8.196,-3.9 1.424,-2.423 0.615,-5.542 -1.808,-6.967 -2.423,-1.425 -5.542,-0.615 -6.967,1.808 z"
   id="path184"
   inkscape:connector-curvature="0"
   style="fill:#fcc00e;stroke:#795649;stroke-miterlimit:10" />
				<path
   stroke-miterlimit="10"
   d="m 225.225,113.165 c -2.263,0.465 -5.593,3.487 -5.496,3.959 0.096,0.473 4.348,1.937 6.61,1.471 2.265,-0.465 3.851,-2.057 3.543,-3.556 -0.309,-1.499 -2.393,-2.339 -4.657,-1.874 z"
   id="path186"
   inkscape:connector-curvature="0"
   style="fill:#ec6392;stroke:#795649;stroke-linecap:round;stroke-linejoin:round;stroke-miterlimit:10" />
				<path
   stroke-miterlimit="10"
   d="m 220.514,110.396 c 0.695,2.204 -0.327,6.583 -0.785,6.728 -0.459,0.145 -3.807,-2.857 -4.502,-5.061 -0.694,-2.203 -0.074,-4.363 1.386,-4.825 1.46,-0.46 3.206,0.954 3.901,3.158 z"
   id="path188"
   inkscape:connector-curvature="0"
   style="fill:#ec6392;stroke:#795649;stroke-linecap:round;stroke-linejoin:round;stroke-miterlimit:10" />
			</g>
			<g
   id="g198">
				<path
   stroke-miterlimit="10"
   d="m 191.536,108.066 c -1.425,2.423 -0.184,8.611 0.579,9.059 0.762,0.449 6.771,-1.478 8.196,-3.9 1.424,-2.423 0.615,-5.542 -1.808,-6.967 -2.423,-1.425 -5.541,-0.615 -6.967,1.808 z"
   id="path192"
   inkscape:connector-curvature="0"
   style="fill:#fcc00e;stroke:#795649;stroke-miterlimit:10" />
				<path
   stroke-miterlimit="10"
   d="m 197.611,113.165 c -2.263,0.465 -5.593,3.487 -5.496,3.959 0.096,0.473 4.348,1.937 6.61,1.471 2.265,-0.465 3.851,-2.057 3.543,-3.556 -0.308,-1.499 -2.393,-2.339 -4.657,-1.874 z"
   id="path194"
   inkscape:connector-curvature="0"
   style="fill:#ec6392;stroke:#795649;stroke-linecap:round;stroke-linejoin:round;stroke-miterlimit:10" />
				<path
   stroke-miterlimit="10"
   d="m 192.9,110.396 c 0.695,2.204 -0.327,6.583 -0.785,6.728 -0.459,0.145 -3.807,-2.857 -4.502,-5.061 -0.694,-2.203 -0.074,-4.363 1.386,-4.825 1.46,-0.46 3.206,0.954 3.901,3.158 z"
   id="path196"
   inkscape:connector-curvature="0"
   style="fill:#ec6392;stroke:#795649;stroke-linecap:round;stroke-linejoin:round;stroke-miterlimit:10" />
			</g>
			<g
   id="g206">
				<path
   stroke-miterlimit="10"
   d="m 163.922,108.066 c -1.425,2.423 -0.184,8.611 0.579,9.059 0.762,0.449 6.771,-1.478 8.196,-3.9 1.424,-2.423 0.615,-5.542 -1.808,-6.967 -2.422,-1.425 -5.541,-0.615 -6.967,1.808 z"
   id="path200"
   inkscape:connector-curvature="0"
   style="fill:#fcc00e;stroke:#795649;stroke-miterlimit:10" />
				<path
   stroke-miterlimit="10"
   d="m 169.997,113.165 c -2.263,0.465 -5.593,3.487 -5.496,3.959 0.096,0.473 4.348,1.937 6.61,1.471 2.265,-0.465 3.851,-2.057 3.543,-3.556 -0.308,-1.499 -2.393,-2.339 -4.657,-1.874 z"
   id="path202"
   inkscape:connector-curvature="0"
   style="fill:#ec6392;stroke:#795649;stroke-linecap:round;stroke-linejoin:round;stroke-miterlimit:10" />
				<path
   stroke-miterlimit="10"
   d="m 165.286,110.396 c 0.695,2.204 -0.327,6.583 -0.785,6.728 -0.459,0.145 -3.807,-2.857 -4.502,-5.061 -0.694,-2.203 -0.074,-4.363 1.386,-4.825 1.46,-0.46 3.206,0.954 3.901,3.158 z"
   id="path204"
   inkscape:connector-curvature="0"
   style="fill:#ec6392;stroke:#795649;stroke-linecap:round;stroke-linejoin:round;stroke-miterlimit:10" />
			</g>
		</g>
		<g
   clip-path="url(#XMLID_38_)"
   id="g242">
			<g
   id="g216">
				<path
   stroke-miterlimit="10"
   d="m 184.451,127.931 c 1.425,2.423 0.184,8.611 -0.579,9.059 -0.762,0.449 -6.771,-1.478 -8.196,-3.9 -1.424,-2.423 -0.615,-5.542 1.808,-6.967 2.423,-1.424 5.542,-0.615 6.967,1.808 z"
   id="path210"
   inkscape:connector-curvature="0"
   style="fill:#fcc00e;stroke:#795649;stroke-miterlimit:10" />
				<path
   stroke-miterlimit="10"
   d="m 178.377,133.031 c 2.263,0.465 5.593,3.487 5.496,3.959 -0.096,0.473 -4.348,1.937 -6.61,1.471 -2.265,-0.465 -3.851,-2.057 -3.543,-3.556 0.308,-1.5 2.393,-2.339 4.657,-1.874 z"
   id="path212"
   inkscape:connector-curvature="0"
   style="fill:#ec6392;stroke:#795649;stroke-linecap:round;stroke-linejoin:round;stroke-miterlimit:10" />
				<path
   stroke-miterlimit="10"
   d="m 183.087,130.262 c -0.695,2.204 0.327,6.583 0.785,6.728 0.459,0.145 3.807,-2.857 4.502,-5.061 0.694,-2.203 0.074,-4.363 -1.386,-4.825 -1.459,-0.46 -3.205,0.953 -3.901,3.158 z"
   id="path214"
   inkscape:connector-curvature="0"
   style="fill:#ec6392;stroke:#795649;stroke-linecap:round;stroke-linejoin:round;stroke-miterlimit:10" />
			</g>
			<g
   id="g224">
				<path
   stroke-miterlimit="10"
   d="m 212.065,127.931 c 1.425,2.423 0.184,8.611 -0.579,9.059 -0.762,0.449 -6.771,-1.478 -8.196,-3.9 -1.424,-2.423 -0.615,-5.542 1.808,-6.967 2.423,-1.424 5.542,-0.615 6.967,1.808 z"
   id="path218"
   inkscape:connector-curvature="0"
   style="fill:#fcc00e;stroke:#795649;stroke-miterlimit:10" />
				<path
   stroke-miterlimit="10"
   d="m 205.991,133.031 c 2.263,0.465 5.593,3.487 5.496,3.959 -0.096,0.473 -4.348,1.937 -6.61,1.471 -2.265,-0.465 -3.851,-2.057 -3.543,-3.556 0.308,-1.5 2.393,-2.339 4.657,-1.874 z"
   id="path220"
   inkscape:connector-curvature="0"
   style="fill:#ec6392;stroke:#795649;stroke-linecap:round;stroke-linejoin:round;stroke-miterlimit:10" />
				<path
   stroke-miterlimit="10"
   d="m 210.701,130.262 c -0.695,2.204 0.327,6.583 0.785,6.728 0.459,0.145 3.807,-2.857 4.502,-5.061 0.694,-2.203 0.074,-4.363 -1.386,-4.825 -1.459,-0.46 -3.205,0.953 -3.901,3.158 z"
   id="path222"
   inkscape:connector-curvature="0"
   style="fill:#ec6392;stroke:#795649;stroke-linecap:round;stroke-linejoin:round;stroke-miterlimit:10" />
			</g>
			<g
   id="g232">
				<path
   stroke-miterlimit="10"
   d="m 239.679,127.931 c 1.425,2.423 0.184,8.611 -0.579,9.059 -0.762,0.449 -6.771,-1.478 -8.196,-3.9 -1.424,-2.423 -0.615,-5.542 1.808,-6.967 2.423,-1.424 5.542,-0.615 6.967,1.808 z"
   id="path226"
   inkscape:connector-curvature="0"
   style="fill:#fcc00e;stroke:#795649;stroke-miterlimit:10" />
				<path
   stroke-miterlimit="10"
   d="m 233.605,133.031 c 2.263,0.465 5.593,3.487 5.496,3.959 -0.096,0.473 -4.348,1.937 -6.61,1.471 -2.265,-0.465 -3.851,-2.057 -3.543,-3.556 0.308,-1.5 2.393,-2.339 4.657,-1.874 z"
   id="path228"
   inkscape:connector-curvature="0"
   style="fill:#ec6392;stroke:#795649;stroke-linecap:round;stroke-linejoin:round;stroke-miterlimit:10" />
				<path
   stroke-miterlimit="10"
   d="m 238.315,130.262 c -0.695,2.204 0.327,6.583 0.785,6.728 0.459,0.145 3.807,-2.857 4.502,-5.061 0.694,-2.203 0.074,-4.363 -1.386,-4.825 -1.46,-0.46 -3.205,0.953 -3.901,3.158 z"
   id="path230"
   inkscape:connector-curvature="0"
   style="fill:#ec6392;stroke:#795649;stroke-linecap:round;stroke-linejoin:round;stroke-miterlimit:10" />
			</g>
			<g
   id="g240">
				<path
   stroke-miterlimit="10"
   d="m 267.293,127.931 c 1.425,2.423 0.184,8.611 -0.579,9.059 -0.762,0.449 -6.771,-1.478 -8.196,-3.9 -1.424,-2.423 -0.615,-5.542 1.808,-6.967 2.423,-1.424 5.542,-0.615 6.967,1.808 z"
   id="path234"
   inkscape:connector-curvature="0"
   style="fill:#fcc00e;stroke:#795649;stroke-miterlimit:10" />
				<path
   stroke-miterlimit="10"
   d="m 261.219,133.031 c 2.263,0.465 5.593,3.487 5.496,3.959 -0.096,0.473 -4.348,1.937 -6.61,1.471 -2.265,-0.465 -3.851,-2.057 -3.543,-3.556 0.308,-1.5 2.392,-2.339 4.657,-1.874 z"
   id="path236"
   inkscape:connector-curvature="0"
   style="fill:#ec6392;stroke:#795649;stroke-linecap:round;stroke-linejoin:round;stroke-miterlimit:10" />
				<path
   stroke-miterlimit="10"
   d="m 265.929,130.262 c -0.695,2.204 0.327,6.583 0.785,6.728 0.459,0.145 3.807,-2.857 4.502,-5.061 0.694,-2.203 0.074,-4.363 -1.386,-4.825 -1.46,-0.46 -3.205,0.953 -3.901,3.158 z"
   id="path238"
   inkscape:connector-curvature="0"
   style="fill:#ec6392;stroke:#795649;stroke-linecap:round;stroke-linejoin:round;stroke-miterlimit:10" />
			</g>
		</g>
		
			<use
   xlink:href="#XMLID_25_"
   overflow="visible"
   stroke-miterlimit="10"
   id="use244"
   style="overflow:visible;fill:none;stroke:#795649;stroke-linecap:round;stroke-linejoin:round;stroke-miterlimit:10"
   x="0"
   y="0"
   width="100%"
   height="100%" />
	</g>
	<path
   stroke-miterlimit="10"
   d="m 222.708,58.825 c 0,0 -0.793,32.389 44.191,23.885 0,0 -4.359,-9.889 -7.677,-14.051 -5.932,-7.441 -8.232,-17.067 -6.153,-26.353 0.63,-2.815 0.879,-5.775 0.687,-8.822 C 252.786,18.07 240.369,5.546 224.962,4.46 206.761,3.177 191.596,17.564 191.596,35.492 c 0,2.461 0.286,4.855 0.827,7.151 2.158,9.156 -0.419,18.704 -6.272,26.069 -3.298,4.149 -5.898,8.875 -7.638,13.999 43.494,8.503 44.195,-23.886 44.195,-23.886 z"
   id="path248"
   inkscape:connector-curvature="0"
   style="fill:#4153a0;stroke:#795649;stroke-linecap:round;stroke-linejoin:round;stroke-miterlimit:10" />
	<g
   id="g256">
		<path
   stroke-miterlimit="10"
   d="m 222.706,63.414 c 0,0 -15.944,-6.417 -21,9.917 0,0 15.361,3.888 21,-9.917 z"
   id="path250"
   inkscape:connector-curvature="0"
   style="fill:#fcc00e;stroke:#795649;stroke-miterlimit:10" />
		<path
   stroke-miterlimit="10"
   d="m 222.706,63.414 c 0,0 15.944,-6.417 21,9.917 0,0 -15.361,3.888 -21,-9.917 z"
   id="path252"
   inkscape:connector-curvature="0"
   style="fill:#fcc00e;stroke:#795649;stroke-miterlimit:10" />
		<circle
   stroke-miterlimit="10"
   cx="222.70599"
   cy="63.414001"
   r="2.9170001"
   id="circle254"
   style="fill:#fcc00e;stroke:#795649;stroke-miterlimit:10" />
	</g>
	<g
   id="g260"
   style="opacity:0.1">
		<path
   d="m 259.441,68.659 c -5.932,-7.441 -8.232,-17.067 -6.153,-26.353 0.63,-2.815 0.879,-5.775 0.687,-8.822 C 253.006,18.07 240.588,5.546 225.182,4.46 c -4.236,-0.298 -8.303,0.261 -12.057,1.507 11.746,3.921 20.446,14.72 21.251,27.517 0.192,3.047 -0.057,6.007 -0.687,8.822 -2.079,9.286 0.222,18.912 6.153,26.353 6.354,7.971 10.152,18.068 10.152,29.055 0,22.399 -15.781,41.109 -36.831,45.626 2.457,0.527 4.979,0.871 7.558,0.99 26.777,1.233 48.873,-20.111 48.873,-46.616 0,-10.987 -3.799,-21.084 -10.153,-29.055 z"
   id="path258"
   inkscape:connector-curvature="0"
   style="fill:#263239" />
	</g>
	<g
   id="g316">
		<g
   id="g278">
			<defs
   id="defs263">
				<circle
   id="XMLID_3_"
   cx="222.98199"
   cy="35.492001"
   r="23.333" />
			</defs>
			<use
   xlink:href="#XMLID_3_"
   overflow="visible"
   id="use265"
   style="overflow:visible;fill:#facbbd"
   x="0"
   y="0"
   width="100%"
   height="100%" />
			<clipPath
   id="XMLID_41_">
				<use
   xlink:href="#XMLID_3_"
   overflow="visible"
   id="use267"
   style="overflow:visible"
   x="0"
   y="0"
   width="100%"
   height="100%" />
			</clipPath>
			<g
   clip-path="url(#XMLID_41_)"
   id="g274">
				<circle
   cx="203.916"
   cy="49.200001"
   r="4.6669998"
   id="circle270"
   style="fill:#f5a992" />
				<circle
   cx="242.047"
   cy="49.200001"
   r="4.6669998"
   id="circle272"
   style="fill:#f5a992" />
			</g>
			<use
   xlink:href="#XMLID_3_"
   overflow="visible"
   stroke-miterlimit="10"
   id="use276"
   style="overflow:visible;fill:none;stroke:#795649;stroke-width:2;stroke-miterlimit:10"
   x="0"
   y="0"
   width="100%"
   height="100%" />
		</g>
		<g
   id="g292">
			<g
   id="g284">
				
					<circle
   stroke-miterlimit="10"
   cx="210.024"
   cy="39.687"
   r="4.638"
   id="circle280"
   style="fill:#37a3dc;stroke:#795649;stroke-linecap:round;stroke-linejoin:round;stroke-miterlimit:10" />
				<path
   d="m 214.58,38.817 c 0,0 -1.392,-6.887 -9.851,-2.181 0,0 7.023,-1.214 9.851,2.181 z"
   id="path282"
   inkscape:connector-curvature="0"
   style="fill:#795649" />
			</g>
			<g
   id="g290">
				
					<circle
   stroke-miterlimit="10"
   cx="235.939"
   cy="39.687"
   r="4.638"
   id="circle286"
   style="fill:#37a3dc;stroke:#795649;stroke-linecap:round;stroke-linejoin:round;stroke-miterlimit:10" />
				<path
   d="m 231.383,38.817 c 0,0 1.392,-6.887 9.851,-2.181 0,0 -7.023,-1.214 -9.851,2.181 z"
   id="path288"
   inkscape:connector-curvature="0"
   style="fill:#795649" />
			</g>
		</g>
		<path
   stroke-miterlimit="10"
   d="m 217.537,43.969 c 0,4.296 2.438,7.778 5.444,7.778 3.007,0 5.444,-3.482 5.444,-7.778 z"
   id="path294"
   inkscape:connector-curvature="0"
   style="fill:#fce9e7;stroke:#795649;stroke-miterlimit:10" />
		<path
   stroke-miterlimit="10"
   d="m 210.024,16.153 c 0,0 10.193,19.339 36.206,17.36 -1.33,-14.549 -18.539,-28.16 -36.206,-17.36 z"
   id="path296"
   inkscape:connector-curvature="0"
   style="fill:#fcc00e;stroke:#795649;stroke-width:2;stroke-miterlimit:10" />
		<path
   stroke-miterlimit="10"
   d="m 217.537,12.801 c 0,0 0,20.712 -17.859,20.712 0.001,0 0.511,-15.792 17.859,-20.712 z"
   id="path298"
   inkscape:connector-curvature="0"
   style="fill:#fcc00e;stroke:#795649;stroke-width:2;stroke-miterlimit:10" />
		<path
   stroke-miterlimit="10"
   d="m 200.104,30.619 c 0,0 12.079,-0.273 14.049,-16.731"
   id="path300"
   inkscape:connector-curvature="0"
   style="fill:none;stroke:#795649;stroke-miterlimit:10" />
		<path
   stroke-miterlimit="10"
   d="m 201.337,26.682 c 0,0 6.898,-1.236 8.317,-10.283"
   id="path302"
   inkscape:connector-curvature="0"
   style="fill:none;stroke:#795649;stroke-miterlimit:10" />
		<path
   stroke-miterlimit="10"
   d="m 216.647,18.62 c 0,0 12.658,12.915 28.799,10.835"
   id="path304"
   inkscape:connector-curvature="0"
   style="fill:none;stroke:#795649;stroke-miterlimit:10" />
		<path
   stroke-miterlimit="10"
   d="m 217.537,13.887 c 0,0 13.332,12.794 26.495,11.947"
   id="path306"
   inkscape:connector-curvature="0"
   style="fill:none;stroke:#795649;stroke-miterlimit:10" />
		<path
   stroke-miterlimit="10"
   d="m 222.234,12.278 c 0,0 8.473,8.113 19.111,9.262"
   id="path308"
   inkscape:connector-curvature="0"
   style="fill:none;stroke:#795649;stroke-miterlimit:10" />
		<circle
   cx="208.071"
   cy="16.417999"
   r="4.1999998"
   id="circle310"
   style="opacity:0.8;fill:#ffffff" />
		<circle
   cx="201.89799"
   cy="23"
   r="2.8"
   id="circle312"
   style="opacity:0.8;fill:#ffffff" />
		<circle
   cx="208.49699"
   cy="24.622"
   r="1.4"
   id="circle314"
   style="opacity:0.8;fill:#ffffff" />
	</g>
</g>






<g
   id="g1938"
   transform="translate(-174.04039,-2.381)">
</g>
<g
   id="g1940"
   transform="translate(-174.04039,-2.381)">
</g>
<g
   id="g1942"
   transform="translate(-174.04039,-2.381)">
</g>
<g
   id="g1944"
   transform="translate(-174.04039,-2.381)">
</g>
<g
   id="g1946"
   transform="translate(-174.04039,-2.381)">
</g>
<g
   id="g1948"
   transform="translate(-174.04039,-2.381)">
</g>
</svg>