<?xml version="1.0" encoding="UTF-8" standalone="no"?>
<!-- Generator: Adobe Illustrator 17.0.0, SVG Export Plug-In . SVG Version: 6.00 Build 0)  -->

<svg
   xmlns:dc="http://purl.org/dc/elements/1.1/"
   xmlns:cc="http://creativecommons.org/ns#"
   xmlns:rdf="http://www.w3.org/1999/02/22-rdf-syntax-ns#"
   xmlns:svg="http://www.w3.org/2000/svg"
   xmlns="http://www.w3.org/2000/svg"
   xmlns:xlink="http://www.w3.org/1999/xlink"
   xmlns:sodipodi="http://sodipodi.sourceforge.net/DTD/sodipodi-0.dtd"
   xmlns:inkscape="http://www.inkscape.org/namespaces/inkscape"
   version="1.1"
   id="Слой_1"
   x="0px"
   y="0px"
   width="97.333435"
   height="144"
   viewBox="0 0 97.333435 144"
   enable-background="new 0 0 1200 150"
   xml:space="preserve"
   sodipodi:docname="4.svg"
   inkscape:version="0.92.4 (5da689c313, 2019-01-14)"><metadata
   id="metadata1955"><rdf:RDF><cc:Work
       rdf:about=""><dc:format>image/svg+xml</dc:format><dc:type
         rdf:resource="http://purl.org/dc/dcmitype/StillImage" /><dc:title></dc:title></cc:Work></rdf:RDF></metadata><defs
   id="defs1953" /><sodipodi:namedview
   pagecolor="#ffffff"
   bordercolor="#666666"
   borderopacity="1"
   objecttolerance="10"
   gridtolerance="10"
   guidetolerance="10"
   inkscape:pageopacity="0"
   inkscape:pageshadow="2"
   inkscape:window-width="1920"
   inkscape:window-height="1017"
   id="namedview1951"
   showgrid="false"
   inkscape:zoom="0.94666667"
   inkscape:cx="222.5655"
   inkscape:cy="-39.723073"
   inkscape:window-x="-8"
   inkscape:window-y="-8"
   inkscape:window-maximized="1"
   inkscape:current-layer="Слой_1"
   fit-margin-top="0"
   fit-margin-left="0"
   fit-margin-right="0"
   fit-margin-bottom="0" />




<g
   id="g981"
   transform="translate(-627.33356,-3.688)">
	<g
   id="XMLID_40_">
		<path
   d="m 676,146.688 c -0.747,0 -1.499,-0.018 -2.253,-0.052 -24.3,-1.119 -44.225,-21.03 -45.361,-45.329 -0.54,-11.563 3.109,-22.895 10.275,-31.91 5.894,-7.416 8.111,-16.607 6.082,-25.217 -0.567,-2.404 -0.854,-4.888 -0.854,-7.381 0,-17.706 14.405,-32.111 32.111,-32.111 0.77,0 1.553,0.028 2.325,0.082 15.939,1.123 28.717,14.002 29.721,29.958 0.193,3.076 -0.045,6.138 -0.709,9.104 -2.003,8.949 0.169,18.247 5.96,25.511 6.784,8.511 10.37,18.773 10.37,29.678 0,12.732 -4.958,24.703 -13.961,33.706 -9.003,9.003 -20.974,13.961 -33.706,13.961 0,0 0,0 0,0 z"
   id="path590"
   inkscape:connector-curvature="0"
   style="fill:#f6bbd0" />
		<g
   id="g594">
			<path
   d="m 675.999,5.688 c 0.745,0 1.498,0.026 2.255,0.08 15.406,1.086 27.824,13.61 28.793,29.024 0.192,3.047 -0.057,6.007 -0.687,8.822 -2.079,9.286 0.222,18.912 6.153,26.353 6.354,7.971 10.152,18.068 10.152,29.055 0,25.774 -20.893,46.667 -46.667,46.667 -0.731,0 -1.468,-0.017 -2.206,-0.051 -23.893,-1.1 -43.291,-20.484 -44.408,-44.377 -0.553,-11.827 3.301,-22.74 10.058,-31.242 5.853,-7.364 8.43,-16.912 6.272,-26.069 -0.541,-2.296 -0.827,-4.69 -0.827,-7.151 0.001,-17.183 13.929,-31.111 31.112,-31.111 m 0,-2 c -18.258,0 -33.111,14.854 -33.111,33.111 0,2.57 0.296,5.13 0.881,7.61 1.959,8.31 -0.189,17.191 -5.891,24.365 -7.317,9.205 -11.042,20.776 -10.491,32.58 0.564,12.054 5.623,23.439 14.247,32.057 8.624,8.618 20.012,13.669 32.067,14.224 0.764,0.035 1.537,0.053 2.299,0.053 26.835,0 48.667,-21.832 48.667,-48.667 0,-11.134 -3.661,-21.612 -10.588,-30.301 -5.601,-7.026 -7.703,-16.018 -5.766,-24.669 0.685,-3.058 0.931,-6.215 0.731,-9.385 C 708.009,18.212 694.833,4.931 678.395,3.772 677.598,3.716 676.792,3.688 675.999,3.688 Z"
   id="path592"
   inkscape:connector-curvature="0"
   style="fill:#795649" />
		</g>
	</g>
	<g
   id="g897">
		<defs
   id="defs598">
			<path
   id="XMLID_39_"
   d="m 706.36,43.613 c 0.63,-2.815 0.878,-5.775 0.687,-8.822 C 706.078,19.377 693.66,6.852 678.254,5.767 660.052,4.484 644.888,18.871 644.888,36.799 c 0,2.461 0.286,4.855 0.827,7.151 2.158,9.156 -0.419,18.704 -6.272,26.069 -6.758,8.502 -10.611,19.415 -10.058,31.242 1.117,23.893 20.514,43.276 44.408,44.377 26.777,1.233 48.873,-20.111 48.873,-46.616 0,-10.987 -3.798,-21.084 -10.152,-29.055 -5.932,-7.441 -8.233,-17.068 -6.154,-26.354 z"
   inkscape:connector-curvature="0" />
		</defs>
		<clipPath
   id="XMLID_46_">
			<use
   xlink:href="#XMLID_39_"
   overflow="visible"
   id="use600"
   style="overflow:visible"
   x="0"
   y="0"
   width="100%"
   height="100%" />
		</clipPath>
		<g
   clip-path="url(#XMLID_46_)"
   id="g699">
			<g
   id="g633">
				<g
   id="g605">
					<path
   stroke-miterlimit="10"
   d="m 634.136,83.059 c 1.482,0.737 1.808,3.094 0.632,5.46 -1.527,3.071 -5.94,5.217 -5.94,5.217 0,0 -0.954,-4.814 0.573,-7.885 1.177,-2.366 3.253,-3.529 4.735,-2.792 z"
   id="path603"
   inkscape:connector-curvature="0"
   style="fill:#ec6392;stroke:#795649;stroke-linecap:round;stroke-linejoin:round;stroke-miterlimit:10" />
				</g>
				<g
   id="g609">
					<path
   stroke-miterlimit="10"
   d="m 620.317,85.387 c 1.159,-1.182 3.502,-0.764 5.388,1.086 2.449,2.401 3.126,7.262 3.126,7.262 0,0 -4.873,-0.581 -7.322,-2.982 -1.887,-1.85 -2.351,-4.184 -1.192,-5.366 z"
   id="path607"
   inkscape:connector-curvature="0"
   style="fill:#ec6392;stroke:#795649;stroke-linecap:round;stroke-linejoin:round;stroke-miterlimit:10" />
				</g>
				<g
   id="g613">
					<path
   stroke-miterlimit="10"
   d="m 618.258,99.253 c -0.766,-1.467 0.356,-3.566 2.698,-4.789 3.041,-1.587 7.872,-0.729 7.872,-0.729 0,0 -2.058,4.455 -5.099,6.042 -2.342,1.223 -4.705,0.944 -5.471,-0.524 z"
   id="path611"
   inkscape:connector-curvature="0"
   style="fill:#ec6392;stroke:#795649;stroke-linecap:round;stroke-linejoin:round;stroke-miterlimit:10" />
				</g>
				<g
   id="g617">
					<path
   stroke-miterlimit="10"
   d="m 630.811,105.494 c -1.632,0.275 -3.282,-1.44 -3.721,-4.046 -0.57,-3.382 1.739,-7.712 1.739,-7.712 0,0 3.601,3.334 4.171,6.716 0.439,2.606 -0.557,4.767 -2.189,5.042 z"
   id="path615"
   inkscape:connector-curvature="0"
   style="fill:#ec6392;stroke:#795649;stroke-linecap:round;stroke-linejoin:round;stroke-miterlimit:10" />
				</g>
				<g
   id="g621">
					<path
   stroke-miterlimit="10"
   d="m 640.623,95.483 c -0.243,1.637 -2.384,2.676 -4.997,2.288 -3.393,-0.503 -6.797,-4.037 -6.797,-4.037 0,0 4.283,-2.394 7.676,-1.891 2.613,0.387 4.361,2.003 4.118,3.64 z"
   id="path619"
   inkscape:connector-curvature="0"
   style="fill:#ec6392;stroke:#795649;stroke-linecap:round;stroke-linejoin:round;stroke-miterlimit:10" />
				</g>
				<path
   stroke-miterlimit="10"
   d="m 631.063,89.241 c 0.605,0.301 0.739,1.264 0.258,2.23 -0.624,1.254 -2.492,2.264 -2.492,2.264 0,0 -0.323,-2.1 0.301,-3.354 0.479,-0.966 1.327,-1.441 1.933,-1.14 z"
   id="path623"
   inkscape:connector-curvature="0"
   style="fill:#fcc00e;stroke:#795649;stroke-miterlimit:10" />
				<path
   stroke-miterlimit="10"
   d="m 625.246,90.221 c 0.473,-0.483 1.43,-0.312 2.2,0.444 1,0.981 1.383,3.07 1.383,3.07 0,0 -2.097,-0.342 -3.097,-1.322 -0.769,-0.756 -0.959,-1.709 -0.486,-2.192 z"
   id="path625"
   inkscape:connector-curvature="0"
   style="fill:#fcc00e;stroke:#795649;stroke-miterlimit:10" />
				<path
   stroke-miterlimit="10"
   d="m 624.379,96.058 c -0.313,-0.599 0.145,-1.456 1.102,-1.956 1.242,-0.648 3.347,-0.367 3.347,-0.367 0,0 -0.973,1.888 -2.215,2.537 -0.956,0.499 -1.921,0.385 -2.234,-0.214 z"
   id="path627"
   inkscape:connector-curvature="0"
   style="fill:#fcc00e;stroke:#795649;stroke-miterlimit:10" />
				<path
   stroke-miterlimit="10"
   d="m 629.663,98.685 c -0.667,0.112 -1.34,-0.588 -1.52,-1.652 -0.233,-1.381 0.686,-3.297 0.686,-3.297 0,0 1.495,1.509 1.728,2.89 0.18,1.064 -0.227,1.946 -0.894,2.059 z"
   id="path629"
   inkscape:connector-curvature="0"
   style="fill:#fcc00e;stroke:#795649;stroke-miterlimit:10" />
				<path
   stroke-miterlimit="10"
   d="m 633.793,94.47 c -0.099,0.669 -0.974,1.093 -2.041,0.935 -1.386,-0.205 -2.924,-1.671 -2.924,-1.671 0,0 1.897,-0.956 3.283,-0.75 1.068,0.158 1.781,0.818 1.682,1.486 z"
   id="path631"
   inkscape:connector-curvature="0"
   style="fill:#fcc00e;stroke:#795649;stroke-miterlimit:10" />
			</g>
			<g
   id="g665">
				<g
   id="g637">
					<path
   stroke-miterlimit="10"
   d="m 681.54,83.059 c 1.482,0.737 1.808,3.094 0.632,5.46 -1.527,3.071 -5.94,5.217 -5.94,5.217 0,0 -0.954,-4.814 0.573,-7.885 1.176,-2.366 3.253,-3.529 4.735,-2.792 z"
   id="path635"
   inkscape:connector-curvature="0"
   style="fill:#ec6392;stroke:#795649;stroke-linecap:round;stroke-linejoin:round;stroke-miterlimit:10" />
				</g>
				<g
   id="g641">
					<path
   stroke-miterlimit="10"
   d="m 667.72,85.387 c 1.159,-1.182 3.502,-0.764 5.388,1.086 2.449,2.401 3.126,7.262 3.126,7.262 0,0 -4.873,-0.581 -7.322,-2.982 -1.886,-1.85 -2.35,-4.184 -1.192,-5.366 z"
   id="path639"
   inkscape:connector-curvature="0"
   style="fill:#ec6392;stroke:#795649;stroke-linecap:round;stroke-linejoin:round;stroke-miterlimit:10" />
				</g>
				<g
   id="g645">
					<path
   stroke-miterlimit="10"
   d="m 665.662,99.253 c -0.766,-1.467 0.356,-3.566 2.698,-4.789 3.041,-1.587 7.872,-0.729 7.872,-0.729 0,0 -2.058,4.455 -5.098,6.042 -2.343,1.223 -4.707,0.944 -5.472,-0.524 z"
   id="path643"
   inkscape:connector-curvature="0"
   style="fill:#ec6392;stroke:#795649;stroke-linecap:round;stroke-linejoin:round;stroke-miterlimit:10" />
				</g>
				<g
   id="g649">
					<path
   stroke-miterlimit="10"
   d="m 678.215,105.494 c -1.632,0.275 -3.282,-1.44 -3.721,-4.046 -0.57,-3.382 1.74,-7.712 1.74,-7.712 0,0 3.601,3.334 4.171,6.716 0.438,2.606 -0.558,4.767 -2.19,5.042 z"
   id="path647"
   inkscape:connector-curvature="0"
   style="fill:#ec6392;stroke:#795649;stroke-linecap:round;stroke-linejoin:round;stroke-miterlimit:10" />
				</g>
				<g
   id="g653">
					<path
   stroke-miterlimit="10"
   d="m 688.027,95.483 c -0.243,1.637 -2.384,2.676 -4.997,2.288 -3.393,-0.503 -6.797,-4.037 -6.797,-4.037 0,0 4.283,-2.394 7.676,-1.891 2.613,0.387 4.361,2.003 4.118,3.64 z"
   id="path651"
   inkscape:connector-curvature="0"
   style="fill:#ec6392;stroke:#795649;stroke-linecap:round;stroke-linejoin:round;stroke-miterlimit:10" />
				</g>
				<path
   stroke-miterlimit="10"
   d="m 678.466,89.241 c 0.605,0.301 0.739,1.264 0.258,2.23 -0.624,1.254 -2.492,2.264 -2.492,2.264 0,0 -0.323,-2.1 0.301,-3.354 0.48,-0.966 1.328,-1.441 1.933,-1.14 z"
   id="path655"
   inkscape:connector-curvature="0"
   style="fill:#fcc00e;stroke:#795649;stroke-miterlimit:10" />
				<path
   stroke-miterlimit="10"
   d="m 672.65,90.221 c 0.473,-0.483 1.43,-0.312 2.201,0.444 1,0.981 1.383,3.07 1.383,3.07 0,0 -2.097,-0.342 -3.097,-1.322 -0.771,-0.756 -0.96,-1.709 -0.487,-2.192 z"
   id="path657"
   inkscape:connector-curvature="0"
   style="fill:#fcc00e;stroke:#795649;stroke-miterlimit:10" />
				<path
   stroke-miterlimit="10"
   d="m 671.783,96.058 c -0.313,-0.599 0.145,-1.456 1.102,-1.956 1.242,-0.648 3.347,-0.367 3.347,-0.367 0,0 -0.973,1.888 -2.215,2.537 -0.956,0.499 -1.921,0.385 -2.234,-0.214 z"
   id="path659"
   inkscape:connector-curvature="0"
   style="fill:#fcc00e;stroke:#795649;stroke-miterlimit:10" />
				<path
   stroke-miterlimit="10"
   d="m 677.067,98.685 c -0.667,0.112 -1.34,-0.588 -1.519,-1.652 -0.233,-1.381 0.686,-3.297 0.686,-3.297 0,0 1.495,1.509 1.728,2.89 0.178,1.064 -0.229,1.946 -0.895,2.059 z"
   id="path661"
   inkscape:connector-curvature="0"
   style="fill:#fcc00e;stroke:#795649;stroke-miterlimit:10" />
				<path
   stroke-miterlimit="10"
   d="m 681.197,94.47 c -0.099,0.669 -0.974,1.093 -2.041,0.935 -1.386,-0.205 -2.924,-1.671 -2.924,-1.671 0,0 1.897,-0.956 3.283,-0.75 1.067,0.158 1.781,0.818 1.682,1.486 z"
   id="path663"
   inkscape:connector-curvature="0"
   style="fill:#fcc00e;stroke:#795649;stroke-miterlimit:10" />
			</g>
			<g
   id="g697">
				<g
   id="g669">
					<path
   stroke-miterlimit="10"
   d="m 728.943,83.059 c 1.482,0.737 1.808,3.094 0.632,5.46 -1.527,3.071 -5.94,5.217 -5.94,5.217 0,0 -0.954,-4.814 0.573,-7.885 1.177,-2.366 3.253,-3.529 4.735,-2.792 z"
   id="path667"
   inkscape:connector-curvature="0"
   style="fill:#ec6392;stroke:#795649;stroke-linecap:round;stroke-linejoin:round;stroke-miterlimit:10" />
				</g>
				<g
   id="g673">
					<path
   stroke-miterlimit="10"
   d="m 715.124,85.387 c 1.159,-1.182 3.502,-0.764 5.388,1.086 2.449,2.401 3.126,7.262 3.126,7.262 0,0 -4.873,-0.581 -7.322,-2.982 -1.886,-1.85 -2.351,-4.184 -1.192,-5.366 z"
   id="path671"
   inkscape:connector-curvature="0"
   style="fill:#ec6392;stroke:#795649;stroke-linecap:round;stroke-linejoin:round;stroke-miterlimit:10" />
				</g>
				<g
   id="g677">
					<path
   stroke-miterlimit="10"
   d="m 713.065,99.253 c -0.766,-1.467 0.356,-3.566 2.698,-4.789 3.041,-1.587 7.872,-0.729 7.872,-0.729 0,0 -2.058,4.455 -5.099,6.042 -2.342,1.223 -4.705,0.944 -5.471,-0.524 z"
   id="path675"
   inkscape:connector-curvature="0"
   style="fill:#ec6392;stroke:#795649;stroke-linecap:round;stroke-linejoin:round;stroke-miterlimit:10" />
				</g>
				<g
   id="g681">
					<path
   stroke-miterlimit="10"
   d="m 725.618,105.494 c -1.632,0.275 -3.282,-1.44 -3.721,-4.046 -0.57,-3.382 1.74,-7.712 1.74,-7.712 0,0 3.601,3.334 4.171,6.716 0.439,2.606 -0.558,4.767 -2.19,5.042 z"
   id="path679"
   inkscape:connector-curvature="0"
   style="fill:#ec6392;stroke:#795649;stroke-linecap:round;stroke-linejoin:round;stroke-miterlimit:10" />
				</g>
				<g
   id="g685">
					<path
   stroke-miterlimit="10"
   d="m 735.43,95.483 c -0.243,1.637 -2.384,2.676 -4.997,2.288 -3.393,-0.503 -6.797,-4.037 -6.797,-4.037 0,0 4.283,-2.394 7.676,-1.891 2.614,0.387 4.361,2.003 4.118,3.64 z"
   id="path683"
   inkscape:connector-curvature="0"
   style="fill:#ec6392;stroke:#795649;stroke-linecap:round;stroke-linejoin:round;stroke-miterlimit:10" />
				</g>
				<path
   stroke-miterlimit="10"
   d="m 725.87,89.241 c 0.605,0.301 0.739,1.264 0.258,2.23 -0.624,1.254 -2.492,2.264 -2.492,2.264 0,0 -0.323,-2.1 0.301,-3.354 0.48,-0.966 1.328,-1.441 1.933,-1.14 z"
   id="path687"
   inkscape:connector-curvature="0"
   style="fill:#fcc00e;stroke:#795649;stroke-miterlimit:10" />
				<path
   stroke-miterlimit="10"
   d="m 720.054,90.221 c 0.473,-0.483 1.43,-0.312 2.2,0.444 1,0.981 1.383,3.07 1.383,3.07 0,0 -2.097,-0.342 -3.097,-1.322 -0.77,-0.756 -0.96,-1.709 -0.486,-2.192 z"
   id="path689"
   inkscape:connector-curvature="0"
   style="fill:#fcc00e;stroke:#795649;stroke-miterlimit:10" />
				<path
   stroke-miterlimit="10"
   d="m 719.187,96.058 c -0.313,-0.599 0.145,-1.456 1.102,-1.956 1.242,-0.648 3.347,-0.367 3.347,-0.367 0,0 -0.973,1.888 -2.215,2.537 -0.957,0.499 -1.922,0.385 -2.234,-0.214 z"
   id="path691"
   inkscape:connector-curvature="0"
   style="fill:#fcc00e;stroke:#795649;stroke-miterlimit:10" />
				<path
   stroke-miterlimit="10"
   d="m 724.471,98.685 c -0.667,0.112 -1.34,-0.588 -1.52,-1.652 -0.233,-1.381 0.686,-3.297 0.686,-3.297 0,0 1.495,1.509 1.728,2.89 0.179,1.064 -0.228,1.946 -0.894,2.059 z"
   id="path693"
   inkscape:connector-curvature="0"
   style="fill:#fcc00e;stroke:#795649;stroke-miterlimit:10" />
				<path
   stroke-miterlimit="10"
   d="m 728.601,94.47 c -0.099,0.669 -0.974,1.093 -2.041,0.935 -1.386,-0.205 -2.924,-1.671 -2.924,-1.671 0,0 1.897,-0.956 3.283,-0.75 1.067,0.158 1.781,0.818 1.682,1.486 z"
   id="path695"
   inkscape:connector-curvature="0"
   style="fill:#fcc00e;stroke:#795649;stroke-miterlimit:10" />
			</g>
		</g>
		<g
   clip-path="url(#XMLID_46_)"
   id="g797">
			<g
   id="g731">
				<g
   id="g703">
					<path
   stroke-miterlimit="10"
   d="m 634.136,140.693 c 1.482,0.737 1.808,3.094 0.632,5.46 -1.527,3.071 -5.94,5.217 -5.94,5.217 0,0 -0.954,-4.814 0.573,-7.885 1.177,-2.367 3.253,-3.529 4.735,-2.792 z"
   id="path701"
   inkscape:connector-curvature="0"
   style="fill:#ec6392;stroke:#795649;stroke-linecap:round;stroke-linejoin:round;stroke-miterlimit:10" />
				</g>
				<g
   id="g707">
					<path
   stroke-miterlimit="10"
   d="m 620.317,143.021 c 1.159,-1.182 3.502,-0.764 5.388,1.086 2.449,2.401 3.126,7.262 3.126,7.262 0,0 -4.873,-0.581 -7.322,-2.982 -1.887,-1.85 -2.351,-4.184 -1.192,-5.366 z"
   id="path705"
   inkscape:connector-curvature="0"
   style="fill:#ec6392;stroke:#795649;stroke-linecap:round;stroke-linejoin:round;stroke-miterlimit:10" />
				</g>
				<g
   id="g711">
					<path
   stroke-miterlimit="10"
   d="m 618.258,156.887 c -0.766,-1.467 0.356,-3.566 2.698,-4.789 3.041,-1.587 7.872,-0.729 7.872,-0.729 0,0 -2.058,4.455 -5.099,6.042 -2.342,1.223 -4.705,0.943 -5.471,-0.524 z"
   id="path709"
   inkscape:connector-curvature="0"
   style="fill:#ec6392;stroke:#795649;stroke-linecap:round;stroke-linejoin:round;stroke-miterlimit:10" />
				</g>
				<g
   id="g715">
					<path
   stroke-miterlimit="10"
   d="m 630.811,163.128 c -1.632,0.275 -3.282,-1.44 -3.721,-4.046 -0.57,-3.382 1.739,-7.712 1.739,-7.712 0,0 3.601,3.334 4.171,6.716 0.439,2.606 -0.557,4.767 -2.189,5.042 z"
   id="path713"
   inkscape:connector-curvature="0"
   style="fill:#ec6392;stroke:#795649;stroke-linecap:round;stroke-linejoin:round;stroke-miterlimit:10" />
				</g>
				<g
   id="g719">
					<path
   stroke-miterlimit="10"
   d="m 640.623,153.116 c -0.243,1.637 -2.384,2.676 -4.997,2.288 -3.393,-0.503 -6.797,-4.037 -6.797,-4.037 0,0 4.283,-2.394 7.676,-1.891 2.613,0.388 4.361,2.003 4.118,3.64 z"
   id="path717"
   inkscape:connector-curvature="0"
   style="fill:#ec6392;stroke:#795649;stroke-linecap:round;stroke-linejoin:round;stroke-miterlimit:10" />
				</g>
				<path
   stroke-miterlimit="10"
   d="m 631.063,146.874 c 0.605,0.301 0.739,1.264 0.258,2.23 -0.624,1.254 -2.492,2.264 -2.492,2.264 0,0 -0.323,-2.1 0.301,-3.354 0.479,-0.966 1.327,-1.44 1.933,-1.14 z"
   id="path721"
   inkscape:connector-curvature="0"
   style="fill:#fcc00e;stroke:#795649;stroke-miterlimit:10" />
				<path
   stroke-miterlimit="10"
   d="m 625.246,147.854 c 0.473,-0.483 1.43,-0.312 2.2,0.444 1,0.981 1.383,3.07 1.383,3.07 0,0 -2.097,-0.342 -3.097,-1.322 -0.769,-0.756 -0.959,-1.709 -0.486,-2.192 z"
   id="path723"
   inkscape:connector-curvature="0"
   style="fill:#fcc00e;stroke:#795649;stroke-miterlimit:10" />
				<path
   stroke-miterlimit="10"
   d="m 624.379,153.691 c -0.313,-0.599 0.145,-1.456 1.102,-1.956 1.242,-0.648 3.347,-0.367 3.347,-0.367 0,0 -0.973,1.888 -2.215,2.537 -0.956,0.499 -1.921,0.385 -2.234,-0.214 z"
   id="path725"
   inkscape:connector-curvature="0"
   style="fill:#fcc00e;stroke:#795649;stroke-miterlimit:10" />
				<path
   stroke-miterlimit="10"
   d="m 629.663,156.318 c -0.667,0.112 -1.34,-0.588 -1.52,-1.652 -0.233,-1.381 0.686,-3.297 0.686,-3.297 0,0 1.495,1.509 1.728,2.89 0.18,1.064 -0.227,1.947 -0.894,2.059 z"
   id="path727"
   inkscape:connector-curvature="0"
   style="fill:#fcc00e;stroke:#795649;stroke-miterlimit:10" />
				<path
   stroke-miterlimit="10"
   d="m 633.793,152.104 c -0.099,0.669 -0.974,1.093 -2.041,0.935 -1.386,-0.205 -2.924,-1.671 -2.924,-1.671 0,0 1.897,-0.956 3.283,-0.75 1.068,0.157 1.781,0.817 1.682,1.486 z"
   id="path729"
   inkscape:connector-curvature="0"
   style="fill:#fcc00e;stroke:#795649;stroke-miterlimit:10" />
			</g>
			<g
   id="g763">
				<g
   id="g735">
					<path
   stroke-miterlimit="10"
   d="m 681.54,140.693 c 1.482,0.737 1.808,3.094 0.632,5.46 -1.527,3.071 -5.94,5.217 -5.94,5.217 0,0 -0.954,-4.814 0.573,-7.885 1.176,-2.367 3.253,-3.529 4.735,-2.792 z"
   id="path733"
   inkscape:connector-curvature="0"
   style="fill:#ec6392;stroke:#795649;stroke-linecap:round;stroke-linejoin:round;stroke-miterlimit:10" />
				</g>
				<g
   id="g739">
					<path
   stroke-miterlimit="10"
   d="m 667.72,143.021 c 1.159,-1.182 3.502,-0.764 5.388,1.086 2.449,2.401 3.126,7.262 3.126,7.262 0,0 -4.873,-0.581 -7.322,-2.982 -1.886,-1.85 -2.35,-4.184 -1.192,-5.366 z"
   id="path737"
   inkscape:connector-curvature="0"
   style="fill:#ec6392;stroke:#795649;stroke-linecap:round;stroke-linejoin:round;stroke-miterlimit:10" />
				</g>
				<g
   id="g743">
					<path
   stroke-miterlimit="10"
   d="m 665.662,156.887 c -0.766,-1.467 0.356,-3.566 2.698,-4.789 3.041,-1.587 7.872,-0.729 7.872,-0.729 0,0 -2.058,4.455 -5.098,6.042 -2.343,1.223 -4.707,0.943 -5.472,-0.524 z"
   id="path741"
   inkscape:connector-curvature="0"
   style="fill:#ec6392;stroke:#795649;stroke-linecap:round;stroke-linejoin:round;stroke-miterlimit:10" />
				</g>
				<g
   id="g747">
					<path
   stroke-miterlimit="10"
   d="m 678.215,163.128 c -1.632,0.275 -3.282,-1.44 -3.721,-4.046 -0.57,-3.382 1.74,-7.712 1.74,-7.712 0,0 3.601,3.334 4.171,6.716 0.438,2.606 -0.558,4.767 -2.19,5.042 z"
   id="path745"
   inkscape:connector-curvature="0"
   style="fill:#ec6392;stroke:#795649;stroke-linecap:round;stroke-linejoin:round;stroke-miterlimit:10" />
				</g>
				<g
   id="g751">
					<path
   stroke-miterlimit="10"
   d="m 688.027,153.116 c -0.243,1.637 -2.384,2.676 -4.997,2.288 -3.393,-0.503 -6.797,-4.037 -6.797,-4.037 0,0 4.283,-2.394 7.676,-1.891 2.613,0.388 4.361,2.003 4.118,3.64 z"
   id="path749"
   inkscape:connector-curvature="0"
   style="fill:#ec6392;stroke:#795649;stroke-linecap:round;stroke-linejoin:round;stroke-miterlimit:10" />
				</g>
				<path
   stroke-miterlimit="10"
   d="m 678.466,146.874 c 0.605,0.301 0.739,1.264 0.258,2.23 -0.624,1.254 -2.492,2.264 -2.492,2.264 0,0 -0.323,-2.1 0.301,-3.354 0.48,-0.966 1.328,-1.44 1.933,-1.14 z"
   id="path753"
   inkscape:connector-curvature="0"
   style="fill:#fcc00e;stroke:#795649;stroke-miterlimit:10" />
				<path
   stroke-miterlimit="10"
   d="m 672.65,147.854 c 0.473,-0.483 1.43,-0.312 2.201,0.444 1,0.981 1.383,3.07 1.383,3.07 0,0 -2.097,-0.342 -3.097,-1.322 -0.771,-0.756 -0.96,-1.709 -0.487,-2.192 z"
   id="path755"
   inkscape:connector-curvature="0"
   style="fill:#fcc00e;stroke:#795649;stroke-miterlimit:10" />
				<path
   stroke-miterlimit="10"
   d="m 671.783,153.691 c -0.313,-0.599 0.145,-1.456 1.102,-1.956 1.242,-0.648 3.347,-0.367 3.347,-0.367 0,0 -0.973,1.888 -2.215,2.537 -0.956,0.499 -1.921,0.385 -2.234,-0.214 z"
   id="path757"
   inkscape:connector-curvature="0"
   style="fill:#fcc00e;stroke:#795649;stroke-miterlimit:10" />
				<path
   stroke-miterlimit="10"
   d="m 677.067,156.318 c -0.667,0.112 -1.34,-0.588 -1.519,-1.652 -0.233,-1.381 0.686,-3.297 0.686,-3.297 0,0 1.495,1.509 1.728,2.89 0.178,1.064 -0.229,1.947 -0.895,2.059 z"
   id="path759"
   inkscape:connector-curvature="0"
   style="fill:#fcc00e;stroke:#795649;stroke-miterlimit:10" />
				<path
   stroke-miterlimit="10"
   d="m 681.197,152.104 c -0.099,0.669 -0.974,1.093 -2.041,0.935 -1.386,-0.205 -2.924,-1.671 -2.924,-1.671 0,0 1.897,-0.956 3.283,-0.75 1.067,0.157 1.781,0.817 1.682,1.486 z"
   id="path761"
   inkscape:connector-curvature="0"
   style="fill:#fcc00e;stroke:#795649;stroke-miterlimit:10" />
			</g>
			<g
   id="g795">
				<g
   id="g767">
					<path
   stroke-miterlimit="10"
   d="m 728.943,140.693 c 1.482,0.737 1.808,3.094 0.632,5.46 -1.527,3.071 -5.94,5.217 -5.94,5.217 0,0 -0.954,-4.814 0.573,-7.885 1.177,-2.367 3.253,-3.529 4.735,-2.792 z"
   id="path765"
   inkscape:connector-curvature="0"
   style="fill:#ec6392;stroke:#795649;stroke-linecap:round;stroke-linejoin:round;stroke-miterlimit:10" />
				</g>
				<g
   id="g771">
					<path
   stroke-miterlimit="10"
   d="m 715.124,143.021 c 1.159,-1.182 3.502,-0.764 5.388,1.086 2.449,2.401 3.126,7.262 3.126,7.262 0,0 -4.873,-0.581 -7.322,-2.982 -1.886,-1.85 -2.351,-4.184 -1.192,-5.366 z"
   id="path769"
   inkscape:connector-curvature="0"
   style="fill:#ec6392;stroke:#795649;stroke-linecap:round;stroke-linejoin:round;stroke-miterlimit:10" />
				</g>
				<g
   id="g775">
					<path
   stroke-miterlimit="10"
   d="m 713.065,156.887 c -0.766,-1.467 0.356,-3.566 2.698,-4.789 3.041,-1.587 7.872,-0.729 7.872,-0.729 0,0 -2.058,4.455 -5.099,6.042 -2.342,1.223 -4.705,0.943 -5.471,-0.524 z"
   id="path773"
   inkscape:connector-curvature="0"
   style="fill:#ec6392;stroke:#795649;stroke-linecap:round;stroke-linejoin:round;stroke-miterlimit:10" />
				</g>
				<g
   id="g779">
					<path
   stroke-miterlimit="10"
   d="m 725.618,163.128 c -1.632,0.275 -3.282,-1.44 -3.721,-4.046 -0.57,-3.382 1.74,-7.712 1.74,-7.712 0,0 3.601,3.334 4.171,6.716 0.439,2.606 -0.558,4.767 -2.19,5.042 z"
   id="path777"
   inkscape:connector-curvature="0"
   style="fill:#ec6392;stroke:#795649;stroke-linecap:round;stroke-linejoin:round;stroke-miterlimit:10" />
				</g>
				<g
   id="g783">
					<path
   stroke-miterlimit="10"
   d="m 735.43,153.116 c -0.243,1.637 -2.384,2.676 -4.997,2.288 -3.393,-0.503 -6.797,-4.037 -6.797,-4.037 0,0 4.283,-2.394 7.676,-1.891 2.614,0.388 4.361,2.003 4.118,3.64 z"
   id="path781"
   inkscape:connector-curvature="0"
   style="fill:#ec6392;stroke:#795649;stroke-linecap:round;stroke-linejoin:round;stroke-miterlimit:10" />
				</g>
				<path
   stroke-miterlimit="10"
   d="m 725.87,146.874 c 0.605,0.301 0.739,1.264 0.258,2.23 -0.624,1.254 -2.492,2.264 -2.492,2.264 0,0 -0.323,-2.1 0.301,-3.354 0.48,-0.966 1.328,-1.44 1.933,-1.14 z"
   id="path785"
   inkscape:connector-curvature="0"
   style="fill:#fcc00e;stroke:#795649;stroke-miterlimit:10" />
				<path
   stroke-miterlimit="10"
   d="m 720.054,147.854 c 0.473,-0.483 1.43,-0.312 2.2,0.444 1,0.981 1.383,3.07 1.383,3.07 0,0 -2.097,-0.342 -3.097,-1.322 -0.77,-0.756 -0.96,-1.709 -0.486,-2.192 z"
   id="path787"
   inkscape:connector-curvature="0"
   style="fill:#fcc00e;stroke:#795649;stroke-miterlimit:10" />
				<path
   stroke-miterlimit="10"
   d="m 719.187,153.691 c -0.313,-0.599 0.145,-1.456 1.102,-1.956 1.242,-0.648 3.347,-0.367 3.347,-0.367 0,0 -0.973,1.888 -2.215,2.537 -0.957,0.499 -1.922,0.385 -2.234,-0.214 z"
   id="path789"
   inkscape:connector-curvature="0"
   style="fill:#fcc00e;stroke:#795649;stroke-miterlimit:10" />
				<path
   stroke-miterlimit="10"
   d="m 724.471,156.318 c -0.667,0.112 -1.34,-0.588 -1.52,-1.652 -0.233,-1.381 0.686,-3.297 0.686,-3.297 0,0 1.495,1.509 1.728,2.89 0.179,1.064 -0.228,1.947 -0.894,2.059 z"
   id="path791"
   inkscape:connector-curvature="0"
   style="fill:#fcc00e;stroke:#795649;stroke-miterlimit:10" />
				<path
   stroke-miterlimit="10"
   d="m 728.601,152.104 c -0.099,0.669 -0.974,1.093 -2.041,0.935 -1.386,-0.205 -2.924,-1.671 -2.924,-1.671 0,0 1.897,-0.956 3.283,-0.75 1.067,0.157 1.781,0.817 1.682,1.486 z"
   id="path793"
   inkscape:connector-curvature="0"
   style="fill:#fcc00e;stroke:#795649;stroke-miterlimit:10" />
			</g>
		</g>
		<g
   clip-path="url(#XMLID_46_)"
   id="g895">
			<g
   id="g829">
				<g
   id="g801">
					<path
   stroke-miterlimit="10"
   d="m 693.84,109.777 c -1.482,0.737 -1.808,3.094 -0.632,5.46 1.527,3.071 5.94,5.217 5.94,5.217 0,0 0.954,-4.814 -0.573,-7.885 -1.176,-2.366 -3.253,-3.529 -4.735,-2.792 z"
   id="path799"
   inkscape:connector-curvature="0"
   style="fill:#ec6392;stroke:#795649;stroke-linecap:round;stroke-linejoin:round;stroke-miterlimit:10" />
				</g>
				<g
   id="g805">
					<path
   stroke-miterlimit="10"
   d="m 707.659,112.105 c -1.159,-1.182 -3.502,-0.764 -5.388,1.086 -2.449,2.401 -3.126,7.262 -3.126,7.262 0,0 4.873,-0.581 7.322,-2.982 1.887,-1.85 2.351,-4.184 1.192,-5.366 z"
   id="path803"
   inkscape:connector-curvature="0"
   style="fill:#ec6392;stroke:#795649;stroke-linecap:round;stroke-linejoin:round;stroke-miterlimit:10" />
				</g>
				<g
   id="g809">
					<path
   stroke-miterlimit="10"
   d="m 709.718,125.971 c 0.766,-1.467 -0.356,-3.566 -2.698,-4.789 -3.041,-1.587 -7.872,-0.729 -7.872,-0.729 0,0 2.058,4.455 5.098,6.042 2.343,1.223 4.706,0.943 5.472,-0.524 z"
   id="path807"
   inkscape:connector-curvature="0"
   style="fill:#ec6392;stroke:#795649;stroke-linecap:round;stroke-linejoin:round;stroke-miterlimit:10" />
				</g>
				<g
   id="g813">
					<path
   stroke-miterlimit="10"
   d="m 697.165,132.212 c 1.632,0.275 3.282,-1.44 3.721,-4.046 0.57,-3.382 -1.739,-7.712 -1.739,-7.712 0,0 -3.601,3.334 -4.171,6.716 -0.439,2.606 0.557,4.767 2.189,5.042 z"
   id="path811"
   inkscape:connector-curvature="0"
   style="fill:#ec6392;stroke:#795649;stroke-linecap:round;stroke-linejoin:round;stroke-miterlimit:10" />
				</g>
				<g
   id="g817">
					<path
   stroke-miterlimit="10"
   d="m 687.353,122.2 c 0.243,1.637 2.384,2.676 4.997,2.288 3.393,-0.503 6.797,-4.037 6.797,-4.037 0,0 -4.283,-2.394 -7.676,-1.891 -2.613,0.388 -4.361,2.003 -4.118,3.64 z"
   id="path815"
   inkscape:connector-curvature="0"
   style="fill:#ec6392;stroke:#795649;stroke-linecap:round;stroke-linejoin:round;stroke-miterlimit:10" />
				</g>
				<path
   stroke-miterlimit="10"
   d="m 696.914,115.959 c -0.605,0.301 -0.739,1.264 -0.258,2.23 0.624,1.254 2.492,2.264 2.492,2.264 0,0 0.323,-2.1 -0.301,-3.354 -0.48,-0.967 -1.328,-1.441 -1.933,-1.14 z"
   id="path819"
   inkscape:connector-curvature="0"
   style="fill:#fcc00e;stroke:#795649;stroke-miterlimit:10" />
				<path
   stroke-miterlimit="10"
   d="m 702.73,116.938 c -0.473,-0.483 -1.43,-0.312 -2.2,0.444 -1,0.981 -1.383,3.07 -1.383,3.07 0,0 2.097,-0.342 3.097,-1.322 0.77,-0.756 0.959,-1.709 0.486,-2.192 z"
   id="path821"
   inkscape:connector-curvature="0"
   style="fill:#fcc00e;stroke:#795649;stroke-miterlimit:10" />
				<path
   stroke-miterlimit="10"
   d="m 703.597,122.775 c 0.313,-0.599 -0.145,-1.456 -1.102,-1.956 -1.242,-0.648 -3.347,-0.367 -3.347,-0.367 0,0 0.973,1.888 2.215,2.537 0.956,0.499 1.921,0.385 2.234,-0.214 z"
   id="path823"
   inkscape:connector-curvature="0"
   style="fill:#fcc00e;stroke:#795649;stroke-miterlimit:10" />
				<path
   stroke-miterlimit="10"
   d="m 698.313,125.402 c 0.667,0.112 1.34,-0.588 1.52,-1.652 0.233,-1.381 -0.686,-3.297 -0.686,-3.297 0,0 -1.495,1.509 -1.728,2.89 -0.18,1.064 0.227,1.947 0.894,2.059 z"
   id="path825"
   inkscape:connector-curvature="0"
   style="fill:#fcc00e;stroke:#795649;stroke-miterlimit:10" />
				<path
   stroke-miterlimit="10"
   d="m 694.183,121.188 c 0.099,0.669 0.974,1.093 2.041,0.935 1.386,-0.205 2.924,-1.671 2.924,-1.671 0,0 -1.897,-0.956 -3.283,-0.75 -1.068,0.157 -1.781,0.817 -1.682,1.486 z"
   id="path827"
   inkscape:connector-curvature="0"
   style="fill:#fcc00e;stroke:#795649;stroke-miterlimit:10" />
			</g>
			<g
   id="g861">
				<g
   id="g833">
					<path
   stroke-miterlimit="10"
   d="m 646.437,109.777 c -1.482,0.737 -1.808,3.094 -0.632,5.46 1.527,3.071 5.94,5.217 5.94,5.217 0,0 0.954,-4.814 -0.573,-7.885 -1.177,-2.366 -3.253,-3.529 -4.735,-2.792 z"
   id="path831"
   inkscape:connector-curvature="0"
   style="fill:#ec6392;stroke:#795649;stroke-linecap:round;stroke-linejoin:round;stroke-miterlimit:10" />
				</g>
				<g
   id="g837">
					<path
   stroke-miterlimit="10"
   d="m 660.256,112.105 c -1.159,-1.182 -3.502,-0.764 -5.388,1.086 -2.449,2.401 -3.126,7.262 -3.126,7.262 0,0 4.873,-0.581 7.322,-2.982 1.886,-1.85 2.35,-4.184 1.192,-5.366 z"
   id="path835"
   inkscape:connector-curvature="0"
   style="fill:#ec6392;stroke:#795649;stroke-linecap:round;stroke-linejoin:round;stroke-miterlimit:10" />
				</g>
				<g
   id="g841">
					<path
   stroke-miterlimit="10"
   d="m 662.315,125.971 c 0.766,-1.467 -0.356,-3.566 -2.698,-4.789 -3.041,-1.587 -7.872,-0.729 -7.872,-0.729 0,0 2.058,4.455 5.099,6.042 2.341,1.223 4.705,0.943 5.471,-0.524 z"
   id="path839"
   inkscape:connector-curvature="0"
   style="fill:#ec6392;stroke:#795649;stroke-linecap:round;stroke-linejoin:round;stroke-miterlimit:10" />
				</g>
				<g
   id="g845">
					<path
   stroke-miterlimit="10"
   d="m 649.761,132.212 c 1.632,0.275 3.282,-1.44 3.721,-4.046 0.57,-3.382 -1.74,-7.712 -1.74,-7.712 0,0 -3.601,3.334 -4.171,6.716 -0.438,2.606 0.558,4.767 2.19,5.042 z"
   id="path843"
   inkscape:connector-curvature="0"
   style="fill:#ec6392;stroke:#795649;stroke-linecap:round;stroke-linejoin:round;stroke-miterlimit:10" />
				</g>
				<g
   id="g849">
					<path
   stroke-miterlimit="10"
   d="m 639.949,122.2 c 0.243,1.637 2.384,2.676 4.997,2.288 3.393,-0.503 6.797,-4.037 6.797,-4.037 0,0 -4.283,-2.394 -7.676,-1.891 -2.613,0.388 -4.36,2.003 -4.118,3.64 z"
   id="path847"
   inkscape:connector-curvature="0"
   style="fill:#ec6392;stroke:#795649;stroke-linecap:round;stroke-linejoin:round;stroke-miterlimit:10" />
				</g>
				<path
   stroke-miterlimit="10"
   d="m 649.51,115.959 c -0.605,0.301 -0.739,1.264 -0.258,2.23 0.624,1.254 2.492,2.264 2.492,2.264 0,0 0.323,-2.1 -0.301,-3.354 -0.48,-0.967 -1.328,-1.441 -1.933,-1.14 z"
   id="path851"
   inkscape:connector-curvature="0"
   style="fill:#fcc00e;stroke:#795649;stroke-miterlimit:10" />
				<path
   stroke-miterlimit="10"
   d="m 655.326,116.938 c -0.473,-0.483 -1.43,-0.312 -2.2,0.444 -1,0.981 -1.383,3.07 -1.383,3.07 0,0 2.097,-0.342 3.097,-1.322 0.77,-0.756 0.959,-1.709 0.486,-2.192 z"
   id="path853"
   inkscape:connector-curvature="0"
   style="fill:#fcc00e;stroke:#795649;stroke-miterlimit:10" />
				<path
   stroke-miterlimit="10"
   d="m 656.193,122.775 c 0.313,-0.599 -0.145,-1.456 -1.102,-1.956 -1.242,-0.648 -3.347,-0.367 -3.347,-0.367 0,0 0.973,1.888 2.215,2.537 0.956,0.499 1.921,0.385 2.234,-0.214 z"
   id="path855"
   inkscape:connector-curvature="0"
   style="fill:#fcc00e;stroke:#795649;stroke-miterlimit:10" />
				<path
   stroke-miterlimit="10"
   d="m 650.909,125.402 c 0.667,0.112 1.34,-0.588 1.519,-1.652 0.233,-1.381 -0.686,-3.297 -0.686,-3.297 0,0 -1.495,1.509 -1.728,2.89 -0.178,1.064 0.229,1.947 0.895,2.059 z"
   id="path857"
   inkscape:connector-curvature="0"
   style="fill:#fcc00e;stroke:#795649;stroke-miterlimit:10" />
				<path
   stroke-miterlimit="10"
   d="m 646.779,121.188 c 0.099,0.669 0.974,1.093 2.041,0.935 1.386,-0.205 2.924,-1.671 2.924,-1.671 0,0 -1.897,-0.956 -3.283,-0.75 -1.067,0.157 -1.781,0.817 -1.682,1.486 z"
   id="path859"
   inkscape:connector-curvature="0"
   style="fill:#fcc00e;stroke:#795649;stroke-miterlimit:10" />
			</g>
			<g
   id="g893">
				<g
   id="g865">
					<path
   stroke-miterlimit="10"
   d="m 599.033,109.777 c -1.482,0.737 -1.808,3.094 -0.632,5.46 1.527,3.071 5.94,5.217 5.94,5.217 0,0 0.954,-4.814 -0.573,-7.885 -1.177,-2.366 -3.253,-3.529 -4.735,-2.792 z"
   id="path863"
   inkscape:connector-curvature="0"
   style="fill:#ec6392;stroke:#795649;stroke-linecap:round;stroke-linejoin:round;stroke-miterlimit:10" />
				</g>
				<g
   id="g869">
					<path
   stroke-miterlimit="10"
   d="m 612.852,112.105 c -1.159,-1.182 -3.502,-0.764 -5.388,1.086 -2.449,2.401 -3.126,7.262 -3.126,7.262 0,0 4.873,-0.581 7.322,-2.982 1.887,-1.85 2.351,-4.184 1.192,-5.366 z"
   id="path867"
   inkscape:connector-curvature="0"
   style="fill:#ec6392;stroke:#795649;stroke-linecap:round;stroke-linejoin:round;stroke-miterlimit:10" />
				</g>
				<g
   id="g873">
					<path
   stroke-miterlimit="10"
   d="m 614.911,125.971 c 0.766,-1.467 -0.356,-3.566 -2.698,-4.789 -3.041,-1.587 -7.872,-0.729 -7.872,-0.729 0,0 2.058,4.455 5.099,6.042 2.342,1.223 4.705,0.943 5.471,-0.524 z"
   id="path871"
   inkscape:connector-curvature="0"
   style="fill:#ec6392;stroke:#795649;stroke-linecap:round;stroke-linejoin:round;stroke-miterlimit:10" />
				</g>
				<g
   id="g877">
					<path
   stroke-miterlimit="10"
   d="m 602.358,132.212 c 1.632,0.275 3.282,-1.44 3.721,-4.046 0.57,-3.382 -1.739,-7.712 -1.739,-7.712 0,0 -3.601,3.334 -4.171,6.716 -0.44,2.606 0.557,4.767 2.189,5.042 z"
   id="path875"
   inkscape:connector-curvature="0"
   style="fill:#ec6392;stroke:#795649;stroke-linecap:round;stroke-linejoin:round;stroke-miterlimit:10" />
				</g>
				<g
   id="g881">
					<path
   stroke-miterlimit="10"
   d="m 592.546,122.2 c 0.243,1.637 2.384,2.676 4.997,2.288 3.393,-0.503 6.797,-4.037 6.797,-4.037 0,0 -4.283,-2.394 -7.676,-1.891 -2.614,0.388 -4.361,2.003 -4.118,3.64 z"
   id="path879"
   inkscape:connector-curvature="0"
   style="fill:#ec6392;stroke:#795649;stroke-linecap:round;stroke-linejoin:round;stroke-miterlimit:10" />
				</g>
				<path
   stroke-miterlimit="10"
   d="m 602.106,115.959 c -0.605,0.301 -0.739,1.264 -0.258,2.23 0.624,1.254 2.492,2.264 2.492,2.264 0,0 0.323,-2.1 -0.301,-3.354 -0.479,-0.967 -1.327,-1.441 -1.933,-1.14 z"
   id="path883"
   inkscape:connector-curvature="0"
   style="fill:#fcc00e;stroke:#795649;stroke-miterlimit:10" />
				<path
   stroke-miterlimit="10"
   d="m 607.923,116.938 c -0.473,-0.483 -1.43,-0.312 -2.2,0.444 -1,0.981 -1.383,3.07 -1.383,3.07 0,0 2.097,-0.342 3.097,-1.322 0.769,-0.756 0.959,-1.709 0.486,-2.192 z"
   id="path885"
   inkscape:connector-curvature="0"
   style="fill:#fcc00e;stroke:#795649;stroke-miterlimit:10" />
				<path
   stroke-miterlimit="10"
   d="m 608.79,122.775 c 0.313,-0.599 -0.145,-1.456 -1.102,-1.956 -1.242,-0.648 -3.347,-0.367 -3.347,-0.367 0,0 0.973,1.888 2.215,2.537 0.956,0.499 1.921,0.385 2.234,-0.214 z"
   id="path887"
   inkscape:connector-curvature="0"
   style="fill:#fcc00e;stroke:#795649;stroke-miterlimit:10" />
				<path
   stroke-miterlimit="10"
   d="m 603.506,125.402 c 0.667,0.112 1.34,-0.588 1.52,-1.652 0.233,-1.381 -0.686,-3.297 -0.686,-3.297 0,0 -1.495,1.509 -1.728,2.89 -0.18,1.064 0.227,1.947 0.894,2.059 z"
   id="path889"
   inkscape:connector-curvature="0"
   style="fill:#fcc00e;stroke:#795649;stroke-miterlimit:10" />
				<path
   stroke-miterlimit="10"
   d="m 599.376,121.188 c 0.099,0.669 0.974,1.093 2.041,0.935 1.386,-0.205 2.924,-1.671 2.924,-1.671 0,0 -1.897,-0.956 -3.283,-0.75 -1.068,0.157 -1.782,0.817 -1.682,1.486 z"
   id="path891"
   inkscape:connector-curvature="0"
   style="fill:#fcc00e;stroke:#795649;stroke-miterlimit:10" />
			</g>
		</g>
	</g>
	<path
   stroke-miterlimit="10"
   d="m 676,60.132 c 0,0 -0.793,32.389 44.191,23.885 0,0 -4.359,-9.889 -7.677,-14.051 -5.932,-7.441 -8.232,-17.067 -6.153,-26.353 0.63,-2.815 0.879,-5.775 0.687,-8.822 C 706.079,19.377 693.661,6.852 678.255,5.767 660.054,4.484 644.889,18.871 644.889,36.799 c 0,2.461 0.286,4.855 0.828,7.151 2.158,9.156 -0.419,18.704 -6.272,26.069 -3.298,4.149 -5.898,8.875 -7.638,13.999 C 675.3,92.521 676,60.132 676,60.132 Z"
   id="path899"
   inkscape:connector-curvature="0"
   style="fill:#e9453a;stroke:#795649;stroke-linecap:round;stroke-linejoin:round;stroke-miterlimit:10" />
	
		<circle
   stroke-miterlimit="10"
   cx="636.92297"
   cy="82.052002"
   r="1.143"
   id="circle901"
   style="fill:#ffffff;stroke:#795649;stroke-linecap:round;stroke-linejoin:round;stroke-miterlimit:10" />
	
		<circle
   stroke-miterlimit="10"
   cx="648.70599"
   cy="82.052002"
   r="1.143"
   id="circle903"
   style="fill:#ffffff;stroke:#795649;stroke-linecap:round;stroke-linejoin:round;stroke-miterlimit:10" />
	
		<circle
   stroke-miterlimit="10"
   cx="660.04102"
   cy="79.503998"
   r="1.143"
   id="circle905"
   style="fill:#ffffff;stroke:#795649;stroke-linecap:round;stroke-linejoin:round;stroke-miterlimit:10" />
	
		<circle
   stroke-miterlimit="10"
   cx="668.54401"
   cy="72.601997"
   r="1.143"
   id="circle907"
   style="fill:#ffffff;stroke:#795649;stroke-linecap:round;stroke-linejoin:round;stroke-miterlimit:10" />
	
		<circle
   stroke-miterlimit="10"
   cx="672.97302"
   cy="63.269001"
   r="1.143"
   id="circle909"
   style="fill:#ffffff;stroke:#795649;stroke-linecap:round;stroke-linejoin:round;stroke-miterlimit:10" />
	
		<circle
   stroke-miterlimit="10"
   cx="714.97803"
   cy="82.052002"
   r="1.143"
   id="circle911"
   style="fill:#ffffff;stroke:#795649;stroke-linecap:round;stroke-linejoin:round;stroke-miterlimit:10" />
	
		<circle
   stroke-miterlimit="10"
   cx="703.19397"
   cy="82.052002"
   r="1.143"
   id="circle913"
   style="fill:#ffffff;stroke:#795649;stroke-linecap:round;stroke-linejoin:round;stroke-miterlimit:10" />
	
		<circle
   stroke-miterlimit="10"
   cx="691.85901"
   cy="79.503998"
   r="1.143"
   id="circle915"
   style="fill:#ffffff;stroke:#795649;stroke-linecap:round;stroke-linejoin:round;stroke-miterlimit:10" />
	
		<circle
   stroke-miterlimit="10"
   cx="683.35602"
   cy="72.601997"
   r="1.143"
   id="circle917"
   style="fill:#ffffff;stroke:#795649;stroke-linecap:round;stroke-linejoin:round;stroke-miterlimit:10" />
	
		<circle
   stroke-miterlimit="10"
   cx="678.92798"
   cy="63.269001"
   r="1.143"
   id="circle919"
   style="fill:#ffffff;stroke:#795649;stroke-linecap:round;stroke-linejoin:round;stroke-miterlimit:10" />
	<g
   id="g923"
   style="opacity:0.1">
		<path
   d="m 712.734,69.966 c -5.932,-7.441 -8.232,-17.067 -6.153,-26.353 0.63,-2.815 0.879,-5.775 0.687,-8.822 -0.969,-15.414 -13.387,-27.939 -28.793,-29.024 -4.236,-0.298 -8.303,0.261 -12.057,1.507 11.746,3.921 20.446,14.72 21.25,27.517 0.192,3.047 -0.057,6.007 -0.687,8.822 -2.079,9.286 0.222,18.912 6.153,26.353 6.354,7.971 10.152,18.068 10.152,29.055 0,22.399 -15.781,41.109 -36.831,45.626 2.457,0.527 4.979,0.871 7.558,0.99 26.777,1.233 48.873,-20.111 48.873,-46.616 0,-10.987 -3.798,-21.084 -10.152,-29.055 z"
   id="path921"
   inkscape:connector-curvature="0"
   style="fill:#263239" />
	</g>
	<g
   id="g979">
		<g
   id="g941">
			<defs
   id="defs926">
				<circle
   id="XMLID_8_"
   cx="676.27399"
   cy="36.799"
   r="23.333" />
			</defs>
			<use
   xlink:href="#XMLID_8_"
   overflow="visible"
   id="use928"
   style="overflow:visible;fill:#facbbd"
   x="0"
   y="0"
   width="100%"
   height="100%" />
			<clipPath
   id="XMLID_47_">
				<use
   xlink:href="#XMLID_8_"
   overflow="visible"
   id="use930"
   style="overflow:visible"
   x="0"
   y="0"
   width="100%"
   height="100%" />
			</clipPath>
			<g
   clip-path="url(#XMLID_47_)"
   id="g937">
				<circle
   cx="657.20898"
   cy="50.507"
   r="4.6669998"
   id="circle933"
   style="fill:#f5a992" />
				<circle
   cx="695.34003"
   cy="50.507"
   r="4.6669998"
   id="circle935"
   style="fill:#f5a992" />
			</g>
			<use
   xlink:href="#XMLID_8_"
   overflow="visible"
   stroke-miterlimit="10"
   id="use939"
   style="overflow:visible;fill:none;stroke:#795649;stroke-width:2;stroke-miterlimit:10"
   x="0"
   y="0"
   width="100%"
   height="100%" />
		</g>
		<g
   id="g955">
			<g
   id="g947">
				<circle
   cx="663.31702"
   cy="40.993999"
   r="4.638"
   id="circle943"
   style="fill:#795649" />
				<path
   d="m 667.873,40.124 c 0,0 -1.392,-6.887 -9.851,-2.181 0,0 7.023,-1.214 9.851,2.181 z"
   id="path945"
   inkscape:connector-curvature="0"
   style="fill:#795649" />
			</g>
			<g
   id="g953">
				<circle
   cx="689.23199"
   cy="40.993999"
   r="4.638"
   id="circle949"
   style="fill:#795649" />
				<path
   d="m 684.676,40.124 c 0,0 1.392,-6.887 9.851,-2.181 0,0 -7.023,-1.214 -9.851,2.181 z"
   id="path951"
   inkscape:connector-curvature="0"
   style="fill:#795649" />
			</g>
		</g>
		<path
   stroke-miterlimit="10"
   d="m 670.83,45.277 c 0,4.296 2.438,7.778 5.444,7.778 3.007,0 5.444,-3.482 5.444,-7.778 z"
   id="path957"
   inkscape:connector-curvature="0"
   style="fill:#fce9e7;stroke:#795649;stroke-miterlimit:10" />
		<path
   stroke-miterlimit="10"
   d="m 663.317,17.46 c 0,0 10.193,19.339 36.206,17.36 C 698.192,20.271 680.984,6.66 663.317,17.46 Z"
   id="path959"
   inkscape:connector-curvature="0"
   style="fill:#8e6f64;stroke:#795649;stroke-width:2;stroke-miterlimit:10" />
		<path
   stroke-miterlimit="10"
   d="m 670.83,14.108 c 0,0 0,20.712 -17.859,20.712 0,0 0.51,-15.792 17.859,-20.712 z"
   id="path961"
   inkscape:connector-curvature="0"
   style="fill:#8e6f64;stroke:#795649;stroke-width:2;stroke-miterlimit:10" />
		<path
   stroke-miterlimit="10"
   d="m 653.397,31.926 c 0,0 12.079,-0.273 14.049,-16.731"
   id="path963"
   inkscape:connector-curvature="0"
   style="fill:none;stroke:#795649;stroke-miterlimit:10" />
		<path
   stroke-miterlimit="10"
   d="m 654.63,27.989 c 0,0 6.898,-1.236 8.317,-10.283"
   id="path965"
   inkscape:connector-curvature="0"
   style="fill:none;stroke:#795649;stroke-miterlimit:10" />
		<path
   stroke-miterlimit="10"
   d="m 669.94,19.927 c 0,0 12.658,12.915 28.799,10.835"
   id="path967"
   inkscape:connector-curvature="0"
   style="fill:none;stroke:#795649;stroke-miterlimit:10" />
		<path
   stroke-miterlimit="10"
   d="m 670.83,15.195 c 0,0 13.332,12.794 26.495,11.947"
   id="path969"
   inkscape:connector-curvature="0"
   style="fill:none;stroke:#795649;stroke-miterlimit:10" />
		<path
   stroke-miterlimit="10"
   d="m 675.527,13.585 c 0,0 8.473,8.113 19.111,9.262"
   id="path971"
   inkscape:connector-curvature="0"
   style="fill:none;stroke:#795649;stroke-miterlimit:10" />
		<circle
   cx="661.36298"
   cy="17.725"
   r="4.1999998"
   id="circle973"
   style="opacity:0.8;fill:#ffffff" />
		<circle
   cx="655.19098"
   cy="24.306999"
   r="2.8"
   id="circle975"
   style="opacity:0.8;fill:#ffffff" />
		<circle
   cx="661.789"
   cy="25.929001"
   r="1.4"
   id="circle977"
   style="opacity:0.8;fill:#ffffff" />
	</g>
</g>



<g
   id="g1938"
   transform="translate(-627.33356,-3.688)">
</g>
<g
   id="g1940"
   transform="translate(-627.33356,-3.688)">
</g>
<g
   id="g1942"
   transform="translate(-627.33356,-3.688)">
</g>
<g
   id="g1944"
   transform="translate(-627.33356,-3.688)">
</g>
<g
   id="g1946"
   transform="translate(-627.33356,-3.688)">
</g>
<g
   id="g1948"
   transform="translate(-627.33356,-3.688)">
</g>
</svg>