<?xml version="1.0" encoding="UTF-8" standalone="no"?>
<!-- Generator: Adobe Illustrator 17.0.0, SVG Export Plug-In . SVG Version: 6.00 Build 0)  -->

<svg
   xmlns:dc="http://purl.org/dc/elements/1.1/"
   xmlns:cc="http://creativecommons.org/ns#"
   xmlns:rdf="http://www.w3.org/1999/02/22-rdf-syntax-ns#"
   xmlns:svg="http://www.w3.org/2000/svg"
   xmlns="http://www.w3.org/2000/svg"
   xmlns:xlink="http://www.w3.org/1999/xlink"
   xmlns:sodipodi="http://sodipodi.sourceforge.net/DTD/sodipodi-0.dtd"
   xmlns:inkscape="http://www.inkscape.org/namespaces/inkscape"
   version="1.1"
   id="Слой_1"
   x="0px"
   y="0px"
   width="97.333603"
   height="144"
   viewBox="0 0 97.333603 144"
   enable-background="new 0 0 1200 150"
   xml:space="preserve"
   sodipodi:docname="5.svg"
   inkscape:version="0.92.4 (5da689c313, 2019-01-14)"><metadata
   id="metadata1955"><rdf:RDF><cc:Work
       rdf:about=""><dc:format>image/svg+xml</dc:format><dc:type
         rdf:resource="http://purl.org/dc/dcmitype/StillImage" /><dc:title></dc:title></cc:Work></rdf:RDF></metadata><defs
   id="defs1953" /><sodipodi:namedview
   pagecolor="#ffffff"
   bordercolor="#666666"
   borderopacity="1"
   objecttolerance="10"
   gridtolerance="10"
   guidetolerance="10"
   inkscape:pageopacity="0"
   inkscape:pageshadow="2"
   inkscape:window-width="1920"
   inkscape:window-height="1017"
   id="namedview1951"
   showgrid="false"
   inkscape:zoom="0.94666667"
   inkscape:cx="372.86758"
   inkscape:cy="-20.955788"
   inkscape:window-x="-8"
   inkscape:window-y="-8"
   inkscape:window-maximized="1"
   inkscape:current-layer="Слой_1"
   fit-margin-top="0"
   fit-margin-left="0"
   fit-margin-right="0"
   fit-margin-bottom="0" />





<g
   id="g1378"
   transform="translate(-775.26339,-2.745)">
	<g
   id="XMLID_17_">
		<path
   d="m 823.93,145.745 c -0.747,0 -1.499,-0.018 -2.253,-0.052 -24.3,-1.119 -44.224,-21.03 -45.36,-45.329 -0.54,-11.563 3.108,-22.895 10.274,-31.91 5.895,-7.415 8.111,-16.607 6.081,-25.217 -0.566,-2.404 -0.854,-4.887 -0.854,-7.38 0,-17.706 14.405,-32.111 32.111,-32.111 0.77,0 1.553,0.028 2.325,0.082 15.939,1.123 28.717,14.002 29.721,29.958 0.193,3.077 -0.046,6.14 -0.71,9.104 -2.003,8.947 0.169,18.246 5.96,25.511 6.784,8.51 10.37,18.772 10.37,29.678 0,12.732 -4.958,24.703 -13.961,33.706 -9.001,9.002 -20.971,13.96 -33.704,13.96 z"
   id="path983"
   inkscape:connector-curvature="0"
   style="fill:#fcc00e" />
		<path
   d="m 823.929,4.745 c 0.745,0 1.498,0.026 2.255,0.08 15.406,1.086 27.824,13.61 28.793,29.024 0.192,3.047 -0.057,6.007 -0.687,8.822 -2.079,9.286 0.222,18.912 6.153,26.353 6.354,7.971 10.152,18.068 10.152,29.055 0,25.774 -20.893,46.667 -46.667,46.667 -0.731,0 -1.468,-0.017 -2.206,-0.051 -23.893,-1.1 -43.291,-20.484 -44.408,-44.377 -0.553,-11.827 3.301,-22.74 10.059,-31.242 5.853,-7.364 8.43,-16.912 6.272,-26.069 -0.541,-2.296 -0.827,-4.69 -0.827,-7.151 0,-17.182 13.928,-31.111 31.111,-31.111 m 0,-2 c -18.258,0 -33.111,14.854 -33.111,33.111 0,2.57 0.296,5.13 0.881,7.61 1.959,8.31 -0.189,17.191 -5.891,24.365 -7.317,9.205 -11.043,20.776 -10.491,32.58 0.564,12.054 5.623,23.439 14.247,32.057 8.624,8.618 20.012,13.669 32.067,14.224 0.764,0.035 1.537,0.053 2.299,0.053 26.835,0 48.667,-21.832 48.667,-48.667 0,-11.134 -3.661,-21.612 -10.588,-30.301 -5.601,-7.026 -7.703,-16.018 -5.766,-24.669 0.685,-3.057 0.931,-6.215 0.731,-9.384 C 855.939,17.27 842.763,3.989 826.325,2.83 825.529,2.774 824.723,2.745 823.929,2.745 Z"
   id="path985"
   inkscape:connector-curvature="0"
   style="fill:#795649" />
	</g>
	<g
   id="g1294">
		<defs
   id="defs989">
			<path
   id="XMLID_15_"
   d="m 854.29,42.671 c 0.63,-2.815 0.878,-5.775 0.687,-8.822 C 854.008,18.435 841.59,5.91 826.184,4.825 807.982,3.542 792.818,17.929 792.818,35.857 c 0,2.461 0.286,4.855 0.827,7.151 2.158,9.156 -0.419,18.704 -6.272,26.069 -6.758,8.502 -10.611,19.415 -10.058,31.242 1.117,23.893 20.514,43.276 44.408,44.377 26.777,1.233 48.873,-20.111 48.873,-46.616 0,-10.987 -3.798,-21.084 -10.152,-29.055 -5.932,-7.442 -8.233,-17.068 -6.154,-26.354 z"
   inkscape:connector-curvature="0" />
		</defs>
		<clipPath
   id="XMLID_48_">
			<use
   xlink:href="#XMLID_15_"
   overflow="visible"
   id="use991"
   style="overflow:visible"
   x="0"
   y="0"
   width="100%"
   height="100%" />
		</clipPath>
		<g
   clip-path="url(#XMLID_48_)"
   id="g1292">
			<g
   id="g1062">
				<g
   id="g1026">
					<g
   id="g996">
						<path
   stroke-miterlimit="10"
   d="m 801.778,134.435 c -0.553,0.509 -1.728,0.131 -2.705,-0.932 -1.269,-1.379 -1.705,-3.862 -1.705,-3.862 0,0 2.438,0.641 3.707,2.02 0.977,1.063 1.256,2.266 0.703,2.774 z"
   id="path994"
   inkscape:connector-curvature="0"
   style="fill:#37a3dc;stroke:#795649;stroke-linecap:round;stroke-linejoin:round;stroke-miterlimit:10" />
					</g>
					<g
   id="g1000">
						<path
   stroke-miterlimit="10"
   d="m 792.958,124.849 c -0.553,0.509 -0.274,1.711 0.703,2.773 1.269,1.379 3.707,2.02 3.707,2.02 0,0 -0.436,-2.483 -1.705,-3.862 -0.978,-1.062 -2.153,-1.44 -2.705,-0.931 z"
   id="path998"
   inkscape:connector-curvature="0"
   style="fill:#37a3dc;stroke:#795649;stroke-linecap:round;stroke-linejoin:round;stroke-miterlimit:10" />
					</g>
					<g
   id="g1004">
						<path
   stroke-miterlimit="10"
   d="m 792.574,134.052 c -0.509,-0.553 -0.131,-1.728 0.932,-2.705 1.379,-1.269 3.862,-1.705 3.862,-1.705 0,0 -0.641,2.438 -2.02,3.707 -1.063,0.977 -2.265,1.256 -2.774,0.703 z"
   id="path1002"
   inkscape:connector-curvature="0"
   style="fill:#37a3dc;stroke:#795649;stroke-linecap:round;stroke-linejoin:round;stroke-miterlimit:10" />
					</g>
					<g
   id="g1008">
						<path
   stroke-miterlimit="10"
   d="m 802.161,125.232 c -0.509,-0.553 -1.711,-0.274 -2.773,0.704 -1.379,1.269 -2.02,3.707 -2.02,3.707 0,0 2.483,-0.436 3.862,-1.705 1.062,-0.978 1.44,-2.154 0.931,-2.706 z"
   id="path1006"
   inkscape:connector-curvature="0"
   style="fill:#37a3dc;stroke:#795649;stroke-linecap:round;stroke-linejoin:round;stroke-miterlimit:10" />
					</g>
					<g
   id="g1012">
						<path
   stroke-miterlimit="10"
   d="m 797.097,136.15 c -0.75,-0.031 -1.314,-1.129 -1.254,-2.572 0.078,-1.872 1.525,-3.936 1.525,-3.936 0,0 1.271,2.177 1.193,4.05 -0.061,1.442 -0.714,2.489 -1.464,2.458 z"
   id="path1010"
   inkscape:connector-curvature="0"
   style="fill:#37a3dc;stroke:#795649;stroke-linecap:round;stroke-linejoin:round;stroke-miterlimit:10" />
					</g>
					<g
   id="g1016">
						<path
   stroke-miterlimit="10"
   d="m 797.639,123.134 c -0.75,-0.031 -1.403,1.016 -1.464,2.458 -0.078,1.872 1.193,4.05 1.193,4.05 0,0 1.447,-2.064 1.525,-3.936 0.06,-1.443 -0.504,-2.541 -1.254,-2.572 z"
   id="path1014"
   inkscape:connector-curvature="0"
   style="fill:#37a3dc;stroke:#795649;stroke-linecap:round;stroke-linejoin:round;stroke-miterlimit:10" />
					</g>
					<g
   id="g1020">
						<path
   stroke-miterlimit="10"
   d="m 790.86,129.371 c 0.031,-0.75 1.129,-1.314 2.572,-1.254 1.872,0.078 3.936,1.525 3.936,1.525 0,0 -2.177,1.27 -4.05,1.193 -1.442,-0.06 -2.489,-0.714 -2.458,-1.464 z"
   id="path1018"
   inkscape:connector-curvature="0"
   style="fill:#37a3dc;stroke:#795649;stroke-linecap:round;stroke-linejoin:round;stroke-miterlimit:10" />
					</g>
					<g
   id="g1024">
						<path
   stroke-miterlimit="10"
   d="m 803.876,129.913 c 0.031,-0.75 -1.016,-1.403 -2.458,-1.464 -1.872,-0.078 -4.05,1.193 -4.05,1.193 0,0 2.064,1.447 3.936,1.525 1.442,0.06 2.541,-0.504 2.572,-1.254 z"
   id="path1022"
   inkscape:connector-curvature="0"
   style="fill:#37a3dc;stroke:#795649;stroke-linecap:round;stroke-linejoin:round;stroke-miterlimit:10" />
					</g>
				</g>
				<g
   id="g1060">
					<g
   id="g1030">
						<path
   stroke-miterlimit="10"
   d="m 854.901,134.435 c -0.553,0.509 -1.728,0.131 -2.705,-0.932 -1.269,-1.379 -1.705,-3.862 -1.705,-3.862 0,0 2.438,0.641 3.707,2.02 0.977,1.063 1.256,2.266 0.703,2.774 z"
   id="path1028"
   inkscape:connector-curvature="0"
   style="fill:#37a3dc;stroke:#795649;stroke-linecap:round;stroke-linejoin:round;stroke-miterlimit:10" />
					</g>
					<g
   id="g1034">
						<path
   stroke-miterlimit="10"
   d="m 846.081,124.849 c -0.553,0.509 -0.274,1.711 0.703,2.773 1.269,1.379 3.707,2.02 3.707,2.02 0,0 -0.436,-2.483 -1.705,-3.862 -0.978,-1.062 -2.153,-1.44 -2.705,-0.931 z"
   id="path1032"
   inkscape:connector-curvature="0"
   style="fill:#37a3dc;stroke:#795649;stroke-linecap:round;stroke-linejoin:round;stroke-miterlimit:10" />
					</g>
					<g
   id="g1038">
						<path
   stroke-miterlimit="10"
   d="m 845.697,134.052 c -0.509,-0.553 -0.131,-1.728 0.932,-2.705 1.379,-1.269 3.862,-1.705 3.862,-1.705 0,0 -0.641,2.438 -2.02,3.707 -1.063,0.977 -2.265,1.256 -2.774,0.703 z"
   id="path1036"
   inkscape:connector-curvature="0"
   style="fill:#37a3dc;stroke:#795649;stroke-linecap:round;stroke-linejoin:round;stroke-miterlimit:10" />
					</g>
					<g
   id="g1042">
						<path
   stroke-miterlimit="10"
   d="m 855.284,125.232 c -0.509,-0.553 -1.711,-0.274 -2.773,0.704 -1.379,1.269 -2.02,3.707 -2.02,3.707 0,0 2.483,-0.436 3.862,-1.705 1.062,-0.978 1.44,-2.154 0.931,-2.706 z"
   id="path1040"
   inkscape:connector-curvature="0"
   style="fill:#37a3dc;stroke:#795649;stroke-linecap:round;stroke-linejoin:round;stroke-miterlimit:10" />
					</g>
					<g
   id="g1046">
						<path
   stroke-miterlimit="10"
   d="m 850.22,136.15 c -0.75,-0.031 -1.314,-1.129 -1.254,-2.572 0.078,-1.872 1.525,-3.936 1.525,-3.936 0,0 1.271,2.177 1.193,4.05 -0.061,1.442 -0.714,2.489 -1.464,2.458 z"
   id="path1044"
   inkscape:connector-curvature="0"
   style="fill:#37a3dc;stroke:#795649;stroke-linecap:round;stroke-linejoin:round;stroke-miterlimit:10" />
					</g>
					<g
   id="g1050">
						<path
   stroke-miterlimit="10"
   d="m 850.762,123.134 c -0.75,-0.031 -1.403,1.016 -1.464,2.458 -0.078,1.872 1.193,4.05 1.193,4.05 0,0 1.447,-2.064 1.525,-3.936 0.06,-1.443 -0.504,-2.541 -1.254,-2.572 z"
   id="path1048"
   inkscape:connector-curvature="0"
   style="fill:#37a3dc;stroke:#795649;stroke-linecap:round;stroke-linejoin:round;stroke-miterlimit:10" />
					</g>
					<g
   id="g1054">
						<path
   stroke-miterlimit="10"
   d="m 843.983,129.371 c 0.031,-0.75 1.129,-1.314 2.572,-1.254 1.872,0.078 3.936,1.525 3.936,1.525 0,0 -2.177,1.27 -4.05,1.193 -1.442,-0.06 -2.489,-0.714 -2.458,-1.464 z"
   id="path1052"
   inkscape:connector-curvature="0"
   style="fill:#37a3dc;stroke:#795649;stroke-linecap:round;stroke-linejoin:round;stroke-miterlimit:10" />
					</g>
					<g
   id="g1058">
						<path
   stroke-miterlimit="10"
   d="m 856.999,129.913 c 0.031,-0.75 -1.016,-1.403 -2.458,-1.464 -1.872,-0.078 -4.05,1.193 -4.05,1.193 0,0 2.064,1.447 3.936,1.525 1.442,0.06 2.541,-0.504 2.572,-1.254 z"
   id="path1056"
   inkscape:connector-curvature="0"
   style="fill:#37a3dc;stroke:#795649;stroke-linecap:round;stroke-linejoin:round;stroke-miterlimit:10" />
					</g>
				</g>
			</g>
			<g
   id="g1176">
				<g
   id="g1084">
					<g
   id="g1066">
						<path
   stroke-miterlimit="10"
   d="m 805.718,93.507 c 1.21,0.794 1.248,2.876 -0.02,4.808 -1.646,2.508 -5.703,3.912 -5.703,3.912 0,0 -0.327,-4.28 1.32,-6.789 1.268,-1.932 3.193,-2.725 4.403,-1.931 z"
   id="path1064"
   inkscape:connector-curvature="0"
   style="fill:#ffffff;stroke:#795649;stroke-linecap:round;stroke-linejoin:round;stroke-miterlimit:10" />
					</g>
					<g
   id="g1070">
						<path
   stroke-miterlimit="10"
   d="m 793.473,94.089 c 1.13,-0.906 3.121,-0.298 4.567,1.505 1.877,2.341 1.958,6.633 1.958,6.633 0,0 -4.172,-1.012 -6.049,-3.353 -1.446,-1.803 -1.606,-3.879 -0.476,-4.785 z"
   id="path1068"
   inkscape:connector-curvature="0"
   style="fill:#ffffff;stroke:#795649;stroke-linecap:round;stroke-linejoin:round;stroke-miterlimit:10" />
					</g>
					<g
   id="g1074">
						<path
   stroke-miterlimit="10"
   d="m 790.24,105.918 c -0.512,-1.354 0.681,-3.06 2.842,-3.878 2.806,-1.062 6.913,0.187 6.913,0.187 0,0 -2.252,3.655 -5.058,4.716 -2.162,0.819 -4.185,0.329 -4.697,-1.025 z"
   id="path1072"
   inkscape:connector-curvature="0"
   style="fill:#ffffff;stroke:#795649;stroke-linecap:round;stroke-linejoin:round;stroke-miterlimit:10" />
					</g>
					<g
   id="g1078">
						<path
   stroke-miterlimit="10"
   d="m 800.492,112.647 c -1.446,0.069 -2.7,-1.593 -2.81,-3.902 -0.143,-2.997 2.315,-6.517 2.315,-6.517 0,0 2.78,3.271 2.923,6.268 0.109,2.309 -0.982,4.082 -2.428,4.151 z"
   id="path1076"
   inkscape:connector-curvature="0"
   style="fill:#ffffff;stroke:#795649;stroke-linecap:round;stroke-linejoin:round;stroke-miterlimit:10" />
					</g>
					<g
   id="g1082">
						<path
   stroke-miterlimit="10"
   d="m 810.058,104.974 c -0.381,1.397 -2.349,2.076 -4.579,1.467 -2.894,-0.791 -5.483,-4.215 -5.483,-4.215 0,0 3.97,-1.633 6.864,-0.843 2.23,0.609 3.579,2.195 3.198,3.591 z"
   id="path1080"
   inkscape:connector-curvature="0"
   style="fill:#ffffff;stroke:#795649;stroke-linecap:round;stroke-linejoin:round;stroke-miterlimit:10" />
					</g>
				</g>
				<g
   id="g1106">
					<g
   id="g1088">
						<path
   stroke-miterlimit="10"
   d="m 853.333,92.809 c 1.21,0.794 1.248,2.876 -0.02,4.808 -1.646,2.508 -5.703,3.912 -5.703,3.912 0,0 -0.327,-4.28 1.32,-6.789 1.268,-1.932 3.193,-2.726 4.403,-1.931 z"
   id="path1086"
   inkscape:connector-curvature="0"
   style="fill:#ffffff;stroke:#795649;stroke-linecap:round;stroke-linejoin:round;stroke-miterlimit:10" />
					</g>
					<g
   id="g1092">
						<path
   stroke-miterlimit="10"
   d="m 841.088,93.391 c 1.13,-0.906 3.121,-0.298 4.567,1.505 1.877,2.341 1.958,6.633 1.958,6.633 0,0 -4.172,-1.012 -6.049,-3.353 -1.446,-1.804 -1.606,-3.879 -0.476,-4.785 z"
   id="path1090"
   inkscape:connector-curvature="0"
   style="fill:#ffffff;stroke:#795649;stroke-linecap:round;stroke-linejoin:round;stroke-miterlimit:10" />
					</g>
					<g
   id="g1096">
						<path
   stroke-miterlimit="10"
   d="m 837.854,105.22 c -0.512,-1.354 0.681,-3.06 2.842,-3.878 2.806,-1.062 6.913,0.187 6.913,0.187 0,0 -2.252,3.655 -5.058,4.716 -2.161,0.818 -4.184,0.329 -4.697,-1.025 z"
   id="path1094"
   inkscape:connector-curvature="0"
   style="fill:#ffffff;stroke:#795649;stroke-linecap:round;stroke-linejoin:round;stroke-miterlimit:10" />
					</g>
					<g
   id="g1100">
						<path
   stroke-miterlimit="10"
   d="m 848.107,111.949 c -1.446,0.069 -2.7,-1.593 -2.81,-3.902 -0.143,-2.997 2.315,-6.517 2.315,-6.517 0,0 2.78,3.271 2.923,6.268 0.109,2.309 -0.982,4.082 -2.428,4.151 z"
   id="path1098"
   inkscape:connector-curvature="0"
   style="fill:#ffffff;stroke:#795649;stroke-linecap:round;stroke-linejoin:round;stroke-miterlimit:10" />
					</g>
					<g
   id="g1104">
						<path
   stroke-miterlimit="10"
   d="m 857.673,104.276 c -0.381,1.397 -2.349,2.076 -4.579,1.467 -2.894,-0.791 -5.483,-4.215 -5.483,-4.215 0,0 3.97,-1.633 6.864,-0.843 2.23,0.609 3.579,2.194 3.198,3.591 z"
   id="path1102"
   inkscape:connector-curvature="0"
   style="fill:#ffffff;stroke:#795649;stroke-linecap:round;stroke-linejoin:round;stroke-miterlimit:10" />
					</g>
				</g>
				<g
   id="g1140">
					<g
   id="g1110">
						<path
   stroke-miterlimit="10"
   d="m 780.725,104.224 c -0.553,0.509 -1.728,0.131 -2.705,-0.932 -1.269,-1.379 -1.705,-3.862 -1.705,-3.862 0,0 2.438,0.641 3.707,2.02 0.976,1.063 1.255,2.266 0.703,2.774 z"
   id="path1108"
   inkscape:connector-curvature="0"
   style="fill:#37a3dc;stroke:#795649;stroke-linecap:round;stroke-linejoin:round;stroke-miterlimit:10" />
					</g>
					<g
   id="g1114">
						<path
   stroke-miterlimit="10"
   d="m 771.904,94.637 c -0.553,0.509 -0.274,1.711 0.704,2.773 1.269,1.379 3.707,2.02 3.707,2.02 0,0 -0.436,-2.483 -1.705,-3.862 -0.978,-1.061 -2.153,-1.439 -2.706,-0.931 z"
   id="path1112"
   inkscape:connector-curvature="0"
   style="fill:#37a3dc;stroke:#795649;stroke-linecap:round;stroke-linejoin:round;stroke-miterlimit:10" />
					</g>
					<g
   id="g1118">
						<path
   stroke-miterlimit="10"
   d="m 771.521,103.841 c -0.509,-0.553 -0.131,-1.728 0.932,-2.705 1.379,-1.269 3.862,-1.705 3.862,-1.705 0,0 -0.641,2.438 -2.02,3.707 -1.063,0.977 -2.266,1.256 -2.774,0.703 z"
   id="path1116"
   inkscape:connector-curvature="0"
   style="fill:#37a3dc;stroke:#795649;stroke-linecap:round;stroke-linejoin:round;stroke-miterlimit:10" />
					</g>
					<g
   id="g1122">
						<path
   stroke-miterlimit="10"
   d="m 781.108,95.02 c -0.509,-0.553 -1.711,-0.274 -2.773,0.704 -1.379,1.269 -2.02,3.707 -2.02,3.707 0,0 2.483,-0.436 3.862,-1.705 1.061,-0.978 1.439,-2.153 0.931,-2.706 z"
   id="path1120"
   inkscape:connector-curvature="0"
   style="fill:#37a3dc;stroke:#795649;stroke-linecap:round;stroke-linejoin:round;stroke-miterlimit:10" />
					</g>
					<g
   id="g1126">
						<path
   stroke-miterlimit="10"
   d="m 776.043,105.939 c -0.75,-0.031 -1.314,-1.129 -1.254,-2.572 0.078,-1.872 1.525,-3.936 1.525,-3.936 0,0 1.271,2.177 1.193,4.05 -0.06,1.441 -0.713,2.489 -1.464,2.458 z"
   id="path1124"
   inkscape:connector-curvature="0"
   style="fill:#37a3dc;stroke:#795649;stroke-linecap:round;stroke-linejoin:round;stroke-miterlimit:10" />
					</g>
					<g
   id="g1130">
						<path
   stroke-miterlimit="10"
   d="m 776.585,92.923 c -0.75,-0.031 -1.404,1.016 -1.464,2.458 -0.078,1.872 1.193,4.05 1.193,4.05 0,0 1.447,-2.064 1.525,-3.936 0.06,-1.443 -0.503,-2.541 -1.254,-2.572 z"
   id="path1128"
   inkscape:connector-curvature="0"
   style="fill:#37a3dc;stroke:#795649;stroke-linecap:round;stroke-linejoin:round;stroke-miterlimit:10" />
					</g>
					<g
   id="g1134">
						<path
   stroke-miterlimit="10"
   d="m 769.806,99.16 c 0.031,-0.75 1.129,-1.314 2.572,-1.254 1.872,0.078 3.936,1.525 3.936,1.525 0,0 -2.177,1.27 -4.05,1.193 -1.441,-0.061 -2.489,-0.714 -2.458,-1.464 z"
   id="path1132"
   inkscape:connector-curvature="0"
   style="fill:#37a3dc;stroke:#795649;stroke-linecap:round;stroke-linejoin:round;stroke-miterlimit:10" />
					</g>
					<g
   id="g1138">
						<path
   stroke-miterlimit="10"
   d="m 782.822,99.702 c 0.031,-0.75 -1.016,-1.403 -2.458,-1.464 -1.872,-0.078 -4.05,1.193 -4.05,1.193 0,0 2.064,1.447 3.936,1.525 1.443,0.06 2.541,-0.504 2.572,-1.254 z"
   id="path1136"
   inkscape:connector-curvature="0"
   style="fill:#37a3dc;stroke:#795649;stroke-linecap:round;stroke-linejoin:round;stroke-miterlimit:10" />
					</g>
				</g>
				<g
   id="g1174">
					<g
   id="g1144">
						<path
   stroke-miterlimit="10"
   d="m 875.955,104.224 c -0.553,0.509 -1.728,0.131 -2.705,-0.932 -1.269,-1.379 -1.705,-3.862 -1.705,-3.862 0,0 2.438,0.641 3.707,2.02 0.976,1.063 1.255,2.266 0.703,2.774 z"
   id="path1142"
   inkscape:connector-curvature="0"
   style="fill:#37a3dc;stroke:#795649;stroke-linecap:round;stroke-linejoin:round;stroke-miterlimit:10" />
					</g>
					<g
   id="g1148">
						<path
   stroke-miterlimit="10"
   d="m 867.134,94.637 c -0.553,0.509 -0.274,1.711 0.703,2.773 1.269,1.379 3.707,2.02 3.707,2.02 0,0 -0.436,-2.483 -1.705,-3.862 -0.977,-1.061 -2.152,-1.439 -2.705,-0.931 z"
   id="path1146"
   inkscape:connector-curvature="0"
   style="fill:#37a3dc;stroke:#795649;stroke-linecap:round;stroke-linejoin:round;stroke-miterlimit:10" />
					</g>
					<g
   id="g1152">
						<path
   stroke-miterlimit="10"
   d="m 866.751,103.841 c -0.509,-0.553 -0.131,-1.728 0.932,-2.705 1.379,-1.269 3.862,-1.705 3.862,-1.705 0,0 -0.641,2.438 -2.02,3.707 -1.063,0.977 -2.266,1.256 -2.774,0.703 z"
   id="path1150"
   inkscape:connector-curvature="0"
   style="fill:#37a3dc;stroke:#795649;stroke-linecap:round;stroke-linejoin:round;stroke-miterlimit:10" />
					</g>
					<g
   id="g1156">
						<path
   stroke-miterlimit="10"
   d="m 876.338,95.02 c -0.509,-0.553 -1.711,-0.274 -2.773,0.704 -1.379,1.269 -2.02,3.707 -2.02,3.707 0,0 2.483,-0.436 3.862,-1.705 1.061,-0.978 1.439,-2.153 0.931,-2.706 z"
   id="path1154"
   inkscape:connector-curvature="0"
   style="fill:#37a3dc;stroke:#795649;stroke-linecap:round;stroke-linejoin:round;stroke-miterlimit:10" />
					</g>
					<g
   id="g1160">
						<path
   stroke-miterlimit="10"
   d="m 871.273,105.939 c -0.75,-0.031 -1.314,-1.129 -1.254,-2.572 0.078,-1.872 1.525,-3.936 1.525,-3.936 0,0 1.27,2.177 1.193,4.05 -0.06,1.441 -0.713,2.489 -1.464,2.458 z"
   id="path1158"
   inkscape:connector-curvature="0"
   style="fill:#37a3dc;stroke:#795649;stroke-linecap:round;stroke-linejoin:round;stroke-miterlimit:10" />
					</g>
					<g
   id="g1164">
						<path
   stroke-miterlimit="10"
   d="m 871.815,92.923 c -0.75,-0.031 -1.403,1.016 -1.464,2.458 -0.078,1.872 1.193,4.05 1.193,4.05 0,0 1.447,-2.064 1.525,-3.936 0.06,-1.443 -0.503,-2.541 -1.254,-2.572 z"
   id="path1162"
   inkscape:connector-curvature="0"
   style="fill:#37a3dc;stroke:#795649;stroke-linecap:round;stroke-linejoin:round;stroke-miterlimit:10" />
					</g>
					<g
   id="g1168">
						<path
   stroke-miterlimit="10"
   d="m 865.036,99.16 c 0.031,-0.75 1.129,-1.314 2.572,-1.254 1.872,0.078 3.936,1.525 3.936,1.525 0,0 -2.177,1.27 -4.05,1.193 -1.441,-0.061 -2.489,-0.714 -2.458,-1.464 z"
   id="path1166"
   inkscape:connector-curvature="0"
   style="fill:#37a3dc;stroke:#795649;stroke-linecap:round;stroke-linejoin:round;stroke-miterlimit:10" />
					</g>
					<g
   id="g1172">
						<path
   stroke-miterlimit="10"
   d="m 878.052,99.702 c 0.031,-0.75 -1.016,-1.403 -2.458,-1.464 -1.872,-0.078 -4.05,1.193 -4.05,1.193 0,0 2.064,1.447 3.936,1.525 1.443,0.06 2.541,-0.504 2.572,-1.254 z"
   id="path1170"
   inkscape:connector-curvature="0"
   style="fill:#37a3dc;stroke:#795649;stroke-linecap:round;stroke-linejoin:round;stroke-miterlimit:10" />
					</g>
				</g>
			</g>
			<g
   id="g1290">
				<g
   id="g1210">
					<g
   id="g1180">
						<path
   stroke-miterlimit="10"
   d="m 828.34,105.382 c -0.553,0.509 -1.728,0.131 -2.705,-0.932 -1.269,-1.379 -1.705,-3.862 -1.705,-3.862 0,0 2.438,0.641 3.707,2.02 0.976,1.063 1.255,2.266 0.703,2.774 z"
   id="path1178"
   inkscape:connector-curvature="0"
   style="fill:#37a3dc;stroke:#795649;stroke-linecap:round;stroke-linejoin:round;stroke-miterlimit:10" />
					</g>
					<g
   id="g1184">
						<path
   stroke-miterlimit="10"
   d="m 819.519,95.795 c -0.553,0.509 -0.274,1.711 0.703,2.773 1.269,1.379 3.707,2.02 3.707,2.02 0,0 -0.436,-2.483 -1.705,-3.862 -0.977,-1.061 -2.152,-1.439 -2.705,-0.931 z"
   id="path1182"
   inkscape:connector-curvature="0"
   style="fill:#37a3dc;stroke:#795649;stroke-linecap:round;stroke-linejoin:round;stroke-miterlimit:10" />
					</g>
					<g
   id="g1188">
						<path
   stroke-miterlimit="10"
   d="m 819.136,104.999 c -0.509,-0.553 -0.131,-1.728 0.932,-2.705 1.379,-1.269 3.862,-1.705 3.862,-1.705 0,0 -0.641,2.438 -2.02,3.707 -1.063,0.977 -2.266,1.256 -2.774,0.703 z"
   id="path1186"
   inkscape:connector-curvature="0"
   style="fill:#37a3dc;stroke:#795649;stroke-linecap:round;stroke-linejoin:round;stroke-miterlimit:10" />
					</g>
					<g
   id="g1192">
						<path
   stroke-miterlimit="10"
   d="m 828.723,96.178 c -0.509,-0.553 -1.711,-0.274 -2.773,0.704 -1.379,1.269 -2.02,3.707 -2.02,3.707 0,0 2.483,-0.436 3.862,-1.705 1.061,-0.978 1.439,-2.153 0.931,-2.706 z"
   id="path1190"
   inkscape:connector-curvature="0"
   style="fill:#37a3dc;stroke:#795649;stroke-linecap:round;stroke-linejoin:round;stroke-miterlimit:10" />
					</g>
					<g
   id="g1196">
						<path
   stroke-miterlimit="10"
   d="m 823.658,107.097 c -0.75,-0.031 -1.314,-1.129 -1.254,-2.572 0.078,-1.872 1.525,-3.936 1.525,-3.936 0,0 1.271,2.177 1.193,4.05 -0.06,1.441 -0.713,2.489 -1.464,2.458 z"
   id="path1194"
   inkscape:connector-curvature="0"
   style="fill:#37a3dc;stroke:#795649;stroke-linecap:round;stroke-linejoin:round;stroke-miterlimit:10" />
					</g>
					<g
   id="g1200">
						<path
   stroke-miterlimit="10"
   d="m 824.2,94.081 c -0.75,-0.031 -1.403,1.016 -1.464,2.458 -0.078,1.872 1.193,4.05 1.193,4.05 0,0 1.447,-2.064 1.525,-3.936 0.06,-1.443 -0.503,-2.541 -1.254,-2.572 z"
   id="path1198"
   inkscape:connector-curvature="0"
   style="fill:#37a3dc;stroke:#795649;stroke-linecap:round;stroke-linejoin:round;stroke-miterlimit:10" />
					</g>
					<g
   id="g1204">
						<path
   stroke-miterlimit="10"
   d="m 817.421,100.318 c 0.031,-0.75 1.129,-1.314 2.572,-1.254 1.872,0.078 3.936,1.525 3.936,1.525 0,0 -2.177,1.27 -4.05,1.193 -1.441,-0.061 -2.489,-0.714 -2.458,-1.464 z"
   id="path1202"
   inkscape:connector-curvature="0"
   style="fill:#37a3dc;stroke:#795649;stroke-linecap:round;stroke-linejoin:round;stroke-miterlimit:10" />
					</g>
					<g
   id="g1208">
						<path
   stroke-miterlimit="10"
   d="m 830.437,100.86 c 0.031,-0.75 -1.016,-1.403 -2.458,-1.464 -1.872,-0.078 -4.05,1.193 -4.05,1.193 0,0 2.064,1.447 3.936,1.525 1.443,0.06 2.541,-0.504 2.572,-1.254 z"
   id="path1206"
   inkscape:connector-curvature="0"
   style="fill:#37a3dc;stroke:#795649;stroke-linecap:round;stroke-linejoin:round;stroke-miterlimit:10" />
					</g>
				</g>
				<g
   id="g1244">
					<g
   id="g1214">
						<path
   stroke-miterlimit="10"
   d="m 828.34,146.175 c -0.553,0.509 -1.728,0.131 -2.705,-0.932 -1.269,-1.379 -1.705,-3.862 -1.705,-3.862 0,0 2.438,0.641 3.707,2.02 0.976,1.063 1.255,2.266 0.703,2.774 z"
   id="path1212"
   inkscape:connector-curvature="0"
   style="fill:#37a3dc;stroke:#795649;stroke-linecap:round;stroke-linejoin:round;stroke-miterlimit:10" />
					</g>
					<g
   id="g1218">
						<path
   stroke-miterlimit="10"
   d="m 819.519,136.589 c -0.553,0.509 -0.274,1.711 0.703,2.773 1.269,1.379 3.707,2.02 3.707,2.02 0,0 -0.436,-2.483 -1.705,-3.862 -0.977,-1.062 -2.152,-1.44 -2.705,-0.931 z"
   id="path1216"
   inkscape:connector-curvature="0"
   style="fill:#37a3dc;stroke:#795649;stroke-linecap:round;stroke-linejoin:round;stroke-miterlimit:10" />
					</g>
					<g
   id="g1222">
						<path
   stroke-miterlimit="10"
   d="m 819.136,145.792 c -0.509,-0.553 -0.131,-1.728 0.932,-2.705 1.379,-1.269 3.862,-1.705 3.862,-1.705 0,0 -0.641,2.438 -2.02,3.707 -1.063,0.977 -2.266,1.256 -2.774,0.703 z"
   id="path1220"
   inkscape:connector-curvature="0"
   style="fill:#37a3dc;stroke:#795649;stroke-linecap:round;stroke-linejoin:round;stroke-miterlimit:10" />
					</g>
					<g
   id="g1226">
						<path
   stroke-miterlimit="10"
   d="m 828.723,136.972 c -0.509,-0.553 -1.711,-0.274 -2.773,0.704 -1.379,1.269 -2.02,3.707 -2.02,3.707 0,0 2.483,-0.436 3.862,-1.705 1.061,-0.978 1.439,-2.154 0.931,-2.706 z"
   id="path1224"
   inkscape:connector-curvature="0"
   style="fill:#37a3dc;stroke:#795649;stroke-linecap:round;stroke-linejoin:round;stroke-miterlimit:10" />
					</g>
					<g
   id="g1230">
						<path
   stroke-miterlimit="10"
   d="m 823.658,147.89 c -0.75,-0.031 -1.314,-1.129 -1.254,-2.572 0.078,-1.872 1.525,-3.936 1.525,-3.936 0,0 1.271,2.177 1.193,4.05 -0.06,1.442 -0.713,2.489 -1.464,2.458 z"
   id="path1228"
   inkscape:connector-curvature="0"
   style="fill:#37a3dc;stroke:#795649;stroke-linecap:round;stroke-linejoin:round;stroke-miterlimit:10" />
					</g>
					<g
   id="g1234">
						<path
   stroke-miterlimit="10"
   d="m 824.2,134.874 c -0.75,-0.031 -1.403,1.016 -1.464,2.458 -0.078,1.872 1.193,4.05 1.193,4.05 0,0 1.447,-2.064 1.525,-3.936 0.06,-1.443 -0.503,-2.541 -1.254,-2.572 z"
   id="path1232"
   inkscape:connector-curvature="0"
   style="fill:#37a3dc;stroke:#795649;stroke-linecap:round;stroke-linejoin:round;stroke-miterlimit:10" />
					</g>
					<g
   id="g1238">
						<path
   stroke-miterlimit="10"
   d="m 817.421,141.111 c 0.031,-0.75 1.129,-1.314 2.572,-1.254 1.872,0.078 3.936,1.525 3.936,1.525 0,0 -2.177,1.27 -4.05,1.193 -1.441,-0.06 -2.489,-0.714 -2.458,-1.464 z"
   id="path1236"
   inkscape:connector-curvature="0"
   style="fill:#37a3dc;stroke:#795649;stroke-linecap:round;stroke-linejoin:round;stroke-miterlimit:10" />
					</g>
					<g
   id="g1242">
						<path
   stroke-miterlimit="10"
   d="m 830.437,141.653 c 0.031,-0.75 -1.016,-1.403 -2.458,-1.464 -1.872,-0.078 -4.05,1.193 -4.05,1.193 0,0 2.064,1.447 3.936,1.525 1.443,0.06 2.541,-0.504 2.572,-1.254 z"
   id="path1240"
   inkscape:connector-curvature="0"
   style="fill:#37a3dc;stroke:#795649;stroke-linecap:round;stroke-linejoin:round;stroke-miterlimit:10" />
					</g>
				</g>
				<g
   id="g1266">
					<g
   id="g1248">
						<path
   stroke-miterlimit="10"
   d="m 829.526,111.567 c 1.21,0.794 1.248,2.876 -0.02,4.808 -1.646,2.508 -5.703,3.912 -5.703,3.912 0,0 -0.327,-4.28 1.32,-6.789 1.268,-1.932 3.192,-2.725 4.403,-1.931 z"
   id="path1246"
   inkscape:connector-curvature="0"
   style="fill:#ffffff;stroke:#795649;stroke-linecap:round;stroke-linejoin:round;stroke-miterlimit:10" />
					</g>
					<g
   id="g1252">
						<path
   stroke-miterlimit="10"
   d="m 817.28,112.149 c 1.13,-0.906 3.121,-0.298 4.567,1.505 1.877,2.341 1.958,6.633 1.958,6.633 0,0 -4.172,-1.012 -6.049,-3.353 -1.445,-1.803 -1.605,-3.879 -0.476,-4.785 z"
   id="path1250"
   inkscape:connector-curvature="0"
   style="fill:#ffffff;stroke:#795649;stroke-linecap:round;stroke-linejoin:round;stroke-miterlimit:10" />
					</g>
					<g
   id="g1256">
						<path
   stroke-miterlimit="10"
   d="m 814.047,123.978 c -0.512,-1.354 0.681,-3.06 2.842,-3.878 2.806,-1.062 6.913,0.187 6.913,0.187 0,0 -2.252,3.655 -5.058,4.716 -2.161,0.819 -4.185,0.329 -4.697,-1.025 z"
   id="path1254"
   inkscape:connector-curvature="0"
   style="fill:#ffffff;stroke:#795649;stroke-linecap:round;stroke-linejoin:round;stroke-miterlimit:10" />
					</g>
					<g
   id="g1260">
						<path
   stroke-miterlimit="10"
   d="m 824.3,130.707 c -1.446,0.069 -2.7,-1.593 -2.81,-3.902 -0.143,-2.997 2.315,-6.517 2.315,-6.517 0,0 2.78,3.271 2.923,6.268 0.109,2.309 -0.982,4.082 -2.428,4.151 z"
   id="path1258"
   inkscape:connector-curvature="0"
   style="fill:#ffffff;stroke:#795649;stroke-linecap:round;stroke-linejoin:round;stroke-miterlimit:10" />
					</g>
					<g
   id="g1264">
						<path
   stroke-miterlimit="10"
   d="m 833.865,123.034 c -0.381,1.397 -2.349,2.076 -4.579,1.467 -2.894,-0.791 -5.483,-4.215 -5.483,-4.215 0,0 3.97,-1.633 6.864,-0.843 2.231,0.609 3.58,2.194 3.198,3.591 z"
   id="path1262"
   inkscape:connector-curvature="0"
   style="fill:#ffffff;stroke:#795649;stroke-linecap:round;stroke-linejoin:round;stroke-miterlimit:10" />
					</g>
				</g>
				<g
   id="g1288">
					<g
   id="g1270">
						<path
   stroke-miterlimit="10"
   d="m 829.526,70.774 c 1.21,0.794 1.248,2.876 -0.02,4.808 -1.646,2.508 -5.703,3.912 -5.703,3.912 0,0 -0.327,-4.28 1.32,-6.789 1.268,-1.932 3.192,-2.726 4.403,-1.931 z"
   id="path1268"
   inkscape:connector-curvature="0"
   style="fill:#ffffff;stroke:#795649;stroke-linecap:round;stroke-linejoin:round;stroke-miterlimit:10" />
					</g>
					<g
   id="g1274">
						<path
   stroke-miterlimit="10"
   d="m 817.28,71.356 c 1.13,-0.906 3.121,-0.298 4.567,1.505 1.877,2.341 1.958,6.633 1.958,6.633 0,0 -4.172,-1.012 -6.049,-3.353 -1.445,-1.804 -1.605,-3.879 -0.476,-4.785 z"
   id="path1272"
   inkscape:connector-curvature="0"
   style="fill:#ffffff;stroke:#795649;stroke-linecap:round;stroke-linejoin:round;stroke-miterlimit:10" />
					</g>
					<g
   id="g1278">
						<path
   stroke-miterlimit="10"
   d="m 814.047,83.185 c -0.512,-1.354 0.681,-3.06 2.842,-3.878 2.806,-1.062 6.913,0.187 6.913,0.187 0,0 -2.252,3.655 -5.058,4.716 -2.161,0.818 -4.185,0.329 -4.697,-1.025 z"
   id="path1276"
   inkscape:connector-curvature="0"
   style="fill:#ffffff;stroke:#795649;stroke-linecap:round;stroke-linejoin:round;stroke-miterlimit:10" />
					</g>
					<g
   id="g1282">
						<path
   stroke-miterlimit="10"
   d="m 824.3,89.914 c -1.446,0.069 -2.7,-1.593 -2.81,-3.902 -0.143,-2.997 2.315,-6.517 2.315,-6.517 0,0 2.78,3.271 2.923,6.268 0.109,2.309 -0.982,4.082 -2.428,4.151 z"
   id="path1280"
   inkscape:connector-curvature="0"
   style="fill:#ffffff;stroke:#795649;stroke-linecap:round;stroke-linejoin:round;stroke-miterlimit:10" />
					</g>
					<g
   id="g1286">
						<path
   stroke-miterlimit="10"
   d="m 833.865,82.241 c -0.381,1.397 -2.349,2.076 -4.579,1.467 -2.894,-0.791 -5.483,-4.215 -5.483,-4.215 0,0 3.97,-1.633 6.864,-0.843 2.231,0.609 3.58,2.194 3.198,3.591 z"
   id="path1284"
   inkscape:connector-curvature="0"
   style="fill:#ffffff;stroke:#795649;stroke-linecap:round;stroke-linejoin:round;stroke-miterlimit:10" />
					</g>
				</g>
			</g>
		</g>
	</g>
	<path
   stroke-miterlimit="10"
   d="m 823.931,59.19 c 0,0 -0.793,32.389 44.191,23.885 0,0 -4.359,-9.889 -7.677,-14.051 -5.932,-7.441 -8.232,-17.067 -6.153,-26.353 0.63,-2.815 0.879,-5.775 0.687,-8.822 C 854.01,18.435 841.592,5.91 826.186,4.825 807.985,3.542 792.82,17.929 792.82,35.857 c 0,2.461 0.286,4.855 0.828,7.151 2.158,9.156 -0.419,18.704 -6.272,26.069 -3.298,4.149 -5.898,8.875 -7.638,13.999 43.492,8.503 44.193,-23.886 44.193,-23.886 z"
   id="path1296"
   inkscape:connector-curvature="0"
   style="fill:#4daf50;stroke:#795649;stroke-linecap:round;stroke-linejoin:round;stroke-miterlimit:10" />
	
		<circle
   stroke-miterlimit="10"
   cx="784.85303"
   cy="81.110001"
   r="1.143"
   id="circle1298"
   style="fill:#ffffff;stroke:#795649;stroke-linecap:round;stroke-linejoin:round;stroke-miterlimit:10" />
	
		<circle
   stroke-miterlimit="10"
   cx="796.63599"
   cy="81.110001"
   r="1.143"
   id="circle1300"
   style="fill:#ffffff;stroke:#795649;stroke-linecap:round;stroke-linejoin:round;stroke-miterlimit:10" />
	
		<circle
   stroke-miterlimit="10"
   cx="807.97101"
   cy="78.561996"
   r="1.143"
   id="circle1302"
   style="fill:#ffffff;stroke:#795649;stroke-linecap:round;stroke-linejoin:round;stroke-miterlimit:10" />
	
		<circle
   stroke-miterlimit="10"
   cx="816.47498"
   cy="71.660004"
   r="1.143"
   id="circle1304"
   style="fill:#ffffff;stroke:#795649;stroke-linecap:round;stroke-linejoin:round;stroke-miterlimit:10" />
	
		<circle
   stroke-miterlimit="10"
   cx="820.90302"
   cy="62.327"
   r="1.143"
   id="circle1306"
   style="fill:#ffffff;stroke:#795649;stroke-linecap:round;stroke-linejoin:round;stroke-miterlimit:10" />
	
		<circle
   stroke-miterlimit="10"
   cx="862.90802"
   cy="81.110001"
   r="1.143"
   id="circle1308"
   style="fill:#ffffff;stroke:#795649;stroke-linecap:round;stroke-linejoin:round;stroke-miterlimit:10" />
	
		<circle
   stroke-miterlimit="10"
   cx="851.125"
   cy="81.110001"
   r="1.143"
   id="circle1310"
   style="fill:#ffffff;stroke:#795649;stroke-linecap:round;stroke-linejoin:round;stroke-miterlimit:10" />
	
		<circle
   stroke-miterlimit="10"
   cx="839.78998"
   cy="78.561996"
   r="1.143"
   id="circle1312"
   style="fill:#ffffff;stroke:#795649;stroke-linecap:round;stroke-linejoin:round;stroke-miterlimit:10" />
	
		<circle
   stroke-miterlimit="10"
   cx="831.28601"
   cy="71.660004"
   r="1.143"
   id="circle1314"
   style="fill:#ffffff;stroke:#795649;stroke-linecap:round;stroke-linejoin:round;stroke-miterlimit:10" />
	
		<circle
   stroke-miterlimit="10"
   cx="826.85797"
   cy="62.327"
   r="1.143"
   id="circle1316"
   style="fill:#ffffff;stroke:#795649;stroke-linecap:round;stroke-linejoin:round;stroke-miterlimit:10" />
	<g
   id="g1320"
   style="opacity:0.1">
		<path
   d="m 860.664,69.024 c -5.932,-7.441 -8.232,-17.067 -6.153,-26.353 0.63,-2.815 0.879,-5.775 0.687,-8.822 C 854.229,18.435 841.811,5.91 826.405,4.825 c -4.236,-0.298 -8.303,0.261 -12.057,1.507 11.746,3.921 20.446,14.72 21.25,27.517 0.192,3.047 -0.057,6.007 -0.687,8.822 -2.079,9.286 0.222,18.912 6.153,26.353 6.354,7.971 10.152,18.068 10.152,29.055 0,22.399 -15.781,41.109 -36.831,45.626 2.457,0.527 4.979,0.871 7.558,0.99 26.777,1.233 48.873,-20.111 48.873,-46.616 10e-4,-10.987 -3.798,-21.084 -10.152,-29.055 z"
   id="path1318"
   inkscape:connector-curvature="0"
   style="fill:#263239" />
	</g>
	<g
   id="g1376">
		<g
   id="g1338">
			<defs
   id="defs1323">
				<circle
   id="XMLID_13_"
   cx="824.20502"
   cy="35.855999"
   r="23.333" />
			</defs>
			<use
   xlink:href="#XMLID_13_"
   overflow="visible"
   id="use1325"
   style="overflow:visible;fill:#facbbd"
   x="0"
   y="0"
   width="100%"
   height="100%" />
			<clipPath
   id="XMLID_49_">
				<use
   xlink:href="#XMLID_13_"
   overflow="visible"
   id="use1327"
   style="overflow:visible"
   x="0"
   y="0"
   width="100%"
   height="100%" />
			</clipPath>
			<g
   clip-path="url(#XMLID_49_)"
   id="g1334">
				<circle
   cx="805.13898"
   cy="49.564999"
   r="4.6669998"
   id="circle1330"
   style="fill:#f5a992" />
				<circle
   cx="843.27002"
   cy="49.564999"
   r="4.6669998"
   id="circle1332"
   style="fill:#f5a992" />
			</g>
			<use
   xlink:href="#XMLID_13_"
   overflow="visible"
   stroke-miterlimit="10"
   id="use1336"
   style="overflow:visible;fill:none;stroke:#795649;stroke-width:2;stroke-miterlimit:10"
   x="0"
   y="0"
   width="100%"
   height="100%" />
		</g>
		<g
   id="g1352">
			<g
   id="g1344">
				<circle
   cx="811.24701"
   cy="40.050999"
   r="4.638"
   id="circle1340"
   style="fill:#795649" />
				<path
   d="m 815.803,39.182 c 0,0 -1.392,-6.887 -9.851,-2.181 0,0 7.024,-1.215 9.851,2.181 z"
   id="path1342"
   inkscape:connector-curvature="0"
   style="fill:#795649" />
			</g>
			<g
   id="g1350">
				<circle
   cx="837.16199"
   cy="40.050999"
   r="4.638"
   id="circle1346"
   style="fill:#795649" />
				<path
   d="m 832.606,39.182 c 0,0 1.392,-6.887 9.851,-2.181 0,0 -7.023,-1.215 -9.851,2.181 z"
   id="path1348"
   inkscape:connector-curvature="0"
   style="fill:#795649" />
			</g>
		</g>
		<path
   stroke-miterlimit="10"
   d="m 818.76,44.334 c 0,4.296 2.438,7.778 5.444,7.778 3.007,0 5.444,-3.482 5.444,-7.778 z"
   id="path1354"
   inkscape:connector-curvature="0"
   style="fill:#fce9e7;stroke:#795649;stroke-miterlimit:10" />
		<path
   stroke-miterlimit="10"
   d="m 811.247,16.517 c 0,0 10.193,19.339 36.206,17.36 -1.33,-14.548 -18.539,-28.16 -36.206,-17.36 z"
   id="path1356"
   inkscape:connector-curvature="0"
   style="fill:#8e6f64;stroke:#795649;stroke-width:2;stroke-miterlimit:10" />
		<path
   stroke-miterlimit="10"
   d="m 818.76,13.165 c 0,0 0,20.712 -17.859,20.712 0.001,10e-4 0.511,-15.791 17.859,-20.712 z"
   id="path1358"
   inkscape:connector-curvature="0"
   style="fill:#8e6f64;stroke:#795649;stroke-width:2;stroke-miterlimit:10" />
		<path
   stroke-miterlimit="10"
   d="m 801.327,30.983 c 0,0 12.079,-0.273 14.049,-16.731"
   id="path1360"
   inkscape:connector-curvature="0"
   style="fill:none;stroke:#795649;stroke-miterlimit:10" />
		<path
   stroke-miterlimit="10"
   d="m 802.56,27.046 c 0,0 6.898,-1.236 8.317,-10.283"
   id="path1362"
   inkscape:connector-curvature="0"
   style="fill:none;stroke:#795649;stroke-miterlimit:10" />
		<path
   stroke-miterlimit="10"
   d="m 817.87,18.985 c 0,0 12.658,12.915 28.799,10.835"
   id="path1364"
   inkscape:connector-curvature="0"
   style="fill:none;stroke:#795649;stroke-miterlimit:10" />
		<path
   stroke-miterlimit="10"
   d="m 818.76,14.252 c 0,0 13.332,12.794 26.495,11.947"
   id="path1366"
   inkscape:connector-curvature="0"
   style="fill:none;stroke:#795649;stroke-miterlimit:10" />
		<path
   stroke-miterlimit="10"
   d="m 823.457,12.642 c 0,0 8.473,8.113 19.111,9.262"
   id="path1368"
   inkscape:connector-curvature="0"
   style="fill:none;stroke:#795649;stroke-miterlimit:10" />
		<circle
   cx="809.29401"
   cy="16.782"
   r="4.1999998"
   id="circle1370"
   style="opacity:0.8;fill:#ffffff" />
		<circle
   cx="803.12097"
   cy="23.364"
   r="2.8"
   id="circle1372"
   style="opacity:0.8;fill:#ffffff" />
		<circle
   cx="809.71997"
   cy="24.987"
   r="1.4"
   id="circle1374"
   style="opacity:0.8;fill:#ffffff" />
	</g>
</g>


<g
   id="g1938"
   transform="translate(-775.26339,-2.745)">
</g>
<g
   id="g1940"
   transform="translate(-775.26339,-2.745)">
</g>
<g
   id="g1942"
   transform="translate(-775.26339,-2.745)">
</g>
<g
   id="g1944"
   transform="translate(-775.26339,-2.745)">
</g>
<g
   id="g1946"
   transform="translate(-775.26339,-2.745)">
</g>
<g
   id="g1948"
   transform="translate(-775.26339,-2.745)">
</g>
</svg>