<?xml version="1.0" encoding="UTF-8" standalone="no"?>
<!-- Generator: Adobe Illustrator 17.0.0, SVG Export Plug-In . SVG Version: 6.00 Build 0)  -->

<svg
   xmlns:dc="http://purl.org/dc/elements/1.1/"
   xmlns:cc="http://creativecommons.org/ns#"
   xmlns:rdf="http://www.w3.org/1999/02/22-rdf-syntax-ns#"
   xmlns:svg="http://www.w3.org/2000/svg"
   xmlns="http://www.w3.org/2000/svg"
   xmlns:xlink="http://www.w3.org/1999/xlink"
   xmlns:sodipodi="http://sodipodi.sourceforge.net/DTD/sodipodi-0.dtd"
   xmlns:inkscape="http://www.inkscape.org/namespaces/inkscape"
   version="1.1"
   id="Слой_1"
   x="0px"
   y="0px"
   width="97.333603"
   height="144"
   viewBox="0 0 97.333603 144"
   enable-background="new 0 0 1200 150"
   xml:space="preserve"
   sodipodi:docname="6.svg"
   inkscape:version="0.92.4 (5da689c313, 2019-01-14)"><metadata
   id="metadata1955"><rdf:RDF><cc:Work
       rdf:about=""><dc:format>image/svg+xml</dc:format><dc:type
         rdf:resource="http://purl.org/dc/dcmitype/StillImage" /><dc:title></dc:title></cc:Work></rdf:RDF></metadata><defs
   id="defs1953" /><sodipodi:namedview
   pagecolor="#ffffff"
   bordercolor="#666666"
   borderopacity="1"
   objecttolerance="10"
   gridtolerance="10"
   guidetolerance="10"
   inkscape:pageopacity="0"
   inkscape:pageshadow="2"
   inkscape:window-width="1920"
   inkscape:window-height="1017"
   id="namedview1951"
   showgrid="false"
   inkscape:zoom="0.94666667"
   inkscape:cx="-58.623613"
   inkscape:cy="-23.897788"
   inkscape:window-x="-8"
   inkscape:window-y="-8"
   inkscape:window-maximized="1"
   inkscape:current-layer="Слой_1"
   fit-margin-top="0"
   fit-margin-left="0"
   fit-margin-right="0"
   fit-margin-bottom="0" />






<g
   id="g1539"
   transform="translate(-925.85739,-3.058)">
	<g
   id="XMLID_16_">
		<path
   d="m 974.523,146.058 c -0.747,0 -1.499,-0.018 -2.253,-0.052 -24.3,-1.119 -44.224,-21.03 -45.36,-45.329 -0.54,-11.563 3.108,-22.895 10.274,-31.91 5.895,-7.416 8.111,-16.607 6.081,-25.217 -0.566,-2.404 -0.854,-4.888 -0.854,-7.381 0,-17.706 14.405,-32.111 32.111,-32.111 0.77,0 1.553,0.028 2.325,0.082 15.939,1.123 28.717,14.002 29.721,29.958 0.193,3.076 -0.045,6.138 -0.709,9.104 -2.003,8.949 0.169,18.247 5.96,25.511 6.784,8.511 10.37,18.774 10.37,29.678 0,12.732 -4.958,24.703 -13.961,33.706 -9.003,9.003 -20.972,13.961 -33.705,13.961 z"
   id="path1380"
   inkscape:connector-curvature="0"
   style="fill:#263239" />
		<g
   id="g1384">
			<path
   d="m 974.523,5.058 c 0.745,0 1.498,0.026 2.255,0.08 15.406,1.086 27.824,13.61 28.793,29.024 0.192,3.047 -0.057,6.007 -0.687,8.822 -2.079,9.286 0.222,18.912 6.153,26.353 6.354,7.971 10.152,18.068 10.152,29.055 0,25.774 -20.893,46.667 -46.667,46.667 -0.731,0 -1.468,-0.017 -2.206,-0.051 -23.893,-1.1 -43.291,-20.484 -44.408,-44.377 -0.553,-11.827 3.301,-22.74 10.058,-31.242 5.853,-7.364 8.43,-16.912 6.272,-26.069 -0.541,-2.296 -0.827,-4.69 -0.827,-7.151 0,-17.183 13.929,-31.111 31.112,-31.111 m 0,-2 c -18.258,0 -33.111,14.854 -33.111,33.111 0,2.57 0.296,5.13 0.881,7.61 1.959,8.31 -0.189,17.191 -5.891,24.365 -7.317,9.205 -11.043,20.776 -10.491,32.58 0.564,12.054 5.623,23.439 14.247,32.057 8.624,8.618 20.012,13.669 32.067,14.224 0.764,0.035 1.537,0.053 2.299,0.053 26.835,0 48.667,-21.832 48.667,-48.667 0,-11.134 -3.661,-21.612 -10.588,-30.301 -5.601,-7.026 -7.703,-16.018 -5.766,-24.669 0.685,-3.057 0.931,-6.215 0.731,-9.384 C 1006.533,17.583 993.357,4.302 976.919,3.143 976.122,3.086 975.316,3.058 974.523,3.058 Z"
   id="path1382"
   inkscape:connector-curvature="0"
   style="fill:#795649" />
		</g>
	</g>
	<g
   id="g1461">
		<defs
   id="defs1388">
			<path
   id="SVGID_3_"
   d="m 1004.893,42.983 c 0.63,-2.815 0.878,-5.775 0.687,-8.822 -0.969,-15.414 -13.387,-27.939 -28.793,-29.024 -18.202,-1.283 -33.366,13.104 -33.366,31.032 0,2.461 0.286,4.855 0.827,7.151 2.158,9.156 -0.419,18.704 -6.272,26.069 -6.758,8.502 -10.611,19.415 -10.058,31.242 1.117,23.893 20.514,43.276 44.408,44.377 26.777,1.233 48.873,-20.111 48.873,-46.616 0,-10.987 -3.798,-21.084 -10.152,-29.055 -5.932,-7.442 -8.233,-17.068 -6.154,-26.354 z"
   inkscape:connector-curvature="0" />
		</defs>
		<use
   xlink:href="#SVGID_3_"
   overflow="visible"
   id="use1390"
   style="overflow:visible;fill:#e9453a"
   x="0"
   y="0"
   width="100%"
   height="100%" />
		<clipPath
   id="SVGID_4_">
			<use
   xlink:href="#SVGID_3_"
   overflow="visible"
   id="use1392"
   style="overflow:visible"
   x="0"
   y="0"
   width="100%"
   height="100%" />
		</clipPath>
		<g
   clip-path="url(#SVGID_4_)"
   id="g1459">
			<g
   id="g1455">
				<g
   id="g1401">
					<path
   stroke-miterlimit="10"
   d="m 973.859,150.346 -1.359,-1.141 c -7.276,8.663 -21.641,1.644 -20.105,19.303 0.139,1.596 -1.186,3.145 0.922,4.916 2.108,1.771 3.406,0.198 5.001,0.059 17.66,-1.537 8.265,-14.474 15.541,-23.137 z"
   id="path1395"
   inkscape:connector-curvature="0"
   style="fill:#ec6392;stroke:#795649;stroke-linecap:round;stroke-linejoin:round;stroke-miterlimit:10" />
					<g
   id="g1399">
						<path
   stroke-miterlimit="10"
   d="m 973.629,150.201 c -0.026,0.184 -0.057,0.364 -0.091,0.543 0.096,-0.124 0.195,-0.248 0.298,-0.371 0,-0.01 10e-4,-0.02 10e-4,-0.031 z"
   id="path1397"
   inkscape:connector-curvature="0"
   style="fill:#ec6392;stroke:#795649;stroke-linecap:round;stroke-linejoin:round;stroke-miterlimit:10" />
					</g>
				</g>
				<g
   id="g1409">
					<path
   stroke-miterlimit="10"
   d="m 975.633,150.347 -1.774,-0.001 c -0.005,11.313 -15.522,15.17 -2.994,27.71 1.132,1.133 1.114,3.172 3.867,3.173 2.753,10e-4 2.737,-2.037 3.87,-3.169 12.539,-12.528 -2.974,-16.4 -2.969,-27.713 z"
   id="path1403"
   inkscape:connector-curvature="0"
   style="fill:#ec6392;stroke:#795649;stroke-linecap:round;stroke-linejoin:round;stroke-miterlimit:10" />
					<g
   id="g1407">
						<path
   stroke-miterlimit="10"
   d="m 975.631,150.378 c -0.008,-0.009 -0.014,-0.018 -0.022,-0.028 l -0.226,0.105 c 0.09,0.146 0.177,0.293 0.259,0.44 -0.007,-0.171 -0.011,-0.343 -0.011,-0.517 z"
   id="path1405"
   inkscape:connector-curvature="0"
   style="fill:#ec6392;stroke:#795649;stroke-linecap:round;stroke-linejoin:round;stroke-miterlimit:10" />
					</g>
				</g>
				<g
   id="g1413">
					<path
   stroke-miterlimit="10"
   d="m 976.993,149.207 -1.36,1.14 c 7.268,8.67 -2.139,21.598 15.518,23.151 1.595,0.14 2.892,1.714 5.001,-0.055 2.11,-1.769 0.787,-3.32 0.927,-4.915 1.554,-17.657 -12.818,-10.651 -20.086,-19.321 z"
   id="path1411"
   inkscape:connector-curvature="0"
   style="fill:#ec6392;stroke:#795649;stroke-linecap:round;stroke-linejoin:round;stroke-miterlimit:10" />
				</g>
				<g
   id="g1417">
					<path
   stroke-miterlimit="10"
   d="m 977.302,147.464 -0.309,1.747 c 11.14,1.97 12.244,17.92 26.769,7.76 1.312,-0.918 3.317,-0.546 3.796,-3.257 0.479,-2.711 -1.531,-3.049 -2.449,-4.361 -10.161,-14.524 -16.667,0.081 -27.807,-1.889 z"
   id="path1415"
   inkscape:connector-curvature="0"
   style="fill:#ec6392;stroke:#795649;stroke-linecap:round;stroke-linejoin:round;stroke-miterlimit:10" />
				</g>
				<g
   id="g1421">
					<path
   stroke-miterlimit="10"
   d="m 976.415,145.927 0.887,1.537 c 9.8,-5.652 20.898,5.857 25.494,-11.262 0.415,-1.547 2.19,-2.55 0.815,-4.935 -1.375,-2.385 -3.133,-1.351 -4.68,-1.766 -17.12,-4.596 -12.716,10.774 -22.516,16.426 z"
   id="path1419"
   inkscape:connector-curvature="0"
   style="fill:#ec6392;stroke:#795649;stroke-linecap:round;stroke-linejoin:round;stroke-miterlimit:10" />
				</g>
				<g
   id="g1429">
					<path
   stroke-miterlimit="10"
   d="m 974.748,145.319 1.667,0.608 c 3.874,-10.629 19.774,-8.946 12.29,-25.015 -0.676,-1.452 0.038,-3.361 -2.548,-4.304 -2.587,-0.943 -3.268,0.979 -4.72,1.655 -16.068,7.484 -2.815,16.427 -6.689,27.056 z"
   id="path1423"
   inkscape:connector-curvature="0"
   style="fill:#ec6392;stroke:#795649;stroke-linecap:round;stroke-linejoin:round;stroke-miterlimit:10" />
					<g
   id="g1427">
						<path
   stroke-miterlimit="10"
   d="m 975.061,144.335 c -0.089,0.326 -0.192,0.654 -0.312,0.984 h 10e-4 l 0.479,0.033 c -0.072,-0.342 -0.127,-0.681 -0.168,-1.017 z"
   id="path1425"
   inkscape:connector-curvature="0"
   style="fill:#ec6392;stroke:#795649;stroke-linecap:round;stroke-linejoin:round;stroke-miterlimit:10" />
					</g>
				</g>
				<g
   id="g1437">
					<path
   stroke-miterlimit="10"
   d="m 973.08,145.925 1.668,-0.606 c -3.864,-10.632 9.397,-19.564 -6.664,-27.063 -1.451,-0.678 -2.131,-2.6 -4.719,-1.659 -2.587,0.94 -1.875,2.85 -2.552,4.302 -7.498,16.062 8.403,14.394 12.267,25.026 z"
   id="path1431"
   inkscape:connector-curvature="0"
   style="fill:#ec6392;stroke:#795649;stroke-linecap:round;stroke-linejoin:round;stroke-miterlimit:10" />
					<g
   id="g1435">
						<path
   stroke-miterlimit="10"
   d="m 973.135,145.905 0.385,-0.186 c -0.288,-0.227 -0.559,-0.462 -0.815,-0.703 0.13,0.284 0.251,0.577 0.363,0.881 0.011,0.007 0.022,0.014 0.034,0.021 z"
   id="path1433"
   inkscape:connector-curvature="0"
   style="fill:#ec6392;stroke:#795649;stroke-linecap:round;stroke-linejoin:round;stroke-miterlimit:10" />
					</g>
				</g>
				<g
   id="g1445">
					<path
   stroke-miterlimit="10"
   d="m 972.224,147.462 0.888,-1.536 c -9.795,-5.661 -5.377,-21.027 -22.501,-16.447 -1.547,0.414 -3.304,-0.621 -4.681,1.762 -1.378,2.383 0.396,3.389 0.81,4.936 4.58,17.123 15.689,5.624 25.484,11.285 z"
   id="path1439"
   inkscape:connector-curvature="0"
   style="fill:#ec6392;stroke:#795649;stroke-linecap:round;stroke-linejoin:round;stroke-miterlimit:10" />
					<g
   id="g1443">
						<path
   stroke-miterlimit="10"
   d="m 971.679,147.107 c 0.217,0.108 0.434,0.222 0.651,0.347 l 0.005,-0.001 0.211,-0.34 c -0.295,0.009 -0.583,0.005 -0.867,-0.006 z"
   id="path1441"
   inkscape:connector-curvature="0"
   style="fill:#ec6392;stroke:#795649;stroke-linecap:round;stroke-linejoin:round;stroke-miterlimit:10" />
					</g>
				</g>
				<g
   id="g1453">
					<path
   stroke-miterlimit="10"
   d="m 972.531,149.209 -0.307,-1.748 c -11.142,1.959 -17.635,-12.652 -27.809,1.864 -0.919,1.312 -2.93,1.647 -2.453,4.359 0.477,2.711 2.482,2.341 3.793,3.26 14.516,10.174 15.634,-5.775 26.776,-7.735 z"
   id="path1447"
   inkscape:connector-curvature="0"
   style="fill:#ec6392;stroke:#795649;stroke-linecap:round;stroke-linejoin:round;stroke-miterlimit:10" />
					<g
   id="g1451">
						<path
   stroke-miterlimit="10"
   d="m 972.399,149.224 c 0.008,-0.009 0.016,-0.018 0.024,-0.027 l -0.035,-0.319 c -0.182,0.163 -0.368,0.315 -0.554,0.463 0.185,-0.043 0.373,-0.082 0.565,-0.117 z"
   id="path1449"
   inkscape:connector-curvature="0"
   style="fill:#ec6392;stroke:#795649;stroke-linecap:round;stroke-linejoin:round;stroke-miterlimit:10" />
					</g>
				</g>
			</g>
			<circle
   stroke-miterlimit="10"
   cx="974.74701"
   cy="147.463"
   r="12.186"
   id="circle1457"
   style="fill:#fcc00e;stroke:#795649;stroke-miterlimit:10" />
		</g>
	</g>
	<g
   id="g1465">
		<path
   stroke-miterlimit="10"
   d="m 930.298,110.578 c 0.997,0 2.035,3.983 2.988,3.953 0.996,-0.032 1.771,-4.075 2.72,-4.138 0.995,-0.067 2.309,3.834 3.253,3.734 0.993,-0.105 1.452,-4.195 2.391,-4.335 0.989,-0.148 2.631,3.626 3.562,3.442 0.982,-0.194 1.053,-4.309 1.972,-4.541 0.97,-0.245 2.997,3.336 3.9,3.051 0.955,-0.301 0.549,-4.396 1.431,-4.737 0.934,-0.362 3.402,2.93 4.257,2.528 0.906,-0.426 -0.07,-4.423 0.752,-4.89 0.871,-0.495 3.813,2.378 4.594,1.844 0.826,-0.565 -0.799,-4.345 -0.067,-4.948 0.771,-0.635 4.173,1.672 4.846,1.003 0.707,-0.704 -1.588,-4.118 -0.982,-4.848 0.636,-0.767 4.414,0.852 4.946,0.066 0.56,-0.826 -2.345,-3.74 -1.89,-4.573 0.479,-0.876 4.494,0.001 4.87,-0.867 0.398,-0.92 -2.992,-3.256 -2.696,-4.149 0.318,-0.961 4.425,-0.805 4.643,-1.713 0.239,-0.998 -3.498,-2.729 -3.358,-3.632 0.162,-1.044 2.219,0.291 2.283,-0.583 0.064,0.875 2.169,-0.459 2.332,0.588 0.14,0.903 -3.597,2.635 -3.357,3.633 0.217,0.906 4.324,0.748 4.642,1.708 0.296,0.893 -3.094,3.229 -2.696,4.149 0.376,0.869 4.391,-0.009 4.87,0.867 0.456,0.833 -2.449,3.747 -1.89,4.573 0.533,0.786 4.311,-0.833 4.947,-0.065 0.606,0.731 -1.689,4.145 -0.981,4.849 0.672,0.668 4.074,-1.639 4.845,-1.004 0.731,0.602 -0.894,4.382 -0.069,4.946 0.781,0.535 3.723,-2.339 4.594,-1.844 0.823,0.467 -0.153,4.464 0.753,4.891 0.855,0.402 3.322,-2.89 4.256,-2.528 0.881,0.341 0.476,4.436 1.43,4.737 0.902,0.284 2.929,-3.297 3.899,-3.051 0.919,0.232 0.991,4.347 1.972,4.541 0.929,0.184 2.571,-3.59 3.558,-3.443 0.939,0.14 1.398,4.23 2.391,4.336 0.945,0.1 2.261,-3.8 3.256,-3.733 0.95,0.064 1.725,4.107 2.722,4.139 0.953,0.031 1.992,-3.953 2.989,-3.953"
   id="path1463"
   inkscape:connector-curvature="0"
   style="fill:none;stroke:#fcc00e;stroke-width:2;stroke-linecap:round;stroke-linejoin:round;stroke-miterlimit:10" />
	</g>
	<path
   stroke-miterlimit="10"
   d="m 1011.078,69.388 c -5.853,-7.364 -8.43,-16.912 -6.272,-26.069 0.541,-2.296 0.827,-4.69 0.827,-7.151 0,-17.179 -13.926,-31.096 -31.103,-31.101 v 0 h -0.004 -0.004 v 0 c -17.177,0.005 -31.103,13.922 -31.103,31.101 0,2.461 0.286,4.855 0.827,7.151 2.158,9.156 -0.419,18.704 -6.272,26.069 -6.758,8.502 -10.611,19.415 -10.059,31.242 0.194,4.144 0.949,8.147 2.17,11.948 37.875,-0.005 43.71,-22.425 44.44,-32.334 0.73,9.91 6.565,32.329 44.44,32.334 1.221,-3.801 1.977,-7.804 2.17,-11.948 0.555,-11.827 -3.299,-22.74 -10.057,-31.242 z"
   id="path1467"
   inkscape:connector-curvature="0"
   style="fill:#fcc00e;stroke:#795649;stroke-width:2;stroke-miterlimit:10" />
	<g
   id="g1471"
   style="opacity:0.1">
		<path
   d="m 1010.346,69.336 c -5.932,-7.441 -8.232,-17.067 -6.153,-26.353 0.63,-2.815 0.879,-5.775 0.687,-8.822 -0.969,-15.414 -13.387,-27.939 -28.793,-29.024 -4.236,-0.298 -8.303,0.261 -12.057,1.507 11.746,3.921 20.446,14.72 21.251,27.517 0.192,3.047 -0.057,6.007 -0.687,8.822 -2.079,9.286 0.222,18.912 6.153,26.353 6.354,7.971 10.152,18.068 10.152,29.055 0,22.399 -15.781,41.109 -36.831,45.626 2.457,0.527 4.979,0.871 7.558,0.99 26.777,1.233 48.873,-20.111 48.873,-46.616 0,-10.987 -3.799,-21.084 -10.153,-29.055 z"
   id="path1469"
   inkscape:connector-curvature="0"
   style="fill:#263239" />
	</g>
	<g
   id="g1527">
		<g
   id="g1489">
			<defs
   id="defs1474">
				<circle
   id="XMLID_11_"
   cx="974.73798"
   cy="36.168999"
   r="23.333" />
			</defs>
			<use
   xlink:href="#XMLID_11_"
   overflow="visible"
   id="use1476"
   style="overflow:visible;fill:#facbbd"
   x="0"
   y="0"
   width="100%"
   height="100%" />
			<clipPath
   id="XMLID_50_">
				<use
   xlink:href="#XMLID_11_"
   overflow="visible"
   id="use1478"
   style="overflow:visible"
   x="0"
   y="0"
   width="100%"
   height="100%" />
			</clipPath>
			<g
   clip-path="url(#XMLID_50_)"
   id="g1485">
				<circle
   cx="955.67297"
   cy="49.876999"
   r="4.6669998"
   id="circle1481"
   style="fill:#f5a992" />
				<circle
   cx="993.80402"
   cy="49.876999"
   r="4.6669998"
   id="circle1483"
   style="fill:#f5a992" />
			</g>
			<use
   xlink:href="#XMLID_11_"
   overflow="visible"
   stroke-miterlimit="10"
   id="use1487"
   style="overflow:visible;fill:none;stroke:#795649;stroke-width:2;stroke-miterlimit:10"
   x="0"
   y="0"
   width="100%"
   height="100%" />
		</g>
		<g
   id="g1503">
			<g
   id="g1495">
				<circle
   cx="961.78101"
   cy="40.362999"
   r="4.638"
   id="circle1491"
   style="fill:#795649" />
				<path
   d="m 966.337,39.494 c 0,0 -1.392,-6.887 -9.851,-2.181 0,0 7.023,-1.214 9.851,2.181 z"
   id="path1493"
   inkscape:connector-curvature="0"
   style="fill:#795649" />
			</g>
			<g
   id="g1501">
				<circle
   cx="987.69598"
   cy="40.362999"
   r="4.638"
   id="circle1497"
   style="fill:#795649" />
				<path
   d="m 983.14,39.494 c 0,0 1.392,-6.887 9.851,-2.181 0,0 -7.023,-1.214 -9.851,2.181 z"
   id="path1499"
   inkscape:connector-curvature="0"
   style="fill:#795649" />
			</g>
		</g>
		<path
   stroke-miterlimit="10"
   d="m 969.294,44.646 c 0,4.296 2.438,7.778 5.444,7.778 3.006,0 5.444,-3.482 5.444,-7.778 z"
   id="path1505"
   inkscape:connector-curvature="0"
   style="fill:#fce9e7;stroke:#795649;stroke-miterlimit:10" />
		<path
   stroke-miterlimit="10"
   d="m 961.781,16.83 c 0,0 10.193,19.339 36.206,17.36 C 996.656,19.641 979.448,6.03 961.781,16.83 Z"
   id="path1507"
   inkscape:connector-curvature="0"
   style="fill:#8e6f64;stroke:#795649;stroke-width:2;stroke-miterlimit:10" />
		<path
   stroke-miterlimit="10"
   d="m 969.294,13.478 c 0,0 0,20.712 -17.859,20.712 0,0 0.51,-15.792 17.859,-20.712 z"
   id="path1509"
   inkscape:connector-curvature="0"
   style="fill:#8e6f64;stroke:#795649;stroke-width:2;stroke-miterlimit:10" />
		<path
   stroke-miterlimit="10"
   d="m 951.861,31.296 c 0,0 12.079,-0.273 14.049,-16.731"
   id="path1511"
   inkscape:connector-curvature="0"
   style="fill:none;stroke:#795649;stroke-miterlimit:10" />
		<path
   stroke-miterlimit="10"
   d="m 953.094,27.358 c 0,0 6.898,-1.236 8.317,-10.283"
   id="path1513"
   inkscape:connector-curvature="0"
   style="fill:none;stroke:#795649;stroke-miterlimit:10" />
		<path
   stroke-miterlimit="10"
   d="m 968.404,19.297 c 0,0 12.658,12.915 28.799,10.835"
   id="path1515"
   inkscape:connector-curvature="0"
   style="fill:none;stroke:#795649;stroke-miterlimit:10" />
		<path
   stroke-miterlimit="10"
   d="m 969.294,14.564 c 0,0 13.332,12.794 26.495,11.947"
   id="path1517"
   inkscape:connector-curvature="0"
   style="fill:none;stroke:#795649;stroke-miterlimit:10" />
		<path
   stroke-miterlimit="10"
   d="m 973.991,12.954 c 0,0 8.473,8.113 19.111,9.262"
   id="path1519"
   inkscape:connector-curvature="0"
   style="fill:none;stroke:#795649;stroke-miterlimit:10" />
		<circle
   cx="959.82703"
   cy="17.094999"
   r="4.1999998"
   id="circle1521"
   style="opacity:0.8;fill:#ffffff" />
		<circle
   cx="953.65503"
   cy="23.677"
   r="2.8"
   id="circle1523"
   style="opacity:0.8;fill:#ffffff" />
		<circle
   cx="960.25299"
   cy="25.299"
   r="1.4"
   id="circle1525"
   style="opacity:0.8;fill:#ffffff" />
	</g>
	
		<line
   stroke-miterlimit="10"
   x1="974.56201"
   y1="79.776001"
   x2="974.56201"
   y2="59.501999"
   id="line1529"
   style="fill:#f6bbd0;stroke:#795649;stroke-width:2;stroke-linecap:round;stroke-linejoin:round;stroke-miterlimit:10" />
	<g
   id="g1537">
		<path
   stroke-miterlimit="10"
   d="m 974.562,63.391 c 0,0 -15.944,-6.417 -21,9.917 0,-0.001 15.361,3.888 21,-9.917 z"
   id="path1531"
   inkscape:connector-curvature="0"
   style="fill:#e9453a;stroke:#795649;stroke-linecap:round;stroke-linejoin:round;stroke-miterlimit:10" />
		<path
   stroke-miterlimit="10"
   d="m 974.562,63.391 c 0,0 15.944,-6.417 21,9.917 0,-0.001 -15.361,3.888 -21,-9.917 z"
   id="path1533"
   inkscape:connector-curvature="0"
   style="fill:#e9453a;stroke:#795649;stroke-linecap:round;stroke-linejoin:round;stroke-miterlimit:10" />
		
			<circle
   stroke-miterlimit="10"
   cx="974.56201"
   cy="63.390999"
   r="2.9170001"
   id="circle1535"
   style="fill:#e9453a;stroke:#795649;stroke-linecap:round;stroke-linejoin:round;stroke-miterlimit:10" />
	</g>
</g>

<g
   id="g1938"
   transform="translate(-925.85739,-3.058)">
</g>
<g
   id="g1940"
   transform="translate(-925.85739,-3.058)">
</g>
<g
   id="g1942"
   transform="translate(-925.85739,-3.058)">
</g>
<g
   id="g1944"
   transform="translate(-925.85739,-3.058)">
</g>
<g
   id="g1946"
   transform="translate(-925.85739,-3.058)">
</g>
<g
   id="g1948"
   transform="translate(-925.85739,-3.058)">
</g>
</svg>