<?xml version="1.0" encoding="UTF-8" standalone="no"?>
<svg
   xmlns:dc="http://purl.org/dc/elements/1.1/"
   xmlns:cc="http://creativecommons.org/ns#"
   xmlns:rdf="http://www.w3.org/1999/02/22-rdf-syntax-ns#"
   xmlns:svg="http://www.w3.org/2000/svg"
   xmlns="http://www.w3.org/2000/svg"
   xmlns:sodipodi="http://sodipodi.sourceforge.net/DTD/sodipodi-0.dtd"
   xmlns:inkscape="http://www.inkscape.org/namespaces/inkscape"
   inkscape:version="1.0 (4035a4fb49, 2020-05-01)"
   sodipodi:docname="1.svg"
   xml:space="preserve"
   enable-background="new 0 0 800 400"
   viewBox="0 0 246.92247 388.56259"
   height="388.56259"
   width="246.92247"
   y="0px"
   x="0px"
   id="Слой_1"
   version="1.1"><metadata
   id="metadata627"><rdf:RDF><cc:Work
       rdf:about=""><dc:format>image/svg+xml</dc:format><dc:type
         rdf:resource="http://purl.org/dc/dcmitype/StillImage" /><dc:title></dc:title></cc:Work></rdf:RDF></metadata><defs
   id="defs625" /><sodipodi:namedview
   inkscape:current-layer="Слой_1"
   inkscape:window-maximized="1"
   inkscape:window-y="-8"
   inkscape:window-x="-8"
   inkscape:cy="194.1802"
   inkscape:cx="330.96489"
   inkscape:zoom="1.4375"
   fit-margin-bottom="0"
   fit-margin-right="0"
   fit-margin-left="0"
   fit-margin-top="0"
   showgrid="false"
   id="namedview623"
   inkscape:window-height="1017"
   inkscape:window-width="1920"
   inkscape:pageshadow="2"
   inkscape:pageopacity="0"
   guidetolerance="10"
   gridtolerance="10"
   objecttolerance="10"
   borderopacity="1"
   bordercolor="#666666"
   pagecolor="#ffffff" />
<g
   transform="translate(-69.035111,-5.8198022)"
   id="g314">
	<polygon
   id="polygon2"
   points="171.144,182.142 158.504,208.165 172.631,218.76 209.991,221.176 237.873,217.087 244.378,196.083 229.694,153.89 220.029,148.685 203.3,148.685 193.82,150.916 "
   fill="#ffffff" />
	<path
   id="path4"
   d="m 229.198,387.47 c 0,0 2.602,3.594 5.204,4.709 2.602,1.115 15.49,1.362 18.216,1.115 2.727,-0.248 7.435,-0.497 8.178,-2.23 0.743,-1.735 0.743,-4.338 0.743,-4.338 l -4.584,-3.594 -24.784,-0.743 z"
   fill="#b6cbd8" />
	<path
   id="path6"
   d="m 238.616,358.351 c 0,0 -4.958,10.904 -6.816,15.117 -1.859,4.214 -3.716,8.055 -4.213,9.665 -0.495,1.612 0.867,3.471 0.867,3.471 0,0 4.956,1.982 13.011,2.106 8.055,0.125 16.357,-0.619 16.357,-0.619 0,0 4.584,-0.123 5.204,-6.196 0.62,-6.071 -3.717,-19.083 -4.708,-23.543 -0.991,-4.462 -18.587,-5.206 -19.702,-10e-4 z"
   fill="#ffffff" />
	<path
   id="path8"
   d="m 146.918,348.685 c 0,0 -0.123,1.239 0.496,2.354 0.619,1.115 1.487,0.619 2.478,-0.248 0.991,-0.867 17.1,-13.383 17.1,-13.383 l 18.835,-14.745 3.346,-3.099 -0.62,-3.346 -1.239,-3.346 -34.82,21.933 z"
   fill="#b6cbd8" />
	<path
   id="path10"
   d="m 158.814,312.006 c 0,0 -5.452,12.886 -6.939,16.48 -1.487,3.594 -5.576,12.019 -8.178,14.126 -2.602,2.107 -2.974,3.222 -0.743,5.453 2.231,2.231 4.461,0.62 4.461,0.62 l 13.878,-11.152 14.994,-12.393 9.542,-7.682 2.23,-2.602 c 0,0 -1.487,-5.701 -6.32,-10.162 -4.833,-4.461 -6.815,-4.336 -6.815,-4.336 l -15.861,10.161 z"
   fill="#ffffff" />
	<path
   id="path12"
   d="m 159.805,309.032 -0.124,2.974 c 0,0 2.602,2.974 9.541,0.123 6.939,-2.849 7.064,-7.683 6.444,-9.665 -0.62,-1.982 -9.79,-0.495 -9.79,-0.495 z"
   fill="#f7cb9b" />
	<path
   id="path14"
   d="m 143.201,208.165 c 0,0 -8.426,-3.966 -21.313,0.991 -12.887,4.957 -13.135,16.357 -13.383,22.058 -0.248,5.7 9.17,26.766 14.87,35.688 5.7,8.922 32.962,35.935 32.962,35.935 l 0.496,7.746 3.903,-1.301 c 0,0 16.357,-7.807 16.914,-7.993 0.557,-0.186 1.301,-3.16 1.301,-4.275 0,-1.115 -0.929,-4.647 -2.416,-5.576 -1.487,-0.929 -1.859,-4.089 -1.859,-4.089 l -3.16,-15.985 -2.416,-15.613 1.115,-2.23 c 0,0 11.152,10.967 25.651,15.242 0,0 6.877,21.19 10.037,28.81 3.16,7.62 11.71,26.208 16.729,34.015 5.019,7.807 13.383,21.004 13.383,21.004 l -1.115,3.346 c 0,0 6.506,3.16 15.056,3.532 8.55,0.372 13.941,-2.602 13.941,-2.602 l -1.673,-2.974 c 0,0 4.647,-2.23 2.602,-6.691 -2.045,-4.461 -2.602,-8.736 -2.602,-8.736 l 4.833,-38.29 4.089,-48.513 3.532,-31.97 -2.788,-5.204 -44.424,-1.673 -31.227,-2.417 -30.669,-4.647 z"
   fill="#f9b000" />
	<path
   id="path16"
   d="m 220.772,155.562 8.736,32.9 6.506,28.067 3.717,10.781 33.085,-8.736 5.576,-1.301 -7.063,-25.465 -5.762,-21.004 c 0,0 10.781,8.178 15.242,11.896 4.461,3.717 13.383,8.736 19.331,7.621 5.948,-1.115 5.204,-7.993 5.204,-11.152 0,-3.16 0,-26.208 0,-26.208 l 0.743,-20.818 -0.929,-2.974 -4.089,-0.743 -47.955,-2.416 -36.617,9.851 z"
   fill="#f9b000" />
	<path
   id="path18"
   d="m 180.995,131.213 c 0,0 -5.019,0.186 -11.71,3.532 -6.691,3.346 -15.799,7.621 -15.799,7.621 l -21.19,6.691 h -9.108 l -25.093,5.39 -1.673,4.833 4.089,14.498 c 0,0 2.23,3.903 12.825,5.948 10.595,2.045 32.714,-1.487 32.714,-1.487 l 6.134,-1.115 -5.948,10.409 h -1.487 l -2.045,2.23 0.743,0.929 0.372,0.743 -8.364,15.799 c 0,0 16.914,2.416 29.554,8.551 l 13.755,-29.926 16.729,-28.81 3.16,-6.134 -1.487,-10.967 z"
   fill="#f9b000" />
	<path
   id="path20"
   d="m 165.753,50.544 c 0,0 7.249,-4.461 13.755,-5.948 l 4.833,-9.294 c 0,0 5.204,-14.684 5.948,-16.171 0.743,-1.487 5.762,-8.55 14.126,-11.338 8.364,-2.788 21.19,0.929 23.235,11.152 0,0 5.576,-5.204 16.543,-5.204 10.967,0 20.446,4.647 23.234,17.1 2.788,12.454 -0.743,26.952 -0.743,26.952 0,0 6.877,7.621 12.825,15.799 5.948,8.178 6.506,14.126 6.506,14.126 l -5.39,4.647 z"
   fill="#13a538" />
	<path
   id="path22"
   d="m 165.568,52.031 c 0,0 4.877,-4.15 18.278,-0.496 10.904,2.974 13.383,10.904 21.313,12.887 6.788,1.697 23.978,-1.239 45.168,-0.496 21.19,0.743 28.253,5.204 32.156,14.87 l 4.213,9.665 c 0,0 -3.717,11.4 -5.453,17.844 0,0 -16.852,3.965 -18.834,5.452 -1.984,1.487 -3.719,4.461 0.99,7.93 0,0 -3.221,1.239 -3.469,4.957 -0.248,3.717 2.974,5.7 2.974,5.7 l -2.23,2.974 c 0,0 -20.571,5.7 -25.527,6.939 0,0 -14.126,0 -17.1,1.487 -2.974,1.487 -9.913,2.478 -15.613,1.487 -5.7,-0.991 -13.63,-3.965 -18.587,-8.922 -4.957,-4.957 -19.827,-22.305 -21.066,-23.544 -1.239,-1.239 -13.135,-32.714 -13.135,-32.714 0,0 1.857,-19.577 15.922,-26.02 z"
   fill="#cee4c6" />
	<path
   id="path24"
   d="m 140.227,81.399 c 0,0 5.576,-4.337 15.49,-0.867 9.913,3.47 13.754,18.959 9.417,24.039 -4.337,5.081 -10.533,-1.611 -10.533,-1.611 z"
   fill="#c8d3d9" />
	<path
   id="path26"
   d="m 132.544,85.116 3.346,-2.974 c 0,0 11.524,-2.478 19.95,4.585 8.426,7.063 9.417,17.844 8.922,21.933 -0.496,4.089 -6.443,2.974 -6.443,2.974 z"
   fill="#93a7b2" />
	<path
   id="path28"
   d="m 129.88,90.321 v -3.346 c 0,0 5.019,-4.461 17.286,-0.558 12.268,3.903 14.684,17.844 14.684,17.844 0,0 -0.31,9.356 -1.177,10.223 -0.867,0.867 -5.576,3.098 -5.576,3.098 l 0.124,-1.115 z"
   fill="#b6c0c6" />
	<path
   id="path30"
   d="m 222.445,24.893 c 0,0 -2.23,-6.877 -9.294,-9.294 -7.063,-2.416 -14.87,2.974 -18.587,10.409 -3.717,7.435 -3.903,18.587 -3.903,18.587 l 8.364,1.859 15.799,-8.178 c 0,0 4.09,-10.223 7.621,-13.383 z"
   fill="#ffffff" />
	<path
   id="path32"
   d="m 222.817,39.577 c 0,0 3.346,-11.524 10.223,-15.056 6.877,-3.532 17.658,-3.346 23.42,2.788 5.762,6.134 2.974,20.818 2.974,20.818 0,0 -2.045,7.249 -5.948,10.223 0,0 -20.26,-4.647 -23.42,-5.576 -3.16,-0.929 -7.249,-13.197 -7.249,-13.197 z"
   fill="#ffffff" />
	<path
   id="path34"
   d="m 165.382,72.105 2.23,-5.576 c 0,0 13.011,7.993 29.368,12.639 16.357,4.646 48.327,9.851 72.119,4.089 l 1.859,5.762 c 0,0 -8.736,17.1 -31.784,28.625 0,0 -1.115,-7.621 -12.082,-11.338 -10.967,-3.717 -17.101,-2.045 -18.774,0.186 0,0 -3.532,-6.506 -15.242,-4.461 -11.71,2.045 -12.825,8.736 -12.825,8.736 0,0 -5.576,-10.595 -7.807,-15.056 -2.231,-4.461 -7.062,-23.606 -7.062,-23.606 z"
   fill="#00702f" />
	<path
   id="path36"
   d="m 180.252,110.767 c 0,0 2.23,-6.134 11.71,-8.55 9.48,-2.416 15.799,2.974 16.357,4.275 0,0 3.903,-4.833 15.056,-1.487 11.152,3.346 15.056,8.922 15.799,12.639 0,0 -13.011,6.877 -23.792,9.665 -10.781,2.788 -18.773,-0.186 -24.349,-4.647 -5.577,-4.46 -10.781,-11.895 -10.781,-11.895 z"
   fill="#00974d" />
	<polygon
   id="polygon38"
   points="200.883,49.429 174.861,26.195 213.709,38.276 262.966,46.269 261.664,47.384 219.099,52.217 213.709,45.711 211.292,45.154 "
   fill="#009fe3" />
	<path
   id="path40"
   d="m 301.999,134.93 c 0,0 -1.673,8.736 -9.108,11.896 -7.435,3.16 -11.71,1.487 -16.357,-1.301 -4.647,-2.788 -14.126,-7.249 -14.126,-7.249 0,0 -1.487,-2.602 -1.115,-3.903 0.372,-1.301 1.115,-4.275 1.115,-4.275 0,0 -2.974,-2.23 -2.788,-4.647 0.186,-2.416 2.974,-5.39 2.974,-5.39 0,0 -1.487,-1.673 -1.487,-5.39 0,-3.717 7.063,-5.204 7.063,-5.204 l 14.312,-3.346 c 0,0 0.743,-16.171 7.621,-24.349 6.878,-8.178 10.967,-10.223 17.472,-7.621 6.506,2.602 6.877,7.807 5.762,10.409 -1.115,2.602 -5.576,5.39 -7.621,6.32 -2.045,0.929 -5.948,4.833 -7.993,12.082 -2.045,7.249 2.788,13.569 2.788,13.569 0,0 2.231,13.195 1.488,18.399 z"
   fill="#13a538" />
	<path
   id="path42"
   d="m 132.854,128.239 c 0,0 2.974,-3.346 2.045,-5.576 -0.929,-2.23 -7.249,-9.851 -8.178,-11.152 -0.929,-1.301 -5.762,-5.019 -11.152,0.558 0,0 -1.301,0 -5.39,1.487 -4.089,1.487 -5.204,5.39 -5.204,5.39 0,0 -3.717,-2.602 -9.108,6.134 -5.39,8.736 -5.39,16.543 -2.23,22.491 3.16,5.948 9.108,8.922 16.729,8.55 7.621,-0.372 14.87,-5.948 14.87,-5.948 0,0 2.045,2.974 5.204,1.301 3.16,-1.673 4.647,-8.55 4.647,-8.55 0,0 3.532,-7.807 3.717,-9.665 0.184,-1.86 -1.489,-4.648 -5.95,-5.02 z"
   fill="#13a538" />
	<path
   id="path44"
   d="m 188.988,206.492 c 0,0 -12.825,-1.487 -19.331,-2.23 l -2.788,7.249 c 0,0 11.71,2.416 22.119,3.346 z"
   fill="#bb833a" />
	<path
   id="path46"
   d="m 210.177,208.35 c 0,0 16.543,1.859 24.35,2.045 l 1.673,7.807 c 0,0 -15.427,-0.558 -26.394,-1.673 z"
   fill="#bb833a" />
	<path
   id="path48"
   d="m 186.943,136.417 c 0,0 -4.275,-1.115 -4.461,1.487 -0.186,2.602 0,15.242 0,15.242 0,0 0.558,1.859 2.974,1.487 2.416,-0.372 17.1,-3.717 17.1,-3.717 0,0 0.743,2.23 5.019,2.416 4.275,0.186 4.833,-1.487 4.833,-1.487 0,0 12.826,4.461 16.357,5.762 3.531,1.301 8.364,2.974 8.364,-0.372 0,-3.346 -0.743,-11.71 -0.743,-11.71 l -0.186,-5.019 c 0,0 -1.115,-1.301 -3.903,-1.115 -2.788,0.186 -13.383,2.416 -14.498,2.788 -1.116,0.372 -4.647,0.929 -4.647,0.929 0,0 -6.568,0.248 -10.719,0.124 -4.152,-0.123 -12.516,-3.841 -15.49,-6.815 z"
   fill="#e30613" />
	<path
   id="path50"
   d="m 129.508,110.953 c 0,0 -8.178,-12.454 0.743,-21.375 0,0 10.037,-5.019 20.632,3.16 10.595,8.178 8.55,20.446 3.346,24.721 -5.204,4.275 -16.357,-0.558 -16.357,-0.558 0,0 2.974,-4.089 -0.372,-7.435 -3.345,-3.346 -6.877,-0.558 -7.992,1.487 z"
   fill="#c8d3d9" />
	<path
   id="path52"
   d="m 128.021,112.626 4.089,-3.903 c 0,0 3.346,-1.487 6.32,1.859 2.974,3.346 0.558,6.506 0,6.691 -0.558,0.186 -4.461,4.461 -4.461,4.461 z"
   fill="#c8d3d9" />
	<path
   id="path54"
   d="m 105.716,133.629 -13.755,14.126 -0.743,3.532 c 0,0 4.151,-0.496 5.514,0.496 1.363,0.991 1.611,2.355 1.115,2.478 -0.496,0.123 -3.841,1.239 -3.841,1.239 0,0 1.983,2.355 3.594,3.594 1.611,1.239 3.594,0.868 5.948,-1.611 2.354,-2.478 12.763,-16.109 12.763,-16.109 z"
   fill="#c8d3d9" />
	<path
   id="path56"
   d="m 91.28,151.907 c 0,0 0.372,-3.346 0.743,-3.717 0.372,-0.372 3.222,-1.983 7.807,1.239 4.585,3.222 4.337,7.435 4.337,7.435 l -2.478,2.354 c 0,0 -7.311,0.372 -7.807,-3.222 z"
   fill="#a6aeb3" />
	<path
   id="path58"
   d="m 97.476,154.385 c -1.983,0.248 -7.93,2.602 -7.93,2.602 0,0 3.222,7.931 -1.363,11.4 -4.585,3.47 -9.046,0.372 -9.046,0.372 -0.991,1.115 -2.974,7.807 -3.098,9.417 -0.124,1.611 -3.098,1.983 -4.461,0.372 -1.363,-1.611 -2.107,-3.222 -0.62,-7.063 1.487,-3.841 6.072,-8.674 6.072,-8.674 0,0 0.743,-3.469 4.461,-6.443 3.717,-2.974 11.896,-5.081 11.896,-5.081 3.717,0.248 6.072,2.851 4.089,3.098 z m -11.896,5.081 c 0,0 -2.726,1.735 -2.726,2.974 0,1.239 2.974,3.222 3.965,0.496 0.991,-2.727 -1.239,-3.47 -1.239,-3.47 z"
   fill="#a6aeb3" />
	<path
   id="path60"
   d="m 176.906,204.075 -2.695,-0.093 c 0,0 -3.346,3.81 -1.673,9.015 l 1.208,0.743 1.859,-0.279 c 0,10e-4 0.836,-7.248 1.301,-9.386 z"
   fill="#f9b000" />
	<path
   id="path62"
   d="m 181.553,204.261 c 0,0 -2.416,4.461 -0.558,10.688 l 2.23,0.186 c 0,0 -0.186,-6.32 1.766,-10.13 z"
   fill="#f9b000" />
	<path
   id="path64"
   d="m 216.869,207.886 c 0,0 1.58,4.554 0,9.387 l 2.881,0.279 c 0,0 0.558,-6.227 -0.465,-9.573 0,0 -2.231,-0.558 -2.416,-0.093 z"
   fill="#f9b000" />
	<path
   id="path66"
   d="m 222.817,208.443 c 0,0 0.372,5.67 -0.279,9.48 h 3.346 c 0,0 2.138,-5.112 0.186,-8.736 z"
   fill="#f9b000" />
	<polygon
   id="polygon68"
   points="189.421,215.6 201.441,216.839 209,217.459 209.805,216.529 210.611,208.536 209.62,207.421 198.219,206.678 190.165,205.934 189.669,206.553 189.297,209.652 "
   fill="#ffed00" />
	<g
   id="g74">
		<path
   id="path70"
   d="m 275.769,69.295 c -7.458,-3.981 -19.075,-5.232 -24.101,-5.598 0.675,0.868 1.29,1.809 1.818,2.832 5.576,10.781 -2.602,17.844 -2.602,17.844 0,0 15.985,0.743 18.216,-1.115 l 1.859,6.691 c 0,0 -13.011,17.844 -28.996,27.509 0,0 -3.717,14.498 -9.665,21.933 l 3.903,1.115 c 0,0 19.02,-4.461 26.208,-10.409 0,0 -3.469,-3.222 -2.479,-5.948 0.992,-2.726 2.665,-4.089 2.665,-4.089 0,0 -2.665,-4.09 -1.178,-6.568 1.487,-2.478 4.709,-2.974 4.709,-2.974 l 16.109,-4.957 3.966,-16.357 C 286.2,89.206 280.374,75.809 275.769,69.295 Z"
   fill="#adcca5" />
		<path
   id="path72"
   d="m 274.056,67.149 c -4.709,-4.957 -25.03,-12.144 -41.016,-13.259 0,0 12.182,1.524 18.628,9.808 5.026,0.366 16.643,1.617 24.101,5.598 -0.595,-0.845 -1.173,-1.579 -1.713,-2.147 z"
   fill="#009338" />
	</g>
	<path
   id="path76"
   d="m 248.033,15.352 c 0,0 11.648,5.452 11.401,8.922 -0.248,3.47 -2.974,3.036 -2.974,3.036 0,0 6.195,7.868 3.717,17.782 l 2.788,1.177 -3.036,1.549 c 0,0 -2.974,7.435 -6.443,10.656 l 1.239,2.726 20.323,5.204 -8.922,-8.426 c 0,0 2.726,-16.852 1.734,-26.022 -0.991,-9.169 -7.683,-18.091 -19.827,-16.604 z"
   fill="#009338" />
	<path
   id="path78"
   d="m 212.841,8.165 c 0,0 3.469,2.23 -2.974,6.691 0,0 8.922,1.239 12.392,10.904 l 5.39,-6.815 c 0.001,0 -1.921,-10.037 -14.808,-10.78 z"
   fill="#009338" />
	<path
   id="path80"
   d="m 282.729,149.924 c 0,0 3.471,1.735 6.94,2.23 3.469,0.496 7.435,3.965 7.93,9.913 0.497,5.948 0.992,19.579 -1.239,21.809 -2.23,2.23 -6.196,2.726 -6.196,2.726 0,0 2.479,2.478 7.932,3.222 5.451,0.743 8.425,-2.479 7.682,-7.187 -0.743,-4.708 -0.495,-29.74 -0.495,-33.953 0,-4.213 0.867,-15.49 0.806,-16.543 -0.062,-1.053 -2.788,-3.284 -2.788,-3.284 0,0 -0.745,-0.744 -1.24,1.735 -0.495,2.478 0.992,9.17 -4.956,13.631 -5.948,4.461 -15.862,3.47 -15.862,3.47 0,0 -0.744,1.24 1.486,2.231 z"
   fill="#e78f00" />
	<path
   id="path82"
   d="m 240.847,139.515 c 0,0 11.152,-1.487 14.622,0.248 3.469,1.735 18.092,13.135 19.331,14.374 1.239,1.239 0.992,5.7 0.248,7.435 -0.743,1.735 -2.479,6.196 -2.479,6.196 l 7.435,-6.939 1.239,-13.135 c 0,0 -11.399,-4.957 -14.622,-6.691 -3.222,-1.735 -4.956,-1.735 -4.956,-4.709 0,-2.974 -1.24,-3.717 -1.24,-3.717 0,0 -16.853,4.708 -19.578,6.938 z"
   fill="#e78f00" />
	<path
   id="path84"
   d="m 276.038,164.546 c 0,0 -2.974,2.974 -0.743,6.691 2.23,3.717 5.701,4.956 5.701,4.956 0,0 -2.727,-6.443 -2.727,-8.178 0,-1.735 0,-6.443 0,-6.443 z"
   fill="#e78f00" />
	<path
   id="path86"
   d="m 256.212,144.72 c 0,0 3.717,28.253 4.461,35.192 0.743,6.939 -0.992,14.622 -0.992,14.622 0,0 -2.23,2.23 -0.99,2.23 1.239,0 1.239,4.461 -0.248,5.205 l 3.469,-0.743 c 0,0 0.992,4.213 0.248,4.213 -0.744,0 -2.974,0.496 -2.23,0.496 0.744,0 2.23,5.453 0.743,15.365 l 17.72,-4.027 -10.781,-38.104 -7.932,-28.005 c 10e-4,0 -2.228,-5.453 -3.468,-6.444 z"
   fill="#e78f00" />
	<path
   id="path88"
   d="m 152.618,176.442 c 0,0 20.57,-32.218 21.313,-32.714 0.743,-0.496 -2.478,-0.248 -5.452,2.974 -2.974,3.222 -7.931,9.417 -7.435,7.93 0.496,-1.487 2.726,-4.213 0,-4.956 -2.726,-0.743 -3.717,2.726 -4.461,5.452 -0.743,2.726 -7.931,7.93 -14.126,8.922 -6.196,0.991 -8.922,2.231 -9.665,1.239 -0.743,-0.991 -1.487,-6.196 -1.983,-6.939 -0.496,-0.743 -0.991,-5.452 -1.735,-1.487 -0.743,3.965 -0.991,9.417 -3.717,11.648 -2.726,2.23 -9.418,2.726 -10.409,1.239 -0.991,-1.487 -3.717,-13.631 -3.717,-13.631 l -5.948,0.496 -3.222,3.222 -5.638,-0.558 c 0,0 3.159,12.454 7.373,17.162 4.213,4.709 18.092,3.717 23.296,3.717 5.204,0 25.526,-3.716 25.526,-3.716 z"
   fill="#e78f00" />
	<path
   id="path90"
   d="m 236.2,218.202 -9.728,-0.868 -0.588,0.59 -3.439,0.465 0.186,-0.929 -2.881,0.093 -0.465,0.093 -1.859,-0.186 -0.558,-0.186 -3.903,-0.743 h -3.16 c 0,0 0.062,1.796 -0.929,1.548 -0.991,-0.247 24.164,10.162 28.625,15.738 4.461,5.576 9.294,21.561 10.409,43.866 1.115,22.305 1.859,45.353 2.974,47.212 1.115,1.859 -2.974,3.346 -1.859,4.833 1.115,1.487 2.602,9.294 1.859,12.268 -0.743,2.974 -5.204,2.602 -2.602,6.32 2.602,3.718 3.346,9.665 -0.372,10.037 0,0 5.328,0.247 9.789,0.247 4.461,0 6.691,-0.495 6.196,-1.734 -0.497,-1.24 -1.673,-2.974 -1.673,-2.974 0,0 2.788,-4.709 2.602,-6.691 -0.186,-1.984 -2.665,-7.932 -2.665,-7.932 l 5.7,-48.822 6.073,-72.242 -34.201,9.108 z"
   fill="#ec9700" />
	<path
   id="path92"
   d="m 157.575,239.639 c 0,0 -13.63,-7.187 -16.357,-8.674 -2.726,-1.487 1.239,3.469 5.452,11.401 4.213,7.93 16.604,29.988 18.339,34.696 1.735,4.709 -1.487,5.204 0.991,9.914 2.478,4.708 4.461,9.417 4.709,10.656 0.248,1.24 0.248,6.196 0.248,6.196 0,0 7.435,-1.982 7.683,-3.469 0.248,-1.487 0,-2.727 0,-2.727 0,0 0.991,-3.717 -0.743,-4.708 -1.735,-0.992 -2.478,-2.727 -2.478,-2.727 l -3.222,-13.383 -3.222,-24.535 z"
   fill="#ec9700" />
	<path
   id="path94"
   d="m 210.611,275.575 c 0,0 -10.408,-8.425 -14.126,-9.665 -3.717,-1.239 -22.553,-12.393 -29.244,-21.066 -6.691,-8.674 -23.296,-15.862 -28.748,-19.331 -5.452,-3.469 2.23,5.701 5.204,10.657 2.974,4.956 10.657,8.922 10.657,8.922 0,0 14.87,6.691 16.357,9.17 1.487,2.477 11.648,9.169 18.835,11.896 7.186,2.725 19.082,7.93 21.065,9.417 z"
   fill="#ec9700" />
	<polygon
   id="polygon96"
   points="236.757,177.495 233.04,175.079 241.032,159.094 244.378,161.696 "
   fill="#ec9700" />
	<path
   id="path98"
   d="m 236.757,176.194 c 0,0 9.294,7.435 10.409,8.922 1.115,1.487 -5.948,41.078 -6.691,41.636 -0.743,0.558 -0.743,-2.045 -0.743,-2.045 0,0 4.089,-39.034 3.532,-39.777 -0.558,-0.743 -2.602,-3.717 -2.602,-3.717 l -6.134,-5.204 c -0.001,-10e-4 -0.187,-2.603 2.229,0.185 z"
   fill="#ec9700" />
	<polygon
   id="polygon100"
   points="178.145,164.546 181.367,163.555 176.906,157.855 174.427,159.59 "
   fill="#ec9700" />
	<path
   id="path102"
   d="m 170.71,169.007 c 0,0 -3.965,1.239 -5.204,2.23 -1.239,0.991 -1.239,0.991 -0.991,1.735 0.248,0.743 -3.717,39.9 -3.717,39.9 0,0 1.239,1.735 1.735,0.497 0.494,-1.24 8.177,-44.362 8.177,-44.362 z"
   fill="#ec9700" />
	<path
   id="path104"
   d="m 194.564,165.785 c 0,0 -9.851,19.331 -10.223,20.818 -0.372,1.487 -4.461,11.71 -4.833,12.825 -0.372,1.115 -0.929,5.948 -0.929,5.948 l -1.301,-0.186 -0.372,-1.115 -2.695,-0.093 -0.836,1.022 -3.16,-0.743 c 0,0 12.825,-25.836 15.428,-32.528 2.602,-6.691 7.249,-12.082 7.249,-12.082 l 3.903,-4.833 c 0,0 1.115,2.416 1.487,3.532 0.372,1.115 0.929,1.859 0.929,1.859 0,0 -3.16,-0.929 -4.647,1.115 -1.487,2.045 0,4.461 0,4.461 z"
   fill="#e3e3e3" />
	<path
   id="path106"
   d="m 214.452,153.146 1.673,3.717 c 0,0 3.16,0.743 2.045,2.788 -1.116,2.045 -2.417,3.346 -2.417,3.346 0,0 0.929,0.929 0,1.859 -0.929,0.93 1.115,1.859 -0.186,3.346 -1.301,1.487 -1.673,2.416 -1.673,2.416 0,0 3.532,0.558 2.416,2.23 -1.115,1.673 1.859,2.23 0.929,3.717 -0.929,1.487 2.045,1.673 0.186,5.948 -1.859,4.275 -0.186,5.39 -0.186,5.39 0,0 4.647,1.301 1.116,5.948 -3.532,4.647 -2.788,4.089 -2.788,4.089 0,0 -2.045,4.461 -3.532,5.39 -1.487,0.929 -0.186,2.974 -0.186,2.974 l 0.558,2.788 h -1.673 l -1.673,-2.045 -4.833,0.372 0.372,-17.1 2.602,-25.836 2.974,-10.967 c 0.001,0.002 1.488,-3.344 4.276,-0.37 z"
   fill="#e3e3e3" />
	<path
   id="path108"
   d="m 203.764,152.867 c 0,0 -2.788,0.651 -3.81,0.743 -1.022,0.093 -2.138,1.394 -2.045,2.881 0.093,1.487 1.301,3.717 1.301,3.717 0,0 -3.16,-1.58 -4.647,1.115 -1.487,2.695 0.186,5.019 2.045,5.948 0,0 -2.416,0.929 -2.602,2.509 -0.186,1.58 2.602,3.346 2.602,3.346 0,0 -1.208,1.022 0,1.952 0,0 -2.323,0.186 -2.509,2.138 -0.186,1.952 1.859,2.695 1.859,2.695 0,0 -1.301,0.929 -0.279,2.045 0,0 -2.138,-0.186 -3.253,1.673 -1.115,1.859 2.045,5.483 2.045,5.483 0,0 0.743,1.673 -1.394,0.651 -2.138,-1.022 -2.881,-1.58 -4.74,-1.022 -1.859,0.558 -3.16,3.253 -1.022,6.784 2.138,3.532 5.948,3.439 5.948,3.439 0,0 -2.974,2.788 0.929,3.81 0,0 -0.372,2.138 1.115,3.067 1.487,0.929 2.788,1.115 2.788,1.115 l 6.134,-0.279 c 0,0 4.275,-1.022 3.346,-3.996 0,0 4.089,1.022 5.762,-1.394 1.673,-2.416 -0.929,-4.647 -0.929,-4.647 0,0 4.74,1.115 4.74,-3.625 0,-4.74 -5.204,-4.089 -5.204,-4.089 l 1.58,-1.673 c 0,0 3.625,-3.067 3.439,-5.762 -0.186,-2.695 -2.788,-2.23 -2.788,-2.23 0,0 1.859,-1.673 0.279,-2.974 -1.58,-1.301 -4.089,-2.323 -4.089,-2.323 0,0 1.859,-0.743 2.138,-2.23 0.279,-1.487 -0.836,-2.974 -0.836,-2.974 0,0 2.138,-0.929 1.673,-2.602 0,0 1.859,-1.859 0.836,-4.275 0,0 2.416,-1.301 2.23,-3.903 -0.186,-2.602 -2.416,-2.045 -2.788,-1.394 0,0 -0.465,-3.346 -2.138,-3.625 -1.673,-0.279 -4.74,0.186 -4.74,0.186 z"
   fill="#ffffff" />
	<path
   id="path110"
   d="m 249.272,359.838 c 0,0 0.497,5.7 -0.495,9.665 -0.992,3.964 -2.974,5.7 -2.974,5.7 l -0.495,1.239 c 0,0 3.469,1.984 3.717,6.196 0.247,4.213 -2.479,5.451 -4.709,5.7 0,0 8.674,0.248 12.391,-0.247 3.717,-0.497 7.435,-2.479 6.691,-8.922 -0.743,-6.445 -4.708,-20.323 -4.708,-20.323 z"
   fill="#e3e3e3" />
	<path
   id="path112"
   d="m 164.514,313.244 c 0,0 5.452,0.992 6.939,0.992 1.487,0 4.461,5.453 3.222,8.427 -1.239,2.974 -26.766,22.8 -27.757,23.543 -0.991,0.743 -4.709,1.982 -4.709,1.982 0,0 3.717,1.488 4.461,0.992 0.743,-0.495 40.397,-31.722 40.892,-32.714 0.495,-0.992 0.496,-5.7 -2.974,-9.665 -3.47,-3.966 -8.178,-5.453 -8.178,-5.453 l -0.248,1.984 c 0,0 0.496,8.674 -11.648,9.912 z"
   fill="#e3e3e3" />
	<path
   id="path114"
   d="m 140.475,112.006 c 0,0 10.657,0.744 17.1,-7.683 0,0 1.983,10.161 -3.965,13.63 -5.948,3.47 -14.622,-1.239 -14.622,-1.239 z"
   fill="#a7b4bb" />
	<path
   id="path116"
   d="m 161.54,85.736 c 0,0 0.991,4.461 -0.743,6.939 0,0 3.47,6.816 3.717,11.4 0,0 1.983,-5.452 1.239,-10.904 -0.743,-5.452 -3.222,-8.427 -3.717,-7.931 -0.496,0.496 -0.496,0.496 -0.496,0.496 z"
   fill="#a7b4bb" />
	<path
   id="path118"
   d="m 158.07,103.084 2.23,-2.23 c 0,0 2.23,8.426 0.372,13.631 0,0 -4.833,3.222 -6.32,3.222 0.001,-10e-4 4.958,-4.462 3.718,-14.623 z"
   fill="#a7b4bb" />
	<path
   id="path120"
   d="m 135.518,88.958 c 0,0 -7.931,6.691 -3.965,19.579 l 2.23,0.248 c 0,0 -2.23,-11.648 6.939,-20.074 0.001,-0.001 -3.221,-0.001 -5.204,0.247 z"
   fill="#ffffff" />
	<path
   id="path122"
   d="m 148.901,83.01 c 0,0 4.213,-2.23 7.435,-1.735 l -2.478,-0.991 c 0,0 -6.939,-0.248 -10.161,1.487 z"
   fill="#ffffff" />
	<polygon
   id="polygon124"
   points="138.244,84.559 140.846,81.585 145.121,82.328 143.077,84.745 "
   fill="#ffffff" />
	<polygon
   id="polygon126"
   points="140.723,88.71 143.634,85.302 138.244,84.559 135.828,87.904 "
   fill="#ffffff" />
	<path
   id="path128"
   d="m 137.749,112.006 -6.444,5.948 2.726,2.478 4.956,-4.709 c 0.001,0 2.231,-1.982 -1.238,-3.717 z"
   fill="#a7b4bb" />
	<path
   id="path130"
   d="m 105.53,135.302 c 0,0 0,1.239 2.478,3.965 2.478,2.726 -6.196,11.896 -6.196,11.896 l 2.974,3.965 11.524,-13.755 -9.789,-7.559 c 0.001,0.001 -2.726,0.001 -0.991,1.488 z"
   fill="#a7b4bb" />
	<polygon
   id="polygon132"
   points="169.984,24.093 214.074,37.29 272.261,46.588 218.572,54.086 211.374,45.088 212.874,44.188 219.172,50.787 260.863,46.588 213.474,39.09 177.182,27.692 201.177,47.787 211.374,43.589 213.174,45.688 201.477,51.087 " />
	<path
   id="path134"
   d="m 287.19,89.206 c -3.469,-20.322 -19.331,-31.227 -19.331,-31.227 6.691,-29.74 -2.974,-40.397 -14.622,-44.114 -11.648,-3.717 -20.57,0 -27.261,5.948 -6.691,5.948 -12.144,18.34 -12.144,18.34 l 1.735,0.248 c 0,0 4.066,-10.587 12.143,-17.1 7.683,-6.196 19.383,-10.224 31.723,-0.248 11.648,9.417 6.443,30.483 4.708,35.935 0,0 20.076,18.092 21.81,37.423 z" />
	<path
   id="path136"
   d="m 226.224,20.556 c 0,0 -1.115,-9.692 -12.639,-12.143 -11.648,-2.478 -22.553,7.683 -26.518,21.561 l -1.735,-0.496 c 0,0 2.974,-13.135 13.383,-20.074 10.409,-6.939 25.775,-3.717 30.236,8.922 z" />
	<path
   id="path138"
   d="m 185.084,35.922 -3.717,9.17 c 0,0 -0.743,0.743 -1.983,0.991 -1.239,0.248 -25.527,5.7 -28.005,32.714 l -3.222,0.248 c 0,0 0.495,-11.401 8.426,-22.057 7.931,-10.656 21.561,-13.135 21.561,-13.135 0,0 5.204,-8.179 5.452,-9.17 0.248,-0.991 1.488,1.239 1.488,1.239 z" />
	<path
   id="path140"
   d="m 167.488,65.414 c 0,0 38.91,27.262 101.363,16.605 l 0.743,2.23 c 0,0 -59.479,10.656 -102.354,-17.596 z" />
	<path
   id="path142"
   d="m 228.702,52.031 c 0,0 10.409,-0.991 29.491,8.178 0,0 -19.083,-5.948 -33.209,-7.187 z" />
	<path
   id="path144"
   d="m 197.476,45.339 c 0,0 -3.965,-1.487 -11.152,-0.743 0,0 7.684,0.991 12.64,3.717 z" />
	<path
   id="path146"
   d="m 223.25,39.639 c 0,0 5.838,-20.037 23.792,-16.605 16.852,3.222 11.896,22.057 11.896,22.057 l 2.23,0.496 c 0,0 2.974,-20.818 -13.63,-23.544 -16.605,-2.726 -24.288,9.914 -25.775,17.596 z" />
	<path
   id="path148"
   d="m 260.673,47.57 c 0,0 -1.982,5.948 -6.443,10.904 h -0.992 c 0,0 4.461,-4.709 5.204,-10.409 z" />
	<path
   id="path150"
   d="m 193.511,31.957 c 0,0 0.495,-4.957 5.452,-11.153 4.957,-6.196 18.092,-8.178 22.8,5.452 l 1.239,-0.743 c 0,0 -1.982,-8.922 -11.151,-10.656 -9.983,-1.889 -19.083,7.93 -19.083,16.605 z" />
	<path
   id="path152"
   d="m 287.934,106.306 c 0,0 -2.726,-1.487 -5.948,-0.991 -3.221,0.496 -17.842,4.461 -19.083,4.709 -1.239,0.248 -3.717,3.222 -3.717,5.948 0,2.726 2.479,4.213 3.966,4.709 1.487,0.496 15.86,1.487 21.808,0.743 0,0 -0.99,-2.23 -1.734,-2.478 -0.743,-0.248 -15.118,0 -17.597,0 -2.477,0 -3.469,-2.23 -3.221,-3.717 0.247,-1.487 1.982,-2.726 4.213,-3.469 2.231,-0.743 13.878,-3.966 15.862,-4.213 1.981,-0.25 5.451,-1.241 5.451,-1.241 z" />
	<path
   id="path154"
   d="m 265.382,120.432 c 0,0 -3.469,0.744 -3.966,3.222 -0.495,2.478 0.248,4.709 3.222,6.196 2.974,1.487 15.612,5.7 16.604,6.196 0.992,0.496 1.735,2.726 1.735,2.726 0,0 -16.605,-6.196 -18.092,-6.443 -1.487,-0.248 -6.94,-2.231 -6.691,-6.939 0.248,-4.709 2.974,-5.7 3.717,-6.196 0.744,-0.497 3.471,1.238 3.471,1.238 z" />
	<path
   id="path156"
   d="m 304.787,71.114 c 9.957,0.343 12.391,9.17 10.656,14.126 -1.735,4.956 -7.435,5.204 -11.399,8.426 -3.966,3.222 -5.701,12.144 -3.966,17.844 1.735,5.7 6.443,19.579 0.495,30.483 -5.948,10.904 -20.074,7.683 -21.561,6.443 -1.487,-1.239 -12.639,-5.452 -15.365,-7.187 -2.726,-1.735 -4.709,-5.452 -3.717,-7.93 0.992,-2.478 1.982,-3.47 1.982,-3.47 h 2.727 c 0,0 -1.24,3.222 -1.24,5.7 0,2.478 2.232,3.222 4.709,4.709 2.479,1.487 10.657,4.709 12.888,5.7 2.23,0.991 11.895,1.735 16.604,-5.452 4.709,-7.187 2.727,-20.074 0.248,-26.518 -2.479,-6.444 -1.982,-10.905 -0.743,-15.118 1.239,-4.213 5.701,-8.426 9.665,-10.409 3.966,-1.983 4.709,-6.443 3.966,-10.161 -0.743,-3.717 -8.675,-6.691 -16.853,1.487 -8.178,8.178 -9.665,26.27 -9.665,26.27 l -4.956,0.496 c 0,0 4.213,-14.126 7.93,-22.553 3.716,-8.425 10.408,-13.134 17.595,-12.886 z" />
	<path
   id="path158"
   d="m 212.346,144.472 c 0,0 -0.992,0.991 -0.992,2.726 0,1.735 0,3.47 1.239,3.717 1.239,0.248 1.487,-1.487 1.487,-3.469 0,-1.982 -0.247,-4.956 -1.734,-2.974 z" />
	<path
   id="path160"
   d="m 213.337,145.525 c 0,0 4.647,-2.602 10.409,-3.717 5.762,-1.115 10.037,-0.743 10.967,-0.743 0.93,0 0.929,0.929 0.929,1.859 0,0.93 -0.743,5.948 0.558,11.71 0,0 0.372,1.673 -0.372,2.788 -0.743,1.115 -7.621,-1.301 -13.941,-3.532 -6.32,-2.23 -9.294,-2.974 -10.038,-2.974 -0.744,0 -0.929,1.487 0.558,1.859 1.487,0.372 7.993,2.602 10.223,3.717 2.23,1.115 9.851,3.16 12.268,3.346 2.416,0.186 4.275,-0.372 4.275,-1.301 0,-0.929 -1.301,-7.249 -1.487,-10.967 -0.186,-3.717 -0.372,-6.877 -0.743,-7.807 -0.372,-0.929 -4.089,-1.487 -11.896,-0.558 -7.807,0.929 -12.577,4.399 -12.701,5.267 -0.124,0.867 0.991,1.053 0.991,1.053 z" />
	<path
   id="path162"
   d="m 164.081,110.209 c 0,0 10.409,12.268 16.729,18.959 6.32,6.691 12.639,10.967 21.375,12.639 8.736,1.673 16.171,-1.487 16.171,-1.487 0,0 0.372,0.372 0.186,1.301 -0.186,0.929 -7.435,3.717 -14.87,3.16 -7.435,-0.557 -14.684,-4.089 -20.818,-9.851 -6.134,-5.762 -16.171,-18.216 -20.446,-22.862 z" />
	<path
   id="path164"
   d="m 261.911,129.85 c 0,0 -5.451,3.717 -21.808,8.922 0,0 0,0.992 2.726,0.496 2.726,-0.496 15.613,-3.717 18.092,-5.204 2.477,-1.487 2.477,-3.222 2.477,-3.222 z" />
	<path
   id="path166"
   d="m 270.586,73.84 c 0,0 -3.717,4.709 -1.735,12.391 1.982,7.683 7.683,9.913 9.17,9.665 0,0 0.248,-0.744 -0.992,-1.735 -1.239,-0.991 -3.469,-2.726 -5.948,-8.922 -2.479,-6.196 0.495,-11.896 0.495,-11.896 z" />
	<path
   id="path168"
   d="m 166.745,58.227 c 0,0 3.222,5.204 0.743,11.648 -2.478,6.444 -9.418,6.691 -9.418,6.691 0,0 -0.31,-1.115 0.62,-1.673 0.929,-0.558 5.39,-2.23 6.877,-5.762 1.487,-3.532 1.115,-7.807 0.558,-9.294 -0.557,-1.486 0.31,-2.106 0.62,-1.61 z" />
	<path
   id="path170"
   d="m 166.497,70.618 c 0,0 4.461,23.544 14.622,39.405 10.161,15.861 27.26,22.694 55.514,7.93 27.509,-14.374 33.954,-30.979 33.954,-30.979 l 1.239,3.47 c 0,0 -13.383,18.587 -31.227,28.253 -17.844,9.666 -29.492,11.896 -40.892,9.665 -11.4,-2.23 -29.74,-21.066 -34.697,-55.762 z" />
	<path
   id="path172"
   d="m 204.911,143.976 c 0,0 -1.735,1.487 -1.735,3.47 0,1.983 0.743,3.965 4.213,4.709 3.47,0.743 5.204,-1.487 5.204,-1.487 l 0.991,1.735 c 0,0 -1.487,1.735 -5.452,1.983 -3.965,0.248 -7.434,-1.983 -7.683,-5.948 -0.248,-3.965 1.735,-4.957 1.735,-4.957 z" />
	<path
   id="path174"
   d="m 186.819,137.285 c 0,0 -2.974,-0.248 -3.222,2.478 -0.248,2.726 0.248,11.648 0.248,12.887 0,1.239 6.692,1.177 18.092,-2.974 l 0.991,2.478 c 0,0 -17.1,3.47 -19.083,3.965 -1.983,0.496 -2.726,-0.744 -2.726,-3.222 0,-2.478 0.248,-12.391 0,-14.622 -0.248,-2.23 0.496,-3.222 3.47,-3.222 z" />
	<path
   id="path176"
   d="m 179.632,129.85 c 0,0 -3.47,0 -7.187,1.487 -4.299,1.72 -9.417,5.205 -13.135,7.187 -3.717,1.983 -21.066,7.187 -25.527,8.674 l -0.929,4.089 c 0,0 18.773,-6.815 26.208,-10.037 7.435,-3.222 15.861,-8.178 23.296,-8.178 z" />
	<path
   id="path178"
   d="m 131.924,130.655 c 0,0 4.089,-5.019 4.833,-6.258 0.743,-1.239 -6.443,-9.665 -8.674,-12.639 -2.231,-2.974 -8.178,-7.187 -14.374,-0.743 l 2.974,1.735 c 0,0 2.726,-1.735 4.709,-1.983 1.983,-0.248 3.717,0.991 4.709,2.478 0.991,1.487 4.709,7.683 6.443,9.17 1.734,1.487 0.743,3.47 -1.983,5.948 z" />
	<path
   id="path180"
   d="m 103.052,118.945 c 0,0 2.478,-3.965 5.204,-6.443 2.726,-2.478 6.196,-2.478 9.913,1.239 3.717,3.717 10.657,11.153 12.887,13.631 2.23,2.478 2.974,6.196 -4.213,10.409 l -1.983,-2.23 c 0,0 3.965,-3.47 4.461,-4.709 0.496,-1.239 -10.904,-11.4 -12.639,-13.878 -1.735,-2.478 -6.196,-4.709 -9.17,2.478 z" />
	<path
   id="path182"
   d="m 104.787,129.85 c 0,0 5.452,7.435 14.87,11.152 0,0 -2.231,1.239 -3.965,0.991 -1.735,-0.248 -8.674,-4.461 -11.152,-8.922 -0.001,0.001 -0.992,-4.461 0.247,-3.221 z" />
	<path
   id="path184"
   d="m 94.378,144.224 c 0,0 -2.974,-4.956 0.743,-13.878 3.717,-8.922 6.939,-9.913 9.665,-10.409 2.726,-0.496 11.4,7.435 14.622,10.657 3.222,3.222 6.691,6.691 5.452,8.922 -1.239,2.23 -6.691,6.939 -7.187,8.178 -0.496,1.239 -3.222,0.496 -4.957,-1.239 l -1.983,1.735 c 0,0 1.735,2.726 4.461,3.469 2.726,0.743 4.461,-0.743 5.452,-2.23 0.991,-1.487 6.444,-7.93 7.435,-8.922 0.991,-0.991 1.487,-4.213 -2.478,-7.683 -3.965,-3.47 -12.887,-11.152 -14.87,-12.639 -1.983,-1.487 -4.709,-2.726 -8.178,-2.726 -3.469,0 -6.444,4.213 -7.683,6.691 -1.239,2.478 -7.93,12.392 -3.47,22.553 z" />
	<path
   id="path186"
   d="m 126.844,111.758 3.47,-3.47 c 0,0 4.567,-3.611 8.426,0.248 4.213,4.213 1.487,8.178 1.487,8.178 l -4.461,5.204 -2.478,-2.23 4.213,-3.965 c 0,0 1.487,-2.23 -0.248,-4.213 -1.735,-1.983 -4.213,-2.23 -5.204,-1.487 -0.991,0.743 -3.965,3.965 -3.965,3.965 z" />
	<path
   id="path188"
   d="M 105.282,132.328 90.661,146.95 c 0,0 -1.487,3.47 -0.681,5.329 l 2.54,-0.991 c 0,0 -0.372,-2.354 1.115,-4.089 l 13.383,-13.135 z" />
	<path
   id="path190"
   d="m 94.378,154.881 c 0,0 4.709,4.709 7.187,3.222 l 14.126,-17.1 3.222,0.248 -16.357,19.579 c 0,0 -5.7,1.487 -11.152,-4.461 z" />
	<path
   id="path192"
   d="m 96.608,150.792 c 2.788,0 4.089,3.841 2.23,4.027 -1.859,0.186 -8.302,2.478 -12.391,4.895 -4.089,2.416 -2.293,3.841 -0.991,3.284 1.301,-0.558 -0.372,-2.788 -0.372,-2.788 l 1.239,-1.735 c 0,0 1.487,1.239 1.487,4.089 0,2.85 -2.726,3.098 -4.089,2.85 -1.363,-0.248 -3.717,-3.345 0.743,-6.815 4.461,-3.47 12.516,-4.709 12.516,-4.709 0,0 -0.619,-1.611 -3.098,-1.859 -2.478,-0.248 -12.392,4.461 -14.746,9.046 -2.354,4.585 1.735,8.55 5.824,7.807 4.089,-0.743 4.833,-4.832 4.585,-7.683 -0.248,-2.85 -1.363,-3.965 -1.363,-3.965 l 2.478,-0.372 c 0,0 0.991,3.222 0.124,7.807 -0.867,4.585 -4.832,6.815 -8.798,6.072 -3.965,-0.743 -7.559,-4.337 -4.957,-10.409 2.602,-6.072 11.4,-9.17 17.472,-9.913 z" />
	<path
   id="path194"
   d="m 76.782,164.422 c 0,0 -5.081,5.204 -5.7,11.152 0,0 0,1.611 1.611,2.355 1.611,0.743 2.354,0 2.354,0 0,0 0.62,-6.196 3.346,-10.161 l 1.983,1.487 c 0,0 -2.974,3.098 -3.965,11.152 0,0 -1.983,0.743 -4.585,-0.124 -2.602,-0.867 -2.974,-3.47 -2.726,-5.576 0,0 0.991,-7.187 7.807,-13.011 z" />
	<path
   id="path196"
   d="m 70.71,176.071 c 0,0 2.974,-0.619 4.337,1.859 l 1.115,-0.248 c 0,0 -2.107,-3.594 -5.576,-2.85 z" />
	<path
   id="path198"
   d="m 102.371,158.165 c 0,0 2.346,-3.02 -1.859,-7.435 -3.717,-3.903 -7.621,-2.416 -7.621,-2.416 0,0 3.16,-3.16 7.807,0.743 4.647,3.903 5.019,7.621 5.019,7.621 0,0 -2.045,1.858 -3.346,1.487 z" />
	<path
   id="path200"
   d="m 133.411,127.681 c 0,0 2.788,-0.743 5.762,1.859 2.974,2.602 0.558,6.877 -0.743,8.922 -1.301,2.045 -5.019,12.082 -5.204,13.569 -0.186,1.487 -4.089,2.416 -7.993,0.186 -3.903,-2.23 -2.045,-7.621 -2.045,-7.621 l 2.23,-3.16 c 0,0 -0.743,4.833 0.186,6.877 0.929,2.045 3.532,2.788 4.833,1.673 1.301,-1.115 4.461,-9.665 5.948,-13.755 1.487,-4.089 0,-6.134 -4.461,-5.576 l -1.115,-1.115 z" />
	<path
   id="path202"
   d="m 124.118,149.243 c 0,0 -3.717,5.948 -17.658,5.576 l -2.23,2.23 c 0,0 9.48,3.532 21.561,-5.39 z" />
	<path
   id="path204"
   d="m 128.393,152.588 c 0,0 0.941,3.415 -1.487,10.037 -2.045,5.576 -5.948,6.134 -5.948,6.134 0,0 0.743,1.487 3.532,0.558 2.789,-0.929 5.204,-5.762 5.204,-16.914 z" />
	<path
   id="path206"
   d="m 130.066,152.96 c 0,0 1.673,4.647 2.974,10.037 1.301,5.39 -1.859,10.781 -1.859,10.781 0,0 -0.558,-2.788 0.186,-5.762 0.743,-2.974 -0.186,-8.55 -2.23,-12.268 l -0.186,-2.974 z" />
	<path
   id="path208"
   d="m 153.114,174.521 -2.602,4.461 c -48.141,6.506 -49.814,-1.487 -51.673,-5.948 -1.859,-4.461 -4.089,-14.87 -4.089,-14.87 l 3.532,1.301 c 0,0 1.673,7.435 3.532,12.639 1.859,5.204 21.374,9.481 51.3,2.417 z" />
	<path
   id="path210"
   d="m 154.973,190.135 c 0,0 -9.48,-3.346 -10.037,-3.717 -0.558,-0.372 -3.346,3.16 -3.717,3.717 -0.372,0.558 10.037,4.647 11.152,5.39 l 0.743,-0.558 c 0,0 -7.249,-3.903 -8.55,-4.461 -1.301,-0.558 0.743,-2.23 0.743,-2.23 0,0 7.435,3.16 8.736,3.16 1.301,0 0.93,-1.301 0.93,-1.301 z" />
	<path
   id="path212"
   d="m 134.898,205.191 7.993,-14.684 2.23,1.115 c 0,0 -6.134,13.197 -6.506,14.126 -0.372,0.929 -3.717,-0.557 -3.717,-0.557 z" />
	<path
   id="path214"
   d="m 145.307,187.161 c 0,0 10.223,-20.26 27.695,-42.193 0,0 -1.859,3.717 -1.859,5.019 0,0 -15.427,22.677 -23.606,38.104 z" />
	<path
   id="path216"
   d="m 157.575,167.644 c 0,0 -0.743,-2.974 -0.743,-7.063 0,-4.089 1.115,-9.851 2.788,-10.409 1.673,-0.558 1.859,0.558 1.301,1.673 -0.558,1.115 -1.301,5.204 -1.487,5.948 -0.186,0.743 0.372,1.673 0.372,1.673 0,0 1.673,-4.833 2.602,-6.691 0.929,-1.858 0.186,-3.16 0.186,-4.089 0,-0.929 -2.788,-0.372 -4.647,0.558 -1.859,0.93 -3.717,8.364 -2.045,20.074 l 1.487,0.186 z" />
	<path
   id="path218"
   d="m 303.3,127.372 c 0,0 0.99,-0.744 2.23,-0.496 1.239,0.248 1.982,0.991 1.734,2.23 -0.247,1.239 -0.99,20.818 -0.99,28.996 0,8.178 1.239,23.792 0.743,27.014 -0.497,3.222 -2.479,6.691 -7.931,7.187 -5.451,0.496 -24.784,-9.913 -32.714,-19.578 l -1.487,-5.948 c 0,0 11.154,11.152 18.092,15.613 6.94,4.461 13.383,6.443 15.365,6.196 1.984,-0.248 5.948,-2.478 5.948,-5.948 0,-3.47 -0.992,-22.057 -0.743,-28.005 0.248,-5.948 1.488,-19.083 0.992,-21.809 -0.495,-2.726 -1.982,-2.23 -1.982,-2.23 z" />
	<path
   id="path220"
   d="m 279.508,147.694 c 0,0 -0.743,9.418 -1.487,13.879 -0.743,4.461 -1.735,9.17 1.982,13.878 0,0 1.24,1.487 1.487,0.248 0.248,-1.239 -1.487,-5.204 -1.487,-9.17 0,-3.965 3.222,-12.143 2.23,-17.596 z" />
	<path
   id="path222"
   d="m 279.26,158.846 c 0,0 -4.214,3.47 -6.196,8.426 0,0 -1.735,2.974 0,1.487 1.735,-1.487 4.461,-4.213 5.701,-4.709 1.238,-0.495 0.495,-5.204 0.495,-5.204 z" />
	<path
   id="path224"
   d="m 218.789,153.89 c 0,0 9.17,37.175 11.401,44.61 2.231,7.435 7.435,27.756 7.435,28.5 0,0.744 0,2.232 1.982,1.735 1.984,-0.495 33.954,-8.427 35.441,-8.674 1.487,-0.248 4.956,-0.001 4.708,-1.984 -0.247,-1.982 -13.383,-47.335 -15.117,-55.266 -1.735,-7.93 -6.196,-18.34 -7.932,-19.579 0,0 -1.239,0.991 -0.495,2.23 0.743,1.239 4.956,15.613 6.196,21.066 1.239,5.452 14.126,50.061 14.126,50.061 0,0 -34.449,8.674 -35.193,8.922 -0.743,0.248 -20.074,-70.631 -20.074,-70.631 z" />
	<path
   id="path226"
   d="m 254.476,202.713 c 0,0 13.879,-3.718 18.092,-3.718 l 1.239,0.991 c 0,0 -12.886,1.983 -18.339,3.47 l 0.743,2.726 c 0,0 13.88,-3.717 17.1,-3.965 l 0.743,1.239 -18.836,4.956 -1.734,-4.461 c 0.002,0 -0.495,-0.495 0.992,-1.238 z" />
	<path
   id="path228"
   d="m 237.376,152.898 c 0,0 3.966,3.717 4.709,4.461 0.743,0.743 0.497,0.743 0,1.735 -0.495,0.991 -7.683,16.852 -7.683,16.852 l -1.734,-1.735 c 0,0 6.257,-14.436 7.187,-15.366 0.93,-0.93 -2.479,-3.222 -2.479,-3.222 z" />
	<path
   id="path230"
   d="m 230.189,170.742 c 0,0 11.896,10.905 12.639,11.648 0.743,0.743 1.735,1.487 1.735,3.222 0,1.735 -3.471,37.67 -3.471,38.91 0,1.239 -1.239,-2.727 -1.239,-2.727 0,0 1.735,-34.448 2.23,-35.191 0.495,-0.743 0,-1.239 -0.992,-2.726 -0.99,-1.487 -8.178,-7.931 -9.912,-10.161 -1.733,-2.232 -0.99,-2.975 -0.99,-2.975 z" />
	<path
   id="path232"
   d="m 171.453,217.334 c 0,0 -19.083,-9.541 -32.838,-11.585 -13.755,-2.045 -24.411,4.646 -29.12,13.072 -4.709,8.427 -3.717,19.579 6.691,39.158 10.409,19.578 40.892,47.584 40.892,47.584 0,0 0.743,-1.984 -0.248,-3.471 -0.991,-1.487 -24.783,-24.782 -32.466,-36.926 -7.683,-12.144 -14.87,-28.5 -14.126,-39.405 0.743,-10.904 16.109,-17.843 24.039,-17.596 7.93,0.247 28.996,8.922 33.457,9.666 4.463,0.743 7.437,0.99 3.719,-0.497 z" />
	<path
   id="path234"
   d="m 158.318,237.905 c 0,0 9.666,15.117 23.296,22.552 13.63,7.435 25.774,11.401 28.748,14.126 l 1.239,1.984 c 0,0 -7.436,-4.461 -15.614,-6.94 -8.178,-2.479 -21.065,-7.435 -29.492,-16.852 -8.425,-9.419 -10.655,-12.888 -8.177,-14.87 z" />
	<path
   id="path236"
   d="m 199.707,152.155 c 0,0 -18.092,25.775 -33.953,63.94 l -1.983,-0.743 c 0,0 17.843,-40.892 32.961,-62.949 z" />
	<path
   id="path238"
   d="m 182.606,153.394 c 0,0 -2.974,1.735 -3.717,1.983 -0.743,0.248 -1.239,0.496 -0.743,1.239 0.496,0.743 4.957,7.435 4.957,7.435 l -2.726,0.743 c 0,0 -3.965,-6.443 -4.709,-7.187 -0.743,-0.743 -1.983,-1.735 0.248,-2.974 2.23,-1.239 6.196,-3.717 6.196,-3.717 z" />
	<path
   id="path240"
   d="m 188.802,161.572 c 0,0 -0.496,1.983 -2.23,2.23 -1.735,0.248 -14.374,3.717 -14.374,3.717 0,0 -0.743,0.991 -0.743,1.735 0,0.744 -6.691,43.618 -7.187,44.858 -0.496,1.239 -2.726,0.743 -2.726,0.743 0,0 7.435,-43.867 7.683,-45.354 0.248,-1.487 -1.239,-2.478 0.496,-3.222 1.732,-0.741 19.081,-4.707 19.081,-4.707 z" />
	<path
   id="path242"
   d="m 190.103,215.228 c 0,0 -0.372,-4.461 0,-7.993 0,0 18.03,0.929 19.145,1.115 1.115,0.186 -0.372,8.179 -0.372,8.922 l 1.487,0.558 c 0,0 0.743,-9.48 0.743,-10.223 0,-0.743 -0.743,-0.558 -1.673,-0.929 -0.93,-0.371 -19.331,-1.301 -19.888,-1.487 -0.558,-0.186 -0.929,0.186 -1.115,1.301 -0.186,1.115 -0.186,6.134 -0.186,7.621 0,1.487 0.372,2.045 0.929,2.045 0.557,0 0.93,-0.93 0.93,-0.93 z" />
	<path
   id="path244"
   d="m 188.43,214.856 c 0,0 20.074,1.859 21.004,1.859 0.93,0 0,1.673 0,1.673 0,0 -19.888,-1.859 -21.004,-2.045 -1.115,-0.185 0,-1.487 0,-1.487 z" />
	<path
   id="path246"
   d="m 216.187,207.545 c 0,0 0.868,1.364 0.868,4.089 0,2.726 -0.62,5.329 -0.868,5.948 -0.248,0.62 2.85,0.992 3.717,0.62 0.868,-0.372 0.868,-8.303 -0.123,-10.162 0,0 -0.743,-0.743 -0.743,-0.248 0,0.495 0.619,6.692 0.123,9.417 l -1.362,-0.248 c 0,0 1.239,-5.204 -0.372,-8.922 l 1.116,-0.123 c 0,0 0.867,-0.497 -0.497,-0.62 -1.363,-0.122 -1.859,-0.246 -1.859,0.249 z" />
	<path
   id="path248"
   d="m 222.011,208.165 c 0,0 1.115,3.841 -0.248,9.789 0,0 -0.495,0.743 0.248,0.867 0.743,0.125 3.346,-0.123 4.089,-0.247 0.743,-0.125 2.726,-5.948 0.495,-10.038 0,0 -3.097,-0.619 -3.593,-0.619 -0.497,0 -0.125,0.619 0.247,0.867 0.372,0.248 2.23,0.62 2.23,0.62 0,0 1.735,2.355 0,8.178 h -2.106 c 0,0 0.867,-5.576 0.247,-8.178 -0.617,-2.602 -1.609,-1.239 -1.609,-1.239 z" />
	<path
   id="path250"
   d="m 185.704,205.066 c 0,0 -2.726,3.222 -1.611,10.78 0,0 -2.478,0 -3.346,-0.247 -0.867,-0.248 -2.602,-5.701 0.496,-11.525 0,0 -0.124,-0.248 0.867,-0.124 0.991,0.124 2.726,0.496 2.726,0.496 l -0.248,0.619 -2.602,-0.248 c 0,0 -2.107,3.222 -0.62,9.666 l 1.239,0.123 c 0,0 0.496,-7.93 1.363,-9.046 0.868,-1.113 1.86,-1.485 1.736,-0.494 z" />
	<path
   id="path252"
   d="m 178.517,203.579 c 0,0 -2.602,4.956 -1.983,10.78 0,0 -3.47,0 -4.337,-0.743 -0.867,-0.743 -1.239,-5.947 1.859,-10.284 0,0 3.222,-0.124 3.594,0 0.372,0.124 -0.496,1.239 -0.496,1.239 l -2.726,-0.124 c 0,0 -2.355,2.974 -1.487,8.179 0,0 1.611,0.62 1.983,0.495 0.372,-0.123 0.62,-6.939 1.859,-9.17 -10e-4,0 1.734,-1.115 1.734,-0.372 z" />
	<path
   id="path254"
   d="m 275.791,218.574 c 0,0 -2.23,33.457 -4.461,53.16 -2.231,19.703 -8.178,71.747 -8.178,71.747 l -1.859,-5.576 c 0,0 7.063,-59.851 7.435,-67.658 0.372,-7.807 3.346,-50.186 3.346,-50.186 z" />
	<path
   id="path256"
   d="m 197.352,268.76 c 0,0 7.435,24.907 17.1,44.981 9.666,20.074 21.933,37.175 21.933,37.175 l -1.487,3.717 c 0,0 -10.781,-17.1 -19.703,-33.085 -8.922,-15.985 -21.561,-53.532 -21.561,-53.532 z" />
	<path
   id="path258"
   d="m 264.142,358.351 c -1.237,0.961 -9.912,2.974 -18.834,1.734 -8.922,-1.239 -12.639,-2.974 -12.639,-2.974 0,0 2.23,-4.461 3.221,-7.435 0.992,-2.974 0.743,-8.425 -0.495,-7.187 -1.239,1.24 -1.982,2.23 -1.982,2.23 0,0 0.99,-1.734 1.734,-3.717 0.743,-1.982 2.727,-0.497 3.222,1.239 0.495,1.735 0.743,8.675 -2.479,13.136 0,0 4.461,1.982 11.152,2.477 6.691,0.497 14.375,-0.495 15.118,-0.99 0.743,-0.497 0.495,-0.745 -0.992,-1.984 -1.487,-1.239 -6.195,-5.948 -7.682,-8.922 -1.487,-2.974 0.495,-4.956 3.964,-2.974 3.471,1.984 3.717,6.196 3.717,6.196 0,0 -0.743,-1.487 -2.477,-2.974 -1.735,-1.487 -2.727,0.248 -0.743,2.23 1.982,1.982 5.203,5.948 6.938,7.187 1.736,1.241 1.487,0.992 -0.743,2.728 z" />
	<path
   id="path260"
   d="m 259.929,352.403 c 0,0 3.222,-1.488 3.717,-4.214 0.495,-2.726 -4.461,-13.63 -5.204,-17.347 -0.743,-3.717 0.992,-1.984 1.735,0.247 0.743,2.23 5.7,17.1 6.443,18.34 0.743,1.239 -3.469,3.221 -3.469,6.691 z" />
	<path
   id="path262"
   d="m 237.376,357.607 c 0,0 -1.734,6.443 -5.7,13.63 -3.966,7.188 -5.204,8.922 -5.7,11.649 -0.497,2.726 1.982,7.435 4.708,8.922 2.727,1.487 8.178,2.973 18.34,2.477 10.161,-0.495 11.894,-0.743 12.886,-2.23 0.992,-1.487 0.743,-4.213 0.743,-4.213 0,0 2.479,-2.727 1.735,-11.401 -0.743,-8.674 -4.213,-17.596 -4.213,-17.596 l -3.222,0.248 c 0,0 2.727,6.938 3.717,12.639 0.992,5.7 0.743,11.894 -0.248,13.63 -0.99,1.735 -8.921,2.479 -16.109,2.479 -7.187,0 -14.87,-1.982 -14.87,-1.982 l 0.495,1.734 c 0,0 5.948,2.23 16.11,2.23 10.161,0 14.126,-1.487 14.126,-1.487 0,0 0.247,1.488 -0.743,2.479 -0.992,0.992 -19.331,1.239 -23.792,0.248 -4.461,-0.992 -7.188,-5.204 -6.445,-7.435 0.743,-2.23 2.23,-7.188 5.204,-11.649 3.003,-4.503 4.958,-12.391 6.196,-12.886 1.243,-0.495 -3.218,-1.486 -3.218,-1.486 z" />
	<path
   id="path264"
   d="m 232.42,378.92 c 0,0 4.709,-2.23 12.144,-2.23 7.435,0 13.878,1.984 14.622,2.23 0,0 2.974,-0.248 0.743,-0.992 -2.23,-0.743 -9.417,-2.23 -12.639,-2.974 -3.222,-0.743 -12.886,-0.495 -14.87,3.966 z" />
	<path
   id="path266"
   d="m 166.745,251.288 c 0,0 4.709,31.227 5.204,33.457 0.496,2.23 2.726,5.451 3.222,6.691 0.496,1.239 2.23,3.469 1.735,4.956 l 3.717,1.735 c 0,0 -0.248,-3.469 -1.983,-5.453 -1.735,-1.982 -2.974,-5.7 -3.965,-8.178 -0.991,-2.479 -3.718,-23.295 -3.965,-28.996 z" />
	<path
   id="path268"
   d="m 176.162,294.162 c 0,0 -1.239,-0.247 -2.974,-1.982 -1.735,-1.735 -3.222,1.239 0.248,2.726 3.47,1.487 5.7,2.974 7.187,3.222 1.487,0.247 -0.248,2.973 -1.239,3.964 -0.991,0.992 -22.305,9.417 -23.792,11.152 -1.487,1.735 -0.248,-8.177 -0.248,-10.904 0,-2.726 1.735,-3.221 1.735,-1.487 0,1.735 0.248,6.691 0.248,6.691 0,0 0.743,1.735 2.23,0.743 1.487,-0.992 13.879,-6.691 16.109,-7.435 2.23,-0.743 2.23,-1.735 -1.239,-3.469 -3.47,-1.735 -2.973,-1.487 -4.461,-3.966 -1.487,-2.479 -0.496,-6.443 2.726,-4.461 3.222,1.982 7.436,5.703 3.47,5.206 z" />
	<path
   id="path270"
   d="m 170.586,336.418 c -1.487,0.743 -19.145,15.428 -21.375,15.985 -2.23,0.557 -3.717,-2.045 -3.717,-2.045 -2.974,0 -5.39,-0.929 -5.948,-2.602 -0.558,-1.673 2.045,-4.275 4.089,-6.691 2.045,-2.416 7.621,-13.941 9.108,-18.401 1.487,-4.461 4.461,-11.152 4.461,-11.152 l 4.089,-1.859 c 0,0 -3.346,7.435 -5.39,11.896 -2.045,4.461 -4.089,13.755 -11.338,22.119 0,0 -1.487,1.487 -1.301,2.602 0.186,1.115 2.045,2.23 2.974,2.23 0.929,0 12.082,-8.55 18.216,-13.941 6.134,-5.39 18.401,-15.799 20.818,-17.286 0,0 1.673,-0.372 0.743,0.558 -0.929,0.929 -18.401,15.056 -20.446,17.1 -2.045,2.045 -16.357,13.197 -17.286,13.94 -0.929,0.743 -0.558,2.416 0.372,1.859 0.93,-0.557 20.26,-16.171 21.933,-17.286 1.673,-1.115 16.543,-13.197 17.286,-13.94 0.743,-0.743 -0.372,-2.416 -0.372,-2.416 0,0 -0.372,-3.532 -3.16,-7.807 -2.788,-4.275 -7.249,-6.32 -7.249,-6.32 l 2.416,-2.045 c 0,0 5.204,4.647 8.364,9.108 3.16,4.461 1.487,6.877 1.487,6.877 0,0 1.301,2.045 1.301,3.16 0,1.115 -3.717,2.974 -3.717,2.974 z" />
	<path
   id="path272"
   d="m 159.805,310.953 c 0,0 2.045,1.673 6.877,0.929 4.833,-0.743 7.993,-3.903 7.993,-8.178 l 2.416,-0.743 c 0,0 1.301,6.506 -7.435,9.851 -8.736,3.346 -11.338,-1.115 -11.338,-1.115 z" />
	<path
   id="path274"
   d="m 180.066,303.704 c 0,0 -5.204,7.993 0.743,17.286 l 1.859,-0.743 c 0,0 -5.39,-5.762 -1.487,-15.427 z" />
	<path
   id="path276"
   d="m 204.415,112.254 c 0,0 3.222,-5.452 7.931,-6.939 4.709,-1.487 14.602,0.916 20.322,5.204 4.956,3.717 4.956,7.683 4.956,7.683 l 3.222,-0.743 c 0,0 -0.495,-5.204 -9.17,-10.161 -8.674,-4.957 -16.604,-5.452 -21.561,-3.222 -4.956,2.23 -7.683,7.682 -5.7,8.178 z" />
	<path
   id="path278"
   d="m 207.141,107.049 c 0,0 -1.239,-3.717 -7.683,-4.213 -6.443,-0.496 -17.1,2.478 -18.091,8.674 l -1.735,-1.487 c 0,0 1.983,-6.196 10.161,-8.178 8.178,-1.983 17.596,-0.743 19.083,3.717 z" />
	<path
   id="path280"
   d="m 129.88,109.652 c 0,0 -6.134,-9.294 1.115,-19.145 0,0 11.152,-6.134 21.747,5.39 10.595,11.524 0.372,21.375 0.372,21.375 0,0 -5.762,2.602 -13.941,-1.115 l -2.23,2.602 c 0,0 9.108,4.461 17.658,-0.186 0,0 6.134,-6.506 4.275,-15.427 -1.859,-8.921 -10.037,-14.498 -18.587,-15.613 -8.55,-1.115 -12.639,2.788 -12.639,2.788 0,0 -7.807,10.595 0.743,20.818 z" />
	<path
   id="path282"
   d="m 130.995,89.577 v -2.416 c 0,0 7.249,-3.717 16.914,0.558 9.665,4.275 13.197,14.126 13.197,18.773 0,4.647 -1.673,7.993 -2.788,8.736 -1.115,0.743 -3.717,2.602 -3.717,2.602 l -1.673,0.743 c 0,0 1.301,0.372 2.416,0.186 1.115,-0.186 6.134,-3.903 6.134,-3.903 0,0 2.788,-6.877 0,-15.242 -2.788,-8.365 -9.851,-13.569 -18.03,-15.242 -8.178,-1.673 -13.755,1.673 -14.498,2.416 -0.743,0.743 -0.929,4.089 -0.929,4.089 z" />
	<path
   id="path284"
   d="m 128.95,86.789 c 0,0 4.647,-4.089 5.576,-4.833 0.929,-0.743 14.684,-3.532 23.792,6.32 9.108,9.851 7.063,20.818 6.691,21.747 -0.372,0.929 -3.903,4.275 -3.903,4.275 l 0.372,-2.974 1.673,-2.045 c 0,0 2.602,-9.665 -5.948,-19.703 -8.55,-10.037 -21.375,-6.32 -21.375,-6.32 l -3.16,2.416 z" />
	<path
   id="path286"
   d="m 137.129,81.399 c 0,0 4.323,-4.061 13.569,-3.16 9.542,0.929 22.491,11.524 14.126,29.554 l 0.186,-5.204 c 0,0 1.673,-8.364 -2.788,-15.613 -4.461,-7.249 -16.729,-7.621 -21.004,-5.576 0,-0.001 -2.974,0.742 -4.089,-0.001 z" />
	<path
   id="path288"
   d="m 218.914,29.912 c 0,0 0.929,-5.576 -4.275,-7.807 -5.204,-2.23 -9.294,5.019 -9.665,8.364 0,0 -0.558,4.089 1.115,5.576 l 8.364,2.416 c -0.001,0.001 3.717,-7.991 4.461,-8.549 z" />
	<path
   id="path290"
   d="m 204.539,56.368 c 0,0 -1.735,-0.496 -4.213,0.124 0,0 -0.867,-0.496 0.124,-0.991 0.991,-0.496 3.097,-0.123 3.841,0.124 0.743,0.247 0.248,0.743 0.248,0.743 z" />
	<path
   id="path292"
   d="m 210.115,56.987 c 0,0 2.849,0.496 3.841,1.983 0,0 0.001,0.496 -0.495,0.496 -0.496,0 -2.23,-1.487 -3.346,-1.859 -1.115,-0.372 0,-0.62 0,-0.62 z" />
	<path
   id="path294"
   d="m 230.933,40.879 c 0,0 9.417,-7.435 27.014,-1.239 0,0 -10e-4,0.991 -1.24,0.743 -1.239,-0.248 -12.639,-4.461 -23.048,0.991 z" />
	<path
   id="path296"
   d="m 209.62,153.518 c 0,0 -1.673,2.788 -2.788,5.39 -1.115,2.602 -1.301,10.037 -1.115,12.268 0.186,2.23 0.558,5.204 -0.929,9.108 -1.487,3.903 -2.788,9.108 -2.788,11.338 0,2.23 0.372,12.825 0.372,13.755 0,0.93 0,0.929 0,0.929 l 1.115,0.743 c 0,0 -0.186,-10.037 -0.372,-12.268 -0.186,-2.23 0.372,-7.807 1.859,-11.71 1.487,-3.903 2.045,-6.691 1.859,-13.755 -0.186,-7.063 -0.558,-8.55 4.089,-15.985 z" />
	<path
   id="path298"
   d="m 204.787,155.191 c 0,0 -1.115,4.089 -1.673,6.32 -0.558,2.231 -1.673,4.833 -1.487,7.063 0.186,2.23 0.372,6.506 -0.929,9.851 -1.301,3.345 -2.788,7.807 -2.788,10.967 0,3.16 -0.372,14.126 -0.372,14.684 0,0.558 -0.186,2.416 -0.186,2.416 0,0 -0.558,0.186 -0.372,-2.974 0.186,-3.16 0.372,-9.665 0.372,-12.454 0,-2.789 0.743,-3.903 1.859,-10.409 1.115,-6.506 2.045,-6.877 1.673,-9.851 -0.372,-2.974 0.186,-5.019 0.929,-8.364 0.743,-3.346 2.416,-7.621 2.416,-9.294 0,-1.673 1.115,-0.186 0.558,2.045 z" />
	<path
   id="path300"
   d="m 211.726,160.209 c 0,0 0.123,-1.983 2.23,-3.222 2.107,-1.239 3.717,1.983 -0.372,4.585 0,0 -0.123,0.619 0.248,1.983 0.372,1.363 -1.115,2.726 -1.115,2.726 0,0 0.619,0.372 -0.248,1.363 -0.867,0.991 -1.487,0.743 -1.487,0.743 0,0 1.239,1.611 1.115,3.098 -0.123,1.487 -2.478,2.107 -2.478,2.107 0,0 -0.743,0.248 0.124,0.62 0.867,0.372 4.461,1.859 4.833,3.098 0.372,1.239 -3.47,3.965 -3.47,3.965 l 0.619,0.619 c 0,0 2.23,-3.842 4.213,-1.859 1.983,1.983 -1.983,6.568 -4.833,7.931 0,0 -0.868,0.991 0.248,1.363 1.115,0.372 5.204,0 5.329,3.222 0.124,3.222 -2.85,4.585 -5.452,3.346 0,0 -1.115,0 -0.124,0.496 0.991,0.496 2.602,1.363 2.23,3.594 -0.372,2.23 -4.585,3.47 -7.187,1.487 l -0.743,0.372 c 0,0 1.611,-0.248 1.611,1.859 0,2.106 -4.089,2.106 -4.089,2.106 l 0.248,0.992 c 0,0 3.717,-0.124 4.585,-1.239 0.868,-1.115 0.372,-2.355 0.372,-2.355 0,0 3.841,0.619 5.824,-1.859 1.983,-2.478 -0.248,-4.089 -0.248,-4.089 0,0 4.213,-0.496 4.213,-4.833 0,-4.337 -4.956,-3.965 -4.956,-3.965 0,0 4.584,-3.346 4.709,-6.568 0.125,-3.222 -2.602,-3.098 -2.602,-3.098 0,0 0.62,-0.62 0.62,-1.735 0,-1.115 -4.213,-3.222 -4.213,-3.222 0,0 1.983,-1.364 1.859,-2.726 -0.124,-1.362 -1.115,-1.983 -1.115,-1.983 0,0 1.983,-0.496 1.611,-2.85 0,0 1.611,-1.487 0.743,-4.213 0,0 2.601,-1.611 2.354,-4.461 -0.248,-2.85 -4.213,-2.726 -5.576,1.239 -0.002,0 -0.25,0.62 0.37,1.363 z" />
	<path
   id="path302"
   d="m 212.469,157.979 c 0,0 1.612,-2.354 -0.867,-4.585 l 0.805,-0.62 c 0,0 1.672,1.239 1.549,3.346 z" />
	<path
   id="path304"
   d="m 204.043,153.518 c 0,0 -1.735,0.743 -2.602,0.496 -0.868,-0.248 -2.477,0.619 -2.85,2.23 -0.372,1.611 1.61,4.709 1.61,4.709 0,0 -1.363,0 -2.478,-0.496 -1.115,-0.496 -2.726,0.372 -3.098,2.354 -0.372,1.983 0.867,3.841 3.717,4.585 0,0 0.371,0.743 -0.124,0.62 -0.496,-0.124 -2.602,-0.372 -3.346,1.487 -0.743,1.859 3.222,3.965 3.222,3.965 0,0 -0.743,0 -1.115,0.743 -0.372,0.743 0.991,1.487 0.991,1.487 0,0 -2.23,-0.868 -3.222,0.867 -0.991,1.735 0.867,3.222 2.23,3.594 0,0 -0.868,0 -0.991,0.867 -0.124,0.867 0.743,1.363 0.743,1.363 0,0 -3.346,0 -3.841,1.735 -0.496,1.735 2.478,4.461 2.478,4.461 0,0 0.124,1.859 -0.62,1.735 -0.743,-0.124 -1.983,0.62 -2.974,-0.372 -0.991,-0.991 -3.345,-1.859 -4.585,0.743 -1.239,2.602 1.115,6.692 3.965,7.311 2.85,0.619 3.346,0 3.222,0.619 -0.124,0.62 -1.487,1.239 -1.239,2.478 0.248,1.239 1.982,1.61 2.85,0.619 0,0 -1.239,0.868 -1.363,2.107 -0.124,1.239 1.735,2.23 1.735,2.23 l -1.239,0.372 c 0,0 -1.363,-1.24 -1.611,-2.107 -0.248,-0.867 0.248,-1.115 0.248,-1.115 0,0 -1.61,-0.247 -2.106,-1.61 -0.496,-1.363 0.991,-2.23 0.991,-2.23 0,0 -4.337,-0.001 -6.567,-4.585 -2.23,-4.585 1.115,-7.435 2.85,-7.311 1.735,0.124 3.098,1.487 3.717,1.735 0.62,0.248 1.363,0.372 0.743,-0.372 -0.619,-0.743 -2.355,-2.85 -1.859,-4.956 0.496,-2.107 3.346,-2.23 3.346,-2.23 0,0 -0.743,-0.991 0,-1.487 0,0 -1.983,-1.859 -1.239,-3.717 0.743,-1.859 2.107,-1.611 2.107,-1.611 0,0 -0.743,-0.991 0.124,-1.487 0,0 -2.85,-1.735 -2.354,-3.717 0.496,-1.983 2.354,-2.23 2.354,-2.23 0,0 -3.222,-1.735 -2.478,-5.328 0.743,-3.594 5.081,-2.354 5.081,-2.354 0,0 -2.726,-2.106 -0.743,-4.833 1.983,-2.726 5.7,-2.23 5.7,-2.23 0,0 1.116,-0.373 0.62,0.866 z" />
	<path
   id="path306"
   d="m 200.945,144.72 c 0,0 -3.717,-1.115 -6.196,-0.991 0,0 0.248,0.867 1.363,0.867 1.115,0 4.336,0.496 4.832,1.735 0.496,1.239 1.487,0.372 1.239,-0.743 -0.246,-1.116 -1.238,-0.868 -1.238,-0.868 z" />
	<path
   id="path308"
   d="m 200.698,147.074 c 0,0 -0.248,1.115 -1.983,1.859 -1.735,0.743 -3.47,0.619 -3.47,0.619 0,0 -0.248,0.62 1.239,0.62 1.487,0 4.214,0 4.709,-1.239 0.496,-1.239 -0.495,-1.859 -0.495,-1.859 z" />
	<path
   id="path310"
   d="m 213.337,145.525 c 0,0 3.222,-0.682 4.708,-1.177 1.487,-0.496 3.966,-0.62 4.709,-0.372 0.743,0.248 0.124,0.372 -0.495,0.372 -0.62,0 -7.683,1.859 -8.551,2.726 -0.867,0.868 -0.743,-0.991 -0.371,-1.549 z" />
	<path
   id="path312"
   d="m 213.833,148.19 c 0,0 0.868,0.867 3.346,1.239 2.478,0.372 4.337,0 4.337,0 0,0 -0.373,0.372 -1.24,0.743 -0.867,0.372 -5.081,0.991 -6.691,-0.372 -1.611,-1.363 -1.239,-1.858 0.248,-1.61 z" />
</g>

</svg>
