<?xml version="1.0" encoding="utf-8"?>
<!DOCTYPE svg PUBLIC "-//W3C//DTD SVG 1.1//EN" "http://www.w3.org/Graphics/SVG/1.1/DTD/svg11.dtd">
<svg version="1.1" id="Слой_1" xmlns="http://www.w3.org/2000/svg" xmlns:xlink="http://www.w3.org/1999/xlink" x="0px" y="0px"
	 width="150px" height="150px" viewBox="0 0 150 150" enable-background="new 0 0 150 150" xml:space="preserve">
<g>
	<path fill="#853114" d="M88.629,103.987c-4.544-4.745-11.424-3.999-17.957-3.3c-3.284,0.352-5.186,0.363-7.453,2.765
		c-1.712,1.814-8.398,26.3-9.907,35.878c-0.185,1.172-0.363,2.386-0.053,3.531c0.31,1.145,1.246,2.209,2.431,2.278
		c1.014,0.059,1.92-0.591,2.706-1.234c2.993-2.446,4.51-5.931,6.829-9.025c-0.602,2.525-0.327,5.951,0.201,8.492
		c0.528,2.541,2.273,5.015,5.426,4.975c3.148-0.04,5.54-6.179,5.273-8.385c0.201,3.21,3.076,9.161,7.556,8.358
		c3.705-0.664,4.542-9.803,3.343-13.24c0.704,1.93,3.989,6.747,5.483,8.158c1.494,1.41,2.733,2.879,4.748,2.474
		c2.87-0.577,2.05-7.672,1.605-10.565C98.191,130.801,90.751,106.204,88.629,103.987z"/>
	<path fill="#C27240" d="M65.493,114.552c-4.557,0-8.832,0.195-13.24,0.802c-2.148,0.296-4.015,0.2-6.009,0.812
		c-1.752,0.538-3.328,1.777-5.225,2.318c-4.643,1.324-9.589-0.389-13.953,2.597c-2.301,1.575-7.425,5.861-8.855,8.215
		c3.01,2.789,1.658,9.594,6.593,6.323c2.354-1.561,2.46-4.173,4.646-5.806c2.122-1.584,6.385-2.872,8.84-3.949
		c10.137-4.445,19.049-4.859,30.031-3.689c6.94,0.739,13.125-0.517,19.877-1.003c3.048-0.219,6.384-0.375,9.39,0.181
		c4.337,0.802,6.154,2.686,9.63,4.834c3.41,2.107,7.05,2.247,10.318,4.834c2.136,1.691,2.442,3.909,4.374,5.567
		c4.34,3.724,10.559-11.332,5.795-14.839c-2.416-1.778-5.917-1.278-8.854-2.15c-2.525-0.75-4.772-2.083-7.289-2.689
		c-5.518-1.33-11.081-3.151-16.794-3.16c-4.849-0.008-9.519,0.802-14.421,0.802C75.566,114.553,69.066,115.609,65.493,114.552z"/>
	<path fill="#853114" d="M51.466,107.518c1.919,0.388,4.142,0.462,5.585-0.861c1.701-1.559,1.517-4.245,1.189-6.529
		c-2.185-15.205-5.199-31.08-14.914-42.979c-8.469,6.517-13.514,17.535-12.07,28.123S40.992,105.399,51.466,107.518z"/>
	<path fill="#853114" d="M100.321,107.518c-1.919,0.388-4.142,0.462-5.585-0.861c-1.701-1.559-1.517-4.245-1.189-6.529
		c2.185-15.205,5.199-31.08,14.914-42.979c8.469,6.517,13.514,17.535,12.07,28.123S110.794,105.399,100.321,107.518z"/>
	<path fill="#F39157" d="M37.664,61.159c2.785,2.385,6.617,4.194,7.469,7.761c0.684,2.864-0.878,5.713-1.887,8.48
		c-3.093,8.474-0.885,18.403,4.728,25.464c5.614,7.061,14.268,11.356,23.194,12.662c10.474,1.533,21.735-1.043,29.738-7.971
		c8.003-6.928,12.204-18.382,9.435-28.599c-1.237-4.562-3.744-9.405-1.832-13.728c1.13-2.553,3.698-3.125,5.731-5.038
		c5.72-5.383,6.248-13.477,5.216-21.264c-1.032-7.786-4.91-18.36-11.835-22.066c-7.968-4.265-16.358-1.695-25.357-0.87
		c-9,0.825-18.343,1.95-26.861-1.07c-2.749-0.975-2.502-1.08-5.354-0.467c-3.448,0.741-5.817,1.404-8.826,4.614
		c-5.063,5.401-8.666,14.455-9.799,21.771S32.041,56.344,37.664,61.159z"/>
	<g>
		<defs>
			<path id="XMLID_3_" d="M68.048,31.608c2.169,3.287,2.29,7.511,1.838,11.423c-0.43,3.724-1.176,7.956,1.216,10.843
				c2.133,2.575,6.174,2.924,9.194,1.489c3.021-1.435,5.148-4.272,6.667-7.251c1.519-2.979,2.55-6.19,4.099-9.153
				c2.736-5.233,3.725-10.958,8.934-13.741c12.638-6.754,18.193-15.955,18.455-21.13c-13.545,6.431-25.13,10.805-40.12,11.167
				s-29.41-4.31-41.474-13.216c1.98,9.078,8.344,17.094,16.736,21.081C58.72,25.555,64.922,26.87,68.048,31.608z"/>
		</defs>
		<use xlink:href="#XMLID_3_"  overflow="visible" fill="#853114"/>
		<clipPath id="XMLID_2_">
			<use xlink:href="#XMLID_3_"  overflow="visible"/>
		</clipPath>
		<path clip-path="url(#XMLID_2_)" fill="#F39157" d="M76.994,31.637c1.638-6.754,5.411-13.84,9.261-18.589
			c-3.32-0.39-21.995-2.924-19.057,0.602C71.21,18.464,76.024,26.488,76.994,31.637z"/>
	</g>
	<path fill="#FFE609" d="M74.428,52.535c3.441-0.358,7.38,0.634,9.653,2.64c-3.39,2.335-5.796,5.267-7.383,9.065
		c-2.513-4.518-4.787-5.856-8.004-8.561C69.75,53.666,72.168,52.77,74.428,52.535z"/>
	<g>
		<g>
			<g>
				<path fill="#FFE609" d="M65.426,112.616c-3.374,0.286-6.322,2.579-8.744,4.785c-1.985,1.807-5.802,5.813-4.943,8.736
					c0.092,0.314,0.47,0.488,0.759,0.309c1.063-0.657,1.395-1.644,1.977-2.734c0.832-1.558,1.954-2.946,3.133-4.25
					c2.324-2.568,5.342-3.91,8.069-5.918C66.033,113.283,65.972,112.57,65.426,112.616L65.426,112.616z"/>
			</g>
		</g>
		<g>
			<g>
				<path fill="#FFE609" d="M65.312,112.838c-1.845,1.617-2.746,3.919-3.635,6.156c-0.885,2.228-2.199,5.663-1.228,7.993
					c0.173,0.415,0.638,0.483,0.911,0.119c1.327-1.769,1.36-4.526,2.002-6.637c0.746-2.452,2.06-4.757,2.581-7.262
					C66.023,112.829,65.601,112.585,65.312,112.838L65.312,112.838z"/>
			</g>
		</g>
		<g>
			<g>
				<path fill="#FFE609" d="M65.273,113.127c-1.275,4.17-0.454,11.451,2.874,14.556c0.275,0.257,0.685,0.067,0.709-0.294
					c0.147-2.178-0.842-4.166-1.447-6.226c-0.779-2.651-1.12-5.308-1.495-8.036C65.866,112.78,65.36,112.84,65.273,113.127
					L65.273,113.127z"/>
			</g>
		</g>
	</g>
	<g>
		<g>
			<g>
				<path fill="#FFE609" d="M89.143,113.777c-2.382,1.02-3.881,3.14-5.031,5.38c-1.09,2.122-2.208,5.484-0.865,7.68
					c0.165,0.271,0.57,0.279,0.733,0c1.058-1.809,1.005-4.194,1.694-6.184c0.842-2.433,2.346-4.46,3.797-6.547
					C89.625,113.884,89.338,113.693,89.143,113.777L89.143,113.777z"/>
			</g>
		</g>
		<g>
			<g>
				<path fill="#FFE609" d="M88.889,114.561c0.166,1.711,0.844,3.405,1.203,5.089c0.425,1.994,0.183,4.653,1.467,6.281
					c0.202,0.257,0.618,0.144,0.768-0.099c1.134-1.837,0.152-4.741-0.377-6.694c-0.448-1.654-1.277-3.56-2.431-4.838
					C89.314,114.073,88.858,114.24,88.889,114.561L88.889,114.561z"/>
			</g>
		</g>
		<g>
			<g>
				<path fill="#FFE609" d="M89.034,114.95c1.912,1.661,3.898,2.961,5.466,5.001c1.323,1.721,1.914,3.901,3.294,5.564
					c0.217,0.261,0.64,0.098,0.725-0.191c1.33-4.537-4.729-10.679-8.892-11.391C89.083,113.838,88.528,114.51,89.034,114.95
					L89.034,114.95z"/>
			</g>
		</g>
	</g>
	<circle fill="#FFFFFF" cx="56.466" cy="43.74" r="18.656"/>
	<circle fill="#FFFFFF" cx="96.787" cy="43.941" r="18.656"/>
	<g>
		<circle fill="#1E1E1C" cx="57.937" cy="44.208" r="7.761"/>
		<circle fill="#FFFFFF" cx="56.105" cy="46.279" r="1.94"/>
	</g>
	<g>
		<circle fill="#1E1E1C" cx="96.452" cy="44.409" r="7.761"/>
		<circle fill="#FFFFFF" cx="94.62" cy="46.48" r="1.94"/>
	</g>
</g>
</svg>
