<?xml version="1.0" encoding="utf-8"?>
<!-- Generator: Adobe Illustrator 18.1.1, SVG Export Plug-In . SVG Version: 6.00 Build 0)  -->
<svg version="1.1" id="Layer_1" xmlns="http://www.w3.org/2000/svg" xmlns:xlink="http://www.w3.org/1999/xlink" x="0px" y="0px"
	 viewBox="0 0 400 400" enable-background="new 0 0 400 400" xml:space="preserve">
<g>
	<g>
		<path fill="#A4314B" d="M280,119.4c0,0,13.9,7.1,28.9,12.6c15,5.4,26,7,27.2,4c1.2-3-3.9-16-49.9-38.3c-46-22.3-58-21-57.8-16.6
			c0.2,4.4,2,10.8,42.2,34.3L280,119.4z"/>
		<g>
			<path fill="#FAFAFA" d="M310.1,72.6c0,0,1.8-3.5,2.2-4.6c0.4-1.2,0.1-4.3-0.5-6c-1.6-4.8-5.8-5.3-8.4-4.4
				c-1.6,0.5-4.8,2.4-5.2,3.1c-0.4,0.7-2.6,4.9-2.6,4.9s5.8,2.6,8.3,3.9C306.6,70.8,310.1,72.6,310.1,72.6z"/>
			<path fill="#BCBCBB" d="M307.6,71.3l3.6-6.7c0,0-0.5-4.6-1.7-6.1c0,0,1.7,1.9,2.2,3.7c0.5,1.9,1.1,4.4,0.7,5.6
				c-0.4,1.2-2.2,4.8-2.2,4.8L307.6,71.3z"/>
			<path fill="#B0AFAF" d="M300.6,67.8l4-7.5c0,0,1.4-2.2,3.2-2.8c0,0-3-0.8-6,1c-3,1.8-3.2,1.9-3.2,1.9l-2.8,5.1L300.6,67.8z"/>
			<g>
				<defs>
					<path id="SVGID_1_" d="M310.1,72.6c0,0,1.8-3.5,2.2-4.6c0.4-1.2,0.1-4.3-0.5-6c-1.6-4.8-5.8-5.3-8.4-4.4
						c-1.6,0.5-4.8,2.4-5.2,3.1c-0.4,0.7-2.6,4.9-2.6,4.9s5.8,2.6,8.3,3.9C306.6,70.8,310.1,72.6,310.1,72.6z"/>
				</defs>
				<clipPath id="SVGID_2_">
					<use xlink:href="#SVGID_1_"  overflow="visible"/>
				</clipPath>
				<path clip-path="url(#SVGID_2_)" fill="#EAEAEA" d="M312.3,67.8l-1.1-3.2l-6.7-4.1l-6-0.1c0,0,0.7-1.4,1.9-2
					c1.2-0.6,3.7-2.3,6.2-1.6c2.5,0.7,3.7,1.9,4.1,2.3c0.4,0.5,1.5,2.2,1.8,3.8c0.3,1.6,0.3,3.3,0.2,3.8
					C312.7,67.2,312.3,67.8,312.3,67.8z"/>
			</g>
		</g>
		<g>
			<polygon fill="#C7C6C7" points="275.2,127.5 290.7,100.3 281.7,95.5 266.5,122.2 			"/>
			<polygon fill="#8E8E8E" points="285.4,97.6 270.5,124.7 266.5,122.2 281.6,95.7 			"/>
			<polygon fill="#9E9E9E" points="290.7,100.3 288.8,99.3 273.6,126.6 275.2,127.5 			"/>
		</g>
		<path fill="#E9486E" d="M336.2,135.9c0,0,7-13.4,5.2-27c-1.8-13.6-19.2-29.8-31.2-36.3c-12-6.4-29-14.4-44.9-15
			c-15.8-0.6-26.4,5.5-35.9,21.7c0,0,1.9-1.6,7.5-0.3c5.5,1.3,18.5,5.6,35.9,13c17.4,7.5,16.2,7.3,25.9,12.7
			c9.7,5.4,22,12.5,27.2,17.2c5.2,4.7,8.2,8,9.1,10.4C335.7,134,336.2,135.9,336.2,135.9z"/>
	</g>
	<g>
		<g>
			<g>
				<path fill="#BFBFBF" d="M200.7,13.4c4.4,0.3,30.9,2.6,45.9,11.5c0,0,9.1,4.3,12.6,10.7c3.5,6.4,8.3,22.1,8.3,22.1l11.2,2.5
					c0,0-7.7-16.6-10.4-23.8c-2.7-7.2-9.6-15.8-25.1-21.9c-14.6-5.8-32.4-8.7-42-9.1v0c-0.3,0-0.5,0-0.8,0L200.7,13.4z"/>
				<path fill="#8E8E8E" d="M200.7,13.4c-3.7,0.3-36,2.9-50.3,11.5c0,0-9.1,4.3-12.6,10.7c-3.5,6.4-8.3,22.1-8.3,22.1l-11.2,2.5
					c0,0,7.7-16.6,10.4-23.8c2.7-7.2,9.6-15.8,25.1-21.9c14.6-5.8,36.1-8.7,45.6-9.1l0,0c0.3,0,0.5,0,0.8,0L200.7,13.4z"/>
			</g>
			<g>
				<path fill="#6B0F34" d="M118.6,119.4c0,0-13.9,7.1-28.9,12.6s-26,7-27.2,4c-1.2-3,3.9-15.6,50-38c46-22.3,57.8-21.5,57.8-16.9
					c0,4.4-2,10.8-42.2,34.3L118.6,119.4z"/>
				<g>
					<g>
						<path fill="#EFEFEF" d="M88.5,72.6c0,0-1.8-3.5-2.2-4.6c-0.4-1.2-0.1-4.3,0.5-6c1.6-4.8,5.8-5.3,8.4-4.4
							c1.6,0.5,4.8,2.4,5.2,3.1c0.4,0.7,2.6,4.9,2.6,4.9s-5.8,2.6-8.3,3.9C92.1,70.8,88.5,72.6,88.5,72.6z"/>
						<path fill="#9E9E9E" d="M91.1,71.3l-3.6-6.7c0,0,0.5-4.6,1.7-6.1c0,0-1.7,1.9-2.2,3.7c-0.5,1.9-1.1,4.4-0.7,5.6
							c0.4,1.2,2.2,4.8,2.2,4.8L91.1,71.3z"/>
						<path fill="#8E8E8E" d="M98.1,67.8l-4-7.5c0,0-1.4-2.2-3.2-2.8c0,0,3-0.8,6,1c3,1.8,3.2,1.9,3.2,1.9l2.8,5.1L98.1,67.8z"/>
					</g>
					<g>
						<defs>
							<path id="SVGID_3_" d="M88.5,72.6c0,0-1.8-3.5-2.2-4.6c-0.4-1.2-0.1-4.3,0.5-6c1.6-4.8,5.8-5.3,8.4-4.4
								c1.6,0.5,4.8,2.4,5.2,3.1c0.4,0.7,2.6,4.9,2.6,4.9s-5.8,2.6-8.3,3.9C92.1,70.8,88.5,72.6,88.5,72.6z"/>
						</defs>
						<clipPath id="SVGID_4_">
							<use xlink:href="#SVGID_3_"  overflow="visible"/>
						</clipPath>
						<path clip-path="url(#SVGID_4_)" fill="#D6D7D7" d="M86.3,67.8l1.1-3.2l6.7-4.1l6-0.1c0,0-0.7-1.4-1.9-2
							c-1.2-0.6-3.7-2.3-6.2-1.6c-2.5,0.7-3.7,1.9-4.1,2.3c-0.4,0.5-1.5,2.2-1.8,3.8c-0.3,1.6-0.3,3.3-0.2,3.8
							C86,67.2,86.3,67.8,86.3,67.8z"/>
					</g>
				</g>
				<g>
					<polygon fill="#A3A3A2" points="123.3,127.5 107.8,100.3 116.8,95.5 132,122.2 					"/>
					<polygon fill="#737373" points="113.2,97.6 128,124.7 132,122.2 116.9,95.7 					"/>
					<polygon fill="#828383" points="107.8,100.3 109.7,99.3 124.9,126.6 123.3,127.5 					"/>
				</g>
				<path fill="#A6144A" d="M62.5,135.9c0,0-7-13.4-5.2-27C59.1,95.3,76.5,79,88.5,72.6c12-6.4,29-14.4,44.9-15
					c15.8-0.6,26.4,5.5,35.9,21.7c0,0-1.9-1.6-7.5-0.3c-5.5,1.3-18.5,5.6-35.9,13c-17.4,7.5-16.2,7.3-25.9,12.7
					c-9.7,5.4-22,12.5-27.2,17.2c-5.3,4.7-8,7.8-9.2,10.4C62.9,133.9,62.5,135.9,62.5,135.9z"/>
			</g>
		</g>
		<g>
			<g>
				<rect x="199.3" y="81.3" fill="#A9A9AA" width="1.7" height="23.4"/>
				<g>
					<path fill="#919191" d="M213.3,73.4h-13.1h-0.9H187c0,0-2.1,2.1-2.1,5.7c0,3.6,2.3,5.9,2.3,5.9h12.2h0.9h13
						c0,0,2.3-2.3,2.3-5.9C215.4,75.6,213.3,73.4,213.3,73.4z"/>
					<path fill="#BFBFBF" d="M200.2,73.4V85h13c0,0,2.3-2.2,2.3-5.9c0-3.7-2.1-5.7-2.1-5.7H200.2z"/>
				</g>
			</g>
			<g>
				<g>
					<path fill="#A6144A" d="M199.7,382.7c-76.8,0-139-62.2-139-139c0-76.8,62.2-139,139-139V382.7z"/>
					<path fill="#E9486E" d="M199.7,382.7c76.8,0,139-62.2,139-139c0-76.8-62.2-139-139-139V382.7z"/>
				</g>
				<g>
					<path fill="#E2E1E1" d="M199.7,118.3c-69.3,0-125.4,56.1-125.4,125.4c0,69.2,56.1,125.4,125.4,125.4V118.3z"/>
					<path fill="#EFEFEF" d="M199.7,369.1c69.3,0,125.4-56.1,125.4-125.4c0-69.3-56.1-125.4-125.4-125.4V369.1z"/>
				</g>
				<g>
					<path fill="#F2F4F4" d="M199.5,361.8c-65.3,0-118.2-52.9-118.2-118.2c0-65.3,52.9-118.2,118.2-118.2V361.8z"/>
					<path fill="#FFFFFF" d="M199.5,361.8c65.3,0,118.2-52.9,118.2-118.2c0-65.3-52.9-118.2-118.2-118.2V361.8z"/>
				</g>
				<g>
					<g>
						<text transform="matrix(1 0 0 1 96.792 253.3496)" fill="#010202" font-family="'Heuristica-Regular'" font-size="28.8433">9</text>
						
							<text transform="matrix(1 0 0 1 186.4741 155.8926)" fill="#343434" font-family="'Heuristica-Regular'" font-size="28.8433" letter-spacing="-2">12</text>
						<text transform="matrix(1 0 0 1 245.5488 174.6973)" fill="#343434" font-family="'Heuristica-Regular'" font-size="28.8433">1</text>
						<text transform="matrix(1 0 0 1 274.7939 208.2158)" fill="#343434" font-family="'Heuristica-Regular'" font-size="28.8433">2</text>
						<text transform="matrix(1 0 0 1 288.8145 253.3496)" fill="#343434" font-family="'Heuristica-Regular'" font-size="28.8433">3</text>
						<text transform="matrix(1 0 0 1 274.7939 297.8164)" fill="#343434" font-family="'Heuristica-Regular'" font-size="28.8433">4</text>
						<text transform="matrix(1 0 0 1 245.5488 335.3389)" fill="#343434" font-family="'Heuristica-Regular'" font-size="28.8433">5</text>
						<text transform="matrix(1 0 0 1 191.7544 350.2949)" fill="#343434" font-family="'Heuristica-Regular'" font-size="28.8433">6</text>
						<text transform="matrix(1 0 0 1 142.4604 335.3389)" fill="#343434" font-family="'Heuristica-Regular'" font-size="28.8433">7</text>
						<text transform="matrix(1 0 0 1 109.8784 297.8164)" fill="#343434" font-family="'Heuristica-Regular'" font-size="28.8433">8</text>
						
							<text transform="matrix(1 0 0 1 105.606 208.2158)" fill="#343434" font-family="'Heuristica-Regular'" font-size="28.8433" letter-spacing="-2">10</text>
						
							<text transform="matrix(1 0 0 1 137.2896 174.6973)" fill="#343434" font-family="'Heuristica-Regular'" font-size="28.8433" letter-spacing="-2">11</text>
					</g>
					<g>
						<circle fill="#010202" cx="199.5" cy="243.6" r="9.8"/>
					</g>
				</g>
			</g>
		</g>
	</g>
</g>
<g>
	<g>
		<polygon fill="#B0AFAF" points="291.5,348.3 295.4,355.5 295.4,358.4 309.6,380.6 302.4,386.7 284.5,365.1 282.1,364.5 
			277.3,359.2 		"/>
		<polygon fill="#E0DEDF" points="287.8,351.4 292.8,358.8 293.4,361.9 307.1,382.7 309.6,380.6 295.4,358.4 295.4,355.5 
			291.5,348.3 		"/>
		<circle fill="#B0AFAF" cx="308.8" cy="386.7" r="6.5"/>
		<g>
			<defs>
				<circle id="SVGID_5_" cx="308.8" cy="386.7" r="6.5"/>
			</defs>
			<clipPath id="SVGID_6_">
				<use xlink:href="#SVGID_5_"  overflow="visible"/>
			</clipPath>
			<path clip-path="url(#SVGID_6_)" fill="#E0DEDF" d="M305.9,380.8c0,0,8.1,1,8.7,10.1l2.4-6.1l-2.7-4.7l-3.2-1.4l-3.6,0.7
				L305.9,380.8z"/>
		</g>
	</g>
	<g>
		<polygon fill="#8E8E8E" points="108.2,348.3 104.2,355.5 104.2,358.4 90.1,380.6 97.3,386.7 115.2,365.1 117.6,364.5 122.4,359.2 
					"/>
		<polygon fill="#CAC9C9" points="111.9,351.4 106.9,358.8 106.2,361.9 92.6,382.7 90.1,380.6 104.2,358.4 104.2,355.5 108.2,348.3 
					"/>
		<circle fill="#919191" cx="90.9" cy="386.7" r="6.6"/>
		<g>
			<defs>
				<circle id="SVGID_7_" cx="90.9" cy="386.7" r="6.6"/>
			</defs>
			<clipPath id="SVGID_8_">
				<use xlink:href="#SVGID_7_"  overflow="visible"/>
			</clipPath>
			<path clip-path="url(#SVGID_8_)" fill="#CAC9C9" d="M93.8,380.8c0,0-8.1,1-8.7,10.1l-2.4-6.1l2.7-4.7l3.2-1.4l3.6,0.7L93.8,380.8
				z"/>
		</g>
	</g>
</g>
</svg>
