<?xml version="1.0" encoding="utf-8"?>
<!-- Generator: Adobe Illustrator 18.1.1, SVG Export Plug-In . SVG Version: 6.00 Build 0)  -->
<svg version="1.1" id="Layer_1" xmlns="http://www.w3.org/2000/svg" xmlns:xlink="http://www.w3.org/1999/xlink" x="0px" y="0px"
	 viewBox="0 0 100 100" enable-background="new 0 0 100 100" xml:space="preserve">
<path fill="#010202" d="M56.6,36.9c-1.9-3.3-3-6.4-3.7-11.8C52.3,19.7,52.5,12,52.5,12l-1.9,0.1L48.7,12c0,0,0.2,7.7-0.5,13.1
	c-0.7,5.4-1.8,8.5-3.7,11.8c-1.9,3.3-4.3,7-2.3,10.4c2,3.4,5.4,4.2,5.4,4.2l-0.2,34.9l6.5,0l-0.2-34.9c0,0,3.4-0.7,5.4-4.2
	C61,43.9,58.5,40.2,56.6,36.9z"/>
</svg>
