<svg xmlns="http://www.w3.org/2000/svg" width="500" height="247" viewBox="0 0 500 247" version="1.1">
	<path d="M 145.400 4.765 C 143.561 5.993, 142.290 9.245, 141.593 14.500 C 141.228 17.250, 140.281 23.100, 139.487 27.500 C 138.694 31.900, 135.771 48.325, 132.991 64 C 130.211 79.675, 127.232 96.424, 126.370 101.219 L 124.803 109.939 116.519 112.466 C 107.921 115.088, 107.050 115.932, 107.014 121.667 C 107.006 122.858, 106.528 123.991, 105.952 124.183 C 105.375 124.375, 104.633 127.152, 104.303 130.355 C 103.884 134.410, 103.216 136.347, 102.101 136.736 C 101.220 137.043, 98.612 138.128, 96.305 139.147 C 93.998 140.166, 91.812 141, 91.449 141 C 91.086 141, 89.452 142.125, 87.818 143.500 C 86.184 144.875, 84.261 146, 83.546 146 C 82.830 146, 81.745 146.602, 81.134 147.338 C 79.818 148.924, 73.589 150.771, 54 155.383 C 32.446 160.458, 12.263 162.798, 8.775 160.625 C 7.562 159.869, 6.736 159.864, 5.992 160.608 C 5.248 161.352, 5.612 161.641, 7.217 161.583 C 9.249 161.509, 9.500 161.967, 9.500 165.751 C 9.500 168.443, 9.950 170.002, 10.726 170.001 C 11.401 170.001, 14.312 172.250, 17.195 175 C 20.078 177.750, 22.789 180, 23.219 180 C 23.648 180, 24 180.626, 24 181.392 C 24 182.157, 25.055 183.048, 26.343 183.371 C 27.632 183.695, 29.824 185.097, 31.214 186.486 C 33.664 188.937, 40.624 194, 41.542 194 C 41.791 194, 44.188 195.575, 46.867 197.500 C 49.547 199.425, 52.388 201, 53.181 201 C 53.974 201, 55.524 201.839, 56.624 202.865 C 59.175 205.241, 63.241 207.500, 64.375 207.171 C 64.856 207.031, 66.018 207.611, 66.956 208.460 C 69.224 210.513, 80.914 214.534, 89 216.042 C 109.339 219.837, 140.633 215.056, 168.271 203.932 C 173.644 201.770, 178.930 200, 180.016 200 C 181.192 200, 186.133 204.174, 192.245 210.331 C 207.776 225.977, 223.451 235.432, 242.536 240.666 C 251.525 243.131, 254.114 243.398, 269 243.394 C 288.496 243.388, 297.132 241.743, 315.666 234.502 C 328.842 229.355, 336.834 225.207, 361 210.973 C 370.075 205.627, 383.350 197.895, 390.500 193.789 C 397.892 189.544, 403.923 185.399, 404.479 184.180 C 405.018 183.001, 406.593 181.591, 407.979 181.048 C 425.734 174.093, 444.056 153.455, 453.995 129.218 C 456.631 122.788, 457.738 121.080, 458.945 121.581 C 459.800 121.936, 461.301 122.457, 462.279 122.738 C 463.258 123.019, 465.856 126.274, 468.053 129.972 C 470.250 133.670, 473.049 137.596, 474.274 138.696 C 478.248 142.266, 494.305 153, 495.671 153 C 496.595 153, 497.031 151.398, 497.101 147.750 C 497.157 144.863, 497.361 140.743, 497.554 138.597 C 497.748 136.450, 497.480 133.897, 496.960 132.924 C 496.439 131.952, 491.434 127.928, 485.839 123.984 C 475.764 116.882, 475.614 116.817, 470.582 117.400 C 466.121 117.916, 465.157 117.682, 462.690 115.491 L 459.881 112.993 462.007 102.747 C 463.177 97.111, 464.390 87.775, 464.702 82 C 465.015 76.225, 465.641 71.027, 466.093 70.448 C 466.992 69.300, 466.190 65, 465.078 65 C 464.699 65, 462.864 66.125, 461 67.500 C 459.136 68.875, 456.911 70.003, 456.056 70.006 C 452.868 70.017, 447.120 72.108, 443.472 74.584 L 439.707 77.139 423.103 76.005 C 409.042 75.044, 406.184 74.574, 404.436 72.935 C 403.300 71.871, 401.440 71, 400.302 71 C 398.351 71, 392.768 67.532, 378.248 57.301 C 374.810 54.879, 370.527 52.282, 368.731 51.532 C 365.543 50.200, 365.436 49.952, 364.239 41.166 C 362.562 28.852, 361.867 27.338, 357.298 26.047 C 351.096 24.294, 328.139 22.772, 319.108 23.514 C 311.786 24.115, 310.403 24.541, 308.257 26.852 C 302.173 33.406, 296.068 46.699, 292.346 61.500 C 291.837 63.524, 291.373 59.946, 290.920 50.500 C 290.174 34.964, 289.236 31.420, 285.493 29.997 C 282.276 28.774, 272.850 27.341, 262.359 26.480 L 254.219 25.811 252.435 21.856 C 250.162 16.816, 244.973 12.245, 240.771 11.583 C 238.972 11.299, 229.175 10.873, 219 10.636 C 195.390 10.087, 161.019 7.331, 154.346 5.451 C 148.565 3.823, 146.991 3.703, 145.400 4.765 M 147.686 9.750 C 147.449 10.162, 146.932 12.750, 146.537 15.500 C 145.862 20.198, 139.337 57.185, 133.041 92 C 131.499 100.525, 130.316 107.594, 130.411 107.709 C 130.507 107.824, 135.971 106.511, 142.554 104.791 C 150.354 102.753, 155.476 101.903, 157.258 102.350 C 158.762 102.727, 162.383 105.391, 165.304 108.268 C 174.728 117.552, 174.120 117.222, 178.762 115.584 C 181.005 114.793, 184.339 112.627, 186.170 110.771 C 188.002 108.916, 188.602 108.546, 187.504 109.949 C 185.787 112.142, 185.974 112.079, 188.840 109.500 C 193.982 104.871, 194.225 103.897, 192.008 96.824 C 189.335 88.296, 189.339 80.551, 192.018 78.240 C 193.128 77.283, 195.228 76.275, 196.685 76 C 200.869 75.210, 200.576 73.176, 195.609 68.551 C 193.074 66.190, 190.999 63.863, 190.998 63.379 C 190.996 62.896, 184.673 58.675, 176.947 54 C 169.220 49.325, 161.362 44.375, 159.484 43 C 157.605 41.625, 154.928 39.691, 153.534 38.703 C 150.954 36.874, 150.169 33.632, 152.028 32.483 C 153.175 31.774, 167.074 39.356, 183 49.380 C 188.873 53.076, 194.635 55.991, 196.076 55.994 C 197.576 55.998, 199.664 57.103, 201.076 58.641 C 204.544 62.420, 211.936 66.962, 213.585 66.329 C 214.357 66.033, 214.761 65.423, 214.484 64.974 C 214.206 64.525, 215.269 60.321, 216.845 55.631 C 219.909 46.511, 225.981 35.631, 231.088 30.108 C 233.937 27.028, 234.857 26.672, 241.112 26.224 C 249.238 25.643, 249.760 24.560, 244.466 19.266 L 240.932 15.732 230.597 16.424 C 218.270 17.250, 161.200 12.799, 154.072 10.456 C 149.009 8.791, 148.284 8.711, 147.686 9.750 M 327.394 66.415 C 327.041 67.334, 326.921 68.234, 327.126 68.415 C 327.332 68.595, 332.675 69.047, 339 69.419 C 349.894 70.060, 350.566 69.987, 351.758 68.048 C 352.990 66.044, 352.827 66, 344.258 65.989 C 339.441 65.983, 333.820 65.700, 331.768 65.361 C 328.828 64.875, 327.899 65.099, 327.394 66.415 M 235.667 70.667 C 234.119 72.214, 235.184 73.171, 237.750 72.538 C 241.937 71.503, 242.895 70, 239.367 70 C 237.698 70, 236.033 70.300, 235.667 70.667 M 257.610 74.037 C 260.485 76.936, 272 78.192, 272 75.608 C 272 73.555, 271.281 73.323, 262.500 72.537 L 255.500 71.910 257.610 74.037 M 420.250 80.745 C 418.462 81.635, 417.003 82.619, 417.007 82.931 C 417.011 83.244, 418.634 84.604, 420.615 85.953 L 424.216 88.406 429.804 85.453 C 437.220 81.534, 437.603 80, 431.165 80 C 428.414 80, 425.564 79.803, 424.832 79.563 C 424.099 79.323, 422.038 79.854, 420.250 80.745 M 331.786 86.404 C 329.744 87.138, 327.734 87.460, 327.319 87.120 C 326.905 86.779, 327.169 87.287, 327.905 88.250 C 328.797 89.415, 328.870 90, 328.122 90 C 327.399 90, 327 92.491, 327 97 C 327 101.572, 327.395 104, 328.140 104 C 328.767 104, 329.850 104.780, 330.546 105.732 C 331.671 107.271, 332.329 107.327, 336.421 106.232 C 342.628 104.572, 346.660 104.671, 347.362 106.500 C 347.723 107.441, 349.252 108, 351.469 108 C 354.966 108, 355 107.959, 355 103.674 C 355 98.956, 357.351 95.870, 362 94.485 C 363.375 94.076, 366.750 92.579, 369.500 91.158 L 374.500 88.575 362.500 87.427 C 338.203 85.104, 335.638 85.019, 331.786 86.404 M 194 87.150 C 194 87.953, 195.054 91.736, 196.343 95.555 C 198.146 100.902, 199.124 102.500, 200.593 102.500 C 202.213 102.500, 202.545 101.635, 202.800 96.744 C 203.087 91.247, 202.975 90.941, 200.302 89.925 C 198.763 89.340, 196.715 88.147, 195.752 87.275 C 194.273 85.937, 194 85.918, 194 87.150 M 411 92 C 411 92.550, 411.423 93, 411.941 93 C 412.459 93, 413.160 92.550, 413.500 92 C 413.840 91.450, 413.416 91, 412.559 91 C 411.702 91, 411 91.450, 411 92 M 314.697 102.393 C 314.288 103.434, 314.189 104.522, 314.476 104.810 C 315.389 105.722, 316.191 104.227, 315.809 102.328 C 315.459 100.588, 315.405 100.591, 314.697 102.393 M 336.600 113.601 C 336.280 114.434, 334.635 115, 332.531 115 C 330.140 115, 329 115.460, 329 116.427 C 329 117.211, 328.212 118.021, 327.250 118.226 C 326.288 118.430, 328.776 118.918, 332.781 119.309 C 338.486 119.866, 340.715 119.681, 343.084 118.456 C 344.747 117.597, 348.333 116.629, 351.054 116.307 C 360.158 115.229, 356.772 113.628, 343.318 112.651 C 338.631 112.311, 337.007 112.540, 336.600 113.601 M 312.250 113.662 C 311.563 113.940, 311 114.771, 311 115.510 C 311 116.249, 310.212 117.059, 309.250 117.311 C 308.288 117.562, 308.962 117.820, 310.750 117.884 C 312.538 117.948, 314 117.551, 314 117.003 C 314 116.454, 315.462 115.366, 317.250 114.584 L 320.500 113.163 317 113.161 C 315.075 113.159, 312.938 113.385, 312.250 113.662 M 319.014 125.750 C 319.049 130.304, 320.271 131.996, 324.311 133.084 C 328.742 134.277, 329.369 133.881, 332.533 127.884 L 333.913 125.268 328.706 124.643 C 320.412 123.646, 318.999 123.808, 319.014 125.750 M 338.035 127.934 C 336.381 131.025, 336.762 131.162, 341 129 C 345.777 126.563, 345.972 126, 342.035 126 C 340.127 126, 338.701 126.690, 338.035 127.934 M 5 165.941 C 5 166.459, 5.445 167.157, 5.989 167.493 C 6.555 167.843, 6.723 167.442, 6.382 166.552 C 5.717 164.820, 5 164.503, 5 165.941" fill="none" stroke="#000" stroke-width="2px" fill-rule="evenodd"/>
</svg>
