<svg xmlns="http://www.w3.org/2000/svg" width="500" height="272" viewBox="0 0 500 272" version="1.1">
	<path d="M 356.648 5.250 C 356.301 8.138, 356.013 14.887, 356.009 20.250 C 356.003 26.078, 355.598 30, 355 30 C 354.450 30, 354 29.292, 354 28.427 C 354 27.467, 353.317 26.984, 352.250 27.188 C 350.770 27.471, 350.455 28.870, 350.211 36.261 C 350.012 42.269, 349.544 45.003, 348.711 45.011 C 348.045 45.016, 339.625 43.374, 330 41.360 C 311.092 37.404, 307.917 37.411, 294.483 41.436 C 285.250 44.202, 286.071 40.641, 284.590 84.301 C 283.866 105.618, 283.091 123.243, 282.866 123.467 C 282.642 123.691, 255.918 121.451, 223.479 118.489 C 129.009 109.861, 72.527 105.563, 38.500 104.412 C 15.862 103.646, 16.242 103.481, 13.590 115.171 C 9.542 133.012, 1.813 187.802, 0.418 208.538 C -0.187 217.536, -0.040 219, 1.830 222.666 C 5.903 230.650, 17.246 238.427, 32 243.352 C 36.125 244.728, 51.425 248.363, 66 251.429 C 80.575 254.494, 93.484 257.228, 94.687 257.504 C 95.890 257.781, 100.596 261.155, 105.145 265.003 L 113.415 272 121.757 272 C 128.570 272, 422.658 242.362, 435.250 240.407 C 438.843 239.849, 439 239.661, 439 235.925 C 439 232.084, 439.109 231.971, 446.250 228.403 C 450.238 226.412, 454.932 223.706, 456.683 222.391 C 460.757 219.331, 461 219.372, 461 223.119 L 461 226.239 471.750 225.514 C 477.663 225.115, 482.837 224.584, 483.250 224.335 C 483.663 224.086, 484 223.027, 484 221.981 C 484 220.291, 484.912 220.049, 492.250 219.790 L 500.500 219.500 500.634 212.500 C 500.737 207.133, 500.611 206.433, 500.097 209.500 C 499.621 212.339, 499.207 209.291, 498.671 199 C 497.577 177.990, 498.085 179.275, 490.554 178.469 L 484.235 177.792 482.709 170.146 C 481.870 165.941, 481.345 162.335, 481.542 162.133 C 481.740 161.931, 483.966 161.533, 486.489 161.248 C 493.285 160.482, 491.523 158.696, 482.491 157.195 C 477.329 156.338, 470.501 154.060, 462.569 150.550 C 439.183 140.201, 435.654 139.306, 401.738 135.126 C 384.834 133.042, 370.838 131.149, 370.636 130.919 C 370.433 130.688, 369.720 115.200, 369.052 96.500 L 367.836 62.500 365.008 56.500 C 362.431 51.033, 362.080 48.902, 361.055 32.500 C 359.433 6.558, 358.817 0, 358.001 0 C 357.604 0, 356.995 2.362, 356.648 5.250 M 472.453 206.053 L 469.406 211.606 471.726 216.901 C 473.444 220.820, 474.452 222.041, 475.605 221.598 C 476.462 221.269, 477.577 221, 478.082 221 C 479.479 221, 479.178 216.226, 477.750 215.751 C 476.964 215.490, 476.314 212.580, 476 207.918 L 475.500 200.500 472.453 206.053 M 0.328 213.500 C 0.333 217.350, 0.513 218.802, 0.730 216.728 C 0.946 214.653, 0.943 211.503, 0.722 209.728 C 0.501 207.952, 0.324 209.650, 0.328 213.500" fill="none" stroke="#000" stroke-width="2px" fill-rule="evenodd"/>
</svg>
