<svg xmlns="http://www.w3.org/2000/svg" width="305" height="500" viewBox="0 0 305 500" version="1.1">
	<path d="M 180.519 6.750 C 180.127 9.912, 179.462 12.950, 179.040 13.500 C 178.619 14.050, 178 18.230, 177.665 22.789 C 177.330 27.348, 176.432 32.523, 175.669 34.289 C 174.906 36.055, 173.697 38.850, 172.984 40.500 C 172.270 42.150, 170.472 46.875, 168.988 51 C 160.337 75.044, 97.475 232.245, 75.015 286 C 72.142 292.875, 66.426 306.600, 62.313 316.500 C 33.468 385.928, 25.679 403.552, 22.714 406.101 C 20.532 407.977, 19.654 409.651, 19.565 412.101 C 19.392 416.857, 18.397 418, 14.427 418 C 12.527 418, 10.104 418.543, 9.042 419.206 C 7.468 420.189, 6.767 420.099, 5.242 418.719 C 3.800 417.414, 3.101 417.299, 2.186 418.214 C -0.058 420.458, 1.010 422.837, 5.859 426.397 C 9.824 429.307, 11.156 431.119, 13.094 436.232 C 15.319 442.105, 15.454 443.654, 15.235 460.818 C 15.081 472.911, 15.385 479.850, 16.128 481.239 C 17.051 482.963, 16.916 483.588, 15.381 484.710 C 13.766 485.892, 13.714 486.208, 15.005 487.025 C 17.154 488.385, 21.007 488.854, 34 489.341 C 43.819 489.709, 46.743 490.236, 54 492.944 C 62.382 496.072, 62.771 496.119, 82 496.308 L 101.500 496.500 105.387 493.752 C 111.649 489.324, 116.061 488.497, 133 488.577 C 147.301 488.645, 149.157 488.872, 157 491.512 C 165.339 494.319, 165.868 494.368, 184.929 494.116 C 201.307 493.899, 204.918 493.576, 207.929 492.057 C 209.893 491.067, 212.625 489.920, 214 489.508 C 215.375 489.097, 219.200 487.484, 222.500 485.924 C 225.800 484.364, 232.961 481.911, 238.412 480.474 C 250.128 477.385, 259.053 474.124, 266.838 470.088 C 269.952 468.473, 273.625 466.827, 275 466.430 C 278.427 465.439, 291.415 454.633, 289.794 454.121 C 284.081 452.319, 284.186 452.481, 285.183 446.995 C 286.179 441.516, 285.117 438.634, 282.475 439.648 C 280.145 440.542, 278.865 439.121, 280.032 436.939 C 281.205 434.748, 283.578 434.368, 284.338 436.250 C 284.615 436.938, 284.878 436.457, 284.921 435.183 C 284.985 433.307, 284.619 432.986, 283 433.500 C 281.853 433.864, 281 433.680, 281 433.067 C 281 432.480, 281.436 432, 281.969 432 C 282.501 432, 282.696 431.371, 282.400 430.601 C 282.105 429.832, 282.392 428.876, 283.039 428.476 C 283.685 428.077, 283.828 427.469, 283.357 427.125 C 282.886 426.781, 282.760 419.525, 283.077 411 C 283.642 395.835, 283.574 395.122, 279.925 378 C 274.656 353.274, 274.778 353.656, 271.955 352.989 C 269.893 352.503, 269.303 351.425, 268.105 345.957 C 267.327 342.406, 263.126 325.325, 258.770 308 C 252.027 281.183, 250.564 273.824, 248.929 258.500 C 247.873 248.600, 247.030 239.375, 247.056 238 C 247.082 236.625, 246.629 233.250, 246.049 230.500 C 244.815 224.651, 241.015 201.956, 237.007 176.500 C 234.732 162.045, 232.855 154.364, 227.478 137.500 C 223.796 125.950, 219.204 111.325, 217.274 105 C 213.883 93.885, 202.780 67.201, 191.309 42.596 C 186.323 31.900, 185.706 29.837, 185.234 22.272 C 184.945 17.642, 184.397 14.357, 184.016 14.974 C 183.533 15.755, 182.941 15.634, 182.061 14.573 C 181.164 13.493, 181.001 11.304, 181.497 7.026 C 181.882 3.712, 181.979 1, 181.713 1 C 181.448 1, 180.910 3.588, 180.519 6.750 M 174.495 42.637 C 173.345 45.914, 174.157 55.500, 175.363 52.888 C 175.773 52.001, 175.971 48.688, 175.804 45.525 C 175.527 40.277, 175.412 40.024, 174.495 42.637 M 251.091 284 C 251.055 284.275, 251.675 291.700, 252.470 300.500 C 260.092 384.879, 259.979 383.903, 262.974 390.675 C 264.427 393.958, 265.946 395.446, 269.885 397.442 C 272.662 398.849, 275.225 400, 275.580 400 C 276.615 400, 275.644 395.764, 269.634 374.067 C 265.457 358.988, 264.288 353.440, 265.173 352.893 C 266.078 352.333, 265.575 348.020, 263.121 335.326 C 258.808 313.009, 251.424 281.503, 251.091 284 M 252.232 325 C 252.232 326.925, 252.438 327.712, 252.689 326.750 C 252.941 325.788, 252.941 324.212, 252.689 323.250 C 252.438 322.288, 252.232 323.075, 252.232 325 M 253.175 352.250 L 253 376 255.281 376 L 257.562 376 255.850 356.750 C 254.908 346.163, 253.960 335.475, 253.744 333 C 253.527 330.525, 253.271 339.188, 253.175 352.250 M 266.079 356.583 C 266.127 357.748, 266.364 357.985, 266.683 357.188 C 266.972 356.466, 266.936 355.603, 266.604 355.271 C 266.272 354.939, 266.036 355.529, 266.079 356.583 M 269.636 361.192 C 275.747 387.521, 277.530 393.494, 279.378 393.842 C 281.659 394.272, 281.489 392.782, 276.714 370.500 C 273.593 355.936, 273.423 355.491, 270.836 355.192 L 268.171 354.884 269.636 361.192 M 267.079 360.583 C 267.127 361.748, 267.364 361.985, 267.683 361.188 C 267.972 360.466, 267.936 359.603, 267.604 359.271 C 267.272 358.939, 267.036 359.529, 267.079 360.583 M 252.045 386.798 C 247.944 386.962, 244.119 387.466, 243.545 387.918 C 242.970 388.369, 240.828 389.040, 238.785 389.408 C 234.676 390.148, 232.355 392.281, 236.159 391.821 C 239.766 391.385, 257.029 393.060, 259.805 394.116 C 263.149 395.387, 263.326 394.938, 261.268 390.399 L 259.500 386.500 252.045 386.798 M 205.500 387.850 C 204.400 388.207, 203.561 389.175, 203.635 390 C 203.709 390.825, 203.821 392.962, 203.885 394.750 C 203.974 397.261, 204.441 398, 205.941 398 C 208.451 398, 209.591 396.164, 207.563 395.386 C 205.572 394.622, 205.528 393, 207.500 393 C 209.592 393, 209.384 390.247, 207.250 389.689 C 205.583 389.254, 205.583 389.226, 207.250 389.116 C 208.213 389.052, 209 388.550, 209 388 C 209 386.902, 208.483 386.880, 205.500 387.850 M 211 387.934 C 211 388.447, 212.238 389.055, 213.750 389.284 L 216.500 389.700 213.750 389.850 C 212.238 389.933, 211 390.577, 211 391.283 C 211 392.310, 212.943 392.360, 220.738 391.533 C 228.722 390.686, 230.536 390.185, 230.811 388.750 C 231.113 387.177, 230.128 387, 221.073 387 C 215.502 387, 211 387.417, 211 387.934 M 199.584 390.250 C 199.721 391.488, 199.871 393.738, 199.917 395.250 C 200.067 400.211, 202 398.124, 202 393 C 202 389.501, 201.600 388, 200.667 388 C 199.878 388, 199.436 388.917, 199.584 390.250 M 197.057 392 C 197.010 392.825, 196.701 394.512, 196.370 395.750 C 195.926 397.404, 196.195 398, 197.383 398 C 199.128 398, 199.383 395.720, 198 392.500 C 197.422 391.154, 197.113 390.991, 197.057 392 M 197.035 402.250 C 197.055 402.938, 197.714 404.625, 198.500 406 C 199.998 408.621, 200.437 407.234, 199.370 403.250 C 198.733 400.875, 196.975 400.122, 197.035 402.250 M 201.100 406.250 C 201.155 409.137, 201.577 412.625, 202.039 414 C 202.617 415.719, 202.832 414.080, 202.728 408.750 C 202.645 404.488, 202.222 401, 201.788 401 C 201.355 401, 201.045 403.363, 201.100 406.250 M 204 406.167 C 204 411.889, 204.480 411.878, 207.070 406.093 C 208.950 401.893, 208.733 401, 205.833 401 C 204.292 401, 204 401.823, 204 406.167 M 209.815 404.806 C 208.930 410.840, 211.896 411.002, 213.368 405 C 213.706 403.625, 213.715 403.086, 213.390 403.803 C 212.938 404.799, 212.501 404.700, 211.538 403.382 C 210.412 401.843, 210.228 401.995, 209.815 404.806 M 236.502 406.092 C 238.118 411.369, 240.271 415.742, 243.718 420.750 C 247.206 425.817, 247.495 426, 251.999 426 C 256.202 426, 256.969 425.622, 259.729 422.187 C 262.168 419.152, 262.865 417.220, 263.147 412.715 L 263.500 407.055 258.600 406.006 C 255.906 405.429, 249.665 404.671, 244.733 404.320 L 235.765 403.684 236.502 406.092 M 219.936 408.667 C 218.909 411.369, 219.896 412.948, 222.633 412.985 C 224.333 413.008, 224.894 409.575, 223.501 407.671 C 221.819 405.370, 221.115 405.566, 219.936 408.667 M 27.926 407.250 C 27.885 407.387, 27.651 408.589, 27.406 409.920 C 27.161 411.250, 26.046 412.980, 24.928 413.763 C 22.524 415.447, 22.828 417.267, 25.557 417.529 C 26.626 417.631, 29.596 418.049, 32.157 418.457 C 36.207 419.102, 36.877 418.958, 37.291 417.350 C 37.717 415.698, 37.780 415.687, 37.884 417.250 C 38.049 419.740, 39.655 419.417, 40.370 416.750 C 41.499 412.536, 41.083 410.003, 39.250 409.930 C 37.754 409.870, 37.790 409.735, 39.500 409 C 41.259 408.244, 41.162 408.132, 38.691 408.070 C 37.059 408.029, 36.141 408.419, 36.500 409 C 36.840 409.550, 36.627 410, 36.028 410 C 35.428 410, 34.678 409.325, 34.362 408.500 C 33.904 407.307, 28.236 406.206, 27.926 407.250 M 265.648 407.685 C 265.292 408.042, 265 410.649, 265 413.480 C 265 417.892, 264.572 419.036, 262 421.500 C 257.056 426.237, 257.861 427, 267.804 427 L 276.609 427 276.403 422.750 C 276.290 420.413, 276.153 416.371, 276.099 413.769 C 275.993 408.696, 276.508 409.129, 268.648 407.518 C 267.355 407.253, 266.005 407.328, 265.648 407.685 M 30.255 410.250 C 28.840 412.037, 26.849 416, 27.366 416 C 27.606 416, 28.732 414.425, 29.867 412.500 C 31.931 409.002, 32.123 407.891, 30.255 410.250 M 54.250 409.605 C 55.467 409.982, 55.970 411.113, 55.900 413.323 C 55.810 416.208, 55.738 416.277, 55.123 414.074 C 54.213 410.818, 52.004 410.179, 51.986 413.167 C 51.979 414.450, 51.701 416.512, 51.370 417.750 C 50.839 419.731, 51.139 420, 53.883 420 C 55.598 420, 57 420.371, 57 420.824 C 57 421.277, 58.688 422.149, 60.750 422.762 L 64.500 423.876 61 423.376 C 59.075 423.100, 56.375 422.481, 55 422.001 C 53.625 421.520, 49.443 420.963, 45.707 420.763 C 39.332 420.422, 38.931 420.526, 39.207 422.450 C 39.482 424.376, 40.242 424.513, 51.717 424.707 C 58.686 424.826, 64.190 424.502, 64.528 423.955 C 64.879 423.386, 65.810 423.348, 66.811 423.862 C 67.740 424.339, 73.225 425.021, 79 425.377 C 88.360 425.954, 89.907 425.806, 93.246 424.012 C 95.901 422.586, 98.888 422, 103.496 422 C 107.073 422, 110 421.592, 110 421.094 C 110 420.595, 110.833 420.405, 111.851 420.671 C 112.869 420.937, 114.408 420.449, 115.271 419.587 C 116.432 418.426, 116.947 418.340, 117.253 419.259 C 117.562 420.184, 120.834 420.412, 130.084 420.154 C 136.913 419.964, 142.838 419.600, 143.250 419.345 C 143.662 419.090, 144 418.038, 144 417.007 C 144 415.730, 143.124 415, 141.250 414.716 C 138.690 414.329, 138.725 414.289, 141.750 414.150 C 144.031 414.045, 145 413.512, 145 412.364 C 145 410.993, 144.248 410.831, 140.360 411.364 C 137.809 411.714, 133.547 412, 130.889 412 C 126.297 412, 126.011 412.161, 125.119 415.250 L 124.180 418.500 124.090 415.423 C 124.007 412.601, 123.757 412.382, 121.053 412.779 C 119.428 413.017, 117.910 413.949, 117.669 414.856 C 117.270 416.359, 117.222 416.356, 117.116 414.830 C 116.986 412.958, 113.419 412.477, 92.500 411.505 C 85.900 411.199, 77.545 410.685, 73.934 410.363 L 67.368 409.778 67.124 415.115 C 66.819 421.804, 66 422.934, 66 416.667 C 66 412.523, 65.748 411.989, 63.750 411.900 C 61.591 411.805, 61.602 411.768, 64 411 C 66.225 410.288, 66.267 410.188, 64.390 410.100 C 63.229 410.045, 60.079 409.789, 57.390 409.531 C 54.700 409.273, 53.288 409.306, 54.250 409.605 M 163.686 410.017 C 159.837 411.172, 157.575 413.119, 159.033 414.021 C 159.672 414.415, 158.805 414.989, 157.037 415.343 C 154.271 415.896, 154.036 416.199, 154.991 417.984 C 157.174 422.063, 163.641 420.218, 170.487 413.565 L 175.184 409 170.842 409.086 C 168.454 409.133, 165.234 409.552, 163.686 410.017 M 154 411 C 153.099 411.582, 152.975 411.975, 153.691 411.985 C 154.346 411.993, 155.160 411.550, 155.500 411 C 156.267 409.758, 155.921 409.758, 154 411 M 191.015 412.460 C 190.457 413.929, 190 416.001, 190 417.065 C 190 418.974, 190.183 419.031, 197.601 419.417 C 198.795 419.479, 199.286 418.370, 199.534 415.050 C 199.724 412.494, 199.520 411.159, 199.054 411.913 C 198.564 412.706, 198.095 412.814, 197.871 412.187 C 197.667 411.616, 196.269 410.843, 194.765 410.469 C 192.428 409.890, 191.882 410.180, 191.015 412.460 M 36.158 413 C 36.158 414.375, 36.385 414.938, 36.662 414.250 C 36.940 413.563, 36.940 412.438, 36.662 411.750 C 36.385 411.063, 36.158 411.625, 36.158 413 M 73.250 412.689 C 74.213 412.941, 75.787 412.941, 76.750 412.689 C 77.713 412.438, 76.925 412.232, 75 412.232 C 73.075 412.232, 72.287 412.438, 73.250 412.689 M 165.813 412.683 C 166.534 412.972, 167.397 412.936, 167.729 412.604 C 168.061 412.272, 167.471 412.036, 166.417 412.079 C 165.252 412.127, 165.015 412.364, 165.813 412.683 M 82.750 413.706 C 83.987 413.944, 86.013 413.944, 87.250 413.706 C 88.487 413.467, 87.475 413.272, 85 413.272 C 82.525 413.272, 81.513 413.467, 82.750 413.706 M 91.175 418.313 C 91.344 423.334, 91.362 423.364, 91.732 419.250 C 92.105 415.106, 92.205 415, 95.724 415 C 100.145 415, 99.751 414.476, 94.750 413.704 L 91 413.126 91.175 418.313 M 129.762 413.707 C 131.006 413.946, 132.806 413.937, 133.762 413.687 C 134.718 413.437, 133.700 413.241, 131.500 413.252 C 129.300 413.263, 128.518 413.468, 129.762 413.707 M 161.813 413.683 C 162.534 413.972, 163.397 413.936, 163.729 413.604 C 164.061 413.272, 163.471 413.036, 162.417 413.079 C 161.252 413.127, 161.015 413.364, 161.813 413.683 M 103.762 415.707 C 105.006 415.946, 106.806 415.937, 107.762 415.687 C 108.718 415.437, 107.700 415.241, 105.500 415.252 C 103.300 415.263, 102.518 415.468, 103.762 415.707 M 110.638 417.500 C 110.955 418.325, 111.391 419, 111.607 419 C 111.823 419, 112 418.325, 112 417.500 C 112 416.675, 111.564 416, 111.031 416 C 110.499 416, 110.322 416.675, 110.638 417.500 M 24.867 421.187 C 25.415 422.681, 26.680 423.615, 28.437 423.824 C 30.784 424.104, 31.113 423.828, 30.829 421.824 C 30.574 420.020, 29.775 419.430, 27.259 419.187 C 24.250 418.897, 24.079 419.040, 24.867 421.187 M 35.229 421.188 C 35.847 423.042, 38 423.349, 38 421.583 C 38 420.712, 37.288 420, 36.417 420 C 35.546 420, 35.011 420.534, 35.229 421.188 M 12.147 428.250 C 12.816 429.488, 13.481 431.562, 13.625 432.860 C 14.126 437.376, 15 436.300, 15 431.167 C 15 426.637, 14.749 426, 12.965 426 C 11.160 426, 11.068 426.255, 12.147 428.250 M 285.195 429.500 C 285.215 431.150, 285.439 431.704, 285.693 430.731 C 285.947 429.758, 285.930 428.408, 285.656 427.731 C 285.382 427.054, 285.175 427.850, 285.195 429.500 M 268 429 C 268 429.550, 270.475 430, 273.500 430 C 276.525 430, 279 429.550, 279 429 C 279 428.450, 276.525 428, 273.500 428 C 270.475 428, 268 428.450, 268 429 M 267.740 431.593 C 266.261 433.072, 268.345 434, 273.142 434 C 276.715 434, 278.048 433.639, 277.755 432.750 C 277.316 431.416, 268.890 430.443, 267.740 431.593 M 270.500 436 C 270.840 436.550, 271.829 437, 272.699 437 C 273.568 437, 274.855 437.787, 275.558 438.748 C 276.996 440.715, 277.451 440.479, 278.443 437.250 C 279.091 435.141, 278.844 435, 274.508 435 C 271.679 435, 270.122 435.388, 270.500 436" fill="none" stroke="#000" stroke-width="2px" fill-rule="evenodd"/>
</svg>
