<?xml version="1.0" encoding="utf-8"?>
<!-- Generator: Adobe Illustrator 17.0.0, SVG Export Plug-In . SVG Version: 6.00 Build 0)  -->
<!DOCTYPE svg PUBLIC "-//W3C//DTD SVG 1.1//EN" "http://www.w3.org/Graphics/SVG/1.1/DTD/svg11.dtd">
<svg version="1.1" id="Слой_1" xmlns="http://www.w3.org/2000/svg" xmlns:xlink="http://www.w3.org/1999/xlink" x="0px" y="0px"
	 width="500px" height="500px" viewBox="0 0 500 500" enable-background="new 0 0 500 500" xml:space="preserve">
<radialGradient id="SVGID_1_" cx="340" cy="255" r="300.5204" gradientTransform="matrix(0.7353 0 0 0.9804 0 0)" gradientUnits="userSpaceOnUse">
	<stop  offset="0" style="stop-color:#8B6D5E"/>
	<stop  offset="0.2705" style="stop-color:#876A5B"/>
	<stop  offset="0.7552" style="stop-color:#7B6153"/>
	<stop  offset="1" style="stop-color:#745B4E"/>
</radialGradient>
<rect fill="url(#SVGID_1_)" width="500" height="500"/>
<defs>
	<filter id="Adobe_OpacityMaskFilter" filterUnits="userSpaceOnUse" x="47.395" y="146.731" width="406.763" height="63.399">
		<feFlood  style="flood-color:white;flood-opacity:1" result="back"/>
		<feBlend  in="SourceGraphic" in2="back" mode="normal"/>
	</filter>
</defs>
<mask maskUnits="userSpaceOnUse" x="47.395" y="146.731" width="406.763" height="63.399" id="SVGID_2_">
	<g filter="url(#Adobe_OpacityMaskFilter)">
		
			<radialGradient id="SVGID_3_" cx="346.544" cy="-337.6678" r="553.9608" gradientTransform="matrix(0.7353 0 0 0.9804 0 0)" gradientUnits="userSpaceOnUse">
			<stop  offset="0.264" style="stop-color:#FFFFFF"/>
			<stop  offset="0.4102" style="stop-color:#FCFCFC"/>
			<stop  offset="0.509" style="stop-color:#F3F3F3"/>
			<stop  offset="0.5939" style="stop-color:#E4E4E4"/>
			<stop  offset="0.6708" style="stop-color:#CFCFCF"/>
			<stop  offset="0.7425" style="stop-color:#B3B3B3"/>
			<stop  offset="0.8102" style="stop-color:#909090"/>
			<stop  offset="0.8748" style="stop-color:#686868"/>
			<stop  offset="0.9369" style="stop-color:#393939"/>
			<stop  offset="0.9951" style="stop-color:#050505"/>
			<stop  offset="1" style="stop-color:#000000"/>
		</radialGradient>
		<path fill="url(#SVGID_3_)" d="M455.271,145.752h-1.112H47.395h-1.112h-1.094l0.872,0.879l0.858,0.867
			c18.603,18.828,47.122,34.727,82.475,45.975c36.279,11.538,78.253,17.637,121.381,17.637c43.129,0,85.102-6.099,121.383-17.637
			c35.354-11.248,63.872-27.148,82.475-45.975l0.859-0.867l0.872-0.879H455.271z"/>
	</g>
</mask>
<path mask="url(#SVGID_2_)" d="M47.395,146.731c37.126,37.572,114.245,63.399,203.382,63.399s166.257-25.827,203.381-63.399H47.395z
	"/>
<g>
	<linearGradient id="SVGID_4_" gradientUnits="userSpaceOnUse" x1="250.7766" y1="171.7309" x2="250.7766" y2="141.9927">
		<stop  offset="0" style="stop-color:#FFDB95"/>
		<stop  offset="1" style="stop-color:#BD9459"/>
	</linearGradient>
	<polygon fill="url(#SVGID_4_)" points="39.507,158.72 69.026,138.077 432.527,138.077 462.046,158.72 	"/>
</g>
<g>
	<linearGradient id="SVGID_5_" gradientUnits="userSpaceOnUse" x1="250.7766" y1="153.4304" x2="250.7766" y2="171.0775">
		<stop  offset="0" style="stop-color:#FFDB95"/>
		<stop  offset="1" style="stop-color:#CA9D5F"/>
	</linearGradient>
	<polygon fill="url(#SVGID_5_)" points="462.046,158.72 460.744,167.99 40.809,167.99 39.507,158.72 	"/>
</g>
<polygon opacity="0.44" fill="#FFFFFF" points="40.909,157.74 39.507,158.72 39.622,159.537 461.931,159.537 462.046,158.72 
	460.645,157.74 "/>
<defs>
	<filter id="Adobe_OpacityMaskFilter_1_" filterUnits="userSpaceOnUse" x="47.395" y="282.514" width="406.763" height="63.4">
		<feFlood  style="flood-color:white;flood-opacity:1" result="back"/>
		<feBlend  in="SourceGraphic" in2="back" mode="normal"/>
	</filter>
</defs>
<mask maskUnits="userSpaceOnUse" x="47.395" y="282.514" width="406.763" height="63.4" id="SVGID_6_">
	<g filter="url(#Adobe_OpacityMaskFilter_1_)">
		
			<radialGradient id="SVGID_7_" cx="346.544" cy="-199.1651" r="553.9574" gradientTransform="matrix(0.7353 0 0 0.9804 0 0)" gradientUnits="userSpaceOnUse">
			<stop  offset="0.264" style="stop-color:#FFFFFF"/>
			<stop  offset="0.4102" style="stop-color:#FCFCFC"/>
			<stop  offset="0.509" style="stop-color:#F3F3F3"/>
			<stop  offset="0.5939" style="stop-color:#E4E4E4"/>
			<stop  offset="0.6708" style="stop-color:#CFCFCF"/>
			<stop  offset="0.7425" style="stop-color:#B3B3B3"/>
			<stop  offset="0.8102" style="stop-color:#909090"/>
			<stop  offset="0.8748" style="stop-color:#686868"/>
			<stop  offset="0.9369" style="stop-color:#393939"/>
			<stop  offset="0.9951" style="stop-color:#050505"/>
			<stop  offset="1" style="stop-color:#000000"/>
		</radialGradient>
		<path fill="url(#SVGID_7_)" d="M455.271,281.535h-1.112H47.395h-1.112h-1.094l0.872,0.879l0.858,0.867
			c18.603,18.828,47.122,34.727,82.475,45.975c36.279,11.539,78.253,17.637,121.381,17.637c43.129,0,85.102-6.099,121.383-17.637
			c35.354-11.248,63.872-27.147,82.475-45.975l0.859-0.867l0.872-0.879H455.271z"/>
	</g>
</mask>
<path mask="url(#SVGID_6_)" d="M47.395,282.514c37.126,37.573,114.245,63.4,203.382,63.4s166.257-25.827,203.381-63.4H47.395z"/>
<g>
	<linearGradient id="SVGID_8_" gradientUnits="userSpaceOnUse" x1="250.7766" y1="303.1034" x2="250.7766" y2="273.3653">
		<stop  offset="0" style="stop-color:#FFDB95"/>
		<stop  offset="1" style="stop-color:#BD9459"/>
	</linearGradient>
	<polygon fill="url(#SVGID_8_)" points="39.507,290.093 69.026,269.45 432.527,269.45 462.046,290.093 	"/>
</g>
<g>
	<linearGradient id="SVGID_9_" gradientUnits="userSpaceOnUse" x1="250.7766" y1="284.8026" x2="250.7766" y2="302.4507">
		<stop  offset="0" style="stop-color:#FFDB95"/>
		<stop  offset="1" style="stop-color:#CA9D5F"/>
	</linearGradient>
	<polygon fill="url(#SVGID_9_)" points="462.046,290.093 460.744,299.363 40.809,299.363 39.507,290.093 	"/>
</g>
<polygon opacity="0.44" fill="#FFFFFF" points="40.909,289.112 39.507,290.093 39.622,290.909 461.931,290.909 462.046,290.093 
	460.645,289.112 "/>
<defs>
	<filter id="Adobe_OpacityMaskFilter_2_" filterUnits="userSpaceOnUse" x="47.395" y="415.357" width="406.763" height="63.4">
		<feFlood  style="flood-color:white;flood-opacity:1" result="back"/>
		<feBlend  in="SourceGraphic" in2="back" mode="normal"/>
	</filter>
</defs>
<mask maskUnits="userSpaceOnUse" x="47.395" y="415.357" width="406.763" height="63.4" id="SVGID_10_">
	<g filter="url(#Adobe_OpacityMaskFilter_2_)">
		
			<radialGradient id="SVGID_11_" cx="346.544" cy="-63.6651" r="553.9574" gradientTransform="matrix(0.7353 0 0 0.9804 0 0)" gradientUnits="userSpaceOnUse">
			<stop  offset="0.264" style="stop-color:#FFFFFF"/>
			<stop  offset="0.4102" style="stop-color:#FCFCFC"/>
			<stop  offset="0.509" style="stop-color:#F3F3F3"/>
			<stop  offset="0.5939" style="stop-color:#E4E4E4"/>
			<stop  offset="0.6708" style="stop-color:#CFCFCF"/>
			<stop  offset="0.7425" style="stop-color:#B3B3B3"/>
			<stop  offset="0.8102" style="stop-color:#909090"/>
			<stop  offset="0.8748" style="stop-color:#686868"/>
			<stop  offset="0.9369" style="stop-color:#393939"/>
			<stop  offset="0.9951" style="stop-color:#050505"/>
			<stop  offset="1" style="stop-color:#000000"/>
		</radialGradient>
		<path fill="url(#SVGID_11_)" d="M455.271,414.378h-1.112H47.395h-1.112h-1.094l0.872,0.879l0.858,0.867
			c18.603,18.828,47.122,34.727,82.475,45.975c36.279,11.539,78.253,17.637,121.381,17.637c43.129,0,85.102-6.099,121.383-17.637
			c35.354-11.248,63.872-27.147,82.475-45.975l0.859-0.867l0.872-0.879H455.271z"/>
	</g>
</mask>
<path mask="url(#SVGID_10_)" d="M47.395,415.357c37.126,37.573,114.245,63.4,203.382,63.4s166.257-25.827,203.381-63.4H47.395z"/>
<g>
	<linearGradient id="SVGID_12_" gradientUnits="userSpaceOnUse" x1="250.7766" y1="434.476" x2="250.7766" y2="404.7378">
		<stop  offset="0" style="stop-color:#FFDB95"/>
		<stop  offset="1" style="stop-color:#BD9459"/>
	</linearGradient>
	<polygon fill="url(#SVGID_12_)" points="39.507,421.465 69.026,400.822 432.527,400.822 462.046,421.465 	"/>
</g>
<g>
	<linearGradient id="SVGID_13_" gradientUnits="userSpaceOnUse" x1="250.7766" y1="416.1752" x2="250.7766" y2="433.8232">
		<stop  offset="0" style="stop-color:#FFDB95"/>
		<stop  offset="1" style="stop-color:#CA9D5F"/>
	</linearGradient>
	<polygon fill="url(#SVGID_13_)" points="462.046,421.465 460.744,430.736 40.809,430.736 39.507,421.465 	"/>
</g>
<g>
</g>
<g>
</g>
<g>
</g>
<g>
</g>
<g>
</g>
<g>
</g>
</svg>
