<svg xmlns="http://www.w3.org/2000/svg" width="461" height="244" viewBox="0 0 461 244" version="1.1">
	<path d="M 185.500 5.887 C 182.200 6.846, 178.150 8.329, 176.500 9.182 C 174.850 10.035, 171.725 11.055, 169.555 11.448 C 167.386 11.842, 163.424 13.272, 160.752 14.626 C 156.575 16.742, 155.991 17.398, 156.588 19.294 C 158.153 24.262, 173.528 42.186, 178.380 44.699 C 180.096 45.588, 185.430 46.679, 190.233 47.123 C 195.037 47.568, 200.212 48.559, 201.733 49.326 C 203.255 50.093, 206.940 50.996, 209.923 51.334 C 214.096 51.805, 217.167 53.106, 223.244 56.973 C 227.587 59.738, 231.353 62, 231.612 62 C 231.871 62, 234.894 63.314, 238.330 64.921 C 245.391 68.222, 247.959 71.544, 246.303 75.234 C 245.341 77.380, 244.708 77.505, 234.393 77.585 C 228.402 77.632, 218.093 78.027, 211.484 78.463 L 199.468 79.255 186.484 72.532 C 179.343 68.834, 168.930 64.288, 163.344 62.430 C 157.758 60.573, 150.558 57.467, 147.344 55.529 C 144.130 53.591, 141.142 52.004, 140.704 52.003 C 140.266 52.001, 136.511 50.410, 132.361 48.467 C 121.814 43.529, 114.470 42.032, 100.706 42.015 C 93.376 42.006, 86.554 41.408, 82.685 40.436 C 77.093 39.031, 75.509 39.025, 67.145 40.371 C 55.284 42.280, 44.995 47.794, 38.102 55.935 C 35.571 58.923, 29.630 65.527, 24.901 70.608 C 9.818 86.815, 5.089 99.177, 5.052 122.500 C 5.031 135.730, 6.757 144.524, 11.577 155.746 C 18.370 171.562, 25.608 182.488, 37.462 194.824 C 65.644 224.150, 105.048 239.013, 154.500 238.972 C 178.041 238.952, 194.955 235.728, 224.533 225.623 C 248.001 217.605, 261.238 211.724, 284.500 198.980 C 292.750 194.461, 302.650 189.052, 306.500 186.962 C 322.415 178.321, 345.787 170, 354.144 170 C 359.484 170, 380.016 166.388, 391.071 163.503 C 401.108 160.884, 409.054 157.882, 430.405 148.642 C 444.645 142.479, 449.983 139.199, 453.698 134.330 C 457.014 129.982, 455.970 128.614, 449.946 129.413 C 447.204 129.777, 444.893 129.636, 444.552 129.084 C 444.224 128.554, 445.351 126.531, 447.057 124.588 C 448.762 122.646, 450.010 120.302, 449.829 119.380 C 449.430 117.347, 440.496 114.774, 427.500 112.948 C 416.120 111.350, 365.198 111.239, 355.500 112.792 C 334.311 116.184, 328.209 117.365, 315 120.628 C 299.208 124.530, 261.827 138.874, 238.500 149.984 C 209.681 163.711, 196.585 169.142, 185.279 172.057 C 172.547 175.340, 170.787 175.220, 162.500 170.500 C 156.019 166.808, 151.371 165.882, 135 165.020 C 121.884 164.328, 118.526 163.809, 113.167 161.643 C 109.683 160.235, 103.383 158.615, 99.167 158.043 C 93.774 157.311, 89.423 155.930, 84.500 153.386 C 80.650 151.396, 74.725 148.400, 71.334 146.726 C 65.915 144.053, 64.824 143.006, 62.334 138.092 C 59.833 133.157, 59.500 131.419, 59.500 123.306 C 59.500 114.166, 59.521 114.090, 62.973 110.528 C 70.664 102.593, 87.823 101.948, 101.173 109.093 C 102.105 109.592, 106.044 110.668, 109.926 111.484 C 114.462 112.439, 118.864 114.208, 122.242 116.436 C 125.134 118.343, 131.100 121.232, 135.500 122.857 C 139.900 124.481, 145.628 127.011, 148.229 128.479 C 150.830 129.947, 156.905 131.969, 161.729 132.973 C 166.553 133.976, 171.850 135.357, 173.500 136.041 C 175.370 136.816, 185.161 137.573, 199.500 138.050 L 222.500 138.815 232.980 135.396 C 244.270 131.714, 252.338 127.028, 256.408 121.788 C 269.709 104.668, 273.034 97.758, 275.308 82.500 C 277.788 65.863, 274.708 54.370, 265.489 45.858 C 259.244 40.093, 259.440 40.316, 255.145 34.031 C 251.990 29.414, 250.082 27.879, 242.899 24.172 C 236.605 20.925, 232.711 19.604, 227.945 19.100 C 221.054 18.370, 214.340 15.133, 209.939 10.419 C 203.994 4.049, 196.562 2.671, 185.500 5.887" fill="none" stroke="#000" stroke-width="2px" fill-rule="evenodd"/>
</svg>
