<svg xmlns="http://www.w3.org/2000/svg" width="500" height="468" viewBox="0 0 500 468" version="1.1">
	<path d="M 207.176 4.003 C 201.298 5.251, 193.086 9.166, 189.750 12.311 C 185.656 16.172, 186.150 18.590, 191.552 21.129 C 206.302 28.063, 208.137 51.563, 195.577 72.656 C 192.287 78.180, 185.581 86.119, 172.902 99.500 C 155.145 118.238, 145.245 131.062, 127.687 158.061 C 121.546 167.505, 104.649 202.482, 96.800 222 C 84.755 251.950, 75.864 279.437, 72.865 296 C 70.757 307.643, 70.691 321.669, 72.619 348.602 C 73.196 356.675, 73.186 356.718, 69.913 360.446 C 68.107 362.504, 60.524 368.842, 53.064 374.531 C 39.127 385.160, 32.572 391.782, 21.634 406.285 C 6.166 426.794, -1.754 461.302, 8.662 462.805 C 10.309 463.042, 11.805 461.559, 15.458 456.064 C 22.614 445.299, 26.958 442.188, 44.705 435.118 C 52.317 432.085, 57.154 430.863, 64.948 430.006 C 70.580 429.386, 76.300 428.456, 77.659 427.939 C 79.018 427.423, 84.038 426.992, 88.815 426.982 C 93.592 426.972, 101.699 426.325, 106.831 425.544 C 115.431 424.235, 116.724 424.268, 123.331 425.969 C 136.992 429.486, 141.866 431.818, 145.020 436.345 C 151.062 445.016, 150.761 444.766, 152.484 442.559 C 155.802 438.309, 153.692 423.450, 148.048 411.322 C 140.453 395.003, 129.186 382.695, 111.113 370.976 C 101.958 365.039, 97.811 361.751, 97.271 360 C 96.847 358.625, 96.603 353.473, 96.728 348.551 C 96.918 341.108, 97.813 336.730, 102.041 322.551 C 112.058 288.953, 116.891 279.320, 135.962 254.929 C 150.770 235.993, 163.910 222.600, 172.500 217.692 C 175.800 215.806, 182.120 212.184, 186.544 209.642 C 190.968 207.100, 199.293 203.251, 205.044 201.088 C 214.984 197.349, 244.317 190.259, 267.360 186.026 C 278.092 184.054, 309.881 181.547, 310.924 182.591 C 311.234 182.900, 309.915 184.465, 307.994 186.068 C 300.334 192.458, 292.145 196.902, 282.362 199.979 C 270.228 203.795, 265.770 207.027, 266.676 211.353 C 267.684 216.175, 273.034 220.461, 282.165 223.765 C 294.522 228.237, 304.541 229.702, 312.095 228.141 C 323.020 225.885, 335.936 221.117, 341.772 217.187 C 344.922 215.066, 352 210.701, 357.500 207.489 C 363 204.276, 369.317 199.927, 371.538 197.824 C 373.887 195.599, 376.569 194, 377.950 194 C 382.088 194, 389.600 199.790, 395.316 207.385 C 398.330 211.390, 403.840 217.554, 407.561 221.083 C 438.192 250.143, 445.093 258.105, 451.879 272.219 C 454 276.630, 460.681 283.228, 465.684 285.854 C 468.402 287.280, 475.486 287.346, 478.059 285.968 C 479.231 285.341, 480.231 283.406, 480.611 281.032 C 480.962 278.839, 482.279 276.147, 483.618 274.890 C 486.592 272.095, 486.584 270.841, 483.512 258.498 C 480.193 245.163, 480.268 241.323, 483.963 235.316 C 487.881 228.946, 494.640 210.153, 495.945 202 C 497.354 193.195, 497.265 186.740, 495.531 171.994 C 493.743 156.786, 491.494 147.755, 486.069 133.998 C 478.352 114.428, 468.463 99.571, 451.551 82.140 C 423.645 53.376, 394.436 37.105, 355.958 28.890 C 339.788 25.438, 315.985 25.583, 298.500 29.242 C 289.023 31.224, 284.544 31.738, 281.973 31.136 C 280.033 30.682, 274.492 27.388, 269.660 23.815 C 251.990 10.749, 235.880 4.069, 220.549 3.451 C 215.572 3.250, 209.554 3.499, 207.176 4.003" fill="none" stroke="#000" stroke-width="2px" fill-rule="evenodd"/>
</svg>
