<svg xmlns="http://www.w3.org/2000/svg" width="500" height="113" viewBox="0 0 500 113" version="1.1">
	<path d="M 143.434 6.108 C 123.811 9.141, 119.264 10.309, 106.468 15.604 C 99.023 18.684, 89.009 23.471, 84.215 26.240 C 79.422 29.009, 74.150 32.057, 72.500 33.013 C 70.850 33.969, 66.242 36.612, 62.261 38.887 C 46.728 47.760, 26 62.595, 21.003 68.414 C 19.626 70.017, 15.338 75.500, 11.474 80.599 C 3.593 90.997, 1.079 97.324, 3.684 100.203 C 6.274 103.065, 8.730 102.253, 34.500 90.014 C 73.225 71.621, 83.319 67.644, 122 55.540 C 137.797 50.597, 161.093 48.925, 185.828 50.960 C 192.248 51.489, 201.550 52.139, 206.500 52.405 C 211.450 52.672, 220.450 53.652, 226.500 54.583 C 232.550 55.514, 241.325 56.342, 246 56.422 C 252.847 56.539, 256.639 57.277, 265.500 60.217 C 275.497 63.533, 280.352 64.765, 302.500 69.597 C 306.350 70.437, 311.075 71.536, 313 72.038 C 328.207 76.007, 342.165 78.311, 358.432 79.537 C 363.344 79.907, 368.069 80.588, 368.932 81.051 C 372.771 83.108, 388.084 88.379, 394 89.678 C 397.575 90.464, 403.639 91.784, 407.475 92.613 C 411.311 93.442, 417.910 95.642, 422.138 97.501 C 426.670 99.493, 432.428 101.159, 436.163 101.559 C 439.648 101.932, 444.750 102.780, 447.500 103.443 C 450.850 104.251, 455.471 104.406, 461.500 103.912 C 466.450 103.506, 474.775 103.132, 480 103.081 C 490.998 102.974, 496.550 101.710, 498.011 98.979 C 499.390 96.403, 497.491 93.400, 493.521 91.878 C 490.967 90.900, 490.809 90.659, 492.500 90.321 C 498.182 89.187, 499 88.872, 499 87.814 C 499 86.431, 480.888 69.150, 474.866 64.788 C 470.291 61.474, 460.355 56.724, 455.622 55.588 C 454.039 55.208, 451.416 53.569, 449.792 51.946 C 445.039 47.193, 434.378 41.438, 421.500 36.675 C 399.140 28.404, 380.616 24.667, 356.295 23.523 C 349.583 23.207, 341.708 22.516, 338.795 21.988 C 333.880 21.095, 325.562 20.321, 296 18.005 C 289.675 17.510, 282.250 16.657, 279.500 16.110 C 276.750 15.563, 265.500 14.386, 254.500 13.494 C 243.500 12.602, 230.450 11.438, 225.500 10.908 C 220.550 10.378, 210.875 9.499, 204 8.956 C 197.125 8.413, 187.225 7.517, 182 6.964 C 170.518 5.750, 148.858 5.270, 143.434 6.108" fill="none" stroke="#000" stroke-width="2px" fill-rule="evenodd"/>
</svg>
