<svg xmlns="http://www.w3.org/2000/svg" width="500" height="456" viewBox="0 0 500 456" version="1.1">
	<path d="M 347.695 5.639 C 347.307 6.026, 340.047 6.457, 326.750 6.880 C 324.688 6.946, 323 7.437, 323 7.971 C 323 8.572, 331.675 8.930, 345.750 8.909 C 361.837 8.886, 370.978 9.321, 376.961 10.394 C 381.614 11.229, 385.585 11.749, 385.784 11.549 C 385.983 11.350, 381.051 10.031, 374.823 8.619 C 364.490 6.276, 348.783 4.550, 347.695 5.639 M 292.250 9.689 C 293.212 9.941, 294 10.502, 294 10.937 C 294 11.685, 304.034 10.284, 304.917 9.412 C 305.146 9.185, 301.996 9.052, 297.917 9.116 C 293.837 9.180, 291.288 9.438, 292.250 9.689 M 281.750 10.662 C 282.438 10.940, 283.563 10.940, 284.250 10.662 C 284.938 10.385, 284.375 10.158, 283 10.158 C 281.625 10.158, 281.063 10.385, 281.750 10.662 M 400.733 17.124 C 401.412 17.808, 402.219 18.115, 402.526 17.807 C 402.834 17.499, 402.279 16.940, 401.293 16.564 C 399.868 16.022, 399.753 16.136, 400.733 17.124 M 415.167 25.250 C 420.457 28.688, 426.640 33.192, 428.907 35.261 C 441.900 47.114, 450.287 65.829, 450.302 83 C 450.309 90.672, 447.173 104.371, 444.419 108.699 L 443.020 110.899 437.760 108.523 C 433.729 106.702, 429.872 105.983, 421.250 105.445 C 412.727 104.913, 410 104.410, 410 103.371 C 410 102.350, 408.340 102, 403.500 102 C 397.753 102, 397 101.777, 397 100.076 C 397 98.365, 396.311 98.172, 390.750 98.326 C 385.352 98.476, 384.519 98.262, 384.639 96.750 C 384.760 95.229, 383.812 95, 377.389 95 C 370.586 95, 370 94.836, 370 92.933 C 370 91.421, 369.530 91.013, 368.250 91.416 C 365.755 92.201, 356.005 94, 354.247 94 C 353.259 94, 352.941 93.335, 353.290 92 C 353.933 89.539, 352.959 89.503, 340 91.500 C 327.935 93.359, 327 93.350, 327 91.364 C 327 89.906, 325.826 89.804, 316.250 90.435 C 310.337 90.824, 302.350 91.547, 298.500 92.040 C 294.650 92.534, 286.183 92.952, 279.684 92.969 C 272.156 92.989, 267.076 93.451, 265.684 94.244 C 264.295 95.034, 258.705 95.546, 250.330 95.650 C 242.876 95.742, 235.689 96.345, 233.770 97.039 C 230.714 98.144, 229.991 98.019, 226.440 95.778 C 222.700 93.418, 218.695 91.711, 216.500 91.541 C 215.950 91.498, 213.025 90.294, 210 88.865 C 206.975 87.436, 201.125 85.244, 197 83.994 C 192.875 82.743, 186.125 80.694, 182 79.439 C 174.470 77.149, 165.607 75.469, 163.221 75.881 C 162.518 76.002, 159.143 75.382, 155.721 74.504 C 152.300 73.625, 147.490 72.669, 145.033 72.378 C 142.576 72.087, 140.209 71.629, 139.773 71.360 C 139.337 71.090, 130.885 70.855, 120.990 70.837 C 111.096 70.819, 103 70.459, 103 70.038 C 103 69.243, 107.551 67.391, 117 64.341 C 120.165 63.319, 121.744 62.412, 120.719 62.204 C 118.544 61.761, 99.994 67.262, 92.349 70.617 C 90.616 71.378, 88.642 72, 87.964 72 C 87.285 72, 85.639 73.176, 84.307 74.614 C 82.409 76.662, 81.264 77.103, 79.013 76.653 C 77.433 76.337, 75.996 76.453, 75.820 76.912 C 75.644 77.370, 73.138 78.935, 70.250 80.389 C 66.164 82.447, 65 83.553, 65 85.375 C 65 87.042, 63.601 88.695, 60.144 91.116 C 55.692 94.232, 51.449 97.763, 39.438 108.342 C 37.039 110.455, 34.778 113.123, 34.415 114.269 C 34.051 115.416, 32.654 117.512, 31.311 118.927 C 28.540 121.847, 21.033 134.847, 21.013 136.760 C 21.006 137.454, 18.722 142.709, 15.937 148.439 C 10.253 160.133, 8.728 167.628, 7.492 189.936 C 7.080 197.368, 6.272 203.203, 5.485 204.436 C 4.461 206.040, 4.351 209.087, 4.990 218.118 C 5.766 229.085, 7.337 234.854, 9.993 236.496 C 11.249 237.272, 11.312 241.275, 10.088 242.550 C 8.674 244.022, 7.006 260.294, 7.003 272.644 C 6.997 295.978, 10.445 315.088, 17.424 330.402 C 21.072 338.407, 22.748 340.202, 24.181 337.640 C 25.689 334.947, 26.861 335.751, 27.986 340.250 C 32.205 357.109, 39.496 372.648, 53.190 393.966 C 54.768 396.423, 57.184 400.810, 58.559 403.716 C 61.271 409.450, 64.385 411, 63.822 406.337 C 63.240 401.522, 65.708 402.807, 67.417 408.209 C 68.337 411.119, 69.923 415.525, 70.941 418 C 71.958 420.475, 73.584 425.806, 74.554 429.847 C 75.883 435.384, 77.148 438.075, 79.688 440.768 C 84.249 445.604, 85.851 444.197, 84.154 436.846 C 82.074 427.836, 84.438 428.678, 89.064 438.595 C 94.224 449.655, 98.117 455.996, 99.750 455.998 C 100.438 455.999, 101 455.550, 101 455 C 101 454.450, 101.675 454, 102.500 454 C 104.253 454, 104.335 453.588, 103.054 451.236 C 99.443 444.604, 91.518 418.589, 92.584 416.865 C 92.886 416.375, 95.016 417.505, 97.317 419.374 C 105.132 425.724, 108.020 426.992, 114.673 426.996 C 119.709 426.999, 121.367 427.438, 123.673 429.376 C 126.530 431.778, 128.625 432.224, 137.257 432.271 C 140.444 432.288, 142.664 431.709, 143.982 430.517 C 147.645 427.202, 147.403 425.366, 142.320 417.893 C 139.669 413.994, 137.195 410.286, 136.821 409.652 C 136.448 409.018, 134.109 405.034, 131.622 400.798 C 129.136 396.562, 125.166 390.656, 122.801 387.673 C 120.435 384.690, 116.475 379.394, 114 375.904 C 111.525 372.414, 107.587 367.393, 105.250 364.746 C 102.912 362.099, 100.985 359.611, 100.967 359.217 C 100.949 358.822, 97.349 354.686, 92.967 350.024 C 88.585 345.361, 85 341.026, 85 340.390 C 85 338.658, 77.533 332.249, 73.600 330.606 C 71.706 329.815, 69.396 328.007, 68.467 326.589 C 66.869 324.151, 66.890 323.594, 68.864 316.256 C 73.190 300.168, 74.881 280.360, 72.520 273.407 C 70.893 268.616, 70.463 254.395, 71.878 252.164 C 72.429 251.294, 74.258 250.933, 77.112 251.131 L 81.500 251.434 81.149 243.217 C 80.954 238.649, 81.205 235, 81.715 235 C 82.219 235, 83.587 233.313, 84.754 231.250 C 86.407 228.329, 88.643 226.615, 94.866 223.500 C 100.331 220.764, 102.958 218.868, 103.178 217.500 C 103.638 214.644, 108.637 214.422, 116.802 216.894 C 120.486 218.010, 124.719 219.209, 126.209 219.559 C 130.900 220.662, 131.089 221.896, 127.961 231.022 C 126.363 235.685, 125.043 239.613, 125.028 239.750 C 125.013 239.887, 125.658 240, 126.463 240 C 128.201 240, 135.743 232.385, 136.562 229.804 C 137.223 227.721, 139.065 227.465, 140.812 229.212 C 141.478 229.878, 143.733 230.300, 145.822 230.149 C 149.083 229.913, 149.792 230.247, 150.819 232.503 C 151.758 234.563, 152.610 235.063, 154.758 234.816 C 156.947 234.564, 157.567 233.917, 157.830 231.609 C 158.012 230.018, 157.777 228.443, 157.310 228.109 C 155.776 227.011, 154 221.969, 154 218.712 C 154 212.921, 147.493 201.629, 140.422 195.149 C 133.739 189.026, 133.026 188, 135.450 188 C 136.248 188, 137.260 187.371, 137.700 186.602 C 139.238 183.914, 148.335 186.351, 154.846 191.194 C 159.874 194.935, 161.049 196.484, 163.797 203 C 167.110 210.855, 170.164 221.920, 170.075 225.747 C 170.046 226.982, 168.664 230.991, 167.003 234.654 C 165.341 238.318, 164.190 241.524, 164.445 241.778 C 165.411 242.744, 169.618 240.885, 172.500 238.217 C 176.083 234.901, 177.732 230.592, 178.518 222.500 C 178.838 219.200, 179.572 214.896, 180.149 212.937 C 180.873 210.474, 180.878 208.311, 180.164 205.937 C 177.658 197.596, 172.153 183.163, 170.537 180.697 C 168.948 178.271, 168.933 178, 170.390 178 C 171.281 178, 174.196 179.055, 176.869 180.344 C 179.541 181.633, 183.133 182.728, 184.850 182.777 C 188.944 182.893, 189.630 183.402, 190.315 186.825 C 190.630 188.401, 193.077 192.348, 195.753 195.596 C 203.568 205.082, 209.747 214.550, 210.474 218.154 C 211.695 224.202, 212.113 225, 214.067 225 C 215.130 225, 216 224.550, 216 224 C 216 223.450, 216.620 223, 217.378 223 C 218.135 223, 219.315 222.325, 220 221.500 C 222.094 218.977, 225.700 219.683, 227.659 223 C 229.551 226.204, 231.724 227.175, 230.455 224.250 C 230.037 223.287, 229.502 221.143, 229.265 219.483 C 228.903 216.940, 229.443 215.979, 232.702 213.360 C 236.368 210.414, 238.590 209.903, 242 211.222 C 248.270 213.647, 271.463 221.094, 275.500 221.978 C 278.250 222.581, 281.288 223.312, 282.250 223.604 C 283.782 224.069, 284 223.384, 284 218.113 C 284 212.904, 284.365 211.726, 286.699 209.392 C 288.183 207.908, 289.561 207.184, 289.761 207.783 C 289.981 208.442, 291.719 208.682, 294.151 208.388 C 296.366 208.121, 298.701 208.280, 299.339 208.742 C 299.978 209.203, 303.091 210.341, 306.257 211.270 C 309.423 212.200, 314.522 213.729, 317.588 214.670 C 321.873 215.984, 323.581 216.118, 324.974 215.249 C 326.483 214.306, 327.301 214.650, 329.874 217.309 C 331.572 219.064, 333.924 221.400, 335.099 222.500 C 336.275 223.600, 339.321 227.617, 341.868 231.427 C 346.828 238.845, 347.670 239.522, 350 237.965 C 351.311 237.088, 351.280 236.793, 349.750 235.621 C 348.788 234.883, 348 233.789, 348 233.189 C 348 232.590, 347.287 231.701, 346.416 231.213 C 343.384 229.516, 334 216.760, 334 214.335 C 334 212.938, 333.235 211.636, 332.170 211.218 C 329.066 210.001, 322 203.398, 322 201.715 C 322 200.570, 323.335 199.946, 326.750 199.493 C 329.363 199.146, 332.482 198.384, 333.683 197.799 C 334.883 197.213, 336.570 197.005, 337.433 197.336 C 338.348 197.687, 339 197.410, 339 196.669 C 339 193.875, 336.475 193, 328.417 193 C 320.776 193, 320.193 192.851, 319.630 190.750 C 318.383 186.094, 318.882 184.002, 321.250 183.968 C 322.488 183.951, 324.343 183.298, 325.373 182.518 C 326.480 181.680, 328.372 181.324, 329.997 181.649 C 332.063 182.063, 333.117 181.672, 334.233 180.077 C 335.179 178.728, 336.317 178.184, 337.360 178.585 C 338.325 178.955, 339 178.714, 339 178 C 339 177.332, 339.670 177.043, 340.490 177.358 C 341.488 177.741, 342.183 177.119, 342.596 175.472 C 343.098 173.471, 343.657 173.127, 345.606 173.616 C 346.983 173.962, 348 173.775, 348 173.176 C 348 172.603, 348.851 171.865, 349.892 171.534 C 350.933 171.204, 352.016 170.049, 352.298 168.967 C 352.712 167.384, 353.679 167, 357.251 167 C 360.420 167, 362.208 166.428, 363.500 165 C 365.941 162.302, 369.150 162.482, 372.405 165.500 C 374.938 167.847, 377.959 168.707, 379.225 167.442 C 380.293 166.373, 378.739 162.886, 377.420 163.392 C 376.694 163.671, 375.825 163.023, 375.484 161.949 C 375.144 160.877, 374.446 160, 373.933 160 C 372.085 160, 373.053 158.297, 375.547 157.161 C 378.811 155.673, 378.575 155.628, 380.974 158.203 C 382.888 160.256, 383.314 160.319, 387.263 159.120 C 389.594 158.412, 396.436 157.662, 402.470 157.453 C 408.503 157.243, 415.703 156.570, 418.470 155.956 C 426.599 154.151, 438 150.698, 438 150.040 C 438 149.705, 439.462 148.582, 441.250 147.544 C 443.038 146.506, 444.836 145.101, 445.247 144.422 C 445.658 143.744, 448.358 142.889, 451.247 142.523 C 454.136 142.157, 459.200 140.929, 462.500 139.793 C 466.582 138.389, 470.803 137.762, 475.706 137.831 C 481.191 137.909, 482.794 137.627, 482.419 136.650 C 481.750 134.905, 489.080 126.009, 491.191 126.004 C 492.121 126.002, 493.160 125.550, 493.500 125 C 493.849 124.435, 493.027 124, 491.608 124 C 486.296 124, 478.847 121.841, 479.379 120.456 C 479.746 119.499, 478.587 118.911, 475.388 118.431 C 472.332 117.973, 471.037 117.345, 471.369 116.481 C 471.727 115.548, 469.138 114.867, 461.679 113.932 C 456.080 113.230, 450.092 112.644, 448.371 112.628 L 445.243 112.600 446.991 108.522 C 452.071 96.671, 453.279 80.556, 450.026 68.029 C 446.443 54.230, 441.897 46.753, 429.802 34.760 C 423.834 28.842, 418.175 23.986, 417.226 23.969 C 416.277 23.952, 413.700 22.829, 411.500 21.474 C 403.088 16.293, 406.004 19.296, 415.167 25.250 M 205 36.871 C 204.175 37.316, 200.359 38.506, 196.520 39.514 C 192.681 40.522, 190.106 41.535, 190.799 41.766 C 192.334 42.278, 201.742 40.144, 204.500 38.658 C 205.600 38.065, 207.063 37.695, 207.750 37.834 C 208.438 37.974, 209 37.618, 209 37.044 C 209 35.812, 207.111 35.731, 205 36.871 M 180.500 44.516 C 176.650 45.786, 174.200 46.865, 175.056 46.913 C 176.773 47.009, 189 43.059, 189 42.408 C 189 41.788, 188.079 42.016, 180.500 44.516 M 165.500 49 C 164.239 49.542, 164.055 49.859, 165 49.859 C 165.825 49.859, 167.400 49.473, 168.500 49 C 169.761 48.458, 169.945 48.141, 169 48.141 C 168.175 48.141, 166.600 48.527, 165.500 49 M 125.500 60.464 C 121.455 62.316, 123.882 62.386, 128.135 60.539 C 129.986 59.736, 130.825 59.081, 130 59.084 C 129.175 59.088, 127.150 59.708, 125.500 60.464 M 353.500 190 C 353.160 190.550, 353.584 191, 354.441 191 C 355.298 191, 356 190.550, 356 190 C 356 189.450, 355.577 189, 355.059 189 C 354.541 189, 353.840 189.450, 353.500 190 M 210.446 227.087 C 210.077 227.685, 210.275 228.675, 210.887 229.287 C 211.704 230.104, 212 229.815, 212 228.200 C 212 225.785, 211.481 225.413, 210.446 227.087 M 282.073 236.750 C 282.113 241.012, 282.484 246.875, 282.897 249.778 C 283.431 253.525, 283.275 255.591, 282.360 256.897 C 280.706 259.258, 281.879 260.542, 283.582 258.234 C 284.777 256.616, 284.917 256.640, 285.681 258.601 C 286.825 261.535, 293.340 270.943, 294.250 270.974 C 295.679 271.023, 294.979 269.373, 290.457 262.040 C 287.313 256.941, 286.275 254.448, 287.085 253.947 C 287.729 253.549, 288.015 252.834, 287.720 252.357 C 287.426 251.880, 286.911 248.154, 286.576 244.077 C 286.241 240, 285.497 236.098, 284.922 235.406 C 284.348 234.715, 283.959 233.552, 284.058 232.824 C 284.389 230.379, 284.007 229, 283 229 C 282.413 229, 282.030 232.201, 282.073 236.750 M 210 233.941 C 210 235.009, 210.450 236.160, 211 236.500 C 211.567 236.851, 212 236.010, 212 234.559 C 212 233.152, 211.550 232, 211 232 C 210.450 232, 210 232.873, 210 233.941 M 352 239.759 C 352 240.732, 356.048 243.285, 356.645 242.688 C 357.239 242.094, 354.121 239, 352.929 239 C 352.418 239, 352 239.342, 352 239.759 M 269 270.500 C 268.315 271.325, 267.341 272, 266.836 272 C 265.443 272, 261.558 275.892, 262.255 276.589 C 262.591 276.924, 264.808 275.365, 267.182 273.124 C 269.557 270.883, 271.218 269.039, 270.872 269.025 C 270.527 269.011, 269.685 269.675, 269 270.500 M 295 272.819 C 295 274.027, 296.897 275.436, 297.591 274.743 C 297.842 274.491, 297.362 273.716, 296.524 273.020 C 295.574 272.231, 295 272.155, 295 272.819" fill="none" stroke="#000" stroke-width="2px" fill-rule="evenodd"/>
</svg>
