<svg xmlns="http://www.w3.org/2000/svg" width="500" height="269" viewBox="0 0 500 269" version="1.1">
	<path d="M 487.185 7.679 C 485.361 8.578, 478.835 14.080, 472.681 19.907 C 445.205 45.922, 428.072 56.221, 399.500 63.901 C 370.716 71.638, 372.145 71.506, 318 71.450 C 276.235 71.406, 268.409 71.163, 261.643 69.700 C 256.452 68.577, 249.157 67.993, 240.143 67.978 C 224.050 67.952, 220.272 66.735, 215.019 59.884 C 209.885 53.188, 203.798 46.996, 200.797 45.419 C 198.136 44.019, 198.079 44.055, 197.053 47.749 C 196.480 49.812, 196.006 53.525, 196 56 C 195.986 61.556, 194.418 67.439, 192.417 69.440 C 191.074 70.783, 189.961 70.473, 182.205 66.597 C 164.073 57.537, 141.833 52.147, 107.500 48.494 C 89.908 46.622, 81.091 46.615, 67.924 48.463 C 51.014 50.837, 29.283 57.030, 30.568 59.110 C 31.246 60.208, 34.249 59.584, 44 56.321 C 61.736 50.386, 71.300 49.852, 103.500 52.996 C 133.337 55.909, 155.649 62.006, 168.250 70.688 C 173.693 74.439, 173.092 77.935, 166.730 79.532 C 162.623 80.563, 159.016 84.671, 154 94.035 C 148.502 104.297, 134.500 119.379, 123.764 126.602 C 114.370 132.923, 102.155 139.045, 92.874 142.085 C 86.299 144.238, 83.767 144.497, 69.500 144.468 C 44.349 144.417, 29.490 140.560, 14 130.059 C 11.525 128.381, 9.162 127.007, 8.750 127.004 C 5.476 126.986, 14.267 138.495, 19.683 141.318 C 21.601 142.317, 23.920 144.453, 24.835 146.064 C 25.751 147.675, 28.075 149.722, 30 150.614 C 31.925 151.506, 40.486 155.984, 49.025 160.564 C 57.564 165.144, 66.617 169.354, 69.144 169.920 C 71.670 170.486, 77.284 172.060, 81.618 173.417 C 90.127 176.080, 102.904 179.237, 112.500 181.046 C 123.508 183.121, 151.042 183.378, 170.500 181.588 C 180.400 180.677, 190.975 179.474, 194 178.915 C 203.065 177.239, 226.997 176.621, 233.069 177.906 C 236.056 178.538, 241.731 180.393, 245.680 182.028 C 249.630 183.663, 253.917 185, 255.209 185 C 258.981 185, 271.529 191.525, 276.410 196.024 C 284.945 203.891, 288.434 216.291, 284.643 225.282 C 282.604 230.118, 274.743 236.856, 262.768 244.032 C 256.866 247.569, 251.779 251.134, 251.464 251.955 C 250.674 254.012, 253.320 255.704, 259.482 257.083 C 263.719 258.032, 266.105 257.962, 272.226 256.714 C 290.171 253.055, 302.833 238.633, 306.444 217.740 C 306.954 214.790, 306.177 211.288, 302.837 201.486 C 297.707 186.428, 297.828 186.112, 309.194 184.910 C 324.853 183.254, 330.868 181.390, 342.118 174.712 C 358.722 164.856, 362.817 163.214, 371.201 163.049 C 383.077 162.816, 386.232 164.890, 396.980 180.002 C 400.698 185.229, 405.850 191.451, 408.431 193.830 C 412.743 197.804, 413.435 198.102, 416.959 197.507 C 419.428 197.090, 421.049 197.270, 421.508 198.012 C 422.863 200.205, 431.471 203.202, 436.181 203.120 C 441.802 203.023, 448.689 200.449, 450.029 197.945 C 451.628 194.957, 451.141 190.141, 449.025 188.025 C 446.160 185.160, 443.039 184.685, 435.136 185.911 C 431.275 186.510, 425.617 187, 422.561 187 C 417.620 187, 416.579 186.614, 413.145 183.512 C 410.978 181.554, 408.031 177.276, 406.429 173.762 C 403.965 168.358, 403.520 165.984, 403.185 156.434 C 402.891 148.089, 403.190 144.207, 404.398 140.649 C 406.716 133.820, 406.512 130.291, 403.750 129.449 C 400.338 128.409, 398 125.950, 398 123.401 C 398 119.999, 402.788 116.489, 429.326 100.436 C 442.430 92.509, 456.380 83.413, 460.326 80.222 C 468.952 73.246, 480.013 59.787, 483.914 51.519 C 490.904 36.701, 496.456 13.491, 494.196 8.531 C 492.854 5.586, 491.714 5.447, 487.185 7.679" fill="none" stroke="#000" stroke-width="2px" fill-rule="evenodd"/>
</svg>
