<svg xmlns="http://www.w3.org/2000/svg" width="500" height="440" viewBox="0 0 500 440" version="1.1">
	<path d="M 195 1.040 C 195 2.612, 198.881 7.843, 204.745 14.176 C 208.311 18.028, 210 20.696, 210 22.479 C 210 25.636, 206.100 31.500, 204 31.500 C 202.948 31.500, 202.590 32.348, 202.802 34.341 C 202.968 35.904, 202.722 36.946, 202.254 36.657 C 201.787 36.368, 200.751 36.539, 199.952 37.035 C 198.712 37.807, 198.700 38.261, 199.869 40.146 C 201.054 42.057, 201.020 42.512, 199.619 43.537 C 198.728 44.188, 198 45.699, 198 46.895 C 198 48.092, 197.286 50.160, 196.414 51.491 C 195.493 52.897, 195.163 54.454, 195.627 55.205 C 196.067 55.917, 196.305 57.660, 196.156 59.079 C 196.007 60.498, 196.586 62.241, 197.442 62.952 C 199.825 64.930, 199.348 67.696, 196.500 68.411 C 193.528 69.157, 193.132 72, 196 72 C 198.516 72, 198.517 73.104, 196.004 77.226 C 193.611 81.151, 193.521 82, 195.500 82 C 197.471 82, 197.420 84.406, 195.414 86.072 C 194.348 86.956, 194.012 88.308, 194.389 90.194 C 195.003 93.267, 193.644 93.973, 192.173 91.346 C 190.965 89.186, 188 90.304, 188 92.919 C 188 94.009, 188.607 95.260, 189.349 95.700 C 190.091 96.140, 191 97.737, 191.368 99.250 C 191.932 101.563, 191.717 102, 190.019 102 C 188.826 102, 188 102.662, 188 103.616 C 188 106.278, 174.579 118.550, 167.292 122.552 C 151.101 131.445, 152.435 131, 141.941 131 C 126.005 131, 110.979 134.559, 95.415 142.021 C 76.847 150.923, 68.257 163.350, 56.534 198.268 C 50.129 217.343, 42.896 235.201, 41.369 235.710 C 39.670 236.277, 30.354 228.269, 29.050 225.122 C 28.250 223.189, 28.009 218.727, 28.335 211.855 C 28.727 203.564, 29.370 200.204, 31.560 195 C 33.973 189.265, 34.366 186.771, 34.897 173.818 C 35.417 161.150, 35.781 158.761, 37.550 156.396 C 40.851 151.982, 42.568 151.299, 44.948 153.453 C 46.083 154.480, 47.253 155.080, 47.547 154.786 C 48.313 154.021, 43.052 147.992, 41.661 148.041 C 39.319 148.124, 31.924 155.919, 29.947 160.388 C 28.523 163.605, 27.784 167.859, 27.485 174.542 C 27.017 185.016, 26.727 186, 24.106 186 C 20.977 186, 14.020 195.420, 15.820 197.220 C 16.973 198.373, 14.284 202, 12.278 202 C 11.575 202, 11 202.900, 11 204 C 11 205.100, 10.550 206, 10 206 C 8.399 206, 8.847 209.004, 10.545 209.656 C 11.846 210.155, 11.767 210.475, 10.045 211.681 C 7.928 213.164, 7.242 216, 9 216 C 10.305 216, 10.284 219.601, 8.965 222.066 C 8.395 223.130, 7.320 224, 6.574 224 C 4.908 224, 3.862 230.971, 5.262 232.750 C 5.802 233.437, 7.037 234, 8.006 234 C 10.301 234, 11.454 238.167, 9.466 239.279 C 7.598 240.324, 7.566 243.655, 9.413 244.700 C 10.191 245.140, 10.978 246.850, 11.163 248.500 C 11.436 250.934, 11.925 251.455, 13.750 251.262 C 15.430 251.084, 16 251.544, 16 253.078 C 16 255.958, 17.452 258.360, 21.996 262.996 C 24.161 265.205, 25.702 267.614, 25.419 268.350 C 25.137 269.086, 26.275 271.154, 27.949 272.946 C 29.623 274.737, 30.746 276.602, 30.444 277.090 C 29.677 278.332, 35.176 284.993, 37 285.032 C 39.373 285.082, 41.610 287.262, 42.353 290.250 C 42.730 291.762, 43.656 293, 44.412 293 C 45.579 293, 47.583 295.939, 46.774 296.463 C 46.623 296.561, 43.913 297.879, 40.750 299.394 C 37.588 300.908, 34.948 302.677, 34.885 303.324 C 34.821 303.971, 34.702 305.175, 34.619 306 C 34.536 306.825, 34.839 308.027, 35.292 308.672 C 35.757 309.334, 35.546 310.774, 34.807 311.983 C 33.677 313.832, 33.754 314.310, 35.375 315.513 C 36.407 316.278, 36.996 317.568, 36.685 318.379 C 36.045 320.048, 38.024 326, 39.219 326 C 39.649 326, 40 326.660, 40 327.466 C 40 330.008, 43.312 336, 44.717 336 C 47.007 336, 47.333 333.090, 45.631 327.822 C 43.331 320.699, 43.438 309.819, 45.829 307.655 C 48.733 305.027, 53.269 305.644, 58.900 309.433 C 61.706 311.321, 64.902 313.151, 66.002 313.501 C 67.102 313.850, 68.467 315.005, 69.036 316.068 C 69.607 317.133, 71.121 318, 72.413 318 C 73.731 318, 75.414 318.984, 76.259 320.250 C 77.642 322.321, 77.529 322.961, 74.847 328.287 C 72.922 332.111, 71.011 334.458, 69.217 335.204 C 66.246 336.438, 65.955 336.477, 51.705 337.557 C 43.691 338.164, 41.731 338.634, 40.925 340.139 C 40.096 341.689, 39.629 341.785, 37.970 340.749 C 36.397 339.767, 35.574 339.785, 33.887 340.839 C 32.724 341.565, 30.970 342.313, 29.988 342.502 C 27.685 342.946, 24 346.100, 24 347.629 C 24 348.280, 23.193 348.602, 22.206 348.344 C 20.043 347.778, 13.976 353.212, 11.566 357.873 C 10.647 359.649, 9.346 361.314, 8.675 361.571 C 7.985 361.836, 7.455 363.847, 7.455 366.194 C 7.455 368.479, 6.935 370.522, 6.300 370.733 C 5.574 370.975, 5.352 372.392, 5.702 374.551 C 6.008 376.439, 5.849 378.549, 5.348 379.242 C 3.960 381.159, 4.531 388.813, 6.209 390.767 C 10.093 395.293, 8.971 399.628, 3.749 400.277 C 1.181 400.595, 1.470 400.713, 5.129 400.840 C 9.406 400.988, 9.853 400.769, 11.019 397.955 C 11.981 395.631, 12.010 394.317, 11.140 392.408 C 10.513 391.032, 10 388.391, 10 386.538 C 10 381.744, 15.618 367.656, 18.807 364.454 C 22.752 360.494, 31.972 354.461, 36 353.205 C 38.642 352.381, 62 351.736, 62 352.487 C 62 352.563, 60.657 356.597, 59.017 361.451 C 53.274 378.439, 51.671 388.674, 52.284 404.424 C 52.586 412.166, 53.506 420.965, 54.329 423.977 C 56.182 430.761, 60.443 435, 65.409 435 C 67.503 435, 69.007 435.575, 69.367 436.515 C 70.932 440.592, 81.070 440.111, 85.346 435.757 C 86.361 434.723, 88.226 433.484, 89.490 433.004 C 92.008 432.047, 95 426.922, 95 423.569 C 95 419.599, 92.277 417.199, 86.385 415.976 C 82.335 415.135, 80.484 415.116, 79.693 415.907 C 77.674 417.926, 77.331 417.029, 78.103 411.750 C 79.999 398.792, 88.312 377.739, 94.391 370.500 C 95.776 368.850, 99.552 364.125, 102.782 360 C 111.605 348.730, 110.462 349.114, 121.239 353.795 C 147.212 365.074, 184.820 367.991, 208.500 360.564 C 218.755 357.348, 225.351 353.379, 245.727 338.168 C 262.146 325.910, 269.387 321.910, 281.874 318.199 L 287.247 316.602 290.572 320.230 C 293.446 323.366, 293.817 324.351, 293.309 327.486 C 292.802 330.608, 293.018 331.192, 294.860 331.674 C 296.037 331.981, 297 332.824, 297 333.545 C 297 334.267, 297.588 335.452, 298.306 336.179 C 299.024 336.905, 299.914 338.299, 300.284 339.275 C 300.797 340.628, 301.591 340.890, 303.633 340.377 C 306.032 339.775, 306.250 339.937, 305.730 341.926 C 305.341 343.412, 305.786 344.692, 307.074 345.796 C 308.344 346.883, 309 348.731, 309 351.222 C 309 353.300, 309.450 355, 310 355 C 310.550 355, 311.008 355.788, 311.017 356.750 C 311.027 357.712, 312.152 359.560, 313.517 360.855 C 314.883 362.150, 316 364.063, 316 365.105 C 316 366.147, 316.440 367, 316.977 367 C 317.514 367, 318.682 368.111, 319.572 369.469 C 321.076 371.765, 321.039 372.630, 319.037 381.828 C 316.709 392.529, 316.466 404.744, 318.676 400 C 319.316 398.625, 321.775 392.325, 324.139 386 C 328.127 375.334, 328.446 373.753, 328.545 364.201 C 328.604 358.537, 328.300 353.685, 327.870 353.419 C 327.439 353.153, 327.323 352.321, 327.612 351.569 C 327.900 350.817, 327.656 349.905, 327.068 349.542 C 326.481 349.179, 326 347.810, 326 346.500 C 326 345.190, 325.550 343.840, 325 343.500 C 324.450 343.160, 323.965 341.896, 323.921 340.691 C 323.878 339.486, 322.537 336.475, 320.941 334 C 319.346 331.525, 317.610 328.535, 317.085 327.356 C 315.448 323.681, 303.890 312.020, 299.083 309.195 C 295 306.794, 293.517 306.505, 285.500 306.545 C 271.397 306.615, 263.743 310.473, 231 334.014 C 215.486 345.168, 215.153 345.360, 205.625 348.707 C 199.328 350.919, 196.409 351.264, 180.500 351.682 C 164.043 352.114, 161.514 351.942, 151 349.672 C 136.306 346.499, 122.835 342.908, 121.314 341.758 C 120.486 341.132, 122.748 338.570, 128.814 333.263 C 141.990 321.735, 149.659 314.170, 155.454 306.987 C 160.140 301.177, 161.442 300.214, 167.505 298.073 C 171.243 296.754, 175.743 294.408, 177.505 292.861 L 180.708 290.049 186.256 291.999 C 193.911 294.689, 205.061 296.399, 209.510 295.564 C 212.141 295.071, 215.151 293.061, 219.860 288.653 C 223.512 285.234, 231.675 278.882, 238 274.538 C 244.325 270.194, 255.800 262.277, 263.500 256.945 C 271.200 251.612, 283.530 243.758, 290.900 239.490 C 298.270 235.223, 309.745 228.062, 316.400 223.578 C 328.072 215.714, 337.314 211, 341.061 211 C 342.047 211, 344.220 209.343, 345.890 207.318 L 348.925 203.635 350.917 206.167 C 352.015 207.564, 355.603 209.681, 358.921 210.891 C 362.228 212.097, 365.200 213.514, 365.526 214.042 C 367.076 216.549, 368.822 215.444, 381.192 204.126 C 387.675 198.195, 399.456 182.437, 405.520 171.589 C 410.909 161.946, 414.572 158.415, 426.256 151.596 C 429.935 149.449, 435.433 145.476, 438.473 142.766 C 446.662 135.467, 459.285 119.889, 463.483 111.900 C 465.510 108.043, 469.661 102.100, 472.707 98.693 C 483.004 87.179, 492.282 71.486, 498.971 54.269 C 500.611 50.048, 499.614 46, 496.933 46 C 495.817 46, 490.763 48.151, 485.702 50.779 C 467.177 60.401, 465.257 61.004, 453.268 60.967 C 440.511 60.929, 434.293 60.130, 415.169 56.074 C 401.809 53.240, 399.906 52.534, 387.089 45.653 C 365.257 33.931, 353.887 30.493, 341.379 31.829 C 334.501 32.564, 334.419 32.609, 327.271 39.534 C 320.893 45.714, 319.280 48.110, 312.975 60.771 C 305.759 75.260, 303.924 80.975, 305.761 83.242 C 306.834 84.566, 305.989 98.344, 304.759 99.575 C 304.389 99.945, 300.857 101.335, 296.911 102.664 C 286.961 106.014, 270.771 113.784, 258.464 121.116 C 246.707 128.119, 240.223 133.516, 206.500 164.366 C 168.266 199.344, 155.031 212.746, 149.957 221.625 L 147.599 225.751 150.549 228.344 C 152.172 229.770, 154.085 230.951, 154.800 230.968 C 155.742 230.991, 155.831 231.480, 155.120 232.749 C 154.412 234.015, 154.581 234.984, 155.731 236.256 C 158.170 238.950, 156.632 239.371, 151.080 237.526 C 140.924 234.153, 128 235.302, 128 239.578 C 128 240.309, 126.088 241.753, 123.750 242.788 C 120.998 244.006, 117.562 246.997, 114 251.275 C 108.162 258.288, 107.366 258.796, 105.610 256.630 C 103.950 254.582, 96.203 252.972, 93.306 254.074 C 91.966 254.583, 88.860 255, 86.404 255 C 83.356 255, 81.754 255.476, 81.362 256.500 C 81.045 257.325, 79.709 258, 78.393 258 C 76.073 258, 76.001 257.764, 76.024 250.250 C 76.037 245.814, 76.881 239.364, 77.998 235.166 C 80.024 227.547, 81.169 219.514, 83.010 200 C 84.011 189.389, 85.525 181.474, 88.127 173.250 C 89.465 169.022, 93 168.633, 93 172.714 C 93 175.205, 93.132 175.296, 94.604 173.825 C 96.862 171.566, 95.578 166.367, 92.344 164.672 L 89.852 163.367 93.901 159.708 C 103.715 150.842, 124.816 143.881, 147.447 142.043 C 158.404 141.153, 160.946 140.578, 168.696 137.236 C 185.180 130.129, 196.039 121.185, 203.814 108.310 C 211.687 95.276, 213.367 87.857, 214.981 59 C 215.458 50.475, 216.557 41.039, 217.424 38.032 C 218.291 35.025, 219 29.380, 219 25.488 C 219 19.290, 218.596 17.734, 215.750 12.956 C 213.029 8.388, 211.361 6.895, 205.500 3.782 C 198.434 0.028, 195 -0.868, 195 1.040 M 50 296.393 C 50 296.609, 50.675 297.045, 51.500 297.362 C 52.325 297.678, 53 297.501, 53 296.969 C 53 296.436, 52.325 296, 51.500 296 C 50.675 296, 50 296.177, 50 296.393 M 67.675 300.658 C 66.662 301.671, 69.023 304, 71.063 304 C 72.064 304, 73.153 304.438, 73.483 304.973 C 74.037 305.868, 76.560 306.701, 84.500 308.610 C 87.097 309.235, 87.333 309.129, 86.259 307.824 C 85.576 306.995, 85.284 306.049, 85.611 305.722 C 85.937 305.396, 84.578 304.824, 82.591 304.451 C 80.604 304.078, 78.731 303.374, 78.430 302.887 C 78.129 302.399, 76.585 302, 75 302 C 73.415 302, 71.840 301.550, 71.500 301 C 70.798 299.865, 68.660 299.673, 67.675 300.658 M 79.514 419.565 C 78.091 420.640, 77.622 421.978, 77.860 424.283 C 78.486 430.370, 81.771 431.268, 86.750 426.711 C 89.783 423.935, 89.581 421.774, 86.096 419.716 C 82.598 417.650, 82.064 417.637, 79.514 419.565" fill="none" stroke="#000" stroke-width="2px" fill-rule="evenodd"/>
</svg>
