<svg xmlns="http://www.w3.org/2000/svg" width="484" height="463" viewBox="0 0 484 463" version="1.1">
	<path d="M 115.500 9.635 C 110.347 11.443, 109 13.354, 109 18.851 C 109 22.814, 109.457 23.725, 113.045 26.910 C 125.108 37.618, 143.263 56.338, 143.902 58.727 C 144.372 60.483, 146.006 62.147, 148.563 63.473 C 151.126 64.802, 152.849 66.559, 153.500 68.508 C 154.050 70.154, 155.287 72.614, 156.250 73.973 C 157.213 75.333, 158 77.488, 158 78.763 C 158 80.038, 158.830 82.300, 159.844 83.790 C 165.912 92.710, 167 94.878, 167.001 98.054 C 167.001 102.483, 170.380 111.380, 173.091 114.091 C 174.670 115.670, 175.022 116.858, 174.499 118.848 C 173.108 124.141, 173.732 126.965, 177.503 132.440 L 181.297 137.948 180.723 147.563 C 180.071 158.495, 178.914 160.618, 173.113 161.527 C 160.284 163.535, 156.328 164.394, 155 165.458 C 154.113 166.169, 149.711 166.724, 144.223 166.818 C 138.614 166.914, 133.870 167.523, 132.223 168.358 C 130.725 169.118, 127.345 170.054, 124.712 170.437 C 122.078 170.820, 118.346 171.793, 116.418 172.599 C 114.490 173.404, 112.499 173.808, 111.993 173.496 C 111.488 173.184, 108.740 174.111, 105.887 175.557 C 99.703 178.691, 92.524 180.974, 88.809 180.989 C 87.329 180.995, 85.811 181.497, 85.436 182.104 C 84.356 183.851, 76.797 186.952, 73.500 187 C 71.850 187.025, 69.375 187.924, 68 189 C 66.625 190.076, 64.989 190.966, 64.365 190.978 C 59.963 191.064, 41.700 198.379, 35.018 202.732 C 33.103 203.979, 30.420 205, 29.057 205 C 24.304 205, 14.919 209.388, 11.409 213.253 C 9.534 215.317, 8 217.664, 8 218.468 C 8 220.257, 13.490 226.648, 16.387 228.231 C 23.355 232.038, 46.259 232.070, 72.500 228.309 C 82.043 226.941, 102.129 228.199, 105.447 230.373 C 106.813 231.268, 109.376 232, 111.144 232 C 112.912 232, 115.852 232.540, 117.679 233.201 C 120.308 234.152, 121.749 234.131, 124.593 233.103 C 127.983 231.877, 128.344 231.956, 131.005 234.505 C 133.458 236.855, 134.344 237.118, 137.837 236.528 C 142.158 235.797, 144.527 236.655, 149.408 240.717 C 151.433 242.402, 153.033 242.958, 154.672 242.546 C 156.153 242.175, 159.010 242.893, 162.361 244.477 C 165.293 245.865, 168.437 247, 169.346 247 C 170.256 247, 171.908 247.908, 173.017 249.017 C 174.902 250.902, 174.932 251.230, 173.487 254.026 C 172.289 256.341, 172.192 257.490, 173.055 259.102 C 173.668 260.248, 173.897 262.273, 173.564 263.602 C 173.220 264.972, 173.616 267.290, 174.479 268.959 C 176.206 272.300, 176.495 277.576, 175 278.500 C 174.450 278.840, 174 280.801, 174 282.859 C 174 284.917, 173.483 287.117, 172.851 287.749 C 171.986 288.614, 172.457 289.756, 174.756 292.374 C 177.739 295.773, 178.242 297.174, 179.515 305.637 C 180.066 309.295, 179.776 310.186, 177.015 313.330 C 173.229 317.642, 172.378 322.145, 174.323 327.568 C 175.419 330.621, 175.509 332.118, 174.687 333.568 C 174.084 334.631, 173.711 338.281, 173.857 341.680 C 174.038 345.866, 173.601 348.871, 172.505 350.990 C 170.899 354.097, 170.880 362.766, 172.467 369.035 C 172.961 370.986, 172.178 372.941, 169.064 377.529 C 166.547 381.237, 165.232 384.157, 165.582 385.259 C 165.891 386.233, 165.212 388.539, 164.072 390.383 C 162.932 392.227, 162 395.085, 162 396.733 C 162 398.382, 161.198 400.803, 160.218 402.115 C 159.237 403.427, 157.466 406.750, 156.281 409.500 C 155.096 412.250, 152.410 418.325, 150.313 423 C 146.748 430.947, 146.506 432.097, 146.593 440.687 C 146.713 452.457, 148.094 455, 154.364 455 C 161.644 455, 167.484 452.623, 173.128 447.361 C 182.502 438.621, 187.064 433.554, 188.459 430.330 C 189.213 428.587, 190.769 426.659, 191.915 426.045 C 194.107 424.873, 199.975 415.482, 199.991 413.122 C 199.996 412.365, 202.209 408.765, 204.908 405.122 C 210.570 397.484, 217 385.604, 217 382.783 C 217 381.720, 218.800 377.820, 221 374.117 C 223.655 369.648, 225 366.188, 225 363.827 C 225 361.784, 225.851 359.187, 227 357.727 C 228.100 356.329, 229 354, 229 352.552 C 229 347.903, 239.559 330.633, 246.445 324.021 C 249.590 321.001, 250.040 319.992, 249.853 316.380 C 249.685 313.131, 250.225 311.521, 252.319 309.033 C 253.793 307.280, 255 305.437, 255 304.936 C 255 304.435, 256.723 302.937, 258.829 301.608 C 260.935 300.279, 264.787 297.348, 267.390 295.096 C 269.992 292.843, 273.107 291.008, 274.311 291.018 C 275.515 291.028, 278.480 292.378, 280.900 294.018 C 283.321 295.658, 285.915 297, 286.666 297 C 289.317 297, 299.190 303.322, 300.282 305.720 C 301.223 307.784, 301.872 308.059, 304.602 307.547 C 307.349 307.032, 308.488 307.528, 312.468 310.972 C 315.027 313.187, 317.502 315, 317.966 315 C 318.431 315, 320.696 316.575, 323 318.500 C 325.304 320.425, 327.947 322, 328.872 322 C 329.798 322, 331.549 322.696, 332.765 323.548 C 334.263 324.597, 336.058 324.892, 338.339 324.464 C 341.362 323.897, 341.920 324.172, 343.829 327.166 C 350.686 337.923, 353.809 341, 357.872 341 C 360.436 341, 370.460 345.757, 381 351.975 C 388.031 356.123, 390.334 356.991, 394.328 356.995 C 397.786 356.999, 401.222 357.993, 406.433 360.500 C 411.883 363.121, 415.018 364, 418.921 364 C 421.787 364, 425.055 364.494, 426.184 365.099 C 431.155 367.759, 449.851 367.645, 457.701 364.907 C 460.890 363.795, 464.995 362.500, 466.823 362.031 C 470.654 361.047, 473.525 358.735, 476.094 354.567 L 477.901 351.633 474.701 347.914 C 472.940 345.868, 470.600 342.706, 469.500 340.887 C 468.400 339.067, 465.298 336.219, 462.608 334.557 C 458.341 331.922, 456.486 331.461, 448.108 330.952 C 434.709 330.137, 433.583 329.558, 416.500 314.682 C 401.115 301.284, 387.271 287.222, 378.500 276.081 C 376.300 273.287, 373.887 270.438, 373.139 269.750 C 366.557 263.707, 361.045 256.816, 358.824 251.855 C 357.874 249.735, 356.433 248, 355.620 248 C 353.243 248, 351 245.086, 351 241.997 C 351 239.960, 350.136 238.521, 348 237 C 345.862 235.478, 345 234.041, 345 231.999 C 345 229.971, 344.389 228.941, 342.909 228.471 C 341.759 228.106, 340.181 226.284, 339.403 224.423 C 338.626 222.562, 336.849 220.292, 335.454 219.378 C 334.060 218.464, 332.487 216.910, 331.959 215.924 C 330.541 213.274, 332.488 209.121, 335.813 207.705 C 338.686 206.481, 345 200.014, 345 198.295 C 345 197.777, 347.037 194.170, 349.527 190.278 C 352.504 185.626, 355.183 182.667, 357.350 181.638 C 360.397 180.192, 362.979 176.576, 363.015 173.703 C 363.024 173.041, 364.936 170.633, 367.265 168.352 C 386.193 149.811, 394.481 141.062, 395.566 138.480 C 396.264 136.819, 397.763 134.619, 398.898 133.592 C 400.033 132.566, 401.230 130.100, 401.558 128.113 C 401.886 126.126, 402.856 122.925, 403.713 121 C 404.570 119.075, 406.165 115.475, 407.259 113 C 411.508 103.380, 417.632 91.990, 422.808 84.078 C 424.814 81.010, 427.017 77.375, 427.703 76 C 428.389 74.625, 431.225 70.350, 434.005 66.500 C 436.786 62.650, 440.387 56.945, 442.008 53.823 C 443.629 50.700, 445.389 47.877, 445.920 47.550 C 447.209 46.753, 448.363 38.718, 447.554 36.171 C 447.201 35.057, 445.437 33.276, 443.636 32.213 C 438.171 28.988, 434.247 28.877, 426.500 31.728 C 419.852 34.174, 417.329 35.601, 401.995 45.590 C 396.357 49.263, 381.259 64.149, 375.089 72.119 C 373.974 73.559, 371.722 75.006, 370.085 75.333 C 366.949 75.960, 365.064 78.504, 364.037 83.490 C 363.698 85.141, 362.441 86.969, 361.231 87.572 C 360.026 88.173, 357.917 89.876, 356.545 91.357 C 354.623 93.430, 353.468 93.905, 351.526 93.417 C 349.525 92.915, 348.384 93.448, 346.002 95.998 C 344.351 97.765, 343 99.985, 343 100.931 C 343 103.297, 339.120 106.653, 335.500 107.418 C 333.731 107.792, 329.733 110.700, 325.758 114.504 C 319.616 120.383, 318.786 120.869, 316.424 119.971 C 314.439 119.216, 313.150 119.389, 310.913 120.711 C 308.469 122.154, 307.482 122.243, 304.859 121.253 C 302.152 120.231, 301.386 120.337, 299.228 122.035 C 297.854 123.116, 295.873 124, 294.825 124 C 293.778 124, 291.137 124.910, 288.957 126.022 C 284.175 128.462, 277.587 128.900, 273.173 127.072 C 270.264 125.867, 266.491 121.113, 262.402 113.500 C 261.811 112.400, 259.829 110.600, 257.997 109.500 C 254.530 107.418, 249.197 102.294, 244.336 96.374 C 242.776 94.475, 238.509 89.855, 234.852 86.108 C 231.196 82.362, 227.488 77.912, 226.613 76.219 C 225.738 74.527, 224.129 72.858, 223.037 72.512 C 221.945 72.165, 220.050 70.446, 218.825 68.691 C 213.981 61.749, 204.335 51.701, 200.767 49.881 C 198.695 48.824, 197 47.555, 197 47.061 C 197 46.567, 193.552 43.388, 189.337 39.998 C 182.734 34.686, 177.908 31.471, 168.943 26.411 C 167.882 25.812, 166.223 24.639, 165.257 23.804 C 164.291 22.969, 161.025 21.070, 158 19.584 C 154.975 18.098, 150.722 15.813, 148.549 14.506 C 146.375 13.200, 144.232 12.357, 143.785 12.633 C 143.339 12.909, 140.487 11.996, 137.448 10.605 C 131.090 7.694, 122.154 7.299, 115.500 9.635" fill="none" stroke="#000" stroke-width="2px" fill-rule="evenodd"/>
</svg>
