<?xml version="1.0" encoding="utf-8"?>
<!-- Generator: Adobe Illustrator 17.0.0, SVG Export Plug-In . SVG Version: 6.00 Build 0)  -->
<!DOCTYPE svg PUBLIC "-//W3C//DTD SVG 1.1//EN" "http://www.w3.org/Graphics/SVG/1.1/DTD/svg11.dtd">
<svg version="1.1" id="Слой_1" xmlns="http://www.w3.org/2000/svg" xmlns:xlink="http://www.w3.org/1999/xlink" x="0px" y="0px"
	 width="150px" height="150px" viewBox="0 0 150 150" enable-background="new 0 0 150 150" xml:space="preserve">
<g>
	<linearGradient id="SVGID_1_" gradientUnits="userSpaceOnUse" x1="75.4424" y1="65.1167" x2="75.4424" y2="127.8951">
		<stop  offset="0" style="stop-color:#6CA62E"/>
		<stop  offset="1" style="stop-color:#C2D106"/>
	</linearGradient>
	<path fill="url(#SVGID_1_)" d="M49.096,99.138c0,18.789,11.797,28.757,26.348,28.757c14.55,0,26.346-9.968,26.346-28.757
		S89.993,65.117,75.443,65.117C60.893,65.117,49.096,80.349,49.096,99.138z"/>
	
		<linearGradient id="SVGID_2_" gradientUnits="userSpaceOnUse" x1="2392.9146" y1="87.8551" x2="2392.9146" y2="21.7468" gradientTransform="matrix(-1 0 0 1 2467.7305 0)">
		<stop  offset="0" style="stop-color:#6CA62E"/>
		<stop  offset="1" style="stop-color:#C2D106"/>
	</linearGradient>
	<path fill="url(#SVGID_2_)" d="M17.115,60.874c0,14.902,25.833,26.981,57.701,26.981c31.867,0,57.701-12.079,57.701-26.981
		c0-14.903-25.834-39.127-57.701-39.127C42.948,21.747,17.115,45.971,17.115,60.874z"/>
	<linearGradient id="SVGID_3_" gradientUnits="userSpaceOnUse" x1="29.1209" y1="104.8035" x2="55.3396" y2="104.8035">
		<stop  offset="0" style="stop-color:#6CA62E"/>
		<stop  offset="1" style="stop-color:#C2D106"/>
	</linearGradient>
	<path fill="url(#SVGID_3_)" d="M49.096,99.138c0-1.46,0.079-2.896,0.217-4.308c-0.768-0.597-10.787-8.148-17.725-1.275
		c-7.219,7.151,1.619,25.166,23.749,25.368l0.003-0.012C51.448,114.141,49.096,107.52,49.096,99.138z"/>
	<linearGradient id="SVGID_4_" gradientUnits="userSpaceOnUse" x1="95.5454" y1="104.8035" x2="121.7637" y2="104.8035">
		<stop  offset="0" style="stop-color:#6CA62E"/>
		<stop  offset="1" style="stop-color:#C2D106"/>
	</linearGradient>
	<path fill="url(#SVGID_4_)" d="M101.789,99.138c0-1.46-0.079-2.896-0.217-4.308c0.768-0.597,10.786-8.148,17.725-1.275
		c7.22,7.151-1.619,25.166-23.749,25.368l-0.003-0.012C99.437,114.141,101.789,107.52,101.789,99.138z"/>
	<linearGradient id="SVGID_5_" gradientUnits="userSpaceOnUse" x1="62.5232" y1="42.5633" x2="62.5232" y2="2.6222">
		<stop  offset="0" style="stop-color:#6CA62E"/>
		<stop  offset="1" style="stop-color:#C2D106"/>
	</linearGradient>
	<ellipse fill="url(#SVGID_5_)" cx="62.523" cy="22.593" rx="19.792" ry="19.971"/>
	<ellipse fill="#42712D" cx="62.227" cy="24.728" rx="17.677" ry="17.835"/>
	<ellipse fill="#FFFFFF" cx="63.028" cy="25.973" rx="16.266" ry="16.412"/>
	<g>
		<g>
			<linearGradient id="SVGID_6_" gradientUnits="userSpaceOnUse" x1="53.3213" y1="26.5795" x2="75.2371" y2="26.5795">
				<stop  offset="0" style="stop-color:#6CA62E"/>
				<stop  offset="1" style="stop-color:#C2D106"/>
			</linearGradient>
			<path fill="url(#SVGID_6_)" d="M75.222,27.209c-0.317,5.556-5.472,9.779-11.519,9.435c-6.045-0.347-10.685-5.131-10.366-10.688
				c0.317-5.557,5.472-9.788,11.518-9.442C70.901,16.86,75.539,21.652,75.222,27.209z"/>
			<path fill="#4C7B3D" d="M64.392,38.202c-0.257,0-0.517-0.007-0.778-0.02l0,0c-6.577-0.373-11.815-5.45-11.833-11.686l0,0
				c0-0.206,0.006-0.417,0.018-0.627l0,0c0.376-6.255,5.899-10.923,12.364-10.913l0,0c0.257,0,0.516,0.007,0.777,0.023l0,0
				c6.583,0.371,11.817,5.457,11.833,11.693l0,0c0,0.208-0.006,0.415-0.017,0.621l0,0l-1.536-0.083l1.536,0.089
				c-0.375,6.25-5.89,10.905-12.346,10.905l0,0C64.406,38.202,64.398,38.202,64.392,38.202L64.392,38.202z M54.872,26.049
				c-0.009,0.147-0.013,0.295-0.013,0.446l0,0c-0.017,4.414,3.814,8.314,8.929,8.613l0,0c0.205,0.011,0.405,0.016,0.604,0.016l0,0
				c5.024-0.007,9.057-3.572,9.294-8.003l0,0l0,0c0.008-0.153,0.012-0.304,0.012-0.45l0,0c0.017-4.414-3.813-8.325-8.934-8.621l0,0
				c-0.2-0.013-0.4-0.017-0.6-0.017l0,0C59.145,18.041,55.108,21.612,54.872,26.049L54.872,26.049z"/>
		</g>
		
			<linearGradient id="SVGID_7_" gradientUnits="userSpaceOnUse" x1="1416.2136" y1="-1146.7183" x2="1415.0752" y2="-1152.4297" gradientTransform="matrix(2.0965 0.1199 -0.1199 2.0965 -3041.05 2269.9646)">
			<stop  offset="0" style="stop-color:#6CA62E"/>
			<stop  offset="1" style="stop-color:#C2D106"/>
		</linearGradient>
		<path fill="url(#SVGID_7_)" d="M56.687,24.683c0.096,0.036,0.188,0.078,0.28,0.144c1.297,0.853,1.113,2.926,1.67,4.205
			c0.716,1.654,2.499,2.857,4.217,3.245c3.778,0.853,7.82-1.955,7.681-6.043c-0.029-0.804-0.43-2.471,0.367-3.049
			c1.142-0.828,1.918,0.66,2.26,1.542c1.442,3.666-0.279,7.64-3.374,9.618c-4.181,2.668-12.1,1.263-14.01-3.648
			c-0.487-1.246-1.054-3.672-0.674-4.989C55.317,24.977,55.986,24.444,56.687,24.683z"/>
		<path fill="#080909" d="M70.161,26.303c-0.185,3.222-2.971,5.687-6.225,5.5c-3.253-0.186-5.739-2.952-5.556-6.174
			c0.186-3.231,2.973-5.695,6.224-5.508C67.856,20.307,70.346,23.072,70.161,26.303z"/>
		
			<radialGradient id="SVGID_8_" cx="1385.442" cy="-1126.6256" r="2.4793" gradientTransform="matrix(2.1435 0.1226 -0.1296 2.2644 -3051.1123 2410.354)" gradientUnits="userSpaceOnUse">
			<stop  offset="0" style="stop-color:#44564D"/>
			<stop  offset="1" style="stop-color:#080909"/>
		</radialGradient>
		<path fill="url(#SVGID_8_)" d="M62.3,27.764c1.384,0.763,2.98,0.148,3.921-1.092c0.756-0.998,2.769-2.681,3.352-0.508
			c0.714,2.709-2.615,5.032-4.787,5.295c-2.687,0.328-5.737-0.915-5.595-3.91c0.022-0.646,0.305-1.566,1.055-1.456
			c0.812,0.113,1.283,1.217,1.982,1.63C62.25,27.738,62.28,27.756,62.3,27.764z"/>
		<path fill="#FFFFFF" d="M61.143,30.067c-0.052,0.912-0.82,1.605-1.717,1.553c-0.889-0.051-1.572-0.826-1.521-1.737
			c0.053-0.905,0.82-1.597,1.708-1.545C60.51,28.389,61.196,29.164,61.143,30.067z"/>
		<path fill="#FFFFFF" d="M73.889,25.067c-0.04,0.696-0.628,1.228-1.311,1.189c-0.688-0.039-1.211-0.634-1.172-1.33
			c0.04-0.697,0.628-1.228,1.316-1.189C73.404,23.776,73.927,24.37,73.889,25.067z"/>
		<path fill="#FFFFFF" d="M70.799,23.293c-0.09,1.567-1.41,2.773-2.959,2.686c-1.548-0.089-2.733-1.44-2.643-3.008
			c0.09-1.566,1.421-2.762,2.968-2.674C69.716,20.386,70.888,21.725,70.799,23.293z"/>
	</g>
	
		<linearGradient id="SVGID_9_" gradientUnits="userSpaceOnUse" x1="2335.2454" y1="68.3972" x2="2450.4192" y2="68.3972" gradientTransform="matrix(-1 0 0 1 2467.7305 0)">
		<stop  offset="0" style="stop-color:#C4DB96"/>
		<stop  offset="1" style="stop-color:#D8DE64"/>
	</linearGradient>
	<path fill="url(#SVGID_9_)" d="M69.804,78.219c32.277,0,58.444-12.079,58.444-26.982c0-0.193-0.006-0.387-0.016-0.579
		c2.539,2.9,4.031,6.052,4.253,9.355c-0.983,14.504-26.757,26.124-58.41,26.124c-24.15,0-44.874-6.765-53.78-16.411
		c-1.561-2.104-2.581-4.324-2.983-6.628C26.821,72.053,46.75,78.219,69.804,78.219z"/>
	<linearGradient id="SVGID_10_" gradientUnits="userSpaceOnUse" x1="93.0803" y1="46.417" x2="93.0803" y2="15.6551">
		<stop  offset="0" style="stop-color:#6CA62E"/>
		<stop  offset="1" style="stop-color:#C2D106"/>
	</linearGradient>
	<ellipse fill="url(#SVGID_10_)" cx="93.08" cy="31.035" rx="15.245" ry="15.382"/>
	<ellipse fill="#42712D" cx="92.851" cy="32.681" rx="13.615" ry="13.736"/>
	<ellipse fill="#FFFFFF" cx="93.468" cy="33.639" rx="12.528" ry="12.642"/>
	<g>
		<g>
			<linearGradient id="SVGID_11_" gradientUnits="userSpaceOnUse" x1="85.9916" y1="34.1067" x2="102.8715" y2="34.1067">
				<stop  offset="0" style="stop-color:#6CA62E"/>
				<stop  offset="1" style="stop-color:#C2D106"/>
			</linearGradient>
			<path fill="url(#SVGID_11_)" d="M102.86,34.593c-0.245,4.278-4.213,7.531-8.871,7.266c-4.657-0.267-8.23-3.951-7.986-8.232
				c0.245-4.279,4.216-7.54,8.87-7.272C99.532,26.621,103.104,30.312,102.86,34.593z"/>
			<path fill="#4C7B3D" d="M94.521,43.412c-0.206,0-0.413-0.006-0.62-0.019l0,0c-5.236-0.294-9.43-4.339-9.447-9.35l0,0
				c0-0.166,0.005-0.336,0.014-0.503l0,0c0.304-5.027,4.729-8.748,9.874-8.739l0,0c0.204,0,0.411,0.005,0.62,0.018l0,0
				c5.237,0.293,9.43,4.346,9.447,9.359l0,0c0,0.166-0.003,0.333-0.013,0.5l0,0l-1.536-0.085l1.536,0.086
				c-0.305,5.022-4.72,8.732-9.855,8.732l0,0C94.533,43.412,94.527,43.412,94.521,43.412L94.521,43.412z M87.539,33.722
				c-0.006,0.103-0.009,0.211-0.009,0.322l0,0c-0.019,3.188,2.77,6.059,6.542,6.279l0,0c0.152,0.008,0.301,0.013,0.448,0.013l0,0
				c3.703-0.008,6.637-2.627,6.804-5.83l0,0l0,0c0.006-0.111,0.009-0.219,0.009-0.326l0,0c0.017-3.191-2.772-6.068-6.553-6.288l0,0
				c-0.145-0.009-0.291-0.013-0.439-0.013l0,0C90.642,27.884,87.707,30.512,87.539,33.722L87.539,33.722z"/>
		</g>
		
			<linearGradient id="SVGID_12_" gradientUnits="userSpaceOnUse" x1="1430.5602" y1="-1144.9449" x2="1429.6833" y2="-1149.3439" gradientTransform="matrix(2.0965 0.1199 -0.1199 2.0965 -3041.05 2269.9646)">
			<stop  offset="0" style="stop-color:#6CA62E"/>
			<stop  offset="1" style="stop-color:#C2D106"/>
		</linearGradient>
		<path fill="url(#SVGID_12_)" d="M88.585,32.648c0.072,0.027,0.145,0.061,0.215,0.11c1,0.659,0.857,2.253,1.287,3.238
			c0.55,1.274,1.924,2.201,3.247,2.501c2.91,0.657,6.023-1.506,5.917-4.656c-0.022-0.62-0.331-1.901,0.282-2.349
			c0.879-0.636,1.477,0.509,1.741,1.189c1.111,2.823-0.215,5.884-2.598,7.408c-3.221,2.056-9.319,0.973-10.791-2.809
			c-0.374-0.961-0.812-2.83-0.519-3.844C87.53,32.873,88.046,32.462,88.585,32.648z"/>
		<path fill="#080909" d="M98.962,33.894c-0.142,2.482-2.29,4.38-4.795,4.237c-2.505-0.143-4.422-2.274-4.28-4.756
			c0.144-2.489,2.291-4.385,4.795-4.242C97.188,29.276,99.104,31.404,98.962,33.894z"/>
		
			<radialGradient id="SVGID_13_" cx="1399.6145" cy="-1124.322" r="1.9095" gradientTransform="matrix(2.1435 0.1226 -0.1296 2.2644 -3051.1123 2410.354)" gradientUnits="userSpaceOnUse">
			<stop  offset="0" style="stop-color:#44564D"/>
			<stop  offset="1" style="stop-color:#080909"/>
		</radialGradient>
		<path fill="url(#SVGID_13_)" d="M92.909,35.018c1.066,0.588,2.295,0.114,3.018-0.841c0.583-0.768,2.134-2.064,2.582-0.391
			c0.55,2.088-2.014,3.876-3.686,4.078c-2.069,0.254-4.419-0.707-4.309-3.012c0.017-0.497,0.235-1.206,0.814-1.121
			c0.624,0.086,0.987,0.936,1.526,1.255C92.869,35,92.892,35.012,92.909,35.018z"/>
		<path fill="#FFFFFF" d="M92.018,36.794c-0.041,0.702-0.632,1.234-1.325,1.196c-0.683-0.039-1.211-0.635-1.17-1.338
			c0.041-0.697,0.632-1.229,1.315-1.19C91.53,35.501,92.057,36.098,92.018,36.794z"/>
		
			<ellipse transform="matrix(0.9984 0.057 -0.057 0.9984 2.0392 -5.6982)" fill="#FFFFFF" cx="100.876" cy="32.887" rx="0.957" ry="0.972"/>
		<path fill="#FFFFFF" d="M99.453,31.576c-0.069,1.206-1.085,2.136-2.278,2.068c-1.192-0.067-2.104-1.107-2.036-2.314
			c0.07-1.207,1.095-2.129,2.287-2.061C98.619,29.336,99.521,30.367,99.453,31.576z"/>
	</g>
	<linearGradient id="SVGID_14_" gradientUnits="userSpaceOnUse" x1="44.799" y1="105.6449" x2="54.6091" y2="105.6449">
		<stop  offset="0" style="stop-color:#C4DB96"/>
		<stop  offset="1" style="stop-color:#D8DE64"/>
	</linearGradient>
	<path fill="url(#SVGID_14_)" d="M49.096,99.138c0-1.46,0.079-2.896,0.217-4.308c-0.225-0.177-1.256-0.954-2.769-1.788
		c-0.016,0.058-0.033,0.114-0.044,0.176c0,0-7.22,10.795,8.095,25.031l0.014-0.283C51.156,113.282,49.096,106.981,49.096,99.138z"/>
	
		<linearGradient id="SVGID_15_" gradientUnits="userSpaceOnUse" x1="-22.9436" y1="56.1914" x2="-14.6387" y2="56.1914" gradientTransform="matrix(1 0 0 1 101.2227 0)">
		<stop  offset="0" style="stop-color:#6CA62E"/>
		<stop  offset="1" style="stop-color:#C2D106"/>
	</linearGradient>
	<ellipse fill="url(#SVGID_15_)" cx="82.432" cy="56.191" rx="4.152" ry="4.629"/>
	<ellipse fill="#42712D" cx="81.887" cy="56.553" rx="2.461" ry="2.745"/>
	
		<linearGradient id="SVGID_16_" gradientUnits="userSpaceOnUse" x1="-21.7963" y1="57.779" x2="-16.875" y2="57.779" gradientTransform="matrix(1 0 0 1 101.2227 0)">
		<stop  offset="0" style="stop-color:#C4DB96"/>
		<stop  offset="1" style="stop-color:#D8DE64"/>
	</linearGradient>
	<path fill="url(#SVGID_16_)" d="M81.887,58.708c-1.27,0-2.314-1.071-2.446-2.448c-0.01,0.097-0.014,0.195-0.014,0.294
		c0,1.516,1.102,2.745,2.461,2.745c1.359,0,2.461-1.228,2.461-2.745c0-0.099-0.004-0.197-0.014-0.294
		C84.202,57.636,83.157,58.708,81.887,58.708z"/>
	
		<linearGradient id="SVGID_17_" gradientUnits="userSpaceOnUse" x1="73.3591" y1="56.1914" x2="81.6642" y2="56.1914" gradientTransform="matrix(-1 0 0 1 148.7969 0)">
		<stop  offset="0" style="stop-color:#6CA62E"/>
		<stop  offset="1" style="stop-color:#C2D106"/>
	</linearGradient>
	<ellipse fill="url(#SVGID_17_)" cx="71.285" cy="56.191" rx="4.153" ry="4.629"/>
	<ellipse fill="#42712D" cx="71.83" cy="56.553" rx="2.461" ry="2.745"/>
	
		<linearGradient id="SVGID_18_" gradientUnits="userSpaceOnUse" x1="74.5066" y1="57.779" x2="79.4277" y2="57.779" gradientTransform="matrix(-1 0 0 1 148.7969 0)">
		<stop  offset="0" style="stop-color:#C4DB96"/>
		<stop  offset="1" style="stop-color:#D8DE64"/>
	</linearGradient>
	<path fill="url(#SVGID_18_)" d="M71.83,58.708c1.27,0,2.314-1.071,2.446-2.448c0.01,0.097,0.014,0.195,0.014,0.294
		c0,1.516-1.101,2.745-2.46,2.745c-1.359,0-2.461-1.228-2.461-2.745c0-0.099,0.004-0.197,0.014-0.294
		C69.515,57.636,70.559,58.708,71.83,58.708z"/>
	<linearGradient id="SVGID_19_" gradientUnits="userSpaceOnUse" x1="33.0721" y1="129.4819" x2="57.0242" y2="129.4819">
		<stop  offset="0" style="stop-color:#6CA62E"/>
		<stop  offset="1" style="stop-color:#C2D106"/>
	</linearGradient>
	<path fill="url(#SVGID_19_)" d="M33.072,124.927c0,0,6.342,5.939,6.544,14.371c0,0,9.446-1.956,17.408,1.417l-2.429-22.467
		L33.072,124.927z"/>
	<linearGradient id="SVGID_20_" gradientUnits="userSpaceOnUse" x1="41.7451" y1="146.7195" x2="41.7451" y2="118.1605">
		<stop  offset="0" style="stop-color:#6CA62E"/>
		<stop  offset="1" style="stop-color:#C2D106"/>
	</linearGradient>
	<path fill="url(#SVGID_20_)" d="M55.336,118.923c-2.595-0.022-5.005-0.295-7.23-0.762l-22.389,9.129l25.099-6.275l-14.574,23.075
		l18.082-23.547c0,0,1.215,21.726,3.171,26.177C57.496,146.719,58.913,133.024,55.336,118.923z"/>
	<linearGradient id="SVGID_21_" gradientUnits="userSpaceOnUse" x1="93.862" y1="129.4819" x2="117.8141" y2="129.4819">
		<stop  offset="0" style="stop-color:#6CA62E"/>
		<stop  offset="1" style="stop-color:#C2D106"/>
	</linearGradient>
	<path fill="url(#SVGID_21_)" d="M117.814,124.927c0,0-6.343,5.939-6.546,14.371c0,0-9.445-1.956-17.406,1.417l2.429-22.467
		L117.814,124.927z"/>
	<linearGradient id="SVGID_22_" gradientUnits="userSpaceOnUse" x1="96.2764" y1="105.6449" x2="106.0864" y2="105.6449">
		<stop  offset="0" style="stop-color:#C4DB96"/>
		<stop  offset="1" style="stop-color:#D8DE64"/>
	</linearGradient>
	<path fill="url(#SVGID_22_)" d="M101.789,99.138c0-1.46-0.079-2.896-0.217-4.308c0.225-0.177,1.256-0.954,2.769-1.788
		c0.015,0.058,0.032,0.114,0.046,0.176c0,0,7.219,10.795-8.096,25.031l-0.014-0.283C99.729,113.282,101.789,106.981,101.789,99.138z
		"/>
	<linearGradient id="SVGID_23_" gradientUnits="userSpaceOnUse" x1="109.1397" y1="146.7195" x2="109.1397" y2="118.1605">
		<stop  offset="0" style="stop-color:#6CA62E"/>
		<stop  offset="1" style="stop-color:#C2D106"/>
	</linearGradient>
	<path fill="url(#SVGID_23_)" d="M93.389,146.719c1.957-4.452,3.172-26.177,3.172-26.177l18.081,23.547l-14.574-23.075l25.099,6.275
		l-22.389-9.129c-2.225,0.467-4.634,0.74-7.23,0.762C91.973,133.024,93.389,146.719,93.389,146.719z"/>
	<g>
		<path fill="#D8DE64" d="M71.398,82.308c-1.483,0-3.017-0.24-4.532-0.748l0,0c-5.283-1.77-8.841-6.241-8.858-10.974l0,0
			c0-0.958,0.15-1.924,0.465-2.865l0,0c0.176-0.529,0.75-0.816,1.281-0.638l0,0c0.53,0.176,0.815,0.75,0.639,1.28l0,0
			c-0.244,0.731-0.36,1.475-0.36,2.223l0,0c-0.018,3.669,2.888,7.526,7.475,9.056l0,0c1.31,0.436,2.626,0.642,3.891,0.642l0,0
			c4.066-0.008,7.491-2.105,8.576-5.377l0,0c0.177-0.529,0.75-0.815,1.28-0.638l0,0c0.53,0.177,0.817,0.751,0.638,1.28l0,0
			c-1.436,4.267-5.75,6.758-10.474,6.758l0,0C71.412,82.308,71.405,82.308,71.398,82.308L71.398,82.308z"/>
	</g>
	<radialGradient id="SVGID_24_" cx="74.9705" cy="110.421" r="15.1514" gradientUnits="userSpaceOnUse">
		<stop  offset="0" style="stop-color:#C4DB96"/>
		<stop  offset="1" style="stop-color:#D8DE64"/>
	</radialGradient>
	<ellipse fill="url(#SVGID_24_)" cx="74.971" cy="110.422" rx="16.193" ry="14.032"/>
	<g>
		<path fill="#42712D" d="M72.304,80.691c-1.483,0-3.016-0.242-4.531-0.749l0,0c-5.285-1.772-8.841-6.24-8.859-10.975l0,0
			c0-0.959,0.149-1.923,0.465-2.864l0,0c0.177-0.53,0.75-0.816,1.28-0.64l0,0c0.53,0.177,0.816,0.751,0.64,1.28l0,0
			c-0.244,0.732-0.36,1.476-0.36,2.223l0,0c-0.017,3.669,2.889,7.529,7.474,9.056l0,0c1.311,0.437,2.627,0.643,3.891,0.643l0,0
			c4.067-0.007,7.491-2.105,8.576-5.375l0,0c0.177-0.53,0.75-0.816,1.281-0.64l0,0c0.53,0.177,0.815,0.75,0.639,1.281l0,0
			c-1.437,4.267-5.752,6.759-10.476,6.759l0,0C72.318,80.691,72.311,80.691,72.304,80.691L72.304,80.691z"/>
	</g>
</g>
</svg>
