<?xml version="1.0" encoding="utf-8"?>
<!DOCTYPE svg PUBLIC "-//W3C//DTD SVG 1.1//EN" "http://www.w3.org/Graphics/SVG/1.1/DTD/svg11.dtd">
<svg version="1.1" id="Слой_1" xmlns="http://www.w3.org/2000/svg" xmlns:xlink="http://www.w3.org/1999/xlink" x="0px" y="0px"
	 width="150px" height="150px" viewBox="0 0 150 150" enable-background="new 0 0 150 150" xml:space="preserve">
<g>
	
		<linearGradient id="SVGID_1_" gradientUnits="userSpaceOnUse" x1="694.4936" y1="72.5683" x2="708.0817" y2="72.5683" gradientTransform="matrix(-1 0 0 1 710.6621 0)">
		<stop  offset="0" style="stop-color:#913F55"/>
		<stop  offset="1" style="stop-color:#F07F23"/>
	</linearGradient>
	<path fill="url(#SVGID_1_)" d="M16.168,69.936l-1.086-3.723c0,0-2.013-3.339-5.004-5.969c-2.993-2.632-5.778-4.108-5.778-4.108
		s-2.019,5.97-1.682,15.469C2.987,81.94,5.875,89,5.875,89s1.891-4.107,4.778-7.637c2.889-3.53,4.832-4.493,4.832-4.493
		L16.168,69.936z"/>
	
		<linearGradient id="SVGID_2_" gradientUnits="userSpaceOnUse" x1="620.8905" y1="32.1504" x2="620.8905" y2="4.1699" gradientTransform="matrix(-1 0 0 1 710.6621 0)">
		<stop  offset="0" style="stop-color:#913F55"/>
		<stop  offset="1" style="stop-color:#F07F23"/>
	</linearGradient>
	<path fill="url(#SVGID_2_)" d="M107.786,32.15c0,0,7.141-7.189,7.28-9.928c0.141-2.74-11.06-16.946-27.586-17.972
		c-16.524-1.028-22.405,8.047-22.966,10.954c-0.559,2.91,5.183,13.008,5.183,13.008L107.786,32.15z"/>
	<path fill="#FBBC1C" d="M106.068,28.599c0,0,1.734-2.953,2.785-6.29c1.05-3.338,1.309-7.313,1.309-7.313s-0.999,3.532-2.046,6.802
		c-1.048,3.27-2.678,6.351-2.678,6.351L106.068,28.599z"/>
	<path fill="#FBBC1C" d="M100.135,24.363c0,0,0.84-3.66,0.945-7.704c0.107-4.043-1.748-9.297-1.748-9.297s1.002,5.768,0.877,8.784
		c-0.127,3.017-0.877,7.768-0.877,7.768L100.135,24.363z"/>
	<path fill="#FBBC1C" d="M91.471,21.798c0,0,1.209-3.662,0-9.31c-1.207-5.65-4.824-8.282-4.824-8.282s2.938,3.464,3.985,8.797
		c0.793,4.053-0.158,8.235-0.158,8.235L91.471,21.798z"/>
	<path fill="#FBBC1C" d="M82.807,21.798c0,0-0.495-4.61-2.152-7.963c-2.888-5.841-6.341-7.849-6.341-7.849s3.452,3.164,5.446,8.363
		c1.686,4.393,1.838,7.449,1.838,7.449H82.807z"/>
	<path fill="#FBBC1C" d="M76.767,23.658c0,0-0.473-3.275-3.255-7.512c-2.563-3.902-6.722-5.009-6.722-5.009s2.832,0.848,5.615,4.955
		c2.217,3.273,3.575,8.272,3.575,8.272L76.767,23.658z"/>
	
		<linearGradient id="SVGID_3_" gradientUnits="userSpaceOnUse" x1="668.9836" y1="129.1933" x2="649.0427" y2="107.824" gradientTransform="matrix(-1 0 0 1 710.6621 0)">
		<stop  offset="0" style="stop-color:#F07F23"/>
		<stop  offset="1" style="stop-color:#913F55"/>
	</linearGradient>
	<path fill="url(#SVGID_3_)" d="M75.858,126.807c0,0-5.463,17.004-6.862,17.405c-1.4,0.397-17.505-2.342-29.686-17.405
		c-12.184-15.062-11.484-22.764-10.922-24.988c0.558-2.226,9.1-12.503,9.1-12.503L75.858,126.807z"/>
	
		<linearGradient id="SVGID_4_" gradientUnits="userSpaceOnUse" x1="607.3478" y1="144.8764" x2="616.5013" y2="119.7198" gradientTransform="matrix(-1 0 0 1 710.6621 0)">
		<stop  offset="0" style="stop-color:#F07F23"/>
		<stop  offset="1" style="stop-color:#913F55"/>
	</linearGradient>
	<path fill="url(#SVGID_4_)" d="M107.925,120.133c0,0,6.581,9.756,4.901,12.837c-1.68,3.082-21.284,14.549-24.085,12.153
		c-2.801-2.396-1.4-15.749-1.4-15.749L107.925,120.133z"/>
	<polygon fill="#FBBC1C" points="69.452,120.549 57.841,141.151 68.691,119.806 	"/>
	<polygon fill="#FBBC1C" points="61.473,112.755 45.876,133.557 60.526,111.827 	"/>
	<polygon fill="#FBBC1C" points="53.369,104.834 36.959,123.785 52.352,103.839 	"/>
	<polygon fill="#FBBC1C" points="44.759,96.42 30.185,112.488 43.699,95.386 	"/>
	<path fill="#FBBC1C" d="M16.168,69.208c0,0-1.764-3.212-6.034-6.364c-4.272-3.153-6.699-3.103-6.699-3.103s3.305,1.497,6.112,3.681
		c2.195,1.706,6.621,6.514,6.621,6.514V69.208z"/>
	<path fill="#FBBC1C" d="M16.063,71.007c0,0-3.31-2.707-7.063-3.308c-4.069-0.65-6.415,1.425-6.415,1.425S5.604,68.277,9,68.622
		c3.395,0.343,7.169,3.156,7.169,3.156L16.063,71.007z"/>
	<path fill="#FBBC1C" d="M15.908,72.568c0,0-2.954-1.34-7.116,0c-4.388,1.411-5.604,5.455-5.604,5.455S5.836,74.563,9,73.402
		c3.501-1.283,6.908-0.086,6.908-0.086V72.568z"/>
	<path fill="#FBBC1C" d="M15.714,74.537c0,0-3.488-0.215-6.609,2.525c-3.122,2.739-4.551,7.763-4.551,7.763s2.172-4.663,5.58-7.315
		c3.408-2.652,5.58-2.363,5.58-2.363V74.537z"/>
	<path fill="#99BD1F" d="M139.258,79.78c0,0-12.149-5.35-18.03-19.215c-5.881-13.864-7.981-41.936-34.868-40.226
		C59.473,22.051,34.944,67.322,25.725,68.61c-7.351,1.026-10.642-2.397-10.642-2.397s-0.333,2.182-0.386,4.686
		c-0.052,2.502,0.789,5.97,0.789,5.97s3.676-3.402,9.715,2.054c6.038,5.456,34.028,52.763,55.874,53.147
		c21.844,0.385,30.982-14.507,30.982-14.507s12.603-0.085,22.265-10.869c10.146-11.324,13.759-22.467,13.444-25.59
		c-0.356-3.52-4.376-5.305-5.952-5.179C140.238,76.057,139.258,79.78,139.258,79.78z"/>
	<ellipse fill="#CBCD9C" cx="124.869" cy="63.818" rx="5.68" ry="6.941"/>
	<ellipse fill="#010202" cx="128.72" cy="64.503" rx="1.12" ry="1.369"/>
	<path fill="#FFFFFF" d="M127.533,63.134c0,0.399,0.266,0.722,0.592,0.722c0.327,0,0.592-0.323,0.592-0.722
		c0-0.402-0.265-0.724-0.592-0.724C127.799,62.41,127.533,62.733,127.533,63.134z"/>
	<g>
		<ellipse fill="#99BD1F" cx="82.702" cy="63.715" rx="34.79" ry="37.552"/>
		<ellipse fill="#99BD1F" cx="82.702" cy="63.715" rx="34.407" ry="37.139"/>
		<ellipse fill="#9ABD20" cx="82.702" cy="63.715" rx="34.024" ry="36.725"/>
		<ellipse fill="#9ABD20" cx="82.702" cy="63.715" rx="33.641" ry="36.312"/>
		<ellipse fill="#9BBE21" cx="82.702" cy="63.715" rx="33.258" ry="35.899"/>
		<ellipse fill="#9BBE21" cx="82.702" cy="63.715" rx="32.875" ry="35.485"/>
		<ellipse fill="#9CBE22" cx="82.702" cy="63.715" rx="32.492" ry="35.072"/>
		<ellipse fill="#9DBE22" cx="82.702" cy="63.715" rx="32.109" ry="34.658"/>
		<ellipse fill="#9DBE23" cx="82.702" cy="63.715" rx="31.727" ry="34.245"/>
		<ellipse fill="#9EBE23" cx="82.702" cy="63.715" rx="31.344" ry="33.832"/>
		<ellipse fill="#9EBF23" cx="82.702" cy="63.715" rx="30.961" ry="33.418"/>
		<ellipse fill="#9FBF24" cx="82.702" cy="63.715" rx="30.578" ry="33.005"/>
		<ellipse fill="#9FBF24" cx="82.702" cy="63.715" rx="30.195" ry="32.592"/>
		<ellipse fill="#A0BF25" cx="82.702" cy="63.715" rx="29.812" ry="32.178"/>
		<ellipse fill="#A1BF25" cx="82.702" cy="63.715" rx="29.429" ry="31.765"/>
		<ellipse fill="#A1C026" cx="82.702" cy="63.715" rx="29.046" ry="31.352"/>
		<ellipse fill="#A2C026" cx="82.702" cy="63.715" rx="28.663" ry="30.938"/>
		<ellipse fill="#A2C026" cx="82.702" cy="63.715" rx="28.28" ry="30.525"/>
		<ellipse fill="#A3C027" cx="82.702" cy="63.715" rx="27.897" ry="30.112"/>
		<ellipse fill="#A3C027" cx="82.702" cy="63.715" rx="27.514" ry="29.698"/>
		<ellipse fill="#A4C028" cx="82.702" cy="63.715" rx="27.131" ry="29.285"/>
		<ellipse fill="#A4C128" cx="82.702" cy="63.715" rx="26.748" ry="28.872"/>
		<ellipse fill="#A5C128" cx="82.702" cy="63.715" rx="26.365" ry="28.458"/>
		<ellipse fill="#A6C129" cx="82.702" cy="63.715" rx="25.983" ry="28.045"/>
		<ellipse fill="#A6C129" cx="82.702" cy="63.715" rx="25.6" ry="27.632"/>
		<ellipse fill="#A7C129" cx="82.702" cy="63.715" rx="25.217" ry="27.218"/>
		<ellipse fill="#A7C12A" cx="82.702" cy="63.715" rx="24.834" ry="26.805"/>
		<ellipse fill="#A8C22A" cx="82.702" cy="63.715" rx="24.451" ry="26.392"/>
		<ellipse fill="#A8C22B" cx="82.701" cy="63.715" rx="24.068" ry="25.978"/>
		<ellipse fill="#A9C22B" cx="82.701" cy="63.715" rx="23.685" ry="25.565"/>
		<ellipse fill="#A9C22B" cx="82.701" cy="63.715" rx="23.302" ry="25.152"/>
		<ellipse fill="#AAC22C" cx="82.701" cy="63.715" rx="22.919" ry="24.738"/>
		<ellipse fill="#ABC22C" cx="82.701" cy="63.715" rx="22.536" ry="24.325"/>
		<ellipse fill="#ABC32C" cx="82.701" cy="63.715" rx="22.153" ry="23.912"/>
		<ellipse fill="#ACC32D" cx="82.701" cy="63.715" rx="21.77" ry="23.498"/>
		<ellipse fill="#ACC32D" cx="82.701" cy="63.715" rx="21.387" ry="23.085"/>
		<ellipse fill="#ADC32E" cx="82.701" cy="63.715" rx="21.004" ry="22.672"/>
		<ellipse fill="#ADC32E" cx="82.701" cy="63.715" rx="20.622" ry="22.258"/>
		<ellipse fill="#AEC32E" cx="82.701" cy="63.715" rx="20.239" ry="21.845"/>
		<ellipse fill="#AEC42F" cx="82.701" cy="63.715" rx="19.856" ry="21.432"/>
		<ellipse fill="#AFC42F" cx="82.701" cy="63.715" rx="19.473" ry="21.018"/>
		<ellipse fill="#AFC430" cx="82.701" cy="63.715" rx="19.09" ry="20.605"/>
		<ellipse fill="#B0C430" cx="82.701" cy="63.715" rx="18.707" ry="20.192"/>
		<ellipse fill="#B0C430" cx="82.701" cy="63.715" rx="18.324" ry="19.778"/>
		<ellipse fill="#B1C431" cx="82.701" cy="63.715" rx="17.941" ry="19.365"/>
		<ellipse fill="#B1C531" cx="82.701" cy="63.715" rx="17.558" ry="18.952"/>
		<ellipse fill="#B2C531" cx="82.701" cy="63.715" rx="17.175" ry="18.538"/>
		<ellipse fill="#B2C532" cx="82.701" cy="63.715" rx="16.792" ry="18.125"/>
		<ellipse fill="#B3C532" cx="82.701" cy="63.715" rx="16.409" ry="17.712"/>
		<ellipse fill="#B3C533" cx="82.701" cy="63.715" rx="16.026" ry="17.298"/>
		<ellipse fill="#B4C533" cx="82.701" cy="63.715" rx="15.643" ry="16.885"/>
		<ellipse fill="#B5C633" cx="82.701" cy="63.715" rx="15.26" ry="16.472"/>
	</g>
	<path fill="#7C9C2F" d="M92.102,66.384c0,0-11.574-13.591-23.782-13.655c-9.557-0.051-18.883,15.126-25.309,17.743
		C34.386,73.983,14.696,70.9,14.696,70.9s19.916,5.711,29.461,1.732c8.804-3.67,16.42-16.591,23.946-16.881
		C76.4,55.43,90.561,69.723,90.561,69.723L92.102,66.384z"/>
	<path fill="#FBBC1C" d="M88.245,82.309c-1.669-34.423,28.871-33.981,28.877-33.981c1.426,4.504,2.65,8.807,4.105,12.237
		c5.881,13.865,18.03,19.215,18.03,19.215s0.98-3.723,2.555-3.853c1.577-0.126,5.597,1.659,5.952,5.179
		c0.315,3.123-3.298,14.266-13.444,25.59c-9.662,10.784-22.265,10.869-22.265,10.869S89.862,115.681,88.245,82.309z"/>
	<g>
		<path fill="#FBBC1C" d="M89.772,81.605c2.873,11.421,16.115,19.1,27.185,19.1s26.888-17.162,21.723-20.089
			c-8.296-4.702-18.641-17.481-20.849-30.026C117.249,47.294,84.33,59.967,89.772,81.605z"/>
		<path fill="#FBBB1C" d="M90.183,81.247c2.775,11.256,15.769,18.878,26.676,18.934c10.907,0.057,26.499-16.782,21.47-19.698
			c-8.081-4.687-18.184-17.302-20.464-29.647C117.256,47.546,84.888,59.974,90.183,81.247z"/>
		<path fill="#FBBA1C" d="M90.594,80.888c2.702,11.084,15.423,18.656,26.167,18.769c10.744,0.114,26.11-16.401,21.217-19.308
			c-7.866-4.672-17.731-17.122-20.079-29.268C117.262,47.797,85.494,59.97,90.594,80.888z"/>
		<path fill="#FBB91C" d="M91.004,80.53c2.617,10.916,15.076,18.433,25.657,18.604c10.581,0.171,25.722-16.02,20.964-18.917
			c-7.651-4.657-17.281-16.943-19.694-28.888C117.268,48.047,86.075,59.971,91.004,80.53z"/>
		<path fill="#FBB81D" d="M91.415,80.171c2.532,10.748,14.73,18.211,25.148,18.439c10.419,0.228,25.335-15.639,20.711-18.526
			c-7.435-4.642-16.834-16.765-19.309-28.509C117.274,48.298,86.657,59.973,91.415,80.171z"/>
		<path fill="#FAB71D" d="M91.826,79.813c2.447,10.581,14.383,17.989,24.639,18.274c10.256,0.285,24.947-15.258,20.458-18.135
			c-7.219-4.626-16.389-16.586-18.925-28.13C117.279,48.548,87.238,59.976,91.826,79.813z"/>
		<path fill="#FAB51D" d="M92.237,79.455c2.362,10.413,14.037,17.767,24.13,18.109c10.093,0.342,24.56-14.877,20.205-17.744
			c-7.002-4.61-15.947-16.407-18.54-27.75C117.284,48.798,87.819,59.978,92.237,79.455z"/>
		<path fill="#FAB41D" d="M92.647,79.096c2.276,10.245,13.69,17.545,23.621,17.944c9.931,0.399,24.173-14.495,19.952-17.353
			c-6.785-4.594-15.507-16.229-18.155-27.371C117.289,49.048,88.4,59.981,92.647,79.096z"/>
		<path fill="#FAB31E" d="M93.058,78.738c2.191,10.078,13.344,17.323,23.112,17.779c9.768,0.456,23.787-14.113,19.699-16.962
			c-6.568-4.577-15.07-16.05-17.77-26.992C117.293,49.297,88.981,59.984,93.058,78.738z"/>
		<path fill="#F9B21E" d="M93.469,78.38c2.106,9.911,12.997,17.101,22.603,17.614c9.605,0.513,23.401-13.731,19.446-16.572
			c-6.35-4.56-14.636-15.872-17.385-26.612C117.297,49.546,89.562,59.987,93.469,78.38z"/>
		<path fill="#F9B11E" d="M93.88,78.021c2.02,9.744,12.651,16.879,22.094,17.449c9.443,0.57,23.015-13.348,19.193-16.181
			c-6.131-4.543-14.204-15.693-17-26.233C117.301,49.795,90.142,59.991,93.88,78.021z"/>
		<path fill="#F9B01E" d="M94.29,77.663c1.935,9.577,12.304,16.657,21.584,17.284c9.28,0.627,22.63-12.965,18.94-15.79
			c-5.912-4.525-13.775-15.514-16.615-25.854C117.305,50.044,90.722,59.995,94.29,77.663z"/>
		<path fill="#F9AF1E" d="M94.701,77.304c1.849,9.41,11.958,16.435,21.075,17.119c9.117,0.684,22.246-12.582,18.687-15.399
			c-5.693-4.506-13.348-15.336-16.23-25.474C117.308,50.293,91.301,59.999,94.701,77.304z"/>
		<path fill="#F9AD1F" d="M95.112,76.946c1.763,9.244,11.612,16.213,20.566,16.954c8.954,0.741,21.861-12.198,18.434-15.008
			c-5.473-4.487-12.925-15.157-15.845-25.095C117.31,50.541,91.88,60.003,95.112,76.946z"/>
		<path fill="#F8AC1F" d="M95.523,76.588c1.677,9.078,11.265,15.991,20.057,16.788c8.792,0.798,21.478-11.814,18.181-14.617
			c-5.253-4.467-12.503-14.977-15.46-24.716C117.313,50.789,92.459,60.008,95.523,76.588z"/>
		<path fill="#F8AB1F" d="M95.934,76.229c1.591,8.912,10.919,15.769,19.548,16.623c8.629,0.855,21.094-11.429,17.928-14.226
			c-5.032-4.446-12.085-14.798-15.075-24.336C117.314,51.037,93.038,60.013,95.934,76.229z"/>
		<path fill="#F8AA1F" d="M96.344,75.871c1.505,8.746,10.572,15.547,19.039,16.458c8.466,0.912,20.711-11.043,17.675-13.836
			c-4.81-4.424-11.669-14.618-14.69-23.957C117.316,51.285,93.616,60.019,96.344,75.871z"/>
		<path fill="#F8A91F" d="M96.755,75.513c1.419,8.58,10.226,15.325,18.53,16.293c8.304,0.969,20.329-10.657,17.422-13.445
			c-4.588-4.401-11.256-14.438-14.306-23.578C117.317,51.533,94.193,60.024,96.755,75.513z"/>
		<path fill="#F7A820" d="M97.166,75.154c1.333,8.415,9.879,15.103,18.021,16.128c8.141,1.026,19.947-10.27,17.169-13.054
			c-4.366-4.376-10.845-14.258-13.921-23.198C117.317,51.781,94.77,60.031,97.166,75.154z"/>
		<path fill="#F7A620" d="M97.577,74.796c1.247,8.25,9.533,14.881,17.511,15.963c7.978,1.083,19.565-9.882,16.916-12.663
			c-4.144-4.35-10.437-14.077-13.536-22.819C117.317,52.028,95.347,60.038,97.577,74.796z"/>
		<path fill="#F7A520" d="M97.987,74.438c1.16,8.086,9.186,14.659,17.002,15.798c7.816,1.14,19.184-9.493,16.663-12.272
			c-3.921-4.323-10.031-13.896-13.151-22.44C117.316,52.276,95.923,60.045,97.987,74.438z"/>
		<path fill="#F7A420" d="M98.398,74.079c1.073,7.921,8.84,14.437,16.493,15.633c7.653,1.197,18.804-9.103,16.41-11.881
			c-3.699-4.294-9.628-13.714-12.766-22.06C117.315,52.524,96.498,60.052,98.398,74.079z"/>
		<path fill="#F6A320" d="M98.809,73.721c0.986,7.757,8.494,14.215,15.984,15.468c7.49,1.254,18.423-8.711,16.157-11.49
			c-3.476-4.263-9.227-13.532-12.381-21.681C117.313,52.771,97.072,60.061,98.809,73.721z"/>
		<path fill="#F6A220" d="M99.22,73.362c0.899,7.593,8.147,13.993,15.475,15.303c7.328,1.311,18.043-8.319,15.904-11.099
			c-3.253-4.23-8.829-13.349-11.996-21.302C117.311,53.019,97.646,60.069,99.22,73.362z"/>
		<path fill="#F6A020" d="M99.63,73.004c0.811,7.43,7.801,13.771,14.966,15.138c7.165,1.368,17.663-7.925,15.651-10.709
			c-3.031-4.195-8.434-13.166-11.611-20.922C117.308,53.267,98.219,60.078,99.63,73.004z"/>
		<path fill="#F69F21" d="M100.041,72.646c0.723,7.267,7.454,13.549,14.457,14.973c7.002,1.425,17.283-7.529,15.398-10.318
			c-2.81-4.158-8.04-12.982-11.226-20.543C117.304,53.515,98.791,60.088,100.041,72.646z"/>
		<path fill="#F59E21" d="M100.452,72.287c0.635,7.104,7.108,13.327,13.948,14.808c6.839,1.482,16.902-7.132,15.145-9.927
			c-2.589-4.118-7.649-12.797-10.841-20.164C117.299,53.763,99.362,60.099,100.452,72.287z"/>
		<path fill="#F59D21" d="M100.863,71.929c0.547,6.942,6.761,13.105,13.438,14.642c6.677,1.539,16.522-6.734,14.892-9.536
			c-2.37-4.076-7.261-12.611-10.456-19.784C117.294,54.011,99.932,60.11,100.863,71.929z"/>
		<path fill="#F59C21" d="M101.273,71.571c0.458,6.78,6.415,12.883,12.929,14.477c6.514,1.596,16.14-6.333,14.639-9.145
			c-2.152-4.031-6.875-12.425-10.071-19.405C117.288,54.259,100.501,60.121,101.273,71.571z"/>
		<path fill="#F59B21" d="M101.684,71.212c0.368,6.619,6.068,12.661,12.42,14.312c6.351,1.653,15.758-5.931,14.386-8.754
			c-1.936-3.983-6.491-12.238-9.687-19.026C117.281,54.508,101.068,60.133,101.684,71.212z"/>
		<path fill="#F59921" d="M102.095,70.854c0.278,6.458,5.722,12.439,11.911,14.147c6.189,1.71,15.375-5.527,14.133-8.363
			c-1.722-3.933-6.109-12.05-9.302-18.646C117.273,54.757,101.634,60.146,102.095,70.854z"/>
		<path fill="#F49821" d="M102.506,70.495c0.187,6.297,5.376,12.217,11.402,13.982c6.026,1.767,14.99-5.122,13.88-7.973
			c-1.511-3.88-5.729-11.861-8.917-18.267C117.264,55.007,102.199,60.16,102.506,70.495z"/>
		<path fill="#F49722" d="M102.917,70.137c0.096,6.137,5.029,11.995,10.893,13.817c5.863,1.824,14.604-4.715,13.627-7.582
			c-1.302-3.825-5.351-11.67-8.532-17.888C117.254,55.257,102.761,60.174,102.917,70.137z"/>
		<path fill="#F49622" d="M103.327,69.779c0.003,5.978,4.683,11.773,10.384,13.652c5.701,1.881,14.215-4.306,13.375-7.191
			c-1.098-3.768-4.976-11.479-8.147-17.508C117.243,55.508,103.322,60.189,103.327,69.779z"/>
		<path fill="#F49422" d="M103.738,69.42c-0.09,5.819,4.336,11.551,9.874,13.487c5.538,1.938,13.823-3.896,13.122-6.8
			c-0.897-3.71-4.602-11.287-7.762-17.129C117.231,55.759,103.881,60.204,103.738,69.42z"/>
		<path fill="#F39322" d="M104.149,69.062c-0.185,5.66,3.99,11.329,9.365,13.322c5.375,1.995,13.429-3.486,12.869-6.409
			c-0.699-3.65-4.23-11.094-7.377-16.75C117.218,56.011,104.437,60.221,104.149,69.062z"/>
		<path fill="#F39222" d="M104.56,68.704c-0.28,5.502,3.643,11.106,8.856,13.157c5.213,2.052,13.031-3.075,12.616-6.018
			c-0.506-3.59-3.86-10.899-6.992-16.37C117.203,56.264,104.991,60.237,104.56,68.704z"/>
		<path fill="#F39122" d="M104.97,68.345c-0.377,5.344,3.297,10.884,8.347,12.992c5.05,2.109,12.629-2.664,12.363-5.627
			c-0.317-3.53-3.492-10.703-6.607-15.991C117.187,56.518,105.542,60.254,104.97,68.345z"/>
		<path fill="#F38F22" d="M105.381,67.987c-0.476,5.187,2.95,10.662,7.838,12.827c4.887,2.166,12.224-2.254,12.11-5.237
			c-0.133-3.471-3.125-10.506-6.222-15.612C117.17,56.772,106.09,60.272,105.381,67.987z"/>
		<path fill="#F28E22" d="M105.792,67.628c-0.577,5.029,2.604,10.44,7.329,12.661c4.724,2.223,11.814-1.844,11.857-4.846
			c0.048-3.413-2.76-10.307-5.837-15.232C117.151,57.028,106.634,60.29,105.792,67.628z"/>
		<path fill="#F28D22" d="M106.203,67.27c-0.68,4.872,2.258,10.218,6.82,12.496c4.562,2.28,11.401-1.437,11.604-4.455
			c0.226-3.358-2.396-10.107-5.452-14.853C117.131,57.286,107.175,60.308,106.203,67.27z"/>
		<path fill="#F28C22" d="M106.613,66.912c-0.786,4.715,1.911,9.996,6.311,12.331c4.399,2.337,10.984-1.032,11.351-4.064
			c0.4-3.305-2.033-9.905-5.067-14.474C117.108,57.545,107.712,60.325,106.613,66.912z"/>
		<path fill="#F28A23" d="M107.024,66.553c-0.895,4.557,1.565,9.774,5.801,12.166c4.236,2.394,10.563-0.63,11.098-3.673
			c0.572-3.256-1.672-9.701-4.683-14.095C117.084,57.805,108.244,60.342,107.024,66.553z"/>
		<path fill="#F18923" d="M107.435,66.195c-1.007,4.399,1.218,9.552,5.292,12.001c4.074,2.451,10.14-0.231,10.845-3.282
			c0.741-3.211-1.312-9.496-4.298-13.715C117.059,58.067,108.772,60.358,107.435,66.195z"/>
		<path fill="#F18823" d="M107.846,65.837c-1.124,4.239,0.872,9.33,4.783,11.836c3.911,2.508,9.715,0.165,10.592-2.891
			c0.91-3.17-0.953-9.289-3.913-13.336C117.031,58.332,109.294,60.373,107.846,65.837z"/>
		<path fill="#F18723" d="M108.257,65.478c-1.245,4.077,0.525,9.108,4.274,11.671c3.748,2.565,9.287,0.557,10.339-2.501
			c1.077-3.133-0.594-9.08-3.528-12.957C117.001,58.599,109.812,60.385,108.257,65.478z"/>
		<path fill="#F18523" d="M108.667,65.12c-1.371,3.913,0.179,8.886,3.765,11.506c3.586,2.622,8.859,0.945,10.086-2.11
			c1.245-3.1-0.236-8.868-3.143-12.577C116.968,58.868,110.324,60.393,108.667,65.12z"/>
		<path fill="#F18423" d="M109.078,64.762c-1.503,3.744-0.168,8.664,3.256,11.341c3.423,2.679,8.43,1.329,9.833-1.719
			c1.413-3.071,0.122-8.655-2.758-12.198C116.934,59.14,110.831,60.397,109.078,64.762z"/>
		<path fill="#F08323" d="M109.489,64.403c-1.642,3.57-0.514,8.442,2.747,11.176c3.26,2.736,8.002,1.71,9.58-1.328
			c1.582-3.047,0.479-8.439-2.373-11.819C116.897,59.416,111.333,60.395,109.489,64.403z"/>
		<path fill="#F08223" d="M109.9,64.045c-1.788,3.388-0.86,8.22,2.238,11.011c3.097,2.793,7.574,2.088,9.327-0.937
			c1.753-3.026,0.837-8.22-1.988-11.439C116.857,59.695,111.83,60.386,109.9,64.045z"/>
		<path fill="#F08023" d="M110.31,63.686c-1.94,3.197-1.207,7.998,1.728,10.846c2.935,2.85,7.148,2.464,9.074-0.546
			c1.925-3.008,1.195-7.999-1.603-11.06C116.815,59.978,112.325,60.367,110.31,63.686z"/>
		<path fill="#F07F23" d="M110.721,63.328c-2.099,2.994-1.553,7.776,1.219,10.681c2.772,2.907,6.722,2.836,8.821-0.155
			c2.098-2.994,1.553-7.775-1.218-10.681C116.77,60.265,112.82,60.336,110.721,63.328z"/>
	</g>
	<path fill="#A98012" d="M103.76,79.398c-1.114-0.361-1.856,2.605,0.386,9.667c2.484,7.833,9.346,11.81,17.502,9.584
		c8.732-2.381,17.609-18.869,17.609-18.869l-0.406-0.196c0,0-9.36,14.883-17.249,16.943c-6.694,1.749-13.573,0.839-15.848-6.52
		C103.478,82.646,104.952,79.783,103.76,79.398z"/>
	<g>
		<ellipse fill="#F3ED90" cx="117.514" cy="66.835" rx="8" ry="9.776"/>
		<ellipse fill="#F3EE93" cx="117.507" cy="66.79" rx="7.869" ry="9.617"/>
		<ellipse fill="#F3EE95" cx="117.499" cy="66.744" rx="7.739" ry="9.457"/>
		<ellipse fill="#F4EE98" cx="117.492" cy="66.698" rx="7.608" ry="9.298"/>
		<ellipse fill="#F4EF9A" cx="117.485" cy="66.653" rx="7.478" ry="9.138"/>
		<ellipse fill="#F4EF9D" cx="117.477" cy="66.607" rx="7.347" ry="8.979"/>
		<ellipse fill="#F4EF9F" cx="117.47" cy="66.561" rx="7.217" ry="8.819"/>
		<ellipse fill="#F4F0A2" cx="117.463" cy="66.515" rx="7.086" ry="8.66"/>
		<ellipse fill="#F5F0A4" cx="117.455" cy="66.47" rx="6.956" ry="8.501"/>
		<ellipse fill="#F5F0A7" cx="117.448" cy="66.424" rx="6.826" ry="8.341"/>
		<ellipse fill="#F5F1A9" cx="117.441" cy="66.378" rx="6.695" ry="8.182"/>
		<ellipse fill="#F5F1AB" cx="117.434" cy="66.332" rx="6.565" ry="8.022"/>
		<ellipse fill="#F6F2AE" cx="117.426" cy="66.287" rx="6.434" ry="7.863"/>
		<ellipse fill="#F6F2B0" cx="117.419" cy="66.241" rx="6.304" ry="7.703"/>
		<ellipse fill="#F6F2B3" cx="117.412" cy="66.195" rx="6.173" ry="7.544"/>
		<ellipse fill="#F6F3B5" cx="117.404" cy="66.149" rx="6.043" ry="7.385"/>
		<ellipse fill="#F7F3B7" cx="117.397" cy="66.104" rx="5.912" ry="7.225"/>
		<ellipse fill="#F7F3B9" cx="117.39" cy="66.058" rx="5.782" ry="7.066"/>
		<ellipse fill="#F7F4BC" cx="117.382" cy="66.012" rx="5.652" ry="6.906"/>
		<ellipse fill="#F7F4BE" cx="117.375" cy="65.966" rx="5.521" ry="6.747"/>
		<ellipse fill="#F8F4C0" cx="117.368" cy="65.921" rx="5.391" ry="6.587"/>
		<ellipse fill="#F8F5C3" cx="117.36" cy="65.875" rx="5.26" ry="6.428"/>
		<ellipse fill="#F8F5C5" cx="117.353" cy="65.829" rx="5.13" ry="6.269"/>
		<ellipse fill="#F8F5C7" cx="117.346" cy="65.783" rx="4.999" ry="6.109"/>
		<ellipse fill="#F9F6C9" cx="117.338" cy="65.738" rx="4.869" ry="5.95"/>
		<ellipse fill="#F9F6CB" cx="117.331" cy="65.692" rx="4.738" ry="5.79"/>
		<ellipse fill="#F9F6CE" cx="117.324" cy="65.646" rx="4.608" ry="5.631"/>
		<ellipse fill="#FAF7D0" cx="117.316" cy="65.6" rx="4.478" ry="5.472"/>
		<ellipse fill="#FAF7D2" cx="117.309" cy="65.555" rx="4.347" ry="5.312"/>
		<ellipse fill="#FAF8D4" cx="117.302" cy="65.509" rx="4.217" ry="5.153"/>
		<ellipse fill="#FAF8D6" cx="117.294" cy="65.463" rx="4.086" ry="4.993"/>
		<ellipse fill="#FBF8D8" cx="117.287" cy="65.417" rx="3.956" ry="4.834"/>
		<ellipse fill="#FBF9DA" cx="117.28" cy="65.372" rx="3.825" ry="4.674"/>
		<ellipse fill="#FBF9DD" cx="117.272" cy="65.326" rx="3.695" ry="4.515"/>
		<ellipse fill="#FBF9DF" cx="117.265" cy="65.28" rx="3.564" ry="4.356"/>
		<ellipse fill="#FCFAE1" cx="117.258" cy="65.234" rx="3.434" ry="4.196"/>
		<ellipse fill="#FCFAE2" cx="117.25" cy="65.189" rx="3.304" ry="4.037"/>
		<ellipse fill="#FCFAE4" cx="117.243" cy="65.143" rx="3.173" ry="3.877"/>
		<ellipse fill="#FCFBE6" cx="117.236" cy="65.097" rx="3.043" ry="3.718"/>
		<ellipse fill="#FCFBE8" cx="117.229" cy="65.051" rx="2.912" ry="3.558"/>
		<ellipse fill="#FDFBEA" cx="117.221" cy="65.006" rx="2.782" ry="3.399"/>
		<ellipse fill="#FDFCEC" cx="117.214" cy="64.96" rx="2.651" ry="3.24"/>
		<ellipse fill="#FDFCEE" cx="117.207" cy="64.914" rx="2.521" ry="3.08"/>
		<ellipse fill="#FDFCF0" cx="117.199" cy="64.868" rx="2.39" ry="2.921"/>
		<ellipse fill="#FEFDF2" cx="117.192" cy="64.823" rx="2.26" ry="2.761"/>
		<ellipse fill="#FEFDF4" cx="117.185" cy="64.777" rx="2.13" ry="2.602"/>
		<ellipse fill="#FEFDF6" cx="117.177" cy="64.731" rx="1.999" ry="2.442"/>
		<ellipse fill="#FEFEF8" cx="117.17" cy="64.685" rx="1.869" ry="2.283"/>
		<ellipse fill="#FEFEFA" cx="117.163" cy="64.64" rx="1.738" ry="2.124"/>
		<ellipse fill="#FFFEFC" cx="117.155" cy="64.594" rx="1.608" ry="1.964"/>
		<ellipse fill="#FFFFFD" cx="117.148" cy="64.548" rx="1.477" ry="1.805"/>
		<ellipse fill="#FFFFFF" cx="117.141" cy="64.503" rx="1.347" ry="1.645"/>
	</g>
	<ellipse fill="#010202" cx="122.937" cy="67.8" rx="2.014" ry="2.46"/>
	<ellipse fill="#FFFFFF" cx="122.038" cy="65.871" rx="0.946" ry="1.156"/>
	
		<linearGradient id="SVGID_5_" gradientUnits="userSpaceOnUse" x1="624.3895" y1="81.6054" x2="642.9884" y2="81.6054" gradientTransform="matrix(-1 0 0 1 710.6621 0)">
		<stop  offset="0" style="stop-color:#F07F23"/>
		<stop  offset="1" style="stop-color:#FBBC1C"/>
	</linearGradient>
	<path fill="url(#SVGID_5_)" d="M70.921,72.109c0,0,14.773,5.958,15.334,11.093c0.561,5.136-12.112,8.216-13.373,7.874
		c0,0-4.947-3.449-5.199-10.89C67.478,74.115,70.921,72.109,70.921,72.109z"/>
	<path fill="#F07F23" d="M85.012,84.454c0,0-14.264-10.089-14.914-7.136C69.732,78.988,85.012,84.454,85.012,84.454z"/>
	<path fill="#F07F23" d="M85.012,85.728c0,0-8.927-2.263-11.605-2.183c-2.254,0.067-3.328,0.193-3.314,1.322
		c0.003,0.272,1.687,0.613,3.785,0.481C75.98,85.213,85.012,85.728,85.012,85.728z"/>
	<path fill="#F07F23" d="M84.33,86.627c0,0-13.737,0.529-13.077,2.689C71.672,90.681,84.33,86.627,84.33,86.627z"/>
	<ellipse fill="#A98012" cx="106.743" cy="73.296" rx="1.303" ry="1.697"/>
	<ellipse fill="#A98012" cx="110.786" cy="75.388" rx="0.631" ry="0.786"/>
	<ellipse fill="#A98012" cx="114.426" cy="77.854" rx="0.699" ry="0.899"/>
	<ellipse fill="#A98012" cx="110.576" cy="79.368" rx="0.421" ry="0.347"/>
	<ellipse fill="#A98012" cx="122.038" cy="76.612" rx="0.854" ry="1.242"/>
	<ellipse fill="#A98012" cx="119.714" cy="77.854" rx="0.788" ry="0.899"/>
	<ellipse fill="#A98012" cx="116.668" cy="80.615" rx="0.926" ry="0.99"/>
	<ellipse fill="#A98012" cx="108.948" cy="71.599" rx="0.367" ry="0.51"/>
	<ellipse fill="#A98012" cx="124.869" cy="72.588" rx="0.355" ry="0.322"/>
	<ellipse fill="#A98012" cx="124.125" cy="74.993" rx="0.63" ry="0.679"/>
	<ellipse fill="#A98012" cx="121.183" cy="80.187" rx="0.42" ry="0.429"/>
	<circle fill="#A98012" cx="126.803" cy="75.672" r="0.472"/>
	<ellipse fill="#A98012" cx="112.991" cy="76.173" rx="0.473" ry="0.438"/>
	<ellipse fill="#A98012" cx="109.841" cy="73.296" rx="0.525" ry="0.745"/>
	<ellipse fill="#A98012" cx="111.416" cy="76.955" rx="0.42" ry="0.449"/>
	<ellipse fill="#A98012" cx="116.668" cy="78.238" rx="0.473" ry="0.514"/>
	<ellipse fill="#A98012" cx="108.581" cy="67.8" rx="0.84" ry="1.133"/>
</g>
</svg>
