<?xml version="1.0" encoding="utf-8"?>
<!-- Generator: Adobe Illustrator 18.1.1, SVG Export Plug-In . SVG Version: 6.00 Build 0)  -->
<svg version="1.1" id="Layer_1" xmlns="http://www.w3.org/2000/svg" xmlns:xlink="http://www.w3.org/1999/xlink" x="0px" y="0px" width="150px" height="150px" viewBox="0 0 150 150" enable-background="new 0 0 150 150" xml:space="preserve">
<g>
	<g>
		<path fill="#5C5C5C" d="M40.2,9h-4.1c0,0-6.5,1.4-8.6,3.6c0,0,3,1.8,8.4,1.5v0.8h4.5L40.2,9z"/>
		<path fill="#111111" d="M36,14v0.8h4.5l-0.1-2.7v0c0,0-2.9-0.5-5.1,0c-2.1,0.5-7.7,0.4-7.7,0.4S30.6,14.3,36,14z"/>
	</g>
	<g>
		<polygon fill="#F2CC83" points="48.9,10.3 47.6,10.3 46.2,9 45.1,10.1 43.2,10.1 41.7,9 40.2,9 40.5,14.8 41.9,14.8 43.2,13.5 
			45,13.7 46.1,14.8 47.7,13.3 48.9,13.3 		"/>
		<path fill="#D7A960" d="M47.7,13.3h1.2v-1.5c-3.2,0.6-8.5,0.2-8.5,0.2l0.1,2.7h1.4l1.3-1.2l1.8,0.1l1.1,1.1L47.7,13.3z"/>
	</g>
	<g>
		<g>
			<path fill="#EAB150" d="M98.5,65.6c0,0-9,10-8.5,23.5c0.4,13.4,2.3,40.5,0.9,43.7c-1.5,3.2-5.1,1.3-5.3-5.5
				c-0.2-6.8-2.6-48.6-2.6-54.4c0-5.8-3-56.9-3.6-59.9c0,0-1-6.4-5.8-8.4c-4.7-2-8.9-0.2-14.7,3c-5.8,3.3-10,2.7-10,2.7v2.7
				c0,0,5.2-0.2,9.7-2.2c4.5-2,9.7-4.4,13.1-1.6c3.4,2.8,2.9,37.3,3,40.7c0.2,3.4,0,36.9,0.2,41.7c0.2,4.9,0,33.7,0.4,38.2
				c0.4,4.5,2.2,15.4,13.8,15.7c11.6,0.2,14.7-10.2,14.7-14.3s-0.2-29.1,1.1-34.4c1.4-5.3,5-12.6,11.8-12.5
				C116.8,84.4,112.9,68.2,98.5,65.6z"/>
			<path fill="#DB9C42" d="M76.7,7c1.8,7.3,2.7,61.1,3.4,72.3c0.7,11.2,1.5,40.3,2.7,48.9c1.2,8.6,6.1,6.1,6.1,6.1v0
				c-1.6,0-3.3-2.4-3.4-7c-0.2-6.8-2.6-48.6-2.6-54.4c0-5.8-3-56.9-3.6-59.9C79.3,13,78.8,9.6,76.7,7z"/>
			<path fill="#DB9C42" d="M98.5,99.4c0,14.9,3.9,44.7-12.5,45.8c1,0.2,2,0.4,3.2,0.4c11.6,0.2,14.7-10.2,14.7-14.3
				s-0.2-29.1,1.1-34.4c1.4-5.3,5-12.6,11.8-12.5c0,0-3.9-16.2-18.2-18.8c0,0,7.8,9.9,8,13.5C106.6,82.7,98.5,84.5,98.5,99.4z"/>
			<path fill="#DB9C42" d="M71.7,9.2c1.1,0.9,1.8,4.9,2.2,10c0,0,0.8-9.1-1.8-12.3C69.4,3.7,62.3,7,59,9c-3.3,1.9-10.1,2.9-10.1,2.9
				v1.2c0,0,5.2-0.2,9.7-2.2C63,8.8,68.2,6.4,71.7,9.2z"/>
		</g>
		<g>
			<g>
				<ellipse fill="#C69033" cx="79.9" cy="22.7" rx="2" ry="2.1"/>
				<ellipse fill="#C69033" cx="80.1" cy="30.3" rx="2" ry="2.1"/>
			</g>
			<g>
				<g>
					<g>
						<circle fill="#C69033" cx="96.3" cy="104.4" r="5"/>
						<ellipse fill="#F4BF68" cx="96.1" cy="104.8" rx="4.8" ry="4.6"/>
					</g>
					<g>
						<circle fill="#C69033" cx="96.3" cy="117.9" r="5"/>
						<ellipse fill="#F4BF68" cx="96.1" cy="118.3" rx="4.8" ry="4.6"/>
					</g>
					<g>
						<circle fill="#C69033" cx="97.3" cy="131.5" r="3.9"/>
						<ellipse fill="#F4BF68" cx="97.2" cy="131.8" rx="3.7" ry="3.6"/>
					</g>
				</g>
				<g>
					<g>
						<path fill="#B77C26" d="M74.6,66.1l1.8,1.4c0,0,0.6,1.2,0,2.9L74.6,72V66.1z"/>
						<ellipse fill="#C69033" cx="74.2" cy="69" rx="1.3" ry="3.1"/>
						<ellipse fill="#F4BF68" cx="73.6" cy="69" rx="1.3" ry="3.1"/>
					</g>
					<g>
						<path fill="#B77C26" d="M73.7,50.9l1.8,1.4c0,0,0.6,1.2,0,2.9l-1.8,1.5V50.9z"/>
						<ellipse fill="#C69033" cx="73.4" cy="53.8" rx="1.3" ry="3.1"/>
						<ellipse fill="#F4BF68" cx="72.8" cy="53.8" rx="1.3" ry="3.1"/>
					</g>
				</g>
				<g>
					<path fill="#B77C26" d="M75.3,129.8l2.1,1.7c0,0,0.8,1.4,0,3.5l-2.1,1.8V129.8z"/>
					<ellipse fill="#C69033" cx="74.8" cy="133.3" rx="1.5" ry="3.7"/>
					<ellipse fill="#F4BF68" cx="74.1" cy="133.3" rx="1.5" ry="3.7"/>
				</g>
				<g>
					<g>
						<g>
							<path fill="#B77C26" d="M83.9,72.1l-2.1,1.7c0,0-0.8,1.4,0,3.5l2.1,1.8V72.1z"/>
							<ellipse fill="#C69033" cx="84.3" cy="75.6" rx="1.5" ry="3.7"/>
							<ellipse fill="#F4BF68" cx="85.1" cy="75.6" rx="1.5" ry="3.7"/>
						</g>
						<g>
							<path fill="#B77C26" d="M83.2,64.2l-2.1,1.7c0,0-0.8,1.4,0,3.5l2.1,1.8V64.2z"/>
							<ellipse fill="#C69033" cx="83.6" cy="67.7" rx="1.5" ry="3.7"/>
							<ellipse fill="#F4BF68" cx="84.3" cy="67.7" rx="1.5" ry="3.7"/>
						</g>
						<g>
							<path fill="#B77C26" d="M83.1,56.3l-2.1,1.7c0,0-0.8,1.4,0,3.5l2.1,1.8V56.3z"/>
							<ellipse fill="#C69033" cx="83.5" cy="59.8" rx="1.5" ry="3.7"/>
							<ellipse fill="#F4BF68" cx="84.2" cy="59.8" rx="1.5" ry="3.7"/>
						</g>
						<g>
							<path fill="#B77C26" d="M82.6,47.8l-2.1,1.7c0,0-0.8,1.4,0,3.5l2.1,1.8V47.8z"/>
							<ellipse fill="#C69033" cx="83" cy="51.3" rx="1.5" ry="3.7"/>
							<ellipse fill="#F4BF68" cx="83.7" cy="51.3" rx="1.5" ry="3.7"/>
						</g>
					</g>
					<g>
						<g>
							<path fill="#B77C26" d="M84.6,96.9l-2.3,1.9c0,0-0.8,1.6,0,4l2.3,2.1V96.9z"/>
							<ellipse fill="#C69033" cx="85.1" cy="100.9" rx="1.6" ry="4.2"/>
							<ellipse fill="#F4BF68" cx="85.8" cy="100.9" rx="1.6" ry="4.2"/>
						</g>
						<g>
							<path fill="#B77C26" d="M85,107.2l-2.3,1.9c0,0-0.8,1.6,0,4l2.3,2.1V107.2z"/>
							<ellipse fill="#C69033" cx="85.4" cy="111.2" rx="1.6" ry="4.2"/>
							<ellipse fill="#F4BF68" cx="86.2" cy="111.2" rx="1.6" ry="4.2"/>
						</g>
						<g>
							<path fill="#B77C26" d="M84.2,86.6L82,88.6c0,0-0.8,1.6,0,4l2.3,2.1V86.6z"/>
							<ellipse fill="#C69033" cx="84.7" cy="90.7" rx="1.6" ry="4.2"/>
							<ellipse fill="#F4BF68" cx="85.4" cy="90.7" rx="1.6" ry="4.2"/>
						</g>
						<g>
							<path fill="#B77C26" d="M85.3,117.4l-2.3,1.9c0,0-0.8,1.6,0,4l2.3,2.1V117.4z"/>
							<ellipse fill="#C69033" cx="85.8" cy="121.4" rx="1.6" ry="4.2"/>
							<ellipse fill="#F4BF68" cx="86.5" cy="121.4" rx="1.6" ry="4.2"/>
						</g>
					</g>
				</g>
			</g>
		</g>
	</g>
</g>
</svg>
