<?xml version="1.0" encoding="UTF-8" standalone="no"?>
<svg
    xmlns:dc="http://purl.org/dc/elements/1.1/"
    xmlns:cc="http://creativecommons.org/ns#"
    xmlns:rdf="http://www.w3.org/1999/02/22-rdf-syntax-ns#"
    xmlns:svg="http://www.w3.org/2000/svg"
    xmlns="http://www.w3.org/2000/svg"
    xmlns:sodipodi="http://sodipodi.sourceforge.net/DTD/sodipodi-0.dtd"
    xmlns:inkscape="http://www.inkscape.org/namespaces/inkscape"
   version="1.1"
   x="0px"
   y="0px"
   width="150px"
   height="150px"
   viewBox="0 0 150 150"
   enable-background="0 0 150 150"
   xml:space="preserve"
   sodipodi:docname="icon.svg"
   inkscape:version="0.92.4 (5da689c313, 2019-01-14)">
    <defs
   id="defs4684" />
    <sodipodi:namedview
   pagecolor="#ffffff"
   bordercolor="#666666"
   borderopacity="1"
   objecttolerance="10"
   gridtolerance="10"
   guidetolerance="10"
   inkscape:pageopacity="0"
   inkscape:pageshadow="2"
   inkscape:window-width="1366"
   inkscape:window-height="705"
   id="namedview4682"
   showgrid="false"
   inkscape:zoom="3.5866667"
   inkscape:cx="75"
   inkscape:cy="75"
   inkscape:window-x="-8"
   inkscape:window-y="-8"
   inkscape:window-maximized="1"
   inkscape:current-layer="Слой_1" />
    <path
   d="m 80.538436,101.4716 c 0,-0.74466 0,-1.46653 0,-2.188398 -0.0228,-1.19602 -0.11246,-2.458909 -0.338898,-3.632134 -1.083562,0.08966 -2.165603,0.180847 -3.249165,0.27051 -3.790186,-0.226438 -3.790186,-0.226438 -3.948237,-0.180847 -0.902714,1.851021 -1.940684,3.338829 -3.407216,4.761289 0,0.13525 0,0.29331 0,0.45136 0.834328,2.30086 1.984757,4.60323 -0.0228,6.61079 -1.578991,0.67627 -3.001451,-0.49695 -3.971033,-1.60179 -0.813051,-1.33128 -1.264408,-2.30086 -1.42094,-2.48171 -0.92551,0.11246 -0.92551,0.11246 -1.173225,0.22492 -0.0228,0.0456 -0.04559,0.11246 -0.06839,0.18085 -0.0228,0.0456 -0.0228,0.11246 -0.0228,0.18085 -0.04559,0 -0.06839,0 -0.08966,0 0,0.58661 0,1.19602 0,1.80543 0.0228,0 0.06687,0 0.11246,0 0.316102,10.40097 0.316102,10.40097 0.27051,10.98758 -0.609408,2.16561 -4.761288,2.1884 -6.49833,2.30086 -2.685348,-0.20364 -6.587993,-1.15043 -6.837227,-4.33273 0.224919,-0.58661 1.262888,-2.4589 0.902714,-3.00145 -2.685348,-0.9483 -2.955858,-3.36162 -1.150429,-5.43756 0.879919,-0.72187 1.759838,-1.21882 1.895093,-2.36925 0.06687,0 0.06687,0 0.06687,-2.03034 -0.04559,0 -0.08966,0 -0.11246,0 -0.946786,0.15805 -1.782633,-0.0228 -2.571369,-0.45136 -0.879918,-1.28569 -0.135255,-3.249166 0.676277,-4.399595 0,-0.496949 -0.496949,-0.790255 -0.925511,-0.92551 -0.08966,0.405765 -0.180847,0.834327 -0.27051,1.264408 -0.925511,8.776397 -0.925511,8.776397 -0.925511,9.476987 -0.04559,0.20364 -0.06839,0.40576 -0.08966,0.60941 0,0.54102 0,1.08356 0,1.64737 0.0228,0.22492 0.04559,0.45136 0.08966,0.67628 0.11246,2.91027 0.405766,5.82053 0.474153,8.73232 -1.083561,1.73704 -2.279582,2.07594 -4.287134,2.5045 -0.811532,0.0669 -1.601787,0.13526 -2.392042,0.22492 -3.542471,-0.47415 -8.168504,-1.53492 -6.633585,-6.15943 0.316102,-0.60941 1.895093,-2.91027 1.578991,-3.54247 -2.797808,-0.49695 -4.03942,-1.12764 -3.001451,-4.08349 0.992379,-1.53492 1.963481,-2.27959 3.430012,-3.36163 0.699072,-0.83433 0.563817,-2.09873 0.541021,-3.15798 C 36.469548,94.885128 35.025813,88.838156 33.715812,82.791183 33.39971,81.842877 33.106404,80.89609 32.813098,79.97058 c -3.00145,-5.189849 -3.00145,-5.189849 -4.218747,-7.490708 -2.211195,-4.942135 -3.746114,-9.49978 -4.670105,-14.84616 -0.09118,-1.03797 -0.180847,-2.07594 -0.27051,-3.091114 0,-0.969583 0,-1.917889 0,-2.864676 0.203642,-2.708143 0.632204,-5.121461 1.466531,-7.717146 -0.902715,0 -3.76739,4.03942 -4.264339,4.6929 -2.07594,3.338829 -3.519675,6.746045 -4.241543,10.627414 -0.06839,1.104837 -0.06839,1.104837 0,2.708144 0.27051,1.782633 0.632204,3.519675 1.083562,5.256717 0.609408,1.578991 0.609408,1.578991 2.458909,5.73087 0.541021,1.872297 0.541021,1.872297 0.857123,3.338828 0.38297,4.626033 -0.992378,7.875198 -4.129084,11.191231 -2.820603,1.828225 -5.753666,2.797807 -9.092494,3.180777 C 6.935278,90.935372 6.3258696,91.16181 5.581206,91.657239 5.515858,92.468771 5.3578069,94.432251 4.0052547,93.417077 3.0356723,92.175464 2.4262639,90.912576 1.8396513,89.446044 1.1177836,84.347378 2.8548254,80.511601 6.7802664,77.397691 8.5856956,76.292854 10.52638,75.209292 12.172239,73.878016 c 0.474153,-0.881439 0.632204,-1.580511 0.767459,-2.572889 0,-0.609408 0,-1.218816 0,-1.805429 -0.676276,-3.632135 -1.670174,-7.355453 -1.805429,-11.055975 0,-0.721868 0,-1.443735 0,-2.165603 0.135255,-3.407216 1.376868,-6.587993 3.024246,-9.566648 1.714246,-2.458909 3.496879,-4.850951 5.550023,-7.03935 0.76746,-0.699072 1.556195,-1.399664 2.34645,-2.07594 1.015174,-0.699072 2.030349,-1.376868 3.068318,-2.053144 2.256787,-1.150429 4.445186,-2.188399 6.858504,-2.978654 0.699072,-0.76746 1.42094,-1.512123 2.142808,-2.256787 4.174675,-3.925441 9.002831,-6.679177 14.259548,-8.913167 1.127633,-0.405766 2.256786,-0.811532 3.38442,-1.196021 3.948236,-0.902715 3.948236,-0.902715 6.046972,-1.262889 7.15181,-0.27051 14.598446,-1.106357 21.72746,-0.112459 3.588063,0.744663 7.174606,1.489327 10.762669,2.256786 7.288585,2.142808 14.124293,5.437564 20.418983,9.679107 0.76746,0.563817 1.53492,1.127634 2.32365,1.69145 2.72942,-0.857123 5.23392,-1.19602 7.5363,0.948307 0.0897,0 0.20212,0.0228 0.3161,0.04559 2.27958,-1.420939 6.74605,-1.104837 8.28097,1.399664 0.40576,0 0.40576,0 1.24161,-0.226439 3.04552,-0.04559 4.62451,0.361694 6.90409,2.436114 1.44374,-0.969582 1.8723,-2.61696 2.88747,-3.993828 3.18078,-1.759838 4.76129,1.42094 5.34791,4.060696 0,2.527297 -1.21882,4.850951 -2.66256,6.8813 -0.94678,0.969582 -0.94678,0.969582 -1.01517,1.127633 3.27196,1.512123 4.15188,4.129084 5.55002,7.309861 0.15805,1.443736 -1.08356,1.556195 -2.21119,2.121531 -1.62459,0.316102 -1.62459,0.316102 -2.43764,0.360174 -1.71424,-0.247714 -3.29475,-0.767459 -4.94213,-1.285684 0.99238,5.031798 4.24154,10.040801 7.03935,14.215476 0.60941,1.241613 1.21882,2.504501 1.8495,3.76739 0.54102,1.647378 0.54102,1.647378 1.12763,3.948237 0,1.196021 0,2.392042 0,3.609339 -1.06076,5.302308 -4.12908,8.370626 -8.57427,11.19123 -1.21881,0.451357 -2.41483,0.902714 -3.60933,1.354072 -2.57289,0.451357 -5.18985,0.767459 -7.78402,1.015174 -0.0456,0 -0.0669,0 -0.0897,0 -0.63221,0 -1.26289,0 -1.8723,0 -2.70814,0 -5.3707,-0.699072 -7.8524,-1.69297 -1.57899,-0.969583 -3.20357,-1.466532 -4.85095,-2.256787 -1.57899,-1.150429 -2.95586,-2.527297 -4.19595,-4.03942 -0.51823,0 -1.10636,0.790255 -1.46653,1.127634 -0.63221,0.496948 -2.09874,1.30848 -2.45891,2.030348 -1.46654,20.915934 -1.46654,20.915934 -1.46654,22.089154 -0.0456,0 -0.0897,0 -0.11246,0 0,0.79026 0,1.60179 0,2.41484 0.0228,0 0.0669,0 0.11246,0 0.20365,2.1656 1.26289,4.21875 1.12764,6.40714 -1.30848,3.97104 -8.416221,3.38442 -11.507334,2.70815 -2.121532,-1.60179 -0.451358,-5.70808 0.316102,-7.58189 0,-1.06077 -1.556195,-1.71425 -2.233991,-2.45891 -0.879919,-2.68535 1.805429,-2.77501 2.775012,-4.7157 0.0228,-0.6322 0.06687,-1.24161 0.112459,-1.85102 0,-0.76746 0,-1.51212 0,-2.25679 -0.08966,-3.113907 -0.158051,-6.227816 -0.226439,-9.31893 -0.382969,0.0228 -0.382969,0.0228 -2.978654,0.721868 -0.518225,3.746113 -0.518225,3.746113 -0.879919,7.107742 -0.135255,2.30086 -0.247714,4.60323 -0.361694,6.90409 -0.0228,0.51823 -0.04559,1.03797 -0.06839,1.57899 0,1.08356 0,2.16561 0,3.24917 0.06839,1.15043 0.180847,2.27958 0.474153,3.38442 0.428562,0.72187 0.857123,1.44373 1.285685,2.1656 0.224918,1.80543 0.112459,2.8434 -1.466532,3.88137 -3.474083,1.33128 -9.3858,2.09874 -12.297587,-0.81153 -1.69145,-2.70815 -0.04559,-4.55765 1.060766,-7.1974 0,-1.26289 -0.925511,-1.44374 -1.963481,-1.91789 -3.00145,-2.34645 0.857123,-5.18985 2.639757,-6.63359 1.001496,-1.43613 0.9787,-2.54249 1.09116,-4.30233 z"
   id="path4603"
   inkscape:connector-curvature="0"
   style="clip-rule:evenodd;fill-rule:evenodd;stroke-width:1.51972163" />
    <path
   d="m 83.62955,122.27507 c -1.80543,-0.18085 -3.430012,-0.3389 -4.896543,-1.46653 -1.601787,-1.91789 0.451357,-4.49078 1.241612,-6.27189 0.496949,0 1.03797,0.40576 1.489327,0.6322 0.813051,0.24772 1.647379,0.49695 2.481706,0.76746 1.083561,0.11246 1.083561,0.11246 2.910267,0.11246 0.632204,-0.24771 1.262888,-0.47415 1.917888,-0.69907 0,1.28568 1.466532,2.5045 1.80543,3.67773 0,0.3161 0,0.6322 0,0.96958 -0.744664,1.8723 -3.249165,2.00755 -4.986207,2.25678 -0.655,-0.002 -1.30848,-0.002 -1.96348,0.0213 z"
   id="path4605"
   inkscape:connector-curvature="0"
   style="clip-rule:evenodd;fill:#bb9a80;fill-rule:evenodd;stroke-width:1.51972163" />
    <path
   d="m 97.212822,114.62631 c 0.451357,0.0684 0.451357,0.0684 2.030348,0.0897 0,-0.0456 0,-0.0684 0,-0.0897 1.17322,-0.3161 2.14281,-0.67627 3.22637,-1.24161 0.58661,1.98476 1.12763,3.29476 1.19602,5.25672 -0.40577,0.83432 -1.48933,1.26289 -2.32365,1.67017 -2.392047,0.60941 -5.370701,1.03797 -7.625968,-0.18085 -0.744664,-1.89509 0.226439,-4.06221 1.015174,-5.77646 0.790255,-0.11094 1.69145,0.18237 2.481706,0.27203 z"
   id="path4607"
   inkscape:connector-curvature="0"
   style="clip-rule:evenodd;fill:#bb9a80;fill-rule:evenodd;stroke-width:1.51972163" />
    <path
   d="m 41.21108,120.15354 c -2.098736,-0.3161 -6.024177,-0.72187 -5.776462,-3.74611 0.496949,-1.42094 1.262888,-2.70815 1.984756,-4.01663 0.699072,0 1.578991,0.76746 2.256787,1.08356 0.699072,0.18085 1.420939,0.3617 2.144327,0.54102 0.902715,0.0228 0.902715,0.0228 2.121531,-0.11246 0.834327,-0.33889 1.624583,-0.81305 2.392042,-1.30848 0.04559,0.0684 0.11246,0.13526 0.180847,0.22492 0.08966,1.62459 0.180847,3.27196 0.293306,4.91934 -0.226438,0.90272 -0.226438,0.90272 -0.38297,1.12764 -1.468051,1.03948 -3.431531,1.10787 -5.214164,1.2872 z"
   id="path4609"
   inkscape:connector-curvature="0"
   style="clip-rule:evenodd;fill:#bb9a80;fill-rule:evenodd;stroke-width:1.51972163" />
    <path
   d="m 55.605883,117.94234 c -0.135255,-0.0669 -0.247715,-0.13525 -0.361694,-0.18084 -1.512123,-0.27051 -3.519675,-0.94831 -4.174675,-2.48171 0.08966,-0.99238 0.632204,-1.87229 1.060765,-2.77501 0.203643,-0.0228 0.632205,0.18085 2.616961,0.74466 1.196021,0.18085 2.279583,0.24772 3.49688,0.0684 0.655,-0.2933 1.331276,-0.58661 2.007552,-0.87992 1.489327,-1.10635 1.489327,-1.10635 1.647378,-1.12763 0.270511,4.51205 0.270511,4.51205 0.226439,5.3479 -1.623063,1.39814 -4.53333,1.26289 -6.519606,1.28416 z"
   id="path4611"
   inkscape:connector-curvature="0"
   style="clip-rule:evenodd;fill:#bb9a80;fill-rule:evenodd;stroke-width:1.51972163" />
    <path
   d="m 46.242878,107.33773 c 0,0.54102 0,1.08356 0,1.64738 0.08966,2.55009 0.08966,2.55009 0.04559,2.70814 -0.902714,0.83433 -1.624582,1.39814 -2.866194,1.67017 -0.609409,0 -1.218817,0 -1.80543,0 -1.285684,-0.33889 -2.369246,-0.79025 -3.452807,-1.60178 -0.38297,-0.45136 -0.38297,-0.45136 -0.902715,-0.90272 -1.331276,-0.74466 -4.6929,-0.2933 -3.38442,-2.66255 0.92551,-1.06077 0.92551,-1.06077 1.986276,-2.03035 1.241613,-0.83433 1.241613,-0.83433 1.917889,-1.39966 1.083561,-1.94069 0.451357,-4.940617 0.158051,-7.062148 -1.015174,-5.370697 -2.188399,-10.739873 -3.317552,-16.087773 -0.541021,-1.624583 -1.173226,-3.091114 -2.030349,-4.557646 -0.563816,-0.834327 0.158052,-2.211195 0.405766,-3.045522 0.247715,-0.360174 0.518225,-0.721868 0.790255,-1.060765 2.797808,-1.963481 8.483087,-3.588063 7.084943,-8.100117 -0.519745,-1.03797 -1.443736,-1.805429 -2.053144,-2.775011 0,-1.173226 0.699072,-1.940685 1.354072,-2.866195 1.399663,-1.196021 3.226369,-2.211195 3.588062,-4.106288 0.0228,0 0.06687,0 0.11246,0 0,-0.586613 0,-1.173225 0,-1.737042 -0.04559,0 -0.09118,0 -0.11246,0 -0.27051,-1.241613 -0.834327,-2.256787 -1.556195,-3.316033 -2.098735,-1.96348 -5.483155,-3.609339 -5.483155,-6.860023 0.08966,-0.451357 0.203643,-0.902715 0.316102,-1.354072 1.443735,-3.430012 4.963411,-6.340279 3.294756,-10.378179 -0.992378,-1.127634 -1.624582,-1.782634 -3.045522,-2.256787 -0.0228,-0.06839 -0.04559,-0.112459 -0.06839,-0.158051 0.721868,-0.541021 1.443735,-1.083561 2.165603,-1.624582 2.120012,-1.285685 2.120012,-1.285685 2.34645,-1.489327 0.226439,-0.0228 0.226439,-0.0228 0.563817,-0.203643 0.293306,0.112459 1.737042,0.27051 2.481705,0.451357 0.721868,0.541021 1.443736,1.083562 2.1884,1.647379 0.811531,1.19602 1.624582,2.34645 2.007552,3.767389 0,3.317553 -1.782634,6.250615 -1.624583,9.543852 0.655,1.534919 2.030349,2.572889 2.933063,3.993829 0.11246,0.474153 0.247715,0.948306 0.38297,1.420939 0,2.053144 0,4.106288 0,6.159432 0.609408,2.662552 2.279583,2.662552 4.715696,2.978655 0.992378,0.27051 2.165604,0.428561 3.045522,0.948306 1.083562,0.879919 1.083562,0.879919 2.1884,1.986276 0.655,1.241613 1.30848,2.504501 1.984756,3.76739 0.744664,0.902715 1.512123,1.737042 2.436114,2.45891 3.452807,1.849501 6.182227,0.563816 9.071218,-1.624583 1.376868,-1.984756 1.647378,-4.354002 1.647378,-6.723248 -0.224918,-1.196021 -0.428561,-2.392042 -0.632204,-3.588063 0,-2.07594 -0.247714,-4.15188 1.127634,-5.888921 1.420939,-0.969583 2.550093,-1.601787 3.474083,-3.11391 0.361694,-1.173225 0.361694,-1.173225 0.451358,-1.262889 0.06687,-1.354072 0.06687,-1.354072 0,-4.083492 0,-0.541021 0,-1.060765 0,-1.578991 0.0228,-1.015174 0.06687,-2.030348 0.112459,-3.045522 0.609408,-3.00145 0.879919,-4.557645 3.565267,-6.205023 0.405766,-0.135255 0.451357,-0.247715 1.69145,-0.811531 0.902715,-0.361694 1.828225,-0.721868 2.752216,-1.083562 1.218817,-0.744664 3.338828,-2.933063 4.80536,-2.708144 1.512123,0.519745 1.512123,0.519745 1.647378,0.655 0,0.0228 0,0.06839 0,0.11246 -0.428561,0.247714 -2.098736,1.015174 -2.233991,1.466531 -0.112459,0.0228 -0.203642,0.04559 -0.293306,0.06839 -1.96348,1.512123 -4.919339,3.858574 -2.007552,6.024177 0.767459,0.180847 1.601786,0.203643 2.323654,0.495429 1.376868,1.376868 1.984757,2.955859 4.03942,3.159501 0.496949,-0.0228 1.399664,0.0228 1.69297,-0.451357 1.737046,-0.655 2.437636,-2.300858 3.203576,-3.858573 0.29331,-0.270511 0.58661,-0.541021 0.90272,-0.813051 0.96958,-0.180847 1.89509,-0.338898 2.88899,-0.361694 0.56381,-0.27051 0.56381,-0.27051 0.76746,-0.474153 0.0897,0 0.18084,0 0.27051,0 1.91789,1.218817 3.81298,2.481705 5.55002,3.925441 0.13526,0.247715 0.36017,0.27051 0.36017,0.586612 -0.40576,0.474154 -0.81153,0.969583 -1.21881,1.466532 -3.33883,-1.849501 -6.65638,-1.127634 -9.13809,1.556195 -0.83433,1.534919 -0.83433,1.534919 -1.82822,3.723318 -0.767467,0 -3.024254,-2.300859 -3.70053,-2.843399 -1.218817,-0.496949 -1.42094,-0.811532 -2.300859,0.518225 -1.03797,2.594164 -1.489327,4.896543 0.518225,7.153329 0.474153,0.338898 2.527297,1.534919 2.594165,1.737042 -0.788735,0.405766 -1.578991,0.813051 -2.34645,1.218817 -0.563817,0.518225 -1.127633,1.03797 -1.670174,1.578991 -1.42094,2.279582 -2.775012,4.399594 -2.775012,7.197401 1.737042,1.03797 4.490778,0.632205 6.38587,0.293307 2.392042,-0.790256 4.919345,-2.662553 5.888925,-5.031799 1.10484,5.009003 1.10484,5.009003 1.64738,7.062147 0.81153,6.182227 0.81153,6.182227 1.67017,11.981485 0.3617,3.971033 0.81305,7.671555 2.45891,11.326485 0.0228,0.203643 0.0456,0.405766 0.0669,0.632204 -1.80543,2.706625 -5.39197,4.489258 -8.14571,6.001381 -2.007554,0.902715 -4.016626,1.805429 -6.024178,2.708144 -0.902715,0.224919 -2.752216,1.03797 -3.632135,0.879919 0.04559,-0.902715 0.08966,-1.805429 0.135256,-2.685348 -0.180847,-0.0228 -0.360175,-0.04559 -0.541021,-0.04559 -0.76746,6.543922 -1.512123,12.95107 -1.714246,19.53907 -0.0228,0.83432 -0.0228,1.67017 -0.0228,2.5045 0.0228,0.79025 0.04559,1.60178 0.06839,2.41484 -0.338898,0.20364 -0.655,0.40576 -0.969582,0.6322 -2.594165,0.6322 -6.205024,-0.27051 -7.942065,-2.30086 -0.518225,-0.3389 -2.369246,-1.15043 -2.662553,-1.37687 -1.285684,-2.32365 1.331277,-3.4528 2.955859,-4.55764 0.948306,-1.08356 1.218817,-1.62458 1.578991,-3.00145 0.316102,-4.039428 0.04559,-8.168511 -0.451358,-12.183616 -0.112459,-0.293306 -0.226438,-0.586612 -0.316102,-0.857123 -0.135255,0 -0.27051,0 -0.405765,0 -0.316103,0.632204 0.224918,2.504502 0.224918,3.407216 -4.828155,0.969583 -9.905545,-0.112459 -14.733701,-0.632204 -5.054594,-1.060766 -10.221647,-1.443736 -14.802088,-4.016624 0.158051,-0.857123 0.946786,-1.466532 1.218816,-2.279583 -0.06687,-0.08966 -0.135255,-0.158051 -0.180847,-0.224919 -0.112459,0 -0.226438,0 -0.338897,0 -4.572843,5.598655 -4.844873,13.315803 -5.521149,20.174313 z"
   id="path4613"
   inkscape:connector-curvature="0"
   style="clip-rule:evenodd;fill:#ffffff;fill-rule:evenodd;stroke-width:1.51972163" />
    <path
   d="m 95.47578,105.37577 c 0,-0.90272 0,-1.78264 0,-2.66256 -0.04559,-0.83432 -0.08966,-1.67017 -0.11246,-2.4817 0.0228,0 0.06687,0 0.11246,0 0,-0.632205 0,-1.26289 0,-1.872298 -0.06839,0 -0.11246,0 -0.158051,0 -0.0228,-0.632205 -0.0228,-1.262889 -0.0228,-1.895093 0,-1.060766 0,-2.121532 0.0228,-3.159501 0,-0.474154 -0.04559,-0.834328 0.224918,-1.218817 0.518226,-0.293306 0.518226,-0.293306 5.866123,-2.708144 0.72187,-0.428562 1.46653,-1.015174 2.25679,-1.196021 0.0684,0.203643 0.0684,0.203643 0.0228,4.42239 -0.42857,5.325104 -0.85713,10.650214 -1.26289,15.996594 -0.0456,1.24161 -0.0684,2.4817 -0.0912,3.74611 -0.36017,1.10484 -2.346447,1.44374 -3.316029,1.64738 -1.331276,0 -2.955859,0.0897 -4.106288,-0.67628 -0.655,-1.10636 -1.556195,-1.75984 -2.550093,-2.4817 0,-1.30848 1.083562,-1.71425 2.030348,-2.39205 0.948306,-0.9483 0.971102,-1.80542 1.083562,-3.06831 z"
   id="path4615"
   inkscape:connector-curvature="0"
   style="clip-rule:evenodd;fill:#fbefde;fill-rule:evenodd;stroke-width:1.51972163" />
    <path
   d="m 52.67282,103.32262 c 0.04559,0 0.08966,0 0.158051,0 0,-0.74466 0,-1.46653 0,-2.1884 -0.04559,0 -0.08966,0 -0.112459,0 -0.08966,-0.11246 -0.08966,-0.11246 -0.11246,-0.36169 0.948307,0 2.121532,0.87992 3.022727,1.26289 0,0.81305 -0.721868,2.27958 -0.969583,3.1367 0.0228,0.20365 0.0228,0.20365 -0.180847,0.92551 0,1.53492 0.08966,2.8434 1.984757,2.8434 2.392042,-0.96958 2.708144,-3.27196 3.430012,-5.6412 0.316102,-0.15805 1.601786,-0.24772 1.872297,0.0228 0,1.60179 0.06839,3.20358 0.203642,4.80688 -0.04559,0 -0.08966,0 -0.112459,0 0,0.72187 0,1.44374 0,2.1884 0.0228,0 0.06687,0 0.112459,0 -0.316102,0.15805 -0.451357,0.3389 -0.676276,0.60941 -0.969582,0.72187 -0.969582,0.72187 -1.015174,0.83433 -0.676276,0.3161 -1.354072,0.6322 -2.007552,0.9483 -2.121532,0.40577 -5.098666,-0.18084 -6.656381,-1.73704 -2.121531,-0.74466 -2.752216,-1.55619 -1.354072,-3.51967 0.563817,-0.58662 1.262889,-1.10636 1.849501,-1.69297 0.405766,-0.88144 0.474153,-1.46806 0.563817,-2.43764 z"
   id="path4617"
   inkscape:connector-curvature="0"
   style="clip-rule:evenodd;fill:#fbefde;fill-rule:evenodd;stroke-width:1.51972163" />
    <path
   d="m 56.1697,108.39849 c -0.270511,-0.18084 -0.541021,-0.36169 -0.788736,-0.54102 -0.721868,-1.17322 0.203643,-4.30993 1.03797,-5.3479 0.92551,0.11246 1.984756,0.15805 2.843399,0.51823 0,1.19602 -0.632204,2.57289 -0.969582,3.70052 -0.565337,0.90271 -1.151949,1.21882 -2.123051,1.67017 z"
   id="path4619"
   inkscape:connector-curvature="0"
   style="clip-rule:evenodd;fill:#f7cac9;fill-rule:evenodd;stroke-width:1.51972163" />
    <path
   d="m 68.512879,106.59306 c -1.624583,-0.54102 -2.1884,-1.87229 -2.978655,-3.31603 -0.06839,-0.24771 -0.135255,-0.47415 -0.203643,-0.69907 0.158052,-0.3389 2.662553,-1.51212 3.11391,-1.39814 0.428562,1.01365 2.481706,5.18832 0.06839,5.41324 z"
   id="path4621"
   inkscape:connector-curvature="0"
   style="clip-rule:evenodd;fill:#f7cac9;fill-rule:evenodd;stroke-width:1.51972163" />
    <path
   d="m 61.247089,102.53237 c -1.19602,-0.15805 -2.369246,-0.3161 -3.542471,-0.47416 -1.399663,-0.45135 -2.730939,-1.06076 -4.016624,-1.78263 -0.0228,-0.0684 -0.04559,-0.13525 -0.04559,-0.18085 0.563817,-0.609405 1.083562,-1.173221 1.782634,-1.647374 0.744664,-1.489328 -0.790255,-3.49688 -2.369246,-3.49688 -0.541021,0.316102 -2.030348,1.443736 -2.550093,1.443736 -0.676276,-0.76746 -1.443736,-1.489328 -1.443736,-2.594165 0.518226,-1.399664 0.518226,-1.399664 1.556195,-3.588063 0.293307,0.112459 0.790256,0.541021 1.917889,1.127633 4.309931,1.489328 8.980035,2.121532 13.470813,3.001451 1.895092,0.203642 4.106287,0.247714 5.911717,0.790255 -0.08966,0.541021 -0.180847,0.632204 -0.293307,1.104838 -2.436113,3.995349 -5.774942,5.890439 -10.378179,6.296209 z"
   id="path4623"
   inkscape:connector-curvature="0"
   style="clip-rule:evenodd;fill:#f7cac9;fill-rule:evenodd;stroke-width:1.51972163" />
    <path
   d="m 49.897808,100.86219 c -1.714246,-2.053141 1.647379,-4.332723 3.203574,-5.302306 1.420939,0 1.984756,1.03797 1.984756,2.256787 -1.218817,1.218817 -2.392042,2.323659 -4.03942,3.001449 -0.38145,0 -0.76594,0.0228 -1.14891,0.0441 z"
   id="path4625"
   inkscape:connector-curvature="0"
   style="clip-rule:evenodd;fill:#f7cac9;fill-rule:evenodd;stroke-width:1.51972163" />
    <path
   d="m 12.172239,58.828213 c 0,-0.925511 0,-1.851021 0,-2.775012 0.721867,-7.288585 5.370696,-13.402425 10.943515,-17.870407 2.07594,-1.420939 3.925441,-2.504501 6.205024,-3.542471 2.007552,-0.721867 2.007552,-0.721867 2.121531,-0.676276 -1.443736,1.940685 -2.752216,3.925441 -4.03942,5.978585 -0.474153,0.948306 -0.496949,1.42094 -1.398144,1.714246 -2.165603,1.737042 -3.993829,3.700522 -5.73087,5.888921 -2.752216,4.53485 -4.986207,9.183678 -4.761288,14.621242 0.316102,1.986276 0.428561,4.534849 1.489327,6.294687 0.0228,0.158051 0.04559,0.338898 0.08966,0.518225 1.534918,3.294757 3.38442,7.016555 2.866195,10.785465 -0.203643,0.813051 -0.405766,1.624582 -0.609409,2.458909 -0.405765,0.744664 -0.811531,1.489327 -1.196021,2.256787 -2.030348,2.504501 -3.881369,3.609339 -6.949687,4.466462 -2.0759395,0.316102 -4.016624,0.632204 -5.9573085,1.399663 -0.022796,-0.06687 -0.022796,-0.135255 -0.022796,-0.203642 1.2416126,-1.534919 2.5500929,-1.534919 4.3995941,-1.647379 0,-0.06839 0,-0.135255 0,-0.203642 C 8.4033248,88.066137 7.3881508,88.111729 6.1693341,88.382236 6.710355,87.277399 7.8835801,86.66799 8.877478,86.01299 8.178406,85.313918 5.651109,88.201389 5.3578027,88.517491 c -0.5197448,1.03797 -0.857123,1.917889 -1.0835615,3.022727 -0.068388,0 -0.1352552,0.0228 -0.2036427,0.04559 C 3.5736495,90.683094 3.1678838,89.757583 2.8061901,88.788001 2.5812713,85.719683 3.2347516,82.89908 5.0857725,80.44017 c 2.1215314,-2.279582 4.8281556,-3.632135 7.3554525,-5.391972 1.376868,-1.218817 1.466532,-2.72942 1.601787,-4.467982 -0.335858,-3.945197 -1.41942,-7.826566 -1.870777,-11.752007 z"
   id="path4627"
   inkscape:connector-curvature="0"
   style="clip-rule:evenodd;fill:#f3c781;fill-rule:evenodd;stroke-width:1.51972163" />
    <path
   d="m 113.11975,83.151357 c -0.0228,-0.699072 -0.0456,-1.398144 -0.0456,-2.098735 -0.0228,-0.203643 -0.0228,-0.405766 -0.0228,-0.609409 0.85712,0.08966 1.39814,0.813051 2.2112,0.969583 0.18084,-0.180847 0.24771,-0.247715 0.24771,-0.518225 -0.3389,-0.224919 -0.67628,-0.451358 -1.01517,-0.676276 -1.5562,-0.655 -3.97104,-0.224919 -3.97104,1.895092 0.42856,0.428562 1.19602,-1.218816 1.69145,-1.376867 0.0912,0.293306 0.0912,0.293306 0.22644,3.294756 0.42856,1.127634 0.96958,2.188399 1.55772,3.249165 0.47415,0.518225 0.47415,0.518225 0.51822,0.699072 -1.8267,-0.813051 -3.27196,-2.527297 -4.55764,-4.016624 -0.51823,-1.03797 -1.03797,-2.053144 -1.5562,-3.068318 -0.40576,-1.578991 -0.81305,-3.136706 -1.19602,-4.692901 -0.47415,-4.489257 -0.47415,-4.489257 -0.45136,-5.098666 2.23399,-2.23399 5.88892,-3.858573 8.84478,-4.942134 3.54247,-0.655 7.2202,-1.5334 10.85234,-1.5334 0.79025,0 1.60178,0 2.41483,0 1.35407,-0.04559 2.70663,-0.06687 4.0607,-0.08966 0.58661,0 1.19602,0 1.80543,0 2.5045,0.293306 4.94061,0.721868 7.40104,1.331276 2.07594,3.180777 3.92544,6.521126 4.58044,10.311311 -0.0228,1.015174 -0.0456,2.053144 -0.0456,3.091114 -0.99238,4.715696 -4.12908,8.258167 -8.48308,10.423771 -0.83433,0.293306 -1.67018,0.586612 -2.50451,0.902714 -2.12153,0.360174 -4.26433,0.699072 -6.38587,0.969583 -1.44373,0 -2.88747,0 -4.30993,0 -1.28568,-0.180847 -2.86467,-0.361694 -4.12908,-0.676276 -0.74466,-0.361694 -0.74466,-0.361694 -1.73704,-0.676277 -2.79781,-1.717285 -5.70808,-3.499918 -6.00138,-7.063666 z"
   id="path4629"
   inkscape:connector-curvature="0"
   style="clip-rule:evenodd;fill:#f7cac9;fill-rule:evenodd;stroke-width:1.51972163" />
    <path
   d="m 83.065733,53.796414 c 0.541021,0 1.083561,0 1.647378,0 1.872297,0.11246 2.392042,0.813051 2.256787,2.73094 -0.270511,1.173225 -0.270511,1.173225 -0.428562,2.34645 0.563817,1.782634 0.834327,2.256787 2.34645,3.226369 1.80543,0.676277 3.180778,0.946787 3.022727,3.180778 -0.293307,1.015174 -0.857123,2.369246 -0.925511,2.820603 0.338898,1.150429 0.338898,1.150429 0.609409,1.69145 1.30848,1.308481 2.933062,2.279583 3.430011,4.106288 0,1.96348 -0.293306,2.797808 -1.512123,4.354003 -1.466531,1.060765 -2.978654,1.331276 -4.761288,1.466531 -1.285684,-0.270511 -2.458909,-0.767459 -3.588062,-1.489327 -0.474153,-0.135255 -0.948307,-0.270511 -1.42094,-0.38297 -0.721868,0.08966 -1.42094,0.203643 -2.121531,0.316102 -2.053144,0.721868 -3.49688,1.737042 -4.963411,-0.180847 -2.053144,-3.700522 1.196021,-6.746044 3.338828,-9.543852 0.790255,-0.38297 0.744664,-2.34645 0.721868,-3.068318 -0.428562,-1.512123 -1.331276,-2.708144 -1.940685,-4.106288 -0.337378,-3.226369 0.835847,-6.610789 4.288655,-7.467912 z"
   id="path4631"
   inkscape:connector-curvature="0"
   style="clip-rule:evenodd;fill:#933d29;fill-rule:evenodd;stroke-width:1.51972163" />
    <path
   d="m 37.217251,29.044708 c 0.0228,0.04559 0.04559,0.08966 0.06839,0.158051 1.420939,0.474153 2.053143,1.127634 3.045522,2.256787 1.670174,4.03942 -1.849502,6.949687 -3.294757,10.378179 -0.112459,0.451357 -0.226438,0.902715 -0.316102,1.354072 0,3.249165 3.38442,4.896543 5.483156,6.860023 0.721868,1.060766 1.285684,2.07594 1.556195,3.316033 0,0.563817 0,1.150429 0,1.737042 -0.360174,1.895093 -2.188399,2.910267 -3.588063,4.106288 -0.655,0.92551 -1.354072,1.692969 -1.354072,2.866195 0.609408,0.969582 1.533399,1.737041 2.053144,2.775011 1.398144,4.512054 -4.287135,6.136636 -7.084942,8.100117 -0.270511,0.338897 -0.541021,0.699071 -0.790256,1.060765 -0.247714,0.834327 -0.969582,2.211195 -0.405765,3.045522 -0.632204,0 -0.879919,-1.060765 -0.992378,-1.512123 -1.354072,-2.256786 -1.354072,-2.256786 -1.534919,-2.436113 -0.788736,-1.737042 -1.578991,-3.474084 -2.369246,-5.18985 -0.609409,-1.96348 -1.218817,-3.925441 -1.828225,-5.866125 -0.316103,-1.69297 -0.632205,-3.38442 -0.925511,-5.054594 -0.224919,-3.316033 -0.27051,-6.49833 0.338898,-9.770291 0.338898,-1.196021 0.699072,-2.392042 1.060766,-3.565267 2.349489,-5.572819 5.937552,-10.987587 10.878167,-14.619722 z"
   id="path4633"
   inkscape:connector-curvature="0"
   style="clip-rule:evenodd;fill:#933d29;fill-rule:evenodd;stroke-width:1.51972163" />
    <path
   d="m 113.81882,76.426589 c -0.99238,-0.316102 -1.75984,-0.857123 -1.57899,-2.007552 0.85712,-1.398144 4.39959,-4.557645 5.25672,-1.670174 0,1.489327 -0.92551,3.113909 -2.41484,3.609339 -0.42704,0.0228 -0.8556,0.04559 -1.26289,0.06839 z"
   id="path4635"
   inkscape:connector-curvature="0"
   style="clip-rule:evenodd;fill-rule:evenodd;stroke-width:1.51972163" />
    <path
   d="m 113.79754,75.750313 c -2.34645,-1.173225 0.79026,-3.136705 2.27807,-3.271961 0.11246,-0.112459 0.22492,-0.203642 0.33889,-0.293306 1.24162,0.925511 -0.13525,3.226369 -1.35407,3.519675 -0.42856,0 -0.85712,0.0228 -1.26289,0.04559 z"
   id="path4637"
   inkscape:connector-curvature="0"
   style="clip-rule:evenodd;fill:#db9995;fill-rule:evenodd;stroke-width:1.51972163" />
    <path
   d="m 109.80372,74.802007 c -1.17323,-0.586613 0.51974,-3.022727 0.92551,-3.677727 1.15042,-1.060765 1.15042,-1.060765 1.73704,-1.489327 2.05314,-0.632204 4.01662,-0.721868 5.95731,0.428562 -0.0456,0.112459 -0.0684,0.226438 -0.0897,0.361693 -0.18084,0.08966 -0.18084,0.08966 -0.6322,0.08966 -2.91027,-0.969582 -4.3996,-1.150429 -6.58799,1.150429 -0.47416,0.699072 -0.47416,0.699072 -0.83433,1.489327 -0.0927,0.519745 -0.15957,1.241613 -0.47567,1.647379 z"
   id="path4639"
   inkscape:connector-curvature="0"
   style="clip-rule:evenodd;fill-rule:evenodd;stroke-width:1.51972163" />
    <path
   d="m 137.37602,73.651577 c -1.03797,-0.474153 -1.67017,-0.834327 -1.67017,-2.030348 0.76746,-1.398144 1.69297,-1.714246 3.20357,-1.714246 2.66256,0.518225 2.75222,2.639757 0.3617,3.700523 -0.63221,-0.0015 -1.26441,0.02128 -1.8951,0.04407 z"
   id="path4641"
   inkscape:connector-curvature="0"
   style="clip-rule:evenodd;fill-rule:evenodd;stroke-width:1.51972163" />
    <path
   d="m 137.84866,73.042169 c -0.85712,-0.293306 -1.28569,-0.496949 -1.39815,-1.42094 1.35408,-1.534918 2.45891,-1.30848 3.97104,-0.180847 0,1.601787 -1.28569,1.556195 -2.57289,1.601787 z"
   id="path4643"
   inkscape:connector-curvature="0"
   style="clip-rule:evenodd;fill:#db9995;fill-rule:evenodd;stroke-width:1.51972163" />
    <path
   d="m 53.687994,67.627401 c 0,0.65348 0,1.30848 0,1.96348 -0.04559,0.09118 -0.08966,0.180847 -0.135255,0.270511 -1.917889,1.443735 -5.437564,2.007552 -6.679177,-0.496949 0,-1.376868 0.360174,-2.504501 0.586613,-3.858573 0,-1.714246 -0.790255,-2.978655 -1.557715,-4.467982 0.293306,-2.978654 4.287135,-2.708144 6.429942,-2.414838 1.489328,0.609409 2.369246,1.466532 3.068318,2.887471 0,1.647379 -1.150429,2.369246 -1.828225,3.746114 0.02584,1.603307 0.02584,1.603307 0.115499,2.370766 z"
   id="path4645"
   inkscape:connector-curvature="0"
   style="clip-rule:evenodd;fill:#933d29;fill-rule:evenodd;stroke-width:1.51972163" />
    <path
   d="m 141.61757,70.334025 c -1.44374,-1.69145 -2.82061,-2.820603 -5.07739,-2.300858 -0.655,0.428561 -1.26289,0.879918 -1.8495,1.420939 -0.0897,-0.04559 -0.18085,-0.06687 -0.27051,-0.08966 -0.22492,-0.902715 1.28568,-1.557715 1.91788,-1.986276 2.5273,-0.721868 4.30994,0.451357 5.52723,2.61696 -0.0228,0.09118 -0.0456,0.180847 -0.0684,0.293307 -0.0669,0.0015 -0.13525,0.02432 -0.17932,0.04559 z"
   id="path4647"
   inkscape:connector-curvature="0"
   style="clip-rule:evenodd;fill-rule:evenodd;stroke-width:1.51972163" />
    <path
   d="m 136.04475,48.065544 c 0,0.541021 0,1.104838 0,1.670174 0.0456,0.948307 0.0228,1.399664 0.27051,2.256787 0.40576,2.706624 1.21882,5.009002 2.25679,7.580371 0.94678,1.715766 1.89509,3.452808 2.86467,5.18985 -0.13525,0.0228 -0.24771,0.04559 -0.36017,0.06839 -2.57289,-0.405766 -5.12147,-0.813051 -7.73995,-0.971102 0.0912,-0.405766 0.54103,-0.632204 0.83433,-0.902715 0.3389,-0.609408 0.69907,-1.218816 1.06077,-1.805429 0.11246,-0.518225 0.24771,-1.150429 0.45135,-1.647378 0.15806,-2.211195 0.29331,-5.18985 -0.87991,-7.197402 -0.45136,-0.586612 -0.90272,-1.150429 -1.33128,-1.714246 -1.78263,-1.399663 -2.93306,-2.436114 -5.27951,-2.323654 -0.29331,0.135255 -0.29331,0.135255 -1.19602,0.293306 -1.62459,0.721868 -2.36925,1.759838 -3.27196,3.226369 -0.58662,1.218817 -0.58662,1.218817 -0.72187,1.331276 -0.20365,-0.405765 -0.38297,-0.790255 -0.56382,-1.173225 -1.91789,-3.091114 -4.354,-4.603237 -8.03173,-3.294756 -4.78408,2.866195 -6.15943,8.980035 -4.26434,13.943446 1.28569,1.805429 2.45891,2.61696 4.58044,3.068318 -0.0669,0.06839 -0.13525,0.158051 -0.18084,0.247714 -2.72942,1.218817 -5.39198,2.639757 -7.89648,4.309931 -0.0456,-0.09118 -0.0897,-0.158051 -0.13525,-0.226439 -0.38297,-2.72942 -0.83433,-5.302309 -1.08356,-8.031729 -0.51975,-2.708144 -1.12764,-5.391972 -1.75984,-8.07732 -0.0456,-1.03797 -0.38297,-2.233991 -0.94831,-3.091114 -0.0228,-0.09118 -0.0228,-0.180847 -0.0228,-0.247714 0.56381,0.158051 1.12763,0.338897 1.71424,0.519744 2.41484,0 4.10629,-0.721867 5.27952,-2.887471 0.83432,-0.08966 1.69297,-0.180847 2.55009,-0.247714 0,-0.06687 0,-0.11246 0,-0.158051 0.99238,-0.405766 1.75984,-1.196021 2.59416,-1.872297 1.44374,0.474153 2.41484,0.655 3.94824,0.451357 1.17323,-0.518225 1.17323,-0.518225 1.37687,-0.518225 1.48933,0.699072 2.09873,0.721868 3.79018,0.676276 1.69145,-0.428562 1.69145,-0.428562 1.98628,-0.428562 0.51823,0.293307 1.03797,0.586613 1.57899,0.879919 1.71425,0.180847 2.8434,-0.0228 4.33273,-1.015174 0.40576,0 0.79025,0.609409 1.03797,0.879919 1.08356,0.451357 1.96348,0.428562 3.1367,0.496949 0,0.244675 0,0.49239 0.0228,0.741624 z"
   id="path4649"
   inkscape:connector-curvature="0"
   style="clip-rule:evenodd;fill:#f3c781;fill-rule:evenodd;stroke-width:1.51972163" />
    <path
   d="m 41.730824,25.930799 c 0.0228,-0.08966 0.04559,-0.158051 0.08966,-0.226439 2.436114,-1.218817 4.873747,-2.436114 7.378248,-3.496879 3.338829,-1.127634 6.521126,-1.782634 9.99521,-2.323655 1.940684,-0.112459 3.881369,-0.224919 5.822053,-0.316102 0.879919,-0.0228 1.759838,-0.04559 2.639757,-0.04559 0.0228,-0.0228 0.04559,-0.0228 0.06839,-0.0228 1.398144,-0.0228 2.797808,-0.04559 4.218747,-0.04559 2.955859,0.0228 5.776462,0.224919 8.686729,0.609408 10.040801,2.165604 10.040801,2.165604 11.236822,2.481706 0.360174,0.247714 0.902714,0.247714 1.240093,0.586612 -1.466532,-0.224918 -3.588063,1.963481 -4.80536,2.708144 -0.925511,0.360174 -1.849501,0.721868 -2.752216,1.083562 -1.241613,0.563817 -1.285684,0.676276 -1.69145,0.811531 -2.685348,1.647378 -2.955859,3.203573 -3.565267,6.205024 -0.04559,1.015174 -0.08966,2.030348 -0.112459,3.045522 -0.04559,0 -0.08966,0 -0.11246,0 0,0.518225 0,1.03797 0,1.578991 0.0228,0 0.06687,0 0.11246,0 0.06687,2.730939 0.06687,2.730939 0,4.083492 -0.08966,0.08966 -0.08966,0.08966 -0.451358,1.262888 -0.92551,1.512123 -2.053144,2.142808 -3.474083,3.11391 -1.376868,1.737042 -1.127634,3.812981 -1.127634,5.888921 0.203643,1.196021 0.405766,2.392042 0.632204,3.588063 0,2.369246 -0.27051,4.738492 -1.647378,6.723248 -2.887471,2.1884 -5.618411,3.474084 -9.071218,1.624583 -0.925511,-0.721868 -1.691451,-1.556195 -2.436114,-2.45891 -0.676276,-1.264408 -1.331276,-2.527297 -1.984757,-3.76739 -1.106357,-1.106357 -1.106357,-1.106357 -2.188399,-1.986276 -0.879919,-0.518225 -2.053144,-0.676276 -3.045522,-0.948306 -2.437633,-0.316102 -4.106288,-0.316102 -4.715696,-2.978655 0,-2.053143 0,-4.106287 0,-6.159431 -0.135255,-0.474153 -0.270511,-0.948307 -0.38297,-1.42094 -0.902715,-1.42094 -2.279582,-2.45891 -2.933063,-3.993828 -0.158051,-3.294757 1.624583,-6.22782 1.624583,-9.543852 -0.38297,-1.42094 -1.196021,-2.572889 -2.007552,-3.76739 -0.744664,-0.563817 -1.466532,-1.106358 -2.1884,-1.647378 -0.744663,-0.180847 -2.188399,-0.338898 -2.481705,-0.451358 -0.344977,0.182367 -0.344977,0.182367 -0.569896,0.205163 z"
   id="path4651"
   inkscape:connector-curvature="0"
   style="clip-rule:evenodd;fill:#933d29;fill-rule:evenodd;stroke-width:1.51972163" />
    <path
   d="m 115.66984,65.100104 c -6.20502,-0.879919 -6.49833,-6.701973 -4.7157,-11.665383 0.47416,-0.902715 1.03797,-1.714246 1.62459,-2.550093 0.90271,-0.902715 0.90271,-0.902715 0.99238,-1.083562 1.73704,-0.811531 2.55009,-1.03797 4.42239,-0.969582 0,0.06687 0,0.135255 0,0.224919 -2.30086,0.563816 -3.49688,3.317552 -3.63214,5.460359 0.27051,2.550093 1.06077,3.609339 3.40722,4.784084 1.28568,0 2.23399,0.08966 3.22637,-0.790255 0.99237,-1.173225 1.15042,-1.489327 1.30848,-1.556195 -0.13526,1.759838 -0.54103,3.091114 -1.26289,4.6929 -0.45136,0.586613 -0.90272,1.173225 -1.35408,1.759838 -0.6094,0.518225 -0.6094,0.518225 -0.69907,0.721868 -1.10635,0.609408 -2.07746,0.904234 -3.31755,0.971102 z"
   id="path4653"
   inkscape:connector-curvature="0"
   style="clip-rule:evenodd;fill:#ffffff;fill-rule:evenodd;stroke-width:1.51972163" />
    <path
   d="m 119.68646,64.694338 c -0.0912,-0.06839 -0.18084,-0.112459 -0.24771,-0.158051 1.30848,-1.42094 2.25679,-2.775012 2.95586,-4.580441 0.29331,-1.241612 0.29331,-1.241612 0.42856,-1.489327 0.49695,1.218817 1.01517,2.211195 1.78263,3.271961 0.54102,0.496949 1.96348,1.443735 2.16561,2.098735 -2.36925,0.224919 -4.73849,0.518225 -7.08495,0.857123 z"
   id="path4655"
   inkscape:connector-curvature="0"
   style="clip-rule:evenodd;fill:#f3c781;fill-rule:evenodd;stroke-width:1.51972163" />
    <path
   d="m 129.95218,63.837215 c -0.42856,-0.04559 -0.85712,-0.08966 -1.2644,-0.135255 -2.97866,-1.241613 -4.60324,-3.452808 -5.3707,-6.521126 0.0456,0 0.11246,0 0.18085,0.0228 1.39814,1.398144 2.95586,1.849502 4.89654,1.489327 1.26289,-0.767459 2.23399,-1.849501 2.55009,-3.338828 0,-2.053144 0.13526,-3.496879 -1.26289,-5.144258 -0.36169,-0.293306 -1.48932,-0.902714 -1.60178,-1.241612 0.47415,-0.0228 0.9483,-0.04559 1.42094,-0.04559 1.8495,0.451357 3.47408,1.986276 4.60323,3.474084 1.24162,3.045522 1.71425,6.294687 0.20365,9.341729 -0.42856,0.474153 -0.85713,0.969582 -1.28569,1.466531 -1.01669,0.496949 -1.9422,0.541021 -3.06984,0.632204 z"
   id="path4657"
   inkscape:connector-curvature="0"
   style="clip-rule:evenodd;fill:#ffffff;fill-rule:evenodd;stroke-width:1.51972163" />
    <path
   d="m 93.445432,56.864732 c -0.586613,-0.09118 -1.173226,-0.158051 -1.759838,-0.226438 0,-0.902715 2.053144,-2.955859 2.73094,-3.76739 1.489327,-1.262889 4.557645,-3.858573 6.701976,-3.609339 0.2933,0.247715 0.58661,0.496949 0.87991,0.744664 0.13526,0.948306 0.20365,1.714246 -0.13525,2.61696 -0.99238,1.196021 -0.99238,1.196021 -1.895093,2.098736 -1.173225,0.744663 -2.256787,1.354072 -3.565267,1.828225 -1.243132,0.179327 -1.243132,0.179327 -2.957378,0.314582 z"
   id="path4659"
   inkscape:connector-curvature="0"
   style="clip-rule:evenodd;fill:#f7cac9;fill-rule:evenodd;stroke-width:1.51972163" />
    <path
   d="m 91.143053,55.89515 c 0.338898,-3.316033 2.392042,-6.363074 5.347901,-7.942065 1.150429,-0.338898 3.632136,-0.925511 4.060696,0.655 -1.398144,0 -3.182297,1.331276 -4.332726,1.984756 -2.051625,1.556195 -3.474084,3.270441 -5.075871,5.302309 z"
   id="path4661"
   inkscape:connector-curvature="0"
   style="clip-rule:evenodd;fill:#f3c781;fill-rule:evenodd;stroke-width:1.51972163" />
    <path
   d="m 119.39316,55.51066 c -2.79781,-0.676276 -3.22637,-4.445185 -0.29331,-5.279513 2.27958,0.293307 2.72942,1.624583 2.82061,3.700523 -0.60941,1.218816 -1.19754,1.443735 -2.5273,1.57899 z"
   id="path4663"
   inkscape:connector-curvature="0"
   style="clip-rule:evenodd;fill:#ffffff;fill-rule:evenodd;stroke-width:1.51972163" />
    <path
   d="m 125.93556,55.443793 c -4.33273,-1.083562 -1.15043,-6.723249 1.71425,-4.218748 0.92551,1.376868 0.74466,3.474084 -0.96959,4.129084 -0.24771,0.02128 -0.49695,0.04407 -0.74466,0.08966 z"
   id="path4665"
   inkscape:connector-curvature="0"
   style="clip-rule:evenodd;fill:#ffffff;fill-rule:evenodd;stroke-width:1.51972163" />
    <path
   d="m 136.72102,49.419616 c 0,-0.655 0,-1.30848 0,-1.940684 0,-0.04559 0,-0.09118 0.0228,-0.135256 3.40722,0 6.45274,3.361625 8.75512,5.437564 -0.27051,1.127634 -3.43001,0.76746 -4.26434,0.586613 -1.57899,-0.496949 -3.47409,-0.879919 -4.3996,-2.369246 -0.0456,-0.542541 -0.0912,-1.060766 -0.11398,-1.578991 z"
   id="path4667"
   inkscape:connector-curvature="0"
   style="clip-rule:evenodd;fill:#f7cac9;fill-rule:evenodd;stroke-width:1.51972163" />
    <path
   d="m 145.5658,51.832934 c -0.18084,-0.247715 -0.18084,-0.247715 -3.99382,-3.361624 -1.12764,-0.655 -1.64738,-1.03797 -2.48171,-1.466532 -0.54102,-0.158051 -1.08356,-0.293306 -1.60179,-0.428561 -0.0228,-0.06839 -0.0456,-0.112459 -0.0669,-0.158051 3.47408,-1.331276 5.30231,0.247715 7.40104,2.910267 0.38297,0.834327 0.74466,1.624582 0.90272,2.504501 -0.0699,0 -0.11398,0 -0.15958,0 z"
   id="path4669"
   inkscape:connector-curvature="0"
   style="clip-rule:evenodd;fill:#f3c781;fill-rule:evenodd;stroke-width:1.51972163" />
    <path
   d="m 124.13013,45.898421 c 0,-0.04559 0,-0.06839 0,-0.08966 -0.655,0 -1.28568,0 -1.91789,0 0,0.0228 0,0.04559 0,0.08966 -0.60941,-0.203643 -0.60941,-0.203643 -1.48932,-0.655 0.15805,-0.632204 1.21881,-1.670174 0.90271,-2.300858 -0.13526,0 -0.27051,0 -0.38297,0 -0.83433,1.759837 -1.5562,2.392041 -3.45281,2.887471 -0.83432,-0.11246 -1.69297,-0.203643 -2.43611,-0.609409 0,-0.655 0.42856,-1.30848 0.42856,-1.940684 -0.11246,-0.11246 -0.11246,-0.11246 -0.42856,-0.11246 -0.81153,1.917889 -1.62458,3.588063 -3.83578,4.174676 -0.45136,0 -0.90271,0 -1.33127,0 0.0897,-0.518225 1.15042,-2.685348 0.0897,-2.685348 -0.11246,0.609408 -0.22492,1.218816 -0.3161,1.828225 -0.72187,1.285684 -0.99238,1.917888 -1.35408,2.481705 -1.39814,0.902715 -2.45891,1.376868 -4.17467,1.376868 -1.10636,-0.38297 -3.00145,-1.196021 -3.24917,-2.481706 0.49695,0 1.8951,0.361694 2.27959,0.06687 0.99238,-2.392042 1.30848,-4.850951 0.51822,-7.355452 -0.20364,-0.0228 -0.40576,-0.08966 -0.58661,0.02279 0.0228,0.360174 0.0456,0.744664 0.0897,1.127634 -1.01517,-0.04559 -1.87229,-0.180847 -2.73094,-0.721868 0,-1.489327 1.10636,-3.180777 2.00756,-4.331207 1.96348,-1.895092 4.06069,-1.986276 6.63358,-1.556195 1.46653,0.811532 3.22637,2.481706 3.88137,4.039421 0.0897,-0.0228 0.20364,-0.0228 0.3161,-0.0228 0.11246,-0.948307 -1.57899,-2.797808 -2.03035,-3.361625 0,-0.451357 0.45136,-0.857123 0.67628,-1.218816 2.14281,-1.556195 5.07587,-2.392042 7.28858,-0.405766 1.15043,1.42094 1.62459,2.481705 2.09874,4.264339 0.0897,0 0.20364,0 0.3161,0 -0.0456,-1.264408 -0.24771,-2.142808 -0.90271,-3.226369 0,-0.09118 0,-0.180847 0.0228,-0.247715 1.26289,-1.173225 2.05315,-1.127633 3.74612,-1.127633 1.89509,0.655 2.57289,0.721868 3.76739,2.279582 1.21881,2.053144 1.21881,2.053144 1.37686,2.165604 0.47416,-0.226439 -0.24771,-1.443736 -0.38297,-1.782634 0.29331,-1.218817 3.47409,-0.474153 4.15188,-0.405766 1.46654,0.586613 2.32366,1.466532 3.27197,2.708144 0.76745,2.053144 1.75983,5.121462 -0.0456,6.926892 -0.36017,1.083561 -2.1656,1.015174 -3.04552,0.834327 -0.51822,-0.316102 -1.03797,-0.632204 -1.53492,-0.948307 0.22492,-0.857123 1.10484,-1.489327 0.99238,-2.414837 -0.11246,-0.0228 -0.22644,-0.04559 -0.3161,-0.06687 -1.48933,2.256787 -3.02425,3.858573 -5.86613,2.775012 -0.20364,-0.158051 -0.40576,-0.293307 -0.58661,-0.428562 0,-0.586612 0.83433,-1.443735 1.12763,-2.053144 0.0456,-0.27051 0.11246,-0.541021 0.18085,-0.811531 -0.3161,0.0228 -0.3161,0.0228 -0.45136,0.112459 -0.8784,1.711207 -1.39814,2.749177 -3.31603,3.200534 z"
   id="path4671"
   inkscape:connector-curvature="0"
   style="clip-rule:evenodd;fill:#c24629;fill-rule:evenodd;stroke-width:1.51972163" />
    <path
   d="m 101.49996,47.094442 c -2.843403,-0.247715 -6.001384,-1.106357 -7.467916,-3.76739 -0.361694,-1.828225 -0.405766,-4.174675 1.127634,-5.483156 0.247714,0.158052 0.247714,0.158052 1.015174,0.428562 2.279582,2.098736 4.106288,3.971033 7.332658,4.332726 0.0456,-0.04559 0.0897,-0.06839 0.13525,-0.09118 0.56382,0.834327 0.0228,3.700522 -0.56381,4.512054 -0.54102,0.02432 -1.06077,0.04559 -1.57899,0.06839 z"
   id="path4673"
   inkscape:connector-curvature="0"
   style="clip-rule:evenodd;fill:#feeea2;fill-rule:evenodd;stroke-width:1.51972163" />
    <path
   d="m 122.21224,45.898421 c 0,-0.04559 0,-0.06839 0,-0.08966 0.63221,0 1.26441,0 1.91789,0 0,0.0228 0,0.04559 0,0.08966 -0.65348,0 -1.28568,0 -1.91789,0 z"
   id="path4675"
   inkscape:connector-curvature="0"
   style="clip-rule:evenodd;fill:#7e4835;fill-rule:evenodd;stroke-width:1.51972163" />
    <path
   d="m 138.45807,44.273839 c 0.0228,0 0.0684,0 0.11246,0 0,-1.15043 0,-2.300859 0,-3.452808 -0.0456,0 -0.0897,0 -0.11246,0 -0.27051,-0.811531 -0.655,-1.647378 -0.76746,-2.504501 1.51212,-1.106357 1.98627,-2.211195 2.88747,-3.881369 1.82822,-2.144327 3.45281,0.92551 3.85857,2.572889 0,3.294756 -1.73704,6.159431 -4.46798,7.852401 -0.6322,0.180847 -1.26441,0.38297 -1.89509,0.586613 0.11398,-0.428562 0.31762,-0.76594 0.38449,-1.173225 z"
   id="path4677"
   inkscape:connector-curvature="0"
   style="clip-rule:evenodd;fill:#feeea2;fill-rule:evenodd;stroke-width:1.51972163" />
    <path
   d="m 94.753912,23.900451 c 0,-0.04559 0,-0.08966 0,-0.11246 1.376868,0.270511 3.11391,1.150429 4.445186,1.601787 5.098662,2.594165 5.325102,2.775011 6.995282,3.565267 0.0228,0.06839 0.0684,0.135255 0.11246,0.203642 -0.0912,0 -0.18085,0 -0.27051,0 -0.18085,-0.27051 -0.87992,-0.518225 -1.06077,-0.135255 -1.67017,0.08966 -3.04552,0.361694 -4.12908,1.69145 -0.58662,1.556195 -0.58662,1.556195 -0.83433,2.009072 -1.556196,1.556195 -3.180779,2.414838 -5.167055,1.083562 -0.405765,-0.699072 -0.92551,-1.489327 -1.624582,-1.917889 -0.203643,-0.247714 -0.518225,-0.38297 -0.676276,-0.586612 -0.428562,-0.135256 -0.428562,-0.135256 -1.917889,-0.338898 -2.775012,-1.670174 0.857123,-4.557645 2.414838,-5.325105 0.518225,-0.699072 1.714246,-0.676276 2.211195,-1.42094 -0.182367,-0.115498 -0.340418,-0.227958 -0.498469,-0.317621 z"
   id="path4679"
   inkscape:connector-curvature="0"
   style="clip-rule:evenodd;fill:#933d29;fill-rule:evenodd;stroke-width:1.51972163" />
</svg>