<?xml version="1.0" encoding="utf-8"?>
<!-- Generator: Adobe Illustrator 17.0.0, SVG Export Plug-In . SVG Version: 6.00 Build 0)  -->
<!DOCTYPE svg PUBLIC "-//W3C//DTD SVG 1.1//EN" "http://www.w3.org/Graphics/SVG/1.1/DTD/svg11.dtd">
<svg version="1.1" id="Слой_1" xmlns="http://www.w3.org/2000/svg" xmlns:xlink="http://www.w3.org/1999/xlink" x="0px" y="0px"
	 width="3200px" height="400px" viewBox="0 0 3200 400" enable-background="new 0 0 3200 400" xml:space="preserve">
<g>
	<g transform="translate(0.000000,150.000000) scale(0.100000,-0.100000)">
		<path fill="none" stroke="#000000" stroke-width="20" stroke-miterlimit="10" d="M1993.219,1356.037
			c-57.5-5-117.5-27.5-132.5-47.5c-17.5-17.5-52.5-35-80-35c-80,0-560-197.5-607.5-250c-25-27.5-47.5-75-50-107.5
			c-5-30-20-142.5-35-252.5c-17.5-107.5-25-212.5-17.5-230c7.5-20,110-82.5,225-137.5c240-115,235-102.5,135-397.5
			c-62.5-182.5-137.5-615-170-987.5c-15-165-42.5-417.5-62.5-562.5s-37.5-345-42.5-447.5l-7.5-187.5l187.5-30
			c102.5-15,200-32.5,212.5-35c60-15,87.5,5,87.5,60c0,32.5,15,97.5,35,142.5c37.5,95,117.5,462.5,177.5,822.5
			c22.5,130,57.5,300,80,375l40,137.5l47.5-312.5c127.5-875,152.5-1045,162.5-1132.5c7.5-50,22.5-100,35-105
			c35-22.5,457.5,40,477.5,70c27.5,45-5,1485-42.5,1795c-30,245-72.5,422.5-150,630c-27.5,70,27.5,50,60-22.5
			c15-37.5,55-87.5,87.5-112.5c30-22.5,77.5-90,102.5-145c47.5-110,80-120,210-75c62.5,22.5,75,37.5,62.5,77.5
			c-7.5,27.5-60,202.5-112.5,390c-100,342.5-275,750-385,895c-35,45-100,87.5-165,107.5c-60,17.5-135,55-170,80
			c-32.5,25-65,45-75,42.5C2105.719,1366.037,2050.719,1361.037,1993.219,1356.037z"/>
	</g>
</g>
<g>
	<g transform="translate(0.000000,150.000000) scale(0.100000,-0.100000)">
		<path fill="none" stroke="#000000" stroke-width="20" stroke-miterlimit="10" d="M5950.764,1263.052c-30-12.5-62.5-37.5-70-57.5
			c-7.5-17.5-42.5-40-80-47.5s-92.5-37.5-120-62.5c-30-27.5-110-80-180-115s-132.5-75-142.5-87.5c-7.5-15-25-90-40-170
			s-70-307.5-122.5-507.5c-80-300-170-742.5-185-900c-2.5-25,47.5-42.5,172.5-65c197.5-32.5,210-25,212.5,115
			c2.5,47.5,22.5,205,47.5,350c37.5,222.5,47.5,250,62.5,182.5c10-45,7.5-100-5-122.5c-15-30-15-62.5,0-100c17.5-35,15-135-2.5-300
			c-17.5-137.5-45-382.5-62.5-547.5c-20-165-60-440-92.5-610l-57.5-310l72.5-55c112.5-92.5,272.5-122.5,625-125
			c242.5,0,345,10,400,37.5l75,40l-7.5,372.5c-2.5,207.5-17.5,460-30,562.5c-15,102.5-37.5,295-50,425c-15,130-40,275-55,320
			c-27.5,72.5-25,87.5,12.5,107.5c47.5,27.5,57.5,122.5,17.5,162.5c-25,25,40,235,75,235s132.5-465,127.5-617.5
			c-2.5-85,7.5-160,22.5-170c12.5-7.5,87.5,2.5,165,25c122.5,35,137.5,47.5,125,92.5c-35,137.5-115,640-150,935
			c-62.5,517.5-77.5,572.5-185,637.5c-50,32.5-135,95-187.5,140c-50,45-107.5,82.5-127.5,82.5c-17.5,0-52.5,27.5-75,62.5
			C6080.764,1260.552,6020.764,1288.052,5950.764,1263.052z"/>
	</g>
</g>
<g>
	<g transform="translate(0.000000,150.000000) scale(0.100000,-0.100000)">
		<path fill="none" stroke="#000000" stroke-width="20" stroke-miterlimit="10" d="M9470.778,1154.25
			c-24.178-108.799-60.444-195.839-198.257-481.135c-220.017-456.958-442.45-727.747-725.329-882.484l-116.053-62.862
			l-7.253-154.737c-4.836-106.382-24.178-188.586-65.28-265.954c-33.849-62.862-60.444-128.142-60.444-147.484
			c0-19.342-26.595-89.457-60.443-152.319l-62.862-116.053l113.635-103.964c120.889-113.635,575.429-357.829,824.458-442.451
			c159.572-53.191,326.398-43.52,406.185,21.76c53.19,43.52,108.8-12.089,108.8-111.217c0-106.382,111.217-232.105,246.611-282.879
			c149.901-55.609,870.396-253.865,996.119-270.79c103.964-16.924,106.382-14.507,181.333,91.875
			c41.102,60.444,87.039,161.99,101.546,224.852c33.849,140.23,48.355,176.497,140.23,336.069
			c62.862,106.382,67.697,125.724,36.267,159.573c-58.026,62.862-38.685,307.056,50.772,701.152
			c87.04,379.589,186.168,614.112,350.576,822.04l72.533,89.457l-207.928,200.674c-113.635,111.217-222.435,212.763-239.358,222.434
			c-19.343,9.671-135.396,130.559-256.283,265.954c-120.889,135.395-249.03,261.119-285.297,280.461
			c-41.102,24.178-149.901,36.266-316.727,38.684c-140.23,2.418-319.146,16.924-398.932,29.013
			c-79.786,14.507-251.447,33.849-379.589,43.52l-234.523,14.507L9470.778,1154.25z"/>
	</g>
</g>
<g>
	<g transform="translate(0.000000,150.000000) scale(0.100000,-0.100000)">
		<path fill="none" stroke="#000000" stroke-width="20" stroke-miterlimit="10" d="M13976.367,1246.65c-47.5-20-110-57.5-137.5-85
			c-27.5-25-142.5-70-255-97.5c-457.5-117.5-535-192.5-687.5-660c-132.5-407.5-247.5-875-220-902.5c12.5-12.5,15-37.5,7.5-55
			c-22.5-57.5,55-40,117.5,27.5c32.5,35,72.5,62.5,90,62.5s42.5,15,52.5,32.5c45,70,105,100,145,67.5c42.5-35,35-330-30-1100
			c-27.5-332.5-32.5-520-17.5-587.5c25-100,25-100,182.5-125c132.5-20,162.5-35,180-82.5c20-50,37.5-57.5,127.5-50l107.5,7.5
			l7.5,142.5l7.5,145h112.5c62.5,0,150,22.5,202.5,50c127.5,67.5,150,65,212.5-40c47.5-80,62.5-87.5,137.5-80c75,10,82.5,5,82.5-55
			c0-55,17.5-67.5,120-97.5c172.5-47.5,292.5-45,352.5,10c50,42.5,52.5,72.5,52.5,460c0,227.5,7.5,610,17.5,847.5
			c15,417.5,17.5,432.5,65,420c90-22.5,147.5,30,140,122.5c-10,100,10,125,97.5,125c92.5,0,87.5,37.5-100,570l-155,445l-145,87.5
			c-172.5,105-422.5,210-497.5,210c-32.5,0-97.5,45-157.5,112.5c-57.5,62.5-110,112.5-115,112.5
			C14068.867,1284.15,14023.867,1266.65,13976.367,1246.65z"/>
	</g>
</g>
<g>
	<g transform="translate(0.000000,150.000000) scale(0.100000,-0.100000)">
		<path fill="none" stroke="#000000" stroke-width="20" stroke-miterlimit="10" d="M17856.979,1338.999c-110-20-400-147.5-470-205
			c-47.5-40-127.5-87.5-207.5-125c-32.5-15-82.5-105-145-257.5c-52.5-127.5-115-272.5-140-322.5c-42.5-77.5-45-92.5-12.5-125
			s30-55-27.5-195c-105-262.5-235-772.5-257.5-1017.5c-12.5-160-32.5-245-62.5-272.5c-42.5-42.5-57.5-272.5-20-330
			c32.5-52.5,162.5-85,317.5-80l150,5l-7.5-197.5c-5-107.5-20-242.5-35-297.5c-45-182.5-42.5-190,80-227.5
			c62.5-20,137.5-32.5,170-27.5c30,7.5,62.5,2.5,70-10c15-25,265-25,305,0c25,15,42.5,82.5,52.5,207.5c2.5,10,32.5,12.5,72.5,7.5
			c77.5-15,387.5-32.5,562.5-35c107.5-2.5,117.5-7.5,117.5-62.5c0-92.5,65-122.5,250-122.5c195,2.5,342.5,35,415,97.5l67.5,60
			l-35,247.5l-37.5,250l82.5,15c45,7.5,112.5,30,150,50s92.5,37.5,122.5,37.5c27.5,0,77.5,27.5,110,62.5c72.5,77.5,75,230,2.5,290
			c-27.5,22.5-57.5,85-65,137.5c-47.5,265-197.5,807.5-307.5,1097.5c-97.5,260-115,330-90,345c52.5,30,42.5,97.5-37.5,267.5
			c-80,165-165,275-220,275c-17.5,0-37.5,27.5-47.5,60c-7.5,32.5-40,80-70,105c-90,77.5-487.5,265-527.5,250c-20-7.5-42.5-2.5-50,10
			s-30,17.5-50,10c-17.5-7.5-55-2.5-80,7.5C17926.979,1336.499,17884.479,1343.999,17856.979,1338.999z"/>
	</g>
</g>
<g>
	<g transform="translate(0.000000,150.000000) scale(0.100000,-0.100000)">
		<path fill="none" stroke="#000000" stroke-width="20" stroke-miterlimit="10" d="M22520.268,1080.723
			c-217.5-70-747.5-122.5-917.5-87.5c-65,12.5-187.5,40-272.5,62.5s-165,30-175,20c-12.5-12.5-30-77.5-37.5-145
			c-10-70-87.5-277.5-177.5-475c-267.5-582.5-325-735-695-1887.5c-50-157.5-97.5-300-105-317.5c-15-40,47.5-70,387.5-185
			c207.5-72.5,292.5-92.5,307.5-70c12.5,22.5,37.5,22.5,97.5,0c45-15,145-27.5,220-27.5c110,0,152.5-12.5,200-55
			c55-52.5,80-57.5,347.5-52.5c157.5,2.5,300,15,315,27.5c50,40,162.5,55,222.5,32.5c70-27.5,610,27.5,687.5,67.5
			c30,17.5,135,35,237.5,45c165,12.5,595,150,687.5,217.5c37.5,27.5,30,50-337.5,905c-165,385-375,880-465,1100
			c-92.5,220-195,462.5-230,540c-32.5,77.5-60,170-60,205c0,72.5-22.5,142.5-47.5,140
			C22702.768,1140.723,22617.768,1113.223,22520.268,1080.723z"/>
	</g>
</g>
<g>
	<g transform="translate(0.000000,150.000000) scale(0.100000,-0.100000)">
		<path fill="none" stroke="#000000" stroke-width="20" stroke-miterlimit="10" d="M25656.32,1354.705
			c-137.5-25-162.5-57.5-180-252.5c-15-150-10-190,35-287.5c57.5-115,152.5-200,197.5-175c37.5,22.5,62.5-195,30-255
			c-90-170-172.5-722.5-227.5-1550c-25-410-55-822.5-62.5-920l-15-180l70-12.5c37.5-7.5,120-32.5,180-55
			c162.5-60,817.5-42.5,865,22.5c17.5,22.5,47.5,37.5,65,35c45-10,45,157.5,2.5,980c-55,1057.5-95,1357.5-230,1680
			c-57.5,135-42.5,202.5,75,337.5c130,147.5,155,220,137.5,390c-20,182.5-42.5,212.5-187.5,245c-90,20-115,17.5-155-20
			c-62.5-57.5-322.5-57.5-432.5-2.5C25773.82,1357.205,25718.82,1364.705,25656.32,1354.705z"/>
	</g>
</g>
<g>
	<g transform="translate(0.000000,150.000000) scale(0.100000,-0.100000)">
		<path fill="none" stroke="#000000" stroke-width="20" stroke-miterlimit="10" d="M29437.047,1168.75c-20-37.5-35-82.5-35-100
			c2.5-35,182.5-180,300-245c90-47.5,162.5-140,222.5-280c45-107.5,45-110-12.5-290c-37.5-110-70-300-85-475
			c-22.5-270-172.5-987.5-300-1447.5c-27.5-100-50-205-50-235c0-75,125-297.5,167.5-297.5c17.5,0,40-17.5,47.5-37.5
			c10-20,30-37.5,47.5-37.5c15,0,177.5,147.5,357.5,330l330,330v165c0,247.5-70,1215-102.5,1412.5c-17.5,95-45,217.5-62.5,272.5
			c-37.5,102.5-42.5,222.5-20,370c12.5,70,32.5,97.5,82.5,115c90,32.5,442.5,325,432.5,362.5c-2.5,17.5-17.5,57.5-32.5,92.5
			l-22.5,62.5h-615h-615L29437.047,1168.75z"/>
	</g>
</g>
</svg>
