<svg xmlns="http://www.w3.org/2000/svg" width="460" height="500" viewBox="0 0 460 500" version="1.1">
	<path d="M 215.500 6.568 C 199 7.283, 158.950 8.796, 126.500 9.930 C 16.903 13.758, 4.502 14.274, 3.642 15.046 C 3.170 15.469, 2.553 18.694, 2.271 22.213 C 1.791 28.190, 1.920 28.718, 4.233 30.233 L 6.708 31.855 7.247 184.177 L 7.786 336.500 10.383 342 C 12.980 347.498, 12.980 347.510, 12.990 374.602 L 13 401.704 31.600 430.102 C 41.830 445.721, 52.180 461.334, 54.600 464.798 C 57.020 468.262, 59 471.728, 59 472.501 C 59 473.274, 61.626 477.994, 64.835 482.990 C 72.249 494.533, 74.484 495.885, 84.357 494.797 C 88.286 494.363, 109.214 492.418, 130.864 490.473 C 205.119 483.803, 264.812 475.968, 350 461.713 L 363.500 459.454 365.163 454.468 C 367.471 447.551, 368.647 437.847, 370.071 414 L 371.295 393.500 377.541 377.500 C 380.976 368.700, 388.294 350.025, 393.803 336 C 399.313 321.975, 408.546 298.350, 414.322 283.500 C 441.517 213.581, 445.233 204.173, 447.497 199.500 C 449.978 194.381, 454.959 178.201, 455.181 174.539 C 455.249 173.418, 453.830 169.463, 452.026 165.750 C 448.250 157.975, 449.701 158.380, 431.388 160.001 C 421.778 160.852, 419.833 160.763, 416.996 159.348 C 414.159 157.933, 411.337 157.805, 396.108 158.401 C 386.424 158.780, 376.780 159.357, 374.679 159.684 L 370.857 160.278 371.398 156.889 C 371.696 155.025, 372.421 138.425, 373.009 120 C 374.357 77.762, 374.329 78.005, 377.811 77.985 C 383.288 77.953, 383.515 77.014, 380.379 67.361 L 377.500 58.500 357.500 48.313 C 346.500 42.710, 322.146 30.672, 303.381 21.563 L 269.262 5 257.381 5.134 C 250.846 5.207, 232 5.853, 215.500 6.568" fill="none" stroke="#000" stroke-width="2px" fill-rule="evenodd"/>
</svg>
