<svg xmlns="http://www.w3.org/2000/svg" width="500" height="414" viewBox="0 0 500 414" version="1.1">
	<path d="M 4.672 2.661 C 4.309 3.024, 4.009 93.968, 4.005 204.758 C 4.001 315.548, 3.745 406.604, 3.435 407.106 C 3.125 407.607, 3.160 408.928, 3.513 410.040 L 4.155 412.063 248.327 411.930 C 430.464 411.831, 492.866 411.505, 493.942 410.648 C 495.087 409.736, 495.210 409.789, 494.537 410.905 C 494.014 411.773, 494.069 412.075, 494.681 411.697 C 495.748 411.038, 497.391 8.210, 496.343 4.205 C 495.614 1.415, 494.741 1.409, 493.487 4.185 C 492.944 5.387, 491.825 6.578, 491 6.831 C 489.819 7.194, 489.873 6.871, 491.252 5.315 C 492.216 4.227, 492.703 3.037, 492.336 2.669 C 491.466 1.799, 5.542 1.792, 4.672 2.661 M 489.079 15.583 C 489.127 16.748, 489.364 16.985, 489.683 16.188 C 489.972 15.466, 489.936 14.603, 489.604 14.271 C 489.272 13.939, 489.036 14.529, 489.079 15.583 M 296.583 375.866 C 296.152 376.563, 296.070 377.403, 296.400 377.733 C 297.295 378.628, 298.271 377.312, 297.787 375.862 C 297.449 374.846, 297.213 374.846, 296.583 375.866 M 213 388.500 C 213 389.325, 213.450 390, 214 390 C 214.550 390, 215 389.325, 215 388.500 C 215 387.675, 214.550 387, 214 387 C 213.450 387, 213 387.675, 213 388.500 M 312 389 C 312 389.550, 312.450 390, 313 390 C 313.550 390, 314 389.550, 314 389 C 314 388.450, 313.550 388, 313 388 C 312.450 388, 312 388.450, 312 389" fill="none" stroke="#000" stroke-width="2px" fill-rule="evenodd"/>
</svg>
