<svg xmlns="http://www.w3.org/2000/svg" width="335" height="500" viewBox="0 0 335 500" version="1.1">
	<path d="M 139.206 4.669 C 134.607 6.936, 128.979 13.648, 124.943 21.681 C 123.059 25.431, 120.061 30.434, 118.281 32.797 C 109.646 44.263, 102.431 61.512, 96.166 85.669 L 92.319 100.500 73.410 103.652 C 63.009 105.386, 53.093 107.036, 51.373 107.319 C 48.776 107.747, 48.059 107.424, 47.144 105.417 C 45.613 102.056, 43.994 102.373, 38.641 107.085 C 34.437 110.785, 34 111.586, 34 115.585 C 34 118.991, 34.371 120, 35.622 120 C 39.260 120, 34.467 122.961, 20.242 129.504 C 12.134 133.233, 4.871 136.865, 4.103 137.575 C 2.918 138.670, 3.174 139.597, 5.789 143.683 C 10.775 151.473, 14.782 161.211, 21.985 183.048 C 25.713 194.349, 31.998 210.674, 35.952 219.325 C 40.491 229.258, 43.654 237.715, 44.536 242.277 C 46.475 252.306, 49.971 313.604, 50.965 355 C 51.420 373.975, 52.229 390.625, 52.762 392 C 54.854 397.392, 48.534 409.164, 38 419.500 C 27.274 430.024, 24.610 435.097, 24.607 445 C 24.605 454.399, 26.631 458.605, 34.762 466.082 C 46.987 477.321, 72.888 487.189, 102 491.697 C 118.135 494.196, 164.997 494.181, 183 491.671 C 214.869 487.227, 240.068 477.870, 253.918 465.336 C 261.897 458.116, 264.391 452.226, 263.782 442.044 C 263.241 432.995, 261.081 428.340, 254.479 422 C 249.273 417, 238.979 403.794, 236.399 398.804 C 235.015 396.128, 234.914 394.803, 235.809 391.039 C 236.402 388.542, 237.167 372.100, 237.509 354.500 C 238.665 295.012, 243.169 233.072, 250.017 182.500 C 253.431 157.282, 253.396 157.396, 258.450 155.466 C 262.565 153.895, 263.004 153.908, 267.142 155.739 C 273.360 158.489, 277.580 163.772, 279.935 171.753 C 281.107 175.725, 283.598 193.100, 285.991 214 C 288.227 233.525, 291.201 255.558, 292.600 262.963 C 298.197 292.585, 311.540 323.591, 319.556 325.603 C 323.275 326.537, 327.497 322.162, 329.179 315.631 C 331.229 307.670, 330.873 258.505, 328.631 240 C 325.468 213.886, 321.670 193.968, 315.759 172.500 C 314.094 166.450, 312.291 159.700, 311.754 157.500 C 309.172 146.933, 299.065 120.870, 291.975 106.500 C 282.951 88.208, 278.257 81.515, 272.052 78.088 C 267.752 75.714, 267.523 75.695, 257.093 76.898 C 251.267 77.569, 235.294 79.688, 221.597 81.606 C 207.900 83.524, 196.372 84.735, 195.978 84.297 C 195.584 83.859, 194.235 79.225, 192.981 74 C 190.192 62.384, 183.814 43.550, 180.323 36.623 C 172.700 21.498, 160.906 8.605, 151.459 5.071 C 144.844 2.596, 143.502 2.552, 139.206 4.669" fill="none" stroke="#000" stroke-width="2px" fill-rule="evenodd"/>
</svg>
