<svg xmlns="http://www.w3.org/2000/svg" width="352" height="500" viewBox="0 0 352 500" version="1.1">
	<path d="M 150.500 5.010 C 103.342 7.691, 66.581 14.843, 53.500 23.881 L 49.500 26.645 49.785 35.573 C 50.265 50.570, 51.292 53.878, 57.283 59.726 C 64.805 67.069, 76.543 75.129, 85.357 79.002 C 89.560 80.850, 93 82.741, 93 83.205 C 93 83.670, 91.836 84.492, 90.413 85.033 L 87.826 86.017 88.421 97.758 C 88.956 108.318, 89.397 120.983, 91.556 187.892 L 92.182 207.283 84.341 198.562 C 80.028 193.766, 74.830 188.977, 72.790 187.921 C 68.303 185.598, 60.888 185.423, 55 187.500 C 52.662 188.325, 48.797 189, 46.412 189 C 39.075 189, 31.190 192.650, 24.868 198.972 C 15.574 208.266, 10.438 220.704, 7.414 241.238 C 5.368 255.140, 6.037 266.278, 9.547 276.734 C 13.379 288.150, 17.533 293.444, 29 301.524 C 33.690 304.829, 35.236 305.388, 39.500 305.318 C 42.250 305.273, 46.975 304.247, 50 303.038 C 53.025 301.830, 58.926 300.463, 63.114 300.002 C 68.589 299.399, 72.801 298.157, 78.110 295.582 C 90.518 289.562, 92.443 291.252, 83.250 300.092 C 75.419 307.622, 69.512 312.175, 63.115 315.609 C 60.154 317.199, 56.329 319.266, 54.615 320.202 C 52.902 321.138, 50.722 321.926, 49.771 321.952 C 48.162 321.997, 48.078 323.960, 48.551 350.250 C 48.831 365.788, 49.184 398.820, 49.336 423.656 L 49.613 468.811 51.911 472.156 C 56.445 478.752, 58.344 479.512, 69.994 479.394 L 80.489 479.289 83.844 482.644 L 87.200 486 97.600 486 C 106.667 486, 108.256 485.744, 110 484 C 113.285 480.715, 122.308 481.228, 127.900 485.018 L 132.301 488 147.400 488.009 C 167.664 488.020, 172.341 488.654, 175.755 491.850 C 178.954 494.845, 187.648 496.220, 197.500 495.288 C 202.571 494.808, 204.029 494.200, 206.917 491.360 L 210.333 488 232.917 487.942 C 245.337 487.911, 260.675 487.474, 267 486.973 C 273.325 486.471, 286.150 485.770, 295.500 485.415 C 308.515 484.920, 313.438 484.353, 316.500 482.999 C 318.700 482.025, 323.027 480.499, 326.115 479.606 C 336.846 476.504, 341.900 471.293, 343.852 461.314 C 345.059 455.145, 345.725 463.579, 331.530 305.250 C 324.361 225.304, 323.801 219.533, 323.134 218.866 C 322.785 218.518, 314.400 217.070, 304.500 215.649 C 294.600 214.228, 272.775 210.943, 256 208.350 C 214.942 202.002, 198.822 201.693, 168.793 206.680 C 163.394 207.577, 158.812 208.128, 158.609 207.905 C 158.286 207.549, 159.350 173.271, 161.574 112.413 L 162.271 93.327 195.886 93.342 C 235.580 93.359, 256.051 91.979, 276.500 87.907 C 300.871 83.054, 315.298 77.872, 324.075 70.820 C 329.170 66.726, 330.905 63.480, 330.263 59.241 C 329.992 57.448, 330.215 55.423, 330.759 54.741 C 331.303 54.058, 332.060 49.789, 332.442 45.253 L 333.137 37.006 327.569 31.439 C 318.209 22.078, 301.251 15.369, 276.197 11.114 C 248.059 6.335, 182.875 3.170, 150.500 5.010" fill="none" stroke="#000" stroke-width="2px" fill-rule="evenodd"/>
</svg>
