<svg xmlns="http://www.w3.org/2000/svg" width="500" height="285" viewBox="0 0 500 285" version="1.1">
	<path d="M 106 3.578 C 60.625 5.424, 19.120 6.873, 13.766 6.798 C -0.820 6.593, -0.422 5.947, 0.391 28.500 C 1.329 54.539, 3.792 152.415, 4.588 195.240 C 5.054 220.328, 5.624 232.251, 6.385 232.837 C 6.998 233.309, 20.550 235.373, 36.500 237.424 C 89.434 244.230, 166.289 254.815, 273.886 270.119 L 380.273 285.250 386.886 281.979 C 390.524 280.180, 394.850 278.034, 396.500 277.211 C 398.150 276.388, 409.175 270.182, 421 263.420 C 432.825 256.658, 454.200 244.894, 468.500 237.279 L 494.500 223.432 495.181 198.466 C 495.555 184.735, 496.358 149.200, 496.965 119.500 C 498.443 47.159, 499.342 20.345, 500.084 26.500 C 500.517 30.098, 500.730 28.377, 500.843 20.361 C 500.977 10.871, 500.727 8.884, 499.154 6.942 L 497.308 4.662 449.404 3.905 C 423.057 3.488, 362.350 2.670, 314.500 2.086 C 266.650 1.502, 218.725 0.844, 208 0.623 C 195.851 0.374, 157.400 1.488, 106 3.578 M 0.378 21 C 0.378 27.325, 0.541 29.912, 0.739 26.750 C 0.937 23.587, 0.937 18.412, 0.739 15.250 C 0.541 12.087, 0.378 14.675, 0.378 21" fill="none" stroke="#000" stroke-width="2px" fill-rule="evenodd"/>
</svg>
