<svg xmlns="http://www.w3.org/2000/svg" width="500" height="386" viewBox="0 0 500 386" version="1.1">
	<path d="M 317.500 8.994 C 300.226 11.951, 286.521 16.487, 267.870 25.420 C 243.200 37.236, 218.574 53.737, 194.897 74.318 C 178.693 88.402, 168.168 105.030, 167.233 118.020 C 166.774 124.410, 166.866 124.712, 171.882 133.204 C 174.697 137.970, 177 142.583, 177 143.456 C 177 144.329, 175.802 146.854, 174.337 149.067 C 171.748 152.979, 171.719 153.188, 173.300 156.502 C 174.194 158.377, 176.436 161.619, 178.283 163.706 C 183.795 169.935, 187 174.586, 187 176.353 C 187 177.849, 118.382 246.765, 111.514 252.168 L 108.684 254.394 102.952 251.219 C 94.122 246.327, 95.610 245.294, 60.108 280.978 C 38.784 302.411, 20.994 322.008, 17.542 327.868 C 17.099 328.620, 16.374 330.842, 15.931 332.804 C 15.241 335.865, 15.521 336.879, 17.897 339.936 C 19.421 341.896, 20.957 344.298, 21.311 345.273 C 21.665 346.248, 22.752 347.339, 23.727 347.699 C 26.593 348.755, 39.903 361.025, 41.265 363.867 C 41.953 365.302, 43.402 366.646, 44.486 366.855 C 45.570 367.064, 48.942 369.122, 51.978 371.429 C 68.171 383.729, 69.914 383.459, 91.332 365.350 C 98.390 359.382, 107.390 351.859, 111.332 348.630 C 115.274 345.402, 125.285 336.311, 133.577 328.428 C 149.881 312.930, 151 311.186, 151 301.275 C 151 295.886, 146.967 286.828, 142.393 281.945 C 141.077 280.540, 140 278.950, 140 278.412 C 140 277.352, 216.412 202, 217.487 202 C 219.918 202, 229.995 210.821, 245.500 226.522 C 284.506 266.022, 323.137 295.625, 353.404 309.211 C 390.985 326.079, 401.712 328.100, 413.498 320.533 C 426.554 312.150, 447.972 280.473, 455.830 257.925 C 458.211 251.091, 461.344 242.800, 462.791 239.500 C 466.302 231.494, 476.715 215.671, 482.452 209.624 C 493.616 197.856, 492.622 189.512, 475.763 153.500 C 462.203 124.534, 454.888 111.286, 441.251 91 C 422.022 62.396, 422.963 63.427, 409.847 56.578 C 396.803 49.766, 381.736 39.889, 379.483 36.673 C 377.143 33.332, 377.703 28.611, 381.083 23.173 C 384.689 17.373, 384.592 14.513, 380.692 11.612 L 377.884 9.523 373.994 11.761 C 369.188 14.527, 368.443 14.531, 362.377 11.822 C 357.782 9.769, 350.006 8.555, 335 7.548 C 331.152 7.289, 324.012 7.880, 317.500 8.994 M 364.149 89.696 C 356.697 93.368, 352.521 105.778, 354.886 117.226 C 357.053 127.716, 364.263 143.759, 372.539 156.500 C 381.241 169.899, 399.726 190.502, 408.413 196.484 C 413.413 199.928, 414.643 200.336, 419.622 200.205 C 426.551 200.023, 430.542 197.813, 434.451 191.993 C 437.025 188.159, 437.453 186.502, 437.792 179.048 L 438.181 170.500 432.004 158.500 C 416.880 129.119, 397.596 105.929, 376.636 91.919 C 370.085 87.541, 368.938 87.337, 364.149 89.696 M 185.961 192.320 C 181.307 196.805, 164.170 213.601, 147.878 229.644 L 118.256 258.815 120.378 260.851 C 121.545 261.971, 124.655 264.787, 127.290 267.108 L 132.080 271.328 136.140 267.414 C 138.372 265.261, 141.648 262.150, 143.418 260.500 C 145.188 258.850, 160.689 243.557, 177.864 226.516 L 209.091 195.532 204.295 191.250 C 195.086 183.027, 195.637 182.995, 185.961 192.320 M 78 243.728 C 74.543 245.042, 60.425 257.841, 50.335 268.808 C 21.426 300.229, 10.507 313.781, 9.417 319.591 C 8.659 323.632, 9.624 329.649, 11.185 330.614 C 11.946 331.084, 12.081 330.458, 11.617 328.612 C 9.675 320.872, 14.780 313.519, 47.591 276.794 C 53.141 270.583, 61.691 261.406, 66.591 256.402 C 76.296 246.491, 81.033 244.122, 88.752 245.321 C 92.399 245.888, 92.433 245.865, 90 244.487 C 87.503 243.072, 80.835 242.651, 78 243.728 M 94.487 258.381 C 88.995 262.105, 52.380 298.879, 36.121 317 C 26.226 328.028, 22 334.151, 22 337.460 C 22 338.307, 22.399 339, 22.886 339 C 24.316 339, 32.983 330.166, 40.517 321.032 C 44.357 316.374, 49.558 310.299, 52.074 307.532 C 54.590 304.764, 59.722 298.900, 63.478 294.500 C 83.229 271.366, 96.418 259.077, 103.250 257.442 C 107.033 256.536, 106.710 255, 102.737 255 C 100.679 255, 97.631 256.249, 94.487 258.381 M 118.547 276.860 C 116.112 284.188, 111.153 289.777, 86.381 313.107 C 56.889 340.882, 50.412 346.654, 44.250 350.654 C 38.586 354.330, 38.101 355.349, 40.667 358.185 C 42.259 359.943, 43.654 358.720, 71.417 331.231 C 87.413 315.393, 105.787 297.300, 112.250 291.023 C 118.713 284.746, 123.990 278.911, 123.978 278.055 C 123.966 277.200, 123.124 275.419, 122.109 274.098 L 120.262 271.696 118.547 276.860 M 105.400 277.870 C 98.405 283.017, 56.669 327.507, 57.237 329.211 C 57.799 330.898, 102.726 287.997, 108.144 280.600 C 112.779 274.271, 111.721 273.219, 105.400 277.870 M 133.250 283.959 C 130.711 286.325, 129 288.815, 129 290.144 C 129 294.901, 124.718 301.064, 115.674 309.324 C 101.527 322.244, 60.922 356.970, 57 359.501 C 55.075 360.744, 52.420 362.928, 51.100 364.354 C 48.972 366.654, 48.891 367.021, 50.381 367.593 C 53.172 368.664, 58.216 367.139, 63.500 363.628 C 69.084 359.918, 113.979 319.762, 129.702 304.414 C 139.370 294.977, 139.889 294.257, 140.497 289.444 C 141.008 285.386, 140.776 283.954, 139.317 282.193 L 137.500 279.998 133.250 283.959 M 145.378 295.500 C 143.554 300.323, 137.606 308.213, 132.436 312.669 C 121.669 321.948, 98.495 342.556, 91.019 349.500 C 75.119 364.270, 66.589 371.065, 61.538 372.986 C 60.142 373.516, 59 374.412, 59 374.975 C 59 376.882, 67.428 376.015, 72.500 373.586 C 81.342 369.352, 139.935 318.019, 143.823 311.100 C 146.543 306.262, 148.337 297.422, 147.060 295.149 C 146.231 293.672, 146.056 293.708, 145.378 295.500" fill="none" stroke="#000" stroke-width="2px" fill-rule="evenodd"/>
</svg>
