<svg xmlns="http://www.w3.org/2000/svg" width="500" height="514" viewBox="0 0 500 514" version="1.1">
	<path d="M 315.827 7.578 C 312.368 8.642, 310.592 9.924, 308.995 12.508 C 307.808 14.429, 306.086 16.032, 305.168 16.070 C 303.835 16.126, 303.901 16.313, 305.500 17 C 307.408 17.820, 307.397 17.863, 305.250 17.930 C 304.012 17.968, 303 17.563, 303 17.029 C 303 15.965, 299.192 16.332, 286 18.668 C 281.325 19.495, 274.575 20.380, 271 20.634 C 264.480 21.097, 255.415 22.107, 240.500 24.031 C 213.022 27.578, 172.302 38.883, 147 49.989 C 130.911 57.052, 110.934 69.124, 109.605 72.587 C 109.275 73.446, 108.500 73.809, 107.853 73.409 C 107.175 72.990, 106.959 73.125, 107.334 73.732 C 108.120 75.003, 105.456 77.400, 104.154 76.595 C 102.752 75.729, 87.284 89.680, 80.893 97.574 C 71.994 108.568, 64.568 118.994, 58.449 129.083 C 50.517 142.165, 38.562 164.446, 35.959 171 C 30.190 185.524, 21.776 211.003, 19.346 221.309 C 17.917 227.368, 17.031 230.859, 16 234.500 C 14.570 239.551, 9.343 268.511, 7.640 280.820 C 6.122 291.793, 6.279 297.108, 8.434 307.689 C 10.485 317.765, 10.870 319.766, 11.573 324 C 16.637 354.496, 29.022 391.126, 45.140 423.279 C 60.944 454.807, 71.648 467.718, 90.608 478.124 C 94.671 480.354, 99.009 483.512, 100.248 485.142 C 106.276 493.074, 109.709 496.224, 115.358 499.003 C 124.908 503.703, 136.194 504.881, 139.022 501.474 C 139.824 500.507, 140.931 500.418, 143.302 501.128 C 150.946 503.420, 173.888 506.117, 190.500 506.678 C 229.475 507.993, 268.856 501.854, 309 488.208 C 327.178 482.028, 332.349 479.847, 353.766 469.331 C 373.223 459.777, 386.761 451.225, 405 436.965 C 430.202 417.261, 439.539 404.771, 454.313 371 C 460.182 357.584, 469.263 334.347, 473.658 321.500 C 477.901 309.098, 486.274 276.559, 488.325 264.500 C 489.167 259.550, 490.321 254.278, 490.890 252.785 C 491.493 251.202, 491.548 249.838, 491.022 249.513 C 490.496 249.188, 490.557 247.701, 491.168 245.947 C 491.745 244.292, 491.991 242.074, 491.715 241.017 C 491.438 239.960, 491.577 238.962, 492.022 238.798 C 493.597 238.218, 495.283 210.691, 494.642 196 C 493.461 168.899, 487.513 143.214, 474.854 110.557 C 472.060 103.346, 470.995 99.086, 470.982 95.057 C 470.957 87.462, 468.433 70.509, 466.489 64.867 C 464.586 59.346, 459.173 52.717, 455.290 51.150 C 453.756 50.531, 445.075 48.425, 436 46.469 C 425.875 44.288, 415.250 41.230, 408.500 38.556 C 402.450 36.158, 392.441 32.745, 386.257 30.971 C 379.236 28.956, 373.979 26.830, 372.257 25.309 C 368.448 21.944, 359.196 17.326, 353.364 15.880 C 350.009 15.048, 347.569 13.619, 345.500 11.274 C 343.584 9.103, 341.055 7.545, 338.500 6.961 C 332.622 5.619, 321.180 5.930, 315.827 7.578 M 299.676 33.018 C 295.923 35.208, 292.436 37, 291.926 37 C 291.417 37, 291 37.399, 291 37.886 C 291 38.374, 288.975 39.077, 286.500 39.448 C 282.301 40.077, 280.088 42, 283.562 42 C 285.633 42, 295.363 38.842, 296 37.964 C 296.275 37.584, 299.315 35.815, 302.755 34.033 C 306.196 32.250, 309.260 30.389, 309.564 29.896 C 310.865 27.791, 306.002 29.326, 299.676 33.018 M 369 29.378 C 369 29.585, 369.788 30.373, 370.750 31.128 C 372.336 32.371, 372.371 32.336, 371.128 30.750 C 369.821 29.084, 369 28.555, 369 29.378 M 249 49.539 C 249 49.909, 250.125 51.097, 251.500 52.179 C 254.737 54.725, 254.663 56.576, 251.250 58.428 C 249.347 59.460, 249.028 59.932, 250.215 59.960 C 251.158 59.982, 252.395 60.870, 252.965 61.934 C 254.347 64.517, 254.291 64.781, 252.250 65.287 C 250.914 65.618, 251.210 65.993, 253.500 66.871 C 256.608 68.063, 258.675 68.026, 258.262 66.786 C 258.131 66.393, 258.597 66.292, 259.297 66.561 C 259.997 66.829, 261.454 66.225, 262.535 65.218 C 263.616 64.212, 264.875 63.338, 265.333 63.277 C 267.009 63.055, 267.284 62, 265.667 62 C 264.750 62, 263.955 61.438, 263.900 60.750 C 263.845 60.063, 263.440 60.625, 263 62 C 262.333 64.084, 262.180 64.167, 262.084 62.500 C 262.021 61.400, 261.539 59.825, 261.013 59 C 260.362 57.979, 260.252 58.776, 260.670 61.500 C 261.007 63.700, 260.959 65.202, 260.563 64.838 C 259.369 63.741, 259.131 58.586, 260.213 57.263 C 260.769 56.582, 260.924 55.245, 260.558 54.291 C 259.989 52.807, 259.758 52.769, 258.962 54.028 C 258.183 55.259, 258.028 55.209, 258.015 53.725 C 258.007 52.749, 256.988 51.572, 255.750 51.109 C 251.128 49.380, 249 48.885, 249 49.539 M 246.976 61.115 C 248.958 61.906, 249.163 62.281, 248.005 62.997 C 247.209 63.489, 246.853 64.187, 247.214 64.548 C 247.575 64.909, 248.900 64.483, 250.158 63.602 C 251.416 62.721, 252.120 61.944, 251.723 61.875 C 251.325 61.806, 250.588 61.694, 250.083 61.625 C 249.579 61.556, 248.829 61.163, 248.417 60.750 C 248.004 60.337, 246.954 60.029, 246.083 60.063 C 245.164 60.100, 245.539 60.541, 246.976 61.115 M 348.653 62.750 C 348.397 63.163, 350.508 63.371, 353.344 63.214 C 362.539 62.705, 363.658 62.303, 356.309 62.150 C 352.354 62.067, 348.909 62.337, 348.653 62.750 M 366.750 63.662 C 367.438 63.940, 368.563 63.940, 369.250 63.662 C 369.938 63.385, 369.375 63.158, 368 63.158 C 366.625 63.158, 366.063 63.385, 366.750 63.662 M 339.500 68 L 336.500 68.763 339.191 68.882 C 340.671 68.947, 342.160 68.550, 342.500 68 C 342.840 67.450, 342.979 67.053, 342.809 67.118 C 342.639 67.183, 341.150 67.580, 339.500 68 M 458.015 69.443 C 461.742 74.318, 466.967 79.357, 466.886 78 C 466.837 77.175, 464.486 74.475, 461.663 72 C 458.839 69.525, 457.198 68.374, 458.015 69.443 M 308.937 70.883 C 309.521 71.973, 310.932 73.161, 312.074 73.524 C 315.406 74.581, 315.124 73.652, 311.367 71.189 C 308.130 69.067, 307.954 69.045, 308.937 70.883 M 325.813 71.683 C 326.534 71.972, 327.397 71.936, 327.729 71.604 C 328.061 71.272, 327.471 71.036, 326.417 71.079 C 325.252 71.127, 325.015 71.364, 325.813 71.683 M 319.500 73 C 319.160 73.550, 319.359 74, 319.941 74 C 320.523 74, 321 73.550, 321 73 C 321 72.450, 320.802 72, 320.559 72 C 320.316 72, 319.840 72.450, 319.500 73 M 150.091 79.923 C 149.316 80.413, 148.150 80.611, 147.501 80.362 C 146.852 80.113, 145.743 80.604, 145.038 81.454 C 144.332 82.305, 143.248 82.993, 142.628 82.985 C 142.007 82.976, 142.175 82.533, 143 82 C 144.305 81.157, 144.288 81.029, 142.872 81.015 C 141.977 81.007, 140.518 82.013, 139.631 83.250 C 138.743 84.487, 138.126 85.050, 138.259 84.500 C 138.516 83.433, 137.768 82.991, 135.750 83.015 C 134.905 83.026, 134.986 83.369, 136 84.076 C 137.108 84.848, 136.619 84.947, 134.125 84.454 C 131.609 83.956, 130.941 84.095, 131.500 85 C 132.039 85.872, 131.651 86.024, 130.125 85.540 C 128.951 85.167, 128 85.301, 128 85.839 C 128 86.375, 127.167 86.595, 126.149 86.329 C 125.131 86.063, 123.669 86.467, 122.899 87.228 C 120.855 89.249, 118.382 89.982, 117.289 88.889 C 116.195 87.795, 112.760 88.802, 113.500 90 C 113.769 90.435, 113.321 91.046, 112.506 91.359 C 111.691 91.672, 111.131 91.607, 111.262 91.214 C 111.393 90.821, 111.050 90.432, 110.500 90.350 C 109.950 90.268, 109.625 90.644, 109.779 91.186 C 109.947 91.781, 108.758 91.915, 106.779 91.525 C 104.203 91.017, 103.822 91.123, 105 92.018 C 106.213 92.939, 105.980 93.074, 103.780 92.723 C 102.284 92.484, 101.269 92.627, 101.525 93.040 C 101.780 93.453, 101.293 94.057, 100.442 94.384 C 99.557 94.724, 99.157 94.555, 99.507 93.989 C 99.843 93.445, 99.390 93, 98.500 93 C 97.519 93, 97.167 93.461, 97.605 94.170 C 98.091 94.957, 97.783 95.131, 96.664 94.701 C 95.749 94.350, 95 94.446, 95 94.915 C 95 96.265, 90.645 97.043, 89.893 95.827 C 89.475 95.150, 88.731 95.644, 87.952 97.115 C 87.257 98.427, 86.045 100.492, 85.259 101.705 C 83.851 103.875, 83.881 103.893, 87.165 102.864 C 88.999 102.289, 92.975 101.222, 96 100.493 C 99.025 99.764, 103.300 98.596, 105.500 97.898 C 110.341 96.362, 109.590 96.549, 114.745 95.604 C 117.079 95.176, 119.248 94.408, 119.564 93.897 C 119.880 93.386, 120.527 93.208, 121.003 93.502 C 121.478 93.796, 123.810 93.335, 126.184 92.478 C 130.857 90.791, 133.384 90.053, 136.500 89.464 C 143.465 88.148, 150.401 86.018, 151.501 84.856 C 152.207 84.110, 153.089 82.487, 153.460 81.250 C 154.181 78.845, 152.710 78.265, 150.091 79.923 M 165.441 90.555 C 163.611 92.022, 163.643 92.042, 166 90.920 C 169.061 89.462, 169.628 89, 168.358 89 C 167.821 89, 166.509 89.700, 165.441 90.555 M 299.591 93.012 C 292.775 95.658, 291.679 97, 296.331 97 C 298.653 97, 300.271 96.457, 300.614 95.563 C 301.463 93.351, 303.752 94.816, 303.328 97.300 C 303.122 98.510, 303.353 100.104, 303.842 100.842 C 304.695 102.128, 305.957 101.789, 309.971 99.196 C 310.230 99.028, 309.780 98.431, 308.971 97.869 C 307.686 96.977, 307.689 96.899, 309 97.257 C 309.825 97.482, 310.551 98.637, 310.613 99.824 C 310.739 102.235, 308.617 104.499, 307.105 103.565 C 306.565 103.231, 305.758 103.576, 305.311 104.332 C 304.865 105.088, 303.825 105.962, 303 106.274 C 301.951 106.671, 302.131 106.866, 303.599 106.921 C 304.754 106.964, 308.579 105.482, 312.099 103.627 C 315.620 101.771, 319.625 99.912, 321 99.495 C 322.375 99.079, 324.798 97.823, 326.385 96.704 C 329.107 94.787, 329.167 94.595, 327.444 93.336 C 326.026 92.298, 325.450 92.272, 324.865 93.218 C 324.276 94.171, 322.846 94.142, 318.306 93.085 C 309.179 90.960, 304.919 90.943, 299.591 93.012 M 449.779 94.250 C 449.029 94.938, 447.535 95.998, 446.458 96.607 C 445.381 97.216, 444.335 98.566, 444.134 99.607 C 443.784 101.416, 443.853 101.423, 445.713 99.750 C 446.782 98.787, 448.136 98, 448.722 98 C 449.307 98, 450.045 97.325, 450.362 96.500 C 450.678 95.675, 451.626 95, 452.469 95 C 453.311 95, 454 94.550, 454 94 C 454 92.599, 451.413 92.753, 449.779 94.250 M 91.507 94.989 C 91.157 95.555, 91.558 95.723, 92.448 95.382 C 94.180 94.717, 94.497 94, 93.059 94 C 92.541 94, 91.843 94.445, 91.507 94.989 M 291 98.500 C 291 99.325, 291.436 100, 291.969 100 C 292.501 100, 292.678 99.325, 292.362 98.500 C 292.045 97.675, 291.609 97, 291.393 97 C 291.177 97, 291 97.675, 291 98.500 M 439.750 103.083 C 438.525 104.425, 438.390 105, 439.300 105 C 440.741 105, 443 103.046, 443 101.800 C 443 100.492, 441.618 101.038, 439.750 103.083 M 290.079 104.583 C 290.127 105.748, 290.364 105.985, 290.683 105.188 C 290.972 104.466, 290.936 103.603, 290.604 103.271 C 290.272 102.939, 290.036 103.529, 290.079 104.583 M 297 104 C 297 104.550, 297.450 105, 298 105 C 298.550 105, 299 104.550, 299 104 C 299 103.450, 298.550 103, 298 103 C 297.450 103, 297 103.450, 297 104 M 174.171 106.141 C 174.382 107.598, 175.401 108.637, 177 109.027 C 180.492 109.878, 182.975 109.098, 182.308 107.361 C 182.004 106.567, 182.147 105.990, 182.627 106.078 C 184.557 106.430, 187 105.955, 187 105.227 C 187 104.802, 184.040 104.321, 180.421 104.159 C 174.076 103.874, 173.855 103.944, 174.171 106.141 M 185.079 108.583 C 185.127 109.748, 185.364 109.985, 185.683 109.188 C 185.972 108.466, 185.936 107.603, 185.604 107.271 C 185.272 106.939, 185.036 107.529, 185.079 108.583 M 424.822 115.512 C 424.163 116.170, 405.061 121.744, 401.500 122.317 C 399.850 122.583, 397.150 123.327, 395.500 123.970 C 393.850 124.614, 392.275 125.122, 392 125.099 C 390.746 124.995, 383.386 127.289, 382.408 128.089 C 381.807 128.581, 381.120 128.786, 380.880 128.547 C 380.640 128.307, 378.656 128.549, 376.472 129.084 C 374.287 129.620, 371.823 130.223, 370.996 130.424 C 370.169 130.626, 367.469 131.363, 364.996 132.064 C 359.772 133.543, 359.375 133.641, 355.838 134.323 C 354.373 134.605, 352.236 135.339, 351.088 135.953 C 349.939 136.568, 349 136.841, 349 136.560 C 349 136.279, 347.950 136.449, 346.667 136.937 C 345.384 137.424, 342.648 138.091, 340.588 138.419 C 338.528 138.746, 335.865 139.537, 334.671 140.176 C 333.477 140.815, 332.500 141.214, 332.500 141.063 C 332.500 140.912, 330.477 141.333, 328.004 141.999 C 325.531 142.665, 322.829 143.340, 322 143.500 C 320.761 143.739, 315.399 145.198, 310.500 146.629 C 309.950 146.790, 307.700 147.402, 305.500 147.989 C 303.300 148.577, 300.600 149.305, 299.500 149.608 C 298.400 149.910, 296.513 150.305, 295.307 150.485 C 294.101 150.664, 292.631 151.110, 292.041 151.475 C 291.450 151.840, 289.962 152.329, 288.734 152.561 C 283.114 153.624, 281.918 153.933, 280.842 154.598 C 280.209 154.989, 278.748 155.440, 277.596 155.601 C 274.306 156.058, 271.068 156.840, 270.176 157.391 C 269.727 157.669, 268.266 158.121, 266.930 158.397 C 264.186 158.962, 262.048 159.507, 257 160.927 C 255.075 161.468, 250.800 162.623, 247.500 163.493 C 244.200 164.363, 240.600 165.318, 239.500 165.616 C 238.400 165.914, 236.543 166.302, 235.374 166.477 C 234.205 166.653, 232.405 167.240, 231.374 167.782 C 230.343 168.324, 227.691 169.067, 225.480 169.433 C 218.510 170.586, 218.117 171.660, 224.023 173.414 C 227.852 174.551, 229.574 174.689, 230.065 173.895 C 230.469 173.241, 231.674 173.079, 233 173.500 C 234.442 173.958, 235.023 173.846, 234.617 173.189 C 233.888 172.010, 239.318 170.508, 242.862 170.907 C 244.543 171.096, 245.001 170.810, 244.448 169.916 C 243.894 169.019, 244.173 168.852, 245.426 169.333 C 246.391 169.704, 247.702 169.680, 248.340 169.281 C 249.627 168.477, 251.491 167.967, 254.500 167.595 C 255.600 167.459, 257.850 166.751, 259.500 166.021 C 261.150 165.290, 263.175 164.562, 264 164.402 C 265.365 164.138, 267.622 163.588, 276.500 161.360 C 280.540 160.346, 281.116 160.249, 283.917 160.115 C 285.246 160.052, 286.021 159.688, 285.640 159.307 C 284.967 158.634, 293.985 155.816, 297 155.757 C 297.825 155.741, 299.057 155.288, 299.737 154.752 C 300.418 154.215, 301.655 154.037, 302.487 154.357 C 303.319 154.676, 304 154.471, 304 153.901 C 304 153.331, 304.862 153.139, 305.916 153.473 C 306.970 153.808, 308.121 153.613, 308.475 153.041 C 308.829 152.468, 310.190 152, 311.500 152 C 312.810 152, 314.148 151.570, 314.473 151.044 C 314.798 150.518, 315.730 150.343, 316.545 150.656 C 317.359 150.968, 318.638 150.716, 319.386 150.095 C 320.134 149.474, 321.479 149.246, 322.373 149.590 C 323.268 149.933, 324 149.730, 324 149.138 C 324 148.546, 324.748 148.350, 325.664 148.701 C 326.808 149.140, 327.094 148.962, 326.580 148.130 C 326.042 147.259, 326.507 147.089, 328.240 147.524 C 329.801 147.916, 331.102 147.582, 331.938 146.575 C 332.647 145.721, 333.543 145.218, 333.930 145.457 C 334.318 145.696, 336.547 145.233, 338.884 144.428 C 341.221 143.623, 343.498 143.190, 343.945 143.466 C 344.392 143.742, 346.274 143.204, 348.129 142.269 C 352.058 140.290, 353.505 139.912, 357.250 139.885 C 358.762 139.875, 360 139.503, 360 139.058 C 360 138.614, 361.012 138.211, 362.250 138.163 C 365.348 138.042, 367.157 137.587, 369.500 136.337 C 370.600 135.750, 372.021 135.458, 372.658 135.688 C 373.295 135.918, 374.097 135.651, 374.440 135.096 C 374.783 134.541, 375.770 134.358, 376.633 134.689 C 377.496 135.021, 378.563 134.708, 379.003 133.995 C 379.454 133.266, 382.090 132.581, 385.020 132.431 C 387.888 132.285, 390.722 131.678, 391.318 131.082 C 391.913 130.487, 393.554 130, 394.965 130 C 396.375 130, 399.210 129.099, 401.265 127.998 C 403.319 126.897, 405 126.451, 405 127.007 C 405 127.662, 405.615 127.685, 406.750 127.073 C 409.714 125.475, 415.184 123.996, 416.081 124.550 C 416.549 124.839, 418.185 123.973, 419.716 122.624 C 421.247 121.276, 423.586 119.305, 424.912 118.246 C 426.312 117.127, 426.895 116.053, 426.302 115.687 C 425.739 115.339, 425.073 115.260, 424.822 115.512 M 453.031 116.500 C 453.031 117.050, 453.467 118.175, 454 119 C 454.533 119.825, 454.969 120.050, 454.969 119.500 C 454.969 118.950, 454.533 117.825, 454 117 C 453.467 116.175, 453.031 115.950, 453.031 116.500 M 417.359 127.250 C 415.323 129.553, 411.601 135.102, 411.491 136 C 411.457 136.275, 410.927 137.400, 410.313 138.501 C 409.487 139.981, 409.496 141.189, 410.348 143.144 C 411.330 145.397, 411.849 145.653, 413.864 144.883 C 415.787 144.149, 416.004 143.710, 415.028 142.534 C 414.368 141.738, 414.099 140.649, 414.430 140.113 C 414.762 139.577, 414.567 138.851, 413.998 138.499 C 413.345 138.095, 413.683 136.850, 414.915 135.119 C 415.989 133.611, 417.171 131.168, 417.542 129.689 C 417.913 128.210, 418.843 127, 419.608 127 C 420.374 127, 421 126.550, 421 126 C 421 124.341, 419.466 124.868, 417.359 127.250 M 456.731 130.080 C 457.085 131.432, 457.538 131.886, 457.788 131.137 C 458.028 130.415, 457.750 129.350, 457.168 128.768 C 456.426 128.026, 456.296 128.417, 456.731 130.080 M 429.340 138.555 C 429.012 139.411, 429.221 141.098, 429.804 142.305 C 430.758 144.280, 430.871 144.124, 430.932 140.750 C 431.003 136.821, 430.351 135.922, 429.340 138.555 M 69.197 142.087 C 66.889 143.784, 65 145.348, 65 145.562 C 65 146.156, 71.272 144.835, 73.250 143.824 C 74.978 142.941, 75.752 139, 74.197 139 C 73.755 139, 71.505 140.389, 69.197 142.087 M 459.086 140 C 459.055 140.825, 459.467 142.175, 460 143 C 461.181 144.828, 461.181 143.249, 460 140.500 C 459.433 139.181, 459.122 139.011, 459.086 140 M 428.590 146.854 C 428.213 147.465, 427.703 151.611, 427.458 156.068 C 427.212 160.525, 426.812 164.496, 426.567 164.891 C 426.323 165.287, 426.493 167.251, 426.945 169.255 C 427.397 171.260, 427.505 173.162, 427.184 173.482 C 425.051 175.616, 427.184 189, 429.658 189 C 430.452 189, 431.006 190.123, 431.014 191.750 C 431.035 196.089, 432.079 198.907, 433.467 198.374 C 434.299 198.055, 434.613 196.442, 434.379 193.694 C 433.784 186.732, 433.540 185.529, 432.580 184.836 C 432.075 184.471, 431.489 178.661, 431.279 171.924 C 431.069 165.188, 430.451 158.842, 429.905 157.823 C 429.169 156.448, 429.286 155.827, 430.359 155.416 C 431.359 155.032, 431.651 153.883, 431.306 151.681 C 430.646 147.454, 429.489 145.399, 428.590 146.854 M 461.079 149.583 C 461.127 150.748, 461.364 150.985, 461.683 150.188 C 461.972 149.466, 461.936 148.603, 461.604 148.271 C 461.272 147.939, 461.036 148.529, 461.079 149.583 M 369.675 159.136 C 369.335 160.436, 369.010 161.714, 368.953 161.975 C 368.896 162.236, 369.278 162.593, 369.802 162.767 C 371.194 163.231, 372.144 160.080, 371.148 158.300 C 370.452 157.056, 370.178 157.211, 369.675 159.136 M 462.232 161 C 462.232 162.925, 462.438 163.713, 462.689 162.750 C 462.941 161.787, 462.941 160.213, 462.689 159.250 C 462.438 158.287, 462.232 159.075, 462.232 161 M 370.561 166.902 C 370.665 169.289, 371.115 169.583, 374 169.150 C 375.736 168.890, 375.082 167.001, 373.250 166.985 C 371.909 166.973, 371.812 166.772, 372.835 166.123 C 373.870 165.467, 373.752 165.168, 372.308 164.791 C 370.829 164.404, 370.471 164.837, 370.561 166.902 M 451.553 164.914 C 450.757 166.203, 451.343 172.996, 452.250 172.998 C 452.663 172.999, 453 170.975, 453 168.500 C 453 164.038, 452.642 163.152, 451.553 164.914 M 462.669 168.250 C 463.536 172.807, 464 172.952, 464 168.667 C 464 166.650, 463.561 165, 463.025 165 C 462.465 165, 462.313 166.383, 462.669 168.250 M 485.272 170 C 485.272 172.475, 485.467 173.488, 485.706 172.250 C 485.944 171.012, 485.944 168.988, 485.706 167.750 C 485.467 166.512, 485.272 167.525, 485.272 170 M 209.469 176.452 C 206.296 180.611, 206.334 181.666, 209.581 179.539 C 211 178.609, 212.786 178.088, 213.549 178.380 C 214.312 178.673, 215.202 178.482, 215.527 177.956 C 215.852 177.430, 217.066 177, 218.226 177 C 220.985 177, 219.831 175.928, 215.450 174.422 C 212.075 173.261, 211.842 173.340, 209.469 176.452 M 491.015 177.583 C 491.024 180.287, 491.494 183.175, 492.059 184 C 492.786 185.060, 492.892 183.739, 492.419 179.500 C 491.580 171.979, 490.995 171.180, 491.015 177.583 M 451.375 177.125 C 451.719 178.844, 452 181.345, 452 182.684 C 452 184.023, 452.398 184.872, 452.884 184.572 C 453.370 184.272, 453.644 182.557, 453.493 180.763 C 453.343 178.968, 453.170 176.713, 453.110 175.750 C 453.049 174.787, 452.494 174, 451.875 174 C 451.148 174, 450.971 175.106, 451.375 177.125 M 135 180.883 C 135 181.369, 136.129 181.983, 137.509 182.246 C 139.539 182.635, 139.802 182.466, 138.886 181.363 C 137.623 179.840, 135 179.517, 135 180.883 M 486 188.333 C 486 192, 486.407 195, 486.905 195 C 487.727 195, 487.228 183.070, 486.365 182.083 C 486.164 181.854, 486 184.667, 486 188.333 M 106.721 189.028 C 104.961 193.508, 105.258 195.504, 107.827 196.482 C 109.114 196.971, 109.228 196.844, 108.323 195.932 C 107.532 195.135, 107.442 193.967, 108.048 192.373 C 108.544 191.068, 108.682 190, 108.353 190 C 108.024 190, 108.331 189.306, 109.035 188.458 C 109.882 187.437, 109.979 186.579, 109.323 185.923 C 108.667 185.267, 107.786 186.318, 106.721 189.028 M 491.015 188.250 C 491.024 189.488, 491.467 191.175, 492 192 C 492.721 193.116, 492.973 192.539, 492.985 189.750 C 492.993 187.688, 492.550 186, 492 186 C 491.450 186, 491.007 187.012, 491.015 188.250 M 468.405 189.250 L 466.500 191.500 468.750 189.595 C 470.864 187.805, 471.455 187, 470.655 187 C 470.465 187, 469.453 188.012, 468.405 189.250 M 148.805 189.679 C 147.873 189.924, 147.327 190.688, 147.591 191.376 C 147.917 192.226, 150.223 192.581, 154.785 192.485 C 162.223 192.328, 166.330 191.344, 165.456 189.928 C 164.888 189.009, 152.073 188.817, 148.805 189.679 M 167.750 190.662 C 168.438 190.940, 169.563 190.940, 170.250 190.662 C 170.938 190.385, 170.375 190.158, 169 190.158 C 167.625 190.158, 167.063 190.385, 167.750 190.662 M 312 193 C 310.459 194.650, 308.773 196, 308.254 196 C 307.735 196, 306.453 196.952, 305.405 198.115 C 304.357 199.278, 302.488 200.617, 301.250 201.090 C 298.381 202.187, 298.371 203.602, 301.228 204.349 C 303.999 205.074, 307.308 202.980, 309.646 199.023 C 310.628 197.360, 311.788 196, 312.225 196 C 312.661 196, 314.431 194.650, 316.157 193 C 319.135 190.155, 319.181 190, 317.050 190 C 315.814 190, 313.541 191.350, 312 193 M 104.851 201.251 C 105.608 202.008, 106.337 202.063, 106.988 201.412 C 107.639 200.761, 107.247 200.369, 105.839 200.263 C 104.229 200.142, 103.985 200.385, 104.851 201.251 M 170.614 201.563 C 170.284 202.423, 169.668 202.913, 169.246 202.652 C 168.138 201.967, 164.505 204.839, 165.377 205.711 C 165.780 206.113, 166.569 205.780, 167.131 204.971 C 167.904 203.858, 168.276 203.804, 168.659 204.750 C 169.446 206.689, 171 206.224, 171 204.050 C 171 202.977, 171.787 201.641, 172.750 201.080 C 174.302 200.176, 174.314 200.057, 172.857 200.030 C 171.953 200.014, 170.944 200.704, 170.614 201.563 M 486 205.167 C 486 208.008, 486.165 210.146, 486.367 209.917 C 487.218 208.950, 487.679 200, 486.877 200 C 486.395 200, 486 202.325, 486 205.167 M 99.638 205.500 C 99.322 206.325, 99.306 207, 99.603 207 C 99.900 207, 100.818 206.325, 101.643 205.500 C 102.944 204.199, 102.949 204, 101.678 204 C 100.873 204, 99.955 204.675, 99.638 205.500 M 165.079 209.583 C 165.127 210.748, 165.364 210.985, 165.683 210.188 C 165.972 209.466, 165.936 208.603, 165.604 208.271 C 165.272 207.939, 165.036 208.529, 165.079 209.583 M 485.272 216 C 485.272 218.475, 485.467 219.488, 485.706 218.250 C 485.944 217.012, 485.944 214.988, 485.706 213.750 C 485.467 212.512, 485.272 213.525, 485.272 216 M 93.506 217.994 C 92.507 219.097, 92.017 220, 92.416 220 C 93.471 220, 96.321 216.988, 95.780 216.446 C 95.527 216.194, 94.504 216.890, 93.506 217.994 M 90.500 223 C 90.160 223.550, 90.332 224, 90.882 224 C 91.432 224, 92.160 223.550, 92.500 223 C 92.840 222.450, 92.668 222, 92.118 222 C 91.568 222, 90.840 222.450, 90.500 223 M 154 226 C 154 227.100, 154.173 228, 154.383 228 C 154.594 228, 155.002 227.100, 155.290 226 C 155.577 224.900, 155.405 224, 154.906 224 C 154.408 224, 154 224.900, 154 226 M 87.459 229.067 C 87.096 229.653, 87.014 230.348, 87.276 230.610 C 87.538 230.872, 88.019 230.392, 88.345 229.543 C 89.021 227.781, 88.445 227.471, 87.459 229.067 M 151.667 230.667 C 151.300 231.033, 151 231.798, 151 232.367 C 151 232.993, 151.466 232.934, 152.183 232.217 C 152.834 231.566, 153.134 230.801, 152.850 230.517 C 152.566 230.232, 152.033 230.300, 151.667 230.667 M 480.310 235.500 C 480.315 238.800, 480.502 240.029, 480.725 238.232 C 480.947 236.435, 480.943 233.735, 480.715 232.232 C 480.486 230.729, 480.304 232.200, 480.310 235.500 M 483.804 243.502 C 483.637 250.928, 483.837 257.003, 484.250 257.002 C 484.663 257.001, 485 250.925, 485 243.500 C 485 236.075, 484.799 230, 484.554 230 C 484.309 230, 483.971 236.076, 483.804 243.502 M 441.074 246.083 C 441.115 249.613, 441.539 254.525, 442.018 257 C 442.660 260.328, 442.776 258.791, 442.460 251.100 C 441.990 239.640, 440.956 235.900, 441.074 246.083 M 141 242.882 C 141 243.432, 141.450 244.160, 142 244.500 C 142.550 244.840, 143 244.668, 143 244.118 C 143 243.568, 142.550 242.840, 142 242.500 C 141.450 242.160, 141 242.332, 141 242.882 M 74 246 C 74 246.550, 74.477 247, 75.059 247 C 75.641 247, 75.840 246.550, 75.500 246 C 75.160 245.450, 74.684 245, 74.441 245 C 74.198 245, 74 245.450, 74 246 M 67.500 252 C 67.160 252.550, 67.584 253, 68.441 253 C 69.298 253, 70 252.550, 70 252 C 70 251.450, 69.577 251, 69.059 251 C 68.541 251, 67.840 251.450, 67.500 252 M 59.050 260.177 C 56.600 262.806, 56.908 263.364, 60.105 262.085 C 61.422 261.558, 62.107 261.098, 61.628 261.063 C 61.148 261.029, 61.315 260.325, 62 259.500 C 64 257.091, 61.361 257.696, 59.050 260.177 M 441 287.667 C 441 291.333, 441.328 294.006, 441.728 293.605 C 442.709 292.624, 442.751 281, 441.773 281 C 441.348 281, 441 284, 441 287.667 M 10.500 296 C 10.160 296.550, 10.359 297, 10.941 297 C 11.523 297, 12 296.550, 12 296 C 12 295.450, 11.802 295, 11.559 295 C 11.316 295, 10.840 295.450, 10.500 296 M 468.638 306.500 C 468.322 307.325, 467.452 308, 466.706 308 C 465.193 308, 460.387 312.720, 461.136 313.470 C 461.686 314.019, 469.333 309.053, 469.833 307.820 C 470.478 306.234, 472 307.022, 472 308.941 C 472 310.009, 472.450 311.160, 473 311.500 C 474.101 312.181, 474.350 309.075, 473.393 306.582 C 472.623 304.575, 469.398 304.520, 468.638 306.500 M 456.094 319.671 C 454.392 322.241, 452.944 324.941, 452.875 325.671 C 452.806 326.402, 452.694 327.384, 452.625 327.854 C 452.556 328.323, 450.559 330.877, 448.186 333.528 C 445.813 336.179, 443.214 339.620, 442.410 341.174 C 441.606 342.728, 440.623 344.004, 440.224 344.008 C 439.826 344.012, 438.980 345.137, 438.344 346.508 C 437.708 347.879, 437.526 349, 437.939 349 C 439.098 349, 441.336 346.081, 445.408 339.260 C 447.456 335.829, 449.968 332.435, 450.991 331.719 C 452.013 331.003, 453.640 328.411, 454.606 325.959 C 455.572 323.506, 456.627 321.275, 456.951 321 C 457.734 320.336, 460.065 315, 459.573 315 C 459.361 315, 457.796 317.102, 456.094 319.671 M 471.304 321.250 C 469.898 323.118, 468.068 330, 468.977 330 C 469.411 330, 470.008 329.212, 470.302 328.250 C 470.597 327.288, 471.293 325.038, 471.849 323.250 C 472.934 319.764, 472.798 319.265, 471.304 321.250 M 19.874 327.750 C 19.509 335.692, 20.739 347, 21.967 347 C 22.419 347, 22.488 345.538, 22.121 343.750 C 21.753 341.962, 21.463 337.015, 21.476 332.754 C 21.489 328.494, 21.163 325.007, 20.750 325.004 C 20.337 325.002, 19.943 326.238, 19.874 327.750 M 30.591 337.178 C 29.603 339.577, 29.432 342.306, 29.975 347 L 30.726 353.500 30.869 347 C 30.948 343.425, 31.654 339.270, 32.438 337.767 C 33.292 336.131, 33.481 334.798, 32.911 334.445 C 32.387 334.121, 31.343 335.351, 30.591 337.178 M 23.141 354 C 23.141 354.825, 23.527 356.400, 24 357.500 C 24.542 358.761, 24.859 358.945, 24.859 358 C 24.859 357.175, 24.473 355.600, 24 354.500 C 23.458 353.239, 23.141 353.055, 23.141 354 M 25.731 363.080 C 26.085 364.432, 26.538 364.886, 26.788 364.137 C 27.028 363.415, 26.750 362.350, 26.168 361.768 C 25.426 361.026, 25.296 361.417, 25.731 363.080 M 27.090 366.500 C 27.090 367.050, 28.175 369.525, 29.500 372 C 30.825 374.475, 31.910 376.050, 31.910 375.500 C 31.910 374.950, 30.825 372.475, 29.500 370 C 28.175 367.525, 27.090 365.950, 27.090 366.500 M 121.720 368.695 C 123.068 370.753, 123.625 374.362, 124.074 383.945 L 124.661 396.500 124.831 384.651 C 124.961 375.547, 124.626 372.014, 123.386 369.401 C 122.498 367.531, 121.363 366, 120.863 366 C 120.363 366, 120.749 367.213, 121.720 368.695 M 273.877 367.750 C 273.809 368.712, 273.897 371.750, 274.072 374.500 C 274.247 377.250, 274.415 381.863, 274.445 384.750 C 274.485 388.588, 274.881 390.001, 275.917 390 C 276.696 390, 277.086 390.247, 276.784 390.549 C 275.889 391.444, 277.934 399.077, 279.485 400.628 C 280.271 401.414, 280.655 402.737, 280.336 403.566 C 280.018 404.396, 280.557 405.958, 281.534 407.037 C 282.511 408.117, 282.945 409, 282.500 409 C 282.055 409, 282.503 409.898, 283.497 410.996 C 284.800 412.436, 285.652 412.703, 286.555 411.955 C 287.439 411.220, 287.957 411.295, 288.324 412.208 C 288.609 412.919, 288.878 413.038, 288.921 412.474 C 288.966 411.892, 290.683 411.608, 292.883 411.817 C 295.292 412.047, 297.062 411.708, 297.547 410.924 C 298.109 410.015, 297.829 409.851, 296.553 410.341 C 295.219 410.853, 294.925 410.637, 295.372 409.473 C 296.165 407.408, 293.255 406.359, 290.868 407.851 C 289.372 408.785, 289 408.733, 289 407.592 C 289 406.808, 289.563 405.925, 290.250 405.630 C 290.938 405.335, 290.337 405.254, 288.917 405.450 C 286.284 405.814, 286.198 405.672, 285.896 400.500 C 285.816 399.125, 285.169 398, 284.458 398 C 283.748 398, 282.940 397.438, 282.662 396.750 C 282.385 396.063, 282.122 396.539, 282.079 397.809 C 282.036 399.079, 282.399 399.872, 282.886 399.570 C 283.374 399.269, 284.027 399.996, 284.338 401.185 C 284.896 403.317, 284.877 403.320, 283.030 401.424 C 282 400.366, 281.009 398.150, 280.829 396.500 C 280.648 394.850, 279.978 392.945, 279.339 392.268 C 278.700 391.590, 278.415 390.127, 278.706 389.018 C 279.095 387.529, 278.744 386.996, 277.367 386.985 C 276.329 386.976, 275.944 386.643, 276.500 386.235 C 277.673 385.373, 277.758 382.036, 276.654 380.249 C 276.188 379.495, 276.400 378.994, 277.191 378.985 C 278.035 378.975, 278.128 378.709, 277.450 378.235 C 276.873 377.831, 276.423 374.913, 276.450 371.751 C 276.485 367.791, 276.111 366.001, 275.250 366.001 C 274.563 366, 273.945 366.788, 273.877 367.750 M 133.824 369.288 C 134.739 370.390, 136 396.736, 136 414.730 C 136 416.529, 136.490 418, 137.089 418 C 137.859 418, 137.994 411.927, 137.551 397.250 C 136.821 373.049, 136.402 369.368, 134.284 368.555 C 133.069 368.089, 132.966 368.254, 133.824 369.288 M 253.992 370.509 C 253.081 371.608, 252.942 373.990, 253.484 379.259 C 253.893 383.242, 254.192 387.850, 254.148 389.500 C 253.923 397.951, 257.363 409.294, 261.601 414.079 C 262.371 414.947, 263 416.185, 263 416.829 C 263 417.473, 263.675 418, 264.500 418 C 266.550 418, 266.383 416.756, 263.908 413.610 C 262.757 412.147, 261.723 410.399, 261.610 409.725 C 261.496 409.051, 260.895 407.576, 260.272 406.447 C 257.199 400.872, 254.056 372.344, 256.271 370.129 C 257.046 369.354, 257.062 369, 256.322 369 C 255.730 369, 254.681 369.679, 253.992 370.509 M 147.869 371.755 C 148.386 372.721, 149.032 380.566, 149.304 389.189 C 149.577 397.813, 150.073 405.309, 150.406 405.848 C 150.740 406.388, 150.447 407.057, 149.756 407.336 C 148.783 407.728, 148.778 407.860, 149.735 407.921 C 150.643 407.979, 150.804 409.586, 150.342 414 C 149.830 418.900, 149.985 420, 151.187 420 C 152.388 420, 152.618 418.387, 152.438 411.250 C 152.017 394.584, 150.833 371.538, 150.358 370.771 C 150.096 370.347, 149.218 370, 148.406 370 C 147.308 370, 147.170 370.450, 147.869 371.755 M 239.066 372.420 C 237.619 374.164, 237.528 375.624, 238.316 384.500 C 238.657 388.350, 239.198 395.325, 239.516 400 C 240.087 408.368, 244.055 421, 246.113 421 C 247.215 421, 247.261 419.712, 246.204 418.450 C 244.865 416.851, 243.087 410.743, 242.581 406 C 242.316 403.525, 241.792 399.475, 241.416 397 C 241.040 394.525, 240.680 390.363, 240.616 387.750 C 240.552 385.138, 240.072 383.001, 239.550 383 C 239.006 383, 239.043 382.557, 239.637 381.963 C 240.226 381.374, 240.403 379.324, 240.048 377.213 C 239.591 374.497, 239.836 373.173, 240.961 372.282 C 241.815 371.606, 241.998 371.049, 241.372 371.032 C 240.752 371.014, 239.715 371.639, 239.066 372.420 M 39.031 379.500 C 39.031 380.050, 39.467 381.175, 40 382 C 40.533 382.825, 40.969 383.050, 40.969 382.500 C 40.969 381.950, 40.533 380.825, 40 380 C 39.467 379.175, 39.031 378.950, 39.031 379.500 M 42 388.474 C 42 389.800, 52.995 411.199, 58.785 421.142 C 65.278 432.292, 69.241 437.458, 77.472 445.505 C 86.912 454.733, 93.992 458.369, 102.667 458.445 C 107.771 458.491, 109.256 458.103, 111.286 456.199 C 114.222 453.443, 117.511 447.074, 118.983 441.292 C 119.572 438.978, 120.429 436.853, 120.886 436.570 C 121.344 436.288, 122.026 433.053, 122.402 429.382 C 122.778 425.712, 123.553 421.836, 124.124 420.769 C 125.335 418.506, 125.314 418.476, 121.862 417.650 C 119.417 417.064, 119.106 417.378, 117.612 421.947 C 116.725 424.658, 116 427.522, 116 428.311 C 116 429.780, 113.142 437.052, 110.379 442.613 C 108.317 446.765, 102.371 450, 96.805 450 C 92.072 450, 83.287 445.496, 77.657 440.183 C 72.247 435.076, 61.875 420.044, 56.142 409 C 47.280 391.927, 44.793 388, 42.845 388 C 42.380 388, 42 388.213, 42 388.474 M 124.082 403 C 123.947 406.575, 123.745 410.770, 123.633 412.323 C 123.520 413.876, 123.736 415.337, 124.113 415.570 C 125.124 416.195, 125.588 408.322, 124.913 402 L 124.326 396.500 124.082 403 M 292.500 410 C 292.160 410.550, 292.359 411, 292.941 411 C 293.523 411, 294 410.550, 294 410 C 294 409.450, 293.802 409, 293.559 409 C 293.316 409, 292.840 409.450, 292.500 410" fill="none" stroke="#000" stroke-width="2px" fill-rule="evenodd"/>
</svg>
