<svg xmlns="http://www.w3.org/2000/svg" width="500" height="494" viewBox="0 0 500 494" version="1.1">
	<path d="M 165 7.990 L 59.500 8.500 59.636 43.500 C 59.787 82.634, 61.771 357.077, 61.911 358.250 C 61.960 358.663, 64.513 359, 67.583 359 C 75.301 359, 74.400 361.326, 66.422 362 L 60.500 362.500 32.722 406 C 15.662 432.715, 5.051 450.272, 5.222 451.500 C 5.491 453.436, 6.197 453.495, 27.227 453.337 L 48.954 453.174 49.227 470.337 L 49.500 487.500 87 488.107 C 107.625 488.440, 196.950 488.890, 285.500 489.107 L 446.500 489.500 446.774 472.262 L 447.047 455.025 470.024 455.672 L 493 456.319 493 454.123 C 493 452.833, 479.933 433.783, 461.338 407.963 L 429.676 364 424.873 364 C 421.206 364, 419.834 363.558, 419.070 362.131 C 417.718 359.605, 418.583 359, 423.546 359 L 427.758 359 428.359 284.750 C 428.690 243.912, 429.082 164.825, 429.230 109 L 429.500 7.500 350 7.490 C 306.275 7.485, 223.025 7.710, 165 7.990 M 67 104.941 C 67 105.459, 67.450 106.160, 68 106.500 C 68.550 106.840, 69 106.416, 69 105.559 C 69 104.702, 68.550 104, 68 104 C 67.450 104, 67 104.423, 67 104.941 M 420 105 C 420 105.550, 420.675 106, 421.500 106 C 422.325 106, 423 105.550, 423 105 C 423 104.450, 422.325 104, 421.500 104 C 420.675 104, 420 104.450, 420 105 M 93.473 461.477 C 93.079 466.214, 92.974 470.307, 93.240 470.574 C 93.701 471.035, 401.200 473.173, 401.578 472.718 C 401.678 472.598, 401.961 468.518, 402.206 463.652 C 402.499 457.837, 402.283 454.693, 401.576 454.481 C 400.984 454.303, 331.580 453.867, 247.345 453.511 L 94.191 452.865 93.473 461.477" fill="none" stroke="#000" stroke-width="2px" fill-rule="evenodd"/>
</svg>
