<svg xmlns="http://www.w3.org/2000/svg" width="500" height="479" viewBox="0 0 500 479" version="1.1">
	<path d="M 202.827 9.725 C 200.997 11.223, 196.575 14.990, 193 18.094 C 184.709 25.294, 184.007 25.632, 172.333 28.034 C 161.317 30.301, 160.970 30.485, 151.866 38.861 C 144.751 45.407, 144.689 45.546, 140.797 63.480 C 139.136 71.139, 137.593 71.966, 124.934 71.985 C 112.992 72.004, 105.865 73.296, 97.079 77.034 C 93.300 78.642, 86.774 81.049, 82.576 82.382 C 78.378 83.715, 71.919 86.613, 68.222 88.822 C 58.510 94.626, 45.298 105.587, 39.864 112.349 C 28.927 125.959, 16.866 156.711, 15.490 174.500 C 15.107 179.450, 14.165 186.802, 13.397 190.838 C 12.628 194.874, 11.983 201.174, 11.963 204.838 C 11.943 208.502, 11.270 214.650, 10.467 218.500 C 7.400 233.202, 5.908 258.236, 5.339 304.500 C 4.694 356.886, 4.706 357, 12.586 371.887 C 15.028 376.500, 17.973 383.475, 19.132 387.387 C 23.073 400.701, 27.569 405.778, 41.698 412.866 C 45.106 414.577, 50.582 417.712, 53.866 419.835 C 60.795 424.313, 69.510 426.371, 88.500 428.012 C 102.344 429.208, 121.277 432.308, 149.070 437.929 C 167.389 441.634, 179.699 444.507, 224.500 455.533 C 234.400 457.969, 248.712 461.103, 256.305 462.497 C 263.898 463.891, 276.048 466.589, 283.305 468.492 C 301.823 473.347, 333.034 478.351, 339.648 477.525 C 347.169 476.585, 353.063 473.273, 355.707 468.502 C 359.016 462.528, 363.430 458.491, 370.318 455.139 C 376.398 452.180, 403.316 439.694, 411.865 435.868 C 420.601 431.958, 426.934 427.137, 430.105 421.983 C 433.735 416.085, 437.200 414, 443.373 414 C 448.901 414, 454.150 410.293, 461.484 401.211 C 464.243 397.794, 468.750 393.417, 471.500 391.482 C 479.745 385.683, 491.427 371.954, 493.362 365.789 C 495.794 358.041, 496.047 298.988, 493.742 277 C 492.849 268.475, 491.617 253.850, 491.006 244.500 C 489.636 223.547, 487.418 203.723, 485.425 194.624 C 484.596 190.842, 484.106 187.561, 484.334 187.333 C 484.563 187.104, 483.917 183.747, 482.900 179.872 C 481.883 175.998, 480.575 168.029, 479.994 162.164 C 478.444 146.515, 478.116 145.119, 474.297 138 C 469.571 129.189, 468.157 127.858, 458.911 123.519 C 452.935 120.715, 447.957 119.290, 439.208 117.879 C 432.768 116.841, 422.325 115.078, 416 113.963 C 409.675 112.847, 400.900 111.529, 396.500 111.033 C 392.100 110.538, 383.775 109.227, 378 108.120 C 372.225 107.012, 365.891 105.852, 363.925 105.541 C 361.881 105.217, 359.231 103.803, 357.737 102.238 L 355.123 99.500 354.161 73.500 C 353.332 51.104, 352.897 46.599, 351.021 41 C 346.717 28.147, 339.633 20.401, 329.500 17.468 C 322.495 15.440, 299.128 12.999, 267.500 10.991 C 257.600 10.363, 244.942 9.208, 239.372 8.424 C 233.801 7.641, 224.048 7, 217.698 7 C 206.611 7, 206.022 7.108, 202.827 9.725" fill="none" stroke="#000" stroke-width="2px" fill-rule="evenodd"/>
</svg>
