<svg xmlns="http://www.w3.org/2000/svg" width="416" height="500" viewBox="0 0 416 500" version="1.1">
	<path d="M 283 1.072 C 270.625 1.557, 241.825 2.856, 219 3.959 C 196.175 5.062, 172.325 6.205, 166 6.499 C 114.553 8.889, 23.167 13.804, 15.296 14.603 C 11.588 14.980, 9.950 15.616, 9.597 16.816 C 6.656 26.800, 2.812 47.655, 1.484 60.835 L -0.163 77.170 2.106 82.835 C 3.354 85.951, 4.854 88.821, 5.438 89.212 C 6.094 89.653, 6.592 95.953, 6.742 105.712 C 9.310 273.369, 11.622 383.223, 13.062 406 C 14.258 424.936, 17.869 455.087, 19.125 456.629 C 19.631 457.251, 21.497 458.052, 23.272 458.411 C 56.311 465.081, 108.364 474.224, 140.500 479.001 C 199.302 487.741, 248.357 494.047, 287.750 497.929 C 308.938 500.017, 309.884 499.912, 318 494.584 C 320.475 492.959, 328.800 487.067, 336.500 481.490 C 344.200 475.913, 362.505 462.694, 377.178 452.115 C 391.851 441.535, 404.291 432.344, 404.824 431.689 C 405.834 430.449, 406.774 379.361, 409.502 177.500 C 410.349 114.800, 411.303 57.987, 411.622 51.250 C 412.150 40.087, 412.370 39, 414.101 39 C 415.795 39, 416 38.203, 416 31.616 L 416 24.233 396.250 19.464 C 385.387 16.842, 375.600 14.573, 374.500 14.423 C 373.400 14.272, 359.900 11.151, 344.500 7.486 C 329.100 3.821, 314.025 0.680, 311 0.507 C 307.975 0.333, 295.375 0.588, 283 1.072" fill="none" stroke="#000" stroke-width="2px" fill-rule="evenodd"/>
</svg>
