<?xml version="1.0" encoding="utf-8"?>
<!-- Generator: Adobe Illustrator 17.0.0, SVG Export Plug-In . SVG Version: 6.00 Build 0)  -->
<!DOCTYPE svg PUBLIC "-//W3C//DTD SVG 1.1//EN" "http://www.w3.org/Graphics/SVG/1.1/DTD/svg11.dtd">
<svg version="1.1" id="Слой_1" xmlns="http://www.w3.org/2000/svg" xmlns:xlink="http://www.w3.org/1999/xlink" x="0px" y="0px"
	 width="400px" height="500px" viewBox="0 0 400 500" enable-background="new 0 0 400 500" xml:space="preserve">
<g>
	<g>
		<path fill="none" stroke="#2A4A61" stroke-width="12" stroke-miterlimit="10" d="M382.232,158.085c0,0,9.752,5.897,10.502,14.517
			s0,48.51,0,48.51s-4.126,8.647-10.502,10.447"/>
		<path fill="#829FC1" d="M385.43,141.836c1.476,83.22,3.179,175.073,3.179,175.073s-1.744,24.012-14.574,24.247
			c-12.83,0.235-24.809-7.815-24.809-7.815l21.853-211.382"/>
		<g>
			<g>
				<path fill="#D0DDEC" d="M371.077,121.958c1.673,96.434,4.028,218.487,4.028,218.487s4.501,1.688-15.753,0
					c-20.254-1.688-135.03-25.881-135.03-25.881l-2.374-197.475"/>
				<path fill="#829FC1" d="M362.727,256.741v-69.7c0,0-2.25-11.719-11.252-11.103s-111.962-0.024-111.962-0.024v114.75
					c0,0,2.813,9.869,11.815,12.336c9.002,2.467,103.523,16.345,103.523,16.345s7.877-0.925,7.877-12.645
					c0,0,4.501-2.056-32.632-7.607s-68.64-11.514-68.64-11.514s-7.502-4.934-7.502-16.654c0-11.719-0.375-81.419-0.375-81.419H352.6
					C352.6,189.509,362.727,187.041,362.727,256.741z"/>
			</g>
			<g>
				<path fill="#829FC1" d="M239.069,144.677v13.793c0,0,0.938,3.64,8.814,3.831s103.898,0,103.898,0s5.626-0.575,5.626-3.448
					c0-2.874,0-3.831,0-3.831s-8.808,1.341-17.344,1.341c-8.536,0-85.309-0.952-85.309-0.952s-3.001-1.341-3.001-6.13
					s0.254-9.824,0.254-9.824l99.773,0.431c0,0,5.251,1.916,5.626,6.13v-8.429c0,0-0.841-2.299-7.359-2.49
					c-6.519-0.192-110.536-4.173-110.536-4.173L239.069,144.677z"/>
				<g>
					<path fill="#CBCBCC" d="M247.202,159.078c0,0,5.251,2.25,11.44,0C258.642,159.078,252.828,143.325,247.202,159.078z"/>
					<path fill="#FFFFFF" d="M252.922,152.092c0,0-3.337,3.816-1.012,7.956c0,0-3.794-0.032-4.708-0.97
						C247.202,159.078,249.429,151.599,252.922,152.092z"/>
				</g>
				<g>
					<path fill="#CBCBCC" d="M260.517,156.843c0,0,5.251,2.25,11.44,0C271.957,156.843,266.143,141.089,260.517,156.843z"/>
					<path fill="#FFFFFF" d="M266.237,149.856c0,0-3.337,3.816-1.012,7.956c0,0-3.794-0.032-4.708-0.97
						C260.517,156.843,262.744,149.364,266.237,149.856z"/>
				</g>
				<g>
					<path fill="#816A32" d="M271.512,159.594c0,0,5.251,2.25,11.44,0C282.952,159.594,277.138,143.84,271.512,159.594z"/>
					<path fill="#B2A980" d="M277.232,152.607c0,0-3.337,3.816-1.012,7.956c0,0-3.794-0.032-4.708-0.97
						C271.512,159.594,273.739,152.115,277.232,152.607z"/>
				</g>
				<g>
					<path fill="#CBCBCC" d="M282.624,157.194c0,0,5.251,2.25,11.44,0C294.064,157.194,288.25,141.441,282.624,157.194z"/>
					<path fill="#FFFFFF" d="M288.344,150.208c0,0-3.337,3.816-1.012,7.956c0,0-3.794-0.032-4.708-0.97
						C282.624,157.194,284.851,149.715,288.344,150.208z"/>
				</g>
				<g>
					<path fill="#CBCBCC" d="M299.221,159.59c0,0,5.251,2.251,11.44,0C310.661,159.59,304.847,143.836,299.221,159.59z"/>
					<path fill="#FFFFFF" d="M304.941,152.603c0,0-3.337,3.816-1.012,7.956c0,0-3.794-0.032-4.708-0.97
						C299.221,159.59,301.448,152.111,304.941,152.603z"/>
				</g>
				<ellipse fill="#2E618A" cx="290.887" cy="160.019" rx="5.732" ry="1.09"/>
				<ellipse fill="#2E618A" cx="264.374" cy="160.019" rx="5.732" ry="1.09"/>
				<ellipse fill="#2E618A" cx="316.909" cy="157.813" rx="5.732" ry="1.09"/>
				<ellipse fill="#2E618A" cx="329.005" cy="160.344" rx="5.732" ry="1.09"/>
				<ellipse fill="#2E618A" cx="341.875" cy="158.164" rx="5.732" ry="1.09"/>
				<g>
					<path fill="#816A32" d="M324.117,157.62c0,0,5.251,2.25,11.44,0C335.557,157.62,329.743,141.867,324.117,157.62z"/>
					<path fill="#B2A980" d="M329.837,150.634c0,0-3.337,3.816-1.012,7.956c0,0-3.794-0.032-4.708-0.97
						C324.117,157.62,326.344,150.141,329.837,150.634z"/>
				</g>
			</g>
		</g>
		<g>
			<g>
				<g>
					<g>
						<g>
							<path fill="#C8DCF2" d="M10.525,311.189V30.44c0,0,94.146-49.886,218.298,0v280.749H10.525z"/>
							<rect x="4.898" y="311.189" fill="#C8DCF2" width="234.614" height="16.316"/>
						</g>
						<g>
							<path fill="none" stroke="#829FC1" stroke-width="8" stroke-miterlimit="10" d="M220.946,99.65H25.486l-1.478-60.396
								c0,0,37.318-17.629,99.947-15.378s96.117,19.504,96.117,19.504L220.946,99.65z"/>
							<g>
								<rect x="25.303" y="92.141" fill="#829FC1" width="195.643" height="7.509"/>
								<path fill="#829FC1" d="M42.032,95.896V39.254c0,0,65.13-15.378,94.829-12.378l-8.661-3.199l-50.19,2.107l-54.002,13.47
									l0.559,56.641L42.032,95.896L42.032,95.896z"/>
							</g>
						</g>
					</g>
					<g>
						<polygon fill="none" stroke="#829FC1" stroke-width="8" stroke-miterlimit="10" points="24.59,174.507 24.59,122.251 
							220.383,122.251 220.383,178.015 						"/>
						<rect x="24.59" y="122.251" fill="#829FC1" width="17.441" height="51.774"/>
					</g>
				</g>
				<g>
					<g>
						<polygon fill="none" stroke="#829FC1" stroke-width="8" stroke-miterlimit="10" points="24.59,298.666 24.59,251.776 
							220.383,251.776 220.383,301.813 						"/>
						<rect x="24.59" y="251.776" fill="#829FC1" width="17.441" height="46.457"/>
					</g>
					<g>
						<polygon fill="none" stroke="#829FC1" stroke-width="8" stroke-miterlimit="10" points="24.59,237.802 24.59,185.546 
							220.383,185.546 220.383,241.309 						"/>
						<rect x="24.59" y="185.546" fill="#829FC1" width="17.441" height="51.774"/>
					</g>
				</g>
			</g>
			<g display="none">
				
					<rect x="20.277" y="278.182" display="inline" opacity="0.5" fill="#FFFFFF" enable-background="new    " width="205.545" height="29.802"/>
				<path display="inline" fill="#FFFFFF" d="M24.59,303.705v-20.847h120.095c0,0-113.906-0.607-115.031,5.634
					s-1.125,7.498-1.125,7.498s1.61,6.628,28.749,7.107L24.59,303.705z"/>
			</g>
		</g>
		<polygon fill="#4E708A" points="385.191,127.761 370.896,110.903 228.823,109.397 245.42,121.396 247.202,123.273 		"/>
		<path fill="none" stroke="#2A4A61" stroke-width="12" stroke-miterlimit="10" d="M380.544,79.465c0,0,9.752,3.102,10.502,7.637
			c0.75,4.535,0,25.519,0,25.519s-4.126,4.549-10.502,5.496"/>
		<path fill="#829FC1" d="M353.729,93.079l-7.88-85.609l23.929-3.535c0,0,14.944,6.293,14.944,26.124
			c0,7.982-0.558,40.031,0.469,98.265"/>
		<path fill="#D0DDEC" d="M370.772,110.851c-0.946-55.133-1.321-80.605-1.118-85.089c0.563-12.44,0-22.442,0-22.442
			c-55.137-3.938-148.832,29.882-148.832,29.882l0.916,76.144"/>
		<g display="none">
			<g display="inline">
				<path fill="#C24356" d="M111.731,280.03c-1.357,4.436-6.586-3.633-7.776-4.635c-3.208-2.702-7.056-2.161-9.969,0.717
					c-7.183,7.096-1.125,17.78,6.386,21.669c7.633,3.952,19.3,1.615,20.346-8.209c0.368-3.454-3.804-15.788-8.505-10.155"/>
				<path fill="#73A93B" d="M108.753,280.665c-1.424-0.042-4.194-3.076-6.709-3.338c0.383-0.211,0.967-1.033,1.363-1.284
					c-1.193-0.706-1.962-1.843-1.997-3.132c1.787-0.02,3.641-0.513,5.409-0.655c-2.442,3.504,3.035,3.506,4.809,5.287
					c-0.16,0.342-0.403,0.557-0.56,0.901c0.81,0.37,1.479,1.573,2.287,1.945c-0.943,1.72-2.733,2.45-4.23,1.063"/>
			</g>
			<g display="inline">
				<path fill="#D04747" d="M82.764,276.247c1.675,4.326-7.423,1.213-8.978,1.161c-4.192-0.142-6.883,2.661-7.395,6.724
					c-1.263,10.017,10.101,14.675,18.411,13.091c8.444-1.609,16.172-10.656,10.924-19.026c-1.845-2.943-12.746-10.063-12.962-2.729"
					/>
				<path fill="#73A93B" d="M80.815,278.586c-1.146,0.847-5.198,0.173-7.338,1.521c0.171-0.403,0.122-1.41,0.279-1.852
					c-1.374,0.182-2.681-0.237-3.506-1.229c1.393-1.12,2.546-2.653,3.848-3.857c0.245,4.264,4.553,0.881,7.048,1.186
					c0.085,0.368,0.028,0.687,0.117,1.054c0.865-0.209,2.135,0.323,3,0.117c0.321,1.935-0.635,3.615-2.669,3.45"/>
			</g>
			<g display="inline">
				<path fill="#E83C3A" d="M91.669,258.828c1.675,4.326-7.423,1.213-8.978,1.161c-4.192-0.142-6.883,2.661-7.395,6.724
					c-1.263,10.017,10.102,14.675,18.411,13.091c8.444-1.609,16.172-10.656,10.924-19.026c-1.845-2.943-12.746-10.063-12.962-2.729"
					/>
				<path fill="#73A93B" d="M89.72,261.167c-1.146,0.847-5.198,0.173-7.338,1.521c0.171-0.403,0.122-1.41,0.279-1.852
					c-1.374,0.182-2.681-0.237-3.506-1.229c1.393-1.12,2.546-2.653,3.848-3.857c0.245,4.264,4.553,0.881,7.048,1.186
					c0.085,0.368,0.028,0.687,0.117,1.054c0.865-0.209,2.135,0.323,3,0.117c0.321,1.935-0.635,3.615-2.669,3.45"/>
			</g>
		</g>
		<g display="none">
			<g display="inline">
				<path fill="#D0B412" d="M204.395,291.738c0,0-11.84-4.113-16.268-13.354c-4.427-9.241-7.694-22.334,5.788-37.295
					c0,0-0.468,6.423,0.585,14.896c1.053,8.473,1.007,23.652,10.772,31.268c0,0,0.453,2.374,3.153,2.989
					c2.699,0.614,7.673,8.702,4.986,7.097C210.725,295.734,204.395,291.738,204.395,291.738z"/>
				<path fill="#45433C" d="M190.168,273.897c-0.51,1.156-0.806,2.131,0.473,2.881c1-1.105,1.613-2.215-0.205-2.82"/>
				<path fill="#45433C" d="M192.805,258.474c-1.575,1.155-1.581,2.564-0.135,3.815c0.275-0.227,0.573-0.602,0.745-0.912
					c-0.867-0.824-0.589-1.869-0.671-2.635"/>
				<path fill="#45433C" d="M195.945,282.219c0.16,0.096,0.37,1.228,1.031,1.616c0.92-0.744,0.172-1.561-0.746-1.382"/>
			</g>
			<g display="inline">
				<path fill="#E4CB18" d="M202.024,295.282c0,0-13.674,0.362-21.755-7.367c-8.081-7.729-16.462-19.839-8.461-40.309
					c0,0,1.997,6.739,6.338,14.984c4.34,8.245,10.142,23.761,23.047,27.774c0,0,1.378,2.25,4.371,1.837s11.187,5.928,7.826,5.324
					C210.027,296.922,202.024,295.282,202.024,295.282z"/>
				<path fill="#45433C" d="M177.789,272.793c-0.076,1.377-0.002,2.487,1.593,2.759c0.595-1.514,0.793-2.883-1.296-2.8"/>
				<path fill="#45433C" d="M171.434,265.8c-1.164,1.786-0.627,3.227,1.332,3.947c0.193-0.337,0.353-0.836,0.409-1.218
					c-1.203-0.508-1.322-1.682-1.7-2.432"/>
				<path fill="#45433C" d="M189.728,288.819c0.2,0.036,0.851,1.112,1.675,1.253c0.653-1.115-0.426-1.66-1.294-1.124"/>
			</g>
			<g display="inline">
				<path fill="#FFE005" d="M201.792,299.064c0,0-12.835,4.729-22.969,0c-10.133-4.729-21.955-13.511-20.942-35.466
					c0,0,4.053,5.742,10.809,12.16c6.755,6.418,17.226,19.253,30.738,18.915c0,0,2.027,1.689,4.729,0.338
					c2.702-1.351,12.498,2.027,9.12,2.533C209.898,298.051,201.792,299.064,201.792,299.064z"/>
				<path fill="#45433C" d="M172,289.787c0.37,1.328,0.796,2.356,2.394,2.102c0.078-1.624-0.173-2.985-2.126-2.236"/>
				<path fill="#45433C" d="M162.356,272.241c-0.529,2.065,0.442,3.258,2.528,3.311c0.075-0.381,0.066-0.905-0.003-1.285
					c-1.302-0.095-1.791-1.169-2.391-1.758"/>
				<path fill="#45433C" d="M188.072,296.886c0.202-0.03,1.163,0.78,1.988,0.649c0.261-1.265-0.936-1.436-1.587-0.649"/>
			</g>
			<path display="inline" fill="#45433C" d="M209.369,290.591c-1.405-0.57-0.459,3.965,0.439,4.654
				c1.055,0.81,3.072,1.649,4.363,2.163c0.332-2.159-2.646-6.719-4.936-6.951"/>
		</g>
		<g display="none">
			<g display="inline">
				<g>
					<path fill="#6F8051" d="M158.973,267.838c0,0-4.932-6.424-13.961-5.026c0,0-3.822-4.287-10.368,1.399
						c0,0-3.78,3.221-4.967,12.469s-0.978,15.663,4.641,17.902c0,0,0.02,3.308,3.93,4.687c0,0,3.126,1.78,6.37,0.129
						c0,0,5.927,2.807,11.32-2.447s10.686-15.631,11.19-18.017c0.504-2.385,2.345-8.349-4.138-11.329
						C162.99,267.606,161.51,266.619,158.973,267.838z"/>
					<g>
						<path fill="#9DA768" d="M147.79,269.199c0,0,1.116,0.845,2.015,1.604s2.145,1.555,3.073,1.224l1.228,0.299
							c0,0,0.244-0.614-0.353-1.753c0,0,0.886-14.419-3.247-17.117c0,0-2.671-1.465-4.359,2.269c0,0-0.456,1.271,0.833,2.435
							c0,0,2.211-0.521,2.592,0.532C149.953,259.745,151.436,263.691,147.79,269.199z"/>
					</g>
				</g>
				<g>
					<g>
						<defs>
							<path id="SVGID_1_" d="M158.973,267.838c0,0-4.932-6.424-13.961-5.026c0,0-3.822-4.287-10.368,1.4
								c0,0-3.78,3.221-4.967,12.469s-0.978,15.663,4.641,17.902c0,0,0.02,3.308,3.93,4.687c0,0,3.126,1.78,6.37,0.129
								c0,0,5.927,2.807,11.32-2.447s10.686-15.631,11.19-18.017c0.504-2.385,2.345-8.349-4.138-11.329
								C162.99,267.606,161.51,266.619,158.973,267.838z"/>
						</defs>
						<clipPath id="SVGID_2_">
							<use xlink:href="#SVGID_1_"  overflow="visible"/>
						</clipPath>
						<path clip-path="url(#SVGID_2_)" fill="#596731" d="M156.937,265.88c0,0-2.234,26.919-21.777,31.119s0.442,5.821,0.982,6.091
							s40.78-0.945,40.78-0.945l1.89-36.265H156.937z"/>
					</g>
				</g>
			</g>
			<path display="inline" fill="#596731" d="M134.657,292.783c-0.032-1.19,0.364-2.204,0.635-3.347
				c0.519-2.191,0.955-4.381,1.591-6.549c1.31-4.462,3.036-8.994,5.349-13.035c-1.241,1.988-2.719,3.806-3.821,5.916
				c-1.314,2.516-2.015,5.19-2.964,7.832C134.385,286.555,132.925,289.884,134.657,292.783"/>
			<path display="inline" fill="#6F8051" d="M148.07,294.763c-0.195-0.128,0.526-0.397,0.828-0.621
				c0.876-0.649,1.674-1.464,2.417-2.259c1.167-1.248,2.259-2.418,3.171-3.874c0.796-1.269,3.047-3.585,2.842-5.191
				c-0.854,0.815-1.509,1.712-2.165,2.689c-1.062,1.582-2.413,2.803-3.745,4.15c-1.122,1.135-3.722,3.22-3.619,5.017"/>
		</g>
		<g>
			<ellipse fill="#EAE4DF" cx="63.471" cy="236.275" rx="36.577" ry="4.167"/>
			<g>
				<path fill="#7A7775" d="M26.895,236.275c0,0,0.039,0.066,0.14,0.157c0.111,0.086,0.28,0.199,0.526,0.309
					c0.49,0.219,1.242,0.452,2.227,0.647c0.977,0.215,2.192,0.37,3.581,0.535c1.392,0.151,2.969,0.277,4.693,0.387
					c0.86,0.064,1.758,0.111,2.691,0.139c0.933,0.028,1.888,0.114,2.881,0.13c1.981,0.054,4.07,0.112,6.232,0.171
					c2.159,0.085,4.4,0.042,6.67,0.117c2.274,0.025,4.583,0.05,6.893,0.075c2.268,0.015,4.598-0.008,6.861-0.05
					c2.269-0.048,4.503-0.096,6.664-0.142c2.159-0.077,4.249-0.126,6.225-0.224c1.977-0.096,3.844-0.203,5.566-0.324
					c1.721-0.134,3.293-0.286,4.685-0.45c0.7-0.07,1.334-0.212,1.938-0.287c0.605-0.076,1.152-0.177,1.635-0.303
					c0.493-0.109,0.932-0.207,1.315-0.292c0.369-0.126,0.683-0.233,0.938-0.32c0.516-0.179,0.792-0.275,0.792-0.275
					s-0.251,0.147-0.721,0.422c-0.24,0.138-0.535,0.308-0.883,0.509c-0.368,0.153-0.792,0.329-1.266,0.526
					c-0.475,0.209-1.012,0.401-1.604,0.576c-0.59,0.184-1.231,0.4-1.924,0.57c-0.694,0.171-1.433,0.354-2.212,0.546
					c-0.782,0.171-1.61,0.315-2.473,0.486c-1.727,0.314-3.605,0.62-5.597,0.847c-1.992,0.25-4.095,0.479-6.275,0.63
					c-2.18,0.159-4.432,0.33-6.724,0.399c-2.299,0.076-4.604,0.14-6.971,0.153c-2.325-0.061-4.65-0.121-6.939-0.181
					c-2.29-0.088-4.54-0.213-6.72-0.378c-2.179-0.128-4.283-0.359-6.275-0.578c-1.994-0.228-3.874-0.476-5.603-0.791
					c-1.731-0.275-3.309-0.621-4.696-0.966c-1.389-0.341-2.585-0.711-3.547-1.09c-0.97-0.346-1.686-0.765-2.14-1.077
					c-0.228-0.16-0.38-0.311-0.473-0.419C26.917,236.342,26.895,236.275,26.895,236.275z"/>
			</g>
		</g>
		<g display="none">
			<path display="inline" fill="#6C358C" d="M47.442,249.336c0,0-1.884,17.525-5.747,21.482s-12.814,14.698-5.747,22.33
				c0,0,12.531,10.741,25.062-1.036c0,0,14.698-10.929,5.182-41.928l-6.784-6.03L47.442,249.336z"/>
			<g display="inline">
				<g>
					<defs>
						<path id="SVGID_3_" d="M47.442,249.336c0,0-1.884,17.525-5.747,21.482s-12.814,14.698-5.747,22.33
							c0,0,12.531,10.741,25.062-1.036c0,0,14.698-10.929,5.182-41.928l-6.784-6.03L47.442,249.336z"/>
					</defs>
					<clipPath id="SVGID_4_">
						<use xlink:href="#SVGID_3_"  overflow="visible"/>
					</clipPath>
					<path clip-path="url(#SVGID_4_)" fill="#462666" d="M56.77,243.683c-0.094-0.283,25.91,25.157-19.503,52.669l19.598,6.124
						l14.887-21.953l-3.769-36.842l-11.306,0.473"/>
				</g>
			</g>
			<path display="inline" fill="#73A93B" d="M59.777,248.1c-1.57,2.664-2.392,5.407-2.935,8.469
				c-1.215-0.165-2.194-2.658-2.555-3.678c-0.427-1.205-0.623-3.556-2.109-3.641c-2.658-0.152-5.051,2.376-7.558,2.604
				c0.664-2.169,3.293-4.169,4.976-5.636c2.391-2.085,4.305-4.038,7.629-4.43c2.922-0.345,3.508,1.383,5.256,3.272
				c1.334,1.442,2.651,3.035,4.265,4.176c1.071,0.756,2.329,1.209,3.207,2.163c-2.257,0.845-5.853,2.207-8.089,0.64
				c-1.345-0.942-1.144-2.578-2.088-3.561"/>
			<path display="inline" fill="#439535" d="M56.762,242.73c-0.121-2.001-1.609-3.791-1.697-5.859
				c0.902-0.228,3.229-0.859,3.966-0.172c0.825,0.769,0.307,3.733,0.18,4.814c-0.176,1.495-0.89,1.753-2.355,1.217"/>
		</g>
		<g display="none">
			
				<ellipse transform="matrix(0.5804 -0.8143 0.8143 0.5804 -39.7324 207.944)" display="inline" fill="#BED788" cx="181.92" cy="142.528" rx="32.744" ry="10.086"/>
			<path display="inline" fill="#62882D" d="M201.618,116.365c0,0,28.772,18.518,14.438,47.918c0,0-16.635,26.261-52.626,5.44
				c0,0,13.497-2.302,27.202-25.005C190.633,144.718,206.222,122.956,201.618,116.365z"/>
			<g display="inline">
				<g>
					<defs>
						<path id="SVGID_5_" d="M201.618,116.365c0,0,28.772,18.518,14.438,47.918c0,0-16.635,26.261-52.626,5.44
							c0,0,13.497-2.302,27.202-25.005C190.633,144.718,206.222,122.956,201.618,116.365z"/>
					</defs>
					<clipPath id="SVGID_6_">
						<use xlink:href="#SVGID_5_"  overflow="visible"/>
					</clipPath>
					<g clip-path="url(#SVGID_6_)">
						<path fill="#506026" d="M169.499,166.061c0.874,0.057,2.138,1.293,3.01,1.804c0.234,0.137,1.039,0.747,1.379,0.736
							c0.13-0.004,0.588-0.214,0.609-0.212c0.694,0.064,0.62-0.146,1.479,0.391c0.854,0.534,1.688,0.843,2.611,1.231
							c1.226,0.515,2.702,1.101,3.816,1.801c0.828,0.52,1.108,1.381,1.86,1.877c1.211,0.799,2.493,0.909,3.868,1.156
							c2.192,0.394,4.336,1.044,6.577,1.342c2.623,0.349,6.387,0.691,8.9-0.319c-0.493-0.14-1.095-0.276-1.646-0.286
							c0.625-0.097,1.285-0.321,1.914-0.52c-1.721-0.447-4.164-0.261-5.93-0.189c-2.271,0.093-4.458-0.606-6.467-1.69
							c-1.119-0.604-2.355-1.005-3.46-1.606c-0.754-0.41-1.272-1.068-1.984-1.525c-1.923-1.234-3.954-1.437-5.675-3.039
							c-1.092-1.016-2.401-1.955-3.413-3.042c-0.607-0.652-1.01-1.702-2.113-1.576c-1.371,0.156-3.719,2.379-4.813,3.352"/>
						<path fill="#506026" d="M183.414,154.343c0.35,1.698,2.255,4.038,3.776,4.799c1.803,0.901,3.261,2.268,5.001,3.327
							c0.549,0.334,1.187,0.475,1.677,0.853c0.809,0.622,1.264,1.596,2.093,2.229c1.642,1.254,3.836,1.714,5.739,2.478
							c1.739,0.697,3.602,0.955,5.35,1.59c1.185,0.431,2.257,0.841,3.547,0.947c0.968,0.079,1.197,0.06,1.793-0.521
							c0.499-0.486,1.265-1.513,1.537-2.165c-1.451,0.32-2.61-0.512-3.829-1.214c-2.076-1.196-4.408-2.078-6.387-3.422
							c-0.931-0.633-1.731-1.631-2.75-2.117c-0.881-0.421-1.755-0.35-2.706-0.401c-1.715-0.092-2.155-1.852-3.436-2.93
							c-1.297-1.091-2.908-1.523-4.059-2.82c-1.236-1.393-2.396-2.412-3.9-3.484c-1.098-0.782-1.328-1.119-2.197,0.105
							c-0.476,0.671-0.648,1.943-1.564,2.118"/>
						<path fill="#506026" d="M201.304,121.91c3.47,1.709,6.492,4.342,9.495,6.804c2.186,1.793,4.017,4.383,5.489,6.797
							c0.649,1.064,1.189,2.212,1.882,3.241c0.759,1.126,1.749,2.068,2.41,3.25c0.19,0.339,0.691,1.017,0.61,1.465
							c-0.058,0.321-0.558,0.643-0.658,1.032c-1.584-1.883-2.852-4.017-4.816-5.643c-2.721-2.254-4.859-4.996-7.715-7.106
							c-1.345-0.993-2.495-2.176-3.966-3.004c-1.05-0.591-2.242-1.125-3.232-1.817c-1.548-1.083-0.894-3.246-0.44-4.915"/>
						<path fill="#506026" d="M194.608,134.36c4.421,0.351,8.209,5.137,11.628,7.857c1.453,1.156,2.801,2.383,4.256,3.547
							c0.691,0.553,1.532,1.12,2.121,1.769c0.668,0.736,0.947,1.736,1.689,2.422c2.079,1.922,4.472,2.924,6.068,5.439
							c0.413,0.651,0.482,0.475,0.298,1.236c-0.202,0.834-1.169,1.93-1.807,2.491c-3.074-2.816-6.862-4.47-10.365-6.656
							c-1.916-1.196-4.222-2.094-5.929-3.581c-1.461-1.273-2.431-2.954-3.989-4.19c-1.265-1.004-2.469-2.067-3.8-2.995
							c-0.51-0.356-2.346-1.299-2.461-2.005c-0.083-0.512,0.606-1.044,0.831-1.472c0.486-0.923,0.658-1.87,1.438-2.624
							c0.627-0.606,1.487-1.011,2.323-1.239"/>
					</g>
				</g>
			</g>
			
				<ellipse transform="matrix(0.5804 -0.8143 0.8143 0.5804 -39.7296 207.0082)" display="inline" fill="#DE606A" cx="181.013" cy="142.057" rx="28.584" ry="7.722"/>
			<path display="inline" fill="#192417" d="M177.659,152.46c-0.208,0.902,1.092,2.35,1.354,0.756
				c-0.388-0.173-0.756-0.383-1.145-0.547"/>
			<path display="inline" fill="#192417" d="M166.988,157.901c0.632-0.322,1.612,0.138,2.303,0.185
				c0.005-1.374,0.159-1.227-0.946-1.331c-0.936-0.088-1.283-0.151-1.357,0.937"/>
			<path display="inline" fill="#192417" d="M171.277,147.229c0.394,0.557,0.46,1.39,1.15,1.67
				C173.352,148.035,172.08,147.262,171.277,147.229"/>
			<path display="inline" fill="#192417" d="M181.635,132.059c-0.191,0.547-0.115,1.176-0.089,1.749
				c1.214,0.125,0.524-1.221,0.193-1.749"/>
			<path display="inline" fill="#192417" d="M187.389,141.998c-0.584,0.239-1.317,0.08-1.876-0.204
				c0.07-0.84,0.931-0.456,1.458-0.215"/>
			<path display="inline" fill="#192417" d="M192.934,127.141c-0.609,0.157-1.037,0.798-0.955,1.437
				c-1.719-1.377-0.016-2.495,0.537-1.541"/>
		</g>
		<g display="none">
			<rect x="29.72" y="87.944" display="inline" fill="#B54A49" width="93.287" height="9.644"/>
			<rect x="89.545" y="87.944" display="inline" fill="#963636" width="33.462" height="9.644"/>
			<rect x="47.211" y="80.085" display="inline" fill="#AF9154" width="77.57" height="7.858"/>
			<rect x="99.685" y="80.085" display="inline" fill="#876B38" width="25.096" height="7.858"/>
			<rect x="34.79" y="70.453" display="inline" fill="#D7CFC4" width="67.43" height="9.633"/>
			<rect x="48.986" y="70.453" display="inline" fill="#A29B92" width="53.234" height="9.633"/>
		</g>
		<g display="none">
			<path display="inline" fill="#AB2C32" d="M145.379,159.531c-4.085,0.355-12.203-3.994-10.785,4.216
				c1.148,6.648,7.519,14.346,14.816,14.186c7.33-0.161,11.394-12.672,8.52-18.589c-1.001-2.061-3.682-3.432-5.999-3.094
				c-2.387,0.348-3.72,3.16-6.3,3.03"/>
			<path display="inline" fill="#E3BCBF" d="M135.802,161.295c1.039,3.551,1.178,7.692,4.857,9.84
				c1.792,1.046,4.928,1.222,4.171-1.776c-0.273-1.082-1.809-1.652-2.475-2.458c-0.891-1.079-1.011-2.411-1.765-3.602
				c-1.026-1.621-2.608-2.525-4.536-2.76"/>
			<path display="inline" fill="#E3BCBF" d="M157.223,162.807c0,2.263,0.52,10.026-3.232,9.79c-0.922-2.654-0.269-8.404,2.728-9.538
				"/>
			<path display="inline" fill="#382915" d="M145.379,159.279c-1.435-0.91-8.313-10.156-3.062-9.056
				c0.152,1.851-0.188,3.614,0.732,5.397C143.688,156.859,145.122,157.993,145.379,159.279"/>
			<path display="inline" fill="#6F8051" d="M141.346,153.483c-2.133-2.066-4.261-3.305-7.257-3.534
				c-2.488-0.19-3.898-0.254-2.269,2.022C133.587,154.439,139.711,157.242,141.346,153.483"/>
		</g>
		<rect x="4.898" y="323.004" fill="#829FC1" width="234.614" height="4.501"/>
		<path fill="none" stroke="#829FC1" stroke-width="9" stroke-miterlimit="10" d="M240.964,97.011l0.125-53.293
			c0,0,59.566-25.859,116.39-24.814l1.31,80.451H238.551"/>
		<path fill="#829FC1" d="M245.923,96.887V48.232c0,0,77.36-27.745,110.165-21.87l1.391-7.459l-62.757,6.153l-55.652,17.79
			l0.815,56.804L245.923,96.887z"/>
	</g>
</g>
</svg>
