<?xml version="1.0" encoding="utf-8"?>
<!-- Generator: Adobe Illustrator 17.0.0, SVG Export Plug-In . SVG Version: 6.00 Build 0)  -->
<!DOCTYPE svg PUBLIC "-//W3C//DTD SVG 1.1//EN" "http://www.w3.org/Graphics/SVG/1.1/DTD/svg11.dtd">
<svg version="1.1" id="Слой_1" xmlns="http://www.w3.org/2000/svg" xmlns:xlink="http://www.w3.org/1999/xlink" x="0px" y="0px"
	 width="3200px" height="400px" viewBox="0 0 3200 400" enable-background="new 0 0 3200 400" xml:space="preserve">
<g>
	<g transform="translate(0.000000,150.000000) scale(0.100000,-0.100000)">
		<path fill="none" stroke="#000000" stroke-width="20" stroke-miterlimit="10" d="M1221.889,811.248
			c-9.638-9.638-53.011-14.458-98.793-12.048c-50.601,4.819-84.336-4.819-84.336-21.686c0-14.458-14.458-21.686-28.915-16.867
			c-16.867,7.229-48.192-12.048-72.288-38.553l-40.963-50.601l-38.553,55.42c-60.24,81.926-120.479,67.468-166.261-43.372
			c-31.325-79.516-48.192-96.383-103.612-96.383c-86.745,2.41-248.187,74.697-306.017,139.756
			c-65.059,74.697-81.926,48.192-57.83-96.383c9.638-69.878,24.096-202.405,28.915-296.379
			c4.819-91.564,24.096-219.272,43.373-279.512c36.144-106.022,33.734-118.07-31.325-298.789
			c-38.553-106.022-69.878-192.767-69.878-197.586c0-4.819,26.505-19.277,60.24-31.325c156.623-60.24,166.261-57.83,334.932,84.335
			c139.756,118.07,171.081,134.937,233.73,122.889c38.553-7.229,93.974-4.819,125.298,7.229
			c69.878,26.505,154.213-4.819,171.081-65.059c9.638-26.505,38.553-53.011,62.649-60.24c26.505-7.229,65.059-53.011,84.335-101.203
			c43.373-101.203,31.325-190.357-89.155-684.322c-93.974-392.762-120.479-445.773-250.597-496.375
			c-55.42-21.686-118.07-65.059-139.756-93.974c-33.734-55.42-33.734-57.83,38.553-72.287
			c40.963-7.229,98.793-14.458,132.527-14.458c74.697,0,199.995,65.059,199.995,103.612c0,14.458,24.096,72.288,53.011,127.708
			c50.601,96.383,53.011,98.793,142.166,77.107c69.878-19.277,101.203-14.458,151.804,16.867
			c60.24,38.553,74.697,81.926,98.793,277.102c4.819,45.782,9.638,84.335,12.048,84.335c2.41,0,7.229,142.166,12.048,313.246
			c14.458,450.592,16.867,457.821,127.708,465.05c48.192,4.819,154.213,16.867,233.73,28.915
			c79.516,12.048,209.634,28.915,289.15,36.144c192.767,19.277,231.32,33.734,293.969,96.383
			c28.915,28.915,93.974,72.288,144.575,98.793c50.601,24.096,101.203,60.24,110.841,77.107
			c9.638,14.458,28.915,28.915,40.963,28.915c24.096,0,72.288-132.527,72.288-204.815c0-86.745,115.66-322.884,233.73-479.507
			c204.815-269.874,250.597-460.231,159.033-652.998c-24.096-53.011-67.469-106.022-96.384-122.889
			c-31.324-14.458-77.107-45.782-103.612-69.878c-65.059-57.83-26.505-84.336,125.298-84.336
			c122.889,0,166.261,36.144,197.586,173.49c12.048,48.192,31.325,67.468,69.878,67.468c132.527,0,159.032,24.096,187.948,163.852
			c14.458,74.697,26.505,216.863,24.096,315.656c-2.41,146.985-12.048,187.948-53.011,226.501
			c-40.963,38.553-45.782,62.649-33.734,139.756c9.638,53.011,19.277,118.07,24.096,149.394
			c2.409,28.915,24.096,101.203,45.782,161.442c50.601,137.346,74.697,371.076,53.011,518.061
			c-24.096,151.804-142.166,277.102-361.438,385.534c-240.958,118.07-327.704,127.708-836.126,96.383
			c-481.917-31.325-1060.218-16.867-1146.963,31.325C1373.693,830.525,1248.395,837.753,1221.889,811.248z"/>
	</g>
</g>
<g>
	<g transform="translate(0.000000,150.000000) scale(0.100000,-0.100000)">
		<path fill="none" stroke="#000000" stroke-width="20" stroke-miterlimit="10" d="M6075.969,1219.424
			c54.001-152.184,51.546-157.094-90.82-152.184c-95.729,4.909-117.82,0-81.001-14.728c27-12.273,78.547-24.546,112.911-24.546
			c98.184-2.455,130.093-56.455,95.729-159.548c-24.546-73.638-46.637-93.274-166.912-137.457
			c-76.092-27-159.548-61.365-181.639-73.638c-61.365-34.364-68.729-31.91-95.729,49.092c-39.273,105.547-58.91,90.82-58.91-41.728
			c0-110.456-4.909-117.82-71.183-125.184c-73.637-9.818-120.274,31.91-100.638,85.911c4.909,17.182,0,56.456-12.273,85.911
			c-19.637,54.001-22.091,54.001-22.091-9.818c-2.455-81.001-2.455-81.001-125.184-19.637
			c-81.001,41.728-98.184,61.365-98.184,125.184c0,41.728,12.273,98.183,27,125.184c19.637,36.819,19.637,46.637,0,34.364
			c-17.182-12.273-29.455,29.455-31.91,125.184c-2.455,98.183-7.364,115.365-12.273,56.455
			c-7.364-46.637-19.637-95.729-31.91-108.002s-12.273-44.183-2.455-73.638c12.273-27,9.818-78.547,0-110.456
			c-22.091-56.456-24.546-56.456-71.183-14.728c-31.91,29.455-49.092,78.547-51.546,144.821
			c-2.455,56.456-9.818,78.547-14.728,51.546c-7.364-27-24.546-56.456-36.819-63.819
			c-54.001-34.364,130.093-243.004,277.368-319.096c56.456-27,95.729-56.456,88.365-61.365c-7.364-7.364-46.637,4.909-88.365,24.546
			c-39.273,22.091-115.366,39.273-166.912,39.273h-93.274l98.184-85.911c54-46.637,132.547-98.183,174.275-112.911
			c73.638-27,76.092-36.819,66.274-130.093c-7.364-56.456-39.273-142.366-73.638-193.912
			c-103.093-162.003-36.819-279.823,120.275-218.458c122.729,49.092,125.184,46.637,149.729-44.183
			c12.273-46.637,54.001-179.185,93.274-294.55c73.638-225.822,78.547-309.278,73.638-981.835l-2.455-380.461l166.912-149.73
			c144.82-132.548,174.275-149.73,245.458-137.457c44.183,4.909,85.911,22.091,93.274,34.364
			c19.637,31.91-36.819,68.728-108.002,68.728c-31.91,0-88.365,36.819-135.002,90.82
			c-147.275,166.912-144.82,162.003-103.092,338.733c49.091,218.458,98.183,306.823,166.912,306.823
			c46.637,0,61.365-27,110.457-179.185c29.455-95.729,54.001-218.458,54.001-270.005c0-56.455,24.546-137.457,61.365-198.822
			l61.364-103.093l-49.091-132.548c-61.365-169.366-61.365-191.458,7.364-186.549c41.728,2.455,56.455,19.637,61.364,83.456
			c9.818,85.911,12.273,88.365,76.092,56.456c24.546-14.728,56.456-14.728,78.547-2.455c27,19.637,22.091,34.364-29.455,85.911
			l-63.819,63.819l83.456,250.368c83.456,245.459,83.456,252.823,56.456,439.371c-29.455,191.458-22.091,240.549,36.819,240.549
			c19.637,0,44.183,17.182,56.456,41.728c19.637,31.91,31.91,24.546,68.728-54.001c24.546-51.546,73.638-110.456,110.457-132.548
			l66.274-36.819l-61.365-93.274c-34.364-49.092-88.365-108.002-120.275-130.093c-31.909-19.637-58.91-58.91-58.91-85.911
			c0-24.546-9.818-51.546-22.091-58.91s-27-41.728-31.91-76.092c-9.818-46.637-2.455-61.365,27-61.365
			c58.91,0,100.638,49.092,100.638,112.911c0,34.364,63.819,125.184,159.548,228.277c88.365,95.729,159.548,196.367,159.548,225.822
			c0,27-29.455,76.092-66.274,110.456c-61.365,56.456-63.819,71.183-68.729,324.005c-4.909,208.64-17.182,289.641-58.91,382.916
			c-29.455,68.728-51.546,169.366-51.546,238.095c0,112.911-61.365,292.096-100.638,292.096
			c-36.818,0-51.546-103.093-34.364-225.822l17.182-122.729l-78.547,17.182c-44.183,9.818-125.184,4.909-186.549-12.273
			c-85.911-24.546-127.638-24.546-218.458,2.455c-63.819,19.637-122.729,44.183-135.002,58.91
			c-41.728,51.546-218.458,515.463-201.276,527.736c9.818,9.818,83.456,34.364,162.002,58.91
			c147.275,44.183,272.459,139.911,252.823,193.912c-19.637,61.365-166.912,46.637-328.915-31.91
			c-85.91-41.728-169.366-73.638-186.548-66.274c-14.728,4.909,81.001,63.819,216.003,130.093
			c198.822,98.183,247.914,132.548,265.096,189.003c14.728,44.183,14.728,90.82,0,122.729
			c-14.728,29.455-44.183,117.82-68.729,196.367c-24.546,76.092-54.001,139.911-63.819,139.911
			C6048.968,1320.063,6056.332,1273.425,6075.969,1219.424z"/>
	</g>
</g>
<g>
	<g transform="translate(0.000000,150.000000) scale(0.100000,-0.100000)">
		<path fill="none" stroke="#000000" stroke-width="20" stroke-miterlimit="10" d="M9711.853,695.804
			c-39.19-26.943-53.887-29.393-53.887-7.348c0,17.146-26.942,4.899-61.234-26.943l-61.234-56.336v53.886
			c0,41.64-7.349,51.437-29.393,34.291c-17.146-12.247-63.685-36.741-102.874-51.437c-61.235-26.943-68.583-26.943-56.336,7.348
			c9.797,19.595,4.898,36.741-4.899,36.741c-12.246,0-26.942-17.146-36.74-36.741c-7.349-19.595-29.393-29.393-51.438-22.044
			c-19.595,9.797-36.74,2.449-36.74-14.696c0-19.595-19.596-24.494-56.336-14.696c-44.089,9.798-61.234-2.449-88.178-58.785
			c-17.146-41.64-41.64-68.583-53.887-58.785c-12.247,7.348-22.045,0-22.045-14.696c0-17.146-12.246-24.494-29.393-19.595
			c-17.146,7.348-56.336-14.696-88.178-46.538c-29.393-31.842-66.133-56.336-78.38-56.336c-14.696,0-24.494-22.044-24.494-48.988
			s-17.146-48.988-39.19-48.988c-19.595,0-29.393,9.798-22.044,24.494c7.348,14.696-2.449,17.146-24.494,9.798
			c-26.943-9.798-34.291-31.842-22.044-68.583c12.246-39.19,9.797-44.089-14.696-22.044c-24.494,22.044-46.539,9.798-100.425-44.089
			c-39.19-41.64-63.685-85.728-56.336-100.425c12.247-17.146,4.898-22.044-19.596-12.247
			c-46.538,17.146-120.02-117.57-97.975-176.356c12.246-34.291,7.348-34.291-26.943-7.348
			c-34.292,29.393-41.64,24.494-56.336-29.393c-12.247-56.336-22.045-61.235-53.887-34.291s-34.291,24.494-17.146-29.393
			c9.797-34.291,26.943-71.032,39.19-83.279c34.291-36.741,26.942-78.38-7.349-44.089c-58.785,58.785-75.931,29.393-19.595-31.842
			c31.842-34.291,48.987-61.235,39.189-61.235c-9.797,0,4.899-31.842,31.843-71.032c36.74-51.437,46.538-90.627,36.74-146.963
			c-9.798-46.538-4.898-90.627,14.696-112.672c17.146-19.595,29.393-102.874,29.393-195.951
			c0-122.469-12.247-176.356-53.887-232.692c-31.842-44.089-48.987-100.425-44.089-139.615
			c7.349-58.785,19.596-71.032,90.628-75.931c46.538-4.899,117.57,7.348,159.21,29.393
			c85.729,41.64,289.027,115.121,462.934,169.008c122.469,36.741,296.376,17.146,347.813-41.64
			c14.696-14.696,83.279-24.494,154.312-24.494c71.032,2.449,127.368-7.348,127.368-19.595c0-14.696,17.146-12.247,39.189,7.348
			c29.394,24.494,41.64,24.494,56.336,0c12.247-17.146,29.393-26.943,41.64-22.044c44.089,14.696,39.19-112.672-7.348-146.963
			c-41.64-31.842-41.64-34.291,4.898-68.583c29.393-22.044,73.481-29.393,115.121-19.595c90.627,19.595,85.729,0-17.146-63.684
			c-102.874-63.684-105.323-83.279-17.146-117.571c95.525-39.19,230.242-4.899,266.982,68.583
			c17.146,34.291,44.089,71.032,61.235,85.728c19.595,12.247,80.829,117.571,137.165,230.242
			c56.336,112.672,102.874,193.501,102.874,183.704c0-12.247,12.247-4.899,24.494,14.696c22.044,31.842,26.943,31.842,46.538,0
			c12.247-19.595,17.146-44.089,12.247-53.886c-7.348-9.798,2.449-19.595,19.595-22.045c17.146,0,61.235-4.899,97.976-9.797
			c48.988-7.348,71.032,4.899,80.83,36.741c12.247,41.64,22.044,44.089,66.133,17.146c39.19-22.044,53.887-22.044,61.235,2.449
			c19.595,48.988,56.336,34.291,56.336-24.494c0-51.437,2.449-51.437,31.842-9.798c24.494,34.291,56.336,41.64,122.469,34.291
			c51.438-4.899,80.83,0,73.481,14.696c-9.797,12.247,2.45,17.146,26.943,7.348c24.494-9.798,48.988-17.146,53.887-17.146
			c31.842,0,2.449-48.988-39.19-61.235c-26.943-7.348-61.234-39.19-75.931-66.133c-24.494-44.089-22.044-48.988,12.247-36.741
			c22.044,9.797,39.19,4.899,39.19-7.348c0-26.943,120.02-31.842,181.254-9.798c22.045,7.348,39.19,26.943,39.19,39.19
			c0,34.291,188.603,210.647,247.388,227.793c34.292,12.247,44.089,29.393,34.292,63.684c-12.247,31.842-4.899,46.538,24.493,46.538
			c31.842,0,34.292,9.798,12.247,48.988c-17.146,31.842-17.146,48.988-2.449,48.988s19.595,17.146,12.247,36.741
			c-12.247,29.393-4.899,34.291,29.393,19.595c41.64-14.696,41.64-12.247,12.247,24.494s-22.045,51.437,29.393,44.089
			c26.943-4.899,22.044,41.64-7.349,58.785c-12.247,7.348-24.493,26.943-24.493,39.19c0,14.696,12.246,17.146,24.493,9.798
			c22.045-14.696,36.741,22.044,26.943,71.032c-2.449,14.696-9.798,73.482-12.247,134.716
			c-4.898,61.235-17.146,134.716-26.943,159.21c-14.696,34.291-12.246,41.64,7.349,29.393c17.146-9.798,29.393-4.899,29.393,7.348
			c0,14.696-17.146,26.943-36.741,26.943c-19.595,0-36.74,12.247-36.74,24.494c0,14.696,12.247,24.494,29.393,24.494
			s12.247,17.146-12.247,44.089c-142.064,151.862-142.064,151.862-97.976,151.862c26.943,0,14.696,19.595-41.64,61.235
			c-46.538,34.291-73.481,61.235-61.234,61.235c9.798,0-7.348,22.044-39.19,51.437c-31.842,29.393-56.336,61.235-51.437,73.482
			c2.449,12.247-17.146,22.044-46.538,22.044c-34.292,0-46.539,12.247-39.19,34.291c9.797,22.044-4.899,41.64-34.292,51.437
			c-24.493,9.798-46.538,26.943-46.538,39.19c0,12.247-12.247,22.044-26.943,22.044s-41.64,17.146-61.234,36.741
			c-22.044,19.595-58.785,36.741-85.729,36.741c-24.494,0-46.538,17.146-46.538,36.741c0,34.291-161.659,93.077-200.85,71.032
			c-9.798-7.348-19.595-2.449-19.595,9.798c0,12.247-66.134,36.741-146.964,51.437c-80.829,17.146-146.963,41.64-146.963,58.785
			c0,19.595-7.348,19.595-29.393-2.449c-31.842-31.842-117.57-39.19-117.57-9.798c0,9.798-34.292,19.595-73.481,22.044
			c-41.64,2.449-73.481-2.449-73.481-14.696c0-9.798-41.64-14.696-90.628-9.798c-53.886,2.449-115.121-9.798-151.861-31.842
			c-53.887-36.741-58.785-36.741-44.089,0c12.247,31.842,2.449,39.19-56.336,34.291c-41.64-2.449-73.481-12.247-73.481-22.044
			s-17.146-22.044-36.741-31.842c-31.842-9.798-34.291-4.899-12.247,34.291C9787.783,744.792,9782.885,747.241,9711.853,695.804z"/>
	</g>
</g>
<g>
	<g transform="translate(0.000000,150.000000) scale(0.100000,-0.100000)">
		<path fill="none" stroke="#000000" stroke-width="20" stroke-miterlimit="10" d="M13741.188,1291.733
			c-12.55-35.139-17.57-35.139-40.159-5.02c-15.06,25.099-27.609,30.119-40.159,10.04c-30.119-40.159-105.417-60.239-122.987-32.629
			c-10.039,15.06-27.608,15.06-50.198-5.02c-27.609-22.589-45.179-20.08-77.808,5.02c-37.649,30.119-40.159,30.119-25.1-7.53
			c10.04-30.119,5.02-37.649-22.59-27.609c-17.569,7.53-35.139,0-35.139-15.06c0-15.06-27.609-27.609-60.238-27.609
			c-60.239,0-70.278-32.629-32.63-90.358c10.04-17.57,0-37.649-22.589-45.179c-20.08-7.53-30.119-25.099-22.59-40.159
			c7.53-12.55-2.51-25.099-25.1-25.099c-27.609,0-37.648-12.55-27.609-37.649c7.53-20.08-2.51-52.709-22.589-70.278
			c-25.1-27.609-27.609-42.669-5.02-65.258c20.079-20.079,17.569-27.609-15.061-27.609c-40.158,0-45.179-10.04-52.708-95.378
			c-2.51-17.57-17.569-42.669-37.649-52.709c-22.589-15.06-25.1-27.609-5.02-37.649c15.06-10.04,17.569-37.649,5.02-72.788
			c-10.04-30.119-15.06-70.278-7.529-90.358c7.529-25.099-2.511-30.119-42.669-20.079c-40.159,10.04-52.709,2.51-52.709-35.139
			c0-25.099-12.55-47.689-27.609-47.689s-20.079-22.589-10.04-50.199c10.04-35.139,5.021-50.199-20.079-50.199
			c-42.669,0-122.987-85.338-100.397-107.927c7.529-10.04-5.02-17.57-27.609-17.57c-30.119,0-40.159-12.55-30.119-40.159
			c7.529-20.079,5.02-30.119-10.04-22.589s-25.1-12.55-25.1-45.179c0-40.159-17.569-65.258-47.688-75.298
			c-35.139-7.53-52.709-37.649-57.729-95.378c-5.02-47.689-17.569-82.828-32.629-80.318c-37.649,5.02-62.749-52.709-50.199-115.457
			c5.021-27.609,2.511-52.709-7.529-52.709c-30.119,0-30.119-271.073,0-343.861c15.06-37.649,30.119-80.318,32.629-95.378
			c7.53-55.219,45.179-112.947,72.788-112.947c15.06,0,30.119-25.099,32.629-55.219c7.53-100.397,27.609-185.735,52.709-235.934
			c45.179-85.338,90.357-198.285,92.868-225.894c2.51-50.199,90.357-160.636,128.007-160.636c20.079,0,42.669-15.06,50.198-35.139
			c7.53-20.079,47.688-45.179,87.848-52.709c40.159-10.04,77.809-27.609,85.338-40.159c10.04-12.55,37.649-22.589,65.259-22.589
			c25.099,0,47.688-10.04,47.688-20.08c0-35.139,336.331-102.907,489.438-100.397c87.848,2.51,180.716-12.55,225.895-35.139
			c42.669-20.08,120.477-40.159,175.695-42.669c140.557-10.04,163.146-30.119,210.835-165.656
			c52.709-160.636,115.457-185.735,95.378-40.159c-7.53,57.729-2.511,97.887,10.039,87.848c12.55-7.53,22.59-27.609,22.59-45.179
			c0-40.159,65.258-97.887,115.457-105.417c50.198-7.53,42.669,37.649-27.609,160.636c-57.729,102.907-50.199,143.066,12.55,67.768
			c47.688-57.729,107.927-47.689,92.867,12.55c-7.529,27.609-2.51,50.199,12.55,50.199c12.55,0,40.159,17.57,60.238,37.649
			c22.59,20.08,60.239,37.649,82.828,37.649c25.1,0,60.238,17.57,77.809,37.649c60.238,72.788-92.868,180.715-183.226,133.027
			c-67.769-35.139-75.298-12.55-22.59,57.729c25.1,32.629,62.749,100.397,80.318,148.086
			c20.079,47.689,60.238,130.517,92.867,180.715c32.63,52.709,57.729,110.437,57.729,130.517c0,20.08,22.59,45.179,50.199,52.709
			s67.769,32.629,90.357,55.219c35.14,35.139,45.179,32.629,105.418-22.589c37.648-35.139,110.437-72.788,165.655-80.318
			c90.357-17.57,95.378-15.06,82.828,32.629c-7.53,35.139,0,52.709,20.079,52.709c45.179,0,133.027,128.007,125.497,180.715
			c-10.04,62.748-72.788,140.556-163.146,208.325l-82.828,60.238l72.788,30.119c240.954,95.378,243.464,95.378,223.385,168.166
			c-7.53,37.649-22.59,153.106-30.12,256.014c-12.549,170.676-22.589,195.775-110.437,301.192
			c-82.828,97.888-97.888,133.027-97.888,230.914c0,75.298-17.569,135.537-47.688,173.186l-45.18,57.729l-35.139-62.748
			c-20.079-32.629-47.688-82.828-62.748-110.437c-35.14-65.258-235.935-87.848-235.935-27.609c0,20.079-25.1,67.768-57.729,105.417
			l-57.729,67.768l-55.219-70.278c-30.119-37.649-55.219-105.417-55.219-150.596c0-85.338-55.218-153.106-138.046-168.166
			c-60.238-10.04-67.769,65.258-17.57,148.086c20.08,30.119,27.609,67.768,20.08,80.318c-10.04,12.55-2.51,32.629,12.55,42.669
			c17.569,10.04,22.589,57.729,12.55,135.537c-7.53,62.748-7.53,125.497,2.51,135.537c32.629,32.629,25.1,143.066-7.53,130.517
			c-20.079-7.53-47.688,37.649-75.298,112.947c-30.119,80.318-57.729,120.477-77.808,112.947
			c-35.14-15.06-82.828,57.729-82.828,128.007c0,27.609-17.569,47.689-42.669,47.689c-62.749,2.51-178.206,30.119-205.815,47.689
			c-12.549,7.53-35.139-7.53-50.198-30.119c-22.59-40.159-25.1-40.159-27.609,12.55c0,60.239-37.649,75.298-57.729,25.099
			c-10.04-25.099-15.06-25.099-15.06,0c-2.51,17.57-12.55,25.099-27.609,17.57c-12.55-7.53-25.1,0-25.1,17.57
			C13879.234,1339.422,13758.758,1339.422,13741.188,1291.733z"/>
	</g>
</g>
<g>
	<g transform="translate(0.000000,150.000000) scale(0.100000,-0.100000)">
		<path fill="none" stroke="#000000" stroke-width="20" stroke-miterlimit="10" d="M16156.263,703.336
			c11.268-28.169,30.986-146.481,39.437-261.976c11.269-115.495,42.255-250.708,67.607-301.413
			c25.352-50.705,47.888-107.044,47.888-129.579c0-56.339,92.958-132.396,157.749-132.396c64.789,0,281.693-216.905,374.652-374.653
			c84.508-138.03,138.031-349.301,160.566-616.91c16.902-205.637,16.902-219.722-36.621-219.722
			c-53.521,0-121.127-47.888-121.127-90.142c0-28.169,369.018-28.169,416.906,0c45.072,28.169,50.705,219.721,22.535,552.121
			l-22.535,250.708l191.553-16.902c107.043-11.268,259.158-19.719,338.033-19.719c135.213,0,143.664-5.634,202.818-107.044
			c30.986-56.339,121.129-177.467,200.004-267.609c78.875-90.142,143.664-191.552,143.664-225.355
			c0-87.325-112.678-216.905-197.186-228.172c-121.129-11.268-157.75-47.888-98.594-92.959
			c101.41-73.24,183.102-42.254,340.85,121.128c121.129,123.945,149.299,171.833,135.213,219.721
			c-16.9,50.705-5.633,47.888,73.242-25.352c76.057-70.424,169.016-225.355,169.016-281.694c0-8.451-33.803-28.169-73.24-42.254
			c-104.227-39.437-67.607-98.593,56.338-95.776c56.34,2.817,112.678,11.268,121.129,22.536
			c16.902,16.902-47.889,394.372-90.143,509.866c-14.084,45.071-8.449,42.254,39.438-14.085
			c143.664-180.284,307.047-321.131,453.527-394.372c138.031-70.423,425.359-104.227,529.586-64.79
			c67.605,25.353,64.789,25.353-56.34,177.467c-67.605,81.691-191.551,214.088-276.059,292.962
			c-208.455,191.552-377.471,360.569-746.49,752.123c-357.752,374.653-495.781,459.162-850.717,504.233
			c-222.539,30.986-616.91,146.481-859.168,250.708c-107.043,45.071-135.213,70.424-135.213,123.945
			c0,126.762-33.803,245.074-73.24,245.074c-19.719,0-84.508-30.986-140.848-70.424c-132.395-90.142-154.932-87.325-298.595,14.085
			C16229.503,762.492,16122.459,782.211,16156.263,703.336z"/>
	</g>
</g>
<g>
	<g transform="translate(0.000000,150.000000) scale(0.100000,-0.100000)">
		<path fill="none" stroke="#000000" stroke-width="20" stroke-miterlimit="10" d="M22297.012,1174.774
			c-21.107-12.062-51.262-15.077-63.322-6.031c-15.076,6.031-45.23-3.015-69.354-21.108c-24.123-21.108-45.232-30.154-45.232-21.108
			c0,12.062-54.275,0-120.615-24.123c-66.338-24.123-132.678-45.231-144.738-48.246c-63.324-15.077-120.615-36.185-189.971-75.385
			c-42.215-21.108-84.43-33.169-93.477-24.123c-21.107,18.092-298.523-268.37-343.756-355.817
			c-66.338-120.616-223.139-132.677-223.139-18.092c0,69.354-108.555,235.201-153.785,235.201
			c-93.477,0-159.816-458.34-78.4-539.756c30.154-30.154,15.076-54.277-78.4-129.662c-60.309-48.246-111.57-108.554-111.57-126.647
			c0-21.108-36.184-105.539-78.398-186.954c-45.232-81.416-84.432-180.924-90.463-217.108
			c-12.061-114.585-75.385-376.924-102.523-443.263c-15.076-33.169-33.17-150.77-39.199-262.339
			c-12.063-177.908-6.031-208.062,51.262-259.324c81.414-75.385,274.4-135.693,407.078-132.677
			c78.4,3.015,96.492-3.015,69.354-30.154c-51.262-51.262-45.23-144.739,9.047-144.739c24.123,0,45.23-12.062,45.23-30.154
			c0-15.077,30.154-42.216,63.322-63.323c45.232-24.123,57.293-24.123,45.232,0c-12.063,18.092-9.047,33.169,9.045,33.169
			c15.078,0,36.186-12.062,45.232-27.139c12.061-15.077,48.246-15.077,87.445,6.031c54.277,24.123,66.34,51.262,57.293,123.631
			c-6.031,63.323,6.031,111.57,45.23,144.739c51.262,48.246,69.354,48.246,205.047,6.031
			c81.416-24.123,159.816-63.323,174.893-87.446c12.063-24.123,45.232-45.231,66.34-45.231c24.123,0,45.23-18.092,45.23-42.215
			c0-51.262-114.586-199.016-153.785-199.016c-15.076,0-57.293-27.139-93.477-60.308c-87.447-81.416-105.539-78.4-177.908,45.231
			c-36.186,57.293-69.355,105.539-75.387,105.539c-18.092,0,120.617-286.463,144.74-295.509
			c15.076-6.031,15.076-45.231,6.031-87.447c-18.094-66.339-12.063-72.369,45.23-54.277c39.199,12.062,63.322,6.031,63.322-15.077
			c0-18.092,12.063-27.139,27.139-18.092c15.078,9.046,90.463,24.123,171.879,33.169c81.414,12.062,162.83,33.169,180.922,48.246
			c18.094,15.077,66.34,111.57,102.523,217.109c84.432,232.185,144.74,292.493,295.51,292.493
			c63.322,0,141.723,21.108,174.893,45.231c30.154,24.123,81.416,45.231,111.57,45.231c33.168,0,99.508,30.154,150.77,66.339
			c54.277,39.2,102.523,69.354,111.57,69.354c9.045,0,57.291,36.185,105.537,84.431c81.416,75.385,226.156,111.57,226.156,57.292
			c0-12.062-39.201-60.308-87.447-105.539c-48.246-45.231-105.539-129.662-123.631-189.97
			c-33.17-96.493-30.154-111.57,33.17-162.831c69.354-63.323,105.537-51.262,202.031,60.308
			c30.152,39.2,33.168,30.154,18.092-42.216c-21.107-84.431-21.107-84.431,54.277-36.185
			c102.523,66.339,192.984,199.016,232.186,334.709c18.092,63.323,66.338,150.77,105.539,192.985
			c75.385,78.4,135.691,283.447,150.77,500.556c6.031,51.262,24.123,141.724,45.23,205.047
			c36.186,105.539,33.17,123.631-24.123,183.939c-78.4,84.431-78.4,93.477,3.016,174.893c60.307,60.308,60.307,66.339,9.045,105.539
			c-33.168,21.108-39.199,39.2-21.107,39.2c48.246,0,45.232,331.693-3.016,392.001c-21.107,24.123-114.584,102.523-208.061,174.893
			c-93.479,72.37-205.047,177.908-247.264,232.185c-75.385,99.508-274.4,247.262-395.016,298.524
			c-75.385,33.169-120.617,42.216-286.463,63.323c-75.385,9.046-156.801,21.108-183.939,27.139
			S22318.121,1189.851,22297.012,1174.774z"/>
	</g>
</g>
<g>
	<g transform="translate(0.000000,150.000000) scale(0.100000,-0.100000)">
		<path fill="none" stroke="#000000" stroke-width="20" stroke-miterlimit="10" d="M25731.949,1307.932
			c-80.469-9.754-199.955-34.139-265.795-53.647c-104.854-29.262-129.238-29.262-190.201,2.438
			c-39.016,19.508-112.17,34.139-160.939,29.262c-85.348-7.315-90.225-12.192-97.541-95.101
			c-7.314-75.593,4.877-99.978,87.787-173.133l92.662-82.909l-70.717-109.732c-58.523-90.224-192.641-348.704-202.395-387.72
			c0-7.315-17.068-43.893-34.139-85.347c-19.508-39.016-36.578-90.224-39.016-109.732c-26.824-146.309-24.385-241.41,4.877-407.227
			c17.068-104.855,34.139-297.495,36.578-429.174c2.438-151.186,21.945-314.565,51.207-429.174
			c26.824-102.416,51.209-202.394,53.646-221.902c4.877-19.508,36.578-102.417,75.594-182.887
			c70.717-151.186,73.154-170.694,85.348-407.227c7.314-119.486-2.439-153.625-60.963-236.533
			c-114.609-165.817-75.594-190.202,287.742-178.01c190.201,7.315,214.586,12.193,197.518,48.77
			c-31.701,78.032-39.016,309.688-9.754,455.997c14.631,80.47,29.262,165.817,31.699,190.202
			c2.439,21.946,12.193,41.454,21.947,41.454s19.508,46.331,21.945,104.855c2.439,153.625,29.262,224.341,82.908,226.779
			c46.332,2.439,53.648-14.631,68.279-165.817c2.438-21.946,12.191-34.139,26.822-26.823c12.193,9.754,14.631-31.7,4.877-104.855
			c-29.262-204.833-34.139-231.656-60.961-263.357c-14.631-19.508-21.947-51.208-12.193-73.155
			c14.631-39.016,39.016-43.893,265.795-51.208c119.486-2.438,121.924-4.877,129.24-85.347
			c7.314-73.155-7.316-97.54-114.609-197.518c-68.277-63.401-124.363-126.801-124.363-141.432
			c0-29.262,585.238-19.508,634.008,9.754c14.631,9.754,21.945,41.454,14.631,68.278c-7.316,29.262,7.314,85.347,36.578,131.678
			c26.822,43.893,43.893,90.224,36.576,102.417c-9.754,12.192,0,29.262,14.631,34.139c21.947,9.754,24.385,19.508,7.316,34.139
			c-14.631,9.754-26.824,46.331-24.385,80.47c0,56.085,9.754,60.962,148.746,75.593c190.203,17.069,204.834,26.823,180.449,126.801
			c-21.947,85.347-17.07,326.757,12.191,504.767c9.754,60.962,19.508,146.309,19.508,190.202c0,41.454,9.754,78.032,19.508,78.032
			c12.193,0,26.824,41.454,36.578,92.663c9.754,48.77,36.578,143.871,63.4,209.71c24.385,65.839,46.332,158.502,48.77,207.271
			c0,48.77,12.193,102.416,26.824,117.047c14.631,21.946,12.191,70.716-4.877,143.871c-17.07,60.962-21.947,129.24-14.631,153.625
			c7.314,21.946-24.385,112.17-70.717,197.518c-43.893,87.786-92.662,197.517-109.732,246.287
			c-43.893,131.678-180.447,275.549-331.633,348.704c-75.594,34.139-151.188,63.401-170.695,63.401s-36.576,12.192-36.576,24.385
			c0,14.631,17.068,24.385,36.576,24.385c48.77,0,134.117,141.432,134.117,221.902c0,36.577-17.068,78.032-36.578,95.101
			c-48.77,41.454-221.902,17.069-282.863-39.016c-41.455-36.577-58.523-39.016-97.539-14.631
			C26112.354,1295.739,25885.574,1329.878,25731.949,1307.932z"/>
	</g>
</g>
<g>
	<g transform="translate(0.000000,150.000000) scale(0.100000,-0.100000)">
		<path fill="none" stroke="#000000" stroke-width="20" stroke-miterlimit="10" d="M28791.223,1048.668
			c-79.291-91.68-104.07-292.385-69.379-537.692c14.865-99.114,19.822-230.439,9.91-292.385
			c-12.389-106.547-27.256-123.892-183.359-242.828c-116.459-84.247-178.404-151.148-195.75-200.705
			c-12.389-42.123-56.99-170.971-96.637-287.43c-84.246-232.917-81.768-346.898,4.957-408.844
			c27.256-19.823,59.467-29.734,69.379-24.778c27.256,17.345,200.705-59.468,265.129-118.936
			c29.734-27.256,54.514-66.902,54.514-86.724c0-52.035,297.34-349.376,403.887-403.888c89.203-47.079,91.682-49.557,56.99-116.458
			c-61.945-118.936-131.324-163.538-260.172-166.015c-86.725-2.478-141.238-19.823-195.75-64.424
			c-94.158-74.335-96.637-91.68-9.912-123.892c91.68-37.168,621.939-7.433,673.973,39.646
			c22.301,19.823,118.938,34.69,257.697,42.123c148.67,4.956,225.482,17.345,232.916,39.646
			c9.912,29.734,327.076,44.601,327.076,14.867c0-7.433-22.301-42.123-49.559-79.291c-96.635-121.414,22.301-131.326,656.629-52.035
			c319.643,39.646,438.578,64.424,490.613,101.592c39.645,27.256,64.424,56.99,56.99,64.424
			c-22.301,22.301,37.168,79.291,84.246,79.291s136.281,126.37,210.617,297.341c49.557,116.459,136.281,255.218,168.492,267.607
			c29.734,14.867,19.822,54.513-14.867,54.513c-59.467,0-109.025,84.247-151.148,260.173
			c-126.369,517.869-369.197,745.83-931.668,879.634c-282.475,66.902-450.967,66.902-696.273,0
			c-101.592-27.256-272.563-74.335-379.109-101.592l-198.229-52.035l-44.6,54.513c-64.424,79.291-56.99,227.961,17.344,366.721
			c49.557,94.158,61.947,151.148,61.947,307.252c0,104.069-12.391,247.784-27.258,317.164
			c-22.301,109.025-39.645,133.803-104.068,161.06c-64.424,27.256-94.158,27.256-153.627,2.478
			c-69.379-29.734-79.291-27.256-118.936,24.778C28952.281,1145.303,28865.559,1137.87,28791.223,1048.668z"/>
	</g>
</g>
</svg>
