<?xml version="1.0" encoding="utf-8"?>
<!-- Generator: Adobe Illustrator 17.0.0, SVG Export Plug-In . SVG Version: 6.00 Build 0)  -->
<!DOCTYPE svg PUBLIC "-//W3C//DTD SVG 1.1//EN" "http://www.w3.org/Graphics/SVG/1.1/DTD/svg11.dtd">
<svg version="1.1" id="Слой_1" xmlns="http://www.w3.org/2000/svg" xmlns:xlink="http://www.w3.org/1999/xlink" x="0px" y="0px"
	 width="400px" height="400px" viewBox="0 0 400 400" enable-background="new 0 0 400 400" xml:space="preserve">
<polygon fill-rule="evenodd" clip-rule="evenodd" fill="#FDC30E" points="217.037,233.319 217.037,341.681 364.273,341.681 
	364.273,233.319 217.037,233.319 "/>
<polygon fill-rule="evenodd" clip-rule="evenodd" fill="#DEE05D" points="136.603,233.319 136.603,341.681 215.607,341.681 
	215.607,233.319 136.603,233.319 "/>
<polygon fill-rule="evenodd" clip-rule="evenodd" fill="#FDC30E" points="36.584,233.319 36.584,341.681 135.773,341.681 
	135.773,233.319 36.584,233.319 "/>
<polygon fill-rule="evenodd" clip-rule="evenodd" fill="#FFD930" points="248.506,138.141 248.506,233.889 362.244,233.889 
	362.244,138.141 248.506,138.141 "/>
<polygon fill-rule="evenodd" clip-rule="evenodd" fill="#DEE05D" points="37.412,138.143 37.412,232.745 248.865,232.745 
	248.865,138.143 37.412,138.143 "/>
<polygon fill-rule="evenodd" clip-rule="evenodd" fill="#FDC30E" points="35.611,137.168 366.779,136.252 198.904,9.197 
	35.611,137.168 "/>
<g>
	<path fill-rule="evenodd" clip-rule="evenodd" fill="#FFFFFF" d="M137.722,72.873v20.799c0,0.946,0.77,1.713,1.713,1.713h33.986
		c0.946,0,1.713-0.767,1.713-1.713V72.873c0-0.944-0.767-1.713-1.713-1.713h-33.986C138.491,71.16,137.722,71.929,137.722,72.873
		L137.722,72.873z"/>
	<path fill-rule="evenodd" clip-rule="evenodd" fill="#6B3C41" d="M151.709,99.97v-9.759c0-0.945,0.767-1.713,1.712-1.713h6.466
		c0.945,0,1.713,0.767,1.713,1.713v9.759c0,0.944-0.768,1.713-1.713,1.713h-6.466C152.475,101.682,151.709,100.914,151.709,99.97
		L151.709,99.97z"/>
	<polygon fill-rule="evenodd" clip-rule="evenodd" fill="#B4B4B4" points="139.819,72.713 139.819,91.885 173.038,91.885 
		173.038,72.713 139.819,72.713 	"/>
	<path fill-rule="evenodd" clip-rule="evenodd" fill="#8DB037" d="M219.296,104.457c0.266-5.738,2.699-11.047,5.873-9.248
		c2.579,1.646-1.122,5.52-4.929,9.814C219.669,105.671,219.147,105.114,219.296,104.457L219.296,104.457z"/>
	<path fill-rule="evenodd" clip-rule="evenodd" fill="#8DB037" d="M217.565,95.348c-3.184-4.776-6.32-9.122-3.544-10.398
		c3.395-1.351,5.079,4.243,4.559,9.958C218.639,95.579,218.044,96.061,217.565,95.348L217.565,95.348z"/>
	<path fill-rule="evenodd" clip-rule="evenodd" fill="#8DB037" d="M212.777,111.491c-3.182-4.772-6.319-9.116-3.544-10.391
		c3.392-1.353,5.079,4.24,4.557,9.957C213.853,111.725,213.254,112.207,212.777,111.491L212.777,111.491z"/>
	<path fill-rule="evenodd" clip-rule="evenodd" fill="#8DB037" d="M206.638,109.581c1.68-2.318,5.141,0.678,7.192,4.677
		c0.323,0.42,0.128,0.987-0.484,0.716C209.237,113.15,205.337,111.591,206.638,109.581L206.638,109.581z"/>
	<path fill-rule="evenodd" clip-rule="evenodd" fill="#8DB037" d="M224.698,118.633c-0.67-0.009-0.608-0.606-0.145-0.856
		c3.534-2.775,7.928-4.051,8.489-1.251C233.388,118.898,229.192,118.689,224.698,118.633L224.698,118.633z"/>
	<path fill-rule="evenodd" clip-rule="evenodd" fill="#8DB037" d="M227.117,113.526c1.434-4.26,4.409-7.742,6.416-5.704
		c1.59,1.798-2.034,3.921-5.826,6.338C227.141,114.521,226.863,113.987,227.117,113.526L227.117,113.526z"/>
	<path fill-rule="evenodd" clip-rule="evenodd" fill="#8DB037" d="M224.048,116.613c-0.4-4.477-0.931-8.645,1.464-8.482
		c2.834,0.348,1.9,4.825-0.603,8.563C224.698,117.174,224.108,117.282,224.048,116.613L224.048,116.613z"/>
	<path fill-rule="evenodd" clip-rule="evenodd" fill="#8DB037" d="M219.654,109.786c1.032-4.377,3.673-8.118,5.858-6.276
		c1.751,1.641-1.663,4.092-5.212,6.85C219.774,110.77,219.45,110.269,219.654,109.786L219.654,109.786z"/>
	<path fill-rule="evenodd" clip-rule="evenodd" fill="#8DB037" d="M212.749,100.134c1.798-2.221,5.09,0.958,6.928,5.064
		c0.292,0.44,0.065,0.994-0.53,0.688C215.144,103.839,211.334,102.069,212.749,100.134L212.749,100.134z"/>
	<path fill-rule="evenodd" clip-rule="evenodd" fill="#8DB037" d="M211.521,93.088c1.804-2.22,5.092,0.963,6.93,5.066
		c0.291,0.439,0.064,0.992-0.529,0.686C213.919,96.793,210.11,95.025,211.521,93.088L211.521,93.088z"/>
	<path fill-rule="evenodd" clip-rule="evenodd" fill="#8DB037" d="M218.301,97.798c0.263-5.737,2.691-11.048,5.869-9.245
		c2.577,1.645-1.122,5.52-4.927,9.812C218.676,99.011,218.147,98.453,218.301,97.798L218.301,97.798z"/>
	<path fill-rule="evenodd" clip-rule="evenodd" fill="#8DB037" d="M218.868,128.221c2.07-6.192,5.137-11.983,10.077-16.969
		c0.28-0.281,0.738-0.288,1.023-0.004c0.277,0.283,0.284,0.737,0.002,1.021c-4.747,4.793-7.716,10.375-9.733,16.407
		c-0.126,0.379-0.533,0.585-0.908,0.456C218.947,129.008,218.742,128.6,218.868,128.221L218.868,128.221z"/>
	<path fill-rule="evenodd" clip-rule="evenodd" fill="#8DB037" d="M216.163,128.878c-0.122-0.157-0.174-0.347-0.157-0.548
		c-0.012-0.117-0.034-0.333-0.092-0.748c-0.066-0.446-0.16-1.042-0.276-1.751c-0.235-1.42-0.567-3.289-0.944-5.324
		c-0.762-4.072-1.714-8.791-2.513-11.895c-0.096-0.384,0.137-0.777,0.525-0.876c0.387-0.1,0.781,0.135,0.877,0.522
		c0.809,3.151,1.772,7.909,2.53,11.984c0.381,2.043,0.713,3.92,0.952,5.352c0.116,0.717,0.212,1.323,0.276,1.782
		c0.066,0.431,0.109,0.792,0.115,0.976l-0.008,0.137c0,0.026-0.009,0.08-0.03,0.14c-0.011,0.034-0.066,0.213-0.238,0.356
		C216.869,129.234,216.413,129.186,216.163,128.878L216.163,128.878z"/>
	<path fill-rule="evenodd" clip-rule="evenodd" fill="#8DB037" d="M217.753,128.289c2.035-11.255,1.659-22.508-0.52-33.759
		c-0.075-0.392,0.176-0.773,0.569-0.848c0.392-0.073,0.769,0.183,0.848,0.573c2.206,11.399,2.594,22.833,0.52,34.288
		c-0.069,0.396-0.443,0.657-0.839,0.585C217.94,129.058,217.679,128.683,217.753,128.289L217.753,128.289z"/>
	<path fill-rule="evenodd" clip-rule="evenodd" fill="#8DB037" d="M207.657,115.394c1.351-2.516,5.18-0.01,7.753,3.681
		c0.368,0.372,0.252,0.956-0.387,0.77C210.707,118.586,206.628,117.566,207.657,115.394L207.657,115.394z"/>
	<path fill-rule="evenodd" clip-rule="evenodd" fill="#8DB037" d="M214.688,115.85c-1.186-4.337-0.665-8.883,2.134-8.313
		c2.325,0.598,0.505,4.39-1.292,8.513C215.266,116.657,214.74,116.372,214.688,115.85L214.688,115.85z"/>
	<polygon fill-rule="evenodd" clip-rule="evenodd" fill="#E8431E" points="218.457,135.252 218.457,135.252 211.322,135.252 
		210.163,125.671 218.496,125.671 218.496,125.671 226.79,125.671 225.63,135.252 218.457,135.252 	"/>
	<path fill-rule="evenodd" clip-rule="evenodd" fill="#6B3C41" d="M147.693,101.609L147.693,101.609
		c0,0.752,0.767,1.363,1.713,1.363h14.495c0.944,0,1.713-0.61,1.713-1.363l0,0c0-0.751-0.769-1.363-1.713-1.363h-14.495
		C148.46,100.247,147.693,100.859,147.693,101.609L147.693,101.609z"/>
	<polygon fill-rule="evenodd" clip-rule="evenodd" fill="#8CADCF" points="112.477,102.141 112.477,105.365 198.837,105.365 
		198.837,102.141 112.477,102.141 	"/>
	<polygon fill-rule="evenodd" clip-rule="evenodd" fill="#C3D9F2" points="116.897,105.363 116.897,114.65 140.905,114.65 
		140.905,105.363 116.897,105.363 	"/>
	<polygon fill-rule="evenodd" clip-rule="evenodd" fill="#8CADCF" points="116.897,114.649 116.897,123.935 140.905,123.935 
		140.905,114.649 116.897,114.649 	"/>
	<polygon fill-rule="evenodd" clip-rule="evenodd" fill="#C3D9F2" points="116.897,123.934 116.897,133.221 140.905,133.221 
		140.905,123.934 116.897,123.934 	"/>
	<polygon fill-rule="evenodd" clip-rule="evenodd" fill="#8CADCF" points="116.897,133.221 116.897,134.965 140.905,134.965 
		140.905,133.221 116.897,133.221 	"/>
	<path fill-rule="evenodd" clip-rule="evenodd" fill="#FFFFFF" d="M128.887,107.34c0.767,0,1.391,0.624,1.391,1.391
		c0,0.767-0.624,1.392-1.391,1.392c-0.767,0-1.392-0.625-1.392-1.392C127.495,107.964,128.12,107.34,128.887,107.34L128.887,107.34z
		"/>
	<path fill-rule="evenodd" clip-rule="evenodd" fill="#FFFFFF" d="M128.889,117.039c0.767,0,1.392,0.625,1.392,1.391
		c0,0.768-0.625,1.391-1.392,1.391c-0.767,0-1.392-0.624-1.392-1.391C127.497,117.664,128.122,117.039,128.889,117.039
		L128.889,117.039z"/>
	<path fill-rule="evenodd" clip-rule="evenodd" fill="#FFFFFF" d="M128.889,126.167c0.767,0,1.392,0.624,1.392,1.39
		c0,0.768-0.625,1.392-1.392,1.392c-0.767,0-1.392-0.625-1.392-1.392C127.497,126.791,128.122,126.167,128.889,126.167
		L128.889,126.167z"/>
	<polygon fill-rule="evenodd" clip-rule="evenodd" fill="#C3D9F2" points="170.58,105.363 170.58,114.65 194.588,114.65 
		194.588,105.363 170.58,105.363 	"/>
	<polygon fill-rule="evenodd" clip-rule="evenodd" fill="#8CADCF" points="170.58,114.649 170.58,123.935 194.588,123.935 
		194.588,114.649 170.58,114.649 	"/>
	<polygon fill-rule="evenodd" clip-rule="evenodd" fill="#C3D9F2" points="170.58,123.934 170.58,133.221 194.588,133.221 
		194.588,123.934 170.58,123.934 	"/>
	<polygon fill-rule="evenodd" clip-rule="evenodd" fill="#8CADCF" points="170.58,133.221 170.58,134.965 194.588,134.965 
		194.588,133.221 170.58,133.221 	"/>
	<path fill-rule="evenodd" clip-rule="evenodd" fill="#FFFFFF" d="M182.569,107.34c0.768,0,1.392,0.624,1.392,1.391
		c0,0.767-0.624,1.392-1.392,1.392c-0.767,0-1.391-0.625-1.391-1.392C181.178,107.964,181.802,107.34,182.569,107.34L182.569,107.34
		z"/>
	<path fill-rule="evenodd" clip-rule="evenodd" fill="#FFFFFF" d="M182.569,117.042c0.768,0,1.392,0.624,1.392,1.391
		c0,0.767-0.624,1.391-1.392,1.391c-0.767,0-1.391-0.624-1.391-1.391C181.178,117.665,181.802,117.042,182.569,117.042
		L182.569,117.042z"/>
	<path fill-rule="evenodd" clip-rule="evenodd" fill="#FFFFFF" d="M182.571,126.169c0.768,0,1.392,0.624,1.392,1.391
		c0,0.768-0.624,1.391-1.392,1.391c-0.767,0-1.391-0.624-1.391-1.391C181.18,126.793,181.804,126.169,182.571,126.169
		L182.571,126.169z"/>
	<polygon fill-rule="evenodd" clip-rule="evenodd" fill="#6A6A79" points="157.005,113.096 157.005,130.025 159.217,130.025 
		159.217,113.096 157.005,113.096 	"/>
	<polygon fill-rule="evenodd" clip-rule="evenodd" fill="#6A6A79" points="152.775,131.891 152.775,129.448 163.455,129.448 
		163.455,131.891 152.775,131.891 	"/>
	<path fill-rule="evenodd" clip-rule="evenodd" fill="#6A6A79" d="M152.259,130.424c1.342,0,2.432,1.09,2.432,2.432
		c0,1.341-1.089,2.431-2.432,2.431c-1.341,0-2.431-1.09-2.431-2.431C149.829,131.513,150.918,130.424,152.259,130.424
		L152.259,130.424z"/>
	<path fill-rule="evenodd" clip-rule="evenodd" fill="#6A6A79" d="M164.143,130.424c1.342,0,2.432,1.09,2.432,2.432
		c0,1.341-1.089,2.431-2.432,2.431c-1.341,0-2.432-1.09-2.432-2.431C161.711,131.513,162.802,130.424,164.143,130.424
		L164.143,130.424z"/>
	<path fill-rule="evenodd" clip-rule="evenodd" fill="#6A6A79" d="M158.17,130.422c1.342,0,2.432,1.089,2.432,2.432
		c0,1.341-1.09,2.43-2.432,2.43c-1.342,0-2.432-1.089-2.432-2.43C155.738,131.512,156.828,130.422,158.17,130.422L158.17,130.422z"
		/>
	<path fill-rule="evenodd" clip-rule="evenodd" fill="#E8431E" d="M157.979,110.413c7.697,0,13.946,1.697,13.946,3.786
		c0,2.089-6.249,3.786-13.946,3.786c-7.697,0-13.946-1.697-13.946-3.786C144.034,112.11,150.282,110.413,157.979,110.413
		L157.979,110.413z"/>
	<path fill-rule="evenodd" clip-rule="evenodd" fill="#6A6A79" d="M154.695,115.037l0.004-13.002h6.831v12.977
		c-1.069,0.179-2.248,0.281-3.496,0.281C156.849,115.292,155.721,115.202,154.695,115.037L154.695,115.037z"/>
	<path fill-rule="evenodd" clip-rule="evenodd" fill="#E8431E" d="M157.981,86.459c7.698,0,13.947,4.147,13.947,9.255
		c0,5.109-6.248,9.257-13.947,9.257c-7.697,0-13.945-4.147-13.945-9.257C144.036,90.607,150.284,86.459,157.981,86.459
		L157.981,86.459z"/>
	<polygon fill-rule="evenodd" clip-rule="evenodd" fill="#E8431E" points="116.859,93.578 116.859,97.065 131.679,97.065 
		131.679,93.578 116.859,93.578 	"/>
	<polygon fill-rule="evenodd" clip-rule="evenodd" fill="#FFFFFF" points="115.054,97.068 115.054,99.78 129.876,99.78 
		129.876,97.068 115.054,97.068 	"/>
	<polygon fill-rule="evenodd" clip-rule="evenodd" fill="#DEE05D" points="116.796,99.777 116.796,102.155 131.616,102.155 
		131.616,99.777 116.796,99.777 	"/>
	<path fill-rule="evenodd" clip-rule="evenodd" fill="#FFFFFF" d="M93.655,120.044c-0.297-0.138-0.508-0.277-0.616-0.414
		c-0.859-1.116-1.334-3.028-1.072-4.444c0.063-0.352,0.765-1.101,1.072-1.291c0.475-0.288,1.503-0.367,1.863,0
		c0.625,0.633,0.587,2.897,1.15,3.298c0.338,0.243,1.247,0.335,1.647,0.215c0.84-0.248,0.369-1.779,0.501-1.935
		c0.1-0.121,0.281-0.102,0.431-0.142c3.139-0.881,2.633,1.228,3.298,1.791c0.15,0.125,0.529-0.06,0.645-0.143
		c0.514-0.382,1.409-1.506,2.148-1.58c0.088-0.007,0.252,0.175,0.286,0.215c0.708,0.794,0.392,2.718,0.574,2.868
		c0.274,0.225,1.498-0.953,1.792-1.148c0.102,1.634-0.395,1.944-0.644,3.296c-0.094,0.51-0.097,1.113-0.646,1.365
		C105.45,122.285,96.274,121.247,93.655,120.044L93.655,120.044z"/>
	<polygon fill-rule="evenodd" clip-rule="evenodd" fill="#8DB037" points="99.907,134.965 99.907,134.961 93.351,134.961 
		92.289,119.45 99.946,119.45 99.946,119.45 107.562,119.45 106.498,134.965 99.907,134.965 	"/>
	<path fill-rule="evenodd" clip-rule="evenodd" fill="#8CADCF" d="M240.07,100.716l2.168,17.123c0,2.362,1.92,4.283,4.281,4.283
		h43.751c2.365,0,4.283-1.92,4.283-4.283l2.168-17.123c0-2.362-1.92-4.28-4.281-4.28h-48.089
		C241.989,96.436,240.07,98.354,240.07,100.716L240.07,100.716z"/>
	<polygon fill-rule="evenodd" clip-rule="evenodd" fill="#6A6A79" points="246.218,121.243 246.218,135.148 249.229,135.148 
		249.229,121.243 246.218,121.243 	"/>
	<polygon fill-rule="evenodd" clip-rule="evenodd" fill="#6A6A79" points="286.347,121.243 286.347,135.148 289.356,135.148 
		289.356,121.243 286.347,121.243 	"/>
	<path fill-rule="evenodd" clip-rule="evenodd" fill="#6C99C9" d="M238.237,122.079v1.53c0,2.362,1.918,4.28,4.279,4.28h51.756
		c2.361,0,4.28-1.918,4.28-4.28v-1.53c0-2.362-1.919-4.28-4.28-4.28h-51.756C240.156,117.799,238.237,119.717,238.237,122.079
		L238.237,122.079z"/>
	<path fill-rule="evenodd" clip-rule="evenodd" fill="#9EC2E8" d="M238.236,115.318v1.53c0,2.362,1.918,4.28,4.279,4.28h3.164
		c2.361,0,4.279-1.918,4.279-4.28v-1.53c0-2.362-1.918-4.28-4.279-4.28h-3.164C240.154,111.037,238.236,112.956,238.236,115.318
		L238.236,115.318z"/>
	<path fill-rule="evenodd" clip-rule="evenodd" fill="#9EC2E8" d="M286.685,115.318v1.53c0,2.362,1.918,4.28,4.279,4.28h3.165
		c2.361,0,4.279-1.918,4.279-4.28v-1.53c0-2.362-1.919-4.28-4.279-4.28h-3.165C288.603,111.037,286.685,112.956,286.685,115.318
		L286.685,115.318z"/>
	<polygon fill-rule="evenodd" clip-rule="evenodd" fill="#E8431E" points="191.993,49.515 191.993,79.547 222.025,79.547 
		222.025,49.515 191.993,49.515 	"/>
	<polygon fill-rule="evenodd" clip-rule="evenodd" fill="#FFFFFF" points="194.858,52.38 194.858,76.682 219.161,76.682 
		219.161,52.38 194.858,52.38 	"/>
	<polygon fill-rule="evenodd" clip-rule="evenodd" fill="#C3D9F2" points="219.162,72.096 219.162,60.084 211.458,52.379 
		199.446,52.379 219.162,72.096 	"/>
	<polygon fill-rule="evenodd" clip-rule="evenodd" fill="#C3D9F2" points="214.418,76.678 194.858,57.122 194.858,69.134 
		202.405,76.678 214.418,76.678 	"/>
	<path fill-rule="evenodd" clip-rule="evenodd" fill="#FFFFFF" d="M289.388,109.504c-4.473-2.394-8.486-2.952-12.894-2.922
		c-2.096,3.883-3.206,7.626-2.656,11.916c3.59,1.271,7.821,2.144,12.891,2.489C288.449,117.335,289.401,113.519,289.388,109.504
		L289.388,109.504z"/>
</g>
<g>
	<path fill-rule="evenodd" clip-rule="evenodd" fill="#FFFFFF" d="M290.345,232.893c3.391-10.558,5.368-21.209,1.353-32.254
		l6.871,0.178l-0.413,32.079L290.345,232.893L290.345,232.893z"/>
	<path fill-rule="evenodd" clip-rule="evenodd" fill="#FFFFFF" d="M305.514,232.893c-3.39-10.558-5.366-21.206-1.349-32.254
		l-6.875,0.181l0.417,32.08L305.514,232.893L305.514,232.893z"/>
	<path fill-rule="evenodd" clip-rule="evenodd" fill="#FFFFFF" d="M285.816,197.68v2.07c0,2.172,1.765,3.936,3.936,3.936h16.782
		c2.173,0,3.938-1.764,3.938-3.936v-2.07c0-2.173-1.765-3.937-3.938-3.937h-16.782C287.58,193.743,285.816,195.506,285.816,197.68
		L285.816,197.68z"/>
	<polygon fill-rule="evenodd" clip-rule="evenodd" fill="#8DB037" points="316.956,212.331 316.956,233.294 362.488,233.294 
		362.488,212.331 316.956,212.331 	"/>
	<polygon fill-rule="evenodd" clip-rule="evenodd" fill="#9EC2E8" points="362.286,138.512 362.286,210.002 322.144,210.002 
		322.144,138.512 362.286,138.512 	"/>
	<polygon fill-rule="evenodd" clip-rule="evenodd" fill="#FFFFFF" points="319.366,138.512 319.366,210.002 323.735,210.002 
		323.735,138.512 319.366,138.512 	"/>
	<polygon fill-rule="evenodd" clip-rule="evenodd" fill="#FFFFFF" points="315.866,208.568 315.866,214.48 361.399,214.48 
		361.399,208.568 315.866,208.568 	"/>
	<path fill-rule="evenodd" clip-rule="evenodd" fill="#FFFFFF" d="M327.84,155.32l11.658-6.983l0.377,0.928l-11.658,6.986
		L327.84,155.32L327.84,155.32z M343.077,146.196l2.753-1.651l0.383,0.932l-2.753,1.647L343.077,146.196L343.077,146.196z"/>
	<path fill-rule="evenodd" clip-rule="evenodd" fill="#FFFFFF" d="M333.146,162.986l4.781-2.855l0.373,0.928l-4.771,2.862
		L333.146,162.986L333.146,162.986z M340.034,158.865l12.936-7.746l0.383,0.932l-12.938,7.744L340.034,158.865L340.034,158.865z"/>
	<path fill-rule="evenodd" clip-rule="evenodd" fill="#FFFFFF" d="M329.639,176.723l6.511-3.899l0.379,0.932l-6.507,3.896
		L329.639,176.723L329.639,176.723z M344.042,168.098l9.548-5.719l0.383,0.936l-9.548,5.714L344.042,168.098L344.042,168.098z"/>
	<polygon fill-rule="evenodd" clip-rule="evenodd" fill="#FFFFFF" points="339.957,183.526 351.713,176.491 352.092,177.426 
		340.341,184.463 339.957,183.526 	"/>
	<path fill-rule="evenodd" clip-rule="evenodd" fill="#FFFFFF" d="M355.091,194.381l-11.661,6.978l-0.377-0.927l11.658-6.983
		L355.091,194.381L355.091,194.381z M339.851,203.502l-2.755,1.648l-0.379-0.933l2.753-1.646L339.851,203.502L339.851,203.502z"/>
	<path fill-rule="evenodd" clip-rule="evenodd" fill="#FFFFFF" d="M349.781,186.712l-4.777,2.855l-0.377-0.932l4.771-2.858
		L349.781,186.712L349.781,186.712z M342.893,190.829l-12.938,7.744l-0.381-0.932l12.94-7.742L342.893,190.829L342.893,190.829z"/>
	<path fill-rule="evenodd" clip-rule="evenodd" fill="#E63B17" d="M285.303,164.472c0-10.049,5.779-18.205,12.9-18.205
		c7.121,0,12.901,8.157,12.901,18.205c0,10.049-5.779,18.206-12.901,18.206C291.083,182.678,285.303,174.52,285.303,164.472
		L285.303,164.472z"/>
	<path fill-rule="evenodd" clip-rule="evenodd" fill="#FFFFFF" d="M287.74,164.472c0-8.149,4.688-14.764,10.463-14.764
		s10.462,6.616,10.462,14.764c0,8.149-4.687,14.765-10.462,14.765S287.74,172.621,287.74,164.472L287.74,164.472z"/>
	<path fill-rule="evenodd" clip-rule="evenodd" fill="#9EC2E8" d="M298.299,194.859c-0.63-0.078-1.077-0.649-0.999-1.278
		c0.346-2.798,0.265-5.137-0.064-6.93c-0.332-1.823-0.899-2.958-1.415-3.487c-0.248-0.255-0.428-0.319-0.526-0.331
		c-0.083-0.01-0.215-0.004-0.43,0.146c-0.497,0.354-1.195,1.334-1.775,3.385c-0.169,0.607-0.804,0.965-1.413,0.791
		c-0.608-0.172-0.963-0.805-0.794-1.412c0.619-2.198,1.502-3.821,2.661-4.639c1.338-0.942,2.828-0.659,3.917,0.46
		c0.978,1.003,1.663,2.654,2.033,4.676c0.373,2.06,0.449,4.634,0.084,7.62C299.501,194.487,298.928,194.935,298.299,194.859
		L298.299,194.859z"/>
	<path fill-rule="evenodd" clip-rule="evenodd" fill="#9EC2E8" d="M304.782,188.721c-1.22-0.435-2.564,0.202-3,1.423
		c-0.435,1.22,0.203,2.563,1.423,2.997c1.22,0.438,2.564-0.201,2.999-1.422C306.64,190.499,306.002,189.155,304.782,188.721
		L304.782,188.721z"/>
	<polygon fill-rule="evenodd" clip-rule="evenodd" fill="#9EC2E8" points="304.962,191.397 303.742,194.824 301.608,194.065 
		302.828,190.637 304.962,191.397 	"/>
	<path fill-rule="evenodd" clip-rule="evenodd" fill="#9EC2E8" d="M291.285,188.721c1.222-0.435,2.564,0.202,2.999,1.423
		c0.435,1.22-0.203,2.563-1.423,2.997c-1.22,0.438-2.564-0.201-2.997-1.422C289.427,190.499,290.065,189.155,291.285,188.721
		L291.285,188.721z"/>
	<polygon fill-rule="evenodd" clip-rule="evenodd" fill="#9EC2E8" points="291.107,191.397 292.327,194.824 294.461,194.065 
		293.241,190.637 291.107,191.397 	"/>
	<polygon fill-rule="evenodd" clip-rule="evenodd" fill="#9EC2E8" points="284.526,193.744 284.526,196.52 311.761,196.52 
		311.761,193.744 284.526,193.744 	"/>
	<path fill-rule="evenodd" clip-rule="evenodd" fill="#FFFFFF" d="M267.943,232.9l-7.811-0.007c1.96-6.093,3.44-12.215,3.578-18.428
		h4.47L267.943,232.9L267.943,232.9z"/>
	<path fill-rule="evenodd" clip-rule="evenodd" fill="#FFFFFF" d="M267.491,232.9l-0.239-18.434h4.473
		c0.135,6.212,1.618,12.335,3.577,18.429L267.491,232.9L267.491,232.9z"/>
	<path fill-rule="evenodd" clip-rule="evenodd" fill="#FFFFFF" d="M256.363,214.466h21.91c-0.249,5.261-5.06,9.459-10.952,9.459
		C261.425,223.925,256.615,219.726,256.363,214.466L256.363,214.466z"/>
	<path fill-rule="evenodd" clip-rule="evenodd" fill="#FFFFFF" d="M256.283,189.2v18.997c0,2.068,1.678,3.746,3.746,3.746h14.295
		c2.067,0,3.747-1.678,3.747-3.746V189.2c0-2.066-1.68-3.745-3.747-3.745h-14.295C257.96,185.454,256.283,187.134,256.283,189.2
		L256.283,189.2z"/>
	<path fill-rule="evenodd" clip-rule="evenodd" fill="#9EC2E8" d="M258.486,199.42c0-6.883,3.959-12.47,8.837-12.47
		s8.837,5.588,8.837,12.47c0,6.883-3.959,12.468-8.837,12.468S258.486,206.302,258.486,199.42L258.486,199.42z"/>
	<polygon fill-rule="evenodd" clip-rule="evenodd" fill="#9EC2E8" points="253.692,208.865 253.692,214.775 281.452,214.775 
		281.452,208.865 253.692,208.865 	"/>
</g>
<g>
	<polygon fill-rule="evenodd" clip-rule="evenodd" fill="#C3D9F2" points="119.182,150.695 119.182,196.563 154.3,196.563 
		154.3,150.695 119.182,150.695 	"/>
	<path fill-rule="evenodd" clip-rule="evenodd" fill="#FFFFFF" d="M117.655,198.091v-48.925h38.175v48.925H117.655L117.655,198.091z
		 M152.773,195.033v-42.81h-32.058v42.81H152.773L152.773,195.033z"/>
	<polygon fill-rule="evenodd" clip-rule="evenodd" fill="#FFFFFF" points="119.182,196.563 119.182,173.058 154.3,173.058 
		154.3,196.563 152.773,196.563 152.773,176.118 120.715,176.118 120.715,196.563 119.182,196.563 	"/>
	<polygon fill-rule="evenodd" clip-rule="evenodd" fill="#FFFFFF" points="119.182,196.563 119.182,195.033 135.748,195.033 
		135.748,152.223 119.182,152.223 119.182,150.695 138.807,150.695 138.807,196.563 119.182,196.563 	"/>
	<polygon fill-rule="evenodd" clip-rule="evenodd" fill="#EB5C5E" points="141.035,217.264 132.909,232.888 135.915,233.056 
		144.041,217.434 141.035,217.264 	"/>
	<polygon fill-rule="evenodd" clip-rule="evenodd" fill="#EB5C5E" points="175.134,217.264 183.26,232.888 180.254,233.056 
		172.128,217.434 175.134,217.264 	"/>
	<path fill-rule="evenodd" clip-rule="evenodd" fill="#8CADCF" d="M159.796,210.933c16.654,0,30.173,3.211,30.173,7.168
		c0,3.955-13.519,7.166-30.173,7.166s-30.173-3.211-30.173-7.166C129.623,214.144,143.142,210.933,159.796,210.933L159.796,210.933z
		"/>
	<path fill-rule="evenodd" clip-rule="evenodd" fill="#FFFFFF" d="M159.417,203.386c-4.928,0-8.928,3.049-8.928,6.804
		c0,3.755,4,6.804,8.928,6.804c4.928,0,8.928-3.049,8.928-6.804C168.344,206.434,164.345,203.386,159.417,203.386L159.417,203.386z"
		/>
	<path fill-rule="evenodd" clip-rule="evenodd" fill="#E8431E" d="M158.447,207.784c0.576,0.529,1.343,0.854,2.185,0.854
		c1.757,0,3.189-1.405,3.237-3.149c0.602,0.557,1.41,0.898,2.294,0.898c1.862,0,3.371-1.509,3.371-3.372
		c0-1.232-0.663-2.308-1.649-2.898c0.426-0.511,0.684-1.168,0.684-1.887c0-1.581-1.245-2.87-2.81-2.94
		c-0.031-2.171-1.806-3.926-3.985-3.926c-1.245,0-2.357,0.573-3.085,1.468c-0.636-1.299-1.968-2.194-3.51-2.194
		c-2.15,0-3.899,1.746-3.899,3.898c0,0.524,0.106,1.024,0.292,1.483c-1.403,0.086-2.522,1.254-2.522,2.685
		c0,1.051,0.61,1.964,1.491,2.407c-0.776,0.615-1.27,1.569-1.27,2.636c0,1.866,1.515,3.381,3.377,3.381
		c0.572,0,1.109-0.143,1.58-0.394c0.116,1.163,1.101,2.077,2.298,2.077C157.326,208.812,158.03,208.405,158.447,207.784
		L158.447,207.784z"/>
	<path fill-rule="evenodd" clip-rule="evenodd" fill="#8DB037" d="M175.3,152.283c6.719,0,12.174,5.454,12.174,12.173
		c0,6.72-5.454,12.173-12.174,12.173s-12.174-5.454-12.174-12.173C163.127,157.737,168.581,152.283,175.3,152.283L175.3,152.283z"/>
	<path fill-rule="evenodd" clip-rule="evenodd" fill="#FFFFFF" d="M175.3,154.043c0.554,0,1.003,0.45,1.003,1.003
		c0,0.554-0.449,1.003-1.003,1.003c-0.554,0-1.003-0.449-1.003-1.003C174.297,154.493,174.747,154.043,175.3,154.043L175.3,154.043z
		"/>
	<path fill-rule="evenodd" clip-rule="evenodd" fill="#FFFFFF" d="M175.302,172.865c0.554,0,1.003,0.45,1.003,1.004
		c0,0.552-0.449,1.003-1.003,1.003c-0.554,0-1.003-0.451-1.003-1.003C174.299,173.315,174.749,172.865,175.302,172.865
		L175.302,172.865z"/>
	<path fill-rule="evenodd" clip-rule="evenodd" fill="#FFFFFF" d="M164.885,164.456c0-0.554,0.449-1.003,1.003-1.003
		c0.554,0,1.003,0.449,1.003,1.003c0,0.554-0.45,1.004-1.003,1.004C165.335,165.46,164.885,165.01,164.885,164.456L164.885,164.456z
		"/>
	<path fill-rule="evenodd" clip-rule="evenodd" fill="#FFFFFF" d="M183.709,164.456c0-0.554,0.449-1.003,1.003-1.003
		c0.554,0,1.003,0.449,1.003,1.003c0,0.554-0.449,1.004-1.003,1.004C184.159,165.46,183.709,165.01,183.709,164.456L183.709,164.456
		z"/>
	<polygon fill-rule="evenodd" clip-rule="evenodd" fill="#FFFFFF" points="175.178,164.031 175.711,164.566 182.35,157.927 
		181.816,157.393 175.178,164.031 	"/>
	<polygon fill-rule="evenodd" clip-rule="evenodd" fill="#FFFFFF" points="178.789,168.544 179.788,167.546 175.719,163.474 
		174.718,164.473 178.789,168.544 	"/>
	<path fill-rule="evenodd" clip-rule="evenodd" fill="#EC6443" d="M110.501,198.729c-17.175-10.014-36.262-11.268-58.13,0.197
		c-6.02,3.42-3.02,13.472,1.777,24.831l54.51,0.101C113.04,213.874,117.864,203.702,110.501,198.729L110.501,198.729z"/>
	<polygon fill-rule="evenodd" clip-rule="evenodd" fill="#FFFFFF" points="58.008,233.158 56.345,223.698 59.419,223.401 
		61.137,233.158 58.008,233.158 	"/>
	<polygon fill-rule="evenodd" clip-rule="evenodd" fill="#FFFFFF" points="105.638,233.158 107.301,223.698 104.228,223.401 
		102.509,233.158 105.638,233.158 	"/>
	<path fill-rule="evenodd" clip-rule="evenodd" fill="#E63B17" d="M50.682,223.517L50.682,223.517c0,2.87,2.632,5.2,5.878,5.2h50.38
		c3.246,0,5.881-2.33,5.881-5.2l0,0c-0.038-2.379-2.706-4.294-5.881-5.197c-15.518-4.298-32.376-4.082-50.38,0
		C53.387,219.105,50.716,221.055,50.682,223.517L50.682,223.517z"/>
	<path fill-rule="evenodd" clip-rule="evenodd" fill="#F08066" d="M45.837,212.065l1.564,8.692c0.563,3.123,3.436,5.223,6.413,4.689
		h0.002c2.977-0.537,4.935-3.508,4.374-6.632l-1.566-8.692c-0.561-3.125-3.435-5.223-6.412-4.687h-0.002
		C47.233,205.97,45.273,208.94,45.837,212.065L45.837,212.065z"/>
	<path fill-rule="evenodd" clip-rule="evenodd" fill="#F08066" d="M118.856,212.065l-1.564,8.692
		c-0.563,3.123-3.437,5.223-6.413,4.689h-0.002c-2.977-0.537-4.935-3.508-4.374-6.632l1.566-8.692
		c0.561-3.125,3.435-5.223,6.412-4.687h0.002C117.458,205.97,119.419,208.94,118.856,212.065L118.856,212.065z"/>
	<polygon fill-rule="evenodd" clip-rule="evenodd" fill="#CC6667" points="55.92,157.535 55.92,181.071 102.361,181.071 
		102.361,157.535 55.92,157.535 	"/>
	<polygon fill-rule="evenodd" clip-rule="evenodd" fill="#FFFFFF" points="57.818,159.686 57.818,178.922 100.465,178.922 
		100.465,159.686 57.818,159.686 	"/>
	<path fill-rule="evenodd" clip-rule="evenodd" fill="#9EC2E8" d="M97.049,168.92c1.17,0,2.313,0.1,3.415,0.281v9.72H81.083
		C82.659,173.209,89.213,168.92,97.049,168.92L97.049,168.92z"/>
	<path fill-rule="evenodd" clip-rule="evenodd" fill="#8DB037" d="M57.82,178.921l-0.002-8.787c4.154-1.788,9.815-1.95,15.491-0.06
		c5.441,1.81,9.744,5.122,12.079,8.847H57.82L57.82,178.921z"/>
	<path fill-rule="evenodd" clip-rule="evenodd" fill="#FDC30E" d="M87.789,161.585c1.577,0,2.857,1.279,2.857,2.856
		c0,1.576-1.28,2.856-2.857,2.856c-1.576,0-2.856-1.281-2.856-2.856C84.933,162.865,86.213,161.585,87.789,161.585L87.789,161.585z"
		/>
	<polygon fill-rule="evenodd" clip-rule="evenodd" fill="#FDC30E" points="207.775,158.61 207.775,178.102 212.881,178.102 
		212.881,158.61 207.775,158.61 	"/>
	<polygon fill-rule="evenodd" clip-rule="evenodd" fill="#FDC30E" points="217.803,158.61 217.803,178.102 222.907,178.102 
		222.907,158.61 217.803,158.61 	"/>
	<polygon fill-rule="evenodd" clip-rule="evenodd" fill="#FDC30E" points="217.047,187.531 217.047,204.096 212.096,204.096 
		212.096,187.531 217.047,187.531 	"/>
	<polygon fill-rule="evenodd" clip-rule="evenodd" fill="#FDC30E" points="207.325,184.425 207.325,204.096 202.373,204.096 
		202.373,184.425 207.325,184.425 	"/>
	<polygon fill-rule="evenodd" clip-rule="evenodd" fill="#FDC30E" points="236.499,187.529 236.499,204.094 231.548,204.094 
		231.548,187.529 236.499,187.529 	"/>
	<polygon fill-rule="evenodd" clip-rule="evenodd" fill="#FDC30E" points="226.779,184.423 226.779,204.094 221.827,204.094 
		221.827,184.423 226.779,184.423 	"/>
	<polygon fill-rule="evenodd" clip-rule="evenodd" fill="#FDC30E" points="229.305,209.925 229.305,229.417 224.202,229.417 
		224.202,209.925 229.305,209.925 	"/>
	<polygon fill-rule="evenodd" clip-rule="evenodd" fill="#FDC30E" points="219.277,209.925 219.277,229.417 214.172,229.417 
		214.172,209.925 219.277,209.925 	"/>
	<polygon fill-rule="evenodd" clip-rule="evenodd" fill="#FFFFFF" points="202.856,160.561 202.856,178.104 207.961,178.104 
		207.961,160.561 202.856,160.561 	"/>
	<polygon fill-rule="evenodd" clip-rule="evenodd" fill="#FFFFFF" points="221.818,184.425 221.818,204.096 216.867,204.096 
		216.867,184.425 221.818,184.425 	"/>
	<polygon fill-rule="evenodd" clip-rule="evenodd" fill="#FFFFFF" points="234.227,211.873 234.227,229.417 229.122,229.417 
		229.122,211.873 234.227,211.873 	"/>
	<polygon fill-rule="evenodd" clip-rule="evenodd" fill="#FFFFFF" points="214.577,212.849 214.577,229.413 209.474,229.413 
		209.474,212.849 214.577,212.849 	"/>
	<polygon fill-rule="evenodd" clip-rule="evenodd" fill="#8CADCF" points="212.882,161.373 212.882,178.105 217.987,178.105 
		217.987,161.373 212.882,161.373 	"/>
	<path fill-rule="evenodd" clip-rule="evenodd" fill="#8CADCF" d="M231.379,158.898h-2.412c-0.081,6.921-7.439,10.976-3.722,19.47
		l3.66-0.099h2.532l3.666,0.099C238.814,169.873,231.458,165.819,231.379,158.898L231.379,158.898z"/>
	<polygon fill-rule="evenodd" clip-rule="evenodd" fill="#8CADCF" points="212.094,184.425 212.094,204.096 207.144,204.096 
		207.144,184.425 212.094,184.425 	"/>
	<polygon fill-rule="evenodd" clip-rule="evenodd" fill="#8CADCF" points="231.547,184.423 231.547,204.094 226.595,204.094 
		226.595,184.423 231.547,184.423 	"/>
	<polygon fill-rule="evenodd" clip-rule="evenodd" fill="#8CADCF" points="224.198,212.685 224.198,229.418 219.093,229.418 
		219.093,212.685 224.198,212.685 	"/>
	<polygon fill-rule="evenodd" clip-rule="evenodd" fill="#8CADCF" points="209.472,209.743 209.472,229.413 204.367,229.413 
		204.367,209.743 209.472,209.743 	"/>
	<path fill-rule="evenodd" clip-rule="evenodd" fill="#E63B17" d="M197.691,232.886v-3.504h0.039l-3.044-75.839h-0.114v-3.483
		h48.236v3.483h-0.105l-3.043,75.839h0.026v3.504H197.691L197.691,232.886z M236.01,229.382l0.839-21.009h-36.311l0.845,21.009
		H236.01L236.01,229.382z M237.023,204.08l0.873-21.718h-38.402l0.871,21.718H237.023L237.023,204.08z M238.067,178.068
		l0.987-24.524h-40.717l0.986,24.524H238.067L238.067,178.068z"/>
</g>
<g>
	<path fill-rule="evenodd" clip-rule="evenodd" fill="#6A6A79" d="M38.3,242.606v1.798c0,0.197,0.16,0.357,0.354,0.357h62.359
		c0.195,0,0.354-0.16,0.354-0.357v-1.798c0-0.197-0.16-0.354-0.354-0.354H38.654C38.459,242.252,38.3,242.409,38.3,242.606
		L38.3,242.606z"/>
	<path fill-rule="evenodd" clip-rule="evenodd" fill="#8CADCF" d="M44.577,323.641l-0.061-16.818l5.852,0.689
		c0.002,0.552,0.44,1.003,0.978,1.003h54.677l0.055,15.127c0.011,3.793-2.977,6.875-6.677,6.875H51.306
		C47.608,330.516,44.591,327.434,44.577,323.641L44.577,323.641z"/>
	<path fill-rule="evenodd" clip-rule="evenodd" fill="#FFFFFF" d="M96.769,339.87c-0.86-0.157-1.625-0.538-2.14-1.163
		c-0.954-1.154-0.818-2.789,0.396-4.279c0.033-0.038,0.071-0.079,0.11-0.116c1.653-1.565,2.298-2.975,2.385-4.249
		c0.089-1.289-0.386-2.625-1.35-4.06c-0.156-0.23-0.22-0.49-0.194-0.741c1.264-0.294,2.827,0.343,3.655,1.625
		c0.431,1.062,0.649,2.171,0.572,3.33c-0.127,1.862-1.024,3.671-2.769,5.442l-0.281,0.273l-0.156,0.213
		c-0.373,0.563-0.338,0.949-0.219,1.088c0.101,0.13,0.631,0.481,2.139,0.113c0.715-0.173,1.451,0.216,1.645,0.869
		c0.189,0.656-0.234,1.324-0.951,1.5C98.583,339.964,97.618,340.023,96.769,339.87L96.769,339.87z"/>
	<path fill-rule="evenodd" clip-rule="evenodd" fill="#FFFFFF" d="M94.16,329.412c-0.45-2.489,0.458-3.77,1.696-4.122l1.454,0.071
		c3.272,6.164,1.075,8.782-2.729,9.725C95.342,332.922,94.975,331.186,94.16,329.412L94.16,329.412z"/>
	<polygon fill-rule="evenodd" clip-rule="evenodd" fill="#CFE0F5" points="99.688,251.062 99.688,290.367 123.876,290.367 
		123.876,251.062 99.688,251.062 	"/>
	<path fill-rule="evenodd" clip-rule="evenodd" fill="#FFFFFF" d="M98.16,291.832v-42.753h27.34v42.753H98.16L98.16,291.832z
		 M122.443,288.9v-36.892H101.22V288.9H122.443L122.443,288.9z"/>
	<polygon fill-rule="evenodd" clip-rule="evenodd" fill="#FFFFFF" points="99.688,272.634 99.688,269.701 123.88,269.701 
		123.88,272.634 99.688,272.634 	"/>
	<polygon fill-rule="evenodd" clip-rule="evenodd" fill="#FFFFFF" points="110.419,290.368 110.419,251.062 113.475,251.062 
		113.475,290.368 110.419,290.368 	"/>
	<path fill-rule="evenodd" clip-rule="evenodd" fill="#FFFFFF" d="M42.836,307.833l0.011,3.036c0.002,0.618,0.506,1.119,1.122,1.119
		h63.625c0.617,0,1.117-0.501,1.115-1.119l-0.012-3.036c-0.002-0.616-0.505-1.119-1.122-1.119H43.948
		C43.332,306.714,42.835,307.217,42.836,307.833L42.836,307.833z"/>
	<path fill-rule="evenodd" clip-rule="evenodd" fill="#FFFFFF" d="M52.323,339.866c0.86-0.154,1.622-0.535,2.141-1.16
		c0.952-1.154,0.814-2.789-0.402-4.279c-0.033-0.038-0.07-0.079-0.108-0.116c-1.651-1.57-2.296-2.975-2.385-4.249
		c-0.086-1.289,0.384-2.625,1.351-4.06c0.158-0.23,0.22-0.49,0.196-0.746c-1.266-0.289-2.827,0.343-3.653,1.627
		c-0.431,1.065-0.653,2.173-0.574,3.33c0.127,1.86,1.024,3.673,2.769,5.445l0.277,0.27l0.159,0.215
		c0.373,0.563,0.338,0.949,0.22,1.088c-0.105,0.13-0.633,0.481-2.14,0.113c-0.717-0.175-1.451,0.216-1.645,0.869
		c-0.192,0.651,0.237,1.324,0.952,1.5C50.51,339.962,51.473,340.023,52.323,339.866L52.323,339.866z"/>
	<path fill-rule="evenodd" clip-rule="evenodd" fill="#FFFFFF" d="M54.931,329.412c0.449-2.489-0.458-3.77-1.698-4.122l-1.453,0.071
		c-3.272,6.164-1.075,8.779,2.729,9.721C53.751,332.919,54.116,331.186,54.931,329.412L54.931,329.412z"/>
	<path fill-rule="evenodd" clip-rule="evenodd" fill="#FFFFFF" d="M48.815,245.575v2.311c0,1.603,0.471,2.903,1.049,2.903l0,0
		c0.579,0,1.047-1.301,1.047-2.903v-2.311c0-1.601-0.468-2.901-1.047-2.901l0,0C49.286,242.674,48.815,243.974,48.815,245.575
		L48.815,245.575z"/>
	<path fill-rule="evenodd" clip-rule="evenodd" fill="#FFFFFF" d="M54.483,245.577v2.311c0,1.603,0.471,2.904,1.05,2.904l0,0
		c0.578,0,1.047-1.301,1.047-2.904v-2.311c0-1.601-0.469-2.902-1.047-2.902l0,0C54.954,242.675,54.483,243.977,54.483,245.577
		L54.483,245.577z"/>
	<path fill-rule="evenodd" clip-rule="evenodd" fill="#FFFFFF" d="M60.105,245.575v2.311c0,1.603,0.471,2.903,1.049,2.903l0,0
		c0.579,0,1.047-1.301,1.047-2.903v-2.311c0-1.601-0.468-2.901-1.047-2.901l0,0C60.576,242.674,60.105,243.974,60.105,245.575
		L60.105,245.575z"/>
	<path fill-rule="evenodd" clip-rule="evenodd" fill="#FFFFFF" d="M66.047,245.575v2.311c0,1.603,0.471,2.903,1.05,2.903l0,0
		c0.578,0,1.049-1.301,1.049-2.903v-2.311c0-1.601-0.471-2.901-1.049-2.901l0,0C66.518,242.674,66.047,243.974,66.047,245.575
		L66.047,245.575z"/>
	<path fill-rule="evenodd" clip-rule="evenodd" fill="#FFFFFF" d="M71.687,245.575v2.311c0,1.603,0.471,2.903,1.049,2.903l0,0
		c0.579,0,1.048-1.301,1.048-2.903v-2.311c0-1.601-0.469-2.901-1.048-2.901l0,0C72.158,242.674,71.687,243.974,71.687,245.575
		L71.687,245.575z"/>
	<path fill-rule="evenodd" clip-rule="evenodd" fill="#FFFFFF" d="M77.63,245.575v2.311c0,1.603,0.47,2.903,1.049,2.903l0,0
		c0.578,0,1.047-1.301,1.047-2.903v-2.311c0-1.601-0.469-2.901-1.047-2.901l0,0C78.1,242.674,77.63,243.974,77.63,245.575
		L77.63,245.575z"/>
	<path fill-rule="evenodd" clip-rule="evenodd" fill="#6A6A79" d="M101.076,241.161c1.297,0,2.351,1.053,2.351,2.35
		c0,1.297-1.054,2.351-2.351,2.351s-2.351-1.053-2.351-2.351C98.725,242.214,99.779,241.161,101.076,241.161L101.076,241.161z"/>
	<path fill-rule="evenodd" clip-rule="evenodd" fill="#DEE05D" d="M47.108,318.679c-0.067-0.095-0.14-0.185-0.219-0.266v-70.076
		H82.38v69.828c-0.194,0.141-0.372,0.312-0.532,0.514c-1.029,1.296-2.945,1.305-3.866,0c-0.916-1.302-2.83-1.306-3.859,0
		c-1.025,1.296-2.935,1.305-3.855,0c-0.917-1.302-2.828-1.306-3.86,0c-1.024,1.296-2.944,1.305-3.865,0
		c-0.917-1.302-2.828-1.306-3.858,0c-1.028,1.296-2.938,1.305-3.853,0c-0.917-1.302-2.843-1.306-3.87,0
		C49.936,319.975,48.025,319.984,47.108,318.679L47.108,318.679z"/>
	<path fill-rule="evenodd" clip-rule="evenodd" fill="#C9CD45" d="M51.434,317.642v-57.105c0-2.596,0.642-4.704,1.434-4.704l0,0
		c0.79,0,1.432,2.108,1.432,4.704v57.105c0,0.176-0.002,0.354-0.007,0.531c-0.831-0.581-1.99-0.559-2.846,0.07
		C51.438,318.046,51.434,317.845,51.434,317.642L51.434,317.642z"/>
	<path fill-rule="evenodd" clip-rule="evenodd" fill="#C9CD45" d="M62.248,318.37c-0.763-0.713-1.926-0.809-2.841-0.281
		c-0.006-0.146-0.006-0.297-0.006-0.446v-50.514c0-2.593,0.64-4.699,1.43-4.699h0.004c0.79,0,1.43,2.106,1.43,4.699v50.514
		C62.265,317.889,62.258,318.132,62.248,318.37L62.248,318.37z"/>
	<path fill-rule="evenodd" clip-rule="evenodd" fill="#C9CD45" d="M66.77,317.642v-58.681c0-2.598,0.642-4.706,1.432-4.706l0,0
		c0.792,0,1.436,2.108,1.436,4.706v58.681c0,0.155-0.004,0.311-0.006,0.465c-0.858-0.537-2.012-0.465-2.844,0.217
		C66.777,318.102,66.77,317.875,66.77,317.642L66.77,317.642z"/>
	<path fill-rule="evenodd" clip-rule="evenodd" fill="#C9CD45" d="M77.589,318.286c-0.79-0.659-1.949-0.708-2.844-0.14
		c-0.006-0.165-0.006-0.333-0.006-0.504v-53.525c0-2.595,0.64-4.699,1.432-4.699l0,0c0.79,0,1.434,2.104,1.434,4.699v53.525
		C77.604,317.862,77.599,318.073,77.589,318.286L77.589,318.286z"/>
</g>
<g>
	<path fill-rule="evenodd" clip-rule="evenodd" fill="#8DB037" d="M200.6,297.739c-1.346,3.487-6.793,11.995-6.72,13.973
		c-2.721-6.708-3.136-13.836-1.891-21.269c-3.62,6.915-4.277,13.814-1.859,20.701c-1.924-3.962-6.744-5.819-13.375-6.352
		c5.329,2.1,9.885,5.242,12.595,10.907c-3.389-2.386-7.054-2.605-11.02-0.494c4.58,0.03,8.581,1.637,11.65,5.768
		c-6.564-1.152-8.695,1.993-10.232,5.707c3.259-2.702,6.423-5.772,11.543-1.411l6.613-0.203c0.033-3.748,0.986-8.581,0.102-9.418
		C197.945,309.093,198.777,303.575,200.6,297.739L200.6,297.739z"/>
	<path fill-rule="evenodd" clip-rule="evenodd" fill="#8DB037" d="M197.295,313.154c2.22-2.963,5.17-5.748,10.27-7.999
		c-3.996,3.76-7.809,7.561-9.368,11.843c5.533-2.926,10.149-1.542,13.523,5.636c-4.015-3.56-8.748-4.264-13.923-3.144
		c4.009-0.219,6.879,2.114,8.576,7.065c-2.737-1.892-5.486-3.749-8.715-3.982L197.295,313.154L197.295,313.154z"/>
	<path fill-rule="evenodd" clip-rule="evenodd" fill="#6A6A79" d="M190.407,339.299c-4.07-4.225-5.164-9.991-2.971-16.033
		c-0.002,0.01-0.002,0.021-0.002,0.034c0-0.759,2.962-1.378,6.606-1.378c3.404,0,6.205,0.54,6.567,1.227
		c-0.002-0.007-0.002-0.014-0.006-0.014c0.019,0.003,0.034,0.011,0.045,0.017c2.253,6.083,1.168,11.896-2.926,16.151
		C196.732,340.281,191.48,340.332,190.407,339.299L190.407,339.299z M187.434,323.301c0,0.758,2.962,1.379,6.606,1.379
		C190.396,324.68,187.434,324.059,187.434,323.301L187.434,323.301z M200.654,323.301c0,0.758-2.967,1.379-6.614,1.379
		C197.687,324.68,200.654,324.059,200.654,323.301L200.654,323.301z M200.62,323.179c0.02,0.039,0.034,0.082,0.034,0.122
		C200.654,323.261,200.641,323.218,200.62,323.179L200.62,323.179z"/>
	<path fill-rule="evenodd" clip-rule="evenodd" fill="#FFFFFF" d="M189.69,259.408c3.624,0,6.591-0.674,6.811-1.518v6.424
		c-4.897,1.522-9.406,1.378-13.623,0v-6.424C183.1,258.734,186.067,259.408,189.69,259.408L189.69,259.408z"/>
	<path fill-rule="evenodd" clip-rule="evenodd" fill="#9EC2E8" d="M190.46,245.564l-0.107-11.624
		c-0.004-0.118-0.323-0.214-0.717-0.214c-0.398,0-0.717,0.097-0.713,0.216l0.106,11.622c0,0.119,0.321,0.212,0.719,0.212
		C190.141,245.776,190.46,245.683,190.46,245.564L190.46,245.564z"/>
	<path fill-rule="evenodd" clip-rule="evenodd" fill="#EE7474" d="M203.238,254.016v-8.06c-9.568,1.57-18.537,1.397-27.098,0v8.06
		C184.535,255.717,193.497,255.893,203.238,254.016L203.238,254.016z"/>
	<path fill-rule="evenodd" clip-rule="evenodd" fill="#9EC2E8" d="M189.688,247.967c-7.494,0-13.575-0.895-13.575-2
		c0-1.103,6.081-1.998,13.575-1.998c7.494,0,13.575,0.895,13.575,1.998C203.263,247.072,197.182,247.967,189.688,247.967
		L189.688,247.967z"/>
	<path fill-rule="evenodd" clip-rule="evenodd" fill="#9EC2E8" d="M189.69,254.433c4.875,0,8.869-0.676,9.166-1.524v6.428
		c-6.586,1.522-12.652,1.379-18.332,0v-6.428C180.822,253.757,184.814,254.433,189.69,254.433L189.69,254.433z"/>
	<path fill-rule="evenodd" clip-rule="evenodd" fill="#DB3D3E" d="M189.69,254.433c-5.068,0-9.183-0.729-9.183-1.624
		s4.115-1.622,9.183-1.622c5.069,0,9.183,0.727,9.183,1.622S194.758,254.433,189.69,254.433L189.69,254.433z"/>
	<path fill-rule="evenodd" clip-rule="evenodd" fill="#FFFFFF" d="M189.713,247.965c7.101,0,12.93-0.805,13.525-1.828v7.88
		c-9.741,2.261-18.704,2.05-27.098,0v-8.014C176.28,247.089,182.306,247.965,189.713,247.965L189.713,247.965z"/>
	<path fill-rule="evenodd" clip-rule="evenodd" fill="#FFFFFF" d="M155.5,291.49c-3.164,4.227-4.017,9.993-2.31,16.037
		c-0.004-0.015-0.004-0.027-0.004-0.04c0,0.762,2.306,1.378,5.141,1.378c2.645,0,4.824-0.538,5.104-1.226
		c-0.002,0.008-0.002,0.012-0.004,0.013c0.014-0.006,0.024-0.009,0.033-0.013c1.751-6.086,0.911-11.897-2.274-16.155
		C160.42,290.511,156.332,290.457,155.5,291.49L155.5,291.49z M153.187,307.487c0-0.754,2.306-1.376,5.141-1.376
		C155.492,306.112,153.187,306.733,153.187,307.487L153.187,307.487z M163.466,307.487c0-0.754-2.3-1.376-5.139-1.376
		C161.166,306.112,163.466,306.733,163.466,307.487L163.466,307.487z M163.442,307.614c0.017-0.042,0.024-0.083,0.024-0.126
		C163.466,307.531,163.459,307.572,163.442,307.614L163.442,307.614z"/>
	<path fill-rule="evenodd" clip-rule="evenodd" fill="#9EC2E8" d="M146.838,293.424c0-1.633,5.176-2.964,11.551-2.964
		c6.377,0,11.551,1.332,11.551,2.964c0,1.639-5.174,2.967-11.551,2.967C152.013,296.391,146.838,295.064,146.838,293.424
		L146.838,293.424z"/>
	<path fill-rule="evenodd" clip-rule="evenodd" fill="#9EC2E8" d="M151.311,277.466c0-1.031,3.169-1.869,7.079-1.869
		c3.907,0,7.08,0.837,7.08,1.869c0,1.032-3.173,1.87-7.08,1.87C154.48,279.336,151.311,278.498,151.311,277.466L151.311,277.466z"/>
	<polygon fill-rule="evenodd" clip-rule="evenodd" fill="#9EC2E8" points="146.838,293.424 151.311,277.363 165.469,277.363 
		169.94,293.424 146.838,293.424 	"/>
	<path fill-rule="evenodd" clip-rule="evenodd" fill="#E63912" d="M144.389,342.838v-11.65h2.735v11.65H144.389L144.389,342.838z
		 M169.294,342.838v-11.65h-24.905v-23.305h27.636v34.956H169.294L169.294,342.838z"/>
	<polygon fill-rule="evenodd" clip-rule="evenodd" fill="#FFFFFF" points="154.854,324.776 154.854,322.836 161.608,322.836 
		161.608,324.776 154.854,324.776 	"/>
	<polygon fill-rule="evenodd" clip-rule="evenodd" fill="#FFFFFF" points="154.854,312.828 154.854,310.885 161.608,310.885 
		161.608,312.828 154.854,312.828 	"/>
	<path fill-rule="evenodd" clip-rule="evenodd" fill="#6C99C9" d="M151.27,277.466c0-1.031,3.175-1.869,7.083-1.869
		c3.905,0,7.08,0.837,7.08,1.869c0,1.032-3.175,1.87-7.08,1.87C154.445,279.336,151.27,278.498,151.27,277.466L151.27,277.466z"/>
	<polygon fill-rule="evenodd" clip-rule="evenodd" fill="#FFFFFF" points="144.389,320.406 144.389,319.536 172.025,319.536 
		172.025,320.406 144.389,320.406 	"/>
</g>
<g>
	<polygon fill-rule="evenodd" clip-rule="evenodd" fill="#9EC2E8" points="279.89,291.095 279.89,339.701 318.17,339.701 
		318.17,291.095 279.89,291.095 	"/>
	<polygon fill-rule="evenodd" clip-rule="evenodd" fill="#8DB037" points="218.874,237.257 218.874,273.966 249.383,273.966 
		249.383,237.257 218.874,237.257 	"/>
	<polygon fill-rule="evenodd" clip-rule="evenodd" fill="#8DB037" points="249.383,237.257 249.383,273.966 279.892,273.966 
		279.892,237.257 249.383,237.257 	"/>
	<path fill-rule="evenodd" clip-rule="evenodd" fill="#E63B17" d="M318.17,339.937v-82.849c0-3.471,2.819-6.288,6.289-6.288H354.1
		c3.468,0,6.284,2.817,6.284,6.288v82.849H318.17L318.17,339.937z"/>
	<polygon fill-rule="evenodd" clip-rule="evenodd" fill="#DEE05D" points="225.039,242.317 225.039,268.553 243.221,268.553 
		243.221,242.317 225.039,242.317 	"/>
	<polygon fill-rule="evenodd" clip-rule="evenodd" fill="#EB5C5E" points="318.17,284.071 318.17,282.204 360.384,282.204 
		360.384,284.071 318.17,284.071 	"/>
	<path fill-rule="evenodd" clip-rule="evenodd" fill="#FFFFFF" d="M322.005,300.867h2.468c0.268,0,0.486-0.216,0.486-0.485v-12.688
		c0-0.268-0.218-0.486-0.486-0.486h-2.468c-0.27,0-0.486,0.218-0.486,0.486v12.688C321.519,300.651,321.735,300.867,322.005,300.867
		L322.005,300.867z"/>
	<path fill-rule="evenodd" clip-rule="evenodd" fill="#FFFFFF" d="M322.007,277.356h2.468c0.269,0,0.486-0.218,0.486-0.486v-12.691
		c0-0.266-0.218-0.485-0.486-0.485h-2.468c-0.268,0-0.486,0.219-0.486,0.485v12.691
		C321.521,277.138,321.738,277.356,322.007,277.356L322.007,277.356z"/>
	<path fill-rule="evenodd" clip-rule="evenodd" fill="#FFD930" d="M339.687,256.304c2.866,0,5.198,0.948,5.198,2.114
		c0,1.168-2.331,2.115-5.198,2.115c-2.868,0-5.197-0.947-5.197-2.115C334.49,257.252,336.819,256.304,339.687,256.304
		L339.687,256.304z"/>
	<path fill-rule="evenodd" clip-rule="evenodd" fill="#6A6A79" d="M294.332,264.686l-1.025-0.023l-0.987,0.021
		c-1.149-8.718-3.442-18.901,0.918-19.229l0.004-0.006c0.024,0,0.053,0.001,0.079,0.001c0.028-0.001,0.06-0.001,0.094-0.001v0.007
		C297.774,245.783,295.482,255.966,294.332,264.686L294.332,264.686z"/>
	<path fill-rule="evenodd" clip-rule="evenodd" fill="#6A6A79" d="M292.888,261.368c4.904,0,8.882,3.979,8.882,8.882
		c0,4.902-3.977,8.881-8.882,8.881c-4.903,0-8.882-3.979-8.882-8.881C284.007,265.347,287.985,261.368,292.888,261.368
		L292.888,261.368z"/>
	<path fill-rule="evenodd" clip-rule="evenodd" fill="#9EC2E8" d="M292.888,263.547c3.699,0,6.703,3.003,6.703,6.703
		c0,3.699-3.003,6.702-6.703,6.702c-3.699,0-6.701-3.003-6.701-6.702C286.187,266.55,289.189,263.547,292.888,263.547
		L292.888,263.547z"/>
	<path fill-rule="evenodd" clip-rule="evenodd" fill="#8DB037" d="M308.069,264.684l-0.61-0.021l-0.584,0.021
		c-0.687-8.718-2.046-18.901,0.542-19.229l0.002-0.006c0.015,0,0.03,0,0.043,0.001c0.022-0.001,0.041-0.001,0.06-0.006v0.01
		C310.111,245.783,308.748,255.966,308.069,264.684L308.069,264.684z"/>
	<path fill-rule="evenodd" clip-rule="evenodd" fill="#8DB037" d="M307.508,263.495c2.053,0,3.72,2.817,3.72,6.29
		c0,3.474-1.667,6.291-3.72,6.291c-2.055,0-3.722-2.817-3.722-6.291C303.785,266.312,305.452,263.495,307.508,263.495
		L307.508,263.495z"/>
	<polygon fill-rule="evenodd" clip-rule="evenodd" fill="#8DB037" points="218.871,291.097 218.871,339.701 249.381,339.701 
		249.381,291.097 218.871,291.097 	"/>
	<polygon fill-rule="evenodd" clip-rule="evenodd" fill="#DEE05D" points="249.381,324.81 249.381,339.701 279.89,339.701 
		279.89,324.81 249.381,324.81 	"/>
	<polygon fill-rule="evenodd" clip-rule="evenodd" fill="#6A6A79" points="285.439,305.693 285.439,335.725 312.624,335.725 
		312.624,305.693 285.439,305.693 	"/>
	<polygon fill-rule="evenodd" clip-rule="evenodd" fill="#8DB037" points="249.383,309.917 249.383,324.807 279.892,324.807 
		279.892,309.917 249.383,309.917 	"/>
	<polygon fill-rule="evenodd" clip-rule="evenodd" fill="#DEE05D" points="249.383,295.023 249.383,309.917 279.892,309.917 
		279.892,295.023 249.383,295.023 	"/>
	<polygon fill-rule="evenodd" clip-rule="evenodd" fill="#E63B17" points="284.004,307.89 284.004,309.611 314.06,309.611 
		314.06,307.89 284.004,307.89 	"/>
	<polygon fill-rule="evenodd" clip-rule="evenodd" fill="#6C99C9" points="279.89,291.097 279.89,302.525 318.17,302.525 
		318.17,291.097 279.89,291.097 	"/>
	<path fill-rule="evenodd" clip-rule="evenodd" fill="#FFFFFF" d="M299.148,294.025c1.306,0,2.367,1.06,2.367,2.365
		c0,1.306-1.061,2.366-2.367,2.366c-1.304,0-2.365-1.06-2.365-2.366C296.783,295.085,297.843,294.025,299.148,294.025
		L299.148,294.025z"/>
	<path fill-rule="evenodd" clip-rule="evenodd" fill="#FFFFFF" d="M292.141,294.998c0.864,0,1.561,0.7,1.561,1.564
		c0,0.861-0.698,1.561-1.561,1.561c-0.863,0-1.564-0.7-1.564-1.561C290.577,295.699,291.278,294.998,292.141,294.998
		L292.141,294.998z"/>
	<path fill-rule="evenodd" clip-rule="evenodd" fill="#FFFFFF" d="M286.805,295.001c0.864,0,1.564,0.7,1.564,1.563
		c0,0.862-0.7,1.562-1.564,1.562c-0.863,0-1.561-0.7-1.561-1.562C285.243,295.701,285.941,295.001,286.805,295.001L286.805,295.001z
		"/>
	<path fill-rule="evenodd" clip-rule="evenodd" fill="#FFFFFF" d="M311.59,294.998c0.863,0,1.562,0.7,1.562,1.564
		c0,0.861-0.698,1.561-1.562,1.561c-0.864,0-1.564-0.7-1.564-1.561C310.026,295.699,310.726,294.998,311.59,294.998L311.59,294.998z
		"/>
	<path fill-rule="evenodd" clip-rule="evenodd" fill="#FFFFFF" d="M306.254,295.001c0.863,0,1.564,0.7,1.564,1.563
		c0,0.862-0.7,1.562-1.564,1.562c-0.863,0-1.561-0.7-1.561-1.562C304.692,295.701,305.391,295.001,306.254,295.001L306.254,295.001z
		"/>
	<polygon fill-rule="evenodd" clip-rule="evenodd" fill="#6A6A79" points="218.874,295.022 218.874,291.092 279.886,291.092 
		279.886,295.022 218.874,295.022 	"/>
	<polygon fill-rule="evenodd" clip-rule="evenodd" fill="#8DB037" points="261.082,297.636 261.082,300.248 268.192,300.248 
		268.192,297.636 261.082,297.636 	"/>
	<polygon fill-rule="evenodd" clip-rule="evenodd" fill="#8DB037" points="261.082,327.423 261.082,330.035 268.192,330.035 
		268.192,327.423 261.082,327.423 	"/>
	<polygon fill-rule="evenodd" clip-rule="evenodd" fill="#DEE05D" points="261.082,312.786 261.082,315.399 268.192,315.399 
		268.192,312.786 261.082,312.786 	"/>
	<polygon fill-rule="evenodd" clip-rule="evenodd" fill="#DEE05D" points="225.035,299.01 225.035,333.397 243.217,333.397 
		243.217,299.01 225.035,299.01 	"/>
	<polygon fill-rule="evenodd" clip-rule="evenodd" fill="#8DB037" points="237.172,309.763 239.784,309.763 239.784,302.654 
		237.172,302.654 237.172,309.763 	"/>
	<polygon fill-rule="evenodd" clip-rule="evenodd" fill="#DEE05D" points="255.546,242.317 255.546,268.553 273.728,268.553 
		273.728,242.317 255.546,242.317 	"/>
	<polygon fill-rule="evenodd" clip-rule="evenodd" fill="#8DB037" points="237.172,264.966 239.784,264.966 239.784,257.856 
		237.172,257.856 237.172,264.966 	"/>
	<polygon fill-rule="evenodd" clip-rule="evenodd" fill="#8DB037" points="259.402,264.966 262.015,264.966 262.015,257.856 
		259.402,257.856 259.402,264.966 	"/>
	<polygon fill-rule="evenodd" clip-rule="evenodd" fill="#FFFFFF" points="249.713,273.964 248.84,273.964 248.84,237.33 
		249.713,237.33 249.713,273.964 	"/>
	<polygon fill-rule="evenodd" clip-rule="evenodd" fill="#FFFFFF" points="249.715,340.675 248.84,340.675 248.84,295.009 
		249.715,295.009 249.715,340.675 	"/>
	<polygon fill-rule="evenodd" clip-rule="evenodd" fill="#FFFFFF" points="279.9,340.674 279.027,340.674 279.027,295.006 
		279.9,295.006 279.9,340.674 	"/>
</g>
<path fill-rule="evenodd" clip-rule="evenodd" fill="#5C363B" d="M391.855,161.988l7.145-9.404L249.015,38.604l-0.124,0.127
	L200.557,2l-9.616,7.309l0,0L2.404,152.584l7.147,9.404l23.377-17.765v200.538h1.088v0.003h100.17v0.002h5.072v-0.002H213.8h5.071
	h149.193v-5.075h-0.24V143.727L391.855,161.988z M40.389,232.519v-92.481h204.513v92.481H40.389z M249.976,140.038h110.388v92.481
	H249.976V140.038z M356.292,134.963H45.114L200.703,16.727L356.292,134.963z M40.389,339.69V237.593h93.797V339.69H40.389z
	 M139.258,339.69V237.593H213.8V339.69H139.258z M218.871,339.69V237.593h141.492V339.69H218.871z"/>
</svg>
