<?xml version="1.0" encoding="UTF-8" standalone="no"?>
<!-- Generator: Adobe Illustrator 17.0.0, SVG Export Plug-In . SVG Version: 6.00 Build 0)  -->

<svg
   xmlns:dc="http://purl.org/dc/elements/1.1/"
   xmlns:cc="http://creativecommons.org/ns#"
   xmlns:rdf="http://www.w3.org/1999/02/22-rdf-syntax-ns#"
   xmlns:svg="http://www.w3.org/2000/svg"
   xmlns="http://www.w3.org/2000/svg"
   xmlns:sodipodi="http://sodipodi.sourceforge.net/DTD/sodipodi-0.dtd"
   xmlns:inkscape="http://www.inkscape.org/namespaces/inkscape"
   version="1.1"
   id="Слой_1"
   x="0px"
   y="0px"
   width="112.166"
   height="134.55212"
   viewBox="0 0 112.166 134.55212"
   enable-background="new 0 0 1200 150"
   xml:space="preserve"
   sodipodi:docname="1.svg"
   inkscape:version="0.92.4 (5da689c313, 2019-01-14)"><metadata
   id="metadata2639"><rdf:RDF><cc:Work
       rdf:about=""><dc:format>image/svg+xml</dc:format><dc:type
         rdf:resource="http://purl.org/dc/dcmitype/StillImage" /><dc:title></dc:title></cc:Work></rdf:RDF></metadata><defs
   id="defs2637" /><sodipodi:namedview
   pagecolor="#ffffff"
   bordercolor="#666666"
   borderopacity="1"
   objecttolerance="10"
   gridtolerance="10"
   guidetolerance="10"
   inkscape:pageopacity="0"
   inkscape:pageshadow="2"
   inkscape:window-width="1920"
   inkscape:window-height="1017"
   id="namedview2635"
   showgrid="false"
   inkscape:zoom="0.47333333"
   inkscape:cx="856.17586"
   inkscape:cy="-150.46172"
   inkscape:window-x="-8"
   inkscape:window-y="-8"
   inkscape:window-maximized="1"
   inkscape:current-layer="Слой_1"
   fit-margin-top="0"
   fit-margin-left="0"
   fit-margin-right="0"
   fit-margin-bottom="0" />

<g
   id="g528"
   transform="translate(-170.011,-8.2368787)">
	<g
   id="g280">
		<g
   id="g268">
			<path
   d="m 212.457,33.749 c 0,0 0.472,13.871 -18.284,39.72 -3.941,6.068 -22.934,31.287 -1.813,51.462 5.202,4.255 25.297,16.314 48.31,2.128 -2.049,3.783 -20.648,25.219 -53.748,10.246 -9.772,-6.147 -23.643,-19.23 -12.609,-51.541 6.107,-17.87 20.648,-27.268 25.376,-51.541 6.148,0.313 12.768,-0.474 12.768,-0.474 z"
   id="path266"
   inkscape:connector-curvature="0"
   style="fill:#cccb65" />
		</g>
		<g
   id="g272">
			<path
   d="m 212.457,33.749 c 0,0 0.472,13.871 -18.284,39.72 -3.941,6.068 -22.934,31.287 -1.813,51.462 5.202,4.255 25.297,16.314 48.31,2.128 -2.049,3.783 -21.239,20.569 -50.556,7.093 -9.773,-6.147 -23.406,-16.787 -12.885,-48.231 6.107,-17.87 20.687,-26.716 24.706,-51.659 6.148,0.313 10.522,-0.513 10.522,-0.513 z"
   id="path270"
   inkscape:connector-curvature="0"
   style="fill:#f5ef9c" />
		</g>
		<g
   id="g276">
			<path
   d="m 210.329,34.025 c 0,0 0.079,13.161 -18.678,39.011 -3.94,6.068 -25.061,33.218 -0.945,54.023 5.201,4.255 29.553,17.732 49.965,0 -2.049,3.783 -21.239,20.569 -50.556,7.093 -9.773,-6.147 -23.406,-16.787 -12.885,-48.231 6.107,-17.87 20.687,-26.716 24.706,-51.659 5.556,0.117 8.393,-0.237 8.393,-0.237 z"
   id="path274"
   inkscape:connector-curvature="0"
   style="fill:#ece87a" />
		</g>
		<path
   d="m 240.546,126.857 c -8.008,4.935 -15.646,6.674 -22.424,6.675 -12.613,0.003 -22.264,-6.043 -25.612,-8.784 -7.233,-6.915 -9.712,-14.403 -9.715,-21.519 -0.004,-13.501 8.987,-25.651 11.576,-29.632 17.873,-24.63 18.324,-38.435 18.323,-39.753 0,-0.066 -10e-4,-0.101 -10e-4,-0.103 l -0.008,-0.258 -0.256,0.03 c -0.003,0 -1.144,0.136 -2.925,0.273 -1.781,0.137 -4.197,0.273 -6.734,0.273 -1.015,0 -2.049,-0.021 -3.068,-0.074 l -0.205,-0.011 -0.039,0.202 c -4.703,24.185 -19.212,33.546 -25.368,51.51 -2.89,8.461 -4.079,15.616 -4.079,21.683 -0.006,17.163 9.536,25.583 16.786,30.135 l 0.014,0.009 0.014,0.006 c 8.409,3.804 15.897,5.27 22.421,5.27 h 0.002 c 9.62,0 17.14,-3.186 22.443,-6.727 5.306,-3.547 8.39,-7.425 9.187,-8.89 l 0.421,-0.778 z m -7.912,7.97 -0.857,-1.074 0.455,1.365 c -0.262,0.184 -0.53,0.367 -0.804,0.55 -2.011,1.342 -4.344,2.632 -6.991,3.713 0.255,-1.269 -0.237,-2.686 -0.237,-2.686 0.017,0.181 0.025,0.367 0.025,0.55 0,0.604 -0.083,1.196 -0.166,1.636 -0.081,0.428 -0.161,0.702 -0.165,0.717 -3.236,1.264 -6.929,2.211 -11.069,2.564 1.287,-1.923 0.816,-4.354 0.816,-4.354 0.014,0.1 0.021,0.208 0.021,0.321 0.003,0.792 -0.345,1.832 -0.701,2.658 -0.316,0.736 -0.63,1.301 -0.695,1.419 -0.982,0.07 -1.988,0.109 -3.019,0.109 -2.573,0 -5.3,-0.231 -8.178,-0.748 2.345,-2.333 2.011,-6.145 2.011,-6.145 0.004,0.081 0.006,0.164 0.006,0.246 0.002,1.472 -0.648,2.953 -1.31,4.059 -0.33,0.553 -0.66,1.013 -0.908,1.333 -0.146,0.189 -0.26,0.327 -0.33,0.409 -3.249,-0.619 -6.688,-1.602 -10.316,-3.029 3.558,-2.516 2.77,-6.812 2.77,-6.812 0.001,1.821 -0.802,3.476 -1.615,4.675 -0.406,0.598 -0.813,1.083 -1.116,1.416 -0.304,0.333 -0.501,0.51 -0.501,0.511 l 0.036,0.04 c -0.909,-0.365 -1.829,-0.756 -2.762,-1.178 -1.777,-1.121 -3.686,-2.467 -5.554,-4.117 5.148,-2.726 5.21,-6.745 5.21,-6.745 -0.295,1.796 -1.701,3.43 -3.054,4.598 -0.675,0.585 -1.332,1.055 -1.819,1.377 -0.33,0.219 -0.578,0.367 -0.704,0.441 -1.988,-1.803 -3.915,-3.957 -5.57,-6.553 5.707,-1.874 6.592,-6.062 6.592,-6.062 -0.753,1.815 -2.488,3.254 -4.045,4.224 -0.777,0.486 -1.507,0.857 -2.043,1.104 -0.355,0.164 -0.619,0.273 -0.758,0.329 -1.701,-2.763 -3.092,-6.015 -3.931,-9.862 0.249,0.021 0.609,0.018 1.043,0.042 5.598,0.313 7.221,-4.051 7.221,-4.051 -1.595,3.101 -5.21,3.58 -7.221,3.578 -0.516,0 -0.917,-0.031 -1.146,-0.053 -0.492,-2.419 -0.768,-5.068 -0.769,-7.973 0,-0.882 0.029,-1.79 0.081,-2.72 6.132,1.544 8.613,-2.492 8.613,-2.492 -1.618,1.862 -3.993,2.309 -5.878,2.309 -0.817,0 -1.537,-0.084 -2.052,-0.168 -0.296,-0.048 -0.517,-0.095 -0.655,-0.127 0.249,-3.789 0.944,-7.978 2.193,-12.613 5.388,2.281 8.623,-1.878 8.623,-1.878 -1.874,1.594 -3.792,2.025 -5.348,2.027 -0.946,0 -1.757,-0.162 -2.328,-0.323 -0.287,-0.081 -0.512,-0.161 -0.666,-0.221 -0.067,-0.027 -0.117,-0.047 -0.155,-0.064 0.467,-1.695 1.003,-3.445 1.623,-5.26 0.76,-2.23 1.654,-4.329 2.646,-6.342 4.007,2.759 9.465,-1.031 9.465,-1.031 -2.177,1.239 -4.029,1.62 -5.493,1.62 -1.215,0 -2.166,-0.262 -2.811,-0.523 -0.323,-0.13 -0.569,-0.26 -0.732,-0.356 -0.113,-0.067 -0.181,-0.113 -0.214,-0.137 1.749,-3.481 3.786,-6.715 5.921,-9.942 5.142,2.252 9.462,-1.371 9.462,-1.371 -1.815,1.231 -3.754,1.588 -5.397,1.588 -1.124,0 -2.108,-0.168 -2.808,-0.335 -0.481,-0.115 -0.82,-0.228 -0.987,-0.288 1.696,-2.554 3.448,-5.112 5.163,-7.791 6.035,2.292 9.373,-1.515 9.373,-1.515 -1.751,1.425 -3.659,1.836 -5.295,1.836 -1.113,0 -2.097,-0.192 -2.8,-0.385 -0.509,-0.139 -0.862,-0.276 -1.02,-0.34 1.786,-2.811 3.524,-5.763 5.109,-8.99 5.752,2.112 8.594,-1.118 8.594,-1.118 -1.509,1.026 -3.163,1.338 -4.624,1.338 -1.116,0 -2.115,-0.183 -2.832,-0.367 -0.418,-0.106 -0.733,-0.211 -0.927,-0.281 1.263,-2.616 2.422,-5.417 3.424,-8.47 5.428,2.735 9.195,-1.662 9.195,-1.662 -1.78,1.523 -3.675,1.966 -5.306,1.967 -1.153,0 -2.17,-0.224 -2.896,-0.449 -0.361,-0.112 -0.649,-0.224 -0.848,-0.307 0.77,-2.405 1.442,-4.966 1.987,-7.72 0.962,0.045 1.934,0.064 2.887,0.064 4.386,0 8.402,-0.405 9.45,-0.519 -0.048,1.995 -1.018,15.583 -18.238,39.316 -2.578,3.976 -11.656,16.195 -11.66,29.9 -0.003,7.226 2.539,14.869 9.875,21.872 3.432,2.806 13.154,8.9 25.925,8.903 6.614,0.001 14.043,-1.641 21.81,-6.224 -1.124,1.587 -3.581,4.359 -7.301,7.047 z"
   id="path278"
   inkscape:connector-curvature="0"
   style="fill:#010202" />
	</g>
	<g
   id="g284">
		<path
   d="m 211.827,33.906 c 0,0 1.576,10.719 -17.338,38.144 -9.93,14.343 -21.987,34.676 -4.256,52.644 6.856,6.62 24.903,14.501 42.084,7.723 11.349,-5.044 19.86,-11.979 14.817,-21.593 -1.636,-2.68 -4.729,-5.675 -8.511,-6.147 6.62,-0.315 33.1,-5.359 25.062,-19.545 7.408,-0.787 22.381,-4.098 17.18,-13.397 -2.995,-4.098 -8.827,-5.517 -17.811,-7.565 -3.468,-0.946 -12.61,-4.099 -4.729,-13.398 2.364,-3.625 4.255,-8.826 -2.995,-13.082 -3.94,-1.892 -3.625,0.473 -0.788,4.413 2.522,2.837 -2.994,8.196 -5.201,10.403 -4.571,4.571 -3.783,13.871 1.891,18.441 -3.94,-0.158 -40.35,5.359 -27.111,21.121 -7.723,2.207 -32.469,11.821 -19.86,26.322 -6.147,-2.522 -19.86,-7.723 -9.457,-31.366 9.93,-20.176 21.121,-34.519 22.697,-55.009 -4.571,1.891 -5.674,1.891 -5.674,1.891 z"
   id="path282"
   inkscape:connector-curvature="0"
   style="fill:#2f4a1f" />
	</g>
	<g
   id="g288">
		<path
   d="m 213.52,33.433 c 0,0 0.71,11.585 -18.205,39.01 -9.93,14.343 -20.451,33.927 -4.137,50.95 6.856,6.62 23.249,14.698 40.429,7.92 11.348,-5.044 19.466,-10.836 14.422,-20.451 -1.635,-2.68 -4.964,-6.029 -8.747,-6.502 0.538,-0.026 -6.797,-0.887 -12.412,-1.242 9.161,-1.301 15.534,0.805 16.187,0.661 9.303,-2.048 27.058,-9.245 22.627,-18.65 0.22,-0.023 -4.414,-7.014 -18.422,-6.246 15.84,-3.428 18.769,5.007 19.032,4.965 7.465,-1.208 19.069,-4.805 15.191,-12.117 -2.994,-4.098 -7.566,-4.808 -16.55,-6.856 -3.192,-0.236 -13.91,-4.531 -6.029,-13.831 2.364,-3.625 5.674,-9.102 -1.576,-13.358 -3.94,-1.892 -3.625,0.473 -0.788,4.413 2.522,2.837 -2.994,8.196 -5.201,10.403 -4.571,4.571 -3.783,13.871 1.891,18.441 -3.94,-0.158 -40.35,5.359 -27.111,21.121 -7.723,2.207 -32.469,11.821 -19.86,26.322 -6.147,-2.522 -19.86,-7.723 -9.457,-31.366 9.93,-20.176 21.121,-34.519 22.697,-55.009 -4.571,1.895 -3.981,1.422 -3.981,1.422 z"
   id="path286"
   inkscape:connector-curvature="0"
   style="fill:#a1c85f" />
	</g>
	<g
   id="g292">
		
			<ellipse
   transform="matrix(-0.9026,-0.4305,0.4305,-0.9026,376.6523,189.6059)"
   cx="209.778"
   cy="52.189999"
   rx="1.6799999"
   ry="3.9779999"
   id="ellipse290"
   style="fill:#4d8330" />
	</g>
	<g
   id="g336">
		<g
   id="g296">
			<path
   d="m 213.52,33.433 c 0,0 0.71,11.585 -18.205,39.01 -9.93,14.343 -20.451,33.927 -4.137,50.95 6.856,6.62 23.249,14.698 40.429,7.92 11.348,-5.044 19.466,-10.836 14.422,-20.451 -1.635,-2.68 -4.964,-6.029 -8.747,-6.502 0.521,-0.025 -8.748,-1.182 -12.117,-1.242 8.688,-0.354 9.752,-0.236 15.563,0.732 9.206,-1.949 27.439,-9.205 22.955,-18.721 -1.163,-1.044 -4.355,-6.954 -18.54,-6.246 16.373,-2.601 18.797,5.197 19.151,5.143 8.512,-1.123 19.1,-4.922 15.191,-12.295 -2.994,-4.098 -7.566,-4.808 -16.55,-6.856 -3.073,-0.709 -13.91,-4.531 -6.029,-13.831 2.364,-3.625 5.674,-9.102 -1.576,-13.358 -3.94,-1.892 -2.324,0.433 0.513,4.374 2.522,2.837 -3.35,8.433 -5.556,10.64 -4.352,4.353 -2.72,13.476 2.345,18.283 0.157,0.15 4.57,-0.493 12.369,1.362 -4.075,-0.435 -7.148,-0.672 -11.581,-0.672 -4.492,-0.236 -39.762,5.05 -28.602,20.151 0.134,0.182 12.879,-2.833 15.726,-2.684 -3.674,0.738 -11.712,2.57 -15.022,3.575 -7.444,2.127 -31.504,12.59 -21.455,25.594 0.276,0.364 13.535,6.206 27.187,-2.192 -3.367,4.083 -13.356,7.571 -26.004,3.965 -5.379,-1.773 -22.579,-6.974 -11.703,-32.981 9.93,-20.176 21.475,-34.243 23.051,-54.733 -4.575,1.893 -3.078,1.065 -3.078,1.065 z"
   id="path294"
   inkscape:connector-curvature="0"
   style="fill:#7aba41" />
		</g>
		<path
   d="m 281.069,71.619 -0.007,-0.013 -0.008,-0.011 c -3.084,-4.2 -8.972,-5.603 -17.949,-7.656 -1.218,-0.332 -3.16,-0.947 -4.774,-2.004 -1.618,-1.061 -2.887,-2.528 -2.887,-4.601 -10e-4,-1.665 0.825,-3.774 3.06,-6.41 l 0.01,-0.012 0.008,-0.012 c 1.122,-1.724 2.156,-3.813 2.158,-6.03 0.006,-2.501 -1.347,-5.113 -5.23,-7.384 l -0.008,-0.005 -0.009,-0.005 c -0.964,-0.461 -1.684,-0.684 -2.231,-0.687 -0.313,0 -0.587,0.08 -0.779,0.269 -0.192,0.189 -0.269,0.456 -0.269,0.743 0.014,0.992 0.82,2.515 2.196,4.44 l 0.008,0.011 0.007,0.008 c 0.413,0.467 0.585,0.99 0.587,1.583 0.008,1.351 -0.969,3.045 -2.195,4.601 -1.223,1.559 -2.678,2.988 -3.583,3.894 -2.042,2.042 -3.031,4.986 -3.031,8.034 0.001,3.761 1.505,7.701 4.458,10.347 -2.543,0.121 -9.494,1.134 -16.039,3.321 -3.49,1.167 -6.859,2.667 -9.374,4.558 -2.511,1.888 -4.187,4.194 -4.187,6.953 0,1.939 0.83,4.066 2.711,6.389 -3.191,0.942 -8.812,2.987 -13.728,6.002 -5.088,3.127 -9.465,7.305 -9.476,12.464 -0.001,2.306 0.888,4.779 2.952,7.387 -0.067,-0.031 -0.133,-0.059 -0.201,-0.09 l -0.006,0.014 c -4.704,-1.965 -11.987,-5.514 -11.991,-15.708 -0.001,-3.889 1.063,-8.761 3.76,-14.889 9.908,-20.139 21.129,-34.511 22.716,-55.086 l 0.03,-0.384 -0.356,0.147 c -2.28,0.943 -3.69,1.413 -4.525,1.646 -0.417,0.116 -0.689,0.173 -0.855,0.201 -0.083,0.014 -0.138,0.021 -0.17,0.024 -0.033,0.003 -0.034,0.002 -0.034,0.003 h -0.274 l 0.039,0.271 c 0,0 0.007,0.043 0.014,0.149 0.007,0.106 0.016,0.268 0.016,0.491 0.001,2.661 -1.132,13.852 -17.328,37.336 -6.242,9.022 -13.358,20.429 -13.362,32.197 -0.003,6.958 2.505,14.034 9.133,20.748 5.058,4.878 16.036,10.386 28.329,10.391 4.571,0 9.322,-0.765 14.01,-2.614 4.549,-2.022 8.644,-4.343 11.618,-7.033 2.971,-2.688 4.833,-5.765 4.833,-9.27 0,-1.775 -0.478,-3.65 -1.512,-5.62 -1.441,-2.357 -3.964,-4.945 -7.125,-5.93 3.348,-0.358 8.889,-1.398 13.933,-3.349 2.978,-1.153 5.78,-2.622 7.854,-4.472 2.072,-1.846 3.42,-4.094 3.419,-6.764 0,-1.322 -0.331,-2.739 -1.05,-4.252 l 0.017,-0.008 c -0.098,-0.211 -0.203,-0.414 -0.315,-0.613 3.167,-0.361 7.544,-1.16 11.206,-2.651 3.79,-1.545 6.882,-3.861 6.894,-7.31 -0.003,-1.146 -0.35,-2.393 -1.108,-3.749 z m -5.967,10.618 c -3.682,1.501 -8.149,2.3 -11.302,2.643 -4.944,-7.59 -19.177,-5.975 -19.177,-5.975 0.001,0 0.437,-0.024 1.192,-0.024 1.867,0 5.655,0.143 9.348,1.131 3.37,0.898 6.634,2.502 8.339,5.281 1.008,1.794 1.447,3.423 1.447,4.905 -0.001,2.502 -1.253,4.617 -3.261,6.411 -5.929,5.31 -18.41,7.563 -22.871,7.818 -5.792,-1.427 -14.146,-1.309 -14.146,-1.309 0.01,0.001 2.917,0.245 6.209,0.611 4.854,0.537 10.188,0.789 13.84,4.422 0.835,0.83 1.597,1.788 2.21,2.795 0.997,1.903 1.451,3.698 1.451,5.388 0,3.326 -1.762,6.279 -4.678,8.919 -2.914,2.638 -6.97,4.943 -11.484,6.948 -4.618,1.821 -9.309,2.576 -13.827,2.576 -12.147,0.005 -23.056,-5.478 -27.997,-10.254 -6.546,-6.638 -8.99,-13.568 -8.993,-20.412 -0.005,-11.573 7.041,-22.924 13.279,-31.929 16.228,-23.531 17.411,-34.806 17.412,-37.604 0,-0.197 -0.006,-0.352 -0.013,-0.466 0.515,-0.082 1.909,-0.411 5.152,-1.734 -1.675,20.202 -12.757,34.464 -22.643,54.539 -2.72,6.18 -3.804,11.113 -3.805,15.089 -0.004,10.885 8.158,14.464 12.822,16.371 4.162,1.845 8.18,2.518 11.815,2.518 9.605,-0.003 16.288,-5.068 16.288,-5.068 -0.001,0.001 -0.42,0.282 -1.207,0.713 -2.364,1.293 -7.994,3.883 -15.081,3.881 -3.396,0 -7.128,-0.597 -11.003,-2.211 -2.445,-2.821 -3.442,-5.424 -3.443,-7.807 -0.011,-4.86 4.201,-8.966 9.251,-12.061 5.034,-3.09 10.857,-5.165 13.945,-6.047 12.519,-2.837 16.537,-3.188 17.723,-3.187 0.197,0 -4.674,-0.413 -17.685,2.693 -1.931,-2.333 -2.739,-4.411 -2.739,-6.253 -0.001,-2.552 1.547,-4.728 3.999,-6.575 3.257,-2.459 7.235,-3.911 11.107,-5.072 3.627,-1.087 7.349,-1.894 11.101,-2.402 4.584,-0.622 9.28,-0.249 13.865,0.318 2.521,0.311 3.978,0.619 3.982,0.619 0,0 -5.014,-1.531 -14.206,-1.728 -3.102,-2.532 -4.706,-6.532 -4.705,-10.339 0,-2.948 0.959,-5.768 2.893,-7.699 0.904,-0.905 2.372,-2.347 3.621,-3.937 1.245,-1.593 2.288,-3.324 2.296,-4.893 0.001,-0.683 -0.211,-1.337 -0.697,-1.887 -1.359,-1.875 -2.114,-3.417 -2.1,-4.155 0.001,-0.212 0.052,-0.332 0.127,-0.405 0.075,-0.075 0.207,-0.132 0.447,-0.133 0.412,-0.003 1.092,0.191 2.019,0.637 3.785,2.233 4.983,4.655 4.988,6.971 0.002,2.059 -0.973,4.073 -2.072,5.758 -2.268,2.68 -3.162,4.882 -3.163,6.706 0,2.286 1.416,3.9 3.101,4.996 1.688,1.102 3.67,1.725 4.918,2.066 8.993,2.045 14.767,3.479 17.675,7.467 0.722,1.297 1.036,2.459 1.038,3.502 0.009,3.116 -2.852,5.347 -6.602,6.874 z"
   id="path298"
   inkscape:connector-curvature="0"
   style="fill:#010202" />
		<g
   id="g302">
			
				<ellipse
   transform="matrix(-0.9026,-0.4305,0.4305,-0.9026,350.3328,219.577)"
   cx="200.005"
   cy="70.157997"
   rx="2.016"
   ry="4.8649998"
   id="ellipse300"
   style="fill:#4d8330" />
		</g>
		<g
   id="g306">
			
				<ellipse
   transform="matrix(-0.9506,-0.3103,0.3103,-0.9506,342.1661,234.7883)"
   cx="189.75999"
   cy="90.175003"
   rx="2.207"
   ry="5.9970002"
   id="ellipse304"
   style="fill:#4d8330" />
		</g>
		<g
   id="g310">
			
				<ellipse
   transform="matrix(-0.7868,0.6172,-0.6172,-0.7868,414.3079,90.6753)"
   cx="191.494"
   cy="116.892"
   rx="2.806"
   ry="7.3790002"
   id="ellipse308"
   style="fill:#4d8330" />
		</g>
		<g
   id="g314">
			
				<ellipse
   transform="matrix(0.2198,0.9755,-0.9755,0.2198,298.1901,-121.2623)"
   cx="224.908"
   cy="125.797"
   rx="3.7980001"
   ry="9.5939999"
   id="ellipse312"
   style="fill:#4d8330" />
		</g>
		<g
   id="g318">
			
				<ellipse
   transform="matrix(-0.34,0.9404,-0.9404,-0.34,398.1528,-59.6873)"
   cx="220.022"
   cy="109.878"
   rx="4.605"
   ry="9.9729996"
   id="ellipse316"
   style="fill:#4d8330" />
		</g>
		<g
   id="g322">
			
				<ellipse
   transform="matrix(0.2458,0.9693,-0.9693,0.2458,276.5727,-164.7154)"
   cx="244.138"
   cy="95.376999"
   rx="4.092"
   ry="9.1110001"
   id="ellipse320"
   style="fill:#4d8330" />
		</g>
		<g
   id="g326">
			
				<ellipse
   transform="matrix(0.057,0.9984,-0.9984,0.057,303.7919,-155.7876)"
   cx="234.366"
   cy="82.925003"
   rx="3.734"
   ry="7.638"
   id="ellipse324"
   style="fill:#4d8330" />
		</g>
		<g
   id="g330">
			
				<ellipse
   transform="matrix(0.057,0.9984,-0.9984,0.057,328.9816,-193.6359)"
   cx="266.99301"
   cy="77.330002"
   rx="2.905"
   ry="6.9590001"
   id="ellipse328"
   style="fill:#4d8330" />
		</g>
		<g
   id="g334">
			
				<ellipse
   transform="matrix(-0.9344,0.3563,-0.3563,-0.9344,511.0201,31.0572)"
   cx="252.64999"
   cy="62.591999"
   rx="2.5739999"
   ry="5.651"
   id="ellipse332"
   style="fill:#4d8330" />
		</g>
	</g>
	<g
   id="g526">
		<g
   id="g356">
			<g
   id="g342">
				<g
   id="g340">
					<path
   d="m 205.503,59.445 c 0,0 0.125,9.264 10.149,9.212 4.054,-0.313 10.789,-3.152 13.847,-11.254 -0.259,1.978 -1.413,8.165 7.843,3.706 -0.1,0.012 0.448,2.706 -9.174,6.699 -5.172,2.777 -8.758,5.691 -14.81,4.247 -4.382,-1.18 -9.678,-6.849 -11.155,-12.802 0.013,0.1 3.3,0.192 3.3,0.192 z"
   id="path338"
   inkscape:connector-curvature="0"
   style="fill:#312783" />
				</g>
			</g>
			<g
   id="g346">
				<path
   d="m 205.503,59.445 c 0,0 0.125,9.264 10.149,9.212 4.054,-0.313 10.789,-3.152 13.847,-11.254 -0.259,1.978 -1.413,8.165 7.843,3.706 -0.1,0.012 -1.667,1.74 -11.29,5.734 -5.173,2.776 -7.249,4.545 -13.302,3.1 -4.381,-1.18 -8.273,-5.279 -10.547,-10.69 0.013,0.1 3.3,0.192 3.3,0.192 z"
   id="path344"
   inkscape:connector-curvature="0"
   style="fill:#312783" />
			</g>
			<g
   id="g350">
				<path
   d="m 205.503,59.445 c 0,0 0.89,9.907 10.914,9.854 4.054,-0.312 11.761,-3.494 13.083,-11.896 -0.259,1.978 -3.562,9.568 7.843,3.706 -0.1,0.012 -1.414,1.908 -11.037,5.9 -5.173,2.777 -7.667,4.692 -13.719,3.247 -4.381,-1.18 -8.11,-5.592 -10.384,-11.004 0.013,0.101 3.3,0.193 3.3,0.193 z"
   id="path348"
   inkscape:connector-curvature="0"
   style="fill:#312783" />
			</g>
			<g
   id="g354">
				<path
   d="m 228.246,67.973 c -3.977,2.133 -7.047,4.381 -11.082,4.626 v 0 c -1.187,0.07 -2.456,-0.034 -3.849,-0.367 v 0 c -4.48,-1.22 -9.784,-6.915 -11.288,-12.936 h 0.001 v 0 c -0.002,-0.006 -0.003,-0.013 -0.006,-0.02 l 0.203,-0.039 0.067,-0.139 -0.035,0.072 0.026,-0.077 v 0 c 0.001,10e-4 0.001,10e-4 0.001,10e-4 v 0 c 0,0 0.001,0 0.002,10e-4 v 0 c 0.035,0.011 0.287,0.04 0.586,0.058 v 0 c 0.955,0.063 2.634,0.11 2.636,0.11 l 0.174,0.005 0.003,0.174 v 0 c 0,0 0.001,0.052 0.007,0.154 v 0 c 0.035,0.598 0.26,2.845 1.605,4.916 v 0 c 1.347,2.069 3.786,3.981 8.352,3.963 v 0 c 3.995,-0.314 10.654,-3.117 13.681,-11.137 l 0.417,-0.618 c -0.077,0.584 -0.293,2.22 -0.239,3.124 v 0 c 0.042,0.729 0.22,1.43 0.646,1.919 v 0 c 0.424,0.487 1.103,0.801 2.254,0.735 v 0 c 2.673,-0.354 5.41,-1.839 5.41,-1.839 0,0 -0.341,0.815 -0.487,1.153 v 0 c -0.469,1.093 -2.192,3.298 -9.085,6.161 z m 8.803,-6.435 c 0.014,-0.037 0.026,-0.072 0.035,-0.105 v 0 c -2.003,0.934 -3.509,1.359 -4.653,1.428 v 0 c -1.222,0.076 -2.045,-0.274 -2.552,-0.859 v 0 c -0.505,-0.584 -0.687,-1.366 -0.734,-2.136 v 0 c -0.024,-0.403 -0.009,-0.804 0.02,-1.179 v 0 c -3.276,7.246 -9.595,9.85 -13.498,10.151 l -0.007,0.001 h -0.006 v 0 c -4.672,0.03 -7.267,-1.968 -8.662,-4.128 v 0 c -1.395,-2.154 -1.624,-4.449 -1.663,-5.089 v 0 c -0.283,-0.008 -0.881,-0.028 -1.479,-0.053 v 0 c -0.413,-0.018 -0.826,-0.039 -1.139,-0.062 v 0 c -0.097,-0.007 -0.185,-0.014 -0.261,-0.022 v 0 c 1.544,5.783 6.734,11.269 10.955,12.395 v 0 c 1.356,0.322 2.587,0.423 3.737,0.355 v 0 c 3.904,-0.229 6.93,-2.431 10.94,-4.587 l 0.009,-0.005 0.007,-0.003 v 0 c 4.797,-1.989 7.045,-3.653 8.094,-4.796 v 0 c 0.526,-0.574 0.754,-1.014 0.857,-1.306 z"
   id="path352"
   inkscape:connector-curvature="0"
   style="fill:#312783" />
			</g>
		</g>
		<g
   id="g360">
			<path
   d="m 184.284,37.232 c 0,0 -1.857,-26.83 12.427,-28.454 3.684,-0.219 5.969,1.794 8.22,1.666 1.838,-0.059 2.823,-2.222 8.102,-2.01 1.697,0.439 14.147,5.29 10.989,28.567 0,0 -22.269,11.181 -39.738,0.231 z"
   id="path358"
   inkscape:connector-curvature="0"
   style="fill:#a1c85f" />
		</g>
		<g
   id="g364">
			<path
   d="m 184.284,37.232 c 0,0 0.372,-26.389 13.572,-27.244 3.684,-0.219 4.363,2.657 6.614,2.529 1.838,-0.059 3.117,-2.667 8.396,-2.455 2.09,0.205 13.655,7.428 11.157,26.94 -0.001,-0.001 -22.27,11.18 -39.739,0.23 z"
   id="path362"
   inkscape:connector-curvature="0"
   style="fill:#7aba41" />
		</g>
		<g
   id="g408">
			<g
   id="g386">
				<path
   d="m 203.529,31.222 c -0.923,6.855 -5.368,8.111 -8.983,7.502 -3.164,-0.534 -7.717,-2.758 -6.905,-11.359 0.65,-6.887 4.834,-12.233 9.535,-11.6 4.7,0.633 7.276,8.601 6.353,15.457 z"
   id="path366"
   inkscape:connector-curvature="0"
   style="fill:#5d9f31" />
				
					<radialGradient
   id="SVGID_9_"
   cx="-511.8432"
   cy="-22.2598"
   r="23.0154"
   gradientTransform="matrix(-1.0337,-0.0104,-0.0125,1.0419,-333.2843,46.1491)"
   gradientUnits="userSpaceOnUse">
					<stop
   offset="0"
   style="stop-color:#040404"
   id="stop368" />
					<stop
   offset="1"
   style="stop-color:#050405"
   id="stop370" />
				</radialGradient>
				<path
   d="m 202.798,32.256 c -0.804,5.965 -4.865,7.032 -8.179,6.478 -2.9,-0.484 -7.083,-2.448 -6.392,-9.935 0.553,-5.993 4.352,-10.623 8.659,-10.043 4.308,0.578 6.715,7.535 5.912,13.5 z"
   id="path373"
   inkscape:connector-curvature="0"
   style="fill:url(#SVGID_9_)" />
				
					<radialGradient
   id="SVGID_10_"
   cx="-550.17419"
   cy="-21.1387"
   r="23.0156"
   gradientTransform="matrix(-0.9999,-0.011,-0.011,0.9999,-354.2815,43.7931)"
   gradientUnits="userSpaceOnUse">
					<stop
   offset="0.2378"
   style="stop-color:#FCFCFD"
   id="stop375" />
					<stop
   offset="0.3392"
   style="stop-color:#C9C7CB"
   id="stop377" />
					<stop
   offset="0.5651"
   style="stop-color:#605D63"
   id="stop379" />
					<stop
   offset="0.8486"
   style="stop-color:#010202"
   id="stop381" />
				</radialGradient>
				<path
   d="m 202.566,32.531 c -0.77,5.724 -4.699,6.743 -7.905,6.209 -2.805,-0.468 -6.853,-2.358 -6.193,-9.542 0.529,-5.752 4.198,-10.192 8.366,-9.63 4.168,0.561 6.504,7.239 5.732,12.963 z"
   id="path384"
   inkscape:connector-curvature="0"
   style="fill:url(#SVGID_10_)" />
			</g>
			
				<radialGradient
   id="SVGID_11_"
   cx="-562.54187"
   cy="-29.149799"
   r="9.4858999"
   gradientTransform="matrix(-0.9898,-0.0109,-0.0126,1.1413,-360.8461,57.2064)"
   gradientUnits="userSpaceOnUse">
				<stop
   offset="0.0162"
   style="stop-color:#30669D"
   id="stop388" />
				<stop
   offset="0.5405"
   style="stop-color:#122C45"
   id="stop390" />
				<stop
   offset="1"
   style="stop-color:#141F35"
   id="stop392" />
			</radialGradient>
			<path
   d="m 191.594,30.433 c -0.032,2.838 1.939,5.161 4.401,5.188 2.461,0.027 4.482,-2.252 4.513,-5.09 0.032,-2.839 -1.938,-5.162 -4.399,-5.189 -2.463,-0.027 -4.485,2.253 -4.515,5.091 z"
   id="path395"
   inkscape:connector-curvature="0"
   style="fill:url(#SVGID_11_)" />
			
				<radialGradient
   id="SVGID_12_"
   cx="-328.84531"
   cy="-23.476801"
   r="5.9419999"
   gradientTransform="matrix(-1.2291,-0.0135,-0.0116,1.0547,-208.2476,51.2048)"
   gradientUnits="userSpaceOnUse">
				<stop
   offset="0"
   style="stop-color:#040404"
   id="stop397" />
				<stop
   offset="1"
   style="stop-color:#050405"
   id="stop399" />
			</radialGradient>
			<path
   d="m 193.359,31.135 c -0.021,1.934 1.164,3.515 2.646,3.532 1.482,0.016 2.7,-1.538 2.721,-3.473 0.021,-1.934 -1.163,-3.515 -2.645,-3.531 -1.481,-0.017 -2.7,1.537 -2.722,3.472 z"
   id="path402"
   inkscape:connector-curvature="0"
   style="fill:url(#SVGID_12_)" />
			
				<ellipse
   transform="matrix(-0.9999,-0.011,0.011,-0.9999,391.8746,55.7601)"
   cx="196.091"
   cy="26.798"
   rx="1.546"
   ry="0.95599997"
   id="ellipse404"
   style="fill:#ffffff" />
			<circle
   cx="195.98399"
   cy="31.254999"
   r="0.59100002"
   id="circle406"
   style="fill:#ffffff" />
		</g>
		<g
   id="g452">
			<g
   id="g430">
				<path
   d="m 205.692,31.246 c 0.772,6.873 5.187,8.227 8.816,7.697 3.174,-0.464 7.775,-2.587 7.153,-11.205 -0.498,-6.899 -4.564,-12.336 -9.277,-11.806 -4.714,0.53 -7.465,8.439 -6.692,15.314 z"
   id="path410"
   inkscape:connector-curvature="0"
   style="fill:#5d9f31" />
				
					<radialGradient
   id="SVGID_13_"
   cx="1782.9703"
   cy="-24.6507"
   r="23.015699"
   gradientTransform="matrix(1.0337,0.0124,-0.0105,1.0419,-1630.118,32.0427)"
   gradientUnits="userSpaceOnUse">
					<stop
   offset="0"
   style="stop-color:#040404"
   id="stop412" />
					<stop
   offset="1"
   style="stop-color:#050405"
   id="stop414" />
				</radialGradient>
				<path
   d="m 206.4,32.295 c 0.672,5.981 4.709,7.137 8.035,6.657 2.91,-0.419 7.134,-2.292 6.609,-9.792 -0.421,-6.004 -4.116,-10.716 -8.436,-10.232 -4.321,0.485 -6.881,7.386 -6.208,13.367 z"
   id="path417"
   inkscape:connector-curvature="0"
   style="fill:url(#SVGID_13_)" />
				
					<radialGradient
   id="SVGID_14_"
   cx="1821.7799"
   cy="-21.0532"
   r="23.0161"
   gradientTransform="matrix(0.9999,0.011,-0.011,0.9999,-1608.6251,29.9085)"
   gradientUnits="userSpaceOnUse">
					<stop
   offset="0.2378"
   style="stop-color:#FCFCFD"
   id="stop419" />
					<stop
   offset="0.3392"
   style="stop-color:#C9C7CB"
   id="stop421" />
					<stop
   offset="0.5651"
   style="stop-color:#605D63"
   id="stop423" />
					<stop
   offset="0.8486"
   style="stop-color:#010202"
   id="stop425" />
				</radialGradient>
				<path
   d="m 206.625,32.576 c 0.645,5.739 4.549,6.845 7.766,6.381 2.817,-0.406 6.905,-2.206 6.403,-9.404 -0.402,-5.762 -3.973,-10.281 -8.152,-9.812 -4.18,0.47 -6.662,7.095 -6.017,12.835 z"
   id="path428"
   inkscape:connector-curvature="0"
   style="fill:url(#SVGID_14_)" />
			</g>
			
				<radialGradient
   id="SVGID_15_"
   cx="1834.3267"
   cy="-29.235399"
   r="9.4863997"
   gradientTransform="matrix(0.9898,0.0109,-0.0126,1.1413,-1603.0659,43.6244)"
   gradientUnits="userSpaceOnUse">
				<stop
   offset="0.0162"
   style="stop-color:#30669D"
   id="stop432" />
				<stop
   offset="0.5405"
   style="stop-color:#122C45"
   id="stop434" />
				<stop
   offset="1"
   style="stop-color:#141F35"
   id="stop436" />
			</radialGradient>
			<path
   d="m 217.642,30.72 c -0.031,2.838 -2.052,5.118 -4.513,5.09 -2.462,-0.027 -4.431,-2.35 -4.401,-5.189 0.031,-2.838 2.052,-5.117 4.513,-5.09 2.462,0.027 4.432,2.35 4.401,5.189 z"
   id="path439"
   inkscape:connector-curvature="0"
   style="fill:url(#SVGID_15_)" />
			
				<radialGradient
   id="SVGID_16_"
   cx="1600.7465"
   cy="-23.0425"
   r="5.9415002"
   gradientTransform="matrix(1.2291,0.0135,-0.0116,1.0547,-1754.7272,33.7607)"
   gradientUnits="userSpaceOnUse">
				<stop
   offset="0"
   style="stop-color:#040404"
   id="stop441" />
				<stop
   offset="1"
   style="stop-color:#050405"
   id="stop443" />
			</radialGradient>
			<path
   d="m 215.861,31.382 c -0.021,1.934 -1.24,3.489 -2.722,3.472 -1.482,-0.016 -2.666,-1.597 -2.645,-3.532 0.021,-1.934 1.24,-3.489 2.722,-3.472 1.481,0.017 2.666,1.598 2.645,3.532 z"
   id="path446"
   inkscape:connector-curvature="0"
   style="fill:url(#SVGID_16_)" />
			
				<ellipse
   transform="matrix(0.9999,0.0111,-0.0111,0.9999,0.313,-2.3672)"
   cx="213.22501"
   cy="26.986"
   rx="1.546"
   ry="0.95599997"
   id="ellipse448"
   style="fill:#ffffff" />
			<circle
   cx="213.388"
   cy="31.507"
   r="0.59100002"
   id="circle450"
   style="fill:#ffffff" />
		</g>
		<g
   id="g456">
			<path
   d="m 184.188,37.386 0.096,-0.154 0.182,-0.012 -0.182,0.012 -0.096,0.154 -0.079,-0.05 -0.006,-0.092 c 0,-0.004 -0.1,-1.451 -0.076,-3.694 v 0 c 0.042,-3.715 0.422,-9.61 2.177,-14.754 v 0 c 1.749,-5.137 4.901,-9.563 10.496,-10.2 v 0 c 0.231,-0.014 0.455,-0.019 0.677,-0.017 v 0 c 3.231,0.042 5.368,1.682 7.305,1.688 v 0 c 0.08,0 0.159,-10e-4 0.243,-0.005 v 0 c 0.812,-0.021 1.486,-0.518 2.574,-1.036 v 0 c 1.086,-0.515 2.574,-1.016 5.01,-0.988 v 0 c 0.172,0.003 0.348,0.006 0.532,0.014 v 0 h 0.019 l 0.019,0.005 c 1.584,0.4 11.834,4.434 11.633,22.11 v 0 c -0.022,2.034 -0.183,4.248 -0.509,6.659 v 0 l -0.013,0.095 -0.085,0.042 c -0.015,0.006 -10.326,5.187 -22.459,5.055 v 0 c -5.713,-0.063 -11.832,-1.306 -17.458,-4.832 z m 17.461,4.468 c 9.02,0.101 17.058,-2.773 20.505,-4.215 v 0 c 0.905,-0.378 1.491,-0.656 1.699,-0.759 v 0 c 0.317,-2.359 0.472,-4.526 0.493,-6.517 v 0 C 224.533,12.919 214.527,9.03 213.005,8.615 v 0 c -0.172,-0.006 -0.338,-0.011 -0.502,-0.013 v 0 c -2.386,-0.025 -3.798,0.456 -4.85,0.953 v 0 c -1.051,0.492 -1.755,1.034 -2.713,1.07 v 0 c -0.088,0.005 -0.175,0.007 -0.263,0.006 v 0 c -2.129,-0.039 -4.197,-1.66 -7.305,-1.688 v 0 c -0.212,-0.002 -0.428,0.003 -0.641,0.016 v 0 c -5.387,0.612 -8.444,4.868 -10.183,9.954 v 0 c -1.733,5.08 -2.117,10.947 -2.156,14.641 v 0 c -0.021,1.903 0.047,3.223 0.068,3.572 v 0 c 5.535,3.446 11.553,4.666 17.189,4.728 z"
   id="path454"
   inkscape:connector-curvature="0"
   style="fill:#010202" />
		</g>
		<g
   id="g462">
			<g
   id="g460">
				<path
   d="m 184.518,49.777 c 0,0 5.201,12.835 19.92,12.161 6.024,-0.612 13.454,-2.708 15.565,-11.401 3.608,-1.855 12.762,-6.871 8.812,-14.889 -1.809,-2.892 -6.33,-4.98 -12.671,0.529 -2.223,1.93 -5.356,3.346 -9.34,-1.652 -1.563,-1.719 -2.473,-2.232 -5.791,2.395 -1.795,2.1 -4.141,2.152 -11.187,-1.492 -4.48,-2.594 -9.38,-6.34 -11.714,1.317 -1.067,3.175 -1.616,9.277 6.406,13.032 z"
   id="path458"
   inkscape:connector-curvature="0"
   style="fill:#cccb65" />
			</g>
		</g>
		<g
   id="g468">
			<g
   id="g466">
				<path
   d="m 228.814,35.647 c -1.809,-2.892 -6.33,-4.98 -12.671,0.529 -2.223,1.93 -5.356,3.346 -9.34,-1.652 -1.563,-1.719 -2.473,-2.232 -5.791,2.395 -1.795,2.1 -4.141,2.152 -11.187,-1.492 -4.48,-2.594 -9.38,-6.34 -11.714,1.317 -1.047,3.122 0.873,9.97 6.33,12.88 -0.522,-1.745 -0.849,-2.718 -1.157,-5.107 -0.074,-0.582 4.624,15.213 21.129,14.303 14.744,-0.473 16.485,-16.321 16.509,-15.745 0.129,3.07 -0.43,5.082 -0.891,7.487 2.739,-2.273 11.637,-8.953 8.783,-14.915 z"
   id="path464"
   inkscape:connector-curvature="0"
   style="fill:#efed9f" />
			</g>
		</g>
		<g
   id="g474">
			<g
   id="g472">
				<path
   d="m 228.814,35.647 c -1.809,-2.892 -6.132,-3.811 -12.474,1.699 -2.222,1.93 -5.912,3.344 -9.897,-1.655 -1.562,-1.719 -1.943,-1.955 -5.261,2.671 -1.794,2.099 -4.712,1.559 -11.757,-2.085 -4.48,-2.594 -8.979,-7.19 -11.314,0.468 -1.047,3.122 0.873,9.97 6.33,12.88 -0.522,-1.745 -0.849,-2.718 -1.157,-5.107 -0.074,-0.582 4.713,15.396 21.22,14.486 14.654,-0.657 16.395,-16.505 16.419,-15.928 0.129,3.07 -0.43,5.082 -0.891,7.487 2.738,-2.274 11.636,-8.954 8.782,-14.916 z"
   id="path470"
   inkscape:connector-curvature="0"
   style="fill:#ece87a" />
			</g>
		</g>
		<path
   d="m 213.588,43.622 c 0,0 5.128,0.696 1.64,5.691 -0.021,0.03 2.304,-4.345 -1.64,-5.691 z"
   id="path476"
   inkscape:connector-curvature="0"
   style="fill:#cccb65" />
		<path
   d="m 191.958,49.89 c 0,0 -2.373,-4.757 2.604,-5.127 -0.114,0.056 -3.225,1.057 -2.604,5.127 z"
   id="path478"
   inkscape:connector-curvature="0"
   style="fill:#cccb65" />
		<path
   d="m 229.965,39.595 c 0.015,-1.252 -0.284,-2.598 -0.988,-4.028 l -0.005,-0.009 -0.005,-0.007 c -1.001,-1.602 -2.823,-2.97 -5.304,-2.997 -2.12,-0.023 -4.697,0.929 -7.64,3.486 -1.09,0.946 -2.379,1.745 -3.855,1.727 -1.495,-0.016 -3.235,-0.862 -5.224,-3.357 -0.665,-0.726 -1.23,-1.287 -1.986,-1.304 -1.045,0.009 -2.153,1.017 -4.089,3.7 -0.775,0.897 -1.602,1.383 -2.92,1.373 -1.665,-0.015 -4.122,-0.884 -8.041,-2.914 -2.461,-1.418 -5.06,-3.223 -7.378,-3.257 -1.904,-0.029 -3.551,1.218 -4.594,4.684 -0.319,0.951 -0.594,2.17 -0.609,3.513 -0.042,3.173 1.408,7.049 7.05,9.707 0.416,0.967 5.483,12.079 18.689,12.232 0.451,0.005 0.91,-0.004 1.38,-0.024 2.408,-0.108 4.982,-0.777 7.209,-1.666 2.526,-1.009 4.777,-2.529 6.271,-4.842 0.532,-0.823 1.018,-1.678 1.429,-2.57 0.203,-0.44 0.389,-0.89 0.541,-1.351 0.047,-0.141 0.179,-1.003 0.301,-1.066 3.055,-1.587 9.682,-5.248 9.768,-11.03 z m -9.717,10.576 c 1.153,-5.582 0.576,-7.191 0.576,-7.191 0,0.001 0.005,0.229 0,0.624 -0.012,1.286 -0.997,6.889 -0.997,6.889 -2.087,8.585 -9.397,10.646 -15.405,11.264 -0.453,0.02 -0.906,0.028 -1.35,0.023 -6.781,-0.076 -11.367,-3.092 -14.274,-6.094 -1.452,-1.501 -2.481,-2.999 -3.146,-4.12 -0.18,-0.303 -0.333,-0.578 -0.46,-0.819 l 0.01,-0.006 c -0.334,-0.538 -0.85,-2.219 -1.26,-3.733 -0.414,-1.518 -0.737,-2.888 -0.738,-2.89 0,0 0.056,2.78 1.087,5.344 -5.327,-2.613 -6.623,-6.239 -6.598,-9.252 0.014,-1.297 0.281,-2.48 0.591,-3.407 1.052,-3.408 2.529,-4.442 4.243,-4.431 2.132,0.016 4.731,1.774 7.207,3.213 3.946,2.039 6.426,2.936 8.213,2.958 1.418,0.02 2.393,-0.55 3.204,-1.506 l 0.004,-0.005 0.005,-0.007 c 1.915,-2.688 3.036,-3.585 3.795,-3.556 0.546,-10e-4 1.061,0.454 1.713,1.177 2.016,2.531 3.857,3.467 5.497,3.485 1.615,0.016 2.981,-0.849 4.098,-1.818 2.9,-2.519 5.393,-3.419 7.397,-3.397 2.34,0.026 4.044,1.306 4.995,2.819 0.68,1.383 0.96,2.665 0.947,3.855 -0.037,5.3 -6.198,8.932 -9.354,10.581 z"
   id="path480"
   inkscape:connector-curvature="0"
   style="fill:#010202" />
		<g
   id="g484">
			<path
   d="m 215.229,49.312 c 0.77,-1.228 1.057,-2.19 1.066,-2.932 v 0 c 0.007,-0.875 -0.359,-1.462 -0.831,-1.882 v 0 c -0.473,-0.419 -1.058,-0.653 -1.448,-0.771 v 0 c -0.26,-0.079 -0.425,-0.104 -0.426,-0.104 v 0 0 c 0,0 2.231,-0.277 2.997,2.057 0.259,2.301 -1.358,3.632 -1.358,3.632 z"
   id="path482"
   inkscape:connector-curvature="0"
   style="fill:#010202" />
		</g>
		<g
   id="g502">
			<g
   id="g488">
				<path
   d="m 208.845,50.355 c 0,0 2.537,-9.588 5.108,-3.588 0.398,1.659 0.005,3.494 -5.108,3.588 z"
   id="path486"
   inkscape:connector-curvature="0"
   style="fill:#cccb65" />
			</g>
			<g
   id="g492">
				<path
   d="m 208.845,50.355 c 0,0 2.326,-7.95 4.702,-2.971 0.368,1.377 0.008,2.898 -4.702,2.971 z"
   id="path490"
   inkscape:connector-curvature="0"
   style="fill:#26361b" />
			</g>
			<g
   id="g496">
				<path
   d="m 208.97,49.992 c 0,0 1.77,-6.393 3.571,-2.39 0.279,1.107 0.005,2.33 -3.571,2.39 z"
   id="path494"
   inkscape:connector-curvature="0"
   style="fill:#406f2c" />
			</g>
			<g
   id="g500">
				<path
   d="m 208.67,50.304 c 0.007,-0.011 0.757,-2.615 1.895,-3.964 v 0 c 0.38,-0.447 0.821,-0.779 1.334,-0.777 v 0 c 0.645,0.014 1.241,0.546 1.812,1.743 v 0 l 0.007,0.015 0.005,0.016 c 0.07,0.261 0.115,0.531 0.113,0.803 v 0 c -0.001,0.614 -0.288,1.239 -1.056,1.666 v 0 c -0.765,0.43 -1.988,0.7 -3.932,0.732 v 0 l -0.247,0.003 z m 0.349,0.102 -0.174,-0.052 z m 1.824,-3.831 c -0.35,0.411 -0.675,0.978 -0.946,1.547 v 0 c -0.393,0.824 -0.678,1.652 -0.804,2.047 v 0 c 1.764,-0.049 2.865,-0.315 3.507,-0.68 v 0 c 0.67,-0.385 0.859,-0.839 0.87,-1.352 v 0 c 0.003,-0.222 -0.035,-0.455 -0.095,-0.688 v 0 c -0.553,-1.152 -1.074,-1.523 -1.481,-1.521 v 0 c -0.002,0 -0.005,-10e-4 -0.008,0 v 0 c -0.333,-0.005 -0.696,0.235 -1.043,0.647 z"
   id="path498"
   inkscape:connector-curvature="0"
   style="fill:#010202" />
			</g>
		</g>
		<g
   id="g506">
			<path
   d="m 191.371,46.4 c 0.831,-2.041 3.306,-1.62 3.306,-1.62 -0.001,0.002 -0.191,0 -0.488,0.044 v 0 c -0.298,0.045 -0.694,0.133 -1.087,0.308 v 0 c -0.787,0.357 -1.543,1.01 -1.565,2.4 v 0 c -0.008,0.676 0.168,1.534 0.628,2.613 v 0 c 0,-0.001 -1.604,-1.393 -0.794,-3.745 z"
   id="path504"
   inkscape:connector-curvature="0"
   style="fill:#010202" />
		</g>
		<g
   id="g524">
			<g
   id="g510">
				<path
   d="m 198.307,52.172 c 0,0 -1.318,-9.29 -4.301,-4.35 -0.845,1.793 0.124,3.693 4.301,4.35 z"
   id="path508"
   inkscape:connector-curvature="0"
   style="fill:#cccb65" />
			</g>
			<g
   id="g514">
				<path
   d="m 198.307,52.172 c 0,0 -1.292,-7.827 -4.178,-3.67 -0.82,1.51 0.123,3.111 4.178,3.67 z"
   id="path512"
   inkscape:connector-curvature="0"
   style="fill:#26361b" />
			</g>
			<g
   id="g518">
				<path
   d="m 198.187,51.523 c 0,0 -1.277,-6.873 -2.86,-3.056 -0.429,1.374 0.262,2.748 2.86,3.056 z"
   id="path516"
   inkscape:connector-curvature="0"
   style="fill:#406f2c" />
			</g>
			<g
   id="g522">
				<path
   d="m 198.282,52.352 c -1.617,-0.224 -2.756,-0.61 -3.505,-1.108 v 0 c -0.749,-0.496 -1.111,-1.128 -1.101,-1.789 v 0 c 0.005,-0.351 0.109,-0.702 0.292,-1.041 v 0 l 0.005,-0.008 0.005,-0.009 c 0.624,-0.897 1.202,-1.297 1.772,-1.295 v 0 c 0.529,0.008 0.951,0.371 1.287,0.849 v 0 c 0.337,0.483 0.606,1.105 0.821,1.724 v 0 c 0.426,1.238 0.628,2.461 0.628,2.466 v 0 l -0.179,0.029 0.025,-0.18 -0.025,0.18 0.179,-0.029 0.041,0.243 z m -4.242,-2.893 c -0.003,0.521 0.259,1.025 0.938,1.482 v 0 c 0.642,0.429 1.655,0.792 3.104,1.015 v 0 c -0.053,-0.271 -0.151,-0.739 -0.298,-1.277 v 0 c -0.23,-0.847 -0.585,-1.864 -1.045,-2.518 v 0 c -0.309,-0.44 -0.646,-0.694 -0.993,-0.694 v 0 c -0.371,-0.008 -0.869,0.276 -1.464,1.132 v 0 c -0.157,0.294 -0.239,0.584 -0.242,0.86 z"
   id="path520"
   inkscape:connector-curvature="0"
   style="fill:#010202" />
			</g>
		</g>
	</g>
</g>






<g
   id="g2622"
   transform="translate(-170.011,-8.2368787)">
</g>
<g
   id="g2624"
   transform="translate(-170.011,-8.2368787)">
</g>
<g
   id="g2626"
   transform="translate(-170.011,-8.2368787)">
</g>
<g
   id="g2628"
   transform="translate(-170.011,-8.2368787)">
</g>
<g
   id="g2630"
   transform="translate(-170.011,-8.2368787)">
</g>
<g
   id="g2632"
   transform="translate(-170.011,-8.2368787)">
</g>
</svg>