<?xml version="1.0" encoding="UTF-8" standalone="no"?>
<!-- Generator: Adobe Illustrator 17.0.0, SVG Export Plug-In . SVG Version: 6.00 Build 0)  -->

<svg
   xmlns:dc="http://purl.org/dc/elements/1.1/"
   xmlns:cc="http://creativecommons.org/ns#"
   xmlns:rdf="http://www.w3.org/1999/02/22-rdf-syntax-ns#"
   xmlns:svg="http://www.w3.org/2000/svg"
   xmlns="http://www.w3.org/2000/svg"
   xmlns:sodipodi="http://sodipodi.sourceforge.net/DTD/sodipodi-0.dtd"
   xmlns:inkscape="http://www.inkscape.org/namespaces/inkscape"
   version="1.1"
   id="Слой_1"
   x="0px"
   y="0px"
   width="108.72217"
   height="134.46234"
   viewBox="0 0 108.72217 134.46234"
   enable-background="new 0 0 1200 150"
   xml:space="preserve"
   sodipodi:docname="2.svg"
   inkscape:version="0.92.4 (5da689c313, 2019-01-14)"><metadata
   id="metadata2639"><rdf:RDF><cc:Work
       rdf:about=""><dc:format>image/svg+xml</dc:format><dc:type
         rdf:resource="http://purl.org/dc/dcmitype/StillImage" /><dc:title></dc:title></cc:Work></rdf:RDF></metadata><defs
   id="defs2637" /><sodipodi:namedview
   pagecolor="#ffffff"
   bordercolor="#666666"
   borderopacity="1"
   objecttolerance="10"
   gridtolerance="10"
   guidetolerance="10"
   inkscape:pageopacity="0"
   inkscape:pageshadow="2"
   inkscape:window-width="1920"
   inkscape:window-height="1017"
   id="namedview2635"
   showgrid="false"
   inkscape:zoom="0.47333333"
   inkscape:cx="536.63361"
   inkscape:cy="-158.55105"
   inkscape:window-x="-8"
   inkscape:window-y="-8"
   inkscape:window-maximized="1"
   inkscape:current-layer="Слой_1"
   fit-margin-top="0"
   fit-margin-left="0"
   fit-margin-right="0"
   fit-margin-bottom="0" />


<g
   id="g902"
   transform="translate(-319.54225,-7.4483355)">
	<g
   id="g532">
		<path
   d="m 418.545,91.126 c -0.011,0.016 -0.021,0.03 -0.031,0.045 0.031,10e-4 0.043,-0.012 0.031,-0.045 z"
   id="path530"
   inkscape:connector-curvature="0"
   style="fill:#50782d" />
	</g>
	<g
   id="g674">
		<g
   id="g576">
			<g
   id="g558">
				<g
   id="g536">
					<path
   d="m 387.352,93.45 c 0,0 34.706,-14.434 40.621,12.213 0.717,6.102 -5.121,19.952 -29.11,21.213 -1.944,0.485 -16.624,-1.198 -18.572,-6.852 2.238,-3.047 8.227,-12.039 7.061,-26.574 z"
   id="path534"
   inkscape:connector-curvature="0"
   style="fill:#4d8330" />
				</g>
				<g
   id="g540">
					<path
   d="m 387.352,93.45 c 0,0 34.912,-14.174 37.905,11.194 0.717,6.102 -7.257,15.929 -27.257,17.413 -2.85,0.145 -13.156,-0.565 -15.104,-6.218 2.238,-3.048 5.622,-7.854 4.456,-22.389 z"
   id="path538"
   inkscape:connector-curvature="0"
   style="fill:#7aba41" />
				</g>
				<path
   d="m 388.43,107.207 c 0,0 13.783,-6.445 16.618,-0.808 -0.014,0.116 0.673,6.101 -5.83,6.059 0.859,0.095 8.608,1.105 8.245,-6.019 -0.19,-2.973 -5.894,-8.82 -19.577,-1.183 0.007,-0.057 0.544,1.951 0.544,1.951 z"
   id="path542"
   inkscape:connector-curvature="0"
   style="fill:#a1c85f" />
				<g
   id="g546">
					<path
   d="m 395.35,106.054 c -6.584,6.316 -6.542,16.678 -6.393,19.533 4.356,1.202 8.886,1.545 9.907,1.29 0.998,-0.052 1.962,-0.129 2.898,-0.223 -9.024,-5.76 -6.209,-20.345 -6.412,-20.6 z"
   id="path544"
   inkscape:connector-curvature="0"
   style="fill:#2f4a1f" />
				</g>
				<g
   id="g550">
					<path
   d="m 399.573,102.17 c 0.431,0.282 8.983,3.084 18.431,-10.264 -3.534,-1.752 -7.572,-2.368 -11.529,-2.357 -0.297,2.44 -1.569,8.893 -6.902,12.621 z"
   id="path548"
   inkscape:connector-curvature="0"
   style="fill:#2f4a1f" />
				</g>
				<g
   id="g554">
					<path
   d="m 428.021,107.089 c -2.492,0.849 -13.541,4.374 -22.806,3.519 0.174,0.478 11.804,5.599 18.981,5.79 2.635,-3.282 3.721,-6.714 3.825,-9.309 z"
   id="path552"
   inkscape:connector-curvature="0"
   style="fill:#2f4a1f" />
				</g>
				<path
   d="m 428.206,105.636 -0.002,-0.011 -0.002,-0.012 c -2.456,-11.118 -9.96,-15.203 -17.82,-16.091 -11.151,-1.274 -23.102,3.708 -23.12,3.712 l -0.157,0.065 0.013,0.17 c 0.247,3.09 0.17,5.926 -0.126,8.507 -0.26,2.266 -0.69,4.333 -1.216,6.201 -0.003,0.002 -0.011,0.006 -0.012,0.006 l 0.007,0.013 c -1.678,5.954 -4.34,9.879 -5.67,11.691 l -0.073,0.099 0.04,0.117 c 0.769,2.2 3.266,3.746 6.177,4.855 2.917,1.105 6.275,1.754 8.829,2.048 1.828,0.205 3.212,0.241 3.821,0.106 21.411,-1.126 28.514,-12.297 29.294,-19.151 0.097,-0.849 0.098,-1.633 0.017,-2.325 z m -29.355,21.006 -0.023,0.001 -0.022,0.005 c -0.437,0.115 -1.864,0.101 -3.678,-0.111 -2.522,-0.289 -5.854,-0.936 -8.716,-2.021 -2.812,-1.06 -5.145,-2.556 -5.859,-4.454 1.357,-1.859 3.951,-5.743 5.622,-11.566 0.241,-0.124 0.703,-0.356 1.341,-0.656 2.867,-1.353 9.193,-3.981 13.513,-3.476 1.641,0.191 2.963,0.807 3.759,2.077 0.216,0.467 0.28,0.948 0.225,1.437 -0.131,1.174 -0.997,2.387 -2.176,3.253 -1.177,0.869 -2.654,1.383 -3.946,1.233 -0.303,-0.035 -0.596,-0.105 -0.875,-0.215 0,0 2.055,1.448 5.099,-0.64 1.283,-0.88 2.205,-2.215 2.365,-3.578 0.065,-0.568 -0.013,-1.148 -0.271,-1.699 l -0.006,-0.012 -0.008,-0.012 c -0.888,-1.433 -2.385,-2.114 -4.113,-2.31 -5.147,-0.577 -12.627,2.938 -14.739,3.99 0.48,-1.782 0.871,-3.735 1.115,-5.861 0.294,-2.562 0.374,-5.372 0.14,-8.425 0.28,-0.112 0.927,-0.363 1.868,-0.688 3.858,-1.333 12.627,-3.875 20.861,-2.928 7.742,0.902 14.975,4.801 17.414,15.716 0.074,0.648 0.074,1.392 -0.019,2.203 -0.763,6.604 -7.603,17.61 -28.871,18.737 z"
   id="path556"
   inkscape:connector-curvature="0"
   style="fill:#010202" />
			</g>
			<g
   id="g574">
				<g
   id="g562">
					<path
   d="m 372.01,132.532 c 0,0 31.725,15.678 52.69,-16.857 0.233,0.027 -21.925,18.26 -43.531,4.922 z"
   id="path560"
   inkscape:connector-curvature="0"
   style="fill:#cccb65" />
				</g>
				<g
   id="g566">
					<path
   d="m 374.508,129.278 c 0,0 30.228,14.326 50.192,-13.602 0.233,0.027 -21.925,18.26 -43.531,4.922 z"
   id="path564"
   inkscape:connector-curvature="0"
   style="fill:#f5ef9c" />
				</g>
				<g
   id="g570">
					<path
   d="m 374.508,129.278 c 0,0 30.228,14.326 50.192,-13.602 0.233,0.027 -20.488,22.203 -44.73,7.146 z"
   id="path568"
   inkscape:connector-curvature="0"
   style="fill:#ece87a" />
				</g>
				<path
   d="m 424.874,115.546 c -0.073,-0.049 -0.196,-0.056 -0.313,-0.025 -0.249,0.066 -0.576,0.469 -0.777,0.624 -3.099,2.393 -15.267,10.502 -29.291,8.887 -4.289,-0.492 -8.754,-1.888 -13.201,-4.633 l -0.181,-0.112 -9.462,12.328 0.256,0.127 c 0.016,0.007 5.318,2.627 13.034,3.513 l 0.035,0.003 c 11.182,1.283 27.452,-1.131 39.898,-20.421 0.099,-0.145 0.078,-0.241 0.002,-0.291 z m -12.221,8.52 c 0.139,0.818 0.246,1.894 0.13,2.911 -0.08,0.701 -0.268,1.371 -0.611,1.913 l 0.034,0.022 c -5.02,3.636 -10.173,5.591 -15.043,6.499 2.056,-2.303 2.751,-6.454 3.009,-8.628 0.058,-0.502 0.09,-0.893 0.106,-1.136 4.451,-0.267 8.58,-1.36 12.132,-2.724 0.061,0.236 0.157,0.639 0.243,1.143 z m -39.607,8.672 c -0.291,-0.122 -0.516,-0.223 -0.673,-0.294 l 8.853,-11.535 c 2.295,1.398 4.596,2.442 6.877,3.195 -0.067,0.227 -0.218,0.711 -0.46,1.364 -1.011,2.744 -3.651,8.302 -8.166,9.343 -1.449,-0.349 -2.727,-0.729 -3.793,-1.085 -1.133,-0.381 -2.028,-0.732 -2.638,-0.988 z m 11.948,3.052 c -1.655,-0.19 -3.198,-0.461 -4.6,-0.769 2.783,-1 4.764,-3.532 6.084,-5.893 1.236,-2.216 1.898,-4.295 2.071,-4.881 1.987,0.624 3.957,1.028 5.891,1.25 1.826,0.21 3.62,0.256 5.365,0.175 -0.018,0.24 -0.048,0.601 -0.1,1.057 -0.255,2.302 -1.097,6.882 -3.346,8.824 -4.09,0.673 -7.962,0.624 -11.365,0.237 z m 27.951,-7.427 c 0.155,-0.425 0.251,-0.877 0.303,-1.332 0.204,-1.804 -0.241,-3.686 -0.399,-4.278 1.047,-0.415 2.044,-0.85 2.98,-1.294 2.765,-1.31 5.016,-2.685 6.578,-3.746 0.483,-0.327 0.9,-0.625 1.246,-0.882 -3.372,4.957 -6.998,8.713 -10.708,11.532 z"
   id="path572"
   inkscape:connector-curvature="0"
   style="fill:#010202" />
			</g>
		</g>
		<g
   id="g620">
			<g
   id="g602">
				<path
   d="m 364.276,92.929 c 0,0 -7.541,-6.295 -10.674,-28.373 -2.705,-11.406 -6.785,-14.943 -8.741,-18.472 -1.956,-3.529 -4.997,-7.891 -8.111,-28.08 -0.334,-2.753 -0.516,-7.85 -2.59,-0.061 -3.666,11.384 -2.504,19.779 2.416,34.509 3.637,11.512 3.932,23.35 3.55,28.736 -0.049,6.605 3.057,14.516 4.994,16.154 0.233,0.026 19.156,-4.413 19.156,-4.413 z"
   id="path578"
   inkscape:connector-curvature="0"
   style="fill:#4d8330" />
				<path
   d="m 364.276,92.929 c 0,0 -7.541,-6.295 -10.674,-28.373 -2.705,-11.406 -6.785,-14.943 -8.741,-18.472 -1.956,-3.529 -4.997,-7.891 -8.111,-28.08 -0.334,-2.753 -0.31,-7.59 -2.384,0.199 -2.402,12.709 0.219,18.675 5.14,33.404 3.637,11.513 4.684,22.965 4.303,28.351 0.069,9.688 3.729,14.828 5.666,16.467 3.136,-0.585 14.801,-3.496 14.801,-3.496 z"
   id="path580"
   inkscape:connector-curvature="0"
   style="fill:#a1c85f" />
				<path
   d="m 361.45,93.903 c 0,0 -7.188,-7.317 -10.321,-29.396 -2.705,-11.406 -6.306,-15.006 -8.262,-18.535 -1.956,-3.529 -4.72,-9.276 -6.7,-28.036 -0.334,-2.752 0.273,-7.523 -1.801,0.266 -2.402,12.709 0.219,18.675 5.14,33.404 3.637,11.513 4.684,22.965 4.303,28.351 0.069,9.688 3.729,14.828 5.666,16.467 3.136,-0.584 11.975,-2.521 11.975,-2.521 z"
   id="path582"
   inkscape:connector-curvature="0"
   style="fill:#7aba41" />
				<g
   id="g586">
					<path
   d="m 344.728,87.381 c 2.966,-1.587 10.62,-3.413 14.131,-2.968 -0.942,-2.133 -1.904,-4.738 -2.792,-7.886 -2.424,0.401 -8.159,2.259 -11.339,10.854 z"
   id="path584"
   inkscape:connector-curvature="0"
   style="fill:#2f4a1f" />
				</g>
				<g
   id="g590">
					<path
   d="m 334.735,38.186 c 2.125,-0.418 4.35,-0.917 6.273,-0.724 -0.585,-1.71 -1.146,-3.776 -1.637,-6.323 -1.647,1.57 -4.575,4.685 -4.636,7.047 z"
   id="path588"
   inkscape:connector-curvature="0"
   style="fill:#2f4a1f" />
				</g>
				<g
   id="g594">
					<path
   d="m 341.175,55.575 c 1.092,-1.042 5.054,-3.356 7.32,-3.969 -1.43,-2.326 -2.75,-3.927 -3.634,-5.523 -0.037,-0.067 -0.075,-0.134 -0.114,-0.202 -1.289,1.198 -3.947,4.346 -3.572,9.694 z"
   id="path592"
   inkscape:connector-curvature="0"
   style="fill:#2f4a1f" />
				</g>
				<g
   id="g598">
					<path
   d="m 353.675,65.057 c -0.024,-0.167 -0.05,-0.332 -0.073,-0.502 -0.61,-2.572 -1.29,-4.741 -2,-6.603 -1.558,1.264 -5.335,4.968 -6.904,12.192 1.184,-0.743 6.19,-4.521 8.977,-5.087 z"
   id="path596"
   inkscape:connector-curvature="0"
   style="fill:#2f4a1f" />
				</g>
				<path
   d="m 345.022,97.566 -0.054,-0.046 c -1.042,-0.893 -2.285,-3.286 -3.312,-6.319 v 0 c -1.019,-3.029 -1.788,-6.677 -1.765,-10.016 v 0 -0.008 l 10e-4,-0.007 c 0.381,-5.357 0.086,-17.178 -3.539,-28.645 v 0 c -3.629,-10.862 -5.227,-18.317 -4.338,-26.074 v 0 c 0.318,-2.769 0.952,-5.573 1.918,-8.57 v 0 c 0.632,-2.358 1.068,-3.532 1.457,-4.032 v 0 c 0.13,-0.162 0.288,-0.295 0.512,-0.276 v 0 c 0.327,0.066 0.42,0.328 0.527,0.607 v 0 c 0.099,0.292 0.173,0.669 0.239,1.094 v 0 c 0.13,0.847 0.215,1.883 0.314,2.693 v 0 c 3.118,20.183 6.13,24.47 8.084,28.002 v 0 c 1.92,3.472 6.056,7.09 8.764,18.532 v 0 l 0.002,0.011 0.001,0.011 c 2.738,19.279 8.832,26.46 10.279,27.928 v 0 c 0.207,0.21 0.314,0.298 0.314,0.298 v 0 l -0.15,0.18 0.15,-0.18 0.361,0.301 -0.457,0.108 c -0.006,0.001 -17.748,4.164 -19.093,4.405 v 0 c -0.059,0.007 -0.049,0.016 -0.143,0.013 v 0 z m -2.921,-6.515 c 0.969,2.898 2.202,5.227 3.092,6.042 v 0 c 0.036,-0.007 0.081,-0.015 0.134,-0.027 v 0 c 0.15,-0.031 0.364,-0.077 0.633,-0.136 v 0 c 0.539,-0.118 1.297,-0.29 2.2,-0.496 v 0 c 1.806,-0.412 4.193,-0.965 6.573,-1.518 v 0 c 3.915,-0.911 7.804,-1.821 9.066,-2.117 v 0 c -1.489,-1.5 -7.668,-8.765 -10.427,-28.199 v 0 C 350.67,53.236 346.648,49.782 344.656,46.196 v 0 c -1.957,-3.527 -5.027,-7.963 -8.139,-28.165 v 0 c -0.14,-1.164 -0.257,-2.743 -0.486,-3.552 v 0 c -0.058,-0.225 -0.143,-0.384 -0.183,-0.431 v 0 c -0.019,0.014 -0.052,0.044 -0.09,0.093 v 0 c -0.091,0.113 -0.211,0.325 -0.346,0.638 v 0 c -0.272,0.628 -0.61,1.666 -1.028,3.234 v 0 c -0.961,2.984 -1.588,5.757 -1.901,8.491 v 0 c -0.877,7.653 0.694,15.026 4.318,25.875 v 0 c 3.649,11.553 3.944,23.406 3.562,28.822 v 0 c -0.025,3.263 0.733,6.867 1.738,9.85 z"
   id="path600"
   inkscape:connector-curvature="0"
   style="fill:#010202" />
			</g>
			<g
   id="g618">
				<g
   id="g606">
					<path
   d="m 335.013,47.55 c 0,0 3.641,17.652 1.14,29.169 -2.421,10.818 1.842,20.986 4.012,22.652 0.027,-0.233 4.435,-1.616 5.68,-2.181 -1.337,-2.75 -6.177,-3.777 -5.357,-23.278 0.543,-6.785 -1.941,-22.179 -5.475,-26.362 z"
   id="path604"
   inkscape:connector-curvature="0"
   style="fill:#cccb65" />
				</g>
				<g
   id="g610">
					<path
   d="m 335.013,47.55 c 0,0 5.406,16.674 2.905,28.19 -2.421,10.818 2.721,21.559 4.891,23.225 0.026,-0.233 1.791,-1.211 3.036,-1.777 -1.337,-2.75 -6.177,-3.777 -5.357,-23.278 0.543,-6.783 -1.941,-22.177 -5.475,-26.36 z"
   id="path608"
   inkscape:connector-curvature="0"
   style="fill:#f5ef9c" />
				</g>
				<g
   id="g614">
					<path
   d="m 335.013,47.55 c 0,0 5.406,16.674 2.905,28.19 -2.421,10.818 2.721,21.559 4.891,23.225 0.026,-0.233 0.313,-0.673 1.558,-1.238 -1.337,-2.75 -6.33,-4.503 -5.51,-24.003 0.543,-6.784 -0.31,-21.991 -3.844,-26.174 z"
   id="path612"
   inkscape:connector-curvature="0"
   style="fill:#ece87a" />
				</g>
				<path
   d="m 346.056,97.086 c -0.727,-1.464 -2.228,-2.351 -3.482,-5.346 -1.254,-2.989 -2.261,-8.087 -1.851,-17.819 0.272,-3.422 -0.216,-8.972 -1.213,-14.21 -1.004,-5.239 -2.492,-10.139 -4.318,-12.312 l -0.63,-0.549 c 0,0.002 0.407,1.648 0.666,3.178 0.778,4.59 2.211,14.84 1.244,23.261 -0.134,1.168 -0.314,2.302 -0.548,3.38 -0.234,1.046 -0.407,2.087 -0.525,3.114 -0.381,3.321 -0.195,6.502 0.293,9.313 0,10e-4 -0.001,0.002 -0.002,0.004 l 0.003,0.002 c 0.223,1.281 0.508,2.485 0.832,3.59 1.043,3.533 2.431,6.032 3.497,6.865 l 0.328,0.252 0.037,-0.324 c 0.122,-0.069 0.442,-0.205 0.841,-0.354 1.374,-0.52 3.809,-1.319 4.713,-1.728 l 0.22,-0.1 z m -7.007,-37.287 c 0.026,0.135 0.05,0.27 0.075,0.405 -0.422,0.12 -1.326,0.521 -2.026,1.755 -0.369,-5.96 -1.255,-11.239 -1.654,-13.408 1.458,2.344 2.738,6.676 3.605,11.248 z m -1.895,3.152 c 0.415,-1.102 0.984,-1.679 1.445,-1.987 0.236,-0.156 0.444,-0.244 0.591,-0.291 0.007,-0.002 0.012,-0.003 0.018,-0.005 0.779,4.353 1.194,8.838 1.107,12.011 -0.487,0.333 -2.482,1.72 -3.742,3.127 0.147,-0.8 0.268,-1.623 0.365,-2.463 0.383,-3.343 0.392,-6.956 0.216,-10.392 z m -1.288,16.886 c 0.114,-0.997 0.281,-2.007 0.507,-3.022 0.548,-0.827 1.621,-1.789 2.558,-2.532 0.543,-0.432 1.039,-0.79 1.364,-1.019 -0.011,0.217 -0.024,0.427 -0.04,0.629 -0.2,4.749 -0.065,8.407 0.274,11.271 -0.824,0.286 -3.137,1.231 -4.466,3.282 -0.41,-2.63 -0.547,-5.562 -0.197,-8.609 z m 6.604,18.346 c -0.631,0.223 -1.225,0.435 -1.667,0.609 -0.222,0.087 -0.404,0.163 -0.54,0.23 -0.034,0.017 -0.064,0.032 -0.093,0.048 -0.899,-0.809 -2.237,-3.213 -3.195,-6.51 -0.306,-1.045 -0.577,-2.183 -0.793,-3.391 0.679,-1.318 1.84,-2.23 2.856,-2.81 0.524,-0.3 1.007,-0.512 1.357,-0.648 0.071,-0.027 0.133,-0.051 0.192,-0.072 0.363,2.782 0.923,4.781 1.554,6.284 1.222,2.905 2.702,3.962 3.378,5.151 -0.682,0.282 -1.928,0.713 -3.049,1.109 z"
   id="path616"
   inkscape:connector-curvature="0"
   style="fill:#010202" />
			</g>
		</g>
		<g
   id="g672">
			<g
   id="g654">
				<g
   id="g650">
					<path
   d="m 367.424,30.493 c 0,0 -22.465,2.381 -6.052,48.646 3.053,8.377 1.12,12.876 1.147,12.644 -3.342,0.325 -46.613,5.041 -42.463,32.666 1.987,9.435 10.42,23.387 29.662,13.081 7.658,-5.024 21.299,-16.916 19.283,-54.919 -0.83,-7.178 -10.121,-31.143 -3.185,-44.276 z"
   id="path622"
   inkscape:connector-curvature="0"
   style="fill:#ffffff" />
					<path
   d="m 367.424,30.493 c 0,0 -22.465,2.381 -6.052,48.646 3.053,8.377 1.12,12.876 1.147,12.644 -3.342,0.325 -46.613,5.041 -42.463,32.666 1.987,9.435 10.42,23.387 29.662,13.081 7.658,-5.024 21.299,-16.916 19.283,-54.919 -0.83,-7.178 -10.121,-31.143 -3.185,-44.276 z"
   id="path624"
   inkscape:connector-curvature="0"
   style="fill:#4d8330" />
					<path
   d="m 367.424,30.493 c 0,0 -22.465,2.381 -6.052,48.646 3.053,8.377 1.12,12.876 1.147,12.644 -3.342,0.325 -43.912,10.309 -40.259,31.975 1.987,9.435 9.44,18.552 26.281,9.624 7.659,-5.024 22.18,-24.605 17.332,-52.31 -0.83,-7.177 -12.425,-31.643 -0.056,-42.736 z"
   id="path626"
   inkscape:connector-curvature="0"
   style="fill:#a1c85f" />
					<path
   d="m 365.872,81.071 c -0.83,-7.177 -12.425,-31.643 -0.056,-42.736 l 1.38,-5.862 c 0,0 -19.405,5.211 -3.79,47.45 2.414,6.531 1.11,12.892 1.073,13.973 -0.127,3.694 -0.938,8.303 -1.062,11.997 -0.102,3.066 -1.388,5.855 -2.574,8.715 -1.152,2.781 -2.812,5.056 -5.23,6.837 -2.545,1.874 -5.068,3.697 -8.149,4.495 -2.027,0.525 -5.271,1.12 -7.184,-0.12 -1.284,-0.832 -1.539,-2.33 -1.535,-3.791 0.008,-3.165 4.064,-7.994 4.991,-8.871 -1.316,2.21 -3.968,6.512 -3.746,9.328 0.11,1.397 0.738,2.485 1.984,2.711 2.923,0.529 5.65,-0.655 8.557,-1.855 2.633,-1.086 4.921,-3.387 6.765,-5.599 1.829,-2.194 2.947,-4.777 3.622,-7.572 0.705,-2.921 0.684,-5.562 0.941,-8.549 0.28,-3.249 0.296,-6.694 0.618,-9.844 -4.468,0.429 -43.606,7.983 -40.221,31.98 1.347,9.547 9.44,18.552 26.281,9.624 7.663,-5.024 22.184,-24.605 17.335,-52.311 z"
   id="path628"
   inkscape:connector-curvature="0"
   style="fill:#7aba41" />
					<g
   id="g632">
						<path
   d="m 355.641,46.018 c -0.242,1.974 -0.332,4.197 -0.221,6.702 1.859,0.129 4.511,-0.797 4.715,-0.872 -1.301,-0.551 -3.329,-3.803 -4.494,-5.83 z"
   id="path630"
   inkscape:connector-curvature="0"
   style="fill:#2f4a1f" />
					</g>
					<g
   id="g636">
						<path
   d="m 361.442,63.094 c -1.111,0.207 -3.424,0.039 -4.677,-0.076 0.304,1.493 0.664,3.056 1.083,4.688 1.424,-0.953 3.605,-4.713 3.594,-4.612 z"
   id="path634"
   inkscape:connector-curvature="0"
   style="fill:#2f4a1f" />
					</g>
					<g
   id="g640">
						<path
   d="m 364.071,74.137 c -0.578,1.365 -2.568,1.966 -3.662,2.201 0.306,0.916 0.626,1.849 0.964,2.802 0.424,1.164 0.749,2.249 0.999,3.261 1.661,-2.29 1.788,-8.151 1.699,-8.264 z"
   id="path638"
   inkscape:connector-curvature="0"
   style="fill:#2f4a1f" />
					</g>
					<g
   id="g644">
						<path
   d="m 361.912,102.219 c 0,0 -12.944,-5.498 -25.343,-0.31 3.223,0.723 20.668,4.023 22.789,12.293 1.848,-2.739 2.579,-8.085 2.554,-11.983 z"
   id="path642"
   inkscape:connector-curvature="0"
   style="fill:#2f4a1f" />
					</g>
					<g
   id="g648">
						<path
   d="m 340.81,118.449 c 0,0 -10.004,1.803 -13.848,15.763 4.671,-2.651 12.939,-7.841 17.451,-9.094 -0.116,-0.014 -7.011,1.439 -3.603,-6.669 z"
   id="path646"
   inkscape:connector-curvature="0"
   style="fill:#2f4a1f" />
					</g>
				</g>
				<path
   d="m 369.235,82.598 c -0.696,-5.951 -7.019,-23.026 -5.508,-36.169 0.334,-2.916 1.053,-5.632 2.297,-7.985 l 0.016,-0.03 1.709,-8.003 -0.384,-0.083 c -0.393,0.106 -2.566,0.209 -5.357,2.354 -2.793,2.141 -5.783,6.159 -6.63,13.566 -0.831,7.25 0.375,17.745 5.775,32.969 1.707,4.686 1.84,8.132 1.641,10.203 -0.188,0.55 -0.327,1.25 -0.441,2.142 -1.946,0.197 -11.703,1.321 -21.418,5.055 -9.972,3.834 -19.953,10.44 -21.253,21.702 -0.22,1.919 -0.186,3.971 0.143,6.163 1.411,6.706 6.047,15.705 15.528,16.803 3.97,0.455 8.761,-0.489 14.477,-3.55 l 0.009,-0.004 0.009,-0.007 c 6.2,-4.058 16.306,-12.642 18.939,-35.671 0.638,-5.585 0.842,-12.024 0.448,-19.455 z m -19.638,54.731 c -5.653,3.024 -10.342,3.933 -14.192,3.492 -9.167,-1.041 -13.73,-9.818 -15.12,-16.42 -0.321,-2.141 -0.354,-4.151 -0.138,-6.027 1.252,-10.977 11.033,-17.503 20.955,-21.317 9.481,-3.645 19.041,-4.793 21.192,-5.016 -0.291,2.613 -0.432,6.716 -0.834,13.089 -0.034,0.579 -0.081,1.141 -0.144,1.687 -0.855,7.424 -4.343,11.954 -8.215,14.671 -3.86,2.707 -8.12,3.592 -10.476,3.661 -1.068,-0.165 -1.697,-0.591 -2.062,-1.188 -0.368,-0.603 -0.468,-1.419 -0.359,-2.365 0.235,-2.073 1.471,-4.701 2.653,-6.791 1.182,-2.092 2.3,-3.648 2.301,-3.651 0,0 -4.906,6.001 -5.421,10.389 -0.115,1.003 -0.021,1.928 0.424,2.663 0.445,0.735 1.242,1.24 2.416,1.411 l 0.02,0.002 0.021,-0.001 c 2.444,-0.069 6.783,-0.968 10.752,-3.747 3.968,-2.776 7.549,-7.45 8.412,-15.001 0.064,-0.555 0.113,-1.126 0.147,-1.712 0.407,-6.465 0.549,-10.603 0.844,-13.174 0.01,-0.083 0.019,-0.161 0.029,-0.241 0.113,-0.292 0.309,-0.959 0.432,-2.014 0.242,-2.111 0.161,-5.727 -1.641,-10.67 -5.385,-15.178 -6.57,-25.61 -5.75,-32.756 0.84,-7.303 3.757,-11.178 6.449,-13.248 1.347,-1.035 2.642,-1.618 3.598,-1.942 0.478,-0.162 0.871,-0.259 1.143,-0.315 0.033,-0.007 0.064,-0.014 0.093,-0.019 l -1.533,7.477 c -1.269,2.412 -1.994,5.175 -2.332,8.121 -1.522,13.3 4.844,30.452 5.507,36.262 0.391,7.394 0.188,13.806 -0.449,19.364 -2.635,22.896 -12.595,31.296 -18.722,35.326 z"
   id="path652"
   inkscape:connector-curvature="0"
   style="fill:#010202" />
			</g>
			<g
   id="g670">
				<g
   id="g658">
					<path
   d="m 364.964,37.529 c 0,0 -7.693,7.381 2.672,42.565 4.94,16.62 -0.091,62.551 -35.024,60.433 0.233,0.027 49.483,11.105 56.306,-36.037 1.37,-14.007 -2.82,-22.751 -10.499,-34.019 -0.348,-11.372 0.052,-29.268 -13.455,-32.942 z"
   id="path656"
   inkscape:connector-curvature="0"
   style="fill:#cccb65" />
				</g>
				<g
   id="g662">
					<path
   d="m 364.964,37.529 c 0,0 -7.693,7.381 2.672,42.565 4.94,16.62 -0.091,62.551 -35.024,60.433 0.233,0.027 44.811,6.555 51.852,-36.311 1.371,-14.008 -2.007,-25.727 -9.685,-36.994 -3.874,-3.279 -4.589,-27.913 -9.815,-29.693 z"
   id="path660"
   inkscape:connector-curvature="0"
   style="fill:#f5ef9c" />
				</g>
				<g
   id="g666">
					<path
   d="m 364.964,37.529 c 0,0 -5.004,8.633 5.362,43.818 4.94,16.62 -0.764,62.237 -37.714,59.18 0.233,0.027 44.811,6.555 51.852,-36.311 1.371,-14.008 -2.007,-25.727 -9.685,-36.994 -3.874,-3.279 -4.589,-27.913 -9.815,-29.693 z"
   id="path664"
   inkscape:connector-curvature="0"
   style="fill:#ece87a" />
				</g>
				<path
   d="m 388.685,107.285 c 0.17,-0.9 0.328,-1.816 0.466,-2.762 0.866,-8.813 -0.47,-15.57 -3.475,-22.158 0.006,-0.004 0.013,-0.007 0.019,-0.01 l -0.133,-0.233 c -1.775,-3.835 -4.111,-7.62 -6.911,-11.727 -0.172,-5.671 -0.163,-12.97 -1.798,-19.34 -1.635,-6.39 -4.968,-11.889 -11.828,-13.752 l -0.129,-0.035 -0.095,0.092 c -0.044,0.04 -1.895,1.853 -2.572,7.766 -0.712,6.22 -0.137,16.978 5.182,35.033 1.516,5.097 2.092,13.023 1.124,21.457 -0.197,1.719 -0.459,3.46 -0.789,5.202 l -0.005,0.011 0.003,0.002 c -1.478,7.795 -4.335,15.623 -9.006,21.744 -5.72,7.491 -14.122,12.439 -26.111,11.717 l -0.034,0.385 -0.016,0.081 c 0.137,0.026 1.848,0.398 4.579,0.71 6.227,0.713 17.805,1.14 28.554,-3.444 10.206,-4.348 19.643,-13.258 22.958,-30.646 0.018,-0.019 0.038,-0.036 0.057,-0.056 z m -0.452,-0.135 c -2.311,2.357 -5.968,2.76 -9.579,2.345 -2.731,-0.313 -5.413,-1.086 -7.41,-1.781 -1.406,-0.489 -2.466,-0.938 -2.972,-1.161 0.301,-1.636 0.544,-3.269 0.729,-4.883 0.297,-2.592 0.449,-5.135 0.475,-7.565 0.941,0.318 4.501,1.457 8.501,1.917 3.75,0.426 7.897,0.268 10.646,-1.803 0.391,3.136 0.428,6.5 0.063,10.248 -0.134,0.919 -0.288,1.808 -0.453,2.683 z m 0.321,-13.471 c -2.552,2.1 -6.717,2.318 -10.523,1.877 -2.301,-0.264 -4.464,-0.758 -6.05,-1.187 -1.315,-0.355 -2.227,-0.663 -2.502,-0.758 0.017,-5.078 -0.524,-9.637 -1.474,-13.079 1.379,0.645 5.575,2.471 9.977,2.978 2.515,0.287 5.107,0.146 7.279,-0.925 1.621,3.551 2.744,7.146 3.293,11.094 z M 362.759,55.748 c 1.564,1.329 6.939,5.629 11.977,6.217 1.074,0.123 2.136,0.072 3.142,-0.218 0.182,3.052 0.227,6.018 0.306,8.646 -0.792,1.047 -2.303,1.31 -4.097,1.105 -2.047,-0.234 -4.395,-1.069 -6.222,-1.849 -1.595,-0.68 -2.791,-1.312 -3.072,-1.463 -1.064,-4.841 -1.699,-8.953 -2.034,-12.438 z m 1.42,-16.51 c 0.264,-0.574 0.507,-0.963 0.68,-1.208 0.074,-0.104 0.137,-0.183 0.182,-0.237 6.554,1.846 9.741,7.103 11.359,13.378 0.828,3.223 1.23,6.703 1.449,10.095 -0.963,0.295 -1.996,0.354 -3.059,0.232 -2.856,-0.325 -5.91,-1.943 -8.237,-3.487 -1.164,-0.772 -2.147,-1.523 -2.839,-2.081 -0.522,-0.42 -0.875,-0.729 -1.017,-0.855 -0.363,-4.172 -0.286,-7.41 0,-9.895 0.334,-2.914 0.953,-4.796 1.482,-5.942 z m 0.746,29.546 c 1.33,0.688 5.57,2.769 9.107,3.18 1.753,0.201 3.385,-0.007 4.37,-1.1 2.691,3.967 4.94,7.617 6.66,11.297 -2.053,1.016 -4.559,1.166 -7.027,0.882 -2.629,-0.3 -5.207,-1.091 -7.124,-1.806 -1.624,-0.606 -2.765,-1.154 -3.078,-1.308 -1.2,-4.082 -2.155,-7.784 -2.908,-11.145 z m -0.078,49.787 c 1.14,0.63 6.442,3.438 11.643,4.038 2.427,0.278 4.847,0.073 6.803,-1.098 -2.366,4.334 -5.277,7.757 -8.502,10.45 l -0.009,-0.017 c -2.171,1.071 -4.396,1.287 -6.481,1.049 -2.606,-0.298 -4.987,-1.314 -6.713,-2.257 -0.863,-0.471 -1.563,-0.925 -2.045,-1.26 -0.264,-0.183 -0.459,-0.327 -0.584,-0.422 0.05,-0.065 0.102,-0.129 0.152,-0.195 2.351,-3.083 4.244,-6.583 5.736,-10.288 z m -29.067,22.251 c 5.809,-0.137 10.729,-1.678 14.86,-4.2 0.746,0.758 3.202,2.955 7.025,3.397 0.081,0.009 0.164,0.015 0.246,0.023 -8.162,1.871 -15.982,1.503 -20.7,0.961 -0.515,-0.06 -0.993,-0.121 -1.431,-0.181 z m 29.747,-3.23 c -1.961,0.837 -3.952,1.505 -5.934,2.034 l -0.001,-0.016 c -0.657,0.033 -1.282,0.009 -1.873,-0.059 -2.214,-0.253 -3.958,-1.128 -5.149,-1.941 -0.595,-0.406 -1.051,-0.796 -1.357,-1.084 -0.062,-0.058 -0.116,-0.11 -0.165,-0.159 2.938,-1.863 5.468,-4.229 7.623,-6.944 0.842,0.64 4.798,3.483 9.578,4.035 l 0.003,0.001 c 1.696,0.195 3.497,0.094 5.29,-0.503 -2.541,1.934 -5.248,3.454 -8.015,4.636 z m 18.242,-16.975 c -1.922,1.524 -4.533,1.835 -7.224,1.526 -2.86,-0.327 -5.789,-1.353 -7.997,-2.298 -1.78,-0.762 -3.085,-1.466 -3.528,-1.713 1.407,-3.583 2.446,-7.347 3.164,-11.105 1.38,0.601 5.802,2.403 10.416,2.934 3.438,0.393 7.01,0.08 9.487,-2.036 -0.988,4.899 -2.471,9.095 -4.318,12.692 z"
   id="path668"
   inkscape:connector-curvature="0"
   style="fill:#010202" />
			</g>
		</g>
	</g>
	<g
   id="g900">
		<g
   id="g734">
			<g
   id="g682">
				<path
   d="m 374.131,53.304 c 0,0 2.84,8.235 1.582,16.993 -0.838,5.838 4.192,14.14 14.294,10.12 1.6,0.083 13.124,4.693 13.859,-9.439 -0.214,-6.16 -1.469,-9.219 -0.562,-16.391 -16.812,-0.607 -29.173,-1.283 -29.173,-1.283 z"
   id="path676"
   inkscape:connector-curvature="0"
   style="fill:#4d8330" />
				<path
   d="m 374.131,53.304 c 0,0 3.505,7.859 2.247,16.616 -0.69,5.366 3.867,13.143 13.969,9.123 1.6,0.083 12.257,4.806 12.96,-8.72 -0.214,-6.16 -0.911,-8.564 -0.003,-15.736 -16.812,-0.607 -29.173,-1.283 -29.173,-1.283 z"
   id="path678"
   inkscape:connector-curvature="0"
   style="fill:#7aba41" />
				<path
   d="m 377.512,77.997 c -1.515,-2.036 -2.231,-4.596 -2.111,-6.914 v 0 c 0.014,-0.277 0.041,-0.551 0.08,-0.82 v 0 c 0.135,-0.95 0.224,-1.894 0.272,-2.822 v 0 c 0.296,-5.672 -0.891,-10.755 -1.502,-12.934 v 0 c -0.203,-0.726 -0.341,-1.125 -0.341,-1.127 v 0 l -0.114,-0.329 0.347,0.019 c 0.002,0 0.472,0.026 1.356,0.072 v 0 c 3.643,0.189 14.287,0.722 27.813,1.211 v 0 l 0.257,0.009 -0.032,0.255 c -0.14,1.102 -0.227,2.106 -0.276,3.038 v 0 c -0.267,5.096 0.656,8.074 0.84,13.314 v 0 0.01 L 404.1,70.99 c -0.235,4.549 -1.589,7.229 -3.415,8.73 v 0 c -1.825,1.501 -4.078,1.798 -6.044,1.696 v 0 c -2.149,-0.113 -4.033,-0.71 -4.597,-0.763 v 0 c -2.08,0.82 -3.957,1.128 -5.622,1.042 v 0 c -3.068,-0.156 -5.397,-1.662 -6.91,-3.698 z m -1.291,-10.531 c -0.049,0.941 -0.138,1.899 -0.276,2.864 v 0 c -0.037,0.255 -0.062,0.514 -0.076,0.777 v 0 c -0.116,2.204 0.573,4.671 2.019,6.61 v 0 c 1.447,1.94 3.634,3.357 6.557,3.511 v 0 c 1.601,0.083 3.426,-0.214 5.474,-1.028 v 0 l 0.048,-0.019 0.051,0.003 c 0.66,0.042 2.476,0.652 4.646,0.765 v 0 c 1.907,0.099 4.027,-0.193 5.722,-1.59 v 0 c 1.694,-1.394 3.009,-3.915 3.244,-8.384 v 0 c -0.179,-5.17 -1.106,-8.174 -0.839,-13.343 v 0 c 0.046,-0.871 0.125,-1.804 0.248,-2.819 v 0 C 389.63,54.327 379.096,53.799 375.474,53.61 v 0 c -0.446,-0.023 -0.787,-0.041 -1.016,-0.053 v 0 c 0.444,1.418 2.109,7.242 1.763,13.909 z m -2.103,-13.927 0.013,-0.235 z"
   id="path680"
   inkscape:connector-curvature="0"
   style="fill:#010202" />
			</g>
			<g
   id="g698">
				<g
   id="g688">
					<g
   id="g686">
						<path
   d="m 374.403,54.845 c 0,0 3.911,6.075 2.806,13.768 -0.736,5.129 4.297,12.202 13.171,8.671 1.406,0.073 11.528,4.123 12.174,-8.291 -0.188,-5.412 -0.781,-7.557 0.016,-13.856 -14.768,-0.534 -28.167,-0.292 -28.167,-0.292 z"
   id="path684"
   inkscape:connector-curvature="0"
   style="fill:#64140e" />
					</g>
				</g>
				<g
   id="g692">
					<path
   d="m 374.403,54.845 c 0,0 6.453,4.623 5.348,12.315 -0.736,5.128 1.628,7.072 10.502,3.541 1.405,0.073 8.325,7.009 8.971,-5.405 -0.188,-5.411 1.684,-4.14 3.347,-10.159 -14.769,-0.534 -28.168,-0.292 -28.168,-0.292 z"
   id="path690"
   inkscape:connector-curvature="0"
   style="fill:#2d0e0f" />
				</g>
				<g
   id="g696">
					<path
   d="m 378.954,75.254 c -1.43,-1.763 -2.145,-3.987 -2.04,-6.023 v 0 c 0.011,-0.22 0.033,-0.437 0.063,-0.651 v 0 c 0.084,-0.585 0.138,-1.16 0.168,-1.724 v 0 c 0.266,-5.072 -1.525,-9.233 -2.435,-10.987 v 0 c -0.302,-0.585 -0.503,-0.897 -0.504,-0.897 v 0 l -0.228,-0.354 0.421,-0.008 c 0.003,0 13.405,-0.242 28.181,0.292 v 0 l 0.256,0.009 -0.033,0.255 c -0.185,1.459 -0.295,2.692 -0.352,3.795 v 0 c -0.19,3.635 0.191,5.854 0.337,10.023 v 0 l 10e-4,0.007 -10e-4,0.013 c -0.207,4.001 -1.399,6.364 -3.01,7.69 v 0 c -1.612,1.325 -3.598,1.586 -5.329,1.496 v 0 c -1.883,-0.098 -3.538,-0.62 -4.033,-0.669 v 0 c -1.873,0.738 -3.586,1.014 -5.119,0.934 v 0 c -2.756,-0.143 -4.914,-1.438 -6.343,-3.201 z m -1.341,-8.373 c -0.03,0.577 -0.086,1.166 -0.172,1.766 v 0 c -0.029,0.2 -0.048,0.402 -0.059,0.608 v 0 c -0.1,1.909 0.578,4.034 1.936,5.704 v 0 c 1.359,1.671 3.384,2.891 6.004,3.028 v 0 c 1.47,0.076 3.131,-0.19 4.971,-0.922 v 0 l 0.047,-0.018 0.052,0.002 c 0.589,0.038 2.178,0.574 4.081,0.673 v 0 c 1.671,0.086 3.526,-0.17 5.006,-1.39 v 0 c 1.48,-1.218 2.632,-3.423 2.839,-7.343 v 0 c -0.144,-4.131 -0.528,-6.37 -0.337,-10.052 v 0 c 0.054,-1.05 0.156,-2.216 0.323,-3.575 v 0 c -7.287,-0.259 -14.224,-0.33 -19.358,-0.337 v 0 c -4.14,-0.005 -7.101,0.032 -8.137,0.048 v 0 c 0.735,1.285 3.108,5.927 2.804,11.808 z"
   id="path694"
   inkscape:connector-curvature="0"
   style="fill:#010202" />
				</g>
			</g>
			<g
   id="g706">
				<path
   d="m 399.812,58.516 c 0,0 -0.786,6.065 -3.891,7.079 -0.013,0.234 0.28,-5.388 -1.508,-7.125 z"
   id="path700"
   inkscape:connector-curvature="0"
   style="fill:#c8c4e3" />
				<path
   d="m 398.209,58.472 c 0,0 0.043,5.952 -2.288,7.123 -0.013,0.234 0.28,-5.388 -1.508,-7.125 z"
   id="path702"
   inkscape:connector-curvature="0"
   style="fill:#ffffff" />
				<path
   d="m 395.711,65.622 c -0.083,-0.266 -0.015,-0.724 -0.016,-0.894 -0.005,-0.53 -0.028,-1.255 -0.106,-2.031 -0.149,-1.55 -0.547,-3.304 -1.341,-4.059 l -0.42,-0.407 5.985,0.051 0.264,0.002 -0.034,0.263 c -0.002,0.009 -0.199,1.538 -0.792,3.207 -0.591,1.646 -1.554,3.463 -3.204,4.045 -0.191,0.066 -0.288,-0.023 -0.336,-0.177 z m 0.328,-3.127 c 0.126,1.157 0.132,2.217 0.124,2.752 v 0 c 0.913,-0.429 1.622,-1.37 2.142,-2.44 v 0 c 0.58,-1.186 0.925,-2.51 1.106,-3.375 v 0 c 0.06,-0.285 0.102,-0.519 0.129,-0.683 v 0 l -4.622,-0.04 c 0.678,0.966 0.97,2.441 1.121,3.786 z"
   id="path704"
   inkscape:connector-curvature="0"
   style="fill:#010202" />
			</g>
			<g
   id="g714">
				<path
   d="m 379.385,58.393 c 0,0 0.152,6.114 3.136,7.444 -0.013,0.234 0.28,-5.387 2.239,-6.929 z"
   id="path708"
   inkscape:connector-curvature="0"
   style="fill:#c8c4e3" />
				<path
   d="m 380.984,58.515 c 0,0 -0.755,5.48 1.537,7.322 -0.013,0.234 0.28,-5.387 2.239,-6.929 z"
   id="path710"
   inkscape:connector-curvature="0"
   style="fill:#ffffff" />
				<path
   d="m 382.48,66.063 c -0.032,-0.005 -0.067,-0.017 -0.105,-0.035 -1.582,-0.749 -2.353,-2.658 -2.769,-4.357 -0.418,-1.722 -0.456,-3.262 -0.456,-3.272 l -0.006,-0.264 6.221,0.595 -0.46,0.362 c -0.866,0.667 -1.444,2.367 -1.754,3.893 -0.134,0.647 -0.236,1.301 -0.311,1.958 -0.03,0.263 0.051,1.187 -0.36,1.12 z m -2.791,-6.718 c 0.06,0.587 0.171,1.383 0.374,2.217 v 0 c 0.37,1.546 1.068,3.193 2.252,3.905 v 0 c 0.013,-0.14 0.03,-0.316 0.053,-0.521 v 0 c 0.06,-0.538 0.162,-1.27 0.323,-2.052 v 0 c 0.288,-1.362 0.737,-2.877 1.543,-3.802 v 0 l -4.601,-0.44 c 0.009,0.166 0.026,0.403 0.056,0.693 z m -0.326,-0.719 0.022,-0.234 z"
   id="path712"
   inkscape:connector-curvature="0"
   style="fill:#010202" />
			</g>
			<g
   id="g732">
				<g
   id="g722">
					<path
   d="m 400.194,75.983 c -0.252,-1.444 -1.068,-3.477 -3.545,-4.792 -0.194,0.017 0.468,4.321 -0.16,6.675 1.32,-0.206 2.635,-0.743 3.705,-1.883 z"
   id="path716"
   inkscape:connector-curvature="0"
   style="fill:#c8c4e3" />
					<path
   d="m 399.255,76.728 c -0.252,-1.445 -0.998,-4.123 -2.606,-5.536 -0.194,0.017 0.468,4.321 -0.16,6.675 1.32,-0.207 1.622,-0.22 2.766,-1.139 z"
   id="path718"
   inkscape:connector-curvature="0"
   style="fill:#ffffff" />
					<path
   d="m 396.262,77.807 c 0.137,-0.512 0.211,-1.137 0.245,-1.792 0.102,-1.941 -0.156,-4.101 -0.127,-4.706 0.049,-1.045 2.475,1.301 2.705,1.585 1.046,1.296 1.36,3.164 1.36,3.164 0,0 -1.797,1.813 -3.92,2.041 l -0.355,0.055 z m 0.714,-1.768 c -0.028,0.537 -0.082,1.059 -0.179,1.533 v 0 c 1.129,-0.229 2.225,-0.723 3.144,-1.665 v 0 c -0.258,-1.327 -0.994,-3.097 -3.093,-4.335 v 0 c 0.026,0.769 0.218,2.719 0.128,4.467 z"
   id="path720"
   inkscape:connector-curvature="0"
   style="fill:#010202" />
				</g>
				<g
   id="g730">
					<path
   d="m 384.373,70.865 c -3.063,1.763 -3.449,4.575 -3.447,5.898 1.138,0.781 2.514,1.309 4.109,1.439 -1.099,-2.029 -0.448,-7.326 -0.662,-7.337 z"
   id="path724"
   inkscape:connector-curvature="0"
   style="fill:#c8c4e3" />
					<path
   d="m 384.373,70.865 c -1.62,1.795 -2.344,4.419 -2.184,6.619 0.959,0.363 1.251,0.589 2.846,0.718 -1.099,-2.029 -0.448,-7.326 -0.662,-7.337 z"
   id="path726"
   inkscape:connector-curvature="0"
   style="fill:#ffffff" />
					<path
   d="m 385.016,78.435 c -1.636,-0.133 -3.053,-0.676 -4.223,-1.479 l -0.101,-0.07 v -0.122 c -0.001,-0.119 0.002,-0.249 0.01,-0.388 0.052,-0.994 0.302,-1.979 0.763,-2.863 0.307,-0.589 0.698,-1.141 1.161,-1.617 0.256,-0.263 0.536,-0.501 0.838,-0.71 0.201,-0.139 0.626,-0.539 0.902,-0.469 0.384,0.099 0.289,0.719 0.281,1.018 -0.013,0.532 -0.04,1.256 -0.039,2.04 -0.004,1.565 0.124,3.387 0.634,4.313 l 0.206,0.381 z m -0.364,-0.51 c -0.353,-0.908 -0.465,-2.144 -0.503,-3.341 v 0 c -0.04,-1.374 0.036,-2.694 0.036,-3.317 v 0 c 0,-0.004 0,-0.01 0,-0.013 v 0 c -2.448,1.561 -2.942,3.817 -3.015,5.148 v 0 c -0.004,0.083 -0.007,0.162 -0.008,0.237 v 0 c 0.987,0.656 2.153,1.116 3.49,1.286 z"
   id="path728"
   inkscape:connector-curvature="0"
   style="fill:#010202" />
				</g>
			</g>
		</g>
		<g
   id="g744">
			<path
   d="m 386.317,65.095 c 0,0 6.029,1.488 6.898,11.866 0.273,3.772 5.664,8.515 11.723,0.376 5.111,-7.954 4.354,-15.979 19.394,-16.136 0,0 -11.043,4.592 -0.424,12.66 -1.171,-0.061 -4.07,-3.03 -9.403,4.678 -4.667,8.447 -21.194,14.633 -25.086,-0.836 -0.928,-4.745 0.709,-9.122 -3.102,-12.608 z"
   id="path736"
   inkscape:connector-curvature="0"
   style="fill:#681413" />
			<path
   d="m 386.317,65.095 c 0,0 6.029,1.488 6.898,11.866 0.273,3.772 5.664,8.515 11.723,0.376 5.111,-7.954 4.558,-15.381 17.868,-16.157 0,0 -11.089,4.355 1.101,12.681 -1.171,-0.061 -7.754,-5.57 -13.087,2.138 -4.667,8.447 -16.461,13.939 -19.784,1.085 -0.927,-4.746 -0.908,-8.503 -4.719,-11.989 z"
   id="path738"
   inkscape:connector-curvature="0"
   style="fill:#e5364c" />
			<path
   d="m 386.317,65.095 c 0,0 4.987,1.198 5.856,11.577 0.273,3.772 6.589,11.029 13.416,1.696 5.111,-7.954 4.071,-15.055 16.052,-16.251 0,0 -8.353,3.676 2.266,11.743 -1.171,-0.061 -7.732,-4.864 -13.065,2.843 -4.667,8.447 -16.671,13.459 -19.994,0.604 -0.927,-4.744 -0.72,-8.726 -4.531,-12.212 z"
   id="path740"
   inkscape:connector-curvature="0"
   style="fill:#a21916" />
			<path
   d="m 389.188,77.748 c -0.47,-2.412 -0.29,-4.705 -0.473,-6.801 v 0 c -0.185,-2.1 -1.116,-4.497 -2.968,-6.195 l 0.625,0.115 c 0.058,0 6.209,1.597 7.076,12.078 v 0 c 0.146,2.078 1.96,4.499 4.542,4.622 v 0 c 1.874,0.098 4.234,-0.981 6.75,-4.357 v 0 c 2.536,-3.939 3.62,-7.932 5.986,-11.007 v 0 c 2.369,-3.082 6.049,-5.164 13.603,-5.235 v 0 l 0.915,0.008 c -0.001,10e-4 -1.112,0.564 -1.559,0.805 v 0 c -0.448,0.241 -1.048,0.602 -1.651,1.074 v 0 c -1.211,0.946 -2.41,2.327 -2.497,4.07 v 0 c -0.095,1.778 0.95,4.042 4.514,6.75 v 0 l 1.192,0.883 c 0,0 -2.667,-1.018 -3.738,-1.069 v 0 c -1.483,-0.076 -3.69,0.691 -6.8,5.175 v 0 c -2.739,4.925 -9.358,9.052 -15.33,8.752 v 0 c -0.01,0 -0.019,0 -0.029,-10e-4 v 0 c -4.437,-0.231 -8.495,-3.003 -10.158,-9.667 z m -0.006,-6.842 c 0.184,2.152 0.009,4.418 0.464,6.74 v 0 c 1.652,6.519 5.491,9.068 9.752,9.302 v 0 c 5.742,0.309 12.281,-3.76 14.902,-8.522 v 0 l 0.007,-0.012 0.005,-0.008 c 3.139,-4.545 5.509,-5.475 7.217,-5.385 v 0 c 0.478,0.027 0.902,0.131 1.261,0.246 v 0 c -2.858,-2.422 -3.814,-4.556 -3.722,-6.366 v 0 c 0.173,-2.819 2.779,-4.636 4.226,-5.44 v 0 c -6.77,0.253 -10.015,2.21 -12.195,5.028 v 0 c -2.293,2.964 -3.387,6.96 -5.972,10.989 v 0 c -2.572,3.456 -5.071,4.666 -7.159,4.557 v 0 c -2.878,-0.161 -4.816,-2.763 -4.987,-5.054 v 0 c -0.638,-7.536 -3.982,-10.282 -5.698,-11.219 v 0 c 1.316,1.579 1.746,3.327 1.899,5.144 z"
   id="path742"
   inkscape:connector-curvature="0"
   style="fill:#010202" />
		</g>
		<g
   id="g844">
			<path
   d="m 367.49,38.75 c 0,0 -2.175,-30.41 13.825,-30.987 4.894,0.725 5.487,2.87 7.595,2.979 3.994,-0.027 4.226,-4.477 8.825,-2.594 5.487,2.869 14.478,10.617 10.607,30.849 -0.997,1.123 -35.414,3.559 -40.852,-0.247 z"
   id="path746"
   inkscape:connector-curvature="0"
   style="fill:#a1c85f" />
			<path
   d="m 367.485,38.845 c 0,0 -2.284,-28.317 13.711,-28.797 4.896,0.692 5.497,2.69 7.605,2.8 3.993,-0.011 4.209,-4.153 8.813,-2.383 5.497,2.691 14.514,9.936 10.717,28.756 -0.994,1.042 -35.395,3.187 -40.846,-0.376 z"
   id="path748"
   inkscape:connector-curvature="0"
   style="fill:#7aba41" />
			<g
   id="g794">
				<g
   id="g790">
					<g
   id="g770">
						<path
   d="m 389.107,32.104 c -0.888,7.798 -5.9,9.326 -10.016,8.718 -3.601,-0.532 -8.818,-2.948 -8.097,-12.725 0.577,-7.826 5.199,-13.988 10.546,-13.379 5.347,0.608 8.454,9.587 7.567,17.386 z"
   id="path750"
   inkscape:connector-curvature="0"
   style="fill:#5d9f31" />
						
							<radialGradient
   id="SVGID_17_"
   cx="885.81519"
   cy="17.461599"
   r="26.113501"
   gradientTransform="matrix(-1.0337,0.0108,0.0089,1.042,1296.1071,1.1775)"
   gradientUnits="userSpaceOnUse">
							<stop
   offset="0"
   style="stop-color:#040404"
   id="stop752" />
							<stop
   offset="1"
   style="stop-color:#050405"
   id="stop754" />
						</radialGradient>
						<path
   d="m 388.302,33.293 c -0.773,6.785 -5.355,8.09 -9.128,7.54 -3.301,-0.482 -8.091,-2.613 -7.482,-11.122 0.488,-6.811 4.688,-12.152 9.589,-11.595 4.901,0.557 7.793,8.392 7.021,15.177 z"
   id="path757"
   inkscape:connector-curvature="0"
   style="fill:url(#SVGID_17_)" />
						
							<radialGradient
   id="SVGID_18_"
   cx="893.7677"
   cy="21.552799"
   r="26.1119"
   gradientTransform="matrix(-1,0.0095,0.0095,1,1274.1499,-0.6178)"
   gradientUnits="userSpaceOnUse">
							<stop
   offset="0.2378"
   style="stop-color:#FCFCFD"
   id="stop759" />
							<stop
   offset="0.3392"
   style="stop-color:#C9C7CB"
   id="stop761" />
							<stop
   offset="0.5651"
   style="stop-color:#605D63"
   id="stop763" />
							<stop
   offset="0.8486"
   style="stop-color:#010202"
   id="stop765" />
						</radialGradient>
						<path
   d="m 388.045,33.61 c -0.741,6.511 -5.173,7.759 -8.823,7.227 -3.193,-0.465 -7.829,-2.514 -7.248,-10.68 0.466,-6.536 4.525,-11.659 9.265,-11.119 4.742,0.541 7.547,8.062 6.806,14.572 z"
   id="path768"
   inkscape:connector-curvature="0"
   style="fill:url(#SVGID_18_)" />
					</g>
					
						<radialGradient
   id="SVGID_19_"
   cx="896.90472"
   cy="9.1004"
   r="10.7633"
   gradientTransform="matrix(-0.9899,0.0094,0.0109,1.1413,1268.655,12.1468)"
   gradientUnits="userSpaceOnUse">
						<stop
   offset="0.0162"
   style="stop-color:#30669D"
   id="stop772" />
						<stop
   offset="0.5405"
   style="stop-color:#122C45"
   id="stop774" />
						<stop
   offset="1"
   style="stop-color:#141F35"
   id="stop776" />
					</radialGradient>
					<path
   d="m 375.549,31.486 c 0.031,3.221 2.32,5.81 5.113,5.784 2.793,-0.027 5.032,-2.659 5.002,-5.879 -0.031,-3.22 -2.32,-5.81 -5.113,-5.784 -2.793,0.027 -5.033,2.659 -5.002,5.879 z"
   id="path779"
   inkscape:connector-curvature="0"
   style="fill:url(#SVGID_19_)" />
					
						<radialGradient
   id="SVGID_20_"
   cx="846.36078"
   cy="17.2864"
   r="6.7410998"
   gradientTransform="matrix(-1.2291,0.0117,0.01,1.0548,1420.8842,3.7536)"
   gradientUnits="userSpaceOnUse">
						<stop
   offset="0"
   style="stop-color:#040404"
   id="stop781" />
						<stop
   offset="1"
   style="stop-color:#050405"
   id="stop783" />
					</radialGradient>
					<path
   d="m 377.569,32.242 c 0.021,2.194 1.401,3.96 3.082,3.945 1.681,-0.016 3.027,-1.808 3.007,-4.003 -0.021,-2.195 -1.401,-3.96 -3.083,-3.944 -1.681,0.015 -3.027,1.807 -3.006,4.002 z"
   id="path786"
   inkscape:connector-curvature="0"
   style="fill:url(#SVGID_20_)" />
					<circle
   cx="380.54901"
   cy="32.316002"
   r="0.671"
   id="circle788"
   style="fill:#ffffff" />
				</g>
				<circle
   cx="379.48199"
   cy="27.837999"
   r="1.094"
   id="circle792"
   style="fill:#ffffff" />
			</g>
			<g
   id="g840">
				<g
   id="g836">
					<g
   id="g816">
						<path
   d="m 390.017,32.35 c 1.332,7.735 6.424,8.974 10.498,8.132 3.565,-0.736 8.635,-3.447 7.357,-13.167 -1.023,-7.78 -5.99,-13.668 -11.293,-12.755 -5.305,0.913 -7.894,10.055 -6.562,17.79 z"
   id="path796"
   inkscape:connector-curvature="0"
   style="fill:#5d9f31" />
						
							<radialGradient
   id="SVGID_21_"
   cx="291.7338"
   cy="2.0920999"
   r="26.112801"
   gradientTransform="matrix(1.0327,-0.0483,0.0506,1.0408,96.9543,40.6182)"
   gradientUnits="userSpaceOnUse">
							<stop
   offset="0"
   style="stop-color:#040404"
   id="stop798" />
							<stop
   offset="1"
   style="stop-color:#050405"
   id="stop800" />
						</radialGradient>
						<path
   d="m 390.888,33.492 c 1.16,6.729 5.809,7.77 9.545,7.005 3.267,-0.67 7.928,-3.071 6.835,-11.531 -0.877,-6.773 -5.376,-11.865 -10.237,-11.028 -4.862,0.837 -7.301,8.824 -6.143,15.554 z"
   id="path803"
   inkscape:connector-curvature="0"
   style="fill:url(#SVGID_21_)" />
						
							<radialGradient
   id="SVGID_22_"
   cx="280.30801"
   cy="4.4463"
   r="26.1122"
   gradientTransform="matrix(0.9989,-0.0476,0.0476,0.9989,118.1585,38.0915)"
   gradientUnits="userSpaceOnUse">
							<stop
   offset="0.2378"
   style="stop-color:#FCFCFD"
   id="stop805" />
							<stop
   offset="0.3392"
   style="stop-color:#C9C7CB"
   id="stop807" />
							<stop
   offset="0.5651"
   style="stop-color:#605D63"
   id="stop809" />
							<stop
   offset="0.8486"
   style="stop-color:#010202"
   id="stop811" />
						</radialGradient>
						<path
   d="m 391.163,33.795 c 1.112,6.458 5.608,7.45 9.222,6.711 3.161,-0.647 7.673,-2.958 6.625,-11.077 -0.839,-6.5 -5.184,-11.381 -9.886,-10.571 -4.703,0.809 -7.074,8.478 -5.961,14.937 z"
   id="path814"
   inkscape:connector-curvature="0"
   style="fill:url(#SVGID_22_)" />
					</g>
					
						<radialGradient
   id="SVGID_23_"
   cx="276.26471"
   cy="-5.7564001"
   r="10.763"
   gradientTransform="matrix(0.9888,-0.0472,0.0544,1.1401,125.2794,50.347)"
   gradientUnits="userSpaceOnUse">
						<stop
   offset="0.0162"
   style="stop-color:#30669D"
   id="stop818" />
						<stop
   offset="0.5405"
   style="stop-color:#122C45"
   id="stop820" />
						<stop
   offset="1"
   style="stop-color:#141F35"
   id="stop822" />
					</radialGradient>
					<path
   d="m 403.517,30.96 c 0.153,3.217 -1.984,5.933 -4.774,6.066 -2.79,0.133 -5.176,-2.367 -5.33,-5.584 -0.153,-3.218 1.984,-5.933 4.774,-6.066 2.791,-0.134 5.177,2.367 5.33,5.584 z"
   id="path825"
   inkscape:connector-curvature="0"
   style="fill:url(#SVGID_23_)" />
					
						<radialGradient
   id="SVGID_24_"
   cx="346.44821"
   cy="2.1012001"
   r="6.7410002"
   gradientTransform="matrix(1.2278,-0.0586,0.0503,1.0536,-27.1719,49.7499)"
   gradientUnits="userSpaceOnUse">
						<stop
   offset="0"
   style="stop-color:#040404"
   id="stop827" />
						<stop
   offset="1"
   style="stop-color:#050405"
   id="stop829" />
					</radialGradient>
					<path
   d="m 401.544,31.829 c 0.105,2.192 -1.173,4.034 -2.852,4.114 -1.68,0.08 -3.126,-1.632 -3.231,-3.824 -0.104,-2.192 1.173,-4.034 2.852,-4.114 1.68,-0.081 3.126,1.631 3.231,3.824 z"
   id="path832"
   inkscape:connector-curvature="0"
   style="fill:url(#SVGID_24_)" />
					<circle
   cx="398.573"
   cy="32.073002"
   r="0.671"
   id="circle834"
   style="fill:#ffffff" />
				</g>
				<circle
   cx="399.62799"
   cy="27.546"
   r="1.095"
   id="circle838"
   style="fill:#ffffff" />
			</g>
			<path
   d="m 367.356,38.942 0.134,-0.192 0.234,-0.016 -0.234,0.016 -0.134,0.192 -0.092,-0.064 -0.008,-0.111 c 0,-0.007 -0.224,-3.129 -0.002,-7.397 v 0 c 0.237,-4.535 0.973,-10.362 3.028,-15.133 v 0 c 2.048,-4.765 5.469,-8.511 11.025,-8.708 v 0 h 0.021 l 0.021,0.003 c 2.478,0.364 3.896,1.102 4.933,1.752 v 0 c 1.042,0.656 1.676,1.176 2.626,1.224 v 0 c 1.608,-0.014 2.554,-0.76 3.514,-1.54 v 0 c 0.948,-0.773 1.92,-1.596 3.471,-1.514 v 0 c 0.565,0.03 1.198,0.176 1.93,0.477 v 0 l 0.01,0.003 0.01,0.006 c 4.853,2.524 12.413,8.88 11.615,24.015 v 0 c -0.113,2.175 -0.398,4.532 -0.886,7.085 v 0 l -0.012,0.063 -0.043,0.049 c -0.12,0.122 -0.246,0.16 -0.435,0.226 v 0 c -0.186,0.059 -0.428,0.117 -0.724,0.176 v 0 c -0.591,0.118 -1.399,0.241 -2.386,0.362 v 0 c -1.973,0.243 -4.657,0.484 -7.696,0.68 v 0 c -6.078,0.392 -13.574,0.605 -19.626,0.291 v 0 c -4.788,-0.257 -8.646,-0.807 -10.294,-1.945 z m 10.319,1.476 c 10.372,0.541 25.098,-0.483 29.397,-1.285 v 0 c 0.537,-0.097 0.926,-0.207 1.057,-0.271 v 0 c 0.474,-2.499 0.751,-4.805 0.861,-6.931 v 0 C 409.759,16.976 402.376,10.853 397.633,8.36 v 0 c -0.689,-0.281 -1.266,-0.411 -1.764,-0.438 v 0 c -1.357,-0.069 -2.184,0.623 -3.15,1.409 v 0 c -0.955,0.779 -2.04,1.636 -3.821,1.644 v 0 c -1.144,-0.062 -1.861,-0.669 -2.865,-1.294 v 0 c -1.006,-0.628 -2.328,-1.323 -4.729,-1.683 v 0 c -5.314,0.203 -8.565,3.743 -10.59,8.424 v 0 c -2.02,4.681 -2.757,10.467 -2.991,14.971 v 0 c -0.11,2.12 -0.109,3.956 -0.081,5.263 v 0 c 0.022,1.015 0.06,1.706 0.076,1.964 v 0 c 1.498,0.98 5.304,1.564 9.957,1.798 z"
   id="path842"
   inkscape:connector-curvature="0"
   style="fill:#010202" />
		</g>
		<g
   id="g898">
			<g
   id="g860">
				<g
   id="g848">
					<path
   d="m 369.284,49.412 c 0,0 6.715,15.38 19.926,9.726 3.65,2.069 12.243,3.925 16.564,-6.888 4.055,-1.199 15.033,-9.081 6.758,-17.028 -2.714,-2.02 -3.626,-2.537 -10.206,2.052 -3.882,2.381 -4.633,3.282 -9.543,-1.671 -2.753,-2.374 -3.705,-1.015 -5.472,1.36 -1.555,1.68 -3.83,5.907 -13.068,-1.619 -5.858,-4.767 -10.826,-4.086 -12.5,0.994 -1.204,5.104 1.451,12.758 7.541,13.074 z"
   id="path846"
   inkscape:connector-curvature="0"
   style="fill:#cccb65" />
				</g>
				<g
   id="g852">
					<path
   d="m 368.818,47.822 c 0,0 7.803,14.028 20.37,8.732 3.65,2.069 13.348,2.26 17.324,-6.458 4.055,-1.198 14.296,-6.928 6.02,-14.874 -2.714,-2.02 -3.626,-2.537 -10.206,2.052 -3.882,2.381 -4.633,3.282 -9.543,-1.671 -2.753,-2.374 -3.705,-1.015 -5.472,1.36 -1.555,1.68 -3.83,5.907 -13.068,-1.619 -5.858,-4.767 -10.826,-4.086 -12.5,0.994 -1.204,5.104 0.986,11.168 7.075,11.484 z"
   id="path850"
   inkscape:connector-curvature="0"
   style="fill:#efed9f" />
				</g>
				<g
   id="g856">
					<path
   d="m 368.818,47.822 c 0,0 7.803,14.028 20.37,8.732 3.65,2.069 13.348,2.26 17.324,-6.458 4.055,-1.198 14.296,-6.928 6.02,-14.874 -2.196,-1.445 -3.05,-1.568 -9.63,3.022 -3.881,2.381 -5.076,4.276 -9.985,-0.677 -2.753,-2.374 -3.619,-1.167 -5.386,1.208 -1.555,1.68 -4.188,5.262 -13.426,-2.265 -5.858,-4.767 -10.687,-5.253 -12.361,-0.173 -1.205,5.105 0.985,11.169 7.074,11.485 z"
   id="path854"
   inkscape:connector-curvature="0"
   style="fill:#ece87a" />
				</g>
				<path
   d="m 412.694,35.053 -0.011,-0.011 -0.011,-0.007 c -1.133,-0.842 -1.994,-1.467 -3.136,-1.529 -1.584,-0.072 -3.509,0.908 -7.344,3.577 -1.906,1.175 -3.037,1.946 -4.177,1.876 -1.18,-0.051 -2.579,-1.006 -5.065,-3.52 -0.995,-0.857 -1.775,-1.266 -2.495,-1.306 -0.672,-0.037 -1.238,0.274 -1.751,0.76 -0.514,0.487 -1.003,1.155 -1.575,1.922 -0.942,1.024 -2.013,2.743 -4.527,2.615 -1.799,-0.09 -4.399,-1.159 -8.211,-4.267 -2.565,-2.087 -4.975,-3.157 -7.056,-3.267 -2.726,-0.152 -4.855,1.418 -5.814,4.368 l -0.002,0.008 -0.003,0.012 c -0.148,0.624 -0.238,1.283 -0.274,1.961 -0.129,2.5 0.49,5.259 1.831,7.447 1.316,2.15 3.356,3.756 6.057,3.946 0.07,0.149 0.2,0.419 0.389,0.777 0.141,0.317 0.281,0.592 0.417,0.81 l 0.023,-0.015 c 1.738,3.016 6.032,9.016 12.926,9.395 h 0.003 c 1.913,0.099 4.018,-0.244 6.307,-1.206 1.337,0.737 3.268,1.43 5.414,1.543 3.915,0.216 8.548,-1.578 11.34,-8.501 3.055,-0.978 9.497,-5.283 9.817,-10.757 0.114,-2.124 -0.743,-4.398 -3.072,-6.631 z m -6.482,16.802 c 1.109,-2.616 1.101,-6.586 1.101,-6.586 h -10e-4 c 0,0.002 -0.13,1.099 -0.415,2.514 -0.278,1.38 -0.707,3.056 -1.291,4.272 l -0.007,0.002 -0.042,0.106 c -2.754,6.859 -7.148,8.494 -10.922,8.31 -2.112,-0.109 -4.029,-0.813 -5.309,-1.539 l -0.101,-0.057 -0.107,0.045 c -2.273,0.972 -4.339,1.311 -6.207,1.214 -4.424,-0.229 -7.776,-2.918 -10.029,-5.573 -1.126,-1.326 -1.973,-2.641 -2.538,-3.622 -0.151,-0.263 -0.282,-0.502 -0.393,-0.71 -0.402,-0.904 -0.841,-2.213 -1.2,-3.4 -0.481,-1.583 -0.832,-2.959 -0.834,-2.963 0,0 0.321,4.197 1.103,5.285 -2.453,-0.226 -4.305,-1.689 -5.547,-3.707 -1.284,-2.093 -1.888,-4.772 -1.762,-7.178 0.034,-0.648 0.12,-1.276 0.259,-1.867 0.938,-2.799 2.818,-4.159 5.341,-4.038 1.936,0.099 4.27,1.115 6.784,3.162 3.851,3.136 6.519,4.267 8.483,4.372 2.785,0.148 4.028,-1.83 4.905,-2.775 l 0.009,-0.01 0.008,-0.009 c 0.574,-0.773 1.059,-1.43 1.527,-1.869 0.472,-0.442 0.897,-0.658 1.404,-0.633 0.548,0.025 1.254,0.364 2.2,1.181 2.488,2.505 3.931,3.562 5.359,3.646 1.384,0.061 2.556,-0.794 4.458,-1.953 3.828,-2.677 5.722,-3.581 7.063,-3.5 0.96,0.047 1.737,0.584 2.869,1.428 2.247,2.167 3.019,4.284 2.918,6.259 -0.22,4.878 -6.037,9.053 -9.086,10.193 z"
   id="path858"
   inkscape:connector-curvature="0"
   style="fill:#010202" />
			</g>
			<g
   id="g878">
				<path
   d="m 399.577,49.842 c 0,0 6.321,-2.76 -0.241,-5.732 -0.074,0.082 4.44,2.664 0.241,5.732 z"
   id="path862"
   inkscape:connector-curvature="0"
   style="fill:#cccb65" />
				<g
   id="g866">
					<path
   d="m 402.539,46.822 c -0.287,-2.304 -3.441,-2.638 -3.441,-2.638 0,0 0.179,0.06 0.458,0.182 v 0 c 0.279,0.122 0.651,0.303 1.023,0.539 v 0 c 0.753,0.471 1.462,1.156 1.491,1.94 v 0 c 0.042,0.749 -0.514,1.769 -2.493,2.997 v 0 c 0,0 3.121,-0.943 2.962,-3.02 z"
   id="path864"
   inkscape:connector-curvature="0"
   style="fill:#010202" />
				</g>
				<g
   id="g876">
					<path
   d="m 393.337,49.557 c 0,0 4.949,-7.472 5.749,-2.478 0.318,2.265 -1.492,3.845 -5.749,2.478 z"
   id="path868"
   inkscape:connector-curvature="0"
   style="fill:#cccb65" />
					<path
   d="m 393.576,49.632 c 0,0 4.191,-5.603 4.841,-1.877 0.257,1.69 -1.271,2.879 -4.841,1.877 z"
   id="path870"
   inkscape:connector-curvature="0"
   style="fill:#26361b" />
					<path
   d="m 393.797,49.337 c 0,0 3.188,-4.894 3.705,-1.621 0.206,1.483 -0.96,2.518 -3.705,1.621 z"
   id="path872"
   inkscape:connector-curvature="0"
   style="fill:#406f2c" />
					<path
   d="m 398.078,49.548 c -0.432,0.401 -1.076,0.639 -1.914,0.679 v 0 c -0.728,0.035 -1.607,-0.077 -2.652,-0.369 l -0.329,-0.092 0.205,-0.275 0.188,0.141 -0.188,-0.141 v 0 c 0.003,-0.004 0.584,-0.782 1.355,-1.573 v 0 c 0.78,-0.788 1.708,-1.615 2.584,-1.675 v 0 c 0.308,-0.018 0.622,0.091 0.85,0.345 v 0 c 0.229,0.252 0.381,0.62 0.47,1.127 v 0 c 0.015,0.097 0.024,0.187 0.028,0.278 v 0 c 0.032,0.596 -0.164,1.155 -0.597,1.555 z m -0.728,-2.836 c -0.007,0 -0.015,0 -0.022,10e-4 v 0 c -0.581,0.027 -1.52,0.769 -2.247,1.532 v 0 c -0.47,0.482 -0.869,0.962 -1.1,1.251 v 0 c 0.856,0.214 1.576,0.291 2.161,0.263 v 0 c 0.765,-0.037 1.292,-0.252 1.617,-0.555 v 0 c 0.324,-0.304 0.471,-0.702 0.45,-1.189 v 0 c -0.004,-0.073 -0.011,-0.148 -0.023,-0.225 v 0 c -0.078,-0.45 -0.212,-0.733 -0.353,-0.886 v 0 c -0.143,-0.15 -0.283,-0.198 -0.483,-0.192 z"
   id="path874"
   inkscape:connector-curvature="0"
   style="fill:#010202" />
				</g>
			</g>
			<g
   id="g896">
				<path
   d="m 378.321,49.442 c 0,0 -6.31,-2.785 0.263,-5.73 0.073,0.082 -4.451,2.645 -0.263,5.73 z"
   id="path880"
   inkscape:connector-curvature="0"
   style="fill:#cccb65" />
				<g
   id="g884">
					<path
   d="m 375.37,46.41 c 0.296,-2.302 3.451,-2.625 3.451,-2.625 0,0.001 -0.179,0.06 -0.458,0.181 v 0 c -0.28,0.12 -0.654,0.3 -1.026,0.534 v 0 c -0.754,0.468 -1.467,1.15 -1.497,1.934 v 0 c -0.045,0.75 0.507,1.772 2.481,3.007 v 0 c 0,10e-4 -3.117,-0.954 -2.951,-3.031 z"
   id="path882"
   inkscape:connector-curvature="0"
   style="fill:#010202" />
				</g>
				<g
   id="g894">
					<path
   d="m 384.562,49.181 c 0,0 -4.92,-7.491 -5.739,-2.501 -0.328,2.264 1.477,3.852 5.739,2.501 z"
   id="path886"
   inkscape:connector-curvature="0"
   style="fill:#cccb65" />
					<path
   d="m 384.323,49.256 c 0,0 -4.17,-5.619 -4.833,-1.896 -0.265,1.689 1.258,2.884 4.833,1.896 z"
   id="path888"
   inkscape:connector-curvature="0"
   style="fill:#26361b" />
					<path
   d="m 384.103,48.958 c 0,0 -3.168,-4.906 -3.699,-1.635 -0.212,1.484 0.95,2.523 3.699,1.635 z"
   id="path890"
   inkscape:connector-curvature="0"
   style="fill:#406f2c" />
					<path
   d="m 379.821,49.154 c -0.432,-0.401 -0.625,-0.961 -0.592,-1.557 v 0 c 0.004,-0.09 0.014,-0.181 0.029,-0.277 v 0 c 0.091,-0.506 0.244,-0.874 0.474,-1.125 v 0 c 0.229,-0.253 0.544,-0.361 0.852,-0.342 v 0 c 0.876,0.064 1.8,0.894 2.578,1.684 v 0 c 0.767,0.796 1.346,1.574 1.349,1.579 v 0 l -0.188,0.14 0.188,-0.14 0.204,0.275 -0.329,0.091 c -1.045,0.288 -1.924,0.396 -2.653,0.359 v 0 c -0.839,-0.044 -1.482,-0.285 -1.912,-0.687 z m 0.739,-2.834 c -0.199,-0.006 -0.34,0.041 -0.482,0.192 v 0 c -0.141,0.151 -0.277,0.434 -0.356,0.884 v 0 c -0.013,0.077 -0.02,0.151 -0.024,0.225 v 0 c -0.023,0.487 0.122,0.886 0.445,1.191 v 0 c 0.324,0.305 0.85,0.521 1.615,0.561 v 0 c 0.585,0.031 1.305,-0.043 2.162,-0.254 v 0 c -0.23,-0.291 -0.627,-0.772 -1.095,-1.256 v 0 c -0.725,-0.765 -1.661,-1.511 -2.243,-1.541 v 0 c -0.007,-0.001 -0.015,-0.001 -0.022,-0.002 z"
   id="path892"
   inkscape:connector-curvature="0"
   style="fill:#010202" />
				</g>
			</g>
		</g>
	</g>
</g>





<g
   id="g2622"
   transform="translate(-319.54225,-7.4483355)">
</g>
<g
   id="g2624"
   transform="translate(-319.54225,-7.4483355)">
</g>
<g
   id="g2626"
   transform="translate(-319.54225,-7.4483355)">
</g>
<g
   id="g2628"
   transform="translate(-319.54225,-7.4483355)">
</g>
<g
   id="g2630"
   transform="translate(-319.54225,-7.4483355)">
</g>
<g
   id="g2632"
   transform="translate(-319.54225,-7.4483355)">
</g>
</svg>