<?xml version="1.0" encoding="UTF-8" standalone="no"?>
<!-- Generator: Adobe Illustrator 17.0.0, SVG Export Plug-In . SVG Version: 6.00 Build 0)  -->

<svg
   xmlns:dc="http://purl.org/dc/elements/1.1/"
   xmlns:cc="http://creativecommons.org/ns#"
   xmlns:rdf="http://www.w3.org/1999/02/22-rdf-syntax-ns#"
   xmlns:svg="http://www.w3.org/2000/svg"
   xmlns="http://www.w3.org/2000/svg"
   xmlns:sodipodi="http://sodipodi.sourceforge.net/DTD/sodipodi-0.dtd"
   xmlns:inkscape="http://www.inkscape.org/namespaces/inkscape"
   version="1.1"
   id="Слой_1"
   x="0px"
   y="0px"
   width="101.432"
   height="135.192"
   viewBox="0 0 101.432 135.192"
   enable-background="new 0 0 1200 150"
   xml:space="preserve"
   sodipodi:docname="5.svg"
   inkscape:version="0.92.4 (5da689c313, 2019-01-14)"><metadata
   id="metadata2639"><rdf:RDF><cc:Work
       rdf:about=""><dc:format>image/svg+xml</dc:format><dc:type
         rdf:resource="http://purl.org/dc/dcmitype/StillImage" /><dc:title></dc:title></cc:Work></rdf:RDF></metadata><defs
   id="defs2637" /><sodipodi:namedview
   pagecolor="#ffffff"
   bordercolor="#666666"
   borderopacity="1"
   objecttolerance="10"
   gridtolerance="10"
   guidetolerance="10"
   inkscape:pageopacity="0"
   inkscape:pageshadow="2"
   inkscape:window-width="1920"
   inkscape:window-height="1017"
   id="namedview2635"
   showgrid="false"
   inkscape:zoom="0.66939442"
   inkscape:cx="290.24056"
   inkscape:cy="-78.591379"
   inkscape:window-x="-8"
   inkscape:window-y="-8"
   inkscape:window-maximized="1"
   inkscape:current-layer="Слой_1"
   fit-margin-top="0"
   fit-margin-left="0"
   fit-margin-right="0"
   fit-margin-bottom="0" />





<g
   id="g1840"
   transform="translate(-776.349,-7.027)">
	<g
   id="g1566">
		<path
   d="m 813.203,26.668 c 0,0 5.038,-1.483 8.287,-8.854 3.207,-7.334 9.609,-13.132 17.029,-9.366 2.559,-0.403 10.892,-0.701 14.365,8.851 2.129,4.838 0.547,12.15 3.573,15.893 -6.007,-1.543 -36.812,-0.281 -43.254,-6.524 z"
   id="path1560"
   inkscape:connector-curvature="0"
   style="fill:#a1c85f" />
		<path
   d="m 813.203,26.668 c 0,0 5.669,-1.326 8.918,-8.697 3.207,-7.334 8.709,-11.712 16.128,-7.946 2.559,-0.403 10.166,-1.132 13.639,8.42 2.129,4.838 1.543,11.003 4.568,14.747 -6.006,-1.543 -36.811,-0.281 -43.253,-6.524 z"
   id="path1562"
   inkscape:connector-curvature="0"
   style="fill:#7aba41" />
		<path
   d="m 856.397,33.422 c -2.929,-0.759 -12.164,-0.838 -21.421,-1.494 v 0 c -9.275,-0.673 -18.578,-1.87 -21.938,-5.09 v 0 l 0.165,-0.171 0.067,0.228 -0.067,-0.228 -0.165,0.171 -0.292,-0.284 0.39,-0.115 c 0,0 0.067,-0.019 0.206,-0.072 v 0 c 0.138,-0.053 0.341,-0.137 0.596,-0.261 v 0 c 0.51,-0.247 1.226,-0.655 2.045,-1.289 v 0 c 1.637,-1.271 3.68,-3.45 5.289,-7.099 v 0 c 2.533,-5.786 7.049,-10.679 12.59,-10.691 v 0 c 1.507,0 3.082,0.367 4.695,1.174 v 0 c 0.5,-0.075 1.191,-0.142 2.009,-0.142 v 0 c 3.589,-0.012 9.698,1.337 12.536,9.148 v 0 c 1.087,2.479 1.218,5.536 1.468,8.429 v 0 c 0.245,2.896 0.616,5.616 2.07,7.407 v 0 l 0.452,0.558 z m -21.388,-1.966 c 8.704,0.62 17.332,0.712 20.89,1.374 v 0 c -1.257,-1.915 -1.571,-4.493 -1.802,-7.153 v 0 c -0.248,-2.907 -0.39,-5.924 -1.431,-8.282 v 0 l -0.003,-0.007 -0.002,-0.008 c -2.772,-7.601 -8.6,-8.835 -12.095,-8.846 v 0 c -0.833,0 -1.529,0.073 -2.011,0.149 v 0 L 838.479,8.695 838.41,8.66 c -1.578,-0.801 -3.098,-1.157 -4.549,-1.158 v 0 c -5.232,-0.011 -9.663,4.701 -12.156,10.407 v 0 c -2.755,6.256 -6.804,8.336 -8.055,8.847 v 0 c 3.34,2.838 12.388,4.075 21.359,4.7 z"
   id="path1564"
   inkscape:connector-curvature="0"
   style="fill:#010202" />
	</g>
	<g
   id="g1576">
		<g
   id="g1574">
			<path
   d="m 813.495,47.119 c 0.275,-2.389 0.356,-3.879 1.555,-5.398 -0.96,-0.246 -1.474,-0.225 -2.493,-0.835 -0.648,1.541 -0.616,3.053 0.938,6.233 z"
   id="path1568"
   inkscape:connector-curvature="0"
   style="fill:#c8c4e3" />
			<path
   d="m 813.495,47.119 c 0.275,-2.389 0.356,-3.879 1.555,-5.398 -0.96,-0.246 -0.45,0.104 -1.468,-0.506 -0.648,1.541 -0.712,2.966 -0.087,5.904 z"
   id="path1570"
   inkscape:connector-curvature="0"
   style="fill:#ffffff" />
			<path
   d="m 813.282,47.224 c -0.963,-1.971 -1.359,-3.328 -1.36,-4.474 v 0 c -10e-4,-0.716 0.159,-1.342 0.417,-1.955 v 0 l 0.106,-0.252 0.234,0.141 c 0.982,0.587 1.434,0.555 2.429,0.809 v 0 l 0.354,0.091 -0.227,0.286 c -1.149,1.454 -1.229,2.872 -1.505,5.277 v 0 l -0.093,0.806 z m 0.214,-0.105 0.213,-0.104 z m -1.1,-4.37 c 0,0.891 0.27,1.978 0.957,3.511 v 0 c 0.202,-1.785 0.386,-3.098 1.292,-4.391 v 0 c -0.67,-0.149 -1.19,-0.216 -1.968,-0.641 v 0 c -0.179,0.486 -0.28,0.969 -0.281,1.521 z"
   id="path1572"
   inkscape:connector-curvature="0"
   style="fill:#010202" />
		</g>
	</g>
	<g
   id="g1586">
		<path
   d="m 853.404,39.269 c 0,0 -34.853,29.456 -6.936,79.582 0.158,0.01 -6.389,0.888 -6.389,0.888 0,0 -25.645,-43.022 7.623,-77.799 0.166,-0.148 5.702,-2.671 5.702,-2.671 z"
   id="path1578"
   inkscape:connector-curvature="0"
   style="fill:#4d8330" />
		<path
   d="m 853.404,39.269 c 0,0 -34.853,29.456 -6.936,79.582 0.158,0.01 -3.237,0.399 -3.237,0.399 0,0 -25.734,-42.93 6.167,-77.204 0.167,-0.148 4.006,-2.777 4.006,-2.777 z"
   id="path1580"
   inkscape:connector-curvature="0"
   style="fill:#a1c85f" />
		<path
   d="m 853.404,39.269 c 0,0 -36.145,27.919 -8.157,79.507 -0.864,0.162 -2.016,0.474 -2.016,0.474 0,0 -25.734,-42.93 6.167,-77.204 0.167,-0.148 4.006,-2.777 4.006,-2.777 z"
   id="path1582"
   inkscape:connector-curvature="0"
   style="fill:#7aba41" />
		<path
   d="m 839.874,119.861 c -0.01,-0.02 -9.466,-15.876 -9.469,-36.167 v 0 c -0.002,-13.159 3.989,-28.19 17.138,-41.931 v 0 c 0.057,-0.046 0.079,-0.053 0.137,-0.086 v 0 c 0.053,-0.029 0.122,-0.064 0.207,-0.106 v 0 c 0.17,-0.084 0.401,-0.195 0.672,-0.325 v 0 c 0.544,-0.258 1.252,-0.587 1.955,-0.913 v 0 c 1.405,-0.65 2.79,-1.28 2.79,-1.28 h 10e-4 l 0.251,0.397 c 0,0 -0.271,0.229 -0.753,0.688 v 0 c -0.482,0.459 -1.172,1.147 -2.001,2.056 v 0 c -1.659,1.818 -3.87,4.523 -6.083,8.064 v 0 c -4.425,7.081 -8.848,17.5 -8.848,30.866 v 0 c 0,10.699 2.833,23.291 10.788,37.584 v 0 c 0.031,0.04 0.048,0.09 0.048,0.143 v 0 c -0.011,0.145 -0.083,0.175 -0.098,0.193 v 0 c -0.025,0.018 -0.037,0.022 -0.047,0.026 v 0 c -0.018,0.007 -0.025,0.009 -0.032,0.012 v 0 c -0.013,0.003 -0.021,0.005 -0.03,0.007 v 0 c -0.017,0.004 -0.036,0.007 -0.062,0.011 v 0 c -0.05,0.009 -0.118,0.02 -0.207,0.032 v 0 c -0.176,0.026 -0.426,0.063 -0.726,0.106 v 0 c -0.6,0.084 -1.399,0.194 -2.198,0.303 v 0 c -1.598,0.219 -3.196,0.433 -3.196,0.433 v 0 l -0.156,0.021 z M 830.88,83.694 c -10e-4,15.107 5.292,27.772 7.937,33.152 v 0 c 0.692,1.409 1.2,2.313 1.387,2.638 v 0 c 0.429,-0.058 1.676,-0.226 2.945,-0.4 v 0 c 1.175,-0.16 2.392,-0.329 2.948,-0.411 v 0 c -7.877,-14.244 -10.7,-26.832 -10.7,-37.548 v 0 c 0.004,-22.916 12.895,-37.241 16.767,-41.027 v 0 c -1.014,0.465 -2.389,1.099 -3.322,1.541 v 0 c -0.505,0.238 -0.902,0.434 -0.985,0.483 v 0 c -13.031,13.63 -16.975,28.511 -16.977,41.572 z"
   id="path1584"
   inkscape:connector-curvature="0"
   style="fill:#010202" />
	</g>
	<g
   id="g1602">
		<g
   id="g1590">
			<path
   d="m 831.662,47.959 c 0,0 -28.516,21.436 -6.581,73.584 3.965,-0.082 16.426,-1.877 16.426,-1.877 0,0 -26.209,-46.857 8.923,-78.355 0.02,-0.316 -18.768,6.648 -18.768,6.648 z"
   id="path1588"
   inkscape:connector-curvature="0"
   style="fill:#cccb65" />
		</g>
		<g
   id="g1594">
			<path
   d="m 836.115,47.264 c 0,0 -28.459,21.855 -6.523,74.003 3.965,-0.082 11.915,-1.601 11.915,-1.601 0,0 -26.209,-46.857 8.923,-78.355 0.02,-0.316 -14.315,5.953 -14.315,5.953 z"
   id="path1592"
   inkscape:connector-curvature="0"
   style="fill:#f5ef9c" />
		</g>
		<g
   id="g1598">
			<path
   d="m 834.336,45.722 c 0,0 -26.679,23.397 -4.743,75.545 3.965,-0.082 11.915,-1.601 11.915,-1.601 0,0 -33.499,-44.651 8.923,-78.355 0.019,-0.316 -16.095,4.411 -16.095,4.411 z"
   id="path1596"
   inkscape:connector-curvature="0"
   style="fill:#ece87a" />
		</g>
		<path
   d="m 850.508,41.08 c -0.052,-0.019 -0.079,-0.018 -0.104,-0.018 -0.197,0.009 -0.518,0.114 -1.102,0.297 -3.973,1.279 -17.72,6.376 -17.723,6.376 l -0.033,0.012 -0.027,0.021 c -0.032,0.022 -14.969,11.272 -14.969,37.228 0,9.98 2.209,22.127 8.313,36.638 l 0.063,0.148 0.161,-0.004 c 4.002,-0.084 16.448,-1.879 16.455,-1.879 l 0.342,-0.05 -0.168,-0.301 c -0.003,-0.003 -0.582,-1.04 -1.461,-2.926 -2.635,-5.654 -7.906,-18.87 -7.905,-33.996 0,-4.45 0.456,-9.063 1.567,-13.7 0.007,-0.009 0.017,-0.017 0.023,-0.026 l -0.014,-0.012 c 2.268,-9.437 7.255,-18.968 16.663,-27.404 l 0.079,-0.071 V 41.31 c 0.003,-0.131 -0.116,-0.222 -0.16,-0.23 z M 827.38,70.095 c -2.068,0 -4.241,-0.202 -5.893,-0.403 -1.104,-0.135 -1.972,-0.269 -2.429,-0.344 1.27,-4.592 2.993,-8.385 4.764,-11.432 0.971,0.26 4.7,1.194 8.355,1.195 1.814,-0.002 3.612,-0.229 5.056,-0.906 -1.679,3.472 -2.901,6.991 -3.75,10.497 -0.905,1.017 -3.414,1.407 -6.103,1.393 z m 13.758,49.384 c -0.898,0.127 -3.479,0.49 -6.386,0.859 -3.51,0.446 -7.498,0.903 -9.514,0.963 -3.878,-9.25 -6.162,-17.523 -7.3,-24.876 1.164,0.323 4.452,1.143 7.936,1.144 2.55,-0.002 5.214,-0.439 7.227,-1.87 2.294,12.578 7.092,22.004 8.037,23.78 z m -8.132,-24.3 c -1.9,1.447 -4.554,1.917 -7.132,1.915 -2.123,0 -4.186,-0.312 -5.717,-0.626 -1.105,-0.226 -1.925,-0.451 -2.298,-0.559 -0.578,-3.896 -0.834,-7.531 -0.834,-10.912 0,-1.313 0.041,-2.586 0.114,-3.823 1.283,0.48 5.964,2.117 10.331,2.12 1.563,-10e-4 3.086,-0.215 4.406,-0.776 0,0.037 0,0.073 0,0.11 0,4.391 0.44,8.62 1.13,12.551 z m -1.128,-13.182 c -1.275,0.589 -2.81,0.823 -4.409,0.821 -2.489,0.001 -5.12,-0.553 -7.123,-1.108 -1.56,-0.432 -2.732,-0.862 -3.177,-1.032 0.269,-4.021 0.904,-7.639 1.765,-10.87 1.1,0.181 4.901,0.76 8.445,0.76 2.369,-0.012 4.619,-0.239 5.926,-1.109 -0.961,4.243 -1.388,8.459 -1.427,12.538 z m 5.716,-24.521 c -1.4,0.858 -3.384,1.162 -5.416,1.161 -2.075,0 -4.196,-0.311 -5.795,-0.622 -1.05,-0.204 -1.869,-0.408 -2.31,-0.523 0.118,-0.198 0.236,-0.394 0.354,-0.586 1.85,-2.998 3.698,-5.19 5.082,-6.632 0.693,-0.72 1.268,-1.254 1.67,-1.605 0.323,-0.283 0.53,-0.447 0.6,-0.5 0.423,-0.157 4.685,-1.735 9.043,-3.317 2.294,-0.832 4.612,-1.665 6.403,-2.288 0.895,-0.312 1.66,-0.571 2.223,-0.753 0.043,-0.013 0.084,-0.027 0.124,-0.039 -5.358,4.947 -9.24,10.261 -11.978,15.704 z"
   id="path1600"
   inkscape:connector-curvature="0"
   style="fill:#010202" />
	</g>
	<g
   id="g1648">
		<g
   id="g1644">
			<g
   id="g1624">
				<path
   d="m 834.539,25.404 c 1.062,4.355 4.011,4.862 6.301,4.223 2.002,-0.559 4.785,-2.302 3.677,-7.791 -0.887,-4.394 -3.948,-7.554 -6.934,-6.827 -2.988,0.729 -4.105,6.04 -3.044,10.395 z"
   id="path1604"
   inkscape:connector-curvature="0"
   style="fill:#5d9f31" />
				
					<radialGradient
   id="SVGID_41_"
   cx="-51.1824"
   cy="41.345699"
   r="14.9146"
   gradientTransform="matrix(1.0269,-0.1189,0.1218,1.0349,886.6588,-25.8724)"
   gradientUnits="userSpaceOnUse">
					<stop
   offset="0"
   style="stop-color:#040404"
   id="stop1606" />
					<stop
   offset="1"
   style="stop-color:#050405"
   id="stop1608" />
				</radialGradient>
				<path
   d="m 835.08,26.021 c 0.923,3.79 3.614,4.2 5.713,3.618 1.836,-0.509 4.398,-2.06 3.443,-6.838 -0.764,-3.824 -3.527,-6.55 -6.264,-5.883 -2.737,0.666 -3.815,5.313 -2.892,9.103 z"
   id="path1611"
   inkscape:connector-curvature="0"
   style="fill:url(#SVGID_41_)" />
				
					<radialGradient
   id="SVGID_42_"
   cx="-74.409203"
   cy="44.9235"
   r="14.9149"
   gradientTransform="matrix(0.9933,-0.1159,0.1159,0.9933,907.8791,-29.9699)"
   gradientUnits="userSpaceOnUse">
					<stop
   offset="0.2378"
   style="stop-color:#FCFCFD"
   id="stop1613" />
					<stop
   offset="0.3392"
   style="stop-color:#C9C7CB"
   id="stop1615" />
					<stop
   offset="0.5651"
   style="stop-color:#605D63"
   id="stop1617" />
					<stop
   offset="0.8486"
   style="stop-color:#010202"
   id="stop1619" />
				</radialGradient>
				<path
   d="m 835.248,26.183 c 0.886,3.636 3.487,4.026 5.517,3.464 1.777,-0.493 4.257,-1.986 3.343,-6.571 -0.732,-3.671 -3.399,-6.283 -6.047,-5.638 -2.648,0.645 -3.699,5.108 -2.813,8.745 z"
   id="path1622"
   inkscape:connector-curvature="0"
   style="fill:url(#SVGID_42_)" />
			</g>
			
				<radialGradient
   id="SVGID_43_"
   cx="-81.886902"
   cy="29.069099"
   r="6.1473999"
   gradientTransform="matrix(0.9833,-0.1148,0.1323,1.1337,915.7768,-18.1845)"
   gradientUnits="userSpaceOnUse">
				<stop
   offset="0.0162"
   style="stop-color:#30669D"
   id="stop1626" />
				<stop
   offset="0.5405"
   style="stop-color:#122C45"
   id="stop1628" />
				<stop
   offset="1"
   style="stop-color:#141F35"
   id="stop1630" />
			</radialGradient>
			<path
   d="m 842.178,24.084 c 0.213,1.827 -0.899,3.458 -2.484,3.643 -1.584,0.185 -3.042,-1.147 -3.255,-2.974 -0.213,-1.827 0.898,-3.458 2.483,-3.643 1.585,-0.185 3.042,1.147 3.256,2.974 z"
   id="path1633"
   inkscape:connector-curvature="0"
   style="fill:url(#SVGID_43_)" />
			
				<radialGradient
   id="SVGID_44_"
   cx="58.281601"
   cy="39.061401"
   r="3.8508"
   gradientTransform="matrix(1.2209,-0.1425,0.1223,1.0477,763.3,-7.9318)"
   gradientUnits="userSpaceOnUse">
				<stop
   offset="0"
   style="stop-color:#040404"
   id="stop1635" />
				<stop
   offset="1"
   style="stop-color:#050405"
   id="stop1637" />
			</radialGradient>
			<path
   d="m 841.087,24.657 c 0.146,1.245 -0.51,2.344 -1.464,2.456 -0.954,0.111 -1.845,-0.808 -1.991,-2.053 -0.145,-1.245 0.511,-2.345 1.465,-2.456 0.953,-0.112 1.844,0.807 1.99,2.053 z"
   id="path1640"
   inkscape:connector-curvature="0"
   style="fill:url(#SVGID_44_)" />
			<circle
   cx="839.40399"
   cy="24.912001"
   r="0.38299999"
   id="circle1642"
   style="fill:#ffffff" />
		</g>
		<circle
   cx="839.68799"
   cy="22.298"
   r="0.625"
   id="circle1646"
   style="fill:#ffffff" />
	</g>
	<g
   id="g1694">
		<g
   id="g1690">
			<g
   id="g1670">
				<path
   d="m 830.458,24.58 c -2.328,3.831 -5.293,3.423 -7.281,2.123 -1.741,-1.138 -3.867,-3.641 -1.152,-8.538 2.173,-3.919 6.046,-6.008 8.673,-4.412 2.627,1.596 2.088,6.996 -0.24,10.827 z"
   id="path1650"
   inkscape:connector-curvature="0"
   style="fill:#5d9f31" />
				
					<radialGradient
   id="SVGID_45_"
   cx="-505.6351"
   cy="-79.055901"
   r="14.915"
   gradientTransform="matrix(-0.943,-0.4236,-0.4288,0.9497,316.0892,-118.2067)"
   gradientUnits="userSpaceOnUse">
					<stop
   offset="0"
   style="stop-color:#040404"
   id="stop1652" />
					<stop
   offset="1"
   style="stop-color:#050405"
   id="stop1654" />
				</radialGradient>
				<path
   d="m 829.756,25.004 c -2.026,3.333 -4.714,2.912 -6.539,1.723 -1.596,-1.04 -3.57,-3.292 -1.216,-7.559 1.885,-3.415 5.342,-5.179 7.75,-3.716 2.407,1.464 2.03,6.219 0.005,9.552 z"
   id="path1657"
   inkscape:connector-curvature="0"
   style="fill:url(#SVGID_45_)" />
				
					<radialGradient
   id="SVGID_46_"
   cx="-543.88977"
   cy="-80.432701"
   r="14.9157"
   gradientTransform="matrix(-0.9118,-0.4106,-0.4106,0.9118,297.7372,-128.8315)"
   gradientUnits="userSpaceOnUse">
					<stop
   offset="0.2378"
   style="stop-color:#FCFCFD"
   id="stop1659" />
					<stop
   offset="0.3392"
   style="stop-color:#C9C7CB"
   id="stop1661" />
					<stop
   offset="0.5651"
   style="stop-color:#605D63"
   id="stop1663" />
					<stop
   offset="0.8486"
   style="stop-color:#010202"
   id="stop1665" />
				</radialGradient>
				<path
   d="m 829.547,25.108 c -1.943,3.198 -4.541,2.784 -6.306,1.635 -1.545,-1.006 -3.457,-3.179 -1.201,-7.273 1.807,-3.279 5.138,-4.963 7.468,-3.547 2.329,1.414 1.983,5.985 0.039,9.185 z"
   id="path1668"
   inkscape:connector-curvature="0"
   style="fill:url(#SVGID_46_)" />
			</g>
			
				<radialGradient
   id="SVGID_47_"
   cx="-555.59637"
   cy="-80.912804"
   r="6.1480999"
   gradientTransform="matrix(-0.9026,-0.4065,-0.4686,1.0407,287.0828,-119.6181)"
   gradientUnits="userSpaceOnUse">
				<stop
   offset="0.0162"
   style="stop-color:#30669D"
   id="stop1672" />
				<stop
   offset="0.5405"
   style="stop-color:#122C45"
   id="stop1674" />
				<stop
   offset="1"
   style="stop-color:#141F35"
   id="stop1676" />
			</radialGradient>
			<path
   d="m 823.576,21.013 c -0.755,1.678 -0.188,3.568 1.266,4.224 1.455,0.654 3.246,-0.174 4.002,-1.851 0.755,-1.678 0.188,-3.568 -1.266,-4.223 -1.456,-0.656 -3.247,0.173 -4.002,1.85 z"
   id="path1679"
   inkscape:connector-curvature="0"
   style="fill:url(#SVGID_47_)" />
			
				<radialGradient
   id="SVGID_48_"
   cx="-324.17361"
   cy="-80.886299"
   r="3.8506"
   gradientTransform="matrix(-1.1208,-0.5047,-0.4332,0.9618,427.8259,-63.3356)"
   gradientUnits="userSpaceOnUse">
				<stop
   offset="0"
   style="stop-color:#040404"
   id="stop1681" />
				<stop
   offset="1"
   style="stop-color:#050405"
   id="stop1683" />
			</radialGradient>
			<path
   d="m 824.442,21.888 c -0.515,1.143 -0.222,2.389 0.654,2.784 0.875,0.395 2.003,-0.212 2.518,-1.355 0.514,-1.143 0.222,-2.389 -0.654,-2.784 -0.876,-0.394 -2.003,0.212 -2.518,1.355 z"
   id="path1686"
   inkscape:connector-curvature="0"
   style="fill:url(#SVGID_48_)" />
			<circle
   cx="825.96997"
   cy="22.641001"
   r="0.38299999"
   id="circle1688"
   style="fill:#ffffff" />
		</g>
		<circle
   cx="826.48798"
   cy="20.063"
   r="0.625"
   id="circle1692"
   style="fill:#ffffff" />
	</g>
	<g
   id="g1710">
		<g
   id="g1698">
			<path
   d="m 817.83,42.149 c 0,0 -13.691,-0.178 -8.769,-12.401 2.747,-6.252 13.548,-6.087 15.677,-1.921 4.473,-3.299 11.618,-3.588 15.912,2.132 3.3,0.433 20.266,-1.175 15.944,7.598 -5.032,8.731 -16.577,7.096 -22.082,11.759 -5.03,4.691 -12.609,8.281 -17.607,4.421 -3.314,-2.889 -2.796,-8.957 0.925,-11.588 z"
   id="path1696"
   inkscape:connector-curvature="0"
   style="fill:#cccb65" />
		</g>
		<g
   id="g1702">
			<path
   d="m 817.969,42.161 c 0.113,-0.082 1.139,-0.305 2.74,-0.659 0.997,0.366 7.612,4.97 14.225,-2.989 4.799,-5.776 14.84,-2.989 15.294,-2.989 0,0 -7.234,-5.811 -16.009,0.712 -3.441,2.456 -6.167,5.93 -13.282,2.965 -9.667,1.377 -13.777,-4.729 -11.875,-9.451 2.747,-6.252 13.548,-6.087 15.677,-1.921 4.473,-3.299 11.618,-3.588 15.912,2.132 3.3,0.433 20.266,-1.175 15.944,7.598 -5.18,7.572 -13.907,3.739 -19.411,8.402 -5.031,4.692 -14.57,10.027 -19.568,6.167 -3.317,-2.57 -2.611,-7.829 0.353,-9.967 z"
   id="path1700"
   inkscape:connector-curvature="0"
   style="fill:#efed9f" />
		</g>
		<g
   id="g1706">
			<path
   d="m 817.969,42.161 c 0.113,-0.082 1.139,-0.305 2.74,-0.659 0.997,0.366 7.612,4.97 14.225,-2.989 4.799,-5.776 14.84,-2.989 15.294,-2.989 0,0 -7.234,-5.811 -16.009,0.712 -3.441,2.456 -6.167,5.93 -13.282,2.965 -9.667,1.377 -13.777,-4.729 -11.875,-9.451 2.747,-6.252 13.422,-4.44 15.551,-0.274 4.473,-3.299 11.36,-4.296 15.654,1.423 3.3,0.433 20.649,-2.114 16.327,6.659 -5.18,7.572 -13.907,3.739 -19.411,8.402 -5.031,4.692 -14.57,10.027 -19.568,6.167 -3.316,-2.569 -2.61,-7.828 0.354,-9.966 z"
   id="path1704"
   inkscape:connector-curvature="0"
   style="fill:#ece87a" />
		</g>
		<path
   d="m 855.217,31.571 c -2.064,-1.107 -5.148,-1.483 -8,-1.636 -2.763,-0.146 -5.327,-0.075 -6.439,-0.199 -2.408,-3.16 -5.7,-4.5 -8.916,-4.497 -2.541,0 -5.038,0.83 -7.048,2.242 -1.15,-1.88 -3.911,-2.859 -6.841,-2.864 -3.619,10e-4 -7.578,1.524 -9.13,5.038 -0.762,1.89 -1.088,3.503 -1.088,4.885 -0.005,3.862 2.568,5.858 5.069,6.832 1.312,0.515 3.559,0.93 3.559,0.93 0.272,0.03 0.538,0.045 0.803,0.05 -1.792,1.533 -2.72,3.88 -2.721,6.171 0,2.036 0.736,4.042 2.284,5.394 1.537,1.189 3.305,1.693 5.15,1.692 4.373,-0.006 9.196,-2.789 12.764,-6.109 0.105,-0.075 0.211,-0.16 0.317,-0.252 2.677,-2.079 6.753,-2.84 10.818,-4.06 4.216,-1.268 8.439,-3.068 11.001,-7.513 0.501,-1.017 0.731,-1.903 0.731,-2.688 0.005,-1.57 -0.939,-2.684 -2.313,-3.416 z m 1.163,5.881 c -2.463,4.271 -6.529,6.019 -10.719,7.282 -3.343,1.01 -6.75,1.692 -9.429,3.143 1.098,-1.415 1.594,-3.299 1.594,-3.299 -0.002,0.002 -0.484,0.873 -1.162,1.884 -0.585,0.873 -1.324,1.849 -1.987,2.423 -0.107,0.082 -0.215,0.163 -0.318,0.25 -3.516,3.283 -8.286,6.004 -12.46,5.999 -1.761,-10e-4 -3.411,-0.475 -4.849,-1.585 -1.415,-1.234 -2.11,-3.103 -2.11,-5.027 -0.002,-2.363 1.05,-4.785 3.027,-6.179 l 0.009,-0.006 c 0.912,-0.056 1.798,-0.235 2.708,-0.476 2.048,1.078 3.896,1.508 5.543,1.508 5.262,-0.002 8.377,-4.372 9.604,-5.449 l 0.011,-0.009 0.01,-0.01 c 1.957,-2.207 5.343,-2.797 8.3,-2.795 1.528,-0.001 2.936,0.154 3.96,0.309 1.025,0.155 1.169,0.168 1.659,0.308 0,0 -2.499,-1.092 -5.619,-1.092 -3.006,0.003 -6.52,0.576 -8.648,2.945 -1.317,1.193 -4.304,5.32 -9.276,5.318 -1.584,0 -3.378,-0.417 -5.403,-1.496 l -0.082,-0.044 -0.091,0.024 c -1.115,0.3 -2.165,0.505 -3.259,0.504 -0.057,0 -0.114,-0.004 -0.171,-0.005 -0.242,-0.02 -0.545,-0.051 -0.896,-0.101 -1.364,-0.19 -3.411,-0.653 -5.091,-1.741 -1.682,-1.094 -3,-2.774 -3.004,-5.497 -10e-4,-1.307 0.309,-2.86 1.051,-4.701 1.426,-3.264 5.19,-4.749 8.692,-4.748 2.951,-0.005 5.661,1.07 6.553,2.845 l 0.127,0.249 0.225,-0.165 c 1.963,-1.449 4.457,-2.307 6.983,-2.306 3.113,0.002 6.27,1.291 8.599,4.389 l 0.059,0.08 0.099,0.013 c 1.518,0.196 5.65,-0.015 9.423,0.459 1.882,0.234 3.666,0.643 4.952,1.336 1.288,0.702 2.059,1.634 2.063,2.999 -10e-4,0.69 -0.205,1.507 -0.677,2.464 z"
   id="path1708"
   inkscape:connector-curvature="0"
   style="fill:#010202" />
	</g>
	<g
   id="g1738">
		<path
   d="m 865.645,112.213 c 0,0 -40.638,21.663 -78.113,6.167 -8.341,-3.281 -11.306,1.819 -10.911,6.958 0.079,2.925 0.316,11.859 33.048,15.812 17.71,2.056 44.591,0.791 59.613,-9.329 11.859,-8.222 11.213,-24.901 -3.637,-19.608 z"
   id="path1712"
   inkscape:connector-curvature="0"
   style="fill:#4d8330" />
		<path
   d="m 865.645,112.213 c 0,0 -40.638,21.663 -78.113,6.167 -8.341,-3.281 -11.306,1.819 -10.911,6.958 0.079,2.925 3.637,9.21 33.166,13.124 17.709,2.056 42.022,1.581 57.044,-8.539 11.859,-8.222 13.664,-23.003 -1.186,-17.71 z"
   id="path1714"
   inkscape:connector-curvature="0"
   style="fill:#a1c85f" />
		<path
   d="m 866.713,113.321 c 0,0 -35.104,24.43 -78.865,6.878 -8.341,-3.281 -11.622,0 -11.226,5.139 0.079,2.925 3.637,9.21 33.166,13.124 17.709,2.056 42.022,1.581 57.044,-8.539 11.858,-8.222 14.73,-21.896 -0.119,-16.602 z"
   id="path1716"
   inkscape:connector-curvature="0"
   style="fill:#7aba41" />
		<g
   id="g1734">
			<g
   id="g1720">
				<path
   d="m 789.429,134.825 c 3.022,-3.811 8.991,-10.021 12.102,-12.283 -4.49,-0.859 -9.012,-2.144 -13.492,-3.956 0.512,3.763 1.788,14.246 1.39,16.239 z"
   id="path1718"
   inkscape:connector-curvature="0"
   style="fill:#6d2d0d" />
			</g>
			<g
   id="g1724">
				<path
   d="m 811.092,138.621 c 2.47,-3.569 6.847,-12.021 8.993,-14.707 -3.815,0.128 -7.741,0.026 -11.723,-0.379 0.811,3.588 3.122,14.04 2.73,15.086 z"
   id="path1722"
   inkscape:connector-curvature="0"
   style="fill:#6d2d0d" />
			</g>
			<g
   id="g1728">
				<path
   d="m 841.281,120.957 c -3.975,0.955 -8.298,1.775 -12.86,2.317 1.654,2.746 6.467,10.814 8.287,14.714 1.091,-3.817 3.122,-13.042 4.573,-17.031 z"
   id="path1726"
   inkscape:connector-curvature="0"
   style="fill:#6d2d0d" />
			</g>
			<g
   id="g1732">
				<path
   d="m 864.538,130.714 c -0.384,-2.947 0.062,-13.684 1.087,-18.49 -0.323,0.17 -4.879,2.551 -12.169,5.125 2.381,2.202 9.507,9.035 11.082,13.365 z"
   id="path1730"
   inkscape:connector-curvature="0"
   style="fill:#6d2d0d" />
			</g>
		</g>
		<path
   d="m 809.641,141.386 c -16.387,-1.98 -24.663,-5.202 -28.882,-8.337 v 0 c -4.227,-3.126 -4.345,-6.232 -4.375,-7.693 v 0 c -0.023,-0.304 -0.035,-0.607 -0.035,-0.909 v 0 c 0,-1.882 0.461,-3.709 1.505,-5.08 v 0 c 1.041,-1.372 2.68,-2.266 4.935,-2.262 v 0 c 1.373,0 2.975,0.325 4.833,1.055 v 0 c 9.839,4.068 19.898,5.568 29.385,5.568 v 0 c 19.891,0.001 37.253,-6.598 44.681,-9.896 v 0 c 2.477,-1.099 3.841,-1.827 3.846,-1.829 v 0 l 0.014,-0.008 0.017,-0.006 c 1.989,-0.71 3.735,-1.032 5.243,-1.032 v 0 c 2.315,-0.002 4.076,0.767 5.241,2.054 v 0 c 1.166,1.287 1.732,3.068 1.732,5.061 v 0 c -0.004,4.497 -2.854,10.119 -8.366,13.945 v 0 c -11.265,7.583 -29.059,10.199 -44.742,10.202 v 0 c -5.375,0.001 -10.502,-0.307 -15.032,-0.833 z M 778.23,119.655 c -0.961,1.259 -1.409,2.986 -1.408,4.792 v 0 c 0,0.289 0.011,0.58 0.035,0.884 v 0 c 0.049,1.452 0.089,4.276 4.183,7.337 v 0 c 4.102,3.053 12.311,6.274 28.655,8.246 v 0 c 4.511,0.523 9.62,0.831 14.977,0.831 v 0 c 15.629,0.003 33.365,-2.63 44.474,-10.119 v 0 c 5.396,-3.738 8.163,-9.253 8.16,-13.553 v 0 c -0.023,-3.812 -2.089,-6.622 -6.498,-6.64 v 0 c -1.436,0 -3.125,0.307 -5.068,0.999 v 0 c -0.684,0.36 -22.484,11.769 -48.733,11.772 v 0 c -9.536,0 -19.66,-1.507 -29.562,-5.602 v 0 c -1.812,-0.713 -3.358,-1.021 -4.656,-1.021 v 0 c -2.133,0.002 -3.596,0.817 -4.559,2.074 z"
   id="path1736"
   inkscape:connector-curvature="0"
   style="fill:#010202" />
	</g>
	<g
   id="g1758">
		<path
   d="m 800.023,107.944 c 0,0 9.408,-12.531 -0.632,-21.505 -4.902,-3.953 -10.279,-7.274 -6.958,-11.227 2.214,-2.53 14.548,3.479 18.026,10.278 2.53,5.297 4.27,14.706 2.056,22.454 -0.158,-0.316 -12.492,0 -12.492,0 z"
   id="path1740"
   inkscape:connector-curvature="0"
   style="fill:#4d8330" />
		<path
   d="m 802.316,108.34 c 0,0 9.685,-13.796 -0.356,-22.77 -4.902,-3.953 -12.848,-6.404 -9.527,-10.357 2.214,-2.53 14.548,3.479 18.026,10.278 2.53,5.297 4.27,14.706 2.056,22.454 -0.158,-0.317 -10.199,0.395 -10.199,0.395 z"
   id="path1742"
   inkscape:connector-curvature="0"
   style="fill:#a1c85f" />
		<path
   d="m 802.316,108.34 c 0,0 9.685,-13.796 -0.356,-22.77 -4.902,-3.953 -12.848,-6.404 -9.527,-10.357 2.214,-2.53 13.52,3.913 16.998,10.713 2.53,5.297 3.993,14.429 1.78,22.177 -0.159,-0.317 -8.895,0.237 -8.895,0.237 z"
   id="path1744"
   inkscape:connector-curvature="0"
   style="fill:#7aba41" />
		<g
   id="g1754">
			<g
   id="g1748">
				<path
   d="m 811.583,88.276 c -0.346,-1.016 -0.725,-1.952 -1.124,-2.786 -0.777,-1.519 -1.997,-2.998 -3.447,-4.352 -0.41,1.532 -1.264,4.161 -2.562,5.459 2.88,0.376 5.36,0.754 7.133,1.679 z"
   id="path1746"
   inkscape:connector-curvature="0"
   style="fill:#6d2d0d" />
			</g>
			<g
   id="g1752">
				<path
   d="m 813.226,95.482 c -1.87,0.603 -5.818,1.748 -7.827,1.394 -0.142,0.284 4.56,5.41 7.926,6.912 0.318,-2.769 0.244,-5.612 -0.099,-8.306 z"
   id="path1750"
   inkscape:connector-curvature="0"
   style="fill:#6d2d0d" />
			</g>
		</g>
		<path
   d="m 812.343,108.132 c -0.033,-0.006 -0.079,-0.012 -0.133,-0.018 v 0 c -0.158,-0.017 -0.393,-0.032 -0.684,-0.043 v 0 c -0.584,-0.022 -1.396,-0.03 -2.32,-0.03 v 0 c -3.696,0 -9.168,0.14 -9.177,0.141 v 0 l -0.49,0.012 0.295,-0.391 c 0,-0.002 0.242,-0.324 0.613,-0.913 v 0 c 0.371,-0.59 0.866,-1.442 1.362,-2.485 v 0 c 0.991,-2.086 1.978,-4.937 1.977,-7.983 v 0 c -0.003,-3.252 -1.111,-6.723 -4.545,-9.797 v 0 c -1.917,-1.547 -3.916,-3.001 -5.449,-4.449 v 0 c -1.527,-1.448 -2.617,-2.897 -2.624,-4.484 v 0 c -10e-4,-0.868 0.34,-1.751 1.086,-2.634 v 0 c 0.425,-0.482 1.11,-0.67 1.935,-0.671 v 0 c 2.175,0.006 5.519,1.312 8.729,3.328 v 0 c 3.204,2.021 6.255,4.752 7.755,7.676 v 0 c 1.734,3.635 3.091,9.147 3.093,14.764 v 0 c 0,2.658 -0.305,5.341 -1.023,7.856 v 0 l -0.168,0.587 z m -12.13,-0.045 -0.189,-0.142 z m -7.598,-32.721 c -0.689,0.821 -0.97,1.583 -0.971,2.325 v 0 c -0.007,1.347 0.972,2.722 2.475,4.139 v 0 c 1.498,1.417 3.492,2.87 5.43,4.433 v 0 c 3.544,3.163 4.715,6.798 4.711,10.158 v 0 c -0.005,5.303 -2.864,9.933 -3.774,11.275 v 0 c 1.404,-0.034 5.665,-0.13 8.72,-0.13 v 0 c 1.477,0.003 2.638,0.019 3.144,0.088 v 0 c 0.658,-2.399 0.942,-4.958 0.942,-7.5 v 0 c 0.002,-5.539 -1.347,-11.005 -3.044,-14.555 v 0 c -1.426,-2.795 -4.425,-5.499 -7.582,-7.485 v 0 c -3.151,-1.989 -6.479,-3.261 -8.475,-3.254 v 0 c -10e-4,0 -0.004,0 -0.006,0 v 0 c -0.757,-0.001 -1.292,0.183 -1.57,0.506 z"
   id="path1756"
   inkscape:connector-curvature="0"
   style="fill:#010202" />
	</g>
	<g
   id="g1766">
		<path
   d="m 835.673,37.742 c -1.671,1.485 -6.438,8.41 -14.96,3.866 -0.061,0.016 -0.12,0.03 -0.18,0.046 -1.301,1.797 -4.61,7.226 1.47,8.902 3.823,0.979 6.454,-0.647 10.979,-6.16 3.023,-2.976 9.069,-7.716 16.228,-9.031 -2.235,-0.435 -9.999,-1.591 -13.537,2.377 z"
   id="path1760"
   inkscape:connector-curvature="0"
   style="fill:#64140e" />
		<path
   d="m 835.673,37.742 c -1.671,1.485 -6.792,7.743 -13.434,4.423 -0.06,0.016 0.06,0.103 0,0.118 -1.301,1.797 -3.439,5.337 1.305,6.286 2.964,0.948 4.132,0.414 8.656,-5.1 5.574,-7.234 10.081,-7.471 17.009,-8.105 -2.234,-0.434 -9.998,-1.59 -13.536,2.378 z"
   id="path1762"
   inkscape:connector-curvature="0"
   style="fill:#2d0e0f" />
		<path
   d="m 821.941,50.783 c -2.76,-0.742 -3.734,-2.354 -3.718,-4.021 v 0 c 0.007,-2.084 1.385,-4.227 2.118,-5.248 v 0 l 0.05,-0.069 0.082,-0.022 c 0.063,-0.017 0.121,-0.031 0.178,-0.046 v 0 l 0.089,-0.024 0.083,0.044 c 2.024,1.079 3.818,1.496 5.403,1.496 v 0 c 4.974,0.003 7.962,-4.13 9.279,-5.32 v 0 c 2.128,-2.368 5.64,-2.941 8.645,-2.944 v 0 c 2.206,0 4.151,0.315 5.105,0.499 v 0 l 1.388,0.512 c -6.582,0.118 -14.481,5.955 -17.485,8.912 v 0 c -3.71,4.518 -6.199,6.501 -9.188,6.506 v 0 c -0.652,10e-4 -1.322,-0.094 -2.029,-0.275 z m -3.244,-4.02 c 0.016,1.478 0.744,2.821 3.366,3.562 v 0 c 0.673,0.172 1.302,0.261 1.907,0.261 v 0 c 2.738,0.005 5.122,-1.824 8.829,-6.342 v 0 l 0.009,-0.011 0.008,-0.007 c 2.872,-2.825 8.434,-7.226 15.127,-8.835 v 0 c -1.007,-0.146 -2.346,-0.285 -3.793,-0.285 v 0 c -2.956,-0.003 -6.341,0.588 -8.3,2.795 v 0 l -0.009,0.01 -0.011,0.009 c -1.227,1.077 -4.342,5.447 -9.604,5.449 v 0 c -1.646,0 -3.495,-0.43 -5.544,-1.509 v 0 c -0.003,10e-4 -0.006,10e-4 -0.008,0.002 v 0 c -0.725,1.01 -1.984,3.07 -1.977,4.901 z"
   id="path1764"
   inkscape:connector-curvature="0"
   style="fill:#010202" />
	</g>
	<g
   id="g1776">
		<g
   id="g1774">
			<path
   d="m 825.148,49.632 c 1.854,-1.226 3.569,-2.46 3.772,-6.911 -0.882,0.273 -1.845,0.43 -2.895,0.407 0.062,1.774 0.083,5.652 -0.877,6.504 z"
   id="path1768"
   inkscape:connector-curvature="0"
   style="fill:#c8c4e3" />
			<path
   d="m 825.148,49.632 c 1.854,-1.226 2.107,-2.305 2.31,-6.756 -0.881,0.274 -0.384,0.275 -1.434,0.252 0.063,1.774 0.084,5.652 -0.876,6.504 z"
   id="path1770"
   inkscape:connector-curvature="0"
   style="fill:#ffffff" />
			<path
   d="m 825.645,47.515 v 0 c 0.129,-0.935 0.167,-2.037 0.167,-2.987 v 0 c 0,-0.528 -0.011,-1.009 -0.025,-1.392 v 0 l -0.009,-0.25 0.25,0.005 c 0.067,0.001 0.134,0.003 0.2,0.002 v 0 c 0.945,0 1.817,-0.148 2.62,-0.398 v 0 l 0.322,-0.101 -0.015,0.338 c -0.157,5.303 -2.561,6.283 -4.426,7.496 10e-4,10e-4 0.796,-1.779 0.916,-2.713 z m 0.641,-2.987 c 0,0.964 -0.037,2.081 -0.171,3.052 v 0 c -0.069,0.472 -0.152,0.908 -0.273,1.282 v 0 c 1.431,-1.046 2.581,-2.352 2.82,-5.82 v 0 c -0.742,0.202 -1.541,0.321 -2.393,0.324 v 0 c 0.01,0.34 0.017,0.736 0.017,1.162 z"
   id="path1772"
   inkscape:connector-curvature="0"
   style="fill:#010202" />
		</g>
	</g>
	<g
   id="g1784">
		
			<ellipse
   transform="matrix(0.9982,0.0592,-0.0592,0.9982,3.4373,-48.1999)"
   cx="815.38702"
   cy="33.925999"
   rx="1.107"
   ry="1.265"
   id="ellipse1778"
   style="fill:#26361b" />
		
			<ellipse
   transform="matrix(0.9982,0.0592,-0.0592,0.9982,3.4157,-48.2184)"
   cx="815.75"
   cy="33.556999"
   rx="0.76599997"
   ry="0.875"
   id="ellipse1780"
   style="fill:#7aba41" />
		<path
   d="m 815.298,35.425 c -0.734,-0.048 -1.257,-0.716 -1.256,-1.478 v 0 c 0,-0.033 10e-4,-0.067 0.004,-0.101 v 0 c 0.045,-0.78 0.623,-1.418 1.359,-1.422 v 0 c 0.022,0 0.047,0 0.072,0.002 v 0 c 0.734,0.048 1.257,0.716 1.255,1.478 v 0 c 0,0.034 -10e-4,0.067 -0.002,0.099 v 0 l -0.237,-0.012 0.237,0.014 c -0.046,0.78 -0.624,1.418 -1.359,1.422 v 0 c -0.026,0 -0.048,0 -0.073,-0.002 z m -0.78,-1.548 c -0.002,0.022 -0.003,0.046 -0.003,0.071 v 0 c 0.002,0.556 0.375,0.983 0.807,1.005 v 0 c 0.016,0 0.032,10e-4 0.047,10e-4 v 0 c 0.435,0.005 0.849,-0.404 0.885,-0.974 v 0 0 c 0.002,-0.026 0.002,-0.051 0.002,-0.075 v 0 c -0.002,-0.556 -0.374,-0.983 -0.813,-1.005 v 0 c -0.011,-10e-4 -0.024,-10e-4 -0.04,-10e-4 v 0 c -0.002,0 -0.005,0 -0.007,0 v 0 c -0.433,-10e-4 -0.843,0.408 -0.878,0.978 z"
   id="path1782"
   inkscape:connector-curvature="0"
   style="fill:#010202" />
	</g>
	<g
   id="g1792">
		
			<ellipse
   transform="matrix(0.9983,0.059,-0.059,0.9983,3.4715,-48.6544)"
   cx="825.336"
   cy="34.437"
   rx="1.107"
   ry="1.265"
   id="ellipse1786"
   style="fill:#26361b" />
		
			<ellipse
   transform="matrix(0.9982,0.0592,-0.0592,0.9982,3.4671,-48.8527)"
   cx="825.71399"
   cy="34.053001"
   rx="0.75199997"
   ry="0.85900003"
   id="ellipse1788"
   style="fill:#7aba41" />
		<path
   d="m 825.246,35.936 c -0.734,-0.048 -1.258,-0.716 -1.255,-1.479 v 0 c 0,-0.033 0,-0.066 0.003,-0.1 v 0 c 0.045,-0.78 0.623,-1.417 1.359,-1.421 v 0 c 0.022,0 0.048,0 0.072,0.002 v 0 c 0.734,0.048 1.257,0.716 1.256,1.478 v 0 c 0,0.034 -0.001,0.066 -0.003,0.099 v 0 l -0.237,-0.012 0.237,0.013 c -0.046,0.78 -0.624,1.417 -1.358,1.422 v 0 c -0.025,0 -0.049,-0.001 -0.074,-0.002 z m -0.779,-1.549 c -0.002,0.022 -0.002,0.046 -0.002,0.07 v 0 c 0.002,0.557 0.374,0.984 0.807,1.005 v 0 c 0.016,10e-4 0.032,10e-4 0.047,10e-4 v 0 c 0.435,0.004 0.849,-0.405 0.885,-0.974 v 0 0 c 0.001,-0.027 0.002,-0.051 0.002,-0.074 v 0 c -0.002,-0.556 -0.374,-0.984 -0.814,-1.005 v 0 c -0.009,-10e-4 -0.022,-10e-4 -0.039,-10e-4 v 0 c -0.002,0 -0.005,0 -0.008,0 v 0 c -0.433,0 -0.843,0.409 -0.878,0.978 z"
   id="path1790"
   inkscape:connector-curvature="0"
   style="fill:#010202" />
	</g>
	<g
   id="g1816">
		<path
   d="m 817.101,106.521 c 0,0 -26.407,-6.009 -28.937,4.902 -0.949,5.534 3.321,14.864 35.262,13.756 17.552,-1.423 46.805,-9.171 40.954,-21.347 -2.055,-3.004 -4.902,-8.697 -28.146,1.265 -7.353,3.006 -14.706,2.531 -19.133,1.424 z"
   id="path1794"
   inkscape:connector-curvature="0"
   style="fill:#4d8330" />
		<path
   d="m 817.101,106.521 c 0,0 -26.407,-6.009 -28.937,4.902 -0.949,5.534 6.918,11.384 34.313,10.436 17.552,-1.423 45.777,-7.946 41.903,-18.026 -2.055,-3.004 -4.902,-8.697 -28.146,1.265 -7.353,3.005 -14.706,2.53 -19.133,1.423 z"
   id="path1796"
   inkscape:connector-curvature="0"
   style="fill:#a1c85f" />
		<path
   d="m 816.903,108.459 c 0,0 -26.684,-6.405 -28.739,2.965 -0.949,5.534 6.918,11.384 34.313,10.436 17.552,-1.423 45.777,-7.946 41.903,-18.026 -2.055,-3.004 -4.665,-6.997 -27.909,2.965 -7.353,3.003 -15.14,2.767 -19.568,1.66 z"
   id="path1798"
   inkscape:connector-curvature="0"
   style="fill:#7aba41" />
		<g
   id="g1812">
			<g
   id="g1802">
				<path
   d="m 811.252,105.508 c -4.416,-0.597 -10.519,-1.054 -15.37,-0.031 1.4,3.076 4.05,9.261 5.407,14.801 1.994,-4.255 7.008,-11.53 9.963,-14.77 z"
   id="path1800"
   inkscape:connector-curvature="0"
   style="fill:#6d2d0d" />
			</g>
			<g
   id="g1806">
				<path
   d="m 829.769,106.926 c -4.9,0.822 -9.384,0.39 -12.493,-0.362 1.725,4.016 5.201,16.244 5.201,16.244 2.816,-7.509 5.891,-13.361 7.292,-15.882 z"
   id="path1804"
   inkscape:connector-curvature="0"
   style="fill:#6d2d0d" />
			</g>
			<g
   id="g1810">
				<path
   d="m 850.336,100.233 c -3.516,0.792 -7.988,2.265 -13.714,4.7 2.016,2.83 6.463,9.235 8.151,12.973 0.551,-3.587 3.632,-13.435 5.563,-17.673 z"
   id="path1808"
   inkscape:connector-curvature="0"
   style="fill:#6d2d0d" />
			</g>
		</g>
		<path
   d="m 793.689,121.194 c -4.507,-2.494 -5.885,-5.717 -5.879,-8.417 v 0 c 0,-0.484 0.043,-0.952 0.122,-1.409 v 0 c 0.623,-2.694 2.662,-4.392 5.332,-5.392 v 0 c 2.673,-1.006 5.997,-1.344 9.314,-1.345 v 0 c 7.303,0.001 14.566,1.656 14.576,1.657 v 0 l -0.053,0.231 0.058,-0.23 c 1.927,0.482 4.423,0.844 7.232,0.844 v 0 c 3.579,0 7.668,-0.587 11.749,-2.255 v 0 c 9.848,-4.221 16.054,-5.645 20.126,-5.646 v 0 c 5.561,-0.021 7.148,2.742 8.31,4.465 v 0 l 0.01,0.015 0.008,0.016 c 0.531,1.106 0.784,2.185 0.784,3.232 v 0 c -0.002,2.698 -1.671,5.111 -4.359,7.225 v 0 c -2.693,2.116 -6.425,3.955 -10.655,5.508 v 0 c -8.458,3.106 -18.899,5.07 -26.93,5.721 v 0 c -1.763,0.061 -3.441,0.09 -5.041,0.09 v 0 c -12.577,0.002 -20.197,-1.811 -24.704,-4.31 z m -0.259,-14.773 c -2.587,0.978 -4.454,2.557 -5.033,5.042 v 0 c -0.072,0.418 -0.113,0.859 -0.113,1.314 v 0 c 0.006,2.537 1.247,5.559 5.635,8.002 v 0 c 4.39,2.438 11.942,4.254 24.474,4.253 v 0 c 1.593,0 3.267,-0.029 5.013,-0.089 v 0 c 11.963,-0.964 29.426,-4.909 37.32,-11.129 v 0 c 2.633,-2.071 4.179,-4.365 4.177,-6.852 v 0 c 0,-0.964 -0.23,-1.966 -0.73,-3.01 v 0 c -1.208,-1.743 -2.526,-4.224 -7.908,-4.244 v 0 c -3.962,-0.002 -10.122,1.398 -19.942,5.61 v 0 c -4.153,1.696 -8.302,2.292 -11.933,2.292 v 0 c -2.85,0 -5.381,-0.367 -7.346,-0.858 v 0 c -0.093,-0.02 -1.87,-0.42 -4.515,-0.821 v 0 c -2.714,-0.412 -6.335,-0.823 -9.952,-0.823 v 0 c -0.005,0 -0.01,0 -0.014,0 v 0 c -3.278,-0.001 -6.552,0.341 -9.133,1.313 z"
   id="path1814"
   inkscape:connector-curvature="0"
   style="fill:#010202" />
	</g>
	<g
   id="g1838">
		<g
   id="g1822">
			<g
   id="g1820">
				<path
   d="m 825.377,47.111 c 0,0 -8.997,-1.88 -19.647,6.755 -5.606,5.053 -7.999,9.347 -18.375,9.365 2.184,1.238 4.488,2.444 10.148,1.156 -0.302,1.091 -4.386,7.185 -8.682,8.831 3.278,-0.519 7.861,-0.326 13.659,-9.962 3.88,-6.659 12.825,-14.604 22.897,-16.145 z"
   id="path1818"
   inkscape:connector-curvature="0"
   style="fill:#009640" />
			</g>
		</g>
		<g
   id="g1828">
			<g
   id="g1826">
				<path
   d="m 825.377,47.111 c 0,0 -8.997,-1.88 -19.647,6.755 -5.606,5.053 -7.999,9.347 -18.375,9.365 2.184,1.238 5.862,0.501 11.522,-0.787 -0.302,1.091 -5.76,9.128 -10.055,10.775 3.278,-0.519 7.459,-2.562 13.257,-12.198 4.744,-7.828 13.226,-12.369 23.298,-13.91 z"
   id="path1824"
   inkscape:connector-curvature="0"
   style="fill:#009640" />
			</g>
		</g>
		<g
   id="g1832">
			<path
   d="m 825.377,47.111 c 0,0 -8.734,-1.011 -19.384,7.624 -5.574,5.811 -8.262,8.478 -18.638,8.496 2.184,1.238 5.862,0.501 11.522,-0.787 -0.302,1.091 -5.76,9.128 -10.055,10.775 3.278,-0.519 7.459,-2.562 13.257,-12.198 4.744,-7.828 13.226,-12.369 23.298,-13.91 z"
   id="path1830"
   inkscape:connector-curvature="0"
   style="fill:#009640" />
		</g>
		<g
   id="g1836">
			<path
   d="m 788.736,72.997 c 2.082,-0.795 4.163,-2.706 5.743,-4.556 v 0 c 1.281,-1.491 2.248,-2.976 2.628,-3.724 v 0 c -1.533,0.323 -2.819,0.459 -3.925,0.459 v 0 c -2.779,0.003 -4.425,-0.874 -5.946,-1.739 v 0 l -0.778,-0.442 0.895,-0.002 c 10.298,-0.032 12.563,-4.215 18.226,-9.312 v 0 c 7.464,-6.053 14.143,-6.982 17.517,-6.981 v 0 c 1.752,-0.05 2.562,0.484 2.562,0.484 -9.97,1.518 -19.134,9.589 -22.976,16.194 v 0 c -2.913,4.841 -5.537,7.24 -7.866,8.487 v 0 c -2.327,1.247 -4.342,1.33 -5.959,1.587 v 0 z m 8.995,-8.546 c -0.186,0.638 -1.279,2.403 -2.891,4.298 v 0 c -1.275,1.489 -2.863,3.027 -4.568,4.025 v 0 c 1.294,-0.188 2.727,-0.473 4.321,-1.327 v 0 c 2.232,-1.196 4.798,-3.519 7.682,-8.31 v 0 C 805.982,56.783 814.213,49.3 823.7,47.185 v 0 c -0.186,-0.006 -0.388,-0.01 -0.603,-0.01 v 0 c -3.289,0.002 -9.844,0.897 -17.209,6.867 v 0 c -5.396,4.871 -7.929,9.163 -17.635,9.415 v 0 c 1.287,0.682 2.706,1.243 4.929,1.246 v 0 c 1.169,0 2.561,-0.158 4.268,-0.546 v 0 l 0.387,-0.088 z"
   id="path1834"
   inkscape:connector-curvature="0"
   style="fill:#009640" />
		</g>
	</g>
</g>


<g
   id="g2622"
   transform="translate(-776.349,-7.027)">
</g>
<g
   id="g2624"
   transform="translate(-776.349,-7.027)">
</g>
<g
   id="g2626"
   transform="translate(-776.349,-7.027)">
</g>
<g
   id="g2628"
   transform="translate(-776.349,-7.027)">
</g>
<g
   id="g2630"
   transform="translate(-776.349,-7.027)">
</g>
<g
   id="g2632"
   transform="translate(-776.349,-7.027)">
</g>
</svg>