<?xml version="1.0" encoding="utf-8"?>
<!-- Generator: Adobe Illustrator 17.0.0, SVG Export Plug-In . SVG Version: 6.00 Build 0)  -->
<!DOCTYPE svg PUBLIC "-//W3C//DTD SVG 1.1//EN" "http://www.w3.org/Graphics/SVG/1.1/DTD/svg11.dtd">
<svg version="1.1" id="Слой_2" xmlns="http://www.w3.org/2000/svg" xmlns:xlink="http://www.w3.org/1999/xlink" x="0px" y="0px"
	 width="400px" height="466px" viewBox="0 0 400 466" enable-background="new 0 0 400 466" xml:space="preserve">
<path fill="#2B8D37" stroke="#329237" d="M397.456,254.458c0,0-13.801-8.536-28.866-6.987l0.852-4.257
	c2.057,0.148,4.288,0.04,6.677-0.516l-5.008-4.66c0,0,11.279,0.771,15.048-3.887l-7.028-5.812c2.758-0.503,5.51-1.496,7.028-3.399
	l-0.756-0.625c3.066-2.325,5.763-5.778,4.524-10.35l-3.303,0.126c2.503-2.278,4.367-5.375,3.303-9.323l-20.08,0.771l-1.257-8.542
	c0,0-15.048,1.563-20.079,5.445c0,0-6.194-1.71-11.432-1.02c0.581-0.455,1.065-0.938,1.398-1.435l-6.894-4.86
	c0.35-0.142,0.701-0.281,1.028-0.437c6.29,1.777,21.259,4.908,30.971-1.695l-10.039-5.437c0,0,16.305,4.673,23.841-1.549
	l-9.749-6.026c3.617-0.202,7.185-1.052,9.749-3.164l-1.906-1.194c2.159-1.279,3.981-2.975,4.41-5.128c0,0-4.366-1.166-10.015-1.663
	c3.804-1.2,9.217-3.58,10.015-7.548c0,0-17.57-4.652-27.61,0.771l0.853-6.409c2.898-0.027,6.569-0.905,9.187-4.566
	c0,0-2.564-3.183-9.512-3.855c-0.08-0.274-0.157-0.537-0.237-0.79c2.952,0.093,6.931-0.657,9.749-4.566c0,0-2.564-3.165-9.512-3.849
	c-0.974-3.908-3.46-6.731-6.406-6.89c-0.333-1.421-1.202-3.024-2.916-4.787c0,0-9.591,1.193-12.833,5.121
	c-1.064-3.801-3.592-6.489-6.562-6.489c-0.817,0-1.591,0.214-2.328,0.598h-4.621l-1.439-1.06c-1.257-2.675-3.392-4.445-5.782-4.445
	c-2.818,0-5.244,2.435-6.387,5.933c-0.894-0.268-2.292-0.616-3.962-0.831c1.9-1.81,3.201-4.928,3.261-8.501
	c3.882,0.181,8.176-0.322,10.541-2.863l-3.744-2.313c-1.615-0.589-2.547-1.569-2.547-1.569l2.547,1.569
	c2.212,0.805,5.685,0.892,10.015-3.13c0.677-0.636,1.01-1.428,1.027-2.333c3.672,1.394,9.206,2.226,15.918-0.959l-12.247-6.415
	l1.512-0.657c3.048,0.249,6.683-0.201,10.734-2.125l-12.247-6.401l6.599-2.917c0,0-6.659-4.123-12.931-4.62
	c-0.097-0.107-0.175-0.234-0.272-0.341c1.869-0.65,5.884-2.401,6.604-5.524c0,0-3.127-0.958-7.415-0.482
	c-0.042-0.088-0.061-0.148-0.097-0.214l-3.768,0.924V76.18c2.1-1.159,6.72-4.497,3.768-10.015l-2.407,0.602l1.452-1.293
	c0,0-1.784-0.276-4.33-0.396c-0.465-1.367-1.003-2.574-1.627-3.538l5.957-5.277c0,0-13.977-2.138-19.197,2.93
	c0.89-1.099,1.978-3.661-3.574-6.611c-1.166-2.178-2.625-3.526-4.215-3.633l2.503-0.369c0,0-3.048-3.754-8.656-5.229l-1.052-0.643
	c-0.405-0.698-0.87-1.281-1.355-1.743l11.062-1.582c0,0-4.638-5.712-12.967-5.812v-0.215c0.774-0.785,3.417-3.7,2.619-6.194
	l-3.024,0.932c-0.957-6.442-3.593-11.061-6.684-11.061c-2.038,0-3.857,2.024-5.165,5.256c-1.59,0.275-3.313,0.643-4.79,0.986
	c-1.148,0.141-2.353,0.348-3.556,0.65l10.039-10.163c0,0-11.303-0.577-16.952,4.083c0,0,1.886-9.319-8.461-11.062l-0.641,1.194
	c-1.3-3.124-3.109-5.055-5.086-5.055c-2.196,0-4.155,2.32-5.456,5.96c-0.973-0.322-1.984-0.476-2.952-0.356l-2.836,5.236
	c0,0-1.863-8.152-5.63-8.152l-4.7,6.992c0,0-11.315-4.659-16.015-3.5l3.768,5.243c0,0-10.373-1.743-14.134,1.743l2.83,2.916
	c0,0-7.53,1.174-9.411,4.659l8.559,0.443c-0.756,0.308-1.433,0.697-1.978,1.193l2.83,2.904c0,0-7.53,1.166-9.411,4.672l11.299,0.57
	c0,0-1.887,5.819,2.811,5.819l5.649-0.577v2.105c-0.326,0.108-0.66,0.215-0.931,0.349l0.931,0.576v2.802c0,0,0.702,0.027,1.79,0.027
	c0,0.101,0,0.188,0.019,0.275c-2.565,1.093-6.799,3.218-7.458,5.638l-0.097-0.108c-0.967-6.536-3.611-11.235-6.719-11.235
	c-3.374,0-6.193,5.531-6.906,12.912c-2.565-0.107-5.358,0.322-7.922,1.918c0,0-1.09-4.029-5.323-6.484
	c-1.282-4.303-3.393-7.119-5.823-7.119c-2.389,0-4.481,2.735-5.764,6.952c-4.464-0.731-10.112-1.086-13.202,0.824l2.818,4.66
	c0,0-8.951-0.496-10.953,4.122c-4.367-0.925-9.223-1.475-12.58-0.442l2.504,3.895c0,0-12.562,3.103-15.066,7.763h12.562l0.871,1.877
	c-3.471,1.032-11.473,3.707-13.433,7.32h12.562l2.371,5.109c-5.673-1.482-13.922-2.97-19.94-1.106c0,0,5.007,6.986,18.833,8.541
	c0,0-0.876,0.355-2.002,1.026c-5.322-1.154-11.86-1.904-16.831-0.369c0,0,3.163,4.404,11.358,6.999
	c-0.024,0.288-0.079,0.577-0.079,0.878l2.697-0.161c1.476,0.341,3.085,0.623,4.856,0.818c0,0-5.339,2.219-7.033,6.174
	c-0.17,0.048-0.344,0.101-0.521,0.155l0.309,0.409c-0.194,0.577-0.309,1.18-0.309,1.803l1.531-0.08l3.514,4.861
	c0,0-18.852-6.992-25.117-1.549c0,0-6.273-1.548-11.304,3.875c0,0,4.621,4.27,13.861,3.935c-0.985,0.322-1.844,0.777-2.557,1.388
	c0,0-6.273-1.555-11.304,3.888c0,0,3.768,3.465,11.28,3.895c0.06,0.999,0.216,1.958,0.465,2.863l-2.952,2.561
	c0,0,0.097,0.061,0.272,0.148c-4.639,0.926-8.637,2.562-10.306,5.404c0,0,6.623,2.273,13.124,3.332
	c-4.953,0.684-9.628,2.019-12.095,4.545c-0.835-0.516-1.749-0.811-2.74-0.811c-1.144,0-2.232,0.423-3.199,1.146
	c-0.448-5.135-3.399-9.117-7.01-9.117c-3.926,0-7.107,4.672-7.107,10.417c0,1.656,0.29,3.204,0.739,4.586
	c-0.08,0.275-0.157,0.543-0.235,0.837c-2.462-0.053-4.893,0.141-6.678,0.805c-0.308-0.054-0.599-0.087-0.895-0.087
	c-3.436,0-6.29,3.586-6.949,8.359c-3.435,0.758-6.834,1.984-9.628,3.922l9.979,1.91c0.078,0.281,0.157,0.55,0.235,0.818
	c-0.254,0.798-0.471,1.656-0.587,2.56c-3.435,0.745-6.834,1.971-9.628,3.922l1.415,0.275l-1.415,0.624c0,0-8.54-1.763-15.435,0.348
	c-0.931,0.095-1.808,0.464-2.6,1.04c-1.246,0.636-2.389,1.455-3.321,2.487l1.028,0.142c-1.047,1.816-1.67,4.156-1.67,6.716
	c0,1.644,0.272,3.205,0.738,4.593c-0.036,0.095-0.079,0.194-0.097,0.288c-2.347,0.249-7.511,1.261-11.297,5.35
	c0,0,4.754,0.871,10.736,0.462c0.115,1.207,0.387,2.334,0.738,3.366c-2.256,0.222-7.591,1.173-11.473,5.363
	c0,0,7.687,1.427,15.84-0.187c0.605,0.247,1.24,0.389,1.905,0.389c1.706,0,3.278-0.878,4.5-2.366
	c0.121-0.054,0.236-0.107,0.351-0.161l0.702,4.806c-2.353,1.702-3.98,5.262-3.98,9.385c0,1.649,0.272,3.198,0.738,4.592
	c-0.236,0.704-0.429,1.469-0.544,2.266c-4.603-1.455-11.068-2.393-18.253,0.027l2.916,2.888c-0.817,1.643-1.318,3.653-1.379,5.84
	c-0.508,0.141-1.01,0.301-1.536,0.476l0.388,0.382c-1.645,1.207-3.218,2.695-4.149,4.39h5.957c-0.387,1.228-0.641,2.575-0.659,3.996
	c-2.02,1.335-4.173,3.111-5.298,5.216h6.133c1.185,3.272,3.55,5.491,6.229,5.491c1.458,0,2.818-0.65,3.944-1.757v2.414
	c-6.774-0.603-14.406-0.617-17.57,1.729l12.562,4.653c0,0-1.186,1.02-2.601,2.473c-4.197,0.055-7.959,0.591-9.961,2.071l6.29,2.327
	c-0.562,0.837-1.01,1.683-1.264,2.44l6.738,0.597c-1.706,1.603-5.746,5.571-6.738,8.608l8.776,0.771c0,0-0.835,4.766,4.524,7.736
	c1.282,2.426,3.284,3.975,5.534,3.975c2.855,0,5.323-2.473,6.447-6.06c2.541,0.656,7.01,1.161,13.627-0.201l-8.776,6.978
	c0,0,4.778,0.537,10.004-0.113c-0.024,0.2-0.042,0.409-0.042,0.623c0,5.765,3.187,10.439,7.088,10.439
	c3.918,0,7.088-4.674,7.088-10.439c0-0.463-0.024-0.918-0.061-1.38c0.115-0.041,0.333-0.142,0.545-0.249
	c1.626,2.802,3.671,5.309,6.15,7.34c-1.257,0.409-2.346,0.905-3.162,1.549c0,0,1.808,1.293,4.813,2.614
	c-4.154,0.537-15.997,2.521-21.119,7.588c0,0,6.308,3.044,15.259,2.635c-5.166,1.099-11.77,3.111-15.259,6.563
	c0,0,10.324,4.968,23.297,1.334c0.133,0.59,0.29,1.193,0.519,1.831c-0.792,2.031-1.415,5.262,0.024,9.265l8.794-3.876
	c0,0,6.272,6.987,21.338,7.757c0,0-0.932-6.295-6.755-10.036c2.019,0.409,4.269,0.71,6.755,0.838c0,0-0.116-0.745-0.508-1.872
	c4.251-0.107,8.933-0.791,11.787-2.909L110,318.788c0,0,15.09-0.772,20.098-4.659c0,0,1.258,6.985,10.058,9.318l1.239-4.659
	c0,0,8.794,1.542,17.57-3.104c0,0,0-4.405-1.627-8.407c0.538-0.248,1.083-0.502,1.627-0.797c0,0,0-0.684-0.097-1.763
	c2.467,0.482,6.078,0.691,11.394,0.087l-5.026-4.645c0,0,13.801,0,18.834-3.11c0,0,8.794,3.881,12.562,5.429l2.503-3.882
	c0,0,0,6.208,13.802,2.334c0,0,7.536,1.548,20.079-5.436c0,0,3.586,3.084,10.173,5.276c-0.641,0.731-1.13,1.367-1.379,1.83h8.655
	c-0.949,0.905-7.494,7.039-8.655,9.197h4.542c0.35,0.59,0.913,1.167,1.747,1.67l0.817-0.107c-2.195,2.292-5.244,6.576-0.817,9.304
	l6.272-0.771c0,0,11.297,9.326,28.867,6.992l-1.264-6.221c0,0,12.561,1.563,17.576-1.548l-1.246,6.972
	c0,0,16.329-1.535,21.337-10.07c0,0,10.039,2.314,15.065,1.549c0,0-1.783-5.511-7.802-9.46c2.753,0.357,5.704,0.585,7.802,0.263
	c0,0-1.24-3.822-5.122-7.381c1.398-0.765,2.716-1.689,3.858-2.828c0,0,12.561,5.43,30.137,0.771l-10.039-6.221
	c0,0,17.569,0.785,26.345-7.756c0,0-11.297-3.882-20.073-0.771c0,0-0.508-0.315-1.439-0.778c5.885-0.41,15.651-1.952,21.513-7.648
	c0,0-2.426-0.833-5.885-1.423c0.719-0.052,1.439-0.127,2.117-0.247l-10.033-9.319c0,0,25.099,4.646,31.371-3.11
	c0,0-4.542-2.81-11.261-4.914C390.973,258.305,395.321,257.104,397.456,254.458z M332.265,159.369l4.947-1.3l2.038,1.26
	c-1.53,1.093-2.734,2.28-3.277,3.506c0,0-1.73-0.704-4.374-1.542C331.871,160.69,332.089,160.059,332.265,159.369z M52.805,212.042
	c-0.036,0.408-0.054,0.852-0.078,1.334c-2.383,0.093-6.483,0.41-10.246,1.313c-0.235-0.797-0.526-1.561-0.894-2.232
	c2.002-0.71,4.04-1.903,5.666-3.928c0,0,1.379,2.091,5.576,3.513H52.805z M97.656,157.129c-1.088,0.282-2.019,0.637-2.703,1.053
	c0,0-1.766-3.787-5.51-6.885c-0.291-0.824-0.684-1.588-1.107-2.259c3.031,0.884,7.652,2.092,11.879,2.582
	C98.993,152.979,98.08,154.904,97.656,157.129z M359.814,276.975c0,0-2.486-1.535-6.72-2.989c0.563-0.322,1.126-0.658,1.688-1.019
	c0,0,5.067,1.889,11.007,2.856C363.775,275.943,361.712,276.298,359.814,276.975z"/>
<path fill="#492D17" d="M328.999,263.319c0-0.643,0.157-1.253,0.218-1.891c-1.246-0.072-2.547-0.153-3.75-0.214l3.048,2.105
	c-18.034-1.729-90.744,22.284-105.598,26.441c0.194-12.591,16.136-20.4,18.29-32.755c14.056-9.305,25.571-14.87,46.732-19.831
	c-21.494,2.293-28.504,8.997-46.012,15.627c4.27-23.35,14.133-49.502,47.277-66.63c-59.858,22.726-35.182,66.382-74.422,93.949
	c-1.318-12.664-15.258-50.005,3.145-58.921c13.687-6.624,16.524-21.708,21.864-30.669c6.229-10.439,12.132-21.112,19.59-31.375
	c-0.176,0.04-0.352,0.074-0.526,0.107c-7.96,9.621-15.242,19.387-21.918,29.269c-7.011,10.39-8.25,25.99-27.471,32.694
	c1.319-17.075,2.637-34.149,3.961-51.225c1.011-13.125,2.522-26.138,7.512-39.063c0.624-1.636,1.379-3.291,2.118-4.947
	c0.599-3.848,1.881-7.595,3.882-10.933c0.405-5.893,2.329-11.665,6-16.351c0.194-2.909,0.037-5.813-0.894-8.742
	c-6.212,20.748-23.902,42.422-23.902,63.392c-5.455-17.423,0.079-34.371-1.355-51.834c-6.876,18.958-0.193,37.984-5.437,56.936
	c-6.211-4.686-20.714-11.853-22.287-17.445c-2.274-7.964-5.225-22.585-19.59-27.317c7.687,7.247,11.358,15.332,13.083,23.53
	c-8.891-3.586-11.728-10.599-22.771-12.569c22.638,14.333,49.334,31.763,48.844,50.527c-0.484,19.166-4.131,41.234-4.131,59.04
	c0-0.274-0.096-0.556-0.253-0.824c0.018,9.199-23.122-12.107-25.819-14.808c3.199,3.198,4.445,8.501,7.222,11.845
	c-23.92-3.46-46.636-13.696-66.359-21.291c9.278,4.833,20.206,8.856,31.02,12.677c-9.048-1.219-18.465-2.648-27.802-2.936
	c24.875,0.757,47.821,9.586,69.08,16.398c27.222,8.722,16.832,41.757,18.095,57.519c-14.23-8.348-31.455-12.403-43.219-21.606
	c-8.327-6.53-18.482-13.059-32.055-16.7c11.474,6.918,23.105,14.205,31.511,22.263c-13.336-2.514-27.434-4.15-41.623-3.968
	c20.776,1.407,43.213,5.349,59.894,12.308c34.847,14.56,8.853,87.908,10.094,117.404c0.877,20.849,5.806,38.274-2.734,58.545
	c0.369-0.013,0.695-0.054,1.064-0.054c4.198,0,7.905,0.691,11.183,1.864c3.284-1.173,7.01-1.864,11.201-1.864
	c3.012,0,5.752,0.376,8.292,0.999c1.185-0.247,2.407-0.462,3.672-0.609c2.854-1.174,6.077-1.938,9.664-2.199
	c-0.036-0.073,0-0.127-0.036-0.201c-8.02-21.352-15.259-36.422-21.47-57.895c-3.575-12.363,7.468-103.026,23.218-108.556
	c14.564-5.109,79.465-26.958,97.772-26.977c0.991,0,2.099,0.014,3.145,0.014C329.174,264.828,328.999,264.097,328.999,263.319z"/>
</svg>
