<?xml version="1.0" encoding="UTF-8" standalone="no"?>
<!-- Created with Inkscape (http://www.inkscape.org/) -->

<svg
   xmlns:dc="http://purl.org/dc/elements/1.1/"
   xmlns:cc="http://creativecommons.org/ns#"
   xmlns:rdf="http://www.w3.org/1999/02/22-rdf-syntax-ns#"
   xmlns:svg="http://www.w3.org/2000/svg"
   xmlns="http://www.w3.org/2000/svg"
   xmlns:sodipodi="http://sodipodi.sourceforge.net/DTD/sodipodi-0.dtd"
   xmlns:inkscape="http://www.inkscape.org/namespaces/inkscape"
   width="150"
   height="150"
   viewBox="0 0 39.687499 39.687501"
   version="1.1"
   id="svg1410"
   inkscape:version="0.92.4 (5da689c313, 2019-01-14)"
   sodipodi:docname="icon.svg">
  <defs
     id="defs1404" />
  <sodipodi:namedview
     id="base"
     pagecolor="#ffffff"
     bordercolor="#666666"
     borderopacity="1.0"
     inkscape:pageopacity="0.0"
     inkscape:pageshadow="2"
     inkscape:zoom="2.8"
     inkscape:cx="52.463367"
     inkscape:cy="114.04042"
     inkscape:document-units="mm"
     inkscape:current-layer="layer1"
     showgrid="false"
     units="px"
     inkscape:window-width="1920"
     inkscape:window-height="1017"
     inkscape:window-x="-8"
     inkscape:window-y="-8"
     inkscape:window-maximized="1" />
  <metadata
     id="metadata1407">
    <rdf:RDF>
      <cc:Work
         rdf:about="">
        <dc:format>image/svg+xml</dc:format>
        <dc:type
           rdf:resource="http://purl.org/dc/dcmitype/StillImage" />
        <dc:title></dc:title>
      </cc:Work>
    </rdf:RDF>
  </metadata>
  <g
     inkscape:label="Layer 1"
     inkscape:groupmode="layer"
     id="layer1"
     transform="translate(0,-257.31249)">
    <g
       transform="matrix(0.41255097,0,0,0.41255097,-170.3654,66.345975)"
       id="g3245">
      <path
         inkscape:connector-curvature="0"
         d="m 489.08132,543.41866 c 3.872,6.70415 4.31333,13.69582 3.56533,14.12811 -0.75066,0.43177 -4.49466,-4.65104 -8.36533,-11.35469 -3.86933,-6.70262 -6.4,-12.48702 -5.64933,-12.92142 0.74666,-0.43226 6.57866,3.44534 10.44933,10.148"
         style="fill:#64c4b3;fill-opacity:1;fill-rule:nonzero;stroke:none;stroke-width:0.13333333"
         id="path136" />
      <path
         inkscape:connector-curvature="0"
         d="m 433.48932,543.41866 c -3.872,6.70415 -4.31333,13.69582 -3.56666,14.12811 0.752,0.43177 4.49466,-4.65104 8.36666,-11.35469 3.86934,-6.70262 6.4,-12.48702 5.64934,-12.92142 -0.74667,-0.43226 -6.57867,3.44534 -10.44934,10.148"
         style="fill:#64c4b3;fill-opacity:1;fill-rule:nonzero;stroke:none;stroke-width:0.13333333"
         id="path138" />
      <path
         inkscape:connector-curvature="0"
         d="m 462.49199,485.30667 h -2.41333 v -6.888 h 2.41333 v 6.888"
         style="fill:#785842;fill-opacity:1;fill-rule:nonzero;stroke:none;stroke-width:0.13333333"
         id="path140" />
      <path
         inkscape:connector-curvature="0"
         d="m 423.15199,482.1228 c 0,1.75987 -1.42533,3.18387 -3.18133,3.18387 -1.76,0 -3.18534,-1.424 -3.18534,-3.18387 0,-1.7588 1.42534,-3.1828 3.18534,-3.1828 1.756,0 3.18133,1.424 3.18133,3.1828"
         style="fill:#fa6666;fill-opacity:1;fill-rule:nonzero;stroke:none;stroke-width:0.13333333"
         id="path142" />
      <path
         inkscape:connector-curvature="0"
         d="m 499.41732,482.1228 c 0,1.75987 1.42667,3.18387 3.18267,3.18387 1.76,0 3.18533,-1.424 3.18533,-3.18387 0,-1.7588 -1.42533,-3.1828 -3.18533,-3.1828 -1.756,0 -3.18267,1.424 -3.18267,3.1828"
         style="fill:#fa6666;fill-opacity:1;fill-rule:nonzero;stroke:none;stroke-width:0.13333333"
         id="path144" />
      <path
         inkscape:connector-curvature="0"
         d="m 434.08532,496.70506 -6.39066,-6.39053 1.70533,-1.7052 6.392,6.39053 -1.70667,1.7052"
         style="fill:#785842;fill-opacity:1;fill-rule:nonzero;stroke:none;stroke-width:0.13333333"
         id="path146" />
      <path
         inkscape:connector-curvature="0"
         d="m 488.48399,496.70506 -1.70534,-1.7052 6.392,-6.39053 1.70534,1.7052 -6.392,6.39053"
         style="fill:#785842;fill-opacity:1;fill-rule:nonzero;stroke:none;stroke-width:0.13333333"
         id="path148" />
      <path
         inkscape:connector-curvature="0"
         d="m 488.83732,487.516 h -2.41067 v -12.64947 c 0,-2.48906 -1.82533,-4.7104 -4.76266,-5.80413 -4.736,-1.75987 -15.28,-2.69587 -21.07333,-2.69587 -5.26267,0 -15.23334,1.20947 -19.72267,2.70947 -2.60533,0.87187 -4.72533,3.46813 -4.72533,5.79053 V 487.516 h -2.40934 v -12.64947 c 0,-3.86146 3.28134,-7.04373 6.36934,-8.0744 5.17333,-1.7324 15.59066,-2.83853 20.488,-2.83853 4.968,0 16.49733,0.83587 21.91599,2.84893 3.84534,1.4296 6.33067,4.59627 6.33067,8.064 V 487.516"
         style="fill:#785842;fill-opacity:1;fill-rule:nonzero;stroke:none;stroke-width:0.13333333"
         id="path150" />
      <path
         inkscape:connector-curvature="0"
         d="m 498.04265,519.69733 c 0,20.3 -16.45733,36.75569 -36.75733,36.75569 -20.30133,0 -36.75733,-16.45569 -36.75733,-36.75569 0,-20.29853 16.456,-36.75466 36.75733,-36.75466 20.3,0 36.75733,16.45613 36.75733,36.75466"
         style="fill:#fa6666;fill-opacity:1;fill-rule:nonzero;stroke:none;stroke-width:0.13333333"
         id="path152" />
      <path
         inkscape:connector-curvature="0"
         d="m 489.19732,519.69733 c 0,15.41453 -12.49733,27.91193 -27.912,27.91193 -15.41466,0 -27.91333,-12.4974 -27.91333,-27.91193 0,-15.4136 12.49867,-27.9104 27.91333,-27.9104 15.41467,0 27.912,12.4968 27.912,27.9104"
         style="fill:#ffffff;fill-opacity:1;fill-rule:nonzero;stroke:none;stroke-width:0.13333333"
         id="path154" />
      <path
         inkscape:connector-curvature="0"
         d="m 461.28532,492.99213 c -14.72533,0 -26.70533,11.97853 -26.70533,26.7052 0,14.72387 11.98,26.70673 26.70533,26.70673 14.72533,0 26.70533,-11.98286 26.70533,-26.70673 0,-14.72667 -11.98,-26.7052 -26.70533,-26.7052 z m 0,55.82235 c -16.05733,0 -29.11733,-13.06248 -29.11733,-29.11715 0,-16.05467 13.06,-29.11613 29.11733,-29.11613 16.05733,0 29.11733,13.06146 29.11733,29.11613 0,16.05467 -13.06,29.11715 -29.11733,29.11715"
         style="fill:#785842;fill-opacity:1;fill-rule:nonzero;stroke:none;stroke-width:0.13333333"
         id="path156" />
      <path
         inkscape:connector-curvature="0"
         d="m 457.57199,501.81453 h 1.236 v -3.512 l 0.13333,-0.60787 -0.42533,0.52654 -0.792,0.5412 -0.48933,-0.66667 2.02933,-1.63693 h 0.64933 v 5.35573 h 1.20934 v 0.98013 h -3.55067 v -0.98013"
         style="fill:#785842;fill-opacity:1;fill-rule:nonzero;stroke:none;stroke-width:0.13333333"
         id="path158" />
      <path
         inkscape:connector-curvature="0"
         d="m 465.20132,498.08786 c 0,0.30267 -0.056,0.6068 -0.16533,0.91467 -0.108,0.30933 -0.248,0.612 -0.41733,0.90933 -0.16934,0.29587 -0.356,0.58027 -0.56,0.85627 -0.204,0.276 -0.404,0.53173 -0.60134,0.75987 l -0.472,0.36773 v 0.0443 l 0.64267,-0.12547 h 1.708 v 0.98013 h -3.744 v -0.6 c 0.14133,-0.14533 0.30133,-0.32026 0.47867,-0.5172 0.17733,-0.20146 0.35733,-0.40933 0.53866,-0.63333 0.18134,-0.22133 0.35734,-0.45107 0.528,-0.68693 0.17067,-0.24014 0.32534,-0.47707 0.464,-0.71987 0.13734,-0.23853 0.244,-0.4708 0.324,-0.69467 0.08,-0.22666 0.12,-0.44013 0.12,-0.64013 0,-0.24533 -0.0707,-0.44533 -0.20933,-0.60267 -0.14,-0.15573 -0.36,-0.23333 -0.66133,-0.23333 -0.192,0 -0.384,0.0385 -0.584,0.11613 -0.19867,0.0839 -0.36667,0.18547 -0.50267,0.30787 l -0.46267,-0.8172 c 0.232,-0.19067 0.49334,-0.34427 0.788,-0.4588 0.292,-0.11467 0.63867,-0.17187 1.036,-0.17187 0.25467,0 0.48934,0.0333 0.70267,0.10667 0.21333,0.0709 0.39867,0.17453 0.552,0.30947 0.15467,0.13586 0.27467,0.30773 0.364,0.51293 0.088,0.20427 0.13333,0.4428 0.13333,0.71613"
         style="fill:#785842;fill-opacity:1;fill-rule:nonzero;stroke:none;stroke-width:0.13333333"
         id="path160" />
      <path
         inkscape:connector-curvature="0"
         d="m 469.75599,519.69733 c 0,4.67707 -3.792,8.4692 -8.47067,8.4692 -4.67866,0 -8.472,-3.79213 -8.472,-8.4692 0,-4.67613 3.79334,-8.47093 8.472,-8.47093 4.67867,0 8.47067,3.7948 8.47067,8.47093"
         style="fill:#64c4b3;fill-opacity:1;fill-rule:nonzero;stroke:none;stroke-width:0.13333333"
         id="path162" />
      <path
         inkscape:connector-curvature="0"
         d="m 482.40265,521.89306 c 0.36667,0 0.648,-0.0957 0.84134,-0.2916 0.192,-0.1948 0.288,-0.43226 0.288,-0.71093 0,-0.33853 -0.10134,-0.588 -0.30134,-0.74787 -0.20266,-0.16146 -0.52,-0.23866 -0.95333,-0.23866 h -0.63867 v -0.61454 l 1.07334,-1.46973 0.508,-0.40107 -0.70267,0.0812 h -1.49333 v -0.976 h 3.39733 v 0.6292 l -1.25333,1.6828 -0.392,0.24014 v 0.0443 l 0.372,-0.0521 c 0.20933,0.0145 0.408,0.0651 0.59466,0.1396 0.184,0.0792 0.34667,0.188 0.488,0.33333 0.14,0.1468 0.24934,0.32547 0.33334,0.54014 0.0827,0.21093 0.124,0.4572 0.124,0.73586 0,0.35214 -0.056,0.6536 -0.17334,0.90934 -0.116,0.2548 -0.27466,0.46826 -0.48133,0.6376 -0.20267,0.1744 -0.44133,0.30253 -0.71733,0.38386 -0.27067,0.0828 -0.56534,0.12387 -0.87734,0.12387 -0.26266,0 -0.52933,-0.0224 -0.81066,-0.0692 -0.27867,-0.048 -0.504,-0.1172 -0.676,-0.20427 l 0.31066,-0.9624 c 0.15467,0.0776 0.32534,0.14014 0.512,0.18694 0.188,0.0464 0.39734,0.0703 0.628,0.0703"
         style="fill:#785842;fill-opacity:1;fill-rule:nonzero;stroke:none;stroke-width:0.13333333"
         id="path164" />
      <path
         inkscape:connector-curvature="0"
         d="m 462.24666,541.93733 c 0,-0.664 -0.328,-0.99467 -0.97867,-0.99467 -0.23867,0 -0.436,0.052 -0.6,0.1588 -0.164,0.10934 -0.27867,0.23174 -0.344,0.37454 -0.012,0.0651 -0.016,0.12226 -0.016,0.1692 0,0.0469 0,0.0948 0,0.14173 0,0.14213 0.0187,0.28373 0.0613,0.42387 0.0427,0.13853 0.10267,0.26253 0.18134,0.37186 0.0813,0.10947 0.184,0.20107 0.30933,0.26934 0.124,0.0667 0.272,0.1016 0.444,0.1016 0.27867,0 0.504,-0.0964 0.68,-0.28707 0.17333,-0.188 0.26267,-0.43173 0.26267,-0.7292 z m 1.12,-0.0599 c 0,0.28907 -0.0493,0.55987 -0.14667,0.80787 -0.0973,0.24947 -0.236,0.46507 -0.41333,0.65053 -0.17734,0.18534 -0.39334,0.32814 -0.64534,0.4348 -0.252,0.1068 -0.528,0.16094 -0.83066,0.16094 -0.30934,0 -0.592,-0.0489 -0.852,-0.14787 -0.256,-0.0959 -0.48,-0.24533 -0.67067,-0.4396 -0.19067,-0.19627 -0.336,-0.44267 -0.444,-0.73747 -0.108,-0.29733 -0.16133,-0.64013 -0.16133,-1.03333 0,-0.58693 0.0867,-1.1172 0.256,-1.59213 0.16933,-0.47347 0.396,-0.88814 0.68133,-1.2412 0.29067,-0.35214 0.62533,-0.636 1.008,-0.85214 0.38133,-0.21866 0.78533,-0.3624 1.21333,-0.43173 l 0.26,0.9156 c -0.29866,0.0469 -0.572,0.13907 -0.82,0.27613 -0.24933,0.13587 -0.46933,0.29734 -0.66266,0.48947 -0.192,0.18813 -0.356,0.40107 -0.48934,0.636 -0.13333,0.2344 -0.228,0.47453 -0.28,0.724 0.11734,-0.148 0.27067,-0.27347 0.464,-0.37707 0.188,-0.10426 0.42534,-0.15626 0.70934,-0.15626 0.26666,0 0.51333,0.0411 0.74,0.12386 0.224,0.0839 0.416,0.2068 0.57866,0.37094 0.16,0.16146 0.284,0.36093 0.372,0.5984 0.088,0.23746 0.13334,0.51093 0.13334,0.82026"
         style="fill:#785842;fill-opacity:1;fill-rule:nonzero;stroke:none;stroke-width:0.13333333"
         id="path166" />
      <path
         inkscape:connector-curvature="0"
         d="m 438.98266,518.12026 c 0,0.34107 0.0947,0.5932 0.284,0.76507 0.19066,0.17187 0.428,0.25733 0.712,0.25733 0.24266,0 0.44266,-0.0387 0.596,-0.11466 0.15466,-0.0776 0.27333,-0.1708 0.356,-0.2828 0.016,-0.12494 0.0267,-0.24534 0.0267,-0.35734 0,-0.16666 -0.0227,-0.32813 -0.0627,-0.48906 -0.04,-0.16147 -0.104,-0.30307 -0.19067,-0.42814 -0.0853,-0.12386 -0.196,-0.2228 -0.33067,-0.29893 -0.132,-0.0735 -0.28933,-0.10933 -0.47466,-0.10933 -0.29067,0 -0.516,0.0907 -0.676,0.27866 -0.16,0.1896 -0.24,0.4484 -0.24,0.7792 z m -1.12134,0.0624 c 0,-0.30253 0.048,-0.5812 0.13867,-0.83586 0.0933,-0.25627 0.22533,-0.4724 0.4,-0.65467 0.176,-0.17867 0.388,-0.32293 0.63867,-0.4272 0.25466,-0.1036 0.544,-0.15307 0.86933,-0.15307 0.672,0 1.196,0.19747 1.57733,0.59894 0.38267,0.40106 0.57467,0.98386 0.57467,1.75053 0,0.68387 -0.088,1.28133 -0.26267,1.78133 -0.17466,0.50254 -0.408,0.91867 -0.70133,1.25467 -0.29333,0.33333 -0.63467,0.59053 -1.01733,0.7676 -0.38667,0.17773 -0.79467,0.2844 -1.22,0.3204 l -0.24934,-0.9052 c 0.32534,-0.0428 0.61467,-0.12293 0.872,-0.24013 0.25467,-0.12027 0.47467,-0.2656 0.65867,-0.44267 0.18267,-0.17453 0.332,-0.37187 0.44667,-0.59333 0.11733,-0.22387 0.19866,-0.46134 0.24533,-0.71614 -0.14133,0.1532 -0.292,0.26 -0.45867,0.31987 -0.16266,0.0577 -0.38133,0.088 -0.652,0.088 -0.22666,0 -0.44933,-0.0385 -0.67333,-0.1172 -0.22267,-0.0745 -0.42,-0.1916 -0.59467,-0.35053 -0.176,-0.15734 -0.31733,-0.35467 -0.42666,-0.59734 -0.10934,-0.23853 -0.16534,-0.52293 -0.16534,-0.848"
         style="fill:#785842;fill-opacity:1;fill-rule:nonzero;stroke:none;stroke-width:0.13333333"
         id="path168" />
      <path
         inkscape:connector-curvature="0"
         d="m 443.87732,481.0212 c 0.44534,-0.49573 -1.51733,-2.6468 -2.15866,-2.8104 0,0 -11.236,-7.51867 -21.852,4.34893 -10.68667,11.95107 -1.89467,22.19747 -1.89467,22.19747 0.236,0.62293 2.58933,2.33066 3.032,1.83586 l 22.87333,-25.57186"
         style="fill:#64c4b3;fill-opacity:1;fill-rule:nonzero;stroke:none;stroke-width:0.13333333"
         id="path170" />
      <path
         inkscape:connector-curvature="0"
         d="m 478.69332,481.0212 c -0.44533,-0.49573 1.51733,-2.6468 2.15867,-2.8104 0,0 11.23466,-7.51867 21.85066,4.34893 10.688,11.95107 1.896,22.19747 1.896,22.19747 -0.23733,0.62293 -2.58933,2.33066 -3.032,1.83586 L 478.69332,481.0212"
         style="fill:#64c4b3;fill-opacity:1;fill-rule:nonzero;stroke:none;stroke-width:0.13333333"
         id="path172" />
      <path
         inkscape:connector-curvature="0"
         d="m 466.99999,477.74267 c 0,1.04106 -1.10667,1.8828 -2.472,1.8828 h -6.484 c -1.36533,0 -2.472,-0.84174 -2.472,-1.8828 v 0 c 0,-1.04014 1.10667,-1.88134 2.472,-1.88134 h 6.484 c 1.36533,0 2.472,0.8412 2.472,1.88134 v 0"
         style="fill:#785842;fill-opacity:1;fill-rule:nonzero;stroke:none;stroke-width:0.13333333"
         id="path174" />
      <path
         inkscape:connector-curvature="0"
         d="m 464.85866,514.552 c -4.91067,4.83586 -8.56134,9.088 -8.152,9.50253 0.40666,0.41613 4.716,-3.1692 9.62533,-8.00253 4.91066,-4.83334 8.55866,-9.08547 8.15333,-9.5 -0.408,-0.41614 -4.71867,3.16666 -9.62666,8"
         style="fill:#fa6666;fill-opacity:1;fill-rule:nonzero;stroke:none;stroke-width:0.13333333"
         id="path176" />
      <path
         inkscape:connector-curvature="0"
         d="m 459.15599,515.3572 c 3.76133,4.2468 6.30933,8.13493 5.68133,8.6896 -0.62533,0.55466 -4.184,-2.44014 -7.94533,-6.6828 -3.76,-4.24374 -6.30533,-8.13494 -5.68267,-8.68654 0.62667,-0.55466 4.18267,2.43707 7.94667,6.67974"
         style="fill:#fa6666;fill-opacity:1;fill-rule:nonzero;stroke:none;stroke-width:0.13333333"
         id="path178" />
      <path
         inkscape:connector-curvature="0"
         d="m 459.22799,519.69213 c 0,1.0916 0.88667,1.97707 1.98,1.97707 1.092,0 1.97733,-0.88547 1.97733,-1.97707 0,-1.09067 -0.88533,-1.97867 -1.97733,-1.97867 -1.09333,0 -1.98,0.888 -1.98,1.97867"
         style="fill:#785842;fill-opacity:1;fill-rule:nonzero;stroke:none;stroke-width:0.13333333"
         id="path180" />
      <path
         inkscape:connector-curvature="0"
         d="m 451.69732,502.0572 c 0.876,1.51613 1.38534,2.85733 1.136,3 -0.24933,0.14266 -1.156,-0.96934 -2.03066,-2.4812 -0.87467,-1.51627 -1.38534,-2.86 -1.136,-3.00267 0.24933,-0.14427 1.15733,0.96773 2.03066,2.48387"
         style="fill:#785842;fill-opacity:1;fill-rule:nonzero;stroke:none;stroke-width:0.13333333"
         id="path182" />
      <path
         inkscape:connector-curvature="0"
         d="m 444.16266,509.21346 c 1.51333,0.8744 2.62533,1.7812 2.48133,2.03174 -0.14267,0.24693 -1.484,-0.26147 -3,-1.13587 -1.51333,-0.87453 -2.628,-1.78133 -2.484,-2.0308 0.144,-0.25053 1.48667,0.26253 3.00267,1.13493"
         style="fill:#785842;fill-opacity:1;fill-rule:nonzero;stroke:none;stroke-width:0.13333333"
         id="path184" />
      <path
         inkscape:connector-curvature="0"
         d="m 443.64399,529.28373 c 1.516,-0.8744 2.85733,-1.38227 3,-1.13333 0.144,0.2484 -0.968,1.1536 -2.48267,2.02973 -1.51466,0.8744 -2.85733,1.38533 -3.00133,1.1344 -0.144,-0.2464 0.97067,-1.15573 2.484,-2.0308"
         style="fill:#785842;fill-opacity:1;fill-rule:nonzero;stroke:none;stroke-width:0.13333333"
         id="path186" />
      <path
         inkscape:connector-curvature="0"
         d="m 450.80132,536.81973 c 0.87467,-1.51573 1.78267,-2.6276 2.032,-2.48387 0.24934,0.14534 -0.26133,1.48387 -1.13733,3 -0.872,1.51614 -1.78,2.63067 -2.02933,2.48387 -0.24934,-0.1396 0.26133,-1.48387 1.13466,-3"
         style="fill:#785842;fill-opacity:1;fill-rule:nonzero;stroke:none;stroke-width:0.13333333"
         id="path188" />
      <path
         inkscape:connector-curvature="0"
         d="m 470.87065,537.3384 c -0.87466,-1.5156 -1.384,-2.8572 -1.13333,-3.00254 0.24667,-0.14373 1.15467,0.96814 2.02933,2.48387 0.87467,1.51613 1.38534,2.8604 1.13734,3 -0.24934,0.1468 -1.15734,-0.96773 -2.03334,-2.48133"
         style="fill:#785842;fill-opacity:1;fill-rule:nonzero;stroke:none;stroke-width:0.13333333"
         id="path190" />
      <path
         inkscape:connector-curvature="0"
         d="m 478.40665,530.18013 c -1.51333,-0.87347 -2.62533,-1.78133 -2.48266,-2.03227 0.144,-0.2464 1.48533,0.264 2.99866,1.13907 1.51734,0.87187 2.63067,1.7812 2.488,2.0276 -0.144,0.25093 -1.48933,-0.26 -3.004,-1.1344"
         style="fill:#785842;fill-opacity:1;fill-rule:nonzero;stroke:none;stroke-width:0.13333333"
         id="path192" />
      <path
         inkscape:connector-curvature="0"
         d="m 478.92265,510.11186 c -1.512,0.87187 -2.85333,1.3828 -3,1.13334 -0.14133,-0.24787 0.97067,-1.15467 2.48534,-2.0292 1.51333,-0.8776 2.85733,-1.388 3.00266,-1.13747 0.144,0.24693 -0.972,1.15627 -2.488,2.03333"
         style="fill:#785842;fill-opacity:1;fill-rule:nonzero;stroke:none;stroke-width:0.13333333"
         id="path194" />
      <path
         inkscape:connector-curvature="0"
         d="m 471.76799,502.576 c -0.87467,1.51186 -1.78267,2.62386 -2.03334,2.4812 -0.24666,-0.14267 0.26267,-1.4812 1.13734,-2.99747 0.87466,-1.51867 1.78266,-2.63067 2.032,-2.4864 0.248,0.14013 -0.26267,1.48387 -1.136,3.00267"
         style="fill:#785842;fill-opacity:1;fill-rule:nonzero;stroke:none;stroke-width:0.13333333"
         id="path196" />
    </g>
  </g>
</svg>
