<?xml version="1.0" encoding="utf-8"?>
<!DOCTYPE svg PUBLIC "-//W3C//DTD SVG 1.1//EN" "http://www.w3.org/Graphics/SVG/1.1/DTD/svg11.dtd">
<svg version="1.1" id="Слой_1" xmlns="http://www.w3.org/2000/svg" xmlns:xlink="http://www.w3.org/1999/xlink" x="0px" y="0px"
	 width="150px" height="150px" viewBox="0 0 150 150" enable-background="new 0 0 150 150" xml:space="preserve">
<linearGradient id="SVGID_1_" gradientUnits="userSpaceOnUse" x1="0" y1="114.3951" x2="150" y2="114.3951">
	<stop  offset="0" style="stop-color:#FBED5C"/>
	<stop  offset="0.0454" style="stop-color:#F1E74A"/>
	<stop  offset="0.1442" style="stop-color:#DEDD26"/>
	<stop  offset="0.2315" style="stop-color:#D2D800"/>
	<stop  offset="0.2978" style="stop-color:#CED600"/>
	<stop  offset="0.9775" style="stop-color:#6BB530"/>
	<stop  offset="1" style="stop-color:#6BB530"/>
</linearGradient>
<path fill="url(#SVGID_1_)" d="M129.3,82.8c-9.9,4.8-18.9,9.9-28.5,15.9c-8.4,5.25-17.25,8.4-26.85,9.15c-8.55,0.75-17.1,0.9-25.8,0
	c-8.4-0.9-16.8-1.8-25.2-2.7c-7.668-0.742-15.234-0.87-22.95-0.305V150h150V78.791c-4.481-0.014-9.005,0.344-13.65,1.309
	C133.8,80.7,131.55,81.75,129.3,82.8z"/>
<linearGradient id="SVGID_2_" gradientUnits="userSpaceOnUse" x1="0" y1="54.235" x2="150" y2="54.235">
	<stop  offset="0" style="stop-color:#C7D9F1"/>
	<stop  offset="1" style="stop-color:#6089C6"/>
</linearGradient>
<path fill="url(#SVGID_2_)" d="M0,0v104.845c7.716-0.566,15.282-0.437,22.95,0.305c8.4,0.9,16.8,1.8,25.2,2.7
	c8.7,0.9,17.25,0.75,25.8,0c9.6-0.75,18.45-3.9,26.85-9.15c9.6-6,18.6-11.1,28.5-15.9c2.25-1.05,4.5-2.1,7.05-2.7
	c4.645-0.965,9.169-1.323,13.65-1.309V0H0z"/>
<g>
	<path fill="#3AAA35" d="M20.733,122.404C15,118.05,9.3,113.7,8.55,105.6C14.7,108.9,20.474,116.698,20.733,122.404z"/>
	<path fill="#3AAA35" d="M23.271,97.52C27,91.35,31.2,87,35.85,87C33.75,92.1,29.592,95.59,23.271,97.52z"/>
	<path fill="#3AAA35" d="M25.206,150c-4.666-30.722-2.604-66.277,4.644-98.846c-1.1-0.3-0.284-0.182-1.357-0.182
		C22.512,84.687,17.17,111.676,23.469,150H25.206z"/>
	<g>
		<path fill="#FFFFFF" d="M28.493,48.215c2.329-9.354,4.098-20.737,0-20.737C23.75,27.478,26.164,38.861,28.493,48.215"/>
		<path fill="#FFFFFF" d="M27.641,48.349c-0.675-9.616-2.51-20.988-6.408-19.722C16.722,30.093,22.535,40.173,27.641,48.349"/>
		<path fill="#FFFFFF" d="M26.848,48.759C22.823,40.122,17.25,30.1,14.66,31.982C11.662,34.16,19.878,42.261,26.848,48.759"/>
		<path fill="#FFFFFF" d="M26.262,49.351c-6.198-7.382-14.368-15.504-16.776-12.189C6.698,41,17.326,45.738,26.262,49.351"/>
		<path fill="#FFFFFF" d="M25.871,50.12C17.696,45.01,7.417,39.808,6.149,43.712C4.681,48.23,16.254,49.448,25.871,50.12"/>
		<path fill="#FFFFFF" d="M25.736,50.994c-9.354-1.948-20.737-3.426-20.737,0C4.999,54.96,16.382,52.942,25.736,50.994"/>
		<path fill="#FFFFFF" d="M25.881,51.856c-9.435,1.23-20.671,3.487-19.722,6.408C7.258,61.645,17.525,56.407,25.881,51.856"/>
		<path fill="#FFFFFF" d="M26.262,52.593c-8.936,3.613-19.185,8.873-16.776,12.189C12.274,68.619,20.064,59.975,26.262,52.593"/>
		<path fill="#FFFFFF" d="M26.886,53.213c-7.147,6.369-15.09,14.669-12.189,16.776C18.055,72.428,23.037,61.978,26.886,53.213"/>
		<path fill="#FFFFFF" d="M27.641,53.594c-5.106,8.176-10.306,18.455-6.408,19.722C25.744,74.782,26.966,63.21,27.641,53.594"/>
		<path fill="#FFFFFF" d="M28.493,53.729c-2.329,9.354-4.098,20.737,0,20.737C33.237,74.466,30.823,63.083,28.493,53.729"/>
		<path fill="#FFFFFF" d="M29.369,53.586c1.082,9.483,3.226,20.756,6.408,19.722C39.459,72.112,34.068,61.895,29.369,53.586"/>
		<path fill="#FFFFFF" d="M30.114,53.202c3.613,8.937,8.873,19.185,12.189,16.776C46.14,67.191,37.496,59.401,30.114,53.202"/>
		<path fill="#FFFFFF" d="M30.733,52.58c6.36,7.16,14.652,15.112,16.776,12.189C49.968,61.385,39.508,56.416,30.733,52.58"/>
		<path fill="#FFFFFF" d="M31.116,51.824c8.176,5.106,18.455,10.306,19.722,6.408C52.303,53.721,40.731,52.499,31.116,51.824"/>
		<path fill="#FFFFFF" d="M31.251,50.947c9.354,1.914,20.737,3.367,20.737,0C51.987,47.05,40.604,49.034,31.251,50.947"/>
		<path fill="#FFFFFF" d="M31.115,50.12c9.616-0.675,20.988-2.51,19.722-6.408C49.371,39.201,39.292,45.014,31.115,50.12"/>
		<path fill="#FFFFFF" d="M30.704,49.324c8.596-4.082,18.587-9.697,16.776-12.189C45.385,34.251,37.242,42.41,30.704,49.324"/>
		<path fill="#FFFFFF" d="M29.915,48.954c7.209-6.269,15.274-14.438,12.547-16.51C39.306,30.045,34.025,40.329,29.915,48.954"/>
		<path fill="#FFFFFF" d="M29.345,48.349c5.106-8.176,10.306-18.455,6.408-19.722C31.242,27.162,30.02,38.734,29.345,48.349"/>
		<radialGradient id="SVGID_3_" cx="26.8483" cy="48.7585" r="8.7027" gradientUnits="userSpaceOnUse">
			<stop  offset="0" style="stop-color:#FFE400"/>
			<stop  offset="1" style="stop-color:#DEAD18"/>
		</radialGradient>
		<circle fill="url(#SVGID_3_)" cx="28.493" cy="50.972" r="4.399"/>
	</g>
</g>
<g>
	<path fill="#3AAA35" d="M58.5,115.5c3.813-7.043,4.65-9.15,8.55-11.1C65.85,110.55,63.6,112.5,58.5,115.5z"/>
	<path fill="#3AAA35" d="M60.23,134.572c-6.126-6.126-7.28-6.772-8.63-13.072C56.85,125.1,58.314,129.497,60.23,134.572z"/>
	<path fill="#3AAA35" d="M59.437,129.216c0.684,6.9,1.105,13.84,1.229,20.784h1.251c-0.191-7.01-0.648-14.006-1.337-20.956
		c-0.649-6.787-1.502-13.535-2.285-20.274c-0.764-6.733-1.505-13.495-1.397-20.214c-0.19-6.719,0.475-10.061,0.159-10.148
		c-0.175-0.083-1.366,3.174-1.695,10.128c0.022,6.935,0.872,13.725,1.699,20.466C57.909,115.744,58.791,122.462,59.437,129.216z"/>
	<g>
		<path fill="#FFFFFF" d="M56.854,76.997c3.896-3.104,8.2-7.216,6.519-8.505C61.428,67.001,58.839,72.429,56.854,76.997"/>
		<path fill="#FFFFFF" d="M56.462,76.785c2.746-4.156,5.568-9.397,3.572-10.103C57.723,65.865,56.938,71.826,56.462,76.785"/>
		<path fill="#FFFFFF" d="M56.009,76.703c1.064-4.808,1.929-10.67,0.275-10.712C54.369,65.942,55.193,71.847,56.009,76.703"/>
		<path fill="#FFFFFF" d="M55.582,76.762c-0.221-4.976-1.018-10.875-3.049-10.273C50.183,67.187,53.053,72.471,55.582,76.762"/>
		<path fill="#FFFFFF" d="M55.18,76.954c-1.747-4.665-4.327-10.03-6.074-8.828C47.083,69.518,51.447,73.656,55.18,76.954"/>
		<path fill="#FFFFFF" d="M54.85,77.27c-3.224-3.739-7.428-7.924-8.505-6.519C45.098,72.378,50.401,75.129,54.85,77.27"/>
		<path fill="#FFFFFF" d="M54.638,77.67c-4.256-2.462-9.574-5.068-10.103-3.572C43.923,75.83,49.781,76.909,54.638,77.67"/>
		<path fill="#FFFFFF" d="M54.563,78.092c-4.801-1.327-10.658-2.392-10.712-0.275C43.788,80.267,49.7,79.171,54.563,78.092"/>
		<path fill="#FFFFFF" d="M54.624,78.542c-4.933,0.365-10.8,1.272-10.273,3.049C44.961,83.647,50.29,80.927,54.624,78.542"/>
		<path fill="#FFFFFF" d="M54.814,78.936c-4.664,1.748-10.028,4.329-8.828,6.074C47.375,87.029,51.514,82.667,54.814,78.936"/>
		<path fill="#FFFFFF" d="M55.121,79.259c-3.896,3.104-8.2,7.216-6.519,8.505C50.547,89.255,53.136,83.827,55.121,79.259"/>
		<path fill="#FFFFFF" d="M55.525,79.476c-2.537,4.229-5.202,9.526-3.572,10.103C53.839,90.246,54.84,84.36,55.525,79.476"/>
		<path fill="#FFFFFF" d="M55.951,79.553c-1.327,4.801-2.392,10.658-0.275,10.712C58.126,90.328,57.03,84.415,55.951,79.553"/>
		<path fill="#FFFFFF" d="M56.401,79.492c0.358,4.935,1.259,10.804,3.049,10.273C61.521,89.15,58.794,83.823,56.401,79.492"/>
		<path fill="#FFFFFF" d="M56.795,79.302c1.748,4.664,4.329,10.028,6.074,8.828C64.888,86.74,60.526,82.602,56.795,79.302"/>
		<path fill="#FFFFFF" d="M57.126,78.985c3.234,3.725,7.446,7.9,8.505,6.519C66.856,83.906,61.564,81.14,57.126,78.985"/>
		<path fill="#FFFFFF" d="M57.331,78.603c4.156,2.746,9.397,5.568,10.103,3.572C68.251,79.864,62.289,79.079,57.331,78.603"/>
		<path fill="#FFFFFF" d="M57.412,78.147c4.809,1.028,10.671,1.866,10.712,0.275C68.172,76.581,62.267,77.367,57.412,78.147"/>
		<path fill="#FFFFFF" d="M57.205,77.748c4.928-0.305,10.803-1.12,10.336-2.827C67,72.945,61.602,75.502,57.205,77.748"/>
		<path fill="#FFFFFF" d="M57.161,77.32c4.664-1.748,10.028-4.329,8.828-6.074C64.6,69.227,60.461,73.589,57.161,77.32"/>
		
			<radialGradient id="SVGID_4_" cx="55.1858" cy="78.8246" r="4.4971" gradientTransform="matrix(0.9999 -0.0128 0.0128 0.9999 -1.0663 -1.115)" gradientUnits="userSpaceOnUse">
			<stop  offset="0" style="stop-color:#FFE400"/>
			<stop  offset="1" style="stop-color:#DEAD18"/>
		</radialGradient>
		<circle fill="url(#SVGID_4_)" cx="55.987" cy="78.128" r="2.273"/>
	</g>
</g>
<g>
	<path fill="#3AAA35" d="M97.05,127.75c3.5-6.6,5.1-11.2,11.5-13.2C106.55,121.95,102.85,125.35,97.05,127.75z"/>
	<path fill="#3AAA35" d="M93.218,150h1.719c2.27-20.321,4.138-40.737,3.679-61.359c-0.629-6.622-1.43-9.848-1.738-9.799
		c-0.372,0.054-0.258,3.359-0.32,9.919C97.549,109.193,95.791,129.679,93.218,150z"/>
	<g>
		<path fill="#FFFFFF" d="M96.333,76.708c-1.074-7.955-3.206-17.31-6.378-16.049C86.283,62.118,91.653,70.185,96.333,76.708"/>
		<path fill="#FFFFFF" d="M95.715,77.074c-3.48-7.234-8.398-15.472-11.025-13.293C81.649,66.304,89.248,72.317,95.715,77.074"/>
		<path fill="#FFFFFF" d="M95.227,77.635c-5.772-5.446-13.167-11.488-14.593-9.235C78.983,71.007,87.834,74.75,95.227,77.635"/>
		<path fill="#FFFFFF" d="M94.956,78.274C87.888,74.466,79.067,70.693,78.223,74C77.245,77.827,86.928,78.226,94.956,78.274"/>
		<path fill="#FFFFFF" d="M94.889,78.989c-7.899-1.44-17.453-2.305-17.235,1.106C77.908,84.044,87.239,81.427,94.889,78.989"/>
		<path fill="#FFFFFF" d="M95.053,79.707c-7.838,1.37-17.103,3.726-16.049,6.378C80.224,89.154,88.413,84.091,95.053,79.707"/>
		<path fill="#FFFFFF" d="M95.431,80.33c-6.924,3.854-14.926,9.056-13.293,11.025C84.028,93.633,90.363,86.421,95.431,80.33"/>
		<path fill="#FFFFFF" d="M95.953,80.782c-5.805,5.545-12.119,12.768-9.235,14.593C90.055,97.488,93.426,88.402,95.953,80.782"/>
		<path fill="#FFFFFF" d="M96.626,81.07c-3.572,7.127-7.167,15.994-4.274,16.733C95.701,98.658,96.343,89.038,96.626,81.07"/>
		<path fill="#FFFFFF" d="M97.328,81.133c-1.437,7.898-2.3,17.453,1.106,17.234C102.376,98.115,99.762,88.783,97.328,81.133"/>
		<path fill="#FFFFFF" d="M98.029,80.976c1.074,7.956,3.206,17.309,6.378,16.049C108.077,95.566,102.708,87.498,98.029,80.976"/>
		<path fill="#FFFFFF" d="M98.663,80.596c3.754,7.007,8.88,15.071,11.025,13.293C112.17,91.83,104.854,85.581,98.663,80.596"/>
		<path fill="#FFFFFF" d="M99.121,80.07c5.545,5.805,12.768,12.119,14.593,9.235C115.827,85.967,106.741,82.596,99.121,80.07"/>
		<path fill="#FFFFFF" d="M99.409,79.397c7.124,3.585,15.988,7.189,16.733,4.273C117.004,80.296,107.379,79.667,99.409,79.397"/>
		<path fill="#FFFFFF" d="M99.472,78.695c7.898,1.437,17.453,2.3,17.234-1.107C116.453,73.646,107.122,76.26,99.472,78.695"/>
		<path fill="#FFFFFF" d="M99.307,77.975c7.828-1.395,17.084-3.772,16.049-6.378C114.157,68.581,105.958,73.617,99.307,77.975"/>
		<path fill="#FFFFFF" d="M98.948,77.376c7.234-3.48,15.472-8.398,13.293-11.025C109.719,63.31,103.705,70.91,98.948,77.376"/>
		<path fill="#FFFFFF" d="M98.384,76.886c5.398-5.803,11.403-13.222,9.235-14.593C105.111,60.706,101.318,69.524,98.384,76.886"/>
		<path fill="#FFFFFF" d="M97.661,76.843c3.651-7.069,7.38-15.872,4.632-16.637C99.113,59.32,98.188,68.904,97.661,76.843"/>
		<path fill="#FFFFFF" d="M97.033,76.55c1.437-7.898,2.3-17.453-1.106-17.234C91.985,59.569,94.598,68.901,97.033,76.55"/>
		
			<radialGradient id="SVGID_5_" cx="100.3908" cy="59.136" r="7.2479" gradientTransform="matrix(0.9886 -0.1503 0.1503 0.9886 -12.5852 33.8523)" gradientUnits="userSpaceOnUse">
			<stop  offset="0" style="stop-color:#FFE400"/>
			<stop  offset="1" style="stop-color:#DEAD18"/>
		</radialGradient>
		<circle fill="url(#SVGID_5_)" cx="97.181" cy="78.842" r="3.663"/>
	</g>
</g>
<g>
	<path fill="#3AAA35" d="M131.86,136.063c2.09-4.113,5.29-7.413,8.39-7.413C138.85,132.05,134.97,136.063,131.86,136.063z"/>
	<path fill="#3AAA35" d="M130.79,144.146c-1.94-2.796-3.84-3.396-5.74-2.796C125.05,142.85,127.13,143.642,130.79,144.146z"/>
	<path fill="#3AAA35" d="M131.611,150c-0.015-2.423,0.002-4.848,0.049-7.27c0.174-9.915,0.935-19.78,1.756-29.665
		c0.175-4.979-0.015-7.503-0.209-7.495c-0.182,0.006-0.366,2.457-0.913,7.37c-0.633,9.887-1.304,19.815-1.479,29.764
		c-0.047,2.431-0.07,4.864-0.067,7.297H131.611z"/>
	<g>
		<path fill="#FFFFFF" d="M133.8,106.55c3.71-4.2,7.675-9.597,5.561-10.696C136.914,94.581,135.107,101.1,133.8,106.55"/>
		<path fill="#FFFFFF" d="M133.324,106.391c2.23-5.141,4.333-11.499,1.983-11.891C132.588,94.046,132.883,100.804,133.324,106.391"
			/>
		<path fill="#FFFFFF" d="M132.806,106.389c0.24-5.534,0.053-12.198-1.788-11.921C128.887,94.787,130.953,101.169,132.806,106.389"
			/>
		<path fill="#FFFFFF" d="M132.345,106.538c-1.217-5.47-3.253-11.85-5.385-10.786C124.493,96.984,128.704,102.277,132.345,106.538"
			/>
		<path fill="#FFFFFF" d="M131.937,106.829c-2.847-4.828-6.753-10.267-8.454-8.594C121.513,100.172,127.156,103.904,131.937,106.829
			"/>
		<path fill="#FFFFFF" d="M131.632,107.244c-4.302-3.513-9.777-7.328-10.696-5.561C119.873,103.729,126.285,105.74,131.632,107.244"
			/>
		<path fill="#FFFFFF" d="M131.476,107.728c-5.197-1.896-11.597-3.744-11.891-1.983
			C119.245,107.783,125.946,107.834,131.476,107.728"/>
		<path fill="#FFFFFF" d="M131.475,108.21c-5.578-0.533-12.275-0.568-11.922,1.788C119.963,112.725,126.299,110.355,131.475,108.21"
			/>
		<path fill="#FFFFFF" d="M131.631,108.697c-5.394,1.369-11.717,3.52-10.786,5.385C121.923,116.24,127.295,112.185,131.631,108.697"
			/>
		<path fill="#FFFFFF" d="M131.918,109.096c-4.826,2.848-10.265,6.756-8.594,8.454C125.258,119.516,128.991,113.875,131.918,109.096
			"/>
		<path fill="#FFFFFF" d="M132.321,109.394c-3.71,4.2-7.675,9.597-5.561,10.696C129.207,121.362,131.014,114.843,132.321,109.394"/>
		<path fill="#FFFFFF" d="M132.811,109.555c-1.985,5.182-3.902,11.571-1.983,11.891
			C133.048,121.817,133.007,115.101,132.811,109.555"/>
		<path fill="#FFFFFF" d="M133.299,109.557c-0.533,5.578-0.568,12.275,1.788,11.922C137.814,121.07,135.444,114.734,133.299,109.557
			"/>
		<path fill="#FFFFFF" d="M133.785,109.402c1.361,5.398,3.505,11.724,5.385,10.786C141.345,119.101,137.282,113.734,133.785,109.402
			"/>
		<path fill="#FFFFFF" d="M134.185,109.114c2.848,4.826,6.755,10.265,8.454,8.594C144.605,115.775,138.964,112.041,134.185,109.114"
			/>
		<path fill="#FFFFFF" d="M134.489,108.699c4.311,3.495,9.793,7.297,10.696,5.561C146.23,112.249,139.827,110.22,134.489,108.699"/>
		<path fill="#FFFFFF" d="M134.642,108.235c5.141,2.231,11.499,4.334,11.891,1.983C146.986,107.499,140.228,107.794,134.642,108.235
			"/>
		<path fill="#FFFFFF" d="M134.643,107.715c5.528,0.2,12.187-0.017,11.922-1.788C146.257,103.877,139.87,105.902,134.643,107.715"/>
		<path fill="#FFFFFF" d="M134.335,107.312c5.399-1.3,11.75-3.351,10.899-5.152C144.25,100.078,138.768,103.966,134.335,107.312"/>
		<path fill="#FFFFFF" d="M134.203,106.848c4.826-2.848,10.265-6.756,8.594-8.454C140.863,96.428,137.13,102.069,134.203,106.848"/>
		
			<radialGradient id="SVGID_6_" cx="82.575" cy="279.1323" r="5.059" gradientTransform="matrix(0.8873 0.4613 -0.4613 0.8873 188.3008 -179.3767)" gradientUnits="userSpaceOnUse">
			<stop  offset="0" style="stop-color:#FFE400"/>
			<stop  offset="1" style="stop-color:#DEAD18"/>
		</radialGradient>
		<circle fill="url(#SVGID_6_)" cx="133.061" cy="107.972" r="2.557"/>
	</g>
</g>
</svg>
