<?xml version="1.0" encoding="utf-8"?><!DOCTYPE svg PUBLIC "-//W3C//DTD SVG 1.1//EN" "http://www.w3.org/Graphics/SVG/1.1/DTD/svg11.dtd"><svg version="1.1" id="Слой_1" xmlns="http://www.w3.org/2000/svg" xmlns:xlink="http://www.w3.org/1999/xlink" x="0px" y="0px" width="150px" height="150px" viewBox="0 0 150 150" enable-background="new 0 0 150 150" xml:space="preserve"><g id="Слой_2"><polygon fill="#9D7A4D" points="0,27.911 150.005,36.451 150.005,150.215 0,150.215 "/></g><g id="Слой_12"><path fill="#7E613F" d="M12.094,62.153c4.007-3.487,16.969-13.455,16.969-13.455h6.188c0,0-13.688,11.28-20.251,20.142C9.02,76.916,0,92.366,0,92.366V73.835C0,73.835,8.855,64.972,12.094,62.153z"/></g><g id="Слой_12__x28_копия_x29_"><path fill="#7E613F" stroke="#7E613F" stroke-miterlimit="10" d="M27.563,89.063c2.39-8.711,16.313-41.493,16.313-41.493h4.875c0,0-8.286,30.148-10.313,44.796c-3.188,23.043-3.938,57.849-3.938,57.849H14.25C14.25,150.215,22.501,107.513,27.563,89.063z"/></g><g id="Слой_12__x28_копия2_x29_"><path fill="#7E613F" stroke="#7E613F" stroke-miterlimit="10" d="M62.627,88.123c-1.955-12.998-5-42.111-5-42.111l4.727,0.004c0,0,4.93,22.798,9.774,36.951c10,29.22,24.501,67.248,24.501,67.248H73.091C73.091,150.215,65.454,106.923,62.627,88.123z"/></g><g id="Слой_12__x28_копия3_x29_"><path fill="#7E613F" stroke="#7E613F" stroke-miterlimit="10" d="M100.378,82.752c-8.112-11.099-27.751-38.458-27.751-38.458l5.75,1.719c0,0,20.001,21.485,32.001,36.31c20.239,25.003,57.502,67.893,57.502,67.893h-23.538C144.343,150.215,115.682,103.69,100.378,82.752z"/></g><g id="Слой_12__x28_копия4_x29_"><path fill="#7E613F" stroke="#7E613F" stroke-miterlimit="10" d="M118.254,67.39c-11.206-8.35-29.376-21.378-29.376-21.378l6.5,0.967c0,0,13.689,8.328,30.001,18.262c13.753,8.376,24.626,16.436,24.626,16.436v13.536C150.005,95.213,139.88,83.504,118.254,67.39z"/></g><g id="Слой_17"><path fill="#8C9B27" stroke="#8C9B27" stroke-miterlimit="10" d="M1.625,132.167l1.125,14.287l1.125-18.262l1,17.618l1-13.751l1.5,13.858l1.75-15.577l1.5,14.18l3.125-15.469l-1,15.04l3.125-11.817l1.25,12.246l2.5-14.932v13.858l2.25-13.321l0.75,13.321l2.625-13.643v14.61c0,0,5-15.792,5.125-15.469s-1.25,15.469-1.25,15.469l3.375-13.643l0.5,12.676l0.875-12.354l1.75,10.742l2.5-11.817l1.375,14.073v-13.643l2.125,12.891l1.25-12.354l1.125,10.313l2.5-14.18l0.625,15.362c0,0,2.375-11.709,2.25-11.172c-0.125,0.537,0.875,13.321,0.875,13.321l1.625-11.602c0,0,2.75,11.924,2.875,10.85c0.125-1.074,1.125-12.354,1.125-12.354l1.25,9.024c0,0,4.125-10.957,4.25-10.313c0.125,0.645,2.25,14.18,2.25,14.18l2.125-12.139c0,0,1.5,10.85,1.875,10.635s1.125-13.428,1.125-13.428l3.875,12.247c0,0,0.625-10.85,0.625-10.528s1,8.916,1.25,9.239c0.25,0.322,2.5-9.883,2.625-9.239c0.125,0.645,1.125,9.561,1.125,9.561s3.625-10.206,3.375-9.239s-0.225,9.991,0.012,10.313c0.238,0.322,1.613-9.561,1.613-9.239s0.625,11.602,1.375,10.635c0.75-0.967,1.25-13.213,1.25-13.213l1.75,11.065l2.5-12.569v15.792l2-10.098v10.528l2.125-14.073l1.375,13.213l2.375-13.643l1,12.998l2.5-16.114c0,0-0.125,14.18,0,14.61c0.125,0.43,3-15.254,3-15.254l2,18.155l3.625-12.891l0.5,11.172l1.375-13.106l1.125,14.502l2.875-14.717v14.18l2.5-13.858l3.375,15.577v-14.287l2.25,13.321l2.125-14.825l-0.75,13.428l3.75-13.106l-0.75,12.676l4.126-11.219v14.979l2-14.717v10.742l2.125-13.428l2.751,13.374c0,0,2.999-14.126,2.374-12.944c-0.625,1.182,0.085,15.147,0.085,15.147l1.289-16.006l1.625,15.362l2.125-16.006l0.75,16.436l2.25-14.933v20.734H0L1.625,132.167z"/></g><g id="Слой_3"><linearGradient id="SVGID_1_" gradientUnits="userSpaceOnUse" x1="297.6025" y1="-193.9342" x2="297.6025" y2="-253.3942" gradientTransform="matrix(1 0 0 -1 -222.6 -193.9)"><stop  offset="0" style="stop-color:#1276BC"/><stop  offset="0.0859" style="stop-color:#0D7ABF"/><stop  offset="0.2182" style="stop-color:#0D83C6"/><stop  offset="0.3805" style="stop-color:#3494D1"/><stop  offset="0.5665" style="stop-color:#7AAEDE"/><stop  offset="0.7725" style="stop-color:#BBD1EE"/><stop  offset="0.9925" style="stop-color:#FEFFFF"/><stop  offset="1" style="stop-color:#FFFFFF"/></linearGradient><path fill="url(#SVGID_1_)" d="M0,0.034v56.721c0,0,38.802-9.51,75.003-9.346c35.626,0.161,75.003,12.085,75.003,12.085V0.034H0z"/></g><g id="Слой_4"><path fill="#BA8231" stroke="#BA8231" stroke-miterlimit="10" d="M130.755,46.012c7.776-0.517,19.251,0.653,19.251,0.653v12.829c0,0-13.751-3.706-19.198-4.908c-6.946-1.532-20.745-4.008-20.745-4.008S119.441,46.764,130.755,46.012z"/></g><g id="Слой_5"><path fill="#F2F7FA" stroke="#F2F7FA" stroke-miterlimit="10" d="M92.613,18.513c-1.455-0.61-2.67-2.526-2.658-5.075c0.018-3.772,4.724-3.806,4.724-3.806s1.33-2.563,4.429-4.06c1.956-0.945,4.134,0,4.134,0s1.197-3.045,4.134-3.045c5.782,0,6.201,3.806,6.201,3.806s3.05-1.787,5.906-0.508c5.796,2.596,5.119,4.914,4.926,6.939c-0.375,3.948-2.65,5.352-4.631,5.749C113.165,19.837,98.716,21.073,92.613,18.513z"/></g><g id="Слой_6"><path fill="#F2F7FA" stroke="#F2F7FA" stroke-miterlimit="10" d="M131.88,28.717c-0.848-10.207,9-8.057,9-8.057s0.037-4.727,4.375-6.016c1.132-0.336,4.75-0.537,4.75-0.537v27.608c0,0-2.375-0.537-3.375-2.149c-1.061-1.709,0.25-4.512,0.25-4.512S132.63,37.741,131.88,28.717z"/></g><g id="Слой_7"><path fill="#F2F7FA" stroke="#F2F7FA" stroke-miterlimit="10" d="M71.752,35.27c1.753-5.379,9-3.432,9-3.432s0.276-4.337,4.75-6.451c2.5-1.182,6.75,0.86,6.75,0.86s2.25-4.624,8.243-4.512c6.356,0.119,9.382,4.619,9.382,4.619s12.833-5.577,15.376,4.941c3.375,13.965-8.296,15.43-13.997,15.469c-9.284,0.064-28.586,0.677-37.005-2.686C71.86,43.123,70.002,40.641,71.752,35.27z"/></g><g id="Слой_9"><polygon fill="#A56B23" stroke="#A56B23" stroke-miterlimit="10" points="18.376,48.215 15.563,48.134 15.563,53.532 18.376,53.008 "/></g><g id="Слой_8"><path fill="#CD6715" stroke="#CD6715" stroke-miterlimit="10" d="M17.157,48.698C7.688,49.101-1.667,42.63,0.75,38.868c0.527-0.82,4.125-1.209,4.125-1.209s-5.18-6.791-3.75-8.46c1.045-1.219,7.313,1.128,7.313,1.128S3.483,19.915,6.375,18.404c4.781-2.498,7.406,4.19,7.406,4.19s1.98-6.404,6.938-5.318c4.781,1.047,2.156,10.152,2.156,10.152s3.853-1.879,6,1.047c2.719,3.706-3.938,8.943-3.938,8.943s2.719-0.645,3.938,0.806C31.351,41.169,29.71,48.164,17.157,48.698z"/></g><g id="Слой_11"><polygon fill="#A56B23" stroke="#A56B23" stroke-miterlimit="10" points="59.752,73.243 55.502,73.243 55.502,111.489 59.752,110.163 "/></g><g id="Слой_10"><path fill="#9B3334" stroke="#9B3334" stroke-miterlimit="10" d="M59.658,74.518c-19.569,1.76-44.13-34.449-33.368-42.566c3.708-2.796,17.358,5.903,17.358,5.903S26.609,9.962,34.042,4.922c5.768-3.911,24.605,13.515,24.605,13.515s1.517-14.758,7.752-14.758c15.167,0,12.134,17.555,12.134,17.555s8.258,1.087,9.437,11.03C89.435,44.606,80.387,72.654,59.658,74.518z"/></g><g></g><g></g><g></g><g></g><g></g><g></g></svg>