<svg xmlns="http://www.w3.org/2000/svg" width="500" height="387" viewBox="0 0 500 387" version="1.1">
	<path d="M 145.500 1.409 C 132.412 3.955, 101.261 18.306, 84 29.741 C 69.524 39.332, 46.069 58.047, 43.057 62.410 C 42.263 63.559, 38.958 67.512, 35.711 71.194 C 29.564 78.165, 27.796 80.826, 23.219 90 C 21.709 93.025, 19.531 97.075, 18.378 99 C 17.224 100.925, 15.237 105.757, 13.962 109.739 C 11.877 116.244, 11.757 117.591, 12.771 123.045 C 13.887 129.044, 13.858 129.190, 10.287 135.807 C 8.299 139.488, 6.135 143.175, 5.478 144 C 2.043 148.309, -0.477 170.853, 0.336 190 C 0.980 205.149, 2.725 217.037, 5.548 225.500 C 7.376 230.978, 8.953 244.479, 9.403 258.500 C 9.668 266.741, 10.042 268.212, 13.846 275.947 C 16.131 280.593, 18 285.022, 18 285.789 C 18 286.557, 18.788 288.186, 19.750 289.411 C 21.547 291.697, 21.724 302.582, 20.758 351.598 C 20.437 367.896, 20.296 367.728, 35.517 369.138 C 44.803 369.998, 46.627 369.887, 52.403 368.103 C 62.065 365.119, 67 362.340, 67 359.886 C 67 358.702, 67.802 357.603, 68.869 357.324 C 70.685 356.849, 70.687 356.670, 68.948 351.168 C 67.963 348.050, 66.389 343.987, 65.450 342.138 C 63.914 339.114, 63.871 337.880, 65.022 329.850 C 66.002 323.011, 66.036 319.704, 65.167 315.712 C 63.505 308.067, 63.429 303.393, 64.940 301.573 C 66.066 300.216, 66.018 299.678, 64.638 298.153 C 63.360 296.740, 63 294.231, 63 286.725 C 63 277.471, 63.150 276.818, 66.972 269.431 C 71.898 259.912, 78.260 251.370, 81.092 250.471 C 82.551 250.008, 86.379 251.180, 93.096 254.146 L 102.958 258.500 102.812 270.500 C 102.672 282.042, 102.842 283.092, 107.256 298 C 111.522 312.411, 113.572 320.699, 119.249 346.500 C 120.618 352.722, 121.447 359.900, 121.443 365.500 L 121.437 374.500 134.969 374.151 C 160.890 373.482, 159.943 373.623, 162.076 370.115 C 163.118 368.402, 164.146 367, 164.359 367 C 164.573 367, 166.717 368.079, 169.124 369.399 C 173.192 371.629, 173.839 371.709, 178.311 370.538 C 185.275 368.715, 186.175 367.399, 182.500 364.414 C 180.850 363.074, 177.102 361.214, 174.172 360.281 C 170.758 359.195, 167.793 357.390, 165.922 355.258 C 162.352 351.192, 162.281 350.218, 165.500 349.411 C 168.520 348.653, 168.568 348.034, 166.003 343.005 C 164.550 340.158, 164.027 337.237, 164.086 332.295 C 164.177 324.673, 163.008 318.632, 159.931 310.824 C 157.673 305.097, 157.680 300.395, 159.964 289.500 C 161.917 280.183, 161.479 280.510, 172.114 280.422 C 177.276 280.380, 183.075 279.848, 185 279.242 C 186.925 278.635, 190.975 277.868, 194 277.537 C 197.025 277.207, 202.330 276.446, 205.788 275.848 C 211.262 274.900, 212.317 274.977, 213.932 276.438 C 215.646 277.990, 216.385 278, 223.644 276.580 C 227.965 275.734, 232.443 274.773, 233.596 274.444 C 235.479 273.908, 235.861 274.541, 237.349 280.674 C 238.260 284.428, 239.004 288.934, 239.003 290.687 C 239.001 293.055, 239.929 294.751, 242.615 297.285 L 246.231 300.696 245.115 305.897 C 243.611 312.911, 243.710 317.123, 245.588 326 C 246.773 331.598, 247.216 340.094, 247.338 359.500 L 247.500 385.500 255.634 386.237 C 262.373 386.848, 264.772 386.643, 269.634 385.038 C 274.941 383.286, 275.721 383.245, 277.817 384.617 C 279.533 385.740, 280.478 385.848, 281.461 385.032 C 282.191 384.427, 285.099 383.657, 287.923 383.323 C 290.748 382.988, 293.297 382.329, 293.588 381.857 C 294.504 380.375, 298.381 380.935, 301.500 383 C 305.121 385.398, 309.105 385.524, 315.240 383.434 C 319.657 381.929, 321.632 379.832, 320.444 377.910 C 320.135 377.409, 320.833 377, 321.996 377 C 323.158 377, 327.005 375.254, 330.543 373.120 C 336.957 369.251, 338.639 367.779, 357.417 349.600 C 362.871 344.320, 367.654 340, 368.047 340 C 369.626 340, 377.389 328.387, 379.626 322.678 C 382.489 315.374, 383.666 313.944, 384.647 316.583 C 385.039 317.637, 386.375 320.075, 387.615 322 C 388.855 323.925, 390.656 327.525, 391.618 330 C 394.530 337.497, 397.875 341.799, 401.854 343.166 C 408.721 345.525, 443.469 344.042, 453.500 340.961 C 455.150 340.455, 460.585 339.809, 465.579 339.527 C 485.429 338.404, 492.826 335.475, 497.319 326.956 C 500.166 321.558, 500.192 321.356, 499.728 308 C 499.092 289.682, 496.314 279.492, 489.001 268.657 C 487.350 266.211, 486 263.944, 486 263.620 C 486 263.296, 484.592 260.742, 482.871 257.945 C 479.994 253.269, 479.853 252.645, 481.112 250.180 C 482.175 248.099, 482.499 240.829, 482.560 217.671 C 482.624 192.980, 482.883 187.690, 484.064 186.960 C 485.256 186.224, 485.188 185.858, 483.646 184.730 C 482.631 183.988, 480.539 179.458, 478.997 174.663 C 477.455 169.868, 475.545 164.944, 474.751 163.722 C 471.330 158.451, 472.423 149.077, 477.191 142.805 C 484.085 133.737, 484.855 127.390, 479.750 121.731 C 477.892 119.672, 475.158 117.863, 473.367 117.510 C 470.618 116.968, 469.853 117.355, 467.121 120.669 C 465.409 122.747, 463.521 125.921, 462.926 127.723 C 462.040 130.408, 461.329 131, 458.991 131 C 455.911 131, 453.963 128.864, 450.123 121.275 C 448.947 118.951, 445.963 114.773, 443.492 111.991 C 441.022 109.209, 439 106.539, 439 106.056 C 439 103.646, 429.831 94.155, 419.293 85.660 C 412.807 80.430, 401.425 70.883, 394 64.444 C 386.575 58.005, 375.325 49.363, 369 45.239 C 362.675 41.116, 353.675 35.185, 349 32.060 C 338.511 25.048, 332.325 22.301, 311.624 15.467 C 297.237 10.717, 293.541 9.909, 279.435 8.431 C 270.617 7.506, 256.577 6.824, 248 6.903 C 231.915 7.052, 200.619 4.958, 181.431 2.451 C 164.229 0.202, 153.329 -0.114, 145.500 1.409 M 301.471 258.122 C 300.355 258.665, 298.217 261.044, 296.721 263.409 C 293.297 268.821, 293.116 275.511, 296.155 284.282 C 298.605 291.352, 298.739 300.735, 296.512 309.304 C 294.677 316.368, 294.462 324.353, 295.924 331.250 C 296.594 334.413, 297.348 337, 297.599 337 C 297.851 337, 301.376 335.425, 305.432 333.500 C 309.489 331.575, 313.550 330, 314.456 330 C 315.385 330, 316.556 328.702, 317.140 327.027 C 317.711 325.392, 319.689 323.119, 321.537 321.977 C 324.941 319.874, 331.755 312.315, 333.854 308.316 C 335.393 305.383, 335.297 299.730, 333.555 290.626 C 331.902 281.982, 330.899 279.705, 326.871 275.443 C 325.281 273.761, 322.483 269.511, 320.651 265.998 C 317.410 259.781, 317.177 259.577, 311.911 258.348 C 305.486 256.848, 304.150 256.819, 301.471 258.122" fill="none" stroke="#000" stroke-width="2px" fill-rule="evenodd"/>
</svg>
