<svg xmlns="http://www.w3.org/2000/svg" width="267" height="245" viewBox="0 0 267 245" version="1.1">
	<path d="M 49.200 2.200 C 48.540 2.860, 48 4.206, 48 5.191 C 48 6.176, 45.750 11.309, 43 16.597 C 40.250 21.886, 38 27.297, 38 28.622 C 38 29.947, 35.800 34.061, 33.111 37.765 C 30.423 41.469, 26.982 46.750, 25.465 49.500 C 23.949 52.250, 21.489 56.075, 19.998 58 C 18.508 59.925, 16.056 63.472, 14.549 65.881 C 13.042 68.291, 9.871 72.642, 7.502 75.551 C 1.192 83.298, 1.131 84.649, 6.393 100.172 C 12.689 118.747, 14.222 125.334, 13.450 130.484 C 12.198 138.833, 15.681 142.030, 20.522 136.977 C 22.775 134.625, 23.084 133.654, 22.475 130.841 C 22.077 129.004, 20.971 126.375, 20.017 125 C 17.486 121.351, 14.192 111.927, 13.424 106.139 C 12.581 99.783, 13.681 92, 15.422 92 C 16.916 92, 17.978 99.040, 17.991 109.028 C 18.001 116.626, 19.411 119.146, 27.807 126.585 C 31.533 129.887, 32.799 131.601, 32.057 132.343 C 29.118 135.282, 32.414 144.464, 36.701 145.283 C 39.830 145.881, 41.230 143.289, 40.033 139.115 L 39.132 135.975 43.816 139.737 C 49.410 144.231, 49.852 144.771, 50.585 148 C 50.897 149.375, 52.427 153.425, 53.985 157 C 58.665 167.733, 59.765 175.373, 59.782 197.250 L 59.797 217 50.649 217.200 C 45.617 217.310, 40.150 217.436, 38.500 217.482 C 36.850 217.527, 34.504 218.119, 33.288 218.797 C 32.071 219.475, 28.798 220.169, 26.014 220.339 C 19.646 220.727, 18.332 221.906, 21.033 224.806 C 22.858 226.764, 24.088 227, 32.474 227 C 37.642 227, 43.136 226.519, 44.683 225.931 C 47.823 224.737, 59 225.648, 59 227.098 C 59 227.594, 55.969 228, 52.265 228 C 42.778 228, 23.665 230.926, 22.749 232.519 C 22.337 233.237, 20.087 234.132, 17.749 234.508 C 11.630 235.493, 6.772 239.060, 10.833 239.586 C 11.200 239.634, 12.235 239.999, 13.134 240.399 C 15.780 241.575, 32.773 240.433, 34.549 238.959 C 36.427 237.401, 53.598 237.057, 61.796 238.413 C 65.572 239.038, 68.299 238.910, 71.296 237.967 C 77.542 236.002, 79.260 234.198, 78.539 230.359 C 78.052 227.760, 78.305 227.038, 79.877 226.539 C 80.943 226.201, 82.075 225.247, 82.393 224.419 C 82.710 223.591, 80.702 213.687, 77.930 202.410 C 74.815 189.737, 73.006 180.300, 73.195 177.703 L 73.500 173.500 76.148 177.332 C 78.574 180.844, 78.680 181.388, 77.404 183.832 C 75.586 187.317, 75.639 189.520, 77.615 192.535 C 80.202 196.483, 84.245 195.837, 89.522 190.635 C 93.770 186.447, 97.268 185.045, 103.549 185.011 C 106.824 184.993, 115.909 193.819, 121.553 202.500 C 128.894 213.793, 132.554 218.079, 140.134 224.262 C 149.623 232.003, 154.815 234.764, 162.099 235.946 C 170.735 237.346, 204.888 239.027, 230 239.287 C 247.169 239.465, 251.424 239.214, 256.189 237.740 C 266.351 234.596, 268.048 230.279, 258.908 230.820 C 254.169 231.101, 239.925 229.016, 226 226.004 C 217.886 224.249, 194.704 222.022, 184.434 222.011 C 166.782 221.992, 158.398 219.366, 149.663 211.121 C 144.025 205.800, 137.418 195.082, 133.029 184.137 C 130.903 178.836, 128.057 172.025, 126.705 168.999 C 125.352 165.974, 123.936 160.848, 123.558 157.609 C 122.304 146.877, 115.960 126.320, 110.898 116.587 C 108.552 112.078, 98.580 99.671, 94.365 96.016 C 92.789 94.650, 87.450 91.475, 82.500 88.960 C 77.550 86.444, 68.892 81.786, 63.260 78.607 C 53.192 72.925, 52.968 72.719, 49.902 66.295 L 46.784 59.761 49.161 57.385 L 51.538 55.008 59.434 56.519 C 63.777 57.350, 67.819 58.406, 68.415 58.866 C 70.031 60.111, 78.526 59.639, 80.250 58.207 C 81.075 57.522, 82.049 55.097, 82.413 52.818 C 83.014 49.063, 82.767 48.352, 79.788 45.257 C 75.747 41.057, 65.508 33.798, 58.913 30.456 C 53.559 27.743, 53.214 26.790, 55.575 21.218 C 58.059 15.357, 57.693 10.142, 54.457 5.250 C 51.403 0.635, 50.999 0.401, 49.200 2.200" fill="none" stroke="#000" stroke-width="2px" fill-rule="evenodd"/>
</svg>
