<svg xmlns="http://www.w3.org/2000/svg" width="500" height="500" viewBox="0 0 500 500" version="1.1">
	<path d="M 307 26 C 300.578 28.259, 299.641 28.390, 300.562 26.900 C 301.053 26.106, 300.685 26.098, 299.238 26.872 C 298.137 27.462, 296.933 28.732, 296.564 29.694 C 295.991 31.187, 295.758 31.228, 294.977 29.972 C 294.215 28.747, 293.714 28.715, 291.990 29.784 C 290.851 30.490, 289.519 30.821, 289.031 30.519 C 288.543 30.218, 287.864 30.855, 287.521 31.934 C 287.178 33.014, 286.308 33.672, 285.587 33.395 C 284.293 32.899, 276 40.061, 276 41.675 C 276 43.465, 265.986 53, 264.107 53 C 261.637 53, 261.139 53.787, 260.537 58.642 C 258.947 71.471, 258.913 71.512, 248.948 72.493 C 240.784 73.297, 228.110 75.573, 221.032 77.506 C 218.025 78.328, 214.542 79, 213.293 79 C 210.707 79, 197.082 82.610, 192.530 84.501 C 187.855 86.444, 182.909 87.827, 178.292 88.485 C 174.841 88.976, 173.396 88.629, 170.257 86.551 C 165.261 83.245, 152.188 79.848, 149.648 81.197 C 148.629 81.737, 146.973 81.965, 145.967 81.702 C 144.961 81.438, 141.677 82.035, 138.670 83.027 C 135.663 84.019, 130.569 85.149, 127.351 85.539 C 124.133 85.928, 121.050 86.589, 120.500 87.008 C 119.950 87.427, 118.033 88.083, 116.240 88.466 C 111.519 89.476, 107.144 91.863, 105.959 94.076 C 105.393 95.134, 104.270 96, 103.465 96 C 102.119 96, 101.541 97.239, 101.910 99.336 C 101.991 99.796, 101.257 100.382, 100.278 100.637 C 98.504 101.102, 96 105.234, 96 107.699 C 96 108.415, 95.325 109, 94.500 109 C 92.777 109, 92.497 110.571, 94.049 111.530 C 94.765 111.973, 94.727 112.624, 93.926 113.589 C 93.015 114.687, 93.060 115.003, 94.128 115.015 C 95.287 115.028, 95.286 115.166, 94.122 115.904 C 93.364 116.384, 93.031 117.241, 93.381 117.808 C 93.732 118.376, 92.891 119.727, 91.512 120.812 L 89.004 122.784 91.448 123.398 C 93.686 123.959, 93.803 124.266, 92.841 127.026 C 92.062 129.261, 92.108 130.425, 93.017 131.521 C 93.692 132.334, 93.886 133, 93.448 133 C 93.010 133, 93.663 134.077, 94.899 135.392 C 96.572 137.173, 96.808 137.920, 95.823 138.313 C 95.095 138.604, 95.850 138.913, 97.500 139 C 99.150 139.087, 99.935 139.386, 99.244 139.664 C 97.495 140.370, 98.721 142, 101 142 C 103.733 142, 104.569 144.038, 102.101 144.684 C 99.194 145.444, 99.462 147, 102.500 147 C 105.237 147, 105.890 148.721, 103.500 149.638 C 101.047 150.580, 101.793 151.999, 104.750 152.015 C 106.893 152.027, 107.169 152.245, 106 153 C 104.870 153.730, 105.363 153.984, 108 154.030 L 111.500 154.090 108.624 155.318 C 106.293 156.314, 106.009 156.758, 107.124 157.666 C 107.881 158.281, 109.400 158.964, 110.500 159.183 C 111.912 159.465, 112.424 160.263, 112.242 161.901 C 112.052 163.612, 112.380 164.068, 113.492 163.641 C 114.322 163.323, 115 163.499, 115 164.031 C 115 165.985, 115.307 166.526, 117.142 167.812 C 118.744 168.934, 119.451 168.815, 122.008 166.994 L 125 164.864 125.156 167.182 C 125.241 168.457, 125.222 170.526, 125.113 171.779 C 124.834 174.995, 127.573 177.599, 129.528 175.977 C 131.040 174.722, 131.362 175.202, 131.052 178.250 C 130.839 180.344, 132.833 180.600, 133.609 178.577 C 133.909 177.795, 134.823 176.898, 135.640 176.585 C 136.799 176.140, 137.057 176.722, 136.813 179.228 C 136.576 181.658, 136.932 182.528, 138.275 182.798 C 139.533 183.052, 140.383 182.199, 141.196 179.868 L 142.342 176.580 143.421 180.398 L 144.500 184.216 148 179.900 C 149.925 177.527, 152.420 173.797, 153.545 171.611 C 155.918 166.997, 156.885 166.464, 159.460 168.347 C 160.708 169.259, 161.303 170.858, 161.232 173.110 C 161.174 174.975, 161.039 178.975, 160.933 182 C 160.827 185.025, 160.123 188.715, 159.370 190.201 C 158.589 191.740, 158.205 194.503, 158.477 196.626 C 158.739 198.675, 158.514 200.881, 157.977 201.528 C 157.440 202.175, 156.719 205.584, 156.376 209.102 C 155.406 219.038, 153.287 226.282, 150.758 228.312 C 149.516 229.308, 147 231.391, 145.168 232.941 C 143.335 234.491, 137.260 238.128, 131.668 241.024 C 126.075 243.920, 120.825 246.856, 120 247.547 C 118.053 249.180, 108.439 252, 104.818 252 C 102.540 252, 102 251.557, 102 249.689 C 102 246.827, 98.771 243.232, 95.453 242.399 C 91.681 241.452, 87.354 243.734, 85.496 247.651 C 83.383 252.103, 81.854 251.517, 80.188 245.618 C 78.667 240.232, 75.806 238.470, 70.069 239.386 C 65.395 240.131, 63.582 242.225, 63.709 246.729 C 63.768 248.797, 63.607 250.827, 63.351 251.241 C 62.622 252.421, 57.961 249.511, 52.500 244.466 C 49.750 241.926, 45.048 238.742, 42.051 237.391 C 39.055 236.040, 35.147 233.824, 33.368 232.467 C 31.589 231.110, 29.825 230, 29.449 230 C 29.072 230, 27.284 228.762, 25.475 227.250 C 23.666 225.737, 19.107 222.262, 15.343 219.526 C 11.579 216.791, 7.022 213.304, 5.215 211.776 C 3.409 210.249, 1.496 209, 0.965 209 C 0.370 209, 0 218.711, 0 234.309 L 0 259.617 6.057 263.537 C 11.393 266.990, 12.095 267.816, 11.956 270.478 C 11.696 275.429, 11.849 275.743, 15.637 278.085 C 18.037 279.568, 21.176 280.422, 24.863 280.594 C 27.937 280.737, 30.599 281.297, 30.779 281.837 C 30.959 282.378, 29.944 283.899, 28.522 285.217 C 23.109 290.236, 25.152 299.996, 31.927 301.484 C 33.942 301.927, 35 302.767, 35 303.924 C 35 307.356, 38.456 309.223, 44.112 308.847 C 49.280 308.505, 49.362 308.544, 50.201 311.737 C 51.089 315.122, 55.111 318, 58.950 318 C 60.554 318, 61 318.643, 61 320.955 C 61 324.070, 64.967 329, 67.474 329 C 68.235 329, 69.452 329.577, 70.179 330.283 C 75.110 335.070, 77.902 336.102, 85.726 336.028 C 90.002 335.987, 95.525 336.077, 98 336.227 C 100.475 336.377, 103.942 336.178, 105.704 335.784 C 108.472 335.166, 109.589 335.608, 113.924 339.034 C 116.684 341.215, 119.218 343, 119.557 343 C 120.391 343, 128.476 348.654, 134 353.101 C 136.475 355.093, 140.075 357.527, 142 358.510 C 146.272 360.692, 161.662 372.498, 164.719 375.938 C 166.930 378.426, 166.931 378.445, 164.969 380.533 C 162.153 383.530, 162.453 383.858, 167.522 383.330 C 171.296 382.937, 172.537 383.274, 175.027 385.369 C 176.846 386.900, 179.861 388.126, 182.755 388.513 C 187.934 389.205, 196.766 392.349, 201.500 395.186 C 204.244 396.830, 204.500 397.447, 204.500 402.411 C 204.500 408.668, 207.120 412.428, 212.269 413.559 C 213.929 413.924, 216.309 415.409, 217.557 416.861 C 219.397 418.999, 220.654 419.483, 224.176 419.410 C 226.568 419.360, 230.215 418.517, 232.281 417.537 C 236.024 415.761, 236.051 415.764, 239.769 418.363 C 241.821 419.797, 245.230 422.568, 247.344 424.521 L 251.189 428.071 249.584 432.082 C 248.377 435.098, 248.245 436.589, 249.050 438.094 C 250.536 440.869, 254.402 442.178, 257.565 440.975 C 261.208 439.590, 261.317 439.663, 260.644 443.032 C 260.116 445.669, 260.393 446.199, 262.769 447.105 C 266.555 448.548, 270.817 447.482, 275.135 444.012 L 278.797 441.069 288.649 447.097 C 300.921 454.607, 299.435 453.736, 312.389 461 C 327.027 469.208, 334.609 471.892, 356 476.438 C 373.368 480.129, 384.895 482.750, 396 485.532 C 410.429 489.146, 427.776 491.767, 445.500 493.011 C 454.300 493.629, 467.800 494.973, 475.500 495.997 C 483.200 497.022, 491.871 498.160, 494.769 498.526 L 500.039 499.193 499.769 476.979 L 499.500 454.765 492.238 454.426 C 488.244 454.240, 483.294 453.590, 481.238 452.981 C 479.182 452.372, 470.300 451.675, 461.500 451.432 C 452.700 451.188, 441.225 450.305, 436 449.469 C 430.775 448.633, 424.925 447.713, 423 447.425 C 421.075 447.136, 417.177 446.380, 414.339 445.743 L 409.177 444.586 414.244 439.043 C 417.031 435.994, 420.878 431.025, 422.794 428 C 424.710 424.975, 428.811 418.675, 431.908 414 C 439.469 402.588, 449.083 382.745, 452.986 370.500 C 454.739 365, 456.517 359.825, 456.936 359 C 457.355 358.175, 457.731 355.587, 457.772 353.250 C 457.813 350.913, 457.915 348.887, 457.998 348.750 C 459.225 346.732, 458.969 316.263, 457.698 313 C 457.376 312.175, 456.860 308.653, 456.551 305.173 C 456.241 301.694, 455.585 298.094, 455.093 297.173 C 454.600 296.253, 454.257 295.275, 454.330 295 C 454.403 294.725, 453.731 292.475, 452.838 290 C 450.416 283.294, 448 275.281, 448 273.956 C 448 273.313, 446.650 271.083, 445 269 C 443.350 266.917, 442 264.940, 442 264.608 C 442 263.521, 434.711 253.643, 428.637 246.500 C 425.364 242.650, 417.918 235.567, 412.093 230.760 C 406.267 225.952, 399.925 220.634, 398 218.940 C 396.075 217.247, 391.866 213.543, 388.647 210.711 C 385.427 207.878, 378.677 202.511, 373.647 198.783 C 368.616 195.056, 361.366 189.642, 357.536 186.753 C 349.675 180.823, 333.884 165.428, 329.537 159.456 C 327.953 157.280, 324.997 153.889, 322.968 151.919 C 320.939 149.950, 319.104 147.925, 318.890 147.419 C 318.675 146.914, 315.892 144.517, 312.703 142.092 C 309.294 139.500, 307.115 137.143, 307.412 136.369 C 307.690 135.645, 307.148 134.605, 306.208 134.057 C 304.789 133.229, 304.988 133.056, 307.390 133.030 C 308.979 133.014, 310.856 132.212, 311.561 131.250 C 312.627 129.793, 314.219 129.538, 321.054 129.726 C 328.913 129.942, 329.196 129.874, 327.633 128.147 C 326.735 127.155, 326 125.606, 326 124.706 C 326 123.807, 324.988 122.537, 323.750 121.885 C 320.989 120.432, 320.037 119.067, 320.657 117.452 C 321.017 116.514, 322.526 116.645, 327.024 118.007 C 332.047 119.528, 333.461 119.606, 336.584 118.532 C 340.909 117.045, 340.693 116.865, 331.222 114.057 C 323.991 111.912, 322.476 110, 328.010 110 C 332.388 110, 341 107.956, 341 106.917 C 341 106.413, 340.960 105.703, 340.910 105.340 C 340.861 104.977, 341.546 104.274, 342.431 103.778 C 344.942 102.374, 343.269 101, 339.048 101 C 333.129 101, 332.926 98.374, 338.714 96.686 C 342.073 95.706, 342.960 95.093, 341.935 94.460 C 340.830 93.777, 341.023 93.467, 342.819 93.043 C 346.563 92.159, 345.237 90.484, 340.955 90.689 C 338.780 90.793, 337 90.488, 337 90.011 C 337 88.367, 339.987 86.162, 343.158 85.465 C 345.793 84.887, 346.050 84.607, 344.660 83.830 C 343.738 83.314, 342.538 83.168, 341.992 83.505 C 341.446 83.842, 341 83.641, 341 83.059 C 341 82.477, 341.466 82, 342.035 82 C 342.721 82, 342.693 81.294, 341.950 79.906 C 341.020 78.169, 341.227 77.375, 343.164 75.257 C 345.486 72.719, 345.487 72.707, 343.330 73.237 C 341.519 73.683, 341.203 73.377, 341.415 71.384 C 341.555 70.071, 341.920 68.746, 342.226 68.440 C 343.054 67.612, 341.914 64, 340.824 64 C 340.306 64, 340.233 63.438, 340.663 62.750 C 342.060 60.514, 341.862 59.116, 340.237 59.739 C 339.205 60.135, 338.918 59.942, 339.395 59.170 C 339.833 58.461, 339.481 58, 338.500 58 C 337.610 58, 337.160 57.550, 337.500 57 C 337.840 56.450, 337.656 56, 337.090 56 C 336.525 56, 336.235 55.438, 336.445 54.750 C 336.655 54.063, 337.080 52.038, 337.388 50.250 C 337.913 47.215, 337.762 47, 335.113 47 C 332.325 47, 331.824 45.622, 333.112 41.500 C 333.284 40.950, 332.895 39.547, 332.248 38.381 C 331.600 37.216, 331.325 36.009, 331.635 35.698 C 331.946 35.387, 331.920 34.680, 331.578 34.127 C 331.178 33.480, 329.666 33.659, 327.343 34.630 C 323.839 36.094, 323.747 36.077, 324.272 34.068 C 324.570 32.929, 324.453 32.220, 324.012 32.493 C 323.570 32.765, 322.937 32.279, 322.605 31.412 C 321.738 29.153, 321.848 28.788, 323.155 29.595 C 323.871 30.038, 324.038 29.870, 323.594 29.152 C 323.061 28.290, 322.344 28.281, 320.788 29.114 C 319.021 30.059, 318.793 29.982, 319.317 28.616 C 319.940 26.992, 318.012 26.321, 316.646 27.687 C 316.268 28.065, 315.068 28.440, 313.980 28.520 C 311.765 28.683, 311.375 27.025, 313.200 25.200 C 314.847 23.553, 313.439 23.735, 307 26" fill="none" stroke="#000" stroke-width="2px" fill-rule="evenodd"/>
</svg>
