<svg xmlns="http://www.w3.org/2000/svg" width="270" height="212" viewBox="0 0 270 212" version="1.1">
	<path d="M 31.397 1.593 C 31.733 2.469, 32.262 4.381, 32.572 5.843 C 33.114 8.394, 33.074 8.422, 31.568 6.559 C 30.429 5.148, 29.996 5.012, 29.985 6.059 C 29.972 7.249, 29.819 7.263, 29.110 6.143 C 28.501 5.182, 28.048 5.114, 27.556 5.910 C 27.174 6.527, 26.443 6.774, 25.931 6.457 C 24.221 5.400, 22.806 7.061, 24.094 8.613 C 25.732 10.586, 24.610 11.397, 22.100 10.053 C 20.211 9.042, 20.105 9.145, 20.894 11.222 C 21.648 13.205, 21.432 13.520, 19.227 13.654 C 17.651 13.749, 17.170 13.513, 17.953 13.029 C 18.846 12.477, 18.891 12.050, 18.107 11.566 C 17.053 10.915, 16.592 12.112, 16.908 14.675 C 16.988 15.321, 16.522 16.178, 15.872 16.579 C 15.222 16.981, 14.952 16.886, 15.272 16.369 C 15.592 15.852, 15.022 15.429, 14.006 15.429 C 12.569 15.429, 12.363 15.810, 13.079 17.149 C 14.518 19.837, 14.212 22.019, 12.489 21.357 C 11.365 20.926, 11.152 21.233, 11.659 22.553 C 12.125 23.769, 11.971 24.100, 11.170 23.605 C 10.526 23.207, 10 23.310, 10 23.834 C 10 24.358, 10.753 25.075, 11.673 25.428 C 13.131 25.987, 13.048 26.278, 11.028 27.693 C 8.944 29.153, 8.874 29.435, 10.335 30.503 C 11.796 31.571, 11.709 31.925, 9.469 34.029 C 7.616 35.770, 7.301 36.574, 8.239 37.169 C 9.003 37.654, 8.044 37.975, 5.809 37.985 C 3.779 37.993, 1.840 38.450, 1.500 39 C 1.160 39.550, 1.809 40, 2.941 40 C 4.085 40, 5 40.653, 5 41.469 C 5 42.444, 5.588 42.723, 6.750 42.299 C 8.388 41.702, 8.386 41.791, 6.707 43.707 C 5.095 45.546, 5.076 45.815, 6.515 46.367 C 7.879 46.891, 7.701 47.529, 5.308 50.685 C 3.225 53.432, 2.952 54.217, 4.250 53.725 C 6.612 52.831, 6.452 53.858, 3.750 56.928 C 1.810 59.133, 1.787 59.245, 3.579 57.743 C 6.832 55.015, 7.386 55.681, 5.093 59.566 C 3.265 62.664, 3.178 63.321, 4.425 64.567 C 5.437 65.580, 5.623 66.826, 5.057 68.802 C 4.615 70.342, 4.337 72.704, 4.439 74.051 C 4.540 75.398, 4.033 77.715, 3.312 79.200 C 1.539 82.849, 1.628 83.092, 4.357 82.054 C 6.685 81.169, 6.711 81.230, 6.433 87.079 C 6.271 90.483, 6.569 93, 7.135 93 C 7.676 93, 7.840 92.550, 7.500 92 C 7.160 91.450, 7.331 91, 7.880 91 C 9.043 91, 8.723 99.987, 7.486 102.090 C 7.030 102.866, 7.738 102.600, 9.061 101.500 C 10.924 99.950, 11.157 99.898, 10.095 101.268 C 8.187 103.730, 6.894 111.317, 8.241 112.149 C 8.984 112.608, 8.995 114.364, 8.280 117.983 C 7.447 122.193, 7.518 123.262, 8.658 123.699 C 9.554 124.043, 9.827 124.970, 9.414 126.270 C 8.937 127.774, 9.140 128.160, 10.196 127.755 C 11.281 127.339, 11.549 127.963, 11.314 130.354 L 11.004 133.500 12.527 130.500 L 14.049 127.500 13.408 131 C 13.055 132.925, 13.121 134.161, 13.553 133.746 C 13.986 133.332, 15.389 133.680, 16.670 134.520 C 18.771 135.896, 19 135.891, 19 134.464 C 19 133.594, 19.457 133.165, 20.016 133.510 C 20.575 133.856, 20.719 134.646, 20.335 135.267 C 19.184 137.129, 19.016 145.221, 20.092 146.919 C 20.880 148.160, 20.963 148.016, 20.480 146.250 C 20.033 144.612, 20.292 144, 21.433 144 C 22.598 144, 23.019 145.089, 23.075 148.250 C 23.116 150.588, 23.280 158.125, 23.440 165 C 23.650 174.008, 23.309 178.897, 22.218 182.500 C 20.582 187.905, 19.635 188.961, 16.402 188.985 C 15.249 188.993, 12.099 191.005, 9.402 193.456 C 3.771 198.575, 3.950 200.309, 10.337 202.505 C 16.021 204.459, 28.469 202.307, 33.169 198.557 C 36.601 195.818, 36.635 195.713, 36.385 188.667 C 36.246 184.751, 36.498 181.086, 36.945 180.523 C 37.392 179.960, 37.748 177.002, 37.736 173.948 C 37.715 168.557, 38.482 165.086, 41.644 156.250 C 43.328 151.546, 45.010 150.499, 44.216 154.649 C 43.867 156.477, 44.065 157.078, 44.855 156.590 C 45.485 156.200, 46 154.997, 46 153.916 C 46 152.726, 47.012 151.566, 48.565 150.975 C 51.778 149.754, 52 149.759, 52 151.059 C 52 151.641, 51.550 151.840, 51 151.500 C 49.155 150.359, 49.977 151.619, 52.522 153.832 L 55.044 156.025 54.376 153.364 C 53.906 151.489, 54.047 150.911, 54.854 151.410 C 55.484 151.799, 56 151.641, 56 151.059 C 56 150.477, 56.675 150, 57.500 150 C 58.507 150, 59.030 151.068, 59.090 153.250 L 59.180 156.500 60.219 153 C 60.791 151.075, 61.464 150.065, 61.715 150.756 C 61.966 151.447, 62.577 151.761, 63.074 151.454 C 63.571 151.147, 63.709 151.594, 63.382 152.448 C 63.054 153.302, 63.284 154, 63.893 154 C 64.502 154, 65 153.550, 65 153 C 65 152.450, 65.502 152, 66.117 152 C 66.741 152, 67.003 152.882, 66.710 154.001 C 66.422 155.102, 66.595 155.751, 67.093 155.442 C 67.592 155.134, 68 155.610, 68 156.500 C 68 157.390, 68.458 157.835, 69.018 157.489 C 69.678 157.081, 69.827 158.204, 69.441 160.680 C 69.113 162.781, 68.698 168.775, 68.518 174 C 68.338 179.225, 67.698 184.767, 67.096 186.315 C 66.493 187.863, 66 190.296, 66 191.721 C 66 194.170, 62.171 200.287, 59.236 202.526 C 53.008 207.279, 74.418 212.078, 84.276 208.139 C 87.987 206.656, 88.468 204.952, 87.083 198.200 C 85.538 190.669, 85.504 187.424, 86.772 168.500 C 87.917 151.405, 88.420 148.840, 90.472 149.628 C 91.190 149.903, 93.148 148.663, 94.822 146.872 C 97.153 144.378, 97.646 143.208, 96.930 141.870 C 96.179 140.466, 96.388 140.154, 97.998 140.275 C 99.099 140.358, 100 140.766, 100 141.181 C 100 141.597, 100.675 141.678, 101.500 141.362 C 102.349 141.036, 103 141.338, 103 142.060 C 103 142.760, 103.261 143.072, 103.581 142.752 C 103.901 142.433, 103.696 141.301, 103.127 140.237 C 102.216 138.535, 102.442 138.292, 105 138.219 C 108.031 138.133, 109.868 140.787, 108.410 143.146 C 107.941 143.905, 108.129 144.038, 108.953 143.529 C 109.807 143.001, 110.015 141.494, 109.596 138.874 C 109.119 135.894, 109.306 135, 110.405 135 C 111.191 135, 112.062 134.437, 112.341 133.750 C 112.726 132.799, 113.089 132.846, 113.855 133.948 C 114.665 135.111, 114.997 134.859, 115.548 132.666 C 116.169 130.192, 116.351 130.097, 117.490 131.655 C 118.644 133.233, 118.808 133.179, 119.500 131 C 120.223 128.723, 120.309 128.702, 121.627 130.504 C 122.625 131.870, 123.004 131.989, 123.015 130.941 C 123.028 129.726, 123.182 129.735, 124 131 C 124.533 131.825, 124.976 132.024, 124.985 131.441 C 124.993 130.859, 125.621 129.533, 126.380 128.495 C 127.612 126.810, 127.721 127.116, 127.405 131.348 C 127.187 134.257, 127.426 135.854, 128.025 135.485 C 128.561 135.153, 129 133.123, 129 130.972 C 129 127.908, 129.324 127.187, 130.500 127.638 C 131.426 127.994, 132 129.513, 132 131.607 C 132 135.140, 133.343 136.156, 134.393 133.418 C 135.303 131.047, 135.097 130.303, 134 132 C 133.276 133.120, 133.045 132.612, 133.086 130 C 133.132 127.049, 133.287 126.813, 134.078 128.500 C 134.841 130.127, 134.953 129.895, 134.681 127.250 C 134.497 125.463, 134.689 124, 135.107 124 C 135.525 124, 136.055 122.762, 136.284 121.250 C 136.556 119.451, 136.805 120.229, 137.002 123.500 C 137.437 130.687, 137.452 130.785, 138.263 131.596 C 138.668 132.002, 139.045 133.496, 139.100 134.917 L 139.199 137.500 139.926 135 C 140.326 133.625, 140.281 131.153, 139.826 129.507 C 138.750 125.608, 138.784 124.748, 139.985 125.491 C 140.598 125.869, 140.745 124.853, 140.374 122.800 L 139.778 119.500 141.478 121.796 C 142.413 123.059, 142.914 124.783, 142.590 125.626 C 141.798 127.691, 142.981 132.130, 144.133 131.418 C 144.639 131.105, 144.988 130.321, 144.908 129.675 C 144.828 129.029, 144.853 126.925, 144.963 125 L 145.162 121.500 146.622 124.500 L 148.082 127.500 147.680 124.750 C 147.157 121.175, 148.585 121.175, 149.442 124.750 C 149.805 126.263, 152.661 132.658, 155.788 138.961 C 162.566 152.622, 163.084 157.631, 158.706 167.166 C 156.106 172.827, 153.781 174.621, 150.616 173.406 C 148.642 172.649, 141 177.380, 141 179.359 C 141 180.091, 141.843 181.453, 142.874 182.386 C 144.399 183.766, 146.400 184.027, 153.624 183.791 L 162.500 183.500 164.509 179.320 C 165.613 177.022, 167.560 173.941, 168.834 172.475 C 170.109 171.009, 172.524 165.690, 174.200 160.655 C 175.876 155.620, 177.694 150.269, 178.239 148.764 L 179.231 146.028 181.865 147.943 C 187.558 152.079, 190.755 155.793, 192.454 160.241 C 194.185 164.773, 194.176 165.062, 192.086 171.944 C 190.499 177.168, 189.490 179, 188.199 179 C 186.021 179, 179 184.687, 179 186.451 C 179 188.638, 184.377 190.150, 192.788 190.329 C 202.447 190.536, 205 188.987, 205 182.921 C 205 180.849, 205.432 176.981, 205.961 174.326 C 207.054 168.834, 208.988 157.238, 209.699 151.918 C 210.140 148.624, 209.785 148.006, 205.291 144.244 C 201.498 141.068, 199.433 138.110, 196.068 131.028 C 193.683 126.010, 191.133 119.113, 190.401 115.702 C 188.976 109.062, 188.626 97.895, 189.649 91.705 C 190.275 87.916, 190.279 87.913, 192.388 89.820 C 196.250 93.312, 203.473 96.906, 209.973 98.572 C 221.508 101.527, 230.919 98.902, 244.170 89.032 C 249.184 85.297, 256.147 80.819, 259.643 79.079 C 263.841 76.989, 266 75.318, 266 74.157 C 266 73.191, 266.488 71.912, 267.085 71.315 C 268.456 69.944, 267.900 65.788, 266.273 65.253 C 265.597 65.030, 263.971 66.007, 262.658 67.424 C 261.345 68.841, 259.737 70, 259.084 70 C 258.432 70, 257.283 71.471, 256.532 73.269 C 255.666 75.341, 253.579 77.426, 250.833 78.961 C 248.450 80.294, 243.800 83.226, 240.500 85.477 C 232.640 90.839, 224.416 93.426, 217.500 92.712 C 207.628 91.693, 201.276 87.166, 193.757 75.789 C 186.702 65.115, 178.821 57.735, 170.259 53.786 C 166.541 52.071, 162.375 49.918, 161 49.002 C 159.625 48.085, 155.125 46.773, 151 46.086 C 146.875 45.398, 140.350 44.229, 136.500 43.488 C 124.197 41.121, 112.717 39.804, 104.777 39.850 C 97.125 39.894, 97.016 39.859, 92.959 35.961 C 90.708 33.797, 89.147 31.571, 89.492 31.014 C 89.836 30.456, 89.304 29.964, 88.309 29.921 C 87.275 29.876, 87.032 29.627, 87.741 29.341 C 88.694 28.956, 88.652 28.509, 87.563 27.420 C 86.782 26.639, 85.675 26, 85.103 26 C 84.531 26, 84.300 25.383, 84.589 24.629 C 84.878 23.875, 84.490 22.633, 83.727 21.870 C 82.964 21.107, 82.561 19.811, 82.832 18.991 C 83.235 17.771, 83.051 17.726, 81.821 18.741 C 80.032 20.217, 79.012 19.445, 78.968 16.583 C 78.951 15.438, 78.313 13.677, 77.550 12.671 C 76.379 11.126, 75.802 11.028, 73.832 12.043 C 71.905 13.036, 71.717 13.015, 72.750 11.922 C 74.498 10.073, 74.314 9.235, 72 8.500 C 70.900 8.151, 70 7.168, 70 6.316 C 70 5.234, 69.366 4.933, 67.896 5.317 C 66.055 5.798, 65.846 5.506, 66.217 2.977 L 66.641 0.086 64.070 2.661 C 61.965 4.770, 61.441 4.943, 61.177 3.618 C 60.753 1.499, 59.356 1.559, 58.080 3.750 C 57.439 4.852, 57.050 5.010, 57.030 4.179 C 57.014 3.452, 56.325 2.182, 55.500 1.357 C 54.167 0.024, 54 0.081, 54 1.870 C 54 2.976, 53.474 4.207, 52.830 4.605 C 52.051 5.087, 51.867 4.789, 52.279 3.715 C 52.704 2.607, 52.464 2.268, 51.512 2.634 C 50.750 2.926, 50.371 3.803, 50.670 4.583 C 51.489 6.716, 50.064 6.287, 47.908 3.750 C 46.683 2.309, 46.201 2.093, 46.566 3.149 C 47.188 4.948, 45.171 6.800, 44.138 5.378 C 43.787 4.895, 42.422 3.893, 41.105 3.151 C 39.023 1.978, 38.786 2, 39.292 3.318 C 40.260 5.840, 36.950 6.248, 34.880 3.862 C 33.846 2.669, 33 1.313, 33 0.847 C 33 0.381, 32.502 0, 31.893 0 C 31.284 0, 31.061 0.717, 31.397 1.593 M 132.136 120.500 C 132.046 121.600, 131.723 123.625, 131.418 125 C 130.938 127.158, 131.017 127.257, 131.995 125.724 C 132.618 124.748, 132.942 122.723, 132.714 121.224 C 132.444 119.449, 132.243 119.196, 132.136 120.500 M 91.779 145.375 C 91.503 146.819, 91.638 148, 92.080 148 C 93.525 148, 94.127 146.049, 93.195 144.383 C 92.432 143.021, 92.198 143.185, 91.779 145.375" fill="none" stroke="#000" stroke-width="2px" fill-rule="evenodd"/>
</svg>
