<svg xmlns="http://www.w3.org/2000/svg" width="251" height="276" viewBox="0 0 251 276" version="1.1">
	<path d="M 175 2.989 C 175 3.270, 173.425 3.594, 171.500 3.708 C 165.968 4.038, 165 4.271, 165 5.274 C 165 5.791, 164.325 5.955, 163.500 5.638 C 162.675 5.322, 162 5.499, 162 6.031 C 162 6.564, 161.025 7, 159.833 7 C 158.642 7, 157.966 7.299, 158.331 7.664 C 158.696 8.030, 157.309 9.366, 155.248 10.633 C 153.186 11.901, 151.922 12.952, 152.437 12.969 C 152.952 12.986, 152.081 14.350, 150.500 16 C 148.919 17.650, 147.935 19, 148.313 19 C 148.691 19, 148.100 19.900, 147 21 C 145.900 22.100, 144.495 23, 143.878 23 C 143.102 23, 143.140 23.464, 144 24.500 C 145.026 25.736, 144.938 26, 143.500 26 C 141.989 26, 141.939 26.224, 143.128 27.673 C 144.350 29.164, 144.254 29.284, 142.250 28.767 C 141.012 28.448, 140 28.595, 140 29.094 C 140 29.592, 140.338 30.001, 140.750 30.002 C 141.162 30.003, 141.594 31.353, 141.710 33.002 C 141.864 35.213, 141.484 36, 140.260 36 C 139.052 36, 138.900 36.300, 139.701 37.101 C 140.425 37.825, 140.503 39.245, 139.930 41.244 C 139.450 42.916, 139.278 44.641, 139.547 45.076 C 140.601 46.782, 141.698 55, 140.871 55 C 140.392 55, 140 55.477, 140 56.059 C 140 56.641, 140.399 56.871, 140.887 56.570 C 141.374 56.269, 142.358 56.726, 143.072 57.587 C 144.145 58.879, 144.121 59.311, 142.936 60.061 C 141.704 60.840, 141.713 60.974, 143 61 C 144.333 61.027, 144.333 61.138, 143 62 C 142.175 62.533, 141.907 62.976, 142.405 62.985 C 142.903 62.993, 142.495 63.900, 141.500 65 C 140.505 66.100, 139.015 67, 138.189 67 C 135.268 67, 130.119 72.057, 127.416 77.582 C 125.910 80.661, 124.164 83.702, 123.537 84.340 C 122.910 84.978, 121.385 87.525, 120.149 90 C 118.913 92.475, 117.495 95.175, 116.998 96 C 116.501 96.825, 115.323 99.300, 114.380 101.500 C 113.437 103.700, 111.953 106.364, 111.082 107.420 C 109.623 109.190, 109.636 109.289, 111.250 108.701 C 113.103 108.025, 113.697 109.451, 112 110.500 C 111.450 110.840, 111 111.936, 111 112.937 C 111 113.937, 110.304 115.333, 109.453 116.039 C 108.217 117.065, 108.167 117.489, 109.203 118.143 C 110.241 118.799, 110.160 119.564, 108.797 121.981 C 107.860 123.641, 107.410 125.002, 107.797 125.004 C 108.183 125.007, 108.608 127.369, 108.741 130.254 C 108.873 133.139, 109.505 139.325, 110.144 144 C 110.783 148.675, 111.350 161.254, 111.403 171.953 L 111.500 191.407 109 192.607 C 107.625 193.267, 105.246 194.386, 103.713 195.093 C 100.445 196.599, 100.477 199.538, 103.760 199.423 C 105.554 199.360, 105.740 199.608, 104.773 200.774 C 103.280 202.572, 102.887 205, 104.088 205 C 104.590 205, 105 204.598, 105 204.107 C 105 203.616, 105.777 202.916, 106.726 202.551 C 108.009 202.059, 107.853 202.527, 106.119 204.373 C 104.836 205.739, 104.023 207.452, 104.314 208.179 C 104.706 209.159, 104.863 209.177, 104.921 208.250 C 104.964 207.563, 105.620 207, 106.378 207 C 107.135 207, 108.339 206.297, 109.052 205.437 C 110.223 204.027, 110.435 204.025, 111.217 205.424 C 111.731 206.342, 111.660 207.767, 111.042 208.921 C 109.729 211.374, 109.714 212.295, 111 211.500 C 112.209 210.753, 112.298 212.982, 111.131 214.822 C 110.641 215.595, 111.047 218.916, 112.108 222.822 C 114.280 230.816, 114.135 231.010, 104.589 232.907 C 100.973 233.626, 98.206 234.524, 98.439 234.902 C 99.007 235.820, 76.824 235.638, 75.335 234.712 C 74.695 234.314, 74.013 234.462, 73.819 235.042 C 73.626 235.622, 70.856 236.366, 67.663 236.695 C 63.977 237.076, 62.340 237.600, 63.179 238.132 C 63.957 238.625, 61.382 238.976, 56.917 238.985 C 49.382 239, 43.450 239.794, 31 242.453 C 27.425 243.216, 21.800 244.376, 18.500 245.030 C 15.200 245.684, 10.700 247.031, 8.500 248.022 C 4.094 250.008, -0.663 255.472, 1.078 256.548 C 1.660 256.908, 1.922 257.760, 1.661 258.442 C 1.399 259.123, 2.493 260.916, 4.093 262.425 C 7.762 265.889, 7.740 266.679, 3.947 267.512 C 0.406 268.289, 0.525 270.475, 4.113 270.552 C 5.454 270.581, 6.989 270.830, 7.525 271.105 C 8.061 271.381, 10.867 271.583, 13.761 271.553 C 16.996 271.521, 18.869 271.899, 18.625 272.535 C 18.161 273.744, 54.891 274.205, 56.500 273.011 C 57.050 272.603, 60.650 271.961, 64.500 271.586 C 73.736 270.684, 76 270.060, 76 268.415 C 76 267.662, 77.139 266.300, 78.532 265.387 C 80.930 263.816, 80.975 263.629, 79.371 261.858 C 78.441 260.829, 77.875 259.791, 78.115 259.551 C 78.995 258.672, 129.208 258.715, 129.846 259.596 C 130.825 260.949, 135.263 261.235, 134.433 259.891 C 133.992 259.179, 134.416 258.973, 135.625 259.314 C 136.656 259.604, 138.475 260.120, 139.666 260.461 C 140.857 260.802, 142.122 260.612, 142.477 260.038 C 142.883 259.380, 143.746 259.329, 144.811 259.899 C 146.537 260.823, 147.217 261, 149.035 261 C 149.749 261, 149.749 261.601, 149.035 262.934 C 148.466 263.998, 148 265.034, 148 265.236 C 148 265.439, 151.713 265.727, 156.250 265.878 C 160.787 266.028, 166.300 266.353, 168.500 266.599 C 170.700 266.845, 176.550 267.289, 181.500 267.585 C 198.058 268.575, 210.453 269.837, 215.895 271.085 C 220.831 272.217, 221.407 272.163, 222.658 270.453 C 223.967 268.663, 224.150 268.657, 226.968 270.322 C 229.753 271.967, 231.278 271.966, 237.322 270.317 C 238.339 270.039, 238.917 269.225, 238.628 268.474 C 238.345 267.734, 238.650 266.875, 239.306 266.565 C 240.153 266.164, 240.064 265.807, 239 265.335 C 238.175 264.969, 236.307 263.394, 234.849 261.835 C 233.391 260.276, 231.717 259, 231.130 259 C 230.543 259, 230.322 258.325, 230.638 257.500 C 230.955 256.675, 230.788 256, 230.268 256 C 229.297 256, 227 251.708, 227 249.894 C 227 249.337, 227.450 249.160, 228 249.500 C 229.721 250.564, 229.090 248.788, 227.250 247.392 C 226.287 246.661, 223.913 246.049, 221.973 246.032 C 220.032 246.014, 217.444 245.299, 216.221 244.442 C 214.997 243.585, 213.547 243.162, 212.998 243.501 C 212.449 243.840, 212 243.615, 212 243 C 212 242.385, 211.482 242.202, 210.849 242.593 C 210.216 242.985, 206.841 243.381, 203.349 243.474 L 197 243.644 196.992 240.572 C 196.982 237.093, 199.781 224.425, 201.159 221.709 C 201.659 220.724, 201.820 219.517, 201.517 219.027 C 200.857 217.959, 205.786 206.814, 207.382 205.765 C 207.997 205.361, 208.203 205.024, 207.841 205.015 C 207.478 205.007, 207.798 202.663, 208.551 199.806 C 209.848 194.891, 209.501 190.074, 207.469 184.779 C 206.339 181.834, 227.400 203.498, 229.558 207.500 C 230.745 209.700, 232.679 213.201, 233.858 215.280 C 235.036 217.360, 235.985 219.835, 235.967 220.780 C 235.922 223.075, 232.565 227, 230.646 227 C 229.803 227, 228.525 227.835, 227.807 228.857 C 227.088 229.878, 225.487 231.033, 224.249 231.424 C 221.308 232.353, 219.604 235.430, 221.271 236.800 C 223.987 239.031, 228.716 238.444, 235.414 235.044 C 243.003 231.192, 245.445 228.366, 246.466 222.250 C 246.856 219.912, 247.638 218, 248.203 218 C 249.732 218, 248.250 208.084, 245.523 200.068 C 243.054 192.809, 238.952 184.786, 236.031 181.500 C 235.052 180.400, 233.071 177.347, 231.627 174.717 C 230.183 172.086, 228.339 168.920, 227.528 167.683 C 226.717 166.445, 225.900 164.429, 225.713 163.203 C 225.526 161.976, 224.839 160.439, 224.186 159.786 C 223.534 159.134, 222.990 158.127, 222.978 157.550 C 222.966 156.972, 222.076 155.375, 221 154 C 219.924 152.625, 219.034 150.713, 219.022 149.750 C 219.010 148.787, 218.277 148, 217.393 148 C 216.391 148, 215.998 147.447, 216.349 146.532 C 216.659 145.725, 216.475 144.794, 215.940 144.463 C 215.405 144.132, 215.218 143.456, 215.525 142.960 C 215.831 142.464, 215.388 140.718, 214.541 139.079 C 212.587 135.300, 212.608 134.940, 214.750 135.613 C 216.244 136.083, 216.216 135.932, 214.559 134.582 C 213.347 133.594, 213.111 133, 213.931 133 C 214.986 133, 214.999 132.704, 214 131.500 C 213.315 130.675, 213.024 130, 213.353 130 C 213.682 130, 213.541 128.923, 213.041 127.607 C 211.976 124.808, 212.779 120.746, 214.221 121.636 C 214.847 122.023, 214.935 121.372, 214.460 119.875 C 214.045 118.569, 213.807 114.125, 213.931 110 C 214.149 102.757, 214.320 100.789, 215.585 90.942 C 216.066 87.203, 215.652 85.318, 213.283 80.442 C 211.695 77.174, 209.583 73.267, 208.589 71.760 C 206.907 69.209, 206.900 68.976, 208.476 68.371 C 209.822 67.854, 209.895 67.549, 208.834 66.876 C 207.754 66.192, 207.749 66.028, 208.809 66.015 C 209.529 66.007, 209.862 65.586, 209.550 65.081 C 209.237 64.575, 209.628 63.515, 210.419 62.724 C 211.209 61.934, 211.725 60.098, 211.565 58.644 C 211.406 57.190, 211.718 56, 212.260 56 C 212.902 56, 212.899 55.564, 212.251 54.750 C 211.704 54.063, 211.424 52.712, 211.628 51.750 C 211.833 50.788, 212.167 49.212, 212.372 48.250 C 212.576 47.288, 212.296 45.938, 211.749 45.250 C 211.202 44.563, 211.090 44, 211.500 44 C 211.910 44, 211.690 43.331, 211.011 42.513 C 210.322 41.683, 210.046 39.952, 210.387 38.596 C 210.765 37.088, 210.523 35.974, 209.748 35.662 C 208.829 35.291, 208.861 35.137, 209.872 35.079 C 211.036 35.012, 211.036 34.748, 209.872 33.345 C 209.118 32.434, 208.481 30.297, 208.458 28.595 C 208.423 26.091, 208.045 25.566, 206.477 25.847 C 204.806 26.146, 204.880 25.894, 207.020 24.013 C 208.554 22.664, 208.870 22.029, 207.848 22.347 C 205.512 23.075, 204.982 22.178, 206.065 19.329 C 206.910 17.105, 206.794 16.930, 204.876 17.539 C 203.300 18.040, 202.954 17.884, 203.539 16.937 C 204.104 16.023, 203.844 15.846, 202.624 16.314 C 201.538 16.731, 201.021 16.520, 201.198 15.734 C 201.559 14.136, 196.086 8, 194.300 8 C 193.196 8, 193.159 7.563, 194.110 5.750 L 195.291 3.500 192.976 5.500 C 190.961 7.241, 190.744 7.273, 191.299 5.750 C 191.962 3.933, 190.558 3.288, 189.537 4.940 C 188.765 6.189, 183.005 4.178, 182.985 2.652 C 182.976 2.014, 182.537 2.169, 182 3 C 181.467 3.825, 181.024 3.990, 181.015 3.367 C 181.007 2.744, 179.650 2.289, 178 2.356 C 176.350 2.424, 175 2.709, 175 2.989 M 108.964 208.164 C 107.819 210.397, 107.846 210.424, 109.574 208.774 C 110.568 207.824, 111.107 206.773, 110.771 206.438 C 110.436 206.103, 109.623 206.880, 108.964 208.164" fill="none" stroke="#000" stroke-width="2px" fill-rule="evenodd"/>
</svg>
