<svg xmlns="http://www.w3.org/2000/svg" width="500" height="400" viewBox="0 0 500 400" version="1.1">
	<path d="M 153.500 9.613 C 147.098 11.367, 142.335 13.493, 137 16.976 C 132.875 19.670, 125.732 23.686, 121.126 25.901 C 115.668 28.527, 111.590 31.287, 109.414 33.829 C 107.578 35.975, 101.896 40.575, 96.788 44.053 C 91.679 47.532, 84.350 53.351, 80.500 56.985 C 76.650 60.619, 70.940 65.478, 67.812 67.782 C 64.683 70.087, 58.945 75.777, 55.061 80.428 C 51.176 85.078, 47.657 89.094, 47.239 89.352 C 46.822 89.610, 41.726 87.241, 35.914 84.089 C 19.472 75.169, 14.481 73.602, 10.055 75.971 C 6.874 77.673, 5 84.321, 5 93.905 C 5 104.516, 6.987 111.456, 11.550 116.787 C 13.337 118.875, 15.485 122.225, 16.324 124.232 C 17.597 127.279, 18.479 127.991, 21.674 128.551 C 25.742 129.263, 31.645 132.663, 32.458 134.763 C 32.992 136.142, 30.486 155.369, 29.038 161 C 27.784 165.876, 26.006 181.471, 26.003 187.628 C 26.001 190.448, 25.325 194.371, 24.500 196.346 C 22.221 201.800, 22.588 204.571, 25.902 206.930 C 29.871 209.757, 33.448 221.267, 32.682 228.750 L 32.145 234 39.587 234 C 46.600 234, 47.235 234.189, 50.601 237.274 C 54.778 241.101, 56.312 246.943, 54.994 254 C 54.490 256.695, 54.559 260.419, 55.167 263.284 C 56.057 267.486, 56.807 268.490, 61.327 271.534 C 64.157 273.440, 67.609 275, 68.996 275 C 70.436 275, 72.055 275.859, 72.768 277 C 73.455 278.100, 74.600 279, 75.313 279 C 76.025 279, 78.725 280.342, 81.312 281.983 C 83.899 283.623, 87.137 285.247, 88.508 285.591 C 91.566 286.359, 91.589 286.688, 88.750 289.056 L 86.500 290.933 89.185 290.967 C 96.585 291.058, 99.161 294.760, 97.067 302.291 C 96.108 305.738, 96.174 307.285, 97.435 310.840 C 98.516 313.887, 98.681 315.728, 97.988 317.022 C 96.825 319.196, 96.014 319.453, 85.397 321.010 L 77.293 322.199 73.070 328.622 C 70.748 332.155, 68.493 336.282, 68.059 337.794 C 67.086 341.188, 67.938 355.844, 69.152 356.594 C 69.640 356.896, 72.732 356.210, 76.023 355.071 C 82.312 352.895, 91.450 352.301, 92.500 354 C 92.840 354.550, 93.991 355, 95.059 355 C 96.558 355, 97 355.698, 97 358.066 C 97 362.112, 98.362 364.478, 102.275 367.231 C 105.176 369.272, 105.500 370.003, 105.500 374.500 L 105.500 379.500 109.718 379.806 C 112.037 379.974, 115.484 379.684, 117.376 379.162 L 120.816 378.212 120.747 382.790 C 120.687 386.770, 121.101 387.721, 123.921 390.075 C 128.227 393.670, 132.018 394.296, 140.867 392.873 C 146.268 392.004, 149.381 390.862, 152.530 388.594 C 157.686 384.880, 171.975 372.796, 180.405 365.019 L 186.500 359.397 191.500 360.603 C 199.537 362.540, 203.656 362.221, 210.832 359.104 C 219.171 355.482, 224.122 354.674, 230.500 355.894 C 235.087 356.772, 236.151 356.570, 243.389 353.442 C 247.728 351.566, 253.398 349.751, 255.989 349.407 C 260.884 348.758, 277.441 351.420, 279.713 353.221 C 280.531 353.871, 282.657 353.337, 286.248 351.579 C 293.974 347.799, 299.824 347.793, 305.217 351.559 L 309.500 354.550 315.500 352.388 C 324.378 349.189, 331.506 348.651, 340.137 350.527 C 353.879 353.516, 354.316 353.509, 361.438 350.176 C 367.015 347.566, 368.449 347.260, 370.978 348.142 C 372.615 348.713, 376.563 349.027, 379.750 348.840 L 385.545 348.500 385.172 351.674 C 384.900 353.984, 385.627 356.051, 387.843 359.272 C 393.187 367.039, 394.476 367.498, 411 367.515 C 423.440 367.527, 426.534 367.862, 432.778 369.871 C 442.987 373.155, 445.862 372.456, 451.055 365.426 C 457.043 357.320, 462.386 353.941, 475.826 349.759 C 484.620 347.023, 488.433 345.294, 491.157 342.808 C 498.380 336.218, 500.243 324.793, 497.594 303.331 C 495.274 284.531, 493.909 281.291, 483.523 269.925 C 477.738 263.593, 470.743 250.388, 468.468 241.500 C 467.623 238.200, 466.271 229.318, 465.463 221.763 C 463.382 202.302, 461.400 198.066, 444.512 177 C 434.773 164.851, 430.786 159.158, 421.671 144.386 C 417.768 138.061, 413.345 132.706, 407.216 126.886 C 394.274 114.595, 358.790 89.802, 331.589 74.042 C 325.587 70.565, 319.113 66.659, 317.201 65.362 C 315.289 64.064, 310.744 62.115, 307.102 61.030 C 298.775 58.550, 290.962 53.867, 280.607 45.147 C 266.716 33.449, 252.213 24.727, 234.640 17.504 C 221.947 12.286, 212.611 10.156, 195.089 8.477 C 173.360 6.395, 164.345 6.641, 153.500 9.613" fill="none" stroke="#000" stroke-width="2px" fill-rule="evenodd"/>
</svg>
