<?xml version="1.0" encoding="UTF-8" standalone="no"?>
<!-- Created with Inkscape (http://www.inkscape.org/) -->

<svg
   xmlns:dc="http://purl.org/dc/elements/1.1/"
   xmlns:cc="http://creativecommons.org/ns#"
   xmlns:rdf="http://www.w3.org/1999/02/22-rdf-syntax-ns#"
   xmlns:svg="http://www.w3.org/2000/svg"
   xmlns="http://www.w3.org/2000/svg"
   xmlns:xlink="http://www.w3.org/1999/xlink"
   xmlns:sodipodi="http://sodipodi.sourceforge.net/DTD/sodipodi-0.dtd"
   xmlns:inkscape="http://www.inkscape.org/namespaces/inkscape"
   width="132.32083"
   height="193.37921"
   viewBox="0 0 35.009886 51.164918"
   version="1.1"
   id="svg1161"
   inkscape:version="0.92.4 (5da689c313, 2019-01-14)"
   sodipodi:docname="0.svg">
  <defs
     id="defs1155">
    <clipPath
       id="SVGID_2_">
      <use
         height="100%"
         width="100%"
         y="0"
         x="0"
         style="overflow:visible"
         xlink:href="#SVGID_1_"
         overflow="visible"
         id="use15" />
    </clipPath>
    <clipPath
       id="SVGID_4_">
      <use
         height="100%"
         width="100%"
         y="0"
         x="0"
         style="overflow:visible"
         xlink:href="#SVGID_3_"
         overflow="visible"
         id="use91" />
    </clipPath>
    <clipPath
       id="SVGID_6_">
      <use
         height="100%"
         width="100%"
         y="0"
         x="0"
         style="overflow:visible"
         xlink:href="#SVGID_5_"
         overflow="visible"
         id="use193" />
    </clipPath>
    <clipPath
       id="SVGID_8_">
      <use
         height="100%"
         width="100%"
         y="0"
         x="0"
         style="overflow:visible"
         xlink:href="#SVGID_7_"
         overflow="visible"
         id="use251" />
    </clipPath>
    <clipPath
       id="SVGID_10_">
      <use
         height="100%"
         width="100%"
         y="0"
         x="0"
         style="overflow:visible"
         xlink:href="#SVGID_9_"
         overflow="visible"
         id="use335" />
    </clipPath>
    <clipPath
       id="SVGID_12_">
      <use
         height="100%"
         width="100%"
         y="0"
         x="0"
         style="overflow:visible"
         xlink:href="#SVGID_11_"
         overflow="visible"
         id="use453" />
    </clipPath>
    <clipPath
       id="SVGID_14_">
      <use
         height="100%"
         width="100%"
         y="0"
         x="0"
         style="overflow:visible"
         xlink:href="#SVGID_13_"
         overflow="visible"
         id="use597" />
    </clipPath>
    <clipPath
       id="SVGID_16_">
      <use
         height="100%"
         width="100%"
         y="0"
         x="0"
         style="overflow:visible"
         xlink:href="#SVGID_15_"
         overflow="visible"
         id="use679" />
    </clipPath>
    <clipPath
       id="SVGID_18_">
      <use
         height="100%"
         width="100%"
         y="0"
         x="0"
         style="overflow:visible"
         xlink:href="#SVGID_17_"
         overflow="visible"
         id="use785" />
    </clipPath>
    <clipPath
       id="SVGID_20_">
      <use
         height="100%"
         width="100%"
         y="0"
         x="0"
         style="overflow:visible"
         xlink:href="#SVGID_19_"
         overflow="visible"
         id="use837" />
    </clipPath>
    <clipPath
       id="SVGID_22_">
      <use
         height="100%"
         width="100%"
         y="0"
         x="0"
         style="overflow:visible"
         xlink:href="#SVGID_21_"
         overflow="visible"
         id="use915" />
    </clipPath>
    <clipPath
       id="SVGID_24_">
      <use
         height="100%"
         width="100%"
         y="0"
         x="0"
         style="overflow:visible"
         xlink:href="#SVGID_23_"
         overflow="visible"
         id="use1009" />
    </clipPath>
    <clipPath
       id="SVGID_26_">
      <use
         height="100%"
         width="100%"
         y="0"
         x="0"
         style="overflow:visible"
         xlink:href="#SVGID_25_"
         overflow="visible"
         id="use1129" />
    </clipPath>
    <clipPath
       id="SVGID_28_">
      <use
         height="100%"
         width="100%"
         y="0"
         x="0"
         style="overflow:visible"
         xlink:href="#SVGID_27_"
         overflow="visible"
         id="use1177" />
    </clipPath>
    <path
       inkscape:connector-curvature="0"
       id="SVGID_1_"
       d="m 85.61,63.771 c 0,0 9.11,-7.035 22.765,-12.285 6.524,-2.508 21.116,-6.162 22.188,-5.343 1.133,1.889 5.288,20.02 5.415,28.834 0.125,8.814 -5.667,28.584 -7.177,29.34 -1.511,0.754 -22.784,-5.016 -28.585,-8.31 C 94.676,92.859 89.593,88.308 85.611,83.54 85.61,80.015 85.61,63.771 85.61,63.771 Z" />
    <path
       inkscape:connector-curvature="0"
       id="SVGID_3_"
       d="m 66.218,63.771 c 0,0 -9.109,-7.035 -22.765,-12.285 -6.523,-2.508 -21.116,-6.162 -22.186,-5.343 -1.133,1.889 -5.288,20.021 -5.414,28.836 -0.127,8.812 5.666,28.582 7.176,29.338 1.511,0.754 22.782,-5.016 28.583,-8.31 5.54,-3.148 10.624,-7.699 14.605,-12.467 0.001,-3.525 0.001,-19.769 0.001,-19.769 z" />
    <path
       inkscape:connector-curvature="0"
       id="SVGID_5_"
       d="m 216.268,64.571 c 0,0 -9.109,-7.034 -22.765,-12.285 -6.523,-2.509 -21.116,-6.162 -22.187,-5.343 -1.133,1.889 -5.288,20.021 -5.414,28.835 -0.127,8.814 5.666,28.583 7.176,29.339 1.511,0.755 22.782,-5.014 28.583,-8.311 5.54,-3.147 10.624,-7.697 14.605,-12.465 0.002,-3.527 0.002,-19.77 0.002,-19.77 z" />
    <path
       inkscape:connector-curvature="0"
       id="SVGID_7_"
       d="m 235.66,64.57 c 0,0 9.11,-7.034 22.765,-12.285 6.524,-2.509 21.116,-6.162 22.188,-5.343 1.133,1.888 5.288,20.021 5.415,28.835 0.125,8.814 -5.667,28.583 -7.177,29.339 -1.511,0.755 -22.784,-5.014 -28.585,-8.311 -5.54,-3.148 -10.623,-7.697 -14.605,-12.466 C 235.66,80.814 235.66,64.57 235.66,64.57 Z" />
    <path
       inkscape:connector-curvature="0"
       id="SVGID_9_"
       d="m 365.769,66.058 c 0,0 -9.111,-7.032 -22.767,-12.284 -6.523,-2.508 -21.116,-6.161 -22.186,-5.343 -1.133,1.89 -5.289,20.021 -5.415,28.835 -0.126,8.814 5.667,28.583 7.178,29.338 1.51,0.757 22.782,-5.013 28.583,-8.31 5.54,-3.148 10.624,-7.696 14.606,-12.465 0.001,-3.526 0.001,-19.771 0.001,-19.771 z" />
    <path
       inkscape:connector-curvature="0"
       id="SVGID_11_"
       d="m 385.16,66.058 c 0,0 9.111,-7.034 22.766,-12.284 6.524,-2.508 21.116,-6.161 22.187,-5.343 1.133,1.89 5.288,20.021 5.416,28.835 0.125,8.814 -5.667,28.583 -7.178,29.338 -1.511,0.757 -22.782,-5.014 -28.585,-8.31 -5.54,-3.148 -10.623,-7.696 -14.605,-12.465 -10e-4,-3.526 -10e-4,-19.771 -10e-4,-19.771 z" />
    <path
       inkscape:connector-curvature="0"
       id="SVGID_13_"
       d="m 515.153,66.489 c 0,0 -9.11,-7.035 -22.766,-12.286 -6.523,-2.509 -21.116,-6.162 -22.186,-5.343 -1.133,1.89 -5.289,20.021 -5.415,28.834 -0.125,8.814 5.667,28.583 7.178,29.339 1.51,0.754 22.782,-5.014 28.583,-8.311 5.539,-3.147 10.624,-7.697 14.606,-12.465 0,-3.525 0,-19.768 0,-19.768 z" />
    <path
       inkscape:connector-curvature="0"
       id="SVGID_15_"
       d="m 534.544,66.489 c 0,0 9.112,-7.035 22.766,-12.286 6.525,-2.509 21.116,-6.162 22.188,-5.343 1.133,1.888 5.287,20.021 5.415,28.834 0.125,8.814 -5.667,28.583 -7.178,29.339 -1.51,0.754 -22.782,-5.015 -28.584,-8.311 -5.54,-3.147 -10.622,-7.697 -14.606,-12.465 -10e-4,-3.525 -10e-4,-19.768 -10e-4,-19.768 z" />
    <path
       inkscape:connector-curvature="0"
       id="SVGID_17_"
       d="m 666.023,66.498 c 0,0 -9.111,-7.035 -22.766,-12.285 -6.523,-2.509 -21.116,-6.162 -22.186,-5.343 -1.133,1.888 -5.289,20.02 -5.415,28.834 -0.126,8.814 5.667,28.583 7.178,29.338 1.511,0.755 22.782,-5.014 28.583,-8.31 5.539,-3.148 10.624,-7.698 14.606,-12.465 0,-3.527 0,-19.769 0,-19.769 z" />
    <path
       inkscape:connector-curvature="0"
       id="SVGID_19_"
       d="m 685.413,66.497 c 0,0 9.111,-7.034 22.766,-12.284 6.525,-2.509 21.116,-6.162 22.188,-5.343 1.133,1.888 5.287,20.02 5.415,28.834 0.125,8.814 -5.667,28.583 -7.178,29.338 -1.51,0.755 -22.782,-5.014 -28.584,-8.31 -5.54,-3.149 -10.623,-7.698 -14.606,-12.465 -10e-4,-3.527 -10e-4,-19.77 -10e-4,-19.77 z" />
    <path
       inkscape:connector-curvature="0"
       id="SVGID_21_"
       d="m 814.768,66.498 c 0,0 -9.109,-7.035 -22.765,-12.286 -6.523,-2.509 -21.116,-6.161 -22.186,-5.343 -1.133,1.888 -5.288,20.021 -5.414,28.835 -0.127,8.814 5.666,28.583 7.176,29.339 1.511,0.756 22.782,-5.014 28.583,-8.31 5.54,-3.148 10.624,-7.697 14.605,-12.466 10e-4,-3.526 10e-4,-19.769 10e-4,-19.769 z" />
    <path
       inkscape:connector-curvature="0"
       id="SVGID_23_"
       d="m 834.16,66.498 c 0,0 9.11,-7.035 22.765,-12.285 6.524,-2.509 21.116,-6.162 22.188,-5.343 1.133,1.889 5.288,20.021 5.415,28.835 0.125,8.814 -5.667,28.584 -7.177,29.339 -1.511,0.756 -22.784,-5.015 -28.585,-8.31 -5.54,-3.148 -10.622,-7.697 -14.605,-12.466 -10e-4,-3.527 -10e-4,-19.77 -10e-4,-19.77 z" />
    <path
       inkscape:connector-curvature="0"
       id="SVGID_25_"
       d="m 984.75,66.772 c 0,0 9.11,-7.035 22.765,-12.285 6.524,-2.509 21.116,-6.161 22.187,-5.343 1.133,1.889 5.288,20.021 5.414,28.835 0.126,8.814 -5.666,28.584 -7.177,29.34 -1.511,0.755 -22.782,-5.015 -28.583,-8.311 -5.54,-3.148 -10.624,-7.697 -14.606,-12.466 0,-3.527 0,-19.77 0,-19.77 z" />
    <path
       inkscape:connector-curvature="0"
       id="SVGID_27_"
       d="m 965.359,66.772 c 0,0 -9.11,-7.034 -22.765,-12.285 -6.524,-2.509 -21.116,-6.162 -22.187,-5.343 -1.133,1.889 -5.289,20.021 -5.415,28.835 -0.126,8.814 5.667,28.583 7.178,29.339 1.511,0.755 22.782,-5.015 28.583,-8.311 5.54,-3.148 10.624,-7.697 14.606,-12.466 0,-3.526 0,-19.769 0,-19.769 z" />
    <radialGradient
       id="SVGID_1_-2"
       cx="37.398701"
       cy="73.437302"
       r="49.383499"
       gradientUnits="userSpaceOnUse">
      <stop
         offset="0"
         style="stop-color:#FFFFFF"
         id="stop52" />
      <stop
         offset="0.9394"
         style="stop-color:#FFFFFF;stop-opacity:0"
         id="stop54" />
    </radialGradient>
    <radialGradient
       id="SVGID_2_-2"
       cx="188.7619"
       cy="73.264801"
       r="49.383499"
       gradientUnits="userSpaceOnUse">
      <stop
         offset="0"
         style="stop-color:#FFFFFF"
         id="stop219" />
      <stop
         offset="0.9394"
         style="stop-color:#FFFFFF;stop-opacity:0"
         id="stop221" />
    </radialGradient>
    <radialGradient
       id="SVGID_3_-7"
       cx="338.28101"
       cy="72.9953"
       r="49.383099"
       gradientUnits="userSpaceOnUse">
      <stop
         offset="0"
         style="stop-color:#FFFFFF"
         id="stop288" />
      <stop
         offset="0.9394"
         style="stop-color:#FFFFFF;stop-opacity:0"
         id="stop290" />
    </radialGradient>
    <radialGradient
       id="SVGID_4_-1"
       cx="486.7757"
       cy="72.0028"
       r="49.3834"
       gradientUnits="userSpaceOnUse">
      <stop
         offset="0"
         style="stop-color:#FFFFFF"
         id="stop341" />
      <stop
         offset="0.9394"
         style="stop-color:#FFFFFF;stop-opacity:0"
         id="stop343" />
    </radialGradient>
    <radialGradient
       id="SVGID_5_-9"
       cx="637.45532"
       cy="70.776299"
       r="49.383499"
       gradientUnits="userSpaceOnUse">
      <stop
         offset="0"
         style="stop-color:#FFFFFF"
         id="stop544" />
      <stop
         offset="0.9394"
         style="stop-color:#FFFFFF;stop-opacity:0"
         id="stop546" />
    </radialGradient>
    <radialGradient
       id="SVGID_6_-4"
       cx="790.32172"
       cy="73.071198"
       r="49.383099"
       gradientUnits="userSpaceOnUse">
      <stop
         offset="0"
         style="stop-color:#FFFFFF"
         id="stop753" />
      <stop
         offset="0.9394"
         style="stop-color:#FFFFFF;stop-opacity:0"
         id="stop755" />
    </radialGradient>
    <radialGradient
       id="SVGID_7_-1"
       cx="937.16339"
       cy="72.3834"
       r="49.382999"
       gradientUnits="userSpaceOnUse">
      <stop
         offset="0"
         style="stop-color:#FFFFFF"
         id="stop916" />
      <stop
         offset="0.9394"
         style="stop-color:#FFFFFF;stop-opacity:0"
         id="stop918" />
    </radialGradient>
    <radialGradient
       id="SVGID_8_-1"
       cx="1087.8015"
       cy="72.309998"
       r="49.383598"
       gradientUnits="userSpaceOnUse">
      <stop
         offset="0"
         style="stop-color:#FFFFFF"
         id="stop947" />
      <stop
         offset="0.9394"
         style="stop-color:#FFFFFF;stop-opacity:0"
         id="stop949" />
    </radialGradient>
  </defs>
  <sodipodi:namedview
     id="base"
     pagecolor="#ffffff"
     bordercolor="#666666"
     borderopacity="1.0"
     inkscape:pageopacity="0.0"
     inkscape:pageshadow="2"
     inkscape:zoom="0.7"
     inkscape:cx="648.18032"
     inkscape:cy="20.034908"
     inkscape:document-units="mm"
     inkscape:current-layer="layer1"
     showgrid="false"
     units="px"
     inkscape:window-width="1920"
     inkscape:window-height="1017"
     inkscape:window-x="-8"
     inkscape:window-y="-8"
     inkscape:window-maximized="1"
     fit-margin-top="0"
     fit-margin-left="0"
     fit-margin-right="0"
     fit-margin-bottom="0" />
  <metadata
     id="metadata1158">
    <rdf:RDF>
      <cc:Work
         rdf:about="">
        <dc:format>image/svg+xml</dc:format>
        <dc:type
           rdf:resource="http://purl.org/dc/dcmitype/StillImage" />
        <dc:title></dc:title>
      </cc:Work>
    </rdf:RDF>
  </metadata>
  <g
     inkscape:label="Layer 1"
     inkscape:groupmode="layer"
     id="layer1"
     transform="translate(-10.666981,-245.3564)">
    <g
       transform="matrix(0.39726567,0,0,0.39726567,-3.5937243,240.74088)"
       id="g1288" />
    <g
       transform="matrix(0.39726567,0,0,0.39726567,-3.5937243,240.74088)"
       id="g1290" />
    <g
       transform="matrix(0.39726567,0,0,0.39726567,-3.5937243,240.74088)"
       id="g1292" />
    <g
       transform="matrix(0.39726567,0,0,0.39726567,-3.5937243,240.74088)"
       id="g1294" />
    <g
       transform="matrix(0.39726567,0,0,0.39726567,-3.5937243,240.74088)"
       id="g1296" />
    <g
       transform="matrix(0.39726567,0,0,0.39726567,-3.5937243,240.74088)"
       id="g1298" />
    <g
       transform="matrix(0.36466783,0,0,0.36466783,-1.0914262,244.55219)"
       id="Слой_9" />
    <g
       transform="matrix(0.36131508,0,0,0.36131508,-1.1693956,243.62221)"
       id="g1385" />
    <g
       transform="matrix(0.36131508,0,0,0.36131508,-1.1693956,243.62221)"
       id="g1387" />
    <g
       transform="matrix(0.36131508,0,0,0.36131508,-1.1693956,243.62221)"
       id="g1389" />
    <g
       transform="matrix(0.36131508,0,0,0.36131508,-1.1693956,243.62221)"
       id="g1391" />
    <g
       transform="matrix(0.36131508,0,0,0.36131508,-1.1693956,243.62221)"
       id="g1393" />
    <g
       transform="matrix(0.36131508,0,0,0.36131508,-1.1693956,243.62221)"
       id="g1395" />
    <g
       transform="matrix(0.36823052,0,0,0.36823052,0.68867046,243.49465)"
       id="g195">
      <g
         id="g26">
        <path
           style="clip-rule:evenodd;fill:#ffe6be;fill-rule:evenodd"
           inkscape:connector-curvature="0"
           d="m 107.404,46.919 c 1.093,0 1.981,0.889 1.981,1.981 0,1.111 -0.888,1.999 -1.981,1.999 -1.111,0 -1.997,-0.888 -1.997,-1.999 0,-1.092 0.886,-1.981 1.997,-1.981 z"
           id="path2" />
        <path
           style="clip-rule:evenodd;fill:#ffeed5;fill-rule:evenodd"
           inkscape:connector-curvature="0"
           d="m 107.011,47.244 c 0.718,0 1.315,0.581 1.315,1.315 0,0.735 -0.597,1.315 -1.315,1.315 -0.736,0 -1.333,-0.58 -1.333,-1.315 0,-0.734 0.597,-1.315 1.333,-1.315 z"
           id="path4" />
        <path
           style="clip-rule:evenodd;fill:#ffffff;fill-rule:evenodd"
           inkscape:connector-curvature="0"
           d="m 106.72,47.534 c 0.461,0 0.838,0.359 0.838,0.82 0,0.461 -0.377,0.82 -0.838,0.82 -0.444,0 -0.819,-0.359 -0.819,-0.82 0,-0.461 0.374,-0.82 0.819,-0.82 z"
           id="path6" />
        <path
           style="clip-rule:evenodd;fill:#ffe6be;fill-rule:evenodd"
           inkscape:connector-curvature="0"
           d="m 116.832,64.085 c 1.093,0 1.981,0.888 1.981,1.981 0,1.092 -0.888,1.981 -1.981,1.981 -1.11,0 -1.998,-0.889 -1.998,-1.981 0,-1.093 0.887,-1.981 1.998,-1.981 z"
           id="path8" />
        <path
           style="clip-rule:evenodd;fill:#ffeed5;fill-rule:evenodd"
           inkscape:connector-curvature="0"
           d="m 116.439,64.392 c 0.717,0 1.315,0.598 1.315,1.316 0,0.734 -0.598,1.332 -1.315,1.332 -0.733,0 -1.331,-0.598 -1.331,-1.332 0,-0.718 0.598,-1.316 1.331,-1.316 z"
           id="path10" />
        <path
           style="clip-rule:evenodd;fill:#ffffff;fill-rule:evenodd"
           inkscape:connector-curvature="0"
           d="m 116.149,64.683 c 0.462,0 0.836,0.376 0.836,0.819 0,0.461 -0.374,0.837 -0.836,0.837 -0.442,0 -0.82,-0.376 -0.82,-0.837 -10e-4,-0.444 0.377,-0.819 0.82,-0.819 z"
           id="path12" />
        <path
           style="clip-rule:evenodd;fill:#ffe6be;fill-rule:evenodd"
           inkscape:connector-curvature="0"
           d="m 39.476,47.825 c 1.093,0 1.982,0.888 1.982,1.982 0,1.11 -0.889,1.998 -1.982,1.998 -1.093,0 -1.982,-0.888 -1.982,-1.998 10e-4,-1.095 0.89,-1.982 1.982,-1.982 z"
           id="path14" />
        <path
           style="clip-rule:evenodd;fill:#ffeed5;fill-rule:evenodd"
           inkscape:connector-curvature="0"
           d="m 39.083,48.149 c 0.734,0 1.315,0.581 1.315,1.315 0,0.735 -0.581,1.315 -1.315,1.315 -0.734,0 -1.315,-0.581 -1.315,-1.315 10e-4,-0.734 0.582,-1.315 1.315,-1.315 z"
           id="path16" />
        <path
           style="clip-rule:evenodd;fill:#ffffff;fill-rule:evenodd"
           inkscape:connector-curvature="0"
           d="m 38.81,48.422 c 0.461,0 0.82,0.376 0.82,0.837 0,0.444 -0.359,0.82 -0.82,0.82 -0.461,0 -0.82,-0.376 -0.82,-0.82 0,-0.461 0.36,-0.837 0.82,-0.837 z"
           id="path18" />
        <path
           style="clip-rule:evenodd;fill:#ffe6be;fill-rule:evenodd"
           inkscape:connector-curvature="0"
           d="m 32.047,67.09 c 1.11,0 1.998,0.888 1.998,1.982 0,1.093 -0.888,1.981 -1.998,1.981 -1.093,0 -1.981,-0.888 -1.981,-1.981 0,-1.093 0.888,-1.982 1.981,-1.982 z"
           id="path20" />
        <path
           style="clip-rule:evenodd;fill:#ffeed5;fill-rule:evenodd"
           inkscape:connector-curvature="0"
           d="m 31.654,67.398 c 0.735,0 1.332,0.598 1.332,1.332 0,0.717 -0.598,1.315 -1.332,1.315 -0.717,0 -1.315,-0.598 -1.315,-1.315 0,-0.734 0.597,-1.332 1.315,-1.332 z"
           id="path22" />
        <path
           style="clip-rule:evenodd;fill:#ffffff;fill-rule:evenodd"
           inkscape:connector-curvature="0"
           d="m 31.38,67.688 c 0.461,0 0.82,0.376 0.82,0.837 0,0.445 -0.359,0.82 -0.82,0.82 -0.461,0 -0.819,-0.376 -0.819,-0.82 0,-0.46 0.358,-0.837 0.819,-0.837 z"
           id="path24" />
      </g>
      <path
         style="clip-rule:evenodd;fill:#e6e6e6;fill-rule:evenodd"
         inkscape:connector-curvature="0"
         d="m 74.631,144.004 c 26.18,0 47.533,-7.611 47.533,-16.944 0,-9.332 -21.353,-16.944 -47.533,-16.944 -26.18,0 -47.533,7.611 -47.533,16.944 0,9.332 21.353,16.944 47.533,16.944 z"
         id="path28" />
      <g
         id="g48">
        <path
           style="clip-rule:evenodd;fill:#f295a5;fill-rule:evenodd"
           inkscape:connector-curvature="0"
           d="m 106.906,122.374 c -1.873,5.02 -6.634,8.837 -12.473,11.159 -5.608,2.23 -12.557,3.04 -20.031,3.002 -7.473,-0.039 -14.421,-0.918 -20.021,-3.179 -5.818,-2.35 -10.533,-6.169 -12.359,-11.166 -2.481,-6.808 -4.969,-13.618 -7.453,-20.418 -2.487,-6.81 -4.981,-13.617 -7.462,-20.43 15.838,0 31.685,0 47.523,0 15.838,0 31.695,0 47.542,0 -2.548,6.844 -5.099,13.68 -7.643,20.519 -2.541,6.836 -5.085,13.675 -7.623,20.513 z"
           id="path30" />
        <g
           id="g46">
          <path
             style="clip-rule:evenodd;fill:#ed6f83;fill-rule:evenodd"
             inkscape:connector-curvature="0"
             d="m 74.536,102.808 v 0 c 2.443,0.012 4.327,2.433 4.192,5.37 -0.217,4.724 -0.423,9.448 -0.637,14.167 -0.214,4.718 -0.428,9.437 -0.646,14.155 -1.008,0.036 -2.016,0.041 -3.042,0.036 -1.027,-0.006 -2.044,-0.018 -3.052,-0.071 -0.171,-4.718 -0.361,-9.437 -0.532,-14.155 -0.171,-4.706 -0.357,-9.431 -0.532,-14.149 -0.11,-2.943 1.815,-5.353 4.249,-5.353 z"
             id="path32" />
          <path
             style="clip-rule:evenodd;fill:#ed6f83;fill-rule:evenodd"
             inkscape:connector-curvature="0"
             d="m 87.931,101.399 v 0 c 2.472,0.071 4.065,2.569 3.565,5.554 -0.803,4.788 -1.606,9.573 -2.415,14.356 -0.807,4.772 -1.607,9.555 -2.415,14.333 -1.986,0.349 -4.078,0.598 -6.245,0.717 0.428,-4.949 0.851,-9.899 1.274,-14.848 0.423,-4.95 0.861,-9.904 1.283,-14.854 0.252,-2.954 2.481,-5.317 4.953,-5.258 z"
             id="path34" />
          <path
             style="clip-rule:evenodd;fill:#ed6f83;fill-rule:evenodd"
             inkscape:connector-curvature="0"
             d="m 101.952,98.842 v 0 c 2.52,0.106 3.827,2.71 2.928,5.778 -1.363,4.652 -2.695,9.297 -4.05,13.942 -1.354,4.643 -2.709,9.282 -4.05,13.93 -2.129,1.059 -4.468,1.9 -6.978,2.504 1.075,-5.145 2.154,-10.282 3.223,-15.428 1.069,-5.143 2.145,-10.276 3.213,-15.428 0.626,-3.012 3.205,-5.393 5.714,-5.298 z"
             id="path36" />
          <path
             style="clip-rule:evenodd;fill:#ed6f83;fill-rule:evenodd"
             inkscape:connector-curvature="0"
             d="m 100.707,130.1 c 1.75,-5.317 3.523,-10.625 5.276,-15.937 1.754,-5.314 3.507,-10.627 5.266,-15.943 1.027,-3.103 4.031,-5.571 6.683,-5.506 -1.835,4.944 -3.679,9.887 -5.514,14.83 -1.835,4.944 -3.679,9.887 -5.514,14.83 -1.12,3.013 -3.345,5.642 -6.197,7.726 z"
             id="path38" />
          <path
             style="clip-rule:evenodd;fill:#ed6f83;fill-rule:evenodd"
             inkscape:connector-curvature="0"
             d="m 31.243,92.667 c 2.633,-0.065 5.612,2.397 6.616,5.488 1.723,5.297 3.427,10.578 5.143,15.872 1.715,5.291 3.432,10.591 5.143,15.872 -2.843,-2.09 -5.02,-4.712 -6.122,-7.708 -1.797,-4.925 -3.594,-9.845 -5.39,-14.764 -1.796,-4.921 -3.593,-9.841 -5.39,-14.76 z"
             id="path40" />
          <path
             style="clip-rule:evenodd;fill:#ed6f83;fill-rule:evenodd"
             inkscape:connector-curvature="0"
             d="m 47.157,98.783 v 0 c 2.52,-0.095 5.063,2.292 5.666,5.292 1.032,5.134 2.059,10.261 3.09,15.387 1.032,5.128 2.063,10.253 3.09,15.38 -2.5,-0.616 -4.848,-1.474 -6.949,-2.54 -1.312,-4.624 -2.625,-9.253 -3.936,-13.877 -1.312,-4.629 -2.625,-9.253 -3.935,-13.883 -0.868,-3.059 0.455,-5.659 2.974,-5.759 z"
             id="path42" />
          <path
             style="clip-rule:evenodd;fill:#ed6f83;fill-rule:evenodd"
             inkscape:connector-curvature="0"
             d="m 61.16,101.357 v 0 c 2.481,-0.047 4.675,2.309 4.905,5.258 0.387,4.949 0.774,9.898 1.16,14.847 0.384,4.931 0.76,9.875 1.15,14.824 -2.158,-0.124 -4.259,-0.391 -6.236,-0.77 -0.77,-4.771 -1.53,-9.537 -2.3,-14.309 -0.77,-4.772 -1.534,-9.543 -2.301,-14.314 -0.478,-2.978 1.16,-5.464 3.622,-5.536 z"
             id="path44" />
        </g>
      </g>
      <path
         style="clip-rule:evenodd;fill:#ecba70;fill-rule:evenodd"
         inkscape:connector-curvature="0"
         d="m 74.641,98.285 c 26.18,0 47.533,-7.612 47.533,-16.944 0,-9.332 -21.353,-16.944 -47.533,-16.944 -26.18,0 -47.533,7.611 -47.533,16.944 0,9.332 21.353,16.944 47.533,16.944 z"
         id="path50" />
      <radialGradient
         id="radialGradient1943"
         cx="37.398701"
         cy="73.437302"
         r="49.383499"
         gradientUnits="userSpaceOnUse">
        <stop
           offset="0"
           style="stop-color:#FFFFFF"
           id="stop1939" />
        <stop
           offset="0.9394"
           style="stop-color:#FFFFFF;stop-opacity:0"
           id="stop1941" />
      </radialGradient>
      <path
         style="clip-rule:evenodd;fill:url(#SVGID_1_-2);fill-rule:evenodd"
         inkscape:connector-curvature="0"
         d="m 82.712,98.041 c -6.639,11.297 -22.131,19.932 -41.238,22.634 -2.298,-6.303 -4.601,-12.606 -6.901,-18.902 -1.957,-5.359 -3.919,-10.716 -5.875,-16.076 5.392,7.247 23.917,12.589 45.945,12.589 2.751,-0.001 5.446,-0.085 8.069,-0.245 z"
         id="path57" />
      <path
         style="clip-rule:evenodd;fill:#fbcf8d;fill-rule:evenodd"
         inkscape:connector-curvature="0"
         d="m 74.641,34.662 c 23.805,0 43.104,16.656 43.104,37.202 0,29.345 -86.207,30.042 -86.207,0 C 31.537,51.318 50.835,34.662 74.641,34.662 Z"
         id="path59" />
      <g
         id="g79">
        <path
           style="clip-rule:evenodd;fill:#993a33;fill-rule:evenodd"
           inkscape:connector-curvature="0"
           d="m 51.069,32.71 c -6.511,5.095 -6.681,15.589 7.423,18.93 14.105,3.34 35.633,1.485 39.53,-7.61 C 101.92,34.937 66.311,20.782 51.069,32.71 Z"
           id="path61" />
        <path
           style="clip-rule:evenodd;fill:#993a33;fill-rule:evenodd"
           inkscape:connector-curvature="0"
           d="m 58.807,26.002 c -2.554,3.379 -0.274,8.652 3.397,10.42 5.011,2.412 18.93,4.268 25.24,10.949 6.31,6.681 15.032,6.496 15.032,-3.712 0,-5.837 -2.595,-14.88 -14.644,-21.051 -7.833,-4.011 -23.132,-4.4 -29.025,3.394 z"
           id="path63" />
        <path
           style="clip-rule:evenodd;fill:#993a33;fill-rule:evenodd"
           inkscape:connector-curvature="0"
           d="m 67.401,5.058 c 5.382,7.423 -6.31,11.135 -4.083,18.187 2.227,7.052 16.517,8.908 21.342,1.485 C 89.486,17.306 78.907,4.872 67.401,5.058 Z"
           id="path65" />
        <path
           style="clip-rule:evenodd;fill:#b4534b;fill-rule:evenodd"
           inkscape:connector-curvature="0"
           d="m 70.184,8.584 c 0.715,2.565 -1.14,3.725 -1.534,4.961 -1.129,3.544 3.601,5.251 4.255,0.618 0.328,-2.319 -0.536,-5.475 -2.721,-5.579 z"
           id="path67" />
        <path
           style="clip-rule:evenodd;fill:#b4534b;fill-rule:evenodd"
           inkscape:connector-curvature="0"
           d="m 60.392,27.303 c -2.437,10.548 18.72,8.791 25.365,15.5 1.266,1.278 2.545,2.522 1.793,-0.698 C 85.165,31.886 64.975,34.009 62.007,27.38 61.443,26.122 60.886,25.164 60.392,27.303 Z"
           id="path69" />
        <path
           style="clip-rule:evenodd;fill:#b4534b;fill-rule:evenodd"
           inkscape:connector-curvature="0"
           d="m 51.001,35.099 c -6.196,14.329 16.085,16.286 19.786,16.085 2.62,-0.143 2.756,-1.34 0.538,-1.548 C 63.451,48.897 51.548,43.331 52.28,35.234 52.448,33.379 51.606,33.701 51.001,35.099 Z"
           id="path71" />
        <path
           style="clip-rule:evenodd;fill:#6b1917;fill-rule:evenodd"
           inkscape:connector-curvature="0"
           d="m 63.204,22.841 c 0.033,0.134 0.071,0.268 0.113,0.404 2.227,7.052 16.517,8.908 21.342,1.485 0.649,-0.998 0.902,-1.897 1.12,-3.014 -5.555,10.061 -19.665,6.431 -22.575,1.125 z"
           id="path73" />
        <path
           style="clip-rule:evenodd;fill:#6b1917;fill-rule:evenodd"
           inkscape:connector-curvature="0"
           d="m 57.721,29.37 c 0.009,2.832 1.902,5.81 4.484,7.052 5.011,2.412 18.93,4.268 25.24,10.949 1.109,1.174 2.292,2.134 3.489,2.867 -5.757,-7.247 -7.688,-8.64 -19.022,-11.64 -11.335,-3 -11.892,-5.111 -14.191,-9.228 z"
           id="path75" />
        <path
           style="clip-rule:evenodd;fill:#6b1917;fill-rule:evenodd"
           inkscape:connector-curvature="0"
           d="m 47.182,43.304 c 1.081,3.5 4.56,6.737 11.31,8.336 9.783,2.317 23.136,2.133 31.702,-1.232 -8.883,1.572 -34.638,4.536 -43.012,-7.104 z"
           id="path77" />
      </g>
      <g
         id="g91">
        <path
           style="clip-rule:evenodd;fill:#ca223d;fill-rule:evenodd"
           inkscape:connector-curvature="0"
           d="m 95.054,18.872 c 2.839,1.852 6.425,2.73 6.714,7.753 0.29,5.022 -5.192,16.102 -17.603,8.711 -12.411,-7.392 -5.912,-19.192 0.693,-20.721 6.695,-1.549 8.162,2.931 10.196,4.257 z"
           id="path81" />
        <path
           style="clip-rule:evenodd;fill:#e12544;fill-rule:evenodd"
           inkscape:connector-curvature="0"
           d="m 94.625,18.56 c 2.246,1.465 5.084,2.16 5.313,6.134 0.23,3.974 -3.536,11.784 -13.356,5.935 -9.82,-5.848 -5.25,-14.228 -0.023,-15.438 5.297,-1.225 6.458,2.32 8.066,3.369 z"
           id="path83" />
        <ellipse
           style="clip-rule:evenodd;fill:#ca223d;fill-rule:evenodd"
           transform="matrix(0.6296,-0.777,0.777,0.6296,19.5275,80.5338)"
           cx="94.218002"
           cy="19.789"
           rx="0.99400002"
           ry="1.6390001"
           id="ellipse85" />
        <path
           style="clip-rule:evenodd;fill:#ec657e;fill-rule:evenodd"
           inkscape:connector-curvature="0"
           d="m 86.124,18.28 c 1.667,-0.755 5.498,-1.018 6.232,1.194 0.734,2.212 3.258,2.241 4.139,4.185 0.881,1.944 -0.207,1.835 -1.458,0.626 -1.25,-1.208 -2.775,-0.584 -4.193,-2.755 -1.418,-2.168 -6.13,-2.076 -4.72,-3.25 z"
           id="path87" />
        <path
           style="fill:#82a840"
           inkscape:connector-curvature="0"
           d="m 94.553,20.072 c -0.238,0.251 -0.52,0.205 -0.673,0.045 -0.15,-0.156 -0.136,-0.459 0.098,-0.715 5.661,-6.005 11.014,-13.194 19.724,-9.187 1.083,0.496 0.329,2.143 -0.754,1.647 -6.583,-3.903 -11.792,1.1 -18.395,8.21 z"
           id="path89" />
      </g>
      <path
         style="clip-rule:evenodd;fill:#993a33;fill-rule:evenodd"
         inkscape:connector-curvature="0"
         d="M 78.058,29.086 C 83.228,33.69 92.51,36.188 99.724,33.35 99.56,38.295 85.245,44.057 78.058,29.086 Z"
         id="path93" />
      <path
         style="clip-rule:evenodd;fill:#ffe6be;fill-rule:evenodd"
         inkscape:connector-curvature="0"
         d="m 37.978,60.434 c -13.034,28.444 33.835,30.098 41.62,29.349 5.512,-0.53 5.798,-2.869 1.133,-3.06 C 64.168,86.045 39.129,76.378 40.668,60.572 41.02,56.949 39.25,57.659 37.978,60.434 Z"
         id="path95" />
      <path
         style="clip-rule:evenodd;fill:#f7c77e;fill-rule:evenodd"
         inkscape:connector-curvature="0"
         d="m 114.376,63.129 c 7.566,15.745 -18.242,23.61 -22.761,23.633 -3.199,0.016 -3.366,-1.325 -0.657,-1.71 8.902,-1.345 20.116,-12.522 21.857,-21.685 0.397,-2.091 0.823,-1.774 1.561,-0.238 z"
         id="path97" />
      <path
         style="clip-rule:evenodd;fill:#ffe6be;fill-rule:evenodd"
         inkscape:connector-curvature="0"
         d="m 108.394,53.649 c 1.11,0 1.999,0.888 1.999,1.981 0,1.093 -0.888,1.981 -1.999,1.981 -1.093,0 -1.98,-0.888 -1.98,-1.981 0,-1.093 0.887,-1.981 1.98,-1.981 z"
         id="path99" />
      <path
         style="clip-rule:evenodd;fill:#ffeed5;fill-rule:evenodd"
         inkscape:connector-curvature="0"
         d="m 108.001,53.956 c 0.735,0 1.333,0.598 1.333,1.332 0,0.717 -0.598,1.315 -1.333,1.315 -0.718,0 -1.316,-0.598 -1.316,-1.315 0,-0.734 0.598,-1.332 1.316,-1.332 z"
         id="path101" />
      <path
         style="clip-rule:evenodd;fill:#ffffff;fill-rule:evenodd"
         inkscape:connector-curvature="0"
         d="m 107.729,54.247 c 0.461,0 0.818,0.376 0.818,0.819 0,0.461 -0.357,0.837 -0.818,0.837 -0.462,0 -0.82,-0.376 -0.82,-0.837 0,-0.444 0.358,-0.819 0.82,-0.819 z"
         id="path103" />
      <path
         style="clip-rule:evenodd;fill:#fbcf8d;fill-rule:evenodd"
         inkscape:connector-curvature="0"
         d="m 110.546,56.467 c 0.069,0.342 0.103,0.546 0.034,0.922 -0.239,1.247 -4.167,1.23 -4.406,-0.034 -0.069,-0.359 -0.103,-0.564 0.119,-0.888 1.144,0.683 2.939,0.649 4.253,0 z"
         id="path105" />
      <path
         style="clip-rule:evenodd;fill:#ffe6be;fill-rule:evenodd"
         inkscape:connector-curvature="0"
         d="m 100.469,71.395 c 1.11,0 1.999,0.888 1.999,1.998 0,1.093 -0.889,1.981 -1.999,1.981 -1.093,0 -1.981,-0.888 -1.981,-1.981 0,-1.11 0.888,-1.998 1.981,-1.998 z"
         id="path107" />
      <path
         style="clip-rule:evenodd;fill:#ffeed5;fill-rule:evenodd"
         inkscape:connector-curvature="0"
         d="m 100.076,71.719 c 0.734,0 1.332,0.598 1.332,1.315 0,0.734 -0.598,1.332 -1.332,1.332 -0.718,0 -1.315,-0.598 -1.315,-1.332 0,-0.717 0.597,-1.315 1.315,-1.315 z"
         id="path109" />
      <path
         style="clip-rule:evenodd;fill:#ffffff;fill-rule:evenodd"
         inkscape:connector-curvature="0"
         d="m 99.803,72.009 c 0.462,0 0.82,0.359 0.82,0.82 0,0.461 -0.358,0.82 -0.82,0.82 -0.46,0 -0.819,-0.359 -0.819,-0.82 0,-0.461 0.359,-0.82 0.819,-0.82 z"
         id="path111" />
      <path
         style="clip-rule:evenodd;fill:#fbcf8d;fill-rule:evenodd"
         inkscape:connector-curvature="0"
         d="m 102.622,74.23 c 0.067,0.324 0.102,0.546 0.033,0.905 -0.239,1.264 -4.168,1.246 -4.407,-0.018 -0.067,-0.358 -0.103,-0.563 0.12,-0.888 1.145,0.685 2.938,0.65 4.254,0.001 z"
         id="path113" />
      <path
         style="clip-rule:evenodd;fill:#ffe6be;fill-rule:evenodd"
         inkscape:connector-curvature="0"
         d="m 97.362,57.953 c 1.11,0 1.996,0.888 1.996,1.999 0,1.093 -0.887,1.981 -1.996,1.981 -1.094,0 -1.983,-0.888 -1.983,-1.981 0,-1.111 0.889,-1.999 1.983,-1.999 z"
         id="path115" />
      <path
         style="clip-rule:evenodd;fill:#ffeed5;fill-rule:evenodd"
         inkscape:connector-curvature="0"
         d="m 96.968,58.277 c 0.733,0 1.314,0.581 1.314,1.315 0,0.734 -0.581,1.332 -1.314,1.332 -0.735,0 -1.315,-0.598 -1.315,-1.332 0,-0.734 0.581,-1.315 1.315,-1.315 z"
         id="path117" />
      <path
         style="clip-rule:evenodd;fill:#ffffff;fill-rule:evenodd"
         inkscape:connector-curvature="0"
         d="m 96.695,58.568 c 0.461,0 0.82,0.359 0.82,0.82 0,0.461 -0.359,0.82 -0.82,0.82 -0.462,0 -0.82,-0.359 -0.82,-0.82 0.001,-0.461 0.359,-0.82 0.82,-0.82 z"
         id="path119" />
      <path
         style="clip-rule:evenodd;fill:#fbcf8d;fill-rule:evenodd"
         inkscape:connector-curvature="0"
         d="m 99.513,60.788 c 0.069,0.325 0.101,0.546 0.033,0.905 -0.238,1.264 -4.167,1.247 -4.406,-0.017 -0.069,-0.359 -0.101,-0.564 0.118,-0.888 1.146,0.683 2.939,0.649 4.255,0 z"
         id="path121" />
      <path
         style="clip-rule:evenodd;fill:#ffe6be;fill-rule:evenodd"
         inkscape:connector-curvature="0"
         d="m 77.002,79.832 c 1.093,0 1.98,0.888 1.98,1.981 0,1.093 -0.888,1.981 -1.98,1.981 -1.094,0 -1.982,-0.888 -1.982,-1.981 0,-1.092 0.888,-1.981 1.982,-1.981 z"
         id="path123" />
      <path
         style="clip-rule:evenodd;fill:#ffeed5;fill-rule:evenodd"
         inkscape:connector-curvature="0"
         d="m 76.608,80.14 c 0.736,0 1.316,0.598 1.316,1.332 0,0.717 -0.58,1.315 -1.316,1.315 -0.734,0 -1.331,-0.599 -1.331,-1.315 0,-0.734 0.597,-1.332 1.331,-1.332 z"
         id="path125" />
      <path
         style="clip-rule:evenodd;fill:#ffffff;fill-rule:evenodd"
         inkscape:connector-curvature="0"
         d="m 76.335,80.43 c 0.445,0 0.821,0.376 0.821,0.821 0,0.461 -0.376,0.837 -0.821,0.837 -0.461,0 -0.837,-0.376 -0.837,-0.837 0,-0.445 0.376,-0.821 0.837,-0.821 z"
         id="path127" />
      <path
         style="clip-rule:evenodd;fill:#fbcf8d;fill-rule:evenodd"
         inkscape:connector-curvature="0"
         d="m 79.154,82.65 c 0.068,0.342 0.084,0.547 0.018,0.923 -0.24,1.246 -4.151,1.229 -4.39,-0.035 -0.069,-0.359 -0.12,-0.564 0.119,-0.888 1.144,0.684 2.937,0.65 4.253,0 z"
         id="path129" />
      <path
         style="clip-rule:evenodd;fill:#ffe6be;fill-rule:evenodd"
         inkscape:connector-curvature="0"
         d="m 67.965,76.314 c 1.111,0 1.999,0.888 1.999,1.982 0,1.11 -0.889,1.999 -1.999,1.999 -1.092,0 -1.98,-0.888 -1.98,-1.999 0,-1.094 0.888,-1.982 1.98,-1.982 z"
         id="path131" />
      <path
         style="clip-rule:evenodd;fill:#ffeed5;fill-rule:evenodd"
         inkscape:connector-curvature="0"
         d="m 67.573,76.638 c 0.735,0 1.315,0.581 1.315,1.316 0,0.734 -0.58,1.315 -1.315,1.315 -0.734,0 -1.315,-0.581 -1.315,-1.315 0,-0.735 0.581,-1.316 1.315,-1.316 z"
         id="path133" />
      <path
         style="clip-rule:evenodd;fill:#ffffff;fill-rule:evenodd"
         inkscape:connector-curvature="0"
         d="m 67.3,76.928 c 0.46,0 0.819,0.359 0.819,0.82 0,0.461 -0.359,0.82 -0.819,0.82 -0.461,0 -0.82,-0.359 -0.82,-0.82 0,-0.46 0.359,-0.82 0.82,-0.82 z"
         id="path135" />
      <path
         style="clip-rule:evenodd;fill:#fbcf8d;fill-rule:evenodd"
         inkscape:connector-curvature="0"
         d="m 70.118,79.149 c 0.068,0.325 0.103,0.546 0.034,0.906 -0.239,1.264 -4.167,1.229 -4.407,-0.017 -0.068,-0.376 -0.103,-0.564 0.121,-0.888 1.143,0.665 2.937,0.631 4.252,-0.001 z"
         id="path137" />
      <path
         style="clip-rule:evenodd;fill:#ffe6be;fill-rule:evenodd"
         inkscape:connector-curvature="0"
         d="m 83.817,66.578 c 1.111,0 1.997,0.888 1.997,1.999 0,1.093 -0.887,1.981 -1.997,1.981 -1.094,0 -1.982,-0.888 -1.982,-1.981 0,-1.111 0.888,-1.999 1.982,-1.999 z"
         id="path139" />
      <path
         style="clip-rule:evenodd;fill:#ffeed5;fill-rule:evenodd"
         inkscape:connector-curvature="0"
         d="m 83.425,66.903 c 0.734,0 1.331,0.598 1.331,1.315 0,0.734 -0.598,1.332 -1.331,1.332 -0.736,0 -1.317,-0.598 -1.317,-1.332 0,-0.717 0.581,-1.315 1.317,-1.315 z"
         id="path141" />
      <path
         style="clip-rule:evenodd;fill:#ffffff;fill-rule:evenodd"
         inkscape:connector-curvature="0"
         d="m 83.15,67.193 c 0.462,0 0.82,0.359 0.82,0.82 0,0.46 -0.357,0.82 -0.82,0.82 -0.462,0 -0.82,-0.359 -0.82,-0.82 0.001,-0.461 0.359,-0.82 0.82,-0.82 z"
         id="path143" />
      <path
         style="clip-rule:evenodd;fill:#fbcf8d;fill-rule:evenodd"
         inkscape:connector-curvature="0"
         d="m 85.968,69.413 c 0.069,0.324 0.103,0.547 0.035,0.905 -0.24,1.264 -4.168,1.247 -4.407,-0.017 -0.069,-0.359 -0.102,-0.564 0.119,-0.889 1.146,0.684 2.938,0.651 4.253,10e-4 z"
         id="path145" />
      <path
         style="clip-rule:evenodd;fill:#ffe6be;fill-rule:evenodd"
         inkscape:connector-curvature="0"
         d="m 44.993,46.817 c 1.092,0 1.998,0.888 1.998,1.998 0,1.093 -0.906,1.981 -1.998,1.981 -1.093,0 -1.982,-0.888 -1.982,-1.981 10e-4,-1.11 0.889,-1.998 1.982,-1.998 z"
         id="path147" />
      <path
         style="clip-rule:evenodd;fill:#ffeed5;fill-rule:evenodd"
         inkscape:connector-curvature="0"
         d="m 44.601,47.141 c 0.734,0 1.315,0.581 1.315,1.315 0,0.734 -0.582,1.332 -1.315,1.332 -0.736,0 -1.315,-0.598 -1.315,-1.332 0,-0.734 0.579,-1.315 1.315,-1.315 z"
         id="path149" />
      <path
         style="clip-rule:evenodd;fill:#ffffff;fill-rule:evenodd"
         inkscape:connector-curvature="0"
         d="m 44.327,47.432 c 0.461,0 0.82,0.359 0.82,0.82 0,0.461 -0.359,0.82 -0.82,0.82 -0.462,0 -0.82,-0.359 -0.82,-0.82 0,-0.462 0.358,-0.82 0.82,-0.82 z"
         id="path151" />
      <path
         style="clip-rule:evenodd;fill:#fbcf8d;fill-rule:evenodd"
         inkscape:connector-curvature="0"
         d="m 47.145,49.652 c 0.069,0.325 0.103,0.546 0.035,0.905 -0.239,1.264 -4.168,1.247 -4.407,-0.017 -0.069,-0.358 -0.103,-0.563 0.119,-0.888 1.145,0.683 2.938,0.649 4.253,0 z"
         id="path153" />
      <path
         style="clip-rule:evenodd;fill:#ffe6be;fill-rule:evenodd"
         inkscape:connector-curvature="0"
         d="m 47.521,60.532 c 1.11,0 1.997,0.888 1.997,1.982 0,1.092 -0.887,1.98 -1.997,1.98 -1.093,0 -1.982,-0.888 -1.982,-1.98 10e-4,-1.094 0.889,-1.982 1.982,-1.982 z"
         id="path155" />
      <path
         style="clip-rule:evenodd;fill:#ffeed5;fill-rule:evenodd"
         inkscape:connector-curvature="0"
         d="m 47.129,60.839 c 0.734,0 1.331,0.598 1.331,1.332 0,0.718 -0.597,1.315 -1.331,1.315 -0.718,0 -1.315,-0.598 -1.315,-1.315 -10e-4,-0.734 0.597,-1.332 1.315,-1.332 z"
         id="path157" />
      <path
         style="clip-rule:evenodd;fill:#ffffff;fill-rule:evenodd"
         inkscape:connector-curvature="0"
         d="m 46.855,61.13 c 0.462,0 0.82,0.376 0.82,0.837 0,0.444 -0.359,0.82 -0.82,0.82 -0.461,0 -0.82,-0.376 -0.82,-0.82 0,-0.461 0.359,-0.837 0.82,-0.837 z"
         id="path159" />
      <path
         style="clip-rule:evenodd;fill:#fbcf8d;fill-rule:evenodd"
         inkscape:connector-curvature="0"
         d="m 49.673,63.35 c 0.086,0.342 0.103,0.547 0.034,0.923 -0.239,1.247 -4.167,1.23 -4.406,-0.034 -0.069,-0.359 -0.103,-0.564 0.136,-0.889 1.128,0.684 2.921,0.649 4.236,0 z"
         id="path161" />
      <path
         style="clip-rule:evenodd;fill:#ffe6be;fill-rule:evenodd"
         inkscape:connector-curvature="0"
         d="m 63.098,57.389 c 1.093,0 1.981,0.889 1.981,1.999 0,1.093 -0.888,1.981 -1.981,1.981 -1.094,0 -1.981,-0.888 -1.981,-1.981 0,-1.111 0.887,-1.999 1.981,-1.999 z"
         id="path163" />
      <path
         style="clip-rule:evenodd;fill:#ffeed5;fill-rule:evenodd"
         inkscape:connector-curvature="0"
         d="m 62.705,57.714 c 0.735,0 1.315,0.581 1.315,1.315 0,0.735 -0.58,1.315 -1.315,1.315 -0.734,0 -1.315,-0.581 -1.315,-1.315 0,-0.734 0.581,-1.315 1.315,-1.315 z"
         id="path165" />
      <path
         style="clip-rule:evenodd;fill:#ffffff;fill-rule:evenodd"
         inkscape:connector-curvature="0"
         d="m 62.432,58.004 c 0.461,0 0.819,0.358 0.819,0.82 0,0.461 -0.358,0.82 -0.819,0.82 -0.461,0 -0.82,-0.359 -0.82,-0.82 0,-0.462 0.359,-0.82 0.82,-0.82 z"
         id="path167" />
      <path
         style="clip-rule:evenodd;fill:#fbcf8d;fill-rule:evenodd"
         inkscape:connector-curvature="0"
         d="m 65.25,60.224 c 0.069,0.325 0.102,0.547 0.034,0.905 -0.256,1.264 -4.167,1.247 -4.406,-0.017 -0.068,-0.376 -0.102,-0.564 0.12,-0.888 1.144,0.684 2.937,0.649 4.252,0 z"
         id="path169" />
      <path
         style="clip-rule:evenodd;fill:#ffe6be;fill-rule:evenodd"
         inkscape:connector-curvature="0"
         d="m 51.637,71.771 c 1.093,0 1.981,0.888 1.981,1.981 0,1.093 -0.887,1.982 -1.981,1.982 -1.093,0 -1.981,-0.888 -1.981,-1.982 0,-1.093 0.888,-1.981 1.981,-1.981 z"
         id="path171" />
      <path
         style="clip-rule:evenodd;fill:#ffeed5;fill-rule:evenodd"
         inkscape:connector-curvature="0"
         d="m 51.244,72.078 c 0.735,0 1.315,0.598 1.315,1.332 0,0.718 -0.58,1.315 -1.315,1.315 -0.734,0 -1.315,-0.597 -1.315,-1.315 0,-0.734 0.582,-1.332 1.315,-1.332 z"
         id="path173" />
      <path
         style="clip-rule:evenodd;fill:#ffffff;fill-rule:evenodd"
         inkscape:connector-curvature="0"
         d="m 50.971,72.368 c 0.461,0 0.82,0.376 0.82,0.82 0,0.461 -0.359,0.837 -0.82,0.837 -0.461,0 -0.819,-0.376 -0.819,-0.837 0,-0.444 0.359,-0.82 0.819,-0.82 z"
         id="path175" />
      <path
         style="clip-rule:evenodd;fill:#fbcf8d;fill-rule:evenodd"
         inkscape:connector-curvature="0"
         d="m 53.79,74.589 c 0.069,0.342 0.103,0.547 0.034,0.923 -0.256,1.246 -4.167,1.229 -4.406,-0.034 -0.068,-0.359 -0.103,-0.563 0.12,-0.888 1.142,0.682 2.936,0.648 4.252,-0.001 z"
         id="path177" />
      <path
         style="clip-rule:evenodd;fill:#ffe6be;fill-rule:evenodd"
         inkscape:connector-curvature="0"
         d="m 97.377,85.059 c 1.111,0 1.999,0.888 1.999,1.981 0,1.11 -0.888,1.999 -1.999,1.999 -1.092,0 -1.98,-0.888 -1.98,-1.999 0,-1.093 0.888,-1.981 1.98,-1.981 z"
         id="path179" />
      <path
         style="clip-rule:evenodd;fill:#ffeed5;fill-rule:evenodd"
         inkscape:connector-curvature="0"
         d="m 96.985,85.383 c 0.735,0 1.332,0.58 1.332,1.315 0,0.734 -0.598,1.315 -1.332,1.315 -0.717,0 -1.315,-0.58 -1.315,-1.315 0,-0.734 0.598,-1.315 1.315,-1.315 z"
         id="path181" />
      <path
         style="clip-rule:evenodd;fill:#ffffff;fill-rule:evenodd"
         inkscape:connector-curvature="0"
         d="m 96.712,85.656 c 0.461,0 0.82,0.376 0.82,0.837 0,0.444 -0.359,0.82 -0.82,0.82 -0.461,0 -0.82,-0.376 -0.82,-0.82 0,-0.461 0.359,-0.837 0.82,-0.837 z"
         id="path183" />
      <path
         style="clip-rule:evenodd;fill:#fbcf8d;fill-rule:evenodd"
         inkscape:connector-curvature="0"
         d="m 99.53,87.877 c 0.069,0.342 0.103,0.564 0.035,0.922 -0.239,1.264 -4.167,1.23 -4.407,-0.017 -0.069,-0.376 -0.103,-0.581 0.12,-0.906 1.143,0.684 2.937,0.65 4.252,10e-4 z"
         id="path185" />
      <path
         style="clip-rule:evenodd;fill:#ffe6be;fill-rule:evenodd"
         inkscape:connector-curvature="0"
         d="m 40.655,80.106 c 1.093,0 1.981,0.888 1.981,1.982 0,1.11 -0.888,1.998 -1.981,1.998 -1.093,0 -1.981,-0.888 -1.981,-1.998 0,-1.094 0.888,-1.982 1.981,-1.982 z"
         id="path187" />
      <path
         style="clip-rule:evenodd;fill:#ffeed5;fill-rule:evenodd"
         inkscape:connector-curvature="0"
         d="m 40.262,80.43 c 0.734,0 1.315,0.581 1.315,1.315 0,0.734 -0.581,1.315 -1.315,1.315 -0.734,0 -1.315,-0.581 -1.315,-1.315 0,-0.734 0.581,-1.315 1.315,-1.315 z"
         id="path189" />
      <path
         style="clip-rule:evenodd;fill:#ffffff;fill-rule:evenodd"
         inkscape:connector-curvature="0"
         d="m 39.989,80.703 c 0.444,0 0.82,0.376 0.82,0.837 0,0.444 -0.376,0.82 -0.82,0.82 -0.461,0 -0.82,-0.376 -0.82,-0.82 0,-0.461 0.359,-0.837 0.82,-0.837 z"
         id="path191" />
      <path
         style="clip-rule:evenodd;fill:#fbcf8d;fill-rule:evenodd"
         inkscape:connector-curvature="0"
         d="m 42.807,82.924 c 0.068,0.342 0.103,0.564 0.034,0.922 -0.256,1.264 -4.167,1.23 -4.406,-0.017 -0.069,-0.376 -0.103,-0.58 0.119,-0.906 1.145,0.684 2.938,0.65 4.253,0.001 z"
         id="path193" />
    </g>
    <g
       transform="matrix(0.36823052,0,0,0.36823052,0.68867046,243.49465)"
       id="g1058" />
    <g
       transform="matrix(0.36823052,0,0,0.36823052,0.68867046,243.49465)"
       id="g1060" />
    <g
       transform="matrix(0.36823052,0,0,0.36823052,0.68867046,243.49465)"
       id="g1062" />
    <g
       transform="matrix(0.36823052,0,0,0.36823052,0.68867046,243.49465)"
       id="g1064" />
    <g
       transform="matrix(0.36823052,0,0,0.36823052,0.68867046,243.49465)"
       id="g1066" />
    <g
       transform="matrix(0.36823052,0,0,0.36823052,0.68867046,243.49465)"
       id="g1068" />
  </g>
</svg>
