<?xml version="1.0" encoding="UTF-8" standalone="no"?>
<!-- Created with Inkscape (http://www.inkscape.org/) -->

<svg
   xmlns:dc="http://purl.org/dc/elements/1.1/"
   xmlns:cc="http://creativecommons.org/ns#"
   xmlns:rdf="http://www.w3.org/1999/02/22-rdf-syntax-ns#"
   xmlns:svg="http://www.w3.org/2000/svg"
   xmlns="http://www.w3.org/2000/svg"
   xmlns:xlink="http://www.w3.org/1999/xlink"
   xmlns:sodipodi="http://sodipodi.sourceforge.net/DTD/sodipodi-0.dtd"
   xmlns:inkscape="http://www.inkscape.org/namespaces/inkscape"
   width="132.31943"
   height="175.17838"
   viewBox="0 0 35.009514 46.34928"
   version="1.1"
   id="svg1161"
   inkscape:version="0.92.4 (5da689c313, 2019-01-14)"
   sodipodi:docname="7.svg">
  <defs
     id="defs1155">
    <clipPath
       id="SVGID_2_">
      <use
         height="100%"
         width="100%"
         y="0"
         x="0"
         style="overflow:visible"
         xlink:href="#SVGID_1_"
         overflow="visible"
         id="use15" />
    </clipPath>
    <clipPath
       id="SVGID_4_">
      <use
         height="100%"
         width="100%"
         y="0"
         x="0"
         style="overflow:visible"
         xlink:href="#SVGID_3_"
         overflow="visible"
         id="use91" />
    </clipPath>
    <clipPath
       id="SVGID_6_">
      <use
         height="100%"
         width="100%"
         y="0"
         x="0"
         style="overflow:visible"
         xlink:href="#SVGID_5_"
         overflow="visible"
         id="use193" />
    </clipPath>
    <clipPath
       id="SVGID_8_">
      <use
         height="100%"
         width="100%"
         y="0"
         x="0"
         style="overflow:visible"
         xlink:href="#SVGID_7_"
         overflow="visible"
         id="use251" />
    </clipPath>
    <clipPath
       id="SVGID_10_">
      <use
         height="100%"
         width="100%"
         y="0"
         x="0"
         style="overflow:visible"
         xlink:href="#SVGID_9_"
         overflow="visible"
         id="use335" />
    </clipPath>
    <clipPath
       id="SVGID_12_">
      <use
         height="100%"
         width="100%"
         y="0"
         x="0"
         style="overflow:visible"
         xlink:href="#SVGID_11_"
         overflow="visible"
         id="use453" />
    </clipPath>
    <clipPath
       id="SVGID_14_">
      <use
         height="100%"
         width="100%"
         y="0"
         x="0"
         style="overflow:visible"
         xlink:href="#SVGID_13_"
         overflow="visible"
         id="use597" />
    </clipPath>
    <clipPath
       id="SVGID_16_">
      <use
         height="100%"
         width="100%"
         y="0"
         x="0"
         style="overflow:visible"
         xlink:href="#SVGID_15_"
         overflow="visible"
         id="use679" />
    </clipPath>
    <clipPath
       id="SVGID_18_">
      <use
         height="100%"
         width="100%"
         y="0"
         x="0"
         style="overflow:visible"
         xlink:href="#SVGID_17_"
         overflow="visible"
         id="use785" />
    </clipPath>
    <clipPath
       id="SVGID_20_">
      <use
         height="100%"
         width="100%"
         y="0"
         x="0"
         style="overflow:visible"
         xlink:href="#SVGID_19_"
         overflow="visible"
         id="use837" />
    </clipPath>
    <clipPath
       id="SVGID_22_">
      <use
         height="100%"
         width="100%"
         y="0"
         x="0"
         style="overflow:visible"
         xlink:href="#SVGID_21_"
         overflow="visible"
         id="use915" />
    </clipPath>
    <clipPath
       id="SVGID_24_">
      <use
         height="100%"
         width="100%"
         y="0"
         x="0"
         style="overflow:visible"
         xlink:href="#SVGID_23_"
         overflow="visible"
         id="use1009" />
    </clipPath>
    <clipPath
       id="SVGID_26_">
      <use
         height="100%"
         width="100%"
         y="0"
         x="0"
         style="overflow:visible"
         xlink:href="#SVGID_25_"
         overflow="visible"
         id="use1129" />
    </clipPath>
    <clipPath
       id="SVGID_28_">
      <use
         height="100%"
         width="100%"
         y="0"
         x="0"
         style="overflow:visible"
         xlink:href="#SVGID_27_"
         overflow="visible"
         id="use1177" />
    </clipPath>
    <path
       inkscape:connector-curvature="0"
       id="SVGID_1_"
       d="m 85.61,63.771 c 0,0 9.11,-7.035 22.765,-12.285 6.524,-2.508 21.116,-6.162 22.188,-5.343 1.133,1.889 5.288,20.02 5.415,28.834 0.125,8.814 -5.667,28.584 -7.177,29.34 -1.511,0.754 -22.784,-5.016 -28.585,-8.31 C 94.676,92.859 89.593,88.308 85.611,83.54 85.61,80.015 85.61,63.771 85.61,63.771 Z" />
    <path
       inkscape:connector-curvature="0"
       id="SVGID_3_"
       d="m 66.218,63.771 c 0,0 -9.109,-7.035 -22.765,-12.285 -6.523,-2.508 -21.116,-6.162 -22.186,-5.343 -1.133,1.889 -5.288,20.021 -5.414,28.836 -0.127,8.812 5.666,28.582 7.176,29.338 1.511,0.754 22.782,-5.016 28.583,-8.31 5.54,-3.148 10.624,-7.699 14.605,-12.467 0.001,-3.525 0.001,-19.769 0.001,-19.769 z" />
    <path
       inkscape:connector-curvature="0"
       id="SVGID_5_"
       d="m 216.268,64.571 c 0,0 -9.109,-7.034 -22.765,-12.285 -6.523,-2.509 -21.116,-6.162 -22.187,-5.343 -1.133,1.889 -5.288,20.021 -5.414,28.835 -0.127,8.814 5.666,28.583 7.176,29.339 1.511,0.755 22.782,-5.014 28.583,-8.311 5.54,-3.147 10.624,-7.697 14.605,-12.465 0.002,-3.527 0.002,-19.77 0.002,-19.77 z" />
    <path
       inkscape:connector-curvature="0"
       id="SVGID_7_"
       d="m 235.66,64.57 c 0,0 9.11,-7.034 22.765,-12.285 6.524,-2.509 21.116,-6.162 22.188,-5.343 1.133,1.888 5.288,20.021 5.415,28.835 0.125,8.814 -5.667,28.583 -7.177,29.339 -1.511,0.755 -22.784,-5.014 -28.585,-8.311 -5.54,-3.148 -10.623,-7.697 -14.605,-12.466 C 235.66,80.814 235.66,64.57 235.66,64.57 Z" />
    <path
       inkscape:connector-curvature="0"
       id="SVGID_9_"
       d="m 365.769,66.058 c 0,0 -9.111,-7.032 -22.767,-12.284 -6.523,-2.508 -21.116,-6.161 -22.186,-5.343 -1.133,1.89 -5.289,20.021 -5.415,28.835 -0.126,8.814 5.667,28.583 7.178,29.338 1.51,0.757 22.782,-5.013 28.583,-8.31 5.54,-3.148 10.624,-7.696 14.606,-12.465 0.001,-3.526 0.001,-19.771 0.001,-19.771 z" />
    <path
       inkscape:connector-curvature="0"
       id="SVGID_11_"
       d="m 385.16,66.058 c 0,0 9.111,-7.034 22.766,-12.284 6.524,-2.508 21.116,-6.161 22.187,-5.343 1.133,1.89 5.288,20.021 5.416,28.835 0.125,8.814 -5.667,28.583 -7.178,29.338 -1.511,0.757 -22.782,-5.014 -28.585,-8.31 -5.54,-3.148 -10.623,-7.696 -14.605,-12.465 -10e-4,-3.526 -10e-4,-19.771 -10e-4,-19.771 z" />
    <path
       inkscape:connector-curvature="0"
       id="SVGID_13_"
       d="m 515.153,66.489 c 0,0 -9.11,-7.035 -22.766,-12.286 -6.523,-2.509 -21.116,-6.162 -22.186,-5.343 -1.133,1.89 -5.289,20.021 -5.415,28.834 -0.125,8.814 5.667,28.583 7.178,29.339 1.51,0.754 22.782,-5.014 28.583,-8.311 5.539,-3.147 10.624,-7.697 14.606,-12.465 0,-3.525 0,-19.768 0,-19.768 z" />
    <path
       inkscape:connector-curvature="0"
       id="SVGID_15_"
       d="m 534.544,66.489 c 0,0 9.112,-7.035 22.766,-12.286 6.525,-2.509 21.116,-6.162 22.188,-5.343 1.133,1.888 5.287,20.021 5.415,28.834 0.125,8.814 -5.667,28.583 -7.178,29.339 -1.51,0.754 -22.782,-5.015 -28.584,-8.311 -5.54,-3.147 -10.622,-7.697 -14.606,-12.465 -10e-4,-3.525 -10e-4,-19.768 -10e-4,-19.768 z" />
    <path
       inkscape:connector-curvature="0"
       id="SVGID_17_"
       d="m 666.023,66.498 c 0,0 -9.111,-7.035 -22.766,-12.285 -6.523,-2.509 -21.116,-6.162 -22.186,-5.343 -1.133,1.888 -5.289,20.02 -5.415,28.834 -0.126,8.814 5.667,28.583 7.178,29.338 1.511,0.755 22.782,-5.014 28.583,-8.31 5.539,-3.148 10.624,-7.698 14.606,-12.465 0,-3.527 0,-19.769 0,-19.769 z" />
    <path
       inkscape:connector-curvature="0"
       id="SVGID_19_"
       d="m 685.413,66.497 c 0,0 9.111,-7.034 22.766,-12.284 6.525,-2.509 21.116,-6.162 22.188,-5.343 1.133,1.888 5.287,20.02 5.415,28.834 0.125,8.814 -5.667,28.583 -7.178,29.338 -1.51,0.755 -22.782,-5.014 -28.584,-8.31 -5.54,-3.149 -10.623,-7.698 -14.606,-12.465 -10e-4,-3.527 -10e-4,-19.77 -10e-4,-19.77 z" />
    <path
       inkscape:connector-curvature="0"
       id="SVGID_21_"
       d="m 814.768,66.498 c 0,0 -9.109,-7.035 -22.765,-12.286 -6.523,-2.509 -21.116,-6.161 -22.186,-5.343 -1.133,1.888 -5.288,20.021 -5.414,28.835 -0.127,8.814 5.666,28.583 7.176,29.339 1.511,0.756 22.782,-5.014 28.583,-8.31 5.54,-3.148 10.624,-7.697 14.605,-12.466 10e-4,-3.526 10e-4,-19.769 10e-4,-19.769 z" />
    <path
       inkscape:connector-curvature="0"
       id="SVGID_23_"
       d="m 834.16,66.498 c 0,0 9.11,-7.035 22.765,-12.285 6.524,-2.509 21.116,-6.162 22.188,-5.343 1.133,1.889 5.288,20.021 5.415,28.835 0.125,8.814 -5.667,28.584 -7.177,29.339 -1.511,0.756 -22.784,-5.015 -28.585,-8.31 -5.54,-3.148 -10.622,-7.697 -14.605,-12.466 -10e-4,-3.527 -10e-4,-19.77 -10e-4,-19.77 z" />
    <path
       inkscape:connector-curvature="0"
       id="SVGID_25_"
       d="m 984.75,66.772 c 0,0 9.11,-7.035 22.765,-12.285 6.524,-2.509 21.116,-6.161 22.187,-5.343 1.133,1.889 5.288,20.021 5.414,28.835 0.126,8.814 -5.666,28.584 -7.177,29.34 -1.511,0.755 -22.782,-5.015 -28.583,-8.311 -5.54,-3.148 -10.624,-7.697 -14.606,-12.466 0,-3.527 0,-19.77 0,-19.77 z" />
    <path
       inkscape:connector-curvature="0"
       id="SVGID_27_"
       d="m 965.359,66.772 c 0,0 -9.11,-7.034 -22.765,-12.285 -6.524,-2.509 -21.116,-6.162 -22.187,-5.343 -1.133,1.889 -5.289,20.021 -5.415,28.835 -0.126,8.814 5.667,28.583 7.178,29.339 1.511,0.755 22.782,-5.015 28.583,-8.311 5.54,-3.148 10.624,-7.697 14.606,-12.466 0,-3.526 0,-19.769 0,-19.769 z" />
    <radialGradient
       id="SVGID_1_-2"
       cx="37.398701"
       cy="73.437302"
       r="49.383499"
       gradientUnits="userSpaceOnUse">
      <stop
         offset="0"
         style="stop-color:#FFFFFF"
         id="stop52" />
      <stop
         offset="0.9394"
         style="stop-color:#FFFFFF;stop-opacity:0"
         id="stop54" />
    </radialGradient>
    <radialGradient
       id="SVGID_2_-2"
       cx="188.7619"
       cy="73.264801"
       r="49.383499"
       gradientUnits="userSpaceOnUse">
      <stop
         offset="0"
         style="stop-color:#FFFFFF"
         id="stop219" />
      <stop
         offset="0.9394"
         style="stop-color:#FFFFFF;stop-opacity:0"
         id="stop221" />
    </radialGradient>
    <radialGradient
       id="SVGID_3_-7"
       cx="338.28101"
       cy="72.9953"
       r="49.383099"
       gradientUnits="userSpaceOnUse">
      <stop
         offset="0"
         style="stop-color:#FFFFFF"
         id="stop288" />
      <stop
         offset="0.9394"
         style="stop-color:#FFFFFF;stop-opacity:0"
         id="stop290" />
    </radialGradient>
    <radialGradient
       id="SVGID_4_-1"
       cx="486.7757"
       cy="72.0028"
       r="49.3834"
       gradientUnits="userSpaceOnUse">
      <stop
         offset="0"
         style="stop-color:#FFFFFF"
         id="stop341" />
      <stop
         offset="0.9394"
         style="stop-color:#FFFFFF;stop-opacity:0"
         id="stop343" />
    </radialGradient>
    <radialGradient
       id="SVGID_5_-9"
       cx="637.45532"
       cy="70.776299"
       r="49.383499"
       gradientUnits="userSpaceOnUse">
      <stop
         offset="0"
         style="stop-color:#FFFFFF"
         id="stop544" />
      <stop
         offset="0.9394"
         style="stop-color:#FFFFFF;stop-opacity:0"
         id="stop546" />
    </radialGradient>
    <radialGradient
       id="SVGID_6_-4"
       cx="790.32172"
       cy="73.071198"
       r="49.383099"
       gradientUnits="userSpaceOnUse">
      <stop
         offset="0"
         style="stop-color:#FFFFFF"
         id="stop753" />
      <stop
         offset="0.9394"
         style="stop-color:#FFFFFF;stop-opacity:0"
         id="stop755" />
    </radialGradient>
    <radialGradient
       id="SVGID_7_-1"
       cx="937.16339"
       cy="72.3834"
       r="49.382999"
       gradientUnits="userSpaceOnUse">
      <stop
         offset="0"
         style="stop-color:#FFFFFF"
         id="stop916" />
      <stop
         offset="0.9394"
         style="stop-color:#FFFFFF;stop-opacity:0"
         id="stop918" />
    </radialGradient>
    <radialGradient
       id="SVGID_8_-1"
       cx="1087.8015"
       cy="72.309998"
       r="49.383598"
       gradientUnits="userSpaceOnUse">
      <stop
         offset="0"
         style="stop-color:#FFFFFF"
         id="stop947" />
      <stop
         offset="0.9394"
         style="stop-color:#FFFFFF;stop-opacity:0"
         id="stop949" />
    </radialGradient>
  </defs>
  <sodipodi:namedview
     id="base"
     pagecolor="#ffffff"
     bordercolor="#666666"
     borderopacity="1.0"
     inkscape:pageopacity="0.0"
     inkscape:pageshadow="2"
     inkscape:zoom="0.7"
     inkscape:cx="-10.797935"
     inkscape:cy="23.146383"
     inkscape:document-units="mm"
     inkscape:current-layer="layer1"
     showgrid="false"
     units="px"
     inkscape:window-width="1920"
     inkscape:window-height="1017"
     inkscape:window-x="-8"
     inkscape:window-y="-8"
     inkscape:window-maximized="1"
     fit-margin-top="0"
     fit-margin-left="0"
     fit-margin-right="0"
     fit-margin-bottom="0" />
  <metadata
     id="metadata1158">
    <rdf:RDF>
      <cc:Work
         rdf:about="">
        <dc:format>image/svg+xml</dc:format>
        <dc:type
           rdf:resource="http://purl.org/dc/dcmitype/StillImage" />
        <dc:title></dc:title>
      </cc:Work>
    </rdf:RDF>
  </metadata>
  <g
     inkscape:label="Layer 1"
     inkscape:groupmode="layer"
     id="layer1"
     transform="translate(-180.54226,-246.82575)">
    <g
       transform="matrix(0.39726567,0,0,0.39726567,-3.5937243,240.74088)"
       id="g1288" />
    <g
       transform="matrix(0.39726567,0,0,0.39726567,-3.5937243,240.74088)"
       id="g1290" />
    <g
       transform="matrix(0.39726567,0,0,0.39726567,-3.5937243,240.74088)"
       id="g1292" />
    <g
       transform="matrix(0.39726567,0,0,0.39726567,-3.5937243,240.74088)"
       id="g1294" />
    <g
       transform="matrix(0.39726567,0,0,0.39726567,-3.5937243,240.74088)"
       id="g1296" />
    <g
       transform="matrix(0.39726567,0,0,0.39726567,-3.5937243,240.74088)"
       id="g1298" />
    <g
       transform="matrix(0.36466783,0,0,0.36466783,-1.0914262,244.55219)"
       id="Слой_9" />
    <g
       transform="matrix(0.36131508,0,0,0.36131508,-1.1693956,243.62221)"
       id="g1385" />
    <g
       transform="matrix(0.36131508,0,0,0.36131508,-1.1693956,243.62221)"
       id="g1387" />
    <g
       transform="matrix(0.36131508,0,0,0.36131508,-1.1693956,243.62221)"
       id="g1389" />
    <g
       transform="matrix(0.36131508,0,0,0.36131508,-1.1693956,243.62221)"
       id="g1391" />
    <g
       transform="matrix(0.36131508,0,0,0.36131508,-1.1693956,243.62221)"
       id="g1393" />
    <g
       transform="matrix(0.36131508,0,0,0.36131508,-1.1693956,243.62221)"
       id="g1395" />
    <g
       transform="matrix(0.36823052,0,0,0.36823052,-216.08067,240.65983)"
       id="g1056">
      <path
         style="clip-rule:evenodd;fill:#e6e6e6;fill-rule:evenodd"
         inkscape:connector-curvature="0"
         d="m 1124.638,142.615 c 26.18,0 47.533,-7.612 47.533,-16.944 0,-9.333 -21.353,-16.944 -47.533,-16.944 -26.18,0 -47.533,7.611 -47.533,16.944 0,9.333 21.352,16.944 47.533,16.944 z"
         id="path943" />
      <path
         style="clip-rule:evenodd;fill:#6b1917;fill-rule:evenodd"
         inkscape:connector-curvature="0"
         d="m 1124.647,96.815 c 26.18,0 47.533,-7.612 47.533,-16.944 0,-9.332 -21.353,-16.944 -47.533,-16.944 -26.18,0 -47.533,7.611 -47.533,16.944 10e-4,9.332 21.353,16.944 47.533,16.944 z"
         id="path945" />
      <radialGradient
         id="radialGradient2415"
         cx="1087.8015"
         cy="72.309998"
         r="49.383598"
         gradientUnits="userSpaceOnUse">
        <stop
           offset="0"
           style="stop-color:#FFFFFF"
           id="stop2411" />
        <stop
           offset="0.9394"
           style="stop-color:#FFFFFF;stop-opacity:0"
           id="stop2413" />
      </radialGradient>
      <path
         style="clip-rule:evenodd;fill:url(#SVGID_8_-1);fill-rule:evenodd"
         inkscape:connector-curvature="0"
         d="m 1133.115,96.914 c -6.639,11.297 -22.131,19.932 -41.238,22.634 -2.298,-6.303 -4.601,-12.606 -6.901,-18.902 -1.957,-5.359 -3.919,-10.716 -5.875,-16.076 5.391,7.247 23.917,12.589 45.945,12.589 2.751,-0.001 5.446,-0.086 8.069,-0.245 z"
         id="path952" />
      <g
         id="g972">
        <path
           style="clip-rule:evenodd;fill:#f295a5;fill-rule:evenodd"
           inkscape:connector-curvature="0"
           d="m 1156.913,120.903 c -1.873,5.02 -6.634,8.837 -12.473,11.159 -5.608,2.231 -12.557,3.04 -20.03,3.002 -7.474,-0.039 -14.421,-0.918 -20.021,-3.179 -5.818,-2.35 -10.533,-6.169 -12.359,-11.165 -2.481,-6.809 -4.969,-13.618 -7.453,-20.419 -2.487,-6.809 -4.981,-13.616 -7.463,-20.43 15.838,0 31.685,0 47.523,0 15.839,0 31.695,0 47.542,0 -2.548,6.844 -5.099,13.68 -7.643,20.52 -2.541,6.834 -5.085,13.674 -7.623,20.512 z"
           id="path954" />
        <g
           id="g970">
          <path
             style="clip-rule:evenodd;fill:#ed6f83;fill-rule:evenodd"
             inkscape:connector-curvature="0"
             d="m 1124.543,101.337 v 0 c 2.443,0.012 4.327,2.433 4.192,5.37 -0.217,4.724 -0.423,9.448 -0.637,14.167 -0.214,4.718 -0.428,9.437 -0.646,14.155 -1.008,0.036 -2.016,0.042 -3.042,0.036 -1.027,-0.006 -2.044,-0.018 -3.052,-0.071 -0.171,-4.719 -0.361,-9.437 -0.533,-14.155 -0.171,-4.707 -0.357,-9.431 -0.532,-14.149 -0.109,-2.943 1.816,-5.353 4.25,-5.353 z"
             id="path956" />
          <path
             style="clip-rule:evenodd;fill:#ed6f83;fill-rule:evenodd"
             inkscape:connector-curvature="0"
             d="m 1137.938,99.928 v 0 c 2.472,0.071 4.065,2.568 3.565,5.553 -0.803,4.788 -1.606,9.573 -2.415,14.356 -0.807,4.772 -1.607,9.555 -2.415,14.333 -1.987,0.349 -4.079,0.598 -6.246,0.717 0.428,-4.949 0.851,-9.899 1.274,-14.848 0.423,-4.949 0.861,-9.904 1.283,-14.853 0.253,-2.954 2.482,-5.317 4.954,-5.258 z"
             id="path958" />
          <path
             style="clip-rule:evenodd;fill:#ed6f83;fill-rule:evenodd"
             inkscape:connector-curvature="0"
             d="m 1151.959,97.371 v 0 c 2.52,0.107 3.827,2.71 2.928,5.778 -1.363,4.652 -2.695,9.297 -4.05,13.942 -1.354,4.643 -2.709,9.282 -4.05,13.93 -2.129,1.059 -4.468,1.9 -6.977,2.504 1.074,-5.145 2.153,-10.282 3.223,-15.428 1.069,-5.144 2.145,-10.276 3.213,-15.428 0.624,-3.011 3.204,-5.393 5.713,-5.298 z"
             id="path960" />
          <path
             style="clip-rule:evenodd;fill:#ed6f83;fill-rule:evenodd"
             inkscape:connector-curvature="0"
             d="m 1150.714,128.629 c 1.75,-5.316 3.523,-10.625 5.276,-15.937 1.754,-5.314 3.508,-10.627 5.266,-15.943 1.026,-3.102 4.031,-5.571 6.683,-5.505 -1.835,4.943 -3.679,9.887 -5.514,14.829 -1.835,4.944 -3.679,9.887 -5.514,14.83 -1.12,3.013 -3.345,5.642 -6.197,7.726 z"
             id="path962" />
          <path
             style="clip-rule:evenodd;fill:#ed6f83;fill-rule:evenodd"
             inkscape:connector-curvature="0"
             d="m 1081.25,91.196 c 2.633,-0.066 5.611,2.397 6.616,5.488 1.723,5.297 3.427,10.577 5.143,15.872 1.715,5.291 3.432,10.591 5.143,15.872 -2.842,-2.09 -5.02,-4.713 -6.122,-7.708 -1.797,-4.926 -3.594,-9.846 -5.39,-14.765 -1.796,-4.92 -3.593,-9.84 -5.39,-14.759 z"
             id="path964" />
          <path
             style="clip-rule:evenodd;fill:#ed6f83;fill-rule:evenodd"
             inkscape:connector-curvature="0"
             d="m 1097.164,97.311 v 0 c 2.52,-0.095 5.063,2.292 5.666,5.292 1.032,5.134 2.058,10.261 3.09,15.387 1.032,5.128 2.063,10.253 3.09,15.38 -2.5,-0.616 -4.848,-1.474 -6.949,-2.539 -1.312,-4.624 -2.625,-9.253 -3.936,-13.877 -1.313,-4.629 -2.625,-9.253 -3.936,-13.882 -0.867,-3.061 0.456,-5.66 2.975,-5.761 z"
             id="path966" />
          <path
             style="clip-rule:evenodd;fill:#ed6f83;fill-rule:evenodd"
             inkscape:connector-curvature="0"
             d="m 1111.167,99.887 v 0 c 2.481,-0.047 4.675,2.309 4.905,5.257 0.387,4.949 0.774,9.898 1.16,14.848 0.384,4.931 0.761,9.875 1.151,14.824 -2.158,-0.124 -4.259,-0.391 -6.237,-0.769 -0.77,-4.772 -1.531,-9.537 -2.3,-14.309 -0.77,-4.771 -1.534,-9.543 -2.3,-14.314 -0.48,-2.979 1.159,-5.466 3.621,-5.537 z"
             id="path968" />
        </g>
      </g>
      <g
         id="g986">
        <path
           style="clip-rule:evenodd;fill:#6b1917;fill-rule:evenodd"
           inkscape:connector-curvature="0"
           d="m 1162.413,85.583 c 12.141,-6.857 10.395,-17.163 6.159,-21.622 -7.644,-8.049 -12.977,-2.982 -18.234,-8.29 -4.547,-4.591 4.174,-11.112 -0.428,-17.057 -5.388,-6.963 -17.869,-3.448 -22.142,-8.257 -2.04,-2.296 -1.402,-4.953 -0.129,-7.768 2.162,-4.778 -0.629,-5.852 -5.127,-1.293 -7.888,7.995 1.187,58.5 4.343,63.497 4.999,7.912 25.009,6.747 35.558,0.79 z"
           id="path974" />
        <path
           style="clip-rule:evenodd;fill:#6b1917;fill-rule:evenodd"
           inkscape:connector-curvature="0"
           d="m 1089.481,87.343 c 12.87,6.031 30.485,-0.339 31.94,-6.274 6.01,-24.526 -4.133,-51.512 -3.777,-52.774 0.829,-2.942 3.972,-5.705 7.141,-6.245 5.378,-0.916 -0.476,-2.296 1.213,-5.218 -4.951,-0.84 -20.864,4.519 -24.705,10.219 -4.821,7.154 4.67,14.634 2.738,19.087 -1.978,4.559 -17.118,3.622 -24.218,18.632 -4.016,8.489 -1.514,17.333 9.668,22.573 z"
           id="path976" />
        <path
           style="clip-rule:evenodd;fill:#993a33;fill-rule:evenodd"
           inkscape:connector-curvature="0"
           d="m 1100.372,89.765 c 10.211,0.249 19.981,-4.34 21.048,-8.697 6.01,-24.526 -4.133,-51.511 -3.777,-52.774 0.829,-2.942 -0.156,-6.867 3.013,-7.406 5.378,-0.916 9.306,-2.419 2.787,-3.523 -0.13,-0.022 -0.268,-0.04 -0.411,-0.053 -13.37,5.549 -19.06,11.518 -16.051,19.928 3.009,8.41 4.687,13.624 -5.739,19.29 -8.855,4.812 -21.807,22.787 -0.87,33.235 z"
           id="path978" />
        <path
           style="clip-rule:evenodd;fill:#6b1917;fill-rule:evenodd"
           inkscape:connector-curvature="0"
           d="m 1123.796,95.346 c 14.191,-0.12 18.042,-10.045 16.666,-16.035 -2.483,-10.813 -9.789,-8.951 -11.615,-16.186 -1.58,-6.26 6.725,-9.49 5.805,-16.968 -1.079,-8.757 -11.102,-10.004 -12.328,-16.322 -0.585,-3.016 0.973,-6.87 3.555,-8.728 4.383,-3.154 2.503,-5.46 -3.807,-3.638 -4.792,1.383 -10.727,6.158 -11.587,12.969 -1.079,8.546 7.175,13.471 7.457,18.329 0.289,4.973 -13.357,13.747 -12.929,30.374 0.242,9.403 6.454,16.308 18.783,16.205 z"
           id="path980" />
        <path
           style="clip-rule:evenodd;fill:#993a33;fill-rule:evenodd"
           inkscape:connector-curvature="0"
           d="m 1124.37,95.334 c 13.72,-0.379 17.449,-10.115 16.092,-16.024 -2.483,-10.813 -9.789,-8.951 -11.615,-16.186 -1.58,-6.26 6.725,-9.49 5.805,-16.968 -1.079,-8.757 -11.102,-10.004 -12.328,-16.322 -0.585,-3.016 0.973,-6.87 3.555,-8.728 3.298,-2.373 3.05,-4.266 0.037,-4.282 l -0.046,0.018 c -3.632,1.451 -8.804,7.547 -9.533,14.365 -0.915,8.556 7.437,13.062 7.592,17.911 0.159,4.966 -10.239,13.931 -10.113,30.541 0.062,8.16 3.545,14.368 10.554,15.675 z"
           id="path982" />
        <path
           style="clip-rule:evenodd;fill:#993a33;fill-rule:evenodd"
           inkscape:connector-curvature="0"
           d="m 1162.413,85.583 c 12.141,-6.857 9.795,-16.683 6.16,-21.622 -5.039,-6.847 -8.971,-4.385 -14.227,-9.692 -4.548,-4.591 -0.234,-10.912 -4.434,-15.655 -5.847,-6.599 -14.58,-4.324 -19.292,-9.572 -2.051,-2.285 -4.253,-3.637 -2.979,-6.453 0.285,-0.631 0.654,-1.503 0.708,-2.314 l -0.467,0.751 c -3.08,5.347 -7.248,9.166 4.91,15.25 12.158,6.084 13.331,9.769 9.246,18.27 -2.583,5.376 -3.267,9.238 3.932,14.866 6.593,5.154 10.314,9.186 6.977,19.712 3.498,-0.826 6.787,-2.028 9.466,-3.541 z"
           id="path984" />
      </g>
      <g
         id="g1054">
        <path
           style="fill:#82a840"
           inkscape:connector-curvature="0"
           d="m 1127.672,52.737 c -5.133,-9.122 -10.825,-15.994 -18.214,-17.469 -1.787,-0.357 -1.86,2.815 -0.01,2.699 6.333,-0.396 12.681,6.274 17.92,14.955 z"
           id="path988" />
        <path
           style="clip-rule:evenodd;fill:#e12544;fill-rule:evenodd"
           inkscape:connector-curvature="0"
           d="m 1118.804,61.758 c -3.41,-1.784 -6.506,-4.518 -7.865,-7.331 -2.767,-5.728 2.913,-10.173 8.016,-12.432 5.103,-2.259 12.213,-3.475 14.592,2.425 0.357,0.884 0.616,1.876 0.783,2.93 -5.497,2.392 -3.249,15.615 -15.526,14.408 z"
           id="path990" />
        <path
           style="clip-rule:evenodd;fill:#e12544;fill-rule:evenodd"
           inkscape:connector-curvature="0"
           d="m 1122.789,61.582 c -4.422,-1.093 -9.356,-4.598 -11.115,-8.242 -2.529,-5.237 2.637,-9.289 7.281,-11.345 4.644,-2.056 11.118,-3.156 13.294,2.237 0.464,1.148 0.749,2.492 0.867,3.918 -3.461,3.174 -3.217,11.832 -10.327,13.432 z"
           id="path992" />
        <path
           style="clip-rule:evenodd;fill:#ec657e;fill-rule:evenodd"
           inkscape:connector-curvature="0"
           d="m 1123.563,51.686 c -3.549,1.571 -9.558,-0.257 -10.869,-2.857 -1.31,-2.6 2.755,-5.283 6.26,-6.834 3.505,-1.552 8.224,-2.757 9.268,-0.039 1.044,2.718 -1.109,8.159 -4.659,9.73 z"
           id="path994" />
        <path
           style="clip-rule:evenodd;fill:#ca223d;fill-rule:evenodd"
           inkscape:connector-curvature="0"
           d="m 1116.043,47.929 c 0.427,0.102 0.831,0.509 1.01,1.073 0.179,0.565 0.083,1.13 -0.207,1.459 -0.427,-0.102 -0.83,-0.509 -1.01,-1.073 -0.179,-0.565 -0.083,-1.13 0.207,-1.459 z"
           id="path996" />
        <path
           style="clip-rule:evenodd;fill:#ca223d;fill-rule:evenodd"
           inkscape:connector-curvature="0"
           d="m 1120.982,44.853 c -0.252,0.359 -0.286,0.931 -0.046,1.472 0.24,0.542 0.686,0.902 1.121,0.956 0.252,-0.359 0.286,-0.931 0.046,-1.473 -0.239,-0.541 -0.686,-0.9 -1.121,-0.955 z"
           id="path998" />
        <g
           id="g1004">
          <path
             style="clip-rule:evenodd;fill:#85a330;fill-rule:evenodd"
             inkscape:connector-curvature="0"
             d="m 1129.037,36.802 c -3.534,3.138 -10.268,-0.666 -10.131,5.347 0.337,1.27 8.802,2.931 10.131,-5.347 z"
             id="path1000" />
          <path
             style="clip-rule:evenodd;fill:#afcd5f;fill-rule:evenodd"
             inkscape:connector-curvature="0"
             d="m 1129.037,36.802 c -3.534,3.138 -10.268,-0.666 -10.131,5.347 0.01,0.028 0.02,0.057 0.036,0.085 6.454,-0.658 8.151,-2.908 10.095,-5.432 z"
             id="path1002" />
        </g>
        <g
           id="g1010">
          <path
             style="clip-rule:evenodd;fill:#85a330;fill-rule:evenodd"
             inkscape:connector-curvature="0"
             d="m 1108.603,45.766 c 4.547,-0.39 6.357,-7.636 10.479,-3.544 0.666,1.081 -3.795,8.115 -10.479,3.544 z"
             id="path1006" />
          <path
             style="clip-rule:evenodd;fill:#afcd5f;fill-rule:evenodd"
             inkscape:connector-curvature="0"
             d="m 1108.603,45.766 c 4.547,-0.39 6.357,-7.636 10.479,-3.544 0.015,0.024 0.026,0.052 0.036,0.081 -4.751,4.086 -7.455,3.779 -10.515,3.463 z"
             id="path1008" />
        </g>
        <path
           style="clip-rule:evenodd;fill:#ca223d;fill-rule:evenodd"
           inkscape:connector-curvature="0"
           d="m 1120.087,48.551 c -0.252,0.359 -0.286,0.931 -0.046,1.473 0.24,0.542 0.686,0.902 1.121,0.956 0.252,-0.359 0.286,-0.931 0.046,-1.473 -0.239,-0.541 -0.685,-0.901 -1.121,-0.956 z"
           id="path1012" />
        <path
           style="clip-rule:evenodd;fill:#ca223d;fill-rule:evenodd"
           inkscape:connector-curvature="0"
           d="m 1122.196,53.563 c -0.253,0.359 -0.286,0.932 -0.046,1.473 0.24,0.542 0.686,0.902 1.121,0.956 0.252,-0.359 0.286,-0.931 0.046,-1.473 -0.24,-0.541 -0.686,-0.902 -1.121,-0.956 z"
           id="path1014" />
        <path
           style="clip-rule:evenodd;fill:#ca223d;fill-rule:evenodd"
           inkscape:connector-curvature="0"
           d="m 1124.867,58.106 c -0.252,0.359 -0.286,0.931 -0.046,1.473 0.168,0.38 0.439,0.671 0.735,0.829 0.203,-0.136 0.399,-0.28 0.585,-0.432 0.032,-0.284 -0.016,-0.604 -0.153,-0.914 -0.239,-0.542 -0.685,-0.902 -1.121,-0.956 z"
           id="path1016" />
        <path
           style="clip-rule:evenodd;fill:#ca223d;fill-rule:evenodd"
           inkscape:connector-curvature="0"
           d="m 1124.432,43.555 c -0.212,0.384 -0.182,0.957 0.116,1.469 0.298,0.512 0.781,0.822 1.22,0.827 0.211,-0.384 0.182,-0.956 -0.116,-1.469 -0.298,-0.512 -0.781,-0.821 -1.22,-0.827 z"
           id="path1018" />
        <path
           style="clip-rule:evenodd;fill:#ca223d;fill-rule:evenodd"
           inkscape:connector-curvature="0"
           d="m 1127.669,46.959 c -0.232,0.373 -0.234,0.946 0.036,1.474 0.27,0.527 0.735,0.862 1.172,0.892 0.232,-0.372 0.234,-0.945 -0.036,-1.473 -0.269,-0.528 -0.734,-0.863 -1.172,-0.893 z"
           id="path1020" />
        <path
           style="clip-rule:evenodd;fill:#ca223d;fill-rule:evenodd"
           inkscape:connector-curvature="0"
           d="m 1128.686,52.239 c -0.286,0.333 -0.375,0.899 -0.188,1.461 0.186,0.563 0.595,0.964 1.024,1.06 0.285,-0.333 0.374,-0.899 0.188,-1.461 -0.187,-0.563 -0.596,-0.964 -1.024,-1.06 z"
           id="path1022" />
        <path
           style="clip-rule:evenodd;fill:#ca223d;fill-rule:evenodd"
           inkscape:connector-curvature="0"
           d="m 1128.028,42.695 c -0.121,0.422 0.035,0.973 0.44,1.406 0.404,0.434 0.944,0.627 1.373,0.536 0.121,-0.422 -0.035,-0.973 -0.439,-1.407 -0.406,-0.432 -0.945,-0.626 -1.374,-0.535 z"
           id="path1024" />
        <path
           style="clip-rule:evenodd;fill:#ca223d;fill-rule:evenodd"
           inkscape:connector-curvature="0"
           d="m 1130.507,49.223 c -0.251,0.36 -0.282,0.932 -0.039,1.473 0.134,0.299 0.331,0.543 0.554,0.709 0.193,-0.433 0.393,-0.85 0.605,-1.243 -0.244,-0.534 -0.688,-0.886 -1.12,-0.939 z"
           id="path1026" />
        <path
           style="clip-rule:evenodd;fill:#ca223d;fill-rule:evenodd"
           inkscape:connector-curvature="0"
           d="m 1131.086,45.226 c -0.232,0.373 -0.234,0.946 0.036,1.474 0.27,0.527 0.735,0.862 1.172,0.892 0.232,-0.372 0.234,-0.945 -0.035,-1.473 -0.27,-0.528 -0.736,-0.862 -1.173,-0.893 z"
           id="path1028" />
        <path
           style="clip-rule:evenodd;fill:#ca223d;fill-rule:evenodd"
           inkscape:connector-curvature="0"
           d="m 1123.993,46.941 c 0.439,0.009 0.92,0.321 1.214,0.835 0.295,0.514 0.32,1.086 0.107,1.47 -0.439,-0.009 -0.92,-0.321 -1.215,-0.835 -0.294,-0.515 -0.32,-1.087 -0.106,-1.47 z"
           id="path1030" />
        <path
           style="clip-rule:evenodd;fill:#ca223d;fill-rule:evenodd"
           inkscape:connector-curvature="0"
           d="m 1116.859,51.194 c 0.432,0.079 0.857,0.462 1.067,1.017 0.209,0.554 0.144,1.124 -0.127,1.468 -0.432,-0.078 -0.858,-0.462 -1.067,-1.017 -0.21,-0.554 -0.145,-1.123 0.127,-1.468 z"
           id="path1032" />
        <path
           style="clip-rule:evenodd;fill:#ca223d;fill-rule:evenodd"
           inkscape:connector-curvature="0"
           d="m 1119.614,54.933 c 0.438,0.012 0.917,0.327 1.208,0.843 0.291,0.516 0.313,1.089 0.096,1.471 -0.439,-0.012 -0.917,-0.328 -1.208,-0.843 -0.29,-0.517 -0.312,-1.09 -0.096,-1.471 z"
           id="path1034" />
        <path
           style="clip-rule:evenodd;fill:#ca223d;fill-rule:evenodd"
           inkscape:connector-curvature="0"
           d="m 1113.388,49.175 c 0.393,0.194 0.697,0.68 0.746,1.27 0.049,0.591 -0.17,1.12 -0.526,1.377 -0.393,-0.195 -0.697,-0.681 -0.746,-1.272 -0.049,-0.589 0.17,-1.118 0.526,-1.375 z"
           id="path1036" />
        <path
           style="clip-rule:evenodd;fill:#ca223d;fill-rule:evenodd"
           inkscape:connector-curvature="0"
           d="m 1116.555,55.399 c 0.435,0.057 0.88,0.419 1.117,0.962 0.237,0.543 0.201,1.115 -0.053,1.472 -0.435,-0.056 -0.88,-0.418 -1.117,-0.961 -0.237,-0.543 -0.201,-1.115 0.053,-1.473 z"
           id="path1038" />
        <path
           style="clip-rule:evenodd;fill:#ca223d;fill-rule:evenodd"
           inkscape:connector-curvature="0"
           d="m 1113.207,53.141 c 0.432,0.079 0.857,0.462 1.067,1.017 0.209,0.554 0.144,1.123 -0.127,1.468 -0.432,-0.078 -0.857,-0.462 -1.067,-1.017 -0.21,-0.554 -0.145,-1.124 0.127,-1.468 z"
           id="path1040" />
        <path
           style="clip-rule:evenodd;fill:#ca223d;fill-rule:evenodd"
           inkscape:connector-curvature="0"
           d="m 1122.335,59.137 c 0.419,-0.131 0.974,0.012 1.417,0.405 0.443,0.394 0.649,0.928 0.568,1.359 -0.419,0.131 -0.974,-0.012 -1.417,-0.405 -0.443,-0.393 -0.649,-0.928 -0.568,-1.359 z"
           id="path1042" />
        <path
           style="clip-rule:evenodd;fill:#ca223d;fill-rule:evenodd"
           inkscape:connector-curvature="0"
           d="m 1118.864,58.542 c 0.427,-0.101 0.971,0.081 1.385,0.505 0.414,0.424 0.582,0.971 0.471,1.396 -0.427,0.101 -0.971,-0.081 -1.385,-0.505 -0.414,-0.424 -0.582,-0.972 -0.471,-1.396 z"
           id="path1044" />
        <path
           style="clip-rule:evenodd;fill:#ca223d;fill-rule:evenodd"
           inkscape:connector-curvature="0"
           d="m 1124.714,50.797 c -0.252,0.359 -0.286,0.93 -0.046,1.472 0.24,0.542 0.686,0.902 1.121,0.956 0.253,-0.359 0.286,-0.931 0.046,-1.473 -0.239,-0.54 -0.685,-0.901 -1.121,-0.955 z"
           id="path1046" />
        <path
           style="clip-rule:evenodd;fill:#ca223d;fill-rule:evenodd"
           inkscape:connector-curvature="0"
           d="m 1125.801,55.49 c -0.253,0.359 -0.286,0.931 -0.046,1.473 0.24,0.542 0.686,0.902 1.122,0.956 0.252,-0.359 0.286,-0.931 0.046,-1.473 -0.241,-0.542 -0.686,-0.901 -1.122,-0.956 z"
           id="path1048" />
        <path
           style="clip-rule:evenodd;fill:#85a330;fill-rule:evenodd"
           inkscape:connector-curvature="0"
           d="m 1116.033,49.286 c 1.884,-2.55 -1.448,-7.483 2.961,-7.09 0.869,0.147 2.489,5.702 -2.961,7.09 z"
           id="path1050" />
        <path
           style="clip-rule:evenodd;fill:#afcd5f;fill-rule:evenodd"
           inkscape:connector-curvature="0"
           d="m 1116.033,49.286 c 1.884,-2.55 -1.064,-6.819 2.961,-7.09 0.019,0.004 0.039,0.01 0.059,0.019 -0.05,4.351 -1.451,5.62 -3.02,7.071 z"
           id="path1052" />
      </g>
    </g>
    <g
       transform="matrix(0.36823052,0,0,0.36823052,-25.958651,241.79376)"
       id="g1058" />
    <g
       transform="matrix(0.36823052,0,0,0.36823052,-25.958651,241.79376)"
       id="g1060" />
    <g
       transform="matrix(0.36823052,0,0,0.36823052,-25.958651,241.79376)"
       id="g1062" />
    <g
       transform="matrix(0.36823052,0,0,0.36823052,-25.958651,241.79376)"
       id="g1064" />
    <g
       transform="matrix(0.36823052,0,0,0.36823052,-25.958651,241.79376)"
       id="g1066" />
    <g
       transform="matrix(0.36823052,0,0,0.36823052,-25.958651,241.79376)"
       id="g1068" />
  </g>
</svg>
