<svg xmlns="http://www.w3.org/2000/svg" width="240" height="232" viewBox="0 0 240 232" version="1.1">
	<path d="M 165 3.963 C 151.418 7.178, 146.142 9.187, 130.065 17.265 C 117.599 23.529, 117.363 23.579, 95.500 24.501 C 79.788 25.165, 72.833 26.109, 62.420 28.995 C 52.366 31.781, 39.098 35.877, 36.500 36.998 C 35.400 37.472, 32.922 38.341, 30.992 38.928 C 29.063 39.515, 26.270 41.121, 24.786 42.498 C 23.302 43.874, 21.852 45, 21.564 45 C 19.738 45, 12.253 55.182, 8.591 62.648 C 2.994 74.060, 3.141 73.462, 2.525 87.500 C 1.453 111.959, 5.165 127.063, 17.754 149.462 C 23.117 159.004, 23.448 160.018, 25.580 173.482 C 26.809 181.240, 27.576 189.578, 27.294 192.088 C 26.811 196.372, 26.539 196.721, 22.640 198.069 C 19.765 199.063, 18.408 200.147, 18.198 201.620 C 17.822 204.250, 21.133 205.352, 24.628 203.760 C 28.006 202.220, 28.685 203.303, 29.904 212.172 C 31.093 220.826, 33.488 226.703, 36.171 227.554 C 38.886 228.416, 40 227.252, 40 223.554 C 40 220.566, 40.331 220.178, 43.250 219.747 C 45.037 219.482, 50.324 219.924, 54.998 220.729 C 62.757 222.065, 72.491 222.064, 91.750 220.726 C 95.724 220.450, 95.921 219.321, 92.250 217.871 C 90.737 217.274, 88.719 216.383, 87.764 215.892 C 86.809 215.402, 82.934 215, 79.153 215 C 69.135 215, 63 213.990, 63 212.339 C 63 210.508, 58.476 208.842, 55.519 209.584 C 54.171 209.923, 51.330 209.355, 48.822 208.245 C 44.925 206.522, 44.288 205.748, 42.783 200.909 C 41.081 195.436, 38.216 177.264, 37.752 169 L 37.500 164.500 49.500 164.507 C 56.100 164.511, 64.875 164.916, 69 165.406 C 73.125 165.897, 79.066 166.383, 82.202 166.487 C 88.804 166.706, 89.697 167.309, 95.484 175.447 C 106.508 190.952, 107.259 195.012, 99.842 199.012 C 94.461 201.913, 91 204.821, 91 206.439 C 91 208.353, 96.339 207.625, 101.199 205.049 C 107.183 201.876, 109.651 202.900, 113.890 210.309 C 117.812 217.163, 119.596 218.742, 121.834 217.340 C 122.750 216.766, 123.637 215.385, 123.803 214.271 C 124.100 212.293, 124.644 212.255, 147.610 212.600 C 160.537 212.794, 171.538 213.215, 172.057 213.535 C 172.576 213.856, 173 213.435, 173 212.601 C 173 211.767, 171.021 209.924, 168.601 208.506 C 164.960 206.373, 162.463 205.823, 154.101 205.313 C 144.453 204.725, 144 204.596, 144 202.432 C 144 199.605, 142.700 199.108, 136.939 199.737 C 133.529 200.108, 131.322 199.695, 128.189 198.097 C 125.885 196.921, 124 195.623, 124 195.211 C 124 194.799, 121.032 191.096, 117.405 186.981 C 109.938 178.511, 102.512 166.715, 103.320 164.608 C 103.617 163.834, 105.579 162.649, 107.680 161.974 C 112.761 160.341, 117.908 157.135, 131.313 147.253 C 137.541 142.663, 143.503 139.005, 144.764 139.003 C 146.009 139.002, 147.809 138.586, 148.764 138.080 C 149.719 137.575, 153.425 136.132, 157 134.874 C 167.202 131.286, 176.739 125.243, 185.134 117.047 C 191.841 110.500, 193.086 108.726, 194.531 103.656 C 195.447 100.441, 196.314 96.742, 196.458 95.434 C 196.991 90.576, 210.606 75.737, 218.127 71.817 C 221.511 70.053, 223.110 69.851, 229.053 70.437 C 239.189 71.435, 239.393 69.145, 230.265 56.831 C 225.504 50.408, 225.339 49.963, 225.773 44.723 C 227.009 29.824, 216.813 14.778, 200 6.688 C 193.900 3.752, 192.730 3.547, 181 3.347 C 174.125 3.231, 166.925 3.508, 165 3.963" fill="none" stroke="#000" stroke-width="2px" fill-rule="evenodd"/>
</svg>
