<svg xmlns="http://www.w3.org/2000/svg" width="229" height="298" viewBox="0 0 229 298" version="1.1">
	<path d="M 46.278 3.846 C 39.558 5.385, 38.742 5.870, 34.528 10.832 C 32.038 13.764, 30 16.753, 30 17.475 C 30 18.196, 29.378 19.025, 28.618 19.316 C 26.957 19.954, 22.878 31.519, 23.627 33.469 C 23.917 34.225, 23.599 35.880, 22.922 37.146 C 22.244 38.413, 21.590 41.036, 21.469 42.975 C 21.348 44.914, 21.021 47.175, 20.742 48 C 20.464 48.825, 19.680 51.525, 19 54 C 16.602 62.734, 13.685 68.584, 7.874 76.312 C 0.864 85.633, 0.298 88.831, 5.240 91.172 C 8.225 92.585, 8.948 92.549, 14.392 90.710 C 20.772 88.556, 23.237 86.404, 37.403 70.622 C 41.750 65.779, 46.475 61.345, 47.903 60.768 C 49.332 60.191, 52.042 59.048, 53.927 58.229 C 56.308 57.193, 58.130 57.011, 59.898 57.633 C 63.559 58.921, 68.432 66.602, 68.354 70.962 C 68.270 75.642, 66.022 87.931, 64.746 90.683 C 64.190 91.883, 63.988 93.526, 64.298 94.335 C 64.608 95.143, 64.556 96.110, 64.182 96.484 C 63.809 96.858, 62.968 99.940, 62.315 103.332 C 61.661 106.724, 60.388 112.425, 59.486 116 C 58.070 121.607, 55.938 138.551, 55.910 144.415 C 55.905 145.469, 55.095 147.494, 54.110 148.915 C 53.126 150.337, 51.573 153.835, 50.660 156.688 C 48.878 162.257, 48.407 172, 49.921 172 C 50.427 172, 51.119 173.238, 51.459 174.750 C 52.577 179.718, 59.399 190.760, 64.949 196.583 C 71.555 203.515, 79.690 208.915, 88.170 211.997 C 101.670 216.904, 104 218.137, 103.992 220.373 C 103.980 223.797, 102.116 239.058, 101.457 241.137 C 100.725 243.443, 93.832 247.053, 84.906 249.805 C 75.978 252.558, 65.880 257.268, 63.758 259.669 C 62.303 261.315, 62.228 261.930, 63.304 263.400 C 64.290 264.750, 66.566 265.290, 73.045 265.714 C 82.544 266.334, 85 267.210, 85 269.976 C 85 271.024, 85.444 272.156, 85.986 272.491 C 86.842 273.020, 111.198 268.898, 116.375 267.347 C 117.592 266.983, 118.010 267.174, 117.566 267.893 C 117.190 268.502, 115.754 269, 114.375 269 C 112.997 269, 111.022 269.453, 109.987 270.007 C 108.191 270.968, 108.216 271.125, 110.547 273.456 C 112.501 275.411, 112.810 276.368, 112.094 278.252 C 111.544 279.699, 111.581 281.287, 112.190 282.375 C 112.735 283.348, 112.919 285.186, 112.600 286.458 C 111.835 289.506, 113.613 289.928, 124.395 289.255 C 132.631 288.741, 133.048 288.822, 137.785 291.862 C 143.828 295.740, 145.406 295.762, 151.249 292.057 C 158.073 287.729, 159.063 285.088, 159.445 270.184 C 159.808 256.014, 161.064 251.165, 168.259 236.153 C 172.865 226.544, 173.558 225.787, 180 223.356 C 182.475 222.421, 186.468 220.047, 188.874 218.078 C 191.280 216.110, 194.777 213.375, 196.645 212 C 200.420 209.222, 210.026 196.836, 212.139 192.022 C 212.982 190.101, 214.451 188.715, 216 188.377 C 221.012 187.286, 221 187.299, 219.842 183.975 C 218.137 179.084, 219.371 172.766, 223.280 166.374 L 226.825 160.578 224.872 156.749 C 223.798 154.643, 221.812 152.416, 220.459 151.799 C 216.662 150.070, 217.039 143.910, 221.335 137.487 C 225.246 131.639, 226.447 128, 224.465 128 C 223.724 128, 222.840 128.450, 222.500 129 C 221.278 130.977, 220.200 129.933, 219.662 126.250 C 218.640 119.264, 217.752 115.504, 216.857 114.377 C 215.876 113.141, 216.766 109.892, 218.381 108.815 C 219.975 107.752, 216.988 103, 214.725 103 C 213.660 103, 211.400 104.169, 209.702 105.597 C 207.186 107.714, 206.420 107.944, 205.558 106.840 C 204.976 106.094, 203.546 105.624, 202.380 105.795 C 200.870 106.016, 200.086 105.443, 199.652 103.802 L 199.043 101.500 196.481 104.250 C 192.296 108.742, 183 107.486, 183 102.429 C 183 101.643, 183.787 100.963, 184.750 100.919 C 185.952 100.863, 185.646 100.459, 183.773 99.628 C 182.274 98.963, 179.799 97.246, 178.273 95.812 C 176.572 94.213, 173.954 93.023, 171.500 92.735 C 161.252 91.529, 146.183 88.696, 143.216 87.416 C 141.410 86.637, 138.100 86, 135.860 86 C 130.753 86, 119.745 88.798, 118.781 90.342 C 117.653 92.147, 114.531 89.725, 114.333 86.891 C 114.241 85.576, 113.479 81.800, 112.639 78.500 C 111.799 75.200, 109.946 67.160, 108.521 60.633 C 107.096 54.106, 105.331 47.581, 104.599 46.133 C 103.867 44.685, 102.715 41.700, 102.039 39.500 C 101.363 37.300, 99.518 32.800, 97.938 29.500 C 96.359 26.200, 94.843 22.363, 94.570 20.973 C 94.297 19.583, 92.498 16.605, 90.572 14.355 C 88.646 12.105, 87.341 9.992, 87.674 9.660 C 88.659 8.675, 83.224 6.959, 71.022 4.404 C 57.819 1.639, 56.084 1.599, 46.278 3.846 M 115 225.532 C 115 229.723, 117.480 234.355, 122.056 238.709 C 125.781 242.253, 126.203 243.051, 125.071 244.415 C 123.539 246.261, 120.878 246.478, 119.287 244.887 C 118.676 244.276, 117.662 243.946, 117.034 244.155 C 116.372 244.376, 117.482 246.574, 119.680 249.395 C 123.131 253.825, 123.467 254.806, 123.483 260.506 C 123.499 266.489, 123.592 266.723, 125.653 265.940 C 126.837 265.491, 130.662 264.608, 134.153 263.978 C 139.951 262.932, 148 259.480, 148 258.039 C 148 257.713, 149.784 255.072, 151.965 252.170 C 156.168 246.576, 156.628 244.931, 157.361 232.894 L 157.824 225.288 148.613 225.770 C 142.166 226.107, 137.256 225.764, 132.253 224.626 C 128.322 223.732, 122.832 223, 120.053 223 C 115.313 223, 115 223.157, 115 225.532" fill="none" stroke="#000" stroke-width="2px" fill-rule="evenodd"/>
</svg>
