<svg xmlns="http://www.w3.org/2000/svg" width="253" height="293" viewBox="0 0 253 293" version="1.1">
	<path d="M 69.961 7.500 C 69.852 9.150, 69.816 10.838, 69.882 11.250 C 70.135 12.855, 66.532 11.880, 63.411 9.500 C 59.682 6.656, 55 6.132, 55 8.559 C 55 9.495, 54.532 9.829, 53.830 9.395 C 53.085 8.934, 52.857 9.185, 53.202 10.086 C 53.571 11.047, 52.966 11.547, 51.314 11.648 C 49.977 11.729, 48.122 12.438, 47.192 13.223 C 46.261 14.008, 44.375 14.709, 43 14.780 C 41.625 14.851, 39.753 15.830, 38.840 16.955 C 37.927 18.080, 36.572 19, 35.830 19 C 35.088 19, 33.908 19.917, 33.208 21.039 C 31.446 23.860, 30.348 22.807, 29.558 17.536 C 28.817 12.598, 28.036 11.665, 25.469 12.650 C 24.061 13.191, 23.859 14.166, 24.332 18.153 C 24.647 20.819, 24.762 23, 24.586 23 C 24.410 23, 23.025 21.125, 21.508 18.832 L 18.750 14.665 17.465 17.066 C 15.697 20.369, 17.065 22.493, 22.513 24.903 C 24.981 25.994, 27 27.127, 27 27.419 C 27 28.088, 23.222 26.664, 18.201 24.102 C 14.370 22.148, 14.318 22.148, 12.667 24.076 C 11.750 25.147, 10.948 27.705, 10.884 29.761 C 10.820 31.818, 10.562 32.712, 10.311 31.750 C 10.059 30.787, 9.489 30, 9.043 30 C 7.345 30, 7.160 34.567, 8.607 40.805 C 9.662 45.355, 9.796 47.604, 9.055 48.345 C 8.475 48.925, 8 50.210, 8 51.200 C 8 52.190, 7.352 53, 6.559 53 C 5.766 53, 4.852 53.431, 4.526 53.958 C 3.455 55.692, 5.770 70.089, 7.412 71.903 C 9.531 74.244, 9.418 74.801, 6.750 75.180 C 3.486 75.644, 3.486 82.055, 6.750 83.487 C 10.266 85.030, 9.604 87.071, 5.832 86.316 C 3.001 85.750, 2.748 85.886, 3.447 87.591 C 3.878 88.641, 4.605 91.067, 5.062 92.982 C 5.520 94.898, 6.375 96.625, 6.962 96.821 C 7.550 97.017, 6.901 98.517, 5.515 100.165 C 2.775 103.420, 2.459 104.548, 4.016 105.510 C 4.575 105.856, 4.796 106.520, 4.508 106.988 C 4.219 107.455, 5.258 108.117, 6.816 108.460 C 9.600 109.071, 9.645 109.192, 9.414 115.502 C 9.211 121.050, 9.438 122.004, 11.081 122.526 C 12.127 122.858, 13.439 122.847, 13.998 122.501 C 14.557 122.156, 15.316 122.689, 15.684 123.687 C 16.053 124.684, 16.808 125.803, 17.363 126.174 C 18.006 126.604, 17.852 127.486, 16.936 128.611 C 15.636 130.207, 15.689 130.298, 17.500 129.564 C 26.317 125.992, 26.430 126.013, 25.012 130.959 C 24.487 132.788, 24.371 134.783, 24.754 135.392 C 25.137 136.002, 25.327 137.248, 25.177 138.161 C 24.519 142.170, 28.945 140.860, 38.978 134.077 L 43.456 131.050 44.626 133.235 C 45.644 135.137, 45.355 135.936, 42.398 139.390 C 40.529 141.574, 39 143.759, 39 144.247 C 39 144.734, 37.875 146.608, 36.500 148.411 C 33.402 152.473, 33.267 153.938, 36.224 151.405 C 37.992 149.891, 37.869 150.283, 35.625 153.313 C 30.551 160.166, 26 167.429, 26 168.675 C 26 169.592, 28.790 169.770, 37.250 169.393 L 48.500 168.892 43 174.550 C 39.975 177.662, 36.262 181.477, 34.750 183.027 C 33.237 184.578, 32 186.501, 32 187.301 C 32 188.101, 31.325 189.315, 30.500 190 C 29.675 190.685, 29 192.570, 29 194.190 C 29 196.739, 29.286 197.044, 31.129 196.459 C 32.789 195.932, 34.056 196.656, 36.879 199.742 L 40.500 203.701 38.552 207.100 C 37.481 208.970, 36.019 210.860, 35.302 211.300 C 34.586 211.740, 34 213.437, 34 215.071 C 34 217.232, 34.650 218.339, 36.384 219.129 C 38.499 220.093, 39.517 219.628, 45.384 215.017 C 49.023 212.157, 52 210.036, 52 210.303 C 52 210.570, 50.587 212.299, 48.860 214.144 C 47.133 215.990, 44.771 218.912, 43.610 220.637 C 42.450 222.363, 40.241 225.359, 38.702 227.294 C 35.435 231.404, 34.390 236.332, 35.933 240.350 L 37.027 243.200 47.789 232.350 C 58.737 221.312, 68.823 213.033, 74.834 210.149 C 77.902 208.677, 78.241 208.680, 79.082 210.182 C 79.646 211.189, 80.762 211.614, 81.998 211.290 C 85.600 210.348, 84.159 213.047, 77.156 220.357 C 68.064 229.846, 60.220 240.466, 59.028 244.902 C 58.496 246.881, 58.104 250.636, 58.157 253.246 L 58.253 257.992 64.877 251.786 L 71.500 245.580 71.813 248.790 C 72.192 252.667, 72.625 252.733, 76.065 249.438 C 78.165 247.426, 79.896 246.827, 84.120 246.650 C 87.465 246.509, 91.732 245.393, 95.402 243.698 C 98.649 242.198, 101.543 241.209, 101.833 241.500 C 102.774 242.440, 103.852 252.286, 103.927 260.614 C 103.967 265.076, 104.436 271.026, 104.969 273.836 C 105.502 276.645, 106.019 281.672, 106.120 285.006 C 106.220 288.340, 106.636 291.275, 107.045 291.528 C 108.369 292.346, 110.729 284.604, 110.271 280.944 C 109.553 275.201, 111.672 274.313, 118.447 277.518 C 122.937 279.642, 138.113 285, 139.639 285 C 139.838 285, 140 284.346, 140 283.546 C 140 282.721, 136.812 280.578, 132.639 278.598 C 125.423 275.174, 119 270.646, 119 268.983 C 119 268.522, 121.509 267.830, 124.575 267.447 C 131.624 266.567, 133.637 268.034, 129.137 270.770 C 125.686 272.869, 125.962 274.008, 129.917 273.985 C 133.617 273.963, 134.964 272.799, 135.177 269.444 C 135.552 263.505, 139.167 262.450, 146.678 266.086 C 149.049 267.234, 152.453 268.401, 154.244 268.680 C 156.035 268.960, 157.950 269.534, 158.500 269.956 C 160.329 271.361, 165 272.091, 165 270.971 C 165 268.650, 159.808 265.386, 152.590 263.170 C 148.415 261.889, 145 260.498, 145 260.079 C 145 259.661, 147.440 258.772, 150.423 258.105 C 155.394 256.992, 159.023 254.690, 157.774 253.441 C 157.494 253.160, 155.292 253.385, 152.882 253.941 C 150.472 254.496, 146.422 254.962, 143.882 254.976 L 139.264 255 137.551 248.750 C 136.609 245.313, 134.911 239.902, 133.777 236.726 C 131.653 230.778, 131.865 228.813, 134.405 230.921 C 135.694 231.991, 136.918 232.317, 143 233.210 C 145.846 233.628, 153 230.946, 153 229.461 C 153 228.400, 154.210 228, 157.421 228 C 161.542 228, 161.887 227.792, 162.515 224.929 C 162.974 222.843, 163.643 222.033, 164.604 222.401 C 166.705 223.208, 171 221.276, 171 219.525 C 171 218.384, 172.134 218, 175.500 218 C 179.740 218, 180.001 217.841, 180.011 215.250 C 180.021 213.024, 180.800 212.128, 184.095 210.548 C 187.696 208.823, 188.119 208.262, 187.743 205.706 C 187.476 203.886, 187.816 202.624, 188.660 202.300 C 189.397 202.017, 190 201.267, 190 200.634 C 190 200, 190.863 198.942, 191.918 198.283 C 193.640 197.208, 194.023 197.533, 195.647 201.460 C 196.642 203.867, 197.804 205.621, 198.228 205.359 C 198.653 205.097, 199.029 205.471, 199.063 206.191 C 199.098 206.911, 199.534 206.488, 200.031 205.250 C 200.558 203.939, 201.794 203, 202.993 203 C 204.487 203, 205.217 202.164, 205.661 199.945 C 206.036 198.070, 206.755 197.076, 207.521 197.370 C 208.208 197.633, 209.765 197.152, 210.981 196.301 C 212.634 195.143, 213.083 194.017, 212.762 191.832 C 212.526 190.226, 212.708 188.680, 213.167 188.397 C 213.625 188.114, 214 188.359, 214 188.941 C 214 190.428, 217.536 190.264, 218.820 188.717 C 219.545 187.844, 219.578 186.069, 218.925 183.163 C 218.192 179.900, 218.282 178.575, 219.307 177.550 C 220.429 176.428, 220.853 176.534, 221.894 178.201 C 222.578 179.298, 223.409 179.924, 223.739 179.594 C 224.070 179.263, 225.389 179.680, 226.670 180.520 C 229.244 182.206, 229.524 181.509, 227.944 177.353 C 226.293 173.010, 228.381 170, 233.047 170 C 237.572 170, 239.393 168.169, 238.145 164.872 C 237.652 163.567, 237.334 160.025, 237.440 157 C 237.546 153.975, 237.244 150.702, 236.769 149.726 C 236.181 148.521, 236.401 147.456, 237.452 146.405 C 239.297 144.560, 239.308 144.445, 237.897 141.807 C 237.057 140.238, 237.104 139.554, 238.095 138.942 C 239.040 138.357, 238.658 137.801, 236.698 136.908 C 235.214 136.232, 234 135.296, 234 134.829 C 234 134.361, 233.030 131.915, 231.845 129.394 C 229.680 124.787, 229.860 123.966, 233.303 122.749 C 234.336 122.383, 236.226 115.247, 236.149 112 C 236.117 110.625, 236.181 105.450, 236.291 100.500 C 236.402 95.550, 236.439 87.787, 236.375 83.250 C 236.310 78.713, 236.601 75, 237.022 75 C 237.992 75, 239 77.590, 239 80.082 C 239 81.137, 239.450 82, 240 82 C 240.550 82, 241.007 81.888, 241.015 81.750 C 241.023 81.612, 241.716 79.700, 242.554 77.500 L 244.078 73.500 243.666 78.209 C 243.440 80.799, 243.670 83.057, 244.177 83.226 C 244.684 83.395, 245.314 87.575, 245.577 92.516 C 247.104 121.145, 248.880 121.265, 249.038 92.750 C 249.103 81.063, 249.359 69.700, 249.608 67.500 C 251.121 54.101, 251.122 50.137, 249.617 47.226 C 245.692 39.636, 239.211 34.720, 231.827 33.732 C 229.020 33.356, 226.980 33.912, 223.168 36.089 C 214.298 41.155, 211.246 48.349, 213.284 59.382 C 213.905 62.747, 214.433 68.425, 214.457 72 L 214.500 78.500 210.500 78.824 C 208.182 79.012, 205.121 80.199, 203.220 81.648 L 199.940 84.148 197.990 81.824 C 196.917 80.546, 195.108 77.624, 193.970 75.331 C 192.832 73.039, 189.962 69.376, 187.593 67.193 C 185.224 65.009, 182.309 61.204, 181.114 58.736 C 179.411 55.217, 178.410 54.250, 176.471 54.250 C 175.112 54.250, 174 54.719, 174 55.292 C 174 57.299, 172.762 55.071, 172.112 51.894 C 171.507 48.935, 171.331 48.812, 169.833 50.310 C 168.336 51.807, 168.159 51.660, 167.548 48.404 C 167.002 45.496, 166.501 44.931, 164.693 45.191 C 163.038 45.429, 162.549 46.119, 162.699 48.003 C 162.917 50.741, 162.796 50.542, 159.833 43.250 C 159.106 41.462, 157.794 40, 156.916 40 C 156.039 40, 154.823 38.907, 154.215 37.572 C 153.279 35.517, 152.677 35.260, 150.304 35.898 C 148.253 36.450, 147.494 37.283, 147.478 39 C 147.450 42.064, 145.365 42.725, 144.484 39.950 C 143.925 38.187, 143.266 37.897, 140.899 38.370 C 138.731 38.804, 138 38.572, 138 37.450 C 138 36.583, 136.733 35.697, 135 35.350 C 133.350 35.020, 132 34.370, 132 33.906 C 132 33.442, 131.325 33.322, 130.500 33.638 C 129.675 33.955, 129 33.689, 129 33.048 C 129 32.407, 128.537 32.168, 127.972 32.517 C 125.916 33.788, 121 33.918, 120.985 32.702 C 120.976 32.041, 120.547 30.833, 120.032 30.017 C 119.261 28.797, 118.555 29.139, 116.053 31.940 C 112.775 35.613, 108.452 36.630, 107.018 34.067 C 106.314 32.811, 105.845 32.970, 104.174 35.031 C 102.724 36.820, 102.463 37.849, 103.225 38.769 C 103.984 39.686, 103.779 40.587, 102.483 42.019 C 101.497 43.108, 100.387 44, 100.016 44 C 99.645 44, 99.377 40.969, 99.421 37.264 C 99.466 33.448, 99.067 30.484, 98.500 30.428 C 97.950 30.372, 96.825 30.051, 96 29.713 C 95.175 29.375, 93.375 28.964, 92 28.799 C 89.635 28.516, 89.466 28.077, 88.864 20.664 C 88.514 16.354, 87.726 12.326, 87.114 11.714 C 86.295 10.895, 86 11.398, 86 13.609 C 86 15.264, 85.403 17.434, 84.674 18.431 C 83.492 20.048, 83.165 19.503, 81.661 13.410 C 79.541 4.817, 78.008 3.003, 77.978 9.050 C 77.964 11.851, 77.255 14.411, 76.066 15.958 L 74.177 18.417 72.516 12.458 C 70.211 4.191, 70.182 4.135, 69.961 7.500 M 88 32.441 C 88 33.298, 88.450 34, 89 34 C 89.550 34, 90 33.577, 90 33.059 C 90 32.541, 89.550 31.840, 89 31.500 C 88.450 31.160, 88 31.584, 88 32.441 M 11 35 C 11 35.550, 11.477 36, 12.059 36 C 12.641 36, 12.840 35.550, 12.500 35 C 12.160 34.450, 11.684 34, 11.441 34 C 11.198 34, 11 34.450, 11 35 M 113.929 231.292 L 109.358 235.500 110.613 243.959 C 112.343 255.620, 113.851 261.170, 115.646 262.483 C 116.485 263.097, 119.945 263.519, 123.336 263.421 C 129.496 263.244, 129.500 263.242, 129.182 260.372 C 128.743 256.404, 127.423 255.324, 125.274 257.172 C 119.141 262.443, 118.241 258.632, 124.114 252.260 C 127.835 248.224, 128.165 247.447, 127.566 244.148 C 127.202 242.142, 126.641 237.946, 126.320 234.825 C 125.823 229.998, 125.396 229.065, 123.461 228.580 C 122.210 228.265, 120.581 227.801, 119.843 227.546 C 119.104 227.292, 116.443 228.978, 113.929 231.292" fill="none" stroke="#000" stroke-width="2px" fill-rule="evenodd"/>
</svg>
