<svg xmlns="http://www.w3.org/2000/svg" width="500" height="298" viewBox="0 0 500 298" version="1.1">
	<path d="M 255 2.001 C 248.675 2.452, 238.325 3.310, 232 3.910 C 225.675 4.509, 212.625 5.679, 203 6.509 C 193.375 7.339, 181.225 8.444, 176 8.964 C 170.775 9.485, 159.300 10.603, 150.500 11.450 C 128.170 13.598, 106.115 15.808, 95.500 16.960 C 90.550 17.497, 82 18.397, 76.500 18.958 C 45.706 22.102, 25.062 25.951, 16.905 30.068 C 12.696 32.192, 7.279 38.059, 5.494 42.427 C 2.732 49.183, 1.798 64.693, 2.937 84.871 C 3.539 95.524, 4.206 104.524, 4.419 104.871 C 4.633 105.217, 5.331 110, 5.971 115.500 C 7.325 127.130, 10.193 139.539, 12.606 144.205 C 13.536 146.003, 17.492 151.252, 21.398 155.870 C 25.304 160.487, 30.925 167.243, 33.890 170.883 C 36.854 174.522, 59.650 202.250, 84.547 232.500 C 129.879 287.577, 133.765 291.778, 142.315 294.954 C 145.953 296.305, 165.435 296.303, 173.918 294.951 C 177.538 294.373, 184.775 293.206, 190 292.357 C 200.220 290.697, 281.018 274.702, 313 268.008 C 323.725 265.763, 335.875 263.233, 340 262.384 C 344.125 261.536, 364.970 257.050, 386.322 252.417 C 456.816 237.121, 469.317 233.279, 479.674 223.732 C 490.327 213.914, 492.736 202.295, 496.626 142 C 498.181 117.883, 498.197 114.541, 496.803 104.838 C 494.266 87.175, 491.616 84.697, 462.926 73.151 C 444.054 65.557, 400.734 48.026, 362.500 32.509 C 349.300 27.152, 329.050 18.935, 317.500 14.249 C 305.950 9.562, 294.402 4.906, 291.837 3.901 C 286.071 1.642, 270.972 0.863, 255 2.001" fill="none" stroke="#000" stroke-width="2px" fill-rule="evenodd"/>
</svg>
