<svg xmlns="http://www.w3.org/2000/svg" width="274" height="500" viewBox="0 0 274 500" version="1.1">
	<path d="M 41.684 41.061 L 2.208 82.121 1.628 98.311 C 1.309 107.215, 0.816 132.725, 0.532 155 L 0.015 195.500 23.859 219.942 L 47.702 244.385 48.419 347.442 C 48.956 424.606, 49.433 450.786, 50.318 451.640 C 51.571 452.849, 128.485 497.352, 132.418 499.145 C 134.467 500.078, 139.539 497.362, 177.115 475.204 L 219.500 450.211 220.647 375.356 C 221.277 334.185, 221.825 287.900, 221.864 272.500 L 221.934 244.500 245.969 220.851 L 270.003 197.203 270.502 184.351 C 270.776 177.283, 271.697 151.340, 272.548 126.701 L 274.094 81.902 261.797 69.094 C 255.034 62.049, 237.350 43.633, 222.500 28.168 L 195.500 0.051 138.330 0.026 L 81.160 0 41.684 41.061" fill="none" stroke="#000" stroke-width="2px" fill-rule="evenodd"/>
</svg>
