<svg xmlns="http://www.w3.org/2000/svg" width="246" height="500" viewBox="0 0 246 500" version="1.1">
	<path d="M 77 1.118 C 42.474 2.731, 12.626 6.391, 4.250 10.037 C 0.510 11.665, -0 12.275, -0 15.115 C -0 16.890, 0.688 19.103, 1.528 20.031 C 2.736 21.365, 2.833 22.308, 1.993 24.518 C 1.408 26.057, 1.019 30.508, 1.129 34.408 C 1.239 38.309, 1.201 41.950, 1.046 42.500 C -0.445 47.777, 2.901 50.235, 13.342 51.529 C 18.439 52.161, 19.423 52.647, 21.063 55.344 C 24.268 60.615, 24.417 66.405, 22.099 95.615 C 18.199 144.742, 16.647 225.186, 19.421 234.403 C 20.671 238.557, 20.661 239.193, 19.340 239.700 C 18.339 240.084, 18.054 240.979, 18.486 242.388 C 19.569 245.922, 19.811 252.367, 18.945 254.644 C 18.496 255.827, 18.294 256.961, 18.498 257.165 C 18.702 257.369, 19.109 275.527, 19.402 297.518 C 19.695 319.508, 20.402 344.925, 20.973 354 C 22.747 382.189, 25.077 411.054, 26.438 421.700 C 28.215 435.602, 27.972 436.455, 21.649 438.507 C 11.161 441.911, 7.846 445.533, 9.527 451.750 C 9.935 453.262, 10.322 460.512, 10.385 467.860 L 10.500 481.219 13.851 484.017 C 20.676 489.714, 43.545 495.402, 70 497.981 C 88.241 499.759, 140.159 500.406, 161.155 499.116 C 203.765 496.499, 236.423 489.820, 243.193 482.339 C 244.601 480.784, 244.894 478.143, 244.952 466.487 C 244.991 458.794, 245.282 450.894, 245.599 448.931 C 246.112 445.761, 245.780 445.014, 242.625 442.244 C 240.671 440.529, 236.469 438.322, 233.287 437.340 C 230.104 436.358, 227.169 435.092, 226.765 434.527 C 225.562 432.844, 225.930 407.009, 227.486 384 C 230.120 345.042, 231.426 293.176, 230.211 275.790 C 229.607 267.150, 228.659 259.231, 228.104 258.193 C 227.403 256.884, 227.438 255.962, 228.220 255.180 C 229.043 254.357, 229.051 253.407, 228.250 251.650 C 227.529 250.068, 227.492 248.908, 228.142 248.258 C 228.791 247.609, 228.603 246.746, 227.592 245.735 C 226.256 244.399, 226.244 244.042, 227.501 242.999 C 228.726 241.983, 228.887 236.489, 228.555 207.150 C 228.080 165.153, 227.002 148.244, 222.395 110.500 C 218.399 77.764, 217.842 61.882, 220.461 55.368 C 221.934 51.706, 222.583 51.162, 226.166 50.589 C 232.480 49.580, 236 47.367, 236 44.409 C 236 43.012, 235.593 41.108, 235.096 40.179 C 234.549 39.158, 234.582 36.510, 235.178 33.494 C 235.928 29.698, 235.828 27.523, 234.760 24.426 C 233.586 21.021, 233.574 20.022, 234.686 18.346 C 236.901 15.010, 235.341 10.264, 231.633 9.061 C 209.566 1.901, 138.427 -1.753, 77 1.118 M 188.824 54.732 L 184.148 55.104 183.562 61.302 C 183.240 64.711, 182.869 69.750, 182.738 72.500 L 182.500 77.500 176.500 78.702 C 173.200 79.362, 164.288 80.218, 156.696 80.603 L 142.893 81.303 153.096 86.646 C 171.031 96.036, 179.338 103.830, 185.980 117.500 C 190.835 127.491, 193.402 139.281, 192.512 147.500 C 190.316 167.772, 173.596 196.558, 145.857 227.822 C 140.329 234.052, 137.992 239.392, 139.941 241.341 C 140.562 241.962, 140.554 242.966, 139.918 244.153 C 139.248 245.406, 139.293 246.678, 140.057 248.107 C 140.768 249.436, 140.835 250.565, 140.237 251.163 C 139.676 251.724, 139.620 253.822, 140.101 256.306 C 140.547 258.613, 140.932 262.136, 140.956 264.136 C 140.994 267.298, 142.663 269.775, 153.758 283.136 C 169.350 301.914, 176.700 312.243, 183.046 324.297 C 190.703 338.841, 192.346 348.073, 189.935 363 C 187.586 377.542, 181.924 389.180, 171.672 400.540 C 168.419 404.143, 165.925 407.200, 166.129 407.334 C 167.866 408.468, 178.315 412.034, 181.500 412.581 C 186.572 413.451, 190.581 415.465, 191.378 417.543 C 191.719 418.432, 191.721 421.519, 191.383 424.402 L 190.766 429.644 198.383 430.610 C 205.016 431.451, 206.065 431.370, 206.505 429.984 C 206.783 429.109, 205.903 418.517, 204.550 406.446 C 200.833 373.295, 198.133 343.520, 197.030 323.500 C 195.771 300.656, 195.714 264.483, 196.930 260.243 C 197.504 258.243, 197.504 257, 196.930 257 C 195.613 257, 195.774 253.626, 197.158 252.242 C 198.034 251.366, 197.996 250.700, 197 249.500 C 196.077 248.388, 196 247.600, 196.740 246.860 C 197.480 246.120, 197.303 244.902, 196.148 242.779 C 195.005 240.680, 194.848 239.623, 195.635 239.331 C 196.447 239.030, 196.490 237.857, 195.786 235.205 C 195.246 233.167, 194.571 214.439, 194.286 193.586 C 193.789 157.134, 194.816 123.256, 197.093 101 C 199.264 79.786, 199.399 67.378, 197.535 60.491 C 196.569 56.921, 195.265 54.081, 194.639 54.180 C 194.013 54.279, 191.396 54.528, 188.824 54.732 M 46.053 58.750 C 44.538 64.204, 44.753 73.830, 46.965 99.604 C 50.772 143.956, 53.346 226.690, 51.161 234.456 C 50.549 236.631, 50.386 238.656, 50.799 238.956 C 51.944 239.785, 52.524 269.085, 52.283 314 C 52.054 356.680, 50.885 384.104, 48.462 403.637 C 47.658 410.120, 47 419.281, 47 423.995 L 47 432.566 54.250 431.672 C 64.925 430.356, 64.352 430.823, 63.728 423.942 C 63.239 418.549, 63.407 417.784, 65.341 416.554 C 68.752 414.387, 77.023 411.878, 82.750 411.274 C 85.638 410.969, 87.988 410.446, 87.974 410.110 C 87.960 409.775, 85.715 407.985, 82.986 406.134 C 75.083 400.774, 65.617 390.028, 61.553 381.804 C 53.393 365.294, 53.419 342.958, 61.616 326.765 C 67.290 315.559, 81.402 296.749, 99.903 275.734 L 108.500 265.968 109.124 259.234 C 109.474 255.468, 109.333 251.977, 108.805 251.314 C 108.209 250.565, 108.238 249.424, 108.884 248.217 C 109.607 246.865, 109.562 245.962, 108.728 245.128 C 107.844 244.244, 107.833 243.497, 108.683 242.136 C 109.381 241.019, 109.473 239.779, 108.924 238.911 C 108.432 238.135, 108.024 236.579, 108.015 235.453 C 108.007 234.327, 106.155 231.627, 103.900 229.453 C 96.441 222.261, 76.107 199.155, 70.064 191.005 C 58.526 175.444, 54 162.215, 54 144.050 C 54 126.799, 58.265 115.234, 68.840 103.808 C 75.289 96.840, 81.287 92.342, 92.535 86.036 L 101.018 81.281 82.259 80.722 C 60.639 80.078, 54.616 78.837, 54.299 74.962 C 54.188 73.608, 53.810 68.563, 53.459 63.750 L 52.820 55 49.957 55 C 47.500 55, 46.946 55.532, 46.053 58.750" fill="none" stroke="#000" stroke-width="2px" fill-rule="evenodd"/>
</svg>
