<svg xmlns="http://www.w3.org/2000/svg" width="483" height="500" viewBox="0 0 483 500" version="1.1">
	<path d="M 154 6.400 C 139.368 7.968, 132.498 9.126, 130 10.444 C 123.082 14.095, 108.878 26.212, 110.093 27.426 C 110.338 27.672, 138.656 28.371, 173.020 28.979 C 207.384 29.588, 237.929 30.179, 240.897 30.293 L 246.293 30.500 253.217 23.352 C 257.123 19.319, 262.615 14.891, 265.820 13.190 C 271.682 10.080, 279.701 8.287, 282.666 9.425 C 284.048 9.956, 283.701 10.519, 280.762 12.516 C 275.726 15.938, 271.531 24.668, 272.378 29.965 L 273.007 33.899 269.896 32.814 C 268.069 32.177, 266.520 32.103, 266.143 32.635 C 264.210 35.359, 259.708 35.647, 230.500 34.916 C 192.033 33.954, 108.369 32.500, 91.476 32.500 C 78.774 32.500, 78.289 32.581, 71.779 35.787 C 63.830 39.702, 58.407 45.464, 53.566 55.141 C 49.603 63.063, 48.388 68.140, 42.956 99.500 C 34.644 147.488, 26.921 192.025, 24.488 206 C 23.100 213.975, 20.181 230.850, 18 243.500 C 15.819 256.150, 12.900 273.025, 11.513 281 C 2.955 330.205, 2.809 331.270, 3.256 341.216 C 3.846 354.356, 6.863 360.562, 17.849 371.236 C 22.228 375.491, 31.912 385.841, 39.370 394.236 C 51.120 407.463, 60.533 416, 63.366 416 C 63.820 416, 65.386 416.831, 66.846 417.847 C 68.306 418.863, 71.059 420.223, 72.964 420.869 C 74.868 421.516, 82.518 426.034, 89.964 430.910 C 121.269 451.412, 141.286 459.569, 184.500 469.432 C 197.700 472.444, 225.750 478.986, 246.834 483.969 C 267.918 488.952, 289.293 493.750, 294.334 494.630 C 311.042 497.547, 335.131 495.121, 346.180 489.407 C 347.795 488.572, 352.578 487.018, 356.808 485.954 C 381.778 479.675, 400.602 462.777, 414.202 434.435 L 418.249 426 422.502 426 C 424.841 426, 427.207 425.438, 427.759 424.750 C 429.117 423.061, 443 386.217, 443 384.305 C 443 383.470, 441.642 381.073, 439.981 378.976 L 436.962 375.164 441.004 360.863 C 449.190 331.898, 456.366 295.682, 460.963 260.132 C 462.056 251.680, 463.418 244.201, 463.990 243.512 C 465.143 242.123, 470.496 219.495, 474.408 199.477 C 479.240 174.746, 480.571 145.976, 477.324 136.428 C 475.226 130.258, 465.967 120.591, 461.140 119.531 C 457.464 118.723, 457.715 119.207, 452.575 103 C 433.654 43.333, 390.563 9.941, 326.182 5.053 C 319.207 4.524, 282.225 4.116, 244 4.147 C 179.539 4.199, 173.014 4.362, 154 6.400" fill="none" stroke="#000" stroke-width="2px" fill-rule="evenodd"/>
</svg>
