<svg xmlns="http://www.w3.org/2000/svg" width="357" height="500" viewBox="0 0 357 500" version="1.1">
	<path d="M 163.142 2.037 C 150.350 5.388, 141.419 10.371, 132.927 18.897 C 120.077 31.798, 113.223 46.614, 112.290 63.508 C 111.165 83.888, 116.216 97.968, 129.727 112.110 C 138.045 120.816, 144.373 125.269, 150.867 126.986 C 155.212 128.134, 155.230 128.158, 154.632 131.898 C 154.110 135.165, 154.421 136.029, 157.016 138.515 C 158.657 140.088, 160 141.688, 160 142.072 C 160 142.456, 156.287 143.311, 151.750 143.972 C 133.166 146.679, 108.364 154.798, 93.321 163.100 C 77.545 171.806, 56.391 189.096, 44.395 203.090 C 13.296 239.367, -1.484 281.934, 0.328 330 C 1.249 354.422, 6.928 375.906, 18.962 400.500 C 26.951 416.827, 36.033 429.946, 47.969 442.402 C 77.236 472.944, 106.768 488.938, 148 496.577 C 166.396 499.986, 183.225 500.660, 198.695 498.610 C 253.072 491.403, 297.407 463.780, 327.274 418.500 C 342.708 395.102, 353.373 366.356, 355.630 342.071 C 356.044 337.614, 356.618 335.369, 357.134 336.183 C 357.602 336.921, 357.976 330.770, 357.985 322.191 C 357.995 312.236, 357.650 307.098, 357 307.500 C 356.400 307.871, 355.998 306.593, 355.996 304.309 C 355.984 292.556, 349.262 265.600, 342.416 249.851 C 336.695 236.687, 324.667 217.298, 315.191 205.965 C 289.583 175.336, 253.214 153.921, 212.500 145.498 C 205.900 144.133, 199.262 143.012, 197.750 143.008 C 194.223 142.998, 194.162 140.779, 197.627 138.509 C 200.034 136.932, 200.205 136.379, 199.674 131.894 C 199.117 127.192, 199.192 127, 201.580 127 C 205.062 127, 212.623 122.973, 219.200 117.615 C 229.560 109.175, 238.936 94.153, 242.053 81 C 243.672 74.168, 243.676 58.479, 242.061 50.500 C 241.393 47.200, 238.816 40.276, 236.334 35.112 C 232.740 27.635, 230.353 24.256, 224.603 18.506 C 208.960 2.864, 184.753 -3.623, 163.142 2.037 M 165.500 19.836 C 156.783 22.453, 151.927 25.248, 145.081 31.586 C 138.371 37.798, 133.160 47.054, 130.515 57.460 C 126.150 74.631, 132.942 94.851, 146.515 105.099 C 152.899 109.919, 153.958 109.535, 153.985 102.390 C 153.993 100.129, 154.281 96.227, 154.625 93.718 C 155.235 89.267, 155.181 89.149, 152.375 88.829 C 150.110 88.570, 149.018 87.546, 147.229 84 C 145.095 79.771, 144.975 78.478, 145.229 62.522 L 145.500 45.543 159 42.294 C 166.425 40.506, 174.750 39.025, 177.500 39.002 C 180.250 38.979, 188.463 40.415, 195.750 42.193 L 209 45.425 208.984 62.963 C 208.968 79.311, 208.814 80.771, 206.707 84.500 C 205.316 86.960, 203.590 88.623, 202.223 88.820 C 200.095 89.125, 200 89.568, 200 99.126 L 200 109.113 203.129 107.307 C 208.280 104.333, 217.305 94.814, 220.367 89.126 C 224.290 81.838, 225.976 74.884, 225.976 66 C 225.976 46.190, 216.195 30.176, 199.250 22.241 C 192.204 18.941, 190.592 18.586, 181.500 18.323 C 174.080 18.109, 169.952 18.499, 165.500 19.836 M 0.402 323 C 0.402 331.525, 0.556 335.012, 0.743 330.750 C 0.931 326.488, 0.931 319.512, 0.743 315.250 C 0.556 310.988, 0.402 314.475, 0.402 323" fill="none" stroke="#000" stroke-width="2px" fill-rule="evenodd"/>
</svg>
