<svg xmlns="http://www.w3.org/2000/svg" width="500" height="432" viewBox="0 0 500 432" version="1.1">
	<path d="M 212.500 1.026 C 194.366 3.083, 158.778 11.971, 142.228 18.576 C 103.909 33.869, 67.580 58.764, 46.260 84.339 C 35.871 96.802, 28.364 108.611, 19.143 127 C 4.079 157.041, -1.027 181.496, 0.350 217 C 1.221 239.456, 5.414 258.432, 14.712 282 C 33.027 328.418, 57.390 358.450, 99.500 386.518 C 130.414 407.123, 157.132 417.999, 195 425.392 C 254.968 437.100, 306.361 433.057, 359.141 412.480 C 402.566 395.549, 437.152 370.048, 460.272 337.912 C 467.863 327.361, 482.845 298.011, 488.559 282.500 C 496.916 259.813, 501.207 232.997, 500.801 206 L 500.598 192.500 500 204.500 C 499.671 211.100, 499.312 214.585, 499.201 212.243 C 498.907 206.014, 496.290 189.195, 493.533 175.813 C 484.604 132.479, 461.699 94.676, 426.500 65.184 C 411.639 52.733, 379.839 32.562, 366.006 26.814 C 363.253 25.670, 361 24.397, 361 23.986 C 361 23.575, 364.724 20.042, 369.275 16.135 C 377.564 9.019, 381.654 3.868, 380.499 1.998 C 380.160 1.449, 378.349 1, 376.475 1 C 373.674 1, 371.450 2.379, 363.974 8.750 C 358.973 13.013, 353.890 17.295, 352.680 18.266 C 350.545 19.980, 349.993 19.871, 333.990 14.602 C 314.896 8.315, 303.554 5.776, 282 2.965 C 264.325 0.659, 225.327 -0.429, 212.500 1.026 M 0.405 209.500 C 0.406 218.300, 0.559 221.766, 0.745 217.203 C 0.930 212.639, 0.929 205.439, 0.742 201.203 C 0.555 196.966, 0.404 200.700, 0.405 209.500" fill="none" stroke="#000" stroke-width="2px" fill-rule="evenodd"/>
</svg>
