<svg xmlns="http://www.w3.org/2000/svg" width="361" height="473" viewBox="0 0 361 473" version="1.1">
	<path d="M 258.522 7.559 C 257.094 8.638, 255.326 8.872, 252.165 8.398 C 247.805 7.744, 247.762 7.768, 241.893 14.031 C 238.652 17.491, 236 20.749, 236 21.272 C 236 21.811, 234.532 21.947, 232.610 21.587 C 227.178 20.568, 221.627 25.507, 215.806 36.537 C 211.110 45.437, 211.052 45.498, 207.559 45.174 C 204.482 44.889, 203.332 45.517, 198.396 50.174 C 195.292 53.103, 191.460 57.781, 189.882 60.570 L 187.012 65.640 179.756 64.734 C 163.589 62.715, 153.779 65.224, 138.043 75.404 C 134.135 77.932, 130.729 80, 130.474 80 C 130.220 80, 124.597 83.713, 117.979 88.250 C 111.362 92.788, 104.389 97.430, 102.484 98.566 C 100.579 99.702, 97.975 101.614, 96.696 102.816 C 95.417 104.017, 93.140 105, 91.635 105 C 89.452 105, 88.602 105.709, 87.436 108.500 C 86.162 111.547, 85.524 112, 82.500 112 C 79.489 112, 78.836 112.457, 77.593 115.431 C 76.436 118.200, 75.534 118.923, 72.913 119.181 C 70.205 119.447, 69.472 120.081, 68.499 123 C 67.661 125.514, 66.651 126.597, 64.916 126.846 C 61.538 127.329, 60 128.840, 60 131.674 C 60 133.479, 59.222 134.375, 56.979 135.157 C 53.743 136.285, 52 138.638, 52 141.880 C 52 143.089, 50.904 144.414, 49.250 145.202 C 47.232 146.165, 46.417 147.371, 46.188 149.733 C 45.975 151.938, 44.952 153.610, 42.938 155.044 C 40.671 156.658, 40 157.915, 40 160.545 C 40 163.078, 39.357 164.375, 37.500 165.592 C 35.573 166.855, 35 168.085, 35 170.960 C 35 173.438, 34.319 175.306, 32.970 176.527 C 31.504 177.854, 31.003 179.418, 31.164 182.161 C 31.326 184.901, 30.781 186.604, 29.206 188.280 C 27.270 190.342, 27.159 190.960, 28.218 193.768 C 29.279 196.578, 29.167 197.193, 27.219 199.267 C 25.356 201.250, 25.169 202.101, 25.977 204.920 C 26.695 207.423, 26.552 208.965, 25.395 211.202 C 24.205 213.505, 24.097 214.840, 24.914 217.182 C 25.630 219.238, 25.641 220.802, 24.948 222.098 C 24.364 223.188, 24.216 226.147, 24.600 229.041 C 25.170 233.337, 24.959 234.415, 23.179 236.309 C 22.030 237.533, 21.093 239.426, 21.097 240.517 C 21.101 241.608, 20.422 247.225, 19.588 253 C 18.755 258.775, 17.768 267.867, 17.396 273.205 C 16.800 281.763, 16.996 283.772, 19.050 290.205 C 21.047 296.457, 22.211 298.298, 27.194 303.078 L 33.008 308.657 28.984 314.402 C 23.820 321.774, 20.285 328.774, 19.129 333.923 C 18.361 337.339, 18.528 338.401, 20.158 340.474 L 22.104 342.948 18.122 348.224 C 10.827 357.891, 7.841 367.230, 10.570 371.849 C 12.248 374.689, 12.216 374.899, 9.143 381.206 C 5.256 389.184, 5.069 393.777, 8.500 397 C 10.003 398.412, 11 400.456, 11 402.127 C 11 408.326, 12.362 409.564, 34.463 423.454 C 38.883 426.232, 44.075 429.669, 46 431.091 C 47.925 432.513, 54.805 437.413, 61.290 441.978 C 67.774 446.544, 73.489 451.045, 73.990 451.981 C 75.126 454.104, 94.362 467.933, 98.186 469.376 C 100.630 470.299, 101.210 470.145, 102.559 468.220 C 103.414 466.999, 105.100 465.998, 106.307 465.996 C 110.986 465.988, 119.589 458.022, 121.533 451.897 C 121.983 450.480, 122.737 450.147, 124.498 450.589 C 127.125 451.248, 128.813 449.046, 136.260 435.250 C 139.306 429.607, 140.665 428, 142.391 428 C 143.610 428, 146.023 426.538, 147.753 424.750 C 152.088 420.270, 161 405.194, 161 402.340 C 161 400.443, 161.531 400, 163.804 400 C 169.048 400, 176.115 389.901, 179.071 378.183 C 180.261 373.465, 181.032 372.426, 185.908 368.967 C 191.647 364.896, 197.923 362.987, 212.152 360.988 C 221.526 359.671, 223 359.188, 223 357.433 C 223 356.474, 224.109 356, 226.347 356 C 229.581 356, 236.406 352.049, 251.500 341.440 C 254.250 339.507, 257.027 337.600, 257.671 337.202 C 260.247 335.613, 260.273 331.227, 257.727 327.807 C 252.170 320.343, 251.917 318.622, 257.210 324.292 C 264.655 332.266, 266 331.644, 266 320.225 C 266 305.063, 267.344 300.144, 276.581 281.500 C 286.261 261.962, 285.921 263.234, 295.514 210.751 L 301.865 176.001 306.996 171.004 C 312.505 165.638, 320 151.534, 320 146.533 C 320 145.063, 321.289 141.979, 322.865 139.680 C 327.520 132.890, 330.670 125.829, 331.349 120.665 C 331.699 118.006, 332.836 114.631, 333.877 113.165 C 338.192 107.086, 341.947 99.832, 343.623 94.342 C 344.603 91.129, 346.696 86.572, 348.274 84.217 C 352.951 77.232, 355.338 71.112, 354.010 69.512 C 353.149 68.474, 353.274 67.370, 354.530 64.942 C 356.093 61.920, 356.082 61.645, 354.343 60.022 C 351.113 57.008, 331.102 45, 329.311 45 C 328.363 45, 319.468 40.122, 309.544 34.159 C 299.620 28.196, 290.712 23.035, 289.750 22.690 C 288.788 22.345, 288 21.656, 288 21.159 C 288 19.874, 264.378 5.993, 262.258 6.032 C 261.291 6.049, 259.610 6.736, 258.522 7.559" fill="none" stroke="#000" stroke-width="2px" fill-rule="evenodd"/>
</svg>
