<svg xmlns="http://www.w3.org/2000/svg" width="68" height="386" viewBox="0 0 68 386" version="1.1">
	<path d="M 3.478 5.024 C 1.699 6.991, 1.738 7.804, 4.830 33.274 C 11.438 87.690, 20.267 181.964, 24.003 238 C 25.121 254.775, 26.462 273, 26.982 278.500 C 27.502 284, 28.026 291.405, 28.146 294.955 L 28.365 301.411 21.933 302.496 C 9.661 304.566, 8.421 306.659, 9.301 323.817 C 10.346 344.200, 18.231 385, 21.125 385 C 22.683 385, 22.057 376.572, 19.489 362.943 C 13.823 332.873, 12.439 312.723, 15.829 309.655 C 16.835 308.745, 18.860 308, 20.329 308 C 22.569 308, 23.005 308.444, 23.029 310.750 C 23.270 333.479, 31.442 382, 35.029 382 C 36.766 382, 36.060 373.181, 33.023 356.961 C 28.439 332.475, 26.690 309.710, 29.200 307.200 C 30.976 305.424, 36.667 305.689, 37.393 307.582 C 37.727 308.452, 38.004 311.939, 38.008 315.332 C 38.033 333.699, 47.666 381.560, 50.932 379.542 C 52.095 378.823, 51.125 369.936, 48.473 357 C 43.855 334.475, 41.269 309.464, 43.173 305.750 C 44.424 303.311, 49.627 303.434, 50.965 305.934 C 51.534 306.998, 52.009 310.936, 52.020 314.684 C 52.067 331.422, 61.046 377, 64.295 377 C 65.863 377, 64.406 364.319, 61.077 349 C 58.896 338.966, 57.682 330.034, 57.136 320 C 56.050 300.061, 54.818 298.267, 43.008 299.431 L 36.313 300.090 35.682 268.295 C 34.939 230.836, 32.146 198.437, 20.530 92.500 C 18.058 69.950, 15.262 41.658, 14.317 29.630 C 12.891 11.484, 12.280 7.354, 10.727 5.380 C 8.435 2.466, 5.905 2.342, 3.478 5.024" fill="none" stroke="#000" stroke-width="2px" fill-rule="evenodd"/>
</svg>
