<svg xmlns="http://www.w3.org/2000/svg" width="365" height="373" viewBox="0 0 365 373" version="1.1">
	<path d="M 327.461 34.105 C 290.620 71.118, 234.813 126.440, 201.453 159.017 C 188.227 171.933, 172.992 187.450, 167.599 193.500 C 162.206 199.550, 155.825 205.658, 153.421 207.074 C 148.984 209.686, 147.360 209.979, 119.755 213.144 C 113.846 213.821, 108.502 214.690, 107.880 215.074 C 107.259 215.458, 106.750 216.892, 106.750 218.261 C 106.750 220.629, 106.330 220.808, 98.125 221.937 C 93.381 222.590, 80.050 224.842, 68.500 226.942 C 55.238 229.354, 47.075 230.420, 46.346 229.837 C 44.992 228.755, 39.775 229.828, 40.521 231.035 C 41.135 232.027, 40.453 232.237, 26.500 235.356 C 12.481 238.490, 6.280 241.132, 4.992 244.522 C 3.755 247.775, 2.809 270.606, 3.961 269.395 C 4.429 268.903, 5.574 264.675, 6.506 260 C 7.438 255.325, 8.883 250.732, 9.716 249.793 C 11.598 247.674, 19.970 244.911, 35.229 241.372 C 46.668 238.720, 47.009 238.698, 49.003 240.503 C 50.127 241.520, 50.699 242.678, 50.274 243.075 C 49.848 243.473, 44.325 245.247, 38 247.017 C 12.403 254.184, 10.969 255.116, 8.129 266.440 C 5.735 275.984, 5.625 276.792, 6.907 275.450 C 7.405 274.927, 8.802 270.798, 10.010 266.274 L 12.206 258.048 17.353 255.642 C 22.519 253.227, 49.478 245, 52.224 245 C 53.677 245, 57.700 248.718, 56.911 249.331 C 56.685 249.507, 51.100 251.580, 44.500 253.939 C 29.561 259.279, 19.007 264.109, 16.844 266.596 C 15.251 268.428, 11.968 283.081, 12.030 288.078 C 12.085 292.452, 13.634 287.994, 15.011 279.500 C 16.867 268.047, 17.222 267.421, 23.713 264.152 C 30.125 260.923, 56.307 250.981, 58.260 251.033 C 59.590 251.069, 64 254.432, 64 255.410 C 64 255.735, 63.526 256, 62.946 256 C 60.895 256, 25.475 273.762, 23.816 275.623 C 22.814 276.746, 21.498 281.452, 20.566 287.245 C 18.759 298.474, 18.706 299.300, 19.832 298.604 C 20.290 298.321, 21.226 294.132, 21.911 289.295 C 22.597 284.458, 23.383 279.696, 23.658 278.712 C 24.382 276.126, 30.025 272.862, 48.985 264.064 L 65.797 256.263 68.649 258.692 C 70.217 260.029, 71.050 261.326, 70.500 261.575 C 69.950 261.825, 63.548 265.510, 56.273 269.764 C 39.707 279.453, 32.316 284.796, 31.047 288 C 29.832 291.067, 28.171 312, 29.142 312 C 30.113 312, 30.772 308.008, 31.538 297.500 C 31.990 291.292, 32.706 287.919, 33.847 286.628 C 36.253 283.905, 44.697 278.372, 59.773 269.641 C 71.464 262.870, 73.311 262.092, 75.273 263.110 C 80.448 265.795, 80.342 266.021, 70.755 272.748 C 53.833 284.622, 43.518 292.810, 41.876 295.671 C 40.030 298.885, 38.189 322, 39.778 322 C 40.285 322, 40.992 316.488, 41.349 309.750 L 41.998 297.500 47.306 292.500 C 50.225 289.750, 59.183 282.884, 67.213 277.243 L 81.812 266.985 84.900 268.743 C 86.598 269.709, 87.990 270.760, 87.994 271.078 C 87.997 271.395, 82.937 275.977, 76.750 281.259 C 70.562 286.541, 62.379 294.026, 58.565 297.893 L 51.630 304.923 49.998 317.015 C 49.100 323.666, 48.697 329.313, 49.101 329.563 C 49.506 329.813, 50.090 328.776, 50.399 327.259 C 50.950 324.553, 53 308.361, 53 306.716 C 53 305.125, 63.557 294.708, 76.818 283.215 L 90.136 271.672 94.144 273.613 L 98.153 275.554 83.310 291.045 C 62.966 312.276, 63.943 310.628, 62.393 326.344 C 61.683 333.544, 61.304 339.637, 61.551 339.884 C 62.648 340.981, 63.139 338.481, 64.106 326.880 C 65.376 311.630, 65.221 311.896, 84.294 292.358 C 92.107 284.355, 98.635 277.445, 98.800 277.003 C 98.965 276.561, 100.897 276.906, 103.092 277.768 C 105.740 278.808, 106.905 279.805, 106.552 280.726 C 106.258 281.490, 100.952 288.624, 94.759 296.578 C 78.973 316.856, 77.538 319.648, 75.988 333.104 C 75.294 339.129, 75.002 344.335, 75.340 344.673 C 76.275 345.608, 76.754 343.407, 78.042 332.244 C 79.467 319.900, 80.823 317.371, 97.959 295.086 L 109.418 280.184 113.459 281.754 C 115.682 282.618, 117.623 283.413, 117.774 283.520 C 117.925 283.627, 113.943 290.867, 108.925 299.607 C 95.402 323.164, 94.045 326.190, 91.401 338.671 C 88.745 351.213, 88.650 352, 89.794 352 C 90.231 352, 91.611 346.750, 92.862 340.333 C 94.112 333.916, 96.282 326.378, 97.683 323.583 C 99.562 319.833, 118.402 285.822, 119.453 284.282 C 119.593 284.077, 127.159 286.152, 127.801 286.572 C 127.967 286.680, 126.099 291.658, 123.652 297.634 C 121.204 303.610, 117.082 313.675, 114.492 320 C 109.298 332.684, 102.437 357.354, 104.273 356.742 C 104.898 356.534, 106.435 352.119, 107.689 346.932 C 108.942 341.744, 110.477 335.925, 111.099 334 C 112.141 330.776, 129.048 287.874, 129.540 287.205 C 129.659 287.043, 131.832 287.432, 134.368 288.071 C 138.325 289.067, 138.911 289.535, 138.493 291.366 C 138.225 292.540, 135.559 303.850, 132.569 316.500 C 127.214 339.152, 123 359.520, 123 362.751 C 123 367.200, 124.933 361.335, 126.872 351 C 128.557 342.019, 138.904 296.093, 140.538 290.341 C 140.777 289.500, 142.041 289.446, 145.155 290.146 C 147.513 290.676, 149.581 291.248, 149.750 291.416 C 150.236 291.902, 147.105 329.882, 146.054 336.248 C 145.532 339.410, 143.957 346.312, 142.553 351.587 C 139.864 361.688, 139.391 365.055, 140.884 363.450 C 141.821 362.442, 147.472 339.251, 148.426 332.500 C 148.736 330.300, 149.444 322.425, 149.999 315 C 150.554 307.575, 151.253 299.223, 151.553 296.439 L 152.097 291.378 156.275 291.939 C 161.457 292.635, 161.508 292.786, 163.024 312.229 C 164.393 329.773, 164.391 344.392, 163.020 356 C 161.791 366.397, 161.782 367, 162.859 367 C 164.175 367, 166.004 348.321, 165.970 335.214 C 165.954 328.771, 165.292 316.975, 164.500 309 C 163.708 301.025, 163.046 294.123, 163.030 293.662 C 162.996 292.719, 171.081 293.816, 172.261 294.914 C 173.668 296.223, 181.167 330.419, 181.711 338 C 182.097 343.391, 181.651 348.619, 180.124 356.592 C 177.691 369.300, 177.721 369, 178.854 369 C 179.958 369, 184 347.568, 184 341.711 C 184 336.432, 181.961 325.239, 177.914 308.304 C 174.501 294.019, 174.605 295, 176.500 295 C 178.778 295, 178.293 292.394, 175.632 290.333 C 173.688 288.828, 172.435 285.146, 168.632 269.769 C 166.084 259.466, 164 250.804, 164 250.519 C 164 250.233, 165.589 250, 167.531 250 C 172.438 250, 172.788 248.182, 169.722 238.611 C 164.510 222.338, 164.647 223.147, 166.071 217.106 C 167.371 211.594, 167.898 210.989, 197.540 181 C 214.120 164.225, 242.944 134.532, 261.593 115.016 C 280.242 95.499, 300.677 74.124, 307.004 67.516 C 333.610 39.728, 363 7.771, 363 6.629 C 363 5.107, 360.974 3, 359.511 3 C 358.912 3, 344.489 16.997, 327.461 34.105 M 83 226.014 C 70.625 228.133, 57.864 230.458, 54.641 231.183 C 49.111 232.426, 48.886 232.590, 50.641 234.105 C 52.363 235.591, 54.546 235.265, 80.250 229.685 C 95.513 226.372, 108 223.288, 108 222.831 C 108 221.712, 108.534 221.644, 83 226.014 M 88 229.577 C 77.275 231.982, 65.181 234.680, 61.124 235.571 L 53.748 237.192 55.806 239.251 L 57.864 241.309 83.891 233.992 C 98.206 229.968, 109.685 226.299, 109.400 225.838 C 108.762 224.806, 111.061 224.405, 88 229.577 M 85.500 235.277 C 71.750 239.196, 60.300 242.550, 60.056 242.730 C 59.811 242.909, 60.506 243.951, 61.600 245.045 C 63.586 247.030, 63.619 247.023, 80.045 241.111 C 108.891 230.729, 112 229.527, 112 228.756 C 112 227.685, 112.954 227.450, 85.500 235.277 M 88.660 239.720 C 64.915 248.321, 64.829 248.363, 67.160 250.156 C 68.447 251.146, 69.938 251.966, 70.472 251.978 C 72.175 252.017, 114 232.623, 114 231.795 C 114 230.549, 113.829 230.602, 88.660 239.720 M 26.329 237.006 C 16.155 239.397, 9.108 241.819, 7.093 243.618 C 6.551 244.101, 5.214 253, 5.683 253 C 5.885 253, 6.452 251.942, 6.944 250.648 C 8.210 247.319, 14.989 244.443, 29.793 240.957 C 46.060 237.126, 45.522 237.334, 43.990 235.488 C 42.343 233.504, 40.593 233.654, 26.329 237.006 M 93.192 243.948 L 71.885 253.764 74.473 255.800 L 77.061 257.836 96.281 246.788 C 106.851 240.712, 115.927 235.348, 116.450 234.870 C 119.055 232.484, 112.647 234.986, 93.192 243.948 M 98.702 247.304 C 79.236 258.388, 79.062 258.517, 81.270 260.228 C 82.496 261.178, 84.065 261.966, 84.755 261.978 C 86.005 262, 118.574 239.498, 119.530 237.952 C 121.313 235.066, 116.017 237.444, 98.702 247.304 M 104.194 251.210 L 87.035 263.420 90.009 265.303 L 92.983 267.185 108.431 253.899 C 122.048 242.187, 124.976 239, 122.117 239 C 121.697 239, 113.632 244.494, 104.194 251.210 M 114.463 250.801 C 108.392 256.136, 101.457 262.180, 99.052 264.234 L 94.678 267.968 98.589 269.611 L 102.500 271.255 115.668 257.474 C 126.705 245.923, 128.618 243.475, 127.489 242.346 C 126.749 241.606, 125.998 241.023, 125.821 241.051 C 125.645 241.080, 120.533 245.467, 114.463 250.801 M 121.410 253.821 C 115.877 259.695, 109.896 266.163, 108.119 268.195 L 104.889 271.891 108.037 273.519 C 109.769 274.415, 111.296 275.002, 111.430 274.824 C 129.341 251.056, 133.013 245.640, 132.157 244.254 C 131.744 243.585, 127.467 247.392, 121.410 253.821 M 130.202 252.263 C 127.436 256.243, 122.462 263.100, 119.149 267.500 L 113.126 275.500 116.750 276.763 C 118.744 277.457, 120.694 277.682, 121.083 277.263 C 122.358 275.889, 137 248.174, 137 247.133 C 137 244.072, 134.676 245.825, 130.202 252.263 M 131.593 261.998 C 126.811 270.926, 123.034 278.364, 123.199 278.527 C 123.365 278.689, 125.083 279.117, 127.018 279.479 L 130.536 280.136 136.326 264.582 C 140.446 253.512, 141.852 248.558, 141.202 247.396 C 140.492 246.127, 138.352 249.380, 131.593 261.998 M 138.401 263.764 C 134.339 274.912, 132.669 280.718, 133.401 281.152 C 134.005 281.510, 135.850 281.960, 137.500 282.152 L 140.500 282.500 143.732 267 C 146.699 252.770, 147.133 246.977, 145.231 247.014 C 144.829 247.022, 141.755 254.560, 138.401 263.764 M 145.839 265.555 C 142.019 284.150, 142.005 284, 147.470 284 C 150.343 284, 150.655 282.430, 151.566 263.403 C 152.126 251.703, 151.999 249.214, 150.821 248.762 C 149.704 248.333, 148.641 251.917, 145.839 265.555 M 153.573 261.917 C 153.216 268.837, 152.673 276.798, 152.365 279.607 L 151.805 284.713 156.036 285.390 C 158.363 285.762, 160.350 285.939, 160.451 285.783 C 160.653 285.474, 158.290 260.003, 157.449 253.417 C 157.128 250.908, 156.406 249.333, 155.574 249.333 C 154.543 249.333, 154.067 252.325, 153.573 261.917 M 160.334 249.772 C 159.452 250.334, 159.558 254.933, 160.771 268.683 L 162.374 286.852 166.405 287.875 C 168.622 288.437, 170.658 288.675, 170.930 288.403 C 171.331 288.003, 162.123 248.963, 161.641 249.015 C 161.563 249.024, 160.975 249.364, 160.334 249.772" fill="none" stroke="#000" stroke-width="2px" fill-rule="evenodd"/>
</svg>
