<?xml version="1.0" encoding="utf-8"?>
<!DOCTYPE svg PUBLIC "-//W3C//DTD SVG 1.1//EN" "http://www.w3.org/Graphics/SVG/1.1/DTD/svg11.dtd">
<svg version="1.1" xmlns="http://www.w3.org/2000/svg" xmlns:xlink="http://www.w3.org/1999/xlink" x="0px" y="0px" width="400px"
	 height="466px" viewBox="0 0 400 466" enable-background="new 0 0 400 466" xml:space="preserve">
<g id="Слой_2">
	<polygon fill="#9C794C" stroke="#9C794C" stroke-miterlimit="10" points="0,86.5 400,113 400,466 0,466 	"/>
</g>
<g id="Слой_12">
	<path fill="#7D603E" stroke="#7D603E" stroke-miterlimit="10" d="M32.25,192.75C42.934,181.929,77.5,151,77.5,151H94
		c0,0-36.5,35-54,62.5c-15.947,25.059-40,73-40,73V229C0,229,23.612,201.498,32.25,192.75z"/>
</g>
<g id="Слой_12__x28_копия_x29_">
	<path fill="#7D603E" stroke="#7D603E" stroke-miterlimit="10" d="M73.5,276.25C79.874,249.22,117,147.5,117,147.5h13
		c0,0-22.096,93.546-27.5,139C94,358,92,466,92,466H38C38,466,60,333.5,73.5,276.25z"/>
</g>
<g id="Слой_12__x28_копия2_x29_">
	<path fill="#7D603E" stroke="#7D603E" stroke-miterlimit="10" d="M167,273.333c-5.212-40.333-13.333-130.667-13.333-130.667
		l12.604,0.012c0,0,13.147,70.741,26.063,114.655C219,348,257.667,466,257.667,466h-62.765C194.902,466,174.538,331.669,167,273.333
		z"/>
</g>
<g id="Слой_12__x28_копия3_x29_">
	<path fill="#7D603E" stroke="#7D603E" stroke-miterlimit="10" d="M267.667,256.667c-21.632-34.439-74-119.333-74-119.333
		L209,142.667c0,0,53.333,66.667,85.333,112.667C348.303,332.915,447.667,466,447.667,466h-62.765
		C384.902,466,308.475,321.635,267.667,256.667z"/>
</g>
<g id="Слой_12__x28_копия4_x29_">
	<path fill="#7D603E" stroke="#7D603E" stroke-miterlimit="10" d="M315.333,209C285.451,183.091,237,142.667,237,142.667l17.333,3
		c0,0,36.502,25.84,80,56.667c36.674,25.99,65.667,51,65.667,51v42C400,295.333,373,259,315.333,209z"/>
</g>
<g id="Слой_17">
	<path fill="#8C9B26" stroke="#8C9B26" stroke-miterlimit="10" d="M4.333,410l3,44.333l3-56.667L13,452.333l2.667-42.667l4,43
		l4.667-48.333l4,44l8.333-48L34,447l8.333-36.667l3.333,38L52.333,402v43l6-41.333l2,41.333l7-42.333V448c0,0,13.333-49,13.667-48
		s-3.333,48-3.333,48l9-42.333L88,445l2.333-38.333L95,440l6.667-36.667L105.333,447v-42.333l5.667,40l3.333-38.333l3,32l6.667-44
		L125.667,442c0,0,6.333-36.333,6-34.667C131.333,409,134,448.667,134,448.667l4.333-36c0,0,7.333,37,7.667,33.667
		C146.333,443,149,408,149,408l3.333,28c0,0,11-34,11.333-32c0.333,2,6,44,6,44l5.667-37.667c0,0,4,33.667,5,33
		c1-0.667,3-41.667,3-41.667l10.333,38c0,0,1.667-33.667,1.667-32.667s2.667,27.667,3.333,28.667c0.667,1,6.667-30.667,7-28.667
		c0.333,2,3,29.667,3,29.667s9.667-31.667,9-28.667c-0.667,3-0.601,31,0.033,32s4.3-29.667,4.3-28.667s1.667,36,3.667,33
		s3.333-41,3.333-41l4.667,34.333l6.667-39v49l5.333-31.333V449l5.667-43.667l3.667,41L261.333,404L264,444.333l6.667-50
		c0,0-0.333,44,0,45.333c0.333,1.333,8-47.333,8-47.333L284,448.667l9.667-40L295,443.333l3.667-40.667l3,45L309.333,402v44L316,403
		l9,48.333V407l6,41.333l5.667-46l-2,41.667l10-40.667l-2,39.333l11.001-34.812v46.478L359,408.667V442l5.667-41.667l7.336,41.498
		c0,0,7.998-43.831,6.331-40.165c-1.667,3.667,0.228,47,0.228,47L382,399l4.333,47.667L392,397l2,51l6-46.335V466H0L4.333,410z"/>
</g>
<g id="Слой_3">
	<linearGradient id="SVGID_1_" gradientUnits="userSpaceOnUse" x1="200" y1="-8.979441e-009" x2="200" y2="184.5">
		<stop  offset="0" style="stop-color:#0076C0"/>
		<stop  offset="0.0859" style="stop-color:#007AC2"/>
		<stop  offset="0.2182" style="stop-color:#0083C8"/>
		<stop  offset="0.3805" style="stop-color:#3294D1"/>
		<stop  offset="0.5665" style="stop-color:#7AAEDE"/>
		<stop  offset="0.7725" style="stop-color:#BBD1EE"/>
		<stop  offset="0.9925" style="stop-color:#FDFEFF"/>
		<stop  offset="1" style="stop-color:#FFFFFF"/>
	</linearGradient>
	<path fill="url(#SVGID_1_)" stroke="#D4E9ED" stroke-miterlimit="10" d="M0,0v176c0,0,103.469-29.508,200-29
		c95,0.5,200,37.5,200,37.5V0H0z"/>
</g>
<g id="Слой_4">
	<path fill="#BA8233" stroke="#BA8233" stroke-miterlimit="10" d="M348.667,142.667c20.736-1.604,51.333,2.026,51.333,2.026V184.5
		c0,0-36.667-11.5-51.194-15.23c-18.521-4.755-55.318-12.435-55.318-12.435S318.5,145,348.667,142.667z"/>
</g>
<g id="Слой_5">
	<path fill="#F2F7FA" stroke="#F2F7FA" stroke-miterlimit="10" d="M246.961,57.339c-3.88-1.894-7.12-7.839-7.087-15.748
		c0.049-11.704,12.598-11.811,12.598-11.811s3.546-7.954,11.811-12.598c5.217-2.931,11.024,0,11.024,0s3.193-9.449,11.024-9.449
		c15.419,0,16.535,11.811,16.535,11.811S311,14,318.614,17.969c15.455,8.055,13.649,15.247,13.136,21.531
		c-1,12.25-7.066,16.608-12.348,17.839C301.763,61.446,263.235,65.283,246.961,57.339z"/>
</g>
<g id="Слой_6">
	<path fill="#F2F7FA" stroke="#F2F7FA" stroke-miterlimit="10" d="M351.667,89c-2.262-31.671,24-25,24-25
		s0.098-14.667,11.667-18.667C390.352,44.29,400,43.667,400,43.667v85.667c0,0-6.333-1.667-9-6.667c-2.828-5.302,0.667-14,0.667-14
		S353.667,117,351.667,89z"/>
</g>
<g id="Слой_7">
	<path fill="#F2F7FA" stroke="#F2F7FA" stroke-miterlimit="10" d="M191.333,109.333c4.674-16.691,24-10.648,24-10.648
		S216.068,85.229,228,78.667c6.667-3.667,18,2.667,18,2.667s6-14.348,21.981-14C284.929,67.702,293,81.667,293,81.667
		S327.221,64.362,334,97c9,43.333-22.123,47.877-37.323,48c-24.756,0.2-76.226,2.1-98.677-8.333
		C191.621,133.702,186.667,126,191.333,109.333z"/>
</g>
<g id="Слой_9">
	<polygon fill="#A56B22" stroke="#A56B22" stroke-miterlimit="10" points="49,149.5 41.5,149.25 41.5,166 49,164.375 	"/>
</g>
<g id="Слой_8">
	<path fill="#CC6615" stroke="#CC6615" stroke-miterlimit="10" d="M45.75,151C20.5,152.25-4.445,132.172,2,120.5
		c1.404-2.543,11-3.75,11-3.75S-0.813,95.678,3,90.5C5.786,86.717,22.5,94,22.5,94S9.287,61.688,17,57c12.75-7.75,19.75,13,19.75,13
		s5.28-19.87,18.5-16.5C68,56.75,61,85,61,85s10.275-5.831,16,3.25C84.25,99.75,66.5,116,66.5,116s7.25-2,10.5,2.5
		C83.599,127.638,79.224,149.343,45.75,151z"/>
</g>
<g id="Слой_11">
	<polygon fill="#A56B22" stroke="#A56B22" stroke-miterlimit="10" points="112.125,111.75 100.792,111.75 100.792,158.625 
		112.125,157 	"/>
</g>
<g id="Слой_10">
	<path fill="#9A3233" stroke="#9A3233" stroke-miterlimit="10" d="M108.5,116C79.471,118.832,43.035,60.562,59,47.5
		C64.5,43,84.75,57,84.75,57S59.473,12.111,70.5,4C79.057-2.294,107,25.75,107,25.75S109.25,2,118.5,2c22.5,0,18,28.25,18,28.25
		S148.75,32,150.5,48C152.672,67.863,139.25,113,108.5,116z"/>
</g>
</svg>
