<?xml version="1.0" encoding="utf-8"?>
<!DOCTYPE svg PUBLIC "-//W3C//DTD SVG 1.1//EN" "http://www.w3.org/Graphics/SVG/1.1/DTD/svg11.dtd">
<svg version="1.1" id="Слой_1" xmlns="http://www.w3.org/2000/svg" xmlns:xlink="http://www.w3.org/1999/xlink" x="0px" y="0px"
	 width="150px" height="150px" viewBox="0 0 150 150" enable-background="new 0 0 150 150" xml:space="preserve">
<g>
	<path fill="#9BBD1E" stroke="#9BBD1E" d="M144.074,82.268c0,0-4.898-2.733-10.246-2.237l0.302-1.363
		c0.73,0.047,1.522,0.013,2.37-0.165l-1.777-1.492c0,0,4.003,0.247,5.341-1.245l-2.494-1.861c0.979-0.161,1.956-0.479,2.494-1.088
		l-0.268-0.2c1.088-0.745,2.045-1.85,1.606-3.314l-1.172,0.04c0.889-0.729,1.55-1.721,1.172-2.985l-7.127,0.247l-0.446-2.735
		c0,0-5.341,0.5-7.127,1.743c0,0-2.198-0.548-4.058-0.327c0.206-0.146,0.378-0.3,0.496-0.459l-2.447-1.556
		c0.124-0.045,0.249-0.09,0.365-0.14c2.232,0.569,7.545,1.572,10.993-0.543l-3.563-1.741c0,0,5.787,1.496,8.462-0.496l-3.46-1.929
		c1.284-0.065,2.55-0.337,3.46-1.013l-0.676-0.382c0.766-0.41,1.413-0.953,1.565-1.642c0,0-1.55-0.373-3.555-0.532
		c1.35-0.384,3.271-1.146,3.555-2.417c0,0-6.236-1.49-9.8,0.247l0.303-2.052c1.028-0.009,2.332-0.29,3.261-1.462
		c0,0-0.91-1.019-3.376-1.234c-0.028-0.088-0.056-0.172-0.084-0.253c1.048,0.03,2.46-0.211,3.46-1.462c0,0-0.91-1.013-3.376-1.232
		c-0.346-1.251-1.228-2.155-2.274-2.206c-0.118-0.455-0.427-0.968-1.035-1.533c0,0-3.404,0.382-4.555,1.64
		c-0.378-1.217-1.275-2.078-2.329-2.078c-0.29,0-0.565,0.069-0.826,0.191h-1.64l-0.511-0.34c-0.446-0.857-1.204-1.423-2.052-1.423
		c-1,0-1.861,0.78-2.267,1.9c-0.317-0.086-0.814-0.197-1.406-0.266c0.674-0.58,1.136-1.578,1.158-2.722
		c1.378,0.058,2.902-0.103,3.741-0.917l-1.329-0.741c-0.573-0.189-0.904-0.502-0.904-0.502l0.904,0.502
		c0.785,0.258,2.018,0.286,3.555-1.002c0.24-0.204,0.358-0.457,0.365-0.747c1.303,0.446,3.268,0.713,5.65-0.307l-4.347-2.054
		l0.537-0.211c1.082,0.08,2.372-0.064,3.81-0.68l-4.347-2.05l2.342-0.934c0,0-2.364-1.32-4.59-1.479
		c-0.034-0.034-0.062-0.075-0.097-0.109c0.663-0.208,2.088-0.769,2.344-1.769c0,0-1.11-0.307-2.632-0.154
		c-0.015-0.028-0.022-0.047-0.034-0.069l-1.337,0.296v-0.039c0.745-0.371,2.385-1.44,1.337-3.207l-0.854,0.193l0.515-0.414
		c0,0-0.633-0.088-1.537-0.127c-0.165-0.438-0.356-0.824-0.577-1.133l2.114-1.69c0,0-4.961-0.685-6.814,0.938
		c0.316-0.352,0.702-1.172-1.269-2.117c-0.414-0.697-0.932-1.129-1.496-1.163l0.889-0.118c0,0-1.082-1.202-3.072-1.674l-0.373-0.206
		c-0.144-0.223-0.309-0.41-0.481-0.558l3.926-0.507c0,0-1.646-1.829-4.602-1.861v-0.069c0.275-0.251,1.213-1.185,0.93-1.983
		l-1.073,0.298c-0.34-2.063-1.275-3.542-2.372-3.542c-0.723,0-1.369,0.648-1.833,1.683c-0.564,0.088-1.176,0.206-1.7,0.316
		c-0.408,0.045-0.835,0.111-1.262,0.208l3.563-3.254c0,0-4.012-0.185-6.017,1.307c0,0,0.67-2.984-3.003-3.542l-0.228,0.382
		c-0.461-1-1.103-1.619-1.805-1.619c-0.78,0-1.475,0.743-1.936,1.908c-0.345-0.103-0.704-0.153-1.048-0.114l-1.007,1.677
		c0,0-0.661-2.61-1.998-2.61l-1.668,2.239c0,0-4.016-1.492-5.684-1.121l1.337,1.679c0,0-3.682-0.558-5.017,0.558l1.005,0.934
		c0,0-2.672,0.376-3.34,1.492l3.038,0.142c-0.268,0.099-0.509,0.223-0.702,0.382l1.005,0.93c0,0-2.672,0.373-3.34,1.496l4.01,0.182
		c0,0-0.67,1.863,0.998,1.863l2.005-0.185v0.674c-0.116,0.034-0.234,0.069-0.331,0.112l0.331,0.184v0.897
		c0,0,0.249,0.009,0.635,0.009c0,0.032,0,0.06,0.007,0.088c-0.91,0.35-2.413,1.03-2.647,1.805l-0.034-0.034
		c-0.343-2.093-1.282-3.598-2.385-3.598c-1.198,0-2.198,1.771-2.451,4.134c-0.91-0.034-1.902,0.103-2.812,0.614
		c0,0-0.387-1.29-1.889-2.076c-0.455-1.378-1.204-2.279-2.067-2.279c-0.848,0-1.591,0.876-2.046,2.226
		c-1.584-0.234-3.589-0.348-4.686,0.264l1,1.492c0,0-3.177-0.159-3.888,1.32c-1.55-0.296-3.274-0.472-4.465-0.141l0.889,1.247
		c0,0-4.459,0.994-5.347,2.486h4.459l0.309,0.601c-1.232,0.33-4.072,1.187-4.768,2.344h4.459l0.841,1.636
		c-2.013-0.475-4.941-0.951-7.077-0.354c0,0,1.777,2.237,6.684,2.735c0,0-0.311,0.114-0.71,0.328
		c-1.889-0.369-4.209-0.61-5.974-0.118c0,0,1.123,1.41,4.031,2.241c-0.009,0.092-0.028,0.185-0.028,0.281l0.957-0.051
		c0.524,0.109,1.095,0.2,1.724,0.262c0,0-1.895,0.711-2.496,1.977c-0.06,0.015-0.122,0.032-0.185,0.05l0.11,0.131
		c-0.069,0.185-0.11,0.378-0.11,0.577l0.543-0.026l1.247,1.557c0,0-6.691-2.239-8.915-0.496c0,0-2.226-0.496-4.012,1.241
		c0,0,1.64,1.367,4.92,1.26c-0.35,0.103-0.655,0.249-0.908,0.444c0,0-2.226-0.498-4.012,1.245c0,0,1.337,1.11,4.004,1.247
		c0.021,0.32,0.077,0.627,0.165,0.917l-1.048,0.82c0,0,0.034,0.02,0.096,0.047c-1.646,0.296-3.065,0.82-3.658,1.73
		c0,0,2.351,0.728,4.658,1.067c-1.758,0.219-3.417,0.646-4.293,1.455c-0.296-0.165-0.621-0.26-0.973-0.26
		c-0.406,0-0.792,0.136-1.136,0.367c-0.159-1.644-1.206-2.919-2.488-2.919c-1.393,0-2.522,1.496-2.522,3.336
		c0,0.53,0.103,1.026,0.262,1.468c-0.028,0.088-0.056,0.174-0.084,0.268c-0.874-0.017-1.737,0.045-2.37,0.258
		c-0.109-0.017-0.213-0.028-0.318-0.028c-1.219,0-2.233,1.148-2.466,2.677c-1.219,0.243-2.426,0.635-3.417,1.256l3.542,0.612
		c0.028,0.09,0.056,0.176,0.084,0.262c-0.09,0.255-0.167,0.53-0.208,0.82c-1.219,0.238-2.426,0.631-3.417,1.256l0.502,0.088
		l-0.502,0.2c0,0-3.031-0.565-5.478,0.111c-0.331,0.03-0.642,0.149-0.923,0.333c-0.442,0.204-0.848,0.466-1.179,0.796l0.365,0.045
		c-0.371,0.581-0.593,1.331-0.593,2.15c0,0.526,0.097,1.026,0.262,1.471c-0.013,0.03-0.028,0.062-0.034,0.092
		c-0.833,0.08-2.666,0.404-4.01,1.713c0,0,1.687,0.279,3.81,0.148c0.041,0.386,0.137,0.747,0.262,1.078
		c-0.801,0.071-2.694,0.376-4.072,1.717c0,0,2.728,0.457,5.622-0.06c0.215,0.079,0.44,0.124,0.676,0.124
		c0.605,0,1.163-0.281,1.597-0.758c0.043-0.017,0.084-0.034,0.125-0.051l0.249,1.539c-0.835,0.545-1.413,1.685-1.413,3.005
		c0,0.528,0.097,1.024,0.262,1.47c-0.084,0.225-0.152,0.47-0.193,0.726c-1.634-0.466-3.928-0.766-6.479,0.009l1.035,0.925
		c-0.29,0.526-0.468,1.17-0.489,1.87c-0.18,0.045-0.358,0.097-0.545,0.152l0.138,0.122C6.409,76.524,5.851,77,5.521,77.543h2.114
		c-0.137,0.393-0.227,0.825-0.234,1.28c-0.717,0.427-1.481,0.996-1.88,1.67h2.177c0.421,1.048,1.26,1.758,2.211,1.758
		c0.517,0,1-0.208,1.4-0.563v0.773c-2.404-0.193-5.113-0.197-6.236,0.554l4.459,1.49c0,0-0.421,0.327-0.923,0.792
		c-1.49,0.017-2.825,0.189-3.535,0.663l2.232,0.745c-0.2,0.268-0.358,0.539-0.449,0.781l2.391,0.191
		c-0.606,0.513-2.039,1.784-2.391,2.756l3.115,0.247c0,0-0.296,1.526,1.606,2.477c0.455,0.777,1.165,1.273,1.964,1.273
		c1.013,0,1.889-0.792,2.288-1.94c0.902,0.21,2.488,0.372,4.837-0.064l-3.115,2.234c0,0,1.696,0.172,3.551-0.036
		c-0.009,0.064-0.015,0.131-0.015,0.199c0,1.846,1.131,3.343,2.516,3.343c1.391,0,2.516-1.497,2.516-3.343
		c0-0.148-0.009-0.294-0.022-0.442c0.041-0.013,0.118-0.045,0.193-0.08c0.577,0.897,1.303,1.7,2.183,2.35
		c-0.446,0.131-0.833,0.29-1.122,0.496c0,0,0.642,0.414,1.708,0.837c-1.475,0.172-5.678,0.807-7.496,2.43
		c0,0,2.239,0.975,5.416,0.844c-1.834,0.352-4.177,0.996-5.416,2.102c0,0,3.664,1.591,8.269,0.427
		c0.047,0.189,0.103,0.382,0.184,0.586c-0.281,0.65-0.502,1.685,0.009,2.967l3.121-1.241c0,0,2.226,2.237,7.573,2.484
		c0,0-0.331-2.016-2.398-3.213c0.717,0.131,1.515,0.227,2.398,0.268c0,0-0.041-0.238-0.18-0.599
		c1.509-0.034,3.171-0.253,4.184-0.932l-2.675-1.241c0,0,5.356-0.247,7.133-1.492c0,0,0.446,2.237,3.57,2.984l0.44-1.492
		c0,0,3.121,0.494,6.236-0.994c0,0,0-1.41-0.578-2.692c0.191-0.079,0.384-0.161,0.578-0.255c0,0,0-0.219-0.034-0.565
		c0.876,0.154,2.157,0.221,4.044,0.028l-1.784-1.488c0,0,4.898,0,6.685-0.996c0,0,3.121,1.243,4.459,1.738l0.889-1.243
		c0,0,0,1.988,4.899,0.747c0,0,2.675,0.496,7.127-1.741c0,0,1.273,0.987,3.611,1.689c-0.227,0.234-0.401,0.438-0.489,0.586h3.072
		c-0.337,0.29-2.66,2.254-3.072,2.945h1.612c0.124,0.189,0.324,0.374,0.62,0.535l0.29-0.034c-0.779,0.734-1.861,2.106-0.29,2.979
		l2.226-0.247c0,0,4.01,2.986,10.246,2.239l-0.449-1.992c0,0,4.458,0.5,6.238-0.496l-0.442,2.232c0,0,5.796-0.491,7.573-3.225
		c0,0,3.563,0.741,5.347,0.496c0,0-0.633-1.765-2.769-3.029c0.977,0.114,2.025,0.187,2.769,0.084c0,0-0.44-1.224-1.818-2.364
		c0.496-0.245,0.964-0.541,1.369-0.906c0,0,4.458,1.739,10.697,0.247l-3.563-1.992c0,0,6.236,0.251,9.351-2.484
		c0,0-4.01-1.243-7.125-0.247c0,0-0.18-0.101-0.511-0.249c2.089-0.131,5.555-0.625,7.635-2.449c0,0-0.861-0.267-2.089-0.456
		c0.255-0.017,0.511-0.041,0.751-0.079l-3.561-2.984c0,0,8.908,1.488,11.134-0.996c0,0-1.612-0.9-3.997-1.574
		C141.773,83.5,143.316,83.116,144.074,82.268z M120.936,51.82l1.756-0.416l0.723,0.404c-0.543,0.35-0.97,0.73-1.163,1.123
		c0,0-0.614-0.226-1.552-0.494C120.796,52.244,120.873,52.042,120.936,51.82z M21.747,68.687c-0.013,0.131-0.019,0.273-0.028,0.427
		c-0.846,0.03-2.301,0.131-3.636,0.42c-0.084-0.255-0.187-0.5-0.317-0.715c0.71-0.227,1.434-0.609,2.011-1.258
		c0,0,0.489,0.67,1.979,1.125H21.747z M37.666,51.103c-0.386,0.09-0.717,0.204-0.959,0.337c0,0-0.627-1.213-1.956-2.205
		c-0.103-0.264-0.243-0.509-0.393-0.723c1.076,0.283,2.716,0.67,4.216,0.827C38.141,49.775,37.816,50.391,37.666,51.103z
		 M130.714,89.478c0,0-0.882-0.491-2.385-0.957c0.2-0.103,0.4-0.211,0.599-0.326c0,0,1.799,0.605,3.907,0.914
		C132.12,89.148,131.388,89.262,130.714,89.478z"/>
	<path fill="#654020" d="M119.777,85.106c0-0.206,0.056-0.401,0.077-0.605c-0.442-0.023-0.904-0.049-1.331-0.069l1.082,0.674
		c-6.401-0.554-32.208,7.135-37.48,8.467c0.069-4.032,5.727-6.532,6.492-10.488c4.989-2.979,9.076-4.761,16.587-6.35
		c-7.629,0.734-10.117,2.881-16.331,5.004c1.515-7.477,5.016-15.851,16.78-21.335C84.407,67.68,93.165,81.659,79.238,90.486
		c-0.468-4.055-5.416-16.012,1.116-18.867c4.858-2.121,5.865-6.951,7.76-9.82c2.211-3.343,4.306-6.76,6.953-10.046
		c-0.063,0.013-0.125,0.024-0.187,0.034c-2.825,3.081-5.41,6.208-7.779,9.372c-2.488,3.327-2.928,8.322-9.75,10.469
		c0.468-5.467,0.936-10.935,1.406-16.402c0.359-4.203,0.895-8.369,2.666-12.508c0.221-0.524,0.489-1.054,0.752-1.584
		c0.213-1.232,0.668-2.432,1.378-3.501c0.144-1.887,0.827-3.735,2.13-5.236c0.069-0.932,0.013-1.861-0.317-2.799
		c-2.205,6.644-8.484,13.584-8.484,20.298c-1.936-5.579,0.028-11.006-0.481-16.597c-2.441,6.071-0.069,12.163-1.93,18.231
		c-2.204-1.501-7.352-3.795-7.91-5.586c-0.807-2.55-1.855-7.232-6.953-8.747c2.728,2.321,4.031,4.909,4.643,7.534
		c-3.156-1.148-4.163-3.394-8.082-4.025c8.035,4.589,17.51,10.171,17.336,16.179c-0.172,6.137-1.466,13.203-1.466,18.905
		c0-0.088-0.034-0.178-0.09-0.264c0.006,2.946-8.207-3.877-9.164-4.742c1.136,1.024,1.578,2.722,2.563,3.793
		c-8.49-1.108-16.553-4.385-23.553-6.818c3.293,1.548,7.172,2.836,11.01,4.059c-3.211-0.39-6.554-0.848-9.868-0.94
		c8.829,0.242,16.973,3.069,24.519,5.251c9.662,2.793,5.974,13.371,6.422,18.418c-5.051-2.673-11.164-3.971-15.34-6.918
		c-2.956-2.091-6.56-4.182-11.377-5.347c4.072,2.215,8.201,4.549,11.184,7.129c-4.734-0.805-9.737-1.329-14.773-1.271
		c7.374,0.451,15.338,1.713,21.258,3.941c12.368,4.662,3.142,28.149,3.582,37.593c0.311,6.676,2.061,12.255-0.97,18.746
		c0.131-0.004,0.247-0.017,0.378-0.017c1.49,0,2.806,0.221,3.969,0.597c1.166-0.376,2.488-0.597,3.975-0.597
		c1.069,0,2.042,0.12,2.943,0.32c0.421-0.079,0.854-0.148,1.303-0.195c1.013-0.376,2.157-0.62,3.43-0.704
		c-0.013-0.024,0-0.041-0.013-0.064c-2.846-6.837-5.416-11.662-7.62-18.538c-1.269-3.959,2.651-32.989,8.241-34.76
		c5.169-1.636,28.204-8.632,34.702-8.638c0.352,0,0.745,0.004,1.116,0.004C119.839,85.589,119.777,85.355,119.777,85.106z"/>
</g>
</svg>
