<?xml version="1.0" encoding="utf-8"?>
<!-- Generator: Adobe Illustrator 17.0.0, SVG Export Plug-In . SVG Version: 6.00 Build 0)  -->
<!DOCTYPE svg PUBLIC "-//W3C//DTD SVG 1.1//EN" "http://www.w3.org/Graphics/SVG/1.1/DTD/svg11.dtd">
<svg version="1.1" id="Слой_1" xmlns="http://www.w3.org/2000/svg" xmlns:xlink="http://www.w3.org/1999/xlink" x="0px" y="0px"
	 width="3200px" height="400px" viewBox="0 0 3200 400" enable-background="new 0 0 3200 400" xml:space="preserve">
<g>
	<g transform="translate(0.000000,150.000000) scale(0.100000,-0.100000)">
		<path fill="none" stroke="#000000" stroke-width="20" stroke-miterlimit="10" d="M1624.471,1298.527
			c-92.293-21.859-242.877-136.011-332.741-250.163l-89.864-114.152l-184.586-12.144
			c-208.874-14.573-259.878-46.147-330.312-206.445c-77.72-184.586-82.578-301.167-12.144-437.178
			C764.688,96.288,932.273-25.15,1126.574-54.296c60.719-9.715,133.582-41.289,162.727-68.005
			c53.433-51.004,55.862-68.005,55.862-480.896c0-565.902-102.008-1384.396-206.445-1656.418
			c-17.001-41.289,9.715-43.718,337.598-43.718h357.028l38.86,89.864c55.862,138.44,568.331,782.063,845.21,1066.228
			c223.447,228.304,252.592,250.163,359.457,264.735c70.434,12.144,157.87,7.286,221.018-12.144
			c63.148-17.001,131.153-21.859,162.727-9.715c31.574,9.715,65.577,17.001,72.863,14.573c9.715,0,36.431,19.43,58.29,43.718
			c41.289,46.147,41.289,51.004-26.716,111.723c-38.86,34.003-136.011,104.437-216.16,157.87
			c-80.149,53.433-172.442,116.581-206.445,140.868c-48.575,36.431-111.723,48.575-291.452,55.862l-230.733,7.286l-4.858-97.151
			c-4.857-133.582-89.864-446.893-155.441-575.617c-29.145-58.29-55.862-143.297-60.719-189.444
			c-4.857-46.147-7.286-92.293-7.286-102.008c-2.429-26.716-568.331-723.772-633.908-784.491
			c-38.86-36.432-87.436-48.575-194.301-48.575c-77.721,0-150.583,7.286-157.87,17.001c-9.715,9.715-4.858,85.007,9.715,170.014
			c60.719,357.028,94.722,893.786,82.578,1309.104c-14.573,517.327,14.573,633.908,131.153,510.041
			c75.292-80.149,230.733-172.442,286.594-172.442c82.578,0,233.161-70.434,323.026-148.155
			c43.718-38.86,104.437-70.434,133.582-68.005c41.289,0,31.574,9.715-36.431,36.432c-94.722,41.289-131.153,94.722-92.293,143.297
			c41.289,51.004,55.862,242.877,24.288,340.027s-19.43,153.012,111.723,541.615c75.292,223.446,63.148,293.881-63.148,378.887
			c-51.004,34.003-133.582,121.438-187.015,194.301C2000.93,1269.381,1821.201,1344.673,1624.471,1298.527z"/>
	</g>
</g>
<g>
	<g transform="translate(0.000000,150.000000) scale(0.100000,-0.100000)">
		<path fill="none" stroke="#000000" stroke-width="20" stroke-miterlimit="10" d="M5498.582,1284.227
			c-27.27-37.186-57.019-109.079-66.935-156.181c-9.916-47.102-39.665-128.911-64.455-178.492
			c-27.27-52.06-47.103-114.037-47.103-143.785c0-54.539-24.791-64.456-64.456-24.791c-47.102,47.102-109.079-2.479-136.348-109.079
			c-34.707-128.911-12.395-436.314,47.102-629.681c61.977-190.888,205.762-414.003,307.403-466.063
			c44.623-24.791,131.39-49.581,193.367-57.018c138.828-17.353,141.307-27.27,99.163-448.71
			c-37.186-386.733-9.917-617.286,96.683-830.485c64.456-131.39,104.121-255.343,161.139-513.165
			c12.395-54.539,29.749-69.414,79.33-69.414c74.372,0,71.893-34.707,7.437,337.152c-29.749,163.618-27.27,180.971,22.312,285.092
			c29.749,61.976,54.539,153.702,54.539,203.283c0,52.06,39.665,193.367,86.767,317.32
			c163.618,418.961,277.655,1028.81,247.906,1323.818c-9.916,109.079,0,195.846,37.186,334.673
			c27.27,101.641,79.33,319.799,114.037,483.417c34.707,163.618,74.372,317.32,89.246,344.589
			c17.354,34.707,14.875,42.144-9.916,34.707c-54.54-19.833-240.469-280.134-366.901-520.602
			c-118.995-225.594-121.474-228.073-146.265-161.139c-14.874,39.665-27.27,109.079-27.27,158.66v89.246l-109.079-12.395
			c-106.6-12.395-109.079-12.395-123.953,66.935c-29.749,153.702-218.157,359.464-366.9,396.649
			C5560.558,1351.162,5540.726,1341.246,5498.582,1284.227z"/>
	</g>
</g>
<g>
	<g transform="translate(0.000000,150.000000) scale(0.100000,-0.100000)">
		<path fill="none" stroke="#000000" stroke-width="20" stroke-miterlimit="10" d="M9806.881,1299.959
			c-37.15-27.243-86.684-52.01-104.021-52.01c-19.813,0-49.533-22.29-64.394-49.533c-14.859-27.243-37.149-56.963-49.533-66.87
			c-14.859-9.907-24.767-79.253-24.767-156.03c-2.477-126.31,4.953-143.647,86.684-222.9c66.87-61.917,104.02-79.253,146.123-69.347
			c49.533,12.383,52.01,9.907,27.243-37.15c-37.149-69.347-34.673-104.02,9.907-104.02c19.813,0,47.057-22.29,61.916-52.01
			c17.337-27.243,44.58-44.58,61.917-37.15c19.813,7.43,42.104-17.337,59.44-64.393c34.673-96.59,34.673-225.377,2.477-205.563
			c-12.384,7.43-24.767,44.58-24.767,81.73c0,47.057-19.813,74.3-61.917,94.113c-74.3,37.15-86.684,24.767-86.684-86.683
			c2.477-61.917,24.767-116.403,74.3-175.843c86.684-99.067,89.16-121.357,34.674-314.537
			c-22.29-79.253-47.057-188.227-56.963-245.19c-9.907-54.487-84.207-277.387-163.46-492.856
			c-136.217-369.023-146.124-386.36-175.844-329.397c-42.104,79.253-160.983,128.787-260.05,108.973
			c-42.104-7.43-163.46-76.777-269.957-151.077c-104.02-74.3-222.899-148.6-262.526-165.937l-71.823-29.72l84.207-9.907
			c81.729-7.43,121.356,14.86,421.033,230.33c96.59,71.823,212.993,79.253,294.723,22.29c56.964-39.627,74.3-143.647,29.721-170.89
			c-14.86-7.43-24.767-61.917-24.767-118.88c0-56.963-22.29-175.843-52.011-265.003c-27.243-89.16-71.823-237.76-96.59-329.396
			l-47.057-168.413l52.01,7.43c42.104,7.43,64.394,59.44,141.17,331.873c106.497,376.453,183.273,495.333,373.977,577.063
			c66.87,29.72,133.74,52.01,148.601,52.01c14.859,0,151.076-49.533,299.676-111.45c269.957-108.973,349.21-126.31,433.417-94.113
			c29.72,9.907-4.953,27.243-106.497,47.057c-81.729,17.337-232.806,66.87-331.873,111.45
			c-227.853,101.543-408.649,108.973-547.343,24.767l-94.113-56.963l24.767,71.823c12.384,37.15,69.347,220.423,123.833,403.697
			c56.964,183.273,128.787,383.883,160.983,445.8c99.066,188.227,235.283,492.856,235.283,520.1c0,14.86,37.15,49.533,81.73,74.3
			c47.057,27.243,96.59,76.777,111.449,108.973c32.197,71.823,168.414,106.497,225.377,54.487
			c22.29-17.337,64.394-42.103,96.59-49.533c29.72-9.907,54.486-34.673,54.486-56.963c0-24.767,14.86-34.673,49.534-24.767
			c27.243,7.43,56.963,2.477,64.393-9.907c17.337-32.197,126.311-27.243,148.601,4.953c7.43,14.86,2.477,39.627-12.384,54.487
			c-39.627,39.627-34.673,66.87,9.907,52.01c39.626-17.337,160.982,101.543,160.982,156.03c0,19.813,22.29,64.393,49.534,99.067
			c56.963,74.3,44.579,106.497-37.15,106.497c-76.776,0-94.113,32.197-96.59,183.273c-2.477,118.88-7.43,126.31-76.776,138.693
			c-44.58,9.907-71.824,29.72-66.87,47.057c2.477,17.337-12.384,47.057-37.15,66.87c-37.149,24.767-39.627,39.627-14.86,81.73
			c27.244,42.103,19.813,52.01-74.3,96.59c-61.916,29.72-133.739,44.58-170.89,37.15c-44.58-9.907-91.637,7.43-148.6,49.533
			c-49.533,34.673-116.403,61.917-168.413,61.917c-47.058,0-178.32,4.953-289.771,9.907
			C9905.947,1349.492,9866.32,1342.062,9806.881,1299.959z"/>
	</g>
</g>
<g>
	<g transform="translate(0.000000,150.000000) scale(0.100000,-0.100000)">
		<path fill="none" stroke="#000000" stroke-width="20" stroke-miterlimit="10" d="M13063.141,1157.755
			c-34.604-27.189-56.851-29.661-81.567-9.887c-76.625,64.266-390.537-46.963-370.764-128.531
			c7.416-27.189-9.887-51.907-46.963-69.209c-81.567-37.076-74.152-113.701,14.83-180.438c44.492-32.133,69.21-69.209,61.794-91.455
			c-7.415-27.189,34.604-69.209,135.946-135.946c81.568-54.379,148.306-101.342,148.306-103.814c0-4.944-71.681,0-160.664,7.415
			c-153.249,14.831-165.607,12.359-234.816-54.379c-74.152-71.681-96.398-145.833-49.436-173.023
			c14.831-9.887,22.246-34.605,19.774-56.85c-4.943-32.133,19.774-46.963,98.87-64.266c81.567-19.774,101.342-32.133,88.983-61.794
			c-9.888-22.246-22.246-79.096-29.661-126.059c-4.943-46.963-22.246-98.87-34.604-116.172
			c-12.359-17.302-17.303-42.02-7.415-59.322c9.887-14.831,4.943-54.379-12.359-86.511c-27.189-46.963-27.189-71.681-2.472-123.588
			c24.718-54.379,22.246-74.153-9.887-108.757c-32.133-37.076-34.604-56.85-12.359-96.398
			c34.604-69.209-7.415-150.777-81.567-150.777c-101.342,0-165.607-29.661-165.607-76.624c0-24.718,12.358-51.907,24.718-59.322
			c39.548-24.718,29.661-61.794-17.303-61.794c-59.322-2.472-108.757-44.492-163.136-140.89
			c-42.02-76.624-42.02-79.096,12.359-116.172c29.661-22.246,69.209-39.548,86.511-39.548c17.303,0,32.133-9.887,32.133-24.718
			c0-37.076,252.119-27.189,321.328,12.359c148.305,84.04,131.003,17.302-24.718-101.342
			c-84.039-64.266-113.7-101.342-98.87-121.116c12.359-14.83,14.831-39.548,4.943-51.907
			c-12.358-12.359-34.604-54.379-49.435-91.455c-27.189-61.794-24.718-69.209,34.604-91.455
			c51.906-19.774,61.794-37.076,49.435-84.04c-7.415-32.133,7.416-98.87,34.604-160.664
			c39.549-76.624,64.266-101.342,111.229-101.342c32.133,0,66.737,12.359,74.152,27.189c12.358,14.83,27.189,9.887,46.963-17.302
			c29.661-37.076,34.604-34.604,81.568,22.246c27.189,37.076,56.851,59.322,64.266,51.907c4.943-7.415,27.189,44.492,44.491,111.229
			c34.604,140.89,51.907,143.362,59.322,14.831c4.943-86.511,59.322-170.551,143.361-215.042
			c59.322-32.133,140.89,49.435,140.89,140.89c0,46.963,12.359,61.794,51.907,61.794c44.491,0,49.436,12.359,39.548,135.946
			c-4.943,74.153,0,135.946,9.888,135.946c12.358,0,22.245-9.887,22.245-22.246c0-39.548,74.152-51.907,123.588-22.246
			c34.604,22.246,54.379,22.246,81.567-2.472c42.021-32.133,165.607-12.359,165.607,27.189c0,14.83,34.604,19.774,84.04,9.887
			c54.379-9.887,91.455-4.943,108.757,17.302c17.303,19.774,81.568,37.076,145.834,39.548c64.265,2.472,128.53,14.83,140.89,27.189
			c34.604,34.605,113.7,32.133,113.7-2.472c0-14.831,14.831-22.246,34.604-14.831c24.718,9.887,39.548-17.302,51.907-96.398
			c12.358-96.398,22.245-108.757,79.096-108.757c34.604,0,86.512-24.718,118.645-54.379
			c113.7-108.757,341.102-66.737,405.367,74.153c24.718,49.435,19.774,76.624-22.246,145.833
			c-59.322,101.342-59.322,106.285-14.83,106.285c19.773,0,61.794-44.491,91.455-98.87c37.076-64.266,69.209-96.398,91.454-86.511
			c19.774,7.415,61.794-14.831,93.927-49.435c64.266-69.209,128.531-79.096,148.306-24.718c9.887,19.774,34.604,37.076,56.85,37.076
			c51.907,0,210.1,210.099,187.854,247.175c-9.887,14.831,9.887,46.963,42.02,74.153c46.964,37.076,51.907,54.379,29.661,91.455
			c-14.83,24.718-51.906,46.963-81.567,51.907c-56.851,9.887-61.794,24.717-29.661,76.624
			c24.718,39.548-29.661,98.87-91.455,101.342c-17.302,0-49.435,17.302-69.209,37.076c-22.246,19.774-64.266,37.076-96.398,37.076
			c-84.039,0-135.946,24.718-135.946,64.266c0,22.246,27.189,34.605,69.209,34.605c93.927,0,165.607,56.85,229.873,182.91
			c46.963,98.87,49.435,116.172,19.774,187.853c-29.661,66.737-44.492,76.624-101.342,64.266
			c-64.266-12.359-64.266-9.887-39.549,61.794c19.774,59.322,19.774,81.568-7.415,96.398
			c-37.076,24.718-170.551,4.944-207.627-27.189c-79.097-74.153-113.701,56.85-44.491,163.136
			c17.302,27.189,32.132,59.322,32.132,74.153c0,42.02-158.191,88.983-242.231,71.681c-51.906-9.887-79.096-7.415-79.096,12.359
			s-12.359,22.246-46.964,2.472c-61.793-32.133-76.624-32.133-76.624,2.472c0,14.831-27.189,61.794-61.794,106.285
			s-61.794,93.927-61.794,106.285c0,14.831-29.661,46.963-66.737,69.209c-39.548,24.718-121.115,86.511-182.909,138.418
			c-81.568,66.737-128.531,88.983-165.607,79.096c-37.076-7.415-59.322,0-69.209,27.189c-7.415,22.246-29.661,39.548-49.436,39.548
			c-24.717,0-32.133,17.302-19.773,61.794c9.887,44.492,2.472,66.737-24.718,76.624c-24.718,9.887-39.548,44.492-39.548,98.87
			c0,118.644-46.964,207.627-111.229,207.627c-29.66,0-79.096,29.661-113.7,64.266c-32.133,34.605-103.813,84.04-158.192,108.757
			c-98.87,44.491-98.87,44.491-155.72-12.359c-32.133-32.133-51.907-71.681-42.021-86.511c7.416-12.359,4.943-24.718-4.943-24.718
			c-12.358,0-32.133,24.718-44.491,54.379c-32.133,69.209-71.681,81.568-118.645,32.133c-46.963-44.492-66.737-46.963-66.737-4.943
			c0,17.302-32.133,49.435-71.681,74.152C13115.048,1202.246,13122.463,1202.246,13063.141,1157.755z"/>
	</g>
</g>
<g>
	<g transform="translate(0.000000,150.000000) scale(0.100000,-0.100000)">
		<path fill="none" stroke="#000000" stroke-width="20" stroke-miterlimit="10" d="M17689.092,1312.425
			c-14.914-19.885-34.799-69.597-42.256-111.852c-9.941-54.683-29.826-79.539-59.654-79.539c-24.855,0-69.596-19.885-99.424-44.741
			l-54.684-44.741l96.939-86.996c82.023-74.568,94.453-96.939,74.568-141.679c-14.914-29.827-44.742-54.683-67.111-54.683
			c-24.857,0-69.598-22.37-104.396-47.226c-39.77-32.313-72.082-42.255-96.938-24.856c-19.885,12.428-77.055,22.37-126.766,22.37
			h-94.453V586.629c0-91.967-12.428-124.28-64.627-169.021l-62.139-54.683l111.852-84.51
			c101.91-77.054,114.338-96.939,114.338-181.449c0-126.766-57.17-124.28-121.795,2.486
			c-116.824,226.19-405.152,357.927-611.459,278.388c-39.77-17.399-32.313-22.37,49.713-37.284
			c54.684-9.942,126.766-34.798,164.049-54.683c94.453-47.226,263.475-248.56,298.273-352.956
			c27.342-84.511,24.855-89.482-52.197-154.107l-82.025-67.111l57.168-64.626c32.314-37.284,79.541-67.111,104.396-67.111
			s52.197-19.885,62.141-42.255c7.455-24.856,32.313-64.626,52.197-86.996c99.424-116.823,54.684-894.817-72.082-1257.715
			c-82.025-238.618-84.512-253.532-34.799-253.532c27.342,0,37.283-27.342,37.283-99.424v-96.938l74.568,42.255
			c57.168,32.313,74.568,59.654,74.568,119.309c0,67.111,7.457,77.054,57.168,67.111c52.199-9.942,59.654,0,89.482,176.478
			c34.799,211.276,166.535,651.228,198.848,671.113c12.428,9.942,12.428-24.856,2.486-74.568
			c-12.428-49.712-29.828-213.762-39.77-365.384c-14.914-253.531-12.428-273.416,24.855-258.503
			c24.855,9.942,52.197,17.399,64.625,17.399c9.943,0,32.314,104.395,47.227,231.161c72.084,564.232,159.08,817.763,313.188,909.731
			c79.539,47.226,104.395,49.712,164.049,27.342c79.539-34.798,121.795-17.399,121.795,49.712
			c0,59.654,64.625,124.28,124.279,124.28c62.141,0,290.816-211.276,345.5-320.643c24.855-49.712,54.684-129.251,64.625-176.478
			c7.457-47.226,22.371-109.367,29.828-136.708l14.914-49.712l19.885,49.712c86.996,223.704-64.627,576.66-270.932,631.343
			c-49.713,14.914-156.594,42.255-233.646,64.626c-79.539,22.37-144.166,47.226-144.166,57.169s29.828,29.827,64.627,47.226
			c54.684,24.856,74.568,24.856,119.309-4.971c27.342-19.885,77.053-37.284,106.881-37.284c47.227,0,59.654,17.399,72.082,96.939
			c12.428,82.025,29.828,104.395,111.854,141.679c57.168,24.856,96.938,59.654,96.938,84.511c0,32.313,14.914,39.77,59.654,32.313
			c82.025-17.399,94.453,19.885,37.285,114.338c-49.713,84.511-79.541,89.482-208.791,39.77
			c-94.453-37.284-2.486,32.313,131.736,99.424c166.535,84.511,263.475,84.511,437.467,4.971
			c101.91-47.226,154.107-89.482,193.877-159.079c44.74-72.082,59.654-84.511,64.625-49.712
			c14.914,77.054-47.227,188.906-131.736,241.104c-119.309,72.082-586.604,99.424-703.426,39.77
			c-119.309-62.14-96.939-9.942,64.625,136.708c206.305,188.906,417.582,338.042,502.092,357.927
			c126.766,27.342,109.367,62.14-32.313,62.14c-91.967,0-169.021-19.885-253.531-62.14c-82.025-39.77-126.766-52.198-139.193-34.798
			c-9.943,14.914-39.77,19.885-69.598,9.942c-39.77-12.428-49.711-7.457-37.283,22.37c7.457,22.37-4.973,57.169-27.342,79.539
			c-59.654,62.14-86.996,7.457-86.996-173.992c0-119.309-7.457-141.679-37.285-129.251
			c-77.053,27.342-308.215,226.19-308.215,263.474c-2.484,22.37-22.369,67.111-44.74,99.424
			c-32.313,47.227-42.256,99.424-34.799,206.305l7.457,144.165l-72.082-14.914c-37.285-9.942-84.512-22.37-101.91-27.342
			c-19.885-4.971-67.111,17.399-109.367,52.198C17798.459,1352.195,17731.348,1362.137,17689.092,1312.425z"/>
	</g>
</g>
<g>
	<g transform="translate(0.000000,150.000000) scale(0.100000,-0.100000)">
		<path fill="none" stroke="#000000" stroke-width="20" stroke-miterlimit="10" d="M21577.053,1294.13
			c-7.799-88.382-28.596-205.358-41.592-218.356c-5.199-7.798-25.996,2.599-41.592,18.196
			c-44.191,44.191-98.779,38.992-83.184-7.798c10.398-23.395,0-38.992-18.195-38.992c-20.797-2.599-5.199-20.796,36.393-41.592
			c88.381-46.79,90.98-70.186,5.199-36.393c-41.592,15.597-64.988,15.597-64.988,0s15.598-25.995,33.793-25.995
			c18.197-2.599,12.998-15.597-12.996-36.393c-54.59-41.592-33.793-67.586,54.588-67.586h64.986l-57.188-41.591
			c-31.193-20.796-57.188-51.989-57.188-64.987c0-33.793,101.379-2.599,150.768,44.191c49.391,51.989,62.389,44.191,31.195-12.997
			c-12.998-28.594-25.996-72.785-25.996-96.18c0-41.592,2.6-41.592,38.992,5.199c31.193,44.191,36.393,44.191,38.992,5.199
			c0-23.395,12.998-75.385,28.594-116.976c20.797-54.589,31.195-62.387,49.391-33.793c20.795,33.793,25.994,31.194,36.393,0
			c38.992-124.775,41.592-192.361,10.398-213.157c-25.996-20.796-25.996-28.594,0-38.992c15.596-5.199,31.193-31.194,31.193-54.589
			c0-38.992-5.199-38.992-25.994-5.199c-20.797,31.194-25.996,28.594-25.996-18.196c0-31.194,15.598-62.387,33.793-70.186
			c25.996-12.997,25.996-18.196,0-31.194c-57.188-25.995-36.393-57.188,25.996-41.592c54.588,12.997,54.588,10.398,12.996-38.992
			c-75.385-83.183-49.389-155.968,25.996-80.584c23.395,23.395,31.193,18.196,31.193-23.395c0-31.194-20.797-62.387-46.791-70.186
			c-28.594-10.398-75.385-44.191-109.178-80.584c-57.188-59.788-62.387-59.788-93.58-18.196
			c-46.791,59.788-44.191,83.183,2.6,83.183c20.795,0,38.99,12.997,38.99,25.995c0,15.597-25.994,25.995-57.188,25.995
			c-51.99,0-54.588,2.599-7.799,51.989c25.996,28.594,38.992,51.989,28.594,51.989c-7.797,0,0,33.793,23.396,77.984
			c20.795,41.592,38.992,116.976,38.992,168.966v93.581l-75.385-57.188c-41.592-28.594-88.383-83.183-103.979-119.576
			c-38.992-85.783-64.988-59.788-59.789,57.188c2.6,83.183,0,88.382-36.393,51.989c-51.988-49.39-49.389-51.989-155.967,28.594
			c-85.783,67.586-129.975,51.989-46.791-15.597c67.586-57.188,98.779-132.573,62.387-155.968
			c-23.395-15.597-23.395-33.793-2.6-72.785c23.396-44.191,18.197-54.589-31.193-67.586c-31.193-7.798-67.586-2.599-80.584,10.398
			c-15.596,15.597-38.992,25.995-54.588,25.995c-41.592-2.599,90.98-103.979,135.172-103.979c31.193,0,28.594-7.798-5.199-44.191
			c-36.393-36.393-51.988-36.393-96.18-10.398c-46.791,28.594-51.99,28.594-38.992-7.798c10.398-28.594,2.6-41.592-28.594-41.592
			c-23.396,0-72.785-7.798-106.578-18.196c-46.791-10.398-57.189-7.798-44.191,15.597c12.996,18.196,2.6,44.191-18.197,62.387
			c-41.592,33.793-174.164,345.73-174.164,410.716c0,20.796-15.596,54.589-31.193,70.186c-44.191,44.191,0,70.186,145.57,96.18
			c83.184,12.997,96.18,23.395,57.188,36.393c-36.393,12.997-41.59,25.995-20.795,38.992c49.391,31.194,36.393,67.586-25.994,67.586
			c-57.189,2.599-57.189,2.599-12.998,36.393c41.592,33.793,41.592,38.992,5.199,77.984c-54.59,54.589-72.785,51.989-129.975-10.398
			c-31.193-33.793-64.986-44.191-116.975-36.393c-54.59,12.997-80.584,2.599-111.777-41.592
			c-20.797-28.594-62.389-57.188-93.582-59.788c-59.787-2.599-70.186-44.191-23.395-90.981
			c23.395-23.395,20.795-31.194-20.795-31.194c-67.588-2.599-150.77-67.586-127.375-101.379
			c7.799-15.597,28.594-23.395,41.592-15.597c12.998,10.398,23.395,5.199,23.395-10.398c0-12.997-12.996-33.793-31.193-44.191
			c-20.795-12.997-15.596-25.995,20.797-36.393c28.594-10.398,75.383-2.599,111.775,23.395l62.389,38.992l-38.992-75.385
			c-38.992-72.785-36.393-80.584,23.395-161.167c36.393-46.79,57.189-85.783,44.191-85.783c-10.398,0,2.6-20.796,31.193-49.39
			c25.994-25.995,67.586-75.385,88.383-106.578c20.795-33.793,101.379-137.772,179.363-231.353
			c83.182-98.78,129.973-171.565,111.777-179.363c-18.197-5.199-23.396-20.796-15.598-33.793
			c10.398-15.597,28.594-15.597,49.391,2.599c38.992,31.194,101.379,10.398,77.984-25.995c-7.799-10.398,5.197-36.393,28.594-54.589
			c41.592-33.793,140.371-213.157,140.371-254.748c0-36.393-98.779-2.599-114.377,38.992c-7.799,20.796-33.793,36.393-59.787,36.393
			c-25.996,0-114.377,59.788-197.561,129.974c-83.184,72.785-163.766,129.974-179.363,129.974c-12.998,0-18.195,31.194-7.799,77.984
			c20.797,96.18,12.998,96.18-77.984,10.398c-51.988-49.39-64.986-72.785-41.59-96.18c15.596-15.597,28.594-57.188,28.594-90.981
			c0-38.992,12.996-57.188,33.793-49.39c15.596,5.199,28.594,28.594,23.395,54.589c-12.996,77.984,96.182,44.191,215.756-64.987
			c80.584-72.785,116.977-129.974,116.977-174.164c0-36.393,18.197-88.382,44.191-114.377
			c80.584-90.981,18.195-67.586-109.178,38.992c-96.18,80.584-127.375,124.775-122.176,166.366
			c5.199,33.793-2.6,59.788-18.195,59.788c-15.598,0-28.594-18.196-28.594-41.592c0-36.393-7.799-36.393-38.992-10.398
			c-49.391,38.992-51.99,36.393-72.785-70.186c-18.197-93.581,15.596-132.573,72.785-85.783
			c59.787,49.39,145.57,12.997,259.945-106.578c57.189-59.788,88.383-101.379,70.188-90.981
			c-49.391,28.594-18.197-119.576,33.793-155.968c25.994-18.196,33.793-46.79,20.795-75.385
			c-10.398-31.194-7.799-41.592,10.398-31.194c31.193,20.796,67.586-51.989,44.191-88.382
			c-7.799-12.997,20.795-64.987,64.986-116.976c44.191-49.39,80.584-106.578,80.584-129.974
			c0-67.586,77.982-161.167,262.545-309.337l176.766-142.971l592.678,5.199l592.68,7.798l7.799,122.175
			c5.199,67.586-5.199,166.366-18.197,220.955c-20.795,72.785-18.195,109.178,5.199,150.769
			c20.797,28.594,54.59,103.979,80.584,166.366c25.994,64.987,67.586,148.17,96.18,187.162
			c28.596,38.992,46.791,80.584,44.191,93.581c-2.6,10.398,15.598,57.188,38.992,103.979c31.193,59.788,57.188,77.984,85.783,67.586
			c36.393-12.997,38.992-7.798,15.596,36.393c-25.994,46.79-15.596,59.788,98.781,114.377
			c70.186,33.793,127.373,72.785,129.973,83.183c0,12.997-10.398,15.597-23.395,5.199c-28.596-15.597-85.783,75.385-62.389,98.78
			c7.799,10.398-5.197,23.395-28.594,33.793c-36.393,12.997-36.393,23.395,10.398,88.382c28.594,38.992,51.988,83.183,51.988,96.18
			c0,10.398-12.996,2.599-25.994-18.196c-20.795-28.594-25.994-12.997-20.795,62.387c7.799,98.78,10.396,101.379,140.371,135.172
			c75.385,18.196,174.164,51.989,220.955,72.785c0,0,84.889,18.055,78.381,41.592c-8.701,31.474-119.973-12.997-119.973-12.997
			c-70.186-5.199-179.363-18.196-236.553-25.995c-96.18-15.597-109.178-10.398-122.174,38.992
			c-7.799,33.793,2.6,85.783,28.594,124.775c23.395,38.992,41.592,70.186,38.992,75.385c-25.994,28.594,7.799,64.987,98.779,111.777
			c83.184,44.191,111.777,49.39,142.971,23.395s49.391-20.796,93.582,28.594c44.191,46.79,46.789,62.387,18.195,80.584
			c-33.793,20.796-12.996,33.793,38.992,25.995c23.396-5.199,67.586,46.79,67.586,80.584c0,10.398-41.592,25.995-90.98,36.393
			c-90.982,15.597-101.379,62.387-15.598,62.387c25.996,0,62.389,18.196,80.584,38.992c25.994,31.194,25.994,38.992,0,38.992
			s-25.994,7.798,0,38.992s25.994,38.992,0,38.992c-18.195,0-46.791,20.796-64.986,44.191
			c-28.594,38.992-38.992,38.992-75.385,10.398c-49.391-41.592-57.189-2.599-7.799,46.79c25.994,28.594,20.797,33.793-28.594,20.796
			c-49.391-12.997-54.59-7.798-28.594,23.395c15.596,20.796,23.395,46.79,12.996,54.589c-10.396,10.398-28.594,2.599-41.592-18.196
			c-15.596-20.796-25.994-25.995-25.994-12.997c0,15.597-23.395-2.599-49.389-38.992l-49.391-62.387l-18.197,96.18
			c-20.795,106.578-64.986,129.974-64.986,38.992c-2.6-57.188-2.6-57.188-36.393-12.997c-28.594,36.393-38.992,38.992-49.391,12.997
			c-7.797-20.796-15.596-12.997-15.596,18.196c-2.6,38.992-10.398,41.591-33.793,18.196c-41.592-41.592-72.785-38.992-72.785,7.798
			s-31.193,49.39-72.785,7.798c-23.396-23.395-31.193-23.395-31.193,0c0,51.989-98.781,33.793-116.977-20.796
			c-7.799-28.594-36.393-51.989-62.387-51.989c-25.996,0-44.191-20.796-46.791-51.989c-2.6-28.594,10.398-51.989,31.193-51.989
			s41.592-10.398,49.391-23.395c10.396-12.997-33.793-18.196-93.582-12.997c-62.387,5.199-93.58,2.599-72.785-7.798
			c54.59-28.594,59.789-83.183,12.998-101.379c-83.184-33.793-33.793-64.987,75.385-49.39
			c111.777,18.196,114.377,15.597,101.379-49.39c-7.799-36.393-31.193-67.586-51.99-67.586c-20.795,0-33.793-15.597-25.994-31.194
			c5.199-18.196,25.994-31.194,41.592-25.995c36.393,7.798,36.393,7.798-7.799-119.576
			c-31.193-85.783-67.586-150.769-187.162-340.531c-23.395-31.194-129.973,93.581-155.967,179.363
			c-31.193,101.379-31.193,103.979,31.193,88.382c49.389-12.997,59.787-7.798,46.791,25.995
			c-7.799,23.395-5.199,41.592,7.797,41.592c25.996,0,28.596,93.581,2.6,119.576c-10.396,7.798-10.396,31.194-2.6,51.989
			c7.799,23.395-5.199,36.393-44.189,36.393c-49.391,0-51.99,5.199-25.996,38.992c28.594,33.793,18.197,49.39-28.594,44.191
			c-33.793-5.199-51.99,132.573-23.395,161.167c15.596,15.597,25.994,18.196,20.795,2.599c-5.199-12.997,0-28.594,12.998-31.194
			c10.396-5.199,18.195-2.599,18.195,5.199s0,25.995,0,38.992c0,15.597-18.195,25.995-38.992,25.995
			c-20.795,0-38.992,20.796-38.992,46.79c-2.6,41.592-2.6,41.592-28.594-2.599c-23.395-38.992-33.793-41.591-67.586-15.597
			c-31.193,25.995-41.592,25.995-59.787-5.199c-15.598-20.796-15.598-38.992,0-44.191c36.393-12.997,31.193-57.188-5.199-51.989
			c-18.197,5.199-44.191-18.196-59.789-49.39c-25.994-62.387-80.582-85.783-57.188-25.995c5.199,15.597,0,59.788-12.998,96.18
			l-25.994,64.987l-25.994-64.987c-23.396-62.387-25.996-62.387-62.389-15.597c-33.793,49.39-51.988,25.995-36.393-49.39
			c2.6-12.997-10.396-10.398-28.594,7.798c-18.195,15.597-44.191,31.194-59.787,31.194c-15.598,0-12.998-12.997,5.199-31.194
			c18.195-18.196,31.193-44.191,31.193-57.188c0-15.597-12.998-12.997-31.193,5.199c-18.197,18.196-46.791,31.194-64.986,31.194
			c-18.197,0-2.6-31.194,38.99-70.186c38.992-41.592,59.789-64.987,46.791-51.989c-36.393,25.995-72.785,23.395-57.188-5.199
			c10.396-12.997-7.799-18.196-33.793-10.398c-38.992,10.398-54.59,46.79-70.186,161.167
			c-10.398,80.584-18.197,166.366-12.998,192.361c2.6,25.995-7.799,64.987-23.395,85.783c-46.791,54.589,7.797,44.191,88.381-18.196
			c36.393-28.594,67.586-44.191,67.586-36.393c0,10.398,18.197,5.199,38.992-12.997c70.186-59.788,70.186-7.798-2.6,75.385
			l-67.586,83.183l111.777-15.597c90.982-12.997,103.979-10.398,70.186,12.997c-57.188,33.793-62.387,88.382-7.799,67.586
			c20.797-7.798,38.992-2.599,38.992,10.398c0,15.597-12.996,25.995-28.594,25.995c-12.998,0-18.195,12.997-10.398,25.995
			c7.799,15.597,0,25.995-18.195,25.995c-20.797,2.599-15.598,15.597,12.998,38.992c46.789,33.793,46.789,36.393-5.199,64.987
			c-38.992,18.196-70.186,20.796-106.578,0c-41.592-23.395-46.791-20.796-36.393,12.997c12.996,33.793,5.197,36.393-51.99,12.997
			c-54.588-18.196-67.586-18.196-67.586,12.997c0,51.989-44.191,49.39-75.385-5.199c-20.795-41.592-25.994-38.992-49.391,18.196
			C21584.85,1340.921,21579.652,1348.719,21577.053,1294.13z M20706.229,158.162c103.98-233.952,171.566-415.915,142.973-397.719
			c-12.998,7.798-25.996,0-25.996-20.796c0-20.796,18.197-44.191,38.992-54.589c20.797-7.798,49.391-41.592,62.387-72.785
			c64.988-174.165,49.391-174.165-75.383-7.798c-75.385,101.379-200.16,249.549-280.744,330.133l-142.971,145.57l41.592,101.379
			c23.395,54.589,41.592,77.984,41.592,54.589c2.6-72.785,51.988-80.584,85.783-10.398c15.596,36.393,33.793,67.586,38.99,67.586
			C20638.643,293.334,20672.436,230.947,20706.229,158.162z"/>
	</g>
</g>
<g>
	<g transform="translate(0.000000,150.000000) scale(0.100000,-0.100000)">
		<path fill="none" stroke="#000000" stroke-width="20" stroke-miterlimit="10" d="M25682.135,1321.795
			c-133.557-66.778-234.961-163.235-274.533-259.692c-27.205-59.358-51.938-81.617-96.457-81.617
			c-113.77,0-180.547-51.938-220.119-165.708c-19.785-59.358-59.357-136.029-86.564-173.128
			c-59.357-71.724-69.25-227.54-22.258-277.005c19.785-19.786,22.258-37.099,7.418-42.045
			c-96.457-37.099-185.494-116.243-187.967-163.235c-4.945-79.144-4.945-76.671,12.367-133.556c12.365-39.572,0-56.885-44.52-79.144
			c-44.518-19.786-74.197-64.305-101.402-163.235c-37.1-126.136-37.1-140.976,2.473-217.647
			c59.357-118.716,103.877-163.235,185.494-180.548c59.357-12.366,71.725-29.679,71.725-86.564
			c0-89.037,34.625-113.77,205.279-145.922c145.922-27.206,168.182-22.259,420.455,84.091c34.625,14.84,42.045,4.947,42.045-59.358
			c0-86.564,17.313-96.457,64.305-32.152c32.152,39.572,34.625,39.572,19.785-2.473c-24.732-66.778,9.895-175.601,46.992-145.922
			c71.725,56.885,108.824,24.733,113.77-101.404c4.947-138.502,54.412-252.272,145.922-333.89
			c81.619-71.724,126.137-71.724,61.832,2.473c-79.145,86.564-91.51,118.716-39.572,98.93c37.1-12.366,39.572-7.42,14.84,19.786
			c-34.625,37.099-42.045,96.457-12.365,96.457c9.893,0,34.625-39.572,51.938-86.564c17.313-46.992,54.412-98.93,84.09-113.77
			c29.68-14.839,79.145-51.938,111.297-79.144l54.412-51.938l-9.893,79.144c-4.947,44.519,2.473,79.144,12.365,79.144
			c12.367,0,22.26-12.366,22.26-27.206c0-17.313,29.68-56.885,64.305-89.037l64.305-59.358l-9.893-380.882l-7.42-383.355h59.357
			h59.359l-17.313,477.339c-7.42,259.692-19.787,516.911-24.732,568.849c-7.42,49.465-2.475,91.51,9.893,91.51
			c14.84,0,24.732-9.893,24.732-22.259c0-9.893,29.68-14.84,64.305-7.42c51.938,9.893,61.832,22.259,51.938,69.251
			c-4.945,34.626,2.475,59.358,17.313,59.358c14.84,0,7.42,12.366-14.838,27.206c-24.732,12.366-44.52,37.099-44.52,51.938
			s-17.313,46.992-37.1,69.251c-34.625,39.572-22.258,56.885,140.977,217.647c98.93,96.457,187.967,168.181,197.861,163.235
			c9.893-7.42,19.785-37.099,19.785-66.778c0-44.519,4.947-46.992,24.732-17.313c19.787,29.679,24.732,29.679,24.732,2.473
			c0-22.259,24.732-7.42,61.832,32.152c34.625,37.099,61.832,84.091,61.832,106.35c0,22.259,14.838,32.152,37.098,22.259
			c46.992-17.313,46.992,49.465,0,133.556c-29.678,54.412-27.205,66.778,4.947,106.35c46.992,49.465,24.732,86.564-27.207,44.519
			c-29.678-24.733-46.99-17.313-91.51,44.519c-34.625,46.992-61.832,66.778-74.197,49.465c-7.42-14.84-14.84,19.786-14.84,74.198
			c0,56.885-4.947,108.823-12.367,116.243c-24.732,24.733-89.037-19.786-103.875-71.724c-12.367-42.045-19.787-46.992-37.1-19.786
			c-12.367,17.313-34.625,27.206-49.465,17.313s-49.465-4.947-76.672,9.893c-49.465,27.206-46.992,34.626,81.617,170.655
			c170.656,185.494,262.166,346.256,286.898,497.125c14.84,98.93,12.367,123.663-14.84,123.663
			c-46.992,0-165.707-61.831-202.807-108.823c-34.625-39.572-81.617-54.412-71.725-19.786
			c12.367,46.992-34.625,252.272-66.777,277.005c-17.313,14.84-39.572,54.412-46.992,86.564
			c-19.787,74.198-244.854,257.219-319.051,262.165c-29.678,2.473-98.93,2.473-153.342,0s-140.975,12.366-190.441,32.152
			C25865.154,1388.573,25803.324,1386.099,25682.135,1321.795z"/>
	</g>
</g>
<g>
	<g transform="translate(0.000000,150.000000) scale(0.100000,-0.100000)">
		<path fill="none" stroke="#000000" stroke-width="20" stroke-miterlimit="10" d="M29094.195,1176.18
			c-4.967-59.611,7.451-106.803,29.805-124.189c32.289-27.322,32.289-39.741-9.934-96.867
			c-74.514-104.319-84.449-228.508-24.838-320.408c27.32-44.708,59.609-81.965,69.545-81.965c12.42,0,17.387-54.643,9.936-121.705
			c-4.967-67.062,0-141.576,14.902-163.93c22.354-42.224,24.838-42.224,52.16,7.451c34.771,64.578,131.641,72.03,176.348,17.386
			c39.74-47.192,99.352-47.192,99.352,0c0,67.062,57.127,161.446,99.352,161.446c22.354,0,94.383,27.322,158.961,62.095
			c111.771,59.611,116.738,59.611,101.836,12.419c-7.451-27.322-9.936-49.676-2.484-49.676c4.969,0,29.807,57.127,52.16,126.673
			c29.805,91.9,49.676,119.221,69.545,99.351c14.904-14.903,39.74-27.322,52.16-27.322c14.902,0,12.418,12.419-4.967,29.805
			c-42.225,42.224-37.258,69.546,17.385,69.546c27.322,0,72.031-32.289,99.352-72.03c57.127-79.481,67.063-114.254,24.838-89.416
			c-12.418,9.935,7.451-47.192,47.191-129.157c136.609-270.732,161.447-516.627,59.611-593.624
			c-49.676-39.741-121.705-44.708-134.123-9.935c-4.969,12.419-158.963,32.289-347.73,39.741l-337.795,17.386l-9.934-59.611
			c-7.451-52.159-17.387-42.224-76.998,69.546c-72.029,139.092-134.125,173.865-260.797,149.027
			c-49.676-9.935-89.416,4.968-153.994,59.611c-47.191,39.741-96.867,72.03-109.287,72.03c-12.418,0-2.484-14.903,24.838-34.773
			c37.258-29.805,39.74-37.257,9.936-47.192c-19.871-4.968-134.125-39.741-250.861-76.997
			c-223.541-69.546-367.6-81.965-447.082-39.741c-24.838,14.903-47.191,17.386-47.191,4.968
			c0-29.805,109.287-129.157,139.092-129.157c14.902,0,22.354-34.773,14.902-76.997c-9.936-59.611,4.969-91.9,72.029-161.446
			c44.709-47.192,101.836-84.449,126.674-84.449c32.289,0,44.707-19.87,44.707-76.997c0-84.449,67.063-245.894,101.836-245.894
			c12.418,0,22.354,9.935,22.354,22.354c0,12.419,22.355,17.386,47.193,9.935c42.223-9.935,47.191,0,39.74,76.997
			c-7.451,81.965,4.967,99.351,136.607,213.605c79.48,67.062,153.994,153.994,168.896,191.251
			c12.42,39.741,34.773,91.9,44.709,119.222s14.902,62.095,14.902,76.997c-7.451,44.708,84.449,111.77,129.156,94.384
			c49.676-19.87,213.605-332.827,213.605-409.824c0-29.805-39.74-126.673-86.932-213.605
			c-47.193-86.932-86.934-168.897-86.934-183.8c0-12.419,42.225-42.224,94.385-62.095
			c228.508-89.416,307.988-163.93,384.986-352.697c49.676-124.189,49.676-116.738-22.355-139.092
			c-42.223-12.419-59.609-2.484-84.447,59.611c-17.387,42.224-64.578,101.835-101.836,136.608
			c-39.74,32.289-62.094,67.062-47.191,74.513c12.418,7.451,24.838,27.322,24.838,42.224c0,14.903-27.322,7.451-59.611-14.903
			c-59.609-37.257-64.578-37.257-141.574,72.03c-84.449,119.221-151.512,156.478-79.482,44.708
			c44.709-67.062,44.709-67.062-17.387-49.676c-34.771,9.935-119.221,17.386-191.25,17.386
			c-109.287,0-144.061,12.419-218.572,79.481c-74.514,64.578-94.385,72.03-114.254,42.224c-12.42-19.87-22.355-47.192-22.355-62.095
			c0-42.224-104.318-62.095-144.059-27.322c-29.805,24.838-34.773,14.903-17.387-57.127c7.451-47.192,37.256-131.64,62.094-183.8
			c29.807-62.094,39.742-111.77,27.322-136.608c-12.418-22.354-29.805-91.9-39.74-158.962
			c-22.354-141.576,9.936-191.251,124.189-191.251c69.545,0,84.447-12.419,124.189-99.351
			c24.836-54.643,52.158-99.351,59.609-99.351s37.258,54.643,67.063,119.221c39.74,91.9,84.449,141.576,191.252,211.121
			c173.863,116.738,221.057,136.608,201.186,81.965c-7.451-22.354-4.967-39.741,7.451-39.741c12.42,0,34.773,52.159,47.191,119.222
			l22.355,116.738l44.707-74.514l44.709-74.513l-14.902,74.513c-24.838,136.608-24.838,146.543,12.418,153.995
			c24.838,4.968,67.063-42.224,119.221-129.157c79.482-139.092,79.482-141.576,47.193-303.021
			c-22.355-129.157-44.709-173.865-96.869-213.605c-39.74-29.805-69.545-59.611-69.545-72.03
			c0-22.354,183.801-119.222,228.508-119.222c17.387,0,59.611-54.643,91.9-121.705c72.029-151.511,158.961-238.443,208.637-208.638
			c22.355,9.935,86.934,64.578,144.061,119.221c59.609,54.643,114.254,99.351,121.705,101.835
			c22.354,2.484,183.799,37.257,230.992,52.159c34.771,9.935,42.223,27.322,32.289,64.578
			c-79.482,275.7-96.869,345.246-109.287,464.467c-14.902,116.738-24.838,136.608-72.029,144.059
			c-47.191,7.451-52.16,17.386-32.289,67.062c54.643,144.059,149.025,260.797,211.121,260.797c74.514,0,76.996-9.935,12.418-91.9
			c-54.643-69.546-69.545-136.608-19.869-86.932c42.225,42.224,69.545,37.257,52.158-9.935c-7.451-22.354-4.967-47.192,7.451-57.127
			c39.742-27.322,158.963-300.538,158.963-362.632c0-32.289-12.418-89.416-24.838-126.673
			c-34.773-89.416-19.869-96.868,79.48-44.708c94.385,52.159,129.158,49.676,223.541-19.87l69.547-49.676l49.674,109.286
			c27.322,59.611,49.676,119.221,49.676,134.124s52.16,42.224,119.223,62.095c114.254,37.257,116.738,39.74,109.285,134.124
			c-4.967,52.159-19.869,116.738-32.289,141.576c-17.387,29.805-14.902,44.708,2.484,44.708c24.838,0,124.189,144.059,124.189,183.8
			c0,9.935-24.838,14.903-54.643,7.451c-32.289-7.451-101.836,2.484-153.996,19.87c-54.643,19.87-106.803,29.805-119.221,22.354
			c-12.42-7.451-79.48,7.451-151.51,34.773c-196.219,72.03-280.668,84.449-315.441,42.224
			c-29.805-37.257-201.186-52.159-230.992-22.354c-17.387,19.87,86.934,230.992,183.801,372.567
			c37.256,57.127,89.416,149.027,111.77,208.638l42.225,104.319l32.289-96.867c47.191-129.157,42.225-188.767-14.902-263.281
			c-62.096-79.481-34.773-104.319,161.445-153.994c76.998-22.354,171.381-59.611,203.67-86.932
			c34.773-27.322,72.029-49.676,81.965-49.676c34.773,0,173.865,206.154,173.865,258.313c0,39.741,17.387,52.159,74.514,54.643
			c39.74,2.484,119.221,32.289,176.348,69.546c91.9,62.095,101.836,76.997,86.934,146.543
			c-9.936,42.224-37.258,124.189-62.096,178.832c-27.32,54.643-54.643,139.092-62.094,186.284
			c-27.322,153.994-52.16,171.381-136.607,89.416c-69.547-67.062-81.965-69.546-211.123-54.643
			c-76.996,9.935-139.092,22.354-139.092,24.838c0,4.968,17.387,57.127,37.258,114.254c19.869,57.127,37.256,121.705,37.256,139.092
			c0,62.095-101.834,37.257-181.316-44.708c-44.707-44.708-86.932-76.997-96.867-74.513c-12.418,2.484-19.869-29.805-19.869-72.03
			c0-101.835-57.127-144.059-198.703-146.543c-104.318-4.968-106.803-4.968-44.709-29.805c62.096-22.354,64.58-27.322,32.291-76.997
			c-19.871-29.805-106.803-238.443-196.219-461.983c-89.418-223.54-191.252-454.532-226.025-514.143
			c-34.773-57.127-62.094-121.705-62.094-139.092c-2.484-74.513-39.74-99.351-106.803-67.062
			c-76.998,34.773-76.998,22.354-22.354,295.57l42.223,208.638l94.385,22.354c106.803,24.838,111.77,44.708,29.805,178.832
			c-74.514,119.222-76.996,149.027-12.418,327.859c59.609,173.865,64.578,442.113,9.936,615.978
			c-22.355,69.546-39.742,191.251-39.742,273.216c0,111.77-4.967,129.157-17.385,74.513l-17.387-74.513l-32.289,62.095
			c-54.645,101.835-131.641,173.865-188.768,173.865c-74.514,0-84.449,17.386-59.611,106.803
			c27.322,96.868,9.936,119.222-29.805,34.773l-29.807-64.578l-44.707,57.127c-54.645,69.546-141.576,104.319-303.021,126.673
			c-89.416,12.419-146.543,39.74-218.572,104.319c-94.385,84.448-116.738,79.481-99.352-22.354
			c4.967-42.224-47.193-17.386-91.9,42.224c-27.322,34.773-54.643,62.094-59.611,62.094
			C29104.131,1273.048,29096.68,1230.823,29094.195,1176.18z"/>
	</g>
</g>
</svg>
