<?xml version="1.0" encoding="utf-8"?>
<!-- Generator: Adobe Illustrator 17.0.0, SVG Export Plug-In . SVG Version: 6.00 Build 0)  -->
<!DOCTYPE svg PUBLIC "-//W3C//DTD SVG 1.1//EN" "http://www.w3.org/Graphics/SVG/1.1/DTD/svg11.dtd">
<svg version="1.1" id="Слой_1" xmlns="http://www.w3.org/2000/svg" xmlns:xlink="http://www.w3.org/1999/xlink" x="0px" y="0px"
	 width="1200px" height="150px" viewBox="0 0 1200 150" enable-background="new 0 0 1200 150" xml:space="preserve">
<g>
	<circle fill="#2E2F2F" cx="39.323" cy="108.629" r="15.834"/>
	<circle fill="#C3C2C2" cx="39.323" cy="108.629" r="10.324"/>
	<circle fill="#555555" cx="39.323" cy="108.629" r="8.526"/>
	<g>
		<g>
			<g>
				<polygon opacity="0.4" fill="#C3C2C2" points="45.537,102.415 43.771,100.649 39.922,108.03 47.303,104.18 				"/>
			</g>
			<g>
				<polygon opacity="0.4" fill="#C3C2C2" points="33.108,114.843 31.342,113.078 38.724,109.228 34.874,116.609 				"/>
			</g>
		</g>
		<g>
			<g>
				<polygon opacity="0.4" fill="#C3C2C2" points="33.108,102.415 31.342,104.18 38.724,108.03 34.874,100.649 				"/>
			</g>
			<g>
				<polygon opacity="0.4" fill="#C3C2C2" points="45.537,114.843 43.771,116.609 39.922,109.228 47.303,113.078 				"/>
			</g>
		</g>
	</g>
	<circle fill="#C3C2C2" cx="39.323" cy="108.629" r="4.176"/>
	<circle fill="#2E2F2F" cx="131.507" cy="108.629" r="15.834"/>
	<circle fill="#C3C2C2" cx="131.507" cy="108.629" r="10.324"/>
	<circle fill="#555555" cx="131.507" cy="108.629" r="8.526"/>
	<g>
		<g>
			<g>
				<polygon opacity="0.4" fill="#C3C2C2" points="137.721,102.415 135.955,100.649 132.106,108.03 139.487,104.18 				"/>
			</g>
			<g>
				<polygon opacity="0.4" fill="#C3C2C2" points="125.292,114.843 123.526,113.078 130.908,109.228 127.058,116.609 				"/>
			</g>
		</g>
		<g>
			<g>
				<polygon opacity="0.4" fill="#C3C2C2" points="125.292,102.415 123.526,104.18 130.908,108.03 127.058,100.649 				"/>
			</g>
			<g>
				<polygon opacity="0.4" fill="#C3C2C2" points="137.721,114.843 135.955,116.609 132.106,109.228 139.487,113.078 				"/>
			</g>
		</g>
	</g>
	<circle fill="#C3C2C2" cx="131.507" cy="108.629" r="4.176"/>
	<path fill="#2E2F2F" d="M67.952,109.603c0,0,4.257,5.649,7.778,6.304c3.52,0.655,24.725-0.082,31.275-4.421l-34.713-3.93
		L67.952,109.603z"/>
	<ellipse fill="#E7D888" cx="115.483" cy="49.581" rx="2.46" ry="4.211"/>
	<polygon fill="#E84620" points="113.023,45.87 115.608,44.786 115.858,54.71 112.939,53.792 	"/>
	<polygon fill="#B53118" points="109.687,76.225 104.85,61.381 107.664,59.964 114.441,74.641 	"/>
	<path fill="#09AE9E" d="M114.095,73.418c0,0-7.276,0-7.969,1.27c-0.693,1.271-0.693,14.322-0.808,15.592
		c-0.116,1.27,1.155,4.966,3.927,5.775l7.969-13.629L114.095,73.418z"/>
	<g>
		<path fill="#555555" d="M78.311,108.95c0,0-7.591,4.277-19.888,2.673c-7.353-0.959-12.082-10.906-4.063-12.724L78.311,108.95z"/>
		<path fill="#2E2F2F" d="M73.927,103.925c0,0.354-0.287,0.642-0.642,0.642H52.971c-0.354,0-0.642-0.287-0.642-0.642l0,0
			c0-0.354,0.287-0.642,0.642-0.642h20.315C73.64,103.283,73.927,103.57,73.927,103.925L73.927,103.925z"/>
		<path fill="#2E2F2F" d="M75.21,106.277c0,0.354-0.287,0.642-0.642,0.642H54.254c-0.354,0-0.642-0.287-0.642-0.642l0,0
			c0-0.354,0.287-0.642,0.642-0.642h20.315C74.923,105.635,75.21,105.922,75.21,106.277L75.21,106.277z"/>
		<path fill="#2E2F2F" d="M76.494,108.629c0,0.354-0.287,0.642-0.642,0.642H55.537c-0.354,0-0.642-0.287-0.642-0.642l0,0
			c0-0.354,0.287-0.642,0.642-0.642h20.315C76.206,107.988,76.494,108.275,76.494,108.629L76.494,108.629z"/>
	</g>
	<path fill="#B53118" d="M80.683,101.853c0,0,17.125,4.805,20.452,5.298c3.326,0.493,6.53-3.08,6.53-6.16l0.986,4.805l-1.725,3.573
		l-10.842,0.616c0,0-14.291-2.218-14.415-2.587C81.545,107.027,80.683,101.853,80.683,101.853z"/>
	<path fill="#09AE9E" d="M82.9,78.814c0,0,0,5.298-2.218,9.733c-2.218,4.435-1.725,12.443,3.942,16.139c0,0-8.008,0.739-8.131,0.37
		c-0.123-0.37-2.341-7.269-2.341-7.269l-1.232-6.037c0,0,3.696-7.269,4.189-7.762L82.9,78.814z"/>
	<path fill="#B53118" d="M115.672,70.067c0,0,3.674-0.92,5.052,0.748c1.378,1.668,7.021,15.885,7.021,15.885l-8.747,0.739
		L115.672,70.067z"/>
	<path fill="#E84620" d="M60.354,101.36l5.791,6.653c0,0,7.564,2.053,21.684,3.326c15.031,1.355,21.807,2.218,22.053-3.203
		c0.112-2.465-0.37-15.479,11.704-21.045c0,0-5.914-31.439-13.922-27.127c0,0,5.945,15.792,6.685,19.617
		c1.478,7.639-7.301,9.213-6.931,23.011c0.132,4.932-2.094,5.544-5.667,5.79c-1.721,0.119-18.145-4.319-24.921-6.414
		c0,0-2.318-3.07-1.906-8.285c0.542-6.85,9.332-15.609,9.332-15.609l-39.917-5.229c0,0-9.364,5.476-10.288,11.143
		C33.127,89.656,60.354,101.36,60.354,101.36z"/>
	<polygon fill="#2E2F2F" points="29.553,81.386 20.542,75.281 26.534,75.281 35.53,81.349 	"/>
	<ellipse fill="#E7D888" cx="19.632" cy="88.07" rx="2.347" ry="3.943"/>
	<g>
		<g>
			
				<ellipse transform="matrix(0.9159 0.4015 -0.4015 0.9159 21.7397 -40.1738)" fill="#B53118" cx="106.729" cy="31.786" rx="2.162" ry="4.261"/>
		</g>
		<g>
			<path fill="#B53118" d="M106.547,47.978c0.138-0.475,3.383-11.643,3.888-13.028c0.234-0.642,0.274-1.134,0.115-1.423
				c-0.092-0.166-0.259-0.274-0.51-0.328c-0.847-0.185-2.807-0.84-2.89-0.868l0.253-0.756c0.02,0.007,2.002,0.669,2.806,0.845
				c0.477,0.104,0.835,0.354,1.038,0.723c0.277,0.504,0.255,1.204-0.065,2.081c-0.496,1.36-3.838,12.862-3.872,12.978
				L106.547,47.978z"/>
		</g>
	</g>
	<g>
		<path fill="#646464" d="M130.186,108.598c0.273,0.555,0.937,0.787,1.483,0.518l0,0c0.546-0.269,0.766-0.936,0.493-1.491
			l-4.1-8.318c-0.273-0.555-0.937-0.787-1.483-0.518l0,0c-0.546,0.269-0.766,0.936-0.493,1.491L130.186,108.598z"/>
		<path fill="#747374" d="M125.348,101.204c0.15,0.304,1.155,0.115,2.245-0.422l0,0c1.09-0.537,1.853-1.219,1.703-1.523l-3.62-7.711
			c-0.15-0.304-1.155-0.115-2.245,0.422l0,0c-1.09,0.537-1.853,1.219-1.703,1.523L125.348,101.204z"/>
	</g>
	<g>
		<path fill="#646464" d="M38.593,108.074c-0.257,0.479-0.062,1.049,0.434,1.273l0,0c0.496,0.224,1.107,0.016,1.363-0.463
			l3.844-7.19c0.257-0.479,0.062-1.049-0.434-1.273l0,0c-0.496-0.224-1.107-0.016-1.363,0.463L38.593,108.074z"/>
		<path fill="#747374" d="M41.356,100.88c-0.14,0.263,0.55,0.838,1.542,1.285l0,0c0.992,0.447,1.91,0.596,2.05,0.334l3.664-6.544
			c0.141-0.263-0.55-0.838-1.542-1.285l0,0c-0.992-0.447-1.91-0.596-2.05-0.334L41.356,100.88z"/>
	</g>
	<rect x="18.881" y="83.188" fill="#E84620" width="4.225" height="9.858"/>
	<path fill="#B53118" d="M52.884,94.41c0,1.788-1.449,3.237-3.237,3.237H23.808c-1.788,0-3.237-1.449-3.237-3.237V83.045
		c0-1.788,1.449-3.237,3.237-3.237h25.839c1.788,0,3.237,1.449,3.237,3.237V94.41z"/>
	<path fill="#09AE9E" d="M21.517,103.103c2.319-1.546,14.577-6.626,30.368-2.429c12.301,3.269,14.687,5.963,18.662,5.08
		c3.775-0.839,4.307-7.951,0.221-15.239c-4.086-7.288-17.669-16.564-34.785-8.061c-17.116,8.503-19.546,19.104-18.773,20.319
		C17.983,103.986,19.733,104.292,21.517,103.103z"/>
	<path fill="#B53118" d="M35.723,73.982c0,0.993-0.805,1.798-1.798,1.798H11.653c-0.993,0-1.798-0.805-1.798-1.798l0,0
		c0-0.993,0.805-1.798,1.798-1.798h22.273C34.918,72.184,35.723,72.989,35.723,73.982L35.723,73.982z"/>
	<path fill="#E84620" d="M40.517,63.576c0,4.754-3.854,8.608-8.608,8.608h-18.44c-4.754,0-8.608-3.854-8.608-8.608v-4.457
		c0-4.754,3.854-8.608,8.608-8.608h18.44c4.754,0,8.608,3.854,8.608,8.608V63.576z"/>
	<g>
		<path fill="#09AE9E" d="M42.615,59.824c0,0.607-0.492,1.099-1.099,1.099H3.562c-0.607,0-1.099-0.492-1.099-1.099l0,0
			c0-0.607,0.492-1.099,1.099-1.099h37.954C42.123,58.726,42.615,59.218,42.615,59.824L42.615,59.824z"/>
		<path fill="#09AE9E" d="M42.615,63.22c0,0.607-0.492,1.099-1.099,1.099H3.562c-0.607,0-1.099-0.492-1.099-1.099l0,0
			c0-0.607,0.492-1.099,1.099-1.099h37.954C42.123,62.122,42.615,62.613,42.615,63.22L42.615,63.22z"/>
	</g>
	<path fill="#B53118" d="M44.431,66.125c0,0-2.008,6.276-0.377,6.903c1.632,0.628,10.292,4.268,17.823,5.397
		c7.89,1.183,20.533,2.304,22.415-0.332c0,0,1.056-5.944-3.714-5.819c-4.77,0.125-18.451,0.125-21.463-2.636
		C56.104,66.878,49.201,63.74,44.431,66.125z"/>
	<path fill="#09AE9E" d="M143.217,90.97c0,0-10.675-3.023-20.068,4.824c-6.288,5.253-7.421,10.076-9.384,10.769
		c-1.963,0.693-5.082,1.039-4.851-2.31c0.231-3.35,5.066-15.898,14.553-19.519c10.134-3.869,17.094,0.977,18.54,2.151
		C143.854,88.385,144.256,90.739,143.217,90.97z"/>
	<path fill="#09AE9E" d="M104.683,61.465c0.103,0.155,6.338-3.169,6.338-3.169s-1.485-2.201-0.751-3.002
		c0.917-1.001,3.836-0.25,3.836-0.25V44.369c0,0-6.8,2.242-8.423,3.086C103.599,48.539,97.845,51.207,104.683,61.465z"/>
	<g>
		<g>
			
				<ellipse transform="matrix(0.9954 -0.0958 0.0958 0.9954 -2.8705 9.2389)" fill="#B53118" cx="94.764" cy="34.508" rx="2.434" ry="4.796"/>
		</g>
		<g>
			<path fill="#B53118" d="M103.468,50.522c-0.125-0.542-3.062-13.299-3.325-14.938c-0.122-0.76-0.353-1.265-0.667-1.462
				c-0.181-0.113-0.404-0.127-0.681-0.043c-0.934,0.283-3.22,0.714-3.316,0.732l-0.166-0.882c0.023-0.004,2.335-0.44,3.222-0.709
				c0.525-0.16,1.015-0.11,1.417,0.141c0.549,0.343,0.911,1.043,1.078,2.08c0.258,1.609,3.283,14.746,3.314,14.879L103.468,50.522z"
				/>
		</g>
	</g>
	<g>
		
			<ellipse transform="matrix(0.9913 0.132 -0.132 0.9913 7.7825 -13.2328)" fill="#E84620" cx="103.718" cy="52.094" rx="2.089" ry="2.168"/>
		<g>
			<path fill="#747374" d="M104.269,51.963c0.02-0.455-0.319-0.84-0.758-0.859c-0.088-0.004-0.173,0.011-0.253,0.035l-0.001-0.003
				L98.41,52.14l0.413,1.577l4.773-0.974c0.053-0.009,0.104-0.022,0.153-0.041l0.002,0l0,0
				C104.041,52.589,104.254,52.305,104.269,51.963z"/>
			
				<ellipse transform="matrix(0.999 0.0438 -0.0438 0.999 2.4155 -4.2718)" fill="#FFFFFF" stroke="#1E1E1C" stroke-miterlimit="10" cx="98.59" cy="52.929" rx="0.795" ry="0.825"/>
		</g>
		<g>
			<path fill="#B53118" d="M100.528,52.858c0.038-0.864-0.607-1.595-1.44-1.631c-0.168-0.007-0.328,0.021-0.481,0.067l-0.002-0.006
				l-3.513,0.966l0.784,2.994l3.373-0.909c0.1-0.016,0.198-0.042,0.291-0.078l0.003-0.001l0,0
				C100.095,54.046,100.5,53.506,100.528,52.858z"/>
			
				<ellipse transform="matrix(0.999 0.0438 -0.0438 0.999 2.4469 -4.13)" fill="#E84620" cx="95.434" cy="53.752" rx="1.51" ry="1.567"/>
		</g>
	</g>
	<circle fill="#2E2F2F" cx="131.507" cy="108.629" r="2.146"/>
	<circle fill="#2E2F2F" cx="39.323" cy="108.629" r="2.146"/>
	<path fill="#E84620" d="M68.333,100.925c0.173-2.842-0.617-6.602-2.554-10.411c-0.244-0.479-0.527-0.967-0.843-1.457
		c-7.865-0.753-26.184-0.508-47.841,13.244c0.014,0.211,0.048,0.374,0.104,0.471c0.16,0.278,0.369,0.506,0.612,0.681
		C21.251,100.415,37.71,89.954,68.333,100.925z"/>
</g>
<g>
	<circle fill="#2E2F2F" cx="1089.823" cy="108.629" r="15.834"/>
	<circle fill="#C3C2C2" cx="1089.823" cy="108.629" r="10.324"/>
	<circle fill="#555555" cx="1089.823" cy="108.629" r="8.526"/>
	<g>
		<g>
			<g>
				<polygon opacity="0.4" fill="#C3C2C2" points="1096.037,102.415 1094.271,100.649 1090.422,108.03 1097.803,104.18 				"/>
			</g>
			<g>
				<polygon opacity="0.4" fill="#C3C2C2" points="1083.608,114.843 1081.842,113.078 1089.224,109.228 1085.374,116.609 				"/>
			</g>
		</g>
		<g>
			<g>
				<polygon opacity="0.4" fill="#C3C2C2" points="1083.608,102.415 1081.842,104.18 1089.224,108.03 1085.374,100.649 				"/>
			</g>
			<g>
				<polygon opacity="0.4" fill="#C3C2C2" points="1096.037,114.843 1094.271,116.609 1090.422,109.228 1097.803,113.078 				"/>
			</g>
		</g>
	</g>
	<circle fill="#C3C2C2" cx="1089.823" cy="108.629" r="4.176"/>
	<circle fill="#2E2F2F" cx="1182.007" cy="108.629" r="15.834"/>
	<circle fill="#C3C2C2" cx="1182.007" cy="108.629" r="10.324"/>
	<circle fill="#555555" cx="1182.007" cy="108.629" r="8.526"/>
	<g>
		<g>
			<g>
				<polygon opacity="0.4" fill="#C3C2C2" points="1188.221,102.415 1186.455,100.649 1182.606,108.03 1189.987,104.18 				"/>
			</g>
			<g>
				<polygon opacity="0.4" fill="#C3C2C2" points="1175.792,114.843 1174.026,113.078 1181.407,109.228 1177.558,116.609 				"/>
			</g>
		</g>
		<g>
			<g>
				<polygon opacity="0.4" fill="#C3C2C2" points="1175.792,102.415 1174.026,104.18 1181.407,108.03 1177.558,100.649 				"/>
			</g>
			<g>
				<polygon opacity="0.4" fill="#C3C2C2" points="1188.221,114.843 1186.455,116.609 1182.606,109.228 1189.987,113.078 				"/>
			</g>
		</g>
	</g>
	<circle fill="#C3C2C2" cx="1182.007" cy="108.629" r="4.176"/>
	<path fill="#2E2F2F" d="M1118.452,109.603c0,0,4.257,5.649,7.778,6.304c3.521,0.655,24.725-0.082,31.275-4.421l-34.713-3.93
		L1118.452,109.603z"/>
	<ellipse fill="#E7D888" cx="1165.983" cy="49.581" rx="2.46" ry="4.211"/>
	<polygon fill="#312783" points="1163.523,45.87 1166.108,44.786 1166.358,54.71 1163.439,53.792 	"/>
	<polygon fill="#312783" points="1160.187,76.225 1155.35,61.381 1158.164,59.964 1164.941,74.641 	"/>
	<path fill="#FFED00" d="M1164.595,73.418c0,0-7.276,0-7.969,1.27c-0.693,1.271-0.693,14.322-0.808,15.592
		c-0.116,1.27,1.155,4.966,3.927,5.775l7.969-13.629L1164.595,73.418z"/>
	<g>
		<path fill="#555555" d="M1128.811,108.95c0,0-7.591,4.277-19.887,2.673c-7.353-0.959-12.082-10.906-4.063-12.724L1128.811,108.95z
			"/>
		<path fill="#2E2F2F" d="M1124.427,103.925c0,0.354-0.287,0.642-0.642,0.642h-20.315c-0.354,0-0.642-0.287-0.642-0.642l0,0
			c0-0.354,0.287-0.642,0.642-0.642h20.315C1124.14,103.283,1124.427,103.57,1124.427,103.925L1124.427,103.925z"/>
		<path fill="#2E2F2F" d="M1125.71,106.277c0,0.354-0.287,0.642-0.641,0.642h-20.315c-0.354,0-0.642-0.287-0.642-0.642l0,0
			c0-0.354,0.287-0.642,0.642-0.642h20.315C1125.423,105.635,1125.71,105.922,1125.71,106.277L1125.71,106.277z"/>
		<path fill="#2E2F2F" d="M1126.994,108.629c0,0.354-0.287,0.642-0.641,0.642h-20.315c-0.354,0-0.641-0.287-0.641-0.642l0,0
			c0-0.354,0.287-0.642,0.641-0.642h20.315C1126.706,107.988,1126.994,108.275,1126.994,108.629L1126.994,108.629z"/>
	</g>
	<path fill="#312783" d="M1131.183,101.853c0,0,17.125,4.805,20.452,5.298c3.327,0.493,6.53-3.08,6.53-6.16l0.986,4.805
		l-1.725,3.573l-10.842,0.616c0,0-14.291-2.218-14.415-2.587C1132.045,107.027,1131.183,101.853,1131.183,101.853z"/>
	<path fill="#FFED00" d="M1133.4,78.814c0,0,0,5.298-2.218,9.733s-1.725,12.443,3.943,16.139c0,0-8.008,0.739-8.131,0.37
		c-0.123-0.37-2.341-7.269-2.341-7.269l-1.232-6.037c0,0,3.696-7.269,4.189-7.762L1133.4,78.814z"/>
	<path fill="#312783" d="M1166.172,70.067c0,0,3.674-0.92,5.052,0.748c1.378,1.668,7.021,15.885,7.021,15.885l-8.747,0.739
		L1166.172,70.067z"/>
	<path fill="#009640" d="M1110.854,101.36l5.79,6.653c0,0,7.564,2.053,21.684,3.326c15.031,1.355,21.807,2.218,22.053-3.203
		c0.112-2.465-0.37-15.479,11.704-21.045c0,0-5.914-31.439-13.922-27.127c0,0,5.945,15.792,6.685,19.617
		c1.478,7.639-7.301,9.213-6.931,23.011c0.132,4.932-2.094,5.544-5.667,5.79c-1.721,0.119-18.145-4.319-24.921-6.414
		c0,0-2.319-3.07-1.906-8.285c0.542-6.85,9.332-15.609,9.332-15.609l-39.917-5.229c0,0-9.364,5.476-10.288,11.143
		C1083.627,89.656,1110.854,101.36,1110.854,101.36z"/>
	<polygon fill="#2E2F2F" points="1080.053,81.386 1071.042,75.281 1077.034,75.281 1086.03,81.349 	"/>
	<ellipse fill="#E7D888" cx="1070.132" cy="88.07" rx="2.347" ry="3.943"/>
	<g>
		<g>
			
				<ellipse transform="matrix(0.9159 0.4015 -0.4015 0.9159 110.1126 -461.9105)" fill="#312783" cx="1157.229" cy="31.786" rx="2.162" ry="4.261"/>
		</g>
		<g>
			<path fill="#312783" d="M1157.047,47.978c0.138-0.475,3.383-11.643,3.888-13.028c0.234-0.642,0.274-1.134,0.115-1.423
				c-0.092-0.166-0.259-0.274-0.51-0.328c-0.847-0.185-2.807-0.84-2.89-0.868l0.253-0.756c0.02,0.007,2.002,0.669,2.807,0.845
				c0.476,0.104,0.835,0.354,1.038,0.723c0.277,0.504,0.255,1.204-0.065,2.081c-0.496,1.36-3.838,12.862-3.872,12.978
				L1157.047,47.978z"/>
		</g>
	</g>
	<g>
		<path fill="#646464" d="M1180.686,108.598c0.273,0.555,0.937,0.787,1.483,0.518l0,0c0.546-0.269,0.766-0.936,0.493-1.491
			l-4.1-8.318c-0.273-0.555-0.937-0.787-1.483-0.518l0,0c-0.546,0.269-0.766,0.936-0.493,1.491L1180.686,108.598z"/>
		<path fill="#747374" d="M1175.848,101.204c0.15,0.304,1.155,0.115,2.245-0.422l0,0c1.09-0.537,1.853-1.219,1.703-1.523
			l-3.62-7.711c-0.15-0.304-1.155-0.115-2.245,0.422l0,0c-1.09,0.537-1.853,1.219-1.703,1.523L1175.848,101.204z"/>
	</g>
	<g>
		<path fill="#646464" d="M1089.093,108.074c-0.257,0.479-0.062,1.049,0.434,1.273l0,0c0.496,0.224,1.107,0.016,1.363-0.463
			l3.844-7.19c0.257-0.479,0.062-1.049-0.434-1.273l0,0c-0.496-0.224-1.107-0.016-1.363,0.463L1089.093,108.074z"/>
		<path fill="#747374" d="M1091.856,100.88c-0.141,0.263,0.55,0.838,1.542,1.285l0,0c0.992,0.447,1.91,0.596,2.051,0.334
			l3.664-6.544c0.141-0.263-0.55-0.838-1.542-1.285l0,0c-0.992-0.447-1.91-0.596-2.05-0.334L1091.856,100.88z"/>
	</g>
	<rect x="1069.381" y="83.188" fill="#FFED00" width="4.225" height="9.858"/>
	<path fill="#312783" d="M1103.384,94.41c0,1.788-1.449,3.237-3.237,3.237h-25.839c-1.788,0-3.237-1.449-3.237-3.237V83.045
		c0-1.788,1.449-3.237,3.237-3.237h25.839c1.788,0,3.237,1.449,3.237,3.237V94.41z"/>
	<path fill="#FFED00" d="M1072.017,103.103c2.319-1.546,14.577-6.626,30.368-2.429c12.301,3.269,14.687,5.963,18.662,5.08
		c3.774-0.839,4.307-7.951,0.221-15.239c-4.086-7.288-17.669-16.564-34.785-8.061c-17.116,8.503-19.546,19.104-18.773,20.319
		C1068.483,103.986,1070.233,104.292,1072.017,103.103z"/>
	<path fill="#312783" d="M1086.223,73.982c0,0.993-0.805,1.798-1.798,1.798h-22.273c-0.993,0-1.798-0.805-1.798-1.798l0,0
		c0-0.993,0.805-1.798,1.798-1.798h22.273C1085.418,72.184,1086.223,72.989,1086.223,73.982L1086.223,73.982z"/>
	<path fill="#009640" d="M1091.017,63.576c0,4.754-3.854,8.608-8.608,8.608h-18.44c-4.754,0-8.608-3.854-8.608-8.608v-4.457
		c0-4.754,3.854-8.608,8.608-8.608h18.44c4.754,0,8.608,3.854,8.608,8.608V63.576z"/>
	<g>
		<path fill="#FFED00" d="M1093.115,59.824c0,0.607-0.492,1.099-1.099,1.099h-37.954c-0.607,0-1.099-0.492-1.099-1.099l0,0
			c0-0.607,0.492-1.099,1.099-1.099h37.954C1092.623,58.726,1093.115,59.218,1093.115,59.824L1093.115,59.824z"/>
		<path fill="#FFED00" d="M1093.115,63.22c0,0.607-0.492,1.099-1.099,1.099h-37.954c-0.607,0-1.099-0.492-1.099-1.099l0,0
			c0-0.607,0.492-1.099,1.099-1.099h37.954C1092.623,62.122,1093.115,62.613,1093.115,63.22L1093.115,63.22z"/>
	</g>
	<path fill="#312783" d="M1094.931,66.125c0,0-2.008,6.276-0.376,6.903c1.632,0.628,10.292,4.268,17.823,5.397
		c7.89,1.183,20.533,2.304,22.416-0.332c0,0,1.056-5.944-3.714-5.819c-4.77,0.125-18.451,0.125-21.463-2.636
		C1106.604,66.878,1099.701,63.74,1094.931,66.125z"/>
	<path fill="#FFED00" d="M1193.717,90.97c0,0-10.675-3.023-20.068,4.824c-6.288,5.253-7.421,10.076-9.384,10.769
		s-5.082,1.039-4.851-2.31c0.231-3.35,5.066-15.898,14.553-19.519c10.134-3.869,17.094,0.977,18.54,2.151
		C1194.354,88.385,1194.756,90.739,1193.717,90.97z"/>
	<path fill="#FFED00" d="M1155.183,61.465c0.103,0.155,6.338-3.169,6.338-3.169s-1.485-2.201-0.751-3.002
		c0.917-1.001,3.836-0.25,3.836-0.25V44.369c0,0-6.8,2.242-8.423,3.086C1154.099,48.539,1148.345,51.207,1155.183,61.465z"/>
	<g>
		<g>
			
				<ellipse transform="matrix(0.9954 -0.0958 0.0958 0.9954 1.963 109.8958)" fill="#312783" cx="1145.264" cy="34.508" rx="2.434" ry="4.796"/>
		</g>
		<g>
			<path fill="#312783" d="M1153.968,50.522c-0.125-0.542-3.062-13.299-3.325-14.938c-0.122-0.76-0.352-1.265-0.667-1.462
				c-0.181-0.113-0.404-0.127-0.681-0.043c-0.934,0.283-3.22,0.714-3.316,0.732l-0.166-0.882c0.023-0.004,2.335-0.44,3.222-0.709
				c0.525-0.16,1.015-0.11,1.417,0.141c0.549,0.343,0.911,1.043,1.078,2.08c0.258,1.609,3.283,14.746,3.314,14.879L1153.968,50.522z
				"/>
		</g>
	</g>
	<g>
		
			<ellipse transform="matrix(0.9913 0.132 -0.132 0.9913 16.9717 -151.876)" fill="#009640" cx="1154.218" cy="52.094" rx="2.089" ry="2.168"/>
		<g>
			<path fill="#747374" d="M1154.769,51.963c0.02-0.455-0.32-0.84-0.758-0.859c-0.088-0.004-0.173,0.011-0.253,0.035l-0.001-0.003
				l-4.846,1.004l0.413,1.577l4.773-0.974c0.053-0.009,0.104-0.022,0.153-0.041l0.002,0l0,0
				C1154.541,52.589,1154.754,52.305,1154.769,51.963z"/>
			
				<ellipse transform="matrix(0.999 0.0438 -0.0438 0.999 3.4258 -50.3317)" fill="#FFFFFF" stroke="#1E1E1C" stroke-miterlimit="10" cx="1149.09" cy="52.929" rx="0.795" ry="0.825"/>
		</g>
		<g>
			<path fill="#312783" d="M1151.028,52.858c0.038-0.864-0.607-1.595-1.44-1.631c-0.168-0.007-0.328,0.021-0.481,0.067l-0.002-0.006
				l-3.513,0.966l0.784,2.994l3.373-0.909c0.1-0.016,0.198-0.042,0.291-0.078l0.003-0.001l0,0
				C1150.595,54.046,1151,53.506,1151.028,52.858z"/>
			
				<ellipse transform="matrix(0.999 0.0438 -0.0438 0.999 3.4558 -50.1597)" fill="#312783" cx="1145.934" cy="53.752" rx="1.51" ry="1.567"/>
		</g>
	</g>
	<circle fill="#2E2F2F" cx="1182.007" cy="108.629" r="2.146"/>
	<circle fill="#2E2F2F" cx="1089.823" cy="108.629" r="2.146"/>
	<path fill="#009640" d="M1118.833,100.925c0.173-2.842-0.617-6.602-2.554-10.411c-0.244-0.479-0.526-0.967-0.843-1.457
		c-7.865-0.753-26.184-0.508-47.84,13.244c0.014,0.211,0.048,0.374,0.104,0.471c0.16,0.278,0.369,0.506,0.612,0.681
		C1071.751,100.415,1088.21,89.954,1118.833,100.925z"/>
</g>
<g>
	<g>
		<g>
			<path fill="#9E3365" d="M248.351,47.283c-0.012,0.006-0.024,0.012-0.037,0.018c-0.322,0.147-0.703,0.005-0.85-0.317
				c-0.215-0.472-5.282-11.574-5.821-12.921c-0.127-0.317-0.279-0.5-0.45-0.542c-0.158-0.039-0.63-0.039-1.622,0.806
				c-1.405,1.196-2.895,2.624-2.911,2.638c-0.253,0.245-0.661,0.237-0.907-0.019c-0.245-0.256-0.236-0.662,0.019-0.907
				c0.015-0.014,1.532-1.468,2.966-2.689c1.076-0.916,1.979-1.268,2.762-1.075c0.409,0.101,0.973,0.411,1.333,1.311
				c0.528,1.318,5.745,12.749,5.798,12.865C248.772,46.761,248.647,47.124,248.351,47.283z"/>
		</g>
		<path fill="#9E3365" d="M238.385,39.706c0.272,0.507,0.08,1.139-0.427,1.41l0,0c-0.507,0.272-1.139,0.08-1.411-0.427l-4.199-7.845
			c-0.272-0.507-0.08-1.139,0.427-1.411l0,0c0.507-0.272,1.139-0.08,1.41,0.427L238.385,39.706z"/>
	</g>
	<path fill="#646464" d="M219.298,112.294c-0.411-0.103-22.626-1.028-22.626-1.028l-1.44-8.536L219.298,112.294z"/>
	<polygon fill="#2E2F2F" points="245.832,108.489 220.224,113.117 197.7,106.02 	"/>
	<g>
		<circle fill="#2E2F2F" cx="177.056" cy="106.621" r="17.381"/>
		<circle fill="#C3C2C2" cx="177.056" cy="106.621" r="11.332"/>
		<circle fill="#8A8A8A" cx="177.056" cy="106.621" r="9.359"/>
		<circle fill="#2E2F2F" cx="177.056" cy="106.621" r="4.584"/>
	</g>
	<g>
		<circle fill="#2E2F2F" cx="280.24" cy="106.621" r="17.381"/>
		<circle fill="#C3C2C2" cx="280.24" cy="106.621" r="11.332"/>
		<circle fill="#8A8A8A" cx="280.24" cy="106.621" r="9.359"/>
		<circle fill="#2E2F2F" cx="280.24" cy="106.621" r="4.584"/>
	</g>
	<g>
		<path fill="#646464" d="M177.966,107.71c-0.3,0.503-0.991,0.643-1.542,0.314l0,0c-0.551-0.329-0.754-1.004-0.454-1.506
			l5.819-9.737c0.3-0.503,0.991-0.643,1.542-0.314l0,0c0.551,0.329,0.754,1.004,0.454,1.506L177.966,107.71z"/>
		<path fill="#747374" d="M181.733,103.623c-0.169,0.282-1.189-0.017-2.279-0.669l0,0c-1.09-0.652-1.837-1.408-1.668-1.69
			l3.266-5.465c0.169-0.282,1.189,0.017,2.279,0.669l0,0c1.09,0.651,1.837,1.408,1.668,1.69L181.733,103.623z"/>
	</g>
	<g>
		<path fill="#646464" d="M281.302,106.099c0.427,0.861,0.307,1.789-0.267,2.075l0,0c-0.575,0.286-1.387-0.181-1.815-1.041
			l-8.277-16.671c-0.427-0.861-0.307-1.789,0.268-2.075l0,0c0.575-0.285,1.387,0.181,1.815,1.041L281.302,106.099z"/>
		<path fill="#747374" d="M278.35,97.596c0.24,0.483-0.488,1.332-1.625,1.897l0,0c-1.137,0.565-2.254,0.631-2.494,0.148
			l-4.646-9.357c-0.24-0.483,0.488-1.332,1.625-1.897l0,0c1.137-0.565,2.254-0.631,2.494-0.148L278.35,97.596z"/>
	</g>
	<ellipse transform="matrix(1 0.0091 -0.0091 1 0.4213 -2.4034)" fill="#E7D888" cx="264.599" cy="45.138" rx="2.67" ry="4.259"/>
	<polygon fill="#9E3365" points="261.999,41.298 264.547,40.391 265.559,50.409 262.627,50.165 	"/>
	<path fill="#E05397" d="M266.668,102.174c0,0,3.015-12.716,20.713-8.193c0,0,3.671,1.377,7.604-2.032
		c0,0-7.176-14.516-25.039-9.504c-14.486,4.064-11.995,20.451-11.995,20.451S262.211,104.533,266.668,102.174z"/>
	<path fill="#9E3365" d="M183.926,74.939c0,0,8.796,21.314,15.423,32.323c0,0,28.965,2.779,35.912,3.1
		c6.947,0.321,13.574,1.496,19.346-6.413c5.772-7.909,16.032-21.59,16.032-21.59s2.245-1.71,6.199-1.924
		c0,0,1.71-5.558-3.527-11.223c-5.237-5.665-17.315-19.132-17.315-19.132l-5.451,2.886c0,0,8.55,15.925,8.23,22.552
		c-0.321,6.627-12.078,19.987-13.36,21.269c-1.283,1.283-12.398,0.321-17.208-1.069c-4.81-1.389-8.337-4.703-7.482-8.337
		c0.855-3.634,4.168-13.574,4.168-13.574l-34.843-2.993L183.926,74.939z"/>
	<path fill="#9DC53B" d="M226.39,74.43l-38.477-3.188c0,0,0.428-3.42,0.534-5.558c0.107-2.138,1.283-4.062,5.665-3.206
		c4.382,0.855,5.884,3.002,17.529,3.741c13.467,0.855,15.605,1.069,15.498,3.848C227.032,72.846,226.39,74.43,226.39,74.43z"/>
	<path fill="#E7D888" d="M160.615,87.84c0,2.412-1.955,4.367-4.367,4.367l0,0c-2.412,0-4.367-1.955-4.367-4.367v-0.163
		c0-2.412,1.955-4.367,4.367-4.367l0,0c2.412,0,4.367,1.955,4.367,4.367V87.84z"/>
	<polygon fill="#9DC53B" points="154.575,92.779 152.289,91.555 158.166,82.984 161.023,84.535 	"/>
	<path fill="#9DC53B" d="M228.243,95.522c-2.655-0.767-4.952-1.925-6.304-3.594c-0.683,1.293-1.057,3.678,1.094,5.22
		c3.31,2.372,23.819,7.152,24.004-2.162c-0.8,0.926-1.387,1.568-1.622,1.802C244.133,98.07,233.053,96.912,228.243,95.522z"/>
	<path fill="#E05397" d="M211.914,91.44c0,0,3.234,7.425,14.919,10.081c6.653,1.512,17.843,2.419,21.068-0.605
		c3.226-3.024,14.415-22.177,15.02-24.294s-9.118-23.902-9.118-23.902s11.336,20.475,12.344,22.491
		c1.008,2.016,0.101,3.125-1.613,5.847c-1.714,2.722-12.298,22.581-18.246,25.302c-6.152,2.816-35.585-1.815-35.585-1.815
		L211.914,91.44z"/>
	<path fill="#E05397" d="M250.48,53.236c0,0,5.445-3.037,6.597-3.142c1.152-0.105,7.4,1.466,7.4,1.466l-1.571-11.31
		c0,0-0.698-1.117-5.306,0.279c-4.608,1.396-10.542,4.573-11.449,5.201c-0.908,0.628-0.035,1.85,0.663,3.107
		C247.512,50.095,250.48,53.236,250.48,53.236z"/>
	<circle fill="#8A8A8A" cx="280.24" cy="106.621" r="2.356"/>
	<circle fill="#8A8A8A" cx="177.056" cy="106.621" r="2.356"/>
	<path fill="#9DC53B" d="M183.933,75.057c1.39,3.33,9.402,22.212,15.416,32.204c0,0,5.387,0.517,12.072,1.13
		C224.853,76.389,189.984,74.49,183.933,75.057z"/>
	<path fill="#9E3365" d="M152.001,95.932c0,0,1.817,4.275,13.04,4.489c11.223,0.214,28.965,4.489,33.454,7.802
		c0,0,7.565-3.52,7.582-13.719c0.013-7.802-5.217-20.047-25.111-20.055C161.11,74.441,152.001,95.932,152.001,95.932z"/>
	<g>
		<g>
			<path fill="#9E3365" d="M248.887,47.483c-0.013-0.003-0.026-0.007-0.04-0.011c-0.339-0.103-0.531-0.461-0.428-0.8
				c0.15-0.497,3.689-12.176,4.175-13.543c0.114-0.322,0.121-0.559,0.021-0.705c-0.093-0.133-0.447-0.446-1.75-0.468
				c-1.845-0.031-3.907,0.055-3.928,0.055c-0.352,0.016-0.653-0.26-0.668-0.614c-0.015-0.354,0.26-0.653,0.614-0.668
				c0.021-0.001,2.12-0.088,4.004-0.056c1.413,0.024,2.323,0.357,2.783,1.019c0.24,0.347,0.458,0.951,0.134,1.865
				c-0.475,1.338-4.119,13.364-4.155,13.485C249.548,47.37,249.214,47.56,248.887,47.483z"/>
		</g>
		<path fill="#9E3365" d="M246.419,35.21c-0.132,0.56-0.693,0.908-1.253,0.776l0,0c-0.56-0.132-0.908-0.693-0.776-1.253l2.036-8.662
			c0.132-0.56,0.693-0.908,1.253-0.776l0,0c0.56,0.132,0.908,0.693,0.776,1.253L246.419,35.21z"/>
	</g>
	<g>
		<ellipse fill="#9DC53B" cx="248.798" cy="47.849" rx="2.345" ry="2.434"/>
		<g>
			<path fill="#554E4A" d="M249.392,47.622c-0.045-0.51-0.48-0.887-0.971-0.844c-0.099,0.009-0.191,0.038-0.277,0.077l-0.001-0.003
				l-5.245,1.835l0.693,1.694l5.167-1.791c0.058-0.017,0.112-0.04,0.164-0.069l0.002-0.001l0,0
				C249.231,48.352,249.426,48.004,249.392,47.622z"/>
			
				<ellipse transform="matrix(0.9961 -0.0884 0.0884 0.9961 -3.4277 21.6999)" fill="#FFFFFF" stroke="#1E1E1C" stroke-miterlimit="10" cx="243.214" cy="49.539" rx="0.893" ry="0.926"/>
		</g>
		<g>
			<path fill="#9E3365" d="M245.361,49.172c-0.086-0.968-0.911-1.685-1.844-1.602c-0.188,0.017-0.362,0.072-0.526,0.146
				l-0.003-0.006l-3.767,1.595l1.316,3.216l3.619-1.511c0.109-0.033,0.214-0.077,0.312-0.13l0.003-0.001l0,0
				C245.055,50.558,245.426,49.898,245.361,49.172z"/>
			
				<ellipse transform="matrix(0.9961 -0.0884 0.0884 0.9961 -3.5631 21.4042)" fill="#E05397" cx="239.824" cy="50.921" rx="1.695" ry="1.759"/>
		</g>
	</g>
	<path fill="#E05397" d="M176.88,86.04c0,0.444,0.36,0.804,0.804,0.804h17.894c0.444,0,0.804-0.36,0.804-0.804l0,0
		c0-0.444-0.36-0.804-0.804-0.804h-17.894C177.24,85.235,176.88,85.596,176.88,86.04L176.88,86.04z"/>
	<path fill="#E05397" d="M176.88,89.458c0,0.444,0.36,0.804,0.804,0.804h17.894c0.444,0,0.804-0.36,0.804-0.804l0,0
		c0-0.444-0.36-0.804-0.804-0.804h-17.894C177.24,88.653,176.88,89.013,176.88,89.458L176.88,89.458z"/>
	<path fill="#E05397" d="M176.88,92.876c0,0.444,0.36,0.804,0.804,0.804h17.894c0.444,0,0.804-0.36,0.804-0.804l0,0
		c0-0.444-0.36-0.804-0.804-0.804h-17.894C177.24,92.071,176.88,92.431,176.88,92.876L176.88,92.876z"/>
</g>
<g>
	<circle fill="#2E2F2F" cx="326.201" cy="106.824" r="18.278"/>
	<circle fill="#555555" cx="326.201" cy="106.824" r="11.918"/>
	<circle fill="#C3C2C2" cx="326.201" cy="106.824" r="9.842"/>
	<circle fill="#2E2F2F" cx="326.201" cy="106.824" r="4.821"/>
	<circle fill="#2E2F2F" cx="429.054" cy="106.824" r="18.278"/>
	<circle fill="#555555" cx="429.054" cy="106.824" r="11.918"/>
	<circle fill="#C3C2C2" cx="429.054" cy="106.824" r="9.842"/>
	<circle fill="#2E2F2F" cx="429.054" cy="106.824" r="4.821"/>
	<g>
		<g>
			<path fill="#2F6DB5" d="M395.356,22.741c-0.038,1.906-0.659,3.417-1.387,3.373c-0.728-0.043-1.287-1.624-1.249-3.53
				c0.038-1.906,0.659-3.417,1.387-3.373C394.835,19.254,395.394,20.834,395.356,22.741z"/>
		</g>
		<g>
			<path fill="#2F6DB5" d="M397.007,39.92c-0.012-0.001-0.023-0.003-0.035-0.005c-0.372-0.058-0.626-0.405-0.569-0.777
				c0.75-4.848,1.823-12.98,1.507-14.16c-0.419-1.571-1.477-1.698-1.522-1.703l-1.652-0.171c-0.374-0.039-0.646-0.373-0.608-0.748
				c0.039-0.374,0.373-0.646,0.748-0.608l1.652,0.171c0.208,0.021,2.05,0.28,2.698,2.707c0.482,1.805-1.146,12.578-1.477,14.72
				C397.694,39.706,397.366,39.957,397.007,39.92z"/>
		</g>
	</g>
	<ellipse fill="#E7D888" cx="405.976" cy="39.096" rx="2.085" ry="5.122"/>
	<polygon fill="#555555" points="397.589,52.512 396.288,50.095 399.541,47.771 401.122,50.095 	"/>
	<path fill="#E50D49" d="M395.243,51.373l4.798-3.507c0,0-0.75-1.259-0.54-1.889c0.21-0.63,1.349-0.51,1.979-0.51
		c0.63,0,3.688,0,3.688,0s0.988,0.295,0.988-1.301c0-1.596,0-9.626,0-10.244c0-0.618-0.103-1.133-1.132-1.133
		c-1.03,0-3.192,0-3.964,0s-1.287,0.257-2.214,1.184c-0.927,0.927-4.324,3.809-6.846,5.251c-2.522,1.441-2.574,1.75-2.059,2.883
		C390.455,43.24,395.243,51.373,395.243,51.373z"/>
	<path fill="#E50D49" d="M325.851,67.995c0,0-2.255-4.134-2.537-7.141c-0.282-3.007-0.188-4.698,0.47-4.886
		c0.658-0.188,15.128-1.222,19.262,0.94c4.134,2.161,7.433,3.012,12.685,3.101c5.544,0.094,12.215-1.127,14-1.127
		c1.785,0,2.778,3.898,2.884,4.322c0.596,2.386-0.488,2.861-2.931,2.861C367.24,66.063,325.851,67.995,325.851,67.995z"/>
	<path fill="#E50D49" d="M400.207,59.515c0,0-3.277,2.662-3.789,3.584c-0.512,0.922-4.915,19.763-4.915,20.787
		c0,1.024,2.821,3.049,4.301,3.789c2.048,1.024,3.584,1.434,3.584,1.434S404.712,84.091,400.207,59.515z"/>
	<path fill="#17457D" d="M361.91,71.394c0,0,6.042-1.638,3.994,4.096c-2.048,5.734-4.301,15.974-0.41,20.275
		c0,0-7.168-1.024-7.27-1.331c-0.102-0.307-1.331-15.155-1.229-15.462C357.097,78.664,361.91,71.394,361.91,71.394z"/>
	
		<ellipse transform="matrix(0.6286 0.7778 -0.7778 0.6286 175.4197 -215.5991)" fill="#E7D888" cx="313.437" cy="75.861" rx="4.549" ry="5.187"/>
	<path fill="#E50D49" d="M322.739,70.366h-6.216l-8.688,8.688c0,0,0.918,2.614,1.766,2.755S322.739,70.366,322.739,70.366z"/>
	<g>
		<path fill="#646464" d="M429.668,105.56c0.425,0.857,0.306,1.782-0.266,2.066l0,0c-0.573,0.284-1.382-0.18-1.807-1.037
			l-16.565-31.424c-0.425-0.857-0.306-1.782,0.266-2.066l0,0c0.573-0.284,1.382,0.18,1.807,1.037L429.668,105.56z"/>
		<path fill="#747374" d="M426.728,97.093c0.239,0.481-0.486,1.327-1.618,1.889l0,0c-1.133,0.562-2.244,0.628-2.483,0.147
			l-12.949-24.14c-0.239-0.481,0.486-1.327,1.618-1.889l0,0c1.133-0.562,2.244-0.628,2.483-0.147L426.728,97.093z"/>
	</g>
	<g>
		<path fill="#646464" d="M327.248,107.099c-0.255,0.518-0.856,0.744-1.341,0.505l0,0c-0.486-0.239-0.673-0.853-0.417-1.371
			l3.828-7.766c0.255-0.518,0.856-0.744,1.341-0.505l0,0c0.486,0.239,0.672,0.853,0.417,1.371L327.248,107.099z"/>
		<path fill="#747374" d="M330.48,102.709c-0.143,0.291-1.038,0.143-1.999-0.331l0,0c-0.961-0.473-1.623-1.093-1.48-1.383
			l1.66-3.363c0.143-0.291,1.038-0.143,1.999,0.33l0,0c0.961,0.473,1.623,1.093,1.48,1.383L330.48,102.709z"/>
	</g>
	<path fill="#2F6DB5" d="M308.091,94.769l-6.486,0.515c0,0,5.457-18.223,24.092-28.004l45.095-1.235c0,0,1.03,1.956-2.986,4.118
		c-4.015,2.162-9.575,8.442-8.751,16.061c0.824,7.619,6.898,9.678,13.487,9.678s22-1.277,24.521-5.897
		c2.663-4.882,7.101-14.646,2.66-28.799c-0.809-2.578-3.706-7.31-3.809-8.339c-0.103-1.03,4.324-3.295,4.324-3.295
		s5.868,17.091,6.074,17.605c0.206,0.515,0.721,12.869,0.721,12.869s-9.678,18.532-10.604,19.253
		c-0.927,0.721-6.589,3.089-17.4,3.706c-10.81,0.618-35.52,0-35.52,0l-6.177-8.751L308.091,94.769z"/>
	<path fill="#17457D" d="M351.229,101.667c0,0,23.68,1.647,34.387-0.206c10.707-1.853,15.135-10.604,17.194-20.076
		c2.059-9.472,0.309-16.576-1.647-20.385c-1.956-3.809-1.853-5.663-1.853-6.589c0-0.927,1.03-7.001,1.03-7.001
		s1.132-0.824,2.883,3.089c1.75,3.912,4.839,13.693,9.472,16.473c4.633,2.78,6.28,4.118,5.354,8.751c0,0-8.236,1.75-12.149,10.913
		c-3.912,9.163-5.148,14.311-19.459,16.37c-14.311,2.059-35.52,1.236-35.52,1.236L351.229,101.667z"/>
	<path fill="#E50D49" d="M308.194,100.432c0,0,18.841-0.618,43.035,4.427c0,0,13.796-30.784-9.678-31.093
		c-23.474-0.309-35.417,17.502-36.24,20.797C304.487,97.858,306.443,99.196,308.194,100.432z"/>
	<path fill="#17457D" d="M307.792,95.674c0,0,22.567-5.748,42.51,2.493c0,0,3.973-8.099,0.425-10.015
		C347.179,86.236,328.16,86.023,307.792,95.674z"/>
	<path fill="#17457D" d="M401.883,45.468c0.389,0,0.946,0,1.493,0V32.79c-0.518,0-1.048,0-1.493,0V45.468z"/>
	<path fill="#E50D49" d="M444.404,83.856c-0.385,1.924-5.032,4.461-15.099,4.525c-10.067,0.064-13.16,8.27-16.287,11.606
		c-0.962,1.026-10.901,2.052-10.901,2.052s2.527-18.226,14.171-24.174C431.1,70.299,444.404,83.856,444.404,83.856z"/>
	<circle fill="#555555" cx="429.054" cy="106.824" r="2.533"/>
	<circle fill="#555555" cx="326.201" cy="106.824" r="2.533"/>
	<g>
		<g>
			<path fill="#2F6DB5" d="M385.49,25.835c0.185,2.22-0.356,4.05-1.207,4.086c-0.851,0.037-1.691-1.733-1.876-3.953
				c-0.185-2.22,0.356-4.05,1.207-4.086C384.466,21.845,385.306,23.615,385.49,25.835z"/>
		</g>
		<g>
			<path fill="#2F6DB5" d="M394.703,43.061c-0.285,0-0.549-0.18-0.645-0.464c-0.044-0.129-4.358-12.926-5.101-14.878
				c-0.573-1.503-1.624-1.502-2.165-1.501h-1.976c-0.376,0-0.681-0.305-0.681-0.681s0.305-0.681,0.681-0.681h1.94
				c0.003,0,0.007,0,0.011,0c1.709,0,2.863,0.8,3.464,2.379c0.753,1.977,4.941,14.4,5.119,14.928
				c0.12,0.357-0.071,0.743-0.428,0.863C394.849,43.049,394.775,43.061,394.703,43.061z"/>
		</g>
	</g>
	<g>
		
			<ellipse transform="matrix(0.974 -0.2265 0.2265 0.974 0.5147 90.516)" fill="#17457D" cx="394.701" cy="43.015" rx="2.582" ry="2.68"/>
		<g>
			<path fill="#646464" d="M395.56,43.081c-0.128-0.549-0.66-0.894-1.188-0.771c-0.107,0.025-0.202,0.07-0.29,0.126l-0.002-0.003
				l-5.436,2.806l1.016,1.74l5.359-2.746c0.06-0.028,0.116-0.061,0.168-0.1l0.002-0.001l0,0
				C395.496,43.902,395.655,43.493,395.56,43.081z"/>
			
				<ellipse transform="matrix(0.974 -0.2265 0.2265 0.974 -0.3335 89.3316)" fill="#FFFFFF" stroke="#1E1E1C" stroke-miterlimit="10" cx="389.119" cy="46.119" rx="0.983" ry="1.02"/>
		</g>
		<g>
			<path fill="#17457D" d="M391.403,45.39c-0.242-1.042-1.253-1.697-2.256-1.464c-0.202,0.047-0.384,0.134-0.551,0.239l-0.004-0.006
				l-3.861,2.318l1.929,3.304l3.714-2.204c0.114-0.053,0.221-0.116,0.32-0.19l0.003-0.002v0
				C391.283,46.948,391.585,46.171,391.403,45.39z"/>
			
				<ellipse transform="matrix(0.974 -0.2265 0.2265 0.974 -0.8835 88.5948)" fill="#2F6DB5" cx="385.635" cy="48.148" rx="1.866" ry="1.937"/>
		</g>
	</g>
</g>
<g>
	<g>
		<circle fill="#2E2F2F" cx="480.004" cy="108.198" r="16.424"/>
		<circle fill="#555555" cx="480.004" cy="108.198" r="10.709"/>
		<circle fill="#C3C2C2" cx="480.004" cy="108.198" r="8.844"/>
		<g opacity="0.2">
			<circle fill="#2E2F2F" cx="480.004" cy="103.578" r="1.603"/>
			<circle fill="#2E2F2F" cx="480.004" cy="112.857" r="1.603"/>
			<circle fill="#2E2F2F" cx="475.364" cy="108.217" r="1.603"/>
			<circle fill="#2E2F2F" cx="484.644" cy="108.217" r="1.603"/>
			<circle fill="#2E2F2F" cx="476.723" cy="104.937" r="1.603"/>
			<circle fill="#2E2F2F" cx="483.285" cy="111.498" r="1.603"/>
			<circle fill="#2E2F2F" cx="476.723" cy="111.498" r="1.603"/>
			<circle fill="#2E2F2F" cx="483.285" cy="104.937" r="1.603"/>
		</g>
		<circle fill="#555555" cx="480.004" cy="108.198" r="4.332"/>
		<g>
			<path fill="#646464" d="M481.02,107.5c-0.272,0.552-0.846,0.825-1.282,0.61l0,0c-0.436-0.215-0.57-0.837-0.298-1.389l4.079-8.276
				c0.272-0.552,0.846-0.825,1.282-0.61l0,0c0.436,0.215,0.57,0.837,0.298,1.389L481.02,107.5z"/>
			<path fill="#747374" d="M485.646,100.05c-0.149,0.302-0.977,0.199-1.849-0.23l0,0c-0.872-0.43-1.458-1.023-1.309-1.325
				l3.63-7.659c0.149-0.302,0.977-0.199,1.849,0.23l0,0c0.872,0.43,1.458,1.023,1.309,1.325L485.646,100.05z"/>
		</g>
		<circle fill="#2E2F2F" cx="480.004" cy="108.198" r="2.276"/>
		<path fill="#3B3B3B" d="M517.438,110.623c0,0-12.107,0.752-17.375,0.684c-6.735-0.087-13.954-6.225-8.658-14.141l15.41,3.314
			L517.438,110.623z"/>
		<path fill="#555555" d="M508.61,102.478c0,0.764-0.62,1.384-1.384,1.384h-13.1c-0.764,0-1.384-0.62-1.384-1.384l0,0
			c0-0.764,0.62-1.384,1.384-1.384h13.1C507.991,101.094,508.61,101.713,508.61,102.478L508.61,102.478z"/>
		<path fill="#555555" d="M511.483,106.787c0,0.764-0.62,1.384-1.384,1.384h-13.1c-0.764,0-1.384-0.62-1.384-1.384l0,0
			c0-0.764,0.62-1.384,1.384-1.384h13.1C510.864,105.403,511.483,106.023,511.483,106.787L511.483,106.787z"/>
		<circle fill="#2E2F2F" cx="580.263" cy="108.198" r="16.424"/>
		<circle fill="#555555" cx="580.263" cy="108.198" r="10.709"/>
		<circle fill="#C3C2C2" cx="580.263" cy="108.198" r="8.844"/>
		<g opacity="0.2">
			<circle fill="#2E2F2F" cx="580.263" cy="103.578" r="1.603"/>
			<circle fill="#2E2F2F" cx="580.263" cy="112.857" r="1.603"/>
			<circle fill="#2E2F2F" cx="575.624" cy="108.217" r="1.603"/>
			<circle fill="#2E2F2F" cx="584.903" cy="108.217" r="1.603"/>
			<circle fill="#2E2F2F" cx="576.982" cy="104.937" r="1.603"/>
			<circle fill="#2E2F2F" cx="583.544" cy="111.498" r="1.603"/>
			<circle fill="#2E2F2F" cx="576.982" cy="111.498" r="1.603"/>
			<circle fill="#2E2F2F" cx="583.544" cy="104.937" r="1.603"/>
		</g>
		<circle fill="#555555" cx="580.263" cy="108.198" r="4.332"/>
		<g>
			<path fill="#646464" d="M581.006,107.611c0.32,0.526,0.243,1.157-0.173,1.41l0,0c-0.415,0.253-1.012,0.032-1.332-0.493
				l-4.799-7.881c-0.32-0.526-0.243-1.157,0.173-1.41l0,0c0.415-0.253,1.012-0.032,1.332,0.493L581.006,107.611z"/>
			<path fill="#747374" d="M577.198,99.712c0.175,0.288-0.355,0.931-1.186,1.437l0,0c-0.83,0.506-1.645,0.682-1.821,0.394
				l-4.518-7.17c-0.175-0.288,0.355-0.931,1.186-1.437l0,0c0.83-0.506,1.645-0.682,1.821-0.394L577.198,99.712z"/>
		</g>
		<circle fill="#2E2F2F" cx="580.263" cy="108.198" r="2.276"/>
		<g>
			<g>
				
					<ellipse transform="matrix(0.9158 -0.4016 0.4016 0.9158 31.9397 220.7464)" fill="#4290CE" cx="542.48" cy="34.192" rx="2.514" ry="4.975"/>
			</g>
			<g>
				<path fill="#4290CE" d="M552.456,45.731c-1.644-3.953-4.36-10.331-4.933-11.304c-0.596-0.131-2.971-0.178-4.977-0.146
					l-0.019-1.14c5.12-0.083,5.543,0.239,5.703,0.36c0.15,0.114,0.549,0.416,5.28,11.792L552.456,45.731z"/>
			</g>
		</g>
		<ellipse fill="#E7D888" cx="561.97" cy="44.401" rx="2.01" ry="3.411"/>
		<polygon fill="#1F3C8C" points="559.504,40.882 561.97,39.596 561.97,49.192 560.201,48.87 		"/>
		<polygon fill="#1F3C8C" points="557.401,72.651 551.543,56.028 555.108,55.032 557.401,56.82 563.839,71.596 		"/>
		<path fill="#1F3C8C" d="M595.709,91.228c0,0-14.279-2.972-23.05,5.052c-8.771,8.024-8.261,11.591-11.627,12.284
			c-3.366,0.693-5.61,0.675-5.61,0.675s-0.075-16.724,13.361-23.856C583.313,77.67,598.667,88.553,595.709,91.228z"/>
		<ellipse fill="#E7D888" cx="456.262" cy="84.409" rx="3.593" ry="4.104"/>
		<rect x="454.872" y="79.466" fill="#4290CE" width="5.664" height="9.885"/>
		<path fill="#1F3C8C" d="M493.741,72.385c0,1.505-1.22,2.725-2.725,2.725h-34.559c-1.505,0-2.725-1.22-2.725-2.725l0,0
			c0-1.505,1.22-2.725,2.725-2.725h34.559C492.521,69.66,493.741,70.88,493.741,72.385L493.741,72.385z"/>
		<path fill="#3667B0" d="M493.36,89.732c0,3.36-2.724,6.083-6.083,6.083h-24.713c-3.36,0-6.083-2.724-6.083-6.083v-8.618
			c0-3.36,2.724-6.083,6.083-6.083h24.713c3.36,0,6.083,2.724,6.083,6.083V89.732z"/>
		<path fill="#2E2F2F" d="M553.46,110.091c0,0,1.243,1.906-3.314,3.065c-4.557,1.16-28.749,3.231-31.234,2.651
			c-2.485-0.58-8.782-8.451-8.782-8.451L553.46,110.091z"/>
		<path fill="#3667B0" d="M561.745,69.66c0,0-5.468,0.331-7.042,0.497c-1.574,0.166-2.403,0.828-2.403,3.728
			s-0.083,11.682-0.083,13.505c0,1.823,0.663,4.474,3.728,6.711c0,0,8.948-13.753,8.865-14.002
			C564.728,79.85,561.745,69.66,561.745,69.66z"/>
		<path fill="#1F3C8C" d="M554.952,99.237c0,0,0.117,6.329-4.557,6.462c-2.9,0.083-21.127-4.64-23.612-2.071
			c0,0,17.481,4.391,22.038,5.302c4.557,0.911,6.297,0.331,6.545-1.243C555.615,106.114,554.952,99.237,554.952,99.237z"/>
		<path fill="#3667B0" d="M526.866,76.702c0,0,2.32,0,1.243,2.32c-1.077,2.32-5.882,10.853-4.474,16.653
			c1.447,5.958,8.202,8.948,8.202,8.948l-12.428-2.32c0,0-1.906-6.628-1.326-10.356C518.663,88.218,526.866,76.702,526.866,76.702z"
			/>
		<path fill="#4290CE" d="M573.073,80.006c-1.481-3.85-8.884-19.742-10.266-22.012s-3.948-4.146-7.699-2.961
			c0,0,4.146,11.154,5.923,16.287s2.665,9.081-0.395,12.832c-3.06,3.751-4.837,4.442-5.429,11.154s-0.296,11.944-1.777,12.733
			s-25.664-4.935-27.737-5.33c-2.073-0.395-7.798-2.566-6.317-9.575c1.481-7.008,9.772-17.768,9.772-17.768
			s-44.814-5.824-45.11-5.824c-0.296,0-2.073,13.326-2.073,13.326s25.072,24.282,27.342,25.269c2.27,0.987,12.24,3.257,22.802,3.257
			s17.669-0.197,19.544-0.197c1.875,0,4.343-0.099,4.541-3.85c0.197-3.751,2.321-18.938,17.077-23.493
			C573.271,83.855,574.554,83.855,573.073,80.006z"/>
		<path fill="#1F3C8C" d="M461.521,101.504c7.753-5.196,26.342-3.604,35.827-1.129c9.485,2.474,14.932,5.981,18.231,3.589
			c3.299-2.392,0.459-19.037-11.088-25.14c-11.547-6.103-26.805-3.546-38.022,5.856c-11.217,9.402-11.959,16.495-11.134,17.32
			C457.202,103.866,459.957,102.552,461.521,101.504z"/>
		<path fill="#675347" d="M482.541,70.571c0,0,10.356,0.249,16.239,3.065s7.954,4.888,14.747,4.971
			c6.794,0.083,13.512-1.76,15.621-3.241c0,0,2.523-7.363-6.093-6.783c-8.616,0.58-12.013,0.663-16.653-1.326
			c-4.64-1.988-13.753-6.877-18.724-5.551C482.707,63.032,481.795,66.843,482.541,70.571z"/>
		<path fill="#3667B0" d="M558.515,54.231l-6.971,1.797c0,0-3.405-5.496-3.941-6.515c-0.536-1.019-0.375-1.555,0.268-2.252
			c0.643-0.697,4.932-4.986,4.932-4.986l7.559-2.68l0.643,10.4c0,0-2.734-0.751-3.592,0.161
			C556.736,50.876,558.515,54.231,558.515,54.231z"/>
		<g>
			<g>
				<path fill="#4290CE" d="M553.118,30.354c-0.385,2.681-1.646,4.679-2.815,4.461c-1.17-0.217-1.805-2.567-1.42-5.248
					c0.385-2.681,1.646-4.679,2.815-4.461C552.868,25.323,553.503,27.673,553.118,30.354z"/>
			</g>
			<g>
				<path fill="#4290CE" d="M552.119,48.71l-1.111-0.257c1.267-5.481,3.253-14.333,3.395-15.636
					c-0.376-0.432-2.035-1.728-3.471-2.764l0.667-0.925c3.712,2.679,3.87,3.19,3.922,3.358
					C555.58,32.679,555.72,33.131,552.119,48.71z"/>
			</g>
		</g>
		<g>
			
				<ellipse transform="matrix(0.9865 -0.1638 0.1638 0.9865 -0.7122 90.9575)" fill="#1F3C8C" cx="551.097" cy="49.797" rx="2.233" ry="2.317"/>
			<g>
				<path fill="#878787" d="M551.62,49.491c-0.122-0.472-0.589-0.759-1.044-0.641c-0.092,0.024-0.173,0.065-0.248,0.115
					l-0.002-0.003l-4.639,2.542l0.915,1.483l4.574-2.488c0.051-0.025,0.099-0.055,0.144-0.09l0.002-0.001l0,0
					C551.583,50.202,551.711,49.845,551.62,49.491z"/>
				
					<ellipse transform="matrix(0.9681 -0.2504 0.2504 0.9681 4.3147 138.4201)" fill="#FFFFFF" stroke="#1E1E1C" stroke-miterlimit="10" cx="546.117" cy="52.254" rx="0.85" ry="0.882"/>
			</g>
			<g>
				<path fill="#1F3C8C" d="M548.076,51.575c-0.232-0.895-1.119-1.44-1.982-1.217c-0.174,0.045-0.329,0.124-0.471,0.219
					l-0.004-0.005l-3.289,2.086l1.738,2.815l3.163-1.984c0.097-0.048,0.189-0.105,0.273-0.171l0.003-0.002l0,0
					C548.005,52.925,548.25,52.247,548.076,51.575z"/>
				
					<ellipse transform="matrix(0.9681 -0.2504 0.2504 0.9681 3.7633 137.7408)" fill="#4290CE" cx="543.148" cy="54.082" rx="1.614" ry="1.675"/>
			</g>
		</g>
	</g>
	<path fill="#3667B0" d="M461.77,96.663c0,0,14.066-7.682,32.318-3.047c0,0,7.132-12.721-3.056-13.178
		C491.032,80.439,469.592,79.714,461.77,96.663z"/>
</g>
<g>
	<circle fill="#2E2F2F" cx="630.204" cy="106.94" r="18.074"/>
	<circle fill="#C3C2C2" cx="630.204" cy="106.94" r="11.785"/>
	<circle fill="#555555" cx="630.204" cy="106.94" r="9.732"/>
	<g>
		<g>
			<rect x="629.303" y="96.4" opacity="0.4" fill="#C3C2C2" width="1.803" height="21.08"/>
			<rect x="619.664" y="106.039" opacity="0.4" fill="#C3C2C2" width="21.08" height="1.803"/>
		</g>
		<g>
			
				<rect x="629.303" y="96.4" transform="matrix(-0.7071 -0.7071 0.7071 -0.7071 1000.1938 628.1905)" opacity="0.4" fill="#C3C2C2" width="1.803" height="21.08"/>
			
				<rect x="629.303" y="96.4" transform="matrix(0.7071 -0.7071 0.7071 0.7071 108.9643 476.9439)" opacity="0.4" fill="#C3C2C2" width="1.803" height="21.08"/>
		</g>
	</g>
	<circle fill="#C3C2C2" cx="630.204" cy="106.94" r="4.767"/>
	<g>
		<path fill="#646464" d="M629.658,106.477c-0.209,0.368-0.011,0.875,0.443,1.132l0,0c0.453,0.257,0.99,0.167,1.199-0.201
			l3.129-5.519c0.209-0.368,0.01-0.875-0.443-1.132l0,0c-0.453-0.257-0.99-0.167-1.199,0.201L629.658,106.477z"/>
		<path fill="#747374" d="M631.82,100.805c-0.114,0.202,0.527,0.782,1.433,1.296l0,0c0.906,0.514,1.733,0.767,1.847,0.566l2.995-5
			c0.114-0.202-0.527-0.782-1.433-1.296l0,0c-0.906-0.514-1.733-0.767-1.847-0.566L631.82,100.805z"/>
	</g>
	<circle fill="#2E2F2F" cx="630.204" cy="106.94" r="2.504"/>
	<g>
		<g>
			
				<ellipse transform="matrix(0.965 0.2622 -0.2622 0.965 30.7643 -182.7176)" fill="#0A7934" cx="700.161" cy="23.938" rx="2.819" ry="5.555"/>
		</g>
		<g>
			<path fill="#0A7934" d="M703.036,44.851c0.087-0.639,2.126-15.663,2.512-17.546c0.179-0.873,0.136-1.515-0.125-1.857
				c-0.15-0.197-0.386-0.303-0.72-0.326c-1.128-0.076-3.781-0.544-3.893-0.564l0.181-1.023c0.027,0.005,2.71,0.479,3.781,0.551
				c0.634,0.042,1.145,0.296,1.478,0.733c0.454,0.596,0.561,1.503,0.316,2.695c-0.379,1.849-2.479,17.321-2.5,17.477L703.036,44.851
				z"/>
		</g>
	</g>
	<path fill="#E7D888" d="M607.004,81.025c0,2.753,2.232,4.984,4.984,4.984h1.51c2.753,0,4.984-2.232,4.984-4.984l0,0
		c0-2.753-2.232-4.984-4.984-4.984h-1.51C609.235,76.041,607.004,78.272,607.004,81.025L607.004,81.025z"/>
	<path fill="#0A7934" d="M630.197,75.285h-15.255c0,0-6.495,3.474-6.193,12.234h9.818L630.197,75.285z"/>
	<ellipse fill="#E7D888" cx="714.779" cy="47.192" rx="3.776" ry="5.135"/>
	<polygon fill="#0A7934" points="712.513,42.359 716.214,40.546 716.214,53.989 712.815,52.176 	"/>
	<path fill="#FAB720" d="M699.99,51.48c0,0,6.307,16.678,6.447,25.647c0.14,8.97-6.307,17.519-11.913,18.5
		c-5.606,0.981-12.053,1.542-19.06-1.682c-7.007-3.223-10.371-5.045-9.39-9.81c0.981-4.765,5.606-7.428,7.148-7.708
		s1.542-2.803,1.261-4.765c0,0-19.294,0-22.984,0c-3.69,0-43.658,0.047-48.772,28.871c0,0,6.167-0.981,13.735-1.121h17.378h15.276
		l13.174,6.727h20.322l14.435-1.542L709.24,89.32l7.008-10.932l-4.064-11.212l-5.746-14.435L699.99,51.48z"/>
	<path fill="#2E2F2F" d="M657.825,108.567l40.938-2.753c0,0-15.803-0.994-18.769-0.994c-2.966,0-8.118,0-10.304,0
		s-7.025-4.059-9.523-4.059C657.669,100.761,657.825,108.567,657.825,108.567z"/>
	<path fill="#0A7934" d="M696.075,94.984c0,0,0.312,3.122-3.279,3.903c-3.591,0.781-19.827,1.873-26.384-4.059
		c0,0-0.625-2.966,1.561-5.776C667.973,89.052,682.336,99.356,696.075,94.984z"/>
	<path fill="#0A7934" d="M725.728,82.595c0,0,0-4.206-1.641-6.566c-1.056-1.518-13.131-7.181-14.67-21.646h-3.898
		c0,0,3.356,9.173,5.027,13.131c1.949,4.616,3.597,10.44,1.641,13.234c-0.718,1.026-13.644,20.107-14.157,20.723
		c-0.513,0.616-0.615,0.923-2.052,1.128c-1.436,0.205-15.593-0.41-17.85,3.283l0.167,1.308c0,0,18.812-0.795,20.248-0.795
		S725.728,82.595,725.728,82.595z"/>
	<path fill="#0C9A39" d="M609.428,102.01c0,0,22.637-4.84,32.317,1.093c9.679,5.933,14.831,6.557,19.203,6.089
		c0,0,6.22-14.536,0.624-25.448C655.328,71.566,613.331,78.435,609.428,102.01z"/>
	<g>
		<path fill="#FAB720" d="M620.357,92.955c0,0.948,0.769,1.717,1.717,1.717h15.612c0.948,0,1.717-0.769,1.717-1.717l0,0
			c0-0.948-0.769-1.717-1.717-1.717h-15.612C621.126,91.237,620.357,92.006,620.357,92.955L620.357,92.955z"/>
		<path fill="#FAB720" d="M626.133,88.227c0,0.658,0.533,1.191,1.191,1.191h10.831c0.658,0,1.191-0.533,1.191-1.191l0,0
			c0-0.658-0.533-1.191-1.191-1.191h-10.831C626.667,87.036,626.133,87.569,626.133,88.227L626.133,88.227z"/>
	</g>
	<polygon fill="#0C9A39" points="711.154,60.181 701.336,58.067 702.847,63.202 711.758,62.296 	"/>
	<path fill="#0C9A39" d="M713.268,39.489v14.953c0,0-15.496,2.222-16.916-5.286C695.295,43.567,706.019,39.338,713.268,39.489z"/>
	<g>
		<g>
			
				<ellipse transform="matrix(0.932 -0.3624 0.3624 0.932 34.9106 251.4337)" fill="#0A7934" cx="687.744" cy="32.65" rx="2.819" ry="5.555"/>
		</g>
		<g>
			<path fill="#0A7934" d="M702.48,47.765c-0.309-0.565-7.594-13.863-8.402-15.607c-0.375-0.808-0.791-1.299-1.203-1.42
				c-0.238-0.069-0.491-0.015-0.773,0.166c-0.952,0.609-3.365,1.808-3.467,1.859l-0.462-0.931c0.025-0.012,2.464-1.224,3.369-1.803
				c0.535-0.343,1.097-0.442,1.624-0.288c0.719,0.21,1.344,0.876,1.856,1.98c0.793,1.712,8.295,15.406,8.371,15.545L702.48,47.765z"
				/>
		</g>
	</g>
	<g>
		
			<ellipse transform="matrix(0.9705 -0.2411 0.2411 0.9705 8.8174 170.776)" fill="#FAB720" cx="702.403" cy="49.35" rx="2.777" ry="2.881"/>
		<g>
			<path fill="#534F46" d="M703.021,48.919c-0.197-0.573-0.805-0.883-1.357-0.692c-0.111,0.038-0.208,0.098-0.296,0.167
				l-0.003-0.003l-5.503,3.606l1.28,1.748l5.426-3.533c0.061-0.036,0.118-0.078,0.169-0.126l0.002-0.001v0
				C703.044,49.804,703.169,49.349,703.021,48.919z"/>
			
				<ellipse transform="matrix(0.9454 -0.3259 0.3259 0.9454 20.7976 229.8987)" fill="#FFFFFF" stroke="#1E1E1C" stroke-miterlimit="10" cx="696.47" cy="52.884" rx="1.057" ry="1.097"/>
		</g>
		<g>
			<path fill="#0A7934" d="M698.831,51.85c-0.375-1.087-1.528-1.676-2.576-1.315c-0.211,0.073-0.395,0.186-0.562,0.317l-0.005-0.006
				l-3.872,2.908l2.43,3.32l3.727-2.769c0.116-0.069,0.224-0.149,0.321-0.239l0.003-0.003v0
				C698.876,53.53,699.113,52.666,698.831,51.85z"/>
			
				<ellipse transform="matrix(0.9454 -0.3259 0.3259 0.9454 19.7707 228.8878)" fill="#0C9A39" cx="692.968" cy="55.441" rx="2.007" ry="2.082"/>
		</g>
	</g>
	<path fill="#534F46" d="M640.458,72.34c0,0,33.767,0,35.718,0c1.951,0,2.251-4.652,2.251-7.204c0-2.551-0.3-3.602-1.651-3.602
		c-1.351,0-37.519,0-40.67,0c-3.152,0-7.654-3.452-9.755-3.452c-2.101,0-5.553-0.45-4.652,2.551c0.9,3.001,2.251,5.403,3.152,7.654
		c0.901,2.251,3.001,4.052,4.802,4.052S640.458,72.34,640.458,72.34z"/>
	<circle fill="#2E2F2F" cx="728.999" cy="106.94" r="18.074"/>
	<circle fill="#C3C2C2" cx="728.999" cy="106.94" r="11.785"/>
	<circle fill="#555555" cx="728.999" cy="106.94" r="9.732"/>
	<g>
		<g>
			<rect x="728.098" y="96.4" opacity="0.4" fill="#C3C2C2" width="1.803" height="21.08"/>
			<rect x="718.459" y="106.039" opacity="0.4" fill="#C3C2C2" width="21.08" height="1.803"/>
		</g>
		<g>
			
				<rect x="728.098" y="96.4" transform="matrix(-0.7071 -0.7071 0.7071 -0.7071 1168.8448 698.0507)" opacity="0.4" fill="#C3C2C2" width="1.803" height="21.08"/>
			
				<rect x="728.098" y="96.4" transform="matrix(0.7071 -0.7071 0.7071 0.7071 137.9005 546.8022)" opacity="0.4" fill="#C3C2C2" width="1.803" height="21.08"/>
		</g>
	</g>
	<circle fill="#C3C2C2" cx="728.999" cy="106.94" r="4.767"/>
	<g>
		<path fill="#646464" d="M728.153,107.26c0.234,0.475,0.803,0.674,1.271,0.444l0,0c0.468-0.23,0.657-0.803,0.423-1.278
			l-3.514-7.129c-0.234-0.475-0.803-0.674-1.271-0.444l0,0c-0.468,0.23-0.657,0.803-0.423,1.278L728.153,107.26z"/>
		<path fill="#747374" d="M724.007,100.923c0.128,0.26,0.99,0.099,1.924-0.362l0,0c0.934-0.46,1.588-1.045,1.459-1.305l-3.103-6.609
			c-0.128-0.26-0.99-0.098-1.924,0.362l0,0c-0.934,0.46-1.588,1.045-1.459,1.305L724.007,100.923z"/>
	</g>
	<circle fill="#2E2F2F" cx="728.999" cy="106.94" r="2.504"/>
	<path fill="#0C9A39" d="M744.94,93.423c0,0-1.873-6.401-9.679-10.148c-8.312-3.99-27.165-3.591-27.945,17.017l3.591,2.966
		c0,0,12.038-6.07,14.363-7.494C732.919,91.081,744.94,93.423,744.94,93.423z"/>
	<path fill="#FAB720" d="M746.502,94.984c0,0-8.899-1.717-16.861-0.156c-7.962,1.561-12.177,9.055-13.426,10.148
		c-1.249,1.093-8.899,1.873-9.367,0.625c-0.468-1.249-1.405-3.903-0.312-6.557c0,0,5.149,3.501,9.367,0.156
		c4.527-3.591,9.055-9.836,29.819-6.401L746.502,94.984z"/>
</g>
<g>
	<g>
		<circle fill="#2E2F2F" cx="878.666" cy="108.096" r="17.923"/>
		<circle fill="#555555" cx="878.666" cy="108.096" r="11.686"/>
		<circle fill="#C3C2C2" cx="878.666" cy="108.096" r="9.651"/>
		<circle fill="#555555" cx="878.666" cy="108.096" r="4.727"/>
	</g>
	<g>
		<g>
			<g>
				<path fill="#48473E" d="M878.195,116.475c0,0.26,0.211,0.471,0.471,0.471l0,0c0.26,0,0.471-0.211,0.471-0.471v-2.203
					c0-0.26-0.211-0.471-0.471-0.471l0,0c-0.26,0-0.471,0.211-0.471,0.471V116.475z"/>
				<path fill="#48473E" d="M878.195,101.921c0,0.26,0.211,0.471,0.471,0.471l0,0c0.26,0,0.471-0.211,0.471-0.471v-2.203
					c0-0.26-0.211-0.471-0.471-0.471l0,0c-0.26,0-0.471,0.211-0.471,0.471V101.921z"/>
			</g>
			<g>
				<path fill="#48473E" d="M870.287,107.625c-0.26,0-0.471,0.211-0.471,0.471l0,0c0,0.26,0.211,0.471,0.471,0.471h2.203
					c0.26,0,0.471-0.211,0.471-0.471l0,0c0-0.26-0.211-0.471-0.471-0.471H870.287z"/>
				<path fill="#48473E" d="M884.842,107.625c-0.26,0-0.471,0.211-0.471,0.471l0,0c0,0.26,0.211,0.471,0.471,0.471h2.203
					c0.26,0,0.471-0.211,0.471-0.471l0,0c0-0.26-0.211-0.471-0.471-0.471H884.842z"/>
			</g>
		</g>
		<g>
			<g>
				<path fill="#48473E" d="M872.408,113.688c-0.184,0.184-0.184,0.482,0,0.666l0,0c0.184,0.184,0.482,0.184,0.666,0l1.558-1.558
					c0.184-0.184,0.184-0.482,0-0.666l0,0c-0.184-0.184-0.482-0.184-0.666,0L872.408,113.688z"/>
				<path fill="#48473E" d="M882.7,103.396c-0.184,0.184-0.184,0.482,0,0.666l0,0c0.184,0.184,0.482,0.184,0.666,0l1.558-1.558
					c0.184-0.184,0.184-0.482,0-0.666l0,0c-0.184-0.184-0.482-0.184-0.666,0L882.7,103.396z"/>
			</g>
			<g>
				<path fill="#48473E" d="M873.074,101.838c-0.184-0.184-0.482-0.184-0.666,0l0,0c-0.184,0.184-0.184,0.482,0,0.666l1.558,1.558
					c0.184,0.184,0.482,0.184,0.666,0l0,0c0.184-0.184,0.184-0.482,0-0.666L873.074,101.838z"/>
				<path fill="#48473E" d="M883.366,112.13c-0.184-0.184-0.482-0.184-0.666,0l0,0c-0.184,0.184-0.184,0.482,0,0.666l1.558,1.558
					c0.184,0.184,0.482,0.184,0.666,0l0,0c0.184-0.184,0.184-0.482,0-0.666L883.366,112.13z"/>
			</g>
		</g>
	</g>
	<g>
		<g>
			
				<ellipse transform="matrix(0.9608 0.2771 -0.2771 0.9608 39.5502 -236.0601)" fill="#9DC53B" cx="855.084" cy="21.92" rx="2.521" ry="4.968"/>
		</g>
		<g>
			<path fill="#9DC53B" d="M857.365,40.661c0.086-0.57,2.118-13.977,2.489-15.656c0.172-0.778,0.142-1.353-0.086-1.662
				c-0.131-0.178-0.341-0.277-0.64-0.301c-1.007-0.083-3.373-0.539-3.473-0.558l0.176-0.913c0.024,0.005,2.416,0.466,3.374,0.545
				c0.567,0.046,1.02,0.281,1.311,0.676c0.398,0.539,0.48,1.352,0.246,2.415c-0.365,1.648-2.457,15.455-2.478,15.594L857.365,40.661
				z"/>
		</g>
	</g>
	<g>
		<g>
			<circle fill="#2E2F2F" cx="782.218" cy="108.096" r="17.923"/>
			<circle fill="#555555" cx="782.218" cy="108.096" r="11.686"/>
			<circle fill="#C3C2C2" cx="782.218" cy="108.096" r="9.651"/>
			<circle fill="#555555" cx="782.218" cy="108.096" r="4.727"/>
		</g>
		<circle fill="#2E2F2F" cx="782.218" cy="108.096" r="2.429"/>
		<g>
			<g>
				<g>
					<path fill="#48473E" d="M781.747,116.475c0,0.26,0.211,0.471,0.471,0.471l0,0c0.26,0,0.471-0.211,0.471-0.471v-2.203
						c0-0.26-0.211-0.471-0.471-0.471l0,0c-0.26,0-0.471,0.211-0.471,0.471V116.475z"/>
					<path fill="#48473E" d="M781.747,101.921c0,0.26,0.211,0.471,0.471,0.471l0,0c0.26,0,0.471-0.211,0.471-0.471v-2.203
						c0-0.26-0.211-0.471-0.471-0.471l0,0c-0.26,0-0.471,0.211-0.471,0.471V101.921z"/>
				</g>
				<g>
					<path fill="#48473E" d="M773.839,107.625c-0.26,0-0.471,0.211-0.471,0.471l0,0c0,0.26,0.211,0.471,0.471,0.471h2.203
						c0.26,0,0.471-0.211,0.471-0.471l0,0c0-0.26-0.211-0.471-0.471-0.471H773.839z"/>
					<path fill="#48473E" d="M788.394,107.625c-0.26,0-0.471,0.211-0.471,0.471l0,0c0,0.26,0.211,0.471,0.471,0.471h2.203
						c0.26,0,0.471-0.211,0.471-0.471l0,0c0-0.26-0.211-0.471-0.471-0.471H788.394z"/>
				</g>
			</g>
			<g>
				<g>
					<path fill="#48473E" d="M775.96,113.688c-0.184,0.184-0.184,0.482,0,0.666l0,0c0.184,0.184,0.482,0.184,0.666,0l1.558-1.558
						c0.184-0.184,0.184-0.482,0-0.666l0,0c-0.184-0.184-0.482-0.184-0.666,0L775.96,113.688z"/>
					<path fill="#48473E" d="M786.252,103.396c-0.184,0.184-0.184,0.482,0,0.666l0,0c0.184,0.184,0.482,0.184,0.666,0l1.558-1.558
						c0.184-0.184,0.184-0.482,0-0.666l0,0c-0.184-0.184-0.482-0.184-0.666,0L786.252,103.396z"/>
				</g>
				<g>
					<path fill="#48473E" d="M776.627,101.838c-0.184-0.184-0.482-0.184-0.666,0l0,0c-0.184,0.184-0.184,0.482,0,0.666l1.558,1.558
						c0.184,0.184,0.482,0.184,0.666,0l0,0c0.184-0.184,0.184-0.482,0-0.666L776.627,101.838z"/>
					<path fill="#48473E" d="M786.919,112.13c-0.184-0.184-0.482-0.184-0.666,0l0,0c-0.184,0.184-0.184,0.482,0,0.666l1.558,1.558
						c0.184,0.184,0.482,0.184,0.666,0l0,0c0.184-0.184,0.184-0.482,0-0.666L786.919,112.13z"/>
				</g>
			</g>
		</g>
	</g>
	<ellipse fill="#E7D888" cx="870.787" cy="44.752" rx="5.225" ry="6.673"/>
	<path fill="#9DC53B" d="M869.13,37.054c0.146,0,3.172,0,3.172,0s1.123,3.172,0.634,8.444c-0.488,5.271-1.842,6.589-1.842,6.589
		l-2.697-0.662L869.13,37.054z"/>
	<ellipse fill="#E7D888" cx="759.025" cy="89.973" rx="2.426" ry="2.814"/>
	<path fill="#9DC53B" d="M758.442,94.496c0,1.027,0.832,1.859,1.859,1.859h5.947c1.027,0,1.859-0.832,1.859-1.859v-7.224
		c0-1.027-0.832-1.859-1.859-1.859h-5.947c-1.027,0-1.859,0.832-1.859,1.859V94.496z"/>
	<path fill="#649A34" d="M832.035,111.11c0,0,6.633,0,10.15,0s8.026-0.368,11.833-8.903c3.807-8.535,6.755-9.763,9.088-9.763
		l15.56-6.754c0,0-16.174-11.176-19.121-34.018c0,0,3.345-1.597,9.471,0.982c0,0,3.179-5.281,1.214-16.579
		c0,0-9.984,1.719-14.878,4.298c-4.894,2.579-4.648,5.895-3.911,10.807c0.737,4.912,7.246,41.866-13.386,45.679h-28.737v12.684
		L832.035,111.11z"/>
	<path fill="#9DC53B" d="M855.615,86.303c1.597-7.983-1.264-34.992-1.264-38.252c0-1.386,2.228-2.104,2.228-2.104
		s-2.315,21.812,8.984,41.953c0,0-0.296,1.647-1.144,3.974l-1.312,0.57c-2.333,0-5.281,1.228-9.088,9.763s-8.317,8.903-11.833,8.903
		c-3.516,0-10.15,0-10.15,0l-15.776-1.088c-3.032-1.724-5.447-2.964-6.944-2.964v-2.579h32.869
		C846.036,104.479,854.018,94.286,855.615,86.303z"/>
	<path fill="#CC3517" d="M763.444,71.201c0.69,1.105,2.146,1.441,3.251,0.751l12.309-7.69c1.105-0.69,1.441-2.146,0.751-3.251l0,0
		c-0.69-1.105-2.146-1.441-3.251-0.751l-12.309,7.69C763.089,68.64,762.753,70.096,763.444,71.201L763.444,71.201z"/>
	<path fill="#555555" d="M770.012,80.004c0.69,1.105,2.146,1.441,3.251,0.751l12.309-7.69c1.105-0.69,1.441-2.146,0.751-3.251l0,0
		c-0.69-1.105-2.146-1.441-3.251-0.751l-12.309,7.69C769.658,77.443,769.322,78.899,770.012,80.004L770.012,80.004z"/>
	<path fill="#2E2F2F" d="M761.124,78.599c1.564,2.504,4.862,3.265,7.365,1.701l18.188-11.363c2.504-1.564,3.265-4.862,1.701-7.365
		l0,0c-1.564-2.504-4.862-3.265-7.365-1.701l-18.188,11.363C760.321,72.798,759.56,76.096,761.124,78.599L761.124,78.599z"/>
	<rect x="804.962" y="64.529" fill="#555555" width="14.456" height="4.415"/>
	<path fill="#646464" d="M877.19,108.847c0.292,0.445,0.842,0.599,1.231,0.344l1.054-0.691c0.388-0.254,0.466-0.821,0.175-1.266
		l-8.314-12.681c-0.292-0.445-0.842-0.599-1.231-0.344l-1.054,0.691c-0.388,0.254-0.466,0.821-0.175,1.266L877.19,108.847z"/>
	<circle fill="#2E2F2F" cx="878.666" cy="108.096" r="2.429"/>
	<path fill="#555555" d="M846.625,112.768H804.94c0,0-3.438-1.63-3.539-3.539l9.82-2.911c0,0,3.368,0.29,4.642,2.466
		c0,0,23.027,0,25.757,0C845.26,108.783,846.625,112.768,846.625,112.768z"/>
	<path fill="#CC3517" d="M802.381,110.323c-0.197,0.402-12.186-3.855-28.849-4.85c-14.524-0.867-21.015,0.995-20.891-0.249
		c0.124-1.243,12.733-29.065,38.997-35.763c23.775-6.063,31.51-0.548,33.375,2.81c1.865,3.357,0,7.212-3.855,9.824
		s-5.347,9.078-4.104,18.031C817.054,100.126,805.614,103.733,802.381,110.323z"/>
	<path fill="#9DC53B" d="M839.36,100.549h-27.957v-3.69c0,0,5.396,0.182,5.396-5.767c0,0,3.228-0.001,6.393,3.194
		c2.549,2.573,13.22-0.123,14.694-0.123C839.36,94.163,839.115,98.461,839.36,100.549z"/>
	<path fill="#CC3517" d="M842.185,104.479c0,0-0.123-4.544-4.667-4.544c-4.544,0-28.203,0-28.203,0v4.544H842.185z"/>
	<path fill="#9DC53B" d="M762.983,105.263c0,0,3.461-13.842,22.86-19.935c19.399-6.093,27.108-3.606,27.73,3.109
		c0.622,6.715,1.244,23.424-4.974,23.424C802.381,111.861,787.41,105.612,762.983,105.263z"/>
	<path fill="#649A34" d="M813.701,90.005c0.184,2.506,0.32,5.803,0.198,9.08c-25.952-1.767-36.342,4.152-39.61,6.78
		c-2.001-0.184-4.085-0.333-6.252-0.439C779.471,91.184,804.293,89.938,813.701,90.005z"/>
	<path fill="#674A19" d="M822.926,65.793c0,0-16.391,0-18.327,0c-1.936,0-5.444-1.959-5.383-6.027
		c0.06-4.068,0.907-4.975,2.48-4.612c1.573,0.363,5.383,4.612,11.19,4.612s9.254,0,10.948,0c0.976,0,2.298,1.86,2.298,3.311
		C826.131,64.529,825.285,65.793,822.926,65.793z"/>
	<path fill="#CC3517" d="M893.953,93.976c0,0-8.209-13.082-22.703-9.365c-14.364,3.684-14.364,18.476-14.364,18.476
		s1.032,4.81,1.161,4.953s4.108,0.742,4.108,0.742s11.584-7.906,16.511-10.393L893.953,93.976z"/>
	<path fill="#9DC53B" d="M896.588,96.208c0,0-13.868-1.346-20.711,5.546c-6.842,6.891-13.523,11.014-20.544,8.717
		c0,0-1.626-5.753,1.552-7.383c0,0,1.131,6.894,10.094,1.622c7.789-4.582,11.686-12.415,27.224-11.158L896.588,96.208z"/>
	<g>
		<g>
			
				<ellipse transform="matrix(0.974 -0.2263 0.2263 0.974 15.7537 191.2074)" fill="#9DC53B" cx="841.674" cy="26.907" rx="2.838" ry="5.592"/>
		</g>
		<g>
			<path fill="#9DC53B" d="M854.197,44.075c-0.228-0.607-5.586-14.899-6.142-16.752c-0.258-0.859-0.602-1.408-0.996-1.587
				c-0.227-0.103-0.487-0.085-0.794,0.055c-1.036,0.471-3.611,1.321-3.72,1.356l-0.328-0.994c0.026-0.009,2.63-0.868,3.615-1.315
				c0.582-0.265,1.156-0.284,1.659-0.055c0.687,0.312,1.214,1.065,1.566,2.239c0.546,1.82,6.063,16.538,6.119,16.686L854.197,44.075
				z"/>
		</g>
	</g>
	<g>
		<ellipse fill="#CC3517" cx="854.729" cy="45.854" rx="2.436" ry="2.527"/>
		<g>
			<path fill="#555555" d="M855.346,45.618c-0.047-0.529-0.499-0.922-1.008-0.876c-0.103,0.009-0.198,0.039-0.287,0.08l-0.002-0.003
				l-5.447,1.906l0.72,1.759l5.366-1.86c0.06-0.018,0.117-0.042,0.171-0.071l0.002-0.001v0
				C855.178,46.376,855.381,46.015,855.346,45.618z"/>
			
				<ellipse transform="matrix(0.9961 -0.0884 0.0884 0.9961 -0.8844 75.2505)" fill="#FFFFFF" stroke="#1E1E1C" stroke-miterlimit="10" cx="848.93" cy="47.608" rx="0.927" ry="0.962"/>
		</g>
		<g>
			<path fill="#649A34" d="M851.16,47.227c-0.089-1.005-0.947-1.75-1.915-1.664c-0.195,0.017-0.376,0.074-0.546,0.151l-0.003-0.006
				l-3.911,1.657l1.367,3.34l3.759-1.569c0.113-0.034,0.222-0.08,0.324-0.135l0.003-0.001l0,0
				C850.842,48.667,851.227,47.981,851.16,47.227z"/>
			
				<ellipse transform="matrix(0.9961 -0.0884 0.0884 0.9961 -1.0256 74.9329)" fill="#9DC53B" cx="845.409" cy="49.044" rx="1.76" ry="1.827"/>
		</g>
	</g>
</g>
<g>
	<g>
		<circle fill="#2E2F2F" cx="1028.666" cy="108.096" r="17.923"/>
		<circle fill="#555555" cx="1028.666" cy="108.096" r="11.686"/>
		<circle fill="#C3C2C2" cx="1028.666" cy="108.096" r="9.651"/>
		<circle fill="#555555" cx="1028.666" cy="108.096" r="4.727"/>
	</g>
	<g>
		<g>
			<g>
				<path fill="#48473E" d="M1028.195,116.475c0,0.26,0.211,0.471,0.471,0.471l0,0c0.26,0,0.471-0.211,0.471-0.471v-2.203
					c0-0.26-0.211-0.471-0.471-0.471l0,0c-0.26,0-0.471,0.211-0.471,0.471V116.475z"/>
				<path fill="#48473E" d="M1028.195,101.921c0,0.26,0.211,0.471,0.471,0.471l0,0c0.26,0,0.471-0.211,0.471-0.471v-2.203
					c0-0.26-0.211-0.471-0.471-0.471l0,0c-0.26,0-0.471,0.211-0.471,0.471V101.921z"/>
			</g>
			<g>
				<path fill="#48473E" d="M1020.287,107.625c-0.26,0-0.471,0.211-0.471,0.471l0,0c0,0.26,0.211,0.471,0.471,0.471h2.203
					c0.26,0,0.471-0.211,0.471-0.471l0,0c0-0.26-0.211-0.471-0.471-0.471H1020.287z"/>
				<path fill="#48473E" d="M1034.842,107.625c-0.26,0-0.471,0.211-0.471,0.471l0,0c0,0.26,0.211,0.471,0.471,0.471h2.203
					c0.26,0,0.471-0.211,0.471-0.471l0,0c0-0.26-0.211-0.471-0.471-0.471H1034.842z"/>
			</g>
		</g>
		<g>
			<g>
				<path fill="#48473E" d="M1022.408,113.688c-0.184,0.184-0.184,0.482,0,0.666l0,0c0.184,0.184,0.482,0.184,0.666,0l1.558-1.558
					c0.184-0.184,0.184-0.482,0-0.666l0,0c-0.184-0.184-0.482-0.184-0.666,0L1022.408,113.688z"/>
				<path fill="#48473E" d="M1032.7,103.396c-0.184,0.184-0.184,0.482,0,0.666l0,0c0.184,0.184,0.482,0.184,0.666,0l1.558-1.558
					c0.184-0.184,0.184-0.482,0-0.666l0,0c-0.184-0.184-0.482-0.184-0.666,0L1032.7,103.396z"/>
			</g>
			<g>
				<path fill="#48473E" d="M1023.074,101.838c-0.184-0.184-0.482-0.184-0.666,0l0,0c-0.184,0.184-0.184,0.482,0,0.666l1.558,1.558
					c0.184,0.184,0.482,0.184,0.666,0l0,0c0.184-0.184,0.184-0.482,0-0.666L1023.074,101.838z"/>
				<path fill="#48473E" d="M1033.366,112.13c-0.184-0.184-0.482-0.184-0.666,0l0,0c-0.184,0.184-0.184,0.482,0,0.666l1.558,1.558
					c0.184,0.184,0.482,0.184,0.666,0l0,0c0.184-0.184,0.184-0.482,0-0.666L1033.366,112.13z"/>
			</g>
		</g>
	</g>
	<g>
		<g>
			
				<ellipse transform="matrix(0.9608 0.2771 -0.2771 0.9608 45.4227 -277.6206)" fill="#E30613" cx="1005.084" cy="21.92" rx="2.521" ry="4.968"/>
		</g>
		<g>
			<path fill="#E30613" d="M1007.365,40.661c0.086-0.57,2.118-13.977,2.489-15.656c0.172-0.778,0.142-1.353-0.086-1.662
				c-0.131-0.178-0.341-0.277-0.64-0.301c-1.007-0.083-3.373-0.539-3.473-0.558l0.176-0.913c0.024,0.005,2.416,0.466,3.374,0.545
				c0.567,0.046,1.02,0.281,1.311,0.676c0.398,0.539,0.48,1.352,0.246,2.415c-0.365,1.648-2.457,15.455-2.478,15.594
				L1007.365,40.661z"/>
		</g>
	</g>
	<g>
		<g>
			<circle fill="#2E2F2F" cx="932.218" cy="108.096" r="17.923"/>
			<circle fill="#555555" cx="932.218" cy="108.096" r="11.686"/>
			<circle fill="#C3C2C2" cx="932.218" cy="108.096" r="9.651"/>
			<circle fill="#555555" cx="932.218" cy="108.096" r="4.727"/>
		</g>
		<circle fill="#2E2F2F" cx="932.218" cy="108.096" r="2.429"/>
		<g>
			<g>
				<g>
					<path fill="#48473E" d="M931.747,116.475c0,0.26,0.211,0.471,0.471,0.471l0,0c0.26,0,0.471-0.211,0.471-0.471v-2.203
						c0-0.26-0.211-0.471-0.471-0.471l0,0c-0.26,0-0.471,0.211-0.471,0.471V116.475z"/>
					<path fill="#48473E" d="M931.747,101.921c0,0.26,0.211,0.471,0.471,0.471l0,0c0.26,0,0.471-0.211,0.471-0.471v-2.203
						c0-0.26-0.211-0.471-0.471-0.471l0,0c-0.26,0-0.471,0.211-0.471,0.471V101.921z"/>
				</g>
				<g>
					<path fill="#48473E" d="M923.839,107.625c-0.26,0-0.471,0.211-0.471,0.471l0,0c0,0.26,0.211,0.471,0.471,0.471h2.203
						c0.26,0,0.471-0.211,0.471-0.471l0,0c0-0.26-0.211-0.471-0.471-0.471H923.839z"/>
					<path fill="#48473E" d="M938.394,107.625c-0.26,0-0.471,0.211-0.471,0.471l0,0c0,0.26,0.211,0.471,0.471,0.471h2.203
						c0.26,0,0.471-0.211,0.471-0.471l0,0c0-0.26-0.211-0.471-0.471-0.471H938.394z"/>
				</g>
			</g>
			<g>
				<g>
					<path fill="#48473E" d="M925.96,113.688c-0.184,0.184-0.184,0.482,0,0.666l0,0c0.184,0.184,0.482,0.184,0.666,0l1.558-1.558
						c0.184-0.184,0.184-0.482,0-0.666l0,0c-0.184-0.184-0.482-0.184-0.666,0L925.96,113.688z"/>
					<path fill="#48473E" d="M936.252,103.396c-0.184,0.184-0.184,0.482,0,0.666l0,0c0.184,0.184,0.482,0.184,0.666,0l1.558-1.558
						c0.184-0.184,0.184-0.482,0-0.666l0,0c-0.184-0.184-0.482-0.184-0.666,0L936.252,103.396z"/>
				</g>
				<g>
					<path fill="#48473E" d="M926.627,101.838c-0.184-0.184-0.482-0.184-0.666,0l0,0c-0.184,0.184-0.184,0.482,0,0.666l1.558,1.558
						c0.184,0.184,0.482,0.184,0.666,0l0,0c0.184-0.184,0.184-0.482,0-0.666L926.627,101.838z"/>
					<path fill="#48473E" d="M936.919,112.13c-0.184-0.184-0.482-0.184-0.666,0l0,0c-0.184,0.184-0.184,0.482,0,0.666l1.558,1.558
						c0.184,0.184,0.482,0.184,0.666,0l0,0c0.184-0.184,0.184-0.482,0-0.666L936.919,112.13z"/>
				</g>
			</g>
		</g>
	</g>
	<ellipse fill="#E7D888" cx="1020.787" cy="44.752" rx="5.225" ry="6.673"/>
	<path fill="#E30613" d="M1019.13,37.054c0.146,0,3.172,0,3.172,0s1.123,3.172,0.634,8.444c-0.488,5.271-1.842,6.589-1.842,6.589
		l-2.697-0.662L1019.13,37.054z"/>
	<ellipse fill="#E7D888" cx="909.025" cy="89.973" rx="2.426" ry="2.814"/>
	<path fill="#E30613" d="M908.442,94.496c0,1.027,0.832,1.859,1.859,1.859h5.947c1.027,0,1.859-0.832,1.859-1.859v-7.224
		c0-1.027-0.832-1.859-1.859-1.859h-5.947c-1.027,0-1.859,0.832-1.859,1.859V94.496z"/>
	<path fill="#FFED00" d="M982.035,111.11c0,0,6.633,0,10.15,0s8.026-0.368,11.833-8.903c3.807-8.535,6.755-9.763,9.088-9.763
		l15.56-6.754c0,0-16.174-11.176-19.121-34.018c0,0,3.345-1.597,9.471,0.982c0,0,3.179-5.281,1.214-16.579
		c0,0-9.984,1.719-14.878,4.298c-4.894,2.579-4.648,5.895-3.911,10.807c0.737,4.912,7.246,41.866-13.386,45.679h-28.737v12.684
		L982.035,111.11z"/>
	<path fill="#E30613" d="M1005.615,86.303c1.597-7.983-1.264-34.992-1.264-38.252c0-1.386,2.228-2.104,2.228-2.104
		s-2.315,21.812,8.984,41.953c0,0-0.296,1.647-1.144,3.974l-1.312,0.57c-2.333,0-5.281,1.228-9.088,9.763s-8.317,8.903-11.833,8.903
		c-3.516,0-10.15,0-10.15,0l-15.776-1.088c-3.032-1.724-5.447-2.964-6.944-2.964v-2.579h32.869
		C996.036,104.479,1004.018,94.286,1005.615,86.303z"/>
	<path fill="#CC3517" d="M913.444,71.201c0.69,1.105,2.146,1.441,3.251,0.751l12.309-7.69c1.105-0.69,1.441-2.146,0.751-3.251l0,0
		c-0.69-1.105-2.146-1.441-3.251-0.751l-12.309,7.69C913.089,68.64,912.753,70.096,913.444,71.201L913.444,71.201z"/>
	<path fill="#555555" d="M920.012,80.004c0.69,1.105,2.146,1.441,3.251,0.751l12.309-7.69c1.105-0.69,1.441-2.146,0.751-3.251l0,0
		c-0.69-1.105-2.146-1.441-3.251-0.751l-12.309,7.69C919.658,77.443,919.322,78.899,920.012,80.004L920.012,80.004z"/>
	<path fill="#2E2F2F" d="M911.124,78.599c1.564,2.504,4.862,3.265,7.365,1.701l18.188-11.363c2.504-1.564,3.265-4.862,1.701-7.365
		l0,0c-1.564-2.504-4.862-3.265-7.365-1.701l-18.188,11.363C910.321,72.798,909.56,76.096,911.124,78.599L911.124,78.599z"/>
	<rect x="954.962" y="64.529" fill="#555555" width="14.456" height="4.415"/>
	<path fill="#646464" d="M1027.19,108.847c0.292,0.445,0.843,0.599,1.231,0.344l1.054-0.691c0.388-0.254,0.466-0.821,0.175-1.266
		l-8.314-12.681c-0.292-0.445-0.842-0.599-1.231-0.344l-1.054,0.691c-0.388,0.254-0.466,0.821-0.175,1.266L1027.19,108.847z"/>
	<circle fill="#2E2F2F" cx="1028.666" cy="108.096" r="2.429"/>
	<path fill="#555555" d="M996.625,112.768H954.94c0,0-3.438-1.63-3.539-3.539l9.82-2.911c0,0,3.368,0.29,4.642,2.466
		c0,0,23.027,0,25.757,0C995.26,108.783,996.625,112.768,996.625,112.768z"/>
	<path fill="#009FE3" d="M952.381,110.323c-0.197,0.402-12.186-3.855-28.849-4.85c-14.524-0.867-21.015,0.995-20.891-0.249
		c0.124-1.243,12.733-29.065,38.997-35.763c23.775-6.063,31.51-0.548,33.375,2.81c1.865,3.357,0,7.212-3.855,9.824
		s-5.347,9.078-4.104,18.031C967.054,100.126,955.614,103.733,952.381,110.323z"/>
	<path fill="#E30613" d="M989.36,100.549h-27.957v-3.69c0,0,5.396,0.182,5.396-5.767c0,0,3.228-0.001,6.393,3.194
		c2.549,2.573,13.22-0.123,14.694-0.123C989.36,94.163,989.115,98.461,989.36,100.549z"/>
	<path fill="#009FE3" d="M992.185,104.479c0,0-0.123-4.544-4.667-4.544c-4.544,0-28.203,0-28.203,0v4.544H992.185z"/>
	<path fill="#E30613" d="M912.983,105.263c0,0,3.461-13.842,22.86-19.935c19.399-6.093,27.108-3.606,27.73,3.109
		c0.622,6.715,1.244,23.424-4.974,23.424C952.381,111.861,937.41,105.612,912.983,105.263z"/>
	<path fill="#FCEA10" d="M963.701,90.005c0.184,2.506,0.32,5.803,0.198,9.08c-25.952-1.767-36.342,4.152-39.61,6.78
		c-2.001-0.184-4.085-0.333-6.252-0.439C929.471,91.184,954.293,89.938,963.701,90.005z"/>
	<path fill="#674A19" d="M972.926,65.793c0,0-16.391,0-18.327,0c-1.936,0-5.444-1.959-5.383-6.027
		c0.06-4.068,0.907-4.975,2.48-4.612c1.573,0.363,5.383,4.612,11.19,4.612s9.254,0,10.948,0c0.976,0,2.298,1.86,2.298,3.311
		C976.131,64.529,975.285,65.793,972.926,65.793z"/>
	<path fill="#009FE3" d="M1043.953,93.976c0,0-8.209-13.082-22.703-9.365c-14.364,3.684-14.364,18.476-14.364,18.476
		s1.032,4.81,1.161,4.953s4.108,0.742,4.108,0.742s11.584-7.906,16.511-10.393L1043.953,93.976z"/>
	<path fill="#E30613" d="M1046.588,96.208c0,0-13.868-1.346-20.711,5.546c-6.842,6.891-13.523,11.014-20.544,8.717
		c0,0-1.626-5.753,1.552-7.383c0,0,1.131,6.894,10.094,1.622c7.789-4.582,11.686-12.415,27.224-11.158L1046.588,96.208z"/>
	<g>
		<g>
			
				<ellipse transform="matrix(0.974 -0.2263 0.2263 0.974 19.6466 225.1592)" fill="#E30613" cx="991.674" cy="26.907" rx="2.838" ry="5.592"/>
		</g>
		<g>
			<path fill="#E30613" d="M1004.197,44.075c-0.228-0.607-5.586-14.899-6.142-16.752c-0.258-0.859-0.602-1.408-0.996-1.587
				c-0.227-0.103-0.487-0.085-0.794,0.055c-1.036,0.471-3.611,1.321-3.72,1.356l-0.328-0.994c0.026-0.009,2.63-0.868,3.615-1.315
				c0.582-0.265,1.156-0.284,1.659-0.055c0.687,0.312,1.214,1.065,1.566,2.239c0.546,1.82,6.063,16.538,6.119,16.686
				L1004.197,44.075z"/>
		</g>
	</g>
	<g>
		<ellipse fill="#CC3517" cx="1004.729" cy="45.854" rx="2.436" ry="2.527"/>
		<g>
			<path fill="#555555" d="M1005.346,45.618c-0.047-0.529-0.499-0.922-1.008-0.876c-0.103,0.009-0.198,0.039-0.287,0.08
				l-0.002-0.003l-5.447,1.906l0.72,1.759l5.366-1.86c0.06-0.018,0.117-0.042,0.171-0.071l0.002-0.001v0
				C1005.178,46.376,1005.381,46.015,1005.346,45.618z"/>
			
				<ellipse transform="matrix(0.9961 -0.0884 0.0884 0.9961 -0.2969 88.5138)" fill="#FFFFFF" stroke="#1E1E1C" stroke-miterlimit="10" cx="998.93" cy="47.608" rx="0.927" ry="0.962"/>
		</g>
		<g>
			<path fill="#E30613" d="M1001.16,47.227c-0.089-1.005-0.947-1.75-1.915-1.664c-0.195,0.017-0.376,0.074-0.546,0.151l-0.003-0.006
				l-3.911,1.657l1.367,3.34l3.759-1.569c0.113-0.034,0.222-0.08,0.324-0.135l0.003-0.001l0,0
				C1000.842,48.667,1001.227,47.981,1001.16,47.227z"/>
			
				<ellipse transform="matrix(0.9961 -0.0884 0.0884 0.9961 -0.4382 88.1941)" fill="#FFED00" cx="995.409" cy="49.044" rx="1.76" ry="1.827"/>
		</g>
	</g>
</g>
<g>
</g>
<g>
</g>
<g>
</g>
<g>
</g>
<g>
</g>
<g>
</g>
</svg>
