<?xml version="1.0" encoding="utf-8"?>
<!-- Generator: Adobe Illustrator 17.0.0, SVG Export Plug-In . SVG Version: 6.00 Build 0)  -->
<!DOCTYPE svg PUBLIC "-//W3C//DTD SVG 1.1//EN" "http://www.w3.org/Graphics/SVG/1.1/DTD/svg11.dtd">
<svg version="1.1" id="Слой_1" xmlns="http://www.w3.org/2000/svg" xmlns:xlink="http://www.w3.org/1999/xlink" x="0px" y="0px"
	 width="2400px" height="400px" viewBox="0 0 2400 400" enable-background="new 0 0 2400 400" xml:space="preserve">
<g>
	<g>
		<g>
			<g>
				<g>
					<g>
						
							<radialGradient id="SVGID_1_" cx="316.8899" cy="275.8515" r="16.7285" gradientTransform="matrix(1 0 0 1 -41.92 -194.32)" gradientUnits="userSpaceOnUse">
							<stop  offset="0" style="stop-color:#D1CFD0"/>
							<stop  offset="1" style="stop-color:#262526"/>
						</radialGradient>
						<path fill="url(#SVGID_1_)" d="M284.488,83.101c0.156-5.599-0.188-16.844-2.714-19.309c-2.691-2.628-5.434-3.905-8.387-3.905
							c-2.881,0-5.64,1.213-7.967,2.578l3.437,5.167c1.874-1.085,3.204-1.531,4.441-1.531c1.647,0,2.749,0.817,3.609,1.616
							l0.46,0.426l0.172,0.603c0.486,1.692,0.961,9.72,0.705,15.354c-0.264,5.813-1.218,9.955-2.047,11.482L276,95.948l-0.317,0.271
							c-0.462,0.395-0.93,0.765-1.402,1.125c0.84,1.962,1.68,3.901,2.52,5.832c1.091-0.761,2.16-1.583,3.2-2.492
							C282.643,98.379,284.236,92.134,284.488,83.101z"/>
					</g>
				</g>
				<g>
					<g>
						
							<linearGradient id="SVGID_2_" gradientUnits="userSpaceOnUse" x1="279.817" y1="262.7113" x2="312.8567" y2="262.7113" gradientTransform="matrix(1 0 0 1 -41.92 -194.32)">
							<stop  offset="0" style="stop-color:#79170E"/>
							<stop  offset="0.4247" style="stop-color:#D11317"/>
							<stop  offset="0.5978" style="stop-color:#A41718"/>
							<stop  offset="0.7812" style="stop-color:#7D1614"/>
							<stop  offset="0.9212" style="stop-color:#661411"/>
							<stop  offset="1" style="stop-color:#5E130F"/>
						</linearGradient>
						<path fill="url(#SVGID_2_)" d="M270.129,63.46c-1.382-4.883-4.06-8.401-5.98-7.857c-1.082,0.306-1.691,1.837-1.771,3.99
							L237.897,69.95l4.775,11.285l23.286-9.852c1.085,1.428,2.236,2.175,3.198,1.903C271.076,72.742,271.511,68.343,270.129,63.46z
							"/>
						
							<radialGradient id="SVGID_3_" cx="314.5028" cy="-645.48" r="19.739" gradientTransform="matrix(0.9492 -0.3148 0.1351 0.4073 43.1056 430.2951)" gradientUnits="userSpaceOnUse">
							<stop  offset="0" style="stop-color:#D11317;stop-opacity:0"/>
							<stop  offset="0.2641" style="stop-color:#C81517;stop-opacity:0.2641"/>
							<stop  offset="0.6797" style="stop-color:#B21816;stop-opacity:0.6797"/>
							<stop  offset="1" style="stop-color:#9D1915"/>
						</radialGradient>
						<path fill="url(#SVGID_3_)" d="M270.129,63.46c-1.382-4.883-4.06-8.401-5.98-7.857c-1.082,0.306-1.691,1.837-1.771,3.99
							L237.897,69.95l4.775,11.285l23.286-9.852c1.085,1.428,2.236,2.175,3.198,1.903C271.076,72.742,271.511,68.343,270.129,63.46z
							"/>
					</g>
					<g>
						
							<linearGradient id="SVGID_4_" gradientUnits="userSpaceOnUse" x1="278.1224" y1="269.9169" x2="286.6907" y2="269.9169" gradientTransform="matrix(1 0 0 1 -41.92 -194.32)">
							<stop  offset="0.1398" style="stop-color:#531110"/>
							<stop  offset="1" style="stop-color:#8D1812"/>
						</linearGradient>
						<path fill="url(#SVGID_4_)" d="M243.963,74.613c1.382,4.883,0.947,9.282-0.973,9.825c-1.92,0.543-4.597-2.974-5.98-7.857
							c-1.382-4.883-0.947-9.282,0.973-9.825C239.903,66.212,242.581,69.73,243.963,74.613z"/>
						
							<linearGradient id="SVGID_5_" gradientUnits="userSpaceOnUse" x1="280.1548" y1="257.9095" x2="282.1703" y2="268.6585" gradientTransform="matrix(1 0 0 1 -41.92 -194.32)">
							<stop  offset="0" style="stop-color:#FFFFFF"/>
							<stop  offset="1" style="stop-color:#8D1812;stop-opacity:0"/>
						</linearGradient>
						<path fill="url(#SVGID_5_)" d="M242.272,81.903c-0.814-0.75-2.151-2.757-3.055-5.947s-0.816-5.6-0.517-6.666
							c0.814,0.75,2.152,2.757,3.055,5.947C242.659,78.427,242.573,80.837,242.272,81.903z"/>
					</g>
				</g>
			</g>
			<g>
				<g>
					<g>
						
							<radialGradient id="SVGID_6_" cx="326.3157" cy="275.4965" r="20.4779" gradientTransform="matrix(1 0 0 1 -41.92 -194.32)" gradientUnits="userSpaceOnUse">
							<stop  offset="0.1183" style="stop-color:#FFFFFF"/>
							<stop  offset="1" style="stop-color:#666364"/>
						</radialGradient>
						<path fill="url(#SVGID_6_)" d="M270.908,100.968c7.246-2.593,12.999-4.691,18.138-9.087l0.317-0.271l0.198-0.366
							c0.828-1.526,1.782-5.668,2.047-11.482c0.256-5.635-0.22-13.662-0.705-15.354l-0.172-0.603l-0.46-0.426
							c-0.86-0.799-1.962-1.616-3.609-1.616c-1.237,0-2.567,0.446-4.441,1.531l-3.437-5.167c2.327-1.365,5.086-2.578,7.967-2.578
							c2.954,0,5.697,1.277,8.387,3.905c2.525,2.466,2.869,13.71,2.714,19.309c-0.252,9.033-1.845,15.278-4.486,17.583
							c-6.062,5.293-13.004,7.827-20.354,10.458L270.908,100.968z"/>
					</g>
				</g>
				<g>
					<g>
						
							<linearGradient id="SVGID_7_" gradientUnits="userSpaceOnUse" x1="293.18" y1="258.3728" x2="326.2197" y2="258.3728" gradientTransform="matrix(1 0 0 1 -41.92 -194.32)">
							<stop  offset="0" style="stop-color:#E52621"/>
							<stop  offset="0.236" style="stop-color:#DB2420"/>
							<stop  offset="0.6083" style="stop-color:#C0201B"/>
							<stop  offset="1" style="stop-color:#9D1915"/>
						</linearGradient>
						<path fill="url(#SVGID_7_)" d="M283.492,59.122c-1.382-4.883-4.059-8.401-5.98-7.857c-1.082,0.306-1.691,1.837-1.771,3.99
							L251.26,65.612l4.775,11.284l23.286-9.852c1.085,1.428,2.236,2.175,3.198,1.903C284.439,68.403,284.874,64.004,283.492,59.122
							z"/>
						
							<radialGradient id="SVGID_8_" cx="327.8658" cy="-649.8187" r="19.739" gradientTransform="matrix(0.9492 -0.3148 0.1351 0.4073 44.3711 431.9302)" gradientUnits="userSpaceOnUse">
							<stop  offset="0" style="stop-color:#D11317;stop-opacity:0"/>
							<stop  offset="0.2641" style="stop-color:#C81517;stop-opacity:0.2641"/>
							<stop  offset="0.6797" style="stop-color:#B21816;stop-opacity:0.6797"/>
							<stop  offset="1" style="stop-color:#9D1915"/>
						</radialGradient>
						<path fill="url(#SVGID_8_)" d="M283.492,59.122c-1.382-4.883-4.059-8.401-5.98-7.857c-1.082,0.306-1.691,1.837-1.771,3.99
							L251.26,65.612l4.775,11.284l23.286-9.852c1.085,1.428,2.236,2.175,3.198,1.903C284.439,68.403,284.874,64.004,283.492,59.122
							z"/>
						
							<linearGradient id="SVGID_9_" gradientUnits="userSpaceOnUse" x1="309.3602" y1="256.5981" x2="310.5838" y2="259.5346" gradientTransform="matrix(1 0 0 1 -41.92 -194.32)">
							<stop  offset="0" style="stop-color:#F1F2F2"/>
							<stop  offset="0.0373" style="stop-color:#EFEBEB;stop-opacity:0.9432"/>
							<stop  offset="0.0961" style="stop-color:#E8D9D8;stop-opacity:0.8534"/>
							<stop  offset="0.1687" style="stop-color:#DDBABA;stop-opacity:0.7427"/>
							<stop  offset="0.213" style="stop-color:#D5A4A4;stop-opacity:0.6752"/>
							<stop  offset="0.3413" style="stop-color:#CD908B;stop-opacity:0.5636"/>
							<stop  offset="0.6138" style="stop-color:#BA5F52;stop-opacity:0.3265"/>
							<stop  offset="0.9892" style="stop-color:#9D1915;stop-opacity:0"/>
						</linearGradient>
						<path fill="url(#SVGID_9_)" d="M256.271,67.643L279.062,58c0.265,0.629,0.522,1.35,0.753,2.163
							c0.238,0.842,0.399,1.616,0.504,2.309l-22.252,9.415L256.271,67.643z"/>
					</g>
					<g>
						
							<linearGradient id="SVGID_10_" gradientUnits="userSpaceOnUse" x1="291.4854" y1="265.5779" x2="300.0536" y2="265.5779" gradientTransform="matrix(1 0 0 1 -41.92 -194.32)">
							<stop  offset="0.1398" style="stop-color:#531110"/>
							<stop  offset="1" style="stop-color:#8D1812"/>
						</linearGradient>
						<path fill="url(#SVGID_10_)" d="M257.326,70.274c1.382,4.883,0.947,9.282-0.973,9.825c-1.92,0.543-4.597-2.974-5.98-7.857
							c-1.382-4.883-0.947-9.282,0.973-9.825C253.266,61.873,255.944,65.391,257.326,70.274z"/>
						
							<linearGradient id="SVGID_11_" gradientUnits="userSpaceOnUse" x1="293.708" y1="254.5794" x2="295.7232" y2="265.328" gradientTransform="matrix(1 0 0 1 -41.92 -194.32)">
							<stop  offset="0" style="stop-color:#FFFFFF"/>
							<stop  offset="1" style="stop-color:#8D1812;stop-opacity:0"/>
						</linearGradient>
						<path fill="url(#SVGID_11_)" d="M255.636,77.564c-0.814-0.75-2.151-2.757-3.055-5.947c-0.903-3.19-0.816-5.6-0.517-6.666
							c0.814,0.75,2.151,2.757,3.055,5.947C256.022,74.089,255.936,76.499,255.636,77.564z"/>
					</g>
				</g>
			</g>
		</g>
		<g>
			
				<linearGradient id="SVGID_12_" gradientUnits="userSpaceOnUse" x1="312.5357" y1="297.574" x2="325.9471" y2="294.2302" gradientTransform="matrix(1 0 0 1 -41.92 -194.32)">
				<stop  offset="0" style="stop-color:#8D8B8C"/>
				<stop  offset="0.1158" style="stop-color:#AEACAC"/>
				<stop  offset="0.2527" style="stop-color:#D1D0D0"/>
				<stop  offset="0.3661" style="stop-color:#E8E7E7"/>
				<stop  offset="0.4409" style="stop-color:#F0F0F0"/>
				<stop  offset="0.685" style="stop-color:#D3D2D2"/>
				<stop  offset="1" style="stop-color:#AAAAAA"/>
			</linearGradient>
			<path fill="url(#SVGID_12_)" d="M285.072,101.393c0.917,2.957-0.752,6.126-3.708,7.043l-4.075,1.264
				c-2.956,0.917-6.126-0.751-7.043-3.708l-1.263-4.074c-0.917-2.956,0.751-6.126,3.708-7.043l4.074-1.264
				c2.957-0.917,6.126,0.751,7.043,3.708L285.072,101.393z"/>
			
				<radialGradient id="SVGID_13_" cx="318.9474" cy="295.9755" r="7.7343" gradientTransform="matrix(1 0 0 1 -41.92 -194.32)" gradientUnits="userSpaceOnUse">
				<stop  offset="0" style="stop-color:#FFFFFF;stop-opacity:0"/>
				<stop  offset="0.13" style="stop-color:#F3F3F3;stop-opacity:0.13"/>
				<stop  offset="0.3659" style="stop-color:#D4D3D3;stop-opacity:0.3659"/>
				<stop  offset="0.6807" style="stop-color:#A19F9F;stop-opacity:0.6807"/>
				<stop  offset="1" style="stop-color:#666364"/>
			</radialGradient>
			<path opacity="0.5" fill="url(#SVGID_13_)" enable-background="new    " d="M285.072,101.393
				c0.917,2.957-0.752,6.126-3.708,7.043l-4.075,1.264c-2.956,0.917-6.126-0.751-7.043-3.708l-1.263-4.074
				c-0.917-2.956,0.751-6.126,3.708-7.043l4.074-1.264c2.957-0.917,6.126,0.751,7.043,3.708L285.072,101.393z"/>
		</g>
	</g>
</g>
<g>
	<g>
		<g>
			
				<radialGradient id="SVGID_14_" cx="593.9454" cy="311.0381" r="29.6729" gradientTransform="matrix(1 0 0 1 -41.92 -194.32)" gradientUnits="userSpaceOnUse">
				<stop  offset="0" style="stop-color:#2A292A"/>
				<stop  offset="0.2419" style="stop-color:#2C2C2C"/>
				<stop  offset="1" style="stop-color:#010202"/>
			</radialGradient>
			<path fill="url(#SVGID_14_)" d="M585.169,125.538c2.687,10.371-41.43,20.561-53.523,21.374
				c-6.512,0.438-21.655-7.671-24.383-15.1c-0.739-2.014-0.452-4.424,1.671-8.418c2.794-5.257,8.041-9.513,14.708-11.241
				C535.375,109.113,582.482,115.167,585.169,125.538z"/>
			<g>
				<g>
					<g>
						<path fill="#FFFFFF" fill-opacity="0" d="M517.6,119.983c-0.522-1.455,2.404-3.927,7.806-5.588
							c5.373-1.732,13.233-2.437,21.665-1.221c2.089,0.372,4.134,0.739,6.067,1.242c1.918,0.557,3.778,1.059,5.489,1.709
							c1.705,0.668,3.306,1.341,4.782,2.007c1.448,0.74,2.765,1.489,3.947,2.2c0.59,0.357,1.146,0.707,1.664,1.05
							c0.508,0.366,0.972,0.739,1.403,1.092c0.859,0.71,1.566,1.375,2.108,1.984c1.083,1.219,1.502,2.212,1.165,2.907
							c-0.337,0.695-1.395,1.028-2.98,1.052c-0.793,0.012-1.718-0.054-2.754-0.192c-0.519-0.067-1.062-0.162-1.637-0.257
							c-0.584-0.071-1.194-0.158-1.827-0.26c-1.267-0.201-2.624-0.477-4.064-0.789c-1.462-0.236-3.001-0.526-4.601-0.871
							c-1.604-0.326-3.302-0.56-5.03-0.923c-1.738-0.286-3.537-0.582-5.379-0.885c-7.367-1.051-14.073-1.628-19.062-1.992
							C521.366,121.818,518.109,121.44,517.6,119.983z"/>
						<path opacity="0.1" fill="#FFFFFF" enable-background="new    " d="M520.099,119.197c-0.335-1.321,2.332-3.363,7.222-4.728
							c4.856-1.38,11.907-1.997,19.481-0.887c7.587,1.069,14.062,3.698,18.337,6.215c4.315,2.499,6.425,5.008,5.861,6.243
							c-0.59,1.301-3.693,1.125-8.294,0.469c-4.592-0.687-10.651-1.996-17.367-2.938c-6.709-0.977-12.803-1.503-17.349-1.994
							C523.455,121.068,520.439,120.578,520.099,119.197z"/>
						<path opacity="0.2" fill="#FFFFFF" enable-background="new    " d="M522.65,118.58c-0.23-1.199,2.207-2.885,6.572-3.989
							c4.34-1.119,10.59-1.587,17.313-0.601c6.734,0.956,12.509,3.197,16.393,5.29c3.83,2.288,5.873,4.239,5.37,5.433
							c-0.463,1.096-3.325,1.251-7.406,0.6c-4.152-0.462-9.599-1.554-15.64-2.41c-6.036-0.883-11.517-1.422-15.599-1.958
							C525.58,120.391,522.881,119.822,522.65,118.58z"/>
						<path opacity="0.3" fill="#FFFFFF" enable-background="new    " d="M525.229,118.079c-0.072-0.541,0.433-1.131,1.441-1.736
							c1.01-0.533,2.522-1.171,4.437-1.568c3.819-0.892,9.282-1.253,15.163-0.377c1.475,0.178,2.884,0.522,4.252,0.804
							c1.371,0.272,2.661,0.667,3.878,1.072c1.217,0.406,2.373,0.784,3.424,1.225c1.043,0.467,2.002,0.93,2.863,1.382
							c0.86,0.454,1.627,0.885,2.276,1.319c0.638,0.464,1.17,0.903,1.583,1.31c0.827,0.815,1.18,1.504,0.986,2.014
							c-0.195,0.51-0.917,0.795-2.036,0.881c-0.559,0.043-1.218,0.036-1.962-0.019c-0.753-0.025-1.599-0.068-2.514-0.165
							c-0.915-0.093-1.902-0.227-2.948-0.4c-1.053-0.147-2.181-0.264-3.348-0.453c-1.167-0.188-2.383-0.408-3.656-0.553
							c-1.269-0.156-2.566-0.425-3.908-0.584c-5.35-0.798-10.21-1.313-13.814-1.867c-1.805-0.324-3.285-0.546-4.352-0.96
							C525.937,119.064,525.3,118.621,525.229,118.079z"/>
						<path opacity="0.4" fill="#FFFFFF" enable-background="new    " d="M527.829,117.684c-0.091-0.928,1.837-2.007,5.15-2.696
							c3.295-0.632,7.979-0.941,13.027-0.182c1.271,0.123,2.478,0.436,3.654,0.673c1.169,0.272,2.306,0.493,3.347,0.864
							c1.049,0.342,2.037,0.689,2.952,1.038c0.455,0.18,0.894,0.354,1.317,0.522c0.415,0.189,0.806,0.393,1.179,0.585
							c2.982,1.555,4.615,2.95,4.29,3.877c-0.299,0.85-2.462,1.08-5.619,0.76c-0.393-0.046-0.804-0.093-1.233-0.143
							c-0.43-0.039-0.876-0.079-1.338-0.121c-0.919-0.096-1.891-0.222-2.905-0.38c-1.009-0.187-2.087-0.259-3.185-0.426
							c-1.104-0.131-2.229-0.383-3.4-0.492c-4.653-0.702-8.876-1.144-11.998-1.752C529.951,119.259,527.921,118.629,527.829,117.684
							z"/>
						<path opacity="0.5" fill="#FFFFFF" enable-background="new    " d="M530.446,117.382c-0.021-0.395,0.378-0.786,1.133-1.156
							c0.755-0.361,1.867-0.747,3.256-0.961c1.39-0.243,3.059-0.444,4.909-0.43c0.924,0.002,1.903-0.029,2.904,0.059
							c1.002,0.083,2.038,0.19,3.097,0.32c1.063,0.107,2.081,0.329,3.062,0.544c0.981,0.216,1.923,0.444,2.814,0.679
							c1.768,0.531,3.319,1.154,4.598,1.721c1.287,0.544,2.243,1.24,2.882,1.771c0.633,0.553,0.921,1.035,0.803,1.413
							c-0.515,1.546-7.058,0.568-14.937-0.45c-0.989-0.121-1.952-0.259-2.881-0.412c-0.929-0.158-1.832-0.233-2.689-0.376
							c-1.715-0.295-3.268-0.512-4.584-0.787c-1.316-0.304-2.393-0.538-3.151-0.862
							C530.905,118.139,530.467,117.777,530.446,117.382z"/>
						<path opacity="0.6" fill="#FFFFFF" enable-background="new    " d="M533.076,117.182c-0.067-1.273,5.549-2.497,12.41-1.556
							c1.716,0.167,3.303,0.609,4.748,0.964c1.448,0.35,2.706,0.843,3.743,1.314c2.076,0.936,3.25,1.807,3.07,2.45
							c-0.165,0.589-1.634,0.841-3.822,0.741c-1.094-0.053-2.369-0.202-3.79-0.308c-1.419-0.11-2.944-0.411-4.566-0.565
							C538.439,119.335,533.129,118.466,533.076,117.182z"/>
						<path opacity="0.7" fill="#FFFFFF" enable-background="new    " d="M535.713,117.09c-0.01-0.967,4.292-1.793,9.515-1.054
							c1.308,0.133,2.53,0.411,3.63,0.707c1.101,0.29,2.08,0.599,2.888,0.909c1.595,0.714,2.507,1.392,2.391,1.867
							c-0.116,0.476-1.228,0.662-2.907,0.587c-0.85,0.009-1.845-0.038-2.936-0.144c-1.086-0.126-2.278-0.264-3.53-0.41
							C539.793,118.844,535.714,118.081,535.713,117.09z"/>
						<path opacity="0.8" fill="#FFFFFF" enable-background="new    " d="M538.356,117.064c0.016-0.338,0.759-0.596,1.961-0.738
							c1.204-0.174,2.853-0.112,4.656,0.118c1.811,0.181,3.4,0.664,4.527,1.082c1.127,0.43,1.781,0.86,1.712,1.191
							c-0.069,0.332-0.843,0.503-2.026,0.515c-1.186,0.023-2.771-0.181-4.528-0.355c-1.751-0.223-3.322-0.554-4.468-0.821
							C539.047,117.758,538.34,117.403,538.356,117.064z"/>
						<path opacity="0.9" fill="#FFFFFF" enable-background="new    " d="M541.001,117.134c0.015-0.183,0.44-0.34,1.114-0.397
							c0.672-0.042,1.595-0.007,2.604,0.117c2.029,0.209,3.59,0.858,3.526,1.217c-0.068,0.38-1.708,0.34-3.698,0.136
							c-0.993-0.122-1.884-0.308-2.525-0.511C541.38,117.509,540.986,117.326,541.001,117.134z"/>
						
							<ellipse transform="matrix(0.9926 0.1217 -0.1217 0.9926 18.3352 -65.382)" fill="#FFFFFF" cx="544.427" cy="117.413" rx="0.814" ry="0.136"/>
					</g>
				</g>
			</g>
		</g>
	</g>
</g>
<g>
	<g>
		<g>
			<g>
				<g>
					<g>
						
							<linearGradient id="SVGID_15_" gradientUnits="userSpaceOnUse" x1="1164.0701" y1="386.5121" x2="1154.7837" y2="537.6293" gradientTransform="matrix(1 0 0 1 -41.92 -194.32)">
							<stop  offset="0.2312" style="stop-color:#010202"/>
							<stop  offset="1" style="stop-color:#161515"/>
						</linearGradient>
						<path fill="url(#SVGID_15_)" d="M1195.546,267.7c0,43.098-34.938,78.036-78.035,78.036c-43.099,0-78.037-34.938-78.037-78.036
							s34.938-78.036,78.037-78.036C1160.608,189.664,1195.546,224.602,1195.546,267.7z M1176.478,267.7
							c0-32.516-26.453-58.969-58.968-58.969s-58.969,26.453-58.969,58.969s26.454,58.969,58.969,58.969
							S1176.478,300.215,1176.478,267.7z"/>
						<g>
							
								<linearGradient id="SVGID_16_" gradientUnits="userSpaceOnUse" x1="1164.0701" y1="386.5121" x2="1154.7837" y2="537.6293" gradientTransform="matrix(1 0 0 1 -41.92 -194.32)">
								<stop  offset="0.2312" style="stop-color:#010202"/>
								<stop  offset="0.6544" style="stop-color:#1B1C1E"/>
								<stop  offset="1" style="stop-color:#363434"/>
							</linearGradient>
							<path fill="url(#SVGID_16_)" d="M1195.546,267.7c0,43.098-34.938,78.036-78.035,78.036
								c-43.099,0-78.037-34.938-78.037-78.036s34.938-78.036,78.037-78.036C1160.608,189.664,1195.546,224.602,1195.546,267.7z
								 M1176.478,267.7c0-32.516-26.453-58.969-58.968-58.969s-58.969,26.453-58.969,58.969s26.454,58.969,58.969,58.969
								S1176.478,300.215,1176.478,267.7z"/>
						</g>
					</g>
					<g>
						<g>
							<g>
								<path fill="#FFFFFF" fill-opacity="0" d="M1181.318,287.74c0.62,0.286,0.295,2.566-1.154,6.304
									c-1.453,3.731-4.02,8.937-8.039,14.904c-4.026,5.941-9.515,12.706-17.079,18.899c-3.783,3.079-8.103,5.986-12.979,8.368
									c-4.871,2.372-10.311,4.221-16.089,5.092c-5.77,0.92-11.548,0.773-16.931-0.081c-5.387-0.893-10.389-2.48-14.887-4.433
									c-4.504-1.954-8.513-4.263-12.073-6.635c-1.8-1.163-3.433-2.414-5.02-3.588c-1.533-1.239-3.029-2.394-4.362-3.597
									c-5.4-4.742-9.237-9.056-11.649-12.226c-2.393-3.191-3.408-5.206-2.922-5.672c0.503-0.483,2.461,0.623,5.619,2.899
									c3.174,2.256,7.603,5.644,13.229,9.423c1.393,0.965,2.912,1.872,4.453,2.87c1.583,0.926,3.198,1.935,4.932,2.849
									c3.436,1.879,7.182,3.692,11.223,5.186c4.038,1.496,8.369,2.665,12.894,3.294c4.524,0.589,9.245,0.646,13.98-0.111
									c9.501-1.441,18.005-5.789,24.987-10.886c7.009-5.118,12.632-10.876,17.107-15.939c4.476-5.084,7.83-9.51,10.247-12.534
									C1179.22,289.093,1180.693,287.448,1181.318,287.74z"/>
								<path opacity="0.1" fill="#FFFFFF" enable-background="new    " d="M1178.111,293.926c0.527,0.305,0.089,2.31-1.392,5.605
									c-1.488,3.285-4.016,7.867-7.87,13.093c-3.854,5.207-9.051,11.102-16.044,16.459c-3.499,2.661-7.446,5.179-11.869,7.234
									c-1.09,0.541-2.246,0.981-3.388,1.469c-1.173,0.419-2.337,0.892-3.557,1.246c-2.41,0.791-4.936,1.363-7.512,1.807
									c-5.165,0.844-10.333,0.916-15.196,0.286c-4.87-0.603-9.435-1.82-13.575-3.378c-8.299-3.136-14.905-7.466-20.02-11.445
									c-5.121-4.004-8.738-7.775-11.064-10.519c-2.317-2.758-3.295-4.557-2.871-5.004c0.429-0.451,2.218,0.49,5.182,2.387
									c2.969,1.883,7.078,4.792,12.347,7.911c5.261,3.103,11.671,6.507,19.128,8.861c7.43,2.343,15.948,3.522,24.611,2.052
									c8.664-1.427,16.467-5.176,22.946-9.605c6.503-4.435,11.791-9.43,16.027-13.84c4.241-4.423,7.457-8.284,9.791-10.904
									C1176.112,295.011,1177.567,293.61,1178.111,293.926z"/>
								<path opacity="0.2" fill="#FFFFFF" enable-background="new    " d="M1174.507,299.898c0.457,0.301-0.042,2.06-1.512,4.926
									c-1.48,2.856-3.928,6.831-7.578,11.329c-3.654,4.477-8.495,9.544-14.888,14.089c-3.194,2.264-6.768,4.391-10.714,6.168
									c-3.955,1.752-8.281,3.141-12.845,3.96c-4.57,0.783-9.135,0.947-13.472,0.579c-4.341-0.363-8.447-1.25-12.205-2.439
									c-7.534-2.386-13.678-5.863-18.432-9.171c-4.755-3.332-8.232-6.443-10.415-8.81c-2.211-2.337-3.152-3.915-2.81-4.317
									c0.373-0.439,1.997,0.337,4.738,1.872c2.714,1.57,6.572,3.879,11.411,6.414c4.839,2.519,10.748,5.182,17.537,6.927
									c6.769,1.769,14.451,2.421,22.266,1.067c3.898-0.703,7.627-1.841,11.118-3.275c3.483-1.46,6.725-3.211,9.709-5.09
									c5.972-3.767,10.87-8.046,14.842-11.805c3.971-3.776,7.006-7.087,9.213-9.318
									C1172.668,300.764,1174.042,299.591,1174.507,299.898z"/>
								<path opacity="0.3" fill="#FFFFFF" enable-background="new    " d="M1170.568,305.66c0.386,0.288-0.141,1.807-1.573,4.251
									c-1.433,2.44-3.777,5.808-7.172,9.605c-3.404,3.775-7.866,8.011-13.604,11.803c-5.712,3.781-12.793,7.076-20.772,8.559
									c-7.972,1.523-15.857,0.922-22.54-0.805c-3.356-0.845-6.45-1.934-9.225-3.167c-2.798-1.19-5.268-2.546-7.472-3.839
									c-8.739-5.345-12.914-10.076-12.382-10.764c0.626-0.857,5.865,2.423,14.664,6.348c2.214,0.941,4.634,1.954,7.291,2.818
									c2.641,0.91,5.508,1.694,8.548,2.286c6.068,1.215,12.895,1.536,19.832,0.213c6.941-1.291,13.252-3.994,18.63-7.144
									c5.391-3.153,9.882-6.71,13.543-9.849c3.654-3.159,6.485-5.922,8.53-7.782
									C1168.91,306.329,1170.177,305.367,1170.568,305.66z"/>
								<path opacity="0.4" fill="#FFFFFF" enable-background="new    " d="M1166.292,311.184c0.318,0.269-0.222,1.547-1.58,3.58
									c-1.36,2.029-3.554,4.808-6.648,7.927c-3.105,3.098-7.133,6.54-12.183,9.62c-5.023,3.09-11.149,5.741-17.96,7.076
									c-6.808,1.343-13.544,1.18-19.378,0.037c-5.862-1.099-10.848-3.044-14.789-5.019c-7.89-4.011-11.792-7.831-11.381-8.452
									c0.486-0.781,5.2,1.717,13.054,4.506c3.925,1.375,8.666,2.75,14.011,3.453c5.331,0.746,11.27,0.717,17.315-0.472
									c6.046-1.187,11.588-3.389,16.349-5.973c4.777-2.568,8.816-5.439,12.124-7.987c3.297-2.567,5.883-4.804,7.742-6.305
									C1164.825,311.672,1165.972,310.913,1166.292,311.184z"/>
								<path opacity="0.5" fill="#FFFFFF" enable-background="new    " d="M1161.663,316.429c0.249,0.242-0.281,1.281-1.533,2.914
									c-1.248,1.635-3.247,3.842-5.997,6.307c-2.76,2.445-6.294,5.144-10.62,7.562c-4.32,2.405-9.452,4.53-15.13,5.686
									c-2.829,0.604-5.652,0.92-8.377,1.002c-2.726,0.119-5.356-0.058-7.83-0.347c-4.952-0.63-9.256-1.903-12.703-3.271
									c-6.914-2.766-10.478-5.686-10.179-6.236c0.348-0.69,4.482,1.061,11.296,2.814c3.402,0.869,7.485,1.694,12.044,2.025
									c2.279,0.14,4.673,0.209,7.141,0.034c2.469-0.138,5.013-0.456,7.577-1.005c5.141-1.046,9.86-2.845,13.984-4.856
									c4.125-2.021,7.661-4.257,10.575-6.239C1157.712,318.802,1161.122,315.898,1161.663,316.429z"/>
								<path opacity="0.6" fill="#FFFFFF" enable-background="new    " d="M1156.659,321.332c0.354,0.392-1.934,3.305-6.632,7.027
									c-2.36,1.834-5.333,3.857-8.909,5.655c-3.57,1.792-7.724,3.417-12.282,4.394c-4.555,0.98-9.027,1.269-13.043,1.034
									c-4.021-0.226-7.574-0.964-10.46-1.804c-2.897-0.823-5.126-1.793-6.614-2.558c-1.496-0.749-2.22-1.389-2.125-1.635
									c0.215-0.566,3.715,0.447,9.374,1.352c2.827,0.446,6.203,0.845,9.946,0.853c3.741,0.016,7.839-0.363,12.045-1.266
									c8.43-1.83,15.502-5.489,20.419-8.426C1153.302,322.991,1156.26,320.877,1156.659,321.332z"/>
								<path opacity="0.7" fill="#FFFFFF" enable-background="new    " d="M1151.257,325.815c0.247,0.328-1.716,2.378-5.503,4.968
									c-3.79,2.535-9.524,5.572-16.469,7.136c-6.934,1.598-13.479,1.325-17.989,0.484c-4.539-0.836-7.14-2.022-7.039-2.401
									c0.115-0.462,2.881-0.056,7.296,0.188c4.406,0.251,10.516,0.156,17.031-1.343c6.524-1.467,12.084-4.015,16.042-5.986
									C1148.569,326.844,1150.986,325.446,1151.257,325.815z"/>
								<path opacity="0.8" fill="#FFFFFF" enable-background="new    " d="M1145.444,329.78c0.079,0.133-0.263,0.507-0.973,1.045
									c-0.698,0.559-1.774,1.26-3.152,2.058c-2.754,1.584-6.834,3.381-11.6,4.525c-4.765,1.159-9.248,1.325-12.427,1.112
									c-3.192-0.216-5.107-0.741-5.073-1.035c0.051-0.649,7.836,0.032,16.994-2.197
									C1138.382,333.125,1145.109,329.185,1145.444,329.78z"/>
								<path opacity="0.9" fill="#FFFFFF" enable-background="new    " d="M1139.225,333.111c0.152,0.291-3.749,2.478-9.079,3.788
									c-1.318,0.363-2.612,0.553-3.776,0.76c-1.178,0.132-2.233,0.289-3.13,0.304c-0.895,0.031-1.619,0.038-2.12,0.009
									c-0.502-0.05-0.781-0.117-0.785-0.201c-0.005-0.083,0.265-0.175,0.752-0.269c0.486-0.115,1.189-0.252,2.058-0.391
									c0.87-0.122,1.892-0.365,3.034-0.553c1.129-0.264,2.385-0.481,3.673-0.836
									C1135.041,334.451,1139.085,332.802,1139.225,333.111z"/>
								<path fill="#FFFFFF" d="M1132.633,335.683c0.016,0.051-0.893,0.433-2.068,0.709c-1.169,0.311-2.137,0.469-2.153,0.392
									c-0.011-0.053,0.929-0.317,2.092-0.626C1131.673,335.884,1132.61,335.607,1132.633,335.683z"/>
							</g>
						</g>
					</g>
				</g>
			</g>
		</g>
	</g>
</g>
<g>
	<g>
		<g>
			<g>
				<g>
					
						<linearGradient id="SVGID_17_" gradientUnits="userSpaceOnUse" x1="1472.9521" y1="429.5359" x2="1613.604" y2="429.5359" gradientTransform="matrix(1 0 0 1 -41.92 -194.32)">
						<stop  offset="0" style="stop-color:#E52621"/>
						<stop  offset="0.236" style="stop-color:#DB2420"/>
						<stop  offset="0.6083" style="stop-color:#C0201B"/>
						<stop  offset="1" style="stop-color:#9D1915"/>
					</linearGradient>
					<path fill="url(#SVGID_17_)" d="M1571.684,200.17c-6.619,1.526-13.176,3.982-19.219,7.206
						c-21.157-12.639-49.251-11.37-71.913,3.336c-21.473,13.936-33.918,37.055-32.659,60.532
						c-5.446,4.576-10.256,10.005-14.608,16.495c-3.895-15.1-2.724-31.719,3.395-47.245c6.846-17.374,19.104-32.163,35.445-42.768
						c16.364-10.621,35.652-15.916,54.311-14.913C1543.537,183.734,1559.46,189.866,1571.684,200.17z"/>
				</g>
				
					<radialGradient id="SVGID_18_" cx="1543.2781" cy="756.8993" r="82.8081" gradientTransform="matrix(1 0 0 0.3725 -41.92 -46.7292)" gradientUnits="userSpaceOnUse">
					<stop  offset="0" style="stop-color:#D11317;stop-opacity:0"/>
					<stop  offset="0.2641" style="stop-color:#C81517;stop-opacity:0.2641"/>
					<stop  offset="0.6797" style="stop-color:#B21816;stop-opacity:0.6797"/>
					<stop  offset="1" style="stop-color:#9D1915"/>
				</radialGradient>
				<path opacity="0.5" fill="url(#SVGID_18_)" enable-background="new    " d="M1571.684,200.17
					c-6.619,1.526-13.176,3.982-19.219,7.206c-21.157-12.639-49.251-11.37-71.913,3.336c-21.473,13.936-33.918,37.055-32.659,60.532
					c-5.446,4.576-10.256,10.005-14.608,16.495c-3.895-15.1-2.724-31.719,3.395-47.245c6.846-17.374,19.104-32.163,35.445-42.768
					c16.364-10.621,35.652-15.916,54.311-14.913C1543.537,183.734,1559.46,189.866,1571.684,200.17z"/>
				
					<linearGradient id="SVGID_19_" gradientUnits="userSpaceOnUse" x1="1485.5651" y1="396.2011" x2="1509.9384" y2="411.972" gradientTransform="matrix(1 0 0 1 -41.92 -194.32)">
					<stop  offset="0" style="stop-color:#F1F2F2"/>
					<stop  offset="0.0868" style="stop-color:#EEEAE8;stop-opacity:0.9123"/>
					<stop  offset="0.2239" style="stop-color:#E6D6CD;stop-opacity:0.7736"/>
					<stop  offset="0.3943" style="stop-color:#D9B4A4;stop-opacity:0.6014"/>
					<stop  offset="0.5912" style="stop-color:#C7856E;stop-opacity:0.4024"/>
					<stop  offset="0.8075" style="stop-color:#B14C37;stop-opacity:0.1837"/>
					<stop  offset="0.9892" style="stop-color:#9D1915;stop-opacity:0"/>
				</linearGradient>
				<path fill="url(#SVGID_19_)" d="M1435.952,276.67c-1.128-11.361,0.563-23.307,4.976-34.5
					c6.494-16.483,18.142-30.526,33.682-40.612c14.206-9.22,31.014-14.297,47.328-14.297c1.417,0,2.849,0.038,4.253,0.114
					c12.829,0.689,25.087,4.545,35.338,11.017c-3.05,1.086-6.04,2.354-8.952,3.795c-9.686-5.263-20.815-8.034-32.354-8.034
					c-14.745,0-29.323,4.402-42.157,12.73c-22.081,14.331-35.266,38.05-34.813,62.342
					C1440.68,271.518,1438.256,273.989,1435.952,276.67z"/>
				
					<linearGradient id="SVGID_20_" gradientUnits="userSpaceOnUse" x1="1555.2974" y1="356.7536" x2="1548.436" y2="388.1198" gradientTransform="matrix(1 0 0 1 -41.92 -194.32)">
					<stop  offset="0" style="stop-color:#F1F2F2"/>
					<stop  offset="0.0868" style="stop-color:#EEEAE8;stop-opacity:0.9123"/>
					<stop  offset="0.2239" style="stop-color:#E6D6CD;stop-opacity:0.7736"/>
					<stop  offset="0.3943" style="stop-color:#D9B4A4;stop-opacity:0.6014"/>
					<stop  offset="0.5912" style="stop-color:#C7856E;stop-opacity:0.4024"/>
					<stop  offset="0.8075" style="stop-color:#B14C37;stop-opacity:0.1837"/>
					<stop  offset="0.9892" style="stop-color:#9D1915;stop-opacity:0"/>
				</linearGradient>
				<path fill="url(#SVGID_20_)" d="M1435.952,276.67c-1.128-11.361,0.563-23.307,4.976-34.5
					c6.494-16.483,18.142-30.526,33.682-40.612c14.206-9.22,31.014-14.297,47.328-14.297c1.417,0,2.849,0.038,4.253,0.114
					c12.829,0.689,25.087,4.545,35.338,11.017c-3.05,1.086-6.04,2.354-8.952,3.795c-9.686-5.263-20.815-8.034-32.354-8.034
					c-14.745,0-29.323,4.402-42.157,12.73c-22.081,14.331-35.266,38.05-34.813,62.342
					C1440.68,271.518,1438.256,273.989,1435.952,276.67z"/>
			</g>
		</g>
	</g>
</g>
<g>
	<g>
		<g>
			<g>
				<g>
					
						<linearGradient id="SVGID_21_" gradientUnits="userSpaceOnUse" x1="1646.999" y1="403.4255" x2="1810.764" y2="403.4255" gradientTransform="matrix(1 0 0 1 -41.92 -194.32)">
						<stop  offset="0" style="stop-color:#E52621"/>
						<stop  offset="0.236" style="stop-color:#DB2420"/>
						<stop  offset="0.6083" style="stop-color:#C0201B"/>
						<stop  offset="1" style="stop-color:#9D1915"/>
					</linearGradient>
					<path fill="url(#SVGID_21_)" d="M1768.844,237.23c-6.382-2.323-13.219-3.832-20.044-4.418
						c-10.866-22.119-35.124-36.35-62.139-36.35c-25.599,0-48.623,12.618-60.348,32.997c-7.059,0.874-14.049,2.809-21.234,5.883
						c4.954-14.786,14.983-28.089,28.568-37.781c15.201-10.847,33.534-16.58,53.014-16.58c19.509,0,38.572,6.058,53.677,17.058
						C1754.182,208.12,1764.2,221.932,1768.844,237.23z"/>
				</g>
				
					<radialGradient id="SVGID_22_" cx="1728.8815" cy="730.7889" r="81.68" gradientTransform="matrix(1 0 0 0.3725 -41.92 -63.1133)" gradientUnits="userSpaceOnUse">
					<stop  offset="0" style="stop-color:#D11317;stop-opacity:0"/>
					<stop  offset="0.2641" style="stop-color:#C81517;stop-opacity:0.2641"/>
					<stop  offset="0.6797" style="stop-color:#B21816;stop-opacity:0.6797"/>
					<stop  offset="1" style="stop-color:#9D1915"/>
				</radialGradient>
				<path opacity="0.5" fill="url(#SVGID_22_)" enable-background="new    " d="M1768.844,237.23
					c-6.382-2.323-13.219-3.832-20.044-4.418c-10.866-22.119-35.124-36.35-62.139-36.35c-25.599,0-48.623,12.618-60.348,32.997
					c-7.059,0.874-14.049,2.809-21.234,5.883c4.954-14.786,14.983-28.089,28.568-37.781c15.201-10.847,33.534-16.58,53.014-16.58
					c19.509,0,38.572,6.058,53.677,17.058C1754.182,208.12,1764.2,221.932,1768.844,237.23z"/>
				
					<linearGradient id="SVGID_23_" gradientUnits="userSpaceOnUse" x1="1732.4673" y1="374.7382" x2="1731.5847" y2="387.9772" gradientTransform="matrix(1 0 0 1 -41.92 -194.32)">
					<stop  offset="0" style="stop-color:#F1F2F2"/>
					<stop  offset="0.0868" style="stop-color:#EEEAE8;stop-opacity:0.9123"/>
					<stop  offset="0.2239" style="stop-color:#E6D6CD;stop-opacity:0.7736"/>
					<stop  offset="0.3943" style="stop-color:#D9B4A4;stop-opacity:0.6014"/>
					<stop  offset="0.5912" style="stop-color:#C7856E;stop-opacity:0.4024"/>
					<stop  offset="0.8075" style="stop-color:#B14C37;stop-opacity:0.1837"/>
					<stop  offset="0.9892" style="stop-color:#9D1915;stop-opacity:0"/>
				</linearGradient>
				<path fill="url(#SVGID_23_)" d="M1761.294,230.209c-3.15-0.749-6.348-1.313-9.576-1.69
					c-12.125-22.33-37.362-36.622-65.059-36.622c-26.325,0-50.296,12.72-63.141,33.342c-3.406,0.523-6.784,1.276-10.176,2.271
					c5.238-10.144,13.159-19.242,22.955-26.231c14.423-10.292,31.838-15.731,50.362-15.731c18.55,0,36.659,5.747,50.99,16.183
					C1748.036,209.292,1756.219,219.2,1761.294,230.209z"/>
			</g>
		</g>
	</g>
</g>
<g>
	<g>
		<g>
			<g>
				<g>
					<g>
						
							<linearGradient id="SVGID_24_" gradientUnits="userSpaceOnUse" x1="2231.0505" y1="444.4724" x2="2235.0903" y2="447.5021" gradientTransform="matrix(1 0 0 1 -41.92 -194.32)">
							<stop  offset="0" style="stop-color:#666364"/>
							<stop  offset="0.0436" style="stop-color:#747071"/>
							<stop  offset="0.1963" style="stop-color:#A5A1A2"/>
							<stop  offset="0.3315" style="stop-color:#CDCACB"/>
							<stop  offset="0.4427" style="stop-color:#E7E6E6"/>
							<stop  offset="0.5161" style="stop-color:#F1F1F1"/>
							<stop  offset="0.6268" style="stop-color:#D2D0D1"/>
							<stop  offset="0.8588" style="stop-color:#8D898A"/>
							<stop  offset="1" style="stop-color:#666364"/>
						</linearGradient>
						<path fill="url(#SVGID_24_)" d="M2196.539,248.554l-8.071,0.577l-0.031-0.454l-3.041,5.829
							c2.302,0.763,4.453,1.811,6.423,3.097L2196.539,248.554z"/>
						
							<radialGradient id="SVGID_25_" cx="2232.8875" cy="447.3985" r="3.6707" gradientTransform="matrix(1 0 0 1 -41.92 -194.32)" gradientUnits="userSpaceOnUse">
							<stop  offset="0" style="stop-color:#FFFFFF;stop-opacity:0"/>
							<stop  offset="0.1853" style="stop-color:#FCFCFC;stop-opacity:0.1853"/>
							<stop  offset="0.3452" style="stop-color:#F1F1F1;stop-opacity:0.3452"/>
							<stop  offset="0.4956" style="stop-color:#E0DFDF;stop-opacity:0.4956"/>
							<stop  offset="0.6403" style="stop-color:#C7C6C7;stop-opacity:0.6403"/>
							<stop  offset="0.7809" style="stop-color:#A8A6A7;stop-opacity:0.7809"/>
							<stop  offset="0.9165" style="stop-color:#817F80;stop-opacity:0.9165"/>
							<stop  offset="1" style="stop-color:#666364"/>
						</radialGradient>
						<path fill="url(#SVGID_25_)" d="M2196.539,248.554l-8.071,0.577l-0.031-0.454l-3.041,5.829
							c2.302,0.763,4.453,1.811,6.423,3.097L2196.539,248.554z"/>
					</g>
				</g>
				<g>
					
						<linearGradient id="SVGID_26_" gradientUnits="userSpaceOnUse" x1="2243.1963" y1="424.5046" x2="2240.6411" y2="442.3882" gradientTransform="matrix(1 0 0 1 -41.92 -194.32)">
						<stop  offset="0.0376" style="stop-color:#312E2E"/>
						<stop  offset="1" style="stop-color:#161515"/>
					</linearGradient>
					<polygon fill="url(#SVGID_26_)" points="2196.539,248.554 2210.995,247.521 2210.319,237.592 2187.792,239.202 
						2188.437,248.677 2188.468,249.131 					"/>
					
						<radialGradient id="SVGID_27_" cx="2241.3135" cy="595.8425" r="11.4622" gradientTransform="matrix(1 0 0 0.5513 -41.92 -85.1264)" gradientUnits="userSpaceOnUse">
						<stop  offset="0.0484" style="stop-color:#312E2E;stop-opacity:0"/>
						<stop  offset="1" style="stop-color:#161515"/>
					</radialGradient>
					<polygon fill="url(#SVGID_27_)" points="2196.539,248.554 2210.995,247.521 2210.319,237.592 2187.792,239.202 
						2188.437,248.677 2188.468,249.131 					"/>
					
						<linearGradient id="SVGID_28_" gradientUnits="userSpaceOnUse" x1="2241.0781" y1="439.8923" x2="2242.4641" y2="426.8656" gradientTransform="matrix(1 0 0 1 -41.92 -194.32)">
						<stop  offset="0.0484" style="stop-color:#312E2E;stop-opacity:0"/>
						<stop  offset="1" style="stop-color:#FFFFFF"/>
					</linearGradient>
					<polygon fill="url(#SVGID_28_)" points="2190.711,241.74 2207.772,240.521 2208.076,244.983 2191.015,246.203 					"/>
				</g>
			</g>
			<g>
				<g>
					<g>
						
							<linearGradient id="SVGID_29_" gradientUnits="userSpaceOnUse" x1="3330.8184" y1="258.3622" x2="3350.4231" y2="273.0657" gradientTransform="matrix(-0.9411 0.4056 0.3988 0.9172 5209.6821 -1302.2056)">
							<stop  offset="0" style="stop-color:#666364"/>
							<stop  offset="0.0436" style="stop-color:#747071"/>
							<stop  offset="0.1963" style="stop-color:#A5A1A2"/>
							<stop  offset="0.3315" style="stop-color:#CDCACB"/>
							<stop  offset="0.4427" style="stop-color:#E7E6E6"/>
							<stop  offset="0.5161" style="stop-color:#F1F1F1"/>
							<stop  offset="0.6268" style="stop-color:#D2D0D1"/>
							<stop  offset="0.8588" style="stop-color:#8D898A"/>
							<stop  offset="1" style="stop-color:#666364"/>
						</linearGradient>
						<polygon fill="url(#SVGID_29_)" points="2168.964,316.233 2181.112,279.32 2174.289,277.252 2162.142,314.165 						"/>
						
							<radialGradient id="SVGID_30_" cx="3340.876" cy="265.9056" r="11.6264" gradientTransform="matrix(-0.9411 0.4056 0.3988 0.9172 5209.6821 -1302.2056)" gradientUnits="userSpaceOnUse">
							<stop  offset="0" style="stop-color:#FFFFFF;stop-opacity:0"/>
							<stop  offset="0.1853" style="stop-color:#FCFCFC;stop-opacity:0.1853"/>
							<stop  offset="0.3452" style="stop-color:#F1F1F1;stop-opacity:0.3452"/>
							<stop  offset="0.4956" style="stop-color:#E0DFDF;stop-opacity:0.4956"/>
							<stop  offset="0.6403" style="stop-color:#C7C6C7;stop-opacity:0.6403"/>
							<stop  offset="0.7809" style="stop-color:#A8A6A7;stop-opacity:0.7809"/>
							<stop  offset="0.9165" style="stop-color:#817F80;stop-opacity:0.9165"/>
							<stop  offset="1" style="stop-color:#666364"/>
						</radialGradient>
						<polygon fill="url(#SVGID_30_)" points="2168.964,316.233 2181.112,279.32 2174.289,277.252 2162.142,314.165 						"/>
					</g>
				</g>
				<g>
					
						<linearGradient id="SVGID_31_" gradientUnits="userSpaceOnUse" x1="3383.179" y1="569.9436" x2="3381.3022" y2="583.0785" gradientTransform="matrix(-0.9907 -0.1362 -0.1362 0.9907 5589.3936 202.1978)">
						<stop  offset="0.0376" style="stop-color:#312E2E"/>
						<stop  offset="1" style="stop-color:#161515"/>
					</linearGradient>
					<polygon fill="url(#SVGID_31_)" points="2148.701,320.507 2171.277,321.099 2171.506,311.15 2148.929,310.557 					"/>
					
						<radialGradient id="SVGID_32_" cx="3381.7886" cy="909.079" r="11.7724" gradientTransform="matrix(-0.9907 -0.1362 -0.0751 0.5462 5578.7129 279.8891)" gradientUnits="userSpaceOnUse">
						<stop  offset="0.0484" style="stop-color:#312E2E;stop-opacity:0"/>
						<stop  offset="1" style="stop-color:#161515"/>
					</radialGradient>
					<polygon fill="url(#SVGID_32_)" points="2148.701,320.507 2171.277,321.099 2171.506,311.15 2148.929,310.557 					"/>
					
						<linearGradient id="SVGID_33_" gradientUnits="userSpaceOnUse" x1="3381.6526" y1="580.976" x2="3382.5015" y2="572.9969" gradientTransform="matrix(-0.9907 -0.1362 -0.1362 0.9907 5589.3936 202.1978)">
						<stop  offset="0.0484" style="stop-color:#312E2E;stop-opacity:0"/>
						<stop  offset="1" style="stop-color:#FFFFFF"/>
					</linearGradient>
					<polygon fill="url(#SVGID_33_)" points="2151.502,317.84 2151.605,313.368 2168.704,313.817 2168.601,318.288 					"/>
				</g>
			</g>
		</g>
	</g>
</g>
<g>
	<g>
		<g>
			<g>
				<g>
					<linearGradient id="SVGID_34_" gradientUnits="userSpaceOnUse" x1="1720.2848" y1="218.5673" x2="1724.7046" y2="221.8822">
						<stop  offset="0" style="stop-color:#666364"/>
						<stop  offset="0.0828" style="stop-color:#858283"/>
						<stop  offset="0.2228" style="stop-color:#B3B1B2"/>
						<stop  offset="0.3468" style="stop-color:#D4D4D4"/>
						<stop  offset="0.4488" style="stop-color:#E9E8E8"/>
						<stop  offset="0.5161" style="stop-color:#F0F0F0"/>
						<stop  offset="0.6152" style="stop-color:#D9D8D8"/>
						<stop  offset="0.8229" style="stop-color:#9D9B9C"/>
						<stop  offset="1" style="stop-color:#666364"/>
					</linearGradient>
					<path fill="url(#SVGID_34_)" d="M1686.088,261.538l67.86-86.341c1.063,2.059,2.24,4.062,3.405,6.02l-66.216,83.923
						L1686.088,261.538z"/>
					<radialGradient id="SVGID_35_" cx="1721.7203" cy="220.1681" r="50.0338" gradientUnits="userSpaceOnUse">
						<stop  offset="0" style="stop-color:#FFFFFF;stop-opacity:0"/>
						<stop  offset="0.1853" style="stop-color:#FCFCFC;stop-opacity:0.1853"/>
						<stop  offset="0.3452" style="stop-color:#F1F1F1;stop-opacity:0.3452"/>
						<stop  offset="0.4956" style="stop-color:#E0DFDF;stop-opacity:0.4956"/>
						<stop  offset="0.6403" style="stop-color:#C7C6C7;stop-opacity:0.6403"/>
						<stop  offset="0.7809" style="stop-color:#A8A6A7;stop-opacity:0.7809"/>
						<stop  offset="0.9165" style="stop-color:#817F80;stop-opacity:0.9165"/>
						<stop  offset="1" style="stop-color:#666364"/>
					</radialGradient>
					<path fill="url(#SVGID_35_)" d="M1686.088,261.538l67.86-86.341c1.063,2.059,2.24,4.062,3.405,6.02l-66.216,83.923
						L1686.088,261.538z"/>
				</g>
			</g>
			<defs>
				<filter id="Adobe_OpacityMaskFilter" filterUnits="userSpaceOnUse" x="1686.088" y="175.197" width="71.265" height="89.943">
					
						<feColorMatrix  type="matrix" values="-1 0 0 0 1  0 -1 0 0 1  0 0 -1 0 1  0 0 0 1 0" color-interpolation-filters="sRGB" result="source"/>
				</filter>
			</defs>
			<mask maskUnits="userSpaceOnUse" x="1686.088" y="175.197" width="71.265" height="89.943" id="SVGID_36_">
				<g filter="url(#Adobe_OpacityMaskFilter)">
					<image overflow="visible" width="76" height="95" xlink:href="798CDFA6.jpg"  transform="matrix(1 0 0 1 1683.5 172.5)">
					</image>
				</g>
			</mask>
			<g opacity="0.75" mask="url(#SVGID_36_)">
				<g>
					<path fill="#878788" d="M1686.088,261.538l67.86-86.341c1.063,2.059,2.24,4.062,3.405,6.02l-66.216,83.923L1686.088,261.538z"
						/>
					<path fill="#878788" d="M1686.088,261.538l67.86-86.341c1.063,2.059,2.24,4.062,3.405,6.02l-66.216,83.923L1686.088,261.538z"
						/>
				</g>
			</g>
		</g>
	</g>
</g>
<g>
	<g>
		<g>
			<g>
				<g>
					<g>
						<g>
							<linearGradient id="SVGID_37_" gradientUnits="userSpaceOnUse" x1="1498.053" y1="194.5106" x2="1504.215" y2="192.9743">
								<stop  offset="0" style="stop-color:#666364"/>
								<stop  offset="0.1098" style="stop-color:#939192"/>
								<stop  offset="0.2376" style="stop-color:#C2C0C1"/>
								<stop  offset="0.3508" style="stop-color:#E3E3E3"/>
								<stop  offset="0.4439" style="stop-color:#F8F7F7"/>
								<stop  offset="0.5054" style="stop-color:#FFFFFF"/>
								<stop  offset="0.5714" style="stop-color:#FAFAFA"/>
								<stop  offset="0.6534" style="stop-color:#EBEAEA"/>
								<stop  offset="0.744" style="stop-color:#D2D1D1"/>
								<stop  offset="0.8407" style="stop-color:#AFAEAE"/>
								<stop  offset="0.9412" style="stop-color:#838182"/>
								<stop  offset="1" style="stop-color:#666364"/>
							</linearGradient>
							<polygon fill="url(#SVGID_37_)" points="1482.401,129.857 1488.428,128.394 1519.598,257.695 1513.57,259.158 							"/>
							<radialGradient id="SVGID_38_" cx="1500.999" cy="193.7761" r="61.2758" gradientUnits="userSpaceOnUse">
								<stop  offset="0" style="stop-color:#FFFFFF;stop-opacity:0"/>
								<stop  offset="0.1853" style="stop-color:#FCFCFC;stop-opacity:0.1853"/>
								<stop  offset="0.3452" style="stop-color:#F1F1F1;stop-opacity:0.3452"/>
								<stop  offset="0.4956" style="stop-color:#E0DFDF;stop-opacity:0.4956"/>
								<stop  offset="0.6403" style="stop-color:#C7C6C7;stop-opacity:0.6403"/>
								<stop  offset="0.7809" style="stop-color:#A8A6A7;stop-opacity:0.7809"/>
								<stop  offset="0.9165" style="stop-color:#817F80;stop-opacity:0.9165"/>
								<stop  offset="1" style="stop-color:#666364"/>
							</radialGradient>
							<polygon fill="url(#SVGID_38_)" points="1482.401,129.857 1488.428,128.394 1519.598,257.695 1513.57,259.158 							"/>
						</g>
					</g>
					<defs>
						
							<filter id="Adobe_OpacityMaskFilter_1_" filterUnits="userSpaceOnUse" x="1482.401" y="128.394" width="37.197" height="130.764">
							
								<feColorMatrix  type="matrix" values="-1 0 0 0 1  0 -1 0 0 1  0 0 -1 0 1  0 0 0 1 0" color-interpolation-filters="sRGB" result="source"/>
						</filter>
					</defs>
					<mask maskUnits="userSpaceOnUse" x="1482.401" y="128.394" width="37.197" height="130.764" id="SVGID_39_">
						<g filter="url(#Adobe_OpacityMaskFilter_1_)">
							<image overflow="visible" width="43" height="136" xlink:href="798CDFA1.jpg"  transform="matrix(1 0 0 1 1479.5001 125.5)">
							</image>
						</g>
					</mask>
					<g opacity="0.75" mask="url(#SVGID_39_)">
						<g>
							<polygon fill="#878788" points="1482.401,129.857 1488.428,128.394 1519.598,257.695 1513.57,259.158 							"/>
							<polygon fill="#878788" points="1482.401,129.857 1488.428,128.394 1519.598,257.695 1513.57,259.158 							"/>
						</g>
					</g>
				</g>
				<g>
					<linearGradient id="SVGID_40_" gradientUnits="userSpaceOnUse" x1="1494.4547" y1="189.8603" x2="1505.6956" y2="187.0576">
						<stop  offset="0" style="stop-color:#8B8A8B"/>
						<stop  offset="0.1257" style="stop-color:#B1B1B1"/>
						<stop  offset="0.2585" style="stop-color:#D3D3D3"/>
						<stop  offset="0.3683" style="stop-color:#E8E7E8"/>
						<stop  offset="0.4409" style="stop-color:#EFEFEF"/>
						<stop  offset="0.6904" style="stop-color:#D2D2D2"/>
						<stop  offset="1" style="stop-color:#A9A8A8"/>
					</linearGradient>
					<path fill="url(#SVGID_40_)" d="M1506.673,188.686c0.637,2.555-0.934,5.167-3.489,5.803l-3.521,0.876
						c-2.555,0.636-5.167-0.934-5.803-3.489l-0.877-3.521c-0.636-2.555,0.935-5.166,3.49-5.803l3.521-0.876
						c2.555-0.637,5.166,0.934,5.803,3.489L1506.673,188.686z"/>
					<radialGradient id="SVGID_41_" cx="1499.8284" cy="188.5206" r="6.5134" gradientUnits="userSpaceOnUse">
						<stop  offset="0" style="stop-color:#FFFFFF;stop-opacity:0"/>
						<stop  offset="0.13" style="stop-color:#F3F3F3;stop-opacity:0.13"/>
						<stop  offset="0.3659" style="stop-color:#D4D3D3;stop-opacity:0.3659"/>
						<stop  offset="0.6807" style="stop-color:#A19F9F;stop-opacity:0.6807"/>
						<stop  offset="1" style="stop-color:#666364"/>
					</radialGradient>
					<path opacity="0.5" fill="url(#SVGID_41_)" d="M1506.673,188.686c0.637,2.555-0.934,5.167-3.489,5.803l-3.521,0.876
						c-2.555,0.636-5.167-0.934-5.803-3.489l-0.877-3.521c-0.636-2.555,0.935-5.166,3.49-5.803l3.521-0.876
						c2.555-0.637,5.166,0.934,5.803,3.489L1506.673,188.686z"/>
				</g>
			</g>
		</g>
	</g>
</g>
<g>
	<g>
		<g>
			<g>
				<g>
					<g>
						<g>
							<linearGradient id="SVGID_42_" gradientUnits="userSpaceOnUse" x1="1098.053" y1="194.5106" x2="1104.215" y2="192.9743">
								<stop  offset="0" style="stop-color:#666364"/>
								<stop  offset="0.1098" style="stop-color:#939192"/>
								<stop  offset="0.2376" style="stop-color:#C2C0C1"/>
								<stop  offset="0.3508" style="stop-color:#E3E3E3"/>
								<stop  offset="0.4439" style="stop-color:#F8F7F7"/>
								<stop  offset="0.5054" style="stop-color:#FFFFFF"/>
								<stop  offset="0.5714" style="stop-color:#FAFAFA"/>
								<stop  offset="0.6534" style="stop-color:#EBEAEA"/>
								<stop  offset="0.744" style="stop-color:#D2D1D1"/>
								<stop  offset="0.8407" style="stop-color:#AFAEAE"/>
								<stop  offset="0.9412" style="stop-color:#838182"/>
								<stop  offset="1" style="stop-color:#666364"/>
							</linearGradient>
							<polygon fill="url(#SVGID_42_)" points="1082.4,129.857 1088.428,128.394 1119.598,257.695 1113.57,259.158 							"/>
							<radialGradient id="SVGID_43_" cx="1100.999" cy="193.7761" r="61.2758" gradientUnits="userSpaceOnUse">
								<stop  offset="0" style="stop-color:#FFFFFF;stop-opacity:0"/>
								<stop  offset="0.1853" style="stop-color:#FCFCFC;stop-opacity:0.1853"/>
								<stop  offset="0.3452" style="stop-color:#F1F1F1;stop-opacity:0.3452"/>
								<stop  offset="0.4956" style="stop-color:#E0DFDF;stop-opacity:0.4956"/>
								<stop  offset="0.6403" style="stop-color:#C7C6C7;stop-opacity:0.6403"/>
								<stop  offset="0.7809" style="stop-color:#A8A6A7;stop-opacity:0.7809"/>
								<stop  offset="0.9165" style="stop-color:#817F80;stop-opacity:0.9165"/>
								<stop  offset="1" style="stop-color:#666364"/>
							</radialGradient>
							<polygon fill="url(#SVGID_43_)" points="1082.4,129.857 1088.428,128.394 1119.598,257.695 1113.57,259.158 							"/>
						</g>
					</g>
					<defs>
						
							<filter id="Adobe_OpacityMaskFilter_2_" filterUnits="userSpaceOnUse" x="1082.4" y="128.394" width="37.197" height="130.764">
							
								<feColorMatrix  type="matrix" values="-1 0 0 0 1  0 -1 0 0 1  0 0 -1 0 1  0 0 0 1 0" color-interpolation-filters="sRGB" result="source"/>
						</filter>
					</defs>
					<mask maskUnits="userSpaceOnUse" x="1082.4" y="128.394" width="37.197" height="130.764" id="SVGID_44_">
						<g filter="url(#Adobe_OpacityMaskFilter_2_)">
							<image overflow="visible" width="43" height="136" xlink:href="798CDFA2.jpg"  transform="matrix(1 0 0 1 1079.5001 125.5)">
							</image>
						</g>
					</mask>
					<g opacity="0.75" mask="url(#SVGID_44_)">
						<g>
							<polygon fill="#878788" points="1082.4,129.857 1088.428,128.394 1119.598,257.695 1113.57,259.158 							"/>
							<polygon fill="#878788" points="1082.4,129.857 1088.428,128.394 1119.598,257.695 1113.57,259.158 							"/>
						</g>
					</g>
				</g>
				<g>
					<linearGradient id="SVGID_45_" gradientUnits="userSpaceOnUse" x1="1094.4547" y1="189.8603" x2="1105.6954" y2="187.0576">
						<stop  offset="0" style="stop-color:#8B8A8B"/>
						<stop  offset="0.1257" style="stop-color:#B1B1B1"/>
						<stop  offset="0.2585" style="stop-color:#D3D3D3"/>
						<stop  offset="0.3683" style="stop-color:#E8E7E8"/>
						<stop  offset="0.4409" style="stop-color:#EFEFEF"/>
						<stop  offset="0.6904" style="stop-color:#D2D2D2"/>
						<stop  offset="1" style="stop-color:#A9A8A8"/>
					</linearGradient>
					<path fill="url(#SVGID_45_)" d="M1106.673,188.686c0.637,2.555-0.934,5.167-3.489,5.803l-3.521,0.876
						c-2.555,0.636-5.167-0.934-5.803-3.489l-0.877-3.521c-0.636-2.555,0.935-5.166,3.49-5.803l3.521-0.876
						c2.555-0.637,5.166,0.934,5.803,3.489L1106.673,188.686z"/>
					<radialGradient id="SVGID_46_" cx="1099.8284" cy="188.5206" r="6.5134" gradientUnits="userSpaceOnUse">
						<stop  offset="0" style="stop-color:#FFFFFF;stop-opacity:0"/>
						<stop  offset="0.13" style="stop-color:#F3F3F3;stop-opacity:0.13"/>
						<stop  offset="0.3659" style="stop-color:#D4D3D3;stop-opacity:0.3659"/>
						<stop  offset="0.6807" style="stop-color:#A19F9F;stop-opacity:0.6807"/>
						<stop  offset="1" style="stop-color:#666364"/>
					</radialGradient>
					<path opacity="0.5" fill="url(#SVGID_46_)" d="M1106.673,188.686c0.637,2.555-0.934,5.167-3.489,5.803l-3.521,0.876
						c-2.555,0.636-5.167-0.934-5.803-3.489l-0.877-3.521c-0.636-2.555,0.935-5.166,3.49-5.803l3.521-0.876
						c2.555-0.637,5.166,0.934,5.803,3.489L1106.673,188.686z"/>
				</g>
			</g>
		</g>
	</g>
</g>
</svg>
