<?xml version="1.0" encoding="utf-8"?>
<!DOCTYPE svg PUBLIC "-//W3C//DTD SVG 1.1//EN" "http://www.w3.org/Graphics/SVG/1.1/DTD/svg11.dtd">
<svg version="1.1" id="Слой_1" xmlns="http://www.w3.org/2000/svg" xmlns:xlink="http://www.w3.org/1999/xlink" x="0px" y="0px"
	 width="150px" height="150px" viewBox="0 0 150 150" enable-background="new 0 0 150 150" xml:space="preserve">
<g>
	<g>
		<path fill="#B5CE3C" d="M68.507,43.911c0,0,1.126-3.55,5.802-7.707c4.676-4.156,8.746-5.282,8.746-5.282l-0.087,6.494
			c0,0-7.533,3.117-9.698,4.416C71.104,43.132,68.507,43.911,68.507,43.911z"/>
		<path fill="#B5CE3C" d="M81.25,37.961c0,0,1.662-3.333,6.925-6.715c5.263-3.382,9.458-3.863,9.458-3.863l-1.092,6.402
			c0,0-7.925,1.913-10.265,2.86C83.937,37.594,81.25,37.961,81.25,37.961z"/>
		<path fill="#B5CE3C" d="M95.047,32.861c0,0,2.289-2.938,8.118-5.211c5.829-2.273,10.036-1.915,10.036-1.915l-2.337,6.06
			c0,0-8.147,0.306-10.628,0.772C97.753,33.032,95.047,32.861,95.047,32.861z"/>
		<path fill="#B5CE3C" d="M108.824,31.012c0,0,3.315-1.698,9.558-1.299s9.907,2.499,9.907,2.499l-4.676,4.508
			c0,0-7.515-3.16-9.961-3.785C111.206,32.31,108.824,31.012,108.824,31.012z"/>
		<path fill="#B5CE3C" d="M121.399,35.184c0,0,3.667-0.651,9.519,1.56c5.852,2.211,8.739,5.293,8.739,5.293l-5.792,2.939
			c0,0-6.259-5.225-8.414-6.539C123.295,37.123,121.399,35.184,121.399,35.184z"/>
		<path fill="#B5CE3C" d="M131.603,43.633c0,0,3.632,0.824,8.166,5.134c4.534,4.31,5.998,8.271,5.998,8.271l-6.479,0.459
			c0,0-3.739-7.245-5.215-9.293C132.598,46.156,131.603,43.633,131.603,43.633z"/>
		<path fill="#B5CE3C" d="M137.154,55.795c0,0,3.329,1.671,6.696,6.943c3.368,5.272,3.838,9.468,3.838,9.468l-6.4-1.109
			c0,0-1.892-7.93-2.833-10.273C137.515,58.483,137.154,55.795,137.154,55.795z"/>
		<path fill="#B5CE3C" d="M140.164,69.44c0,0,2.878,2.364,4.999,8.25c2.121,5.885,1.654,10.082,1.654,10.082l-5.997-2.493
			c0,0-0.095-8.152-0.496-10.645C139.922,72.141,140.164,69.44,140.164,69.44z"/>
	</g>
	<g>
		<defs>
			<path id="XMLID_5_" d="M67.727,43.652c0,0,18.53-10.91,31.692-13.162s26.15,1.039,34.29,13.508s9.871,36.888,5.369,49.703
				s-18.877,33.77-43.468,31.692s-22.86-23.033-17.145-29.094c5.715-6.061,14.432-5.83,17.838-2.078
				c3.472,3.826-0.115,6.985-5.369,5.888c-3.725-0.778-9.005,3.637-5.195,9.352s16.106,10.564,28.921,3.117
				s15.759-19.916,14.72-26.67c-1.039-6.754-12.296-14.547-25.284-16.106c-12.989-1.559-25.458-1.039-29.094-0.52
				c-3.637,0.52-7.1,0.52-7.1,0.52L67.727,43.652z"/>
		</defs>
		<use xlink:href="#XMLID_5_"  overflow="visible" fill="#00975E"/>
		<clipPath id="XMLID_2_">
			<use xlink:href="#XMLID_5_"  overflow="visible"/>
		</clipPath>
		<g clip-path="url(#XMLID_2_)">
			<g>
				<path fill="#4EB68E" d="M64.064,34.129c0.267,2.959,1.723,5.898,2.665,8.715c1.128,3.372,1.657,6.948,2.291,10.434
					c1.398,7.683,1.469,15.231,1.116,22.979C69.693,85.99,84.756,91.29,89.86,82.685c2.44-4.115,2.019-9.349,1.874-13.96
					c-0.168-5.332-0.936-10.482-2.165-15.665c-2.186-9.222-6.338-20.624-15.781-24.505C69.143,26.647,63.55,28.416,64.064,34.129
					L64.064,34.129z"/>
			</g>
		</g>
		<g clip-path="url(#XMLID_2_)">
			<g>
				<path fill="#4EB68E" d="M80.389,28.178c-0.444,3.482,1.448,6.234,2.487,9.412c1.364,4.167,2.388,8.195,3.121,12.527
					c0.816,4.824,1.026,9.435,0.966,14.323c-0.065,5.338-1.635,10.634,1.539,15.386c2.959,4.431,8.351,6.957,13.466,4.464
					c10.532-5.133,7.555-25.104,5.855-34.404c-1.843-10.078-8.485-24.122-19.536-26.287C84.853,22.927,80.884,24.296,80.389,28.178
					L80.389,28.178z"/>
			</g>
		</g>
		<g clip-path="url(#XMLID_2_)">
			<g>
				<path fill="#4EB68E" d="M101.27,23.48c0.564,8.698,2.526,17.108,2.474,25.864c-0.029,4.914-0.557,9.798-1.239,14.66
					c-0.725,5.174-2.036,10.318-1.59,15.518c0.719,8.382,13.972,11.744,19.454,6.419c3.975-3.861,4.373-9.973,5.241-15.196
					c1.004-6.04,1.3-12.301,1.075-18.411c-0.453-12.249-3.886-23.612-13.172-31.934C110.474,17.677,100.879,17.445,101.27,23.48
					L101.27,23.48z"/>
			</g>
		</g>
		<g clip-path="url(#XMLID_2_)">
			<g>
				<path fill="#4EB68E" d="M125.909,34.592c-2.044,4.099-2.476,8.806-3.214,13.29c-0.776,4.713-1.588,9.452-2.612,14.118
					c-0.975,4.444-2.792,8.706-4.462,12.922c-1.795,4.532-4.943,8.629-5.682,13.461c-1.034,6.765,8.723,12.836,14.634,10.597
					c5.873-2.225,8.577-5.998,11.123-11.601c2.5-5.501,4.431-11.33,5.928-17.174c2.867-11.196,5.92-26.182-2.476-35.66
					C135.93,30.912,128.494,29.409,125.909,34.592L125.909,34.592z"/>
			</g>
		</g>
		<g clip-path="url(#XMLID_2_)">
			<g>
				<path fill="#4EB68E" d="M140.686,72.286c-5.058,2.3-8.035,9.216-12,13.103c-4.217,4.132-9.246,6.375-14.31,9.186
					c-10.083,5.598,0.853,18.198,9.183,17.573c8.566-0.643,16.362-6.251,22.115-12.411c5.506-5.895,11.491-15.203,7.593-23.28
					C151.068,71.901,145.064,70.295,140.686,72.286L140.686,72.286z"/>
			</g>
		</g>
		<g clip-path="url(#XMLID_2_)">
			<g>
				<path fill="#4EB68E" d="M136.725,106.645c-4.072-0.521-7.765,0.5-11.816,0.545c-4.955,0.055-9.226-2.975-13.955-4.105
					c-3.751-0.896-8.536,0.323-10.232,4.106c-1.809,4.035,0.772,7.843,3.743,10.371c6.108,5.198,14.746,7.102,22.564,7.447
					c6.039,0.267,17.733-1.761,17.191-9.963C143.951,110.99,141.03,107.195,136.725,106.645L136.725,106.645z"/>
			</g>
		</g>
		<g clip-path="url(#XMLID_2_)">
			<g>
				<path fill="#4EB68E" d="M106.807,130.954c-1.231-2.481-2.85-5.058-3.581-7.807c-1.055-3.97,0.328-7.536,0.257-11.491
					c-0.131-7.209-11.284-14.064-16.807-7.534c-9.62,11.373-0.927,35.138,14.793,34.92
					C105.897,138.981,108.866,135.105,106.807,130.954L106.807,130.954z"/>
			</g>
		</g>
		<g clip-path="url(#XMLID_2_)">
			<g>
				<path fill="#4EB68E" d="M75.903,121.734c3.189-1.803,5.544-4.552,8.81-6.284c4.433-2.352,9.834-1.051,14.028-3.944
					c7.527-5.192,0.923-13.045-5.488-14.981c-11.33-3.421-31.711,5.848-30.247,19.427C63.587,121.346,71.618,124.158,75.903,121.734
					L75.903,121.734z"/>
			</g>
		</g>
	</g>
	<g>
		<g>
			<path fill="#E04964" d="M38.816,62.536c-7.656,0.547-14.765,0.077-21.5-3.997c-6.374-3.855-10.72-11.303-8.126-18.715
				c2.434-6.957,12.282-10.925,16.809-3.716c2.05,3.265,2.646,9.058,0.183,12.223c-1.299,1.668-3.781,2.061-5.712,1.792
				c-2-0.761-2.921-2.147-2.762-4.159c0.872-1.376,1.331-2.88,1.377-4.512c-3.892,2.28,1.428,6.952,4.668,5.35
				c2.294-1.134,3.147-3.368,2.295-5.783c-1.134-3.21-4.604-4.324-7.709-4.324c-7.506-0.001-9.373,9.023-6.179,14.246
				c3.799,6.211,12.782,6.981,18.443,3.133c6.605-4.49,4.911-16.053,0.52-21.48C20.631,19.628,0.494,28.84,1.49,44.877
				c1.077,17.361,24.113,27.065,39.002,22.207C43.541,66.089,41.357,62.354,38.816,62.536L38.816,62.536z"/>
		</g>
	</g>
	<g>
		<defs>
			<path id="XMLID_4_" d="M69.69,49.193c0-0.577,2.886-12.584-4.849-13.739C57.105,34.3,43.713,36.493,38.056,50.81
				s-2.078,21.244,0.231,22.167s27.593,1.385,32.096-1.155c3.362-1.897-0.346-9.121-0.693-15.24
				C69.429,51.966,69.69,49.193,69.69,49.193z"/>
		</defs>
		<use xlink:href="#XMLID_4_"  overflow="visible" fill="#B5CE3C"/>
		<clipPath id="XMLID_3_">
			<use xlink:href="#XMLID_4_"  overflow="visible"/>
		</clipPath>
		<rect x="32.745" y="64.895" clip-path="url(#XMLID_3_)" fill="#00975E" width="39.485" height="0.924"/>
	</g>
	<circle fill="#00975E" cx="53.296" cy="52.311" r="10.16"/>
	<circle fill="#231F20" cx="49.024" cy="50.001" r="1.27"/>
	<path fill="#B5CE3C" d="M86.258,57.333c-2.76-1.419-10.354-4.973-10.91,0.953c-0.217,2.315,1.097,4.416,3.42,5.936
		c1.974,1.291,5.506,2.393,5.026,5.369c-0.373,2.316-3.494,6.785-5.503,7.658c-1.889,0.82-5.157-0.577-6.584,1.174
		c-2.911,3.573,5.636,3.261,7.279,3.335c1.684,0.076,3.421,0.18,4.936-0.523c2.976-1.381,5.548-4.16,7.874-6.402
		c3.393-3.27,6.25-7.098,2.982-11.4C92.398,60.3,89.116,58.802,86.258,57.333z"/>
	<path fill="#B5CE3C" d="M133.536,74.651c-0.981-2.635-3.436-6.503-4.965-9.005c-1.847-3.023-4.147-5.687-6.504-8.313
		c-1.822-2.031-4.662-3.559-7.37-2.207c-3.454,1.725-3.37,9.403-3.116,12.633c0.415,5.29,2.757,10.649,2.708,15.884
		c-2.032-0.861-5.046-2.516-7.371-1.514c-1.043,0.45-1.717,1.688-1.229,2.745c0.581,1.259,2.487,1.453,3.697,1.77
		c2.523,0.659,5.135,1.655,7.749,1.871c2.722,0.225,2.98-0.708,3.585-3.304c0.833-3.574,0.682-7.078,0.892-10.706
		c2.572-0.546,5.102,4.174,7.19,6.497c1.605,1.785,4.351,1.757,5.443-0.674C135.218,78.16,133.91,75.656,133.536,74.651z"/>
</g>
</svg>
