<?xml version="1.0" encoding="UTF-8" standalone="no"?>
<svg
   xmlns:dc="http://purl.org/dc/elements/1.1/"
   xmlns:cc="http://creativecommons.org/ns#"
   xmlns:rdf="http://www.w3.org/1999/02/22-rdf-syntax-ns#"
   xmlns:svg="http://www.w3.org/2000/svg"
   xmlns="http://www.w3.org/2000/svg"
   xmlns:sodipodi="http://sodipodi.sourceforge.net/DTD/sodipodi-0.dtd"
   xmlns:inkscape="http://www.inkscape.org/namespaces/inkscape"
   width="150"
   height="150"
   viewBox="0 0 39.687499 39.687501"
   version="1.1"
   id="svg1410"
   inkscape:version="1.0.2-2 (e86c870879, 2021-01-15)"
   sodipodi:docname="icon.svg">
  <defs
     id="defs1404" />
  <sodipodi:namedview
     id="base"
     pagecolor="#ffffff"
     bordercolor="#666666"
     borderopacity="1.0"
     inkscape:pageopacity="0.0"
     inkscape:pageshadow="2"
     inkscape:zoom="2.8"
     inkscape:cx="53.968206"
     inkscape:cy="115.34526"
     inkscape:document-units="mm"
     inkscape:current-layer="layer1"
     showgrid="false"
     units="px"
     inkscape:window-width="2400"
     inkscape:window-height="1271"
     inkscape:window-x="-9"
     inkscape:window-y="-9"
     inkscape:window-maximized="1"
     inkscape:document-rotation="0" />
  <metadata
     id="metadata1407">
    <rdf:RDF>
      <cc:Work
         rdf:about="">
        <dc:format>image/svg+xml</dc:format>
        <dc:type
           rdf:resource="http://purl.org/dc/dcmitype/StillImage" />
        <dc:title></dc:title>
      </cc:Work>
    </rdf:RDF>
  </metadata>
  <g
     inkscape:label="Layer 1"
     inkscape:groupmode="layer"
     id="layer1"
     transform="translate(0,-257.31249)">
    <g
       id="g3212"
       transform="matrix(1.2631086,0,0,1.5058791,-9.7565988,-149.02993)">
      <path
         inkscape:connector-curvature="0"
         d="m 17.455857,291.14004 c 0.637823,0.36865 1.067858,0.81774 0.431448,1.91982 -0.636058,1.10207 -2.097265,2.43945 -2.735791,2.0708 -0.637469,-0.36795 -0.209902,-2.30223 0.426156,-3.4043 0.63641,-1.10173 1.240367,-0.95462 1.878187,-0.58632"
         style="fill:#64c4b3;fill-opacity:1;fill-rule:nonzero;stroke:none;stroke-width:0.0352778"
         id="path838" />
      <path
         inkscape:connector-curvature="0"
         d="m 29.413259,291.14004 c -0.638175,0.36865 -1.06821,0.81774 -0.432152,1.91982 0.636765,1.10207 2.097969,2.43945 2.736144,2.0708 0.637471,-0.36795 0.210256,-2.30223 -0.425802,-3.4043 -0.636765,-1.10173 -1.241073,-0.95462 -1.87819,-0.58632"
         style="fill:#64c4b3;fill-opacity:1;fill-rule:nonzero;stroke:none;stroke-width:0.0352778"
         id="path840" />
      <path
         inkscape:connector-curvature="0"
         d="m 24.306803,271.70869 c 0,0.48154 -0.390525,0.87171 -0.872421,0.87171 -0.481187,0 -0.872066,-0.39017 -0.872066,-0.87171 0,-0.4819 0.390879,-0.87207 0.872066,-0.87207 0.481896,0 0.872421,0.39017 0.872421,0.87207"
         style="fill:#fa6666;fill-opacity:1;fill-rule:nonzero;stroke:none;stroke-width:0.0352778"
         id="path842" />
      <path
         inkscape:connector-curvature="0"
         d="m 28.36798,276.03974 c 0,2.15865 -2.209093,3.90878 -4.933598,3.90878 -2.724854,0 -4.933243,-1.75013 -4.933243,-3.90878 0,-2.159 2.208389,-3.90913 4.933243,-3.90913 2.724505,0 4.933598,1.75013 4.933598,3.90913"
         style="fill:#64c4b3;fill-opacity:1;fill-rule:nonzero;stroke:none;stroke-width:0.0352778"
         id="path844" />
      <path
         inkscape:connector-curvature="0"
         d="m 17.143297,276.01857 c 0.382765,0.83079 -0.156633,1.89654 -1.205442,2.37949 -1.049515,0.4826 -2.2098,0.20073 -2.59221,-0.63041 -0.382765,-0.8308 0.156985,-1.89548 1.205442,-2.37879 1.04916,-0.4833 2.209445,-0.20143 2.59221,0.62971"
         style="fill:#785842;fill-opacity:1;fill-rule:nonzero;stroke:none;stroke-width:0.0352778"
         id="path846" />
      <path
         inkscape:connector-curvature="0"
         d="m 29.725822,276.01857 c -0.382765,0.83079 0.156633,1.89654 1.205087,2.37949 1.049515,0.4826 2.2098,0.20073 2.592213,-0.63041 0.383117,-0.8308 -0.156988,-1.89548 -1.205796,-2.37879 -1.048454,-0.4833 -2.209094,-0.20143 -2.591504,0.62971"
         style="fill:#785842;fill-opacity:1;fill-rule:nonzero;stroke:none;stroke-width:0.0352778"
         id="path848" />
      <path
         inkscape:connector-curvature="0"
         d="m 36.703766,284.21642 c 0,5.24263 -5.940777,9.49219 -13.269384,9.49219 -7.3279,0 -13.2691,-4.24956 -13.2691,-9.49219 0,-5.24157 5.9412,-9.49113 13.2691,-9.49113 7.328607,0 13.269384,4.24956 13.269384,9.49113"
         style="fill:#fa6666;fill-opacity:1;fill-rule:nonzero;stroke:none;stroke-width:0.0352778"
         id="path850" />
      <path
         inkscape:connector-curvature="0"
         d="m 32.734309,284.21642 c 0,3.67418 -4.163835,6.65269 -9.299927,6.65269 -5.136092,0 -9.299575,-2.97851 -9.299575,-6.65269 0,-3.67347 4.163483,-6.65233 9.299575,-6.65233 5.136092,0 9.299927,2.97886 9.299927,6.65233"
         style="fill:#785842;fill-opacity:1;fill-rule:nonzero;stroke:none;stroke-width:0.0352778"
         id="path852" />
      <path
         inkscape:connector-curvature="0"
         d="m 23.434382,283.61564 c -0.320675,0 -0.581729,0.26917 -0.581729,0.60078 0,0.33161 0.261054,0.60149 0.581729,0.60149 0.32103,0 0.582438,-0.26988 0.582438,-0.60149 0,-0.33161 -0.261408,-0.60078 -0.582438,-0.60078 z m 0,1.77377 c -0.636058,0 -1.153935,-0.52564 -1.153935,-1.17299 0,-0.64629 0.517877,-1.17192 1.153935,-1.17192 0.636059,0 1.15429,0.52563 1.15429,1.17192 0,0.64735 -0.518231,1.17299 -1.15429,1.17299"
         style="fill:#ffffff;fill-opacity:1;fill-rule:nonzero;stroke:none;stroke-width:0.0352778"
         id="path854" />
      <path
         inkscape:connector-curvature="0"
         d="m 23.434382,276.88323 c -5.715704,0 -10.36602,3.28965 -10.36602,7.33319 0,4.04389 4.650316,7.3339 10.36602,7.3339 5.71641,0 10.366375,-3.29001 10.366375,-7.3339 0,-4.04354 -4.649965,-7.33319 -10.366375,-7.33319 z m 0,15.23859 c -6.031087,0 -10.937168,-3.54612 -10.937168,-7.9054 0,-4.35892 4.906081,-7.90469 10.937168,-7.90469 6.03109,0 10.937523,3.54577 10.937523,7.90469 0,4.35928 -4.906433,7.9054 -10.937523,7.9054"
         style="fill:#ffffff;fill-opacity:1;fill-rule:nonzero;stroke:none;stroke-width:0.0352778"
         id="path856" />
      <path
         inkscape:connector-curvature="0"
         d="m 23.720487,279.34068 c 0,0.49354 -0.128413,0.89359 -0.286105,0.89359 -0.157691,0 -0.286102,-0.40005 -0.286102,-0.89359 0,-0.49353 0.128411,-0.89394 0.286102,-0.89394 0.157692,0 0.286105,0.40041 0.286105,0.89394"
         style="fill:#ffffff;fill-opacity:1;fill-rule:nonzero;stroke:none;stroke-width:0.0352778"
         id="path858" />
      <path
         inkscape:connector-curvature="0"
         d="m 15.98689,283.93103 c 0.493538,0 0.89394,0.12805 0.89394,0.28575 0,0.15804 -0.400402,0.28575 -0.89394,0.28575 -0.493535,0 -0.893937,-0.12771 -0.893937,-0.28575 0,-0.1577 0.400402,-0.28575 0.893937,-0.28575"
         style="fill:#ffffff;fill-opacity:1;fill-rule:nonzero;stroke:none;stroke-width:0.0352778"
         id="path860" />
      <path
         inkscape:connector-curvature="0"
         d="m 23.148987,289.09287 c 0,-0.49354 0.128058,-0.89394 0.286102,-0.89394 0.157691,0 0.28575,0.4004 0.28575,0.89394 0,0.49354 -0.128059,0.89359 -0.28575,0.89359 -0.158044,0 -0.286102,-0.40005 -0.286102,-0.89359"
         style="fill:#ffffff;fill-opacity:1;fill-rule:nonzero;stroke:none;stroke-width:0.0352778"
         id="path862" />
      <path
         inkscape:connector-curvature="0"
         d="m 30.882932,284.50182 c -0.494241,0 -0.894291,-0.12735 -0.894291,-0.2854 0,-0.15804 0.40005,-0.28575 0.894291,-0.28575 0.493184,0 0.893585,0.12771 0.893585,0.28575 0,0.15805 -0.400401,0.2854 -0.893585,0.2854"
         style="fill:#ffffff;fill-opacity:1;fill-rule:nonzero;stroke:none;stroke-width:0.0352778"
         id="path864" />
      <path
         inkscape:connector-curvature="0"
         d="m 24.360424,283.67985 c -0.1397,0.14887 -0.37465,0.15593 -0.523521,0.0152 v 0 c -0.148873,-0.14006 -0.155929,-0.37465 -0.01516,-0.52353 l 1.991431,-2.11137 c 0.140407,-0.14887 0.37465,-0.15593 0.523523,-0.0155 v 0 c 0.148871,0.14076 0.156279,0.37535 0.01516,0.52387 l -1.991431,2.11138"
         style="fill:#ffffff;fill-opacity:1;fill-rule:nonzero;stroke:none;stroke-width:0.0352778"
         id="path866" />
      <path
         inkscape:connector-curvature="0"
         d="m 20.230103,280.13196 c -0.134763,-0.15416 -0.369006,-0.16933 -0.522816,-0.0342 v 0 c -0.153813,0.13512 -0.168982,0.36866 -0.03387,0.52282 l 2.676171,3.04941 c 0.134762,0.15416 0.369006,0.16933 0.522464,0.0349 v 0 c 0.154165,-0.13582 0.169686,-0.36972 0.03422,-0.52388 l -2.676171,-3.04906"
         style="fill:#ffffff;fill-opacity:1;fill-rule:nonzero;stroke:none;stroke-width:0.0352778"
         id="path868" />
    </g>
  </g>
</svg>
