<?xml version="1.0" encoding="UTF-8" standalone="no"?>
<svg
   xmlns:dc="http://purl.org/dc/elements/1.1/"
   xmlns:cc="http://creativecommons.org/ns#"
   xmlns:rdf="http://www.w3.org/1999/02/22-rdf-syntax-ns#"
   xmlns:svg="http://www.w3.org/2000/svg"
   xmlns="http://www.w3.org/2000/svg"
   xmlns:sodipodi="http://sodipodi.sourceforge.net/DTD/sodipodi-0.dtd"
   xmlns:inkscape="http://www.inkscape.org/namespaces/inkscape"
   width="143.47693"
   height="60.126518"
   viewBox="0 0 37.961603 15.908475"
   id="svg1331">
  <defs
     id="defs1325" />
  <sodipodi:namedview
     id="base"
     pagecolor="#ffffff"
     bordercolor="#666666"
     borderopacity="1.0"
     inkscape:pageopacity="0.0"
     inkscape:pageshadow="2"
     inkscape:zoom="3.959798"
     inkscape:cx="76.552412"
     inkscape:cy="22.892344"
     inkscape:document-units="mm"
     inkscape:current-layer="layer1"
     inkscape:document-rotation="0"
     showgrid="false"
     units="px"
     inkscape:window-width="1920"
     inkscape:window-height="1001"
     inkscape:window-x="-9"
     inkscape:window-y="-9"
     inkscape:window-maximized="1"
     fit-margin-top="0"
     fit-margin-left="0"
     fit-margin-right="0"
     fit-margin-bottom="0" />
  <g
     transform="translate(-0.79714128,-12.224605)">
    <g
       id="g2889"
       transform="matrix(0.11207186,0,0,0.11207186,-4.8444927,-67.191542)">
      <path
         id="path80"
         style="fill:#4abfab;fill-opacity:1;fill-rule:nonzero;stroke:none;stroke-width:0.133333"
         d="m 384.60399,718.19871 c 2.64,4.74667 0.21333,9.86667 -4.24,12.14667 -0.18667,-0.0267 -0.36,-0.04 -0.56,-0.0133 -14.06667,2.09334 -28.24,2.08 -42.4,1.42667 -3.98667,-0.18667 -10.97333,-0.37333 -12.74666,-4.89333 -1.09334,-2.78667 0.21333,-6.70667 1.4,-9.82667 8.29333,-8.02667 21.58666,-5.18667 32.09333,-4.22667 5.24,0.48 10.37333,0.2 15.61333,0.13334 4.6,-0.0667 8.46667,0.96 10.84,5.25333" />
      <path
         id="path82"
         style="fill:#babcba;fill-opacity:1;fill-rule:nonzero;stroke:none;stroke-width:0.133333"
         d="m 93.763598,825.91871 c 1.4536,-0.10667 2.893733,-0.34667 4.320266,-0.66667 -3.386933,9.68 -16.026533,9.33333 -21.999999,1.05333 -8.7068,-12.10666 8.519733,-28.08 19.186399,-17.93333 -4.2,1.41333 -8.359866,2.93333 -12.306666,4.84 -0.6,0.28 -0.4532,1.2 0.06667,1.42667 -0.493334,0.93333 -0.786534,2.01333 -0.8532,2.88 -0.159867,2.06666 0.533333,4.09333 1.8532,5.68 2.506666,3.05333 6.360399,4.22666 9.733333,2.72" />
      <path
         id="path84"
         style="fill:#babcba;fill-opacity:1;fill-rule:nonzero;stroke:none;stroke-width:0.133333"
         d="m 233.17733,765.11871 c -1.90667,23.02666 0.38666,48.48 -9.28,69.89333 -2.13334,4.73333 -5.04,8.05333 -10.52,7.85333 -8.56,-0.30666 -17.30667,-6.02666 -24.48,-10.18666 -15.45333,-8.94667 -30.32,-20.17334 -47.18667,-26.25334 4.02667,-1.74666 8.04,-3.50666 12.05334,-5.26666 8.18666,5.84 16.57333,11.4 25.14666,16.64 8.73334,5.32 18.64,11.29333 29.08,12.09333 9.89333,0.77333 13.08,-8.62667 14.8,-16.68 3.06667,-14.37333 1.88,-29.70667 2.93333,-44.30667 0.0133,-0.10666 -0.0267,-0.18666 -0.04,-0.28 2.50667,-1.17333 5.01334,-2.32 7.49334,-3.50666" />
      <path
         id="path86"
         style="fill:#babcba;fill-opacity:1;fill-rule:nonzero;stroke:none;stroke-width:0.133333"
         d="m 322.45733,717.47871 c 0.26666,0.04 0.50666,0.0267 0.73333,-0.04 -1.10667,2.86667 -1.89333,5.97333 -1.62667,8.73333 -0.25333,0.0533 -0.49333,0.0933 -0.74666,0.13334 -0.0133,0 -0.0267,0 -0.0267,0 -0.12,-0.48 -0.46667,-0.89334 -1.10667,-1.05334 -17.25333,-4.09333 -35.32,9.68 -49.49333,17.49333 -20.06667,11.05334 -40.85333,20.76 -61.66667,30.28 -21.13333,9.66667 -42.42666,18.97334 -63.65333,28.42667 -9.41333,4.18667 -18.96026,8.04 -28.16026,12.66667 -8.0932,4.06666 -16.773469,8.8 -25.973469,9.48 0,-0.0933 0.02667,-0.16 0.02667,-0.26667 0,-0.17333 -0.279734,-0.17333 -0.279734,0 0,0.10667 -0.0136,0.2 -0.02653,0.28 -0.1068,0.0133 -0.2136,0.0133 -0.3204,0.0267 -1.412933,-0.33334 -2.733333,-1.09334 -3.746266,-2.21334 -0.866667,-0.94666 -1.266667,-2.22666 -1.253734,-3.49333 0.0136,-1.46667 1.333334,-2.36 1.493334,-3.68 7.546799,-1.29333 14.906669,-4.16 22.066669,-6.69333 9.1604,-3.25334 18.18693,-6.90667 27.13373,-10.73334 18.54667,-7.90666 36.62667,-16.86666 54.6,-25.98666 17.94667,-9.10667 35.78667,-18.45334 53.82667,-27.38667 17.84,-8.82667 36.32,-15.94666 54.4,-24.18666 7.90666,-1.52 15.73333,-3.01334 23.8,-1.78667" />
      <path
         id="path88"
         style="fill:#484a4c;fill-opacity:1;fill-rule:nonzero;stroke:none;stroke-width:0.133333"
         d="m 114.5636,818.86537 c 4.26666,13.08 -2.96,23.34667 -15.533336,27.38667 -12.372933,3.97333 -27.053199,0.81333 -35.666666,-9.12 -10.679733,-12.30667 -9.053199,-30.33333 4.6536,-39.2 13.333333,-8.62667 29.866666,-4.61333 40.679732,5.88 0.0271,0.0267 0.0536,0.04 0.0801,0.0667 -3.68013,1.32 -7.44013,2.50666 -11.186396,3.73333 -10.3604,-14.4 -32.306799,2.25333 -25.453732,17.50667 5.666666,12.6 26.440132,14.74666 29.173468,-0.73334 2.78653,-0.88 5.5068,-2.01333 8.18653,-3.2 1.69373,-0.74666 3.38693,-1.53333 5.06667,-2.32" />
      <path
         id="path90"
         style="fill:#4abfab;fill-opacity:1;fill-rule:nonzero;stroke:none;stroke-width:0.133333"
         d="m 245.55066,712.26538 c 5.21333,0.88 7.26667,4.36 5.01333,9.26666 -1.56,3.38667 -4.62666,5.82667 -8.14666,6.76 -0.41334,-0.46666 -1.18667,-0.48 -1.61334,-0.08 -34.2,-0.29333 -68.38666,-0.69333 -102.58666,-1.38666 -17.18707,-0.33334 -34.36,-0.28 -51.559999,0.04 -9.333333,0.17333 -19.199999,2.94666 -28.520399,1.6 -1.8,-1 -3.306667,-2.49334 -4.319733,-4.46667 -0.920267,-1.8 -0.933334,-4.01333 -0.06667,-5.82667 1.1068,-2.33333 3.5068,-2.93333 5.5464,-4.10666 0.06667,-0.0267 0.09373,-0.08 0.1468,-0.12 17.333333,0.26666 34.653199,-0.61334 51.959871,-1.17334 20.1068,-0.64 40.1604,-0.33333 60.26706,0.14667 16.18667,0.4 32.36,0 48.53333,0.4 5.66667,0.13333 11.34667,0.21333 17,-0.08 2.41334,-0.12 5.44,-0.13333 7.70667,-1.32 0.16,0.16 0.36,0.29333 0.64,0.34667" />
      <path
         id="path92"
         style="fill:#4abfab;fill-opacity:1;fill-rule:nonzero;stroke:none;stroke-width:0.133333"
         d="m 240.09733,740.95871 c 0,0.24 0.0533,0.45333 0.12,0.62666 -16.54667,8.2 -32.93334,16.76 -49.38667,25.14667 -17.25333,8.8 -34.62666,17.36 -52.34666,25.17333 -5.80014,2.56 -11.65374,4.98667 -17.53347,7.32 0.22653,-0.61333 0.13333,-1.37333 -0.54693,-1.84 -0.62654,-0.42666 -1.21294,-0.86666 -1.8,-1.30666 0.1204,-0.38667 0.0667,-0.81334 -0.26667,-1.17334 -4.95987,-5.36 -10.24,-10.18666 -14.86667,-15.90666 -5.519729,-6.82667 -10.626529,-13.97334 -16.066662,-20.85334 -7.4,-9.32 -18.453066,-16.6 -24.4796,-26.83999 -0.02707,-0.0533 -0.08027,-0.08 -0.1204,-0.13334 0.2,-0.04 0.387067,-0.08 0.587067,-0.13333 0.6,0.0133 1.2,0.0133 1.8,0.04 5.8396,0.16 11.759866,-0.74667 17.572933,-1.18667 16.666666,-1.26666 33.506662,-0.29333 50.200002,-0.17333 35.85373,0.26667 71.70706,1.74667 107.57373,1.48 -0.04,3.26666 -0.49334,6.49333 -0.44,9.76" />
      <path
         id="path94"
         style="fill:#171717;fill-opacity:1;fill-rule:nonzero;stroke:none;stroke-width:0.133333"
         d="m 98.083864,825.25204 c -1.426533,0.32 -2.866666,0.56 -4.320266,0.66667 -3.372934,1.50666 -7.226667,0.33333 -9.733333,-2.72 -1.319867,-1.58667 -2.013067,-3.61334 -1.8532,-5.68 0.06667,-0.86667 0.359866,-1.94667 0.8532,-2.88 -0.519867,-0.22667 -0.666667,-1.14667 -0.06667,-1.42667 3.9468,-1.90667 8.106666,-3.42667 12.306666,-4.84 -10.666666,-10.14667 -27.893199,5.82667 -19.186399,17.93333 5.973466,8.28 18.613066,8.62667 21.999999,-1.05333 z m 0.9464,21 c 12.573336,-4.04 19.799996,-14.30667 15.533336,-27.38667 -1.67974,0.78667 -3.37294,1.57334 -5.06667,2.32 -2.67973,1.18667 -5.4,2.32 -8.18653,3.2 -2.733336,15.48 -23.506802,13.33334 -29.173468,0.73334 -6.853067,-15.25334 15.093332,-31.90667 25.453732,-17.50667 3.746266,-1.22667 7.506266,-2.41333 11.186396,-3.73333 -0.0265,-0.0267 -0.0531,-0.04 -0.0801,-0.0667 -10.813066,-10.49333 -27.346399,-14.50667 -40.679732,-5.88 -13.706799,8.86667 -15.333333,26.89333 -4.6536,39.2 8.613467,9.93333 23.293733,13.09333 35.666666,9.12 z M 220.53733,805.55871 c 1.09333,-11.68 -0.0133,-23.78667 1.85333,-35.38667 -7.76,3.61333 -15.53333,7.18667 -23.33333,10.73333 -14.29333,6.48 -28.61333,12.93334 -42.97333,19.25334 16.62666,7.21333 29.84,22.09333 48.07999,25.94666 3.84,0.81334 9.33334,1.34667 11.6,-2.76 3.01334,-5.44 4.2,-11.65333 4.77334,-17.78666 z m 3.36,29.45333 c 9.66666,-21.41333 7.37333,-46.86667 9.28,-69.89333 -2.48,1.18666 -4.98667,2.33333 -7.49334,3.50666 0.0133,0.0933 0.0533,0.17334 0.04,0.28 -1.05333,14.6 0.13334,29.93334 -2.93333,44.30667 -1.72,8.05333 -4.90667,17.45333 -14.8,16.68 -10.44,-0.8 -20.34666,-6.77333 -29.08,-12.09333 -8.57333,-5.24 -16.96,-10.8 -25.14666,-16.64 -4.01334,1.76 -8.02667,3.52 -12.05334,5.26666 16.86667,6.08 31.73334,17.30667 47.18667,26.25334 7.17333,4.16 15.92,9.88 24.48,10.18666 5.48,0.2 8.38666,-3.12 10.52,-7.85333 z m 16.32,-93.42667 c -0.0667,-0.17333 -0.12,-0.38666 -0.12,-0.62666 -0.0533,-3.26667 0.4,-6.49334 0.44,-9.76 -35.86667,0.26667 -71.72,-1.21333 -107.57373,-1.48 -16.69334,-0.12 -33.533336,-1.09333 -50.200002,0.17333 -5.813067,0.44 -11.733333,1.34667 -17.572933,1.18667 -0.6,-0.0267 -1.2,-0.0267 -1.8,-0.04 -0.2,0.0533 -0.387067,0.0933 -0.587067,0.13333 0.04013,0.0533 0.09333,0.08 0.1204,0.13334 6.026534,10.23999 17.0796,17.51999 24.4796,26.83999 5.440133,6.88 10.546933,14.02667 16.066662,20.85334 4.62667,5.72 9.9068,10.54666 14.86667,15.90666 0.33333,0.36 0.38707,0.78667 0.26667,1.17334 0.58706,0.44 1.17346,0.88 1.8,1.30666 0.68026,0.46667 0.77346,1.22667 0.54693,1.84 5.87973,-2.33333 11.73333,-4.76 17.53347,-7.32 17.72,-7.81333 35.09333,-16.37333 52.34666,-25.17333 16.45333,-8.38667 32.84,-16.94667 49.38667,-25.14667 z m 10.34666,-20.05333 c 2.25334,-4.90666 0.2,-8.38666 -5.01333,-9.26666 -0.28,-0.0533 -0.48,-0.18667 -0.64,-0.34667 -2.26667,1.18667 -5.29333,1.2 -7.70667,1.32 -5.65333,0.29333 -11.33333,0.21333 -17,0.08 -16.17333,-0.4 -32.34666,0 -48.53333,-0.4 -20.10666,-0.48 -40.16026,-0.78667 -60.26706,-0.14667 -17.306669,0.56 -34.626535,1.44 -51.959868,1.17334 -0.05307,0.04 -0.08013,0.0933 -0.1468,0.12 -2.0396,1.17333 -4.4396,1.77333 -5.5464,4.10666 -0.866667,1.81334 -0.8536,4.02667 0.06667,5.82667 1.013066,1.97333 2.519733,3.46667 4.319733,4.46667 9.3204,1.34666 19.187066,-1.42667 28.520399,-1.6 17.199996,-0.32 34.372926,-0.37334 51.559996,-0.04 34.2,0.69333 68.38666,1.09333 102.58666,1.38666 0.42667,-0.4 1.2,-0.38666 1.61334,0.08 3.52,-0.93333 6.58666,-3.37333 8.14666,-6.76 z m 72.62667,-4.09333 c -0.22667,0.0667 -0.46667,0.08 -0.73333,0.04 -8.06667,-1.22667 -15.89334,0.26667 -23.8,1.78667 -18.08,8.24 -36.56,15.35999 -54.4,24.18666 -18.04,8.93333 -35.88,18.28 -53.82667,27.38667 -17.97333,9.12 -36.05333,18.08 -54.6,25.98666 -8.9468,3.82667 -17.97333,7.48 -27.13373,10.73334 -7.16,2.53333 -14.519866,5.4 -22.066665,6.69333 -0.16,1.32 -1.479734,2.21333 -1.493334,3.68 -0.01293,1.26667 0.387067,2.54667 1.253734,3.49333 1.012933,1.12 2.333333,1.88 3.746266,2.21334 0.1068,-0.0133 0.2136,-0.0133 0.3204,-0.0267 0.01293,-0.08 0.02653,-0.17333 0.02653,-0.28 0,-0.17333 0.279734,-0.17333 0.279734,0 0,0.10667 -0.02667,0.17333 -0.02667,0.26667 9.2,-0.68 17.880265,-5.41334 25.973465,-9.48 9.2,-4.62667 18.74693,-8.48 28.16026,-12.66667 21.22667,-9.45333 42.52,-18.76 63.65333,-28.42667 20.81334,-9.52 41.6,-19.22666 61.66667,-30.28 14.17333,-7.81333 32.24,-21.58666 49.49333,-17.49333 0.64,0.16 0.98667,0.57334 1.10667,1.05334 0,0 0.0133,0 0.0267,0 0.25333,-0.04 0.49333,-0.08 0.74666,-0.13334 -0.26666,-2.76 0.52,-5.86666 1.62667,-8.73333 z m 57.17333,12.90667 c 4.45333,-2.28 6.88,-7.4 4.24,-12.14667 -2.37333,-4.29333 -6.24,-5.32 -10.84,-5.25333 -5.24,0.0667 -10.37333,0.34666 -15.61333,-0.13334 -10.50667,-0.96 -23.8,-3.8 -32.09333,4.22667 -1.18667,3.12 -2.49334,7.04 -1.4,9.82667 1.77333,4.52 8.75999,4.70666 12.74666,4.89333 14.16,0.65333 28.33333,0.66667 42.4,-1.42667 0.2,-0.0267 0.37333,-0.0133 0.56,0.0133 z m 7.76,-12.37334 c 2.74667,5.93334 -0.86667,12.72 -6.34667,15.32 -0.38666,0.18667 -0.76,0.2 -1.09333,0.13333 -0.0133,0 -0.0267,0 -0.04,0 -10.08,1.49334 -20.25333,2.08 -30.45333,1.90667 -7.38667,-0.12 -15.42667,0.32 -22.56,-2 -3.05333,-1 -4.74667,-2.73333 -5.54667,-4.85333 -0.0933,0.0267 -0.18666,0.0533 -0.28,0.0667 -0.52,0.22666 -1.32,0.13333 -1.82666,0.13333 -0.32,0 -0.56,-0.12 -0.74667,-0.29333 -0.13333,0 -0.26667,-0.0133 -0.4,-0.04 -10.53333,-2.30667 -21.93333,3.22666 -30.96,8.15999 -9.68,5.29334 -19.17333,10.88 -28.98667,15.93334 -7.37333,3.8 -14.81333,7.46666 -22.28,11.05333 -1.02666,12.44 -1.04,24.93333 -2.24,37.37333 -1.2,12.50667 -2.01333,28.53334 -9.44,39.22667 -7.82666,11.25333 -21.88,4.14667 -31.53333,-1.08 -18.21333,-9.85333 -34.98666,-23.08 -53.8,-31.66667 -1.58666,0.68 -3.17333,1.37334 -4.76,2.05334 -5.90666,2.53333 -11.64,5.37333 -17.42706,8.13333 0.0537,0.0933 0.1068,0.18667 0.14693,0.30667 11.55987,33.88 -42.199999,43.50666 -58.199998,19.14666 -9.226533,-14.02666 -8.520267,-32.69333 7.026533,-41.86666 14.333333,-8.45334 33.373466,-6.30667 43.919865,7.09333 0.2536,0.33333 0.30667,0.69333 0.22707,1.02667 2.8396,-1.06667 5.66666,-2.14667 8.4932,-3.25334 -0.0401,-0.0133 -0.0803,-0.0267 -0.1068,-0.0533 -1.8932,-1.26667 -3.53334,-3.06667 -4.84014,-5 -5.46666,-4.12 -9.95986,-10.38667 -14.01293,-15.58667 -5.360399,-6.90666 -10.427066,-14.05333 -15.973465,-20.81333 -4.040134,-4.90667 -8.4536,-9.25333 -12.973467,-13.72 -3.680133,-3.62667 -8.0932,-7.48 -10.280133,-12.26666 -0.186533,-0.41334 -0.1464,-0.8 0.01347,-1.10667 -4.4932,0.12 -8.6932,-2.90667 -10.080133,-7.44 -1.306267,-4.32 0.493733,-8.93333 4.173333,-11.05333 0.04013,-0.41334 0.3068,-0.8 0.840133,-0.81334 0.4136,-0.0133 0.826534,-0.0267 1.240134,-0.04 0.533333,-0.14666 1.079733,-0.25333 1.666666,-0.30666 0.3068,-0.0267 0.559867,0.0667 0.7464,0.22666 35.680133,-1.13333 71.186932,-3.02666 106.920392,-2.18666 16.46667,0.38666 32.96,-0.0533 49.41333,0.36 5.70667,0.14666 11.42667,0.33333 17.12,0.18666 3.4,-0.08 8.64,0.45334 11.65334,-1.44 0.69333,-0.42666 1.42666,-0.08 1.8,0.48 13.65333,1.77334 7.48,19.29334 -3.26667,21.21334 0.53333,3.07999 0.34667,6.41333 0.0933,9.49333 0.49334,-0.24 0.98667,-0.49334 1.48,-0.73334 17.56,-8.58666 35.66667,-15.45333 53.46667,-23.42666 0.68,-0.30667 1.32,-0.13333 1.78667,0.24 7.37333,-2.45333 15.86666,-3.28 23.41333,-1.85333 0.46667,0.0933 0.76,0.30666 0.96,0.58666 0.16,-0.36 0.33333,-0.72 0.50667,-1.06666 0.33333,-0.66667 1.12,-0.68 1.65333,-0.33334 3.69333,-3.61333 8.44,-4.76 14.26666,-4.89333 9.89334,-0.22667 19.64,1.49333 29.54667,1.09333 7.86667,-0.30666 14.29333,0.53334 17.88,8.24" />
    </g>
  </g>
</svg>
