<?xml version="1.0" encoding="UTF-8" standalone="no"?>
<svg
   xmlns:dc="http://purl.org/dc/elements/1.1/"
   xmlns:cc="http://creativecommons.org/ns#"
   xmlns:rdf="http://www.w3.org/1999/02/22-rdf-syntax-ns#"
   xmlns:svg="http://www.w3.org/2000/svg"
   xmlns="http://www.w3.org/2000/svg"
   xmlns:sodipodi="http://sodipodi.sourceforge.net/DTD/sodipodi-0.dtd"
   xmlns:inkscape="http://www.inkscape.org/namespaces/inkscape"
   width="136.85587"
   height="115.92403"
   viewBox="0 0 36.20978 30.671568"
   version="1.1"
   id="svg1331"
   inkscape:version="1.0.2-2 (e86c870879, 2021-01-15)">
  <defs
     id="defs1325" />
  <sodipodi:namedview
     id="base"
     pagecolor="#ffffff"
     bordercolor="#666666"
     borderopacity="1.0"
     inkscape:pageopacity="0.0"
     inkscape:pageshadow="2"
     inkscape:zoom="3.959798"
     inkscape:cx="18.704215"
     inkscape:cy="49.003517"
     inkscape:document-units="mm"
     inkscape:current-layer="layer1"
     inkscape:document-rotation="0"
     showgrid="false"
     units="px"
     inkscape:window-width="1920"
     inkscape:window-height="1001"
     inkscape:window-x="-9"
     inkscape:window-y="-9"
     inkscape:window-maximized="1"
     fit-margin-top="0"
     fit-margin-left="0"
     fit-margin-right="0"
     fit-margin-bottom="0" />
  <g
     transform="translate(-2.2075929,-4.1748929)">
    <g
       id="g3118"
       transform="matrix(0.23820946,0,0,0.23820946,-166.29709,-160.53309)">
      <path
         id="path252"
         style="fill:#171717;fill-opacity:1;fill-rule:nonzero;stroke:none;stroke-width:0.133333"
         d="m 733.83465,748.83204 c 0.85333,-2.8 1.73333,-5.98667 2.93333,-9.04 -7.01333,-4.29333 -15.38666,-3.68 -16.77333,5.96 -1.16,8.17333 3.26667,14.90667 9.8,19.26667 1.10667,-5.46667 2.42667,-10.86667 4.04,-16.18667 z m 4.32,-12.13333 c 0.82666,-1.65334 1.77333,-3.22667 2.93333,-4.57333 -11.52,-3.37334 -25.10666,-5.84 -29.13333,9.23999 -1.68,6.26667 -2.4,14.09334 1.25333,19.89334 3.89334,6.17333 9.28,6.88 15.64,8.81333 0.18667,-1.05333 0.4,-2.12 0.6,-3.18667 -9.66666,-2.81333 -15.21333,-14.09333 -12.29333,-23.72 3.14667,-10.39999 12.68,-11.45333 21,-6.46666 z m 50.65333,-1.93334 c 3.65333,-3.33333 -0.12,-7.23999 -3.82667,-8.33333 -4.72,-1.41333 -9.76,-1.54666 -14.66666,-1.21333 -1.6,0.12 -20.69334,2.45333 -23.46667,4.76 -0.0667,0.14667 -0.14667,0.28 -0.26667,0.42667 -0.0267,0.0267 -0.04,0.0667 -0.0667,0.0933 -0.0133,0.0267 -0.0267,0.0667 -0.0133,0.0933 0.0267,0.22667 -0.16,0.41334 -0.36,0.45334 -2.85333,5.13333 14.76,7.22666 17.26667,7.42666 7.14667,0.54667 19.6,1.62667 25.4,-3.70667 z m 16,62.10667 c 1.58667,-9.84 -0.6,-20.14667 -1.85333,-29.92 -1.4,-10.90667 -3.01334,-23.14667 -10.02667,-32.01333 -0.2,0.30666 -0.41333,0.62666 -0.65333,0.94666 -6.37334,8.50667 -24.76,6.76 -33.66667,5.41334 -4.05333,-0.61334 -14.01333,-2.82667 -15.98667,-7.37334 -3.16,4.76 -4.61333,11.98667 -6.01333,17.05334 -2.56,9.24 -4.61333,18.69333 -5.78666,28.21333 -1.01334,8.12 -2.28,17.41333 -0.13334,25.45333 2.42667,9.01334 13.70667,10.49334 21.73333,11.28 16.50667,1.64 48.85334,2.82667 52.38667,-19.05333 z m 23.58667,-70.97333 c -1.4,-0.74667 -2.73334,-1.64 -3.90667,-2.65333 -0.32,-0.28 -0.65333,-0.57334 -0.97333,-0.88 -7.50667,6.77333 -13.73334,15.01333 -21.45334,21.50666 2.46667,7.01333 3.41334,14.96 4.24,21.33333 0.28,2.22667 0.65334,4.53334 1.02667,6.89334 1.32,-6.06667 6.06667,-13.32 8.21333,-17.56 4.72,-9.36 9.66667,-18.62667 12.85334,-28.64 z m 11.30666,-0.2 c 5.52,-0.46667 7.8,-4.01333 10.30667,-8.13333 -5.2,-2.10667 -10.46667,-6.50667 -14.38667,-9.49334 -3.74666,-2.85333 -7.01333,-5.97333 -9.46666,-9.8 -3.29334,3.22667 -6.97334,6.09334 -6.32,11.30667 0.57333,4.49333 3.53333,8.53333 7,11.32 3.53333,2.85333 8.21333,5.18667 12.86666,4.8 z m 15.32,-9.50667 c 3.74667,-0.42666 -2.04,-3.97333 -3.29333,-4.86666 -2.26667,-1.6 -4.58667,-3.12 -6.90667,-4.65334 -5.05333,-3.33333 -12.61333,-14.12 -19.04,-12.53333 4.10667,5.66667 9.85334,10.56 15.61334,14.4 4.02666,2.66667 9.50666,4.61333 13.10666,7.82667 0.16,-0.08 0.32,-0.14667 0.52,-0.17334 z m -3.78666,-8.76 c 3.57333,2.48 14,10.56 3.78666,11.61334 -0.48,0.0533 -0.82666,-0.10667 -1.05333,-0.37334 -0.26667,-0.04 -0.52,-0.08 -0.77333,-0.12 -2.8,9.97334 -13.02667,11.8 -21.57334,8.76 -3.05333,9.41333 -7.56,18.24 -12.06666,27.02667 -2.26667,4.38666 -4.52,8.78666 -6.53334,13.30666 -1.45333,3.24 -2.14666,7.41334 -4.74666,9.92 -0.04,0.0267 -0.08,0.04 -0.10667,0.0533 1.09333,7.68 1.69333,15.57333 -0.46667,22.6 -6.8,22.02666 -38.62666,21.08 -56.94666,18.93333 -7.70667,-0.90667 -18.90667,-2.68 -22.38667,-10.77333 -3.37333,-7.85334 -2.2,-18.08 -1.25333,-26.29334 0.36,-3.17333 0.81333,-6.33333 1.32,-9.49333 -17.25333,1.89333 -24.24,-18.34667 -19.70667,-32.12 5.14667,-15.65333 20.74667,-17.84 34.04,-10.17333 0.32,-0.70667 0.8,-1.44 1.49333,-2.22667 0.68,-0.77333 1.56,-0.62666 2.14667,-0.08 4.22667,-4.58666 23.66667,-6.05333 26.48,-6.12 5.09333,-0.0933 21.61333,2.02667 21.26667,9.54667 3.06666,2.57333 5.26666,6.05333 6.92,9.93333 6,-7.64 12.69333,-15.29333 20.14666,-21.4 -2.66666,-3.14666 -4.68,-7 -4.68,-11.09333 -0.0133,-5.41333 3.38667,-10.62667 8.66667,-12.18667 -0.41333,-0.76 -0.81333,-1.54666 -1.17333,-2.36 -0.38667,-0.30666 -0.48,-0.94666 0.08,-1.37333 4.76,-3.66667 9.65333,0.12 13.25333,3.68 4.33333,4.30667 8.88,7.36 13.86667,10.81333" />
      <path
         id="path254"
         style="fill:#f89b1b;fill-opacity:1;fill-rule:nonzero;stroke:none;stroke-width:0.133333"
         d="m 851.72798,711.32538 c 1.25333,0.89333 7.04,4.44 3.29333,4.86666 -0.2,0.0267 -0.36,0.0933 -0.52,0.17334 -3.6,-3.21334 -9.08,-5.16 -13.10666,-7.82667 -5.76,-3.84 -11.50667,-8.73333 -15.61334,-14.4 6.42667,-1.58667 13.98667,9.2 19.04,12.53333 2.32,1.53334 4.64,3.05334 6.90667,4.65334" />
      <path
         id="path256"
         style="fill:#f89b1b;fill-opacity:1;fill-rule:nonzero;stroke:none;stroke-width:0.133333"
         d="m 850.00798,717.56538 c -2.50667,4.12 -4.78667,7.66666 -10.30667,8.13333 -4.65333,0.38667 -9.33333,-1.94667 -12.86666,-4.8 -3.46667,-2.78667 -6.42667,-6.82667 -7,-11.32 -0.65334,-5.21333 3.02666,-8.08 6.32,-11.30667 2.45333,3.82667 5.72,6.94667 9.46666,9.8 3.92,2.98667 9.18667,7.38667 14.38667,9.49334" />
      <path
         id="path258"
         style="fill:#f89b1b;fill-opacity:1;fill-rule:nonzero;stroke:none;stroke-width:0.133333"
         d="m 824.48798,723.24538 c 1.17333,1.01333 2.50667,1.90666 3.90667,2.65333 -3.18667,10.01333 -8.13334,19.28 -12.85334,28.64 -2.14666,4.24 -6.89333,11.49333 -8.21333,17.56 -0.37333,-2.36 -0.74667,-4.66667 -1.02667,-6.89334 -0.82666,-6.37333 -1.77333,-14.32 -4.24,-21.33333 7.72,-6.49333 13.94667,-14.73333 21.45334,-21.50666 0.32,0.30666 0.65333,0.6 0.97333,0.88" />
      <path
         id="path260"
         style="fill:#f89b1b;fill-opacity:1;fill-rule:nonzero;stroke:none;stroke-width:0.133333"
         d="m 802.95465,766.95204 c 1.25333,9.77333 3.44,20.08 1.85333,29.92 -3.53333,21.88 -35.88,20.69333 -52.38667,19.05333 -8.02666,-0.78666 -19.30666,-2.26666 -21.73333,-11.28 -2.14666,-8.04 -0.88,-17.33333 0.13334,-25.45333 1.17333,-9.52 3.22666,-18.97333 5.78666,-28.21333 1.4,-5.06667 2.85333,-12.29334 6.01333,-17.05334 1.97334,4.54667 11.93334,6.76 15.98667,7.37334 8.90667,1.34666 27.29333,3.09333 33.66667,-5.41334 0.24,-0.32 0.45333,-0.64 0.65333,-0.94666 7.01333,8.86666 8.62667,21.10666 10.02667,32.01333" />
      <path
         id="path262"
         style="fill:#f89b1b;fill-opacity:1;fill-rule:nonzero;stroke:none;stroke-width:0.133333"
         d="m 784.98131,726.43204 c 3.70667,1.09334 7.48,5 3.82667,8.33333 -5.8,5.33334 -18.25333,4.25334 -25.4,3.70667 -2.50667,-0.2 -20.12,-2.29333 -17.26667,-7.42666 0.2,-0.04 0.38667,-0.22667 0.36,-0.45334 -0.0133,-0.0267 0,-0.0667 0.0133,-0.0933 0.0267,-0.0267 0.04,-0.0667 0.0667,-0.0933 0.12,-0.14667 0.2,-0.28 0.26667,-0.42667 2.77333,-2.30667 21.86667,-4.64 23.46667,-4.76 4.90666,-0.33333 9.94666,-0.2 14.66666,1.21333" />
      <path
         id="path264"
         style="fill:#f89b1b;fill-opacity:1;fill-rule:nonzero;stroke:none;stroke-width:0.133333"
         d="m 741.08798,732.12538 c -1.16,1.34666 -2.10667,2.91999 -2.93333,4.57333 -8.32,-4.98667 -17.85333,-3.93333 -21,6.46666 -2.92,9.62667 2.62667,20.90667 12.29333,23.72 -0.2,1.06667 -0.41333,2.13334 -0.6,3.18667 -6.36,-1.93333 -11.74666,-2.64 -15.64,-8.81333 -3.65333,-5.8 -2.93333,-13.62667 -1.25333,-19.89334 4.02667,-15.07999 17.61333,-12.61333 29.13333,-9.23999" />
    </g>
  </g>
</svg>
