<?xml version="1.0" encoding="UTF-8" standalone="no"?>
<svg
   xmlns:dc="http://purl.org/dc/elements/1.1/"
   xmlns:cc="http://creativecommons.org/ns#"
   xmlns:rdf="http://www.w3.org/1999/02/22-rdf-syntax-ns#"
   xmlns:svg="http://www.w3.org/2000/svg"
   xmlns="http://www.w3.org/2000/svg"
   xmlns:sodipodi="http://sodipodi.sourceforge.net/DTD/sodipodi-0.dtd"
   xmlns:inkscape="http://www.inkscape.org/namespaces/inkscape"
   width="108.23537"
   height="127.04887"
   viewBox="0 0 28.637273 33.615013"
   version="1.1"
   id="svg1331"
   inkscape:version="1.0.2-2 (e86c870879, 2021-01-15)">
  <defs
     id="defs1325" />
  <sodipodi:namedview
     id="base"
     pagecolor="#ffffff"
     bordercolor="#666666"
     borderopacity="1.0"
     inkscape:pageopacity="0.0"
     inkscape:pageshadow="2"
     inkscape:zoom="3.959798"
     inkscape:cx="45.042706"
     inkscape:cy="60.084216"
     inkscape:document-units="mm"
     inkscape:current-layer="layer1"
     inkscape:document-rotation="0"
     showgrid="false"
     units="px"
     inkscape:window-width="1920"
     inkscape:window-height="1001"
     inkscape:window-x="-9"
     inkscape:window-y="-9"
     inkscape:window-maximized="1"
     />
  <g
     transform="translate(-5.9938464,-3.5717903)">
    <g
       id="g3177"
       transform="matrix(0.26458333,0,0,0.26458333,-148.70506,-180.49907)">
      <path
         id="path312"
         style="fill:#171717;fill-opacity:1;fill-rule:nonzero;stroke:none;stroke-width:0.133333"
         d="m 681.58932,784.58271 c 0.14666,-7.10667 -0.0933,-14.37334 -1.61334,-21.34667 -0.81333,-3.77333 -1.82666,-9.08 -5.08,-11.70667 -0.0533,0.16 -0.08,0.30667 -0.14666,0.45334 -1.02667,2.52 -3.02667,4.73333 -5.93334,4.78666 -2.8,0.0667 -4.64,-1.22666 -5.76,-3.14666 -3.02666,11.06666 -4.08,23.13333 -4.41333,34.41333 -0.16,5.73333 -1.09333,36.08 11.53333,30.92 10.54667,-4.32 11.21334,-25.17333 11.41334,-34.37333 z m 7.04,-58.88 c 0.69333,-3.89333 1,-7.84 0.86666,-11.78667 -0.04,-1.36 -0.32,-2.82666 -0.4,-4.25333 -4.82666,-0.42667 -5.57333,2.37333 -5.46666,7 0.0667,3.38667 0.58666,6.93333 0.16,10.32 -0.45334,3.66667 -3.12,8.65333 -7.42667,8.86666 -8.41333,0.4 -7.02667,-19.97333 -7.78667,-24.90666 -0.24,-1.57333 -0.98666,-5.96 -2.17333,-2.16 -0.86667,2.73333 -1.02667,5.62667 -1.14667,8.48 -0.18666,4.81333 0.49334,10.62667 -1.37333,15.17333 -1.33333,3.24 -4.6,2.69333 -6.72,0.52 -2.18667,-2.22666 -4,-4.70666 -4.4,-7.90666 -0.76,-5.90667 1.36,-12.62667 -2.90667,-17.50667 -3.25333,5.81333 -2.34666,14.78667 -0.56,20.89333 0.98667,3.37334 2.32,7.22667 4.93334,9.70667 3.09333,2.94666 5.48,2.14666 9.29333,2.45333 0.89333,0.0667 1.69333,1.28 0.82667,1.98667 -0.0133,0.0133 -0.0133,0.0133 -0.0267,0.0267 -0.18667,2.73334 -0.41333,5.66667 0.93333,8.16 0.76,1.41334 1.94667,2.76 3.56,2.65334 1.46667,-0.10667 2.6,-1.64 3.01334,-3.16 0.37333,-1.38667 0.42666,-2.82667 0.29333,-4.25334 -0.16,-1.61333 -1.09333,-3.6 0.12,-4.96 0.17333,-0.18666 0.44,-0.29333 0.70667,-0.29333 0.0933,0 0.18666,0.0133 0.28,0.04 0.21333,-0.10667 0.45333,-0.17333 0.74666,-0.12 9.48,1.45333 13.25334,-7 14.65334,-14.97333 z m 2.78666,-18.66667 c 2.02667,2.68 1.48,8.42667 1.32,11.54667 -0.25333,4.72 -0.8,9.65333 -2.52,14.09333 -2.68,6.90667 -7.65333,12.26667 -15.10666,10.65333 0.29333,1.2 0.32,2.56 0.36,3.52 0.0133,0.44 0.0133,0.89334 0,1.34667 0.14666,0.04 0.30666,0.0933 0.46666,0.17333 4.36,2.38667 6.04,8.48 7.01334,12.96 1.74666,8.02667 2.26666,16.36 1.90666,24.56 -0.45333,10.09334 -1.45333,32.41334 -13.8,36.26667 -24.77333,7.72 -14.82666,-62.2 -9.4,-73.08 0,-0.0133 0.0267,-0.0267 0.0267,-0.04 -0.16,-1.70667 -0.04,-3.48 0.29333,-5.06667 -6.76,2.52 -13.37333,-6.54666 -15.21333,-12.18666 -2.46667,-7.46667 -4.4,-19.14667 1.50667,-25.6 0.26666,-0.30667 0.61333,-0.36 0.92,-0.28 0.24,-0.84 1.34666,-1.42667 2.21333,-0.65333 7.81333,7 0.50667,18.6 8.09333,25.36 2.25334,2 2.05334,-2.50667 2.16,-4.29334 0.14667,-2.68 0.18667,-5.34666 0.29334,-8.02666 0.14666,-3.65334 -0.21334,-10.49334 2.97333,-13.17334 2.08,-1.76 4.64,-1.57333 5.72,1.10667 1.84,4.6 1.57333,10.22667 2.06667,15.09333 0.34666,3.42667 0.89333,15.36 6.33333,9.30667 4.38667,-4.88 -3.17333,-28.92 10.4,-23.76 0.48,-0.6 1.50667,-0.44 1.97333,0.17333" />
      <path
         id="path314"
         style="fill:#babcba;fill-opacity:1;fill-rule:nonzero;stroke:none;stroke-width:0.133333"
         d="m 689.49598,713.91604 c 0.13334,3.94667 -0.17333,7.89334 -0.86666,11.78667 -1.4,7.97333 -5.17334,16.42666 -14.65334,14.97333 -0.29333,-0.0533 -0.53333,0.0133 -0.74666,0.12 -0.0933,-0.0267 -0.18667,-0.04 -0.28,-0.04 -0.26667,0 -0.53334,0.10667 -0.70667,0.29333 -1.21333,1.36 -0.28,3.34667 -0.12,4.96 0.13333,1.42667 0.08,2.86667 -0.29333,4.25334 -0.41334,1.52 -1.54667,3.05333 -3.01334,3.16 -1.61333,0.10666 -2.8,-1.24 -3.56,-2.65334 -1.34666,-2.49333 -1.12,-5.42666 -0.93333,-8.16 0.0133,-0.0133 0.0133,-0.0133 0.0267,-0.0267 0.86666,-0.70667 0.0667,-1.92 -0.82667,-1.98667 -3.81333,-0.30667 -6.2,0.49333 -9.29333,-2.45333 -2.61334,-2.48 -3.94667,-6.33333 -4.93334,-9.70667 -1.78666,-6.10666 -2.69333,-15.08 0.56,-20.89333 4.26667,4.88 2.14667,11.6 2.90667,17.50667 0.4,3.2 2.21333,5.68 4.4,7.90666 2.12,2.17333 5.38667,2.72 6.72,-0.52 1.86667,-4.54666 1.18667,-10.36 1.37333,-15.17333 0.12,-2.85333 0.28,-5.74667 1.14667,-8.48 1.18667,-3.8 1.93333,0.58667 2.17333,2.16 0.76,4.93333 -0.62666,25.30666 7.78667,24.90666 4.30667,-0.21333 6.97333,-5.19999 7.42667,-8.86666 0.42666,-3.38667 -0.0933,-6.93333 -0.16,-10.32 -0.10667,-4.62667 0.64,-7.42667 5.46666,-7 0.08,1.42667 0.36,2.89333 0.4,4.25333" />
      <path
         id="path316"
         style="fill:#f89b1b;fill-opacity:1;fill-rule:nonzero;stroke:none;stroke-width:0.133333"
         d="m 679.97598,763.23604 c 1.52,6.97333 1.76,14.24 1.61334,21.34667 -0.2,9.2 -0.86667,30.05333 -11.41334,34.37333 -12.62666,5.16 -11.69333,-25.18667 -11.53333,-30.92 0.33333,-11.28 1.38667,-23.34667 4.41333,-34.41333 1.12,1.92 2.96,3.21333 5.76,3.14666 2.90667,-0.0533 4.90667,-2.26666 5.93334,-4.78666 0.0667,-0.14667 0.0933,-0.29334 0.14666,-0.45334 3.25334,2.62667 4.26667,7.93334 5.08,11.70667" />
      <path
         id="path350"
         style="fill:#171717;fill-opacity:1;fill-rule:nonzero;stroke:none;stroke-width:0.133333"
         d="m 621.05598,785.52404 c 0.44,-6.88 0.50667,-13.88 -0.4,-20.73333 -0.29333,-2.18667 -1.09333,-11.70667 -4.32,-12.10667 -0.13333,-0.0133 -0.24,-0.0667 -0.36,-0.12 -0.28,0.86667 -0.6,1.65333 -0.92,2.22667 -1.24,2.30666 -3.41333,4.29333 -6.16,4.41333 -4.48,0.17333 -6.90666,-3.36 -7.70666,-7.34667 -7.58667,4.12 -5.62667,23.90667 -5,30.21334 0.66667,6.53333 1.8,13.16 4.05333,19.36 1.33333,3.65333 3.62667,10.10666 7.86667,11.44 10.90666,3.42666 12.57333,-21.45334 12.94666,-27.34667 z m 3.45334,-42.05333 c 2.98666,-0.64 3.89333,-2.13334 5.42666,-4.16 -0.94666,-11.98667 -1,-30.38667 -11.04,-38.14667 -8.44,-6.53333 -21.75999,1.04 -26.33333,8.96 -5.09333,8.81334 -5.34666,18.62667 -4.37333,28.45333 0.4,0.0667 0.76,0.36 0.82667,0.90667 0.0267,0.81333 0.22666,1.57333 0.6,2.28 4.64,0.46667 9.46666,0.66667 14.02666,1.46667 1.25333,0.21333 1.32,2.24 0.17333,2.61333 0.0933,3.33333 0.36,10.50667 5.08,10.01333 1.81334,-0.18666 3.12,-1.98666 3.65334,-3.57333 0.48,-1.41333 0.74666,-2.85333 0.77333,-4.33333 0.0133,-1.37334 -0.25333,-2.42667 0.77333,-3.45334 0.10667,-0.10666 0.24,-0.18666 0.4,-0.24 0.24,-0.29333 0.61334,-0.49333 1.12,-0.50666 2.90667,-0.08 6.04,0.32 8.89334,-0.28 z m 8.6,-2.53334 c 0.0667,0.73334 -0.33334,1.18667 -0.85334,1.37334 -1.12,2.01333 -3.34666,3.56 -5.49333,4.13333 -3.32,0.86667 -6.65333,0.62667 -10.01333,0.44 0.10666,0.82667 0.0667,1.74667 -0.0667,2.68 4.48,0.58667 5.88,6.85333 6.57333,10.49333 1.56,8.34667 1.77334,17.01334 1.14667,25.46667 -0.6,7.93333 -2.34667,33.77333 -15.98667,30.90667 -12.33333,-2.58667 -14.73333,-24.65334 -15.55999,-34.36 -0.65334,-7.69334 -2.73334,-29.76 8.02666,-32.6 -0.0533,-1.16 0.0133,-2.30667 0.21333,-3.36 -4.21333,0.14666 -8.74666,-0.73334 -12.71999,-1.61334 -0.46667,-0.10666 -0.86667,-0.54666 -1,-1 -0.21334,-0.85333 -0.33334,-1.57333 -0.36,-2.32 -0.33334,-0.0933 -0.61334,-0.30666 -0.72,-0.69333 -3.21334,-11.48 -1.73334,-24.93333 5.57333,-34.58666 5.32,-7.01334 16.41333,-12.42667 25.16,-9.28 14.49333,5.22666 14.86666,29.28 15.93333,42.61333 0.0133,0.08 0.04,0.17333 0.04,0.25333 0,0.0667 0,0.14667 -0.0133,0.21333 0.04,0.42667 0.08,0.84 0.12,1.24" />
      <path
         id="path352"
         style="fill:#babcba;fill-opacity:1;fill-rule:nonzero;stroke:none;stroke-width:0.133333"
         d="m 629.93598,739.31071 c -1.53333,2.02666 -2.44,3.52 -5.42666,4.16 -2.85334,0.6 -5.98667,0.2 -8.89334,0.28 -0.50666,0.0133 -0.88,0.21333 -1.12,0.50666 -0.16,0.0533 -0.29333,0.13334 -0.4,0.24 -1.02666,1.02667 -0.76,2.08 -0.77333,3.45334 -0.0267,1.48 -0.29333,2.92 -0.77333,4.33333 -0.53334,1.58667 -1.84,3.38667 -3.65334,3.57333 -4.72,0.49334 -4.98666,-6.68 -5.08,-10.01333 1.14667,-0.37333 1.08,-2.4 -0.17333,-2.61333 -4.56,-0.8 -9.38666,-1 -14.02666,-1.46667 -0.37334,-0.70667 -0.57334,-1.46667 -0.6,-2.28 -0.0667,-0.54667 -0.42667,-0.84 -0.82667,-0.90667 -0.97333,-9.82666 -0.72,-19.63999 4.37333,-28.45333 4.57334,-7.92 17.89333,-15.49333 26.33333,-8.96 10.04,7.76 10.09334,26.16 11.04,38.14667" />
      <path
         id="path354"
         style="fill:#5fc457;fill-opacity:1;fill-rule:nonzero;stroke:none;stroke-width:0.133333"
         d="m 620.65598,764.79071 c 0.90667,6.85333 0.84,13.85333 0.4,20.73333 -0.37333,5.89333 -2.04,30.77333 -12.94666,27.34667 -4.24,-1.33334 -6.53334,-7.78667 -7.86667,-11.44 -2.25333,-6.2 -3.38666,-12.82667 -4.05333,-19.36 -0.62667,-6.30667 -2.58667,-26.09334 5,-30.21334 0.8,3.98667 3.22666,7.52 7.70666,7.34667 2.74667,-0.12 4.92,-2.10667 6.16,-4.41333 0.32,-0.57334 0.64,-1.36 0.92,-2.22667 0.12,0.0533 0.22667,0.10667 0.36,0.12 3.22667,0.4 4.02667,9.92 4.32,12.10667" />
    </g>
  </g>
</svg>
