<?xml version="1.0" encoding="UTF-8" standalone="no"?>
<svg
   xmlns:dc="http://purl.org/dc/elements/1.1/"
   xmlns:cc="http://creativecommons.org/ns#"
   xmlns:rdf="http://www.w3.org/1999/02/22-rdf-syntax-ns#"
   xmlns:svg="http://www.w3.org/2000/svg"
   xmlns="http://www.w3.org/2000/svg"
   xmlns:sodipodi="http://sodipodi.sourceforge.net/DTD/sodipodi-0.dtd"
   xmlns:inkscape="http://www.inkscape.org/namespaces/inkscape"
   width="138.73062"
   height="118.42654"
   viewBox="0 0 36.705809 31.333689"
   version="1.1"
   id="svg1331"
   inkscape:version="1.0.2-2 (e86c870879, 2021-01-15)">
  <defs
     id="defs1325" />
  <sodipodi:namedview
     id="base"
     pagecolor="#ffffff"
     bordercolor="#666666"
     borderopacity="1.0"
     inkscape:pageopacity="0.0"
     inkscape:pageshadow="2"
     inkscape:zoom="3.959798"
     inkscape:cx="40.414343"
     inkscape:cy="44.798743"
     inkscape:document-units="mm"
     inkscape:current-layer="layer1"
     inkscape:document-rotation="0"
     showgrid="false"
     units="px"
     inkscape:window-width="1920"
     inkscape:window-height="1001"
     inkscape:window-x="-9"
     inkscape:window-y="-9"
     inkscape:window-maximized="1"
     fit-margin-top="0"
     fit-margin-left="0"
     fit-margin-right="0"
     fit-margin-bottom="0" />
  <g
     transform="translate(-1.2245877,-4.0442815)">
    <g
       id="g2712"
       transform="matrix(0.22876947,0,0,0.22876947,-61.154884,-118.5184)">
      <path
         id="path620"
         style="fill:#7dceb5;fill-opacity:1;fill-rule:nonzero;stroke:none;stroke-width:0.133333"
         d="m 352.66666,555.11071 c 0,0 -8.66667,8.88934 -9.11067,11.112 -0.44533,2.22134 0.66667,13.33334 2.66667,18.22134 2,4.88933 2.444,13.112 3.11066,16.66666 0.66667,3.556 -0.22266,13.77867 -1.77733,16.22267 -1.556,2.444 -2,2.88933 -4,2.88933 -2,0 -5.33333,-3.556 -7.112,-6.88933 -1.77733,-3.33334 -2.22133,-13.556 -2.22133,-13.556 0,0 -4.66667,3.33333 -6,7.33333 -1.33333,4 -8.66667,19.556 -10,22.44533 -1.33333,2.888 -6,9.77734 -8.66667,10.888 -2.66666,1.112 -4.22266,0.88934 -4.44533,-1.33333 -0.22133,-2.22133 1.33333,-8 3.112,-12.22133 1.77733,-4.22267 4.888,-12.66667 4.888,-12.66667 0,0 -1.77733,0.888 -4.22133,2.888 -2.44534,2 -12.44534,18.22267 -16.22267,19.77867 -3.77733,1.55466 -6.66667,2 -7.11067,-1.112 -0.44533,-3.11067 3.33334,-9.33334 5.11067,-11.77734 1.77733,-2.444 14.22267,-15.11066 14.66667,-16.66666 0.444,-1.556 0.88933,-3.11067 -0.66667,-3.77734 -1.556,-0.66666 -6.66667,0.888 -8.88933,3.33334 -2.22134,2.444 -11.11067,12.444 -14.888,13.33333 -3.77867,0.888 -4.22267,-2.66667 -2.66667,-5.556 1.55467,-2.88933 8.22133,-8.22267 11.33333,-11.556 3.11067,-3.33333 6.22134,-5.77733 5.11067,-7.33333 -1.11067,-1.55467 -5.11067,0.44533 -8.22267,1.77867 -3.11066,1.33333 -6.888,5.99999 -9.77733,4.88799 -2.88933,-1.11066 -2.66667,-3.11066 -1.11067,-5.99999 1.55467,-2.888 7.33334,-8.444 10,-10.66667 2.66667,-2.22133 12.888,-9.11067 16.22134,-13.77733 3.33333,-4.66667 8.22266,-11.556 9.77866,-15.556 1.55467,-4 4.22134,-7.33334 4.888,-10.888 0.66667,-3.556 1.556,-8.88934 1.556,-8.88934 0,0 8,0 13.77734,1.77734 5.77866,1.77866 13.99999,6.88933 16.66666,8.66666 2.66667,1.77867 4.22267,8 4.22267,8" />
      <path
         id="path622"
         style="fill:#7dceb5;fill-opacity:1;fill-rule:nonzero;stroke:none;stroke-width:0.133333"
         d="m 353.55599,584.66671 c 0,0 1.11067,-5.11066 6,-8.444 4.888,-3.33333 9.77733,-5.77866 13.11067,-6.88933 3.33333,-1.11067 8.66666,-2 10.88933,-2.66667 2.22133,-0.66666 4.444,0.22267 4.444,0.22267 0,0 0.66667,10.22133 4.88933,18.22133 4.22134,8 12.66667,19.33333 16.444,22.44533 3.77734,3.11067 13.77734,10 16.22267,12.66667 2.444,2.66667 6.444,6.888 6.22133,9.33333 -0.22133,2.444 -0.66666,3.33334 -3.33333,2.66667 -2.66667,-0.66667 -8,-2.88933 -9.77733,-4.88933 -1.77734,-2 -7.11067,-2.444 -7.556,-1.11067 -0.444,1.33333 6.88933,8.444 9.556,10.66667 2.66666,2.22133 6.66666,6.22133 7.33333,8.66666 0.66667,2.444 1.77733,6.22134 -0.444,5.55467 -2.22267,-0.66667 -8,-3.77733 -9.77867,-5.77733 -1.77733,-2 -7.55466,-8 -9.55466,-9.556 -2,-1.55467 -5.77867,-3.77734 -7.556,-2.22134 -1.77734,1.55467 4.88933,8.888 7.11066,11.33334 2.22267,2.444 7.556,9.55466 9.556,13.55466 2,4 3.77734,8 2.22267,9.33334 -1.556,1.33333 -7.556,-1.55467 -9.33333,-3.55467 -1.77867,-2 -11.112,-15.556 -13.112,-17.112 -2,-1.55467 -5.77734,-5.11067 -4.444,-2 1.33333,3.112 7.33333,15.556 7.77733,18.66667 0.44533,3.112 0.88933,5.77866 -1.11067,6.22266 -2,0.444 -6.444,-2 -8.22266,-4.22266 -1.77734,-2.22134 -8.22134,-16.444 -9.55467,-19.33334 -1.33333,-2.888 -4.44533,-12.444 -6.88933,-14.22133 -2.444,-1.77867 -2.66667,-3.112 -2.88934,-0.66667 -0.22133,2.444 -2.444,14.66667 -5.77733,17.55467 -3.33333,2.88933 -4.22267,3.77867 -6.22267,1.77867 -2,-2 -3.55466,-12.44534 -3.11066,-16 0.444,-3.556 0.66666,-15.556 2.66666,-20.44534 2,-4.888 4.66667,-14 3.556,-17.11066 -1.112,-3.11067 -4.22266,-7.556 -5.556,-8.444 -1.33333,-0.88933 -3.77733,-4.22267 -3.77733,-4.22267" />
      <path
         id="path624"
         style="fill:#80544a;fill-opacity:1;fill-rule:nonzero;stroke:none;stroke-width:0.133333"
         d="m 352.93066,585.70405 c 4.69866,4.98666 10.19333,9.284 8.364,16.84666 -1.46667,6.06267 -3.61467,11.76667 -4.42534,17.99333 -1.09066,8.37334 -1.85733,17.62 0.0253,25.97734 0.74266,3.29466 2.32266,7.6 6.44666,5.99866 7.49867,-2.912 8.632,-16.132 9.58134,-22.57066 -0.56534,0.23066 -1.13067,0.46 -1.69734,0.69066 4.756,2.304 5.89867,8.324 7.51467,12.86 1.67733,4.70267 4.112,9.00534 6.53733,13.35467 2.51467,4.508 6.13067,14.232 11.88,15.63067 13.24,3.22 -4.04133,-28.63734 -4.45066,-30.90934 -0.67867,0.396 -1.35734,0.79067 -2.036,1.18667 4.912,4.17867 8.32,9.624 12.396,14.556 2.90266,3.512 5.64133,8.052 9.27733,10.864 3.008,2.32533 8.52133,3.06533 9.10667,-1.812 0.67333,-5.60667 -5.26,-12.73067 -8.26267,-16.89333 -2.09467,-2.90534 -13.38,-13.232 -11.71067,-15.75467 0.85334,-1.28933 -1.22133,-2.492 -2.068,-1.20933 -2.27333,3.44533 3.01734,8.212 5.12534,10.48933 3.43466,3.71067 6.53066,7.304 9.3,11.57333 1.67066,2.57334 3.45733,5.32267 4.464,8.248 0.62,1.80134 1.72533,3.968 -1.12,4.812 -2.796,0.82934 -6.488,-4.72133 -7.76534,-6.37333 -5.29066,-6.83733 -10.412,-14.60267 -17.02,-20.224 -0.952,-0.80933 -2.256,-0.032 -2.03733,1.18533 1.124,6.24134 5.19467,11.45734 7.55733,17.24534 0.79734,1.95333 4.64667,11.01733 -0.828,10.34 -2.676,-0.33067 -5.26933,-6.16534 -6.47733,-8.276 -4.00533,-6.996 -7.88,-13.91067 -10.56,-21.52667 -1.536,-4.36267 -3.20267,-9.25733 -7.656,-11.36267 -0.58667,-0.27733 -1.58667,-0.11333 -1.69733,0.69067 -0.54667,3.96667 -1.00267,8.02533 -2.21067,11.85733 -1.004,3.188 -6.824,14.024 -9.25467,5.94267 -2.10133,-6.988 -1.38,-15.52267 -0.724,-22.59333 0.50934,-5.496 1.54267,-10.66534 3.05067,-15.95334 0.86267,-3.02666 2.38667,-6.50133 2.24933,-9.73066 -0.256,-5.97467 -6.25466,-10.23467 -10.388,-13.63867 -0.33733,-0.27733 -0.796,0.15734 -0.48666,0.48534 v 0" />
      <path
         id="path626"
         style="fill:#80544a;fill-opacity:1;fill-rule:nonzero;stroke:none;stroke-width:0.133333"
         d="m 400.83066,633.78538 c 6.07333,0.272 10.54533,7.524 14.748,11.26933 3.66533,3.26667 7.53866,5.88533 12.07733,7.79867 0.63467,0.268 1.30933,-0.296 1.50133,-0.852 4.12534,-11.92667 -14.33066,-17.83334 -18.12933,-26.82934 -0.22,0.54 -0.44,1.08134 -0.66,1.62134 6.292,-1.524 9.81733,3.41466 15.028,5.66266 1.588,0.684 4.65867,1.92 6.37867,0.83734 3.66,-2.30267 -1.11734,-7.94134 -2.724,-10.02134 -6.128,-7.93066 -15.40267,-12.092 -21.85467,-19.65866 -8.18,-9.59467 -18.18,-23.648 -17.99467,-36.74933 0.02,-1.492 -2.26133,-1.48534 -2.31333,0 -0.32,9.10666 4.88667,18.50266 9.52133,26.06666 4.77467,7.78933 10.66534,15.08 18.124,20.40667 1.672,1.19333 19.39467,13.46533 15.48667,18.05066 -1.468,1.72267 -9.864,-4.96666 -11.70933,-5.876 -2.856,-1.408 -5.44534,-1.604 -8.52934,-0.848 -0.52666,0.12934 -1,0.81734 -0.772,1.35867 3.46534,8.224 21.57067,15.13733 17.79334,25.32933 0.59733,-0.244 1.196,-0.48666 1.79333,-0.73066 -6.97867,-3.00267 -12.176,-8.05467 -17.51333,-13.29467 -3.052,-2.99733 -5.96267,-5.57867 -10.42934,-4.85067 -0.77066,0.12534 -0.53866,1.27734 0.17734,1.30934 v 0" />
      <path
         id="path628"
         style="fill:#80544a;fill-opacity:1;fill-rule:nonzero;stroke:none;stroke-width:0.133333"
         d="m 387.65732,566.05871 c -7.49066,-0.58133 -15.39333,1.964 -22.01866,5.308 -4.83067,2.43867 -13.01334,7.468 -12.976,13.70667 0.003,0.40533 0.584,0.72267 0.872,0.36133 1.72666,-2.16933 2.76266,-4.66933 4.77866,-6.692 2.756,-2.764 6.29467,-4.79866 9.796,-6.45866 6.204,-2.94134 12.888,-4.47734 19.65867,-5.40667 0.492,-0.0667 0.32533,-0.784 -0.11067,-0.81867 v 0" />
      <path
         id="path630"
         style="fill:#80544a;fill-opacity:1;fill-rule:nonzero;stroke:none;stroke-width:0.133333"
         d="m 363.25066,600.57471 c 4.19066,-3.96266 8.884,-7.03733 14.18,-9.32533 4.87066,-2.104 10.3,-2.17333 15.01733,-4.11333 0.49733,-0.20534 0.50533,-0.82134 0,-1.024 -4.62267,-1.86 -11.69067,1.484 -15.872,3.41733 -5.248,2.428 -10.724,5.62933 -14.192,10.376 -0.38133,0.52266 0.428,1.08533 0.86667,0.66933 v 0" />
      <path
         id="path632"
         style="fill:#80544a;fill-opacity:1;fill-rule:nonzero;stroke:none;stroke-width:0.133333"
         d="m 357.42799,577.16805 c 3.08267,5.944 7.22533,11.11733 9.57467,17.45066 0.40933,1.10267 2.168,0.65467 1.788,-0.492 -2.14667,-6.47333 -6.624,-11.96666 -10.572,-17.42133 -0.34134,-0.472 -1.068,-0.0693 -0.79067,0.46267 v 0" />
      <path
         id="path634"
         style="fill:#80544a;fill-opacity:1;fill-rule:nonzero;stroke:none;stroke-width:0.133333"
         d="m 366.34799,571.73871 c 1.47067,3.40267 2.86667,6.79067 4.63733,10.05334 1.512,2.78666 3.132,6.116 5.60667,8.148 0.73867,0.60666 1.79867,-0.136 1.34133,-1.03467 -1.53066,-3.008 -3.89066,-5.68267 -5.62266,-8.612 -1.76267,-2.98 -3.50534,-5.98267 -5.18934,-9.00667 -0.288,-0.516 -0.996,-0.0627 -0.77333,0.452 v 0" />
      <path
         id="path636"
         style="fill:#80544a;fill-opacity:1;fill-rule:nonzero;stroke:none;stroke-width:0.133333"
         d="m 378.68532,568.02538 c 0.368,3.13067 1.33867,5.84933 2.79067,8.64133 1.69867,3.268 3.30533,7.02267 5.41733,10.016 0.59067,0.83867 1.784,0.31734 1.61734,-0.68133 -0.49867,-2.99067 -2.55867,-5.688 -4.092,-8.244 -1.876,-3.12667 -3.79734,-6.34133 -4.85334,-9.85067 -0.13866,-0.46 -0.94133,-0.40266 -0.88,0.11867 v 0" />
      <path
         id="path638"
         style="fill:#80544a;fill-opacity:1;fill-rule:nonzero;stroke:none;stroke-width:0.133333"
         d="m 352.41466,555.21871 c -4.18267,3.44534 -9.95334,7.56534 -10.37067,13.51867 -0.20667,2.94133 1.132,5.97067 1.912,8.74667 1.59467,5.66666 2.824,11.16 3.372,17.05733 0.64667,6.98266 1.30133,15.096 -0.58533,22.004 -1.96267,7.184 -7.088,0.61733 -8.73467,-3.61334 -1.69333,-4.34933 -2.23733,-9.00266 -2.87067,-13.59733 -0.11066,-0.804 -1.11066,-0.968 -1.69733,-0.69066 -4.45333,2.10533 -6.11866,6.99733 -7.65466,11.36266 -2.68267,7.61867 -6.55467,14.52667 -10.56,21.52667 -1.03067,1.8 -4.11067,8.16266 -6.47734,8.276 -3.48533,0.168 -2.752,-4.532 -2.25866,-6.33867 0.37333,-1.36133 0.896,-2.696 1.42933,-4.00133 2.36267,-5.788 6.43333,-11.00267 7.55733,-17.24534 0.21867,-1.21466 -1.08266,-1.99733 -2.03733,-1.18533 -6.60933,5.62267 -11.72533,13.38133 -17.01867,20.224 -1.27866,1.652 -4.97066,7.20267 -7.76666,6.37333 -2.84534,-0.844 -1.74,-3.01066 -1.12,-4.812 1.00666,-2.92666 2.79066,-5.67066 4.464,-8.248 2.76533,-4.26133 5.868,-7.86666 9.3,-11.57333 2.132,-2.30267 7.40666,-7.032 5.12533,-10.48933 -0.84533,-1.28134 -2.92267,-0.0813 -2.068,1.20933 1.71067,2.58533 -9.31067,12.46533 -11.40267,15.33067 -3.06533,4.2 -9.32266,11.624 -8.57066,17.31733 0.588,4.456 5.41333,4.32 8.53066,2.27067 3.74267,-2.46 6.41067,-7.19467 9.24534,-10.57867 4.30933,-5.14667 7.852,-10.91733 13.00533,-15.3 -0.68,-0.396 -1.35867,-0.79067 -2.03733,-1.18667 -0.40934,2.272 -17.69067,34.12934 -4.45067,30.90934 5.74933,-1.39867 9.36533,-11.12267 11.88,-15.63067 2.42667,-4.34933 4.86,-8.652 6.53733,-13.35467 1.616,-4.536 2.75867,-10.556 7.51467,-12.86 -0.56534,-0.23066 -1.132,-0.46 -1.69733,-0.69066 0.94933,6.43866 2.08266,19.65866 9.58266,22.57066 4.12267,1.60134 5.70267,-2.704 6.44533,-5.99866 1.88267,-8.35734 1.11734,-17.604 0.0253,-25.97733 -0.81067,-6.22667 -2.95867,-11.93067 -4.42534,-17.99334 -1.82933,-7.56266 3.66534,-11.86 8.364,-16.84666 0.30934,-0.328 -0.14933,-0.76267 -0.48666,-0.48534 v 0" />
      <path
         id="path640"
         style="fill:#80544a;fill-opacity:1;fill-rule:nonzero;stroke:none;stroke-width:0.133333"
         d="m 305.17866,602.47604 c -4.46667,-0.728 -7.38133,1.85734 -10.42933,4.85067 -5.34134,5.244 -10.528,10.28933 -17.51334,13.29467 0.59734,0.244 1.196,0.48666 1.79334,0.73066 -3.78,-10.19866 14.32,-17.084 17.79333,-25.32933 0.228,-0.54 -0.24933,-1.23066 -0.772,-1.35866 -3.084,-0.756 -5.67333,-0.56 -8.52933,0.848 -1.90534,0.93866 -10.21734,7.62799 -11.70934,5.87599 -3.91866,-4.59866 13.764,-16.82133 15.48667,-18.05066 7.456,-5.324 13.35067,-12.62 18.124,-20.40667 4.648,-7.58533 9.84133,-16.94533 9.52133,-26.06666 -0.052,-1.48267 -2.33333,-1.49467 -2.31333,0 0.18133,12.83866 -9.42267,26.37866 -17.29867,35.912 -6.57866,7.96666 -16.20666,12.28666 -22.55066,20.496 -1.524,1.97333 -6.20134,7.42933 -3.02534,9.88666 1.68267,1.30267 4.94134,0.0387 6.54534,-0.64667 5.264,-2.248 8.80266,-7.25866 15.16266,-5.71866 -0.22,-0.54 -0.44,-1.08133 -0.66,-1.62133 -3.80666,9.01466 -22.25866,14.89066 -18.12933,26.82933 0.19333,0.56 0.86133,1.12266 1.50133,0.852 4.54934,-1.91734 8.404,-4.524 12.07734,-7.79867 4.21866,-3.76 8.636,-10.996 14.748,-11.26933 0.70933,-0.032 0.956,-1.18267 0.17733,-1.30934 v 0" />
      <path
         id="path642"
         style="fill:#80544a;fill-opacity:1;fill-rule:nonzero;stroke:none;stroke-width:0.133333"
         d="m 318.06399,536.87738 c 6.772,0.93067 13.45334,2.46533 19.65867,5.40667 3.29333,1.56133 6.572,3.44133 9.24133,5.948 2.32,2.17866 3.42933,4.80933 5.33333,7.20266 0.288,0.36134 0.86934,0.0467 0.872,-0.36133 0.0373,-6.23467 -8.16266,-11.276 -12.976,-13.70667 -6.628,-3.34533 -14.52666,-5.88933 -22.01866,-5.308 -0.43067,0.0347 -0.608,0.75067 -0.11067,0.81867 v 0" />
      <path
         id="path644"
         style="fill:#80544a;fill-opacity:1;fill-rule:nonzero;stroke:none;stroke-width:0.133333"
         d="m 343.44932,569.90538 c -3.472,-4.752 -8.93866,-7.94533 -14.19333,-10.376 -4.15866,-1.924 -11.276,-5.26667 -15.872,-3.41733 -0.504,0.20266 -0.49866,0.81866 0,1.024 4.72,1.94133 10.144,2.004 15.01734,4.11333 5.29599,2.29333 9.98533,5.35867 14.17999,9.32533 0.43467,0.41067 1.252,-0.14266 0.868,-0.66933 v 0" />
      <path
         id="path646"
         style="fill:#80544a;fill-opacity:1;fill-rule:nonzero;stroke:none;stroke-width:0.133333"
         d="m 347.61332,546.70538 c -3.948,5.456 -8.42533,10.94667 -10.572,17.42133 -0.38,1.144 1.37867,1.596 1.788,0.492 2.34934,-6.33333 6.492,-11.50666 9.576,-17.45066 0.276,-0.532 -0.45066,-0.93467 -0.792,-0.46267 v 0" />
      <path
         id="path648"
         style="fill:#80544a;fill-opacity:1;fill-rule:nonzero;stroke:none;stroke-width:0.133333"
         d="m 338.71066,541.28671 c -1.684,3.024 -3.42667,6.02667 -5.18934,9.00667 -1.73333,2.92933 -4.09199,5.604 -5.62266,8.612 -0.45467,0.892 0.59733,1.64533 1.34133,1.03467 2.46534,-2.024 4.10267,-5.376 5.60667,-8.148 1.76933,-3.26134 3.168,-6.652 4.63733,-10.05334 0.22267,-0.51333 -0.48533,-0.96933 -0.77333,-0.452 v 0" />
      <path
         id="path650"
         style="fill:#80544a;fill-opacity:1;fill-rule:nonzero;stroke:none;stroke-width:0.133333"
         d="m 326.26666,537.90671 c -1.056,3.508 -2.97733,6.72534 -4.852,9.85067 -1.53867,2.56267 -3.59333,5.25067 -4.09333,8.244 -0.16534,0.99067 1.02266,1.52667 1.61866,0.68133 2.112,-2.99466 3.71734,-6.748 5.416,-10.016 1.452,-2.792 2.42267,-5.50666 2.79067,-8.64133 0.0613,-0.516 -0.74,-0.584 -0.88,-0.11867 v 0" />
    </g>
  </g>
</svg>
