<?xml version="1.0" encoding="UTF-8" standalone="no"?>
<svg
   xmlns:dc="http://purl.org/dc/elements/1.1/"
   xmlns:cc="http://creativecommons.org/ns#"
   xmlns:rdf="http://www.w3.org/1999/02/22-rdf-syntax-ns#"
   xmlns:svg="http://www.w3.org/2000/svg"
   xmlns="http://www.w3.org/2000/svg"
   xmlns:sodipodi="http://sodipodi.sourceforge.net/DTD/sodipodi-0.dtd"
   xmlns:inkscape="http://www.inkscape.org/namespaces/inkscape"
   width="132.79526"
   height="140.9343"
   viewBox="0 0 35.135411 37.288867"
   version="1.1"
   id="svg1331"
   inkscape:version="1.0.2-2 (e86c870879, 2021-01-15)">
  <defs
     id="defs1325" />
  <sodipodi:namedview
     id="base"
     pagecolor="#ffffff"
     bordercolor="#666666"
     borderopacity="1.0"
     inkscape:pageopacity="0.0"
     inkscape:pageshadow="2"
     inkscape:zoom="3.959798"
     inkscape:cx="50.503588"
     inkscape:cy="58.226046"
     inkscape:document-units="mm"
     inkscape:current-layer="layer1"
     inkscape:document-rotation="0"
     showgrid="false"
     units="px"
     inkscape:window-width="1920"
     inkscape:window-height="1001"
     inkscape:window-x="-9"
     inkscape:window-y="-9"
     inkscape:window-maximized="1"
     fit-margin-top="0"
     fit-margin-left="0"
     fit-margin-right="0"
     fit-margin-bottom="0" />
  <g
     transform="translate(-1.9632257,-1.7259327)">
    <g
       id="g2771"
       transform="matrix(0.16992021,-0.08078359,0.08078359,0.16992021,-131.50801,35.049397)">
      <path
         id="path486"
         style="fill:#c5c4c3;fill-opacity:1;fill-rule:nonzero;stroke:none;stroke-width:0.133333"
         d="m 738.69065,309.34539 3.14933,-21.65867 c 0,0 4.34533,-20.64133 4.46,-21.988 0.11333,-1.34667 0.26267,-10.5 0.26267,-10.5 l 0.06,-2.012 -3.09467,-2.424 c 0,0 -1.64,-0.98133 -4.05333,-3.23867 -2.412,-2.25733 -13.61867,-16.732 -15.47467,-20.372 -1.85466,-3.64 -10.912,-21.856 -13.24666,-25.90266 -2.33467,-4.04667 -6.71734,-16.84533 -6.78267,-20.408 -0.0667,-3.56133 1.44267,-9.704 1.44267,-9.704 l 22.08933,33.21333 14.52266,25.13067 6.14267,9.75733 -2.32267,-25.89733 -2.50266,-19.86267 -1.508,-35.104 c 0,0 5.896,3.98134 8.33866,9.35734 2.44267,5.376 5.74667,21.38266 6.77067,25.75866 1.02267,4.376 3.44133,28.70533 3.376,33.392 -0.0667,4.688 -0.952,13.00933 -1.23333,15.03867 -0.28134,2.02933 -2.35867,6.656 -2.35867,6.656 l -0.67067,2.73066 18.288,24.82534 16.04934,19.20933 c 0,0 -1.20267,1.65867 -2.20267,3.07733 -1,1.41867 -2.14267,1.06534 -2.14267,1.06534 0,0 -8.38666,-12.69734 -11.776,-15.98934 -3.388,-3.292 -13.26533,-17.87466 -13.26533,-17.87466 l -8.812,-12.44 -1.51467,0.568 -4.70533,49.208 -2.65733,8.46533 -4.628,-2.07733" />
      <path
         id="path488"
         style="fill:#3d976e;fill-opacity:1;fill-rule:nonzero;stroke:none;stroke-width:0.133333"
         d="m 752.80398,245.55205 c 0,0 -1.01867,3.928 -3.49733,4.296 -2.47867,0.368 -4.256,-2.99866 -3.20134,-4.42266 1.05467,-1.42267 3.20134,-1.764 4.74934,-1.22134 1.54933,0.544 1.94933,1.348 1.94933,1.348" />
      <path
         id="path490"
         style="fill:#3d976e;fill-opacity:1;fill-rule:nonzero;stroke:none;stroke-width:0.133333"
         d="m 757.42398,265.40939 2.94,3.27333 c 0,0 4.364,-1.85867 5.62667,-2.79733 1.26133,-0.93734 2.48266,-2.37467 2.48266,-2.37467 l -3.49333,-3.89733 c 0,0 -3.076,1.25333 -4.476,2.53733 -1.40133,1.284 -3.08,3.25867 -3.08,3.25867" />
      <path
         id="path492"
         style="fill:#3d976e;fill-opacity:1;fill-rule:nonzero;stroke:none;stroke-width:0.133333"
         d="m 751.11998,268.09472 -0.50667,4.05467 c 0,0 -7.23866,-0.584 -8.27466,-1.00134 -1.03734,-0.41733 0.036,-3.68133 0.036,-3.68133 l 0.74933,-1.06533 c 0,0 3.87467,0.356 5.716,0.37333 1.84,0.0173 2.28,1.32 2.28,1.32" />
      <path
         id="path494"
         style="fill:#3d976e;fill-opacity:1;fill-rule:nonzero;stroke:none;stroke-width:0.133333"
         d="m 744.11598,311.63605 c 0,0 2.57733,4.97467 2.03867,10.704 -0.53867,5.72934 -3.144,31.356 -4.136,35.61733 -0.992,4.26134 -2.932,11.27334 -5.244,11.628 -2.312,0.35467 -5.50933,0.11334 -6.276,-3.16933 -0.768,-3.28133 -0.61067,-11.656 -0.15733,-16.37467 0.45333,-4.71866 1.764,-15.35866 1.96666,-19.05466 0.20134,-3.69467 1.31467,-12.64667 1.63867,-14.84667 0.32266,-2.2 0.644,-7.18666 4.744,-6.79466 4.10133,0.392 5.42533,2.29066 5.42533,2.29066" />
      <path
         id="path496"
         style="fill:#3d976e;fill-opacity:1;fill-rule:nonzero;stroke:none;stroke-width:0.133333"
         d="m 788.91065,296.96805 c 0,0 -3.20134,1.76534 -2.39334,5.54534 0.808,3.78 9.88667,16.756 9.88667,16.756 l 15.04,20.51866 c 0,0 5.712,8.56667 9.07467,8.79467 3.36266,0.22933 6.18666,0 6.08266,-3.336 -0.10266,-3.336 -3.10666,-9.44667 -5.436,-13.43733 -2.33066,-3.992 -13.17733,-18.16134 -13.71733,-18.61867 -0.53867,-0.45867 -8.67333,-14.17867 -11.32667,-15.97067 -2.65333,-1.792 -3.592,-3.05333 -7.21066,-0.252" />
      <path
         id="path498"
         style="fill:#80544a;fill-opacity:1;fill-rule:nonzero;stroke:none;stroke-width:0.133333"
         d="m 756.63865,245.02672 c 0.29733,-4.144 -3.54134,-6.12267 -7.30667,-5.88267 -4.45333,0.284 -7.89733,3.46667 -7.67067,8.10534 0.23867,4.88 5.05067,8.12 9.70267,7.00666 3.744,-0.89733 10.02,-7.39866 5.16133,-10.672 -0.31466,-0.212 -0.66266,0.13734 -0.596,0.46 0.49467,2.37467 0.37734,4.45734 -1.28533,6.336 -1.344,1.51734 -3.38,2.45067 -5.41733,2.39334 -4.148,-0.11734 -6.81334,-4.132 -5.55467,-8.028 1.73333,-5.368 11.46133,-5.67334 12.516,0.34266 0.048,0.26934 0.43333,0.18134 0.45067,-0.0613 v 0" />
      <path
         id="path500"
         style="fill:#80544a;fill-opacity:1;fill-rule:nonzero;stroke:none;stroke-width:0.133333"
         d="m 752.45065,245.28005 c -1.056,-1.89866 -3.16934,-2.70933 -5.232,-1.76933 -2.076,0.94667 -2.572,3.26267 -1.444,5.15467 1.26666,2.12666 3.84266,2.52533 5.79733,1.06933 0.916,-0.68133 1.612,-1.688 1.83333,-2.81733 0.176,-0.90267 0.144,-2.62667 -1.04,-2.79867 -0.19333,-0.028 -0.39066,0.0173 -0.49333,0.20133 -0.348,0.61734 -0.003,1.252 -0.04,1.91067 -0.0413,0.71867 -0.40933,1.39333 -0.92533,1.884 -1.15467,1.1 -2.78534,1.10533 -3.68134,-0.29733 -1.948,-3.052 3.20534,-4.20934 4.98,-2.348 0.124,0.13066 0.33067,-0.036 0.24534,-0.18934 v 0" />
      <path
         id="path502"
         style="fill:#80544a;fill-opacity:1;fill-rule:nonzero;stroke:none;stroke-width:0.133333"
         d="m 748.10798,238.84539 c 0.388,-13.864 -2.324,-27.15334 -3.36533,-40.87467 -1.03067,-13.58133 -1.05067,-27.176 -2.416,-40.752 -0.092,-0.916 -1.51067,-0.95066 -1.45734,0 0.784,13.95867 1.18534,28.132 2.452,42.04534 0.608,6.67733 2.00534,13.24533 2.64534,19.92266 0.62933,6.56267 0.83066,13.18 1.81333,19.704 0.0293,0.19067 0.32267,0.136 0.328,-0.0453 v 0" />
      <path
         id="path504"
         style="fill:#80544a;fill-opacity:1;fill-rule:nonzero;stroke:none;stroke-width:0.133333"
         d="m 740.80931,157.21072 c 11.04667,11.136 13.10667,25.23467 15.78,40.11734 2.94534,16.39466 3.24267,32.37066 0.69467,48.80533 -0.12533,0.80133 0.956,1.424 1.408,0.59466 3.28667,-6.024 2.376,-15.33866 2.564,-21.92933 0.26933,-9.41067 -1.03733,-18.77467 -2.68933,-28.016 -2.392,-13.384 -4.10534,-32.57333 -17.37867,-40.06266 -0.308,-0.17334 -0.632,0.236 -0.37867,0.49066 v 0" />
      <path
         id="path506"
         style="fill:#80544a;fill-opacity:1;fill-rule:nonzero;stroke:none;stroke-width:0.133333"
         d="m 748.78931,239.75339 c -3.25066,-6.16534 -7.26,-11.90934 -10.81066,-17.904 -3.60534,-6.08667 -6.508,-12.544 -10.304,-18.51867 -7.09867,-11.17466 -14.49467,-22.236 -21.74533,-33.31866 -0.51067,-0.78 -1.74134,-0.0773 -1.25867,0.736 6.97333,11.76266 15.05467,22.72666 22.29333,34.29866 7.296,11.66133 13.03467,23.984 21.564,34.90933 0.12133,0.15467 0.34667,-0.0427 0.26133,-0.20266 v 0" />
      <path
         id="path508"
         style="fill:#80544a;fill-opacity:1;fill-rule:nonzero;stroke:none;stroke-width:0.133333"
         d="m 705.35065,169.70139 c -6.02,14.04 3.54533,29.92667 9.63067,42.29733 3.86666,7.86267 8.02,15.656 13.27733,22.692 2.388,3.196 5.02667,6.204 7.50933,9.32667 2.11867,2.664 3.76,5.72 6.72667,7.464 0.76666,0.44933 1.52933,-0.57734 0.93466,-1.21067 -9.74666,-10.38933 -18.16666,-22.56533 -24.64133,-35.232 -7.33733,-14.356 -15.344,-28.52 -12.86533,-45.096 0.0467,-0.31333 -0.41867,-0.59733 -0.572,-0.24133 v 0" />
      <path
         id="path510"
         style="fill:#80544a;fill-opacity:1;fill-rule:nonzero;stroke:none;stroke-width:0.133333"
         d="m 750.57065,254.10272 c -2.292,8.13733 -2.52,17.33067 -3.31334,25.728 -0.94666,10.01733 -3.05733,19.96133 -3.61466,30.00933 -0.0467,0.84 1.136,0.90267 1.39066,0.18934 2.97067,-8.32534 3.09467,-18.83334 3.92667,-27.604 0.88267,-9.30934 2.28533,-18.868 2.368,-28.22 0.004,-0.436 -0.63867,-0.52134 -0.75733,-0.10267 v 0" />
      <path
         id="path512"
         style="fill:#80544a;fill-opacity:1;fill-rule:nonzero;stroke:none;stroke-width:0.133333"
         d="m 746.36398,252.79872 c -1.53733,4.43067 -0.90133,9.66933 -1.564,14.34533 -0.80667,5.688 -1.92933,11.28267 -3.064,16.912 -1.11733,5.54 -1.80667,11.10134 -2.748,16.664 -0.51867,3.06667 -1.672,5.932 -0.45467,8.91867 0.33067,0.812 1.45467,0.70533 1.53467,-0.20667 1.65867,-19.044 7.964,-37.33333 6.684,-56.58 -0.0147,-0.224 -0.31333,-0.26666 -0.388,-0.0533 v 0" />
      <path
         id="path514"
         style="fill:#80544a;fill-opacity:1;fill-rule:nonzero;stroke:none;stroke-width:0.133333"
         d="m 737.42931,310.08405 c 9.54934,0.496 7.69734,9.67734 7.204,16.344 -0.43333,5.85867 -0.84,11.692 -1.564,17.52533 -0.63466,5.104 -1.61333,10.15467 -2.09733,15.27067 -0.14,1.48267 -0.17067,2.99067 -0.556,4.43867 -0.85733,3.22 -5.868,9.308 -8.97733,3.23466 -1.35333,-2.64533 -0.22933,-7.79733 -0.0627,-10.73866 0.28,-4.924 1.13067,-9.77067 1.564,-14.67734 0.46267,-5.252 1.032,-10.50799 1.46533,-15.76133 0.39734,-4.82666 -0.11733,-10.40533 2.68534,-14.59066 0.788,-1.17734 -1.09467,-2.252 -1.88934,-1.104 -3.28399,4.744 -2.62666,11.336 -3.15199,16.82 -0.85867,8.94399 -2.09467,17.87466 -2.79067,26.83066 -0.42933,5.528 -1.98533,23.63467 9.316,16.70933 3.49466,-2.14 4.19333,-6.25333 4.548,-10.02933 0.75066,-7.98267 2.19066,-15.88667 2.92133,-23.884 0.42533,-4.66266 0.68533,-9.33866 1.02933,-14.00666 0.21867,-2.97067 1.02667,-7.67334 -0.49466,-10.504 -1.76667,-3.284 -5.94,-3.73867 -9.296,-2.96267 -0.628,0.14533 -0.45467,1.05333 0.14666,1.08533 v 0" />
      <path
         id="path516"
         style="fill:#80544a;fill-opacity:1;fill-rule:nonzero;stroke:none;stroke-width:0.133333"
         d="m 752.24265,254.05472 c 4.80933,8.26267 10.88533,16.07867 16.41866,23.87333 4.97867,7.012 10.18,15.896 16.69867,21.496 0.576,0.49467 1.576,-0.14133 1.11333,-0.85733 -5.29733,-8.19867 -11.848,-15.56667 -17.47733,-23.53733 -5.03333,-7.12667 -9.92,-15.30667 -16.148,-21.44267 -0.31067,-0.30533 -0.828,0.0853 -0.60533,0.468 v 0" />
      <path
         id="path518"
         style="fill:#80544a;fill-opacity:1;fill-rule:nonzero;stroke:none;stroke-width:0.133333"
         d="m 755.54665,250.60939 c 8.42533,17.35466 22.95733,30.12533 33.836,45.84533 0.388,0.55867 1.568,0.45067 1.456,-0.39467 -0.44,-3.32533 -2.76534,-5.17733 -4.836,-7.71333 -3.27467,-4.00933 -6.32,-8.148 -9.72134,-12.06533 -3.55866,-4.09867 -7.14533,-8.14267 -10.52133,-12.39334 -3.38667,-4.264 -5.84,-9.964 -9.90267,-13.51866 -0.172,-0.14934 -0.41066,0.036 -0.31066,0.24 v 0" />
      <path
         id="path520"
         style="fill:#80544a;fill-opacity:1;fill-rule:nonzero;stroke:none;stroke-width:0.133333"
         d="m 791.57331,294.69472 c -3.22533,1.02 -6.77866,3.44267 -6.58666,7.19333 0.16933,3.32934 3.03333,6.76134 4.76933,9.36134 2.59733,3.892 5.15333,7.82 7.83333,11.65733 4.62534,6.628 9.984,12.75466 14.38934,19.512 2.13333,3.26933 4.752,7.06266 9.01866,7.34533 13.20267,0.87467 2.90534,-15.43867 -0.005,-19.776 -4.68,-6.97333 -9.75333,-13.77333 -14.70133,-20.564 -3.612,-4.95466 -6.64267,-12.02 -12.38534,-14.86933 -1.25333,-0.62267 -2.36133,1.24133 -1.104,1.88933 5.06267,2.608 7.68667,8.73867 10.88,13.20267 3.072,4.296 6.008,8.69333 9.10134,12.97067 3.304,4.572 15.528,17.55866 11.32933,22.92399 -4.48667,5.73334 -9.05333,-2.75066 -11.43733,-6.224 -2.71467,-3.95466 -5.936,-7.55999 -8.808,-11.40399 -3.51867,-4.70934 -6.76267,-9.576 -10.04134,-14.45067 -3.852,-5.72667 -9.89333,-12.53067 -1.82666,-17.75867 0.50533,-0.328 0.19733,-1.20666 -0.42534,-1.00933 v 0" />
      <path
         id="path522"
         style="fill:#80544a;fill-opacity:1;fill-rule:nonzero;stroke:none;stroke-width:0.133333"
         d="m 742.75198,266.78539 c 2.904,0.0533 5.624,1.02133 8.48533,1.35333 -0.23333,-0.23333 -0.46666,-0.46667 -0.7,-0.70133 0.012,1.56266 0.40267,3.07466 0.204,4.63866 -0.116,0.91334 1.328,0.912 1.43734,0 0.188,-1.568 -0.216,-3.07333 -0.24,-4.63866 -0.007,-0.40934 -0.31867,-0.65867 -0.70134,-0.7 -2.888,-0.31334 -5.68533,-1.26 -8.60666,-0.85334 -0.52534,0.0733 -0.37734,0.892 0.12133,0.90134 v 0" />
      <path
         id="path524"
         style="fill:#80544a;fill-opacity:1;fill-rule:nonzero;stroke:none;stroke-width:0.133333"
         d="m 742.31865,265.94005 c -0.51467,1.64534 -1.21734,3.356 -1.152,5.1 0.0133,0.348 0.22666,0.61334 0.54933,0.72267 3.00667,1.016 6.20133,0.58267 9.19867,1.36933 0.51066,0.13334 1.03333,-0.45733 0.71733,-0.93333 -0.768,-1.15867 -2.29467,-0.97867 -3.53733,-1.00667 -1.98667,-0.0467 -4.08667,-0.26266 -5.98,-0.87333 0.18266,0.24 0.36666,0.48133 0.54933,0.72133 -0.0893,-1.744 0.82933,-3.37066 0.47733,-5.1 -0.088,-0.43333 -0.70533,-0.37866 -0.82266,0 v 0" />
      <path
         id="path526"
         style="fill:#80544a;fill-opacity:1;fill-rule:nonzero;stroke:none;stroke-width:0.133333"
         d="m 757.13465,265.39472 c 0.19733,1.39067 1.49066,2.33067 2.21066,3.456 0.53467,0.836 1.88534,0.0413 1.32934,-0.77733 -0.75867,-1.11867 -1.828,-1.96134 -2.588,-3.08 -0.34667,-0.51067 -1.03334,-0.17334 -0.952,0.40133 v 0" />
      <path
         id="path528"
         style="fill:#80544a;fill-opacity:1;fill-rule:nonzero;stroke:none;stroke-width:0.133333"
         d="m 757.78531,265.50939 c 1.164,-0.764 2.04134,-1.964 3.18534,-2.79334 1.26666,-0.91733 2.632,-1.76133 4.096,-2.31866 0.95066,-0.36134 0.34,-1.77067 -0.53734,-1.276 -1.56933,0.88666 -3.144,1.76533 -4.576,2.868 -1.03866,0.8 -2.484,1.856 -2.608,3.268 -0.0187,0.21733 0.264,0.36666 0.44,0.252 v 0" />
      <path
         id="path530"
         style="fill:#80544a;fill-opacity:1;fill-rule:nonzero;stroke:none;stroke-width:0.133333"
         d="m 764.59731,259.96939 c 0.6,1.56933 2.184,2.632 3.076,4.04266 0.55867,0.884 1.98534,0.0453 1.40134,-0.82 -0.92267,-1.36533 -2.26534,-3.06666 -3.82,-3.72933 -0.312,-0.132 -0.81467,0.096 -0.65734,0.50667 v 0" />
      <path
         id="path532"
         style="fill:#80544a;fill-opacity:1;fill-rule:nonzero;stroke:none;stroke-width:0.133333"
         d="m 760.54265,269.57339 c 1.496,-0.59467 2.892,-1.652 4.28266,-2.472 1.16934,-0.688 3.01334,-1.38534 3.61467,-2.65467 0.10133,-0.21333 -0.0133,-0.56533 -0.30533,-0.532 -1.396,0.15467 -2.73467,1.40533 -3.93734,2.11067 -1.364,0.8 -3.05733,1.59066 -4.08133,2.81733 -0.24667,0.29467 -0.0227,0.90933 0.42667,0.73067 v 0" />
      <path
         id="path534"
         style="fill:#80544a;fill-opacity:1;fill-rule:nonzero;stroke:none;stroke-width:0.133333"
         d="m 743.30265,266.94272 c -0.0987,0.90667 -0.25067,1.78933 -0.28667,2.70533 -0.0267,0.64667 -0.156,1.37734 0.48,1.73467 0.16,0.0893 0.31867,0.0467 0.45467,-0.0587 0.568,-0.44533 0.33066,-1.352 0.31066,-1.992 -0.028,-0.85733 -0.11733,-1.64 -0.324,-2.476 -0.0933,-0.37733 -0.59733,-0.25466 -0.63466,0.0867 v 0" />
      <path
         id="path536"
         style="fill:#80544a;fill-opacity:1;fill-rule:nonzero;stroke:none;stroke-width:0.133333"
         d="m 750.32931,268.30939 c -0.14,0.68133 -1.02,4.18933 0.28667,4.236 0.61733,0.0227 0.628,-0.83867 0.62533,-1.25334 -0.007,-0.95733 -0.0773,-1.908 -0.052,-2.86666 0.012,-0.48534 -0.75866,-0.60667 -0.86,-0.116 v 0" />
      <path
         id="path538"
         style="fill:#80544a;fill-opacity:1;fill-rule:nonzero;stroke:none;stroke-width:0.133333"
         d="m 758.68131,264.72939 c 0.54,0.64 1.06534,1.29066 1.608,1.92666 0.43467,0.50934 0.92667,1.12667 1.652,1.12267 0.13067,-0.001 0.27334,-0.12 0.26,-0.26133 -0.0667,-0.712 -0.65733,-1.16267 -1.15733,-1.616 -0.616,-0.56134 -1.21867,-1.13867 -1.832,-1.70267 -0.36,-0.33067 -0.83867,0.164 -0.53067,0.53067 v 0" />
      <path
         id="path540"
         style="fill:#80544a;fill-opacity:1;fill-rule:nonzero;stroke:none;stroke-width:0.133333"
         d="m 764.64398,260.93205 c 0.33467,0.88534 0.88267,1.60134 1.468,2.33867 0.50267,0.63467 1.04933,1.35333 1.896,1.45733 0.128,0.016 0.276,-0.10666 0.30133,-0.22933 0.17734,-0.81867 -0.4,-1.488 -0.924,-2.05467 -0.62533,-0.67733 -1.29066,-1.32533 -1.94,-1.97733 -0.31866,-0.32 -0.97733,0.003 -0.80133,0.46533 v 0" />
      <path
         id="path542"
         style="fill:#80544a;fill-opacity:1;fill-rule:nonzero;stroke:none;stroke-width:0.133333"
         d="m 761.61465,262.39339 c -0.312,0.908 0.28666,1.812 0.80133,2.52533 0.51467,0.71333 1.296,2.012 2.32533,1.944 0.23334,-0.016 0.36667,-0.17067 0.396,-0.396 0.10667,-0.84667 -0.796,-1.588 -1.316,-2.13067 -0.35466,-0.37066 -0.69466,-0.75333 -1.05066,-1.12266 -0.20134,-0.208 -0.67067,-0.55334 -0.77467,-0.82 -0.0707,-0.18134 -0.31467,-0.19334 -0.38133,0 v 0" />
      <path
         id="path544"
         style="fill:#80544a;fill-opacity:1;fill-rule:nonzero;stroke:none;stroke-width:0.133333"
         d="m 746.71331,267.34539 c -0.55466,0.69066 -0.61733,1.60133 -0.57066,2.468 0.0213,0.41866 0.0587,0.84933 0.17733,1.25333 0.124,0.42267 0.33733,0.56267 0.67467,0.82133 0.11333,0.0867 0.312,0.0453 0.404,-0.052 0.58266,-0.612 0.556,-1.19866 0.53733,-2.02266 -0.0187,-0.79334 0.0187,-1.616 -0.30667,-2.35067 -0.14266,-0.32267 -0.696,-0.392 -0.916,-0.11733 v 0" />
    </g>
  </g>
</svg>
