<svg xmlns="http://www.w3.org/2000/svg" width="276" height="274" viewBox="0 0 276 274" version="1.1">
	<path d="M 94.500 3.869 C 62.058 9.816, 36.661 31.907, 17.958 70.448 C 7.249 92.516, 3.322 107.954, 2.300 132 C 1.096 160.339, 7.608 191.899, 19.314 214.464 C 27.586 230.410, 41.916 246.552, 54.685 254.309 C 61.718 258.581, 76.010 264.305, 87.897 267.612 C 100.264 271.051, 114.705 272.368, 140.500 272.409 C 161.683 272.442, 164.477 272.236, 175.858 269.795 C 204.684 263.615, 234.080 242.596, 252.932 214.687 C 257.391 208.086, 265.306 191.170, 268.461 181.500 C 276.722 156.179, 277.130 121.462, 269.455 96.983 C 261.883 72.834, 242.849 48.236, 220.602 33.849 C 205.469 24.063, 172.172 11.311, 146.500 5.472 C 130.438 1.818, 109.249 1.165, 94.500 3.869" fill="none" stroke="#000" stroke-width="2px" fill-rule="evenodd"/>
</svg>
