<svg xmlns="http://www.w3.org/2000/svg" width="500" height="463" viewBox="0 0 500 463" version="1.1">
	<path d="M 42.356 7.464 C 39.836 10.161, 39.242 13.214, 38.676 26.353 L 38.079 40.206 33.737 47.353 C 31.350 51.284, 28.781 55.737, 28.029 57.250 C 27.277 58.763, 26.237 60, 25.717 60 C 25.167 60, 25.049 61.844, 25.435 64.417 C 26.027 68.361, 25.867 68.908, 23.939 69.519 C 20.583 70.585, 17.375 73.799, 12.546 80.936 C 4.564 92.733, 3.803 95.357, 3.839 110.968 C 3.882 129.817, 5.821 137.178, 13.587 147.989 C 16.482 152.018, 17 153.574, 17 158.244 C 17 161.271, 17.675 165.662, 18.500 168 C 19.325 170.338, 20.004 175.007, 20.009 178.376 C 20.015 182.112, 21.380 189.737, 23.509 197.931 C 25.429 205.319, 27 212.541, 27 213.981 C 27 215.422, 27.399 217.028, 27.887 217.550 C 28.374 218.073, 30.819 225.250, 33.320 233.500 C 39.664 254.429, 43.347 263.621, 49.230 273.212 C 52.026 277.770, 57.666 287.125, 61.763 294 C 74.078 314.666, 79.656 322.419, 88.133 330.654 C 102.141 344.262, 107.342 349.600, 112.969 356.142 C 120.813 365.263, 150.811 391.499, 157.306 394.919 C 158.788 395.699, 160 396.712, 160 397.169 C 160 397.626, 160.632 398, 161.404 398 C 162.176 398, 165.580 399.567, 168.969 401.482 C 172.357 403.398, 177.171 405.658, 179.667 406.505 C 182.162 407.352, 187.927 410.321, 192.477 413.101 C 197.433 416.129, 202.414 418.380, 204.900 418.713 C 207.182 419.019, 209.289 419.659, 209.583 420.135 C 209.877 420.611, 210.991 421, 212.059 421 C 213.127 421, 214 421.450, 214 422 C 214 422.550, 214.900 423, 216 423 C 218.213 423, 218.710 424.547, 216.750 425.338 C 216.063 425.615, 216.400 425.886, 217.500 425.939 C 218.600 425.993, 221.480 427.378, 223.900 429.018 C 226.758 430.954, 229.563 432.002, 231.900 432.006 C 238.927 432.016, 245.536 434.825, 251.094 440.163 C 256.106 444.975, 283.600 454.939, 296.067 456.460 C 306.049 457.679, 345.342 457.990, 358.500 456.955 C 386.531 454.751, 398.055 453.231, 403.500 451.021 C 414.893 446.397, 427.540 439.213, 440.066 430.250 C 443.333 427.913, 446.503 426, 447.112 426 C 448.305 426, 451.986 422.942, 455.386 419.127 C 456.549 417.822, 458.902 415.281, 460.614 413.480 C 462.327 411.678, 465.252 408.022, 467.114 405.354 C 468.977 402.687, 472.923 397.415, 475.883 393.638 C 478.844 389.862, 482.813 383.807, 484.702 380.182 C 486.591 376.558, 488.971 373.008, 489.992 372.293 C 492.259 370.705, 494.362 364.715, 493.550 362.157 C 493.204 361.067, 493.592 359.754, 494.477 359.019 C 497.931 356.152, 495.064 330.531, 489.550 315 C 486.032 305.090, 485.745 303.348, 484.433 284 C 482.726 258.823, 482.480 257.217, 478.985 248.500 C 477.441 244.650, 475.275 238.994, 474.171 235.931 C 471.781 229.301, 457.097 198.340, 452.804 190.880 C 450.305 186.536, 440.659 172.470, 437.341 168.332 C 435.504 166.039, 434 163.714, 434 163.165 C 434 162.616, 433.643 162.017, 433.207 161.833 C 432.771 161.650, 431.342 159.700, 430.031 157.500 C 423.291 146.189, 403.540 121.360, 395.084 113.569 C 392.655 111.331, 389.955 108.768, 389.084 107.874 C 388.213 106.980, 382.775 102.517, 377 97.956 C 371.225 93.394, 366.140 89.064, 365.700 88.331 C 365.260 87.599, 364.486 87, 363.980 87 C 363.018 87, 354.538 81.419, 352.203 79.250 C 351.463 78.562, 350.540 78, 350.151 78 C 349.763 78, 348.053 76.728, 346.351 75.174 C 342.458 71.618, 329.399 62.090, 327.330 61.296 C 326.476 60.969, 320.765 57.349, 314.639 53.253 C 305.907 47.415, 280.150 33.925, 262.500 25.945 C 256.882 23.405, 238.738 16.967, 234.500 16.009 C 204.325 9.189, 163.324 5.349, 148.917 7.995 C 145.938 8.542, 137.650 9.919, 130.500 11.055 C 117.863 13.063, 102.253 17.847, 98.812 20.766 C 97.336 22.018, 96.361 21.935, 91.058 20.099 C 83.418 17.455, 79.684 17.461, 71.557 20.129 C 61.180 23.535, 56.676 29.087, 53.941 41.841 C 53.332 44.678, 52.442 47, 51.963 47 C 51.484 47, 49.538 44.966, 47.640 42.479 C 44.397 38.233, 44.182 37.474, 44.102 29.994 C 44.041 24.232, 44.569 20.630, 46.015 16.963 C 47.150 14.083, 47.757 10.880, 47.421 9.542 C 46.750 6.868, 43.976 5.730, 42.356 7.464 M 37.387 47.765 C 36.776 48.169, 34.834 51.425, 33.073 55 C 31.312 58.575, 29.502 61.875, 29.051 62.334 C 28.600 62.793, 28.466 64.068, 28.754 65.166 C 29.228 66.981, 29.836 67.106, 35.388 66.527 C 43.136 65.718, 45.528 64.514, 47.455 60.454 C 50.336 54.382, 49.411 51.686, 43.264 48.250 C 40.734 46.836, 39.010 46.694, 37.387 47.765" fill="none" stroke="#000" stroke-width="2px" fill-rule="evenodd"/>
</svg>
