<svg xmlns="http://www.w3.org/2000/svg" width="194" height="281" viewBox="0 0 194 281" version="1.1">
	<path d="M 31.028 2.113 C 27.865 3.376, 26.908 4.959, 28.035 7.065 C 28.527 7.984, 28.686 8.981, 28.388 9.279 C 27.663 10.003, 38.392 17.234, 44.339 20.029 C 52.952 24.078, 54.960 32.906, 50.473 47 C 46.073 60.819, 43.769 64.577, 37.856 67.573 C 30.150 71.478, 14.363 87.756, 9.316 97 C 2.388 109.692, 0.318 122.258, 2.962 135.579 C 4.619 143.925, 4.992 145, 6.229 145 C 7.967 145, 22.918 136.119, 29.500 131.178 C 49.940 115.833, 60.337 89.974, 52.623 73.669 C 51.220 70.704, 48.930 67.529, 47.533 66.613 L 44.992 64.949 47.628 59.747 C 53.427 48.303, 56.368 36.637, 55.015 30.441 L 54.155 26.500 59.398 32.214 C 70.505 44.320, 72.421 51.935, 72.427 84 C 72.433 109.611, 72.272 110.928, 63.986 153.013 C 60.507 170.685, 55.430 189.293, 53.107 192.890 C 52.511 193.812, 48.944 194.555, 42.503 195.098 C 23.601 196.693, 15.417 200.786, 10.264 211.220 C 8.484 214.825, 6.514 220.167, 5.887 223.091 C 4.576 229.204, 5.321 241.427, 7.433 248.444 C 10.477 258.560, 21.808 272.184, 31.448 277.320 C 34.976 279.200, 37.122 279.481, 48.036 279.490 L 60.573 279.500 66.424 276 C 81.372 267.059, 91.794 246.351, 90.807 227.552 C 90.454 220.828, 89.836 218.471, 87.059 213.261 C 82.537 204.779, 73.843 197.699, 65.151 195.422 C 62.593 194.752, 60.574 193.820, 60.665 193.352 C 60.756 192.883, 62.853 183.050, 65.326 171.500 C 74.640 128.001, 77.475 103.543, 76.760 72.853 C 76.362 55.747, 75.950 51.463, 74.179 46 C 71.853 38.825, 67.483 31.294, 62.651 26.135 C 59.578 22.853, 59.562 22.788, 62 23.493 C 67.836 25.181, 80.797 32.903, 86.351 38 C 93.999 45.020, 100.252 54.586, 109.881 74 C 119.358 93.106, 122.327 101.411, 129.905 130 C 136.757 155.850, 139.620 169.298, 140.581 180.152 L 141.258 187.805 135.879 188.923 C 119.665 192.292, 108.159 205.538, 107.210 221.927 C 106.384 236.209, 111.811 251.900, 121.233 262.473 C 127.775 269.812, 132.858 272.649, 142.008 274.070 C 157.592 276.488, 167.080 273.287, 178.178 261.865 C 185.800 254.022, 189.368 247.485, 191.486 237.483 C 194.139 224.960, 193.013 215.892, 187.442 204.888 C 183.478 197.061, 172.468 191.875, 154.821 189.522 L 150.141 188.899 147.999 179.199 C 136.490 127.080, 126.479 95.894, 111.947 66.886 C 97.386 37.822, 86.251 26.346, 63.762 17.231 C 60.057 15.729, 57.019 14.190, 57.012 13.811 C 56.993 12.720, 65.733 11.701, 70.092 12.286 C 74.221 12.839, 89.200 19.796, 93.433 23.126 C 94.913 24.290, 96.523 27.295, 97.532 30.772 C 101.101 43.083, 114.273 63.065, 125.138 72.651 C 127.537 74.768, 129.725 76.778, 130 77.117 C 131.298 78.719, 141.937 84.861, 145.500 86.065 C 147.700 86.809, 150.019 87.792, 150.653 88.251 C 152.280 89.426, 157.952 91.126, 161.500 91.501 C 167.551 92.141, 186.947 92.386, 187.503 91.830 C 188.075 91.258, 182.085 72.181, 179.550 66.500 C 178.814 64.850, 177.207 61.250, 175.981 58.500 C 168.834 42.479, 153.304 26.788, 136.929 19.044 C 126.924 14.312, 109.602 12.599, 107.422 16.126 C 107.079 16.682, 106.158 16.891, 105.376 16.591 C 104.587 16.288, 102.266 17.572, 100.152 19.481 L 96.350 22.917 91.011 19.321 C 78.103 10.629, 66.709 7.549, 57.748 10.330 C 53.414 11.676, 52.579 11.647, 48.248 10.007 C 45.637 9.018, 41.805 6.587, 39.733 4.604 C 35.737 0.781, 34.939 0.552, 31.028 2.113" fill="none" stroke="#000" stroke-width="2px" fill-rule="evenodd"/>
</svg>
