<svg xmlns="http://www.w3.org/2000/svg" width="500" height="340" viewBox="0 0 500 340" version="1.1">
	<path d="M 230.680 4.533 C 228.579 6.990, 226.329 8.996, 225.680 8.990 C 225.031 8.985, 223.507 7.297, 222.294 5.240 C 220.252 1.777, 220.084 1.685, 220.029 4 C 219.996 5.375, 219.533 7.175, 219 8 C 218.239 9.178, 218.027 8.934, 218.015 6.865 C 217.984 1.503, 210.117 -0.096, 208.521 4.935 C 207.853 7.037, 206 7.820, 206 6 C 206 3.725, 204.222 5.232, 203.347 8.250 C 202.573 10.917, 201.964 11.446, 199.952 11.200 C 198.603 11.036, 196.300 9.523, 194.834 7.839 C 193.368 6.155, 191.720 5.055, 191.172 5.394 C 190.623 5.733, 189.308 4.822, 188.250 3.369 L 186.326 0.728 184.654 4.908 L 182.981 9.087 179.506 6.437 L 176.032 3.787 175.016 6.458 C 174.457 7.928, 174 9.749, 174 10.506 C 174 13.208, 172.118 12.975, 170.008 10.012 C 168.829 8.355, 167.536 7, 167.135 7 C 166.733 7, 166.591 9.925, 166.819 13.500 C 167.047 17.075, 166.947 20, 166.597 20 C 166.247 20, 164.178 18.875, 162 17.500 C 156.142 13.802, 154 14.480, 154 20.031 C 154 21.773, 153.768 21.801, 150.532 20.449 C 146.133 18.611, 143.377 18.516, 144.732 20.250 C 146.176 22.096, 148.016 28, 147.148 28 C 146.737 28, 145.814 27.438, 145.098 26.750 C 144.381 26.063, 144.731 27.273, 145.874 29.441 C 147.017 31.608, 147.761 33.572, 147.528 33.805 C 147.295 34.038, 144.999 33.053, 142.426 31.615 C 136.811 28.476, 136.694 28.462, 137.500 31 C 138.010 32.608, 137.681 32.999, 135.817 32.994 C 134.543 32.990, 132.211 32.315, 130.636 31.494 C 127.135 29.668, 127.342 29.665, 126.618 31.552 C 126.291 32.406, 126.744 34.206, 127.626 35.552 C 128.700 37.192, 128.841 38, 128.051 38 C 127.329 38, 126.994 39.221, 127.186 41.151 C 127.602 45.323, 125.971 45.688, 121.967 42.319 L 118.682 39.554 119.202 42.277 C 119.811 45.461, 119.370 45.631, 116.682 43.250 C 114.745 41.533, 114.718 41.580, 115.259 45.750 C 115.562 48.087, 115.505 50, 115.133 50 C 114.760 50, 112.704 48.556, 110.564 46.792 L 106.672 43.584 107.289 48.792 C 107.639 51.748, 107.507 54, 106.984 54 C 106.477 54, 106.322 54.675, 106.638 55.500 C 107.461 57.642, 105.353 57.353, 103 55 C 101.444 53.444, 101 53.333, 101 54.500 C 101 56.341, 100.221 56.341, 97 54.500 C 92.821 52.111, 92 52.603, 92 57.500 C 92 59.975, 91.692 62, 91.314 62 C 90.937 62, 89.587 61.022, 88.314 59.826 L 86 57.651 86 61.393 C 86 64.810, 85.805 65.075, 83.750 64.449 C 82.513 64.072, 80.790 63.142, 79.921 62.382 C 77.757 60.487, 77 60.647, 77 63 C 77 64.100, 76.494 65, 75.875 65 C 75.158 65, 74.968 66.089, 75.350 68 C 76.047 71.483, 75.060 71.829, 72.500 69 C 70.026 66.267, 68.655 66.489, 69.411 69.500 C 70.189 72.602, 68.479 72.799, 65.453 69.956 L 63.278 67.912 62.084 73.981 C 61.427 77.319, 60.464 79.787, 59.945 79.466 C 59.409 79.135, 58.986 80.748, 58.968 83.191 C 58.938 87.269, 58.854 87.393, 57.402 85.500 C 55.930 83.581, 55.895 83.612, 56.542 86.250 C 56.913 87.763, 56.900 89, 56.512 89 C 56.124 89, 53.762 87.200, 51.263 85 C 43.985 78.594, 42.569 79.817, 45.568 89.917 C 46.430 92.821, 46.903 95.430, 46.619 95.715 C 46.334 95.999, 43.153 95.333, 39.550 94.233 C 32.722 92.149, 32.026 92.330, 34.468 95.559 C 36.723 98.541, 36.307 99.148, 32.500 98.434 C 30.575 98.073, 29 98.184, 29 98.681 C 29 99.177, 31.025 101.571, 33.500 104 C 38.885 109.285, 39.175 110.518, 34.582 108.599 C 32.701 107.813, 30.904 107.429, 30.588 107.746 C 30.271 108.062, 29.110 107.504, 28.006 106.506 C 25.612 104.339, 25.324 105.761, 27.116 110.902 C 28.495 114.858, 28.179 115.199, 24.197 114.057 C 22.454 113.556, 20.820 113.482, 20.568 113.890 C 20.315 114.299, 21.432 116.628, 23.050 119.066 C 24.668 121.505, 25.993 123.979, 25.996 124.564 C 25.998 125.246, 23.847 125.472, 20 125.194 C 16.700 124.955, 14 125.060, 14 125.428 C 14 125.795, 15.238 127.185, 16.750 128.516 L 19.500 130.937 14.917 130.968 C 9.132 131.008, 8.406 131.745, 11.642 134.290 L 14.215 136.314 11.858 137.622 C 10.561 138.341, 9.950 138.974, 10.500 139.028 C 11.050 139.082, 10.375 139.579, 9 140.132 C 6.538 141.122, 6.531 141.161, 8.500 142.612 C 9.600 143.423, 10.500 144.442, 10.500 144.876 C 10.500 145.310, 11.813 146.795, 13.417 148.175 C 17.515 151.700, 16.391 153.480, 7.512 157.526 C -0.300 161.086, -1.473 162.398, 2.132 163.542 C 3.820 164.078, 3.976 164.408, 2.882 165.128 C 1.746 165.876, 1.830 166.290, 3.350 167.452 C 4.368 168.230, 4.904 169.347, 4.541 169.933 C 4.145 170.574, 4.827 171, 6.250 171 C 10.161 171, 12.159 173.233, 12.723 178.236 C 13.182 182.306, 12.710 183.853, 8.719 191.356 C 6.230 196.033, 4.450 200.117, 4.764 200.430 C 5.077 200.744, 6.846 201, 8.695 201 C 10.544 201, 14.794 202.382, 18.139 204.070 L 24.222 207.141 23.718 217.320 C 23.441 222.919, 22.869 228.588, 22.446 229.919 C 21.770 232.050, 21.906 232.232, 23.589 231.448 C 24.640 230.959, 29.887 230.403, 35.250 230.213 L 45 229.867 45 232.473 C 45 233.907, 44.100 236.844, 43 239 C 40.283 244.326, 40.435 245.063, 44.101 244.330 C 48.005 243.549, 48.964 244.931, 48.985 251.365 L 49 256.230 51.530 254.572 C 54.047 252.923, 54.056 252.929, 53.384 255.607 C 52.907 257.506, 53.046 258.090, 53.854 257.590 C 55.368 256.655, 55.328 258.272, 53.800 259.800 C 52.290 261.310, 53.079 261.272, 60.500 259.480 C 71.598 256.800, 71.182 256.456, 70.816 268.002 C 70.519 277.404, 70.620 278.013, 72.500 278.150 C 76.485 278.441, 77.570 278.584, 81.750 279.373 C 84.088 279.815, 86 280.572, 86 281.057 C 86 281.541, 86.658 281.685, 87.463 281.376 C 89.107 280.745, 98.672 283.661, 99.535 285.056 C 99.841 285.553, 99.550 287.771, 98.886 289.986 C 97.447 294.789, 98.084 295.738, 101.655 294.111 C 104.827 292.666, 105.673 293.537, 106.625 299.229 C 106.968 301.280, 107.841 303.755, 108.564 304.729 C 109.671 306.220, 110.202 306.303, 111.926 305.250 C 115.107 303.307, 116.286 303.767, 119.302 308.125 C 121.403 311.160, 122.530 311.990, 123.802 311.441 C 124.736 311.037, 128.425 309.686, 132 308.437 L 138.500 306.166 142.265 310.333 C 144.336 312.625, 146.491 316.190, 147.055 318.256 L 148.080 322.012 154.018 317.825 C 159.656 313.849, 160.091 313.710, 162.652 315.069 C 164.135 315.856, 166.215 317.962, 167.273 319.750 C 169.534 323.569, 170.296 323.702, 173.842 320.900 L 176.500 318.800 176.827 320.959 C 177.090 322.692, 177.432 322.886, 178.565 321.946 C 179.673 321.027, 180.086 321.121, 180.488 322.387 C 180.770 323.274, 181.222 324.704, 181.493 325.563 C 182.203 327.814, 183.521 326.622, 186.011 321.478 C 188.608 316.113, 191.047 314.584, 195.781 315.352 C 200.156 316.062, 203.593 319.212, 205.104 323.897 C 205.743 325.879, 207.169 328.364, 208.272 329.419 C 210.032 331.102, 210.416 331.153, 211.390 329.831 C 212 329.003, 213.013 328.497, 213.640 328.709 C 214.266 328.920, 215.769 327.491, 216.979 325.534 C 219.632 321.242, 221.740 320, 226.378 320 C 230.619 320, 232.962 322.786, 233.082 327.973 L 233.163 331.500 234.672 328.036 C 236.058 324.852, 236.268 324.727, 237.258 326.497 C 237.851 327.556, 238.870 330.231, 239.523 332.442 L 240.710 336.462 242.380 333.231 C 244.264 329.589, 246 328.999, 246 332 C 246 334.874, 247.293 334.466, 249.379 330.935 C 250.375 329.250, 252.334 327.349, 253.734 326.711 C 256.087 325.639, 256.569 325.888, 260.137 330.026 C 262.590 332.872, 263.996 335.501, 263.997 337.250 C 264.001 340.827, 265.441 340.763, 266.951 337.117 C 268.390 333.645, 272.664 329.477, 275.740 328.548 C 278.521 327.708, 281.895 329.928, 283.988 333.977 L 285.525 336.950 288.666 334.014 C 290.394 332.400, 291.993 330.520, 292.221 329.837 C 292.675 328.474, 300.607 332.617, 302.952 335.442 C 304.942 337.840, 306.651 337.324, 309.622 333.429 C 311.120 331.465, 314.322 328.499, 316.737 326.837 C 321.925 323.268, 323.709 323.473, 331.647 328.551 C 334.613 330.448, 337.264 332, 337.538 332 C 337.813 332, 337.762 330.900, 337.424 329.555 C 337.021 327.948, 337.587 325.727, 339.076 323.078 C 340.936 319.770, 341.746 319.149, 343.601 319.615 C 345.461 320.081, 345.771 319.840, 345.356 318.252 C 344.892 316.478, 345.319 316.356, 350.676 316.727 C 356.062 317.101, 358.716 317.817, 363.236 320.117 C 365.824 321.433, 365.998 321.284, 366.022 317.750 C 366.047 314.068, 369.391 306, 370.892 306 C 371.437 306, 372.160 306.450, 372.500 307 C 374.054 309.515, 375.669 307.832, 375.586 303.784 C 375.510 300.063, 375.852 299.390, 378.500 298.057 C 383.171 295.705, 389.999 296.066, 393.524 298.851 L 396.500 301.201 396.818 298.584 C 397.008 297.021, 397.570 296.234, 398.213 296.632 C 398.931 297.075, 399.102 296.331, 398.726 294.399 C 398.416 292.804, 398.669 289.587, 399.288 287.250 C 400.359 283.210, 400.599 283, 404.148 283 L 407.881 283 406.453 280.250 C 405.600 278.607, 405.422 277.366, 406.012 277.167 C 406.556 276.983, 407 275.778, 407 274.489 C 407 272.376, 407.568 272.080, 412.750 271.499 C 421.021 270.572, 421.320 270.410, 420.529 267.259 C 420.153 265.762, 419.768 264.079, 419.673 263.519 C 419.578 262.958, 421.715 262.275, 424.422 262 C 427.130 261.725, 429.511 260.994, 429.714 260.376 C 429.917 259.758, 428.939 257.893, 427.541 256.232 C 424.255 252.326, 424.338 251.618, 428 252.350 C 431.500 253.050, 431.606 252.569, 429.489 245.591 C 428.670 242.891, 428 240.368, 428 239.984 C 428 239.600, 431.599 237.160, 435.997 234.563 L 443.994 229.840 440.997 226.843 C 439.349 225.195, 438 223.468, 438 223.005 C 438 222.542, 437.727 221.452, 437.393 220.582 C 436.958 219.448, 437.383 219, 438.893 219 C 442.102 219, 441.446 217.659, 436.500 214.107 C 434.025 212.330, 432 210.318, 432 209.637 C 432 208.461, 441.769 200.001, 448.750 195.131 C 452.587 192.454, 452.904 191, 449.649 191 C 446.211 191, 441.001 188.986, 440.991 187.652 C 440.986 187.018, 442.436 185.305, 444.213 183.845 L 447.444 181.189 442.472 180.503 C 434.876 179.455, 430 178.036, 430 176.872 C 430 176.294, 432.736 172.447, 436.079 168.323 C 439.423 164.199, 441.970 160.637, 441.741 160.408 C 441.512 160.179, 439.878 160.495, 438.111 161.111 C 434.079 162.517, 433.483 161.923, 434.884 157.902 C 436.523 153.202, 436.384 151.436, 434.500 153 C 432.732 154.467, 432.460 152.940, 434.183 151.217 C 435.968 149.432, 434.623 148.813, 431.524 149.991 C 428.799 151.027, 428.777 151.003, 429.403 147.664 L 430.036 144.290 424.872 144.786 C 420.894 145.169, 419.885 144.994, 420.483 144.028 C 421.648 142.143, 429.843 138.791, 431.262 139.620 C 431.943 140.018, 431.735 139.469, 430.801 138.399 C 429.679 137.116, 429.402 135.968, 429.985 135.025 C 431.042 133.314, 430.399 132, 428.506 132 C 427.749 132, 425.863 131.481, 424.315 130.847 C 422.767 130.213, 420.610 129.525, 419.521 129.319 C 416.916 128.824, 415.609 127.441, 416.455 126.073 C 417.424 124.505, 424.567 121, 426.793 121 C 429.066 121, 429.303 118.207, 427.083 117.588 C 426.212 117.345, 423.475 116.838, 421 116.460 C 415.429 115.612, 413.262 114.574, 414.920 113.549 C 415.755 113.033, 415.790 112.452, 415.041 111.550 C 414.273 110.624, 414.700 109, 416.607 105.587 C 419.481 100.445, 419.319 99.224, 416 101 C 413.026 102.591, 412.719 101.917, 414.487 97.686 C 416.385 93.142, 416.388 92.433, 414.500 94 C 413.461 94.863, 413 94.900, 413 94.120 C 413 92.124, 424.456 84.488, 437.716 77.646 C 445.768 73.492, 451.446 69.888, 452.777 68.087 C 453.953 66.498, 457.746 63.512, 461.207 61.452 C 464.668 59.393, 467.950 57.187, 468.500 56.551 C 470.810 53.876, 478.913 49.050, 479.499 49.998 C 480.728 51.986, 493.676 47.041, 494.744 44.177 C 495.087 43.255, 496.125 41.954, 497.050 41.287 C 501.386 38.161, 499.350 25.706, 493.278 18.205 C 490.566 14.855, 489.834 14.509, 485.639 14.596 C 482.901 14.652, 480.988 14.243, 480.970 13.596 C 480.953 12.993, 480.499 13.254, 479.962 14.175 C 479.424 15.096, 477.301 16.384, 475.242 17.036 C 473.184 17.688, 469.652 19.278, 467.394 20.569 C 465.135 21.860, 461.011 23.813, 458.229 24.910 C 455.447 26.006, 450.028 28.918, 446.185 31.381 C 442.343 33.844, 435.814 37.268, 431.676 38.991 C 424.205 42.101, 407.914 52.159, 394.500 61.943 C 390.650 64.751, 385.359 68.613, 382.741 70.524 C 380.124 72.436, 377.790 74, 377.555 74 C 377.319 74, 376.986 72.538, 376.813 70.750 L 376.500 67.500 374 71.927 C 370.645 77.866, 369 78.274, 369 73.165 C 369 70.964, 368.719 68.432, 368.376 67.539 C 367.805 66.051, 367.595 66.057, 365.876 67.612 C 364.109 69.212, 364 69.208, 364 67.548 C 364 66.393, 363.484 65.984, 362.500 66.362 C 361.536 66.732, 361 66.341, 361 65.269 C 361 63.971, 360.733 63.867, 359.800 64.800 C 358.167 66.433, 357 66.308, 357 64.500 C 357 62.582, 355.596 62.577, 354.009 64.489 C 353.329 65.308, 352.418 65.758, 351.984 65.490 C 351.550 65.222, 350.724 66.352, 350.149 68.001 C 348.871 71.669, 348.238 71.755, 346.974 68.433 C 346.247 66.520, 345.512 66.020, 344.090 66.472 C 342.555 66.959, 341.935 66.335, 340.927 63.289 C 340.237 61.205, 339.483 60.065, 339.251 60.756 C 339.019 61.447, 338.387 61.739, 337.847 61.406 C 337.307 61.072, 336.616 61.754, 336.311 62.920 C 335.868 64.614, 335.472 64.807, 334.349 63.874 C 333.240 62.954, 332.418 63.198, 330.471 65.028 C 328.408 66.965, 328 67.071, 328 65.666 C 328 64.222, 327.698 64.161, 325.869 65.242 C 324.516 66.041, 323.603 66.131, 323.365 65.488 C 323.160 64.931, 320.744 64.519, 317.996 64.573 C 312.777 64.675, 312.174 64.273, 314.250 62.078 C 315.278 60.990, 315.130 60.945, 313.412 61.826 C 311.335 62.891, 307 62.389, 307 61.083 C 307 60.707, 309.250 57.875, 312 54.789 C 314.750 51.704, 317 48.977, 317 48.728 C 317 48.480, 315.869 48.494, 314.486 48.758 C 312.608 49.117, 312.109 48.880, 312.516 47.820 C 312.962 46.657, 311.699 46.453, 305.530 46.688 C 298.692 46.949, 296.321 46.156, 298.995 44.503 C 299.542 44.165, 300.434 43.058, 300.977 42.044 C 301.926 40.270, 301.812 40.272, 298.030 42.099 C 295.867 43.145, 293.674 44, 293.157 44 C 290.263 44, 287.680 27.295, 290.120 24.355 C 291.999 22.091, 287.391 20.631, 282.599 21.972 C 280.307 22.614, 276.197 23.220, 273.466 23.320 L 268.500 23.500 268.225 17.500 C 267.831 8.931, 267.293 7.989, 264.972 11.806 C 262.627 15.662, 260.062 16.125, 260.742 12.569 C 261.041 11.005, 260.475 9.353, 259.156 7.937 L 257.105 5.735 256.444 8.368 C 255.693 11.361, 254.791 11.658, 253 9.500 C 251.258 7.401, 249.489 7.631, 247.800 10.175 C 246.715 11.809, 245.876 12.143, 244.428 11.516 C 243.367 11.058, 242.166 10.753, 241.757 10.839 C 241.349 10.925, 239.618 8.521, 237.912 5.498 C 236.205 2.474, 234.740 0.015, 234.655 0.033 C 234.570 0.051, 232.781 2.076, 230.680 4.533 M 488.306 44.560 C 486.457 46.247, 486.182 46.784, 487.500 46.134 C 490.689 44.560, 493.610 42.067, 492.306 42.032 C 491.649 42.014, 489.849 43.152, 488.306 44.560" fill="none" stroke="#000" stroke-width="2px" fill-rule="evenodd"/>
</svg>
