<svg xmlns="http://www.w3.org/2000/svg" width="388" height="364" viewBox="0 0 388 364" version="1.1">
	<path d="M 246.077 3.979 C 244.194 4.440, 241.267 4.593, 239.572 4.318 C 235.913 3.724, 221.979 6.442, 217.919 8.542 C 209.233 13.034, 196.637 23.899, 181.909 39.604 C 179.384 42.297, 175.635 45.786, 173.577 47.358 C 171.520 48.930, 169.035 52.086, 168.055 54.372 C 167.075 56.658, 165.537 59.140, 164.637 59.887 C 163.736 60.634, 163 61.850, 163 62.589 C 163 63.328, 160.975 66.213, 158.500 69 C 156.025 71.787, 153.999 74.614, 153.998 75.283 C 153.997 75.953, 151.277 80.100, 147.954 84.500 C 141.941 92.462, 136.338 102.876, 133.966 110.500 C 131.428 118.656, 130.730 120, 129.035 120 C 127.461 120, 123.887 117.876, 109.480 108.382 C 101.256 102.962, 96.645 101.656, 85.500 101.594 C 73.398 101.526, 66.242 103.598, 62.629 108.215 C 59.486 112.230, 54.013 114.300, 46 114.503 C 39.925 114.657, 39.438 114.842, 38.557 117.334 C 37.671 119.839, 37.235 120, 31.327 120 C 21.903 120, 18.024 121.993, 12.198 129.827 C 4.276 140.481, 3.759 142.346, 4.526 157.500 C 4.932 165.522, 5.902 172.894, 7.060 176.752 C 9.232 183.991, 11.776 197.245, 12.400 204.583 C 12.638 207.379, 13.297 211.429, 13.865 213.583 C 14.432 215.738, 15.115 219.300, 15.384 221.500 C 15.652 223.700, 16.329 226.850, 16.888 228.500 C 17.447 230.150, 18.329 234.425, 18.848 238 C 19.367 241.575, 21.809 250.125, 24.274 257 C 29.237 270.840, 30.881 274.604, 34.534 280.500 C 35.897 282.700, 38.554 287.650, 40.438 291.500 C 42.323 295.350, 45.470 300.372, 47.432 302.659 C 49.395 304.946, 51 307.077, 51 307.394 C 51 307.937, 59.181 318.712, 63.510 323.871 C 66.825 327.821, 70.417 331, 71.565 331 C 72.163 331, 73.742 332.166, 75.076 333.591 C 77.268 335.934, 85.513 342, 86.506 342 C 86.729 342, 88.477 343.063, 90.392 344.362 C 92.306 345.661, 95.635 347.006, 97.790 347.350 C 99.945 347.695, 104.136 349.065, 107.104 350.395 C 110.072 351.725, 117.675 353.774, 124 354.947 C 130.325 356.121, 137.852 357.542, 140.726 358.107 C 153.824 360.678, 171.340 359.762, 181.278 355.987 C 184.819 354.641, 187.580 354.281, 191.137 354.703 C 197.611 355.469, 204.731 351.971, 213.255 343.835 C 217.775 339.520, 220.400 337.800, 223.130 337.363 C 225.368 337.005, 227.947 335.621, 229.611 333.884 C 231.131 332.298, 233.190 331, 234.187 331 C 235.184 331, 237 330, 238.222 328.778 C 239.445 327.555, 241.295 326.425, 242.333 326.267 C 244.865 325.881, 249.259 322.669, 252.458 318.868 C 253.896 317.158, 257.155 314.039, 259.699 311.937 C 263.945 308.428, 264.494 308.233, 266.385 309.557 C 270.920 312.733, 286.139 309.996, 295 304.410 C 296.925 303.196, 300.616 301.908, 303.203 301.548 C 307.532 300.944, 310.193 299.545, 329.500 287.724 C 336.434 283.479, 347.620 270.618, 352.143 261.692 C 353.311 259.386, 355.475 255.925, 356.951 254 C 358.428 252.075, 361.120 247.800, 362.933 244.500 C 364.745 241.200, 367.280 237.097, 368.564 235.383 C 372.896 229.600, 377.784 215.217, 378.380 206.500 C 378.681 202.100, 379.619 193.550, 380.465 187.500 C 382.801 170.791, 382.462 157.613, 379.359 144.500 C 375.835 129.606, 371.266 115.380, 368.382 110.322 C 367.072 108.024, 366 104.972, 366 103.540 C 366 102.108, 365.295 99.263, 364.433 97.218 C 363.571 95.173, 361.778 90.405, 360.449 86.622 C 359.120 82.839, 357.649 79.239, 357.180 78.622 C 356.711 78.005, 355.040 74.350, 353.466 70.500 C 350.181 62.462, 346.571 56.790, 342.011 52.500 C 340.257 50.850, 338.126 48.150, 337.275 46.500 C 333.061 38.325, 315.454 19, 312.219 19 C 311.700 19, 309.591 17.661, 307.532 16.026 C 303.453 12.784, 302.889 12.650, 286 10.927 C 277.701 10.080, 273.247 9.111, 270 7.448 C 267.525 6.180, 263.025 4.908, 260 4.622 C 256.975 4.336, 253.375 3.885, 252 3.621 C 250.625 3.356, 247.960 3.517, 246.077 3.979" fill="none" stroke="#000" stroke-width="2px" fill-rule="evenodd"/>
</svg>
