<svg xmlns="http://www.w3.org/2000/svg" width="500" height="316" viewBox="0 0 500 316" version="1.1">
	<path d="M 168.250 6.099 C 166.719 6.668, 166 7.755, 166 9.499 C 166 13.415, 163.413 13.654, 160.045 10.048 C 156.359 6.103, 154.299 6.892, 150.336 13.768 C 145.020 22.992, 141.439 26.454, 132.774 30.746 C 128.223 32.999, 121.350 36.395, 117.500 38.293 C 111.138 41.429, 95.768 49.421, 87.039 54.132 C 82.621 56.516, 80.751 56.487, 78.500 54 C 75.905 51.133, 74.219 51.514, 71.867 55.500 C 70.732 57.425, 69.247 59, 68.569 59 C 67.890 59, 65.902 57.217, 64.151 55.038 C 62.082 52.464, 60.434 51.280, 59.446 51.659 C 56.850 52.655, 55.001 57.648, 54.985 63.700 C 54.960 73.550, 50.778 83.644, 41.457 96.351 C 38.808 99.962, 37.851 100.541, 34.071 100.814 C 30.297 101.087, 29.281 100.695, 26.320 97.826 C 23.488 95.081, 22.754 94.775, 21.972 96.012 C 20.486 98.361, 20.827 101.479, 23.249 107.712 C 27.349 118.263, 25.808 134.364, 19.537 146.500 C 17.438 150.563, 15.881 152.062, 11.227 154.500 C 4.434 158.058, 3.931 160.056, 9.500 161.365 C 11.700 161.882, 15.124 163.327, 17.109 164.576 C 20.218 166.533, 20.946 167.753, 22.359 173.379 C 24.571 182.185, 24.444 184.688, 21.361 193.004 C 19.649 197.623, 19.065 200.465, 19.697 201.097 C 20.920 202.320, 28.331 202.565, 33.164 201.542 C 36.299 200.878, 37.380 201.174, 40.664 203.595 C 42.774 205.151, 45.305 207.229, 46.289 208.212 C 47.273 209.195, 48.465 210, 48.938 210 C 49.411 210, 50.847 211.913, 52.128 214.250 C 53.902 217.485, 54.583 220.649, 54.979 227.500 C 55.487 236.278, 55.564 236.507, 58.084 236.800 C 60.151 237.041, 61.203 236.291, 63.348 233.050 C 64.822 230.823, 66.382 229, 66.814 229 C 68.548 229, 70 231.576, 70 234.653 C 70 241.578, 74.557 246.181, 77.611 242.341 C 78.416 241.328, 80.224 238.162, 81.628 235.306 C 84.924 228.601, 87.751 226.778, 94.721 226.861 C 99.055 226.913, 101.591 227.686, 106.851 230.555 C 116.053 235.577, 118.651 238.272, 119.667 243.851 C 120.338 247.539, 120.962 248.564, 122.689 248.811 C 125.924 249.273, 130.181 246.689, 136.353 240.517 C 141.242 235.628, 142.335 235, 145.956 235 C 149.270 235, 150.207 235.426, 150.912 237.250 C 153.745 244.581, 155.464 248.140, 156.649 249.124 C 158.825 250.929, 162.578 247.692, 164.571 242.292 C 165.543 239.656, 166.943 236.784, 167.681 235.908 C 169.223 234.080, 181.971 231.525, 185.336 232.370 C 186.711 232.715, 189.492 231.972, 192.465 230.468 C 195.146 229.110, 198.500 227.993, 199.919 227.985 C 201.339 227.976, 205.976 227.093, 210.225 226.022 C 214.474 224.952, 221.956 223.773, 226.852 223.404 L 235.754 222.732 240.190 226.821 C 243.493 229.865, 245.185 230.764, 246.813 230.339 C 248.637 229.862, 249 229.049, 249 225.442 C 249 223.064, 249.405 220.868, 249.899 220.562 C 251.349 219.666, 256.846 226.661, 257.521 230.261 C 257.862 232.078, 257.997 235.320, 257.820 237.466 C 257.537 240.912, 257.790 241.438, 259.985 241.975 C 261.352 242.309, 263.117 243.736, 263.908 245.145 C 265.213 247.471, 265.146 247.986, 263.173 250.757 C 259.110 256.463, 261.135 260.010, 269.269 261.437 C 271.673 261.858, 275.990 264.345, 281.182 268.299 C 287.966 273.466, 290.032 275.751, 293.566 282 L 297.807 289.500 305.840 289.172 C 312.697 288.893, 315.334 289.314, 323.871 292.056 C 335.444 295.774, 340.407 299.290, 342.112 304.978 C 344.066 311.501, 348.395 311.271, 356.057 304.237 C 360.985 299.712, 364.160 299.006, 382.729 298.306 L 398.957 297.695 402.729 301.927 C 406.204 305.826, 406.717 306.075, 409.268 305.097 C 410.790 304.513, 412.489 302.843, 413.043 301.386 C 413.992 298.890, 414.157 298.832, 415.883 300.394 C 417.591 301.940, 417.860 301.932, 419.861 300.276 C 421.299 299.086, 422.217 296.850, 422.642 293.500 C 422.991 290.750, 423.692 287.971, 424.199 287.324 C 424.707 286.677, 427.682 285.369, 430.811 284.417 C 433.940 283.465, 436.927 282.307, 437.450 281.843 C 437.972 281.379, 438.980 281, 439.690 281 C 441.028 281, 453.628 273.217, 456.732 270.473 C 462.377 265.483, 472.883 254.873, 475.197 251.825 C 476.680 249.872, 478.204 246.974, 478.585 245.387 C 478.965 243.799, 479.605 242.050, 480.007 241.500 C 480.410 240.950, 481.034 238.862, 481.394 236.859 C 481.755 234.857, 483.609 231.257, 485.515 228.859 C 487.421 226.462, 488.985 223.739, 488.990 222.809 C 488.996 221.879, 489.450 220.840, 490 220.500 C 490.550 220.160, 491 219.022, 491 217.971 C 491 216.921, 491.950 214.369, 493.111 212.302 C 495.709 207.677, 495.992 196.633, 493.700 189.343 C 492.862 186.679, 491.904 182.568, 491.570 180.206 C 491.236 177.845, 490.527 175.145, 489.995 174.206 C 488.534 171.628, 483.901 158.036, 482.937 153.500 C 481.317 145.875, 481.783 141.553, 484.500 139 C 489.218 134.568, 486.861 131, 479.214 131 C 474.582 131, 469.102 127.678, 467.195 123.713 C 466.478 122.221, 465.567 121, 465.172 121 C 464.776 121, 462.438 118.267, 459.976 114.927 C 453.100 105.596, 443.901 94.546, 442.636 94.095 C 442.011 93.873, 439.732 92.185, 437.570 90.345 C 435.409 88.505, 433.101 87, 432.442 87 C 431.784 87, 430.709 86.354, 430.054 85.565 C 428.094 83.203, 414.188 77.896, 407.107 76.806 C 399.519 75.639, 398.366 74.943, 397.501 71.005 C 396.923 68.371, 396.656 68.224, 394.077 69.123 C 392.539 69.659, 390.008 71.426, 388.453 73.049 C 386.784 74.791, 384.576 76.009, 383.063 76.021 C 379.934 76.047, 359.924 79.061, 343 82.056 C 327.310 84.832, 325 84.281, 325 77.757 C 325 74.787, 325.797 72.291, 327.587 69.657 C 330.017 66.081, 330.073 65.738, 328.507 64.008 C 327.567 62.969, 324.725 61.875, 321.988 61.498 C 317.308 60.855, 316.490 60.190, 298.818 42.648 C 284.870 28.803, 279.654 22.919, 276.952 17.983 C 273.535 11.739, 273.267 11.504, 269.679 11.616 C 267.630 11.680, 265.141 12.468, 264.148 13.366 C 261.551 15.716, 257.185 15.379, 253.463 12.540 C 249.069 9.188, 247.785 9.074, 247.051 11.968 L 246.425 14.437 215.462 14.419 C 181.036 14.399, 177.021 13.875, 174.544 9.084 C 172.791 5.695, 171.273 4.975, 168.250 6.099" fill="none" stroke="#000" stroke-width="2px" fill-rule="evenodd"/>
</svg>
