<svg xmlns="http://www.w3.org/2000/svg" width="500" height="406" viewBox="0 0 500 406" version="1.1">
	<path d="M 151.994 7.991 C 148.965 8.473, 143.286 10.022, 139.373 11.434 C 135.460 12.845, 131.308 14, 130.147 14 C 128.986 14, 124.096 15.821, 119.279 18.046 C 114.463 20.271, 108.492 22.588, 106.011 23.194 C 103.530 23.801, 99.475 25.303, 97 26.531 C 94.525 27.760, 90.281 29.515, 87.570 30.432 C 84.858 31.349, 78.221 34.849, 72.820 38.210 C 64.776 43.217, 59.611 47.706, 44.250 63.045 C 20.669 86.593, 15.480 92.991, 10.399 104.778 C 9.042 107.925, 7.534 111.400, 7.047 112.500 C 5.749 115.432, 3 133.789, 2.998 139.544 C 2.997 142.270, 3.649 148.325, 4.448 153 C 5.246 157.675, 6.597 165.916, 7.449 171.314 C 9.231 182.595, 11.542 188.655, 17.814 198.500 C 29.895 217.462, 49.506 234.848, 70.733 245.416 C 97.593 258.788, 115.364 263.472, 147.500 265.653 C 160.279 266.521, 186.369 260.146, 194.899 254.072 C 196.499 252.932, 198.154 252, 198.576 252 C 198.997 252, 200.113 251.303, 201.054 250.451 C 201.996 249.599, 204.704 248.811, 207.074 248.701 L 211.382 248.500 213.097 261.500 C 214.786 274.307, 217.439 286.543, 218.952 288.500 C 219.377 289.050, 220.007 290.686, 220.352 292.135 C 221.705 297.810, 236.328 323.894, 242.701 332 C 251.078 342.655, 264.015 355.257, 272.394 360.924 C 273.552 361.708, 276.446 364.111, 278.825 366.264 C 281.204 368.417, 285.704 371.336, 288.825 372.749 C 291.946 374.163, 295.529 376.328, 296.787 377.561 C 298.045 378.793, 300.295 380.108, 301.787 380.482 C 303.279 380.856, 306.946 382.691, 309.935 384.560 C 315.619 388.114, 331.210 393.567, 344 396.475 C 348.249 397.441, 358.002 398.415, 366.500 398.722 C 379.221 399.182, 383.189 398.939, 392.616 397.128 C 408.914 393.995, 419.637 389.825, 433.500 381.229 C 449.138 371.532, 461.043 360.921, 468.537 350 C 470.613 346.975, 474.314 341.676, 476.761 338.225 C 481.992 330.849, 483.564 326.954, 488.398 309.389 C 494.655 286.658, 496.229 269.426, 494.052 247.500 C 491.639 223.196, 473.907 187.766, 455.224 169.918 C 440.201 155.566, 418.264 141.789, 398.233 134.125 C 367.724 122.452, 327.760 119.847, 304.603 128.020 C 291.169 132.762, 291.782 133.234, 292.566 118.750 C 293.548 100.602, 291.814 86.244, 286.826 71.227 C 284.584 64.477, 281.512 57.246, 280 55.158 C 278.487 53.070, 276.952 50.423, 276.587 49.276 C 275.283 45.165, 248.062 21, 244.736 21 C 244.001 21, 242.972 20.572, 242.449 20.049 C 241.115 18.715, 227.855 13.812, 227.241 14.425 C 226.964 14.703, 225.908 14.486, 224.895 13.944 C 222.838 12.843, 214.271 11.603, 193.500 9.401 C 175.161 7.456, 158.840 6.902, 151.994 7.991" fill="none" stroke="#000" stroke-width="2px" fill-rule="evenodd"/>
</svg>
