<svg xmlns="http://www.w3.org/2000/svg" width="554" height="344" viewBox="0 0 554 344" version="1.1">
	<path d="M 298 3.604 C 292.775 4.950, 284.675 6.458, 280 6.956 C 271.293 7.884, 266.407 9.298, 262 12.165 C 258.643 14.349, 255 15.376, 255 14.139 C 255 11.215, 251.707 10, 243.782 10 C 236.033 10, 235.533 9.858, 231.435 6.500 C 226.756 2.666, 224.068 2.238, 218.715 4.475 C 215.222 5.934, 211.021 10.229, 210.978 12.385 C 210.966 12.998, 210.076 14.625, 209 16 C 206.531 19.156, 206.531 19.716, 209 20.500 C 210.468 20.966, 211 22.013, 211 24.437 C 211 27.672, 211.121 27.764, 216.943 28.909 L 222.887 30.078 220.516 33.572 C 219.212 35.494, 217.988 37.537, 217.796 38.113 C 217.559 38.823, 216.614 38.781, 214.859 37.982 C 212.620 36.962, 211.719 37.153, 208.156 39.402 C 205.892 40.831, 203.570 42, 202.995 42 C 202.420 42, 201.673 43.385, 201.334 45.078 C 200.939 47.057, 199.876 48.477, 198.359 49.053 C 197.062 49.547, 196 50.383, 196 50.912 C 196 51.441, 194.537 52.014, 192.750 52.187 C 189.882 52.463, 189.497 52.853, 189.474 55.500 C 189.456 57.642, 188.801 58.786, 187.183 59.500 C 185.936 60.050, 184.666 61.494, 184.360 62.709 C 184.054 63.924, 183.173 65.442, 182.402 66.081 C 181.631 66.721, 181 68.551, 181 70.147 C 181 72.590, 180.511 73.148, 177.914 73.667 C 174.021 74.446, 173.251 76.411, 175.282 80.381 C 177.548 84.807, 177.264 88.708, 174.625 89.414 C 170.051 90.637, 169.534 91.592, 171.850 94.537 C 174.848 98.348, 174.563 100.044, 170.208 104.297 C 167.293 107.143, 165.604 108, 162.908 108 C 160.979 108, 158.905 108.495, 158.300 109.100 C 157.217 110.183, 156.591 109.690, 151.500 103.750 C 149.259 101.136, 146.966 101.630, 145.694 105 C 144.337 108.594, 143.814 108.662, 139.878 105.752 C 136.969 103.601, 136.779 103.582, 135.510 105.317 C 134.781 106.314, 133.580 107.047, 132.842 106.947 C 129.736 106.522, 128.832 107.227, 127 111.500 C 125.939 113.975, 124.742 116, 124.340 116 C 123.938 116, 122.355 114.798, 120.822 113.329 C 118.135 110.755, 117.964 110.723, 116.073 112.434 C 114.994 113.410, 113.974 115.174, 113.805 116.354 C 113.488 118.581, 112.599 118.755, 107.429 117.603 C 104.773 117.012, 104.198 117.270, 103.179 119.507 C 102.530 120.930, 101.998 122.860, 101.996 123.797 C 101.990 126.558, 98.178 132, 96.250 132 C 95.271 132, 92.828 131.120, 90.821 130.044 C 87.778 128.413, 86.984 128.314, 86.043 129.448 C 85.409 130.212, 85.201 131.954, 85.569 133.417 C 86.372 136.619, 84.625 138.976, 81.963 138.280 C 79.581 137.657, 79.271 140.150, 81.500 142 C 83.977 144.056, 83.242 144.846, 78.250 145.493 C 67.510 146.886, 66.974 147.709, 71.982 155.100 C 73.622 157.520, 74.972 159.808, 74.982 160.184 C 74.992 160.560, 73.763 161.010, 72.250 161.184 C 69.978 161.445, 69.544 161.938, 69.752 164.022 C 69.951 166.012, 69.245 166.952, 66.396 168.486 C 62.582 170.540, 60.571 174.074, 61.518 177.058 C 61.874 178.178, 61.414 179.234, 60.294 179.870 C 58.775 180.733, 58.692 181.202, 59.750 182.931 C 61.341 185.530, 61.341 186.996, 59.750 187.015 C 59.063 187.024, 57.828 187.455, 57.007 187.974 C 55.773 188.755, 56.168 189.588, 59.289 192.784 C 62.976 196.559, 63.028 196.717, 61.545 199.575 C 60.709 201.184, 60.269 203.266, 60.565 204.203 C 60.958 205.442, 60.001 206.469, 57.052 207.973 C 51.160 210.979, 51.330 211.293, 62.094 217.292 L 65.310 219.085 62.043 222.456 C 58.690 225.915, 58.674 228, 62 228 C 65.110 228, 65.098 229.532, 61.964 232.534 C 57.494 236.817, 58.058 238.519, 64.679 240.726 C 71.831 243.110, 73.249 245.042, 70.217 248.270 C 67.571 251.086, 67.362 253, 69.700 253 C 72.417 253, 69.938 254.540, 65 255.920 C 47.294 260.867, 13.398 278.381, 6.063 286.372 C 2.219 290.560, 4.063 291.215, 21.595 291.893 L 37.304 292.500 25.968 303.357 C 19.733 309.329, 12.915 315.351, 10.816 316.740 C 6.696 319.467, 6.129 321.032, 8.535 323.029 C 10.304 324.497, 17.778 323.116, 26.500 319.710 C 45.148 312.426, 53.913 312.122, 90 317.502 C 106.355 319.941, 109.294 320.095, 117 318.918 C 131.426 316.714, 134.957 316.651, 137.069 318.562 C 138.551 319.904, 139.537 320.089, 141.254 319.347 C 142.511 318.804, 145.262 318.707, 147.500 319.128 C 149.700 319.541, 153.959 320.169, 156.964 320.524 C 160.913 320.991, 163.049 321.839, 164.666 323.585 C 165.897 324.913, 167.546 326, 168.330 326 C 169.114 326, 170.312 326.672, 170.994 327.492 C 172.076 328.796, 172.858 328.638, 177.174 326.242 C 181.811 323.669, 182.195 323.608, 183.418 325.250 C 185.012 327.392, 189.573 327.556, 190.362 325.500 C 191.123 323.516, 193.626 323.582, 194.402 325.606 C 195.170 327.608, 199.550 326.735, 202.500 323.992 C 203.800 322.783, 205.025 322.420, 206 322.953 C 207.420 323.729, 224.086 326.642, 230.460 327.228 C 232.671 327.431, 233.580 328.133, 234.049 330 C 234.405 331.416, 235.272 332.361, 236.050 332.179 C 236.806 332.003, 237.981 332.621, 238.663 333.553 C 239.807 335.118, 240.259 335.038, 244.564 332.515 C 248.635 330.129, 249.524 329.943, 251.579 331.042 C 253.471 332.055, 254.230 332.054, 255.453 331.039 C 257.705 329.170, 261.953 330.604, 266.116 334.640 L 269.732 338.144 274.975 333.117 L 280.217 328.091 285.168 329.972 C 289.399 331.579, 290.200 331.641, 290.678 330.397 C 291.023 329.497, 291.956 329.169, 293.118 329.537 C 294.493 329.974, 295.249 329.475, 295.932 327.679 C 296.795 325.410, 297.537 325.170, 305.683 324.530 C 311.986 324.034, 317.066 324.286, 323.500 325.415 C 333.913 327.241, 339.268 327.391, 345.236 326.021 C 349.083 325.138, 359.867 323.298, 375 320.943 C 378.025 320.472, 387.615 320.129, 396.312 320.181 C 406.448 320.242, 412.513 319.887, 413.207 319.193 C 413.983 318.417, 413.472 317.928, 411.395 317.462 C 409.803 317.106, 407.777 316.621, 406.894 316.385 C 406.010 316.149, 403.161 313.218, 400.562 309.872 C 397.024 305.316, 395.981 303.213, 396.410 301.504 C 397.232 298.228, 400.176 297.383, 401.872 299.935 C 403.971 303.094, 405.832 302.429, 406.585 298.250 C 407.873 291.101, 410.096 290.376, 416.051 295.162 C 419.881 298.239, 420.039 298.275, 421.993 296.507 C 423.097 295.507, 424 293.829, 424 292.778 C 424 291.384, 424.493 291.022, 425.818 291.442 C 426.818 291.759, 440.430 292.187, 456.068 292.392 C 474.457 292.633, 488.739 293.332, 496.500 294.370 C 511.575 296.387, 535.693 297.519, 543.315 296.566 C 547.928 295.990, 549.052 295.506, 548.801 294.205 C 548.628 293.305, 547.364 292.041, 545.993 291.396 C 531.368 284.514, 522.944 279.987, 520.016 277.435 C 518.082 275.750, 514.250 273.085, 511.500 271.513 C 506.517 268.665, 499.710 263.414, 493.022 257.259 C 491.085 255.476, 489.174 254.013, 488.776 254.009 C 487.282 253.991, 484.801 247.799, 485.862 246.738 C 487.602 244.998, 509.612 245.355, 517.558 247.252 C 527.184 249.550, 535.668 249.761, 537.676 247.752 C 539.755 245.673, 539.035 244.772, 532.250 240.961 C 521.044 234.666, 490.797 213.137, 491.519 211.970 C 491.794 211.525, 490.352 209.787, 488.315 208.108 C 484.363 204.851, 484.466 204.076, 489.057 202.500 C 492.658 201.264, 493.253 199.607, 490.250 199.180 C 487.996 198.860, 487.022 197, 489.108 197 C 489.782 197, 489.978 196.050, 489.609 194.579 C 489.086 192.493, 489.429 192.065, 492.091 191.480 C 494.647 190.919, 495.082 190.430, 494.604 188.651 C 494.287 187.468, 494.021 186.212, 494.014 185.860 C 494.006 185.508, 492.033 184.295, 489.628 183.165 C 483.279 180.181, 482.988 178.287, 488.188 173.774 C 492.497 170.034, 492.545 169.109, 488.500 167.679 C 487.917 167.473, 488.099 166.600, 488.936 165.586 C 490.183 164.075, 490.183 163.729, 488.936 162.939 C 488.146 162.439, 486.712 162.024, 485.750 162.015 C 483.360 161.994, 483.554 160.115, 486.250 157.177 C 487.898 155.382, 488.148 154.600, 487.185 154.258 C 486.462 154.001, 485.439 152.655, 484.912 151.268 C 484.072 149.059, 483.521 148.816, 480.472 149.311 L 476.991 149.876 477.363 145.413 C 477.567 142.959, 478.514 140.090, 479.465 139.038 C 481.989 136.250, 480.459 134.675, 475.832 135.296 C 472.329 135.766, 471.985 135.622, 472.529 133.910 C 472.982 132.481, 472.649 132, 471.206 132 C 469.748 132, 469.380 131.451, 469.697 129.750 C 470.285 126.599, 467.577 123.064, 465.867 124.750 C 464.225 126.369, 461 126.365, 461 124.743 C 461 124.052, 461.425 122.006, 461.943 120.197 C 462.802 117.202, 462.662 116.822, 460.374 115.952 C 458.992 115.427, 456.806 115.261, 455.517 115.585 C 453.906 115.989, 452.521 115.521, 451.087 114.087 C 448.609 111.609, 448.558 111.080, 450.449 107.436 C 451.246 105.900, 451.643 104.231, 451.331 103.726 C 450.823 102.905, 449.560 102.969, 442.569 104.169 C 441.203 104.403, 440.460 103.772, 440.027 102.010 C 439.613 100.326, 439.167 99.922, 438.648 100.760 C 437.306 102.931, 436.137 102.102, 435.813 98.750 C 435.552 96.042, 435.041 95.447, 432.750 95.184 C 431.156 95, 429.522 93.949, 428.864 92.684 C 428.240 91.483, 427.577 90.325, 427.392 90.111 C 427.206 89.896, 425.467 90.932, 423.527 92.411 C 420.454 94.755, 419.998 94.870, 419.985 93.301 C 419.976 92.310, 419.548 90.833, 419.032 90.018 C 418.248 88.777, 417.611 88.998, 415.137 91.369 L 412.179 94.203 410.694 91.851 C 409.877 90.558, 408.906 88.487, 408.537 87.250 C 407.657 84.302, 405.665 84.389, 404.028 87.447 C 401.747 91.709, 398.133 91.781, 396.229 87.603 C 395.627 86.283, 395.549 84.730, 396.043 83.931 C 396.580 83.061, 396.354 81.944, 395.434 80.927 C 394.628 80.037, 394.088 78.226, 394.234 76.904 C 394.473 74.743, 394.044 74.449, 390 74 C 386.029 73.559, 385.464 73.189, 385.194 70.853 C 385.025 69.397, 385.587 66.530, 386.444 64.481 C 387.300 62.432, 387.995 60.248, 387.989 59.628 C 387.974 58.184, 381.406 55.150, 377.500 54.782 C 374.751 54.524, 374.527 54.223, 374.822 51.189 C 374.999 49.368, 374.596 47.218, 373.925 46.410 C 372.988 45.281, 372.975 44.351, 373.866 42.395 C 375.564 38.669, 374.476 37.869, 368.161 38.202 L 362.500 38.500 362.193 34.255 C 361.985 31.386, 361.293 29.692, 360.058 29.031 C 359.053 28.493, 357.951 26.941, 357.610 25.582 C 357.033 23.284, 356.590 23.125, 351.284 23.305 C 346.215 23.478, 345.566 23.277, 345.461 21.500 C 345.170 16.592, 344.911 16, 343.059 16 C 341.991 16, 340.839 15.548, 340.498 14.996 C 340.157 14.444, 338.865 14.247, 337.627 14.557 C 335.891 14.993, 335.110 14.537, 334.210 12.561 C 332.946 9.788, 330.786 9.370, 326.375 11.048 C 323.828 12.016, 323.332 11.760, 319.831 7.664 C 317.543 4.988, 314.947 3.045, 313.272 2.758 C 311.747 2.497, 309.825 2.030, 309 1.721 C 308.175 1.411, 303.225 2.259, 298 3.604" fill="none" stroke="#000" stroke-width="2px" fill-rule="evenodd"/>
</svg>
