<svg xmlns="http://www.w3.org/2000/svg" width="420" height="500" viewBox="0 0 420 500" version="1.1">
	<path d="M 232.648 0.760 C 232.390 1.178, 229.326 1.655, 225.839 1.820 C 222.353 1.985, 217.111 2.808, 214.192 3.648 C 209.679 4.947, 208.630 5.723, 207.192 8.829 C 206.261 10.839, 204.262 13.539, 202.750 14.830 C 200.556 16.703, 200.005 18.019, 200.024 21.339 C 200.059 27.396, 201.549 32.886, 203.826 35.347 C 206.136 37.843, 206.688 42.381, 205.566 49.643 L 204.771 54.787 197.192 55.497 C 179.167 57.186, 164.057 65.457, 152.923 79.730 C 150.018 83.453, 147.306 86.894, 146.896 87.375 C 146.486 87.856, 142.854 86.890, 138.825 85.228 C 127.709 80.644, 116.464 78.778, 103.463 79.361 C 88.992 80.011, 82.671 81.923, 61.846 91.955 C 55.032 95.238, 54.982 95.297, 49.967 106.037 C 49.568 106.891, 50.297 110.446, 51.608 114.037 C 52.905 117.592, 53.974 121.259, 53.983 122.187 C 53.993 123.115, 56.025 126.831, 58.500 130.447 C 60.975 134.062, 63 137.395, 63 137.855 C 63 139.385, 66.765 142.206, 67.173 140.982 C 67.382 140.354, 69.415 142.050, 71.692 144.749 L 75.830 149.658 67.165 155.793 C 50.478 167.608, 39.204 179.412, 27.592 197.227 C 14.643 217.093, 7.168 237.598, 2.338 266.500 C -0.097 281.074, -0.110 311.736, 2.312 327.500 C 8.147 365.465, 26.384 401.167, 55.659 431.934 C 72.922 450.078, 88.549 461.779, 109.500 472.249 C 125.585 480.288, 137.902 484.603, 161.807 490.573 C 193.465 498.480, 200.630 499.462, 226.500 499.446 C 250.069 499.431, 260.365 498.130, 282 492.428 C 312.319 484.439, 354.679 455.009, 375.807 427.254 C 389.360 409.450, 402.357 386.536, 407.997 370.500 C 415.823 348.253, 421.125 316.018, 420.826 292.500 C 420.716 283.817, 420.511 282.020, 420.084 286 L 419.494 291.500 418.733 284.178 C 415.506 253.115, 399.927 217.045, 379.884 194.235 C 366.399 178.890, 346.463 162.059, 329.740 151.901 C 325.208 149.149, 321.500 146.583, 321.500 146.198 C 321.500 145.814, 322.837 143.265, 324.472 140.533 L 327.444 135.566 328.367 138.783 C 328.874 140.552, 329.724 142, 330.255 142 C 332.276 142, 343.009 135.658, 342.770 134.605 C 342.459 133.233, 348.240 122.876, 350.247 121.210 C 351.419 120.237, 352.469 120.298, 355.361 121.506 C 357.362 122.343, 359 123.443, 359 123.952 C 359 124.461, 360.936 125.168, 363.303 125.523 C 367.048 126.084, 368.379 125.715, 373.565 122.675 C 376.843 120.755, 380.376 118.242, 381.417 117.091 C 382.458 115.941, 384.130 115, 385.132 115 C 387.921 115, 390.386 110.364, 390.378 105.132 C 390.372 101.598, 389.362 98.623, 386.114 92.576 C 377.470 76.487, 370.088 68.304, 361.206 64.967 C 347.801 59.932, 325.945 58.070, 313.264 60.884 C 308.311 61.983, 306.722 62.014, 305.543 61.036 C 304.529 60.194, 302.387 60.018, 298.780 60.480 C 286.766 62.018, 275.129 68.609, 265.536 79.308 C 260.572 84.844, 259.870 85.308, 258.909 83.690 C 258.317 82.694, 256.482 80.341, 254.830 78.459 C 251.906 75.129, 251.842 74.835, 252.393 67.269 C 252.704 62.996, 253.222 55.675, 253.545 51 C 254.005 44.336, 254.645 41.744, 256.510 39 C 262.161 30.684, 262.418 26.255, 257.857 15.834 C 254.324 7.762, 252.400 5, 250.310 5 C 249.551 5, 247.806 4.264, 246.434 3.365 C 245.061 2.465, 243.670 1.997, 243.342 2.325 C 243.014 2.652, 241.476 2.263, 239.923 1.460 C 236.864 -0.122, 233.399 -0.455, 232.648 0.760 M 0.395 295.500 C 0.396 303.200, 0.553 306.218, 0.743 302.206 C 0.934 298.195, 0.932 291.895, 0.741 288.206 C 0.549 284.518, 0.393 287.800, 0.395 295.500" fill="none" stroke="#000" stroke-width="2px" fill-rule="evenodd"/>
</svg>
