<svg xmlns="http://www.w3.org/2000/svg" width="277" height="194" viewBox="0 0 277 194" version="1.1">
	<path d="M 200.004 3.144 C 196.981 3.645, 192.069 5.505, 189.088 7.277 C 181.373 11.866, 170.288 23.132, 164.047 32.729 L 158.695 40.957 154.791 37.430 C 144.577 28.202, 131.975 22.459, 119.112 21.168 C 97.231 18.974, 75.153 25.557, 61.260 38.420 C 52.121 46.881, 45 62.631, 45 74.382 L 45 79.554 36.750 83.654 C 25.970 89.011, 17.456 95.511, 11.089 103.246 C 3.550 112.405, 0.923 118.358, 0.280 127.746 C -0.344 136.849, 1.248 143.580, 6.477 153.940 C 11.136 163.172, 16.691 169.021, 27.840 176.436 C 47.791 189.704, 60.493 193.520, 84.500 193.460 C 97.358 193.427, 101.030 193.039, 110.209 190.742 C 125.215 186.986, 137.028 180.861, 145.385 172.504 C 156.063 161.826, 159.102 154.828, 161.342 135.763 L 162.546 125.511 166.196 133.197 C 173.859 149.334, 181.498 157.971, 192.877 163.362 C 198.937 166.233, 200.350 166.499, 209.500 166.487 C 221.438 166.471, 226.776 164.435, 236.697 156.113 C 247.913 146.706, 257.177 131.734, 265.398 109.728 C 272.030 91.977, 274.419 80.230, 274.390 65.500 C 274.369 54.073, 274.051 51.616, 271.763 45.193 C 268.599 36.310, 262.103 25.160, 256.587 19.144 C 245.611 7.173, 225.161 -0.238, 216.072 4.463 C 213.481 5.803, 213.093 5.761, 211.466 3.963 C 209.546 1.841, 208.375 1.758, 200.004 3.144" fill="none" stroke="#000" stroke-width="2px" fill-rule="evenodd"/>
</svg>
