<svg xmlns="http://www.w3.org/2000/svg" width="500" height="458" viewBox="0 0 500 458" version="1.1">
	<path d="M 148.024 6.610 C 135.926 10.983, 124.003 21.757, 112.922 38.330 C 108.446 45.024, 104.422 50.401, 103.980 50.279 C 103.537 50.158, 102.717 51.374, 102.156 52.981 C 101.596 54.588, 99.298 58.340, 97.049 61.319 C 94.800 64.297, 93.205 67.371, 93.504 68.149 C 93.810 68.948, 92.040 71.946, 89.439 75.032 C 77.089 89.688, 72.635 95.015, 67.729 101 C 55.908 115.422, 38 142.250, 38 145.535 C 38 146.341, 37.550 147, 37 147 C 36.450 147, 36 147.675, 36 148.500 C 36 149.325, 35.663 150.007, 35.250 150.016 C 34.536 150.030, 30.647 157.743, 24.164 172 C 14.098 194.138, 6.330 227.232, 3.978 258 C 1.747 287.185, 5.341 312.774, 16.577 347.712 C 19.091 355.529, 22.225 363.404, 23.541 365.212 C 24.857 367.020, 29.381 375.250, 33.595 383.500 C 37.808 391.750, 42.620 400.525, 44.288 403 C 60.192 426.609, 81.029 441.231, 102 443.500 C 105.575 443.887, 111.162 445.087, 114.415 446.168 C 119.398 447.823, 121.681 448.013, 128.915 447.376 C 140.431 446.362, 140.295 446.346, 150 449.943 C 164.326 455.254, 164.568 455.292, 180.549 454.722 C 193.274 454.267, 196.826 453.773, 203.549 451.521 C 212.790 448.426, 225.042 441.352, 236.794 432.327 L 245.087 425.957 278.794 427.027 C 297.332 427.615, 316.550 427.834, 321.500 427.512 C 334.759 426.652, 354.133 425.012, 357 424.507 C 358.375 424.265, 362.425 423.813, 366 423.504 C 377.827 422.480, 410.985 415.223, 419.500 411.794 C 434.582 405.720, 458.816 388.410, 471.998 374.295 C 489.852 355.177, 495.994 338.975, 495.993 311 C 495.993 300.269, 495.710 298.037, 493.996 295.226 C 492.731 293.150, 492 290.189, 492 287.136 C 492 270.805, 478.856 245.492, 462.348 230.030 C 446.516 215.201, 430.896 205.508, 411.455 198.446 C 396.143 192.883, 355.786 184.312, 331.827 181.533 L 326.155 180.875 325.468 176.688 C 323.738 166.143, 319.620 149.487, 315.555 136.592 C 310.858 121.694, 303.623 98.176, 299.376 84 C 292.394 60.693, 289.626 53.132, 280.459 32.325 C 277.520 25.653, 271.404 19.060, 265.317 16 C 258.453 12.551, 249.277 12.719, 238 16.501 C 225.903 20.557, 214.503 20.596, 204 16.615 C 198.298 14.454, 193.933 13.608, 185.792 13.086 C 175.697 12.438, 174.809 12.202, 170.307 8.969 C 166.208 6.025, 164.607 5.500, 159.015 5.265 C 154.882 5.092, 150.864 5.583, 148.024 6.610" fill="none" stroke="#000" stroke-width="2px" fill-rule="evenodd"/>
</svg>
