<svg xmlns="http://www.w3.org/2000/svg" width="162" height="272" viewBox="0 0 162 272" version="1.1">
	<path d="M 72.073 5.635 C 69.290 9.173, 69.458 10.567, 72.917 12.610 C 77.156 15.114, 78.505 20.914, 78.473 36.500 C 78.437 54.142, 78.401 54.239, 70.766 56.925 C 67.320 58.138, 63.151 59.651, 61.503 60.289 C 57.200 61.952, 44.890 74.541, 41.251 81 C 37.047 88.459, 32.546 101.072, 28.937 115.500 C 26.756 124.221, 24.803 129.413, 21.791 134.500 C 8.855 156.344, 4.461 167.341, 2.997 181.533 C 2.017 191.028, 3.167 205.960, 5.470 213.638 C 11.569 233.975, 27.995 255.950, 42.587 263.294 C 52.123 268.094, 59.180 269.688, 73.817 270.351 C 84.826 270.849, 87.160 270.642, 95.792 268.399 C 108.718 265.040, 113.715 261.965, 130.067 247.299 C 144.944 233.957, 148.913 228.742, 153.605 216.369 C 159.682 200.343, 160.652 194.151, 159.096 181.347 C 156.737 161.948, 149.435 147.654, 131.539 127.404 C 127.422 122.746, 125.928 119.895, 122.755 110.645 C 120.652 104.515, 118.047 96.180, 116.965 92.122 C 112.641 75.892, 102.114 61.450, 91.750 57.527 C 86.199 55.425, 86.363 56.355, 88.124 36.957 C 89.131 25.868, 89.064 23.725, 87.546 18.457 C 85.455 11.204, 81.282 4.312, 78.533 3.573 C 75.067 2.642, 74.212 2.915, 72.073 5.635" fill="none" stroke="#000" stroke-width="2px" fill-rule="evenodd"/>
</svg>
