<svg xmlns="http://www.w3.org/2000/svg" width="500" height="501" viewBox="0 0 500 501" version="1.1">
	<path d="M 176 5.912 C 161.088 8.062, 143.888 13.558, 128.992 20.934 C 120.223 25.275, 100.484 37.670, 93.577 43.172 C 61.654 68.601, 39.939 94.320, 23.924 125.670 C 13.500 146.077, 3.655 182.324, 4.143 198.502 C 4.242 201.801, 4.236 210.061, 4.129 216.858 C 4.022 223.655, 4.354 229.730, 4.866 230.358 C 5.378 230.986, 6.768 236.210, 7.955 241.967 C 9.273 248.357, 11.319 254.694, 13.207 258.237 C 17.312 265.939, 27.543 275.442, 39.251 282.429 C 46.948 287.022, 50.202 288.336, 57.083 289.633 C 67.610 291.616, 72.006 293.837, 77.870 300.136 C 88.581 311.640, 104.482 318.924, 120.432 319.634 C 125.345 319.853, 129.536 320.203, 129.746 320.412 C 130.490 321.156, 132.977 331.540, 133 334 C 133.034 337.623, 141.264 365.454, 144.385 372.500 C 149.384 383.787, 160.177 403.072, 162.638 405.114 C 163.387 405.736, 164 406.792, 164 407.461 C 164 409.084, 168.052 414.494, 176.250 423.817 C 179.963 428.040, 183 431.776, 183 432.121 C 183 432.956, 198.656 446.249, 207.786 453.165 C 221.881 463.843, 256.364 478.399, 266.811 478.082 C 268.083 478.044, 270.333 478.624, 271.811 479.372 C 273.290 480.120, 276.975 481.274, 280 481.938 C 283.025 482.601, 286.400 483.512, 287.500 483.962 C 293.253 486.315, 299.470 487.469, 331.500 492.130 C 335.350 492.690, 341.425 493.926, 345 494.876 C 348.575 495.826, 353.975 496.519, 357 496.417 C 381.338 495.591, 409.307 491.270, 418.536 486.909 C 421.923 485.309, 425.200 484, 425.820 484 C 427.017 484, 435.137 480.464, 443.675 476.225 C 448.967 473.598, 462.691 463.751, 472.015 455.892 C 478.437 450.478, 489.445 434.586, 491.973 427.077 C 494.073 420.841, 495.836 409.361, 495.423 404.615 C 495.274 402.902, 494.834 397.900, 494.444 393.500 C 494.055 389.100, 493.749 384.825, 493.763 384 C 493.778 383.175, 494.128 373.050, 494.542 361.500 C 495.090 346.185, 494.957 338.605, 494.047 333.500 C 493.361 329.650, 492.576 325.150, 492.303 323.500 C 491.234 317.054, 486.866 305.224, 483.517 299.700 C 481.583 296.510, 480 293.671, 480 293.391 C 480 293.111, 477.326 289.370, 474.059 285.077 C 467.268 276.157, 459.012 268.679, 447.500 261.020 C 443.100 258.093, 438.354 254.921, 436.953 253.969 C 433.911 251.904, 412.705 241, 411.731 241 C 411.357 241, 408.226 239.720, 404.775 238.155 C 401.324 236.591, 395.125 234.072, 391 232.558 C 386.875 231.045, 382.082 229.175, 380.349 228.403 C 378.616 227.631, 376.689 227, 376.067 227 C 375.446 227, 372.364 226.134, 369.218 225.076 C 343.249 216.340, 321.090 213.445, 281.250 213.585 C 267.913 213.632, 257 213.513, 257 213.321 C 257 213.130, 257.455 212.191, 258.011 211.236 C 261.784 204.759, 269.963 173.808, 271.947 158.500 C 274.582 138.170, 274.872 99.661, 272.464 89.834 C 271.610 86.350, 270.770 82.600, 270.597 81.500 C 269.811 76.497, 264.640 54.045, 263.342 50 C 260.049 39.731, 251.972 23.585, 246.613 16.559 C 242.923 11.721, 240.184 10.499, 227.441 8.002 C 215.462 5.655, 186.066 4.461, 176 5.912" fill="none" stroke="#000" stroke-width="2px" fill-rule="evenodd"/>
</svg>
