<svg xmlns="http://www.w3.org/2000/svg" width="270" height="500" viewBox="0 0 270 500" version="1.1">
	<path d="M 156.992 2.510 C 155.596 4.192, 152.524 9.560, 147.936 18.335 C 142.582 28.576, 138.971 39.016, 134.114 58.303 L 129.378 77.106 124.867 71.303 C 122.385 68.111, 117.017 60.568, 112.937 54.540 C 105.208 43.119, 98.453 35.214, 97.358 36.309 C 97.007 36.660, 98.320 38.719, 100.277 40.885 C 102.234 43.051, 104.356 45.797, 104.993 46.987 C 106.056 48.973, 105.985 49.062, 104.131 48.070 C 103.020 47.476, 101.819 46.517, 101.462 45.939 C 100.517 44.409, 83.515 31.050, 76.406 26.251 L 70.312 22.137 74.578 33.819 C 76.924 40.243, 79.527 47.108, 80.361 49.072 L 81.878 52.645 64.501 43.889 C 47.455 35.300, 30.787 29, 25.110 29 C 22.274 29, 19.118 31.451, 20.357 32.691 C 20.711 33.044, 21 32.808, 21 32.167 C 21 30.039, 25.540 30.957, 30.464 34.079 C 36.301 37.781, 59.779 55.984, 62.262 58.733 C 64.004 60.662, 63.938 60.667, 56.346 59.253 C 51.654 58.378, 46.887 58.097, 44.085 58.530 L 39.500 59.237 44 60.478 C 51.039 62.418, 66.974 68.885, 72.634 72.099 C 75.458 73.702, 80.408 78.046, 83.634 81.751 C 88.044 86.816, 88.755 88.004, 86.500 86.539 C 72.616 77.515, 67.330 75.272, 49.945 71.027 C 35.788 67.570, 8.080 63.512, 4.597 64.386 C 3.201 64.737, 1.540 66.031, 0.906 67.262 C -0.043 69.109, -0.014 69.281, 1.078 68.250 C 2.977 66.455, 5.193 66.679, 13.685 69.530 C 25.079 73.355, 55.096 86.913, 58.500 89.773 C 60.680 91.604, 60.953 92.124, 59.500 91.676 C 54.621 90.172, 44.264 88.028, 41.809 88.015 C 40.329 88.007, 38.797 88.520, 38.405 89.155 C 37.991 89.823, 38.127 90.039, 38.728 89.668 C 40.091 88.826, 43.858 91.858, 48.838 97.806 L 52.865 102.617 44.683 102.606 C 35.195 102.594, 25 105.180, 25 107.599 C 25 108.979, 25.167 108.976, 26.571 107.571 C 29.049 105.094, 47.147 105.689, 57.098 108.575 C 57.977 108.830, 60.167 110.869, 61.965 113.106 C 65.166 117.089, 65.185 117.170, 62.867 116.976 C 57.854 116.558, 57.525 116.887, 60.092 119.750 C 61.448 121.263, 63.381 123.490, 64.388 124.700 L 66.219 126.899 62.666 125.918 C 60.327 125.272, 54.812 125.286, 46.528 125.959 C 39.606 126.521, 33.618 126.911, 33.222 126.826 C 31.465 126.450, 26.343 128.445, 24.711 130.141 C 23.727 131.163, 22.505 132, 21.996 132 C 21.487 132, 20.561 132.951, 19.939 134.113 C 18.833 136.181, 18.869 136.192, 21.654 134.647 C 26.758 131.816, 31.367 131.215, 41.098 132.113 C 51.987 133.117, 67.023 135.571, 71.821 137.126 L 75.142 138.202 67.321 143.079 C 59.938 147.683, 59.111 147.957, 52.564 147.978 C 40.609 148.016, 24.526 153.281, 22.011 157.980 C 20.957 159.949, 20.971 159.950, 24.227 158.029 C 29.760 154.764, 40.359 153.699, 55.470 154.890 C 68.890 155.947, 82.528 158.428, 83.492 159.986 C 84.267 161.240, 78.158 165.991, 75.673 166.066 C 74.478 166.102, 69.615 166.076, 64.867 166.008 C 55.776 165.878, 46.297 167.778, 40.060 170.981 C 36.727 172.693, 32.187 178.521, 33.311 179.645 C 33.590 179.923, 34.098 179.265, 34.442 178.183 C 35.503 174.839, 45.829 171.996, 56.886 172.004 L 62.500 172.007 59.500 173.842 C 57.850 174.850, 55.899 176.403, 55.165 177.292 C 53.961 178.751, 54.156 178.816, 57.159 177.954 C 61.446 176.725, 72.374 176.765, 69.500 178 C 68.400 178.473, 66.344 178.891, 64.932 178.930 C 58.471 179.106, 46.346 184.679, 48.259 186.592 C 48.660 186.993, 49.778 186.631, 50.744 185.787 C 56.473 180.782, 76.049 179.998, 90.250 184.206 C 94.863 185.572, 95.116 186.996, 90.750 187.012 C 86.354 187.028, 77.909 189.354, 73.288 191.822 C 64.086 196.736, 63 197.424, 63 198.339 C 63 198.872, 61.200 200.849, 59 202.732 C 54.067 206.954, 53.797 208.642, 58.497 205.869 C 61.755 203.947, 63.211 203.833, 79.747 204.202 C 92.779 204.494, 98.431 205.006, 101 206.130 C 104.492 207.657, 104.474 207.663, 93.526 208.376 C 87.490 208.770, 80.560 209.538, 78.127 210.084 C 72.832 211.270, 67.994 214.492, 68.015 216.818 C 68.027 218.053, 68.244 218.163, 68.836 217.232 C 70.073 215.282, 75.788 214, 83.243 214 C 89.144 214, 90 214.234, 90 215.845 C 90 218.191, 93.077 221.012, 95.579 220.960 C 97.066 220.929, 96.822 220.544, 94.500 219.257 C 90.648 217.121, 93.103 216.412, 98.925 217.980 C 102.141 218.846, 102.997 219.543, 102.985 221.289 C 102.976 222.505, 102.630 224.034, 102.214 224.687 C 101.121 226.407, 96.029 228.144, 93.984 227.495 C 91.998 226.865, 90.578 230.536, 91.595 233.671 C 92.089 235.193, 92.007 235.248, 91.110 234 C 90.203 232.740, 90.028 232.835, 90.015 234.595 C 90.007 235.747, 89.038 237.547, 87.862 238.595 C 86.686 239.643, 85.105 241.963, 84.349 243.750 C 83.482 245.798, 82.269 247, 81.068 247 C 80.021 247, 78.561 247.231, 77.825 247.514 C 77.070 247.804, 76.053 247.043, 75.493 245.770 C 74.947 244.528, 73.600 243.372, 72.500 243.202 C 70.889 242.953, 70.785 243.086, 71.969 243.890 C 74.579 245.664, 73.665 254.679, 70.218 261.153 C 68.563 264.263, 66.892 268.680, 66.505 270.970 C 66.027 273.798, 65.112 275.469, 63.651 276.179 C 62.468 276.755, 60.238 278.727, 58.695 280.563 C 55.917 283.868, 55.907 283.929, 57.695 286.675 L 59.500 289.448 59.813 286.224 C 59.986 284.451, 60.609 283, 61.199 283 C 61.900 283, 62.051 284.609, 61.636 287.640 C 61.286 290.191, 61 292.880, 61 293.615 C 61 294.541, 60.150 294.780, 58.227 294.395 C 54.737 293.697, 51.467 296.855, 52.317 300.104 C 52.671 301.457, 52.240 302.880, 51.171 303.887 C 50.229 304.774, 49.895 305.163, 50.429 304.750 C 51.984 303.549, 53.259 303.883, 52.698 305.344 C 52.335 306.291, 52.852 306.560, 54.450 306.254 C 55.769 306.002, 56.934 306.385, 57.235 307.169 C 57.957 309.052, 55.803 319.238, 54.367 320.730 C 53.455 321.677, 53.498 323.006, 54.557 326.524 C 55.758 330.513, 55.742 331.162, 54.431 331.665 C 52.173 332.531, 43.918 329.964, 44.659 328.625 C 45.002 328.006, 44.431 328.310, 43.391 329.300 C 41.547 331.054, 41.632 331.226, 46.800 336.169 C 52.571 341.687, 53.229 344.526, 48.723 344.461 C 45.395 344.412, 45.385 344.525, 48.467 347.382 C 50.950 349.683, 51.073 350.473, 50.970 363.500 C 50.962 364.600, 51.232 367.127, 51.571 369.116 C 52.133 372.414, 51.962 372.774, 49.615 373.223 C 47.755 373.578, 46.655 373.131, 45.640 371.607 C 44.868 370.448, 42.791 368.662, 41.023 367.637 L 37.809 365.774 38.939 367.887 C 39.561 369.049, 40.488 370, 40.998 370 C 42.004 370, 49.166 380.245, 50.436 383.500 C 50.865 384.600, 51.806 387.750, 52.526 390.500 C 53.247 393.250, 54.508 397.300, 55.328 399.500 C 57.071 404.170, 56.748 404.987, 54.105 402.595 C 52.825 401.436, 51.977 401.228, 51.525 401.960 C 51.154 402.559, 51.292 402.926, 51.830 402.775 C 53.565 402.288, 59.156 410.932, 58.481 413.059 C 57.576 415.912, 56.630 415.465, 54.120 411 C 52.884 408.800, 51.738 407, 51.575 407 C 51.412 407, 51.771 408.846, 52.373 411.102 C 53.030 413.565, 54.786 416.361, 56.769 418.102 C 58.988 420.051, 59.545 421, 58.469 421 C 55.823 421, 52.690 419.038, 49.150 415.165 C 47.308 413.149, 46.144 412.175, 46.564 413 C 48.731 417.256, 51.674 420.370, 56.363 423.369 C 60.152 425.793, 62.292 428.109, 64.278 431.938 C 65.775 434.824, 67 437.795, 67 438.541 C 67 439.288, 68.599 441.117, 70.552 442.608 C 72.506 444.098, 73.744 445.583, 73.302 445.909 C 72.861 446.234, 72.500 447.075, 72.500 447.777 C 72.500 448.479, 69.350 451.055, 65.500 453.501 C 58.478 457.962, 58.622 458.995, 66 457.080 C 67.925 456.581, 72.068 455.878, 75.207 455.519 L 80.913 454.867 83.897 459.660 C 85.538 462.296, 86.658 464.676, 86.386 464.948 C 86.114 465.220, 85.522 464.845, 85.071 464.114 C 84.619 463.384, 83.997 463.196, 83.687 463.697 C 83.377 464.198, 86.005 466.384, 89.527 468.554 C 93.048 470.724, 95.945 472.925, 95.964 473.445 C 95.984 473.965, 97.238 475.706, 98.750 477.314 L 101.500 480.238 99 479.482 C 97.625 479.066, 95.825 478.531, 95 478.294 C 94.175 478.056, 94.625 478.552, 96 479.395 C 97.375 480.239, 100.317 480.945, 102.539 480.965 C 104.760 480.984, 108.343 481.900, 110.501 483 C 114.692 485.137, 118.151 485.595, 121.701 484.482 C 123.349 483.966, 124.526 484.464, 126.377 486.461 C 128.493 488.745, 128.706 489.546, 127.848 492.007 C 126.302 496.442, 124.736 497.297, 120.374 496.093 C 118.305 495.522, 116.422 495.245, 116.188 495.478 C 115.955 495.712, 117.055 496.203, 118.632 496.570 C 120.209 496.937, 122.527 497.879, 123.783 498.664 C 126.219 500.185, 127.838 499.437, 135.287 493.345 C 137.793 491.296, 139.037 491.082, 147.597 491.225 C 152.834 491.313, 157.303 491.682, 157.528 492.046 C 157.753 492.410, 156.826 493.214, 155.469 493.832 C 154.111 494.451, 153 495.476, 153 496.109 C 153 497.754, 159.603 496.524, 162.738 494.296 C 164.128 493.308, 166.143 491.990, 167.216 491.366 C 168.290 490.742, 169.635 489.765, 170.206 489.194 C 170.777 488.623, 171.819 488.377, 172.522 488.647 C 173.224 488.916, 176.155 488.438, 179.033 487.583 C 181.911 486.728, 185.290 486.286, 186.541 486.600 C 188.818 487.171, 205.528 479.642, 209.043 476.461 C 211.122 474.580, 211.924 474.621, 214.255 476.731 C 216.109 478.408, 216.131 478.381, 214.975 475.844 C 213.875 473.430, 214.083 472.948, 217.641 469.651 C 219.833 467.620, 223.839 465.330, 226.913 464.350 C 229.890 463.400, 233.490 461.580, 234.913 460.304 L 237.500 457.984 234.500 458.997 L 231.500 460.011 233.892 457.980 C 236.621 455.663, 235.902 453.956, 232.968 455.788 C 230.417 457.381, 230 457.320, 230 455.353 C 230 453.632, 234.371 447.901, 240.751 441.257 C 242.813 439.110, 245.400 435.593, 246.500 433.441 C 248.245 430.029, 252.061 425.777, 257.534 421.149 C 260.014 419.052, 258.490 418.633, 255.501 420.591 C 253.499 421.903, 252.643 422.040, 252.085 421.137 C 251.675 420.474, 250.589 420.221, 249.670 420.573 C 247.507 421.403, 247.549 421.024, 250.379 414.220 C 251.687 411.074, 253.062 405.967, 253.435 402.871 C 253.940 398.683, 254.764 396.635, 256.654 394.871 C 258.051 393.567, 260.102 390.700, 261.210 388.500 C 262.319 386.300, 264.153 383.488, 265.287 382.250 C 266.421 381.013, 266.933 379.996, 266.424 379.992 C 265.916 379.987, 263.590 382.125, 261.256 384.742 C 257.119 389.381, 256.973 389.450, 255.448 387.500 C 254.404 386.166, 254.122 384.667, 254.602 383 C 254.997 381.625, 255.389 376.832, 255.473 372.348 C 255.583 366.458, 256.097 363.545, 257.323 361.848 C 258.257 360.557, 260.080 357.918, 261.375 355.985 C 262.669 354.052, 264.464 351.860, 265.364 351.113 C 266.264 350.366, 267 349.265, 267 348.665 C 267 348.066, 264.862 349.642, 262.250 352.169 C 259.637 354.695, 256.938 356.553, 256.250 356.298 C 254.242 355.552, 254.796 354.175, 257.750 352.572 C 260.157 351.266, 260.241 351.075, 258.423 351.040 C 256.687 351.007, 256.399 350.467, 256.670 347.750 C 256.969 344.745, 256.809 344.877, 254.558 349.500 C 253.219 352.250, 252.044 354.275, 251.949 354 C 251.853 353.725, 251.645 349.382, 251.487 344.350 C 251.136 333.158, 252.670 329.778, 258.952 327.896 C 264.105 326.352, 264.146 325, 259.039 325 C 256.240 325, 254.443 325.660, 252.912 327.250 L 250.746 329.500 251.377 325.500 C 251.723 323.300, 252.257 319.925, 252.563 318 L 253.118 314.500 251.059 316.861 C 249.927 318.159, 249 319.873, 249 320.670 C 249 323.131, 247.191 321.148, 246.480 317.907 C 245.951 315.498, 246.295 314.315, 248.077 312.418 C 250.776 309.545, 251.711 309.396, 252.267 311.750 C 252.573 313.048, 252.881 312.780, 253.459 310.710 C 254.386 307.386, 252.295 304.538, 248.176 303.516 C 244.455 302.592, 241 299.107, 241 296.276 C 241 294.970, 240.301 292.549, 239.447 290.897 C 237.688 287.496, 236.289 278, 237.546 278 C 238 278, 239.474 279.012, 240.821 280.250 L 243.271 282.500 242.128 280.301 C 240.699 277.554, 236.993 274.886, 235.707 275.681 C 235.176 276.010, 234.946 275.653, 235.197 274.889 C 235.448 274.125, 237.810 272.959, 240.445 272.299 C 246.596 270.756, 246.875 270.387, 242.506 269.567 C 240.088 269.113, 237.904 269.400, 235.806 270.447 C 232.075 272.308, 232 272.316, 232 270.829 C 232 270.185, 231.335 268.923, 230.523 268.025 C 229.711 267.128, 228.923 265.292, 228.773 263.947 C 228.623 262.601, 227.713 260.912, 226.750 260.193 C 224.848 258.773, 224.242 254.414, 226.107 255.566 C 227.731 256.570, 226.183 252.206, 224.151 250.052 C 223.243 249.089, 221.764 247.387, 220.864 246.271 C 219.963 245.155, 218.780 244.075, 218.233 243.871 C 217.316 243.529, 217.978 235.244, 219.502 228 C 219.910 226.059, 219.466 226.395, 217.519 229.500 C 216.139 231.700, 215.008 234.723, 215.005 236.219 C 214.998 239.915, 213.313 239.076, 208.473 232.966 C 206.303 230.226, 203.779 227.747, 202.864 227.457 C 201.705 227.089, 201.230 225.876, 201.298 223.464 C 201.407 219.636, 202.418 219.163, 205.171 221.655 C 209.202 225.302, 205.850 216.692, 200.533 209.739 C 198.045 206.486, 197.305 204.849, 198.196 204.568 C 202.894 203.090, 213.854 201.845, 217.621 202.362 C 220.488 202.754, 221.881 202.617, 221.488 201.981 C 219.233 198.331, 206.431 196.194, 196.701 197.843 C 193.290 198.421, 188.785 199.119, 186.688 199.394 L 182.877 199.894 186.688 197.341 C 188.785 195.937, 191.459 193.611, 192.632 192.173 C 194.552 189.819, 194.940 189.705, 196.544 191.029 C 198.115 192.327, 198.267 192.323, 197.833 191 C 197.562 190.175, 195.802 189.222, 193.921 188.882 C 186.767 187.588, 194.947 188.079, 204.471 189.515 C 222.173 192.183, 231.891 195.199, 234.718 198.904 C 235.799 200.321, 235.940 200.270, 235.968 198.450 C 235.986 197.322, 235.438 195.754, 234.750 194.965 C 234.063 194.176, 234.704 194.583, 236.176 195.870 C 237.647 197.156, 239.550 199.625, 240.403 201.355 C 241.689 203.962, 241.958 204.133, 241.977 202.354 C 242.010 199.222, 236.836 187.029, 233.167 181.593 C 231.425 179.012, 230 176.708, 230 176.475 C 230 176.241, 231.151 176.487, 232.557 177.022 C 236.548 178.539, 234.483 176.229, 230.278 174.472 C 224.523 172.067, 227.207 171.684, 234.654 173.847 C 238.419 174.940, 243.451 176.143, 245.835 176.520 C 251.818 177.465, 264.302 188.203, 265.842 193.728 L 266.893 197.500 266.760 193.500 C 266.687 191.300, 266.300 189.050, 265.899 188.500 C 265.498 187.950, 265.075 187.050, 264.958 186.500 C 263.932 181.670, 259.224 172.429, 254.640 166.250 L 250.004 160 256.702 160 C 260.593 160, 263.002 159.633, 262.450 159.124 C 261.165 157.938, 249.405 154.307, 244.711 153.646 C 240.945 153.116, 231 146.740, 231 144.856 C 231 144.320, 230.550 144.160, 230 144.500 C 229.450 144.840, 229 144.594, 229 143.954 C 229 143.199, 230.406 142.924, 233 143.171 C 237.476 143.598, 238.012 143.310, 234.892 142.156 C 233.134 141.505, 234.391 140.599, 242.481 136.688 C 253.177 131.517, 254.630 131.253, 259.300 133.627 L 262.500 135.254 260.068 132.619 L 257.637 129.984 262.679 125.242 C 265.453 122.634, 268.231 119.150, 268.853 117.500 C 269.918 114.674, 269.895 114.623, 268.461 116.613 C 267.010 118.626, 266.273 118.707, 252.719 118.337 C 240.962 118.016, 230.284 116.628, 222.150 114.362 C 221.380 114.147, 223.315 112.130, 226.650 109.670 C 234.300 104.026, 241.139 96.437, 253.074 80.347 C 258.440 73.113, 263.652 66.735, 264.657 66.172 C 265.661 65.610, 266.193 64.859, 265.837 64.504 C 264.750 63.416, 251.007 67.946, 241.500 72.525 C 231.631 77.280, 224.663 79.316, 226.712 76.847 C 228.538 74.647, 244.520 47.881, 247.392 42.213 C 248.805 39.424, 250.421 36.858, 250.981 36.512 C 251.541 36.165, 252 35.454, 252 34.930 C 252 32.261, 222.499 49.925, 202.250 64.718 C 198.262 67.631, 195 69.773, 195 69.479 C 195 69.184, 196.301 66.365, 197.891 63.215 C 204.214 50.690, 214.021 25.836, 217.502 13.513 C 218.432 10.220, 219.837 6.283, 220.622 4.763 C 221.408 3.243, 221.803 2, 221.500 2 C 221.197 2, 218.111 4.588, 214.642 7.750 C 211.173 10.913, 203.984 17.220, 198.667 21.766 L 189 30.033 188.924 26.266 L 188.848 22.500 187.674 25.570 C 187.028 27.258, 185.495 29.958, 184.268 31.570 L 182.035 34.500 182.513 31.500 C 182.775 29.850, 183.451 24.051, 184.015 18.613 C 185.465 4.623, 183.528 -4.127, 181.109 5.482 C 180.441 8.134, 178.079 12.279, 175.274 15.719 C 172.682 18.899, 168.188 24.806, 165.287 28.847 C 161.019 34.791, 159.879 35.849, 159.318 34.386 C 158.936 33.392, 158.596 25.476, 158.562 16.795 C 158.528 8.114, 158.443 1.009, 158.372 1.006 C 158.302 1.003, 157.681 1.680, 156.992 2.510 M 82.918 153.542 C 86.847 155.370, 88.634 155.762, 89.418 154.965 C 91.191 153.163, 87.164 150.999, 82.059 151.010 L 77.500 151.020 82.918 153.542 M 191.738 173.660 C 189.682 175.123, 188 177.074, 188 177.997 C 188 179.536, 188.712 179.569, 196.601 178.403 C 201.331 177.704, 205.384 176.950, 205.606 176.727 C 205.962 176.371, 196.815 171, 195.853 171 C 195.646 171, 193.794 172.197, 191.738 173.660 M 185.186 217.055 C 181.291 218.617, 183.654 219.803, 190.497 219.722 C 194.862 219.670, 197 219.248, 197 218.439 C 197 216.162, 189.580 215.293, 185.186 217.055 M 95 230.500 C 95 231.325, 95.402 232, 95.893 232 C 96.384 232, 97.045 231.325, 97.362 230.500 C 97.712 229.586, 97.363 229, 96.469 229 C 95.661 229, 95 229.675, 95 230.500 M 55 301.393 C 55 301.609, 55.698 302.054, 56.552 302.382 C 57.442 302.723, 57.843 302.555, 57.493 301.989 C 56.906 301.038, 55 300.583, 55 301.393 M 245.177 308.553 C 245.629 310.725, 247.404 310.858, 247.810 308.750 C 248.020 307.655, 247.530 307, 246.500 307 C 245.539 307, 244.988 307.647, 245.177 308.553 M 97.500 475 C 97.840 475.550, 98.568 476, 99.118 476 C 99.668 476, 99.840 475.550, 99.500 475 C 99.160 474.450, 98.432 474, 97.882 474 C 97.332 474, 97.160 474.450, 97.500 475" fill="none" stroke="#000" stroke-width="2px" fill-rule="evenodd"/>
</svg>
