<svg xmlns="http://www.w3.org/2000/svg" width="451" height="500" viewBox="0 0 451 500" version="1.1">
	<path d="M 231.093 1.388 C 230.193 2.472, 230.480 3.417, 232.402 5.701 C 234.661 8.385, 234.915 9.732, 235.498 22.063 C 235.848 29.453, 236.105 37.075, 236.071 39 C 235.993 43.330, 233.878 52, 232.900 52 C 232.503 52, 231.181 49.941, 229.963 47.423 C 228.604 44.616, 225.767 41.319, 222.624 38.895 C 216.937 34.509, 214.140 32.014, 212.211 29.608 C 210.553 27.541, 203.686 27.469, 202 29.501 C 201.315 30.326, 200.528 33.011, 200.251 35.467 C 199.781 39.637, 200.393 41.108, 209.451 57.590 C 216.521 70.455, 219 75.862, 218.586 77.513 C 217.842 80.479, 215.479 81.298, 211.621 79.928 C 209.446 79.155, 207.700 79.129, 205.860 79.843 C 203.295 80.838, 203.235 81.054, 203.747 87.433 L 204.274 94 179.268 94 C 151.466 94, 143.454 94.944, 127.241 100.128 C 110.616 105.445, 90.875 116.630, 74.466 130.031 C 62.937 139.447, 37.614 166.272, 31.245 175.815 C 24.547 185.852, 13.031 211.047, 9.330 223.760 C 2.449 247.401, -0.704 272.532, 0.318 295.592 C 1.796 328.970, 14.642 367.188, 33.282 393.666 C 41.923 405.941, 66.994 430.954, 79.500 439.776 C 96.250 451.592, 123.210 464.908, 161 480.031 C 203.764 497.143, 213.064 499.378, 241.500 499.373 C 258.254 499.371, 262.065 499.049, 273.738 496.651 C 298.672 491.530, 317.896 485.070, 344.367 472.915 C 376.927 457.965, 393.962 446.529, 403.825 433 C 405.228 431.075, 409.805 426.116, 413.995 421.979 C 427.235 408.910, 432.527 399.494, 439.405 376.763 C 446.872 352.089, 449.321 333.870, 449.457 302 C 449.510 289.625, 449.940 272.750, 450.413 264.500 C 451.379 247.639, 450.487 238.079, 446.354 221 C 443.247 208.160, 435.438 188.814, 429.734 179.829 C 421.280 166.508, 407.245 151.846, 392.507 140.936 C 389.210 138.496, 383.360 133.873, 379.507 130.662 C 364.682 118.310, 345.595 108.581, 319.137 99.890 L 305.775 95.500 306.449 88.028 C 306.820 83.918, 307.580 80.006, 308.139 79.333 C 309.423 77.786, 316.238 75.604, 326.500 73.454 C 336.685 71.321, 338.662 70.046, 339.984 64.753 C 340.568 62.414, 341.501 59.694, 342.057 58.709 C 343.440 56.260, 342.544 55.193, 338.461 54.427 C 336.050 53.974, 334.240 54.268, 332.531 55.388 C 330.899 56.457, 327.860 57, 323.503 57 C 319.891 57, 315.375 57.652, 313.468 58.449 C 311.490 59.275, 310 59.473, 310 58.909 C 310 57.794, 325.561 30.325, 327.510 28 C 330.152 24.847, 333.128 14.433, 332.813 9.445 C 332.528 4.947, 332.263 4.472, 329.877 4.196 C 327.834 3.959, 326.565 4.761, 324.141 7.823 C 322.428 9.985, 315.638 15.448, 309.052 19.964 C 297.683 27.760, 284 40.503, 284 43.296 C 284 44.802, 277.964 50.298, 277.176 49.509 C 276.874 49.207, 276.557 48.181, 276.472 47.230 C 276.159 43.715, 272.757 33.337, 270.168 28 C 266.740 20.931, 261.028 15.470, 248.096 6.897 C 237.587 -0.070, 233.422 -1.419, 231.093 1.388" fill="none" stroke="#000" stroke-width="2px" fill-rule="evenodd"/>
</svg>
