<svg xmlns="http://www.w3.org/2000/svg" width="500" height="440" viewBox="0 0 500 440" version="1.1">
	<path d="M 185.250 1.031 C 183.443 1.758, 183 2.722, 183 5.933 C 183 8.906, 182.488 10.204, 181 11 C 179.204 11.961, 179 11.760, 179 9.035 C 179 4.885, 176.863 5.130, 173.084 9.714 L 170.023 13.428 164.376 10.658 C 153.507 5.328, 133 2.989, 133 7.080 C 133 7.732, 134.591 7.901, 137.250 7.532 C 142.136 6.853, 147.167 8, 147.813 9.940 C 148.153 10.958, 147.427 11.115, 144.723 10.608 C 142.563 10.203, 139.577 10.500, 137.045 11.372 C 133.410 12.625, 132.423 12.612, 129.009 11.272 C 125.392 9.850, 124.854 9.880, 121.366 11.690 C 116.893 14.011, 113.988 17.621, 113.706 21.208 C 113.589 22.694, 112.313 24.753, 110.747 25.985 C 107.827 28.281, 108.070 28.425, 106.531 23.500 C 105.774 21.075, 103.035 21.779, 101.931 24.683 C 101.370 26.158, 101.013 31.094, 101.139 35.651 C 101.407 45.382, 99.919 48.135, 94.609 47.735 C 91.069 47.467, 90.037 46.460, 90.015 43.250 C 89.996 40.438, 89.244 40.422, 86.314 43.174 C 84.349 45.021, 84 45.096, 84 43.674 C 84 41.535, 81.381 41.496, 80.194 43.618 C 79.277 45.257, 80.862 56.350, 82.360 58.773 C 82.863 59.588, 82.439 60, 81.094 60 C 79.981 60, 78.589 59.100, 78 58 C 76.587 55.360, 73.638 55.490, 67.232 58.472 C 60.577 61.570, 49.298 69.575, 47.896 72.195 C 47.310 73.290, 47.102 75.269, 47.434 76.593 C 47.766 77.917, 47.652 79, 47.180 79 C 45.980 79, 44 83.624, 44 86.425 C 44 87.706, 44.709 89.344, 45.576 90.063 C 46.949 91.203, 46.536 91.614, 42.376 93.248 C 39.748 94.280, 35.552 96.608, 33.049 98.421 C 30.547 100.235, 27.163 102.345, 25.529 103.109 C 21.287 105.095, 19.816 108.477, 20.358 115 C 20.609 118.025, 21.097 121.202, 21.441 122.060 C 21.797 122.946, 21.004 125.189, 19.607 127.248 C 17.670 130.102, 17.414 131.099, 18.409 131.924 C 19.404 132.751, 19.052 134.225, 16.746 138.876 C 14.130 144.155, 13.962 145.040, 15.160 147.238 C 17.257 151.087, 23.196 155.737, 28.557 157.727 C 33.182 159.445, 33.494 159.791, 34.216 164.017 C 35.119 169.309, 34.466 172, 32.277 172 C 29.481 172, 24.273 167.195, 22.016 162.533 C 19.568 157.476, 18.295 156.305, 16.833 157.767 C 15.724 158.876, 20.003 170.666, 23.143 175.154 C 24.164 176.614, 25 178.249, 25 178.788 C 25 179.920, 18.884 185.364, 13.526 189 C 6.960 193.456, 5.013 195.454, 4.754 198 C 4.545 200.060, 4.984 200.556, 7.250 200.816 C 8.763 200.990, 10 201.315, 10 201.537 C 10 201.760, 8.587 203.946, 6.860 206.396 C -0.359 216.638, 2.821 235.142, 13.495 245 C 16.646 247.910, 20.120 254.812, 20.932 259.775 C 21.422 262.768, 22.115 263.483, 26 265.003 L 30.500 266.763 30.171 274.632 C 29.990 278.959, 30.553 286.883, 31.421 292.239 C 32.289 297.596, 33 303.813, 33 306.055 C 33 311.332, 34.253 313.544, 37.979 314.843 C 40.158 315.603, 41.001 316.537, 41.004 318.198 C 41.008 320.937, 44.418 326.839, 46.445 327.617 C 47.233 327.920, 48.174 329.592, 48.536 331.334 C 48.898 333.075, 50.002 335.907, 50.990 337.627 C 53.402 341.823, 54.303 346.342, 53.478 350.099 C 52.984 352.351, 52.497 352.897, 51.699 352.099 C 49.720 350.120, 48.643 350.948, 50.511 353.012 C 52.405 355.105, 52.201 357.190, 49.170 366.750 C 48.262 369.613, 48.359 370, 49.981 370 C 52.346 370, 55.371 363.796, 57.645 354.285 L 59.370 347.070 56.185 340.895 C 53.038 334.794, 52.117 331.336, 53.936 332.461 C 54.451 332.779, 56.961 336.180, 59.513 340.020 C 64.485 347.499, 66.692 348.568, 69.283 344.750 C 70.975 342.256, 72.300 342.931, 73.503 346.901 C 74.084 348.819, 73.921 349.183, 72.689 348.711 C 71.056 348.084, 68.568 350.234, 69.660 351.327 C 70.014 351.680, 69.065 353.208, 67.551 354.722 C 61.400 360.873, 59.131 369.278, 62.591 373.101 C 64.842 375.587, 68.085 375.508, 71.420 372.884 C 73.963 370.884, 74.180 370.864, 75.395 372.525 C 76.293 373.754, 76.440 375.519, 75.883 378.391 C 73.865 388.807, 75.562 400.283, 81.082 413.543 C 84.967 422.875, 90.190 428, 95.815 428 C 98.900 428, 100.052 428.579, 101.874 431.043 C 103.111 432.717, 106.062 435.028, 108.431 436.179 C 116.482 440.090, 123.771 436.403, 127.550 426.508 C 128.857 423.086, 129.957 421.847, 132.372 421.075 C 138.381 419.154, 146.008 418.683, 149.960 419.987 C 153.362 421.110, 154.211 421.022, 157.642 419.194 C 159.764 418.063, 163.237 416.853, 165.361 416.503 C 167.987 416.071, 169.381 415.258, 169.721 413.961 C 170.159 412.286, 170.906 412.117, 175.860 412.579 C 182.807 413.225, 184.429 412.232, 184.469 407.306 C 184.500 403.539, 184.542 403.499, 188.589 403.408 C 190.838 403.358, 193.251 402.963, 193.951 402.530 C 194.662 402.091, 195.536 402.249, 195.931 402.889 C 196.428 403.692, 198.072 403.272, 201.447 401.477 C 205.805 399.160, 206.414 399.065, 207.956 400.460 C 208.892 401.307, 210.047 402, 210.524 402 C 211.656 402, 217 407.126, 217 408.212 C 217 408.673, 215.875 409.477, 214.500 410 C 211.600 411.103, 211.225 413.525, 213.750 414.844 C 215.527 415.772, 221.245 414.573, 227.681 411.923 C 231.953 410.164, 238.123 411.642, 239.487 414.750 C 240.109 416.168, 241.346 417, 242.833 417 C 244.130 417, 246.386 417.831, 247.846 418.847 C 250.905 420.976, 256.437 423, 259.195 423 C 262.068 423, 266 418.520, 266 415.246 C 266 412.932, 266.619 412.178, 269.321 411.201 C 273.947 409.528, 273.996 409.555, 274.032 413.750 C 274.105 422.338, 279.272 423.410, 284.632 415.949 C 287.977 411.293, 288.501 410.951, 291.328 411.572 C 295.680 412.528, 302.655 412.255, 304.925 411.040 C 305.987 410.472, 307.568 410.281, 308.440 410.615 C 311.151 411.656, 312.791 409.151, 314.065 402.025 C 315.083 396.328, 315.790 394.792, 318.224 392.992 C 319.837 391.800, 321.390 391.056, 321.674 391.340 C 322.868 392.534, 320.688 397.925, 317.951 400.547 C 314.354 403.994, 314.190 407.281, 317.455 410.545 C 320.992 414.083, 324.911 413.760, 329.218 409.577 C 331.341 407.515, 334.853 405.527, 338.053 404.577 C 345.014 402.510, 345.478 402.559, 346.818 405.500 C 348.383 408.934, 350.345 408.632, 352.503 404.625 C 353.831 402.158, 355.002 401.250, 356.854 401.250 C 359.764 401.250, 365 396.015, 365 393.107 C 365 390.654, 366.924 389.157, 371.095 388.365 C 372.968 388.009, 375.223 387.351, 376.106 386.901 C 377.237 386.325, 378.353 386.821, 379.878 388.575 C 384.866 394.311, 391.744 393.250, 394.649 386.297 C 396.029 382.994, 395.978 382.290, 393.971 376.922 C 392.777 373.730, 390.719 369.652, 389.398 367.861 C 388.076 366.070, 387.334 364.299, 387.748 363.925 C 388.161 363.552, 390.975 362.454, 394 361.486 C 408.674 356.790, 421 347.112, 421 340.287 C 421 337.444, 417.309 334.291, 415.776 335.824 C 414.888 336.712, 414.885 337, 415.765 337 C 416.405 337, 417.430 337.935, 418.041 339.077 C 420.458 343.593, 411.547 351.724, 398 357.364 C 390.878 360.329, 385.938 361.117, 385.322 359.387 C 385.103 358.775, 386.351 357.683, 388.095 356.961 C 389.839 356.238, 392.564 354.555, 394.151 353.220 C 396.310 351.403, 397.698 350.958, 399.672 351.454 C 405.304 352.867, 410.477 348.056, 408.491 343.252 C 407.740 341.435, 407.572 341.694, 406.585 346.183 C 405.891 349.341, 403.280 350.437, 399.696 349.075 C 396.557 347.881, 392 344.029, 392 342.570 C 392.001 341.981, 394.344 339.475, 397.208 337 C 402.458 332.462, 409.608 329.002, 413.739 329.001 C 414.971 329, 418.325 328.109, 421.192 327.019 C 425.208 325.493, 426.591 325.321, 427.212 326.269 C 428.225 327.816, 429.939 334.014, 433.887 350.402 C 436.017 359.244, 437.798 364.358, 439.548 366.652 C 442.306 370.268, 443.749 370.817, 444.608 368.578 C 445.315 366.736, 443.312 363, 441.617 363 C 440.368 363, 437.889 358.261, 436.449 353.119 C 436.082 351.810, 434.745 344.400, 433.477 336.653 C 431.196 322.712, 431.193 322.553, 433.126 321.199 C 434.200 320.447, 436.299 318.694, 437.790 317.305 C 440.906 314.400, 444.085 313, 447.565 313 C 450.503 313, 450.562 313.566, 448.050 317.686 C 445.746 321.465, 442.810 323.248, 440.408 322.326 C 439.226 321.873, 438.903 322.034, 439.395 322.830 C 441.977 327.008, 452 318.723, 452 312.410 C 452 310.967, 451.259 310.809, 446.907 311.325 C 442.350 311.864, 441.894 311.747, 442.577 310.214 C 442.997 309.271, 443.540 306.506, 443.785 304.068 C 444.192 300.014, 443.944 299.399, 440.865 296.845 L 437.500 294.054 440.215 294.027 C 441.791 294.011, 444.398 292.711, 446.428 290.929 L 449.926 287.858 450.547 290.679 C 451.562 295.297, 451.886 296, 452.993 296 C 456.009 296, 456.930 280.213, 454.194 275.422 C 453.365 273.971, 453.241 275.705, 453.687 282.500 C 454.374 292.986, 453.579 293.449, 452.018 283.471 C 451.418 279.637, 450.710 275.781, 450.444 274.901 C 450.068 273.656, 451.565 272.834, 457.231 271.179 C 461.229 270.010, 467.650 268.567, 471.500 267.970 C 483.822 266.062, 487.904 261.996, 486.005 253.524 C 485.059 249.303, 485.183 248.626, 487.445 245.661 C 491.256 240.664, 495.273 231.128, 495.273 227.076 C 495.273 220.178, 490.386 214.108, 485.962 215.512 C 483.143 216.407, 483.489 219, 486.427 219 C 489.242 219, 493 223.224, 492.999 226.385 C 492.998 228.859, 487.570 240.705, 485.271 243.250 C 483.397 245.324, 480.085 245.514, 477.590 243.690 C 475.879 242.438, 475.893 242.225, 477.896 238.940 C 480.406 234.822, 480.601 231.445, 478.378 230.592 C 476.126 229.727, 477.331 224.038, 480.232 221.835 C 482.031 220.470, 482.491 218.943, 482.793 213.335 C 482.995 209.576, 482.718 204.567, 482.176 202.204 C 481.319 198.463, 481.495 197.365, 483.537 193.704 C 485.738 189.760, 487.639 181.921, 488.718 172.347 C 489.514 165.286, 484.660 158.177, 477.662 156.152 C 475.476 155.520, 475.448 155.355, 476.746 150.804 C 477.657 147.612, 478.760 145.894, 480.189 145.440 C 484.156 144.181, 491 136.957, 491 134.028 C 491 128.107, 484.747 126.053, 475.848 129.051 C 472.449 130.196, 468.630 130.873, 467.363 130.555 C 465.386 130.059, 465.190 129.629, 465.987 127.535 C 467.076 124.670, 465.124 116.123, 461.966 109.934 C 458.948 104.017, 457.867 106.071, 460.491 112.740 C 463.906 121.420, 464.175 124.184, 461.956 127.832 C 459.590 131.722, 458.177 131.746, 455.174 127.945 C 452.883 125.044, 452.879 125, 454.924 125 C 458.138 125, 457.378 123.056, 453.536 121.451 C 451.631 120.655, 449.590 119.103, 449.001 118.002 C 448.412 116.901, 447.480 116, 446.930 116 C 446.286 116, 446.312 116.714, 447 118 C 448.214 120.269, 447.744 120.469, 444.846 118.918 C 443.383 118.134, 442.984 117.200, 443.403 115.532 C 444.110 112.714, 441.880 110.586, 439.133 111.458 C 438.053 111.800, 435.971 111.780, 434.506 111.412 L 431.842 110.743 432.522 102.576 C 433.122 95.372, 432.941 93.853, 430.988 89.698 C 428.365 84.119, 423.836 80, 420.323 80 C 416.743 80, 410.991 85.974, 411.032 89.650 C 411.068 92.869, 413.054 96, 415.060 96 C 416.102 96, 416.133 95.733, 415.200 94.800 C 413.726 93.326, 413.637 88.546, 415.035 85.934 C 416.599 83.012, 421.385 83.403, 423.949 86.662 C 426.255 89.594, 427.118 92.257, 427.348 97.153 C 427.489 100.155, 427.145 100.522, 422.573 102.242 C 418.492 103.778, 417.154 103.892, 414.778 102.908 C 412.609 102.009, 411.298 101.999, 409.398 102.865 C 407.672 103.651, 406.298 103.695, 405.008 103.004 C 403.765 102.339, 402.254 102.333, 400.536 102.986 C 398.298 103.837, 397.822 103.665, 397.085 101.737 C 395.783 98.333, 392.850 96.147, 386.668 93.975 C 378.080 90.956, 377.658 91.738, 385.825 95.540 C 392.620 98.703, 394.432 101, 390.132 101 C 389.170 101, 387.509 101.661, 386.441 102.468 C 383.874 104.410, 380.523 104.380, 378.541 102.398 C 377.351 101.208, 375.853 100.948, 372.719 101.389 C 370.399 101.715, 366.813 101.968, 364.750 101.951 C 360.216 101.912, 360.055 102.460, 364 104.500 C 365.780 105.420, 367 106.846, 367 108.004 C 367 109.725, 366.703 109.822, 364.496 108.816 C 361.045 107.244, 359.991 108.730, 362.966 110.974 C 365.045 112.542, 365.208 113.045, 364.078 114.406 C 363.351 115.283, 361.873 116, 360.796 116 C 359.718 116, 356.961 117.490, 354.668 119.311 C 349.349 123.536, 342.708 126.418, 339.953 125.698 C 338.773 125.389, 337.196 125.371, 336.448 125.658 C 335.701 125.945, 332.481 131.382, 329.295 137.739 C 326.079 144.155, 322.759 149.497, 321.835 149.744 C 320.919 149.989, 319.894 151.287, 319.557 152.628 C 318.571 156.557, 315.081 157.520, 309.065 155.521 C 303.572 153.697, 301 153.999, 301 156.469 C 301 157.535, 302.004 158, 304.309 158 C 306.129 158, 308.385 158.563, 309.323 159.250 C 310.904 160.409, 310.845 160.769, 308.514 164.197 C 307.131 166.230, 306 168.368, 306 168.947 C 306 169.526, 304.927 170, 303.617 170 C 302.026 170, 300.992 170.749, 300.508 172.250 C 299.819 174.389, 299.745 174.351, 299.010 171.500 C 298.585 169.850, 298.183 166.012, 298.118 162.972 C 297.934 154.353, 290.159 131.441, 282.101 115.766 C 273.088 98.235, 269.368 92.561, 262.864 86.422 C 255.365 79.345, 239.661 69.222, 232.500 66.851 C 223.341 63.818, 223.070 63.486, 224.145 56.628 C 225.152 50.209, 227.529 44.902, 231.524 40.154 C 232.965 38.442, 233.860 36.582, 233.513 36.020 C 232.178 33.861, 230.052 35.177, 227.893 39.500 C 226.657 41.975, 225.106 44, 224.446 44 C 223.160 44, 219 35.210, 219 32.493 C 219 31.593, 218.374 30.231, 217.609 29.466 C 216.844 28.701, 215.286 25.009, 214.148 21.262 C 211.751 13.370, 208.539 9.785, 202.191 7.916 C 199.821 7.219, 197.436 5.815, 196.891 4.796 C 196.346 3.777, 195.469 3.210, 194.943 3.535 C 194.417 3.860, 192.682 3.198, 191.089 2.063 C 189.495 0.928, 188.036 0.029, 187.846 0.063 C 187.656 0.098, 186.488 0.534, 185.250 1.031 M 173.557 11.223 C 172.701 12.445, 172 13.959, 172 14.588 C 172 15.919, 175.826 21.002, 176.823 20.996 C 177.691 20.990, 178.147 14.191, 177.476 11.250 C 176.825 8.401, 175.540 8.392, 173.557 11.223 M 188.250 11.662 C 186.826 12.237, 186.574 14.619, 187.854 15.410 C 188.323 15.700, 189.214 14.826, 189.832 13.469 C 190.948 11.020, 190.659 10.690, 188.250 11.662 M 164.347 15 C 168.226 18.406, 169 18.647, 169 16.449 C 169 15.596, 167.439 14.246, 165.532 13.449 C 160.634 11.403, 160.480 11.605, 164.347 15 M 123 13.704 C 120.684 14.547, 116 19.219, 116 20.687 C 116 22.317, 115.547 22.363, 122.038 20.077 C 125.042 19.019, 127.455 17.669, 127.400 17.077 C 127.345 16.484, 127.233 15.325, 127.150 14.500 C 126.997 12.973, 125.694 12.723, 123 13.704 M 135.511 15.368 C 133.705 16.689, 133.717 16.778, 135.858 17.924 C 137.077 18.577, 138.921 18.843, 139.954 18.515 C 142.539 17.694, 143.539 19.747, 141.598 21.892 C 140.719 22.863, 140 23.960, 140 24.329 C 140 25.316, 143.853 29, 144.885 29 C 145.372 29, 145.749 25.625, 145.723 21.500 L 145.674 14 141.528 14 C 139.248 14, 136.540 14.616, 135.511 15.368 M 194.573 20.521 C 193.513 21.323, 192.887 22.220, 193.181 22.515 C 193.476 22.809, 194.793 22.154, 196.108 21.058 C 198.843 18.781, 197.496 18.310, 194.573 20.521 M 127.667 22.667 C 127.300 23.033, 127 23.798, 127 24.367 C 127 24.993, 127.466 24.934, 128.183 24.217 C 128.834 23.566, 129.134 22.801, 128.850 22.517 C 128.566 22.233, 128.033 22.300, 127.667 22.667 M 118.441 24.468 C 117.374 25.276, 117.007 25.951, 117.628 25.968 C 118.248 25.986, 119.315 25.325, 120 24.500 C 121.581 22.595, 120.935 22.582, 118.441 24.468 M 111.783 28.750 C 108.863 32.098, 107.856 34.924, 108.927 36.763 C 109.799 38.260, 109.943 38.144, 109.970 35.924 C 109.986 34.500, 111.118 32.298, 112.500 31 C 115.029 28.624, 115.701 27, 114.155 27 C 113.690 27, 112.623 27.788, 111.783 28.750 M 115.278 32.250 C 113.416 34.656, 113.149 36.821, 114.487 38.651 C 116.184 40.972, 116.565 40.524, 117.373 35.250 C 118.016 31.051, 117.157 29.821, 115.278 32.250 M 86.624 53.462 C 87.483 55.701, 90.696 57.301, 91.552 55.916 C 92.370 54.593, 91.254 53.453, 88.256 52.547 C 86.471 52.008, 86.137 52.194, 86.624 53.462 M 62 64.500 C 60.649 66.128, 60.972 66.332, 63.418 65.393 C 64.288 65.059, 65 64.384, 65 63.893 C 65 62.510, 63.380 62.838, 62 64.500 M 77 66.059 C 77 66.641, 77.450 66.840, 78 66.500 C 78.550 66.160, 79 65.684, 79 65.441 C 79 65.198, 78.550 65, 78 65 C 77.450 65, 77 65.477, 77 66.059 M 52.567 71.700 C 49.888 74.185, 49.831 74.404, 51.547 75.658 C 53.182 76.854, 53.490 76.617, 54.636 73.281 C 55.337 71.244, 55.796 69.463, 55.657 69.323 C 55.518 69.184, 54.127 70.254, 52.567 71.700 M 59.084 71.411 C 57.838 72.737, 56.978 74.649, 57.173 75.661 C 57.466 77.180, 58.482 77.500, 63.014 77.500 C 68.489 77.500, 68.500 77.494, 68.279 74.507 C 67.873 69.022, 62.901 67.348, 59.084 71.411 M 49 82.146 C 49 83.346, 49.824 84.403, 51 84.710 C 52.100 84.998, 53 85.882, 53 86.676 C 53 87.469, 53.450 87.840, 54 87.500 C 54.550 87.160, 55 85.828, 55 84.539 C 55 82.834, 54.182 81.911, 52 81.150 C 49.305 80.210, 49 80.311, 49 82.146 M 45.574 84.862 C 45.029 86.513, 45.276 87.705, 46.397 88.826 C 48.211 90.639, 48.400 89.571, 47.077 85 L 46.353 82.500 45.574 84.862 M 56.663 83.794 C 56.443 84.182, 55.963 86.163, 55.596 88.196 C 55.044 91.255, 55.269 92.074, 56.899 92.946 C 59.330 94.247, 60.299 94.293, 59.544 93.072 C 59.229 92.562, 59.877 91.856, 60.985 91.505 C 63.263 90.782, 63.749 86.825, 61.750 85.278 C 59.841 83.800, 57.111 83.004, 56.663 83.794 M 50 96.500 C 50 97.362, 50.902 98, 52.122 98 C 53.896 98, 54.040 97.753, 53 96.500 C 52.315 95.675, 51.360 95, 50.878 95 C 50.395 95, 50 95.675, 50 96.500 M 37.551 99.339 C 36.037 100.446, 35.973 100.776, 37.181 101.239 C 38.002 101.554, 39.164 100.967, 39.830 99.900 C 41.213 97.685, 40.165 97.427, 37.551 99.339 M 29.799 104.729 C 26.549 106.744, 23.452 112.131, 24.289 114.311 C 25.678 117.930, 35.658 122.212, 39.901 121.010 C 41.331 120.605, 42.387 119.762, 42.250 119.137 C 42.112 118.511, 43.077 118, 44.393 118 C 45.709 118, 47.061 117.284, 47.396 116.410 C 48.117 114.533, 47.238 112.735, 45.981 113.512 C 44.870 114.199, 43 110.792, 43 108.079 C 43 106.666, 41.873 105.556, 39.378 104.513 C 34.807 102.604, 33.165 102.641, 29.799 104.729 M 440 115 C 440 115.550, 440.450 116, 441 116 C 441.550 116, 442 115.550, 442 115 C 442 114.450, 441.550 114, 441 114 C 440.450 114, 440 114.450, 440 115 M 448.182 127.500 C 448.808 128.875, 449.924 130, 450.661 130 C 452.533 130, 452.329 128.608, 450.171 126.655 C 447.572 124.303, 446.863 124.604, 448.182 127.500 M 477.199 130.986 C 475.384 131.416, 473.694 131.973, 473.444 132.223 C 473.194 132.473, 474.004 134.662, 475.245 137.089 C 476.485 139.515, 477.579 141.654, 477.675 141.841 C 478.088 142.649, 482.246 140.664, 485.005 138.342 C 491.520 132.860, 487.055 128.652, 477.199 130.986 M 461.851 134.842 C 458.883 137.493, 458.646 138.091, 459.545 140.649 C 460.377 143.014, 461.117 143.500, 463.886 143.500 L 467.223 143.500 467.362 138.085 C 467.529 131.528, 466.342 130.829, 461.851 134.842 M 469.667 135.667 C 469.300 136.033, 469 137.206, 469 138.274 C 469 139.577, 469.487 140.027, 470.481 139.646 C 471.543 139.238, 471.897 139.692, 471.731 141.248 C 471.584 142.631, 472.135 143.550, 473.250 143.782 C 475.379 144.226, 475.448 143.008, 473.551 138.468 C 472.143 135.097, 471.035 134.298, 469.667 135.667 M 18.667 137.667 C 17.516 138.817, 17.938 140, 19.500 140 C 20.325 140, 21 139.325, 21 138.500 C 21 136.938, 19.817 136.516, 18.667 137.667 M 453.200 139.200 C 450.251 142.149, 453.419 146, 458.794 146 C 462.299 146, 462.361 145.941, 460.337 144.523 C 459.177 143.711, 457.944 141.911, 457.595 140.523 C 456.914 137.808, 455.129 137.271, 453.200 139.200 M 16 145.211 C 16 146.060, 16.749 147.373, 17.664 148.128 C 19.186 149.383, 19.217 149.287, 18.028 147 C 16.286 143.648, 16 143.395, 16 145.211 M 21 145.059 C 21 145.641, 21.450 145.840, 22 145.500 C 22.550 145.160, 23 144.684, 23 144.441 C 23 144.198, 22.550 144, 22 144 C 21.450 144, 21 144.477, 21 145.059 M 23 147.393 C 23 147.609, 23.675 148.045, 24.500 148.362 C 25.325 148.678, 26 148.501, 26 147.969 C 26 147.436, 25.325 147, 24.500 147 C 23.675 147, 23 147.177, 23 147.393 M 469.322 150.326 C 465.024 151.914, 464.647 152.461, 466.171 154.903 C 468.205 158.159, 470.727 157.456, 473 153 C 475.227 148.635, 474.779 148.310, 469.322 150.326 M 460.500 155 C 460.160 155.550, 460.359 156, 460.941 156 C 461.523 156, 462 155.550, 462 155 C 462 154.450, 461.802 154, 461.559 154 C 461.316 154, 460.840 154.450, 460.500 155 M 460 159 C 460 159.550, 461.152 160, 462.559 160 C 464.010 160, 464.851 159.567, 464.500 159 C 464.160 158.450, 463.009 158, 461.941 158 C 460.873 158, 460 158.450, 460 159 M 471.655 159.829 C 469.463 162.251, 469.568 163, 472.100 163 C 474.191 163, 478.875 167.294, 482.297 172.347 C 484.859 176.130, 486.001 175.637, 485.993 170.750 C 485.979 161.716, 476.489 154.487, 471.655 159.829 M 467.975 166.565 C 465.873 172.093, 467.526 173.315, 474.685 171.526 C 478.780 170.503, 478.834 170.434, 477.185 168.357 C 475.427 166.143, 471.914 164, 470.041 164 C 469.441 164, 468.512 165.154, 467.975 166.565 M 459.494 167.006 C 457.510 169.199, 458.016 170.592, 460.457 169.655 C 461.306 169.329, 462 168.149, 462 167.031 C 462 164.508, 461.758 164.505, 459.494 167.006 M 463 174.500 C 461.963 175.750, 462.095 176, 463.796 176 C 466.734 176, 469.079 174.936, 468.435 173.895 C 467.567 172.491, 464.372 172.847, 463 174.500 M 474 173.917 C 474 174.421, 474.563 175.101, 475.250 175.428 C 475.938 175.755, 475.398 175.811, 474.052 175.553 C 470.822 174.934, 469 176.582, 469 180.122 C 469 183.082, 470.489 183.657, 476.500 183.017 C 479.078 182.743, 478.984 182.875, 479.690 178.524 C 480.116 175.896, 479.883 174.540, 478.897 173.915 C 477.061 172.753, 474 172.754, 474 173.917 M 482.079 178.583 C 482.127 179.748, 482.364 179.985, 482.683 179.188 C 482.972 178.466, 482.936 177.603, 482.604 177.271 C 482.272 176.939, 482.036 177.529, 482.079 178.583 M 463.522 178.913 C 461.589 179.668, 461.594 179.712, 463.707 180.843 C 466.638 182.412, 467 182.319, 467 180 C 467 177.850, 466.580 177.719, 463.522 178.913 M 25.500 182 C 24.718 183.266, 26.042 183.266, 28 182 C 29.293 181.165, 29.266 181.029, 27.809 181.015 C 26.879 181.007, 25.840 181.450, 25.500 182 M 457.044 183.355 C 457.068 183.435, 457.675 185.750, 458.391 188.500 C 460.163 195.300, 463.241 196.938, 468.861 194.071 C 476.359 190.246, 478.070 187, 472.589 187 C 470.713 187, 466.438 186.147, 463.089 185.105 C 459.740 184.063, 457.020 183.275, 457.044 183.355 M 482.310 184.804 C 481.656 185.211, 479.986 187.215, 478.600 189.258 C 476.188 192.812, 476.160 193.015, 477.955 193.976 C 479.568 194.839, 480.136 194.350, 482.001 190.497 C 484.248 185.856, 484.375 183.520, 482.310 184.804 M 18 196.500 C 17.306 197.337, 17.197 198, 17.755 198 C 18.305 198, 19.315 197.325, 20 196.500 C 20.694 195.663, 20.803 195, 20.245 195 C 19.695 195, 18.685 195.675, 18 196.500 M 25 196.226 C 25 197.084, 25.739 198.069, 26.641 198.416 C 28.070 198.964, 28.107 198.816, 26.924 197.273 C 26.177 196.298, 25.439 195.313, 25.283 195.083 C 25.127 194.854, 25 195.369, 25 196.226 M 471.500 196 C 471.138 196.585, 472.176 197, 474 197 C 475.824 197, 476.862 196.585, 476.500 196 C 476.160 195.450, 475.035 195, 474 195 C 472.965 195, 471.840 195.450, 471.500 196 M 16.200 201.200 C 15.540 201.860, 15 202.945, 15 203.611 C 15 204.876, 20.970 210.363, 21.629 209.704 C 21.837 209.497, 21.719 207.228, 21.367 204.663 C 20.706 199.841, 18.822 198.578, 16.200 201.200 M 25 201 C 25 201.550, 25.477 202, 26.059 202 C 26.641 202, 26.840 201.550, 26.500 201 C 26.160 200.450, 25.684 200, 25.441 200 C 25.198 200, 25 200.450, 25 201 M 27.148 203.467 C 26.444 205.414, 26.189 208.019, 26.582 209.254 C 27.234 211.305, 27.410 211.171, 28.605 207.722 C 29.331 205.627, 29.584 203.049, 29.172 201.935 C 28.519 200.172, 28.272 200.359, 27.148 203.467 M 472.016 200.734 C 469.550 200.956, 467.188 201.669, 466.766 202.319 C 466.190 203.207, 465.788 203.172, 465.145 202.176 C 464.638 201.391, 462.953 200.984, 461.006 201.176 C 458.460 201.427, 457.318 202.258, 455.920 204.875 C 454.236 208.028, 454.226 208.415, 455.766 210.765 C 457.554 213.494, 468.171 218.998, 471.650 218.999 C 473.587 219, 473.448 218.648, 470.250 215.450 C 466.466 211.666, 466.781 209.537, 471.033 210.165 C 474.021 210.607, 476.041 213.719, 474.118 214.919 C 473.034 215.596, 473.293 216.146, 475.324 217.477 C 476.747 218.409, 478.323 218.919, 478.825 218.608 C 480.204 217.756, 480.875 211.117, 480.147 205.511 C 479.443 200.086, 479.414 200.069, 472.016 200.734 M 8.571 208.318 C 6.749 210.707, 5.568 213.690, 5.229 216.756 L 4.706 221.500 9.096 217 C 11.510 214.525, 13.375 212.050, 13.240 211.500 C 13.105 210.950, 12.633 209.178, 12.192 207.562 L 11.389 204.623 8.571 208.318 M 18.142 212.542 C 19.595 214.025, 21.356 215.048, 22.056 214.815 C 22.757 214.581, 21.570 213.370, 19.414 212.118 L 15.500 209.846 18.142 212.542 M 11.299 217.250 C 8.599 220.214, 6.776 223.828, 7.439 224.901 C 7.731 225.374, 9.137 225.984, 10.563 226.257 C 12.908 226.705, 13.095 226.514, 12.526 224.246 C 12.074 222.448, 12.506 221.090, 14.053 219.444 C 15.239 218.181, 15.911 216.665, 15.546 216.074 C 14.560 214.478, 13.576 214.751, 11.299 217.250 M 452 222.132 C 452 226.520, 457.834 232, 462.506 232 C 466.223 232, 469.500 230.860, 472.419 228.550 C 474.304 227.059, 474.305 226.994, 472.442 224.936 C 470.846 223.173, 469.830 222.942, 466.023 223.477 C 463.535 223.828, 460.712 224.344, 459.750 224.624 C 458.788 224.905, 458 224.654, 458 224.067 C 458 223.480, 459.125 223, 460.500 223 C 461.875 223, 463 222.594, 463 222.098 C 463 220.971, 457.496 219, 454.351 219 C 452.383 219, 452 219.511, 452 222.132 M 16.095 221.941 C 14.500 222.927, 15.492 225, 17.559 225 C 19.152 225, 19.364 224.121, 18.208 222.303 C 17.751 221.583, 16.908 221.439, 16.095 221.941 M 452 228.378 C 452 228.585, 452.788 229.373, 453.750 230.128 C 455.336 231.371, 455.371 231.336, 454.128 229.750 C 452.821 228.084, 452 227.555, 452 228.378 M 7 230.443 C 7 232.951, 14.305 242.083, 15.382 240.921 C 15.596 240.689, 16.077 238.651, 16.450 236.391 C 17.118 232.342, 17.080 232.274, 13.814 231.726 C 11.991 231.420, 9.713 230.859, 8.750 230.478 C 7.787 230.097, 7 230.082, 7 230.443 M 472 231.500 C 471.315 232.325, 470.135 233, 469.378 233 C 467.316 233, 467.717 234.775, 469.937 235.480 C 472.404 236.263, 476 234.056, 476 231.759 C 476 229.607, 473.695 229.458, 472 231.500 M 24.187 233.274 C 22.711 235.053, 23.891 243, 25.632 243 C 27.646 243, 31 239.296, 31 237.071 C 31 233.200, 26.384 230.627, 24.187 233.274 M 467.500 237 C 467.840 237.550, 468.316 238, 468.559 238 C 468.802 238, 469 237.550, 469 237 C 469 236.450, 468.523 236, 467.941 236 C 467.359 236, 467.160 236.450, 467.500 237 M 474.427 236.765 C 473.045 237.712, 471.670 241.322, 473.006 240.496 C 473.943 239.917, 476.383 235.983, 475.785 236.015 C 475.628 236.024, 475.017 236.361, 474.427 236.765 M 19.158 240 C 19.158 241.375, 19.385 241.938, 19.662 241.250 C 19.940 240.563, 19.940 239.438, 19.662 238.750 C 19.385 238.063, 19.158 238.625, 19.158 240 M 19 249.882 C 19 250.432, 19.450 251.160, 20 251.500 C 20.550 251.840, 21 251.668, 21 251.118 C 21 250.568, 20.550 249.840, 20 249.500 C 19.450 249.160, 19 249.332, 19 249.882 M 461.750 251.163 C 458.587 252.265, 456 253.770, 456 254.507 C 456 256.140, 451.198 262, 449.860 262 C 449.331 262, 450.046 260.495, 451.449 258.656 C 452.852 256.816, 454 255.016, 454 254.656 C 454 253.758, 445.753 253.853, 444.455 254.765 C 443.776 255.242, 444.478 257.607, 446.455 261.506 C 449.981 268.459, 448.449 268.157, 467.831 265.716 C 482.074 263.922, 484.276 262.728, 483.799 257.051 C 483.549 254.082, 483.081 253.451, 480.944 253.202 C 479.057 252.982, 478.033 253.570, 477.026 255.452 C 476.276 256.854, 475.330 258, 474.925 258 C 473.965 258, 474.976 254.133, 476.121 253.425 C 477.928 252.309, 476.891 251.202, 473.429 250.553 C 471.465 250.184, 469.327 249.720, 468.679 249.521 C 468.031 249.321, 464.913 250.060, 461.750 251.163 M 453.813 250.683 C 454.534 250.972, 455.397 250.936, 455.729 250.604 C 456.061 250.272, 455.471 250.036, 454.417 250.079 C 453.252 250.127, 453.015 250.364, 453.813 250.683 M 25 254.981 C 25 258.522, 26.842 258.937, 29.506 255.994 C 31.584 253.697, 31.492 253.519, 27.750 252.622 C 25.212 252.013, 25 252.194, 25 254.981 M 439 262.378 C 439 263.971, 441.779 266.554, 442.605 265.728 C 443.370 264.963, 441.157 261, 439.965 261 C 439.434 261, 439 261.620, 439 262.378 M 33 275.868 C 33 279.173, 33.638 284.716, 34.417 288.188 C 35.197 291.660, 36.141 297.312, 36.515 300.748 C 37.234 307.342, 39 308.418, 39 302.262 C 39 300.271, 39.535 297.164, 40.188 295.357 C 41.212 292.525, 41.123 291.793, 39.540 290.045 C 38.075 288.425, 37.685 286.253, 37.603 279.258 C 37.506 270.973, 37.378 270.483, 35.250 270.180 C 33.131 269.879, 33 270.210, 33 275.868 M 437 274.941 C 437 277.539, 438.518 278.328, 440.979 277.011 C 444.091 275.346, 443.518 273, 440 273 C 437.697 273, 437 273.451, 437 274.941 M 427.597 275.844 C 427.251 276.404, 427.455 277.163, 428.050 277.531 C 429.588 278.481, 430.580 277.180, 429.296 275.896 C 428.578 275.178, 428.019 275.161, 427.597 275.844 M 444.062 278.337 C 443.418 280.032, 442.300 281, 440.989 281 C 438.292 281, 434.159 289.824, 436.213 291.195 C 438.174 292.504, 443.120 291.234, 445.797 288.735 C 447.806 286.858, 448.113 285.805, 447.708 282.163 C 447.078 276.494, 445.423 274.758, 444.062 278.337 M 431.695 281.111 C 430.253 281.950, 430.130 282.452, 431.088 283.606 C 432.127 284.858, 432.531 284.829, 434.120 283.392 C 437.031 280.757, 435.224 279.058, 431.695 281.111 M 426 285.500 C 426.685 286.325, 427.695 287, 428.245 287 C 428.803 287, 428.694 286.337, 428 285.500 C 427.315 284.675, 426.305 284, 425.755 284 C 425.197 284, 425.306 284.663, 426 285.500 M 433.500 286 C 433.160 286.550, 433.359 287, 433.941 287 C 434.523 287, 435 286.550, 435 286 C 435 285.450, 434.802 285, 434.559 285 C 434.316 285, 433.840 285.450, 433.500 286 M 419 292.941 C 419 295.083, 420.496 296.430, 421.906 295.558 C 423.242 294.732, 421.995 291, 420.383 291 C 419.623 291, 419 291.873, 419 292.941 M 427 297 C 427 297.550, 427.477 298, 428.059 298 C 428.641 298, 428.840 297.550, 428.500 297 C 428.160 296.450, 427.684 296, 427.441 296 C 427.198 296, 427 296.450, 427 297 M 424 298 C 424 298.550, 424.477 299, 425.059 299 C 425.641 299, 425.840 298.550, 425.500 298 C 425.160 297.450, 424.684 297, 424.441 297 C 424.198 297, 424 297.450, 424 298 M 426.171 304.370 C 423.152 305.357, 422.898 305.738, 423.443 308.466 C 424.477 313.633, 425.820 314.267, 432.577 312.772 C 437.332 311.720, 438.560 311.044, 438.804 309.346 C 439.040 307.709, 438.121 306.753, 434.739 305.116 C 432.335 303.952, 430.173 303.063, 429.934 303.141 C 429.695 303.218, 428.002 303.771, 426.171 304.370 M 408.182 315.500 C 409.489 318.369, 411.183 318.690, 413.063 316.424 C 414.147 315.117, 414.126 314.692, 412.936 313.939 C 412.146 313.439, 410.497 313.024, 409.271 313.015 C 407.256 313.001, 407.152 313.239, 408.182 315.500 M 402.531 314.950 C 401.884 315.997, 405.836 318.497, 406.728 317.605 C 407.391 316.943, 405.112 314, 403.937 314 C 403.486 314, 402.854 314.427, 402.531 314.950 M 429.805 315.679 C 427.890 316.183, 428.476 319, 430.496 319 C 431.201 319, 432.841 318.115, 434.139 317.033 L 436.500 315.067 434 315.149 C 432.625 315.195, 430.737 315.433, 429.805 315.679 M 415.274 319.240 C 412.246 320.212, 410.050 323.383, 411.442 324.775 C 412.121 325.454, 422.907 323.428, 423.894 322.436 C 424.523 321.804, 420.265 317.922, 419.139 318.102 C 418.788 318.158, 417.048 318.670, 415.274 319.240 M 390.575 325.879 C 390.240 326.420, 390.974 327.569, 392.206 328.432 C 394.411 329.976, 394.389 330, 390.723 330 C 387.697 330, 387 330.365, 387 331.953 C 387 334.705, 389.104 339, 390.452 339 C 391.075 339, 393.509 337.038, 395.862 334.640 L 400.141 330.281 396.320 327.906 C 391.215 324.733, 391.271 324.753, 390.575 325.879 M 59 332.379 C 59 332.587, 60.563 335.354, 62.474 338.527 C 65.125 342.929, 66.102 343.898, 66.596 342.611 C 66.960 341.662, 66.564 340.176, 65.691 339.211 C 64.837 338.268, 63.669 336.260, 63.094 334.748 C 62.520 333.237, 61.363 332, 60.525 332 C 59.686 332, 59 332.170, 59 332.379 M 380.667 335.667 C 379.399 336.934, 380.012 337.955, 382.950 339.474 C 384.573 340.313, 386.148 341, 386.450 341 C 387.655 341, 386.890 338.890, 385 337 C 382.902 334.902, 381.777 334.556, 380.667 335.667 M 385.199 343.794 L 381.898 344.134 382.577 348.817 C 382.951 351.393, 383.403 353.667, 383.582 353.870 C 384.315 354.705, 391.007 352.815, 392.982 351.216 L 395.106 349.495 391.803 346.475 C 389.242 344.133, 387.759 343.531, 385.199 343.794 M 372.479 346.034 C 371.899 346.973, 377.990 354.343, 378.733 353.601 C 378.989 353.344, 378.685 351.576, 378.057 349.672 C 376.966 346.368, 373.621 344.186, 372.479 346.034 M 69.226 358.750 C 67.586 361.363, 65.933 364.850, 65.553 366.500 C 64.864 369.496, 64.870 369.494, 69.432 365.042 C 73.028 361.532, 74 359.883, 74 357.292 C 74 352.775, 72.735 353.161, 69.226 358.750 M 384.507 355.989 C 384.157 356.555, 384.558 356.723, 385.448 356.382 C 387.180 355.717, 387.497 355, 386.059 355 C 385.541 355, 384.843 355.445, 384.507 355.989 M 350.035 362.250 C 350.131 365.625, 356.322 371.973, 359.538 371.993 C 360.109 371.997, 362.352 369.876, 364.523 367.279 C 367.252 364.014, 367.723 363.081, 366.051 364.252 C 363.424 366.092, 359.637 365.715, 356.895 363.342 C 356.012 362.577, 354.549 362.236, 353.645 362.583 C 352.729 362.934, 352 362.723, 352 362.107 C 352 361.498, 351.550 361, 351 361 C 350.450 361, 350.016 361.563, 350.035 362.250 M 376.064 363.750 C 376.344 367.016, 378.720 376.076, 379.288 376.042 C 379.679 376.019, 381.039 376, 382.309 376 C 383.579 376, 385.471 375.376, 386.514 374.613 C 388.350 373.271, 388.325 373.114, 385.720 369.700 C 381.676 364.397, 380.051 363, 377.929 363 C 376.868 363, 376.029 363.337, 376.064 363.750 M 367.676 367.467 C 365.396 369.747, 363.797 372.863, 364.404 373.844 C 365.042 374.877, 372.861 377.472, 373.478 376.855 C 374.171 376.163, 372.223 369.687, 370.692 367.593 C 369.446 365.890, 369.261 365.882, 367.676 367.467 M 349.348 374.465 C 349.707 375.399, 350 376.352, 350 376.582 C 350 376.812, 350.675 377, 351.500 377 C 353.699 377, 353.328 375.246, 350.848 373.919 C 348.991 372.925, 348.786 372.999, 349.348 374.465 M 336.500 375 C 336.160 375.550, 336.547 376, 337.359 376 C 338.172 376, 339.661 376.262, 340.668 376.582 C 342.344 377.114, 342.335 377.029, 340.559 375.582 C 338.306 373.746, 337.359 373.610, 336.500 375 M 86 378.393 C 86 379.709, 85.281 384.261, 84.403 388.509 C 82.927 395.645, 82.934 396.965, 84.492 405.866 C 86.425 416.907, 88.998 423.114, 92.630 425.493 C 95.994 427.697, 98 426.769, 98 423.007 C 98 420.617, 98.581 419.730, 100.663 418.938 C 103.729 417.772, 104.580 418.371, 105.575 422.399 C 106.045 424.301, 105.936 425.079, 105.259 424.660 C 104.691 424.309, 103.657 424.708, 102.961 425.547 C 101.906 426.818, 102.178 427.586, 104.598 430.159 C 111.864 437.887, 119.855 437.009, 123.871 428.040 C 125.839 423.644, 125.839 423.576, 123.925 422.235 C 121.613 420.615, 118.582 415.084, 119.503 414.163 C 119.861 413.806, 121.367 414.999, 122.850 416.816 C 125.998 420.674, 127 420.168, 127 414.722 C 127 410.820, 126.965 410.784, 123.750 411.355 C 115.442 412.833, 105.244 413.152, 101.211 412.062 C 96.885 410.892, 89.957 405.709, 91.139 404.527 C 91.490 404.176, 93.014 405.035, 94.524 406.435 C 97.591 409.277, 102.729 411.003, 108 410.961 L 111.500 410.933 109.139 408.967 C 107.587 407.674, 105.287 407, 102.424 407 C 98.942 407, 97.332 406.352, 94.386 403.766 C 89.246 399.253, 88 395.597, 88 385.032 C 88 379.677, 87.593 376, 87 376 C 86.450 376, 86 377.077, 86 378.393 M 384.750 377.162 C 383.238 377.715, 382 378.532, 382 378.978 C 382 380.735, 387.924 386, 389.901 386 C 392.353 386, 392.323 386.169, 390.881 380.443 C 389.709 375.789, 389.223 375.529, 384.750 377.162 M 364.015 378.750 C 364.069 381.399, 365.900 382.220, 369.637 381.270 L 373.500 380.289 370.685 379.144 C 367.481 377.842, 363.993 377.636, 364.015 378.750 M 378.620 378.807 C 378.305 379.316, 378.937 380.538, 380.024 381.521 C 382.277 383.560, 382.619 382.400, 380.564 379.690 C 379.809 378.695, 378.934 378.297, 378.620 378.807 M 93 381.500 C 93 382.325, 93.730 383, 94.622 383 C 95.951 383, 96.020 382.729, 95 381.500 C 94.315 380.675, 93.585 380, 93.378 380 C 93.170 380, 93 380.675, 93 381.500 M 332.559 381.935 C 330.888 383.782, 330.903 384.124, 332.890 389.435 C 334.966 394.983, 334.369 396.793, 331.714 393.002 C 330.387 391.107, 330.253 391.213, 329.099 395.065 C 328.430 397.297, 326.334 400.838, 324.441 402.933 C 322.549 405.028, 321 407.250, 321 407.871 C 321 409.549, 324.559 409.237, 326.061 407.427 C 328.105 404.964, 333.928 402.423, 340.750 401.016 C 344.661 400.209, 347 399.226, 347 398.388 C 347 397.447, 347.854 397.221, 349.879 397.626 C 353.566 398.363, 354.952 396.355, 352.123 394.373 C 350.929 393.538, 349.320 390.453, 348.382 387.203 C 347.476 384.067, 346.232 381.169, 345.617 380.765 C 345.003 380.361, 342.207 380.024, 339.405 380.015 C 335.624 380.004, 333.859 380.499, 332.559 381.935 M 354 381 C 355.970 382.273, 358.287 382.273, 357.500 381 C 357.160 380.450, 355.896 380.007, 354.691 380.015 C 352.910 380.028, 352.781 380.212, 354 381 M 393.158 383 C 393.158 384.375, 393.385 384.938, 393.662 384.250 C 393.940 383.563, 393.940 382.438, 393.662 381.750 C 393.385 381.063, 393.158 381.625, 393.158 383 M 366.750 383.662 C 367.438 383.940, 368.563 383.940, 369.250 383.662 C 369.938 383.385, 369.375 383.158, 368 383.158 C 366.625 383.158, 366.063 383.385, 366.750 383.662 M 370.755 384.896 C 368.146 385.778, 366.008 386.868, 366.005 387.317 C 366.002 387.767, 366.788 387.913, 367.750 387.642 C 368.712 387.371, 370.931 386.862, 372.681 386.510 C 374.430 386.159, 376.398 385.225, 377.053 384.436 C 378.572 382.606, 377.244 382.704, 370.755 384.896 M 380.177 385.644 C 380.729 388.455, 385.512 391.339, 388.413 390.611 C 391.381 389.866, 391.911 388, 389.155 388 C 388.140 388, 386.495 387.100, 385.500 386 C 383.270 383.536, 379.715 383.298, 380.177 385.644 M 355 386.382 C 355 387.207, 355.450 388.160, 356 388.500 C 356.550 388.840, 357 388.443, 357 387.618 C 357 386.793, 356.550 385.840, 356 385.500 C 355.450 385.160, 355 385.557, 355 386.382 M 360.212 386.188 C 359.546 386.854, 359 388.195, 359 389.168 C 359 390.581, 359.451 390.769, 361.250 390.103 C 362.488 389.645, 363.500 388.460, 363.500 387.469 C 363.500 385.230, 361.824 384.576, 360.212 386.188 M 315.722 386.709 C 314.731 388.468, 314.013 392.998, 314.731 392.964 C 315.892 392.910, 321.490 388.151, 320.961 387.668 C 319.866 386.671, 316.130 385.987, 315.722 386.709 M 97.750 388.299 C 94.231 389.690, 94.276 391.430, 97.923 395.077 C 101.063 398.217, 103 398.819, 103 396.655 C 103 395.915, 103.900 394.495, 105 393.500 C 106.100 392.505, 107 391.407, 107 391.061 C 107 390.434, 101.505 386.904, 100.846 387.106 C 100.656 387.165, 99.263 387.702, 97.750 388.299 M 359.750 392.080 C 358.788 392.641, 358 393.697, 358 394.427 C 358 395.158, 357.325 396.315, 356.500 397 C 354.278 398.844, 354.675 400, 357.531 400 C 359.030 400, 360.326 399.286, 360.708 398.250 C 361.064 397.288, 361.664 396.275, 362.042 396 C 362.421 395.725, 363.046 394.488, 363.433 393.250 C 364.207 390.769, 362.780 390.315, 359.750 392.080 M 107.459 395.067 C 106.383 396.808, 107.608 397.177, 108.980 395.524 C 109.769 394.574, 109.845 394, 109.181 394 C 108.597 394, 107.821 394.480, 107.459 395.067 M 290.988 395.515 C 290.288 396.358, 289.900 397.233, 290.126 397.459 C 291.022 398.356, 300.999 399.201, 300.985 398.379 C 300.922 394.793, 293.380 392.632, 290.988 395.515 M 121.607 397.582 C 120.634 400.116, 120.857 400.614, 123.500 401.818 C 126.390 403.135, 126.331 403.247, 124.902 399.149 C 123.697 395.692, 122.543 395.143, 121.607 397.582 M 95.442 400.936 C 96.406 402.001, 98.531 403.338, 100.165 403.908 C 102.669 404.780, 103.086 404.697, 102.818 403.375 C 102.643 402.513, 100.700 401.183, 98.500 400.419 C 93.377 398.640, 93.366 398.642, 95.442 400.936 M 107.020 400.476 C 106.231 401.426, 106.155 402, 106.819 402 C 108.027 402, 109.436 400.103, 108.743 399.409 C 108.491 399.158, 107.716 399.638, 107.020 400.476 M 349.576 401.321 C 348.305 402.250, 347.906 403.313, 348.372 404.528 C 349.021 406.219, 349.177 406.192, 350.610 404.147 C 352.649 401.235, 352.025 399.530, 349.576 401.321 M 116.542 401.787 C 115.465 402.029, 113.525 402.920, 112.232 403.768 C 110.444 404.939, 110.195 405.507, 111.190 406.139 C 113.774 407.777, 124 406.955, 124 405.109 C 124 403.807, 118.484 401.350, 116.542 401.787 M 286.113 403.652 C 284.836 406.454, 285.913 408.790, 287.913 407.554 C 289.182 406.770, 289.400 401, 288.161 401 C 287.699 401, 286.777 402.193, 286.113 403.652 M 293 401.889 C 291.117 402.408, 290.424 403.352, 290.193 405.710 C 289.889 408.803, 289.953 408.850, 295.321 409.521 C 298.754 409.950, 301.539 409.782, 302.879 409.065 C 305.275 407.783, 305.400 407.182, 304.025 403.565 C 303.204 401.407, 302.451 401.016, 299.275 401.100 C 297.199 401.155, 294.375 401.510, 293 401.889 M 135.609 404.824 C 135.256 405.395, 135.455 406.163, 136.050 406.531 C 137.536 407.449, 138.062 406.719, 137.071 405.114 C 136.539 404.255, 136.024 404.152, 135.609 404.824 M 266.459 409.067 C 265.370 410.829, 266.518 411.076, 268.573 409.521 C 270.265 408.241, 270.294 408.060, 268.809 408.032 C 267.879 408.014, 266.821 408.480, 266.459 409.067 M 251.750 411.080 C 249.146 412.597, 249.626 414.755, 252.950 416.474 C 258.880 419.541, 262.146 416.913, 257.952 412.449 C 255.437 409.771, 254.393 409.541, 251.750 411.080 M 132 411.173 C 132 411.360, 131.577 412.988, 131.060 414.791 L 130.120 418.068 133.810 417.392 C 141.398 416.001, 141.917 415.444, 137.500 413.430 C 135.300 412.426, 133.162 411.432, 132.750 411.219 C 132.338 411.007, 132 410.986, 132 411.173 M 261.638 414.500 C 261.955 415.325, 262.391 416, 262.607 416 C 262.823 416, 263 415.325, 263 414.500 C 263 413.675, 262.564 413, 262.031 413 C 261.499 413, 261.322 413.675, 261.638 414.500 M 100 424 C 100 424.550, 100.450 425, 101 425 C 101.550 425, 102 424.550, 102 424 C 102 423.450, 101.550 423, 101 423 C 100.450 423, 100 423.450, 100 424" fill="none" stroke="#000" stroke-width="2px" fill-rule="evenodd"/>
</svg>
