<?xml version="1.0" encoding="UTF-8" standalone="no"?>
<svg
   xmlns:dc="http://purl.org/dc/elements/1.1/"
   xmlns:cc="http://creativecommons.org/ns#"
   xmlns:rdf="http://www.w3.org/1999/02/22-rdf-syntax-ns#"
   xmlns:svg="http://www.w3.org/2000/svg"
   xmlns="http://www.w3.org/2000/svg"
   xmlns:sodipodi="http://sodipodi.sourceforge.net/DTD/sodipodi-0.dtd"
   xmlns:inkscape="http://www.inkscape.org/namespaces/inkscape"
   width="150"
   height="150"
   viewBox="0 0 39.687499 39.687501"
   version="1.1"
   id="svg135"
   inkscape:version="1.0.2-2 (e86c870879, 2021-01-15)"
   sodipodi:docname="icon.svg">
  <defs
     id="defs129" />
  <sodipodi:namedview
     id="base"
     pagecolor="#ffffff"
     bordercolor="#666666"
     borderopacity="1.0"
     inkscape:pageopacity="0.0"
     inkscape:pageshadow="2"
     inkscape:zoom="1.979899"
     inkscape:cx="105.85786"
     inkscape:cy="57.362271"
     inkscape:document-units="mm"
     inkscape:current-layer="layer1"
     inkscape:document-rotation="0"
     showgrid="false"
     units="px"
     inkscape:window-width="2400"
     inkscape:window-height="1271"
     inkscape:window-x="-9"
     inkscape:window-y="-9"
     inkscape:window-maximized="1" />
  <metadata
     id="metadata132">
    <rdf:RDF>
      <cc:Work
         rdf:about="">
        <dc:format>image/svg+xml</dc:format>
        <dc:type
           rdf:resource="http://purl.org/dc/dcmitype/StillImage" />
        <dc:title></dc:title>
      </cc:Work>
    </rdf:RDF>
  </metadata>
  <g
     inkscape:label="Layer 1"
     inkscape:groupmode="layer"
     id="layer1">
    <g
       id="g396"
       transform="matrix(0.230518,0,0,0.230518,-6.7548784,-84.14297)">
      <path
         id="path174"
         style="fill:#e8dfb8;fill-opacity:1;fill-rule:nonzero;stroke:none;stroke-width:0.133333"
         d="m 112.4328,525.82001 c -32.367735,0 -58.607735,-4.93867 -58.607735,-11.032 0,-6.09467 26.24,-11.03334 58.607735,-11.03334 32.36853,0 58.60853,4.93867 58.60853,11.03334 0,6.09333 -26.24,11.032 -58.60853,11.032" />
      <path
         id="path176"
         style="fill:#2fcc71;fill-opacity:1;fill-rule:nonzero;stroke:none;stroke-width:0.133333"
         d="m 68.854132,488.84667 c 0,0 -36.939066,30.12534 -35.823866,33.81467 1.114533,3.68667 12.615066,-1.61067 14.987466,-2.79733 2.373467,-1.18667 23.794266,-30.852 23.794266,-30.852 l -2.957866,-0.16534" />
      <path
         id="path178"
         style="fill:#fdc928;fill-opacity:1;fill-rule:nonzero;stroke:none;stroke-width:0.133333"
         d="m 76.464531,483.64934 c 0,0 -31.524399,35.75333 -29.822799,39.20933 1.701467,3.456 12.183333,-3.64933 14.330133,-5.20533 2.147867,-1.56 18.439066,-34.324 18.439066,-34.324 l -2.9464,0.32" />
      <path
         id="path180"
         style="fill:#4699df;fill-opacity:1;fill-rule:nonzero;stroke:none;stroke-width:0.133333"
         d="m 85.956265,480.49467 c 0,0 -30.209866,35.82267 -28.5084,39.28 1.700534,3.45734 12.1828,-3.64666 14.330267,-5.204 2.147333,-1.56 18.438532,-34.324 18.438532,-34.324 l -4.260399,0.248" />
      <path
         id="path182"
         style="fill:#dd6e0a;fill-opacity:1;fill-rule:nonzero;stroke:none;stroke-width:0.133333"
         d="m 120.03853,480.20667 c 0,6.38134 0,12.76667 0,19.15067 0,2.28667 3.54693,2.28667 3.54693,0 0,-6.384 0,-12.76933 0,-19.15067 0,-2.288 -3.54693,-2.288 -3.54693,0" />
      <path
         id="path184"
         style="fill:#dd6e0a;fill-opacity:1;fill-rule:nonzero;stroke:none;stroke-width:0.133333"
         d="m 111.22866,508.57734 c 2.5896,-8.51467 18.57654,-8.51467 21.1672,0 0.66454,2.17867 4.08814,1.248 3.42014,-0.944 -3.62067,-11.89067 -24.3884,-11.892 -28.0076,0 -0.66774,2.192 2.7556,3.12267 3.42026,0.944" />
      <path
         id="path186"
         style="fill:#dd6e0a;fill-opacity:1;fill-rule:nonzero;stroke:none;stroke-width:0.133333"
         d="m 121.34066,502.24934 c -0.73706,-0.28933 -0.0683,-0.009 0.12707,0.10533 0.44013,0.25734 0.6864,0.50267 1.08227,0.92 1.44013,1.51734 1.74373,3.78134 1.74373,5.77467 0.003,2.28933 3.548,2.28933 3.54693,0 -0.002,-4.008 -1.50786,-8.62667 -5.5584,-10.22133 -2.1296,-0.83734 -3.04426,2.59333 -0.9416,3.42133" />
      <path
         id="path188"
         style="fill:#f4881c;fill-opacity:1;fill-rule:nonzero;stroke:none;stroke-width:0.133333"
         d="m 101.00786,486.24134 c 0,6.38267 0,12.768 0,19.14933 0,2.28934 3.5452,2.28934 3.5452,0 0,-6.38133 0,-12.76666 0,-19.14933 0,-2.288 -3.5452,-2.288 -3.5452,0" />
      <path
         id="path190"
         style="fill:#f4881c;fill-opacity:1;fill-rule:nonzero;stroke:none;stroke-width:0.133333"
         d="m 92.195864,514.61067 c 2.5916,-8.51333 18.577596,-8.51333 21.168136,0 0.66466,2.18134 4.08866,1.25067 3.42146,-0.94266 -3.62093,-11.89334 -24.389062,-11.89334 -28.009462,0 -0.666134,2.19333 2.756266,3.124 3.419866,0.94266" />
      <path
         id="path192"
         style="fill:#f4881c;fill-opacity:1;fill-rule:nonzero;stroke:none;stroke-width:0.133333"
         d="m 102.3084,508.28401 c -0.7376,-0.292 -0.0672,-0.0107 0.1276,0.10533 0.43853,0.256 0.688,0.50133 1.0828,0.91867 1.44053,1.51866 1.7416,3.78 1.74426,5.776 0,2.28666 3.54734,2.28666 3.54627,0 -0.003,-4.008 -1.50827,-8.62534 -5.55667,-10.22134 -2.13186,-0.83733 -3.04693,2.59334 -0.94426,3.42134" />
      <path
         id="path194"
         style="fill:#fb5152;fill-opacity:1;fill-rule:nonzero;stroke:none;stroke-width:0.133333"
         d="m 50.552132,495.19467 c 0,0 21.752,-32.33333 34.044266,-50.82933 11.548933,-17.37733 41.138532,-75.064 75.538262,-67.264 34.39867,7.80267 35.576,61.968 -6.38266,89.37067 -52.13227,34.044 -91.496802,33.688 -103.199868,28.72266" />
      <path
         id="path196"
         style="fill:#ededed;fill-opacity:1;fill-rule:nonzero;stroke:none;stroke-width:0.133333"
         d="m 147.70266,415.71201 c 0,15.66267 12.43467,28.412 27.968,28.93867 16.32667,-18.75467 15.21734,-46.5 0.98134,-57.90134 -15.98934,0.007 -28.94934,12.97067 -28.94934,28.96267" />
      <path
         id="path198"
         style="fill:#352a30;fill-opacity:1;fill-rule:nonzero;stroke:none;stroke-width:0.133333"
         d="m 175.29733,405.27334 c 0,2.35067 -1.90533,4.25467 -4.256,4.25467 -2.34933,0 -4.256,-1.904 -4.256,-4.25467 0,-2.35066 1.90667,-4.25466 4.256,-4.25466 2.35067,0 4.256,1.904 4.256,4.25466" />
      <path
         id="path200"
         style="fill:#4699df;fill-opacity:1;fill-rule:nonzero;stroke:none;stroke-width:0.133333"
         d="m 49.065599,473.24667 c 0,0 46.951599,-43.97466 72.415061,-48.58533 25.46334,-4.61066 34.68467,25.888 17.30734,39.71867 -17.37654,13.832 -67.734935,26.95333 -89.722401,8.86666" />
      <path
         id="path202"
         style="fill:#fdc928;fill-opacity:1;fill-rule:nonzero;stroke:none;stroke-width:0.133333"
         d="m 121.48066,424.66134 c -11.7916,2.136 -28.186929,12.71067 -42.397862,23.45467 -0.088,0.092 -9.342666,9.84933 -6.022933,11.12667 3.336,1.28266 10.007866,-1.54134 10.007866,-1.54134 0,0 -9.239066,5.132 -7.6984,7.18534 1.54,2.05333 11.290534,0 11.290534,0 0,0 -8.6724,5.28933 -7.158267,7.13599 1.513467,1.84534 10.238533,0 10.238533,0 0,0 -8.4688,5.18667 -7.442266,6.468 1.011466,1.26134 11.042799,2.54134 11.338133,2.58 18.216132,-2.532 36.130132,-9.508 45.152002,-16.69066 17.37733,-13.83067 8.156,-44.32933 -17.30734,-39.71867" />
      <path
         id="path204"
         style="fill:#2fcc71;fill-opacity:1;fill-rule:nonzero;stroke:none;stroke-width:0.133333"
         d="m 121.48066,424.66134 c -4.12493,0.748 -8.81866,2.53734 -13.7796,4.996 -0.23173,0.19734 -8.661996,7.37067 -6.69373,10.292 1.9948,2.96267 11.86813,0 11.86813,0 0,0 -9.07386,6.25334 -8.3224,8.55734 0.7532,2.30266 13.52814,1.316 13.52814,1.316 0,0 -10.5192,5.59466 -8.68534,9.216 1.83387,3.62 14.1896,0 14.1896,0 0,0 -11.36773,8.22799 -9.39333,11.51999 1.95893,3.264 14.32347,0.0573 14.5276,0.005 3.97813,-1.97334 7.41227,-4.06933 10.06827,-6.184 17.37733,-13.83067 8.156,-44.32933 -17.30734,-39.71867" />
      <path
         id="path206"
         style="fill:#4699df;fill-opacity:1;fill-rule:nonzero;stroke:none;stroke-width:0.133333"
         d="m 181.11733,437.00534 c -34.112,-1.73866 -27.96267,-38.19866 -27.96267,-38.19866 -3.42666,4.76 -5.452,10.59466 -5.452,16.90533 0,15.66267 12.43467,28.412 27.968,28.93867 2.10534,-2.416 3.91334,-4.984 5.44667,-7.64534" />
      <path
         id="path208"
         style="fill:#6b727c;fill-opacity:1;fill-rule:nonzero;stroke:none;stroke-width:0.133333"
         d="m 185.88933,401.01868 c 0,0 17.96,8.96533 9.71067,26.736 l -6.348,-5.14267 c 0,0 -0.92267,3.54533 4.39733,5.14267 0,0 -2.18267,6.572 -9.92267,4.03466 0,0 -12.22533,-18.01733 2.16267,-30.77066" />
    </g>
  </g>
</svg>
