<?xml version="1.0" encoding="UTF-8" standalone="no"?>
<svg
   xmlns:dc="http://purl.org/dc/elements/1.1/"
   xmlns:cc="http://creativecommons.org/ns#"
   xmlns:rdf="http://www.w3.org/1999/02/22-rdf-syntax-ns#"
   xmlns:svg="http://www.w3.org/2000/svg"
   xmlns="http://www.w3.org/2000/svg"
   xmlns:sodipodi="http://sodipodi.sourceforge.net/DTD/sodipodi-0.dtd"
   xmlns:inkscape="http://www.inkscape.org/namespaces/inkscape"
   inkscape:version="1.0 (4035a4fb49, 2020-05-01)"
   sodipodi:docname="1.svg"
   id="svg1034"
   xml:space="preserve"
   enable-background="new 0 0 800 400"
   viewBox="0 0 400 400"
   height="400"
   width="400"
   y="0px"
   x="0px"
   version="1.1"><metadata
   id="metadata1040"><rdf:RDF><cc:Work
       rdf:about=""><dc:format>image/svg+xml</dc:format><dc:type
         rdf:resource="http://purl.org/dc/dcmitype/StillImage" /><dc:title></dc:title></cc:Work></rdf:RDF></metadata><defs
   id="defs1038" /><sodipodi:namedview
   fit-margin-bottom="0"
   fit-margin-right="0"
   fit-margin-left="0"
   fit-margin-top="0"
   inkscape:current-layer="svg1034"
   inkscape:window-maximized="1"
   inkscape:window-y="-8"
   inkscape:window-x="-8"
   inkscape:cy="200"
   inkscape:cx="325.7971"
   inkscape:zoom="1.4375"
   showgrid="false"
   id="namedview1036"
   inkscape:window-height="1017"
   inkscape:window-width="1920"
   inkscape:pageshadow="2"
   inkscape:pageopacity="0"
   guidetolerance="10"
   gridtolerance="10"
   objecttolerance="10"
   borderopacity="1"
   bordercolor="#666666"
   pagecolor="#ffffff" />
<g
   id="Слой_1">
	<rect
   y="0"
   x="0"
   id="rect2"
   height="400"
   width="400"
   fill="#f7f7e8" />
	<g
   id="g16">
		<rect
   y="0"
   id="rect4"
   height="400"
   width="30.5"
   fill="#eae7c7"
   x="21.5" />
		<rect
   y="0"
   id="rect6"
   height="400"
   width="30.5"
   fill="#eae7c7"
   x="86.5" />
		<rect
   y="0"
   id="rect8"
   height="400"
   width="30.5"
   fill="#eae7c7"
   x="151.5" />
		<rect
   y="0"
   id="rect10"
   height="400"
   width="30.5"
   fill="#eae7c7"
   x="216.5" />
		<rect
   y="0"
   id="rect12"
   height="400"
   width="30.5"
   fill="#eae7c7"
   x="281.5" />
		<rect
   y="0"
   id="rect14"
   height="400"
   width="30.5"
   fill="#eae7c7"
   x="346.5" />
	</g>
	<rect
   x="0"
   id="rect18"
   height="46.25"
   width="400"
   fill="#08423b"
   y="353.75" />
	<g
   id="g510">
		<g
   id="g84">
			<circle
   id="circle20"
   r="5.5"
   cy="151.875"
   cx="156.5"
   fill="#e94c4c" />
			<g
   id="g82">
				<g
   id="g68">
					<g
   id="g40">
						<path
   id="path22"
   d="m 209.31,324.365 c -0.871,0 -1.577,-0.706 -1.577,-1.577 v 0 c 0,-0.871 0.706,-1.577 1.577,-1.577 h 37.406 c 0.871,0 1.577,0.706 1.577,1.577 v 0 c 0,0.871 -0.706,1.577 -1.577,1.577 z"
   fill="#4f0f20" />
						<g
   id="g30">
							<circle
   id="circle24"
   r="18.558001"
   cy="306.95999"
   cx="207.60899"
   fill="#681224" />
							<circle
   id="circle26"
   r="15.659"
   cy="306.95999"
   cx="207.608"
   fill="#4f0f20" />
							<circle
   id="circle28"
   r="12.559"
   cy="306.95999"
   cx="207.608"
   fill="#340e1b" />
						</g>
						<g
   id="g38">
							<path
   id="path32"
   d="m 209.022,325.609 c 0,0.87 -0.706,1.577 -1.577,1.577 v 0 c -0.87,0 -1.577,-0.707 -1.577,-1.577 v -37.407 c 0,-0.871 0.707,-1.577 1.577,-1.577 v 0 c 0.871,0 1.577,0.707 1.577,1.577 z"
   fill="#681224" />
							<path
   id="path34"
   d="m 212.176,325.609 c 0,0.87 -0.706,1.577 -1.577,1.577 v 0 c -0.871,0 -1.576,-0.707 -1.576,-1.577 v -37.407 c 0,-0.871 0.705,-1.577 1.576,-1.577 v 0 c 0.871,0 1.577,0.707 1.577,1.577 z"
   fill="#4f0f20" />
							<path
   id="path36"
   d="m 205.978,325.609 c 0,0.87 -0.706,1.577 -1.577,1.577 v 0 c -0.871,0 -1.576,-0.707 -1.576,-1.577 v -37.407 c 0,-0.871 0.705,-1.577 1.576,-1.577 v 0 c 0.871,0 1.577,0.707 1.577,1.577 z"
   fill="#4f0f20" />
						</g>
					</g>
					<g
   id="g66">
						<g
   id="g48">
							<path
   id="path42"
   d="m 221.802,319.055 c 0.615,0.615 0.615,1.614 0,2.23 v 0 c -0.615,0.615 -1.614,0.615 -2.23,0 l -26.45,-26.45 c -0.616,-0.616 -0.616,-1.615 0,-2.23 v 0 c 0.615,-0.616 1.614,-0.615 2.23,0 z"
   fill="#681224" />
							<path
   id="path44"
   d="m 224.031,316.825 c 0.615,0.615 0.616,1.614 0,2.229 v 0 c -0.615,0.616 -1.614,0.615 -2.23,0 l -26.45,-26.451 c -0.616,-0.615 -0.616,-1.614 0,-2.23 v 0 c 0.616,-0.616 1.614,-0.615 2.23,0.001 z"
   fill="#4f0f20" />
							<path
   id="path46"
   d="m 219.648,321.208 c 0.615,0.615 0.616,1.614 0,2.229 v 0 c -0.615,0.616 -1.614,0.615 -2.229,0 l -26.45,-26.451 c -0.616,-0.615 -0.616,-1.614 -0.001,-2.23 v 0 c 0.616,-0.616 1.614,-0.615 2.23,0 z"
   fill="#4f0f20" />
						</g>
						<g
   id="g56">
							<path
   id="path50"
   d="m 195.349,321.207 c -0.615,0.615 -1.614,0.615 -2.23,0 v 0 c -0.615,-0.616 -0.615,-1.615 0,-2.23 l 26.452,-26.449 c 0.616,-0.616 1.616,-0.616 2.231,10e-4 v 0 c 0.615,0.615 0.615,1.614 0,2.229 z"
   fill="#681224" />
							<path
   id="path52"
   d="m 197.579,323.436 c -0.615,0.615 -1.614,0.616 -2.229,0 v 0 c -0.616,-0.615 -0.615,-1.614 0,-2.229 l 26.453,-26.449 c 0.615,-0.616 1.613,-0.616 2.229,0 v 0 c 0.616,0.615 0.615,1.614 0,2.229 z"
   fill="#4f0f20" />
							<path
   id="path54"
   d="m 193.196,319.053 c -0.615,0.615 -1.614,0.616 -2.23,0 v 0 c -0.615,-0.616 -0.615,-1.614 0,-2.229 l 26.453,-26.449 c 0.615,-0.616 1.614,-0.616 2.23,-10e-4 v 0 c 0.616,0.616 0.615,1.614 -0.001,2.23 z"
   fill="#4f0f20" />
						</g>
						<g
   id="g64">
							<path
   id="path58"
   d="m 188.796,308.427 c -0.87,0 -1.577,-0.706 -1.577,-1.577 v 0 c 0.001,-0.871 0.707,-1.577 1.577,-1.577 l 37.406,0.002 c 0.871,0 1.578,0.707 1.578,1.578 v 0 c 0,0.871 -0.706,1.576 -1.577,1.577 z"
   fill="#681224" />
							<path
   id="path60"
   d="m 188.796,311.581 c -0.87,0 -1.577,-0.706 -1.577,-1.577 v 0 c -0.001,-0.87 0.707,-1.577 1.577,-1.577 l 37.407,0.003 c 0.871,0 1.577,0.706 1.577,1.577 v 0 c 0.001,0.87 -0.706,1.576 -1.576,1.576 z"
   fill="#4f0f20" />
							<path
   id="path62"
   d="m 188.796,305.381 c -0.87,0 -1.577,-0.706 -1.577,-1.577 v 0 c 0,-0.871 0.706,-1.577 1.576,-1.577 l 37.408,0.003 c 0.87,-0.001 1.577,0.706 1.577,1.577 v 0 c 0,0.871 -0.706,1.577 -1.577,1.576 z"
   fill="#4f0f20" />
						</g>
					</g>
				</g>
				<g
   id="g80">
					<path
   id="path70"
   d="m 152.899,85.882 c -5.746,0 -7.039,0.051 -14.756,0.052 -7.718,0 -13.975,0.549 -13.975,-3.18 2.8,0 11.91,-7.694 19.628,-7.694 7.717,0 10.725,6.214 9.103,10.822 z"
   fill="#3f3e41" />
					<circle
   id="circle72"
   r="0.93599999"
   cy="82.75"
   cx="124.427"
   fill="#1b181c" />
					<circle
   id="circle74"
   r="1.5470001"
   cy="83.626999"
   cx="131.88901"
   fill="#1b181c" />
					<path
   id="path76"
   d="m 152.452,81.191 c 0,0 0.077,0.047 0.222,0.137 0.131,0.082 0.348,0.202 0.63,0.355 0.283,0.148 0.632,0.327 1.042,0.513 0.411,0.186 0.877,0.393 1.401,0.585 0.515,0.216 1.098,0.383 1.705,0.589 0.307,0.092 0.627,0.17 0.952,0.259 0.325,0.088 0.658,0.181 1.003,0.242 0.344,0.07 0.694,0.14 1.047,0.212 0.354,0.071 0.719,0.102 1.084,0.156 0.73,0.12 1.479,0.155 2.229,0.199 l 0.563,0.033 0.562,-0.009 c 0.375,-0.006 0.748,-0.011 1.119,-0.017 0.741,-0.018 1.465,-0.127 2.171,-0.182 0.704,-0.074 1.372,-0.236 2.014,-0.34 0.646,-0.092 1.229,-0.298 1.781,-0.436 0.544,-0.163 1.063,-0.259 1.489,-0.441 0.434,-0.161 0.813,-0.302 1.125,-0.418 0.625,-0.232 0.982,-0.364 0.982,-0.364 l 0.02,-0.008 c 0.129,-0.048 0.273,0.018 0.321,0.147 0.046,0.125 -0.014,0.263 -0.135,0.316 0,0 -0.355,0.154 -0.977,0.423 -0.312,0.135 -0.69,0.298 -1.124,0.486 -0.427,0.209 -0.948,0.336 -1.497,0.532 -0.557,0.172 -1.146,0.414 -1.804,0.544 -0.653,0.143 -1.335,0.344 -2.057,0.46 -0.725,0.097 -1.471,0.248 -2.239,0.308 -0.385,0.026 -0.772,0.053 -1.162,0.079 l -0.586,0.04 -0.588,-0.002 c -0.785,-0.004 -1.571,0 -2.342,-0.085 -0.385,-0.036 -0.771,-0.05 -1.146,-0.104 -0.376,-0.055 -0.747,-0.11 -1.113,-0.164 -0.367,-0.045 -0.722,-0.124 -1.07,-0.198 -0.348,-0.076 -0.691,-0.141 -1.02,-0.221 -0.654,-0.183 -1.281,-0.33 -1.841,-0.529 -0.568,-0.176 -1.079,-0.37 -1.531,-0.546 -0.452,-0.177 -0.84,-0.351 -1.16,-0.497 -0.317,-0.151 -0.569,-0.273 -0.749,-0.373 -0.167,-0.091 -0.256,-0.14 -0.256,-0.14 -0.437,-0.238 -0.598,-0.786 -0.359,-1.224 0.239,-0.437 0.787,-0.598 1.224,-0.359 0.013,0.007 0.025,0.014 0.038,0.022 z"
   fill="#3f3e41" />
					
						<ellipse
   id="ellipse78"
   ry="2.8329999"
   rx="4"
   cy="78.791"
   cx="136.541"
   fill="#5a595b"
   transform="rotate(51.8225,136.53963,78.78923)" />
				</g>
			</g>
		</g>
		<g
   id="g220">
			<path
   id="path86"
   d="m 243.224,129.02 c 0,0 -0.192,0.567 -0.529,1.561 -0.083,0.248 -0.176,0.522 -0.277,0.821 -0.049,0.26 -0.103,0.54 -0.161,0.84 -0.059,0.293 -0.122,0.604 -0.188,0.933 -0.076,0.316 -0.087,0.724 -0.138,1.102 -0.042,0.386 -0.086,0.787 -0.132,1.203 -0.002,0.417 -0.004,0.848 -0.006,1.292 -0.002,0.219 -0.005,0.44 -0.007,0.665 0.006,0.224 0.04,0.453 0.059,0.682 0.041,0.453 0.083,0.916 0.126,1.387 0.206,0.932 0.313,1.885 0.641,2.812 0.23,0.942 0.658,1.84 1.004,2.734 0.471,0.857 0.863,1.722 1.421,2.482 0.468,0.802 1.111,1.471 1.629,2.155 0.306,0.307 0.606,0.608 0.901,0.903 0.147,0.145 0.279,0.297 0.43,0.43 0.156,0.127 0.311,0.253 0.463,0.376 0.297,0.247 0.586,0.488 0.865,0.72 0.303,0.2 0.595,0.394 0.876,0.579 0.284,0.177 0.521,0.383 0.799,0.515 0.268,0.14 0.522,0.272 0.761,0.397 0.233,0.126 0.452,0.244 0.653,0.353 0.216,0.085 0.415,0.163 0.594,0.234 0.7,0.287 1.1,0.45 1.1,0.45 l 0.21,0.086 c 3.611,1.479 5.339,5.606 3.859,9.217 -1.479,3.611 -5.606,5.339 -9.217,3.859 -0.535,-0.219 -1.057,-0.519 -1.504,-0.844 0,0 -0.618,-0.454 -1.698,-1.248 -0.265,-0.2 -0.559,-0.422 -0.879,-0.664 -0.299,-0.269 -0.623,-0.56 -0.968,-0.871 -0.34,-0.312 -0.702,-0.645 -1.084,-0.995 -0.384,-0.343 -0.728,-0.774 -1.113,-1.186 -0.374,-0.421 -0.762,-0.861 -1.165,-1.315 -0.359,-0.488 -0.73,-0.992 -1.112,-1.51 -0.187,-0.259 -0.376,-0.521 -0.567,-0.787 -0.183,-0.271 -0.344,-0.563 -0.518,-0.849 -0.335,-0.575 -0.679,-1.162 -1.027,-1.759 -0.578,-1.258 -1.233,-2.51 -1.661,-3.88 -0.518,-1.329 -0.818,-2.75 -1.152,-4.132 -0.21,-1.42 -0.456,-2.813 -0.472,-4.208 -0.115,-1.38 0.025,-2.745 0.082,-4.039 0.095,-0.644 0.188,-1.277 0.278,-1.896 0.051,-0.307 0.086,-0.612 0.149,-0.908 0.073,-0.295 0.146,-0.586 0.217,-0.874 0.145,-0.569 0.286,-1.122 0.423,-1.658 0.185,-0.519 0.364,-1.02 0.536,-1.501 0.186,-0.481 0.312,-0.924 0.529,-1.369 0.208,-0.438 0.405,-0.853 0.59,-1.243 0.187,-0.383 0.362,-0.741 0.524,-1.073 0.168,-0.268 0.323,-0.515 0.462,-0.738 0.559,-0.887 0.879,-1.394 0.879,-1.394 0.741,-1.176 2.295,-1.53 3.472,-0.789 1.006,0.636 1.409,1.865 1.043,2.942 z"
   fill="#b1b3b4" />
			<g
   id="g218">
				<g
   id="g110">
					<path
   id="path88"
   d="m 238.294,115.683 c 0,-16.775 18.467,-30.374 41.248,-30.374 22.781,0 38.458,13.599 38.458,30.374 z"
   fill="#b1b3b4" />
					<g
   id="g108">
						<g
   id="g94">
							<path
   id="path90"
   d="m 241.109,115.689 c 0,-9.401 6.268,-17.022 14,-17.022 7.732,0 17.891,7.621 17.891,17.022 z"
   fill="#c7c7c8" />
							<path
   id="path92"
   d="m 285.046,116.048 c 0.715,-0.306 1.093,-0.9 1.009,-1.97 -0.184,-2.338 -6.236,-4.322 -10.919,-4.547 -3.66,-0.176 -8.254,-0.515 -7.942,3.449 0.14,1.774 1.337,2.534 2.956,2.84 z"
   fill="#c7c7c8" />
						</g>
						<g
   id="g106">
							<g
   id="g98">
								<path
   id="path96"
   d="m 304.837,115.64 c 0.656,-0.386 1.008,-1.118 0.947,-2.43 -0.132,-2.863 -5.609,-5.205 -9.866,-5.412 -3.327,-0.162 -7.501,-0.51 -7.276,4.343 0.101,2.173 1.179,3.086 2.648,3.437 z"
   fill="#c7c7c8" />
							</g>
							<g
   id="g104">
								<path
   id="path100"
   d="m 304.338,115.724 c -0.656,-0.386 -1.008,-1.118 -0.947,-2.43 0.132,-2.863 5.609,-5.205 9.866,-5.412 3.327,-0.162 7.501,-0.51 7.276,4.343 -0.101,2.173 -1.179,3.086 -2.647,3.437 z"
   fill="#c7c7c8" />
								<path
   id="path102"
   d="m 308.917,115.698 -4.578,0.026 c -0.656,-0.386 -0.994,-1.152 -0.933,-2.463 0.062,-1.349 1.371,-2.601 3.12,-3.55 0,0 1.162,0.508 2.225,2.133 1.59,2.433 0.166,3.854 0.166,3.854 z"
   fill="#f6f6f6" />
							</g>
						</g>
					</g>
				</g>
				<g
   id="g210">
					<g
   id="g154">
						<g
   id="g124">
							<g
   id="g116">
								<path
   id="path112"
   d="m 281.839,74.602 -6.843,6.843 c -0.977,0.976 -2.051,1.37 -3.026,1.108 -0.975,-0.261 -1.709,-1.139 -2.066,-2.473 l -2.505,-9.348 c -0.357,-1.333 -0.161,-2.461 0.553,-3.175 0.714,-0.714 1.841,-0.91 3.175,-0.553 l 9.348,2.505 c 1.334,0.357 2.212,1.091 2.473,2.067 0.261,0.975 -0.133,2.05 -1.109,3.026 z"
   fill="#b1b3b4" />
								<path
   id="path114"
   d="m 278.59,74.818 -3.879,3.879 c -0.553,0.553 -1.162,0.776 -1.715,0.628 -0.553,-0.148 -0.969,-0.646 -1.172,-1.402 l -1.42,-5.299 c -0.202,-0.756 -0.091,-1.395 0.313,-1.8 0.405,-0.405 1.044,-0.516 1.8,-0.313 l 5.299,1.42 c 0.756,0.203 1.254,0.619 1.401,1.172 0.149,0.552 -0.074,1.161 -0.627,1.715 z"
   fill="#f2bdc3" />
							</g>
							<g
   id="g122">
								<path
   id="path118"
   d="m 316.854,81.328 -6.844,-6.843 c -0.976,-0.976 -1.373,-2.047 -1.119,-3.015 0.254,-0.968 1.124,-1.693 2.447,-2.041 l 9.281,-2.438 c 1.324,-0.348 2.446,-0.146 3.161,0.568 0.714,0.714 0.916,1.836 0.568,3.16 l -2.438,9.282 c -0.348,1.324 -1.073,2.193 -2.042,2.447 -0.967,0.253 -2.038,-0.145 -3.014,-1.12 z"
   fill="#b1b3b4" />
								<path
   id="path120"
   d="m 312.184,73.103 c 0.148,-0.553 0.646,-0.969 1.401,-1.172 l 5.299,-1.42 c 0.755,-0.203 1.395,-0.091 1.799,0.313 0.405,0.405 0.516,1.044 0.313,1.8 l -1.42,5.299 c -0.202,0.756 -0.618,1.254 -1.171,1.402 -0.553,0.148 -1.162,-0.075 -1.715,-0.628 l -3.879,-3.879 c -0.552,-0.554 -0.775,-1.163 -0.627,-1.715 z"
   fill="#f2bdc3" />
							</g>
						</g>
						<g
   id="g152">
							<path
   id="path126"
   d="m 320.729,84.342 c 0,3.093 5.943,8.416 5.943,8.416 0,0 -21.956,8.541 -30.825,8.541 -9.975,0 -29.649,-10.265 -29.649,-10.265 0,0 4.767,-4.3 4.767,-6.692 0,-8.725 11.14,-15.798 24.882,-15.798 13.742,0 24.882,7.073 24.882,15.798 z"
   fill="#c7c7c8" />
							<g
   id="g150">
								<g
   id="g140">
									<g
   id="g132">
										<path
   id="path128"
   d="m 290.807,82.997 c 0,2.623 -2.126,4.75 -4.75,4.75 -2.623,0 -4.75,-2.127 -4.75,-4.75 z"
   fill="#ffffff" />
										<path
   id="path130"
   d="m 288.229,82.994 c 0,1.2 -0.973,2.172 -2.172,2.172 -1.199,0 -2.172,-0.973 -2.172,-2.172 z"
   fill="#00a096" />
									</g>
									<g
   id="g138">
										<path
   id="path134"
   d="m 310.64,82.997 c 0,2.623 -2.126,4.75 -4.75,4.75 -2.623,0 -4.75,-2.127 -4.75,-4.75 z"
   fill="#ffffff" />
										<path
   id="path136"
   d="m 308.006,82.994 c 0,1.2 -0.973,2.172 -2.172,2.172 -1.199,0 -2.172,-0.973 -2.172,-2.172 z"
   fill="#00a096" />
									</g>
								</g>
								<g
   id="g148">
									<g
   id="g144">
										<path
   id="path142"
   d="m 297.713,89.555 c -0.049,0 -0.098,-0.021 -0.132,-0.061 l -1.707,-1.987 -1.707,1.987 c -0.063,0.073 -0.172,0.081 -0.245,0.019 -0.073,-0.063 -0.081,-0.172 -0.018,-0.245 l 1.97,-2.294 1.97,2.294 c 0.063,0.073 0.055,0.183 -0.018,0.245 -0.032,0.028 -0.073,0.042 -0.113,0.042 z"
   fill="#9c9e9e" />
									</g>
									<path
   id="path146"
   d="m 297.33,84.172 -0.965,1.668 c -0.137,0.238 -0.324,0.369 -0.525,0.369 -0.201,0 -0.388,-0.131 -0.525,-0.369 l -0.962,-1.669 c -0.138,-0.238 -0.158,-0.465 -0.057,-0.639 0.101,-0.174 0.308,-0.27 0.582,-0.27 l 1.928,0.001 c 0.275,0 0.481,0.096 0.582,0.271 0.1,0.174 0.08,0.401 -0.058,0.638 z"
   fill="#f18e9e" />
								</g>
							</g>
						</g>
					</g>
					<g
   id="g208">
						<g
   id="g180">
							<g
   id="g158">
								
									<rect
   id="rect156"
   height="12.721"
   width="0.25"
   fill="#eceded"
   transform="matrix(0.3827,0.9239,-0.9239,0.3827,261.0895,-208.8991)"
   y="84.577003"
   x="286.75" />
							</g>
							<g
   id="g162">
								
									<rect
   id="rect160"
   height="9.5830002"
   width="0.25"
   fill="#eceded"
   transform="matrix(0.5081,0.8613,-0.8613,0.5081,221.0329,-201.8788)"
   y="87.771004"
   x="287.125" />
							</g>
							<g
   id="g166">
								
									<rect
   id="rect164"
   height="11.035"
   width="0.25"
   fill="#eceded"
   transform="matrix(0.1679,0.9858,-0.9858,0.1679,325.6616,-207.1917)"
   y="83.794998"
   x="285.43701" />
							</g>
							<g
   id="g170">
								
									<rect
   id="rect168"
   height="0.25"
   width="12.746"
   fill="#eceded"
   transform="matrix(0.9905,0.1373,-0.1373,0.9905,15.1285,-41.0757)"
   y="89"
   x="298.94" />
							</g>
							<g
   id="g174">
								
									<rect
   id="rect172"
   height="0.25"
   width="11.612"
   fill="#eceded"
   transform="matrix(0.9689,0.2476,-0.2476,0.9689,31.9083,-72.6048)"
   y="90.438004"
   x="298.819" />
							</g>
							<g
   id="g178">
								
									<rect
   id="rect176"
   height="0.25"
   width="8.783"
   fill="#eceded"
   transform="matrix(0.9109,0.4127,-0.4127,0.9109,64.876,-116.9868)"
   y="91.563004"
   x="298.85901" />
							</g>
						</g>
						<g
   id="g206">
							<g
   id="g184">
								
									<rect
   id="rect182"
   height="0.25"
   width="5.6599998"
   fill="#eceded"
   transform="matrix(0.508,0.8614,-0.8614,0.508,209.4635,-210.5807)"
   y="77.936996"
   x="286.233" />
							</g>
							<g
   id="g188">
								
									<rect
   id="rect186"
   height="0.25"
   width="4.7069998"
   fill="#eceded"
   transform="matrix(0.1859,0.9826,-0.9826,0.1859,311.1458,-222.6555)"
   y="76.311996"
   x="287.58401" />
							</g>
							<g
   id="g192">
								
									<rect
   id="rect190"
   height="3.135"
   width="0.25"
   fill="#eceded"
   transform="matrix(0.9968,0.0801,-0.0801,0.9968,7.1357,-23.0899)"
   y="75.870003"
   x="291.375" />
							</g>
							<g
   id="g196">
								
									<rect
   id="rect194"
   height="0.25"
   width="5.8109999"
   fill="#eceded"
   transform="matrix(0.3227,0.9465,-0.9465,0.3227,276.6446,-230.5892)"
   y="77.875"
   x="296.53201" />
							</g>
							<g
   id="g200">
								
									<rect
   id="rect198"
   height="0.25"
   width="3.7690001"
   fill="#eceded"
   transform="matrix(0.0995,0.995,-0.995,0.0995,347.5338,-229.2706)"
   y="77.25"
   x="298.55301" />
							</g>
							<g
   id="g204">
								
									<rect
   id="rect202"
   height="4.4299998"
   width="0.25"
   fill="#eceded"
   transform="matrix(0.9597,0.2809,-0.2809,0.9597,34.0578,-81.6182)"
   y="75.785004"
   x="301.625" />
							</g>
						</g>
					</g>
				</g>
				<g
   id="g216">
					<circle
   id="circle212"
   r="0.5"
   cy="83.834"
   cx="285.08301"
   fill="#ffffff"
   opacity="0.4" />
					<circle
   id="circle214"
   r="0.5"
   cy="83.834"
   cx="306.668"
   fill="#ffffff"
   opacity="0.4" />
				</g>
			</g>
		</g>
		<g
   id="g296">
			<g
   id="g246">
				<g
   id="g230">
					<rect
   id="rect222"
   height="205.95799"
   width="25.499001"
   fill="#7d4e26"
   y="118.167"
   x="268.54999" />
					<g
   id="g228">
						<path
   id="path224"
   d="m 296.25,126.916 c 0,-1.174 -0.951,-2.125 -2.125,-2.125 1.174,0 2.125,-0.951 2.125,-2.125 0,-1.174 -0.951,-2.125 -2.125,-2.125 H 268.5 c -1.173,0 -2.125,0.951 -2.125,2.125 0,1.174 0.952,2.125 2.125,2.125 -1.173,0 -2.125,0.951 -2.125,2.125 0,1.174 0.952,2.125 2.125,2.125 -1.173,0 -2.125,0.951 -2.125,2.125 0,1.174 0.952,2.125 2.125,2.125 -1.173,0 -2.125,0.951 -2.125,2.125 0,1.174 0.952,2.125 2.125,2.125 -1.173,0 -2.125,0.951 -2.125,2.125 0,0.98 0.667,1.796 1.568,2.042 -0.901,0.246 -1.568,1.062 -1.568,2.042 0,1.174 0.952,2.125 2.125,2.125 -1.173,0 -2.125,0.951 -2.125,2.125 0,1.174 0.952,2.125 2.125,2.125 -1.173,0 -2.125,0.951 -2.125,2.125 0,1.174 0.952,2.125 2.125,2.125 -1.173,0 -2.125,0.951 -2.125,2.125 0,1.174 0.952,2.125 2.125,2.125 -1.173,0 -2.125,0.951 -2.125,2.125 0,1.174 0.952,2.125 2.125,2.125 -1.173,0 -2.125,0.951 -2.125,2.125 0,1.174 0.952,2.125 2.125,2.125 -1.173,0 -2.125,0.951 -2.125,2.125 0,1.174 0.952,2.125 2.125,2.125 -1.173,0 -2.125,0.951 -2.125,2.125 0,1.174 0.952,2.125 2.125,2.125 -1.173,0 -2.125,0.951 -2.125,2.125 0,1.174 0.952,2.125 2.125,2.125 -1.173,0 -2.125,0.951 -2.125,2.125 0,1.174 0.952,2.125 2.125,2.125 -1.173,0 -2.125,0.951 -2.125,2.125 0,1.174 0.952,2.125 2.125,2.125 -1.173,0 -2.125,0.951 -2.125,2.125 0,1.174 0.952,2.125 2.125,2.125 -1.173,0 -2.125,0.952 -2.125,2.125 0,1.174 0.952,2.125 2.125,2.125 -1.173,0 -2.125,0.952 -2.125,2.125 0,1.174 0.952,2.125 2.125,2.125 -1.173,0 -2.125,0.952 -2.125,2.125 0,1.174 0.952,2.125 2.125,2.125 -1.173,0 -2.125,0.952 -2.125,2.125 0,0.98 0.667,1.796 1.568,2.042 -0.901,0.246 -1.568,1.062 -1.568,2.042 0,1.173 0.952,2.125 2.125,2.125 -1.173,0 -2.125,0.951 -2.125,2.125 0,1.173 0.952,2.125 2.125,2.125 -1.173,0 -2.125,0.951 -2.125,2.125 0,1.173 0.952,2.125 2.125,2.125 -1.173,0 -2.125,0.951 -2.125,2.125 0,1.173 0.952,2.125 2.125,2.125 -1.173,0 -2.125,0.951 -2.125,2.125 0,1.173 0.952,2.125 2.125,2.125 -1.173,0 -2.125,0.951 -2.125,2.125 0,1.173 0.952,2.125 2.125,2.125 -1.173,0 -2.125,0.951 -2.125,2.125 0,1.173 0.952,2.125 2.125,2.125 -1.173,0 -2.125,0.951 -2.125,2.125 0,1.173 0.952,2.125 2.125,2.125 h 25.625 c 1.174,0 2.125,-0.952 2.125,-2.125 0,-1.174 -0.951,-2.125 -2.125,-2.125 1.174,0 2.125,-0.952 2.125,-2.125 0,-1.174 -0.951,-2.125 -2.125,-2.125 1.174,0 2.125,-0.952 2.125,-2.125 0,-1.174 -0.951,-2.125 -2.125,-2.125 1.174,0 2.125,-0.952 2.125,-2.125 0,-1.174 -0.951,-2.125 -2.125,-2.125 1.174,0 2.125,-0.952 2.125,-2.125 0,-1.174 -0.951,-2.125 -2.125,-2.125 1.174,0 2.125,-0.952 2.125,-2.125 0,-1.174 -0.951,-2.125 -2.125,-2.125 1.174,0 2.125,-0.952 2.125,-2.125 0,-1.174 -0.951,-2.125 -2.125,-2.125 1.174,0 2.125,-0.952 2.125,-2.125 0,-0.98 -0.667,-1.796 -1.568,-2.042 0.902,-0.246 1.568,-1.062 1.568,-2.042 0,-1.173 -0.951,-2.125 -2.125,-2.125 1.174,0 2.125,-0.951 2.125,-2.125 0,-1.173 -0.951,-2.125 -2.125,-2.125 1.174,0 2.125,-0.951 2.125,-2.125 0,-1.173 -0.951,-2.125 -2.125,-2.125 1.174,0 2.125,-0.951 2.125,-2.125 0,-1.173 -0.951,-2.125 -2.125,-2.125 1.174,0 2.125,-0.951 2.125,-2.125 0,-1.174 -0.951,-2.125 -2.125,-2.125 1.174,0 2.125,-0.951 2.125,-2.125 0,-1.174 -0.951,-2.125 -2.125,-2.125 1.174,0 2.125,-0.951 2.125,-2.125 0,-1.174 -0.951,-2.125 -2.125,-2.125 1.174,0 2.125,-0.951 2.125,-2.125 0,-1.174 -0.951,-2.125 -2.125,-2.125 1.174,0 2.125,-0.951 2.125,-2.125 0,-1.174 -0.951,-2.125 -2.125,-2.125 1.174,0 2.125,-0.951 2.125,-2.125 0,-1.174 -0.951,-2.125 -2.125,-2.125 1.174,0 2.125,-0.951 2.125,-2.125 0,-1.174 -0.951,-2.125 -2.125,-2.125 1.174,0 2.125,-0.951 2.125,-2.125 0,-1.174 -0.951,-2.125 -2.125,-2.125 1.174,0 2.125,-0.951 2.125,-2.125 0,-1.174 -0.951,-2.125 -2.125,-2.125 1.174,0 2.125,-0.951 2.125,-2.125 0,-1.174 -0.951,-2.125 -2.125,-2.125 1.174,0 2.125,-0.951 2.125,-2.125 0,-1.174 -0.951,-2.125 -2.125,-2.125 1.174,0 2.125,-0.951 2.125,-2.125 0,-0.98 -0.666,-1.796 -1.567,-2.042 0.901,-0.246 1.567,-1.062 1.567,-2.042 0,-1.174 -0.951,-2.125 -2.125,-2.125 1.174,0 2.125,-0.951 2.125,-2.125 0,-1.174 -0.951,-2.125 -2.125,-2.125 1.174,0 2.125,-0.951 2.125,-2.125 0,-1.174 -0.951,-2.125 -2.125,-2.125 1.174,0 2.125,-0.951 2.125,-2.125 z"
   fill="#7d4e26" />
						<path
   id="path226"
   d="m 296.25,245.749 c 0,-1.173 -0.951,-2.125 -2.125,-2.125 H 268.5 c -1.173,0 -2.125,0.952 -2.125,2.125 0,1.174 0.952,2.125 2.125,2.125 -1.173,0 -2.125,0.952 -2.125,2.125 0,1.174 0.952,2.125 2.125,2.125 -1.173,0 -2.125,0.952 -2.125,2.125 0,1.174 0.952,2.125 2.125,2.125 -1.173,0 -2.125,0.952 -2.125,2.125 0,1.174 0.952,2.125 2.125,2.125 -1.173,0 -2.125,0.952 -2.125,2.125 0,1.174 0.952,2.125 2.125,2.125 -1.173,0 -2.125,0.952 -2.125,2.125 0,1.174 0.952,2.125 2.125,2.125 -1.173,0 -2.125,0.952 -2.125,2.125 0,1.174 0.952,2.125 2.125,2.125 -1.173,0 -2.125,0.952 -2.125,2.125 0,0.98 0.667,1.796 1.568,2.042 -0.901,0.246 -1.568,1.062 -1.568,2.042 0,1.173 0.952,2.125 2.125,2.125 -1.173,0 -2.125,0.951 -2.125,2.125 0,1.173 0.952,2.125 2.125,2.125 -1.173,0 -2.125,0.951 -2.125,2.125 0,1.173 0.952,2.125 2.125,2.125 -1.173,0 -2.125,0.951 -2.125,2.125 0,1.173 0.952,2.125 2.125,2.125 -1.173,0 -2.125,0.951 -2.125,2.125 0,1.173 0.952,2.125 2.125,2.125 -1.173,0 -2.125,0.951 -2.125,2.125 0,1.173 0.952,2.125 2.125,2.125 -1.173,0 -2.125,0.951 -2.125,2.125 0,1.173 0.952,2.125 2.125,2.125 -1.173,0 -2.125,0.951 -2.125,2.125 0,1.173 0.952,2.125 2.125,2.125 -1.173,0 -2.125,0.951 -2.125,2.125 0,1.173 0.952,2.125 2.125,2.125 -1.173,0 -2.125,0.951 -2.125,2.125 0,1.173 0.952,2.125 2.125,2.125 -1.173,0 -2.125,0.951 -2.125,2.125 0,1.173 0.952,2.125 2.125,2.125 h 25.625 c 1.174,0 2.125,-0.952 2.125,-2.125 0,-1.174 -0.951,-2.125 -2.125,-2.125 1.174,0 2.125,-0.952 2.125,-2.125 0,-1.174 -0.951,-2.125 -2.125,-2.125 1.174,0 2.125,-0.952 2.125,-2.125 0,-1.174 -0.951,-2.125 -2.125,-2.125 1.174,0 2.125,-0.952 2.125,-2.125 0,-1.174 -0.951,-2.125 -2.125,-2.125 1.174,0 2.125,-0.952 2.125,-2.125 0,-1.174 -0.951,-2.125 -2.125,-2.125 1.174,0 2.125,-0.952 2.125,-2.125 0,-1.174 -0.951,-2.125 -2.125,-2.125 1.174,0 2.125,-0.952 2.125,-2.125 0,-1.174 -0.951,-2.125 -2.125,-2.125 1.174,0 2.125,-0.952 2.125,-2.125 0,-1.174 -0.951,-2.125 -2.125,-2.125 1.174,0 2.125,-0.952 2.125,-2.125 0,-1.174 -0.951,-2.125 -2.125,-2.125 1.174,0 2.125,-0.952 2.125,-2.125 0,-1.174 -0.951,-2.125 -2.125,-2.125 1.174,0 2.125,-0.952 2.125,-2.125 0,-0.98 -0.667,-1.796 -1.568,-2.042 0.902,-0.246 1.568,-1.062 1.568,-2.042 0,-1.173 -0.951,-2.125 -2.125,-2.125 1.174,0 2.125,-0.951 2.125,-2.125 0,-1.173 -0.951,-2.125 -2.125,-2.125 1.174,0 2.125,-0.951 2.125,-2.125 0,-1.173 -0.951,-2.125 -2.125,-2.125 1.174,0 2.125,-0.951 2.125,-2.125 0,-1.174 -0.951,-2.125 -2.125,-2.125 1.174,0 2.125,-0.951 2.125,-2.125 0,-1.173 -0.951,-2.125 -2.125,-2.125 1.174,0 2.125,-0.951 2.125,-2.125 0,-1.173 -0.951,-2.125 -2.125,-2.125 1.174,0 2.125,-0.951 2.125,-2.125 0,-1.173 -0.951,-2.125 -2.125,-2.125 1.174,0 2.125,-0.951 2.125,-2.125 z"
   fill="#7d4e26" />
					</g>
				</g>
				<g
   id="g244">
					<g
   id="g236">
						<rect
   id="rect232"
   height="98.995003"
   width="98.995003"
   fill="#683c17"
   y="184.29401"
   x="233.045" />
						<circle
   id="circle234"
   r="41.167"
   cy="233.79201"
   cx="282.54199"
   fill="#261611" />
					</g>
					<g
   id="g242">
						<rect
   id="rect238"
   height="8.2489996"
   width="107.995"
   fill="#683c17"
   y="130.547"
   x="228.545" />
						<path
   id="path240"
   d="m 341.421,125.828 c 0,2.803 -2.272,5.075 -5.075,5.075 H 228.244 c -2.803,0 -5.075,-2.272 -5.075,-5.075 v -5.075 c 0,-2.803 2.272,-5.075 5.075,-5.075 h 108.102 c 2.803,0 5.075,2.272 5.075,5.075 z"
   fill="#f29505" />
					</g>
				</g>
			</g>
			<g
   id="g294">
				<g
   id="g278">
					<g
   id="g256">
						<rect
   id="rect248"
   height="220.076"
   width="25.499001"
   fill="#7d4e26"
   y="104.048"
   x="111.55" />
						<g
   id="g254">
							<path
   id="path250"
   d="m 139.25,114.166 c 0,-1.174 -0.951,-2.125 -2.125,-2.125 1.174,0 2.125,-0.951 2.125,-2.125 0,-1.174 -0.951,-2.125 -2.125,-2.125 H 111.5 c -1.173,0 -2.125,0.951 -2.125,2.125 0,1.174 0.952,2.125 2.125,2.125 -1.173,0 -2.125,0.951 -2.125,2.125 0,1.174 0.952,2.125 2.125,2.125 -1.173,0 -2.125,0.951 -2.125,2.125 0,1.174 0.952,2.125 2.125,2.125 -1.173,0 -2.125,0.951 -2.125,2.125 0,1.174 0.952,2.125 2.125,2.125 -1.173,0 -2.125,0.951 -2.125,2.125 0,1.174 0.952,2.125 2.125,2.125 -1.173,0 -2.125,0.951 -2.125,2.125 0,1.174 0.952,2.125 2.125,2.125 -1.173,0 -2.125,0.951 -2.125,2.125 0,1.174 0.952,2.125 2.125,2.125 -1.173,0 -2.125,0.951 -2.125,2.125 0,0.98 0.666,1.796 1.568,2.042 -0.901,0.246 -1.568,1.062 -1.568,2.042 0,1.174 0.952,2.125 2.125,2.125 -1.173,0 -2.125,0.951 -2.125,2.125 0,1.174 0.952,2.125 2.125,2.125 -1.173,0 -2.125,0.951 -2.125,2.125 0,1.174 0.952,2.125 2.125,2.125 -1.173,0 -2.125,0.951 -2.125,2.125 0,1.174 0.952,2.125 2.125,2.125 -1.173,0 -2.125,0.951 -2.125,2.125 0,1.174 0.952,2.125 2.125,2.125 -1.173,0 -2.125,0.951 -2.125,2.125 0,1.174 0.952,2.125 2.125,2.125 -1.173,0 -2.125,0.951 -2.125,2.125 0,1.174 0.952,2.125 2.125,2.125 -1.173,0 -2.125,0.951 -2.125,2.125 0,1.174 0.952,2.125 2.125,2.125 -1.173,0 -2.125,0.951 -2.125,2.125 0,1.174 0.952,2.125 2.125,2.125 -1.173,0 -2.125,0.951 -2.125,2.125 0,1.174 0.952,2.125 2.125,2.125 -1.173,0 -2.125,0.951 -2.125,2.125 0,1.174 0.952,2.125 2.125,2.125 -1.173,0 -2.125,0.951 -2.125,2.125 0,1.174 0.952,2.125 2.125,2.125 -1.173,0 -2.125,0.952 -2.125,2.125 0,1.174 0.952,2.125 2.125,2.125 -1.173,0 -2.125,0.952 -2.125,2.125 0,1.174 0.952,2.125 2.125,2.125 -1.173,0 -2.125,0.952 -2.125,2.125 0,1.174 0.952,2.125 2.125,2.125 -1.173,0 -2.125,0.952 -2.125,2.125 0,0.98 0.667,1.796 1.568,2.042 -0.902,0.246 -1.568,1.062 -1.568,2.042 0,1.173 0.952,2.125 2.125,2.125 -1.173,0 -2.125,0.951 -2.125,2.125 0,1.173 0.952,2.125 2.125,2.125 -1.173,0 -2.125,0.951 -2.125,2.125 0,1.173 0.952,2.125 2.125,2.125 -1.173,0 -2.125,0.951 -2.125,2.125 0,1.173 0.952,2.125 2.125,2.125 -1.173,0 -2.125,0.951 -2.125,2.125 0,1.173 0.952,2.125 2.125,2.125 -1.173,0 -2.125,0.951 -2.125,2.125 0,1.173 0.952,2.125 2.125,2.125 -1.173,0 -2.125,0.951 -2.125,2.125 0,1.173 0.952,2.125 2.125,2.125 -1.173,0 -2.125,0.951 -2.125,2.125 0,1.173 0.952,2.125 2.125,2.125 h 25.625 c 1.174,0 2.125,-0.952 2.125,-2.125 0,-1.174 -0.951,-2.125 -2.125,-2.125 1.174,0 2.125,-0.952 2.125,-2.125 0,-1.174 -0.951,-2.125 -2.125,-2.125 1.174,0 2.125,-0.952 2.125,-2.125 0,-1.174 -0.951,-2.125 -2.125,-2.125 1.174,0 2.125,-0.952 2.125,-2.125 0,-1.174 -0.951,-2.125 -2.125,-2.125 1.174,0 2.125,-0.952 2.125,-2.125 0,-1.174 -0.951,-2.125 -2.125,-2.125 1.174,0 2.125,-0.952 2.125,-2.125 0,-1.174 -0.951,-2.125 -2.125,-2.125 1.174,0 2.125,-0.952 2.125,-2.125 0,-1.174 -0.951,-2.125 -2.125,-2.125 1.174,0 2.125,-0.952 2.125,-2.125 0,-0.98 -0.667,-1.796 -1.568,-2.042 0.902,-0.246 1.568,-1.062 1.568,-2.042 0,-1.173 -0.951,-2.125 -2.125,-2.125 1.174,0 2.125,-0.951 2.125,-2.125 0,-1.173 -0.951,-2.125 -2.125,-2.125 1.174,0 2.125,-0.951 2.125,-2.125 0,-1.173 -0.951,-2.125 -2.125,-2.125 1.174,0 2.125,-0.951 2.125,-2.125 0,-1.173 -0.951,-2.125 -2.125,-2.125 1.174,0 2.125,-0.951 2.125,-2.125 0,-1.174 -0.951,-2.125 -2.125,-2.125 1.174,0 2.125,-0.951 2.125,-2.125 0,-1.174 -0.951,-2.125 -2.125,-2.125 1.174,0 2.125,-0.951 2.125,-2.125 0,-1.174 -0.951,-2.125 -2.125,-2.125 1.174,0 2.125,-0.951 2.125,-2.125 0,-1.174 -0.951,-2.125 -2.125,-2.125 1.174,0 2.125,-0.951 2.125,-2.125 0,-1.174 -0.951,-2.125 -2.125,-2.125 1.174,0 2.125,-0.951 2.125,-2.125 0,-1.174 -0.951,-2.125 -2.125,-2.125 1.174,0 2.125,-0.951 2.125,-2.125 0,-1.174 -0.951,-2.125 -2.125,-2.125 1.174,0 2.125,-0.951 2.125,-2.125 0,-1.174 -0.951,-2.125 -2.125,-2.125 1.174,0 2.125,-0.951 2.125,-2.125 0,-1.174 -0.951,-2.125 -2.125,-2.125 1.174,0 2.125,-0.951 2.125,-2.125 0,-1.174 -0.951,-2.125 -2.125,-2.125 1.174,0 2.125,-0.951 2.125,-2.125 0,-1.174 -0.951,-2.125 -2.125,-2.125 1.174,0 2.125,-0.951 2.125,-2.125 0,-0.98 -0.666,-1.796 -1.568,-2.042 0.902,-0.246 1.568,-1.062 1.568,-2.042 0,-1.174 -0.951,-2.125 -2.125,-2.125 1.174,0 2.125,-0.951 2.125,-2.125 0,-1.174 -0.951,-2.125 -2.125,-2.125 1.174,0 2.125,-0.951 2.125,-2.125 0,-1.174 -0.951,-2.125 -2.125,-2.125 1.174,0 2.125,-0.951 2.125,-2.125 0,-1.174 -0.951,-2.125 -2.125,-2.125 1.174,0 2.125,-0.951 2.125,-2.125 0,-1.174 -0.951,-2.125 -2.125,-2.125 1.174,0 2.125,-0.951 2.125,-2.125 0,-1.174 -0.951,-2.125 -2.125,-2.125 1.174,0 2.125,-0.951 2.125,-2.125 z"
   fill="#7d4e26" />
							<path
   id="path252"
   d="m 139.25,245.749 c 0,-1.173 -0.951,-2.125 -2.125,-2.125 H 111.5 c -1.173,0 -2.125,0.952 -2.125,2.125 0,1.174 0.952,2.125 2.125,2.125 -1.173,0 -2.125,0.952 -2.125,2.125 0,1.174 0.952,2.125 2.125,2.125 -1.173,0 -2.125,0.952 -2.125,2.125 0,1.174 0.952,2.125 2.125,2.125 -1.173,0 -2.125,0.952 -2.125,2.125 0,1.174 0.952,2.125 2.125,2.125 -1.173,0 -2.125,0.952 -2.125,2.125 0,1.174 0.952,2.125 2.125,2.125 -1.173,0 -2.125,0.952 -2.125,2.125 0,1.174 0.952,2.125 2.125,2.125 -1.173,0 -2.125,0.952 -2.125,2.125 0,1.174 0.952,2.125 2.125,2.125 -1.173,0 -2.125,0.952 -2.125,2.125 0,0.98 0.667,1.796 1.568,2.042 -0.902,0.246 -1.568,1.062 -1.568,2.042 0,1.173 0.952,2.125 2.125,2.125 -1.173,0 -2.125,0.951 -2.125,2.125 0,1.173 0.952,2.125 2.125,2.125 -1.173,0 -2.125,0.951 -2.125,2.125 0,1.173 0.952,2.125 2.125,2.125 -1.173,0 -2.125,0.951 -2.125,2.125 0,1.173 0.952,2.125 2.125,2.125 -1.173,0 -2.125,0.951 -2.125,2.125 0,1.173 0.952,2.125 2.125,2.125 -1.173,0 -2.125,0.951 -2.125,2.125 0,1.173 0.952,2.125 2.125,2.125 -1.173,0 -2.125,0.951 -2.125,2.125 0,1.173 0.952,2.125 2.125,2.125 -1.173,0 -2.125,0.951 -2.125,2.125 0,1.173 0.952,2.125 2.125,2.125 -1.173,0 -2.125,0.951 -2.125,2.125 0,1.173 0.952,2.125 2.125,2.125 -1.173,0 -2.125,0.951 -2.125,2.125 0,1.173 0.952,2.125 2.125,2.125 -1.173,0 -2.125,0.951 -2.125,2.125 0,1.173 0.952,2.125 2.125,2.125 h 25.625 c 1.174,0 2.125,-0.952 2.125,-2.125 0,-1.174 -0.951,-2.125 -2.125,-2.125 1.174,0 2.125,-0.952 2.125,-2.125 0,-1.174 -0.951,-2.125 -2.125,-2.125 1.174,0 2.125,-0.952 2.125,-2.125 0,-1.174 -0.951,-2.125 -2.125,-2.125 1.174,0 2.125,-0.952 2.125,-2.125 0,-1.174 -0.951,-2.125 -2.125,-2.125 1.174,0 2.125,-0.952 2.125,-2.125 0,-1.174 -0.951,-2.125 -2.125,-2.125 1.174,0 2.125,-0.952 2.125,-2.125 0,-1.174 -0.951,-2.125 -2.125,-2.125 1.174,0 2.125,-0.952 2.125,-2.125 0,-1.174 -0.951,-2.125 -2.125,-2.125 1.174,0 2.125,-0.952 2.125,-2.125 0,-1.174 -0.951,-2.125 -2.125,-2.125 1.174,0 2.125,-0.952 2.125,-2.125 0,-1.174 -0.951,-2.125 -2.125,-2.125 1.174,0 2.125,-0.952 2.125,-2.125 0,-1.174 -0.951,-2.125 -2.125,-2.125 1.174,0 2.125,-0.952 2.125,-2.125 0,-0.98 -0.667,-1.796 -1.568,-2.042 0.902,-0.246 1.568,-1.062 1.568,-2.042 0,-1.173 -0.951,-2.125 -2.125,-2.125 1.174,0 2.125,-0.951 2.125,-2.125 0,-1.173 -0.951,-2.125 -2.125,-2.125 1.174,0 2.125,-0.951 2.125,-2.125 0,-1.173 -0.951,-2.125 -2.125,-2.125 1.174,0 2.125,-0.951 2.125,-2.125 0,-1.174 -0.951,-2.125 -2.125,-2.125 1.174,0 2.125,-0.951 2.125,-2.125 0,-1.173 -0.951,-2.125 -2.125,-2.125 1.174,0 2.125,-0.951 2.125,-2.125 0,-1.173 -0.951,-2.125 -2.125,-2.125 1.174,0 2.125,-0.951 2.125,-2.125 0,-1.173 -0.951,-2.125 -2.125,-2.125 1.174,0 2.125,-0.951 2.125,-2.125 z"
   fill="#7d4e26" />
						</g>
					</g>
					<g
   id="g276">
						<g
   id="g262">
							<rect
   id="rect258"
   height="8.2489996"
   width="107.994"
   fill="#683c17"
   y="99.549004"
   x="88.303001" />
							<path
   id="path260"
   d="m 201.421,96.078 c 0,2.803 -2.272,5.075 -5.075,5.075 H 88.244 c -2.803,0 -5.075,-2.272 -5.075,-5.075 v -5.075 c 0,-2.803 2.272,-5.075 5.075,-5.075 h 108.102 c 2.803,0 5.075,2.272 5.075,5.075 z"
   fill="#e94c4c" />
						</g>
						<g
   id="g274">
							<rect
   id="rect264"
   height="62.997002"
   width="1"
   fill="#3f3e41"
   y="176.795"
   x="65.996002" />
							<circle
   id="circle266"
   r="7.9809999"
   cy="239.29201"
   cx="66.496002"
   fill="#00a096" />
							<g
   id="g272">
								<rect
   id="rect268"
   height="8.25"
   width="107.994"
   fill="#683c17"
   y="172.04401"
   x="59.305" />
								<path
   id="path270"
   d="m 172.671,167.495 c 0,2.803 -2.272,5.075 -5.075,5.075 H 59.494 c -2.803,0 -5.075,-2.272 -5.075,-5.075 v -5.075 c 0,-2.803 2.272,-5.075 5.075,-5.075 h 108.102 c 2.803,0 5.075,2.272 5.075,5.075 z"
   fill="#00a096" />
							</g>
						</g>
					</g>
				</g>
				<g
   id="g292">
					<path
   id="path280"
   d="m 116.209,232.458 c -0.138,0 -0.25,-0.112 -0.25,-0.25 v -36.667 c 0,-0.138 0.112,-0.25 0.25,-0.25 0.138,0 0.25,0.112 0.25,0.25 v 36.667 c 0,0.138 -0.112,0.25 -0.25,0.25 z"
   fill="#42291c" />
					<path
   id="path282"
   d="m 117.875,233.874 c -0.138,0 -0.25,-0.112 -0.25,-0.25 v -36.667 c 0,-0.138 0.112,-0.25 0.25,-0.25 0.138,0 0.25,0.112 0.25,0.25 v 36.667 c 0,0.139 -0.112,0.25 -0.25,0.25 z"
   fill="#42291c" />
					<path
   id="path284"
   d="m 114.167,235.374 c -0.138,0 -0.25,-0.112 -0.25,-0.25 v -36.667 c 0,-0.138 0.112,-0.25 0.25,-0.25 0.138,0 0.25,0.112 0.25,0.25 v 36.667 c 0,0.139 -0.112,0.25 -0.25,0.25 z"
   fill="#42291c" />
					<path
   id="path286"
   d="m 131.292,227.249 c -0.138,0 -0.25,-0.112 -0.25,-0.25 v -26.667 c 0,-0.138 0.112,-0.25 0.25,-0.25 0.138,0 0.25,0.112 0.25,0.25 v 26.667 c 0,0.139 -0.112,0.25 -0.25,0.25 z"
   fill="#42291c" />
					<path
   id="path288"
   d="m 134.917,238.499 c -0.138,0 -0.25,-0.112 -0.25,-0.25 v -36.667 c 0,-0.138 0.112,-0.25 0.25,-0.25 0.138,0 0.25,0.112 0.25,0.25 v 36.667 c 0,0.139 -0.112,0.25 -0.25,0.25 z"
   fill="#42291c" />
					<path
   id="path290"
   d="m 132.917,234.749 c -0.138,0 -0.25,-0.112 -0.25,-0.25 v -36.667 c 0,-0.138 0.112,-0.25 0.25,-0.25 0.138,0 0.25,0.112 0.25,0.25 v 36.667 c 0,0.139 -0.112,0.25 -0.25,0.25 z"
   fill="#42291c" />
				</g>
			</g>
		</g>
		<g
   id="g312">
			<g
   id="g306">
				<path
   id="path298"
   d="m 87.657,157.35 c 5.746,0 7.039,0.051 14.756,0.052 7.718,0 13.975,0.549 13.975,-3.18 -2.8,0 -11.91,-7.694 -19.628,-7.694 -7.717,0.001 -10.725,6.215 -9.103,10.822 z"
   fill="#717274" />
				<circle
   id="circle300"
   r="0.93599999"
   cy="154.125"
   cx="116.129"
   fill="#1b181c" />
				<circle
   id="circle302"
   r="1.5470001"
   cy="155.002"
   cx="108.668"
   fill="#1b181c" />
				<path
   id="path304"
   d="m 88.104,152.566 c 0,0 -0.077,0.047 -0.222,0.137 -0.131,0.082 -0.348,0.202 -0.63,0.355 -0.283,0.148 -0.632,0.327 -1.042,0.513 -0.411,0.186 -0.877,0.393 -1.401,0.585 -0.515,0.216 -1.098,0.383 -1.705,0.589 -0.307,0.092 -0.627,0.17 -0.952,0.259 -0.325,0.088 -0.658,0.181 -1.003,0.242 -0.344,0.07 -0.694,0.14 -1.047,0.212 -0.354,0.071 -0.719,0.102 -1.084,0.157 -0.73,0.12 -1.479,0.155 -2.229,0.199 l -0.563,0.033 -0.562,-0.009 c -0.375,-0.006 -0.748,-0.012 -1.119,-0.017 -0.741,-0.018 -1.465,-0.127 -2.171,-0.182 -0.704,-0.074 -1.372,-0.236 -2.014,-0.34 -0.646,-0.092 -1.229,-0.298 -1.781,-0.436 -0.544,-0.163 -1.063,-0.259 -1.489,-0.441 -0.434,-0.161 -0.813,-0.302 -1.125,-0.417 -0.625,-0.232 -0.982,-0.364 -0.982,-0.364 l -0.021,-0.008 c -0.129,-0.048 -0.273,0.018 -0.321,0.147 -0.046,0.125 0.014,0.263 0.135,0.316 0,0 0.355,0.154 0.977,0.423 0.312,0.135 0.69,0.298 1.124,0.486 0.427,0.209 0.948,0.336 1.497,0.531 0.557,0.172 1.146,0.414 1.804,0.544 0.653,0.143 1.335,0.344 2.057,0.46 0.725,0.097 1.471,0.248 2.239,0.308 0.384,0.026 0.772,0.053 1.162,0.079 l 0.586,0.04 0.588,-0.002 c 0.785,-0.004 1.572,0 2.342,-0.085 0.385,-0.036 0.771,-0.05 1.146,-0.104 0.376,-0.055 0.747,-0.11 1.113,-0.164 0.367,-0.045 0.722,-0.124 1.07,-0.199 0.348,-0.076 0.691,-0.141 1.02,-0.221 0.654,-0.183 1.281,-0.33 1.841,-0.529 0.568,-0.176 1.079,-0.37 1.531,-0.546 0.452,-0.178 0.84,-0.351 1.16,-0.497 0.317,-0.151 0.569,-0.273 0.749,-0.373 0.167,-0.091 0.256,-0.14 0.256,-0.14 0.437,-0.239 0.598,-0.786 0.359,-1.224 -0.239,-0.437 -0.787,-0.598 -1.224,-0.359 -0.013,0.007 -0.025,0.014 -0.038,0.022 z"
   fill="#717274" />
			</g>
			
				<ellipse
   id="ellipse308"
   ry="2.8329999"
   rx="2.598"
   cy="152.041"
   cx="102.842"
   fill="#87888a"
   transform="matrix(-0.3767,0.9263,-0.9263,-0.3767,282.424,114.0476)" />
			
				<ellipse
   id="ellipse310"
   ry="1.5470001"
   rx="1.418"
   cy="152.625"
   cx="104.092"
   fill="#717274"
   transform="matrix(-0.3766,0.9264,-0.9264,-0.3766,284.6826,113.681)" />
		</g>
		<rect
   id="rect314"
   height="29.999001"
   width="311.23401"
   fill="#683c17"
   y="324.28699"
   x="44.303001" />
		<g
   id="g348">
			<g
   id="g322">
				<ellipse
   id="ellipse316"
   ry="18.167"
   rx="35"
   cy="254"
   cx="283.63599"
   fill="#ab6c1f" />
				<g
   id="g320">
					<path
   id="path318"
   d="m 262.329,243.138 -5.364,2.2 c -0.765,0.313 -1.479,0.212 -2.009,-0.285 -0.531,-0.498 -0.802,-1.318 -0.763,-2.312 l 0.274,-6.967 c 0.039,-0.994 0.369,-1.667 0.929,-1.896 0.559,-0.229 1.267,0.019 1.993,0.698 l 5.089,4.767 c 0.725,0.68 1.11,1.454 1.081,2.181 -0.029,0.727 -0.466,1.3 -1.23,1.614 z"
   fill="#ab6c1f" />
				</g>
			</g>
			<g
   id="g346">
				<g
   id="g326">
					<path
   id="path324"
   d="m 250.125,248.168 c 0.663,1.095 1.567,2.039 2.668,2.764 1.445,0.953 3.103,1.446 4.796,1.446 0.592,0 1.188,-0.06 1.781,-0.182 0.676,-0.139 1.112,-0.8 0.973,-1.476 -0.139,-0.676 -0.8,-1.109 -1.476,-0.973 -1.638,0.337 -3.306,0.015 -4.698,-0.902 -0.978,-0.645 -1.739,-1.531 -2.222,-2.568 z"
   fill="#ab6016" />
				</g>
				<g
   id="g330">
					<path
   id="path328"
   d="m 247.5,253.106 c 0.663,1.095 1.567,2.039 2.668,2.764 1.445,0.953 3.103,1.446 4.796,1.446 0.592,0 1.188,-0.06 1.781,-0.182 0.676,-0.139 1.112,-0.8 0.973,-1.476 -0.139,-0.676 -0.8,-1.109 -1.476,-0.973 -1.638,0.337 -3.306,0.015 -4.698,-0.902 -0.978,-0.645 -1.739,-1.531 -2.222,-2.568 z"
   fill="#ab6016" />
				</g>
				<g
   id="g344">
					<g
   id="g334">
						<path
   id="path332"
   d="m 251.907,269.479 c 10.017,0 18.167,-8.15 18.167,-18.167 0,-1.381 -1.119,-2.5 -2.5,-2.5 -1.381,0 -2.5,1.119 -2.5,2.5 0,7.26 -5.907,13.167 -13.167,13.167 -1.381,0 -2.5,1.119 -2.5,2.5 0,1.381 1.119,2.5 2.5,2.5 z"
   fill="#ab6016" />
					</g>
					<g
   id="g338">
						<path
   id="path336"
   d="m 264.361,274.556 c 0.136,0 0.275,-0.011 0.414,-0.035 9.88,-1.647 16.58,-11.024 14.933,-20.906 -0.227,-1.362 -1.511,-2.284 -2.877,-2.055 -1.362,0.227 -2.282,1.515 -2.055,2.877 1.193,7.161 -3.662,13.959 -10.824,15.152 -1.362,0.227 -2.282,1.515 -2.055,2.877 0.205,1.223 1.264,2.09 2.464,2.09 z"
   fill="#ab6016" />
					</g>
					<g
   id="g342">
						<path
   id="path340"
   d="m 279.985,278.227 c 0.342,0 0.689,-0.07 1.021,-0.219 9.141,-4.097 13.245,-14.867 9.148,-24.008 -0.564,-1.26 -2.044,-1.824 -3.304,-1.259 -1.26,0.564 -1.824,2.043 -1.259,3.304 2.969,6.626 -0.005,14.431 -6.63,17.4 -1.26,0.564 -1.824,2.044 -1.259,3.304 0.416,0.928 1.328,1.478 2.283,1.478 z"
   fill="#ab6016" />
					</g>
				</g>
			</g>
		</g>
		<g
   id="g356">
			<path
   id="path350"
   d="m 233.045,184.294 v 98.995 h 98.995 v -98.995 z m 49.497,85.496 c -19.881,0 -35.998,-16.117 -35.998,-35.998 0,-19.881 16.117,-35.998 35.998,-35.998 19.882,0 35.998,16.117 35.998,35.998 0,19.881 -16.116,35.998 -35.998,35.998 z"
   fill="#683c17" />
			<g
   id="g354">
				<path
   id="path352"
   d="m 312.753,315.417 c 1.833,0 3.374,-1.427 3.49,-3.282 0.121,-1.929 -1.346,-3.591 -3.275,-3.711 -4.573,-0.286 -5.149,-4.557 -5.218,-5.38 v -48.376 c 0,-1.933 -1.567,-3.5 -3.5,-3.5 -1.933,0 -3.5,1.567 -3.5,3.5 v 48.606 l 0.006,0.106 c 0.238,3.921 3.005,11.483 11.775,12.031 0.075,0.004 0.149,0.006 0.222,0.006 z"
   fill="#ab6c1f" />
			</g>
		</g>
		<g
   id="g508">
			<g
   id="g388">
				<g
   id="g362">
					<path
   id="path358"
   d="m 142.105,237.213 c 0.472,4.955 1.281,11.162 -5.98,11.162 -6.5,0 -5.752,-6.185 -5.752,-11.162 0,-7.588 -3.748,-14.352 2.969,-14.352 4.283,0 8.158,8.014 8.763,14.352 z"
   fill="#121316" />
					<path
   id="path360"
   d="m 107.007,240.67 c -1.007,7.705 2.626,9.011 5.866,9.011 3.239,0 5.866,-4.034 5.866,-9.011 0,-4.977 3.512,-14.352 -2.969,-14.352 -3.24,0 -8.119,9.417 -8.763,14.352 z"
   fill="#121316" />
				</g>
				<g
   id="g386">
					<g
   id="g370">
						<path
   id="path364"
   d="m 154.234,301.909 c 0,18.502 -4.817,22.5 -30.75,22.5 -27.984,0 -31.75,-3.998 -31.75,-22.5 0,-18.501 13.991,-33.5 31.25,-33.5 17.259,0 31.25,14.999 31.25,33.5 z"
   fill="#232428" />
						<g
   id="g368">
							<path
   id="path366"
   d="m 161,371.917 h -23.667 c -5.187,0 -12.57,-0.647 -16.783,-6.246 -3.139,-4.171 -3.639,-10.074 -1.487,-17.543 6.13,-21.27 0.661,-29.298 0.605,-29.376 l 0.056,0.072 5.885,-4.648 c 0.828,1.048 7.883,10.967 0.661,36.03 -1.007,3.494 -1.777,8.231 0.273,10.956 2.196,2.918 7.21,3.256 10.791,3.256 H 161 c 2.071,0 3.75,1.679 3.75,3.75 0,2.07 -1.679,3.749 -3.75,3.749 z"
   fill="#232428" />
						</g>
					</g>
					<g
   id="g384">
						<g
   id="g376">
							<path
   id="path372"
   d="m 92.938,324.294 c 2.031,-0.158 3.313,-0.693 3.313,-2.294 0,-2.899 -4.253,-5.25 -9.5,-5.25 -5.247,0 -9.5,2.351 -9.5,5.25 0,1.607 1.323,2.14 3.396,2.295 z"
   fill="#232428" />
							<path
   id="path374"
   d="m 90.063,324.292 c 0,-8.561 6.94,-15.5 15.5,-15.5 8.56,0 15.5,6.939 15.5,15.5 z"
   fill="#232428" />
						</g>
						<g
   id="g382">
							<path
   id="path378"
   d="m 155.625,324.294 c -2.031,-0.158 -3.313,-0.693 -3.313,-2.294 0,-2.899 4.253,-5.25 9.5,-5.25 5.247,0 9.5,2.351 9.5,5.25 0,1.607 -1.323,2.14 -3.395,2.295 z"
   fill="#232428" />
							<path
   id="path380"
   d="m 158.5,324.292 c 0,-8.561 -6.94,-15.5 -15.5,-15.5 -8.56,0 -15.5,6.939 -15.5,15.5 z"
   fill="#232428" />
						</g>
					</g>
				</g>
			</g>
			<g
   id="g506">
				<g
   id="g410">
					<g
   id="g398">
						<g
   id="g392">
							<path
   id="path390"
   d="m 100.799,257.517 7.468,6.156 c 1.065,0.878 1.479,2.008 1.166,3.181 -0.313,1.173 -1.307,2.219 -2.8,2.946 l -10.467,5.092 c -1.493,0.726 -2.744,0.772 -3.523,0.129 -0.779,-0.642 -0.973,-1.879 -0.545,-3.483 l 2.999,-11.248 c 0.428,-1.604 1.265,-2.78 2.356,-3.311 1.092,-0.531 2.281,-0.34 3.346,0.538 z"
   fill="#232428" />
						</g>
						<g
   id="g396">
							<path
   id="path394"
   d="m 99.568,261.866 3.896,3.21 c 0.555,0.458 0.772,1.047 0.608,1.66 -0.163,0.611 -0.682,1.157 -1.461,1.536 l -5.46,2.656 c -0.779,0.379 -1.431,0.402 -1.838,0.067 -0.406,-0.335 -0.508,-0.98 -0.284,-1.816 l 1.565,-5.867 c 0.223,-0.836 0.66,-1.45 1.229,-1.727 0.57,-0.276 1.19,-0.177 1.745,0.281 z"
   fill="#5a595b" />
						</g>
					</g>
					<g
   id="g408">
						<g
   id="g402">
							<path
   id="path400"
   d="m 150.624,256.979 c 1.092,0.531 1.929,1.707 2.356,3.311 l 2.999,11.248 c 0.428,1.604 0.234,2.841 -0.545,3.483 -0.779,0.643 -2.03,0.597 -3.523,-0.129 L 141.444,269.8 c -1.493,-0.727 -2.487,-1.773 -2.8,-2.946 -0.313,-1.173 0.102,-2.303 1.167,-3.181 l 7.468,-6.156 c 1.065,-0.878 2.253,-1.069 3.345,-0.538 z"
   fill="#232428" />
						</g>
						<g
   id="g406">
							<path
   id="path404"
   d="m 150.085,262.126 c 0.573,0.278 1.012,0.896 1.237,1.737 l 1.574,5.901 c 0.224,0.841 0.123,1.49 -0.286,1.827 -0.409,0.337 -1.065,0.313 -1.849,-0.068 l -5.492,-2.671 c -0.783,-0.381 -1.305,-0.93 -1.469,-1.546 -0.164,-0.615 0.053,-1.208 0.612,-1.669 l 3.919,-3.23 c 0.557,-0.46 1.181,-0.56 1.754,-0.281 z"
   fill="#5a595b" />
						</g>
					</g>
				</g>
				<g
   id="g496">
					<g
   id="g414">
						<ellipse
   id="ellipse412"
   ry="16.333"
   rx="30.667"
   cy="256.517"
   cx="123.195"
   fill="#232428" />
					</g>
					<g
   id="g494">
						<g
   id="g464">
							<g
   id="g440">
								<g
   id="g434">
									<g
   id="g424">
										<g
   id="g418">
											<circle
   id="circle416"
   r="6.3330002"
   cy="251.66701"
   cx="112.667"
   fill="#ffffff" />
										</g>
										<g
   id="g422">
											<circle
   id="circle420"
   r="2.8329999"
   cy="251.66701"
   cx="112.667"
   fill="#191a1d" />
										</g>
									</g>
									<g
   id="g428">
										<circle
   id="circle426"
   r="6.3330002"
   cy="251.66701"
   cx="134"
   fill="#ffffff" />
									</g>
									<g
   id="g432">
										<circle
   id="circle430"
   r="2.8329999"
   cy="251.66701"
   cx="134"
   fill="#191a1d" />
									</g>
								</g>
								<g
   id="g438">
									<path
   id="path436"
   d="m 126.189,244.586 c 0,0.667 -1.353,1.209 -3.022,1.209 -1.669,0 -3.022,-0.542 -3.022,-1.209 0,-0.668 1.353,-2.297 3.022,-2.297 1.669,0 3.022,1.629 3.022,2.297 z"
   fill="#f2948d" />
								</g>
							</g>
							<g
   id="g462">
								<g
   id="g450">
									<g
   id="g444">
										<path
   id="path442"
   d="m 110.75,267 c -0.276,0 -0.5,-0.224 -0.5,-0.5 v -4.625 c 0,-0.276 0.224,-0.5 0.5,-0.5 0.276,0 0.5,0.224 0.5,0.5 v 4.625 c 0,0.276 -0.224,0.5 -0.5,0.5 z"
   fill="#5a595b" />
									</g>
									<g
   id="g448">
										<path
   id="path446"
   d="m 113.875,266.5 c -0.276,0 -0.5,-0.224 -0.5,-0.5 v -3.625 c 0,-0.276 0.224,-0.5 0.5,-0.5 0.276,0 0.5,0.224 0.5,0.5 V 266 c 0,0.276 -0.224,0.5 -0.5,0.5 z"
   fill="#5a595b" />
									</g>
								</g>
								<g
   id="g460">
									<g
   id="g454">
										<path
   id="path452"
   d="m 135.5,267 c -0.276,0 -0.5,-0.224 -0.5,-0.5 v -4.625 c 0,-0.276 0.224,-0.5 0.5,-0.5 0.276,0 0.5,0.224 0.5,0.5 v 4.625 c 0,0.276 -0.224,0.5 -0.5,0.5 z"
   fill="#5a595b" />
									</g>
									<g
   id="g458">
										<path
   id="path456"
   d="m 132.25,266.5 c -0.276,0 -0.5,-0.224 -0.5,-0.5 v -3.625 c 0,-0.276 0.224,-0.5 0.5,-0.5 0.276,0 0.5,0.224 0.5,0.5 V 266 c 0,0.276 -0.224,0.5 -0.5,0.5 z"
   fill="#5a595b" />
									</g>
								</g>
							</g>
						</g>
						<g
   id="g478">
							<g
   id="g468">
								<path
   id="path466"
   d="m 118.5,242.5 c -0.007,0 -0.014,-0.001 -0.021,-0.002 l -18.125,-3.125 c -0.068,-0.012 -0.114,-0.076 -0.102,-0.144 0.012,-0.068 0.077,-0.116 0.145,-0.102 l 18.125,3.125 c 0.068,0.012 0.114,0.076 0.102,0.144 -0.011,0.061 -0.064,0.104 -0.124,0.104 z"
   fill="#121316" />
							</g>
							<g
   id="g472">
								<path
   id="path470"
   d="m 117.806,243.095 c -10e-4,0 -0.003,0 -0.004,0 l -21.413,-0.719 c -0.069,-0.002 -0.123,-0.06 -0.121,-0.129 0.003,-0.069 0.069,-0.111 0.129,-0.121 l 21.413,0.719 c 0.069,0.002 0.123,0.06 0.121,0.129 -0.003,0.068 -0.058,0.121 -0.125,0.121 z"
   fill="#121316" />
							</g>
							<g
   id="g476">
								<path
   id="path474"
   d="m 96.73,245.413 c -0.065,0 -0.119,-0.05 -0.125,-0.116 -0.005,-0.069 0.047,-0.129 0.116,-0.134 l 21.364,-1.605 c 0.066,-0.013 0.129,0.046 0.134,0.115 0.005,0.069 -0.047,0.129 -0.116,0.134 l -21.364,1.605 c -0.003,0.001 -0.006,0.001 -0.009,0.001 z"
   fill="#121316" />
							</g>
						</g>
						<g
   id="g492">
							<g
   id="g482">
								<path
   id="path480"
   d="m 127.143,242.5 c -0.06,0 -0.113,-0.043 -0.123,-0.104 -0.012,-0.068 0.034,-0.132 0.102,-0.144 l 18.125,-3.125 c 0.066,-0.014 0.133,0.034 0.145,0.102 0.012,0.068 -0.034,0.132 -0.102,0.144 l -18.125,3.125 c -0.007,0.001 -0.015,0.002 -0.022,0.002 z"
   fill="#121316" />
							</g>
							<g
   id="g486">
								<path
   id="path484"
   d="m 127.838,243.095 c -0.067,0 -0.123,-0.053 -0.125,-0.121 -0.002,-0.069 0.052,-0.127 0.121,-0.129 l 21.413,-0.719 c 0.066,0 0.127,0.052 0.129,0.121 0.002,0.069 -0.052,0.127 -0.121,0.129 l -21.413,0.719 c -0.002,0 -0.003,0 -0.004,0 z"
   fill="#121316" />
							</g>
							<g
   id="g490">
								<path
   id="path488"
   d="m 148.914,245.413 c -0.003,0 -0.006,0 -0.01,-0.001 l -21.364,-1.605 c -0.069,-0.005 -0.121,-0.065 -0.116,-0.134 0.005,-0.069 0.066,-0.128 0.134,-0.115 l 21.364,1.605 c 0.069,0.005 0.121,0.065 0.115,0.134 -0.004,0.066 -0.058,0.116 -0.123,0.116 z"
   fill="#121316" />
							</g>
						</g>
					</g>
				</g>
				<g
   id="g504">
					<circle
   id="circle498"
   r="0.93800002"
   cy="251.91701"
   cx="111.333"
   fill="#ffffff"
   opacity="0.4" />
					<g
   id="g502">
						<circle
   id="circle500"
   r="0.88599998"
   cy="251.91701"
   cx="135.16701"
   fill="#ffffff"
   opacity="0.4" />
					</g>
				</g>
			</g>
		</g>
	</g>
</g>

</svg>
