<svg xmlns="http://www.w3.org/2000/svg" width="406" height="500" viewBox="0 0 406 500" version="1.1">
	<path d="M 210.500 4.187 C 207.200 4.706, 199.550 4.905, 193.500 4.628 C 184.882 4.235, 180.443 4.557, 173 6.116 C 167.775 7.210, 159.423 8.502, 154.440 8.987 C 143.793 10.022, 134.351 12.089, 126.875 15.021 C 123.919 16.180, 115.650 19.155, 108.500 21.633 C 95.386 26.177, 83.740 31.898, 73.869 38.644 C 70.916 40.663, 65.800 44.121, 62.500 46.328 C 36.399 63.791, 20.383 84.412, 10.717 113 C 5.815 127.501, 4.960 134.371, 4.898 159.814 C 4.817 192.539, 6.503 202.382, 16.741 228.989 C 25.143 250.822, 35.872 268.373, 56.358 293.798 C 68.655 309.060, 77.349 318.204, 112.625 352.978 C 175.258 414.719, 174.463 413.877, 176.852 421.058 C 178.030 424.601, 179.799 430.633, 180.782 434.463 C 182.787 442.269, 183.419 442.721, 192.589 442.900 C 199.512 443.036, 200.105 444.487, 198.460 457.275 C 197.769 462.652, 196.702 467.655, 196.089 468.393 C 195.260 469.391, 195.312 470.014, 196.292 470.827 C 197.309 471.671, 197.427 473.791, 196.813 480.148 C 195.537 493.346, 198.242 495.619, 214 494.589 C 226.789 493.754, 228.392 493.300, 230.367 489.957 C 231.977 487.231, 231.959 486.674, 230.032 479.124 C 228.914 474.747, 228.274 470.449, 228.610 469.575 C 228.945 468.700, 228.506 466.895, 227.633 465.563 C 225.745 462.681, 222.754 448.946, 223.192 445.164 C 223.471 442.751, 223.998 442.439, 228.791 441.854 C 237.282 440.818, 239.998 439.311, 240.010 435.629 C 240.016 433.908, 240.868 428.298, 241.905 423.162 C 243.741 414.060, 246.629 408.261, 252.719 401.452 C 253.699 400.357, 256.253 397.445, 258.396 394.980 C 260.539 392.516, 268.425 384.200, 275.922 376.500 C 292.354 359.621, 307.853 342.163, 322.529 324 C 328.529 316.575, 333.741 310.275, 334.112 310 C 337.266 307.662, 364.576 266.732, 370.811 255 C 381.632 234.637, 395.213 199.842, 398.504 184.052 C 403.530 159.933, 401.945 131.084, 394.518 111.500 C 393.058 107.650, 391.418 102.700, 390.874 100.500 C 389.680 95.673, 384.311 85.803, 378.147 77.103 C 366.533 60.711, 338.433 37.983, 315.056 26.074 C 303.522 20.198, 275.413 10.100, 265 8.092 C 261.975 7.508, 255 6.816, 249.500 6.554 C 244 6.291, 235.900 5.400, 231.500 4.573 C 222.531 2.888, 219.160 2.826, 210.500 4.187 M 209.605 445.588 C 208.750 447.816, 208.818 448, 210.500 448 C 211.325 448, 212 447.352, 212 446.559 C 212 444.443, 210.307 443.757, 209.605 445.588 M 201.079 452.583 C 201.127 453.748, 201.364 453.985, 201.683 453.188 C 201.972 452.466, 201.936 451.603, 201.604 451.271 C 201.272 450.939, 201.036 451.529, 201.079 452.583 M 221.356 453.875 C 221.710 455.731, 222 457.644, 222 458.125 C 222 458.606, 222.403 459, 222.895 459 C 223.405 459, 223.442 457.461, 222.982 455.421 C 221.939 450.797, 220.510 449.438, 221.356 453.875 M 210 452.878 C 210 453.360, 210.675 454.315, 211.500 455 C 212.325 455.685, 213 457.315, 213 458.622 C 213 461.597, 215.516 461.772, 217.050 458.906 C 217.978 457.173, 217.781 456.396, 215.911 454.406 C 213.715 452.068, 210 451.108, 210 452.878" fill="none" stroke="#000" stroke-width="2px" fill-rule="evenodd"/>
</svg>
