<svg xmlns="http://www.w3.org/2000/svg" width="500" height="183" viewBox="0 0 500 183" version="1.1">
	<path d="M 7.250 8.333 C 4.178 11.423, 2.869 13.817, 4.957 12.526 C 5.484 12.201, 8.296 13.248, 11.207 14.854 C 14.118 16.460, 27.075 23.626, 40 30.780 C 87.627 57.139, 126.605 77.101, 198.250 111.823 C 210.763 117.888, 221 123.311, 221 123.877 C 221 124.442, 218.949 126.315, 216.442 128.040 L 211.885 131.175 200.192 126.143 C 192.295 122.744, 181.967 119.476, 168.371 116.076 C 157.299 113.307, 147.009 110.574, 145.504 110.001 C 143.160 109.110, 142.420 109.307, 140.355 111.373 L 137.943 113.784 141.221 114.918 C 143.025 115.541, 152.056 119.009, 161.291 122.624 C 174.660 127.857, 177.860 129.464, 176.990 130.512 C 176.079 131.610, 170.048 163.792, 170.012 167.750 C 170.005 168.500, 171.321 169, 173.300 169 C 175.115 169, 177.091 169.491, 177.690 170.090 C 178.477 170.877, 179.297 170.306, 180.637 168.038 C 182.071 165.610, 187.067 162.405, 202.596 153.948 C 213.653 147.926, 223.380 143, 224.212 143 C 225.044 143, 227.348 141.710, 229.331 140.134 C 231.314 138.558, 234.298 136.705, 235.962 136.016 C 238.704 134.880, 239.160 134.976, 240.833 137.042 C 242.676 139.318, 242.681 139.319, 244.589 137.323 C 245.640 136.224, 246.950 134.630, 247.500 133.780 C 248.380 132.421, 252.817 133.113, 284.500 139.552 C 304.300 143.576, 332.650 149.185, 347.500 152.016 C 362.350 154.847, 377.875 158.013, 382 159.052 C 389.811 161.020, 478.386 175.995, 482.278 176.006 C 483.500 176.010, 485.847 176.715, 487.494 177.573 C 490.383 179.080, 490.568 179.041, 492.790 176.457 C 494.057 174.985, 494.930 173.267, 494.731 172.640 C 494.532 172.013, 467.174 164.675, 433.935 156.333 C 400.696 147.991, 352.021 135.648, 325.769 128.903 L 278.039 116.640 283.312 111.070 C 294.153 99.619, 295.562 94.031, 288.500 90.500 C 285.156 88.828, 282.697 88.524, 273.500 88.648 C 261.954 88.804, 257 89.946, 257 92.450 C 257 93.274, 255.762 94.590, 254.250 95.374 C 252.738 96.158, 249.350 98.693, 246.722 101.009 L 241.945 105.219 201.222 87.722 C 120.923 53.220, 14.482 6.826, 13.550 5.922 C 11.979 4.397, 10.661 4.902, 7.250 8.333 M 188.991 137.250 C 188.987 139.588, 188.699 143.863, 188.352 146.750 C 187.945 150.140, 188.092 152, 188.768 152 C 189.782 152, 205.243 139.346, 205.754 138.098 C 206.007 137.478, 192.292 133, 190.140 133 C 189.467 133, 188.996 134.741, 188.991 137.250" fill="none" stroke="#000" stroke-width="2px" fill-rule="evenodd"/>
</svg>
