<svg xmlns="http://www.w3.org/2000/svg" width="417" height="500" viewBox="0 0 417 500" version="1.1">
	<path d="M 406.851 3.843 C 405.682 7.007, 388.058 25.788, 384.677 27.474 C 383.527 28.047, 382.342 29.522, 382.043 30.751 C 381.744 31.979, 378.928 36.264, 375.785 40.271 C 370.228 47.357, 369.818 47.652, 360.883 50.989 L 351.695 54.420 343.113 64.710 C 338.393 70.369, 334.054 75, 333.470 75 C 331.877 75, 322 85.138, 322 86.774 C 322 87.555, 318.281 92.763, 313.736 98.347 C 309.191 103.931, 304.899 109.625, 304.198 111 C 302.225 114.873, 289.720 130.581, 281.112 140 C 276.839 144.675, 271.613 150.975, 269.498 154 C 264.254 161.503, 253.069 175.337, 251.532 176.222 C 249.155 177.590, 213.491 219.133, 209.372 225.332 C 205.445 231.240, 199.950 236.619, 186.500 247.720 C 178.520 254.305, 142.698 289.066, 115.961 316.167 C 104.014 328.277, 93.634 338, 92.652 338 C 91.633 338, 91.167 338.461, 91.553 339.086 C 91.923 339.684, 90.736 341.709, 88.916 343.586 C 86.293 346.293, 84.820 347, 81.804 347 C 77.605 347, 77.241 347.503, 79.573 350.080 C 81 351.657, 81.001 352.098, 79.584 354.838 C 78.725 356.499, 77.155 358.133, 76.096 358.469 C 75.037 358.806, 70.109 363, 65.144 367.790 C 57.849 374.830, 55.903 377.334, 54.994 380.851 C 53.671 385.965, 54.111 386.726, 57.496 385.184 C 58.873 384.556, 60 384.377, 60 384.785 C 60 386.457, 52.380 396.893, 47.065 402.500 C 39.486 410.495, 34.746 416.600, 32.137 421.723 C 30.886 424.181, 27.794 427.577, 24.743 429.845 C 18.124 434.766, 7.508 445.824, 6.572 448.773 C 6.181 450.005, 6.364 453.434, 6.978 456.394 C 7.592 459.353, 7.823 462.857, 7.491 464.180 C 6.755 467.113, 10.227 472, 13.046 472 C 14.091 472, 17.002 471.001, 19.514 469.781 C 23.001 468.087, 24.486 467.815, 25.791 468.633 C 28.167 470.122, 28.439 473.445, 26.569 478.120 C 25.394 481.056, 25.252 482.602, 26.025 484.046 C 27.430 486.672, 28.335 486.522, 32.347 483 C 34.844 480.808, 36.773 480, 39.514 480 L 43.263 480 42.684 483.750 C 42.365 485.813, 41.803 488.512, 41.435 489.750 C 39.779 495.322, 48.122 489.451, 51.895 482.390 C 53.038 480.251, 55.892 476.150, 58.237 473.278 C 70.060 458.797, 75.911 450.882, 79.338 444.740 C 83.550 437.190, 86.374 434.143, 93.066 429.929 C 95.578 428.348, 98.242 425.917, 98.985 424.527 C 99.729 423.137, 100.712 422, 101.169 422 C 102.356 422, 102.233 422.598, 100.073 427.340 C 99.013 429.666, 97.827 432.840, 97.438 434.392 C 96.774 437.036, 96.865 437.143, 98.865 436.072 C 100.039 435.444, 101.709 433.848, 102.575 432.525 C 103.442 431.203, 104.758 430.354, 105.501 430.639 C 106.976 431.205, 118.488 414.790, 123.852 404.471 C 125.559 401.187, 128.033 397.215, 129.350 395.643 C 131.664 392.884, 131.830 392.843, 134.254 394.431 L 136.763 396.075 136.260 391.615 C 135.779 387.348, 136.079 386.713, 143.245 376.828 C 147.363 371.148, 151.982 364.475, 153.510 362 C 155.039 359.525, 161.548 350.525, 167.976 342 C 193.190 308.561, 203.208 292.943, 221.468 258.609 C 224.654 252.619, 228.705 246.094, 230.470 244.109 C 232.236 242.124, 242.152 229.700, 252.505 216.500 C 262.858 203.300, 276.121 186.875, 281.977 180 C 287.834 173.125, 299.710 158.840, 308.368 148.256 C 317.027 137.671, 324.904 128.586, 325.874 128.068 C 326.843 127.549, 331.424 122.593, 336.053 117.055 C 340.683 111.517, 345.152 106.762, 345.985 106.489 C 348.020 105.822, 354.999 95.644, 355.004 93.336 C 355.007 92.326, 358.773 86.775, 363.374 81 L 371.739 70.500 373.316 61.215 C 374.820 52.358, 375.160 51.588, 380.696 44.545 C 383.888 40.484, 387.506 36.893, 388.735 36.565 C 390.087 36.205, 391.236 34.889, 391.643 33.235 C 392.014 31.731, 393.371 29.108, 394.659 27.406 C 395.946 25.704, 397 23.866, 397 23.322 C 397 22.778, 398.800 20.383, 401 18 C 403.200 15.617, 405 13.464, 405 13.216 C 405 12.967, 406.373 11.200, 408.052 9.288 C 409.731 7.376, 410.931 5.292, 410.719 4.656 C 410.232 3.192, 407.318 2.579, 406.851 3.843" fill="none" stroke="#000" stroke-width="2px" fill-rule="evenodd"/>
</svg>
