<svg xmlns="http://www.w3.org/2000/svg" width="500" height="141" viewBox="0 0 500 141" version="1.1">
	<path d="M 243.884 7.074 C 235.141 8.001, 214.058 12.551, 209.250 14.548 C 207.307 15.355, 205.991 16.622, 205.977 17.699 C 205.961 19.002, 203.543 20.535, 197.227 23.245 C 184.713 28.614, 173.498 35.862, 162.812 45.485 C 153.747 53.650, 153.314 53.903, 146.500 55.032 C 98.734 62.945, 47.843 76.040, 22.763 86.872 C 16.875 89.415, 7.447 96.296, 5.906 99.175 C 4.021 102.698, 5.388 112.712, 8.164 115.713 C 15.970 124.153, 33.803 129.072, 73 133.596 C 133.880 140.623, 226.835 137.542, 319.500 125.425 C 381.736 117.288, 418.092 109.960, 451.263 98.869 C 479.805 89.326, 488.603 85.372, 493.799 79.753 C 495.705 77.692, 496.119 76.074, 496.227 70.276 C 496.337 64.343, 495.947 62.586, 493.654 58.672 C 491.100 54.315, 490.498 53.920, 482.726 51.512 C 458.863 44.117, 406.194 38.095, 364.781 38.026 L 349.062 38 341.979 33.418 C 333.196 27.736, 318.336 20.766, 306.587 16.817 C 299.635 14.481, 296.719 13.965, 293.337 14.472 C 288.836 15.147, 287.813 14.230, 290.542 11.965 C 293.103 9.840, 290.797 8.858, 279.838 7.410 C 268.603 5.925, 255.842 5.805, 243.884 7.074" fill="none" stroke="#000" stroke-width="2px" fill-rule="evenodd"/>
</svg>
