<svg xmlns="http://www.w3.org/2000/svg" width="500" height="209" viewBox="0 0 500 209" version="1.1">
	<path d="M 37 3.443 C 37 4.236, 38.520 9.299, 40.378 14.693 C 45.583 29.801, 52.711 52.142, 53.459 55.686 C 54.099 58.721, 53.770 59.159, 46.500 64.936 C 42.304 68.271, 37.993 71.469, 36.920 72.043 C 35.848 72.616, 33.740 74.931, 32.235 77.186 C 30.731 79.441, 28.373 82.989, 26.996 85.071 C 22.352 92.088, 12.700 96.780, 9.183 93.729 C 8.257 92.926, 6.262 91.975, 4.750 91.615 C 1.233 90.780, 1.183 92.209, 4.500 98.813 C 5.875 101.551, 7 104.959, 7 106.387 C 7 107.900, 7.834 109.504, 9 110.232 C 10.100 110.919, 11 112, 11 112.634 C 11 113.267, 11.776 114.084, 12.724 114.447 C 15.223 115.407, 17.144 112.286, 16.422 108.438 C 15.713 104.656, 18.245 103.007, 20.973 105.476 C 21.900 106.314, 23.075 107, 23.585 107 C 24.095 107, 25.548 109.259, 26.814 112.019 C 29.112 117.028, 33.853 122.592, 39.465 126.867 L 42.430 129.126 40.177 133.313 C 38.938 135.616, 32.879 143.729, 26.712 151.343 C 14.886 165.944, 11.440 170.773, 12.261 171.594 C 12.536 171.869, 17.262 172.357, 22.764 172.677 C 34.806 173.379, 38.708 172.353, 54 164.465 C 59.775 161.486, 68.626 156.941, 73.668 154.366 L 82.836 149.683 87.668 151.737 C 90.326 152.867, 99.250 155.441, 107.500 157.458 C 130.222 163.012, 136.422 165.134, 136.853 167.500 C 137.218 169.508, 145.314 178, 146.863 178 C 147.318 178, 148.538 177.063, 149.574 175.918 C 151.191 174.131, 151.248 173.715, 149.979 172.986 C 145.731 170.547, 144.509 169.125, 145.658 167.959 C 146.506 167.099, 147.712 167.064, 150.158 167.827 C 151.996 168.401, 159.350 169.359, 166.500 169.956 C 173.650 170.554, 184.225 171.596, 190 172.271 C 201.060 173.565, 319.620 174.076, 335.721 172.899 C 342.820 172.380, 344.186 172.544, 345.721 174.101 C 348.577 176.996, 349.689 178.499, 351.343 181.695 C 352.198 183.350, 354.444 186.061, 356.333 187.720 C 360.708 191.560, 370.019 193.061, 388.728 192.940 C 396.004 192.893, 402.382 193.118, 402.901 193.439 C 403.421 193.760, 404.139 195.356, 404.497 196.984 C 405.237 200.358, 410.207 205, 413.077 205 C 416.171 205, 415.398 201.198, 411.514 197.314 C 407.597 193.397, 407.929 192.424, 414 190.043 C 417.885 188.520, 421 186.175, 421 184.775 C 421 184.272, 418.981 180.534, 416.513 176.468 L 412.025 169.076 414.416 166.496 C 415.732 165.077, 418.088 163.518, 419.654 163.031 C 421.219 162.545, 426.325 160.741, 431 159.024 C 435.675 157.306, 441.525 155.195, 444 154.332 C 454.473 150.684, 475.151 136.945, 483.126 128.335 C 491.227 119.590, 498.034 104.834, 497.976 96.145 C 497.939 90.625, 496.161 83.818, 493.965 80.790 C 492.884 79.300, 491.990 77.275, 491.978 76.290 C 491.856 66.372, 471.346 46.861, 450.043 36.398 C 428.088 25.615, 405.022 20.993, 365.500 19.457 C 357.250 19.137, 346.450 18.438, 341.500 17.905 C 336.550 17.372, 307.300 16.667, 276.500 16.340 C 229.054 15.836, 217.903 15.994, 203.500 17.378 C 194.150 18.276, 183.800 19.464, 180.500 20.019 C 177.200 20.574, 169.550 21.710, 163.500 22.543 C 151.062 24.257, 143.908 25.824, 126 30.760 C 119.125 32.655, 112.545 34.425, 111.378 34.695 C 108.097 35.452, 103.535 32.542, 95.690 24.688 C 86.172 15.158, 73.299 3.669, 71.189 2.820 C 70.260 2.446, 62.188 2.109, 53.250 2.070 C 39.726 2.012, 37 2.242, 37 3.443" fill="none" stroke="#000" stroke-width="2px" fill-rule="evenodd"/>
</svg>
