<?xml version="1.0" encoding="UTF-8" standalone="no"?>
<!-- Generator: Adobe Illustrator 17.0.0, SVG Export Plug-In . SVG Version: 6.00 Build 0)  -->

<svg
   xmlns:dc="http://purl.org/dc/elements/1.1/"
   xmlns:cc="http://creativecommons.org/ns#"
   xmlns:rdf="http://www.w3.org/1999/02/22-rdf-syntax-ns#"
   xmlns:svg="http://www.w3.org/2000/svg"
   xmlns="http://www.w3.org/2000/svg"
   xmlns:sodipodi="http://sodipodi.sourceforge.net/DTD/sodipodi-0.dtd"
   xmlns:inkscape="http://www.inkscape.org/namespaces/inkscape"
   version="1.1"
   x="0px"
   y="0px"
   width="135.59282"
   height="145.338"
   viewBox="0 0 135.59282 145.338"
   enable-background="new 0 0 1200 150"
   xml:space="preserve"
   id="svg901"
   sodipodi:docname="0.svg"
   inkscape:version="0.92.4 (5da689c313, 2019-01-14)"><metadata
   id="metadata907"><rdf:RDF><cc:Work
       rdf:about=""><dc:format>image/svg+xml</dc:format><dc:type
         rdf:resource="http://purl.org/dc/dcmitype/StillImage" /><dc:title></dc:title></cc:Work></rdf:RDF></metadata><defs
   id="defs905" /><sodipodi:namedview
   pagecolor="#ffffff"
   bordercolor="#666666"
   borderopacity="1"
   objecttolerance="10"
   gridtolerance="10"
   guidetolerance="10"
   inkscape:pageopacity="0"
   inkscape:pageshadow="2"
   inkscape:window-width="1920"
   inkscape:window-height="1017"
   id="namedview903"
   showgrid="false"
   fit-margin-top="0"
   fit-margin-left="0"
   fit-margin-right="0"
   fit-margin-bottom="0"
   inkscape:zoom="0.94666667"
   inkscape:cx="696.56575"
   inkscape:cy="6.9285985"
   inkscape:window-x="-8"
   inkscape:window-y="-8"
   inkscape:window-maximized="1"
   inkscape:current-layer="svg901" />
<g
   id="Слой_11"
   transform="translate(-8.0796247,-2.309)">
</g>
<g
   id="Слой_1"
   transform="translate(-8.0796247,-2.309)">
	<path
   d="m 73.788,147.647 h -0.003 c -0.433,0 -0.788,-0.354 -0.788,-0.788 v -20.26 c 0,-0.433 0.354,-0.788 0.788,-0.788 h 0.003 c 0.433,0 0.788,0.354 0.788,0.788 v 20.26 c 0,0.433 -0.355,0.788 -0.788,0.788 z"
   id="path3"
   inkscape:connector-curvature="0"
   style="fill:#fccb02" />
	<path
   d="m 81.27,147.647 h -0.003 c -0.433,0 -0.788,-0.354 -0.788,-0.788 v -20.26 c 0,-0.433 0.354,-0.788 0.788,-0.788 h 0.003 c 0.433,0 0.788,0.354 0.788,0.788 v 20.26 c 0,0.433 -0.355,0.788 -0.788,0.788 z"
   id="path5"
   inkscape:connector-curvature="0"
   style="fill:#fccb02" />
	<path
   d="m 79.457,126.335 c 0,0 11.749,-1.397 31.39,-4.716 19.641,-3.319 34.02,-11.18 31.39,-16.77 -2.63,-5.59 -14.38,-7.337 -14.38,-7.337 0,0 16.659,-12.752 15.782,-20.612 -0.959,-8.594 -20.868,-6.638 -20.868,-6.638 0,0 15.987,-18.889 12.801,-26.028 -2.806,-6.289 -26.304,-0.524 -26.304,-0.524 0,0 5.436,-23.757 0,-27.95 -5.436,-4.192 -21.394,8.734 -21.394,8.734 0,0 -1.578,-10.481 -6.138,-17.294 C 78.66,2.604 75.774,2.309 75.774,2.309 v 125.249 z"
   id="path7"
   inkscape:connector-curvature="0"
   style="fill:#9ac320" />
	<g
   id="g13">
		<path
   d="m 128.959,102.923 c -3.627,0.456 -6.33,2.702 -6.037,5.015 0.293,2.313 3.471,3.82 7.099,3.363 3.627,-0.456 6.33,-2.702 6.037,-5.015 -0.293,-2.314 -3.471,-3.82 -7.099,-3.363 z"
   id="path9"
   inkscape:connector-curvature="0"
   style="fill:#a0d5da" />
		
			<ellipse
   transform="matrix(-0.1257,-0.9921,0.9921,-0.1257,37.2508,247.7157)"
   cx="127.777"
   cy="107.444"
   rx="2.223"
   ry="3.484"
   id="ellipse11"
   style="fill:#3558a4" />
	</g>
	<g
   id="g19">
		<path
   d="m 125.255,77.982 c -3.442,1.228 -5.592,4.003 -4.803,6.199 0.789,2.196 4.22,2.98 7.661,1.752 3.442,-1.228 5.592,-4.003 4.803,-6.199 -0.789,-2.196 -4.219,-2.98 -7.661,-1.752 z"
   id="path15"
   inkscape:connector-curvature="0"
   style="fill:#a0d5da" />
		<path
   d="m 124.331,80.559 c -1.812,0.646 -2.943,2.107 -2.528,3.263 0.415,1.156 2.221,1.568 4.032,0.922 1.812,-0.646 2.943,-2.107 2.528,-3.263 -0.415,-1.155 -2.22,-1.568 -4.032,-0.922 z"
   id="path17"
   inkscape:connector-curvature="0"
   style="fill:#3558a4" />
	</g>
	<g
   id="g25">
		<path
   d="m 119.534,49.778 c -3.278,1.613 -5.095,4.615 -4.058,6.706 1.037,2.091 4.535,2.478 7.812,0.865 3.278,-1.613 5.095,-4.615 4.058,-6.706 -1.036,-2.09 -4.534,-2.478 -7.812,-0.865 z"
   id="path21"
   inkscape:connector-curvature="0"
   style="fill:#a0d5da" />
		<path
   d="m 118.913,52.444 c -1.725,0.849 -2.681,2.429 -2.136,3.53 0.546,1.1 2.387,1.304 4.112,0.455 1.725,-0.849 2.681,-2.429 2.136,-3.53 -0.546,-1.1 -2.387,-1.304 -4.112,-0.455 z"
   id="path23"
   inkscape:connector-curvature="0"
   style="fill:#3558a4" />
	</g>
	<g
   id="g31">
		<path
   d="m 96.772,24.933 c -2.108,2.976 -2.266,6.478 -0.353,7.822 1.913,1.345 5.172,0.022 7.28,-2.953 2.108,-2.975 2.266,-6.478 0.353,-7.822 -1.913,-1.344 -5.173,-0.023 -7.28,2.953 z"
   id="path27"
   inkscape:connector-curvature="0"
   style="fill:#a0d5da" />
		<path
   d="m 97.503,27.571 c -1.109,1.566 -1.193,3.409 -0.186,4.117 1.007,0.708 2.722,0.012 3.832,-1.554 1.109,-1.566 1.193,-3.409 0.186,-4.117 -1.007,-0.708 -2.723,-0.012 -3.832,1.554 z"
   id="path29"
   inkscape:connector-curvature="0"
   style="fill:#3558a4" />
	</g>
	<path
   d="m 72.296,126.335 c 0,0 -11.749,-1.397 -31.39,-4.716 -19.641,-3.319 -34.02,-11.18 -31.39,-16.77 2.63,-5.59 14.38,-7.337 14.38,-7.337 0,0 -16.659,-12.752 -15.783,-20.612 0.959,-8.594 20.868,-6.638 20.868,-6.638 0,0 -15.986,-18.89 -12.801,-26.028 2.806,-6.289 26.304,-0.524 26.304,-0.524 0,0 -5.436,-23.757 0,-27.95 5.436,-4.193 21.394,8.734 21.394,8.734 0,0 1.579,-10.481 6.138,-17.294 3.076,-4.596 5.962,-4.891 5.962,-4.891 v 125.249 z"
   id="path33"
   inkscape:connector-curvature="0"
   style="fill:#9ac320" />
	<path
   d="m 74.926,104.936 c 0,0 0.526,-7.599 -3.77,-6.987 -4.296,0.611 -6.138,11.442 -6.664,16.944 -0.526,5.503 2.017,10.481 6.225,11.267 4.209,0.787 4.209,-21.224 4.209,-21.224 z"
   id="path35"
   inkscape:connector-curvature="0"
   style="fill:#3558a4" />
	<path
   d="m 79.526,104.936 c 0,0 -0.526,-7.599 3.77,-6.987 4.296,0.611 6.138,11.442 6.664,16.944 0.526,5.503 -2.017,10.481 -6.225,11.267 -4.209,0.787 -4.209,-21.224 -4.209,-21.224 z"
   id="path37"
   inkscape:connector-curvature="0"
   style="fill:#3558a4" />
	<g
   id="g69">
		<g
   id="g47">
			<g
   id="g43">
				<g
   id="g41">
					<path
   d="m 73,41.782 c -2.125,-1.522 -6.053,-2.015 -8.163,-0.358 -1.167,0.916 -0.291,2.517 0.779,2.95 0.987,0.399 2.004,0.175 3.043,0.166 1.186,-0.011 2.365,0.21 3.55,0.165 1.636,-0.063 2.039,-2.03 0.791,-2.923 z"
   id="path39"
   inkscape:connector-curvature="0"
   style="fill:#3558a4" />
				</g>
			</g>
			<ellipse
   cx="65.749001"
   cy="43.185001"
   rx="2.017"
   ry="2.0090001"
   id="ellipse45"
   style="fill:#3558a4" />
		</g>
		<g
   id="g57">
			<g
   id="g53">
				<g
   id="g51">
					<path
   d="m 75.03,41.642 c -0.287,-1.428 -1.561,-2.503 -2.68,-3.328 -1.221,-0.9 -2.959,-2.007 -4.511,-1.411 -1.015,0.39 -1.564,1.446 -1.002,2.462 0.673,1.217 2.027,1.559 3.162,2.217 1.066,0.617 2.042,1.527 3.251,1.839 1.122,0.289 1.996,-0.708 1.78,-1.779 z"
   id="path49"
   inkscape:connector-curvature="0"
   style="fill:#3558a4" />
				</g>
			</g>
			<path
   d="m 69.634,39.824 c 0.54,-0.97 0.188,-2.193 -0.786,-2.731 -0.974,-0.538 -2.202,-0.187 -2.742,0.783 -0.54,0.97 -0.188,2.193 0.786,2.731 0.975,0.538 2.202,0.188 2.742,-0.783 z"
   id="path55"
   inkscape:connector-curvature="0"
   style="fill:#3558a4" />
		</g>
		<g
   id="g67">
			<g
   id="g63">
				<g
   id="g61">
					<path
   d="m 76.405,41.729 c 0.382,-1.471 0.046,-3.003 -0.501,-4.392 -0.577,-1.467 -1.223,-2.976 -2.841,-3.462 -1.125,-0.338 -2.117,0.574 -2.181,1.661 -0.075,1.283 0.775,2.265 1.321,3.361 0.522,1.048 0.8,2.205 1.435,3.193 0.688,1.073 2.425,0.955 2.767,-0.361 z"
   id="path59"
   inkscape:connector-curvature="0"
   style="fill:#3558a4" />
				</g>
			</g>
			<path
   d="m 72.924,37.317 c 0.999,-0.491 1.408,-1.696 0.915,-2.691 -0.493,-0.995 -1.702,-1.403 -2.701,-0.912 -0.999,0.491 -1.408,1.696 -0.915,2.691 0.493,0.995 1.703,1.403 2.701,0.912 z"
   id="path65"
   inkscape:connector-curvature="0"
   style="fill:#3558a4" />
		</g>
	</g>
	<path
   d="m 86.5,43.535 c 0,0 -4.91,-4.542 -9.703,-3.61 -4.793,0.932 -8.184,5.357 -7.599,14.091 0.585,8.734 4.91,29.929 5.378,35.403 0.468,5.473 -2.578,17.206 -4.793,21.195 -2.134,3.843 -3.157,11.296 0.935,16.187 4.092,4.891 9.703,3.028 11.925,1.397 2.221,-1.63 5.953,-6.232 4.209,-15.139 C 85.449,105.897 79.604,102.811 78.785,90.35 77.967,77.889 75.979,57.043 76.914,54.016 77.849,50.988 79.72,48.426 82.409,48.193 85.097,47.96 86.5,43.535 86.5,43.535 Z"
   id="path71"
   inkscape:connector-curvature="0"
   style="fill:#5d7abc" />
	<path
   d="m 86.15,45.02 c -0.263,0.087 -4.998,-2.533 -8.067,-2.358 -3.069,0.175 -5.086,0.611 -5.436,2.882 -0.351,2.271 0.789,4.192 3.507,3.843 2.718,-0.349 5.261,-2.184 8.33,-2.096 3.068,0.087 1.666,-2.271 1.666,-2.271 z"
   id="path73"
   inkscape:connector-curvature="0"
   style="fill:#ffffff" />
	<path
   d="m 86.588,43.185 c 0,0 -1.754,0.524 -2.543,2.184 -0.789,1.66 -1.052,2.97 -1.052,2.97 l 9.645,-0.349 c 0,-0.001 -2.718,-4.106 -6.05,-4.805 z"
   id="path75"
   inkscape:connector-curvature="0"
   style="fill:#fccb02" />
	<circle
   cx="76.592003"
   cy="45.631001"
   r="1.228"
   id="circle77"
   style="fill:#010202" />
	<g
   id="g83">
		<path
   d="m 22.793,102.923 c 3.627,0.456 6.33,2.702 6.037,5.015 -0.293,2.313 -3.471,3.82 -7.099,3.363 -3.627,-0.456 -6.33,-2.702 -6.037,-5.015 0.294,-2.314 3.472,-3.82 7.099,-3.363 z"
   id="path79"
   inkscape:connector-curvature="0"
   style="fill:#a0d5da" />
		
			<ellipse
   transform="matrix(0.1257,-0.9921,0.9921,0.1257,-85.6299,117.7206)"
   cx="23.976"
   cy="107.444"
   rx="2.223"
   ry="3.484"
   id="ellipse81"
   style="fill:#3558a4" />
	</g>
	<g
   id="g89">
		<path
   d="m 26.497,77.982 c 3.442,1.228 5.592,4.003 4.803,6.199 -0.789,2.196 -4.22,2.98 -7.661,1.752 -3.442,-1.228 -5.592,-4.003 -4.803,-6.199 0.789,-2.196 4.219,-2.98 7.661,-1.752 z"
   id="path85"
   inkscape:connector-curvature="0"
   style="fill:#a0d5da" />
		<path
   d="m 27.421,80.559 c 1.812,0.646 2.943,2.107 2.528,3.263 -0.415,1.156 -2.221,1.568 -4.032,0.922 -1.812,-0.646 -2.943,-2.107 -2.528,-3.263 0.415,-1.155 2.221,-1.568 4.032,-0.922 z"
   id="path87"
   inkscape:connector-curvature="0"
   style="fill:#3558a4" />
	</g>
	<g
   id="g95">
		<path
   d="m 32.218,49.778 c 3.278,1.613 5.095,4.615 4.058,6.706 -1.037,2.091 -4.535,2.478 -7.813,0.865 -3.278,-1.613 -5.095,-4.615 -4.058,-6.706 1.038,-2.09 4.535,-2.478 7.813,-0.865 z"
   id="path91"
   inkscape:connector-curvature="0"
   style="fill:#a0d5da" />
		<path
   d="m 32.839,52.444 c 1.725,0.849 2.681,2.429 2.136,3.53 -0.545,1.101 -2.387,1.304 -4.112,0.455 -1.725,-0.849 -2.681,-2.429 -2.136,-3.53 0.546,-1.1 2.387,-1.304 4.112,-0.455 z"
   id="path93"
   inkscape:connector-curvature="0"
   style="fill:#3558a4" />
	</g>
	<g
   id="g101">
		<path
   d="m 54.981,24.933 c 2.108,2.976 2.266,6.478 0.353,7.822 -1.913,1.345 -5.172,0.022 -7.28,-2.953 -2.108,-2.976 -2.266,-6.478 -0.353,-7.822 1.913,-1.344 5.172,-0.023 7.28,2.953 z"
   id="path97"
   inkscape:connector-curvature="0"
   style="fill:#a0d5da" />
		<path
   d="m 54.25,27.571 c 1.109,1.566 1.193,3.409 0.186,4.117 -1.007,0.708 -2.722,0.012 -3.832,-1.554 -1.109,-1.566 -1.193,-3.409 -0.186,-4.117 1.007,-0.708 2.722,-0.012 3.832,1.554 z"
   id="path99"
   inkscape:connector-curvature="0"
   style="fill:#3558a4" />
	</g>
	<g
   id="g107">
		<ellipse
   transform="matrix(1,-0.0069,0.0069,1,-0.1179,0.5236)"
   cx="76.068001"
   cy="17.410999"
   rx="4.2389998"
   ry="6.5939999"
   id="ellipse103"
   style="fill:#a0d5da" />
		<ellipse
   transform="matrix(1,-0.0069,0.0069,1,-0.1298,0.5227)"
   cx="75.963997"
   cy="19.146999"
   rx="2.2309999"
   ry="3.471"
   id="ellipse105"
   style="fill:#3558a4" />
	</g>
	<g
   id="Слой_9__x28_копия_x29_">
		<path
   d="m 77.187,105.196 c 0,0 -6.582,13.475 -4.716,16.05 1.356,1.872 8.643,1.439 9.676,-0.63 1.473,-2.95 -4.96,-15.42 -4.96,-15.42 z"
   id="path109"
   inkscape:connector-curvature="0"
   style="fill:#ffffff" />
	</g>
</g>







</svg>