<?xml version="1.0" encoding="UTF-8" standalone="no"?>
<!-- Generator: Adobe Illustrator 17.0.0, SVG Export Plug-In . SVG Version: 6.00 Build 0)  -->

<svg
   xmlns:dc="http://purl.org/dc/elements/1.1/"
   xmlns:cc="http://creativecommons.org/ns#"
   xmlns:rdf="http://www.w3.org/1999/02/22-rdf-syntax-ns#"
   xmlns:svg="http://www.w3.org/2000/svg"
   xmlns="http://www.w3.org/2000/svg"
   xmlns:sodipodi="http://sodipodi.sourceforge.net/DTD/sodipodi-0.dtd"
   xmlns:inkscape="http://www.inkscape.org/namespaces/inkscape"
   version="1.1"
   x="0px"
   y="0px"
   width="135.59282"
   height="145.338"
   viewBox="0 0 135.59282 145.338"
   enable-background="new 0 0 1200 150"
   xml:space="preserve"
   id="svg901"
   sodipodi:docname="5.svg"
   inkscape:version="0.92.4 (5da689c313, 2019-01-14)"><metadata
   id="metadata907"><rdf:RDF><cc:Work
       rdf:about=""><dc:format>image/svg+xml</dc:format><dc:type
         rdf:resource="http://purl.org/dc/dcmitype/StillImage" /><dc:title></dc:title></cc:Work></rdf:RDF></metadata><defs
   id="defs905" /><sodipodi:namedview
   pagecolor="#ffffff"
   bordercolor="#666666"
   borderopacity="1"
   objecttolerance="10"
   gridtolerance="10"
   guidetolerance="10"
   inkscape:pageopacity="0"
   inkscape:pageshadow="2"
   inkscape:window-width="1920"
   inkscape:window-height="1017"
   id="namedview903"
   showgrid="false"
   inkscape:zoom="0.94666667"
   inkscape:cx="267.43523"
   inkscape:cy="-92.512458"
   inkscape:window-x="-8"
   inkscape:window-y="-8"
   inkscape:window-maximized="1"
   inkscape:current-layer="svg901"
   fit-margin-top="0"
   fit-margin-left="0"
   fit-margin-right="0"
   fit-margin-bottom="0" />
<g
   id="Слой_11"
   transform="translate(-758.07962,-2.309)">
</g>





<g
   id="Слой_1__x28_копия5_x29_"
   transform="translate(-758.07962,-2.309)">
	<path
   d="m 823.788,147.647 h -0.003 c -0.433,0 -0.788,-0.354 -0.788,-0.788 v -20.26 c 0,-0.433 0.354,-0.788 0.788,-0.788 h 0.003 c 0.433,0 0.788,0.354 0.788,0.788 v 20.26 c 0,0.433 -0.355,0.788 -0.788,0.788 z"
   id="path547"
   inkscape:connector-curvature="0"
   style="fill:#fccb02" />
	<path
   d="m 831.27,147.647 h -0.003 c -0.433,0 -0.788,-0.354 -0.788,-0.788 v -20.26 c 0,-0.433 0.354,-0.788 0.788,-0.788 h 0.003 c 0.433,0 0.788,0.354 0.788,0.788 v 20.26 c 0,0.433 -0.355,0.788 -0.788,0.788 z"
   id="path549"
   inkscape:connector-curvature="0"
   style="fill:#fccb02" />
	<path
   d="m 829.457,126.335 c 0,0 11.749,-1.397 31.39,-4.716 19.641,-3.319 34.02,-11.18 31.39,-16.77 -2.63,-5.59 -14.38,-7.337 -14.38,-7.337 0,0 16.659,-12.752 15.782,-20.612 -0.959,-8.594 -20.868,-6.638 -20.868,-6.638 0,0 15.987,-18.889 12.801,-26.028 -2.806,-6.289 -26.304,-0.524 -26.304,-0.524 0,0 5.436,-23.757 0,-27.95 -5.436,-4.193 -21.394,8.734 -21.394,8.734 0,0 -1.578,-10.481 -6.138,-17.294 -3.076,-4.596 -5.962,-4.891 -5.962,-4.891 v 125.249 z"
   id="path551"
   inkscape:connector-curvature="0"
   style="fill:#9ac320" />
	<g
   id="g557">
		<path
   d="m 878.96,102.923 c -3.627,0.456 -6.33,2.702 -6.037,5.015 0.293,2.313 3.471,3.82 7.099,3.363 3.627,-0.456 6.33,-2.702 6.037,-5.015 -0.294,-2.314 -3.472,-3.82 -7.099,-3.363 z"
   id="path553"
   inkscape:connector-curvature="0"
   style="fill:#e30613" />
		
			<ellipse
   transform="matrix(-0.1257,-0.9921,0.9921,-0.1257,881.5494,991.7642)"
   cx="877.77698"
   cy="107.444"
   rx="2.223"
   ry="3.484"
   id="ellipse555"
   style="fill:#3558a4" />
	</g>
	<g
   id="g563">
		<path
   d="m 875.255,77.982 c -3.442,1.228 -5.592,4.003 -4.803,6.199 0.789,2.196 4.22,2.98 7.661,1.752 3.442,-1.228 5.592,-4.003 4.803,-6.199 -0.789,-2.196 -4.219,-2.98 -7.661,-1.752 z"
   id="path559"
   inkscape:connector-curvature="0"
   style="fill:#e30613" />
		<path
   d="m 874.332,80.559 c -1.812,0.646 -2.943,2.107 -2.528,3.263 0.415,1.156 2.221,1.568 4.032,0.922 1.812,-0.646 2.943,-2.107 2.528,-3.263 -0.416,-1.155 -2.221,-1.568 -4.032,-0.922 z"
   id="path561"
   inkscape:connector-curvature="0"
   style="fill:#3558a4" />
	</g>
	<g
   id="g569">
		<path
   d="m 869.534,49.778 c -3.278,1.613 -5.095,4.615 -4.058,6.706 1.037,2.091 4.535,2.478 7.812,0.865 3.278,-1.613 5.095,-4.615 4.058,-6.706 -1.036,-2.09 -4.534,-2.478 -7.812,-0.865 z"
   id="path565"
   inkscape:connector-curvature="0"
   style="fill:#e30613" />
		<path
   d="m 868.913,52.444 c -1.725,0.849 -2.681,2.429 -2.136,3.53 0.545,1.101 2.387,1.304 4.112,0.455 1.725,-0.849 2.681,-2.429 2.136,-3.53 -0.546,-1.1 -2.387,-1.304 -4.112,-0.455 z"
   id="path567"
   inkscape:connector-curvature="0"
   style="fill:#3558a4" />
	</g>
	<g
   id="g575">
		<path
   d="m 846.772,24.933 c -2.108,2.976 -2.266,6.478 -0.353,7.822 1.913,1.345 5.172,0.022 7.28,-2.953 2.108,-2.975 2.266,-6.478 0.353,-7.822 -1.913,-1.345 -5.172,-0.023 -7.28,2.953 z"
   id="path571"
   inkscape:connector-curvature="0"
   style="fill:#e30613" />
		<path
   d="m 847.503,27.571 c -1.109,1.566 -1.193,3.409 -0.186,4.117 1.007,0.708 2.722,0.012 3.832,-1.554 1.109,-1.566 1.193,-3.409 0.186,-4.117 -1.007,-0.708 -2.723,-0.012 -3.832,1.554 z"
   id="path573"
   inkscape:connector-curvature="0"
   style="fill:#3558a4" />
	</g>
	<path
   d="m 822.296,126.335 c 0,0 -11.749,-1.397 -31.39,-4.716 -19.641,-3.319 -34.02,-11.18 -31.39,-16.77 2.63,-5.59 14.38,-7.337 14.38,-7.337 0,0 -16.659,-12.752 -15.783,-20.612 0.958,-8.594 20.868,-6.638 20.868,-6.638 0,0 -15.987,-18.889 -12.801,-26.028 2.806,-6.289 26.304,-0.524 26.304,-0.524 0,0 -5.436,-23.757 0,-27.95 5.436,-4.193 21.394,8.734 21.394,8.734 0,0 1.578,-10.481 6.138,-17.294 3.076,-4.596 5.962,-4.891 5.962,-4.891 v 125.249 z"
   id="path577"
   inkscape:connector-curvature="0"
   style="fill:#9ac320" />
	<path
   d="m 824.927,104.936 c 0,0 0.526,-7.599 -3.77,-6.987 -4.296,0.612 -6.138,11.442 -6.664,16.944 -0.526,5.503 2.017,10.481 6.225,11.267 4.208,0.786 4.209,-21.224 4.209,-21.224 z"
   id="path579"
   inkscape:connector-curvature="0"
   style="fill:#e30613" />
	<path
   d="m 829.526,104.936 c 0,0 -0.526,-7.599 3.77,-6.987 4.296,0.612 6.138,11.442 6.664,16.944 0.526,5.503 -2.017,10.481 -6.225,11.267 -4.208,0.786 -4.209,-21.224 -4.209,-21.224 z"
   id="path581"
   inkscape:connector-curvature="0"
   style="fill:#e30613" />
	<g
   id="g619">
		<g
   id="g593">
			<g
   id="g589">
				<path
   d="m 822.697,43.305 c -2.262,-0.832 -4.758,-1.021 -7.119,-0.54"
   id="path583"
   inkscape:connector-curvature="0"
   style="fill:#ffed00" />
				<g
   id="g587">
					<path
   d="m 823,41.782 c -2.125,-1.522 -6.053,-2.015 -8.163,-0.358 -1.167,0.916 -0.291,2.517 0.779,2.95 0.987,0.399 2.004,0.175 3.043,0.166 1.186,-0.011 2.365,0.21 3.55,0.165 1.636,-0.063 2.039,-2.03 0.791,-2.923 z"
   id="path585"
   inkscape:connector-curvature="0"
   style="fill:#ffed00" />
				</g>
			</g>
			<ellipse
   stroke-miterlimit="10"
   cx="815.74902"
   cy="43.185001"
   rx="2.017"
   ry="2.0090001"
   id="ellipse591"
   style="fill:#ffed00;stroke:#ffed00;stroke-miterlimit:10" />
		</g>
		<g
   id="g605">
			<g
   id="g601">
				<path
   d="m 823.889,42.31 c -1.573,-1.82 -3.664,-3.191 -5.964,-3.91"
   id="path595"
   inkscape:connector-curvature="0"
   style="fill:#ffed00" />
				<g
   id="g599">
					<path
   d="m 825.031,41.642 c -0.287,-1.428 -1.561,-2.503 -2.68,-3.328 -1.221,-0.9 -2.959,-2.007 -4.511,-1.411 -1.015,0.39 -1.564,1.446 -1.002,2.462 0.673,1.217 2.027,1.559 3.162,2.217 1.066,0.617 2.042,1.527 3.251,1.839 1.121,0.289 1.995,-0.708 1.78,-1.779 z"
   id="path597"
   inkscape:connector-curvature="0"
   style="fill:#ffed00" />
				</g>
			</g>
			<path
   stroke-miterlimit="10"
   d="m 819.634,39.824 c 0.54,-0.97 0.188,-2.193 -0.786,-2.731 -0.974,-0.538 -2.202,-0.187 -2.742,0.783 -0.54,0.97 -0.188,2.193 0.786,2.731 0.975,0.538 2.202,0.188 2.742,-0.783 z"
   id="path603"
   inkscape:connector-curvature="0"
   style="fill:#ffed00;stroke:#ffed00;stroke-miterlimit:10" />
		</g>
		<g
   id="g617">
			<g
   id="g613">
				<path
   d="m 825,41.773 c -0.252,-2.388 -1.187,-4.702 -2.666,-6.598"
   id="path607"
   inkscape:connector-curvature="0"
   style="fill:#ffed00" />
				<g
   id="g611">
					<path
   d="m 826.405,41.729 c 0.382,-1.471 0.046,-3.003 -0.501,-4.392 -0.577,-1.467 -1.223,-2.976 -2.841,-3.462 -1.125,-0.338 -2.117,0.574 -2.181,1.661 -0.075,1.283 0.775,2.265 1.321,3.361 0.522,1.048 0.8,2.205 1.435,3.193 0.688,1.073 2.425,0.955 2.767,-0.361 z"
   id="path609"
   inkscape:connector-curvature="0"
   style="fill:#ffed00" />
				</g>
			</g>
			<path
   stroke-miterlimit="10"
   d="m 822.924,37.317 c 0.999,-0.491 1.409,-1.696 0.915,-2.691 -0.493,-0.995 -1.702,-1.403 -2.701,-0.912 -0.999,0.491 -1.409,1.696 -0.915,2.691 0.493,0.995 1.703,1.403 2.701,0.912 z"
   id="path615"
   inkscape:connector-curvature="0"
   style="fill:#ffed00;stroke:#ffed00;stroke-miterlimit:10" />
		</g>
	</g>
	<path
   d="m 836.5,43.535 c 0,0 -4.91,-4.542 -9.703,-3.61 -4.793,0.932 -8.184,5.357 -7.599,14.091 0.584,8.734 4.91,29.929 5.378,35.403 0.468,5.474 -2.578,17.206 -4.793,21.195 -2.134,3.843 -3.156,11.296 0.935,16.187 4.092,4.891 9.703,3.028 11.925,1.397 2.222,-1.631 5.953,-6.232 4.209,-15.139 -1.403,-7.162 -7.248,-10.248 -8.067,-22.709 -0.818,-12.461 -2.806,-33.307 -1.871,-36.334 0.935,-3.028 2.806,-5.59 5.495,-5.823 2.689,-0.233 4.091,-4.658 4.091,-4.658 z"
   id="path621"
   inkscape:connector-curvature="0"
   style="fill:#fcea10" />
	<path
   d="m 836.15,45.02 c -0.263,0.087 -4.998,-2.533 -8.067,-2.358 -3.069,0.175 -5.086,0.611 -5.436,2.882 -0.35,2.271 0.789,4.192 3.507,3.843 2.718,-0.349 5.261,-2.184 8.33,-2.096 3.069,0.088 1.666,-2.271 1.666,-2.271 z"
   id="path623"
   inkscape:connector-curvature="0"
   style="fill:#ffffff" />
	<path
   d="m 836.588,43.185 c 0,0 -1.754,0.524 -2.543,2.184 -0.789,1.66 -1.052,2.97 -1.052,2.97 l 9.645,-0.349 c 0,-0.001 -2.718,-4.106 -6.05,-4.805 z"
   id="path625"
   inkscape:connector-curvature="0"
   style="fill:#fccb02" />
	<circle
   cx="826.59198"
   cy="45.631001"
   r="1.228"
   id="circle627"
   style="fill:#010202" />
	<g
   id="g633">
		<path
   d="m 772.793,102.923 c 3.627,0.456 6.33,2.702 6.037,5.015 -0.293,2.313 -3.471,3.82 -7.099,3.363 -3.627,-0.456 -6.33,-2.702 -6.037,-5.015 0.294,-2.314 3.472,-3.82 7.099,-3.363 z"
   id="path629"
   inkscape:connector-curvature="0"
   style="fill:#e30613" />
		
			<ellipse
   transform="matrix(0.1257,-0.9921,0.9921,0.1257,570.0717,861.769)"
   cx="773.97601"
   cy="107.444"
   rx="2.223"
   ry="3.484"
   id="ellipse631"
   style="fill:#3558a4" />
	</g>
	<g
   id="g639">
		<path
   d="m 776.497,77.982 c 3.442,1.228 5.592,4.003 4.803,6.199 -0.789,2.196 -4.219,2.98 -7.661,1.752 -3.442,-1.228 -5.592,-4.003 -4.803,-6.199 0.789,-2.196 4.22,-2.98 7.661,-1.752 z"
   id="path635"
   inkscape:connector-curvature="0"
   style="fill:#e30613" />
		<path
   d="m 777.421,80.559 c 1.812,0.646 2.943,2.107 2.528,3.263 -0.416,1.156 -2.221,1.568 -4.032,0.922 -1.812,-0.646 -2.943,-2.107 -2.528,-3.263 0.415,-1.155 2.221,-1.568 4.032,-0.922 z"
   id="path637"
   inkscape:connector-curvature="0"
   style="fill:#3558a4" />
	</g>
	<g
   id="g645">
		<path
   d="m 782.218,49.778 c 3.278,1.613 5.095,4.615 4.058,6.706 -1.037,2.091 -4.535,2.478 -7.813,0.865 -3.278,-1.613 -5.095,-4.615 -4.058,-6.706 1.038,-2.09 4.535,-2.478 7.813,-0.865 z"
   id="path641"
   inkscape:connector-curvature="0"
   style="fill:#e30613" />
		<path
   d="m 782.84,52.444 c 1.725,0.849 2.681,2.429 2.136,3.53 -0.545,1.101 -2.387,1.304 -4.112,0.455 -1.725,-0.849 -2.681,-2.429 -2.136,-3.53 0.545,-1.1 2.386,-1.304 4.112,-0.455 z"
   id="path643"
   inkscape:connector-curvature="0"
   style="fill:#3558a4" />
	</g>
	<g
   id="g651">
		<path
   d="m 804.981,24.933 c 2.108,2.976 2.266,6.478 0.353,7.822 -1.913,1.345 -5.172,0.022 -7.28,-2.953 -2.108,-2.975 -2.266,-6.478 -0.353,-7.822 1.913,-1.344 5.172,-0.023 7.28,2.953 z"
   id="path647"
   inkscape:connector-curvature="0"
   style="fill:#e30613" />
		<path
   d="m 804.25,27.571 c 1.109,1.566 1.193,3.409 0.186,4.117 -1.007,0.708 -2.722,0.012 -3.832,-1.554 -1.109,-1.566 -1.193,-3.409 -0.186,-4.117 1.007,-0.708 2.723,-0.012 3.832,1.554 z"
   id="path649"
   inkscape:connector-curvature="0"
   style="fill:#3558a4" />
	</g>
	<g
   id="g657">
		<ellipse
   transform="matrix(1,-0.0069,0.0069,1,-0.1002,5.682)"
   cx="826.06799"
   cy="17.410999"
   rx="4.2389998"
   ry="6.5939999"
   id="ellipse653"
   style="fill:#e30613" />
		<ellipse
   transform="matrix(1,-0.0069,0.0069,1,-0.1121,5.6786)"
   cx="825.96399"
   cy="19.146999"
   rx="2.2309999"
   ry="3.471"
   id="ellipse655"
   style="fill:#3558a4" />
	</g>
</g>


</svg>