<svg xmlns="http://www.w3.org/2000/svg" width="150" height="150" viewBox="0 0 150 150"><path fill="#428ACC" stroke="#575756" stroke-miterlimit="10" d="M5.716 57.283c2.454-6.901 27.3-14.999 27.3-14.999s2.661 11.978 9.054 15.931c4.563 2.822 14.762 8.353 25.53 2.67 9.16-4.835 11.784-13.866 11.886-18.992.152-7.7-10.609-19.311-10.609-19.311S91.117 4.359 99.879 5.551c9.191 1.25 21.949 21.399 16.697 33.132-3.074 6.868-16.88 6.066-21.442 12.292-2.847 3.885-4.609 11.982-.372 19.01 1.955 3.243 7.949 9.155 16.35 7.451 7.662-1.554 13.189-16.268 20.596-15.047 6.852 1.13 15.758 15.7 12.798 21.117-4.432 8.111-30.427 8.798-32.984 16.699-1.537 4.751 11.549 6.482 14.21 19.612.991 4.889-5.228 15.544-11.939 20.157-5.99 4.117-20.134 6.034-27.304-2.2-7.114-8.17-6.501-17.239-10.828-17.867-8.379-1.216-20.45 17.599-28.824 17.159-22.408-1.177-49.835-55.277-41.121-79.783z"/></svg>