<svg xmlns="http://www.w3.org/2000/svg" width="150" height="150" viewBox="0 0 150 150"><path fill="#3C3C3B" d="M24.981 21.964h101.218v9.202H24.981zm0 31.927h101.218v9.202H24.981zm0 32.066h101.218v9.202H24.981zm0 32.067h101.218v9.202H24.981z"/><path fill="#683D14" d="M44.92 36.472s-1.378 5.011-5.717 5.011c-4.339 0-5.717-5.011-5.717-5.011V17.483s1.64-4.721 5.717-4.721c3.954 0 5.717 4.721 5.717 4.721v18.989zm32.902 31.369s-1.378 5.011-5.717 5.011c-4.339 0-5.717-5.011-5.717-5.011V48.853s1.64-4.721 5.717-4.721c3.954 0 5.717 4.721 5.717 4.721v18.988zm-16.73-31.369s-1.378 5.011-5.717 5.011c-4.339 0-5.717-5.011-5.717-5.011V17.483s1.64-4.721 5.717-4.721c3.954 0 5.717 4.721 5.717 4.721v18.989zM44.92 99.908s-1.378 5.011-5.717 5.011c-4.339 0-5.717-5.011-5.717-5.011V80.919s1.64-4.721 5.717-4.721c3.954 0 5.717 4.721 5.717 4.721v18.989zm16.172 0s-1.378 5.011-5.717 5.011c-4.339 0-5.717-5.011-5.717-5.011V80.919s1.64-4.721 5.717-4.721c3.954 0 5.717 4.721 5.717 4.721v18.989zm16.73 0s-1.378 5.011-5.717 5.011c-4.339 0-5.717-5.011-5.717-5.011V80.919s1.64-4.721 5.717-4.721c3.954 0 5.717 4.721 5.717 4.721v18.989zm16.731 0s-1.378 5.011-5.717 5.011c-4.339 0-5.717-5.011-5.717-5.011V80.919s1.64-4.721 5.717-4.721c3.954 0 5.717 4.721 5.717 4.721v18.989zm0 32.066s-1.378 5.011-5.717 5.011c-4.339 0-5.717-5.011-5.717-5.011v-18.989s1.64-4.721 5.717-4.721c3.954 0 5.717 4.721 5.717 4.721v18.989zm16.172 0s-1.378 5.011-5.717 5.011c-4.339 0-5.717-5.011-5.717-5.011v-18.989s1.64-4.721 5.717-4.721c3.954 0 5.717 4.721 5.717 4.721v18.989z"/><path fill="#432918" d="M141.095 137.682s-1.977 6.703-8.205 6.703c-6.227 0-8.205-6.703-8.205-6.703V11.09s2.349-6.146 8.2-6.146c5.674 0 8.209 6.146 8.209 6.146v126.592zm-115.438 0s-1.977 6.703-8.205 6.703c-6.227 0-8.205-6.703-8.205-6.703V11.09s2.349-6.146 8.2-6.146c5.674 0 8.209 6.146 8.209 6.146v126.592z"/></svg>