<svg xmlns="http://www.w3.org/2000/svg" width="150" height="150" viewBox="0 0 150 150"><g fill="#E30613"><path d="M42.992 36.535l-31.861-.011h-.016c-2.709 0-4.916 2.244-4.908 4.953l.107 30.678c.01 2.7 2.202 4.943 4.895 4.943h.018c1.523 0 2.882-.762 3.775-1.86l1.933 29.859c.17 2.669 2.388 4.674 5.064 4.674h10.09c2.675 0 4.887-2.034 5.061-4.701l1.929-29.911c.897 1.162 2.251 1.939 3.78 1.939h.018c2.696 0 4.884-2.282 4.902-4.964l.097-30.623c.01-2.684-2.178-4.976-4.884-4.976z"/><circle cx="27.047" cy="19.693" r="13.569"/></g><g fill="#312783"><path d="M101.807 22.25l-21.241-.007h-.011c-1.806 0-3.277 1.496-3.272 3.302l.071 20.452c.007 1.8 1.468 3.295 3.263 3.295h.012c1.015 0 1.921-.508 2.517-1.24l1.289 19.906c.113 1.779 1.592 3.116 3.376 3.116h6.727c1.783 0 3.258-1.356 3.374-3.134l1.286-19.941c.598.775 1.501 1.293 2.52 1.293h.012c1.797 0 3.256-1.521 3.268-3.309l.065-20.415c.007-1.79-1.452-3.318-3.256-3.318z"/><circle cx="91.177" cy="11.022" r="9.046"/></g><g fill="#E30613"><path d="M138.977 73.663l-31.861-.011h-.017c-2.709 0-4.916 2.244-4.908 4.953l.106 30.678c.011 2.7 2.202 4.942 4.895 4.942h.018c1.522 0 2.882-.762 3.775-1.86l1.934 29.859c.17 2.669 2.388 4.674 5.064 4.674h10.09c2.675 0 4.887-2.034 5.061-4.701l1.929-29.911c.897 1.162 2.252 1.939 3.78 1.939h.018c2.695 0 4.884-2.282 4.902-4.964l.098-30.622c.011-2.684-2.178-4.976-4.884-4.976z"/><circle cx="123.032" cy="56.821" r="13.569"/></g><g fill="#312783"><path d="M72.4 96.001l-21.241-.007h-.011c-1.806 0-3.277 1.496-3.272 3.302l.071 20.452c.007 1.8 1.468 3.295 3.263 3.295h.012c1.015 0 1.921-.508 2.517-1.24l1.289 19.906c.113 1.779 1.592 3.116 3.376 3.116h6.727c1.783 0 3.258-1.356 3.374-3.134l1.286-19.941c.598.775 1.501 1.293 2.52 1.293h.012c1.797 0 3.256-1.521 3.268-3.309l.065-20.415c.006-1.79-1.453-3.318-3.256-3.318z"/><circle cx="61.769" cy="84.773" r="9.046"/></g></svg>