<svg xmlns="http://www.w3.org/2000/svg" width="150" height="150" viewBox="0 0 150 150"><path fill="#E30D18" stroke="#010202" stroke-miterlimit="10" d="M70.162 27.164S53.424 5.851 40.805 4.209C9.519.139-19.283 57.255 35.403 89.818c39.699 23.639 73.174-14.945 72.034-38.835-.87-18.254-37.275-23.819-37.275-23.819z"/><path fill="#BE1823" stroke="#010202" stroke-miterlimit="10" d="M81.852 71.975c-.013 2.228 8.901-12.877 8.742-18.306-.112-3.821-4.125-18.048-7.014-15.33-2.174 2.046 3.946 8.872 4.044 14.099.169 9.001-5.767 18.661-5.772 19.537z"/><path fill="#056734" stroke="#010202" stroke-miterlimit="10" d="M83.924 41.964c-1.247 2.432-9.834-.313-13.798-3.898-3.475-3.143-2.46-7.052-2.46-7.052l14.798-.46c0-.001 6.792 1.007 1.46 11.41z"/><path fill="#BE1823" stroke="#010202" stroke-miterlimit="10" d="M32.944 45.413c-1.641-4.763 6.61-14.197 10.778-17.027 3.126-2.122 15.227-3.22 15.123-2.187-.225 2.225-9.911 2.607-13.746 5.367-8.044 5.789-11.768 14.971-12.155 13.847z"/><path fill="#009741" stroke="#010202" stroke-miterlimit="10" d="M67.666 31.013s-4.503 2.425-8.974-.863c-5.901-4.339-5.542-11.306-5.542-11.306s2.688 2.942 3.648 3.64c2.333 1.697 4.463 1.494 4.463 1.494s-3.26-5.157-3.092-7.081c.358-4.089 4.382-9.034 4.382-9.034s1.206 5.59 1.801 7.202c.451 1.223 2.384 4.135 2.384 4.135s2.971-1.593 4.018-1.401c3.178.583 3.68 2 3.68 2s3.976-3.097 6.712-2.732c4.396.587 6.11 3.484 6.11 3.484s-4.473 1.541-5.337 2.467c-2.275 2.441-1.568 3.407-1.568 3.407s5.008 1.316 6.588 1.398c3.405.177 9.168-2.33 9.168-2.33s-3.9 6.457-5.405 7.667c-1.019.82-4.582 1.873-4.582 1.873s-2.209-4.739-3.722-3.709c-2.301 1.566-2.464 4.224-7.947 4.42-4.274.156-6.785-4.731-6.785-4.731z"/><path fill="#FFF" d="M82.075 9.285L128.5 38.67l-52.99 83.716L29.085 93z"/><path fill="#E30D18" stroke="#010202" stroke-miterlimit="10" d="M84.421 75.782S57.676 80.158 50.15 90.418c-18.661 25.439 17.467 78.226 72.376 46.04 39.861-23.365 22.219-71.303.744-81.833-16.408-8.044-38.849 21.157-38.849 21.157z"/><path fill="#BE1823" stroke="#010202" stroke-miterlimit="10" d="M129.311 87.166c1.945 1.086-6.984-14.01-11.816-16.491-3.4-1.746-17.798-5.096-16.811-1.254.743 2.892 9.675.825 14.301 3.262 7.964 4.195 13.561 14.056 14.326 14.483z"/><path fill="#056734" stroke="#010202" stroke-miterlimit="10" d="M104.025 70.87c1.529 2.266-5.019 8.462-10.072 10.204-4.429 1.527-7.364-1.248-7.364-1.248l6.738-13.184c-.001 0 4.159-5.463 10.698 4.228z"/><path fill="#BE1823" stroke="#010202" stroke-miterlimit="10" d="M82.446 117.186c-4.964-.861-9.246-12.64-9.713-17.656-.35-3.762 4.527-14.891 5.381-14.301 1.84 1.271-2.5 9.939-1.932 14.629 1.19 9.838 7.435 17.531 6.264 17.328z"/><path fill="#009741" stroke="#010202" stroke-miterlimit="10" d="M86.588 79.826s-.048 5.114-5.086 7.444c-6.648 3.075-12.577-.601-12.577-.601s3.873-.935 4.949-1.439c2.612-1.225 3.462-3.188 3.462-3.188s-6.09.367-7.694-.709c-3.409-2.287-5.798-8.197-5.798-8.197s5.478 1.642 7.177 1.898c1.289.195 4.773-.093 4.773-.093s.038-3.371.711-4.195c2.044-2.502 3.527-2.258 3.527-2.258s-.794-4.977.846-7.197c2.636-3.567 6-3.67 6-3.67s-.809 4.661-.414 5.865c1.04 3.171 2.228 3.018 2.228 3.018s3.57-3.752 4.404-5.096c1.798-2.897 2.383-9.154 2.383-9.154s3.774 6.532 4.108 8.433c.227 1.289-.57 4.917-.57 4.917s-5.217-.352-5.045 1.47c.261 2.77 2.511 4.197.037 9.093-1.928 3.817-7.421 3.659-7.421 3.659z"/><path fill="#FFF" d="M29.123 90.653L78.83 63.308l44.014 80.01-49.709 27.345z"/></svg>