<svg xmlns="http://www.w3.org/2000/svg" width="150" height="150" viewBox="0 0 150 150"><path fill="#FDEB1B" stroke="#010202" stroke-miterlimit="10" d="M82.451 44.108s5.764-6.404 6.404-10.807c.811-5.577-1.121-12.968-1.121-12.968s-10.006 3.122-13.929 7.284c-5.446 5.779-5.043 16.29-5.043 16.29s-1.841 9.726 4.483 16.45c5.209 5.538 14.169 5.603 14.169 5.603s2.095-6.884 2.081-11.527c-.019-6.74-7.044-10.325-7.044-10.325z"/><path fill="#2D2D7E" stroke="#010202" stroke-miterlimit="10" d="M52.312 71.645s-9.728.356-12.728-.72c-5.523-1.981-7.326-8.307-7.326-8.307l14.35-.579 5.704 9.606zM21.213 21.666S30.939 3.083 51.712 3.083c14.169 0 23.655 7.084 23.655 7.084s-11.164 2.266-13.208 5.163c-2.268 3.215-.48 15.73-.48 15.73l-40.466-9.394z"/><path fill="#009741" stroke="#010202" stroke-miterlimit="10" d="M3.802 44.508S11.356 15.2 39.824 15.93c28.097.72 28.938 27.977 28.938 27.977S63.335 66.914 37.543 65.52C15.329 64.32 3.802 44.508 3.802 44.508z"/><path fill="#E30D18" stroke="#010202" stroke-miterlimit="10" d="M32.02 41.506c-.008-15.399-12.392-19.841-12.392-19.841s-6.72 4.397-10.663 10.775c-4.308 6.97-6.003 12.548-6.003 12.548s3.741 5.634 8.007 8.934c6.147 4.755 8.592 6.237 8.592 6.237s12.464-7.966 12.459-18.653z"/><path fill="#FFF" stroke="#010202" stroke-miterlimit="10" d="M13.288 37.304c-.231-2.31.72-5.764 3.682-5.764 2.882 0 3.516 3.25 3.522 4.723.013 3.042-.64 5.684-3.002 5.684-2.361-.001-3.882-1.441-4.202-4.643z"/><path fill="#010202" stroke="#010202" stroke-miterlimit="10" d="M17.731 33.822c1.119-.006 2.762.92 2.762 3.522 0 2.522-1.42 4.603-2.762 4.603-2.442 0-3.282-1.034-3.122-4.063.168-3.182 1.841-4.056 3.122-4.062z"/><path fill="none" stroke="#010202" stroke-miterlimit="10" d="M20.282 45.799s-3.525 4.398-5.283 5.013c-1.959.685-8.072-.75-8.072-.75s6.299 1.323 8.072.75c1.732-.56 5.283-5.013 5.283-5.013z"/><g fill="#010202" stroke="#010202" stroke-miterlimit="10"><path d="M138.201 117.726s5.764-6.404 6.404-10.807c.811-5.577-1.121-12.968-1.121-12.968s-10.006 3.122-13.929 7.284c-5.446 5.779-5.043 16.29-5.043 16.29s-1.841 9.726 4.483 16.45c5.209 5.538 14.169 5.603 14.169 5.603s2.095-6.884 2.081-11.527c-.019-6.739-7.044-10.325-7.044-10.325zm-30.139 27.537s-9.728.356-12.728-.72c-5.523-1.981-7.326-8.307-7.326-8.307l14.35-.579 5.704 9.606zM76.963 95.284s9.726-18.583 30.499-18.583c14.169 0 23.655 7.084 23.655 7.084s-11.164 2.266-13.208 5.163c-2.268 3.215-.48 15.73-.48 15.73l-40.466-9.394z"/><path d="M59.552 118.127s7.554-29.308 36.022-28.578c28.097.72 28.938 27.977 28.938 27.977s-5.427 23.007-31.219 21.613c-22.214-1.2-33.741-21.012-33.741-21.012z"/><path d="M87.77 115.125c-.008-15.399-12.392-19.841-12.392-19.841s-6.72 4.397-10.663 10.775c-4.309 6.969-6.004 12.548-6.004 12.548s3.741 5.634 8.007 8.934c6.147 4.755 8.592 6.237 8.592 6.237s12.465-7.967 12.46-18.653z"/></g></svg>