<?xml version="1.0" encoding="utf-8"?>
<!-- Generator: Adobe Illustrator 17.0.0, SVG Export Plug-In . SVG Version: 6.00 Build 0)  -->
<!DOCTYPE svg PUBLIC "-//W3C//DTD SVG 1.1//EN" "http://www.w3.org/Graphics/SVG/1.1/DTD/svg11.dtd">
<svg version="1.1" xmlns="http://www.w3.org/2000/svg" xmlns:xlink="http://www.w3.org/1999/xlink" x="0px" y="0px" width="150px"
	 height="150px" viewBox="0 0 150 150" enable-background="new 0 0 150 150" xml:space="preserve">
<g id="Слой_1__x28_копия_x29_">
	<g>
		<g>
			<g id="Слой_2_1_">
				<path fill="#E30D18" stroke="#010202" stroke-miterlimit="10" d="M70.162,27.164c0,0-16.738-21.313-29.357-22.955
					c-31.286-4.07-60.088,53.046-5.402,85.609c39.699,23.639,73.174-14.945,72.034-38.835
					C106.567,32.729,70.162,27.164,70.162,27.164z"/>
			</g>
			<g id="Слой_6_1_">
				<path fill="#BE1823" stroke="#010202" stroke-miterlimit="10" d="M81.852,71.975c-0.013,2.228,8.901-12.877,8.742-18.306
					c-0.112-3.821-4.125-18.048-7.014-15.33c-2.174,2.046,3.946,8.872,4.044,14.099C87.793,61.439,81.857,71.099,81.852,71.975z"/>
			</g>
			<g id="Слой_4_1_">
				<path fill="#056734" stroke="#010202" stroke-miterlimit="10" d="M83.924,41.964c-1.247,2.432-9.834-0.313-13.798-3.898
					c-3.475-3.143-2.46-7.052-2.46-7.052l14.798-0.46C82.464,30.553,89.256,31.561,83.924,41.964z"/>
			</g>
			<g id="Слой_5_1_">
				<path fill="#BE1823" stroke="#010202" stroke-miterlimit="10" d="M32.944,45.413c-1.641-4.763,6.61-14.197,10.778-17.027
					c3.126-2.122,15.227-3.22,15.123-2.187c-0.225,2.225-9.911,2.607-13.746,5.367C37.055,37.355,33.331,46.537,32.944,45.413z"/>
			</g>
			<g id="Слой_3_1_">
				<path fill="#009741" stroke="#010202" stroke-miterlimit="10" d="M67.666,31.013c0,0-4.503,2.425-8.974-0.863
					c-5.901-4.339-5.542-11.306-5.542-11.306s2.688,2.942,3.648,3.64c2.333,1.697,4.463,1.494,4.463,1.494s-3.26-5.157-3.092-7.081
					c0.358-4.089,4.382-9.034,4.382-9.034s1.206,5.59,1.801,7.202c0.451,1.223,2.384,4.135,2.384,4.135s2.971-1.593,4.018-1.401
					c3.178,0.583,3.68,2,3.68,2s3.976-3.097,6.712-2.732c4.396,0.587,6.11,3.484,6.11,3.484s-4.473,1.541-5.337,2.467
					c-2.275,2.441-1.568,3.407-1.568,3.407s5.008,1.316,6.588,1.398c3.405,0.177,9.168-2.33,9.168-2.33s-3.9,6.457-5.405,7.667
					c-1.019,0.82-4.582,1.873-4.582,1.873s-2.209-4.739-3.722-3.709c-2.301,1.566-2.464,4.224-7.947,4.42
					C70.177,35.9,67.666,31.013,67.666,31.013z"/>
			</g>
		</g>
		
			<rect x="51.32" y="16.3" transform="matrix(0.8449 0.5348 -0.5348 0.8449 47.4322 -31.9333)" fill="#FFFFFF" width="54.946" height="99.084"/>
	</g>
</g>
<g id="Слой_1">
	<g>
		<g>
			<g id="Слой_2_2_">
				<path fill="#E30D18" stroke="#010202" stroke-miterlimit="10" d="M84.421,75.782c0,0-26.745,4.376-34.271,14.636
					c-18.661,25.439,17.467,78.226,72.376,46.04c39.861-23.365,22.219-71.303,0.744-81.833
					C106.862,46.581,84.421,75.782,84.421,75.782z"/>
			</g>
			<g id="Слой_6_2_">
				<path fill="#BE1823" stroke="#010202" stroke-miterlimit="10" d="M129.311,87.166c1.945,1.086-6.984-14.01-11.816-16.491
					c-3.4-1.746-17.798-5.096-16.811-1.254c0.743,2.892,9.675,0.825,14.301,3.262C122.949,76.878,128.546,86.739,129.311,87.166z"/>
			</g>
			<g id="Слой_4_2_">
				<path fill="#056734" stroke="#010202" stroke-miterlimit="10" d="M104.025,70.87c1.529,2.266-5.019,8.462-10.072,10.204
					c-4.429,1.527-7.364-1.248-7.364-1.248l6.738-13.184C93.326,66.642,97.486,61.179,104.025,70.87z"/>
			</g>
			<g id="Слой_5_2_">
				<path fill="#BE1823" stroke="#010202" stroke-miterlimit="10" d="M82.446,117.186c-4.964-0.861-9.246-12.64-9.713-17.656
					c-0.35-3.762,4.527-14.891,5.381-14.301c1.84,1.271-2.5,9.939-1.932,14.629C77.372,109.696,83.617,117.389,82.446,117.186z"/>
			</g>
			<g id="Слой_3_2_">
				<path fill="#009741" stroke="#010202" stroke-miterlimit="10" d="M86.588,79.826c0,0-0.048,5.114-5.086,7.444
					c-6.648,3.075-12.577-0.601-12.577-0.601s3.873-0.935,4.949-1.439c2.612-1.225,3.462-3.188,3.462-3.188s-6.09,0.367-7.694-0.709
					c-3.409-2.287-5.798-8.197-5.798-8.197s5.478,1.642,7.177,1.898c1.289,0.195,4.773-0.093,4.773-0.093s0.038-3.371,0.711-4.195
					c2.044-2.502,3.527-2.258,3.527-2.258s-0.794-4.977,0.846-7.197c2.636-3.567,6-3.67,6-3.67s-0.809,4.661-0.414,5.865
					c1.04,3.171,2.228,3.018,2.228,3.018s3.57-3.752,4.404-5.096c1.798-2.897,2.383-9.154,2.383-9.154s3.774,6.532,4.108,8.433
					c0.227,1.289-0.57,4.917-0.57,4.917s-5.217-0.352-5.045,1.47c0.261,2.77,2.511,4.197,0.037,9.093
					C92.081,79.984,86.588,79.826,86.588,79.826z"/>
			</g>
		</g>
		
			<rect x="47.615" y="71.326" transform="matrix(0.8762 -0.482 0.482 0.8762 -46.9768 51.1075)" fill="#FFFFFF" width="56.732" height="91.315"/>
	</g>
	<g>
	</g>
	<g>
	</g>
	<g>
	</g>
	<g>
	</g>
	<g>
	</g>
	<g>
	</g>
</g>
</svg>
