<svg xmlns="http://www.w3.org/2000/svg" width="150" height="150" viewBox="0 0 150 150"><path fill="#FFF" stroke="#3F7FC1" stroke-miterlimit="10" d="M73 59.066C73 66.762 66.732 73 59 73H17C9.268 73 3 66.762 3 59.066V17.265C3 9.569 9.268 3.331 17 3.331h42c7.732 0 14 6.238 14 13.934v41.801zm73.796 73.669c0 7.695-6.268 13.934-14 13.934h-42c-7.732 0-14-6.238-14-13.934V90.934c0-7.695 6.268-13.934 14-13.934h42c7.732 0 14 6.238 14 13.934v41.801zm.291-73.669c0 7.695-6.268 13.934-14 13.934h-42c-7.732 0-14-6.238-14-13.934V17.265c0-7.695 6.268-13.934 14-13.934h42c7.732 0 14 6.238 14 13.934v41.801zM73 132.735c0 7.695-6.268 13.934-14 13.934H17c-7.732 0-14-6.238-14-13.934V90.934C3 83.238 9.268 77 17 77h42c7.732 0 14 6.238 14 13.934v41.801z"/><g stroke="#1D1D1B" stroke-miterlimit="10"><ellipse fill="#4D4B4B" cx="38.316" cy="44.752" rx="4.735" ry="18.66"/><circle fill="#1D1D1B" cx="38.316" cy="23.435" r="2.658"/><path fill="#87FF48" d="M34.903 32.077S23.799 10.354 12.101 11.398c-3.69.329 3.307 14.565 2.607 18.202-.783 4.072-5.598 10.807-1.981 12.834 4.339 2.432 21.15-3.463 21.15-3.463l1.026-6.894z"/><path fill="#87FF48" d="M33.877 38.972s-5.544 1.958-10.239 3.113c-4.261 1.048-6.652 1.861-8.509 3.474-1.392 1.209-1.773 2.648-1.928 4.485-.317 3.76 1.117 3.011.988 6.946-.104 3.186-2.193 2.246-.926 6.371.758 2.468 6.082 4.488 8.481 3.534 4.297-1.709 12.133-13.961 12.133-13.961s-.294-5.103-.296-6.806c-.001-1.792.296-7.156.296-7.156zm8.058-6.895s11.104-21.723 22.802-20.679c3.69.329-3.307 14.565-2.607 18.202.783 4.072 5.598 10.807 1.981 12.834-4.339 2.432-21.15-3.463-21.15-3.463l-1.026-6.894z"/><path fill="#87FF48" d="M42.961 38.972s5.544 1.958 10.239 3.113c4.261 1.048 6.652 1.861 8.509 3.474 1.392 1.209 1.773 2.648 1.928 4.485.317 3.76-1.117 3.011-.988 6.946.104 3.186 2.193 2.246.926 6.371-.758 2.468-6.082 4.488-8.481 3.534-4.297-1.711-12.504-14.098-12.504-14.098s.448-5.02.45-6.723c.001-1.79-.079-7.102-.079-7.102z"/><path fill="none" d="M27.558 9.414s3.374-.448 6.319 3.76c3.07 4.387 3.07 7.986 3.07 7.986"/><circle fill="#1D1D1B" cx="26.14" cy="9.4" r="1.419"/><path fill="none" d="M49.15 9.414s-3.374-.448-6.319 3.76c-3.07 4.387-3.07 7.986-3.07 7.986"/><circle fill="#1D1D1B" cx="50.568" cy="9.4" r="1.419"/></g><g stroke="#1D1D1B" stroke-miterlimit="10"><ellipse fill="#4D4B4B" cx="111.65" cy="44.36" rx="4.735" ry="18.66"/><circle fill="#1D1D1B" cx="111.65" cy="23.042" r="2.658"/><path fill="#F7F4C0" d="M108.236 31.684S97.132 9.961 85.434 11.005c-3.69.329 3.307 14.565 2.607 18.202-.783 4.072-5.598 10.807-1.981 12.834 4.339 2.432 21.15-3.463 21.15-3.463l1.026-6.894z"/><path fill="#F7F4C0" d="M107.211 38.579s-5.544 1.958-10.239 3.113c-4.261 1.048-6.652 1.861-8.509 3.474-1.392 1.209-1.773 2.648-1.928 4.485-.317 3.76 1.117 3.011.988 6.946-.104 3.186-2.193 2.246-.926 6.371.758 2.468 6.082 4.488 8.481 3.534 4.297-1.709 12.133-13.961 12.133-13.961s-.294-5.103-.296-6.806c-.002-1.791.296-7.156.296-7.156zm8.058-6.895s11.104-21.723 22.802-20.679c3.69.329-3.307 14.565-2.607 18.202.783 4.072 5.598 10.807 1.981 12.834-4.339 2.432-21.15-3.463-21.15-3.463l-1.026-6.894z"/><path fill="#F7F4C0" d="M116.294 38.579s5.544 1.958 10.239 3.113c4.261 1.048 6.652 1.861 8.509 3.474 1.392 1.209 1.773 2.648 1.928 4.485.317 3.76-1.117 3.011-.988 6.946.104 3.186 2.193 2.246.926 6.371-.758 2.468-6.082 4.488-8.481 3.534-4.297-1.709-12.504-14.096-12.504-14.096s.448-5.02.45-6.723c.001-1.791-.079-7.104-.079-7.104z"/><path fill="none" d="M100.892 9.021s3.374-.448 6.319 3.76c3.07 4.387 3.07 7.986 3.07 7.986"/><circle fill="#1D1D1B" cx="99.473" cy="9.007" r="1.419"/><path fill="none" d="M122.483 9.021s-3.374-.448-6.319 3.76c-3.07 4.387-3.07 7.986-3.07 7.986"/><circle fill="#1D1D1B" cx="123.902" cy="9.007" r="1.419"/></g><g stroke="#1D1D1B" stroke-miterlimit="10"><ellipse fill="#4D4B4B" cx="111.547" cy="117.86" rx="4.735" ry="18.66"/><circle fill="#1D1D1B" cx="111.547" cy="96.542" r="2.658"/><path fill="#FF617C" d="M108.133 105.184S97.029 83.461 85.331 84.505c-3.69.329 3.307 14.565 2.607 18.202-.783 4.072-5.598 10.807-1.981 12.834 4.339 2.432 21.15-3.463 21.15-3.463l1.026-6.894z"/><path fill="#FF617C" d="M107.108 112.079s-5.544 1.958-10.239 3.113c-4.261 1.048-6.652 1.861-8.509 3.474-1.392 1.209-1.773 2.648-1.928 4.485-.317 3.76 1.117 3.011.988 6.946-.104 3.186-2.193 2.246-.926 6.371.758 2.468 6.082 4.488 8.481 3.534 4.297-1.709 12.133-13.961 12.133-13.961s-.294-5.103-.296-6.806c-.002-1.791.296-7.156.296-7.156zm8.058-6.895s11.104-21.723 22.802-20.679c3.69.329-3.307 14.565-2.607 18.202.783 4.072 5.598 10.807 1.981 12.834-4.339 2.432-21.15-3.463-21.15-3.463l-1.026-6.894z"/><path fill="#FF617C" d="M116.191 112.079s5.544 1.958 10.239 3.113c4.261 1.048 6.652 1.861 8.509 3.474 1.392 1.209 1.773 2.648 1.928 4.485.317 3.76-1.117 3.011-.988 6.946.104 3.186 2.193 2.246.926 6.371-.758 2.468-6.082 4.488-8.481 3.534-4.297-1.709-12.504-14.096-12.504-14.096s.448-5.02.45-6.723c.002-1.791-.079-7.104-.079-7.104z"/><path fill="none" d="M100.789 82.521s3.374-.448 6.319 3.76c3.07 4.387 3.07 7.986 3.07 7.986"/><circle fill="#1D1D1B" cx="99.37" cy="82.507" r="1.419"/><path fill="none" d="M122.38 82.521s-3.374-.448-6.319 3.76c-3.07 4.387-3.07 7.986-3.07 7.986"/><circle fill="#1D1D1B" cx="123.799" cy="82.507" r="1.419"/></g><g stroke="#1D1D1B" stroke-miterlimit="10"><ellipse fill="#4D4B4B" cx="37.897" cy="118.029" rx="4.735" ry="18.66"/><circle fill="#1D1D1B" cx="37.897" cy="96.711" r="2.658"/><path fill="#F7F4C0" d="M34.484 105.353S23.38 83.63 11.682 84.674c-3.69.329 3.307 14.565 2.607 18.202-.783 4.072-5.598 10.807-1.981 12.834 4.339 2.432 21.15-3.463 21.15-3.463l1.026-6.894z"/><path fill="#F7F4C0" d="M33.458 112.248s-5.544 1.958-10.239 3.113c-4.261 1.048-6.652 1.861-8.509 3.474-1.392 1.209-1.773 2.648-1.928 4.485-.317 3.76 1.117 3.011.988 6.946-.104 3.186-2.193 2.246-.926 6.371.758 2.468 6.082 4.488 8.481 3.534 4.297-1.709 12.133-13.961 12.133-13.961s-.294-5.103-.296-6.806c-.001-1.791.296-7.156.296-7.156zm8.058-6.895S52.62 83.63 64.318 84.674c3.69.329-3.307 14.565-2.607 18.202.783 4.072 5.598 10.807 1.981 12.834-4.339 2.432-21.15-3.463-21.15-3.463l-1.026-6.894z"/><path fill="#F7F4C0" d="M42.542 112.248s5.544 1.958 10.239 3.113c4.261 1.048 6.652 1.861 8.509 3.474 1.392 1.209 1.773 2.648 1.928 4.485.317 3.76-1.117 3.011-.988 6.946.104 3.186 2.193 2.246.926 6.371-.758 2.468-6.082 4.488-8.481 3.534-4.297-1.709-12.504-14.096-12.504-14.096s.448-5.02.45-6.723c.001-1.791-.079-7.104-.079-7.104z"/><path fill="none" d="M27.139 82.69s3.374-.448 6.319 3.76c3.07 4.387 3.07 7.986 3.07 7.986"/><circle fill="#1D1D1B" cx="25.721" cy="82.676" r="1.419"/><path fill="none" d="M48.731 82.69s-3.374-.448-6.319 3.76c-3.07 4.387-3.07 7.986-3.07 7.986"/><circle fill="#1D1D1B" cx="50.149" cy="82.676" r="1.419"/></g></svg>