<svg xmlns="http://www.w3.org/2000/svg" viewBox="0 0 150 150"><path fill="#EB5C33" d="M60 56.4c2.4 4.5 5.1 8.7 7.3 12 2.3 3.5 5.4 11.1 8.5 12.8l17.3-.6c-1.5-19.1 19-35.1 17.3-54.8-.1-1.6-.6-3-1.2-4 8.8.7 28.4-10.8 15.1-14.1-7.4-1.8-19.5 2.8-22.5 10.4-6.4-.5-14.9 1.8-20.1 1.3-3.7-.4-8-1.2-12.2-1.4-2.1-5.5-8-17.5-14.9-13.5-10.7 6.2-2.2 14.6 2.1 21.7-9.6 4-17.1 8.9-21.8 17.9-8.5 16.2-4 38.4-14 53.1C37.8 93.1 52.7 74.5 60 56.4z"/><path fill="#EB5C33" d="M93.9 77.4c7 .9 13.3 3 17.2 6.1 9.3 7.4 4.9 23.8 0 32.4-8.5 14.6-27.9 26.4-42.6 13.1-8.2-7.4-15.8-20.3-15.1-31.7.8-16.4 22.9-22.1 40.5-19.9z"/><path fill="#EB5C33" d="M122.3 135c3.9-1.6-4.7-26.7-7.5-31.2l-14.1 16.6c3.3 3.6 14.6 17.5 21.6 14.6zm-65.5 5.1c-4.3-1.3 1.9-30 4.3-35.4L78 121.6c-3.1 4.3-13.5 20.9-21.2 18.5z"/><path fill="#FFD98C" d="M80.5 82.6c4.4.2 8.3 1.9 10.1 5.2 3.8 7-5 17.3-13.1 18.4-10.2 1.3-18.9-10-13-17.6 2.9-4 9.9-6.3 16-6z"/><path fill="#3F2113" d="M72.6 104.7c2.5 3.7 12.7 1.2 11.4-4.2-1.2-5.1-11.1-2.8-11.8 1.5-.3 1.1-.1 2 .4 2.7z"/><path fill="#FFF" d="M74.8 104.8c1 .5 2.6.6 3.3 0 1.7-1.6-1.8-2.4-3-1.8-1.5.6-1.2 1.4-.3 1.8z"/><circle fill="#3F2113" cx="97.5" cy="103.9" r="4"/><circle fill="#FFF" cx="96.8" cy="104.7" r="1.7"/><circle fill="#3F2113" cx="65.2" cy="110.8" r="4"/><circle fill="#FFF" cx="64.4" cy="111.7" r="1.7"/><path fill="#EB5C33" d="M80.9 141.8c.9 6.7 5.2 6 7.9 1.2 2.6-4.7 4.4-12.4 10.1-14.4H77.4c-4.3 5.2-2.4 23 3.5 13.2z"/><path fill="#FFD98C" d="M68.7 54.5c.7 4.5 2.1 8.9 3.8 12 7.6 14 15.3 9.6 18.7-3.8 1.4-5.5 1.8-11.2 3-16.8 2.2-10.1-3.9-12.6-13-12.1-11.7.8-13.9 11.1-12.5 20.7z"/><path fill="#914F21" d="M82.9 80.7c12 7.3 34.1 5.8 32.4-9.1-.7-6-5.9-9.4-9-13.9-3.5-4.9-3.9-10.6-5.5-16.2.8 2.7-14.5 12.7-16.2 14.2-5 4.4-10.7 9.6-8.6 16.9.9 3.3 3.5 6 6.9 8.1z"/><path fill="#D49665" d="M82.9 80.7c10.6 6.5 29.3 6.1 32.1-4.6-2.7 2.7-6.7 4.4-9.6 3.4-5.5-1.9-5.2-10.4-5.4-14.9-1.9 4.9-3.8 12.7-10.4 12.3-6.1-.4-7.5-8-7.9-12.9.3 5.3-1.7 8.6-5.5 9.9 1.4 2.7 3.7 5 6.7 6.8z"/><path fill="#EB5C33" d="M112 52.9c1.3.2 2.5.8 3.5 1.7 6.6 6.3-2 13.9-7.6 13.4-4.1-.3-8-5.6-5.5-10.5 1.7-3.4 6-5.2 9.6-4.6zM62 76.1c2.9 7.5 14.9 5.3 11.9-2.8C77 69.8 95.6 66 92.1 58.4 86.4 45.9 56.6 62.2 62 76.1z"/><path fill="#EF781C" d="M75.7 90.4c3.5-2.8 8.8-.5 10.3 3.4.7 1.7 3.4 1 2.8-.8-2.3-6.1-9.8-8.8-15.1-4.7-1.5 1.2.6 3.2 2 2.1z"/></svg>