<svg xmlns="http://www.w3.org/2000/svg" width="150" height="150" viewBox="0 0 150 150"><g fill="#312783"><path d="M37.604 73.104l-25.112-.008h-.013c-2.135 0-3.874 1.769-3.868 3.904l.084 24.179c.008 2.128 1.736 3.895 3.858 3.895h.014c1.2 0 2.271-.601 2.976-1.466l1.524 23.534c.134 2.103 1.882 3.684 3.991 3.684h7.953c2.108 0 3.852-1.603 3.989-3.705l1.52-23.575c.707.916 1.775 1.529 2.979 1.529h.014c2.124 0 3.849-1.798 3.864-3.912l.077-24.135c.006-2.118-1.719-3.924-3.85-3.924z"/><circle cx="25.036" cy="59.829" r="10.694"/></g><g fill="#312783"><path d="M84.183 61.966l-29.957-.01h-.016c-2.547 0-4.622 2.11-4.615 4.657l.1 28.845c.01 2.539 2.07 4.647 4.602 4.647h.017c1.432 0 2.709-.716 3.55-1.749l1.818 28.075c.159 2.509 2.245 4.395 4.761 4.395h9.487c2.515 0 4.595-1.912 4.759-4.42l1.814-28.124c.843 1.093 2.117 1.824 3.554 1.824h.017c2.534 0 4.592-2.145 4.609-4.667l.092-28.793c.008-2.525-2.05-4.68-4.592-4.68z"/><circle cx="69.189" cy="46.13" r="12.758"/></g><g fill="#312783"><path d="M136.927 51.106l-34.682-.011h-.018c-2.949 0-5.351 2.443-5.342 5.391L97 89.88c.011 2.939 2.397 5.38 5.328 5.38h.02c1.657 0 3.137-.829 4.11-2.025l2.105 32.502c.185 2.905 2.599 5.088 5.512 5.088h10.984c2.911 0 5.32-2.214 5.509-5.117l2.1-32.559c.976 1.265 2.451 2.111 4.115 2.111h.02c2.934 0 5.316-2.483 5.336-5.403l.106-33.333c.008-2.923-2.374-5.418-5.318-5.418z"/><circle cx="119.569" cy="32.773" r="14.77"/></g></svg>