<svg xmlns="http://www.w3.org/2000/svg" width="150" height="150" viewBox="0 0 150 150"><path fill="#84CDE3" stroke="#010202" stroke-miterlimit="10" d="M44.187 86.876s-17.656 9.822-17.653 27.209c.006 30.413 26.176 32.531 38.889 32.784 12.463.248 38.699 2.201 44.729-22.696 4.114-16.989-9.955-31.457-9.955-31.457l-56.01-5.84z"/><path fill="#A6D9E2" stroke="#010202" stroke-miterlimit="10" d="M43.921 91.123s-16.128 12.468-19.644-8.627c-1.99-11.946 20.574-20.507 26.148-19.597 3.438.562 5.442 11.368 5.442 11.368L43.921 91.123z"/><path fill="#A6D9E2" stroke="#010202" stroke-miterlimit="10" d="M54.54 55.42s-9.327 10.372-10.751 16.724c-1.726 7.698-3.778 18.449 13.671 22.639 3.328.799 13.671.722 13.671.722s5.176 9.424 15.662 7.3c17.83-3.611 14.161-17.625 12.847-23.996-2.167-10.512-17.227-18.876-17.227-18.876L54.54 55.42z"/><path fill="none" stroke="#010202" stroke-miterlimit="10" d="M89.016 80.14S78.82 76.246 72.69 83.077c-5.556 6.192-1.56 12.427-1.56 12.427s-3.763-6.088 1.734-12.327c5.898-6.695 16.152-3.037 16.152-3.037z"/><path d="M60.944 130.908c-8.992-1.493 11.386-33.676 11.386-33.676s1.977 2.178 2.625 2.718c.717.595 2.828 1.765 2.828 1.765s-8.043 16.949-11.099 26.904c-1.299 4.234-4.146 2.554-5.74 2.289zm21.169-51.869l7.479-14.127 3.09 2.752-4.824 12.112s-1.79-.424-2.397-.509c-.831-.116-3.348-.228-3.348-.228z" fill="#683D14" stroke="#010202" stroke-miterlimit="10"/><path fill="#1E1E1C" stroke="#E52822" stroke-miterlimit="10" d="M69.057 25.838c-.216-2.008 4.654-4.165 6.62-4.629 1.91-.451 6.745-.532 7.765 1.145 1.01 1.662-1.362 6.322-3.136 7.118-2.697 1.209-10.933-.696-11.249-3.634z"/><path fill="#C6E6F0" stroke="#020304" stroke-miterlimit="10" d="M90.376 43.209c.006 16.856-13.384 20.771-23.625 20.838-9.291.061-18.989-7.902-21.237-13.803-2.722-7.146.531-22.829 12.211-25.484 21.406-4.866 32.648 8.599 32.651 18.449z"/><path fill="#585857" stroke="#020304" stroke-miterlimit="10" d="M44.611 4.983C49.961.205 58.256.958 60.712 2.66c1.49 1.033 1.172 6.304 1.172 6.304l-10.53 10.043s-8.467 2.712-10.552.774c-2.549-2.369-2.005-9.605 3.809-14.798z"/><path fill="#585857" stroke="#020304" stroke-miterlimit="10" d="M46.178 36.97s-.88-4.662-.929-6.238c-.038-1.215.263-3.724 0-4.911-.306-1.384-1.744-3.379-2.787-4.612-.601-.71-2.779-9.989 4.497-14.235 7.847-4.579 13.042-2.008 15.062-1.255 5.858 2.184 20.06 14.262 20.06 14.262L64.756 25.34 46.178 36.97z"/><path fill="none" stroke="#020304" stroke-miterlimit="10" d="M45.355 26.982s2.922-6.081 3.494-8.187c.168-.618.589-2.299-.149-2.713-.83-.465-1.984.658-2.364 1.593-.296.727.035 2.405-.058 3.185-.041.348-.135-2.383.257-3.036.266-.443 1.269-2.14 1.966-1.568.923.759.053 3.064-.143 3.555-.797 2.002-3.003 7.171-3.003 7.171z"/><path fill="#585857" stroke="#020304" stroke-miterlimit="10" d="M84.868 20.446c-3.231-3.788-15.137.884-19.71 2.854-6.354 2.738-21.635 14.909-21.635 14.909l3.436-.043s14.205-9.521 19.66-12.229c3.158-1.568 12.963-4.973 14.998-3.434 1.626 1.229-1.773 4.531-1.773 4.531l2.14 1.366c-.001 0 5.688-4.668 2.884-7.954z"/><path fill="#1E1E1C" stroke="#020304" stroke-miterlimit="10" d="M75.378 29.471c.701-1.013 3.794 1.079 4.447 2.124.733 1.174 2.658 4.994 1.327 5.375-1.149.33-1.48-3.332-2.323-4.18-.844-.849-4.133-2.335-3.451-3.319z"/><path fill="#3D3D3B" stroke="#010202" stroke-miterlimit="10" d="M98.207 42.611s2.836-13.259 3.053-17.271c.227-4.192-.796-16.773-.796-16.773h5.774s-.238 12.626-.896 16.773c-.679 4.279-4.712 17.702-4.712 17.702l-2.423-.431z"/><path fill="#3D3D3B" stroke="#010202" stroke-miterlimit="10" d="M100.862 43.459s3.934-15.244 4.621-19.203c.754-4.341.754-20.733.754-20.733h5.906s-2.047 18.259-3.252 22.282c-2.111 7.051-6.67 17.896-6.67 17.896l-1.359-.242z"/><path fill="#3D3D3B" stroke="#010202" stroke-miterlimit="10" d="M105.762 32.723s1.08-2.576 2.898-6.159c1.993-3.929 6.395-20.372 6.395-20.372l4.057 3.436s-5.721 15.152-8.052 18.645c-4.086 6.122-7.536 12.814-7.536 12.814l2.238-8.364z"/><path fill="#3D3D3B" stroke="#010202" stroke-miterlimit="10" d="M102.306 43.486s8.617-17.02 10.567-20.519c2.145-3.848 6.836-17.918 6.836-17.918l7.348 5.419s-4.266 5.218-6.685 8.65C115.66 25.804 103.98 44.57 103.98 44.57l-1.674-1.084z"/><path fill="#3D3D3B" stroke="#010202" stroke-miterlimit="10" d="M103.181 45.336s11.515-17.085 14.139-20.112c3.451-3.982 9.738-8.959 9.738-8.959l3.27 4.844s-8.506 6.593-11.481 9.556c-5.929 5.906-12.609 15.662-12.609 15.662l-3.057-.991z"/><path fill="#3D3D3B" stroke="#010202" stroke-miterlimit="10" d="M105.54 46.327s9.521-13.033 12.145-16.06c3.451-3.982 8.063-7.217 8.063-7.217l3.285 7.317s-6.658 2.932-9.922 5.575c-3.32 2.688-11.979 11.697-11.979 11.697l-1.592-1.312zm-8.031 2.091s-1.748 3.924-6.708 8.103c-2.916 2.456-9.383 6.089-4.772 9.334 2.688 1.891 3.079.012 7.615-7.416 3.42-5.6 5.923-9.407 5.923-9.407l-2.058-.614z"/><path fill="#3D3D3B" stroke="#010202" stroke-miterlimit="10" d="M99.368 48.063s-2.14 3.856-5.375 8.734c-2.041 3.078-7.4 9.191-4.35 11.259 3.802 2.578 3.209-.827 6.767-8.77 2.809-6.271 4.452-9.556 4.452-9.556l-1.494-1.667z"/><path fill="#3D3D3B" stroke="#010202" stroke-miterlimit="10" d="M100.487 48.932s-.692 3.901-3.624 9.345c-1.751 3.251-6.025 9.508-2.644 10.974 3.988 1.73 4.336.262 6.268-8.224 1.735-7.618 1.818-10.935 1.818-10.935l-1.818-1.16z"/><path fill="#3D3D3B" stroke="#010202" stroke-miterlimit="10" d="M101.957 50.376s.349 4.43-1.891 10.45c-.831 2.233-4.044 9.206-.498 10.206 4.657 1.313 3.217-2.867 4.181-8.249 1.045-5.837.043-11.072.043-11.072l-1.835-1.335zm-5.741-2.313s-2.042 1.568-7.001 5.747c-2.916 2.456-8.717 5.812-5.774 8.013 1.332.996 1.605 2.757 6.935-4.181 3.998-5.204 8.096-8.959 8.096-8.959l-2.256-.62zm0-2.2c0-1.56 4.999-1.57 6.587-.763 1.627.827 4.828 5.226 3.766 6.139-1.117.96-3.929-2.621-5.071-3.551-1.284-1.045-5.282-.365-5.282-1.825z"/><path fill="#3D3D3B" stroke="#010202" stroke-miterlimit="10" d="M95.213 47.757c0-1.56 4.554-1.016 6.146-.067 1.574.938 5.276 4.627 4.215 5.539-1.117.96-4.068-2.18-5.209-3.11-1.285-1.045-5.152-.902-5.152-2.362zm1.202-3.563c-.199-3.584 5.48-1.703 7.068-.896 1.627.827 6.238 3.783 4.214 6.072-.975 1.103-3.424-3.346-5.077-4.297-1.758-1.012-6.124.58-6.205-.879z"/><path fill="#1E1E1C" stroke="#010202" stroke-miterlimit="10" d="M71.197 39.359c.002-.998 1.46-2.722 2.92-2.721 1.109.001 3.252 1.527 2.854 3.393-.191.896-.722 2.253-2.887 2.253-1.028.001-2.891-1.197-2.887-2.925zM54.23 35.242c.002-.998 1.46-2.722 2.92-2.721 1.109.001 3.252 1.527 2.854 3.393-.191.896-.722 2.253-2.887 2.253-1.028.001-2.891-1.197-2.887-2.925z"/></svg>