<svg xmlns="http://www.w3.org/2000/svg" width="150" height="150" viewBox="0 0 150 150"><path fill="#9D7A4D" d="M0 27.911l150.005 8.54v113.764H0z"/><path fill="#7E613F" d="M12.094 62.153c4.007-3.487 16.969-13.455 16.969-13.455h6.188S21.563 59.978 15 68.84C9.02 76.916 0 92.366 0 92.366V73.835s8.855-8.863 12.094-11.682z"/><path fill="#7E613F" stroke="#7E613F" stroke-miterlimit="10" d="M27.563 89.063c2.39-8.711 16.313-41.493 16.313-41.493h4.875s-8.286 30.148-10.313 44.796c-3.188 23.043-3.938 57.849-3.938 57.849H14.25s8.251-42.702 13.313-61.152zm35.064-.94c-1.955-12.998-5-42.111-5-42.111l4.727.004s4.93 22.798 9.774 36.951c10 29.22 24.501 67.248 24.501 67.248H73.091s-7.637-43.292-10.464-62.092zm37.751-5.371c-8.112-11.099-27.751-38.458-27.751-38.458l5.75 1.719s20.001 21.485 32.001 36.31c20.239 25.003 57.502 67.893 57.502 67.893h-23.538c.001-.001-28.66-46.526-43.964-67.464zm17.876-15.362c-11.206-8.35-29.376-21.378-29.376-21.378l6.5.967s13.689 8.328 30.001 18.262c13.753 8.376 24.626 16.436 24.626 16.436v13.536S139.88 83.504 118.254 67.39z"/><path fill="#8C9B27" stroke="#8C9B27" stroke-miterlimit="10" d="M1.625 132.167l1.125 14.287 1.125-18.262 1 17.618 1-13.751 1.5 13.858 1.75-15.577 1.5 14.18 3.125-15.469-1 15.04 3.125-11.817 1.25 12.246 2.5-14.932v13.858l2.25-13.321.75 13.321 2.625-13.643v14.61s5-15.792 5.125-15.469-1.25 15.469-1.25 15.469L32.5 130.77l.5 12.676.875-12.354 1.75 10.742 2.5-11.817L39.5 144.09v-13.643l2.125 12.891 1.25-12.354L44 141.297l2.5-14.18.625 15.362s2.375-11.709 2.25-11.172c-.125.537.875 13.321.875 13.321l1.625-11.602s2.75 11.924 2.875 10.85c.125-1.074 1.125-12.354 1.125-12.354l1.25 9.024s4.125-10.957 4.25-10.313c.125.645 2.25 14.18 2.25 14.18l2.125-12.139s1.5 10.85 1.875 10.635 1.125-13.428 1.125-13.428l3.875 12.247s.625-10.85.625-10.528 1 8.916 1.25 9.239c.25.322 2.5-9.883 2.625-9.239.125.645 1.125 9.561 1.125 9.561s3.625-10.206 3.375-9.239-.225 9.991.012 10.313c.238.322 1.613-9.561 1.613-9.239s.625 11.602 1.375 10.635c.75-.967 1.25-13.213 1.25-13.213l1.75 11.065 2.5-12.569v15.792l2-10.098v10.528l2.125-14.073 1.375 13.213L98 130.233l1 12.998 2.5-16.114s-.125 14.18 0 14.61c.125.43 3-15.254 3-15.254l2 18.155 3.625-12.891.5 11.172L112 129.803l1.125 14.502L116 129.588v14.18l2.5-13.858 3.375 15.577V131.2l2.25 13.321 2.125-14.825-.75 13.428 3.75-13.106-.75 12.676 4.126-11.219v14.979l2-14.717v10.742l2.125-13.428 2.751 13.374s2.999-14.126 2.374-12.944c-.625 1.182.085 15.147.085 15.147l1.289-16.006 1.625 15.362L147 127.978l.75 16.436 2.25-14.933v20.734H0l1.625-18.048z"/><linearGradient id="a" gradientUnits="userSpaceOnUse" x1="297.603" y1="-193.934" x2="297.603" y2="-253.394" gradientTransform="matrix(1 0 0 -1 -222.6 -193.9)"><stop offset="0" stop-color="#1276bc"/><stop offset=".086" stop-color="#0d7abf"/><stop offset=".218" stop-color="#0d83c6"/><stop offset=".381" stop-color="#3494d1"/><stop offset=".567" stop-color="#7aaede"/><stop offset=".772" stop-color="#bbd1ee"/><stop offset=".993" stop-color="#feffff"/><stop offset="1" stop-color="#fff"/></linearGradient><path fill="url(#a)" d="M0 .034v56.721s38.802-9.51 75.003-9.346c35.626.161 75.003 12.085 75.003 12.085V.034H0z"/><path fill="#BA8231" stroke="#BA8231" stroke-miterlimit="10" d="M130.755 46.012c7.776-.517 19.251.653 19.251.653v12.829s-13.751-3.706-19.198-4.908c-6.946-1.532-20.745-4.008-20.745-4.008s9.378-3.814 20.692-4.566z"/><path fill="#F2F7FA" stroke="#F2F7FA" stroke-miterlimit="10" d="M92.613 18.513c-1.455-.61-2.67-2.526-2.658-5.075.018-3.772 4.724-3.806 4.724-3.806s1.33-2.563 4.429-4.06c1.956-.945 4.134 0 4.134 0s1.197-3.045 4.134-3.045c5.782 0 6.201 3.806 6.201 3.806s3.05-1.787 5.906-.508c5.796 2.596 5.119 4.914 4.926 6.939-.375 3.948-2.65 5.352-4.631 5.749-6.613 1.324-21.062 2.56-27.165 0zm39.267 10.204c-.848-10.207 9-8.057 9-8.057s.037-4.727 4.375-6.016c1.132-.336 4.75-.537 4.75-.537v27.608s-2.375-.537-3.375-2.149c-1.061-1.709.25-4.512.25-4.512s-14.25 2.687-15-6.337zM71.752 35.27c1.753-5.379 9-3.432 9-3.432s.276-4.337 4.75-6.451c2.5-1.182 6.75.86 6.75.86s2.25-4.624 8.243-4.512c6.356.119 9.382 4.619 9.382 4.619s12.833-5.577 15.376 4.941c3.375 13.965-8.296 15.43-13.997 15.469-9.284.064-28.586.677-37.005-2.686-2.391-.955-4.249-3.437-2.499-8.808z"/><path fill="#A56B23" stroke="#A56B23" stroke-miterlimit="10" d="M18.376 48.215l-2.813-.081v5.398l2.813-.524z"/><path fill="#CD6715" stroke="#CD6715" stroke-miterlimit="10" d="M17.157 48.698C7.688 49.101-1.667 42.63.75 38.868c.527-.82 4.125-1.209 4.125-1.209s-5.18-6.791-3.75-8.46c1.045-1.219 7.313 1.128 7.313 1.128S3.483 19.915 6.375 18.404c4.781-2.498 7.406 4.19 7.406 4.19s1.98-6.404 6.938-5.318c4.781 1.047 2.156 10.152 2.156 10.152s3.853-1.879 6 1.047c2.719 3.706-3.938 8.943-3.938 8.943s2.719-.645 3.938.806c2.476 2.945.835 9.94-11.718 10.474z"/><path fill="#A56B23" stroke="#A56B23" stroke-miterlimit="10" d="M59.752 73.243h-4.25v38.246l4.25-1.326z"/><path fill="#9B3334" stroke="#9B3334" stroke-miterlimit="10" d="M59.658 74.518c-19.569 1.76-44.13-34.449-33.368-42.566 3.708-2.796 17.358 5.903 17.358 5.903S26.609 9.962 34.042 4.922c5.768-3.911 24.605 13.515 24.605 13.515s1.517-14.758 7.752-14.758c15.167 0 12.134 17.555 12.134 17.555s8.258 1.087 9.437 11.03c1.465 12.342-7.583 40.39-28.312 42.254z"/></svg>