<?xml version="1.0" encoding="utf-8"?>
<!-- Generator: Adobe Illustrator 17.0.0, SVG Export Plug-In . SVG Version: 6.00 Build 0)  -->
<!DOCTYPE svg PUBLIC "-//W3C//DTD SVG 1.1//EN" "http://www.w3.org/Graphics/SVG/1.1/DTD/svg11.dtd">
<svg version="1.1" xmlns="http://www.w3.org/2000/svg" xmlns:xlink="http://www.w3.org/1999/xlink" x="0px" y="0px" width="150px"
	 height="150px" viewBox="0 0 150 150" enable-background="new 0 0 150 150" xml:space="preserve">
<g id="Слой_1__x28_копия_x29_">
	<g>
		<path fill="#010202" d="M87.414,61.961c-0.004,0-19.83-0.007-21.241-0.007c0,0-0.009,0-0.011,0c-1.806,0-3.277,1.496-3.272,3.302
			l0.071,20.452c0.007,1.8,1.468,3.295,3.263,3.295c0.004,0,0.009,0,0.012,0c1.015,0,1.921-0.508,2.517-1.24l1.289,19.906
			c0.113,1.779,1.592,3.116,3.376,3.116h6.727c1.783,0,3.258-1.356,3.374-3.134l1.286-19.941c0.598,0.775,1.501,1.293,2.52,1.293
			c0.004,0,0.005,0,0.012,0c1.797,0,3.256-1.521,3.268-3.309l0.065-20.415C90.677,63.489,89.218,61.961,87.414,61.961z"/>
		<circle fill="#010202" cx="76.784" cy="50.733" r="9.046"/>
	</g>
</g>
<g id="Слой_1__x28_копия2_x29_">
	<g>
		<path fill="#010202" d="M34.675,23.065c-0.004,0-19.83-0.007-21.241-0.007c0,0-0.009,0-0.011,0c-1.806,0-3.277,1.496-3.272,3.302
			l0.071,20.452c0.007,1.8,1.468,3.295,3.263,3.295c0.004,0,0.009,0,0.012,0c1.015,0,1.921-0.508,2.517-1.24l1.289,19.906
			c0.113,1.779,1.592,3.116,3.376,3.116h6.727c1.783,0,3.258-1.356,3.374-3.134l1.286-19.941c0.598,0.775,1.501,1.293,2.52,1.293
			c0.004,0,0.005,0,0.012,0c1.797,0,3.256-1.521,3.268-3.309l0.065-20.415C37.938,24.593,36.479,23.065,34.675,23.065z"/>
		<circle fill="#010202" cx="24.045" cy="11.837" r="9.046"/>
	</g>
</g>
<g id="Слой_1__x28_копия5_x29_">
	<g>
		<path fill="#010202" d="M137.474,23.065c-0.004,0-19.83-0.007-21.241-0.007c0,0-0.009,0-0.011,0c-1.806,0-3.277,1.496-3.272,3.302
			l0.071,20.452c0.007,1.8,1.468,3.295,3.263,3.295c0.004,0,0.009,0,0.012,0c1.015,0,1.921-0.508,2.517-1.24l1.289,19.906
			c0.113,1.779,1.592,3.116,3.376,3.116h6.727c1.783,0,3.258-1.356,3.374-3.134l1.286-19.941c0.598,0.775,1.501,1.293,2.52,1.293
			c0.004,0,0.005,0,0.012,0c1.797,0,3.256-1.521,3.268-3.309l0.065-20.415C140.737,24.593,139.278,23.065,137.474,23.065z"/>
		<circle fill="#010202" cx="126.844" cy="11.837" r="9.046"/>
	</g>
</g>
<g id="Слой_1__x28_копия3_x29_">
	<g>
		<path fill="#7A7A7A" d="M137.66,96.531c-0.004,0-19.83-0.007-21.241-0.007c0,0-0.009,0-0.011,0c-1.806,0-3.277,1.496-3.272,3.302
			l0.071,20.452c0.007,1.8,1.468,3.295,3.263,3.295c0.004,0,0.009,0,0.012,0c1.015,0,1.921-0.508,2.517-1.24l1.289,19.906
			c0.113,1.779,1.592,3.116,3.376,3.116h6.727c1.783,0,3.258-1.356,3.374-3.134l1.286-19.941c0.598,0.775,1.501,1.293,2.52,1.293
			c0.004,0,0.005,0,0.012,0c1.797,0,3.256-1.521,3.268-3.309l0.065-20.415C140.923,98.059,139.464,96.531,137.66,96.531z"/>
		<circle fill="#7A7A7A" cx="127.03" cy="85.303" r="9.046"/>
	</g>
</g>
<g id="Слой_1__x28_копия4_x29_">
	<g>
		<path fill="#010202" d="M34.607,95.075c-0.004,0-19.83-0.007-21.241-0.007c0,0-0.009,0-0.011,0c-1.806,0-3.277,1.496-3.272,3.302
			l0.071,20.452c0.007,1.8,1.468,3.295,3.263,3.295c0.004,0,0.009,0,0.012,0c1.015,0,1.921-0.508,2.517-1.24l1.289,19.906
			c0.113,1.779,1.592,3.116,3.376,3.116h6.727c1.783,0,3.258-1.356,3.374-3.134l1.286-19.941c0.598,0.775,1.501,1.293,2.52,1.293
			c0.004,0,0.005,0,0.012,0c1.797,0,3.256-1.521,3.268-3.309l0.065-20.415C37.869,96.603,36.41,95.075,34.607,95.075z"/>
		<circle fill="#010202" cx="23.976" cy="83.847" r="9.046"/>
	</g>
	<g>
	</g>
	<g>
	</g>
	<g>
	</g>
	<g>
	</g>
	<g>
	</g>
	<g>
	</g>
</g>
</svg>
