<?xml version="1.0" encoding="utf-8"?>
<!-- Generator: Adobe Illustrator 18.1.1, SVG Export Plug-In . SVG Version: 6.00 Build 0)  -->
<svg version="1.1" id="Layer_1" xmlns="http://www.w3.org/2000/svg" xmlns:xlink="http://www.w3.org/1999/xlink" x="0px" y="0px" width="150px" height="150px" viewBox="0 0 150 150" enable-background="new 0 0 150 150" xml:space="preserve">
<path fill="#32323E" d="M135.4,8.6l-80.2,9.7l0.1,12.3l0.3,80.1c-4.2-3.9-10.3-6.6-17.2-6.6c-12.6,0-22.9,8.5-22.9,19.1
	s10.2,19.1,22.8,19.1c12.5,0,22.6-6.6,22.8-18.6L61,41.8l68.8-9.4l0.3,69.2c-4.2-3.9-10.3-6.5-17.2-6.5c-12.6,0-22.8,8.5-22.8,19.1
	s10.2,19.8,22.8,19.8c12.5,0,22.6-8,22.8-17.9L135.4,8.6z M61.1,35.5v-5.6l68.7-8.9v5L61.1,35.5z"/>
</svg>
