<svg xmlns="http://www.w3.org/2000/svg" width="198" height="278" viewBox="0 0 198 278" version="1.1">
	<path d="M 34.025 2.735 C 32.663 2.990, 30.921 4.096, 30.153 5.192 C 29.223 6.520, 27.977 7.038, 26.427 6.741 C 25.083 6.484, 24.184 6.756, 24.299 7.383 C 24.410 7.981, 21.700 9.827, 18.278 11.485 C 10.420 15.293, 9.258 16.401, 10.965 18.458 C 11.722 19.370, 11.820 20, 11.206 20 C 10.634 20, 9.974 19.438, 9.739 18.750 C 9.425 17.831, 8.058 18.103, 4.583 19.772 L -0.145 22.045 4.483 27.193 C 10.359 33.728, 11.647 36, 9.476 36 C 8.561 36, 8.175 36.474, 8.569 37.112 C 8.947 37.723, 8.654 38.596, 7.918 39.051 C 6.842 39.716, 6.945 40.282, 8.445 41.939 C 10.288 43.975, 10.275 44, 7.405 44.002 C 4.910 44.004, 4.471 44.415, 4.297 46.918 C 4.103 49.691, 5.804 52.235, 7.645 51.927 C 8.115 51.848, 9.512 52.110, 10.750 52.508 C 13.735 53.470, 13.941 58, 11 58 C 8.672 58, 8.577 58.350, 10.202 60.952 C 11.158 62.482, 11.107 63.434, 9.952 65.598 C 8.856 67.652, 8.527 71.902, 8.610 82.910 C 8.781 105.588, 12.442 116.614, 25.696 134.372 C 39.383 152.710, 55.066 159.538, 76.500 156.490 C 82.219 155.677, 84.954 155.638, 89.557 156.303 C 90.689 156.467, 93.335 158.153, 95.439 160.050 C 99.397 163.620, 110 176.377, 110 177.569 C 110 177.941, 112.796 181.984, 116.214 186.553 C 121.702 193.888, 123.252 195.263, 129.464 198.308 C 134.010 200.536, 139.331 202.183, 144.500 202.963 C 175.871 207.691, 183.755 211.236, 190.768 223.765 C 195.055 231.424, 195.775 247.302, 191.891 248.534 C 190.851 248.865, 190 249.644, 190 250.267 C 190 251.073, 190.346 251.054, 191.200 250.200 C 193.102 248.298, 193.692 248.774, 193.497 252.050 C 193.261 256.011, 190.448 259.759, 184.863 263.551 C 181.226 266.021, 177.617 267.134, 165.935 269.391 C 150.377 272.397, 144 274.081, 144 275.184 C 144 276.701, 146.169 277.075, 149.256 276.092 C 151.040 275.523, 156.550 274.345, 161.500 273.474 C 182.343 269.804, 190.679 265.180, 195.634 254.538 C 201.266 242.444, 196.399 221.153, 185.762 211.348 C 178.959 205.078, 171.612 202.768, 145.054 198.552 C 138.325 197.484, 135.025 196.470, 133.582 195.026 C 131.583 193.027, 131.582 193, 133.528 192.977 C 134.965 192.961, 134.605 192.513, 132.200 191.328 C 128.599 189.553, 122 182.432, 122 180.320 C 122 179.594, 121.602 179, 121.116 179 C 120.630 179, 119.206 176.413, 117.953 173.250 C 116.699 170.088, 115.340 167.050, 114.934 166.500 C 113.726 164.865, 106 145.872, 106 144.537 C 106 142.651, 109.016 136.894, 112.045 133 C 121.208 121.218, 124.991 108.885, 124.357 92.857 C 123.528 71.893, 118.982 61.837, 103.823 47.436 C 97.160 41.108, 83.070 31.228, 79.782 30.580 C 77.471 30.124, 69.553 28.890, 67 28.587 C 63.017 28.115, 58 25.682, 58 24.222 C 58 23.485, 58.450 23.160, 59 23.500 C 59.550 23.840, 60 23.641, 60 23.059 C 60 22.477, 59.325 22, 58.500 22 C 57.576 22, 57 21.062, 57 19.559 C 57 18.216, 56.550 16.840, 56 16.500 C 55.417 16.139, 55 17.156, 55 18.941 C 55 20.623, 54.559 22, 54.019 22 C 52.533 22, 51.693 17.418, 52.259 12.396 C 52.606 9.315, 52.410 8.028, 51.632 8.283 C 51.009 8.487, 50.358 9.857, 50.184 11.327 C 49.865 14.016, 48.624 14.819, 47.527 13.044 C 47.202 12.518, 46.388 12.294, 45.718 12.546 C 45.048 12.799, 42.925 10.531, 41 7.508 C 39.075 4.484, 37.275 2.069, 37 2.141 C 36.725 2.213, 35.386 2.481, 34.025 2.735 M 11.510 38.984 C 10.773 40.177, 11.709 42, 13.059 42 C 14.276 42, 14.284 39.293, 13.069 38.543 C 12.557 38.226, 11.856 38.425, 11.510 38.984" fill="none" stroke="#000" stroke-width="2px" fill-rule="evenodd"/>
</svg>
