<svg xmlns="http://www.w3.org/2000/svg" width="280" height="230" viewBox="0 0 280 230" version="1.1">
	<path d="M 81.875 2.506 C 80.432 3.291, 79 4.893, 78.693 6.067 C 78.385 7.246, 77.657 7.906, 77.067 7.542 C 76.480 7.179, 76 7.268, 76 7.740 C 76 8.212, 74.438 9.163, 72.530 9.853 C 69.165 11.070, 65 15.576, 65 18 C 65 18.656, 63.425 22.511, 61.500 26.568 C 59.575 30.624, 58 35.081, 58 36.472 C 58 39.809, 54.687 43, 51.223 43 C 47.888 43, 44 45.512, 44 47.667 C 44 48.809, 44.491 48.615, 45.851 46.936 C 47.385 45.041, 48.755 44.625, 53.851 44.504 C 57.233 44.423, 60 44.491, 60 44.655 C 60 45.938, 51.500 67.217, 46.280 79 C 35.439 103.473, 29.640 125.317, 29.554 142 C 29.504 151.763, 29.719 152.956, 32.625 159 C 34.343 162.575, 36.768 166.560, 38.012 167.856 C 39.861 169.781, 40.022 170.382, 38.888 171.142 C 38.124 171.654, 36.038 171.860, 34.251 171.599 C 31.788 171.241, 30.761 171.578, 30.002 172.995 C 29.452 174.023, 27.989 175.182, 26.751 175.571 C 25.513 175.959, 21.917 177.523, 18.760 179.047 C 15.166 180.783, 12.176 181.601, 10.760 181.236 C 8.746 180.717, 8.649 180.835, 9.872 182.327 C 11.036 183.745, 11.036 184.267, 9.872 185.750 C 9.118 186.713, 7.937 187.860, 7.250 188.300 C 6.562 188.740, 6 190.574, 6 192.375 C 6 194.534, 5.187 196.415, 3.618 197.890 C 0.761 200.574, -0.329 206.226, 1.049 211.217 C 1.931 214.409, 2.669 215.061, 7.037 216.512 C 9.777 217.422, 12.501 219.068, 13.091 220.169 C 13.680 221.270, 14.422 221.912, 14.739 221.594 C 15.056 221.277, 16.006 221.576, 16.850 222.259 C 18.094 223.265, 18.231 223.247, 17.577 222.160 C 17.134 221.423, 18.611 222.038, 20.861 223.527 C 24.146 225.701, 25.597 226.094, 28.226 225.524 C 33.268 224.430, 37.419 224.567, 51.500 226.291 C 58.650 227.166, 71.925 228.177, 81 228.537 C 95.247 229.103, 100.367 228.843, 118.500 226.638 C 150.278 222.773, 169.316 217.269, 183 207.991 C 190.406 202.970, 201.710 190.797, 206 183.222 C 209.752 176.596, 209.710 176.611, 216.500 179.542 L 219.500 180.837 214.500 180.989 C 210.768 181.102, 210.007 181.356, 211.500 181.989 C 212.600 182.455, 215.750 182.616, 218.500 182.347 C 222.733 181.932, 225.034 182.490, 233.500 185.983 C 239 188.253, 246.776 191.455, 250.779 193.100 C 255.925 195.214, 259.588 196.059, 263.279 195.985 C 266.151 195.927, 270.075 196.168, 272 196.520 C 274.918 197.054, 275.894 196.741, 277.867 194.642 C 279.835 192.547, 280.122 191.481, 279.574 188.311 C 279.211 186.215, 278.923 183.168, 278.933 181.540 C 278.967 176.370, 276.353 168.374, 273.070 163.601 C 271.322 161.061, 270.168 158.537, 270.505 157.992 C 270.842 157.446, 270.270 157, 269.233 157 C 268.197 157, 266.279 155.862, 264.972 154.471 C 263.665 153.079, 261.957 152.186, 261.176 152.486 C 260.375 152.793, 257.958 151.384, 255.628 149.251 C 250.870 144.895, 230.961 131.323, 220.058 125.002 C 209.723 119.011, 182.523 106.559, 171.052 102.568 C 154.472 96.799, 147.544 95.681, 132.141 96.287 C 123.835 96.614, 116.580 97.445, 113.591 98.412 C 110.891 99.285, 108.349 100, 107.941 100 C 107.534 100, 107.268 94.167, 107.350 87.039 C 107.433 79.910, 107.650 74.510, 107.833 75.039 C 108.017 75.567, 108.606 76, 109.142 76 C 109.679 76, 109.808 75.499, 109.430 74.886 C 109.051 74.274, 108.363 66.061, 107.899 56.636 C 106.823 34.725, 103.871 21.526, 98.902 16.399 C 97.096 14.536, 95.507 12.248, 95.370 11.315 C 94.674 6.575, 93.668 4.768, 90.723 2.973 C 86.933 0.662, 85.417 0.582, 81.875 2.506" fill="none" stroke="#000" stroke-width="2px" fill-rule="evenodd"/>
</svg>
