<svg xmlns="http://www.w3.org/2000/svg" width="290" height="169" viewBox="0 0 290 169" version="1.1">
	<path d="M 113 4.890 C 104.380 8.100, 99.242 10.591, 96.768 12.760 C 95.247 14.093, 93.508 14.122, 82.516 13.002 C 66.951 11.415, 62.122 11.975, 49.366 16.850 C 29.869 24.301, 13.057 37.517, 6.405 50.622 C 2.818 57.689, 2.500 58.977, 2.500 66.429 C 2.500 73.584, 2.889 75.332, 5.796 81.237 C 13.643 97.177, 32.686 109, 50.513 109 L 55.606 109 57.206 117.299 C 58.086 121.864, 60.945 130.697, 63.559 136.930 C 67.470 146.252, 69.362 149.383, 74.229 154.586 C 81.833 162.715, 87.169 164.843, 103 166.063 C 109.325 166.550, 116.300 167.400, 118.500 167.951 C 127.275 170.148, 133.705 168.844, 143.587 162.862 C 154.716 156.126, 166.141 142.156, 175.573 123.750 C 180.616 113.909, 182.892 111.399, 184.465 113.943 C 185.674 115.900, 199.827 122.913, 208 125.605 C 215.648 128.124, 217.918 128.409, 230.652 128.452 L 244.803 128.500 260.303 120.772 C 274.468 113.710, 276.190 112.556, 280.295 107.382 C 286.182 99.960, 287.848 94.398, 288.591 79.671 C 289.815 55.443, 283.392 39.759, 267.688 28.626 C 251.892 17.428, 231.574 10.985, 212.140 11.012 C 198.587 11.030, 191.267 13.521, 180.715 21.702 L 174.931 26.187 168.215 22.026 C 164.522 19.738, 159.025 16.088, 156 13.916 C 144.810 5.879, 134.410 1.936, 124.701 2.049 C 122.390 2.075, 117.125 3.354, 113 4.890" fill="none" stroke="#000" stroke-width="2px" fill-rule="evenodd"/>
</svg>
