<svg xmlns="http://www.w3.org/2000/svg" width="224" height="275" viewBox="0 0 224 275" version="1.1">
	<path d="M 104.831 2.512 C 107.687 6.144, 108.260 14.350, 106.817 31 C 105.433 46.976, 105.515 66.225, 106.978 68.960 C 107.835 70.559, 107.063 70.765, 98.209 71.300 C 88.196 71.905, 76.899 74.621, 64.500 79.404 C 56.742 82.398, 57.247 82.124, 50.497 87 C 38.147 95.922, 33.972 100.155, 27.057 110.763 C 23.207 116.669, 18.036 124.215, 15.564 127.534 C 5.527 141.013, 1.354 155.934, 2.298 174.977 C 3.247 194.132, 7.640 207.710, 17.945 223.347 C 30.840 242.911, 41.719 252.478, 62.500 262.525 C 81.948 271.928, 94.708 274.551, 116.911 273.707 C 134.359 273.044, 143.313 271.035, 158.542 264.366 C 179.913 255.006, 195.470 241.947, 208.078 222.783 C 227.734 192.907, 227.557 147.239, 207.674 118 C 205.033 114.116, 198.535 107.070, 180.500 88.535 C 178.300 86.273, 174.475 82.775, 172 80.759 C 167.613 77.187, 167.550 77.056, 169.500 75.530 C 172.618 73.089, 179.179 70, 181.247 70 C 182.314 70, 182.836 69.543, 182.461 68.937 C 182.100 68.352, 182.636 66.910, 183.652 65.732 C 184.813 64.386, 183.642 64.887, 180.500 67.082 C 177.750 69.002, 173.337 71.828, 170.694 73.362 C 165.985 76.094, 165.797 76.119, 161.388 74.616 C 158.913 73.773, 155.549 71.957, 153.913 70.580 C 149.849 67.161, 145.052 66.012, 134.809 66.006 C 129.700 66.002, 125.844 65.557, 125.454 64.926 C 125.089 64.335, 125.816 62.760, 127.070 61.426 C 128.323 60.092, 128.890 59, 128.329 59 C 127.769 59, 126.495 59.900, 125.500 61 C 124.505 62.100, 122.860 63, 121.845 63 C 119.145 63, 119.593 65.857, 122.500 67.182 C 126.174 68.856, 125.579 69.478, 120.107 69.685 C 115.238 69.870, 115.217 69.857, 113.639 65.685 C 112.459 62.564, 111.916 56.132, 111.507 40.389 C 110.802 13.324, 108.387 0, 104.187 -0 C 103.248 -0, 103.439 0.742, 104.831 2.512" fill="none" stroke="#000" stroke-width="2px" fill-rule="evenodd"/>
</svg>
