<svg xmlns="http://www.w3.org/2000/svg" width="281" height="203" viewBox="0 0 281 203" version="1.1">
	<path d="M 14.356 2.198 C 12.789 3.924, 12.381 5.405, 12.727 8.118 C 13.145 11.402, 12.825 11.996, 9.248 14.567 C 5.177 17.494, 1 22.947, 1 25.336 C 1 26.086, 2.339 28.548, 3.975 30.806 L 6.949 34.913 4.240 40.136 C 1.745 44.945, 1.538 46.237, 1.633 56.430 C 1.784 72.694, 5.570 82.297, 18.099 98.204 C 23.834 105.485, 30.067 111.183, 53.439 130.513 C 79.207 151.823, 101.607 164.628, 131 174.847 C 174.386 189.932, 213.246 200.798, 227 201.690 C 236.157 202.284, 245.622 200.545, 253.696 196.785 C 256.052 195.688, 258.755 195.105, 259.862 195.456 C 260.945 195.800, 262.121 195.613, 262.475 195.041 C 262.829 194.468, 264.161 194, 265.437 194 C 268.138 194, 269.465 192.586, 270.388 188.725 C 270.752 187.198, 271.990 185.010, 273.138 183.862 C 274.737 182.263, 275.096 180.979, 274.673 178.372 C 274.232 175.653, 274.611 174.480, 276.560 172.530 C 279.433 169.658, 279.812 165.188, 277.250 164.396 C 273.828 163.339, 272.483 162.281, 271.176 159.618 C 270.389 158.012, 268.763 156.703, 267.160 156.382 C 265.584 156.067, 263.562 154.461, 262.282 152.510 C 258.168 146.233, 254.477 144.203, 222 130.348 C 198.316 120.245, 173.279 106.485, 159.832 96.183 C 156.350 93.514, 146.075 86.015, 137 79.517 C 127.925 73.019, 114.425 62.688, 107 56.559 C 74.209 29.492, 57.822 20.392, 40 19.355 C 32.482 18.917, 30.492 19.198, 22.774 21.787 C 17.974 23.397, 13.812 24.479, 13.524 24.190 C 12.235 22.902, 13.329 20.804, 17.766 16.053 L 22.533 10.950 28.370 11.194 C 33.138 11.393, 34.462 11.089, 35.603 9.528 C 37.580 6.825, 37.392 6.332, 33.925 5.124 C 32.234 4.534, 31.098 3.651, 31.401 3.161 C 31.704 2.671, 29.394 1.969, 26.267 1.602 C 23.141 1.234, 19.653 0.700, 18.515 0.414 C 17.159 0.074, 15.727 0.688, 14.356 2.198 M 32.500 8 C 32.840 8.550, 33.541 9, 34.059 9 C 34.577 9, 35 8.550, 35 8 C 35 7.450, 34.298 7, 33.441 7 C 32.584 7, 32.160 7.450, 32.500 8" fill="none" stroke="#000" stroke-width="2px" fill-rule="evenodd"/>
</svg>
